<?xml version="1.0" encoding="UTF-8" standalone="no"?>
<svg
   xmlns:dc="http://purl.org/dc/elements/1.1/"
   xmlns:cc="http://creativecommons.org/ns#"
   xmlns:rdf="http://www.w3.org/1999/02/22-rdf-syntax-ns#"
   xmlns:svg="http://www.w3.org/2000/svg"
   xmlns="http://www.w3.org/2000/svg"
   xmlns:xlink="http://www.w3.org/1999/xlink"
   xmlns:sodipodi="http://sodipodi.sourceforge.net/DTD/sodipodi-0.dtd"
   xmlns:inkscape="http://www.inkscape.org/namespaces/inkscape"
   width="563.19043"
   height="463.41748"
   viewBox="0 0 563.19043 463.41748"
   id="svg2"
   sodipodi:version="0.32"
   inkscape:version="0.46+devel"
   sodipodi:docname="hw7d1.svg"
   inkscape:output_extension="org.inkscape.output.svg.inkscape"
   version="1.0">
  <metadata
     id="metadata274">
    <rdf:RDF>
      <cc:Work
         rdf:about="">
        <dc:format>image/svg+xml</dc:format>
        <dc:type
           rdf:resource="http://purl.org/dc/dcmitype/StillImage" />
      </cc:Work>
    </rdf:RDF>
  </metadata>
  <sodipodi:namedview
     pagecolor="#ffffff"
     bordercolor="#ffffff"
     borderopacity="1"
     objecttolerance="10"
     gridtolerance="10"
     guidetolerance="10"
     inkscape:pageopacity="0"
     inkscape:pageshadow="2"
     inkscape:window-width="1280"
     inkscape:window-height="712"
     id="namedview272"
     showgrid="false"
     inkscape:zoom="1.0703092"
     inkscape:cx="281.59521"
     inkscape:cy="231.70875"
     inkscape:window-x="-5"
     inkscape:window-y="-3"
     inkscape:current-layer="svg2" />
  <desc
     id="desc4">Produced by GNUPLOT 4.2 patchlevel 3  </desc>
  <defs
     id="defs6">
    <inkscape:perspective
       sodipodi:type="inkscape:persp3d"
       inkscape:vp_x="0 : 240 : 1"
       inkscape:vp_y="0 : 1000 : 0"
       inkscape:vp_z="600 : 240 : 1"
       inkscape:persp3d-origin="300 : 160 : 1"
       id="perspective276" />
    <circle
       id="gpDot"
       r="1"
       cx="0"
       cy="0"
       sodipodi:cx="0"
       sodipodi:cy="0"
       sodipodi:rx="1"
       sodipodi:ry="1" />
    <path
       id="gpPt0"
       style="stroke-width:0.222"
       d="M -1,0 H 1 M 0,-1 v 2" />
    <path
       id="gpPt1"
       style="stroke-width:0.222"
       d="M -1,-1 1,1 M 1,-1 -1,1" />
    <path
       id="gpPt2"
       style="stroke-width:0.222"
       d="M -1,0 1,0 M 0,-1 0,1 m -1,-2 2,2 m -2,0 2,-2" />
    <rect
       id="gpPt3"
       style="stroke-width:0.222"
       x="-1"
       y="-1"
       width="2"
       height="2" />
    <use
       xlink:href="#gpPt3"
       id="gpPt4"
       style="fill:currentColor;stroke:none"
       x="0"
       y="0"
       width="600"
       height="480" />
    <circle
       id="gpPt5"
       style="stroke-width:0.222"
       cx="0"
       cy="0"
       r="1"
       sodipodi:cx="0"
       sodipodi:cy="0"
       sodipodi:rx="1"
       sodipodi:ry="1" />
    <use
       xlink:href="#gpPt5"
       id="gpPt6"
       style="fill:currentColor;stroke:none"
       x="0"
       y="0"
       width="600"
       height="480" />
    <path
       id="gpPt7"
       style="stroke-width:0.222"
       d="m 0,-1.33 -1.33,2 2.66,0 z" />
    <use
       xlink:href="#gpPt7"
       id="gpPt8"
       style="fill:currentColor;stroke:none"
       x="0"
       y="0"
       width="600"
       height="480" />
    <use
       xlink:href="#gpPt7"
       id="gpPt9"
       transform="scale(-1,-1)"
       x="0"
       y="0"
       width="600"
       height="480" />
    <use
       xlink:href="#gpPt9"
       id="gpPt10"
       style="fill:currentColor;stroke:none"
       x="0"
       y="0"
       width="600"
       height="480" />
    <use
       xlink:href="#gpPt3"
       id="gpPt11"
       transform="matrix(0.70710678,0.70710678,-0.70710678,0.70710678,0,0)"
       x="0"
       y="0"
       width="600"
       height="480" />
    <use
       xlink:href="#gpPt11"
       id="gpPt12"
       style="fill:currentColor;stroke:none"
       x="0"
       y="0"
       width="600"
       height="480" />
    <inkscape:perspective
       id="perspective2976"
       inkscape:persp3d-origin="0.5 : 0.33333333 : 1"
       inkscape:vp_z="1 : 0.5 : 1"
       inkscape:vp_y="0 : 1000 : 0"
       inkscape:vp_x="0 : 0.5 : 1"
       sodipodi:type="inkscape:persp3d" />
  </defs>
  <g
     style="color:#ffffff;fill:none;stroke:currentColor;stroke-width:1;stroke-linecap:butt;stroke-linejoin:miter"
     id="g22"
     transform="translate(-18.834082,-14.51875)" />
  <g
     style="color:#ffffff;fill:none;stroke:currentColor;stroke-width:0.5;stroke-linecap:butt;stroke-linejoin:miter"
     id="g24"
     transform="translate(-18.834082,-14.51875)" />
  <g
     style="color:#000000;fill:none;stroke:currentColor;stroke-width:0.5;stroke-linecap:butt;stroke-linejoin:miter"
     id="g26"
     transform="translate(-18.834082,-14.51875)" />
  <g
     style="color:#000000;fill:none;stroke:currentColor;stroke-width:1;stroke-linecap:butt;stroke-linejoin:miter"
     id="g28"
     transform="translate(-18.834082,-14.51875)" />
  <g
     style="color:#808080;fill:none;stroke:currentColor;stroke-width:1;stroke-linecap:butt;stroke-linejoin:miter"
     id="g30"
     transform="translate(-18.834082,-14.51875)">
    <path
       d="m 42.2,444 532.2,0"
       id="path32" />
  </g>
  <g
     style="color:#808080;fill:none;stroke:currentColor;stroke-width:0.5;stroke-linecap:butt;stroke-linejoin:miter"
     id="g34"
     transform="translate(-18.834082,-14.51875)" />
  <g
     style="color:#000000;fill:none;stroke:currentColor;stroke-width:0.5;stroke-linecap:butt;stroke-linejoin:miter"
     id="g36"
     transform="translate(-18.834082,-14.51875)">
    <path
       d="m 42.2,444 9,0 m 523.2,0 -9,0"
       id="path38" />
    <g
       transform="translate(33.9,448.5)"
       style="font-size:15px;text-anchor:end;fill:#000000;stroke:none;font-family:Arial"
       id="g40">
      <text
         id="text42">
        <tspan
           id="tspan44">0</tspan>
      </text>
    </g>
  </g>
  <g
     style="color:#000000;fill:none;stroke:currentColor;stroke-width:1;stroke-linecap:butt;stroke-linejoin:miter"
     id="g46"
     transform="translate(-18.834082,-14.51875)" />
  <g
     style="color:#808080;fill:none;stroke:currentColor;stroke-width:1;stroke-linecap:butt;stroke-linejoin:miter"
     id="g48"
     transform="translate(-18.834082,-14.51875)">
    <path
       d="m 42.2,359.4 532.2,0"
       id="path50" />
  </g>
  <g
     style="color:#808080;fill:none;stroke:currentColor;stroke-width:0.5;stroke-linecap:butt;stroke-linejoin:miter"
     id="g52"
     transform="translate(-18.834082,-14.51875)" />
  <g
     style="color:#000000;fill:none;stroke:currentColor;stroke-width:0.5;stroke-linecap:butt;stroke-linejoin:miter"
     id="g54"
     transform="translate(-18.834082,-14.51875)">
    <path
       d="m 42.2,359.4 9,0 m 523.2,0 -9,0"
       id="path56" />
    <g
       transform="translate(33.9,363.9)"
       style="font-size:15px;text-anchor:end;fill:#000000;stroke:none;font-family:Arial"
       id="g58">
      <text
         id="text60">
        <tspan
           id="tspan62">2</tspan>
      </text>
    </g>
  </g>
  <g
     style="color:#000000;fill:none;stroke:currentColor;stroke-width:1;stroke-linecap:butt;stroke-linejoin:miter"
     id="g64"
     transform="translate(-18.834082,-14.51875)" />
  <g
     style="color:#808080;fill:none;stroke:currentColor;stroke-width:1;stroke-linecap:butt;stroke-linejoin:miter"
     id="g66"
     transform="translate(-18.834082,-14.51875)">
    <path
       d="m 42.2,274.7 532.2,0"
       id="path68" />
  </g>
  <g
     style="color:#808080;fill:none;stroke:currentColor;stroke-width:0.5;stroke-linecap:butt;stroke-linejoin:miter"
     id="g70"
     transform="translate(-18.834082,-14.51875)" />
  <g
     style="color:#000000;fill:none;stroke:currentColor;stroke-width:0.5;stroke-linecap:butt;stroke-linejoin:miter"
     id="g72"
     transform="translate(-18.834082,-14.51875)">
    <path
       d="m 42.2,274.7 9,0 m 523.2,0 -9,0"
       id="path74" />
    <g
       transform="translate(33.9,279.2)"
       style="font-size:15px;text-anchor:end;fill:#000000;stroke:none;font-family:Arial"
       id="g76">
      <text
         id="text78">
        <tspan
           id="tspan80">4</tspan>
      </text>
    </g>
  </g>
  <g
     style="color:#000000;fill:none;stroke:currentColor;stroke-width:1;stroke-linecap:butt;stroke-linejoin:miter"
     id="g82"
     transform="translate(-18.834082,-14.51875)" />
  <g
     style="color:#808080;fill:none;stroke:currentColor;stroke-width:1;stroke-linecap:butt;stroke-linejoin:miter"
     id="g84"
     transform="translate(-18.834082,-14.51875)">
    <path
       d="m 42.2,190.1 532.2,0"
       id="path86" />
  </g>
  <g
     style="color:#808080;fill:none;stroke:currentColor;stroke-width:0.5;stroke-linecap:butt;stroke-linejoin:miter"
     id="g88"
     transform="translate(-18.834082,-14.51875)" />
  <g
     style="color:#000000;fill:none;stroke:currentColor;stroke-width:0.5;stroke-linecap:butt;stroke-linejoin:miter"
     id="g90"
     transform="translate(-18.834082,-14.51875)">
    <path
       d="m 42.2,190.1 9,0 m 523.2,0 -9,0"
       id="path92" />
    <g
       transform="translate(33.9,194.6)"
       style="font-size:15px;text-anchor:end;fill:#000000;stroke:none;font-family:Arial"
       id="g94">
      <text
         id="text96">
        <tspan
           id="tspan98">6</tspan>
      </text>
    </g>
  </g>
  <g
     style="color:#000000;fill:none;stroke:currentColor;stroke-width:1;stroke-linecap:butt;stroke-linejoin:miter"
     id="g100"
     transform="translate(-18.834082,-14.51875)" />
  <g
     style="color:#808080;fill:none;stroke:currentColor;stroke-width:1;stroke-linecap:butt;stroke-linejoin:miter"
     id="g102"
     transform="translate(-18.834082,-14.51875)">
    <path
       d="m 42.2,105.5 532.2,0"
       id="path104" />
  </g>
  <g
     style="color:#808080;fill:none;stroke:currentColor;stroke-width:0.5;stroke-linecap:butt;stroke-linejoin:miter"
     id="g106"
     transform="translate(-18.834082,-14.51875)" />
  <g
     style="color:#000000;fill:none;stroke:currentColor;stroke-width:0.5;stroke-linecap:butt;stroke-linejoin:miter"
     id="g108"
     transform="translate(-18.834082,-14.51875)">
    <path
       d="m 42.2,105.5 9,0 m 523.2,0 -9,0"
       id="path110" />
    <g
       transform="translate(33.9,110)"
       style="font-size:15px;text-anchor:end;fill:#000000;stroke:none;font-family:Arial"
       id="g112">
      <text
         id="text114">
        <tspan
           id="tspan116">8</tspan>
      </text>
    </g>
  </g>
  <g
     style="color:#000000;fill:none;stroke:currentColor;stroke-width:1;stroke-linecap:butt;stroke-linejoin:miter"
     id="g118"
     transform="translate(-18.834082,-14.51875)" />
  <g
     style="color:#808080;fill:none;stroke:currentColor;stroke-width:1;stroke-linecap:butt;stroke-linejoin:miter"
     id="g120"
     transform="translate(-18.834082,-14.51875)">
    <path
       d="m 42.2,20.8 532.2,0"
       id="path122" />
  </g>
  <g
     style="color:#808080;fill:none;stroke:currentColor;stroke-width:0.5;stroke-linecap:butt;stroke-linejoin:miter"
     id="g124"
     transform="translate(-18.834082,-14.51875)" />
  <g
     style="color:#000000;fill:none;stroke:currentColor;stroke-width:0.5;stroke-linecap:butt;stroke-linejoin:miter"
     id="g126"
     transform="translate(-18.834082,-14.51875)">
    <path
       d="m 42.2,20.8 9,0 m 523.2,0 -9,0"
       id="path128" />
    <g
       transform="translate(33.9,25.3)"
       style="font-size:15px;text-anchor:end;fill:#000000;stroke:none;font-family:Arial"
       id="g130">
      <text
         id="text132">
        <tspan
           id="tspan134">10</tspan>
      </text>
    </g>
  </g>
  <g
     style="color:#000000;fill:none;stroke:currentColor;stroke-width:1;stroke-linecap:butt;stroke-linejoin:miter"
     id="g136"
     transform="translate(-18.834082,-14.51875)" />
  <g
     style="color:#808080;fill:none;stroke:currentColor;stroke-width:1;stroke-linecap:butt;stroke-linejoin:miter"
     id="g138"
     transform="translate(-18.834082,-14.51875)">
    <path
       d="m 42.2,444 0,-427.4"
       id="path140" />
  </g>
  <g
     style="color:#808080;fill:none;stroke:currentColor;stroke-width:0.5;stroke-linecap:butt;stroke-linejoin:miter"
     id="g142"
     transform="translate(-18.834082,-14.51875)" />
  <g
     style="color:#000000;fill:none;stroke:currentColor;stroke-width:0.5;stroke-linecap:butt;stroke-linejoin:miter"
     id="g144"
     transform="translate(-18.834082,-14.51875)">
    <path
       d="m 42.2,444 0,-9 m 0,-418.4 0,9"
       id="path146" />
    <g
       transform="translate(42.2,466.5)"
       style="font-size:15px;text-anchor:middle;fill:#000000;stroke:none;font-family:Arial"
       id="g148">
      <text
         id="text150">
        <tspan
           id="tspan152">0</tspan>
      </text>
    </g>
  </g>
  <g
     style="color:#000000;fill:none;stroke:currentColor;stroke-width:1;stroke-linecap:butt;stroke-linejoin:miter"
     id="g154"
     transform="translate(-18.834082,-14.51875)" />
  <g
     style="color:#808080;fill:none;stroke:currentColor;stroke-width:1;stroke-linecap:butt;stroke-linejoin:miter"
     id="g156"
     transform="translate(-18.834082,-14.51875)">
    <path
       d="m 130.9,444 0,-427.4"
       id="path158" />
  </g>
  <g
     style="color:#808080;fill:none;stroke:currentColor;stroke-width:0.5;stroke-linecap:butt;stroke-linejoin:miter"
     id="g160"
     transform="translate(-18.834082,-14.51875)" />
  <g
     style="color:#000000;fill:none;stroke:currentColor;stroke-width:0.5;stroke-linecap:butt;stroke-linejoin:miter"
     id="g162"
     transform="translate(-18.834082,-14.51875)">
    <path
       d="m 130.9,444 0,-9 m 0,-418.4 0,9"
       id="path164" />
    <g
       transform="translate(130.9,466.5)"
       style="font-size:15px;text-anchor:middle;fill:#000000;stroke:none;font-family:Arial"
       id="g166">
      <text
         id="text168">
        <tspan
           id="tspan170">10</tspan>
      </text>
    </g>
  </g>
  <g
     style="color:#000000;fill:none;stroke:currentColor;stroke-width:1;stroke-linecap:butt;stroke-linejoin:miter"
     id="g172"
     transform="translate(-18.834082,-14.51875)" />
  <g
     style="color:#808080;fill:none;stroke:currentColor;stroke-width:1;stroke-linecap:butt;stroke-linejoin:miter"
     id="g174"
     transform="translate(-18.834082,-14.51875)">
    <path
       d="m 219.6,444 0,-427.4"
       id="path176" />
  </g>
  <g
     style="color:#808080;fill:none;stroke:currentColor;stroke-width:0.5;stroke-linecap:butt;stroke-linejoin:miter"
     id="g178"
     transform="translate(-18.834082,-14.51875)" />
  <g
     style="color:#000000;fill:none;stroke:currentColor;stroke-width:0.5;stroke-linecap:butt;stroke-linejoin:miter"
     id="g180"
     transform="translate(-18.834082,-14.51875)">
    <path
       d="m 219.6,444 0,-9 m 0,-418.4 0,9"
       id="path182" />
    <g
       transform="translate(219.6,466.5)"
       style="font-size:15px;text-anchor:middle;fill:#000000;stroke:none;font-family:Arial"
       id="g184">
      <text
         id="text186">
        <tspan
           id="tspan188">20</tspan>
      </text>
    </g>
  </g>
  <g
     style="color:#000000;fill:none;stroke:currentColor;stroke-width:1;stroke-linecap:butt;stroke-linejoin:miter"
     id="g190"
     transform="translate(-18.834082,-14.51875)" />
  <g
     style="color:#808080;fill:none;stroke:currentColor;stroke-width:1;stroke-linecap:butt;stroke-linejoin:miter"
     id="g192"
     transform="translate(-18.834082,-14.51875)">
    <path
       d="m 308.3,444 0,-427.4"
       id="path194" />
  </g>
  <g
     style="color:#808080;fill:none;stroke:currentColor;stroke-width:0.5;stroke-linecap:butt;stroke-linejoin:miter"
     id="g196"
     transform="translate(-18.834082,-14.51875)" />
  <g
     style="color:#000000;fill:none;stroke:currentColor;stroke-width:0.5;stroke-linecap:butt;stroke-linejoin:miter"
     id="g198"
     transform="translate(-18.834082,-14.51875)">
    <path
       d="m 308.3,444 0,-9 m 0,-418.4 0,9"
       id="path200" />
    <g
       transform="translate(308.3,466.5)"
       style="font-size:15px;text-anchor:middle;fill:#000000;stroke:none;font-family:Arial"
       id="g202">
      <text
         id="text204">
        <tspan
           id="tspan206">30</tspan>
      </text>
    </g>
  </g>
  <g
     style="color:#000000;fill:none;stroke:currentColor;stroke-width:1;stroke-linecap:butt;stroke-linejoin:miter"
     id="g208"
     transform="translate(-18.834082,-14.51875)" />
  <g
     style="color:#808080;fill:none;stroke:currentColor;stroke-width:1;stroke-linecap:butt;stroke-linejoin:miter"
     id="g210"
     transform="translate(-18.834082,-14.51875)">
    <path
       d="M 397,444 397,16.6"
       id="path212" />
  </g>
  <g
     style="color:#808080;fill:none;stroke:currentColor;stroke-width:0.5;stroke-linecap:butt;stroke-linejoin:miter"
     id="g214"
     transform="translate(-18.834082,-14.51875)" />
  <g
     style="color:#000000;fill:none;stroke:currentColor;stroke-width:0.5;stroke-linecap:butt;stroke-linejoin:miter"
     id="g216"
     transform="translate(-18.834082,-14.51875)">
    <path
       d="m 397,444 0,-9 m 0,-418.4 0,9"
       id="path218" />
    <g
       transform="translate(397,466.5)"
       style="font-size:15px;text-anchor:middle;fill:#000000;stroke:none;font-family:Arial"
       id="g220">
      <text
         id="text222">
        <tspan
           id="tspan224">40</tspan>
      </text>
    </g>
  </g>
  <g
     style="color:#000000;fill:none;stroke:currentColor;stroke-width:1;stroke-linecap:butt;stroke-linejoin:miter"
     id="g226"
     transform="translate(-18.834082,-14.51875)" />
  <g
     style="color:#808080;fill:none;stroke:currentColor;stroke-width:1;stroke-linecap:butt;stroke-linejoin:miter"
     id="g228"
     transform="translate(-18.834082,-14.51875)">
    <path
       d="m 485.7,444 0,-427.4"
       id="path230" />
  </g>
  <g
     style="color:#808080;fill:none;stroke:currentColor;stroke-width:0.5;stroke-linecap:butt;stroke-linejoin:miter"
     id="g232"
     transform="translate(-18.834082,-14.51875)" />
  <g
     style="color:#000000;fill:none;stroke:currentColor;stroke-width:0.5;stroke-linecap:butt;stroke-linejoin:miter"
     id="g234"
     transform="translate(-18.834082,-14.51875)">
    <path
       d="m 485.7,444 0,-9 m 0,-418.4 0,9"
       id="path236" />
    <g
       transform="translate(485.7,466.5)"
       style="font-size:15px;text-anchor:middle;fill:#000000;stroke:none;font-family:Arial"
       id="g238">
      <text
         id="text240">
        <tspan
           id="tspan242">50</tspan>
      </text>
    </g>
  </g>
  <g
     style="color:#000000;fill:none;stroke:currentColor;stroke-width:1;stroke-linecap:butt;stroke-linejoin:miter"
     id="g244"
     transform="translate(-18.834082,-14.51875)" />
  <g
     style="color:#808080;fill:none;stroke:currentColor;stroke-width:1;stroke-linecap:butt;stroke-linejoin:miter"
     id="g246"
     transform="translate(-18.834082,-14.51875)">
    <path
       d="m 574.4,444 0,-427.4"
       id="path248" />
  </g>
  <g
     style="color:#808080;fill:none;stroke:currentColor;stroke-width:0.5;stroke-linecap:butt;stroke-linejoin:miter"
     id="g250"
     transform="translate(-18.834082,-14.51875)" />
  <g
     style="color:#000000;fill:none;stroke:currentColor;stroke-width:0.5;stroke-linecap:butt;stroke-linejoin:miter"
     id="g252"
     transform="translate(-18.834082,-14.51875)">
    <path
       d="m 574.4,444 0,-9 m 0,-418.4 0,9"
       id="path254" />
    <g
       transform="translate(574.4,466.5)"
       style="font-size:15px;text-anchor:middle;fill:#000000;stroke:none;font-family:Arial"
       id="g256">
      <text
         id="text258">
        <tspan
           id="tspan260">60</tspan>
      </text>
    </g>
    <path
       d="m 42.2,16.6 0,427.4 532.2,0 0,-427.4 -532.2,0 z"
       id="path262" />
  </g>
  <g
     style="color:#ff0000;fill:none;stroke:currentColor;stroke-width:0.5;stroke-linecap:butt;stroke-linejoin:miter"
     id="g264"
     transform="translate(-18.834082,-14.51875)">
    <path
       style="stroke:#0000ff"
       d="m 42.2,432.1 0.9,0 0.9,0 0.9,0 0.8,0 0.9,0 0.9,0 0.9,0 0.9,0 0.9,0 0.9,0 0.9,0 0.8,0 0.9,0 0.9,-0.1 0.9,0 0.9,0 0.9,0 0.9,0 0.9,0 0.8,0 0.9,0 0.9,0 0.9,0 0.9,-0.1 0.9,0 0.9,0 0.8,0 0.9,0 0.9,0 0.9,0 0.9,-0.1 0.9,0 0.9,0 0.9,0 0.8,0 0.9,-0.1 0.9,0 0.9,0 0.9,0 0.9,-0.1 0.9,0 0.9,0 0.8,0 0.9,-0.1 0.9,0 0.9,0 0.9,0 0.9,-0.1 0.9,0 0.9,0 0.8,-0.1 0.9,0 0.9,0 0.9,-0.1 0.9,0 0.9,0 0.9,-0.1 0.8,0 0.9,0 0.9,-0.1 0.9,0 0.9,-0.1 0.9,0 0.9,0 0.9,-0.1 0.8,0 0.9,-0.1 0.9,0 0.9,-0.1 0.9,0 0.9,-0.1 0.9,0 0.9,-0.1 0.8,0 0.9,-0.1 0.9,0 0.9,-0.1 0.9,0 0.9,-0.1 0.9,-0.1 0.8,0 0.9,-0.1 0.9,-0.1 0.9,0 0.9,-0.1 0.9,-0.1 0.9,0 0.9,-0.1 0.8,-0.1 0.9,-0.1 0.9,0 0.9,-0.1 0.9,-0.1 0.9,-0.1 0.9,-0.1 0.9,0 0.8,-0.1 0.9,-0.1 0.9,-0.1 0.9,-0.1 0.9,-0.1 0.9,-0.1 0.9,-0.1 0.8,-0.1 0.9,-0.1 0.9,-0.1 0.9,-0.1 0.9,-0.2 0.9,-0.1 0.9,-0.1 0.9,-0.1 0.8,-0.1 0.9,-0.2 0.9,-0.1 0.9,-0.1 0.9,-0.2 0.9,-0.1 0.9,-0.2 0.9,-0.1 0.8,-0.2 0.9,-0.1 0.9,-0.2 0.9,-0.2 0.9,-0.1 0.9,-0.2 0.9,-0.2 0.8,-0.2 0.9,-0.2 0.9,-0.2 0.9,-0.2 0.9,-0.2 0.9,-0.2 0.9,-0.2 0.9,-0.3 0.8,-0.2 0.9,-0.3 0.9,-0.2 0.9,-0.3 0.9,-0.2 0.9,-0.3 0.9,-0.3 0.9,-0.3 0.8,-0.3 0.9,-0.4 0.9,-0.3 0.9,-0.3 0.9,-0.4 0.9,-0.4 0.9,-0.4 0.9,-0.4 0.8,-0.4 0.9,-0.4 0.9,-0.5 0.9,-0.5 0.9,-0.5 0.9,-0.5 0.9,-0.6 0.8,-0.5 0.9,-0.7 0.9,-0.6 0.9,-0.7 0.9,-0.7 0.9,-0.7 0.9,-0.8 0.9,-0.8 0.8,-0.9 0.9,-0.9 0.9,-1 0.9,-1.1 0.9,-1.1 0.9,-1.2 0.9,-1.3 0.9,-1.3 0.8,-1.5 0.9,-1.6 0.9,-1.7 0.9,-1.9 0.9,-2.1 0.9,-2.2 0.9,-2.5 0.8,-2.7 0.9,-3 0.9,-3.3 0.9,-3.8 0.9,-4.2 0.9,-4.8 0.9,-5.5 0.9,-6.4 0.8,-7.4 0.9,-8.8 0.9,-10.6 0.9,-12.9 0.9,-16 0.9,-20.3 0.9,-26.3 0.9,-34.7 0.8,-46.3 0.9,-58.9 0.9,-62 0.9,-30.1 0.9,30.4 0.9,62.9 0.9,60.1 0.8,47 0.9,35.3 0.9,26.7 0.9,20.5 0.9,16.2 0.9,13 0.9,10.7 0.9,8.9 0.8,7.5 0.9,6.4 0.9,5.5 0.9,4.8 0.9,4.3 0.9,3.7 0.9,3.4 0.9,3 0.8,2.7 0.9,2.4 0.9,2.3 0.9,2 0.9,1.9 0.9,1.7 0.9,1.6 0.8,1.5 0.9,1.4 0.9,1.2 0.9,1.2 0.9,1.1 0.9,1.1 0.9,1 0.9,0.9 0.8,0.8 0.9,0.9 0.9,0.7 0.9,0.8 0.9,0.7 0.9,0.6 0.9,0.7 0.9,0.6 0.8,0.5 0.9,0.6 0.9,0.5 0.9,0.5 0.9,0.4 0.9,0.5 0.9,0.4 0.9,0.4 0.8,0.4 0.9,0.4 0.9,0.4 0.9,0.3 0.9,0.4 0.9,0.3 0.9,0.3 0.8,0.3 0.9,0.3 0.9,0.3 0.9,0.3 0.9,0.2 0.9,0.3 0.9,0.2 0.9,0.3 0.8,0.2 0.9,0.2 0.9,0.2 0.9,0.2 0.9,0.2 0.9,0.2 0.9,0.2 0.9,0.2 0.8,0.1 0.9,0.2 0.9,0.2 0.9,0.1 0.9,0.2 0.9,0.1 0.9,0.2 0.8,0.1 0.9,0.2 0.9,0.1 0.9,0.1 0.9,0.2 0.9,0.1 0.9,0.1 0.9,0.1 0.8,0.1 0.9,0.1 0.9,0.1 0.9,0.1 0.9,0.1 0.9,0.1 0.9,0.1 0.9,0.1 0.8,0.1 0.9,0.1 0.9,0 0.9,0.1 0.9,0.1 0.9,0.1 0.9,0 0.8,0.1 0.9,0.1 0.9,0 0.9,0.1 0.9,0 0.9,0.1 0.9,0 0.9,0.1 0.8,0 0.9,0.1 0.9,0 0.9,0.1 0.9,0 0.9,0.1 0.9,0 0.9,0 0.8,0 0.9,0.1 0.9,0 0.9,0 0.9,0 0.9,0.1 0.9,0 0.8,0 0.9,0 0.9,0 0.9,0 0.9,0 0.9,0 0.9,0 0.9,0 0.8,0 0.9,0 0.9,0 0.9,0 0.9,0 0.9,-0.1 0.9,0 0.9,0 0.8,0 0.9,-0.1 0.9,0 0.9,-0.1 0.9,0 0.9,0 0.9,-0.1 0.9,-0.1 0.8,0 0.9,-0.1 0.9,-0.1 0.9,0 0.9,-0.1 0.9,-0.1 0.9,-0.1 0.8,-0.1 0.9,-0.1 0.9,-0.2 0.9,-0.1 0.9,-0.1 0.9,-0.2 0.9,-0.1 0.9,-0.2 0.8,-0.2 0.9,-0.2 0.9,-0.2 0.9,-0.2 0.9,-0.3 0.9,-0.3 0.9,-0.2 0.9,-0.4 0.8,-0.3 0.9,-0.4 0.9,-0.4 0.9,-0.4 0.9,-0.5 0.9,-0.5 0.9,-0.6 0.8,-0.7 0.9,-0.7 0.9,-0.8 0.9,-0.9 0.9,-1 0.9,-1.2 0.9,-1.4 0.9,-1.5 0.8,-1.9 0.9,-2.1 0.9,-2.7 0.9,-3.2 0.9,-4 0.9,-5 0.9,-6.6 0.9,-8.7 0.8,-11.6 0.9,-14.8 0.9,-15.5 0.9,-7.5 0.9,7.6 0.9,15.7 0.9,15 0.8,11.7 0.9,8.8 0.9,6.7 0.9,5.1 0.9,4.1 0.9,3.3 0.9,2.6 0.9,2.3 0.8,1.9 0.9,1.6 0.9,1.4 0.9,1.2 0.9,1.1 0.9,1 0.9,0.8 0.9,0.8 0.8,0.7 0.9,0.6 0.9,0.6 0.9,0.5 0.9,0.5 0.9,0.5 0.9,0.4 0.8,0.4 0.9,0.4 0.9,0.3 0.9,0.3 0.9,0.3 0.9,0.3 0.9,0.3 0.9,0.2 0.8,0.2 0.9,0.3 0.9,0.2 0.9,0.2 0.9,0.2 0.9,0.2 0.9,0.1 0.9,0.2 0.8,0.2 0.9,0.1 0.9,0.2 0.9,0.1 0.9,0.1 0.9,0.2 0.9,0.1 0.9,0.1 0.8,0.1 0.9,0.2 0.9,0.1 0.9,0.1 0.9,0.1 0.9,0.1 0.9,0.1 0.8,0.1 0.9,0 0.9,0.1 0.9,0.1 0.9,0.1 0.9,0.1 0.9,0.1 0.9,0 0.8,0.1 0.9,0.1 0.9,0.1 0.9,0 0.9,0.1 0.9,0.1 0.9,0 0.9,0.1 0.8,0 0.9,0.1 0.9,0.1 0.9,0 0.9,0.1 0.9,0 0.9,0.1 0.8,0 0.9,0.1 0.9,0 0.9,0.1 0.9,0 0.9,0.1 0.9,0 0.9,0.1 0.8,0 0.9,0 0.9,0.1 0.9,0 0.9,0.1 0.9,0 0.9,0 0.9,0.1 0.8,0 0.9,0.1 0.9,0 0.9,0 0.9,0.1 0.9,0 0.9,0 0.8,0.1 0.9,0 0.9,0 0.9,0.1 0.9,0 0.9,0 0.9,0.1 0.9,0 0.8,0 0.9,0.1 0.9,0 0.9,0 0.9,0 0.9,0.1 0.9,0 0.9,0 0.8,0 0.9,0.1 0.9,0 0.9,0 0.9,0 0.9,0.1 0.9,0 0.8,0 0.9,0 0.9,0.1 0.9,0 0.9,0 0.9,0 0.9,0.1 0.9,0 0.8,0 0.9,0 0.9,0 0.9,0.1 0.9,0 0.9,0 0.9,0 0.9,0.1 0.8,0 0.9,0 0.9,0 0.9,0 0.9,0 0.9,0.1 0.9,0 0.9,0 0.8,0 0.9,0 0.9,0.1 0.9,0 0.9,0 0.9,0 0.9,0 0.8,0 0.9,0.1 0.9,0 0.9,0 0.9,0 0.9,0 0.9,0 0.9,0.1 0.8,0 0.9,0 0.9,0 0.9,0 0.9,0 0.9,0 0.9,0.1 0.9,0 0.8,0 0.9,0 0.9,0 0.9,0 0.9,0 0.9,0.1 0.9,0 0.8,0 0.9,0 0.9,0 0.9,0 0.9,0 0.9,0.1 0.9,0 0.9,0 0.8,0 0.9,0 0.9,0 0.9,0 0.9,0 0.9,0.1 0.9,0 0.9,0 0.8,0 0.9,0 0.9,0 0.9,0"
       id="path266" />
  </g>
  <g
     style="color:#000000;fill:none;stroke:currentColor;stroke-width:0.5;stroke-linecap:butt;stroke-linejoin:miter"
     id="g268"
     transform="translate(-18.834082,-14.51875)">
    <path
       d="m 42.2,16.6 0,427.4 532.2,0 0,-427.4 -532.2,0 z"
       id="path270" />
  </g>
  <flowRoot
     xml:space="preserve"
     id="flowRoot2960"
     style="font-size:10px;font-style:normal;font-weight:normal;fill:#000000;fill-opacity:1;stroke:none;font-family:Bitstream Vera Sans"
     transform="translate(405.16592,179.48125)"><flowRegion
       id="flowRegion2962"><rect
         id="rect2964"
         width="92.075279"
         height="115.77783"
         x="-210.58801"
         y="273.97015" /></flowRegion><flowPara
       id="flowPara2966">w1</flowPara></flowRoot>  <flowRoot
     xml:space="preserve"
     id="flowRoot2960-4"
     style="font-size:10px;font-style:normal;font-weight:normal;fill:#000000;fill-opacity:1;stroke:none;font-family:Bitstream Vera Sans"
     transform="translate(583.23522,178.51848)"><flowRegion
       id="flowRegion2962-3"><rect
         id="rect2964-0"
         width="92.075279"
         height="115.77783"
         x="-210.58801"
         y="273.97015" /></flowRegion><flowPara
       id="flowPara2966-7">w2</flowPara></flowRoot></svg>
