<?xml version="1.0" encoding="UTF-8" standalone="no"?>
<!-- Created with Inkscape (http://www.inkscape.org/) -->
<svg
   xmlns:dc="http://purl.org/dc/elements/1.1/"
   xmlns:cc="http://creativecommons.org/ns#"
   xmlns:rdf="http://www.w3.org/1999/02/22-rdf-syntax-ns#"
   xmlns:svg="http://www.w3.org/2000/svg"
   xmlns="http://www.w3.org/2000/svg"
   xmlns:sodipodi="http://sodipodi.sourceforge.net/DTD/sodipodi-0.dtd"
   xmlns:inkscape="http://www.inkscape.org/namespaces/inkscape"
   width="1885.1338"
   height="609.34692"
   id="svg2"
   sodipodi:version="0.32"
   inkscape:version="0.46"
   version="1.0"
   sodipodi:docname="c13d1.svg"
   inkscape:output_extension="org.inkscape.output.svg.inkscape">
  <defs
     id="defs4">
    <inkscape:perspective
       sodipodi:type="inkscape:persp3d"
       inkscape:vp_x="0 : 526.18109 : 1"
       inkscape:vp_y="0 : 1000 : 0"
       inkscape:vp_z="744.09448 : 526.18109 : 1"
       inkscape:persp3d-origin="372.04724 : 350.78739 : 1"
       id="perspective10" />
  </defs>
  <sodipodi:namedview
     id="base"
     pagecolor="#ffffff"
     bordercolor="#666666"
     borderopacity="1.0"
     gridtolerance="10000"
     guidetolerance="10"
     objecttolerance="10"
     inkscape:pageopacity="0.0"
     inkscape:pageshadow="2"
     inkscape:zoom="0.35"
     inkscape:cx="375"
     inkscape:cy="520"
     inkscape:document-units="px"
     inkscape:current-layer="layer1"
     showgrid="false"
     inkscape:window-width="1280"
     inkscape:window-height="712"
     inkscape:window-x="-5"
     inkscape:window-y="-3" />
  <metadata
     id="metadata7">
    <rdf:RDF>
      <cc:Work
         rdf:about="">
        <dc:format>image/svg+xml</dc:format>
        <dc:type
           rdf:resource="http://purl.org/dc/dcmitype/StillImage" />
      </cc:Work>
    </rdf:RDF>
  </metadata>
  <g
     inkscape:label="Layer 1"
     inkscape:groupmode="layer"
     id="layer1"
     transform="translate(406.91388,-169.47329)">
    <path
       style="fill:#000000;fill-opacity:1;stroke:#000000;stroke-width:1;stroke-linecap:round;stroke-linejoin:round;stroke-miterlimit:4;stroke-dasharray:8, 8;stroke-dashoffset:0;stroke-opacity:1"
       id="path2385"
       d="M -382.66797,680.17246 C -390.0753,679.46843 -395.38272,675.92976 -399.35837,669.78996 C -405.12691,657.857 -405.37224,644.23979 -406.00973,631.25057 C -407.1106,607.21289 -405.84276,583.17415 -403.6534,559.23893 C -401.00972,531.73502 -395.60316,504.65692 -388.25835,478.05173 C -381.63529,455.50786 -371.8307,434.10743 -358.65887,414.67358 C -345.83425,397.19539 -331.41048,386.84496 -311.15724,378.84093 C -294.29012,372.99733 -277.09769,374.51848 -260.16703,378.95533 C -240.0201,385.54838 -225.26301,397.24607 -210.12518,411.59713 C -193.39758,428.23502 -181.27274,448.22786 -170.91167,469.2294 C -160.45919,491.23133 -155.0091,514.99248 -151.26199,538.9244 C -147.51631,562.03516 -148.75338,585.31065 -151.04915,608.47167 C -153.34545,629.79976 -159.5545,650.37857 -167.23832,670.31613 C -173.77757,686.09719 -182.34749,700.90968 -193.71008,713.67442 C -203.59304,724.58387 -216.43404,731.62167 -229.65824,737.74479 C -238.06145,741.4722 -247.09647,742.61013 -256.169,743.21364 C -263.97706,743.72379 -271.72406,743.65967 -279.47278,742.62793 C -286.80108,740.92248 -293.99631,738.62102 -301.13095,736.23231 C -307.25532,734.5073 -312.91097,731.59302 -318.39468,728.42948 C -323.29548,725.79188 -328.21747,723.19365 -333.21936,720.75273 C -337.73889,718.35546 -342.1265,715.73625 -345.99157,712.37553 C -350.26266,709.30687 -353.57783,705.17309 -356.7334,701.01832 C -359.85507,696.8018 -363.56723,693.08138 -367.14091,689.25737 C -370.55746,685.23325 -374.80223,682.04736 -378.4823,678.29266 C -382.01489,675.13467 -385.61679,672.05852 -389.09291,668.83638 C -391.98853,665.82776 -395.44197,663.51177 -398.4698,660.65535 L -391.28124,656.21463 C -388.21738,659.02661 -384.76784,661.3612 -381.8844,664.37976 C -378.38959,667.59876 -374.76979,670.67292 -371.25945,673.87349 C -367.55255,677.60981 -363.33437,680.8346 -359.90589,684.85648 C -356.30582,688.69531 -352.59753,692.45755 -349.45083,696.69005 C -346.32294,700.80013 -343.03331,704.86041 -338.80343,707.89666 C -334.96045,711.17345 -330.61638,713.75328 -326.14743,716.09332 C -321.15029,718.57392 -316.20397,721.15278 -311.30456,723.82138 C -305.84437,726.92265 -300.24198,729.80347 -294.16198,731.50241 C -287.05399,733.83765 -279.91793,736.20701 -272.59642,737.76638 C -264.88572,738.74232 -257.1644,738.72935 -249.40574,738.22808 C -240.38558,737.57946 -231.42289,736.32956 -223.10659,732.53469 C -221.58335,731.82398 -220.19371,730.68594 -218.53689,730.40255 C -217.57333,730.23774 -221.76955,732.57809 -220.88818,732.15524 C -213.39566,728.56066 -207.11906,722.70107 -201.34007,716.88234 C -189.86354,704.24932 -181.25832,689.48963 -174.6626,673.75935 C -166.91289,653.88969 -160.66121,633.36555 -158.3144,612.08295 C -155.99466,588.98451 -154.71492,565.76852 -158.41942,542.71175 C -162.11835,518.85068 -167.52746,495.16389 -177.95147,473.23275 C -188.26932,452.31601 -200.353,432.40358 -217.0483,415.86628 C -232.14601,401.62634 -246.84735,390.05747 -266.93325,383.61416 C -283.8069,379.30293 -300.91247,377.95625 -317.63684,383.93751 C -320.23163,384.9953 -323.13706,385.39473 -325.50877,386.88699 C -335.69723,393.29748 -343.93153,401.84266 -351.17989,411.411 C -364.46521,430.73853 -374.3128,452.09778 -380.99592,474.5957 C -388.40529,501.14688 -393.8139,528.19281 -396.46756,555.65966 C -398.64622,579.53098 -399.8902,603.50815 -398.69761,627.47844 C -398.03695,640.29867 -397.80212,653.77064 -392.08443,665.53897 C -388.17514,671.52841 -382.91867,674.66955 -375.71891,675.29695 L -382.66797,680.17246 z" />
    <path
       style="fill:#000000;fill-opacity:1;stroke:#000000;stroke-width:1;stroke-linecap:round;stroke-linejoin:round;stroke-miterlimit:4;stroke-dasharray:8, 8;stroke-dashoffset:0;stroke-opacity:1"
       id="path2387"
       d="M -282.55747,504.03777 C -283.32372,506.54293 -284.40577,508.90957 -284.98888,511.46853 C -285.1089,511.99524 -285.12295,513.58975 -285.25794,513.06667 C -285.33014,512.78692 -285.31497,512.49165 -285.34349,512.20414 C -298.00805,521.7951 -287.86797,510.5996 -285.16162,507.78082 C -279.64908,504.43384 -273.28302,498.62377 -274.79972,507.50299 C -276.38677,515.9012 -276.70722,514.88657 -285.48709,517.89799 C -285.89843,512.99163 -275.87011,507.48177 -274.39168,513.61001 C -274.35377,515.39856 -274.89999,517.09843 -275.67834,518.6859 C -277.47619,521.2324 -284.49082,524.57318 -282.56302,520.32425 L -274.83588,516.75169 C -276.12174,520.38213 -285.66298,525.61774 -283.48643,522.18197 C -282.63316,520.79598 -282.08281,519.23581 -281.91673,517.61345 C -281.94429,517.29517 -281.8571,516.94463 -281.99943,516.65862 C -282.14915,516.35776 -282.98256,516.19639 -282.73498,515.96914 C -280.82064,514.21206 -278.48508,512.97809 -276.36012,511.48256 C -276.82575,511.75876 -277.61165,512.12446 -277.85095,512.67862 C -278.00548,513.03647 -277.94046,513.45304 -277.98521,513.84025 C -290.64294,522.0362 -283.24254,518.26955 -282.4516,511.2328 C -282.36831,510.7876 -281.66191,508.58521 -281.97547,508.06837 C -282.2343,507.64173 -283.24297,508.1502 -283.36311,508.18927 C -281.34665,506.97104 -279.3302,505.75282 -277.31374,504.53459 C -282.58835,509.49827 -284.01093,515.10847 -292.1023,517.44994 C -294.64053,515.58511 -290.45835,510.05937 -290.23816,507.6449 L -282.55747,504.03777 z" />
    <path
       style="fill:#000000;fill-opacity:1;stroke:#000000;stroke-width:1;stroke-linecap:round;stroke-linejoin:round;stroke-miterlimit:4;stroke-dasharray:8, 8;stroke-dashoffset:0;stroke-opacity:1"
       id="path2389"
       d="M -273.93318,593.17895 C -276.82748,594.06492 -283.26565,598.19357 -283.87813,592.88285 C -282.14855,588.38933 -277.73485,585.42357 -273.85767,582.8428 C -272.43688,582.88478 -260.3185,572.21318 -257.57084,578.14092 C -257.27541,582.27316 -260.97624,585.27089 -263.92703,587.60031 C -269.76164,591.22286 -276.50331,595.53508 -283.76362,594.42753 C -288.26031,592.63169 -287.73004,589.25563 -285.94475,585.45128 C -281.8153,579.45463 -274.65621,575.38542 -267.78577,573.43204 C -264.92429,573.43265 -261.29921,573.59548 -260.19532,576.72742 C -260.6098,581.87456 -268.28964,582.90938 -272.70181,583.24479 L -265.87674,578.18988 C -264.70695,578.06356 -261.44758,576.94794 -262.38768,577.65545 C -276.62749,588.37221 -268.7769,582.13712 -267.69464,580.81463 C -268.15532,578.14406 -272.62069,578.48858 -274.50662,578.62224 C -278.62247,579.93494 -276.16196,579.32816 -271.19572,575.91048 C -270.58841,575.49254 -272.51865,576.56982 -273.13335,576.9768 C -275.11678,578.29002 -276.88001,579.98946 -278.20767,581.95936 C -279.96553,585.10967 -281.06804,588.19384 -276.83158,589.50809 C -271.99877,589.83755 -259.84847,584.59009 -271.80946,590.73473 C -268.98661,588.72902 -265.41859,585.9894 -265.01808,582.31357 C -266.25455,578.59165 -278.71615,587.93296 -265.96462,579.76985 C -269.86651,582.18809 -273.80845,585.07101 -276.28082,589.0059 C -276.91929,592.67132 -268.44261,588.29095 -267.31084,587.88171 L -273.93318,593.17895 z" />
    <path
       style="fill:#000000;fill-opacity:1;stroke:#000000;stroke-width:1;stroke-linecap:round;stroke-linejoin:round;stroke-miterlimit:4;stroke-dasharray:8, 8;stroke-dashoffset:0;stroke-opacity:1"
       id="path2391"
       d="M -262.15132,649.97262 C -265.09289,645.15312 -267.68176,639.86427 -265.91467,634.21948 C -263.59566,629.64087 -256.08961,623.36101 -252.02631,628.41071 C -250.23251,631.49677 -252.31824,635.01522 -254.06212,637.63884 C -258.03253,642.24788 -264.2924,647.19603 -270.44148,647.38543 C -274.59853,646.04568 -272.71325,642.24596 -270.96596,639.6795 C -266.71864,635.17022 -260.88776,630.2959 -254.37928,631.11104 C -250.83826,632.92757 -252.61941,636.70902 -254.17924,639.30704 C -257.64359,644.21034 -263.39131,647.2848 -269.1241,648.85177 C -270.68484,649.20126 -272.11386,649.83947 -272.06309,647.67552 L -264.28722,644.11867 C -265.56862,644.42363 -262.55248,643.66766 -262.37543,643.6458 C -259.4309,642.70722 -255.06699,640.15118 -265.71087,646.24913 C -266.4014,646.64474 -261.94876,643.58169 -261.9568,642.72879 C -260.72756,640.91636 -258.17683,637.2771 -261.31036,636.05512 C -265.217,635.87305 -267.29949,638.29113 -258.8116,632.80869 C -256.60922,631.38614 -265.14551,636.41256 -263.17657,636.28625 C -264.42262,638.06747 -267.44851,641.60696 -263.5932,642.33589 C -259.8089,641.90916 -261.79966,641.90153 -267.6791,645.83893 C -268.20385,646.19035 -266.59372,645.1919 -266.06754,644.84264 C -264.41127,643.74326 -264.37395,643.71082 -263.02323,642.30735 C -262.62128,641.88969 -262.24424,641.44875 -261.85474,641.01946 C -260.2181,638.88026 -257.90893,635.51956 -259.33471,632.80252 C -259.9011,632.16736 -259.92455,631.91582 -260.82887,631.78954 C -261.17061,631.74181 -262.14111,632.03919 -261.86303,631.83491 C -250.39771,623.41255 -256.80124,628.22413 -258.2253,630.62938 C -260.38438,635.90178 -257.66987,641.08013 -254.8685,645.61982 L -262.15132,649.97262 z" />
    <path
       style="fill:#000000;fill-opacity:1;stroke:#000000;stroke-width:1;stroke-linecap:round;stroke-linejoin:round;stroke-miterlimit:4;stroke-dasharray:8, 8;stroke-dashoffset:0;stroke-opacity:1"
       id="path2393"
       d="M 88.571534,701.72706 C 78.644864,705.7616 69.436851,707.15579 58.844866,705.64632 C 45.969063,702.94909 39.982674,694.04212 34.807248,682.73473 C 28.030594,663.44109 28.520856,642.74173 29.905708,622.62995 C 32.459088,592.24734 41.218957,563.01929 51.207188,534.3804 C 60.497148,510.09854 71.306851,485.95403 87.541802,465.41832 C 90.375239,461.83429 93.548251,458.5323 96.551475,455.08929 C 112.62963,439.03099 133.01535,425.57807 155.99766,422.53126 C 159.88069,422.01648 163.81983,422.10061 167.73092,421.88528 C 189.05545,422.57745 208.93968,429.81858 226.60178,441.61595 C 230.48011,444.20647 234.10975,447.15122 237.86374,449.91886 C 257.43917,466.50451 273.58559,486.83618 285.93384,509.30992 C 288.54614,514.06428 290.78434,519.01481 293.20959,523.86725 C 306.69494,552.66757 312.97114,581.21682 315.63761,612.69478 C 316.42021,633.86482 314.142,655.48361 306.76693,675.47413 C 305.44778,679.04975 303.76436,682.48022 302.26307,685.98327 C 293.92114,702.20478 282.39438,717.00236 267.51615,727.75415 C 264.61654,729.84956 261.49624,731.62125 258.48628,733.5548 C 240.74239,744.28552 221.47287,751.90221 200.47522,751.79307 C 196.81324,751.77404 193.16723,751.30814 189.51324,751.06568 C 166.98921,749.17582 147.24762,738.90253 128.0836,727.74438 C 110.26012,716.26611 92.997938,703.96514 77.568322,689.40244 C 68.889308,679.70184 72.85151,684.81259 65.664741,674.08337 L 72.730418,669.94107 C 79.83932,680.55629 75.915468,675.49363 84.523903,685.11201 C 99.91708,699.61896 117.11515,711.90824 134.90991,723.31439 C 154.00634,734.40729 173.6798,744.55588 196.12519,746.32466 C 199.76185,746.53838 203.39225,746.97396 207.03518,746.96583 C 222.43868,746.93148 236.85934,742.4683 250.89465,736.50676 C 253.91481,734.60126 257.04384,732.85828 259.95512,730.79026 C 274.87778,720.18997 286.46494,705.48909 294.88556,689.37072 C 296.40214,685.89101 298.10156,682.4854 299.43528,678.93159 C 306.8993,659.04309 309.24085,637.49172 308.53843,616.38656 C 305.97215,584.98757 299.7463,556.51919 286.32181,527.78899 C 283.90489,522.95568 281.67509,518.02417 279.07105,513.28905 C 266.76159,490.90583 250.6391,470.67818 231.0926,454.21075 C 227.34799,451.46724 223.72847,448.54428 219.85877,445.98022 C 202.24912,434.31206 182.41221,427.22359 161.20161,426.6887 C 157.31501,426.9377 153.39774,426.88841 149.54182,427.43572 C 129.83784,430.23248 117.77625,438.02818 103.94722,451.96926 C 100.9251,455.39285 97.732211,458.67297 94.880847,462.24003 C 78.548648,482.67163 67.689571,506.77447 58.382391,531.02315 C 48.397224,559.57058 39.647071,588.71226 37.128824,619.01198 C 35.75203,638.97079 35.299251,659.51196 42.026431,678.6558 C 47.144043,689.75758 52.982832,698.33663 65.674794,700.82248 C 75.944048,702.12477 85.668218,700.58329 95.215206,696.47646 L 88.571534,701.72706 z" />
    <path
       style="fill:#000000;fill-opacity:1;stroke:#000000;stroke-width:1;stroke-linecap:round;stroke-linejoin:round;stroke-miterlimit:4;stroke-dasharray:8, 8;stroke-dashoffset:0;stroke-opacity:1"
       id="path2395"
       d="M 170.81437,597.89009 C 172.4166,590.37181 174.69184,583.20291 179.45251,577.0922 C 185.81111,571.28127 192.58623,566.26751 200.10108,571.4033 C 203.4299,574.75655 203.15447,579.04361 201.00529,582.92822 C 197.15977,587.32546 190.18728,593.22194 184.38889,592.36998 C 181.54225,591.63135 180.27584,589.25808 179.35336,586.70406 C 177.84765,583.84525 186.83477,580.26717 186.58305,583.85444 C 186.57333,583.99303 186.69129,584.2158 186.56371,584.27079 C 184.07971,585.34158 181.50213,586.18069 178.97135,587.13564 L 186.58621,583.2871 C 184.03379,584.90096 181.54845,586.62615 178.92895,588.12867 C 178.60072,588.31693 178.68173,587.21654 178.98854,586.99508 C 186.64655,581.46738 185.76111,579.22457 186.8273,582.57416 C 187.60493,584.88313 188.65857,586.96907 191.30945,587.42904 C 195.13474,587.47387 193.29808,587.15239 187.41278,591.06106 C 186.88548,591.41127 188.5034,590.41454 189.01522,590.04209 C 190.01932,589.31141 191.05569,588.61601 191.98254,587.78955 C 192.45653,587.36689 192.82287,586.83715 193.24304,586.36094 C 195.50187,583.02078 196.07161,579.02689 192.9481,575.98591 C 191.75028,575.218 190.94769,574.54808 189.48543,574.28035 C 186.96566,573.819 178.96174,576.93108 189.64801,571.78982 C 190.59406,571.33467 188.02224,573.11856 187.20935,573.78293 C 182.2695,579.66862 180.01895,586.71688 178.44058,594.16168 L 170.81437,597.89009 z" />
    <path
       style="fill:#000000;fill-opacity:1;stroke:#000000;stroke-width:1;stroke-linecap:round;stroke-linejoin:round;stroke-miterlimit:4;stroke-dasharray:8, 8;stroke-dashoffset:0;stroke-opacity:1"
       id="path2397"
       d="M -271.7418,506.21854 C -262.95328,503.63456 -254.15647,501.1218 -245.23549,499.01286 C -234.08995,496.75704 -222.72721,495.92237 -211.50445,494.09417 C -196.96255,491.68273 -182.39643,489.43963 -167.8002,487.37449 C -151.29972,484.76513 -134.68086,485.17852 -118.17468,487.2943 C -100.67563,489.26597 -83.630826,493.68998 -66.752861,498.55428 C -49.949676,503.4167 -33.540055,509.44583 -17.343062,516.0189 C -1.325923,522.67248 13.734563,531.29824 29.16056,539.16212 C 41.836396,545.43985 54.616476,551.48796 67.104361,558.13537 C 75.898276,563.10962 84.624468,568.18988 93.372888,573.23954 C 99.415744,577.10857 105.52068,580.85907 111.68959,584.52357 C 116.33301,587.11224 121.22342,589.23015 125.88743,591.77019 C 129.11555,593.89146 132.90409,594.66044 136.38518,596.24511 C 140.20322,597.94915 144.1044,598.15321 148.15077,597.42988 C 153.30735,595.75203 158.04515,593.10039 162.92332,590.78062 C 161.3172,591.67868 159.72899,592.60955 158.10496,593.47479 C 156.48946,594.3355 161.21965,591.55031 162.79793,590.6231 C 195.17341,571.60316 158.71296,593.46948 169.50053,586.36482 C 175.31106,582.45929 181.08769,578.12712 187.88526,576.15437 C 189.31402,575.41342 191.4183,576.03858 192.5847,574.99905 C 190.35339,576.11134 188.12208,577.22363 185.89077,578.33593 L 193.64636,574.80136 C 191.07211,576.64939 188.49786,578.49742 185.92361,580.34545 C 184.35392,580.75149 182.69332,580.7834 181.15474,581.35823 C 178.03722,582.37346 173.39402,585.35536 183.49718,579.27485 C 188.19394,576.44814 173.19635,584.93959 177.3923,583.28653 C 173.12862,586.03525 157.83321,594.34125 170.6836,587.55735 C 171.50589,587.12326 169.13101,588.58161 168.33816,589.06738 C 164.38647,591.48854 160.10041,593.34963 156.31515,596.04936 C 151.43109,598.41889 146.62958,601.08292 141.36496,602.52805 C 137.2116,603.12891 133.16278,602.70094 129.30188,600.94712 C 125.80444,599.39127 121.99971,598.58347 118.78938,596.41011 C 114.0951,593.91649 109.24726,591.71304 104.60687,589.1113 C 98.438876,585.45819 92.373174,581.65672 86.321063,577.8164 C 77.618881,572.72949 68.904257,567.67337 60.139068,562.69251 C 47.670875,556.04415 34.914656,549.98463 22.265949,543.6901 C 6.8747077,535.81515 -8.1598654,527.19072 -24.173259,520.59033 C -40.354591,514.04411 -56.754795,508.05225 -73.532886,503.196 C -90.391777,498.36215 -107.41942,493.99302 -124.89394,492.04873 C -141.37503,490.01215 -157.95615,489.6804 -174.41419,492.32418 C -189.02187,494.41513 -203.60344,496.65433 -218.15663,499.09149 C -229.38576,500.87967 -240.75296,501.7467 -251.88484,504.08637 C -260.82089,506.24461 -269.65283,508.73951 -278.44275,511.42448 L -271.7418,506.21854 z" />
    <path
       style="fill:#000000;fill-opacity:1;stroke:#000000;stroke-width:1;stroke-linecap:round;stroke-linejoin:round;stroke-miterlimit:4;stroke-dasharray:8, 8;stroke-dashoffset:0;stroke-opacity:1"
       id="path2399"
       d="M -254.4385,570.66358 C -245.30082,573.44601 -235.78215,574.33968 -226.30043,575.00308 C -213.46728,574.5025 -200.72111,573.74904 -187.87389,574.16222 C -172.21759,575.80293 -156.54796,577.1073 -140.82172,577.82508 C -122.58181,578.48616 -104.32683,578.50986 -86.077393,578.5477 C -67.223726,577.98704 -48.448511,579.33513 -29.698087,581.10421 C -11.178067,582.90877 7.4183816,583.60904 26.013374,584.01372 C 40.707086,584.26838 55.40355,584.25195 70.098899,584.23862 C 78.913698,584.66571 87.670403,585.79879 96.46084,586.53939 C 101.01306,587.0014 104.21382,588.78292 107.51202,591.72259 C 109.63304,593.42346 111.38475,595.39095 112.96481,597.58726 L 105.64412,601.91084 C 104.10592,599.76107 102.36822,597.85997 100.29254,596.20435 C 97.134348,593.39459 93.903652,591.85401 89.581049,591.44651 C 80.845713,590.65075 72.137917,589.50504 63.369607,589.12803 C 48.693539,589.12298 34.016543,589.10569 19.342425,588.83749 C 0.74634963,588.40312 -17.848804,587.6529 -36.370512,585.85702 C -55.109375,584.09884 -73.874251,582.82982 -92.713026,583.3665 C -110.9803,583.32273 -129.25297,583.30368 -147.51067,582.638 C -163.24647,581.90644 -178.92169,580.56017 -194.59658,579.01498 C -207.46608,578.63626 -220.23491,579.52728 -233.09214,579.86407 C -242.65435,579.16944 -252.23912,578.20828 -261.46034,575.42784 L -254.4385,570.66358 z" />
    <path
       style="fill:#000000;fill-opacity:1;stroke:#000000;stroke-width:1;stroke-linecap:round;stroke-linejoin:round;stroke-miterlimit:4;stroke-dasharray:8, 8;stroke-dashoffset:0;stroke-opacity:1"
       id="path2401"
       d="M -231.61774,621.69476 C -223.16608,621.94216 -214.70696,621.64469 -206.2545,621.51756 C -197.19465,621.37409 -188.13362,621.35285 -179.07287,621.33094 C -169.48179,620.87148 -159.98792,621.73885 -150.45853,622.65428 C -140.33496,623.68331 -130.15949,623.93493 -119.99253,624.10279 C -109.01742,624.23562 -98.041266,624.21524 -87.065585,624.20829 C -76.620593,623.76373 -66.267253,624.54046 -55.882918,625.51695 C -44.078864,626.77275 -32.266829,626.84867 -20.435816,626.13346 C -7.2165249,625.13008 6.0315379,624.67193 19.283096,624.40348 C 33.76921,623.5779 48.217958,622.28789 62.574099,620.17714 C 78.278195,618.29869 93.627937,614.41979 108.92937,610.53864 C 122.99609,607.00145 137.21175,604.22744 151.48486,601.67769 C 162.56606,599.98999 173.53069,597.71602 184.67707,596.47573 C 190.62171,595.79135 196.60401,595.60154 202.58244,595.54215 C 200.30243,597.85798 212.72465,591.76122 209.47533,592.93819 C 204.27011,594.82363 203.09003,597.11245 207.44895,591.96433 L 215.18206,588.66714 C 210.46941,594.71671 203.3987,599.4624 195.72669,600.53435 C 189.78919,600.60234 183.85014,600.80658 177.94581,601.4825 C 166.83985,602.74677 155.90183,604.99319 144.85665,606.6752 C 130.60591,609.23378 116.41046,612.01371 102.36666,615.55931 C 87.042063,619.41084 71.67603,623.26547 55.955101,625.13352 C 41.565684,627.19729 27.091587,628.53128 12.574455,629.29877 C -0.67402108,629.57699 -13.917088,630.0659 -27.133715,631.06053 C -39.003623,631.74807 -50.858588,631.61569 -62.698354,630.37187 C -73.065559,629.4008 -83.40694,628.71227 -93.831632,629.12446 C -104.80842,629.12499 -115.78571,629.13494 -126.76189,629.00366 C -136.94615,628.82946 -147.13862,628.56384 -157.27735,627.50972 C -166.79497,626.60224 -176.28527,625.83619 -185.86051,626.26472 C -194.91743,626.28248 -203.97451,626.32179 -213.03055,626.45666 C -221.53915,626.59173 -230.0627,626.93861 -238.56681,626.57027 L -231.61774,621.69476 z" />
    <path
       style="fill:#000000;fill-opacity:1;stroke:#000000;stroke-width:1;stroke-linecap:round;stroke-linejoin:round;stroke-miterlimit:4;stroke-dasharray:8, 8;stroke-dashoffset:0;stroke-opacity:1"
       id="path2403"
       d="M -330.11423,546.64411 C -332.37192,539.60203 -332.36602,532.09721 -332.46915,524.77226 C -332.77319,517.5038 -332.32787,510.34828 -330.77114,503.24367 C -328.32025,496.10966 -325.57589,488.98289 -321.90601,482.37955 C -318.8049,476.87143 -315.43316,471.57249 -311.629,466.53099 C -308.2665,462.46377 -303.95689,459.35075 -299.71922,456.26309 C -292.45509,450.86005 -284.09339,447.82273 -275.89083,444.33575 C -271.28494,442.4791 -266.71272,441.45615 -261.80809,442.29153 C -257.63725,443.76364 -254.06832,446.41154 -250.87342,449.4101 C -245.92025,452.82514 -243.18396,458.00811 -240.08234,462.97306 C -236.00639,469.83466 -232.84699,477.18694 -230.55629,484.82047 C -227.82465,493.17417 -226.13553,501.81218 -223.79397,510.27722 C -221.67829,518.72158 -218.52543,526.84224 -216.16292,535.21033 C -213.8054,542.74658 -211.44517,550.27918 -209.10074,557.82046 C -207.02769,564.63876 -204.66952,571.37028 -202.30167,578.09234 C -200.48944,584.30732 -197.79992,590.1928 -195.93651,596.38847 C -194.61461,602.85844 -192.82411,609.22932 -191.75403,615.75003 C -190.89239,621.55134 -190.63114,627.40688 -190.52115,633.26234 C -190.27667,638.35512 -191.77586,643.2911 -192.53428,648.28683 C -193.01026,652.51583 -194.29763,656.62119 -196.15051,660.43979 C -198.19927,664.24779 -200.92642,667.56488 -203.65062,670.89216 C -206.36067,673.95376 -209.71127,676.31622 -212.99927,678.70553 C -218.71291,682.38085 -224.69217,685.99683 -231.24834,687.95212 C -235.51167,688.63138 -239.54314,690.11882 -243.78213,690.93483 C -248.48748,691.62352 -253.25411,692.24565 -257.98545,691.59568 C -263.73206,690.95741 -269.07024,688.88176 -274.41131,686.80662 C -281.03709,683.75005 -287.56824,680.5852 -293.65872,676.55154 C -300.1508,672.28222 -305.35057,666.64003 -310.36568,660.79323 C -315.40964,654.58932 -319.79655,647.92599 -323.56506,640.8836 C -327.13425,634.09902 -329.61561,626.90498 -331.97154,619.6358 C -334.24755,613.34046 -336.66219,607.08157 -338.64725,600.68654 C -340.25382,595.72978 -342.00166,590.89725 -342.91103,585.74882 C -343.63394,580.66502 -343.7433,575.52034 -343.80151,570.3937 C -343.824,565.7411 -343.80664,561.08843 -343.79219,556.43583 C -343.79653,550.44763 -342.24145,544.56792 -340.91098,538.76412 L -333.32197,535.10812 C -334.61115,540.85666 -336.19656,546.66845 -336.23704,552.5885 C -336.24422,557.23798 -336.27483,561.88746 -336.25186,566.53693 C -336.20234,571.62355 -336.1323,576.72811 -335.43396,581.77548 C -334.55748,586.89969 -332.81087,591.69351 -331.23747,596.62751 C -329.27742,603.02771 -326.8583,609.28422 -324.58957,615.57929 C -322.26477,622.80624 -319.79628,629.95244 -316.26459,636.6991 C -312.51201,643.68023 -308.19436,650.31835 -303.14943,656.44628 C -298.1793,662.23275 -293.02409,667.81249 -286.57149,672.0078 C -280.50185,675.9781 -274.00161,679.11922 -267.39517,682.09607 C -262.0998,684.15309 -256.77172,686.10862 -251.07343,686.69645 C -246.37856,687.1535 -241.66714,686.5847 -237.02568,685.81741 C -232.82383,684.93027 -228.75981,683.54057 -224.53518,682.75444 C -222.52288,682.08568 -220.59164,681.33081 -218.68043,680.40481 C -218.06042,680.10441 -216.2634,679.08588 -216.84303,679.45829 C -218.15822,680.3033 -225.70184,684.85043 -220.89437,681.82059 C -217.56998,679.52463 -214.31107,677.1012 -211.45595,674.2244 C -208.80994,670.87699 -205.95453,667.71386 -203.89062,663.94168 C -201.97398,660.22091 -200.62394,656.1943 -200.14113,652.02319 C -199.42701,647.05451 -197.87554,642.16893 -198.05568,637.11834 C -198.15424,631.29742 -198.37601,625.47216 -199.20872,619.70164 C -200.26303,613.21164 -202.0549,606.87875 -203.33603,600.4342 C -205.18266,594.24647 -207.90711,588.38797 -209.68963,582.17663 C -212.04867,575.43946 -214.40632,568.69657 -216.48103,561.86691 C -218.84904,554.32419 -221.16358,546.76776 -223.5459,539.23018 C -225.88163,530.85252 -229.05483,522.73603 -231.16515,514.28849 C -233.52924,505.83497 -235.19399,497.19773 -237.92748,488.85022 C -240.18253,481.28311 -243.32586,474.00935 -247.36991,467.21563 C -250.44984,462.31264 -253.19087,457.24416 -258.08306,453.86486 C -261.19196,451.00818 -264.65939,448.40937 -268.75336,447.17694 C -273.54701,446.51718 -278.07949,447.76647 -282.52686,449.57848 C -285.35922,450.79077 -288.23523,451.88601 -291.07233,453.07706 C -294.455,454.49715 -296.8856,456.1521 -289.5727,451.78368 C -288.81422,451.33059 -291.08873,452.6914 -291.84675,453.14526 C -296.06982,456.2175 -300.38888,459.24548 -303.86075,463.18496 C -307.64743,468.22815 -311.14375,473.41754 -314.20961,478.94734 C -317.99124,485.43092 -320.58292,492.5679 -323.18658,499.58846 C -324.81515,506.6247 -325.25511,513.71994 -324.9612,520.93514 C -324.88528,528.16724 -324.97306,535.6129 -322.6814,542.55052 L -330.11423,546.64411 z" />
    <path
       style="fill:#000000;fill-opacity:1;stroke:#000000;stroke-width:1;stroke-linecap:round;stroke-linejoin:round;stroke-miterlimit:4;stroke-dasharray:8, 8;stroke-dashoffset:0;stroke-opacity:1"
       id="path2405"
       d="M -275.19877,454.40623 C -274.21616,440.68435 -272.93484,426.99606 -271.14773,413.35501 C -268.34686,396.39884 -264.28997,379.68646 -261.26774,362.76987 C -259.15422,352.30974 -257.16962,341.82846 -255.77788,331.2461 C -255.55122,329.35079 -255.30677,327.45516 -255.18848,325.54915 C -252.43123,324.05892 -249.67399,322.56869 -246.91675,321.07846 L -253.80827,326.10766 C -251.72147,324.63156 -249.63467,323.15545 -247.54787,321.67935 C -247.62669,323.63427 -247.98008,325.57029 -248.19756,327.51191 C -249.68841,338.12803 -251.67614,348.65557 -253.84704,359.15296 C -256.88053,376.06051 -260.93233,392.76657 -263.75948,409.71105 C -265.54059,423.28314 -266.79796,436.9028 -267.65837,450.5642 L -275.19877,454.40623 z" />
    <path
       style="fill:#000000;fill-opacity:1;stroke:#000000;stroke-width:1;stroke-linecap:round;stroke-linejoin:round;stroke-miterlimit:4;stroke-dasharray:8, 8;stroke-dashoffset:0;stroke-opacity:1"
       id="path2407"
       d="M -216.22375,169.97329 C -217.19328,183.727 -218.70925,197.42799 -219.94726,211.15805 C -221.61226,225.93798 -223.28944,240.77353 -226.27497,255.35554 C -227.10026,259.03771 -228.1478,262.66388 -229.45068,266.20398 L -237.1707,269.78689 C -235.76402,266.28218 -234.66846,262.66555 -233.79285,258.99132 C -230.63733,244.45099 -229.02123,229.59778 -227.31915,214.83191 C -226.1112,201.16201 -224.6006,187.52338 -223.77625,173.82148 L -216.22375,169.97329 z" />
    <path
       style="fill:#000000;fill-opacity:1;stroke:#000000;stroke-width:1;stroke-linecap:round;stroke-linejoin:round;stroke-miterlimit:4;stroke-dasharray:8, 8;stroke-dashoffset:0;stroke-opacity:1"
       id="path2409"
       d="M -174.93655,209.59216 C -181.97141,216.82127 -190.0282,222.92192 -197.88636,229.2067 C -203.16207,234.63442 -210.71615,237.32688 -215.5408,243.17237 C -217.10981,246.4698 -214.25506,247.83512 -211.98089,249.49342 C -209.27258,250.99 -206.50763,252.10325 -204.01435,253.97065 C -202.92492,254.67247 -202.51413,255.85491 -202.13916,257.02912 L -209.63326,261.12924 C -209.92823,260.09058 -210.24728,259.1329 -211.21764,258.53028 C -213.70315,256.69174 -216.54513,255.67505 -219.16275,254.05645 C -221.86895,252.14122 -224.60225,250.28178 -223.33601,246.51449 C -218.7658,240.3165 -210.95713,237.82207 -205.64509,232.32039 C -197.82664,226.06249 -189.75498,220.04469 -182.7668,212.83556 L -174.93655,209.59216 z" />
    <path
       style="fill:#000000;fill-opacity:1;stroke:#000000;stroke-width:1;stroke-linecap:round;stroke-linejoin:round;stroke-miterlimit:4;stroke-dasharray:8, 8;stroke-dashoffset:0;stroke-opacity:1"
       id="path2411"
       d="M -136.81977,232.32007 C -133.63753,228.3571 -129.43928,223.34797 -130.7556,217.91676 C -134.73942,212.51226 -146.26293,220.98508 -135.44723,214.96293 C -141.91887,220.04589 -144.60541,227.28354 -146.26192,235.06011 C -147.20439,241.95706 -148.66128,249.9015 -144.98224,256.23433 C -141.54821,258.87863 -137.63438,257.58192 -134.04421,255.85093 C -132.70593,255.20569 -131.2474,254.68911 -130.14309,253.69522 C -129.35879,252.98935 -132.07941,254.53437 -133.04757,254.95395 C -123.10746,248.35807 -114.57234,240.01628 -105.37449,232.48455 C -99.623111,227.78509 -94.025162,222.92047 -87.810778,218.83573 C -83.503981,216.78925 -76.516214,209.07284 -73.889256,216.41422 C -72.86617,221.10184 -74.284985,225.84179 -74.992562,230.4871 C -75.5567,235.3456 -76.927312,240.07303 -78.179827,244.79098 C -78.964175,247.10487 -77.870572,244.46239 -78.831845,244.69218 C -81.030196,245.21769 -82.879259,247.0592 -85.135737,247.19041 C -85.987084,247.23991 -84.266327,245.723 -83.841647,244.98348 C -80.929649,239.91266 -84.153082,245.38246 -80.975242,240.03501 C -77.39348,232.66306 -71.571128,227.27948 -65.453639,222.05006 C -58.1819,216.09356 -50.140953,212.74384 -41.404125,209.85048 L -48.096714,215.04079 C -49.727605,215.55727 -51.387901,215.98138 -53.006306,216.53575 C -53.89462,216.84003 -56.26481,218.25112 -55.631161,217.55817 C -54.502592,216.32398 -52.705159,215.89708 -51.431364,214.81342 C -49.540848,213.20508 -60.140139,220.30138 -57.65952,218.89474 C -63.755129,224.05881 -69.732879,229.24091 -73.247688,236.60859 C -77.355202,243.43738 -77.264212,244.79497 -85.571528,249.9794 C -85.860385,250.15967 -86.138703,249.51032 -86.202094,249.17578 C -86.251773,248.91361 -85.974721,248.69297 -85.861035,248.45156 C -84.559614,243.76363 -83.160035,239.05137 -82.585624,234.21254 C -81.898508,229.69798 -80.525501,225.08954 -81.349997,220.53089 C -83.116316,215.06646 -90.97232,223.07155 -79.90756,215.75538 C -86.209703,219.77979 -91.862206,224.62247 -97.62866,229.36729 C -106.85425,236.87219 -115.36625,245.2304 -125.25909,251.89769 C -129.0668,254.25097 -132.83256,256.67352 -136.68221,258.95753 C -141.49576,261.81343 -147.47784,264.61016 -152.32286,260.46817 C -156.02995,253.88454 -154.82655,245.8895 -153.81776,238.71877 C -152.24096,230.78365 -149.62644,223.4632 -143.32986,217.99808 C -138.30452,215.10647 -128.72667,206.77942 -123.28289,213.86759 C -121.73945,219.5216 -125.58817,224.799 -129.01755,228.98666 L -136.81977,232.32007 z" />
    <path
       style="fill:#000000;fill-opacity:1;stroke:#000000;stroke-width:1;stroke-linecap:round;stroke-linejoin:round;stroke-miterlimit:4;stroke-dasharray:8, 8;stroke-dashoffset:0;stroke-opacity:1"
       id="path2413"
       d="M 5.4146118,266.40088 C 9.2463218,256.93504 13.276378,247.54925 17.145089,238.09068 C 21.664784,226.88738 27.171983,216.13719 32.046412,205.0928 C 35.845171,197.03599 39.876133,189.04504 44.680446,181.53363 C 48.921623,176.71447 54.650416,167.34956 58.022148,177.40998 C 59.688791,184.60191 60.771063,191.94874 61.895757,199.25092 C 63.494988,208.16492 65.52515,216.98598 67.270624,225.86996 C 68.673841,233.21804 69.132455,240.70029 69.415771,248.16235 C 69.576504,256.58117 71.679525,253.81076 61.670246,257.72185 C 60.78445,255.30856 59.869197,252.94148 57.920607,251.1998 C 56.52688,250.15146 55.282055,248.97681 53.846603,247.96586 L 61.037302,243.39576 C 62.476163,244.44365 63.766747,245.6333 65.165904,246.72441 C 67.139368,248.62942 68.207952,251.01523 69.125786,253.57287 C 59.61257,260.08993 62.206726,260.27273 61.896175,252.02694 C 61.658687,244.59594 61.243923,237.14605 59.86377,229.82551 C 58.13987,220.92634 56.092756,212.09754 54.473487,203.17633 C 53.364044,195.92891 52.236023,188.64679 50.588592,181.5097 C 50.368968,180.87305 50.164641,180.2309 49.92972,179.59973 C 49.828634,179.32814 49.78638,179.00794 49.581253,178.80324 C 49.465622,178.68785 48.956756,178.85502 49.092717,178.76446 C 60.966642,170.85591 54.449157,175.28381 52.406522,178.1414 C 47.510114,185.59297 43.478405,193.5865 39.630569,201.61698 C 34.77006,212.66558 29.240948,223.39955 24.712873,234.59768 C 20.865544,244.01127 16.898957,253.37216 13.095299,262.79375 L 5.4146118,266.40088 z" />
    <path
       style="fill:#000000;fill-opacity:1;stroke:#000000;stroke-width:1;stroke-linecap:round;stroke-linejoin:round;stroke-miterlimit:4;stroke-dasharray:8, 8;stroke-dashoffset:0;stroke-opacity:1"
       id="path2415"
       d="M 28.299858,229.46925 C 33.568624,228.54344 38.873087,228.12299 43.958764,226.41377 C 37.748557,229.87998 36.447792,230.71252 39.874742,228.60165 L 47.796757,225.52812 C 43.321858,228.37505 46.76243,226.22385 37.25298,231.61215 C 32.122272,233.18937 26.777379,233.57635 21.51559,234.57159 L 28.299858,229.46925 z" />
    <path
       style="fill:#000000;fill-opacity:1;stroke:#000000;stroke-width:1;stroke-linecap:round;stroke-linejoin:round;stroke-miterlimit:4;stroke-dasharray:8, 8;stroke-dashoffset:0;stroke-opacity:1"
       id="path2417"
       d="M 774.55729,778.11226 C 764.46443,779.21919 755.93147,775.7893 747.48927,770.63302 C 732.60985,759.23911 724.5714,741.44889 716.73117,724.92426 C 704.17413,695.9538 696.60266,665.27929 689.79417,634.55789 C 684.18467,605.83776 680.44342,576.4256 683.91151,547.17845 C 684.57582,541.57621 685.77166,536.04985 686.70174,530.48555 C 692.16222,505.84815 700.41374,481.00245 716.67393,461.20516 C 719.3347,457.96559 722.44414,455.1222 725.32925,452.08071 C 738.27835,440.87332 753.87838,432.33115 771.36048,432.20645 C 781.02983,432.13747 784.55044,433.65855 793.93943,435.99255 C 816.40447,443.54761 835.36616,458.23667 849.88688,476.85508 C 853.30355,481.23592 856.23513,485.97436 859.40926,490.53399 C 875.56697,516.62686 885.92292,545.99295 891.73892,576.0694 C 892.92564,582.20629 893.65605,588.42268 894.61461,594.59931 C 897.22176,617.66722 897.13909,640.99517 893.05782,663.88857 C 890.74115,676.88364 889.39717,680.17311 885.7091,692.58003 C 879.57114,708.11819 870.56657,727.33422 856.0933,737.01803 C 851.68589,739.96696 846.89214,742.29292 842.29155,744.93037 C 833.42506,748.08909 823.86261,748.70124 815.37341,743.93337 C 813.1455,742.68209 811.24303,740.92385 809.17783,739.41909 L 816.15856,734.98399 C 818.19352,736.42634 820.0708,738.12202 822.26344,739.31104 C 830.67693,743.8735 840.09092,743.02234 848.72154,739.74009 C 846.93866,742.3339 846.53814,742.84743 855.01572,734.54476 C 865.97463,723.81196 873.14169,710.24079 878.47463,696.00443 C 882.22872,683.60112 883.57123,680.38845 885.94397,667.38716 C 890.1101,644.55907 890.26214,621.28251 887.69565,598.25925 C 886.74949,592.09787 886.03376,585.89666 884.85718,579.77509 C 879.09433,549.79196 868.73138,520.52917 852.59247,494.54813 C 849.42232,490.02065 846.4941,485.31375 843.08202,480.96568 C 828.5834,462.48984 809.67259,447.95639 787.27171,440.59742 C 768.83556,436.19079 762.70122,435.80015 744.49547,441.1631 C 743.6255,441.41938 742.6508,441.46419 741.89625,441.96736 C 738.70734,444.09388 735.81874,446.63949 732.77998,448.97555 C 729.86884,451.98763 726.73229,454.7971 724.04655,458.01178 C 707.64428,477.64432 699.31767,502.44082 693.79966,527.01727 C 692.85425,532.5614 691.64196,538.06659 690.96343,543.64967 C 687.41813,572.82112 691.13111,602.17298 696.74676,630.82203 C 703.55106,661.47174 711.11922,692.0778 723.76159,720.93838 C 731.60624,737.28341 739.62868,754.94015 754.49102,766.10536 C 762.88049,771.10827 771.39032,774.3887 781.34155,773.00992 L 774.55729,778.11226 z" />
    <path
       style="fill:#000000;fill-opacity:1;stroke:#000000;stroke-width:1;stroke-linecap:round;stroke-linejoin:round;stroke-miterlimit:4;stroke-dasharray:8, 8;stroke-dashoffset:0;stroke-opacity:1"
       id="path2419"
       d="M 1288.7606,768.74389 C 1277.6447,766.47528 1268.9189,759.8647 1260.735,752.38475 C 1244.5341,736.98181 1234.5539,717.30427 1225.7751,697.08332 C 1214.142,668.41606 1210.6978,640.02026 1210.1961,609.36525 C 1210.914,589.31183 1213.5085,569.33439 1219.417,550.11724 C 1222.8934,538.81031 1224.716,535.07157 1229.1655,524.25973 C 1237.625,506.73039 1248.0229,489.33735 1263.0747,476.6017 C 1265.4888,474.5591 1268.1719,472.85753 1270.7205,470.98544 C 1275.6955,468.24218 1280.484,465.12943 1285.6455,462.75565 C 1296.5919,457.7214 1309.9183,458.29063 1321.0706,462.17747 C 1324.2968,463.3019 1327.3096,464.96439 1330.4291,466.35785 C 1354.0365,478.96575 1368.6595,501.36183 1381.6718,523.90637 C 1397.4462,553.45211 1405.1776,585.84944 1410.2689,618.68205 C 1413.4316,644.16869 1414.9037,670.30762 1410.567,695.77053 C 1409.8528,699.96402 1408.7552,704.08311 1407.8493,708.2394 C 1404.2999,721.15924 1398.7105,733.73622 1387.8091,742.12183 C 1381.6404,746.86695 1372.6028,750.22228 1366.0088,753.22542 C 1353.696,755.61157 1342.5507,751.66642 1331.3829,746.96529 L 1338.1885,742.41939 C 1349.2978,746.9841 1360.3465,750.78367 1372.5154,748.15308 C 1374.0118,751.92204 1372.9694,750.57987 1380.1966,745.23588 C 1391.2353,737.07361 1396.9593,724.61046 1400.5854,711.74341 C 1401.516,707.60161 1402.6428,703.49904 1403.3773,699.31801 C 1407.8386,673.9237 1406.4099,647.81249 1403.2921,622.37288 C 1398.2364,589.63432 1390.5432,557.33107 1374.7651,527.89476 C 1361.7798,505.50364 1347.2016,483.26343 1323.6289,470.87951 C 1311.0246,465.39744 1301.5496,462.07935 1287.6394,465.24175 C 1273.8104,468.38568 1282.694,467.6354 1278.3397,467.96946 C 1275.7679,469.81155 1273.0601,471.47723 1270.6243,473.49575 C 1255.4541,486.06728 1245.0003,503.43442 1236.4626,520.89539 C 1231.9519,531.73718 1230.1682,535.3359 1226.6352,546.67924 C 1220.6715,565.82699 1218.0297,585.73852 1217.2805,605.74159 C 1217.7374,636.2925 1221.1482,664.58552 1232.7869,693.14016 C 1241.5582,713.25155 1251.5504,732.78841 1267.7667,748.02867 C 1275.9234,755.37536 1284.6378,761.8713 1295.7097,763.86838 L 1288.7606,768.74389 z" />
    <path
       style="fill:#000000;fill-opacity:1;stroke:#000000;stroke-width:1;stroke-linecap:round;stroke-linejoin:round;stroke-miterlimit:4;stroke-dasharray:8, 8;stroke-dashoffset:0;stroke-opacity:1"
       id="path2421"
       d="M 1294.4072,667.95324 C 1286.1373,663.66679 1281.5086,656.41939 1277.4462,648.36153 C 1273.3497,638.37903 1270.913,627.77859 1269.1718,617.15454 C 1267.549,608.60355 1268.7795,600.49384 1271.7368,592.45431 C 1274.1769,585.81286 1278.847,581.07153 1284.348,576.8871 C 1291.217,572.44668 1298.1396,567.35446 1306.5299,568.13405 C 1311.5971,569.35984 1315.2349,572.5637 1318.5409,576.43087 C 1323.4849,581.86884 1326.5069,588.46828 1329.5091,595.08032 C 1332.5415,603.07996 1334.9615,611.32946 1336.5171,619.74362 C 1337.8404,626.91665 1338.159,634.02728 1336.4846,641.13961 C 1335.3459,646.97657 1331.7555,651.26027 1327.5074,655.16471 C 1321.5629,659.26078 1315.3616,663.06727 1308.3541,664.94703 L 1315.0608,659.78658 C 1316.797,659.27175 1321.5795,656.83934 1320.1932,658.0046 C 1311.1988,665.56487 1316.6201,659.17761 1319.6625,658.36018 C 1323.9563,654.67253 1327.6753,650.50002 1328.8709,644.7897 C 1330.6792,637.79793 1330.3722,630.78277 1329.0978,623.69499 C 1327.5788,615.34085 1325.1942,607.15276 1322.1871,599.21365 C 1319.21,592.67574 1316.2147,586.15423 1311.2953,580.79695 C 1308.0975,577.1095 1304.5626,574.02181 1299.6264,573.07227 C 1297.9176,572.97953 1296.9801,572.82512 1295.2489,573.18553 C 1292.1529,573.8301 1286.0724,578.13215 1294.9149,572.12582 C 1295.7915,571.53036 1293.0997,573.21998 1292.1921,573.76707 C 1286.6973,577.84051 1281.8716,582.32179 1279.3784,588.89853 C 1276.3811,596.81568 1274.9488,604.75234 1276.5719,613.23353 C 1278.2501,623.78558 1280.6565,634.309 1284.7132,644.21969 C 1288.7194,652.12749 1293.2658,659.23441 1301.4916,663.29197 L 1294.4072,667.95324 z" />
    <path
       style="fill:#000000;fill-opacity:1;stroke:#000000;stroke-width:1;stroke-linecap:round;stroke-linejoin:round;stroke-miterlimit:4;stroke-dasharray:8, 8;stroke-dashoffset:0;stroke-opacity:1"
       id="path2423"
       d="M 748.29986,572.32639 C 756.90804,571.16656 765.22811,568.73358 773.30022,565.58157 C 783.76145,561.05096 794.44508,557.063 805.18915,553.26131 C 816.60177,549.30884 828.36697,546.71938 840.21314,544.4785 C 853.11636,542.19254 866.23746,541.76242 879.30706,541.45587 C 892.29124,541.11565 905.24258,541.14606 918.19273,542.14203 C 929.67635,542.78165 940.9758,545.03249 952.11451,547.79192 C 962.6927,550.29937 973.39419,552.23803 984.02549,554.4952 C 993.63076,556.65716 1003.2266,558.86621 1012.8112,561.12684 C 1022.2068,562.98991 1031.5514,565.16728 1040.7497,567.84161 C 1050.7365,571.01338 1060.863,573.25643 1071.2616,574.4948 C 1081.5581,575.92789 1091.7866,577.75348 1102.0565,579.35149 C 1112.1483,581.28399 1122.2737,582.98234 1132.2818,585.32469 C 1141.4984,587.37389 1150.7807,589.15327 1160.0665,590.87363 C 1166.651,592.33887 1173.4472,592.05444 1180.0726,593.08132 C 1184.9641,594.11932 1189.8754,594.90313 1194.8575,595.31891 C 1198.8592,596.38688 1202.836,597.41121 1206.94,597.99071 C 1210.9755,598.43169 1215.0428,598.43474 1219.0974,598.45946 C 1223.2379,598.47071 1227.3783,598.45244 1231.5187,598.44553 C 1234.839,598.36001 1237.9188,599.88488 1241.1301,600.58163 C 1244.5899,601.17812 1247.7522,602.74549 1251.2143,603.43033 C 1254.5943,603.98316 1257.6753,605.54783 1261.0186,606.30705 C 1264.9032,606.94239 1268.6204,608.34158 1272.4743,609.16024 C 1275.6438,609.97221 1278.9663,609.43002 1282.0991,610.2926 C 1285.1085,611.51391 1288.3653,611.84548 1291.4209,612.85851 C 1294.1254,614.07507 1296.9,614.9017 1299.8288,615.32472 C 1304.1927,615.94484 1304.5053,614.60015 1294.3145,618.80121 L 1301.7469,614.64726 C 1295.2166,620.36894 1297.6266,620.93427 1292.8596,620.22464 C 1289.9206,619.72947 1287.1475,618.79013 1284.398,617.64608 C 1281.3127,616.76377 1278.13,616.2307 1275.1001,615.13042 C 1271.9358,614.49362 1268.6339,614.86441 1265.4885,614.00624 C 1261.6489,613.11798 1257.9144,611.78239 1254.02,611.14344 C 1250.7166,610.30425 1247.6177,608.80215 1244.2378,608.28172 C 1240.8012,607.51969 1237.614,605.98126 1234.1353,605.42716 C 1230.991,604.67154 1227.9371,603.26498 1224.6477,603.43946 C 1220.5077,603.44692 1216.3677,603.45684 1212.2278,603.44344 C 1208.1464,603.41303 1204.0492,603.39094 1199.9934,602.88374 C 1195.9141,602.2553 1191.9719,601.14244 1187.949,600.24599 C 1182.9691,599.78302 1178.0657,598.93648 1173.1638,597.95004 C 1166.524,597.04933 1159.7545,597.15288 1153.1774,595.68632 C 1143.9001,593.92618 1134.613,592.1791 1125.4068,590.08444 C 1115.402,587.79122 1105.2936,586.05948 1095.2081,584.16601 C 1084.9538,582.54233 1074.7306,580.75241 1064.4452,579.32249 C 1054.0182,578.0328 1043.8606,575.7324 1033.835,572.57454 C 1024.6331,569.94047 1015.299,567.77442 1005.9138,565.89708 C 996.34423,563.62173 986.75456,561.43005 977.16034,559.26837 C 966.51735,557.04227 955.82449,555.03944 945.24056,552.53752 C 934.12877,549.83271 922.87183,547.59828 911.42487,546.98111 C 898.4948,546.00892 885.56023,546.03317 872.59906,546.35431 C 859.549,546.67888 846.44904,547.15126 833.57482,549.49548 C 821.74882,551.77282 810.00292,554.39861 798.61615,558.38753 C 787.86619,562.19874 777.20052,566.25065 766.71576,570.74637 C 758.56478,573.8555 750.17054,576.20769 741.51559,577.42873 L 748.29986,572.32639 z" />
    <path
       style="fill:#000000;fill-opacity:1;stroke:#000000;stroke-width:1;stroke-linecap:round;stroke-linejoin:round;stroke-miterlimit:4;stroke-dasharray:8, 8;stroke-dashoffset:0;stroke-opacity:1"
       id="path2425"
       d="M 788.29986,663.75496 C 796.28738,662.83277 804.11936,661.00625 812.07571,659.87386 C 821.63845,658.33676 830.98112,655.77563 840.39289,653.54282 C 851.85921,650.40816 863.55277,648.11837 875.31401,646.4274 C 889.34694,643.73861 903.56798,642.56848 917.81822,641.89921 C 933.80742,641.35187 949.74559,639.93271 965.73087,639.23592 C 982.10117,638.17551 998.45955,639.42989 1014.8065,640.23982 C 1030.7635,641.11542 1046.7047,641.35251 1062.6594,640.48073 C 1077.2101,639.9323 1091.6928,638.71595 1106.1853,637.36754 C 1119.0082,635.61444 1131.8734,634.27846 1144.6922,632.50567 C 1155.4042,631.01015 1166.2027,630.36535 1177.0053,630.03909 C 1185.7361,629.88236 1194.3884,628.50386 1203.0841,627.75864 C 1209.7152,627.07261 1216.3243,628.43452 1222.9051,629.12886 C 1229.0055,629.22809 1234.924,630.63366 1240.9093,631.63765 C 1246.0625,632.43478 1251.2813,632.6011 1256.4857,632.70867 C 1260.4409,632.93989 1264.4594,632.33253 1268.3507,633.14196 C 1271.5649,634.13041 1274.82,634.91679 1278.1618,635.29871 C 1281.1747,635.59502 1284.2076,635.58371 1287.232,635.59464 C 1290.0811,635.59888 1292.9302,635.59114 1295.7792,635.57407 C 1297.2249,635.57418 1298.6706,635.56906 1300.1162,635.56115 C 1300.2413,635.56055 1300.3664,635.55958 1300.4915,635.5588 L 1293.562,640.5939 C 1293.4529,640.59333 1293.2941,640.5922 1293.193,640.59198 C 1291.7546,640.58637 1290.316,640.58511 1288.8776,640.59125 C 1286.0321,640.58928 1283.1867,640.59881 1280.3412,640.59592 C 1277.2978,640.5769 1274.2435,640.56406 1271.2166,640.21423 C 1267.8768,639.7635 1264.6353,638.91142 1261.3907,638.01287 C 1257.4999,637.43533 1253.5369,637.89001 1249.6145,637.67662 C 1244.3886,637.54279 1239.1487,637.33824 1233.9803,636.49505 C 1228.0135,635.4593 1222.0966,634.16505 1216.0139,634.02374 C 1209.4782,633.30818 1202.9116,632.01471 1196.3217,632.76129 C 1187.6291,633.51733 1178.9752,634.88221 1170.2412,634.98563 C 1159.4691,635.32984 1148.7014,635.9793 1138.0216,637.49326 C 1125.2031,639.25652 1112.3362,640.58293 1099.5119,642.31099 C 1085.0248,643.65045 1070.5417,644.80426 1055.9993,645.37395 C 1040.0307,646.20412 1024.0751,645.92146 1008.107,645.05665 C 991.77557,644.24343 975.43215,643.02757 959.07822,644.11445 C 943.09057,644.83267 927.14699,646.23924 911.1536,646.79071 C 896.90564,647.4993 882.69716,648.74303 868.66289,651.40905 C 856.90466,653.16186 845.21945,655.48324 833.74591,658.61446 C 824.31994,660.88202 814.94318,663.40589 805.35255,664.90849 C 797.3825,666.09294 789.51314,667.8485 781.51559,668.8573 L 788.29986,663.75496 z" />
    <path
       style="fill:#000000;fill-opacity:1;stroke:#000000;stroke-width:1;stroke-linecap:round;stroke-linejoin:round;stroke-miterlimit:4;stroke-dasharray:8, 8;stroke-dashoffset:0;stroke-opacity:1"
       id="path2427"
       d="M 785.52511,487.40905 C 791.39661,488.46435 797.03563,490.44162 802.8716,491.69663 C 807.23464,493.11299 811.59075,494.49071 815.91471,496.01201 C 820.55262,497.63443 825.24249,499.14445 829.86283,500.81957 C 835.18217,502.59684 840.58347,504.14527 845.86057,506.04778 C 851.72614,507.8823 857.55534,509.71402 862.99946,512.60025 C 869.3751,515.82601 875.7464,519.1446 882.52646,521.43387 C 889.89104,524.28053 897.63415,525.89617 905.16577,528.21689 C 913.63701,530.37669 922.07218,532.65052 930.48831,535.01865 C 939.75343,538.24842 949.47961,539.70423 959.08749,541.51659 C 969.62649,543.14552 980.26202,543.79251 990.7531,545.76039 C 1001.4897,547.86935 1012.1236,550.52352 1022.7008,553.32233 C 1033.6502,556.09301 1044.8058,557.91451 1055.8518,560.23043 C 1065.3035,562.04005 1074.7816,563.76698 1084.1399,566.02173 C 1091.8725,567.70762 1099.4798,569.89385 1107.2606,571.35582 C 1114.3481,572.53554 1121.4763,573.70011 1128.5007,575.23037 C 1135.4292,576.99944 1142.5154,577.74632 1149.6327,578.17376 C 1156.9623,579.45402 1164.4099,579.97053 1171.7348,581.22806 C 1178.8243,582.65352 1186,583.33219 1193.0889,584.7478 C 1199.8374,586.88597 1206.7711,588.26882 1213.5986,590.11212 C 1220.5764,592.00148 1227.6581,593.42497 1234.6877,595.08828 C 1241.1485,596.72281 1247.7433,597.53948 1254.2279,599.04924 C 1259.0653,600.16765 1263.9582,600.61716 1268.7071,602.06152 C 1272.4476,603.45337 1276.4976,603.36848 1280.2936,604.42201 C 1283.4654,605.70289 1286.7568,606.37549 1290.1393,606.74889 C 1293.9382,607.50339 1297.2982,609.27677 1300.8003,610.80995 C 1304.5656,612.15085 1308.1755,613.90519 1311.7513,615.69436 C 1314.5463,616.98638 1317.0968,618.75315 1319.5842,620.55515 C 1323.1582,622.00396 1326.8724,618.88318 1314.9352,623.6181 L 1322.4811,619.70014 C 1317.2956,624.40703 1317.1836,627.65572 1312.3754,625.12788 C 1309.9376,623.33562 1307.4151,621.62784 1304.6586,620.35954 C 1301.096,618.56594 1297.4629,616.89546 1293.7223,615.51248 C 1290.3012,613.96351 1286.95,612.30777 1283.2,611.66687 C 1279.8,611.23835 1276.5135,610.44884 1273.2983,609.24179 C 1269.4555,608.34784 1265.4463,608.21531 1261.6985,606.84806 C 1256.9702,605.4519 1252.0664,605.05361 1247.2814,603.85838 C 1240.8029,602.3637 1234.2036,601.55809 1227.7615,599.88251 C 1220.7066,598.27022 1213.6437,596.74174 1206.6442,594.88954 C 1199.8339,593.04699 1192.9209,591.64233 1186.1711,589.56952 C 1179.091,588.17123 1171.9141,587.51241 1164.8401,586.06603 C 1157.5186,584.89146 1150.1115,584.23257 1142.7815,583.08621 C 1135.6379,582.61971 1128.536,581.80632 1121.5797,580.04065 C 1114.5408,578.58232 1107.4426,577.33225 1100.3495,576.17975 C 1092.5802,574.66108 1084.9625,572.50061 1077.2333,570.79693 C 1067.8774,568.59292 1058.4295,566.80593 1048.9898,565.00371 C 1037.9306,562.71467 1026.7806,560.82812 1015.826,558.05181 C 1005.2526,555.28473 994.63358,552.62401 983.9012,550.54957 C 973.39976,548.63403 962.75576,548.00251 952.22346,546.30999 C 942.59313,544.48032 932.8559,542.98802 923.56171,539.76564 C 915.14323,537.38242 906.68516,535.1684 898.22201,532.95429 C 890.66795,530.67422 882.92675,529.00658 875.55257,526.15615 C 868.76298,523.7825 862.34458,520.47876 855.93792,517.22858 C 850.49162,514.42682 844.67453,512.64553 838.85656,510.78051 C 833.55564,508.93254 828.16906,507.33578 822.84342,505.56272 C 818.19423,503.95158 813.55406,502.3263 808.89087,500.7601 C 804.59757,499.2444 800.25834,497.88688 795.91254,496.52585 C 790.10076,495.21704 784.46388,493.22028 778.57605,492.28456 L 785.52511,487.40905 z" />
    <path
       style="fill:#000000;fill-opacity:1;stroke:#000000;stroke-width:1;stroke-linecap:round;stroke-linejoin:round;stroke-miterlimit:4;stroke-dasharray:8, 8;stroke-dashoffset:0;stroke-opacity:1"
       id="path2429"
       d="M 1302.8923,591.73776 C 1309.2816,580.28018 1317.1537,569.73498 1324.6383,558.98446 C 1337.5432,541.37248 1349.02,522.80029 1361.1118,504.63634 C 1372.1227,487.81405 1383.0682,470.96975 1394.6249,454.51258 C 1399.9886,446.83965 1405.781,439.47809 1411.0988,431.7737 C 1411.9237,430.64842 1412.611,429.42606 1413.3908,428.27277 C 1413.5471,428.25881 1413.4003,427.19229 1413.3803,426.82619 L 1420.984,422.90457 C 1421.0106,423.51159 1420.9879,424.13715 1421.1861,424.7183 C 1420.6312,426.05022 1419.5894,427.15024 1418.8703,428.38994 C 1413.4867,436.1323 1407.6253,443.52191 1402.188,451.22685 C 1390.5521,467.67253 1379.5604,484.52737 1368.5396,501.38603 C 1356.4561,519.51873 1345.034,538.08732 1332.1835,555.70045 C 1324.7731,566.38616 1317.0101,576.87711 1310.5868,588.20192 L 1302.8923,591.73776 z" />
    <path
       style="fill:#000000;fill-opacity:1;stroke:#000000;stroke-width:1;stroke-linecap:round;stroke-linejoin:round;stroke-miterlimit:4;stroke-dasharray:8, 8;stroke-dashoffset:0;stroke-opacity:1"
       id="path2431"
       d="M 1396.8296,431.93283 C 1405.1883,429.86665 1413.2458,426.60912 1420.8376,422.57093 C 1426.8093,419.4633 1432.648,416.10032 1438.6527,413.05724 C 1443.4432,411.38704 1445.0279,412.05033 1446.2009,416.96918 C 1446.8801,422.04298 1446.7359,427.18553 1446.7245,432.29299 C 1446.7337,434.65481 1446.6515,437.02918 1446.7196,439.38545 L 1439.0333,443.1724 C 1439.2158,440.88386 1439.1124,438.46483 1439.1741,436.1356 C 1439.2106,431.09004 1439.3262,426.01414 1438.7186,420.99611 C 1437.7075,416.36447 1436.2092,416.77865 1432.0504,418.35028 C 1426.0968,421.45042 1420.2274,424.70754 1414.2866,427.8313 C 1406.6012,431.79345 1398.5052,434.96179 1390.1287,437.13877 L 1396.8296,431.93283 z" />
    <path
       style="fill:#000000;fill-opacity:1;stroke:#000000;stroke-width:1;stroke-linecap:round;stroke-linejoin:round;stroke-miterlimit:4;stroke-dasharray:8, 8;stroke-dashoffset:0;stroke-opacity:1"
       id="path2433"
       d="M 1289.4845,273.17528 C 1288.4886,284.98252 1287.647,296.79797 1287.1015,308.63483 C 1286.9081,313.09203 1286.7823,317.55165 1286.6913,322.01197 L 1279.0988,325.8476 C 1279.3163,321.3625 1279.4122,316.87258 1279.6484,312.3882 C 1280.2186,300.58461 1281.0681,288.80151 1281.9441,277.0173 L 1289.4845,273.17528 z" />
    <path
       style="fill:#000000;fill-opacity:1;stroke:#000000;stroke-width:1;stroke-linecap:round;stroke-linejoin:round;stroke-miterlimit:4;stroke-dasharray:8, 8;stroke-dashoffset:0;stroke-opacity:1"
       id="path2435"
       d="M 1265.4427,246.61211 C 1276.1694,245.20711 1287.0016,244.8464 1297.8044,244.51214 C 1299.8587,244.46747 1301.9131,244.4228 1303.9675,244.37813 L 1297.242,249.2873 C 1295.1897,249.33372 1293.1374,249.38013 1291.0851,249.42655 C 1280.2577,249.77664 1269.3898,250.13381 1258.6584,251.71445 L 1265.4427,246.61211 z" />
    <path
       style="fill:#000000;fill-opacity:1;stroke:#000000;stroke-width:1;stroke-linecap:round;stroke-linejoin:round;stroke-miterlimit:4;stroke-dasharray:8, 8;stroke-dashoffset:0;stroke-opacity:1"
       id="path2437"
       d="M 1265.5251,324.5519 C 1270.3881,325.21878 1267.8438,324.89455 1273.1599,325.51084 L 1266.3041,330.37267 C 1260.9374,329.75765 1263.513,330.07621 1258.576,329.42742 L 1265.5251,324.5519 z" />
    <path
       style="fill:#000000;fill-opacity:1;stroke:#000000;stroke-width:1;stroke-linecap:round;stroke-linejoin:round;stroke-miterlimit:4;stroke-dasharray:8, 8;stroke-dashoffset:0;stroke-opacity:1"
       id="path2439"
       d="M 1324.0912,278.13794 C 1325.449,282.7029 1324.3584,288.30139 1327.0306,292.40222 C 1327.7802,292.40122 1327.9955,292.48838 1328.7078,292.09169 C 1334.7933,288.7022 1318.1689,300.64247 1326.0256,292.27385 C 1330.495,288.53715 1336.6637,283.70903 1339.7379,290.00184 C 1340.9257,294.16069 1340.8989,298.55909 1340.9609,302.85277 C 1341.6398,306.19036 1341.3833,309.3527 1345.3776,307.12999 C 1332.7497,316.21837 1344.3997,304.95512 1346.8022,302.58642 C 1351.4992,298.46644 1358.303,292.14285 1364.7675,294.35542 C 1368.4905,297.4044 1369.8906,302.42462 1370.9999,306.93148 C 1371.6389,310.55865 1371.3615,308.79188 1371.8432,312.23002 L 1364.3474,316.17748 C 1363.9015,312.77822 1364.1624,314.52057 1363.5541,310.95206 C 1362.5523,306.7896 1361.3228,301.85522 1357.7522,299.16069 C 1354.782,298.50544 1352.2617,300.13282 1352.6815,299.8432 C 1363.377,292.46426 1356.6424,297.51273 1354.6373,299.3529 C 1349.3713,304.4239 1346.2455,309.73108 1338.6959,312.4182 C 1334.7324,313.73423 1333.8507,309.95044 1333.4094,306.71358 C 1333.3546,302.53765 1333.4026,298.26946 1332.3326,294.20502 C 1331.7994,293.08645 1331.4304,292.26464 1330.0823,292.06979 C 1329.7179,292.01712 1328.684,292.30111 1328.9777,292.07911 C 1330.335,291.05336 1338.0216,286.58823 1333.8755,289.0041 C 1330.3385,292.5971 1324.8169,298.69298 1319.6679,296.69302 C 1317.0179,292.39653 1317.9425,286.86071 1316.5923,282.11616 L 1324.0912,278.13794 z" />
    <path
       style="fill:#000000;fill-opacity:1;stroke:#000000;stroke-width:1;stroke-linecap:round;stroke-linejoin:round;stroke-miterlimit:4;stroke-dasharray:8, 8;stroke-dashoffset:0;stroke-opacity:1"
       id="path2441"
       d="M 1403.1802,315.17721 C 1409.6638,307.40399 1415.4243,299.03285 1420.6306,290.36105 C 1427.6035,279.04466 1432.0288,266.52391 1436.8233,254.20443 C 1440.4018,243.94894 1445.2866,234.269 1449.629,224.34342 C 1451.7747,219.92439 1458.3524,208.16831 1464.7117,211.50352 C 1468.0033,216.51398 1468.1897,222.80337 1468.6754,228.59192 C 1469.0019,240.31406 1470.2585,251.97212 1471.1575,263.65797 C 1471.8658,272.93856 1472.1487,282.244 1472.2972,291.54811 C 1472.0701,296.33703 1472.412,300.90545 1473.616,305.53057 C 1474.0423,307.08324 1474.514,308.62396 1475.0768,310.13269 C 1472.2587,313.61425 1468.36,315.82269 1466.917,312.43884 L 1474.3492,308.2604 C 1475.824,311.60645 1471.9249,314.77907 1467.5943,314.29332 C 1467.0409,312.74456 1466.5758,311.16612 1466.1463,309.57868 C 1464.9282,304.87269 1464.4746,300.26253 1464.7965,295.38306 C 1464.6858,286.08147 1464.4448,276.77831 1463.7592,267.49873 C 1462.8783,255.81964 1461.5926,244.17321 1461.2401,232.46065 C 1460.7672,227.03734 1460.6377,221.03523 1457.6433,216.28832 C 1454.6504,216.10623 1455.9942,216.31384 1463.1632,212.47224 C 1463.693,212.18839 1462.2316,213.23533 1461.8099,213.66348 C 1459.7818,215.72235 1458.5801,218.293 1457.272,220.83719 C 1452.9442,230.78916 1447.9025,240.42142 1444.3543,250.71309 C 1439.5459,263.05118 1435.1836,275.62069 1428.2436,286.98343 C 1423.1207,295.67584 1417.3735,304.03035 1410.9825,311.8438 L 1403.1802,315.17721 z" />
    <path
       style="fill:#000000;fill-opacity:1;stroke:#000000;stroke-width:1;stroke-linecap:round;stroke-linejoin:round;stroke-miterlimit:4;stroke-dasharray:8, 8;stroke-dashoffset:0;stroke-opacity:1"
       id="path2443"
       d="M 1445.4011,271.93283 C 1451.522,269.20551 1457.7463,266.79424 1464.2719,265.24031 C 1468.1892,264.64635 1471.938,263.21954 1475.6668,261.90846 C 1476.3575,261.66259 1477.0547,261.42263 1477.7199,261.11771 L 1470.9974,266.43144 C 1470.3094,266.6603 1469.6278,266.91329 1468.9407,267.14665 C 1465.2062,268.42091 1461.458,269.75666 1457.5484,270.37687 C 1451.0458,272.02003 1444.8559,274.49844 1438.7001,277.13877 L 1445.4011,271.93283 z" />
    <path
       style="fill:#000000;fill-opacity:1;stroke:#000000;stroke-width:1;stroke-linecap:round;stroke-linejoin:round;stroke-miterlimit:4;stroke-dasharray:8, 8;stroke-dashoffset:0;stroke-opacity:1"
       id="path2445"
       d="M -108.8711,417.82946 C -105.15392,408.99694 -101.74107,400.04964 -97.590467,391.40548 C -93.15378,383.03252 -88.675241,374.68574 -84.399488,366.22928 C -80.917133,358.77215 -77.621881,351.21735 -73.534597,344.06611 C -70.473056,338.72349 -67.271779,333.47907 -65.105444,327.69632 C -63.472971,323.48367 -63.52003,323.88436 -55.834739,322.21561 C -55.106902,322.05757 -53.720731,327.79427 -53.666631,327.97978 C -51.297583,336.13373 -49.639386,344.45686 -47.98523,352.77977 C -45.819218,363.65378 -44.411687,374.64784 -42.624895,385.58258 C -41.318955,392.84796 -40.088855,400.12286 -39.388219,407.47341 C -38.799153,414.25696 -37.884204,412.18666 -46.621999,415.05938 C -47.046208,413.09109 -46.796143,414.11635 -47.389172,411.98778 L -39.923572,407.91991 C -39.282455,410.13672 -39.576181,409.04635 -39.037409,411.18967 C -48.763668,418.05608 -46.224136,418.45974 -46.902334,411.38769 C -47.529437,404.03685 -48.717508,396.75916 -50.01082,389.49839 C -51.808323,378.57528 -53.161244,367.58151 -55.360552,356.72237 C -57.017846,348.43428 -58.695717,340.14955 -61.098019,332.04062 C -61.515433,330.66038 -61.797376,329.23047 -62.360553,327.90302 C -62.526062,327.51291 -63.316835,327.11062 -63.015047,326.81312 C -53.205013,317.14246 -56.104998,320.96631 -57.414244,324.11501 C -59.554941,329.96508 -62.723327,335.27138 -65.845028,340.64313 C -70.003472,347.75069 -73.295956,355.3061 -76.748973,362.77279 C -81.040707,371.22818 -85.475929,379.60333 -89.977324,387.94895 C -94.154631,396.52471 -97.513743,405.42901 -101.19041,414.22232 L -108.8711,417.82946 z" />
    <path
       style="fill:#000000;fill-opacity:1;stroke:#000000;stroke-width:1;stroke-linecap:round;stroke-linejoin:round;stroke-miterlimit:4;stroke-dasharray:8, 8;stroke-dashoffset:0;stroke-opacity:1"
       id="path2447"
       d="M -79.893178,381.29961 C -74.080275,381.3258 -68.267292,381.31472 -62.454402,381.29181 C -59.731005,382.06653 -57.142187,383.13233 -54.356626,383.69951 C -45.404204,383.91128 -59.306739,391.27011 -58.066369,385.95809 L -50.39408,382.24535 C -51.322099,387.25781 -56.920696,390.0062 -61.354487,388.56068 C -64.068726,387.94634 -66.602362,386.79415 -69.333414,386.2897 C -75.139142,386.26657 -80.944962,386.25588 -86.750704,386.2819 L -79.893178,381.29961 z" />
    <path
       style="fill:#000000;fill-opacity:1;stroke:#000000;stroke-width:1;stroke-linecap:round;stroke-linejoin:round;stroke-miterlimit:4;stroke-dasharray:8, 8;stroke-dashoffset:0;stroke-opacity:1"
       id="path2449"
       d="M 974.30497,466.34514 C 979.61872,457.06481 984.48603,447.53804 989.87306,438.30162 C 996.82748,427.12557 1003.1047,415.55804 1009.5971,404.11484 C 1014.3882,396.39261 1019.2265,388.66929 1024.5303,381.28335 C 1026.7688,378.73016 1028.4687,375.88953 1030.0704,372.92896 C 1032.719,372.21389 1035.2763,370.92359 1038.0161,370.78374 C 1038.6072,370.75357 1038.3192,371.92797 1038.4704,372.5002 C 1039.3844,375.96094 1039.8461,379.43177 1040.2289,382.98692 C 1040.6506,390.18515 1042.1384,397.27061 1043.7421,404.28352 C 1045.4725,411.41035 1047.3711,418.45769 1048.4766,425.72085 C 1049.763,432.07265 1050.9866,438.43313 1051.8333,444.85972 C 1052.2671,448.57503 1052.3435,452.31784 1052.3935,456.05404 C 1052.4054,457.03461 1052.4079,458.01525 1052.4039,458.99587 C 1052.3926,459.03312 1052.4097,459.06758 1052.4126,459.10343 L 1044.7383,462.91913 C 1044.7487,462.88763 1044.8206,462.98644 1044.7579,462.85945 C 1044.8069,461.88304 1044.7999,460.90468 1044.8069,459.92734 C 1044.7964,456.21532 1044.7274,452.49715 1044.3293,448.80316 C 1043.5453,442.36918 1042.3529,436.00261 1041.0204,429.6607 C 1039.952,422.40812 1038.058,415.38321 1036.3269,408.27452 C 1034.7123,401.23523 1033.184,394.1289 1032.7406,386.90326 C 1032.3698,383.39705 1031.9364,379.96518 1031.0029,376.55928 C 1030.8396,375.96342 1030.0681,375.21549 1030.5013,374.77496 C 1032.6238,372.61645 1035.4439,371.27815 1037.9152,369.52975 C 1035.6834,371.85346 1035.0833,375.93461 1032.2743,377.93133 C 1026.8935,385.28167 1022.0613,393.02929 1017.1989,400.72475 C 1010.671,412.15229 1004.4454,423.75527 997.47041,434.92441 C 992.08367,444.09792 987.29238,453.60221 982.03132,462.84949 L 974.30497,466.34514 z" />
    <path
       style="fill:#000000;fill-opacity:1;stroke:#000000;stroke-width:1;stroke-linecap:round;stroke-linejoin:round;stroke-miterlimit:4;stroke-dasharray:8, 8;stroke-dashoffset:0;stroke-opacity:1"
       id="path2451"
       d="M 1005.4427,420.89782 C 1013.39,419.55987 1021.243,417.77575 1029.2341,416.66358 C 1034.9588,416.27515 1040.4355,414.46735 1046.0515,413.43319 C 1047.942,413.13412 1049.8345,412.79779 1051.7462,412.66153 C 1051.9643,412.54672 1052.0488,412.73419 1052.193,412.7688 L 1045.1314,417.62598 C 1045.0425,417.66764 1044.9493,417.80097 1044.8649,417.75096 C 1042.9926,417.93763 1041.131,418.22073 1039.2791,418.55101 C 1033.6932,419.64939 1028.1988,421.29245 1022.4953,421.70552 C 1014.4923,422.8511 1006.6215,424.6398 998.65845,426.00016 L 1005.4427,420.89782 z" />
    <path
       style="fill:#000000;fill-opacity:1;stroke:#000000;stroke-width:1;stroke-linecap:round;stroke-linejoin:round;stroke-miterlimit:4;stroke-dasharray:8, 8;stroke-dashoffset:0;stroke-opacity:1"
       id="path2453"
       d="M -140.27157,455.18354 C -132.59189,453.07287 -124.9041,450.94831 -117.30173,448.56775 C -108.87542,446.49644 -100.992,442.80464 -92.895128,439.78162 C -84.725401,436.53656 -76.458407,433.4936 -68.0849,430.80932 C -59.228596,428.17023 -50.211396,426.16149 -41.176576,424.24281 C -32.321083,422.34799 -23.275053,421.79103 -14.250533,421.44559 C -7.7014129,421.24019 -1.1484482,421.26176 5.4029882,421.26536 C 9.1789138,421.27146 12.954834,421.28406 16.730766,421.28503 C 20.402345,421.29488 24.073931,421.29275 27.745518,421.2959 C 30.145437,421.69925 32.487988,422.49088 34.538478,423.81479 C 34.990592,424.15458 34.77872,424.14275 35.077854,423.47665 C 32.837327,424.67828 30.710423,426.12142 28.356271,427.08156 C 27.891242,427.27122 28.968086,426.28326 29.236742,425.85894 C 29.998035,424.65654 30.642419,423.38399 31.344131,422.14587 L 39.086393,418.69235 C 37.042684,422.2808 32.693956,431.44583 27.349511,428.44558 C 25.382514,427.24858 23.169662,426.51845 20.876885,426.28621 C 17.198873,426.28904 13.520861,426.28769 9.84285,426.28734 C 6.0792809,426.27364 2.3157261,426.25851 -1.4478259,426.24046 C -7.9766102,426.21514 -14.507133,426.20938 -21.033504,426.41426 C -30.025728,426.77223 -39.032997,427.38336 -47.848831,429.3092 C -56.868891,431.26195 -65.884226,433.25139 -74.716268,435.95269 C -83.069556,438.69565 -91.342405,441.70403 -99.508103,444.96101 C -107.59071,448.0473 -115.53082,451.59669 -123.95072,453.70954 C -131.61007,456.04015 -139.30055,458.30184 -147.05584,460.28587 L -140.27157,455.18354 z" />
    <path
       style="fill:#000000;fill-opacity:1;stroke:#000000;stroke-width:1;stroke-linecap:round;stroke-linejoin:round;stroke-miterlimit:4;stroke-dasharray:8, 8;stroke-dashoffset:0;stroke-opacity:1"
       id="path2455"
       d="M 41.234083,386.70936 C 42.461098,392.55614 45.210942,397.66569 49.004012,402.21981 C 51.614733,405.57214 54.594375,408.60631 57.970665,411.18813 C 60.612163,413.56804 59.888581,415.26963 57.683249,417.61041 C 54.147838,422.07635 50.320547,426.2961 46.698335,430.68888 C 41.572861,436.70918 37.028597,443.17678 32.237397,449.4582 C 30.380382,451.83754 28.607955,454.30864 26.393022,456.37005 L 18.502252,459.56226 C 20.907592,457.71366 22.578812,455.12029 24.487543,452.78833 C 29.313582,446.52123 33.833679,440.02641 38.953278,433.98932 C 42.518873,429.56727 46.435534,425.43898 49.825851,420.87204 C 51.837583,418.92085 53.341912,417.9653 50.769466,415.72492 C 47.396054,413.05458 44.381996,409.97345 41.745074,406.57344 C 37.901109,401.87577 35.087289,396.65007 33.735159,390.68759 L 41.234083,386.70936 z" />
    <path
       style="fill:#000000;fill-opacity:1;stroke:#000000;stroke-width:1;stroke-linecap:round;stroke-linejoin:round;stroke-miterlimit:4;stroke-dasharray:8, 8;stroke-dashoffset:0;stroke-opacity:1"
       id="path2457"
       d="M 885.52511,487.40905 C 893.2599,488.56881 901.08208,489.57766 908.90986,489.21346 C 916.91558,488.42773 924.92317,487.72166 932.96022,487.35717 C 942.07062,486.66698 951.12535,487.99321 960.18395,488.77981 C 970.06904,489.58525 979.98988,489.74789 989.90221,489.86163 C 999.27421,489.93111 1008.6466,489.92124 1018.0188,489.91163 C 1027.1848,489.9039 1036.3509,489.89916 1045.5169,489.89872 C 1054.0814,489.97 1062.5655,488.52041 1071.0862,487.79032 C 1077.7481,487.25264 1084.3999,487.44863 1090.9707,486.14606 C 1095.1319,485.23439 1099.3431,484.5903 1103.5921,484.29621 C 1105.3468,484.20194 1107.1036,484.1038 1108.8615,484.11081 C 1100.739,487.59748 1101.6895,489.60403 1102.0016,485.62424 C 1102.1479,483.75926 1102.0895,481.87764 1102.047,480.00987 C 1101.9424,478.20814 1102.6151,475.97565 1100.5313,475.27489 C 1098.5322,475.17734 1097.0149,474.12164 1095.2307,473.37491 C 1093.225,472.51119 1091.7356,470.90336 1089.7931,469.84548 C 1089.1972,469.51809 1088.5762,469.24584 1087.9318,469.03972 C 1096.4151,463.21552 1094.2912,464.39841 1100.394,465.98363 C 1104.3054,467.67125 1108.3713,468.8947 1112.4056,470.24655 C 1116.848,471.61046 1121.4581,472.2632 1126.0806,472.59198 C 1127.0049,473.4714 1130.5717,471.87143 1131.3847,472.74115 C 1131.6086,472.98067 1131.6166,473.35452 1131.7326,473.6612 C 1130.4758,475.98824 1128.5644,478.26473 1126.7979,480.29533 C 1123.745,483.61152 1120.7955,487.01866 1117.8433,490.42876 C 1115.3159,493.91448 1112.9852,497.52131 1110.3056,500.89736 C 1109.2236,502.24181 1108.1075,503.55818 1106.9669,504.85311 C 1105.191,507.16059 1104.0012,506.00111 1099.0089,507.62423 L 1106.6081,503.74836 C 1098.4342,508.5734 1096.5793,510.20225 1099.071,508.15978 C 1100.262,506.89556 1101.3877,505.57184 1102.4942,504.23329 C 1105.2177,500.87662 1107.6295,497.31633 1110.0341,493.72791 C 1112.9981,490.32605 1115.9084,486.88145 1118.9678,483.5793 C 1120.8292,481.6486 1122.0021,479.22543 1124.095,477.52213 C 1125.1772,478.23208 1119.5725,477.38025 1119.1702,477.53136 C 1114.5084,477.13919 1109.8654,476.41652 1105.3937,475.00174 C 1101.3682,473.64672 1097.3162,472.40151 1093.3807,470.7985 C 1088.0104,469.25917 1087.4486,469.73003 1095.0216,464.22952 C 1095.6747,464.52572 1096.3237,464.83151 1096.9469,465.18809 C 1098.8189,466.27263 1100.3127,467.8666 1102.3274,468.65427 C 1104.0803,469.45672 1105.749,470.1893 1107.6517,470.56916 C 1109.8598,471.85926 1109.6797,473.77559 1109.6334,476.12436 C 1109.7917,484.38256 1111.0262,482.76733 1101.938,489.14282 C 1100.2079,489.15606 1098.4785,489.22938 1096.7523,489.34529 C 1092.5342,489.69449 1088.3566,490.35861 1084.2177,491.24712 C 1077.6367,492.42153 1070.9722,492.20826 1064.3247,492.79277 C 1055.8009,493.54178 1047.3056,494.96404 1038.7314,494.82894 C 1029.565,494.83284 1020.3985,494.83591 1011.2321,494.84307 C 1001.8625,494.8449 992.49258,494.86601 983.12324,494.7747 C 973.19554,494.65564 963.25957,494.46875 953.3605,493.64681 C 944.3183,492.84766 935.27155,491.60864 926.17813,492.33375 C 918.14031,492.72883 910.13442,493.46676 902.12059,494.18448 C 894.23417,494.39979 886.37108,493.42793 878.57605,492.28456 L 885.52511,487.40905 z" />
    <path
       style="fill:#000000;fill-opacity:1;stroke:#000000;stroke-width:1;stroke-linecap:round;stroke-linejoin:round;stroke-miterlimit:4;stroke-dasharray:8, 8;stroke-dashoffset:0;stroke-opacity:1"
       id="path2459"
       d="M 749.22226,720.84649 C 754.37107,715.24187 760.23865,710.4801 766.42983,706.09391 C 774.1383,700.53342 782.42342,695.48181 791.3558,692.16324 C 796.1208,690.3038 800.87737,688.70629 805.90704,687.73459 C 810.01124,687.46306 813.92855,686.63181 817.89765,685.59761 C 822.5481,684.47518 827.35116,684.34886 832.11,684.23372 C 838.74862,684.05695 845.28395,682.68057 851.89748,682.04747 C 859.57617,681.40789 867.28848,681.37006 874.98862,681.32056 C 883.87525,681.29044 892.76193,681.30737 901.64857,681.31084 C 910.41172,681.31879 919.17488,681.31825 927.93803,681.32438 C 937.3061,681.15999 946.61534,681.24818 955.93844,682.17519 C 966.19941,683.29535 976.51295,683.7455 986.8259,684.01303 C 996.77728,684.21325 1006.7312,684.20365 1016.6841,684.20532 C 1024.9241,684.19543 1033.1642,684.18607 1041.4042,684.17526 C 1048.4097,684.17598 1055.4151,684.16937 1062.4206,684.16582 C 1067.2624,684.15726 1072.1044,684.15522 1076.9463,684.15356 C 1081.1638,684.15011 1085.3814,684.15301 1089.5989,684.15625 C 1095.5915,684.33992 1101.4899,684.19213 1107.4182,683.30476 C 1115.1643,682.52529 1122.829,681.31524 1130.5256,680.16023 C 1139.3657,679.34368 1148.1004,677.76231 1156.9221,676.78343 C 1165.3618,676.44521 1173.6516,674.86281 1182.0187,673.85609 C 1188.9454,673.20075 1195.7084,671.51846 1202.6116,670.64195 C 1208.2605,670.4991 1213.7159,669.11589 1219.237,668.07447 C 1223.9643,667.34255 1228.4756,665.7105 1233.1978,664.906 C 1237.934,663.58847 1242.6693,662.45422 1247.3258,660.88315 C 1251.2636,659.7795 1255.0976,658.62617 1258.929,657.17951 C 1262.3496,656.4548 1265.5897,655.29857 1268.9131,654.24199 C 1271.8669,653.03305 1275.1461,653.34176 1278.1249,652.35495 C 1281.5196,651.65752 1291.8398,645.68245 1279.3968,652.58012 C 1282.9728,649.89648 1286.9724,647.77264 1290.8865,645.66058 C 1292.2259,644.93781 1293.5858,644.86703 1294.8897,644.02583 C 1293.5831,644.40578 1299.7491,641.59099 1298.5936,642.30957 C 1285.1842,650.64841 1297.439,642.71492 1302.4371,640.10862 C 1305.4368,638.26067 1310.7174,637.70128 1296.9318,642.90933 C 1296.2137,643.18064 1295.6543,642.0523 1294.9743,641.69581 L 1302.1144,637.04741 C 1308.6524,640.95338 1299.6993,643.12494 1295.8004,645.4411 C 1295.3733,645.66903 1294.1035,646.37299 1294.5192,646.12489 C 1296.4778,644.95588 1302.4306,641.58127 1300.4304,642.67773 C 1296.3209,644.93052 1292.4335,647.32716 1288.2592,649.3753 C 1287.3848,649.78626 1281.3824,652.83279 1284.2613,651.00079 C 1295.6418,643.75866 1289.7196,647.76797 1287.3088,649.47407 C 1281.9841,652.65838 1277.3075,655.90472 1271.3811,657.54331 C 1268.3394,658.25831 1265.145,658.28513 1262.1989,659.45249 C 1258.9012,660.56351 1255.5847,661.48608 1252.2358,662.41911 C 1248.4135,663.84099 1244.5261,664.88656 1240.6343,666.08509 C 1235.9661,667.65457 1231.1819,668.73777 1226.426,670.01218 C 1221.7313,670.89854 1217.2057,672.48413 1212.4759,673.18461 C 1206.9601,674.25372 1201.4785,675.46625 1195.8419,675.69559 C 1188.9574,676.61417 1182.1938,678.26304 1175.2717,678.88533 C 1166.9172,679.93458 1158.6177,681.38814 1150.1919,681.79005 C 1141.3763,682.8079 1132.6323,684.33537 1123.7988,685.20319 C 1116.0956,686.3727 1108.4077,687.51633 1100.6616,688.36398 C 1094.7026,689.20061 1088.7524,689.26246 1082.74,689.13953 C 1078.52,689.14276 1074.3001,689.14564 1070.0801,689.1421 C 1065.2495,689.14034 1060.4188,689.13813 1055.5882,689.12987 C 1048.5878,689.12698 1041.5874,689.12151 1034.587,689.12887 C 1026.3594,689.12736 1018.1318,689.13463 1009.9042,689.13096 C 999.95039,689.12738 989.99563,689.12483 980.04359,688.91316 C 969.71562,688.63172 959.38996,688.14107 949.11296,687.03365 C 939.80293,686.14592 930.4998,686.12905 921.15063,686.25555 C 912.38488,686.25897 903.61913,686.2536 894.85337,686.24702 C 885.96632,686.23639 877.07913,686.22096 868.19215,686.26628 C 860.49934,686.33215 852.79411,686.38415 845.12586,687.0696 C 838.50342,687.73966 831.94891,689.12253 825.28518,689.22212 C 820.54651,689.37852 815.76891,689.55604 811.15579,690.76 C 807.18513,691.76749 803.22086,692.44032 799.14518,692.85276 C 794.16252,693.86857 789.45416,695.57861 784.70663,697.37548 C 781.7732,698.52956 781.80327,698.43844 778.95183,699.88695 C 777.96523,700.38814 775.1454,702.12603 776.02653,701.45656 C 785.67271,694.12757 776.24624,702.31733 774.26564,703.00409 C 768.0835,707.34724 762.13179,711.96269 757.05251,717.6031 L 749.22226,720.84649 z" />
  </g>
</svg>
