<?xml version="1.0" encoding="UTF-8" standalone="no"?>
<!-- Created with Inkscape (http://www.inkscape.org/) -->

<svg
   xmlns:dc="http://purl.org/dc/elements/1.1/"
   xmlns:cc="http://creativecommons.org/ns#"
   xmlns:rdf="http://www.w3.org/1999/02/22-rdf-syntax-ns#"
   xmlns:svg="http://www.w3.org/2000/svg"
   xmlns="http://www.w3.org/2000/svg"
   xmlns:sodipodi="http://sodipodi.sourceforge.net/DTD/sodipodi-0.dtd"
   xmlns:inkscape="http://www.inkscape.org/namespaces/inkscape"
   width="1616.9238"
   height="749.51746"
   id="svg2"
   version="1.1"
   inkscape:version="0.47pre4 r22446"
   sodipodi:docname="c7d1.svg">
  <sodipodi:namedview
     id="base"
     pagecolor="#ffffff"
     bordercolor="#666666"
     borderopacity="1.0"
     inkscape:pageopacity="0.0"
     inkscape:pageshadow="2"
     inkscape:zoom="0.35"
     inkscape:cx="1335.5242"
     inkscape:cy="222.42616"
     inkscape:document-units="px"
     inkscape:current-layer="layer1"
     showgrid="false"
     inkscape:window-width="1280"
     inkscape:window-height="726"
     inkscape:window-x="0"
     inkscape:window-y="25"
     inkscape:window-maximized="1" />
  <defs
     id="defs4">
    <inkscape:perspective
       id="perspective10"
       inkscape:persp3d-origin="372.04724 : 350.78739 : 1"
       inkscape:vp_z="744.09448 : 526.18109 : 1"
       inkscape:vp_y="0 : 1000 : 0"
       inkscape:vp_x="0 : 526.18109 : 1"
       sodipodi:type="inkscape:persp3d" />
    <inkscape:perspective
       id="perspective3034"
       inkscape:persp3d-origin="0.5 : 0.33333333 : 1"
       inkscape:vp_z="1 : 0.5 : 1"
       inkscape:vp_y="0 : 1000 : 0"
       inkscape:vp_x="0 : 0.5 : 1"
       sodipodi:type="inkscape:persp3d" />
  </defs>
  <metadata
     id="metadata7">
    <rdf:RDF>
      <cc:Work
         rdf:about="">
        <dc:format>image/svg+xml</dc:format>
        <dc:type
           rdf:resource="http://purl.org/dc/dcmitype/StillImage" />
        <dc:title />
      </cc:Work>
    </rdf:RDF>
  </metadata>
  <g
     id="layer1"
     inkscape:groupmode="layer"
     inkscape:label="Layer 1"
     transform="translate(960.52424,-5.2708776)">
    <path
       d="m -121.25867,582.03973 c -0.57792,-15.96992 1.47014,-31.75972 4.54927,-47.38695 6.04028,-26.52692 17.876416,-51.08455 30.500764,-75.00185 18.764014,-33.58443 40.032346,-65.674 62.864897,-96.60751 18.1345112,-24.20935 37.783874,-47.2951 59.198447,-68.6752 14.114316,-14.0916 19.38763,-18.26829 34.348186,-31.34807 34.415596,-29.64683 73.615676,-52.37105 114.279246,-72.18361 35.25709,-16.49534 72.35323,-28.36725 109.89566,-38.35835 33.83027,-9.36719 68.75926,-12.49952 103.67114,-14.2754 32.62538,-1.57238 64.94719,2.46401 96.79744,9.15233 29.63558,6.25848 55.39998,17.56145 81.17712,33.1641 13.85537,9.10859 26.8965,19.6272 37.56561,32.39361 6.09411,7.29206 7.51982,9.98466 12.65419,17.86823 12.29793,20.9843 17.80965,44.57965 22.11633,68.2491 3.97645,22.50133 3.60088,45.30054 1.44563,67.94713 -2.68393,23.15833 -10.69813,44.84095 -20.19501,65.94136 -10.07599,20.67975 -23.66639,39.27166 -38.10591,57.06783 -16.3558,18.87762 -34.97074,35.59851 -53.89569,51.83097 -21.44196,18.15325 -43.93581,34.9878 -66.97965,51.03851 -26.01063,18.18975 -53.57807,34.01556 -81.27233,49.46749 -16.63681,8.75413 -33.47906,17.2542 -51.19957,23.63176 -8.2175,2.95745 -15.75719,5.0092 -24.11995,7.43691 -21.70667,5.58061 -44.13516,7.69223 -66.42305,9.47086 -20.59993,1.91506 -41.26297,0.77173 -61.88474,0.0282 -19.15793,-0.55628 -38.27646,-2.10886 -57.34597,-3.98168 -16.12179,-2.05925 -32.208678,-4.44547 -48.239385,-7.12385 -11.331981,-2.13951 -22.826036,-3.03547 -34.205425,-4.8346 -7.822497,-0.98521 -15.643489,-2.16987 -23.247622,-4.29093 -6.146875,-1.71524 -12.01158,-4.33885 -17.7102529,-7.18487 -5.72140831,-2.78263 -11.4491544,-5.56575 -17.0840061,-8.52239 -5.551334,-2.93819 -11.290192,-5.43583 -17.12321,-7.75546 -5.646035,-2.6602 -11.399201,-5.04067 -17.144395,-7.46776 -5.564183,-1.93678 -11.037472,-3.9548 -16.33625,-6.53372 -4.88547,-1.76533 -9.281325,-4.53901 -13.98928,-6.67134 -4.210457,-1.99827 -8.324732,-4.21302 -12.586073,-6.09966 -3.689739,-2.03163 -7.150827,-4.38246 -10.450497,-6.9939 -3.127014,-2.56197 -5.694644,-5.66366 -8.622114,-8.44848 -2.48782,-2.26124 -4.92878,-4.42088 -6.76929,-7.23509 -1.73074,-2.95054 -0.81827,-1.28018 -2.65861,-5.05333 0,0 2.44427,-1.38921 2.44427,-1.38921 l 0,0 c 1.84378,3.74126 0.93009,2.08531 2.66283,5.01022 1.83452,2.78726 4.26375,4.93727 6.73075,7.18254 2.91653,2.78241 5.48295,5.87655 8.607784,8.42683 3.282393,2.5972 6.732762,4.92859 10.41108,6.93506 4.25257,1.90692 8.374074,4.10328 12.583681,6.10409 4.699358,2.15404 9.11302,4.89411 13.991138,6.67878 5.292727,2.57834 10.775319,4.56189 16.322816,6.52424 5.748559,2.416 11.487093,4.82612 17.141631,7.46303 5.835973,2.33247 11.581993,4.83384 17.1376541,7.78069 5.6382415,2.94682 11.3598158,5.73778 17.0811789,8.51738 5.692074,2.82612 11.540433,5.44389 17.677996,7.14154 7.600495,2.09096 15.402947,3.2893 23.214857,4.27503 11.370627,1.80134 22.857312,2.70276 34.178478,4.8564 16.021515,2.6741 32.095666,5.07817 48.209716,7.12214 19.06168,1.87806 38.17401,3.41502 57.32423,3.97642 20.61349,0.74235 41.26793,1.87263 61.85903,-0.0484 22.27306,-1.78822 44.68757,-3.89784 66.37475,-9.50312 8.44775,-2.45586 15.7871,-4.45001 24.09175,-7.44649 17.7037,-6.38785 34.53266,-14.88795 51.15575,-23.64237 26.16506,-14.60391 52.17309,-29.61258 76.73046,-46.82675 23.04466,-16.03626 45.53271,-32.86569 66.97428,-51.00739 18.92046,-16.21797 37.52788,-32.92623 53.89349,-51.77756 14.4439,-17.7765 28.03996,-36.34848 38.1352,-57.00427 9.50029,-21.07446 17.53645,-42.72472 20.2316,-65.86053 2.16543,-22.62351 2.55093,-45.40059 -1.40951,-67.88214 -4.28597,-23.63787 -9.7658,-47.20751 -22.07346,-68.14978 -5.13973,-7.89808 -6.52315,-10.52897 -12.62537,-17.83484 -10.64766,-12.74788 -23.65899,-23.25594 -37.49339,-32.34715 -25.90545,-15.68156 -51.34109,-26.76938 -81.11162,-33.09992 -31.83282,-6.67377 -64.13481,-10.69394 -96.73959,-9.11004 -34.8986,1.78605 -69.8114,4.93752 -103.62641,14.31039 -37.52335,9.99718 -74.60195,21.87012 -109.83614,38.3755 -14.05079,6.85268 -22.27026,10.58731 -35.71717,18.16652 -26.27199,14.80792 -51.027005,32.13975 -74.186061,51.44948 -14.939277,13.04805 -20.267708,17.26812 -34.359625,31.32793 -21.413073,21.36427 -41.0594453,44.43732 -59.1881,68.63563 -22.819624,30.90894 -44.063004,62.9812 -62.812905,96.54178 -12.611191,23.88486 -24.425409,48.41308 -30.470749,74.90172 -3.07584,15.59246 -5.1322,31.35386 -4.47461,47.2896 0,0 -2.51734,1.28264 -2.51734,1.28264 z"
       id="path2820"
       style="color:#000000;fill:none;stroke:#000000;stroke-width:10;stroke-linecap:butt;stroke-linejoin:miter;stroke-miterlimit:4;stroke-opacity:1;stroke-dasharray:none;stroke-dashoffset:0;marker:none;visibility:visible;display:inline;overflow:visible;enable-background:accumulate" />
    <path
       d="m 453.59613,512.83435 c -13.38375,-1.88549 -24.71242,-8.27408 -35.40589,-16.17921 -12.87253,-10.57885 -23.20153,-23.74977 -29.65953,-39.17174 -1.49254,-3.56424 -2.59846,-7.27833 -3.89769,-10.9175 -8.11586,-27.1882 -6.05212,-53.96747 -1.25015,-81.47721 5.31651,-22.82072 14.00333,-44.98292 28.99944,-63.25991 2.63299,-3.20905 5.62706,-6.104 8.44059,-9.15599 13.8862,-11.91894 31.4575,-22.05266 50.46534,-18.45509 3.11173,0.58894 6.05252,1.86704 9.07877,2.80057 23.91367,12.82789 29.81503,29.70928 35.83307,54.80112 4.16756,24.32182 2.484,49.08903 -3.48791,72.96899 -1.24239,4.96794 -2.86302,9.83356 -4.29453,14.75033 -8.59094,22.76749 -18.73211,46.07542 -34.74645,64.769 -2.90971,3.39651 -6.27379,6.37576 -9.41068,9.56364 0,0 -2.47387,1.02666 -2.47387,1.02666 l 0,0 c 3.1437,-3.1776 6.51549,-6.1447 9.43109,-9.5328 16.04695,-18.64751 26.18836,-41.95023 34.80323,-64.68977 1.4336,-4.91022 3.05633,-9.76914 4.30082,-14.73066 5.97944,-23.83877 7.68327,-48.56736 3.5189,-72.85238 -5.99692,-24.98873 -11.86484,-41.82407 -35.72975,-54.53534 -3.01403,-0.91734 -5.94404,-2.1793 -9.04209,-2.75201 -17.21165,-3.18175 -33.18595,4.77579 -45.76361,15.82806 -2.82076,3.04418 -5.82218,5.93042 -8.46228,9.13254 -15.02765,18.2267 -23.73367,40.36049 -29.06796,63.15591 -4.81054,27.4632 -6.88661,54.19024 1.22284,81.33536 1.29693,3.62899 2.40053,7.33301 3.8908,10.88698 6.44912,15.37978 16.76216,28.51104 29.61895,39.04295 10.69151,7.86741 22.02278,14.21707 35.39731,16.01964 0,0 -2.30876,1.62786 -2.30876,1.62786 z"
       id="path2822"
       style="color:#000000;fill:none;stroke:#000000;stroke-width:10;stroke-linecap:butt;stroke-linejoin:miter;stroke-miterlimit:4;stroke-opacity:1;stroke-dasharray:none;stroke-dashoffset:0;marker:none;visibility:visible;display:inline;overflow:visible;enable-background:accumulate" />
    <path
       d="m 124.97878,573.21469 c -11.52299,7.6192 -24.42943,6.3085 -37.289792,3.49349 C 69.148289,570.58489 53.480067,558.8365 39.35285,545.68521 26.794318,532.6886 17.535604,516.86942 13.338168,499.21016 c -0.881053,-3.70672 -1.329185,-7.50317 -1.993778,-11.25475 -1.5865658,-20.80238 2.441656,-41.71552 12.132523,-60.26132 2.07544,-3.97185 4.607607,-7.68779 6.911411,-11.53169 13.225448,-19.23081 30.973298,-35.01147 52.637145,-44.16748 3.747603,-1.58389 7.771117,-2.41303 11.656676,-3.61954 18.592055,-3.27506 36.471395,-0.40137 50.660805,12.9576 2.63294,2.47884 4.73868,5.46379 7.10802,8.19568 14.53777,22.13504 15.01098,43.34496 12.47007,68.82166 -3.33273,21.5757 -10.66043,42.3278 -22.39352,60.79008 -2.22214,3.49658 -4.7529,6.78719 -7.12935,10.18078 -10.03011,11.56357 -4.79111,6.17153 -15.65835,16.23288 0,0 -2.50937,1.0277 -2.50937,1.0277 l 0,0 c 10.89459,-10.02891 5.64201,-4.65204 15.69924,-16.18755 2.38151,-3.38718 4.91765,-6.67076 7.14451,-10.16155 11.75103,-18.42075 19.09266,-39.13941 22.44083,-60.68651 2.5525,-25.39714 2.11354,-46.54804 -12.38717,-68.61627 -2.36078,-2.71532 -4.45911,-5.68326 -7.08234,-8.14597 -14.15926,-13.29283 -31.9851,-16.07787 -50.4945,-12.75938 -3.874163,1.21643 -7.839893,2.17253 -11.622489,3.64928 -20.154849,7.86861 -35.772936,24.20585 -48.091698,41.40349 -2.306932,3.83372 -4.842033,7.53908 -6.920796,11.50116 -9.699605,18.48724 -13.746271,39.35091 -12.183266,60.10688 0.660325,3.74186 1.103721,7.52856 1.980977,11.22558 4.179745,17.6147 13.420269,33.38946 25.949775,46.34674 14.112586,13.10991 29.757045,24.83691 48.288303,30.8792 10.691104,2.29776 22.094614,3.98911 32.396804,-0.89307 0,0 2.63015,-1.0291 2.63015,-1.0291 z"
       id="path2824"
       style="color:#000000;fill:none;stroke:#000000;stroke-width:10;stroke-linecap:butt;stroke-linejoin:miter;stroke-miterlimit:4;stroke-opacity:1;stroke-dasharray:none;stroke-dashoffset:0;marker:none;visibility:visible;display:inline;overflow:visible;enable-background:accumulate" />
    <path
       d="m 393.55021,90.357542 c -8.51073,5.923999 -16.52566,12.564068 -24.30634,19.409488 -8.95895,7.2823 -16.76155,15.77494 -23.85741,24.84621 -5.45411,6.40536 -9.44429,13.55294 -11.71459,21.62527 -1.10191,3.79934 -1.40897,7.11083 2.03293,9.5341 6.1797,3.23763 13.08304,3.94187 19.81893,5.25361 8.75486,1.88095 17.61275,3.41577 26.31679,5.52216 4.1892,1.26302 10.70618,1.45928 12.36937,6.28565 -0.0103,2.45518 -1.32783,4.12672 -2.74536,5.98016 0,0 -2.59543,1.11222 -2.59543,1.11222 l 0,0 c 1.40757,-1.75914 2.73572,-3.36361 2.85629,-5.72384 -1.51375,-4.69083 -8.24418,-4.79209 -12.19274,-6.0594 -8.70454,-2.08819 -17.5476,-3.66165 -26.30407,-5.51563 -6.77474,-1.30614 -13.72166,-2.03391 -19.91347,-5.33681 -3.48232,-2.55653 -3.35342,-5.88947 -2.18801,-9.84198 2.2634,-8.10933 6.21169,-15.30953 11.70044,-21.73863 7.08201,-9.0921 14.8781,-17.60732 23.84251,-24.89588 7.75801,-6.85413 15.77399,-13.475365 24.25001,-19.427595 0,0 2.63015,-1.029103 2.63015,-1.029103 z"
       id="path2826"
       style="color:#000000;fill:none;stroke:#000000;stroke-width:10;stroke-linecap:butt;stroke-linejoin:miter;stroke-miterlimit:4;stroke-opacity:1;stroke-dasharray:none;stroke-dashoffset:0;marker:none;visibility:visible;display:inline;overflow:visible;enable-background:accumulate" />
    <path
       d="m 354.68958,416.90818 c 6.52981,-6.62477 13.30938,-13.00731 19.56786,-19.89159 6.05809,-6.22573 10.71894,-13.60207 16.48483,-20.06153 3.89529,-4.9554 7.71465,-8.51213 13.26683,-11.41024 4.5753,0.72393 5.21891,8.32247 6.08906,11.98624 1.64883,7.67007 2.10408,15.52312 2.45198,23.33992 -0.31389,3.75676 -0.0793,1.97154 -0.66108,5.3611 0,0 -2.53861,1.23833 -2.53861,1.23833 l 0,0 c 0.60453,-3.35964 0.35795,-1.59111 0.69819,-5.31122 -0.32693,-7.80208 -0.77773,-15.64011 -2.42196,-23.29521 -0.74502,-3.12346 -1.67317,-11.40593 -5.84491,-11.55958 0.38213,-0.2816 1.59716,-0.9936 1.1464,-0.84481 -4.09203,1.35076 -6.40673,6.8902 -9.5977,9.40706 -5.80759,6.43027 -10.43297,13.84323 -16.49948,20.06917 -6.23488,6.89468 -13.02318,13.25694 -19.5315,19.8913 0,0 -2.60991,1.08106 -2.60991,1.08106 z"
       id="path2832"
       style="color:#000000;fill:none;stroke:#000000;stroke-width:10;stroke-linecap:butt;stroke-linejoin:miter;stroke-miterlimit:4;stroke-opacity:1;stroke-dasharray:none;stroke-dashoffset:0;marker:none;visibility:visible;display:inline;overflow:visible;enable-background:accumulate" />
    <path
       d="m 150.82489,450.85632 c 3.57257,6.33065 7.21488,12.62967 10.97341,18.85274 2.35246,3.80837 4.05116,7.85507 4.87683,12.24652 0.0607,3.32058 0.7598,6.41823 1.63937,9.59944 1.32622,3.66003 3.39606,4.32743 7.00714,3.99876 4.4896,-1.64838 4.18168,-2.11636 7.88474,-4.53385 3.68856,-2.82765 7.44711,-5.55101 11.03058,-8.51439 1.44773,-1.22174 2.89329,-2.44756 4.29215,-3.72541 0.043,-0.0399 0.086,-0.0797 0.12894,-0.11955 0,0 2.64074,-1.08456 2.64074,-1.08456 l 0,0 c -0.043,0.0411 -0.0861,0.0823 -0.12912,0.12346 -1.39878,1.29188 -2.8594,2.51528 -4.3097,3.74824 -3.58235,2.9721 -7.34592,5.69405 -11.02035,8.54582 -4.11663,2.64904 -8.04537,5.80624 -12.79831,7.24586 -3.71028,0.27519 -5.86344,-0.64109 -7.21584,-4.33036 -0.88212,-3.18914 -1.62291,-6.28673 -1.65309,-9.61992 -0.79728,-4.36469 -2.47651,-8.38448 -4.80939,-12.16776 -3.75705,-6.23289 -7.38236,-12.54904 -10.99444,-18.86644 0,0 2.45634,-1.3986 2.45634,-1.3986 z"
       id="path2838"
       style="color:#000000;fill:none;stroke:#000000;stroke-width:10;stroke-linecap:butt;stroke-linejoin:miter;stroke-miterlimit:4;stroke-opacity:1;stroke-dasharray:none;stroke-dashoffset:0;marker:none;visibility:visible;display:inline;overflow:visible;enable-background:accumulate" />
    <g
       id="g2862"
       transform="matrix(2.8195285,0,0,2.8195285,-590.94959,-937.26866)">
      <g
         word-spacing="normal"
         letter-spacing="normal"
         font-size-adjust="none"
         font-stretch="normal"
         font-weight="normal"
         font-variant="normal"
         font-style="normal"
         fill-rule="even-odd"
         stroke-miterlimit="10.433"
         xml:space="preserve"
         transform="matrix(1.0629921,0,0,-1.0629921,-186.02362,789.27165)"
         id="content"
         style="font-style:normal;font-variant:normal;font-weight:normal;font-stretch:normal;letter-spacing:normal;word-spacing:normal;text-anchor:start;fill:none;stroke:#000000;stroke-linecap:butt;stroke-linejoin:miter;stroke-miterlimit:10.43299961;stroke-opacity:1;stroke-dasharray:none;stroke-dashoffset:0"><path
           id="path2865"
           d="m 458.04,418.65 0.1,0.27 0.09,0.25 0.11,0.25 0.11,0.24 0.11,0.23 0.11,0.23 0.12,0.22 0.13,0.21 0.13,0.2 0.13,0.19 0.13,0.19 0.14,0.18 0.28,0.35 0.29,0.31 0.3,0.29 0.31,0.27 0.31,0.25 0.32,0.22 0.31,0.2 0.32,0.18 0.32,0.17 0.31,0.14 0.32,0.13 0.3,0.11 0.3,0.1 0.29,0.08 0.28,0.07 0.26,0.06 0.26,0.05 0.24,0.04 0.22,0.03 0.2,0.03 0.19,0.02 0.16,0.01 0.15,0 0.11,0.01 0.1,0 0.06,0 c 7.52,0 8.07,-8.72 8.07,-12.65 0,-3.04 -0.24,-3.89 -0.6,-4.88 -1.09,-3.64 -2.59,-9.42 -2.59,-10.71 0,-0.55 0.25,-0.9 0.65,-0.9 0.65,0 1.05,1.1 1.6,2.99 1.14,4.18 1.64,7.02 1.84,8.57 0.1,0.65 0.2,1.29 0.4,1.94 1.59,4.93 4.78,12.35 6.77,16.29 0.35,0.6 0.95,1.69 0.95,1.89 0,0.5 -0.5,0.5 -0.6,0.5 -0.15,0 -0.45,0 -0.6,-0.35 -2.59,-4.73 -4.58,-9.71 -6.57,-14.74 -0.05,1.54 -0.1,5.33 -2.05,10.16 -1.19,3.04 -3.18,5.48 -6.62,5.48 -6.23,0 -9.71,-7.57 -9.71,-9.12 0,-0.5 0.44,-0.5 0.94,-0.5 z"
           style="fill:#000000;stroke-width:0" /><path
           id="path2867"
           d="m 492.68,421.18 0,0.04 0,0.04 0,0.04 0,0.04 0,0.04 0,0.04 0,0.03 0,0.04 -0.01,0.03 0,0.03 0,0.04 0,0.03 -0.01,0.02 0,0.03 0,0.03 -0.01,0.03 0,0.02 0,0.02 -0.02,0.05 -0.01,0.04 -0.01,0.04 -0.02,0.03 -0.02,0.03 -0.02,0.03 -0.03,0.03 -0.02,0.02 -0.03,0.02 -0.04,0.02 -0.03,0.01 -0.04,0.01 -0.05,0.02 -0.05,0 -0.02,0.01 -0.03,0 -0.03,0.01 -0.02,0 -0.03,0 -0.03,0 -0.04,0 -0.03,0.01 -0.03,0 -0.04,0 -0.03,0 -0.04,0 -0.04,0 -0.04,0 -0.04,0 -0.04,0 -0.05,0 -0.04,0 c -2.24,-2.19 -5.41,-2.23 -6.84,-2.23 v -1.25 c 0.84,0 3.14,0 5.06,0.97 v -17.78 c 0,-1.15 0,-1.61 -3.49,-1.61 h -1.33 V 399 h 12.45 v 1.25 h -1.32 c -3.49,0 -3.49,0.46 -3.49,1.61 z"
           style="fill:#000000;stroke-width:0" /></g>    </g>
    <g
       id="g2911"
       transform="matrix(2.3268006,0,0,2.3268006,-420.11287,-515.41186)">
      <g
         id="g2913"
         transform="matrix(1.0629921,0,0,-1.0629921,-186.02362,789.27165)"
         xml:space="preserve"
         stroke-miterlimit="10.433"
         fill-rule="even-odd"
         font-style="normal"
         font-variant="normal"
         font-weight="normal"
         font-stretch="normal"
         font-size-adjust="none"
         letter-spacing="normal"
         word-spacing="normal"
         style="font-style:normal;font-variant:normal;font-weight:normal;font-stretch:normal;letter-spacing:normal;word-spacing:normal;text-anchor:start;fill:none;stroke:#000000;stroke-linecap:butt;stroke-linejoin:miter;stroke-miterlimit:10.43299961;stroke-opacity:1;stroke-dasharray:none;stroke-dashoffset:0"><path
           d="m 458.04,418.65 0.1,0.27 0.09,0.25 0.11,0.25 0.11,0.24 0.11,0.23 0.11,0.23 0.12,0.22 0.13,0.21 0.13,0.2 0.13,0.19 0.13,0.19 0.14,0.18 0.28,0.35 0.29,0.31 0.3,0.29 0.31,0.27 0.31,0.25 0.32,0.22 0.31,0.2 0.32,0.18 0.32,0.17 0.31,0.14 0.32,0.13 0.3,0.11 0.3,0.1 0.29,0.08 0.28,0.07 0.26,0.06 0.26,0.05 0.24,0.04 0.22,0.03 0.2,0.03 0.19,0.02 0.16,0.01 0.15,0 0.11,0.01 0.1,0 0.06,0 c 7.52,0 8.07,-8.72 8.07,-12.65 0,-3.04 -0.24,-3.89 -0.6,-4.88 -1.09,-3.64 -2.59,-9.42 -2.59,-10.71 0,-0.55 0.25,-0.9 0.65,-0.9 0.65,0 1.05,1.1 1.6,2.99 1.14,4.18 1.64,7.02 1.84,8.57 0.1,0.65 0.2,1.29 0.4,1.94 1.59,4.93 4.78,12.35 6.77,16.29 0.35,0.6 0.95,1.69 0.95,1.89 0,0.5 -0.5,0.5 -0.6,0.5 -0.15,0 -0.45,0 -0.6,-0.35 -2.59,-4.73 -4.58,-9.71 -6.57,-14.74 -0.05,1.54 -0.1,5.33 -2.05,10.16 -1.19,3.04 -3.18,5.48 -6.62,5.48 -6.23,0 -9.71,-7.57 -9.71,-9.12 0,-0.5 0.44,-0.5 0.94,-0.5 z"
           id="path2915"
           style="fill:#000000;stroke-width:0" /><path
           d="m 498.61,405.35 h -1.19 c -0.1,-0.77 -0.45,-2.83 -0.9,-3.18 -0.28,-0.21 -2.97,-0.21 -3.45,-0.21 h -6.42 c 3.66,3.25 4.88,4.22 6.97,5.86 2.58,2.06 4.99,4.22 4.99,7.54 0,4.21 -3.7,6.79 -8.16,6.79 -4.33,0 -7.25,-3.03 -7.25,-6.24 0,-1.78 1.5,-1.95 1.84,-1.95 0.84,0 1.85,0.59 1.85,1.85 0,0.62 -0.24,1.85 -2.05,1.85 1.08,2.47 3.45,3.24 5.09,3.24 3.48,0 5.3,-2.72 5.3,-5.54 0,-3.04 -2.16,-5.45 -3.28,-6.7 l -8.4,-8.3 c -0.35,-0.31 -0.35,-0.38 -0.35,-1.36 h 14.36 z"
           id="path2917"
           style="fill:#000000;stroke-width:0" /></g>    </g>
    <g
       id="g2969"
       transform="matrix(2.2793102,0,0,2.2793102,-531.92627,-242.39344)">
      <g
         word-spacing="normal"
         letter-spacing="normal"
         font-size-adjust="none"
         font-stretch="normal"
         font-weight="normal"
         font-variant="normal"
         font-style="normal"
         fill-rule="even-odd"
         stroke-miterlimit="10.433"
         xml:space="preserve"
         transform="matrix(1.0629921,0,0,-1.0629921,-186.02362,789.27165)"
         id="g2971"
         style="font-style:normal;font-variant:normal;font-weight:normal;font-stretch:normal;letter-spacing:normal;word-spacing:normal;text-anchor:start;fill:none;stroke:#000000;stroke-linecap:butt;stroke-linejoin:miter;stroke-miterlimit:10.43299961;stroke-opacity:1;stroke-dasharray:none;stroke-dashoffset:0"><path
           id="path2973"
           d="m 458.04,418.65 0.1,0.27 0.09,0.25 0.11,0.25 0.11,0.24 0.11,0.23 0.11,0.23 0.12,0.22 0.13,0.21 0.13,0.2 0.13,0.19 0.13,0.19 0.14,0.18 0.28,0.35 0.29,0.31 0.3,0.29 0.31,0.27 0.31,0.25 0.32,0.22 0.31,0.2 0.32,0.18 0.32,0.17 0.31,0.14 0.32,0.13 0.3,0.11 0.3,0.1 0.29,0.08 0.28,0.07 0.26,0.06 0.26,0.05 0.24,0.04 0.22,0.03 0.2,0.03 0.19,0.02 0.16,0.01 0.15,0 0.11,0.01 0.1,0 0.06,0 c 7.52,0 8.07,-8.72 8.07,-12.65 0,-3.04 -0.24,-3.89 -0.6,-4.88 -1.09,-3.64 -2.59,-9.42 -2.59,-10.71 0,-0.55 0.25,-0.9 0.65,-0.9 0.65,0 1.05,1.1 1.6,2.99 1.14,4.18 1.64,7.02 1.84,8.57 0.1,0.65 0.2,1.29 0.4,1.94 1.59,4.93 4.78,12.35 6.77,16.29 0.35,0.6 0.95,1.69 0.95,1.89 0,0.5 -0.5,0.5 -0.6,0.5 -0.15,0 -0.45,0 -0.6,-0.35 -2.59,-4.73 -4.58,-9.71 -6.57,-14.74 -0.05,1.54 -0.1,5.33 -2.05,10.16 -1.19,3.04 -3.18,5.48 -6.62,5.48 -6.23,0 -9.71,-7.57 -9.71,-9.12 0,-0.5 0.44,-0.5 0.94,-0.5 z"
           style="fill:#000000;stroke-width:0" /><path
           id="path2975"
           d="m 490.52,410.64 0.25,0 0.25,-0.02 0.24,-0.02 0.24,-0.04 0.23,-0.05 0.23,-0.06 0.22,-0.07 0.22,-0.09 0.21,-0.09 0.2,-0.11 0.19,-0.11 0.19,-0.13 0.18,-0.13 0.18,-0.15 0.17,-0.16 0.15,-0.17 0.16,-0.18 0.14,-0.2 0.13,-0.2 0.13,-0.21 0.12,-0.23 0.11,-0.23 0.09,-0.25 0.09,-0.26 0.08,-0.27 0.07,-0.28 0.06,-0.29 0.05,-0.3 0.04,-0.31 0.03,-0.32 0.02,-0.33 0,-0.35 c 0,-4.32 -2.51,-5.61 -4.53,-5.61 -1.39,0 -4.46,0.38 -5.93,2.44 1.64,0.07 2.02,1.22 2.02,1.95 0,1.12 -0.83,1.92 -1.91,1.92 -0.98,0 -1.96,-0.59 -1.96,-2.02 0,-3.28 3.63,-5.41 7.85,-5.41 4.84,0 8.19,3.25 8.19,6.73 0,2.72 -2.23,5.44 -6.06,6.24 3.66,1.33 4.98,3.94 4.98,6.07 0,2.76 -3.17,4.81 -7.04,4.81 -3.87,0 -6.84,-1.88 -6.84,-4.67 0,-1.18 0.77,-1.85 1.82,-1.85 1.08,0 1.77,0.8 1.77,1.78 0,1.01 -0.69,1.75 -1.77,1.81 1.22,1.54 3.62,1.92 4.92,1.92 1.56,0 3.76,-0.76 3.76,-3.8 0,-1.46 -0.49,-3.07 -1.39,-4.15 -1.16,-1.32 -2.13,-1.39 -3.87,-1.5 -0.88,-0.07 -0.95,-0.07 -1.12,-0.1 -0.07,0 -0.35,-0.07 -0.35,-0.46 0,-0.49 0.31,-0.49 0.91,-0.49 z"
           style="fill:#000000;stroke-width:0" /></g>    </g>
    <path
       style="color:#000000;fill:none;stroke:#000000;stroke-width:10;stroke-linecap:butt;stroke-linejoin:miter;stroke-miterlimit:4;stroke-opacity:1;stroke-dasharray:none;stroke-dashoffset:0;marker:none;visibility:visible;display:inline;overflow:visible;enable-background:accumulate"
       id="path3099"
       d="m -955.52424,416.03657 c 2.45578,-9.9146 6.6956,-19.23951 10.64929,-28.61641 6.52853,-14.5873 14.94904,-28.17701 23.1822,-41.83669 12.1922,-19.48488 25.68239,-38.05862 39.46859,-56.43067 17.0297,-23.02611 35.49248,-44.9168 54.63407,-66.20032 20.52801,-22.89138 43.71162,-42.95624 67.70001,-62.08078 24.05345,-18.69502 49.33259,-35.67576 74.97946,-52.07821 24.45838,-15.7146 50.26327,-29.11014 76.56632,-41.41799 21.60988,-10.03666 43.64043,-19.09678 66.4636,-25.96803 19.37863,-5.52117 39.00167,-10.15893 59.13549,-11.55245 15.43485,-0.83706 30.7205,1.25232 45.60018,5.21341 12.44868,3.518 23.99026,9.30938 35.36754,15.33502 9.96781,5.09107 18.82537,11.87893 27.1545,19.29227 8.25813,7.28113 15.16873,15.85162 22.68533,23.84217 7.54678,7.43417 13.40506,16.13032 18.21906,25.51657 4.96157,8.82334 6.9241,18.80568 9.5769,28.46071 2.56161,9.83091 4.24378,19.86306 6.46977,29.76811 1.79406,8.62066 4.31176,17.10423 7.36963,25.35922 2.73176,7.27268 3.99685,14.95039 5.61806,22.51574 1.5637,6.86658 2.03252,13.88252 2.30686,20.89659 0.18864,6.26005 0.17079,12.52376 0.16345,18.7859 -0.0572,5.66644 -0.2649,11.27501 0.77783,16.86217 0.83099,3.71239 1.51285,7.44284 1.8671,11.23096 0.26636,4.06527 1.21694,3.08099 -3.21189,5.32896 -3.05985,0.29436 -6.14878,0.161 -9.21909,0.12893 -5.00041,-0.051 -10.00111,-0.0621 -15.00174,-0.0711 -7.20731,1.16505 -14.36113,3.01274 -21.46668,4.76718 -7.88902,2.28174 -15.89939,4.01232 -23.87935,5.917 -6.8189,1.3386 -13.39591,3.59155 -20.18325,5.0528 -4.84758,1.23515 -9.95074,0.72848 -14.80207,1.76818 -3.25957,1.19028 -5.53761,2.04024 -8.52163,0.0189 -2.38531,-3.0211 -3.55172,-6.87012 -5.10732,-10.3657 -1.81479,-4.82312 -4.49965,-9.24067 -7.14541,-13.64007 -2.69752,-4.58947 -5.42927,-9.22459 -8.50292,-13.57805 -3.10364,-4.22544 -6.95068,-7.60426 -11.36302,-10.38618 -4.27932,-2.82989 -8.77759,-4.75642 -13.78607,-5.80553 -4.90117,-1.46102 -9.8321,-2.6956 -14.91308,-3.29656 -5.46356,-0.74665 -10.75606,-0.37816 -16.02862,1.17971 -2.81272,1.37617 -5.86008,2.37045 -8.50172,4.08846 -1.07886,0.70164 -3.86707,3.73629 -4.88627,4.70839 -5.67556,6.19521 -10.65557,12.89228 -14.89756,20.13428 -5.18116,8.56745 -9.02891,17.7589 -12.6502,27.06111 -3.10393,7.95224 -5.77218,16.0323 -8.2977,24.18338 -1.6651,4.88253 -2.58579,9.94547 -3.03365,15.07068 -0.60399,2.86457 0.49561,6.1064 -0.47996,8.86789 -2.83765,2.76639 -6.18452,2.83603 -9.80887,2.89776 -4.27783,-0.39369 -8.34124,0.45397 -12.50712,1.26525 -6.30247,1.62627 -12.5207,3.62529 -18.63425,5.85912 -6.04182,2.64318 -11.78326,5.88925 -17.68266,8.82065 -5.69338,2.95704 -11.37206,5.95482 -17.15542,8.73453 -0.9506,0.49857 -1.89229,1.01454 -2.85181,1.49573 -5.73849,2.87783 0.11428,-0.0395 -7.75247,4.2358 -0.80365,0.43677 -3.42036,1.60137 -2.04959,0.98949 -4.19586,1.86988 -8.08979,5.1913 -12.5865,6.35513 -3.00999,0.42002 -5.01807,-2.09158 -6.70152,-4.22321 -2.5582,-3.67143 -4.63583,-7.60503 -7.27405,-11.23792 -3.12346,-4.06289 -7.42851,-7.00419 -11.29965,-10.30873 -4.05749,-2.88086 -7.66453,-6.31225 -11.61807,-9.32481 -3.34186,-2.58015 -6.70033,-5.06026 -10.55479,-6.81812 -3.55864,-0.96912 -6.94735,-2.4349 -10.50834,-3.39982 -3.69091,-0.84846 -7.47754,-0.98918 -11.24721,-1.0814 -3.94151,-0.4577 -7.62945,0.85859 -11.41098,1.72206 -3.21895,0.81968 -6.44403,2.05775 -9.42264,3.55267 -1.72917,0.51559 -4.52253,2.90982 -7.6819,5.3281 -3.52231,2.88848 -7.30155,5.44437 -10.69826,8.48321 -3.45189,3.55621 -6.53591,7.51383 -9.17541,11.71301 -3.15823,4.77943 -5.29876,10.14335 -7.34584,15.47027 -1.28423,4.70498 -2.78368,9.36214 -3.92714,14.10846 -1.01746,4.91001 -1.08873,9.94365 -1.17927,14.93733 0.23483,4.37658 -0.56091,8.89782 0.31026,13.21511 0.751,3.68785 2.28493,6.92093 4.71048,9.78273 3.25894,4.61993 3.89501,4.18031 -1.9824,6.99629 -3.81151,1.2633 -7.48428,2.76833 -11.08562,4.5427 -5.15166,1.91792 -9.51478,5.1421 -14.07087,8.12031 -7.03919,4.17396 -13.47443,9.20229 -19.65293,14.54166 -7.6332,6.22238 -15.2431,12.48789 -22.57572,19.06197 -8.15403,7.61324 -17.10725,14.22042 -26.31496,20.48402 -9.30831,6.79702 -20.07815,10.75157 -30.42282,15.55356 -6.75964,3.02637 -13.70083,5.60192 -20.37089,8.82968 -5.20088,2.27742 -7.23903,4.01445 -12.17022,6.82543 -3.23289,1.47452 -6.70144,1.85312 -9.94762,3.24615 -3.19298,1.73952 -5.15073,-0.68489 -6.76183,-3.16417 -2.30796,-4.46798 -2.91922,-9.54992 -4.13612,-14.38443 -1.44428,-5.61772 -1.90801,-11.39899 -2.18394,-17.17135 -0.35281,-6.82764 -0.25385,-13.5894 0.63359,-20.3644 1.07771,-7.62614 1.49052,-15.29414 2.69518,-22.90257 1.3657,-7.36165 1.42995,-14.8714 2.40971,-22.27196 1.1329,-5.83215 1.96323,-11.69689 2.38187,-17.62208 0.86059,-4.41057 1.69923,-8.83079 3.44719,-12.9837 1.39415,-3.1782 1.99115,-6.59061 2.38561,-10.01368 -0.004,-4.45951 1.51695,-8.61622 3.07028,-12.7368 0,0 2.54856,-1.18467 2.54856,-1.18467 l 0,0 c -1.54903,4.09318 -3.09237,8.22815 -3.07421,12.66138 -0.39494,3.44461 -0.96858,6.88601 -2.3574,10.09075 -1.77633,4.12398 -2.6034,8.51654 -3.49866,12.90413 -0.41127,5.9328 -1.22638,11.80746 -2.38377,17.64283 -0.99883,7.4005 -1.04598,14.91519 -2.40984,22.27978 -1.21445,7.60545 -1.62629,15.26869 -2.69541,22.89431 -0.89455,6.75859 -1.00974,13.50222 -0.64718,20.3151 0.26938,5.75488 0.72112,11.51995 2.15798,17.12145 1.21118,4.8031 1.82204,9.85283 4.10302,14.29562 1.61903,2.47153 3.42283,4.55011 6.54167,2.83565 3.23945,-1.37243 6.74378,-1.69514 9.92292,-3.2644 -0.19743,0.12907 -0.78865,0.5179 -0.59228,0.38722 0.60151,-0.4003 1.19276,-0.81676 1.80772,-1.19608 2.70925,-1.67109 5.60566,-3.49444 8.48942,-4.91823 0.80457,-0.39724 1.64437,-0.71875 2.46655,-1.07812 6.67116,-3.20538 13.60786,-5.77471 20.35419,-8.81074 8.67828,-4.00598 17.79389,-7.2078 25.64561,-12.79923 9.21262,-6.24926 18.1745,-12.83973 26.32766,-20.44852 7.31369,-6.58702 14.92669,-12.84405 22.55795,-19.0603 6.1687,-5.35009 12.5876,-10.40385 19.63043,-14.57313 6.07844,-3.98701 12.14364,-8.13499 18.89668,-10.90535 3.60961,-1.76703 7.30334,-3.25323 11.11939,-4.51618 -0.28068,0.30394 -0.6257,0.55917 -0.84203,0.91182 -0.22233,0.36242 0.65008,-0.77854 0.49641,-1.17498 -0.50381,-1.29972 -1.66205,-2.3455 -2.3421,-3.53619 -2.44168,-2.90589 -4.0123,-6.17451 -4.77993,-9.90562 -0.90752,-4.33313 -0.088,-8.87853 -0.32734,-13.27651 0.086,-5.01013 0.15042,-10.05935 1.14665,-14.98964 1.13145,-4.76092 2.6619,-9.41947 3.91589,-14.14432 2.04834,-5.33749 4.17251,-10.72332 7.32344,-15.51925 2.61618,-4.2296 5.71947,-8.18293 9.13982,-11.78314 3.36575,-3.07994 7.17726,-5.59867 10.69053,-8.50485 3.95389,-3.03882 7.86554,-6.209 12.52202,-8.14441 3.01491,-1.44778 6.21075,-2.72675 9.46033,-3.49952 3.79046,-0.88252 7.50259,-2.12156 11.45411,-1.66515 3.78487,0.10064 7.58675,0.25791 11.28693,1.13735 3.56345,0.98966 6.97848,2.42271 10.53302,3.43892 3.8571,1.78789 7.23098,4.28531 10.58823,6.87131 3.94499,3.02846 7.56336,6.45228 11.61765,9.34272 3.89319,3.31259 8.20907,6.27572 11.33907,10.36323 2.63126,3.6327 4.71484,7.55882 7.27603,11.22257 1.65021,2.07145 3.57512,4.48047 6.51635,3.94727 2.81649,-0.84393 5.45369,-2.55084 8.0831,-3.86853 0.13739,-0.0689 -0.25454,0.17227 -0.38181,0.25841 5.76475,-3.35778 11.53893,-6.42078 17.49051,-9.49171 5.77483,-2.79651 11.4598,-5.77906 17.15262,-8.73699 5.89276,-2.94826 11.64441,-6.18204 17.70173,-8.79471 6.13128,-2.21101 12.34717,-4.24317 18.66994,-5.83136 4.1746,-0.81838 8.26121,-1.59237 12.54429,-1.23188 1.45645,-0.0332 2.92796,-0.0303 4.36941,-0.27667 0.41249,-0.0705 1.36812,-0.66142 1.22656,-0.26762 -0.20384,0.56705 -1.01879,0.647 -1.49545,1.01565 -0.25747,0.19912 0.55703,-0.33686 0.83555,-0.50529 1.2073,-2.60414 -0.16316,-6.02452 0.52819,-8.79723 0.44817,-5.14618 1.34931,-10.23591 3.03155,-15.1365 2.52632,-8.16013 5.19307,-16.24849 8.30326,-24.20782 3.61981,-9.31128 7.44908,-18.51913 12.62626,-27.09852 4.22676,-7.26436 9.20099,-13.96696 14.85143,-20.19947 5.2821,-5.08348 11.30423,-9.05267 18.22178,-11.58798 5.30342,-1.50496 10.62346,-1.85167 16.10113,-1.09241 5.08362,0.62195 10.01247,1.88405 14.92562,3.31871 5.02341,1.08344 9.54607,3.04416 13.84056,5.88959 4.43127,2.81796 8.30314,6.22059 11.42269,10.47942 3.07149,4.36379 5.81425,8.99835 8.51139,13.59669 2.65508,4.40708 5.34314,8.83581 7.16796,13.66692 1.53986,3.44232 2.68107,7.24988 5.03549,10.22288 2.90884,1.91005 5.24677,0.84717 8.38689,-0.19774 4.86713,-0.94314 9.94153,-0.54275 14.7882,-1.76208 6.77646,-1.4818 13.35696,-3.70971 20.16976,-5.04936 7.98572,-1.88427 15.98234,-3.66506 23.8784,-5.91914 7.12211,-1.74452 14.28276,-3.65046 21.52087,-4.72239 5.00415,0.008 10.00836,0.0189 15.01232,0.0663 3.05965,0.0291 6.14633,0.17937 9.18955,-0.18794 -2.5597,2.38817 -1.06447,0.0953 -1.5672,-2.29665 -0.34064,-3.78264 -1.01276,-7.50828 -1.8423,-11.21421 -1.04947,-5.60481 -0.86988,-11.22498 -0.79749,-16.9111 0.009,-6.25987 0.0301,-12.52124 -0.15192,-18.77918 -0.26738,-6.99947 -0.72982,-14.00162 -2.28091,-20.85553 -1.61722,-7.55306 -2.87504,-15.21961 -5.59504,-22.48237 -3.06267,-8.26693 -5.58288,-16.76329 -7.37924,-25.3966 -2.22542,-9.90123 -3.89998,-19.931 -6.45982,-29.75856 -2.6476,-9.63661 -4.60468,-19.60055 -9.5497,-28.41022 -4.79838,-9.36514 -10.64602,-18.03696 -18.17528,-25.4515 -7.50686,-7.98863 -14.41665,-16.54862 -22.67152,-23.82143 -8.32068,-7.39111 -17.16143,-14.16188 -27.11257,-19.23991 -11.36094,-6.01377 -22.88649,-11.79293 -35.32062,-15.29067 -14.85881,-3.93615 -30.12246,-6.005 -45.52959,-5.15238 -20.11144,1.42441 -39.7165,6.05065 -59.0729,11.58134 -22.80355,6.89126 -44.82146,15.94653 -66.41808,25.98193 -24.70349,11.56692 -49.05369,23.95807 -71.99304,38.7857 -25.64807,16.39758 -50.9325,33.36633 -74.99069,52.05296 -23.9923,19.11248 -47.18626,39.15782 -67.71786,62.04066 -19.13629,21.27047 -37.59471,43.14775 -54.61336,66.16572 -13.77395,18.35953 -27.2551,36.91714 -39.43804,56.38734 -8.21966,13.64584 -16.62645,27.22102 -23.16129,41.78385 -3.93768,9.36177 -8.20512,18.66429 -10.6078,28.57339 0,0 -2.56008,1.20231 -2.56008,1.20231 z" />
    <path
       style="color:#000000;fill:none;stroke:#000000;stroke-width:10;stroke-linecap:butt;stroke-linejoin:miter;stroke-miterlimit:4;stroke-opacity:1;stroke-dasharray:none;stroke-dashoffset:0;marker:none;visibility:visible;display:inline;overflow:visible;enable-background:accumulate"
       id="path3101"
       d="m -911.43904,635.23196 c 9.15968,-5.25211 17.7736,-11.32399 26.4979,-17.2565 10.0226,-6.6842 20.25636,-13.03448 30.51579,-19.34584 9.1327,-5.61148 17.93326,-11.74769 27.10033,-17.29911 9.11557,-5.78438 18.44975,-11.1934 27.88592,-16.43474 5.82587,-3.30149 11.55981,-6.75855 16.96183,-10.73002 5.5717,-3.51698 10.57255,-7.81925 15.89342,-11.67577 4.44788,-2.88439 9.1306,-5.55414 14.09247,-7.45735 2.15932,-0.64007 4.38014,-1.08446 6.62503,-1.27513 2.06288,1.29387 2.8842,4.08766 3.96593,6.19246 1.2547,3.63198 3.61821,6.67003 5.68779,9.85667 2.21869,2.75415 4.89601,5.05951 7.29806,7.64035 2.74664,2.94689 5.90714,5.30702 9.26919,7.50721 3.58425,2.922 7.48667,4.53364 11.99105,5.35584 4.55904,1.94724 8.97813,2.11203 13.82907,1.72192 5.42304,-0.0707 9.90293,-3.17802 14.52575,-5.62879 4.63098,-2.87314 9.2108,-5.79251 13.63073,-8.9838 4.16787,-3.03803 7.57541,-6.90587 10.77231,-10.91493 2.54806,-2.75236 3.56603,-6.1906 4.15135,-9.79973 0.0134,-3.40754 0.70325,-6.59282 1.59881,-9.85783 0.90341,-2.98726 1.25358,-6.08569 1.4355,-9.18831 -0.091,-4.52738 3.11398,-6.09239 6.65342,-8.14689 -0.30344,0.17009 -1.21807,0.67242 -0.91032,0.51026 4.90002,-2.58189 9.72553,-4.83619 14.88079,-6.87213 7.47126,-2.97622 14.68383,-6.54624 21.93539,-10.01108 6.52391,-3.47388 12.9001,-7.22924 19.30197,-10.92745 5.03594,-2.77052 10.15849,-5.37351 15.1891,-8.15242 2.35858,-0.96199 5.47387,-3.42129 9.31087,-5.60558 3.00882,0.30908 4.55892,4.45075 5.62272,6.92747 2.30719,4.9244 3.82448,10.15493 5.95114,15.15806 2.1436,5.06608 5.14994,9.58604 8.43512,13.95602 3.26957,4.87246 8.04185,7.83732 13.07972,10.55677 5.22309,2.61468 10.92809,4.05795 16.76469,3.8508 6.40318,-0.41603 12.01037,-3.80434 17.48074,-6.87019 6.01463,-3.58772 10.93364,-8.38723 15.66389,-13.47504 4.34916,-4.91197 8.68961,-9.89246 12.31209,-15.37716 2.80345,-4.39727 4.65924,-9.10705 6.4167,-13.97706 1.65494,-6.20344 3.56501,-12.34274 4.87954,-18.63331 0.77977,-4.65438 2.42038,-9.09531 3.46557,-13.6924 0.59789,-4.46065 3.165,-5.91593 6.89807,-7.94925 4.51317,-1.54387 9.20946,-2.27393 13.84328,-3.33607 7.62329,-1.77657 15.09774,-4.16823 22.5188,-6.64734 10.18955,-3.07276 20.36086,-6.23742 30.41711,-9.72658 11.28704,-3.58026 22.46435,-7.47616 33.77643,-10.98076 7.6348,-2.52822 15.18867,-5.2508 22.75847,-7.95711 3.89789,-1.18862 7.70239,-2.82364 11.15301,0.01 3.01244,3.31523 4.18405,7.87968 5.9739,11.91415 2.70361,6.51847 5.46814,13.00597 7.5219,19.7626 2.27028,8.01869 5.04802,15.87406 7.53804,23.82331 2.63767,8.44717 4.57226,16.98917 5.65955,25.76677 1.41249,9.96672 1.98534,19.87241 1.78303,29.93255 0.0818,10.31849 -1.00089,20.50318 -3.57484,30.48813 -2.13421,11.03232 -7.37898,20.78741 -12.78858,30.48206 -6.91711,12.06541 -15.46444,22.96591 -24.5523,33.44208 -10.88841,11.57079 -23.31745,21.54035 -35.91506,31.16518 -13.43786,10.29957 -27.35444,19.9365 -41.39917,29.38468 -13.48324,9.16565 -27.66996,17.18276 -41.71238,25.43818 -14.23682,8.36703 -29.37429,14.98885 -44.13295,22.34831 -14.28146,7.28952 -29.1385,13.27246 -44.03534,19.15393 -14.86267,5.94999 -30.10436,10.93038 -45.51763,15.23841 -13.30998,4.25913 -27.13007,6.27782 -40.89586,8.39391 -11.18078,1.73 -22.4739,2.31076 -33.76776,2.6145 -9.38109,0.18292 -18.76453,0.1475 -28.14686,0.13469 -8.45649,-0.16852 -16.93597,0.33006 -25.36935,-0.38289 -7.82977,-1.21798 -15.77502,-1.44277 -23.6102,-2.54516 -7.29909,-0.98715 -14.49897,-2.40436 -21.71977,-3.8331 -6.86673,-1.86532 -13.81049,-3.34076 -20.50346,-5.78902 -7.20942,-2.2205 -14.40662,-4.45803 -21.57329,-6.81883 -7.10572,-2.60223 -14.25264,-4.86525 -21.21826,-7.84094 -6.08465,-2.83409 -11.99296,-6.02029 -18.02758,-8.95404 -5.7466,-2.11944 -11.16535,-4.68669 -16.33203,-7.952 -4.49257,-2.94003 -8.86801,-6.04154 -13.21424,-9.19839 -4.25479,-3.1113 -7.78673,-7.04782 -11.12745,-11.09341 -3.80686,-3.87402 -7.27094,-8.0682 -10.92065,-12.09007 -3.06961,-3.90901 -6.42764,-7.60243 -9.07505,-11.82512 -1.85773,-4.36124 -3.30587,-8.94268 -4.44055,-13.55204 -0.59293,-4.5605 -1.23178,-9.00847 -2.46118,-13.44886 -0.73407,-1.01771 -1.97091,-6.33815 -3.74114,-6.10019 -1.04921,0.41374 -2.17532,0.48972 -3.28256,0.62975 0,0 2.27009,-1.69613 2.27009,-1.69613 l 0,0 c 1.12649,-0.16051 2.22841,-0.33143 3.3341,-0.59082 2.23029,0.56335 2.82559,4.79112 3.90626,6.40471 1.22517,4.44478 1.89286,8.89009 2.46147,13.45808 1.11842,4.58374 2.56335,9.13335 4.39701,13.47293 2.63675,4.20932 5.98467,7.88963 9.04366,11.78558 3.6524,4.02518 7.12185,8.21988 10.92812,12.10078 3.3307,4.02488 6.84668,7.94497 11.09317,11.03119 4.33752,3.15725 8.71092,6.25196 13.19983,9.18584 5.15716,3.26135 10.58944,5.7812 16.31068,7.9288 6.02508,2.94214 11.93373,6.11677 18.01554,8.94532 6.95704,2.97475 14.10674,5.21641 21.20239,7.82274 7.1681,2.36612 14.37545,4.58366 21.58206,6.82326 6.68829,2.42293 13.61855,3.91057 20.47859,5.75385 7.21404,1.43564 14.41375,2.82909 21.70609,3.82285 7.83477,1.07386 15.77026,1.33942 23.5982,2.53455 8.43047,0.6791 16.9033,0.20179 25.35474,0.36554 9.3779,0.0175 18.75698,0.0494 28.13361,-0.1349 11.28201,-0.30476 22.56272,-0.9005 33.73102,-2.63079 13.75637,-2.119 27.56269,-4.15455 40.86368,-8.41124 15.40385,-4.32526 30.64187,-9.29686 45.49608,-15.25752 14.89615,-5.88157 29.74381,-11.88517 44.02378,-19.17508 13.1406,-6.54729 26.55768,-12.53711 39.41468,-19.64079 14.04423,-8.25522 28.23995,-16.25721 41.72402,-25.42482 14.0454,-9.44383 27.96634,-19.07097 41.40337,-29.36856 12.59433,-9.61534 25.02296,-19.56656 35.92805,-31.10994 9.08673,-10.45743 17.63665,-21.33526 24.55676,-33.38194 5.40307,-9.67472 10.67929,-19.39774 12.80841,-30.41282 2.59157,-9.96293 3.6873,-20.12739 3.60241,-30.42937 0.21281,-10.04847 -0.3531,-19.93896 -1.77203,-29.89319 -1.07532,-8.7634 -3.00769,-17.2882 -5.63766,-25.72107 -2.49035,-7.94961 -5.27054,-15.80453 -7.54463,-23.82254 -2.04468,-6.74725 -4.81366,-13.21982 -7.51713,-19.72547 -1.77692,-3.98867 -2.93337,-8.51912 -5.92231,-11.78948 -3.37296,-2.68963 -7.22802,-0.8957 -10.97012,0.21575 -7.55558,2.71656 -15.11417,5.39428 -22.73695,7.92492 -11.30859,3.50852 -22.48613,7.39867 -33.76866,10.98629 -10.06575,3.48138 -20.24175,6.64978 -30.43424,9.73578 -7.43201,2.47295 -14.91305,4.87012 -22.54833,6.63513 -4.63814,1.04229 -9.32784,1.79835 -13.82576,3.39942 0.41028,-0.28436 0.7622,-0.68116 1.23085,-0.85308 0.38148,-0.13994 -0.65927,0.47826 -0.95848,0.75317 -1.42987,1.31372 -2.07086,3.17766 -2.39648,5.05176 -1.04285,4.60129 -2.68495,9.04267 -3.48375,13.69546 -1.30392,6.30328 -3.23335,12.44385 -4.85564,18.66644 -1.77462,4.88052 -3.57587,9.62709 -6.39335,14.03869 -3.59711,5.51607 -7.96283,10.49204 -12.30413,15.42494 -6.00808,6.4865 -12.45869,12.28829 -20.43776,16.32314 -5.49695,3.06991 -11.13391,6.41701 -17.57182,6.76937 -5.87381,0.12867 -11.6014,-1.31318 -16.84763,-3.97291 -5.07041,-2.73906 -9.85066,-5.76615 -13.14733,-10.65789 -3.29723,-4.38874 -6.3154,-8.93036 -8.46496,-14.01756 -2.13219,-5.00017 -3.64836,-10.23045 -5.96219,-15.15094 -0.97425,-2.27245 -2.50168,-6.53087 -5.36909,-6.53008 0.4899,-0.29521 0.93665,-0.67827 1.46971,-0.88563 1.07441,-0.41796 -1.84658,1.38199 -2.79983,2.03034 -1.89997,1.29226 -3.93313,2.37911 -5.94368,3.49154 -0.65301,0.36131 -1.34849,0.63988 -2.02273,0.95982 -5.0319,2.76591 -10.14686,5.37331 -15.17481,8.14789 -6.40343,3.68527 -12.77572,7.448 -19.3084,10.90496 -7.25277,3.47394 -14.4794,7.026 -21.95567,10.00252 -5.88992,2.34444 -10.05418,3.97947 -13.96452,6.40812 0.37353,-0.22528 1.33835,-1.05379 1.12058,-0.67583 -0.25828,0.44828 -0.88321,0.553 -1.25631,0.91141 -1.27271,1.22261 -1.76198,3.16282 -1.77698,4.85331 -0.17047,3.11964 -0.50954,6.23902 -1.41263,9.24347 -0.88779,3.26034 -1.64166,6.4194 -1.60967,9.82899 -0.57293,3.63723 -1.53128,7.15392 -4.09788,9.9354 -3.20193,4.02304 -6.58526,7.92777 -10.75396,10.99038 -5.91495,4.28447 -12.10089,8.17418 -18.44675,11.78666 -4.63795,2.47439 -9.15159,5.49252 -14.59913,5.53921 -4.86128,0.37377 -9.30081,0.11279 -13.87436,-1.78069 -4.52411,-0.85889 -8.4456,-2.5259 -12.05713,-5.44675 -3.37075,-2.22341 -6.55013,-4.59676 -9.30689,-7.56327 -2.42043,-2.58532 -5.10628,-4.9067 -7.32462,-7.68247 -2.06963,-3.19705 -4.44341,-6.24103 -5.70388,-9.88009 -1.00448,-1.949 -1.81389,-4.81545 -3.79456,-5.90201 -2.22576,0.21357 -4.43071,0.65158 -6.56306,1.32767 -3.75923,1.46896 -6.85386,3.04463 -9.24264,4.67206 -5.34401,3.82809 -10.31027,8.18554 -15.90387,11.67649 -6.87347,5.09009 -14.3345,9.28107 -21.75194,13.52137 -8.04938,3.92234 -15.36988,9.21167 -23.10938,13.67638 -9.17887,5.5332 -17.96938,11.6874 -27.10343,17.29798 -10.26392,6.30847 -20.49948,12.65993 -30.52919,19.33746 -10.25232,6.96532 -20.41496,14.02149 -31.27083,20.04273 0,0 2.19268,-1.77398 2.19268,-1.77398 z" />
    <path
       style="color:#000000;fill:none;stroke:#000000;stroke-width:10;stroke-linecap:butt;stroke-linejoin:miter;stroke-miterlimit:4;stroke-opacity:1;stroke-dasharray:none;stroke-dashoffset:0;marker:none;visibility:visible;display:inline;overflow:visible;enable-background:accumulate"
       id="path3103"
       d="m -277.83393,205.44248 c -5.71642,-4.31784 -11.4784,-8.53411 -17.4645,-12.47576 -5.13545,-3.57378 -10.92934,-5.72666 -16.61,-8.19437 -4.29618,-1.47203 -8.52176,-3.05818 -12.76296,-4.68138 -2.95351,-1.08041 -6.09769,-2.00337 -9.13436,-0.86484 0.53904,-0.21386 1.04811,-0.75347 1.61713,-0.64157 0.24792,0.0487 -0.84429,0.64679 -0.99896,1.97139 -0.24956,2.13725 0.45789,4.6323 0.77496,6.72121 0.87502,6.77143 1.23336,13.55994 2.265,20.31366 1.36917,6.80377 1.64021,13.56707 0.73799,20.42633 0,0 -2.5319,1.24785 -2.5319,1.24785 l 0,0 c 0.93379,-6.83813 0.68933,-13.57479 -0.68714,-20.36217 -1.03595,-6.75188 -1.40956,-13.53565 -2.27861,-20.30657 -0.80141,-5.2125 -2.09979,-8.37134 3.34311,-11.1166 3.09659,-1.0016 6.27403,-0.0676 9.24282,1.03247 4.23631,1.64024 8.47824,3.18695 12.76208,4.69597 5.69842,2.45925 11.4778,4.67293 16.62624,8.2422 5.99398,3.94795 11.75157,8.18879 17.49386,12.48797 0,0 -2.39476,1.50421 -2.39476,1.50421 z" />
    <path
       style="color:#000000;fill:none;stroke:#000000;stroke-width:10;stroke-linecap:butt;stroke-linejoin:miter;stroke-miterlimit:4;stroke-opacity:1;stroke-dasharray:none;stroke-dashoffset:0;marker:none;visibility:visible;display:inline;overflow:visible;enable-background:accumulate"
       id="path3105"
       d="m -240.69107,491.15677 c -6.03074,-5.281 -12.70532,-9.60103 -19.86458,-13.15951 -7.0316,-3.11521 -14.62084,-4.80253 -22.11155,-6.44717 -5.29459,-1.07494 -10.6797,-1.57443 -16.07129,-1.78198 0.46849,-1.06442 -5.62425,1.07743 -4.05823,0.8015 0.59184,-0.10428 1.17985,-0.91948 1.69594,-0.61159 0.43542,0.25976 -0.18456,1.00193 -0.19185,1.5089 -0.0101,0.70235 0.0933,1.40174 0.13991,2.10261 1.80303,8.31299 3.59051,16.63088 5.11582,25.00066 1.2551,6.05743 1.4574,12.1283 1.17727,18.27648 0,0 -2.50336,1.26072 -2.50336,1.26072 l 0,0 c 0.29834,-6.13116 0.12037,-12.1836 -1.13694,-18.22586 -1.52147,-8.37657 -3.31115,-16.70143 -5.1639,-25.00955 -0.01,-0.12501 -0.37228,-3.42876 -0.0562,-3.80964 1.8721,-2.25564 4.53534,-3.11357 7.27787,-2.94863 5.39667,0.22447 10.78539,0.7467 16.08279,1.83503 7.50373,1.66418 15.11043,3.35065 22.14471,6.50761 7.17446,3.57605 13.84326,7.93911 19.91832,13.1962 0,0 -2.39476,1.50422 -2.39476,1.50422 z" />
    <g
       id="g3136"
       transform="matrix(1.8265981,0,0,1.8265981,-777.12991,-95.513596)">
      <g
         id="g3138"
         transform="matrix(1.0133685,0,0,-1.0133685,-177.33949,587.0669)"
         xml:space="preserve"
         stroke-miterlimit="10.433"
         fill-rule="even-odd"
         font-style="normal"
         font-variant="normal"
         font-weight="normal"
         font-stretch="normal"
         font-size-adjust="none"
         letter-spacing="normal"
         word-spacing="normal"
         style="font-style:normal;font-variant:normal;font-weight:normal;font-stretch:normal;letter-spacing:normal;word-spacing:normal;text-anchor:start;fill:none;stroke:#000000;stroke-linecap:butt;stroke-linejoin:miter;stroke-miterlimit:10.43299961;stroke-opacity:1;stroke-dasharray:none;stroke-dashoffset:0"><path
           d="m 469.15,427.77 -0.58,-0.15 -0.57,-0.19 -0.56,-0.21 -0.55,-0.23 -0.54,-0.27 -0.53,-0.28 -0.52,-0.31 -0.5,-0.33 -0.49,-0.35 -0.48,-0.38 -0.46,-0.39 -0.45,-0.41 -0.44,-0.43 -0.41,-0.44 -0.4,-0.46 -0.38,-0.47 -0.36,-0.49 -0.35,-0.5 -0.32,-0.51 -0.31,-0.52 -0.28,-0.53 -0.27,-0.53 -0.24,-0.55 -0.21,-0.55 -0.2,-0.56 -0.17,-0.56 -0.15,-0.56 -0.12,-0.57 -0.09,-0.57 -0.07,-0.57 -0.04,-0.56 -0.02,-0.57 c 0,-4.78 3.19,-8.37 7.87,-8.37 v 1.1 c -2.74,0 -4.78,2.09 -4.78,5.88 0,3.14 1.84,12.5 8.57,14.29 h 0 c 1.24,-2.29 2.74,-4.98 2.74,-8.56 0,-3.29 -1.9,-11.61 -6.53,-11.61 v -1.1 c 5.83,0 9.97,7.82 9.97,14.7 0,4.53 -2,7.02 -3.69,9.26 -1.79,2.25 -4.73,5.98 -4.73,8.17 0,1.1 0.99,2.29 2.74,2.29 1.49,0 2.49,-0.64 3.54,-1.34 0.99,-0.6 1.99,-1.25 2.73,-1.25 1.25,0 2,1.2 2,2 0,1.09 -0.8,1.24 -2.59,1.64 -2.59,0.55 -3.29,0.55 -4.09,0.55 -3.88,0 -5.68,-2.15 -5.68,-5.13 0,-2.69 1.45,-5.48 2.99,-8.52 z"
           id="path3140"
           style="fill:#000000;stroke-width:0" /><path
           d="m 489.68,421.18 0,0.04 0,0.04 0,0.04 0,0.04 0,0.04 0,0.04 0,0.03 0,0.04 -0.01,0.03 0,0.03 0,0.04 0,0.03 -0.01,0.02 0,0.03 0,0.03 -0.01,0.03 0,0.02 0,0.02 -0.02,0.05 -0.01,0.04 -0.01,0.04 -0.02,0.03 -0.02,0.03 -0.02,0.03 -0.03,0.03 -0.02,0.02 -0.03,0.02 -0.04,0.02 -0.03,0.01 -0.04,0.01 -0.05,0.02 -0.05,0 -0.02,0.01 -0.03,0 -0.03,0.01 -0.02,0 -0.03,0 -0.03,0 -0.04,0 -0.03,0.01 -0.03,0 -0.04,0 -0.03,0 -0.04,0 -0.04,0 -0.04,0 -0.04,0 -0.04,0 -0.05,0 -0.04,0 c -2.24,-2.19 -5.41,-2.23 -6.84,-2.23 v -1.25 c 0.84,0 3.14,0 5.06,0.97 v -17.78 c 0,-1.15 0,-1.61 -3.49,-1.61 h -1.33 V 399 h 12.45 v 1.25 h -1.32 c -3.49,0 -3.49,0.46 -3.49,1.61 z"
           id="path3142"
           style="fill:#000000;stroke-width:0" /></g>    </g>
    <g
       id="g3208"
       transform="matrix(1.8265981,0,0,1.8265981,-777.12991,127.34355)">
      <g
         word-spacing="normal"
         letter-spacing="normal"
         font-size-adjust="none"
         font-stretch="normal"
         font-weight="normal"
         font-variant="normal"
         font-style="normal"
         fill-rule="even-odd"
         stroke-miterlimit="10.433"
         xml:space="preserve"
         transform="matrix(1.0133685,0,0,-1.0133685,-177.33949,587.0669)"
         id="g3210"
         style="font-style:normal;font-variant:normal;font-weight:normal;font-stretch:normal;letter-spacing:normal;word-spacing:normal;text-anchor:start;fill:none;stroke:#000000;stroke-linecap:butt;stroke-linejoin:miter;stroke-miterlimit:10.43299961;stroke-opacity:1;stroke-dasharray:none;stroke-dashoffset:0"><path
           id="path3212"
           d="m 469.15,427.77 -0.58,-0.15 -0.57,-0.19 -0.56,-0.21 -0.55,-0.23 -0.54,-0.27 -0.53,-0.28 -0.52,-0.31 -0.5,-0.33 -0.49,-0.35 -0.48,-0.38 -0.46,-0.39 -0.45,-0.41 -0.44,-0.43 -0.41,-0.44 -0.4,-0.46 -0.38,-0.47 -0.36,-0.49 -0.35,-0.5 -0.32,-0.51 -0.31,-0.52 -0.28,-0.53 -0.27,-0.53 -0.24,-0.55 -0.21,-0.55 -0.2,-0.56 -0.17,-0.56 -0.15,-0.56 -0.12,-0.57 -0.09,-0.57 -0.07,-0.57 -0.04,-0.56 -0.02,-0.57 c 0,-4.78 3.19,-8.37 7.87,-8.37 v 1.1 c -2.74,0 -4.78,2.09 -4.78,5.88 0,3.14 1.84,12.5 8.57,14.29 h 0 c 1.24,-2.29 2.74,-4.98 2.74,-8.56 0,-3.29 -1.9,-11.61 -6.53,-11.61 v -1.1 c 5.83,0 9.97,7.82 9.97,14.7 0,4.53 -2,7.02 -3.69,9.26 -1.79,2.25 -4.73,5.98 -4.73,8.17 0,1.1 0.99,2.29 2.74,2.29 1.49,0 2.49,-0.64 3.54,-1.34 0.99,-0.6 1.99,-1.25 2.73,-1.25 1.25,0 2,1.2 2,2 0,1.09 -0.8,1.24 -2.59,1.64 -2.59,0.55 -3.29,0.55 -4.09,0.55 -3.88,0 -5.68,-2.15 -5.68,-5.13 0,-2.69 1.45,-5.48 2.99,-8.52 z"
           style="fill:#000000;stroke-width:0" /><path
           id="path3214"
           d="m 495.61,405.35 h -1.19 c -0.1,-0.77 -0.45,-2.83 -0.9,-3.18 -0.28,-0.21 -2.97,-0.21 -3.45,-0.21 h -6.42 c 3.66,3.25 4.88,4.22 6.97,5.86 2.58,2.06 4.99,4.22 4.99,7.54 0,4.21 -3.7,6.79 -8.16,6.79 -4.33,0 -7.25,-3.03 -7.25,-6.24 0,-1.78 1.5,-1.95 1.84,-1.95 0.84,0 1.85,0.59 1.85,1.85 0,0.62 -0.24,1.85 -2.05,1.85 1.08,2.47 3.45,3.24 5.09,3.24 3.48,0 5.3,-2.72 5.3,-5.54 0,-3.04 -2.16,-5.45 -3.28,-6.7 l -8.4,-8.3 c -0.35,-0.31 -0.35,-0.38 -0.35,-1.36 h 14.36 z"
           style="fill:#000000;stroke-width:0" /></g>    </g>
  </g>
</svg>
