<?xml version="1.0" encoding="UTF-8" standalone="no"?>
<!-- Created with Inkscape (http://www.inkscape.org/) -->
<svg
   xmlns:dc="http://purl.org/dc/elements/1.1/"
   xmlns:cc="http://creativecommons.org/ns#"
   xmlns:rdf="http://www.w3.org/1999/02/22-rdf-syntax-ns#"
   xmlns:svg="http://www.w3.org/2000/svg"
   xmlns="http://www.w3.org/2000/svg"
   xmlns:sodipodi="http://sodipodi.sourceforge.net/DTD/sodipodi-0.dtd"
   xmlns:inkscape="http://www.inkscape.org/namespaces/inkscape"
   width="755.24689"
   height="894.56354"
   id="svg2"
   sodipodi:version="0.32"
   inkscape:version="0.46"
   version="1.0"
   sodipodi:docname="c17d3.svg"
   inkscape:output_extension="org.inkscape.output.svg.inkscape">
  <defs
     id="defs4">
    <inkscape:perspective
       sodipodi:type="inkscape:persp3d"
       inkscape:vp_x="0 : 526.18109 : 1"
       inkscape:vp_y="0 : 1000 : 0"
       inkscape:vp_z="744.09448 : 526.18109 : 1"
       inkscape:persp3d-origin="372.04724 : 350.78739 : 1"
       id="perspective10" />
  </defs>
  <sodipodi:namedview
     id="base"
     pagecolor="#ffffff"
     bordercolor="#666666"
     borderopacity="1.0"
     gridtolerance="10000"
     guidetolerance="10"
     objecttolerance="10"
     inkscape:pageopacity="0.0"
     inkscape:pageshadow="2"
     inkscape:zoom="0.35"
     inkscape:cx="375"
     inkscape:cy="520"
     inkscape:document-units="px"
     inkscape:current-layer="layer1"
     showgrid="false"
     inkscape:window-width="1280"
     inkscape:window-height="712"
     inkscape:window-x="-5"
     inkscape:window-y="-3" />
  <metadata
     id="metadata7">
    <rdf:RDF>
      <cc:Work
         rdf:about="">
        <dc:format>image/svg+xml</dc:format>
        <dc:type
           rdf:resource="http://purl.org/dc/dcmitype/StillImage" />
      </cc:Work>
    </rdf:RDF>
  </metadata>
  <g
     inkscape:label="Layer 1"
     inkscape:groupmode="layer"
     id="layer1"
     transform="translate(22.723264,-30.404296)">
    <path
       style="fill:#241f1c;fill-opacity:1;stroke:#000000;stroke-width:4;stroke-linecap:round;stroke-linejoin:round;stroke-miterlimit:4;stroke-dasharray:none;stroke-dashoffset:0;stroke-opacity:1"
       id="path2383"
       d="M 356.51394,92.149271 C 349.007,97.758957 344.28531,105.42758 341.32857,114.16831 C 337.17181,127.48207 336.24619,141.50805 334.76059,155.30268 C 332.57933,173.47748 329.91818,191.58747 327.48378,209.7287 C 324.07283,230.33175 322.46743,251.1613 320.66584,271.94907 C 318.34001,296.23049 315.54037,320.46248 313.13418,344.73549 C 309.68722,375.32494 307.34765,406.01133 305.02716,436.70048 C 302.33818,473.00055 300.12554,509.32997 298.04811,545.6696 C 295.9177,584.84487 294.0154,624.02057 292.97705,663.2413 C 292.13615,700.89067 292.07477,738.55125 292.03029,776.20816 C 292.42199,810.43832 292.12015,844.60895 290.01142,878.77695 C 288.91934,892.42677 287.79315,906.06101 284.55795,919.38585 L 277.07692,922.96784 C 280.5497,909.6751 281.72355,896.01988 282.88326,882.35253 C 285.08636,848.18187 285.47306,814.0068 285.04283,779.76718 C 285.10659,742.09765 285.16381,704.42419 286.02095,666.76245 C 287.05922,627.53761 288.96911,588.3577 291.06724,549.17678 C 293.11808,512.84855 295.3142,476.53127 297.94891,440.24027 C 300.24936,409.56612 302.52895,378.89084 305.93877,348.31365 C 308.28785,324.05514 311.07352,299.8416 313.38705,275.57929 C 315.17019,254.78814 316.73342,233.95042 320.14652,213.34545 C 322.55123,195.21989 325.2084,177.12913 327.36738,158.97122 C 328.82935,145.14727 329.71528,131.09328 333.76517,117.72451 C 336.57905,108.89257 341.16571,101.04643 348.63986,95.309202 L 356.51394,92.149271 z" />
    <path
       style="fill:#241f1c;fill-opacity:1;stroke:#000000;stroke-width:4;stroke-linecap:round;stroke-linejoin:round;stroke-miterlimit:4;stroke-dasharray:none;stroke-dashoffset:0;stroke-opacity:1"
       id="path2385"
       d="M 120.6142,298.26284 C 119.90151,306.31406 122.22032,314.06446 125.12785,321.46342 C 129.12674,332.05816 135.60024,341.15111 142.97955,349.61703 C 153.13669,359.47075 163.6025,369.02704 174.19043,378.4182 C 187.44258,389.876 200.25738,401.82254 213.52038,413.26554 C 228.38635,426.57952 244.58069,438.28932 261.60067,448.67117 C 280.30396,459.33468 298.84048,470.3194 317.79334,480.53419 C 336.54902,490.76627 355.47194,500.69698 375.00734,509.36343 C 393.6251,517.73207 413.26669,523.13365 432.96248,528.23195 C 450.60088,532.72828 468.36469,536.5908 485.79226,541.88229 C 498.87136,545.08346 511.27608,550.11012 523.60067,555.41385 C 532.47122,559.30753 541.20908,563.45916 549.88279,567.76961 C 553.49809,569.24844 557.43501,573.06471 561.68462,572.45944 C 562.24857,572.37912 563.77182,571.5457 563.25416,571.78345 C 561.23443,572.71107 559.20342,573.61396 557.17805,574.52921 C 557.36484,573.74431 557.55163,572.95941 557.73843,572.17452 L 565.35289,568.46708 C 565.23002,569.37136 565.10715,570.27565 564.98428,571.17993 C 552.83329,579.53325 555.18628,578.92278 542.86217,572.38939 C 534.22589,568.05484 525.49035,563.94734 516.65083,560.04209 C 504.38571,554.71296 491.99713,549.78288 478.98402,546.52863 C 461.5784,541.24956 443.83681,537.386 426.22864,532.86808 C 406.50627,527.74802 386.85198,522.27655 368.2161,513.87611 C 348.67986,505.17523 329.74894,495.22648 310.98068,484.98631 C 292.02428,474.74582 273.45796,463.78301 254.75071,453.0955 C 237.70545,442.66801 221.45939,430.95079 206.5646,417.59899 C 193.28846,406.15729 180.44105,394.23254 167.17727,382.77453 C 156.54502,373.37266 146.02175,363.81616 135.85028,353.91933 C 128.40364,345.38803 121.88449,336.2089 117.80447,325.54916 C 114.81327,318.02961 112.48745,310.18533 112.98799,301.99126 L 120.6142,298.26284 z" />
    <path
       style="fill:#241f1c;fill-opacity:1;stroke:#000000;stroke-width:4;stroke-linecap:round;stroke-linejoin:round;stroke-miterlimit:4;stroke-dasharray:none;stroke-dashoffset:0;stroke-opacity:1"
       id="path2387"
       d="M 422.53406,343.83287 C 417.03881,350.1381 412.12096,356.90387 406.86236,363.40174 C 398.80843,372.3275 391.8129,382.08758 384.80414,391.83258 C 374.19131,407.29305 363.09442,422.40241 351.309,436.98882 C 337.90501,453.50884 324.23755,469.81283 310.05314,485.66893 C 296.73112,500.37143 282.80942,514.51321 268.85378,528.61027 C 257.95535,540.05046 246.20843,550.60863 234.54698,561.25179 C 227.09191,568.27501 218.89467,574.40426 211.70497,581.70815 C 207.1105,586.69287 201.931,591.07654 197.23257,595.96015 C 193.53161,599.24164 190.59239,603.2233 187.69686,607.20155 C 185.09313,611.00613 182.22622,614.60501 179.18173,618.06266 C 176.79845,621.70535 173.79267,624.83173 170.89291,628.05216 C 167.43442,631.33451 163.86378,634.53589 160.10758,637.47575 C 154.86292,642.31066 150.00254,646.32633 142.83048,648.51036 C 142.07097,648.74164 141.37471,647.87623 140.64683,647.55917 L 147.68369,642.81925 C 151.83523,644.05688 149.74136,642.8884 144.19992,647.11867 C 143.6062,647.57191 145.54379,646.4539 146.15746,646.02806 C 148.40534,644.46817 150.11088,642.30411 152.24461,640.61086 C 156.05126,637.77271 159.50001,634.4704 163.0749,631.34809 C 165.90537,628.07102 169.12994,625.12242 171.35749,621.35809 C 174.42358,617.93333 177.33428,614.38057 179.92011,610.57388 C 182.75531,606.5376 185.70942,602.50036 189.42452,599.21949 C 194.05842,594.24445 199.34872,589.94834 203.94233,584.93347 C 211.11844,577.55445 219.33334,571.4034 226.85836,564.39493 C 238.55174,553.7503 250.35094,543.21157 261.26952,531.75584 C 275.24837,517.6613 289.19611,503.52519 302.54509,488.82744 C 316.73699,472.99491 330.40447,456.70865 343.79524,440.19403 C 355.57818,425.65439 366.67011,410.58758 377.21191,395.12358 C 384.17732,385.38396 391.08772,375.59176 399.13407,366.69677 C 404.40077,360.23652 409.28098,353.476 414.73183,347.16628 L 422.53406,343.83287 z" />
    <path
       style="fill:#241f1c;fill-opacity:1;stroke:#000000;stroke-width:4;stroke-linecap:round;stroke-linejoin:round;stroke-miterlimit:4;stroke-dasharray:none;stroke-dashoffset:0;stroke-opacity:1"
       id="path2389"
       d="M 574.63825,593.17895 C 567.33242,597.75033 559.19659,600.36057 550.79547,601.98612 C 543.41287,603.46564 536.59289,603.6709 530.36392,599.09984 C 524.50804,592.27253 526.56418,583.87978 529.00373,576.09031 C 532.3717,566.25678 538.90838,558.52342 546.51835,551.69201 C 554.01384,546.07881 562.29523,540.3715 571.54593,538.21854 C 574.83014,537.45418 577.63978,537.45203 580.97307,537.27972 C 591.27719,537.50494 598.42753,544.13652 604.16476,552.01118 C 609.60334,561.14 611.70273,571.47194 610.88477,581.9764 C 609.18135,594.00072 600.86372,602.40196 592.49232,610.43832 C 581.44296,618.96637 569.34629,628.85603 555.07367,630.92178 C 552.91397,631.23437 550.71209,631.07922 548.5313,631.15794 L 555.23414,626.24013 C 569.1417,625.4417 575.16799,621.87302 584.8079,613.60064 C 593.10026,605.72178 601.5277,597.54691 603.3868,585.71679 C 604.34457,575.40505 602.30072,565.24523 596.96081,556.27463 C 591.3114,548.58001 584.32863,542.2452 574.21536,542.25018 C 570.68122,542.48204 568.40836,542.47363 564.92992,543.35514 C 563.34585,543.75658 561.88354,545.26465 560.28529,544.92399 C 559.24568,544.70241 563.76496,542.60689 562.73994,542.88836 C 560.61502,543.47186 555.94721,547.26477 554.27252,548.53379 C 546.64807,555.23176 540.02251,562.78365 536.58034,572.51953 C 534.19394,579.89303 531.84944,588.05042 537.50185,594.56465 C 543.62081,598.86208 550.38673,598.33727 557.49055,596.91682 C 565.88255,595.18089 573.93449,592.42525 581.26058,587.88171 L 574.63825,593.17895 z" />
    <path
       style="fill:#241f1c;fill-opacity:1;stroke:#000000;stroke-width:4;stroke-linecap:round;stroke-linejoin:round;stroke-miterlimit:4;stroke-dasharray:none;stroke-dashoffset:0;stroke-opacity:1"
       id="path2391"
       d="M 442.7864,340.95749 C 433.25289,341.78126 424.20644,339.95589 415.39832,336.43557 C 406.50654,332.84184 401.20031,326.44432 397.43176,317.89623 C 393.65995,308.84023 395.61917,299.95598 399.57371,291.40065 C 404.84078,281.33862 415.55619,275.93394 426.35686,273.70532 C 435.32674,272.63689 442.21411,276.61574 448.00288,283.09831 C 453.6201,291.62898 454.65258,301.95158 454.66361,311.9231 C 454.10117,321.50824 451.42085,330.2304 444.31588,336.87137 C 435.88379,343.12962 428.87951,345.10451 418.89925,345.46238 L 425.63576,340.52101 C 430.37178,340.25897 431.47379,340.45371 435.99558,339.23743 C 437.39771,338.86029 439.30817,336.57381 440.10347,337.7886 C 440.87597,338.96856 437.71817,339.29412 436.52551,340.04688 C 443.86227,333.79141 446.54774,325.17191 447.20808,315.71869 C 447.28607,305.96011 446.30046,295.80549 440.81585,287.45049 C 435.12184,281.16918 428.37356,277.50987 419.66322,278.79194 C 418.32552,279.10037 416.9667,279.32842 415.65012,279.71724 C 414.39141,280.08898 412.0932,282.3741 411.95216,281.06925 C 411.79847,279.64738 414.12963,278.49742 415.54233,278.7201 C 416.85499,278.92701 413.35435,280.24187 412.37057,281.1352 C 409.36738,283.86225 409.33114,284.47537 407.2138,287.92404 C 403.19197,296.22805 401.07438,304.87773 404.74701,313.77816 C 408.4287,322.14551 413.63242,328.31521 422.35601,331.76972 C 431.11413,335.18303 440.13656,336.90901 449.57177,335.87898 L 442.7864,340.95749 z" />
    <path
       style="fill:#241f1c;fill-opacity:1;stroke:#000000;stroke-width:4;stroke-linecap:round;stroke-linejoin:round;stroke-miterlimit:4;stroke-dasharray:none;stroke-dashoffset:0;stroke-opacity:1"
       id="path2393"
       d="M 145.71439,710.29849 C 137.61364,714.14748 129.18395,714.8566 120.38707,714.16526 C 110.66658,713.16167 103.70168,707.61107 97.518148,700.49181 C 90.845872,691.40228 88.940251,683.07573 90.582068,672.04455 C 93.117197,660.09796 101.25325,651.81865 111.03829,645.21797 C 122.53109,638.22462 135.26381,631.36991 149.23434,632.38416 C 151.3471,632.53755 153.41319,633.08155 155.50261,633.43025 C 167.12562,636.23181 175.41429,643.94905 182.21078,653.36468 C 188.04991,663.40829 187.95164,670.11437 182.07389,679.9361 C 174.03559,689.27985 162.77045,695.17347 151.26883,699.19611 L 157.83142,694.07467 C 159.77346,693.36427 161.61622,692.27388 163.65755,691.94347 C 164.39136,691.8247 161.319,693.75845 161.97263,693.40439 C 166.67649,690.85635 170.85659,687.27837 174.41261,683.32139 C 180.40142,673.86032 180.7286,667.50439 175.01169,657.61871 C 168.33992,648.35565 160.15322,640.83972 148.69483,638.21507 C 139.45301,636.83532 132.3538,637.38094 123.49254,640.61273 C 121.40249,641.37499 119.4477,642.48836 117.33822,643.19506 C 116.78131,643.38163 118.30289,642.52483 118.78523,642.18972 C 109.00938,648.5387 100.77389,656.58852 98.10144,668.35941 C 96.320521,679.15487 98.127981,687.25416 104.687,696.16486 C 110.80067,703.12132 117.65935,708.44014 127.22255,709.2756 C 135.98246,709.8811 144.3434,708.92521 152.35806,705.04789 L 145.71439,710.29849 z" />
    <path
       style="fill:#241f1c;fill-opacity:1;stroke:#000000;stroke-width:4;stroke-linecap:round;stroke-linejoin:round;stroke-miterlimit:4;stroke-dasharray:none;stroke-dashoffset:0;stroke-opacity:1"
       id="path2395"
       d="M 145.06345,266.73502 C 137.51063,274.2655 129.56229,281.34737 121.28738,288.07276 C 110.62139,296.01261 99.318404,304.33862 86.04944,306.9651 C 76.965617,308.20906 72.690423,305.62421 69.592862,297.18464 C 67.390076,284.79044 71.720324,272.91915 76.087008,261.50596 C 82.888268,245.74742 91.406462,234.5867 104.54255,223.70282 C 114.83308,216.85151 127.34718,208.03845 140.31622,212.63051 C 141.96739,213.21515 143.44905,214.1983 145.01547,214.9822 C 155.27338,221.9595 158.3121,233.42958 159.48884,245.13554 C 158.97688,257.12192 155.75218,264.05951 147.73574,272.74615 L 140.0563,275.95307 C 148.18482,267.53527 151.4251,260.84387 152.10155,248.98993 C 151.03533,237.56193 148.14005,226.29699 138.03067,219.58727 C 132.88045,217.13523 128.7429,215.80995 122.9237,216.70133 C 121.0014,216.99579 119.2106,218.12013 117.26588,218.12487 C 116.68353,218.12628 118.81678,216.45529 118.29435,216.7126 C 116.13328,217.77698 114.23895,219.31379 112.21125,220.61439 C 107.38333,224.53523 104.88207,226.26717 100.66415,230.9128 C 93.453028,238.85516 88.067869,248.34717 83.587095,258.02491 C 79.259492,269.23384 74.928364,280.90072 76.960705,293.09994 C 79.931814,301.30048 84.090384,303.20102 92.739863,301.88868 C 94.144831,301.57435 95.578918,301.36969 96.954767,300.9457 C 98.507238,300.46727 99.876536,299.1523 101.50064,299.18884 C 102.49469,299.2112 98.219343,301.40183 99.126397,300.99455 C 104.41575,298.61954 108.79565,294.37577 113.55411,291.18209 C 121.8044,284.50806 129.75278,277.50934 137.2332,269.97841 L 145.06345,266.73502 z" />
    <path
       style="fill:#241f1c;fill-opacity:1;stroke:#000000;stroke-width:4;stroke-linecap:round;stroke-linejoin:round;stroke-miterlimit:4;stroke-dasharray:none;stroke-dashoffset:0;stroke-opacity:1"
       id="path2397"
       d="M 483.46097,278.59871 C 481.35001,286.93283 479.92739,295.39188 478.89881,303.92031 C 477.69357,307.40429 479.49974,312.24288 477.4134,315.42508 C 474.71478,316.20955 472.12206,317.59787 469.31754,317.77849 C 468.48695,317.83198 470.57992,306.83715 470.74667,306.15907 C 471.85027,301.14446 473.53815,296.13721 477.18735,292.41304 C 480.15943,290.84181 482.97972,288.94168 486.10361,287.69934 C 486.63683,287.48728 487.21276,288.00297 487.74648,288.21377 C 490.58075,289.33324 491.91003,291.32271 493.2062,293.96209 C 496.12218,299.38134 496.46833,305.58995 497.86021,311.45918 C 498.93474,314.55288 499.19439,318.41416 500.49061,321.19758 C 498.06749,322.06925 495.78494,323.57003 493.22126,323.8126 C 492.55338,323.87579 493.49705,322.49946 493.64553,321.84523 C 494.42901,318.39293 495.75302,315.62219 497.50798,312.5665 C 501.83698,305.04495 509.18276,301.61451 516.51064,297.47522 C 520.60611,295.94404 524.89563,295.1391 528.8614,297.31829 C 533.2524,301.61585 533.94099,307.79106 534.63966,313.59338 C 534.65567,319.2237 534.25047,324.996 531.39998,329.96038 L 523.63221,333.38646 C 526.78878,328.74512 527.03304,322.96932 527.16884,317.51134 C 526.53375,312.03373 526.00902,305.97613 521.75269,301.98762 C 517.86446,300.17534 513.71649,301.17732 509.89798,302.77843 C 522.62107,295.07532 506.84622,304.41005 505.24452,309.1224 C 503.93542,311.37316 502.56562,313.43204 501.81533,315.95034 C 501.41608,317.29043 501.86239,319.07271 500.8444,320.03132 C 498.53551,322.20553 495.77444,323.84292 493.23946,325.74872 C 491.06221,323.11059 492.05847,318.40929 490.41836,315.47292 C 489.02908,309.66765 488.74755,303.50676 485.8291,298.15429 C 484.94372,296.33951 484.14799,294.75691 482.32328,293.7079 C 480.30012,292.5448 479.13505,293.119 479.37626,292.90114 C 481.05209,291.38757 483.15404,290.42613 485.04292,289.18862 C 481.13717,292.54768 479.48511,297.59798 478.37694,302.50204 C 477.57313,305.71729 476.91772,308.74983 476.79008,312.07176 C 476.7694,312.61 477.19236,313.32985 476.78974,313.68766 C 474.59624,315.63705 471.90941,316.94782 469.46924,318.57789 C 471.42729,318.11854 470.81131,309.46303 471.35111,307.65093 C 472.40923,299.13625 473.7504,290.66643 475.8555,282.33892 L 483.46097,278.59871 z" />
    <path
       style="fill:#241f1c;fill-opacity:1;stroke:#000000;stroke-width:4;stroke-linecap:round;stroke-linejoin:round;stroke-miterlimit:4;stroke-dasharray:none;stroke-dashoffset:0;stroke-opacity:1"
       id="path2399"
       d="M 558.68566,323.79454 C 560.69292,330.25493 562.11342,336.86196 563.09892,343.54823 C 563.47268,346.40774 563.3157,345.00796 563.57678,347.74679 L 556.04564,351.6703 C 555.81201,348.95435 555.95316,350.34598 555.61529,347.4961 C 554.69604,340.85176 553.32898,334.27608 551.25283,327.88813 L 558.68566,323.79454 z" />
    <path
       style="fill:#241f1c;fill-opacity:1;stroke:#000000;stroke-width:4;stroke-linecap:round;stroke-linejoin:round;stroke-miterlimit:4;stroke-dasharray:none;stroke-dashoffset:0;stroke-opacity:1"
       id="path2401"
       d="M 640.91911,518.54472 C 640.89209,526.57693 639.59201,534.54219 638.84269,542.52963 C 638.64831,543.59053 638.4766,544.65583 638.25955,545.71233 C 638.15245,546.23368 637.44891,551.23984 636.54631,551.62801 C 628.21774,555.20986 628.59496,556.56521 629.01851,552.41475 C 630.36154,547.31146 632.68794,542.53799 635.1116,537.87388 C 638.76585,531.41391 644.94843,527.1011 652.05177,524.7903 C 656.08373,523.47555 657.70496,527.62407 658.92338,530.72311 C 660.45378,535.69722 660.68513,540.93565 660.88224,546.10064 C 660.64441,550.22929 659.48713,554.0995 657.43241,557.67061 C 655.36552,560.54013 656.20281,560.14935 649.20316,561.01997 C 648.67896,561.08517 649.61805,560.04821 649.81182,559.55679 C 651.67077,554.84235 649.31097,560.56396 651.6026,555.08474 C 654.30668,549.94594 657.71657,545.26342 661.3862,540.78294 C 663.11321,539.04895 664.84232,537.22259 667.02556,536.04606 C 673.76843,532.41238 674.36056,529.5556 679.01287,532.87372 C 682.8018,537.14591 683.01013,543.17683 683.46937,548.60331 C 683.75052,553.4002 684.2541,558.62537 681.88744,563.00573 C 681.6242,563.31273 681.36097,563.61973 681.09773,563.92672 L 673.22388,567.1932 C 673.51416,566.94063 673.80444,566.68806 674.09472,566.43549 C 676.99413,562.57019 676.10562,556.99958 675.97771,552.49859 C 675.56455,547.36846 675.48063,541.48352 671.85418,537.46567 C 668.26937,535.35713 666.64225,538.57231 674.93607,532.98094 C 675.5454,532.57015 673.63399,533.67053 673.03146,534.09124 C 671.78325,534.96279 670.25694,536.46148 669.16914,537.47265 C 665.48313,541.88783 662.10405,546.51665 659.29343,551.54597 C 656.02844,559.18698 658.73208,556.27861 648.79837,561.96098 C 648.73712,561.99601 648.92306,561.89489 648.9854,561.86184 C 649.20468,561.61096 649.42396,561.36008 649.64324,561.1092 C 651.87743,557.76533 652.94546,553.96205 653.3435,549.97582 C 653.17432,544.9 652.98674,539.75087 651.51382,534.85361 C 650.35058,531.86801 649.08263,528.52954 645.35329,530.02523 C 642.06032,531.3686 641.90919,531.52092 649.41677,527.33823 C 650.03135,526.99583 648.20254,528.05892 647.65598,528.50188 C 645.67467,530.10765 644.07806,532.20013 642.82814,534.40139 C 640.39609,538.9789 638.15181,543.6695 636.64233,548.64085 C 636.05577,553.09414 636.78627,550.62195 628.77186,555.13024 C 628.45464,555.30869 629.199,554.53314 629.33893,554.19715 C 630.38638,551.68215 630.67357,548.90875 631.30201,546.2831 C 632.05282,538.32885 633.40182,530.39153 633.36661,522.39291 L 640.91911,518.54472 z" />
    <path
       style="fill:#241f1c;fill-opacity:1;stroke:#000000;stroke-width:4;stroke-linecap:round;stroke-linejoin:round;stroke-miterlimit:4;stroke-dasharray:none;stroke-dashoffset:0;stroke-opacity:1"
       id="path2403"
       d="M 699.68677,574.78997 C 705.88537,573.06945 712.12501,570.84939 718.61505,570.85279 C 724.38627,571.88565 725.4402,576.46696 724.69803,581.57978 C 722.75398,587.45766 719.71788,592.90515 716.64595,598.25632 C 716.20133,599.91837 711.89413,604.90058 714.03125,606.54559 C 716.80024,608.61658 720.12122,609.0664 723.45292,609.49817 C 725.93886,609.66735 728.371,610.38736 730.52363,608.894 L 723.87797,614.24776 C 721.51519,615.22697 718.98965,614.58219 716.51407,614.39627 C 713.02826,613.89091 709.57651,613.28137 706.75241,611.00796 C 704.29297,608.20681 707.81741,604.41595 708.92159,601.69407 C 712.00376,596.42146 714.94823,591.03281 717.08899,585.30013 C 717.96907,580.64418 717.21991,576.49068 711.77672,575.84089 C 705.33085,576.09216 699.12941,578.17104 692.98582,579.99591 L 699.68677,574.78997 z" />
    <path
       style="fill:#241f1c;fill-opacity:1;stroke:#000000;stroke-width:4;stroke-linecap:round;stroke-linejoin:round;stroke-miterlimit:4;stroke-dasharray:none;stroke-dashoffset:0;stroke-opacity:1"
       id="path2405"
       d="M 75.204821,729.97329 C 75.142627,738.64752 75.163284,747.32205 75.175242,755.99642 C 74.720498,755.97907 74.186818,768.80177 74.474132,765.02543 C 64.036836,771.73252 67.852937,768.59215 70.192252,764.97973 C 71.77091,762.54193 73.211982,760.13086 74.976097,757.81527 C 80.059971,749.99064 84.795096,747.57261 93.142518,743.10435 C 97.792036,743.3807 99.252021,746.67106 100.20634,750.73299 C 101.05236,755.19012 100.97206,759.75063 100.9936,764.26787 C 100.28674,769.87745 99.645928,770.39069 92.533156,771.43038 C 92.026603,771.50442 93.02034,770.52984 93.263932,770.07957 C 96.33473,765.59811 100.03553,761.54696 103.64455,757.49063 C 108.98692,752.3 115.62968,745.85353 123.31681,745.2207 C 128.02648,746.43604 128.58238,751.57925 129.13248,755.69759 C 129.57298,760.49634 129.58155,765.32133 129.56823,770.13618 C 129.55964,772.30371 129.56416,771.27707 129.55495,773.21613 L 121.96262,777.07554 C 121.99024,775.13129 121.97739,776.16023 121.99984,773.98872 C 122.02425,769.20454 122.06128,764.41034 121.63607,759.64012 C 121.18642,756.08264 120.91067,750.91027 116.51206,750.31079 C 114.01492,750.81803 107.04697,753.93989 118.07591,748.52718 C 118.86485,748.13998 116.64133,749.54377 115.94746,750.08313 C 113.35707,752.09669 113.75437,751.85208 111.43473,754.21729 C 107.79846,758.18409 104.2625,762.30057 101.03297,766.60411 C 98.734837,770.65404 100.50322,768.05642 91.904797,772.71221 C 91.814344,772.76119 91.922784,772.49795 91.981064,772.4132 C 92.877398,771.10963 92.488834,772.59134 93.058424,770.26262 C 93.230707,769.55826 93.310646,768.83446 93.436758,768.12038 C 93.438212,763.66101 93.50245,759.16273 92.736027,754.75399 C 91.936985,751.1798 90.741793,747.94467 86.448597,748.34323 C 101.17795,739.03412 90.981922,745.41378 90.156351,746.06649 C 87.196881,748.4063 84.959047,751.4744 82.746504,754.4857 C 77.110652,761.4921 77.099975,765.93474 67.829906,770.4042 C 64.635926,769.20594 68.103454,762.22583 67.681901,759.81446 C 67.693829,751.15015 67.714644,742.48566 67.652322,733.82148 L 75.204821,729.97329 z" />
    <path
       style="fill:#241f1c;fill-opacity:1;stroke:#000000;stroke-width:4;stroke-linecap:round;stroke-linejoin:round;stroke-miterlimit:4;stroke-dasharray:none;stroke-dashoffset:0;stroke-opacity:1"
       id="path2407"
       d="M -5.4146118,209.75205 C -7.6154334,217.63716 -9.8682341,225.52584 -11.576136,233.53845 C -11.781383,234.62816 -12.00383,235.71476 -12.191877,236.80756 C -12.221562,236.98007 -13.544855,245.14865 -12.790601,244.15712 C -15.028565,245.28297 -17.169676,246.62657 -19.504492,247.53468 C -19.510882,247.53717 -19.032419,247.22574 -17.374236,244.65089 C -15.621179,241.92873 -14.178136,239.04761 -12.648483,236.19729 C -8.8902936,229.11532 -4.5324755,222.36625 -0.19712549,215.62672 C 3.4735962,210.02645 9.7272078,201.96416 17.256647,203.66996 C 20.800998,205.32374 20.633549,209.89766 20.854086,213.26722 C 20.890903,218.52497 21.349109,223.83994 20.653921,229.06475 C 19.542088,234.38635 19.037262,234.56779 11.955829,235.91537 C 11.440466,236.01344 12.420202,234.9745 12.652388,234.50407 C 14.499486,230.91635 16.929583,227.68952 19.123169,224.31474 C 23.301882,219.77979 30.453259,212.70335 33.762731,220.6839 C 35.903899,227.13666 37.260121,233.85108 38.818692,240.4729 C 39.035408,241.43106 39.252123,242.38921 39.468839,243.34736 L 32.021611,247.34929 C 31.81252,246.39048 31.603429,245.43167 31.394338,244.47286 C 29.871005,237.89373 28.504907,231.22434 26.350265,224.82917 C 25.977537,223.89282 25.870118,222.86725 24.825713,222.42632 C 24.488254,222.28385 23.443943,222.5627 23.730634,222.3347 C 34.488478,213.77909 29.205108,219.01266 26.899114,220.89955 C 24.728637,224.27303 22.301714,227.45876 20.408112,231.0014 C 19.073427,233.54855 10.03747,239.71872 11.541044,236.77491 C 12.286419,235.31556 11.871607,236.94542 12.541478,234.82375 C 12.75071,234.16105 12.878331,233.4753 13.046757,232.80108 C 13.889286,227.64878 13.315691,222.3652 13.325244,217.16353 C 13.150305,214.3038 13.529046,209.77508 10.295037,208.57233 C 7.7997046,208.42612 1.0191713,210.88995 12.755167,205.66704 C 13.43988,205.36232 7.4766869,211.25117 7.5249141,212.23546 C 3.1606986,218.94069 -1.1977468,225.67841 -4.9562036,232.74419 C -5.9473592,234.5874 -10.039957,243.36551 -11.58072,244.37115 C -14.225334,246.09725 -17.105678,247.43194 -19.868158,248.96234 C -22.113791,247.11608 -19.236072,239.74794 -19.151554,237.20103 C -17.458411,229.17279 -15.145932,221.29699 -13.095299,213.35919 L -5.4146118,209.75205 z" />
    <path
       style="fill:#241f1c;fill-opacity:1;stroke:#000000;stroke-width:4;stroke-linecap:round;stroke-linejoin:round;stroke-miterlimit:4;stroke-dasharray:none;stroke-dashoffset:0;stroke-opacity:1"
       id="path2409"
       d="M 401.23408,392.42365 C 402.45616,401.38898 403.01079,410.42605 403.40737,419.45978 C 403.63008,424.13329 403.7032,428.81124 403.82301,433.48784 C 401.49733,434.14181 399.25699,435.60282 396.84597,435.44974 C 395.82173,435.38471 402.33198,420.93692 402.61316,420.30267 C 406.51757,412.72322 411.92726,406.16857 418.16388,400.41265 C 423.5118,396.01661 429.48602,392.01709 436.23014,390.20715 L 429.49532,395.39372 C 428.25866,395.77194 424.79193,397.46035 425.84649,396.71183 C 427.47872,395.55327 429.27007,394.63628 431.00583,393.63948 C 431.8433,393.15855 429.32915,394.60424 428.54206,395.16383 C 427.64262,395.8033 426.81756,396.54141 425.95531,397.2302 C 419.6512,402.83696 414.26698,409.33654 410.26532,416.79618 C 408.82798,420.06848 407.14369,423.29299 405.94614,426.66453 C 405.62477,427.56931 405.36608,428.49583 405.1179,429.42336 C 404.90129,430.23288 405.17754,431.31478 404.55249,431.87296 C 402.06903,434.09073 398.99412,435.54022 396.21494,437.37385 C 396.24125,432.68129 396.09993,427.9893 395.94973,423.29973 C 395.57821,414.31068 395.07046,405.30753 393.73516,396.40188 L 401.23408,392.42365 z" />
    <path
       style="fill:#241f1c;fill-opacity:1;stroke:#000000;stroke-width:4;stroke-linecap:round;stroke-linejoin:round;stroke-miterlimit:4;stroke-dasharray:none;stroke-dashoffset:0;stroke-opacity:1"
       id="path2413"
       d="M 429.80551,429.56651 C 431.06999,438.41205 431.5933,447.33464 431.97756,456.25412 C 431.64046,461.77736 431.65716,467.51149 430.01383,472.84098 L 422.32828,476.44431 C 424.26255,471.28553 424.04454,465.51233 424.5224,460.09214 C 424.1609,451.21787 423.67239,442.33116 422.30659,433.54473 L 429.80551,429.56651 z" />
    <path
       style="fill:#241f1c;fill-opacity:1;stroke:#000000;stroke-width:4;stroke-linecap:round;stroke-linejoin:round;stroke-miterlimit:4;stroke-dasharray:none;stroke-dashoffset:0;stroke-opacity:1"
       id="path2415"
       d="M 380.91911,561.40186 C 380.89209,569.43407 379.59201,577.39933 378.84269,585.38677 C 378.15779,585.82794 378.27709,595.97711 378.15909,596.02098 C 375.74963,596.91671 373.25075,597.55058 370.79658,598.31538 C 372.12076,592.26628 375.75577,587.03929 379.19172,582.00149 C 384.12279,574.61806 389.7012,568.08523 396.77113,562.70357 C 403.99914,558.17068 411.86205,550.26445 420.81758,553.46649 C 425.15699,555.22214 427.73585,559.33358 430.78712,562.69792 C 432.37422,564.42318 431.62329,563.61183 433.03833,565.13344 L 425.76085,569.5513 C 424.36248,568.01366 425.10583,568.83263 423.53145,567.09381 C 420.58485,563.82017 418.0704,559.83045 413.80446,558.23382 C 411.73533,557.63958 411.49643,557.34444 409.23504,557.68238 C 408.36307,557.81269 406.11812,559.05351 406.68273,558.37635 C 407.8233,557.00841 409.79295,556.59066 411.12813,555.4119 C 413.06977,553.69771 402.13534,561.19344 404.58253,559.59891 C 397.42354,564.84413 391.82237,571.2616 386.90332,578.6406 C 383.49297,583.55977 379.84698,588.69923 378.45953,594.60841 C 375.8024,596.34092 373.20113,598.16231 370.48812,599.80595 C 369.96074,600.12546 370.64091,598.58155 370.68237,597.96632 C 370.88066,595.02377 371.04027,592.07833 371.30201,589.14024 C 372.05282,581.18599 373.40182,573.24867 373.36661,565.25005 L 380.91911,561.40186 z" />
    <path
       style="fill:#241f1c;fill-opacity:1;stroke:#000000;stroke-width:4;stroke-linecap:round;stroke-linejoin:round;stroke-miterlimit:4;stroke-dasharray:none;stroke-dashoffset:0;stroke-opacity:1"
       id="path2419"
       d="M 382.58557,620.89782 C 387.47432,620.59925 392.5465,621.37841 395.98821,625.08891 C 398.60605,628.52285 395.7974,632.27033 393.37007,634.91215 C 391.06777,637.30269 388.01037,638.84932 385.63995,641.1436 C 386.14367,641.74693 389.40973,642.78756 390.92157,643.15348 C 394.34292,643.94014 397.86003,644.05484 401.35423,644.13929 C 403.52063,644.63497 406.77487,643.24381 408.57846,644.694 C 409.25973,645.56608 409.82589,646.52713 408.95872,647.44946 L 400.98187,650.52963 C 401.97969,650.28137 402.14971,650.2858 401.39007,649.31671 C 399.27369,648.56847 396.64093,649.60924 394.46178,649.11743 C 390.92578,649.00421 387.36974,648.84134 383.92178,647.97494 C 382.17024,647.49972 378.02714,646.68831 377.79006,644.51302 C 379.4516,641.73162 383.47406,640.66176 385.53538,638.16626 C 387.74711,636.05807 390.99059,632.56971 388.72586,629.51215 C 385.3761,626.05754 380.3997,625.56734 375.8013,626.00016 L 382.58557,620.89782 z" />
    <path
       style="fill:#241f1c;fill-opacity:1;stroke:#000000;stroke-width:4;stroke-linecap:round;stroke-linejoin:round;stroke-miterlimit:4;stroke-dasharray:none;stroke-dashoffset:0;stroke-opacity:1"
       id="path2421"
       d="M 314.26646,38.379227 C 310.19259,45.930147 305.36118,53.041063 301.13688,60.499856 C 297.36616,67.054526 294.27586,74.013717 291.83171,81.167082 C 289.59307,86.511397 288.07195,92.064728 287.18366,97.780118 C 286.36666,101.86419 287.06445,105.65587 288.57822,109.46192 C 290.30595,113.42831 293.17486,116.69939 295.24254,120.46716 C 297.5973,124.4482 300.26233,128.14348 303.53242,131.42225 C 306.8928,134.90724 310.975,136.89955 315.65218,137.84782 C 320.79997,139.53703 326.12052,140.39043 331.49706,140.89202 C 337.61604,141.34059 343.7564,141.32326 349.88806,141.33857 C 357.42379,140.99179 364.39448,138.32672 371.29303,135.50317 C 386.61357,126.87462 346.44545,150.69849 381.79728,129.6784 C 383.09581,128.9063 379.32804,131.72103 377.82352,131.85789 C 376.57536,131.97143 379.91855,130.48073 380.94127,129.75627 C 381.9691,129.0282 382.96278,128.25306 383.97354,127.50146 C 389.213,123.58123 393.90131,119.15171 397.65478,113.78886 C 400.49968,108.54439 403.0858,103.13455 405.15192,97.534649 C 406.85763,93.089671 407.34153,88.375934 407.59746,83.663713 C 407.82618,80.29022 406.67018,77.005176 405.65698,73.827901 C 404.38751,70.13342 406.89667,71.300831 413.05888,69.623896 C 413.33114,69.549805 413.00656,70.276462 412.76157,70.416453 C 404.77582,74.979712 407.25827,75.587061 403.31843,74.130663 C 399.82401,72.238883 397.16247,69.281142 394.64936,66.268276 C 393.3651,65.341602 392.33456,63.148253 390.6111,62.834661 C 390.34155,62.785616 389.58463,63.212555 389.83019,63.091053 C 391.965,62.034755 393.9967,60.686427 396.28544,60.027012 C 396.77053,59.887253 395.87311,60.948612 395.66695,61.409412 C 394.72636,65.723023 393.64685,69.995011 393.01063,74.367765 C 392.88452,78.404571 391.70037,82.221853 390.67643,86.091147 C 389.49076,89.904832 389.63133,88.760021 382.21122,90.416357 C 382.03056,90.456684 381.88466,86.572173 381.88251,86.496677 C 382.60184,82.191764 383.68824,77.982858 384.2284,73.644453 C 384.44066,69.85412 384.94916,66.062691 386.75435,62.677016 C 390.30859,57.887087 396.1709,55.839515 401.8765,55.566669 C 406.18681,55.443582 410.50039,55.519367 414.81176,55.544263 C 420.08424,55.576488 425.35682,55.580102 430.62938,55.582621 C 433.66412,55.587021 436.69888,55.581511 439.73358,55.565524 C 442.8997,55.580689 442.60783,54.643138 433.05427,58.683631 L 440.60068,54.735542 C 433.97555,60.21028 436.47971,60.629195 432.82023,60.588429 C 429.80381,60.572643 426.78735,60.564953 423.77089,60.564437 C 418.49929,60.555224 413.22768,60.541302 407.95611,60.519806 C 403.64912,60.50041 399.33855,60.428177 395.03394,60.602786 C 393.80639,60.695755 392.77834,60.722738 391.5829,60.992747 C 391.15399,61.089624 389.95766,61.628729 390.32323,61.38437 C 402.00612,53.575033 396.57791,57.282939 394.53608,59.230317 C 392.41615,62.330888 392.09901,66.236364 391.82755,69.885458 C 391.336,74.192345 390.37277,78.382322 389.45266,82.613308 C 389.45565,82.727226 389.7782,86.258541 389.69933,86.316767 C 375.74946,96.615708 381.99647,92.360985 383.00347,89.752898 C 384.03015,85.905559 385.30605,82.133538 385.40184,78.112001 C 386.00027,73.683558 387.16129,69.385975 387.95314,64.998059 C 391.20379,54.565019 397.60904,56.882143 401.92149,61.898871 C 404.34782,64.774326 406.90127,67.68903 410.36267,69.325476 C 413.89019,70.152935 411.55881,69.349493 404.90627,73.778035 C 404.73606,73.891343 405.27749,73.605031 405.45386,73.501566 C 418.21027,66.018038 412.17344,66.884736 413.13053,69.7288 C 414.14364,73.002675 415.36758,76.390653 415.1792,79.849658 C 414.94591,84.633051 414.51146,89.439359 412.81129,93.961555 C 410.79442,99.634422 408.13446,105.05042 405.40274,110.40929 C 401.7372,115.90609 397.06517,120.4064 391.79828,124.38886 C 386.42824,128.46615 381.19259,131.42535 375.25535,134.97504 C 373.98739,135.73311 380.37132,132.01781 379.09073,132.75435 C 375.51372,134.81169 371.97903,136.94391 368.36607,138.93745 C 367.17418,139.59511 365.91129,140.11495 364.6839,140.7037 C 357.70896,143.48011 350.66611,146.10902 343.05968,146.29667 C 336.90648,146.27648 330.74279,146.30232 324.60537,145.79753 C 319.204,145.24862 313.88216,144.30076 308.68747,142.68447 C 303.9107,141.58566 299.74849,139.41049 296.3007,135.84775 C 293.01047,132.48569 290.2675,128.7478 287.88805,124.69186 C 285.80652,120.8956 282.89797,117.60527 281.16664,113.60417 C 279.56104,109.68951 278.76858,105.73878 279.57489,101.51398 C 280.42569,95.750091 281.89609,90.123385 284.19006,84.752839 C 286.58788,77.537519 289.70938,70.531812 293.47162,63.925006 C 297.60381,56.450789 302.51318,49.417793 306.54011,41.874871 L 314.26646,38.379227 z" />
    <path
       style="fill:#241f1c;fill-opacity:1;stroke:#000000;stroke-width:4;stroke-linecap:round;stroke-linejoin:round;stroke-miterlimit:4;stroke-dasharray:none;stroke-dashoffset:0;stroke-opacity:1"
       id="path2423"
       d="M 459.67692,32.404296 C 455.3914,37.562797 451.15737,42.776083 447.25055,48.230103 C 445.25617,51.080572 444.35372,54.117834 445.46506,57.453089 C 446.46017,59.102905 447.62763,60.379455 449.45993,60.970229 C 451.85312,61.654786 454.10245,61.23696 456.3769,60.405451 C 459.3855,59.117713 459.50559,59.016055 451.5296,63.291803 C 451.10769,63.517978 452.33678,62.775672 452.72249,62.492139 C 454.14593,61.445773 455.43057,60.234052 456.72318,59.035216 C 459.53384,56.547946 461.50966,53.405421 463.51741,50.287546 C 465.4202,46.223658 473.49921,38.493955 475.3644,46.556288 C 475.59117,49.744908 475.18775,52.878051 476.88223,55.726323 C 478.80545,58.399147 481.9963,57.156271 484.73207,56.605495 C 487.29623,55.438414 493.60418,52.522214 482.06987,58.374927 C 481.94971,58.435897 482.73259,58.059691 485.05895,56.110612 C 485.53432,55.71234 485.99356,55.295205 486.46086,54.887502 C 489.54237,51.902793 492.32169,48.590884 495.10016,45.318723 C 495.7175,44.049891 498.54181,42.159985 497.73804,40.643223 C 496.89472,40.035665 496.81581,38.894252 496.61995,37.915044 L 504.14703,33.898345 C 504.30256,34.747688 504.29081,35.706711 505.06888,36.234853 C 506.7,38.38823 504.07094,40.254619 502.90987,41.99839 C 500.19799,45.34572 497.27848,48.554777 494.33122,51.68431 C 489.54429,55.966542 484.11276,59.764149 477.94348,61.736616 C 474.81989,62.303866 471.56949,63.04769 469.51573,59.988949 C 467.78531,57.038813 467.88958,53.910743 467.85415,50.583667 C 467.78008,50.199111 467.73998,49.806423 467.63192,49.429999 C 467.52226,49.047971 466.91205,48.587406 467.20356,48.317231 C 479.1894,37.208593 473.07209,43.946358 471.29894,46.8824 C 469.18012,49.958268 467.44612,53.30268 464.58165,55.807963 C 460.24118,59.953944 455.48655,63.655203 449.65413,65.62759 C 447.26432,66.346373 444.78583,66.576266 442.37993,65.740345 C 440.40605,64.923378 439.08835,63.388357 437.99022,61.573333 C 436.78259,58.032456 437.37634,54.720079 439.48319,51.599008 C 443.37501,46.129481 447.61295,40.921147 451.87469,35.737704 L 459.67692,32.404296 z" />
  </g>
</svg>
