<?xml version="1.0" encoding="UTF-8" standalone="no"?>
<!-- Created with Inkscape (http://www.inkscape.org/) -->
<svg
   xmlns:dc="http://purl.org/dc/elements/1.1/"
   xmlns:cc="http://creativecommons.org/ns#"
   xmlns:rdf="http://www.w3.org/1999/02/22-rdf-syntax-ns#"
   xmlns:svg="http://www.w3.org/2000/svg"
   xmlns="http://www.w3.org/2000/svg"
   xmlns:sodipodi="http://sodipodi.sourceforge.net/DTD/sodipodi-0.dtd"
   xmlns:inkscape="http://www.inkscape.org/namespaces/inkscape"
   width="596.44562"
   height="416.08655"
   id="svg2"
   sodipodi:version="0.32"
   inkscape:version="0.46"
   sodipodi:docname="c19d3.svg"
   inkscape:output_extension="org.inkscape.output.svg.inkscape"
   version="1.0">
  <defs
     id="defs4">
    <inkscape:perspective
       sodipodi:type="inkscape:persp3d"
       inkscape:vp_x="0 : 526.18109 : 1"
       inkscape:vp_y="0 : 1000 : 0"
       inkscape:vp_z="744.09448 : 526.18109 : 1"
       inkscape:persp3d-origin="372.04724 : 350.78739 : 1"
       id="perspective10" />
  </defs>
  <sodipodi:namedview
     id="base"
     pagecolor="#ffffff"
     bordercolor="#666666"
     borderopacity="1.0"
     gridtolerance="10000"
     guidetolerance="10"
     objecttolerance="10"
     inkscape:pageopacity="0.0"
     inkscape:pageshadow="2"
     inkscape:zoom="0.35"
     inkscape:cx="375"
     inkscape:cy="520"
     inkscape:document-units="px"
     inkscape:current-layer="layer1"
     showgrid="false"
     inkscape:window-width="640"
     inkscape:window-height="681"
     inkscape:window-x="630"
     inkscape:window-y="0" />
  <metadata
     id="metadata7">
    <rdf:RDF>
      <cc:Work
         rdf:about="">
        <dc:format>image/svg+xml</dc:format>
        <dc:type
           rdf:resource="http://purl.org/dc/dcmitype/StillImage" />
      </cc:Work>
    </rdf:RDF>
  </metadata>
  <g
     inkscape:label="Layer 1"
     inkscape:groupmode="layer"
     id="layer1"
     transform="translate(-90.763652,-319.31557)">
    <path
       style="fill:#000000;fill-opacity:1;stroke:#000000;stroke-width:4;stroke-linecap:round;stroke-linejoin:round;stroke-miterlimit:4;stroke-dasharray:none;stroke-dashoffset:0;stroke-opacity:1"
       id="path2383"
       d="M 155.21246,660.5616 C 145.42219,659.14342 136.44485,654.71195 128.05158,649.69144 C 115.22837,640.56178 105.63729,627.75911 100.05255,613.04614 C 98.58975,609.19239 97.573918,605.18351 96.334602,601.2522 C 90.117587,573.74888 92.419385,545.38593 100.1385,518.39933 C 102.04268,511.74218 104.56259,505.27676 106.77464,498.71548 C 121.21036,463.74373 143.12678,432.28439 172.25297,407.94984 C 178.21736,402.96667 184.66725,398.59518 190.87439,393.91785 C 227.08437,369.77477 264.92819,354.86943 308.02013,348.84308 C 316.35749,347.67711 324.78156,347.24977 333.16228,346.45312 C 367.81015,344.66409 402.62328,348.69565 435.71225,359.31398 C 457.58786,366.33392 462.73849,369.77915 483.22896,379.82965 C 519.68059,401.05129 551.18522,429.99816 573.78587,465.76696 C 577.96609,472.38275 581.46489,479.40529 585.3044,486.22445 C 597.31213,511.73516 606.28653,539.14073 605.76737,567.6687 C 605.45072,585.06902 603.52649,588.486 599.21062,605.09979 C 596.63536,611.00811 594.52262,617.14036 591.48485,622.82473 C 578.16538,647.74849 556.93465,668.04432 533.6755,683.65385 C 527.13445,688.04364 520.16814,691.76394 513.41447,695.81899 C 482.27797,713.21574 448.53165,725.33702 413.17897,730.47918 C 391.10872,733.68937 383.62449,733.07481 361.36232,733.40213 C 319.23506,731.58866 277.08023,723.01792 238.21304,706.36132 C 231.34192,703.41669 224.75549,699.84769 218.02672,696.59088 C 201.34965,687.65622 185.87462,676.75925 173.64168,662.17665 C 170.33088,658.22992 167.64692,653.7972 164.64954,649.60748 L 170.91166,645.91375 C 173.8519,650.09647 176.47597,654.52034 179.73238,658.4619 C 191.77421,673.03731 207.08239,683.96003 223.60381,692.91237 C 230.28826,696.17495 236.82843,699.75145 243.65718,702.7001 C 282.39386,719.42655 324.47867,727.92877 366.51072,729.64925 C 388.75487,729.27876 396.23828,729.8814 418.28471,726.61741 C 449.31244,722.02373 479.11705,711.83558 507.27701,698.18621 C 514.01392,694.16213 520.96261,690.47309 527.48773,686.11397 C 550.66327,670.63153 571.8423,650.47252 585.17511,625.7184 C 588.21577,620.07301 590.33429,613.97756 592.91389,608.10715 C 597.30551,591.54516 599.22714,588.20285 599.63321,570.83522 C 600.2987,542.37199 591.49496,515.00927 579.5931,489.51248 C 575.78527,482.70023 572.32242,475.68334 568.16961,469.07573 C 545.70931,433.3388 514.27356,404.47062 477.88648,383.35076 C 457.4066,373.31247 452.34283,369.90543 430.46762,362.91942 C 397.39156,352.35634 362.60492,348.40735 327.9916,350.28642 C 319.60905,351.10841 311.1824,351.56362 302.84395,352.7524 C 265.28314,358.10726 228.67292,370.39763 197.00918,391.47745 C 180.94768,403.51516 175.42003,406.68301 161.37265,421.08891 C 140.43537,442.56057 124.34167,468.15372 112.94941,495.8177 C 110.75756,502.34494 108.25628,508.77631 106.37387,515.39941 C 98.757154,542.19821 96.585975,570.36973 102.93612,597.62763 C 104.1907,601.51526 105.22278,605.48186 106.69987,609.29051 C 112.34353,623.84265 121.91269,636.45502 134.75504,645.34667 C 143.16638,650.22934 152.22129,654.68754 162.05343,655.59134 L 155.21246,660.5616 z" />
    <path
       style="fill:#000000;fill-opacity:1;stroke:#000000;stroke-width:4;stroke-linecap:round;stroke-linejoin:round;stroke-miterlimit:4;stroke-dasharray:none;stroke-dashoffset:0;stroke-opacity:1"
       id="path2385"
       d="M 341.25683,603.42723 C 336.87497,602.35669 332.84322,600.55324 329.16178,597.96275 C 323.56352,593.80273 319.14551,588.67515 315.60001,582.71221 C 311.57187,576.46979 309.15131,569.68635 308.74221,562.28 C 309.3116,554.38045 312.26853,547.35822 316.95959,541.0772 C 324.6963,531.50821 333.71996,526.03905 344.32178,520.01186 C 351.79568,515.69123 359.71122,514.08929 368.22033,514.98569 C 376.47184,516.5636 382.58045,521.3936 387.76719,527.71237 C 392.60897,534.69717 394.00528,542.94771 394.77882,551.22203 C 395.01124,558.7327 393.2783,565.92018 390.07517,572.66223 C 384.54004,583.03646 374.19557,587.52473 364.24852,592.80012 C 357.5088,595.64977 350.60844,596.09539 343.41983,595.73196 L 349.9982,590.99448 C 357.14008,591.23165 363.9961,590.66122 370.63778,587.72102 C 369.76613,588.38174 366.97113,590.00361 368.02282,589.70317 C 373.16409,588.23444 379.84953,580.60525 382.53774,576.08194 C 385.825,569.49546 387.60954,562.43026 387.48306,555.02452 C 386.74145,546.91047 385.48906,538.78993 380.70752,531.94584 C 375.61766,525.79736 369.6043,521.14266 361.51168,519.76378 C 353.07699,519.05805 345.29,520.85226 337.93228,525.15842 C 338.99593,524.48899 341.8698,522.13912 341.12324,523.15012 C 340.25108,524.33121 338.6988,524.80918 337.53205,525.70042 C 332.80816,529.30887 328.40623,533.33727 324.51179,537.83136 C 319.74518,543.90845 316.83419,550.73682 316.09909,558.48866 C 316.36678,565.77351 318.81097,572.44162 322.74363,578.5753 C 326.23602,584.44025 330.63951,589.45054 336.19831,593.47316 C 339.80372,595.91056 343.78509,597.76181 348.12116,598.44 L 341.25683,603.42723 z" />
    <path
       style="fill:#000000;fill-opacity:1;stroke:#000000;stroke-width:4;stroke-linecap:round;stroke-linejoin:round;stroke-miterlimit:4;stroke-dasharray:none;stroke-dashoffset:0;stroke-opacity:1"
       id="path2387"
       d="M 325.37632,547.31964 C 327.7317,543.44911 330.12504,539.58778 332.68038,535.84225 C 333.68938,534.07019 335.38932,532.65301 336.00869,530.67971 C 336.55337,528.78411 333.66904,531.15176 343.16913,526.88529 C 343.49984,526.73677 342.6109,527.3492 342.35132,527.60228 C 341.45985,528.47142 341.03229,529.06002 340.20691,530.06482 C 337.10968,534.5581 334.40617,539.31998 332.26786,544.34019 C 330.0951,548.60191 328.3658,553.05245 325.98474,557.20807 C 325.57096,556.86088 325.83945,557.75874 325.60925,557.85317 C 314.94573,562.22738 318.17369,561.51157 321.09192,556.33904 C 323.74564,551.7508 326.23909,547.07333 328.90799,542.4961 C 330.24407,539.36816 342.23488,527.55464 341.35903,535.40875 C 339.27399,541.51634 336.39308,547.33079 333.89881,553.28604 C 331.03578,558.7625 329.57848,564.90708 326.1555,570.08725 C 326.01774,570.32011 325.98925,570.67545 325.74223,570.78585 C 318.31344,574.10573 317.11084,575.87308 318.98571,572.28326 C 320.1519,570.05036 321.56122,567.96088 322.85769,565.80235 C 326.33763,559.62213 331.19288,554.4342 335.57468,548.91561 C 342.15682,540.58855 342.94371,540.08857 352.93705,535.18089 C 355.03669,539.78808 351.68057,546.27874 350.33173,550.84342 C 348.20203,557.90122 345.15804,564.6255 342.81015,571.60437 C 341.11304,576.80667 341.99801,575.78915 334.212,578.43828 C 334.21155,578.43843 334.76199,577.68696 336.14518,575.79837 C 340.48565,569.31883 343.93783,562.29005 347.91223,555.57833 C 351.17202,550.31579 354.03857,544.7189 357.61239,539.65335 C 360.22461,538.1603 362.65222,536.28354 365.44905,535.17418 C 366.29425,534.83894 366.41847,536.80449 366.44577,537.71334 C 366.53659,540.73772 365.64229,543.947 365.02217,546.86104 C 363.18022,555.9116 360.20193,564.71746 357.17175,573.43283 C 355.53326,576.71152 354.66885,581.89765 352.98219,584.5044 C 350.53896,585.58195 348.18274,586.88363 345.65249,587.73707 C 345.52973,587.77847 346.01977,587.03519 346.78113,585.19029 C 347.82594,582.65859 348.85479,580.25122 350.13621,577.82163 C 353.78168,571.44828 357.03517,564.86427 360.55328,558.42107 C 362.44782,554.92819 370.3557,542.88664 374.41659,548.54252 C 374.49717,553.89088 372.49478,559.22951 370.84985,564.28107 C 369.13226,568.94211 367.82978,573.72835 367.00922,578.62457 C 367.53721,582.06726 372.90101,577.53982 360.1737,582.99502 C 359.52127,583.27467 360.99531,581.83516 361.35489,581.22314 L 369.10011,577.81024 C 368.87022,578.15007 368.58027,578.45625 368.41042,578.82973 C 368.25369,579.17435 368.45812,579.73382 368.13535,579.93167 C 363.58463,582.72112 360.27473,586.79736 359.42949,582.32414 C 360.31499,577.37835 361.57152,572.51791 363.34011,567.80718 C 364.99664,562.97775 366.49907,557.95717 367.10554,552.8861 C 365.54387,551.09608 356.09345,559.72166 372.52931,548.87212 C 373.05217,548.61385 367.8996,554.23057 368.12687,555.03205 C 364.54644,561.43516 361.32191,568.02499 357.71955,574.41553 C 356.82309,576.07018 353.8037,583.9472 353.40168,584.20891 C 350.86799,585.85828 348.13313,587.1758 345.49886,588.65925 C 345.0616,587.49632 349.49413,578.59902 349.73285,576.91052 C 352.83127,568.2605 355.81256,559.47198 357.59904,550.45113 C 358.50471,546.1094 358.27937,547.68934 358.75307,543.73288 C 358.83447,543.05304 358.97002,542.37592 358.9792,541.69129 C 358.98507,541.25333 358.35466,540.63908 358.72324,540.40245 C 360.91395,538.99605 363.1618,537.68074 365.38108,536.31988 C 361.35831,541.06525 358.86143,547.13839 355.38557,552.26209 C 351.41363,558.92776 347.98508,565.89928 343.85874,572.46299 C 343.23442,573.31911 342.97954,574.55485 342.06243,575.08555 C 331.96908,580.92611 333.39646,580.6206 335.2719,575.14283 C 337.61268,568.14646 340.7646,561.44876 342.89163,554.37342 C 344.14356,549.97614 346.53728,544.82372 346.10313,540.20959 C 348.21026,538.88087 350.33022,537.57227 352.42453,536.22342 C 352.88063,535.92967 351.44499,536.70795 351.0188,537.04363 C 347.94324,539.46607 345.90911,542.92115 343.16875,545.66448 C 338.85295,551.18416 333.93787,556.27582 330.47249,562.42152 C 326.05418,570.01212 327.59556,570.06714 317.98249,574.25056 C 317.70005,574.37348 318.27481,573.70826 318.42096,573.43711 C 322.28235,568.52752 323.42575,562.1399 326.41715,556.73296 C 328.86067,550.84817 331.65346,545.09319 333.72291,539.07204 C 335.06741,536.17594 335.82597,536.98643 340.80954,534.26294 C 342.69513,533.23248 334.42863,539.408 336.55624,539.10702 C 333.77411,543.59731 331.43193,548.3606 328.74041,552.91003 C 325.51625,559.07275 326.51921,557.59216 317.85904,561.4858 C 317.56663,561.61727 319.11551,559.2917 318.27691,560.61952 C 320.87447,556.57432 322.40814,552.02597 324.71285,547.82098 C 326.78634,542.7402 329.51496,537.98565 332.47014,533.36804 C 334.38856,530.92917 343.17323,521.27816 343.68735,527.01112 C 343.21602,529.20063 341.63834,530.67143 340.37332,532.49158 C 337.78874,536.18497 335.35039,540.01521 333.13359,543.92557 L 325.37632,547.31964 z" />
    <path
       style="fill:#000000;fill-opacity:1;stroke:#000000;stroke-width:4;stroke-linecap:round;stroke-linejoin:round;stroke-miterlimit:4;stroke-dasharray:none;stroke-dashoffset:0;stroke-opacity:1"
       id="path2389"
       d="M 393.10539,544.60906 C 396.38911,545.8143 399.85304,546.38593 403.31858,546.7465 C 406.92888,547.06644 410.55811,547.04231 414.17922,547.05434 C 419.02162,547.06335 423.86404,547.06011 428.70645,547.05915 C 435.14035,547.07819 441.5743,547.06821 448.00821,547.06379 C 453.90636,546.24255 459.7606,545.22291 465.69603,544.68701 C 472.24948,544.14786 478.72812,544.08438 485.22844,545.05766 C 491.06334,546.10522 496.96378,546.60727 502.87879,546.88015 C 508.82975,546.99708 514.50813,548.8926 520.47505,548.80975 C 525.96052,548.29627 531.43561,547.72507 536.93311,547.34496 C 541.19011,547.08686 545.45518,547.05649 549.71831,547.02384 C 553.26111,547.01265 556.80393,547.01808 560.34674,547.02499 C 563.93214,547.03468 567.51753,547.02356 571.10293,547.03189 C 574.53835,547.02065 577.97378,547.03498 581.40919,547.02831 C 585.12893,547.0291 588.8487,547.03962 592.56843,547.03133 C 596.63115,547.0409 600.69385,547.03362 604.75657,547.03875 C 609.73249,546.8735 614.76296,547.46946 619.68782,546.6579 C 622.71743,546.46968 629.7579,542.29252 619.19902,548.13363 L 627.0058,545.12382 C 621.81949,548.09456 618.525,550.87952 612.99032,551.66866 C 608.00926,552.25423 602.97491,551.83892 597.96745,551.97133 C 593.89792,551.97645 589.82841,551.9692 585.75888,551.97876 C 582.03631,551.97044 578.31371,551.98111 574.59114,551.98191 C 571.15922,551.97525 567.72729,551.98979 564.29536,551.97772 C 560.70797,551.9849 557.12062,551.97157 553.53323,551.97417 C 549.99402,551.97344 546.45481,551.96215 542.91561,551.97215 C 538.67555,551.98737 534.4334,552.04729 530.20019,552.30636 C 524.70365,552.66789 519.23797,553.3335 513.74308,553.69755 C 507.78943,553.57877 502.07045,551.84719 496.11734,551.74261 C 490.19155,551.43965 484.28681,550.88295 478.43989,549.84139 C 471.975,548.92675 465.50742,549.07567 459.00503,549.64421 C 453.06838,550.21777 447.21523,551.3203 441.28788,551.94649 C 434.8445,551.94319 428.40107,551.93471 421.95774,551.96338 C 417.09701,551.9718 412.23631,551.98923 407.37559,551.99368 C 403.73286,551.9792 400.07761,552.0036 396.45071,551.62069 C 392.93288,551.20241 389.44277,550.5349 386.08805,549.37026 L 393.10539,544.60906 z" />
    <path
       style="fill:#000000;fill-opacity:1;stroke:#000000;stroke-width:4;stroke-linecap:round;stroke-linejoin:round;stroke-miterlimit:4;stroke-dasharray:none;stroke-dashoffset:0;stroke-opacity:1"
       id="path2391"
       d="M 526.05226,523.11901 C 522.19249,527.19596 518.35826,531.31425 514.3388,535.24121 C 509.57515,539.23288 504.50875,542.84103 499.46483,546.46493 C 495.87094,549.24865 491.92112,551.51663 488.31534,554.28001 C 485.94218,556.60399 488.78977,558.59191 490.81626,559.8282 C 494.12244,561.87094 497.21197,564.20387 500.39786,566.41777 C 503.95314,569.06929 507.6885,571.53473 511.66704,573.50644 C 514.43935,574.65312 517.01827,576.22528 519.55825,577.81166 C 519.91727,578.02987 520.26201,578.26978 520.61024,578.50429 L 513.39695,583.09523 C 513.06977,582.86314 512.74582,582.6263 512.40813,582.40931 C 509.933,580.78995 507.37553,579.28372 504.65222,578.11603 C 500.678,576.05362 496.91388,573.59566 493.32245,570.92611 C 490.15275,568.69772 487.02201,566.42392 483.71298,564.3987 C 481.3653,562.852 478.30685,560.34498 480.48152,557.42195 C 484.01748,554.49926 488.12814,552.39043 491.71534,549.52283 C 496.80192,545.96355 501.78161,542.25311 506.66038,538.40878 C 510.65487,534.54909 514.34407,530.41702 518.29498,526.51308 L 526.05226,523.11901 z" />
    <path
       style="fill:#000000;fill-opacity:1;stroke:#000000;stroke-width:4;stroke-linecap:round;stroke-linejoin:round;stroke-miterlimit:4;stroke-dasharray:none;stroke-dashoffset:0;stroke-opacity:1"
       id="path2393"
       d="M 440.92286,480.0329 C 440.64671,486.36741 441.86663,492.63733 442.50771,498.92232 C 443.11111,505.27032 443.44305,511.63872 443.70105,518.0086 C 443.71892,518.48824 443.73738,518.96785 443.75465,519.4475 C 443.77738,520.07851 443.85095,521.5341 443.82228,521.54638 C 435.7977,524.98317 436.22174,526.98798 436.24295,522.97407 C 436.32693,517.73458 436.09308,512.49218 436.62202,507.27523 C 437.11033,501.35216 439.92738,496.25657 443.64394,491.76121 C 450.45534,485.35744 458.95416,481.03165 467.2854,476.92395 C 471.72566,474.41546 476.30382,472.2137 481.07764,470.42209 C 481.87763,470.12691 482.70139,469.80395 483.53764,469.74303 C 483.57558,469.78832 483.61352,469.83362 483.65145,469.87892 L 476.57832,474.71749 C 476.60372,474.75913 476.62912,474.80078 476.65452,474.84242 C 475.94655,475.13956 475.14622,475.34573 474.42071,475.63589 C 469.71781,477.4228 465.23596,479.66992 460.82752,482.08931 C 458.6817,483.17561 452.50842,486.89022 454.46353,485.48944 C 455.72487,484.58573 457.03399,483.71014 458.46598,483.11256 C 464.50751,480.59139 444.91762,490.57621 451.32077,488.50726 C 447.5668,492.82267 444.59714,497.76854 444.06076,503.58559 C 443.46422,508.75007 443.77586,513.94106 443.77439,519.13322 C 443.85283,525.40279 434.21156,529.19425 436.22316,521.84584 C 436.11478,515.46521 435.8232,509.08584 435.22005,502.73138 C 434.55208,496.4526 433.32495,490.21058 433.36286,483.88491 L 440.92286,480.0329 z" />
    <path
       style="fill:#000000;fill-opacity:1;stroke:#000000;stroke-width:4;stroke-linecap:round;stroke-linejoin:round;stroke-miterlimit:4;stroke-dasharray:none;stroke-dashoffset:0;stroke-opacity:1"
       id="path2395"
       d="M 421.60031,449.86857 C 425.74575,449.89704 429.89132,449.90996 434.03685,449.90067 C 438.1344,449.90724 442.23192,449.88734 446.32946,449.88726 C 449.34275,449.88205 452.35606,449.87489 455.36936,449.88019 C 457.79118,449.89079 460.21304,449.86134 462.63483,449.86802 C 467.00965,450.05847 468.58834,448.18062 458.42504,453.65785 L 466.30253,450.38299 C 459.70312,454.21688 460.65615,455.01668 455.769,454.85634 C 453.35838,454.86295 450.94768,454.83359 448.53702,454.84418 C 445.53021,454.84944 442.52339,454.84237 439.51659,454.8371 C 435.43135,454.83703 431.34613,454.8171 427.26088,454.8237 C 423.0859,454.81429 418.91087,454.82771 414.73598,454.8558 L 421.60031,449.86857 z" />
    <path
       style="fill:#000000;fill-opacity:1;stroke:#000000;stroke-width:4;stroke-linecap:round;stroke-linejoin:round;stroke-miterlimit:4;stroke-dasharray:none;stroke-dashoffset:0;stroke-opacity:1"
       id="path2397"
       d="M 447.3911,438.89478 C 451.35045,440.13685 455.45969,440.67243 459.57786,441.03444 C 462.90956,441.30309 466.25346,441.31664 469.5936,441.33078 C 472.68535,441.11041 474.95411,442.68582 476.799,444.98598 C 477.6985,448.05152 474.49875,450.52891 472.53216,452.41945 C 468.96959,455.3962 465.78162,458.75645 462.77907,462.28755 C 461.75163,463.50418 460.73864,464.73285 459.7275,465.96301 L 451.93612,469.27496 C 452.97522,468.03612 454.01481,466.79769 455.05689,465.56135 C 458.05279,462.00817 461.17474,458.57283 464.75804,455.60193 C 466.55888,454.01674 469.34987,451.90728 469.51783,449.3367 C 467.78025,447.14815 465.62464,446.07847 462.76309,446.28868 C 459.42023,446.27235 456.07317,446.21551 452.74258,445.90418 C 448.56263,445.49276 444.40481,444.8746 440.37376,443.65597 L 447.3911,438.89478 z" />
    <path
       style="fill:#000000;fill-opacity:1;stroke:#000000;stroke-width:4;stroke-linecap:round;stroke-linejoin:round;stroke-miterlimit:4;stroke-dasharray:none;stroke-dashoffset:0;stroke-opacity:1"
       id="path2399"
       d="M 613.08706,559.09666 C 611.3702,552.90987 611.21546,546.44477 610.97132,540.07148 C 610.55835,527.8981 610.9955,515.71492 610.36434,503.55107 C 609.23037,492.30137 609.10548,480.94979 607.78007,469.7241 C 606.74269,463.11978 605.73996,456.51208 605.16543,449.84931 C 604.86305,446.38299 604.7935,442.90219 604.786,439.42449 C 604.7914,436.19449 604.80796,432.96446 604.80152,429.73446 C 604.79497,427.18195 604.81371,424.62974 604.78974,422.07723 C 604.78333,421.38821 604.77224,420.69926 604.75598,420.01041 C 604.7567,419.99366 604.75446,419.97706 604.7537,419.96038 L 612.38926,416.0683 C 612.38853,416.08614 612.38679,416.10394 612.38707,416.12183 C 612.37117,416.82238 612.35991,417.52304 612.3531,418.22375 C 612.328,420.78292 612.34553,423.34189 612.32871,425.90102 C 612.30964,429.13054 612.30327,432.36022 612.30665,435.58977 C 612.31947,439.0595 612.33232,442.53161 612.58218,445.99449 C 613.08791,452.67582 614.01026,459.30538 615.02399,465.92714 C 616.30815,477.19478 616.32302,488.58858 617.48562,499.875 C 618.14176,512.01492 617.73974,524.17883 618.243,536.32755 C 618.53298,542.58403 618.70878,548.9612 620.51512,555.0057 L 613.08706,559.09666 z" />
    <path
       style="fill:#000000;fill-opacity:1;stroke:#000000;stroke-width:4;stroke-linecap:round;stroke-linejoin:round;stroke-miterlimit:4;stroke-dasharray:none;stroke-dashoffset:0;stroke-opacity:1"
       id="path2401"
       d="M 565.65412,430.36414 C 569.34854,428.00398 572.72166,425.196 576.00772,422.30667 C 579.46793,419.35185 582.39446,415.85818 585.21178,412.30196 C 587.88332,408.70089 590.69795,405.27258 594.2108,402.47137 C 601.1902,397.8873 605.03708,395.76844 611.72231,399.78465 C 615.55694,403.20818 618.97081,407.04371 622.35376,410.90871 C 626.82911,415.883 630.71411,421.35609 634.49831,426.86412 C 635.89933,428.8961 637.31392,430.91865 638.73046,432.93982 L 631.47798,437.19986 C 630.11563,435.14657 628.74956,433.09571 627.35836,431.06179 C 623.58669,425.58351 619.72109,420.13249 615.23221,415.21143 C 611.88015,411.43555 608.53184,407.63286 604.67238,404.36436 C 603.26693,403.59205 601.74384,402.67841 600.0976,402.52273 C 596.5965,402.19165 591.72465,405.42261 602.01064,399.35626 C 598.41475,402.05121 595.54518,405.37878 592.90098,409.00907 C 590.09781,412.60289 587.22074,416.15917 583.76157,419.14837 C 580.52106,422.05763 577.18005,424.87794 573.53932,427.27889 L 565.65412,430.36414 z" />
    <path
       style="fill:#000000;fill-opacity:1;stroke:#000000;stroke-width:4;stroke-linecap:round;stroke-linejoin:round;stroke-miterlimit:4;stroke-dasharray:none;stroke-dashoffset:0;stroke-opacity:1"
       id="path2403"
       d="M 620.63897,328.72792 C 620.13861,335.22715 620.37084,341.82792 620.91711,348.32132 C 621.65251,355.95116 622.55491,363.51021 624.63366,370.89888 C 625.0334,372.17875 625.47082,374.03073 626.74237,374.82938 C 627.16282,375.09346 628.51524,373.93603 628.06135,374.13731 C 625.91336,375.08985 623.87379,376.27019 621.78001,377.33663 C 625.47214,372.32954 627.58409,366.32155 629.56394,360.48044 C 632.28593,352.38199 635.23196,344.3433 637.30447,336.04667 C 638.46378,332.29791 639.75913,328.59298 641.05395,324.88938 L 648.71634,321.31557 C 647.32534,325.01209 646.01134,328.7364 644.75018,332.47924 C 642.6795,340.80315 639.69362,348.85444 636.99675,356.98746 C 635.10098,362.87002 633.00266,368.85577 629.55673,374.03127 C 622.92565,378.44971 619.6952,383.46837 617.29701,374.88512 C 615.34385,367.40218 614.3884,359.7961 613.65942,352.10229 C 613.02241,345.53824 612.88724,338.92651 612.96321,332.33274 L 620.63897,328.72792 z" />
    <path
       style="fill:#000000;fill-opacity:1;stroke:#000000;stroke-width:4;stroke-linecap:round;stroke-linejoin:round;stroke-miterlimit:4;stroke-dasharray:none;stroke-dashoffset:0;stroke-opacity:1"
       id="path2405"
       d="M 603.98073,576.81869 C 600.3308,573.60753 596.5027,570.73949 593.25725,567.09589 C 589.18008,563.05226 588.55395,557.94799 588.83047,552.47773 C 589.85669,545.51318 594.08774,539.87387 598.79833,534.8895 C 605.00629,529.4604 612.1099,523.13177 620.70628,522.83349 C 625.2672,523.72438 627.19132,526.65025 628.43322,530.86082 C 629.0848,537.50565 624.56354,542.9175 620.97784,548.06223 C 614.57989,556.21179 606.03195,562.56121 596.08516,565.76639 C 589.96349,567.40849 585.20311,566.70893 580.76616,562.15324 C 576.89659,557.04869 578.20934,551.46525 580.81898,546.16011 C 584.22785,540.13303 589.69361,535.97301 595.472,532.39474 C 602.64841,528.00829 609.83689,523.89045 618.37706,525.14046 C 622.87075,526.86668 623.20003,531.72031 623.599,535.90786 C 623.61726,542.26442 621.17166,547.68051 617.3774,552.63737 C 612.38488,558.08703 605.1577,563.18361 597.52304,562.84485 C 592.55397,562.39317 591.59704,558.42754 591.73512,554.13419 C 592.80699,549.00362 596.05073,544.81603 599.87209,541.38709 C 606.10716,537.1469 612.63099,532.58117 620.32194,533.74156 C 624.64445,535.22337 625.69694,538.17749 625.46772,542.45726 C 624.64072,547.30169 622.3215,551.26544 618.46629,554.26578 C 613.33265,557.74159 606.6418,563.07733 603.2639,555.68882 C 602.5476,549.31548 605.54186,543.35241 608.73195,538.0452 C 613.49256,532.13767 620.50875,525.63195 628.48742,525.51619 C 632.67074,527.1998 631.08632,531.73073 629.50839,534.77677 C 626.23419,539.60422 622.41796,544.09477 617.62024,547.44219 C 613.72346,549.21852 604.06773,557.62362 598.92926,552.46566 C 597.31106,548.76485 599.42979,545.52999 601.94071,542.87983 C 604.24156,540.64082 613.75937,532.78904 615.9394,538.61644 C 615.02766,544.86194 608.21152,547.20475 603.47818,549.86425 C 600.31777,550.41817 599.53723,547.17445 599.63148,544.68345 C 601.72534,538.11521 607.55097,535.28787 613.66975,532.48333 C 616.9712,533.87283 611.37379,537.33338 610.11617,538.3243 C 604.10288,542.75513 598.49478,545.073 591.40681,546.09971 C 587.54274,545.65392 586.79511,542.84934 587.82345,539.58471 C 591.0146,533.83183 597.50748,531.45479 602.9918,528.44269 C 605.84188,527.99362 608.16918,528.5647 606.6231,531.71792 C 604.52225,535.03228 601.55244,537.71187 598.50167,540.14223 C 594.21603,543.13874 589.90287,547.74902 584.41611,547.48955 L 591.27225,542.48971 C 592.00171,542.42265 594.02974,541.60583 593.41587,542.00555 C 582.41507,549.16879 588.34347,544.96866 590.67145,543.27243 C 593.73721,540.94072 596.68226,538.36399 598.89905,535.20075 C 600.41863,532.40748 599.70344,533.29082 596.40021,533.67066 C 608.32059,526.38418 597.23969,532.55935 595.46699,535.9999 C 594.46854,538.73249 594.52966,541.02178 598.16397,541.03604 C 599.9523,540.7622 601.73038,540.46634 603.46791,539.94468 C 606.19484,539.12596 613.3469,535.41545 602.31396,541.43439 C 602.41342,541.36104 608.53908,536.56883 607.0449,537.76748 C 606.71295,537.93648 605.73214,538.47025 606.04905,538.27448 C 607.89347,537.13509 609.67631,535.87448 611.63013,534.93496 C 612.27329,534.62569 610.51959,535.83847 610.03174,536.35935 C 608.8019,537.67243 607.94166,539.29475 607.19349,540.9111 C 606.89655,543.00781 607.46423,545.56893 610.10578,544.61567 C 598.33523,551.83997 607.07257,546.96965 608.48529,542.71032 C 608.25771,541.73015 607.85618,541.63277 606.76492,541.75977 C 606.31001,541.81272 605.05499,542.3408 605.42748,542.07435 C 606.75958,541.12142 614.13113,536.64267 609.71388,539.67234 C 607.34017,541.79739 604.99683,544.67138 606.14784,548.02943 C 609.88324,551.52861 620.39852,543.82644 609.85776,550.48042 C 614.75375,547.34973 618.50735,542.91296 621.86259,538.20186 C 623.14253,535.99097 625.48644,531.53157 621.68643,530.51021 C 618.92487,530.7586 613.27973,533.17271 623.20587,528.26601 C 624.04283,527.85228 621.66633,529.32565 620.9383,529.91015 C 618.22668,532.08716 618.55469,531.97719 616.2922,534.70191 C 613.15162,539.75174 610.18537,545.41851 610.60052,551.54607 C 613.62314,558.19004 621.66312,550.38851 610.65664,557.35423 C 614.64391,554.70286 616.99917,550.91643 617.9678,546.21849 C 618.25751,542.3584 617.54109,539.72923 613.45701,538.59567 C 606.91548,537.89713 601.05958,542.94297 609.91672,536.87269 C 610.6575,536.365 608.37374,537.79209 607.60226,538.25178 C 603.74046,541.44952 600.57175,545.45651 599.21586,550.36176 C 599.01105,554.31508 599.66187,557.70737 604.31704,557.91539 C 607.76275,557.79835 611.64856,555.68723 610.70168,556.44568 C 600.73687,564.42757 607.81171,557.44714 609.74782,555.90111 C 613.61782,551.18662 616.0653,545.97125 616.18584,539.77259 C 615.84075,536.01339 615.7344,531.34112 611.51984,529.98574 C 608.08313,529.57958 605.09608,530.01526 601.787,531.07288 C 600.82418,531.38061 598.28836,532.89793 598.94445,532.12899 C 600.03906,530.8461 601.78732,530.31404 603.20876,529.40657 C 597.42192,532.82791 591.90603,536.88187 588.38519,542.74339 C 585.79732,547.65684 584.19734,552.94294 587.89384,557.7904 C 592.18905,562.05491 596.87874,562.34578 602.61239,560.68592 C 603.71266,560.28394 606.35179,558.3938 605.91319,559.47999 C 605.37465,560.81367 603.6452,561.66857 602.20705,561.68975 C 600.91802,561.70873 604.36223,560.27063 605.38645,559.48774 C 607.67859,557.7357 608.92606,556.46166 610.87635,554.31425 C 611.75441,553.34744 612.57967,552.33396 613.43133,551.34382 C 616.87887,546.4368 621.3742,541.20309 621.07412,534.87766 C 619.96124,531.02182 618.23071,528.3116 613.94444,527.80559 C 610.53145,528.08187 605.32203,530.80131 614.3345,525.67798 C 615.19518,525.18872 612.65609,526.72977 611.84212,527.29332 C 608.81648,529.38813 609.19929,529.2079 606.43358,531.71261 C 601.70751,536.47229 597.47496,541.97982 596.26879,548.74044 C 595.93783,554.02639 596.46156,558.84375 600.40484,562.76866 C 603.63545,566.3397 607.37826,569.22836 611.11155,572.2529 L 603.98073,576.81869 z" />
    <path
       style="fill:#000000;fill-opacity:1;stroke:#000000;stroke-width:4;stroke-linecap:round;stroke-linejoin:round;stroke-miterlimit:4;stroke-dasharray:none;stroke-dashoffset:0;stroke-opacity:1"
       id="path2407"
       d="M 618.81967,521.75192 C 621.83851,522.56331 624.51958,524.1442 627.17203,525.75025 C 629.1841,527.2303 631.02607,528.51669 631.78809,530.94806 C 632.44811,534.0077 632.34919,537.17742 632.37526,540.29218 C 632.72936,543.7833 631.50537,547.02325 630.65714,550.34612 C 630.13628,553.9957 629.18772,557.54154 627.53351,560.84343 C 625.82924,564.36017 622.92689,566.99701 619.66816,569.04912 C 614.14356,572.12598 608.42203,577.17209 601.69615,576.86097 L 608.51037,571.91603 C 610.46744,571.84145 612.10596,571.4591 613.91847,570.68697 C 614.48924,570.44382 616.11798,569.54634 615.59766,569.88423 C 614.37329,570.67931 607.02732,575.0384 611.80936,572.08193 C 615.08649,570.20128 618.14166,567.74474 619.84519,564.28979 C 621.69449,561.16161 622.57027,557.56376 623.06507,553.98544 C 623.84916,550.71018 625.21023,547.55703 624.85943,544.12528 C 624.86181,541.08828 624.93168,538.00726 624.35721,535.01344 C 623.72105,532.81489 621.85784,531.6443 620.05562,530.3447 C 617.46128,528.73133 614.78896,527.26609 611.80233,526.51312 L 618.81967,521.75192 z" />
    <path
       style="fill:#000000;fill-opacity:1;stroke:#000000;stroke-width:4;stroke-linecap:round;stroke-linejoin:round;stroke-miterlimit:4;stroke-dasharray:none;stroke-dashoffset:0;stroke-opacity:1"
       id="path2409"
       d="M 643.78,554.31861 C 643.72998,558.57578 643.71911,562.83391 643.73437,567.09141 C 643.72982,569.85305 643.74913,572.61478 643.79636,575.37602 C 643.48692,575.38659 643.99737,575.90936 643.80961,575.99506 C 634.22677,580.36881 635.93757,580.39365 638.23434,575.34032 C 640.17035,570.6813 642.34204,566.12037 645.22277,561.96867 C 648.53054,558.00088 655.74627,550.67818 659.62261,556.57958 C 660.8784,568.63063 660.89178,571.51438 660.92612,574.39782 C 660.9225,576.35105 660.91477,578.30416 660.93322,580.25735 C 662.55176,581.5464 652.35622,587.17977 654.56551,583.42486 C 656.44209,580.24524 658.15195,576.95329 659.7157,573.60653 C 661.05829,569.63883 663.59554,566.22824 666.37913,563.1507 C 671.01734,559.18527 677.07697,553.95954 680.11669,560.6561 C 681.01305,563.67769 682.34382,566.49193 682.98762,569.59814 C 683.34467,571.5944 683.62129,573.60562 683.80095,575.62567 C 685.45873,573.17767 685.57938,574.29243 677.42564,578.64313 L 685.20926,575.2329 C 683.42148,576.40469 678.88324,582.54195 676.21908,579.54979 C 676.14258,577.54528 675.89169,575.5499 675.56381,573.57223 C 674.94298,570.52209 673.63094,567.76858 672.73766,564.81451 C 672.3248,563.86935 671.98952,562.81107 670.85501,562.52595 C 670.521,562.44201 669.5496,562.69321 669.82271,562.48341 C 671.14978,561.46402 678.9134,556.70854 674.13146,559.90717 C 671.30481,562.85579 668.65136,566.2 667.36191,570.12102 C 665.8145,573.46349 664.14888,576.76843 662.30793,579.95113 C 660.63958,583.32256 653.23018,589.29742 653.35249,584.11992 C 653.37079,582.16432 653.36334,580.2088 653.35959,578.25316 C 653.39354,575.36861 653.4077,572.48375 652.31657,560.86341 C 651.84585,560.18085 651.78159,559.80709 650.92129,559.59254 C 650.59734,559.51175 649.65373,559.76742 649.92004,559.56607 C 661.10358,551.11053 654.84403,556.50394 652.89937,558.64375 C 649.89177,562.65092 647.74985,567.20908 645.89123,571.84681 C 645.40084,572.89529 637.59639,590.53968 636.20364,579.24471 C 636.25042,576.4624 636.27024,573.67962 636.26563,570.89693 C 636.28078,566.65492 636.27034,562.41229 636.22,558.17062 L 643.78,554.31861 z" />
  </g>
</svg>
