<?xml version="1.0" encoding="UTF-8" standalone="no"?>
<!-- Created with Inkscape (http://www.inkscape.org/) -->
<svg
   xmlns:dc="http://purl.org/dc/elements/1.1/"
   xmlns:cc="http://creativecommons.org/ns#"
   xmlns:rdf="http://www.w3.org/1999/02/22-rdf-syntax-ns#"
   xmlns:svg="http://www.w3.org/2000/svg"
   xmlns="http://www.w3.org/2000/svg"
   xmlns:sodipodi="http://sodipodi.sourceforge.net/DTD/sodipodi-0.dtd"
   xmlns:inkscape="http://www.inkscape.org/namespaces/inkscape"
   width="409.11301"
   height="359.63077"
   id="svg2459"
   sodipodi:version="0.32"
   inkscape:version="0.46"
   version="1.0"
   sodipodi:docname="c19d2.svg"
   inkscape:output_extension="org.inkscape.output.svg.inkscape">
  <defs
     id="defs2461">
    <inkscape:perspective
       sodipodi:type="inkscape:persp3d"
       inkscape:vp_x="0 : 526.18109 : 1"
       inkscape:vp_y="0 : 1000 : 0"
       inkscape:vp_z="744.09448 : 526.18109 : 1"
       inkscape:persp3d-origin="372.04724 : 350.78739 : 1"
       id="perspective2467" />
  </defs>
  <sodipodi:namedview
     id="base"
     pagecolor="#ffffff"
     bordercolor="#666666"
     borderopacity="1.0"
     gridtolerance="10000"
     guidetolerance="10"
     objecttolerance="10"
     inkscape:pageopacity="0.0"
     inkscape:pageshadow="2"
     inkscape:zoom="0.35"
     inkscape:cx="375"
     inkscape:cy="520"
     inkscape:document-units="px"
     inkscape:current-layer="layer1"
     showgrid="false"
     inkscape:window-width="1280"
     inkscape:window-height="712"
     inkscape:window-x="-5"
     inkscape:window-y="-3" />
  <metadata
     id="metadata2464">
    <rdf:RDF>
      <cc:Work
         rdf:about="">
        <dc:format>image/svg+xml</dc:format>
        <dc:type
           rdf:resource="http://purl.org/dc/dcmitype/StillImage" />
      </cc:Work>
    </rdf:RDF>
  </metadata>
  <g
     inkscape:label="Layer 1"
     inkscape:groupmode="layer"
     id="layer1"
     transform="translate(-157.80003,-345.39883)">
    <path
       style="fill:#000000;fill-opacity:1;stroke:#000000;stroke-width:4;stroke-linecap:round;stroke-linejoin:round;stroke-miterlimit:4;stroke-dasharray:none;stroke-dashoffset:0;stroke-opacity:1"
       id="path2469"
       d="M 246.32848,389.69141 C 245.27042,399.60664 241.61894,408.91479 237.86496,418.06319 C 233.55702,428.90556 228.35343,438.2608 218.77788,445.16208 C 204.61922,453.77297 199.47671,455.32232 185.29603,447.70003 C 174.92723,441.36364 171.04783,431.14669 169.48775,419.6298 C 169.09263,405.67733 172.58247,396.77753 180.98487,385.92007 C 191.13612,375.75636 203.94013,368.30676 217.58296,363.90489 C 226.7444,362.02313 233.55561,363.66099 240.28462,370.01419 C 245.68993,376.6983 243.69771,384.08521 240.28718,391.15634 C 235.5156,399.28557 225.37698,408.21298 215.56523,407.66324 L 222.41967,402.70973 C 228.40539,402.6675 223.23701,402.12857 221.20202,405.88387 C 220.60454,406.98645 223.46582,404.77665 224.48361,404.04402 C 226.48291,402.60486 228.96372,399.97475 230.43381,398.02477 C 231.24505,396.94872 231.89388,395.75935 232.62392,394.62665 C 236.01879,387.96259 238.33657,380.86642 233.1037,374.44743 C 226.49697,368.32051 219.8122,367.01841 210.97192,369.03693 C 207.63013,370.15847 204.49894,371.88983 201.10424,372.83927 C 200.31599,373.05973 203.84951,371.05552 203.15677,371.49147 C 197.97071,374.75507 192.8312,378.10254 188.63713,382.64186 C 180.16033,393.31233 176.5927,401.86852 176.86611,415.74765 C 178.31238,427.02732 182.08261,437.00884 192.3011,443.11477 C 196.58951,445.35586 200.4339,447.43171 205.387,447.6367 C 206.80877,447.69554 208.24586,447.62963 209.64899,447.3927 C 211.12801,447.14295 212.71206,445.38967 213.98377,446.18504 C 215.00896,446.82623 211.98619,447.54821 210.98741,448.2298 C 220.9525,441.4871 225.83088,432.53088 230.29657,421.55432 C 234.03534,412.49895 237.77091,403.2652 238.70227,393.41983 L 246.32848,389.69141 z" />
    <path
       style="fill:#000000;fill-opacity:1;stroke:#000000;stroke-width:4;stroke-linecap:round;stroke-linejoin:round;stroke-miterlimit:4;stroke-dasharray:none;stroke-dashoffset:0;stroke-opacity:1"
       id="path2471"
       d="M 550.79965,397.86356 C 542.74285,404.97643 534.01841,411.13102 524.00542,415.24039 C 517.87567,417.4255 511.69816,418.10345 505.59575,415.68366 C 497.97423,411.18379 496.17159,402.67177 494.7396,394.57551 C 492.82285,383.73237 494.99797,373.34541 499.4678,363.46748 C 505.05303,353.7406 515.79111,347.84526 526.90238,347.39883 C 537.37422,348.15522 546.18079,353.34245 554.13431,359.81837 C 561.36923,366.33875 565.17501,374.9772 564.89903,384.65287 C 562.96613,396.62948 553.16886,400.56102 543.4011,405.86703 C 539.43807,407.56907 535.28651,407.57609 531.06956,407.65853 L 537.85324,402.70012 C 542.02611,402.54193 546.10235,402.41488 549.98046,400.62373 C 548.77664,401.43518 547.23668,401.89413 546.36901,403.05807 C 545.57083,404.12881 548.69867,401.73442 549.75837,400.92164 C 553.90496,397.74128 556.48565,393.58738 557.38661,388.44274 C 557.87968,378.99953 554.11024,370.60189 547.05654,364.25864 C 539.18811,357.93269 530.47488,352.85812 520.12956,352.37716 C 518.75661,352.47487 517.3685,352.44457 516.01071,352.67028 C 514.63958,352.8982 512.36264,355.06792 511.97835,353.73216 C 511.57105,352.31643 514.19924,351.6858 515.57895,351.1695 C 516.82431,350.70347 513.41129,352.71553 512.39708,353.57546 C 508.99288,356.46181 509.57676,356.18137 507.08924,359.99066 C 502.52186,369.68861 500.24427,379.91173 502.13304,390.64486 C 503.49366,398.43527 505.12819,406.77626 512.60374,410.96555 C 518.64372,413.08076 524.6851,412.26914 530.62044,410.01781 C 531.71754,409.54039 534.48687,407.53638 533.91174,408.58556 C 533.20157,409.88107 531.59801,410.70231 530.13449,410.90428 C 528.76023,411.09394 532.487,409.43028 533.61747,408.62617 C 536.52766,406.55615 537.54373,405.53541 540.2516,403.24855 C 541.13749,402.50039 542.03425,401.76518 542.92557,401.02349 L 550.79965,397.86356 z" />
    <path
       style="fill:#000000;fill-opacity:1;stroke:#000000;stroke-width:4;stroke-linecap:round;stroke-linejoin:round;stroke-miterlimit:4;stroke-dasharray:none;stroke-dashoffset:0;stroke-opacity:1"
       id="path2473"
       d="M 229.18563,658.26284 C 224.36775,672.64679 219.72301,674.534 206.54446,682.05166 C 195.30421,686.50515 185.09719,684.21731 174.75639,678.76292 C 165.89919,672.86994 160.10669,663.62236 159.80619,652.80577 C 159.74622,650.64701 160.13984,648.49949 160.30667,646.34635 C 162.96442,634.99572 169.59472,624.44923 179.59216,618.07951 C 183.84807,615.36792 188.36511,613.08979 192.75159,610.59493 C 203.15045,606.0736 214.14801,603.75211 224.83578,608.35543 C 231.85944,613.57262 231.2285,620.84264 228.31444,628.20466 C 227.55982,629.37428 226.80521,630.54391 226.05059,631.71353 L 218.34768,635.08265 C 219.12176,633.96553 219.89584,632.84841 220.66992,631.73128 C 223.5979,624.87371 224.65084,617.91372 217.83426,613.02845 C 207.26658,608.70081 196.42551,611.2452 186.29339,615.80183 C 186.62636,615.53302 187.63159,614.73463 187.29229,614.9954 C 185.45531,616.40722 183.52288,617.70605 181.8001,619.25518 C 174.77915,625.56841 169.82922,633.39034 167.74882,642.6332 C 167.5557,644.73306 167.13509,646.82435 167.16948,648.93279 C 167.34203,659.51122 173.02811,668.51934 181.72729,674.19209 C 192.02724,679.46842 202.07078,681.49896 213.07569,676.79137 C 212.05593,677.44929 209.40796,679.81515 210.01641,678.76513 C 210.76909,677.46618 212.47213,677.01766 213.55005,675.97273 C 217.46131,672.18119 219.66975,666.98843 221.55942,661.99126 L 229.18563,658.26284 z" />
    <path
       style="fill:#000000;fill-opacity:1;stroke:#000000;stroke-width:4;stroke-linecap:round;stroke-linejoin:round;stroke-miterlimit:4;stroke-dasharray:none;stroke-dashoffset:0;stroke-opacity:1"
       id="path2475"
       d="M 525.90346,703.0296 C 512.75328,700.55474 501.25446,694.41562 490.49896,686.69899 C 479.26043,677.75882 468.84901,666.9823 462.45491,653.94433 C 461.36294,651.71773 460.60457,649.34249 459.67941,647.04158 C 455.97756,632.09461 459.24487,623.90724 470.82117,614.19704 C 475.10667,611.81162 479.22001,609.08648 483.67767,607.04076 C 494.70726,601.97903 508.17345,605.07569 518.89871,608.94817 C 532.69024,615.68678 540.7464,625.89076 546.03028,639.98625 C 549.74177,654.69373 543.83202,663.00284 527.88776,665.57663 L 534.57363,660.52552 C 536.13085,660.1866 538.13328,658.36718 539.24529,659.50877 C 540.20965,660.49878 536.69178,662.72376 535.73936,661.72225 C 534.79938,660.73382 537.72661,659.78971 538.36728,658.5855 C 540.75993,654.08826 539.90295,648.6738 538.75275,644.02732 C 533.60784,630.11767 525.70377,620.09524 512.04299,613.57997 C 504.83895,611.06045 498.31978,609.22667 490.58421,609.53433 C 475.84125,610.12068 491.50004,610.1104 477.19439,612.24496 C 476.60786,612.33248 478.09581,611.47414 478.54652,611.08873 C 466.94111,620.27166 463.40058,628.29964 466.90735,643.00635 C 467.80515,645.27754 468.5339,647.62307 469.60076,649.81992 C 475.89409,662.77907 486.27096,673.45393 497.43896,682.28586 C 508.19206,689.89895 519.70706,695.94082 532.85252,698.15409 L 525.90346,703.0296 z" />
    <path
       style="fill:#000000;fill-opacity:1;stroke:#000000;stroke-width:4;stroke-linecap:round;stroke-linejoin:round;stroke-miterlimit:4;stroke-dasharray:none;stroke-dashoffset:0;stroke-opacity:1"
       id="path2477"
       d="M 528.55217,364.09351 C 523.15825,375.81028 516.1811,386.6273 509.12757,397.38791 C 499.01598,413.18141 487.521,428.05437 474.35217,441.40402 C 465.74971,449.00675 470.20671,445.5219 461.01284,451.89893 L 453.34078,454.91175 C 462.60729,448.6491 458.11927,452.08971 466.77184,444.54703 C 480.0051,431.30785 491.49293,416.4582 501.58643,400.69467 C 508.58586,390.00301 515.58364,379.28601 520.82582,367.58916 L 528.55217,364.09351 z" />
    <path
       style="fill:#000000;fill-opacity:1;stroke:#000000;stroke-width:4;stroke-linecap:round;stroke-linejoin:round;stroke-miterlimit:4;stroke-dasharray:none;stroke-dashoffset:0;stroke-opacity:1"
       id="path2479"
       d="M 208.19482,395.09115 C 216.4144,404.99959 225.13595,414.46499 233.4582,424.28583 C 244.86122,437.21039 256.56701,449.8609 268.0775,462.68824 L 261.12836,466.89553 C 249.59886,454.06591 237.84882,441.43643 226.40013,428.53317 C 218.03183,418.73084 209.29172,409.26265 200.9371,399.44867 L 208.19482,395.09115 z" />
    <path
       style="fill:#000000;fill-opacity:1;stroke:#000000;stroke-width:4;stroke-linecap:round;stroke-linejoin:round;stroke-miterlimit:4;stroke-dasharray:none;stroke-dashoffset:0;stroke-opacity:1"
       id="path2481"
       d="M 488.64638,650.04042 C 479.84209,642.08615 471.32404,633.81119 462.4646,625.90917 C 449.02944,614.35703 436.1438,602.19373 422.0485,591.43787 C 413.0787,584.18916 403.434,578.05107 393.27707,572.64409 L 400.18624,568.12555 C 410.34561,573.59204 419.97854,579.80764 428.97655,587.06469 C 443.07689,597.85595 456.01875,609.999 469.49455,621.54459 C 478.37981,629.42914 486.89993,637.72036 495.82389,645.55202 L 488.64638,650.04042 z" />
    <path
       style="fill:#000000;fill-opacity:1;stroke:#000000;stroke-width:4;stroke-linecap:round;stroke-linejoin:round;stroke-miterlimit:4;stroke-dasharray:none;stroke-dashoffset:0;stroke-opacity:1"
       id="path2483"
       d="M 171.44783,652.05942 C 177.93638,640.28911 186.42317,629.8456 194.50335,619.16325 C 208.01064,601.51957 222.52202,584.68906 237.04111,567.8799 C 246.37507,557.62548 255.32783,547.05334 264.35027,536.52801 L 271.90166,533.3331 C 262.83487,543.85844 253.89143,554.47629 244.50585,564.72408 C 230.00635,581.49615 215.52023,598.29431 202.04906,615.91437 C 194.04959,626.5301 185.61315,636.88349 179.17418,648.56378 L 171.44783,652.05942 z" />
  </g>
</svg>
