<?xml version="1.0" encoding="UTF-8" standalone="no"?>
<!-- Created with Inkscape (http://www.inkscape.org/) -->
<svg
   xmlns:dc="http://purl.org/dc/elements/1.1/"
   xmlns:cc="http://creativecommons.org/ns#"
   xmlns:rdf="http://www.w3.org/1999/02/22-rdf-syntax-ns#"
   xmlns:svg="http://www.w3.org/2000/svg"
   xmlns="http://www.w3.org/2000/svg"
   xmlns:sodipodi="http://sodipodi.sourceforge.net/DTD/sodipodi-0.dtd"
   xmlns:inkscape="http://www.inkscape.org/namespaces/inkscape"
   width="700.29755"
   height="519.78589"
   id="svg2"
   sodipodi:version="0.32"
   inkscape:version="0.46"
   version="1.0"
   sodipodi:docname="c20d2.svg"
   inkscape:output_extension="org.inkscape.output.svg.inkscape">
  <defs
     id="defs4">
    <inkscape:perspective
       sodipodi:type="inkscape:persp3d"
       inkscape:vp_x="0 : 526.18109 : 1"
       inkscape:vp_y="0 : 1000 : 0"
       inkscape:vp_z="744.09448 : 526.18109 : 1"
       inkscape:persp3d-origin="372.04724 : 350.78739 : 1"
       id="perspective10" />
  </defs>
  <sodipodi:namedview
     id="base"
     pagecolor="#ffffff"
     bordercolor="#666666"
     borderopacity="1.0"
     gridtolerance="10000"
     guidetolerance="10"
     objecttolerance="10"
     inkscape:pageopacity="0.0"
     inkscape:pageshadow="2"
     inkscape:zoom="0.35"
     inkscape:cx="375"
     inkscape:cy="520"
     inkscape:document-units="px"
     inkscape:current-layer="layer1"
     showgrid="false"
     inkscape:window-width="1280"
     inkscape:window-height="712"
     inkscape:window-x="-5"
     inkscape:window-y="-3" />
  <metadata
     id="metadata7">
    <rdf:RDF>
      <cc:Work
         rdf:about="">
        <dc:format>image/svg+xml</dc:format>
        <dc:type
           rdf:resource="http://purl.org/dc/dcmitype/StillImage" />
      </cc:Work>
    </rdf:RDF>
  </metadata>
  <g
     inkscape:label="Layer 1"
     inkscape:groupmode="layer"
     id="layer1"
     transform="translate(-50.928571,-468.07611)">
    <path
       style="fill:none;fill-rule:evenodd;stroke:#000000;stroke-width:1px;stroke-linecap:butt;stroke-linejoin:miter;stroke-opacity:1"
       d="M 51.428571,612.36218 L 722.85714,612.36218"
       id="path2385" />
    <path
       style="fill:#000000;fill-opacity:1;stroke:#000000;stroke-width:4;stroke-linecap:round;stroke-linejoin:round;stroke-miterlimit:4;stroke-dasharray:none;stroke-dashoffset:0;stroke-opacity:1"
       id="path2387"
       d="M 151.10549,658.11858 C 143.66779,667.32932 133.14482,673.59784 122.02815,677.3885 C 110.86514,680.84125 99.973956,679.77207 89.123462,675.96943 C 79.298717,671.15118 70.522822,664.16613 66.004564,653.93347 C 64.995451,651.64809 64.359805,649.21545 63.537426,646.85643 C 58.767013,626.38478 64.391405,609.64967 72.887029,591.17079 C 82.878063,573.5869 95.595724,557.31497 111.76402,544.97453 C 114.68184,542.7475 117.83748,540.85064 120.87422,538.7887 C 135.28313,530.32145 152.50475,521.15849 169.70696,527.33228 C 171.93953,528.13355 173.9299,529.49385 176.04138,530.57464 C 190.72638,542.12238 191.66467,555.01749 189.6518,572.46014 C 185.47447,593.9213 172.61851,611.37409 158.33251,627.28479 C 148.41151,638.20203 136.5349,646.68243 123.97024,654.21952 L 116.34022,657.1598 C 128.96238,649.71498 140.89382,641.31158 150.85713,630.42639 C 165.12555,614.67871 177.99904,597.40879 182.28068,576.10707 C 184.35246,559.06709 183.60764,546.33657 169.11251,535.13042 C 167.04386,534.10441 165.09,532.80377 162.90655,532.0524 C 151.18187,528.01772 139.51056,531.77019 128.44744,535.82177 C 125.39044,537.86021 122.21332,539.72912 119.27644,541.93711 C 103.06111,554.12802 90.327365,570.31997 80.275207,587.80053 C 71.968881,605.70332 66.060181,622.9702 70.781617,642.85378 C 71.588567,645.16803 72.212026,647.55467 73.202468,649.79654 C 77.645276,659.85284 86.319669,666.66848 96.022619,671.29735 C 106.82015,674.92423 117.62105,675.82253 128.62978,672.24213 C 130.20944,671.66888 131.70193,670.30884 133.36877,670.52237 C 134.49739,670.66696 129.57984,673.03303 130.58086,672.49207 C 135.50918,669.82878 139.75757,665.71539 143.30326,661.45199 L 151.10549,658.11858 z" />
    <path
       style="fill:#000000;fill-opacity:1;stroke:#000000;stroke-width:4;stroke-linecap:round;stroke-linejoin:round;stroke-miterlimit:4;stroke-dasharray:none;stroke-dashoffset:0;stroke-opacity:1"
       id="path2389"
       d="M 654.99154,672.82977 C 647.41972,663.51298 643.12979,652.61749 640.08425,641.1432 C 636.42137,625.97354 636.79784,610.7681 640.73299,595.75941 C 648.17665,576.00316 658.58517,571.18412 676.54293,561.85048 C 692.0381,555.96525 704.98818,559.04314 719.39663,566.03982 C 732.94962,573.90045 741.24936,586.65856 747.08514,600.80278 C 751.21958,615.3066 749.50445,624.37904 740.7297,636.45172 C 726.75925,650.36687 710.56963,656.55218 691.75679,660.3796 L 698.30747,655.41248 C 712.04554,652.50929 723.5832,649.79229 733.08922,639.74782 C 741.98401,628.06869 743.81587,619.14169 739.85157,604.85084 C 734.13565,590.86175 725.93659,578.28146 712.50017,570.59342 C 698.41787,563.91396 685.03433,560.92786 670.0591,567.00326 C 671.48108,563.99682 671.32448,564.80248 664.58408,569.76616 C 656.83992,575.46903 651.54154,583.24009 648.20134,592.19658 C 644.15464,607.05586 643.74191,622.13403 647.36845,637.19082 C 650.37569,648.55939 654.60671,659.36396 662.27435,668.47696 L 654.99154,672.82977 z" />
    <path
       style="fill:#000000;fill-opacity:1;stroke:#000000;stroke-width:4;stroke-linecap:round;stroke-linejoin:round;stroke-miterlimit:4;stroke-dasharray:none;stroke-dashoffset:0;stroke-opacity:1"
       id="path2391"
       d="M 182.58557,603.75496 C 188.47128,602.71653 194.41599,602.0757 200.36995,601.59395 C 204.31644,601.32799 208.2733,601.28251 212.22734,601.27123 C 215.1887,601.26813 218.15008,601.27599 221.11144,601.28343 C 223.95799,601.28774 226.80455,601.28586 229.65111,601.28898 C 232.91728,601.28933 236.18344,601.29031 239.44961,601.29402 C 243.53246,601.28937 247.6153,601.30107 251.69814,601.29676 C 256.05139,601.29981 260.40463,601.29514 264.75787,601.29704 C 268.41521,601.28949 272.07255,601.29562 275.72989,601.29184 C 279.33564,601.2873 282.94139,601.29696 286.54714,601.29387 C 290.86219,601.13953 295.23038,601.69678 299.48838,600.9018 C 303.61753,599.77783 307.80459,599.1245 312.05818,598.72679 C 316.14913,598.43198 320.25306,598.42676 324.3523,598.42019 C 328.37917,598.41693 332.40605,598.42511 336.43291,598.43269 C 340.26167,598.43537 344.09043,598.43447 347.91919,598.43792 C 351.72653,598.43664 355.53388,598.43508 359.34122,598.43805 C 362.89554,598.43168 366.44987,598.43809 370.00419,598.43461 C 373.06261,598.42639 376.12104,598.43183 379.17946,598.4367 C 382.60689,598.4376 386.03431,598.43184 389.46173,598.43341 C 392.8938,599.5755 396.39913,600.34841 399.98216,600.8246 C 403.56858,601.20947 407.17669,601.27714 410.78017,601.30534 C 413.8353,601.4358 416.65488,601.46272 419.52432,600.37054 C 422.67706,599.27798 425.99699,598.83515 429.30976,598.59032 C 432.5738,598.38721 435.84741,598.41654 439.11633,598.41231 C 442.40141,598.41854 445.68648,598.4255 448.97156,598.43107 C 453.66369,598.44083 458.35583,598.44384 463.04797,598.44601 C 468.70154,598.44802 474.3551,598.44798 480.00867,598.44804 C 484.95674,598.43859 489.90482,598.44303 494.85289,598.4448 C 500.45042,598.50364 505.9415,599.89392 511.49699,600.56052 C 517.25927,601.00886 522.96024,601.14733 528.65465,602.17411 C 534.12766,603.17031 539.62609,603.49576 545.01739,604.88412 C 549.72647,606.16277 554.59254,606.59408 559.4461,606.86948 C 563.61774,606.91603 567.64149,606.88726 571.69032,607.9309 C 574.89448,609.00984 578.21337,609.45825 581.56704,609.70976 C 585.08493,609.89615 588.60939,609.8821 592.13103,609.88322 C 596.45759,609.45253 600.52187,610.32598 604.70781,611.24168 C 608.72144,612.23812 612.85686,612.47739 616.97216,612.64482 C 620.73985,612.75826 624.50965,612.74152 628.27855,612.74025 C 631.94887,612.73558 635.61919,612.72965 639.2895,612.72084 C 640.6354,612.71689 641.98129,612.71129 643.32716,612.70241 C 643.36741,612.70209 643.40766,612.70177 643.44792,612.70144 L 636.51741,617.73693 C 636.47811,617.73662 636.43881,617.73631 636.39952,617.736 C 635.06832,617.72816 633.73711,617.72462 632.40589,617.72309 C 628.73892,617.72139 625.07195,617.72786 621.40498,617.73518 C 617.63005,617.74098 613.85415,617.73905 610.08104,617.60493 C 605.93517,617.40535 601.77778,617.10383 597.73949,616.0786 C 593.58937,615.17012 589.5258,614.51037 585.25068,614.88138 C 581.71502,614.87773 578.17545,614.87572 574.64545,614.65316 C 571.26503,614.3562 567.93733,613.80796 564.69936,612.75479 C 560.69118,611.79927 556.65396,611.98082 552.55385,611.81312 C 547.66767,611.49436 542.77746,610.99781 538.04052,609.69303 C 532.66731,608.35183 527.16171,608.07743 521.72785,607.02423 C 516.04386,606.04394 510.32825,606.00075 504.5942,605.4477 C 499.06662,604.75074 493.58889,603.38016 488.00177,603.42243 C 483.05661,603.42421 478.11145,603.42869 473.1663,603.41932 C 467.51085,603.41947 461.8554,603.41964 456.19995,603.42132 C 451.49745,603.42297 446.79495,603.42624 442.09244,603.42779 C 438.80594,603.42556 435.51945,603.41698 432.23296,603.4142 C 428.97806,603.41515 425.71803,603.40456 422.47017,603.64729 C 419.18852,603.95398 415.91485,604.45517 412.80716,605.60159 C 409.88524,606.51683 406.9265,606.35842 403.88968,606.29995 C 400.26785,606.24823 396.64094,606.15857 393.04105,605.72131 C 389.4915,605.19771 386.0506,604.2981 382.57928,603.43381 C 379.15487,603.43538 375.73046,603.42962 372.30605,603.43052 C 369.24571,603.43537 366.18536,603.44084 363.12501,603.43263 C 359.57378,603.42916 356.02254,603.43563 352.47131,603.42935 C 348.66394,603.43241 344.85657,603.43111 341.04921,603.42911 C 337.22072,603.4315 333.39223,603.42911 329.56375,603.42209 C 325.53926,603.41937 321.51479,603.4053 317.4903,603.40909 C 313.40445,603.42878 309.31225,603.44166 305.23775,603.78333 C 300.99727,604.2074 296.84703,605.00562 292.70336,605.99618 C 288.38805,606.56228 284.01821,606.17489 279.67382,606.28764 C 276.0662,606.28454 272.45859,606.29421 268.85098,606.28966 C 265.19841,606.28588 261.54583,606.29203 257.89326,606.28447 C 253.53976,606.28636 249.18626,606.2817 244.83276,606.28476 C 240.74732,606.28046 236.6619,606.29221 232.57646,606.28767 C 229.30574,606.29145 226.03502,606.29274 222.76431,606.29234 C 219.91752,606.29439 217.07072,606.29102 214.22393,606.28564 C 211.26592,606.28264 208.30793,606.26813 205.34991,606.27233 C 201.41604,606.29371 197.47908,606.33596 193.55423,606.63045 C 187.60734,607.11172 181.67334,607.78299 175.8013,608.8573 L 182.58557,603.75496 z" />
    <path
       style="fill:#000000;fill-opacity:1;stroke:#000000;stroke-width:4;stroke-linecap:round;stroke-linejoin:round;stroke-miterlimit:4;stroke-dasharray:none;stroke-dashoffset:0;stroke-opacity:1"
       id="path2395"
       d="M 386.94837,595.28079 C 387.58999,601.96303 389.53316,608.39232 390.83735,614.95374 C 391.8498,620.15381 392.18377,625.4288 392.32147,630.71225 C 392.40576,636.28483 392.37742,641.8585 392.35597,647.43147 C 392.32961,655.95403 392.31145,664.47659 392.30098,672.99918 C 392.29449,685.55456 392.27155,698.10991 392.25813,710.66528 C 392.24224,729.55125 392.20979,748.43721 392.19376,767.32318 C 392.17326,791.13808 392.17509,814.95298 392.17892,838.76789 C 393.01981,860.08444 393.57764,881.42783 394.88309,902.72217 C 395.93216,920.86846 397.4059,938.97387 398.92416,957.08497 C 399.79945,965.401 400.98973,973.67814 402.26414,981.94072 L 394.84122,985.86201 C 393.65036,977.55192 392.50709,969.23364 391.61588,960.88505 C 390.13519,942.75743 388.63773,924.64015 387.62197,906.47808 C 386.3144,885.15781 385.80703,863.78652 384.96394,842.44411 C 384.96776,818.63425 384.9696,794.82441 384.94902,771.01456 C 384.93292,752.15052 384.90033,733.28649 384.88427,714.42245 C 384.87083,701.88092 384.84709,689.33939 384.8452,676.79785 C 384.83924,668.2867 384.82499,659.77555 384.83005,651.2644 C 384.82874,645.70193 384.8655,640.139 384.78354,634.57692 C 384.65666,629.33551 384.36325,624.09677 383.39037,618.9323 C 382.11001,612.36145 380.16736,605.93364 379.44944,599.25902 L 386.94837,595.28079 z" />
    <path
       style="fill:#000000;fill-opacity:1;stroke:#000000;stroke-width:4;stroke-linecap:round;stroke-linejoin:round;stroke-miterlimit:4;stroke-dasharray:none;stroke-dashoffset:0;stroke-opacity:1"
       id="path2397"
       d="M 291.30706,576.77112 C 297.84531,579.93578 303.857,584.02989 309.90838,588.01209 C 313.71744,590.10238 317.24889,592.39258 320.44155,595.347 C 322.14766,597.85276 324.02319,600.33686 325.33829,603.07913 C 326.01773,606.71737 323.63789,609.76342 321.5445,612.47893 C 317.74896,616.89612 313.76077,621.16834 309.38409,625.0136 C 305.22321,628.28015 301.31423,631.88978 296.79628,634.66414 C 292.84424,636.02711 289.49773,639.63664 285.2974,640.7405 C 284.69839,639.64288 284.78312,640.20541 284.94661,639.07031 L 292.76436,635.60917 C 292.20996,635.762 292.4274,635.84005 292.07824,635.51129 C 294.87782,634.36826 300.21321,631.30784 288.87043,637.71924 C 293.47329,635.05716 297.37363,631.44588 301.55758,628.18719 C 305.98973,624.45006 309.90367,620.14432 313.7508,615.81481 C 315.73483,613.35982 318.09298,610.62882 317.92807,607.27939 C 316.67606,604.6273 314.86067,602.22761 313.20791,599.81894 C 310.05455,596.90699 306.50793,594.71067 302.80285,592.56513 C 296.79149,588.56548 290.77812,584.50957 284.22267,581.4324 L 291.30706,576.77112 z" />
    <path
       style="fill:#000000;fill-opacity:1;stroke:#000000;stroke-width:4;stroke-linecap:round;stroke-linejoin:round;stroke-miterlimit:4;stroke-dasharray:none;stroke-dashoffset:0;stroke-opacity:1"
       id="path2399"
       d="M 485.08537,577.86356 C 479.88503,582.53634 474.68814,587.25366 469.15364,591.53078 C 465.69562,594.24135 462.35272,597.03318 459.45158,600.34254 C 456.32456,602.93015 452.60895,605.94188 448.4417,606.41755 C 450.87147,605.24753 453.17121,603.75609 455.73102,602.90748 C 455.94597,602.83622 455.87843,603.98515 456.41423,605.21138 C 457.06282,606.69576 458.11927,608.14736 458.99203,609.49897 C 461.89443,613.4749 465.1059,617.20098 468.10006,621.10332 C 470.46048,623.5356 472.50694,626.25447 474.42784,629.04125 C 474.69365,629.42035 474.93709,629.81358 475.1727,630.21164 L 467.74391,634.47671 C 467.5328,634.0968 467.31012,633.72362 467.06556,633.3637 C 465.19388,630.56416 463.15244,627.86876 460.81678,625.43687 C 457.80478,621.51925 454.58975,617.76741 451.66074,613.78343 C 451.20339,613.08429 447.71225,607.30399 448.16632,606.84861 C 450.29427,604.71452 452.89942,603.11661 455.26597,601.25062 C 463.07336,598.69185 446.68371,606.32744 451.60195,603.66127 C 454.49065,600.26809 457.80659,597.39624 461.31004,594.65551 C 466.89918,590.48507 472.08665,585.74239 477.21129,581.02349 L 485.08537,577.86356 z" />
    <path
       style="fill:#000000;fill-opacity:1;stroke:#000000;stroke-width:4;stroke-linecap:round;stroke-linejoin:round;stroke-miterlimit:4;stroke-dasharray:none;stroke-dashoffset:0;stroke-opacity:1"
       id="path2401"
       d="M 298.06196,487.11615 C 298.89339,495.66185 299.7854,504.19725 300.35775,512.76633 C 300.7038,518.58022 300.87575,524.40306 300.93502,530.22646 C 300.94975,531.84508 300.95887,533.46373 300.96483,535.0824 L 293.35159,538.95744 C 293.37143,537.33389 293.38032,535.71022 293.37448,534.08655 C 293.33839,528.26555 293.23126,522.44372 292.89236,516.6313 C 292.35143,508.0515 291.51868,499.50142 290.50946,490.96434 L 298.06196,487.11615 z" />
    <path
       style="fill:#000000;fill-opacity:1;stroke:#000000;stroke-width:4;stroke-linecap:round;stroke-linejoin:round;stroke-miterlimit:4;stroke-dasharray:none;stroke-dashoffset:0;stroke-opacity:1"
       id="path2403"
       d="M 268.67825,475.58533 C 276.22159,475.62358 283.76504,475.60187 291.30842,475.59515 C 296.92835,475.53126 302.46339,475.32369 307.98192,476.46721 C 312.39715,477.49284 316.88676,478.02417 321.40479,478.27698 C 324.94014,478.44456 328.48037,478.45949 332.01894,478.45018 C 334.5542,478.75957 336.65115,477.74551 338.80509,476.54366 L 332.15204,481.88985 C 329.9086,483.00963 327.67181,483.72788 325.12548,483.45753 C 321.58754,483.44118 318.04769,483.4208 314.51432,483.22061 C 309.9724,482.93189 305.46897,482.33016 301.02764,481.31278 C 295.55223,480.2555 290.03474,480.56319 284.47793,480.55779 C 276.92554,480.55104 269.37307,480.52945 261.82072,480.56761 L 268.67825,475.58533 z" />
    <path
       style="fill:#000000;fill-opacity:1;stroke:#000000;stroke-width:4;stroke-linecap:round;stroke-linejoin:round;stroke-miterlimit:4;stroke-dasharray:none;stroke-dashoffset:0;stroke-opacity:1"
       id="path2405"
       d="M 469.48449,493.17528 C 469.43036,502.16175 469.44874,511.14855 469.45532,520.13515 C 469.46921,527.0473 469.46383,533.9595 469.48473,540.87163 C 469.4871,543.83361 469.49701,546.7956 469.52263,549.75747 C 469.55375,552.82823 469.64125,550.08245 461.91474,552.92648 L 469.51383,549.05455 C 461.79855,554.07691 461.87186,557.0367 461.90594,553.63836 C 461.93145,550.66362 461.94148,547.68875 461.94385,544.71391 C 461.96471,537.79178 461.95938,530.86959 461.97326,523.94745 C 461.97982,514.97076 461.9983,505.99387 461.94409,497.0173 L 469.48449,493.17528 z" />
    <path
       style="fill:#000000;fill-opacity:1;stroke:#000000;stroke-width:4;stroke-linecap:round;stroke-linejoin:round;stroke-miterlimit:4;stroke-dasharray:none;stroke-dashoffset:0;stroke-opacity:1"
       id="path2407"
       d="M 440.10682,472.72818 C 447.50748,472.76321 454.90826,472.7435 462.30897,472.73863 C 467.71498,472.09772 473.05841,471.04835 478.45591,470.34015 C 481.69826,469.65637 484.57708,470.36677 487.51952,471.7108 C 488.19413,472.05476 488.89191,472.39432 489.41973,472.94615 C 489.44109,472.98071 489.46244,473.01526 489.4838,473.04982 L 482.08043,477.36617 C 482.08679,477.37712 482.09314,477.38807 482.0995,477.39902 C 481.56871,477.02453 481.0076,476.69815 480.41343,476.43182 C 477.55392,475.19142 474.75083,474.77935 471.65359,475.41982 C 466.2548,476.13442 460.90954,477.23621 455.4802,477.70002 C 448.0699,477.69514 440.65954,477.67551 433.2493,477.71047 L 440.10682,472.72818 z" />
    <path
       style="fill:#000000;fill-opacity:1;stroke:#000000;stroke-width:4;stroke-linecap:round;stroke-linejoin:round;stroke-miterlimit:4;stroke-dasharray:none;stroke-dashoffset:0;stroke-opacity:1"
       id="path2409"
       d="M 374.13293,710.66358 C 380.32024,713.36676 385.93178,717.02895 390.75408,721.73661 C 393.63445,724.79333 396.3698,727.98269 399.15022,731.12987 C 399.56627,731.41126 400.07272,732.66178 400.76616,732.53884 C 400.96678,732.50327 401.42776,732.06759 401.24683,732.16126 C 394.81034,735.49374 392.90416,737.2874 395.77826,734.77509 C 398.6575,732.01439 401.17715,728.92426 403.63919,725.79467 C 406.32389,722.13821 409.19605,718.63553 412.21533,715.25233 C 414.81575,712.63744 417.8201,710.53197 420.76208,708.33401 C 421.46081,707.45462 424.40036,706.54137 423.87262,705.20412 C 423.75207,704.89349 423.63152,704.58286 423.51097,704.27223 L 430.96299,700.11688 C 431.08271,700.41791 431.20244,700.71893 431.32217,701.01996 C 432.4777,703.58191 430.46888,703.61746 428.66367,705.19193 C 425.73395,707.39507 422.72457,709.46074 420.04142,711.96178 C 417.00349,715.31717 414.09325,718.77995 411.43398,722.44669 C 409.03482,725.63855 406.45828,728.68589 403.66007,731.54069 C 400.34877,734.85534 395.10905,740.17303 391.8563,735.53196 C 389.13001,732.3717 386.41033,729.20128 383.54587,726.16501 C 378.81526,721.53298 373.25199,717.94027 367.11109,715.42784 L 374.13293,710.66358 z" />
  </g>
</svg>
