<?xml version="1.0" encoding="UTF-8" standalone="no"?>
<!-- Created with Inkscape (http://www.inkscape.org/) -->
<svg
   xmlns:dc="http://purl.org/dc/elements/1.1/"
   xmlns:cc="http://creativecommons.org/ns#"
   xmlns:rdf="http://www.w3.org/1999/02/22-rdf-syntax-ns#"
   xmlns:svg="http://www.w3.org/2000/svg"
   xmlns="http://www.w3.org/2000/svg"
   xmlns:sodipodi="http://sodipodi.sourceforge.net/DTD/sodipodi-0.dtd"
   xmlns:inkscape="http://www.inkscape.org/namespaces/inkscape"
   width="1010.3936"
   height="724.46527"
   id="svg2"
   sodipodi:version="0.32"
   inkscape:version="0.46+devel"
   version="1.0"
   sodipodi:docname="c21d2.svg"
   inkscape:output_extension="org.inkscape.output.svg.inkscape">
  <defs
     id="defs4">
    <inkscape:perspective
       sodipodi:type="inkscape:persp3d"
       inkscape:vp_x="0 : 526.18109 : 1"
       inkscape:vp_y="0 : 1000 : 0"
       inkscape:vp_z="744.09448 : 526.18109 : 1"
       inkscape:persp3d-origin="372.04724 : 350.78739 : 1"
       id="perspective10" />
  </defs>
  <sodipodi:namedview
     id="base"
     pagecolor="#ffffff"
     bordercolor="#666666"
     borderopacity="1.0"
     inkscape:pageopacity="0.0"
     inkscape:pageshadow="2"
     inkscape:zoom="0.35"
     inkscape:cx="346.8319"
     inkscape:cy="357.90963"
     inkscape:document-units="px"
     inkscape:current-layer="layer1"
     showgrid="false"
     inkscape:window-width="1280"
     inkscape:window-height="712"
     inkscape:window-x="-5"
     inkscape:window-y="-3" />
  <metadata
     id="metadata7">
    <rdf:RDF>
      <cc:Work
         rdf:about="">
        <dc:format>image/svg+xml</dc:format>
        <dc:type
           rdf:resource="http://purl.org/dc/dcmitype/StillImage" />
        <dc:title></dc:title>
      </cc:Work>
    </rdf:RDF>
  </metadata>
  <g
     inkscape:label="Layer 1"
     inkscape:groupmode="layer"
     id="layer1"
     transform="translate(-28.168105,-165.80652)">
    <path
       style="fill:#000000;fill-opacity:1;stroke:#000000;stroke-width:4;stroke-linecap:round;stroke-linejoin:round;stroke-miterlimit:4;stroke-opacity:1;stroke-dasharray:none;stroke-dashoffset:0"
       id="path2694"
       d="m 36.7902,882.97408 c -1.471557,0.80537 -2.756331,2.16311 -4.414672,2.4161 -1.298383,0.19808 2.15586,-1.50092 3.243344,-2.23741 4.377825,-2.96482 8.35175,-5.94116 12.086438,-9.69775 5.700776,-6.32188 11.254644,-12.7678 16.580344,-19.40807 5.720738,-7.47979 11.557593,-14.78972 17.863421,-21.78273 6.952,-7.67528 13.801301,-15.4379 20.656865,-23.20048 8.68081,-9.48594 16.95552,-19.32692 25.5559,-28.88507 9.76361,-11.81094 19.51993,-23.57665 29.7888,-34.95491 9.42326,-10.47544 19.16883,-20.65252 29.01487,-30.7292 9.33858,-8.53689 18.18105,-17.52553 26.83741,-26.74013 8.17135,-8.24472 16.03005,-16.78693 24.22953,-25.00218 6.67655,-6.5741 13.40853,-13.09145 20.09023,-19.66033 4.99735,-5.26659 9.96919,-10.56185 14.89765,-15.89708 3.79882,-4.58976 7.83172,-8.92387 12.05178,-13.11738 3.50592,-3.50004 6.72776,-7.25174 9.79698,-11.13493 3.16472,-4.39443 6.91113,-8.31575 10.27539,-12.5451 3.64357,-4.59298 7.50128,-9.02769 11.34133,-13.46273 3.5196,-3.99957 7.22142,-7.83338 10.95322,-11.63393 4.69317,-4.9051 10.44425,-8.52002 16.66704,-11.25713 3.04727,-1.55847 4.75044,-1.08341 7.32623,0.98664 3.07714,2.08461 5.14965,5.30597 7.70597,7.99637 3.24245,3.45139 6.36521,7.039 8.96619,11.00866 3.57554,5.28006 7.24496,10.50755 11.02302,15.64786 4.23205,6.44344 10.41795,10.77043 16.47107,15.31499 6.69279,5.56254 14.01188,10.19698 21.40409,14.74479 8.74477,5.05775 17.37054,10.30678 25.95403,15.6325 9.37428,5.88286 18.95787,11.40907 28.4827,17.04006 9.97296,6.07658 20.46803,11.22071 30.30405,17.51747 10.17278,6.85303 20.76549,13.04101 31.29005,19.32943 10.04816,6.53473 19.84093,13.43666 29.3915,20.67463 9.6191,6.6015 18.723,13.87813 28.09805,20.80729 9.71332,6.50203 19.19784,13.36336 28.14249,20.89118 8.02817,6.90441 14.72929,15.15699 21.22197,23.47376 5.79174,7.1375 11.54715,14.30152 17.34022,21.43875 4.81435,6.12364 10.50971,11.45909 16.26801,16.67461 4.26044,3.96662 8.84703,7.55452 13.22071,11.37924 3.22416,2.40095 6.30632,4.99255 9.9023,6.81719 6.0001,2.71513 3.34342,2.15838 -5.77365,6.34371 -3.95188,-0.15891 -7.74501,1.11255 -11.62348,1.75142 -7.03422,0.91751 -13.99095,2.45951 -20.92812,3.95136 -10.46239,1.99722 -20.93048,3.99733 -31.31476,6.37978 -13.30426,2.74792 -26.54108,5.79229 -39.95257,7.98509 -13.73779,2.65978 -27.66176,4.04176 -41.52609,5.83687 -13.38786,1.66308 -26.72148,3.52935 -40.18273,4.52801 -12.11114,0.78785 -24.25148,0.87499 -36.38336,0.93242 -11.50432,0.47255 -22.93614,-0.89573 -34.38589,-1.75837 -11.43365,-0.67103 -22.85592,-0.86583 -34.26222,-1.93305 -11.07295,-1.1357 -22.19362,-1.62228 -33.31659,-1.8878 -11.66584,-0.20316 -23.33405,-0.18673 -35.00123,-0.18584 -12.19323,0.002 -24.38645,0.009 -36.57968,0.015 -11.69188,0.006 -23.38377,0.007 -35.07565,0.008 -11.86205,0.004 -23.72408,-0.005 -35.58612,-0.005 -11.61893,0.5804 -23.07739,-0.64418 -34.50273,-2.58222 -10.85716,-2.64494 -21.90923,-4.28751 -32.9232,-6.11241 -10.15103,-1.84246 -20.36977,-3.30296 -30.53564,-5.05271 -9.43746,-1.78357 -18.99422,-2.63601 -28.575177,-3.10053 -8.097825,-0.3071 -16.202922,-0.30387 -24.305248,-0.30243 -6.277912,-0.25577 -12.40837,-0.004 -18.531757,1.41491 -3.914998,0.72394 -5.757829,2.61911 -7.353511,-1.95727 0,0 7.457986,-4.10971 7.457986,-4.10971 l 0,0 c 1.194058,3.71754 3.481998,1.28821 6.647529,0.93297 6.148074,-1.29753 12.320028,-1.43406 18.591722,-1.22981 8.104001,0.006 16.210583,0.0183 24.309246,0.35163 9.59532,0.50431 19.16023,1.41089 28.61298,3.19468 10.16836,1.70262 20.36208,3.25202 30.51229,5.06542 11.01642,1.83397 22.06437,3.503 32.93429,6.10738 11.39104,1.91465 22.82022,3.03242 34.39597,2.48702 11.86682,-1.4e-4 23.73364,-0.009 35.60046,-0.005 11.68832,2.8e-4 23.37664,9.1e-4 35.06496,-3.9e-4 12.19601,-0.002 24.39201,-0.0107 36.58801,-0.0206 11.67372,0.002 23.34846,-0.0104 35.02077,0.19631 11.13361,0.26732 22.26137,0.8086 33.34472,1.9379 11.40333,1.04545 22.82897,1.19794 34.25459,1.92146 11.43417,0.87379 22.85458,2.17755 34.34367,1.70591 12.1124,-0.0609 24.23355,-0.15415 36.32411,-0.96131 13.44831,-1.02188 26.77208,-2.9115 40.15148,-4.56028 13.85671,-1.78841 27.77051,-3.18755 41.4988,-5.85266 13.40822,-2.23214 26.65207,-5.27377 39.95458,-8.04962 10.4143,-2.35509 20.89949,-4.38348 31.37982,-6.41658 6.96271,-1.49872 13.94421,-3.00829 21.0034,-3.96306 3.89413,-0.68894 7.73219,-1.87173 11.72246,-1.68287 -1.97211,1.33329 -4.09219,2.47036 -5.91631,3.99988 -0.19427,0.16289 0.72152,0.67394 0.48328,0.58726 -0.95262,-0.3466 -1.86296,-0.80467 -2.77602,-1.24023 -3.59908,-1.92541 -6.73995,-4.53898 -9.97751,-7.00707 -4.39131,-3.81265 -8.93504,-7.45334 -13.20938,-11.409 -5.74837,-5.28277 -11.46872,-10.64022 -16.28951,-16.80915 -5.7893,-7.14566 -11.56235,-14.30158 -17.3325,-21.46179 -6.45053,-8.27477 -13.1149,-16.48072 -21.10353,-23.34059 -8.95,-7.49702 -18.41808,-14.34668 -28.11212,-20.84963 -9.37138,-6.93761 -18.49603,-14.19164 -28.09965,-20.81755 -9.53045,-7.2166 -19.30507,-14.10126 -29.34312,-20.59744 -10.52532,-6.30112 -21.11262,-12.51032 -31.30273,-19.34947 -9.85459,-6.2537 -20.32992,-11.419 -30.30005,-17.48672 -9.53171,-5.6339 -19.12079,-11.16539 -28.50449,-17.04702 -8.58999,-5.32281 -17.22757,-10.55959 -25.97992,-15.61206 -7.41619,-4.55774 -14.72451,-9.25425 -21.45827,-14.8022 -6.12364,-4.58961 -12.33333,-9.01013 -16.61969,-15.51332 -3.79125,-5.15052 -7.47308,-10.38774 -11.07732,-15.66773 -2.5835,-3.9203 -5.68963,-7.46341 -8.90708,-10.86953 -2.51861,-2.67089 -4.5955,-5.82789 -7.65908,-7.87675 -2.43036,-1.8494 -4.08592,-1.60151 -6.77671,-0.23399 -1.73952,0.83896 -8.56517,4.1876 3.91522,-2.50128 5.49977,-2.9476 -12.15997,7.86074 -6.10101,5.22052 -3.73618,3.79256 -7.4542,7.60679 -10.98694,11.59138 -3.8523,4.41823 -7.68898,8.86518 -11.36126,13.42312 -3.28454,4.28344 -7.12302,8.12204 -10.25695,12.53357 -3.00464,3.9567 -6.29457,7.67808 -9.76717,11.23619 -4.16978,4.23805 -8.3858,8.40716 -12.08695,13.09233 -4.87123,5.40676 -10.00607,10.5872 -14.91809,15.9552 -6.6929,6.5798 -13.43775,13.10617 -20.14196,19.67438 -8.22543,8.19626 -16.06302,16.76129 -24.26067,24.98757 -8.68149,9.20015 -17.4303,18.29304 -26.84778,26.76148 -9.8579,10.07457 -19.63145,20.23457 -29.06186,30.71304 -10.26999,11.37252 -20.09107,23.07407 -29.77553,34.94815 -8.59505,9.53996 -16.8334,19.38785 -25.50819,28.85585 -6.84244,7.7647 -13.674353,15.52867 -20.624371,23.19585 -6.284765,6.99494 -12.210607,14.20991 -17.864422,21.73063 -5.32,6.65466 -10.861466,13.11301 -16.529689,19.47508 -7.217773,7.56728 -16.277598,12.90005 -25.305723,18.04606 0,0 6.622095,-5.29705 6.622095,-5.29705 z" />
    <path
       style="fill:#000000;fill-opacity:1;stroke:#000000;stroke-width:4;stroke-linecap:round;stroke-linejoin:round;stroke-miterlimit:4;stroke-opacity:1;stroke-dasharray:none;stroke-dashoffset:0"
       id="path2696"
       d="m 527.25696,526.65175 c 3.38419,7.50187 5.47581,15.35587 6.72229,23.46365 1.19005,10.2387 1.16164,20.56842 1.21834,30.86111 0.4246,12.93685 -1.5072,25.67366 -4.52964,38.20331 -3.64619,14.65552 -9.84431,28.37135 -17.73673,41.18971 -8.99499,14.98189 -22.24458,25.91368 -36.22298,35.96935 -22.91663,15.69292 -48.14093,26.7904 -74.23733,35.88668 -29.80533,10.88001 -60.35919,17.7058 -91.75907,21.77147 -20.43189,2.34729 -41.15917,3.1524 -61.53687,-0.21818 -13.30464,-2.20065 -16.35607,-3.66937 -29.13727,-7.72236 -22.8917,-8.42408 -43.72549,-21.2122 -61.32763,-38.11875 -3.37044,-3.23725 -6.47134,-6.74391 -9.70702,-10.11587 -14.40683,-17.25072 -25.26691,-37.10138 -29.93816,-59.21341 -0.90572,-4.28736 -1.34368,-8.66036 -2.01552,-12.99053 -1.46417,-18.65101 1.15817,-37.19167 8.16159,-54.56993 4.62898,-11.48632 8.08779,-16.64787 14.26638,-27.44129 19.72197,-30.96961 47.30706,-55.27238 76.05248,-77.56863 29.11313,-21.07168 60.15594,-39.91407 93.20574,-54.18425 5.88483,-2.54094 11.90823,-4.74812 17.86235,-7.12218 27.16896,-10.11448 56.10032,-16.31566 85.19205,-13.07645 5.22744,0.58204 10.36973,1.76864 15.5546,2.65296 19.6635,4.63291 38.04502,13.13245 54.6588,24.57997 9.93032,6.84237 12.936,9.93797 21.88771,17.80235 12.2055,11.61775 23.33527,24.52255 31.56504,39.29941 4.84822,8.70517 5.4137,11.02814 8.99425,20.15966 5.52064,15.1215 6.99092,30.94553 1.80775,46.2732 -1.42502,3.72513 -3.73474,5.93333 -6.9247,8.05181 0,0 -7.89084,3.05436 -7.89084,3.05436 l 0,0 c 3.33302,-1.89448 5.71634,-3.84883 7.24921,-7.5667 5.47691,-15.10822 4.03629,-30.82833 -1.35465,-45.84821 -3.55817,-9.15514 -4.05236,-11.32132 -8.89051,-20.05227 -8.15788,-14.72177 -19.21645,-27.58101 -31.36865,-39.13566 -3.43923,-3.0244 -6.76387,-6.18431 -10.31768,-9.07321 -19.33303,-15.71583 -41.61352,-27.26981 -65.91954,-32.98353 -5.16416,-0.86175 -10.28714,-2.02346 -15.49247,-2.58527 -29.00977,-3.13099 -57.82138,3.14471 -84.88609,13.2723 -5.93957,2.38096 -11.94847,4.59576 -17.81871,7.14287 -28.35205,12.30205 -55.0545,28.06043 -79.87224,46.44623 -28.72152,22.1894 -56.27505,46.39272 -76.0403,77.2295 -6.16563,10.71455 -9.63544,15.88208 -14.27977,27.27916 -7.02864,17.24809 -9.69942,35.65448 -8.2868,54.20036 0.65913,4.30376 1.085,8.64978 1.97739,12.91129 4.60562,21.9936 15.3681,41.73698 29.70275,58.8829 3.22141,3.35528 6.30743,6.846 9.66422,10.06583 17.53755,16.82206 38.31153,29.515 61.12023,37.85437 12.79429,4.01725 15.73095,5.44107 29.04659,7.6001 20.33927,3.29786 41.01508,2.44298 61.39568,0.0803 31.38319,-4.13013 61.91714,-11.02038 91.7003,-21.93418 20.93294,-7.37464 41.78315,-15.53749 60.31719,-27.9651 13.95375,-9.96742 27.26885,-20.74541 36.28006,-35.64258 7.95813,-12.70495 14.14541,-26.36048 17.82367,-40.93994 3.03295,-12.45698 5.0152,-25.12398 4.56678,-37.99572 -0.0589,-10.24947 -0.0366,-20.53446 -1.20273,-30.73177 -1.21799,-8.05882 -3.24336,-15.88885 -6.73212,-23.29484 0,0 7.43258,-4.09345 7.43258,-4.09345 z" />
    <path
       style="fill:#000000;fill-opacity:1;stroke:#000000;stroke-width:4;stroke-linecap:round;stroke-linejoin:round;stroke-miterlimit:4;stroke-opacity:1;stroke-dasharray:none;stroke-dashoffset:0"
       id="path2698"
       d="m 337.33214,571.60095 c -5.61363,-1.56526 -9.82576,-2.49584 -10.91069,-8.81392 0.40695,-4.91303 3.78137,-8.25544 7.58591,-10.95837 5.44367,-3.25405 12.81151,-10.48993 16.86877,-3.01706 1.86425,4.89787 -0.26509,9.26004 -2.87551,13.38713 -5.23287,5.84664 -12.45541,11.67365 -20.10411,13.57408 -4.82616,-0.18022 -7.18885,-2.97679 -7.73813,-7.57676 0.53611,-6.877 3.50515,-12.51355 8.11162,-17.4861 7.02131,-5.41313 15.18196,-11.35248 24.3422,-11.5003 5.18744,0.0737 7.21927,3.74543 7.52822,8.45859 -1.01221,5.8916 -5.75927,9.94947 -10.10361,13.61788 -6.58041,4.25553 -13.92163,10.15439 -22.21486,10.00975 -4.66231,-1.3158 -5.07643,-4.69503 -4.12492,-8.92373 2.20009,-6.18024 6.73089,-10.5481 11.89475,-14.3124 5.8057,-3.87997 12.19702,-10.01185 19.28536,-6.6854 3.47651,3.30601 0.83597,8.7825 -0.46938,12.58496 -2.69909,6.26695 -7.47941,10.97323 -12.88149,14.95284 -4.72444,0.50303 -10.63393,8.51849 -16.50465,7.80883 -1.23075,-0.14877 -2.05883,-0.78505 -3.06638,-1.39625 -3.10133,-3.35268 -0.95335,-7.4961 1.16891,-10.72082 4.49369,-4.38599 10.627,-9.30105 17.16577,-7.97722 3.83138,1.74729 5.05223,5.04998 4.98453,9.00199 -1.05113,5.55146 -4.06754,10.36627 -7.98052,14.34089 -4.50111,3.10437 -12.25296,12.14687 -16.7214,6.27886 -2.18242,-5.11291 -0.53028,-10.62315 1.26076,-15.5949 4.36337,-9.19447 10.08632,-11.71492 18.85495,-16.62156 3.65823,-1.41132 7.12243,-1.47856 9.66247,1.7593 1.87717,3.17747 2.32364,6.84512 0.97665,10.2643 -3.29186,5.18302 -10.17431,8.89169 -16.32863,8.2685 -4.3063,-0.5918 -7.15307,-3.48346 -8.83083,-7.30291 -1.26613,-3.82815 -1.5684,-7.73708 1.27301,-10.85443 7.74892,-5.42933 12.44173,-7.28983 20.8826,-4.11165 5.00442,2.15136 7.43917,6.44531 8.91222,11.44017 1.19459,4.34538 -0.45962,7.82992 -3.84859,10.52874 -6.32456,4.21317 -11.54657,8.1428 -18.14457,3.46059 -3.50497,-3.64299 -4.24311,-8.43994 -3.78086,-13.27851 1.95525,-8.91683 9.57571,-11.55626 16.98906,-15.64246 4.64831,-1.74059 9.29066,0.007 12.44356,3.59834 3.12,4.84129 2.44582,9.75484 0.86961,14.96441 -3.03976,8.35478 -10.65751,12.8887 -19.08038,15.31297 -5.6617,1.52329 -9.7948,-0.66054 -12.67315,-5.50364 -2.86151,-5.88545 -1.37336,-11.07245 1.65812,-16.48341 5.05231,-7.73431 13.32305,-12.63035 22.09454,-15.33361 5.08225,-0.6989 7.71716,1.13726 9.2033,5.87877 1.22838,5.33798 -0.23667,10.31459 -3.48974,14.56891 -5.58575,4.74719 -12.32477,9.38713 -19.89349,8.79879 -5.02851,-0.39891 -6.95046,-3.95778 -8.27025,-8.33064 -1.24824,-4.52479 0.70632,-8.19969 3.90135,-11.26968 7.09067,-5.3323 12.8394,-8.46585 20.43018,-4.11531 4.53473,3.72017 4.37978,8.46804 3.05912,13.6796 -2.99825,6.9046 -8.51055,11.78848 -14.73529,15.7311 -8.25606,4.61264 -17.87341,10.68725 -27.42946,6.3744 -5.70227,-4.1174 -5.23885,-9.98768 -3.53463,-16.09566 3.10029,-8.60684 9.60331,-14.94839 16.73158,-20.33998 9.39446,-5.82429 15.53938,-11.61704 26.45178,-9.07001 5.65025,2.45464 8.14571,8.26354 8.97466,14.0235 0.338,6.29523 -1.26915,12.33012 -5.36967,17.1411 -6.00404,5.23759 -12.40884,9.44824 -20.33762,7.23545 -5.43458,-1.6848 -9.12926,-5.46375 -12.05545,-10.16137 -3.0608,-9.50383 3.07,-10.54288 10.93955,-15.00621 4.97386,-1.65168 9.91199,-1.18612 14.35092,1.54573 3.89011,3.41951 4.5295,7.70962 2.44882,12.27947 -4.4909,6.2003 -15.12948,11.30753 -22.81963,12.86205 -5.02537,0.81094 -9.33266,-0.27423 -11.77174,-4.87165 -1.90873,-5.92616 0.18956,-11.77615 3.60994,-16.65813 5.86915,-5.3668 13.66548,-12.32135 22.07402,-10.64439 5.8481,2.42843 7.24451,7.60021 7.43637,13.40641 -0.43885,7.26076 -4.29665,12.928 -9.49267,17.70029 -4.12797,2.86476 -10.88197,8.81116 -16.28635,8.34168 -1.01187,-0.0879 -2.60782,-0.90912 -3.50206,-1.31728 -3.40215,-2.41255 -4.54625,-5.82095 -3.47294,-9.75037 3.39372,-5.74677 9.81134,-8.39775 15.36919,-11.5577 3.14014,-1.17368 10.44837,-4.33418 -3.05938,1.59877 0.06,-0.39825 0.11991,-0.79651 0.17987,-1.19477 0,0 7.64518,-3.76506 7.64518,-3.76506 l 0,0 c -0.0523,0.42054 -0.10468,0.84109 -0.15701,1.26163 -5.12531,3.99848 -6.40229,5.51609 -11.24009,7.42566 12.58412,-7.42955 0.91633,-0.90904 -1.04739,2.60908 -1.30299,3.47513 -0.33098,6.58274 2.85649,8.66105 1.88552,0.76405 3.19052,1.22294 5.2407,0.59765 0.79206,-0.24157 2.95574,-1.45422 2.29121,-0.96014 -1.53928,1.14446 -3.21191,2.12249 -4.9489,2.93614 -0.8676,0.4064 1.54374,-1.1351 2.31561,-1.70265 5.23209,-4.49747 9.19259,-9.9389 9.79371,-17.02976 -0.10783,-5.3986 -1.19777,-10.37497 -6.86275,-12.38493 -2.13749,-0.25586 -2.34128,-0.49144 -4.54333,0.18553 -0.84301,0.25917 -3.12843,1.58727 -2.42808,1.0512 10.01193,-7.66347 1.55897,-0.11868 -0.41124,1.18309 -3.46088,4.48782 -5.70369,10.11179 -3.98929,15.78826 2.26543,4.30765 6.58272,4.79467 11.12242,3.97766 3.5111,-0.86029 2.72576,-0.4969 6.0969,-2.035 0.99672,-0.45476 3.78104,-2.16289 2.95004,-1.44898 -1.34002,1.15121 -2.93785,1.97706 -4.50775,2.78721 -1.5483,0.79899 5.61483,-3.44115 3.82856,-3.55849 2.27222,-4.06157 1.85352,-8.05371 -1.83345,-11.16454 -4.35857,-2.4786 -9.17872,-2.71376 -13.8646,-0.85555 1.78045,-1.09985 3.51793,-2.27253 5.34137,-3.29956 0.5594,-0.31507 -1.09529,0.69407 -1.53911,1.158 -2.02888,2.12082 -1.59537,5.05024 -0.78792,7.58878 2.80718,4.55164 6.41975,8.09928 11.70105,9.61545 2.17312,0.48855 2.6382,0.79927 4.84344,0.51901 0.75323,-0.0957 2.76661,-1.05897 2.21314,-0.53917 -1.51379,1.42169 -3.5418,2.17535 -5.23524,3.37742 -1.22485,0.86945 5.47745,-2.99749 3.74281,-2.50938 4.28464,-4.45337 5.92956,-10.34666 5.69157,-16.48184 -0.65852,-5.44404 -3.00311,-11.01133 -8.44855,-13.1324 -3.00223,-0.60879 -5.43869,-0.91095 -8.45972,-0.005 -1.14725,0.34404 -3.73015,2.45807 -3.33962,1.32581 0.47979,-1.39106 2.98558,-1.11313 3.70834,-2.39487 0.69324,-1.22938 -2.40511,1.47755 -3.60766,2.21633 -7.11049,5.2498 -13.69887,11.36343 -16.92132,19.82914 -1.69264,5.63983 -2.53928,11.24197 2.96917,15.01219 4.26202,1.72071 7.85357,1.39168 12.25802,0.12215 1.27747,-0.36821 3.49007,-2.55697 3.78406,-1.2604 0.31713,1.39868 -2.33574,1.66488 -3.5036,2.49732 6.23939,-3.75961 11.699,-8.44835 14.94868,-15.12421 1.30916,-4.82049 1.87811,-9.25535 -2.52958,-12.69132 -1.93999,-1.02146 -3.98836,-1.9504 -6.25402,-1.90112 -0.79423,0.0173 -2.89894,0.9558 -2.35297,0.37872 1.38594,-1.46492 3.43784,-2.11375 5.08935,-3.27104 0.60704,-0.42537 -1.29939,0.71368 -1.94909,1.07051 -3.21373,2.66468 -5.44274,6.08014 -4.30847,10.40308 1.20047,4.1623 2.93273,7.23896 7.70786,7.4441 2.25486,0.029 2.03659,0.1627 4.34443,-0.40801 0.71983,-0.178 2.69361,-1.13333 2.12528,-0.65706 -9.87572,8.27609 -4.02592,1.63905 -1.25416,0.54448 3.36995,-3.91118 4.95153,-8.64657 3.8329,-13.81345 -1.32044,-4.42386 -3.84372,-5.67173 -8.44991,-4.7686 -4.97669,1.66034 -1.50733,0.74197 2.01578,-2.158 0.80162,-0.65984 -1.85202,0.94942 -2.71484,1.52693 -2.86115,1.91502 -5.12885,4.47263 -6.99324,7.34512 -3.0412,5.10631 -4.77352,9.96638 -2.03351,15.66844 2.76515,4.64101 6.76759,6.15019 12.0329,4.57247 3.97861,-1.32863 4.08721,-1.58894 -2.2805,2.19023 -0.77168,0.45798 1.54403,-0.92839 2.23402,-1.50211 2.2987,-1.91136 3.75505,-4.44463 4.78679,-7.21121 1.55606,-4.92621 2.516,-9.53126 -0.48654,-14.18132 -3.08916,-3.39548 -7.50249,-4.58122 -11.81119,-2.71113 1.70564,-1.04944 3.43915,-2.05487 5.11691,-3.14832 0.74036,-0.48251 -1.57911,0.80657 -2.30255,1.31411 -2.90739,2.03974 -4.70148,5.02792 -5.57628,8.4261 -0.54093,4.5272 -0.0422,9.08155 3.33829,12.47551 6.53165,4.22341 14.04225,-2.32213 3.09193,4.23455 3.4306,-2.21766 5.39444,-5.43254 4.2989,-9.58923 -1.35287,-4.79274 -3.63824,-8.82178 -8.48698,-10.76831 -3.30056,-1.17751 -6.16699,-1.93403 -9.65428,-1.04977 -0.66362,0.16827 -2.4949,1.05766 -1.95099,0.64187 1.74411,-1.33325 3.74311,-2.29501 5.61467,-3.44252 -3.20709,2.51403 -2.87389,6.30913 -1.73914,9.91909 1.55259,3.60956 4.26183,6.13735 8.32778,6.51203 1.93753,0.0169 1.74419,0.16733 3.56616,-0.39463 0.52775,-0.16278 2.00115,-0.90592 1.54835,-0.58971 -10.81053,7.5495 -5.0344,3.46791 -3.41665,1.20091 1.60001,-3.0357 1.14591,-6.47309 -0.54894,-9.42856 -2.39269,-2.8936 -5.84146,-2.16485 -8.98534,-0.82815 1.7629,-1.06773 3.52944,-2.12948 5.28869,-3.2032 0.72601,-0.44311 -1.50268,0.80879 -2.18891,1.31131 -3.34048,2.44622 -5.64404,6.14318 -7.68383,9.65629 -1.77816,4.65112 -3.4934,9.91539 -1.59106,14.78917 0.59045,0.71333 0.65748,1.14207 1.70456,1.09453 0.47625,-0.0216 1.7739,-0.62705 1.38715,-0.3483 -10.91125,7.8642 -3.9443,2.00993 -1.50257,0.56694 3.98586,-3.73899 6.94176,-8.37385 8.22216,-13.73768 0.16279,-3.53222 -0.71497,-6.61869 -4.37858,-7.93944 -2.64766,-0.32378 -4.92539,0.79346 -4.67461,0.6132 10.71863,-7.70456 4.5624,-2.61153 2.25744,-0.92204 -1.88467,2.65892 -4.60763,6.50741 -1.81106,9.4734 0.99165,0.52418 1.54627,0.9611 2.7446,0.96519 2.80366,0.01 11.94525,-5.59407 1.84059,0.3652 5.43673,-3.79961 10.22578,-8.38009 13.08232,-14.47729 1.12691,-3.15609 3.97631,-8.65824 1.0316,-11.44757 -4.63679,-1.86159 -11.76818,2.46517 -1.93293,-2.73937 0.8546,-0.45223 -1.61032,1.07066 -2.41549,1.60599 -5.14438,3.6404 -9.73148,7.71192 -12.09627,13.75219 -1.02352,3.67233 -1.03567,6.74859 3.33446,7.58829 2.33591,-0.11608 2.02405,0.0353 4.42644,-0.705 2.14341,-0.66046 10.79159,-4.5449 0.39925,0.67555 -0.97147,0.48801 1.80339,-1.21466 2.70508,-1.822 4.25965,-3.51385 8.94374,-7.31838 10.39035,-12.89308 -0.10088,-4.44572 -2.03288,-7.44307 -6.81894,-7.33448 -2.79204,0.20584 -2.35885,0.008 -5.10406,0.90907 -0.93205,0.30598 -3.36704,1.79961 -2.75603,1.03215 1.02524,-1.28773 2.89339,-1.62787 4.11161,-2.73481 1.78237,-1.61956 -8.23082,5.22324 -5.98736,4.04352 -4.66596,4.73427 -7.62569,10.09013 -8.3654,16.80247 0.30512,4.18296 2.56584,6.62284 6.93788,6.32283 3.03216,-1.0082 4.72636,-1.72989 -2.99899,2.32124 -0.78445,0.41136 1.47986,-0.97646 2.18327,-1.5148 2.29226,-1.75434 4.61048,-3.571 6.45627,-5.8032 2.53485,-3.79505 4.9076,-7.89966 3.24226,-12.55395 -0.74911,-1.38591 -1.35531,-2.56739 -3.1704,-2.49483 -0.58982,0.0236 -2.18802,0.74131 -1.73269,0.36566 1.40047,-1.1554 8.72119,-5.21858 3.29556,-2.17748 -3.75292,2.42177 -7.1488,5.46219 -7.96111,10.08042 0.76395,5.9224 5.23346,6.56784 10.3474,7.90945 0,0 -6.94884,4.87535 -6.94884,4.87535 z" />
    <path
       style="fill:#000000;fill-opacity:1;stroke:#000000;stroke-width:4;stroke-linecap:round;stroke-linejoin:round;stroke-miterlimit:4;stroke-opacity:1;stroke-dasharray:none;stroke-dashoffset:0"
       id="path2700"
       d="m 360.10669,558.44256 c 5.30212,0.0278 10.60433,0.0242 15.90649,0.0168 0,0 -6.81104,4.94851 -6.81104,4.94851 l 0,0 c -5.31757,-0.007 -10.63519,-0.0109 -15.95272,0.0168 0,0 6.85727,-4.9821 6.85727,-4.9821 z" />
    <path
       style="fill:#000000;fill-opacity:1;stroke:#000000;stroke-width:4;stroke-linecap:round;stroke-linejoin:round;stroke-miterlimit:4;stroke-opacity:1;stroke-dasharray:none;stroke-dashoffset:0"
       id="path2702"
       d="m 414.09643,555.98055 c 5.64526,0.93324 11.34473,1.46864 17.04022,1.98201 0,0 -6.88758,4.9065 -6.88758,4.9065 l 0,0 c -5.71312,-0.55548 -11.42871,-1.12246 -17.10148,-2.01315 0,0 6.94884,-4.87536 6.94884,-4.87536 z" />
    <path
       style="fill:#000000;fill-opacity:1;stroke:#000000;stroke-width:4;stroke-linecap:round;stroke-linejoin:round;stroke-miterlimit:4;stroke-opacity:1;stroke-dasharray:none;stroke-dashoffset:0"
       id="path2704"
       d="m 485.82098,564.15685 c 5.30211,0.0278 10.60433,0.0242 15.90649,0.0168 0,0 -6.81105,4.94851 -6.81105,4.94851 l 0,0 c -5.31757,-0.007 -10.63519,-0.0108 -15.95271,0.0168 0,0 6.85727,-4.9821 6.85727,-4.9821 z" />
    <path
       style="fill:#000000;fill-opacity:1;stroke:#000000;stroke-width:4;stroke-linecap:round;stroke-linejoin:round;stroke-miterlimit:4;stroke-opacity:1;stroke-dasharray:none;stroke-dashoffset:0"
       id="path2706"
       d="m 574.01403,560.8979 c 0.93933,-0.15409 1.87866,-0.30819 2.81799,-0.46229 0,0 -6.75885,5.08323 -6.75885,5.08323 l 0,0 c -0.94773,0.16041 -1.89546,0.32082 -2.84318,0.48124 0,0 6.78404,-5.10218 6.78404,-5.10218 z" />
    <path
       style="fill:#000000;fill-opacity:1;stroke:#000000;stroke-width:4;stroke-linecap:round;stroke-linejoin:round;stroke-miterlimit:4;stroke-opacity:1;stroke-dasharray:none;stroke-dashoffset:0"
       id="path2708"
       d="m 588.29975,552.32648 c 7.20258,-1.51188 14.50931,-0.85536 21.77812,-0.37721 3.90473,0.59743 7.7559,1.48222 11.5949,2.40069 0,0 -6.97737,4.82136 -6.97737,4.82136 l 0,0 c -3.79071,-0.92105 -7.59699,-1.80891 -11.47059,-2.31129 -7.25382,-0.47478 -14.53664,-1.02056 -21.70911,0.56862 0,0 6.78405,-5.10217 6.78405,-5.10217 z" />
    <path
       style="fill:#000000;fill-opacity:1;stroke:#000000;stroke-width:4;stroke-linecap:round;stroke-linejoin:round;stroke-miterlimit:4;stroke-opacity:1;stroke-dasharray:none;stroke-dashoffset:0"
       id="path2710"
       d="m 677.24955,547.01399 c 6.76501,0.0289 13.53008,0.0111 20.29512,0.007 3.69803,-10e-4 1.91342,6.4e-4 5.35384,-0.006 0,0 -6.85453,4.9801 -6.85453,4.9801 l 0,0 c -3.42677,-0.006 -1.64739,-0.004 -5.33812,-0.006 -6.77119,-0.004 -13.54242,-0.0221 -20.31358,0.007 0,0 6.85727,-4.9821 6.85727,-4.9821 z" />
    <path
       style="fill:#000000;fill-opacity:1;stroke:#000000;stroke-width:4;stroke-linecap:round;stroke-linejoin:round;stroke-miterlimit:4;stroke-opacity:1;stroke-dasharray:none;stroke-dashoffset:0"
       id="path2712"
       d="m 745.44261,549.46933 c 6.27267,-0.74621 12.56879,-2.21597 18.90458,-1.77004 2.51067,0.31319 5.0076,0.72212 7.50438,1.12833 0,0 -6.93976,4.87268 -6.93976,4.87268 l 0,0 c -2.47206,-0.40375 -4.94458,-0.81576 -7.43867,-1.06309 -6.3165,-0.2336 -12.57726,1.08549 -18.81458,1.9343 0,0 6.78405,-5.10218 6.78405,-5.10218 z" />
    <path
       style="fill:#000000;fill-opacity:1;stroke:#000000;stroke-width:4;stroke-linecap:round;stroke-linejoin:round;stroke-miterlimit:4;stroke-opacity:1;stroke-dasharray:none;stroke-dashoffset:0"
       id="path2714"
       d="m 831.15689,540.8979 c 5.92839,-0.93702 11.9066,-1.47059 17.88549,-1.9536 0,0 -6.78627,5.01423 -6.78627,5.01423 l 0,0 c -5.98192,0.4792 -11.96261,1.03606 -17.88327,2.04155 0,0 6.78405,-5.10218 6.78405,-5.10218 z" />
    <path
       style="fill:#000000;fill-opacity:1;stroke:#000000;stroke-width:4;stroke-linecap:round;stroke-linejoin:round;stroke-miterlimit:4;stroke-opacity:1;stroke-dasharray:none;stroke-dashoffset:0"
       id="path2716"
       d="m 908.71273,544.54779 c 8.52758,1.38756 16.93821,3.26665 25.53276,4.28157 1.35084,0.13096 2.70168,0.26192 4.05252,0.39287 0,0 -6.85217,4.87466 -6.85217,4.87466 l 0,0 c -1.34867,-0.13935 -2.69733,-0.27871 -4.046,-0.41806 -8.61058,-1.05542 -17.04224,-2.9875 -25.61359,-4.2473 0,0 6.92648,-4.88374 6.92648,-4.88374 z" />
    <path
       style="fill:#000000;fill-opacity:1;stroke:#000000;stroke-width:4;stroke-linecap:round;stroke-linejoin:round;stroke-miterlimit:4;stroke-opacity:1;stroke-dasharray:none;stroke-dashoffset:0"
       id="path2718"
       d="m 940.31335,338.50573 c -5.67003,2.33278 -11.35089,3.21997 -17.42711,2.96901 -4.31512,-0.91186 -8.61939,-2.08025 -12.02233,-4.98781 -2.70633,-3.19909 -2.98462,-7.14534 -3.20332,-11.14883 -0.28951,-4.92006 0.97082,-9.73812 2.75443,-14.27903 3.33694,-6.97541 10.23151,-9.75147 16.70661,-13.3658 5.08535,-2.45803 10.21396,-4.7691 15.67677,-6.24644 4.70501,-1.13894 9.52634,-1.46738 14.34729,-1.59921 4.42825,-0.42725 7.7788,2.16503 10.99398,4.8405 2.55838,2.63671 4.71475,5.39541 6.08525,8.81697 1.30736,3.72685 0.88902,6.7742 -0.97509,10.15117 -2.43829,3.45713 -5.52042,6.33405 -8.98206,8.73904 -5.22487,4.32285 -11.59193,6.83101 -17.49489,10.03317 -1.98632,1.37052 -4.38894,0.95942 -6.51247,0.12084 -1.11912,-0.37157 -1.19361,-1.28469 -1.25763,-2.34396 0.0717,-1.05157 -0.85224,-1.14323 -1.5587,-2.10494 0,0 7.34781,-4.359 7.34781,-4.359 l 0,0 c 0.68638,0.89952 2.0022,1.2578 1.8134,2.55016 0.0195,0.89802 -0.1866,1.2044 0.74013,1.47676 2.10692,0.68586 4.16048,0.63261 6.04998,-0.66625 0.5379,-0.28247 1.07111,-0.57406 1.6137,-0.84741 11.31105,-5.69833 -9.75352,6.74925 1.35316,-0.77003 3.54147,-2.22092 6.52297,-5.11339 9.12912,-8.36576 2.00934,-3.46833 2.58206,-5.48095 1.29996,-9.46769 -1.27986,-3.30473 -3.37462,-5.94033 -5.85114,-8.45789 -3.15221,-2.59782 -6.35038,-4.82361 -10.64746,-4.33421 -4.77583,0.16555 -9.55283,0.53135 -14.19618,1.74269 -5.41759,1.57498 -10.53335,3.9194 -15.60033,6.38258 11.85251,-7.26556 -1.10912,0.30333 -2.38103,4.51664 -1.8315,4.41034 -3.17505,9.12641 -2.91942,13.94782 0.18861,3.74808 0.32202,7.53322 2.87388,10.53194 3.33067,2.69881 7.52102,3.8159 11.68853,4.53821 6.01807,0.17615 11.65028,-0.96067 17.25587,-3.219 0,0 -6.70071,5.20576 -6.70071,5.20576 z" />
    <path
       style="fill:#000000;fill-opacity:1;stroke:#000000;stroke-width:4;stroke-linecap:round;stroke-linejoin:round;stroke-miterlimit:4;stroke-opacity:1;stroke-dasharray:none;stroke-dashoffset:0"
       id="path2720"
       d="m 941.23396,349.56657 c 1.00194,5.75862 1.72042,11.55437 2.2037,17.37761 0.3141,4.33839 0.34883,8.68929 0.35996,13.03681 -0.1105,5.56016 -1.46823,11.007 -2.08126,16.53627 -0.68156,6.97576 -0.74335,13.99006 -0.81496,20.99243 -0.0961,7.34807 1.30861,14.61416 2.03547,21.91306 0.55234,5.63316 0.75113,11.28694 0.82711,16.94341 0.041,4.51963 0.038,9.03947 0.0316,13.55923 -0.011,4.24753 -0.0102,8.49507 -0.0162,12.74261 0.003,4.22535 0.002,8.4507 0.002,12.67605 0.0129,3.44126 0.002,6.88255 0.007,10.32381 -3.6e-4,3.41826 8.5e-4,6.83652 -0.002,10.25478 -0.004,3.20395 -0.004,6.40792 0.0128,9.61184 0.0471,4.44962 0.40269,1.85215 -7.60172,4.93111 -0.12663,-0.94682 0.29407,-1.73204 0.71533,-2.5387 0,0 7.79979,-3.46401 7.79979,-3.46401 l 0,0 c -0.45938,0.68813 -1.03817,1.24566 -0.91172,2.12858 -8.5703,5.43694 -7.59115,7.53137 -7.60172,2.81543 0.0168,-3.20828 0.0171,-6.41661 0.0128,-9.62492 -0.003,-3.41767 -10e-4,-6.83534 -0.002,-10.25301 0.005,-3.44363 -0.006,-6.88727 0.007,-10.3309 3.4e-4,-4.22663 -5.2e-4,-8.45327 0.004,-12.67991 -0.003,-4.24629 0.003,-8.49256 0.006,-12.73885 0.009,-4.51969 0.0322,-9.03951 -0.005,-13.55914 -0.0696,-5.63957 -0.23635,-11.27917 -0.75838,-16.89807 -0.7099,-7.33039 -2.13787,-14.62067 -2.071,-21.99585 0.0514,-7.02354 0.11098,-14.05898 0.76034,-21.05808 0.57709,-5.50376 1.87682,-10.91913 2.08525,-16.43349 -0.0166,-4.32951 -0.0341,-8.66265 -0.32087,-12.98463 -0.43732,-5.80202 -1.12131,-11.58168 -2.18417,-17.30537 0,0 7.49868,-3.9781 7.49868,-3.9781 z" />
    <path
       style="fill:#000000;fill-opacity:1;stroke:#000000;stroke-width:4;stroke-linecap:round;stroke-linejoin:round;stroke-miterlimit:4;stroke-opacity:1;stroke-dasharray:none;stroke-dashoffset:0"
       id="path2722"
       d="m 924.70989,503.74338 c 2.8058,6.05606 6.59954,11.55919 9.9246,17.32648 1.84654,3.16242 3.04463,6.9904 5.65885,9.63352 -1.59524,2.6083 4.79157,-1.1176 3.85112,-0.6311 -6.30144,3.25977 -7.86945,4.72102 -4.65832,2.05445 3.2908,-3.21425 5.85753,-7.087 8.5204,-10.8209 1.91108,-3.26091 4.40322,-6.09737 6.59133,-9.15433 0.81385,-1.29334 1.45089,-2.63854 1.60228,-4.16262 0.052,-1.2709 0.0353,-0.6305 0.0493,-1.92121 0,0 7.60494,-3.86842 7.60494,-3.86842 l 0,0 c -0.004,1.31554 4e-4,0.65912 -0.0123,1.96924 -0.0928,1.6708 -0.5486,3.11744 -1.44216,4.56574 -1.9597,3.20521 -4.90339,5.80282 -6.62375,9.20137 -2.68471,3.76294 -5.26544,7.61669 -8.4049,11.01696 -2.65389,2.13681 -10.53789,9.69399 -14.35374,6.19036 -2.59385,-2.76159 -3.8657,-6.59164 -5.70903,-9.84713 -3.29533,-5.80322 -7.08726,-11.3205 -9.96773,-17.3565 0,0 7.3692,-4.19591 7.3692,-4.19591 z" />
    <path
       style="fill:#000000;fill-opacity:1;stroke:#000000;stroke-width:4;stroke-linecap:round;stroke-linejoin:round;stroke-miterlimit:4;stroke-opacity:1;stroke-dasharray:none;stroke-dashoffset:0"
       id="path2724"
       d="m 908.91429,380.58124 c 3.84836,-5.86239 8.00879,-11.51085 12.47489,-16.91576 2.62452,-3.18083 5.70112,-5.96934 9.0943,-8.30781 3.13632,-2.05093 5.53839,-3.10149 10.05369,-3.77988 0.43859,-0.0659 2.18692,4.39275 2.40435,4.81318 1.74849,3.57578 3.42743,7.19647 5.34883,10.68385 1.57167,2.76699 3.59643,5.24492 5.68416,7.635 1.69658,1.18527 3.3167,-0.0425 4.87427,-0.96874 0,0 -6.64694,5.35911 -6.64694,5.35911 l 0,0 c -1.91387,0.96768 -3.7537,1.61971 -5.53765,0.0138 -2.08455,-2.46514 -4.13687,-4.9931 -5.73306,-7.8085 -1.93528,-3.48789 -3.61053,-7.1195 -5.36611,-10.69968 -0.11831,-0.2271 -2.32676,-4.58869 -2.3103,-4.60497 7.87788,-7.7962 8.752,-5.57464 5.15755,-3.74771 -3.45402,2.25025 -6.58477,4.95733 -9.24648,8.10796 -4.49389,5.35314 -8.69052,10.95325 -12.48883,16.82369 0,0 -7.76267,3.39642 -7.76267,3.39642 z" />
    <path
       style="fill:#000000;fill-opacity:1;stroke:#000000;stroke-width:4;stroke-linecap:round;stroke-linejoin:round;stroke-miterlimit:4;stroke-opacity:1;stroke-dasharray:none;stroke-dashoffset:0"
       id="path2726"
       d="m 996.52878,483.60432 c 1.37347,-6.33624 4.77082,-11.57955 9.83762,-15.53593 3.5383,-1.99197 14.0715,-10.87245 16.0962,-2.22065 -0.7514,6.26899 -5.5999,11.09768 -9.6065,15.63004 -6.2548,7.9786 -14.06351,12.53818 -22.81842,17.3725 -4.54069,2.09247 -7.51556,-0.17074 -9.3062,-4.34189 -2.98379,-6.78169 -3.28423,-14.28275 -4.31894,-21.5155 -1.09596,-9.72599 -3.01252,-19.32303 -4.42137,-29.00399 -0.96591,-5.58583 -0.44999,-11.45364 -2.7043,-16.75046 -0.96356,-3.02661 -0.89556,-2.2216 7.62815,-3.30191 0.0645,-0.008 1.09658,9.97654 1.16869,10.50262 1.77766,7.98203 1.75343,15.99072 1.21227,24.09151 -0.55481,6.43534 -2.96188,12.37933 -5.11058,18.39069 0.67814,3.68436 -9.85416,11.3608 -8.59994,3.55694 0,0 7.63712,-3.72467 7.63712,-3.72467 l 0,0 c -1.02451,5.30137 -11.4152,11.91872 -6.72097,3.754 2.16118,-5.96012 4.64218,-11.8271 5.27351,-18.20981 0.57094,-8.04625 0.67243,-15.99593 -1.15116,-23.92286 -0.43522,-2.90653 -0.5883,-5.78518 -0.94577,-8.69537 -0.0704,-0.57329 -0.67592,-1.30178 -0.26907,-1.71177 2.10764,-2.12394 4.75127,-3.64524 7.23734,-5.31039 0.11702,-0.0784 0.0458,0.27793 0.0687,0.4169 2.23306,5.40519 1.82209,11.30063 2.70051,16.99748 1.36762,9.68732 3.2949,19.28178 4.41646,29.00424 1.0627,7.14821 1.31263,14.58251 4.29731,21.27961 1.69761,4.02002 4.45699,5.23497 8.52735,3.21779 -1.61414,1.00761 -3.21971,2.02908 -4.84241,3.02284 -0.81961,0.50195 1.65464,-0.98345 2.43298,-1.54728 4.05784,-2.93943 7.45814,-6.64998 10.84854,-10.3038 3.9258,-4.38287 8.5472,-8.96801 9.8664,-14.88852 -1.078,-6.97407 -12.0902,2.55443 -0.7243,-4.91292 -5.1847,3.63262 -8.6516,8.71862 -10.0833,14.93227 0,0 -7.62589,3.72829 -7.62589,3.72829 z" />
    <path
       style="fill:#000000;fill-opacity:1;stroke:#000000;stroke-width:4;stroke-linecap:round;stroke-linejoin:round;stroke-miterlimit:4;stroke-opacity:1;stroke-dasharray:none;stroke-dashoffset:0"
       id="path2728"
       d="m 998.68553,283.79461 c 2.34967,6.35417 3.31837,12.73409 3.15207,19.46968 0.096,3.95579 -0.7568,7.63894 -2.40191,11.20492 -10.4035,10.78944 -8.87179,2.1614 -7.0226,-2.35391 1.51386,-3.89218 3.96279,-7.17805 6.64954,-10.33311 3.78327,-3.62519 10.79347,-10.99733 14.83047,-5.15545 1.4509,3.96041 1.3032,8.3168 1.3678,12.48269 0.029,3.8367 -0.01,7.6734 -0.018,11.51008 0.02,3.7414 0.4023,2.86935 -7.6071,4.11697 -0.2161,0.0336 0.2714,-4.50775 0.3042,-4.69205 1.5882,-4.29565 3.9135,-8.2867 7.3084,-11.379 4.071,-3.73428 8.7388,-6.37458 13.9396,-8.4488 0.4127,-0.16459 2.9503,0.87197 3.2404,0.98098 4.6879,3.05861 4.2449,8.93735 3.9896,13.86144 -0.8075,3.91029 -1.1778,8.72107 -4.4845,11.44427 0,0 -7.9636,3.06324 -7.9636,3.06324 l 0,0 c 3.8428,-1.48282 3.9752,-7.38646 4.8934,-10.71069 0.2636,-4.47247 1.009,-10.2294 -3.4773,-12.89033 -4.1327,-1.2869 -5.2889,0.97937 2.7217,-4.24066 0.5327,-0.34719 -1.079,0.67406 -1.605,1.03132 -2.0045,1.36119 -1.5838,1.09481 -3.3924,2.72559 -3.5465,2.82472 -5.7254,6.74163 -7.5143,10.85849 -0.111,0.45664 -0.2054,4.38264 -0.3672,4.5223 -8.4362,7.28157 -7.6244,7.69657 -7.5696,3.61558 0.031,-3.83555 0.067,-7.67131 0.049,-11.50698 -0.05,-4.00339 0.1017,-8.17357 -1.1572,-12.01604 -0.5103,-0.70358 -0.5563,-1.03818 -1.4582,-1.25579 -0.3453,-0.0833 -1.3461,0.17764 -1.065,-0.0396 10.9953,-8.49852 5.177,-3.03339 2.8489,-1.17233 -2.755,3.02373 -5.1817,6.28203 -6.7404,10.08241 -3.23586,7.06699 1.0497,3.36483 -8.93542,9.69314 -0.15307,0.097 0.31465,-0.17989 0.47198,-0.26984 1.75296,-3.44732 2.71521,-7.00554 2.61627,-10.91203 0.24859,-6.65028 -0.61848,-12.93886 -3.03598,-19.19302 0,0 7.43258,-4.09345 7.43258,-4.09345 z" />
    <path
       style="fill:#000000;fill-opacity:1;stroke:#000000;stroke-width:4;stroke-linecap:round;stroke-linejoin:round;stroke-miterlimit:4;stroke-opacity:1;stroke-dasharray:none;stroke-dashoffset:0"
       id="path2730"
       d="m 891.61786,325.88667 c -7.33492,-0.25477 -14.67616,0.0561 -22.01128,0.18797 -6.97763,0.72724 -13.89153,1.75864 -20.70311,3.42375 -5.33015,1.3345 -10.78758,2.0215 -16.26356,2.34952 -3.89386,0.20759 -7.79515,0.18668 -11.69317,0.18556 -3.40771,-0.0975 -6.63825,-1.51472 -9.99322,-2.16544 -3.41454,-0.54265 -6.87186,-0.66042 -10.32218,-0.72136 -2.93536,-0.0297 -5.87099,-0.0177 -8.80643,-0.007 -2.69648,10e-4 -5.39296,0.0132 -8.08945,0.0122 -1.34801,7.5e-4 -2.69602,0.005 -4.04402,0.0122 -0.11784,0.001 -0.23576,0.001 -0.3536,0.002 0,0 6.9354,-5.03638 6.9354,-5.03638 l 0,0 c 0.11471,7.6e-4 0.2295,0.001 0.34423,0.002 1.3374,0.007 2.67481,0.0108 4.01223,0.0102 2.6947,-0.004 5.38942,0.002 8.08412,-0.0103 2.93797,-0.004 5.87617,-0.0218 8.8139,0.027 3.47975,0.0897 6.96724,0.24007 10.40188,0.85108 3.2951,0.69847 6.5041,2.07245 9.89826,2.02525 3.8798,0.008 7.76263,0.009 11.63746,-0.21377 5.44091,-0.37526 10.85706,-1.09518 16.14994,-2.44687 6.83553,-1.63053 13.79388,-2.61811 20.79195,-3.26054 7.38295,-0.14455 14.78045,-0.47744 22.15949,-0.10284 0,0 -6.94884,4.87536 -6.94884,4.87536 z" />
    <path
       style="fill:#000000;fill-opacity:1;stroke:#000000;stroke-width:4;stroke-linecap:round;stroke-linejoin:round;stroke-miterlimit:4;stroke-opacity:1;stroke-dasharray:none;stroke-dashoffset:0"
       id="path2732"
       d="m 796.5138,300.72075 c -8.17729,5.79332 -17.20101,10.2416 -25.95983,15.06685 -0.91698,0.45272 -3.6146,1.90578 -2.75094,1.35816 3.49622,-2.21686 7.48033,-4.0933 2.67071,-1.38722 -3.15383,1.77447 -6.29969,3.56475 -9.49486,5.26366 -0.63596,0.33815 -2.59766,1.22899 -1.98967,0.8428 1.83449,-1.16525 3.79056,-2.12705 5.68585,-3.19057 -3.20121,1.83793 -2.72263,4.0008 -1.28602,6.92496 2.50465,2.86312 5.63085,5.12757 8.48675,7.63444 3.80919,3.00633 7.43759,6.1974 11.28133,9.17642 2.22265,2.08503 4.20175,4.42741 5.87292,6.97539 0.22872,0.3224 0.39251,0.6774 0.55412,1.03468 0,0 -7.5814,3.99571 -7.5814,3.99571 l 0,0 c -0.0979,-0.249 -0.19564,-0.50421 -0.35196,-0.72134 -1.57932,-2.4915 -3.48637,-4.77298 -5.66442,-6.76398 -3.86058,-2.98097 -7.47543,-6.21668 -11.31088,-9.2173 -2.95024,-2.56237 -6.20546,-4.86699 -8.67834,-7.91018 -1.48426,-2.99321 -2.59062,-5.91524 0.75209,-8.06709 2.96515,-1.7118 5.89947,-3.47814 8.89544,-5.13541 0.62338,-0.34484 2.5329,-1.28107 1.95386,-0.86607 -1.59564,1.14361 -3.36329,2.02619 -5.02686,3.06851 -0.73139,0.45825 1.48531,-0.87956 2.22989,-1.31607 10.35965,-6.07321 6.32312,-3.96337 12.32593,-6.99634 3.6287,-1.95999 6.11376,-3.31523 5.91281,-3.0997 -0.99461,1.06668 -2.5698,1.40229 -3.73328,2.28171 -2.05358,1.55222 4.46826,-2.56096 6.64272,-3.93878 0.91985,-0.58285 1.79349,-1.23561 2.69023,-1.85341 0,0 7.87381,-3.15983 7.87381,-3.15983 z" />
    <path
       style="fill:#000000;fill-opacity:1;stroke:#000000;stroke-width:4;stroke-linecap:round;stroke-linejoin:round;stroke-miterlimit:4;stroke-opacity:1;stroke-dasharray:none;stroke-dashoffset:0"
       id="path2734"
       d="m 778.37682,215.28086 c 1.04178,6.98863 1.46076,14.01351 2.97906,20.92087 0.62798,4.14519 2.65072,7.84738 4.26536,11.664 1.38538,3.34252 2.14528,2.26715 -6.63327,4.43074 -0.0734,0.0181 0.24709,-0.99321 0.88985,-3.08025 2.01231,-3.65491 3.31719,-7.59918 4.9713,-11.41598 1.12576,-4.07515 3.01944,-7.73728 5.08854,-11.38867 1.47757,-2.89706 3.29606,-5.60241 5.17031,-8.25411 0.3397,-0.50004 0.70442,-0.98863 1.10027,-1.43602 0.0302,-0.61268 0.0213,-0.30484 0.0263,-0.92355 0,0 7.62003,-3.88338 7.62003,-3.88338 l 0,0 c 0.006,0.6486 0.004,0.32174 0.007,0.98058 0.12957,0.87408 -0.37553,1.14803 -0.92243,1.86946 -1.9166,2.61404 -3.7837,5.29029 -5.25485,8.18451 -2.01048,3.65629 -4.15451,7.18497 -5.12531,11.31063 -1.63341,3.79986 -2.85593,7.76064 -4.99414,11.32274 -1.2736,4.20027 -7.28768,13.25874 -9.37685,6.4478 -1.59057,-3.88376 -3.64229,-7.63484 -4.27408,-11.83197 -1.51479,-6.91922 -1.92243,-13.95009 -3.03586,-20.9393 0,0 7.49868,-3.9781 7.49868,-3.9781 z" />
    <path
       style="fill:#000000;fill-opacity:1;stroke:#000000;stroke-width:4;stroke-linecap:round;stroke-linejoin:round;stroke-miterlimit:4;stroke-opacity:1;stroke-dasharray:none;stroke-dashoffset:0"
       id="path2736"
       d="m 820.18928,274.4581 c -5.38138,-0.87411 -10.83368,-2.4693 -15.01074,-6.09168 -2.41382,-3.00487 -3.39878,-6.57554 -3.00916,-10.3675 2.39103,-7.09251 7.84803,-9.08939 14.21436,-12.7572 3.0021,-1.00414 6.1659,-1.43911 9.2637,-0.75688 3.40411,1.5862 5.93099,4.24787 7.8442,7.41523 1.49994,3.00621 0.60517,5.95929 -1.0227,8.66446 -3.85383,4.3212 -9.45902,7.30248 -15.15541,8.36052 -1.48184,-0.38316 -0.80291,-0.11635 -2.05174,-0.76132 0,0 7.11072,-4.72085 7.11072,-4.72085 l 0,0 c 1.06716,0.39569 0.49349,0.26925 1.7302,0.33498 1.06935,-0.24404 1.54873,-0.31457 2.59504,-0.72121 0.42849,-0.16653 1.64267,-0.81964 1.25384,-0.57439 -11.29989,7.12719 -5.35603,3.49644 -3.26785,1.52579 1.51293,-2.44433 2.86545,-4.97078 1.44769,-7.84124 -1.77459,-2.9673 -4.16713,-5.51925 -7.44983,-6.80853 -3.03231,-0.41886 -6.10586,-0.017 -8.92298,1.22237 11.85086,-6.99474 1.65157,-1.59077 0.0322,3.66031 -0.57426,3.48171 0.37189,6.86401 2.58879,9.63333 4.14376,3.4646 9.49742,4.90922 14.7585,5.70845 0,0 -6.94885,4.87536 -6.94885,4.87536 z" />
    <path
       style="fill:#000000;fill-opacity:1;stroke:#000000;stroke-width:4;stroke-linecap:round;stroke-linejoin:round;stroke-miterlimit:4;stroke-opacity:1;stroke-dasharray:none;stroke-dashoffset:0"
       id="path2738"
       d="m 754.09643,181.69484 c 7.2879,1.21484 14.65539,1.80984 22.02839,2.17515 7.37496,0.42639 14.68011,0.44399 22.00065,-0.53703 5.4718,-0.79257 10.95626,-1.51278 16.47535,-1.86943 1.90799,-0.0955 3.81756,-0.20968 5.72873,-0.20994 3.06793,0.14446 -0.98605,0.66551 -6.9143,3.44283 0,0 7.60039,-3.87407 7.60039,-3.87407 l 0,0 c -4.8963,3.66555 -4.35871,5.42483 -7.60779,5.46528 -1.88189,0.0183 -3.76272,0.10057 -5.64121,0.21243 -5.48959,0.3916 -10.94788,1.09155 -16.39455,1.87366 -7.34746,0.91858 -14.69213,0.8215 -22.08213,0.40919 -7.41162,-0.38693 -14.80884,-1.04439 -22.14237,-2.21271 0,0 6.94884,-4.87536 6.94884,-4.87536 z" />
    <path
       style="fill:#000000;fill-opacity:1;stroke:#000000;stroke-width:4;stroke-linecap:round;stroke-linejoin:round;stroke-miterlimit:4;stroke-opacity:1;stroke-dasharray:none;stroke-dashoffset:0"
       id="path2740"
       d="m 811.27567,167.80652 c 5.77924,2.38965 11.2649,5.3733 16.89303,8.07207 2.96401,1.10547 5.68088,2.63947 8.2714,4.43789 1.1971,2.87952 -1.60994,5.56363 -3.40646,7.53579 -4.57865,5.3086 -10.23399,8.19043 -16.29388,11.69037 -0.95687,0.45469 -1.90768,1.0185 -2.96406,1.19093 -0.5128,-1.07395 -0.40147,-0.57826 -0.49155,-1.44267 0,0 7.59551,-3.93096 7.59551,-3.93096 l 0,0 c 0.007,0.55218 0.11401,0.51169 -0.29574,0.17475 0.93967,-0.41835 1.88762,-0.82281 2.77768,-1.34423 -13.25017,7.72079 -0.39737,0.37561 1.84255,-3.06554 1.52803,-1.58248 4.09873,-3.86096 4.0407,-6.22124 -2.54686,-1.77375 -5.26383,-3.20073 -8.14437,-4.363 -5.57542,-2.74526 -11.04489,-5.69796 -16.84642,-7.97007 0,0 7.02161,-4.76409 7.02161,-4.76409 z" />
    <path
       style="fill:#000000;fill-opacity:1;stroke:#000000;stroke-width:4;stroke-linecap:round;stroke-linejoin:round;stroke-miterlimit:4;stroke-opacity:1;stroke-dasharray:none;stroke-dashoffset:0"
       id="path2742"
       d="m 440.61408,512.54862 c -0.69028,5.50627 -1.71237,10.84439 -3.45882,16.1096 -1.94499,5.87826 -9.63236,10.27968 -11.96764,2.59663 -0.64769,-4.53493 0.87102,-9.19331 2.34354,-13.44669 1.29937,-4.54771 3.56379,-8.64211 6.36375,-12.41755 2.56203,-3.29238 6.11553,-5.70548 9.56898,-7.98762 5.84033,-3.42703 11.30698,-7.61708 17.86641,-9.55658 3.68132,-0.86821 7.3014,-1.12845 10.5921,0.94012 3.02806,3.0925 2.36255,6.66998 0.80933,10.27639 -1.74573,3.1151 -4.68002,5.13883 -7.65331,6.97592 -4.82531,3.20087 -9.73987,6.36074 -15.17327,8.41276 8.1598,-5.28756 7.75909,-5.23034 15.12351,-3.00059 3.77469,0.87497 7.06067,3.52322 9.49439,6.45665 2.05549,3.09768 2.92639,6.65757 3.46791,10.28039 0.10445,0.68359 0.14688,1.37267 0.18128,2.06215 0,0 -7.63213,3.88019 -7.63213,3.88019 l 0,0 c 0.0116,-0.65711 3.9e-4,-1.31343 -0.0922,-1.96698 -0.44549,-3.48302 -1.2275,-6.91249 -3.19778,-9.88598 -2.40454,-2.83412 -5.57089,-5.20104 -9.24971,-6.02791 -7.39379,-2.21691 -10.43495,0.67955 -1.38349,-7.06646 0.79933,-0.32196 1.22462,-0.4827 2.03926,-0.86247 0.45988,-0.21439 1.79812,-0.93698 1.36732,-0.66891 -11.26074,7.00731 -5.27682,3.07874 -2.88267,1.4488 2.96471,-1.7211 5.89933,-3.63555 7.86666,-6.49996 1.44532,-3.16114 2.66513,-6.3836 -0.22473,-9.18535 -3.21867,-1.7463 -6.73906,-1.28049 -10.17515,-0.36807 -1.19527,0.38957 -4.57486,2.0207 -3.53518,1.31395 10.83794,-7.36742 4.57659,-2.54867 2.08175,-1.04652 -0.58646,0.35311 -1.19088,0.67549 -1.78631,1.01324 -3.4781,2.1504 -7.00239,4.61354 -9.68099,7.71035 -2.85287,3.671 -5.20933,7.67311 -6.48059,12.18305 -1.47985,4.08235 -2.99031,8.57765 -2.5425,12.95486 0.25756,0.94186 0.2755,1.40697 0.87308,2.17745 0.21196,0.27329 1.00372,0.47977 0.75101,0.71588 -11.28856,10.54752 -5.77027,4.77676 -4.81654,2.1932 1.80184,-5.21898 2.94678,-10.48095 3.51677,-15.98565 0,0 7.62597,-3.72829 7.62597,-3.72829 z" />
    <path
       style="fill:#000000;fill-opacity:1;stroke:#000000;stroke-width:4;stroke-linecap:round;stroke-linejoin:round;stroke-miterlimit:4;stroke-opacity:1;stroke-dasharray:none;stroke-dashoffset:0"
       id="path2752"
       d="m 294.59906,369.9343 c -5.59969,1.87131 -11.32377,3.15366 -16.85632,5.2075 -3.60737,0.95062 -6.70895,3.04602 -10.20451,4.27391 -3.80686,0.75709 -7.0389,3.04452 -10.50437,4.66743 -4.34675,2.39872 -9.09211,3.82836 -13.43075,6.25966 -2.13791,1.07294 -20.7445,11.16824 -7.52044,3.8262 -4.58907,3.4591 -9.54218,6.38205 -13.98729,10.02566 -4.52588,3.29223 -8.63831,7.08734 -12.89758,10.71006 -4.73512,3.69154 -8.59668,8.2118 -12.4111,12.80317 -4.86133,5.42379 -9.47457,11.03085 -14.01758,16.72118 -4.78475,5.85909 -10.02945,11.29617 -14.77829,17.18442 -4.36699,5.13593 -9.05862,10.05379 -13.87021,14.78436 -3.41378,3.62054 -6.38473,7.64717 -9.44916,11.56757 -2.37112,2.97309 -4.39424,6.15692 -6.39051,9.38528 -1.32175,2.86749 -3.34967,5.31945 -4.89003,8.05706 -0.94218,3.45037 -8.38326,7.77164 -8.65616,2.2296 0,0 7.56433,-3.89638 7.56433,-3.89638 l 0,0 c 0.20005,5.12734 -10.08868,10.51384 -6.69025,5.15665 1.46878,-2.81075 3.62946,-5.19251 4.90039,-8.11609 2.01653,-3.24138 3.95949,-6.49009 6.36672,-9.46686 3.01044,-3.99687 6.14519,-7.93395 9.4349,-11.698 4.8869,-4.63237 9.46887,-9.66768 13.93163,-14.69497 4.73175,-5.90499 9.94129,-11.36487 14.77866,-17.18218 4.55085,-5.68267 9.09625,-11.34242 13.99955,-16.72999 3.81339,-4.60408 7.57723,-9.22715 12.32598,-12.92763 4.27275,-3.61853 8.3531,-7.45601 12.90613,-10.72089 4.39626,-3.73815 9.39058,-6.59228 13.94068,-10.13779 7.24532,-4.2409 14.54164,-8.3528 22.00618,-12.19417 4.39297,-2.31524 9.12703,-3.8303 13.47151,-6.24095 3.44011,-1.71846 6.77101,-3.74584 10.56401,-4.61687 3.41442,-1.37687 6.61378,-3.24487 10.18147,-4.2474 5.54511,-2.0217 11.31881,-3.2174 16.88313,-5.1953 0,0 -6.70072,5.20576 -6.70072,5.20576 z" />
    <path
       style="fill:#000000;fill-opacity:1;stroke:#000000;stroke-width:4;stroke-linecap:round;stroke-linejoin:round;stroke-miterlimit:4;stroke-opacity:1;stroke-dasharray:none;stroke-dashoffset:0"
       id="path2754"
       d="m 129.80539,480.99514 c 0.93613,5.60676 1.71519,11.23935 2.20514,16.90302 0.52596,3.65603 -0.0659,7.42268 0.66892,11.03652 0.71683,2.79711 3.52883,3.35914 6.05265,3.69559 -1.66323,1.76146 7.71195,-3.50375 5.14769,-2.06313 -1.98798,1.11687 -7.93393,4.49936 -5.94991,3.37546 2.91663,-1.65219 5.83183,-3.3069 8.74775,-4.96035 -1.97195,1.0826 -3.91091,2.2276 -5.91586,3.2478 -0.52756,0.26844 0.96266,-0.69246 1.47536,-0.98831 2.97543,-1.71689 5.96021,-3.4192 8.98498,-5.04759 1.52499,-0.82098 3.29873,-1.1392 4.96654,-1.52155 0.13762,0.59382 4.31666,-1.25692 3.89047,-1.01853 -6.11627,3.42122 -8.64822,5.10411 -5.7837,3.22466 0.91107,-0.50696 1.26929,-1.32264 1.59317,-2.25801 0,0 7.72383,-3.65156 7.72383,-3.65156 l 0,0 c -0.26911,1.00331 -0.45578,2.17379 -1.37383,2.78073 -4.06188,3.02649 -7.93303,5.46026 -12.81132,6.08565 -1.2994,0.33367 -1.96235,0.46631 -3.24117,0.95819 -0.54381,0.20916 -2.08419,1.02855 -1.59919,0.70567 1.80312,-1.2004 3.70127,-2.25187 5.56921,-3.34867 0.50709,-0.29774 -0.99053,0.63401 -1.48579,0.95102 -2.87549,1.73465 -5.75098,3.4693 -8.62647,5.20395 15.07883,-8.90919 -2.99127,3.37288 -8.28268,3.2205 -2.83701,-0.53522 -5.75543,-1.46839 -6.5763,-4.56922 -0.83203,-3.63889 -0.20938,-7.44632 -0.69544,-11.14731 -0.45492,-5.64356 -1.17297,-11.26421 -2.18273,-16.83643 0,0 7.49868,-3.9781 7.49868,-3.9781 z" />
    <path
       style="fill:#000000;fill-opacity:1;stroke:#000000;stroke-width:4;stroke-linecap:round;stroke-linejoin:round;stroke-miterlimit:4;stroke-opacity:1;stroke-dasharray:none;stroke-dashoffset:0"
       id="path2756"
       d="m 125.0633,381.02079 c -4.65953,4.53119 -8.7818,9.60918 -12.30481,15.0658 -1.6973,3.17365 -3.38754,6.71866 -2.93929,10.40093 0.52442,2.51629 2.38882,5.34133 5.22448,5.27622 -0.52356,0.12021 3.33606,-1.90649 2.48688,-1.45708 -1.94881,1.03134 -3.82615,2.2079 -5.83858,3.10882 -1.15325,0.51627 1.9492,-1.62363 3.03143,-2.27577 2.91447,-1.75622 5.88643,-3.41523 8.82965,-5.12284 2.71915,-0.61785 5.46557,0.11998 8.16064,0.54041 0.42908,0.0458 0.85656,0.16424 1.28723,0.13733 1.0176,-0.0636 3.82807,-1.2836 2.96941,-0.73382 -11.20339,7.17333 -5.94928,3.48116 -3.84661,1.45086 1.98421,-1.94005 3.16494,-4.40447 3.76661,-7.07806 0.77891,-2.12423 1.66691,-4.19576 2.37027,-6.35025 0,0 7.71365,-3.6307 7.71365,-3.6307 l 0,0 c -0.68702,2.13878 -1.43594,4.24145 -2.41006,6.268 -0.53906,2.78285 -1.57889,5.45243 -3.58363,7.52826 -3.87851,4.16162 -9.37934,8.06544 -15.24131,7.31072 -2.58706,-0.41278 -5.26168,-1.10965 -7.79728,-0.10103 1.89415,-1.11695 3.74897,-2.30345 5.68244,-3.35085 1.10844,-0.60046 -1.98215,1.56494 -3.04454,2.24357 -3.23751,2.06804 -7.32748,5.40253 -11.494,6.44638 -3.065,-0.71115 -5.12596,-3.20706 -5.7939,-6.23485 -0.65451,-3.85171 0.99645,-7.58891 2.71913,-10.96946 3.49547,-5.50361 7.5779,-10.64519 12.22224,-15.22931 0,0 7.82995,-3.24328 7.82995,-3.24328 z" />
    <path
       style="fill:#000000;fill-opacity:1;stroke:#000000;stroke-width:4;stroke-linecap:round;stroke-linejoin:round;stroke-miterlimit:4;stroke-opacity:1;stroke-dasharray:none;stroke-dashoffset:0"
       id="path2758"
       d="m 291.40918,712.665 c -2.05582,5.11988 -4.85756,10.12574 -6.25999,15.48843 -4.12297,-1.46992 -8.72496,5.61075 -6.1564,1.38485 0.94036,-1.54713 1.76624,-3.17629 2.67124,-4.74543 1.81176,-3.06087 2.50049,-6.44638 2.9197,-9.9264 0.0386,-0.48856 0.0818,-0.97679 0.11583,-1.46569 7.5e-4,-0.0107 0.0435,-2.23458 0.10103,-2.25785 8.11509,-3.28093 7.61164,-4.90372 7.58513,-0.77619 -0.009,3.18208 -0.0247,6.36415 -0.0236,9.54624 -0.18264,2.60706 0.36314,5.30671 -0.271,7.85813 -0.92013,2.93536 -2.75109,5.34843 -4.67667,7.69101 -0.54246,2.58559 -12.28907,8.79305 -8.70997,4.24199 2.60082,-2.69391 5.03191,-5.4568 7.27917,-8.45653 2.18199,-3.37882 5.04245,-5.97445 8.21972,-8.37161 2.97918,-1.73744 6.03672,-3.34699 8.93755,-5.2123 1.82476,-1.17337 -3.75063,2.19045 -5.70447,3.13334 -0.97699,0.47148 1.67771,-1.39719 2.62979,-1.91714 8.54568,-4.66692 5.37433,-4.58959 9.62888,-4.45751 2.5141,1.51463 2.46031,4.5475 2.63032,7.17393 0.1259,4.13345 -1.06706,8.21367 -1.95619,12.22896 -0.48229,2.70261 -0.26677,0.48049 -0.71226,0.6079 -2.31349,0.66163 -4.27575,2.32859 -6.61632,2.88688 -1.15587,0.27571 1.15794,-2.07545 1.72928,-3.11738 2.32865,-3.58388 5.04077,-6.89274 7.48577,-10.39049 2.71263,-3.15807 4.71415,-6.85946 7.61234,-9.85356 4.72063,-4.13978 10.11304,-8.73064 14.86023,-3.77698 2.1029,3.04554 2.78109,6.60902 3.18947,10.21005 0.24618,3.00675 0.21234,6.02569 0.204,9.03957 0.11698,7.07153 -0.34785,5.494 -9.02278,8.51127 0,0 7.30457,-4.3987 7.30457,-4.3987 l 0,0 c -2.30096,1.53701 -4.65307,3.00007 -6.90288,4.61103 -0.45319,0.32451 0.74072,0.32025 1.00333,-0.8451 0.28768,-1.27664 -0.20569,-2.72958 0.0279,-4.01598 0.0212,-2.98641 0.0524,-5.97739 -0.15367,-8.95874 -0.34272,-3.41281 -0.90458,-6.82475 -2.90524,-9.70911 -0.96668,-0.92658 -1.76298,-1.69607 -3.20524,-1.56232 -0.40604,0.0376 -1.52838,0.5008 -1.19366,0.26789 1.88058,-1.30856 3.92853,-2.35845 5.89279,-3.53768 -0.41335,0.30901 -0.82669,0.61801 -1.24003,0.92702 -3.10555,2.78105 -4.88861,6.64439 -7.70091,9.70126 -2.35007,3.53335 -5.09351,6.80577 -7.50327,10.30028 -0.15643,0.29734 -1.40557,2.77106 -1.74844,3.05389 -2.38882,1.97052 -9.98439,9.49192 -8.07214,3.73746 0.95604,-3.9224 2.07622,-7.96887 2.06778,-12.00963 -0.11031,-1.93963 0.21097,-5.17681 -1.9549,-6.03736 -3.32909,0.42536 -1.17274,0.28238 5.17826,-3.67521 0.92125,-0.57407 -1.7368,1.30648 -2.65406,1.88691 -2.89786,1.83374 -5.90583,3.48979 -8.79997,5.3294 -1.81363,1.1528 3.70481,-2.1788 5.55722,-3.2682 -3.18591,2.34725 -6.16947,4.74741 -8.3163,8.1481 -2.24448,2.9902 -4.46869,5.91706 -7.26527,8.4271 -2.67014,4.14794 -14.21437,8.67603 -6.92689,2.47172 1.91491,-2.25781 3.82786,-4.54272 4.77979,-7.39607 1.05746,-2.2796 0.0776,-5.17485 0.41566,-7.61669 0.006,-3.18285 -0.002,-6.36574 0.0209,-9.54854 0.0204,-6.88257 9.7251,-11.171 7.40985,-3.13393 -0.41574,3.56685 -0.99671,7.06977 -2.78817,10.24795 -1.47861,2.53072 -8.23029,15.81199 -11.96287,10.50952 1.15516,-5.45129 4.41827,-10.44461 6.22008,-15.68824 0,0 7.72608,-3.49552 7.72608,-3.49552 z" />
  </g>
</svg>
