<?xml version="1.0" encoding="UTF-8" standalone="no"?>
<!-- Created with Inkscape (http://www.inkscape.org/) -->
<svg
   xmlns:dc="http://purl.org/dc/elements/1.1/"
   xmlns:cc="http://creativecommons.org/ns#"
   xmlns:rdf="http://www.w3.org/1999/02/22-rdf-syntax-ns#"
   xmlns:svg="http://www.w3.org/2000/svg"
   xmlns="http://www.w3.org/2000/svg"
   xmlns:sodipodi="http://sodipodi.sourceforge.net/DTD/sodipodi-0.dtd"
   xmlns:inkscape="http://www.inkscape.org/namespaces/inkscape"
   width="1562.8798"
   height="465.76004"
   id="svg2755"
   sodipodi:version="0.32"
   inkscape:version="0.46+devel"
   version="1.0"
   sodipodi:docname="c22d2.svg"
   inkscape:output_extension="org.inkscape.output.svg.inkscape">
  <defs
     id="defs2757">
    <inkscape:perspective
       sodipodi:type="inkscape:persp3d"
       inkscape:vp_x="0 : 526.18109 : 1"
       inkscape:vp_y="0 : 1000 : 0"
       inkscape:vp_z="744.09448 : 526.18109 : 1"
       inkscape:persp3d-origin="372.04724 : 350.78739 : 1"
       id="perspective2763" />
  </defs>
  <sodipodi:namedview
     id="base"
     pagecolor="#ffffff"
     bordercolor="#666666"
     borderopacity="1.0"
     inkscape:pageopacity="0.0"
     inkscape:pageshadow="2"
     inkscape:zoom="0.35"
     inkscape:cx="861.50692"
     inkscape:cy="116.2035"
     inkscape:document-units="px"
     inkscape:current-layer="layer1"
     showgrid="false"
     inkscape:window-width="1280"
     inkscape:window-height="712"
     inkscape:window-x="-5"
     inkscape:window-y="-3" />
  <metadata
     id="metadata2760">
    <rdf:RDF>
      <cc:Work
         rdf:about="">
        <dc:format>image/svg+xml</dc:format>
        <dc:type
           rdf:resource="http://purl.org/dc/dcmitype/StillImage" />
        <dc:title></dc:title>
      </cc:Work>
    </rdf:RDF>
  </metadata>
  <g
     inkscape:label="Layer 1"
     inkscape:groupmode="layer"
     id="layer1"
     transform="translate(486.50692,-182.80563)">
    <path
       style="fill:#000000;fill-opacity:1;stroke:#000000;stroke-width:4.69999981;stroke-linecap:round;stroke-linejoin:round;stroke-miterlimit:4;stroke-opacity:1;stroke-dasharray:none;stroke-dashoffset:0"
       id="path2765"
       d="m -477.4562,623.36149 c 6.92136,-3.32387 14.41488,-4.91178 21.73137,-7.03604 6.44938,-2.15946 13.15892,-2.9048 19.90506,-3.33656 7.23006,0.1052 14.33678,-0.71041 21.49184,-1.62127 8.33177,-1.00224 16.72373,-1.24253 25.10568,-1.39028 9.32431,-0.12234 18.64986,-0.10321 27.97478,-0.0955 9.53347,0.84043 19.04205,1.85216 28.60117,2.37408 10.69964,1.37557 21.42909,2.34006 32.20182,2.87879 12.16934,1.37412 24.36771,2.33835 36.60132,2.87288 13.35897,1.34746 26.73494,2.34029 40.15098,2.86486 14.52038,0.32126 29.01422,0.36329 43.50822,1.3416 15.14681,1.07808 30.32515,1.90253 45.50986,1.48373 16.10551,-0.93093 32.21796,-1.62235 48.34586,-1.99479 16.313177,-0.33026 32.63055,-0.3387 48.94637,-0.3454 17.814972,0.001 35.6299474,0.003 53.444916,0.0145 18.452297,-0.42416 36.858447,0.36399 55.278083,1.31918 18.221632,0.83474 36.393011,2.55993 54.540331,4.36809 17.6744,1.51146 35.36557,2.89114 53.00169,4.81311 17.91949,2.05187 35.93914,2.90254 53.91488,4.30865 18.82143,1.07133 37.62686,2.30032 56.4401,3.51545 19.9743,1.23201 39.98998,1.46283 59.99562,1.63338 21.31947,0.11878 42.63941,0.0984 63.95912,0.0938 23.51828,-0.23952 46.91867,-2.57836 70.29667,-4.91834 23.14381,-2.84315 46.30838,-5.78663 69.10962,-10.72694 23.73434,-5.19162 46.86864,-12.50334 69.80301,-20.43216 21.54334,-7.7876 42.59157,-16.86054 62.94713,-27.36012 15.24241,-8.25339 29.48245,-18.30582 43.29154,-28.76247 14.47104,-11.32533 27.70347,-24.06464 40.33165,-37.37902 11.59125,-12.85908 20.86407,-27.37879 28.03986,-43.08375 6.57043,-15.07314 9.28395,-31.40336 11.41347,-47.59943 2.41677,-16.20711 1.30525,-32.47489 -0.29227,-48.68023 -1.62523,-17.61707 -6.66955,-34.45818 -13.10195,-50.84469 -7.33626,-17.65052 -17.80453,-33.6549 -29.32424,-48.81118 -11.777,-15.70797 -26.98426,-28.07445 -42.54286,-39.80827 -16.20293,-12.16512 -34.38773,-20.72299 -53.15346,-28.05829 -19.31578,-7.49301 -39.61363,-11.46665 -60.11015,-13.88897 -20.65624,-2.35748 -41.36091,-0.8256 -61.80496,2.43908 -20.08649,4.34648 -39.29192,11.96346 -57.02661,22.27312 -0.50327,0.48463 -0.95425,1.03023 -1.50982,1.45391 -9.57041,7.2986 -7.17585,4.69056 -16.33178,12.4003 -7.565,6.3701 -14.45336,13.37695 -21.25265,20.5375 -13.29944,14.18609 -23.84578,30.46624 -32.20831,47.95388 -7.90188,17.75718 -13.07496,36.48755 -17.0734,55.45495 -3.54179,18.71998 -4.76486,37.73479 -3.54104,56.72717 0.90535,17.63052 4.81245,34.67191 10.92826,51.16348 5.32556,15.0955 13.88019,28.64669 23.34899,41.43831 9.32356,12.41546 20.56777,23.08032 31.89578,33.6124 12.00981,10.48881 25.74868,18.58095 39.89408,25.79642 14.75034,6.91401 29.83013,13.17056 45.27627,18.35118 14.85155,4.94516 29.77551,9.64117 45.01028,13.25612 14.63333,3.23661 29.41515,5.39296 44.34854,6.54438 14.3798,1.40263 28.71472,3.28254 43.00692,5.39585 13.72099,1.81262 27.2322,4.85779 40.87385,7.14356 11.49592,1.38399 23.00661,2.58083 34.51502,3.88464 10.24822,0.95963 20.51221,1.28721 30.74846,2.37346 10.38919,1.05271 20.81711,2.00671 31.26153,1.54659 10.37047,-0.957 20.75392,-1.6397 31.16141,-2.00637 11.24929,-0.31951 22.50425,-0.32748 33.75712,-0.34396 11.16911,0.46185 22.25739,-0.92812 33.37437,-1.73566 12.10121,-0.82901 24.23305,-0.959 36.35734,-1.0645 12.66033,-0.0712 25.32099,-0.0546 37.98147,-0.0512 11.72809,0.004 23.45619,0.007 35.18429,0.009 9.3462,-0.3819 18.5786,0.12177 27.8386,1.31609 6.2267,1.27269 12.1341,0.7607 18.108,-1.22699 0,0 -6.6918,5.1848 -6.6918,5.1848 l 0,0 c -6.0501,1.84642 -12.054,2.15184 -18.2927,0.90455 -9.2151,-1.1917 -18.4141,-1.59541 -27.7113,-1.27502 -11.7237,-0.003 -23.44744,-0.008 -35.17114,-0.0187 -12.65769,-0.009 -25.31555,-0.0279 -37.97306,0.0548 -12.11958,0.11163 -24.24652,0.26973 -36.34151,1.11963 -11.12704,0.8317 -22.23129,2.15253 -33.41231,1.68904 -11.25029,0.0197 -22.50291,0.0322 -33.74909,0.37393 -10.40734,0.38878 -20.78619,1.12718 -31.16266,2.01038 -10.47268,0.36165 -20.92005,-0.56084 -31.33324,-1.64316 -10.23747,-1.06339 -20.51076,-1.34957 -30.75199,-2.38025 -11.50335,-1.32336 -23.01784,-2.48398 -34.50095,-3.9495 -13.62307,-2.32533 -27.13044,-5.33041 -40.83956,-7.14542 -14.28459,-2.07743 -28.60109,-3.99251 -42.97313,-5.35137 -14.95283,-1.19009 -29.75639,-3.39129 -44.40461,-6.66264 -15.24236,-3.65603 -30.18608,-8.35253 -45.04828,-13.32121 -15.45947,-5.2421 -30.57674,-11.48859 -45.33972,-18.45499 -14.19501,-7.27427 -27.98955,-15.41849 -40.0319,-25.9792 -11.3633,-10.56684 -22.61731,-21.29325 -31.97362,-33.74385 -9.50643,-12.85958 -18.08292,-26.48911 -23.44384,-41.65215 -6.13594,-16.56827 -10.09503,-33.67923 -11.00722,-51.39134 -1.26115,-19.05805 -0.063,-38.14161 3.45833,-56.93461 3.95727,-19.02406 9.13629,-37.80129 16.98797,-55.62891 8.28285,-17.57778 18.83613,-33.91888 32.10693,-48.19062 15.67765,-16.62229 32.7671,-31.72592 52.99416,-42.6839 17.82689,-10.19541 37.06301,-17.81728 57.20803,-22.03514 20.49565,-3.19834 41.24207,-4.66312 61.93285,-2.25415 20.54294,2.47826 40.88076,6.51747 60.23425,14.05588 18.81267,7.39259 37.04334,16.0148 53.2802,28.24175 15.61223,11.78604 30.86317,24.2151 42.67313,39.9915 11.57264,15.21068 22.05163,31.29638 29.45229,48.99786 6.48206,16.44267 11.57659,33.34378 13.23958,51.02827 1.61997,16.2588 2.80097,32.58326 0.37551,48.84892 -2.09869,16.25889 -4.78073,32.66105 -11.30028,47.81663 -7.13785,15.79034 -16.38107,30.38897 -27.95722,43.34555 -12.62455,13.34899 -25.83957,26.1315 -40.2984,37.5102 -18.09174,13.76511 -37.1316,26.26607 -57.25613,36.88646 -20.37736,10.44516 -41.43409,19.49199 -62.98526,27.24287 -22.95391,7.91518 -46.12209,15.17511 -69.87026,20.36076 -22.82697,4.87852 -46.00117,7.84816 -69.1631,10.65333 -23.40032,2.33935 -46.82675,4.63569 -70.36636,4.86949 -21.32805,0.0111 -42.65641,0.0459 -63.98418,-0.0844 -20.02366,-0.16707 -40.05777,-0.40575 -60.04928,-1.65119 -18.81842,-1.21589 -37.63123,-2.41808 -56.45615,-3.51727 -17.98748,-1.39424 -36.01889,-2.25027 -53.94802,-4.31535 -17.63287,-1.89347 -35.31461,-3.29593 -52.98192,-4.81866 -18.13826,-1.80826 -36.303362,-3.49403 -54.515132,-4.33825 -18.412691,-0.95682 -36.814557,-1.68216 -55.2589422,-1.28078 -17.8197276,0.002 -35.6394558,-0.0176 -53.4591818,-0.003 -16.315858,0.0277 -32.633101,0.0394 -48.946358,0.36833 -16.129336,0.38804 -32.241336,1.11679 -48.350816,2.00063 -15.20932,0.36376 -30.41107,-0.42913 -45.58085,-1.52652 -14.49058,-0.9537 -28.98415,-0.96202 -43.49838,-1.32083 -13.42494,-0.52966 -26.80544,-1.56233 -40.17832,-2.85008 -12.24269,-0.54451 -24.44437,-1.56366 -36.63043,-2.85893 -10.78025,-0.55882 -21.51116,-1.57423 -32.22819,-2.86458 -9.54805,-0.53887 -19.04315,-1.60135 -28.57501,-2.33607 -9.32516,0 -18.65091,-0.0204 -27.97533,0.1162 -8.37328,0.17301 -16.75701,0.43636 -25.07581,1.48055 -7.1663,0.91283 -14.29919,1.60641 -21.53439,1.59019 -6.71485,0.47118 -13.37041,1.33651 -19.78986,3.47238 -7.35625,2.0609 -14.7851,3.8709 -21.75586,7.10189 0,0 6.70072,-5.20576 6.70072,-5.20576 z" />
    <path
       style="fill:#000000;fill-opacity:1;stroke:#000000;stroke-width:4.69999981;stroke-linecap:round;stroke-linejoin:round;stroke-miterlimit:4;stroke-opacity:1;stroke-dasharray:none;stroke-dashoffset:0"
       id="path2767"
       d="m -246.63325,611.89386 c 0.0486,-7.86807 0.0415,-15.73649 0.0174,-23.60465 -0.23581,-4.40445 0.39513,-8.89293 -0.33245,-13.2553 -0.93655,-3.1933 -1.77753,-6.39682 -2.21075,-9.69913 -0.33333,-2.90773 -0.33651,-5.84115 -0.37218,-8.76429 0.0149,-5.50055 7.29347,-8.04316 11.79173,-9.16302 3.20435,-1.73224 6.89589,-1.98032 10.23822,-3.24095 3.67865,-1.51277 7.55979,-2.19082 11.48845,-2.61298 3.94746,0.11465 7.62686,-0.65206 11.40913,-1.66893 3.22339,-0.85304 6.52615,-1.19838 9.84398,-1.38622 2.72547,-0.0965 5.45319,-0.0959 8.17999,-0.0872 3.54031,-0.34194 6.83763,0.53985 10.23379,1.40349 3.44285,0.80128 6.96434,1.19588 10.48809,1.40154 3.58377,0.12714 7.17103,0.0985 10.75647,0.0975 3.83336,-0.005 7.66673,-0.0115 11.50008,-0.021 3.33124,-0.29203 4.01245,2.80665 4.37852,5.46506 0.56585,4.08969 1.67857,8.07018 2.24098,12.17941 0.622,5.41053 0.67646,10.86274 0.75411,16.30174 0.35019,4.32412 -0.0846,8.4013 -1.2185,12.55753 -1.10734,3.43664 -1.34014,7.04091 -1.52221,10.62074 -0.16116,2.25712 -0.19055,4.81586 1.47505,6.5893 0.91441,1.86288 1.09714,3.9165 1.2428,5.95324 0.005,4.71527 -6.62777,6.48406 -10.86488,6.73646 -3.3627,-0.98288 -6.72932,-1.8443 -10.20349,-2.3383 -3.5366,-0.46671 -7.11267,-0.47974 -10.67377,-0.51178 -4.29817,-0.4006 -8.34988,0.37976 -12.50047,1.37333 -3.96485,0.9306 -8.02308,1.23067 -12.07806,1.41895 -4.07756,0.11756 -8.15781,0.10031 -12.23667,0.0934 -3.86987,-0.007 -7.73975,-0.0123 -11.60963,-0.01 -3.36115,-0.007 -6.7223,-10e-4 -10.08345,-0.003 -2.96884,-0.85391 -5.85534,-1.89142 -8.91116,-2.39939 -2.1203,-0.34458 -4.26573,-0.44491 -6.40992,-0.4683 -1.91306,-0.31648 -3.81662,-1.42009 -5.64879,-2.20224 -1.31094,-0.37238 -2.18885,-1.28454 -3.16039,-2.18748 -0.62586,-0.71526 -1.59793,-0.87004 -2.48048,-1.09801 0,0 7.05055,-4.8251 7.05055,-4.8251 l 0,0 c 0.9804,0.31285 1.99105,0.6327 2.69505,1.43176 0.91121,0.83787 1.80058,1.56725 2.99995,1.94636 1.74552,0.75997 3.53263,1.83618 5.4518,1.93266 2.16938,0.0448 4.33654,0.21073 6.47547,0.591 2.99752,0.57791 5.83224,1.68289 8.81934,2.27914 3.36184,-10e-4 6.72368,0.004 10.08552,0.003 3.86417,0.01 7.72836,0.0175 11.59254,0.0221 4.07344,7e-5 8.14884,0.0242 12.22003,-0.13337 4.02653,-0.20531 8.04938,-0.58125 11.97779,-1.53626 4.1865,-0.95852 8.31488,-1.55633 12.62734,-1.21392 3.58698,0.0382 7.19,0.0789 10.74554,0.60585 3.41883,0.54007 6.71463,1.54742 10.10492,2.15555 3.70343,-0.4739 5.07855,-2.30055 -4.48978,3.58144 -0.31925,0.19625 0.81778,-0.2477 0.95236,-0.59745 0.0866,-0.22495 -0.0182,-0.48172 -0.0273,-0.72258 -0.10515,-1.85925 -0.22249,-3.74427 -0.9855,-5.4729 -1.64105,-2.09333 -2.0285,-4.58335 -1.7396,-7.17254 0.16032,-3.62568 0.33203,-7.30202 1.43699,-10.78686 1.12749,-4.10523 1.7792,-8.05843 1.34744,-12.35751 -0.0469,-5.40789 -0.11233,-10.82809 -0.70597,-16.20922 -0.55076,-4.11257 -1.67269,-8.08935 -2.27557,-12.16705 -0.30313,-2.52303 -0.68074,-4.73705 -3.73099,-4.42306 -3.82866,-0.002 -7.65734,0.004 -11.48599,0.0107 -3.60322,0.005 -7.2098,0.0364 -10.81012,-0.12802 -3.55014,-0.25567 -7.09412,-0.7052 -10.55839,-1.54157 -3.35795,-0.84191 -6.65145,-1.51714 -10.13686,-1.21601 -2.71433,-3.1e-4 -5.43044,-0.0152 -8.14212,0.12558 -3.28401,0.21489 -6.54561,0.64169 -9.72872,1.50889 -3.79853,0.98063 -7.55139,1.5416 -11.48487,1.57163 -3.89956,0.46263 -7.71699,1.28925 -11.37498,2.7591 -3.43165,1.06319 -6.99331,1.69909 -10.28559,3.21877 -3.47673,1.10625 -1.58779,0.6117 4.83689,-3.30654 1.15591,-0.70496 -4.25035,2.51797 -2.28078,3.39731 0.002,2.89563 0.01,5.79943 0.30866,8.6825 0.40225,3.29402 1.21553,6.4922 2.17711,9.66631 0.85164,4.4018 0.12684,8.95549 0.35109,13.41613 -0.024,7.86225 -0.0314,15.72477 0.0174,23.58692 0,0 -7.55222,3.84805 -7.55222,3.84805 z" />
    <path
       style="fill:#000000;fill-opacity:1;stroke:#000000;stroke-width:4.69999981;stroke-linecap:round;stroke-linejoin:round;stroke-miterlimit:4;stroke-opacity:1;stroke-dasharray:none;stroke-dashoffset:0"
       id="path2769"
       d="m 30.509605,617.60815 c 1.000262,-9.21344 1.856481,-18.43294 2.373355,-27.68685 0.05301,-9.46116 0.752899,-18.83525 1.80462,-28.22972 0.823971,-6.8797 1.243836,-13.79444 1.450416,-20.71719 0.107403,-4.0767 0.09869,-8.15503 0.09494,-12.23274 -0.01019,-3.07847 -0.02234,-6.15695 -0.02202,-9.23544 -0.09515,-3.34044 0.265618,-6.70822 -0.302073,-10.0099 -0.935743,-3.11027 -1.679186,-6.25713 -2.209996,-9.45992 -0.338789,-2.44649 -0.334431,-4.91853 -0.375312,-7.38238 0.1108,-5.31126 7.117172,-7.5939 11.731829,-8.19668 5.070462,-0.40329 10.165786,-0.33881 15.248407,-0.33247 7.032113,0.0156 14.064208,0.032 21.096339,0.0371 6.987814,0.0122 13.975644,0.007 20.96346,0.004 5.61811,-0.42651 11.00314,0.24866 16.48183,1.35353 5.03213,1.1901 10.258,0.83176 15.30309,1.80321 4.84243,1.32086 9.80386,1.92588 14.79686,2.27334 5.92955,0.10336 11.76822,0.30643 17.63735,1.17009 6.28374,0.84297 12.62364,1.96808 18.97071,1.42482 6.42283,-1.14281 12.98459,-1.22597 19.39613,-2.36645 6.36924,-1.34613 12.81375,-2.08003 19.19113,-3.37286 5.04692,-1.51861 10.40796,-1.32336 15.48595,-2.55243 3.67422,-1.06933 7.38646,-1.89705 11.18408,-2.35843 3.31113,-0.61186 3.7597,2.21452 4.55568,4.69637 1.70494,5.11182 2.09772,10.48667 2.40223,15.82624 0.65449,7.78135 0.005,15.47245 -0.9759,23.1853 -0.88617,6.28997 -1.2858,12.62681 -1.4915,18.97053 -0.13085,5.14579 -0.11645,10.29372 -0.11566,15.44074 0.0774,4.38077 -1.27401,8.63264 -2.01697,12.9256 -0.70688,3.9287 0.5745,7.82861 1.23059,11.68691 0.54942,3.64428 0.72249,7.32545 0.79415,11.00515 0.0593,3.43335 0.0355,6.86732 0.0351,10.30097 -0.004,3.17127 -0.01,6.34257 -0.005,9.51384 -2.1e-4,2.87769 -0.005,5.75539 -1.8e-4,8.63308 0.87448,5.35705 -5.94413,7.66599 -10.55739,8.1788 -3.48255,-0.24908 -6.61936,0.70002 -9.94324,1.52578 -3.53492,0.95693 -7.20579,1.17958 -10.84648,1.36055 -2.66999,0.11787 -5.34381,0.0996 -8.01573,0.0915 -2.94413,-0.005 -5.88824,-0.0172 -8.83238,-0.0179 -3.93458,-0.009 -7.86918,-0.006 -11.80377,-0.008 -5.06165,-0.33666 -9.9896,0.9008 -14.93949,1.77634 -4.92607,0.83455 -9.92962,0.94868 -14.91279,1.04384 -6.38773,0.0587 -12.77586,0.0453 -19.16379,0.0403 -5.89723,-0.006 -11.79446,-0.009 -17.6917,-0.0107 -4.82491,0.0101 -9.64983,-6.9e-4 -14.47474,0.006 -4.53284,-0.001 -9.06568,-8e-5 -13.59853,9.6e-4 -4.844708,0.39617 -9.473975,-0.35691 -14.182352,-1.36814 -4.685228,-0.9811 -9.475153,-1.23274 -14.245696,-1.40932 -4.639018,0.24571 -9.043967,-0.33434 -13.521382,-1.47502 -3.509019,-0.87629 -7.11527,-1.21105 -10.718063,-1.3825 -2.9838,-0.24446 -6.021612,0.27706 -8.923089,-0.50955 -3.0286,-0.92257 -6.092468,-1.73769 -9.235706,-2.14815 -2.039596,-0.0848 -3.41307,-0.0628 -4.463326,-1.9564 -0.505599,-1.71246 -0.439228,-3.51526 -0.438874,-5.28192 -0.0042,-0.97275 0.0288,-1.94499 0.03951,-2.91751 -0.152431,-2.12218 0.17536,-4.09514 0.783177,-6.12326 0,0 7.696255,-3.62909 7.696255,-3.62909 l 0,0 c -0.653098,1.95965 -1.079935,3.79749 -0.859756,5.8773 -0.0042,0.97392 -0.02098,1.94658 -0.04975,2.92025 -0.01639,1.63331 -0.06516,3.28488 0.243305,4.89691 0.804337,1.50081 2.526604,1.0345 4.010812,1.30672 3.145454,0.49525 6.208912,1.34344 9.269621,2.20823 2.909901,0.52675 5.891219,0.13819 8.834681,0.39416 3.635848,0.21332 7.268302,0.61112 10.803554,1.52364 4.435168,1.1047 8.834692,1.48999 13.410772,1.33841 4.801238,0.20803 9.618678,0.50735 14.327875,1.52845 4.670517,0.99563 9.290792,1.55133 14.082822,1.21951 4.53207,9.8e-4 9.06414,0.002 13.59621,7.5e-4 4.81816,0.007 9.63634,-0.004 14.4545,0.009 5.89472,0.003 11.78944,0.008 17.68415,0.0169 6.3891,0.008 12.77878,0.0311 19.16735,-0.0661 4.96303,-0.11556 9.94304,-0.2757 14.8421,-1.15271 4.98142,-0.87172 9.94504,-2.01176 15.03852,-1.66586 3.94019,-0.002 7.88038,6e-4 11.82058,-0.003 2.94651,0.005 5.89302,0.002 8.83952,0.0131 2.66039,-9.5e-4 5.32229,0.01 7.98027,-0.1221 3.61338,-0.19876 7.23875,-0.5063 10.73798,-1.48846 3.32312,-0.86637 6.55682,-1.48421 10.01011,-1.48027 0.71939,-0.15316 2.72704,-1.04378 2.11116,-0.64171 -9.11663,5.95174 -5.84069,5.6479 -5.95543,1.44709 0.004,-2.87815 -1e-5,-5.75632 0.002,-8.63448 0.007,-3.17321 0.007,-6.34644 0.0149,-9.51965 0.0103,-3.4293 0.0137,-6.85883 -0.0213,-10.28799 -0.0706,-3.64107 -0.20612,-7.28657 -0.73461,-10.89531 -0.65466,-3.94477 -1.98427,-7.92863 -1.35306,-11.94272 0.70401,-4.26525 2.07665,-8.47128 2.09255,-12.80398 -0.006,-5.15835 2.9e-4,-10.31721 0.12151,-15.47445 0.19786,-6.37265 0.58338,-12.74003 1.48373,-19.05751 0.99882,-7.66518 1.72439,-15.29889 1.02967,-23.03811 -0.29529,-5.26108 -0.66116,-10.56744 -2.35228,-15.60131 -0.8122,-2.39875 -0.85918,-4.33679 -3.92736,-3.70701 -3.77039,0.50223 -7.44294,1.42517 -11.11578,2.40183 -5.11651,1.00792 -10.40017,1.1053 -15.45735,2.51229 -6.38329,1.27293 -12.84096,2.01591 -19.21349,3.35533 -6.44813,1.01297 -12.9997,1.27873 -19.45285,2.30693 -6.39188,0.34173 -12.74561,-0.6916 -19.06391,-1.57822 -5.86243,-0.82123 -11.7155,-0.9043 -17.62562,-1.10618 -5.01392,-0.38389 -9.97925,-1.07 -14.85445,-2.34021 -5.07084,-0.83233 -10.28303,-0.61941 -15.31442,-1.81783 -5.43159,-1.08951 -10.80354,-1.57859 -16.359995,-1.23425 -6.984728,-0.004 -13.969455,-0.0112 -20.954185,-0.0123 -7.035643,-0.0114 -14.071287,-0.0243 -21.106939,-0.0274 -5.070938,0.0139 -10.166213,-0.0779 -15.213698,0.47798 -4.06896,0.81339 -1.603015,0.51557 4.484232,-3.44361 0.909502,-0.59155 -3.383981,1.87857 -1.81722,2.64973 -0.0039,2.42696 0.02251,4.8607 0.305431,7.27406 0.4898,3.20513 1.214184,6.35217 2.177696,9.45059 0.674845,3.33785 0.288167,6.74951 0.386778,10.14266 0.0065,3.08034 0.0067,6.16069 0.01059,9.24104 0.0063,4.0916 0.005,8.18373 -0.113825,12.27403 -0.239051,6.95241 -0.628229,13.89987 -1.481253,20.80831 -1.067843,9.38288 -1.830046,18.74044 -1.842495,28.19479 -0.49995,9.22349 -1.337929,18.41495 -2.305326,27.60051 0,0 -7.552218,3.84805 -7.552218,3.84805 z" />
    <path
       style="fill:#000000;fill-opacity:1;stroke:#000000;stroke-width:4.69999981;stroke-linecap:round;stroke-linejoin:round;stroke-miterlimit:4;stroke-opacity:1;stroke-dasharray:none;stroke-dashoffset:0"
       id="path2771"
       d="m 74.936696,606.56072 c 5.393229,-5.76326 10.787752,-11.49234 15.956045,-17.46279 4.543812,-5.43063 8.187296,-11.53424 12.574429,-17.07185 3.11464,-3.93573 5.77406,-8.20206 8.54169,-12.38339 2.26952,-3.25907 3.34222,-6.90112 3.90046,-10.77963 0.43297,-4.45086 7.43028,-12.42845 11.31941,-6.74493 2.06868,3.35351 1.84285,7.4101 2.50548,11.16328 1.16833,5.46979 2.22051,10.99117 1.98177,16.59777 -0.64913,4.68405 -1.42489,9.34137 -1.86054,14.05314 -0.28896,3.27776 -0.33468,6.56881 -0.36165,9.85691 -0.0149,2.97543 -0.007,5.95097 0.0146,8.92635 0.004,0.13105 0.13567,0.34901 0.0122,0.39315 -7.59998,2.71735 -8.22783,4.07555 -6.07246,0.5813 1.08751,-1.76306 2.26667,-3.45645 3.34583,-5.2258 2.91659,-3.7479 5.75329,-7.56 8.6223,-11.35001 2.64634,-3.5645 5.44997,-6.99205 8.27802,-10.41284 2.83701,-3.31587 5.27975,-6.95273 7.33432,-10.79959 2.23996,-3.09682 3.71207,-6.5092 4.58862,-10.20813 0.18329,-3.17929 1.35117,-6.09069 2.29889,-9.08958 0.96975,-5.23785 7.34782,-9.51063 11.56621,-4.49609 1.60092,3.55155 3.21852,7.16608 4.4156,10.89219 1.29267,3.70692 0.92358,7.67165 1.61417,11.47543 1.29132,4.66562 1.87621,9.45105 2.22914,14.26496 0.45424,6.38441 -0.0289,12.8062 0.64777,19.16929 0.91813,3.52731 0.7001,7.59477 2.16849,10.98553 -8.39282,3.20256 -6.93407,5.68297 -8.46019,1.71719 0,0 7.4409,-4.14198 7.4409,-4.14198 l 0,0 c 1.53435,3.99664 0.85113,0.99839 -6.44087,6.60468 -1.42239,-3.51626 -1.27335,-7.60779 -2.19089,-11.24784 -0.73867,-6.3657 -0.20859,-12.79731 -0.68026,-19.18951 -0.33753,-4.78153 -0.89199,-9.54051 -2.20293,-14.16816 -0.74208,-3.76617 -0.3564,-7.68864 -1.5733,-11.38145 -1.13835,-3.62693 -2.72655,-7.12724 -4.25819,-10.58499 -0.30149,-0.33778 -0.56306,-0.71595 -0.90447,-1.01332 -0.2979,-0.25948 -1.28694,-0.37473 -0.99615,-0.64215 10.30923,-9.4807 6.24891,-5.24498 5.32457,-1.87628 -0.93331,2.99195 -2.23083,5.8506 -2.33455,9.03244 -0.83356,3.75086 -2.11178,7.34471 -4.51407,10.40846 -1.95855,3.92872 -4.45142,7.5965 -7.26702,10.95986 -2.75827,3.4707 -5.70782,6.77585 -8.28787,10.38896 -2.88234,3.76471 -5.61484,7.63554 -8.66681,11.26378 -1.38985,2.39663 -10.37902,16.3368 -12.63758,11.56544 0.008,-2.98085 4.4e-4,-5.96169 9e-4,-8.94255 0.0148,-3.31258 0.0648,-6.62885 0.35094,-9.931 0.41343,-4.71041 1.14733,-9.37239 1.90039,-14.03831 0.35591,-5.53947 -0.75077,-11.00979 -1.90432,-16.41358 -0.69399,-3.62322 -0.42117,-7.56384 -2.36395,-10.82984 -2.3197,-3.29806 -1.37413,-1.15748 5.77313,-5.97461 0.24172,-0.16292 -0.3197,0.48788 -0.46566,0.74021 -0.71204,1.23092 -1.28727,2.5329 -1.66761,3.90596 -0.49903,3.9817 -1.48375,7.75363 -3.74672,11.13577 -2.83098,4.17342 -5.43484,8.50246 -8.55297,12.47138 -4.51027,5.45302 -8.05092,11.65707 -12.588365,17.10792 -5.16233,5.96558 -10.536608,11.69912 -15.876922,17.49557 0,0 -7.829957,3.24328 -7.829957,3.24328 z" />
    <path
       style="fill:#000000;fill-opacity:1;stroke:#000000;stroke-width:4.69999981;stroke-linecap:round;stroke-linejoin:round;stroke-miterlimit:4;stroke-opacity:1;stroke-dasharray:none;stroke-dashoffset:0"
       id="path2773"
       d="m -215.9089,569.56657 c 0.92157,6.11744 1.73717,12.2495 2.20122,18.41957 0.1401,3.4288 1.56038,6.61643 2.39835,9.91309 0.65831,0.96639 -0.0416,2.79485 0.62592,3.73125 0.19913,0.27932 0.81565,-1.04646 0.50784,-0.89506 -2.1887,1.07646 -4.2788,2.34276 -6.4182,3.51413 2.66884,-3.46956 5.07383,-7.13758 7.44959,-10.81298 2.46805,-4.00315 5.42508,-7.65881 8.5573,-11.15388 3.92591,-4.09332 10.55167,-10.63148 15.76509,-6.11751 1.90073,2.60752 3.42976,5.60982 4.51022,8.66703 0.92948,3.28435 1.12355,6.69331 1.24237,10.08448 0.01,0.41281 0.0214,0.82559 0.0299,1.23844 7.3e-4,0.0356 0.12227,2.11566 0.0232,2.15669 -8.06051,3.33656 -7.60821,5.25816 -7.62475,1.24955 -0.26082,-3.7141 0.63732,-7.28628 1.98871,-10.71752 1.34423,-3.90012 3.33883,-7.41823 5.78302,-10.71929 5.49473,-4.8856 10.73416,-8.39169 14.98099,-2.08103 2.23577,3.10221 4.04936,6.58986 5.52636,10.12307 1.36607,3.28045 1.8584,6.79323 2.0875,10.31122 0.1154,1.83348 0.10961,3.66985 0.11677,5.50558 -0.0569,0.20173 -0.11374,0.40346 -0.17061,0.60519 0,0 -7.98289,3.07667 -7.98289,3.07667 l 0,0 c 0.17547,0.0634 0.35094,0.12677 0.52641,0.19015 0.0609,-1.82202 0.0153,-3.64773 -0.0463,-5.46891 -0.19645,-3.43111 -0.61802,-6.86424 -1.93467,-10.07159 -1.4468,-3.48515 -3.24993,-6.91149 -5.4594,-9.96343 -0.78424,-1.14093 -1.68686,-2.39625 -3.15928,-2.71877 -0.42928,-0.094 -1.66535,0.30654 -1.31783,0.0376 1.56246,-1.20936 9.21003,-5.46545 4.63549,-2.90551 -2.48005,3.2263 -4.5844,6.63335 -5.87331,10.52535 -1.44516,3.28414 -2.35977,6.79356 -2.11602,10.40088 0.0448,5.8057 -9.51707,10.30515 -7.58528,3.11327 -0.088,-3.31112 -0.24747,-6.64244 -1.11464,-9.85842 -1.00465,-2.91533 -2.45891,-5.78717 -4.27643,-8.25583 -0.94793,-0.6986 -1.06194,-1.02592 -2.32036,-0.98578 -0.48402,0.0154 -1.81018,0.58877 -1.4215,0.29991 11.23645,-8.35094 5.09207,-3.08456 3.00773,-1.00683 -3.15205,3.45312 -6.15452,7.05474 -8.62756,11.03558 -2.39339,3.69593 -4.86199,7.3259 -7.3102,10.98651 -8.11102,5.07703 -9.02821,8.28809 -10.09325,0.92888 -0.82169,-3.35447 -2.30225,-6.58648 -2.4235,-10.06467 -0.43561,-6.14451 -1.18161,-12.26096 -2.18665,-18.33894 0,0 7.49868,-3.9781 7.49868,-3.9781 z" />
    <path
       style="fill:#000000;fill-opacity:1;stroke:#000000;stroke-width:4.69999981;stroke-linecap:round;stroke-linejoin:round;stroke-miterlimit:4;stroke-opacity:1;stroke-dasharray:none;stroke-dashoffset:0"
       id="path2775"
       d="m -143.04643,555.98055 c 6.6193,1.07195 13.29032,1.76305 19.98114,2.17055 5.79855,0.12711 11.64847,0.70288 17.41403,-0.0654 5.658351,-1.1129 11.368946,-1.80807 17.119027,-2.19086 4.523523,0.17778 8.796275,-1.06408 13.133669,-2.13822 3.055891,-0.70931 6.179026,-0.91131 9.302828,-1.02196 3.538873,-0.0555 7.078531,-0.0319 10.617725,-0.0291 2.275195,0.007 4.550412,0.007 6.825607,-1.5e-4 0.244296,-3.3e-4 0.488586,-0.002 0.732876,-0.004 0,0 -6.933497,5.03516 -6.933497,5.03516 l 0,0 c -0.239549,-0.002 -0.479096,-0.005 -0.718656,-0.007 -2.262126,-0.0164 -4.524303,-0.026 -6.786488,-0.0281 -3.535871,-0.0112 -7.07296,-0.033 -10.607843,0.065 -3.089678,0.13152 -6.174254,0.4052 -9.185817,1.14937 -4.35014,1.06334 -8.664771,2.1287 -13.187807,1.99691 -5.741434,0.41862 -11.430404,1.19291 -17.094864,2.22251 -5.81088,0.59003 -11.67041,0.13838 -17.49672,-0.0627 -6.71788,-0.44452 -13.40885,-1.19363 -20.06405,-2.21732 0,0 6.94884,-4.87536 6.94884,-4.87536 z" />
    <path
       style="fill:#000000;fill-opacity:1;stroke:#000000;stroke-width:4.69999981;stroke-linecap:round;stroke-linejoin:round;stroke-miterlimit:4;stroke-opacity:1;stroke-dasharray:none;stroke-dashoffset:0"
       id="path2777"
       d="m -48.984666,531.47286 c 5.36972,3.74267 10.676015,7.60715 16.604601,10.42365 3.133268,2.00246 7.059747,1.45018 10.354232,2.74409 3.338307,1.77948 -0.03363,5.58319 -1.535979,7.51788 -3.332676,3.57967 -7.200993,6.68279 -10.959729,9.8232 -4.841077,4.11718 -10.381582,6.86846 -15.782814,10.21226 5.955533,-3.27787 7.005595,-3.9616 3.342646,-1.71981 -20.576287,11.83945 -5.816156,3.23533 -3.131485,2.01584 1.193784,-0.54227 -1.713387,1.53884 -2.772454,2.97179 -8.327966,2.86218 -7.435273,5.51244 -8.208842,1.73255 0,0 7.531139,-4.01056 7.531139,-4.01056 l 0,0 c 0.599413,3.7804 0.399635,0.73883 -7.15788,5.69075 3.311076,-5.11232 19.662154,-13.21803 5.827499,-5.34761 3.930285,-2.31528 6.533109,-3.8423 11.156671,-6.66068 1.674501,-1.02072 -3.31851,2.10171 -5.067368,2.98903 -7.869019,3.99249 13.786989,-8.67598 6.415574,-4.70581 3.746733,-3.11869 7.535966,-6.23755 10.992733,-9.65012 1.099057,-1.34668 4.893275,-4.8457 2.293862,-6.0846 -3.421291,-1.0225 -7.193632,-0.9126 -10.360162,-2.85924 -5.931579,-2.93576 -11.286917,-6.82625 -16.726705,-10.56986 0,0 7.184461,-4.51275 7.184461,-4.51275 z" />
    <path
       style="fill:#000000;fill-opacity:1;stroke:#000000;stroke-width:4.69999981;stroke-linecap:round;stroke-linejoin:round;stroke-miterlimit:4;stroke-opacity:1;stroke-dasharray:none;stroke-dashoffset:0"
       id="path2779"
       d="m -104.16847,424.15566 c 3.12524,9.35937 6.26671,18.7127 9.208693,28.13325 2.634283,9.22956 4.824512,18.56636 7.078409,27.8938 1.496919,5.58137 2.445289,11.27775 2.944791,17.02873 0.329866,5.67885 2.122081,2.84993 -5.614521,6.10691 3.466512,-6.53367 5.469865,-13.73098 8.145226,-20.61535 4.33201,-10.21167 8.829391,-20.38749 13.884481,-30.26578 2.691242,-5.10758 4.73078,-10.67109 8.702931,-14.96635 1.18072,-1.24739 1.905414,-0.80994 0.799804,-1.82582 -0.308125,-0.27191 -0.616251,-0.54381 -0.924377,-0.81572 0,0 7.238,-4.49798 7.238,-4.49798 l 0,0 c 0.314651,0.27744 0.629302,0.55488 0.943952,0.83231 1.521442,1.44229 1.546894,1.9586 -0.185719,3.04119 -4.267482,4.03941 -6.236332,9.70841 -8.944046,14.79185 -5.115478,9.82734 -9.575055,20.00444 -13.926171,30.18757 -2.684089,6.90325 -4.715184,14.069 -7.948282,20.73292 -8.302793,5.70444 -9.315732,8.62963 -9.707067,1.21107 -0.431403,-5.72652 -1.341849,-11.39826 -2.79538,-16.95964 -2.231402,-9.31744 -4.421661,-18.638 -7.024764,-27.86045 -2.92183,-9.42599 -6.05209,-18.78639 -9.31482,-28.09763 0,0 7.43886,-4.05488 7.43886,-4.05488 z" />
    <path
       style="fill:#000000;fill-opacity:1;stroke:#000000;stroke-width:4.69999981;stroke-linecap:round;stroke-linejoin:round;stroke-miterlimit:4;stroke-opacity:1;stroke-dasharray:none;stroke-dashoffset:0"
       id="path2781"
       d="m 742.83775,238.37929 c -4.26192,8.05202 -9.81203,15.31534 -15.18134,22.64391 -5.44072,7.81178 -12.24724,14.43433 -18.80347,21.27564 -7.48528,6.77289 -14.41791,14.10291 -21.81341,20.96954 -6.991,5.46898 -12.05576,12.71954 -17.9137,19.27245 -3.79109,4.66691 -7.73554,9.22726 -11.01406,14.27651 -1.97335,3.35989 -4.66396,6.16792 -7.1701,9.1234 -2.33954,3.03075 -4.4974,6.19236 -6.76325,9.27886 -2.14773,3.0682 -4.00984,6.29062 -5.89719,9.52435 -2.23283,3.21739 -4.78405,6.1841 -7.2003,9.26428 -2.63484,3.38336 -5.62886,6.4639 -8.60161,9.54707 -2.9761,3.01892 -5.55802,6.48363 -7.76569,10.1019 -2.0858,2.97867 -3.94819,6.0881 -6.1847,8.96005 -1.35441,1.66937 -2.76186,3.29541 -4.21229,4.88191 -9.18667,3.85224 -8.13627,4.13184 -6.97791,-1.17866 0,0 7.65219,-3.69057 7.65219,-3.69057 l 0,0 c -1.26546,5.59355 -0.24544,4.10994 -8.56689,8.16801 1.4959,-1.55442 2.90819,-3.18766 4.29409,-4.84009 2.2828,-2.82089 4.10203,-5.92588 6.23322,-8.8502 2.08677,-3.7153 4.7902,-7.19177 7.69444,-10.29265 2.97414,-3.06048 5.9708,-6.1177 8.62631,-9.46427 2.42581,-3.05719 4.8709,-6.06696 7.25227,-9.15028 1.84841,-3.28384 3.76647,-6.48522 5.85093,-9.6123 2.29678,-3.07836 4.46524,-6.24953 6.73905,-9.3315 2.51461,-2.94187 5.21067,-5.71689 7.23737,-9.02866 3.25784,-5.11679 7.21703,-9.70351 11.01422,-14.42519 5.92375,-6.5321 10.90627,-13.8828 17.92752,-19.36079 7.41194,-6.84175 14.30367,-14.19649 21.82699,-20.92062 6.54039,-6.8354 13.38369,-13.40051 18.84893,-21.1762 5.34912,-7.27276 10.88696,-14.48127 15.1423,-22.47038 0,0 7.72608,-3.49552 7.72608,-3.49552 z" />
    <path
       style="fill:#000000;fill-opacity:1;stroke:#000000;stroke-width:4.69999981;stroke-linecap:round;stroke-linejoin:round;stroke-miterlimit:4;stroke-opacity:1;stroke-dasharray:none;stroke-dashoffset:0"
       id="path2783"
       d="m 615.82839,223.79461 c 2.64757,7.84441 5.0246,15.71627 6.45018,23.88296 0.62873,8.48375 -0.19091,16.97787 -1.61974,25.33601 -1.04962,6.77286 -3.01941,13.40832 -6.03004,19.56633 -3.20687,5.50334 -10.39352,11.83875 -15.06381,5.05917 -2.81607,-5.97409 -2.88361,-12.73852 -3.17061,-19.21512 -0.51261,-8.26345 1.09315,-16.40254 3.46712,-24.27242 2.47601,-6.68399 7.27388,-11.61506 12.93739,-15.71038 6.68204,-4.49671 13.43678,-9.19554 21.40504,-10.90508 3.7591,-0.64336 7.35318,-0.88569 10.98974,0.30926 2.60165,1.62264 3.99557,4.43204 5.37649,7.08006 0.82527,3.50171 -1.4707,6.34495 -4.1233,8.32848 -2.86722,1.62864 -5.73445,3.25728 -8.60167,4.88592 -0.50806,0.14079 -1.03353,0.22947 -1.52418,0.42238 -0.47352,0.18617 -1.80118,0.94755 -1.35204,0.70848 2.03059,-1.08089 3.98362,-2.32415 6.09642,-3.23391 0.783,-0.33716 -1.07535,1.35839 -1.37482,2.15656 -0.25074,3.65376 2.57206,6.52386 4.88377,9.00466 3.14822,3.25091 6.85447,5.8673 10.48197,8.55016 3.16495,2.42309 6.17693,5.20552 8.74049,8.26797 0.80522,1.39754 3.07712,3.25072 2.18296,5.01064 0,0 -7.9387,3.18389 -7.9387,3.18389 l 0,0 c 1.79964,-0.23226 -1.15729,-2.96434 -1.52896,-3.81544 -2.54468,-2.99954 -5.48641,-5.74113 -8.62415,-8.10453 -3.67747,-2.69851 -7.3761,-5.41103 -10.56563,-8.68682 -2.51697,-2.73447 -5.33623,-5.7962 -5.31852,-9.74236 0.20813,-1.1408 0.10068,-1.88641 1.1771,-2.62377 2.73719,-1.875 5.59424,-3.57056 8.44306,-5.27116 0.88328,-0.52727 3.72054,-1.71932 2.86384,-1.14987 -1.92445,1.27917 -3.97486,2.35789 -5.96229,3.53684 2.53115,-1.49387 5.06647,-4.0455 4.65356,-7.20502 -1.26139,-2.44298 -2.53525,-5.13518 -5.01564,-6.51133 -3.53457,-1.02629 -7.12255,-0.61376 -10.71084,0.0426 -2.91147,0.72418 -8.33778,3.64845 -6.44778,2.20529 10.18439,-7.77658 2.1847,-0.28341 -0.35221,0.46068 -5.70465,3.89821 -10.55319,8.6858 -13.18538,15.21254 -2.44076,7.76011 -4.07194,15.83553 -3.59023,24.012 0.26941,6.30934 0.30816,12.92048 3.00435,18.7569 0.81676,1.13218 0.87504,1.67443 2.20396,2.06195 0.33028,0.0963 1.30185,-0.17544 1.03143,0.0372 -11.42217,8.98272 -4.68481,3.23861 -3.19167,0.63446 3.15512,-6.02376 5.06773,-12.66351 6.17605,-19.35869 1.45971,-8.27518 2.28984,-16.6712 1.76126,-25.08424 -1.39556,-8.12669 -3.71373,-15.96511 -6.46655,-23.72985 0,0 7.43258,-4.09345 7.43258,-4.09345 z" />
  </g>
</svg>
