<?xml version="1.0" encoding="UTF-8" standalone="no"?>
<!-- Created with Inkscape (http://www.inkscape.org/) -->
<svg
   xmlns:dc="http://purl.org/dc/elements/1.1/"
   xmlns:cc="http://creativecommons.org/ns#"
   xmlns:rdf="http://www.w3.org/1999/02/22-rdf-syntax-ns#"
   xmlns:svg="http://www.w3.org/2000/svg"
   xmlns="http://www.w3.org/2000/svg"
   xmlns:sodipodi="http://sodipodi.sourceforge.net/DTD/sodipodi-0.dtd"
   xmlns:inkscape="http://www.inkscape.org/namespaces/inkscape"
   width="782.43597"
   height="960.13586"
   id="svg2868"
   sodipodi:version="0.32"
   inkscape:version="0.46+devel"
   version="1.0"
   sodipodi:docname="c22d4.svg"
   inkscape:output_extension="org.inkscape.output.svg.inkscape">
  <defs
     id="defs2870">
    <inkscape:perspective
       sodipodi:type="inkscape:persp3d"
       inkscape:vp_x="0 : 526.18109 : 1"
       inkscape:vp_y="0 : 1000 : 0"
       inkscape:vp_z="744.09448 : 526.18109 : 1"
       inkscape:persp3d-origin="372.04724 : 350.78739 : 1"
       id="perspective2876" />
  </defs>
  <sodipodi:namedview
     id="base"
     pagecolor="#ffffff"
     bordercolor="#666666"
     borderopacity="1.0"
     inkscape:pageopacity="0.0"
     inkscape:pageshadow="2"
     inkscape:zoom="0.35"
     inkscape:cx="421.62657"
     inkscape:cy="466.75936"
     inkscape:document-units="px"
     inkscape:current-layer="layer1"
     showgrid="false"
     inkscape:window-width="1280"
     inkscape:window-height="712"
     inkscape:window-x="-5"
     inkscape:window-y="-3" />
  <metadata
     id="metadata2873">
    <rdf:RDF>
      <cc:Work
         rdf:about="">
        <dc:format>image/svg+xml</dc:format>
        <dc:type
           rdf:resource="http://purl.org/dc/dcmitype/StillImage" />
        <dc:title></dc:title>
      </cc:Work>
    </rdf:RDF>
  </metadata>
  <g
     inkscape:label="Layer 1"
     inkscape:groupmode="layer"
     id="layer1"
     transform="translate(46.626572,-38.985696)">
    <path
       style="fill:#000000;fill-opacity:1;stroke:#000000;stroke-width:4.69999981;stroke-linecap:round;stroke-linejoin:round;stroke-miterlimit:4;stroke-opacity:1;stroke-dasharray:none;stroke-dashoffset:0"
       id="path2878"
       d="m -2.534516,920.89169 c 4.6320853,-6.824 9.6887189,-13.3186 15.050167,-19.58031 7.095919,-7.72235 14.026233,-15.59421 21.331577,-23.12118 7.921719,-8.67041 16.113052,-17.09721 23.93106,-25.86064 8.488491,-9.21683 16.085297,-19.15649 23.458378,-29.27089 7.770332,-11.32391 15.5977,-22.60939 23.717974,-33.68588 7.9918,-10.35222 15.71102,-20.91453 23.81373,-31.18042 7.23046,-9.13903 14.76607,-18.02478 22.15132,-27.03606 7.39313,-9.08431 14.99537,-17.98451 22.59095,-26.89925 6.74271,-8.12884 14.27296,-15.54864 21.27341,-23.44371 6.95563,-7.58095 14.60841,-14.47213 21.64522,-21.97157 7.07233,-7.60127 14.14112,-15.20904 21.19416,-22.83181 4.66086,-5.82099 9.98812,-11.04397 15.30037,-16.25833 3.68731,-3.66948 7.94353,-6.64659 11.85074,-10.06981 4.18785,-3.92452 8.29606,-5.61333 13.68198,-8.32083 4.38675,0.9475 8.77312,1.76194 13.23996,2.23433 7.65626,0.57367 15.34195,0.55548 23.01506,0.59173 11.11958,0.98677 22.23584,1.89294 33.39015,2.37607 14.04315,0.4874 28.09718,0.4906 42.14699,0.52294 16.25287,-0.85516 32.49332,-1.82786 48.76225,-2.344 18.30329,-1.4946 36.66336,-2.02455 54.98296,-3.21435 19.04059,-1.53744 38.12341,-2.28659 57.21672,-2.71179 17.52556,-0.31344 35.05465,-0.32384 52.58244,-0.33517 15.07619,-0.10539 30.10966,1.32735 45.15795,2.0937 11.5596,1.19158 23.10755,2.42529 34.71042,3.10941 9.14765,0.0225 18.18917,0.77863 27.26207,1.8515 4.72419,0.48185 9.58659,1.46133 14.2439,-0.0335 0.95281,-0.30582 3.65284,-1.63655 2.73642,-1.23463 -1.67826,0.73605 -3.34801,1.49136 -5.02202,2.23704 2.31599,-4.06542 1.33274,-1.94234 2.94173,-6.37296 0,0 7.63591,-3.57257 7.63591,-3.57257 l 0,0 c -1.54949,4.60585 -0.63463,2.35408 -2.74829,6.75379 -11.9725,7.84643 -12.98871,9.01581 -26.64664,7.08355 -9.05321,-1.07654 -18.08651,-1.73456 -27.20976,-1.82991 -11.57973,-0.72942 -23.10332,-2.00488 -34.64752,-3.14535 -15.02297,-0.79618 -30.03406,-2.22332 -45.08806,-2.09075 -17.51171,0.004 -35.02476,5.2e-4 -52.53419,0.32242 -19.0826,0.43092 -38.15315,1.20962 -57.18391,2.73031 -18.34027,1.17152 -36.71527,1.77593 -55.04066,3.22399 -16.28354,0.53308 -32.53692,1.55045 -48.80787,2.3421 -14.07138,-0.0291 -28.14759,-0.024 -42.21209,-0.51817 -11.16361,-0.48734 -22.28388,-1.45556 -33.42236,-2.3131 -7.70999,-0.0407 -15.43506,0.004 -23.1256,-0.6203 -4.41219,-0.49889 -8.73371,-1.49564 -13.12692,-2.00021 12.44282,-8.09001 3.40505,-2.33556 0.96805,-0.004 -3.95767,3.36817 -8.08948,6.50145 -11.90272,10.03428 -5.33851,5.20502 -10.73008,10.39696 -15.37743,16.24564 -7.06779,7.6174 -14.12688,15.24308 -21.20993,22.84096 -6.98079,7.54406 -14.65196,14.40618 -21.64245,21.94522 -6.95641,7.94253 -14.55799,15.30602 -21.30378,23.44173 -7.60087,8.90767 -15.20662,17.79872 -22.59698,26.88275 -7.36078,9.03779 -14.95108,17.88801 -22.18086,27.03452 -8.1305,10.24899 -15.82615,20.83348 -23.85196,31.16433 -8.13492,11.05792 -15.959955,22.33882 -23.701742,33.67449 -7.350782,10.13935 -14.917635,20.11408 -23.409433,29.33836 -7.779994,8.79787 -16.016137,17.18445 -23.900562,25.89 -7.326624,7.47675 -14.192949,15.3742 -21.304481,23.05296 -5.367042,6.21436 -10.4938401,12.63162 -14.982658,19.51905 0,0 -7.80314,3.3338 -7.80314,3.3338 z" />
    <path
       style="fill:#000000;fill-opacity:1;stroke:#000000;stroke-width:4.69999981;stroke-linecap:round;stroke-linejoin:round;stroke-miterlimit:4;stroke-opacity:1;stroke-dasharray:none;stroke-dashoffset:0"
       id="path2880"
       d="m 270.50898,603.32275 c -0.32861,-8.8909 0.40138,-17.69988 1.3136,-26.531 1.27628,-10.42062 2.53064,-20.85413 3.89958,-31.26652 1.70051,-14.09008 3.65322,-28.13874 4.85151,-42.28387 1.26321,-17.67814 1.3653,-35.4117 1.48064,-53.12628 0.0796,-19.67117 0.0534,-39.34261 0.0374,-59.01388 -0.0206,-18.38336 -0.0338,-36.76673 -0.0408,-55.15011 -0.004,-16.64342 -0.0147,-33.28684 -0.013,-49.93027 -0.001,-15.52442 -0.005,-31.04884 -0.0137,-46.57325 -0.007,-11.81486 -0.0225,-23.62971 -0.0466,-35.44454 -0.39357,-6.30399 0.60016,-12.75442 -0.35463,-19.01301 -0.40103,-1.67186 -0.96153,-3.33525 -2.10108,-4.64221 -0.19327,-0.21164 -0.10734,0.047 -0.13902,0.0608 0,0 7.02456,-4.90777 7.02456,-4.90777 l 0,0 c 0.14478,0.13061 0.29151,0.25933 0.42808,0.39867 1.24299,1.43597 1.80872,3.31999 2.28679,5.11927 1.039,6.30094 -0.0661,12.82027 0.32889,19.17622 -0.024,11.83067 -0.0392,23.66136 -0.0467,35.49205 -0.009,15.52916 -0.0128,31.05831 -0.0142,46.58747 0.002,16.64722 -0.009,33.29442 -0.01,49.94164 -10e-4,18.39002 -0.005,36.78004 8e-4,55.17005 0.01,19.66975 0.0468,39.33957 -0.0158,59.00927 -0.10638,17.72375 -0.18301,35.46606 -1.39918,53.15624 -1.16326,14.14676 -3.09272,28.19478 -4.76716,42.28644 -1.37707,10.39447 -2.54958,20.82334 -3.86272,31.22266 -0.9228,8.79118 -1.72423,17.55936 -1.27413,26.4132 0,0 -7.55347,3.84868 -7.55347,3.84868 z" />
    <path
       style="fill:#000000;fill-opacity:1;stroke:#000000;stroke-width:4.69999981;stroke-linecap:round;stroke-linejoin:round;stroke-miterlimit:4;stroke-opacity:1;stroke-dasharray:none;stroke-dashoffset:0"
       id="path2886"
       d="m -0.33900857,188.82457 c 2.84701697,10.4413 8.61271897,19.67007 13.75210257,29.08638 8.870235,15.6857 17.885234,31.29143 26.93277,46.87605 12.489757,21.27354 27.147296,41.14183 41.969147,60.82242 20.967409,26.75951 41.623829,53.74056 61.993489,80.95745 24.64456,34.56342 49.85768,68.70149 76.1598,102.021 29.58327,37.20417 59.2394,74.3373 88.01042,112.17642 34.86846,46.25474 66.52535,94.78996 99.34769,142.48843 20.57796,30.08767 42.57148,59.09065 65.59524,87.33167 0,0 -28.44866,16.98435 -28.44866,16.98435 l 0,0 C 422.74731,838.67546 400.75647,809.61784 380.21583,779.48557 347.43231,731.80465 315.57075,683.43765 280.30444,637.52314 251.2575,599.88644 221.46599,562.84992 191.8072,525.69608 165.42197,492.38716 140.14744,458.2456 115.16701,423.87242 94.565241,396.79285 73.702581,369.9315 52.430995,343.37326 37.3063,323.72045 22.485215,303.78742 9.7406314,282.4789 0.58405343,266.92131 -8.6837356,251.42939 -17.808258,235.85385 c -5.346569,-9.60817 -11.21508,-18.98029 -14.771394,-29.45509 0,0 32.24064343,-17.57419 32.24064343,-17.57419 z" />
    <path
       style="fill:#000000;fill-opacity:1;stroke:#000000;stroke-width:4.69999981;stroke-linecap:round;stroke-linejoin:round;stroke-miterlimit:4;stroke-opacity:1;stroke-dasharray:none;stroke-dashoffset:0"
       id="path2888"
       d="m -34.356374,334.90795 c 1.772254,8.79708 5.363839,16.6797 11.274511,23.40806 8.790267,7.3164 14.8319914,7.1974 25.4726045,4.36622 13.8717785,-5.3778 20.5336575,-11.52871 35.4262745,-23.36194 17.859658,-15.06285 35.112975,-30.9216 51.075757,-47.98932 10.170247,-11.01692 19.788967,-22.67695 25.980347,-36.42065 2.0251,-6.08316 2.31766,-9.75928 -2.72934,-13.99973 -2.3721,-1.83295 -4.87451,-3.49653 -7.46959,-4.99621 -0.80428,-0.2965 -1.2477,-0.84711 -1.84463,-1.44117 -1.52876,-1.88442 -3.598017,-2.99742 -5.759298,-4.00017 -1.934584,-0.54392 -2.242364,-2.0931 -2.844269,-3.91475 -0.711862,-3.50265 -0.384486,-1.73346 -0.979532,-5.30803 0,0 9.971069,-5.28772 9.971069,-5.28772 l 0,0 c 0.5708,3.4883 0.25491,1.77894 0.94093,5.1293 0.59153,1.79414 0.70187,2.5234 2.41163,3.11453 2.21868,1.12334 4.31804,2.40106 5.96632,4.3019 0.51892,0.49587 1.06623,0.88075 1.70173,1.21661 2.59091,1.60465 5.11877,3.31719 7.51301,5.20486 4.87359,4.3612 5.51651,9.15779 3.28,15.33025 -6.14732,13.94546 -15.85322,25.74386 -26.128703,36.88367 -15.921156,17.13323 -33.2178,32.97702 -51.017039,48.13739 -16.654129,13.35393 -34.218712,26.56115 -54.3368084,34.1664 -11.0093836,2.6455 -17.3835456,2.26534 -26.2155326,-5.34854 -5.945292,-6.89223 -9.676829,-14.86469 -11.609639,-23.78352 0,0 9.920198,-5.40744 9.920198,-5.40744 z" />
    <path
       style="fill:#000000;fill-opacity:1;stroke:#000000;stroke-width:4.69999981;stroke-linecap:round;stroke-linejoin:round;stroke-miterlimit:4;stroke-opacity:1;stroke-dasharray:none;stroke-dashoffset:0"
       id="path2890"
       d="m 121.23185,223.85119 c -9.15572,-1.29363 -18.19893,-3.17925 -27.389452,-4.28938 -6.60532,-0.75322 -13.252404,-0.9623 -19.894454,-1.0439 -0.691027,0.13523 -1.413381,0.15953 -2.073082,0.40571 -0.569275,0.21243 -2.101036,1.21834 -1.556519,0.94871 2.938998,-1.45533 5.65929,-3.39762 8.745067,-4.50832 0.504823,-0.18171 -0.436824,1.00055 -0.484431,1.53496 -0.122053,1.37014 0.422073,3.80037 0.644976,5.04229 2.45243,8.90068 6.386379,17.34651 10.231504,25.71894 1.656876,3.4548 3.002424,7.05287 4.60807,10.52987 0.265445,0.57482 0.525794,1.15681 0.867977,1.68952 0.133966,0.20856 0.760833,0.38871 0.543372,0.50768 -3.250391,1.77829 -6.713609,3.13637 -10.070413,4.70456 0,0 10.033901,-5.36656 10.033901,-5.36656 l 0,0 c -3.231833,2.18808 -6.284451,4.66761 -9.695499,6.56424 -0.171868,0.0956 -0.675541,-0.6871 -1.50904,-2.58643 -1.536,-3.50015 -2.861211,-7.09448 -4.501647,-10.55018 -3.868194,-8.45791 -7.832353,-16.96824 -10.460124,-25.90479 -0.224465,-1.13525 -1.881581,-6.28396 -0.608217,-7.34636 4.753374,-3.96585 8.643621,-7.47074 14.432585,-8.00873 6.641203,0.12653 13.286137,0.39777 19.885126,1.19999 9.19878,1.17607 18.26227,3.11573 27.46124,4.23949 0,0 -9.21094,6.51869 -9.21094,6.51869 z" />
    <path
       style="fill:#000000;fill-opacity:1;stroke:#000000;stroke-width:4.69999981;stroke-linecap:round;stroke-linejoin:round;stroke-miterlimit:4;stroke-opacity:1;stroke-dasharray:none;stroke-dashoffset:0"
       id="path2892"
       d="m 101.54626,112.65944 c -2.73745,9.62004 -3.396755,19.47747 -1.665055,29.30797 2.340615,7.98435 5.574055,11.16541 13.954115,10.56834 -1.47832,1.71937 9.27847,-4.54067 7.05345,-3.22445 -1.85336,1.09635 -3.58256,2.51 -5.63682,3.15571 -1.52013,0.47782 2.67849,-1.72799 3.98711,-2.63716 4.00697,-2.78388 3.60625,-2.59645 7.18972,-5.68786 4.00964,-3.19248 6.83938,-8.08765 11.39895,-10.62414 3.73466,-2.0776 7.54561,-4.01499 11.31842,-6.02248 4.51118,0.83172 6.79324,4.66746 9.39479,8.04238 3.43297,4.64256 6.96168,8.87906 12.20882,11.4383 -0.28959,2.68249 10.11409,-2.39881 7.59887,-0.92072 -2.34579,1.37853 -4.6085,3.12827 -7.26316,3.7248 -1.15812,0.26024 1.66793,-1.69649 2.39886,-2.63175 0.87168,-1.11534 1.59827,-2.33682 2.3974,-3.50524 6.64095,-11.60835 11.16643,-24.23319 15.48735,-36.83962 0,0 9.99376,-4.68261 9.99376,-4.68261 l 0,0 c -4.3399,12.62675 -8.77522,25.28207 -15.21743,37.02683 -5.39736,8.44611 -14.2527,16.80122 -24.83028,14.02655 -5.27652,-2.79108 -8.93983,-7.11156 -12.46835,-11.86131 -2.28659,-2.92093 -4.48506,-6.9375 -8.66969,-6.87411 2.72975,-1.6795 5.46098,-3.35661 8.18927,-5.03848 0.61692,-0.38031 -1.27055,0.70545 -1.85516,1.13378 -3.65036,2.67457 -6.39045,6.35922 -9.71083,9.38925 -9.23176,8.27833 -20.22981,15.51014 -32.05213,19.26351 -8.774295,0.009 -12.300737,-3.63465 -14.733885,-11.97006 -1.803681,-9.93393 -1.245209,-19.90848 1.358048,-29.68373 0,0 10.173857,-4.8737 10.173857,-4.8737 z" />
    <path
       style="fill:#000000;fill-opacity:1;stroke:#000000;stroke-width:4.69999981;stroke-linecap:round;stroke-linejoin:round;stroke-miterlimit:4;stroke-opacity:1;stroke-dasharray:none;stroke-dashoffset:0"
       id="path2896"
       d="m 104.23361,53.113522 c 8.9827,3.890418 18.6424,5.453972 28.30318,6.486649 10.42382,1.306272 20.79034,0.628859 31.1873,-0.373504 7.16828,-0.478228 14.14395,-2.318992 21.18123,-3.657167 1.77913,-0.322898 3.55508,-0.670284 5.34529,-0.927033 -13.83958,7.49292 -8.5952,6.33484 -15.87103,-1.110496 -2.00081,-2.80524 -4.64723,-4.641658 -7.80338,-5.888027 -0.14295,0.0766 -0.57467,0.300798 -0.42885,0.229803 14.34382,-6.983775 8.01178,-5.813633 18.68011,-1.538651 4.16009,2.353145 8.64271,4.004049 12.52701,6.821071 3.77924,2.146459 5.87603,5.570785 6.97312,9.658018 0.90925,3.726279 1.16029,6.801786 -1.462,9.774567 -7.17315,4.890282 -14.56637,11.824712 -23.62449,11.60897 -2.8221,-1.577139 -1.56087,-0.650351 -3.8172,-2.734177 0,0 9.61741,-5.968474 9.61741,-5.968474 l 0,0 c 1.98404,1.704311 0.87763,1.018362 3.32935,2.041431 4.8434,-0.328022 10.36262,-4.266333 -2.1727,3.256423 -1.46985,0.882093 3.01055,-1.647149 4.44807,-2.580996 0.6079,-0.394906 1.15968,-0.870134 1.73951,-1.3052 3.02187,-2.441157 2.81707,-5.065284 1.98397,-8.695935 -0.97478,-3.90126 -2.98208,-6.956509 -6.56182,-8.980203 -3.86853,-2.673881 -8.24836,-4.373982 -12.3669,-6.614315 -3.54101,-1.458111 -22.08181,-9.352779 0.5875,-11.28058 3.20151,1.426783 5.91664,3.446611 8.02267,6.293823 1.62548,1.707033 3.03383,3.565614 4.54526,5.365696 0.32375,0.385586 1.37231,0.718373 1.03932,1.096016 -2.48759,2.821222 -5.68305,4.928753 -8.52458,7.39313 -1.74501,0.277018 -3.48653,0.575438 -5.22366,0.898481 -7.01838,1.322591 -13.98858,3.068068 -21.14132,3.498108 -10.43417,0.983717 -20.84945,1.467768 -31.29795,0.171707 -9.77228,-1.104307 -19.49869,-2.813002 -28.611233,-6.676947 0,0 9.396813,-6.262188 9.396813,-6.262188 z" />
    <path
       style="fill:#000000;fill-opacity:1;stroke:#000000;stroke-width:4.69999981;stroke-linecap:round;stroke-linejoin:round;stroke-miterlimit:4;stroke-opacity:1;stroke-dasharray:none;stroke-dashoffset:0"
       id="path2898"
       d="m 267.59353,615.73304 c 5.66599,-7.06305 11.6574,-13.79101 18.54054,-19.68088 9.09413,-8.07144 18.56592,-15.7037 28.19398,-23.12551 12.93462,-9.48964 25.54898,-19.40884 38.21191,-29.25677 14.80868,-11.43721 29.82519,-22.60113 44.73344,-33.90716 13.70015,-10.95536 27.82262,-21.35505 41.30292,-32.5834 11.93363,-9.70892 24.0365,-19.20933 36.10304,-28.75285 8.93691,-7.02618 18.10704,-13.732 27.24357,-20.49108 5.82254,-4.59458 11.6839,-9.12025 17.35473,-13.89905 4.33825,-3.71154 8.55946,-7.59038 12.33629,-11.879 3.03948,-3.6744 6.14011,-7.29487 9.37805,-10.79585 2.67734,-2.83523 5.99096,-4.92844 8.90304,-7.47583 1.53448,-2.12857 -2.62547,-2.11834 -3.87556,-2.27844 -3.2582,0.74598 -6.42581,1.72767 -9.74921,2.16729 -3.31814,1.13065 -6.50549,2.3373 -9.64749,3.85233 -3.56713,1.67559 -10.07634,5.08831 5.85811,-3.55152 0.60809,-0.32972 -1.03865,0.92607 -1.46025,1.47446 1.90742,-1.36366 4.90368,-2.28971 7.26155,-3.1866 3.95396,-1.22357 7.6912,-3.06673 11.40561,-4.88688 3.0922,-1.58021 6.451,-2.7554 9.84436,-1.64055 2.27794,3.29369 0.0835,7.78738 -1.21036,11.09133 -2.36384,6.481 -4.97831,12.87227 -7.89649,19.12352 -2.20722,3.4984 -2.74749,8.01975 -5.09421,11.41388 -8.43615,4.23647 -9.19486,7.86001 -12.46501,3.09279 0,0 9.81042,-5.77161 9.81042,-5.77161 l 0,0 c 2.78399,3.97525 5.37144,-1.06173 -7.93793,6.8547 2.05879,-0.44882 4.06019,-9.08735 5.45009,-10.93197 2.97587,-6.19502 5.59289,-12.57093 7.88473,-19.04874 1.04715,-2.47861 3.26601,-6.69228 2.08955,-9.38738 -3.26693,-0.66556 -6.43796,0.85453 -9.31699,2.26946 -3.71379,1.84795 -7.54266,3.49159 -11.47192,4.82213 -2.51956,1.04028 -5.89875,3.29827 -8.43871,1.49645 -1.18978,-4.5094 10.26264,-7.9569 14.54975,-10.30372 3.14994,-1.53004 6.48308,-2.63911 9.85359,-3.57981 3.34063,-0.56426 6.56224,-1.79228 9.96006,-1.90391 2.40353,0.40657 6.18883,1.18899 5.08649,4.46891 -2.5511,2.88165 -6.35504,4.56512 -8.95788,7.4536 -3.26453,3.48231 -6.40835,7.07286 -9.42468,10.77304 -3.74045,4.36723 -7.92893,8.30002 -12.27821,12.05109 -5.74307,4.73551 -11.52525,9.39821 -17.39647,13.98439 -9.15373,6.80656 -18.42505,13.44664 -27.3876,20.51085 -12.07059,9.56393 -24.20805,19.04521 -36.16765,28.74774 -13.47261,11.28023 -27.63372,21.66679 -41.34247,32.65416 -14.8876,11.3126 -29.908,22.45078 -44.70595,33.88161 -12.62178,9.84364 -25.20319,19.75068 -38.10668,29.2226 -9.62773,7.37082 -19.08326,14.98105 -28.13836,23.04862 -6.91544,5.74632 -12.90742,12.36619 -18.48155,19.4185 0,0 -10.40419,4.44506 -10.40419,4.44506 z" />
    <path
       style="fill:#000000;fill-opacity:1;stroke:#000000;stroke-width:4.69999981;stroke-linecap:round;stroke-linejoin:round;stroke-miterlimit:4;stroke-opacity:1;stroke-dasharray:none;stroke-dashoffset:0"
       id="path2900"
       d="m 510.45067,512.8759 c 5.18818,-6.22383 12.80904,-14.8738 21.41736,-14.93579 4.37487,2.01107 3.33388,6.72215 1.71917,10.29365 -4.19936,7.7634 -12.29998,11.9555 -20.47908,14.86928 -4.51008,1.45489 -8.4345,0.79748 -12.2212,-1.92247 -4.27866,-4.25766 -4.92776,-10.56932 -5.54839,-16.2896 -0.39034,-5.49988 -0.83495,-11.01101 0.30933,-16.4361 1.54265,-5.76337 2.6422,-5.22415 11.73727,-7.16522 0.33565,-0.0716 0.0171,1.62316 -0.30873,3.67454 -0.92828,5.53185 -3.11614,10.76033 -5.42656,15.8391 -2.43592,5.65038 -4.96199,11.20176 -9.13021,15.78228 -4.05099,3.54113 -11.65042,10.76438 -16.21844,9.04602 -0.98736,-0.37142 -1.75971,-1.61304 -2.34743,-2.39072 0,0 9.75388,-5.80989 9.75388,-5.80989 l 0,0 c 0.46288,0.57727 0.86105,1.35702 1.72165,1.44792 0.44581,0.0471 1.692,-0.48283 1.32611,-0.22382 -15.36002,10.87303 -7.79884,4.77363 -4.64811,2.26836 4.39028,-4.33098 6.9013,-9.82396 9.29346,-15.44683 2.34576,-4.96026 4.52656,-10.11971 5.49681,-15.54239 0.11427,-0.61551 0.23469,-1.2299 0.34281,-1.84652 0.0742,-0.42337 -0.14444,-1.02185 0.20423,-1.27322 16.19488,-11.67565 9.82933,-7.99622 8.39966,-3.26838 -1.32069,5.30527 -0.8915,10.70602 -0.52172,16.12569 0.54295,5.36969 1.00216,11.47204 5.10283,15.41953 3.67729,2.39845 7.45011,2.56465 11.58547,1.03746 4.59356,-1.8472 3.40129,-1.49991 -5.2907,3.64526 -0.71191,0.42141 1.43121,-0.83984 2.08322,-1.34906 1.45181,-1.13385 2.22792,-2.12007 3.27492,-3.61734 0.43183,-0.61755 0.8073,-1.27266 1.21095,-1.90898 1.29503,-2.3944 3.42872,-7.17746 -0.5322,-8.20012 -4.35667,0.90369 -2.59255,0.70914 6.3575,-4.4355 0.678,-0.38973 -1.32477,0.84014 -1.9235,1.34323 -2.36971,1.9912 -4.44476,4.38995 -6.33617,6.82456 0,0 -10.40419,4.44507 -10.40419,4.44507 z" />
    <path
       style="fill:#000000;fill-opacity:1;stroke:#000000;stroke-width:4.69999981;stroke-linecap:round;stroke-linejoin:round;stroke-miterlimit:4;stroke-opacity:1;stroke-dasharray:none;stroke-dashoffset:0"
       id="path2902"
       d="m 492.6308,465.77717 c 7.90326,-1.12696 15.68094,-2.97939 23.56856,-4.25712 2.67791,-0.93153 5.77619,-0.26154 8.46604,-1.00461 0.35735,-0.0987 1.29227,-0.72729 0.96601,-0.55122 -2.99545,1.61656 -5.98254,3.24854 -8.97381,4.87281 0.17907,-0.28015 0.35815,-0.56031 0.53722,-0.84046 0,0 10.35936,-4.69068 10.35936,-4.69068 l 0,0 c -0.14194,0.36676 -0.28388,0.73352 -0.42581,1.10028 -12.11977,7.63929 -8.80656,6.48097 -19.9229,7.87146 -7.90519,1.27864 -15.6962,3.14855 -23.62301,4.27176 0,0 9.04834,-6.77222 9.04834,-6.77222 z" />
    <path
       style="fill:#000000;fill-opacity:1;stroke:#000000;stroke-width:4.69999981;stroke-linecap:round;stroke-linejoin:round;stroke-miterlimit:4;stroke-opacity:1;stroke-dasharray:none;stroke-dashoffset:0"
       id="path2904"
       d="m 526.77409,450.27957 c 4.38938,2.5632 10.73626,3.67559 12.27812,9.10497 -1.3578,8.32237 -11.80192,11.0704 -17.9987,14.19913 -0.73373,0.0529 -1.46745,0.1057 -2.20117,0.15854 0,0 9.08457,-6.74641 9.08457,-6.74641 l 0,0 c 0.69596,-0.097 1.39193,-0.19405 2.08789,-0.29108 -15.58705,10.15763 -2.53992,3.15323 -0.95924,-1.93594 -0.86289,-4.94657 -8.15045,-5.89771 -11.73848,-8.27341 0,0 9.44701,-6.2158 9.44701,-6.2158 z" />
    <path
       style="fill:#000000;fill-opacity:1;stroke:#000000;stroke-width:4.69999981;stroke-linecap:round;stroke-linejoin:round;stroke-miterlimit:4;stroke-opacity:1;stroke-dasharray:none;stroke-dashoffset:0"
       id="path2906"
       d="m 570.4105,391.99805 c -6.10138,-2.54771 -11.85427,-5.70751 -16.64921,-10.3007 -4.0533,-4.6491 -5.55601,-10.23169 -6.53487,-16.1695 -1.17509,-7.29254 0.41196,-14.28201 3.54194,-20.84592 3.22245,-7.71998 8.57548,-14.09464 14.58672,-19.78294 9.11355,-7.09815 19.05613,-13.653 30.24316,-16.86025 6.68659,-1.71179 13.43119,-2.03093 20.22882,-1.04171 6.00002,1.17205 10.3043,3.87998 13.85239,8.78037 3.31188,5.43948 3.5734,11.46707 3.04882,17.62798 -1.12386,7.8908 -4.16043,15.25206 -7.37096,22.48372 -3.31159,6.46633 -7.08654,12.72667 -12.29424,17.83386 -7.62277,5.75276 -15.92466,10.54672 -25.26604,12.62772 -4.77053,1.01453 -9.21051,-0.42743 -13.10293,-3.14756 -0.50123,-0.40098 -1.00247,-0.80195 -1.5037,-1.20292 0,0 9.59125,-6.03118 9.59125,-6.03118 l 0,0 c 0.48318,0.37855 0.96636,0.7571 1.44954,1.13566 3.82024,2.48578 8.0257,3.5298 12.5503,2.39937 4.29481,-1.04194 8.99005,-3.35732 7.86417,-2.55148 -13.76933,9.85529 -5.44805,2.58369 -2.00314,1.04931 5.39206,-4.8597 9.11122,-11.08926 12.5152,-17.44804 3.24258,-7.1061 6.25301,-14.37073 7.4971,-22.1307 0.57433,-5.89287 0.48163,-11.66432 -2.69224,-16.89733 -3.40501,-4.64058 -7.62136,-7.0505 -13.34188,-8.03029 -6.69988,-0.86655 -13.37197,-0.36902 -19.9115,1.4062 -3.54987,1.11419 -14.54238,6.62919 -0.88269,-1.10407 1.16268,-0.65824 -2.27504,1.40175 -3.40548,2.11393 -4.29578,2.70634 -2.63922,1.57839 -6.68305,4.72931 -6.0372,5.54308 -11.56938,11.72487 -14.73518,19.40469 -3.2337,6.31902 -4.93505,13.07472 -3.82745,20.21097 0.89953,5.70632 2.27878,11.06585 6.19198,15.52141 4.71719,4.45785 10.36551,7.54592 16.40672,9.86702 0,0 -9.36355,6.35307 -9.36355,6.35307 z" />
    <path
       style="fill:#000000;fill-opacity:1;stroke:#000000;stroke-width:4.69999981;stroke-linecap:round;stroke-linejoin:round;stroke-miterlimit:4;stroke-opacity:1;stroke-dasharray:none;stroke-dashoffset:0"
       id="path2908"
       d="m 629.25547,323.05094 c -7.26313,5.75318 -14.62148,11.37036 -21.69053,17.36561 -5.27788,4.53409 -10.4708,9.18078 -16.03812,13.36256 0,0 -10.51986,4.1751 -10.51986,4.1751 l 0,0 c 5.66469,-4.12092 10.90482,-8.76661 16.19866,-13.34364 7.01692,-5.99591 14.33294,-11.60079 21.54985,-17.34589 0,0 10.5,-4.21374 10.5,-4.21374 z" />
    <path
       style="fill:#000000;fill-opacity:1;stroke:#000000;stroke-width:4.69999981;stroke-linecap:round;stroke-linejoin:round;stroke-miterlimit:4;stroke-opacity:1;stroke-dasharray:none;stroke-dashoffset:0"
       id="path2910"
       d="m 609.54933,308.99132 c -4.66883,6.21683 -10.08114,11.7543 -15.51663,17.28322 -2.62254,2.56699 -5.40332,4.96213 -8.17498,7.36419 0,0 -10.43238,4.22994 -10.43238,4.22994 l 0,0 c 2.79328,-2.38588 5.58448,-4.77587 8.26007,-7.29481 5.37222,-5.51867 10.89292,-10.89354 15.45973,-17.13747 0,0 10.40419,-4.44507 10.40419,-4.44507 z" />
    <path
       style="fill:#000000;fill-opacity:1;stroke:#000000;stroke-width:4.69999981;stroke-linecap:round;stroke-linejoin:round;stroke-miterlimit:4;stroke-opacity:1;stroke-dasharray:none;stroke-dashoffset:0"
       id="path2916"
       d="m 281.27676,581.28807 c 2.64469,-5.47032 4.95306,-11.08251 7.52573,-16.58494 1.05444,-2.21553 1.67224,-4.58351 2.28251,-6.94675 0,0 10.20207,-4.88342 10.20207,-4.88342 l 0,0 c -0.6017,2.42288 -1.17545,4.86428 -2.21247,7.14948 -2.55284,5.47562 -4.85328,11.04514 -7.55574,16.45555 0,0 -10.2421,4.81008 -10.2421,4.81008 z" />
    <path
       style="fill:#000000;fill-opacity:1;stroke:#000000;stroke-width:4.69999981;stroke-linecap:round;stroke-linejoin:round;stroke-miterlimit:4;stroke-opacity:1;stroke-dasharray:none;stroke-dashoffset:0"
       id="path2918"
       d="m 307.61963,529.71913 c 4.07972,-6.9404 8.36913,-13.72127 13.31315,-20.0782 2.821,-3.83269 1.48997,-1.97244 4.00424,-5.57276 0,0 10.32724,-4.4931 10.32724,-4.4931 l 0,0 c -2.53449,3.64383 -1.19897,1.75926 -4.01501,5.64773 -4.98476,6.27622 -9.38061,12.9589 -13.27763,19.96699 0,0 -10.35199,4.52934 -10.35199,4.52934 z" />
    <path
       style="fill:#000000;fill-opacity:1;stroke:#000000;stroke-width:4.69999981;stroke-linecap:round;stroke-linejoin:round;stroke-miterlimit:4;stroke-opacity:1;stroke-dasharray:none;stroke-dashoffset:0"
       id="path2920"
       d="m 344.76249,475.43342 c 2.48869,-3.80156 5.07667,-7.5314 7.73633,-11.21473 0,0 10.33631,-4.47184 10.33631,-4.47184 l 0,0 c -2.67681,3.64832 -5.29321,7.33619 -7.72065,11.15722 0,0 -10.35199,4.52935 -10.35199,4.52935 z" />
    <path
       style="fill:#000000;fill-opacity:1;stroke:#000000;stroke-width:4.69999981;stroke-linecap:round;stroke-linejoin:round;stroke-miterlimit:4;stroke-opacity:1;stroke-dasharray:none;stroke-dashoffset:0"
       id="path2922"
       d="m 358.41962,429.8595 c 0.321,-0.94658 0.64201,-1.89316 0.96301,-2.83974 0,0 10.20313,-4.79177 10.20313,-4.79177 l 0,0 c -0.30801,0.94048 -0.61602,1.88095 -0.92404,2.82143 0,0 -10.2421,4.81008 -10.2421,4.81008 z" />
    <path
       style="fill:#000000;fill-opacity:1;stroke:#000000;stroke-width:4.69999981;stroke-linecap:round;stroke-linejoin:round;stroke-miterlimit:4;stroke-opacity:1;stroke-dasharray:none;stroke-dashoffset:0"
       id="path2924"
       d="m 370.47677,404.00484 c 4.9494,-7.17619 9.7489,-14.45767 14.51532,-21.75767 2.94752,-4.24294 5.20871,-8.8918 7.89069,-13.29811 0,0 10.37597,-4.58089 10.37597,-4.58089 l 0,0 c -2.77761,4.4022 -5.04306,9.09098 -8.00186,13.37777 -4.77357,7.26764 -9.55224,14.53178 -14.42813,21.72956 0,0 -10.35199,4.52934 -10.35199,4.52934 z" />
    <path
       style="fill:#000000;fill-opacity:1;stroke:#000000;stroke-width:4.69999981;stroke-linecap:round;stroke-linejoin:round;stroke-miterlimit:4;stroke-opacity:1;stroke-dasharray:none;stroke-dashoffset:0"
       id="path2926"
       d="m 401.58804,352.64232 c 1.92095,-3.79883 0.96141,-1.89132 2.87847,-5.72263 0,0 10.25872,-4.64136 10.25872,-4.64136 l 0,0 c -1.90848,3.81977 -0.96387,1.91888 -2.83412,5.70256 0,0 -10.30307,4.66143 -10.30307,4.66143 z" />
    <path
       style="fill:#000000;fill-opacity:1;stroke:#000000;stroke-width:4.69999981;stroke-linecap:round;stroke-linejoin:round;stroke-miterlimit:4;stroke-opacity:1;stroke-dasharray:none;stroke-dashoffset:0"
       id="path2928"
       d="m 335.34552,501.70815 c 6.71752,3.53551 13.34388,7.23243 18.93534,12.42387 2.95167,2.70237 4.40958,6.12417 5.05478,9.98301 0.17977,1.71098 0.19299,3.43479 0.12529,5.15233 -0.29575,4.17449 -10.16038,8.11627 -10.23425,3.17614 0,0 10.12372,-5.17288 10.12372,-5.17288 l 0,0 c 0.0337,4.26876 -10.56371,11.90323 -10.0867,7.11235 0.14318,-1.64798 0.1428,-3.30802 0.0245,-4.95762 -0.4875,-3.64988 -1.81208,-6.82144 -4.59046,-9.36971 -5.53973,-5.10997 -12.08999,-8.77209 -18.79927,-12.1317 0,0 9.44702,-6.21579 9.44702,-6.21579 z" />
    <path
       style="fill:#000000;fill-opacity:1;stroke:#000000;stroke-width:4.69999981;stroke-linecap:round;stroke-linejoin:round;stroke-miterlimit:4;stroke-opacity:1;stroke-dasharray:none;stroke-dashoffset:0"
       id="path2930"
       d="m 394.96976,460.1938 c -7.28381,4.80295 -14.98689,13.8562 -24.17377,13.05107 -3.59335,-1.80824 -4.04598,-5.46515 -4.38903,-9.09461 0.074,-4.29708 2.14513,-7.79997 4.63071,-11.14158 4.99242,-5.28235 11.20565,-9.2744 18.08208,-11.8009 4.2404,0.19475 7.55276,3.66709 9.86068,6.94527 2.29386,3.88473 3.68107,8.22903 4.81941,12.5739 1.07058,4.18416 1.31616,8.17675 -0.27888,12.21753 -1.60456,3.46107 -3.76662,6.50965 -6.44662,9.20711 -2.68929,2.67551 -6.0142,4.57455 -8.9634,6.92478 -3.73879,2.94446 -12.97987,11.9525 -17.37133,5.86551 -1.71657,-3.48894 -1.47318,-7.57882 -1.53308,-11.37409 -0.2087,-2.91478 0.32174,-5.79287 0.77483,-8.65589 0,0 10.12785,-4.95346 10.12785,-4.95346 l 0,0 c -0.48072,2.79658 -1.06995,5.60658 -0.84265,8.46367 0.0551,3.55179 -0.20807,7.4064 1.24583,10.72094 0.77672,0.97784 1.30377,1.16807 2.59462,0.86058 0.46108,-0.10983 1.74252,-0.7226 1.34275,-0.46796 -12.04107,7.66962 -10.07658,6.26163 -6.84525,3.81596 2.70822,-2.63219 6.31139,-4.21167 9.0092,-6.88298 2.73322,-2.57646 4.94061,-5.42673 6.60841,-8.80644 1.8675,-3.75949 1.62293,-7.52209 0.63188,-11.54846 -1.06376,-4.22704 -2.42958,-8.42551 -4.6155,-12.21405 -2.04795,-2.86156 -5.17828,-6.35814 -9.04003,-5.67432 -4.0835,1.78835 -2.91794,1.34358 6.85636,-4.28063 0.48511,-0.27914 -0.93217,0.6202 -1.38602,0.94773 -1.53547,1.10811 -2.73409,2.48385 -4.22463,3.64475 -2.4542,3.1049 -4.66729,6.30354 -4.9847,10.38063 0.23257,2.93753 0.26563,6.55178 3.51598,7.67947 3.95038,-0.26552 10.11231,-4.19753 -3.21258,3.2686 -6.29426,3.52676 14.10834,-8.01102 7.70687,-5.4584 0,0 10.50001,-4.21373 10.50001,-4.21373 z" />
    <path
       style="fill:#000000;fill-opacity:1;stroke:#000000;stroke-width:4.69999981;stroke-linecap:round;stroke-linejoin:round;stroke-miterlimit:4;stroke-opacity:1;stroke-dasharray:none;stroke-dashoffset:0"
       id="path2932"
       d="m 300.5273,545.84215 c 2.26582,3.48341 4.58869,6.92917 6.91371,10.37318 0,0 -9.74655,5.71118 -9.74655,5.71118 l 0,0 c -2.28487,-3.47084 -4.57222,-6.94035 -6.91622,-10.3717 0,0 9.74906,-5.71266 9.74906,-5.71266 z" />
    <path
       style="fill:#000000;fill-opacity:1;stroke:#000000;stroke-width:4.69999981;stroke-linecap:round;stroke-linejoin:round;stroke-miterlimit:4;stroke-opacity:1;stroke-dasharray:none;stroke-dashoffset:0"
       id="path2940"
       d="m 377.89458,342.09068 c 7.19163,-3.17213 14.21216,-6.70807 21.39284,-9.90765 4.35641,-1.67755 8.96665,-3.44226 13.68615,-2.71821 3.98525,1.61959 6.13573,5.10108 8.29017,8.58175 1.89284,3.35882 2.90974,7.07992 4.24528,10.67398 1.30257,3.18758 1.9253,6.56469 2.23639,9.97632 0.2154,3.04737 0.20269,6.10702 0.19694,9.16068 6.2e-4,0.98814 -0.0117,1.97639 0.0199,2.96388 0,0 -10.19173,5.15583 -10.19173,5.15583 l 0,0 c 0.0587,-0.98701 0.0484,-1.97765 0.055,-2.96698 0.004,-3.0257 0.0431,-6.05487 -0.14502,-9.0765 -0.26414,-3.31916 -0.80888,-6.61181 -2.07199,-9.71494 -1.31905,-3.52205 -2.30858,-7.16924 -4.13557,-10.47689 -1.98413,-3.17757 -3.89208,-6.55785 -7.73323,-7.7137 -4.63038,-0.23503 -9.03734,1.39947 -13.26511,3.14161 -7.18757,3.22012 -14.24184,6.72405 -21.41088,9.98467 0,0 8.83086,-7.06385 8.83086,-7.06385 z" />
    <path
       style="fill:#000000;fill-opacity:1;stroke:#000000;stroke-width:4.69999981;stroke-linecap:round;stroke-linejoin:round;stroke-miterlimit:4;stroke-opacity:1;stroke-dasharray:none;stroke-dashoffset:0"
       id="path2942"
       d="m 425.97688,310.97294 c -3.8657,7.16003 -10.0949,11.66165 -17.55625,14.61678 -5.52495,2.13662 -10.49738,1.30776 -15.87382,-0.57155 -4.39545,-1.99602 -8.05095,-4.94348 -10.93198,-8.79878 -2.23914,-3.81849 -2.64619,-8.19543 -2.86627,-12.51842 -0.48445,-6.09826 0.632,-11.9924 2.80847,-17.6652 2.49531,-6.96338 6.68795,-12.96659 11.75557,-18.27678 6.73086,-6.8523 15.24261,-11.39834 23.69806,-15.74523 8.47568,-3.79117 17.21136,-6.95271 26.20796,-9.24874 9.00456,-2.46968 18.14267,-2.08639 27.32543,-1.32777 8.22598,1.02723 16.25283,3.0506 23.72134,6.6607 6.3757,3.37217 11.41289,8.30879 15.06096,14.47961 2.77276,5.44536 3.30463,11.21289 2.58869,17.17473 -1.10486,7.27038 -5.58192,12.65838 -10.3892,17.88277 -5.6154,6.51617 -13.20186,10.28936 -20.88383,13.81623 -5.7516,2.92924 -12.15085,3.42472 -18.34541,4.71594 -6.43701,1.41523 -12.98966,2.08708 -19.55765,2.47935 -5.19445,0.26684 -10.39608,0.28237 -15.59583,0.2864 -4.05783,0.37429 -7.39598,-0.31225 -10.71376,-2.6226 0,0 2.39135,-1.52532 2.39135,-1.52532 l 0,0 c 3.28411,2.25793 6.62229,2.8297 10.60699,2.48772 5.19431,-0.007 10.39075,-0.0243 15.57954,-0.29525 6.56157,-0.40222 13.10607,-1.08968 19.53525,-2.51257 6.19466,-1.25286 12.56185,-1.83511 18.29933,-4.76141 6.17917,-2.83971 11.58623,-5.48722 16.09315,-10.98317 4.79391,-5.17644 9.31959,-10.49438 10.45268,-17.7188 0.73438,-5.90461 0.24716,-11.61075 -2.49809,-17.0139 -3.61712,-6.12833 -8.6299,-11.0141 -14.96803,-14.34249 -7.45282,-3.57161 -15.45506,-5.58452 -23.65496,-6.58164 -9.16665,-0.75045 -18.28637,-1.07967 -27.26729,1.4008 -8.98259,2.32317 -17.71665,5.47729 -26.1723,9.3003 -6.82086,3.51338 -13.55795,7.29527 -18.92586,12.91603 -5.08567,5.26067 -9.29048,11.23655 -11.79337,18.17206 -2.20275,5.62901 -3.32679,11.48508 -2.84646,17.55203 0.21073,4.26653 0.5829,8.59743 2.78647,12.37118 2.8531,3.8086 6.47733,6.71438 10.83714,8.66024 5.34371,1.84824 10.2903,2.56728 15.74882,0.41253 5.62791,-2.29967 9.86267,-6.27473 12.76739,-11.71042 0,0 2.57577,-1.16536 2.57577,-1.16536 z" />
    <path
       style="fill:#000000;fill-opacity:1;stroke:#000000;stroke-width:4.69999981;stroke-linecap:round;stroke-linejoin:round;stroke-miterlimit:4;stroke-opacity:1;stroke-dasharray:none;stroke-dashoffset:0"
       id="path2944"
       d="m 485.64123,265.27517 c -4.33932,6.45692 -9.15835,12.5557 -14.12761,18.53319 0,0 -2.59269,1.10159 -2.59269,1.10159 l 0,0 c 4.97796,-5.96103 9.80585,-12.04476 14.1323,-18.50245 0,0 2.588,-1.13233 2.588,-1.13233 z" />
    <path
       style="fill:#000000;fill-opacity:1;stroke:#000000;stroke-width:4.69999981;stroke-linecap:round;stroke-linejoin:round;stroke-miterlimit:4;stroke-opacity:1;stroke-dasharray:none;stroke-dashoffset:0"
       id="path2946"
       d="m 454.88245,262.38293 c -2.68906,7.75862 -6.30784,14.98856 -10.89393,21.78434 -3.24599,3.87914 -1.62239,2.07665 -4.84022,5.43486 0,0 -2.59733,1.08142 -2.59733,1.08142 l 0,0 c 3.23597,-3.33612 1.60277,-1.54664 4.87012,-5.3952 4.59813,-6.76322 8.23283,-13.9567 10.90083,-21.7029 0,0 2.56053,-1.20252 2.56053,-1.20252 z" />
    <path
       style="fill:#000000;fill-opacity:1;stroke:#000000;stroke-width:4.69999981;stroke-linecap:round;stroke-linejoin:round;stroke-miterlimit:4;stroke-opacity:1;stroke-dasharray:none;stroke-dashoffset:0"
       id="path2948"
       d="m 420.2573,274.16514 c -0.47373,1.10168 -0.94745,2.20337 -1.42118,3.30506 0,0 -2.55341,1.17336 -2.55341,1.17336 l 0,0 c 0.4698,-1.09988 0.93961,-2.19976 1.40941,-3.29964 0,0 2.56518,-1.17878 2.56518,-1.17878 z" />
    <path
       style="fill:#000000;fill-opacity:1;stroke:#000000;stroke-width:4.69999981;stroke-linecap:round;stroke-linejoin:round;stroke-miterlimit:4;stroke-opacity:1;stroke-dasharray:none;stroke-dashoffset:0"
       id="path2954"
       d="m 127.91721,902.47873 c -9.69155,2.6027 -18.89009,6.35702 -27.972266,10.56321 -4.436713,2.29823 -9.833298,4.26259 -11.565239,9.37917 0.602215,5.40735 7.226757,7.53542 11.511237,9.55849 7.869628,3.1 15.810398,5.96076 23.646598,9.14738 6.98099,2.68047 13.69318,5.98015 19.84647,10.23631 4.86934,3.87485 5.35686,8.73736 3.44333,14.314 -5.14604,8.72117 -14.18413,13.58476 -22.70549,18.43306 -12.89888,6.77376 -26.898102,10.61906 -41.308081,12.26602 -2.217101,0.13172 -4.434202,0.26345 -6.651303,0.39517 0,0 2.231223,-1.64155 2.231223,-1.64155 l 0,0 c 2.210703,-0.13334 4.421406,-0.26668 6.632109,-0.40002 14.397988,-1.68707 28.386002,-5.55812 41.258942,-12.36735 6.99373,-3.83515 13.73674,-8.5954 17.98837,-15.49066 1.95578,-5.45174 1.54248,-10.19515 -3.26331,-13.99391 -6.1441,-4.23323 -12.83685,-7.52342 -19.80023,-10.19351 -7.83938,-3.19423 -15.79588,-6.03104 -23.661899,-9.15565 -4.4678,-2.11145 -11.044494,-4.30075 -11.729735,-9.9003 2.034289,-6.81962 10.820558,-8.97406 16.313744,-12.32502 9.09678,-4.20676 18.32858,-7.91847 28.02357,-10.54802 0,0 -2.23804,1.72318 -2.23804,1.72318 z" />
    <path
       style="fill:#000000;fill-opacity:1;stroke:#000000;stroke-width:4.69999981;stroke-linecap:round;stroke-linejoin:round;stroke-miterlimit:4;stroke-opacity:1;stroke-dasharray:none;stroke-dashoffset:0"
       id="path2956"
       d="m 83.535412,888.67455 c 7.954942,-1.00686 16.007971,-1.37247 23.916688,-2.69422 5.75594,-0.82773 11.30805,-2.25338 16.82631,-4.04018 1.92656,-0.30762 3.57877,-1.22261 5.24029,-2.17383 0,0 -2.20604,1.78201 -2.20604,1.78201 l 0,0 c -1.67511,0.92174 -3.35868,1.78594 -5.26882,2.12441 -5.52004,1.77524 -11.08545,3.15969 -16.83615,3.9948 -7.928011,1.28201 -15.986583,1.69884 -23.958413,2.66799 0,0 2.286135,-1.66098 2.286135,-1.66098 z" />
    <path
       style="fill:#000000;fill-opacity:1;stroke:#000000;stroke-width:4.69999981;stroke-linecap:round;stroke-linejoin:round;stroke-miterlimit:4;stroke-opacity:1;stroke-dasharray:none;stroke-dashoffset:0"
       id="path2958"
       d="m 131.79245,863.68015 c 6.08263,1.76105 12.06448,3.78578 18.10512,5.68255 4.3483,1.84796 7.49262,2.78175 5.98368,8.03262 -2.36929,4.87155 -7.07174,8.06065 -11.34072,11.16238 -3.32902,2.46593 -6.9739,4.49628 -10.71189,6.27124 0,0 2.21597,-1.76612 2.21597,-1.76612 l 0,0 c 1.8071,-0.86943 3.42316,-1.43866 5.87813,-3.46892 4.2479,-3.07525 8.92875,-6.21458 11.39607,-10.98578 1.60092,-5.10193 -1.52051,-5.8509 -5.75152,-7.65881 -6.03908,-1.91281 -12.02937,-3.92015 -18.11572,-5.68089 0,0 2.34088,-1.58827 2.34088,-1.58827 z" />
  </g>
</svg>
