<?xml version="1.0" encoding="UTF-8" standalone="no"?>
<!-- Created with Inkscape (http://www.inkscape.org/) -->
<svg
   xmlns:dc="http://purl.org/dc/elements/1.1/"
   xmlns:cc="http://creativecommons.org/ns#"
   xmlns:rdf="http://www.w3.org/1999/02/22-rdf-syntax-ns#"
   xmlns:svg="http://www.w3.org/2000/svg"
   xmlns="http://www.w3.org/2000/svg"
   xmlns:sodipodi="http://sodipodi.sourceforge.net/DTD/sodipodi-0.dtd"
   xmlns:inkscape="http://www.inkscape.org/namespaces/inkscape"
   width="57.853176"
   height="74.735802"
   id="svg2806"
   sodipodi:version="0.32"
   inkscape:version="0.46+devel"
   sodipodi:docname="c22d3.svg"
   inkscape:output_extension="org.inkscape.output.svg.inkscape"
   version="1.0">
  <defs
     id="defs2808">
    <inkscape:perspective
       sodipodi:type="inkscape:persp3d"
       inkscape:vp_x="0 : 526.18109 : 1"
       inkscape:vp_y="0 : 1000 : 0"
       inkscape:vp_z="744.09448 : 526.18109 : 1"
       inkscape:persp3d-origin="372.04724 : 350.78739 : 1"
       id="perspective2814" />
  </defs>
  <sodipodi:namedview
     id="base"
     pagecolor="#ffffff"
     bordercolor="#666666"
     borderopacity="1.0"
     inkscape:pageopacity="0.0"
     inkscape:pageshadow="2"
     inkscape:zoom="0.35"
     inkscape:cx="-521.93706"
     inkscape:cy="-118.3882"
     inkscape:document-units="px"
     inkscape:current-layer="layer1"
     showgrid="false"
     inkscape:window-width="1280"
     inkscape:window-height="712"
     inkscape:window-x="-5"
     inkscape:window-y="-3" />
  <metadata
     id="metadata2811">
    <rdf:RDF>
      <cc:Work
         rdf:about="">
        <dc:format>image/svg+xml</dc:format>
        <dc:type
           rdf:resource="http://purl.org/dc/dcmitype/StillImage" />
        <dc:title></dc:title>
      </cc:Work>
    </rdf:RDF>
  </metadata>
  <g
     inkscape:label="Layer 1"
     inkscape:groupmode="layer"
     id="layer1"
     transform="translate(-896.93706,-339.23818)">
    <path
       style="fill:#000000;fill-opacity:1;stroke:#000000;stroke-width:4.69999981;stroke-linecap:round;stroke-linejoin:round;stroke-miterlimit:4;stroke-opacity:1;stroke-dasharray:none;stroke-dashoffset:0"
       id="path2820"
       d="m -194.99166,966.18039 c 7.68403,8.36512 18.48263,13.11917 28.94317,17.00383 18.33347,5.99493 37.48513,9.05499 56.45025,12.32896 26.05414,3.95333 52.20397,7.17822 78.333794,10.57572 35.1701353,4.0393 70.508254,6.4932 105.821055,8.9146 39.109651,2.0864 78.231801,3.998 117.379211,5.2255 39.83593,0.7357 79.65169,-1.084 119.3722,-3.947 41.43922,-2.9146 82.35895,-10.1618 122.93403,-18.80302 42.85165,-8.86867 84.57727,-21.87918 125.86642,-36.20019 42.89018,-14.66982 83.88584,-34.02097 123.78776,-55.38173 37.36547,-20.76853 71.1122,-46.96412 103.13038,-75.10203 34.06948,-30.85928 63.36832,-66.36586 91.33364,-102.70359 25.96577,-33.99906 47.83773,-70.68642 67.11593,-108.80025 11.35565,-23.45969 21.26023,-47.68837 28.12415,-72.86839 3.98311,-14.6119 5.44525,-23.46345 8.36695,-38.31984 7.56148,-40.07208 6.21669,-80.8217 2.18866,-121.16661 -4.05646,-33.27429 -12.37126,-65.96714 -24.74299,-97.12484 -2.46434,-6.20634 -5.2518,-12.27947 -7.87769,-18.41921 C 940.24414,246.87519 926.98114,223.24975 911.21895,201.31152 901.4597,187.72835 896.00746,181.68334 885.28387,168.85298 857.5486,136.72965 823.99528,110.88758 789.09164,87.129249 759.34239,67.82338 727.67296,51.440772 694.4115,39.064421 687.77542,36.595184 681.01266,34.480784 674.31323,32.188965 638.75874,20.854456 601.899,14.780609 564.66998,12.947586 556.74967,12.557618 548.81587,12.522601 540.88882,12.310109 491.36104,11.862306 442.7264,21.18887 394.82087,32.792623 355.7831,43.674718 317.37106,57.854739 281.56451,76.984439 c -7.0491,3.76599 -13.87489,7.935837 -20.81233,11.903755 -25.23929,15.814006 -49.30504,33.457856 -71.65309,53.160126 -15.46642,13.63535 -21.38861,19.933 -36.06615,34.48 -29.20913,29.99947 -55.07593,63.22459 -76.704712,99.08835 -4.276698,7.09141 -8.220041,14.37858 -12.330062,21.56787 -19.061434,35.82837 -33.208766,74.25978 -42.066683,113.8714 -1.690549,7.55995 -2.962714,15.20742 -4.444072,22.81113 -5.875569,35.94362 -8.4688086,72.5154 -5.053877,108.85663 0.637423,6.78338 1.748025,13.51394 2.622037,20.2709 5.375163,32.71617 16.880875,63.87138 32.67364,92.94758 3.194703,5.8818 6.719947,11.57796 10.079921,17.36693 22.44578,36.75486 51.552498,68.68459 81.920208,98.96953 33.02165,32.80356 70.40725,60.56375 109.29244,85.94167 26.97705,16.90594 54.89592,32.45494 83.80169,45.83393 18.11034,8.38235 27.00146,11.66968 45.56023,19.11886 47.39584,18.65068 96.29147,33.25788 145.50496,46.24247 48.58167,12.26206 97.75953,22.07543 147.30081,29.51796 44.67708,6.80227 89.66997,10.57197 134.78765,12.62737 38.57582,1.7643 77.19641,0.3047 115.6975,-2.249 30.35818,-2.0116 60.67107,-4.6334 90.76578,-9.1417 19.2563,-2.27499 37.3914,-8.575 55.0784,-16.20116 0,0 -6.4243,5.07688 -6.4243,5.07688 l 0,0 c -17.7038,7.52665 -35.8551,13.69568 -55.0844,15.94278 -30.06703,4.4344 -60.34744,7.0093 -90.66947,8.9888 -38.4829,2.489 -77.07984,3.9049 -115.63163,2.0935 -45.10325,-2.1033 -90.07922,-5.9302 -134.73918,-12.7594 -49.5392,-7.49962 -98.71917,-17.33333 -147.30232,-29.6171 -49.23468,-13.02158 -98.16131,-27.62936 -145.58045,-46.30411 -18.81233,-7.55223 -27.25263,-10.65461 -45.6063,-19.15392 -28.9341,-13.39893 -56.88998,-28.94642 -83.88217,-45.89476 C 203.67764,836.92004 166.25491,809.12284 133.18814,776.28856 102.75297,745.96886 73.58989,713.99688 51.081135,677.19588 47.709834,671.39628 44.171963,665.69035 40.967231,659.79707 25.117951,630.65135 13.588442,599.40398 8.1913009,566.60407 7.315128,559.82816 6.2023151,553.07866 5.5627823,546.27633 2.1392869,509.86265 4.7349174,473.22315 10.611126,437.20572 c 1.483203,-7.61989 2.758871,-15.28312 4.449609,-22.85967 8.852379,-39.66934 22.966228,-78.17513 42.01377,-114.07493 4.10649,-7.20059 8.046244,-14.49886 12.319468,-21.60177 21.605274,-35.91207 47.451207,-69.19154 76.644727,-99.24707 14.63397,-14.53962 20.5973,-20.89025 36.01639,-34.52569 26.07794,-23.06127 54.42968,-43.45033 84.61773,-60.797984 6.9472,-3.956951 13.78328,-8.115697 20.8416,-11.870851 C 323.3605,53.156986 361.78964,39.011682 400.85257,28.187949 448.81186,16.625156 497.4978,7.3514549 547.06744,7.8465987 c 20.93289,0.5733621 26.284,0.3599059 47.02188,2.3424253 29.42754,2.813241 58.41704,8.800858 86.61909,17.668677 6.70844,2.302316 13.48048,4.427013 20.12531,6.906949 33.29297,12.425377 64.98471,28.868629 94.76839,48.205015 34.95086,23.807775 68.54101,49.725325 96.31733,81.898045 10.71513,12.82228 16.23058,18.94715 25.98862,32.51895 15.79846,21.97303 29.08255,45.64319 40.4038,70.20025 2.63286,6.15139 5.42767,12.23596 7.8986,18.45417 12.40446,31.21649 20.74094,63.96508 24.82401,97.30352 4.06269,40.40334 5.4315,81.21377 -2.06214,121.35829 -2.89498,14.8117 -4.37881,23.8171 -8.32773,38.38923 -6.83629,25.22691 -16.71941,49.50701 -28.092,73.00126 -19.28851,38.16936 -41.16412,74.91406 -67.14417,108.97095 -27.96611,36.36698 -57.2438,71.92277 -91.28731,102.8449 -5.72491,5.04477 -11.3467,10.20904 -17.17473,15.13432 -30.60685,25.86587 -63.97769,48.28287 -99.02979,67.6636 -39.92895,21.32979 -80.95675,40.63264 -123.86102,55.28569 -41.32221,14.31479 -83.08771,27.2971 -125.96978,36.15906 -40.60638,8.6218 -81.55536,15.8431 -123.02285,18.7363 -39.7441,2.8586 -79.58469,4.6614 -119.44341,3.8996 -39.15689,-1.2348 -78.28839,-3.1537 -117.407754,-5.2404 -35.36581,-2.4141 -70.7594532,-4.8287 -105.983816,-8.8569 -26.183945,-3.3544 -52.385022,-6.5621 -78.48904,-10.508 -19.03434,-3.27245 -38.25844,-6.33329 -56.64863,-12.37846 -10.62231,-3.98385 -21.49985,-8.82556 -29.36453,-17.271 0,0 7.28257,-4.35265 7.28257,-4.35265 z" />
    <path
       style="fill:#000000;fill-opacity:1;stroke:#000000;stroke-width:4.69999981;stroke-linecap:round;stroke-linejoin:round;stroke-miterlimit:4;stroke-opacity:1;stroke-dasharray:none;stroke-dashoffset:0"
       id="path2822"
       d="m 836.5138,115.00647 c -6.03054,4.67437 -11.68561,9.79872 -17.25942,15.00104 -6.57012,5.64428 -13.12399,11.30177 -20.00313,16.56708 -5.26422,4.569 -11.26664,8.2153 -16.53932,12.75785 -2.9725,2.47317 -5.42286,5.40841 -8.44673,7.82462 -2.34679,1.66779 -4.28346,3.85816 -6.65012,5.48797 -4.86521,3.48348 -9.81333,6.34979 -15.10715,9.32728 -2.61369,1.12437 -6.1217,2.68227 5.02829,-2.92649 0.31065,-0.15626 -0.57133,0.41561 -0.77723,0.69583 -0.68838,0.93685 -0.16391,1.90115 0.23932,2.79328 2.03141,3.47706 4.92443,6.27096 7.48346,9.33908 3.81024,4.11906 8.44154,7.39346 13.11451,10.46054 5.36574,3.70006 11.28796,6.45482 16.8139,9.89056 5.31425,2.96765 10.36732,6.36015 15.47567,9.6601 4.58371,2.45784 8.65247,5.75547 13.16757,8.32511 4.03546,2.26172 7.77452,4.95926 11.58321,7.56327 3.67263,2.63444 7.16699,5.45417 10.92663,7.96086 3.56061,2.23825 6.77098,4.96311 9.86172,7.80037 1.82947,1.41426 4.65671,4.75656 7.22763,4.16911 -13.29185,8.85154 -2.2079,-0.35679 0.53882,-2.86121 4.79848,-4.77678 9.95478,-9.11514 15.19952,-13.38527 5.03177,-4.31749 9.90799,-8.85767 14.28734,-13.84366 3.68667,-3.78184 7.36709,-7.55316 10.81421,-11.55741 3.05313,-3.60536 6.30101,-7.03514 9.58673,-10.42725 2.79198,-3.35298 5.57543,-6.69821 8.81475,-9.63123 0.88911,-0.49505 2.3721,-2.71723 2.32305,-1.22972 -1.10609,-0.63766 -0.5415,-0.31558 -1.6941,-0.96567 0,0 7.14513,-4.66252 7.14513,-4.66252 l 0,0 c 1.08437,0.57723 0.55864,0.34179 1.56603,0.73078 2.09311,1.13704 -0.50359,1.98993 -1.45965,2.91853 -3.30942,2.86923 -6.176,6.14147 -8.87198,9.58562 -3.28594,3.37935 -6.54622,6.78574 -9.60157,10.37766 -3.44818,4.02258 -7.06614,7.86045 -10.84095,11.57488 -4.3558,5.04572 -9.2253,9.61466 -14.25048,13.98401 -5.22545,4.26519 -10.4428,8.50312 -15.17791,13.32467 -4.91412,4.5077 -8.57746,8.61752 -15.26845,11.09942 -2.953,-0.398 -5.4023,-2.84999 -7.55386,-4.73354 -3.07723,-2.79238 -6.25873,-5.48063 -9.78891,-7.69281 -3.76895,-2.49924 -7.22699,-5.3806 -10.93275,-7.97299 -3.77642,-2.61541 -7.53774,-5.2484 -11.54695,-7.50829 -4.48155,-2.64121 -8.59932,-5.87199 -13.16884,-8.37168 -5.11203,-3.28111 -10.14197,-6.69419 -15.45131,-9.6567 -5.55359,-3.40408 -11.46805,-6.19561 -16.83593,-9.90746 -4.72114,-3.14203 -9.43517,-6.43521 -13.26519,-10.65465 -2.62312,-3.11032 -5.56273,-5.96802 -7.63338,-9.50781 -2.86415,-5.96334 4.45937,-7.75542 9.56413,-10.07216 -12.54018,7.42925 -2.1669,1.22936 0.50676,-0.95192 2.5789,-1.26109 4.30789,-3.82234 6.71325,-5.38157 3.04795,-2.4255 5.60972,-5.21026 8.5046,-7.80097 5.16659,-4.69686 11.3414,-8.17598 16.56149,-12.83294 6.89159,-5.24334 13.45302,-10.87415 20.04252,-16.492 5.54746,-5.20348 11.16651,-10.34168 17.16126,-15.03178 0,0 7.87381,-3.15982 7.87381,-3.15982 z" />
    <path
       style="fill:#000000;fill-opacity:1;stroke:#000000;stroke-width:4.69999981;stroke-linecap:round;stroke-linejoin:round;stroke-miterlimit:4;stroke-opacity:1;stroke-dasharray:none;stroke-dashoffset:0"
       id="path2824"
       d="m 514.55739,489.54075 c -4.87063,1.01918 -10.0615,0.9278 -13.41317,-3.11409 -2.00882,-5.49395 1.20258,-10.30496 4.23926,-14.68161 5.68493,-6.2162 14.63964,-12.42029 22.69794,-14.19018 4.67943,-0.6481 8.2014,1.2909 10.83906,5.00678 2.17107,3.82727 0.0137,7.12565 -2.73465,9.9085 -4.90695,3.7683 -11.32126,8.41684 -17.95395,7.58108 -3.55283,-1.62909 -4.32506,-4.18495 -2.69933,-7.58589 3.39816,-3.8533 9.73163,-9.86442 14.63172,-6.2892 2.52003,2.43846 3.95344,5.17754 3.74824,8.69315 -1.8571,4.49171 -8.2937,10.24711 -12.79531,6.02654 -2.0513,-2.89653 -1.18468,-5.62629 0.40459,-8.48931 3.16521,-3.75008 11.02074,-10.59433 13.76584,-4.30568 0.76229,3.22065 -1.32717,6.13942 -3.44124,8.35904 -4.91476,3.13316 -10.67192,7.74063 -16.90991,6.53178 -3.70572,-2.03386 -3.14947,-5.56706 -1.04507,-8.58422 4.24162,-4.26289 10.48288,-9.00189 15.84179,-5.00848 2.63137,3.19092 0.91569,6.38707 -1.41723,9.07337 -4.7989,3.70438 -10.12586,8.22349 -16.35877,6.79614 -3.46364,-1.96565 -3.77576,-5.50534 -3.35856,-9.0821 1.16788,-4.94271 4.56113,-8.84589 8.77899,-11.49822 6.4759,-3.89541 12.53246,-8.19742 19.12952,-3.21074 3.0805,3.43961 4.02488,7.61293 3.49996,12.08519 -1.99526,6.7358 -8.94032,10.19158 -15.35485,12.09462 -4.53715,0.25529 -6.90108,-2.42997 -8.85277,-6.18797 -2.07379,-4.97057 -2.09666,-10.22438 0.36716,-15.01682 3.91,-4.91626 9.86003,-10.47086 15.90887,-6.53408 3.07018,3.44508 2.99774,8.05423 1.96975,12.27988 -1.43199,6.00703 -5.0591,10.46891 -9.75107,14.26737 -4.58028,2.65836 -12.11304,10.57767 -15.75804,3.81473 -1.54764,-3.89564 1.83248,-7.202 4.3138,-9.81834 4.94681,-3.38448 10.97848,-9.49914 17.01486,-9.71936 2.57734,0.33579 0.89069,3.32089 0.0472,4.5892 0,0 -7.81832,3.38506 -7.81832,3.38506 l 0,0 c 0.43308,-0.54898 2.84337,-3.07075 0.9224,-2.8925 -3.33648,0.5765 -1.16693,0.33331 4.91056,-3.5126 0.55619,-0.35197 -1.13819,0.66176 -1.69699,1.00956 -1.93173,1.20234 -3.62448,2.67452 -5.54573,3.89129 -2.27035,2.19305 -5.91136,5.35229 -4.75449,8.83142 0.50717,0.95957 1.05704,1.8615 2.33114,1.81095 0.49635,-0.0197 1.84834,-0.64235 1.44941,-0.34636 -1.7498,1.29826 -8.92469,5.22712 -3.27543,2.10404 4.72222,-3.6161 8.51356,-7.82677 9.97175,-13.76753 1.08636,-3.7943 1.39038,-8.18053 -1.48367,-11.30901 -0.8475,-0.48572 -1.48448,-0.99668 -2.52684,-0.99683 -0.50504,-7e-5 -1.88998,0.6195 -1.47993,0.32467 11.16153,-8.025 4.85923,-2.96764 2.99235,-0.86883 -2.71779,4.41587 -2.67772,9.50538 -0.74412,14.26578 1.7998,3.46552 4.00938,5.87985 8.20553,5.18893 3.64214,-1.26552 2.47988,-0.99993 -3.79601,2.81661 -0.52701,0.32049 1.07699,-0.61486 1.55009,-1.01064 1.54591,-1.29326 2.68964,-3.01946 3.26614,-4.93921 0.63251,-4.16568 -0.0963,-8.08907 -3.0524,-11.28832 -6.38469,-4.41826 -14.26332,2.14376 -4.04609,-4.38353 -4.25716,2.31353 -7.72257,6.05206 -9.08083,10.78436 -0.42982,3.07377 -0.5593,6.44919 2.72954,7.97011 1.1399,0.18472 1.71395,0.37537 2.88719,0.15891 0.49596,-0.0915 1.84829,-0.76499 1.43722,-0.4728 -10.81072,7.68424 -5.40606,3.03252 -2.78573,1.67744 2.06577,-2.17335 4.49288,-4.90249 2.06897,-7.79275 -1.30713,-0.87691 -2.29155,-1.4017 -3.92894,-1.00693 -0.56525,0.13628 -2.10898,0.9533 -1.62785,0.62681 9.272,-6.29186 6.9512,-4.4258 4.72044,-2.5264 -2.01408,2.21208 -3.32486,5.50619 0.18051,7.02295 1.61949,0.13738 3.02239,-0.0366 4.59537,-0.4804 0.55794,-0.15742 2.12409,-0.8794 1.65251,-0.5422 -2.56001,1.8305 -8.73294,5.04555 -4.15659,2.63275 2.05761,-1.78746 4.28149,-4.5402 3.86352,-7.43173 -0.25553,-0.68494 -0.21076,-1.05583 -0.99123,-1.31642 -0.37722,-0.12596 -1.48932,0.10325 -1.18349,-0.15097 10.51343,-8.73927 6.06412,-3.58337 3.62257,-1.84733 -1.4983,2.44158 -2.80009,4.81727 -0.93313,7.447 0.25303,0.20986 0.4715,0.47034 0.7591,0.62958 0.26209,0.14512 1.09485,0.082 0.85848,0.26606 -11.75175,9.15268 -5.33196,3.84799 -3.68444,1.37611 0.37374,-3.21984 -0.8972,-5.71075 -3.3039,-7.88284 -1.65089,-0.87984 -3.25615,-0.17732 -3.19748,-0.21898 10.87677,-7.72288 5.6969,-3.45357 3.49952,-1.59346 -1.61739,2.79186 -1.5815,4.92684 1.85936,6.13489 1.86266,0.0608 3.48066,-0.20753 5.25677,-0.81189 0.64188,-0.21842 2.44811,-1.133 1.89357,-0.74287 -1.2291,0.86468 -8.73592,5.42671 -3.96744,2.14119 2.60932,-2.28432 5.2004,-5.29759 3.26431,-8.81377 -2.49609,-3.50524 -5.91196,-4.9916 -10.24649,-4.18445 -4.74855,1.30707 -1.9249,0.7934 1.98,-2.18403 0.84496,-0.64426 -1.87026,1.01313 -2.76468,1.58675 -1.00011,0.6414 -4.27474,3.04674 -5.16544,3.86387 -0.81695,0.74947 -1.52035,1.61399 -2.28052,2.42099 -2.88641,4.00624 -6.23512,8.4673 -4.69476,13.66256 3.24776,3.75815 8.42352,3.29576 12.91402,2.39168 0,0 -6.78405,5.10218 -6.78405,5.10218 z" />
    <path
       style="fill:#000000;fill-opacity:1;stroke:#000000;stroke-width:4.69999981;stroke-linecap:round;stroke-linejoin:round;stroke-miterlimit:4;stroke-opacity:1;stroke-dasharray:none;stroke-dashoffset:0"
       id="path2826"
       d="m 882.22809,157.86361 c -3.17606,2.53264 -1.58375,1.26099 -4.77691,3.81498 0,0 -7.84098,3.14665 -7.84098,3.14665 l 0,0 c 3.18273,-2.54672 1.60139,-1.27943 4.74408,-3.80181 0,0 7.87381,-3.15982 7.87381,-3.15982 z" />
    <path
       style="fill:#000000;fill-opacity:1;stroke:#000000;stroke-width:4.69999981;stroke-linecap:round;stroke-linejoin:round;stroke-miterlimit:4;stroke-opacity:1;stroke-dasharray:none;stroke-dashoffset:0"
       id="path2828"
       d="m 770.79952,249.29218 c -2.6259,2.05199 -5.17842,4.19495 -7.73565,6.33108 0,0 -7.82218,3.15881 -7.82218,3.15881 l 0,0 c 2.54465,-2.12997 5.07634,-4.27692 7.68401,-6.33006 0,0 7.87382,-3.15983 7.87382,-3.15983 z" />
    <path
       style="fill:#000000;fill-opacity:1;stroke:#000000;stroke-width:4.69999981;stroke-linecap:round;stroke-linejoin:round;stroke-miterlimit:4;stroke-opacity:1;stroke-dasharray:none;stroke-dashoffset:0"
       id="path2830"
       d="m 853.65666,172.14933 c -5.23822,5.20128 -10.83686,9.9985 -16.42522,14.81578 -6.47007,4.95816 -13.23357,9.90959 -21.01531,12.6032 -0.54733,0.15958 -1.09465,0.31917 -1.64197,0.47875 0,0 6.72985,-5.19854 6.72985,-5.19854 l 0,0 c 0.53398,-0.16784 1.06796,-0.33568 1.60194,-0.50352 4.07826,-1.52976 1.80242,-0.82505 -3.08697,2.43071 -0.70602,0.47013 1.49102,-0.81252 2.20334,-1.27304 2.55499,-1.65183 4.89234,-3.6368 7.39211,-5.3669 5.57592,-4.8125 11.26998,-9.49493 16.36842,-14.82662 0,0 7.87381,-3.15982 7.87381,-3.15982 z" />
    <path
       style="fill:#000000;fill-opacity:1;stroke:#000000;stroke-width:4.69999981;stroke-linecap:round;stroke-linejoin:round;stroke-miterlimit:4;stroke-opacity:1;stroke-dasharray:none;stroke-dashoffset:0"
       id="path2832"
       d="m 802.22809,220.72075 c -5.13513,4.42048 -10.51581,8.52682 -15.91333,12.61838 0,0 -7.82076,3.11379 -7.82076,3.11379 l 0,0 c 5.38869,-4.06507 10.79189,-8.1071 15.86028,-12.57234 0,0 7.87381,-3.15983 7.87381,-3.15983 z" />
    <path
       style="fill:#000000;fill-opacity:1;stroke:#000000;stroke-width:4.69999981;stroke-linecap:round;stroke-linejoin:round;stroke-miterlimit:4;stroke-opacity:1;stroke-dasharray:none;stroke-dashoffset:0"
       id="path2834"
       d="m 742.51428,267.00026 c -4.92726,7.28787 -11.21299,13.51686 -17.36065,19.76254 -2.77932,2.63894 -5.75743,5.05168 -8.72618,7.47027 0,0 -7.82694,3.14632 -7.82694,3.14632 l 0,0 c 2.98617,-2.40264 5.97208,-4.80891 8.80025,-7.39901 6.12496,-6.19681 12.43257,-12.35316 17.35085,-19.58369 0,0 7.76267,-3.39643 7.76267,-3.39643 z" />
    <path
       style="fill:#000000;fill-opacity:1;stroke:#000000;stroke-width:4.69999981;stroke-linecap:round;stroke-linejoin:round;stroke-miterlimit:4;stroke-opacity:1;stroke-dasharray:none;stroke-dashoffset:0"
       id="path2836"
       d="m 676.5138,323.5779 c -4.67607,3.86839 -9.26737,7.81159 -14.17769,11.38249 0,0 -7.84998,3.10418 -7.84998,3.10418 l 0,0 c 4.93216,-3.5167 9.54109,-7.40353 14.15386,-11.32685 0,0 7.87381,-3.15982 7.87381,-3.15982 z" />
    <path
       style="fill:#000000;fill-opacity:1;stroke:#000000;stroke-width:4.69999981;stroke-linecap:round;stroke-linejoin:round;stroke-miterlimit:4;stroke-opacity:1;stroke-dasharray:none;stroke-dashoffset:0"
       id="path2838"
       d="m 622.22809,369.29218 c -5.02936,4.93517 -10.76736,9.03019 -16.07628,13.63873 0,0 -7.83136,3.18162 -7.83136,3.18162 l 0,0 c 5.28366,-4.63265 11.08852,-8.64108 16.03383,-13.66052 0,0 7.87381,-3.15983 7.87381,-3.15983 z" />
    <path
       style="fill:#000000;fill-opacity:1;stroke:#000000;stroke-width:4.69999981;stroke-linecap:round;stroke-linejoin:round;stroke-miterlimit:4;stroke-opacity:1;stroke-dasharray:none;stroke-dashoffset:0"
       id="path2840"
       d="m 573.63473,415.30651 c -5.37405,4.68741 -10.40799,9.74601 -15.83718,14.37035 -0.56486,0.46099 -1.12971,0.92198 -1.69456,1.38296 0,0 -7.87221,3.16298 -7.87221,3.16298 l 0,0 c 0.57469,-0.45844 1.14938,-0.91688 1.72407,-1.37532 5.47051,-4.56201 10.46186,-9.64274 15.84993,-14.2977 0,0 7.82995,-3.24327 7.82995,-3.24327 z" />
    <path
       style="fill:#000000;fill-opacity:1;stroke:#000000;stroke-width:4.69999981;stroke-linecap:round;stroke-linejoin:round;stroke-miterlimit:4;stroke-opacity:1;stroke-dasharray:none;stroke-dashoffset:0"
       id="path2842"
       d="m 708.55203,252.665 c -4.27098,6.97802 -8.67483,13.83709 -12.65386,20.99931 -3.89419,6.18246 -7.29947,12.59922 -10.39301,19.20742 -2.32855,4.22803 -3.09473,8.99215 -4.58245,13.50079 -1.11835,2.72574 -2.04427,5.51092 -2.5434,8.41717 0.25994,3.00168 3.74573,1.84519 5.81144,1.59682 3.46422,-1.29132 6.89425,-2.51547 10.2692,-4.01422 3.87213,-1.17511 7.47395,-3.01725 11.35542,-4.16452 3.32142,-1.85958 7.21724,-2.38008 10.59253,-4.01591 2.56592,-1.26083 5.1363,-2.29369 7.97692,-2.66967 3.1542,-0.36194 6.12707,-1.68641 9.23705,-2.41336 2.90833,-0.5521 5.86827,-0.63016 8.81843,-0.68686 8.75075,-1.36377 -6.2046,7.6789 -3.43209,2.51702 0.0402,-0.10523 0.0805,-0.21046 0.12071,-0.31569 0,0 7.72113,-3.68665 7.72113,-3.68665 l 0,0 c -0.025,0.1422 -0.05,0.28441 -0.075,0.42662 -1.43913,4.366 -6.89239,6.39532 -11.214,6.07946 -2.91673,0.0699 -5.84639,0.19338 -8.70489,0.83058 -3.102,0.77137 -6.08157,2.08289 -9.28299,2.36534 -2.76451,0.52395 -5.29316,1.6427 -7.83468,2.83129 -3.51704,1.37398 -7.1992,2.33827 -10.64079,3.93488 -3.82661,1.24956 -7.47786,2.96068 -11.29374,4.2428 -3.38518,1.51024 -6.88693,2.77806 -10.44203,3.81464 -2.82066,0.27718 -6.12265,0.71037 -6.63403,-2.92091 0.41156,-2.96716 1.33972,-5.81335 2.49262,-8.5728 1.72562,-4.43467 2.14587,-9.39232 4.60288,-13.59889 3.12269,-6.61709 6.41565,-13.1164 10.40185,-19.27449 3.97363,-7.13406 8.25534,-14.03545 12.60067,-20.93465 0,0 7.72607,-3.49552 7.72607,-3.49552 z" />
    <path
       style="fill:#000000;fill-opacity:1;stroke:#000000;stroke-width:4.69999981;stroke-linecap:round;stroke-linejoin:round;stroke-miterlimit:4;stroke-opacity:1;stroke-dasharray:none;stroke-dashoffset:0"
       id="path2844"
       d="m 681.62318,395.15779 c -1.57264,-7.78701 -0.93234,-15.70422 -0.48308,-23.56571 0.22373,-7.31001 0.85843,-14.64439 2.76353,-21.72337 1.09091,-2.3394 2.437,-8.73459 4.72464,-10.23205 2.64974,-1.73448 5.46128,-3.20819 8.19193,-4.81228 3.26747,1.44814 4.05091,6.40091 5.35757,9.46572 2.11756,5.48789 3.78944,11.16773 5.31052,16.85219 1.2403,5.00028 1.70225,10.12979 1.94885,15.25991 0.0557,3.86722 3.57688,3.98045 -6.01188,4.8105 -0.681,0.059 0.36889,-1.31641 0.54676,-1.97641 0.23808,-0.88343 0.46739,-1.7692 0.70109,-2.6538 1.52105,-8.42483 3.28586,-16.79132 5.25221,-25.12622 1.10194,-5.43762 2.92842,-10.70311 5.21777,-15.74889 0.278,-0.83756 0.98368,-1.53289 1.07216,-2.4096 0.0331,-1.08248 0.0234,-0.52855 0.0272,-1.66182 0,0 7.60588,-3.87615 7.60588,-3.87615 l 0,0 c 0.006,1.1514 0.003,0.58489 0.009,1.69954 -0.0234,1.15615 -0.28012,1.69845 -0.96054,2.71641 -2.41196,4.97867 -4.29132,10.22752 -5.41725,15.64954 -1.96938,8.32366 -3.78385,16.66938 -5.17091,25.10924 -0.22704,0.87892 -0.46437,1.75525 -0.68112,2.63677 -0.1708,0.69465 0.0425,1.60432 -0.48143,2.09132 -4.95564,4.60598 -9.10897,9.22028 -9.25487,2.62611 -0.20197,-5.07878 -0.62918,-10.1605 -1.83209,-15.11462 -1.49374,-5.64886 -3.17093,-11.28523 -5.26171,-16.73776 -0.95672,-2.2038 -1.99766,-7.90748 -4.6366,-8.28234 2.10156,-1.28741 4.13447,-2.69425 6.30468,-3.86223 0.36294,-0.19534 -0.59756,0.57605 -0.83051,0.91608 -1.86284,2.71908 -3.07841,5.93145 -4.09845,9.03282 -2.07185,6.98554 -2.62713,14.32181 -2.87766,21.57544 -0.46656,7.79184 -1.18732,15.65382 0.46273,23.36357 0,0 -7.49868,3.97809 -7.49868,3.97809 z" />
    <path
       style="fill:#000000;fill-opacity:1;stroke:#000000;stroke-width:4.69999981;stroke-linecap:round;stroke-linejoin:round;stroke-miterlimit:4;stroke-opacity:1;stroke-dasharray:none;stroke-dashoffset:0"
       id="path2846"
       d="m 872.04265,158.2629 c -1.08647,5.86527 -1.74681,11.79669 -2.21615,17.73971 -0.2743,3.64768 -0.32036,7.30569 -0.3434,10.96173 0.13283,3.70983 0.0779,7.29625 -0.76213,10.91584 -1.26175,4.89511 -1.64073,9.93811 -1.90011,14.96699 0.1968,5.78571 -1.05006,11.42267 -1.90966,17.1065 -0.41414,5.90653 -1.38302,11.6947 -2.37916,17.52242 -1.03169,6.37906 -1.35276,12.8368 -1.54029,19.28626 -0.0366,5.89847 -1.43026,11.67677 -2.14915,17.51624 -0.56222,6.30877 -0.6353,12.59651 -1.57947,18.8669 -1.06892,6.0151 -1.6001,12.09496 -1.88602,18.19113 -0.88046,5.62418 -1.91201,11.20885 -2.51486,16.87382 -0.29787,4.27831 -1.77391,8.34091 -2.55956,12.54735 -0.48458,3.57032 -1.0617,7.22191 -0.49784,10.80533 0.793,3.19524 1.55275,6.39459 2.19521,9.6244 0.17128,0.23668 0.26409,2.60009 0.4401,1.62677 2.90162,-0.10345 1.33404,-0.10969 -6.2595,3.41337 -0.62863,0.29166 0.92733,-1.0412 1.28252,-1.63624 0,0 7.79569,-3.53301 7.79569,-3.53301 l 0,0 c -1.46754,3.59685 -6.26771,7.14635 -9.83614,6.65301 -0.85785,-0.70639 -0.78113,-1.38905 -0.94737,-2.50843 -0.60002,-3.24657 -1.34142,-6.45791 -2.17543,-9.65207 -0.6894,-3.66026 -0.0961,-7.409 0.36737,-11.07716 0.77127,-4.20256 2.20198,-8.25544 2.60685,-12.49855 0.61067,-5.65215 1.54596,-11.24099 2.5519,-16.83449 0.27277,-6.12473 0.77748,-12.23685 1.86042,-18.27878 0.97676,-6.26135 1.07381,-12.52595 1.57573,-18.83524 0.69285,-5.82441 2.09925,-11.57779 2.18995,-17.4498 0.18168,-6.48389 0.496,-12.97511 1.49556,-19.39324 0.95134,-5.82818 2.03754,-11.59206 2.37302,-17.50334 0.83758,-5.66292 2.16275,-11.26595 1.94214,-17.02907 0.23965,-5.06627 0.57631,-10.15315 1.80523,-15.09387 0.86714,-3.56914 1.02722,-7.05945 0.83942,-10.73688 0.006,-3.67973 0.0621,-7.3605 0.33744,-11.0317 0.49362,-5.95783 1.14542,-11.90522 2.17172,-17.7976 0,0 7.62597,-3.7283 7.62597,-3.7283 z" />
    <path
       style="fill:#000000;fill-opacity:1;stroke:#000000;stroke-width:4.69999981;stroke-linecap:round;stroke-linejoin:round;stroke-miterlimit:4;stroke-opacity:1;stroke-dasharray:none;stroke-dashoffset:0"
       id="path2848"
       d="m 830.42418,355.17195 c 3.18946,6.7332 4.95135,13.98035 7.40571,20.98659 1.11177,4.20702 2.58422,8.25143 4.60549,12.10359 0.28393,0.50561 0.86006,1.9519 1.77826,1.62015 0.19207,-0.0694 0.57355,-0.5628 0.39064,-0.47197 -2.19998,1.09242 -4.32362,2.33226 -6.48543,3.49839 3.01496,-2.92146 4.99658,-6.65686 7.09669,-10.24106 2.23434,-4.42509 4.55467,-8.80148 6.87972,-13.17931 1.18298,-2.15751 2.41069,-4.29068 3.68973,-6.39269 4.10105,-2.70707 5.71992,-4.49529 9.47245,-4.84167 0,0 -6.84283,5.12541 -6.84283,5.12541 l 0,0 c -2.96467,0.61103 -5.54394,2.61068 5.19562,-3.73504 -1.33352,2.07873 -2.56797,4.21966 -3.77926,6.37124 -2.37042,4.3658 -4.67895,8.76292 -6.88473,13.21658 -2.11817,3.6059 -4.0371,7.3821 -6.93749,10.44278 -4.15914,2.56955 -8.28813,8.04011 -10.97217,2.81321 -1.99368,-3.91279 -3.51371,-7.98631 -4.59666,-12.2467 -2.41679,-6.9788 -4.12698,-14.21088 -7.38495,-20.87359 0,0 7.36921,-4.19591 7.36921,-4.19591 z" />
    <path
       style="fill:#000000;fill-opacity:1;stroke:#000000;stroke-width:4.69999981;stroke-linecap:round;stroke-linejoin:round;stroke-miterlimit:4;stroke-opacity:1;stroke-dasharray:none;stroke-dashoffset:0"
       id="path2850"
       d="m 812.34754,421.40193 c -0.18154,8.42704 0.28362,16.87001 -0.35863,25.27835 -0.30742,6.07057 -1.86087,11.8549 -3.82571,17.56437 -1.40453,3.93341 -1.68084,3.76786 -8.82504,4.52471 -0.73958,0.0784 0.35649,-6.38448 0.36618,-6.44361 0.79629,-6.46956 3.32506,-12.49919 5.32431,-18.64731 1.79223,-4.55999 3.26637,-9.7839 7.2344,-12.95832 10.06399,-5.77293 10.56289,-6.47456 14.40949,2.53955 1.86369,5.30607 2.67571,10.9486 2.35535,16.55278 -0.84006,5.1478 -0.96881,10.46552 -2.77202,15.39687 -1.68137,3.4674 -2.87796,3.65783 -8.82029,3.76653 -0.42263,0.008 1.41105,-6.15835 1.4893,-6.40523 2.01949,-6.37502 4.80172,-12.37088 8.37683,-18.01262 3.00567,-4.2217 6.18681,-8.36707 10.35366,-11.49471 9.91236,-5.82703 10.76729,-6.74339 11.67587,2.9911 0.17806,6.35402 -0.83408,12.8036 -2.17174,19.01182 -1.11651,4.39195 -2.17459,8.79397 -2.99581,13.2514 -0.63415,-0.13018 0.12007,0.74806 -0.14902,0.84449 -9.07376,3.25168 -7.89302,3.37625 -5.45971,-1.48519 1.0073,-2.18636 2.66009,-3.78873 4.46617,-5.31239 0,0 7.88703,-3.1702 7.88703,-3.1702 l 0,0 c -1.83261,1.42107 -3.57925,2.83562 -4.59204,4.9912 -3.51702,6.33304 0.86613,2.25653 -10.17715,8.34317 -0.17646,0.0973 1.77991,-0.0646 0.36191,-0.48414 0.85549,-4.47486 1.89517,-8.90524 3.0539,-13.31123 1.40526,-6.10329 2.36245,-12.50213 2.25565,-18.76108 -0.15488,-1.77245 -0.14739,-3.87143 -0.93515,-5.52494 -0.12985,-0.27254 -0.30071,-0.56054 -0.5636,-0.70895 -0.23536,-0.13286 -1.02702,0.0931 -0.80816,-0.0654 1.91973,-1.39095 4.0351,-2.48965 6.05265,-3.73447 -4.27932,2.96246 -7.47679,7.0366 -10.52225,11.22208 -3.63542,5.54802 -6.45633,11.45957 -8.44389,17.7981 -0.0287,0.0896 -1.32077,4.09056 -1.37979,4.36129 -0.12702,0.58261 0.25433,1.38951 -0.19815,1.77788 -15.00607,12.88006 -8.03687,6.01351 -6.46812,3.68206 2.0431,-4.79324 2.00086,-10.10456 2.92317,-15.17946 0.43375,-5.46927 -0.40512,-10.99999 -2.18501,-16.19105 -0.72033,-1.6831 -1.45966,-3.90707 -2.74497,-5.28625 -0.27953,-0.29994 -0.63117,-0.55613 -1.01916,-0.68865 -0.38815,-0.13257 -1.54512,0.18123 -1.22797,-0.0789 1.79979,-1.47603 3.92844,-2.4978 5.89265,-3.7467 -4.34573,2.53114 -5.66558,8.12876 -7.51524,12.47283 -1.95611,6.12284 -4.57473,12.0888 -5.3587,18.52417 -0.24662,1.4962 -0.66684,2.97878 -0.70132,4.49477 -0.0119,0.52299 0.57825,1.20179 0.19447,1.55728 -11.77182,10.90424 -7.52398,6.35067 -6.33567,3.18534 2.0395,-5.64785 3.68221,-11.36846 4.0042,-17.4088 0.72537,-8.37047 0.22668,-16.78977 0.3249,-25.18448 0,0 7.55222,-3.84805 7.55222,-3.84805 z" />
    <path
       style="fill:#000000;fill-opacity:1;stroke:#000000;stroke-width:4.69999981;stroke-linecap:round;stroke-linejoin:round;stroke-miterlimit:4;stroke-opacity:1;stroke-dasharray:none;stroke-dashoffset:0"
       id="path2852"
       d="m 877.12346,444.09358 c -2.63513,5.67137 -5.616,11.41804 -5.05172,17.82361 0.94949,4.42976 2.61549,3.91797 5.92328,2.31251 -11.11005,6.59177 -4.93495,2.88153 -2.98751,0.0195 1.32499,-1.94728 2.44914,-4.13739 3.60547,-6.18984 3.60738,-7.43721 3.36256,-6.3299 12.52274,-9.85002 2.65727,2.91052 3.65024,7.01019 5.22989,10.56603 2.20954,4.93299 3.28364,10.2394 4.92432,15.36898 1.36952,4.20502 2.01643,8.55307 2.34116,12.94717 0.64928,4.00269 -0.62164,7.41031 -2.27577,10.96378 -2.4183,3.9924 -5.58589,7.44625 -8.96487,10.64076 -6.37104,6.12556 -14.23757,10.20893 -21.82913,14.58186 1.32493,-0.73544 5.28364,-2.97005 3.9748,-2.20632 -8.35188,4.87348 -16.36159,9.19646 -25.34648,12.66171 -8.53069,2.4682 -14.31762,4.85338 -22.56523,0.39458 -0.80192,-0.59665 -1.60384,-1.19331 -2.40575,-1.78997 0,0 7.14118,-4.52552 7.14118,-4.52552 l 0,0 c 0.77387,0.56369 1.54773,1.12738 2.3216,1.69107 7.7936,3.94167 14.20004,1.49681 22.11915,-0.9597 3.83604,-1.51437 7.64876,-3.07906 11.34151,-4.92421 1.18796,-0.59359 4.43074,-2.83389 3.51855,-1.86875 -1.05884,1.12031 -5.30987,3.13445 -3.97925,2.3562 3.48119,-2.03609 6.954,-4.08648 10.43099,-6.12971 -1.35527,0.78903 -2.72205,1.55862 -4.06582,2.3671 -0.96333,0.57959 1.98685,-1.05986 2.92437,-1.68034 2.27031,-1.50259 4.646,-3.31377 6.74557,-5.05618 0.63865,-0.53 1.21798,-1.12767 1.82697,-1.6915 3.3834,-3.13982 6.52244,-6.48859 9.09023,-10.34102 1.60371,-3.45477 3.12358,-6.63847 2.4571,-10.57464 -0.29201,-4.33393 -0.88278,-8.62865 -2.22647,-12.77855 -1.63196,-5.10203 -2.68244,-10.38048 -4.87253,-15.28984 -1.53995,-3.41296 -2.49737,-7.40606 -5.07508,-10.17914 11.57595,-7.72884 4.83402,-4.27185 2.43397,1.845 -3.931,7.20482 -6.64171,11.35722 -15.02184,14.91914 -3.55106,1.47634 -6.04398,0.34004 -6.7721,-3.67684 -0.71981,-6.55701 2.18613,-12.40878 4.84063,-18.25137 0,0 7.72607,-3.49551 7.72607,-3.49551 z" />
    <path
       style="fill:#000000;fill-opacity:1;stroke:#000000;stroke-width:4.69999981;stroke-linecap:round;stroke-linejoin:round;stroke-miterlimit:4;stroke-opacity:1;stroke-dasharray:none;stroke-dashoffset:0"
       id="path2854"
       d="m 671.30693,-60.371652 c 0.93869,0.474949 1.87738,0.949898 2.81607,1.424848 0,0 -7.05509,4.641998 -7.05509,4.641998 l 0,0 c -0.94837,-0.468579 -1.89674,-0.937159 -2.84511,-1.405738 0,0 7.08413,-4.661108 7.08413,-4.661108 z" />
    <path
       style="fill:#000000;fill-opacity:1;stroke:#000000;stroke-width:4.69999981;stroke-linecap:round;stroke-linejoin:round;stroke-miterlimit:4;stroke-opacity:1;stroke-dasharray:none;stroke-dashoffset:0"
       id="path2856"
       d="m 685.00834,-48.105328 c 4.8028,5.283508 9.98328,10.165052 15.56411,14.608759 3.04182,2.338408 1.58915,1.237113 4.35381,3.309432 0,0 -7.16372,4.526229 -7.16372,4.526229 l 0,0 c -2.74548,-2.101355 -1.30063,-0.986393 -4.33142,-3.348936 -5.62035,-4.497657 -10.79854,-9.473053 -15.70535,-14.742828 0,0 7.28257,-4.352656 7.28257,-4.352656 z" />
    <path
       style="fill:#000000;fill-opacity:1;stroke:#000000;stroke-width:4.69999981;stroke-linecap:round;stroke-linejoin:round;stroke-miterlimit:4;stroke-opacity:1;stroke-dasharray:none;stroke-dashoffset:0"
       id="path2858"
       d="m 733.87248,-5.6699958 c 3.14189,2.5404047 1.56011,1.2677289 4.74551,3.8178005 0,0 -7.15451,4.4939353 -7.15451,4.4939353 l 0,0 c -3.19051,-2.5506531 -1.59864,-1.2843875 -4.77546,-3.7989853 0,0 7.18446,-4.5127505 7.18446,-4.5127505 z" />
    <path
       style="fill:#000000;fill-opacity:1;stroke:#000000;stroke-width:4.69999981;stroke-linecap:round;stroke-linejoin:round;stroke-miterlimit:4;stroke-opacity:1;stroke-dasharray:none;stroke-dashoffset:0"
       id="path2860"
       d="m 782.44391,37.187147 c 6.7086,4.488727 13.01151,9.513909 19.1849,14.702116 0,0 -7.13843,4.457816 -7.13843,4.457816 l 0,0 c -6.15474,-5.215139 -12.49129,-10.200177 -19.23094,-14.647181 0,0 7.18447,-4.512751 7.18447,-4.512751 z" />
    <path
       style="fill:#000000;fill-opacity:1;stroke:#000000;stroke-width:4.69999981;stroke-linecap:round;stroke-linejoin:round;stroke-miterlimit:4;stroke-opacity:1;stroke-dasharray:none;stroke-dashoffset:0"
       id="path2862"
       d="m 848.17906,94.714033 c 7.09276,7.358537 14.37048,14.502207 22.01642,21.283327 4.0627,3.37043 8.23632,6.6023 12.41332,9.82853 0,0 -7.09265,4.46881 -7.09265,4.46881 l 0,0 c -4.16644,-3.26095 -8.34205,-6.51169 -12.41124,-9.89435 -7.65515,-6.80946 -14.93657,-13.98582 -22.15205,-21.258097 0,0 7.2262,-4.42822 7.2262,-4.42822 z" />
    <path
       style="fill:#000000;fill-opacity:1;stroke:#000000;stroke-width:4.69999981;stroke-linecap:round;stroke-linejoin:round;stroke-miterlimit:4;stroke-opacity:1;stroke-dasharray:none;stroke-dashoffset:0"
       id="path2864"
       d="m 908.49633,160.39832 c 8.51465,7.65305 17.3099,14.95929 26.61336,21.63326 6.78998,5.14433 13.90141,9.82737 21.06923,14.42057 0,0 -7.01595,4.50734 -7.01595,4.50734 l 0,0 c -7.14969,-4.63946 -14.26611,-9.33292 -21.07634,-14.46583 -9.31958,-6.70942 -18.10692,-14.07218 -26.76751,-21.60713 0,0 7.17721,-4.48821 7.17721,-4.48821 z" />
    <path
       style="fill:#000000;fill-opacity:1;stroke:#000000;stroke-width:4.69999981;stroke-linecap:round;stroke-linejoin:round;stroke-miterlimit:4;stroke-opacity:1;stroke-dasharray:none;stroke-dashoffset:0"
       id="path2866"
       d="m 990.72262,237.60896 c 5.84118,8.76275 12.61518,16.75935 19.38678,24.79824 7.5732,8.73311 16.2597,16.36958 24.8872,24.02483 0,0 -7.0501,4.37631 -7.0501,4.37631 l 0,0 c -8.6237,-7.71814 -17.3805,-15.33843 -24.967,-24.11429 -6.7959,-8.0372 -13.55444,-16.0569 -19.53944,-24.73244 0,0 7.28256,-4.35265 7.28256,-4.35265 z" />
    <path
       style="fill:#000000;fill-opacity:1;stroke:#000000;stroke-width:4.69999981;stroke-linecap:round;stroke-linejoin:round;stroke-miterlimit:4;stroke-opacity:1;stroke-dasharray:none;stroke-dashoffset:0"
       id="path2868"
       d="m 1013.9429,261.28598 c -3.754,5.54445 -7.921,10.84185 -12.4611,15.76644 -3.34334,4.45807 -7.47688,7.96264 -12.01516,11.1276 -4.7269,3.52898 -9.56652,6.89417 -14.33715,10.36215 -6.60232,4.66635 -13.79108,8.38796 -20.78112,12.41774 -1.56239,0.90072 3.16154,-1.73609 4.74231,-2.60413 -4.7291,2.97618 -9.53935,5.75778 -14.40603,8.52424 -0.71486,0.40636 -2.88629,1.57503 -2.1824,1.14995 1.6875,-1.01907 6.86132,-3.88569 5.13534,-2.93323 -3.16171,1.74476 -6.29521,3.54018 -9.44281,5.31026 -4.03721,2.09187 -8.35785,3.55202 -12.48336,5.44504 -3.79526,1.93337 -7.67347,3.58567 -11.75085,4.82795 -4.67678,1.48251 -9.51206,2.43463 -14.21681,3.81518 -6.33107,1.62748 -12.80926,2.35968 -19.18244,3.78885 -6.4999,1.47214 -13.17443,1.86179 -19.81321,2.13592 -5.27957,-0.29547 -10.35834,0.96307 -15.49396,1.96263 -3.37017,0.80464 -6.20881,0.96795 -9.39082,-0.40736 -2.15302,-0.94906 -2.16875,-3.51501 -2.39658,-5.55247 0,0 7.54211,-3.94292 7.54211,-3.94292 l 0,0 c 0.17292,1.7615 0.0129,4.00869 1.94344,4.75687 3.03702,1.18744 5.92495,0.70189 9.06755,0.0298 5.14757,-0.99124 10.25202,-2.10691 15.53709,-1.83841 6.61576,-0.29689 13.25733,-0.73954 19.72542,-2.2554 6.37243,-1.40309 12.86958,-2.09161 19.16749,-3.83789 4.73976,-1.28945 9.52418,-2.39683 14.22099,-3.84702 4.04603,-1.29051 7.87561,-3.05498 11.69336,-4.90531 4.17599,-1.77276 8.38175,-3.43318 12.43865,-5.47918 -1.69131,1.01171 -6.79795,3.99006 -5.07394,3.03513 3.15781,-1.74912 6.24111,-3.62966 9.37664,-5.41841 0.709,-0.40446 2.84908,-1.59224 2.15617,-1.16077 -1.57305,0.97952 -3.15748,1.94642 -4.79894,2.8064 -1.65016,0.86453 6.26559,-3.89808 4.74746,-2.9488 17.5383,-10.37241 10.04183,-5.9807 5.29811,-3.07599 -0.91881,0.56261 1.84292,-1.11665 2.77193,-1.66226 2.71915,-1.59695 5.38285,-3.25332 7.99567,-5.02306 4.74309,-3.50732 9.63673,-6.79392 14.32332,-10.38087 4.53957,-3.12629 8.82524,-6.42897 12.07829,-10.96241 4.62488,-4.80265 8.73634,-10.1388 12.50264,-15.62985 0,0 7.7627,-3.39643 7.7627,-3.39643 z" />
    <path
       style="fill:#000000;fill-opacity:1;stroke:#000000;stroke-width:4.69999981;stroke-linecap:round;stroke-linejoin:round;stroke-miterlimit:4;stroke-opacity:1;stroke-dasharray:none;stroke-dashoffset:0"
       id="path2870"
       d="m 947.92045,352.44936 c -5.48299,5.09411 -10.97649,10.12246 -17.12294,14.41129 -5.74312,3.22312 -12.59459,8.91251 -19.78737,7.11065 -3.43655,-2.23039 -2.86409,-5.87678 -1.79316,-9.2777 2.4369,-4.91571 6.06887,-9.31509 10.3891,-12.6882 6.26814,-4.3947 12.75056,-8.72109 20.33959,-10.22722 3.66617,-0.76499 7.01104,0.86093 9.54628,3.42551 2.63743,3.05061 2.63415,7.20054 2.82266,11.02324 0.0446,5.51116 0.37283,11.05008 -0.25333,16.53383 -0.62767,6.51402 -4.2203,11.95917 -7.58984,17.37164 -3.54205,5.79501 -8.73041,10.03611 -14.38955,13.62729 -6.48572,3.67934 -13.63535,8.5969 -21.52589,7.77282 -4.21583,-0.63447 -6.79653,-3.6085 -8.28572,-7.38323 -1.70901,-5.96622 -0.92777,-12.07548 0.35641,-18.02857 0.29348,-1.08027 0.58697,-2.16055 0.88045,-3.24083 0,0 7.61941,-3.62559 7.61941,-3.62559 l 0,0 c -0.30385,1.06895 -0.60771,2.13789 -0.91157,3.20684 -1.32531,5.78488 -2.1231,11.7249 -0.5244,17.55365 1.3637,3.55875 3.79354,6.15603 7.7686,6.57588 2.2433,0.0765 4.23349,-0.20324 6.4117,-0.80125 2.43486,-0.66847 10.30352,-4.52559 0.33747,1.0206 5.69075,-3.43837 10.9477,-7.58028 14.54326,-13.27458 3.35178,-5.29726 7.01926,-10.63988 7.72796,-17.02839 0.7246,-5.42777 0.31233,-10.93121 0.30152,-16.39619 -0.16602,-3.59343 -0.0599,-7.58102 -2.53788,-10.45846 -2.49808,-2.397 -5.60143,-3.578 -9.05859,-2.73938 -2.83607,0.66019 -7.91516,3.30752 -6.18593,2.00733 10.31133,-7.75294 3.0372,-0.98701 0.47026,-0.0403 -4.40633,3.14887 -7.94159,7.49584 -10.57033,12.21119 -1.01096,2.76303 -2.07916,6.29371 1.10454,8.02552 5.18819,0.95351 15.61779,-5.12717 4.93543,0.8327 6.1847,-4.20584 11.68628,-9.17017 17.1519,-14.25677 0,0 7.82996,-3.24328 7.82996,-3.24328 z" />
  </g>
</svg>
