<?xml version="1.0" encoding="UTF-8" standalone="no"?>
<!-- Created with Inkscape (http://www.inkscape.org/) -->
<svg
   xmlns:dc="http://purl.org/dc/elements/1.1/"
   xmlns:cc="http://creativecommons.org/ns#"
   xmlns:rdf="http://www.w3.org/1999/02/22-rdf-syntax-ns#"
   xmlns:svg="http://www.w3.org/2000/svg"
   xmlns="http://www.w3.org/2000/svg"
   xmlns:sodipodi="http://sodipodi.sourceforge.net/DTD/sodipodi-0.dtd"
   xmlns:inkscape="http://www.inkscape.org/namespaces/inkscape"
   width="1691.5847"
   height="758.91504"
   id="svg2"
   sodipodi:version="0.32"
   inkscape:version="0.46+devel"
   sodipodi:docname="c23d1.svg"
   inkscape:output_extension="org.inkscape.output.svg.inkscape"
   version="1.0">
  <defs
     id="defs4">
    <inkscape:perspective
       sodipodi:type="inkscape:persp3d"
       inkscape:vp_x="0 : 526.18109 : 1"
       inkscape:vp_y="0 : 1000 : 0"
       inkscape:vp_z="744.09448 : 526.18109 : 1"
       inkscape:persp3d-origin="372.04724 : 350.78739 : 1"
       id="perspective10" />
  </defs>
  <sodipodi:namedview
     id="base"
     pagecolor="#ffffff"
     bordercolor="#666666"
     borderopacity="1.0"
     inkscape:pageopacity="0.0"
     inkscape:pageshadow="2"
     inkscape:zoom="1.9229885"
     inkscape:cx="1451.4286"
     inkscape:cy="112.85714"
     inkscape:document-units="px"
     inkscape:current-layer="layer1"
     showgrid="false"
     inkscape:window-width="1280"
     inkscape:window-height="712"
     inkscape:window-x="-5"
     inkscape:window-y="-3" />
  <metadata
     id="metadata7">
    <rdf:RDF>
      <cc:Work
         rdf:about="">
        <dc:format>image/svg+xml</dc:format>
        <dc:type
           rdf:resource="http://purl.org/dc/dcmitype/StillImage" />
        <dc:title></dc:title>
      </cc:Work>
    </rdf:RDF>
  </metadata>
  <g
     inkscape:label="Layer 1"
     inkscape:groupmode="layer"
     id="layer1"
     transform="translate(360.57741,-64.792766)">
    <path
       style="fill:#000000;fill-opacity:1;stroke:#000000;stroke-width:4.69999981;stroke-linecap:round;stroke-linejoin:round;stroke-miterlimit:4;stroke-opacity:1;stroke-dasharray:none;stroke-dashoffset:0"
       id="path2694"
       d="m -274.38153,334.3019 c 8.33088,5.89012 16.44032,12.07239 24.57443,18.22773 10.62719,7.58897 21.28577,15.14423 32.2397,22.25452 14.21502,9.20224 27.94076,19.10954 41.70323,28.96539 15.77256,12.44254 31.40092,25.06907 46.85754,37.90211 16.60856,13.97225 33.438548,27.63944 50.858207,40.58917 16.619248,13.05801 34.367809,24.55914 52.26048,35.76877 17.5431143,10.90414 36.070746,19.99155 54.576748,29.10006 18.109687,8.57102 36.546917,16.46323 55.16443,23.86662 18.015715,7.49511 36.271985,14.37494 54.642625,20.94347 16.96249,6.538 33.86515,13.18545 50.35477,20.84547 14.84265,6.4278 29.08381,14.09819 43.58892,21.22523 12.84739,5.60228 24.9529,12.56657 36.69542,20.1775 8.47286,5.71002 17.07516,11.21166 26.01513,16.16451 6.05125,3.71222 12.25124,7.12692 18.48886,10.5087 4.0997,2.4026 8.14233,4.9575 12.43768,7.00123 2.77021,1.35344 5.68293,2.57447 8.28473,4.24594 0.77218,4.40092 -14.28489,7.61281 -18.21765,8.67544 -8.96962,2.3588 -18.15607,3.45303 -27.29016,4.92112 -12.83648,1.68019 -25.61478,3.74716 -38.41483,5.68517 -16.65334,2.00188 -33.32723,3.82155 -50.06433,4.96245 -19.86545,0.7759 -39.69804,2.15125 -59.55994,3.01946 -23.68197,0.49918 -47.327352,1.89868 -70.994596,2.81667 -25.004121,0.44225 -49.980309,1.33792 -74.9633977,2.42706 -23.7380133,0.61408 -47.4478133,1.68656 -71.1660473,2.80534 -23.555184,1.43444 -47.062149,3.56612 -70.436799,6.81516 -22.76939,3.29801 -45.32815,7.74057 -67.93329,11.9656 -20.12999,3.96431 -40.21784,8.19377 -60.19977,12.85229 -15.37639,3.93791 -30.73355,7.96748 -46.16488,11.68662 -8.71399,3.0511 -17.92195,4.29284 -26.768,6.7662 -4.20878,1.21643 -7.66005,2.70396 -9.60652,-2.11078 -1.13698,-6.10274 -0.74887,-12.40804 -0.72848,-18.59065 -0.17889,-10.82322 0.75997,-21.63235 2.16937,-32.35414 1.53531,-13.31144 3.65866,-26.53267 5.85807,-39.74677 2.25138,-14.48646 4.25418,-29.00471 6.24833,-43.52892 1.62134,-14.90896 3.43902,-29.79938 4.60668,-44.7536 1.70833,-15.97428 2.85255,-31.99377 4.43773,-47.97928 1.52576,-14.67157 2.09414,-29.41289 2.40409,-44.15235 0.21389,-13.5374 0.18867,-27.07716 0.18097,-40.61583 -0.0156,-12.27149 -0.0313,-24.54297 -0.0395,-36.81447 -0.015,-9.57876 -0.025,-19.15752 -0.0342,-28.73628 -0.009,-6.79163 -0.0169,-13.58326 -0.0208,-20.37489 -0.18979,-5.16323 1.30534,-10.16788 2.03548,-15.2445 0.51271,-3.87543 0.43931,-7.735 1.55188,-11.49778 0.84718,-3.16463 1.99258,-6.20001 3.15751,-9.25821 0.74764,-3.07481 1.81061,-5.99998 2.95299,-8.94508 2.92085,-4.95819 9.86446,-7.34834 14.45111,-9.86221 4.05195,-1.63576 7.95476,-3.6251 11.94453,-5.42342 1.00715,-0.52216 3.95526,-2.21068 3.02144,-1.56649 -1.28106,0.88374 -2.57953,2.73986 -4.06919,2.28927 -1.37357,-0.41547 2.36642,-1.62411 3.54057,-2.44916 4.30503,-3.02508 8.28873,-6.35964 12.34274,-9.70976 10.25549,-8.59336 20.57234,-17.11379 30.89763,-25.62408 12.1101,-10.67625 24.89552,-20.49052 37.88402,-30.06097 14.36994,-10.61967 28.41915,-21.6576 42.49683,-32.65821 13.68395,-10.88816 27.84074,-21.1744 42.06939,-31.33659 12.54283,-9.18602 24.87359,-18.65481 37.338902,-27.94428 10.472047,-8.13423 21.442545,-15.58506 31.564816,-24.15858 7.781868,-6.66877 15.631805,-13.1747 24.108849,-18.93874 5.994552,-5.2155 12.897273,-8.78273 19.734649,-12.73798 1.922302,-1.11201 -3.88751,2.14813 -5.831265,3.22219 1.718951,-1.82155 1.011401,-3.83879 0.344909,-5.963691 0,0 7.446825,-4.089878 7.446825,-4.089878 l 0,0 c 0.780146,2.388834 1.563765,4.626909 0.121628,6.945299 -23.792121,14.19393 -3.33407,1.98936 -3.280202,1.95631 0.72609,-0.44554 -1.502441,0.8073 -2.218184,1.26927 -2.967554,1.91542 -5.68686,4.21835 -8.505803,6.33494 -8.507279,5.74209 -16.422207,12.16677 -24.192894,18.87383 -10.109438,8.63154 -21.102105,16.08414 -31.598949,24.23055 -12.493055,9.27809 -24.824301,18.77202 -37.373671,27.97526 -14.23283,10.16695 -28.4221,20.41971 -42.10915,31.3144 -14.07593,10.99422 -28.10708,22.04644 -42.46659,32.67142 -12.97847,9.54781 -25.78151,19.30541 -37.8503,29.99851 -10.30294,8.50508 -20.61354,17.00082 -30.83792,25.5989 -9.10767,7.53681 -18.25191,14.97768 -29.19818,19.81128 -3.99631,1.81765 -7.91555,3.80829 -11.9877,5.45129 12.267,-7.43088 1.77241,-1.9096 -0.0702,1.00138 -1.14194,2.95103 -2.32662,5.82461 -2.96036,8.94283 -1.15981,3.05172 -2.35697,6.04409 -3.18196,9.20637 -1.17421,3.72924 -1.19778,7.51347 -1.63824,11.39143 -0.68868,5.05706 -2.21338,10.02268 -2.10568,15.14805 -0.004,6.79874 -0.012,13.59748 -0.0211,20.39621 -0.009,9.58872 -0.0175,19.17744 -0.0252,28.76616 0.002,12.27606 0.006,24.55211 0.0126,36.82816 0.005,13.54622 0.0211,27.0932 -0.1855,40.63827 -0.31486,14.7648 -0.87889,29.53207 -2.41299,44.22861 -1.58104,15.97845 -2.743,31.98853 -4.43331,47.95703 -1.14145,14.96942 -2.97215,29.87085 -4.57896,44.79427 -1.9804,14.5293 -3.99245,29.04884 -6.22017,43.54177 -2.19511,13.1988 -4.33021,26.40255 -5.82987,39.70281 -1.43918,10.67495 -2.364,21.44667 -2.15647,32.2264 -0.0143,6.07574 -0.309,12.24663 0.67111,18.26053 1.48921,3.94933 5.69049,1.97658 8.87469,1.11343 8.86989,-2.26433 17.93577,-3.80443 26.66515,-6.66182 15.39645,-3.72516 30.73067,-7.708 46.08184,-11.61425 19.97564,-4.62236 40.04824,-8.85399 60.17026,-12.78572 22.60249,-4.23877 45.1714,-8.62546 67.94002,-11.92216 23.38799,-3.21341 46.904545,-5.34098 70.470062,-6.74906 23.715313,-1.12662 47.423589,-2.1743 71.1586997,-2.79606 24.9837693,-1.08166 49.9624393,-1.9416 74.9656613,-2.4242 23.682057,-0.92553 47.342677,-2.32302 71.039007,-2.85463 19.87664,-0.89295 39.72544,-2.27068 59.60561,-3.07812 16.73947,-1.17309 33.4214,-2.99953 50.07336,-5.05377 12.81829,-1.96986 25.62405,-4.00834 38.47686,-5.73844 9.15217,-1.44236 18.33683,-2.63654 27.30645,-5.04871 3.62327,-1.00364 17.43826,-6.30145 4.33965,1.08953 -2.59241,-1.62557 -5.44466,-2.85644 -8.18978,-4.19279 -4.26867,-2.11903 -8.33419,-4.63087 -12.43598,-7.05063 -6.20749,-3.41974 -12.39666,-6.84206 -18.44036,-10.54917 -8.91597,-5.0108 -17.52049,-10.51508 -25.98706,-16.24906 -11.70224,-7.60383 -23.78501,-14.52218 -36.58687,-20.13091 -14.48847,-7.13675 -28.72525,-14.79144 -43.55288,-21.22709 -16.46248,-7.65184 -33.34269,-14.28958 -50.28458,-20.80235 -18.37007,-6.58752 -36.618257,-13.50211 -54.649481,-20.97374 -18.619632,-7.43427 -37.069401,-15.335 -55.181881,-23.93176 -18.5256438,-9.11823 -37.061031,-18.23962 -54.607724,-29.17944 -17.910476,-11.2212 -35.661656,-22.7497 -52.295609,-35.82368 -17.418715,-12.97248 -34.248475,-26.66212 -50.881115,-40.62535 -15.46384,-12.80469 -31.08554,-25.4205 -46.87394,-37.82278 -13.7735,-9.83921 -27.51631,-19.72055 -41.75169,-28.89022 -10.97557,-7.12235 -21.67915,-14.65667 -32.31401,-22.27769 -8.14143,-6.14677 -16.2522,-12.33585 -24.66544,-18.11083 0,0 7.13578,-4.56896 7.13578,-4.56896 z" />
    <path
       style="fill:#000000;fill-opacity:1;stroke:#000000;stroke-width:4.69999981;stroke-linecap:round;stroke-linejoin:round;stroke-miterlimit:4;stroke-opacity:1;stroke-dasharray:none;stroke-dashoffset:0"
       id="path2696"
       d="m 322.24307,683.60432 c 2.33368,-10.34603 7.35129,-19.75789 12.4365,-28.96832 8.35135,-15.8999 18.04792,-31.01089 27.62787,-46.18077 14.27264,-21.60908 28.14499,-43.4798 42.43447,-65.078 15.9509,-23.34368 32.30794,-46.40308 48.33433,-69.69632 13.10682,-18.904 25.53466,-38.27114 39.15464,-56.81371 8.82337,-11.7497 17.78465,-23.51904 27.8739,-34.22638 4.46753,-4.68594 8.80798,-9.47613 12.75736,-14.60679 2.89503,-3.29697 5.51508,-6.81476 8.39633,-10.12446 2.98965,-4.13643 6.71363,-7.64884 10.36949,-11.18129 2.70885,-2.58333 5.86901,-5.08566 6.40414,-8.97808 0.0787,-2.80284 -0.7551,-5.49835 -1.44729,-8.17953 0,0 7.4273,-4.02569 7.4273,-4.02569 l 0,0 c 0.72374,2.76081 1.60006,5.53006 1.6298,8.41216 -0.19502,4.16383 -3.24876,6.85837 -6.17273,9.54087 -3.66121,3.50819 -7.47131,6.95656 -10.40574,11.11825 -2.89632,3.28363 -5.47797,6.81995 -8.41117,10.06318 -3.87846,5.24781 -8.37084,9.98911 -12.83437,14.7445 -10.2303,10.62538 -19.18094,22.47358 -28.08568,34.20315 -13.69908,18.5298 -26.14971,37.92534 -39.29531,56.8464 -16.04311,23.28506 -32.3869,46.35706 -48.3577,69.69039 -14.26886,21.56309 -28.08204,43.42312 -42.31833,65.00739 -9.52439,15.14516 -19.21452,30.20371 -27.50919,46.07742 -5.05868,9.09621 -10.0345,18.4038 -12.38266,28.62734 0,0 -7.62596,3.72829 -7.62596,3.72829 z" />
    <path
       style="fill:#000000;fill-opacity:1;stroke:#000000;stroke-width:4.69999981;stroke-linecap:round;stroke-linejoin:round;stroke-miterlimit:4;stroke-opacity:1;stroke-dasharray:none;stroke-dashoffset:0"
       id="path2698"
       d="m -82.963837,454.85323 c -8.536055,-0.64051 -16.219677,-4.41961 -23.413803,-8.79301 -8.23595,-6.17705 -14.32403,-14.61943 -19.2198,-23.5679 -5.70072,-10.20621 -7.79983,-21.29118 -8.04746,-32.82838 0.49344,-12.8216 4.61387,-25.03756 9.92796,-36.59156 6.41114,-12.56705 14.92843,-23.47112 25.439418,-32.8057 12.251162,-9.55563 25.699422,-17.83258 40.795159,-21.85151 12.576486,-3.29808 24.716797,-0.64124 36.69958,3.43693 11.5109652,4.3008 20.43485636,12.14214 28.5339038,21.10271 7.5632412,8.35015 10.8899812,18.57486 11.8428762,29.59575 0.835678,10.67178 -2.642806,20.63257 -6.468482,30.39711 -3.6230085,8.5203 -9.1894825,15.90857 -15.3350849,22.74665 -5.6085545,5.9428 -11.8305201,11.42506 -18.8336921,15.66443 -4.737124,3.08538 -9.712539,5.7944 -14.726479,8.39825 -1.888316,0.98065 -4.011021,1.33166 -5.947633,2.21776 -2.5977,1.23357 -5.238067,2.17927 -8.059118,2.71378 -2.008501,0.28771 -4.060791,0.41347 -5.992078,-0.22467 -1.69093,-1.22446 -0.902914,-0.57231 -2.37307,-1.9455 0,0 7.240086,-4.48154 7.240086,-4.48154 l 0,0 c 1.345532,1.2012 0.62664,0.66776 2.154725,1.60294 1.903965,0.38631 3.864385,0.26234 5.771408,-0.10352 2.763707,-0.59843 5.345773,-1.67602 7.923087,-2.82807 2.849846,-1.13571 7.103482,-3.15822 5.905471,-2.22311 -9.958768,7.77332 -2.417478,0.68375 0.23404,-0.0971 7.092153,-4.07438 13.313423,-9.5793 18.9761884,-15.44819 6.1623648,-6.75086 11.755217,-14.04879 15.4607352,-22.47346 3.8580117,-9.63578 7.4111004,-19.49605 6.6573934,-30.06173 C 11.329553,345.54758 8.0607122,335.49318 0.60592914,327.28384 -7.402841,318.41927 -16.250021,310.69116 -27.671143,306.52244 c -11.922375,-3.97848 -23.960798,-6.44257 -36.410435,-3.03815 -2.008355,0.56376 -4.048767,1.02377 -6.025064,1.69128 -1.921771,0.64908 -3.679559,1.78325 -5.652847,2.25299 -0.63371,0.15086 2.070948,-1.56058 1.491753,-1.26245 -5.8229,2.99721 -11.087444,7.08649 -16.319067,10.97259 -10.572837,9.20503 -19.114037,19.98949 -25.574047,32.48875 -5.35607,11.42113 -9.46921,23.52514 -10.05589,36.23366 0.19314,11.41476 2.19879,22.37651 7.86375,32.47072 4.8274,8.8202 10.84949,17.14898 19.021758,23.17227 7.131851,4.28153 14.759956,7.97502 23.224666,8.36703 0,0 -6.857271,4.9821 -6.857271,4.9821 z" />
    <path
       style="fill:#000000;fill-opacity:1;stroke:#000000;stroke-width:4.69999981;stroke-linecap:round;stroke-linejoin:round;stroke-miterlimit:4;stroke-opacity:1;stroke-dasharray:none;stroke-dashoffset:0"
       id="path2700"
       d="m -137.4424,360.68654 c 3.44461,-9.14248 7.94532,-17.77925 12.57742,-26.36025 7.43617,-13.95753 17.19135,-26.40868 26.988064,-38.74588 14.141251,-18.07387 29.814487,-34.76394 45.906398,-51.08807 19.45521,-18.73241 39.443916,-36.87896 58.8259334,-55.6908 18.4132666,-17.04069 36.2644506,-34.65881 54.2670686,-52.12718 11.864712,-11.12791 23.357383,-22.66432 35.467972,-33.5277 4.738714,-3.892746 9.431644,-7.823759 14.605184,-11.132351 1.1865,-0.588331 1.67225,-1.172282 0.80536,-2.241249 0,0 7.34634,-4.371897 7.34634,-4.371897 l 0,0 c 0.86931,1.175229 1.53935,2.806551 -0.21463,3.533505 -5.27595,3.238074 -10.00664,7.180671 -14.81434,11.06193 -12.20714,10.855192 -23.760057,22.424092 -35.687753,33.581532 -18.040714,17.46549 -35.896097,35.11602 -54.34322,52.1579 -19.3731226,18.80992 -39.33611,36.97073 -58.814888,55.66705 -16.052731,16.2847 -31.71888,32.90365 -45.806254,50.95119 -9.751645,12.29035 -19.515995,24.65777 -26.924195,38.55895 -4.59863,8.52286 -9.10559,17.07611 -12.50403,26.1663 0,0 -7.68043,3.60702 -7.68043,3.60702 z" />
    <path
       style="fill:#000000;fill-opacity:1;stroke:#000000;stroke-width:4.69999981;stroke-linecap:round;stroke-linejoin:round;stroke-miterlimit:4;stroke-opacity:1;stroke-dasharray:none;stroke-dashoffset:0"
       id="path2702"
       d="m -42.497198,428.83523 c 7.229577,-10.43278 14.975313,-20.49458 22.639789,-30.60861 11.2934249,-14.81468 22.9925355,-29.379 35.392519,-43.28774 13.981056,-15.80912 28.605894,-31.05506 44.063705,-45.42428 13.918612,-12.61602 28.370419,-24.6335 42.838775,-36.61087 11.08645,-8.54512 21.44176,-17.96106 31.90153,-27.24563 8.43264,-7.09908 16.52269,-14.58698 24.82516,-21.84051 5.44004,-5.05883 10.30882,-10.69119 15.61602,-15.87688 3.6799,-3.94212 7.43971,-7.84205 10.81489,-12.05132 3.31212,-4.11336 6.82933,-8.03216 10.28839,-12.02156 3.36289,-3.90597 6.85401,-7.69647 10.40958,-11.42679 1.20817,-1.4922 2.83913,-2.65053 3.97512,-4.20143 0.5134,-1.40162 -0.41283,-2.73626 -0.9299,-4.03 0,0 7.43791,-4.15404 7.43791,-4.15404 l 0,0 c 0.5942,1.47983 1.60136,2.95385 1.24262,4.57862 -0.34981,1.91861 -2.88927,2.95797 -3.8947,4.54309 -3.57174,3.715 -7.08002,7.49044 -10.44505,11.39493 -3.44533,3.99948 -6.97821,7.8899 -10.30615,11.98537 -3.29789,4.29731 -7.16002,8.14009 -10.77917,12.16605 -5.42557,5.10038 -10.2143,10.86519 -15.67469,15.94294 -8.31497,7.25961 -16.42555,14.74421 -24.86717,21.85078 -10.49261,9.29605 -20.84517,18.76571 -31.97649,27.30657 -14.489804,11.98451 -28.977541,23.99062 -42.931854,36.59886 -15.485621,14.32044 -30.108646,29.55238 -44.083367,45.34956 -12.407776,13.8473 -24.05459213,28.40808 -35.325936,43.18644 -7.602965,10.06804 -15.285119,20.08084 -22.503027,30.43138 0,0 -7.728504,3.44507 -7.728504,3.44507 z" />
    <path
       style="fill:#000000;fill-opacity:1;stroke:#000000;stroke-width:4.69999981;stroke-linecap:round;stroke-linejoin:round;stroke-miterlimit:4;stroke-opacity:1;stroke-dasharray:none;stroke-dashoffset:0"
       id="path2704"
       d="m 116.7902,85.831224 c 7.18262,-3.944196 14.2712,-8.049708 22.09477,-10.573103 7.64483,-2.811001 15.72169,-4.079361 23.66103,-5.765322 7.19967,-1.609032 14.56465,-2.063796 21.91349,-2.350033 6.4367,0.156368 12.42696,2.21276 18.2114,4.867669 4.92231,2.704849 9.29112,6.321742 12.99837,10.522013 3.53158,3.782202 6.87383,7.817989 9.81712,12.079535 2.62773,4.193116 4.77077,8.378497 5.88659,13.216637 0.97486,4.60548 0.97356,9.33177 1.0163,14.01647 -0.15421,4.59488 0.36451,9.24547 -0.32769,13.80137 -0.73797,3.86728 -1.67862,7.60855 -3.76772,10.97359 -1.98484,3.4606 -4.16556,6.75828 -6.53565,9.96734 -2.2004,2.95181 -5.14446,5.20273 -7.44166,8.05517 -2.30345,3.25988 -3.07242,3.37574 -9.46487,4.12472 -0.1582,0.0185 -1.33513,-3.20135 -1.35861,-3.26345 0,0 7.43252,-4.12976 7.43252,-4.12976 l 0,0 c 0.19713,0.5289 0.37599,1.06497 0.59137,1.58669 0.20758,0.5028 1.05802,1.097 0.67673,1.48496 -10.43948,10.62239 -7.86903,5.92284 -5.70146,3.55243 2.21463,-2.94741 5.15386,-5.17041 7.4737,-8.03886 2.31594,-3.23842 4.69341,-6.39091 6.54118,-9.93476 2.29467,-3.1647 3.1321,-6.8741 3.92556,-10.65354 0.87002,-4.48338 0.19752,-9.12953 0.41386,-13.67416 -0.0408,-4.62806 -0.0301,-9.29505 -0.93535,-13.85412 -1.05794,-4.74493 -3.1573,-8.82786 -5.72658,-12.935093 -2.93207,-4.228849 -6.24806,-8.23644 -9.7533,-11.998797 -3.65493,-4.094874 -7.9526,-7.635054 -12.81055,-10.224018 -5.6995,-2.59054 -11.63166,-4.522171 -17.96412,-4.557369 -7.31931,0.306385 -14.64526,0.82433 -21.81044,2.450852 -7.92738,1.68736 -15.98007,2.989082 -23.60209,5.838768 -7.77825,2.672328 -14.86595,6.799425 -22.076,10.711221 0,0 6.6221,-5.29705 6.6221,-5.29705 z" />
    <path
       style="fill:#000000;fill-opacity:1;stroke:#000000;stroke-width:4.69999981;stroke-linecap:round;stroke-linejoin:round;stroke-miterlimit:4;stroke-opacity:1;stroke-dasharray:none;stroke-dashoffset:0"
       id="path2706"
       d="m -106.63325,460.46529 c 0.35779,-7.49029 -1.73282,-14.71484 -4.83579,-21.45051 -2.74136,-7.45649 -8.16457,-12.87713 -13.39084,-18.59992 -6.83551,-7.80083 -14.18059,-15.11638 -21.73471,-22.21488 -7.85321,-8.16014 -16.40663,-15.5761 -25.42916,-22.40504 -7.92547,-5.83768 -15.70692,-11.88647 -23.78346,-17.51433 -5.47483,-3.7437 -11.02786,-7.46446 -17.03136,-10.31367 -1.59382,-0.68396 -3.18767,-1.42915 -4.88731,-1.80683 -0.71265,0.10176 -1.43652,0.0944 -2.15548,0.12596 -0.59411,-0.84289 -0.36931,-0.4214 -0.71426,-1.2424 0,0 7.47001,-4.16274 7.47001,-4.16274 l 0,0 c 0.0411,0.12029 0.0822,0.24058 0.12337,0.36088 0.009,-0.004 0.0172,-0.008 0.0258,-0.012 0.7618,-0.0236 1.55107,-0.11298 2.29528,0.0636 1.68498,0.55117 3.31866,1.24383 4.91992,2.00409 5.98184,2.95409 11.5511,6.69232 17.03541,10.47252 8.04724,5.67841 15.85612,11.6941 23.76457,17.56344 9.02963,6.86519 17.57797,14.32413 25.4695,22.48363 7.57004,7.11611 14.94089,14.4392 21.8097,22.24205 5.30758,5.76821 10.76693,11.27745 13.54321,18.81225 3.15518,6.82228 5.313724,14.15524 5.057856,21.7459 0,0 -7.552216,3.84805 -7.552216,3.84805 z" />
    <path
       style="fill:#000000;fill-opacity:1;stroke:#000000;stroke-width:4.69999981;stroke-linecap:round;stroke-linejoin:round;stroke-miterlimit:4;stroke-opacity:1;stroke-dasharray:none;stroke-dashoffset:0"
       id="path2708"
       d="m -208.44979,333.66745 c -5.80834,-3.12285 -11.56408,-6.28115 -17.74134,-8.62234 -2.02809,-0.61309 -3.74613,-2.03732 -5.71029,-2.77643 -2.69223,-1.01308 -9.99042,3.4462 5.44232,-3.19242 0.51066,3.88839 2.11688,7.49395 3.03425,11.30406 1.54082,4.493 2.97604,8.98248 3.76918,13.67369 0.41667,2.67476 0.56003,5.38402 0.63371,8.08736 0.004,0.0472 0.008,0.0944 0.0125,0.14158 -2.53953,0.86848 -5.07906,1.73696 -7.61858,2.60544 0,0 7.58823,-3.87485 7.58823,-3.87485 l 0,0 c -2.53197,1.72313 -5.06394,3.44626 -7.59592,5.16939 0.003,-0.05 0.005,-0.0999 0.008,-0.14993 -0.0186,-2.6739 -0.14589,-5.35318 -0.52821,-8.0019 -0.7514,-4.6813 -2.15426,-9.16208 -3.72472,-13.62873 -0.92171,-3.8776 -2.55764,-7.51784 -3.16666,-11.45521 9.46201,-7.56268 6.14261,-6.53625 14.88544,-2.62309 6.16258,2.43154 11.91979,5.64602 17.79597,8.68227 0,0 -7.08413,4.66111 -7.08413,4.66111 z" />
    <path
       style="fill:#000000;fill-opacity:1;stroke:#000000;stroke-width:4.69999981;stroke-linecap:round;stroke-linejoin:round;stroke-miterlimit:4;stroke-opacity:1;stroke-dasharray:none;stroke-dashoffset:0"
       id="path2710"
       d="m -160.96239,237.89982 c -6.74818,5.24102 -10.78054,12.60977 -14.10461,20.29724 -2.84496,7.06326 -3.54733,14.66271 -3.95101,22.19178 0.13555,5.73311 -0.29621,11.30152 -1.37941,16.91949 -1.33661,4.14452 -2.88509,8.20765 -5.30867,11.84249 -4.67497,4.36827 -10.55664,7.84297 -16.4029,10.2926 -0.41306,0.15421 -0.82612,0.30842 -1.23918,0.46263 0,0 6.70262,-5.25838 6.70262,-5.25838 l 0,0 c 0.4025,-0.16133 0.80501,-0.32266 1.20752,-0.48399 3.17977,-1.44749 3.02762,-1.44273 -4.21297,2.71857 -0.52293,0.30054 1.00989,-0.65973 1.51243,-0.99324 1.04134,-0.69108 2.11835,-1.33218 3.11797,-2.08235 0.53016,-0.39786 1.01832,-0.84883 1.52748,-1.27324 2.58651,-3.46237 3.96232,-7.50884 5.47337,-11.5232 1.08784,-5.59465 1.68116,-11.10771 1.46545,-16.83126 0.39368,-7.61002 1.06447,-15.30388 3.8516,-22.47173 3.27628,-7.77549 7.25535,-15.21641 13.84964,-20.72001 0,0 7.89067,-3.0874 7.89067,-3.0874 z" />
    <path
       style="fill:#000000;fill-opacity:1;stroke:#000000;stroke-width:4.69999981;stroke-linecap:round;stroke-linejoin:round;stroke-miterlimit:4;stroke-opacity:1;stroke-dasharray:none;stroke-dashoffset:0"
       id="path2712"
       d="m -200.27168,289.46933 c 6.29327,0.035 12.69942,-0.43467 18.9283,0.60361 3.67896,0.97622 7.40248,1.74275 11.1548,2.37288 0.74349,0.12145 1.48787,0.23963 2.23771,0.31215 0,0 -6.98875,4.95274 -6.98875,4.95274 l 0,0 c -0.74436,-0.11975 -1.48858,-0.24054 -2.23048,-0.37493 -3.72499,-0.67764 -7.41794,-1.49129 -11.09476,-2.39354 -6.19988,-0.86958 -12.5522,-0.60633 -18.79087,-0.37073 0,0 6.78405,-5.10218 6.78405,-5.10218 z" />
    <path
       style="fill:#000000;fill-opacity:1;stroke:#000000;stroke-width:4.69999981;stroke-linecap:round;stroke-linejoin:round;stroke-miterlimit:4;stroke-opacity:1;stroke-dasharray:none;stroke-dashoffset:0"
       id="path2714"
       d="m -45.414741,369.75211 c -3.950193,8.99933 -5.773313,18.7136 -7.634525,28.30895 -2.153007,15.91168 -3.81533,31.89309 -5.674916,47.84455 -2.28325,18.2743 -5.042936,36.47521 -7.984169,54.65293 -1.869317,12.73245 -3.29619,25.53765 -5.706412,38.18492 -1.36971,6.39001 -2.677895,12.78325 -3.468585,19.27301 -0.145574,1.29565 -0.279398,2.59354 -0.340225,3.89625 -7.811605,3.16983 -6.798795,5.60946 -8.322899,1.97551 0,0 7.433315,-4.17239 7.433315,-4.17239 l 0,0 c 1.541651,3.57181 -1.233014,4.13152 -6.743554,6.08435 0.01202,-1.34673 0.22456,-2.68458 0.359096,-4.02236 0.833036,-6.5254 2.118594,-12.96072 3.556346,-19.37906 2.489585,-12.65108 3.952663,-25.47172 5.835629,-38.22027 2.975715,-18.16865 5.765927,-36.36029 8.03068,-54.63376 1.839828,-15.94812 3.486963,-31.92256 5.532848,-47.84244 1.806131,-9.59254 3.575041,-19.3287 7.446942,-28.34317 0,0 7.680429,-3.60702 7.680429,-3.60702 z" />
    <path
       style="fill:#000000;fill-opacity:1;stroke:#000000;stroke-width:4.69999981;stroke-linecap:round;stroke-linejoin:round;stroke-miterlimit:4;stroke-opacity:1;stroke-dasharray:none;stroke-dashoffset:0"
       id="path2716"
       d="m -101.62452,552.77734 c 1.61444,8.58289 4.293224,16.89947 6.998323,25.18619 1.886661,5.89841 3.524709,12.02615 6.707233,17.38386 2.093636,2.49139 3.779118,3.18695 6.49453,1.34341 -13.825124,9.02905 1.078109,-3.65349 3.398384,-5.89782 4.465362,-4.22498 8.26339,-9.07829 12.672424,-13.3579 1.309049,-1.24158 2.678781,-2.41631 4.106983,-3.51793 0.03512,-0.0303 0.07024,-0.0606 0.105354,-0.0909 0,0 7.996545,-3.07123 7.996545,-3.07123 l 0,0 c -0.04271,0.0148 -0.08541,0.0297 -0.128121,0.0445 -1.535956,0.9705 -2.883041,2.20721 -4.239875,3.40896 -4.49178,4.21973 -8.273673,9.09259 -12.710923,13.36666 -5.577937,5.42413 -10.72662,10.88003 -17.82336,14.46653 -3.117841,1.4362 -5.150717,0.12632 -7.221071,-2.44398 -3.162348,-5.44516 -4.843346,-11.61315 -6.715106,-17.58931 -2.70027,-8.33297 -5.37571,-16.68323 -7.13732,-25.27664 0,0 7.496,-3.95437 7.496,-3.95437 z" />
    <path
       style="fill:#000000;fill-opacity:1;stroke:#000000;stroke-width:4.69999981;stroke-linecap:round;stroke-linejoin:round;stroke-miterlimit:4;stroke-opacity:1;stroke-dasharray:none;stroke-dashoffset:0"
       id="path2718"
       d="m -127.33747,618.138 c 1.28224,7.20228 1.42511,14.54299 2.51228,21.76241 1.27094,3.47886 0.59485,8.07125 2.51696,11.33841 -2.45466,0.97478 -4.77087,2.42306 -7.36399,2.92435 -1.1881,0.22967 2.73167,-11.87774 3.05731,-12.70697 2.42544,-7.00907 5.82553,-13.63817 10.47607,-19.42293 4.36095,-4.21878 11.43646,-11.90173 16.999111,-6.61106 3.125856,4.80173 4.101527,10.45253 4.920232,16.01776 0.74986,5.98542 0.815857,12.02392 0.884052,18.04673 0.0034,0.81239 0.0059,1.62478 0.01014,2.43717 0.0056,1.08859 0.168552,3.22247 0.02516,3.2744 -8.305875,3.00794 -8.019215,4.87231 -7.314875,0.45361 0.733063,-4.5667 2.581846,-8.77153 4.675682,-12.8559 2.447559,-3.78974 4.262815,-7.9751 7.221046,-11.40909 2.564369,-2.25587 8.946219,-7.62851 12.693876,-6.54525 0.429314,0.12409 2.589516,1.40645 2.931742,1.60447 3.782586,2.98022 4.475654,7.70858 5.043799,12.20087 0.363117,3.45211 0.461664,6.92664 0.48222,10.39583 -0.0018,0.74062 6.56e-4,0.40517 -0.0056,1.00635 0,0 -7.633082,3.86458 -7.633082,3.86458 l 0,0 c 0.02449,-0.59481 0.01287,-0.26218 0.03155,-0.99799 0.04278,-3.4469 -0.0402,-6.89946 -0.372176,-10.33216 -0.505863,-4.20872 -1.029203,-8.77736 -4.67332,-11.49718 -1.341633,-0.72948 -2.438814,-1.53062 -4.029659,-1.0907 -0.445209,0.12312 -1.650605,0.82309 -1.260509,0.57571 7.562819,-4.79587 7.330497,-4.71119 4.626869,-2.46713 -3.181435,3.2142 -4.795369,7.51228 -7.327855,11.21016 -2.114925,3.99924 -4.017067,8.11761 -4.765154,12.61679 -0.972549,4.70063 0.02568,1.88509 -7.954449,7.13758 -0.11201,0.0737 0.0197,-0.26756 0.0231,-0.40162 0.0127,-0.50255 0.0311,-2.61508 0.032,-2.89415 0.003,-0.81193 -0.002,-1.62387 -0.002,-2.4358 -0.0302,-5.99202 -0.10074,-11.99894 -0.80808,-17.95687 -0.76645,-5.37177 -1.66091,-10.84324 -4.68393,-15.47564 -0.92899,-0.78098 -1.15554,-1.26425 -2.47247,-1.23555 -0.52972,0.0116 -1.97651,0.6749 -1.5472,0.36439 11.18507,-8.09008 4.09654,-2.1694 2.02434,-0.30538 -4.79616,5.6014 -8.1982,12.22711 -10.58907,19.18762 -1.47396,3.55483 -2.50498,7.07781 -2.98308,10.90849 -0.0657,0.52621 0.32626,1.24391 -0.0763,1.58906 -2.33816,2.00448 -5.14144,3.39195 -7.71215,5.08792 -1.83296,-3.48149 -1.33406,-7.98954 -2.55174,-11.66036 -1.11912,-7.20441 -1.18012,-14.54588 -2.55912,-21.72483 0,0 7.49868,-3.9781 7.49868,-3.9781 z" />
    <path
       style="fill:#000000;fill-opacity:1;stroke:#000000;stroke-width:4.69999981;stroke-linecap:round;stroke-linejoin:round;stroke-miterlimit:4;stroke-opacity:1;stroke-dasharray:none;stroke-dashoffset:0"
       id="path2720"
       d="m -22.504486,616.036 c 1.397285,-0.8253 -8.092501,4.12967 -6.021748,3.19436 1.320975,-0.59665 2.43786,-2.49271 3.824249,-2.06975 1.221406,0.37263 -2.090496,1.47348 -3.061949,2.30231 -2.440028,2.08181 -2.628113,2.5949 -4.510855,5.07324 -3.777338,5.03 -5.668354,10.50728 -5.559065,16.74745 0.892494,4.85884 1.950663,7.32384 7.18556,7.24847 -0.643144,0.86175 5.091607,-2.30793 3.826176,-1.71465 -1.802787,0.84521 -3.395226,2.24042 -5.336259,2.68406 -0.889324,0.20326 1.323123,-1.25701 1.95814,-1.91196 2.227108,-2.29703 2.006996,-2.15987 3.969946,-4.69993 2.987307,-4.37569 6.42478,-8.44205 9.06504,-13.04365 5.497259,-6.03824 10.0424863,-8.72551 11.8651844,-1.44829 1.4818928,4.38114 3.3478895,8.57369 4.55150509,13.05008 1.57992658,5.41174 3.38499591,10.72885 5.21714351,16.05717 1.4733978,4.33519 2.0932113,8.59399 1.3327333,13.10782 -1.6069474,5.78653 -6.50233443,9.13783 -11.0663002,12.55138 -9.8229801,6.5915 -19.8371041,11.12395 -31.6414841,9.96427 -4.535254,-0.85757 -7.765527,-3.63157 -11.157807,-6.50623 0,0 7.134403,-4.45558 7.134403,-4.45558 l 0,0 c 3.306862,2.77532 6.429509,5.37756 10.867084,6.0789 4.483858,0.33102 8.302146,0.12559 12.670324,-1.0919 1.378703,-0.38426 3.209624,-2.47947 4.078585,-1.3422 0.82083,1.07428 -3.825717,1.20928 -3.246677,2.43099 0.569031,1.20058 2.310818,-1.31185 3.466227,-1.96777 4.4523864,-3.30048 9.4033833,-6.43344 11.2635594,-11.94503 0.86326762,-4.38416 0.3095835,-8.49188 -1.1173217,-12.73279 -1.8166662,-5.35382 -3.6348999,-10.68757 -5.2382348,-16.11164 -1.1883618,-4.48787 -3.0682179,-8.67536 -4.6072379,-13.04269 -0.148943,-0.64092 -0.373041,-1.8303 -0.705256,-2.44163 -0.206465,-0.37993 -1.525666,-0.30413 -1.172887,-0.55417 11.0773464,-7.8514 7.4579412,-4.90334 5.2621341,-3.06258 -2.5983431,4.67363 -6.0622331,8.74755 -9.0621221,13.16513 -4.713601,6.38613 -11.029501,12.33686 -19.067242,13.95981 -5.079196,-0.34583 -7.073147,-3.51489 -7.820489,-8.36741 -0.203382,-6.39364 1.496746,-12.04532 5.33709,-17.25784 5.912499,-8.31094 15.189548,-12.64874 24.139946,-17.1448 0,0 -6.622095,5.29705 -6.622095,5.29705 z" />
    <path
       style="fill:#000000;fill-opacity:1;stroke:#000000;stroke-width:4.69999981;stroke-linecap:round;stroke-linejoin:round;stroke-miterlimit:4;stroke-opacity:1;stroke-dasharray:none;stroke-dashoffset:0"
       id="path2722"
       d="m 93.872477,240.04429 c 8.671073,6.56026 16.339293,14.2699 24.341073,21.60188 12.94077,11.90912 25.45132,24.29476 37.7938,36.82304 13.20602,13.38995 25.48861,27.65871 37.34958,42.24256 8.89636,10.37154 17.00209,21.36315 25.38004,32.13995 3.58445,4.35332 6.74773,8.97427 9.96401,13.58065 1.40153,0.86955 2.07359,4.35654 3.17388,4.67683 -9.71575,5.76964 -7.44812,4.11387 -5.78607,-0.86917 0,0 7.70163,-3.61792 7.70163,-3.61792 l 0,0 c -1.81658,5.48971 -1.7488,5.33995 -8.96341,9.35041 -1.61854,-1.30742 -1.75,-3.91413 -3.44928,-5.23153 -3.1716,-4.61599 -6.30769,-9.23246 -9.83935,-13.60434 -8.28332,-10.834 -16.36792,-21.82102 -25.23272,-32.20358 -11.81857,-14.58281 -24.0946,-28.82112 -37.28065,-42.19159 -12.3555,-12.50746 -24.87969,-24.87165 -37.85585,-36.73446 -8.02719,-7.30619 -15.721497,-14.99842 -24.481144,-21.44998 0,0 7.184461,-4.51275 7.184461,-4.51275 z" />
    <path
       style="fill:#000000;fill-opacity:1;stroke:#000000;stroke-width:4.69999981;stroke-linecap:round;stroke-linejoin:round;stroke-miterlimit:4;stroke-opacity:1;stroke-dasharray:none;stroke-dashoffset:0"
       id="path2724"
       d="m 246.94691,347.06306 c 1.51247,8.96063 4.57625,17.48458 7.80331,25.9402 2.81914,7.35839 5.98877,14.52169 7.7576,22.22412 0.14749,4.52241 2.7394,8.62834 3.07486,13.0745 -2.1993,6.20685 -9.63845,8.46709 -15.06076,11.20298 -6.03825,2.88526 -12.37181,5.02716 -18.61251,7.42049 -7.11412,3.50494 -14.69227,5.96049 -21.9011,9.2247 -3.8276,1.77938 -7.84475,3.13222 -11.9154,4.23514 -1.3038,0.31388 -1.46972,0.6875 -2.00645,-0.62873 -0.0137,-0.67585 -0.0135,-0.3395 -7.9e-4,-1.00905 0,0 7.63113,-3.86015 7.63113,-3.86015 l 0,0 c -0.0252,0.63021 -0.0144,0.31987 -0.0328,0.93102 -0.77437,-0.5407 0.78467,-0.36501 1.17348,-0.6314 4.02159,-1.12733 7.97738,-2.50643 11.76474,-4.27613 7.26577,-3.13425 14.73924,-5.7988 21.908,-9.1738 6.26198,-2.36567 12.58034,-4.59245 18.60719,-7.52898 2.98961,-1.51632 5.59233,-2.90504 -3.22665,2.17102 -0.53725,0.30923 1.05573,-0.65662 1.53535,-1.04933 1.04584,-0.85632 1.89418,-1.96636 2.55413,-3.13512 0.0962,-4.3818 -3.04502,-8.50578 -2.92712,-12.96842 -1.70823,-7.68205 -4.84746,-14.81865 -7.64573,-22.14822 -3.25868,-8.50258 -6.29657,-17.08259 -7.97652,-26.06047 0,0 7.496,-3.95437 7.496,-3.95437 z" />
    <path
       style="fill:#000000;fill-opacity:1;stroke:#000000;stroke-width:4.69999981;stroke-linecap:round;stroke-linejoin:round;stroke-miterlimit:4;stroke-opacity:1;stroke-dasharray:none;stroke-dashoffset:0"
       id="path2726"
       d="m 289.80539,323.85229 c 1.20513,8.43536 1.77362,16.93645 2.17852,25.44165 0.21203,4.67329 0.33268,9.3505 0.40548,14.0279 0.12335,2.91123 0.19825,2.13775 -7.59537,2.70637 -0.60425,0.0441 -8.4e-4,-1.21171 2.3e-4,-1.81756 0.005,-2.74231 0.0113,-5.48457 0.013,-8.22689 0.49822,-7.02957 1.71066,-13.94253 3.92017,-20.6328 1.73502,-4.95663 6.47625,-14.73303 13.58712,-11.83794 3.25718,2.92494 3.51533,7.63952 3.9856,11.72729 0.35801,3.88574 0.35477,7.79044 0.3997,11.68853 -10.9745,11.93727 -6.31935,-1.31878 -5.28828,-4.0503 2.34816,-6.99849 6.44873,-8.33017 13.10038,-11.86421 4.25145,1.59492 4.83249,6.52188 6.00799,10.34989 1.57195,4.19037 2.4368,8.57044 2.97386,12.99819 -0.14748,0.21345 0.62392,3.80113 0.32895,3.90638 -8.01214,2.85888 -7.90082,4.31317 -6.8292,0.38244 0,0 7.6834,-3.64527 7.6834,-3.64527 l 0,0 c -1.92673,6.2415 -9.79333,11.59754 -8.71117,3.30221 -0.48443,-4.38759 -1.31452,-8.72674 -2.87003,-12.87505 -0.98549,-3.13802 -1.43585,-8.50296 -5.35191,-9.23022 12.00427,-7.45407 2.87155,-2.54261 1.38021,3.10861 -3.41488,8.06185 0.77888,5.06059 -10.04603,11.77589 -0.0817,0.0507 0.0158,-0.19176 0.0237,-0.28764 0.0488,-3.87682 -0.0116,-7.76039 -0.31355,-11.62683 -0.38783,-3.63774 -0.4618,-8.32024 -3.49926,-10.82743 -3.38235,-0.24266 -1.30828,0.0834 5.47254,-3.93035 0.39116,-0.23154 -0.81877,0.42911 -1.13542,0.75523 -1.7455,1.79769 -2.22415,4.41491 -3.26124,6.59816 -2.28675,6.59101 -3.47868,13.42518 -4.02649,20.3775 0.001,0.72479 0.0415,10.01123 0.0379,10.01473 -2.25191,2.13534 -5.01136,3.66545 -7.59624,5.38278 -0.0955,0.0634 0.008,-0.22917 0.0116,-0.34376 0.008,-4.68708 -0.0948,-9.37391 -0.27536,-14.05742 -0.37607,-8.46367 -0.905,-16.93215 -2.20934,-25.31199 0,0 7.49868,-3.97809 7.49868,-3.97809 z" />
    <path
       style="fill:#000000;fill-opacity:1;stroke:#000000;stroke-width:4.69999981;stroke-linecap:round;stroke-linejoin:round;stroke-miterlimit:4;stroke-opacity:1;stroke-dasharray:none;stroke-dashoffset:0"
       id="path2728"
       d="m 353.9625,329.54721 c -4.3158,5.48906 -6.98797,11.91853 -8.86036,18.58586 -0.87221,2.14964 -1.14234,6.80414 2.32664,4.91958 -10.19434,6.43276 -6.24501,3.57662 -4.11948,0.45258 1.1829,-1.73857 2.0341,-3.63864 3.05894,-5.47069 2.58592,-5.03122 6.25394,-11.23093 13.09642,-10.91229 3.30879,0.53685 3.86891,5.06417 4.74721,7.74338 2.23966,5.59552 4.28824,11.26998 5.84198,17.09537 2.1846,6.22934 3.71167,12.60478 4.54306,19.14639 0.46446,5.45799 1.21447,10.9457 -0.4458,16.23994 -1.88072,5.60444 -6.02153,9.91174 -10.58315,13.48505 -6.76396,4.13464 -13.67517,9.1501 -21.41802,11.40963 -2.97625,0.86854 -5.72022,1.03716 -8.77767,1.37387 -5.95137,0.36415 -11.37282,-1.56199 -16.76713,-3.7791 0,0 6.99755,-4.68101 6.99755,-4.68101 l 0,0 c 5.31586,2.15246 10.65873,3.93216 16.50399,3.44533 4.50827,-0.56827 8.44138,-1.29135 12.6155,-3.16672 1.24169,-0.55788 3.74947,-3.16961 3.6601,-1.81129 -0.096,1.45955 -2.39028,1.70637 -3.6965,2.36461 -1.09069,0.54963 2.03055,-1.35781 3.04582,-2.03672 4.58457,-3.32239 8.77989,-7.59168 10.75021,-13.0057 1.87044,-5.14169 1.04722,-10.54434 0.63348,-15.90849 -0.79169,-6.51175 -2.27507,-12.86313 -4.47416,-19.05301 -1.538,-5.80985 -3.59999,-11.46359 -5.858,-17.03057 -0.75171,-2.2761 -1.19564,-6.67046 -4.17766,-6.7594 -3.09485,0.75464 -3.113,0.85626 5.47748,-3.64075 0.43106,-0.22565 -0.69645,0.68113 -1.01574,1.04827 -1.29911,1.49382 -2.02268,3.24722 -2.9457,4.98212 -4.34143,7.25316 -4.09368,9.3912 -13.43548,13.68708 -4.04249,0.53734 -4.2618,-3.44897 -3.21659,-6.50357 1.8245,-6.74314 4.47899,-13.25301 8.6911,-18.88646 0,0 7.80196,-3.33329 7.80196,-3.33329 z" />
    <path
       style="fill:#000000;fill-opacity:1;stroke:#000000;stroke-width:4.69999981;stroke-linecap:round;stroke-linejoin:round;stroke-miterlimit:4;stroke-opacity:1;stroke-dasharray:none;stroke-dashoffset:0"
       id="path2730"
       d="m 419.03761,315.04268 c -4.18575,2.62931 -8.82804,5.47216 -8.7233,10.90778 0.81039,3.38542 3.79422,5.31376 5.64581,8.0882 1.18211,2.12481 2.2011,4.67038 1.81703,7.12539 -0.88799,3.30306 -3.49236,5.46529 -6.21507,7.29946 -5.30708,3.97482 -10.85326,7.26621 -16.62025,10.58791 -1.68403,0.81514 -3.54408,2.08458 -5.34566,1.06711 -0.20532,-0.1816 -0.41064,-0.3632 -0.61597,-0.5448 0,0 7.23583,-4.54235 7.23583,-4.54235 l 0,0 c 0.15956,0.11189 0.31913,0.22378 0.47869,0.33567 1.7423,0.29293 3.36304,-0.9659 4.86497,-1.65914 -12.98803,7.5922 -0.61952,0.17159 2.08285,-2.15755 2.65294,-1.65269 5.44421,-3.59294 6.43667,-6.70958 0.83785,-2.04325 -0.54704,-4.66504 -1.45905,-6.49879 -1.94706,-2.89274 -5.03073,-4.92954 -5.867,-8.49913 -0.35669,-5.76306 3.76179,-8.93959 8.39378,-11.71278 0,0 7.89067,-3.0874 7.89067,-3.0874 z" />
    <path
       style="fill:#000000;fill-opacity:1;stroke:#000000;stroke-width:4.69999981;stroke-linecap:round;stroke-linejoin:round;stroke-miterlimit:4;stroke-opacity:1;stroke-dasharray:none;stroke-dashoffset:0"
       id="path2732"
       d="m 443.47122,315.40576 c -1.90789,6.89394 -3.46838,13.86386 -4.55375,20.93371 -0.33001,2.30798 -0.57969,4.62613 -0.77178,6.94928 0,0 -7.63394,3.80659 -7.63394,3.80659 l 0,0 c 0.21462,-2.35141 0.48459,-4.69744 0.8207,-7.03482 1.07342,-7.06382 2.60888,-14.03919 4.5128,-20.92647 0,0 7.62597,-3.72829 7.62597,-3.72829 z" />
    <path
       style="fill:#000000;fill-opacity:1;stroke:#000000;stroke-width:4.69999981;stroke-linecap:round;stroke-linejoin:round;stroke-miterlimit:4;stroke-opacity:1;stroke-dasharray:none;stroke-dashoffset:0"
       id="path2734"
       d="m 458.37682,298.138 c 1.10003,6.94435 0.48629,14.03136 0.14811,21.02 -0.17496,4.7132 -1.23162,9.46339 -2.78034,13.91724 -1.94166,4.72458 -2.43055,5.46414 -9.42565,6.20205 -0.52233,0.0551 0.21203,-1.02909 0.29913,-1.54705 0.10436,-0.62054 0.1834,-1.24507 0.2751,-1.86761 0.55138,-3.74622 1.70231,-7.48669 3.06214,-11.02357 2.12664,-4.37329 7.89138,-10.60461 12.05829,-4.44136 1.49165,3.28256 1.59146,6.94889 1.74386,10.4921 0.0898,3.69048 0.0713,7.38274 0.056,11.07401 -0.004,1.75288 -0.006,3.50578 0.002,5.25865 4e-4,0.0675 8e-4,0.13504 0.001,0.20256 -2.53775,0.88149 -5.0755,1.76298 -7.61325,2.64448 0,0 7.59321,-3.86949 7.59321,-3.86949 l 0,0 c -2.53728,1.70298 -5.07455,3.40596 -7.61183,5.10894 10e-4,-0.0682 0.002,-0.13643 0.003,-0.20464 0.0243,-1.76096 0.0376,-3.52205 0.0476,-5.28313 0.0129,-3.68108 0.0536,-7.36293 -0.0351,-11.04342 -0.12119,-3.38551 -0.17894,-6.90386 -1.53434,-10.06423 -0.22395,-0.32495 -0.41501,-0.67522 -0.67186,-0.97484 -0.21857,-0.25497 -1.00135,-0.461 -0.74513,-0.6781 12.11344,-10.26359 5.87479,-4.2886 4.41997,-1.77981 -1.49563,3.39559 -2.48144,7.19801 -3.15393,10.82966 -0.15104,1.15778 0.40802,2.75712 -0.52147,3.46374 -12.90193,9.80821 -7.7124,5.35838 -5.94343,1.0864 1.67506,-4.32626 2.65678,-9.08971 2.92641,-13.7043 0.36115,-6.92402 1.05132,-13.96534 -0.0987,-20.84018 0,0 7.49868,-3.9781 7.49868,-3.9781 z" />
    <path
       style="fill:#000000;fill-opacity:1;stroke:#000000;stroke-width:4.69999981;stroke-linecap:round;stroke-linejoin:round;stroke-miterlimit:4;stroke-opacity:1;stroke-dasharray:none;stroke-dashoffset:0"
       id="path2736"
       d="m 517.75693,278.2629 c -1.77434,8.13354 -4.60499,15.94446 -7.88568,23.57703 -3.03404,6.50068 -6.58323,12.66326 -11.24801,18.1245 -4.50324,5.10537 -9.7066,11.65561 -17.36181,9.25052 -4.45637,-2.78428 -4.3282,-7.89458 -4.01424,-12.56129 0.41798,-5.71338 1.88268,-11.36107 5.17546,-16.09386 5.39569,-4.60472 10.13616,-8.46321 17.29554,-6.99513 4.17268,1.86248 7.2904,5.38081 10.45271,8.57281 3.55254,3.66473 7.12506,7.30985 10.70669,10.94611 1.77533,1.55407 3.99512,5.21397 6.76098,4.11677 2.83541,-2.56629 -7.69333,8.89813 -5.73476,1.78143 0,0 7.6957,-3.7063 7.6957,-3.7063 l 0,0 c -0.74548,3.99145 -4.72957,6.08812 -8.77433,7.07499 -3.12121,0.0856 -5.14444,-2.88645 -7.17693,-4.84388 -3.58404,-3.63312 -7.13224,-7.30124 -10.70548,-10.94496 -3.0375,-3.07346 -6.07313,-6.53665 -10.18828,-8.128 -1.1775,-0.18961 -2.17931,-0.45405 -3.37599,-0.27879 -0.52541,0.077 -1.95502,0.76065 -1.53066,0.44143 10.60931,-7.98059 4.98899,-2.73441 2.36422,-1.39694 -3.52824,4.4344 -4.94012,10.09989 -5.4086,15.67234 -0.32041,4.17363 -0.77948,9.18035 3.47017,11.53426 3.81293,0.91836 7.07904,-1.23492 -2.4044,3.88678 -3.02872,1.63571 7.713,-5.26812 4.9613,-5.04138 4.80211,-5.31254 8.30582,-11.47502 11.40628,-17.90789 3.31558,-7.54448 6.13812,-15.28346 7.89416,-23.35225 0,0 7.62596,-3.7283 7.62596,-3.7283 z" />
    <path
       style="fill:#000000;fill-opacity:1;stroke:#000000;stroke-width:4.69999981;stroke-linecap:round;stroke-linejoin:round;stroke-miterlimit:4;stroke-opacity:1;stroke-dasharray:none;stroke-dashoffset:0"
       id="path2742"
       d="m 268.24821,640.97578 c -4.20921,5.72511 -8.22732,11.57479 -11.70871,17.77252 -2.19909,5.10854 -4.29041,10.33983 -5.75157,15.71841 -1.10559,4.8332 -1.21351,9.81049 -1.31132,14.74508 0.50981,2.61251 -0.87553,6.00844 0.27302,8.47294 0.5303,0.60335 1.21629,0.84401 1.99003,0.85013 0.0843,0.0226 0.11814,-0.0548 0.17722,-0.0821 0,0 -6.87958,5.1067 -6.87958,5.1067 l 0,0 c -0.093,-0.0218 -0.18507,-0.0475 -0.27902,-0.0653 -0.97652,-0.28834 -1.8304,-0.73593 -2.43731,-1.59857 -1.26063,-2.61302 -0.004,-6.04223 -0.40742,-8.84839 0.0922,-4.99241 0.19907,-10.0246 1.22741,-14.92949 1.39961,-5.45923 3.60241,-10.70682 5.69448,-15.92377 3.4286,-6.24814 7.5024,-12.06919 11.61081,-17.8848 0,0 7.80196,-3.3333 7.80196,-3.3333 z" />
    <path
       style="fill:#000000;fill-opacity:1;stroke:#000000;stroke-width:4.69999981;stroke-linecap:round;stroke-linejoin:round;stroke-miterlimit:4;stroke-opacity:1;stroke-dasharray:none;stroke-dashoffset:0"
       id="path2744"
       d="m 217.12346,652.665 c -3.79703,7.22847 -8.82387,13.72071 -13.86296,20.1156 -5.96077,7.19563 -13.9677,11.45418 -21.92698,16.0774 -3.51555,2.02229 -6.98051,3.08141 -10.94268,2.19143 -4.04958,-1.83961 -4.29486,-5.65281 -3.9924,-9.56039 0.92308,-4.32171 3.27501,-8.02155 5.85088,-11.53041 3.54471,-5.05274 7.57948,-6.34908 13.18729,-9.83048 1.82897,-1.13545 -7.57667,4.08386 -5.6314,3.16176 3.07937,-1.45968 6.02585,-3.18462 9.03878,-4.77692 3.4931,-0.7259 6.91816,1.15808 9.92256,2.76844 3.21738,2.24292 6.58981,4.25289 9.50017,6.89584 2.68636,2.31938 4.4437,5.25626 6.24468,8.24539 2.10544,3.1808 4.63577,6.04232 7.20213,8.8528 0.75232,1.61673 2.55266,1.30228 3.63952,2.33627 0.14537,0.19549 0.29074,0.39097 0.43611,0.58646 0,0 -7.34528,4.36852 -7.34528,4.36852 l 0,0 c -0.11126,-0.13999 -0.22252,-0.27998 -0.33378,-0.41996 -1.2861,-0.80113 -2.87865,-0.90975 -3.6812,-2.45853 -2.56751,-2.87971 -5.12564,-5.78366 -7.27232,-8.99897 -1.76923,-2.91027 -3.46558,-5.78537 -6.10861,-8.03318 -2.89592,-2.55242 -6.18894,-4.57923 -9.39033,-6.7208 -2.92478,-1.52817 -6.16215,-3.20614 -9.51259,-2.19336 9.64869,-6.11579 5.64619,-3.49839 -3.31464,1.72348 -1.85178,1.07911 3.62217,-2.30172 5.52163,-3.29451 0.85021,-0.44438 -4.5498,3.73092 -4.30911,4.42728 -2.57717,3.39258 -4.91742,6.93535 -6.04656,11.09998 -0.31915,3.46649 -0.50196,7.04705 3.3729,8.48723 3.82052,0.6548 7.23405,-0.75776 10.54295,-2.65389 -1.63597,0.9572 -3.21406,2.02099 -4.90789,2.8716 -0.82739,0.41549 1.53092,-1.04169 2.29758,-1.56076 3.74371,-2.53467 7.28322,-5.27391 10.22252,-8.7522 5.04011,-6.32869 10.08192,-12.75804 13.87296,-19.9296 0,0 7.72607,-3.49552 7.72607,-3.49552 z" />
    <path
       style="fill:#000000;fill-opacity:1;stroke:#000000;stroke-width:4.69999981;stroke-linecap:round;stroke-linejoin:round;stroke-miterlimit:4;stroke-opacity:1;stroke-dasharray:none;stroke-dashoffset:0"
       id="path2750"
       d="m 837.41454,500.96932 c -6.3118,0.38252 -12.3478,0.39483 -17.9219,-2.8379 -6.3319,-4.31925 -7.515,-11.78468 -9.0825,-18.78278 -2.6549,-14.49653 -0.3881,-29.22327 1.9459,-43.5929 4.3731,-24.30188 11.5858,-47.96083 19.3352,-71.3644 9.9975,-30.29491 24.8329,-58.4429 41.4938,-85.51576 11.5812,-17.88104 24.6978,-34.818 40.1634,-49.53152 9.3945,-8.93772 13.415,-11.60162 23.6163,-19.43199 18.4189,-12.55642 37.9335,-23.86537 58.8656,-31.7009 12.77666,-4.78275 15.45516,-5.14186 28.62856,-8.63053 30.4186,-7.39003 59.884,-7.17104 90.7407,-3.60702 31.2754,4.11028 59.8221,17.21611 87.1734,32.24056 21.8725,13.16934 42.3216,29.01314 59.2205,48.2522 3.3386,3.80096 6.3733,7.85846 9.56,11.78768 19.8977,25.07786 32.1756,54.52879 42.1697,84.63546 10.0836,30.79558 13.2067,63.00709 15.0409,95.16331 1.2982,29.45904 -1.7415,58.75937 -8.5735,87.38622 -5.588,19.76868 -13.0808,39.25061 -24.8195,56.25297 -2.2519,3.26169 -4.7875,6.31806 -7.1813,9.47709 -15.2896,19.83637 -35.7972,33.92262 -57.1573,46.42771 -26.4822,15.86465 -55.9402,24.82773 -85.6603,32.29769 -32.6701,7.14753 -65.8371,11.31686 -99.1472,13.88759 -26.9596,1.75358 -54.26726,2.09299 -81.03156,-2.17376 -4.9376,-0.78716 -9.8196,-1.89067 -14.7294,-2.83601 -22.2698,-4.95312 -43.6608,-13.93097 -62.1656,-27.40349 -3.4221,-2.49149 -6.5834,-5.32271 -9.8752,-7.98407 -14.9932,-13.2801 -26.768,-29.85731 -34.4229,-48.37927 -1.5392,-3.7244 -2.7363,-7.58118 -4.1045,-11.37177 -7.8676,-22.9596 -10.0547,-47.07102 -10.3704,-71.168 0.124,-21.1627 3.1663,-42.04 7.6559,-62.66747 3.0878,-12.77698 1.5563,-6.58922 4.5827,-18.56624 0,0 7.4091,-3.54483 7.4091,-3.54483 l 0,0 c -3.0868,11.97892 -1.537,5.79372 -4.6336,18.55957 -4.5333,20.57706 -7.6006,41.40528 -7.7885,62.52638 0.2642,24.02007 2.3728,48.0504 10.2225,70.94027 1.3563,3.76889 2.5398,7.60448 4.0688,11.30666 7.6022,18.40783 19.3205,34.87845 34.2139,48.07712 3.2739,2.64081 6.4186,5.4505 9.8219,7.92243 18.4382,13.39239 39.7481,22.28608 61.9249,27.18852 13.2751,2.53264 16.3061,3.43032 29.8559,4.71631 21.83736,2.07256 43.85866,1.68849 65.71236,0.17114 33.3034,-2.60785 66.4693,-6.80299 99.1183,-14.03413 24.608,-6.24676 48.8258,-13.63785 71.821,-24.57341 21.3564,-12.41138 41.9041,-26.38311 57.2397,-46.11958 2.4012,-3.13593 4.9438,-6.16839 7.2034,-9.40779 11.7988,-16.91484 19.363,-36.32958 24.9983,-56.04597 6.9176,-28.55923 10.015,-57.80133 8.7576,-87.21711 -1.7981,-32.09205 -4.8741,-64.24879 -14.9318,-94.98409 -9.9602,-30.01886 -22.1898,-59.38434 -42.0606,-84.36707 -3.1757,-3.91145 -6.1994,-7.95132 -9.527,-11.73436 -16.8606,-19.16846 -37.2517,-34.95489 -59.0776,-48.05205 -27.2958,-14.96796 -55.7937,-27.96343 -87.0046,-31.98192 -30.8216,-3.48224 -60.223,-3.6156 -90.5767,3.85659 -4.8134,1.29204 -9.6735,2.42134 -14.4403,3.87612 -12.74766,3.89053 -15.42716,5.42463 -27.67006,10.46456 -2.124,0.87434 -4.3504,1.52303 -6.3885,2.58226 -10.0921,5.24512 -15.7877,9.35361 -25.2642,15.60217 -10.1597,7.73884 -14.328,10.49474 -23.6855,19.33585 -15.5012,14.64566 -28.6441,31.53538 -40.2466,49.3766 -16.675,26.99505 -31.5411,55.06358 -41.4978,85.3137 -7.7199,23.33718 -14.885,46.93228 -19.2219,71.16716 -2.3004,14.2456 -4.5478,28.85521 -1.9186,43.2234 1.5189,6.74837 2.6042,14.04699 8.7853,18.1394 5.4808,2.98954 11.5085,2.87468 17.6154,2.35122 0,0 -6.784,5.10218 -6.784,5.10218 z" />
    <path
       style="fill:#000000;fill-opacity:1;stroke:#000000;stroke-width:4.69999981;stroke-linecap:round;stroke-linejoin:round;stroke-miterlimit:4;stroke-opacity:1;stroke-dasharray:none;stroke-dashoffset:0"
       id="path2752"
       d="m 1085.0852,435.00647 c -4.9274,2.71162 -13.6807,11.39943 -18.5062,7.42078 -1.6376,-3.5021 1.1103,-6.65231 3.6488,-8.81423 7.6833,-4.61744 11.678,-8.11301 19.7797,-4.3436 3.6904,2.58014 4.6234,5.84722 3.0191,9.90044 -4.3796,5.99472 -11.8453,9.43266 -18.8962,11.41138 -4.9776,1.1858 -9.9017,0.95362 -13.0246,-3.40722 -2.4253,-5.00855 -0.049,-10.21015 2.7152,-14.53648 5.4425,-6.23609 13.2372,-10.93289 21.5869,-9.26327 4.7252,0.9598 7.5342,4.11945 8.9801,8.52975 0.5255,3.62516 -1.0145,6.44604 -3.7766,8.65732 -5.5031,3.41405 -10.4069,7.5268 -16.4423,3.95624 -6.5256,-5.36907 3.8141,-6.74733 7.2301,-7.90986 1.8234,5.83633 -7.6014,8.20393 -10.7022,9.68894 -6.7532,-0.96645 6.365,-8.68133 4.5639,-2.7701 -0.6267,3.01015 0.047,0.36216 -7.7098,2.78407 0,0 7.5889,-3.86052 7.5889,-3.86052 l 0,0 c -7.7761,5.33243 -8.0036,8.31113 -7.5891,4.76725 0.8621,-4.1374 6.1065,-7.7142 10.0595,-5.92227 -14.2209,8.93172 -2.6835,3.5647 -3.5375,-0.32438 2.323,-1.53115 4.6974,-2.98705 6.969,-4.59347 0.3829,-0.27077 -1.1201,0.17633 -1.2612,0.62356 -0.3855,1.22211 0.5964,2.31937 1.5141,2.86818 5.4452,2.74397 12.3216,-2.73279 1.4032,3.83233 2.7414,-1.85886 4.5375,-4.22999 4.2466,-7.70887 -1.3154,-4.20064 -3.9974,-6.9625 -8.4763,-7.75698 -2.3712,-0.34954 -2.5612,-0.55279 -5.0382,-0.15852 -0.8542,0.13597 -3.1221,1.24998 -2.5164,0.63252 1.321,-1.34676 3.1604,-2.06775 4.8143,-2.97518 1.5901,-0.87241 -6.2141,3.90057 -4.1573,3.51032 -2.7056,3.92911 -5.3289,8.87344 -3.1538,13.60736 2.9647,4.04551 7.9176,3.69917 12.4149,2.55881 2.7318,-0.85504 10.7829,-4.762 -0.1206,1.19351 -2.4565,1.34171 7.1174,-4.10961 4.5949,-3.88151 1.7808,-3.95576 1.3927,-6.11226 -2.3708,-8.75837 -2.0086,-0.87083 -3.7687,-1.58674 -6.0144,-1.32978 -2.9711,0.33996 -5.0601,1.76624 -4.2852,1.17204 1.699,-1.30277 3.6543,-2.23185 5.4815,-3.34778 -2.277,1.61491 -5.2402,4.28652 -4.3389,7.40678 2.1351,1.3292 4.5899,-0.64929 3.8029,-0.0228 -10.1674,8.09409 -3.2875,1.253 -0.3698,0.32347 0,0 7.8738,-3.15982 7.8738,-3.15982 z" />
    <path
       style="fill:#000000;fill-opacity:1;stroke:#000000;stroke-width:4.69999981;stroke-linecap:round;stroke-linejoin:round;stroke-miterlimit:4;stroke-opacity:1;stroke-dasharray:none;stroke-dashoffset:0"
       id="path2754"
       d="m 1078.0618,444.25907 c -0.05,8.25563 -0.036,16.51156 -0.032,24.76731 0.014,7.76175 0,15.52351 0,23.28527 -0.01,9.05919 -0.01,18.11838 -0.018,27.17758 -0.01,10.23585 -0.01,20.47171 10e-4,30.70756 0.01,8.40565 0,16.81136 0.024,25.21699 0.01,6.00653 0.011,12.01304 0.014,18.01957 -0.3208,4.91823 0.1314,9.63757 1.2598,14.41235 0.9535,3.86038 1.3003,7.81612 1.5096,11.77419 0.14,4.06098 0.124,8.12576 0.1175,12.18863 -0.1784,4.32656 1.2255,8.49217 2.0223,12.70209 0.5901,3.57298 0.7482,7.19106 0.8125,10.80514 -0.3862,3.40506 0.8188,6.47732 1.6932,9.68949 0.6042,2.0771 0.9712,4.18575 1.1404,6.33783 0.4282,0.85049 1.2818,1.18834 2.1405,1.43672 0,0 -7.0793,4.81272 -7.0793,4.81272 l 0,0 c -1.1413,-0.46295 -2.11,-1.16929 -2.6427,-2.31942 -0.1291,-2.1066 -0.4532,-4.17268 -1.0339,-6.20744 -0.8767,-3.27512 -2.1869,-6.40857 -1.7832,-9.87841 -0.063,-3.57029 -0.183,-7.14745 -0.7449,-10.6809 -0.7816,-4.26327 -2.211,-8.47617 -2.0871,-12.84549 2e-4,-4.04859 0.026,-8.09862 -0.1082,-12.1456 -0.1788,-3.91206 -0.5014,-7.82463 -1.4283,-11.64232 -1.1359,-4.84272 -1.6942,-9.60489 -1.3278,-14.59795 0,-6.01125 0.01,-12.02249 0.014,-18.03373 0.019,-8.41388 0.016,-16.82782 0.024,-25.24172 0.01,-10.2362 0.01,-20.47242 0,-30.70862 -0.01,-9.05316 -0.01,-18.10632 -0.018,-27.15948 0,-7.76315 -0.01,-15.52631 0,-23.28946 0,-8.24493 0.018,-16.49004 -0.032,-24.73485 0,0 7.5522,-3.84805 7.5522,-3.84805 z" />
    <path
       style="fill:#000000;fill-opacity:1;stroke:#000000;stroke-width:4.69999981;stroke-linecap:round;stroke-linejoin:round;stroke-miterlimit:4;stroke-opacity:1;stroke-dasharray:none;stroke-dashoffset:0"
       id="path2756"
       d="m 1047.8654,637.60896 c 4.612,4.98927 9.1971,9.99024 13.6285,15.14399 2.8594,4.063 5.7862,8.08079 8.2678,12.38831 1.9804,3.29543 4.1056,6.48059 6.0919,9.77163 1.1445,2.06963 2.6138,3.93817 4.1213,5.75271 -1.1947,1.50853 4.7519,-1.68081 3.7872,-1.20749 -6.2647,3.07394 -7.5846,4.83189 -4.4599,1.50255 3.9471,-4.27064 7.3079,-8.93058 10.444,-13.81334 3.5429,-5.61733 7.9492,-10.59947 11.6779,-16.08212 2.3416,-3.39168 4.703,-6.77236 6.8782,-10.27474 0.7806,-1.41985 1.8312,-2.74269 2.1179,-4.36466 0.1109,-0.8243 0.1054,-1.65704 0.1059,-2.48679 0,0 7.6095,-3.88031 7.6095,-3.88031 l 0,0 c 0.01,0.86484 0.035,1.73149 -0.049,2.59394 -0.1908,1.79166 -1.0247,3.18005 -2.0057,4.70035 -2.1556,3.54089 -4.5347,6.91827 -6.8978,10.32359 -3.7072,5.51125 -8.1242,10.48474 -11.7212,16.07786 -3.1276,4.89976 -6.3792,9.63933 -10.3375,13.92027 -2.4389,2.79594 -10.1264,9.81608 -14.4781,7.38156 -1.5028,-1.86828 -2.9963,-3.77076 -4.1511,-5.87832 -1.9728,-3.30481 -4.1099,-6.49135 -6.0838,-9.79645 -2.4322,-4.27411 -5.3474,-8.23771 -8.1578,-12.26876 -4.4118,-5.18455 -9.0074,-10.19485 -13.6707,-15.15113 0,0 7.2825,-4.35265 7.2825,-4.35265 z" />
    <path
       style="fill:#000000;fill-opacity:1;stroke:#000000;stroke-width:4.69999981;stroke-linecap:round;stroke-linejoin:round;stroke-miterlimit:4;stroke-opacity:1;stroke-dasharray:none;stroke-dashoffset:0"
       id="path2758"
       d="m 1109.1751,521.45592 c -1.3852,9.03177 -1.8904,18.15884 -2.2587,27.27828 -0.2644,7.59979 -0.3041,15.20446 -0.3087,22.80802 0,0.76118 0,1.52236 0.01,2.28354 0,1.10611 0.1732,3.07182 0.04,3.12201 -8.131,3.05695 -7.6096,4.99292 -7.5891,0.75588 0,-5.58948 1.7818,-11.0381 3.6744,-16.24094 2.7799,-6.51422 6.2321,-12.61564 10.8907,-17.95863 6.2575,-5.48364 13.3794,-10.28163 21.3759,-12.76577 3.0969,-0.77694 6.2858,-0.94588 9.4641,-0.97521 1.3241,0.0149 2.648,0.0445 3.9719,0.0723 0,0 -6.9332,5.01218 -6.9332,5.01218 l 0,0 c -1.3114,-0.0347 -2.6233,-0.0648 -3.9353,-0.0599 -3.1231,0.0536 -6.2558,0.27512 -9.2721,1.15045 -2.5305,0.85451 -10.1276,4.26733 0.5933,-1.25529 0.8496,-0.43764 -1.5906,1.06016 -2.3716,1.61093 -2.7174,1.91629 -2.5432,1.84726 -5.1198,3.93966 -4.7626,5.19186 -8.1669,11.2424 -11.0151,17.66824 -1.9221,5.08514 -3.6981,10.46218 -3.7446,15.94263 0,4.68433 0.4575,1.80957 -7.6084,6.99313 -0.122,0.0784 0,-0.28986 0,-0.43479 0.018,-1.56424 0.01,-0.60742 0.018,-2.72734 0,-0.7647 0.01,-1.52941 0.01,-2.29411 0.034,-7.62604 0.1136,-15.25284 0.3721,-22.87504 0.3536,-9.12727 0.8618,-18.25642 2.1292,-27.31012 0,0 7.6052,-3.74007 7.6052,-3.74007 z" />
    <path
       style="fill:#000000;fill-opacity:1;stroke:#000000;stroke-width:4.69999981;stroke-linecap:round;stroke-linejoin:round;stroke-miterlimit:4;stroke-opacity:1;stroke-dasharray:none;stroke-dashoffset:0"
       id="path2760"
       d="m 1146.1275,590.39436 c -4.2674,-3.19501 -7.8117,-7.30038 -7.4735,-12.84703 2.3126,-5.90255 9.3889,-10.17995 15.6777,-9.85459 3.7905,0.45781 5.8832,3.48633 7.3768,6.704 0.9334,4.53575 0.302,9.13419 -1.0464,13.50639 -2.6296,5.14728 -8.5025,9.92647 -14.5293,8.75973 0,0 6.9629,-4.90623 6.9629,-4.90623 l 0,0 c 3.6074,0.34048 6.4176,-2.23557 -3.4695,3.4561 -1.6548,0.9526 4.5897,-2.9425 3.3588,-3.69366 1.3943,-4.1769 2.065,-8.54981 1.3328,-12.9436 -1.3838,-2.99768 -3.2868,-5.69297 -6.8607,-5.88447 -1.1442,0.0725 -4.2958,1.35586 -3.3722,0.67654 10.8409,-7.97398 3.5386,-2.45338 2.1734,0.39737 -0.7259,5.27307 3.0734,9.15665 7.0536,12.1167 0,0 -7.1844,4.51275 -7.1844,4.51275 z" />
    <path
       style="fill:#000000;fill-opacity:1;stroke:#000000;stroke-width:4.69999981;stroke-linecap:round;stroke-linejoin:round;stroke-miterlimit:4;stroke-opacity:1;stroke-dasharray:none;stroke-dashoffset:0"
       id="path2762"
       d="m 1102.9638,487.01399 c 8.5822,0.39889 17.0912,-0.85455 25.6044,-1.7351 6.6389,-0.64516 13.2997,-0.93686 19.9654,-1.08984 2.8508,-0.0412 5.702,-0.0727 8.5532,-0.0671 0.2349,-0.003 0.4697,0.005 0.7044,0.01 0,0 -6.9418,5.01997 -6.9418,5.01997 l 0,0 c -0.2272,-0.003 -0.4544,-0.006 -0.6816,-0.009 -2.8251,-0.0259 -5.6505,-0.01 -8.4753,0.0394 -6.6353,0.14142 -13.2662,0.45634 -19.8733,1.10661 -8.5499,0.87956 -17.0954,2.03762 -25.7127,1.70695 0,0 6.8573,-4.9821 6.8573,-4.9821 z" />
    <path
       style="fill:#000000;fill-opacity:1;stroke:#000000;stroke-width:4.69999981;stroke-linecap:round;stroke-linejoin:round;stroke-miterlimit:4;stroke-opacity:1;stroke-dasharray:none;stroke-dashoffset:0"
       id="path2764"
       d="m 1157.0212,471.05692 c 6.1263,2.50977 11.9351,5.69009 18.0202,8.28634 3.0959,1.71696 6.2617,3.24316 9.6014,4.421 1.196,0.30121 2.5058,0.58355 1.3935,2.08201 -25.9831,15.04439 6.8683,-3.40277 -4.5939,3.43144 -2.9956,1.78606 -6.0303,3.5056 -9.0454,5.2584 -0.5866,0.30156 -2.3258,1.24343 -1.7599,0.90467 15.4609,-9.2546 -7.3997,3.96226 -11.0135,5.93379 -2.4805,1.40122 -2.0207,1.21178 -4.562,2.37652 -0.6515,0.29859 -2.5788,1.23928 -1.9696,0.86185 10.545,-6.53329 5.7482,-3.37386 3.637,-1.52486 -0.5225,0.46269 -0.9602,1.00097 -1.3884,1.54748 0,0 -7.8246,3.47311 -7.8246,3.47311 l 0,0 c 0.3216,-0.67813 0.8086,-1.24915 1.3242,-1.79024 4.8933,-4.74302 11.5517,-6.91067 17.3708,-10.24711 0.8471,-0.4525 1.6941,-0.905 2.5412,-1.35751 0.7927,-0.40312 1.5925,-0.79281 2.3782,-1.20937 0.7515,-0.3984 2.9523,-1.68882 2.2329,-1.23514 -12.5287,7.90024 0.823,-0.95323 5.6317,-3.07447 -19.015,11.13002 21.3503,-12.4904 -1.3005,0.43264 -0.1898,0.10827 0.3119,-0.30604 0.4679,-0.45906 0.7217,-0.68814 1.799,0.34942 -0.5928,-0.63444 -3.3123,-1.25212 -6.4566,-2.83059 -9.5779,-4.49664 -6.0682,-2.66853 -11.8983,-5.84146 -18.0547,-8.3193 0,0 7.0842,-4.66111 7.0842,-4.66111 z" />
    <path
       style="fill:#000000;fill-opacity:1;stroke:#000000;stroke-width:4.69999981;stroke-linecap:round;stroke-linejoin:round;stroke-miterlimit:4;stroke-opacity:1;stroke-dasharray:none;stroke-dashoffset:0"
       id="path2766"
       d="m 1066.0276,681.36287 c -8.7735,2.32008 -17.7275,4.08751 -26.6816,5.59415 -13.0164,2.84906 -26.2917,3.79303 -39.56566,4.4192 -18.1613,0.62639 -36.3377,0.56407 -54.5072,0.5715 -21.3513,-0.002 -42.7026,-0.0291 -64.0539,-0.0423 -20.7509,0.30332 -41.4184,2.02069 -62.0915,3.66705 -13.8353,1.58325 -27.6507,3.31889 -41.5377,4.39057 -5.5133,0.3722 -11.0376,0.58963 -16.56297,0.66102 -2.12357,-0.92659 -2.09491,-3.39738 -2.88197,-5.32902 -0.15306,-0.33882 -0.30612,-0.67763 -0.45917,-1.01644 0,0 7.42661,-4.18868 7.42661,-4.18868 l 0,0 c 0.1561,0.34795 0.3121,0.6959 0.4682,1.04385 0.6245,1.50877 0.6288,3.98612 2.3369,4.4734 5.4745,-0.0391 10.9479,-0.24524 16.41,-0.61831 13.8362,-1.04967 27.6005,-2.76796 41.3906,-4.28477 20.6675,-1.63011 41.3334,-3.30296 62.0772,-3.57614 21.3609,0.007 42.7218,0.0211 64.0827,0.02 18.1892,-0.0281 36.3859,0.0122 54.56536,-0.66261 13.2859,-0.6681 26.5582,-1.70922 39.5856,-4.55891 8.9617,-1.55578 17.9549,-3.2682 26.6992,-5.76932 0,0 -6.7007,5.20576 -6.7007,5.20576 z" />
    <path
       style="fill:#000000;fill-opacity:1;stroke:#000000;stroke-width:4.69999981;stroke-linecap:round;stroke-linejoin:round;stroke-miterlimit:4;stroke-opacity:1;stroke-dasharray:none;stroke-dashoffset:0"
       id="path2768"
       d="m 765.06334,655.3065 c -6.78355,6.99833 -14.10392,13.45041 -21.6487,19.61146 -7.63713,6.08412 -15.52631,11.85267 -23.54561,17.42169 -1.75377,3.34733 -31.01065,19.24971 -13.08707,9.3907 -2.53168,1.66586 -1.23109,3.2496 0.52497,5.01409 4.13083,3.5672 8.94434,6.22537 13.71945,8.82504 8.54984,4.81035 17.4301,8.94143 26.59268,12.43305 8.08693,3.21678 16.44198,5.74228 24.75198,8.32603 8.2965,2.47343 7.4858,2.11924 -3.326,6.70559 -1.4521,-0.3895 -2.561,-1.3839 -3.7101,-2.29258 0,0 7.2025,-4.53845 7.2025,-4.53845 l 0,0 c 1.074,0.8187 2.1103,1.67807 3.4781,1.94128 -8.0468,5.62005 -2.8875,5.21544 -10.6213,2.93449 -8.28839,-2.64964 -16.64154,-5.16282 -24.71669,-8.41187 -9.18304,-3.55064 -18.10127,-7.6984 -26.70809,-12.48852 -4.8561,-2.63085 -9.74883,-5.34802 -13.92489,-8.99738 -1.76463,-1.85091 -3.8519,-4.30076 -1.17148,-6.32605 14.25771,-8.59599 9.13788,-5.47602 3.13764,-1.95486 -0.70442,0.41338 1.42641,-0.80012 2.10214,-1.25889 2.77911,-1.88681 5.29889,-4.15908 7.93812,-6.22601 8.03135,-5.56542 15.95253,-11.29995 23.60607,-17.37762 7.54208,-6.08958 14.85283,-12.49661 21.57628,-19.48791 0,0 7.83,-3.24328 7.83,-3.24328 z" />
    <path
       style="fill:#000000;fill-opacity:1;stroke:#000000;stroke-width:4.69999981;stroke-linecap:round;stroke-linejoin:round;stroke-miterlimit:4;stroke-opacity:1;stroke-dasharray:none;stroke-dashoffset:0"
       id="path2770"
       d="m 840.70594,741.40112 c -3.8123,-4.18714 -8.5247,-8.80059 -14.5819,-7.73729 -0.6072,0.35965 -2.4705,1.35613 -1.8216,1.07894 1.9406,-0.82884 3.634,-2.34669 5.7074,-2.73863 0.731,-0.13818 -0.8814,1.21057 -1.1943,1.88553 -1.2858,2.77317 -1.4636,5.659 -1.5198,8.65031 0.1603,7.02561 2.1355,13.78683 3.4566,20.64158 1.0852,6.11375 1.3909,12.32856 1.5535,18.52459 0.3391,5.67769 -1.1168,11.1313 -3.5616,16.20304 -1.878,3.35845 -4.0351,6.70634 -7.2365,8.92465 -5.802,3.95794 -6.7183,5.92735 -11.485,3.75376 0,0 7.0976,-4.73755 7.0976,-4.73755 l 0,0 c 3.6086,1.37362 7.0848,-1.80671 -3.5505,4.0717 3.3515,-1.96586 5.5314,-5.20462 7.4609,-8.52234 2.5405,-4.90832 4.055,-10.25967 3.7475,-15.83415 -0.1447,-6.15692 -0.4077,-12.33395 -1.4692,-18.41255 -1.3066,-6.91041 -3.306,-13.71345 -3.5406,-20.78431 -0.038,-9.99835 2.5865,-13.72911 13.1596,-17.76934 6.2933,-0.38553 11.0372,4.05456 15.0605,8.4494 0,0 -7.2826,4.35266 -7.2826,4.35266 z" />
    <path
       style="fill:#000000;fill-opacity:1;stroke:#000000;stroke-width:4.69999981;stroke-linecap:round;stroke-linejoin:round;stroke-miterlimit:4;stroke-opacity:1;stroke-dasharray:none;stroke-dashoffset:0"
       id="path2772"
       d="m 796.82954,780.50434 c 7.7835,-2.17381 15.5436,-4.42312 23.4651,-6.04708 7.6844,-2.03422 15.5303,-3.23703 23.2861,-4.93796 6.5857,-1.44476 13.3227,-2.04185 20.0455,-2.37264 2.4314,0.16682 4.6125,-0.50757 6.7219,-1.62519 0,0 -6.6679,5.31324 -6.6679,5.31324 l 0,0 c -2.1946,0.93503 -4.4625,1.43263 -6.8715,1.31896 -6.6893,0.35931 -13.3855,0.97886 -19.9318,2.45984 -7.7559,1.68443 -15.5991,2.91028 -23.284,4.9259 -7.919,1.66857 -15.7021,3.89383 -23.4641,6.1707 0,0 6.7007,-5.20577 6.7007,-5.20577 z" />
    <path
       style="fill:#000000;fill-opacity:1;stroke:#000000;stroke-width:4.69999981;stroke-linecap:round;stroke-linejoin:round;stroke-miterlimit:4;stroke-opacity:1;stroke-dasharray:none;stroke-dashoffset:0"
       id="path2774"
       d="m 888.24824,800.97578 c -5.5851,6.89184 -12.7903,10.9464 -20.3853,15.29764 -3.3135,1.80661 -4.8598,-0.56972 -5.6258,-3.53899 -0.6525,-3.65776 0.9525,-7.09196 3.1988,-9.88052 4.1658,-3.8104 10.1153,-7.88462 16.0701,-6.8516 4.565,0.7198 6.0684,4.44477 7.1861,8.43453 1.224,4.78447 0.6116,8.84581 -3.1389,12.16932 -7.2631,4.68639 -7.804,5.57376 -14.0503,4.10047 0,0 6.9655,-4.83925 6.9655,-4.83925 l 0,0 c 4.1313,0.79374 8.3593,-1.15075 -0.7886,3.89894 3.9786,-2.8641 4.7171,-6.59048 3.5522,-11.27358 -1.0103,-3.77592 -2.3181,-7.07915 -6.6698,-7.57752 -1.659,-0.12456 -3.0942,-0.0126 -4.676,0.56709 -0.4404,0.16139 -1.6777,0.83194 -1.2822,0.57972 7.674,-4.89432 7.3158,-4.70078 4.6648,-2.50969 -2.3268,2.39693 -4.0226,5.71209 -3.5343,9.13148 0.671,2.88513 1.8832,3.92497 4.7413,2.26695 -1.809,1.07821 -3.5756,2.23101 -5.427,3.23464 -0.6854,0.37154 1.2895,-0.87696 1.921,-1.33411 3.4662,-2.50922 6.6463,-5.32365 9.4764,-8.54223 0,0 7.802,-3.33329 7.802,-3.33329 z" />
    <path
       style="fill:#000000;fill-opacity:1;stroke:#000000;stroke-width:4.69999981;stroke-linecap:round;stroke-linejoin:round;stroke-miterlimit:4;stroke-opacity:1;stroke-dasharray:none;stroke-dashoffset:0"
       id="path2811"
       d="m 1471.0888,672.59875 c -1.8264,2.0783 -4.4612,3.12824 -7.0826,3.79416 -4.1406,0.84969 -8.3609,0.72687 -12.5365,0.27443 -4.2097,-0.57382 -8.493,-1.64864 -12.0871,-4.01656 -0.6934,-0.45682 -1.3183,-1.00988 -1.9775,-1.51483 -3.2676,-3.10837 -5.023,-6.79939 -5.2459,-11.32602 -0.048,-0.97281 0.041,-1.94754 0.061,-2.92131 0.7033,-5.988 3.4629,-11.4556 7.2076,-16.12826 0.8727,-1.08899 1.8491,-2.09068 2.7737,-3.13603 1.0516,-0.98485 2.0549,-2.02405 3.1549,-2.95456 2.3143,-1.95773 4.6851,-3.56927 7.3165,-5.07018 3.4308,-1.95686 5.659,-3.1331 9.2926,-4.35997 1.3688,-0.46217 2.7814,-0.78268 4.1722,-1.17402 5.2069,-1.08933 10.6113,-1.25485 15.7218,0.42625 3.1257,1.02823 3.7453,1.63177 6.5028,3.33362 3.609,2.77418 6.5295,6.30732 8.0092,10.66283 0.8614,2.53529 0.7866,3.4302 1.0217,6.05238 -0.085,4.01782 -1.3294,7.77224 -3.8239,10.94483 -1.6338,2.07792 -2.488,2.61516 -4.5151,4.32221 -4.0448,3.01651 -8.572,5.39565 -13.3834,6.92897 -2.2282,0.71006 -3.9837,1.06397 -6.2371,1.57709 0,0 1.1463,-0.87263 1.1463,-0.87263 l 0,0 c 6.2375,-1.41787 11.9992,-3.136 17.1461,-7.09695 2.0266,-1.68946 2.8822,-2.22348 4.5219,-4.28145 2.5009,-3.13891 3.7648,-6.86128 3.8682,-10.85732 -0.2231,-2.60567 -0.1446,-3.49484 -0.993,-6.01548 -1.4585,-4.33355 -4.3626,-7.8422 -7.9509,-10.59656 -2.7511,-1.69156 -3.3543,-2.28332 -6.4731,-3.30026 -5.095,-1.66131 -10.4774,-1.47977 -15.6611,-0.38137 -1.3866,0.39404 -2.7953,0.71719 -4.1597,1.18211 -6.5982,2.24835 -12.5009,6.0291 -17.3928,10.9895 -0.9241,1.04012 -1.8999,2.0366 -2.7724,3.12038 -3.7358,4.64025 -6.4939,10.07635 -7.205,16.03211 -0.022,0.96664 -0.112,1.93416 -0.065,2.89992 0.2163,4.48764 1.9535,8.14372 5.1977,11.22023 0.6551,0.49936 1.2764,1.04655 1.9653,1.49807 3.5878,2.35132 7.8569,3.40672 12.0537,3.9678 4.178,0.43431 8.4021,0.54151 12.5372,-0.34123 0.4851,-0.12884 0.9769,-0.23434 1.4551,-0.38651 0.4306,-0.13702 0.8306,-0.36601 1.2679,-0.47994 0.093,-0.0244 -0.2915,0.24956 -0.2066,0.20345 0.7562,-0.41055 1.3829,-0.97833 1.9555,-1.61222 0,0 1.42,-0.60668 1.42,-0.60668 z"
       transform="translate(-360.57741,64.792766)" />
    <path
       style="fill:#000000;fill-opacity:1;stroke:#000000;stroke-width:4.69999981;stroke-linecap:round;stroke-linejoin:round;stroke-miterlimit:4;stroke-opacity:1;stroke-dasharray:none;stroke-dashoffset:0"
       id="path2815"
       d="m 1454.6289,647.03792 c 1.4858,-1.8391 2.8833,-3.74237 4.2521,-5.66911 1.3679,-1.99143 2.6473,-4.03896 4.1145,-5.96044 0.5602,-0.58688 0.8442,-1.42448 1.4573,-1.96306 0.4929,-0.43302 1.1635,-0.60729 1.7547,-0.89175 0.5657,0.66911 0.4126,1.76853 0.4262,2.58887 0.047,2.30007 -0.017,4.59427 -0.1574,6.88965 -0.1157,3.22037 -0.5838,6.40352 -1.1037,9.57789 -0.5576,2.88734 -0.9399,5.80388 -1.5019,8.69026 -0.3277,1.58527 -0.6463,3.17471 -0.8109,4.78635 -0.14,1.50715 0.4013,1.1315 -1.4499,1.58423 7e-4,-0.12168 0,-0.24335 0,-0.36503 0,0 1.3774,-0.70096 1.3774,-0.70096 l 0,0 c -6e-4,0.12165 -0,0.24329 -0,0.36494 -1.82,1.40044 -1.3897,1.38432 -1.3056,-0.19854 0.1639,-1.62145 0.4981,-3.21833 0.8311,-4.81206 0.5737,-2.88567 0.9581,-5.80335 1.5164,-8.692 0.5196,-3.16887 0.998,-6.34566 1.1051,-9.56145 0.1338,-2.28776 0.1966,-4.57348 0.136,-6.86546 -0.014,-0.68906 0.1447,-1.80516 -0.3187,-2.37324 0.3898,-0.24496 0.7842,-0.4827 1.1693,-0.73489 0.075,-0.0494 -0.1658,0.0737 -0.2393,0.12587 -0.6683,0.47517 -0.9147,1.38142 -1.4881,1.94979 -1.4815,1.91624 -2.7704,3.9621 -4.1332,5.96231 -1.3626,1.92064 -2.7506,3.81919 -4.2135,5.66534 0,0 -1.418,0.60249 -1.418,0.60249 z"
       transform="translate(-360.57741,64.792766)" />
  </g>
</svg>
