<?xml version="1.0" encoding="UTF-8" standalone="no"?>
<!-- Created with Inkscape (http://www.inkscape.org/) -->
<svg
   xmlns:dc="http://purl.org/dc/elements/1.1/"
   xmlns:cc="http://creativecommons.org/ns#"
   xmlns:rdf="http://www.w3.org/1999/02/22-rdf-syntax-ns#"
   xmlns:svg="http://www.w3.org/2000/svg"
   xmlns="http://www.w3.org/2000/svg"
   xmlns:sodipodi="http://sodipodi.sourceforge.net/DTD/sodipodi-0.dtd"
   xmlns:inkscape="http://www.inkscape.org/namespaces/inkscape"
   width="1150.3556"
   height="724.72461"
   id="svg3566"
   sodipodi:version="0.32"
   inkscape:version="0.46+devel"
   version="1.0"
   sodipodi:docname="c25d2.svg"
   inkscape:output_extension="org.inkscape.output.svg.inkscape">
  <defs
     id="defs3568">
    <inkscape:perspective
       sodipodi:type="inkscape:persp3d"
       inkscape:vp_x="0 : 526.18109 : 1"
       inkscape:vp_y="0 : 1000 : 0"
       inkscape:vp_z="744.09448 : 526.18109 : 1"
       inkscape:persp3d-origin="372.04724 : 350.78739 : 1"
       id="perspective3574" />
  </defs>
  <sodipodi:namedview
     id="base"
     pagecolor="#ffffff"
     bordercolor="#666666"
     borderopacity="1.0"
     inkscape:pageopacity="0.0"
     inkscape:pageshadow="2"
     inkscape:zoom="0.35"
     inkscape:cx="549.68214"
     inkscape:cy="200.78028"
     inkscape:document-units="px"
     inkscape:current-layer="layer1"
     showgrid="false"
     inkscape:window-width="1280"
     inkscape:window-height="712"
     inkscape:window-x="-5"
     inkscape:window-y="-3" />
  <metadata
     id="metadata3571">
    <rdf:RDF>
      <cc:Work
         rdf:about="">
        <dc:format>image/svg+xml</dc:format>
        <dc:type
           rdf:resource="http://purl.org/dc/dcmitype/StillImage" />
        <dc:title></dc:title>
      </cc:Work>
    </rdf:RDF>
  </metadata>
  <g
     inkscape:label="Layer 1"
     inkscape:groupmode="layer"
     id="layer1"
     transform="translate(174.68214,-8.4178506)">
    <path
       style="fill:#000000;fill-opacity:1;fill-rule:nonzero;stroke:#000000;stroke-width:4.69999981;stroke-linecap:round;stroke-linejoin:round;stroke-miterlimit:4;stroke-opacity:1;stroke-dasharray:none;stroke-dashoffset:0"
       id="path3576"
       d="m 200.32263,606.60598 c 4.74533,-6.04177 10.0816,-11.58096 14.97144,-17.49636 4.08409,-4.2865 7.31297,-9.3006 11.49092,-13.49181 3.13988,-2.96913 5.32025,-6.75087 8.05862,-10.05035 2.11879,-2.67679 3.6614,-5.82295 5.15176,-8.89128 1.95342,-3.4259 4.19764,-6.65219 6.63966,-9.7436 2.05019,-3.2041 4.64366,-5.99283 6.92613,-9.02242 2.33863,-2.39385 3.40856,-5.69841 5.92545,-7.88255 2.84981,-1.49587 5.55436,-3.30924 8.54944,-4.48762 1.61166,-0.63409 6.71732,3.84282 7.8246,4.89937 2.80423,2.86112 5.52474,5.80279 8.29827,8.69376 2.92077,2.86052 4.9377,6.45165 6.92965,9.97883 1.96847,4.35636 4.19985,8.58259 6.25575,12.89681 1.59761,4.52177 3.63622,8.87833 5.06308,13.45981 0.64844,3.69218 1.37342,7.25009 2.61506,10.79109 0.51137,3.3594 2.19851,6.29087 3.21055,9.4886 1.56085,1.99739 1.66606,5.33187 3.46626,7.12193 -8.43258,3.01902 -6.94074,5.07245 -7.30468,0.24289 -0.16932,-2.24698 -0.5261,-5.20414 -0.77818,-7.43096 0,0 7.45921,-3.90839 7.45921,-3.90839 l 0,0 c 0.213,1.84 0.65047,5.56813 0.84432,7.43943 0.58523,5.64924 0.70244,2.18392 -7.54836,8.06605 -1.65377,-2.16663 -2.08915,-5.16625 -3.5953,-7.44208 -0.98863,-3.19577 -2.71765,-6.10572 -3.20067,-9.46254 -1.23612,-3.55875 -2.04388,-7.10311 -2.61332,-10.82812 -1.38488,-4.55473 -3.42231,-8.86848 -4.98329,-13.36212 -2.05037,-4.29449 -4.29628,-8.49051 -6.24195,-12.8353 -1.9725,-3.45951 -3.94422,-6.9875 -6.82455,-9.7947 -2.77162,-2.87449 -5.47202,-5.81699 -8.2799,-8.65628 -1.35052,-1.25739 -2.70802,-2.59779 -4.39624,-3.41037 -2.58973,-1.24651 -3.49528,-0.31828 -2.96248,-0.76121 1.85312,-1.54053 4.08228,-2.56207 6.12342,-3.84311 -2.86531,1.81859 -3.62998,5.29412 -6.02826,7.6586 -2.25702,3.07046 -4.92047,5.80394 -6.92479,9.05344 -2.45497,3.0404 -4.66871,6.22548 -6.7112,9.55387 -1.40611,3.15209 -3.11103,6.28143 -5.05433,9.1156 -2.94826,3.13555 -4.8925,7.15479 -8.06248,10.12373 -4.33129,4.04902 -7.42022,9.19367 -11.57495,13.42156 -4.8224,5.94394 -10.21928,11.40574 -14.91552,17.462 0,0 -7.80314,3.3338 -7.80314,3.3338 z" />
    <path
       style="fill:#000000;fill-opacity:1;fill-rule:nonzero;stroke:#000000;stroke-width:4.69999981;stroke-linecap:round;stroke-linejoin:round;stroke-miterlimit:4;stroke-opacity:1;stroke-dasharray:none;stroke-dashoffset:0"
       id="path3578"
       d="m 261.31391,529.50149 c -2.18663,-7.23701 -3.93413,-14.64046 -4.07779,-22.2162 0.38772,-7.36298 1.12065,-14.69787 1.49624,-22.06304 0.45901,-7.9872 1.44684,-15.9981 2.76627,-23.8932 1.33383,-8.54501 2.84142,-17.05276 4.27148,-25.58224 0.83337,-8.21058 2.41861,-16.30773 3.53937,-24.47941 0.50695,-7.28918 1.28175,-14.49135 2.46542,-21.70039 0.87293,-5.05194 1.30657,-10.15132 1.50345,-15.26896 0.1186,-4.01628 0.1114,-8.03514 0.0984,-12.05277 -0.001,-2.40964 -0.0149,-4.81928 -0.0403,-7.22879 -0.003,-0.2609 -0.007,-0.52299 -0.0102,-0.78361 0.0177,0.22476 0.17702,0.48585 0.0532,0.67429 -0.19081,0.29043 -4.00945,-0.0174 -5.37632,-0.023 -4.20847,-0.13581 -8.44584,0.31151 -12.6027,-0.42096 -4.72669,-0.81765 -8.29153,-3.80125 -12.02156,-6.54767 -3.80773,-3.39014 -7.41057,-7.017 -9.95009,-11.45902 -2.4666,-5.40933 -2.90631,-11.39619 -2.55527,-17.25482 0.45334,-6.94968 3.74658,-13.11607 7.00823,-19.11316 4.12162,-6.39166 9.2559,-12.17714 15.17127,-16.94894 8.61414,-6.26628 18.00414,-11.4817 28.278,-14.36095 7.39076,-1.98104 14.24166,-0.21529 21.11846,2.49235 6.03275,3.01477 11.97426,6.68408 16.66618,11.5723 3.64343,3.22645 5.88771,7.27717 6.95685,11.96875 1.15063,4.82351 -0.1005,9.11961 -1.82492,13.58939 -2.39852,4.51699 -4.9656,8.95288 -8.18907,12.9311 -3.39037,3.89124 -6.97998,7.56353 -11.12327,10.64395 -4.04995,3.50006 -18.94921,10.47659 -5.18534,3.39382 1.1003,-0.56621 -2.07917,1.34608 -3.16204,1.94495 -2.95162,1.63237 -5.9198,3.23462 -8.8797,4.85194 -3.02605,1.07142 -5.69907,0.15106 -8.27376,-1.49613 0,0 7.15213,-4.61401 7.15213,-4.61401 l 0,0 c 2.49695,1.48713 5.01287,2.01134 7.78997,0.83296 -1.90858,1.15858 -3.82742,2.30045 -5.72576,3.47576 -0.49347,0.30552 1.00704,-0.57736 1.51056,-0.86603 0.56127,-0.34042 1.12158,-0.68243 1.68383,-1.02124 2.95848,-1.78278 5.94323,-3.52252 8.87834,-5.34353 1.17919,-0.7316 -9.63203,5.88954 -3.66926,1.9668 4.16766,-3.0272 7.8247,-6.56454 11.21353,-10.4559 3.28365,-3.88581 5.76674,-8.2746 8.293,-12.67936 1.68691,-4.33199 3.15993,-8.41684 2.03306,-13.13615 -0.98205,-4.5688 -3.1643,-8.44709 -6.69538,-11.58241 -4.63478,-4.784 -10.48503,-8.38771 -16.45438,-11.27546 -6.79007,-2.63072 -13.56415,-4.1249 -20.79035,-2.0503 -3.17237,0.93914 -3.95975,1.08234 -7.06586,2.37805 -1.24134,0.51782 -3.45041,3.00684 -3.66882,1.67967 -0.22816,-1.38645 2.64365,-1.17874 3.57865,-2.22759 1.74826,-1.96113 -8.76443,5.99229 -6.63114,4.26025 -6.00437,4.57967 -11.04469,10.40312 -15.29745,16.63105 -3.22719,5.89703 -6.6171,11.93942 -7.14774,18.77674 -0.4359,5.68724 0.008,11.52895 2.34705,16.803 2.47746,4.3381 6.03142,7.87215 9.76747,11.158 3.63559,2.69256 7.17251,5.50014 11.80338,6.20147 4.15765,0.55103 8.36462,0.20333 12.55114,0.29967 1.90992,1.5e-4 4.48754,-0.55981 6.06853,0.45056 -0.002,0.26625 -0.003,0.53302 -0.005,0.79936 -0.0115,2.41778 -0.0136,4.83561 -0.006,7.25341 -3.9e-4,4.0299 0.0217,8.0607 -0.094,12.08946 -0.20724,5.15514 -0.59399,10.29407 -1.49514,15.38211 -1.19317,7.20647 -2.07125,14.39118 -2.49598,21.68956 -1.11579,8.18403 -2.74368,16.28364 -3.54394,24.50959 -1.42361,8.53161 -2.95674,17.03298 -4.26617,25.58301 -1.37242,7.84996 -2.29314,15.84784 -2.79011,23.79359 -0.37171,7.35212 -1.06218,14.6751 -1.52995,22.01974 0.0546,7.48776 1.7793,14.82712 4.01442,21.95456 0,0 -7.4337,4.09406 -7.4337,4.09406 z" />
    <path
       style="fill:#000000;fill-opacity:1;fill-rule:nonzero;stroke:#000000;stroke-width:4.69999981;stroke-linecap:round;stroke-linejoin:round;stroke-miterlimit:4;stroke-opacity:1;stroke-dasharray:none;stroke-dashoffset:0"
       id="path3580"
       d="m 260.35213,418.89356 c -1.04692,0.58485 -4.24607,2.21973 -3.14076,1.75455 1.22521,-0.51565 4.1514,-3.06693 3.50249,-1.90678 -0.75501,1.34981 -2.59631,1.68231 -3.86872,2.56152 -4.00413,2.76677 -7.91884,5.68399 -11.84495,8.55977 -8.15457,5.85114 -16.51285,11.40352 -24.47251,17.52135 -5.63051,4.92621 -11.82619,9.05932 -18.13211,13.04346 -2.24575,1.44254 -4.47909,2.90515 -6.67863,4.41743 -0.12588,0.0908 -0.2205,0.1512 -0.34215,0.23461 0,0 -7.96428,3.15255 -7.96428,3.15255 l 0,0 c 0.11547,-0.0854 0.22277,-0.18169 0.34642,-0.25611 2.21627,-1.5476 4.49031,-3.0109 6.7558,-4.48469 6.30294,-4.01586 12.63575,-7.98496 18.22719,-12.99763 7.9387,-6.1548 16.29647,-11.71395 24.47301,-17.54334 9.54679,-7.02336 19.09417,-14.06012 29.76235,-19.35458 0,0 -6.62315,5.29789 -6.62315,5.29789 z" />
    <path
       style="fill:#000000;fill-opacity:1;fill-rule:nonzero;stroke:#000000;stroke-width:4.69999981;stroke-linecap:round;stroke-linejoin:round;stroke-miterlimit:4;stroke-opacity:1;stroke-dasharray:none;stroke-dashoffset:0"
       id="path3582"
       d="m 279.68716,406.21824 c 6.44555,-1.94114 12.89102,-3.92147 19.40089,-5.64746 5.91716,-1.50353 12.01361,-1.87481 18.08862,-2.0787 6.41179,-0.12594 12.82574,-0.0834 19.23842,-0.0707 5.97217,0.014 11.94435,0.0204 17.91653,0.0239 4.25786,-0.008 8.51572,-0.004 12.77358,-0.009 3.31552,-9.7e-4 6.63104,-0.005 9.94656,-9.3e-4 3.66499,-0.35134 7.09546,0.90745 10.58936,1.80862 2.98626,0.71332 6.045,0.91357 9.10189,1.02037 2.85523,0.0617 5.71147,0.0483 8.56716,0.0382 3.24347,-0.001 6.48692,-0.01 9.73039,-0.0101 3.53566,-0.003 7.07133,6.5e-4 10.607,0.002 4.00428,0.007 8.00855,-0.001 12.01283,-0.001 3.05148,-0.002 6.10296,-0.006 9.15444,-0.004 2.37484,-0.66506 4.28321,1.2687 6.56604,0.87793 -8.88981,4.54837 -6.48695,3.64167 -5.80277,-1.35994 0,0 7.61201,-3.75813 7.61201,-3.75813 l 0,0 c -0.73601,6.25873 -0.7654,5.39626 -8.68975,10.18069 -2.23167,-0.0826 -4.25316,-1.44661 -6.57225,-0.93706 -3.04819,0.002 -6.09639,-0.001 -9.14459,-0.004 -4.00305,7e-5 -8.0061,-0.009 -12.00916,-10e-4 -3.53858,10e-4 -7.07716,0.004 -10.61574,0.005 -3.24611,0.004 -6.49223,0.003 -9.73832,0.0175 -2.86263,0.003 -5.72608,0.0219 -8.58774,-0.0683 -3.09393,-0.14318 -6.18535,-0.40573 -9.19692,-1.17608 -3.44899,-0.90474 -6.8439,-1.98477 -10.46247,-1.6333 -3.3149,0.004 -6.6298,4.4e-4 -9.9447,-4.5e-4 -4.24661,-0.006 -8.49323,-0.002 -12.73983,-0.0158 -5.9691,-0.005 -11.9382,-0.0144 -17.90728,-0.0322 -6.40963,-0.0154 -12.82088,-0.0585 -19.22908,0.10398 -6.03832,0.23374 -12.09265,0.66234 -17.95919,2.22074 -6.50563,1.77195 -12.981,3.68425 -19.40765,5.71599 0,0 6.70172,-5.20654 6.70172,-5.20654 z" />
    <path
       style="fill:#000000;fill-opacity:1;fill-rule:nonzero;stroke:#000000;stroke-width:4.69999981;stroke-linecap:round;stroke-linejoin:round;stroke-miterlimit:4;stroke-opacity:1;stroke-dasharray:none;stroke-dashoffset:0"
       id="path3584"
       d="m 450.77825,369.59195 c -6.65008,6.66695 -14.79737,12.83359 -24.1486,14.81543 -6.03124,0.45838 -11.91671,-2.06573 -17.35687,-4.42349 -6.10352,-3.24737 -12.02106,-7.25925 -16.40822,-12.64655 -4.2963,-6.0215 -4.10458,-11.73523 -1.01404,-18.15503 3.80999,-6.83665 9.55109,-11.79317 15.77806,-16.31782 8.97651,-6.14257 18.71566,-10.63374 29.29273,-12.91808 6.42308,-0.9695 12.08982,0.51549 17.69178,3.48596 3.71354,2.6964 6.15273,6.81041 7.69891,11.06506 1.70104,5.05963 0.80468,9.91061 -0.96455,14.77764 -2.32291,5.63469 -5.66954,10.61724 -9.44586,15.3604 -3.61329,5.39846 -8.26014,9.76313 -13.61433,13.37553 -6.92615,4.26363 -13.67347,8.4799 -21.96821,7.80294 -0.75839,-0.13052 -1.51678,-0.26105 -2.27516,-0.39158 0,0 6.94026,-4.87628 6.94026,-4.87628 l 0,0 c 0.73928,0.10878 1.47855,0.21756 2.21782,0.32634 3.28981,0.10074 6.34072,-0.37948 9.42748,-1.57833 0.80194,-0.31146 3.03174,-1.57924 2.36284,-1.03824 -1.39453,1.1279 -3.0513,1.88601 -4.57696,2.82902 5.41848,-3.46362 10.15736,-7.73791 13.72973,-13.13755 3.78456,-4.66513 7.14283,-9.54628 9.51917,-15.09562 1.78032,-4.69185 2.87983,-9.30065 1.2253,-14.24382 -1.44614,-4.07066 -3.76562,-8.0247 -7.36766,-10.53099 -5.47843,-2.86321 -11.08196,-4.10689 -17.30017,-3.03511 -3.89345,0.8923 -7.57326,1.91158 -11.26623,3.45796 -1.2463,0.52186 -3.46743,2.97383 -3.7052,1.64377 -0.25336,-1.41736 2.88289,-1.17345 3.56235,-2.44288 0.62113,-1.16044 -2.24178,1.37989 -3.36267,2.06983 -6.2064,4.45289 -12.01255,9.20022 -15.90889,15.93321 -3.1771,6.09055 -3.62436,11.45285 0.56493,17.2937 4.3426,5.25714 10.1543,9.19754 16.18814,12.30632 5.35968,2.25759 11.14043,4.73993 17.06428,3.97244 0.88493,-0.23125 1.79534,-0.38081 2.65478,-0.69377 1.04375,-0.38007 3.83457,-2.14811 3.03421,-1.37785 -1.15925,1.11566 -2.61361,1.99485 -4.15488,2.45639 -1.20936,0.36215 8.82598,-5.91506 8.05446,-6.82513 0,0 7.83127,-3.24382 7.83127,-3.24382 z" />
    <path
       style="fill:#000000;fill-opacity:1;fill-rule:nonzero;stroke:#000000;stroke-width:4.69999981;stroke-linecap:round;stroke-linejoin:round;stroke-miterlimit:4;stroke-opacity:1;stroke-dasharray:none;stroke-dashoffset:0"
       id="path3586"
       d="m 459.03829,343.61385 c -6.8036,5.25025 -13.24564,11.01599 -19.13231,17.27771 -4.28487,4.08084 -8.18911,8.53725 -12.42297,12.66256 0,0 -7.85314,3.23309 -7.85314,3.23309 l 0,0 c 4.31946,-4.06744 8.15613,-8.61967 12.52368,-12.65165 5.82401,-6.32626 12.30933,-12.03116 18.99272,-17.43379 0,0 7.89202,-3.08792 7.89202,-3.08792 z" />
    <path
       style="fill:#000000;fill-opacity:1;fill-rule:nonzero;stroke:#000000;stroke-width:4.69999981;stroke-linecap:round;stroke-linejoin:round;stroke-miterlimit:4;stroke-opacity:1;stroke-dasharray:none;stroke-dashoffset:0"
       id="path3588"
       d="m 447.94297,323.57766 c -6.68602,5.11468 -12.49154,11.21966 -17.90319,17.63679 -5.12896,5.94358 -11.03558,11.15136 -17.06797,16.15364 0,0 -7.83534,3.15793 -7.83534,3.15793 l 0,0 c 6.05907,-4.96972 11.99731,-10.13277 17.17737,-16.02982 5.34188,-6.46373 11.13135,-12.58292 17.75413,-17.75824 0,0 7.875,-3.1603 7.875,-3.1603 z" />
    <path
       style="fill:#000000;fill-opacity:1;fill-rule:nonzero;stroke:#000000;stroke-width:4.69999981;stroke-linecap:round;stroke-linejoin:round;stroke-miterlimit:4;stroke-opacity:1;stroke-dasharray:none;stroke-dashoffset:0"
       id="path3590"
       d="m -151.28669,58.833096 c 10.76849,1.580253 21.66235,1.902997 32.52502,2.208188 18.51278,-0.506644 36.998217,-1.573844 55.474856,-2.798846 28.774356,-1.682382 57.5913071,-1.828523 86.366762,-3.485443 39.135875,-2.707452 78.177322,-6.422103 117.165212,-10.737197 41.34071,-4.746848 82.93416,-6.484327 124.47439,-8.472874 41.93975,-1.30401 83.85709,-3.053692 125.76883,-5.054767 41.79642,-2.179474 83.54673,-5.068801 125.29591,-7.989275 32.68287,-3.116052 65.4781,-4.506819 98.23742,-6.455384 22.23547,-1.15211 44.43542,-2.691875 66.64115,-4.294663 14.02897,-1.209327 28.15402,-1.523509 42.1341,0.318637 7.56663,0.800264 14.6033,3.44644 21.25471,7.012983 5.22283,2.456055 8.33111,6.567057 10.6825,11.67718 2.96129,8.091768 2.94872,16.869142 3.17976,25.376329 0.2788,15.46658 -1.74323,30.887697 -3.61987,46.212046 -3.6625,24.77009 -6.79341,49.61293 -9.44019,74.51108 -3.99598,31.5232 -5.12852,63.27586 -6.69807,94.97885 -1.62561,35.50049 -3.99223,70.96545 -6.6657,106.40129 -2.89546,34.0308 -6.34058,68.00977 -9.55886,102.01034 -2.67336,25.52363 -5.03526,51.09317 -9.04875,76.44905 -3.30473,17.9562 -7.14832,35.805 -10.70623,53.71082 -2.42674,12.00518 -4.12861,24.14637 -6.3905,36.17652 -1.59139,5.95134 -1.94809,12.18195 -3.45506,18.13679 -0.88971,4.07 -3.27441,7.0582 -6.55576,9.47183 -4.62432,3.21546 -0.614,0.49481 -10.77536,6.42624 -1.71212,0.99941 6.93504,-3.83933 5.15713,-2.9623 -8.87965,4.38029 -8.74541,4.91274 -16.29978,7.39617 -9.75094,3.12537 -19.73747,4.82499 -29.90081,5.83422 -15.4029,0.69089 -30.7921,1.52365 -46.18921,2.38182 -22.03564,1.03399 -44.10346,1.53001 -66.15852,1.04146 -28.11931,-0.70224 -56.17693,-2.69576 -84.2778,-3.85879 -33.1295,-1.68545 -66.21048,-4.08765 -99.3521,-5.54147 -34.81453,-1.21243 -69.66001,-1.86577 -104.49292,-1.31446 -35.00366,0.52352 -69.90094,3.46086 -104.82974,5.54655 -32.893026,1.35872 -65.712101,3.95872 -98.564543,6.00086 -26.1634157,1.67002 -52.237274,4.3053 -78.275212,7.31018 -17.667935,1.99104 -35.133262,5.09299 -52.384585,9.36868 -10.76376,2.32427 -21.23526,5.83634 -31.3285,10.21225 2.4303,-1.35307 -8.15168,4.37059 -6.16153,3.19181 1.56521,-0.92709 3.06276,-2.05544 4.79872,-2.59933 0.81414,-0.25508 -1.31102,1.0954 -1.91663,1.69634 -0.8451,0.83859 -1.57374,1.78696 -2.3696,2.67241 -2.86649,1.2575 -5.57095,2.98123 -8.59947,3.7725 -2.30198,0.60145 -2.99915,-12.06682 -3.04983,-12.97619 -1.27518,-14.1035 -2.17702,-28.22993 -3.3746,-42.34015 -1.29756,-19.90569 -2.45774,-39.82166 -3.60379,-59.73848 -1.7289,-25.0391 -3.7328,-50.06009 -5.24685,-75.11331 -2.05289,-29.72735 -4.60695,-59.40911 -6.11462,-89.17139 -2.20383,-31.92251 -3.375,-63.89403 -4.05793,-95.88069 0.14336,-29.20974 1.17895,-58.40529 1.73137,-87.60907 0.40068,-22.54216 0.47167,-45.08809 0.5012,-67.6332 0.0463,-16.02624 0.23993,-32.03105 -0.84025,-48.02617 -0.90797,-10.58546 -1.56083,-21.18661 -1.9225,-31.80415 -0.69687,-6.77479 0.4944,-13.40784 1.45908,-20.07776 0.58242,-5.810407 1.21456,-11.625457 1.60555,-17.447687 0.15315,-6.870271 1.00897,-13.707548 1.52844,-20.559747 0,0 7.50341,-3.751519 7.50341,-3.751519 l 0,0 c -0.52445,6.83711 -1.33402,13.668164 -1.48367,20.521376 -0.30086,5.841025 -1.05925,11.672481 -1.56675,17.507721 -0.95439,6.636066 -2.25547,13.223656 -1.57157,19.969096 0.31611,10.62501 0.94086,21.23396 1.8116,31.82843 1.06682,16.0296 0.88201,32.06524 0.77203,48.12527 -0.0704,22.56988 -0.19778,45.14037 -0.61502,67.70694 -0.59662,29.21007 -1.66724,58.41171 -1.84144,87.62859 0.66427,31.97888 1.837,63.94193 4.05542,95.85531 1.52404,29.74876 4.08846,59.41647 6.1803,89.12829 1.54978,25.03722 3.55919,50.04377 5.34641,75.06482 1.15825,19.89661 2.36628,39.79027 3.67456,59.67579 1.23305,14.09255 2.13844,28.20533 3.53637,42.28281 0.18943,3.17239 0.17332,6.59131 1.11484,9.67214 0.15996,0.52341 0.37198,1.03931 0.66681,1.50042 0.20836,0.32588 1.09899,0.55626 0.81846,0.82256 -1.84596,1.75232 -4.18151,2.90306 -6.27227,4.35459 1.38975,-1.44592 2.57346,-3.47577 4.2606,-4.58516 5.0982,-3.35234 10.38238,-6.21785 15.84267,-8.87897 10.10834,-4.28312 20.57224,-7.71886 31.314885,-10.02803 17.238005,-4.19151 34.681343,-7.23468 52.320144,-9.18995 26.002004,-2.96127 52.041384,-5.53813 78.165559,-7.1768 32.833659,-2.03316 65.636252,-4.58828 98.509182,-5.95794 34.93059,-2.09326 69.83212,-5.00457 104.83847,-5.50968 34.84658,-0.52796 69.70482,0.10611 104.53216,1.34389 33.16234,1.46277 66.26718,3.84451 99.42012,5.48995 28.12461,1.16377 56.20951,3.11876 84.35373,3.78362 22.08054,0.42863 44.17191,-0.0817 66.2296,-1.17135 15.42158,-0.88794 30.84036,-1.6863 46.26358,-2.48326 10.15488,-1.06643 20.13533,-2.85578 29.86517,-6.03601 1.14367,-0.38008 2.2903,-0.75136 3.43101,-1.14024 0.97786,-0.33335 3.60249,-1.80589 2.92447,-1.0264 -1.16588,1.34035 -18.95549,10.95894 4.73003,-2.43166 1.23233,-0.69671 -9.40023,5.70161 -3.7333,2.02456 3.30186,-2.21353 5.90593,-4.91958 6.80183,-8.93637 1.70732,-5.89764 1.86461,-12.20549 3.57511,-18.12483 2.36726,-12.03456 4.02077,-24.21759 6.50251,-36.23711 3.58281,-17.91568 7.45919,-35.77209 10.82145,-53.7322 4.10137,-25.36261 6.51635,-50.94847 9.24142,-76.48691 3.25315,-34.0107 6.76294,-67.99673 9.65578,-102.04146 2.67645,-35.42004 5.01407,-70.87171 6.62426,-106.35719 1.53582,-31.70032 2.65115,-63.44792 6.58761,-94.97341 2.59149,-24.87488 5.67631,-49.69537 9.27748,-74.44513 1.8448,-15.263196 3.794,-30.625746 3.52391,-46.025249 -0.24913,-8.387213 -0.2261,-17.042446 -3.10353,-25.03229 -2.28959,-4.96099 -5.32604,-8.838508 -10.39521,-11.208005 -6.59582,-3.465121 -13.5352,-6.050539 -21.01101,-6.812812 -13.91385,-1.74917 -27.94478,-1.495907 -41.90171,-0.282473 -22.16027,1.584014 -44.31825,3.05458 -66.50789,4.183123 -32.70113,1.879531 -65.43288,3.269397 -98.05764,6.333876 -41.73173,2.888996 -83.46543,5.737676 -125.24137,7.928339 -41.92374,2.01624 -83.85437,3.747447 -125.80567,5.081759 -41.52398,1.987941 -83.10123,3.725127 -124.42342,8.495498 -39.041007,4.329491 -78.136608,8.059124 -117.324275,10.803568 -28.835733,1.670261 -57.71644,1.858653 -86.547424,3.627624 -18.530655,1.255049 -37.074481,2.356643 -55.644111,2.826053 -10.93174,-0.299396 -21.88654,-0.644252 -32.72975,-2.179677 0,0 6.92764,-4.884558 6.92764,-4.884558 z" />
    <path
       style="fill:#000000;fill-opacity:1;fill-rule:nonzero;stroke:#000000;stroke-width:4.69999981;stroke-linecap:round;stroke-linejoin:round;stroke-miterlimit:4;stroke-opacity:1;stroke-dasharray:none;stroke-dashoffset:0"
       id="path3592"
       d="m 830.82425,560.41162 c 1.74143,-13.4497 3.92516,-26.84235 6.01335,-40.2433 4.34453,-24.3325 7.85005,-48.80058 11.73689,-73.20847 4.14376,-25.65224 9.34665,-51.11963 14.98208,-76.48122 2.66108,-11.91654 5.1455,-23.89014 6.58469,-36.02282 0.18046,-1.57833 0.74764,-4.94672 -1.41404,-5.63049 -2.39403,1.03039 7.15374,-8.91513 6.43182,-1.5456 -2.53385,0.80639 -5.0677,1.61279 -7.60154,2.41918 0,0 7.59328,-3.85441 7.59328,-3.85441 l 0,0 c -2.5483,1.7548 -5.0966,3.50961 -7.64491,5.26442 0.1936,-3.75418 4.51978,-8.78087 8.3725,-6.98011 2.20822,1.4492 2.2537,4.21091 1.83445,6.58454 -1.53881,12.2009 -4.09044,24.24043 -6.81292,36.22573 -5.75111,25.35137 -10.98579,50.82948 -15.13178,76.49693 -3.85443,24.37156 -7.29133,48.80776 -11.55064,73.11345 -2.04436,13.35469 -4.22181,26.70384 -5.78677,40.12147 0,0 -7.60646,3.7407 -7.60646,3.7407 z" />
    <path
       style="fill:#000000;fill-opacity:1;fill-rule:nonzero;stroke:#000000;stroke-width:4.69999981;stroke-linecap:round;stroke-linejoin:round;stroke-miterlimit:4;stroke-opacity:1;stroke-dasharray:none;stroke-dashoffset:0"
       id="path3594"
       d="m 831.07644,337.25938 c 1.04692,-0.58485 4.24607,-2.21973 3.14077,-1.75455 -1.22521,0.51564 -4.46636,2.8222 -3.50249,1.90678 2.42755,-2.30556 5.73343,-3.46433 8.50636,-5.34037 3.8639,-2.61414 5.23763,-3.75255 8.94327,-6.5901 8.78761,-6.64202 16.86289,-14.17764 25.14552,-21.43378 7.13239,-6.55948 13.63083,-10.85321 22.11516,-15.54934 2.80547,-0.16775 3.04111,4.24867 3.5243,6.26823 1.55723,7.49462 3.10502,14.99112 4.63181,22.49369 1.29187,8.44093 3.0071,16.80209 4.55319,25.19965 -0.0436,4.18533 2.65214,7.83293 3.09562,11.87053 -7.18981,16.76059 -9.07174,-0.88223 -9.23558,-3.31276 0,0 7.52509,-3.89549 7.52509,-3.89549 l 0,0 c 0.49299,8.00724 3.02898,5.41651 -6.10465,11.75489 -0.1845,0.12803 0.15804,-0.42043 0.23706,-0.63065 0.028,-3.9852 -3.33764,-7.68409 -2.96762,-11.82168 -1.48173,-8.40807 -3.22684,-16.76379 -4.49762,-25.20703 -1.53595,-7.48198 -3.1029,-14.95534 -4.70296,-22.42125 -0.37027,-1.51372 -0.46764,-5.7097 -2.74013,-5.01901 1.99128,-1.21281 3.94476,-2.48997 5.97383,-3.63842 0.64016,-0.36232 -1.2057,0.84314 -1.80029,1.27621 -4.09959,2.98598 -7.85609,6.36471 -11.85323,9.48037 -8.2907,7.26401 -16.38191,14.79904 -25.14212,21.48951 -9.88002,7.64778 -20.41705,14.31437 -31.46844,20.17246 0,0 6.62315,-5.29789 6.62315,-5.29789 z" />
    <path
       style="fill:#000000;fill-opacity:1;fill-rule:nonzero;stroke:#000000;stroke-width:4.69999981;stroke-linecap:round;stroke-linejoin:round;stroke-miterlimit:4;stroke-opacity:1;stroke-dasharray:none;stroke-dashoffset:0"
       id="path3596"
       d="m 857.12407,152.66473 c -5.12227,9.7231 -7.85354,20.52103 -10.32255,31.17121 -1.94338,8.02659 -2.52369,16.64496 -6.14681,24.15557 -4.503,6.51382 -10.04316,10.73507 -16.53974,4.95586 -5.82865,-6.91606 -6.34501,-15.93379 -5.94141,-24.56171 1.11719,-15.04923 8.23545,-27.47 17.21044,-39.17653 11.82862,-13.71037 27.16025,-23.64718 44.09845,-29.93717 8.7287,-2.40444 16.27686,-5.18071 21.95383,3.51162 3.55616,8.25143 -0.28398,15.45705 -5.22914,22.09218 -9.30474,9.63893 -21.88059,15.85937 -34.76437,19.1969 -4.26098,1.17374 -8.69749,1.27584 -13.03602,1.93094 -3.40766,0.51453 -4.8694,1.33553 -4.75596,1.26428 2.12497,-1.33458 4.3932,-2.42613 6.58979,-3.6392 4.85536,2.4374 10.17405,3.92933 15.36964,5.47197 8.78134,2.55924 17.20344,6.04318 25.36573,10.13214 5.37689,2.67527 9.74768,6.62435 13.09535,11.55958 1.96781,3.55467 2.67983,7.32627 1.84832,11.27775 -0.70243,2.41353 -1.30446,4.85399 -1.84544,7.30825 -2.10186,9.89629 -8.34325,3.58218 -10.3421,0.99231 0,0 7.31008,-4.35378 7.31008,-4.35378 l 0,0 c 3.31446,4.25909 2.35838,2.42278 -4.66451,7.07206 0.55791,-2.45932 1.12561,-4.92227 1.88155,-7.32918 0.91946,-3.74316 0.38952,-7.25566 -1.50543,-10.67381 -3.24562,-4.83069 -7.56539,-8.6329 -12.80926,-11.22859 -8.11465,-4.08683 -16.52805,-7.49442 -25.271,-10.01784 -4.60499,-1.37939 -13.52483,-3.08307 -16.36875,-7.06742 2.68642,-1.5701 5.30971,-3.25356 8.05924,-4.71031 4.93254,-2.61334 12.59037,-0.7191 17.7177,-3.08138 1.66867,-0.45533 3.35934,-0.83661 5.00602,-1.36599 1.67804,-0.53947 3.19625,-1.79555 4.95838,-1.83743 0.9157,-0.0218 -2.95732,2.09799 -2.10228,1.76955 4.81911,-1.85115 8.95986,-5.83752 12.55995,-9.35857 4.86947,-6.23577 8.97291,-13.15516 5.63325,-21.13521 -5.27363,-8.02528 -13.33378,-4.89939 -21.20365,-2.65145 -1.99503,0.76601 -3.91483,1.76796 -5.98508,2.29804 -0.41227,0.10556 1.20123,-1.17084 0.82276,-0.97624 -9.58775,4.92984 -17.66126,12.25426 -24.79744,20.22876 -8.99333,11.5219 -16.17308,23.76597 -17.34131,38.68035 -0.44766,8.34093 -0.0556,17.18446 5.6849,23.8281 1.22048,1.01667 1.71307,1.67659 3.27935,2.07185 0.45526,0.11488 1.7698,-0.25932 1.40803,0.04 -11.07407,9.16165 -4.80478,3.00958 -3.0597,0.90104 3.93018,-7.32762 4.34738,-16.06314 6.34444,-24.02135 2.43927,-10.66704 5.15427,-21.48244 10.10745,-31.29106 0,0 7.7273,-3.49607 7.7273,-3.49607 z" />
    <path
       style="fill:#000000;fill-opacity:1;fill-rule:nonzero;stroke:#000000;stroke-width:4.69999981;stroke-linecap:round;stroke-linejoin:round;stroke-miterlimit:4;stroke-opacity:1;stroke-dasharray:none;stroke-dashoffset:0"
       id="path3598"
       d="m 831.2762,90.663307 c 8.45508,2.772409 17.33063,3.678515 26.1555,4.336717 11.12404,0.640804 22.27185,0.636158 33.41035,0.662029 10.60845,0.01079 21.21687,-0.02352 31.8253,-0.0369 6.09951,-0.01088 12.19904,-0.02155 18.2985,-0.04992 1.15438,-0.01016 2.30868,-0.01342 3.46307,-0.01195 -9.956,6.091907 -7.35403,3.980086 -5.02692,1.112879 0,0 7.84213,-3.335564 7.84213,-3.335564 l 0,0 c -2.97378,3.531414 -3.69799,4.473873 -9.73306,7.248692 -1.14355,10e-4 -2.28702,-0.002 -3.43056,-0.0112 -6.06456,-0.0242 -12.12918,-0.0268 -18.19377,-0.0254 -10.59966,0.01 -21.19932,0.0189 -31.79898,0.0141 -11.15633,-0.0294 -22.32269,-0.0291 -33.46318,-0.699638 -8.90218,-0.690795 -17.83346,-1.675139 -26.37104,-4.439015 0,0 7.02266,-4.764805 7.02266,-4.764805 z" />
    <path
       style="fill:#000000;fill-opacity:1;fill-rule:nonzero;stroke:#000000;stroke-width:4.69999981;stroke-linecap:round;stroke-linejoin:round;stroke-miterlimit:4;stroke-opacity:1;stroke-dasharray:none;stroke-dashoffset:0"
       id="path3600"
       d="m 937.84825,89.97288 c -3.56571,-4.644868 -6.98132,-9.420443 -10.82726,-13.842285 -0.46068,-0.597516 -0.93002,-1.188454 -1.38204,-1.792549 -1.01955,-1.362566 -2.38073,-2.915608 -2.29343,-2.965796 8.07075,-4.639684 5.89676,-5.740463 9.42161,-2.9938 3.62361,3.821977 8.0581,6.444947 12.42308,9.307655 5.30432,4.037981 11.16791,7.190033 16.88475,10.573046 3.46515,2.298683 6.96579,4.502696 10.65876,6.423687 3.36249,3.522621 -8.60736,6.098882 -11.86482,7.726042 -5.05986,2.32649 -10.09168,4.74383 -15.02475,7.33549 -4.52053,2.37279 -9.39102,3.83702 -14.38089,4.80171 -1.58112,-0.0137 -2.18811,-0.92509 -2.98347,-2.11503 0,0 7.35675,-4.31643 7.35675,-4.31643 l 0,0 c 0.67972,0.99482 1.10053,1.43914 2.40892,1.29754 4.93601,-1.00919 9.72652,-2.57589 14.18748,-4.95493 4.97216,-2.55401 9.99863,-5.011747 15.07908,-7.341187 1.78167,-0.807813 1.58554,-0.767219 3.26686,-1.36836 0.39149,-0.139974 1.52271,-0.635592 1.18258,-0.39649 -5.55878,3.907678 -5.25648,5.066917 -6.35623,3.997506 -3.66074,-1.978607 -7.15494,-4.20502 -10.62929,-6.48908 -5.73275,-3.374871 -11.54146,-6.629768 -16.88876,-10.615456 -4.39885,-2.85338 -8.81294,-5.550436 -12.51389,-9.315839 -3.29949,-2.376197 -1.98559,-0.8521 5.17708,-5.829986 0.0377,-0.02621 3.36832,4.492605 3.53179,4.656119 3.81408,4.462733 7.2194,9.256901 10.84976,13.865108 0,0 -7.28367,4.353315 -7.28367,4.353315 z" />
    <path
       style="fill:#000000;fill-opacity:1;fill-rule:nonzero;stroke:#000000;stroke-width:4.69999981;stroke-linecap:round;stroke-linejoin:round;stroke-miterlimit:4;stroke-opacity:1;stroke-dasharray:none;stroke-dashoffset:0"
       id="path3602"
       d="m 868.88427,38.506122 c -5.15419,1.644138 -11.05592,3.076682 -16.21932,0.925235 -3.95983,-2.733154 -1.63594,-5.698319 1.39635,-7.859455 6.28077,-3.762749 12.33543,-7.852167 19.7932,-6.399344 3.42935,1.219855 5.31383,3.587426 6.45663,6.923794 0.083,6.140153 -7.4879,9.312174 -12.50372,10.735594 -3.3782,-0.049 -4.70179,-3.00229 -5.41713,-5.861586 -1.71919,-4.543957 11.48517,-8.144432 6.8178,-3.775117 -7.89634,3.649377 -7.99985,5.627947 -9.66989,0.377453 0,0 7.46907,-4.090131 7.46907,-4.090131 l 0,0 c 1.36097,4.624342 2.72325,1.721203 -5.73469,6.861822 3.34983,-1.890546 5.5964,-3.452958 9.66301,-5.713363 0.75459,-0.419439 -2.36999,1.72447 -1.05273,2.296608 0.56604,2.471867 1.60435,5.163812 4.64501,4.68069 3.47158,-1.35939 2.28364,-0.979819 -4.64547,3.02314 -1.6095,0.929815 5.28307,-3.713716 2.96836,-4.426073 -1.00016,-3.084891 -2.72639,-5.212693 -5.96064,-6.152715 -1.44662,-0.216479 -2.11503,-0.401959 -3.63522,-0.239331 -3.19597,0.3419 -12.568,4.865719 -1.28783,-1.330306 -2.47008,1.501876 -6.02879,3.824281 -2.257,6.21545 5.14091,1.807561 10.86286,0.228168 15.87593,-1.398905 0,0 -6.70172,5.20654 -6.70172,5.20654 z" />
    <path
       style="fill:#000000;fill-opacity:1;fill-rule:nonzero;stroke:#000000;stroke-width:4.69999981;stroke-linecap:round;stroke-linejoin:round;stroke-miterlimit:4;stroke-opacity:1;stroke-dasharray:none;stroke-dashoffset:0"
       id="path3604"
       d="m 925.36215,28.687947 c 2.39196,-0.634465 10.18114,-5.476009 12.56129,-4.209356 0.35784,0.190435 0.50301,0.635805 0.75451,0.953707 1.40317,5.393314 -9.91226,9.202752 -12.01188,10.318314 -3.30266,0.287524 -5.10883,-3.315993 -6.14636,-5.94703 -2.69886,-8.929439 -0.0351,-8.736174 8.19593,-13.606874 3.45416,0.730556 2.56879,4.910529 1.82081,7.345788 -1.94225,4.168735 -11.46099,11.443203 -14.47431,7.958721 -1.19178,-3.252981 9.81282,-6.11043 6.76222,-1.844341 -0.0116,0.0162 -1.11443,1.155543 -1.4142,1.240043 -2.48221,0.699679 -5.00499,1.246445 -7.50749,1.869667 0.58969,-2.496698 2.25883,-4.507992 3.93336,-6.378792 0.69445,-0.592058 1.00731,-1.139544 1.15831,-2.030483 0,0 7.67013,-3.778541 7.67013,-3.778541 l 0,0 c -0.10521,0.995364 -0.0557,1.902215 -0.94933,2.512367 -1.68083,1.735693 -3.39775,3.62737 -4.1589,5.956144 -2.70009,1.656845 -5.40018,3.31369 -8.10027,4.970535 0.5147,-0.325814 1.11348,-0.530808 1.57209,-0.931738 0.3251,-0.284211 0.44813,-0.775698 0.81044,-1.01063 2.58469,-1.675954 5.40616,-2.970765 7.96799,-4.681451 0.15575,-0.104007 -0.29765,-0.227406 -0.44648,-0.341108 0.6081,0.506633 3.01392,-0.695634 2.36156,-0.247427 -10.83951,7.447334 -4.46556,3.000847 -2.87662,0.344343 0.49788,-1.330293 2.12449,-6.020084 -0.80609,-5.637136 11.23433,-7.005847 3.03984,-4.150309 5.90476,4.153383 0.90743,2.351422 2.43059,5.595524 5.4485,4.864072 -13.76038,8.612167 -1.7883,2.438525 -2.03214,-0.699603 -1.4947,-1.52955 -10.77818,3.484522 -12.62097,4.155317 0,0 6.62314,-5.297891 6.62314,-5.297891 z" />
    <path
       style="fill:#000000;fill-opacity:1;fill-rule:nonzero;stroke:#000000;stroke-width:4.69999981;stroke-linecap:round;stroke-linejoin:round;stroke-miterlimit:4;stroke-opacity:1;stroke-dasharray:none;stroke-dashoffset:0"
       id="path3606"
       d="m 449.49102,181.40161 c 0.1071,11.15482 -0.07,22.26847 -0.87262,33.39489 -0.49231,11.67397 -2.14654,23.23027 -3.5377,34.81663 -0.22399,5.87897 -1.36832,11.52878 -2.94438,17.16551 -0.89034,4.35418 -8.33018,10.27963 -11.14659,4.7606 0,0 7.41718,-4.22411 7.41718,-4.22411 l 0,0 c 0.23894,0.48765 1.30857,1.01586 0.89145,1.36357 -12.44117,10.37106 -5.70856,4.68939 -4.84142,1.74809 1.62748,-5.61322 2.9267,-11.21154 3.10423,-17.09632 1.42994,-11.5838 3.1511,-23.13369 3.62194,-34.81285 0.80322,-11.08315 1.02199,-22.15517 0.75444,-33.26732 0,0 7.55347,-3.84869 7.55347,-3.84869 z" />
    <path
       style="fill:#000000;fill-opacity:1;fill-rule:nonzero;stroke:#000000;stroke-width:4.69999981;stroke-linecap:round;stroke-linejoin:round;stroke-miterlimit:4;stroke-opacity:1;stroke-dasharray:none;stroke-dashoffset:0"
       id="path3608"
       d="m 435.51654,247.41416 c 1.51935,8.12206 2.78155,16.30788 6.10301,23.92227 1.4125,2.75071 3.02167,7.23098 6.74002,5.13241 -11.56261,6.76838 -4.93208,2.68658 -2.70601,0.52411 1.99842,-1.94133 3.82982,-4.07616 5.71094,-6.12847 4.51692,-4.64044 8.48772,-9.54266 11.49676,-15.27027 0.43811,-0.88051 0.87622,-1.76101 1.31434,-2.64152 0,0 7.70246,-3.48737 7.70246,-3.48737 l 0,0 c -0.43955,0.88688 -0.87911,1.77377 -1.31867,2.66066 -2.98621,5.80392 -6.78551,10.82109 -11.40347,15.47068 -5.35489,5.86122 -9.79544,10.86429 -17.50206,14.12891 -4.22081,0.9815 -5.82269,-3.00735 -7.39494,-6.2498 -3.33967,-7.69205 -4.54653,-15.95907 -6.23479,-24.12592 0,0 7.49241,-3.93569 7.49241,-3.93569 z" />
    <path
       style="fill:#000000;fill-opacity:1;fill-rule:nonzero;stroke:#000000;stroke-width:4.69999981;stroke-linecap:round;stroke-linejoin:round;stroke-miterlimit:4;stroke-opacity:1;stroke-dasharray:none;stroke-dashoffset:0"
       id="path3610"
       d="m 498.68609,192.36573 c 2.05184,7.38264 3.37111,14.94253 4.41169,22.52591 0.89264,7.988 2.78324,5.745 -6.86883,9.46948 0.0539,-4.20523 -0.1665,-8.40307 0.32566,-12.5842 1.10403,-4.83255 1.75928,-10.68621 5.27322,-14.43511 9.75668,-6.09654 10.25907,-7.15547 14.84905,1.62048 1.70861,3.12011 2.89864,6.49248 3.91075,9.89356 0.60286,2.17167 0.88289,1.50178 -6.94428,3.38972 -0.29088,0.0702 0.70311,-1.76178 1.42768,-4.14008 1.70846,-4.29844 8.19679,-10.88435 12.55305,-7.4503 2.36369,2.53921 3.33908,5.913 4.16483,9.19838 0.88189,4.137 2.09462,1.17788 -6.01979,4.86714 0,0 7.84886,-3.31826 7.84886,-3.31826 l 0,0 c -6.68545,3.97667 -8.26081,7.99189 -9.32148,2.49766 -0.72958,-3.07681 -1.57099,-6.32408 -3.85885,-8.63812 -0.43658,-0.20418 -1.83286,0.10893 -1.43642,-0.16516 11.43623,-7.90687 5.31603,-3.95709 3.75872,-0.64108 -0.7924,2.91024 -6.47286,15.99824 -9.66575,8.48633 -0.93407,-3.36822 -2.08882,-6.6976 -3.77345,-9.77075 -0.87874,-1.65688 -1.68084,-3.89021 -3.25968,-5.05663 -1.53516,-1.13415 -2.58363,-0.17501 -2.26538,-0.40199 1.87367,-1.33634 3.93308,-2.39099 5.89962,-3.58648 -3.9596,3.04386 -4.35816,9.36401 -5.54804,13.90321 -0.57521,4.1346 -0.29467,8.29671 -0.31172,12.46428 -10.04685,6.43188 -7.11107,6.58782 -8.21912,-1.66517 -0.96307,-7.53898 -2.22406,-15.06415 -4.36404,-22.36876 0,0 7.4337,-4.09406 7.4337,-4.09406 z" />
    <path
       style="fill:#000000;fill-opacity:1;fill-rule:nonzero;stroke:#000000;stroke-width:4.69999981;stroke-linecap:round;stroke-linejoin:round;stroke-miterlimit:4;stroke-opacity:1;stroke-dasharray:none;stroke-dashoffset:0"
       id="path3612"
       d="m 560.91959,181.40161 c -0.0976,7.48321 0.35373,14.95128 -0.79239,22.36789 -1.41372,9.3171 -4.40583,9.54227 -12.87639,13.82557 -3.47866,-3.19141 -3.70644,-7.78007 -3.68036,-12.18947 0.85481,-7.35932 3.01996,-14.46127 6.17042,-21.14412 4.46444,-8.00114 10.68025,-12.95783 19.57663,-16.0672 4.7912,-1.64777 8.79745,0.26441 12.59777,3.09635 2.77519,2.68064 4.40604,5.92114 4.26704,9.78535 -1.3862,4.33136 -4.93764,7.47555 -8.70198,9.79219 -2.69389,1.9363 -25.09338,14.41189 -8.2784,4.74036 2.71412,0.17939 5.84859,1.29902 8.5281,2.20414 4.44811,1.42978 8.25967,4.11462 11.79907,7.08747 1.78849,1.56188 3.5503,3.15793 5.22251,4.84465 1.14562,2.78516 -6.59479,5.58929 -7.79974,2.15733 0,0 7.45651,-4.13105 7.45651,-4.13105 l 0,0 c 1.26573,3.41447 -2.93951,8.07189 -6.95483,6.43507 -1.62615,-1.68453 -3.35082,-3.2722 -5.11789,-4.80727 -3.49421,-2.88398 -7.2336,-5.47562 -11.61437,-6.82431 -2.963,-0.93215 -6.69417,-1.27995 -9.16321,-3.12177 -0.0426,-0.24985 -0.33606,-0.60503 -0.12784,-0.74956 2.57243,-1.78567 5.37904,-3.20817 8.08923,-4.7769 1.06795,-0.61815 4.32674,-2.37227 3.26993,-1.73527 -1.721,1.03736 -3.43597,2.08881 -5.20923,3.03407 -0.70175,0.37408 1.32596,-0.87829 1.98895,-1.31744 3.78687,-2.07477 7.17323,-5.03438 9.01235,-9.02404 0.37539,-3.57105 -1.27516,-6.60654 -3.83435,-9.05057 -3.71725,-2.70549 -7.5531,-4.1596 -12.09827,-2.41586 -0.78688,0.31992 -3.03461,1.47678 -2.36065,0.95976 1.5307,-1.17426 3.21191,-2.17248 4.9718,-2.96287 0.8181,-0.36742 -1.45567,1.05697 -2.10514,1.67542 -2.34042,2.22861 -3.85977,5.10293 -5.74396,7.68749 -3.21543,6.55663 -5.34225,13.54772 -6.30692,20.79983 -0.0529,3.56151 -0.27906,8.54367 3.00321,10.93463 -2.15832,1.34015 -4.31477,2.68332 -6.47497,4.02045 -2.28187,1.41245 1.11795,-0.24628 2.41683,-1.98259 1.54891,-2.07054 2.10001,-4.56155 2.4824,-7.06308 1.26536,-7.36245 0.85387,-14.78973 0.83467,-22.23596 0,0 7.55347,-3.84869 7.55347,-3.84869 z" />
    <path
       style="fill:#000000;fill-opacity:1;fill-rule:nonzero;stroke:#000000;stroke-width:4.69999981;stroke-linecap:round;stroke-linejoin:round;stroke-miterlimit:4;stroke-opacity:1;stroke-dasharray:none;stroke-dashoffset:0"
       id="path3614"
       d="m 554.39298,144.15643 c 6.71823,0.44129 13.32114,-0.678 19.91775,-1.77293 2.82975,-0.41421 5.66378,-0.80819 8.50879,-1.10325 0.22455,-0.0321 0.45105,-0.0371 0.67687,-0.0485 0,0 -6.89839,5.08012 -6.89839,5.08012 l 0,0 c -0.21429,0.0224 -0.4285,0.0463 -0.64317,0.0652 -2.813,0.29227 -5.6175,0.66437 -8.41285,1.09319 -6.62988,1.05894 -13.26684,2.04261 -20.00741,1.66912 0,0 6.85841,-4.98293 6.85841,-4.98293 z" />
    <path
       style="fill:#000000;fill-opacity:1;fill-rule:nonzero;stroke:#000000;stroke-width:4.69999981;stroke-linecap:round;stroke-linejoin:round;stroke-miterlimit:4;stroke-opacity:1;stroke-dasharray:none;stroke-dashoffset:0"
       id="path3616"
       d="m 588.15874,131.47252 c 4.23191,3.01455 7.27139,7.60634 7.05146,12.92543 -1.56555,4.5281 -7.31319,7.38357 -12.01243,7.6908 -1.20795,0.0425 -0.62484,0.031 -1.74927,0.0381 0,0 6.89836,-5.0343 6.89836,-5.0343 l 0,0 c 1.09067,-0.0397 0.52645,-0.006 1.69232,-0.10549 3.27881,-0.62057 5.15339,-2.73075 -4.80792,3.39161 -0.62614,0.38484 1.4461,-0.53672 1.90426,-1.11139 0.24236,-0.304 0.30596,-0.71485 0.45894,-1.07227 0.70797,-5.03498 -2.71968,-9.45132 -6.62127,-12.20909 0,0 7.18555,-4.51343 7.18555,-4.51343 z" />
    <path
       style="fill:#000000;fill-opacity:1;fill-rule:nonzero;stroke:#000000;stroke-width:4.69999981;stroke-linecap:round;stroke-linejoin:round;stroke-miterlimit:4;stroke-opacity:1;stroke-dasharray:none;stroke-dashoffset:0"
       id="path3618"
       d="m 565.37209,106.99997 c -2.52353,2.61801 -4.52115,8.79714 -7.91284,10.47801 -2.7817,1.37856 -5.6571,2.55934 -8.48565,3.83901 -2.43793,-2.20991 1.53478,-5.75786 2.94453,-7.65478 3.15779,-5.11086 21.60157,-11.66346 3.21503,-3.64948 -0.76803,-1.09169 -1.07391,-2.36745 -1.40041,-3.63542 0,0 7.49889,-4.05289 7.49889,-4.05289 l 0,0 c 0.27997,1.18259 0.53422,2.36557 1.24667,3.38269 -7.66363,7.14092 -9.35421,7.84345 0.10708,1.93463 1.25015,-0.78076 -4.24129,2.29826 -2.87273,2.66027 -1.13726,1.51102 -4.34751,5.62818 -4.26856,5.77513 0.0978,0.18212 0.34368,0.22993 0.51551,0.34489 -2.13976,1.39887 -4.28481,2.7897 -6.41929,4.19662 -0.37029,0.24408 0.79853,-0.40941 1.12651,-0.70793 2.91384,-2.65214 4.63006,-6.3967 6.94126,-9.51374 0,0 7.764,-3.39701 7.764,-3.39701 z" />
    <path
       style="fill:#000000;fill-opacity:1;fill-rule:nonzero;stroke:#000000;stroke-width:4.69999981;stroke-linecap:round;stroke-linejoin:round;stroke-miterlimit:4;stroke-opacity:1;stroke-dasharray:none;stroke-dashoffset:0"
       id="path3620"
       d="m 586.34274,109.71814 c 3.98013,-2.57026 16.42142,-12.171009 19.0926,-11.204741 1.35867,4.281001 -10.64445,9.266841 -11.1091,9.537801 -2.54746,-0.38626 -2.49848,-1.25626 -5.29545,0.043 -4.16601,1.45669 -7.84311,4.4995 -12.24388,5.2151 -3.00583,-0.29807 -0.26428,-4.94932 0.49128,-6.45811 1.54272,-3.59951 9.71949,-7.165954 10.16664,-1.94111 0.0961,1.12256 -0.44354,2.71531 -0.71917,3.73928 -0.20958,-0.0127 -1.12333,3.96088 -1.31937,3.64432 -0.11003,-0.17765 0.2328,-0.70222 0.0383,-0.62571 -5.28324,2.07863 -7.95818,4.79802 -4.61465,1.69847 2.2684,-1.9534 3.1857,-4.21164 4.07069,-6.95406 0.825,-3.01951 0.43573,-1.4953 1.16619,-4.57305 0,0 7.63999,-3.673937 7.63999,-3.673937 l 0,0 c -0.71755,3.106117 -0.34808,1.561805 -1.10786,4.633057 -0.97335,2.7966 -1.49964,5.28728 -3.91482,7.32431 -4.00182,4.13484 -14.30428,11.10759 -9.62845,2.17275 0.0296,-0.10021 0.89137,-2.91743 0.90851,-3.30205 0.0154,-0.34514 -0.0688,-0.70913 -0.24271,-1.00765 -0.17677,-0.30336 -1.02691,-0.48846 -0.76581,-0.72321 11.12102,-9.998567 7.86121,-6.07944 6.10154,-3.89527 -0.41057,0.6839 -3.33574,5.36735 -1.49086,4.79542 4.28686,-1.15031 7.99345,-3.82587 12.15981,-5.31448 2.07132,-0.62859 3.33151,0.11651 5.22469,-0.16046 -2.07265,1.21375 -4.13775,2.44046 -6.21794,3.64123 -0.37066,0.21397 0.75828,-0.40858 1.08881,-0.68046 0.73898,-0.60786 1.35439,-2.03909 2.28937,-2.37683 0.13096,-0.0473 0.24052,0.14038 0.36078,0.21057 -2.29015,1.15034 -6.03441,2.7833 3.93389,-2.39694 0.92583,-0.48113 -1.75238,1.13308 -2.62388,1.70677 -2.90127,1.90984 -2.75823,1.83261 -5.56417,3.76564 0,0 -7.87501,3.16031 -7.87501,3.16031 z" />
    <path
       style="fill:#000000;fill-opacity:1;fill-rule:nonzero;stroke:#000000;stroke-width:4.69999981;stroke-linecap:round;stroke-linejoin:round;stroke-miterlimit:4;stroke-opacity:1;stroke-dasharray:none;stroke-dashoffset:0"
       id="path3622"
       d="m 422.25282,560.41162 c 1.66266,-11.82149 3.40462,-23.63291 5.15692,-35.44278 1.71066,-12.33151 3.4841,-24.66282 5.82644,-36.89211 0.99868,-5.23242 2.139,-10.45384 2.79572,-15.74463 0.27201,-2.72808 0.2251,-5.47619 0.21273,-8.21428 0.81196,-3.25081 1.54362,-6.57035 2.59191,-9.75931 1.4175,-3.69851 2.26595,-7.56275 2.7583,-11.4826 -0.11255,-3.71593 1.17404,-7.1429 2.03932,-10.68969 0.4845,-2.25678 0.93454,-4.52532 1.09085,-6.83077 0.20533,-1.15308 0.74654,-2.17768 1.27,-3.20791 0,0 7.7814,-3.49635 7.7814,-3.49635 l 0,0 c -0.52166,0.934 -1.04061,1.87185 -1.42116,2.87514 -0.12974,2.35805 -0.55905,4.67037 -1.06335,6.97742 -0.79513,3.54038 -2.25599,6.89967 -2.07784,10.60298 -0.44718,3.97269 -1.27751,7.8969 -2.67894,11.65055 -1.14952,3.07923 -1.59244,6.39005 -2.70513,9.49218 0.007,2.76791 0.0789,5.54612 -0.16488,8.30595 -0.60252,5.34226 -1.92092,10.58957 -2.90371,15.86691 -2.4006,12.22155 -4.19721,24.55244 -5.90311,36.88816 -1.73908,11.7761 -3.50297,23.55289 -4.99901,35.36044 0,0 -7.60646,3.7407 -7.60646,3.7407 z" />
    <path
       style="fill:#000000;fill-opacity:1;fill-rule:nonzero;stroke:#000000;stroke-width:4.69999981;stroke-linecap:round;stroke-linejoin:round;stroke-miterlimit:4;stroke-opacity:1;stroke-dasharray:none;stroke-dashoffset:0"
       id="path3624"
       d="m 420.62846,438.28957 c 5.73808,-4.4562 10.46845,-10.04295 16.19809,-14.49697 5.10837,-3.07434 11.92993,-10.01239 18.23122,-6.40507 2.55052,3.30507 3.66669,7.66082 4.67544,11.67264 1.11739,3.42686 2.53024,6.72514 3.49943,10.20072 0.22674,0.84037 0.43227,1.68657 0.59183,2.54232 0,0 -7.58882,3.97647 -7.58882,3.97647 l 0,0 c -0.10484,-0.82611 -0.28037,-1.64205 -0.49321,-2.44876 -0.92354,-3.49813 -2.32664,-6.80942 -3.47214,-10.23659 -0.92221,-3.76563 -1.94143,-7.94366 -4.33129,-11.03422 -1.47497,-0.65865 -2.80632,-0.86094 -4.42145,-0.41046 -0.62244,0.17361 -2.31578,1.11999 -1.78998,0.74436 0.92675,-0.66205 8.99419,-5.50678 2.94843,-1.72666 -5.84344,4.29789 -10.49095,9.95612 -16.17255,14.46191 0,0 -7.875,3.16031 -7.875,3.16031 z" />
    <path
       style="fill:#000000;fill-opacity:1;fill-rule:nonzero;stroke:#000000;stroke-width:4.69999981;stroke-linecap:round;stroke-linejoin:round;stroke-miterlimit:4;stroke-opacity:1;stroke-dasharray:none;stroke-dashoffset:0"
       id="path3626"
       d="m 506.94753,461.34844 c 1.64625,9.09088 1.41442,18.2213 0.89386,27.39173 -1.24034,9.16858 -2.21977,18.38638 -4.22815,27.42561 -1.02041,4.24916 -1.83546,8.54578 -2.47984,12.86734 0,0 -7.6597,3.75694 -7.6597,3.75694 l 0,0 c 0.68729,-4.35191 1.50625,-8.68659 2.54834,-12.96821 2.10048,-8.99369 3.04403,-18.18546 4.33452,-27.3217 0.52519,-9.10646 0.85058,-18.17904 -0.90628,-27.19668 0,0 7.49725,-3.95503 7.49725,-3.95503 z" />
    <path
       style="fill:#000000;fill-opacity:1;fill-rule:nonzero;stroke:#000000;stroke-width:4.69999981;stroke-linecap:round;stroke-linejoin:round;stroke-miterlimit:4;stroke-opacity:1;stroke-dasharray:none;stroke-dashoffset:0"
       id="path3628"
       d="m 522.50501,448.68795 c 6.78573,-3.29731 14.07968,-5.12516 21.46009,-6.47688 4.07926,-1.09252 8.14887,-2.22067 12.19788,-3.42064 0,0 -6.7564,5.20814 -6.7564,5.20814 l 0,0 c -4.04329,1.16106 -8.09341,2.30501 -12.18109,3.30055 -7.35974,1.38259 -14.61474,3.31187 -21.34363,6.68672 0,0 6.62315,-5.29789 6.62315,-5.29789 z" />
    <path
       style="fill:#000000;fill-opacity:1;fill-rule:nonzero;stroke:#000000;stroke-width:4.69999981;stroke-linecap:round;stroke-linejoin:round;stroke-miterlimit:4;stroke-opacity:1;stroke-dasharray:none;stroke-dashoffset:0"
       id="path3630"
       d="m 520.10726,478.44215 c 7.99883,0.002 15.93595,-1.3435 23.89291,-2.08693 5.19117,-0.15087 10.14998,-1.82127 15.18751,-2.91607 0.4614,-0.0956 0.92279,-0.19122 1.38419,-0.28683 0,0 -6.78579,5.14583 -6.78579,5.14583 l 0,0 c -0.45559,0.0949 -0.91118,0.1899 -1.36677,0.28485 -5.02794,1.10769 -9.99886,2.66524 -15.18827,2.78799 -7.98486,0.75678 -15.95008,2.06019 -23.98218,2.05408 0,0 6.8584,-4.98292 6.8584,-4.98292 z" />
  </g>
</svg>
