<?xml version="1.0" encoding="UTF-8" standalone="no"?>
<!-- Created with Inkscape (http://www.inkscape.org/) -->
<svg
   xmlns:dc="http://purl.org/dc/elements/1.1/"
   xmlns:cc="http://creativecommons.org/ns#"
   xmlns:rdf="http://www.w3.org/1999/02/22-rdf-syntax-ns#"
   xmlns:svg="http://www.w3.org/2000/svg"
   xmlns="http://www.w3.org/2000/svg"
   xmlns:sodipodi="http://sodipodi.sourceforge.net/DTD/sodipodi-0.dtd"
   xmlns:inkscape="http://www.inkscape.org/namespaces/inkscape"
   width="2003.5085"
   height="761.71149"
   id="svg2"
   sodipodi:version="0.32"
   inkscape:version="0.46+devel"
   sodipodi:docname="c27d5.svg"
   inkscape:output_extension="org.inkscape.output.svg.inkscape"
   version="1.0">
  <defs
     id="defs4">
    <inkscape:perspective
       sodipodi:type="inkscape:persp3d"
       inkscape:vp_x="0 : 526.18109 : 1"
       inkscape:vp_y="0 : 1000 : 0"
       inkscape:vp_z="744.09448 : 526.18109 : 1"
       inkscape:persp3d-origin="372.04724 : 350.78739 : 1"
       id="perspective10" />
  </defs>
  <sodipodi:namedview
     id="base"
     pagecolor="#ffffff"
     bordercolor="#666666"
     borderopacity="1.0"
     inkscape:pageopacity="0.0"
     inkscape:pageshadow="2"
     inkscape:zoom="0.35"
     inkscape:cx="983.75542"
     inkscape:cy="520.99452"
     inkscape:document-units="px"
     inkscape:current-layer="layer1"
     showgrid="false"
     inkscape:window-width="1280"
     inkscape:window-height="712"
     inkscape:window-x="-5"
     inkscape:window-y="-3" />
  <metadata
     id="metadata7">
    <rdf:RDF>
      <cc:Work
         rdf:about="">
        <dc:format>image/svg+xml</dc:format>
        <dc:type
           rdf:resource="http://purl.org/dc/dcmitype/StillImage" />
        <dc:title></dc:title>
      </cc:Work>
    </rdf:RDF>
  </metadata>
  <g
     inkscape:label="Layer 1"
     inkscape:groupmode="layer"
     id="layer1"
     transform="translate(608.75542,-291.64519)">
    <path
       style="fill:#000000;fill-opacity:1;fill-rule:nonzero;stroke:#000000;stroke-width:4.69999981;stroke-linecap:round;stroke-linejoin:round;stroke-miterlimit:4;stroke-opacity:1;stroke-dasharray:none;stroke-dashoffset:0"
       id="path2694"
       d="m -406.46284,754.04783 c -8.78911,-0.69852 -16.67017,-4.18456 -24.06633,-8.76113 -8.40869,-5.25117 -13.20323,-13.69786 -17.06147,-22.54112 -4.84387,-13.56939 -6.59771,-27.76372 -7.04273,-42.08169 -0.44572,-20.41172 3.11204,-40.58195 7.78087,-60.36554 6.40406,-25.07724 17.28224,-48.45762 29.60399,-71.08871 14.50608,-26.58079 32.77062,-50.58961 52.36626,-73.55554 20.43129,-24.38113 45.03395,-44.53693 70.39252,-63.51296 24.88066,-17.22055 51.05824,-33.10335 79.58008,-43.54727 4.64964,-1.70258 9.41853,-3.05991 14.1278,-4.58986 19.43549,-5.75898 39.48585,-9.61368 59.75584,-10.63944 13.2293,-0.66946 18.34089,-0.1869 31.56368,0.30753 33.544887,2.02897 64.361883,11.91173 95.195407,24.56019 20.5465935,9.16393 40.703333,19.3445 59.704403,31.42965 11.130153,7.07905 16.716643,11.36704 27.410843,19.10561 21.692331,16.61894 41.539537,35.73076 58.246667,57.39639 3.27815,4.25107 6.29448,8.69775 9.44173,13.04662 13.92948,21.33042 26.70898,43.66806 35.33747,67.72812 1.64649,4.59114 2.96178,9.2944 4.44267,13.9416 8.19251,28.32557 9.03842,57.04752 7.24809,86.23886 -2.12212,18.93191 -5.53299,37.79 -11.22539,55.99947 -3.33488,10.66798 -5.7474,16.03464 -9.92336,26.36162 -10.8224,26.13125 -27.32786,48.82737 -45.83226,69.95708 -19.61536,22.30865 -43.630427,39.88014 -68.865603,55.25173 -21.253732,12.88294 -43.7624204,23.76477 -67.378073,31.59572 -11.246469,3.72933 -16.969298,4.89465 -28.495831,7.73217 -28.799119,7.07186 -58.345353,9.93946 -87.925133,10.5765 -28.6071,0.97285 -56.82858,-2.92213 -84.61262,-9.36254 -25.63556,-6.55163 -49.75262,-17.55375 -73.59103,-28.80537 -22.56028,-10.49883 -43.95453,-23.31993 -64.00584,-38.02322 -17.40523,-13.1654 -32.51113,-28.89727 -46.61935,-45.45966 -10.2754,-12.86503 -18.98159,-26.83486 -27.30853,-41.00406 0,0 14.25468,-8.23369 14.25468,-8.23369 l 0,0 c 8.11573,14.18122 16.85522,28.00956 27.03141,40.82469 14.02793,16.45507 29.05348,32.094 46.34452,45.18528 19.96537,14.64467 41.28058,27.38286 63.75783,37.81347 23.74933,11.18792 47.78285,22.11718 73.33659,28.56103 27.70537,6.33405 55.83544,10.09879 84.33733,9.06702 29.51076,-0.75192 58.978889,-3.67461 87.689297,-10.84041 14.400747,-3.62644 28.364287,-7.53897 42.199357,-13.00113 40.459366,-15.97361 -13.1193413,4.73105 26.82765,-11.83268 0.379104,-0.15719 -0.50723,0.64532 -0.760845,0.96798 25.287797,-15.1665 49.350164,-32.62617 69.027871,-54.79046 18.54271,-20.95008 35.10236,-43.48383 46.02158,-69.45319 4.11574,-10.0435 6.72316,-15.82647 10.01669,-26.20171 5.74734,-18.10524 9.18555,-36.87155 11.38947,-55.70849 1.90523,-29.00479 1.07272,-57.54433 -6.96274,-85.71896 -1.4572,-4.61666 -2.74747,-9.28937 -4.3716,-13.84998 -8.53065,-23.95433 -21.22465,-46.20035 -35.05577,-67.43512 -3.12743,-4.32305 -6.12281,-8.74479 -9.3823,-12.96917 C 100.85179,472.76872 81.084365,453.77347 59.488569,437.25134 48.90972,429.62805 43.14783,425.23503 32.144091,418.26121 13.187509,406.24714 -6.8998146,396.09276 -27.406589,387.02154 c -30.611257,-12.44007 -61.690178,-22.25083 -94.954701,-24.04682 -13.3337,-0.43805 -18.13452,-0.89589 -31.47083,-0.13435 -20.22143,1.1547 -40.20509,5.10973 -59.57024,10.96079 -14.43419,4.81212 -13.71588,4.20428 -27.60408,10.2946 -4.4722,1.96117 -8.79318,4.2605 -13.29185,6.16019 -0.28985,0.1224 0.81048,-0.93389 0.53897,-0.7749 -10.34774,6.05951 -15.97263,10.07417 -25.94578,16.78495 -25.38201,18.87195 -50.06445,38.88732 -70.52895,63.18669 -19.59153,22.84627 -37.87529,46.71386 -52.37195,73.19603 -12.31026,22.46999 -23.16731,45.68704 -29.58984,70.60704 -4.68509,19.6171 -8.20659,39.63538 -7.78677,59.88649 0.42675,14.09359 2.20445,28.05009 6.96529,41.40518 3.73882,8.5481 8.40803,16.64148 16.60099,21.6232 7.34531,4.42046 15.14279,7.58404 23.80877,8.10809 0,0 -13.85528,9.76911 -13.85528,9.76911 z" />
    <path
       style="fill:#000000;fill-opacity:1;fill-rule:nonzero;stroke:#000000;stroke-width:4.69999981;stroke-linecap:round;stroke-linejoin:round;stroke-miterlimit:4;stroke-opacity:1;stroke-dasharray:none;stroke-dashoffset:0"
       id="path2696"
       d="m 1213.8853,730.48094 c -11.3802,5.81017 -23.7319,8.60841 -36.2696,10.49624 -12.6997,1.05759 -25.7135,-0.11725 -37.3484,-5.6759 -2.4764,-1.18311 -4.7919,-2.67693 -7.1879,-4.01539 -16.5138,-9.80654 -27.6363,-24.89575 -37.2043,-41.13276 -10.8382,-19.39925 -14.5425,-41.13595 -15.959,-63.01692 -0.7609,-22.52456 5.0969,-40.70472 15.834,-60.17541 8.7643,-13.32561 19.6596,-25.3583 33.5852,-33.42147 7.2437,-4.19423 14.6697,-8.06533 22.0046,-12.098 14.5998,-5.46657 30.3187,-8.03288 45.9098,-6.69986 3.2847,0.28085 6.5289,0.92024 9.7934,1.38036 21.6689,4.20824 40.8009,14.77642 58.4779,27.57945 19.059,14.29934 33.9508,32.79488 47.4649,52.19812 13.4272,20.23548 20.1269,40.33898 23.9002,64.11061 1.325,16.93846 -0.4885,34.47779 -11.1373,48.42066 -2.152,2.81773 -4.8018,5.21785 -7.2027,7.82677 -13.4709,11.0713 -28.9685,20.29338 -46.1003,24.17866 -8.6306,1.95731 -17.3555,2.47055 -26.1276,3.26448 0,0 12.9818,-9.6163 12.9818,-9.6163 l 0,0 c 9.3407,-0.88498 16.6869,-1.25438 25.9034,-3.52521 4.1482,-1.02206 7.9618,-3.33079 12.1856,-3.97235 1.2929,-0.19637 -4.053,3.29357 -2.9627,2.57147 3.1186,-2.06559 6.0439,-4.40921 9.0659,-6.61382 2.4262,-2.50776 5.0915,-4.80446 7.2785,-7.52328 10.8534,-13.49239 12.8814,-30.67872 11.7215,-47.3938 -1.3605,-8.85513 -1.6885,-12.80385 -4.1476,-21.47309 -4.2334,-14.92489 -10.8881,-29.03899 -19.3314,-42.02825 -13.4316,-19.25334 -28.2094,-37.60699 -47.211,-51.71157 -17.5621,-12.60736 -36.6126,-22.94477 -58.1301,-26.84734 -19.7345,-2.50186 -36.5593,-1.47022 -55.1738,6.14854 2.0473,-1.38202 8.3556,-5.24225 6.142,-4.14607 -14.2976,7.08016 -24.8965,20.07002 -33.9659,32.72446 -11.0128,19.29571 -16.8233,36.85853 -16.2931,59.35942 1.2647,21.63952 4.9005,43.1481 15.6412,62.31233 9.4767,15.98044 20.4909,30.79423 36.8771,40.30101 2.3674,1.27078 4.6593,2.69338 7.1021,3.81234 11.5395,5.28595 24.3858,6.22241 36.8647,4.95183 12.5459,-2.05295 24.936,-5.02347 36.1779,-11.19623 0,0 -13.159,10.64627 -13.159,10.64627 z" />
    <path
       style="fill:#000000;fill-opacity:1;fill-rule:nonzero;stroke:#000000;stroke-width:4.69999981;stroke-linecap:round;stroke-linejoin:round;stroke-miterlimit:4;stroke-opacity:1;stroke-dasharray:none;stroke-dashoffset:0"
       id="path2698"
       d="m -562.49213,974.2891 c 2.94952,3.9929 5.9835,7.8156 9.98417,10.7865 -0.7737,1.8308 3.79681,-1.4795 2.91229,-1.0359 -4.72405,2.3691 -9.10726,5.4237 -13.96238,7.5112 -0.44594,0.1917 0.0119,-0.9875 -0.13541,-1.45 -0.15857,-0.4978 -0.50841,-0.9129 -0.76262,-1.3693 -2.52732,-4.8578 -6.41417,-6.9867 -11.50954,-8.3681 -1.00101,-0.046 -2.00321,-0.2048 -3.00303,-0.1379 -2.14359,0.1436 -4.13489,0.796 -6.06935,1.6956 -1.03884,0.4832 -4.02434,2.1922 -3.01113,1.6573 12.34828,-6.518 14.63434,-8.9746 8.32139,-3.3631 -5.83511,5.5934 -9.37742,12.5471 -11.34738,20.2842 -1.05446,6.566 2.22655,11.4584 6.99193,15.5557 5.53231,3.7721 12.25373,4.4019 18.76959,4.0434 1.11648,-0.1352 2.23296,-0.2704 3.34945,-0.4056 0,0 -13.55077,10.0594 -13.55077,10.0594 l 0,0 c -1.13228,0.096 -2.26456,0.193 -3.39684,0.2895 -6.90339,0.049 -13.8562,-0.7704 -19.52444,-5.0686 -5.06916,-4.5907 -8.66816,-10.0227 -7.8542,-17.1704 1.83269,-7.9889 5.21978,-15.252 10.99568,-21.2119 7.65087,-7.3375 2.98376,-3.2639 20.41598,-13.5556 3.92636,-2.3181 8.41404,-3.0789 12.86536,-2.2107 5.36927,1.7014 9.54635,4.3328 12.28856,9.4288 5.64437,10.0673 -9.25383,17.0513 -17.17964,13.895 -3.9618,-3.2018 -7.03207,-7.1516 -10.15501,-11.1529 0,0 14.56734,-8.7066 14.56734,-8.7066 z" />
    <path
       style="fill:#000000;fill-opacity:1;fill-rule:nonzero;stroke:#000000;stroke-width:4.69999981;stroke-linecap:round;stroke-linejoin:round;stroke-miterlimit:4;stroke-opacity:1;stroke-dasharray:none;stroke-dashoffset:0"
       id="path2700"
       d="m -515.57338,992.5195 c -2.42682,6.6302 -2.73651,13.4454 -0.48266,20.1131 2.16394,4.1287 6.3356,5.3415 10.51606,3.6803 6.92736,-4.3488 -2.35695,1.5314 -10.03516,5.4286 -0.80818,0.4102 1.46012,-1.0776 2.14263,-1.6739 2.04154,-1.7838 3.68382,-3.9796 5.38271,-6.0739 2.97651,-4.0417 5.65464,-8.3607 9.44685,-11.6988 15.92886,-9.0562 16.51945,-13.5231 24.11912,-1.101 1.5544,3.0725 3.03711,6.1687 4.70657,9.1816 0,0 -14.70919,8.4482 -14.70919,8.4482 l 0,0 c -1.62578,-3.0034 -3.1033,-6.068 -4.63576,-9.1182 -1.14768,-1.8316 -2.20323,-4.0118 -3.97626,-5.3488 -0.35097,-0.2647 -0.74685,-0.5056 -1.17748,-0.5938 -0.46416,-0.095 -1.81228,0.3275 -1.42005,0.062 4.15714,-2.8169 8.58289,-5.2154 12.87434,-7.8231 -4.21246,2.7733 -6.81051,7.312 -9.67287,11.3505 -7.25236,9.1079 -14.28453,15.055 -26.50561,19.2969 -5.06011,0.8274 -9.52407,-1.1334 -11.87368,-5.8507 -2.32351,-6.9492 -2.37808,-14.0501 -0.0627,-21.0636 0,0 15.36315,-7.2151 15.36315,-7.2151 z" />
    <path
       style="fill:#000000;fill-opacity:1;fill-rule:nonzero;stroke:#000000;stroke-width:4.69999981;stroke-linecap:round;stroke-linejoin:round;stroke-miterlimit:4;stroke-opacity:1;stroke-dasharray:none;stroke-dashoffset:0"
       id="path2702"
       d="m -423.30869,975.732 c 1.14385,11.1926 1.68403,22.4328 2.1346,33.6707 0.29747,5.4823 0.21673,10.9837 0.51582,16.4653 -5.07039,2.2524 -9.95919,4.9687 -15.21117,6.7572 -0.49955,0.1701 -0.0251,-1.0571 0.0176,-1.5831 0.3645,-4.4927 2.20684,-8.4848 4.08064,-12.5194 4.41612,-8.3722 10.38152,-15.7609 17.93219,-21.4544 8.52218,-6.1473 15.42129,-9.8365 24.5963,-12.6462 0,0 -13.34964,10.3526 -13.34964,10.3526 l 0,0 c -5.37276,1.836 -17.196,7.7113 4.3681,-3.8794 -7.73536,5.2937 -13.68426,12.4611 -18.22669,20.6621 -1.51071,3.0798 -3.04895,6.1706 -3.87263,9.5257 -0.17958,0.7315 -0.2976,1.4797 -0.36531,2.2299 -0.0469,0.5192 0.45395,1.2706 0.0229,1.5638 -4.83834,3.2903 -10.13945,5.8425 -15.20918,8.7637 0.18122,-5.5286 -0.10851,-11.0679 -0.16501,-16.5954 -0.35905,-11.1671 -0.82196,-22.3514 -2.25327,-33.4417 0,0 14.98481,-7.8714 14.98481,-7.8714 z" />
    <path
       style="fill:#000000;fill-opacity:1;fill-rule:nonzero;stroke:#000000;stroke-width:4.69999981;stroke-linecap:round;stroke-linejoin:round;stroke-miterlimit:4;stroke-opacity:1;stroke-dasharray:none;stroke-dashoffset:0"
       id="path2704"
       d="m -325.50787,1051.0067 c -8.04139,-9.9956 -11.64627,-22.0887 -14.45205,-34.3828 -2.77984,-16.1132 -4.24945,-32.5335 -3.96876,-48.8901 0.35957,-7.1567 1.15421,-14.2822 1.92185,-21.4042 0.16129,-1.4712 0.0877,-0.8053 0.22015,-1.9978 0,0 15.31872,-7.554 15.31872,-7.554 l 0,0 c -0.18337,1.2029 -0.0833,0.5308 -0.29642,2.0169 -0.96698,7.1175 -1.78693,14.2593 -2.31425,21.4236 -0.60872,16.2468 0.8875,32.5848 3.63128,48.5935 2.77994,12.0274 6.30709,23.9277 14.50682,33.4882 0,0 -14.56734,8.7067 -14.56734,8.7067 z" />
    <path
       style="fill:#000000;fill-opacity:1;fill-rule:nonzero;stroke:#000000;stroke-width:4.69999981;stroke-linecap:round;stroke-linejoin:round;stroke-miterlimit:4;stroke-opacity:1;stroke-dasharray:none;stroke-dashoffset:0"
       id="path2706"
       d="m -351.59061,958.1275 c 3.03494,9.2353 6.97011,11.9828 16.26202,13.8068 6.75001,0.5205 13.01064,-1.6615 18.95613,-4.6791 1.8171,-0.9223 7.18844,-3.8211 5.31347,-3.023 -3.11916,1.3276 -6.04059,3.0787 -9.06089,4.6181 7.99121,-5.7947 14.97464,-12.7127 21.73615,-19.8582 4.64923,-4.0074 7.27182,-9.5308 10.79822,-14.3996 4.4566,-5.7141 5.79107,-5.4098 17.61444,-8.1984 0.84482,-0.1993 0.90853,8.9984 0.91649,9.4368 -0.0715,12.7382 -0.26224,25.4757 -0.30507,38.2142 0.2532,12.9481 -0.23883,25.841 -1.3132,38.7398 -0.43683,0.4616 -0.69864,14.9402 -0.13211,10.5898 -4.61837,2.5675 -9.1633,5.2719 -13.8551,7.7026 -0.44479,0.2304 0.69722,-0.7196 1.05444,-1.0708 0.92339,-0.9078 1.96353,-2.0876 3.09312,-2.7477 5.19359,-3.035 10.4509,-5.9595 15.67635,-8.9393 3.53965,-1.1557 5.09865,7.2319 5.56686,9.4283 0.62293,3.5328 0.91111,7.1094 1.35865,10.6654 0,0 -15.13292,7.9042 -15.13292,7.9042 l 0,0 c -0.27478,-3.5367 -0.53346,-7.0797 -1.13298,-10.5803 -0.41564,-2.0029 -0.73954,-6.1546 -2.81889,-7.4084 -0.37686,-0.2272 -0.60922,1.9629 -1.15615,0.6374 4.50813,-2.623 9.03646,-5.2115 13.5244,-7.8689 0.37549,-0.2223 -0.81922,0.3198 -1.18275,0.5612 -1.15478,0.7668 -1.94754,2.1029 -3.11678,2.8368 -5.08205,3.19 -10.25686,6.2298 -15.38529,9.3448 -4.55945,-2.0998 -1.1408,-9.9219 -1.31533,-13.6003 1.19681,-12.8696 1.77468,-25.7275 1.45673,-38.6592 0.10939,-12.6914 0.21507,-25.3845 0.13867,-38.0761 -0.3473,-13.036 -4.06289,-6.8197 13.75873,-17.4355 0.71228,-0.4242 -2.98932,2.5711 -1.70102,1.8146 -3.8368,4.7412 -6.14966,10.5741 -10.88522,14.6259 -6.80923,7.2293 -13.7709,14.2979 -21.77742,20.2301 -13.46977,8.3032 -27.64586,20.1372 -44.50347,18.7804 -9.67184,-2.3405 -13.9244,-5.7886 -17.33058,-15.2812 0,0 14.8803,-8.1112 14.8803,-8.1112 z" />
    <path
       style="fill:#000000;fill-opacity:1;fill-rule:nonzero;stroke:#000000;stroke-width:4.69999981;stroke-linecap:round;stroke-linejoin:round;stroke-miterlimit:4;stroke-opacity:1;stroke-dasharray:none;stroke-dashoffset:0"
       id="path2708"
       d="m 1088.3957,775.93047 c 3.7724,8.42192 5.0948,17.38072 5.3999,26.51279 0.1991,2.23213 -0.1218,4.47022 -0.03,6.70256 0.025,0.61291 0.3272,2.38724 0.446,1.78542 0.093,-0.47186 0.4484,-1.64002 0.01,-1.44283 -4.6419,2.08666 -8.8909,4.95564 -13.3364,7.43345 3.9057,-6.19201 7.2697,-12.67867 11.3955,-18.75134 5.4577,-7.6931 18.1275,-19.66868 27.2378,-17.54616 4.559,2.9996 6.0452,8.11163 7.0213,13.18622 1.1977,4.94967 0.7079,9.79804 0.1805,14.74953 0.01,0.21342 0.1629,0.79875 0.02,0.64027 -4.9293,-5.45962 17.048,-9.3108 -14.7778,6.52572 -0.5225,0.26001 0.6484,-0.97057 0.9698,-1.45774 3.1882,-4.83307 -0.4248,0.60211 3.2946,-4.97806 4.5142,-6.93174 10.3114,-12.77756 17.0303,-17.55575 4.6932,-2.35946 18.183,-14.67738 26.9022,-9.72729 2.1073,1.19636 2.7827,2.6477 4.0973,4.55927 3.0657,6.98936 3.1189,14.75687 3.335,22.25975 0.075,4.03033 0.047,2.12298 0.088,5.722 0,0 -15.0958,7.69342 -15.0958,7.69342 l 0,0 c 0.034,-3.60577 0.027,-1.69663 0.013,-5.72746 -0.1519,-7.17721 -0.1128,-14.63366 -2.9185,-21.36423 -1.1279,-1.59335 -1.5976,-2.73762 -3.4739,-3.56687 -6.369,-2.81499 -20.2298,7.61556 2.7248,-5.99584 -6.8485,4.43757 -12.6988,10.12052 -17.231,16.93628 -3.2819,4.89696 -17.1347,25.68017 -20.2045,13.64572 0.2665,-4.91219 1.596,-9.22188 0.1338,-14.40747 -0.761,-4.14842 -1.7505,-9.31378 -5.9733,-11.29566 -6.4593,0.28931 -2.0449,0.34168 11.0359,-7.60426 0.7024,-0.4267 -1.4205,0.83036 -2.0958,1.29895 -2.8181,1.95568 -5.049,4.41133 -6.9075,7.29873 -4.213,6.01127 -7.915,12.32096 -11.0856,18.94648 -17.2669,10.78437 -18.133,15.06545 -17.7685,-0.28831 -0.1698,-8.90355 -1.2261,-17.66797 -5.176,-25.79413 0,0 14.7408,-8.39316 14.7408,-8.39316 z" />
    <path
       style="fill:#000000;fill-opacity:1;fill-rule:nonzero;stroke:#000000;stroke-width:4.69999981;stroke-linecap:round;stroke-linejoin:round;stroke-miterlimit:4;stroke-opacity:1;stroke-dasharray:none;stroke-dashoffset:0"
       id="path2710"
       d="m 1206.7322,819.53281 c -0.4043,-6.91262 2.494,-12.8695 7.2159,-17.71757 7.2274,-4.99169 19.3166,-15.83254 23.9251,-3.95795 1.2195,4.2993 0.082,8.72957 -0.7675,12.99522 -0.1502,0.86879 -0.4226,1.70337 -0.4774,2.58427 0,0 -15.6297,6.98266 -15.6297,6.98266 l 0,0 c 0.2443,-0.46374 0.8433,-1.37806 0.789,-2.16004 0.8843,-3.94594 2.1312,-8.13023 1.2328,-12.14986 -0.3681,-1.02448 -0.5408,-1.97014 -1.382,-2.73287 -4.4759,-4.05846 -20.4377,9.76101 7.9802,-7.98077 -4.9569,4.1127 -8.2536,9.8368 -7.7794,16.43954 0,0 -15.107,7.69737 -15.107,7.69737 z" />
    <path
       style="fill:#000000;fill-opacity:1;fill-rule:nonzero;stroke:#000000;stroke-width:4.69999981;stroke-linecap:round;stroke-linejoin:round;stroke-miterlimit:4;stroke-opacity:1;stroke-dasharray:none;stroke-dashoffset:0"
       id="path2712"
       d="m 1290.6163,830.7524 c -9.0085,-2.16468 -15.7348,-4.59626 -21.7198,-11.89867 -3.3768,-5.90219 -3.396,-11.54276 1.4393,-16.4547 13.3047,-7.78291 18.5257,-14.16132 32.4287,-9.84638 5.2178,2.09531 8.4685,6.3911 9.39,11.85594 0.1689,11.25448 -9.7659,12.68403 -19.2315,18.02219 -0.4811,0.12527 -0.9623,0.25054 -1.4434,0.37581 0,0 13.4588,-10.43278 13.4588,-10.43278 l 0,0 c 0.4395,-0.17059 0.8791,-0.34117 1.3186,-0.51176 -4.363,2.57848 -8.7706,5.08298 -13.0889,7.73543 -0.4586,0.28166 1.0713,-0.2795 1.4934,-0.61326 1.7886,-1.41403 2.3555,-4.62372 2.4676,-6.67593 -0.3971,-4.95634 -3.6982,-8.57195 -8.3299,-10.20208 -2.1086,-0.57224 -3.4102,-1.05392 -5.648,-1.10972 -6.9427,-0.17313 -20.5753,8.6204 2.8693,-4.94139 -5.2258,3.61013 -5.6685,8.66681 -2.6784,14.13576 5.6446,6.80156 12.8176,9.10264 21.2569,10.98548 0,0 -13.9827,9.57606 -13.9827,9.57606 z" />
    <path
       style="fill:#000000;fill-opacity:1;fill-rule:nonzero;stroke:#000000;stroke-width:4.69999981;stroke-linecap:round;stroke-linejoin:round;stroke-miterlimit:4;stroke-opacity:1;stroke-dasharray:none;stroke-dashoffset:0"
       id="path2714"
       d="m 1364.6963,796.62013 c -0.4315,8.03148 -2.1282,15.83797 -4.7828,23.40491 -0.2233,0.75514 -0.4465,1.51029 -0.6698,2.26543 -0.026,0.3414 0.016,0.6953 -0.079,1.02422 -0.1426,0.49254 0.6713,-1.75191 0.2121,-1.52356 -10.7641,5.35387 -17.8549,11.00824 -11.6036,6.14586 8.5911,-8.08519 18.3964,-14.88343 29.6776,-18.83132 6.1947,-1.27467 9.6522,2.91492 12.2162,7.91527 1.9585,5.2296 3.7465,11.07737 2.0709,16.60907 -0.2259,0.36365 -0.4519,0.7273 -0.6778,1.09095 0,0 -15.7453,6.54574 -15.7453,6.54574 l 0,0 c 0.3137,-0.19021 0.6275,-0.38042 0.9413,-0.57063 2.967,-4.35711 0.1263,-10.8319 -1.274,-15.28876 -2.374,-4.56496 -5.3547,-7.66852 -10.8354,-5.87068 -6.7114,2.8079 -4.6341,2.0884 8.9379,-5.78274 0.9233,-0.53548 -1.8335,1.09797 -2.7007,1.72022 -2.5087,1.80005 -4.5844,4.06246 -6.8748,6.11264 -5.3082,4.72307 -22.7261,18.34683 -18.8847,5.57388 2.7267,-7.37609 4.6498,-14.93458 4.9649,-22.84313 0,0 15.1069,-7.69737 15.1069,-7.69737 z" />
    <path
       style="fill:#000000;fill-opacity:1;fill-rule:nonzero;stroke:#000000;stroke-width:4.69999981;stroke-linecap:round;stroke-linejoin:round;stroke-miterlimit:4;stroke-opacity:1;stroke-dasharray:none;stroke-dashoffset:0"
       id="path2716"
       d="m 139.81913,466.82368 c -7.03802,2.57122 -14.06906,2.78176 -21.1958,0.60059 -7.05712,-3.42843 -9.79657,-10.86381 -11.87982,-17.93265 -2.21374,-10.86491 -0.0151,-21.35572 3.6121,-31.6045 4.5649,-10.42282 11.64721,-18.92952 20.71016,-25.66864 16.39715,-9.59595 25.19482,-17.21801 43.63336,-13.38062 9.60697,2.50754 16.03649,8.526 20.29418,17.26492 3.69202,9.97225 3.8336,20.58826 3.19149,31.05798 -1.07399,9.80581 -4.08665,19.37498 -10.53235,26.944 -7.12225,6.49064 -16.41167,10.80416 -25.13162,14.42413 -1.20433,0.49996 -7.49825,0.0168 -8.8318,-0.0573 0,0 13.64264,-9.8296 13.64264,-9.8296 l 0,0 c 1.3679,0.0317 2.73694,0.15955 4.10369,0.0952 1.46789,-0.0691 5.39054,-1.56218 4.38072,-0.4946 -2.86864,3.03269 -7.05894,4.46764 -10.4464,6.90719 -2.2072,1.58955 9.45557,-5.29103 6.77522,-4.54777 6.90246,-6.90212 9.8211,-16.42112 11.08506,-25.94624 0.7331,-10.18962 0.68939,-20.52033 -2.83778,-30.26146 -4.03231,-8.32707 -10.24769,-13.82233 -19.43828,-15.95676 -4.91052,-0.82998 -9.19735,-1.23044 -14.13006,-0.10507 -5.98486,1.36542 -10.75696,4.28944 -9.78482,3.50611 2.90171,-2.33812 6.38435,-3.8454 9.57652,-5.76809 -9.37764,6.52011 -16.1697,14.37317 -21.11782,24.75384 -3.68605,9.91112 -6.05582,20.01291 -4.018,30.62098 1.90283,6.51292 4.35066,13.57446 11.07846,16.42712 7.05134,1.79865 13.8602,1.17905 20.66439,-1.46184 0,0 -13.40344,10.41308 -13.40344,10.41308 z" />
    <path
       style="fill:#000000;fill-opacity:1;fill-rule:nonzero;stroke:#000000;stroke-width:4.69999981;stroke-linecap:round;stroke-linejoin:round;stroke-miterlimit:4;stroke-opacity:1;stroke-dasharray:none;stroke-dashoffset:0"
       id="path2718"
       d="m 225.26008,316.03299 c 2.40764,6.97474 3.07927,14.35061 4.72999,21.49271 0.1541,0.23704 2.41341,11.35717 3.52404,7.7809 -4.59287,2.43235 -9.02208,5.20272 -13.77861,7.29703 -1.19304,0.5253 1.22128,-2.30715 1.72813,-3.50814 1.16694,-2.76511 2.10049,-5.55324 2.95332,-8.42851 1.61091,-5.39393 3.9115,-10.55748 6.47464,-15.56024 3.86472,-7.06734 16.52182,-18.6888 21.12816,-9.24307 1.46956,4.97214 2.5605,10.02983 3.29243,15.16072 0.51141,2.64414 0.31332,8.06258 3.74802,8.78614 2.50223,-5.59246 0.14948,0.0739 -13.39185,6.86882 -0.46654,0.23411 0.67864,-0.79596 0.97273,-1.22722 1.38259,-2.02747 2.41556,-4.31461 3.54662,-6.48393 2.70592,-5.31911 6.17845,-10.04695 10.1674,-14.45698 6.73931,-5.56822 17.97413,-15.81884 26.59021,-12.6394 5.82637,3.33062 8.37626,9.87302 10.65088,15.85031 1.02231,1.23388 2.93906,16.37959 4.84541,14.37498 0,0 -14.00806,9.78686 -14.00806,9.78686 l 0,0 c -4.80308,-3.13502 -2.90691,-11.4089 -5.52939,-15.98753 -2.06961,-5.39716 -4.3695,-11.79912 -9.96535,-14.39667 -2.97499,-0.42714 -5.78747,1.27513 -5.22527,0.92829 23.40831,-14.44115 13.0288,-8.02893 8.25771,-4.45801 -4.03772,4.28079 -7.6772,8.77284 -10.3491,14.05306 -4.00114,7.54526 -8.88723,20.26376 -20.78131,17.23037 -3.5218,-2.18827 -4.13011,-6.49867 -4.50141,-10.33893 -0.66607,-4.97096 -1.7188,-9.84717 -3.13685,-14.65499 -0.14733,-0.32581 -0.29931,-1.24277 -0.93478,-1.19342 -0.26926,0.0209 -0.97878,0.4519 -0.74767,0.31216 25.45243,-15.38996 13.83889,-10.24274 10.83669,-5.21506 -2.71749,4.83759 -4.92524,9.99607 -6.68059,15.25501 -3.98876,14.57942 -3.2209,11.97304 -19.74104,22.26034 -3.83592,-1.63376 -3.67629,-6.6864 -4.81323,-10.14648 -1.6394,-7.08394 -2.15658,-14.44049 -4.72926,-21.311 0,0 14.86739,-8.18812 14.86739,-8.18812 z" />
    <path
       style="fill:#000000;fill-opacity:1;fill-rule:nonzero;stroke:#000000;stroke-width:4.69999981;stroke-linecap:round;stroke-linejoin:round;stroke-miterlimit:4;stroke-opacity:1;stroke-dasharray:none;stroke-dashoffset:0"
       id="path2720"
       d="m -150.68001,662.1051 c 7.91401,1.28765 15.80177,1.95117 23.78915,1.26247 6.55658,-0.81331 13.13598,-1.27438 19.73592,-1.50174 6.79205,-0.30579 13.488097,-1.6671 20.265502,-2.32931 7.939055,-0.22036 15.755586,-1.62657 23.638238,-2.48344 8.634197,-0.81778 17.309968,-0.95437 25.975977,-1.03401 10.002432,0.39061 19.916448,-1.00425 29.8638512,-1.79618 12.1099865,-0.34236 24.1545698,-1.35046 36.2230458,-2.34945 13.578381,-0.59741 27.067776,-2.2518 40.619718,-3.22222 15.026351,-0.56941 29.901943,-2.86256 44.821948,-4.57194 15.86606,-1.973 31.62655,-4.62137 47.40307,-7.18483 15.79764,-2.98879 31.65992,-5.52271 47.54342,-7.99431 15.64605,-2.19941 31.29959,-4.36822 47.04438,-5.73328 15.06864,-2.01922 30.21897,-3.14969 45.40317,-3.75828 14.14863,-0.28837 28.32828,-0.94267 42.46759,-0.1636 12.07556,1.04748 24.16571,1.80314 36.27959,2.19645 12.14655,1.12878 24.29338,2.14738 36.48117,2.69454 12.09144,0.4521 24.1932,0.47052 36.29134,0.49268 13.93929,-0.20469 27.92219,-1.09413 41.80065,-2.45791 15.84474,-1.38477 31.67539,-2.91789 47.52554,-4.24876 18.65874,-0.94313 37.30501,-1.97752 55.95712,-3.07064 20.22162,-1.55343 40.44842,-0.9743 60.68128,-0.18688 19.99147,0.40129 39.93625,1.50814 59.8933,2.67392 18.67954,1.47554 37.30435,3.49986 55.95919,5.23699 16.31651,1.79588 32.59306,3.91902 48.90891,5.7152 13.76264,0.97721 27.49676,2.07132 41.23648,3.33879 10.15914,0.97302 20.36108,1.29147 30.55992,1.46111 8.2509,0.24151 16.42842,0.21014 24.61634,-0.8341 7.88357,-1.07958 15.82074,-1.54705 23.76641,-1.82596 7.24607,-0.19152 14.49607,-0.19449 21.74426,-0.18567 7.57247,8e-5 15.1449,0.0216 22.71737,0.0244 6.81913,-0.003 13.63826,-0.0124 20.45736,-0.0174 5.7936,-0.004 11.5871,-0.004 17.3806,-0.005 3.5534,-0.008 7.1067,-0.0136 10.6599,-0.046 8.5968,-1.19706 -10.8176,13.74519 -13.0172,7.06497 0,0 14.9013,-8.29115 14.9013,-8.29115 l 0,0 c 2.8549,6.87609 -9.1154,11.62491 -15.6981,11.26262 -3.5111,-0.0328 -7.0222,-0.0379 -10.5335,-0.0458 -5.7893,-2.4e-4 -11.5786,-5.1e-4 -17.36791,-0.005 -6.79968,-0.006 -13.59936,-0.0166 -20.39905,-0.026 -7.57912,-0.005 -15.15824,9.5e-4 -22.73736,-0.008 -7.23388,0.014 -14.46947,-0.005 -21.70056,0.22951 -7.91566,0.30291 -15.81715,0.85516 -23.67019,1.92931 -8.22232,0.9344 -16.45425,0.81752 -24.72112,0.62209 -10.18856,-0.20894 -20.37872,-0.62009 -30.52239,-1.64223 -13.71313,-1.30577 -27.43333,-2.33086 -41.16312,-3.42828 -16.2785,-1.86274 -32.52823,-3.95313 -48.81512,-5.74762 -18.61718,-1.80925 -37.21735,-3.76928 -55.86707,-5.23019 -19.9375,-1.18469 -39.8683,-2.21828 -59.83886,-2.67171 -20.21465,-0.76339 -40.42381,-1.22117 -60.62272,0.34089 -18.67314,1.10749 -37.34733,2.09354 -56.02027,3.17065 -15.86562,1.37303 -31.71882,2.87536 -47.57863,4.30723 -13.94699,1.27008 -27.96865,2.27605 -41.97322,2.38526 -12.11776,-0.0344 -24.24047,-0.0397 -36.35003,-0.54171 -12.17629,-0.5938 -24.30581,-1.70357 -36.45458,-2.68506 -12.1113,-0.403 -24.19146,-1.24908 -36.26807,-2.2412 -14.09129,-0.65096 -28.21112,-0.10409 -42.3063,0.23635 -15.16647,0.6671 -30.28691,1.88883 -45.34962,3.81426 -15.71331,1.42548 -31.34367,3.5832 -46.96119,5.8059 -15.88646,2.45413 -31.7329,5.0953 -47.54291,8.01035 -15.79095,2.58827 -31.58272,5.16708 -47.46661,7.13531 -14.94628,1.73288 -29.854513,3.95373 -44.908644,4.55162 -13.554918,1.03204 -27.063024,2.59101 -40.645075,3.26092 -12.0937919,1.02099 -24.1761078,1.89903 -36.303347,2.40531 -9.978159,0.84004 -19.935761,2.07564 -29.972228,1.7299 -8.643765,0.12068 -17.299784,0.28283 -25.904473,1.18854 -7.892733,0.8997 -15.740092,2.1827 -23.689003,2.50177 -6.78458,0.72128 -13.50343,2.11171 -20.33471,2.24732 -6.57909,0.27622 -13.13041,0.85067 -19.67917,1.53501 -8.08457,0.50305 -16.07387,-0.39699 -24.08595,-1.49834 0,0 13.85529,-9.76912 13.85529,-9.76912 z" />
    <path
       style="fill:#000000;fill-opacity:1;fill-rule:nonzero;stroke:#000000;stroke-width:4.69999981;stroke-linecap:round;stroke-linejoin:round;stroke-miterlimit:4;stroke-opacity:1;stroke-dasharray:none;stroke-dashoffset:0"
       id="path2722"
       d="m 64.684366,619.82513 c -0.13301,10.78236 -0.119656,21.56652 -0.09884,32.3496 0.338242,8.15448 1.529357,16.2355 2.399864,24.34238 1.008467,7.78322 1.88365,4.30257 -14.613202,9.32357 -0.606406,0.18457 0.04562,-1.26695 0.06059,-1.90065 0.02022,-0.85564 0.02999,-1.7115 0.04498,-2.56725 0.06921,-8.34931 0.06464,-16.69921 0.07399,-25.04879 -0.150821,-9.53573 1.148483,-19.01578 1.977451,-28.49961 0.387822,-2.60029 0.231136,-5.26595 0.550469,-7.87041 0.853297,-6.95946 13.12287,-14.6161 16.895148,-7.38899 1.422961,6.75622 2.235615,13.68627 2.943838,20.56335 0.763921,9.09967 0.983081,18.23449 1.132046,27.36153 -0.474739,4.58489 1.071849,9.62569 -0.4736,14.06784 -5.257203,2.45495 -10.256469,5.56257 -15.771608,7.36484 -1.467606,0.4796 -3.742733,-14.23804 -3.927378,-15.30011 -1.489935,-9.1223 -2.910737,-18.3272 -2.749739,-27.58947 1.278356,-15.82646 -0.458973,-11.33831 18.172071,-19.75312 2.486977,6.41318 2.567843,13.91773 3.220193,20.76887 0.903765,10.14492 1.578171,20.30836 0.706435,30.4702 -0.135305,1.16894 -0.262336,2.33886 -0.405915,3.50681 -0.156359,1.27191 -0.485207,5.30413 -0.824263,5.45355 -16.291522,7.18001 -15.168635,11.50166 -15.691168,3.4377 -1.152685,-8.73023 -1.926837,-17.48785 -2.423745,-26.2778 -0.360698,-6.94907 -0.494325,-13.9068 -0.59436,-20.86358 -0.178849,-7.06935 -1.184279,-3.79977 15.141827,-8.33601 0.701216,-0.19484 -0.01665,1.45546 -0.02346,2.18321 -0.02752,2.94145 -0.02914,3.663 -0.04816,6.7722 -0.36844,8.42457 0.499023,16.92032 -0.256332,25.32187 -0.131644,0.64979 -0.263288,1.29958 -0.394931,1.94937 0,0 -15.325487,7.33739 -15.325487,7.33739 l 0,0 c 0.182823,-0.59638 0.365645,-1.19276 0.548467,-1.78914 1.31067,-8.27757 -0.0081,-16.8243 0.416401,-25.16915 -0.01576,-2.05835 -0.532168,-8.54002 -0.09354,-8.86537 16.865265,-12.50957 15.252767,-14.54642 15.14133,-7.11262 -0.01711,6.96112 0.069,13.92368 0.386313,20.87842 0.459856,8.76381 1.176794,17.51078 2.571639,26.18222 0.529917,8.22788 0.881989,2.42968 -14.83813,11.56724 -0.20589,0.11968 0.291384,-0.38823 0.362987,-0.61536 0.182076,-0.57754 0.283283,-1.17824 0.390358,-1.77427 0.326196,-1.81576 0.661579,-4.53215 0.895411,-6.29505 1.109131,-10.07006 0.439513,-20.14722 -0.474523,-30.21861 -0.661619,-6.42078 -1.098875,-13.17631 -2.774687,-19.36722 31.425457,-19.34033 13.921555,-11.54893 12.422505,-6.23701 -0.840519,2.9784 -0.706192,6.22341 -1.192687,9.2523 -0.401115,9.1528 1.08322,18.27754 2.567609,27.28743 0.666593,3.54665 1.020919,7.2623 2.048573,10.73083 0.214082,0.72257 0.484096,1.42962 0.790369,2.1182 0.20246,0.45518 1.134062,1.00984 0.731479,1.30328 -4.496519,3.27744 -9.54019,5.72939 -14.310285,8.59409 2.601436,-2.48059 0.473907,-9.96726 1.086603,-13.3207 -0.07997,-9.08907 -0.223666,-18.18837 -1.02058,-27.24813 -0.690578,-6.66799 -1.630318,-13.3195 -2.858141,-19.90163 -2.784798,-5.77337 -0.880266,-1.12171 13.658414,-9.55967 0.308035,-0.17877 -0.48657,0.55654 -0.572438,0.90219 -0.633533,2.55021 -0.01498,5.41478 -0.652095,7.96977 -0.942801,9.44272 -2.252813,18.90247 -2.140525,28.4044 0.02469,8.32393 0.0588,16.64786 0.105858,24.97169 0.0037,0.91737 0.02519,4.46688 -0.0032,4.48821 -15.232652,11.45921 -14.751815,14.83982 -15.595603,6.17002 -0.737024,-8.19952 -1.866137,-16.3636 -2.278815,-24.5908 0.02071,-10.74949 0.03477,-21.5001 -0.09884,-32.24887 0,0 15.083018,-7.68518 15.083018,-7.68518 z" />
    <path
       style="fill:#000000;fill-opacity:1;fill-rule:nonzero;stroke:#000000;stroke-width:4.69999981;stroke-linecap:round;stroke-linejoin:round;stroke-miterlimit:4;stroke-opacity:1;stroke-dasharray:none;stroke-dashoffset:0"
       id="path2724"
       d="m 36.3943,711.19069 c -8.129736,-1.44839 -16.421316,-1.22526 -24.555825,0.0169 -3.733193,0.28305 -6.9906827,1.63065 -10.2772587,3.28103 -0.94338717,0.47374 -3.7396629,1.95849 -2.8249912,1.43145 15.1319509,-8.71922 15.4734609,-9.03164 9.8492497,-5.27422 -4.3704942,2.84627 -5.689161,7.17659 -6.4192402,12.06539 -0.5944065,4.62727 -0.6672663,9.11572 1.0774293,13.4845 1.4518383,3.4885 3.1885329,6.07856 6.7754101,7.48081 3.361788,1.89149 6.991446,2.84165 10.78378,3.35245 3.784296,0.38188 7.591125,0.36891 11.389932,0.37515 4.627764,0.28871 8.624679,-2.10776 12.827397,-3.6247 6.664212,-2.42653 21.624886,-11.77277 -5.662955,3.97272 4.879741,-2.60408 11.604801,-8.98702 18.511902,-9.08266 0,0 -13.755503,10.19156 -13.755503,10.19156 l 0,0 c -6.048221,1.18481 -13.198928,6.72332 11.168212,-7.25937 -7.634306,4.42691 -15.196535,9.64133 -23.612184,12.63271 -4.275551,1.68054 -8.510187,3.51464 -13.230468,3.15392 -3.851575,-0.0244 -7.715972,-0.0543 -11.5384725,-0.58484 -3.8802949,-0.68866 -7.5672513,-1.8649 -11.0574654,-3.72605 -3.7118741,-1.90479 -5.8591501,-4.74354 -7.4087941,-8.59561 -1.937909,-4.62583 -2.066109,-9.32899 -1.460845,-14.27955 0.591222,-5.09722 1.550399,-10.05583 5.8450799,-13.38459 10.0244186,-6.71245 20.3242291,-13.99225 32.4845601,-15.67532 8.306975,-1.00677 16.667479,-1.12258 24.946332,0.2792 0,0 -13.855282,9.76911 -13.855282,9.76911 z" />
    <path
       style="fill:#000000;fill-opacity:1;fill-rule:nonzero;stroke:#000000;stroke-width:4.69999981;stroke-linecap:round;stroke-linejoin:round;stroke-miterlimit:4;stroke-opacity:1;stroke-dasharray:none;stroke-dashoffset:0"
       id="path2728"
       d="m 1096.8199,655.50856 c -4.047,-3.78905 -8.4327,-7.31442 -12.3189,-11.26911 -2.3644,-2.58156 -4.5896,-5.39416 -7.2863,-7.64052 -2.7484,-2.0962 -5.6338,-4.02503 -8.2737,-6.24798 -3.3373,-2.60399 -6.7356,-4.76565 -10.8008,-5.99158 -4.3559,-2.10859 -9.0626,-3.25551 -13.6664,-4.68299 -5.0069,-2.61566 -10.4091,-4.29308 -15.6119,-6.44486 -7.1618,-2.50629 -14.4377,-4.74623 -21.7313,-6.85758 -8.49697,-2.68286 -16.90589,-5.6405 -25.41842,-8.27429 -8.82568,-3.02695 -17.73064,-5.84049 -26.65178,-8.57726 -9.19788,-3.06062 -18.41518,-6.06011 -27.78181,-8.56513 -10.32028,-2.93566 -20.54511,-6.16734 -30.76557,-9.43343 -11.32706,-3.25736 -22.63033,-6.64438 -33.78031,-10.47011 -12.43435,-3.62943 -24.88464,-7.2275 -37.40866,-10.53727 -12.81716,-3.57162 -25.47212,-7.7137 -38.31402,-11.19525 -13.43616,-4.10648 -27.03601,-7.56404 -40.66852,-10.94229 -13.61495,-2.88317 -27.00075,-6.7042 -40.55551,-9.84206 -14.14701,-3.15502 -28.24001,-6.52094 -42.34557,-9.8587 -14.67678,-3.81706 -29.2,-8.20809 -43.87018,-12.04405 -14.59437,-4.00108 -29.21461,-7.91941 -43.89381,-11.60142 -14.43629,-3.54932 -28.89895,-6.97903 -43.31757,-10.60384 -14.28942,-3.76801 -28.58633,-7.49477 -42.87527,-11.26457 -13.77902,-3.87443 -27.64792,-7.42333 -41.61028,-10.5749 -13.25722,-3.33661 -26.69593,-5.75375 -40.11495,-8.30431 -11.9735,-1.89797 -23.70492,-4.99135 -35.58248,-7.3621 -9.51095,-2.01768 -18.81355,-4.76885 -28.13047,-7.50518 -7.56735,-2.22417 -15.05083,-4.40746 -22.87307,-5.53179 -6.22379,-1.77785 -12.71542,-2.25746 -18.99217,-3.71121 -5.33629,-1.24731 -10.70014,-2.01837 -15.96198,-3.54596 -4.4981,-0.90566 -8.8577,-2.17316 -13.2531,-3.47447 -3.6049,-1.05056 -7.33074,-1.33292 -11.06161,-1.47604 -3.08685,-1.19868 -6.4428,-1.64742 -9.45346,-2.99887 -2.72609,-1.19122 -5.51902,-2.05135 -8.44359,-2.5623 -2.45285,0.0765 -4.52807,-1.11221 -6.61753,-2.26245 0,0 14.29024,-9.33944 14.29024,-9.33944 l 0,0 c 2.01154,1.06031 4.03449,1.71499 6.32185,1.84897 2.95799,0.66114 5.78246,1.69258 8.58416,2.84476 2.97373,1.02933 6.04759,1.8926 9.1209,2.54412 3.81696,0.22709 7.61013,0.67311 11.27437,1.828 4.37228,1.32037 8.7843,2.39886 13.22217,3.47114 5.22468,1.47241 10.59708,2.1652 15.86367,3.47865 6.28681,1.2599 12.65759,2.10338 18.89135,3.65481 7.82995,1.26204 15.34941,3.5264 22.94672,5.76022 9.25551,2.76273 18.53549,5.40146 27.98876,7.42631 11.83015,2.46142 23.55072,5.46682 35.4899,7.39791 13.43637,2.5287 26.86071,5.07726 40.14048,8.36269 13.9516,3.22413 27.82273,6.77353 41.60999,10.64187 14.28599,3.76075 28.57058,7.51563 42.86409,11.24838 14.4195,3.61 28.87674,7.05267 43.30734,10.6149 14.66783,3.74272 29.30784,7.59553 43.90145,11.61593 14.6442,3.88801 29.16534,8.23809 43.84175,12.01022 14.12461,3.30367 28.22834,6.67634 42.38787,9.82649 13.54256,3.19524 26.95132,6.93059 40.55522,9.86835 13.64775,3.37081 27.23874,6.91263 40.70212,10.96741 12.8315,3.52648 25.50576,7.60267 38.32433,11.17539 12.55098,3.36452 25.0652,6.88072 37.515,10.60152 11.16617,3.76933 22.46356,7.15259 33.78358,10.42651 10.21984,3.22586 20.43662,6.44597 30.75217,9.35411 9.37883,2.55849 18.63159,5.52474 27.85654,8.58837 8.90848,2.78762 17.82771,5.55529 26.65922,8.57762 8.49255,2.68467 16.91605,5.58154 25.41865,8.23563 7.3399,2.16323 14.7119,4.30444 21.8893,6.95392 5.2108,2.05687 10.5155,3.87477 15.5743,6.30221 4.613,1.44138 9.3049,2.63925 13.7013,4.69031 4.1454,1.46366 7.7312,3.76838 11.1652,6.50225 2.7204,2.16258 5.6077,4.10967 8.3277,6.27811 2.6249,2.39146 4.9812,5.09739 7.3223,7.76248 3.8765,3.88308 8.0318,7.55967 12.2081,11.10688 0,0 -14.3711,9.02687 -14.3711,9.02687 z" />
    <path
       style="fill:#000000;fill-opacity:1;fill-rule:nonzero;stroke:#000000;stroke-width:4.69999981;stroke-linecap:round;stroke-linejoin:round;stroke-miterlimit:4;stroke-opacity:1;stroke-dasharray:none;stroke-dashoffset:0"
       id="path2730"
       d="m 262.9843,382.06988 c -5.31756,3.45714 -10.89248,6.48987 -15.3056,11.11408 -2.59209,2.9678 -2.71974,5.99262 -1.86783,9.60741 1.28059,4.60608 2.75685,9.10457 3.59186,13.83096 0.42008,2.67981 0.59639,5.38745 0.79279,8.08991 0,0 -15.0497,7.79222 -15.0497,7.79222 l 0,0 c -0.15345,-2.65251 -0.30272,-5.30848 -0.69494,-7.93953 -0.78878,-4.6994 -2.24794,-9.14873 -3.60575,-13.69179 -1.00893,-4.0115 -1.333,-7.51104 1.19252,-11.12092 4.24211,-4.91243 9.67799,-8.13548 15.16261,-11.50649 0,0 15.78404,-6.17585 15.78404,-6.17585 z" />
    <path
       style="fill:#000000;fill-opacity:1;fill-rule:nonzero;stroke:#000000;stroke-width:4.69999981;stroke-linecap:round;stroke-linejoin:round;stroke-miterlimit:4;stroke-opacity:1;stroke-dasharray:none;stroke-dashoffset:0"
       id="path2732"
       d="m 597.27001,407.78417 c -9.91944,5.45331 -18.53202,12.46142 -26.35393,20.58913 -5.60041,6.12933 -11.22844,12.80556 -13.34012,21.01163 -0.8085,5.05836 3.92239,2.2922 6.65295,1.46183 9.38328,-5.2915 -7.11255,4.01711 -8.44592,4.69017 -1.27354,0.64286 2.40065,-1.54514 3.55132,-2.38843 4.28184,-3.13805 7.98104,-6.79419 11.67602,-10.58292 10.07781,-11.12634 18.56599,-23.51879 26.40668,-36.28255 6.66286,-11.01785 13.44381,-22.04984 19.21197,-33.57439 4.04668,-9.2057 3.60982,-9.73265 18.33674,-11.73227 0.97082,-0.13181 -0.40938,1.91802 -0.68346,2.85863 -0.33521,1.15043 -0.76176,2.27225 -1.14265,3.40838 -3.79047,10.4135 -7.28507,20.93543 -10.74907,31.4626 -3.41048,11.20633 -5.94633,22.66105 -7.64962,34.24621 -1.19646,8.17237 -3.53708,16.25337 -3.06557,24.56544 0.35998,2.31447 0.94917,3.68952 3.15634,4.41747 0,0 -14.21624,9.40489 -14.21624,9.40489 l 0,0 c -2.43467,-1.4174 -3.50805,-3.21819 -3.98488,-6.04649 -0.50156,-8.46446 1.74799,-16.6668 3.11006,-24.97133 1.70653,-11.67246 4.19446,-23.21705 7.56803,-34.52615 3.45237,-10.48895 6.90026,-20.9811 10.55774,-31.39834 0.3848,-1.08685 0.80601,-2.16149 1.15441,-3.26054 0.27954,-0.88181 -0.0159,-2.12827 0.72812,-2.67794 24.03668,-17.75768 15.80887,-11.55273 12.15947,-2.66792 -5.74572,11.64279 -12.74518,22.67408 -19.38763,33.81185 -7.78298,12.81429 -16.19913,25.2481 -26.10426,36.53954 -10.0699,10.76464 -21.75559,19.31304 -35.59403,25.04073 -4.46481,1.26026 -8.92076,1.76098 -8.51414,-4.44232 1.7033,-8.56704 7.54756,-15.59671 13.22463,-21.94539 7.63862,-8.22144 16.03255,-15.46695 25.953,-20.83567 0,0 15.78404,-6.17585 15.78404,-6.17585 z" />
    <path
       style="fill:#000000;fill-opacity:1;fill-rule:nonzero;stroke:#000000;stroke-width:4.69999981;stroke-linecap:round;stroke-linejoin:round;stroke-miterlimit:4;stroke-opacity:1;stroke-dasharray:none;stroke-dashoffset:0"
       id="path2734"
       d="m 591.93038,302.56662 c 7.52939,2.70718 15.55052,3.17013 23.33879,4.67505 5.80196,1.23519 11.66009,2.23296 17.56921,2.77454 0.55611,0.0389 1.11223,0.0778 1.66834,0.11673 0,0 -13.84532,9.8841 -13.84532,9.8841 l 0,0 c -0.5554,-0.0539 -1.11079,-0.10774 -1.66618,-0.16161 -5.88666,-0.68932 -11.71952,-1.76495 -17.51966,-2.975 -7.89863,-1.4142 -15.95145,-2.16052 -23.5905,-4.7842 0,0 14.04532,-9.52961 14.04532,-9.52961 z" />
    <path
       style="fill:#000000;fill-opacity:1;fill-rule:nonzero;stroke:#000000;stroke-width:4.69999981;stroke-linecap:round;stroke-linejoin:round;stroke-miterlimit:4;stroke-opacity:1;stroke-dasharray:none;stroke-dashoffset:0"
       id="path2736"
       d="m 643.35895,293.99519 c 5.64195,2.07661 11.66775,3.8881 16.88469,6.93589 2.39479,1.43671 3.44235,4.04536 5.49008,5.87278 1.98058,2.69338 0.0869,5.02118 -2.0588,6.7987 -6.54998,5.13765 -14.10258,8.75901 -21.2418,12.98559 -4.15045,2.45717 16.80725,-9.46748 12.53742,-7.22416 -5.66137,2.97441 -11.14294,6.27913 -16.7144,9.4187 -4.46634,2.52556 -9.29643,4.32006 -14.09444,6.09782 -3.26763,0.95625 -1.67226,0.51143 -4.7843,1.34089 0,0 13.447,-10.33564 13.447,-10.33564 l 0,0 c 3.04503,-0.87417 1.48657,-0.39241 4.67176,-1.45702 4.75786,-1.87134 9.54932,-3.68134 13.99961,-6.23259 -4.11984,2.41702 -16.54545,9.55169 -12.35951,7.25106 5.56747,-3.05994 10.94352,-6.4594 16.50531,-9.52964 4.29338,-2.37004 -8.43539,5.00561 -12.69914,7.42854 -1.22071,0.69368 2.28979,-1.62632 3.46007,-2.40205 0.49375,-0.32729 1.00484,-0.62763 1.50726,-0.94145 1.11195,-1.01034 4.48361,-2.36823 3.29261,-4.23261 -1.84107,-1.81513 -2.92675,-4.23334 -5.17983,-5.58083 -5.25865,-2.83352 -11.03195,-4.86843 -16.7089,-6.66437 0,0 14.04531,-9.52961 14.04531,-9.52961 z" />
    <path
       style="fill:#000000;fill-opacity:1;fill-rule:nonzero;stroke:#000000;stroke-width:4.69999981;stroke-linecap:round;stroke-linejoin:round;stroke-miterlimit:4;stroke-opacity:1;stroke-dasharray:none;stroke-dashoffset:0"
       id="path2738"
       d="m 544.68437,688.39656 c -0.12467,9.68308 -0.0885,19.36749 -0.0699,29.05113 -0.26024,6.22019 0.72027,12.53301 -0.62047,18.65833 -3.29202,10.14881 -16.63338,17.14537 -19.62296,4.90373 -0.15347,-7.72583 4.12516,-14.71036 8.21097,-20.97064 6.54254,-9.44734 15.22966,-16.78457 24.92493,-22.79072 13.36381,-8.83872 26.68287,-15.33337 42.32032,-17.84327 2.72437,-0.70606 5.33178,-0.24777 8.02052,0.25922 0,0 -13.88825,9.75361 -13.88825,9.75361 l 0,0 c -2.55346,-0.34084 -5.05096,-0.49255 -7.59717,0.11889 -5.88738,1.04732 -11.56922,2.45312 -17.0982,4.78901 -1.72963,0.73074 -6.58068,3.52633 -5.12228,2.34367 2.70242,-2.1915 5.94597,-3.61503 8.91896,-5.42255 -9.773,5.68741 -18.46138,12.84285 -25.1168,22.07957 -4.04296,5.81188 -8.09676,12.40092 -8.60685,19.63139 0.19275,0.92953 0.31643,2.06189 0.85371,2.90112 0.18308,0.28596 1.00448,0.51727 0.72723,0.7133 -4.39609,3.10841 -9.21298,5.57682 -13.74152,8.48889 -0.28079,0.18057 0.73811,-0.0262 0.96382,-0.27221 0.32627,-0.35558 0.3495,-0.89967 0.52425,-1.34951 1.75949,-5.95997 0.70892,-12.24243 1.00658,-18.37788 0.0185,-9.6599 0.0552,-19.32057 -0.0699,-28.9799 0,0 15.08302,-7.68518 15.08302,-7.68518 z" />
    <path
       style="fill:#000000;fill-opacity:1;fill-rule:nonzero;stroke:#000000;stroke-width:4.69999981;stroke-linecap:round;stroke-linejoin:round;stroke-miterlimit:4;stroke-opacity:1;stroke-dasharray:none;stroke-dashoffset:0"
       id="path2740"
       d="m 614.73762,733.42608 c -7.28098,5.18682 -14.85882,9.89838 -21.96948,15.33258 -3.59292,3.65237 -10.03345,6.39182 -11.71196,11.57993 0.0645,2.20703 1.87494,2.67916 3.64424,3.36527 0,0 -14.16812,9.41585 -14.16812,9.41585 l 0,0 c -2.3775,-1.17592 -4.37639,-2.41926 -4.74097,-5.28037 0.0264,-0.7017 -0.15969,-1.44481 0.0792,-2.10511 1.39386,-3.85226 8.54439,-7.90903 11.30847,-10.74963 7.0059,-5.47817 14.44956,-10.26667 21.80858,-15.23792 0,0 15.75001,-6.3206 15.75001,-6.3206 z" />
    <path
       style="fill:#000000;fill-opacity:1;fill-rule:nonzero;stroke:#000000;stroke-width:4.69999981;stroke-linecap:round;stroke-linejoin:round;stroke-miterlimit:4;stroke-opacity:1;stroke-dasharray:none;stroke-dashoffset:0"
       id="path2742"
       d="m 646.99805,733.66235 c -1.55992,5.30781 -3.51059,10.43548 -6.03306,15.35896 -4.47259,8.65716 -21.13155,15.65278 -14.94105,2.24601 1.96035,-4.21994 4.78496,-7.7167 8.30592,-10.7104 6.97875,-4.97718 17.64902,-15.13506 23.09438,-4.65565 0.83023,3.52347 -0.10218,7.16963 -0.62477,10.68629 -0.30724,1.95276 0.19206,-0.4953 -0.44975,-0.22652 -13.15062,5.50728 -18.18783,10.50584 -10.69977,3.36713 7.10555,-5.73878 15.02583,-11.61485 24.10658,-13.363 3.76624,-1.17189 5.4917,0.79575 8.09658,3.03661 1.01554,0.83509 2.06645,1.62768 3.16256,2.35398 0,0 -14.4338,9.18962 -14.4338,9.18962 l 0,0 c -1.09276,-0.81507 -2.16421,-1.65907 -3.19693,-2.54943 -2.33702,-2.09718 -3.93776,-2.77493 -7.14715,-1.7066 -6.02058,1.79475 -11.71098,6.20833 9.7922,-6.51053 3.06778,-1.81455 -7.64507,3.81069 -4.62329,3.11944 -4.7287,4.01402 -17.55525,19.89883 -20.17827,11.24186 -0.0527,-0.1739 0.17507,-0.31846 0.26261,-0.47769 0.62232,-3.18685 1.22626,-6.48124 1.16293,-9.72709 -0.67671,-1.32674 -1.23916,-2.32196 -2.78156,-2.75004 -0.90956,-0.25244 -3.61405,0.82777 -2.81266,0.32897 4.28652,-2.66799 8.69843,-5.12901 13.04764,-7.69351 -3.61881,2.74995 -6.62527,5.85403 -8.62775,10.00468 -0.51007,1.07787 -1.17878,2.08028 -1.63377,3.18253 -0.16118,0.39045 0.0604,1.00736 -0.29743,1.23184 -36.65547,22.99497 -16.73757,11.55176 -14.09827,7.34689 2.68829,-4.78745 4.82591,-9.7755 6.18472,-15.10924 0,0 15.36316,-7.21511 15.36316,-7.21511 z" />
    <path
       style="fill:#000000;fill-opacity:1;fill-rule:nonzero;stroke:#000000;stroke-width:4.69999981;stroke-linecap:round;stroke-linejoin:round;stroke-miterlimit:4;stroke-opacity:1;stroke-dasharray:none;stroke-dashoffset:0"
       id="path2744"
       d="m 546.32145,638.36982 c 9.40526,-1.09874 18.85743,-1.69929 28.31632,-2.0711 7.65632,-0.45969 15.2458,1.01343 22.83822,1.79568 3.55166,0.34218 7.11679,0.50039 10.68125,0.6308 0,0 -13.78255,9.91838 -13.78255,9.91838 l 0,0 c -3.56037,-0.1934 -7.12222,-0.39319 -10.66918,-0.76769 -7.50368,-0.83848 -15.01525,-2.20673 -22.59352,-1.6645 -9.47842,0.41087 -18.96381,0.97203 -28.36304,2.31677 0,0 13.5725,-10.15834 13.5725,-10.15834 z" />
    <path
       style="fill:#000000;fill-opacity:1;fill-rule:nonzero;stroke:#000000;stroke-width:4.69999981;stroke-linecap:round;stroke-linejoin:round;stroke-miterlimit:4;stroke-opacity:1;stroke-dasharray:none;stroke-dashoffset:0"
       id="path2746"
       d="m 620.50181,628.2809 c 4.45305,1.72229 9.6765,2.3783 13.07656,6.00839 1.13821,4.43032 -3.06307,7.4493 -6.0791,9.96161 -4.95703,4.05703 -10.45353,7.3304 -15.79578,10.82869 -3.05368,1.98338 -1.57931,1.04879 -4.41822,2.81149 0,0 -15.8129,6.1139 -15.8129,6.1139 l 0,0 c 2.89188,-1.73343 1.39231,-0.81811 4.49482,-2.75233 5.20254,-3.66344 10.91014,-6.60307 15.81364,-10.71476 2.79234,-2.04121 5.62645,-4.2782 7.24277,-7.37231 -3.25567,-3.29106 -8.47273,-3.65911 -12.56711,-5.35507 0,0 14.04532,-9.52961 14.04532,-9.52961 z" />
    <path
       style="fill:#000000;fill-opacity:1;fill-rule:nonzero;stroke:#000000;stroke-width:4.69999981;stroke-linecap:round;stroke-linejoin:round;stroke-miterlimit:4;stroke-opacity:1;stroke-dasharray:none;stroke-dashoffset:0"
       id="path2748"
       d="m -162.40524,670.56894 c -4.79606,3.49973 -20.42954,17.08797 -28.06185,11.60989 -3.13242,-4.03402 -2.09985,-9.20364 -0.93071,-13.79957 2.60226,-8.47476 13.34774,-18.03455 22.59328,-15.11645 3.25517,2.45461 5.34495,6.21968 6.06434,10.18758 0.63118,5.35574 -1.16389,9.87279 -3.93886,14.32346 -6.00482,8.1001 -15.40742,13.20962 -24.9272,16.25834 -3.99841,-0.24232 -6.00266,-3.38153 -6.45978,-7.05101 -0.0486,-4.15024 2.32667,-7.30244 4.66373,-10.4705 5.68462,-6.30529 13.67659,-11.12855 22.1486,-11.98917 3.57628,0.65178 5.49707,2.71582 6.59517,6.06049 1.11568,3.40796 0.34556,6.42538 -1.447,9.42305 -4.04669,4.54007 -15.65873,14.45645 -22.69703,9.57693 -3.40336,-2.29894 -2.84409,-6.23902 -2.51878,-9.82877 1.55379,-7.48145 10.972,-19.29109 19.48884,-14.60954 2.42686,3.23847 2.09245,7.72026 2.20874,11.5822 -0.2684,4.72123 -1.55257,9.28567 -4.8398,12.76005 -7.17094,4.1413 -16.94489,13.578 -26.31486,9.37396 -4.48743,-2.13848 -5.85759,-6.54902 -6.05094,-11.19131 0.10122,-5.14221 2.82923,-9.29918 6.39288,-12.7673 7.84853,-5.39396 16.97835,-13.62457 27.15156,-12.09602 4.12422,1.58875 5.46192,5.31546 6.16423,9.33594 0.79375,4.78808 -0.78172,9.18683 -3.0493,13.3222 -5.79532,6.8333 -14.75571,15.117 -24.01172,14.06682 -4.42814,-2.19751 -5.81839,-6.4437 -6.32735,-11.0937 0.21533,-5.69897 2.73236,-10.57709 5.81752,-15.20971 5.63948,-6.52497 16.02216,-17.66225 24.14754,-11.25775 3.2451,3.1772 3.42761,7.79588 3.7133,12.06424 0.32592,4.97108 -0.13308,9.90656 -4.02211,13.3215 -13.49825,8.50426 -11.74639,10.44662 -20.84641,7.45528 0,0 14.00345,-9.58265 14.00345,-9.58265 l 0,0 c 7.21261,1.78939 10.99442,-2.83346 -8.96396,8.34226 4.5232,-2.3673 5.08502,-6.94836 4.77879,-11.7487 -0.21536,-3.68415 -0.11171,-7.9911 -3.00044,-10.70005 -0.40108,-0.22162 -0.75983,-0.54919 -1.20322,-0.66487 -0.46371,-0.12097 -1.83276,0.24691 -1.43749,-0.024 23.93411,-16.40735 12.75351,-8.47742 8.36293,-3.99911 -2.95335,4.40426 -5.81916,8.72327 -6.32457,14.18871 0.19285,3.51876 1.06482,7.97682 5.06478,8.88583 5.62463,-0.93911 14.20642,-7.63099 -10.11429,6.74725 -2.26249,1.33756 6.54608,-3.59011 4.86217,-3.90808 2.34908,-3.68903 4.17699,-7.78069 3.54869,-12.25303 -0.49846,-3.29923 -1.30489,-6.61239 -5.01212,-7.43897 -2.1059,-0.10363 -3.64114,0.0764 -5.63802,0.84649 -0.70718,0.27271 -2.72505,1.31501 -2.08243,0.91313 3.31227,-2.07138 17.89956,-10.73558 10.10844,-5.93084 -3.53568,3.03706 -6.62178,6.60321 -6.98433,11.47587 -0.1211,4.05193 1.01659,7.7816 5.04278,9.42342 7.51521,2.25098 21.06025,-7.97088 -3.51339,6.49179 3.79063,-2.64657 4.92303,-6.98906 5.50368,-11.41231 -0.084,-2.94791 0.35734,-7.09423 -1.23058,-9.67115 -5.71099,1.28326 -0.93387,0.26525 13.25639,-8.09023 0.38787,-0.22838 -0.80167,0.4372 -1.11775,0.75766 -1.29681,1.31479 -1.60766,3.09549 -2.31739,4.72544 -0.29611,2.91072 -1.37546,6.35822 1.59536,8.12184 1.14271,0.49728 1.8782,0.67964 3.11007,0.25424 0.49661,-0.17149 1.88823,-0.91441 1.44074,-0.63914 -17.57407,10.81016 -16.758,10.29293 -11.73955,6.89666 1.8995,-2.48672 3.07594,-4.91393 2.11827,-8.05679 -0.77042,-2.67397 -2.37188,-4.20681 -5.31808,-4.03567 -1.11333,0.19646 -1.5032,0.21843 -2.58935,0.6073 -0.39908,0.14288 -1.52866,0.7269 -1.16611,0.50726 23.80883,-14.42407 15.49355,-9.7603 10.87032,-6.06633 -2.17637,2.90332 -4.84071,5.58289 -5.16158,9.39275 -0.0893,2.86119 1.69894,5.18362 4.75819,4.40275 5.39491,-2.10137 13.70406,-7.09183 -9.26107,5.97584 -0.65229,0.37117 1.25777,-0.82738 1.8238,-1.32018 0.82726,-0.72024 2.71779,-2.89299 3.41366,-3.67262 2.94464,-3.95144 4.85323,-8.14186 4.46434,-13.17371 -0.3507,-3.2247 -2.13958,-6.77754 -5.04213,-8.41449 -6.52952,-0.72498 -1.33683,0.13695 11.77858,-8.17769 0.48024,-0.30445 -1.09816,0.35226 -1.56711,0.67384 -1.94897,1.33652 -2.85256,3.48902 -3.50596,5.65917 -1.20732,3.59754 -2.53122,8.50927 -0.089,11.81855 1.71662,0.76623 3.04642,0.55666 4.86228,-0.0446 0.85176,-0.28204 3.24988,-1.49584 2.49421,-1.0121 -16.32688,10.45157 -14.3443,9.03986 -9.338,5.00881 0,0 15.75001,-6.3206 15.75001,-6.3206 z" />
    <path
       style="fill:#000000;fill-opacity:1;fill-rule:nonzero;stroke:#000000;stroke-width:4.69999981;stroke-linecap:round;stroke-linejoin:round;stroke-miterlimit:4;stroke-opacity:1;stroke-dasharray:none;stroke-dashoffset:0"
       id="path2750"
       d="m -153.67855,624.08411 c 7.94835,-1.04316 15.93772,-1.69141 23.9413,-2.103 6.50642,-0.17919 12.92486,-0.11066 19.34305,-1.24565 5.28344,-1.02949 10.648007,-1.50984 16.016833,-1.78973 4.548751,-0.59969 8.854452,0.7554 13.247536,1.70278 3.252372,0.66658 6.560177,0.88152 9.870195,0.98053 3.253082,0.0634 6.506929,0.0362 9.76037,0.0327 3.453974,0.23127 6.744503,1.62188 10.192848,2.18951 4.23116,0.57668 8.504407,0.62501 12.766507,0.67534 4.646479,0.0189 9.293019,0.0123 13.939524,0.0106 5.11306,0.006 10.226076,-0.014 15.3391243,-0.015 3.769741,-0.0187 7.5395267,-0.007 11.3092777,-0.0154 8.559442,0.20492 9.459862,-2.80072 -10.2956776,8.07795 0,0 14.9526873,-8.20995 14.9526873,-8.20995 l 0,0 c -13.0642404,9.43229 -9.3122515,10.33754 -18.4157457,10.1283 -3.756247,-0.008 -7.512528,0.003 -11.26877,-0.0134 -5.108506,0.002 -10.217002,-0.0119 -15.325499,0.007 -4.654724,0.0105 -9.309863,0.04 -13.964325,-0.0238 -4.33172,-0.0667 -8.676427,-0.16181 -12.95946,-0.88418 -3.341705,-0.66263 -6.592821,-2.00289 -10.033516,-1.92393 -3.271934,0.008 -6.545201,0.0183 -9.815897,-0.0821 -3.362634,-0.17413 -6.714474,-0.50508 -10.005777,-1.24844 -4.294001,-0.95391 -8.517815,-1.96793 -12.956455,-1.3414 -5.32395,0.3353 -10.62737,0.89542 -15.87117,1.90236 -6.43828,0.96899 -12.9136,0.76484 -19.40565,1.06224 -8.00503,0.43492 -16.0027,1.08481 -23.93381,2.28487 0,0 13.5725,-10.15833 13.5725,-10.15833 z" />
    <path
       style="fill:#000000;fill-opacity:1;fill-rule:nonzero;stroke:#000000;stroke-width:4.69999981;stroke-linecap:round;stroke-linejoin:round;stroke-miterlimit:4;stroke-opacity:1;stroke-dasharray:none;stroke-dashoffset:0"
       id="path2752"
       d="m -13.783903,605.42376 c 5.8409876,2.01442 12.1399498,3.8696 16.9520638,7.8742 2.6007167,3.03572 4.3821418,6.26507 3.7156302,10.29411 -1.4574832,4.32819 -4.942168,7.48702 -8.4704972,10.19315 -8.8372378,6.37277 -34.7260608,19.7301 -7.0361564,4.5228 1.4290457,-0.78483 -2.7188664,1.80856 -4.1542144,2.5818 -5.502547,2.96431 -11.040174,5.86304 -16.56026,8.79456 -0.589413,0.0298 -1.178827,0.0595 -1.76824,0.0893 0,0 13.644527,-10.15811 13.644527,-10.15811 l 0,0 c 0.5254,-0.1006 1.050801,-0.2012 1.576202,-0.3018 -4.24107,2.5578 -8.489816,5.10291 -12.723211,7.67339 -0.649693,0.39449 1.318285,-0.75708 1.971791,-1.14522 0.753862,-0.44774 1.496597,-0.91404 2.250136,-1.36233 5.571876,-3.31476 11.210479,-6.51912 16.7260339,-9.92677 3.1522905,-1.94757 -18.9881609,11.44583 -9.6865729,5.45343 3.543247,-2.32662 6.862171,-5.25609 8.8984821,-9.01378 0.9687761,-3.43064 -0.3749048,-6.0447 -2.7394991,-8.68602 -4.793755,-3.73733 -10.932391,-5.50715 -16.641533,-7.35312 0,0 14.045318,-9.52961 14.045318,-9.52961 z" />
    <path
       style="fill:#000000;fill-opacity:1;fill-rule:nonzero;stroke:#000000;stroke-width:4.69999981;stroke-linecap:round;stroke-linejoin:round;stroke-miterlimit:4;stroke-opacity:1;stroke-dasharray:none;stroke-dashoffset:0"
       id="path2754"
       d="m -92.44653,553.76298 c -0.0967,7.02036 -0.04226,14.04175 -0.01751,21.06244 -1.284958,12.7781 -3.80042,10.09318 -18.4278,17.76558 -3.15408,-2.61902 -2.42561,-7.64303 -2.46555,-11.33139 -0.43697,-6.97788 0.78329,-13.75543 2.53373,-20.46977 1.8942,-6.71925 4.80019,-12.77552 9.3289,-18.08008 8.633508,-8.97411 19.805714,-15.67944 31.7291,-19.25901 5.246536,-1.58883 10.725362,-1.7474 16.159061,-1.86847 5.00647,0.41981 7.862972,3.03559 10.121797,7.32815 2.089882,5.10008 2.424822,10.50037 1.707698,15.90227 -1.0521,5.02456 -3.612072,9.16821 -7.263543,12.69423 -8.204215,6.19749 -17.165412,12.21706 -27.453647,13.73027 -4.349821,0.44537 -8.728675,0.47344 -13.097036,0.4668 -7.546255,-0.18981 -11.16188,2.08183 11.002651,-7.66916 0.336061,-0.14784 0.272278,0.68201 0.415677,1.01999 0.185405,0.43699 0.380437,0.86983 0.570655,1.30475 1.687909,3.15377 3.700406,6.08766 5.570419,9.13263 2.322392,2.91526 3.742494,6.31943 5.368936,9.6374 0.87717,1.82749 1.735659,3.66422 2.557013,5.51754 0.03303,0.0755 0.06605,0.15092 0.09908,0.22639 -5.145126,2.55533 -10.290252,5.11067 -15.435378,7.666 0,0 14.684714,-8.68333 14.684714,-8.68333 l 0,0 c -4.731804,3.12494 -9.463608,6.24988 -14.195412,9.37481 -0.02712,-0.0724 -0.05424,-0.1449 -0.08137,-0.21736 -0.729345,-1.8589 -1.55214,-3.68008 -2.400687,-5.4871 -1.609275,-3.27106 -3.013837,-6.62089 -5.307733,-9.49591 -1.881519,-3.12243 -3.947712,-6.11137 -5.697906,-9.31372 -0.01333,-0.0297 -1.204906,-2.67534 -1.190809,-2.68749 11.865864,-10.22254 9.308122,-10.44941 17.788481,-10.31683 4.305287,-0.0174 8.632849,-0.0271 12.898349,-0.68508 1.958,-0.40333 2.384615,-0.42508 4.269397,-1.07365 0.709425,-0.24412 2.729969,-1.2198 2.0976,-0.81608 -22.437487,14.32461 -13.166317,7.88912 -8.189865,4.74536 3.898002,-2.96704 6.421656,-6.90342 7.777766,-11.60785 0.881509,-5.06178 0.699298,-10.10028 -1.220789,-14.94067 -2.010725,-3.83043 -4.645001,-5.72668 -9.090662,-5.74994 -5.335708,0.14977 -10.686142,0.51648 -15.795058,2.20357 -5.518853,1.91788 -17.844369,8.18184 4.828405,-4.0412 4.554037,-2.45511 -11.917647,7.47791 -7.664622,6.41163 -4.691605,5.03876 -7.7268,10.738 -9.671959,17.36818 -1.780278,6.5707 -3.189683,13.17101 -2.690753,20.03479 0.02877,2.08514 -0.787236,7.82736 1.243524,9.05926 -31.026624,19.06656 -14.026014,10.95118 -11.908024,6.16921 0.86239,-1.94712 0.90831,-4.2501 1.42373,-6.28519 0.0246,-7.01474 0.0794,-14.0302 -0.0175,-21.04459 0,0 15.106936,-7.69738 15.106936,-7.69738 z" />
  </g>
</svg>
