<?xml version="1.0" encoding="UTF-8" standalone="no"?>
<!-- Created with Inkscape (http://www.inkscape.org/) -->
<svg
   xmlns:dc="http://purl.org/dc/elements/1.1/"
   xmlns:cc="http://creativecommons.org/ns#"
   xmlns:rdf="http://www.w3.org/1999/02/22-rdf-syntax-ns#"
   xmlns:svg="http://www.w3.org/2000/svg"
   xmlns="http://www.w3.org/2000/svg"
   xmlns:sodipodi="http://sodipodi.sourceforge.net/DTD/sodipodi-0.dtd"
   xmlns:inkscape="http://www.inkscape.org/namespaces/inkscape"
   width="1090.9165"
   height="577.43793"
   id="svg2"
   sodipodi:version="0.32"
   inkscape:version="0.46+devel"
   version="1.0"
   sodipodi:docname="c27d1.svg"
   inkscape:output_extension="org.inkscape.output.svg.inkscape">
  <defs
     id="defs4">
    <inkscape:perspective
       sodipodi:type="inkscape:persp3d"
       inkscape:vp_x="0 : 526.18109 : 1"
       inkscape:vp_y="0 : 1000 : 0"
       inkscape:vp_z="744.09448 : 526.18109 : 1"
       inkscape:persp3d-origin="372.04724 : 350.78739 : 1"
       id="perspective10" />
  </defs>
  <sodipodi:namedview
     id="base"
     pagecolor="#ffffff"
     bordercolor="#666666"
     borderopacity="1.0"
     inkscape:pageopacity="0.0"
     inkscape:pageshadow="2"
     inkscape:zoom="0.35"
     inkscape:cx="44.831716"
     inkscape:cy="526.19572"
     inkscape:document-units="px"
     inkscape:current-layer="layer1"
     showgrid="false"
     inkscape:window-width="1280"
     inkscape:window-height="712"
     inkscape:window-x="-5"
     inkscape:window-y="-3" />
  <metadata
     id="metadata7">
    <rdf:RDF>
      <cc:Work
         rdf:about="">
        <dc:format>image/svg+xml</dc:format>
        <dc:type
           rdf:resource="http://purl.org/dc/dcmitype/StillImage" />
        <dc:title></dc:title>
      </cc:Work>
    </rdf:RDF>
  </metadata>
  <g
     inkscape:label="Layer 1"
     inkscape:groupmode="layer"
     id="layer1"
     transform="translate(244.11743,-481.11995)">
    <path
       style="fill:#000000;fill-opacity:1;fill-rule:nonzero;stroke:#000000;stroke-width:4.69999981;stroke-linecap:round;stroke-linejoin:round;stroke-miterlimit:4;stroke-opacity:1;stroke-dasharray:none;stroke-dashoffset:0"
       id="path2696"
       d="m 325.09029,1056.2079 c -3.02297,-11.5621 -3.80208,-23.5803 -5.04861,-35.4305 -1.94886,-19.5219 -2.22538,-39.15591 -2.45997,-58.75731 -1.48463,-28.80834 -1.20797,-57.65863 -0.3061,-86.47935 1.25597,-36.58429 3.69538,-73.12054 6.52977,-109.61311 2.67852,-34.83974 5.45194,-69.6748 8.52078,-104.48271 3.03351,-30.54413 6.58068,-61.03195 8.86063,-91.64488 2.10885,-17.85025 2.81932,-35.74993 2.48136,-53.70489 0.14214,-7.59689 -1.54821,-15.0316 -2.72919,-22.49025 -0.75514,-1.45445 0.29811,-7.04296 -1.71237,-7.5153 -4.11815,1.328 0.64849,-0.30711 9.22432,0.55393 0.47109,0.0473 -0.88071,0.35334 -1.29745,0.57806 -1.85814,1.00196 -2.95469,2.25166 -4.18168,3.93391 -2.67365,3.72508 -5.08963,7.61411 -7.84772,11.2823 -0.44796,0.11333 -3.72412,4.87624 -3.59933,4.91065 0.38988,0.10752 0.63854,-0.50565 0.99999,-0.6871 -13.88579,-0.27163 -13.0363,1.30915 -9.09853,-0.80589 2.52354,-1.35543 4.89785,-2.90421 7.28972,-4.47518 4.2635,-2.7472 8.46971,-5.57826 12.61209,-8.5091 5.32655,-4.07811 13.79586,-6.3766 19.77737,-1.64752 2.02368,3.31028 3.06718,7.15697 4.57909,10.7274 1.96975,5.08416 3.53046,10.31523 5.4046,15.43302 0.97303,3.04682 2.28729,5.64215 4.72142,7.72365 0,0 -11.32936,0.93212 -11.32936,0.93212 l 0,0 c -2.31791,-2.33757 -3.65994,-5.13173 -4.65875,-8.26268 -1.84634,-5.11322 -3.44287,-10.31748 -5.43859,-15.37703 -1.39988,-3.36791 -2.32667,-7.18939 -4.58345,-10.07185 -3.99409,-2.25538 -1.26337,-0.46491 8.83654,-0.95672 0.48084,-0.0234 -0.97056,-0.16229 -1.44264,-0.068 -1.68439,0.3366 -3.21642,1.78101 -4.61462,2.64538 -4.15267,2.93845 -8.34566,5.79611 -12.61176,8.55502 -8.26685,5.29409 -8.43434,6.30203 -20.6943,5.91533 -3.23864,-1.53072 1.48273,-5.2228 2.55905,-6.71681 2.7922,-3.62886 5.19697,-7.50317 7.84496,-11.22788 3.95498,-6.08553 11.10845,-9.07012 18.89778,-5.40689 1.7406,2.33436 0.9167,5.66624 1.65438,8.36294 1.14643,7.51019 2.7502,15.00879 2.54796,22.64838 0.1821,17.99478 -0.67375,35.92564 -2.85758,53.80308 -2.4132,30.61172 -6.01242,61.10298 -9.05304,91.65611 -3.11195,34.80182 -5.86868,69.6363 -8.58281,104.47096 -2.85849,36.47275 -5.3341,72.99114 -6.46406,109.56301 -0.81999,28.80943 -0.98223,57.64425 0.60613,86.43318 0.29516,19.56886 0.60907,39.16972 2.6193,58.65432 1.29037,11.7733 2.10102,23.7527 5.35418,35.1842 0,0 -11.30951,0.364 -11.30951,0.364 z" />
    <rect
       style="fill:none;stroke:#000000;stroke-width:3.5136106;stroke-linecap:round;stroke-linejoin:round;stroke-miterlimit:4;stroke-opacity:1;stroke-dasharray:none;stroke-dashoffset:0"
       id="rect2700"
       width="795.47211"
       height="52.61496"
       x="-83.45034"
       y="806.05475"
       ry="10.299203" />
    <rect
       style="fill:none;stroke:#000000;stroke-width:4.69999981;stroke-linecap:round;stroke-linejoin:round;stroke-miterlimit:4;stroke-opacity:1;stroke-dasharray:none;stroke-dashoffset:0"
       id="rect3474"
       width="122.85714"
       height="31.428572"
       x="-68.571426"
       y="740.93359"
       ry="10.299203" />
    <rect
       style="fill:none;stroke:#000000;stroke-width:4.69999981;stroke-linecap:round;stroke-linejoin:round;stroke-miterlimit:4;stroke-opacity:1;stroke-dasharray:none;stroke-dashoffset:0"
       id="rect3476"
       width="91.428574"
       height="31.428572"
       x="588.57141"
       y="758.07648"
       ry="10.299203" />
    <path
       style="fill:#000000;fill-opacity:1;stroke:#000000;stroke-width:4.69999981;stroke-linecap:round;stroke-linejoin:round;stroke-miterlimit:4;stroke-opacity:1;stroke-dasharray:none;stroke-dashoffset:0"
       id="path3478"
       d="m 329.83383,771.95582 c 5.82352,0.88443 11.52657,2.25124 17.28421,3.47945 7.20411,0.91667 14.28816,2.48806 21.4817,3.49409 7.97406,0.9386 16.01157,1.038 24.03014,1.12926 -13.22428,0.0846 25.93311,0.0391 12.80069,0.0372 -15.79945,-0.002 -1.08887,-0.008 1.83707,-0.0116 12.26402,-0.13675 24.50881,-0.0482 36.70361,1.33854 7.60497,1.14338 15.34898,0.74634 22.94653,1.81178 6.78204,1.15024 13.61583,1.8728 20.47991,2.26974 5.45446,0.26124 10.91637,0.2797 16.37585,0.28715 4.27278,0.7977 8.47763,1.8526 12.7974,2.39587 3.56136,0.42485 7.15589,0.42942 10.73737,0.45239 3.99712,0.005 12.1803,0.0122 -5.87942,3.6e-4 -0.56485,-3.7e-4 1.12971,-0.002 1.69456,-0.002 2.59112,-0.003 1.09579,-6e-4 3.57254,-0.006 3.29299,-0.006 6.58598,-0.0101 9.87898,-0.009 3.37811,0.39635 6.44806,-0.65708 9.63041,-1.57372 3.15561,-0.46447 6.12906,-1.37446 9.01292,-2.72073 0.66036,-0.4405 1.84684,-0.57693 1.98091,-1.40265 -0.4388,-0.86342 -0.1909,-0.38789 -0.75079,-1.42288 0,0 11.33607,-0.53395 11.33607,-0.53395 l 0,0 c 0.64122,1.3328 0.36996,0.63253 0.80098,2.10572 -0.17514,1.59347 -0.61987,1.8848 -2.09795,2.52733 -2.89653,1.41284 -5.8276,2.64628 -9.07643,2.91757 -3.23124,0.82998 -6.26037,2.31736 -9.68428,1.86929 -3.29163,0.003 -6.58326,0.002 -9.87489,0.008 -7.22779,0.009 -14.45572,0.0387 -21.68344,-0.002 -3.59117,-0.0389 -7.19527,-0.0871 -10.75733,-0.59489 -4.274,-0.63414 -8.44618,-1.79343 -12.7419,-2.25179 -5.4436,-0.0179 -10.88999,-0.0623 -16.32671,-0.36213 -6.86002,-0.45085 -13.67947,-1.25871 -20.46894,-2.34416 -7.60032,-0.86094 -15.29525,-0.70419 -22.88109,-1.80641 -2.85639,-0.32267 -11.31504,-0.0678 -8.57323,-0.93126 2.14314,-0.6749 4.50394,-0.0233 6.73415,-0.29656 12.98297,-1.59083 -25.86737,1.4918 -12.92376,0.0121 -12.19044,0.0123 -24.38117,0.0504 -36.57139,-0.037 -8.03956,-0.1113 -16.10025,-0.23763 -24.08619,-1.26739 -7.19931,-1.06488 -14.32537,-2.54487 -21.53023,-3.56657 -5.79504,-1.27373 -11.58329,-2.47796 -17.42729,-3.49614 0,0 11.21926,-1.49625 11.21926,-1.49625 z" />
    <path
       style="fill:#000000;fill-opacity:1;stroke:#000000;stroke-width:4.69999981;stroke-linecap:round;stroke-linejoin:round;stroke-miterlimit:4;stroke-opacity:1;stroke-dasharray:none;stroke-dashoffset:0"
       id="path3480"
       d="m 541.5726,762.90727 c 6.56236,-0.19503 13.1351,0.63587 19.50259,2.19881 5.10869,1.29328 10.21772,3.16609 14.11494,6.78891 3.77039,3.31594 3.89584,7.48334 2.8525,12.07363 -2.18434,6.55894 -6.04908,11.88432 -10.7759,16.8156 -5.33619,5.64219 -11.68419,10.11716 -17.26347,15.49024 -2.91999,3.27219 -6.2101,6.02792 -10.26725,7.71456 0,0 -11.24403,-1.36618 -11.24403,-1.36618 l 0,0 c 4.14036,-1.41395 7.50159,-3.94308 10.39149,-7.24042 5.54604,-5.42089 11.92185,-9.84012 17.29718,-15.45163 4.64087,-4.76256 8.45128,-9.84544 10.6319,-16.21921 1.0274,-4.29736 0.74037,-7.87048 -2.84368,-10.86358 -3.96271,-3.31645 -8.98256,-5.03955 -13.95563,-6.24699 -6.43631,-1.40008 -12.99941,-2.20137 -19.59678,-1.92678 0,0 11.15614,-1.76696 11.15614,-1.76696 z" />
    <path
       style="fill:#000000;fill-opacity:1;stroke:#000000;stroke-width:4.69999981;stroke-linecap:round;stroke-linejoin:round;stroke-miterlimit:4;stroke-opacity:1;stroke-dasharray:none;stroke-dashoffset:0"
       id="path3482"
       d="m 449.18923,684.89573 c 2.34152,6.83509 4.36812,13.74993 6.03166,20.78218 0.77344,3.81043 1.45331,7.64495 1.89283,11.50954 0.0153,0.16008 0.20667,0.48707 0.046,0.48025 -11.20016,-0.47598 -12.3386,2.66602 -11.00919,-2.45908 0.59918,-2.30993 1.55691,-4.34618 2.57814,-6.50088 5.63667,-9.0422 14.68653,-15.03502 23.7469,-20.23182 7.02411,-3.54235 14.33318,-7.21918 22.21088,-8.40439 4.44512,-0.66878 18.15343,0.0344 18.51109,0.0422 0,0 -11.04743,1.65075 -11.04743,1.65075 l 0,0 c 2.56961,-0.0897 5.14161,-0.12662 7.70884,-0.26917 1.41503,-0.0786 -2.8428,-0.0829 -4.25094,0.0772 -7.89886,0.89818 -15.23895,4.60309 -22.26219,8.05578 -8.93023,4.97833 -17.78108,10.81448 -23.42642,19.57009 -4.25926,9.20289 0.65819,7.79646 -14.15123,8.55506 -0.15248,0.008 -0.0164,-0.30491 -0.0247,-0.45737 -0.29529,-3.81976 -0.91229,-7.60991 -1.66529,-11.36391 -1.5874,-6.97319 -3.60153,-13.84241 -6.18612,-20.5122 0,0 11.29712,-0.52416 11.29712,-0.52416 z" />
    <path
       style="fill:#000000;fill-opacity:1;stroke:#000000;stroke-width:4.69999981;stroke-linecap:round;stroke-linejoin:round;stroke-miterlimit:4;stroke-opacity:1;stroke-dasharray:none;stroke-dashoffset:0"
       id="path3484"
       d="m 310.47731,777.49508 c -4.15404,-3.68228 -9.44555,-5.13042 -14.73974,-6.27228 -5.74694,-1.80419 -11.67357,-2.74679 -17.65528,-3.29228 -5.96344,-0.20751 -11.82663,-0.42169 -17.72324,-1.33478 -7.32708,-0.788 -14.56799,-2.02117 -21.84978,-3.13826 -8.74306,-0.82151 -17.37888,-2.40263 -26.10626,-3.36677 -8.65367,-1.08964 -17.40888,-0.59697 -26.06287,-1.5249 -7.38245,-1.0152 -14.78818,-1.78853 -22.22827,-2.20147 -5.91426,-0.27565 -11.83631,-0.28171 -17.75561,-0.29008 -0.8418,8.8e-4 -3.36723,0.002 -2.52542,0.003 18.45191,0.0157 4.07577,-0.20857 -0.31125,0.70751 -8.04784,2.24087 -15.77027,1.72362 -24.16352,1.59547 -4.17968,-0.99731 -8.42081,-1.62137 -12.69827,-1.99003 -3.67202,-0.25575 -7.353467,-0.29233 -11.032738,-0.30411 -0.531471,-2.7e-4 -1.062942,-5.4e-4 -1.594413,-8.2e-4 3.245124,8e-4 6.490251,9.6e-4 9.735371,0.002 0.50951,2.2e-4 -1.01901,4.1e-4 -1.52852,0.001 -1.41494,0.002 -2.829875,0.006 -4.244807,0.009 -1.788926,0.007 -3.577866,0.007 -5.366801,0.0114 -0.3836,8e-4 -0.767198,0.002 -1.150796,0.003 0,0 -11.276734,-1.78605 -11.276734,-1.78605 l 0,0 c 0.395944,10e-4 0.791889,0.003 1.187836,0.003 1.80795,0.002 3.615897,-4.7e-4 5.423848,-8.4e-4 6.661789,-0.008 13.323614,-0.035 19.985404,-0.005 3.67169,0.032 7.34622,0.094 11.00668,0.40905 4.26559,0.43955 8.4692,1.19852 12.681,1.98741 -19.23439,0.44531 -2.50212,0.15897 1.87915,-1.45053 8.18018,-1.96785 16.70457,-0.59654 25.0615,-0.94555 5.91305,0.0162 11.82936,0.0375 17.7355,0.35763 7.41978,0.46445 14.79894,1.30819 22.17198,2.25308 8.65589,0.76039 17.3857,0.44526 26.02351,1.54817 8.73728,1.0149 17.40711,2.51499 26.15957,3.40509 7.29386,1.14411 14.57528,2.25483 21.90716,3.12421 5.89601,0.85394 11.79719,0.88586 17.73574,1.27517 5.99853,0.62752 11.907,1.72285 17.70021,3.42891 5.40881,1.29743 10.72601,3.02984 14.90038,6.89132 0,0 -11.28052,0.8878 -11.28052,0.8878 z" />
    <path
       style="fill:#000000;fill-opacity:1;stroke:#000000;stroke-width:4.69999981;stroke-linecap:round;stroke-linejoin:round;stroke-miterlimit:4;stroke-opacity:1;stroke-dasharray:none;stroke-dashoffset:0"
       id="path3486"
       d="m 104.61497,728.11709 c -3.73297,3.46605 -7.978609,6.38185 -11.616121,9.94538 -2.312229,2.85551 -0.348638,4.82667 2.260503,6.32376 2.884285,2.57051 6.441688,4.13515 9.725548,6.10112 3.2845,2.27892 6.86672,4.03933 9.74795,6.83579 0.86237,1.18711 2.1378,1.81576 3.43006,2.4167 0,0 -11.29618,1.23473 -11.29618,1.23473 l 0,0 c -1.26994,-0.73908 -2.46108,-1.58013 -3.40161,-2.72996 -2.89778,-2.63657 -6.460528,-4.37558 -9.677635,-6.58573 -3.349562,-1.90508 -6.779056,-3.68908 -9.778408,-6.14234 -2.967999,-2.09533 -4.594088,-5.01876 -2.247029,-8.34031 3.569514,-3.61559 7.875907,-6.46578 11.572401,-9.94694 0,0 11.280521,0.8878 11.280521,0.8878 z" />
    <path
       style="fill:#000000;fill-opacity:1;stroke:#000000;stroke-width:4.69999981;stroke-linecap:round;stroke-linejoin:round;stroke-miterlimit:4;stroke-opacity:1;stroke-dasharray:none;stroke-dashoffset:0"
       id="path3488"
       d="m 98.094122,661.515 c 4.018948,5.79215 5.400828,12.74658 6.511808,19.57633 0.26239,5.27565 1.98723,11.02099 0.29813,16.19102 -3.96732,5.24532 -12.244303,2.46135 -13.65897,-2.78509 -0.562554,-2.08629 -0.301208,-2.5951 -0.08486,-4.76717 2.123047,-7.72628 7.582022,-13.51854 13.52701,-18.57371 7.56548,-5.94832 16.76508,-8.82256 26.06805,-10.69117 3.23682,-0.53034 6.50889,-0.67901 9.77975,-0.7863 0,0 11.09104,1.73049 11.09104,1.73049 l 0,0 c -3.30189,0.0443 -6.60523,0.13428 -9.88276,0.58868 -9.24389,1.59784 -18.44553,4.4254 -26.03238,10.12566 -5.83594,4.77912 -11.12105,10.29882 -13.30995,17.71988 -0.95567,9.2512 8.02029,6.60936 -9.30158,7.09917 -0.162615,0.005 0.322205,-0.0452 0.483307,-0.0678 2.087292,-4.78768 -0.01903,-10.61644 -0.117325,-15.60414 -1.074678,-6.618 -2.371306,-13.48529 -6.651792,-18.86804 0,0 11.28052,-0.8878 11.28052,-0.8878 z" />
    <path
       style="fill:#000000;fill-opacity:1;stroke:#000000;stroke-width:4.69999981;stroke-linecap:round;stroke-linejoin:round;stroke-miterlimit:4;stroke-opacity:1;stroke-dasharray:none;stroke-dashoffset:0"
       id="path3490"
       d="m -41.845034,761.81709 c -10.2446,1.12839 -19.006571,-1.39739 -28.602988,-3.7782 -7.841962,-1.62452 -15.879742,-1.71865 -23.853832,-1.88489 -1.560438,0.0426 -15.795446,-0.30175 -15.928966,-0.1061 -0.99375,1.45614 5.32106,-1.45663 5.2799,0.30581 -0.0414,1.77208 -3.53231,0.30143 -5.29778,0.45986 -1.73949,0.1561 -3.47804,0.3225 -5.21706,0.48375 -9.32568,1.43841 -18.68708,2.65003 -27.92454,4.58953 -7.09333,1.52095 -14.3109,2.22376 -21.54367,2.5978 -4.5273,0.18944 -9.05922,0.20748 -13.58972,0.22219 0,0 -11.12907,-1.76178 -11.12907,-1.76178 l 0,0 c 4.55657,0.008 9.11424,-10e-4 13.66871,-0.15667 7.24082,-0.31573 14.47423,-0.93166 21.583,-2.4114 9.27957,-1.9692 18.67432,-3.17719 28.03611,-4.70253 14.29444,-1.33176 28.628979,-1.57655 42.979891,-1.2248 8.039466,0.18764 16.149453,0.31964 24.028503,2.11227 2.973088,0.76146 5.93347,1.68442 8.943325,2.29131 3.764268,0.75901 14.707501,1.57543 -2.587951,1.19689 0,0 11.156138,1.76696 11.156138,1.76696 z" />
    <path
       style="fill:#000000;fill-opacity:1;stroke:#000000;stroke-width:4.69999981;stroke-linecap:round;stroke-linejoin:round;stroke-miterlimit:4;stroke-opacity:1;stroke-dasharray:none;stroke-dashoffset:0"
       id="path3492"
       d="m -161.09932,745.25994 c -5.38093,4.47727 -11.04645,8.58977 -16.57323,12.88156 -5.65246,4.43577 -11.30316,9.07172 -14.75159,15.47748 -1.84712,5.4425 3.90061,6.84672 8.04254,7.87613 1.24791,0.18718 2.49139,0.40682 3.74373,0.56154 4.98048,0.61532 9.24397,0.61989 7.93821,0.64693 -15.332,0.31757 -3.92729,-0.45158 -0.4933,-1.23404 0.81204,-0.27676 1.62408,-0.55352 2.43612,-0.83029 0,0 11.13978,1.37399 11.13978,1.37399 l 0,0 c -0.83161,0.3113 -1.66322,0.6226 -2.49483,0.9339 -10.79187,2.93698 -22.42519,1.77661 -33.35071,-4.1e-4 -4.90898,-1.47552 -10.18918,-3.80777 -8.16588,-9.87109 3.40737,-6.61282 9.1483,-11.38584 14.91052,-15.94009 5.44027,-4.26468 10.99958,-8.36974 16.33812,-12.7634 0,0 11.28052,0.88779 11.28052,0.88779 z" />
    <path
       style="fill:#000000;fill-opacity:1;stroke:#000000;stroke-width:4.69999981;stroke-linecap:round;stroke-linejoin:round;stroke-miterlimit:4;stroke-opacity:1;stroke-dasharray:none;stroke-dashoffset:0"
       id="path3494"
       d="m -225.78097,656.92814 c -0.11508,7.63735 -0.10698,15.27604 -0.0953,22.91405 -0.35834,8.33497 -1.99996,16.48115 -3.62054,24.63446 -0.78716,4.47466 -0.43097,2.32275 -1.07856,6.45406 0,0 -11.19206,-0.18147 -11.19206,-0.18147 l 0,0 c 0.70738,-4.15284 0.32887,-1.98801 1.14069,-6.49359 1.64472,-8.07747 3.30098,-16.14577 3.64587,-24.41346 0.0117,-7.63801 0.0198,-15.2767 -0.0953,-22.91405 0,0 11.2952,0 11.2952,0 z" />
    <path
       style="fill:#000000;fill-opacity:1;stroke:#000000;stroke-width:4.69999981;stroke-linecap:round;stroke-linejoin:round;stroke-miterlimit:4;stroke-opacity:1;stroke-dasharray:none;stroke-dashoffset:0"
       id="path3496"
       d="m -232.814,659.84372 c 6.21541,-1.97658 12.17017,-4.65877 18.2553,-6.99037 4.46796,-1.7808 8.87862,-3.66808 13.20851,-5.76182 0,0 11.10902,1.24916 11.10902,1.24916 l 0,0 c -4.35744,2.11389 -8.77989,4.03947 -13.27031,5.854 -6.07092,2.27903 -11.99435,4.91984 -18.08327,7.14528 0,0 -11.21925,-1.49625 -11.21925,-1.49625 z" />
    <path
       style="fill:#000000;fill-opacity:1;stroke:#000000;stroke-width:4.69999981;stroke-linecap:round;stroke-linejoin:round;stroke-miterlimit:4;stroke-opacity:1;stroke-dasharray:none;stroke-dashoffset:0"
       id="path3498"
       d="m -235.31287,674.10454 c 7.11884,-1.02572 14.18815,-2.31604 21.28297,-3.49419 7.23635,-0.72206 14.34404,-2.18868 21.48239,-3.52626 3.0217,-0.52183 6.06043,-0.94551 9.11024,-1.26384 0.51032,-0.0668 1.02394,-0.0789 1.53763,-0.0893 0,0 11.24316,1.77514 11.24316,1.77514 l 0,0 c -0.50775,-0.005 -1.01638,-0.037 -1.52347,-0.004 -3.10692,0.22489 -6.19551,0.66059 -9.27297,1.13282 -7.18134,1.29925 -14.30302,2.89395 -21.58606,3.5344 -7.03824,1.13017 -14.02016,2.5368 -21.08766,3.4814 0,0 -11.18623,-1.54605 -11.18623,-1.54605 z" />
    <path
       style="fill:#000000;fill-opacity:1;stroke:#000000;stroke-width:4.69999981;stroke-linecap:round;stroke-linejoin:round;stroke-miterlimit:4;stroke-opacity:1;stroke-dasharray:none;stroke-dashoffset:0"
       id="path3500"
       d="m 672.69097,786.24154 c 4.97457,1.396 10.13844,1.81157 15.27425,2.10157 7.45834,0.31173 14.9257,0.30119 22.38917,0.31178 -2.29482,-0.0982 -4.66401,0.29303 -6.88447,-0.2947 -1.31349,-0.34766 2.70129,-0.29619 4.05066,-0.45537 4.77494,-0.56326 9.53433,-1.15024 14.32566,-1.56132 5.97893,-0.4101 11.93532,-0.33825 17.8591,-1.30356 5.53069,-1.09151 11.13835,-1.5994 16.75806,-1.92238 4.44779,-0.70012 8.81428,-1.79925 13.26649,-2.48809 2.82573,-0.39822 5.67445,-0.54373 8.5246,-0.59132 2.82002,0.0872 5.39886,-1.23042 8.0792,-1.93835 2.5679,-0.65017 5.21972,-0.50927 7.6966,-1.48441 1.05687,-0.48424 2.07898,-1.05422 3.00353,-1.75697 0.13349,-0.62787 0.0826,-0.30862 0.15093,-0.95802 0,0 11.3861,0.11361 11.3861,0.11361 l 0,0 c -0.0762,0.7959 -0.0262,0.38618 -0.15424,1.22863 -0.33068,1.48635 -1.88826,1.93464 -3.13029,2.67746 -2.50494,1.22997 -4.99076,1.33064 -7.74234,1.68876 -2.76111,0.5785 -5.32117,1.98249 -8.10098,2.18832 -2.85354,0.0172 -5.70682,0.0993 -8.54393,0.43493 -4.49156,0.6232 -8.91006,1.58918 -13.33232,2.58361 -5.62029,0.27518 -11.23956,0.6931 -16.76991,1.78948 -5.94248,1.05734 -11.8796,1.13462 -17.90433,1.39515 -11.18755,0.87862 -22.23128,3.05473 -33.52581,2.39278 -7.4849,-0.0166 -14.97492,-0.007 -22.45289,-0.36906 -5.20192,-0.34482 -10.40223,-0.88019 -15.4421,-2.28629 0,0 11.21926,-1.49624 11.21926,-1.49624 z" />
    <path
       style="fill:#000000;fill-opacity:1;stroke:#000000;stroke-width:4.69999981;stroke-linecap:round;stroke-linejoin:round;stroke-miterlimit:4;stroke-opacity:1;stroke-dasharray:none;stroke-dashoffset:0"
       id="path3502"
       d="m 800.95127,744.37215 c 4.64159,3.54455 9.85689,6.33876 15.07385,8.94664 5.58134,3.04302 11.47977,5.57814 17.53185,7.52803 4.40179,0.98208 8.36279,1.85609 10.77961,5.94892 0.91618,5.16502 -3.96478,8.808 -7.24279,12.09319 -4.45816,4.51801 -10.13465,7.27321 -15.41223,10.6344 -4.7886,2.89958 -13.54873,6.27422 -17.75599,0.91388 0,0 11.318,-0.88988 11.318,-0.88988 l 0,0 c 3.45025,2.44568 1.01849,0.52314 -9.61983,0.75821 -1.88357,0.0416 6.41554,-0.83459 4.87714,-1.90768 5.24745,-3.34868 10.94863,-5.96413 15.45493,-10.38422 2.7393,-2.74597 7.73677,-6.25108 7.0958,-10.57105 -2.53971,-3.56894 -6.61131,-4.06763 -10.59825,-5.20166 -6.0363,-2.07982 -11.93384,-4.62151 -17.53283,-7.69493 -5.27775,-2.72517 -10.6361,-5.51422 -15.24979,-9.28606 0,0 11.28053,-0.88779 11.28053,-0.88779 z" />
    <path
       style="fill:#000000;fill-opacity:1;stroke:#000000;stroke-width:4.69999981;stroke-linecap:round;stroke-linejoin:round;stroke-miterlimit:4;stroke-opacity:1;stroke-dasharray:none;stroke-dashoffset:0"
       id="path3504"
       d="m 743.1298,642.53098 c 1.36562,7.86706 1.7423,15.85267 2.08243,23.81554 0.32776,8.56551 0.3306,17.13884 0.36516,25.70926 0.0305,4.41719 0.0418,8.83443 0.10478,13.25133 0.31819,4.10816 0.1282,0.32107 -11.35665,-0.65546 0,0 11.35325,-0.002 11.35325,-0.002 l 0,0 c -11.47942,0.9712 -11.72525,4.75234 -11.3485,0.65482 0.0865,-4.41498 0.10699,-8.83065 0.13028,-13.24633 0.004,-8.55547 -0.0208,-17.11288 -0.31567,-25.66425 -0.33409,-7.90962 -0.72354,-15.8621 -2.30544,-23.63962 0,0 11.29036,-0.2229 11.29036,-0.2229 z" />
    <path
       style="fill:#000000;fill-opacity:1;stroke:#000000;stroke-width:4.69999981;stroke-linecap:round;stroke-linejoin:round;stroke-miterlimit:4;stroke-opacity:1;stroke-dasharray:none;stroke-dashoffset:0"
       id="path3506"
       d="m 744.11954,631.95582 c 6.08466,1.41375 12.33192,1.78038 18.54942,2.10015 -18.4269,0.74433 2.57389,-1.5281 6.20165,-1.97196 2.47034,0.57086 4.90412,-2.39213 7.15771,-2.40799 3.98937,-0.0281 7.97683,0.18369 11.96524,0.27553 0,0 -11.29583,1.30676 -11.29583,1.30676 l 0,0 c 16.95559,-0.51574 10.25335,-0.34058 3.30842,2.4556 -9.46379,1.07545 -18.69924,3.08859 -28.35606,2.02587 -6.29054,-0.3617 -12.60434,-0.80423 -18.74981,-2.28771 0,0 11.21926,-1.49625 11.21926,-1.49625 z" />
    <path
       style="fill:#000000;fill-opacity:1;stroke:#000000;stroke-width:4.69999981;stroke-linecap:round;stroke-linejoin:round;stroke-miterlimit:4;stroke-opacity:1;stroke-dasharray:none;stroke-dashoffset:0"
       id="path3508"
       d="m 744.42974,668.62156 c 3.29429,-0.2241 28.93799,0.50079 9.76108,-0.27957 5.99301,-0.75647 11.9689,-1.62878 17.98328,-2.2031 2.0367,-0.17351 4.07836,-0.27469 6.12048,-0.35559 0,0 11.2146,1.73941 11.2146,1.73941 l 0,0 c -2.06826,0.051 -4.13591,0.13147 -6.19996,0.27708 -6.06147,0.51721 -12.08697,1.33305 -18.10959,2.18478 -10.64393,0.28095 -21.27854,0.50272 -31.92602,0.40395 0,0 11.15613,-1.76696 11.15613,-1.76696 z" />
  </g>
</svg>
