<?xml version="1.0" encoding="UTF-8" standalone="no"?>
<!-- Created with Inkscape (http://www.inkscape.org/) -->
<svg
   xmlns:dc="http://purl.org/dc/elements/1.1/"
   xmlns:cc="http://creativecommons.org/ns#"
   xmlns:rdf="http://www.w3.org/1999/02/22-rdf-syntax-ns#"
   xmlns:svg="http://www.w3.org/2000/svg"
   xmlns="http://www.w3.org/2000/svg"
   xmlns:sodipodi="http://sodipodi.sourceforge.net/DTD/sodipodi-0.dtd"
   xmlns:inkscape="http://www.inkscape.org/namespaces/inkscape"
   width="1502.8676"
   height="785.9162"
   id="svg2753"
   sodipodi:version="0.32"
   inkscape:version="0.46+devel"
   version="1.0"
   sodipodi:docname="c30d2.svg"
   inkscape:output_extension="org.inkscape.output.svg.inkscape">
  <defs
     id="defs2755">
    <inkscape:perspective
       sodipodi:type="inkscape:persp3d"
       inkscape:vp_x="0 : 526.18109 : 1"
       inkscape:vp_y="0 : 1000 : 0"
       inkscape:vp_z="744.09448 : 526.18109 : 1"
       inkscape:persp3d-origin="372.04724 : 350.78739 : 1"
       id="perspective2761" />
  </defs>
  <sodipodi:namedview
     id="base"
     pagecolor="#ffffff"
     bordercolor="#666666"
     borderopacity="1.0"
     inkscape:pageopacity="0.0"
     inkscape:pageshadow="2"
     inkscape:zoom="0.35"
     inkscape:cx="755.52401"
     inkscape:cy="265.90365"
     inkscape:document-units="px"
     inkscape:current-layer="layer1"
     showgrid="false"
     inkscape:window-width="1280"
     inkscape:window-height="712"
     inkscape:window-x="-5"
     inkscape:window-y="-3" />
  <metadata
     id="metadata2758">
    <rdf:RDF>
      <cc:Work
         rdf:about="">
        <dc:format>image/svg+xml</dc:format>
        <dc:type
           rdf:resource="http://purl.org/dc/dcmitype/StillImage" />
        <dc:title></dc:title>
      </cc:Work>
    </rdf:RDF>
  </metadata>
  <g
     inkscape:label="Layer 1"
     inkscape:groupmode="layer"
     id="layer1"
     transform="translate(380.52401,-12.349621)">
    <path
       style="fill:#000000;fill-opacity:1;fill-rule:nonzero;stroke:#000000;stroke-width:4.69999981;stroke-linecap:round;stroke-linejoin:round;stroke-miterlimit:4;stroke-opacity:1;stroke-dasharray:none;stroke-dashoffset:0"
       id="path2763"
       d="m -266.99105,143.4363 c -2.60964,7.52566 -3.75445,15.39255 -4.49637,23.28698 -1.43336,9.53317 -2.46517,19.10142 -3.03776,28.72307 -0.60719,10.27491 -0.22407,20.57429 -0.86118,30.8433 -1.22955,12.24075 -1.8584,24.51885 -2.2223,36.8118 -0.20761,15.20131 -0.6697,30.4173 -0.0264,45.61102 0.61877,15.76169 2.66338,31.40452 3.9156,47.11771 1.86363,16.07994 3.11316,32.20852 3.79114,48.37921 0.41208,14.74615 1.8852,29.43155 2.66227,44.16103 0.20053,14.14663 1.55255,28.22727 2.47437,42.33584 0.92533,12.96552 -0.29839,25.96045 -0.9137,38.91559 -0.5364,11.24179 -0.66306,22.49652 -0.73961,33.74899 0.0604,10.57575 -1.34825,21.08695 -2.07296,31.62705 -0.6107,9.72203 -0.7212,19.46556 -0.78054,29.2036 -0.0493,9.94182 -0.0315,19.88377 -0.0242,29.82566 -0.0284,9.04187 -0.24553,18.0514 0.81704,27.04069 0.74718,5.67767 1.51451,11.35511 1.91855,17.06935 0.22769,2.81304 -0.58314,5.6115 2.07882,7.26381 3.09521,0.96941 6.39229,1.0238 9.55558,0.44302 6.30959,-1.08944 12.54991,-2.49206 18.87222,-3.51797 10.38635,-2.17659 20.79023,-4.21629 31.21297,-6.21194 13.5953,-2.62865 27.2592,-4.81489 40.96818,-6.76064 17.81986,-1.81817 35.51507,-4.48584 53.21946,-7.15632 21.690539,-3.48584 43.457762,-6.49525 65.268617,-9.12297 25.728976,-2.97118 51.4266442,-6.18157 77.11935,-9.45678 27.780255,-3.33854 55.622771,-6.10976 83.431403,-9.19277 27.8383,-2.96149 55.71109,-5.59484 83.54391,-8.60603 28.33407,-3.00271 56.70465,-5.64071 85.04816,-8.55081 29.32009,-3.07669 58.79649,-4.08218 88.22168,-5.65387 29.63021,-1.57774 59.30332,-1.9935 88.9688,-2.26222 29.07432,0.0213 58.05265,2.37572 87.00507,4.75175 28.48418,2.87384 56.91694,6.26865 85.355,9.57305 27.33272,3.05165 54.68921,5.88152 82.02264,8.92638 26.12429,2.8188 52.33666,4.67129 78.51261,6.91119 24.92769,2.31843 49.94743,3.17887 74.96668,3.673 22.88351,0.25463 45.73216,1.67363 68.6041,2.39607 18.58138,0.40341 37.11236,1.93651 55.67711,2.78052 11.44484,0.25597 23.09824,1.95979 34.10704,-1.88044 0.9881,-0.47645 1.9761,-0.95291 2.9641,-1.42936 0,0 -8.8148,7.00069 -8.8148,7.00069 l 0,0 c -1.0034,0.43386 -2.0069,0.86772 -3.0103,1.30158 -11.1314,3.3487 -22.72979,1.75813 -34.18237,1.43598 -18.52032,-0.90628 -37.0107,-2.43776 -55.55138,-2.85117 -22.84666,-0.75821 -45.67129,-2.17609 -68.53122,-2.43257 -25.02795,-0.52064 -50.05416,-1.41105 -74.98976,-3.74271 -26.17009,-2.23743 -52.37388,-4.12371 -78.48986,-6.96072 -27.32717,-3.02628 -54.67218,-5.8836 -81.99469,-8.95261 -28.43175,-3.29326 -56.85464,-6.71096 -85.33567,-9.54287 -28.92693,-2.37902 -57.88267,-4.70016 -86.93201,-4.68467 -29.65547,0.26991 -59.31771,0.70012 -88.93702,2.29739 -29.41882,1.5692 -58.88782,2.59569 -88.19891,5.70169 -28.35414,2.89876 -56.73012,5.5791 -85.07419,8.57688 -27.83651,2.97765 -55.70515,5.64934 -83.54366,8.60974 -27.811428,3.06473 -55.654132,5.84366 -83.43142,9.21522 -25.7201439,3.28361 -51.445378,6.50268 -77.198957,9.50789 -21.831615,2.66728 -43.619978,5.70488 -65.333053,9.21154 -17.73414,2.70492 -35.47306,5.30062 -53.31496,7.21689 -13.71911,1.99031 -27.39717,4.19687 -41.00438,6.85239 -10.45559,2.00021 -20.87667,4.13059 -31.30794,6.25219 -6.33895,1.10426 -12.61917,2.49859 -18.9669,3.5572 -3.39116,0.36848 -6.94298,0.39564 -10.08662,-1.11165 -2.83535,-2.15376 -2.51447,-4.84837 -2.54587,-8.16871 -0.35486,-5.71213 -1.04515,-11.39336 -1.80093,-17.06505 -1.07406,-9.03994 -0.8946,-18.0859 -0.83212,-27.18067 -0.006,-9.94223 -0.0223,-19.88452 0.008,-29.82671 0.0732,-9.76096 0.15904,-19.52719 0.76341,-29.27303 0.73474,-10.52462 2.13114,-21.02193 2.13145,-31.57833 0.0705,-11.27014 0.18354,-22.54327 0.7398,-33.80202 0.6535,-12.92349 1.85461,-25.89106 1.01745,-38.8272 -0.90324,-14.11384 -2.30057,-28.19523 -2.48464,-42.34654 -0.74866,-14.74189 -2.21627,-29.43928 -2.61948,-44.1957 -0.6664,-16.15768 -1.86192,-32.27806 -3.77684,-48.33983 -1.24594,-15.72537 -3.28996,-31.37875 -3.94045,-47.14965 -0.6703,-15.21012 -0.21776,-30.44228 -0.0468,-45.66155 0.31728,-12.29281 0.88281,-24.57536 2.13496,-36.81358 0.68949,-10.25926 0.23561,-20.55268 0.83075,-30.82149 0.56971,-9.62705 1.52885,-19.20968 3.00259,-28.74423 0.69171,-7.94704 1.81244,-15.85352 4.27936,-23.4715 0,0 10.2421,-4.81007 10.2421,-4.81007 z" />
    <path
       style="fill:#000000;fill-opacity:1;fill-rule:nonzero;stroke:#000000;stroke-width:4.69999981;stroke-linecap:round;stroke-linejoin:round;stroke-miterlimit:4;stroke-opacity:1;stroke-dasharray:none;stroke-dashoffset:0"
       id="path2765"
       d="m 1014.5103,634.47219 c 3.6015,6.77799 9.0881,11.95806 15.0043,16.68099 5.6199,4.08992 12.465,5.92534 19.1285,7.57525 5.1203,1.21108 10.6499,0.51079 14.7894,4.16055 0.4421,1.17104 0.97,1.83311 0.3838,3.11578 -1.8423,4.0308 -19.0436,12.33023 -20.6999,13.2675 1.6393,-0.92109 6.547,-3.70216 4.9178,-2.76327 -13.2686,7.64664 -26.6894,15.01658 -40.1209,22.37268 -10.2415,6.00963 -20.69508,11.37207 -32.01986,14.98628 0,0 8.86295,-6.87226 8.86295,-6.87226 l 0,0 c 11.2197,-3.6665 21.54811,-9.14594 31.75061,-15.04145 20.3639,-11.16954 20.9349,-11.30636 35.3212,-19.69834 -12.8468,7.71568 -0.3929,0.90554 1.7284,-1.37426 0.7872,-0.84593 0.4949,-1.02942 0.2484,-1.98966 -4.0124,-3.3149 -9.6578,-2.31422 -14.4243,-3.7797 -6.7815,-1.76449 -13.722,-3.67766 -19.3782,-7.9862 -6.0167,-4.85207 -11.5266,-10.22558 -15.3194,-17.05846 0,0 9.8272,-5.59543 9.8272,-5.59543 z" />
    <path
       style="fill:#000000;fill-opacity:1;fill-rule:nonzero;stroke:#000000;stroke-width:4.69999981;stroke-linecap:round;stroke-linejoin:round;stroke-miterlimit:4;stroke-opacity:1;stroke-dasharray:none;stroke-dashoffset:0"
       id="path2767"
       d="m -329.84053,184.07089 c 4.20829,-7.63822 8.27552,-15.34994 12.32598,-23.07244 3.4823,-6.45947 7.83676,-12.36533 11.94521,-18.42413 3.17724,-4.90553 9.04518,-12.11215 15.51094,-10.35914 2.7697,1.56229 4.71317,4.35614 6.97064,6.60454 3.45239,3.06634 7.22172,5.64279 11.10375,8.13042 5.88366,3.89928 11.0682,8.71552 16.19675,13.534 5.79746,5.73791 11.94411,11.09371 19.48448,14.32835 3.25288,1.44852 6.64233,1.46367 10.11333,1.46011 0,0 -9.12702,6.60647 -9.12702,6.60647 l 0,0 c -3.55355,-0.12857 -7.03406,-0.33403 -10.33424,-1.85242 -7.55658,-3.43898 -13.79976,-8.84994 -19.68843,-14.64639 -5.09775,-4.7649 -10.25841,-9.52224 -16.13661,-13.32551 -3.95958,-2.51336 -7.76517,-5.18294 -11.26866,-8.31225 -2.04283,-2.01943 -3.88061,-4.89141 -6.57545,-5.92228 -4.17068,0.72083 -1.04434,0.28175 7.91337,-5.02189 0.29245,-0.17316 -0.60357,0.31645 -0.88268,0.51039 -1.37066,0.95238 -1.97626,2.41774 -2.93251,3.74864 -4.11995,6.0592 -8.53846,11.91738 -12.08618,18.34958 -4.06485,7.67435 -8.05778,15.38546 -12.2296,23.00252 0,0 -10.30307,4.66143 -10.30307,4.66143 z" />
    <path
       style="fill:#000000;fill-opacity:1;fill-rule:nonzero;stroke:#000000;stroke-width:4.69999981;stroke-linecap:round;stroke-linejoin:round;stroke-miterlimit:4;stroke-opacity:1;stroke-dasharray:none;stroke-dashoffset:0"
       id="path2769"
       d="m 1119.9936,717.71429 c -12.0063,8.84837 -21.2604,20.78884 -30.6496,32.23201 -10.3674,11.79987 -19.272,24.91006 -30.3502,36.07044 -4.9602,4.4557 -10.6453,9.28972 -17.4868,9.89909 0,0 9.0604,-6.79931 9.0604,-6.79931 l 0,0 c 8.3134,-1.92699 -13.9808,9.01186 -1.8611,1.15306 11.3409,-10.95025 20.1221,-24.251 30.5566,-36.0301 9.3344,-11.41117 18.4706,-23.35028 30.2445,-32.3832 0,0 10.4862,-4.14199 10.4862,-4.14199 z" />
    <path
       style="fill:#000000;fill-opacity:1;fill-rule:nonzero;stroke:#000000;stroke-width:4.69999981;stroke-linecap:round;stroke-linejoin:round;stroke-miterlimit:4;stroke-opacity:1;stroke-dasharray:none;stroke-dashoffset:0"
       id="path2771"
       d="m 1077.0722,689.19366 c 3.697,10.72485 9.775,20.47481 15.679,30.10063 7.2201,11.66948 12.7043,24.25331 17.8308,36.9463 2.3715,6.13197 3.775,12.54024 4.9651,18.98309 0,0 -9.912,5.27174 -9.912,5.27174 l 0,0 c -1.0892,-6.39703 -2.4264,-12.75462 -4.7502,-18.83881 -5.0363,-12.66302 -10.4963,-25.19726 -17.7081,-36.79967 -5.9718,-9.70646 -12.0677,-19.52308 -16.0248,-30.25584 0,0 9.9202,-5.40744 9.9202,-5.40744 z" />
    <path
       style="fill:#000000;fill-opacity:1;fill-rule:nonzero;stroke:#000000;stroke-width:4.69999981;stroke-linecap:round;stroke-linejoin:round;stroke-miterlimit:4;stroke-opacity:1;stroke-dasharray:none;stroke-dashoffset:0"
       id="path2773"
       d="m -368.34684,20.186474 c 4.3712,10.072207 5.57251,21.031847 6.58763,31.850945 1.13795,11.287699 0.97501,22.552173 -0.17278,33.817389 -0.2202,2.586001 -0.0758,5.154989 0.239,7.719772 0,0 -10.04142,5.267201 -10.04142,5.267201 l 0,0 c -0.30775,-2.661051 -0.42891,-5.327571 -0.23606,-8.007902 1.28814,-11.209675 1.50599,-22.418665 0.37243,-33.667911 -0.98188,-10.6636 -2.1142,-21.512131 -6.57597,-31.384058 0,0 9.82717,-5.595436 9.82717,-5.595436 z" />
    <path
       style="fill:#000000;fill-opacity:1;fill-rule:nonzero;stroke:#000000;stroke-width:4.69999981;stroke-linecap:round;stroke-linejoin:round;stroke-miterlimit:4;stroke-opacity:1;stroke-dasharray:none;stroke-dashoffset:0"
       id="path2781"
       d="m -358.74967,20.468804 c 6.39709,0.145822 12.69955,-1.275006 19.0142,-2.129779 3.9698,-0.461702 7.8815,-0.315124 11.659,-1.691562 2.46704,-0.896869 4.97981,-1.471599 7.57576,-1.806545 1.39811,-0.0862 2.79829,-0.13155 4.19891,-0.141297 0,0 -9.21637,6.712624 -9.21637,6.712624 l 0,0 c -1.36684,0.02276 -2.73672,0.06396 -4.0933,0.245474 -2.5418,0.391362 -4.99378,1.114801 -7.42628,1.945205 -3.82865,1.123832 -7.81362,0.914943 -11.74334,1.49855 -6.34172,0.882626 -12.68398,2.152973 -19.11312,2.01123 0,0 9.14454,-6.6439 9.14454,-6.6439 z" />
    <path
       style="fill:#000000;fill-opacity:1;fill-rule:nonzero;stroke:#000000;stroke-width:4.69999981;stroke-linecap:round;stroke-linejoin:round;stroke-miterlimit:4;stroke-opacity:1;stroke-dasharray:none;stroke-dashoffset:0"
       id="path2783"
       d="m -362.10542,62.090679 c 6.29283,-2.603287 12.53229,-5.354259 18.8773,-7.827697 4.18123,-1.307773 8.03432,-3.353671 12.26521,-4.539921 1.31851,-0.33538 2.64366,-0.680866 4.00104,-0.803398 0.0175,-0.05577 0.1933,0.048 0.21399,0.05314 0,0 -9.25432,6.701026 -9.25432,6.701026 l 0,0 c -0.0389,0.02228 -0.0185,0.123202 -0.11679,0.06685 -1.28658,0.253977 -2.56781,0.536539 -3.82634,0.908866 -4.15029,1.275035 -7.9995,3.301098 -12.14907,4.581369 -6.31754,2.549288 -12.62994,5.128221 -18.84188,7.923623 0,0 8.83086,-7.063855 8.83086,-7.063855 z" />
    <path
       style="fill:#000000;fill-opacity:1;fill-rule:nonzero;stroke:#000000;stroke-width:4.69999981;stroke-linecap:round;stroke-linejoin:round;stroke-miterlimit:4;stroke-opacity:1;stroke-dasharray:none;stroke-dashoffset:0"
       id="path2785"
       d="m -359.19589,91.064772 c 5.94507,-3.419881 12.67432,-4.764747 19.03995,-7.059004 5.25543,-1.881132 10.61044,-3.493471 15.82665,-5.479976 5.04619,-1.478909 9.7822,-3.715913 14.78749,-5.319246 3.02855,-1.500318 6.14458,-2.758833 9.35187,-3.821206 0.50607,-0.167424 1.01759,-0.316479 1.53328,-0.450758 0,0 -9.04249,6.960574 -9.04249,6.960574 l 0,0 c -0.49188,0.15248 -0.98319,0.306867 -1.47067,0.473028 -3.17361,1.096541 -6.21144,2.492722 -9.31076,3.77432 -4.9591,1.652508 -9.72048,3.825951 -14.73258,5.330856 -5.25572,1.881329 -10.55587,3.635171 -15.83329,5.454531 -6.45439,2.130382 -13.01249,3.919195 -19.08508,7.078934 0,0 8.93563,-6.942053 8.93563,-6.942053 z" />
    <path
       style="fill:#000000;fill-opacity:1;fill-rule:nonzero;stroke:#000000;stroke-width:4.69999981;stroke-linecap:round;stroke-linejoin:round;stroke-miterlimit:4;stroke-opacity:1;stroke-dasharray:none;stroke-dashoffset:0"
       id="path2787"
       d="m -180.35362,255.91089 c 12.23806,-8.24964 25.03523,-15.5625 37.82907,-22.9029 12.51936,-7.08779 25.88007,-12.53355 39.24634,-17.78681 15.297813,-5.48473 31.020028,-9.3001 46.885926,-12.66616 13.758686,-2.98111 27.666619,-4.31789 41.683666,-2.9569 10.1821736,1.20318 18.8927455,5.1307 26.549163,11.84147 5.908858,5.34015 9.373891,12.43182 12.486448,19.61299 2.626843,6.55602 3.144471,13.64553 3.455907,20.62662 0.222312,8.37165 0.137838,16.74857 0.10647,25.12227 -0.117778,9.35201 -0.214376,18.66193 0.744264,27.97138 1.243353,9.40664 1.314738,18.90699 2.187079,28.34054 1.220928,10.91361 1.906511,21.86159 3.191379,32.76765 1.935792,11.31417 3.568555,22.68191 6.134248,33.87547 1.806495,9.90999 5.537157,19.26832 8.975155,28.68536 2.414818,6.761 6.158315,12.8014 10.630621,18.36363 2.882531,3.96217 7.094243,6.10754 11.287324,8.35754 4.267725,2.15091 8.687929,2.14768 13.286779,1.48633 0.880608,-0.26809 1.783056,-0.47283 2.641824,-0.80428 1.884208,-0.72724 3.693843,-1.6389 5.496138,-2.55041 0.951819,-0.48138 3.735142,-2.06189 2.805191,-1.53951 -8.100644,4.55035 -8.768111,5.17231 -3.910905,1.75022 6.275093,-5.17856 12.566653,-10.38824 18.525143,-15.93294 7.94661,-7.3454 14.50949,-15.91737 20.75985,-24.70209 6.73493,-10.02288 12.69487,-20.57607 17.74799,-31.54029 4.27616,-9.85411 9.17861,-19.41412 14.09184,-28.96075 3.68452,-6.73355 8.0857,-13.13891 13.52383,-18.57429 5.90932,-4.64379 12.59333,-11.13011 20.45598,-9.5334 3.72966,0.92659 6.64745,3.54535 10.02314,5.24559 4.2385,2.84006 8.2615,5.89346 11.83506,9.54276 5.12627,3.89233 8.922,8.66272 12.20477,14.13047 3.10639,6.03881 5.72433,12.35117 7.24518,18.97786 1.52105,6.57042 3.41466,13.03313 5.1297,19.55169 1.87597,5.85741 3.78663,11.77816 7.12549,16.97967 4.74578,6.6377 8.72554,7.22461 16.40581,5.70799 12.97662,-4.37425 17.68986,-8.40071 20.92687,-10.44308 11.16035,-7.82376 22.57653,-15.25898 34.09263,-22.54514 11.39073,-7.37582 23.30182,-14.02516 35.58818,-19.79677 5.48419,-1.98849 11.07005,-3.83413 16.71742,-5.32742 5.33358,-0.78432 9.81342,1.41545 14.48954,3.58178 6.04453,3.05059 11.08139,7.63676 16.03542,12.17059 6.19989,5.80432 12.82291,11.13304 19.15895,16.78991 6.98772,5.97087 14.32679,11.49661 21.54766,17.1756 7.23403,5.66029 14.33551,11.49371 21.57153,17.15097 7.41714,6.2609 15.51665,11.36231 24.32098,15.40208 8.63456,3.66073 17.58279,4.39011 26.7651,2.99536 -2.76717,3.32785 16.21625,-7.57249 11.85222,-4.80727 -13.27372,8.41079 -1.11148,-0.57883 1.10369,-2.59589 7.73041,-7.87209 12.95155,-17.69224 18.14617,-27.31451 5.53071,-10.85615 12.51446,-20.89658 19.16015,-31.08775 5.47634,-9.34569 12.59097,-17.4222 19.58386,-25.61889 6.30653,-7.8661 13.42434,-15.00666 20.76956,-21.89299 8.15902,-7.29108 17.43248,-13.1358 26.62796,-18.99946 11.4752,-7.28001 23.36436,-13.99941 36.01785,-18.99488 6.08805,-2.18353 12.44151,-3.48194 18.87845,-4.00015 3.9857,0.41332 6.76417,2.96007 8.40167,6.46054 1.93293,3.674 3.0025,7.67716 4.27733,11.60617 1.63727,5.33621 4.81053,9.80669 7.93807,14.34591 3.99057,5.61116 10.17357,9.22997 16.29181,12.13152 9.16419,3.31371 19.03929,3.83988 28.69236,3.55246 13.96461,-0.28809 27.37373,-4.33858 40.62986,-8.34401 16.18812,-5.22812 31.70609,-12.38724 46.8221,-20.14222 7.47244,-4.22231 15.67325,-7.57257 22.74707,-12.49461 0.84092,-0.58512 -3.56317,1.87465 -2.85718,1.13231 1.74629,-1.8362 4.12383,-2.95062 6.09769,-4.53965 1.89044,-1.52188 3.65771,-3.19073 5.48656,-4.7861 9.25096,-7.90449 15.92024,-17.9822 22.40191,-28.13665 0,0 10.12714,-4.45538 10.12714,-4.45538 l 0,0 c -6.50092,10.19949 -13.04743,20.43778 -22.29743,28.42908 -14.88734,13.26343 -32.65664,22.55872 -50.26173,31.7061 -15.18462,7.69679 -30.72466,14.88356 -46.98387,20.01897 -13.3442,4.00222 -26.84652,7.96522 -40.8974,8.17358 -9.80521,0.18291 -19.83433,-0.36352 -29.08124,-3.92742 -6.25694,-3.07362 -12.54183,-6.81135 -16.63658,-12.60174 -3.19792,-4.6227 -6.40755,-9.1957 -8.12121,-14.61753 -1.2692,-3.88194 -2.33615,-7.83977 -4.25173,-11.46888 -1.43533,-3.1705 -4.00399,-5.28101 -7.61764,-5.31283 -6.34526,0.61457 -12.60846,1.92341 -18.58283,4.19173 -4.26824,1.75583 -8.48835,3.63759 -12.61775,5.70429 -1.53473,0.7681 -5.64738,3.72816 -4.55086,2.40793 1.24382,-1.49757 3.12825,-2.53542 5.02408,-2.97769 1.79075,-0.41777 -3.12835,1.93356 -4.69253,2.90034 -9.17574,5.85531 -18.47492,11.61081 -26.69093,18.80451 -7.35884,6.84401 -14.51325,13.92512 -20.81477,21.77235 -6.94993,8.21464 -14.23491,16.14031 -19.67534,25.50457 -6.63,10.18259 -13.67085,20.17392 -19.20864,31.00657 -5.17694,9.6801 -10.35818,19.55452 -17.92886,27.62238 -9.08204,8.55522 -20.11945,15.31323 -32.28037,18.35259 -9.33759,1.15384 -18.40911,0.29389 -27.1119,-3.5331 -8.83232,-4.15005 -16.9886,-9.31366 -24.4685,-15.61175 -7.23338,-5.66231 -14.34047,-11.48966 -21.57329,-17.15314 -7.24056,-5.69241 -14.59645,-11.23566 -21.59915,-17.22566 -6.34301,-5.65875 -12.97082,-10.99041 -19.18794,-16.78588 -4.89905,-4.44888 -9.88912,-8.94185 -15.90176,-11.84645 -4.52889,-2.08671 -8.91738,-4.02355 -14.03253,-2.93597 -5.57556,1.5869 -11.17052,3.2469 -16.53667,5.4365 -3.90905,1.87418 -7.81184,3.79342 -11.6391,5.83059 -1.53142,0.81515 -5.27822,4.10062 -4.55061,2.52572 0.0714,-0.15466 13.00238,-7.69957 -0.27487,0.43091 -11.54026,7.26521 -22.99913,14.65879 -34.12148,22.55495 -12.73773,8.0833 -25.67907,16.70794 -40.20192,21.19978 -8.05356,1.2372 -12.34243,0.029 -17.18579,-6.77661 -3.3746,-5.32043 -5.3822,-11.31416 -7.29039,-17.29113 -1.69107,-6.53804 -3.60231,-13.00896 -5.13518,-19.58952 -1.46455,-6.51968 -4.02558,-12.72645 -7.06557,-18.6671 -3.25762,-5.3836 -7.07527,-10.01369 -12.09731,-13.88425 -3.52169,-3.53602 -7.48383,-6.52381 -11.67774,-9.22343 -3.2372,-1.72532 -6.15607,-4.21888 -9.84174,-4.92978 -2.79711,-0.31347 -4.83625,0.7327 -4.67554,0.6282 15.47984,-10.06527 7.08354,-4.27475 3.91777,-1.9084 -5.61397,5.20299 -9.96608,11.65321 -13.74792,18.27235 -4.97315,9.52244 -9.86659,19.09704 -14.18123,28.93981 -4.98459,11.03527 -10.97234,21.61601 -17.64287,31.72171 -6.2084,8.83112 -12.72036,17.4691 -20.62018,24.88294 -5.87178,5.63634 -12.26707,10.72265 -18.41681,16.05069 -7.976625,5.86066 -16.919578,11.34634 -26.537148,14.03222 -4.766396,0.55054 -9.383445,0.2384 -13.714354,-2.04901 -4.301556,-2.34647 -8.540825,-4.68956 -11.492978,-8.76506 -4.494872,-5.69875 -8.293878,-11.83969 -10.736955,-18.72257 -3.421738,-9.47256 -7.185233,-18.8732 -8.996164,-28.83054 -2.572122,-11.23277 -4.209054,-22.63741 -6.182164,-33.98547 -1.296329,-10.90879 -2.001041,-21.85688 -3.234471,-32.77313 -0.933624,-9.42251 -0.947872,-18.92181 -2.204613,-28.32187 -0.970652,-9.3462 -0.944037,-18.68728 -0.79294,-28.07921 0.01135,-8.3499 0.08137,-16.70205 -0.133213,-25.05006 -0.29613,-6.85115 -0.721538,-13.8154 -3.264789,-20.26619 -3.018094,-7.04823 -6.3838356,-13.9921 -12.2047558,-19.19697 -7.5217255,-6.52894 -16.1248532,-10.21698 -26.0831062,-11.31387 -13.931789,-1.23088 -27.747079,0.17601 -41.404323,3.16538 -15.842325,3.35427 -31.52654,7.27009 -46.773126,12.81177 -13.36432,5.30119 -26.7149,10.79948 -39.21361,17.95871 1.3296,-0.78621 5.32488,-3.13377 3.98879,-2.35863 -7.71271,4.47456 -15.19681,9.3023 -22.66599,14.16723 0,0 -10.52269,4.11724 -10.52269,4.11724 z" />
    <path
       style="fill:#000000;fill-opacity:1;fill-rule:nonzero;stroke:#000000;stroke-width:4.69999981;stroke-linecap:round;stroke-linejoin:round;stroke-miterlimit:4;stroke-opacity:1;stroke-dasharray:none;stroke-dashoffset:0"
       id="path2789"
       d="m 889.63123,298.851 c 6.73588,4.00053 14.07118,6.79702 20.91661,10.59285 4.85044,2.51101 9.99455,4.37654 15.05393,6.43477 2.71047,0.70486 5.10824,2.24404 7.18588,4.08924 0.51477,0.28996 0.85549,1.54057 0.84661,0.52677 0.14743,-0.004 0.29487,-0.008 0.4423,-0.0126 0,0 -9.24084,6.68326 -9.24084,6.68326 l 0,0 c -0.16085,-0.0109 -0.3217,-0.0218 -0.48255,-0.0327 -0.53697,-0.43502 -0.77094,-0.62217 -1.24357,-1.15117 -2.00796,-1.76204 -4.33674,-3.08033 -6.91739,-3.81348 -5.05858,-2.11471 -10.24178,-3.96028 -15.06442,-6.5805 -6.85743,-3.76229 -14.12904,-6.67401 -20.94357,-10.52068 0,0 9.44701,-6.2158 9.44701,-6.2158 z" />
    <path
       style="fill:#000000;fill-opacity:1;fill-rule:nonzero;stroke:#000000;stroke-width:4.69999981;stroke-linecap:round;stroke-linejoin:round;stroke-miterlimit:4;stroke-opacity:1;stroke-dasharray:none;stroke-dashoffset:0"
       id="path2791"
       d="m 949.35633,310.72028 c 4.42449,4.29477 10.13661,8.18846 13.09324,13.7263 2.52406,7.83205 -9.26509,11.044 -13.8077,13.6393 -4.13995,1.91705 -8.63843,2.5669 -12.93751,4.0086 1.19478,-1.76247 -7.75161,3.25972 -5.41641,1.94469 14.90699,-8.3946 10.06588,-6.27225 7.15031,-3.70504 -1.25212,0.94365 -3.3e-4,1.67097 0.82155,2.55544 1.07182,1.09384 0.5435,0.56345 1.58382,1.59229 0,0 -9.69552,5.94321 -9.69552,5.94321 l 0,0 c -1.04724,-1.05317 -0.51235,-0.51018 -1.60385,-1.62977 -0.98425,-1.05639 -2.89931,-2.71878 -1.62935,-4.11228 4.5983,-5.01986 11.28639,-7.7429 17.72731,-9.52127 4.29385,-1.3495 8.79974,-2.04494 12.81871,-4.17628 -2.63723,1.54366 -5.30363,3.03852 -7.91168,4.63098 -0.45757,0.27938 1.00486,-0.39489 1.45384,-0.68787 1.63121,-1.06446 2.22459,-3.08039 1.61374,-4.86201 -2.75236,-5.44461 -8.48875,-9.25781 -12.84124,-13.32838 0,0 9.58074,-6.01791 9.58074,-6.01791 z" />
    <path
       style="fill:#000000;fill-opacity:1;fill-rule:nonzero;stroke:#000000;stroke-width:4.69999981;stroke-linecap:round;stroke-linejoin:round;stroke-miterlimit:4;stroke-opacity:1;stroke-dasharray:none;stroke-dashoffset:0"
       id="path2793"
       d="m 999.32136,312.18874 c -0.0701,7.98418 -0.0428,15.96887 -0.0308,23.95326 -0.55351,6.3378 -1.70082,12.59553 -2.29778,18.93095 -0.15751,3.90336 -1.05656,7.92056 0.20881,11.7032 1.50509,2.68145 4.45071,4.52103 7.53311,4.27068 -1.9136,2.71338 10.718,-5.02265 7.021,-3.05738 -6.9615,3.7007 -10.3331,5.98049 -5.1786,2.61999 4.6771,-3.15592 9.0108,-6.82884 13.3222,-10.46879 3.1238,-3.19929 5.941,-6.73474 8.5299,-10.38025 2.4489,-3.27658 4.0158,-7.01241 5.8121,-10.64303 4.2786,-9.22507 3.2916,-7.21392 14.9066,-13.17503 2.6374,2.08466 0.7109,6.11893 0.087,8.82981 -0.6418,4.9416 -1.5342,9.80751 -2.5305,14.69185 -1.0238,5.66052 -1.2811,11.38032 -2.3677,17.03006 -0.9634,4.18702 -1.6437,8.41587 -1.9622,12.69855 0.3873,2.93976 0.8717,6.07507 2.779,8.42959 0.2173,0.21108 0.3653,0.53491 0.6518,0.63325 0.5343,0.18336 1.9089,-1.20106 1.4018,-0.95226 -8.1886,4.01745 -10.8863,7.13608 -7.3745,3.40825 0,0 10.4525,-4.3972 10.4525,-4.3972 l 0,0 c -3.4818,4.08738 -10.194,11.2452 -14.893,7.12987 -2.0207,-2.64635 -2.6228,-5.94297 -3.1526,-9.18053 0.3133,-4.3322 0.9051,-8.62208 1.9535,-12.84537 1.1227,-5.65022 1.4334,-11.34978 2.3588,-17.03283 0.9724,-4.89045 1.9926,-9.72644 2.4797,-14.69429 0.3414,-1.5674 2.305,-6.0744 0.9094,-7.05719 13.9772,-8.60201 7.7799,-6.23421 4.6349,1.83803 -2.0092,3.52711 -3.2129,7.52096 -5.7788,10.76475 -2.4772,3.78606 -5.5,7.23004 -8.4328,10.667 -4.2938,3.6877 -8.6798,7.32166 -13.2723,10.61238 -6.7052,4.23948 -13.4998,10.02785 -21.55177,11.17826 -3.49249,-0.3989 -6.57693,-2.29311 -8.28145,-5.4347 -1.36343,-3.95647 -0.63951,-8.0562 -0.35885,-12.16038 0.5688,-6.31884 1.66614,-12.55682 2.3809,-18.85708 0.0119,-7.97391 0.0394,-15.94814 -0.0308,-23.92184 0,0 10.07129,-5.13158 10.07129,-5.13158 z" />
    <path
       style="fill:#000000;fill-opacity:1;fill-rule:nonzero;stroke:#000000;stroke-width:4.69999981;stroke-linecap:round;stroke-linejoin:round;stroke-miterlimit:4;stroke-opacity:1;stroke-dasharray:none;stroke-dashoffset:0"
       id="path2795"
       d="m 505.20574,430.69843 c -3.54792,-4.91373 -5.43857,-10.59923 -3.81866,-16.54979 3.52081,-5.48995 12.007,-13.08464 18.25614,-8.92161 2.16102,1.98546 2.37528,4.98427 2.55398,7.74259 0.20486,3.03347 0.19622,5.94948 -0.69934,8.86419 -2.31347,7.48806 -8.21897,8.93228 -15.16111,12.92841 -2.98312,1.17082 -5.80262,1.00833 -8.37275,-0.9273 -2.62218,-2.4507 -4.314,-5.5315 -4.6763,-9.08999 0.0255,-4.41463 2.55624,-8.13457 4.88514,-11.69492 2.61491,-3.93971 6.2749,-6.4833 10.06957,-9.10908 5.42039,-3.73 13.92523,-11.60095 18.16268,-3.92376 1.68148,4.03021 1.22747,7.95263 0.31732,12.07656 -1.10601,4.10174 -3.80032,6.73554 -7.03578,9.25823 -6.87731,4.80921 -12.28461,7.83337 -20.12002,8.56513 -3.79596,0.48616 -5.72581,-2.19651 -6.73562,-5.45344 -1.15388,-4.04504 0.95263,-7.65394 2.47271,-11.26644 3.43797,-7.02479 10.13406,-11.96202 18.12045,-13.25806 3.88496,0.31476 6.29241,2.27662 7.87194,5.70932 1.01153,2.74062 0.97326,5.13458 -0.19062,7.77908 -10.66153,6.50574 -6.3437,6.67143 -11.35291,6.25712 0,0 9.13579,-6.79328 9.13579,-6.79328 l 0,0 c 3.94098,-1.49736 0.90896,-0.39657 -8.13882,5.23485 1.27217,-2.36525 1.60266,-4.28318 0.65515,-6.89811 -1.33903,-3.03935 -3.56297,-4.62655 -7.00728,-4.43608 -4.43105,1.19057 -3.52248,1.12323 6.13183,-4.4121 1.39639,-0.80063 -2.36641,1.94313 -3.87929,4.29013 -0.37619,0.58361 -0.71552,1.19017 -1.07329,1.78526 -1.35082,3.40498 -3.72313,6.75431 -2.79392,10.569 0.86812,3.05305 2.53267,4.69261 5.89383,4.12601 4.91435,-0.58331 16.77553,-5.97637 0.48394,2.37536 3.27226,-2.25816 6.01083,-4.65694 7.36255,-8.51564 0.88463,-3.87735 1.62458,-7.49136 0.0469,-11.34054 -0.69644,-1.26571 -1.18275,-2.152 -2.79969,-2.1094 -0.51331,0.0135 -1.93466,0.55393 -1.51984,0.25129 2.06757,-1.50845 11.99486,-7.46519 6.5241,-4.04825 -3.58035,2.79904 -7.67957,4.76003 -10.24789,8.75652 -2.27534,3.35052 -4.84198,6.86038 -5.18003,11.01196 0.10154,3.24104 1.78902,6.0434 4.18982,8.19475 2.47547,1.51671 5.10617,1.17969 7.65983,-0.0612 -15.86824,9.46532 -5.56789,4.66774 -3.96316,-0.99762 0.94761,-2.81146 1.13889,-5.50502 0.88049,-8.48603 -0.11946,-2.32785 -0.086,-5.1212 -1.99522,-6.75644 -0.99734,-0.43183 -0.99498,-0.5769 -2.19905,-0.40466 -0.49772,0.0712 -1.87367,0.6722 -1.45677,0.39114 14.96644,-10.09019 7.69261,-5.0805 5.15329,-2.07789 -2.0953,5.49507 -0.0519,10.98896 3.30149,15.56032 0,0 -9.71156,5.80442 -9.71156,5.80442 z" />
    <path
       style="fill:#000000;fill-opacity:1;fill-rule:nonzero;stroke:#000000;stroke-width:4.69999981;stroke-linecap:round;stroke-linejoin:round;stroke-miterlimit:4;stroke-opacity:1;stroke-dasharray:none;stroke-dashoffset:0"
       id="path2818"
       d="m 875.8661,596.99031 c -2.37692,7.01463 -3.63967,14.31456 -4.47197,21.65235 -1.22582,5.74314 -1.92201,11.61306 -3.30309,17.31905 -1.11883,3.41998 -2.09481,6.86741 -2.69019,10.41733 -0.14558,0.88432 -0.24591,1.77467 -0.33214,2.66629 -11.07024,5.24052 -10.16748,7.53004 -10.1519,2.17299 0,0 10.14037,-5.1605 10.14037,-5.1605 l 0,0 c -0.0391,5.65636 0.32881,2.56739 -10.18191,8.14234 0.0161,-0.95033 0.18687,-1.89094 0.3181,-2.83048 0.59304,-3.58941 1.45402,-7.11102 2.70607,-10.53398 1.53471,-5.63113 2.04305,-11.52271 3.42079,-17.20042 0.81193,-7.38893 2.06882,-14.72803 4.30376,-21.83489 0,0 10.24211,-4.81008 10.24211,-4.81008 z"
       transform="translate(-380.52401,12.349621)" />
    <path
       style="fill:#000000;fill-opacity:1;fill-rule:nonzero;stroke:#000000;stroke-width:4.69999981;stroke-linecap:round;stroke-linejoin:round;stroke-miterlimit:4;stroke-opacity:1;stroke-dasharray:none;stroke-dashoffset:0"
       id="path2822"
       d="m 867.78653,698.98667 c -3.69523,-2.33104 -8.18655,-3.62558 -12.54177,-2.40647 -1.16273,0.32547 -4.36527,2.05548 -3.31532,1.45926 2.04663,-1.16219 4.20889,-2.1078 6.31334,-3.16171 -7.48991,6.48347 -11.95814,15.1772 -15.48023,24.26073 -1.85882,5.63859 -5.58781,11.58668 -4.23109,17.71976 2.69135,3.72884 7.7822,1.46139 11.1329,-0.0972 1.01365,-0.53871 4.06804,-2.12881 3.04096,-1.61615 -2.12177,1.05908 -3.99252,2.83078 -6.32555,3.25566 -1.41404,0.25751 2.25948,-1.77842 3.35067,-2.71389 3.83392,-3.28682 7.4072,-6.86932 11.00491,-10.40755 5.16134,-5.31 9.87945,-10.91777 15.88886,-15.30324 12.83448,-7.54138 12.50736,-8.93618 14.4296,2.06468 1.18149,7.67975 2.04479,15.35891 3.82263,22.93694 1.09244,5.36784 2.73693,10.53857 4.94893,15.54071 0,0 -9.85887,5.54386 -9.85887,5.54386 l 0,0 c -2.17814,-5.09362 -3.85902,-10.32516 -4.94997,-15.76708 -1.82703,-7.57643 -2.70334,-15.2646 -3.9248,-22.94703 -0.35184,-1.80693 -0.38963,-4.1751 -1.0991,-5.90977 -0.0948,-0.23186 -0.22477,-0.49431 -0.45155,-0.60075 -0.22887,-0.10743 -0.96887,0.17228 -0.75776,0.0331 2.71877,-1.79195 5.57607,-3.36432 8.36411,-5.04649 -6.17707,4.24629 -10.99319,9.75344 -16.09714,15.19085 -9.10478,9.00338 -18.05936,17.72953 -30.23548,22.73893 -4.21379,1.65159 -9.41602,3.07854 -12.25694,-1.51743 -1.60289,-6.3822 1.96413,-12.52142 4.06028,-18.38756 3.47835,-9.2195 7.89663,-18.02124 15.1935,-24.85201 11.21547,-6.83598 17.53913,-13.40465 29.55561,-6.02808 0,0 -9.58073,6.01791 -9.58073,6.01791 z"
       transform="translate(-380.52401,12.349621)" />
  </g>
</svg>
