<?xml version="1.0" encoding="UTF-8" standalone="no"?>
<!-- Created with Inkscape (http://www.inkscape.org/) -->
<svg
   xmlns:dc="http://purl.org/dc/elements/1.1/"
   xmlns:cc="http://creativecommons.org/ns#"
   xmlns:rdf="http://www.w3.org/1999/02/22-rdf-syntax-ns#"
   xmlns:svg="http://www.w3.org/2000/svg"
   xmlns="http://www.w3.org/2000/svg"
   xmlns:sodipodi="http://sodipodi.sourceforge.net/DTD/sodipodi-0.dtd"
   xmlns:inkscape="http://www.inkscape.org/namespaces/inkscape"
   width="985.79382"
   height="430.44516"
   id="svg2763"
   sodipodi:version="0.32"
   inkscape:version="0.46+devel"
   version="1.0"
   sodipodi:docname="c35d2.svg"
   inkscape:output_extension="org.inkscape.output.svg.inkscape">
  <defs
     id="defs2765">
    <inkscape:perspective
       sodipodi:type="inkscape:persp3d"
       inkscape:vp_x="0 : 526.18109 : 1"
       inkscape:vp_y="0 : 1000 : 0"
       inkscape:vp_z="744.09448 : 526.18109 : 1"
       inkscape:persp3d-origin="372.04724 : 350.78739 : 1"
       id="perspective2771" />
  </defs>
  <sodipodi:namedview
     id="base"
     pagecolor="#ffffff"
     bordercolor="#666666"
     borderopacity="1.0"
     inkscape:pageopacity="0.0"
     inkscape:pageshadow="2"
     inkscape:zoom="0.35"
     inkscape:cx="348.59481"
     inkscape:cy="-11.942553"
     inkscape:document-units="px"
     inkscape:current-layer="layer1"
     showgrid="false"
     inkscape:window-width="1280"
     inkscape:window-height="712"
     inkscape:window-x="-5"
     inkscape:window-y="-3" />
  <metadata
     id="metadata2768">
    <rdf:RDF>
      <cc:Work
         rdf:about="">
        <dc:format>image/svg+xml</dc:format>
        <dc:type
           rdf:resource="http://purl.org/dc/dcmitype/StillImage" />
        <dc:title></dc:title>
      </cc:Work>
    </rdf:RDF>
  </metadata>
  <g
     inkscape:label="Layer 1"
     inkscape:groupmode="layer"
     id="layer1"
     transform="translate(-26.405187,-89.974467)">
    <path
       style="fill:#000000;fill-opacity:1;fill-rule:nonzero;stroke:#000000;stroke-width:4.69999981;stroke-linecap:round;stroke-linejoin:round;stroke-miterlimit:4;stroke-opacity:1;stroke-dasharray:none;stroke-dashoffset:0"
       id="path2773"
       d="m 38.202658,124.56529 c 6.94845,3.691 14.31582,6.27003 21.67621,8.9614 6.452035,2.59022 13.321072,3.3831 20.195176,3.86421 5.807933,1.02091 11.605877,2.05752 17.474992,2.66027 3.717714,0.58904 7.601924,-0.10612 11.236304,0.868 2.35751,0.84062 5.00495,1.21504 7.07366,2.68015 2.18433,1.53927 2.80193,4.16587 3.19613,6.65803 0.36956,2.99295 0.31284,6.01671 0.31844,9.02632 -0.40179,4.55485 0.47746,8.95031 1.19225,13.4181 1.21165,7.04711 1.38986,14.10125 0.69582,21.19741 -0.98137,7.85815 -1.48256,15.75892 -1.76443,23.66922 -0.2296,8.0417 -0.21932,16.08765 -0.23357,24.13186 -0.002,8.82614 0.003,17.65228 -0.002,26.47842 -0.11873,10.70528 0.27831,21.42006 -0.34271,32.11111 -0.6294,10.93655 -1.97059,21.7771 -3.4528,32.62214 -0.74925,7.30504 -1.56511,14.54562 -3.03565,21.7428 -0.90033,4.11562 -1.3585,8.30239 -1.58358,12.50334 -0.13653,3.62186 -0.11,7.24722 -0.106,10.87091 0.012,3.37137 0.0155,6.74274 0.025,10.11412 -0.11358,3.09994 0.28461,6.23714 -0.27592,9.29782 -1.30026,3.00422 -1.5168,5.57842 -1.00994,8.75617 0.25648,2.69302 1.32233,5.48448 0.93499,8.19724 -3.04471,6.38182 -10.980851,7.18655 -17.014409,7.17934 -3.768964,-0.0736 -7.538319,-0.11337 -11.307856,-0.14131 -3.330203,-0.0204 -6.66046,-0.0175 -9.9907,-0.0218 -3.609999,0.94301 -7.212416,1.88976 -10.911646,2.40566 -3.293081,0.45174 -6.623514,0.44685 -9.940329,0.46156 -3.592382,0.98461 -7.165048,1.87115 -10.853397,2.40418 -2.187913,-0.15909 -5.507365,1.38231 -7.319594,-0.13164 -1.223027,-2.48501 -0.928123,-5.47265 -0.998562,-8.17579 0,0 10.044801,-5.14976 10.044801,-5.14976 l 0,0 c 0.05651,2.3595 -0.06953,4.854 0.52994,7.1474 2.231855,0.32098 4.588778,-0.44439 6.812909,-0.49055 3.692922,-0.58725 7.243983,-1.73164 10.94037,-2.26847 3.290518,-0.0421 6.593047,-0.0899 9.852095,-0.59884 3.708357,-0.62252 7.307265,-1.72128 11.023878,-2.27269 3.324668,7.2e-4 6.649366,0.0141 9.973905,0.0437 3.77634,0.0301 7.552484,0.0878 11.328895,0.1035 1.32999,-0.0241 2.66754,-0.0377 3.98164,-0.27519 0.46925,-0.0848 1.78314,-0.59453 1.39477,-0.31785 -2.51833,1.79415 -11.421193,7.3973 -7.85936,4.92736 1.32903,-1.82757 -0.748887,-5.61346 -0.638319,-7.7133 -0.570973,-3.31002 -0.745015,-6.03602 0.790459,-9.15756 0.90852,-2.89026 0.1769,-6.06154 0.4024,-9.05713 0.003,-3.37308 -0.008,-6.74621 -0.0125,-10.11928 -0.0102,-3.64029 -0.0291,-7.28147 0.0758,-10.92071 0.1922,-4.2624 0.65851,-8.51171 1.5544,-12.68814 1.55308,-7.1846 2.43531,-14.40917 3.1708,-21.72129 1.50975,-10.82537 2.90915,-21.63832 3.52267,-32.56165 0.67755,-10.66133 0.22445,-21.35114 0.33223,-32.02935 -0.0124,-8.82154 -0.0225,-17.64309 -0.0282,-26.46463 -0.003,-8.0544 0.005,-16.10975 0.20798,-24.16215 0.2741,-7.92984 0.73795,-15.85402 1.72736,-23.73142 0.7125,-7.00565 0.63374,-13.95317 -0.6024,-20.91619 -0.74265,-4.51087 -1.75021,-8.93909 -1.33912,-13.54705 0.007,-2.95774 0.0396,-5.92621 -0.25271,-8.87278 -0.29925,-2.19629 -0.71128,-4.52542 -2.72236,-5.80635 -2.10996,-1.16734 -4.53257,-1.68504 -6.82596,-2.36982 -3.661116,-0.62856 -7.44744,-0.2217 -11.129837,-0.7904 -5.840239,-0.66965 -11.606348,-1.77374 -17.414794,-2.65691 -6.940774,-0.55506 -13.853932,-1.47648 -20.354066,-4.12922 -7.415603,-2.68672 -14.753925,-5.4678 -21.811026,-9.02673 0,0 9.447011,-6.2158 9.447011,-6.2158 z" />
    <path
       style="fill:#000000;fill-opacity:1;fill-rule:nonzero;stroke:#000000;stroke-width:4.69999981;stroke-linecap:round;stroke-linejoin:round;stroke-miterlimit:4;stroke-opacity:1;stroke-dasharray:none;stroke-dashoffset:0"
       id="path2775"
       d="m 72.697672,143.51062 c -4.209715,7.4496 -8.526197,14.84332 -13.454015,21.84457 -3.46445,5.10092 -7.098148,10.06819 -9.900393,15.57388 0,0 -10.325042,4.66633 -10.325042,4.66633 l 0,0 c 2.802489,-5.59031 6.418381,-10.63195 9.948806,-15.78068 4.962047,-6.90691 9.259331,-14.23635 13.427576,-21.64267 0,0 10.303068,-4.66143 10.303068,-4.66143 z" />
    <path
       style="fill:#000000;fill-opacity:1;fill-rule:nonzero;stroke:#000000;stroke-width:4.69999981;stroke-linecap:round;stroke-linejoin:round;stroke-miterlimit:4;stroke-opacity:1;stroke-dasharray:none;stroke-dashoffset:0"
       id="path2777"
       d="m 98.411958,149.2249 c -3.550088,7.92704 -7.903941,15.45876 -12.054466,23.08085 -3.918405,7.1226 -7.438421,14.44223 -11.40335,21.53852 -0.9934,1.79028 -1.95943,3.59542 -2.919474,5.40371 0,0 -10.354359,4.64876 -10.354359,4.64876 l 0,0 c 0.988898,-1.82421 1.982298,-3.64599 2.993056,-5.45822 3.977734,-7.10861 7.627899,-14.37373 11.472087,-21.55807 4.161505,-7.56674 8.521247,-15.06799 11.963438,-22.99411 0,0 10.303068,-4.66144 10.303068,-4.66144 z" />
    <path
       style="fill:#000000;fill-opacity:1;fill-rule:nonzero;stroke:#000000;stroke-width:4.69999981;stroke-linecap:round;stroke-linejoin:round;stroke-miterlimit:4;stroke-opacity:1;stroke-dasharray:none;stroke-dashoffset:0"
       id="path2779"
       d="m 115.23751,166.43381 c -5.83323,9.25807 -11.60378,18.55629 -17.442951,27.81168 -6.03196,9.39923 -12.970521,18.19493 -19.9033,26.94147 -5.742072,7.25554 -11.155281,14.7496 -16.652475,22.18792 -4.555314,5.4993 -8.751962,11.27443 -13.118439,16.92141 -0.537423,0.6778 -1.074847,1.35559 -1.612271,2.03339 0,0 -10.384348,4.43642 -10.384348,4.43642 l 0,0 c 0.5462,-0.67636 1.0924,-1.35271 1.6386,-2.02906 4.418505,-5.62161 8.548075,-11.46298 13.177168,-16.91828 5.549061,-7.42971 10.937794,-14.97113 16.694248,-22.24658 6.964014,-8.70733 13.887488,-17.50127 19.983228,-26.84254 5.807739,-9.22406 11.635098,-18.43442 17.26855,-27.76649 0,0 10.35199,-4.52934 10.35199,-4.52934 z" />
    <path
       style="fill:#000000;fill-opacity:1;fill-rule:nonzero;stroke:#000000;stroke-width:4.69999981;stroke-linecap:round;stroke-linejoin:round;stroke-miterlimit:4;stroke-opacity:1;stroke-dasharray:none;stroke-dashoffset:0"
       id="path2781"
       d="m 106.98339,209.2249 c -3.4049,7.49098 -7.255934,14.79217 -11.551824,21.81012 -4.120741,6.44602 -7.496881,13.31449 -11.470377,19.84422 -4.234756,7.00542 -7.964086,14.28852 -11.847078,21.48832 -4.190594,7.65684 -8.857428,15.06681 -13.790802,22.26695 -3.582259,5.06277 -7.486897,9.8828 -11.020259,14.9804 -0.269391,0.40076 -0.538781,0.80152 -0.808172,1.20228 0,0 -10.401923,4.5459 -10.401923,4.5459 l 0,0 c 0.275595,-0.4092 0.551189,-0.81839 0.826784,-1.22758 3.553557,-5.1256 7.466867,-9.9681 11.117729,-15.02154 4.985171,-7.14011 9.644047,-14.54002 13.853057,-22.16191 3.920915,-7.18848 7.582285,-14.51635 11.807963,-21.53791 4.041089,-6.49608 7.341854,-13.40633 11.476415,-19.8507 4.344477,-6.92833 8.239188,-14.17921 11.505415,-21.67711 0,0 10.303072,-4.66144 10.303072,-4.66144 z" />
    <path
       style="fill:#000000;fill-opacity:1;fill-rule:nonzero;stroke:#000000;stroke-width:4.69999981;stroke-linecap:round;stroke-linejoin:round;stroke-miterlimit:4;stroke-opacity:1;stroke-dasharray:none;stroke-dashoffset:0"
       id="path2783"
       d="m 118.09466,243.57666 c -5.80482,9.00062 -11.77513,17.89299 -17.44576,26.97933 -7.407232,11.48329 -14.43787,23.21133 -21.534863,34.89115 -6.567684,11.02931 -12.574196,22.37504 -19.154827,33.39701 -4.585364,7.02061 -9.216311,14.06593 -14.605014,20.50509 -2.138681,2.62841 -1.136936,1.36192 -3.014628,3.79203 0,0 -10.395,4.46479 -10.395,4.46479 l 0,0 c 1.893743,-2.47454 0.887018,-1.18372 3.027753,-3.86655 5.584044,-6.28248 10.097044,-13.45327 14.81381,-20.38717 6.650927,-11.00326 12.66011,-22.36873 19.213724,-33.42871 7.080309,-11.67407 14.109562,-23.3877 21.477059,-34.8784 5.615539,-9.07024 11.610476,-17.89445 17.265756,-26.93922 0,0 10.35199,-4.52935 10.35199,-4.52935 z" />
    <path
       style="fill:#000000;fill-opacity:1;fill-rule:nonzero;stroke:#000000;stroke-width:4.69999981;stroke-linecap:round;stroke-linejoin:round;stroke-miterlimit:4;stroke-opacity:1;stroke-dasharray:none;stroke-dashoffset:0"
       id="path2785"
       d="m 112.38037,329.29095 c -4.98326,8.51681 -9.96101,17.03371 -15.09819,25.46063 -5.495411,8.65452 -10.159929,17.8006 -15.268429,26.68678 -5.018491,8.16762 -9.923112,16.41876 -14.340936,24.92916 -3.110212,5.9448 -5.893341,12.07619 -10.02862,17.39778 0,0 -10.400976,4.43928 -10.400976,4.43928 l 0,0 c 4.326211,-5.17642 7.128085,-11.28414 10.225912,-17.23537 4.372593,-8.5535 9.298664,-16.8202 14.347923,-24.98869 5.113959,-8.89661 9.802481,-18.04385 15.27669,-26.72136 5.112733,-8.40206 10.172035,-16.83187 14.934636,-25.43887 0,0 10.35199,-4.52934 10.35199,-4.52934 z" />
    <path
       style="fill:#000000;fill-opacity:1;fill-rule:nonzero;stroke:#000000;stroke-width:4.69999981;stroke-linecap:round;stroke-linejoin:round;stroke-miterlimit:4;stroke-opacity:1;stroke-dasharray:none;stroke-dashoffset:0"
       id="path2787"
       d="m 129.77365,280.06288 c 7.63089,-1.86119 15.32764,-3.42446 23.10582,-4.52008 5.08939,-0.46481 9.96416,-2.06546 14.98423,-2.97842 3.47056,-0.56836 6.98584,-0.63546 10.493,-0.70043 1.89809,-0.0103 3.79625,-0.0165 5.69435,-0.005 -13.40452,8.21563 -7.69425,4.61783 -4.31507,-0.49239 2.26234,-4.13037 4.56994,-8.21508 7.09014,-12.19581 1.93026,-3.18877 3.89704,-6.30005 6.40856,-9.06711 11.02102,-8.99217 12.48841,-7.5581 14.85848,0.5994 1.59099,4.25932 2.07101,8.7617 2.39034,13.26143 -0.13814,4.53726 0.48677,8.83464 1.53102,13.21856 0.80469,2.92527 1.12479,5.94072 1.51141,8.93924 -10.54255,3.82682 -10.54152,7.11948 -9.23312,1.84637 0.60278,-2.42936 1.31644,-4.78281 2.08015,-7.16835 2.02784,-6.01111 5.10627,-11.52796 8.27956,-16.99006 2.34256,-4.32188 5.07889,-8.41063 7.53542,-12.66969 10.61579,-14.52525 12.80935,-1.66007 13.59126,4.76574 0.62754,7.60572 0.63045,15.24566 0.67841,22.872 0.0529,4.72764 -0.0206,9.45672 0.053,14.18412 -8.28855,2.33668 -10.78817,7.49979 -8.94399,2.49337 0.74532,-2.02334 1.01208,-4.25757 1.52649,-6.34589 1.44869,-6.60804 3.01126,-13.19349 4.74867,-19.73302 1.8556,-6.5241 3.95766,-13.0076 6.4492,-19.32073 1.38419,-5.27175 10.40101,-15.86375 15.0899,-9.60198 1.36362,3.87577 0.95042,8.11667 1.41468,12.15858 1.04833,6.21468 1.72798,12.47155 2.19527,18.7535 0.97152,2.55011 -0.79961,8.43537 0.5905,10.59972 0.21472,-4.38899 0.21962,0.26065 -9.1757,4.14426 -0.15217,0.0629 0.35496,-0.0584 0.87131,-3.2217 0.28436,-1.74211 0.34881,-2.95162 0.49805,-4.72739 0.85366,-6.6102 2.65409,-13.06517 4.69615,-19.39677 1.51992,-5.39526 4.03256,-10.35785 7.07814,-15.03108 7.11851,-8.3294 12.60214,-9.84064 14.8736,-1.53145 0.5671,5.19969 1.77039,10.29069 2.60079,15.45226 0.76177,5.30024 1.00547,10.65661 1.12678,16.00426 0.31721,2.51112 0.0268,7.0053 1.97522,8.99572 -7e-4,-0.13717 0.12444,-0.46446 -0.002,-0.41151 -3.21004,1.34327 -6.12845,3.43111 -9.47689,4.37806 -0.56468,0.15969 0.14344,-1.16535 0.18614,-1.75062 0.0586,-0.80303 0.0432,-1.61091 0.11754,-2.41264 0.16682,-1.79813 0.5724,-4.09571 0.85978,-5.86609 0.65215,-7.05692 2.19485,-13.88715 4.32551,-20.62833 1.49255,-4.50552 2.06057,-9.73625 5.50143,-13.26846 8.82415,-5.89538 12.40004,-8.45461 13.48841,0.40616 0.27636,4.05387 0.25918,8.12186 0.25002,12.18325 0.13511,2.20757 -1.01171,5.99988 2.10048,5.9318 3.12472,-0.2811 6.25471,-0.4592 9.3884,-0.60025 3.26262,-0.12351 6.52741,-0.14493 9.79188,-0.16344 3.00024,-0.005 6.00047,-0.004 9.0007,0.004 3.15262,-0.93584 6.27162,-1.92435 9.52975,-2.41618 2.78662,-0.40333 5.60933,-0.42594 8.41937,-0.46573 8.24718,-1.35787 -7.78512,9.36172 -6.90738,3.30152 -0.61038,-3.01654 -1.67858,-5.90365 -2.25563,-8.9373 -0.58464,-3.34797 -0.60353,-6.76227 -0.6383,-10.15101 0.0923,-3.8022 0.0903,-7.48618 -0.75408,-11.20028 -2.41762,-7.21019 0.2107,-12.21545 11.82294,-11.02354 3.25359,0.0236 6.09358,1.05322 9.06686,2.2353 2.85554,1.0385 5.85611,1.31623 8.86556,1.45417 3.18611,0.96972 6.33651,1.99212 9.63508,2.49865 2.87207,0.84387 5.01873,-0.22656 7.71612,-0.99093 2.90798,-1.00236 5.95196,-1.22865 8.99993,-1.36921 3.91031,0.18244 7.62424,-1.10081 11.41519,-1.90563 4.24512,-0.34596 8.24813,-1.74574 12.34061,-2.82852 3.51596,-0.76856 7.12194,-0.95821 10.70935,-1.04846 3.29772,-0.25069 5.58076,-0.33726 7.572,2.52992 2.53364,3.5786 3.13268,7.94368 3.63445,12.18769 0.47747,4.92433 0.50693,9.87292 0.5221,14.81524 0.002,4.5119 -0.003,9.0238 -0.0108,13.5357 -0.005,3.59378 -0.008,7.18762 0.002,10.7814 0.22741,8.39952 -1.26723,6.45681 -11.11503,12.40103 -2.61005,0.60913 -5.34107,0.47455 -8.0055,0.4766 -3.92875,-0.48262 -7.54538,0.51896 -11.33696,1.32736 -4.13507,0.99048 -8.39446,1.216 -12.62754,1.37956 -4.07838,-0.33763 -7.8793,1.06748 -11.80143,1.91651 -3.76408,0.92947 -7.71418,0.4557 -11.44279,1.41923 -3.62625,1.14665 -7.35307,1.74987 -11.11686,2.21245 -3.19994,0.26253 -6.41472,0.26663 -9.62341,0.27015 -2.7451,0.99124 -5.52719,1.79329 -8.37292,2.43309 -2.58871,-0.53256 -2.9236,-2.89967 -3.18566,-5.16192 -0.17907,-2.80354 -0.11572,-5.615 -0.1006,-8.42221 0.0231,-2.87368 0.0384,-5.74747 0.0381,-8.62124 -0.72283,-3.23967 -1.73128,-6.39086 -2.28612,-9.67046 -0.25742,-1.73368 -0.46043,-3.47589 -0.59013,-5.22387 -0.0308,-0.65195 -0.0624,-0.33897 -0.59716,-0.87536 -0.15858,-0.15582 -0.31716,-0.31163 -0.47573,-0.46745 0,0 9.70982,-5.96074 9.70982,-5.96074 l 0,0 c 0.15989,0.15767 0.31979,0.31534 0.47969,0.47301 0.4695,0.46457 1.16646,0.90573 1.02395,1.59715 0.05,1.72236 0.24809,3.43773 0.46996,5.14504 0.52877,3.34488 1.50977,6.56348 2.3855,9.82872 -0.0108,2.87577 -0.0129,5.75155 -0.0355,8.62727 -0.0272,2.76808 -0.072,5.53915 0.0536,8.30542 0.13954,1.55905 0.0332,3.80553 2.15204,3.5385 2.85734,-0.67799 5.60655,-1.75744 8.50686,-2.21678 3.18338,-0.0205 6.37649,-0.0228 9.54376,-0.38324 3.74178,-0.48568 7.40946,-1.26107 11.0445,-2.27642 3.78693,-0.63884 7.68032,-0.49437 11.43325,-1.42956 3.93838,-0.92136 7.8207,-2.01338 11.91659,-1.75104 4.20086,-0.20375 8.40821,-0.51377 12.5053,-1.52914 3.826,-0.84791 7.5606,-1.50892 11.50598,-1.15613 2.55472,-0.0173 5.3192,0.17508 7.67565,-0.96166 -2.9407,1.7926 -5.8814,3.5852 -8.82211,5.37781 0.33191,-0.33555 0.85659,-0.77912 0.97055,-1.27327 0.30664,-1.32957 -0.24143,-2.85654 0.008,-4.19634 0.0113,-3.59826 0.0123,-7.19655 0.0201,-10.79482 0.0106,-4.51417 0.0401,-9.02831 0.0373,-13.5425 -0.0169,-4.90414 -0.0286,-9.81568 -0.46123,-14.70495 -0.45516,-4.05596 -0.95264,-8.26331 -3.42496,-11.65861 -1.68887,-2.36601 -4.30656,-1.63336 -6.93241,-1.60582 -3.54058,0.13709 -7.10023,0.36061 -10.54589,1.24875 -4.09229,1.09261 -8.14079,2.31066 -12.36772,2.77923 -3.8201,0.82274 -7.58443,1.95534 -11.53604,1.77885 -3.00691,0.20617 -5.97865,0.58166 -8.84153,1.58036 -2.74069,0.85896 -5.16706,1.34276 -8.02547,0.57367 -3.24352,-0.60063 -6.3356,-1.71004 -9.55533,-2.39745 -3.09821,-0.19563 -6.17031,-0.60483 -9.0824,-1.74777 -2.8884,-1.1332 -5.74174,-1.905 -8.875,-1.95168 -4.71365,-0.21369 -2.01292,0.1922 6.85781,-5.77991 0.13224,-0.089 -0.26828,0.21065 -0.30942,0.36466 -0.27316,1.02255 0.0767,1.58848 0.34888,2.61272 0.16382,0.61643 0.32033,1.23479 0.4805,1.85219 0.90639,3.79102 1.04466,7.51638 0.87561,11.41561 0.0387,3.32741 0.0374,6.67695 0.56213,9.97145 0.56298,3.15272 1.61882,6.14965 2.43451,9.23855 -0.59377,5.45446 -7.31605,8.8238 -12.4705,8.42651 -2.77298,0.0429 -5.55649,0.12159 -8.29603,0.59325 -3.25104,0.62491 -6.36406,1.78163 -9.63951,2.25732 -3.0028,0.004 -6.00561,-0.002 -9.0084,0.01 -3.25091,0.0136 -6.50243,0.051 -9.75072,0.19115 -3.1824,0.15007 -6.36414,0.50917 -9.54857,0.45479 -3.45639,-0.94026 -2.96559,-4.38073 -2.89706,-7.35044 0.0128,-4.02023 0.0644,-8.04625 -0.19891,-12.06031 -0.85197,-8.01682 -5.83338,-1.99957 7.09084,-9.91044 -4.09559,2.60747 -4.34172,8.52749 -5.85704,12.71218 -2.14805,6.68822 -3.85659,13.43339 -4.38018,20.47184 -0.54389,3.29941 -0.97939,25.21753 -11.60049,16.84963 -1.81653,-2.64949 -2.05224,-6.60002 -2.24261,-9.67683 -0.10402,-5.30419 -0.28867,-10.61909 -1.03347,-15.87878 -0.80745,-5.12536 -2.07563,-10.16082 -2.59379,-15.32646 -0.25264,-0.98923 -0.41078,-2.02554 -0.98371,-2.90305 -0.65432,-1.00215 -1.47138,-0.80168 -1.4588,-0.81054 14.22834,-10.01013 10.8803,-7.2348 7.90513,-4.69739 -3.12986,4.56456 -5.77366,9.41504 -7.26848,14.78286 -2.11089,6.22338 -3.84326,12.62181 -4.7771,19.1324 -0.38137,5.40029 -1.59714,19.52851 -12.16721,14.5461 -1.69564,-3.1347 0.22344,-7.69564 -0.74125,-11.09691 -0.40651,-6.2683 -1.06704,-12.51169 -2.15654,-18.70197 -0.53066,-3.84817 -0.23532,-7.80146 -1.21037,-11.56978 -2.46694,-2.86644 -11.60714,5.9822 8.07592,-5.79937 0.92385,-0.55298 -1.76298,1.36332 -2.23708,2.33001 -0.39161,0.79852 -0.61034,1.67076 -0.9155,2.50614 -2.56937,6.25937 -4.64837,12.73082 -6.54633,19.21862 -1.7878,6.50604 -3.30153,13.09133 -4.69521,19.69119 -2.68259,10.06593 0.61108,7.44871 -12.9165,13.88913 0.11684,-4.74526 0.0471,-9.49419 0.0808,-14.24024 -0.0248,-7.58234 -0.0216,-15.17855 -0.65181,-22.74013 -0.23283,-1.9581 -0.36969,-3.61104 -0.814,-5.52396 -0.1507,-0.64884 -0.34796,-1.28782 -0.57841,-1.9128 -0.18558,-0.50327 -1.07134,-1.11207 -0.66694,-1.46447 2.81817,-2.45576 6.25044,-4.10171 9.38739,-6.13454 0.1964,-0.12727 -0.37648,0.27814 -0.56472,0.4172 -2.49435,4.27234 -5.25637,8.37908 -7.62511,12.71558 -3.19042,5.3821 -6.25985,10.82937 -8.35373,16.74832 -0.24087,0.76057 -7.07878,28.41481 -13.14426,15.42105 -0.30681,-2.9733 -0.61203,-5.95523 -1.38721,-8.85261 -1.06299,-4.44933 -1.80628,-8.78101 -1.59617,-13.39543 -0.29661,-4.41779 -0.72795,-8.84602 -2.29872,-13.02622 -0.34239,-1.11358 -0.54563,-2.26865 -0.92076,-3.37163 -0.12053,-0.3544 -0.27393,-0.70835 -0.50429,-1.00341 -0.21495,-0.27533 -1.07528,-0.45236 -0.80387,-0.67223 5.49607,-4.45239 12.32235,-7.28416 7.8013,-5.36394 -2.63701,2.66221 -4.69293,5.66761 -6.56585,8.90126 -2.55982,3.95085 -4.93585,7.98461 -7.04088,12.19527 -4.19561,6.27789 -6.34024,8.28518 -15.30629,11.73404 -1.87725,-0.0258 -3.75493,-0.0314 -5.63215,1.2e-4 -3.46565,0.0668 -6.93737,0.2073 -10.35587,0.83103 -4.99458,0.94563 -9.87315,2.49938 -14.96063,2.90281 -7.78813,1.13818 -15.4777,2.76494 -23.14223,4.54647 0,0 9.04833,-6.77222 9.04833,-6.77222 z" />
    <path
       style="fill:#000000;fill-opacity:1;fill-rule:nonzero;stroke:#000000;stroke-width:4.69999981;stroke-linecap:round;stroke-linejoin:round;stroke-miterlimit:4;stroke-opacity:1;stroke-dasharray:none;stroke-dashoffset:0"
       id="path2789"
       d="m 449.82176,243.32595 c 5.39416,0.0295 10.78845,0.008 16.18262,-0.008 2.63141,-0.006 5.26283,-0.005 7.89423,-0.014 2.79728,-0.56007 13.4768,-6.63907 -6.37249,3.81389 -0.82866,0.43639 1.40311,-1.24653 2.0312,-1.94125 2.07827,-2.7952 3.47051,-5.99283 5.22232,-8.98647 1.73464,-3.39689 3.50256,-6.82087 6.03839,-9.69737 9.62102,-9.90882 12.51879,-8.40007 12.94001,-0.0365 0.0512,4.19828 -0.0439,8.39688 -0.0915,12.59488 -0.0372,4.07562 -0.0473,8.15153 -0.0403,12.22731 0.0326,1.0161 -0.55204,5.93909 1.61436,4.85719 -14.87477,8.5804 -10.01582,6.51777 -7.29059,2.82878 1.12647,-1.52483 1.9246,-3.21236 2.86244,-4.85536 2.34221,-3.86683 4.28382,-7.94906 6.57301,-11.84465 1.77608,-2.99479 3.43165,-6.03299 5.06121,-9.11089 7.11305,-11.30348 12.38958,-5.41737 13.65457,0.63667 0.51473,3.69673 -0.8951,7.33421 -1.59597,10.93792 -0.50442,2.83312 -0.73536,5.70486 -0.82808,8.5784 -1.11294,-4.41561 0.33785,-0.0976 -9.2021,3.53098 -0.56381,0.21445 0.63604,-1.02519 0.94818,-1.54138 0.99781,-1.65008 1.82074,-3.36686 2.68913,-5.0877 2.14436,-4.61552 3.63427,-9.50284 5.63829,-14.17745 0.86463,-3.53328 12.06414,-20.7242 14.45785,-8.79947 -0.11387,3.63288 0.82789,7.10553 1.53207,10.63569 0.71256,3.28469 0.87582,6.63986 0.98616,9.98722 0.94497,4.2442 6.18292,0.92876 -7.94215,5.6108 -0.57044,0.18909 0.63925,-1.01972 0.91185,-1.5553 0.29326,-0.57621 0.52196,-1.18306 0.78295,-1.77459 2.10428,-4.7226 3.76345,-9.63666 5.43657,-14.52733 2.54148,-6.19576 8.76102,-13.83606 16.1279,-13.67778 3.0583,1.67443 3.61574,4.76672 4.19275,7.94187 0.54401,4.17996 0.53713,8.40926 0.55292,12.61755 0.43121,1.84663 -1.23639,8.11786 1.05866,9.01668 -3.13927,1.43944 -6.15665,3.18176 -9.41783,4.31833 -0.0571,0.0199 0.16764,-0.23109 1.09094,-2.89982 0.86108,-2.4889 1.7142,-4.98009 2.53903,-7.48139 2.02638,-5.91384 4.49665,-11.61141 7.73792,-16.95706 3.46473,-4.87473 11.47491,-13.82513 17.3102,-9.14255 2.30831,3.17214 2.34163,6.77213 1.70856,10.48762 -0.33318,2.02344 -2.07038,4.3853 0.68091,4.7615 3.32067,0.57863 6.46352,-0.91845 9.67915,-1.59081 4.86986,-0.42947 9.53628,-1.88878 14.30693,-2.87448 3.79226,0.10863 7.07663,-3.03707 10.78886,-2.83974 1.18778,0.26043 1.95388,0.93661 2.4938,1.9702 1.10046,4.44518 -7.91148,7.58768 -11.10786,4.79795 0,0 9.66603,-6.01721 9.66603,-6.01721 l 0,0 c 3.52701,3.04732 -5.24958,4.41872 -8.54227,6.76145 -0.38023,-0.60205 -0.90249,-0.80986 -1.6717,-0.77651 -3.60273,0.68636 -6.90304,2.71005 -10.63181,2.93955 -4.7592,1.04411 -9.46965,2.2977 -14.3147,2.89234 -3.31285,0.77725 -6.62046,2.11425 -10.04515,1.16318 -3.12268,-1.24735 -2.39382,-3.49477 -1.48587,-6.23603 0.67528,-3.23527 0.95635,-6.50236 -1.10973,-9.32728 -0.55543,-0.30296 -2.36006,-0.0857 -1.84364,-0.45121 16.36048,-11.57949 7.00713,-4.78012 4.45062,-1.07927 -3.32618,5.24478 -5.85655,10.84401 -7.87533,16.71961 -0.23989,0.75515 -3.08102,10.33206 -3.43054,10.57923 -3.36845,2.38213 -7.09142,4.21848 -10.63714,6.32772 -2.4033,-2.58179 -1.26662,-6.73253 -1.47769,-9.9212 -0.0169,-4.14813 0.0134,-8.31381 -0.48109,-12.43895 -0.37047,-2.20888 -0.55723,-5.85978 -3.27989,-6.4041 -3.16007,1.4689 -8.60598,4.02549 8.12061,-4.94814 0.49221,-0.26407 -0.80635,0.77419 -1.18503,1.1848 -1.58389,1.71742 -2.99331,3.54243 -3.74135,5.79142 -1.68162,4.89763 -3.30536,9.83294 -5.3812,14.57443 -2.11812,5.57909 -12.17282,16.43383 -14.12562,7.64294 -0.0833,-3.29062 -0.22755,-6.59101 -0.88883,-9.82609 -0.69061,-3.53659 -1.77206,-7.00574 -1.55919,-10.64587 -0.77259,-5.12169 -0.68422,-1.70226 9.39981,-7.79306 0.34499,-0.20838 -0.44644,0.67115 -0.66783,1.00794 -1.16669,1.77482 -1.94222,3.6559 -2.89868,5.551 -2.12602,4.63436 -3.55362,9.55632 -5.59437,14.22628 -2.37611,4.58259 -8.48875,18.15562 -14.9345,12.86637 0.25379,-2.91489 0.27222,-5.85428 0.81999,-8.74026 0.6661,-3.48123 2.00557,-7.00017 1.77629,-10.53831 -1.46955,-7.87551 -5.42597,-1.96553 7.21492,-10.71005 0.13241,-0.0916 -0.31778,0.052 -0.47667,0.078 -1.75143,3.03566 -3.24291,6.19973 -5.09469,9.16794 -2.35154,3.86303 -4.2795,7.94491 -6.56686,11.84375 -5.10678,8.09094 -3.16273,7.98936 -15.13945,13.3077 -2.80359,-0.82891 -2.57707,-3.96212 -2.50727,-6.40177 0.0196,-4.08373 0.0344,-8.16746 0.0668,-12.25111 0.0333,-4.17531 0.12726,-8.35055 0.0893,-12.52599 -0.0429,-1.17308 -0.0358,-1.86816 -0.19409,-3.00999 -0.0554,-0.39947 -0.10175,-0.80445 -0.22262,-1.18919 -0.0623,-0.19816 -0.48885,-0.41553 -0.3191,-0.53521 11.14434,-7.85727 11.29011,-8.22488 8.37135,-4.76372 -2.85775,2.47123 -4.49694,6.12834 -6.17121,9.44432 -1.82059,2.99265 -3.22299,6.18577 -5.14827,9.11233 -3.36175,4.90114 -9.41307,8.66669 -15.29881,9.2849 -2.61854,-0.009 -5.23709,-0.008 -7.85564,-0.014 -5.38645,-0.017 -10.77304,-0.0378 -16.15948,-0.008 0,0 9.14454,-6.6439 9.14454,-6.6439 z" />
    <path
       style="fill:#000000;fill-opacity:1;fill-rule:nonzero;stroke:#000000;stroke-width:4.69999981;stroke-linecap:round;stroke-linejoin:round;stroke-miterlimit:4;stroke-opacity:1;stroke-dasharray:none;stroke-dashoffset:0"
       id="path2791"
       d="m 621.87207,195.11787 c -1.56983,9.48424 -3.34625,18.90045 -4.34416,28.47135 -1.68223,9.97383 -2.3904,20.07474 -3.77429,30.08218 -1.17556,6.77834 -2.14522,13.58359 -2.69679,20.44151 -0.14759,2.26822 -0.27832,4.53999 -0.28633,6.81374 -11.19365,9.34225 -10.13101,6.70112 -10.12112,0.84525 0,0 10.12383,-5.15575 10.12383,-5.15575 l 0,0 c -0.007,2.97834 0.32856,21.65011 -10.17264,9.48206 0.0285,-2.31629 0.20555,-4.62856 0.35389,-6.93917 0.54996,-6.89657 1.53657,-13.7417 2.75913,-20.55058 1.47958,-9.98676 2.07343,-20.10265 3.83181,-30.05992 0.95159,-9.56117 2.71138,-18.96169 4.18472,-28.44307 0,0 10.14195,-4.9876 10.14195,-4.9876 z" />
    <path
       style="fill:#000000;fill-opacity:1;fill-rule:nonzero;stroke:#000000;stroke-width:4.69999981;stroke-linecap:round;stroke-linejoin:round;stroke-miterlimit:4;stroke-opacity:1;stroke-dasharray:none;stroke-dashoffset:0"
       id="path2793"
       d="m 635.08982,196.77906 c 7.59392,-2.47594 15.48588,-3.5698 23.41218,-4.2493 7.97955,-0.58779 15.98479,-0.61962 23.98155,-0.65312 6.13142,-0.0143 12.26283,0.0138 18.39425,0.012 3.64304,-0.17987 7.17113,1.02957 10.57319,2.21416 2.26169,0.77278 2.1426,3.57158 2.23564,5.5482 -0.42701,5.24174 -1.59799,10.4142 -2.12769,15.67966 -0.76042,9.64101 -2.18416,19.20289 -2.91975,28.85044 -0.25667,9.88227 -0.97228,19.68923 -2.06931,29.50986 -0.6895,6.09065 -1.17138,12.20255 -1.42728,18.32636 -0.1796,6.18426 0.53153,3.96347 -10.94755,7.95821 -0.51719,0.17999 -0.94128,-0.55993 -1.41196,-0.83984 -0.48005,-0.28549 -0.96016,-0.57089 -1.44024,-0.85633 -4.58357,-2.21678 -9.85469,-2.22193 -14.84337,-2.45426 -8.67912,0.53587 -17.25274,2.35582 -25.71685,4.29099 -8.71774,2.24865 -17.35853,4.56459 -26.2748,5.90002 -3.39904,0.4733 -6.49516,-0.33787 -9.6863,-1.33426 0,0 9.32287,-6.3689 9.32287,-6.3689 l 0,0 c 3.09184,0.87748 6.08362,1.50471 9.33412,0.9746 8.87954,-1.3946 17.4865,-3.78989 26.20144,-5.94092 8.54459,-1.88355 17.18366,-3.80553 25.95451,-4.09014 5.15395,0.26679 10.57161,0.36586 15.22659,2.85664 0.47888,0.28245 0.95541,0.56893 1.43665,0.84736 0.47018,0.27204 1.81074,0.42922 1.4175,0.80399 -10.2602,9.77821 -8.86458,8.7771 -8.69471,3.35009 0.32616,-6.16555 0.80913,-12.3216 1.52158,-18.45558 1.12257,-9.81252 1.92388,-19.60473 2.11862,-29.48647 0.69818,-9.64659 2.12635,-19.2016 2.84764,-28.83932 0.45882,-5.20798 1.43546,-10.34535 2.07828,-15.48525 -0.0518,-1.60163 0.34995,-3.82792 -1.55435,-4.3714 -3.31976,-1.14746 -6.73731,-2.17355 -10.29283,-1.95135 -6.11515,-0.0269 -12.2304,-0.0396 -18.34561,-0.039 -7.96811,0.0288 -15.94531,0.0767 -23.89333,0.70855 -7.91517,0.75419 -15.79622,1.92593 -23.3463,4.52643 0,0 8.93562,-6.94205 8.93562,-6.94205 z" />
    <path
       style="fill:#000000;fill-opacity:1;fill-rule:nonzero;stroke:#000000;stroke-width:4.69999981;stroke-linecap:round;stroke-linejoin:round;stroke-miterlimit:4;stroke-opacity:1;stroke-dasharray:none;stroke-dashoffset:0"
       id="path2795"
       d="m 721.25033,237.61166 c 7.13126,0.0497 14.26272,0.0188 21.39405,0.007 3.26868,0.001 6.53738,-0.0284 9.80605,-0.0267 3.76889,0.0383 10.83649,-4.39946 -6.20635,4.28284 -0.45992,0.23431 0.84091,-0.60163 1.22957,-0.94129 1.0587,-0.92526 1.56963,-1.62768 2.49741,-2.72788 2.84295,-3.21987 4.99722,-6.92596 7.36315,-10.48806 2.94928,-4.54702 11.03687,-15.80669 16.81844,-8.84248 2.12361,4.08233 2.18495,8.84998 3.09588,13.30512 1.04207,4.92794 1.59039,9.92938 1.91477,14.94893 0.21841,0.9879 -0.0117,2.02208 0.15301,3.01469 0.0453,0.27288 0.11812,0.55906 0.28575,0.7791 0.0631,0.0828 0.40671,-0.0378 0.31222,0.006 -9.8868,4.56838 -11.00901,6.96418 -8.4005,2.74366 1.95453,-3.7608 3.42466,-7.76373 5.14864,-11.63773 1.73043,-3.52552 2.42333,-7.5109 4.7765,-10.71101 3.60252,-1.65308 7.04595,-3.70975 10.80754,-4.95922 1.18831,-0.39471 3.30441,6.69112 3.51275,7.68002 1.44415,3.96959 2.08968,8.16693 3.34413,12.18187 2.99952,5.43577 8.35753,0.5766 -6.346,7.33018 -0.36042,0.16554 0.55834,-0.57228 0.76747,-0.90928 0.332,-0.535 0.56341,-1.12621 0.84511,-1.68931 2.52021,-5.54824 4.16539,-11.4117 6.00302,-17.20751 2.96594,-10.79763 5.75657,-10.52106 16.39462,-16.05776 2.62873,1.72649 3.0809,6.22587 3.78098,9.11933 1.03807,4.92711 1.33965,9.96634 1.56557,14.98424 0.19864,4.80754 1.23104,1.96654 -9.05958,5.98323 -1.03412,0.40365 0.99293,-1.98673 1.44192,-3.00199 1.78134,-4.74302 3.11713,-9.64695 5.01516,-14.34882 3.06015,-5.00626 11.13148,-13.2628 16.6932,-8.44279 2.6225,3.76371 2.69836,8.57672 2.96289,12.99951 0.78329,4.47455 1.60217,8.95396 2.50327,13.40885 0.24536,0.61577 0.871,0.7868 -9.07239,3.98774 -0.51412,0.1655 0.47542,-0.97115 0.67448,-1.47323 0.4607,-1.16206 0.82761,-2.35934 1.26485,-3.53043 1.33139,-3.35556 2.42917,-6.87995 5.28017,-9.25618 10.39343,-5.74456 11.47871,-8.75084 15.23494,0.69292 0.9228,3.81296 1.79556,7.66873 3.37554,11.27796 0.26801,0.36948 0.46243,0.80571 0.80403,1.10846 0.4564,0.4045 1.00618,0.0163 1.41686,-0.14255 -2.97582,1.60577 -5.87973,3.35263 -8.92747,4.8173 -0.40202,0.1932 0.67504,-0.59838 0.92178,-0.96994 0.31229,-0.47026 0.49027,-1.017 0.7354,-1.5255 1.83324,-3.80497 3.67863,-7.62141 5.84018,-11.25136 3.07652,-5.03334 8.50856,-12.88245 15.26559,-11.64629 0.13712,-0.11211 0.24484,-0.39665 0.41137,-0.33632 1.06651,0.38636 3.06463,2.69984 4.95369,3.47663 2.99881,0.88413 6.12705,1.02266 9.23034,1.11829 2.93226,0.0507 5.86528,0.0313 8.79779,0.0155 1.24153,-0.008 2.48304,-0.0193 3.72447,-0.0372 -10.17728,4.8017 -8.74641,8.09292 -10.17337,3.52388 0,0 9.95588,-5.47545 9.95588,-5.47545 l 0,0 c 1.72334,5.08105 0.79943,1.01566 -9.01583,8.66858 -1.22538,-0.004 -2.45077,-0.003 -3.67616,-0.001 -2.94056,0.006 -5.88197,0.0332 -8.82164,-0.0577 -3.20471,-0.14933 -6.44602,-0.35764 -9.48598,-1.47663 -1.71681,-0.84756 -3.21264,-2.71197 -5.08999,-2.68255 -3.62473,1.40865 -2.984,1.19421 8.36088,-5.16324 0.37735,-0.21147 -0.65963,0.56799 -0.92747,0.90765 -1.14145,1.44754 -2.21833,3.00811 -3.1486,4.60344 -2.33168,3.46567 -3.9405,7.38553 -5.90837,11.06479 -1.97351,5.67195 -11.15072,13.40326 -15.10932,7.016 -1.60294,-3.61111 -2.55681,-7.46843 -3.41349,-11.31038 -3.13813,-8.11269 -7.78703,-2.62998 5.23402,-10.38218 -3.23294,1.91048 -4.24278,5.31077 -5.57428,8.65763 -1.48118,3.71814 -8.06045,21.05539 -13.1562,11.12745 -0.8207,-4.52853 -1.66196,-9.04993 -2.51332,-13.57179 -0.22671,-4.06348 -0.17797,-8.6452 -2.54906,-12.12703 -3.90013,-2.6153 -7.44672,2.78744 7.10288,-6.09879 1.54575,-0.94407 -5.73235,3.73504 -3.92129,3.76154 -2.02416,4.64876 -3.32267,9.57026 -4.97785,14.35298 -0.25476,0.58324 -0.53052,1.15775 -0.76428,1.74972 -0.19583,0.49593 -0.0892,1.20226 -0.52352,1.5115 -6.33898,4.51279 -11.39296,10.54276 -11.459,3.65756 -0.16825,-4.9539 -0.43882,-9.92941 -1.44508,-14.79551 -0.47324,-1.96725 -0.98809,-6.91329 -2.95519,-7.68412 19.41518,-11.73444 8.39803,-5.96012 6.267,-3.27449 -1.78693,2.25197 -2.56553,5.02835 -3.36747,7.7312 -1.83052,5.82071 -3.4833,11.69487 -5.86281,17.31718 -0.26427,0.57817 -0.5497,1.14712 -0.79281,1.7345 -0.19587,0.47322 -0.0912,1.16942 -0.52306,1.4447 -8.0008,5.09958 -10.37744,8.96977 -14.18737,2.2266 -1.32004,-4.03426 -1.86334,-8.30391 -3.40819,-12.2866 -1.9584,-9.92065 -7.47003,-4.05164 6.15668,-12.45696 -3.01676,2.54645 -3.17082,7.08976 -4.98333,10.4054 -1.80586,3.86735 -3.27617,7.88669 -5.04965,11.76274 -4.23078,6.5286 -13.61049,12.95045 -12.78675,3.22698 -0.26962,-4.97537 -0.7812,-9.93665 -1.81092,-14.81904 -0.89221,-4.26995 -1.01144,-8.81922 -2.86569,-12.78791 -3.30185,-3.82452 -1.62928,-1.10956 7.66256,-7.45759 0.35042,-0.2394 -0.5719,0.62774 -0.8408,0.95608 -1.29889,1.58596 -2.19977,3.41096 -3.54501,4.96313 -2.41274,3.55675 -4.49485,7.3292 -7.32285,10.58702 -4.12623,5.20229 -10.15163,10.6386 -17.13632,10.5073 -3.24413,0.002 -6.48829,-0.0278 -9.73243,-0.0267 -7.1373,-0.0123 -14.27472,-0.0431 -21.41195,0.007 0,0 9.14454,-6.6439 9.14454,-6.6439 z" />
    <path
       style="fill:#000000;fill-opacity:1;fill-rule:nonzero;stroke:#000000;stroke-width:4.69999981;stroke-linecap:round;stroke-linejoin:round;stroke-miterlimit:4;stroke-opacity:1;stroke-dasharray:none;stroke-dashoffset:0"
       id="path2797"
       d="m 913.60708,95.04588 c -0.0679,8.83259 -0.059,17.66569 -0.0518,26.4985 10e-4,10.58021 -0.0253,21.16039 -0.0308,31.7406 0.12217,12.56363 -1.20934,25.08799 -2.85752,37.52537 -1.51494,11.67484 -3.39495,23.307 -5.49575,34.89127 -1.97721,10.11347 -3.44536,20.31701 -5.25762,30.45707 -1.75516,8.46694 -2.66664,17.05547 -3.17746,25.6763 -0.29814,6.27614 -0.32953,12.56122 -0.30998,18.84318 0.0162,4.14767 0.32813,8.23588 -0.70233,12.27929 -1.00348,3.37774 -1.60594,6.83087 -1.89967,10.3361 0.003,1.80765 -0.41252,4.03206 -0.0471,5.66277 2.45995,0.0679 3.34244,0.83467 4.3476,3.1491 1.01645,3.19444 1.37366,6.61367 0.92789,9.93197 -0.92024,3.5567 -1.738,7.12611 -2.2029,10.77208 -0.3969,2.91105 -2.74889,6.14444 -1.21085,9.0136 1.9838,2.27316 4.51434,3.14444 7.38405,3.70547 5.36561,0.93218 10.66924,0.5863 16.01489,-0.1782 7.37022,-0.77783 14.56459,-2.52774 21.89401,-3.59108 6.0889,-0.59114 11.96556,-2.3526 17.97746,-3.42551 3.99071,-0.69703 7.78378,-0.90688 11.67878,0.18527 1.78065,0.5582 3.56139,1.14362 5.26285,1.91595 0,0 -9.50359,6.31492 -9.50359,6.31492 l 0,0 c -1.65449,-0.71902 -3.36266,-1.31167 -5.09786,-1.80384 -3.77734,-0.91118 -7.56155,-0.43594 -11.36864,0.1968 -5.98452,1.092 -11.85771,2.79128 -17.93261,3.34821 -7.32651,1.1161 -14.54613,2.82234 -21.9249,3.5989 -5.43806,0.71886 -10.87748,0.92793 -16.30378,-0.10212 -3.10494,-0.74158 -5.91703,-1.92672 -7.94468,-4.51412 -1.71476,-3.22786 -0.0434,-6.40307 0.91207,-9.63627 0.4034,-3.66975 1.17035,-7.27711 2.17626,-10.82943 0.6818,-3.06655 0.18775,-6.33805 -0.6409,-9.34556 -0.94009,-2.28105 -2.32477,-1.71386 -4.21321,-2.82653 -1.24818,-1.76146 -0.14125,-4.42769 -0.32044,-6.47289 0.23495,-3.57003 0.79062,-7.08838 1.80409,-10.52781 1.13093,-3.96126 0.94707,-7.92009 0.86677,-12.0282 0.0234,-6.3123 0.0472,-12.62586 0.34023,-18.93297 0.51576,-8.66686 1.39468,-17.30903 3.16332,-25.82142 1.89759,-10.12931 3.26561,-20.36355 5.29184,-30.47396 2.14084,-11.56955 4.01816,-23.1948 5.55297,-34.85919 1.66464,-12.3905 3.04502,-24.8656 2.91055,-37.38709 -0.005,-10.56976 -0.0322,-21.13948 -0.0308,-31.70924 0.007,-8.81522 0.0163,-17.63072 -0.0518,-26.44571 0,0 10.0713,-5.13158 10.0713,-5.13158 z" />
    <path
       style="fill:#000000;fill-opacity:1;fill-rule:nonzero;stroke:#000000;stroke-width:4.69999981;stroke-linecap:round;stroke-linejoin:round;stroke-miterlimit:4;stroke-opacity:1;stroke-dasharray:none;stroke-dashoffset:0"
       id="path2799"
       d="m 915.5822,98.019003 c 8.76218,1.067613 17.54239,1.572575 26.25003,3.043087 6.99923,1.19573 14.06964,1.43468 20.9939,3.01973 4.3548,1.04249 8.789,1.675 13.25347,1.96827 3.71817,0.88046 6.81266,3.13291 10.39363,4.37425 3.10917,0.64768 5.95652,1.69092 8.87438,2.91531 2.93396,0.9824 6.04439,1.18815 9.11209,1.35761 2.8996,0.0151 13.8293,-6.5037 -7.43682,4.49251 -0.0919,0.0475 0.61792,-0.5765 0.87563,-1.83966 0,0 10.21679,-5.02915 10.21679,-5.02915 l 0,0 c -0.4821,5.64581 -7.3855,9.38586 -12.89012,8.99406 -3.15223,-0.2373 -6.34595,-0.52617 -9.3213,-1.67225 -2.88202,-1.2128 -5.80636,-2.05524 -8.81728,-2.88728 -3.44571,-1.31294 -6.5332,-3.49659 -10.22434,-4.1122 -4.48474,-0.3695 -8.93064,-1.08155 -13.30801,-2.13396 -6.89559,-1.52732 -13.95695,-1.74312 -20.90515,-3.00575 -8.72117,-1.4532 -17.52697,-1.94071 -26.30375,-2.97183 0,0 9.23685,-6.512747 9.23685,-6.512747 z" />
    <path
       style="fill:#000000;fill-opacity:1;fill-rule:nonzero;stroke:#000000;stroke-width:4.69999981;stroke-linecap:round;stroke-linejoin:round;stroke-miterlimit:4;stroke-opacity:1;stroke-dasharray:none;stroke-dashoffset:0"
       id="path2801"
       d="m 949.52323,109.29095 c -5.6614,7.39511 -10.50722,15.34092 -15.69006,23.0651 -3.38005,5.75034 -7.57109,10.93402 -11.48951,16.3078 -0.75997,1.05159 -1.48986,2.12413 -2.21067,3.20271 0,0 -10.42733,4.56174 -10.42733,4.56174 l 0,0 c 0.7351,-1.1031 1.48194,-2.1983 2.25793,-3.27325 3.92496,-5.40947 8.25931,-10.52385 11.62824,-16.32489 5.20309,-7.66771 9.94668,-15.63736 15.57941,-23.00987 0,0 10.35199,-4.52934 10.35199,-4.52934 z" />
    <path
       style="fill:#000000;fill-opacity:1;fill-rule:nonzero;stroke:#000000;stroke-width:4.69999981;stroke-linecap:round;stroke-linejoin:round;stroke-miterlimit:4;stroke-opacity:1;stroke-dasharray:none;stroke-dashoffset:0"
       id="path2803"
       d="m 989.52323,112.14809 c -4.37012,7.49961 -9.38862,14.58036 -14.24399,21.76629 -5.24709,6.59113 -9.42509,13.87958 -13.77941,21.06502 -5.16066,8.52844 -10.21511,17.11079 -15.08666,25.80666 -3.38028,5.81795 -5.97385,12.03385 -9.02669,18.01302 -0.94926,1.75817 -1.9939,3.46319 -3.12665,5.10864 0,0 -10.46371,4.5238 -10.46371,4.5238 l 0,0 c 1.22343,-1.57408 2.27845,-3.27091 3.27793,-4.99381 3.22953,-5.92563 5.68413,-12.27051 9.13113,-18.09286 4.90069,-8.68306 9.90273,-17.29851 15.0572,-25.83519 4.37848,-7.17879 8.41085,-14.57356 13.74707,-21.11128 4.85985,-7.14749 9.93271,-14.17075 14.16179,-21.72094 0,0 10.35199,-4.52935 10.35199,-4.52935 z" />
    <path
       style="fill:#000000;fill-opacity:1;fill-rule:nonzero;stroke:#000000;stroke-width:4.69999981;stroke-linecap:round;stroke-linejoin:round;stroke-miterlimit:4;stroke-opacity:1;stroke-dasharray:none;stroke-dashoffset:0"
       id="path2805"
       d="m 998.41196,132.08205 c -4.86118,9.89799 -11.22156,18.94714 -16.96308,28.3403 -6.53889,11.46007 -13.38218,22.74003 -20.34735,33.94603 -6.48886,10.22787 -12.30054,20.85787 -18.34485,31.34878 -5.20318,9.44515 -11.07694,18.4925 -16.34688,27.89735 -4.21922,7.14228 -8.5298,14.22624 -12.69784,21.39965 -5.11637,9.40552 -5.34212,8.32924 -16.76463,13.91796 0,0 9.23013,-6.63865 9.23013,-6.63865 l 0,0 c -19.42162,12.18314 -8.69523,6.315 -6.65087,3.71944 1.54376,-1.95997 2.43001,-4.43416 3.9152,-6.43244 4.20837,-7.16581 8.46292,-14.29859 12.76812,-21.4065 5.24095,-9.44172 11.18202,-18.4664 16.38555,-27.93185 6.05541,-10.50218 11.87592,-21.14449 18.35499,-31.39592 7.00568,-11.17929 13.84206,-22.46405 20.35583,-33.93676 5.67421,-9.34269 12.03418,-18.31189 16.80261,-28.16596 0,0 10.30307,-4.66143 10.30307,-4.66143 z" />
    <path
       style="fill:#000000;fill-opacity:1;fill-rule:nonzero;stroke:#000000;stroke-width:4.69999981;stroke-linecap:round;stroke-linejoin:round;stroke-miterlimit:4;stroke-opacity:1;stroke-dasharray:none;stroke-dashoffset:0"
       id="path2807"
       d="m 967.29467,232.00773 c -2.79719,7.45659 -5.76335,14.81323 -8.86495,22.14563 -3.71139,8.74109 -6.97822,17.62643 -11.0608,26.21114 -5.258,10.47965 -10.47438,20.9861 -16.02491,31.31465 -4.62702,8.51333 -9.75971,16.73802 -14.23586,25.33388 -1.54983,2.86824 -2.77386,5.91575 -3.43368,9.11266 0,0 -10.24752,4.97826 -10.24752,4.97826 l 0,0 c 0.59646,-3.3207 1.82023,-6.51523 3.42826,-9.4735 4.50848,-8.62275 9.65924,-16.87643 14.34551,-25.40105 5.59014,-10.28308 10.74178,-20.7993 16.01294,-31.24824 4.10308,-8.55284 7.37663,-17.40015 11.03467,-26.13823 3.02313,-7.31473 6.12889,-14.56729 8.80423,-22.02513 0,0 10.24211,-4.81007 10.24211,-4.81007 z" />
    <path
       style="fill:#000000;fill-opacity:1;fill-rule:nonzero;stroke:#000000;stroke-width:4.69999981;stroke-linecap:round;stroke-linejoin:round;stroke-miterlimit:4;stroke-opacity:1;stroke-dasharray:none;stroke-dashoffset:0"
       id="path2809"
       d="m 964.12624,323.51062 c -4.22014,8.73203 -8.10867,17.56355 -13.13496,25.8762 -0.77051,1.18945 -1.54103,2.37891 -2.31155,3.56837 0,0 -10.26264,4.49934 -10.26264,4.49934 l 0,0 c 0.78614,-1.18357 1.57228,-2.36714 2.35841,-3.55071 5.09147,-8.21782 9.02783,-16.95713 13.04768,-25.73177 0,0 10.30306,-4.66143 10.30306,-4.66143 z" />
    <path
       style="fill:#000000;fill-opacity:1;fill-rule:nonzero;stroke:#000000;stroke-width:4.69999981;stroke-linecap:round;stroke-linejoin:round;stroke-miterlimit:4;stroke-opacity:1;stroke-dasharray:none;stroke-dashoffset:0"
       id="path2811"
       d="m 242.78218,131.68339 c 2.5497,9.11332 3.63062,18.53858 4.3873,27.94411 0.43617,6.20755 0.61945,12.4284 0.7383,18.64878 0,0 -10.0537,5.13902 -10.0537,5.13902 l 0,0 c -0.0423,-6.21665 -0.18033,-12.43464 -0.59506,-18.63909 -0.72533,-9.30377 -1.71194,-18.65665 -4.38843,-27.63407 0,0 9.91159,-5.45875 9.91159,-5.45875 z" />
    <path
       style="fill:#000000;fill-opacity:1;fill-rule:nonzero;stroke:#000000;stroke-width:4.69999981;stroke-linecap:round;stroke-linejoin:round;stroke-miterlimit:4;stroke-opacity:1;stroke-dasharray:none;stroke-dashoffset:0"
       id="path2813"
       d="m 281.2691,137.79633 c -2.89546,6.32563 -6.82768,12.00818 -11.15441,17.41285 -1.64642,2.37244 -3.74369,4.32309 -6.1146,5.94353 0,0 -10.60611,4.11861 -10.60611,4.11861 l 0,0 c 2.47829,-1.43707 4.72183,-3.24498 6.35275,-5.63263 4.28905,-5.36358 8.46593,-10.81517 11.2193,-17.18092 0,0 10.30307,-4.66144 10.30307,-4.66144 z" />
    <path
       style="fill:#000000;fill-opacity:1;fill-rule:nonzero;stroke:#000000;stroke-width:4.69999981;stroke-linecap:round;stroke-linejoin:round;stroke-miterlimit:4;stroke-opacity:1;stroke-dasharray:none;stroke-dashoffset:0"
       id="path2815"
       d="m 269.35633,159.29171 c 4.48079,4.32378 9.41664,8.25295 13.11676,13.30694 1.46055,2.15994 2.54058,4.48303 1.89313,7.08551 0,0 -10.31636,4.80147 -10.31636,4.80147 l 0,0 c 1.16723,-2.15166 -0.11775,-4.22299 -1.31069,-6.12723 -3.62977,-4.98502 -8.44286,-8.90892 -12.96358,-13.04878 0,0 9.58074,-6.01791 9.58074,-6.01791 z" />
    <path
       style="fill:#000000;fill-opacity:1;fill-rule:nonzero;stroke:#000000;stroke-width:4.69999981;stroke-linecap:round;stroke-linejoin:round;stroke-miterlimit:4;stroke-opacity:1;stroke-dasharray:none;stroke-dashoffset:0"
       id="path2817"
       d="m 510.74993,115.04588 c -0.0915,9.88875 -0.0672,19.77822 -0.0663,29.6673 0.19336,7.87836 0.0229,15.81169 -1.94199,23.47884 -0.53838,1.87398 -1.30481,3.66109 -2.11516,5.4285 0,0 -10.33793,4.69367 -10.33793,4.69367 l 0,0 c 0.87027,-1.70815 1.68699,-3.44163 2.27271,-5.27333 2.20444,-7.54205 2.32258,-15.45853 2.18358,-23.26362 9.7e-4,-9.86657 0.0255,-19.73354 -0.0663,-29.59978 0,0 10.07129,-5.13158 10.07129,-5.13158 z" />
    <path
       style="fill:#000000;fill-opacity:1;fill-rule:nonzero;stroke:#000000;stroke-width:4.69999981;stroke-linecap:round;stroke-linejoin:round;stroke-miterlimit:4;stroke-opacity:1;stroke-dasharray:none;stroke-dashoffset:0"
       id="path2819"
       d="m 540.9779,134.70561 c -3.8175,4.87942 -8.2858,9.24544 -13.32546,12.84531 -3.98429,2.78862 -8.76791,4.3632 -12.56868,7.39294 -2.90092,2.31243 6.43246,-3.70495 9.74172,-5.38167 0.26074,-0.13211 0.55381,0.23693 0.84603,0.23056 0,0 -9.43076,6.40019 -9.43076,6.40019 l 0,0 c -0.0633,-0.0354 -1.64793,-0.82804 -1.3585,-1.10544 7.25912,-6.95749 15.98386,-11.22349 0.58787,-2.38695 -0.56417,0.32381 1.11165,-0.67587 1.66747,-1.01381 5.10656,-3.43009 9.65516,-7.67486 13.43612,-12.53606 0,0 10.40419,-4.44507 10.40419,-4.44507 z" />
    <path
       style="fill:#000000;fill-opacity:1;fill-rule:nonzero;stroke:#000000;stroke-width:4.69999981;stroke-linecap:round;stroke-linejoin:round;stroke-miterlimit:4;stroke-opacity:1;stroke-dasharray:none;stroke-dashoffset:0"
       id="path2821"
       d="m 540.7849,147.86314 c 4.50929,3.98457 8.35861,8.49705 11.09471,13.85843 1.27308,2.88683 1.68076,5.98825 1.84651,9.10661 0,0 -10.11966,5.20458 -10.11966,5.20458 l 0,0 c -0.066,-2.97466 -0.3918,-5.94017 -1.55768,-8.7109 -2.59982,-5.25498 -6.36446,-9.65903 -10.84461,-13.44081 0,0 9.58073,-6.01791 9.58073,-6.01791 z" />
    <path
       style="fill:#000000;fill-opacity:1;fill-rule:nonzero;stroke:#000000;stroke-width:4.69999981;stroke-linecap:round;stroke-linejoin:round;stroke-miterlimit:4;stroke-opacity:1;stroke-dasharray:none;stroke-dashoffset:0"
       id="path2823"
       d="m 785.33993,120.68927 c 0.79854,8.74773 2.64903,17.33865 3.86707,26.02794 0.98923,7.37071 1.33592,14.80085 1.50068,22.22868 0.0439,2.16163 0.0703,4.32353 0.0939,6.48546 0,0 -10.1059,5.15233 -10.1059,5.15233 l 0,0 c 0.0129,-2.16821 0.0188,-4.33651 -0.0126,-6.50464 -0.13247,-7.39712 -0.42309,-14.79942 -1.3766,-22.14366 -1.19781,-8.67976 -3.01844,-17.25718 -3.96285,-25.97274 0,0 9.99634,-5.27337 9.99634,-5.27337 z" />
    <path
       style="fill:#000000;fill-opacity:1;fill-rule:nonzero;stroke:#000000;stroke-width:4.69999981;stroke-linecap:round;stroke-linejoin:round;stroke-miterlimit:4;stroke-opacity:1;stroke-dasharray:none;stroke-dashoffset:0"
       id="path2825"
       d="m 820.9779,134.70561 c -4.49404,5.43225 -9.64747,10.14607 -14.93184,14.77589 -3.36799,3.06717 -7.28068,5.58021 -10.36484,8.94585 -0.73873,0.83828 -1.35821,1.76386 -1.92508,2.72261 0,0 -10.38043,4.74631 -10.38043,4.74631 l 0,0 c 0.40302,-1.12996 1.14854,-2.09865 1.85243,-3.0548 2.95527,-3.56166 6.93204,-6.07086 10.39044,-9.1151 5.20543,-4.65166 10.52056,-9.13218 14.95513,-14.57569 0,0 10.40419,-4.44507 10.40419,-4.44507 z" />
    <path
       style="fill:#000000;fill-opacity:1;fill-rule:nonzero;stroke:#000000;stroke-width:4.69999981;stroke-linecap:round;stroke-linejoin:round;stroke-miterlimit:4;stroke-opacity:1;stroke-dasharray:none;stroke-dashoffset:0"
       id="path2827"
       d="m 817.65141,151.16879 c 4.11665,4.73302 7.77615,9.80306 11.15244,15.08271 0.99372,2.06626 0.56503,1.06519 1.3107,2.99253 0,0 -9.92534,5.51415 -9.92534,5.51415 l 0,0 c -0.65761,-1.81592 -0.27503,-0.87676 -1.17166,-2.80762 -3.27108,-5.29964 -6.88618,-10.35709 -11.0777,-14.97735 0,0 9.71156,-5.80442 9.71156,-5.80442 z" />
    <path
       style="fill:#000000;fill-opacity:1;fill-rule:nonzero;stroke:#000000;stroke-width:4.69999981;stroke-linecap:round;stroke-linejoin:round;stroke-miterlimit:4;stroke-opacity:1;stroke-dasharray:none;stroke-dashoffset:0"
       id="path2829"
       d="m 642.48279,100.68927 c 0.76263,7.05752 2.11838,14.08197 1.44377,21.18925 1.54467,4.79798 -12.44386,13.12897 -9.40885,5.62663 1.66629,-4.85706 3.98881,-9.4119 6.5862,-13.82672 4.77698,-8.44347 8.55723,-9.52399 17.76846,-14.659574 3.24803,1.485224 4.39077,4.986734 5.27715,8.178184 0.78168,3.68071 0.87793,7.46025 0.93307,11.20926 -0.3033,0.19318 0.20766,3.75834 0.16291,3.77818 -9.86479,4.373 -11.25362,6.82872 -8.38946,2.75896 2.72537,-4.32544 5.44507,-8.65911 8.34559,-12.87063 3.06011,-4.64712 6.83422,-8.68116 10.81113,-12.532637 7.70371,-5.222877 14.3655,-12.215458 16.86725,-1.926988 0.84501,6.591295 0.75586,13.261085 0.77911,19.894465 -0.38604,3.55416 -0.11861,1.88336 -0.75175,5.02021 0,0 -10.1888,4.91409 -10.1888,4.91409 l 0,0 c 0.73214,-3.0131 0.41302,-1.40914 0.90936,-4.82118 0.002,-6.54816 0.0887,-13.12955 -0.70914,-19.64009 -0.15008,-0.66993 -0.42651,-2.53724 -1.00268,-3.223708 -0.42596,-0.507497 -2.49367,0.03212 -1.95578,-0.354744 3.81509,-2.743949 12.15021,-7.290135 6.50084,-4.180659 -3.89324,3.89928 -7.9348,7.657001 -10.93355,12.357801 -2.92928,4.16582 -5.66285,8.48039 -8.26062,12.85513 -4.54246,6.13112 -13.80601,12.69246 -12.27968,3.1321 -0.041,-3.66215 -0.0829,-7.35339 -0.79704,-10.95901 -0.56311,-2.14066 -1.47209,-6.46758 -4.2568,-6.57215 16.20821,-9.766357 4.74527,-3.62643 1.48885,3.06846 -2.64052,4.3347 -5.0343,8.81507 -6.61561,13.65497 -2.47394,5.91125 -14.65093,13.42292 -11.00323,4.13699 0.89938,-7.01019 -0.43871,-13.97192 -1.31704,-20.93322 0,0 9.99634,-5.27337 9.99634,-5.27337 z" />
    <path
       style="fill:#000000;fill-opacity:1;fill-rule:nonzero;stroke:#000000;stroke-width:4.69999981;stroke-linecap:round;stroke-linejoin:round;stroke-miterlimit:4;stroke-opacity:1;stroke-dasharray:none;stroke-dashoffset:0"
       id="path2833"
       d="m 345.33993,114.97498 c 0.78173,6.45035 1.6664,12.88817 2.20898,19.36443 0.53959,8.10646 2.71336,3.79547 -8.35355,9.28347 1.74368,-3.01637 3.02779,-6.2429 4.32524,-9.46798 2.04503,-4.77632 4.73585,-9.24153 7.44837,-13.66219 2.55976,-5.13547 10.78117,-14.76296 16.92242,-9.45809 2.25705,2.81774 2.5841,6.29993 2.82377,9.76846 0.14333,3.92315 0.11205,7.8506 0.0891,11.77564 -0.002,6.19773 0.87589,4.47852 -9.86849,7.30031 -0.0113,0.003 0.32076,-0.94229 0.93308,-2.69251 1.12858,-3.69894 2.37924,-7.39904 3.87015,-10.9708 3.4871,-8.0301 9.45287,-9.78252 17.36723,-13.85015 3.97364,0.66993 5.27969,5.36283 6.24041,8.71712 1.10098,4.91957 1.27711,9.98001 1.42185,15.0007 -0.0185,0.83143 0.0411,1.76927 0.0859,2.61017 0,0 -10.19482,5.15649 -10.19482,5.15649 l 0,0 c 0.0366,-0.81379 0.0909,-1.80912 0.0337,-2.60343 -0.0881,-4.93702 -0.23445,-9.9124 -1.27206,-14.75766 -0.76134,-2.73785 -1.77709,-7.3899 -5.36225,-7.27042 15.4583,-9.65485 4.85939,-4.36236 1.97797,2.2792 -1.62349,3.46595 -2.77343,7.22091 -3.89302,10.86708 -2.02127,6.23938 -13.31605,14.96806 -11.44143,5.35363 0.0224,-3.90152 0.0863,-7.80497 -0.0536,-11.70511 -0.18402,-3.13819 -0.31961,-6.39865 -2.37849,-8.9537 -3.82934,-2.97009 -1.34202,-0.50283 7.6061,-6.69881 0.31674,-0.21933 -0.69487,0.3424 -1.00465,0.57146 -1.70647,1.26178 -2.67732,3.12164 -3.56856,4.99812 -2.73105,4.35949 -5.38783,8.78756 -7.52434,13.47216 -1.26569,3.30478 -2.6516,6.54559 -4.14828,9.71949 -11.27062,6.90112 -11.64847,10.04107 -12.10818,0.42686 -0.4875,-6.45821 -1.26937,-12.88882 -2.17889,-19.30056 0,0 9.99634,-5.27338 9.99634,-5.27338 z" />
    <path
       style="fill:#000000;fill-opacity:1;fill-rule:nonzero;stroke:#000000;stroke-width:4.69999981;stroke-linecap:round;stroke-linejoin:round;stroke-miterlimit:4;stroke-opacity:1;stroke-dasharray:none;stroke-dashoffset:0"
       id="path2835"
       d="m 152.40647,331.84847 c -3.9799,5.43084 -8.0194,10.83959 -12.48514,15.88407 -3.44509,3.49853 -7.24133,6.59109 -9.89148,10.77004 -1.90987,3.04329 -3.50407,6.25108 -4.44226,9.72455 -0.44626,2.22548 -0.98892,4.36461 0.41164,6.28484 2.32479,2.81561 5.67336,4.01682 8.8628,5.51557 4.41358,1.86506 8.76967,3.89878 13.01781,6.12079 3.69899,1.32543 7.02106,3.22323 10.15808,5.56303 1.65216,1.43745 3.67935,2.34423 5.75605,2.9859 -12.24913,6.40676 -9.45489,6.96252 -8.69393,1.62769 0,0 10.1766,-5.03475 10.1766,-5.03475 l 0,0 c -0.62114,6.4348 -1.26944,4.47114 -10.92082,9.79797 -2.11912,-0.79979 -4.17403,-1.8138 -5.89378,-3.31255 -3.10309,-2.28513 -6.46245,-3.99955 -10.04166,-5.42713 -4.23791,-2.2094 -8.59403,-4.2079 -12.99324,-6.07071 -3.38196,-1.53188 -6.80723,-3.02211 -9.20815,-5.99582 -1.60845,-2.30974 -1.4375,-4.44319 -0.86754,-7.14163 0.77695,-3.60206 2.41288,-6.91521 4.33095,-10.0442 2.43558,-4.40438 6.24273,-7.5626 9.8413,-10.99956 4.58605,-4.89745 8.58697,-10.35043 12.47858,-15.80304 0,0 10.40419,-4.44506 10.40419,-4.44506 z" />
    <path
       style="fill:#000000;fill-opacity:1;fill-rule:nonzero;stroke:#000000;stroke-width:4.69999981;stroke-linecap:round;stroke-linejoin:round;stroke-miterlimit:4;stroke-opacity:1;stroke-dasharray:none;stroke-dashoffset:0"
       id="path2837"
       d="m 141.20222,374.34859 c 7.16026,-1.10207 14.37524,-1.7397 21.60501,-2.13933 5.63824,-0.053 11.07351,-1.70344 16.63434,-2.46476 4.59442,-1.44487 9.20117,-2.56318 13.98979,-3.09901 4.76847,-1.40571 9.75313,-1.94285 14.52291,-3.28132 4.56705,-1.5056 9.24923,-2.26638 14.02737,-2.63307 4.36344,0.19555 8.4371,-1.27817 12.6547,-2.10832 3.28218,-0.74994 6.63381,-0.92202 9.98638,-1.00559 3.66609,-0.0521 7.33267,-0.0369 10.99899,-0.0283 3.76489,0.0179 7.5298,0.006 11.29471,0.0123 2.94928,-0.29901 5.57171,-1.84979 8.41895,-2.47094 0.91257,-0.19066 1.83466,-0.32736 2.76121,-0.4263 0,0 -9.14081,6.82102 -9.14081,6.82102 l 0,0 c -0.88882,0.1341 -1.77513,0.2911 -2.64192,0.53368 -2.80357,0.92665 -5.58545,2.01577 -8.56799,2.20452 -3.76424,0.002 -7.52841,-0.0194 -11.29265,-0.0155 -3.66146,-0.005 -7.32376,-0.0274 -10.9844,0.0652 -3.31201,0.13037 -6.61163,0.39777 -9.85064,1.14768 -4.21406,0.9169 -8.35757,2.09947 -12.72115,1.98976 -4.73864,0.44538 -9.36329,1.36029 -13.91171,2.78545 -4.84271,1.16267 -9.76297,2.02304 -14.614,3.16218 -4.76395,0.6328 -9.32384,1.94764 -13.97375,3.11723 -5.54446,0.8392 -11.00819,2.36099 -16.65225,2.35708 -7.22777,0.42448 -14.44001,1.09129 -21.59142,2.24854 0,0 9.04833,-6.77223 9.04833,-6.77223 z" />
    <path
       style="fill:#000000;fill-opacity:1;fill-rule:nonzero;stroke:#000000;stroke-width:4.69999981;stroke-linecap:round;stroke-linejoin:round;stroke-miterlimit:4;stroke-opacity:1;stroke-dasharray:none;stroke-dashoffset:0"
       id="path2839"
       d="m 292.21347,325.00599 c 5.30126,4.05105 11.44779,6.68435 17.79007,8.60684 2.94578,1.28671 7.17289,1.87941 7.87779,5.53887 -1.09408,3.47111 -5.02997,5.56756 -7.78542,7.69998 -5.55686,3.59445 -10.74801,7.65467 -15.74047,11.98904 -4.28129,4.09058 -8.15231,8.57362 -12.29027,12.80075 -0.49289,0.45726 -0.98578,0.91453 -1.47866,1.3718 0,0 -10.48303,4.27957 -10.48303,4.27957 l 0,0 c 0.50543,-0.44389 1.01086,-0.88777 1.51629,-1.33165 4.29375,-4.10812 8.04626,-8.76149 12.33028,-12.89106 4.94267,-4.36286 10.0306,-8.56362 15.66165,-12.02422 2.75493,-2.17923 5.68819,-4.17443 8.1736,-6.62649 0.17546,-2.87237 -5.33182,-3.42348 -7.11451,-4.45089 -6.41591,-2.08794 -12.61022,-4.87723 -18.03805,-8.94462 0,0 9.58073,-6.01792 9.58073,-6.01792 z" />
    <path
       style="fill:#000000;fill-opacity:1;fill-rule:nonzero;stroke:#000000;stroke-width:4.69999981;stroke-linecap:round;stroke-linejoin:round;stroke-miterlimit:4;stroke-opacity:1;stroke-dasharray:none;stroke-dashoffset:0"
       id="path2841"
       d="m 187.32349,492.32739 c 4.42344,-8.81675 8.95365,-17.58491 13.15064,-26.51606 3.91633,-8.13731 6.9249,-16.68329 9.30831,-25.38442 1.81715,-6.85622 2.13901,-13.94745 2.33656,-20.99847 -0.14321,-5.1217 1.08696,-10.13275 2.03135,-15.13289 -0.0451,-2.43297 -1.54459,-2.02934 9.30398,-4.30397 0.71764,-0.15047 -0.51629,1.37268 -0.76197,2.06355 -1.00098,2.81483 -0.70786,1.98212 -1.50646,5.10589 -1.86303,7.11279 -3.77964,14.22432 -5.41743,21.39436 -1.08287,6.85364 -2.08361,13.6899 -3.36852,20.5121 -0.86713,5.60623 -1.80373,11.32614 -1.27331,17.004 0.30768,4.45105 2.38392,7.94756 4.99081,11.41928 1.82311,1.70602 4.46093,3.40869 6.99677,2.51268 2.82584,-1.28629 11.32998,-5.19231 -7.44844,4.2795 -0.50028,0.25235 0.85267,-0.72765 1.26377,-1.10838 1.40962,-1.3055 2.61071,-2.71206 3.781,-4.23017 1.87194,-2.11738 3.03843,-4.62064 4.07302,-7.21471 0,0 10.2697,-4.76446 10.2697,-4.76446 l 0,0 c -0.99714,2.66545 -1.99936,5.33771 -3.93527,7.49312 -4.22907,5.81483 -9.66863,10.63235 -17.08788,12.37499 -3.01327,0.0434 -5.62222,-1.37355 -7.66032,-3.56514 -2.67611,-3.65499 -4.90678,-7.32216 -5.25513,-11.96585 -0.64066,-5.76908 0.30356,-11.59981 1.15625,-17.30875 1.28377,-6.84153 2.40991,-13.67055 3.38492,-20.56223 1.56519,-7.17965 3.55973,-14.27082 5.36588,-21.39027 0.7346,-3.24935 8.55908,-26.81637 13.32588,-12.69667 -0.9925,4.95026 -2.27447,9.9286 -2.18954,15.00341 -0.19061,7.12946 -0.45666,14.30846 -2.24798,21.25226 -2.35544,8.76921 -5.36373,17.38203 -9.27842,25.58405 -4.15368,8.90595 -8.66032,17.64073 -13.04743,26.42815 0,0 -10.26074,4.7151 -10.26074,4.7151 z" />
    <path
       style="fill:#000000;fill-opacity:1;fill-rule:nonzero;stroke:#000000;stroke-width:4.69999981;stroke-linecap:round;stroke-linejoin:round;stroke-miterlimit:4;stroke-opacity:1;stroke-dasharray:none;stroke-dashoffset:0"
       id="path2843"
       d="m 237.51721,515.46367 c -1.03663,-7.02699 -0.97015,-14.22904 1.39244,-20.97194 3.50455,-6.75053 11.67844,-13.1234 19.55271,-11.39146 4.31086,1.91884 6.52809,5.08826 8.15819,9.3663 0.81758,4.76696 -0.90327,9.14074 -3.71351,12.90879 -4.67377,5.86345 -11.19823,10.14839 -18.27022,12.69427 -1.49155,-0.23877 -0.8077,-0.0236 -2.06635,-0.59656 0,0 9.42252,-6.38963 9.42252,-6.38963 l 0,0 c 0.98205,0.17701 0.45893,0.16649 1.56921,-0.0392 3.83944,-1.74345 3.73035,-1.74608 -7.12483,4.38703 -0.47723,0.26964 0.89052,-0.63983 1.32316,-0.97639 1.75516,-1.36536 3.46927,-2.79997 4.74765,-4.64418 2.91567,-3.30722 4.6618,-7.36279 4.21494,-11.84654 -1.43256,-3.90934 -3.42068,-6.90047 -7.53049,-8.34653 -0.57795,-0.0498 -1.15446,-0.17785 -1.73385,-0.1493 -0.57181,0.0282 -2.14664,0.66035 -1.68785,0.31788 2.49343,-1.8613 5.29615,-3.26858 7.9074,-4.96065 0.53577,-0.34717 -1.1977,0.50294 -1.6777,0.92387 -0.84199,0.73837 -2.29702,3.13022 -2.85513,3.98933 -2.68639,6.45243 -2.6957,13.61994 -1.63195,20.45156 0,0 -9.99634,5.27338 -9.99634,5.27338 z" />
    <path
       style="fill:#000000;fill-opacity:1;fill-rule:nonzero;stroke:#000000;stroke-width:4.69999981;stroke-linecap:round;stroke-linejoin:round;stroke-miterlimit:4;stroke-opacity:1;stroke-dasharray:none;stroke-dashoffset:0"
       id="path2845"
       d="m 457.8269,331.62237 c -5.65602,5.02367 -11.37004,9.96257 -17.17378,14.81904 -3.73271,3.2626 -7.24046,6.76992 -10.6912,10.32593 -0.91851,0.96554 -2.37986,2.18144 -1.0254,3.30739 2.24796,0.27389 4.51069,0.68669 6.75442,1.35791 4.09713,1.34719 8.50351,1.02442 12.61664,2.16995 2.42346,0.72143 4.82671,1.51598 7.18706,2.42379 0.26758,0.0803 0.50988,0.2195 0.75801,0.3401 0,0 -9.54162,6.28408 -9.54162,6.28408 l 0,0 c -0.2265,-0.088 -0.45655,-0.17238 -0.68029,-0.26852 -2.30777,-0.89907 -4.65629,-1.69785 -7.0467,-2.34841 -4.17579,-0.91749 -8.54567,-0.85337 -12.64776,-2.19861 -2.35448,-0.65643 -5.04339,-0.49878 -7.10681,-1.78726 -1.53368,-1.62888 -1.45265,-3.38264 0.25145,-4.92207 3.49076,-3.58016 7.01849,-7.12915 10.74491,-10.46623 5.73277,-4.90696 11.62487,-9.62087 17.10106,-14.82336 0,0 10.50001,-4.21373 10.50001,-4.21373 z" />
    <path
       style="fill:#000000;fill-opacity:1;fill-rule:nonzero;stroke:#000000;stroke-width:4.69999981;stroke-linecap:round;stroke-linejoin:round;stroke-miterlimit:4;stroke-opacity:1;stroke-dasharray:none;stroke-dashoffset:0"
       id="path2847"
       d="m 586.49918,333.57742 c 4.28699,3.83516 9.45728,6.38023 14.68875,8.65093 3.47414,1.14303 2.11502,3.50065 0.38464,5.51664 -2.89871,2.9624 -6.18161,5.57235 -9.37324,8.2308 -3.68883,2.84783 -7.53983,5.4686 -11.3064,8.21029 -5.44427,3.63013 -9.91463,10.75777 -16.89925,5.82257 0,0 9.56621,-6.11663 9.56621,-6.11663 l 0,0 c 0.3748,0.2408 0.72817,0.51879 1.1244,0.72242 0.39289,0.20191 1.57313,0.20805 1.23187,0.48853 -14.80609,12.16904 -9.27455,5.51698 -5.55135,3.25619 3.75524,-2.7677 7.61591,-5.38187 11.35814,-8.15597 3.1787,-2.63952 6.35645,-5.29039 9.39593,-8.04901 1.44573,-1.60586 3.72282,-2.60156 0.63321,-3.65831 -5.25658,-2.41459 -10.43234,-5.08677 -14.83364,-8.90053 0,0 9.58073,-6.01792 9.58073,-6.01792 z" />
    <path
       style="fill:#000000;fill-opacity:1;fill-rule:nonzero;stroke:#000000;stroke-width:4.69999981;stroke-linecap:round;stroke-linejoin:round;stroke-miterlimit:4;stroke-opacity:1;stroke-dasharray:none;stroke-dashoffset:0"
       id="path2849"
       d="m 446.96462,351.32595 c 6.50973,0.0296 13.01964,0.021 19.52941,0.004 4.71488,0.49922 9.15831,-0.95076 13.72264,-1.81657 5.06748,-0.8261 10.21326,-0.91852 15.33508,-1.01078 4.90263,-0.0806 9.80623,-0.0546 14.70929,-0.0459 4.86116,0.007 9.72235,0.0129 14.58351,0.005 3.61656,0.006 7.23309,-0.009 10.84965,-0.004 4.03532,0.001 8.07064,0.006 12.10596,0.01 3.65193,0.34291 7.58601,-0.6916 11.1104,0.44365 2.82756,0.97523 5.81966,2.25271 8.82961,1.69549 2.85067,-0.89459 5.7523,-1.54918 8.72202,-1.86939 2.41843,-0.16878 4.84123,-0.27792 7.26525,-0.31746 0.13465,-8e-4 0.2693,-0.002 0.40395,-0.002 0,0 -9.22346,6.71304 -9.22346,6.71304 l 0,0 c -0.13017,10e-4 -0.26033,0.003 -0.3905,0.004 -2.38758,0.0403 -4.77743,0.1312 -7.15256,0.38889 -2.95841,0.4314 -5.81735,1.24312 -8.74185,1.83763 -3.14802,0.0375 -6.10398,-1.0207 -9.06621,-2.00884 -3.56906,-0.66107 -7.29384,0.0131 -10.90268,-0.23982 -4.04461,0.004 -8.08921,0.009 -12.13382,0.0102 -3.6114,0.005 -7.22277,-0.0109 -10.83418,-0.008 -4.85397,-0.0126 -9.70796,-0.0157 -14.56194,-0.0221 -4.89599,-0.003 -9.79234,-0.0147 -14.68792,0.0606 -5.09491,0.11714 -10.21649,0.24966 -15.24081,1.18567 -4.58288,0.93657 -9.10291,2.07743 -13.83395,1.62548 -6.51378,-0.0168 -13.0277,-0.0251 -19.54144,0.004 0,0 9.14455,-6.6439 9.14455,-6.6439 z" />
    <path
       style="fill:#000000;fill-opacity:1;fill-rule:nonzero;stroke:#000000;stroke-width:4.69999981;stroke-linecap:round;stroke-linejoin:round;stroke-miterlimit:4;stroke-opacity:1;stroke-dasharray:none;stroke-dashoffset:0"
       id="path2851"
       d="m 470.45067,467.16161 c 5.82417,-6.66932 10.34262,-14.28634 14.57403,-22.02155 4.00531,-7.73978 6.96639,-15.7868 8.76294,-24.29969 0.55723,-4.50165 1.77615,-9.24677 0.95049,-13.78301 -0.14381,-0.374 -0.17944,-0.81045 -0.43144,-1.12198 -0.77805,-0.96183 -3.36278,1.20588 -2.06527,0.56385 8.99159,-4.44917 10.62297,-7.85117 8.3466,-3.74265 -1.48544,4.63725 -1.22314,9.68529 -1.3004,14.50486 0.43825,7.87273 -0.78713,15.54287 -2.50238,23.18672 -1.19679,6.81929 -3.2377,13.43854 -4.64343,20.21006 -0.83004,4.02893 -1.72001,8.38583 1.30171,11.6546 1.08956,1.05033 2.48289,1.39927 3.97172,1.01365 0.51716,-0.13395 1.93157,-0.90931 1.46662,-0.64621 -9.51011,5.3814 -10.49092,6.50098 -6.6837,3.05041 4.06784,-4.14026 6.47774,-9.50554 8.54954,-14.844 0,0 10.21211,-4.74156 10.21211,-4.74156 l 0,0 c -2.04748,5.42512 -4.35957,10.92036 -8.30471,15.26682 -4.49014,4.74491 -12.76708,11.85399 -18.91237,6.76365 -3.13941,-3.68634 -2.79381,-8.08841 -1.74022,-12.60562 1.36384,-6.80096 3.4887,-13.41237 4.6775,-20.25327 1.72966,-7.56805 3.08081,-15.14924 2.57647,-22.95936 0.0402,-4.95929 -0.14635,-10.04293 0.98942,-14.89848 1.94189,-4.72765 11.61998,-12.32435 14.49526,-5.75001 1.00763,4.66117 -0.2702,9.58658 -0.83398,14.2372 -1.80975,8.61248 -4.65898,16.77167 -8.6829,24.62358 -4.2142,7.73709 -8.60197,15.4317 -14.36942,22.14693 0,0 -10.40419,4.44506 -10.40419,4.44506 z" />
    <path
       style="fill:#000000;fill-opacity:1;fill-rule:nonzero;stroke:#000000;stroke-width:4.69999981;stroke-linecap:round;stroke-linejoin:round;stroke-miterlimit:4;stroke-opacity:1;stroke-dasharray:none;stroke-dashoffset:0"
       id="path2853"
       d="m 514.36068,515.89812 c -1.71728,-6.55105 -0.59924,-12.51344 3.60342,-17.75105 8.63673,-7.54765 14.31783,-10.50225 22.78567,-4.38637 3.44164,3.30889 6.5572,7.27899 5.68232,12.27097 -2.91617,4.5688 -8.63726,7.11481 -13.96005,7.45998 0,0 9.09714,-6.77217 9.09714,-6.77217 l 0,0 c 7.33922,-1.26482 -11.59518,7.26242 -5.36664,4.2042 1.57514,-4.3774 -2.01553,-8.23713 -4.973,-11.09636 -2.12124,-1.42879 -3.93164,-2.61757 -6.59092,-2.65234 -0.72139,-0.009 -2.70102,0.72157 -2.14905,0.25701 1.77033,-1.49 11.84463,-7.60866 5.88006,-3.6895 -4.38051,4.78971 -5.81975,10.30878 -4.09736,16.69688 0,0 -9.91159,5.45875 -9.91159,5.45875 z" />
    <path
       style="fill:#000000;fill-opacity:1;fill-rule:nonzero;stroke:#000000;stroke-width:4.69999981;stroke-linecap:round;stroke-linejoin:round;stroke-miterlimit:4;stroke-opacity:1;stroke-dasharray:none;stroke-dashoffset:0"
       id="path2855"
       d="m 732.08346,351.90846 c -5.31744,4.85713 -10.72466,9.6289 -15.85889,14.6816 -1.4849,2.07181 -4.90446,4.11324 -5.01069,6.95479 1.31501,2.23062 4.40538,2.81313 6.6193,3.78896 3.4213,1.60337 6.41906,3.86267 10.03399,5.0555 2.37084,-0.32663 4.93517,3.3619 7.05725,2.69602 2.29105,-3.9787 -9.76419,8.91788 -8.63454,2.69256 0,0 10.19503,-4.99343 10.19503,-4.99343 l 0,0 c -0.66658,4.81006 -5.68928,9.29519 -10.82032,8.9392 -2.46302,-0.77803 -4.57961,-2.55291 -7.19327,-2.98628 -3.55468,-1.34921 -6.60451,-3.57259 -10.06201,-5.12149 -2.66607,-1.10109 -5.9203,-1.98549 -7.27917,-4.78655 -0.64258,-3.269 2.84903,-5.67869 4.68341,-7.92581 5.03518,-5.1334 10.53491,-9.80894 15.82822,-14.66998 0,0 10.44169,-4.32509 10.44169,-4.32509 z" />
    <path
       style="fill:#000000;fill-opacity:1;fill-rule:nonzero;stroke:#000000;stroke-width:4.69999981;stroke-linecap:round;stroke-linejoin:round;stroke-miterlimit:4;stroke-opacity:1;stroke-dasharray:none;stroke-dashoffset:0"
       id="path2857"
       d="m 723.87521,369.86917 c 6.10415,3.21827 12.58946,5.36784 19.34075,6.68812 6.62834,1.00844 13.37513,-0.35381 19.99748,-0.99733 6.72014,-1.35254 13.45994,-2.50698 20.28595,-3.15087 5.18667,-1.16584 10.31981,-2.37162 15.61525,-2.9231 4.87713,-0.40362 9.77301,-0.45211 14.66369,-0.47011 4.58865,-0.19478 9.0575,-1.52606 13.63179,-2.11436 4.51492,-1.59221 9.16365,-2.50027 13.89651,-3.11606 3.31624,-0.36172 6.65132,-0.46348 9.98439,-0.51085 0.82226,-0.29089 2.06474,0.3567 2.86038,0.007 0.22186,-0.0976 0.67506,-0.6751 0.46007,-0.56315 -8.68673,4.52317 -11.51802,7.58288 -8.37565,4.33724 5.40036,-4.50797 22.98943,-11.50766 3.45889,-2.13112 -0.35742,0.17159 0.47635,-0.63391 0.71453,-0.95087 0,0 10.41131,-4.55484 10.41131,-4.55484 l 0,0 c -0.21758,0.36613 -0.30401,0.85388 -0.65273,1.09839 -0.83825,0.58776 -25.58869,15.6607 -2.65073,1.9262 0.23189,-0.13885 -0.48248,0.24382 -0.72371,0.36572 -5.06488,3.14064 -8.74041,7.84956 -14.69661,7.16498 -3.29029,0.0426 -6.58269,0.17306 -9.85062,0.58197 -4.72407,0.6598 -9.29244,1.83472 -13.88267,3.10793 -4.57885,0.66102 -9.08255,2.03018 -13.72601,2.00113 -4.86562,0.0353 -9.7397,0.0866 -14.58634,0.56264 -5.27001,0.63704 -10.37851,1.96622 -15.59805,2.89057 -6.819,0.69694 -13.53783,1.94851 -20.28228,3.14797 -6.68769,0.66262 -13.50776,1.96218 -20.19133,0.72261 -6.77614,-1.43409 -13.23067,-3.7424 -19.4678,-6.76629 0,0 9.36354,-6.35308 9.36354,-6.35308 z" />
    <path
       style="fill:#000000;fill-opacity:1;fill-rule:nonzero;stroke:#000000;stroke-width:4.69999981;stroke-linecap:round;stroke-linejoin:round;stroke-miterlimit:4;stroke-opacity:1;stroke-dasharray:none;stroke-dashoffset:0"
       id="path2859"
       d="m 868.79602,328.7579 c 3.19057,5.57212 6.95964,10.7113 11.68111,15.05959 3.43183,2.56446 5.70047,5.26067 4.50324,9.58775 -1.86624,4.73879 -5.34211,8.30854 -8.83988,11.87887 -3.8606,4.46948 -7.69185,8.97072 -12.05049,12.96826 -5.2246,3.80864 -1.11162,0.90436 -12.96873,7.74444 0,0 8.82302,-7.11642 8.82302,-7.11642 l 0,0 c -8.72978,5.12027 -10.78275,6.42422 -6.32275,3.64107 4.45573,-3.89976 8.35727,-8.35043 12.11423,-12.91893 3.4415,-3.4684 6.9256,-6.84954 8.97835,-11.36216 1.60117,-4.30709 -0.52941,-5.71442 -3.83148,-8.49385 -4.78623,-4.47276 -8.55259,-9.77879 -11.91379,-15.39318 0,0 9.82717,-5.59544 9.82717,-5.59544 z" />
    <path
       style="fill:#000000;fill-opacity:1;fill-rule:nonzero;stroke:#000000;stroke-width:4.69999981;stroke-linecap:round;stroke-linejoin:round;stroke-miterlimit:4;stroke-opacity:1;stroke-dasharray:none;stroke-dashoffset:0"
       id="path2861"
       d="m 762.22817,486.80452 c 7.93211,-8.29123 13.06574,-18.48086 17.98172,-28.71292 5.64349,-11.91767 11.13312,-23.89164 16.29505,-36.02376 1.50195,-5.66673 6.22382,-12.48509 5.87141,-18.5387 -1.87055,3.54936 0.0904,-0.38225 8.95823,-4.27309 0.5111,-0.22426 -0.81549,0.76756 -1.16476,1.20291 -0.43837,0.54641 -0.83651,1.12741 -1.18999,1.73222 -0.30039,0.514 -2.07265,4.21215 -2.25669,4.59306 -3.07471,5.73822 -4.81262,11.88129 -6.57544,18.09845 -2.20733,7.61966 -4.30293,15.21809 -5.47774,23.07402 -0.48741,6.23799 -1.5558,12.61708 -0.78886,18.86926 0.69793,3.12161 2.16124,6.95214 5.93146,5.79536 4.75127,-3.2055 -1.20218,0.8754 -6.61347,3.48762 -0.65112,0.31432 1.14406,-0.889 1.66364,-1.39179 1.82451,-1.76558 3.21569,-3.8852 4.58254,-6.00223 2.42152,-3.52821 4.36538,-7.23535 5.72022,-11.28727 0,0 10.23841,-4.81713 10.23841,-4.81713 l 0,0 c -1.31445,4.14651 -3.10952,7.97779 -5.63341,11.54738 -4.43806,7.41878 -10.32977,12.3659 -19.05062,15.2549 -4.19835,-0.0399 -6.03492,-3.55722 -6.84288,-7.3237 -0.88617,-6.34753 0.2876,-12.83715 0.72623,-19.18397 1.10515,-7.90582 3.18704,-15.54068 5.38638,-23.19975 1.8162,-6.23611 3.33538,-12.48833 6.45786,-18.25495 2.35864,-4.88869 8.46717,-18.49616 16.01727,-13.17932 0.69534,5.84429 -4.34749,13.66742 -5.86329,19.15597 -5.21045,12.13136 -10.64336,24.15038 -16.3078,36.08029 -4.85979,10.23754 -9.82941,20.53172 -17.6756,28.88274 0,0 -10.38987,4.4144 -10.38987,4.4144 z" />
    <path
       style="fill:#000000;fill-opacity:1;fill-rule:nonzero;stroke:#000000;stroke-width:4.69999981;stroke-linecap:round;stroke-linejoin:round;stroke-miterlimit:4;stroke-opacity:1;stroke-dasharray:none;stroke-dashoffset:0"
       id="path2863"
       d="m 843.54119,485.90808 c -8.2699,5.29823 -16.47089,12.2194 -26.45147,13.4636 -5.8893,-1.11404 -3.06294,-8.01982 -1.70552,-11.81596 5.39147,-8.46371 15.11676,-13.93215 24.355,-17.21333 4.90949,-0.82972 8.75136,0.76429 11.66474,4.71798 1.82649,4.71959 -0.52971,8.01439 -4.03102,11.02899 -12.56095,7.31995 -7.68051,5.08591 -14.04747,7.87123 0,0 8.85149,-7.03326 8.85149,-7.03326 l 0,0 c 4.67858,-2.26079 2.76813,-1.41116 -5.29065,3.36961 3.2591,-2.4083 6.13801,-5.09849 4.77155,-9.45669 -2.72805,-3.61242 -6.41014,-4.66321 -10.80503,-3.53637 -5.15046,2.07698 -2.75489,1.26045 4.59488,-3.24514 0.94594,-0.57988 -1.95842,1.05199 -2.87602,1.67576 -1.99703,1.35754 -3.49595,2.74579 -5.07095,4.57127 -0.68319,0.79185 -1.26693,1.66432 -1.9004,2.49649 -1.06354,2.72627 -4.54669,9.56178 0.54559,9.78037 1.91813,-0.342 2.62583,-0.37881 4.54915,-1.1561 1.0174,-0.41118 3.87569,-2.04101 2.96788,-1.42454 -13.53761,9.19304 -3.79471,1.71455 -0.62176,0.11983 0,0 10.50001,-4.21374 10.50001,-4.21374 z" />
  </g>
</svg>
