<?xml version="1.0" encoding="UTF-8" standalone="no"?>
<!-- Created with Inkscape (http://www.inkscape.org/) -->
<svg
   xmlns:dc="http://purl.org/dc/elements/1.1/"
   xmlns:cc="http://creativecommons.org/ns#"
   xmlns:rdf="http://www.w3.org/1999/02/22-rdf-syntax-ns#"
   xmlns:svg="http://www.w3.org/2000/svg"
   xmlns="http://www.w3.org/2000/svg"
   xmlns:sodipodi="http://sodipodi.sourceforge.net/DTD/sodipodi-0.dtd"
   xmlns:inkscape="http://www.inkscape.org/namespaces/inkscape"
   width="634.81543"
   height="263.00571"
   id="svg2"
   sodipodi:version="0.32"
   inkscape:version="0.46+devel"
   version="1.0"
   sodipodi:docname="c38d2.svg"
   inkscape:output_extension="org.inkscape.output.svg.inkscape">
  <defs
     id="defs4">
    <inkscape:perspective
       sodipodi:type="inkscape:persp3d"
       inkscape:vp_x="0 : 526.18109 : 1"
       inkscape:vp_y="0 : 1000 : 0"
       inkscape:vp_z="744.09448 : 526.18109 : 1"
       inkscape:persp3d-origin="372.04724 : 350.78739 : 1"
       id="perspective10" />
  </defs>
  <sodipodi:namedview
     id="base"
     pagecolor="#ffffff"
     bordercolor="#666666"
     borderopacity="1.0"
     inkscape:pageopacity="0.0"
     inkscape:pageshadow="2"
     inkscape:zoom="0.35"
     inkscape:cx="368.44155"
     inkscape:cy="236.51245"
     inkscape:document-units="px"
     inkscape:current-layer="layer1"
     showgrid="false"
     inkscape:window-width="1280"
     inkscape:window-height="712"
     inkscape:window-x="-5"
     inkscape:window-y="-3" />
  <metadata
     id="metadata7">
    <rdf:RDF>
      <cc:Work
         rdf:about="">
        <dc:format>image/svg+xml</dc:format>
        <dc:type
           rdf:resource="http://purl.org/dc/dcmitype/StillImage" />
        <dc:title></dc:title>
      </cc:Work>
    </rdf:RDF>
  </metadata>
  <g
     inkscape:label="Layer 1"
     inkscape:groupmode="layer"
     id="layer1"
     transform="translate(-6.5584468,-505.86892)">
    <path
       style="fill:#000000;fill-opacity:1;fill-rule:nonzero;stroke:#000000;stroke-width:4.69999981;stroke-linecap:round;stroke-linejoin:round;stroke-miterlimit:4;stroke-opacity:1;stroke-dasharray:none;stroke-dashoffset:0"
       id="path2694"
       d="m 118.70502,723.7595 c -3.9471,11.31883 -11.65993,19.37005 -21.071059,26.3922 -11.54581,6.90172 -23.333339,14.01566 -36.906724,15.85219 -6.43524,0.87071 -8.527066,0.45944 -14.996029,0.12725 -11.880332,-1.22808 -23.512699,-5.72101 -30.321621,-16.09368 -1.271837,-1.93751 -2.141564,-4.11093 -3.212346,-6.16639 -6.1266455,-17.06491 -3.3608722,-28.19231 5.537663,-43.34039 12.252986,-17.13361 31.151621,-27.07322 50.801901,-33.62552 16.29455,-4.99634 32.095555,-4.52865 48.251175,0.44359 10.53518,4.36459 20.11283,11.23041 23.31527,22.727 0.58679,2.10653 0.73667,4.31098 1.10501,6.46647 0.15632,19.01801 -10.62338,30.58078 -24.0578,42.46213 -11.87024,8.41953 -24.443883,16.05568 -38.121161,21.16024 -6.915711,2.58105 -12.40376,3.89597 -19.442852,5.79055 0,0 8.674184,-6.65927 8.674184,-6.65927 l 0,0 c 13.605455,-3.70013 27.512241,-7.43892 38.788339,-16.18569 13.2906,-11.51346 24.22185,-22.70441 24.36106,-41.37194 -0.33194,-2.08786 -0.44683,-4.22202 -0.99583,-6.26357 -3.01462,-11.21036 -12.51389,-17.76569 -22.74757,-21.89986 -15.785235,-4.69194 -31.987181,-5.05004 -47.79536,0.0689 -2.713508,0.93172 -5.289449,2.47486 -8.140524,2.79515 -0.858098,0.0964 2.383596,-2.35778 1.574009,-2.05745 -9.974654,3.70017 -19.13196,13.52142 -25.498824,21.68353 -8.953917,14.72734 -11.98667,25.4918 -5.997443,42.31274 1.034878,1.98849 1.871467,4.09348 3.104633,5.96548 6.6781,10.13762 18.189833,14.24996 29.773415,15.34178 7.674452,0.28332 14.726543,0.18209 22.1883,-1.96549 2.380275,-0.68507 4.700537,-1.57492 6.992398,-2.51429 2.246585,-0.92081 4.271733,-2.40552 6.609615,-3.06076 1.207993,-0.33857 -2.08833,1.39081 -3.132495,2.08622 9.407081,-6.77073 17.147916,-14.47827 21.155006,-25.6239 0,0 10.20566,-4.8472 10.20566,-4.8472 z" />
    <path
       style="fill:#000000;fill-opacity:1;fill-rule:nonzero;stroke:#000000;stroke-width:4.69999981;stroke-linecap:round;stroke-linejoin:round;stroke-miterlimit:4;stroke-opacity:1;stroke-dasharray:none;stroke-dashoffset:0"
       id="path2696"
       d="m 564.60649,616.88836 c -10.71053,5.27512 -22.42251,7.31357 -34.15891,8.72769 -9.27545,0.73213 -18.89107,1.25851 -28.13076,-0.30532 -5.01597,-0.84896 -7.61116,-1.99479 -12.35504,-3.67514 -13.68072,-6.35511 -18.24584,-14.87392 -20.96127,-29.22368 -0.4034,-13.48899 4.51424,-26.69022 12.36223,-37.60093 1.8331,-2.54847 3.99827,-4.84084 5.9974,-7.26127 13.99935,-14.35269 31.46555,-25.89109 50.33965,-32.83415 3.09273,-1.1377 6.29304,-1.9583 9.43956,-2.93744 19.40991,-5.27396 35.31197,-4.26328 54.58358,0.26121 12.22833,3.73393 23.52125,10.46875 30.73517,21.31031 1.28655,1.93351 2.23197,4.07345 3.34796,6.11017 5.51599,13.27369 3.34329,26.51413 -2.01372,39.36639 -8.63287,16.80553 -23.7044,24.67762 -41.23486,30.74592 -8.1714,2.43874 -16.65403,3.39039 -25.0761,4.48313 0,0 8.81141,-6.57877 8.81141,-6.57877 l 0,0 c 8.39718,-1.10897 16.8491,-2.11751 24.96216,-4.68654 2.38912,-0.86203 4.62865,-2.50893 7.16736,-2.58608 1.27021,-0.0386 -4.07177,2.98325 -2.91513,2.45686 8.26125,-3.75976 13.86422,-11.61836 18.21161,-19.20491 5.48867,-12.48653 7.78208,-25.43868 2.48878,-38.48385 -1.08256,-1.98303 -1.99737,-4.06732 -3.24767,-5.9491 -7.08177,-10.65849 -18.24266,-17.13889 -30.26238,-20.73535 -19.17012,-4.39014 -34.95138,-5.21723 -54.18501,0.17229 -20.00591,6.45716 1.13329,-0.71187 -18.37235,6.96565 -0.22792,0.0897 0.66416,-0.70423 0.45476,-0.57717 -8.50522,5.16079 -16.43898,11.03452 -23.16701,18.42644 -2.01041,2.37006 -4.18605,4.60934 -6.03123,7.1102 -7.83256,10.6159 -12.82091,23.57872 -12.61728,36.81607 2.46712,13.55021 7.26062,22.51774 20.37509,28.21618 4.80385,1.6505 7.10702,2.67153 12.1771,3.47591 9.21455,1.46191 18.75349,0.92011 27.98689,0.10809 11.7666,-1.51889 23.4401,-3.74814 34.14748,-9.11458 0,0 -8.85947,7.00177 -8.85947,7.00177 z" />
    <path
       style="fill:#000000;fill-opacity:1;fill-rule:nonzero;stroke:#000000;stroke-width:4.69999981;stroke-linecap:round;stroke-linejoin:round;stroke-miterlimit:4;stroke-opacity:1;stroke-dasharray:none;stroke-dashoffset:0"
       id="path2698"
       d="m 149.32315,682.09068 c 7.0178,-4.10089 14.36464,-7.52068 21.72191,-10.94467 5.5447,-2.56171 11.53132,-3.80235 17.33196,-5.62089 5.12065,-1.5381 10.46599,-1.86736 15.77418,-2.09187 4.2182,0.0708 8.56127,-0.65963 12.7035,0.28403 3.5012,1.74362 5.82888,4.28532 7.13993,7.93672 0.87563,3.76047 1.33616,7.66059 0.81218,11.4951 -1.75011,7.84347 -10.50696,10.52677 -16.70251,13.99577 -3.8942,1.06919 -7.76498,2.0548 -11.46238,0.0815 -3.8538,-3.44512 -5.36435,-8.20917 -6.40566,-13.10334 -1.01819,-6.527 -1.14047,-13.06998 -0.24238,-19.60171 1.36013,-6.97758 5.54579,-12.67252 10.33528,-17.72542 8.06756,-7.1113 17.52311,-11.79211 28.2012,-11.49068 7.20729,0.31519 13.29952,3.78642 18.21502,8.86819 5.18204,6.01866 8.87978,13.14994 10.31496,20.95645 0.57508,6.06705 0.76151,12.2721 -1.72781,17.94255 -4.26714,6.63225 -11.21283,10.38988 -18.77217,8.90142 -5.0292,-2.02221 -7.02383,-6.91774 -8.43481,-11.77173 -1.20838,-6.62035 0.78267,-12.82274 3.03488,-18.95745 2.30109,-5.73008 5.90365,-10.88097 10.64536,-14.83414 7.56243,-6.12464 15.66869,-9.99685 25.08203,-11.22236 5.38704,0.0488 10.55333,1.29171 14.50653,5.06477 3.46888,3.69738 5.06761,8.45339 5.95639,13.34015 0.21012,9.19636 -4.97113,9.3017 -13.44009,13.48799 -3.91459,-2.4664 -5.28804,-5.94545 -6.30316,-10.29801 -1.6785,-8.37556 1.24893,-16.15033 5.26038,-23.37204 8.28061,-11.99441 20.84985,-18.91958 33.82728,-25.02393 8.07392,-3.27465 16.44643,-4.83978 25.10665,-4.14044 6.0424,1.02997 9.00646,5.13662 9.57208,10.97426 0.035,5.89033 -2.71079,11.13266 -6.38724,15.56154 -6.87935,6.00084 -14.45147,10.76618 -23.47794,9.64005 -5.20894,-1.45008 -6.58922,-6.08948 -7.46066,-10.87465 -0.46598,-5.89842 1.9878,-10.51544 5.74627,-14.841 7.94537,-6.68948 17.38978,-11.38056 27.56095,-13.3217 7.02311,-0.55377 12.25446,2.43621 16.7129,7.57406 3.89526,5.28209 4.72136,11.0839 3.55956,17.38855 -3.45378,11.54017 -12.81621,15.22232 -22.83129,20.83817 -6.53029,2.85393 -12.217,2.32784 -18.04003,-1.58401 -6.37114,-5.46966 -6.21982,-13.19721 -4.73293,-20.78039 3.65157,-10.48325 11.54132,-18.24643 20.40135,-24.5139 12.55519,-8.08488 22.34931,-13.65612 37.19003,-12.11054 7.3599,1.40721 12.60491,5.72992 15.9401,12.27778 2.21565,5.15446 1.42574,10.21473 -1.11173,15.02182 -4.54651,5.18816 -12.09772,12.4115 -19.2605,9.54075 -4.02123,-2.36139 -5.93403,-5.81979 -6.32601,-10.3824 -0.0562,-6.23835 3.1186,-11.3838 7.49313,-15.56143 5.27652,-4.25464 11.42116,-7.53414 17.48306,-10.44442 2.29205,-1.10039 5.87967,-0.66301 8.33771,-0.61486 4.558,-0.13139 6.9807,2.68889 8.89698,6.42766 0.46545,1.27133 0.87539,2.57558 1.74964,3.20699 3.37087,-0.0311 6.74863,4.8e-4 10.12205,-0.009 5.57689,-0.0202 11.1538,-0.0304 16.73071,-0.0364 4.79816,0.44548 9.3687,-0.91122 14.01945,-1.82716 3.94365,-0.72437 7.94523,-0.92487 11.94469,-1.02576 1.92149,-0.0352 3.84349,-0.0744 5.76541,-0.0589 3.62044,0.11308 3.67241,-0.67312 -8.73809,4.58758 -0.87444,0.37067 1.24746,-1.4335 1.90546,-2.1184 0,0 10.49192,-4.34749 10.49192,-4.34749 l 0,0 c -3.59962,3.47461 -7.69768,8.58057 -12.8963,8.57689 -1.89158,-0.0183 -3.78345,-4.6e-4 -5.6745,0.0474 -3.9613,0.13778 -7.92374,0.38505 -11.81887,1.17004 -4.67166,0.96001 -9.30885,2.0407 -14.12257,1.62609 -5.5819,0.008 -11.16381,0.0198 -16.74563,0.0509 -3.47788,0.0166 -7.10871,0.33543 -10.51724,-0.37199 -1.21204,-1.03705 -1.56131,-2.36218 -2.07689,-3.85171 -1.75477,-3.54107 -3.97655,-5.61865 -8.17999,-5.41357 -1.93248,0.0104 -3.35076,-0.0584 -5.28725,0.28683 -0.92464,0.16486 -3.4435,1.31782 -2.72643,0.71124 2.06904,-1.75021 4.63329,-2.81291 6.92357,-4.26163 1.74407,-1.10321 -7.18888,4.17445 -5.15284,3.4319 -4.43821,3.75854 -7.75793,8.61742 -7.88297,14.62326 0.14184,4.12 1.90944,7.29907 5.66688,9.20312 0.46446,0.11235 0.91656,0.3055 1.39337,0.33706 0.52688,0.0349 2.0013,-0.45586 1.57785,-0.14043 -2.58642,1.92663 -5.50818,3.35737 -8.22646,5.093 -2.19625,1.40231 6.5176,-3.61064 4.80315,-3.84644 2.6683,-4.39404 3.7054,-9.12509 1.64542,-14.04808 -3.14649,-6.26746 -8.23283,-10.20727 -15.27356,-11.35469 -6.22152,-0.483 -11.90529,-0.0126 -17.77568,2.28579 -1.61617,0.63276 -4.91927,3.84059 -4.75915,2.11236 0.17272,-1.86414 3.21941,-1.91173 4.82912,-2.8676 -8.85939,6.02392 -16.7453,13.49598 -20.6855,23.71045 -1.52949,7.108 -2.01241,14.46635 4.14675,19.56971 5.69158,3.58524 11.22432,3.53624 17.33269,0.64548 -2.16487,1.33242 -4.29391,2.72489 -6.49461,3.99727 -1.03586,0.59891 2.05394,-1.23916 2.99729,-1.97522 3.57074,-2.78616 5.84455,-6.73172 7.40414,-10.91828 1.33737,-5.95667 0.6586,-11.45017 -3.05659,-16.48195 -4.29774,-4.85845 -9.39096,-7.44805 -16.04497,-6.59804 -2.71053,0.5782 -3.72064,0.71265 -6.36907,1.60901 -1.07927,0.36528 -4.0608,1.96381 -3.18934,1.22978 1.95944,-1.65043 4.38324,-2.65485 6.53393,-4.04691 1.72633,-1.11738 -6.68502,3.85885 -5.16613,3.37195 -3.7998,3.94043 -6.39285,8.24835 -6.16848,13.89857 0.73756,4.34804 1.78947,8.62393 6.70174,9.62422 2.42374,0.18925 4.32417,0.17839 6.65725,-0.61377 0.82341,-0.27957 3.14063,-1.4506 2.42957,-0.95005 -1.62324,1.14267 -11.61989,7.22217 -5.22248,2.862 3.77317,-4.03842 6.58984,-9.10924 6.75783,-14.74348 -0.26227,-5.44072 -3.14124,-8.88991 -8.69066,-9.6314 -8.53106,-0.53285 -16.80462,1.20524 -24.68285,4.54833 -1.55767,0.76128 -5.00951,3.98465 -4.67301,2.28386 0.35905,-1.81478 3.01045,-3.36288 4.77933,-2.8212 1.68364,0.51557 -2.99449,1.86465 -4.388,2.94104 -2.54896,1.96888 -5.32658,4.79024 -7.44644,7.21257 -1.10342,1.26086 -2.11118,2.60233 -3.16677,3.90349 -4.05744,6.88348 -7.0992,14.45191 -5.53566,22.57474 0.82847,3.6647 1.82602,7.35366 5.59056,8.98748 -2.95211,1.82185 -5.91283,3.62982 -8.85633,5.46554 -0.28442,0.17737 0.61618,-0.28082 0.87814,-0.48994 1.98,-1.58059 2.08557,-4.17111 2.21199,-6.4974 -0.78839,-4.6637 -2.22508,-9.22226 -5.59582,-12.70247 -3.82196,-3.45279 -8.8533,-4.45444 -13.91495,-4.25069 -2.75294,0.42634 -5.43424,0.88706 -8.0488,1.89571 -0.85113,0.32835 -3.25785,1.62264 -2.49837,1.11723 1.57788,-1.05004 11.64567,-7.03507 4.9805,-2.74321 -4.91157,3.5892 -8.51275,8.71564 -10.92035,14.27359 -2.21009,5.92725 -4.37803,11.8705 -3.35121,18.31682 1.26109,4.43516 3.01378,9.13087 7.81692,10.66058 1.26673,0.17377 2.17194,0.41777 3.4359,0.16895 0.51747,-0.10187 1.93381,-0.81082 1.49484,-0.5185 -15.38973,10.24853 -8.00458,5.62987 -5.7372,2.62408 2.90894,-5.29092 2.51223,-11.49393 2.12136,-17.34416 -1.27157,-7.61309 -4.93874,-14.53815 -9.98924,-20.364 -4.8376,-4.85658 -10.75728,-7.99038 -17.74027,-8.12023 -3.39824,0.0499 -6.56667,0.381 -9.82848,1.43331 -1.05134,0.33918 -3.9659,1.87923 -3.08348,1.21463 1.24888,-0.94061 11.7404,-7.19208 4.20393,-2.08014 -4.83499,4.77942 -9.05184,10.32319 -10.61133,17.06916 -0.95524,6.41204 -0.92638,12.81807 0.0839,19.24258 0.92345,4.5318 2.20425,9.10811 5.91595,12.18329 3.53862,1.45644 7.37716,0.30456 10.86855,-0.88114 -16.1786,9.76135 -3.45332,3.45681 -2.33745,-1.97316 0.72883,-3.62241 0.15935,-7.39022 -0.55563,-10.98625 -1.11971,-3.28058 -3.23869,-5.62272 -6.51148,-6.93237 -4.12826,-0.61525 -8.3524,-0.0876 -12.51036,-0.0961 -5.26687,0.27211 -10.55607,0.70091 -15.60845,2.33045 -5.76233,1.80973 -11.73241,3.00362 -17.18751,5.69239 -7.39755,3.40001 -14.67954,7.00158 -21.76533,11.02318 0,0 8.83086,-7.06385 8.83086,-7.06385 z" />
    <path
       style="fill:#000000;fill-opacity:1;fill-rule:nonzero;stroke:#000000;stroke-width:4.69999981;stroke-linecap:round;stroke-linejoin:round;stroke-miterlimit:4;stroke-opacity:1;stroke-dasharray:none;stroke-dashoffset:0"
       id="path2700"
       d="m 53.607075,700.76017 c -0.424669,6.29175 0.451078,12.47488 1.674389,18.62416 1.196449,5.57044 2.470734,3.71974 -8.423353,6.92255 -0.578622,0.17012 0.473213,-1.10952 0.70982,-1.66428 1.243291,-3.89729 2.785411,-7.68277 4.437276,-11.42125 1.362199,-3.72144 3.569391,-6.97879 5.977178,-10.08725 9.107739,-5.7855 11.820927,-10.06144 16.223591,-0.97483 1.415928,3.53851 3.202747,6.88057 4.227327,10.56564 1.56787,6.90191 1.198607,3.1912 -9.187022,7.9481 2.1e-4,-4.11508 1.492445,-8.07092 2.822948,-11.91359 1.409537,-4.24445 3.12073,-8.45254 6.207713,-11.74977 9.250395,-5.59117 12.622878,-10.28453 18.163012,-1.02537 2.864588,4.60364 4.233066,9.8249 5.132706,15.11404 0.16261,2.9948 0.86956,5.7299 2.28152,8.36326 0.34565,-0.7914 0.30182,1.85716 0.20136,-0.46104 0,0 -9.063126,6.93895 -9.063126,6.93895 l 0,0 c -0.733633,-0.46439 -0.393789,-0.19095 -1.015164,-0.82572 -1.432538,-2.75867 -2.309536,-5.58527 -2.390055,-8.72089 -0.819262,-5.16499 -2.093999,-10.26708 -4.933436,-14.73471 -0.983821,-1.62362 -1.904185,-3.24949 -3.778221,-3.98731 -0.784776,-0.30897 -3.226672,0.59433 -2.527229,0.12304 2.717786,-1.83127 5.605473,-3.39681 8.408209,-5.09521 -3.407687,2.87937 -5.014543,7.14796 -6.456966,11.26821 -1.277447,3.73627 -2.86449,7.58597 -2.923516,11.56886 -11.48735,8.39613 -9.247459,10.208 -10.905827,2.60229 -0.95829,-3.63685 -2.732144,-6.90739 -4.112123,-10.38808 -0.706715,-1.46041 -1.33041,-2.89574 -2.78108,-3.77581 -0.475276,-0.28834 -2.127316,0.17528 -1.662639,-0.12984 2.772048,-1.82021 5.665626,-3.44825 8.498439,-5.17237 -2.442967,3.01547 -4.780582,6.14891 -6.126513,9.83211 -1.604138,3.73908 -3.302383,7.45072 -4.441251,11.36678 -1.994559,5.82176 -12.645764,13.73025 -12.541601,4.84053 -1.173919,-6.22059 -2.11718,-12.4641 -1.767659,-18.81962 0,0 10.071293,-5.13158 10.071293,-5.13158 z" />
    <path
       style="fill:#000000;fill-opacity:1;fill-rule:nonzero;stroke:#000000;stroke-width:4.69999981;stroke-linecap:round;stroke-linejoin:round;stroke-miterlimit:4;stroke-opacity:1;stroke-dasharray:none;stroke-dashoffset:0"
       id="path2702"
       d="m 527.58635,546.54644 c -1.1484,7.65358 -1.77707,15.37091 -2.23385,23.09259 -0.18033,3.57668 -0.29058,7.15766 -0.29404,10.73905 -12.9482,6.12185 -11.00894,5.38696 -8.11961,-3.25351 1.91646,-5.43212 4.19874,-10.77153 6.97207,-15.82306 2.30956,-4.4182 11.91198,-17.4122 16.91406,-11.57259 1.93984,3.36468 2.74915,7.11127 3.43522,10.88815 0.60301,3.99388 0.74086,8.03814 0.80289,12.07085 0.13732,7.43373 0.92925,4.3239 -9.85357,8.62023 1.14741,-3.94521 2.79838,-7.65798 4.70562,-11.28565 1.96084,-4.50379 4.24829,-8.86174 6.9757,-12.94686 4.42397,-7.39731 10.87127,-9.95581 18.50103,-14.18056 4.57429,0.11568 6.81375,3.3699 8.64359,7.16247 2.01829,5.25812 3.53346,10.61721 4.4248,16.17578 0.57559,4.23329 0.7896,8.50152 0.91298,12.76817 0.13056,5.23083 0.16452,1.81352 -10.12537,5.63619 0,0 10.11272,-5.1655 10.11272,-5.1655 l 0,0 c -11.51401,7.45721 -10.07889,10.28945 -10.10327,4.70785 -0.0383,-4.23322 -0.22564,-8.46876 -0.76427,-12.67106 -0.83885,-5.46145 -2.31179,-10.71097 -4.29173,-15.87142 -1.5769,-3.2822 -3.60122,-6.46555 -7.70996,-5.72081 16.70482,-10.15324 3.19199,-2.48046 0.76503,2.65131 -2.88046,3.92781 -5.11618,8.34212 -7.03229,12.81437 -1.87416,3.58259 -3.68066,7.14767 -4.7291,11.078 -12.73251,7.28982 -10.37616,9.2566 -10.52506,1.3876 -0.0475,-3.98008 -0.12965,-7.97261 -0.69927,-11.91898 -0.61235,-3.56719 -1.34119,-7.08994 -3.15633,-10.27051 -3.23967,-2.29714 -0.57458,-0.22481 8.55003,-5.6985 0.41201,-0.24716 -0.85833,0.45412 -1.21376,0.77741 -1.80137,1.63853 -3.09647,3.86363 -4.23911,5.97153 -2.90968,4.90916 -5.07682,10.2739 -7.03227,15.62385 -3.33115,9.14402 0.38994,6.36961 -12.27564,13.20669 0.0679,-3.61848 0.21367,-7.23521 0.38681,-10.85003 0.4795,-7.73843 1.16218,-15.46468 2.154,-23.15545 0,0 10.14195,-4.9876 10.14195,-4.9876 z" />
    <path
       style="fill:#000000;fill-opacity:1;fill-rule:nonzero;stroke:#000000;stroke-width:4.69999981;stroke-linecap:round;stroke-linejoin:round;stroke-miterlimit:4;stroke-opacity:1;stroke-dasharray:none;stroke-dashoffset:0"
       id="path2704"
       d="m 270.74993,517.90302 c -0.12115,12.12019 -0.1077,24.24122 -0.10353,36.36186 0.41034,9.2532 -0.23666,18.43362 -1.58678,27.57962 -0.13571,1.97638 -0.76846,3.66271 -2.04235,5.15012 0,0 -10.53835,4.30791 -10.53835,4.30791 l 0,0 c 1.58766,-1.10077 2.30927,-2.52594 2.44798,-4.49213 1.51258,-9.11119 2.24647,-18.27347 1.85528,-27.51945 0.004,-12.08547 0.018,-24.17133 -0.10354,-36.25635 0,0 10.07129,-5.13158 10.07129,-5.13158 z" />
    <path
       style="fill:#000000;fill-opacity:1;fill-rule:nonzero;stroke:#000000;stroke-width:4.69999981;stroke-linecap:round;stroke-linejoin:round;stroke-miterlimit:4;stroke-opacity:1;stroke-dasharray:none;stroke-dashoffset:0"
       id="path2706"
       d="m 315.23751,520.71952 c -6.12173,8.01296 -13.24733,15.1436 -20.98598,21.58099 -5.98302,5.05548 -12.50182,9.42008 -18.66077,14.23557 -1.3048,1.06106 -2.48792,2.2512 -3.63644,3.4749 0,0 -10.4798,4.39915 -10.4798,4.39915 l 0,0 c 1.1425,-1.29497 2.32989,-2.54761 3.64775,-3.66957 6.0424,-4.99945 12.83038,-9.11035 18.77133,-14.26897 7.77152,-6.278 14.8373,-13.33636 20.99192,-21.22273 0,0 10.35199,-4.52934 10.35199,-4.52934 z" />
    <path
       style="fill:#000000;fill-opacity:1;fill-rule:nonzero;stroke:#000000;stroke-width:4.69999981;stroke-linecap:round;stroke-linejoin:round;stroke-miterlimit:4;stroke-opacity:1;stroke-dasharray:none;stroke-dashoffset:0"
       id="path2708"
       d="m 300.5273,540.12786 c 5.20298,8.1349 9.60853,16.72073 13.64354,25.48323 1.60065,3.49116 2.66118,7.17679 3.70603,10.85903 0,0 -9.89043,5.38019 -9.89043,5.38019 l 0,0 c -0.98064,-3.64476 -1.99005,-7.2882 -3.55249,-10.73938 -3.96989,-8.72387 -8.31751,-17.29233 -13.65571,-25.27041 0,0 9.74906,-5.71266 9.74906,-5.71266 z" />
  </g>
</svg>
