<?xml version="1.0" encoding="UTF-8" standalone="no"?>
<!-- Created with Inkscape (http://www.inkscape.org/) -->
<svg
   xmlns:dc="http://purl.org/dc/elements/1.1/"
   xmlns:cc="http://creativecommons.org/ns#"
   xmlns:rdf="http://www.w3.org/1999/02/22-rdf-syntax-ns#"
   xmlns:svg="http://www.w3.org/2000/svg"
   xmlns="http://www.w3.org/2000/svg"
   xmlns:sodipodi="http://sodipodi.sourceforge.net/DTD/sodipodi-0.dtd"
   xmlns:inkscape="http://www.inkscape.org/namespaces/inkscape"
   width="771.11536"
   height="743.88635"
   id="svg2902"
   sodipodi:version="0.32"
   inkscape:version="0.46+devel"
   version="1.0"
   sodipodi:docname="c39d3.svg"
   inkscape:output_extension="org.inkscape.output.svg.inkscape">
  <sodipodi:namedview
     id="base"
     pagecolor="#ffffff"
     bordercolor="#666666"
     borderopacity="1.0"
     inkscape:pageopacity="0.0"
     inkscape:pageshadow="2"
     inkscape:zoom="0.61697721"
     inkscape:cx="385.71429"
     inkscape:cy="464.5084"
     inkscape:document-units="px"
     inkscape:current-layer="layer1"
     showgrid="false"
     showguides="true"
     inkscape:guide-bbox="true"
     inkscape:window-width="1280"
     inkscape:window-height="712"
     inkscape:window-x="-5"
     inkscape:window-y="-3" />
  <defs
     id="defs2904">
    <marker
       inkscape:stockid="Arrow1Lstart"
       orient="auto"
       refY="0.0"
       refX="0.0"
       id="Arrow1Lstart"
       style="overflow:visible">
      <path
         id="path4484"
         d="M 0.0,0.0 L 5.0,-5.0 L -12.5,0.0 L 5.0,5.0 L 0.0,0.0 z "
         style="fill-rule:evenodd;stroke:#000000;stroke-width:1.0pt;marker-start:none"
         transform="scale(0.8) translate(12.5,0)" />
    </marker>
    <marker
       style="overflow:visible;"
       id="Arrow1Lend"
       refX="0.0"
       refY="0.0"
       orient="auto"
       inkscape:stockid="Arrow1Lend">
      <path
         transform="scale(0.8) rotate(180) translate(12.5,0)"
         style="fill-rule:evenodd;stroke:#000000;stroke-width:1.0pt;marker-start:none;"
         d="M 0.0,0.0 L 5.0,-5.0 L -12.5,0.0 L 5.0,5.0 L 0.0,0.0 z "
         id="path4487" />
    </marker>
    <inkscape:perspective
       id="perspective2910"
       inkscape:persp3d-origin="372.04724 : 350.78739 : 1"
       inkscape:vp_z="744.09448 : 526.18109 : 1"
       inkscape:vp_y="0 : 1000 : 0"
       inkscape:vp_x="0 : 526.18109 : 1"
       sodipodi:type="inkscape:persp3d" />
    <inkscape:perspective
       sodipodi:type="inkscape:persp3d"
       inkscape:vp_x="0 : 0.5 : 1"
       inkscape:vp_y="0 : 1000 : 0"
       inkscape:vp_z="1 : 0.5 : 1"
       inkscape:persp3d-origin="0.5 : 0.33333333 : 1"
       id="perspective4937" />
    <marker
       style="overflow:visible"
       id="Arrow1Lend-2"
       refX="0"
       refY="0"
       orient="auto"
       inkscape:stockid="Arrow1Lend">
      <path
         transform="matrix(-0.8,0,0,-0.8,-10,0)"
         style="fill-rule:evenodd;stroke:#000000;stroke-width:1pt;marker-start:none"
         d="M 0,0 5,-5 -12.5,0 5,5 0,0 z"
         id="path4487-2" />
    </marker>
    <inkscape:perspective
       sodipodi:type="inkscape:persp3d"
       inkscape:vp_x="0 : 0.5 : 1"
       inkscape:vp_y="0 : 1000 : 0"
       inkscape:vp_z="1 : 0.5 : 1"
       inkscape:persp3d-origin="0.5 : 0.33333333 : 1"
       id="perspective4978" />
    <marker
       style="overflow:visible"
       id="Arrow1Lend-1"
       refX="0"
       refY="0"
       orient="auto"
       inkscape:stockid="Arrow1Lend">
      <path
         transform="matrix(-0.8,0,0,-0.8,-10,0)"
         style="fill-rule:evenodd;stroke:#000000;stroke-width:1pt;marker-start:none"
         d="M 0,0 5,-5 -12.5,0 5,5 0,0 z"
         id="path4487-0" />
    </marker>
    <inkscape:perspective
       sodipodi:type="inkscape:persp3d"
       inkscape:vp_x="0 : 0.5 : 1"
       inkscape:vp_y="0 : 1000 : 0"
       inkscape:vp_z="1 : 0.5 : 1"
       inkscape:persp3d-origin="0.5 : 0.33333333 : 1"
       id="perspective5194" />
    <inkscape:perspective
       id="perspective5277"
       inkscape:persp3d-origin="0.5 : 0.33333333 : 1"
       inkscape:vp_z="1 : 0.5 : 1"
       inkscape:vp_y="0 : 1000 : 0"
       inkscape:vp_x="0 : 0.5 : 1"
       sodipodi:type="inkscape:persp3d" />
  </defs>
  <metadata
     id="metadata2907">
    <rdf:RDF>
      <cc:Work
         rdf:about="">
        <dc:format>image/svg+xml</dc:format>
        <dc:type
           rdf:resource="http://purl.org/dc/dcmitype/StillImage" />
        <dc:title />
      </cc:Work>
    </rdf:RDF>
  </metadata>
  <g
     transform="translate(92.816668,-230.04337)"
     id="layer1"
     inkscape:groupmode="layer"
     inkscape:label="Layer 1">
    <path
       transform="translate(-82.816668,230.04337)"
       d="m 760,429.60065 c 0,89.89714 -172.16,162.85714 -384.28571,162.85714 -212.12571,0 -384.2857011,-72.96 -384.2857011,-162.85714 C -8.5714111,339.7035 163.58858,266.7435 375.71429,266.7435 587.84,266.7435 760,339.7035 760,429.60065 z"
       sodipodi:ry="162.85715"
       sodipodi:rx="384.28571"
       sodipodi:cy="429.60065"
       sodipodi:cx="375.71429"
       id="path3967"
       style="fill:none;stroke:#000000;stroke-width:8;stroke-linecap:round;stroke-linejoin:round;stroke-miterlimit:4;stroke-opacity:1;stroke-dasharray:none;stroke-dashoffset:0"
       sodipodi:type="arc" />
    <path
       id="path4479"
       d="m 294.04047,653.92972 0,-417.14285"
       style="fill:none;stroke:#000000;stroke-width:6;stroke-miterlimit:4;stroke-opacity:1;stroke-dasharray:none;marker-end:url(#Arrow1Lend)" />
    <path
       sodipodi:nodetypes="cc"
       id="path4479-6"
       d="m 293.7137,819.12695 0,-165.31289"
       style="fill:none;stroke:#000000;stroke-width:6;stroke-miterlimit:4;stroke-opacity:1;stroke-dasharray:18,18;stroke-dashoffset:24.6;marker-end:none" />
    <path
       sodipodi:nodetypes="cc"
       id="path4479-6-1"
       d="m 293.78482,906.76026 0,-83.0827"
       style="fill:none;stroke:#000000;stroke-width:6;stroke-miterlimit:4;stroke-opacity:1;stroke-dasharray:none;stroke-dashoffset:0;marker-end:none" />
    <path
       transform="translate(-92.529796,230.04337)"
       d="m 398.30248,426.95749 c 0,6.61953 -5.37237,11.9919 -11.9919,11.9919 -6.61953,0 -11.9919,-5.37237 -11.9919,-11.9919 0,-6.61953 5.37237,-11.9919 11.9919,-11.9919 6.61953,0 11.9919,5.37237 11.9919,11.9919 z"
       sodipodi:ry="11.991902"
       sodipodi:rx="11.991902"
       sodipodi:cy="426.95749"
       sodipodi:cx="386.31058"
       id="path5208"
       style="fill:#000000;fill-opacity:1;stroke:#000000;stroke-width:6;stroke-linecap:round;stroke-linejoin:round;stroke-miterlimit:4;stroke-opacity:1;stroke-dasharray:none;stroke-dashoffset:24.6"
       sodipodi:type="arc" />
    <g
       id="g5234"
       transform="translate(72,216)">
      <g
         word-spacing="normal"
         letter-spacing="normal"
         font-size-adjust="none"
         font-stretch="normal"
         font-weight="normal"
         font-variant="normal"
         font-style="normal"
         fill-rule="even-odd"
         stroke-miterlimit="10.433"
         xml:space="preserve"
         transform="matrix(1.0626948,0,0,-1.0626948,-185.97159,578.33652)"
         id="content"
         style="font-style:normal;font-variant:normal;font-weight:normal;font-stretch:normal;letter-spacing:normal;word-spacing:normal;text-anchor:start;fill:none;stroke:#000000;stroke-linecap:butt;stroke-linejoin:miter;stroke-miterlimit:10.43299961;stroke-opacity:1;stroke-dasharray:none;stroke-dashoffset:0"><path
           id="path5237"
           d="m 482.75,435.64 -0.07,-0.06 -0.07,-0.07 -0.08,-0.07 -0.08,-0.07 -0.09,-0.08 -0.09,-0.08 -0.09,-0.09 -0.09,-0.09 -0.1,-0.09 -0.09,-0.09 -0.2,-0.19 -0.19,-0.19 -0.19,-0.21 -0.09,-0.1 -0.09,-0.1 -0.09,-0.1 -0.08,-0.11 -0.08,-0.1 -0.08,-0.1 -0.07,-0.1 -0.06,-0.1 -0.06,-0.1 -0.05,-0.1 -0.05,-0.1 -0.04,-0.09 -0.03,-0.1 -0.02,-0.09 -0.02,-0.09 0,-0.08 c 0,-0.5 0.5,-1 1,-1 0.44,0 0.69,0.35 0.94,0.65 0.6,0.75 1.74,2.14 3.94,3.24 0.35,0.2 0.84,0.45 0.84,1.05 0,0.49 -0.34,0.74 -0.69,0.99 -1.1,0.75 -1.65,1.64 -2.05,2.84 -0.1,0.45 -0.3,1.1 -0.99,1.1 -0.7,0 -1,-0.65 -1,-1.05 0,-0.25 0.4,-1.84 1.2,-2.89 h -16.79 c -0.85,0 -1.74,0 -1.74,-0.99 0,-1 0.89,-1 1.74,-1 z"
           style="fill:#000000;stroke-width:0" /><path
           id="path5239"
           d="m 469.15,410.09 0.05,-0.29 0.05,-0.28 0.06,-0.27 0.07,-0.26 0.07,-0.26 0.08,-0.24 0.09,-0.23 0.09,-0.22 0.11,-0.22 0.1,-0.2 0.12,-0.19 0.12,-0.19 0.13,-0.18 0.13,-0.16 0.14,-0.16 0.15,-0.15 0.15,-0.14 0.16,-0.13 0.16,-0.12 0.17,-0.11 0.18,-0.1 0.18,-0.1 0.19,-0.08 0.19,-0.07 0.2,-0.07 0.21,-0.06 0.21,-0.05 0.21,-0.04 0.22,-0.03 0.23,-0.02 0.23,-0.01 0.23,-0.01 c 2.94,0 5.63,1.89 7.62,4.64 3.74,5.18 4.69,12.7 4.69,14.39 0,3.54 -1.85,3.54 -2.14,3.54 -1.25,0 -2.5,-1.3 -2.5,-2.4 0,-0.64 0.3,-0.94 0.75,-1.34 1.59,-1.64 1.75,-3.24 1.75,-4.33 0,-4.24 -4.24,-10.91 -9.47,-10.91 -0.45,0 -1.84,0 -2.74,1.14 -0.6,0.8 -1,1.75 -1,2.75 0,0.14 0,0.24 0.3,0.79 0.95,2.24 1.65,4.98 1.65,5.63 0,0.6 -0.35,1.15 -1.05,1.15 -0.55,0 -0.99,-0.45 -1.39,-1.25 -0.1,-0.25 -0.7,-2.44 -1.05,-5.03 -0.1,-0.9 -0.1,-1 -0.45,-1.34 -2.19,-3.04 -4.48,-3.84 -6.18,-3.84 -3.28,0 -4.38,2.74 -4.38,5.68 0,3.73 1.85,7.87 4.19,11.21 0.5,0.69 0.5,0.79 0.5,0.94 0,0.4 -0.31,0.6 -0.6,0.6 -0.8,0 -3.09,-4.38 -3.79,-5.98 -1.84,-4.43 -1.89,-8.52 -1.89,-8.96 0,-3.99 1.49,-7.08 5.28,-7.08 3.23,0 5.63,2.29 7.22,4.64 z"
           style="fill:#000000;stroke-width:0" /></g>    </g>
    <path
       style="fill:none;stroke:#000000;stroke-width:8;stroke-miterlimit:4;stroke-opacity:1;stroke-dasharray:none"
       d="m 248.41488,366.61091 c -58.23275,58.23275 155.80564,61.79892 94.00672,0"
       id="path5267"
       sodipodi:nodetypes="cc" />
    <g
       id="g5483"
       transform="matrix(-0.03722454,-0.36537183,0.36537183,-0.03722454,160.39171,379.76245)">
      <path
         style="fill-rule:evenodd;stroke:#000000;stroke-width:6.4pt;marker-start:none"
         d="M -10.062406,489.67612 -9.8014326,534.9302 46.17898,432.7823 -55.316487,489.93709 -10.062406,489.67612 z"
         id="path5489" />
    </g>
  </g>
</svg>
