<?xml version="1.0" encoding="UTF-8" standalone="no"?>
<!-- Created with Inkscape (http://www.inkscape.org/) -->
<svg
   xmlns:dc="http://purl.org/dc/elements/1.1/"
   xmlns:cc="http://creativecommons.org/ns#"
   xmlns:rdf="http://www.w3.org/1999/02/22-rdf-syntax-ns#"
   xmlns:svg="http://www.w3.org/2000/svg"
   xmlns="http://www.w3.org/2000/svg"
   xmlns:sodipodi="http://sodipodi.sourceforge.net/DTD/sodipodi-0.dtd"
   xmlns:inkscape="http://www.inkscape.org/namespaces/inkscape"
   width="767.34491"
   height="513.65436"
   id="svg2"
   sodipodi:version="0.32"
   inkscape:version="0.46+devel"
   sodipodi:docname="c40d1.svg"
   inkscape:output_extension="org.inkscape.output.svg.inkscape"
   version="1.0">
  <defs
     id="defs4">
    <inkscape:perspective
       sodipodi:type="inkscape:persp3d"
       inkscape:vp_x="0 : 526.18109 : 1"
       inkscape:vp_y="0 : 1000 : 0"
       inkscape:vp_z="744.09448 : 526.18109 : 1"
       inkscape:persp3d-origin="372.04724 : 350.78739 : 1"
       id="perspective10" />
  </defs>
  <sodipodi:namedview
     id="base"
     pagecolor="#ffffff"
     bordercolor="#666666"
     borderopacity="1.0"
     inkscape:pageopacity="0.0"
     inkscape:pageshadow="2"
     inkscape:zoom="0.35"
     inkscape:cx="285.4395"
     inkscape:cy="223.29579"
     inkscape:document-units="px"
     inkscape:current-layer="layer1"
     showgrid="false"
     inkscape:window-width="1280"
     inkscape:window-height="712"
     inkscape:window-x="-5"
     inkscape:window-y="-3" />
  <metadata
     id="metadata7">
    <rdf:RDF>
      <cc:Work
         rdf:about="">
        <dc:format>image/svg+xml</dc:format>
        <dc:type
           rdf:resource="http://purl.org/dc/dcmitype/StillImage" />
        <dc:title></dc:title>
      </cc:Work>
    </rdf:RDF>
  </metadata>
  <g
     inkscape:label="Layer 1"
     inkscape:groupmode="layer"
     id="layer1"
     transform="translate(-89.560503,-242.00367)">
    <path
       style="fill:none;stroke:#000000;stroke-width:6;stroke-linecap:round;stroke-linejoin:round;stroke-miterlimit:4;stroke-opacity:1;stroke-dasharray:none;stroke-dashoffset:24.6"
       id="path2694"
       d="m 136.083,701.75593 c 11.39438,-1.1226 22.77804,-2.39574 34.18278,-3.4383 18.88165,-1.23681 37.77333,-2.36108 56.63905,-3.83984 25.31703,-2.35764 50.47488,-6.04707 75.75383,-8.734 27.22461,-3.4467 54.62158,-4.9212 82.03104,-5.79037 26.1549,0.1995 52.26111,1.30008 78.41885,0.85822 22.41077,-0.15068 44.76888,-1.2459 67.13118,-2.60546 13.99663,-0.87687 28.01019,-1.41655 42.03066,-1.69159 4.86783,-0.0853 9.7365,-0.13359 14.60512,-0.13132 2.01461,-1.70553 -0.83498,0.78247 -3.89908,1.70584 -0.29421,0.0887 0.18135,-0.58917 0.23131,-0.89236 0.13005,-0.78923 0.12857,-1.65044 0.15207,-2.44605 0,0 5.06853,-2.56732 5.06853,-2.56732 l 0,0 c -0.0735,4.01182 -0.93737,6.29197 -6.15647,7.54222 -4.83741,-0.031 -9.67503,0.009 -14.51195,0.079 -13.98174,0.25138 -27.95696,0.77356 -41.91527,1.6355 -22.34727,1.3424 -44.69212,2.38543 -67.08597,2.54286 -26.14871,0.41946 -52.24698,-0.70351 -78.39292,-0.86689 -27.40393,0.87967 -54.79264,2.37596 -82.01147,5.82538 -25.29773,2.70205 -50.47442,6.40789 -75.81274,8.75897 -18.89142,1.48494 -37.8082,2.6242 -56.71325,3.90434 -11.43328,1.07516 -22.85457,2.31127 -34.26947,3.53729 0,0 4.52417,-3.38612 4.52417,-3.38612 z" />
    <path
       style="fill:none;stroke:#000000;stroke-width:6;stroke-linecap:round;stroke-linejoin:round;stroke-miterlimit:4;stroke-opacity:1;stroke-dasharray:none;stroke-dashoffset:24.6"
       id="path2696"
       d="m 544.07809,684.709 c -6.06378,8.46802 -11.73535,17.19712 -17.39651,25.93547 -6.48411,9.36445 -12.73461,18.88032 -20.99099,26.78792 -4.51125,3.4729 -2.29481,1.9081 -6.61486,4.74284 0,0 -5.23435,2.03997 -5.23435,2.03997 l 0,0 c 4.36367,-2.78776 2.12439,-1.25 6.68545,-4.66012 8.33564,-7.81753 14.57087,-17.32374 21.06026,-26.67386 5.6556,-8.71453 11.28491,-17.44372 17.315,-25.90755 0,0 5.176,-2.26467 5.176,-2.26467 z" />
    <path
       style="fill:none;stroke:#000000;stroke-width:6;stroke-linecap:round;stroke-linejoin:round;stroke-miterlimit:4;stroke-opacity:1;stroke-dasharray:none;stroke-dashoffset:24.6"
       id="path2698"
       d="m 475.51971,684.38831 c -6.85573,8.61972 -13.71597,17.2326 -20.29701,26.07288 -7.4447,8.91694 -14.10067,18.55952 -22.80362,26.32082 -0.94188,0.73141 -1.88377,1.46283 -2.82566,2.19424 0,0 -5.22037,2.08261 -5.22037,2.08261 l 0,0 c 0.95359,-0.72249 1.90718,-1.44498 2.86077,-2.16747 8.80723,-7.6579 15.42584,-17.33938 22.90123,-26.23503 6.54643,-8.82808 13.38886,-17.41967 20.18256,-26.04552 0,0 5.2021,-2.22253 5.2021,-2.22253 z" />
    <path
       style="fill:none;stroke:#000000;stroke-width:6;stroke-linecap:round;stroke-linejoin:round;stroke-miterlimit:4;stroke-opacity:1;stroke-dasharray:none;stroke-dashoffset:24.6"
       id="path2700"
       d="m 418.37685,672.95973 c -6.68327,9.46701 -13.49121,18.85936 -19.96019,28.47604 -7.66224,11.23946 -15.42234,22.5755 -25.19094,32.10339 -4.66117,4.73185 -10.66211,7.7031 -16.71226,10.24136 0,0 4.39964,-3.47676 4.39964,-3.47676 l 0,0 c 8.42845,-3.68005 -1.8048,2.00281 7.16836,-4.64443 9.86379,-9.42184 17.59829,-20.79286 25.27288,-32.01016 6.42257,-9.61382 13.25906,-18.94804 19.82042,-28.4669 0,0 5.20209,-2.22254 5.20209,-2.22254 z" />
    <path
       style="fill:none;stroke:#000000;stroke-width:6;stroke-linecap:round;stroke-linejoin:round;stroke-miterlimit:4;stroke-opacity:1;stroke-dasharray:none;stroke-dashoffset:24.6"
       id="path2702"
       d="m 335.50666,696.13757 c -7.39873,10.23115 -14.79282,20.46303 -22.62252,30.37051 -5.61564,7.31858 -12.66004,13.01178 -20.17643,18.22103 0,0 -5.17647,2.03403 -5.17647,2.03403 l 0,0 c 7.55269,-5.15434 14.64807,-10.77171 20.27912,-18.08413 7.81399,-9.86302 15.17764,-20.06057 22.5203,-30.27677 0,0 5.176,-2.26467 5.176,-2.26467 z" />
    <path
       style="fill:none;stroke:#000000;stroke-width:6;stroke-linecap:round;stroke-linejoin:round;stroke-miterlimit:4;stroke-opacity:1;stroke-dasharray:none;stroke-dashoffset:24.6"
       id="path2704"
       d="m 244.40762,698.96169 c -4.28109,9.83164 -7.65868,20.00948 -11.58211,29.97944 -0.65618,1.57883 -1.31235,3.15766 -1.96853,4.73649 0,0 -5.0681,2.33436 -5.0681,2.33436 l 0,0 c 0.66403,-1.57842 1.32806,-3.15684 1.99208,-4.73526 3.94726,-9.94858 7.31811,-20.11449 11.47513,-29.98431 0,0 5.15153,-2.33072 5.15153,-2.33072 z" />
    <path
       style="fill:none;stroke:#000000;stroke-width:6;stroke-linecap:round;stroke-linejoin:round;stroke-miterlimit:4;stroke-opacity:1;stroke-dasharray:none;stroke-dashoffset:24.6"
       id="path2706"
       d="m 198.35246,696.46309 c -6.74079,13.0355 -13.31008,26.15649 -20.311,39.05572 -6.11518,10.31169 -3.09288,5.3424 -9.04776,14.91952 0,0 -5.03173,2.21967 -5.03173,2.21967 l 0,0 c 5.9904,-9.56827 2.9558,-4.60587 9.08404,-14.89929 6.98168,-12.86269 13.55084,-25.93834 20.15313,-38.99846 0,0 5.15332,-2.29716 5.15332,-2.29716 z" />
    <path
       style="fill:none;stroke:#000000;stroke-width:6;stroke-linecap:round;stroke-linejoin:round;stroke-miterlimit:4;stroke-opacity:1;stroke-dasharray:none;stroke-dashoffset:24.6"
       id="path2708"
       d="m 306.05361,671.25273 c 0.10402,-10.43629 -0.18958,-20.87309 0.37907,-31.29683 0.73744,-13.05138 2.19153,-26.02992 3.48983,-39.03158 1.77685,-13.75086 3.35242,-27.52521 5.77414,-41.1812 2.18542,-12.16184 4.1231,-24.36798 6.34477,-36.52277 2.40586,-11.20481 3.23088,-22.63541 3.73602,-34.05625 0.2572,-10.98997 1.63666,-21.91234 2.41055,-32.87327 0.96659,-7.24996 2.27539,-14.4397 3.05521,-21.71486 0.4017,-4.05934 0.50585,-8.13936 0.53558,-12.21585 -0.31595,-4.6066 0.59372,-7.00113 7.38998,-6.51474 2.90092,0.30185 5.81354,0.41904 8.72767,0.49508 3.82329,0.0735 7.64747,0.0714 11.4713,0.0748 3.52574,0.1689 6.77051,-1.35935 9.80207,-2.99681 2.05795,-1.33743 3.88632,-1.5658 4.56297,1.00941 0.42442,4.40204 0.28453,8.84398 0.26763,13.26198 0.23374,7.92632 -1.07749,15.76941 -1.78628,23.64452 -0.40292,10.22246 -1.84542,20.34825 -2.82713,30.52204 -0.83724,9.19667 -1.0421,18.43151 -1.15347,27.66015 -0.86062,8.3728 -1.8587,16.71533 -2.37298,25.12035 -0.44388,8.60064 -0.48299,17.21456 -0.51884,25.82438 0.0183,8.24894 -1.33373,16.42827 -2.0532,24.63652 -0.77217,7.33816 -0.29675,14.75261 -1.10338,22.07711 -1.04822,6.66178 -1.79755,13.35562 -2.21575,20.08507 -0.28044,5.17711 -0.31399,10.36231 -0.32964,15.54551 0.005,3.97957 0.0111,7.95916 0.0218,11.93872 0.006,3.74435 10e-4,7.48871 0.006,11.23306 -0.95301,4.48068 -1.85255,8.93951 -2.3354,13.50162 -0.32325,3.40527 -0.46423,6.82519 -0.51988,10.2444 -4.90399,10.09416 -6.73279,-0.0705 -7.17655,-2.36812 0,0 4.98845,-2.66121 4.98845,-2.66121 l 0,0 c 1.06021,5.64212 2.43301,3.10535 -3.3015,8.06853 -0.15685,0.13575 0.27555,-0.31016 0.41332,-0.46523 0.0788,-3.43963 0.22105,-6.88063 0.53968,-10.30715 0.4573,-4.54303 1.25212,-9.00635 2.34295,-13.44018 0.003,-3.74398 -0.002,-7.48797 -0.006,-11.23194 -10e-4,-3.98316 -0.0166,-7.96633 -0.006,-11.94949 0.0106,-5.19577 0.0447,-10.39293 0.32914,-15.58253 0.41131,-6.73882 1.14794,-13.44367 2.20536,-20.11339 0.88119,-7.31441 0.34986,-14.73621 1.12655,-22.0715 0.71921,-8.19597 2.06603,-16.3626 2.07852,-24.59675 0.0303,-8.62014 0.0864,-17.24384 0.50955,-25.8554 0.50699,-8.39773 1.45009,-16.73756 2.38435,-25.09573 0.11644,-9.24531 0.31349,-18.49658 1.14881,-27.7104 0.98463,-10.17179 2.43618,-20.29508 2.82575,-30.5164 0.68573,-7.854 1.99655,-15.67481 1.75681,-23.57624 0.0132,-4.37227 0.1257,-8.76208 -0.24422,-13.12222 -0.48194,-2.30355 -2.46468,-1.00837 -3.97545,-0.15868 -3.11059,1.61123 -6.39165,2.98404 -9.96915,2.77674 -3.8276,-0.004 -7.65553,-0.0129 -11.48255,-0.0851 -2.92134,-0.0829 -5.83865,-0.22578 -8.74866,-0.50306 -0.39505,-0.0193 -1.42447,0.25703 -1.18516,-0.0579 4.71525,-6.20481 3.32373,-2.13252 3.47393,0.68735 -0.0482,4.09809 -0.14126,8.20011 -0.54239,12.28161 -0.79742,7.27844 -2.07708,14.47613 -3.115,21.72146 -0.78466,10.95975 -2.1754,21.88102 -2.43782,32.86997 -0.49533,11.44182 -1.28627,22.90219 -3.70486,34.12638 -2.24251,12.15446 -4.16309,24.36769 -6.36604,36.53002 -2.44866,13.63997 -4.00771,27.40538 -5.79439,41.1435 -1.29215,12.99273 -2.74391,25.96082 -3.48577,39.00226 -0.58369,10.39808 -0.27945,20.81274 -0.30445,31.22435 0,0 -5.03564,2.56579 -5.03564,2.56579 z" />
    <path
       style="fill:none;stroke:#000000;stroke-width:6;stroke-linecap:round;stroke-linejoin:round;stroke-miterlimit:4;stroke-opacity:1;stroke-dasharray:none;stroke-dashoffset:24.6"
       id="path2710"
       d="m 343.83729,411.51412 c 1.55139,-6.09918 3.77087,-11.97255 5.6918,-17.95266 0.91664,-3.57546 2.44124,-6.95653 4.1747,-10.20293 1.07513,-1.93922 1.06394,-1.95746 4.94925,-2.15335 0.39804,-0.0201 -0.451,0.6605 -0.62679,1.01818 -0.51712,1.05214 -0.54186,1.55252 -0.79452,2.72681 -0.38491,3.19262 -0.33095,6.29721 -1.2452,9.39727 -1.00764,3.20262 -1.54261,6.50294 -1.8428,9.83761 -0.20713,2.68395 -1.338,5.23327 -2.22943,7.75873 -6.48569,10.19219 -5.98438,-4.39541 -5.98722,-5.77219 0.42896,-2.71166 -0.91838,-6.38152 0.79655,-8.74615 1.94326,-0.42551 3.84612,-1.42623 5.82979,-1.27652 0.82485,0.0623 1.35953,10.05434 1.3992,11.1622 0.0593,2.55257 0.0623,5.10608 0.0614,7.65921 -6e-5,0.16533 0.15488,0.43724 3.4e-4,0.49599 -1.64765,0.62634 -3.39245,0.95887 -5.08868,1.43831 -0.0165,-4.6808 -0.0118,-9.36164 -0.0115,-14.04246 0.15937,-4.52097 0.44521,-9.58163 2.34103,-13.76578 7.43127,-9.2607 8.07075,-0.0321 8.38349,4.55031 0.18714,4.5154 0.12481,9.03575 0.0913,13.55345 -0.0201,2.7452 0.39199,2.88077 -5.10363,3.17468 -0.47382,0.0253 -0.003,-0.949 -0.004,-1.4235 -0.006,-2.08191 0.0888,-1.02017 -0.32123,-3.18993 -0.89483,-2.0979 -0.52947,-7.40069 -3.35443,-8.0508 -0.15799,0.0762 -0.64166,0.28021 -0.47397,0.22871 1.42518,-0.43762 2.76581,-1.51259 4.2515,-1.38868 0.57737,0.0481 -0.10867,1.15678 -0.0891,1.73582 0.0739,2.18627 0.56312,4.40001 0.92662,6.55033 0.32874,3.05375 1.66094,6.51423 -0.0327,9.37153 -1.87454,0.59946 -3.67024,1.55846 -5.62362,1.79836 -0.73271,0.09 -1.00762,-6.82132 -1.02941,-7.57053 -0.28595,-1.78376 -0.64994,-3.58711 -1.28057,-5.28714 -0.79816,-2.15159 -3.43172,0.20088 3.94,-2.20691 0.24736,2.57208 0.72218,5.36149 1.79256,7.74495 -5.40205,2.73773 -5.12007,3.62702 -6.50671,-1.38804 -0.78715,-2.09422 -0.37099,-1.05755 -1.24814,-3.11012 0,0 4.94399,-2.77636 4.94399,-2.77636 l 0,0 c 0.89531,2.08903 0.46361,1.03088 1.29378,3.17497 1.19715,4.48289 2.59755,2.76835 -2.94512,7.40227 -0.18255,0.15263 -0.41517,-0.63469 -0.50169,-0.50783 -1.0951,-2.52007 -1.56672,-5.39649 -1.9515,-8.09152 7.28498,-5.79468 5.72847,-5.37743 7.50614,2.45857 0.045,1.68365 0.0664,3.38279 0.29046,5.05537 0.0575,0.42925 0.12534,0.85908 0.2379,1.27728 0.0864,0.32093 0.5877,0.69237 0.35652,0.93116 -1.30197,1.34484 -3.0029,2.2355 -4.50436,3.35326 2.19358,-2.35433 0.44907,-6.21049 0.26594,-8.97721 -0.75058,-4.45063 -3.42534,-13.10816 5.11208,-12.9496 2.93514,1.55418 2.67449,5.78 3.62253,8.54952 1.08366,5.14005 0.92979,4.86295 -4.66932,8.1648 -0.42653,0.25153 0.93077,-2.47221 0.0458,-1.48484 0.0584,-4.50715 0.1143,-9.01748 -0.0558,-13.52292 -0.10003,-1.54181 -0.14024,-2.92938 -0.41932,-4.44698 -0.10123,-0.55051 -0.21488,-1.10435 -0.41466,-1.62722 -0.141,-0.36903 -0.84761,-0.717 -0.59802,-1.02322 1.07617,-1.32034 2.64142,-2.15352 4.01182,-3.16518 0.29403,-0.21705 -0.51661,0.51709 -0.77492,0.77563 -2.17733,3.90063 -2.21124,9.19702 -2.4846,13.542 0.003,4.67212 -1.9e-4,9.3444 0.0462,14.01634 -1.68592,1.24234 -3.2948,2.59668 -5.05778,3.72702 -0.4887,0.31333 0.0307,-1.16071 0.0351,-1.74122 0.0163,-2.13628 0.006,-4.27274 -0.0396,-6.40865 -0.0968,-3.07436 -0.092,-6.24775 -0.7846,-9.26281 -0.12755,-0.55525 -0.83081,-1.17281 -0.49776,-1.63504 1.11657,-1.54968 2.9048,-2.48094 4.35721,-3.72142 -2.23437,1.18091 -0.53983,6.25706 -1.02604,8.32406 0.003,1.53915 0.67044,6.53388 0.28619,7.01653 -1.30681,1.64144 -3.18663,2.7304 -4.80082,4.07073 -0.11597,0.0963 0.20189,-0.2239 0.30284,-0.33585 0.89578,-2.48581 2.02575,-5.00866 2.30284,-7.6338 0.29387,-3.36733 0.7917,-6.70447 1.79559,-9.94348 0.95013,-3.08718 0.9752,-6.13927 1.26795,-9.34641 0.86676,-4.82918 1.93235,-4.53959 7.33334,-7.31787 0.32085,-0.16505 -1.18102,1.32038 -0.56568,0.92288 -1.78498,3.2036 -3.35317,6.56209 -4.26576,10.12572 -1.89106,5.98688 -4.2121,11.82614 -5.67165,17.95152 0,0 -5.12105,2.40504 -5.12105,2.40504 z" />
    <path
       style="fill:none;stroke:#000000;stroke-width:6;stroke-linecap:round;stroke-linejoin:round;stroke-miterlimit:4;stroke-opacity:1;stroke-dasharray:none;stroke-dashoffset:24.6"
       id="path2714"
       d="m 104.65443,376.04165 c 7.15805,-1.11598 14.37234,-1.76082 21.6016,-2.16663 5.80785,0.26464 11.39682,-1.09273 17.06058,-2.09644 4.62691,-0.74331 9.31054,-0.95231 13.98791,-1.05143 5.30377,-0.0671 10.6082,-0.0451 15.91226,-0.038 6.31409,0.16463 12.54427,0.0865 18.79569,-0.828 7.36956,-0.73915 14.5702,-2.46287 21.88525,-3.57755 7.40315,-0.59424 14.72824,-1.55131 22.0811,-2.59382 7.16157,-1.04635 14.39843,-1.30763 21.62345,-1.48265 6.72045,-0.12084 13.44243,-0.0949 20.16365,-0.0899 6.08949,0.007 12.17898,0.0116 18.26847,0.0141 5.45643,0.004 10.91286,6.3e-4 16.3693,-0.002 4.88591,0.007 9.66292,1.36987 14.48167,2.10504 4.42951,0.72195 8.94965,0.34978 13.35722,1.1254 5.2047,1.23709 10.508,1.83701 15.83538,2.19322 5.69398,0.30259 11.39811,0.30334 17.09838,0.31448 5.83286,0.002 11.66571,-0.012 17.49857,-0.0118 6.8728,-0.14057 13.76841,0.34179 20.61268,-0.36675 6.29323,-0.99619 12.605,-1.78003 18.96323,-2.19187 6.71547,0.15876 13.28079,-0.72282 19.90607,-1.64661 7.46018,-0.88752 14.93302,-1.20646 22.3737,-2.26573 8.65102,-1.42235 17.4364,-1.36297 26.13017,-2.29451 8.48353,-1.21233 17.01332,-1.96546 25.56994,-2.3749 6.81239,-0.12884 13.49418,-1.63459 20.24933,-2.41532 5.32827,-0.54509 10.68664,-0.68315 16.03881,-0.74623 3.89014,-0.0356 7.78052,-0.0176 11.67076,-0.0129 3.4326,0.01 6.86522,0.008 10.29783,0.0107 3.25918,-0.001 6.51837,0.003 9.77756,1.4e-4 3.00924,-9.3e-4 6.01849,6.9e-4 9.02774,-0.002 3.13737,0.002 6.27474,0.004 9.41211,-7.1e-4 1.84959,-0.0682 6.10085,0.0433 -2.46808,1.78433 -0.42942,0.0873 0.51736,-0.70844 0.74796,-1.08105 0.60588,-0.97901 0.82136,-1.50899 1.3071,-2.53846 1.94846,-2.99071 2.78965,-6.44821 4.07779,-9.72026 1.6342,-3.04107 2.42534,-6.2744 2.80539,-9.67488 1.02178,-3.75637 2.02863,-7.49841 2.64812,-11.34587 0.0463,-3.34876 0.86155,-6.42287 1.78669,-9.60583 0.79654,-2.87684 1.61808,-5.71435 0.71519,-8.62346 -1.75413,-2.45796 -5.0282,-2.40643 -7.65453,-3.29512 -3.49827,-1.3254 -7.14859,-1.95415 -10.85492,-2.31071 -3.52923,-0.25645 -7.06927,-0.27259 -10.60589,-0.27587 -3.53771,0.13896 -6.93435,1.4507 -10.41844,2.13131 -4.04717,1.62641 -8.29892,2.5253 -12.60524,3.11144 -5.01159,0.65863 -9.90075,1.95802 -14.93012,2.61095 -4.9191,0.46246 -9.77184,0.64091 -14.62589,1.59477 -4.928,1.01831 -9.92168,1.57558 -14.94122,1.83736 -4.54823,0.18862 -9.1008,0.17953 -13.65191,0.18345 -4.59303,-0.005 -9.18603,-0.0183 -13.77906,-0.0185 -4.86612,0.10412 -9.75174,-0.31369 -14.57997,0.36391 -4.88789,1.02149 -9.78765,1.81006 -14.76752,2.18402 -4.65615,0.29333 -9.322,0.30873 -13.98528,0.32631 -4.44782,10e-5 -8.89564,-0.009 -13.34346,-0.014 -4.70771,-0.008 -9.41543,-0.007 -14.12316,-0.007 -4.92018,-10e-6 -9.84036,-0.006 -14.76054,-10e-4 -5.06389,-6.8e-4 -10.12777,-0.001 -15.19166,-0.002 -5.33326,0.38226 -10.47125,-0.27066 -15.67393,-1.3387 -5.42607,-1.13684 -10.97739,-1.28416 -16.49823,-1.43505 -6.80322,-1.05888 -13.60855,-1.98031 -20.47916,-2.46612 -7.68616,-0.45441 -15.38872,-0.473 -23.08552,-0.5006 -8.1814,-0.0162 -16.36284,-0.002 -24.54424,0.009 -6.34771,0.69265 -12.63019,1.80112 -18.99321,2.37465 -5.28365,0.40337 -10.58499,0.48056 -15.88166,0.5153 -4.25588,0.0145 -8.51178,0.005 -12.76766,-0.002 -4.10425,-0.005 -8.20851,-0.008 -12.31276,-0.0112 -5.38337,-0.003 -10.76675,-0.004 -16.15012,-0.004 -5.44897,-0.002 -10.89793,10e-4 -16.34689,0.003 -5.09894,1.3e-4 -10.19788,-0.002 -15.29682,-0.003 -4.42432,0.18706 -8.91449,-0.41093 -13.2846,0.38288 -4.19548,1.10892 -8.44498,1.77715 -12.7597,2.17951 -3.84177,0.27843 -7.69589,0.3099 -11.54602,0.32226 -3.65613,-7e-5 -7.31226,-0.009 -10.96839,-0.0148 -4.06508,-0.004 -8.13016,-0.007 -12.19525,-0.01 -4.49872,0.004 -8.99744,-0.003 -13.49616,8e-4 -3.96857,-0.002 -7.93714,0.004 -11.9057,0.004 -1.50748,0.025 -9.709372,2.26459 0.43547,-1.13868 0.67587,-0.22673 -0.64751,1.2774 -0.86192,1.95728 -0.55319,3.32488 -0.44672,6.71616 -0.43684,10.07481 -0.12312,4.10733 0.37922,8.25449 -0.26339,12.32367 -1.21437,4.35994 -1.80901,8.8237 -2.19859,13.32094 -0.561767,3.88251 0.16772,7.91533 -0.653589,11.74681 -1.467704,2.82039 -0.137358,0.71541 -6.780808,3.13486 0,0 4.689084,-3.19804 4.689084,-3.19804 l 0,0 c -3.753327,3.36166 -4.527733,4.42092 -3.026304,2.51736 1.048881,-3.7449 0.07401,-7.84268 0.711331,-11.67738 0.388754,-4.50604 0.905965,-9.00066 2.169637,-13.36094 0.766743,-4.01766 0.152445,-8.16064 0.30502,-12.23297 -0.016,-3.4026 -0.10202,-6.82547 0.354055,-10.20586 1.022845,-4.3083 5.984164,-6.63719 10.142694,-6.59368 3.96526,-2e-4 7.93052,0.006 11.89578,0.004 4.49786,0.004 8.99572,-0.004 13.49358,10e-4 4.06878,-0.002 8.13755,-0.003 12.20633,0.003 3.65627,0.005 7.31255,0.0171 10.96882,0.0107 3.83796,-0.019 7.68077,-0.0468 11.50845,-0.35858 4.30647,-0.41924 8.53228,-1.18073 12.73607,-2.20836 4.40636,-0.63155 8.88552,-0.16194 13.32624,-0.30064 5.10127,-8.6e-4 10.20253,-0.003 15.3038,-0.003 5.44588,0.002 10.89176,0.006 16.33765,0.003 5.38684,-4.7e-4 10.77368,-10e-4 16.16052,-0.003 4.10721,-10e-4 8.21442,-0.002 12.32163,0.006 4.25191,0.007 8.50387,0.0233 12.75577,0.004 5.2836,-0.0412 10.57236,-0.1146 15.84135,-0.54497 6.36152,-0.59794 12.64475,-1.74428 19.00635,-2.32083 8.18009,-0.003 16.36019,-0.0152 24.54028,-0.003 7.70644,0.0319 15.41912,0.0478 23.11383,0.52717 6.86727,0.50145 13.66297,1.47309 20.47597,2.43827 5.54814,0.16167 11.12458,0.33035 16.57216,1.50272 5.17603,1.05647 10.30586,1.58604 15.60327,1.249 5.0655,-2.5e-4 10.131,-0.001 15.19649,-0.002 4.92115,0.004 9.8423,-0.002 14.76345,-8.2e-4 4.70845,0.002 9.4169,0.004 14.12534,0.006 4.44749,0.006 8.89497,0.0174 13.34246,0.0115 4.65246,-0.0133 9.30815,-0.0449 13.9523,-0.35466 4.96984,-0.4064 9.85492,-1.25317 14.7473,-2.20386 4.85519,-0.56755 9.7495,-0.23008 14.63131,-0.31142 4.59414,0.008 9.18828,0.009 13.78242,0.0153 4.54291,0.001 9.08779,-0.002 13.62721,-0.20366 5.0031,-0.28923 9.97919,-0.87464 14.8907,-1.89549 4.85677,-0.92274 9.73518,-1.03942 14.64341,-1.56681 5.02379,-0.6883 9.91546,-2.0045 14.93983,-2.6238 4.30365,-0.63218 8.50544,-1.63847 12.59361,-3.14195 3.49298,-0.70447 6.90851,-2.04819 10.49147,-2.04531 3.54553,0.015 7.09491,0.0386 10.63113,0.32634 3.73243,0.39612 7.39872,1.08642 10.92766,2.40578 2.84173,0.86919 6.17893,1.00733 7.94533,3.75069 0.97581,3.02724 0.29576,5.90781 -0.57654,8.92492 -0.8892,3.17849 -1.85249,6.18845 -1.8142,9.54393 -0.60862,3.841 -1.52685,7.60324 -2.66766,11.32185 -0.3418,3.44224 -1.03295,6.75411 -2.73188,9.81643 -1.36354,3.24084 -2.04376,6.77629 -4.05768,9.73985 -1.68106,3.71805 -4.67877,7.98436 -9.34795,7.5303 -3.13672,-0.005 -6.27346,-0.003 -9.41019,-6.7e-4 -3.00794,-0.002 -6.01589,-4.6e-4 -9.02384,-0.001 -3.25865,-0.003 -6.51729,0.002 -9.77593,-0.002 -3.43269,-6e-4 -6.86538,-0.007 -10.29806,-0.0118 -3.88367,-0.0123 -7.76747,-0.0237 -11.65107,0.009 -5.33645,0.0724 -10.67945,0.21036 -15.98978,0.78305 -6.74973,0.80312 -13.43665,2.27322 -20.25113,2.36901 -8.54668,0.42214 -17.06276,1.20664 -25.53981,2.39109 -8.69941,0.88055 -17.48043,0.89374 -26.1304,2.32006 -7.44407,1.03998 -14.9288,1.33586 -22.38449,2.27358 -6.63386,0.94223 -13.22326,1.69874 -19.94199,1.62178 -6.34935,0.43259 -12.64814,1.25248 -18.94074,2.19634 -6.86397,0.6185 -13.76625,0.20608 -20.65193,0.32879 -5.83557,0.01 -11.67115,0.0181 -17.50673,0.0156 -5.70816,-0.0142 -11.42059,-0.0195 -17.12149,-0.3441 -5.3417,-0.37869 -10.64957,-1.02735 -15.8762,-2.2288 -4.42029,-0.66575 -8.93205,-0.38187 -13.35572,-1.12109 -4.79285,-0.75907 -9.55494,-2.09304 -14.42871,-2.03574 -5.45277,-0.002 -10.90554,-0.006 -16.35831,-0.007 -6.0865,-0.004 -12.173,-0.0111 -18.2595,-0.0209 -6.71763,-0.007 -13.43601,-0.0259 -20.15279,0.0998 -7.21095,0.18201 -14.43111,0.47111 -21.57667,1.52954 -7.35035,1.04914 -14.68566,1.93939 -22.07966,2.60071 -7.31335,1.13621 -14.5253,2.83128 -21.89686,3.57885 -6.26914,0.87748 -12.53026,0.90115 -18.8546,0.77109 -5.30468,-0.006 -10.60988,-0.0269 -15.91409,0.0563 -4.66045,0.1165 -9.32821,0.34268 -13.93327,1.11952 -5.66397,1.02791 -11.27649,2.24093 -17.08034,2.02645 -7.22826,0.41824 -14.44119,1.07766 -21.59482,2.22123 0,0 4.52417,-3.38611 4.52417,-3.38611 z" />
    <path
       style="fill:none;stroke:#000000;stroke-width:6;stroke-linecap:round;stroke-linejoin:round;stroke-miterlimit:4;stroke-opacity:1;stroke-dasharray:none;stroke-dashoffset:24.6"
       id="path2716"
       d="m 492.36637,361.19132 c 4.47587,5.83052 7.13177,12.58211 8.82344,19.66612 1.53838,7.0589 1.07011,13.96956 -1.43921,20.70256 -2.92508,6.86899 -7.30111,12.25765 -12.95245,17.02233 -7.86316,5.9913 -16.944,9.62136 -26.35022,12.33179 -7.94955,2.34714 -15.63822,3.03662 -23.55821,0.47795 -9.73127,-4.72583 -15.371,-12.9158 -20.05823,-22.30958 -6.58175,-14.38474 -10.4107,-29.75801 -13.21283,-45.26356 -3.05446,-16.29902 -2.54153,-32.77171 -0.36362,-49.11721 1.85047,-14.5584 5.3393,-28.86358 11.6377,-42.13929 4.52762,-8.58507 10.54491,-16.13021 18.72598,-21.4065 8.04585,-5.04631 15.69527,-6.77588 24.81382,-4.60121 7.32633,1.46211 12.68413,6.10101 18.07854,10.9057 7.06642,5.88322 13.02991,12.80734 18.54303,20.12268 5.08805,6.13548 8.32377,13.40512 11.47879,20.64007 2.21462,4.95372 3.41186,10.24869 4.29206,15.57732 0.26145,0.71835 -0.0864,1.78511 0.5782,2.32691 0.20299,0.16548 1.01114,-0.24936 0.77309,-0.14015 -1.40133,0.64288 -2.74511,1.40445 -4.11766,2.10668 0.27445,-0.2987 0.54889,-0.59739 0.82334,-0.89608 0,0 5.23619,-2.20673 5.23619,-2.20673 l 0,0 c -0.26666,0.31344 -0.53332,0.62689 -0.79999,0.94033 -4.16423,2.62287 -6.91069,5.87767 -7.50563,0.52381 -0.8167,-5.29796 -1.9879,-10.55646 -4.17874,-15.47673 -3.13327,-7.19825 -6.32607,-14.43639 -11.39668,-20.53554 -5.48587,-7.29247 -11.43384,-14.17908 -18.48481,-20.02734 -5.35632,-4.7391 -10.68983,-9.25495 -17.94801,-10.65543 -3.19912,-0.70661 -6.33043,-1.2092 -9.62914,-0.86503 -1.14291,0.11925 -2.27065,0.3672 -3.38917,0.63056 -1.15013,0.2708 -2.25295,1.2126 -3.40939,0.97016 -0.65909,-0.13817 0.98705,-0.91634 1.48057,-1.37452 -8.27587,5.10972 -14.3291,12.6148 -18.91753,21.1475 -6.38953,13.1981 -9.87496,27.48588 -11.75648,42.00409 -2.20166,16.29125 -2.73332,32.71197 0.28398,48.96556 2.78217,15.4537 6.59853,30.77502 13.18805,45.09738 4.63823,9.25334 10.20509,17.35334 19.87606,21.89592 7.86311,2.41871 15.51018,1.59683 23.35374,-0.73807 9.45273,-2.7955 10.13123,-2.35463 16.70538,-6.80861 5.67074,-4.69535 10.09463,-9.92374 13.05822,-16.75589 2.58968,-6.61241 3.09445,-13.42379 1.59007,-20.40248 -1.6421,-7.01262 -4.23837,-13.70743 -8.72803,-19.43326 0,0 4.85578,-2.90221 4.85578,-2.90221 z" />
    <path
       style="fill:none;stroke:#000000;stroke-width:6;stroke-linecap:round;stroke-linejoin:round;stroke-miterlimit:4;stroke-opacity:1;stroke-dasharray:none;stroke-dashoffset:24.6"
       id="path2718"
       d="m 435.7417,266.58201 c 0.66685,-0.34186 2.52603,-1.55981 2.00055,-1.02557 -1.26989,1.29106 -3.05197,1.95256 -4.62049,2.85766 -0.41789,0.24113 -6.23891,5.76344 -7.16845,2.44342 1.37686,-3.90856 4.04507,-7.23707 6.52558,-10.50676 2.20386,-2.5006 10.26091,-10.34239 10.81897,-3.92199 -1.05496,4.49242 -2.17667,8.95314 -3.72484,13.30317 -0.56322,0.3013 -2.38185,6.49043 -0.76753,5.43789 1.71472,-0.6912 2.92001,-1.20947 -3.18279,1.86487 -0.38672,0.19481 0.74217,-0.453 1.0726,-0.73286 0.99744,-0.84477 1.69131,-1.93946 2.38414,-3.02721 1.19852,-2.15237 1.59032,-2.36018 5.51715,-2.54058 0.47902,-0.022 -0.5322,0.79803 -0.78483,1.20561 -0.30794,0.49681 -0.59768,1.00467 -0.89653,1.507 -0.38864,0.62413 -0.77729,1.24826 -1.16593,1.87239 -1.87104,3.95473 -4.39344,7.70222 -5.38645,12.00409 -10e-4,0.51892 0.64384,-0.21955 0.47928,-0.17609 -1.24835,0.32968 -2.41748,1.54698 -3.67076,1.23656 -0.70537,-0.17472 0.75407,-1.24247 1.12569,-1.86696 1.60094,-2.6903 1.01992,-1.66852 2.48029,-4.52674 0.97063,-0.39156 3.01011,-9.48411 3.14563,-9.52172 0.22523,-0.0625 0.13556,0.44741 0.20335,0.67112 1.48378,-0.71106 2.83025,-1.85166 4.45135,-2.13316 0.38489,-0.0668 -0.28952,0.61737 -1.9678,3.46133 -1.46466,2.48197 -2.90271,4.97744 -4.27894,7.50945 -0.83727,0.31333 -3.30867,8.7865 -3.56017,8.85744 -1.41828,0.40007 -2.87615,0.64352 -4.31422,0.96527 3.34764,-5.88976 6.02251,-12.12254 8.59325,-18.38204 0.51646,-1.04988 1.03196,-2.10024 1.54937,-3.14965 0.0638,-0.12934 2.95566,-5.9538 3.17518,-6.03899 6.15217,-2.38726 5.29655,-2.09592 4.10945,1.2915 -4.16078,9.89684 -8.86598,19.55279 -12.9678,29.47215 -2.13065,7.26765 -6.88881,13.76062 -8.79455,21.086 -1.4596,0.11099 -3.28217,1.30257 -4.37881,0.33296 -0.8362,-0.73934 0.80946,-2.0806 1.23527,-3.11236 2.5837,-6.26033 5.45751,-12.38158 8.5047,-18.42731 3.72871,-6.33144 5.39724,-14.14672 9.86532,-20.05536 1.75871,-0.51355 3.46713,-1.83109 5.27612,-1.54065 0.77594,0.12458 -0.21653,1.55894 -0.39447,2.32442 -0.28815,1.23967 -0.64675,2.46221 -1.00222,3.68428 -1.78306,6.13 -4.16248,11.99362 -6.50423,17.92722 -5.27663,12.55852 -10.49934,25.13894 -15.34257,37.87271 -1.35992,3.06995 -1.50318,8.27377 -7.11107,6.27341 -0.85185,-0.30386 0.30902,-1.78323 0.51367,-2.6642 0.31107,-1.33908 0.68849,-2.66189 1.03274,-3.99283 3.85476,-13.75409 8.51332,-27.26128 13.41211,-40.6728 4.52992,-9.97985 7.40529,-21.1202 13.68135,-30.224 1.49103,-1.7028 2.69229,-3.56956 6.20257,-1.38893 0.98643,0.61278 -0.11341,2.32214 -0.26079,3.47401 -0.76602,5.98702 -2.40195,11.85393 -3.84726,17.69783 -3.98594,15.39731 -8.94369,30.541 -14.46498,45.45204 -0.67292,1.70885 -1.38785,3.40175 -2.01877,5.12656 -0.33755,0.9228 -1.94215,6.58766 -2.09779,6.6592 -5.85649,2.6922 -5.29135,2.89262 -4.04767,-0.52014 4.09822,-11.77029 8.24523,-23.52045 12.62405,-35.18986 2.37797,-6.0919 5.16447,-12.02354 8.06133,-17.88395 1.24217,-2.51296 2.40155,-5.47765 4.68124,-7.23441 1.8641,-0.39143 3.81318,-1.85462 5.5923,-1.1743 1.00546,0.38448 -0.0797,2.15612 -0.24157,3.22036 -1.3973,9.18909 -4.37867,18.30489 -6.80049,27.25205 -4.35155,15.69928 -8.68312,31.42928 -12.03902,47.37743 -0.21613,-0.0188 -2.16396,14.55692 -6.61872,7.96101 -0.79672,-1.17968 0.90854,-2.69819 1.36824,-4.04544 0.59849,-1.75401 1.20421,-3.50553 1.80632,-5.2583 4.49941,-13.30548 9.49656,-26.43582 14.6394,-39.50349 0.67563,-1.65758 1.32311,-3.32691 2.0269,-4.97274 0.82248,-1.9234 1.1647,-4.3259 2.81822,-5.60725 6.37684,-4.94158 6.55385,-4.04397 5.85408,1.27134 -2.95502,13.61521 -6.36311,27.11128 -9.80893,40.60824 -1.94616,9.24167 -6.38484,18.15172 -7.04994,27.65351 1.04113,-2.0136 -1.16118,2.47464 -4.02443,0.98937 -0.95093,-0.49329 0.72183,-2.01744 1.06106,-3.03357 1.87243,-5.60861 3.61192,-11.26531 5.41248,-16.89715 4.52224,-13.89995 8.94782,-27.82005 13.92423,-41.56483 1.33085,-3.29446 2.87491,-10.72416 8.84698,-8.50448 0.95293,0.35418 -0.1935,2.02586 -0.36435,3.02802 -0.2774,1.62727 -0.65294,3.23627 -0.97941,4.85441 -4.12888,18.13019 -8.6839,36.16125 -13.52822,54.11256 -3.38061,11.68235 -6.7671,23.3632 -10.48099,34.93966 -1.54987,-0.21046 -3.76362,0.65759 -4.64961,-0.63137 -0.89601,-1.30352 0.66553,-3.09299 1.0319,-4.63175 2.50944,-10.53984 5.43166,-20.98165 8.26888,-31.43601 4.38245,-15.97637 9.29335,-31.80098 13.8988,-47.7131 1.45431,-5.50348 2.3397,-10.67108 9.25506,-11.58729 0.60342,-0.08 0.51093,2.10553 0.53472,4.69214 -1.71803,12.56312 -5.18602,24.84233 -8.0031,37.19949 -1.02834,6.40496 -2.81215,12.65484 -4.08332,19.00812 -0.41337,2.06605 -1.35694,5.59342 -0.8428,7.82769 -1.53616,0.48501 -3.07388,1.94496 -4.60847,1.45502 -0.88557,-0.28273 0.63891,-1.74652 0.92302,-2.63165 0.47735,-1.48714 0.91188,-2.98771 1.3609,-4.48365 2.03979,-6.79573 4.03868,-13.57336 5.84428,-20.43603 3.36793,-13.42454 6.95484,-26.79705 11.35137,-39.92471 1.13326,-2.81756 2.2191,-7.244 7.28387,-3.99608 0.52228,0.33492 -1.33505,13.72353 -1.44469,14.5595 -1.76996,14.08008 -3.6611,28.14876 -5.94411,42.15587 -0.9038,5.02495 -1.41461,10.12008 -2.47443,15.11692 -0.31618,1.49074 -2.94693,0.77806 -4.41442,1.18887 3.23565,-10.49996 6.62571,-20.95561 9.83976,-31.46288 3.28813,-7.68959 4.15955,-16.32581 7.6835,-23.90902 1.58266,-0.34071 3.2659,-1.67352 4.74799,-1.02213 0.87953,0.38656 -0.48358,1.85962 -0.72919,2.78843 -2.04655,7.73919 -4.06086,15.45786 -5.92577,23.24558 -2.65939,12.76024 -5.20078,25.55503 -7.39874,38.40521 -0.19279,1.18388 -0.44381,2.35972 -0.57836,3.55162 -0.23965,2.12277 1.46871,6.76384 -4.44434,3.95989 -0.82289,-0.39021 0.52209,-1.74523 0.7592,-2.62453 0.27682,-1.02657 0.52159,-2.06152 0.78238,-3.09228 1.37938,-6.24605 1.89517,-12.6301 2.40806,-18.99194 0.0253,-0.22981 -0.14783,-0.63125 0.0759,-0.68941 1.67139,-0.43444 3.53069,-1.29776 5.13783,-0.66578 0.83642,0.3289 0.0202,1.79741 0.0255,2.69616 0.0198,3.35617 0.008,6.71253 -1.4e-4,10.06871 0.60174,5.9053 1.00808,11.94848 3.09067,17.54858 0.79611,1.20322 0.67492,3.10482 1.67311,4.2066 0.85937,0.94856 7.90102,-3.33505 -3.08354,1.95272 1.43454,-3.1786 1.49049,-6.78884 1.74139,-10.21993 -0.0579,-0.015 -0.1157,-0.03 -0.17354,-0.045 1.42205,-0.38698 2.81907,-1.44011 4.26616,-1.16094 0.64243,0.12393 -0.39664,1.24704 -0.6051,1.86721 -0.90309,2.68675 -1.63421,5.32625 -2.25907,8.09431 -1.80326,5.6781 -2.98306,11.49395 -4.06962,17.33966 -0.5712,2.23515 -0.53928,3.18924 -5.50678,2.1459 -0.7845,-0.16478 -0.0478,-1.60341 -0.11747,-2.40199 -0.35049,-4.0152 -0.93302,-8.02164 -1.3456,-12.03176 -1.14522,-7.95373 -0.89356,-16.69741 -4.60619,-24.00022 -0.86843,-0.95013 -1.172,-1.83045 -2.63423,-1.62134 -0.47798,0.0684 -1.74512,0.82499 -1.29741,0.64418 6.25635,-2.52657 3.22594,-1.42419 1.14325,2.33845 -2.49714,4.90188 -3.58536,10.33427 -5.60812,15.39956 -1.27699,2.07616 -2.51247,4.45381 -6.35523,1.59901 -0.60925,-0.45261 0.24001,-10.37087 0.31468,-13.54888 0.0595,-10.33943 1.09271,-20.82053 -1.24691,-30.98461 -0.29046,-0.60888 -0.42294,-1.32266 -0.87139,-1.82663 -0.2488,-0.2796 -1.35353,-0.11101 -1.06647,-0.35116 0.99531,-0.83265 2.25004,-2.01342 3.50687,-1.6904 0.91296,0.23464 -1.31747,1.35522 -1.88622,2.10693 -2.18819,2.89207 -2.50899,3.94115 -4.189,7.28528 -4.41117,10.45497 -8.12154,21.21353 -11.39223,32.07743 -0.67205,1.12738 -2.60499,9.47354 -4.08495,10.03767 -6.04425,2.30396 -5.27851,2.96481 -5.147,-1.02507 1.85121,-13.85265 2.78301,-27.80421 4.09829,-41.71523 1.30219,-14.01391 2.34846,-28.20841 0.4664,-42.21451 -1.19883,0.32529 -0.074,-3.51846 -1.39755,-3.83919 -0.33974,-0.0823 -1.05175,0.80925 -0.70362,0.77762 1.32919,-0.12075 2.85263,-1.93995 3.85994,-1.06436 0.89999,0.7823 -0.8752,2.22189 -1.21245,3.36567 -0.46191,1.56657 -0.788,3.17003 -1.182,4.75505 -2.81854,12.35223 -4.90094,24.86918 -7.02781,37.3583 -0.59937,2.64046 0.033,14.1787 -7.03279,9.39787 -1.10141,-0.74523 -0.15186,-2.6557 -0.19013,-3.98499 -0.0544,-1.89055 -0.0587,-3.78221 -0.088,-5.67331 0.60753,-18.70333 2.28635,-37.33944 3.68232,-55.99323 0.97909,-13.44556 1.57605,-26.91489 1.96899,-40.38915 0.56276,-3.13483 1.1956,-5.63022 6.64239,-3.02291 0.55205,0.26426 1.07316,11.40595 1.10913,12.20996 -0.0406,11.07747 0.4252,22.08645 1.53032,33.10651 0.43419,3.19632 0.22477,6.89706 2.14921,9.70287 0.27474,0.40058 0.61777,0.8801 1.09704,0.95919 0.4444,0.0733 1.65625,-0.69632 1.22209,-0.57645 -1.08599,0.29983 -2.12604,0.74635 -3.18907,1.11952 5.14403,-9.60147 8.50852,-20.20664 12.0397,-30.50927 1.91516,-5.26722 3.46665,-10.6676 5.51913,-15.88602 0.19926,-0.50661 1.50056,-3.71486 1.94677,-3.83299 1.88462,-0.49893 3.88312,-0.35269 5.82468,-0.52903 2.08902,8.21285 2.54712,16.70829 3.94655,25.05474 1.15573,4.57849 2.22477,10.22852 7.76012,10.62368 -0.68226,0.24049 5.25056,-1.3725 3.87192,-1.56925 -0.99384,-0.14184 -2.3522,1.82405 -2.85606,0.95574 -0.5246,-0.90404 1.39406,-1.56145 2.01796,-2.40004 1.27634,-1.71555 2.37144,-3.55902 3.5873,-5.31795 1.69968,-2.82106 7.73725,-13.75504 12.16728,-9.70266 1.85015,4.38386 3.34031,8.89794 5.26144,13.25723 2.15224,4.29658 4.99218,8.17423 7.48033,12.27324 0,0 -4.88683,2.83447 -4.88683,2.83447 l 0,0 c -2.4847,-4.1294 -5.34093,-8.0237 -7.50367,-12.34255 -1.89593,-4.27105 -3.40615,-8.68058 -5.17166,-13.00188 -1.89652,-1.28722 -0.99117,-0.39159 3.29455,-3.03284 0.44193,-0.27236 -0.8723,0.57861 -1.23116,0.95372 -1.8141,1.8962 -2.69752,4.43 -4.2463,6.51395 -4.16276,5.94924 -8.44271,12.80594 -16.40998,13.85999 -5.6561,-0.86297 -6.9004,-6.38789 -8.08349,-11.27944 -1.38512,-8.30669 -1.85029,-16.7618 -3.94422,-24.93023 1.44301,-1.49294 2.83884,-3.03296 4.32902,-4.47881 0.34514,-0.33487 -0.65198,0.7184 -0.88621,1.1384 -0.46278,0.82981 -0.83362,1.70921 -1.19249,2.58897 -2.12221,5.20264 -3.65372,10.6246 -5.57846,15.89822 -3.52751,10.3541 -7.00388,20.88538 -11.8351,30.69609 -2.18068,1.49767 -4.24355,3.1833 -6.54203,4.49302 -4.09688,2.33447 -4.99998,-9.51738 -4.91271,-10.94755 -1.07182,-11.03119 -1.57865,-22.0476 -1.54082,-33.1341 -0.15179,-3.21808 -0.20159,-5.7162 -0.58383,-8.86969 -0.12906,-1.06478 -0.97859,-2.21021 -0.51316,-3.17654 0.93435,-1.93991 2.89038,-3.19234 4.34524,-4.77968 0.61564,-0.67171 -4.08572,4.43904 -1.00748,2.54103 -0.55731,13.50493 -1.10873,27.0124 -2.12618,40.49266 -1.39578,18.6189 -3.06258,37.22123 -3.59772,55.89298 0.0398,1.87913 0.0561,3.75891 0.11953,5.63739 0.0441,1.30741 0.80149,2.75597 0.20305,3.91922 -7.70717,14.98122 -3.14816,-2.72829 -2.96897,-4.31719 2.15068,-12.49223 4.25557,-25.00792 6.99454,-37.38421 0.0689,-0.29288 1.58347,-7.38519 2.27287,-8.20715 5.11112,-6.09383 7.06859,-6.95951 8.34792,-0.8096 1.85613,14.06199 0.77949,28.30879 -0.50723,42.37621 -1.30149,13.87339 -2.20214,27.78649 -3.96348,41.61025 -0.14816,4.24578 0.55589,2.38915 -5.10793,5.86383 -0.38222,0.23449 0.4947,-0.33611 1.52751,-2.55258 1.13019,-2.42545 1.85831,-4.84642 2.72049,-7.38656 3.2765,-10.88338 7.02713,-21.64364 11.34428,-32.15761 1.62343,-3.34578 10.22967,-20.17098 14.55209,-10.49708 2.33824,10.21442 1.30897,20.73946 1.26871,31.12927 -0.0242,1.2414 0.2811,12.61053 -0.25675,13.49601 -1.22128,2.01061 -3.42708,3.22391 -5.11285,4.86471 -0.47895,0.46616 4.07544,-3.19038 1.30318,-1.5238 2.15736,-5.01903 3.1071,-10.53395 5.59054,-15.45374 2.28021,-4.37349 8.4827,-11.97065 12.84336,-6.4685 3.71451,7.38373 3.51648,16.16925 4.6604,24.20392 0.12116,1.15276 1.86607,13.92824 1.5275,14.36636 -1.26427,1.63603 -3.14374,2.7059 -4.87876,3.83048 -0.24769,0.16054 0.18006,-0.5622 0.27009,-0.84331 1.15714,-5.84047 2.22265,-11.69693 4.09257,-17.36869 0.54825,-2.51655 3.52383,-17.74153 8.93016,-13.74228 -0.3115,3.52661 -0.38048,7.15885 -1.60075,10.51895 -7.00283,4.66467 -6.39647,5.45295 -8.76424,-1.17186 -2.0944,-5.67327 -2.51911,-11.76662 -3.14926,-17.74478 5e-5,-1.31834 -0.46238,-12.14759 -0.0579,-12.72623 1.27843,-1.82905 3.24178,-3.07943 5.01141,-4.43891 0.18113,-0.13914 -0.0753,0.45056 -0.113,0.67584 -0.60064,6.38517 -1.05574,12.80317 -2.40349,19.08866 -0.099,0.40243 -1.33077,5.54216 -1.49765,5.72442 -8.149,8.90033 -5.62996,2.36481 -5.12362,-2.63381 2.2562,-12.8638 4.8086,-25.67808 7.44643,-38.46684 1.50897,-6.36295 3.02324,-12.69708 4.72624,-19.00955 0.37607,-1.39396 0.73543,-2.79243 1.09024,-4.19195 0.23595,-0.93071 0.0174,-2.10559 0.68202,-2.79854 1.55058,-1.6167 3.72383,-2.49101 5.58575,-3.73651 -4.01959,6.51793 -4.37643,16.96643 -7.88563,23.87983 -3.19716,10.50014 -6.64579,20.92222 -9.67312,31.47506 -1.90032,1.31919 -3.73401,2.73994 -5.70095,3.95756 -0.59317,0.3672 0.12078,-1.3927 0.25514,-2.07727 0.87166,-4.44113 1.38148,-8.94611 2.18805,-13.39831 2.3166,-13.99523 4.21883,-28.057 5.94724,-42.13591 0.45772,-3.62401 1.08066,-7.23116 1.36859,-10.8726 0.092,-1.16331 -0.52559,-2.49 0.0583,-3.50033 1.1241,-1.9449 3.09514,-3.26019 4.73586,-4.79456 1.03403,-0.96699 -5.53503,6.50957 -1.95515,3.77043 -4.51319,13.09973 -8.09097,26.4908 -11.44985,39.92719 -1.7797,6.85584 -3.77468,13.61942 -5.7605,20.41688 -0.43632,1.49351 -0.85538,2.99215 -1.30767,4.4809 -0.27113,0.89244 -0.19462,2.01075 -0.86237,2.66197 -1.58326,1.54406 -3.71159,2.40572 -5.56739,3.60858 -1.48909,-6.34769 4.86985,-20.28577 4.96013,-27.13779 2.79999,-12.3018 6.21598,-24.52952 7.95191,-37.03162 -7.5e-4,-4.20051 -1.15181,-4.36411 3.89682,-6.81508 0.54814,-0.26611 -0.82921,0.90864 -1.12234,1.44281 -1.34875,2.45787 -1.73479,4.56939 -2.51468,7.32067 -4.66063,15.91534 -9.62188,31.74451 -13.98985,47.74474 -2.26178,8.38686 -4.54597,16.76517 -6.6531,25.19259 -0.51335,2.05317 -1.02875,4.10599 -1.51315,6.16618 -0.35755,1.52066 -0.16249,3.26509 -1.01251,4.57569 -1.42004,2.18948 -3.69455,3.6867 -5.54182,5.53004 3.9255,-11.55551 7.27588,-23.29694 10.70792,-35.01309 4.84233,-17.91006 9.37958,-35.90491 13.41192,-54.01599 0.31682,-1.59911 0.66784,-3.19182 0.95044,-4.79734 0.16699,-0.94874 -0.21676,-2.12064 0.39782,-2.86246 1.30346,-1.57334 3.3243,-2.37688 4.95862,-3.60301 0.21038,-0.15784 -0.5281,0.18256 -0.6829,0.39517 -1.35562,1.8619 -2.27545,4.72105 -3.06699,6.7048 -5.01218,13.73272 -9.47084,27.64129 -13.9554,41.55462 -3.0889,9.75064 -1.0878,3.41556 -3.90259,12.36615 -0.47156,1.49947 -0.93783,3.00063 -1.41622,4.49794 -0.32705,1.02361 -0.28727,2.26056 -1.00006,3.06473 -4.59778,5.18726 -3.67749,5.46901 -6.20653,3.90982 0.70207,-9.56414 5.14468,-18.52376 7.15842,-27.81761 3.43753,-13.45532 6.82995,-26.90898 9.71254,-40.49661 0.50892,-3.14299 -0.16517,-5.19404 4.3742,-6.04685 0.78381,-0.14726 -0.89584,1.32365 -1.26709,2.02949 -1.35717,2.58026 -2.62971,5.88556 -3.71284,8.50923 -5.1757,13.04203 -10.16978,26.16304 -14.62952,39.46977 -2.58487,7.62507 -1.77165,9.2129 -9.07589,14.35151 -0.3504,0.24651 0.31302,-0.79847 0.43943,-1.20782 0.71865,-2.32728 1.23973,-4.71315 2.03501,-7.01804 3.39686,-15.96304 7.76715,-31.70647 12.09244,-47.43682 2.00756,-7.45884 4.05038,-14.91815 5.75397,-22.45457 0.34854,-1.5419 0.69393,-3.08618 0.95446,-4.64536 0.16428,-0.9832 -0.28119,-2.17726 0.31857,-2.97349 1.18696,-1.57577 3.10989,-2.42822 4.66483,-3.64233 -4.82318,2.49291 -10.34352,19.9022 -13.03401,24.8504 -4.37072,11.63585 -8.513,23.35154 -12.50169,35.12368 -1.33797,3.79405 -0.45314,2.7315 -6.17617,5.44848 -0.91414,0.43399 0.51621,-1.95872 0.84366,-2.9162 2.34854,-6.86711 0.15815,-1.08712 3.35291,-9.06943 5.57836,-14.87664 10.53485,-30.01182 14.50476,-45.40019 0.94346,-3.85587 2.232,-8.8982 3.01459,-12.87186 0.30687,-1.55818 0.57775,-3.12477 0.78263,-4.69961 0.14579,-1.12059 -0.35975,-2.44013 0.26846,-3.37945 1.2364,-1.84871 3.28944,-2.99482 4.96936,-4.45231 0.34908,-0.30287 -0.64962,0.65754 -0.97444,0.98631 -6.53041,8.92346 -9.25607,20.22558 -13.86462,30.14328 -4.89846,13.37334 -9.54698,26.84717 -13.34479,40.5805 -0.33767,1.31582 -0.70227,2.62503 -1.01302,3.94747 -0.20024,0.85212 0.072,1.92887 -0.51944,2.57412 -8.786,9.58444 -4.08043,1.49753 -3.02651,-1.36719 4.89208,-12.7329 10.11322,-25.33154 15.3984,-37.90476 1.07775,-2.74205 3.9323,-9.89603 4.95506,-12.8903 0.11215,-0.32834 2.64879,-10.42733 2.92516,-10.70472 1.41358,-1.41875 3.3327,-2.222 4.99906,-3.33299 -1.59113,1.56437 -2.50275,4.05159 -3.44879,5.99246 -2.25742,4.63127 -4.4853,9.2779 -6.58691,13.98243 -2.41566,4.7617 -4.69017,9.55921 -6.82071,14.45608 -0.56334,1.29478 -1.11561,2.59448 -1.65225,3.90056 -0.41987,1.02187 -0.46363,2.27477 -1.21706,3.08277 -1.6855,1.80758 -3.91671,3.01536 -5.87507,4.52303 1.65737,-7.40938 6.93527,-13.87715 8.88467,-21.22427 4.06306,-9.9024 8.75599,-19.5318 12.88625,-29.4086 1.4706,-3.88884 0.60238,-2.86663 6.19612,-6.00368 0.36223,-0.20314 -0.39253,0.7321 -0.59877,1.09257 -1.50929,2.63783 -2.87333,5.33841 -4.21381,8.06801 -2.5536,6.26848 -5.21876,12.50233 -8.51307,18.42172 -1.9875,1.30154 -3.90608,2.71496 -5.9625,3.90461 -0.46102,0.2667 0.0635,-0.46816 0.54469,-1.69775 0.96955,-2.47775 1.76518,-5.02893 2.97483,-7.4101 0.95169,-1.78149 4.97145,-9.79109 6.21771,-10.89908 1.60135,-1.42368 3.44448,-2.54958 5.16671,-3.82436 1.19818,1.19322 -2.13393,8.38516 -2.65432,10.10447 -1.34376,2.70678 -7.00317,14.39374 -10.67597,10.12481 0.96573,-4.37983 3.4612,-8.15196 5.32868,-12.18795 3.20298,-5.09563 1.90395,-4.00343 8.49956,-7.63048 0.37465,-0.20603 -2.59706,1.33149 -0.79367,1.00767 -2.243,3.72331 -5.55949,6.54534 -10.04512,7.59305 -2.82399,-0.57424 -0.24659,-4.9294 0.21918,-6.44892 1.54251,-4.29652 2.59987,-8.6812 3.79518,-13.08603 -0.009,-0.5013 0.277,-1.262 -0.16703,-1.49485 -0.18473,-0.0969 -0.78679,0.1304 -0.62577,-0.002 7.55438,-6.22139 1.41992,-0.60398 0.2087,0.57853 -2.44283,3.2456 -4.91037,6.43599 -6.63388,10.14275 0.44412,0.0575 2.48459,-1.06457 -3.17758,2.19316 -0.71188,0.40958 1.39884,-0.861 2.09779,-1.29226 5.24204,-3.23445 1.17467,-0.76049 10.20633,-6.11188 0,0 -4.41543,3.53193 -4.41543,3.53193 z" />
    <path
       style="fill:none;stroke:#000000;stroke-width:6;stroke-linecap:round;stroke-linejoin:round;stroke-miterlimit:4;stroke-opacity:1;stroke-dasharray:none;stroke-dashoffset:24.6"
       id="path2720"
       d="m 445.37497,322.04306 c -0.0428,11.0273 -0.0444,22.05472 -0.0541,33.08209 -0.0164,16.34732 -0.0161,32.69465 -0.0166,49.04199 0.3617,14.63901 -0.12199,29.21879 -1.25682,43.80893 -0.31543,9.07955 -1.74949,18.02407 -3.14726,26.98112 -0.30662,4.5698 -1.45449,8.91729 -2.89025,13.24082 -0.62773,1.59999 -0.95027,3.29357 -1.14967,4.99425 -0.01,0.10458 -0.0198,0.20916 -0.0298,0.31375 0,0 -5.10656,2.54554 -5.10656,2.54554 l 0,0 c 0.009,-0.10928 0.0179,-0.21856 0.0269,-0.32784 0.18872,-1.73594 0.47386,-3.48628 1.12166,-5.1153 1.47412,-4.29845 2.68671,-8.61183 2.97394,-13.1754 1.43871,-8.95252 2.90136,-17.89347 3.23256,-26.97439 1.16429,-14.58601 1.70658,-29.15888 1.33091,-43.79766 -4.8e-4,-16.34171 -2e-4,-32.6834 -0.0166,-49.0251 -0.01,-11.00901 -0.0112,-22.01807 -0.0541,-33.02701 0,0 5.03565,-2.56579 5.03565,-2.56579 z" />
    <path
       style="fill:none;stroke:#000000;stroke-width:6;stroke-linecap:round;stroke-linejoin:round;stroke-miterlimit:4;stroke-opacity:1;stroke-dasharray:none;stroke-dashoffset:24.6"
       id="path2722"
       d="m 425.69637,468.07011 c 2.15131,11.40222 3.48016,22.92651 5.30514,34.38129 1.73025,7.3668 0.90199,15.5371 4.3666,22.42326 0.0646,2.39204 5.29603,-0.47395 4.03846,0.41365 -7.31684,5.1643 -1.09752,-0.7862 -0.0191,-2.15696 4.25606,-6.42675 7.51072,-13.43332 11.08619,-20.24299 1.66193,-3.50313 3.51428,-6.90946 5.36426,-10.3151 0,0 5.13149,-2.29934 5.13149,-2.29934 l 0,0 c -1.86661,3.40087 -3.74273,6.7996 -5.38705,10.31603 -3.59713,6.81153 -6.84035,13.82653 -11.01395,20.31847 -3.08115,4.03521 -9.03539,11.02536 -14.11607,6.76524 -3.46499,-6.96798 -2.67942,-15.16735 -4.36247,-22.62157 -1.80824,-11.45361 -3.11666,-22.98142 -5.38847,-34.35819 0,0 4.99493,-2.62379 4.99493,-2.62379 z" />
    <path
       style="fill:none;stroke:#000000;stroke-width:6;stroke-linecap:round;stroke-linejoin:round;stroke-miterlimit:4;stroke-opacity:1;stroke-dasharray:none;stroke-dashoffset:24.6"
       id="path2724"
       d="m 505.37497,487.75735 c -0.0301,6.47194 -0.0197,12.94403 0.004,19.41598 1.73891,4.57476 -5.82003,7.86143 -4.27695,3.20775 1.2437,-5.25108 3.07484,-10.32921 5.56156,-15.11539 4.33765,-7.52581 6.17107,-8.28896 14.27156,-11.94257 5.12332,0.90649 6.05727,6.12256 6.73626,10.50266 0.61182,5.67838 0.62972,11.39696 0.63812,17.10131 -0.0389,2.93914 0.99987,5.5284 -4.77985,4.01151 -0.26184,-0.0687 0.53328,-2.21962 1.26708,-4.33444 2.4936,-6.78301 5.93389,-12.99313 10.14854,-18.83983 4.78821,-6.11833 11.35989,-12.3385 19.38581,-13.53061 5.35612,0.55139 6.68409,5.43045 7.51527,9.98177 1.00947,5.76055 0.64166,11.36745 -0.51278,17.04654 0.055,1.5255 -1.77641,3.83355 -0.71472,5.21696 0,0 -4.9084,2.89715 -4.9084,2.89715 l 0,0 c -1.19306,-1.7536 0.2881,-3.74973 0.53522,-5.65159 1.19101,-5.61596 1.63266,-11.14687 0.62246,-16.85955 -0.75927,-4.26167 -1.89973,-9.02945 -7.06026,-9.22782 -4.70982,0.89596 0.12662,0.28443 0.52433,-1.54898 0.20698,-0.95413 -1.65137,1.04446 -2.44187,1.61745 -3.02025,2.1892 -5.62496,4.78412 -7.79393,7.82943 -4.23369,5.78748 -7.70061,11.92614 -10.18013,18.67739 -0.27487,0.75255 -0.59291,1.49071 -0.82462,2.25764 -0.19726,0.65292 0.0119,1.50129 -0.45986,1.99384 -6.69502,6.98955 -5.30624,5.17886 -5.35994,1.02952 0.0162,-5.68047 0.008,-11.3759 -0.58461,-17.03193 -0.60963,-4.02673 -1.35116,-9.23799 -6.27491,-9.72855 1.00673,-0.79591 2.14529,-1.44883 3.0202,-2.38772 0.43079,-0.4623 -1.14297,0.55393 -1.65563,0.92336 -2.64454,1.90564 -4.05951,5.15301 -5.96881,7.68325 -2.53563,4.72481 -4.41185,9.77748 -5.56829,15.01787 -1.39521,4.09428 -7.67078,8.32038 -5.90401,1.77319 0.0233,-6.47322 0.0339,-12.94659 0.004,-19.4198 0,0 5.03565,-2.56579 5.03565,-2.56579 z" />
    <path
       style="fill:none;stroke:#000000;stroke-width:6;stroke-linecap:round;stroke-linejoin:round;stroke-miterlimit:4;stroke-opacity:1;stroke-dasharray:none;stroke-dashoffset:24.6"
       id="path2726"
       d="m 598.05904,489.81866 c -4.76889,3.96308 -8.55121,8.66813 -11.02854,14.34532 -1.15306,2.83916 -1.37598,6.23068 1.03523,8.40968 -0.31044,2.17354 7.60062,-2.23298 5.40065,-1.2312 -3.70022,1.68495 -4.40022,2.64839 -1.6847,0.0891 2.95739,-3.0162 5.22504,-6.67193 6.98531,-10.49598 1.34179,-3.36097 1.39626,-3.38234 6.91226,-4.44452 0.57481,-0.11069 2.45319,3.45561 2.69956,3.8553 2.20646,3.98067 5.22216,7.36943 7.85203,11.06429 2.87906,3.74774 5.74995,7.46183 8.14225,11.54594 2.75389,5.17191 4.75362,10.25914 4.94339,16.1398 -0.60418,7.34914 -5.24233,12.70042 -10.51498,17.39174 -10.52021,7.70298 -22.18626,13.12101 -34.70466,16.55312 -9.93875,2.92593 -19.82619,1.74178 -29.75781,-0.30191 0,0 4.57316,-3.18354 4.57316,-3.18354 l 0,0 c 9.88883,2.01344 19.72133,3.05557 29.59015,0.0984 9.32206,-2.62826 17.48923,-5.3214 25.11105,-11.05665 5.24376,-4.5358 9.93344,-9.72109 10.68457,-16.9268 -0.12976,-5.80423 -2.08842,-10.78753 -4.81217,-15.88805 -2.38822,-4.06695 -5.26912,-7.75522 -8.1252,-11.49896 -2.6283,-3.71075 -5.66133,-7.10231 -7.88385,-11.08804 -0.53097,-0.85963 -1.17609,-1.95682 -1.79913,-2.76015 -0.21875,-0.28205 -0.95182,-0.51009 -0.72635,-0.78679 6.41193,-7.86876 3.70664,-2.84422 2.96912,-1.06809 -1.73654,3.87914 -3.98041,7.59948 -6.91034,10.69559 -2.83277,2.80805 -9.29179,8.47633 -13.78314,6.28353 -2.47134,-2.40209 -2.56295,-5.92488 -1.32865,-9.03616 2.40133,-5.76808 6.15862,-10.53838 10.91079,-14.59811 0,0 5.25,-2.10687 5.25,-2.10687 z" />
    <path
       style="fill:none;stroke:#000000;stroke-width:6;stroke-linecap:round;stroke-linejoin:round;stroke-miterlimit:4;stroke-opacity:1;stroke-dasharray:none;stroke-dashoffset:24.6"
       id="path2728"
       d="m 176.13013,262.50433 c 7.10141,0.97263 14.23586,1.69722 21.38686,2.18038 4.23316,0.25723 8.47414,0.30672 12.7138,0.31584 2.41609,-0.17569 3.27442,-0.10898 3.69394,2.43146 0.25127,4.9521 0.18269,9.92114 -0.27158,14.85645 -1.41807,10.14283 -1.63154,20.39071 -2.60617,30.57101 -1.32995,10.96238 -2.11067,21.97348 -2.54158,33.00433 -0.38937,9.64933 0.99781,19.26168 1.73705,28.86918 0.54429,7.12482 0.73733,14.26809 0.82595,21.41087 0.0488,5.7803 0.0339,11.5609 0.0277,17.34133 -0.0134,5.78737 -0.0141,11.57478 -0.005,17.36215 0.13868,2.98239 0.38532,5.25245 -1.99004,7.31254 -5.22292,4.18226 -10.68281,3.98071 -16.79292,5.28262 -6.48558,1.04191 -12.52233,3.51038 -18.50529,6.11088 -4.73617,1.80607 -9.22753,4.19924 -13.79943,6.38617 -3.33216,0.21346 -2.56369,-4.50209 -2.61606,-6.70513 0.36972,-9.30461 1.59225,-18.56656 2.16117,-27.87681 1.33686,-14.39177 2.69882,-28.77274 4.80396,-43.07542 2.19368,-15.07166 4.0658,-30.18936 6.26984,-45.25867 1.93903,-11.71104 3.12348,-23.50872 3.71629,-35.35829 0.0664,-7.81438 1.54847,-15.51254 2.39658,-23.26107 0.2221,-4.93026 1.17415,-9.97826 0.42404,-14.89283 -0.55454,-2.9402 -1.62319,-5.73982 -2.19139,-8.67362 -0.22809,-1.06419 -0.29756,-2.14457 -0.34782,-3.22824 0,0 5.06152,-2.60579 5.06152,-2.60579 l 0,0 c 0.0398,1.05921 0.0913,2.11629 0.30357,3.15852 0.54175,2.94614 1.60186,5.75627 2.17796,8.69812 0.83659,4.95312 -0.18242,10.06312 -0.38388,15.04253 -0.8445,7.74906 -2.36884,15.44052 -2.45565,23.25364 -0.5905,11.87577 -1.78675,23.69809 -3.74516,35.43226 -2.2274,15.06748 -4.08294,30.18988 -6.27816,45.2631 -2.11406,14.28153 -3.45698,28.64199 -4.7889,43.01415 -0.53811,9.28206 -1.71412,18.51929 -2.09552,27.79102 0.0412,1.68695 -0.85048,6.48647 2.02747,5.74431 4.55968,-2.17278 9.04428,-4.53525 13.76732,-6.33483 6.00418,-2.6037 12.0986,-4.97147 18.59471,-6.03694 1.65618,-0.34828 17.48702,-4.06525 7.02227,0.24682 2.56286,-1.8876 2.39194,-3.78801 2.22687,-6.86294 0.0124,-5.78945 0.0179,-11.57893 0.0167,-17.36839 0.007,-5.77921 0.0218,-11.55854 -0.0191,-17.33766 -0.0772,-7.13737 -0.24922,-14.2758 -0.77506,-21.39647 -0.72423,-9.63084 -2.12903,-19.26437 -1.74963,-28.93465 0.42321,-11.04185 1.20814,-22.06408 2.53566,-33.03735 0.99354,-10.1699 1.16267,-20.41207 2.5647,-30.54857 0.46689,-4.8857 0.48268,-9.79497 0.26794,-14.69933 -0.30932,-2.24348 -1.1409,-1.78415 -3.25579,-1.75782 -4.23832,-0.0293 -8.4779,-0.0839 -12.70859,-0.365 -7.16036,-0.51517 -14.30108,-1.27623 -21.41914,-2.20749 0,0 4.61843,-3.25637 4.61843,-3.25637 z" />
    <path
       style="fill:none;stroke:#000000;stroke-width:6;stroke-linecap:round;stroke-linejoin:round;stroke-miterlimit:4;stroke-opacity:1;stroke-dasharray:none;stroke-dashoffset:24.6"
       id="path2730"
       d="m 212.34476,264.10437 c -6.26046,5.1805 -11.93172,11.11807 -17.18147,17.31409 -0.71109,0.90922 -1.42217,1.81844 -2.13326,2.72765 0,0 -5.16834,2.21579 -5.16834,2.21579 l 0,0 c 0.71323,-0.91775 1.42646,-1.83549 2.13969,-2.75324 5.20719,-6.22847 10.89852,-12.14915 17.09337,-17.39742 0,0 5.25001,-2.10687 5.25001,-2.10687 z" />
    <path
       style="fill:none;stroke:#000000;stroke-width:6;stroke-linecap:round;stroke-linejoin:round;stroke-miterlimit:4;stroke-opacity:1;stroke-dasharray:none;stroke-dashoffset:24.6"
       id="path2732"
       d="m 192.97905,298.96169 c -3.90926,8.34895 -7.44555,16.871 -11.55916,25.12212 -1.62342,3.95515 -3.64953,7.71675 -5.6976,11.46137 0,0 -5.12908,2.29561 -5.12908,2.29561 l 0,0 c 2.07694,-3.73322 4.15073,-7.4765 5.73623,-11.45453 4.14219,-8.2181 7.67063,-16.72703 11.49807,-25.09385 0,0 5.15154,-2.33072 5.15154,-2.33072 z" />
    <path
       style="fill:none;stroke:#000000;stroke-width:6;stroke-linecap:round;stroke-linejoin:round;stroke-miterlimit:4;stroke-opacity:1;stroke-dasharray:none;stroke-dashoffset:24.6"
       id="path2734"
       d="m 201.55048,318.96169 c -3.53885,7.47713 -6.98396,14.98637 -10.31817,22.55607 -2.98817,7.60976 -6.07608,15.12848 -9.63248,22.48855 -2.42829,4.38887 -4.66003,8.86716 -6.35222,13.59063 0,0 -5.12452,2.39399 -5.12452,2.39399 l 0,0 c 1.6819,-4.75325 3.88312,-9.27234 6.36365,-13.66305 3.55884,-7.35936 6.71347,-14.84577 9.65451,-22.47725 3.34231,-7.55784 6.76934,-15.06615 10.25769,-22.55822 0,0 5.15154,-2.33072 5.15154,-2.33072 z" />
    <path
       style="fill:none;stroke:#000000;stroke-width:6;stroke-linecap:round;stroke-linejoin:round;stroke-miterlimit:4;stroke-opacity:1;stroke-dasharray:none;stroke-dashoffset:24.6"
       id="path2736"
       d="m 209.79237,353.28043 c -6.24164,8.23075 -11.40325,17.08321 -16.11482,26.25168 -5.11068,10.1129 -10.41481,20.12338 -15.58197,30.20755 -2.83185,5.40388 -5.86512,10.64178 -9.56304,15.49806 0,0 -5.19494,2.23035 -5.19494,2.23035 l 0,0 c 3.76278,-4.81537 6.83304,-10.02444 9.6711,-15.43372 5.19285,-10.07554 10.47515,-20.10358 15.59871,-30.21438 4.68487,-9.1694 9.78563,-18.04267 16.00897,-26.27487 0,0 5.17599,-2.26467 5.17599,-2.26467 z" />
    <path
       style="fill:none;stroke:#000000;stroke-width:6;stroke-linecap:round;stroke-linejoin:round;stroke-miterlimit:4;stroke-opacity:1;stroke-dasharray:none;stroke-dashoffset:24.6"
       id="path2738"
       d="m 209.79237,410.42328 c -5.66793,9.27093 -11.723,18.32054 -17.06123,27.78653 -2.30558,4.34519 -4.83456,8.5642 -7.36388,12.7808 0,0 -5.12166,2.26877 -5.12166,2.26877 l 0,0 c 2.55037,-4.21142 5.10262,-8.42452 7.40403,-12.77977 5.2938,-9.47464 11.39946,-18.47504 16.96675,-27.79165 0,0 5.17599,-2.26468 5.17599,-2.26468 z" />
    <path
       style="fill:none;stroke:#000000;stroke-width:6;stroke-linecap:round;stroke-linejoin:round;stroke-miterlimit:4;stroke-opacity:1;stroke-dasharray:none;stroke-dashoffset:24.6"
       id="path2740"
       d="m 478.96419,510.70121 c 5.23344,0.33313 10.333,-0.18734 15.31632,-1.79678 0.31741,-0.12129 1.25763,-0.51276 0.95221,-0.36386 -5.29871,2.58316 -7.3519,3.06161 -12.65231,4.14435 -5.19575,0.59354 -10.23658,1.97918 -15.35362,3.02367 -3.13655,0.76158 -6.57607,0.60296 -9.64175,1.25497 5.38094,-4.11354 6.47687,-3.36989 12.12497,-3.39415 2.0601,-0.004 4.12018,-0.013 6.18025,-0.0248 3.44878,-0.19782 -3.76238,3.34732 -5.9425,3.34585 0,0 4.60092,-3.34274 4.60092,-3.34274 l 0,0 c 3.38661,-0.002 -1.24613,3.54818 -3.27026,3.34942 -2.05362,-0.001 -4.10725,0.002 -6.16085,0.0114 -1.83611,0.006 -3.6727,0.0223 -5.5088,0.005 -0.36262,-0.003 -1.2973,0.27742 -1.08776,-0.0186 0.95531,-1.34945 2.36792,-2.30814 3.55188,-3.46221 3.23043,-0.1871 6.47053,-0.52996 9.65541,-1.13531 5.1169,-1.04924 10.16955,-2.39144 15.36063,-3.0315 3.65713,-0.77648 12.81993,-3.23432 2.70173,3.11222 -5.02662,1.50123 -10.15948,1.91958 -15.39874,1.64527 0,0 4.57227,-3.32195 4.57227,-3.32195 z" />
    <path
       style="fill:none;stroke:#000000;stroke-width:6;stroke-linecap:round;stroke-linejoin:round;stroke-miterlimit:4;stroke-opacity:1;stroke-dasharray:none;stroke-dashoffset:24.6"
       id="path2742"
       d="m 645.03684,493.93142 c 8.68136,0.0895 17.43939,0.43591 26.08105,-0.53049 5.03833,-0.73556 10.06585,-1.54416 15.08184,-2.41894 1.098,-0.39243 2.89303,-0.49903 1.48098,1.07643 -2.48433,2.78315 -5.54604,4.88677 -8.49015,7.13932 -5.12028,3.40929 -10.12949,6.96816 -15.15602,10.50992 -2.14781,2.16648 -22.58876,13.27125 -10.19193,6.38035 1.28928,0.45324 4.81881,0.36688 6.70755,0.38412 5.98179,0.0127 11.96359,-0.0187 17.94535,-0.034 4.88856,0.47643 9.4916,-0.56299 14.16235,-1.80724 1.2207,-0.33782 2.44315,-0.6726 3.64819,-1.06356 0,0 -4.51295,3.49222 -4.51295,3.49222 l 0,0 c -1.20571,0.36151 -2.41883,0.69779 -3.63529,1.02115 -4.68761,1.21837 -9.33451,2.09953 -14.22024,1.67072 -5.98767,0.0148 -11.97535,0.045 -17.96305,0.0389 -1.75292,-0.0153 -6.93134,0.74371 -7.42456,-1.61892 1.89439,-1.13053 3.7765,-2.28191 5.68318,-3.39158 0.48863,-0.28438 1.97383,-1.09966 1.50107,-0.78961 -0.97268,0.63792 -1.99515,1.19676 -3.00421,1.77542 -6.58528,3.77643 12.66256,-7.28668 6.0582,-3.99154 5.04622,-3.50653 9.99412,-7.14741 15.16091,-10.48446 2.91342,-2.25313 5.99884,-4.27906 8.47249,-7.03978 0.80987,-0.78771 1.80444,0.009 -0.76163,0.14962 -5.00605,0.84128 -10.01859,1.64838 -15.04667,2.34748 -8.68383,0.8691 -17.46737,0.59504 -26.18193,0.44385 0,0 4.60547,-3.25934 4.60547,-3.25934 z" />
    <path
       style="fill:none;stroke:#000000;stroke-width:6;stroke-linecap:round;stroke-linejoin:round;stroke-miterlimit:4;stroke-opacity:1;stroke-dasharray:none;stroke-dashoffset:24.6"
       id="path2744"
       d="m 661.6362,462.87251 c 4.16987,-6.70728 7.88437,-13.69576 12.48776,-20.12286 3.41215,-5.9537 8.0133,-8.2381 14.02111,-11.13674 3.22857,0.35394 4.96713,3.81318 6.48768,6.36366 1.46106,3.02754 3.13838,5.87752 4.16933,9.09772 1.3417,2.06008 2.557,4.20227 3.96593,6.22565 0,0 -4.89428,2.88076 -4.89428,2.88076 l 0,0 c -1.43819,-2.07161 -2.69873,-4.25259 -4.04735,-6.37613 -0.99532,-3.18898 -2.66085,-5.99504 -4.10031,-8.98654 -1.40339,-2.36362 -3.03143,-5.75373 -6.11825,-5.78325 8.21029,-5.52405 2.04606,-1.75399 0.68333,-0.58214 -1.98558,1.70744 -3.5428,3.91901 -5.003,6.06207 -4.68054,6.35945 -8.37025,13.36105 -12.47596,20.09313 0,0 -5.17599,2.26467 -5.17599,2.26467 z" />
    <path
       style="fill:none;stroke:#000000;stroke-width:6;stroke-linecap:round;stroke-linejoin:round;stroke-miterlimit:4;stroke-opacity:1;stroke-dasharray:none;stroke-dashoffset:24.6"
       id="path2746"
       d="m 656.17996,267.55264 c -5.48165,-1.92673 -11.10752,-3.4216 -16.84227,-4.35317 -3.48791,-0.62761 -6.75075,-0.81381 -10.12478,0.24262 -0.56577,0.28372 -2.2702,1.12024 -1.69731,0.85117 1.08255,-0.50843 2.03129,-1.61131 3.22655,-1.5694 0.78922,0.0277 -1.16672,1.06528 -1.72682,1.62199 -2.13888,2.12596 -4.09579,4.36426 -5.97463,6.71939 -4.56926,5.60811 -8.73766,11.4474 -12.65606,17.52185 -3.78529,6.28608 -7.56019,12.52654 -10.91677,19.05172 -2.75064,5.81613 -5.01865,11.81381 -6.37606,18.10504 -1.26504,6.80947 -1.36082,13.75422 -1.46222,20.65722 -0.5338,5.96331 0.42816,11.50091 2.49249,17.05045 1.53857,4.82189 3.78726,9.42099 6.65329,13.58723 2.39721,3.61194 5.24893,6.96624 8.38447,9.96208 2.58268,2.36118 5.19963,4.54483 8.53224,5.70709 2.66574,0.71306 12.55492,-4.61522 4.48586,-0.38196 3.36292,-2.65474 6.16588,-5.8457 8.60507,-9.34326 2.43461,-3.10861 3.48194,-6.80677 4.09494,-10.6343 0.85213,-2.23823 1.42591,-4.3491 1.70133,-6.65536 -0.29356,-1.19822 -0.66307,-1.92148 -1.75573,-2.49219 -0.81218,-0.85588 -6.37892,2.15426 -5.45662,1.67527 3.47284,-1.80362 4.04965,-2.34086 1.35863,-0.39055 -1.49358,1.85027 -11.9446,7.97244 -6.52595,1.22464 3.7846,-3.51411 8.28389,-6.73678 13.34133,-4.53431 3.25242,1.71089 5.26739,5.00759 6.84329,8.21514 0.466,0.74176 1.14837,4.61213 2.633,3.56985 -1.42273,0.73181 -2.84545,1.46363 -4.26818,2.19544 0,0 5.26274,-2.16654 5.26274,-2.16654 l 0,0 c -1.84625,1.13737 -3.69251,2.27475 -5.53877,3.41212 -2.0967,-0.23442 -2.25862,-2.62868 -3.0181,-4.21025 -1.50476,-3.09904 -3.44232,-6.2824 -6.62666,-7.86136 -1.30498,-0.48601 -1.50382,-0.7114 -2.87333,-0.67533 -0.48833,0.0129 -1.80621,0.53093 -1.45261,0.19389 5.95739,-5.67838 2.99521,-1.08482 0.92202,-0.34575 -0.67568,0.71674 -0.95376,1.79702 -1.7432,2.38612 -10.4754,7.81705 -4.59962,2.29963 -2.21722,0.68267 3.31831,-2.46893 9.44671,-7.6298 14.13467,-6.47558 1.24805,0.76642 1.69156,1.76963 2.12401,3.1376 -0.34444,0.73083 0.11397,1.3749 -0.11131,2.20526 -0.40562,1.49508 -1.44303,2.83885 -1.64167,4.41369 -0.59372,3.88175 -1.54413,7.70312 -4.00063,10.87165 -2.43475,3.54195 -5.18547,6.77845 -8.51807,9.53161 -4.45469,2.68008 -8.96349,6.21785 -14.46232,5.62311 -3.34708,-1.28089 -6.03788,-3.48968 -8.64916,-5.91175 -3.14161,-3.04492 -6.02974,-6.41088 -8.436,-10.06547 -2.8782,-4.21302 -5.16867,-8.84095 -6.71763,-13.70944 -2.09309,-5.61159 -3.12332,-11.20862 -2.57163,-17.24526 0.10095,-6.93385 0.18098,-13.90926 1.41334,-20.75499 1.32149,-6.34265 3.56432,-12.37522 6.31185,-18.24068 3.3724,-6.53568 7.10791,-12.81044 10.90903,-19.10787 3.9176,-6.08035 8.02427,-11.96232 12.61526,-17.562 4.33106,-5.57183 9.04942,-10.66936 15.8397,-13.30548 3.40889,-0.96796 6.78763,-0.61913 10.2612,-0.0228 5.74873,0.98763 11.38196,2.52539 16.89717,4.42256 0,0 -4.68177,3.17654 -4.68177,3.17654 z" />
    <path
       style="fill:none;stroke:#000000;stroke-width:6;stroke-linecap:round;stroke-linejoin:round;stroke-miterlimit:4;stroke-opacity:1;stroke-dasharray:none;stroke-dashoffset:24.6"
       id="path2748"
       d="m 671.23399,355.24545 c -4.29847,5.5132 -6.96762,11.95606 -8.83202,18.63587 -0.2955,1.93987 -0.47476,4.037 1.20632,5.44578 0.33334,0.27934 0.75347,0.49941 1.18614,0.54354 0.48495,0.0495 1.82013,-0.57631 1.4361,-0.27607 -1.02369,0.80033 -2.29108,1.22673 -3.43662,1.8401 3.33199,-2.65852 7.57655,-9.70164 12.63819,-6.43148 2.63174,2.5757 5.75889,4.98899 9.52401,5.31189 -0.60908,1.48732 6.50388,-2.47686 4.72263,-1.51794 -6.91208,3.72107 -2.02939,0.48851 -0.44951,-1.15544 2.30901,-2.89172 4.47858,-5.78312 5.83108,-9.24697 0.43845,-1.22178 0.7876,-2.47398 0.99892,-3.75443 0.16209,-0.72207 0.72026,-1.17324 1.20934,-1.68689 0,0 5.25929,-2.18866 5.25929,-2.18866 l 0,0 c -0.42845,0.43578 -1.00253,0.95966 -1.3526,1.34222 -0.16609,1.33247 -0.5376,2.6271 -0.96915,3.89741 -1.31748,3.54978 -3.44287,6.48371 -5.75249,9.45714 -3.71496,3.96726 -8.51672,7.91647 -14.12624,8.13058 -3.79507,-0.60303 -6.93025,-2.89536 -9.66528,-5.5091 -2.48713,-1.43576 -1.44382,-0.35584 2.37778,-3.70503 0.3503,-0.307 -0.74052,0.57015 -1.06653,0.90282 -1.31836,1.3453 -2.36114,2.97445 -3.88739,4.12069 -2.13815,1.19031 -4.17909,2.57511 -6.41447,3.57091 -3.57532,1.5927 -5.09956,-4.44027 -4.35903,-6.66797 1.83229,-6.73054 4.48952,-13.22719 8.71944,-18.83644 0,0 5.20209,-2.22253 5.20209,-2.22253 z" />
    <path
       style="fill:none;stroke:#000000;stroke-width:6;stroke-linecap:round;stroke-linejoin:round;stroke-miterlimit:4;stroke-opacity:1;stroke-dasharray:none;stroke-dashoffset:24.6"
       id="path2750"
       d="m 711.22352,374.6199 c 3.07654,4.82647 5.31878,9.42195 2.75998,14.88634 -2.29116,2.82722 -5.1841,4.00584 -8.49024,5.83743 -0.30679,0.16996 -1.29327,0.5432 -0.97389,0.39827 4.77752,-2.16786 4.11087,-3.57646 4.71532,-1.03455 1.34128,2.76871 2.38341,5.6014 3.02893,8.60941 -0.54749,4.63411 -7.04155,6.64083 -10.69487,8.21868 -4.00836,1.34478 -8.2906,1.45033 -12.47846,1.59848 -2.90047,0.0536 -1.48755,0.0331 -4.23873,0.0634 0,0 4.57676,-3.33308 4.57676,-3.33308 l 0,0 c 2.74198,-0.0314 1.33305,-0.008 4.22674,-0.0734 4.15784,-0.16845 8.42023,-0.2897 12.35778,-1.77623 2.21433,-1.00419 3.17194,-1.51459 -1.74685,1.31148 -1.60528,0.92231 4.58492,-2.48776 2.99448,-3.32791 -0.62064,-3.00397 -1.65258,-5.82739 -3.01951,-8.57537 -0.12631,-0.41656 -0.67176,-0.92762 -0.37892,-1.24966 2.33386,-2.56659 10.54618,-6.66883 2.3637,-2.2105 -0.98173,0.53491 4.04995,-2.49549 2.59797,-2.12126 2.95419,-5.57052 0.59027,-9.30458 -2.45597,-14.31938 0,0 4.85578,-2.90221 4.85578,-2.90221 z" />
    <path
       style="fill:none;stroke:#000000;stroke-width:6;stroke-linecap:round;stroke-linejoin:round;stroke-miterlimit:4;stroke-opacity:1;stroke-dasharray:none;stroke-dashoffset:24.6"
       id="path2752"
       d="m 650.73091,313.56098 c 8.81903,0.0268 17.63811,0.0112 26.45717,0.0117 6.87727,2.6e-4 13.75454,-0.007 20.6318,-0.0123 3.81718,0.002 7.63435,-0.009 11.45153,-0.01 1.31506,-0.006 2.63015,-0.004 3.94523,-0.008 0.17472,-3.7e-4 0.34944,-10e-4 0.52417,-0.002 0,0 -4.62186,3.35797 -4.62186,3.35797 l 0,0 c -0.17274,-8.1e-4 -0.34547,-0.002 -0.51821,-0.002 -1.30745,-0.004 -2.6149,-0.002 -3.92234,-0.008 -3.80844,-2.1e-4 -7.61688,-0.0112 -11.42532,-0.01 -6.86596,-0.005 -13.73192,-0.0126 -20.59788,-0.0123 -8.82977,4.9e-4 -17.65957,-0.0151 -26.48932,0.0117 0,0 4.56503,-3.31669 4.56503,-3.31669 z" />
    <path
       style="fill:none;stroke:#000000;stroke-width:6;stroke-linecap:round;stroke-linejoin:round;stroke-miterlimit:4;stroke-opacity:1;stroke-dasharray:none;stroke-dashoffset:24.6"
       id="path2754"
       d="m 712.9629,288.6003 c 5.62724,3.09466 11.89777,4.63235 17.7747,7.08884 2.73801,1.42158 6.27467,1.77646 8.2189,4.33131 1.30946,2.66761 -2.44913,5.72795 -4.05673,7.48063 -4.68138,4.08583 -9.56675,7.92642 -14.58561,11.58753 -4.55359,3.53441 -9.50441,6.4998 -14.24677,9.76836 -1.15456,0.80061 -2.30158,1.61211 -3.43466,2.44285 -0.008,0.0799 -0.0617,0.0307 -0.0925,0.046 0,0 -5.2883,2.16291 -5.2883,2.16291 l 0,0 c 0.0256,-0.0315 0.006,-0.0943 0.0767,-0.0945 1.1289,-0.86575 2.3065,-1.66604 3.46885,-2.48573 4.7499,-3.27907 9.71632,-6.24021 14.28737,-9.76868 5.00985,-3.64667 9.86091,-7.48155 14.60099,-11.47492 1.37823,-1.48106 5.17836,-4.52907 4.37973,-6.75434 -1.87494,-2.41424 -5.47635,-2.65664 -8.0219,-4.10468 -5.89012,-2.4084 -12.08571,-4.09127 -17.7626,-7.04909 0,0 4.68178,-3.17654 4.68178,-3.17654 z" />
    <path
       style="fill:none;stroke:#000000;stroke-width:6;stroke-linecap:round;stroke-linejoin:round;stroke-miterlimit:4;stroke-opacity:1;stroke-dasharray:none;stroke-dashoffset:24.6"
       id="path2756"
       d="m 793.22586,310.32736 c 7.63452,-0.56412 14.65169,-2.85507 21.33499,-6.44298 -0.83209,0.38174 -1.68501,1.5694 -2.49629,1.14521 -0.69376,-0.36274 1.24187,-0.95982 1.79904,-1.50978 1.88574,-1.86133 2.63997,-3.77943 2.52543,-6.37158 -1.45858,-4.31413 -5.86367,-4.9311 -9.79848,-4.21166 -8.75838,2.67696 -5.77135,1.57981 -11.95768,7.6957 -5.50819,5.70007 -11.06701,11.30872 -14.80896,18.35284 -2.40408,5.13995 -3.18985,9.87743 -1.04192,15.14072 1.83565,3.17614 4.63361,4.42744 8.08783,5.02328 3.16024,0.32313 6.34388,0.22048 9.51505,0.19106 2.90237,-0.12389 5.68063,-1.41442 8.49103,-2.20161 6.54065,-2.27988 -1.01571,2.89202 -4.05224,0.6714 -0.29323,-0.16098 -0.58645,-0.32197 -0.87968,-0.48296 0,0 4.76905,-3.09849 4.76905,-3.09849 l 0,0 c 0.30434,0.18234 0.60869,0.36468 0.91303,0.54702 3.36731,2.63246 -2.69824,5.44322 -5.25203,5.82654 -2.82398,0.7997 -5.60802,2.10585 -8.57235,2.07451 -3.19492,0.0299 -6.40844,0.13627 -9.58502,-0.27595 -3.59808,-0.7187 -6.47889,-2.2071 -8.36985,-5.51391 -2.35067,-5.73763 -1.5916,-9.92063 0.84754,-15.592 3.67183,-7.13553 9.22266,-12.77936 14.7573,-18.51703 6.02482,-6.06563 13.16827,-11.35901 21.6567,-13.23098 4.30078,-0.55301 8.7425,0.44949 10.32305,4.99454 0.50742,6.91761 -6.01869,9.82919 -11.25871,12.87155 -6.7281,3.54877 -13.85081,5.64748 -21.471,6.30067 0,0 4.52417,-3.38611 4.52417,-3.38611 z" />
    <path
       style="fill:none;stroke:#000000;stroke-width:6;stroke-linecap:round;stroke-linejoin:round;stroke-miterlimit:4;stroke-opacity:1;stroke-dasharray:none;stroke-dashoffset:24.6"
       id="path2758"
       d="m 790.20763,277.15822 c 4.63329,-6.86544 9.1175,-13.80687 14.47144,-20.14443 3.1561,-3.33965 8.69824,-10.10992 13.36531,-6.3919 1.83025,3.08948 3.15064,6.4412 4.49859,9.76018 1.36964,3.92182 2.46806,7.88557 3.92166,11.78725 0.95495,2.86144 1.38195,5.8671 1.71081,8.85622 -0.62388,-0.70499 -5.06338,3.87101 -3.30214,0.0795 0,0 5.159,-2.36418 5.159,-2.36418 l 0,0 c -1.00438,2.39916 -4.52651,7.62429 -6.9017,4.92094 -0.28546,-2.95094 -0.69024,-5.91761 -1.61999,-8.74258 -1.43965,-3.90168 -2.56551,-7.84993 -3.90255,-11.77759 -1.31332,-3.22229 -2.60659,-6.47251 -4.37087,-9.48018 -0.60211,-0.42225 -0.93656,-0.79935 -1.75166,-0.76205 -0.44462,0.0204 -1.62724,0.62626 -1.29332,0.33199 7.01417,-6.18106 0.8342,0.85848 -0.33659,1.59057 -5.41585,6.26432 -9.87839,13.20123 -14.472,20.07155 0,0 -5.17599,2.26467 -5.17599,2.26467 z" />
    <path
       style="fill:none;stroke:#000000;stroke-width:6;stroke-linecap:round;stroke-linejoin:round;stroke-miterlimit:4;stroke-opacity:1;stroke-dasharray:none;stroke-dashoffset:24.6"
       id="path2760"
       d="m 838.67718,325.74316 c 4.20151,1.94355 9.29955,2.25147 13.20889,4.77975 1.29158,1.11415 2.38593,2.28831 1.90287,4.03971 -1.90924,2.58572 -4.37011,4.70725 -7.08703,6.39909 -4.05442,2.69447 -8.22325,5.2523 -12.80997,6.92181 -0.22854,0.0761 -0.89769,0.34243 -0.68562,0.22821 2.00229,-1.07848 3.90776,-2.40476 6.06478,-3.12554 0.70823,-0.23666 6.20348,1.89942 7.06557,2.30286 1.39569,1.00873 4.20317,1.8664 4.27711,3.82825 -3.27474,4.23501 -8.71769,6.49317 -13.23782,8.93755 -4.09567,1.41395 -8.41911,1.7529 -12.69991,2.14827 0,0 4.52081,-3.35007 4.52081,-3.35007 l 0,0 c 4.2581,-0.41132 8.56542,-0.77985 12.60076,-2.31669 -7.20569,4.75926 2.76568,-1.62715 3.69281,-2.92358 0.68952,-0.93826 -3.28546,-2.76026 -3.87536,-3.19091 -2.61769,-1.14342 -13.14202,-2.29302 -3.24287,-6.04389 0.81591,-0.31037 1.23203,-0.45812 2.06622,-0.82693 0.46592,-0.206 1.80269,-0.9368 1.38618,-0.6435 -6.91828,4.87166 -2.00565,0.81369 -0.41387,0.0976 2.75077,-1.61487 5.08633,-3.67687 7.20161,-6.06906 0.90319,-1.30837 -0.53827,-2.4849 -1.49863,-3.3369 -3.96343,-2.37196 -8.91245,-2.82898 -13.1183,-4.6795 0,0 4.68177,-3.17653 4.68177,-3.17653 z" />
  </g>
</svg>
