<?xml version="1.0" encoding="UTF-8" standalone="no"?>
<!-- Created with Inkscape (http://www.inkscape.org/) -->
<svg
   xmlns:dc="http://purl.org/dc/elements/1.1/"
   xmlns:cc="http://creativecommons.org/ns#"
   xmlns:rdf="http://www.w3.org/1999/02/22-rdf-syntax-ns#"
   xmlns:svg="http://www.w3.org/2000/svg"
   xmlns="http://www.w3.org/2000/svg"
   xmlns:sodipodi="http://sodipodi.sourceforge.net/DTD/sodipodi-0.dtd"
   xmlns:inkscape="http://www.inkscape.org/namespaces/inkscape"
   width="705.87097"
   height="612.46979"
   id="svg2783"
   sodipodi:version="0.32"
   inkscape:version="0.46+devel"
   version="1.0"
   sodipodi:docname="c40d2.svg"
   inkscape:output_extension="org.inkscape.output.svg.inkscape">
  <sodipodi:namedview
     id="base"
     pagecolor="#ffffff"
     bordercolor="#666666"
     borderopacity="1.0"
     inkscape:pageopacity="0.0"
     inkscape:pageshadow="2"
     inkscape:zoom="0.63591912"
     inkscape:cx="352.93549"
     inkscape:cy="388.41417"
     inkscape:document-units="px"
     inkscape:current-layer="layer1"
     showgrid="false"
     inkscape:window-width="1280"
     inkscape:window-height="712"
     inkscape:window-x="-5"
     inkscape:window-y="-3" />
  <defs
     id="defs2785">
    <inkscape:perspective
       sodipodi:type="inkscape:persp3d"
       inkscape:vp_x="0 : 526.18109 : 1"
       inkscape:vp_y="0 : 1000 : 0"
       inkscape:vp_z="744.09448 : 526.18109 : 1"
       inkscape:persp3d-origin="372.04724 : 350.78739 : 1"
       id="perspective2791" />
  </defs>
  <metadata
     id="metadata2788">
    <rdf:RDF>
      <cc:Work
         rdf:about="">
        <dc:format>image/svg+xml</dc:format>
        <dc:type
           rdf:resource="http://purl.org/dc/dcmitype/StillImage" />
        <dc:title />
      </cc:Work>
    </rdf:RDF>
  </metadata>
  <g
     inkscape:label="Layer 1"
     inkscape:groupmode="layer"
     id="layer1"
     transform="translate(-147.86651,-296.03266)">
    <path
       style="fill:none;stroke:#000000;stroke-width:6;stroke-linecap:round;stroke-linejoin:round;stroke-miterlimit:4;stroke-opacity:1;stroke-dasharray:none;stroke-dashoffset:24.6"
       id="path2793"
       d="m 257.80628,905.50245 c 1.38318,-9.42322 1.88624,-18.94034 2.2416,-28.44796 0.44362,-12.24289 1.7878,-24.42805 2.42785,-36.66656 1.50022,-16.97528 2.58856,-33.97799 3.95044,-50.96432 1.53306,-21.00057 2.03613,-42.04878 3.23056,-63.06888 1.07334,-22.89272 1.858,-45.78395 3.69326,-68.63279 2.06695,-24.65618 4.66965,-49.27041 7.55074,-73.84444 2.66507,-25.91415 6.39357,-51.69977 9.49033,-77.56322 2.86573,-25.47264 5.04033,-50.98818 6.24249,-76.59222 1.40221,-20.51867 2.6392,-41.04308 3.31059,-61.59938 -0.0517,-13.11864 -1.20787,-26.19479 -1.87502,-39.28889 -0.78551,-6.89571 -1.47228,-13.84252 -3.69958,-20.43872 -0.95036,-2.07573 -0.94342,-7.53899 -4.21679,-5.71683 1.31499,-0.65571 2.50938,-1.65375 3.94498,-1.96714 0.501,-0.10937 -0.5753,0.84965 -0.83942,1.2892 -1.48894,2.47791 -2.9031,5.02547 -4.31231,7.54943 -2.15915,4.67165 -4.13738,9.41595 -6.22161,14.12016 -1.60337,3.63589 -3.30437,7.30514 -5.71221,10.48415 -1.44068,1.68876 -2.25255,3.06859 -5.49334,2.24344 -0.6654,-0.16943 0.76057,-1.14365 1.15707,-1.70424 2.82772,-3.99801 0.15411,0.003 2.96618,-4.29503 3.73291,-5.15051 6.88636,-10.68309 10.41806,-15.96194 4.20598,-6.99841 6.36008,-8.22935 13.84427,-11.75493 3.90392,0.59966 6.7527,4.31394 9.51864,6.91708 4.63307,5.52332 8.80981,11.48488 12.90483,17.4273 1.69525,2.5187 3.29878,5.09686 4.84748,7.70758 0,0 -4.9152,2.84221 -4.9152,2.84221 l 0,0 c -1.51496,-2.61408 -3.09259,-5.19177 -4.77451,-7.70254 -4.06896,-5.9111 -8.22061,-11.84974 -12.86534,-17.30994 -2.63962,-2.46301 -5.4442,-6.2037 -9.24738,-6.46644 1.13327,-0.82817 2.28597,-1.63038 3.39982,-2.48449 0.45424,-0.34832 -0.9841,0.59472 -1.41969,0.9661 -2.47373,2.10909 -4.42016,4.87775 -6.12891,7.60329 -3.59031,5.23124 -6.64455,10.82806 -10.41529,15.94721 -3.66326,5.74226 -3.41689,5.78227 -10.21884,9.57307 -0.51953,0.28954 3.23532,-2.6792 1.20889,-1.31236 2.48264,-3.10024 4.18152,-6.75102 5.7908,-10.36617 2.06726,-4.72257 4.12106,-9.44481 6.19752,-14.16447 0.69162,-1.27047 4.26379,-8.36352 5.05659,-8.98621 1.80047,-1.41415 3.85177,-2.47587 5.77766,-3.7138 3.52583,-0.99887 3.82578,4.19368 4.69781,6.508 2.24128,6.65441 2.91087,13.65482 3.70744,20.60971 0.64429,13.12221 1.74986,26.22814 1.81193,39.37271 -0.69152,20.57232 -1.96484,41.1115 -3.38489,61.64549 -1.22257,25.61914 -3.38135,51.15102 -6.25096,76.63967 -3.09507,25.8599 -6.81682,51.64254 -9.47369,77.55368 -2.89251,24.56448 -5.47738,49.17248 -7.54641,73.82018 -1.83972,22.84077 -2.61166,45.72502 -3.67697,68.61032 -1.18853,21.01876 -1.69089,42.0643 -3.19538,63.0651 -1.33937,16.97131 -2.40385,33.95869 -3.89286,50.91815 -0.61447,12.23104 -1.93938,24.40789 -2.394,36.64043 -0.34178,9.51235 -0.84714,19.02866 -2.14626,28.46645 0,0 -5.07097,2.4938 -5.07097,2.4938 z" />
    <path
       style="fill:none;stroke:#000000;stroke-width:6;stroke-linecap:round;stroke-linejoin:round;stroke-miterlimit:4;stroke-opacity:1;stroke-dasharray:none;stroke-dashoffset:24.6"
       id="path2795"
       d="m 272.85592,781.37171 c 9.24422,-2.99298 18.61988,-5.11273 28.24971,-6.3895 12.63255,-1.8616 25.28929,-3.63303 37.97773,-5.08023 16.29033,-1.63267 32.67712,-1.78357 49.03316,-1.9498 19.80773,-0.99554 39.61169,-1.9312 59.43939,-2.41874 20.80228,-0.59145 41.62021,-0.11492 62.41623,-0.84926 19.72581,-0.64327 39.39315,-2.12243 59.07584,-3.49469 16.77242,-1.20381 33.58542,-1.58775 50.39454,-1.8042 12.97403,0.0167 25.88849,-1.44305 38.83144,-2.19355 8.35221,-0.46139 16.71509,-0.67764 25.07869,-0.77251 2.43465,-0.0165 4.86953,-0.0462 7.30428,-0.0289 -5.62187,1.80654 -4.54801,3.3768 -5.6853,0.49734 0,0 4.96056,-2.76782 4.96056,-2.76782 l 0,0 c 1.24726,3.1428 0.79271,0.90978 -3.89363,5.6193 -2.4146,-0.0284 -4.82952,-0.0143 -7.24415,-6.5e-4 -8.33685,0.0844 -16.67322,0.28396 -24.99865,0.74687 -12.93417,0.7576 -25.84322,2.19308 -38.81023,2.14681 -16.78878,0.21049 -33.58069,0.60254 -50.33307,1.7979 -19.68096,1.37474 -39.34866,2.83297 -59.07305,3.46885 -20.7968,0.70126 -41.61354,0.25577 -62.41562,0.84239 -19.83825,0.50324 -39.65201,1.46505 -59.47184,2.43279 -16.36141,0.18509 -32.75425,0.35625 -49.04645,2.03052 -12.69471,1.4733 -25.35986,3.24071 -38.00084,5.1109 -9.63278,1.3192 -19.01661,3.48497 -28.25656,6.52724 0,0 4.46782,-3.47103 4.46782,-3.47103 z" />
    <path
       style="fill:none;stroke:#000000;stroke-width:6;stroke-linecap:round;stroke-linejoin:round;stroke-miterlimit:4;stroke-opacity:1;stroke-dasharray:none;stroke-dashoffset:24.6"
       id="path2807"
       d="m 276.22667,777.76285 c 6.21407,-4.64427 12.88002,-8.59855 19.55533,-12.52715 11.51116,-6.36455 15.36419,-8.36406 23.02023,-12.76104 6.39412,-3.48048 13.18372,-6.13475 19.51032,-9.74157 -0.47104,0.26107 -1.85647,1.08892 -1.4131,0.78322 7.05709,-4.86591 14.77229,-9.05005 22.22095,-13.24424 7.77818,-4.39133 13.82408,-7.65577 23.23177,-12.4566 8.84428,-3.98518 17.87146,-7.56959 26.66031,-11.6733 8.5924,-3.57954 17.11663,-7.33805 25.47582,-11.43453 8.139,-3.98827 16.02254,-8.45867 24.05598,-12.65272 8.66792,-4.45881 17.62253,-8.34115 26.6546,-11.99643 8.93888,-3.48005 17.58408,-7.62691 26.36387,-11.4674 7.64412,-3.55328 15.03761,-7.61964 22.55065,-11.43781 6.2872,-3.31926 12.55459,-6.6922 18.95692,-9.78646 8.1e-4,-4.2e-4 5.25884,-2.75674 5.44006,-2.92724 0.66834,-0.62884 -1.6204,0.86186 -2.43059,1.29279 2.39948,-1.38875 4.79142,-2.79063 7.19846,-4.16627 0.68967,-0.39415 2.77866,-1.54078 2.09118,-1.14281 -0.92576,0.5359 -1.87078,1.0378 -2.80617,1.55671 3.95241,-2.52958 0.92685,-0.63664 8.35765,-4.87533 0.62866,-0.3586 2.51166,-1.4395 1.87972,-1.0867 -1.04367,0.58267 -2.02075,1.29539 -3.11503,1.77636 -1.25627,0.55216 2.27143,-1.5411 3.38491,-2.34314 3.79164,-2.34757 0.76734,-0.50444 7.97947,-4.60876 1.09387,-0.6225 -4.38957,2.46494 -3.28781,1.85652 3.59695,-1.9863 6.32049,-3.79802 10.01611,-5.05497 2.77934,-1.67352 5.76104,-2.81834 8.88395,-3.64244 -5.80566,2.79086 -4.05064,2.08631 -4.02883,-1.4049 0,0 5.05465,-2.57808 5.05465,-2.57808 l 0,0 c 0.0628,4.49486 -0.16829,3.97383 -5.53296,7.44336 -3.10276,0.86217 -6.00614,2.14529 -8.84419,3.6673 -1.13818,0.42368 -4.32139,2.15564 -3.35565,1.41924 0.96083,-0.73266 4.14944,-2.47677 3.09344,-1.88955 -5.5185,3.06874 -9.61309,5.70252 -3.05046,1.73515 0.54948,-0.33219 -1.10848,0.64837 -1.66272,0.97256 -3.23968,2.37427 -6.34353,4.1335 -9.9324,6.21046 -0.62842,0.36369 -2.50117,1.47428 -1.89274,1.07805 1.00565,-0.6549 2.0289,-1.28619 3.08568,-1.85492 0.61604,-0.33153 -1.17393,0.7613 -1.76089,1.14195 -10.86924,6.37782 -7.36774,4.48 -19.16397,10.93585 -6.37886,3.12654 -12.65497,6.46276 -18.93472,9.78215 -7.49983,3.83891 -14.90703,7.87565 -22.56003,11.40448 -8.76064,3.88119 -17.4404,7.94225 -26.36549,11.44813 -9.02287,3.67848 -17.97771,7.55848 -26.63128,12.04728 -8.01855,4.22334 -15.92862,8.63909 -24.06342,12.63834 -8.36711,4.07849 -16.89914,7.81336 -25.47828,11.42224 -8.80607,4.06562 -17.82171,7.66826 -26.64924,11.69116 -8.22803,4.20166 -14.18586,7.16119 -23.23428,12.47763 0.39438,-0.26727 1.59662,-1.03843 1.18313,-0.8018 -4.69022,2.6841 -9.16828,5.73801 -13.80096,8.51402 -2.7105,1.62419 -5.46368,3.17608 -8.19552,4.76412 -6.35772,3.54775 -13.14213,6.22376 -19.51425,9.74686 0.6356,-0.37744 2.54514,-1.50509 1.9068,-1.13231 -5.38716,3.14604 -11.12071,6.86847 -16.9028,9.39349 -0.58276,0.25449 1.05991,-0.70293 1.58987,-1.05439 -6.6547,3.92621 -13.32734,7.82626 -19.54404,12.43657 0,0 -5.25001,2.10687 -5.25001,2.10687 z" />
    <path
       style="fill:none;stroke:#000000;stroke-width:6;stroke-linecap:round;stroke-linejoin:round;stroke-miterlimit:4;stroke-opacity:1;stroke-dasharray:none;stroke-dashoffset:24.6"
       id="path2811"
       d="m 606.33923,613.0139 c 2.91883,6.26368 5.83205,12.50169 9.10264,18.5894 2.46856,5.39523 5.25433,10.64479 7.36294,16.19569 1.54765,5.79345 3.95561,11.29018 5.84001,16.96903 2.22443,6.69908 4.31634,13.45904 5.9686,20.32444 2.06659,5.94918 3.09753,12.18008 4.78339,18.22442 1.45992,3.9 2.04738,8.01118 3.61087,11.86845 1.53695,3.71881 3.34079,7.18853 4.25632,11.13373 0.76447,3.93889 2.15456,7.71233 3.03873,11.62955 0.29247,1.57157 0.71211,3.13424 0.81255,4.73447 0.13487,0.77702 -0.22234,1.26558 -0.69836,1.82143 0,0 -5.26795,2.16929 -5.26795,2.16929 l 0,0 c 0.53961,-0.41786 1.04077,-0.60703 0.9005,-1.37881 -0.0506,-1.57556 -0.47317,-3.11622 -0.73978,-4.66296 -0.86133,-3.92413 -2.26331,-7.69347 -3.02702,-11.63155 -0.89095,-3.92273 -2.69299,-7.35852 -4.2216,-11.05004 -1.57088,-3.88171 -2.17902,-8.00181 -3.62237,-11.93387 -1.70863,-6.04646 -2.66507,-12.30779 -4.76898,-18.25677 -1.63778,-6.85137 -3.7326,-13.59517 -5.962,-20.27421 -1.8709,-5.67526 -4.2997,-11.15657 -5.82967,-16.94735 -2.08811,-5.53355 -4.87996,-10.75344 -7.32235,-16.13451 -3.25938,-6.09845 -6.16167,-12.3481 -9.13006,-18.59211 0,0 4.91359,-2.79772 4.91359,-2.79772 z" />
    <path
       style="fill:none;stroke:#000000;stroke-width:6;stroke-linecap:round;stroke-linejoin:round;stroke-miterlimit:4;stroke-opacity:1;stroke-dasharray:none;stroke-dashoffset:24.6"
       id="path2813"
       d="m 627.14163,701.37171 c 5.84584,-1.70894 11.59067,-3.65661 17.33375,-5.6817 5.3956,-1.75563 10.76198,-3.6927 16.00933,-5.86083 7.00317,-3.1606 13.76676,-6.78656 20.62984,-10.2394 10.67625,-5.61795 9.39142,-5.12488 20.5826,-11.43776 6.08638,-2.56695 12.01495,-5.45393 17.98425,-8.28176 5.0381,-2.628 10.27399,-4.93198 15.5603,-7.02244 0.91732,-1.03671 8.92879,-3.49284 1.57789,-0.54083 -0.65039,0.26119 1.15924,-0.78974 1.76223,-1.14699 2.1841,-1.294 4.40864,-2.51875 6.59698,-3.80556 0.97244,-0.57182 -1.966,1.10696 -2.94899,1.66044 4.12004,-2.68386 8.4211,-5.06004 13.0693,-6.65947 -6.13542,3.09167 -3.69217,2.95683 -6.49439,1.01465 0,0 4.80493,-3.04765 4.80493,-3.04765 l 0,0 c 2.93148,2.24213 1.64667,1.93587 -2.801,5.53347 -1.66585,0.59883 -6.64596,3.49742 -4.6347,1.92831 0.40938,-0.31938 5.91465,-3.60194 1.33301,-0.80587 -6.51151,3.80696 -4.81022,3.39829 -16.70505,9.36141 -5.2628,2.14 -10.50113,4.39919 -15.52987,7.04406 -5.94543,2.85297 -11.91679,5.62207 -17.94409,8.29009 0.45926,-0.2965 1.86228,-1.14267 1.37778,-0.8895 -7.4324,3.88369 -14.36529,8.72399 -21.96918,12.30976 -6.86446,3.46798 -13.64383,7.0839 -20.67162,10.21598 -5.27352,2.13247 -10.62998,4.10244 -16.04188,5.85087 -5.74833,2.02073 -11.51709,3.91898 -17.34923,5.68175 0,0 4.46781,-3.47103 4.46781,-3.47103 z" />
    <path
       style="fill:none;stroke:#000000;stroke-width:6;stroke-linecap:round;stroke-linejoin:round;stroke-miterlimit:4;stroke-opacity:1;stroke-dasharray:none;stroke-dashoffset:24.6"
       id="path2815"
       d="m 744.70156,628.21862 c 7.81612,1.13054 15.69115,1.73931 23.57185,2.18199 4.60782,0.23668 9.22191,0.30423 13.83507,0.31366 3.87234,0.9885 1.83582,4.55669 0.48515,7.01192 -4.37502,7.00616 -9.06627,13.81735 -13.73347,20.63259 -4.7709,6.15269 -8.82636,12.98398 -14.57002,18.30676 -2.11203,1.62463 -1.09368,0.90744 -3.03293,2.18264 0,0 -5.28622,2.05611 -5.28622,2.05611 l 0,0 c 1.97794,-1.22407 0.93956,-0.53308 3.09335,-2.10536 5.88521,-5.17402 9.86065,-12.09694 14.67426,-18.20722 4.65891,-6.78787 9.30784,-13.5939 13.69105,-20.56206 1.141,-1.94417 3.65055,-5.39866 0.0857,-5.98161 -4.6059,-0.0347 -9.21269,-0.11106 -13.81246,-0.36718 -7.89541,-0.47604 -15.78254,-1.11142 -23.61973,-2.20587 0,0 4.61843,-3.25637 4.61843,-3.25637 z" />
    <path
       style="fill:none;stroke:#000000;stroke-width:6;stroke-linecap:round;stroke-linejoin:round;stroke-miterlimit:4;stroke-opacity:1;stroke-dasharray:none;stroke-dashoffset:24.6"
       id="path2827"
       d="m 293.20181,767.09833 c 8.88395,-2.04645 17.67164,-4.44563 26.44912,-6.90286 8.8453,-2.91048 17.79642,-5.4291 26.72666,-8.04489 1.23194,-0.38396 2.46388,-0.76792 3.69581,-1.15188 0,0 -4.43996,3.43412 -4.43996,3.43412 l 0,0 c -1.22981,0.37827 -2.45962,0.75654 -3.68942,1.13481 -8.93879,2.58296 -17.8628,5.18212 -26.7232,8.03509 -8.79464,2.46321 -17.61331,4.81378 -26.49509,6.94197 0,0 4.47608,-3.44636 4.47608,-3.44636 z" />
    <path
       style="fill:none;stroke:#000000;stroke-width:6;stroke-linecap:round;stroke-linejoin:round;stroke-miterlimit:4;stroke-opacity:1;stroke-dasharray:none;stroke-dashoffset:24.6"
       id="path2829"
       d="m 396.05895,741.38405 c 8.35689,-1.85823 16.11043,-5.57298 23.89746,-9.01082 4.05335,-2.02902 8.39124,-3.24402 12.80886,-4.1502 0,0 -4.51435,3.42393 -4.51435,3.42393 l 0,0 c -4.38087,0.92987 -8.66075,2.21326 -12.6904,4.20842 -7.80684,3.45301 -15.61116,7.07197 -23.97764,8.97503 0,0 4.47607,-3.44636 4.47607,-3.44636 z" />
    <path
       style="fill:none;stroke:#000000;stroke-width:6;stroke-linecap:round;stroke-linejoin:round;stroke-miterlimit:4;stroke-opacity:1;stroke-dasharray:none;stroke-dashoffset:24.6"
       id="path2831"
       d="m 470.36871,721.75593 c 8.02566,-1.12647 15.89596,-3.08681 23.92286,-4.25485 5.33491,-0.62137 10.46426,-2.28884 15.75204,-3.21155 3.79938,-0.4222 7.34247,-1.97606 11.04834,-2.87621 0,0 -4.5076,3.44484 -4.5076,3.44484 l 0,0 c -3.69358,0.92866 -7.2464,2.45006 -11.0573,2.83651 -5.2668,0.96413 -10.3996,2.587 -15.73026,3.17335 -8.03225,1.1923 -15.91522,3.14395 -23.95224,4.27403 0,0 4.52416,-3.38612 4.52416,-3.38612 z" />
    <path
       style="fill:none;stroke:#000000;stroke-width:6;stroke-linecap:round;stroke-linejoin:round;stroke-miterlimit:4;stroke-opacity:1;stroke-dasharray:none;stroke-dashoffset:24.6"
       id="path2833"
       d="m 553.22586,698.89879 c 7.99047,-1.00021 15.9908,-1.56262 23.91724,-3.00492 4.35394,-0.83461 8.73073,-1.51572 13.12973,-2.05896 0,0 -4.54479,3.38794 -4.54479,3.38794 l 0,0 c -4.37868,0.53907 -8.73311,1.23249 -13.06849,2.05205 -7.9425,1.41252 -15.96736,1.92612 -23.95786,3.01 0,0 4.52417,-3.38611 4.52417,-3.38611 z" />
    <path
       style="fill:none;stroke:#000000;stroke-width:6;stroke-linecap:round;stroke-linejoin:round;stroke-miterlimit:4;stroke-opacity:1;stroke-dasharray:none;stroke-dashoffset:24.6"
       id="path2835"
       d="m 436.15135,725.73542 c 6.81079,1.58573 12.92215,4.63717 17.51485,9.95352 2.94582,4.05855 2.62556,7.805 0.78405,12.1951 -1.31897,2.72963 -3.14072,5.13566 -5.0071,7.50338 0,0 -5.20284,2.22431 -5.20284,2.22431 l 0,0 c 1.87197,-2.32815 3.70529,-4.68783 5.06716,-7.36409 1.83365,-4.20055 2.41582,-7.68325 -0.47577,-11.6437 -4.5473,-5.24149 -10.61618,-8.1482 -17.34122,-9.67651 0,0 4.66087,-3.19201 4.66087,-3.19201 z" />
    <path
       style="fill:none;stroke:#000000;stroke-width:6;stroke-linecap:round;stroke-linejoin:round;stroke-miterlimit:4;stroke-opacity:1;stroke-dasharray:none;stroke-dashoffset:24.6"
       id="path2837"
       d="m 506.94828,730.10259 c -5.57516,6.95918 -12.45968,11.53179 -20.08854,15.92517 -3.36507,1.55769 -8.14919,3.0625 -9.88457,-1.26559 0.17406,-4.00547 3.17483,-7.01088 5.83232,-9.71316 5.02924,-3.20515 10.09545,-7.64657 16.12958,-8.44913 4.13216,-0.0918 7.60473,2.51251 10.87186,4.74705 3.41351,2.71573 6.90161,5.16929 10.96096,6.8013 3.20724,1.0684 6.58567,1.11828 9.92867,1.17322 1.98216,-0.49484 1.04595,-0.18918 2.817,-0.89084 0,0 -4.47441,3.49559 -4.47441,3.49559 l 0,0 c -1.84155,0.61179 -0.8661,0.36078 -2.93504,0.71847 -3.39321,-0.0739 -6.81756,-0.17727 -10.04739,-1.34655 -4.05609,-1.70148 -7.56403,-4.1984 -11.01267,-6.90699 -3.20082,-2.15347 -6.58282,-4.68523 -10.63564,-4.38672 -2.18018,0.4411 -6.50299,3.22641 -0.85444,-0.5475 4.7021,-3.14157 -10.26993,6.00502 -5.52348,3.43054 -2.6411,2.55113 -5.408,5.36886 -6.09292,9.11238 1.44236,4.00889 6.57683,1.76253 9.30922,0.48046 -0.82018,0.4893 -3.05675,2.21397 -2.46054,1.46789 0.66534,-0.83259 1.82384,-1.10891 2.68043,-1.74305 3.82746,-2.83349 6.91512,-6.54459 10.27751,-9.88001 0,0 5.20209,-2.22253 5.20209,-2.22253 z" />
    <path
       style="fill:none;stroke:#000000;stroke-width:6;stroke-linecap:round;stroke-linejoin:round;stroke-miterlimit:4;stroke-opacity:1;stroke-dasharray:none;stroke-dashoffset:24.6"
       id="path2843"
       d="m 272.64952,438.99471 c -6.45813,8.5269 -11.19856,18.14644 -15.35765,27.95529 -3.72784,9.93727 -6.14601,20.21423 -3.60883,30.67476 4.16083,9.34812 10.61425,10.77056 20.12391,10.62108 13.06389,-1.43108 25.23247,-6.44047 36.93604,-12.1429 9.38113,-5.51787 17.23402,-12.56317 24.00276,-21.01142 4.39225,-5.76261 7.10493,-12.36751 8.22494,-19.48222 0.48983,-2.52122 -0.32072,-5.45413 1.51928,-7.50234 0.78021,0.64976 15.81588,-9.28068 1.65627,0.50963 -1.59295,0.85259 -5.91789,2.71164 1.45726,-0.97355 0.44374,-0.22172 -0.83442,0.53755 -1.2366,0.82794 -1.31561,0.94997 -1.80461,1.42059 -3.08765,2.51979 -3.6056,2.95908 -6.41098,6.70069 -9.58901,10.07994 0.0288,1.5937 -9.94013,6.87813 -5.24027,2.44976 3.95565,-4.20744 7.83054,-8.48913 11.81266,-12.67325 5.65647,-6.51888 12.62073,-11.00258 20.07183,-15.15889 4.0239,-2.05384 7.4795,-1.85541 11.03661,0.81587 3.49273,3.36348 5.9081,7.54511 8.72162,11.4337 1.89548,2.37754 3.55976,2.99714 6.42808,2.43086 0,0 -4.53853,3.40354 -4.53853,3.40354 l 0,0 c -2.99102,0.32881 -4.83996,-0.53909 -6.75191,-2.96085 -2.77065,-3.84776 -5.16542,-7.97607 -8.64107,-11.27494 -3.50327,-2.49432 -6.85258,-2.31665 -10.65852,-0.31741 0.81745,-0.52489 1.51444,-1.8278 2.45234,-1.57466 0.92176,0.24878 -1.61329,1.02469 -2.37949,1.59432 -3.78208,2.81176 -7.30067,6.04748 -10.55358,9.4449 -3.97947,4.1767 -7.8768,8.42677 -11.75869,12.6936 -3.44285,3.04447 -12.15248,8.50128 -5.22061,1.86867 3.24509,-3.32703 5.95724,-7.15568 9.56745,-10.12722 3.75797,-3.3091 7.93455,-6.04748 12.55591,-8.05158 -1.2629,0.98522 -2.5258,1.97044 -3.7887,2.95566 0.0221,0.0391 0.0931,0.0812 0.0663,0.11728 -0.13375,0.18018 -0.84285,0.26642 -0.65892,0.13787 2.90409,-2.0296 5.49594,-3.29891 3.54974,-2.33166 -2.20916,1.68198 -1.22976,4.74814 -1.72327,7.17663 -1.07084,7.20645 -3.76895,13.91695 -8.1682,19.7778 -2.32666,2.93416 -4.51173,5.87117 -7.20336,8.49956 -7.656,7.4761 -17.04326,12.86978 -26.24537,18.15033 -11.76208,5.68192 -24.01076,10.67289 -37.13461,11.98426 -9.77316,0.006 -16.2822,-1.70382 -20.53651,-11.24663 -2.59541,-10.57024 -0.24649,-20.94718 3.49403,-31.01554 4.1155,-9.818 8.81679,-19.46356 15.22828,-28.0133 0,0 5.176,-2.26468 5.176,-2.26468 z" />
    <path
       style="fill:none;stroke:#000000;stroke-width:6;stroke-linecap:round;stroke-linejoin:round;stroke-miterlimit:4;stroke-opacity:1;stroke-dasharray:none;stroke-dashoffset:24.6"
       id="path2845"
       d="m 173.20181,167.20594 c 4.85688,-1.10214 9.33666,-3.24062 13.69177,-5.59736 0.66322,-0.3589 -2.23086,1.71766 -2.03436,0.98962 0.23765,-0.88052 1.46974,-1.08027 2.20461,-1.62041 2.97586,-2.70973 5.53836,-5.59386 6.76501,-9.46413 0.80709,-3.12091 0.82944,-6.36098 0.85468,-9.56287 -0.0102,-3.1964 -0.032,-6.39275 -0.0514,-9.58911 0.0992,-3.57609 -0.30319,-7.18275 0.30422,-10.71825 0.70807,-4.16895 2.56451,-7.86702 4.69032,-11.47116 2.56189,-3.72879 5.9403,-6.87442 9.30879,-9.87623 5.38022,-3.665392 11.00452,-7.095491 17.37247,-8.613362 4.13171,-1.059136 8.31216,-3.196821 12.65168,-2.917355 2.82018,0.646719 3.76699,4.152704 4.80522,6.569758 1.20571,3.167464 1.42179,6.537089 1.56968,9.886619 0.11216,3.24912 0.0779,6.50088 0.0712,9.75126 0.32469,3.84437 -0.32111,7.4533 -1.28436,11.14926 -0.93415,3.33777 -1.27636,6.77239 -1.49032,10.21775 0.25587,3.05528 -1.04886,5.76363 -1.81341,8.64002 -0.95499,3.32354 0.21108,6.448 2.49094,8.90159 2.79953,2.03495 6.13864,2.41841 9.48822,2.62045 3.79428,-0.1245 7.76847,0.62973 11.47308,-0.33425 2.65482,-0.86385 5.36342,-1.55513 8.06752,-2.24646 -1.89649,0.76156 -3.79298,1.52312 -5.68947,2.28467 0,0 4.82983,-2.98556 4.82983,-2.98556 l 0,0 c -1.2204,1.38711 -2.4408,2.77423 -3.6612,4.16134 -2.70096,0.68841 -5.39172,1.41629 -8.06107,2.21951 -3.79262,0.70819 -7.72605,0.17603 -11.5648,0.20067 -3.47363,-0.25328 -6.90168,-0.76249 -9.73082,-2.9794 -2.32791,-2.59309 -3.70993,-5.89959 -2.75658,-9.3961 0.70617,-2.86687 2.11735,-5.51184 1.85401,-8.54114 0.21977,-3.47698 0.51775,-6.94967 1.45196,-10.32242 0.97773,-3.65695 1.70172,-7.19983 1.34285,-11.01685 0.0124,-3.24308 0.0324,-6.48726 -0.0571,-9.72947 -0.13525,-3.28319 -0.31522,-6.59131 -1.47707,-9.703638 -0.94935,-2.228631 -1.79012,-5.590079 -4.45968,-6.027432 -4.32309,0.0047 -8.40835,1.983015 -12.5427,3.032247 -1.99544,0.522317 -2.35135,0.542219 -4.25457,1.330113 -0.70472,0.291741 -2.53413,1.570566 -2.07706,0.959963 0.61154,-0.816968 1.75747,-1.043007 2.58561,-1.639337 1.2368,-0.890603 -4.8998,3.110981 -3.89307,2.397846 -3.40575,2.916938 -6.71106,6.108448 -9.37751,9.711818 -2.13758,3.54532 -4.04221,7.16675 -4.76625,11.28817 -0.73068,3.48014 -0.21476,7.07808 -0.34694,10.6173 0.0115,3.19824 0.0432,6.39634 0.0541,9.59456 -0.0128,3.24814 -0.0321,6.53309 -0.78974,9.71047 -1.12879,4.01919 -3.65131,6.95265 -6.64269,9.80595 -7.04424,5.31142 -15.0449,9.48596 -23.58177,11.7577 0,0 4.47608,-3.44636 4.47608,-3.44636 z"
       transform="translate(244.65384,296.03266)" />
    <path
       style="fill:none;stroke:#000000;stroke-width:6;stroke-linecap:round;stroke-linejoin:round;stroke-miterlimit:4;stroke-opacity:1;stroke-dasharray:none;stroke-dashoffset:24.6"
       id="path2868"
       d="m 733.45738,679.89761 c -0.71436,6.60834 -0.88328,13.50112 -3.91512,19.54117 -4.41201,5.03915 -10.94711,8.36335 -17.62542,8.5695 -5.98637,0.14692 -10.66574,-1.81735 -15.0206,-5.80694 -5.55575,-5.58161 -7.62639,-13.34462 -9.78674,-20.67938 -2.60878,-9.15637 -3.54791,-18.62099 -4.0983,-28.08696 -0.0866,-6.68411 1.32071,-13.21824 3.99714,-19.3228 2.62172,-5.66975 7.00065,-7.59285 12.36683,-10.47393 2.08743,-0.39527 5.09267,-1.60027 7.06351,-0.43624 2.25746,1.15758 3.96882,2.81784 5.35057,4.91768 2.12979,3.83751 2.13748,2.19197 -3.37341,4.0227 0.14639,-2.86018 -1.25986,-5.5176 -2.00713,-8.23919 -0.98934,-5.59318 -2.27769,-4.19138 4.21258,-6.14922 0.19412,3.47595 1.39341,6.86305 2.01551,10.30634 0.71936,3.33294 0.0259,6.45817 -2.76354,8.50341 -2.0076,1.10093 -4.01226,2.20722 -6.02279,3.30278 -1.28753,0.7016 2.53525,-1.47943 3.85378,-2.12086 0.31918,-0.15527 -0.5291,0.48306 -0.83981,0.65466 -3.20624,1.77075 -4.93802,4.24463 -7.74067,2.44745 -0.22708,-0.22981 -0.45416,-0.45963 -0.68123,-0.68945 0,0 4.84875,-2.97914 4.84875,-2.97914 l 0,0 c 0.19988,0.18725 0.39977,0.37449 0.59966,0.56174 0.49618,0.22344 2.03493,-0.0928 1.61309,0.25093 -5.95344,4.85159 -4.49607,2.35504 2.79975,-1.65317 1.27612,-0.70108 -2.48161,1.52366 -3.72242,2.2855 2.95615,-1.64823 3.74161,-4.66884 3.05715,-7.90457 -0.61771,-3.48486 -1.81587,-6.90204 -2.09082,-10.40259 6.94036,-5.1959 4.64113,-4.54913 5.85025,0.87497 0.7483,2.78306 2.19094,5.48931 2.08957,8.40184 -6.10437,5.61535 -4.13701,5.6315 -6.60034,1.39442 -1.32878,-2.01887 -3.01509,-3.57999 -5.20353,-4.65259 -2.06947,-0.75079 -4.74449,0.33184 -6.76296,0.81594 8.1472,-5.19898 -1.68282,0.72959 -2.77538,4.61263 -2.79526,5.97796 -4.15503,12.50214 -4.16143,19.10131 0.52564,9.42688 1.43668,18.85679 4.03447,27.9749 2.1436,7.2323 4.15437,14.90933 9.67248,20.39094 4.29602,3.86627 8.93067,5.6575 14.77644,5.43631 2.71116,-0.18596 2.51704,0.004 5.09864,-0.87362 0.78362,-0.26636 2.72832,-1.64249 2.30063,-0.9339 -0.5534,0.91686 -1.73277,1.31947 -2.74479,1.66977 -1.34916,0.46701 4.64226,-2.85267 3.26517,-2.77193 3.24412,-5.86668 3.2974,-12.77348 4.03481,-19.29462 0,0 5.03565,-2.56579 5.03565,-2.56579 z" />
    <g
       transform="matrix(1.3454058,0,0,1.3454058,338.33031,427.56456)"
       id="g2898">
      <g
         style="font-style:normal;font-variant:normal;font-weight:normal;font-stretch:normal;letter-spacing:normal;word-spacing:normal;text-anchor:start;fill:none;stroke:#000000;stroke-linecap:butt;stroke-linejoin:miter;stroke-miterlimit:10.43299961;stroke-opacity:1;stroke-dasharray:none;stroke-dashoffset:0"
         id="content"
         transform="matrix(0.87495684,0,0,-0.87495684,-153.11745,479.6569)"
         xml:space="preserve"
         stroke-miterlimit="10.433"
         fill-rule="even-odd"
         font-style="normal"
         font-variant="normal"
         font-weight="normal"
         font-stretch="normal"
         font-size-adjust="none"
         letter-spacing="normal"
         word-spacing="normal"><path
           style="fill:#000000;stroke-width:0"
           d="m 482.75,435.64 -0.07,-0.06 -0.07,-0.07 -0.08,-0.07 -0.08,-0.07 -0.09,-0.08 -0.09,-0.08 -0.09,-0.09 -0.09,-0.09 -0.1,-0.09 -0.09,-0.09 -0.2,-0.19 -0.19,-0.19 -0.19,-0.21 -0.09,-0.1 -0.09,-0.1 -0.09,-0.1 -0.08,-0.11 -0.08,-0.1 -0.08,-0.1 -0.07,-0.1 -0.06,-0.1 -0.06,-0.1 -0.05,-0.1 -0.05,-0.1 -0.04,-0.09 -0.03,-0.1 -0.02,-0.09 -0.02,-0.09 0,-0.08 c 0,-0.5 0.5,-1 1,-1 0.44,0 0.69,0.35 0.94,0.65 0.6,0.75 1.74,2.14 3.94,3.24 0.35,0.2 0.84,0.45 0.84,1.05 0,0.49 -0.34,0.74 -0.69,0.99 -1.1,0.75 -1.65,1.64 -2.05,2.84 -0.1,0.45 -0.3,1.1 -0.99,1.1 -0.7,0 -1,-0.65 -1,-1.05 0,-0.25 0.4,-1.84 1.2,-2.89 h -16.79 c -0.85,0 -1.74,0 -1.74,-0.99 0,-1 0.89,-1 1.74,-1 z"
           id="path2901" /><path
           style="fill:#000000;stroke-width:0"
           d="m 469.15,410.09 0.05,-0.29 0.05,-0.28 0.06,-0.27 0.07,-0.26 0.07,-0.26 0.08,-0.24 0.09,-0.23 0.09,-0.22 0.11,-0.22 0.1,-0.2 0.12,-0.19 0.12,-0.19 0.13,-0.18 0.13,-0.16 0.14,-0.16 0.15,-0.15 0.15,-0.14 0.16,-0.13 0.16,-0.12 0.17,-0.11 0.18,-0.1 0.18,-0.1 0.19,-0.08 0.19,-0.07 0.2,-0.07 0.21,-0.06 0.21,-0.05 0.21,-0.04 0.22,-0.03 0.23,-0.02 0.23,-0.01 0.23,-0.01 c 2.94,0 5.63,1.89 7.62,4.64 3.74,5.18 4.69,12.7 4.69,14.39 0,3.54 -1.85,3.54 -2.14,3.54 -1.25,0 -2.5,-1.3 -2.5,-2.4 0,-0.64 0.3,-0.94 0.75,-1.34 1.59,-1.64 1.75,-3.24 1.75,-4.33 0,-4.24 -4.24,-10.91 -9.47,-10.91 -0.45,0 -1.84,0 -2.74,1.14 -0.6,0.8 -1,1.75 -1,2.75 0,0.14 0,0.24 0.3,0.79 0.95,2.24 1.65,4.98 1.65,5.63 0,0.6 -0.35,1.15 -1.05,1.15 -0.55,0 -0.99,-0.45 -1.39,-1.25 -0.1,-0.25 -0.7,-2.44 -1.05,-5.03 -0.1,-0.9 -0.1,-1 -0.45,-1.34 -2.19,-3.04 -4.48,-3.84 -6.18,-3.84 -3.28,0 -4.38,2.74 -4.38,5.68 0,3.73 1.85,7.87 4.19,11.21 0.5,0.69 0.5,0.79 0.5,0.94 0,0.4 -0.31,0.6 -0.6,0.6 -0.8,0 -3.09,-4.38 -3.79,-5.98 -1.84,-4.43 -1.89,-8.52 -1.89,-8.96 0,-3.99 1.49,-7.08 5.28,-7.08 3.23,0 5.63,2.29 7.22,4.64 z"
           id="path2903" /><path
           style="fill:#000000;stroke-width:0"
           d="m 495.52,410.64 0.25,0 0.25,-0.02 0.24,-0.02 0.24,-0.04 0.23,-0.05 0.23,-0.06 0.22,-0.07 0.22,-0.09 0.21,-0.09 0.2,-0.11 0.19,-0.11 0.19,-0.13 0.18,-0.13 0.18,-0.15 0.17,-0.16 0.15,-0.17 0.16,-0.18 0.14,-0.2 0.13,-0.2 0.13,-0.21 0.12,-0.23 0.11,-0.23 0.09,-0.25 0.09,-0.26 0.08,-0.27 0.07,-0.28 0.06,-0.29 0.05,-0.3 0.04,-0.31 0.03,-0.32 0.02,-0.33 0,-0.35 c 0,-4.32 -2.51,-5.61 -4.53,-5.61 -1.39,0 -4.46,0.38 -5.93,2.44 1.64,0.07 2.02,1.22 2.02,1.95 0,1.12 -0.83,1.92 -1.91,1.92 -0.98,0 -1.96,-0.59 -1.96,-2.02 0,-3.28 3.63,-5.41 7.85,-5.41 4.84,0 8.19,3.25 8.19,6.73 0,2.72 -2.23,5.44 -6.06,6.24 3.66,1.33 4.98,3.94 4.98,6.07 0,2.76 -3.17,4.81 -7.04,4.81 -3.87,0 -6.84,-1.88 -6.84,-4.67 0,-1.18 0.77,-1.85 1.82,-1.85 1.08,0 1.77,0.8 1.77,1.78 0,1.01 -0.69,1.75 -1.77,1.81 1.22,1.54 3.62,1.92 4.92,1.92 1.56,0 3.76,-0.76 3.76,-3.8 0,-1.46 -0.49,-3.07 -1.39,-4.15 -1.16,-1.32 -2.13,-1.39 -3.87,-1.5 -0.88,-0.07 -0.95,-0.07 -1.12,-0.1 -0.07,0 -0.35,-0.07 -0.35,-0.46 0,-0.49 0.31,-0.49 0.91,-0.49 z"
           id="path2905" /></g>    </g>
    <path
       transform="translate(244.65384,296.03266)"
       d="M 21.596332,480.80872 C 15.479903,474.4443 10.603091,467.18194 5.6766934,459.90459 1.3347561,451.84705 -3.3922411,444.01966 -8.2018761,436.23632 -13.79433,427.73668 -19.257933,419.15825 -24.728009,410.58018 -29.659022,402.235 -35.488068,394.49123 -41.076078,386.5881 c -3.286797,-5.1539 -7.620678,-9.49337 -11.330017,-14.31322 -2.437863,-3.36062 -4.794322,-6.76069 -7.069438,-10.22821 -1.724918,-3.00292 -3.922899,-5.6758 -6.187318,-8.2797 -1.773582,-2.09594 -4.361688,-2.47681 2.813653,-3.28465 0.427164,-0.0481 -0.188306,0.84 -0.244774,1.26614 -0.07007,0.52877 -0.08953,1.06302 -0.134297,1.59453 -0.01269,4.00284 -0.0032,7.90191 -0.809061,11.83652 -0.693365,2.88867 -1.078743,5.83659 -1.705718,8.73819 -1.758783,0.38469 -3.479035,1.25875 -5.276347,1.15405 -0.09463,-0.006 -0.110907,-8.69698 -0.110216,-9.56072 0.01618,-3.9385 0.0204,-7.87702 0.02762,-11.81554 0.136744,-7.63146 -2.040473,-5.80468 6.287711,-9.67505 3.083839,1.35375 5.86145,3.23713 8.929591,4.61381 3.104678,2.01944 6.374086,3.66093 9.991168,4.48471 0.477311,0.0828 0.954622,0.16554 1.431932,0.24832 0,0 -4.651408,3.25287 -4.651408,3.25287 l 0,0 c -0.482001,-0.0922 -0.964002,-0.18442 -1.446003,-0.27663 -3.619765,-0.91224 -6.891592,-2.59406 -10.043569,-4.58103 -2.986234,-1.38556 -5.704065,-3.28024 -8.81319,-4.40337 5.918517,-4.38703 3.38054,-3.79958 3.372483,-1.33033 -0.0055,1.69809 -0.0093,3.39618 -0.0079,5.09427 -0.0062,3.93987 -0.02716,7.8797 -0.0354,11.81957 -0.0075,2.68739 -0.03291,5.37802 0.04623,8.06469 0.01414,0.4801 0.398032,1.0981 0.06034,1.43965 -1.456264,1.47295 -3.370434,2.40858 -5.055651,3.61287 1.19176,-2.14186 1.037567,-5.80702 1.90558,-8.41769 0.85289,-3.91116 0.863447,-7.77093 0.829405,-11.7614 5.88e-4,-0.009 0.133848,-2.83041 0.301987,-2.99025 4.848098,-4.60875 4.511573,-5.14152 7.195741,-2.05344 2.264921,2.6346 4.48602,5.32171 6.217052,8.34894 2.270486,3.4532 4.606743,6.84926 7.030064,10.20209 3.716793,4.82164 8.039029,9.18065 11.308799,14.35306 5.57945,7.91905 11.391204,15.68429 16.335615,24.02991 5.468796,8.58214 10.9500126,17.15237 16.5407624,25.65627 4.8151374,7.7713 9.5378744,15.59236 13.8719456,23.64578 4.904094,7.25252 9.755732,14.49823 15.913328,20.78297 0,0 -4.818272,2.95264 -4.818272,2.95264 z"
       id="path2934"
       style="fill:none;stroke:#000000;stroke-width:6;stroke-linecap:round;stroke-linejoin:round;stroke-miterlimit:4;stroke-opacity:1;stroke-dasharray:none;stroke-dashoffset:24.6" />
    <g
       transform="matrix(1.2556472,0,0,1.2556472,-163.36639,435.06673)"
       id="g2970">
      <g
         style="font-style:normal;font-variant:normal;font-weight:normal;font-stretch:normal;letter-spacing:normal;word-spacing:normal;text-anchor:start;fill:none;stroke:#000000;stroke-linecap:butt;stroke-linejoin:miter;stroke-miterlimit:10.43299961;stroke-opacity:1;stroke-dasharray:none;stroke-dashoffset:0"
         word-spacing="normal"
         letter-spacing="normal"
         font-size-adjust="none"
         font-stretch="normal"
         font-weight="normal"
         font-variant="normal"
         font-style="normal"
         fill-rule="even-odd"
         stroke-miterlimit="10.433"
         xml:space="preserve"
         transform="matrix(0.87495684,0,0,-0.87495684,-153.11745,479.6569)"
         id="g2972"><polygon
           style="fill:#000000;stroke-width:0"
           id="polygon2974"
           points="469.45,437.98 475.18,432.9 476.08,433.8 469.45,440.57 462.78,433.8 463.68,432.9 " /><path
           style="fill:#000000;stroke-width:0"
           id="path2976"
           d="m 465.32,417.51 0.14,0 0.15,0 0.17,0 0.18,0 0.18,0.01 0.2,0 0.21,0.01 0.21,0.01 0.23,0.01 0.23,0.01 0.24,0.02 0.24,0.01 0.25,0.02 0.26,0.03 0.52,0.05 0.54,0.06 0.54,0.08 0.55,0.09 0.54,0.11 0.53,0.13 0.27,0.07 0.25,0.07 0.26,0.08 0.25,0.09 0.24,0.09 0.24,0.09 c 3.48,1.5 3.73,4.44 3.73,5.14 0,2.19 -1.89,4.23 -5.33,4.23 v -1.1 c 2.34,0 3.69,-1.44 3.69,-3.13 0,-5.19 -7.97,-5.19 -10.01,-5.19 h -2.05 c 1.95,7.58 7.08,8.32 8.37,8.32 v 1.1 c -5.53,0 -13.05,-4.84 -13.05,-13.55 0,-5.08 2.94,-9.02 7.82,-9.02 7.12,0 11.31,5.28 11.31,5.88 0,0.3 -0.3,0.65 -0.6,0.65 -0.25,0 -0.35,-0.1 -0.64,-0.5 -3.94,-4.93 -9.37,-4.93 -9.97,-4.93 -3.88,0 -4.33,4.18 -4.33,5.78 0,0.6 0.05,2.14 0.8,5.18 z" /><path
           style="fill:#000000;stroke-width:0"
           id="path2978"
           d="m 496.61,405.35 h -1.19 c -0.1,-0.77 -0.45,-2.83 -0.9,-3.18 -0.28,-0.21 -2.97,-0.21 -3.45,-0.21 h -6.42 c 3.66,3.25 4.88,4.22 6.97,5.86 2.58,2.06 4.99,4.22 4.99,7.54 0,4.21 -3.7,6.79 -8.16,6.79 -4.33,0 -7.25,-3.03 -7.25,-6.24 0,-1.78 1.5,-1.95 1.84,-1.95 0.84,0 1.85,0.59 1.85,1.85 0,0.62 -0.24,1.85 -2.05,1.85 1.08,2.47 3.45,3.24 5.09,3.24 3.48,0 5.3,-2.72 5.3,-5.54 0,-3.04 -2.16,-5.45 -3.28,-6.7 l -8.4,-8.3 c -0.35,-0.31 -0.35,-0.38 -0.35,-1.36 h 14.36 z" /></g>    </g>
    <g
       transform="matrix(1.5498742,0,0,1.5498742,-64.866837,473.92869)"
       id="g3048">
      <g
         style="font-style:normal;font-variant:normal;font-weight:normal;font-stretch:normal;letter-spacing:normal;word-spacing:normal;text-anchor:start;fill:none;stroke:#000000;stroke-linecap:butt;stroke-linejoin:miter;stroke-miterlimit:10.43299961;stroke-opacity:1;stroke-dasharray:none;stroke-dashoffset:0"
         id="g3050"
         transform="matrix(0.87495684,0,0,-0.87495684,-153.11745,479.6569)"
         xml:space="preserve"
         stroke-miterlimit="10.433"
         fill-rule="even-odd"
         font-style="normal"
         font-variant="normal"
         font-weight="normal"
         font-stretch="normal"
         font-size-adjust="none"
         letter-spacing="normal"
         word-spacing="normal"><polygon
           style="fill:#000000;stroke-width:0"
           points="469.45,440.57 462.78,433.8 463.68,432.9 469.45,437.98 475.18,432.9 476.08,433.8 "
           id="polygon3052" /><path
           style="fill:#000000;stroke-width:0"
           d="m 465.32,417.51 0.14,0 0.15,0 0.17,0 0.18,0 0.18,0.01 0.2,0 0.21,0.01 0.21,0.01 0.23,0.01 0.23,0.01 0.24,0.02 0.24,0.01 0.25,0.02 0.26,0.03 0.52,0.05 0.54,0.06 0.54,0.08 0.55,0.09 0.54,0.11 0.53,0.13 0.27,0.07 0.25,0.07 0.26,0.08 0.25,0.09 0.24,0.09 0.24,0.09 c 3.48,1.5 3.73,4.44 3.73,5.14 0,2.19 -1.89,4.23 -5.33,4.23 v -1.1 c 2.34,0 3.69,-1.44 3.69,-3.13 0,-5.19 -7.97,-5.19 -10.01,-5.19 h -2.05 c 1.95,7.58 7.08,8.32 8.37,8.32 v 1.1 c -5.53,0 -13.05,-4.84 -13.05,-13.55 0,-5.08 2.94,-9.02 7.82,-9.02 7.12,0 11.31,5.28 11.31,5.88 0,0.3 -0.3,0.65 -0.6,0.65 -0.25,0 -0.35,-0.1 -0.64,-0.5 -3.94,-4.93 -9.37,-4.93 -9.97,-4.93 -3.88,0 -4.33,4.18 -4.33,5.78 0,0.6 0.05,2.14 0.8,5.18 z"
           id="path3054" /><path
           style="fill:#000000;stroke-width:0"
           d="m 490.68,421.18 0,0.04 0,0.04 0,0.04 0,0.04 0,0.04 0,0.04 0,0.03 0,0.04 -0.01,0.03 0,0.03 0,0.04 0,0.03 -0.01,0.02 0,0.03 0,0.03 -0.01,0.03 0,0.02 0,0.02 -0.02,0.05 -0.01,0.04 -0.01,0.04 -0.02,0.03 -0.02,0.03 -0.02,0.03 -0.03,0.03 -0.02,0.02 -0.03,0.02 -0.04,0.02 -0.03,0.01 -0.04,0.01 -0.05,0.02 -0.05,0 -0.02,0.01 -0.03,0 -0.03,0.01 -0.02,0 -0.03,0 -0.03,0 -0.04,0 -0.03,0.01 -0.03,0 -0.04,0 -0.03,0 -0.04,0 -0.04,0 -0.04,0 -0.04,0 -0.04,0 -0.05,0 -0.04,0 c -2.24,-2.19 -5.41,-2.23 -6.84,-2.23 v -1.25 c 0.84,0 3.14,0 5.06,0.97 v -17.78 c 0,-1.15 0,-1.61 -3.49,-1.61 h -1.33 V 399 h 12.45 v 1.25 h -1.32 c -3.49,0 -3.49,0.46 -3.49,1.61 z"
           id="path3056" /></g>    </g>
    <path
       transform="translate(244.65384,296.03266)"
       d="m 33.076108,474.08316 c 5.846289,-10.05255 12.157562,-19.7845 18.684816,-29.40379 5.826514,-8.58614 10.67971,-17.7855 16.427631,-26.41979 2.090213,-3.19647 4.137911,-6.42352 6.047677,-9.73172 1.627147,-2.62027 11.968704,-6.54436 2.128909,-1.69659 -0.849782,0.41867 0.589216,-0.47249 1.048081,-1.16265 0.338615,-0.52806 -0.153523,-0.67863 -0.562275,-1.09863 0,0 4.860846,-2.96873 4.860846,-2.96873 l 0,0 c 0.502189,0.51884 1.180499,0.95636 0.907397,1.73484 -1.49977,3.31688 -12.128289,7.68923 -2.968386,2.49889 0.125077,-0.0709 -0.14043,0.25089 -0.210646,0.37634 -1.92955,3.33164 -4.010594,6.57348 -6.108724,9.80053 -5.839015,8.59576 -10.64573,17.8508 -16.487593,26.44853 -6.508871,9.59111 -12.837491,19.26972 -18.614412,29.32562 0,0 -5.153321,2.29715 -5.153321,2.29715 z"
       id="path3096"
       style="fill:none;stroke:#000000;stroke-width:6;stroke-linecap:round;stroke-linejoin:round;stroke-miterlimit:4;stroke-opacity:1;stroke-dasharray:none;stroke-dashoffset:24.6" />
    <path
       transform="translate(244.65384,296.03266)"
       d="m 58.544011,401.1071 c 6.288373,-2.65695 12.229574,-6.05042 18.198485,-9.34354 0.546843,-0.3017 -1.084517,0.61973 -1.626776,0.92959 5.072003,-2.5304 10.64252,-7.59016 16.797559,-6.09418 2.611409,2.40615 2.051597,6.88597 2.116213,10.14557 0.03784,4.48671 -0.01548,8.97345 -0.03973,13.46008 -0.01486,1.90587 -0.02018,3.8118 -0.01976,5.71772 0,0 -5.077985,2.58466 -5.077985,2.58466 l 0,0 c 0.01655,-1.91082 0.03167,-3.82166 0.04409,-5.73252 0.04782,-4.48473 0.09323,-8.96997 0.06394,-13.45494 -0.05515,-2.87374 0.581146,-7.38497 -1.757013,-9.47797 -3.48466,-0.66417 -8.805629,2.1004 -8.815836,2.09823 -0.752505,-0.16004 1.288921,-0.84035 1.933382,-1.26052 -8.575828,4.94945 -17.155408,9.96827 -26.232,13.95975 0,0 4.415431,-3.53193 4.415431,-3.53193 z"
       id="path3098"
       style="fill:none;stroke:#000000;stroke-width:6;stroke-linecap:round;stroke-linejoin:round;stroke-miterlimit:4;stroke-opacity:1;stroke-dasharray:none;stroke-dashoffset:24.6" />
    <g
       id="g3142"
       transform="matrix(1.6952734,0,0,1.6952734,376.23644,440.23542)">
      <g
         word-spacing="normal"
         letter-spacing="normal"
         font-size-adjust="none"
         font-stretch="normal"
         font-weight="normal"
         font-variant="normal"
         font-style="normal"
         fill-rule="even-odd"
         stroke-miterlimit="10.433"
         xml:space="preserve"
         transform="matrix(0.87495684,0,0,-0.87495684,-153.11745,479.6569)"
         id="g3144"
         style="font-style:normal;font-variant:normal;font-weight:normal;font-stretch:normal;letter-spacing:normal;word-spacing:normal;text-anchor:start;fill:none;stroke:#000000;stroke-linecap:butt;stroke-linejoin:miter;stroke-miterlimit:10.43299961;stroke-opacity:1;stroke-dasharray:none;stroke-dashoffset:0"><polygon
           id="polygon3146"
           points="469.45,440.57 462.78,433.8 463.68,432.9 469.45,437.98 475.18,432.9 476.08,433.8 "
           style="fill:#000000;stroke-width:0" /><path
           id="path3148"
           d="m 465.32,417.51 0.14,0 0.15,0 0.17,0 0.18,0 0.18,0.01 0.2,0 0.21,0.01 0.21,0.01 0.23,0.01 0.23,0.01 0.24,0.02 0.24,0.01 0.25,0.02 0.26,0.03 0.52,0.05 0.54,0.06 0.54,0.08 0.55,0.09 0.54,0.11 0.53,0.13 0.27,0.07 0.25,0.07 0.26,0.08 0.25,0.09 0.24,0.09 0.24,0.09 c 3.48,1.5 3.73,4.44 3.73,5.14 0,2.19 -1.89,4.23 -5.33,4.23 v -1.1 c 2.34,0 3.69,-1.44 3.69,-3.13 0,-5.19 -7.97,-5.19 -10.01,-5.19 h -2.05 c 1.95,7.58 7.08,8.32 8.37,8.32 v 1.1 c -5.53,0 -13.05,-4.84 -13.05,-13.55 0,-5.08 2.94,-9.02 7.82,-9.02 7.12,0 11.31,5.28 11.31,5.88 0,0.3 -0.3,0.65 -0.6,0.65 -0.25,0 -0.35,-0.1 -0.64,-0.5 -3.94,-4.93 -9.37,-4.93 -9.97,-4.93 -3.88,0 -4.33,4.18 -4.33,5.78 0,0.6 0.05,2.14 0.8,5.18 z"
           style="fill:#000000;stroke-width:0" /><path
           id="path3150"
           d="m 488.52,410.64 0.25,0 0.25,-0.02 0.24,-0.02 0.24,-0.04 0.23,-0.05 0.23,-0.06 0.22,-0.07 0.22,-0.09 0.21,-0.09 0.2,-0.11 0.19,-0.11 0.19,-0.13 0.18,-0.13 0.18,-0.15 0.17,-0.16 0.15,-0.17 0.16,-0.18 0.14,-0.2 0.13,-0.2 0.13,-0.21 0.12,-0.23 0.11,-0.23 0.09,-0.25 0.09,-0.26 0.08,-0.27 0.07,-0.28 0.06,-0.29 0.05,-0.3 0.04,-0.31 0.03,-0.32 0.02,-0.33 0,-0.35 c 0,-4.32 -2.51,-5.61 -4.53,-5.61 -1.39,0 -4.46,0.38 -5.93,2.44 1.64,0.07 2.02,1.22 2.02,1.95 0,1.12 -0.83,1.92 -1.91,1.92 -0.98,0 -1.96,-0.59 -1.96,-2.02 0,-3.28 3.63,-5.41 7.85,-5.41 4.84,0 8.19,3.25 8.19,6.73 0,2.72 -2.23,5.44 -6.06,6.24 3.66,1.33 4.98,3.94 4.98,6.07 0,2.76 -3.17,4.81 -7.04,4.81 -3.87,0 -6.84,-1.88 -6.84,-4.67 0,-1.18 0.77,-1.85 1.82,-1.85 1.08,0 1.77,0.8 1.77,1.78 0,1.01 -0.69,1.75 -1.77,1.81 1.22,1.54 3.62,1.92 4.92,1.92 1.56,0 3.76,-0.76 3.76,-3.8 0,-1.46 -0.49,-3.07 -1.39,-4.15 -1.16,-1.32 -2.13,-1.39 -3.87,-1.5 -0.88,-0.07 -0.95,-0.07 -1.12,-0.1 -0.07,0 -0.35,-0.07 -0.35,-0.46 0,-0.49 0.31,-0.49 0.91,-0.49 z"
           style="fill:#000000;stroke-width:0" /></g>    </g>
    <g
       transform="matrix(1.2597826,0,0,1.2597826,172.81964,597.12419)"
       id="g3361">
      <g
         style="font-style:normal;font-variant:normal;font-weight:normal;font-stretch:normal;letter-spacing:normal;word-spacing:normal;text-anchor:start;fill:none;stroke:#000000;stroke-linecap:butt;stroke-linejoin:miter;stroke-miterlimit:10.43299961;stroke-opacity:1;stroke-dasharray:none;stroke-dashoffset:0"
         word-spacing="normal"
         letter-spacing="normal"
         font-size-adjust="none"
         font-stretch="normal"
         font-weight="normal"
         font-variant="normal"
         font-style="normal"
         fill-rule="even-odd"
         stroke-miterlimit="10.433"
         xml:space="preserve"
         transform="matrix(0.87495684,0,0,-0.87495684,-153.11745,529.40323)"
         id="g3363"><path
           style="fill:#000000;stroke-width:0"
           id="path3365"
           d="m 478.75,435.64 -0.07,-0.06 -0.07,-0.07 -0.08,-0.07 -0.08,-0.07 -0.09,-0.08 -0.09,-0.08 -0.09,-0.09 -0.09,-0.09 -0.1,-0.09 -0.09,-0.09 -0.2,-0.19 -0.19,-0.19 -0.19,-0.21 -0.09,-0.1 -0.09,-0.1 -0.09,-0.1 -0.08,-0.11 -0.08,-0.1 -0.08,-0.1 -0.07,-0.1 -0.06,-0.1 -0.06,-0.1 -0.05,-0.1 -0.05,-0.1 -0.04,-0.09 -0.03,-0.1 -0.02,-0.09 -0.02,-0.09 0,-0.08 c 0,-0.5 0.5,-1 1,-1 0.44,0 0.69,0.35 0.94,0.65 0.6,0.75 1.74,2.14 3.94,3.24 0.35,0.2 0.84,0.45 0.84,1.05 0,0.49 -0.34,0.74 -0.69,0.99 -1.1,0.75 -1.65,1.64 -2.05,2.84 -0.1,0.45 -0.3,1.1 -0.99,1.1 -0.7,0 -1,-0.65 -1,-1.05 0,-0.25 0.4,-1.84 1.2,-2.89 h -16.79 c -0.85,0 -1.74,0 -1.74,-0.99 0,-1 0.89,-1 1.74,-1 z" /><path
           style="fill:#000000;stroke-width:0"
           id="path3367"
           d="m 474.58,424.83 -0.08,0.17 -0.09,0.17 -0.1,0.16 -0.09,0.16 -0.1,0.16 -0.1,0.16 -0.11,0.15 -0.11,0.14 -0.11,0.15 -0.12,0.13 -0.12,0.14 -0.12,0.13 -0.13,0.12 -0.13,0.12 -0.14,0.11 -0.14,0.11 -0.14,0.11 -0.15,0.09 -0.15,0.1 -0.15,0.08 -0.16,0.08 -0.17,0.08 -0.17,0.07 -0.17,0.06 -0.17,0.05 -0.19,0.05 -0.18,0.04 -0.19,0.03 -0.19,0.03 -0.2,0.02 -0.21,0.01 -0.2,0.01 0.05,-1.1 c 3.24,0 3.93,-4.08 3.93,-4.38 0,-0.3 -0.1,-0.6 -0.15,-0.85 l -2.49,-9.76 c -0.25,-0.9 -0.25,-1 -0.99,-1.84 -2.19,-2.75 -4.24,-3.54 -5.63,-3.54 -2.49,0 -3.19,2.74 -3.19,4.68 0,2.49 1.59,8.62 2.74,10.91 1.54,2.94 3.78,4.78 5.78,4.78 l -0.05,1.1 c -5.83,0 -12.01,-7.32 -12.01,-14.6 0,-4.68 2.74,-7.97 6.63,-7.97 0.99,0 3.49,0.2 6.47,3.74 0.4,-2.09 2.14,-3.74 4.53,-3.74 1.75,0 2.9,1.15 3.69,2.74 0.85,1.79 1.5,4.83 1.5,4.93 0,0.5 -0.45,0.5 -0.6,0.5 -0.5,0 -0.55,-0.2 -0.7,-0.89 -0.85,-3.24 -1.74,-6.18 -3.78,-6.18 -1.35,0 -1.5,1.29 -1.5,2.29 0,1.09 0.1,1.49 0.65,3.69 0.55,2.09 0.65,2.59 1.1,4.48 0.84,3.19 1.04,4.13 1.79,6.97 0.35,1.4 0.35,1.5 0.35,1.7 0,0.84 -0.6,1.34 -1.45,1.34 -1.19,0 -1.94,-1.09 -2.09,-2.19 z" /></g>    </g>
    <g
       transform="matrix(1.4778266,0,0,1.4778266,262.36415,563.34801)"
       id="g3475">
      <g
         style="font-style:normal;font-variant:normal;font-weight:normal;font-stretch:normal;letter-spacing:normal;word-spacing:normal;text-anchor:start;fill:none;stroke:#000000;stroke-linecap:butt;stroke-linejoin:miter;stroke-miterlimit:10.43299961;stroke-opacity:1;stroke-dasharray:none;stroke-dashoffset:0"
         id="g3477"
         transform="matrix(0.87495684,0,0,-0.87495684,-153.11745,529.40323)"
         xml:space="preserve"
         stroke-miterlimit="10.433"
         fill-rule="even-odd"
         font-style="normal"
         font-variant="normal"
         font-weight="normal"
         font-stretch="normal"
         font-size-adjust="none"
         letter-spacing="normal"
         word-spacing="normal"><path
           style="fill:#000000;stroke-width:0"
           d="m 464.92,411.73 -0.19,-0.31 -0.19,-0.29 -0.18,-0.27 -0.19,-0.26 -0.18,-0.25 -0.19,-0.23 -0.19,-0.23 -0.18,-0.2 -0.19,-0.2 -0.18,-0.18 -0.19,-0.17 -0.19,-0.16 -0.19,-0.15 -0.18,-0.14 -0.19,-0.13 -0.19,-0.12 -0.19,-0.11 -0.19,-0.1 -0.19,-0.09 -0.19,-0.09 -0.2,-0.07 -0.19,-0.07 -0.19,-0.06 -0.2,-0.06 -0.2,-0.05 -0.19,-0.04 -0.2,-0.04 -0.2,-0.03 -0.4,-0.05 -0.41,-0.04 c -0.6,-0.04 -1.05,-0.04 -1.05,-0.99 0,-0.3 0.25,-0.55 0.65,-0.55 h 9.27 c 0.3,0 0.94,0 0.94,0.95 0,0.55 -0.44,0.59 -0.8,0.59 -1.14,0.1 -2.34,0.5 -2.34,1.75 0,0.6 0.3,1.14 0.7,1.84 0.35,0.6 0.4,0.6 3.79,6.38 h 12.5 l -0.15,1.54 h -11.41 l 9.82,16.44 1.59,-16.44 0.15,-1.54 c 0.1,-1.05 0.8,-7.82 0.8,-8.32 0,-1.49 -2.59,-1.65 -3.59,-1.65 -0.7,0 -1.2,0 -1.2,-0.99 0,-0.55 0.6,-0.55 0.7,-0.55 h 11.86 c 0.3,0 0.89,0 0.89,1 0,0.54 -0.49,0.54 -1.14,0.54 -3.09,0 -3.09,0.35 -3.24,1.8 l -3.04,31.13 c -0.1,1 -0.1,1.2 -0.94,1.2 -0.8,0 -1,-0.35 -1.3,-0.85 z"
           id="path3479" /></g>    </g>
    <path
       transform="translate(147.86651,296.03266)"
       d="m 505.58363,399.80751 c 1.28482,2.64704 2.13438,5.45915 3.21028,8.18944 0.83089,1.56318 0.92121,3.34001 1.40351,4.99837 0.4924,1.32929 0.8383,2.68826 1.0297,4.09112 0.0942,1.27693 0.057,2.50543 0.47984,3.72444 0.43014,1.23666 0.61876,2.51064 1.14944,3.71045 0.49838,1.26969 0.79104,2.58727 1.24748,3.87166 0.37432,1.4337 0.90878,2.78749 1.44939,4.16289 0.50615,1.24966 0.48557,2.62505 0.86874,3.89651 0.40883,1.53035 1.00177,2.98628 1.55078,4.46781 0.71936,1.44235 1.42881,2.82936 1.79613,4.40471 0.23326,1.53691 0.84118,2.97787 1.17076,4.49631 0.4351,1.28991 0.97798,2.52812 1.34332,3.8417 0.1213,0.46708 0.0622,0.80698 0.55013,0.95181 0,0 -1.0245,0.69288 -1.0245,0.69288 l 0,0 c -0.50961,-0.20312 -0.49759,-0.55077 -0.6092,-1.05534 -0.36017,-1.31783 -0.90238,-2.5588 -1.34363,-3.84946 -0.3255,-1.51913 -0.93561,-2.95882 -1.1704,-4.49446 -0.35998,-1.57203 -1.06819,-2.95459 -1.78702,-4.39183 -0.54868,-1.48405 -1.14655,-2.94032 -1.55651,-4.47272 -0.39328,-1.26596 -0.3604,-2.64039 -0.86309,-3.8888 -0.54015,-1.37722 -1.08068,-2.72999 -1.45065,-4.16668 -0.45746,-1.28145 -0.75373,-2.59313 -1.2446,-3.86276 -0.53317,-1.20372 -0.72972,-2.47615 -1.15458,-3.71909 -0.42947,-1.22821 -0.41189,-2.45678 -0.49174,-3.74622 -0.1853,-1.398 -0.52616,-2.75231 -1.01912,-4.07563 -0.48833,-1.65295 -0.56453,-3.43054 -1.39262,-4.99182 -1.07165,-2.72796 -1.91371,-5.53936 -3.20793,-8.17828 0,0 1.06609,-0.60701 1.06609,-0.60701 z"
       id="path3536"
       style="fill:none;stroke:#000000;stroke-width:6;stroke-linecap:round;stroke-linejoin:round;stroke-miterlimit:4;stroke-opacity:1;stroke-dasharray:none;stroke-dashoffset:24.6" />
    <path
       transform="translate(147.86651,296.03266)"
       d="m 528.42115,442.0039 c -0.83721,2.98865 -1.69698,5.97432 -2.80084,8.87761 -0.71206,1.85732 -1.21439,3.76506 -2.27562,5.46145 -0.23096,0.34435 -0.47705,0.68169 -0.78337,0.96284 -1.73256,1.00145 -2.69507,0.34168 -4.36777,-0.20095 -1.28647,-0.64328 -2.58241,-1.26 -3.88758,-1.86427 -1.2329,-0.50584 -2.36475,-1.2277 -3.47046,-1.96486 -0.70984,-0.47415 -0.98074,-0.87212 -0.93415,-1.71552 0,0 1.10405,-0.553 1.10405,-0.553 l 0,0 c -0.0673,0.80789 0.18081,1.14944 0.86999,1.60284 1.09923,0.73617 2.22747,1.44913 3.45536,1.95203 1.30016,0.60595 2.59335,1.22041 3.88162,1.85053 0.58913,0.19291 1.16882,0.42998 1.75948,0.61436 0.18511,0.0578 0.3723,0.1146 0.56441,0.14109 0.15754,0.0217 0.51151,-0.15273 0.4771,0.003 -0.0608,0.27417 -0.40474,0.38939 -0.60711,0.58409 0.35085,-0.21219 0.56479,-0.59959 0.81095,-0.91538 1.0836,-1.68353 1.58892,-3.58366 2.29535,-5.44342 1.11437,-2.89633 1.9773,-5.87964 2.79749,-8.87016 0,0 1.1111,-0.52182 1.1111,-0.52182 z"
       id="path3540"
       style="fill:none;stroke:#000000;stroke-width:6;stroke-linecap:round;stroke-linejoin:round;stroke-miterlimit:4;stroke-opacity:1;stroke-dasharray:none;stroke-dashoffset:24.6" />
    <g
       id="g3595"
       transform="translate(419.00977,557.25479)">
      <g
         word-spacing="normal"
         letter-spacing="normal"
         font-size-adjust="none"
         font-stretch="normal"
         font-weight="normal"
         font-variant="normal"
         font-style="normal"
         fill-rule="even-odd"
         stroke-miterlimit="10.433"
         xml:space="preserve"
         transform="matrix(0.87495684,0,0,-0.87495684,-153.11745,529.40323)"
         id="g3597"
         style="font-style:normal;font-variant:normal;font-weight:normal;font-stretch:normal;letter-spacing:normal;word-spacing:normal;text-anchor:start;fill:none;stroke:#000000;stroke-linecap:butt;stroke-linejoin:miter;stroke-miterlimit:10.43299961;stroke-opacity:1;stroke-dasharray:none;stroke-dashoffset:0"><path
           id="path3599"
           d="m 476.75,448.64 -0.07,-0.06 -0.07,-0.07 -0.08,-0.07 -0.08,-0.07 -0.09,-0.08 -0.09,-0.08 -0.09,-0.09 -0.09,-0.09 -0.1,-0.09 -0.09,-0.09 -0.2,-0.19 -0.19,-0.19 -0.19,-0.21 -0.09,-0.1 -0.09,-0.1 -0.09,-0.1 -0.08,-0.11 -0.08,-0.1 -0.08,-0.1 -0.07,-0.1 -0.06,-0.1 -0.06,-0.1 -0.05,-0.1 -0.05,-0.1 -0.04,-0.09 -0.03,-0.1 -0.02,-0.09 -0.02,-0.09 0,-0.08 c 0,-0.5 0.5,-1 1,-1 0.44,0 0.69,0.35 0.94,0.65 0.6,0.75 1.74,2.14 3.94,3.24 0.35,0.2 0.84,0.45 0.84,1.05 0,0.49 -0.34,0.74 -0.69,0.99 -1.1,0.75 -1.65,1.64 -2.05,2.84 -0.1,0.45 -0.3,1.1 -0.99,1.1 -0.7,0 -1,-0.65 -1,-1.05 0,-0.25 0.4,-1.84 1.2,-2.89 h -16.79 c -0.85,0 -1.74,0 -1.74,-0.99 0,-1 0.89,-1 1.74,-1 z"
           style="fill:#000000;stroke-width:0" /><path
           id="path3601"
           d="m 467.91,440.02 0,0.01 0,0 0,0.01 0,0.01 -0.01,0.01 0,0.01 0,0.02 0,0.02 0,0.02 -0.01,0.02 0,0.02 -0.01,0.02 -0.01,0.03 -0.01,0.02 -0.01,0.03 -0.01,0.02 -0.01,0.02 -0.02,0.03 -0.02,0.02 -0.02,0.03 -0.02,0.02 -0.01,0.01 -0.02,0.01 -0.01,0.01 -0.01,0.01 -0.02,0.01 -0.01,0.01 -0.02,0.01 -0.02,0.01 -0.01,0.01 -0.02,0.01 -0.02,0.01 -0.02,0 -0.02,0.01 -0.02,0.01 -0.03,0 -0.02,0.01 -0.02,0 -0.03,0.01 -0.02,0 -0.03,0 -0.03,0.01 -0.02,0 -0.03,0 -0.03,0 c -1.15,0 -4.78,-0.4 -6.08,-0.5 -0.4,-0.05 -0.95,-0.1 -0.95,-1 0,-0.59 0.45,-0.59 1.2,-0.59 2.39,0 2.49,-0.35 2.49,-0.85 0,-0.35 -0.45,-2.04 -0.7,-3.09 l -4.08,-16.24 c -0.6,-2.49 -0.8,-3.28 -0.8,-5.03 0,-4.73 2.64,-7.82 6.33,-7.82 v 1.1 c -1.7,0 -3.34,1.34 -3.34,5.03 0,0.95 0,1.89 0.8,5.03 l 1.09,4.58 c 0.3,1.1 0.3,1.2 0.75,1.75 2.44,3.24 4.68,3.98 5.98,3.98 1.79,0 3.14,-1.49 3.14,-4.68 0,-2.94 -1.65,-8.67 -2.54,-10.56 -1.65,-3.34 -3.94,-5.13 -5.88,-5.13 v -1.1 c 5.88,0 12,7.43 12,14.6 0,4.53 -2.64,7.97 -6.62,7.97 -2.29,0 -4.34,-1.45 -5.83,-2.99 z"
           style="fill:#000000;stroke-width:0" /></g>    </g>
  </g>
</svg>
