<?xml version="1.0" encoding="UTF-8" standalone="no"?>
<!-- Created with Inkscape (http://www.inkscape.org/) -->
<svg
   xmlns:dc="http://purl.org/dc/elements/1.1/"
   xmlns:cc="http://creativecommons.org/ns#"
   xmlns:rdf="http://www.w3.org/1999/02/22-rdf-syntax-ns#"
   xmlns:svg="http://www.w3.org/2000/svg"
   xmlns="http://www.w3.org/2000/svg"
   xmlns:sodipodi="http://sodipodi.sourceforge.net/DTD/sodipodi-0.dtd"
   xmlns:inkscape="http://www.inkscape.org/namespaces/inkscape"
   width="736.00171"
   height="1357.8723"
   id="svg5526"
   sodipodi:version="0.32"
   inkscape:version="0.46+devel"
   version="1.0"
   sodipodi:docname="c42d4.svg"
   inkscape:output_extension="org.inkscape.output.svg.inkscape">
  <defs
     id="defs5528">
    <inkscape:perspective
       sodipodi:type="inkscape:persp3d"
       inkscape:vp_x="0 : 526.18109 : 1"
       inkscape:vp_y="0 : 1000 : 0"
       inkscape:vp_z="744.09448 : 526.18109 : 1"
       inkscape:persp3d-origin="372.04724 : 350.78739 : 1"
       id="perspective5534" />
  </defs>
  <sodipodi:namedview
     id="base"
     pagecolor="#ffffff"
     bordercolor="#666666"
     borderopacity="1.0"
     inkscape:pageopacity="0.0"
     inkscape:pageshadow="2"
     inkscape:zoom="0.35"
     inkscape:cx="317.65101"
     inkscape:cy="692.31912"
     inkscape:document-units="px"
     inkscape:current-layer="layer1"
     showgrid="false"
     inkscape:window-width="1280"
     inkscape:window-height="712"
     inkscape:window-x="-5"
     inkscape:window-y="-3" />
  <metadata
     id="metadata5531">
    <rdf:RDF>
      <cc:Work
         rdf:about="">
        <dc:format>image/svg+xml</dc:format>
        <dc:type
           rdf:resource="http://purl.org/dc/dcmitype/StillImage" />
        <dc:title></dc:title>
      </cc:Work>
    </rdf:RDF>
  </metadata>
  <g
     inkscape:label="Layer 1"
     inkscape:groupmode="layer"
     id="layer1"
     transform="translate(-57.34899,133.19102)">
    <path
       style="fill:#000000;fill-opacity:1;fill-rule:nonzero;stroke:#000000;stroke-width:4;stroke-linecap:round;stroke-linejoin:round;stroke-miterlimit:4;stroke-opacity:1;stroke-dasharray:none;stroke-dashoffset:24.6"
       id="path5540"
       d="m 181.57261,908.18692 c -9.05153,-16.39566 -17.4775,-33.13447 -25.70205,-49.95748 -12.98928,-26.53605 -24.83343,-53.5784 -36.56783,-80.68393 C 105.20253,745.76491 94.137883,712.78162 83.980318,679.56785 73.835084,646.08783 67.560012,611.69547 62.806908,577.09457 57.910683,543.70959 58.8067,510.12377 61.833435,476.64967 65.293217,444.61705 74.081822,413.5687 85.800045,383.6583 94.58259,363.15044 106.1425,343.73672 122.02086,327.90306 c 2.63398,-2.62657 5.50894,-4.99985 8.26341,-7.49978 12.00143,-9.10938 25.40175,-17.26833 40.47769,-19.85119 7.67068,-1.31416 10.94532,-0.87535 18.67325,-0.71148 16.87203,1.95747 32.8924,8.37449 46.87899,17.97157 3.31972,2.27787 6.42391,4.85493 9.63587,7.2824 22.8025,19.10472 40.19009,43.42232 56.31208,68.16537 18.74401,31.14786 34.08036,64.15743 48.78546,97.35117 15.65297,34.09461 28.83345,69.20168 41.01972,104.65681 13.11297,37.2134 22.88042,75.43856 30.11922,114.19182 6.91873,39.11588 10.56443,78.66995 11.85014,118.3413 0.75758,31.35235 0.0807,62.80441 -4.77311,93.82101 -3.35552,21.76218 -11.69413,41.81933 -23.49716,60.25188 -11.15857,15.76367 -27.13536,25.69356 -45.05476,32.22356 -17.17812,5.5957 -34.79576,3.1442 -51.96059,-0.9709 -17.86864,-5.3873 -34.65145,-14.40697 -49.32633,-25.94189 -3.48633,-2.74037 -6.7263,-5.78043 -10.08945,-8.67064 -20.30547,-20.05884 -35.9977,-44.1614 -48.48384,-69.73251 -3.13316,-6.41658 -5.86801,-13.02011 -8.80201,-19.53017 -8.77126,-20.5078 -15.33931,-41.83352 -22.07324,-63.06316 0,0 4.52624,-2.48333 4.52624,-2.48333 l 0,0 c 6.66672,21.23188 13.22869,42.53874 22.0357,63.01407 2.93956,6.4942 5.67961,13.08246 8.81868,19.48261 12.50412,25.49428 28.21949,49.51 48.53246,69.47349 3.36023,2.87295 6.59796,5.89569 10.0807,8.61884 14.66871,11.46948 31.42677,20.42179 49.27507,25.72509 17.14111,4.0332 34.69665,6.3948 51.80018,0.6901 3.39596,-1.2635 7.02652,-1.9981 10.2123,-3.7243 10.1914,-5.5223 18.65521,-13.63091 25.50227,-22.91081 11.88376,-18.35134 20.26833,-38.36688 23.68636,-60.09161 4.9378,-30.99934 5.66481,-62.44705 4.94544,-93.79584 -1.24627,-39.65431 -4.85719,-79.19143 -11.77796,-118.28945 -7.22584,-38.72858 -17.01775,-76.91847 -30.11261,-114.10868 -12.19046,-35.43705 -25.3604,-70.53211 -41.00798,-104.61205 -14.69274,-33.16783 -30.02597,-66.14787 -48.78379,-97.25459 -16.12424,-24.67708 -33.5145,-48.92608 -56.32234,-67.94242 -3.20828,-2.40947 -6.30869,-4.96971 -9.62485,-7.22842 -13.96112,-9.50924 -29.94389,-15.84901 -46.75779,-17.70351 -20.11192,-0.31431 -33.69053,2.73465 -49.70023,15.30641 -2.76684,2.48718 -5.65478,4.84593 -8.30053,7.46156 -15.93951,15.75804 -27.562162,35.12463 -36.377297,55.6073 -11.76824,29.86007 -20.582664,60.8731 -24.068932,92.87373 -3.053808,33.43773 -3.957939,66.98829 0.911884,100.34213 4.718972,34.5807 10.988963,68.94893 21.116313,102.40803 10.147681,33.19424 21.210072,66.15724 35.328312,97.90669 11.75666,27.08364 23.6082,54.11072 36.64584,80.61121 8.24712,16.786 16.66464,33.51058 25.87869,49.79046 0,0 -4.86572,2.83198 -4.86572,2.83198 z" />
    <path
       style="fill:#000000;fill-opacity:1;fill-rule:nonzero;stroke:#000000;stroke-width:4;stroke-linecap:round;stroke-linejoin:round;stroke-miterlimit:4;stroke-opacity:1;stroke-dasharray:none;stroke-dashoffset:24.6"
       id="path5542"
       d="m 223.19646,1222.6813 c 0.0519,-12.2398 0.0544,-24.4798 0.0628,-36.7197 0.55531,-20.7769 2.91885,-41.4397 4.91443,-62.1109 3.01246,-28.386 5.85033,-56.7914 8.3995,-85.2229 3.51206,-34.9298 6.70908,-69.88698 9.82372,-104.85428 3.62219,-40.14602 5.98228,-80.36141 7.29584,-120.64426 0.69744,-42.22204 1.4919,-84.4363 2.50197,-126.65269 0.90072,-44.12899 1.18683,-88.26088 2.2645,-132.3863 1.00209,-49.45627 1.78794,-98.91002 3.61971,-148.34462 2.03808,-50.23645 4.44196,-100.45802 6.71688,-150.68471 2.42667,-46.87647 4.80478,-93.75878 6.69161,-140.66057 1.48932,-42.365383 3.26824,-84.71466 4.22261,-127.097154 0.68117,-34.336577 0.77461,-68.680769 0.80711,-103.022896 -0.006,-4.34418 -0.0116,-8.68837 -0.0174,-13.03255 0,0 4.78723,-2.43879 4.78723,-2.43879 l 0,0 c -0.0119,4.35336 -0.0238,8.70673 -0.0356,13.06009 -0.0785,34.362805 -0.18873,68.72764 -0.90342,103.084375 -0.98794,42.397875 -2.78731,84.762587 -4.29447,127.143495 -1.88949,46.90876 -4.28723,93.79736 -6.72488,140.68031 -2.29263,50.23104 -4.70684,100.45726 -6.75381,150.69852 -1.82112,49.42077 -2.58016,98.86077 -3.55249,148.30338 -1.0566,44.11908 -1.34205,88.24401 -2.22571,132.36651 -1.01211,42.21664 -1.80227,84.43104 -2.49391,126.65346 -1.29169,40.28179 -3.63978,80.49544 -7.2271,120.64251 -3.10066,34.95425 -6.27286,69.89967 -9.75118,104.81827 -2.52654,28.4194 -5.34018,56.8131 -8.32172,85.1881 -1.96285,20.6394 -4.298,41.2692 -4.83335,62.0118 0.008,12.2185 0.0109,24.4372 0.0628,36.6557 0,0 -5.03565,2.5658 -5.03565,2.5658 z" />
    <path
       style="fill:#000000;fill-opacity:1;fill-rule:nonzero;stroke:#000000;stroke-width:4;stroke-linecap:round;stroke-linejoin:round;stroke-miterlimit:4;stroke-opacity:1;stroke-dasharray:none;stroke-dashoffset:24.6"
       id="path5544"
       d="m 244.16381,691.47696 c 5.48128,-10.59971 12.4141,-20.30493 19.72137,-29.70122 14.53867,-17.82526 30.17028,-34.6919 46.01387,-51.3513 23.06328,-23.3279 46.93395,-45.83481 71.10735,-68.00349 26.55525,-23.43608 53.26517,-46.69358 79.70274,-70.2647 22.82751,-21.0253 46.42721,-41.18185 69.42387,-62.01856 16.70807,-14.99747 33.05295,-30.37935 49.97037,-45.14419 10.32325,-9.33047 21.07941,-18.15551 31.63643,-27.21518 6.52177,-5.86051 13.87138,-10.29725 21.47073,-14.56113 6.40989,-3.31784 -0.29876,2.04317 -3.97133,2.08924 -0.62204,0.2169 -0.54057,-0.63695 -0.52545,-1.09525 0,0 5.09334,-2.56486 5.09334,-2.56486 l 0,0 c -0.0453,0.71936 -0.50059,0.21402 0.0553,0.31939 4.00412,0.25268 -3.53457,4.31562 -5.06955,4.79748 1.05647,-0.63712 2.14764,-1.21997 3.16941,-1.91137 0.69221,-0.4684 -1.46477,0.8065 -2.17874,1.24102 -4.58174,2.78847 -8.61529,6.36552 -12.88199,9.59333 -10.58026,9.08001 -21.38148,17.89914 -31.72964,27.24833 -16.95932,14.77276 -33.35112,30.15633 -50.08507,45.17978 -23.01967,20.85432 -46.65815,41.01 -69.50551,62.05644 -26.43859,23.57107 -53.14473,46.83389 -79.70998,70.25975 -24.15303,22.14098 -47.99135,44.63189 -71.03312,67.93347 -15.80295,16.62575 -31.38927,33.46091 -45.89676,51.24368 -7.28031,9.33821 -14.19144,18.98413 -19.62615,29.53862 0,0 -5.15153,2.33072 -5.15153,2.33072 z" />
    <path
       style="fill:#000000;fill-opacity:1;fill-rule:nonzero;stroke:#000000;stroke-width:4;stroke-linecap:round;stroke-linejoin:round;stroke-miterlimit:4;stroke-opacity:1;stroke-dasharray:none;stroke-dashoffset:24.6"
       id="path5546"
       d="m 578.96419,327.84406 c 10.15778,-0.41103 19.81763,-2.99412 29.2699,-6.56388 10.64986,-4.4872 21.43763,-8.64478 32.20207,-12.8496 7.53003,-3.12047 15.4087,-4.97452 23.47109,-5.96487 5.45432,-0.8176 6.58812,1.27186 5.46446,6.26603 -3.92774,9.37889 -10.89553,17.33543 -17.32381,25.11107 -10.97387,13.09269 -22.48566,25.6701 -34.24579,38.05112 -8.96389,9.54035 -19.18248,17.69592 -29.76697,25.33718 -4.91502,2.53787 -9.96396,8.8019 -15.69988,6.32049 0,0 4.71275,-3.16012 4.71275,-3.16012 l 0,0 c 1.1312,0.40115 1.73056,0.79978 3.00361,0.43455 0.68406,-0.19625 2.38602,-1.48937 1.90401,-0.96582 -0.23571,0.25602 -7.36306,4.29594 0.87403,-0.57092 10.62951,-7.62029 20.90973,-15.73869 29.90824,-25.2824 11.74798,-12.36962 23.27664,-24.9074 34.22477,-38.00142 6.38809,-7.71256 13.24035,-15.60451 17.30694,-24.82753 1.30928,-4.85852 0.21171,-6.06434 -4.88208,-5.34219 -8.01952,1.01105 -15.84163,2.93606 -23.33201,6.03367 -10.76629,4.19941 -21.5434,8.38023 -32.20409,12.84145 -9.51541,3.53464 -19.25623,6.06784 -29.45951,6.45514 0,0 4.57227,-3.32195 4.57227,-3.32195 z" />
    <path
       style="fill:#000000;fill-opacity:1;fill-rule:nonzero;stroke:#000000;stroke-width:4;stroke-linecap:round;stroke-linejoin:round;stroke-miterlimit:4;stroke-opacity:1;stroke-dasharray:none;stroke-dashoffset:24.6"
       id="path5548"
       d="m 681.53432,222.88601 c 9.80971,3.22119 20.03646,3.20621 30.22974,3.0446 12.46911,-0.10417 24.87256,-1.84678 37.02917,-4.53896 8.50529,-2.16601 17.22991,-3.15368 25.6995,-5.42786 6.50867,-2.41476 2.37251,0.92544 -0.2464,2.86513 -8.79996,6.39254 -17.974,12.24281 -26.90129,18.45597 -11.47576,7.90642 -23.04041,15.67842 -34.65318,23.38204 -10.15276,6.13835 -19.68016,11.18943 -29.97743,17.08463 0.91255,-0.45393 1.73274,-1.19168 2.73766,-1.3618 1.77839,-0.30104 -3.01769,1.79771 -0.51203,2.11792 0.6209,0.0793 3.80894,-0.26945 4.10125,-0.29734 10.28747,-1.74949 20.19802,-5.00037 30.23994,-7.74059 13.61476,-3.74535 26.98008,-8.31144 40.56339,-12.16325 9.03582,-2.71288 18.08848,-5.37746 27.39568,-6.97346 9.56087,-2.25351 -0.0404,2.22048 -3.86909,4.00755 -2.17787,1.37426 -2.58322,-0.98745 -3.25576,-2.54355 -0.45938,-0.98226 -0.97783,-1.93457 -1.49773,-2.88549 0,0 4.93508,-2.83227 4.93508,-2.83227 l 0,0 c 0.52237,0.96735 1.04319,1.93594 1.51518,2.92931 0.73777,1.64008 0.71357,3.02244 2.75717,1.80126 6.72653,-2.86588 -2.61817,4.16542 -5.08784,2.91381 -9.2654,1.60752 -18.27849,4.28201 -27.28247,6.96192 -13.57658,3.87277 -26.94951,8.41405 -40.56415,12.15735 -10.0793,2.78131 -20.04393,6.03901 -30.39239,7.72712 -10.14759,0.75377 -3.79544,-4.34208 2.58934,-7.35535 6.82946,-3.86294 12.72509,-6.92926 20.44204,-11.5293 11.61422,-7.7061 23.1897,-15.46554 34.66741,-23.37375 8.88283,-6.21028 18.02798,-12.03356 26.80019,-18.39666 1.13945,-0.85715 2.12414,-2.00919 3.45412,-2.52322 2.64626,-1.02279 -1.45666,1.42664 -2.42859,1.0002 -8.46156,2.21942 -17.17712,3.18606 -25.65739,5.3646 -12.18991,2.6306 -24.60486,4.36512 -37.09535,4.44939 -10.26006,0.14434 -20.54242,0.0675 -30.41754,-3.14341 0,0 4.68177,-3.17654 4.68177,-3.17654 z" />
    <path
       style="fill:#000000;fill-opacity:1;fill-rule:nonzero;stroke:#000000;stroke-width:4;stroke-linecap:round;stroke-linejoin:round;stroke-miterlimit:4;stroke-opacity:1;stroke-dasharray:none;stroke-dashoffset:24.6"
       id="path5550"
       d="m 224.7981,134.90571 c 8.38506,-6.62888 15.99625,-14.10209 23.32358,-21.86069 8.85857,-10.0205 17.89448,-19.877602 26.79347,-29.864694 6.42384,-7.139903 13.26356,-14.037209 20.84547,-19.958507 5.38043,-3.688236 9.6312,-8.402289 14.9689,-3.345105 3.10603,5.985617 5.54326,12.302029 7.66302,18.694889 3.07778,8.741903 6.09859,17.571418 9.91043,26.027227 1.72509,3.35637 2.59909,7.70595 6.12064,9.67564 0,0 -4.77384,3.0861 -4.77384,3.0861 l 0,0 c -3.48043,-2.25739 -4.52049,-6.44682 -6.23198,-10.00693 -3.79828,-8.483569 -6.82465,-17.327823 -9.92904,-26.082009 -2.09552,-6.299764 -4.51714,-12.514513 -7.58329,-18.412369 -1.02557,-0.921255 -2.2554,-2.01601 -3.77584,-1.927319 -0.57935,0.0338 -2.05814,0.875232 -1.68736,0.428793 0.69579,-0.837772 1.76358,-1.316246 2.76999,-1.73234 0.8283,-0.342458 -1.48433,1.005087 -2.22649,1.507631 -7.66745,5.82688 -14.49218,12.790261 -20.96144,19.893586 -8.90415,9.985837 -17.94267,19.844557 -26.78816,29.879087 -7.29206,7.75694 -14.85331,15.23856 -23.18806,21.89014 0,0 -5.25,2.10687 -5.25,2.10687 z" />
    <path
       style="fill:#000000;fill-opacity:1;fill-rule:nonzero;stroke:#000000;stroke-width:4;stroke-linecap:round;stroke-linejoin:round;stroke-miterlimit:4;stroke-opacity:1;stroke-dasharray:none;stroke-dashoffset:24.6"
       id="path5552"
       d="m 409.80542,38.67402 c -4.29848,5.513202 -6.96762,11.95606 -8.83202,18.635876 -1.14863,5.924386 3.53049,6.67078 8.274,7.363195 5.94566,0.131671 11.53969,-1.560823 17.14428,-3.280217 4.12325,-1.436899 7.13544,-1.702517 10.27322,1.510551 1.81522,2.432013 2.73648,5.38895 4.15614,8.073902 2.15618,2.790711 4.94717,1.869777 7.8676,0.820663 0.76152,-0.399932 3.0477,-0.802924 2.28457,-1.199796 -0.77175,-0.401362 -2.77323,1.924626 -2.32942,1.176472 0.41975,-0.707589 12.60384,-10.322398 13.90903,-11.411679 5.43666,-5.074538 2.81877,-2.550035 7.86419,-7.562568 0,0 5.15348,-2.133261 5.15348,-2.133261 l 0,0 c -5.04864,5.035451 -2.43562,2.496321 -7.84802,7.608174 -7.42311,6.219376 -14.53381,13.008273 -23.50054,16.994111 -3.22545,1.007003 -6.107,1.560991 -8.33056,-1.471769 -1.38185,-2.640344 -2.30622,-5.534851 -4.06349,-7.931323 -3.04913,-2.99393 -6.04407,-2.323984 -9.90298,-1.020422 -5.63716,1.730264 -11.31712,3.332124 -17.29059,3.072586 -5.04053,-0.811067 -9.82545,-2.001374 -8.75042,-8.185525 1.83229,-6.730542 4.48952,-13.227184 8.71944,-18.836438 0,0 5.20209,-2.222532 5.20209,-2.222532 z" />
    <path
       style="fill:#000000;fill-opacity:1;fill-rule:nonzero;stroke:#000000;stroke-width:4;stroke-linecap:round;stroke-linejoin:round;stroke-miterlimit:4;stroke-opacity:1;stroke-dasharray:none;stroke-dashoffset:24.6"
       id="path5554"
       d="m 378.98727,-0.35281119 c 9.74929,2.25000439 19.65789,3.59611559 29.60803,4.54113879 9.09391,1.6493419 18.11205,2.7474748 27.35065,2.3632854 8.43481,-0.1369131 16.54562,-1.0425811 24.6016,-3.5164156 1.00049,-0.3352025 2.00097,-0.6704049 3.00146,-1.0056073 0,0 -4.44761,3.4543603 -4.44761,3.4543603 l 0,0 c -0.99965,0.3284733 -1.9993,0.6569466 -2.99895,0.9854198 -8.07487,2.42332 -16.24212,3.2120949 -24.66954,3.3881653 -9.2498,0.3383295 -18.28077,-0.8401685 -27.38958,-2.4285679 -9.96905,-0.9804736 -19.87994,-2.3936286 -29.67448,-4.525407 0,0 4.61842,-3.25637179 4.61842,-3.25637179 z" />
    <path
       style="fill:#000000;fill-opacity:1;fill-rule:nonzero;stroke:#000000;stroke-width:4;stroke-linecap:round;stroke-linejoin:round;stroke-miterlimit:4;stroke-opacity:1;stroke-dasharray:none;stroke-dashoffset:24.6"
       id="path5556"
       d="m 470.45583,-22.463788 c 8.14027,3.518413 16.54851,6.297552 24.82466,9.466627 4.24751,1.40486 8.73209,3.6811288 9.39751,8.5154111 -2.35706,7.6714472 -12.4609,11.3826117 -18.68589,14.7519329 -6.58691,3.265716 -13.43131,5.877225 -20.35511,8.318203 0,0 4.39796,-3.429564 4.39796,-3.429564 l 0,0 c 6.91734,-2.453305 13.74898,-5.098419 20.32397,-8.3826842 -0.2157,0.2261148 -0.92541,0.8204614 -0.6471,0.6783444 3.96548,-2.0249404 8.27619,-5.0244371 9.93684,-9.3042785 -0.35882,-4.6399025 -5.17711,-6.6607229 -9.0258,-8.0178644 -8.27896,-3.1941143 -16.69408,-5.9928843 -24.86544,-9.4650333 0,0 4.6984,-3.131094 4.6984,-3.131094 z" />
    <path
       style="fill:#000000;fill-opacity:1;fill-rule:nonzero;stroke:#000000;stroke-width:4;stroke-linecap:round;stroke-linejoin:round;stroke-miterlimit:4;stroke-opacity:1;stroke-dasharray:none;stroke-dashoffset:24.6"
       id="path5558"
       d="m 246.75009,668.30887 c -10.34769,-0.41938 -20.6338,0.4934 -30.93807,1.28114 -12.16242,0.88566 -24.23884,2.58532 -36.39935,3.54527 -9.43794,1.23585 -18.89763,2.1749 -28.22569,4.0878 -5.75375,1.25752 -11.5962,2.02246 -17.47145,2.37 -2.34928,0.10547 -4.70113,0.20662 -7.05341,0.18791 -0.16287,0.0165 -0.32491,-0.0183 -0.48604,-0.0274 0,0 4.64471,-3.32537 4.64471,-3.32537 l 0,0 c 0.15243,10e-4 0.30521,-0.003 0.45764,0.003 2.33066,0.0112 4.66102,-0.0714 6.98841,-0.18833 5.84956,-0.37754 11.66378,-1.15594 17.39395,-2.4095 9.33051,-1.87512 18.79607,-2.79033 28.2306,-4.00671 12.15468,-0.96195 24.22599,-2.66949 36.38553,-3.5335 10.33978,-0.79729 20.66226,-1.66206 31.04544,-1.30659 0,0 -4.57227,3.32195 -4.57227,3.32195 z" />
    <path
       style="fill:#000000;fill-opacity:1;fill-rule:nonzero;stroke:#000000;stroke-width:4;stroke-linecap:round;stroke-linejoin:round;stroke-miterlimit:4;stroke-opacity:1;stroke-dasharray:none;stroke-dashoffset:24.6"
       id="path5560"
       d="m 144.31313,649.43915 c -9.38542,4.6264 -16.11176,8.53133 -24.05223,13.09406 -1.38091,1.11233 -8.34455,3.67543 -9.298,4.99825 -0.55819,0.77444 1.71392,-1.68959 2.56918,-1.26548 0.72406,0.35905 -1.23326,1.05436 -1.76159,1.66595 -0.50005,0.57885 -0.87132,1.25748 -1.30697,1.88622 -1.62226,3.76113 0.94619,6.18877 4.03033,7.90712 4.08125,1.57322 8.55346,1.50128 12.86499,1.59205 3.91467,0.0408 7.74775,-0.34216 11.51575,0.86012 1.00514,0.90334 2.42467,0.49845 3.34905,1.28634 0,0 -4.8189,3.05572 -4.8189,3.05572 l 0,0 c -1.0786,-0.34234 -2.1851,-0.59864 -3.21699,-1.1456 -3.73159,-1.09784 -7.56241,-0.63065 -11.41114,-0.74389 -4.38136,-0.11457 -8.93645,-0.0616 -13.03545,-1.81549 -3.28882,-1.92751 -5.93818,-4.67136 -4.45617,-8.72859 4.27088,-6.74963 12.71822,-9.14483 19.32989,-13.0747 -4.32134,2.62318 2.25942,-1.37911 7.81845,-4.54748 4.17638,-2.38033 8.50296,-4.56225 12.76439,-6.78609 1.16724,-0.60912 2.3539,-1.18029 3.53084,-1.77044 0,0 -4.41543,3.53193 -4.41543,3.53193 z" />
    <path
       style="fill:#000000;fill-opacity:1;fill-rule:nonzero;stroke:#000000;stroke-width:4;stroke-linecap:round;stroke-linejoin:round;stroke-miterlimit:4;stroke-opacity:1;stroke-dasharray:none;stroke-dashoffset:24.6"
       id="path5562"
       d="m 173.6223,613.50763 c -1.34553,6.59899 -4.28173,13.07873 -3.41575,19.895 0.88004,4.01558 3.30849,5.56946 7.10051,4.0599 -1.04647,0.55768 -2.0045,1.3294 -3.1394,1.67304 -0.63999,0.19378 1.08453,-0.7839 1.60191,-1.20751 2.64898,-2.16889 4.77558,-4.75429 7.06351,-7.27789 3.18057,-3.10019 5.96244,-6.55023 9.22103,-9.57053 6.66456,-4.12862 6.34349,-4.29639 8.84442,1.60735 1.25689,2.76452 1.10783,5.85178 1.87807,8.72641 1.75622,5.06648 3.68046,2.7622 -2.72538,5.38757 0,0 5.1289,-2.45717 5.1289,-2.45717 l 0,0 c -6.11014,4.65744 -5.21584,5.49741 -7.38668,-0.21917 -0.8132,-2.84299 -0.6212,-5.90701 -1.84449,-8.66119 -0.52114,-1.23719 -1.10665,-2.35793 -1.83304,-3.48792 -0.18184,-0.28288 -1.08965,-0.39566 -0.81676,-0.59218 1.27088,-0.91523 2.67185,-1.63475 4.00777,-2.45213 -3.30697,2.98517 -6.07626,6.43305 -9.26838,9.5357 -4.6387,5.0227 -8.57384,9.77412 -15.20692,12.4765 -4.11274,1.17066 -6.68321,-0.73709 -7.62052,-4.91182 -0.94947,-6.86456 1.917,-13.39062 3.34022,-20.03016 0,0 5.07098,-2.4938 5.07098,-2.4938 z" />
    <path
       style="fill:#000000;fill-opacity:1;fill-rule:nonzero;stroke:#000000;stroke-width:4;stroke-linecap:round;stroke-linejoin:round;stroke-miterlimit:4;stroke-opacity:1;stroke-dasharray:none;stroke-dashoffset:24.6"
       id="path5564"
       d="m 133.6223,350.65048 c -2.30149,8.82379 -3.32122,17.88575 -4.89656,26.84283 -0.5216,5.32061 -3.38465,10.89142 -2.26041,16.28713 0.17898,0.005 0.69275,-0.0719 0.53694,0.0164 -1.3568,0.76857 -2.69389,1.65722 -4.20062,2.05896 -0.45902,0.12238 0.57581,-0.75736 0.82826,-1.15979 1.41208,-2.25109 2.26513,-4.80242 3.28342,-7.24402 2.7274,-7.77747 5.65738,-15.51134 9.37475,-22.8733 4.52582,-8.85111 5.69099,-9.72663 14.57281,-13.80586 3.71303,2.83482 2.90359,9.13436 3.0438,13.30007 0.13844,8.15676 0.085,16.31536 0.0735,24.47292 -0.25976,0.44715 0.38102,8.5416 0.003,8.61754 -1.68232,0.33806 -3.38384,0.57231 -5.07576,0.85846 -0.0179,-6.59219 2.52702,-12.948 4.92689,-18.99275 2.66521,-7.42292 6.25376,-14.50839 11.30941,-20.58434 6.92712,-5.96863 11.25282,-9.15896 13.57344,0.42233 1.73506,7.50276 -0.30009,15.54184 1.68061,22.92878 0.30423,0.54751 0.60846,1.09503 0.91269,1.64254 0,0 -4.91055,2.82126 -4.91055,2.82126 l 0,0 c -0.32077,-0.58997 -0.64153,-1.17994 -0.9623,-1.76992 -1.997,-7.39153 0.0305,-15.42813 -1.68553,-22.9442 -0.35395,-1.49992 -0.52456,-3.11351 -1.49188,-4.39743 -0.29005,-0.38499 -0.66793,-0.7685 -1.13156,-0.90039 -0.49265,-0.14015 -1.8449,0.54717 -1.52991,0.14327 0.15275,-0.19586 6.60683,-4.37463 0.73116,-0.14383 -5.16418,5.95047 -8.74298,13.04477 -11.41142,20.42991 -2.38889,5.96496 -4.95353,12.26064 -4.96019,18.77 -5.61803,4.76145 -5.06995,6.4123 -5.03665,3.07525 0.0247,-2.4747 0.0292,-4.94959 0.0452,-7.42434 0.046,-8.1519 0.0945,-16.30534 -0.0599,-24.45637 -0.12096,-3.57873 0.76184,-10.16669 -2.60613,-12.48257 1.2247,-0.86031 2.51787,-1.6306 3.6741,-2.58095 0.45354,-0.37278 -1.068,0.50094 -1.55045,0.83545 -3.35912,2.32909 -4.92249,6.52011 -7.02643,9.85862 -3.75992,7.32169 -6.69953,15.04406 -9.36873,22.8236 -1.43049,3.43348 -4.63119,14.39581 -10.57028,11.36996 -1.18458,-5.48437 1.61062,-11.12028 2.24063,-16.52103 1.60802,-8.93321 2.56595,-17.99033 4.85351,-26.80035 0,0 5.07098,-2.4938 5.07098,-2.4938 z" />
  </g>
</svg>
