<?xml version="1.0" encoding="UTF-8" standalone="no"?>
<!-- Created with Inkscape (http://www.inkscape.org/) -->
<svg
   xmlns:dc="http://purl.org/dc/elements/1.1/"
   xmlns:cc="http://creativecommons.org/ns#"
   xmlns:rdf="http://www.w3.org/1999/02/22-rdf-syntax-ns#"
   xmlns:svg="http://www.w3.org/2000/svg"
   xmlns="http://www.w3.org/2000/svg"
   xmlns:sodipodi="http://sodipodi.sourceforge.net/DTD/sodipodi-0.dtd"
   xmlns:inkscape="http://www.inkscape.org/namespaces/inkscape"
   width="413.57141"
   height="382.83395"
   id="svg4206"
   sodipodi:version="0.32"
   inkscape:version="0.46+devel r20655"
   version="1.0"
   sodipodi:docname="c1d1.svg"
   inkscape:output_extension="org.inkscape.output.svg.inkscape">
  <sodipodi:namedview
     id="base"
     pagecolor="#ffffff"
     bordercolor="#666666"
     borderopacity="1.0"
     inkscape:pageopacity="0.0"
     inkscape:pageshadow="2"
     inkscape:zoom="0.86547542"
     inkscape:cx="206.78571"
     inkscape:cy="266.90532"
     inkscape:document-units="px"
     inkscape:current-layer="layer1"
     showgrid="false"
     inkscape:window-width="1280"
     inkscape:window-height="712"
     inkscape:window-x="-5"
     inkscape:window-y="-3" />
  <defs
     id="defs4208">
    <inkscape:perspective
       sodipodi:type="inkscape:persp3d"
       inkscape:vp_x="0 : 526.18109 : 1"
       inkscape:vp_y="0 : 1000 : 0"
       inkscape:vp_z="744.09448 : 526.18109 : 1"
       inkscape:persp3d-origin="372.04724 : 350.78739 : 1"
       id="perspective4214" />
  </defs>
  <metadata
     id="metadata4211">
    <rdf:RDF>
      <cc:Work
         rdf:about="">
        <dc:format>image/svg+xml</dc:format>
        <dc:type
           rdf:resource="http://purl.org/dc/dcmitype/StillImage" />
        <dc:title></dc:title>
      </cc:Work>
    </rdf:RDF>
  </metadata>
  <g
     inkscape:label="Layer 1"
     inkscape:groupmode="layer"
     id="layer1"
     transform="translate(-31.785714,-212.00145)">
    <path
       style="fill:none;stroke:#000000;stroke-width:5;stroke-miterlimit:4;stroke-opacity:1;stroke-dasharray:none"
       d="M 34.285714,575.21933 C 128.57143,629.50504 261.78659,548.85081 271.42858,415.21932 280.86547,284.43034 334.28572,195.21933 442.85714,218.07647"
       id="path4216"
       sodipodi:nodetypes="czz" />
    <g
       transform="matrix(2.0827625,0,0,2.0827625,-286.26785,373.97287)"
       id="g4774">
      <g
         style="font-style:normal;font-variant:normal;font-weight:normal;font-stretch:normal;letter-spacing:normal;word-spacing:normal;text-anchor:start;fill:none;stroke:#000000;stroke-linecap:butt;stroke-linejoin:miter;stroke-miterlimit:10.43299961;stroke-opacity:1;stroke-dasharray:none;stroke-dashoffset:0"
         word-spacing="normal"
         letter-spacing="normal"
         font-size-adjust="none"
         font-stretch="normal"
         font-weight="normal"
         font-variant="normal"
         font-style="normal"
         fill-rule="even-odd"
         stroke-miterlimit="10.433"
         xml:space="preserve"
         transform="matrix(0.54690564,0,0,-0.54690564,-95.708488,310.17856)"
         id="g4776"><path
           style="fill:#000000;stroke-width:0"
           id="path4778"
           d="m 480.75,435.64 -0.07,-0.06 -0.07,-0.07 -0.08,-0.07 -0.08,-0.07 -0.09,-0.08 -0.09,-0.08 -0.09,-0.09 -0.09,-0.09 -0.1,-0.09 -0.09,-0.09 -0.2,-0.19 -0.19,-0.19 -0.19,-0.21 -0.09,-0.1 -0.09,-0.1 -0.09,-0.1 -0.08,-0.11 -0.08,-0.1 -0.08,-0.1 -0.07,-0.1 -0.06,-0.1 -0.06,-0.1 -0.05,-0.1 -0.05,-0.1 -0.04,-0.09 -0.03,-0.1 -0.02,-0.09 -0.02,-0.09 0,-0.08 c 0,-0.5 0.5,-1 1,-1 0.44,0 0.69,0.35 0.94,0.65 0.6,0.75 1.74,2.14 3.94,3.24 0.35,0.2 0.84,0.45 0.84,1.05 0,0.49 -0.34,0.74 -0.69,0.99 -1.1,0.75 -1.65,1.64 -2.05,2.84 -0.1,0.45 -0.3,1.1 -0.99,1.1 -0.7,0 -1,-0.65 -1,-1.05 0,-0.25 0.4,-1.84 1.2,-2.89 h -16.79 c -0.85,0 -1.74,0 -1.74,-0.99 0,-1 0.89,-1 1.74,-1 z" /><path
           style="fill:#000000;stroke-width:0"
           id="path4780"
           d="m 460.38,408.94 -0.01,-0.07 -0.02,-0.08 -0.01,-0.07 -0.02,-0.08 -0.03,-0.16 -0.04,-0.16 -0.04,-0.16 -0.03,-0.16 -0.04,-0.16 -0.04,-0.16 -0.01,-0.08 -0.02,-0.07 -0.02,-0.07 -0.01,-0.07 -0.02,-0.07 -0.01,-0.07 -0.01,-0.06 -0.02,-0.06 -0.01,-0.05 -0.01,-0.06 -0.01,-0.05 0,-0.04 -0.01,-0.04 0,-0.04 -0.01,-0.03 0,-0.02 c 0,-0.9 0.7,-1.35 1.45,-1.35 0.6,0 1.5,0.4 1.84,1.4 0.1,0.2 1.8,6.97 1.99,7.87 0.4,1.64 1.3,5.13 1.6,6.47 0.2,0.65 1.59,2.99 2.79,4.09 0.4,0.34 1.84,1.64 3.99,1.64 1.29,0 2.03,-0.6 2.09,-0.6 -1.5,-0.25 -2.59,-1.44 -2.59,-2.73 0,-0.8 0.54,-1.75 1.89,-1.75 1.34,0 2.74,1.14 2.74,2.94 0,1.74 -1.6,3.24 -4.13,3.24 -3.24,0 -5.43,-2.44 -6.38,-3.84 -0.4,2.24 -2.19,3.84 -4.53,3.84 -2.3,0 -3.24,-1.95 -3.69,-2.84 -0.9,-1.7 -1.54,-4.68 -1.54,-4.83 0,-0.5 0.49,-0.5 0.59,-0.5 0.5,0 0.55,0.05 0.85,1.14 0.84,3.54 1.84,5.93 3.64,5.93 0.84,0 1.54,-0.4 1.54,-2.29 0,-1.04 -0.15,-1.59 -0.8,-4.18 z" /><path
           style="fill:#000000;stroke-width:0"
           id="path4782"
           d="m 495.49,394.04 0,0.03 0,0.03 -0.01,0.01 0,0.02 0,0.01 -0.01,0.02 0,0.02 -0.01,0.01 -0.01,0.02 -0.01,0.02 -0.01,0.03 -0.01,0.02 -0.02,0.02 -0.02,0.03 -0.02,0.03 -0.02,0.03 -0.03,0.03 -0.03,0.04 -0.01,0.02 -0.02,0.02 -0.02,0.02 -0.02,0.02 -0.02,0.02 -0.02,0.03 -0.02,0.02 -0.02,0.02 -0.02,0.03 -0.03,0.02 -0.02,0.03 -0.03,0.03 -0.02,0.03 -0.03,0.03 -0.03,0.03 -0.03,0.03 -0.03,0.03 -0.03,0.03 -0.04,0.04 -0.03,0.03 -0.04,0.04 -0.03,0.03 -0.04,0.04 -0.04,0.04 c -6.23,6.28 -7.82,15.69 -7.82,23.31 0,8.67 1.89,17.34 8.02,23.57 0.65,0.59 0.65,0.69 0.65,0.84 0,0.35 -0.2,0.5 -0.5,0.5 -0.5,0 -4.98,-3.39 -7.92,-9.72 -2.54,-5.47 -3.14,-11 -3.14,-15.19 0,-3.88 0.55,-9.91 3.29,-15.54 2.99,-6.12 7.27,-9.36 7.77,-9.36 0.3,0 0.5,0.15 0.5,0.49 z" /><path
           style="fill:#000000;stroke-width:0"
           id="path4784"
           d="m 517.58,424.83 -0.08,0.17 -0.09,0.17 -0.1,0.16 -0.09,0.16 -0.1,0.16 -0.1,0.16 -0.11,0.15 -0.11,0.14 -0.11,0.15 -0.12,0.13 -0.12,0.14 -0.12,0.13 -0.13,0.12 -0.13,0.12 -0.14,0.11 -0.14,0.11 -0.14,0.11 -0.15,0.09 -0.15,0.1 -0.15,0.08 -0.16,0.08 -0.17,0.08 -0.17,0.07 -0.17,0.06 -0.17,0.05 -0.19,0.05 -0.18,0.04 -0.19,0.03 -0.19,0.03 -0.2,0.02 -0.21,0.01 -0.2,0.01 0.05,-1.1 c 3.23,0 3.93,-4.08 3.93,-4.38 0,-0.3 -0.1,-0.6 -0.15,-0.85 l -2.49,-9.76 c -0.25,-0.9 -0.25,-1 -0.99,-1.84 -2.19,-2.75 -4.24,-3.54 -5.63,-3.54 -2.49,0 -3.19,2.74 -3.19,4.68 0,2.49 1.59,8.62 2.74,10.91 1.54,2.94 3.78,4.78 5.78,4.78 l -0.05,1.1 c -5.83,0 -12.01,-7.32 -12.01,-14.6 0,-4.68 2.74,-7.97 6.63,-7.97 0.99,0 3.49,0.2 6.47,3.74 0.4,-2.09 2.14,-3.74 4.53,-3.74 1.75,0 2.9,1.15 3.69,2.74 0.85,1.79 1.5,4.83 1.5,4.93 0,0.5 -0.45,0.5 -0.6,0.5 -0.5,0 -0.55,-0.2 -0.7,-0.89 -0.85,-3.24 -1.74,-6.18 -3.78,-6.18 -1.35,0 -1.5,1.29 -1.5,2.29 0,1.09 0.1,1.49 0.65,3.69 0.55,2.09 0.65,2.59 1.1,4.48 0.84,3.19 1.04,4.13 1.79,6.97 0.35,1.4 0.35,1.5 0.35,1.7 0,0.84 -0.6,1.34 -1.45,1.34 -1.19,0 -1.94,-1.09 -2.09,-2.19 z" /><path
           style="fill:#000000;stroke-width:0"
           id="path4786"
           d="m 539.4,418.45 -0.01,0.37 0,0.39 -0.01,0.39 -0.01,0.41 -0.04,0.84 -0.06,0.88 -0.09,0.92 -0.1,0.94 -0.14,0.98 -0.16,1 -0.2,1.02 -0.23,1.04 -0.27,1.05 -0.3,1.06 -0.35,1.06 -0.39,1.07 -0.22,0.53 -0.22,0.54 -0.24,0.53 -0.25,0.53 c -2.99,6.12 -7.27,9.36 -7.77,9.36 -0.3,0 -0.5,-0.2 -0.5,-0.5 0,-0.15 0,-0.25 0.94,-1.15 4.89,-4.92 7.73,-12.85 7.73,-23.26 0,-8.52 -1.85,-17.28 -8.02,-23.56 -0.65,-0.6 -0.65,-0.69 -0.65,-0.85 0,-0.29 0.2,-0.49 0.5,-0.49 0.5,0 4.98,3.38 7.92,9.71 2.54,5.48 3.14,11.01 3.14,15.19 z" /></g>    </g>
    <g
       transform="matrix(2.0827625,0,0,2.0827625,33.787456,96.668633)"
       id="g4828">
      <g
         style="font-style:normal;font-variant:normal;font-weight:normal;font-stretch:normal;letter-spacing:normal;word-spacing:normal;text-anchor:start;fill:none;stroke:#000000;stroke-linecap:butt;stroke-linejoin:miter;stroke-miterlimit:10.43299961;stroke-opacity:1;stroke-dasharray:none;stroke-dashoffset:0"
         id="g4830"
         transform="matrix(0.54690564,0,0,-0.54690564,-95.708488,310.17856)"
         xml:space="preserve"
         stroke-miterlimit="10.433"
         fill-rule="even-odd"
         font-style="normal"
         font-variant="normal"
         font-weight="normal"
         font-stretch="normal"
         font-size-adjust="none"
         letter-spacing="normal"
         word-spacing="normal"><path
           style="fill:#000000;stroke-width:0"
           d="m 480.75,435.64 -0.07,-0.06 -0.07,-0.07 -0.08,-0.07 -0.08,-0.07 -0.09,-0.08 -0.09,-0.08 -0.09,-0.09 -0.09,-0.09 -0.1,-0.09 -0.09,-0.09 -0.2,-0.19 -0.19,-0.19 -0.19,-0.21 -0.09,-0.1 -0.09,-0.1 -0.09,-0.1 -0.08,-0.11 -0.08,-0.1 -0.08,-0.1 -0.07,-0.1 -0.06,-0.1 -0.06,-0.1 -0.05,-0.1 -0.05,-0.1 -0.04,-0.09 -0.03,-0.1 -0.02,-0.09 -0.02,-0.09 0,-0.08 c 0,-0.5 0.5,-1 1,-1 0.44,0 0.69,0.35 0.94,0.65 0.6,0.75 1.74,2.14 3.94,3.24 0.35,0.2 0.84,0.45 0.84,1.05 0,0.49 -0.34,0.74 -0.69,0.99 -1.1,0.75 -1.65,1.64 -2.05,2.84 -0.1,0.45 -0.3,1.1 -0.99,1.1 -0.7,0 -1,-0.65 -1,-1.05 0,-0.25 0.4,-1.84 1.2,-2.89 h -16.79 c -0.85,0 -1.74,0 -1.74,-0.99 0,-1 0.89,-1 1.74,-1 z"
           id="path4832" /><path
           style="fill:#000000;stroke-width:0"
           d="m 460.38,408.94 -0.01,-0.07 -0.02,-0.08 -0.01,-0.07 -0.02,-0.08 -0.03,-0.16 -0.04,-0.16 -0.04,-0.16 -0.03,-0.16 -0.04,-0.16 -0.04,-0.16 -0.01,-0.08 -0.02,-0.07 -0.02,-0.07 -0.01,-0.07 -0.02,-0.07 -0.01,-0.07 -0.01,-0.06 -0.02,-0.06 -0.01,-0.05 -0.01,-0.06 -0.01,-0.05 0,-0.04 -0.01,-0.04 0,-0.04 -0.01,-0.03 0,-0.02 c 0,-0.9 0.7,-1.35 1.45,-1.35 0.6,0 1.5,0.4 1.84,1.4 0.1,0.2 1.8,6.97 1.99,7.87 0.4,1.64 1.3,5.13 1.6,6.47 0.2,0.65 1.59,2.99 2.79,4.09 0.4,0.34 1.84,1.64 3.99,1.64 1.29,0 2.03,-0.6 2.09,-0.6 -1.5,-0.25 -2.59,-1.44 -2.59,-2.73 0,-0.8 0.54,-1.75 1.89,-1.75 1.34,0 2.74,1.14 2.74,2.94 0,1.74 -1.6,3.24 -4.13,3.24 -3.24,0 -5.43,-2.44 -6.38,-3.84 -0.4,2.24 -2.19,3.84 -4.53,3.84 -2.3,0 -3.24,-1.95 -3.69,-2.84 -0.9,-1.7 -1.54,-4.68 -1.54,-4.83 0,-0.5 0.49,-0.5 0.59,-0.5 0.5,0 0.55,0.05 0.85,1.14 0.84,3.54 1.84,5.93 3.64,5.93 0.84,0 1.54,-0.4 1.54,-2.29 0,-1.04 -0.15,-1.59 -0.8,-4.18 z"
           id="path4834" /><path
           style="fill:#000000;stroke-width:0"
           d="m 495.49,394.04 0,0.03 0,0.03 -0.01,0.01 0,0.02 0,0.01 -0.01,0.02 0,0.02 -0.01,0.01 -0.01,0.02 -0.01,0.02 -0.01,0.03 -0.01,0.02 -0.02,0.02 -0.02,0.03 -0.02,0.03 -0.02,0.03 -0.03,0.03 -0.03,0.04 -0.01,0.02 -0.02,0.02 -0.02,0.02 -0.02,0.02 -0.02,0.02 -0.02,0.03 -0.02,0.02 -0.02,0.02 -0.02,0.03 -0.03,0.02 -0.02,0.03 -0.03,0.03 -0.02,0.03 -0.03,0.03 -0.03,0.03 -0.03,0.03 -0.03,0.03 -0.03,0.03 -0.04,0.04 -0.03,0.03 -0.04,0.04 -0.03,0.03 -0.04,0.04 -0.04,0.04 c -6.23,6.28 -7.82,15.69 -7.82,23.31 0,8.67 1.89,17.34 8.02,23.57 0.65,0.59 0.65,0.69 0.65,0.84 0,0.35 -0.2,0.5 -0.5,0.5 -0.5,0 -4.98,-3.39 -7.92,-9.72 -2.54,-5.47 -3.14,-11 -3.14,-15.19 0,-3.88 0.55,-9.91 3.29,-15.54 2.99,-6.12 7.27,-9.36 7.77,-9.36 0.3,0 0.5,0.15 0.5,0.49 z"
           id="path4836" /><path
           style="fill:#000000;stroke-width:0"
           d="m 510.91,440.02 0,0.01 0,0 0,0.01 0,0.01 -0.01,0.01 0,0.01 0,0.02 0,0.02 0,0.02 -0.01,0.02 0,0.02 -0.01,0.02 -0.01,0.03 -0.01,0.02 -0.01,0.03 -0.01,0.02 -0.01,0.02 -0.02,0.03 -0.02,0.02 -0.02,0.03 -0.02,0.02 -0.01,0.01 -0.02,0.01 -0.01,0.01 -0.01,0.01 -0.02,0.01 -0.01,0.01 -0.02,0.01 -0.02,0.01 -0.01,0.01 -0.02,0.01 -0.02,0.01 -0.02,0 -0.02,0.01 -0.02,0.01 -0.03,0 -0.02,0.01 -0.02,0 -0.03,0.01 -0.02,0 -0.03,0 -0.03,0.01 -0.02,0 -0.03,0 -0.03,0 c -1.15,0 -4.78,-0.4 -6.08,-0.5 -0.4,-0.05 -0.95,-0.1 -0.95,-1 0,-0.59 0.45,-0.59 1.2,-0.59 2.39,0 2.49,-0.35 2.49,-0.85 0,-0.35 -0.45,-2.04 -0.7,-3.09 l -4.08,-16.24 c -0.6,-2.49 -0.8,-3.28 -0.8,-5.03 0,-4.73 2.64,-7.82 6.33,-7.82 v 1.1 c -1.7,0 -3.34,1.34 -3.34,5.03 0,0.95 0,1.89 0.8,5.03 l 1.09,4.58 c 0.3,1.1 0.3,1.2 0.75,1.75 2.44,3.24 4.68,3.98 5.98,3.98 1.79,0 3.14,-1.49 3.14,-4.68 0,-2.94 -1.65,-8.67 -2.54,-10.56 -1.65,-3.34 -3.94,-5.13 -5.88,-5.13 v -1.1 c 5.88,0 12,7.43 12,14.6 0,4.53 -2.64,7.97 -6.62,7.97 -2.29,0 -4.34,-1.45 -5.83,-2.99 z"
           id="path4838" /><path
           style="fill:#000000;stroke-width:0"
           d="m 534.4,418.45 -0.01,0.37 0,0.39 -0.01,0.39 -0.01,0.41 -0.04,0.84 -0.06,0.88 -0.09,0.92 -0.1,0.94 -0.14,0.98 -0.16,1 -0.2,1.02 -0.23,1.04 -0.27,1.05 -0.3,1.06 -0.35,1.06 -0.39,1.07 -0.22,0.53 -0.22,0.54 -0.24,0.53 -0.25,0.53 c -2.99,6.12 -7.27,9.36 -7.77,9.36 -0.3,0 -0.5,-0.2 -0.5,-0.5 0,-0.15 0,-0.25 0.94,-1.15 4.89,-4.92 7.73,-12.85 7.73,-23.26 0,-8.52 -1.85,-17.28 -8.02,-23.56 -0.65,-0.6 -0.65,-0.69 -0.65,-0.85 0,-0.29 0.2,-0.49 0.5,-0.49 0.5,0 4.98,3.38 7.92,9.71 2.54,5.48 3.14,11.01 3.14,15.19 z"
           id="path4840" /></g>    </g>
    <g
       id="g4889"
       transform="matrix(2.0154224,0,0,2.0154224,-98.50625,231.10575)">
      <g
         word-spacing="normal"
         letter-spacing="normal"
         font-size-adjust="none"
         font-stretch="normal"
         font-weight="normal"
         font-variant="normal"
         font-style="normal"
         fill-rule="even-odd"
         stroke-miterlimit="10.433"
         xml:space="preserve"
         transform="matrix(0.54690564,0,0,-0.54690564,-95.708488,310.17856)"
         id="content"
         style="font-style:normal;font-variant:normal;font-weight:normal;font-stretch:normal;letter-spacing:normal;word-spacing:normal;text-anchor:start;fill:none;stroke:#000000;stroke-linecap:butt;stroke-linejoin:miter;stroke-miterlimit:10.43299961;stroke-opacity:1;stroke-dasharray:none;stroke-dashoffset:0"><path
           id="path4892"
           d="m 493.86,440.62 0,0.02 0,0.01 0,0.02 -0.01,0.02 0,0.01 0,0.02 -0.01,0.02 0,0.02 -0.01,0.02 -0.01,0.02 -0.01,0.02 -0.01,0.02 -0.01,0.02 -0.01,0.02 -0.01,0.02 -0.02,0.02 -0.01,0.02 -0.02,0.02 -0.02,0.02 -0.02,0.02 -0.02,0.02 -0.02,0.01 -0.03,0.02 -0.03,0.01 -0.02,0.01 -0.02,0.01 -0.01,0 -0.02,0.01 -0.02,0 -0.01,0.01 -0.02,0 -0.02,0.01 -0.01,0 -0.02,0 -0.02,0 -0.02,0 -0.02,0.01 -0.02,0 -0.02,0 c -0.15,0 -0.2,-0.05 -0.75,-0.6 l -3.49,-3.84 c -0.44,0.7 -2.73,4.44 -8.26,4.44 -11.11,0 -22.32,-11.01 -22.32,-22.57 0,-8.22 5.88,-13.65 13.5,-13.65 4.33,0 8.12,2 10.76,4.29 4.63,4.08 5.48,8.61 5.48,8.77 0,0.49 -0.5,0.49 -0.6,0.49 -0.3,0 -0.55,-0.09 -0.65,-0.49 -0.44,-1.45 -1.59,-4.99 -5.03,-7.87 -3.43,-2.79 -6.57,-3.64 -9.16,-3.64 -4.49,0 -9.77,2.59 -9.77,10.36 0,2.84 1.05,10.91 6.03,16.74 3.04,3.53 7.72,6.02 12.16,6.02 5.08,0 8.02,-3.83 8.02,-9.61 0,-1.99 -0.16,-2.04 -0.16,-2.54 0,-0.5 0.55,-0.5 0.75,-0.5 0.65,0 0.65,0.1 0.9,1 z"
           style="fill:#000000;stroke-width:0" /></g>    </g>
  </g>
</svg>
