<?xml version="1.0" encoding="UTF-8" standalone="no"?>
<!-- Created with Inkscape (http://www.inkscape.org/) -->
<svg
   xmlns:dc="http://purl.org/dc/elements/1.1/"
   xmlns:cc="http://creativecommons.org/ns#"
   xmlns:rdf="http://www.w3.org/1999/02/22-rdf-syntax-ns#"
   xmlns:svg="http://www.w3.org/2000/svg"
   xmlns="http://www.w3.org/2000/svg"
   xmlns:sodipodi="http://sodipodi.sourceforge.net/DTD/sodipodi-0.dtd"
   xmlns:inkscape="http://www.inkscape.org/namespaces/inkscape"
   width="1301.8453"
   height="610.7522"
   id="svg5802"
   sodipodi:version="0.32"
   inkscape:version="0.46+devel r20655"
   sodipodi:docname="c3d1.svg"
   version="1.0"
   inkscape:output_extension="org.inkscape.output.svg.inkscape">
  <sodipodi:namedview
     id="base"
     pagecolor="#ffffff"
     bordercolor="#666666"
     borderopacity="1.0"
     inkscape:pageopacity="0.0"
     inkscape:pageshadow="2"
     inkscape:zoom="0.35"
     inkscape:cx="762.33353"
     inkscape:cy="274.49077"
     inkscape:document-units="px"
     inkscape:current-layer="layer1"
     showgrid="false"
     inkscape:window-width="1280"
     inkscape:window-height="712"
     inkscape:window-x="-5"
     inkscape:window-y="-3" />
  <defs
     id="defs5804">
    <inkscape:perspective
       sodipodi:type="inkscape:persp3d"
       inkscape:vp_x="0 : 526.18109 : 1"
       inkscape:vp_y="0 : 1000 : 0"
       inkscape:vp_z="744.09448 : 526.18109 : 1"
       inkscape:persp3d-origin="372.04724 : 350.78739 : 1"
       id="perspective5810" />
  </defs>
  <metadata
     id="metadata5807">
    <rdf:RDF>
      <cc:Work
         rdf:about="">
        <dc:format>image/svg+xml</dc:format>
        <dc:type
           rdf:resource="http://purl.org/dc/dcmitype/StillImage" />
        <dc:title></dc:title>
      </cc:Work>
    </rdf:RDF>
  </metadata>
  <g
     inkscape:label="Layer 1"
     inkscape:groupmode="layer"
     id="layer1"
     transform="translate(387.33353,-196.10076)">
    <path
       style="fill:#000000;fill-opacity:1;fill-rule:nonzero;stroke:#000000;stroke-width:3;stroke-linecap:round;stroke-linejoin:round;stroke-miterlimit:4;stroke-opacity:1;stroke-dasharray:none;stroke-dashoffset:0"
       id="path5812"
       d="m 153.90252,269.85947 c 3.277,3.63208 7.26405,6.46159 11.36456,9.07793 8.97859,5.66892 19.23017,8.49308 29.45857,10.91254 16.94798,3.68716 34.31459,4.5264 51.59581,5.05224 23.38093,0.55338 46.74626,-0.72388 70.08387,-1.9707 25.51243,-1.55362 51.00635,-3.38994 76.47523,-5.54042 23.49067,-1.90202 46.9152,-4.49345 70.32997,-7.14864 16.49306,-1.76346 32.95226,-3.80408 49.36375,-6.21003 6.74515,-0.59526 13.70328,-3.11028 20.49418,-1.77271 4.67275,2.85554 2.83544,10.42892 2.48703,14.96543 -1.82457,16.23087 -3.94131,32.42728 -5.88169,48.64473 -3.00213,24.94092 -5.80394,49.90565 -8.54509,74.87646 -2.95497,26.51926 -5.08823,53.11676 -6.82561,79.7403 -1.52169,24.0527 -2.35695,48.14016 -2.98376,72.23037 -0.50036,20.57443 -0.68703,41.15446 -0.79941,61.73408 -0.0722,15.44071 -0.0569,30.88165 -0.007,46.32239 -0.29939,7.40461 0.60272,15.25734 -2.35507,22.24203 -7.44608,10.2776 -15.30233,8.09144 -24.67169,5.26021 -13.14449,-4.51037 -26.62843,-7.81528 -40.17294,-10.85576 -20.96495,-4.59394 -42.28566,-7.15444 -63.61494,-9.31179 -24.6582,-2.67856 -49.44843,-2.79438 -74.19928,-1.83486 -24.93641,1.12584 -49.6608,4.6106 -74.25046,8.73828 -22.9644,4.07329 -45.7518,9.05933 -68.53401,14.03174 -18.7628,4.14147 -37.46646,8.54288 -56.22701,12.69402 -11.839173,2.36575 -23.582181,5.1843 -35.396714,7.66086 -5.13497,1.02944 -10.60267,2.5523 -15.235294,-0.55528 -3.752189,-4.17141 -3.803442,-10.17201 -4.183097,-15.47845 -0.484794,-11.58182 -0.358199,-23.18305 -0.126124,-34.76955 0.528889,-19.0121 1.196292,-38.01948 1.989097,-57.02229 1.119646,-25.0751 3.058223,-50.10166 5.48236,-75.08134 2.574187,-25.78785 6.544585,-51.40356 10.553856,-76.99828 3.47824,-22.22035 6.809041,-44.46353 9.702386,-66.76799 2.352736,-18.36424 3.971477,-36.8088 5.267893,-55.27408 0.797545,-12.11986 1.578789,-24.25007 1.20318,-36.399 -0.08087,-5.40825 -1.379647,-10.91095 -0.449846,-16.29761 3.319074,-7.25942 12.333872,-8.82912 19.426663,-8.55712 3.39054,0.23585 6.77544,0.51009 10.16808,0.71643 0,0 -9.13082,6.54822 -9.13082,6.54822 l 0,0 c -3.39521,-0.21307 -6.785617,-0.48878 -10.183728,-0.65147 -1.73172,-0.0131 -3.149642,-0.10741 -4.847998,0.16517 -0.586844,0.0942 -2.21589,0.77804 -1.728437,0.43797 15.826473,-11.04122 8.946518,-6.04066 6.519094,-3.59647 -1.386531,5.22859 0.245631,10.8253 0.17593,16.12785 0.358235,12.21268 -0.47576,24.40149 -1.314901,36.58143 -1.334306,18.50241 -2.988832,36.9835 -5.350491,55.38634 -2.911662,22.3284 -6.265451,44.59455 -9.77588,66.83628 -4.03855,25.58117 -8.0474,51.18282 -10.624253,76.96196 -2.420618,24.94242 -4.335414,49.93311 -5.401985,74.97332 -0.750136,18.96695 -1.368159,37.93836 -1.829657,56.9147 -0.198992,11.52917 -0.264315,23.072 0.246416,34.5944 0.353949,4.87129 0.260908,10.68831 3.743549,14.50833 4.489314,2.58516 9.85663,0.74739 14.626266,-0.0721 11.75207,-2.46748 23.454755,-5.17164 35.227035,-7.54657 18.72122,-4.1224 37.38676,-8.49135 56.11069,-12.60199 22.77568,-4.95748 45.55957,-9.91653 68.52045,-13.95493 24.61212,-4.09203 49.35951,-7.52949 74.31384,-8.614 24.79474,-0.91902 49.62516,-0.75567 74.32415,1.92938 21.39573,2.16731 42.78077,4.74482 63.81581,9.32928 13.61911,3.03488 27.16361,6.36884 40.41484,10.77728 3.157,0.89917 6.55721,2.15481 9.89997,2.13261 0.67225,-0.004 2.52685,-0.70202 1.9959,-0.28967 -2.50423,1.94482 -5.388,3.34416 -8.082,5.01624 0.4341,-0.36792 0.86819,-0.73583 1.30229,-1.10374 3.50299,-6.64176 2.30431,-14.66039 2.76773,-21.89003 0.0211,-15.46851 0.052,-30.93705 0.15175,-46.40529 0.14879,-20.60095 0.35468,-41.20237 0.87665,-61.79784 0.64983,-24.11609 1.50823,-48.22912 3.04363,-72.30743 1.74478,-26.6401 3.88515,-53.25382 6.824,-79.7918 2.71635,-24.94898 5.4917,-49.89193 8.40765,-74.81841 1.87145,-16.15311 3.89856,-32.28876 5.61401,-48.45937 0.24251,-3.31367 2.08237,-11.66102 -1.75319,-13.46282 -6.71063,-0.89968 -13.45806,1.326 -20.10294,1.91629 -16.35932,2.31597 -32.76013,4.30138 -49.19111,6.03892 -23.39588,2.62138 -46.80166,5.17425 -70.27032,7.06615 -25.47792,2.13103 -50.9794,3.96877 -76.49954,5.51776 -23.38818,1.25565 -46.80485,2.52861 -70.23665,1.96922 -17.37799,-0.53591 -34.84176,-1.38298 -51.87888,-5.12512 -10.3543,-2.47452 -20.71166,-5.3852 -29.79639,-11.13792 -4.17381,-2.67985 -8.21199,-5.57263 -11.62482,-9.20318 0,0 9.71453,-5.95308 9.71453,-5.95308 z" />
    <path
       style="fill:#000000;fill-opacity:1;fill-rule:nonzero;stroke:#000000;stroke-width:3;stroke-linecap:round;stroke-linejoin:round;stroke-miterlimit:4;stroke-opacity:1;stroke-dasharray:none;stroke-dashoffset:0"
       id="path5814"
       d="m 287.92871,396.34527 c 0.0206,7.73995 -0.28015,15.47249 -0.5656,23.20572 -0.50128,16.36076 -1.32648,32.70848 -2.07293,49.05924 -0.88611,19.05672 -1.52531,38.12326 -2.04985,57.19295 -0.43702,16.38614 -0.69893,32.77612 -0.89652,49.16667 -0.0799,8.10167 -0.0452,4.18779 -0.10582,11.74163 0,0 -9.93345,5.047 -9.93345,5.047 l 0,0 c 0.11295,-7.5804 0.0541,-3.65357 0.17661,-11.78048 0.25505,-16.41384 0.55467,-32.8272 1.00141,-49.2371 0.53603,-19.07392 1.17003,-38.14508 2.03654,-57.20721 0.72188,-16.3197 1.5156,-32.6373 1.92081,-48.9689 0.23763,-7.6816 0.53054,-15.36499 0.34567,-23.05134 0,0 10.14313,-5.16818 10.14313,-5.16818 z" />
    <path
       style="fill:#000000;fill-opacity:1;fill-rule:nonzero;stroke:#000000;stroke-width:3;stroke-linecap:round;stroke-linejoin:round;stroke-miterlimit:4;stroke-opacity:1;stroke-dasharray:none;stroke-dashoffset:0"
       id="path5816"
       d="m 148.09273,372.96873 c 1.97746,4.04696 5.47316,6.81356 9.13095,9.25735 8.05374,4.80216 17.31139,5.81716 26.46612,6.47958 14.46939,0.58148 28.87115,-1.39547 43.18203,-3.26447 16.75903,-2.49845 33.50695,-5.05546 50.30694,-7.26667 14.35449,-2.02838 28.80275,-3.10424 43.2776,-3.73436 9.12843,-0.35887 18.26465,-0.43574 27.39888,-0.36191 2.98716,-0.28946 6.66874,0.97818 9.34931,-0.75492 0,0 -8.91966,7.0621 -8.91966,7.0621 l 0,0 c -3.1073,0.83237 -6.3707,0.19969 -9.54237,0.3004 -9.08015,-0.099 -18.16269,-0.0376 -27.23749,0.31767 -14.4275,0.6307 -28.82629,1.72878 -43.13372,3.74813 -16.80223,2.21917 -33.55078,4.79398 -50.31614,7.27149 -14.3873,1.87137 -28.87139,3.83318 -43.41607,3.15508 -9.33551,-0.72749 -18.74274,-1.89705 -26.90171,-6.88566 -3.8017,-2.59011 -7.38885,-5.51887 -9.54725,-9.68543 0,0 9.90258,-5.63838 9.90258,-5.63838 z" />
    <path
       style="fill:#000000;fill-opacity:1;fill-rule:nonzero;stroke:#000000;stroke-width:3;stroke-linecap:round;stroke-linejoin:round;stroke-miterlimit:4;stroke-opacity:1;stroke-dasharray:none;stroke-dashoffset:0"
       id="path5818"
       d="m -263.17431,298.38796 c 4.99245,3.97715 10.54833,7.17757 16.07115,10.34687 12.28324,6.91219 25.50978,11.83807 38.74303,16.56989 17.76336,6.12562 35.64211,11.90828 53.4252,17.97491 18.36041,6.33113 36.64554,12.87713 54.88227,19.55533 15.688851,5.91242 31.386123,11.80382 47.063813,17.74602 10.271611,3.77474 20.35555,8.1395 31.025386,10.68232 0,0 -9.240778,6.37655 -9.240778,6.37655 l 0,0 c -10.614208,-2.73396 -20.688083,-7.09016 -30.944076,-10.89971 -15.643834,-5.96623 -31.305861,-11.88602 -46.972585,-17.79154 -18.22251,-6.68467 -36.49493,-13.23348 -54.84972,-19.54696 -17.80784,-6.05589 -35.70764,-11.83785 -53.49841,-17.94485 -13.31933,-4.75058 -26.62173,-9.71246 -38.99809,-16.63513 -5.6138,-3.19571 -11.25193,-6.42325 -16.36424,-10.39474 0,0 9.65705,-6.03896 9.65705,-6.03896 z" />
    <path
       style="fill:#000000;fill-opacity:1;fill-rule:nonzero;stroke:#000000;stroke-width:3;stroke-linecap:round;stroke-linejoin:round;stroke-miterlimit:4;stroke-opacity:1;stroke-dasharray:none;stroke-dashoffset:0"
       id="path5820"
       d="m -3.2597089,341.60917 c 2.92838917,4.89328 5.7224908,9.86449 8.5642876,14.80803 4.6483597,7.92934 8.9902943,16.02832 13.3508763,24.117 2.981948,5.61762 6.64251,11.17064 7.33247,17.61998 -1.164853,8.77274 -12.526326,11.57319 -20.0991035,13.79298 -9.712099,2.45506 -19.3643175,5.12376 -29.0087715,7.8295 -5.658384,1.62216 -11.291176,3.32572 -16.910557,5.07721 0,0 8.799498,-6.80675 8.799498,-6.80675 l 0,0 c 5.626296,-1.7368 11.26307,-3.43659 16.925899,-5.05137 9.6776889,-2.72422 19.3794942,-5.35009 29.096433,-7.92953 1.072017,-0.34186 2.157921,-0.64289 3.216051,-1.02558 0.895041,-0.3237 3.420236,-1.6345 2.638375,-1.09175 -14.7553376,10.24278 -5.375034,4.3823 -4.699798,0.42719 -0.360681,-6.33021 -4.204196,-11.77649 -7.0015253,-17.27409 -4.340476,-8.08659 -8.67166183,-16.17891 -13.3520945,-24.07679 -2.8661923,-4.93182 -5.6790602,-9.89692 -8.7173542,-14.72614 0,0 9.8653141,-5.68989 9.8653141,-5.68989 z" />
    <path
       style="fill:#000000;fill-opacity:1;fill-rule:nonzero;stroke:#000000;stroke-width:3;stroke-linecap:round;stroke-linejoin:round;stroke-miterlimit:4;stroke-opacity:1;stroke-dasharray:none;stroke-dashoffset:0"
       id="path5822"
       d="m -260.34927,520.44365 c 6.93959,0.0552 13.87847,0.0874 20.81731,-0.0326 14.85283,-0.41182 29.70437,-0.86099 44.55855,-1.22382 20.05515,-0.52557 40.09867,0.2327 60.11318,1.4501 21.07897,1.47898 42.145428,3.12288 63.228628,4.54269 12.201595,0.8362 24.42299,1.08647 36.648586,1.13825 0,0 -8.893778,6.45338 -8.893778,6.45338 l 0,0 c -12.214181,-0.098 -24.423843,-0.39321 -36.612621,-1.24737 -21.074225,-1.44329 -42.132575,-3.09984 -63.206355,-4.54803 -20.02272,-1.18264 -40.07366,-1.90061 -60.13373,-1.32029 -14.9053,0.3927 -29.8074,0.88245 -44.71121,1.32488 -7.00708,0.1284 -14.01437,0.11185 -21.02234,0.15698 0,0 9.21378,-6.69421 9.21378,-6.69421 z" />
    <path
       style="fill:#000000;fill-opacity:1;fill-rule:nonzero;stroke:#000000;stroke-width:3;stroke-linecap:round;stroke-linejoin:round;stroke-miterlimit:4;stroke-opacity:1;stroke-dasharray:none;stroke-dashoffset:0"
       id="path5824"
       d="m -26.41132,490.51156 c -0.316207,4.33451 2.103624,7.73536 4.863259,10.79671 5.586935,5.4749 12.7375512,8.66968 19.8835841,11.56108 5.8556752,2.55738 12.2570609,3.61264 18.0745519,6.22792 5.016924,2.65851 1.092447,6.24713 -1.907663,8.67204 -10.075055,6.71514 -20.7243551,12.5302 -31.304849,18.40303 0,0 8.6392472,-6.97338 8.6392472,-6.97338 l 0,0 c 13.5928017,-7.58392 1.6597674,-0.97789 0.9062392,-0.37433 -0.3250046,0.26032 3.5305198,-1.96449 8.16333219,-4.87053 1.04861511,-0.65776 2.08478921,-1.33516 3.12718381,-2.00274 2.3464055,-1.73821 7.5866616,-4.28442 2.9549104,-6.58848 -5.828768,-2.50684 -12.1524349,-3.69485 -17.9717158,-6.26052 -7.276627,-3.00285 -14.53539,-6.33659 -20.207843,-11.95679 -2.981739,-3.34211 -5.433769,-6.9526 -5.444271,-11.60605 0,0 10.224034,-5.02796 10.224034,-5.02796 z" />
    <path
       style="fill:#000000;fill-opacity:1;fill-rule:nonzero;stroke:#000000;stroke-width:3;stroke-linecap:round;stroke-linejoin:round;stroke-miterlimit:4;stroke-opacity:1;stroke-dasharray:none;stroke-dashoffset:0"
       id="path5826"
       d="m -230.26188,756.80351 c 7.25096,-4.59929 14.49997,-9.2015 21.7724,-13.76698 16.34519,-10.16404 32.78575,-20.17021 49.30635,-30.04614 24.29215,-14.517 48.9055,-28.48062 73.897382,-41.75477 18.963695,-9.92073 38.063231,-19.57843 57.354592,-28.84578 10.498324,-5.062 21.2176448,-9.65476 31.5812733,-14.99327 0.8824114,-0.5015 1.7648228,-1.00301 2.6472343,-1.50452 0,0 -8.7688199,7.07953 -8.7688199,7.07953 l 0,0 c -0.8807485,0.48219 -1.761497,0.96437 -2.6422455,1.44655 -10.3313862,5.21342 -20.9648102,9.78767 -31.3901802,14.80674 -19.235768,9.23555 -38.280211,18.86179 -57.181422,28.76418 -18.695154,9.95111 -37.266994,20.13778 -55.390574,31.10381 -16.44923,9.83648 -32.81847,19.80245 -49.08703,29.93542 -7.18554,4.51692 -14.35281,9.06244 -21.48752,13.65921 0,0 -10.61144,4.11602 -10.61144,4.11602 z" />
    <path
       style="fill:#000000;fill-opacity:1;fill-rule:nonzero;stroke:#000000;stroke-width:3;stroke-linecap:round;stroke-linejoin:round;stroke-miterlimit:4;stroke-opacity:1;stroke-dasharray:none;stroke-dashoffset:0"
       id="path5828"
       d="m -59.888495,625.66191 c 6.291708,-1.77193 12.613631,-3.43688 18.928911,-5.12397 10.538064,-2.70601 21.149116,-5.12369 31.7950399,-7.3659 8.62816282,-1.65627 17.3562378,-3.21021 26.1388351,-2.11697 6.376958,1.55277 6.094572,6.24088 4.228052,11.47519 -4.24128,8.67799 -10.450097,16.2013 -16.6713333,23.51793 0,0 -10.2590299,4.34324 -10.2590299,4.34324 l 0,0 c 6.20039552,-7.20548 12.3126583,-14.63401 16.7092872,-23.11253 2.017399,-4.97957 3.127844,-8.22717 -3.1957875,-9.70544 -8.68758283,-0.89157 -17.3052108,0.66899 -25.8209855,2.33045 -10.650304,2.25971 -21.267949,4.68766 -31.801119,7.44567 -6.359996,1.70967 -12.723477,3.41052 -19.050014,5.24047 0,0 8.998144,-6.92814 8.998144,-6.92814 z" />
    <path
       style="fill:#000000;fill-opacity:1;fill-rule:nonzero;stroke:#000000;stroke-width:3;stroke-linecap:round;stroke-linejoin:round;stroke-miterlimit:4;stroke-opacity:1;stroke-dasharray:none;stroke-dashoffset:0"
       id="path5830"
       d="m 493.9373,492.52674 c 4.7105,2.71505 9.79652,4.64612 14.92694,6.39358 11.62157,3.51716 23.69506,5.23486 35.69457,6.8878 17.66035,2.30677 35.44571,3.38072 53.22209,4.29875 18.61793,0.89601 37.25391,1.30819 55.8893,1.61795 13.50627,0.20787 27.014,0.29195 40.52171,0.31906 5.76143,-0.32393 11.73101,0.67624 17.39888,-0.70158 3.53183,-2.01171 9.33764,-2.94498 -7.15839,3.71705 -0.79823,0.32237 0.48252,-1.65552 0.64245,-2.5014 0,0 10.19817,-4.99664 10.19817,-4.99664 l 0,0 c -0.7864,6.07717 -7.11859,9.04249 -12.72891,10.63076 -5.74093,0.91121 -11.59953,0.23413 -17.38125,0.40616 -13.46123,-0.0832 -26.92234,-0.20634 -40.38193,-0.43873 -18.62952,-0.34283 -37.25964,-0.77261 -55.87183,-1.67679 -17.82367,-0.92639 -35.65688,-2.00092 -53.36479,-4.31155 -12.09253,-1.66019 -24.26453,-3.37243 -35.96409,-6.96218 -5.23118,-1.79547 -10.43551,-3.75883 -15.23747,-6.53895 0,0 9.59455,-6.14329 9.59455,-6.14329 z" />
    <path
       style="fill:#000000;fill-opacity:1;fill-rule:nonzero;stroke:#000000;stroke-width:3;stroke-linecap:round;stroke-linejoin:round;stroke-miterlimit:4;stroke-opacity:1;stroke-dasharray:none;stroke-dashoffset:0"
       id="path5832"
       d="m 694.49082,472.91546 c 5.90415,3.54402 12.31141,6.10175 18.6853,8.6529 11.23306,4.40897 22.67197,8.28483 34.16131,11.96748 10.37074,3.3518 20.82746,6.4283 31.05767,10.19743 4.50172,2.08221 11.0082,3.85282 6.3764,9.52225 -12.6066,9.23717 -27.42609,14.18202 -41.93622,19.4368 -18.16051,6.37911 -36.37629,12.60135 -54.69061,18.52489 -11.60458,3.63102 -5.87377,1.87305 -17.19079,5.27923 0,0 8.68401,-6.70585 8.68401,-6.70585 l 0,0 c 11.28055,-3.3974 5.56717,-1.64346 17.13849,-5.26725 18.32929,-5.93682 36.56316,-12.16511 54.72347,-18.60027 4.35046,-1.58956 10.3895,-3.76376 14.75941,-5.4799 2.02763,-0.79629 4.04622,-1.61682 6.04705,-2.47825 1.68449,-0.72523 5.92928,-3.866 5.00688,-2.28087 -1.13555,1.95142 -3.84825,2.36267 -5.75658,3.56922 -0.91028,0.57554 1.84145,-1.11732 2.76218,-1.67599 5.66536,-4.40247 -1.42086,-5.55147 -5.21908,-7.58148 -10.1849,-3.7863 -20.60244,-6.87043 -30.93471,-10.22205 -11.51856,-3.71099 -22.99479,-7.58688 -34.27107,-11.98555 -6.47078,-2.57224 -12.97608,-5.15978 -18.96752,-8.74875 0,0 9.56441,-6.12399 9.56441,-6.12399 z" />
    <g
       id="g5851"
       transform="matrix(2.5868708,0,0,2.5868708,-1165.506,-631.40358)">
      <g
         id="content"
         transform="matrix(1.0629921,0,0,-1.0629921,-186.02362,789.27165)"
         xml:space="preserve"
         stroke-miterlimit="10.433"
         fill-rule="even-odd"
         font-style="normal"
         font-variant="normal"
         font-weight="normal"
         font-stretch="normal"
         font-size-adjust="none"
         letter-spacing="normal"
         word-spacing="normal"
         style="font-style:normal;font-variant:normal;font-weight:normal;font-stretch:normal;letter-spacing:normal;word-spacing:normal;text-anchor:start;fill:none;stroke:#000000;stroke-linecap:butt;stroke-linejoin:miter;stroke-miterlimit:10.43299961;stroke-opacity:1;stroke-dasharray:none;stroke-dashoffset:0"><path
           d="m 478.75,435.64 -0.07,-0.06 -0.07,-0.07 -0.08,-0.07 -0.08,-0.07 -0.09,-0.08 -0.09,-0.08 -0.09,-0.09 -0.09,-0.09 -0.1,-0.09 -0.09,-0.09 -0.2,-0.19 -0.19,-0.19 -0.19,-0.21 -0.09,-0.1 -0.09,-0.1 -0.09,-0.1 -0.08,-0.11 -0.08,-0.1 -0.08,-0.1 -0.07,-0.1 -0.06,-0.1 -0.06,-0.1 -0.05,-0.1 -0.05,-0.1 -0.04,-0.09 -0.03,-0.1 -0.02,-0.09 -0.02,-0.09 0,-0.08 c 0,-0.5 0.5,-1 1,-1 0.44,0 0.69,0.35 0.94,0.65 0.6,0.75 1.74,2.14 3.94,3.24 0.35,0.2 0.84,0.45 0.84,1.05 0,0.49 -0.34,0.74 -0.69,0.99 -1.1,0.75 -1.65,1.64 -2.05,2.84 -0.1,0.45 -0.3,1.1 -0.99,1.1 -0.7,0 -1,-0.65 -1,-1.05 0,-0.25 0.4,-1.84 1.2,-2.89 h -16.79 c -0.85,0 -1.74,0 -1.74,-0.99 0,-1 0.89,-1 1.74,-1 z"
           id="path5854"
           style="fill:#000000;stroke-width:0" /><path
           d="m 474.58,424.83 -0.08,0.17 -0.09,0.17 -0.1,0.16 -0.09,0.16 -0.1,0.16 -0.1,0.16 -0.11,0.15 -0.11,0.14 -0.11,0.15 -0.12,0.13 -0.12,0.14 -0.12,0.13 -0.13,0.12 -0.13,0.12 -0.14,0.11 -0.14,0.11 -0.14,0.11 -0.15,0.09 -0.15,0.1 -0.15,0.08 -0.16,0.08 -0.17,0.08 -0.17,0.07 -0.17,0.06 -0.17,0.05 -0.19,0.05 -0.18,0.04 -0.19,0.03 -0.19,0.03 -0.2,0.02 -0.21,0.01 -0.2,0.01 0.05,-1.1 c 3.24,0 3.93,-4.08 3.93,-4.38 0,-0.3 -0.1,-0.6 -0.15,-0.85 l -2.49,-9.76 c -0.25,-0.9 -0.25,-1 -0.99,-1.84 -2.19,-2.75 -4.24,-3.54 -5.63,-3.54 -2.49,0 -3.19,2.74 -3.19,4.68 0,2.49 1.59,8.62 2.74,10.91 1.54,2.94 3.78,4.78 5.78,4.78 l -0.05,1.1 c -5.83,0 -12.01,-7.32 -12.01,-14.6 0,-4.68 2.74,-7.97 6.63,-7.97 0.99,0 3.49,0.2 6.47,3.74 0.4,-2.09 2.14,-3.74 4.53,-3.74 1.75,0 2.9,1.15 3.69,2.74 0.85,1.79 1.5,4.83 1.5,4.93 0,0.5 -0.45,0.5 -0.6,0.5 -0.5,0 -0.55,-0.2 -0.7,-0.89 -0.85,-3.24 -1.74,-6.18 -3.78,-6.18 -1.35,0 -1.5,1.29 -1.5,2.29 0,1.09 0.1,1.49 0.65,3.69 0.55,2.09 0.65,2.59 1.1,4.48 0.84,3.19 1.04,4.13 1.79,6.97 0.35,1.4 0.35,1.5 0.35,1.7 0,0.84 -0.6,1.34 -1.45,1.34 -1.19,0 -1.94,-1.09 -2.09,-2.19 z"
           id="path5856"
           style="fill:#000000;stroke-width:0" /></g>    </g>
    <g
       id="g5898"
       transform="matrix(2.5868708,0,0,2.5868708,-1154.0775,-368.54644)">
      <g
         word-spacing="normal"
         letter-spacing="normal"
         font-size-adjust="none"
         font-stretch="normal"
         font-weight="normal"
         font-variant="normal"
         font-style="normal"
         fill-rule="even-odd"
         stroke-miterlimit="10.433"
         xml:space="preserve"
         transform="matrix(1.0629921,0,0,-1.0629921,-186.02362,789.27165)"
         id="g5900"
         style="font-style:normal;font-variant:normal;font-weight:normal;font-stretch:normal;letter-spacing:normal;word-spacing:normal;text-anchor:start;fill:none;stroke:#000000;stroke-linecap:butt;stroke-linejoin:miter;stroke-miterlimit:10.43299961;stroke-opacity:1;stroke-dasharray:none;stroke-dashoffset:0"><path
           id="path5902"
           d="m 476.75,448.64 -0.07,-0.06 -0.07,-0.07 -0.08,-0.07 -0.08,-0.07 -0.09,-0.08 -0.09,-0.08 -0.09,-0.09 -0.09,-0.09 -0.1,-0.09 -0.09,-0.09 -0.2,-0.19 -0.19,-0.19 -0.19,-0.21 -0.09,-0.1 -0.09,-0.1 -0.09,-0.1 -0.08,-0.11 -0.08,-0.1 -0.08,-0.1 -0.07,-0.1 -0.06,-0.1 -0.06,-0.1 -0.05,-0.1 -0.05,-0.1 -0.04,-0.09 -0.03,-0.1 -0.02,-0.09 -0.02,-0.09 0,-0.08 c 0,-0.5 0.5,-1 1,-1 0.44,0 0.69,0.35 0.94,0.65 0.6,0.75 1.74,2.14 3.94,3.24 0.35,0.2 0.84,0.45 0.84,1.05 0,0.49 -0.34,0.74 -0.69,0.99 -1.1,0.75 -1.65,1.64 -2.05,2.84 -0.1,0.45 -0.3,1.1 -0.99,1.1 -0.7,0 -1,-0.65 -1,-1.05 0,-0.25 0.4,-1.84 1.2,-2.89 h -16.79 c -0.85,0 -1.74,0 -1.74,-0.99 0,-1 0.89,-1 1.74,-1 z"
           style="fill:#000000;stroke-width:0" /><path
           id="path5904"
           d="m 467.91,440.02 0,0.01 0,0 0,0.01 0,0.01 -0.01,0.01 0,0.01 0,0.02 0,0.02 0,0.02 -0.01,0.02 0,0.02 -0.01,0.02 -0.01,0.03 -0.01,0.02 -0.01,0.03 -0.01,0.02 -0.01,0.02 -0.02,0.03 -0.02,0.02 -0.02,0.03 -0.02,0.02 -0.01,0.01 -0.02,0.01 -0.01,0.01 -0.01,0.01 -0.02,0.01 -0.01,0.01 -0.02,0.01 -0.02,0.01 -0.01,0.01 -0.02,0.01 -0.02,0.01 -0.02,0 -0.02,0.01 -0.02,0.01 -0.03,0 -0.02,0.01 -0.02,0 -0.03,0.01 -0.02,0 -0.03,0 -0.03,0.01 -0.02,0 -0.03,0 -0.03,0 c -1.15,0 -4.78,-0.4 -6.08,-0.5 -0.4,-0.05 -0.95,-0.1 -0.95,-1 0,-0.59 0.45,-0.59 1.2,-0.59 2.39,0 2.49,-0.35 2.49,-0.85 0,-0.35 -0.45,-2.04 -0.7,-3.09 l -4.08,-16.24 c -0.6,-2.49 -0.8,-3.28 -0.8,-5.03 0,-4.73 2.64,-7.82 6.33,-7.82 v 1.1 c -1.7,0 -3.34,1.34 -3.34,5.03 0,0.95 0,1.89 0.8,5.03 l 1.09,4.58 c 0.3,1.1 0.3,1.2 0.75,1.75 2.44,3.24 4.68,3.98 5.98,3.98 1.79,0 3.14,-1.49 3.14,-4.68 0,-2.94 -1.65,-8.67 -2.54,-10.56 -1.65,-3.34 -3.94,-5.13 -5.88,-5.13 v -1.1 c 5.88,0 12,7.43 12,14.6 0,4.53 -2.64,7.97 -6.62,7.97 -2.29,0 -4.34,-1.45 -5.83,-2.99 z"
           style="fill:#000000;stroke-width:0" /></g>    </g>
    <g
       id="g5954"
       transform="matrix(2.5868708,0,0,2.5868708,-1108.3632,-119.97501)">
      <g
         id="g5956"
         transform="matrix(1.0629921,0,0,-1.0629921,-186.02362,789.27165)"
         xml:space="preserve"
         stroke-miterlimit="10.433"
         fill-rule="even-odd"
         font-style="normal"
         font-variant="normal"
         font-weight="normal"
         font-stretch="normal"
         font-size-adjust="none"
         letter-spacing="normal"
         word-spacing="normal"
         style="font-style:normal;font-variant:normal;font-weight:normal;font-stretch:normal;letter-spacing:normal;word-spacing:normal;text-anchor:start;fill:none;stroke:#000000;stroke-linecap:butt;stroke-linejoin:miter;stroke-miterlimit:10.43299961;stroke-opacity:1;stroke-dasharray:none;stroke-dashoffset:0"><path
           d="m 479.75,435.64 -0.07,-0.06 -0.07,-0.07 -0.08,-0.07 -0.08,-0.07 -0.09,-0.08 -0.09,-0.08 -0.09,-0.09 -0.09,-0.09 -0.1,-0.09 -0.09,-0.09 -0.2,-0.19 -0.19,-0.19 -0.19,-0.21 -0.09,-0.1 -0.09,-0.1 -0.09,-0.1 -0.08,-0.11 -0.08,-0.1 -0.08,-0.1 -0.07,-0.1 -0.06,-0.1 -0.06,-0.1 -0.05,-0.1 -0.05,-0.1 -0.04,-0.09 -0.03,-0.1 -0.02,-0.09 -0.02,-0.09 0,-0.08 c 0,-0.5 0.5,-1 1,-1 0.44,0 0.69,0.35 0.94,0.65 0.6,0.75 1.74,2.14 3.94,3.24 0.35,0.2 0.84,0.45 0.84,1.05 0,0.49 -0.34,0.74 -0.69,0.99 -1.1,0.75 -1.65,1.64 -2.05,2.84 -0.1,0.45 -0.3,1.1 -0.99,1.1 -0.7,0 -1,-0.65 -1,-1.05 0,-0.25 0.4,-1.84 1.2,-2.89 h -16.79 c -0.85,0 -1.74,0 -1.74,-0.99 0,-1 0.89,-1 1.74,-1 z"
           id="path5958"
           style="fill:#000000;stroke-width:0" /><path
           d="m 475.73,424.93 -0.15,0 -0.15,0 -0.14,0 -0.14,-0.01 -0.14,-0.01 -0.14,-0.02 -0.07,-0.01 -0.07,-0.01 -0.07,-0.01 -0.07,-0.02 -0.06,-0.01 -0.07,-0.02 -0.07,-0.03 -0.07,-0.02 -0.06,-0.03 -0.07,-0.03 -0.07,-0.03 -0.06,-0.04 -0.07,-0.03 -0.06,-0.05 -0.07,-0.04 -0.06,-0.05 -0.07,-0.05 -0.06,-0.06 -0.07,-0.06 -0.06,-0.06 c -0.8,-0.75 -0.9,-1.59 -0.9,-1.94 0,-1.2 0.9,-1.74 1.84,-1.74 1.45,0 2.79,1.19 2.79,3.18 0,2.45 -2.34,4.29 -5.88,4.29 -6.72,0 -13.35,-7.13 -13.35,-14.15 0,-4.48 2.89,-8.42 8.07,-8.42 7.12,0 11.31,5.28 11.31,5.88 0,0.3 -0.3,0.65 -0.6,0.65 -0.25,0 -0.35,-0.1 -0.64,-0.5 -3.94,-4.93 -9.37,-4.93 -9.97,-4.93 -3.14,0 -4.48,2.44 -4.48,5.43 0,2.04 1,6.87 2.69,9.96 1.54,2.84 4.28,4.98 7.02,4.98 1.7,0 3.59,-0.65 4.29,-1.99 z"
           id="path5960"
           style="fill:#000000;stroke-width:0" /></g>    </g>
    <g
       id="g6018"
       transform="matrix(2.5868708,0,0,2.5868708,43.065383,-359.97501)">
      <g
         word-spacing="normal"
         letter-spacing="normal"
         font-size-adjust="none"
         font-stretch="normal"
         font-weight="normal"
         font-variant="normal"
         font-style="normal"
         fill-rule="even-odd"
         stroke-miterlimit="10.433"
         xml:space="preserve"
         transform="matrix(1.0629921,0,0,-1.0629921,-186.02362,789.27165)"
         id="g6020"
         style="font-style:normal;font-variant:normal;font-weight:normal;font-stretch:normal;letter-spacing:normal;word-spacing:normal;text-anchor:start;fill:none;stroke:#000000;stroke-linecap:butt;stroke-linejoin:miter;stroke-miterlimit:10.43299961;stroke-opacity:1;stroke-dasharray:none;stroke-dashoffset:0"><path
           id="path6022"
           d="m 464.92,411.73 -0.19,-0.31 -0.19,-0.29 -0.18,-0.27 -0.19,-0.26 -0.18,-0.25 -0.19,-0.23 -0.19,-0.23 -0.18,-0.2 -0.19,-0.2 -0.18,-0.18 -0.19,-0.17 -0.19,-0.16 -0.19,-0.15 -0.18,-0.14 -0.19,-0.13 -0.19,-0.12 -0.19,-0.11 -0.19,-0.1 -0.19,-0.09 -0.19,-0.09 -0.2,-0.07 -0.19,-0.07 -0.19,-0.06 -0.2,-0.06 -0.2,-0.05 -0.19,-0.04 -0.2,-0.04 -0.2,-0.03 -0.4,-0.05 -0.41,-0.04 c -0.6,-0.04 -1.05,-0.04 -1.05,-0.99 0,-0.3 0.25,-0.55 0.65,-0.55 h 9.27 c 0.3,0 0.94,0 0.94,0.95 0,0.55 -0.44,0.59 -0.8,0.59 -1.14,0.1 -2.34,0.5 -2.34,1.75 0,0.6 0.3,1.14 0.7,1.84 0.35,0.6 0.4,0.6 3.79,6.38 h 12.5 l -0.15,1.54 h -11.41 l 9.82,16.44 1.59,-16.44 0.15,-1.54 c 0.1,-1.05 0.8,-7.82 0.8,-8.32 0,-1.49 -2.59,-1.65 -3.59,-1.65 -0.7,0 -1.2,0 -1.2,-0.99 0,-0.55 0.6,-0.55 0.7,-0.55 h 11.86 c 0.3,0 0.89,0 0.89,1 0,0.54 -0.49,0.54 -1.14,0.54 -3.09,0 -3.09,0.35 -3.24,1.8 l -3.04,31.13 c -0.1,1 -0.1,1.2 -0.94,1.2 -0.8,0 -1,-0.35 -1.3,-0.85 z"
           style="fill:#000000;stroke-width:0" /></g>    </g>
  </g>
</svg>
