<?xml version="1.0" encoding="UTF-8" standalone="no"?>
<!-- Created with Inkscape (http://www.inkscape.org/) -->
<svg
   xmlns:dc="http://purl.org/dc/elements/1.1/"
   xmlns:cc="http://creativecommons.org/ns#"
   xmlns:rdf="http://www.w3.org/1999/02/22-rdf-syntax-ns#"
   xmlns:svg="http://www.w3.org/2000/svg"
   xmlns="http://www.w3.org/2000/svg"
   xmlns:sodipodi="http://sodipodi.sourceforge.net/DTD/sodipodi-0.dtd"
   xmlns:inkscape="http://www.inkscape.org/namespaces/inkscape"
   width="637.09888"
   height="558.87164"
   id="svg2"
   sodipodi:version="0.32"
   inkscape:version="0.46"
   version="1.0"
   sodipodi:docname="w4d1.svg"
   inkscape:output_extension="org.inkscape.output.svg.inkscape">
  <defs
     id="defs4">
    <inkscape:perspective
       sodipodi:type="inkscape:persp3d"
       inkscape:vp_x="0 : 526.18109 : 1"
       inkscape:vp_y="0 : 1000 : 0"
       inkscape:vp_z="744.09448 : 526.18109 : 1"
       inkscape:persp3d-origin="372.04724 : 350.78739 : 1"
       id="perspective10" />
  </defs>
  <sodipodi:namedview
     id="base"
     pagecolor="#ffffff"
     bordercolor="#666666"
     borderopacity="1.0"
     gridtolerance="10000"
     guidetolerance="10"
     objecttolerance="10"
     inkscape:pageopacity="0.0"
     inkscape:pageshadow="2"
     inkscape:zoom="0.88929181"
     inkscape:cx="318.54944"
     inkscape:cy="363.71409"
     inkscape:document-units="px"
     inkscape:current-layer="layer1"
     showgrid="false"
     inkscape:window-width="1280"
     inkscape:window-height="712"
     inkscape:window-x="-5"
     inkscape:window-y="-3" />
  <metadata
     id="metadata7">
    <rdf:RDF>
      <cc:Work
         rdf:about="">
        <dc:format>image/svg+xml</dc:format>
        <dc:type
           rdf:resource="http://purl.org/dc/dcmitype/StillImage" />
      </cc:Work>
    </rdf:RDF>
  </metadata>
  <g
     inkscape:label="Layer 1"
     inkscape:groupmode="layer"
     id="layer1"
     transform="translate(-42.677867,-47.292128)">
    <path
       style="fill:#000000;fill-opacity:1;stroke:#000000;stroke-width:4;stroke-linecap:round;stroke-linejoin:round;stroke-miterlimit:4;stroke-dasharray:none;stroke-dashoffset:0;stroke-opacity:1"
       id="path2387"
       d="M 51.535393,547.0139 C 62.231457,547.31735 72.874178,546.00145 83.535386,545.31938 C 100.10296,544.23244 116.63885,542.87568 133.2343,542.19472 C 158.13585,541.43437 183.05325,541.46282 207.96386,541.42978 C 242.83158,541.94613 277.65494,543.75539 312.49371,545.12949 C 353.88539,547.06216 395.27289,549.11365 436.67583,550.7946 C 476.2443,552.30412 515.84269,552.66125 555.4354,552.8583 C 583.15308,552.96194 610.87101,552.91305 638.58872,552.8525 C 650.18243,552.77049 661.62109,554.2026 672.87645,556.87943 C 675.2843,557.94085 678.57739,559.16953 677.60047,562.27946 C 674.72381,565.56542 670.45891,567.71447 666.20492,568.72097 L 672.9662,563.53436 C 678.85751,561.7816 662.6814,569.79494 669.84273,565.8409 C 671.34466,563.31429 667.79545,562.63295 665.92208,561.6855 C 654.79402,558.97947 643.46171,557.613 631.99081,557.64682 C 604.35382,557.62281 576.71672,557.60458 549.07998,557.47028 C 509.5136,557.21888 469.94161,556.83844 430.39977,555.31548 C 388.97982,553.62114 347.57417,551.58583 306.16308,549.69136 C 271.27908,548.34612 236.40905,546.56282 201.49565,546.13124 C 176.53922,546.20048 151.5752,546.20198 126.6298,547.03585 C 110.0057,547.75659 93.441417,549.15146 76.843261,550.24865 C 66.128142,550.96588 55.431568,552.23741 44.677867,551.99618 L 51.535393,547.0139 z" />
    <path
       style="fill:#000000;fill-opacity:1;stroke:#000000;stroke-width:4;stroke-linecap:round;stroke-linejoin:round;stroke-miterlimit:4;stroke-dasharray:none;stroke-dashoffset:0;stroke-opacity:1"
       id="path2389"
       d="M 631.27458,557.95556 C 624.78382,565.80473 617.65002,573.14943 609.65064,579.46038 C 608.30734,580.42631 606.96404,581.39225 605.62074,582.35818 L 597.83202,585.43438 C 599.18211,584.47785 600.5322,583.52131 601.88229,582.56478 C 609.9348,576.41199 617.04199,569.08026 623.48329,561.26589 L 631.27458,557.95556 z" />
    <path
       style="fill:#000000;fill-opacity:1;stroke:#000000;stroke-width:4;stroke-linecap:round;stroke-linejoin:round;stroke-miterlimit:4;stroke-dasharray:none;stroke-dashoffset:0;stroke-opacity:1"
       id="path2391"
       d="M 545.5505,561.05038 C 544.50365,561.63516 541.30462,563.26955 542.40997,562.80473 C 543.63478,562.28967 546.87479,559.9843 545.9109,560.89882 C 544.71707,562.03151 543.10872,562.62535 541.70088,563.47751 C 537.00662,566.31891 532.32946,569.18336 527.65459,572.05692 C 516.6644,579.21696 505.53946,586.19083 493.80801,592.0822 L 500.35677,586.83839 C 510.6921,581.56203 507.2243,583.03014 519.8682,575.07025 C 530.55896,568.50607 541.1971,561.83512 552.17283,555.75314 L 545.5505,561.05038 z" />
    <path
       style="fill:#000000;fill-opacity:1;stroke:#000000;stroke-width:4;stroke-linecap:round;stroke-linejoin:round;stroke-miterlimit:4;stroke-dasharray:none;stroke-dashoffset:0;stroke-opacity:1"
       id="path2393"
       d="M 457.17553,559.24755 C 448.12394,563.49311 447.89352,564.45242 435.88819,571.82251 C 427.38353,577.1848 419.73042,583.92829 411.06184,589.03705 C 407.22702,591.29707 403.298,593.39328 399.41608,595.5714 C 393.82252,598.37365 396.59304,597.07662 391.11336,599.48132 L 397.69525,594.26599 C 403.12664,591.83001 400.37621,593.13722 405.9382,590.3269 C 405.05174,590.91025 402.38836,592.65419 403.27881,592.07694 C 411.74159,586.59084 419.84509,580.5767 428.12699,574.82512 C 439.87225,567.63963 451.31372,559.89538 463.75407,553.92521 L 457.17553,559.24755 z" />
    <path
       style="fill:#000000;fill-opacity:1;stroke:#000000;stroke-width:4;stroke-linecap:round;stroke-linejoin:round;stroke-miterlimit:4;stroke-dasharray:none;stroke-dashoffset:0;stroke-opacity:1"
       id="path2395"
       d="M 354.63825,561.75038 C 343.50511,567.84886 344.53699,567.33844 334.184,574.04571 C 322.34027,581.80659 310.2675,589.24975 297.5702,595.53983 L 304.11409,590.30626 C 313.88085,585.39853 314.36471,584.82939 326.42977,577.06917 C 337.73977,569.69903 349.37649,562.8567 361.26058,556.45314 L 354.63825,561.75038 z" />
    <path
       style="fill:#000000;fill-opacity:1;stroke:#000000;stroke-width:4;stroke-linecap:round;stroke-linejoin:round;stroke-miterlimit:4;stroke-dasharray:none;stroke-dashoffset:0;stroke-opacity:1"
       id="path2397"
       d="M 248.55067,548.44315 C 240.79447,553.68844 233.65148,559.74287 226.06926,565.22572 C 215.08366,573.341 203.34793,580.45277 190.94215,586.17196 L 197.49473,580.96046 C 207.82176,576.1051 206.40263,576.63493 218.306,568.29537 C 225.87684,562.87267 232.93064,556.78279 240.67659,551.60308 L 248.55067,548.44315 z" />
    <path
       style="fill:#000000;fill-opacity:1;stroke:#000000;stroke-width:4;stroke-linecap:round;stroke-linejoin:round;stroke-miterlimit:4;stroke-dasharray:none;stroke-dashoffset:0;stroke-opacity:1"
       id="path2399"
       d="M 150.44586,549.6296 C 142.96023,556.57913 134.48404,562.22714 125.79525,567.53741 C 119.02891,571.87113 112.03404,575.81655 104.6838,579.06234 L 111.24499,573.85983 C 126.16137,567.09037 102.44163,578.87415 118.00658,570.54763 C 126.67489,565.30108 135.1906,559.76755 142.59583,552.79812 L 150.44586,549.6296 z" />
    <path
       style="fill:#000000;fill-opacity:1;stroke:#000000;stroke-width:4;stroke-linecap:round;stroke-linejoin:round;stroke-miterlimit:4;stroke-dasharray:none;stroke-dashoffset:0;stroke-opacity:1"
       id="path2401"
       d="M 241.31434,552.35839 C 238.89182,545.8928 238.00352,539.39857 238.16897,532.54517 C 238.5401,526.05151 238.80997,519.55503 238.96033,513.05257 C 239.06251,508.1006 239.07042,503.14749 239.08106,498.1947 C 239.07771,495.53376 239.05903,492.87292 239.06262,490.21197 C 239.15897,487.22139 238.64115,484.1815 239.78871,481.35007 C 243.50956,476.51244 248.51481,475.51463 253.84458,475.45249 C 257.19603,475.56224 260.35499,477.00401 263.63392,477.69193 C 267.3756,478.33484 271.17626,478.38339 274.9613,478.43826 C 279.66067,478.68902 284.25292,479.97582 288.93864,480.57343 C 294.51421,481.18102 300.12828,481.24711 305.73064,481.30463 C 312.25407,481.34734 318.77766,481.32522 325.30117,481.32466 C 332.96906,481.32051 340.63695,481.32041 348.30484,481.31806 C 356.91363,481.32068 365.52243,481.32192 374.13123,481.32466 C 384.52983,481.12531 394.97371,480.19732 405.29553,478.88306 C 416.13417,477.71562 426.89623,476.04087 437.69929,474.60765 C 447.86335,473.80963 457.92086,472.13894 468.05453,471.0633 C 476.55184,470.16491 485.086,469.06675 493.47776,467.42598 C 500.3993,466.28706 507.18922,464.65447 514.02269,463.10416 C 519.31627,461.71357 524.86409,462.03712 530.18716,460.95855 C 533.60162,460.22987 537.04336,458.18652 540.3049,460.04451 C 542.52193,461.99759 543.74861,465.04867 544.90298,467.74407 C 545.8048,471.35821 546.74024,474.92138 547.82703,478.48862 C 549.01711,482.92046 549.22995,487.53 549.41447,492.0922 C 549.53739,496.86017 549.51816,501.63063 549.51394,506.39984 C 549.50607,510.47463 549.50573,514.54943 549.50182,518.62422 C 549.50315,521.77115 549.5093,524.91809 549.5058,528.06502 C 549.50239,531.3142 549.50045,534.56341 549.50664,537.81259 C 549.49843,540.57879 549.50166,543.34496 549.51829,546.11111 C 545.11843,548.66734 541.90632,551.78889 541.92605,547.21187 L 549.50252,543.35147 C 549.51811,546.95207 545.98637,551.76187 541.91028,549.98759 C 541.92681,547.2175 541.93016,544.44739 541.92183,541.67725 C 541.92792,538.42781 541.92583,535.17835 541.92243,531.92891 C 541.91912,528.77949 541.9256,525.63007 541.9316,522.48066 C 541.93433,518.40356 541.94676,514.32648 541.95599,510.24939 C 541.96597,505.49037 541.993,500.73034 541.87097,495.97239 C 541.70724,491.47846 541.5279,486.93717 540.3752,482.56655 C 539.30357,479.02574 538.30709,475.51268 537.4853,471.90836 C 536.42323,469.40738 535.28996,466.48224 533.19068,464.72555 C 530.0444,463.41078 526.61009,465.64719 523.42167,466.06368 C 518.07571,466.94082 512.58351,466.84947 507.3032,468.2211 C 500.48171,469.79702 493.67002,471.31587 486.7652,472.49861 C 478.35426,474.05759 469.83796,475.2068 461.3298,476.06022 C 451.20969,477.16614 441.15192,478.76677 431.00263,479.61068 C 420.205,481.07171 409.43491,482.67612 398.60224,483.87387 C 388.24097,485.13504 377.77928,486.12221 367.343,486.25659 C 358.72737,486.25929 350.11174,486.26024 341.49612,486.26508 C 333.82454,486.26553 326.15296,486.26972 318.48139,486.28051 C 311.94846,486.29236 305.41533,486.30715 298.88248,486.26839 C 293.25719,486.20002 287.61928,486.11567 282.02527,485.45968 C 277.36571,484.83051 272.78367,483.54053 268.08187,483.41839 C 264.25766,483.34211 260.41524,483.2763 256.64729,482.54052 C 253.4335,481.80205 250.29456,480.40695 246.96207,480.4739 C 245.70258,480.50956 244.40751,480.50421 243.17212,480.79265 C 242.79327,480.88111 241.73229,481.35191 242.0573,481.13809 C 244.64208,479.43754 251.18043,475.7943 247.55275,477.82192 C 246.06992,480.44115 246.77159,483.44243 246.65656,486.3419 C 246.66445,489.00867 246.65463,491.67538 246.64525,494.34214 C 246.63942,499.30789 246.58784,504.2734 246.48927,509.23823 C 246.33963,515.74055 246.10409,522.23957 245.70454,528.73181 C 245.49338,535.49656 246.24711,541.902 248.74717,548.26481 L 241.31434,552.35839 z" />
    <path
       style="fill:#000000;fill-opacity:1;stroke:#000000;stroke-width:4;stroke-linecap:round;stroke-linejoin:round;stroke-miterlimit:4;stroke-dasharray:none;stroke-dashoffset:0;stroke-opacity:1"
       id="path2403"
       d="M 246.1274,473.25158 C 241.2762,469.73331 237.67021,465.04726 235.06185,459.70758 C 233.52804,456.09305 234.14126,452.44161 236.36657,449.31152 C 240.53005,443.85172 246.83688,440.97806 252.65375,437.62687 C 255.64405,436.35461 258.48835,434.75073 261.45037,433.38275 C 254.79277,437.73675 252.2475,439.24523 246.55345,435.13595 C 243.4502,432.42691 244.23765,429.11174 245.85184,425.80245 C 246.52053,423.20989 250.72041,421.23335 250.48519,418.42947 C 248.14127,417.28944 245.79516,416.20945 244.16655,414.11223 C 242.01374,410.94473 243.77352,407.55722 245.54214,404.66428 C 246.3473,403.18707 250.04881,400.67051 248.52071,398.75811 C 246.71306,396.8106 247.0803,394.55924 248.78804,392.7315 C 253.66445,389.66267 258.57987,386.3129 264.19899,384.83951 C 267.33538,383.32574 270.55879,382.23619 274.00292,381.73529 C 277.47512,382.22438 280.84501,383.15307 284.32084,383.65734 C 288.737,384.50438 293.2298,385.43389 297.57128,386.66756 C 303.40326,388.71756 309.59314,388.89915 315.616,389.96439 C 322.95883,391.67606 330.51364,391.83009 337.95057,392.84517 C 346.34181,394.1743 354.79611,394.91075 363.27612,395.32513 C 370.85235,395.61603 378.43557,395.61992 386.01619,395.62619 C 392.55265,395.62178 399.0891,395.60635 405.62556,395.59831 C 411.66606,396.51048 417.66935,397.48482 423.76462,397.96328 C 429.64781,398.35588 435.54561,398.42462 441.43972,398.45798 C 445.50006,398.46943 449.56045,398.45623 453.62077,398.44134 C 456.42012,398.43976 459.21946,398.4278 462.01881,398.42921 C 464.85348,398.42565 467.68815,398.43176 470.52282,398.43662 C 474.54519,398.43744 478.56755,398.43828 482.58991,398.43848 C 486.39898,397.69502 490.09338,396.55337 493.94924,396.04898 C 497.95162,395.56238 501.99388,395.59983 506.01889,395.56759 C 510.86118,395.89107 515.54026,394.54549 520.28774,393.80489 C 525.87504,393.0109 531.52311,392.86669 537.15678,392.76441 C 541.81904,391.89955 546.44337,390.89217 551.15666,390.32799 C 555.23168,389.94887 559.32731,389.87722 563.41732,389.8477 C 566.8458,389.83681 570.27428,389.84998 573.70275,389.85257 C 576.62277,389.85694 579.5428,389.86111 582.46282,389.85888 C 585.58716,389.86088 588.7115,389.86114 591.83585,389.86327 C 595.18156,390.8412 598.53806,391.70471 601.98128,392.25903 C 605.52081,392.69245 609.09384,392.71107 612.65458,392.73633 C 616.80925,392.56395 620.79442,392.69812 624.84294,393.62311 C 628.91682,394.63477 633.06804,395.14893 637.24894,395.41979 C 640.91994,395.30824 643.7231,395.55952 646.60973,397.94162 C 649.05167,400.92596 650.52023,404.31839 651.49523,408.00874 C 652.292,411.80813 652.33459,415.70428 652.3907,419.56934 C 652.50816,423.32642 651.58649,427.03576 649.27503,430.00958 C 647.05105,432.8726 644.55865,435.43728 641.90802,437.89246 C 638.90803,440.36681 636.14838,443.10394 633.17407,445.60931 C 628.84271,449.73066 623.77491,452.09051 618.57828,455.15449 C 616.83923,456.17985 625.59481,451.15874 623.86551,452.20046 C 620.81676,454.037 617.70101,455.75994 614.61876,457.53968 C 611.33819,459.55533 607.55851,460.12145 603.79815,460.47884 C 600.81943,461.52412 597.84836,462.46625 594.73711,463.02388 C 591.91048,463.61039 588.91659,462.96863 586.18446,463.88147 C 583.41411,464.99773 580.54133,465.63903 577.59114,466.02878 C 574.30339,466.33918 570.99767,466.29747 567.69932,466.30872 C 564.23791,466.30933 560.77651,466.30307 557.31512,466.29441 C 553.68788,466.2879 550.06062,466.2869 546.43339,466.2916 C 543.46705,466.29304 540.5007,466.29042 537.53436,466.29369 C 534.81765,466.12321 531.98601,466.73452 529.38247,465.85925 C 526.61027,464.02164 525.46429,461.50341 525.85888,458.25599 C 526.52139,455.38505 527.07925,452.507 527.38183,449.57509 C 527.65642,446.03649 527.64675,442.48257 527.65231,438.93546 C 528.03169,435.43216 526.79656,432.19071 525.97274,428.85124 C 525.13681,424.86691 524.96292,420.79161 524.8305,416.73564 C 524.74736,413.13846 524.76067,409.54007 524.76875,405.94222 C 524.60226,403.18719 525.58563,400.58316 526.74939,398.13733 C 534.40962,385.24517 532.2994,406.7787 532.38831,412.85657 C 532.49413,416.85716 532.654,420.87792 533.45124,424.81172 C 534.27806,428.21511 535.60941,431.51072 535.22986,435.07757 C 535.21254,438.647 535.23008,442.22127 535.00816,445.78519 C 534.71892,448.7305 534.24755,451.638 533.50559,454.50634 C 532.96735,457.32213 533.79256,459.58195 536.40818,461.03872 C 539.03108,461.58964 541.75923,461.1515 544.42459,461.28763 C 547.38894,461.29081 550.35329,461.28798 553.31763,461.29008 C 556.94254,461.29604 560.56745,461.29718 564.19236,461.29931 C 567.65241,461.30065 571.11244,461.31742 574.5725,461.31129 C 577.85367,461.29885 581.14687,461.31612 584.41028,460.92682 C 587.33816,460.48687 590.15078,459.67917 592.94381,458.70248 C 595.77207,458.15766 598.69509,458.47497 601.53163,457.89104 C 604.6325,457.27579 607.56226,456.14431 610.62847,455.40844 C 614.34745,454.99562 617.99981,454.24241 621.21206,452.20679 C 619.4618,453.22766 614.22112,456.30742 615.96128,455.26942 C 619.02429,453.44235 622.09039,451.61998 625.18072,449.83951 C 626.90759,448.84458 621.80156,451.95814 620.05199,452.91258 C 613.9488,456.24206 631.80141,445.78319 625.30869,448.78664 C 628.29439,446.29644 631.02588,443.56169 634.04641,441.12908 C 636.59648,438.60402 639.33964,436.2885 641.44611,433.32059 C 643.96508,430.69443 644.90352,427.03972 644.82339,423.43621 C 644.7898,419.63431 644.75563,415.80223 644.02381,412.05712 C 643.13082,408.53161 641.76867,405.28535 639.40109,402.46635 C 636.65231,400.31152 633.72684,400.41244 630.34251,400.36426 C 626.13826,400.0485 621.97154,399.46803 617.87182,398.46028 C 613.86058,397.60769 609.86504,397.63848 605.77301,397.72611 C 602.18296,397.68343 598.57748,397.65742 595.01672,397.14404 C 591.61838,396.54922 588.32443,395.5738 584.95664,394.86132 C 581.82852,394.86353 578.7004,394.86412 575.57228,394.86481 C 572.65329,394.86066 569.73429,394.86168 566.8153,394.85439 C 563.39201,394.84255 559.9686,394.83056 556.54532,394.84978 C 552.47737,394.89226 548.40154,394.9577 544.35365,395.4015 C 539.6439,396.01897 535.02646,397.10974 530.32393,397.74928 C 524.70951,397.86773 519.08041,398.03971 513.51938,398.88831 C 508.75148,399.66965 504.02911,400.89806 499.15682,400.56156 C 495.14976,400.59354 491.12576,400.59914 487.14745,401.13956 C 483.29772,401.73493 479.5905,402.96318 475.72144,403.42871 C 471.69745,403.42888 467.67347,403.42967 463.64949,403.43038 C 460.80776,403.43516 457.96603,403.44085 455.12429,403.43876 C 452.32907,403.44226 449.53385,403.43471 446.73863,403.44356 C 442.68663,403.4445 438.63461,403.45418 434.58263,403.43284 C 428.68463,403.3862 422.7832,403.28058 416.89765,402.86834 C 410.81793,402.36335 404.83582,401.31374 398.78807,400.56704 C 392.25882,400.57146 385.72957,400.57985 379.20032,400.57703 C 371.61363,400.56612 364.02445,400.5522 356.44289,400.23677 C 347.95212,399.7858 339.49254,399.00049 331.08591,397.69701 C 323.62405,396.75647 316.06927,396.48887 308.70783,394.80769 C 302.64356,393.8167 296.4532,393.49187 290.5927,391.45778 C 286.23918,390.30757 281.80032,389.30056 277.36785,388.55184 C 273.96926,388.02105 270.64786,386.9851 267.20893,386.8415 C 263.80207,387.46026 260.64512,388.7109 257.45668,390.03579 C 256.00086,390.50225 251.0078,393.1415 253.19044,391.71203 C 263.71898,384.81663 259.29645,388.34965 256.69315,389.53908 C 254.76773,390.75544 254.18218,392.66388 255.87307,394.41817 C 257.69528,397.13141 255.01311,399.24567 253.31974,401.25329 C 251.61505,403.68583 249.5983,406.90804 251.47429,409.74937 C 253.24486,411.9343 255.98637,412.4804 258.01413,414.39315 C 258.86695,417.48593 254.73759,419.74539 253.59726,422.31584 C 251.99212,425.16587 250.82005,428.15047 253.73489,430.57106 C 259.65697,434.77 263.9603,429.79485 254.77453,438.69139 C 251.83718,440.06405 248.99888,441.63054 246.04563,442.96496 C 258.45216,435.70831 246.05232,442.65993 244.18101,445.96893 C 241.79576,448.65562 241.0614,452.12798 242.43833,455.52111 C 244.9488,460.78603 248.5067,465.34673 253.31211,468.73868 L 246.1274,473.25158 z"
       sodipodi:nodetypes="cccccccccccccccccccccccccccccccccscccccccccsccssccccccsscccccccccccccccccsccccccsssccccccccccccscccccccccccccccccccccsccccccccccccc" />
    <path
       style="fill:#000000;fill-opacity:1;stroke:#000000;stroke-width:4;stroke-linecap:round;stroke-linejoin:round;stroke-miterlimit:4;stroke-dasharray:none;stroke-dashoffset:0;stroke-opacity:1"
       id="path2405"
       d="M 223.04631,403.0296 C 212.41053,401.48613 201.98877,398.59997 191.62304,395.80088 C 177.35879,391.74228 162.98098,388.09453 148.77734,383.82315 C 143.62113,382.55647 138.72695,380.68653 133.93824,378.43841 L 140.93825,373.80606 C 145.68658,376.01498 150.54245,377.84921 155.63447,379.14126 C 169.82798,383.42029 184.19129,387.08933 198.46079,391.10131 C 208.86099,393.86395 219.31292,396.7398 229.99538,398.15409 L 223.04631,403.0296 z" />
    <path
       style="fill:#000000;fill-opacity:1;stroke:#000000;stroke-width:4;stroke-linecap:round;stroke-linejoin:round;stroke-miterlimit:4;stroke-dasharray:none;stroke-dashoffset:0;stroke-opacity:1"
       id="path2407"
       d="M 222.41405,414.84933 C 210.14897,414.60296 197.92152,414.82224 185.68321,415.63238 C 171.08815,416.12661 156.62618,417.80011 142.21434,420.06134 C 140.31275,420.3725 138.41117,420.68367 136.50958,420.99483 L 143.17922,415.98376 C 145.07162,415.68143 146.96402,415.37911 148.85642,415.07678 C 163.27865,412.8412 177.7583,411.26698 192.35364,410.71904 C 204.65089,409.92194 216.93825,409.75261 229.26059,409.87503 L 222.41405,414.84933 z" />
    <path
       style="fill:#000000;fill-opacity:1;stroke:#000000;stroke-width:4;stroke-linecap:round;stroke-linejoin:round;stroke-miterlimit:4;stroke-dasharray:none;stroke-dashoffset:0;stroke-opacity:1"
       id="path2409"
       d="M 222.22822,417.86356 C 214.23972,424.16705 206.31738,430.56377 198.0933,436.56042 C 187.34237,444.3777 176.66541,452.30011 165.80786,459.96986 C 160.54831,463.64045 155.36752,467.41613 150.27689,471.31681 L 142.45124,474.43855 C 147.57,470.5121 152.77386,466.70515 158.07019,463.02043 C 168.94279,455.37917 179.60616,447.44474 190.35038,439.62585 C 198.55478,433.69239 206.42665,427.31633 214.35414,421.02349 L 222.22822,417.86356 z" />
    <path
       style="fill:#000000;fill-opacity:1;stroke:#000000;stroke-width:4;stroke-linecap:round;stroke-linejoin:round;stroke-miterlimit:4;stroke-dasharray:none;stroke-dashoffset:0;stroke-opacity:1"
       id="path2411"
       d="M 225.3912,435.26144 C 219.40817,443.21388 213.81364,451.43673 207.63144,459.23853 C 203.40573,464.79876 205.48855,462.05411 201.38267,467.47225 L 193.69289,470.781 C 197.81449,465.35503 195.7274,468.10812 199.9537,462.52138 C 206.14032,454.7704 211.75139,446.60738 217.58898,438.59485 L 225.3912,435.26144 z" />
    <path
       style="fill:#000000;fill-opacity:1;stroke:#000000;stroke-width:4;stroke-linecap:round;stroke-linejoin:round;stroke-miterlimit:4;stroke-dasharray:none;stroke-dashoffset:0;stroke-opacity:1"
       id="path2413"
       d="M 613.32348,517.89976 C 606.93866,521.73824 609.98757,519.95384 599.23215,525.88248 C 597.99491,526.56447 604.1454,523.09074 602.91994,523.79369 C 566.75199,544.54021 606.63494,521.28835 593.63445,529.23058 C 588.3419,532.25171 583.08976,535.61963 577.31196,537.70708 C 577.0278,537.89277 576.73769,537.83564 576.45665,537.84718 L 583.34617,532.75149 C 583.53765,532.64871 583.79215,532.47035 584.04085,532.43793 C 586.75087,531.37462 596.33377,526.45719 585.75987,532.27703 C 591.44541,528.78212 589.40633,530.00488 598.92406,524.52745 C 600.21826,523.78264 593.77234,527.5495 595.07013,526.81097 C 631.99546,505.79789 590.92993,529.12848 605.4325,520.98728 L 613.32348,517.89976 z" />
    <path
       style="fill:#000000;fill-opacity:1;stroke:#000000;stroke-width:4;stroke-linecap:round;stroke-linejoin:round;stroke-miterlimit:4;stroke-dasharray:none;stroke-dashoffset:0;stroke-opacity:1"
       id="path2415"
       d="M 573.96263,526.69001 C 571.6897,530.76548 566.81678,534.73351 566.71218,539.72021 C 568.40526,541.66177 571.52568,541.35721 573.88438,541.40928 C 576.63763,541.42988 579.39093,541.38588 582.14316,541.31339 C 582.32487,541.30788 582.50658,541.30236 582.68828,541.29685 L 575.78325,546.33878 C 575.60354,546.34186 575.42382,546.34495 575.24411,546.34803 C 572.49379,546.3911 569.74253,546.43281 566.99204,546.38573 C 564.10389,546.2787 560.84078,546.33701 559.13065,543.61123 C 558.7725,538.42506 563.87399,534.24705 566.16041,530.02342 L 573.96263,526.69001 z" />
    <path
       style="fill:#000000;fill-opacity:1;stroke:#000000;stroke-width:4;stroke-linecap:round;stroke-linejoin:round;stroke-miterlimit:4;stroke-dasharray:none;stroke-dashoffset:0;stroke-opacity:1"
       id="path2419"
       d="M 155.82851,209.50883 C 158.71536,217.36782 158.57479,225.68878 158.52084,233.93087 C 158.07824,242.72506 156.16745,251.29832 154.50764,259.90992 C 153.54108,267.02376 152.48967,274.08574 151.15476,281.14052 C 150.40454,285.01456 149.84011,288.9256 149.58714,292.86412 C 149.57134,294.27541 148.96795,295.28811 150.52107,295.59716 L 143.4522,300.40911 C 141.65536,299.66389 141.7843,298.43131 141.97289,296.68302 C 142.22392,292.7016 142.78221,288.74645 143.55956,284.83327 C 144.89554,277.76937 146.04322,270.71693 146.94906,263.58315 C 148.57386,255.00533 150.56063,246.49165 151.03704,237.73671 C 151.1108,229.59423 151.33418,221.3463 148.39568,213.60241 L 155.82851,209.50883 z" />
    <path
       style="fill:#000000;fill-opacity:1;stroke:#000000;stroke-width:4;stroke-linecap:round;stroke-linejoin:round;stroke-miterlimit:4;stroke-dasharray:none;stroke-dashoffset:0;stroke-opacity:1"
       id="path2421"
       d="M 140.91911,272.83043 C 140.94294,279.99122 141.30364,287.41069 144.05531,294.09333 C 145.88798,297.41085 148.49013,301.57361 152.42328,302.49696 C 154.04702,302.66665 155.4386,302.38385 156.94328,301.78676 C 157.48844,301.57044 159.05398,300.77234 158.55451,301.07978 C 156.73904,302.19725 151.14257,305.29589 152.9849,304.22328 C 156.03052,302.4501 159.10469,300.72641 162.16458,298.97797 C 160.45319,299.94284 158.77445,300.96808 157.03039,301.87257 C 156.3402,302.23051 158.32652,301.01191 158.99809,300.62014 C 188.99368,283.12181 151.65803,305.06775 166.13599,296.20388 C 171.7815,294.17909 176.53676,289.66427 182.25452,287.70247 C 185.40586,287.01336 188.57423,284.9163 177.81364,290.53964 L 185.69715,287.30503 C 180.53238,290.48004 179.67099,291.76267 175.55078,292.96356 C 172.41117,294.33642 161.65983,300.41807 174.06308,293.14235 C 169.91796,295.61994 165.74093,298.12343 161.64502,300.65052 C 159.91356,301.7188 165.1227,298.53628 166.89924,297.54478 C 167.58084,297.16437 165.58806,298.39211 164.93247,298.81578 C 161.80863,300.64556 158.68479,302.47535 155.56094,304.30513 C 170.3396,295.66321 150.83794,309.27341 145.3948,307.29055 C 141.35794,305.7909 138.59946,301.92582 136.68199,298.22172 C 133.87426,291.44795 133.5033,283.94392 133.36661,276.67862 L 140.91911,272.83043 z" />
    <path
       style="fill:#000000;fill-opacity:1;stroke:#000000;stroke-width:4;stroke-linecap:round;stroke-linejoin:round;stroke-miterlimit:4;stroke-dasharray:none;stroke-dashoffset:0;stroke-opacity:1"
       id="path2499"
       d="M 250.03694,365.58673 C 249.92064,366.59682 249.90273,367.61502 249.88136,368.63055 C 249.85028,370.37128 249.87417,372.11232 249.83197,373.8528 C 249.76246,376.22613 249.59542,378.59569 249.42166,380.96332 C 249.24742,383.53544 249.02474,386.10475 248.74689,388.66776 C 248.5575,390.74057 248.2574,392.80017 247.92862,394.85471 C 247.73175,396.13463 247.44001,397.39318 247.13529,398.65039 C 246.9841,399.02985 246.95046,399.48844 246.72976,399.84105 C 246.66262,399.81988 246.57146,399.83317 246.52834,399.77752 C 246.51583,399.76139 246.5082,399.30879 246.5077,399.27156 C 246.5009,398.75923 246.51047,398.2506 246.53092,397.73857 C 246.60947,395.65722 246.74769,393.57898 246.87029,391.49994 C 247.02436,388.45088 247.37325,385.41924 247.81129,382.3995 C 248.29182,379.14417 249.12052,375.95774 250.1379,372.83288 C 250.79667,371.04804 251.50423,369.25573 252.56056,367.66131 C 253.1479,366.77478 253.35212,366.6023 254.04784,365.82704 C 255.2139,364.6898 256.67157,363.82487 258.32422,363.68913 C 258.59937,363.66653 258.87635,363.68586 259.15241,363.68423 C 260.47284,363.78821 261.72134,364.22893 262.73813,365.09259 C 262.91865,365.24592 263.07859,365.42195 263.24882,365.58663 C 263.94836,366.41247 264.39893,367.43032 264.34237,368.53044 C 264.33151,368.74154 264.2859,368.94941 264.25766,369.1589 C 263.92236,370.72933 262.89043,371.75153 261.73055,372.77465 C 260.35518,373.93385 258.76657,374.77369 257.09212,375.40756 C 256.12317,375.7487 255.11208,375.93269 254.09076,376.01308 C 254.3523,375.89781 253.69664,376.08896 253.78142,376.03001 C 254.08634,375.81798 254.54939,375.90864 254.89177,375.92926 C 256.10553,375.94685 257.23865,376.34742 258.34785,376.80176 C 259.99971,377.57057 261.23371,378.71051 262.44391,380.0422 C 263.75861,381.53889 264.72979,383.27798 265.57335,385.07113 C 266.35263,386.68964 266.908,388.39276 267.3241,390.13626 C 267.55159,391.15238 267.69486,392.1981 267.57456,393.23772 C 267.45795,393.71968 267.35715,393.86883 266.90865,394.03847 C 266.66854,393.96954 266.59093,393.73869 266.51253,393.52615 L 266.6835,393.43129 C 266.75863,393.63536 266.83184,393.86391 267.06732,393.92149 C 267.04198,393.95065 266.98247,393.97136 266.99131,394.00896 C 266.99883,394.04097 267.04978,393.97824 267.076,393.95841 C 267.27225,393.80998 267.33382,393.54605 267.40061,393.32378 C 267.52669,392.28591 267.38375,391.24073 267.15864,390.2255 C 266.74477,388.48254 266.19073,386.7801 265.41218,385.16239 C 264.56964,383.37076 263.59929,381.6332 262.2849,380.1386 C 261.07542,378.80885 259.84267,377.67165 258.19099,376.90667 C 257.08142,376.45387 255.94803,376.05709 254.73454,376.04211 C 254.28741,376.01728 254.48018,376.01983 254.08434,376.02498 C 254.0197,376.02582 253.94157,376.06757 253.89045,376.02801 C 253.76949,375.93442 254.23523,375.83337 254.24708,375.89762 C 255.26578,375.81774 256.27402,375.63284 257.24006,375.29166 C 258.80129,374.69851 260.28267,373.94306 261.55733,372.84513 C 262.71541,371.82604 263.74884,370.80848 264.08721,369.24286 C 264.1159,369.03432 264.16192,368.82745 264.17327,368.61725 C 264.23244,367.52185 263.78402,366.5081 263.08784,365.68565 C 262.91813,365.52158 262.75872,365.34616 262.57872,365.19346 C 261.5641,364.33267 260.31792,363.89527 259.00085,363.79451 C 258.72541,363.79685 258.449,363.77829 258.17453,363.80154 C 256.63004,363.93239 255.30065,364.67437 254.21678,365.756 C 253.51977,366.5299 253.3148,366.7024 252.72622,367.58787 C 251.66732,369.18088 250.9581,370.97279 250.29826,372.75744 C 249.27938,375.88112 248.45063,379.06685 247.97001,382.32149 C 247.53232,385.3401 247.18398,388.37069 247.03203,391.41871 C 246.91143,393.49626 246.77502,395.57304 246.70058,397.65295 C 246.68099,398.16405 246.67283,398.67149 246.68082,399.18283 C 246.68233,399.27968 246.68408,399.37654 246.68813,399.47332 C 246.6911,399.54415 246.72301,399.6179 246.70188,399.68557 C 246.67403,399.77473 246.59968,399.84196 246.54858,399.92015 C 246.78183,399.6033 246.8058,399.08389 246.96185,398.73361 C 247.26898,397.47616 247.56313,396.21741 247.76097,394.9368 C 248.0919,392.882 248.39344,390.82198 248.58378,388.74866 C 248.86288,386.18581 249.08572,383.61652 249.25961,381.0444 C 249.43265,378.67762 249.59865,376.30887 249.6669,373.9364 C 249.70827,372.19663 249.68324,370.45632 249.71225,368.71628 C 249.73258,367.70115 249.75009,366.68362 249.86134,365.67347 L 250.03694,365.58673 z"
       transform="translate(42.677867,47.292128)" />
    <path
       style="fill:#000000;fill-opacity:1;stroke:#000000;stroke-width:4;stroke-linecap:round;stroke-linejoin:round;stroke-miterlimit:4;stroke-dasharray:none;stroke-dashoffset:0;stroke-opacity:1"
       id="path2501"
       d="M 280.54297,390.16595 C 280.19434,390.89004 279.71782,391.52778 279.09522,392.03473 C 278.18844,392.57791 277.77275,392.66257 276.91959,392.04317 C 276.04538,391.15714 275.95436,389.95247 275.96437,388.77372 C 276.10464,387.42552 276.59064,386.1535 277.42773,385.08223 C 277.59791,384.86443 277.79317,384.66745 277.97588,384.46006 C 278.95928,383.4885 280.14639,382.71749 281.50465,382.39249 C 281.74262,382.33555 281.98677,382.30858 282.22782,382.26663 C 283.37659,382.18569 284.52976,382.43365 285.46038,383.13979 C 285.63144,383.26959 285.78075,383.42579 285.94093,383.56879 C 286.68278,384.36839 287.13408,385.40331 287.10776,386.50669 C 287.10258,386.72401 287.06141,386.93897 287.03823,387.15511 C 286.82517,388.14845 286.35998,389.08754 285.48019,389.65108 C 285.26845,389.7867 285.03848,389.8915 284.81763,390.01172 C 284.14721,390.25627 283.42277,390.34649 282.72572,390.15194 C 282.57068,390.10866 282.42499,390.03702 282.27462,389.97957 L 282.43396,389.87242 C 282.58358,389.92898 282.72859,389.99971 282.88283,390.04209 C 283.57826,390.2332 284.29981,390.13995 284.96641,389.89211 C 286.06526,389.33642 286.60996,388.42231 286.86822,387.23943 C 286.89187,387.02423 286.93348,386.81026 286.93917,386.59384 C 286.96805,385.49504 286.51869,384.46468 285.7796,383.66893 C 285.62001,383.52673 285.47128,383.37133 285.30083,383.24234 C 284.37231,382.53966 283.22167,382.29613 282.07713,382.38017 C 281.40427,382.49916 280.71499,382.63151 280.09486,382.93684 C 279.36138,383.29797 278.73076,383.82061 278.14858,384.38727 C 277.96558,384.59398 277.77005,384.79025 277.59956,385.0074 C 276.76167,386.07462 276.27443,387.3427 276.13281,388.68808 C 276.1222,389.86035 276.21038,391.06006 277.08257,391.93967 C 277.57071,392.29003 277.80567,392.38716 278.40682,392.31636 C 278.46678,392.3093 278.53096,392.31893 278.58678,392.29595 C 278.70383,392.24777 278.80628,392.16982 278.91602,392.10676 C 279.54051,391.60505 280.01694,390.97012 280.36487,390.24779 L 280.54297,390.16595 z"
       transform="translate(42.677867,47.292128)" />
    <path
       style="fill:#000000;fill-opacity:1;stroke:#000000;stroke-width:4;stroke-linecap:round;stroke-linejoin:round;stroke-miterlimit:4;stroke-dasharray:none;stroke-dashoffset:0;stroke-opacity:1"
       id="path2503"
       d="M 306.86653,381.84029 C 305.89707,382.2 305.01038,382.70627 304.14014,383.25785 C 302.85456,384.13084 301.67101,385.17529 300.71886,386.4093 C 300.51818,386.6694 300.34172,386.94732 300.15315,387.21632 C 299.38748,388.44167 298.7788,389.82113 298.83374,391.29703 C 298.8425,391.5324 298.88945,391.7648 298.91731,391.99868 C 298.98421,392.20951 299.02718,392.4295 299.11801,392.63118 C 299.47634,393.42675 300.20222,393.99669 300.98955,394.32816 C 301.20383,394.41837 301.42953,394.47858 301.64953,394.55379 C 302.65648,394.85826 303.69649,394.82253 304.73189,394.75997 L 304.58078,394.87114 C 303.5433,394.93246 302.50133,394.96649 301.49292,394.65985 C 301.27234,394.58397 301.04598,394.52314 300.83116,394.4322 C 300.03979,394.09716 299.31201,393.5225 298.95182,392.72239 C 298.86053,392.5196 298.81723,392.29846 298.74993,392.08649 C 298.72186,391.85161 298.67468,391.61823 298.66572,391.38185 C 298.60964,389.90268 299.21684,388.51927 299.98319,387.29023 C 300.17155,387.0207 300.34774,386.74223 300.54828,386.48163 C 301.49866,385.24662 302.68071,384.20076 303.96474,383.32603 C 304.94054,382.70589 305.93532,382.12811 307.0203,381.71876 L 306.86653,381.84029 z"
       transform="translate(42.677867,47.292128)" />
    <path
       style="fill:#000000;fill-opacity:1;stroke:#000000;stroke-width:4;stroke-linecap:round;stroke-linejoin:round;stroke-miterlimit:4;stroke-dasharray:none;stroke-dashoffset:0;stroke-opacity:1"
       id="path2505"
       d="M 320.51222,368.73486 C 320.63032,369.91934 320.64169,371.11164 320.66139,372.3009 C 320.73334,374.32321 320.50517,376.33586 320.25032,378.33789 C 319.88054,380.82231 319.33619,383.27528 318.80063,385.72779 C 318.27267,387.97771 317.78538,390.23696 317.14448,392.45806 C 316.92132,393.14856 316.72206,393.84602 316.47324,394.52798 C 316.35483,394.85251 316.24661,395.13248 316.03231,395.40148 L 315.85227,395.47823 C 316.07296,395.21246 316.18071,394.93424 316.3007,394.60865 C 316.55203,393.92668 316.75201,393.2286 316.97667,392.53769 C 317.62063,390.31672 318.1096,388.05715 318.63758,385.8065 C 319.17293,383.35484 319.71648,380.90263 320.08591,378.41906 C 320.34018,376.41846 320.5677,374.40721 320.49423,372.38642 C 320.47355,371.19914 320.46211,370.00846 320.33872,368.82639 L 320.51222,368.73486 z"
       transform="translate(42.677867,47.292128)" />
    <path
       style="fill:#000000;fill-opacity:1;stroke:#000000;stroke-width:4;stroke-linecap:round;stroke-linejoin:round;stroke-miterlimit:4;stroke-dasharray:none;stroke-dashoffset:0;stroke-opacity:1"
       id="path2507"
       d="M 330.80548,376.27496 C 330.66562,377.3064 329.98532,378.12253 329.35722,378.90751 C 328.20649,380.23288 326.87878,381.38876 325.5287,382.50455 C 324.34547,383.49335 323.1257,384.4369 321.9258,385.40505 C 321.41333,385.84219 320.81829,386.18512 320.33256,386.65346 C 320.15788,386.88527 320.21399,386.9459 320.47044,386.99309 C 320.81076,387.02297 321.15345,387.01352 321.49475,387.01229 C 322.14447,386.96393 322.71637,387.23026 323.28672,387.50207 C 324.30141,388.09775 325.18022,388.89434 326.02919,389.70172 C 327.10346,390.74294 328.08042,391.87721 329.00563,393.05112 C 329.81505,394.1409 330.65412,395.20879 331.44418,396.31277 C 331.9257,396.9914 332.35905,397.70023 332.77398,398.42065 C 332.89725,398.63342 333.02132,398.84573 333.14734,399.05688 L 332.97638,399.15584 C 332.85173,398.94378 332.72838,398.73097 332.60556,398.51785 C 332.19202,397.79742 331.761,397.08792 331.28011,396.40964 C 330.49128,395.30521 329.65294,394.23721 328.8438,393.14769 C 327.91915,391.97439 326.94262,390.84079 325.86807,389.80102 C 325.01955,388.9954 324.14114,388.20011 323.12574,387.60845 C 322.55577,387.33841 321.98481,387.07753 321.33667,387.12723 C 320.99423,387.1286 320.65002,387.13942 320.3088,387.1058 C 320.06778,387.05555 319.97877,386.94578 320.15151,386.72817 C 320.63442,386.25421 321.23645,385.91537 321.74919,385.476 C 322.95033,384.50735 324.17171,383.56379 325.35596,382.57419 C 326.70562,381.45994 328.03248,380.30516 329.18343,378.98176 C 329.80878,378.2007 330.48853,377.39014 330.63068,376.36403 L 330.80548,376.27496 z"
       transform="translate(42.677867,47.292128)" />
    <path
       style="fill:#000000;fill-opacity:1;stroke:#000000;stroke-width:4;stroke-linecap:round;stroke-linejoin:round;stroke-miterlimit:4;stroke-dasharray:none;stroke-dashoffset:0;stroke-opacity:1"
       id="path2509"
       d="M 344.25796,387.28013 C 345.18695,387.5534 346.16802,387.47639 347.11369,387.34885 C 348.7601,387.09544 350.34007,386.57639 351.89197,385.98693 C 353.33571,385.44981 354.69405,384.74505 355.91692,383.80998 C 356.43653,383.33098 357.05698,382.69821 356.9533,381.91668 C 356.93763,381.79861 356.88366,381.68887 356.84884,381.57497 C 356.31945,380.62853 355.21208,380.48779 354.22782,380.41911 C 352.52375,380.3679 350.9257,380.86843 349.37855,381.52849 C 348.25646,382.044 347.22415,382.73183 346.32793,383.58286 C 345.71939,384.16072 345.5246,384.43349 344.98706,385.07913 C 343.71399,386.7461 343.00629,388.61633 342.5104,390.63195 C 342.24064,391.94759 342.28144,393.30145 342.8831,394.52488 C 342.99106,394.74442 343.13325,394.9454 343.25832,395.15566 C 344.17429,396.42962 345.51735,397.27463 346.86625,398.02677 C 348.2831,398.77016 349.83581,399.16133 351.41818,399.32815 C 352.39324,399.42941 353.35891,399.34406 354.31829,399.17172 L 354.16724,399.28558 C 353.2068,399.45568 352.24026,399.53945 351.26468,399.43721 C 349.68085,399.2675 348.12682,398.87464 346.709,398.12922 C 345.35766,397.3747 344.01216,396.52757 343.09507,395.2502 C 342.96951,395.03906 342.82682,394.83722 342.7184,394.61679 C 342.11491,393.38979 342.07264,392.0321 342.34278,390.71233 C 342.8388,388.69498 343.54537,386.82179 344.81685,385.15147 C 345.35414,384.50441 345.5481,384.23205 346.15641,383.65254 C 347.14088,382.71469 348.29551,381.98651 349.52471,381.41304 C 351.07478,380.75419 352.67589,380.25543 354.38209,380.30868 C 355.37528,380.38014 356.48612,380.52701 357.01865,381.48197 C 357.05444,381.59774 357.1095,381.70924 357.126,381.82929 C 357.23417,382.61623 356.61666,383.25569 356.09318,383.73968 C 354.77506,384.75113 353.29736,385.51232 351.74528,386.10186 C 350.1916,386.69092 348.60979,387.2096 346.96175,387.46236 C 346.01215,387.58883 345.02694,387.66583 344.09486,387.38882 L 344.25796,387.28013 z"
       transform="translate(42.677867,47.292128)" />
    <path
       style="fill:#000000;fill-opacity:1;stroke:#000000;stroke-width:4;stroke-linecap:round;stroke-linejoin:round;stroke-miterlimit:4;stroke-dasharray:none;stroke-dashoffset:0;stroke-opacity:1"
       id="path2511"
       d="M 375.26819,395.31928 C 375.39786,396.01986 375.33745,396.72666 375.22057,397.42331 C 375.02608,398.37369 374.64973,399.27015 374.21118,400.13069 C 373.74855,400.87448 373.19171,401.54435 372.33309,401.8151 C 372.25108,401.79457 372.16197,401.79269 372.08706,401.7535 C 371.37658,401.38188 371.32951,400.09106 371.25154,399.42787 C 371.04142,396.96541 371.29694,394.49509 371.53323,392.04432 C 371.82651,389.17077 372.22562,386.30961 372.64905,383.45281 C 372.98701,381.18818 373.33976,378.92457 373.62271,376.65221 C 373.78145,375.2743 373.88546,373.89141 373.825,372.50489 C 373.79337,372.0917 373.77456,371.67461 373.69863,371.26628 C 373.61679,371.2151 373.55723,371.23264 373.46486,371.24986 L 373.62225,371.13168 C 373.7267,371.11788 373.78902,371.10348 373.87304,371.17339 C 373.94713,371.58366 373.96438,372.00237 373.99528,372.41721 C 374.05366,373.80576 373.9501,375.19021 373.78923,376.56996 C 373.50407,378.84316 373.15007,381.1077 372.81099,383.37328 C 372.38643,386.22994 371.98612,389.09099 371.69339,391.96464 C 371.4584,394.41287 371.20423,396.88095 371.41806,399.34053 C 371.49489,399.9838 371.54495,401.29069 372.24751,401.64252 C 372.32069,401.67917 372.40733,401.67792 372.48724,401.69562 C 372.60441,401.65735 372.73566,401.6457 372.83695,401.57547 C 373.34263,401.2248 373.70599,400.71766 374.03688,400.20938 C 374.47571,399.35097 374.85155,398.45603 375.04753,397.50788 C 375.16468,396.81361 375.22659,396.10887 375.09468,395.41081 L 375.26819,395.31928 z"
       transform="translate(42.677867,47.292128)" />
    <path
       style="fill:#000000;fill-opacity:1;stroke:#000000;stroke-width:4;stroke-linecap:round;stroke-linejoin:round;stroke-miterlimit:4;stroke-dasharray:none;stroke-dashoffset:0;stroke-opacity:1"
       id="path2513"
       d="M 364.09488,385.02332 C 365.0793,385.02106 366.05763,384.84759 367.02524,384.6804 C 368.51729,384.44325 370.00032,384.15565 371.48781,383.89221 C 373.17665,383.57089 374.88124,383.34164 376.59261,383.18329 C 377.46423,383.11531 378.33721,383.06052 379.21122,383.03563 C 379.28623,383.03963 379.36465,383.0253 379.43902,383.03724 L 379.27603,383.15024 C 379.20172,383.14911 379.12718,383.14919 379.05284,383.15135 C 378.18135,383.17365 377.31083,383.22702 376.4418,383.29501 C 374.73064,383.45354 373.02641,383.68317 371.33788,384.0052 C 369.8498,384.26883 368.3662,384.55681 366.87362,384.79457 C 365.90349,384.96209 364.92313,385.13508 363.93616,385.13864 L 364.09488,385.02332 z"
       transform="translate(42.677867,47.292128)" />
    <path
       style="fill:#000000;fill-opacity:1;stroke:#000000;stroke-width:4;stroke-linecap:round;stroke-linejoin:round;stroke-miterlimit:4;stroke-dasharray:none;stroke-dashoffset:0;stroke-opacity:1"
       id="path2519"
       d="M 574.73665,458.18151 C 578.3008,456.87738 580.79733,453.87402 583.16521,451.04158 C 586.98894,445.9547 589.89723,440.30872 592.58737,434.56812 C 594.79042,429.87877 596.69952,425.03932 598.02097,420.02606 C 598.4293,418.17866 598.77951,416.30777 598.89377,414.41615 C 598.89503,414.38983 598.89629,414.36351 598.89755,414.33719 C 599.22619,414.39241 599.65809,414.25736 599.88347,414.50283 C 600.08518,414.72254 599.85407,415.09976 599.87107,415.39753 C 599.93641,416.54183 600.19463,417.69955 600.35647,418.83235 C 600.61498,421.74952 601.42207,424.5601 602.25006,427.35492 C 602.81261,428.9898 603.87336,431.10828 605.86614,430.21983 C 605.77271,430.18733 605.54428,430.2121 605.58585,430.12234 C 605.92557,429.38892 606.60082,428.8578 607.01715,428.165 C 607.80403,426.85562 608.5162,425.49296 609.21469,424.13532 C 610.2981,422.50548 610.89049,420.07199 612.66299,418.97746 C 613.14625,418.67905 613.67829,418.468 614.18594,418.21326 C 616.08418,418.21993 616.79412,420.49759 617.60686,421.88087 C 618.4894,423.9187 619.7433,425.31737 621.85903,426.0114 L 620.94094,426.63385 C 618.82057,425.8994 617.53793,424.49506 616.64828,422.43538 C 615.86735,421.1108 615.15833,418.81175 613.30664,418.90125 C 613.4358,418.7873 613.82969,418.45314 613.69414,418.55941 C 612.02645,419.86688 611.22541,421.87601 610.22088,423.68135 C 608.84945,426.36079 607.61993,429.24804 604.98966,430.9095 C 602.93008,431.65779 601.85935,429.57784 601.27807,427.88586 C 600.45411,425.08492 599.63851,422.27077 599.3772,419.34902 C 599.26963,418.60231 598.57415,415.64225 598.88839,415.00725 C 599.1176,414.54408 599.5642,414.22523 599.9021,413.83421 C 599.89964,413.86074 599.89718,413.88727 599.89472,413.9138 C 599.77742,415.81515 599.41954,417.69483 599.01276,419.5525 C 597.68997,424.57439 595.77667,429.42211 593.57139,434.11987 C 590.88193,439.86462 587.9789,445.51504 584.16803,450.61549 C 581.3198,454.04511 578.15662,457.30719 573.85755,458.86448 L 574.73665,458.18151 z"
       transform="translate(42.677867,47.292128)" />
    <path
       style="fill:#000000;fill-opacity:1;stroke:#000000;stroke-width:4;stroke-linecap:round;stroke-linejoin:round;stroke-miterlimit:4;stroke-dasharray:none;stroke-dashoffset:0;stroke-opacity:1"
       id="path2521"
       d="M 80.728501,90.513245 C 81.952489,86.936308 84.113389,83.987714 86.659788,81.253123 C 89.759584,78.113978 93.461943,75.773886 97.267946,73.604727 C 99.658213,72.38154 102.1677,71.575369 104.83412,72.132463 C 107.65466,72.944046 109.21183,75.6121 110.68891,77.945956 C 113.08576,82.477514 114.25893,87.543491 115.48554,92.489748 C 117.09774,98.848067 118.62845,105.22548 120.21654,111.58989 C 122.04108,118.30613 123.84499,125.03006 125.42342,131.80924 C 126.65697,137.50666 127.25129,143.31717 128.28731,149.04862 C 128.49837,150.46347 128.84198,151.79144 129.57845,153.01377 L 128.61535,153.57157 C 127.88434,152.33072 127.52653,150.99328 127.32162,149.56255 C 126.29201,143.83011 125.70384,138.01892 124.47387,132.32072 C 122.89753,125.54169 121.09304,118.81843 119.26734,112.10316 C 117.6778,105.73958 116.14725,99.36266 114.53062,93.005922 C 113.30658,88.071776 112.13234,83.018924 109.7391,78.499597 C 108.27171,76.189573 106.72868,73.548865 103.9242,72.766246 C 101.27166,72.249269 98.777179,73.074719 96.411045,74.297181 C 93.193804,76.024523 90.324992,78.340457 87.671249,80.830111 C 85.124813,83.548459 82.954716,86.471569 81.736134,90.040023 L 80.728501,90.513245 z"
       transform="translate(42.677867,47.292128)" />
    <path
       style="fill:#000000;fill-opacity:1;stroke:#000000;stroke-width:4;stroke-linecap:round;stroke-linejoin:round;stroke-miterlimit:4;stroke-dasharray:none;stroke-dashoffset:0;stroke-opacity:1"
       id="path2523"
       d="M 115.79368,110.78427 C 112.90972,114.83617 109.86744,118.77299 107.03299,122.85948 C 103.47545,128.13889 100.17817,133.5879 97.026207,139.11726 C 95.664076,141.68636 94.092835,144.09508 91.995775,146.11289 L 90.97396,146.53318 C 93.095296,144.53621 94.671805,142.13019 96.035756,139.5589 C 99.188077,134.02791 102.48582,128.57754 106.03803,123.29272 C 108.86185,119.20846 111.9026,115.28015 114.77525,111.22987 L 115.79368,110.78427 z"
       transform="translate(42.677867,47.292128)" />
    <path
       style="fill:#000000;fill-opacity:1;stroke:#000000;stroke-width:4;stroke-linecap:round;stroke-linejoin:round;stroke-miterlimit:4;stroke-dasharray:none;stroke-dashoffset:0;stroke-opacity:1"
       id="path2525"
       d="M 179.28857,50.301592 C 178.88844,56.042834 178.15399,61.754762 177.22439,67.432367 C 176.03746,74.330327 174.4819,81.13041 172.56825,87.859511 C 171.78814,90.637167 171.04309,93.463098 169.84148,96.096175 L 168.82848,96.558038 C 170.06503,93.938714 170.79534,91.099633 171.5878,88.325234 C 173.51127,81.599769 175.07284,74.802743 176.25805,67.905146 C 177.18597,62.23853 177.91462,56.53691 178.29934,50.80563 L 179.28857,50.301592 z"
       transform="translate(42.677867,47.292128)" />
    <path
       style="fill:#000000;fill-opacity:1;stroke:#000000;stroke-width:4;stroke-linecap:round;stroke-linejoin:round;stroke-miterlimit:4;stroke-dasharray:none;stroke-dashoffset:0;stroke-opacity:1"
       id="path2527"
       d="M 203.24062,63.436129 C 200.13669,65.811505 196.89509,67.996091 193.68072,70.216849 C 190.90548,72.015895 188.12758,73.808685 185.35486,75.61161 C 183.91128,76.464158 182.44595,77.321468 180.86151,77.891073 L 181.74495,77.200592 C 182.63276,76.869692 183.48318,76.447827 184.32321,76.013901 C 187.0988,74.209167 189.87934,72.414584 192.66027,70.618095 C 195.86957,68.39929 199.10734,66.219048 202.21077,63.851809 L 203.24062,63.436129 z"
       transform="translate(42.677867,47.292128)" />
    <path
       style="fill:#000000;fill-opacity:1;stroke:#000000;stroke-width:4;stroke-linecap:round;stroke-linejoin:round;stroke-miterlimit:4;stroke-dasharray:none;stroke-dashoffset:0;stroke-opacity:1"
       id="path2529"
       d="M 189.8022,74.885888 C 191.36524,78.286 192.40792,81.837881 193.34032,85.449579 C 194.39723,88.886579 194.62602,92.367196 194.41513,95.927272 L 193.42781,96.422822 C 193.64863,92.87215 193.42978,89.40167 192.37508,85.972551 C 191.44255,82.367343 190.41122,78.817819 188.83359,75.42989 L 189.8022,74.885888 z"
       transform="translate(42.677867,47.292128)" />
    <path
       style="fill:#000000;fill-opacity:1;stroke:#000000;stroke-width:4;stroke-linecap:round;stroke-linejoin:round;stroke-miterlimit:4;stroke-dasharray:none;stroke-dashoffset:0;stroke-opacity:1"
       id="path2531"
       d="M 232.6311,69.903671 C 228.75543,69.643013 226.89242,70.561914 224.11695,73.022031 C 221.79596,75.612923 220.42213,78.691912 220.28946,82.157387 C 220.63188,84.60618 222.02703,85.055898 224.0821,83.95424 C 224.11447,83.876222 224.1198,83.780235 224.1792,83.720187 C 225.72877,82.153732 224.83995,83.396748 226.2439,81.685619 C 227.18297,80.541077 227.95729,79.25817 228.77264,78.025913 C 229.28941,78.075112 230.70816,73.754491 230.88527,73.646217 C 231.3046,73.389859 231.81551,73.328597 232.28064,73.169788 C 233.21602,74.649657 233.65068,76.486062 234.24952,78.144412 C 234.88764,80.413187 235.62345,82.65525 236.11156,84.963661 C 236.43169,87.364638 235.68812,89.229834 234.09282,90.979072 C 231.70325,93.180875 228.76338,94.819626 225.69377,95.852051 C 222.94058,96.733258 220.12369,96.827421 217.26994,96.653181 L 218.16537,96.010726 C 221.01195,96.176372 223.82237,96.064382 226.56392,95.175151 C 229.06889,94.312464 231.13836,93.327506 233.0693,91.407636 C 234.67653,89.698751 235.43717,87.869981 235.13403,85.487583 C 234.65026,83.18309 233.91357,80.946756 233.27927,78.681935 C 232.69353,77.0616 232.25631,75.264935 231.36386,73.810894 C 231.54244,73.599768 231.64399,73.282998 231.89961,73.177516 C 232.06485,73.109326 231.76004,73.506762 231.69622,73.673744 C 231.59463,73.939533 231.50911,74.211397 231.40345,74.475597 C 230.96784,75.564874 230.39586,76.581986 229.78553,77.582328 C 227.96481,80.333057 226.2401,83.057091 223.21611,84.648383 C 221.0652,85.701957 219.65787,85.129423 219.30045,82.65672 C 219.42471,79.166725 220.78153,76.064696 223.10017,73.436528 C 226.05118,70.777736 229.46109,68.856889 233.54275,69.26405 L 232.6311,69.903671 z"
       transform="translate(42.677867,47.292128)" />
    <path
       style="fill:#000000;fill-opacity:1;stroke:#000000;stroke-width:4;stroke-linecap:round;stroke-linejoin:round;stroke-miterlimit:4;stroke-dasharray:none;stroke-dashoffset:0;stroke-opacity:1"
       id="path2533"
       d="M 164.31874,102.28509 C 168.25645,103.35337 172.34001,103.76707 176.37325,104.32998 C 182.50718,105.18493 188.68306,105.22318 194.85714,105.00606 C 202.37982,104.65562 209.90776,104.46053 217.43732,104.34624 C 223.40037,104.27069 229.36394,104.25701 235.32739,104.24959 C 238.02765,104.14945 240.71531,104.5419 243.35574,105.072 C 245.64716,105.29592 243.46543,106.00958 242.32068,106.03556 L 243.22253,105.37685 C 244.64783,105.33716 243.21997,106.27815 242.44067,105.70945 C 239.81008,105.17809 237.1326,104.79537 234.44188,104.89304 C 228.48373,104.89369 222.52542,104.90445 216.56767,104.9801 C 209.03828,105.09409 201.51059,105.28985 193.98816,105.64208 C 187.8063,105.85936 181.62254,105.81471 175.4811,104.95946 C 171.43793,104.39602 167.34487,103.98197 163.39754,102.91012 L 164.31874,102.28509 z"
       transform="translate(42.677867,47.292128)" />
    <path
       style="fill:#000000;fill-opacity:1;stroke:#000000;stroke-width:4;stroke-linecap:round;stroke-linejoin:round;stroke-miterlimit:4;stroke-dasharray:none;stroke-dashoffset:0;stroke-opacity:1"
       id="path2535"
       d="M 185.41879,117.55746 C 184.02981,118.35386 178.94463,119.6493 178.27042,120.79263 C 176.75027,121.90675 175.97319,123.51023 176.05457,125.37995 C 176.34653,127.34236 177.28263,129.15097 178.32093,130.81852 C 179.43562,132.44415 180.78429,133.88453 182.1512,135.29704 C 182.87394,136.0003 183.68288,136.6318 183.41625,137.70913 C 182.1518,139.1649 180.09005,139.95086 178.31459,140.65748 C 176.00334,141.40273 173.73845,142.27171 171.35542,142.76429 C 170.6125,142.99652 169.94067,142.91965 169.20767,142.74981 L 170.12556,142.11295 C 170.84732,142.26438 171.5143,142.31641 172.24031,142.09302 C 174.61648,141.58839 176.88139,140.72638 179.18584,139.97198 C 180.77753,139.32199 181.27891,139.30881 182.40589,138.1907 C 182.71225,137.15612 181.88767,136.5632 181.201,135.87705 C 179.8315,134.45642 178.47894,133.00978 177.36086,131.37708 C 176.31286,129.69391 175.37174,127.86836 175.06461,125.8907 C 174.95535,124.00179 175.7109,122.34193 177.2403,121.19867 C 180.08025,119.36621 183.12133,118.0306 186.29789,116.87449 L 185.41879,117.55746 z"
       transform="translate(42.677867,47.292128)" />
    <path
       style="fill:#000000;fill-opacity:1;stroke:#000000;stroke-width:4;stroke-linecap:round;stroke-linejoin:round;stroke-miterlimit:4;stroke-dasharray:none;stroke-dashoffset:0;stroke-opacity:1"
       id="path2537"
       d="M 201.42692,129.27286 C 203.85332,130.06145 206.27264,130.75118 208.83714,130.66447 C 210.44967,130.26957 210.67267,130.35628 211.57979,128.83718 C 212.16932,127.53442 211.41737,126.66133 210.31902,126.02032 C 208.26952,125.03026 206.32675,125.75981 204.3308,126.4937 C 201.79722,127.79653 200.08541,130.11544 198.76578,132.58055 C 197.71737,134.98737 197.35515,137.46096 199.15895,139.56243 C 200.95267,141.23508 203.28495,141.78499 205.65761,141.97576 L 204.759,142.61709 C 202.36238,142.40311 200.01276,141.83506 198.20825,140.13469 C 196.38881,137.98701 196.69764,135.4998 197.75864,133.03319 C 199.47174,129.78756 201.8094,127.37735 205.2031,125.81209 C 207.228,125.07935 209.19265,124.38792 211.25456,125.41438 C 212.38269,126.09491 213.17111,127.02366 212.60015,128.38341 C 211.6323,130.08343 209.83999,130.98314 207.9407,131.31979 C 205.36916,131.38369 202.94086,130.67829 200.50572,129.89788 L 201.42692,129.27286 z"
       transform="translate(42.677867,47.292128)" />
    <path
       style="fill:#000000;fill-opacity:1;stroke:#000000;stroke-width:4;stroke-linecap:round;stroke-linejoin:round;stroke-miterlimit:4;stroke-dasharray:none;stroke-dashoffset:0;stroke-opacity:1"
       id="path2539"
       d="M 236.97801,126.27839 C 234.2673,128.58059 231.90562,131.1502 230.28942,134.32565 C 228.73371,138.01351 229.27141,139.7576 232.13223,142.40536 C 234.85139,144.36658 237.96461,144.63935 241.19932,144.76112 L 240.31678,145.397 C 237.05919,145.26186 233.92576,144.9705 231.19522,142.98443 C 228.31536,140.3085 227.72748,138.51216 229.28527,134.77941 C 230.89022,131.58543 233.24535,129.01695 235.94279,126.68344 L 236.97801,126.27839 z"
       transform="translate(42.677867,47.292128)" />
  </g>
</svg>
