<?xml version="1.0" encoding="UTF-8" standalone="no"?>
<!-- Created with Inkscape (http://www.inkscape.org/) -->

<svg
   xmlns:dc="http://purl.org/dc/elements/1.1/"
   xmlns:cc="http://creativecommons.org/ns#"
   xmlns:rdf="http://www.w3.org/1999/02/22-rdf-syntax-ns#"
   xmlns:svg="http://www.w3.org/2000/svg"
   xmlns="http://www.w3.org/2000/svg"
   xmlns:sodipodi="http://sodipodi.sourceforge.net/DTD/sodipodi-0.dtd"
   xmlns:inkscape="http://www.inkscape.org/namespaces/inkscape"
   width="1397.993"
   height="684.57812"
   id="svg3012"
   version="1.1"
   inkscape:version="0.47pre4 r22446"
   sodipodi:docname="d3.svg">
  <defs
     id="defs3014">
    <inkscape:perspective
       sodipodi:type="inkscape:persp3d"
       inkscape:vp_x="0 : 526.18109 : 1"
       inkscape:vp_y="0 : 1000 : 0"
       inkscape:vp_z="744.09448 : 526.18109 : 1"
       inkscape:persp3d-origin="372.04724 : 350.78739 : 1"
       id="perspective3020" />
  </defs>
  <sodipodi:namedview
     id="base"
     pagecolor="#ffffff"
     bordercolor="#666666"
     borderopacity="1.0"
     inkscape:pageopacity="0.0"
     inkscape:pageshadow="2"
     inkscape:zoom="0.35"
     inkscape:cx="761.91379"
     inkscape:cy="253.17102"
     inkscape:document-units="px"
     inkscape:current-layer="layer1"
     showgrid="false"
     inkscape:window-width="1280"
     inkscape:window-height="726"
     inkscape:window-x="0"
     inkscape:window-y="25"
     inkscape:window-maximized="1" />
  <metadata
     id="metadata3017">
    <rdf:RDF>
      <cc:Work
         rdf:about="">
        <dc:format>image/svg+xml</dc:format>
        <dc:type
           rdf:resource="http://purl.org/dc/dcmitype/StillImage" />
      </cc:Work>
    </rdf:RDF>
  </metadata>
  <g
     inkscape:label="Layer 1"
     inkscape:groupmode="layer"
     id="layer1"
     transform="translate(386.91379,-100.95504)">
    <path
       style="fill:#000000;fill-opacity:1;stroke:#000000;stroke-width:3;stroke-miterlimit:4;stroke-opacity:1;stroke-dasharray:none"
       id="path3022"
       d="m -210.49813,517.85548 c 12.76435,0.005 25.52869,0.005 38.29304,0.006 18.57389,10e-4 37.14778,10e-4 55.72167,0.002 17.813708,4.2e-4 35.627417,-7.5e-4 53.441125,-0.002 11.213676,-4.3e-4 22.427352,-0.002 33.641028,-0.004 4.266641,-3.5e-4 8.533282,-10e-4 12.799923,-0.003 0,0 -2.811424,0.44528 -2.811424,0.44528 l 0,0 c -4.25222,-0.002 -8.504441,-0.003 -12.756662,-0.003 -11.198302,-0.002 -22.396605,-0.003 -33.594908,-0.004 -17.804189,-0.002 -35.608382,-0.003 -53.412562,-0.002 -18.58086,5.1e-4 -37.16171,2.9e-4 -55.74256,0.002 -12.78972,7.2e-4 -25.57944,10e-4 -38.36915,0.006 0,0 2.79048,-0.44197 2.79048,-0.44197 z" />
    <path
       style="fill:#000000;fill-opacity:1;stroke:#000000;stroke-width:3;stroke-miterlimit:4;stroke-opacity:1;stroke-dasharray:none"
       id="path3024"
       d="m -139.35019,580.39364 c 7.67635,-1.51558 15.40358,-2.91228 23.04975,-4.59692 6.457,-1.70199 13.03278,-2.73639 19.673906,-3.3353 4.057577,-0.31202 8.128951,-0.35199 12.196399,-0.3583 11.832792,-0.86222 -0.967676,1.11301 3.166425,-0.73645 0,0 2.82419,0.3218 2.82419,0.3218 l 0,0 c -1.542651,0.74804 -7.938119,0.99012 -3.187186,0.85845 -4.071436,-1.2e-4 -8.146689,0.0337 -12.209202,0.33119 -6.645152,0.5809 -13.229262,1.58465 -19.687532,3.29646 -7.6333,1.7077 -15.36491,3.05909 -23.02521,4.61548 0,0 -2.80154,-0.39641 -2.80154,-0.39641 z" />
    <path
       style="fill:#000000;fill-opacity:1;stroke:#000000;stroke-width:3;stroke-miterlimit:4;stroke-opacity:1;stroke-dasharray:none"
       id="path3026"
       d="m -103.92771,521.37837 c 1.4925,-10.25864 1.89191,-20.62828 2.21939,-30.97607 -0.0773,-14.44593 0.75265,-28.83785 1.64531,-43.24785 0.945184,-16.36099 2.640912,-32.65932 3.527792,-49.0269 0.674314,-13.7999 0.809718,-27.61718 0.875349,-41.43081 0.210686,-10.4082 -1.266155,-20.74919 -2.080069,-31.10786 -0.174193,-6.10707 -0.773687,-12.05667 -2.103448,-18.01082 -1.031804,-3.77824 -0.951194,-7.74812 -1.831624,-11.53696 -1.21504,-3.45657 -1.86709,-7.05068 -2.29747,-10.67711 -0.59664,-2.87383 0.24538,-3.91879 3.04414,-4.47327 5.197817,-0.41814 10.247135,1.20172 15.381191,1.85146 7.613972,0.72739 15.271982,0.75696 22.913607,0.81961 11.042426,1.0657 22.088673,1.91484 33.174113,2.36969 14.315271,0.0442 28.57427872,0.88429 42.8524,1.81648 14.41002,1.39141 28.786559,0.90741 43.203729,0.16902 14.524877,-0.35504 28.958656,-1.99465 43.43563,-3.08292 12.52317,-0.585 25.03088,-1.55124 37.4506,-3.28227 10.80785,-1.42516 21.56945,-3.1527 32.36963,-4.6272 10.23309,-0.84843 20.37249,-2.47166 30.5777,-3.57137 8.33649,-1.42814 16.67999,-2.75966 25.10553,-3.52584 5.64824,-0.22727 11.15174,-1.63945 16.69836,-2.61963 2.94564,-0.4934 5.92607,-0.68381 8.90713,-0.78305 1.87521,0.16322 5.51063,-1.41108 5.34565,1.06318 -0.52827,3.57052 -0.66838,7.15614 -0.32316,10.74351 1.32156,9.38357 1.73667,18.84956 2.04292,28.30964 0.73328,13.06462 -0.0268,26.07282 -0.95662,39.09821 -0.7234,12.18617 -1.68649,24.40549 -1.13039,36.6141 1.01692,9.22637 1.13812,18.56313 2.42757,27.75409 1.05128,5.77257 1.98138,11.56291 2.56208,17.40245 0.18808,1.89311 0.32715,3.78843 0.33995,5.69065 0.0456,1.93422 3.54102,1.70162 4.90603,1.79501 0.63569,0.0225 1.2712,0.0511 1.90707,0.0676 2.11163,0.0548 4.22498,0.061 6.33718,0.0644 3.09916,0.005 2.77962,0.004 1.74309,-0.003 5.08766,-0.062 10.40846,0.40069 15.12505,2.44465 3.5902,2.46508 -0.43971,5.70119 -2.40382,7.76483 -6.12468,5.91279 -13.86799,9.54344 -21.26734,13.56182 -8.68121,4.50179 -16.60874,10.16754 -24.62814,15.70836 -3.30804,3.28365 -10.46591,5.77997 -10.77057,11.0936 2.38123,3.54041 7.6417,4.52102 11.57132,5.31436 7.4714,1.9734 15.14138,2.90657 22.70811,4.42668 6.20013,0.80509 12.17715,2.53296 18.20362,4.12148 4.81466,1.99832 3.99508,3.49144 0.86125,6.78924 -5.7677,4.97824 -12.93663,7.88515 -19.94956,10.64123 -7.17982,2.99226 -14.6334,5.30038 -22.0289,7.70664 -1.26327,0.94269 -8.54709,0.92724 -8.18982,3.30318 2.44431,2.52958 5.89177,3.76552 8.96356,5.36426 5.84543,2.87316 11.80665,5.50852 17.97424,7.61935 6.15075,1.53333 12.0416,3.86 17.97618,6.04885 2.17984,1.17925 7.4283,0.69062 7.99073,3.77839 -1.91046,3.39106 -7.00026,4.41501 -10.47299,5.40531 -6.2196,1.15935 -12.44628,2.17906 -18.66268,3.38632 -3.91559,1.48304 -8.76391,0.23073 -12.56391,1.86658 -0.99677,1.69789 2.33591,4.35665 3.30491,5.73981 2.25657,3.12947 5.16664,5.44108 8.3292,7.6005 2.6029,2.57177 5.86832,4.1148 9.23951,5.40112 1.69808,0.42033 2.19101,0.72517 2.3645,2.49746 0.0912,3.22671 0.0332,6.45613 0.009,9.68365 -0.002,4.15655 1.4024,8.15225 2.03082,12.25011 0.60433,4.46201 0.70736,8.96355 0.78028,13.45852 0.0425,4.71768 0.0212,9.43569 0.014,14.1535 0.0486,7.34176 -0.25058,14.68558 0.31905,22.00907 0.91227,9.48359 2.3969,18.91597 4.25163,28.25959 1.53023,9.28373 3.86605,18.40704 5.35802,27.69514 1.39716,7.69269 3.94228,15.07784 5.54374,22.72446 0.60734,5.72894 2.30475,11.22794 3.37649,16.86816 0.59529,3.97709 1.43728,8.06601 0.79047,12.07511 -0.76496,3.26953 -2.89155,5.55003 -5.87806,6.91157 -4.45226,1.22495 -9.16006,1.05298 -13.74004,1.08658 -8.65838,1.03767 -17.31819,1.86585 -26.03021,2.29059 -12.93476,0.49139 -25.88169,0.48618 -38.82376,0.51553 -15.70942,0.0167 -31.41886,0.003 -47.12829,-0.004 -13.94589,-0.49052 -27.81178,0.36463 -41.71378,1.27712 -13.07917,0.90402 -26.184083,1.27759 -39.290135,1.47665 -10.649339,-0.36229 -21.213747,0.90089 -31.798281,1.82523 -9.336527,0.66352 -18.562261,2.28303 -27.883058,3.15268 -8.203223,0.66681 -16.4352778,0.77811 -24.6607184,0.84431 -6.1951356,0.56145 -12.3215696,1.66314 -18.5060316,2.33033 -4.528664,0.42878 -9.079453,0.49677 -13.624772,0.53095 -4.577234,0.019 -9.154527,0.006 -13.731774,-0.003 -3.327015,-0.006 -6.654036,-0.007 -9.981056,-0.008 -3.447026,-3.7e-4 -6.891615,-3.2e-4 -7.707046,-2.4e-4 -3.455887,5e-5 -6.911773,1.7e-4 -10.367659,4e-5 -4.233189,-0.2805 -8.891363,-0.66933 -12.43566,-3.23914 -1.890506,-2.41141 -1.956581,-5.62468 -2.079944,-8.56327 -0.06625,-4.85831 -0.0023,-9.71763 0.01871,-14.57618 0.02867,-7.39214 0.03561,-14.78434 0.03753,-22.17653 0.0052,-7.32618 6.34e-4,-14.65237 -0.0019,-21.97856 0.401133,-6.0134 -0.306034,-11.86032 -1.296369,-17.76857 -0.860721,-5.71068 -1.163506,-11.43511 -2.282399,-17.10431 -1.46385,-6.31374 -1.359239,-12.8304 -2.311293,-19.20771 -1.126474,-5.65971 -1.920504,-11.37001 -2.388714,-17.11995 -0.20223,-4.74692 -1.65391,-9.31806 -2.39303,-13.99667 -0.58666,-3.66371 -0.70183,-7.37338 -0.76839,-11.07541 0.0239,-3.24716 0.21023,-6.36958 -0.82534,-9.47441 -1.24967,-3.19615 -1.59535,-6.55983 -1.84585,-9.95055 0.0959,-4.04171 -0.45742,-7.82729 -1.83517,-11.62584 -0.298,-0.92982 -0.596,-1.85964 -0.894,-2.78946 0,0 2.8168,-0.0878 2.8168,-0.0878 l 0,0 c 0.30012,0.92648 0.60023,1.85296 0.90034,2.77944 1.37452,3.82533 1.94371,7.636 1.84443,11.70287 0.24692,3.36883 0.60813,6.70662 1.84924,9.881 1.02298,3.13718 0.85401,6.28489 0.82368,9.55984 0.062,3.68877 0.1837,7.38478 0.76088,11.03592 0.744505,4.68433 2.189543,9.26453 2.391138,14.01824 0.463854,5.74391 1.253534,11.44746 2.377641,17.10128 0.943565,6.37428 0.848556,12.88541 2.315527,19.19437 1.117041,5.67205 1.419937,11.39961 2.282537,17.11239 0.99207,5.92347 1.694645,11.78719 1.292137,17.81534 -0.0022,7.32624 -0.0062,14.65247 -0.0058,21.97871 -0.0051,7.39249 -0.005,14.78501 -0.02839,22.17747 -0.01617,4.85417 -0.06996,9.70923 0.0019,14.56303 0.123019,2.84714 0.150733,6.0189 2.071225,8.30465 2.093997,1.4477 6.834045,2.04717 7.671176,2.74943 0.234386,0.19663 -0.574184,0.21143 -0.861277,0.31714 3.45564,-1.6e-4 6.911279,-1e-4 10.366918,-1.6e-4 4.434447,3.3e-4 8.868895,-5.9e-4 13.303342,6.9e-4 3.328244,5e-4 6.656491,0.001 9.984728,0.008 4.930771,0.009 3.657196,0.0171 8.138947,0.005 4.544449,-0.0305 9.094241,-0.09 13.623334,-0.50287 6.1948,-0.65156 12.329425,-1.74211 18.5274673,-2.35507 8.22650712,-0.0618 16.4595345,-0.16664 24.6647687,-0.81971 9.325289,-0.85688 18.552484,-2.4777 27.890136,-3.15319 10.591215,-0.91846 21.160062,-2.21445 31.816112,-1.84272 13.110849,-0.19414 26.220863,-0.55928 39.305033,-1.46019 15.7096,-1.03191 31.41345,-1.66723 47.16327,-1.29418 13.89306,0.005 27.78612,0.0185 41.67917,0.003 12.93372,-0.0292 25.87213,-0.0241 38.7988,-0.50651 8.70259,-0.41685 17.3578,-1.20858 26.00048,-2.30695 4.56779,-0.0295 9.24036,0.12667 13.70457,-0.97597 2.96995,-1.23835 5.08575,-3.43162 5.86349,-6.62959 0.66585,-3.96969 -0.21054,-8.03434 -0.77923,-11.97584 -1.07527,-5.63675 -2.76003,-11.13652 -3.36256,-16.86329 -1.60179,-7.64976 -4.15291,-15.03835 -5.53532,-22.73779 -1.49421,-9.2838 -3.81304,-18.40661 -5.34941,-27.68511 -1.85478,-9.35482 -3.34551,-18.79789 -4.25986,-28.29242 -0.57552,-7.33075 -0.28268,-14.68185 -0.34235,-22.03126 0.005,-4.71623 0.0211,-9.43265 -0.0209,-14.14875 -0.0664,-4.48195 -0.17626,-8.97089 -0.77778,-13.41968 -0.63697,-4.11097 -2.0455,-8.12221 -2.0386,-12.29536 0.022,-3.21706 0.0878,-6.4365 -0.0209,-9.65241 -0.17873,-1.64674 -0.81274,-1.73707 -2.33914,-2.18609 -3.36927,-1.321 -6.60314,-2.9222 -9.23601,-5.46832 -3.16234,-2.19856 -6.08869,-4.53516 -8.3417,-7.69925 -1.13839,-1.58849 -4.45951,-4.16034 -3.30169,-6.23246 3.6213,-1.93754 8.76524,-0.34445 12.60073,-1.93588 6.21638,-1.19871 12.42979,-2.2651 18.65945,-3.36298 3.44285,-0.95929 8.18832,-1.9523 10.41712,-4.98635 -0.59031,-2.781 -6.02245,-2.28117 -7.94181,-3.49102 -5.92864,-2.19481 -11.82687,-4.48402 -17.96593,-6.04381 -6.16751,-2.13804 -12.14148,-4.77104 -17.99119,-7.65879 -3.1138,-1.60414 -6.75439,-2.84375 -9.00649,-5.64167 -0.24368,-3.04628 6.48396,-2.58929 8.24569,-3.68689 7.4036,-2.3864 14.85666,-4.70964 22.04253,-7.688 6.99038,-2.72625 14.13023,-5.61336 19.90927,-10.52263 3.08111,-3.18729 3.89958,-4.30799 -0.84413,-6.20338 -6.015,-1.59578 -11.99174,-3.28296 -18.17823,-4.10771 -7.57081,-1.51718 -15.24417,-2.45671 -22.72058,-4.42649 -4.00362,-0.84334 -9.44667,-1.86706 -11.61847,-5.71472 0.32213,-5.48312 7.33835,-7.99457 10.82165,-11.34744 8.03615,-5.52962 15.94887,-11.23335 24.63935,-15.73701 7.37498,-4.00657 15.10165,-7.61015 21.22773,-13.4777 1.81133,-1.89446 5.93047,-5.00096 2.40438,-7.21824 -3.53862,-1.43525 -7.01868,-2.2101 -9.51981,-2.33471 -5.19372,0.004 -10.39226,0.0648 -15.5829,-0.14775 -1.55467,-0.12443 -4.95991,0.007 -4.94974,-2.21601 -0.0121,-1.89288 -0.14239,-3.78034 -0.32107,-5.66482 -0.56618,-5.83635 -1.49644,-11.62187 -2.53782,-17.3913 -1.2747,-9.20123 -1.39738,-18.54482 -2.40608,-27.78043 -0.54236,-12.22009 0.41409,-24.44939 1.14502,-36.64634 0.92931,-13.01555 1.69193,-26.01492 0.94653,-39.06938 -0.31343,-9.45483 -0.74144,-18.91574 -2.08346,-28.2915 -0.35162,-3.60254 -0.22255,-7.20365 0.29173,-10.79217 0.003,-0.034 0.12639,-0.51654 -0.071,-0.58849 -0.1277,-0.0465 -0.54347,-0.009 -0.40758,-0.0116 3.945,-0.0826 1.60339,-0.003 0.79499,-0.005 -2.98337,0.0864 -5.96667,0.2624 -8.91666,0.7407 -5.55713,0.9699 -11.06646,2.40605 -16.7213,2.64029 -8.43237,0.74913 -16.78519,2.05952 -25.12212,3.51855 -10.20861,1.08743 -20.3466,2.73204 -30.58342,3.56251 -10.80385,1.46445 -21.565,3.20885 -32.37647,4.62502 -12.42196,1.75565 -24.93803,2.71744 -37.46669,3.29802 -14.481226,1.08086 -28.917185,2.73613 -43.445879,3.08791 -16.222718,0.83525 -32.439144,1.25521 -48.651472,-0.17272 -14.2827703,-0.93276 -28.54781,-1.7466 -42.867005,-1.80756 -11.093296,-0.46101 -22.144972,-1.33593 -33.198987,-2.35653 -7.650585,-0.0648 -15.318773,-0.0959 -22.939689,-0.84952 -0.971126,-0.12614 -9.031771,-1.15294 -9.426051,-1.71718 -0.240727,-0.34449 1.622088,-0.10135 1.233436,-0.26127 -0.490156,-0.20169 -1.05722,0.0775 -1.58583,0.11627 -2.748413,0.43484 -3.611903,1.17196 -3.021943,4.04517 0.42529,3.61782 1.09287,7.1957 2.293522,10.64628 0.867924,3.79313 0.803123,7.75805 1.825606,11.5392 1.325429,5.96731 1.910292,11.93258 2.074954,18.05093 0.806123,10.36659 2.277517,20.71544 2.058787,31.13106 -0.07237,13.81832 -0.220549,27.64003 -0.901162,41.44429 -0.886081,16.36827 -2.59043,32.66668 -3.525489,49.02899 -0.885953,14.40732 -1.708463,28.79676 -1.62325,43.23959 -0.322376,10.35754 -0.719838,20.73371 -2.168478,31.00745 0,0 -2.82466,-0.0401 -2.82466,-0.0401 z" />
    <path
       style="fill:#000000;fill-opacity:1;stroke:#000000;stroke-width:3;stroke-miterlimit:4;stroke-opacity:1;stroke-dasharray:none"
       id="path3028"
       d="m 249.21885,268.64533 c 8.54469,-2.28902 17.15774,-4.30307 25.73705,-6.45886 10.33081,-2.31793 20.84246,-3.86444 31.33393,-5.28171 13.26878,-1.12952 26.55053,-2.09061 39.82953,-3.13687 15.19477,-1.11037 30.43209,-1.37921 45.66088,-1.55186 13.09396,-0.11301 26.18855,-0.10114 39.28287,-0.093 6.98684,0.006 13.97369,0.0134 20.96053,0.0162 4.41855,-0.22193 8.14628,0.76272 10.45933,4.6658 2.31373,7.12207 1.77364,14.95023 1.8322,22.3548 0.0216,17.23364 -0.0417,34.46729 -0.0647,51.70092 -0.0265,19.70307 -0.0285,39.40617 -0.0223,59.10926 0.008,12.14382 0.0108,24.28765 0.0303,36.43146 0.003,3.98612 0.0146,7.97223 0.02,11.95835 -0.63747,3.53038 -3.71309,4.95747 -6.52511,6.6577 -5.14417,2.48139 -10.47021,4.60049 -15.7368,6.82086 -5.80824,2.60476 -11.47289,5.50635 -17.21954,8.23983 -1.84459,1.44837 -10.02226,4.15113 -8.18905,7.54378 5.50341,2.17571 12.09162,1.61078 17.9364,1.69038 10.26043,0.0376 20.50528,-0.18551 30.72878,0.83121 3.77614,0.78891 12.89515,0.175 15.15388,4.0184 -1.72189,4.14775 -10.5449,6.48437 -14.43405,7.92289 -10.2498,3.72961 -20.58887,7.16251 -30.79863,11.00286 -4.70138,2.38633 -13.71076,3.07082 -16.09687,8.5374 1.14193,5.67752 8.403,7.2729 13.09051,8.89826 9.84114,2.54754 19.8491,4.36042 29.73298,6.75457 4.51098,1.52698 13.38033,2.19491 16.77822,5.78676 0.38791,3.17805 -10.80877,4.42738 -12.90024,4.78958 -10.55507,1.28909 -21.05576,3.05067 -31.40751,5.48468 -6.52778,2.12311 -15.08337,2.05763 -20.03601,7.46012 0.0806,4.67218 7.3508,5.9339 10.86462,6.78549 8.42416,1.19607 16.8795,1.61656 25.2226,3.38303 6.07306,1.69188 12.43679,2.24539 18.3342,4.50713 3.18254,1.17186 3.64748,3.23879 1.23146,5.46023 -2.86504,2.04063 -5.86294,3.85342 -8.83812,5.72187 -2.74787,1.71637 -5.94451,2.36715 -8.46572,4.4528 -2.08772,2.57658 -2.46328,5.76528 -2.67902,8.95598 -0.16843,5.15943 -0.10168,10.32391 -0.0869,15.48531 0.42988,7.69799 -0.89604,15.29442 -1.69006,22.92188 -0.88047,8.96788 -0.99111,17.98583 -1.09891,26.98881 -0.0806,10.02159 -0.0638,20.04365 -0.0535,30.06547 -0.067,9.23113 1.31552,18.39816 2.08779,27.58523 0.51158,7.51468 0.44248,15.0112 1.60275,22.46172 1.06684,5.75308 1.56713,11.57593 1.88103,17.41089 0.28789,3.95012 0.49223,7.71705 -1.43801,11.27632 -2.62871,3.14674 -6.3655,3.56753 -10.20711,3.90365 -8.67165,0.0988 -17.29666,0.32434 -25.94693,0.9849 -16.75671,2.38187 -33.44727,4.87594 -50.33295,6.21703 -15.6107,-0.15444 -8.22957,0.39533 -22.16205,-1.37613 0,0 2.69623,-0.39258 2.69623,-0.39258 l 0,0 c 12.14929,1.50692 6.55315,1.15696 16.76592,1.36291 16.87219,-1.3292 33.55077,-3.79636 50.28674,-6.2246 8.63382,-0.66764 17.24003,-0.93458 25.89757,-0.99039 3.77733,-0.30179 7.49394,-0.62489 10.17165,-3.62811 1.97059,-3.48188 1.70505,-7.22799 1.44545,-11.11808 -0.30271,-5.82601 -0.81233,-11.63809 -1.87051,-17.3825 -1.15319,-7.45804 -1.07721,-14.96077 -1.59077,-22.48166 -0.76469,-9.19539 -2.14815,-18.36966 -2.08065,-27.60842 -0.003,-10.02298 -0.0204,-20.04618 0.0537,-30.06896 0.1059,-9.01125 0.21256,-18.03814 1.09044,-27.01446 0.78704,-7.61781 2.11845,-15.20434 1.67796,-22.892 -0.0191,-5.16796 -0.0947,-10.33881 0.068,-15.50506 0.21403,-3.2654 0.61649,-6.50629 2.68593,-9.18226 2.48327,-2.17749 5.68445,-2.81642 8.47421,-4.49405 2.97679,-1.84673 5.93518,-3.69291 8.82836,-5.67612 2.46087,-2.0695 1.77786,-3.77891 -1.21229,-4.87861 -5.89579,-2.21019 -12.24369,-2.78336 -18.29944,-4.4674 -8.35172,-1.73222 -16.81604,-2.13572 -25.23448,-3.39141 -3.78649,-0.95071 -11.01184,-2.32046 -10.90686,-7.36479 4.87345,-5.56103 13.54099,-5.50799 20.10465,-7.62479 10.3423,-2.45445 20.84081,-4.22456 31.3923,-5.50428 1.85792,-0.31575 11.72296,-1.69355 12.9134,-3.41922 0.14402,-0.20876 -0.0472,-0.50503 -0.0709,-0.75755 -3.85758,-3.7032 -11.89507,-3.90814 -16.71266,-5.63736 -9.88987,-2.39609 -19.91265,-4.18159 -29.74774,-6.78002 -4.86272,-1.6958 -12.1554,-3.40346 -13.14339,-9.35684 2.29306,-5.63098 11.36144,-6.39753 16.1636,-8.76122 10.2098,-3.83366 20.54021,-7.28183 30.78952,-11.00586 3.93969,-1.44403 12.09911,-3.66191 14.37205,-7.42356 -2.44811,-3.61173 -11.33219,-2.94571 -15.07966,-3.76789 -10.22357,-0.99979 -20.44521,-0.84326 -30.72563,-0.80784 -5.77239,-0.0822 -12.76728,0.68366 -18.01644,-1.99816 -1.66953,-3.97276 5.93543,-6.24481 8.23321,-7.9862 5.75488,-2.72058 11.413,-5.6397 17.21968,-8.25248 5.26205,-2.20732 10.56105,-4.35931 15.72233,-6.78102 2.71574,-1.6443 5.81523,-2.96596 6.49383,-6.36805 0.005,-3.98611 0.0161,-7.97222 0.0192,-11.95835 0.0189,-12.14382 0.0214,-24.28767 0.0332,-36.43151 0.0132,-19.70318 0.0225,-39.40637 0.0401,-59.10955 0.019,-17.23266 0.0602,-34.46548 0.005,-51.69809 -0.0735,-7.35082 0.46294,-15.14516 -1.87808,-22.20322 -2.34266,-3.78586 -6.1188,-4.5804 -10.41896,-4.37862 -6.97709,-0.005 -13.95417,-0.0122 -20.93125,-0.0208 -11.26726,-0.009 -22.5347,-0.013 -33.80165,0.0847 -15.22653,0.16918 -30.46169,0.43093 -45.65468,1.53403 -13.27117,1.04228 -26.5422,2.02635 -39.80546,3.12495 -10.48629,1.4052 -20.98899,2.96243 -31.31834,5.25201 -8.56337,2.16534 -17.16614,4.16406 -25.70011,6.44244 0,0 -2.80632,-0.35236 -2.80632,-0.35236 z" />
    <path
       style="fill:#000000;fill-opacity:1;stroke:#000000;stroke-width:3;stroke-miterlimit:4;stroke-opacity:1;stroke-dasharray:none"
       id="path3030"
       d="m 463.78759,252.1412 c 9.9467,0.24852 19.83531,-1.00592 29.74977,-1.70753 12.80117,-0.42854 25.5254,-1.88052 38.29276,-2.81834 13.09133,-1.52984 26.19846,-2.79923 39.36116,-3.49412 10.82093,-0.48406 21.65423,-0.54733 32.48404,-0.57735 8.06495,-0.0118 16.12991,0.004 24.19485,0.0162 4.38492,0.006 8.76984,0.008 13.15475,0.009 4.96847,0.001 4.11256,-2.5e-4 7.34732,-2.6e-4 1.41008,-1.2e-4 2.82015,-5.7e-4 4.23023,-0.001 0.38068,-4.8e-4 0.76135,9e-5 1.14202,1.9e-4 3.04081,0.34626 4.51528,0.81356 4.83253,3.62836 0.0137,2.18388 -1.19864,4.28197 -2.05158,6.27124 -0.75276,2.24435 -0.76065,4.6302 -0.81473,6.97068 0.33024,3.93117 -0.90419,7.64765 -1.7432,11.43266 -0.73196,3.64107 -0.97327,7.34544 -1.08583,11.049 -0.078,3.69052 -0.0569,7.38221 -0.053,11.0733 -0.13204,3.55716 0.35583,7.16447 -0.32678,10.6709 -0.57907,1.20527 -0.7507,3.43985 -1.99892,4.23126 0,0 -2.82724,-0.38606 -2.82724,-0.38606 l 0,0 c 0.93527,-0.80557 1.62452,-2.47388 1.99292,-3.90062 0.70209,-3.48222 0.17825,-7.07921 0.32938,-10.61504 -0.008,-3.69401 -0.0276,-7.38877 0.0514,-11.08218 0.10876,-3.72173 0.35838,-7.44254 1.08771,-11.10217 0.83131,-3.76802 2.07659,-7.46346 1.73746,-11.37725 0.0491,-2.37757 0.0624,-4.79559 0.80811,-7.08023 0.84012,-1.93903 2.04184,-3.99943 2.04617,-6.12282 -0.28516,-2.41958 -2.72048,-2.48562 0.8314,-3.21505 -0.37977,1.1e-4 -0.75955,6.6e-4 -1.13932,2.3e-4 -1.41499,-6.4e-4 -2.82999,-10e-4 -4.24498,-10e-4 -4.31587,2e-4 -8.63174,-6.6e-4 -12.94761,-9.6e-4 -4.38161,-0.001 -8.76321,-0.004 -13.1448,-0.011 -6.21658,-0.0102 -12.43316,-0.028 -18.64975,-0.0209 -10.83484,0.0275 -21.67314,0.085 -32.49943,0.56096 -13.16483,0.68416 -26.27583,1.93481 -39.36645,3.48751 -12.76579,0.9308 -25.48611,2.39973 -38.28551,2.82016 -11.74892,0.82677 -23.48853,2.08543 -35.28537,1.73452 0,0 2.79049,-0.44197 2.79049,-0.44197 z" />
    <path
       style="fill:#000000;fill-opacity:1;stroke:#000000;stroke-width:3;stroke-miterlimit:4;stroke-opacity:1;stroke-dasharray:none"
       id="path3032"
       d="m 626.36171,337.21676 c 8.77485,-2.16174 17.48988,-4.54854 26.20951,-6.92783 9.69686,-2.12221 19.23675,-4.87374 28.92866,-7.00923 7.27195,-1.5914 14.68407,-2.2262 22.10628,-2.50968 4.56538,-0.12782 9.13402,-0.14261 13.70079,-0.0939 1.41508,-0.0288 4.10825,0.3376 -2.21701,-0.33572 0,0 2.83877,-0.19522 2.83877,-0.19522 l 0,0 c -1.87822,0.82082 -1.89411,1.0648 -3.43293,0.9732 -2.05861,-0.0207 -3.38368,-0.0324 -8.10716,0.0817 -7.42568,0.26859 -14.84326,0.87972 -22.12165,2.45676 -9.69475,2.11887 -19.22796,4.88994 -28.92776,6.99523 -8.70819,2.37134 -17.40308,4.78167 -26.17119,6.917 0,0 -2.80631,-0.35236 -2.80631,-0.35236 z" />
    <path
       style="fill:#000000;fill-opacity:1;stroke:#000000;stroke-width:3;stroke-miterlimit:4;stroke-opacity:1;stroke-dasharray:none"
       id="path3034"
       d="m 574.93314,400.07391 c 9.4125,-2.70793 19.14223,-4.3019 28.82731,-5.70302 13.43842,-2.05072 26.88097,-4.1316 40.37525,-5.785 12.94036,-1.36235 25.81143,-3.18787 38.79187,-4.16385 11.63399,-1.4366 23.20998,-2.92849 34.94097,-2.871 7.58303,0.43014 15.13461,1.24383 22.71763,1.67961 3.8692,-0.0459 7.56204,0.3301 11.01955,2.13485 0.50647,0.2501 0.91027,0.60449 1.29038,1.00533 0,0 -2.84734,0.20581 -2.84734,0.20581 l 0,0 c -0.38844,-0.34896 -0.79528,-0.6672 -1.27023,-0.89941 -3.45552,-1.72932 -7.14547,-2.03607 -10.97497,-2.02241 -7.57412,-0.44566 -15.11743,-1.2679 -22.69405,-1.66956 -9.8507,-0.2739 -19.6383,2.21321 -29.43631,2.85069 -12.98533,0.96303 -25.8594,2.78567 -38.80316,4.14902 -13.49112,1.64204 -26.92891,3.72764 -40.36225,5.78085 -9.66501,1.38672 -19.37111,2.9832 -28.76834,5.66044 0,0 -2.80631,-0.35235 -2.80631,-0.35235 z" />
    <path
       style="fill:#000000;fill-opacity:1;stroke:#000000;stroke-width:3;stroke-miterlimit:4;stroke-opacity:1;stroke-dasharray:none"
       id="path3036"
       d="m 675.35628,409.06028 c -0.7685,8.05043 -2.0515,15.99201 -3.49693,23.9428 -1.20671,5.8238 -3.26872,11.34592 -5.43351,16.85895 -1.06049,3.63108 -2.95946,6.91597 -4.16301,10.49166 -0.34705,1.10262 -0.66048,2.2178 -0.86049,3.35687 -0.14919,-0.0425 2.97218,-0.0735 2.85059,-0.0767 -0.65079,-0.0171 -3.37681,0.006 0.0272,-0.0161 6.68005,-0.41152 13.23738,0.88874 19.82973,1.69579 7.12522,0.97962 14.35099,0.56664 21.47467,1.43414 3.84821,1.01699 8.40727,0.63036 11.68347,3.13197 1.0466,2.65854 -3.38734,3.75092 -5.10895,4.54163 -6.72331,2.25291 -13.22557,5.06356 -19.81205,7.66703 -7.90804,3.23112 -15.54366,7.09523 -23.50765,10.18584 -3.38913,1.72551 -8.48094,1.57912 -11.05129,4.73031 3.17907,1.48292 8.07035,0.81907 11.54829,0.86271 7.68186,0.0475 15.36394,0.0194 23.04588,0.009 6.80147,-0.009 13.60295,-0.0157 20.40443,-0.02 5.39447,0.001 7.53795,1.17683 3.31158,4.74598 -4.54737,3.13695 -9.71689,4.99952 -14.90848,6.75653 -8.16075,2.34939 -16.45815,4.11149 -24.74939,5.92918 -9.93748,1.51146 -19.82279,3.1631 -29.63493,5.3611 -3.98584,1.68749 -13.63226,0.8923 -16.19127,4.6715 -0.13687,3.09512 4.73593,3.28427 6.98677,3.60787 3.77881,1.07261 7.50778,2.22144 11.40765,2.75669 3.51128,1.13471 7.03125,2.1852 10.40409,3.6869 3.77228,1.6019 7.87071,2.0515 11.92029,2.32852 3.63373,0.17246 7.27285,0.18671 10.90996,0.18587 0.30936,-7e-5 -0.61872,-0.002 -0.92809,-0.002 3.14537,-0.26485 5.19951,-0.0197 8.08871,1.21156 -0.60818,4.43949 -1.84947,8.71631 -3.47883,12.88029 -2.4317,5.77015 -4.67532,11.61177 -6.99331,17.43104 -1.37933,3.31488 -2.36265,6.7823 -3.07792,10.29691 -0.12895,0.71866 0.0687,0.47792 -0.51479,0.7798 0,0 -2.81948,-0.42827 -2.81948,-0.42827 l 0,0 c 0.56228,0.2392 0.35857,0.29996 0.4891,-0.40923 0.73303,-3.52916 1.71905,-7.01576 3.10841,-10.34593 2.31678,-5.8191 4.56533,-11.65797 6.99088,-17.42969 1.6219,-4.12336 2.84389,-8.35849 3.4525,-12.75617 6.22464,-1.82392 -0.70442,-0.32665 -2.44784,-0.78759 -5.19199,0.002 -10.38887,0.0501 -15.57644,-0.20353 -4.06202,-0.29923 -8.16466,-0.78493 -11.93661,-2.42494 -3.36534,-1.47688 -6.87943,-2.54131 -10.39312,-3.60963 -3.8937,-0.56794 -7.61391,-1.75047 -11.40833,-2.75888 -2.52305,-0.39258 -7.29194,-0.70969 -7.02028,-4.16963 2.39149,-4.00767 12.22029,-3.25061 16.26092,-4.88703 9.81097,-2.20013 19.68889,-3.8883 29.63224,-5.3629 8.28464,-1.80934 16.56952,-3.58237 24.72929,-5.90084 5.17476,-1.73503 10.31507,-3.584 14.8737,-6.65563 0.53947,-0.44095 3.16373,-2.14541 2.01614,-3.30655 -0.24362,-0.2465 -1.0673,-0.11351 -0.94336,-0.43717 0.15129,-0.39509 0.82016,-0.20801 1.23024,-0.31201 -6.81062,0.002 -13.62123,0.007 -20.43184,0.0154 -9.52889,0.0129 -19.05797,0.044 -28.58677,-0.0103 -2.37082,-0.0318 -10.25942,0.78756 -11.61158,-1.48594 2.43394,-3.32564 7.70086,-3.18519 11.10633,-4.8801 7.97697,-3.06258 15.60901,-6.93969 23.51346,-10.18315 6.58114,-2.5865 13.05523,-5.445 19.78293,-7.65429 1.38107,-0.64066 5.98066,-1.73829 5.08901,-3.95499 -3.31196,-2.35768 -7.83064,-1.98218 -11.63595,-2.99016 -7.1287,-0.81599 -14.34978,-0.45393 -21.47392,-1.43567 -5.05712,-0.62679 -9.40474,-1.83557 -14.24598,-1.65958 -2.71331,0.0192 -6.04978,0.64311 -8.53452,-0.39279 0.20449,-1.15568 0.52548,-2.2865 0.87828,-3.40524 1.20403,-3.58332 3.11148,-6.86819 4.17537,-10.50562 2.17046,-5.49403 4.23889,-10.99688 5.4515,-16.80351 1.45104,-7.94568 2.75305,-15.88029 3.47866,-23.9323 0,0 2.82466,0.0401 2.82466,0.0401 z" />
    <path
       style="fill:#000000;fill-opacity:1;stroke:#000000;stroke-width:3;stroke-miterlimit:4;stroke-opacity:1;stroke-dasharray:none"
       id="path3038"
       d="m 663.50695,254.67936 c 7.25493,-1.08356 14.54234,-1.63911 21.75308,-3.00293 7.47881,-1.59485 15.12144,-1.95596 22.73882,-2.21991 10.18151,-0.24085 20.36723,-0.19804 30.55082,-0.19651 7.81414,-0.055 15.59316,-1.32479 23.38833,-2.03666 7.11714,-0.57378 14.25821,-0.71342 21.39486,-0.78893 6.81521,-0.0439 13.63064,-0.0267 20.44594,-0.0187 4.65378,0.006 9.30757,0.009 13.96136,0.0102 0.21697,7e-4 11.6026,5e-5 7.07224,3.2e-4 3.9391,-0.42526 7.40338,0.99876 11.04836,2.11189 2.24172,0.39582 2.47602,1.75823 2.66248,3.825 1.03293,5.97652 1.50116,11.84714 1.31507,17.93561 -0.23913,11.93222 -1.35334,23.79355 -2.42159,35.67116 -1.66498,11.64179 -3.14796,23.29637 -3.98973,35.0282 -0.96597,7.29876 -2.21469,14.54768 -2.96138,21.87474 -0.72987,3.58736 -1.85133,7.08154 -2.83585,10.60581 -0.33163,1.96304 -2.37127,2.55443 -3.88133,3.58315 -2.93381,2.18818 -6.29591,3.70931 -9.35695,5.69096 -1.79093,1.3322 -5.64348,3.0236 -5.74655,5.65058 3.16872,1.00335 6.66666,1.63907 9.98964,2.23796 6.38257,1.02055 12.84855,1.27665 19.29947,1.42972 6.18033,0.68239 12.29637,1.81633 18.48349,2.44323 2.17974,0.44359 7.39668,1.57498 5.82302,4.85114 -3.64327,3.4364 -8.76571,4.64562 -13.4073,6.12975 -8.53102,2.91017 -17.03332,5.90596 -25.59163,8.73556 -5.07178,2.04985 -11.84841,2.53974 -15.80012,6.67057 -0.52954,3.17141 4.34311,4.17099 6.55123,4.6315 5.8457,1.7258 11.84224,2.69938 17.89691,3.28079 4.91886,-0.0236 9.62968,1.27612 14.40746,2.2481 3.86766,0.23912 7.41458,1.6744 11.06795,2.81394 3.36632,1.52339 4.7373,3.52274 1.73713,6.19474 -4.403,2.59237 -9.40304,3.93702 -14.18279,5.6573 -6.49992,1.98567 -13.11033,3.61472 -19.58112,5.69848 -3.9657,2.05486 -9.27556,1.64251 -12.8438,4.41511 -0.30338,2.85427 2.94167,3.73075 5.14057,4.24391 3.37224,1.71141 7.20063,2.05972 10.68039,3.39783 2.80336,1.33194 5.9318,1.66308 8.42896,3.54899 2.12402,1.81246 -0.41559,4.04176 -1.85954,5.32184 -3.27746,1.92631 -6.47316,4.00593 -9.32566,6.52738 -2.50644,2.30587 -3.91561,5.28493 -3.63689,8.69174 0.8287,3.38769 1.5748,6.76942 1.97543,10.23889 0.35593,4.28352 0.36587,8.58722 0.38624,12.88275 0.0906,4.67844 -1.38503,9.19308 -2.07802,13.79368 -1.19063,4.33725 -2.44542,8.62865 -3.12492,13.08323 -0.41741,3.95 -1.85765,7.69272 -2.61701,11.59187 -0.14662,3.69525 -1.43834,7.10616 -2.48651,10.60481 -0.78944,2.85938 -0.99217,5.81411 -1.10383,8.76309 -0.0742,2.93624 1.29963,5.69389 2.02805,8.51293 0.63839,2.81293 0.9417,5.4443 -0.0171,8.17914 -1.6137,2.93708 -4.46368,3.67332 -7.5519,4.18424 -5.03006,0.22221 -9.9294,1.397 -14.91112,2.0691 -7.21533,0.8602 -14.49166,0.97168 -21.74891,1.07306 -8.81056,0.0746 -17.62161,0.0545 -26.43238,0.0471 -7.50185,-0.008 -15.00371,-0.0115 -22.50556,-0.0135 -5.73543,-5.8e-4 -11.47086,-9.4e-4 -17.20629,-8e-5 0.19534,4e-5 0.78135,1e-4 0.58602,1.2e-4 -3.19863,2.2e-4 -6.39725,6e-4 -9.59588,6e-4 -4.98164,0.2432 -9.83197,-0.21974 -14.60083,-1.67757 -1.00283,-0.41826 -2.00565,-0.83653 -3.00847,-1.2548 0,0 2.79422,-0.33119 2.79422,-0.33119 l 0,0 c 1.00346,0.40886 2.00693,0.81772 3.01039,1.22658 1.6298,0.48311 3.45592,0.44253 4.93746,1.27601 0.25319,0.14243 -1.08723,0.22604 -0.81156,0.31768 1.46139,0.48582 3.37686,-0.3604 4.87952,-7e-5 4.8669,-8e-5 9.73379,8.6e-4 14.60068,5e-4 5.72934,9.2e-4 11.45868,9.1e-4 17.18802,0.003 7.50152,0.002 15.00303,0.006 22.50455,0.0138 6.96263,0.006 13.92543,0.02 20.88787,-0.0434 7.25233,-0.0969 14.52333,-0.20136 21.73571,-1.04117 4.97876,-0.65973 9.86502,-1.86966 14.8901,-2.06545 3.01688,-0.45142 5.86386,-1.06209 7.52036,-3.88104 0.95461,-2.679 0.65464,-5.24919 0.0177,-8.01092 -0.73545,-2.8454 -2.12123,-5.62611 -2.02947,-8.5956 0.11581,-2.97284 0.31697,-5.95084 1.10787,-8.83489 1.04956,-3.48958 2.35095,-6.88788 2.49008,-10.57637 0.75346,-3.8974 2.19591,-7.6357 2.61816,-11.58036 0.67643,-4.45542 1.92505,-8.74889 3.12977,-13.08256 0.68576,-4.58787 2.16284,-9.0868 2.07555,-13.75019 -0.0225,-4.28514 -0.0262,-8.5788 -0.39167,-12.85142 -0.40514,-3.47262 -1.16449,-6.85434 -1.97775,-10.24921 -0.26747,-3.48412 1.08885,-6.56931 3.65197,-8.95199 2.82059,-2.55046 6.01623,-4.66081 9.31887,-6.53245 1.34285,-1.13539 3.90453,-3.16843 1.85728,-4.81326 -2.51044,-1.79982 -5.6496,-2.13424 -8.41198,-3.4715 -3.50424,-1.26309 -7.2796,-1.73955 -10.67748,-3.36526 -2.48949,-0.6443 -5.5639,-1.74428 -5.16168,-4.87173 3.47453,-2.94755 8.91168,-2.44213 12.88358,-4.51573 6.45894,-2.1108 13.07423,-3.71891 19.57542,-5.68956 4.75497,-1.7347 9.71794,-3.06569 14.15334,-5.55693 3.01759,-2.51588 1.50229,-4.17172 -1.72416,-5.59298 -3.64421,-1.14791 -7.20181,-2.51644 -11.05657,-2.78646 -4.7685,-0.98549 -9.48322,-2.21666 -14.39188,-2.2204 -6.05956,-0.60093 -12.0523,-1.61142 -17.91015,-3.31235 -2.51019,-0.57095 -7.2219,-1.74451 -6.58226,-5.22648 3.886,-4.25992 10.74517,-4.77074 15.85605,-6.80676 8.55838,-2.81862 17.05592,-5.81884 25.57963,-8.73959 4.61447,-1.47906 9.60612,-2.66797 13.35097,-5.91921 1.78502,-2.79292 -4.16724,-4.03239 -5.77239,-4.2955 -6.1793,-0.64467 -12.28885,-1.79147 -18.46944,-2.42309 -6.4565,-0.16065 -12.92822,-0.42898 -19.31327,-1.47215 -3.15846,-0.5836 -7.41747,-0.88011 -10.04681,-2.64025 0.11705,-2.77661 3.81115,-4.5357 5.77761,-5.91872 3.03161,-2.02028 6.42524,-3.49067 9.35146,-5.68492 1.44687,-1.01249 3.51206,-1.55453 3.86254,-3.38747 0.99565,-3.5066 2.11075,-6.98779 2.85785,-10.55673 0.76329,-7.32367 2.00616,-14.57136 2.99181,-21.8659 0.85457,-11.73301 2.34106,-23.38944 4.00977,-35.03292 1.06792,-11.87176 2.17305,-23.72768 2.39352,-35.65465 0.1767,-6.07978 -0.3125,-11.93492 -1.35719,-17.90086 -0.19767,-2.04974 -0.48504,-3.08726 -2.64076,-3.49064 -1.56405,-0.48181 -5.33894,-1.58256 -5.34832,-1.71872 -0.0309,-0.44846 1.42473,0.12522 1.31245,-0.31005 -0.11594,-0.44944 -0.92831,-9e-5 -1.39247,-1.3e-4 -4.22273,8e-5 -8.44546,2.2e-4 -12.66819,-0.002 -4.65051,-0.002 -9.30102,-0.005 -13.95152,-0.012 -4.96038,-0.006 -9.92081,-0.0201 -14.88113,0.0155 -7.1381,0.0707 -14.28062,0.20299 -21.40003,0.76531 -9.62679,0.86838 -19.23034,2.34976 -28.92401,2.05995 -8.34097,-0.007 -16.68333,-0.007 -25.02246,0.18811 -7.61075,0.25548 -15.2499,0.59453 -22.72417,2.17852 -7.20466,1.37428 -14.48041,1.94892 -21.73416,3.012 0,0 -2.80154,-0.39641 -2.80154,-0.39641 z" />
    <path
       style="fill:#000000;fill-opacity:1;stroke:#000000;stroke-width:3;stroke-miterlimit:4;stroke-opacity:1;stroke-dasharray:none"
       id="path3040"
       d="m 750.32772,591.53226 c 1.07359,6.52421 1.77697,13.09108 2.18681,19.68776 0.29668,4.86995 0.33016,9.75015 0.34734,14.62745 0.006,3.29381 -0.002,6.58763 -0.009,9.88144 -0.007,3.35991 -0.005,6.71982 -0.008,10.07973 1.9e-4,2.02702 0.003,4.05404 0.009,6.08105 0.0274,0.55862 0.0304,0.51203 -0.34665,0.99923 -1.97861,1.60837 -4.77386,2.12098 -7.15624,3.00622 -3.8131,1.11253 -7.40685,2.82153 -11.22241,3.91887 -3.28706,1.52528 -6.81344,2.47248 -9.8911,4.40307 -2.09423,3.07289 2.19198,4.02129 4.38355,4.42261 6.92701,0.78388 13.9218,0.66719 20.88275,0.68917 7.89921,0.003 15.79841,-0.0178 23.6976,-0.0299 2.77382,0.57268 13.42131,-1.92463 13.89578,1.82259 -1.12147,3.41088 -5.56886,4.58244 -8.52448,5.9062 -5.33345,2.58611 -10.94018,4.32923 -16.54963,6.17195 -3.1319,1.65267 -8.51232,1.42639 -10.36702,4.86721 -0.40095,3.16662 3.3851,5.22663 5.7003,6.65941 3.88426,2.43629 7.88256,4.74447 12.04381,6.67797 2.70181,1.53499 5.61089,3.39895 4.29962,6.80162 -2.97748,3.10785 -7.77783,4.16644 -11.81955,5.31709 -4.7375,1.23944 -9.54285,2.51741 -14.13968,4.23046 -3.34434,1.66752 -4.13591,4.06739 -1.04327,6.38493 3.83199,2.54529 8.05485,4.41672 12.02659,6.71425 3.6167,1.6212 6.23013,4.47997 7.67368,8.13246 0.9958,3.44299 0.88983,6.79211 0.003,10.21921 -0.82549,3.52964 -1.90742,6.90659 -3.22018,10.28492 -1.13074,3.16705 -1.45864,6.5256 -1.68743,9.8573 -0.7296,2.82076 -3.31099,2.96464 -5.80969,3.19602 -4.76515,0.21838 -9.54008,0.11009 -14.30906,0.0852 -6.33588,-0.033 -12.67187,-0.038 -19.00782,-0.0428 -8.72514,-0.87344 -17.4318,-1.83367 -26.18785,-2.3521 -8.69034,-0.45007 -17.39458,-0.48844 -26.09432,-0.52142 -8.07758,0.31897 -16.08526,-0.337 -24.09259,-1.30648 -7.87434,-0.97675 -15.80793,-1.26858 -23.73333,-1.44685 -6.58829,-0.10846 -13.17793,-0.12003 -19.76698,-0.10904 -7.45705,0.12671 -14.93059,-0.29408 -22.36613,0.34506 -8.11324,1.25565 -16.33043,1.52663 -24.46601,2.53301 -8.62271,1.31305 -17.30542,2.0817 -26.01087,2.54476 -7.08683,0.31861 -14.18284,0.32456 -21.27536,0.33533 -6.06147,-0.0492 -12.08183,0.40995 -18.03543,-0.86005 -3.75914,-0.55956 -7.2258,-1.71828 -10.70631,-3.18532 -3.07278,-1.07294 -5.94635,-2.76695 -8.64443,-4.58524 -3.40403,-1.72685 -6.73305,-3.59013 -10.17096,-5.25268 -5.11981,-2.2237 -10.70909,-2.41676 -15.93187,-4.2992 -0.83694,-0.59684 -1.67388,-1.19368 -2.51082,-1.79051 0,0 2.80341,-0.27015 2.80341,-0.27015 l 0,0 c 0.83443,0.57168 1.66887,1.14336 2.50331,1.71503 5.23746,1.8274 10.84631,2.0402 15.94304,4.32962 3.43828,1.68079 6.79973,3.51008 10.18559,5.29045 2.7002,1.80162 5.57283,3.45381 8.6392,4.53092 3.46874,1.45678 6.9555,2.55005 10.68985,3.13263 4.1311,0.8479 8.24432,0.94371 12.45652,0.80476 7.09436,-0.009 14.19203,-0.0115 21.28107,-0.31992 8.70621,-0.45137 17.39162,-1.202 26.01362,-2.52379 8.13056,-1.03793 16.35237,-1.26052 24.46154,-2.54389 7.43304,-0.68688 14.91004,-0.23429 22.36796,-0.36989 8.43709,-0.003 16.87513,-0.0296 25.31133,0.11569 7.92713,0.18482 15.86172,0.48892 23.73687,1.47399 2.86688,0.34714 6.11783,1.15303 8.9717,1.26772 5.02876,0.20209 10.07955,-0.14725 15.11079,0.007 8.70003,0.0346 17.40467,0.0771 26.09486,0.53714 8.75733,0.52847 17.46336,1.51532 26.19525,2.33424 6.34181,0.005 12.68366,0.008 19.0254,0.0413 4.47661,0.0225 4.19746,0.0855 8.71319,-0.0647 2.35348,-0.18321 4.9958,-0.14253 5.77587,-2.79591 0.23935,-3.35898 0.56637,-6.74547 1.69465,-9.94273 1.31583,-3.3683 2.39904,-6.72977 3.221,-10.2516 0.87783,-3.36774 0.99529,-6.65618 -0.007,-10.03902 -1.4669,-3.60039 -4.07783,-6.33804 -7.64923,-7.94431 -4.00061,-2.2691 -8.21122,-4.18646 -12.04037,-6.75444 -3.06696,-2.5231 -2.42329,-5.16439 1.06068,-6.98205 4.57903,-1.76441 9.41937,-2.99341 14.14983,-4.25412 4.00871,-1.11792 8.67286,-2.19167 11.77791,-5.06186 1.37072,-3.20593 -1.80741,-4.9655 -4.27115,-6.37286 -4.15244,-1.97036 -8.16428,-4.25877 -12.04856,-6.71198 -2.46607,-1.56854 -6.19105,-3.69419 -5.72364,-7.07841 1.74885,-3.63012 7.18492,-3.45215 10.41048,-5.08521 5.59526,-1.86202 11.22047,-3.53778 16.54022,-6.1438 2.85456,-1.28768 7.19273,-2.379 8.48289,-5.54428 -0.0342,-0.22938 0.0487,-0.5124 -0.1026,-0.68816 -0.2099,-0.24379 -1.02681,-0.15627 -0.86257,-0.43287 0.22805,-0.38405 1.73346,-0.18853 1.30362,-0.3099 -2.65922,-0.75087 -5.92873,0.64986 -8.61796,0.008 -9.74465,0.0131 -19.4893,0.0366 -29.23396,0.0286 -6.97266,-0.0235 -13.98464,0.10381 -20.91818,-0.73786 -2.55806,-0.53041 -6.49391,-1.77215 -4.40529,-5.09557 3.0768,-1.98344 6.61247,-2.91134 9.90872,-4.48406 3.82608,-1.0613 7.39958,-2.80326 11.21703,-3.89692 2.36101,-0.87151 5.10612,-1.42238 7.12525,-2.8876 0.42275,-0.28618 0.34812,-0.27393 0.33671,-0.7743 0.006,-2.02703 0.009,-4.05407 0.01,-6.08111 -0.002,-3.36006 0.002,-6.72012 0.004,-10.08017 0.004,-3.29335 0.0188,-6.58667 0.0168,-9.88003 -0.0151,-4.87176 -0.0459,-9.74603 -0.33349,-14.61095 -0.40732,-6.58732 -1.09861,-13.14798 -2.20106,-19.65847 0,0 2.82906,-0.0467 2.82906,-0.0467 z" />
    <path
       style="fill:#000000;fill-opacity:1;stroke:#000000;stroke-width:3;stroke-miterlimit:4;stroke-opacity:1;stroke-dasharray:none"
       id="path3042"
       d="m -385.41379,539.44002 c 6.26103,-5.33522 13.08172,-9.90097 20.37977,-13.67613 5.52214,-2.41772 13.50615,-5.31797 18.35512,-0.28638 3.48427,5.73475 0.80113,11.81934 -1.68612,17.38317 -4.05557,7.80564 -10.31278,14.05066 -15.63224,20.94348 -2.82108,4.43725 1.19625,1.58172 4.48321,0.58769 6.37282,-1.95062 12.97421,-2.80985 19.59115,-3.36966 4.04614,-0.1679 8.58444,-1.08556 12.0677,1.45838 1.43078,0.59247 2.34837,1.98487 3.15737,3.25435 -0.0533,0.15175 -0.10661,0.30349 -0.15991,0.45523 0,0 -2.84916,-0.13912 -2.84916,-0.13912 l 0,0 c 0.0544,-0.0511 0.10871,-0.10222 0.16306,-0.15333 -0.81475,-1.25628 -1.73513,-2.52475 -3.1456,-3.14503 -0.58554,-0.39709 -0.7886,-0.57263 -1.49657,-0.85863 -0.41204,-0.16646 -1.15705,0.009 -1.26466,-0.42192 -0.0908,-0.3638 1.4614,-0.21038 1.09152,-0.27182 -1.57222,-0.26117 -3.20948,0.51179 -4.77526,0.23982 -6.61362,0.54238 -13.21527,1.37225 -19.58772,3.3102 -2.36946,0.71734 -14.58868,5.15356 -10.08384,-1.13104 5.30962,-6.87969 11.58359,-13.08875 15.64045,-20.87665 2.4403,-5.43296 5.16813,-11.4591 1.66455,-17.04374 -3.96928,-3.85949 1.40632,1.04383 -3.27634,-2.16088 -0.11857,-0.0811 0.5049,-0.24261 0.36142,-0.23491 -3.45754,0.1857 -6.74178,1.25594 -9.8346,2.76688 -7.29485,3.73961 -14.11791,8.27793 -20.34666,13.62311 0,0 -2.81664,-0.25307 -2.81664,-0.25307 z" />
    <path
       style="fill:#000000;fill-opacity:1;stroke:#000000;stroke-width:3;stroke-miterlimit:4;stroke-opacity:1;stroke-dasharray:none"
       id="path3044"
       d="m -291.34926,579.32013 c -6.27596,-6.81719 -9.14052,-15.22116 -10.28854,-24.23235 -0.24047,-8.31343 1.15552,-16.22292 6.8157,-22.50807 6.1604,-5.10656 13.42617,-6.25412 20.97966,-3.60846 6.7264,3.40685 9.67994,9.47405 10.73296,16.65018 0.10012,6.63822 -2.80853,12.15407 -7.17925,16.92033 0,0 -2.79792,-0.20938 -2.79792,-0.20938 l 0,0 c 4.3635,-4.66643 7.25623,-10.11309 7.16999,-16.6698 -1.05355,-7.09257 -4.01676,-13.06731 -10.71834,-16.34268 -1.01477,-0.33685 -2.05657,-0.60116 -3.0443,-1.01054 -0.14844,-0.0615 -0.14079,-0.37372 -0.30146,-0.37617 -4.48537,-0.0685 -8.59629,2.21311 -12.03978,4.85399 -5.69343,6.16814 -7.04412,14.03104 -6.82171,22.26515 1.14502,8.97711 4.03186,17.31531 10.31454,24.07713 0,0 -2.82155,0.19067 -2.82155,0.19067 z" />
    <path
       style="fill:#000000;fill-opacity:1;stroke:#000000;stroke-width:3;stroke-miterlimit:4;stroke-opacity:1;stroke-dasharray:none"
       id="path3046"
       d="m 532.84121,320.46881 c -0.34502,7.20658 0.0734,14.28279 1.29057,21.37918 0.60982,3.125 1.08651,6.27514 1.48307,9.43389 0,0 -2.84706,0.0348 -2.84706,0.0348 l 0,0 c -0.37956,-3.15532 -0.85467,-6.29985 -1.45471,-9.42107 -1.2075,-7.11325 -1.59924,-14.20649 -1.29714,-21.42682 0,0 2.82527,0 2.82527,0 z" />
    <path
       style="fill:#000000;fill-opacity:1;stroke:#000000;stroke-width:3;stroke-miterlimit:4;stroke-opacity:1;stroke-dasharray:none"
       id="path3048"
       d="m 555.38656,358.90639 c -0.62366,-7.47396 0.43085,-14.8141 3.03359,-21.81712 1.86921,-4.51069 3.83938,-10.27262 9.04392,-11.63866 1.41462,0.0907 2.86211,-0.0444 4.24388,0.27202 2.47643,0.56704 4.63533,6.75784 5.3477,8.78783 1.48892,4.58972 1.20806,9.04212 -1.35381,13.13239 0,0 -2.82313,-0.16031 -2.82313,-0.16031 l 0,0 c 2.58545,-3.98851 2.82053,-8.37117 1.35158,-12.87646 -0.76619,-2.17229 -1.49192,-4.33921 -2.87452,-6.21852 -0.37812,-0.51396 -0.80427,-0.99655 -1.27262,-1.42988 -0.35626,-0.32963 -1.26701,-0.36631 -1.18594,-0.84485 0.0783,-0.46206 0.91806,-0.18893 1.37708,-0.28339 -5.2441,1.08786 -7.19662,6.93888 -9.04881,11.36011 -2.60631,6.94999 -3.66508,14.24558 -3.00986,21.67012 0,0 -2.82906,0.0467 -2.82906,0.0467 z" />
    <path
       style="fill:#000000;fill-opacity:1;stroke:#000000;stroke-width:3;stroke-miterlimit:4;stroke-opacity:1;stroke-dasharray:none"
       id="path3141"
       d="m 358.89915,5.5206873 c 1.4248,6.3698897 3.8174,12.0113967 8.69289,16.4348277 5.09877,3.665605 11.30735,3.905038 17.35004,4.196334 5.25247,0.375142 10.67707,-0.496108 15.8138,0.894435 3.24099,1.733103 3.20334,4.178288 1.92094,7.253053 -3.63755,5.564765 -8.02816,10.649611 -12.24337,15.794136 -5.14407,6.649601 -9.62001,13.795176 -14.13127,20.883042 -3.00768,4.522245 -5.53802,9.330762 -7.69898,14.307988 -0.0733,0.445804 -0.14662,0.891608 -0.21993,1.337412 0,0 -2.83825,-0.04606 -2.83825,-0.04606 l 0,0 c 0.0765,-0.469179 0.15298,-0.938358 0.22947,-1.407537 2.17644,-4.988346 4.69663,-9.822101 7.72605,-14.35086 4.52144,-7.093898 9.00424,-14.245699 14.13795,-20.91616 4.19888,-5.123077 8.53979,-10.203992 12.20721,-15.715325 1.26227,-2.940585 1.29613,-5.222235 -1.8989,-6.768456 -0.57049,-0.145241 -1.22235,-0.108146 -1.71148,-0.435724 -0.18851,-0.126243 0.83451,-0.269614 0.60996,-0.301977 -4.79101,-0.690487 -9.85477,0.504926 -14.68354,-0.101787 -6.07983,-0.313047 -12.30229,-0.613087 -17.37764,-4.389516 -4.85355,-4.512022 -7.26989,-10.206059 -8.71401,-16.6210978 0,0 2.82906,-0.046726 2.82906,-0.046726 z"
       transform="translate(-386.91379,242.0397)" />
    <path
       style="fill:#000000;fill-opacity:1;stroke:#000000;stroke-width:3;stroke-miterlimit:4;stroke-opacity:1;stroke-dasharray:none"
       id="path3143"
       d="m 338.55549,-128.3999 c 0.35409,9.15261 -0.3517,18.22589 -1.30844,27.31664 -0.36788,7.811135 -1.84944,15.466823 -3.17968,23.151592 -0.39644,2.031554 -0.65934,4.084224 -0.91228,6.137188 0,0 -2.83393,-0.03511 -2.83393,-0.03511 l 0,0 c 0.25893,-2.05752 0.5223,-4.115766 0.92964,-6.150697 1.34779,-7.676489 2.83097,-15.326489 3.20014,-23.132423 0.96421,-9.0802 1.678,-18.14424 1.27928,-27.28719 0,0 2.82527,0 2.82527,0 z"
       transform="translate(-386.91379,242.0397)" />
    <path
       style="fill:#000000;fill-opacity:1;stroke:#000000;stroke-width:3;stroke-miterlimit:4;stroke-opacity:1;stroke-dasharray:none"
       id="path3145"
       d="m 320.93045,-139.58466 c 6.73781,0.003 13.47563,0.002 20.21345,0.002 0,0 -2.76996,0.43872 -2.76996,0.43872 l 0,0 c -6.74466,-3.9e-4 -13.48932,-0.001 -20.23398,0.002 0,0 2.79049,-0.44197 2.79049,-0.44197 z"
       transform="translate(-386.91379,242.0397)" />
    <path
       style="fill:#000000;fill-opacity:1;stroke:#000000;stroke-width:3;stroke-miterlimit:4;stroke-opacity:1;stroke-dasharray:none"
       id="path3147"
       d="m 314.88231,-64.57061 c 4.49615,1.563313 9.104,2.778862 13.70567,3.986122 0,0 -2.80468,0.370418 -2.80468,0.370418 l 0,0 c -4.60126,-1.218114 -9.20657,-2.44755 -13.7073,-4.004185 0,0 2.80631,-0.352355 2.80631,-0.352355 z"
       transform="translate(-386.91379,242.0397)" />
    <path
       style="fill:#000000;fill-opacity:1;stroke:#000000;stroke-width:3;stroke-miterlimit:4;stroke-opacity:1;stroke-dasharray:none"
       id="path3149"
       d="m 378.21562,-80.146873 c -0.81369,7.335804 -2.63999,14.488165 -3.92492,21.7449 0.0748,2.521976 -3.01096,9.545659 0.2075,11.058856 0,0 -2.83016,0.294102 -2.83016,0.294102 l 0,0 c -3.12974,-2.235372 -0.19712,-8.383274 -0.18646,-11.402247 1.28735,-7.254405 3.12892,-14.402863 3.90498,-21.742336 0,0 2.82906,0.04672 2.82906,0.04672 z"
       transform="translate(-386.91379,242.0397)" />
    <path
       style="fill:#000000;fill-opacity:1;stroke:#000000;stroke-width:3;stroke-miterlimit:4;stroke-opacity:1;stroke-dasharray:none"
       id="path3151"
       d="m 611.04208,149.94881 c 3.73805,-6.31272 6.55972,-13.08525 9.73964,-19.67875 2.57984,-3.81196 4.17799,-8.13763 6.55467,-12.05 1.83113,-2.66625 4.05681,-5.18501 7.43742,-5.48686 5.19766,-0.2991 8.45986,2.22244 11.81459,5.87671 2.76602,2.87438 4.68242,6.38869 7.29841,9.37871 2.46035,2.84482 4.82075,5.77496 7.19813,8.69992 0.3132,0.38197 0.6264,0.76395 0.93959,1.14592 0,0 -2.83074,0.19436 -2.83074,0.19436 l 0,0 c -0.31196,-0.38241 -0.62392,-0.76483 -0.93587,-1.14724 -2.37094,-2.92572 -4.73834,-5.84561 -7.19566,-8.69109 -2.58133,-3.01349 -4.53386,-6.49904 -7.29601,-9.36973 -1.46588,-1.57715 -2.84717,-2.94917 -4.70964,-4.06129 -0.4814,-0.28745 -0.97967,-0.5465 -1.4817,-0.79618 -0.44141,-0.21954 -1.35061,-0.1177 -1.347,-0.61068 0.003,-0.45535 0.9019,-0.12652 1.35286,-0.18978 -3.36588,0.0487 -5.59597,2.62618 -7.41487,5.2128 -2.40079,3.8926 -3.96653,8.22821 -6.57057,12.02129 -3.19575,6.58562 -6.01533,13.35756 -9.72969,19.6829 0,0 -2.82356,-0.13101 -2.82356,-0.13101 z"
       transform="translate(-386.91379,242.0397)" />
    <path
       style="fill:#000000;fill-opacity:1;stroke:#000000;stroke-width:3;stroke-miterlimit:4;stroke-opacity:1;stroke-dasharray:none"
       id="path3153"
       d="m 684.26978,77.314385 c -0.0172,8.296529 -0.0179,16.593107 -0.01,24.889645 0.004,4.57357 0.006,9.14713 0.0122,13.72069 0,0 -2.83027,0 -2.83027,0 l 0,0 c 0.006,-4.57356 0.009,-9.14712 0.0122,-13.72069 0.008,-8.296538 0.007,-16.593116 -0.01,-24.889645 0,0 2.82527,0 2.82527,0 z"
       transform="translate(-386.91379,242.0397)" />
    <path
       style="fill:#000000;fill-opacity:1;stroke:#000000;stroke-width:3;stroke-miterlimit:4;stroke-opacity:1;stroke-dasharray:none"
       id="path3155"
       d="m 669.21885,74.062336 c 5.85044,-2.272715 12.08087,-3.15786 18.11619,-4.737771 0,0 2.79478,0.368639 2.79478,0.368639 l 0,0 c -6.01889,1.618173 -12.26551,2.42601 -18.10465,4.721487 0,0 -2.80632,-0.352355 -2.80632,-0.352355 z"
       transform="translate(-386.91379,242.0397)" />
    <path
       style="fill:#000000;fill-opacity:1;stroke:#000000;stroke-width:3;stroke-miterlimit:4;stroke-opacity:1;stroke-dasharray:none"
       id="path3157"
       d="m 683.50457,114.06234 c 3.68605,-1.30242 7.42077,-2.43372 11.19029,-3.46492 0,0 2.79768,0.36722 2.79768,0.36722 l 0,0 c -3.7685,1.02 -7.50377,2.13488 -11.18166,3.45005 0,0 -2.80631,-0.35235 -2.80631,-0.35235 z"
       transform="translate(-386.91379,242.0397)" />
    <path
       style="fill:#000000;fill-opacity:1;stroke:#000000;stroke-width:3;stroke-miterlimit:4;stroke-opacity:1;stroke-dasharray:none"
       id="path3159"
       d="m 717.44335,127.71417 c 3.69426,-2.50649 9.62125,-5.75816 13.79249,-2.25909 0.75513,3.18767 -0.0127,6.87182 -0.97831,9.96495 -0.34079,1.96342 -3.27067,5.55113 -1.14863,7.2004 0.24446,-0.0259 0.96948,-0.009 0.73339,-0.0777 -0.56217,-0.16317 -1.47274,0.30404 -1.74286,-0.21528 -0.2295,-0.44123 0.96818,-0.22819 1.45177,-0.34436 2.75425,-0.66168 4.36589,-0.66487 7.44129,-0.62277 2.12049,0.45231 4.21378,1.02273 6.29333,1.634 0.137,0.0414 0.27399,0.0829 0.41099,0.12436 0,0 -2.82819,0.36345 -2.82819,0.36345 l 0,0 c -0.1361,-0.0409 -0.27221,-0.0817 -0.40832,-0.12254 -2.06826,-0.6047 -4.14876,-1.19101 -6.27188,-1.57001 4.62768,-0.35943 -7.80964,1.74045 -7.91617,1.06572 -1.98445,-2.11222 0.63087,-5.23362 1.15488,-7.52197 0.94565,-2.95144 1.72893,-6.58172 0.97971,-9.62398 -0.32532,-0.24718 -0.65065,-0.49436 -0.97598,-0.74154 0.4886,-0.15855 1.77945,-0.0688 1.4658,-0.47564 -0.73659,-0.95532 -7.81326,2.69027 -8.63666,3.47508 0,0 -2.81665,-0.25306 -2.81665,-0.25306 z"
       transform="translate(-386.91379,242.0397)" />
    <path
       style="fill:#000000;fill-opacity:1;stroke:#000000;stroke-width:3;stroke-miterlimit:4;stroke-opacity:1;stroke-dasharray:none"
       id="path3161"
       d="m 817.1002,152.78847 c 4.32616,-6.72822 7.9408,-13.84886 11.6655,-20.91531 2.66056,-4.18231 4.65444,-8.72183 7.14463,-12.99541 1.58884,-3.09837 3.26246,-4.65853 6.74936,-4.84868 5.47155,-0.0728 9.69901,2.45677 14.01394,5.48527 3.1668,2.66242 6.3796,5.28853 9.45001,8.05267 2.98762,2.5129 6.00287,4.99996 9.06613,7.43451 1.04732,0.82931 2.09522,1.65795 3.14976,2.47807 0,0 -2.8411,0.25832 -2.8411,0.25832 l 0,0 c -1.04625,-0.82413 -2.0891,-1.65256 -3.13099,-2.48218 -3.06032,-2.44188 -6.07866,-4.92922 -9.06584,-7.4505 -3.08977,-2.73376 -6.2457,-5.40684 -9.44328,-8.0196 -1.84381,-1.28409 -3.66172,-2.50697 -5.69542,-3.47818 -0.68118,-0.3253 -1.36453,-0.64998 -2.0703,-0.91777 -0.59767,-0.22677 -1.47485,-0.0339 -1.83312,-0.56328 -0.23521,-0.34756 0.80331,-0.24326 1.20497,-0.36489 -3.49039,0.0961 -5.12365,1.42424 -6.7257,4.56614 -2.50639,4.26393 -4.49187,8.8075 -7.1651,12.98192 -3.73246,7.06987 -7.36882,14.18461 -11.65402,20.94488 0,0 -2.81943,-0.16598 -2.81943,-0.16598 z"
       transform="translate(-386.91379,242.0397)" />
    <path
       style="fill:#000000;fill-opacity:1;stroke:#000000;stroke-width:3;stroke-miterlimit:4;stroke-opacity:1;stroke-dasharray:none"
       id="path3163"
       d="m 769.98406,65.885814 c -0.0254,8.758935 -0.0153,17.517932 -0.0106,26.276891 0.003,5.929363 0.005,11.858725 0.0124,17.788085 10e-4,0.55047 0.002,1.10093 0.003,1.6514 0,0 -2.83514,0 -2.83514,0 l 0,0 c 10e-4,-0.55047 0.002,-1.10093 0.003,-1.6514 0.008,-5.92936 0.009,-11.858722 0.0125,-17.788085 0.005,-8.758959 0.0149,-17.517956 -0.0106,-26.276891 0,0 2.82527,0 2.82527,0 z"
       transform="translate(-386.91379,242.0397)" />
    <path
       style="fill:#000000;fill-opacity:1;stroke:#000000;stroke-width:3;stroke-miterlimit:4;stroke-opacity:1;stroke-dasharray:none"
       id="path3165"
       d="m 743.50457,71.205193 c 7.27549,-1.967732 14.41378,-4.396997 21.75488,-6.120604 5.18433,-1.562417 10.30889,-3.240956 15.66102,-4.129259 1.79358,-0.272466 3.59793,-0.449523 5.40889,-0.541178 0,0 2.8093,0.431781 2.8093,0.431781 l 0,0 c -1.81368,0.0743 -3.62039,0.24421 -5.41732,0.506895 -5.36377,0.852102 -10.49803,2.51282 -15.67811,4.107546 -7.33923,1.698181 -14.46352,4.136687 -21.73235,6.097175 0,0 -2.80631,-0.352356 -2.80631,-0.352356 z"
       transform="translate(-386.91379,242.0397)" />
    <path
       style="fill:#000000;fill-opacity:1;stroke:#000000;stroke-width:3;stroke-miterlimit:4;stroke-opacity:1;stroke-dasharray:none"
       id="path3167"
       d="m 763.50457,114.06234 c 6.73316,-2.42675 13.04222,-5.79572 19.68513,-8.43983 2.93415,-1.01447 5.93905,-1.86072 9.0094,-2.343 1.68843,-0.14759 3.39359,-0.0706 5.08305,-0.067 0,0 -2.81119,0.44216 -2.81119,0.44216 l 0,0 c 4.0842,-0.0218 1.41611,-0.0269 0.54857,0.0289 -3.07976,0.43444 -6.08767,1.29054 -9.03212,2.27452 -6.65298,2.62244 -12.96167,5.98335 -19.67653,8.45663 0,0 -2.80631,-0.35235 -2.80631,-0.35235 z"
       transform="translate(-386.91379,242.0397)" />
    <path
       style="fill:#000000;fill-opacity:1;stroke:#000000;stroke-width:3;stroke-miterlimit:4;stroke-opacity:1;stroke-dasharray:none"
       id="path3169"
       d="m 815.35848,96.995985 c -1.2238,5.498185 -4.32683,10.301745 -4.1462,16.020035 1.21876,3.36103 4.25636,5.67075 6.57992,8.28999 2.42503,3.28241 2.02928,7.01822 0.2254,10.45834 -2.7763,5.36338 -6.84876,9.86726 -10.87198,14.31127 -0.86403,0.69993 -1.72806,1.39986 -2.59209,2.09979 0,0 -2.80162,-0.25149 -2.80162,-0.25149 l 0,0 c 0.86422,-0.68495 1.72844,-1.3699 2.59266,-2.05485 4.00989,-4.4236 8.0773,-8.90326 10.84673,-14.24303 1.79788,-3.32916 2.18271,-6.94437 -0.22399,-10.11362 -2.37977,-2.64241 -5.45205,-5.02235 -6.58551,-8.48794 -0.16206,-5.74516 2.89561,-10.5556 4.14762,-16.075221 0,0 2.82906,0.04673 2.82906,0.04673 z"
       transform="translate(-386.91379,242.0397)" />
    <path
       style="fill:#000000;fill-opacity:1;stroke:#000000;stroke-width:3;stroke-miterlimit:4;stroke-opacity:1;stroke-dasharray:none"
       id="path3171"
       d="m 1013.8656,25.478546 c 3.529,5.563412 6.8022,11.384241 10.9803,16.497438 2.4722,3.206876 5.4838,6.217585 8.9785,8.304683 2.2525,1.107017 4.1025,2.860314 6.4894,3.725764 -0.6065,-0.03202 -1.2869,0.19576 -1.8196,-0.09606 -0.012,-0.0063 0.9211,0.124033 2.337,-0.894791 1.4819,-1.06629 2.6063,-2.397749 3.6722,-3.854801 2.6941,-3.158097 4.8891,-6.676591 7.0018,-10.234848 1.6823,-3.611896 3.5518,-7.11289 5.6314,-10.51157 0.7278,-0.952335 1.0327,-2.091034 1.2951,-3.236429 0,0 2.8467,0.06379 2.8467,0.06379 l 0,0 c -0.2659,1.172805 -0.5556,2.357188 -1.3064,3.329193 -2.0971,3.389205 -3.9802,6.883826 -5.644,10.506336 -2.1137,3.563817 -4.2887,7.106443 -6.9976,10.260361 -2.6469,3.723567 -5.047,5.577682 -9.8382,5.01027 -2.349,-0.951303 -4.2392,-2.647646 -6.4882,-3.777953 -3.4729,-2.172007 -6.5008,-5.154102 -8.9743,-8.401896 -4.1471,-5.16204 -7.4546,-10.973259 -10.9876,-16.558487 0,0 2.8235,-0.131008 2.8235,-0.131008 z"
       transform="translate(-386.91379,242.0397)" />
    <path
       style="fill:#000000;fill-opacity:1;stroke:#000000;stroke-width:3;stroke-miterlimit:4;stroke-opacity:1;stroke-dasharray:none"
       id="path3173"
       d="m 1101.4126,25.885814 c 0.066,7.597483 -1.2652,15.121806 -2.0763,22.658836 -0.2892,2.943102 -0.5759,5.887761 -0.7631,8.839507 0,0 -2.8505,-0.01909 -2.8505,-0.01909 l 0,0 c 0.2089,-2.955044 0.5036,-5.903443 0.8,-8.850711 0.8168,-7.525547 2.1729,-15.04029 2.0647,-22.628542 0,0 2.8252,0 2.8252,0 z"
       transform="translate(-386.91379,242.0397)" />
    <path
       style="fill:#000000;fill-opacity:1;stroke:#000000;stroke-width:3;stroke-miterlimit:4;stroke-opacity:1;stroke-dasharray:none"
       id="path3175"
       d="m 1089.2212,22.9535 c 6.1298,-0.851452 12.0226,-2.846946 18.0385,-4.25525 2.4893,-0.612937 5.0362,-0.96379 7.5911,-1.146471 0,0 2.8169,0.427085 2.8169,0.427085 l 0,0 c -2.5598,0.155979 -5.114,0.494107 -7.6084,1.097423 -6.0213,1.392496 -11.9123,3.393706 -18.0365,4.273625 0,0 -2.8016,-0.396412 -2.8016,-0.396412 z"
       transform="translate(-386.91379,242.0397)" />
    <path
       style="fill:#000000;fill-opacity:1;stroke:#000000;stroke-width:3;stroke-miterlimit:4;stroke-opacity:1;stroke-dasharray:none"
       id="path3177"
       d="m 1083.5031,70.883453 c 5.6618,-3.087562 11.8831,-4.83388 17.7718,-7.402285 2.6583,-1.084443 5.3576,-2.076071 8.1088,-2.899527 1.306,-0.36927 -0.3063,0.08464 0.5492,-0.151759 0,0 2.8291,0.377941 2.8291,0.377941 l 0,0 c -0.8616,0.21689 0.7671,-0.210451 -0.5521,0.138992 -2.7623,0.796721 -5.4647,1.791705 -8.1321,2.860579 -5.8823,2.577607 -12.105,4.304666 -17.7654,7.388367 0,0 -2.8093,-0.312308 -2.8093,-0.312308 z"
       transform="translate(-386.91379,242.0397)" />
    <path
       style="fill:#000000;fill-opacity:1;stroke:#000000;stroke-width:3;stroke-miterlimit:4;stroke-opacity:1;stroke-dasharray:none"
       id="path3179"
       d="m 1153.6383,64.353174 c -6.1305,1.824559 -11.9433,4.518315 -18.0397,6.46027 -3.0901,0.588908 -9.1676,3.460649 -7.8054,-2.107066 2.5744,-4.839717 4.3725,-9.994622 6.3486,-15.087877 2.1275,-3.756175 2.4182,-9.334222 5.8317,-12.271876 5.9443,-0.878843 4.3866,8.431137 4.4178,11.767956 0.3956,6.856208 -0.9117,13.594828 -1.8146,20.355932 -0.6429,5.048194 -0.952,10.12957 -1.1211,15.213116 -0.027,0.783945 -0.036,1.568283 -0.049,2.352525 0,0 -2.8539,-0.0082 -2.8539,-0.0082 l 0,0 c 0.022,-0.784626 0.044,-1.569628 0.067,-2.354259 0.1875,-5.092446 0.4981,-10.183003 1.1437,-15.240575 0.9036,-6.747908 2.2136,-13.472387 1.8101,-20.315792 -0.028,-2.763803 0.016,-5.561706 -0.2864,-8.314285 -0.067,-0.610878 -0.6336,-1.303261 -0.2996,-1.819185 0.4872,-0.752696 1.6237,-0.788059 2.3379,-1.330081 0.1385,-0.105123 -0.3462,-0.03341 -0.5192,-0.05011 -3.5781,2.546765 -3.6866,8.58454 -5.8547,12.118979 -1.973,5.077239 -3.728,10.238146 -6.3194,15.05314 -0.057,0.225254 -0.4852,1.510574 -0.2989,1.923426 0.1113,0.246628 0.8313,0.425264 0.5933,0.55399 -0.5371,0.290519 -1.3574,0.502712 -1.8284,0.114054 -0.9791,-0.807878 5.6613,0.106292 3.6977,-0.909969 6.1044,-1.918107 11.9145,-4.607958 18.0353,-6.45647 0,0 2.8063,0.352356 2.8063,0.352356 z"
       transform="translate(-386.91379,242.0397)" />
    <path
       style="fill:#000000;fill-opacity:1;stroke:#000000;stroke-width:3;stroke-miterlimit:4;stroke-opacity:1;stroke-dasharray:none"
       id="path3181"
       d="m 1199.5799,42.621404 c 2.8608,5.78188 6.1459,11.333692 9.4623,16.859029 1.2555,2.147288 2.5139,4.294961 3.6775,6.493974 1.7971,0.485287 -0.1156,0.883665 -1.1111,-0.329797 -0.5364,-0.653807 1.1268,-1.26166 1.6715,-1.908513 2.9437,-3.463396 5.1266,-7.527847 7.2067,-11.550505 2.5632,-4.196153 4.4015,-8.756773 6.7862,-13.0439 0.862,-1.68002 2.1954,-3.087592 2.6073,-4.952002 0.1109,-0.744464 0.068,-0.389619 0.1348,-1.063861 0,0 2.8506,0.02839 2.8506,0.02839 l 0,0 c -0.07,0.693929 -0.025,0.328312 -0.1381,1.09619 -0.4053,1.908677 -1.7007,3.339328 -2.6269,5.035468 -2.4005,4.277737 -4.2311,8.84067 -6.7978,13.033823 -2.0755,4.040581 -4.2606,8.123419 -7.1895,11.614396 -1.4252,1.707485 -4.1482,4.12259 -6.242,2.178474 -1.1505,-2.195453 -2.3962,-4.339758 -3.6457,-6.479741 -3.3202,-5.53198 -6.5773,-11.107285 -9.4693,-16.880423 0,0 2.8235,-0.131007 2.8235,-0.131007 z"
       transform="translate(-386.91379,242.0397)" />
    <path
       style="fill:#000000;fill-opacity:1;stroke:#000000;stroke-width:3;stroke-miterlimit:4;stroke-opacity:1;stroke-dasharray:none"
       id="path3183"
       d="m 1318.2134,17.334427 c -1.5848,9.655043 -3.2171,19.284147 -4.2816,29.018159 -0.3685,6.55504 -1.8425,12.971028 -3.172,19.38033 0,0 -2.8312,-0.0585 -2.8312,-0.0585 l 0,0 c 1.3546,-6.396931 2.8366,-12.804772 3.2129,-19.352347 1.0732,-9.733715 2.7066,-19.365334 4.2473,-29.027723 0,0 2.8246,0.04008 2.8246,0.04008 z"
       transform="translate(-386.91379,242.0397)" />
    <path
       style="fill:#000000;fill-opacity:1;stroke:#000000;stroke-width:3;stroke-miterlimit:4;stroke-opacity:1;stroke-dasharray:none"
       id="path3185"
       d="m 1289.2189,28.34805 c 6.1551,-2.291242 12.5873,-3.527825 19.0711,-4.413401 4.4094,-0.539009 8.8533,-0.660934 13.2906,-0.699626 0.5224,-0.0012 1.0447,-0.0024 1.5671,-0.0037 0,0 2.8014,0.443233 2.8014,0.443233 l 0,0 c -0.5233,4.76e-4 -1.0466,9.51e-4 -1.5698,0.0014 -4.4399,0.03116 -8.8864,0.140044 -13.3003,0.662049 -6.4765,0.865356 -12.9102,2.063035 -19.0538,4.36233 0,0 -2.8063,-0.352356 -2.8063,-0.352356 z"
       transform="translate(-386.91379,242.0397)" />
    <path
       style="fill:#000000;fill-opacity:1;stroke:#000000;stroke-width:3;stroke-miterlimit:4;stroke-opacity:1;stroke-dasharray:none"
       id="path3187"
       d="m 1303.4514,72.208455 c 5.8765,1.059559 11.8155,1.707068 17.7645,2.182469 2.8847,0.239319 5.7791,0.313011 8.6724,0.328658 0.2994,1.19e-4 0.5988,2.38e-4 0.8981,3.57e-4 0,0 -2.8102,0.444688 -2.8102,0.444688 l 0,0 c -0.2986,-7.28e-4 -0.5972,-0.0015 -0.8958,-0.0022 -2.8888,-0.02192 -5.7782,-0.107828 -8.6579,-0.352179 -5.9518,-0.487628 -11.8916,-1.151956 -17.7727,-2.205397 0,0 2.8016,-0.396412 2.8016,-0.396412 z"
       transform="translate(-386.91379,242.0397)" />
    <path
       style="fill:#000000;fill-opacity:1;stroke:#000000;stroke-width:3;stroke-miterlimit:4;stroke-opacity:1;stroke-dasharray:none"
       id="path3189"
       d="m 1396.493,66.890582 c -5.8553,1.288224 -11.9255,1.270142 -17.7703,2.527892 -4.5001,0.858463 -7.5924,3.329657 -10.1714,6.950565 -2.4719,3.276427 -3.4362,7.186919 -4.0147,11.169404 -0.5049,2.669647 -0.1605,3.754587 2.553,4.177668 0.436,0.04003 1.2284,0.550641 1.3079,0.120095 0.079,-0.428843 -1.5406,0.08832 -1.2816,-0.262569 0.2365,-0.320538 6.572,-1.577266 7.3066,-1.713926 4.8516,-0.608166 9.9099,-1.356171 14.6999,-0.01168 2.8994,0.870419 3.6789,3.453543 3.3414,6.215212 -0.8976,4.880247 -4.9451,8.033027 -8.3533,11.280857 -4.3691,4.15555 -9.4624,6.70402 -15.1573,8.47107 0,0 -2.7834,-0.3565 -2.7834,-0.3565 l 0,0 c 5.689,-1.71616 10.7674,-4.21338 15.1348,-8.34223 3.3562,-3.1972 7.4082,-6.29234 8.3217,-11.088794 0.3516,-2.699724 -0.5054,-5.028963 -3.3147,-5.810367 -0.5333,-0.139295 -1.1957,-0.0431 -1.5998,-0.417886 -0.2206,-0.204604 1.1609,-0.225799 0.8627,-0.26575 -2.7296,-0.365668 -5.6323,0.657166 -8.3491,0.718317 -4.306,0.769848 -8.4885,2.540666 -12.9487,1.857999 -2.75,-0.569429 -3.0858,-1.950829 -2.5739,-4.612502 0.5871,-4.020257 1.5416,-7.985974 4.0268,-11.302331 2.5817,-3.675962 5.6362,-6.265585 10.1949,-7.157454 5.8283,-1.330646 11.9174,-1.225723 17.767,-2.5435 0,0 2.8015,0.396413 2.8015,0.396413 z"
       transform="translate(-386.91379,242.0397)" />
    <path
       style="fill:#000000;fill-opacity:1;stroke:#000000;stroke-width:3;stroke-miterlimit:4;stroke-opacity:1;stroke-dasharray:none"
       id="path3193"
       d="m 1120.26,364.73399 c 4.6753,3.91345 8.8843,8.32562 13.3822,12.41849 1.2104,0.95724 2.6288,2.23383 4.2133,2.55684 0.4634,0.0945 1.5769,0.43325 1.4186,-0.0124 -0.3673,-1.03446 -3.6734,0.77004 -0.066,-0.86203 3.5418,-3.30964 6.9927,-6.72886 10.1687,-10.404 2.8427,-3.16532 5.1456,-6.73078 7.9019,-9.96711 0,0 2.8082,0.19912 2.8082,0.19912 l 0,0 c -2.773,3.22445 -5.0606,6.79756 -7.899,9.96832 -3.1884,3.70768 -6.6771,7.10465 -10.1618,10.52203 -4.022,2.02443 -8.0467,1.15509 -11.2013,-1.76684 -4.4644,-4.12765 -8.6993,-8.49616 -13.3816,-12.39937 0,0 2.8166,-0.25307 2.8166,-0.25307 z"
       transform="translate(-386.91379,242.0397)" />
    <path
       style="fill:#000000;fill-opacity:1;stroke:#000000;stroke-width:3;stroke-miterlimit:4;stroke-opacity:1;stroke-dasharray:none"
       id="path3195"
       d="m 1198.5555,374.45724 c -0.021,7.70799 -0.011,15.41602 -0.01,23.12403 0,2.86741 0.01,5.73483 0.011,8.60224 0,0 -2.8367,0 -2.8367,0 l 0,0 c 0.01,-2.86741 0.01,-5.73483 0.011,-8.60224 0.01,-7.70801 0.016,-15.41604 -0.01,-23.12403 0,0 2.8253,0 2.8253,0 z"
       transform="translate(-386.91379,242.0397)" />
    <path
       style="fill:#000000;fill-opacity:1;stroke:#000000;stroke-width:3;stroke-miterlimit:4;stroke-opacity:1;stroke-dasharray:none"
       id="path3197"
       d="m 1189.2212,362.9535 c 7.0885,-1.16263 14.2478,-1.75931 21.4113,-2.2073 3.8392,-0.21562 7.6842,-0.30161 11.5287,-0.34207 0,0 2.7996,0.4406 2.7996,0.4406 l 0,0 c -3.85,0.035 -7.7006,0.11511 -11.5456,0.32462 -7.1569,0.43745 -14.3108,1.0193 -21.3924,2.18056 0,0 -2.8016,-0.39641 -2.8016,-0.39641 z"
       transform="translate(-386.91379,242.0397)" />
    <path
       style="fill:#000000;fill-opacity:1;stroke:#000000;stroke-width:3;stroke-miterlimit:4;stroke-opacity:1;stroke-dasharray:none"
       id="path3199"
       d="m 1186.7064,402.62795 c 7.7854,-2.95669 15.7548,-5.26625 23.948,-6.74029 4.6534,-0.82628 9.3751,-1.11724 14.0927,-1.2343 0.3218,-0.004 0.6436,-0.008 0.9654,-0.0119 0,0 2.8097,0.44215 2.8097,0.44215 l 0,0 c -0.3233,0.002 -0.6466,0.005 -0.9699,0.007 -4.725,0.1 -9.4553,0.37533 -14.1183,1.18677 -8.1891,1.44414 -16.1667,3.71105 -23.9271,6.71411 0,0 -2.8005,-0.36398 -2.8005,-0.36398 z"
       transform="translate(-386.91379,242.0397)" />
    <path
       style="fill:#000000;fill-opacity:1;stroke:#000000;stroke-width:3;stroke-miterlimit:4;stroke-opacity:1;stroke-dasharray:none"
       id="path3201"
       d="m 1245.6706,413.11789 c 3.7157,-3.56915 7.7705,-8.64953 13.1922,-9.44482 1.2762,0.20411 2.6699,0.0399 3.8286,0.61233 2.5249,1.24742 -1.0509,10.61927 -1.7018,12.25837 -2.7519,5.73804 -6.5409,10.81688 -11.3153,15.0005 -3.7523,2.33334 -8.6732,4.41942 -10.3504,-1.41625 -0.1496,-7.30757 2.0294,-14.47713 4.4119,-21.313 2.3678,-7.89644 6.7671,-14.84185 11.1695,-21.72232 2.7985,-3.99318 1.3224,-2.10551 4.4097,-5.67751 0,0 2.8037,0.20099 2.8037,0.20099 l 0,0 c -3.0917,3.53558 -1.6148,1.66206 -4.4106,5.63642 -4.4013,6.8585 -8.8089,13.77972 -11.1775,21.65631 -2.3685,6.77569 -4.5288,13.89238 -4.3765,21.13745 1.4608,4.76406 1.85,1.10849 -0.3908,3.11991 -1.2355,1.10901 7.0239,-1.99964 5.0982,-1.86304 4.7805,-4.12828 8.5635,-9.16259 11.3152,-14.86613 1.046,-2.61747 2.2385,-5.43126 2.4939,-8.28104 0.063,-0.70686 0.043,-1.43375 -0.1134,-2.12604 -0.1173,-0.51999 -0.9563,-0.9794 -0.6914,-1.44195 0.3105,-0.54203 1.2035,-0.33518 1.8052,-0.50277 -5.4034,0.43628 -9.5204,5.78726 -13.1789,9.22326 0,0 -2.8215,-0.19067 -2.8215,-0.19067 z"
       transform="translate(-386.91379,242.0397)" />
  </g>
</svg>
