<?xml version="1.0" encoding="UTF-8" standalone="no"?>
<!-- Created with Inkscape (http://www.inkscape.org/) -->

<svg
   xmlns:dc="http://purl.org/dc/elements/1.1/"
   xmlns:cc="http://creativecommons.org/ns#"
   xmlns:rdf="http://www.w3.org/1999/02/22-rdf-syntax-ns#"
   xmlns:svg="http://www.w3.org/2000/svg"
   xmlns="http://www.w3.org/2000/svg"
   xmlns:sodipodi="http://sodipodi.sourceforge.net/DTD/sodipodi-0.dtd"
   xmlns:inkscape="http://www.inkscape.org/namespaces/inkscape"
   width="1159.7477"
   height="784.78113"
   id="svg2"
   version="1.1"
   inkscape:version="0.47pre4 r22446"
   sodipodi:docname="New document 1">
  <defs
     id="defs4">
    <inkscape:perspective
       sodipodi:type="inkscape:persp3d"
       inkscape:vp_x="0 : 526.18109 : 1"
       inkscape:vp_y="0 : 1000 : 0"
       inkscape:vp_z="744.09448 : 526.18109 : 1"
       inkscape:persp3d-origin="372.04724 : 350.78739 : 1"
       id="perspective10" />
  </defs>
  <sodipodi:namedview
     id="base"
     pagecolor="#ffffff"
     bordercolor="#666666"
     borderopacity="1.0"
     inkscape:pageopacity="0.0"
     inkscape:pageshadow="2"
     inkscape:zoom="0.35"
     inkscape:cx="529.60611"
     inkscape:cy="354.64803"
     inkscape:document-units="px"
     inkscape:current-layer="layer1"
     showgrid="false"
     inkscape:window-width="1280"
     inkscape:window-height="726"
     inkscape:window-x="0"
     inkscape:window-y="25"
     inkscape:window-maximized="1" />
  <metadata
     id="metadata7">
    <rdf:RDF>
      <cc:Work
         rdf:about="">
        <dc:format>image/svg+xml</dc:format>
        <dc:type
           rdf:resource="http://purl.org/dc/dcmitype/StillImage" />
        <dc:title></dc:title>
      </cc:Work>
    </rdf:RDF>
  </metadata>
  <g
     inkscape:label="Layer 1"
     inkscape:groupmode="layer"
     id="layer1"
     transform="translate(154.60611,-102.22909)">
    <path
       style="fill:#000000;fill-opacity:1;stroke:#000000;stroke-width:3;stroke-miterlimit:4;stroke-opacity:1;stroke-dasharray:none"
       id="path2820"
       d="m 295.27998,666.10499 c 12.7222,-2.09322 25.49833,-3.44866 38.36581,-4.2692 19.19613,-0.98968 38.42406,-1.04881 57.64069,-1.12883 16.6737,-0.65353 33.47849,0.94388 50.12147,-0.34293 9.51029,-0.21677 19.06028,-2.65436 28.571,-1.35663 2.98543,0.72796 0.0339,1.92893 -1.22259,2.68337 -1.44901,0.79482 -0.67666,0.42837 -2.32677,1.07863 0,0 -2.81828,-0.34195 -2.81828,-0.34195 l 0,0 c 1.64509,-0.6028 0.87539,-0.2518 2.31897,-1.03108 1.22475,-0.70904 4.00837,-1.50329 1.24931,-1.98275 -7.63095,-0.94961 -15.36715,1.44166 -23.03976,1.36967 -16.71387,0.58743 -33.43686,0.22819 -50.15915,0.34925 -19.21086,0.0775 -38.43284,0.13506 -57.6236,1.11507 -12.83988,0.81179 -25.59059,2.14447 -38.28094,4.25967 0,0 -2.79616,-0.40229 -2.79616,-0.40229 z" />
    <path
       style="fill:#000000;fill-opacity:1;stroke:#000000;stroke-width:3;stroke-miterlimit:4;stroke-opacity:1;stroke-dasharray:none"
       id="path2822"
       d="m 374.93314,700.07391 c 8.53141,-2.07124 16.98954,-4.37938 25.39249,-6.92437 6.55638,-1.75694 13.1739,-3.16186 19.72717,-4.9375 2.26586,-0.59481 4.53371,-1.18488 6.81705,-1.70956 -0.0423,0.1053 -0.0846,0.2106 -0.12685,0.3159 0,0 2.83476,-0.34269 2.83476,-0.34269 l 0,0 c 0.0394,0.13677 0.0788,0.27355 0.11828,0.41033 -2.29512,0.50846 -4.5697,1.10587 -6.84532,1.69384 -6.56329,1.76524 -13.17582,3.20997 -19.75012,4.92594 -8.39354,2.53979 -16.83271,4.87818 -25.36115,6.92046 0,0 -2.80631,-0.35235 -2.80631,-0.35235 z" />
    <path
       style="fill:#000000;fill-opacity:1;stroke:#000000;stroke-width:3;stroke-miterlimit:4;stroke-opacity:1;stroke-dasharray:none"
       id="path2824"
       d="m 393.21515,661.37837 c 1.62933,-9.47009 3.05419,-18.97798 4.62632,-28.46003 2.00547,-9.64953 2.27644,-19.52849 3.64881,-29.25442 0.74725,-4.21806 1.70845,-8.39302 2.51828,-12.59941 0.38015,-1.57473 0.3434,-1.1111 -0.5005,-1.8837 -2.48982,-1.43255 -5.34681,-1.89363 -8.03313,-2.88447 -3.88922,-1.38812 -8.0155,-1.81753 -12.10647,-2.12938 -4.85362,-1.15375 -2.58189,-4.60765 -0.45887,-7.35452 5.9709,-6.22944 12.37832,-12.07664 18.71398,-17.94687 7.13197,-6.14127 13.65766,-12.98202 20.90005,-18.98987 0.88665,-1.00323 7.63338,-5.52044 4.32634,-6.85999 -3.26972,-1.68187 -6.83489,-2.4 -10.44669,-2.87809 -3.45436,-1.23421 -6.96991,-2.18939 -10.58544,-2.79925 -2.64335,-1.2107 -6.55824,-1.33644 -7.94459,-4.13685 -0.69299,-3.87612 2.48823,-7.07179 4.88531,-9.69117 4.42427,-4.56152 9.57545,-8.39332 14.88921,-11.85571 1.13463,-1.43099 8.33838,-3.95954 7.59195,-6.17837 -2.31788,-2.31048 -6.3126,-3.10528 -9.41598,-3.97134 -4.64623,-1.03845 -9.05705,-2.83007 -13.72724,-3.81633 -3.50348,-0.4597 -6.73009,-1.72789 -5.99037,-5.69217 2.63711,-5.22156 7.65489,-8.71394 12.01934,-12.40823 5.31678,-4.66999 11.1521,-8.69309 16.70458,-13.07212 3.15821,-2.34792 4.9375,-3.57479 1.7301,-6.95333 -2.44583,-2.71772 -5.39474,-4.89842 -8.29013,-7.11472 -2.9664,-2.24213 -6.2076,-4.14523 -9.62254,-5.6206 -2.86002,-1.49326 -2.3399,-4.09105 -2.11353,-6.84413 0.92361,-4.65638 2.05794,-9.25878 2.6389,-14.00386 1.03795,-9.5874 2.2935,-19.13099 2.93695,-28.76141 0.71048,-13.20067 0.74615,-26.4255 0.80059,-39.64151 0.0291,-11.77315 0.01,-23.54634 -0.007,-35.31949 -0.01,-8.05525 -0.0134,-16.11051 -0.0256,-24.16576 -0.005,-3.70123 -0.006,-7.40247 -0.0141,-11.1037 1.40145,-2.7726 6.36107,-2.01651 8.95002,-2.06511 10.85313,-0.36656 21.6725,-1.48514 32.52796,-2.01586 16.97276,-0.31869 33.8541,1.40424 50.7326,2.89004 14.70321,1.54659 29.33078,3.62106 43.97533,5.62079 7.50915,1.01931 15.04949,1.74542 22.61823,2.10283 0.51674,0.0187 1.26502,0.48752 1.55022,0.0562 0.26228,-0.39662 -1.449,0.18504 -1.39719,-0.28763 0.0616,-0.5616 1.03412,-0.46426 1.51254,-0.76475 0.60581,-0.38052 1.19356,-0.79703 1.72911,-1.27135 1.09769,-0.97221 2.44108,-2.67622 3.35402,-3.7699 4.68778,-5.74442 8.98493,-11.83471 12.45279,-18.39158 2.89033,-5.43073 6.17766,-10.6547 8.77287,-16.23694 1.18963,-2.18967 1.70637,-3.70177 4.53844,-0.22785 0.11819,0.14499 0.17401,4.18229 0.18382,4.63745 -0.002,9.97922 0.12051,19.95816 -0.42361,29.92414 -0.70888,13.69681 -2.02703,27.32377 -3.52486,40.95184 -0.3836,7.72401 -2.25193,15.58112 -1.44414,23.32605 -2.89007,0.65146 1.9428,1.85908 1.20802,1.84438 -0.66203,-0.0133 -1.63867,0.17339 -1.94268,-0.41485 -0.24393,-0.472 0.79893,-0.70245 1.16748,-1.08514 1.84762,-1.91853 1.50399,-1.68237 3.01983,-4.15305 4.8738,-9.36488 9.00808,-19.09084 13.07645,-28.82526 5.41367,-13.01553 10.39609,-26.19818 16.83335,-38.75361 3.06676,-4.15356 6.40609,-15.45577 10.64913,-18.17566 1.14212,0.29086 2.49982,0.14417 3.42635,0.87257 0.94527,0.74313 0.79727,17.06169 0.80363,18.83323 -0.0151,12.04449 -0.0601,24.08891 -0.0836,36.13338 0.75822,7.61862 -1.11521,15.6452 0.34231,23.18985 0.15856,0.22777 0.73312,0.78697 0.47567,0.68332 -0.66142,-0.2663 -1.58457,-0.51476 -1.76821,-1.20372 -0.16943,-0.63565 0.68933,-1.12199 0.99271,-1.70571 1.5929,-3.0648 2.53865,-6.37991 3.63319,-9.64309 3.80716,-11.3353 8.33305,-22.39411 13.1552,-33.32907 4.56709,-10.75823 10.1836,-20.99237 16.11774,-31.04293 1.36982,-1.87935 4.61964,-10.53376 7.64736,-10.55518 1.22078,-0.009 2.42453,0.28838 3.63679,0.43257 1.66391,6.2261 2.10079,12.88069 2.80792,19.30871 1.02247,10.41832 1.26695,20.89063 1.44312,31.35089 -0.17937,5.95847 0.79297,11.87103 2.18013,17.64569 -1.02248,0.38348 1.07021,0.93651 0.79512,0.71119 -0.57388,-0.47006 -1.56606,-0.51197 -1.8861,-1.1812 -0.21993,-0.45988 2.05474,-3.82727 2.32803,-4.33017 2.62027,-3.71338 6.85348,-5.38449 10.88306,-7.12002 7.63018,-2.71054 15.51914,-4.14828 23.54172,-5.01564 11.11294,-1.24132 22.22776,-0.69252 33.32277,0.33629 8.1111,0.2671 16.04477,1.80002 24.00627,3.2171 4.03229,0.39685 7.84391,1.31279 11.68945,2.53824 2.27686,0.85615 5.15166,0.45646 6.82012,2.39407 1.10984,2.99847 -0.43868,6.48649 -1.3024,9.42325 -1.9637,6.70738 -3.85378,13.40895 -5.07863,20.29481 -1.33965,6.8906 -3.34297,13.59966 -5.13593,20.37477 -2.10244,5.52619 -3.50616,11.2114 -4.36022,17.05036 -0.30597,4.24062 -1.83213,8.24649 -2.68332,12.38883 -0.27727,3.29128 -1.2282,6.10443 -3.2878,8.6912 -3.45493,2.76562 -7.63669,4.41417 -11.55695,6.4013 -5.10169,2.81935 -10.58381,4.71778 -15.94406,6.93953 -3.26564,1.55564 -6.21739,3.13967 -1.89882,5.50775 7.32153,2.73096 15.12834,3.96941 22.85255,4.95863 10.08254,1.1016 20.22988,1.28384 30.36177,1.40578 5.53471,0.98108 11.76397,-1.57827 16.5249,0.89417 -0.32392,4.00746 -7.31013,6.31655 -10.39544,7.84828 -8.9445,4.51285 -18.10171,8.54767 -27.17655,12.78235 -7.45634,3.59577 -15.10182,6.87241 -21.79968,11.79778 -3.25961,2.90823 -0.45606,4.90175 2.60429,5.80392 5.74917,2.02165 11.85314,2.40976 17.77333,3.63161 3.39396,1.39337 9.60895,0.61925 11.38271,4.45206 -1.31089,3.94601 -6.36738,6.26698 -9.71907,8.36812 -6.78822,4.10905 -13.78005,7.84164 -20.63755,11.83027 -4.89764,3.00799 -10.70611,5.46567 -14.36512,10.07483 -1.59965,4.16835 5.21084,6.19489 8.10151,7.42769 9.20624,2.6656 18.73037,4.14914 28.24272,5.22873 9.85722,0.96519 19.7638,1.18333 29.66074,1.29787 2.43973,0.10186 12.50338,-0.83652 9.1104,4.02586 -5.96845,5.20935 -13.50839,8.06299 -20.61609,11.35092 -10.25824,4.63313 -20.23664,9.85073 -30.20934,15.06177 -4.29024,3.15716 -10.15834,3.73121 -14.50656,6.68756 0.57707,1.80957 1.83002,3.41861 2.63434,5.1985 1.61394,5.21884 1.94257,10.72818 2.8195,16.10957 1.38516,9.72743 2.00596,19.5697 1.63128,29.38601 -0.73121,9.48197 -1.5627,18.95185 -2.00387,28.45301 -0.31747,7.78266 -0.33943,15.57318 -0.35741,23.36105 -0.003,6.91035 0.007,13.8207 0.011,20.73105 0.007,6.66458 0.007,13.32916 0.006,19.99374 -0.003,7.71654 -0.001,15.43308 -0.004,23.14962 10e-4,8.56581 -0.004,17.13162 -0.003,25.69743 -0.002,10.0874 -0.005,20.17481 -0.007,30.26221 0.30819,8.82871 -0.0296,17.55744 -1.28009,26.29535 -0.77139,4.48517 -0.7674,9.05921 -2.27193,13.37724 -1.85813,3.52663 -5.02836,5.21721 -8.49372,6.87593 -8.45855,3.33775 -17.11197,6.24021 -25.68226,9.30812 -16.00101,6.02152 -32.34271,10.89809 -48.90225,15.09721 -21.04511,5.46545 -42.39482,9.64824 -63.82527,13.27418 -23.27992,4.02559 -46.57797,7.98679 -69.7938,12.37169 -19.34059,3.43952 -38.60132,7.33733 -58.05591,10.09001 -15.05105,2.21637 -30.10537,4.43899 -45.18779,6.43646 -8.78415,0.91099 -17.52526,1.63747 -26.19437,3.34679 -4.74026,0.53173 -9.35661,0.73091 -11.78159,-3.79896 -2.0377,-5.79654 -2.8718,-11.85465 -3.46171,-17.93926 -1.52312,-9.31167 -2.49668,-18.67884 -3.07475,-28.09212 -0.47762,-9.59962 -0.49484,-19.21376 -0.52269,-28.82277 -0.11005,-9.02131 -0.16552,-17.99465 0.82609,-26.96686 0.62765,-8.35556 1.92579,-16.60227 3.16101,-24.87987 1.20515,-8.23784 1.48423,-16.5665 1.67274,-24.87751 0.1064,-5.75243 0.0975,-11.50598 0.084,-17.2591 0.0181,-5.51396 -1.13356,-10.99652 -2.06642,-16.42162 0,0 2.79659,-0.048 2.79659,-0.048 l 0,0 c 0.94922,5.43865 2.13029,10.93776 2.09926,16.46908 0.008,5.7555 -0.005,11.51136 -0.10933,17.26608 -0.19448,8.32238 -0.46944,16.66309 -1.67583,24.91245 -1.22961,8.2746 -2.53846,16.51697 -3.16254,24.86938 -0.99634,8.96115 -0.93825,17.92454 -0.83115,26.93521 0.0229,9.60355 0.045,19.21234 0.52181,28.80644 0.574,9.41064 1.55499,18.77448 3.08574,28.08189 0.59494,6.04693 1.41878,12.07583 3.48906,17.82412 1.94556,3.44462 4.29966,3.81593 6.15883,3.55492 8.68723,-1.71446 17.43706,-2.48154 26.24492,-3.35754 15.09382,-1.9862 30.15715,-4.2174 45.21869,-6.42953 19.46629,-2.73663 38.73538,-6.63978 58.08644,-10.07287 23.2169,-4.38974 46.51812,-8.34442 69.79892,-12.37626 21.42056,-3.61456 42.75919,-7.79722 63.79367,-13.25637 16.545,-4.18995 32.8752,-9.04553 48.85608,-15.07653 8.5497,-3.0668 17.17416,-5.98927 25.62597,-9.28707 3.42748,-1.60661 6.56839,-3.22693 8.46862,-6.65363 1.52556,-4.29334 1.51084,-8.85575 2.29289,-13.3216 1.26556,-8.72383 1.61248,-17.43759 1.30763,-26.2551 -0.002,-10.0874 -0.005,-20.17481 -0.007,-30.26221 0.001,-8.56581 -0.004,-17.13162 -0.002,-25.69744 -0.003,-7.71653 -2.6e-4,-15.43306 -0.004,-23.14959 -10e-4,-6.66452 -0.004,-13.32904 -0.006,-19.99356 -0.006,-6.91064 -0.0172,-13.82128 -0.006,-20.73192 0.0194,-7.79201 0.0387,-15.58685 0.36251,-23.37347 0.44731,-9.50048 1.28401,-18.96933 2.02091,-28.45051 0.37182,-9.79831 -0.25532,-19.62279 -1.65593,-29.32982 -0.88157,-5.35585 -1.20906,-10.84611 -2.84243,-16.03363 -0.83692,-1.80743 -2.4691,-3.59541 -2.63862,-5.58812 4.14959,-3.20045 10.40954,-3.40512 14.56903,-6.72273 9.97423,-5.21498 19.95999,-10.42574 30.21418,-15.07474 7.07295,-3.27562 14.54559,-6.12317 20.55249,-11.21617 3.51248,-4.39798 -7.21697,-3.10521 -9.04697,-3.40928 -9.8926,-0.12178 -19.79489,-0.34891 -29.6465,-1.32881 -9.52601,-1.09639 -19.07999,-2.56823 -28.28329,-5.30623 -3.13625,-1.36809 -9.83517,-3.46127 -8.13619,-7.94249 3.61494,-4.68695 9.48777,-7.16158 14.40889,-10.17835 6.84581,-3.9978 13.84078,-7.71147 20.6207,-11.82348 3.28667,-2.0413 8.07115,-4.29941 9.6828,-7.95355 -1.89121,-3.60602 -8.04313,-2.78435 -11.33231,-4.19723 -5.93663,-1.18679 -12.03661,-1.6401 -17.79435,-3.65754 -3.22165,-1.05205 -5.88571,-3.41577 -2.60355,-6.42603 6.70299,-4.95697 14.36033,-8.24798 21.83911,-11.84959 9.06441,-4.24121 18.22462,-8.25254 27.15568,-12.77824 2.87985,-1.4246 9.63004,-3.70074 10.3605,-7.21968 -0.3159,-0.14249 -0.95015,-0.0809 -0.94771,-0.42747 0.002,-0.33412 1.28622,-0.28737 0.95292,-0.31105 -5.46115,-0.388 -11.00042,0.32507 -16.46723,-0.039 -10.13161,-0.12851 -20.27896,-0.31845 -30.35948,-1.43889 -7.7423,-1.00722 -15.60014,-2.23041 -22.90956,-5.06305 -4.28205,-2.57937 -1.58406,-4.53415 1.91273,-6.13515 5.34444,-2.24913 10.8553,-4.07721 15.94487,-6.91807 3.89308,-1.99083 8.01749,-3.63862 11.5283,-6.28447 2.07802,-2.53567 3.01274,-5.29287 3.2861,-8.5558 0.84519,-4.13959 2.38639,-8.13621 2.69296,-12.37281 0.86408,-5.84768 2.24839,-11.55005 4.36922,-17.08195 1.79113,-6.76854 3.80437,-13.46771 5.14561,-20.35126 1.22268,-6.89535 3.1016,-13.60858 5.06301,-20.32618 0.82421,-2.80325 2.38788,-6.28306 1.283,-9.13262 -1.7107,-1.77298 -4.61823,-1.3252 -6.79178,-2.24712 -3.83428,-1.21651 -7.65988,-2.06519 -11.66858,-2.50368 -7.94954,-1.42651 -15.87889,-2.9127 -23.97716,-3.19733 -9.28398,-0.85645 -18.48787,-1.5787 -27.79849,-0.34 -8.00937,0.84705 -15.87577,2.26691 -23.50282,4.9365 -3.99231,1.69602 -8.19381,3.325 -10.85389,6.93282 -0.8126,1.49191 -4.57628,9.74033 -6.90475,4.72504 -1.35743,-5.80018 -2.32316,-11.73047 -2.13558,-17.70715 -0.16714,-10.45179 -0.40969,-20.91601 -1.44486,-31.32467 -0.70467,-6.32228 -1.10275,-12.93944 -2.84224,-19.02822 0.67074,-0.13388 1.32917,-0.36615 2.01222,-0.40163 0.37671,-0.0196 -0.76105,0.14413 -1.07519,0.35295 -0.51235,0.34058 -0.93988,0.80004 -1.34963,1.25895 -2.30559,2.58224 -3.41972,5.85349 -5.2532,8.75027 -5.94916,10.03445 -11.57946,20.25421 -16.14089,31.00872 -4.81917,10.92382 -9.34203,21.97153 -13.122,33.30438 -0.34668,1.04176 -4.86469,17.92279 -8.96581,11.83118 -1.36997,-7.58479 0.42731,-15.59215 -0.28708,-23.24273 0.0254,-12.04387 0.076,-24.08773 0.0703,-36.13164 -0.0216,-4.5189 0.0145,-9.05053 -0.22487,-13.5652 -0.0548,-1.0344 -0.11237,-2.07027 -0.23897,-3.09837 -0.0827,-0.67129 -0.76609,-1.43098 -0.38781,-1.99167 0.44055,-0.653 1.4932,-0.50228 2.23981,-0.75341 -3.83,1.93035 -8.04557,14.35605 -10.70662,18.00897 -6.46011,12.53844 -11.43968,25.71559 -16.8392,38.73131 -4.05861,9.74601 -8.19149,19.47756 -13.02684,28.86947 -1.44898,2.41861 -7.04555,10.6432 -9.09184,3.68377 -0.77153,-7.77069 1.08435,-15.63866 1.49429,-23.38525 1.51442,-13.62166 2.83171,-27.24337 3.53088,-40.93623 0.53184,-9.95929 0.39692,-19.93085 0.36994,-29.90267 -0.0214,-0.86824 -0.0275,-1.73699 -0.0643,-2.60471 -0.0284,-0.66752 -0.51531,-1.45338 -0.13121,-2.00006 4.35307,-6.19554 2.06619,0.15585 1.12057,0.31176 -2.60278,5.58749 -5.89303,10.81743 -8.79737,16.24973 -3.45367,6.57976 -7.76379,12.68002 -12.43885,18.45102 -3.51506,4.25541 -6.30131,7.13425 -12.35908,6.27106 -7.55156,-0.37442 -15.07435,-1.11249 -22.56645,-2.13537 -14.63415,-2.00884 -29.25444,-4.07131 -43.94917,-5.6112 -15.06993,-1.32966 -30.13332,-2.87272 -45.28161,-2.87684 -10.83839,0.52532 -21.64046,1.63379 -32.47347,2.03314 -2.46712,0.0396 -7.29996,-0.6922 -8.89383,1.6286 -0.009,3.7012 -0.009,7.40242 -0.0124,11.10363 -0.008,8.05519 -0.005,16.1104 -0.001,24.16559 0.003,11.77363 0.0164,23.54729 -0.0161,35.3209 -0.058,13.2216 -0.0877,26.45196 -0.78783,39.6587 -0.63173,9.63532 -1.88549,19.18351 -2.9033,28.777 -0.56958,4.741 -1.68152,9.34464 -2.61623,13.99285 -0.21469,2.68421 -0.73678,5.10394 2.09263,6.49345 3.41304,1.50768 6.65842,3.4289 9.6268,5.6886 2.90991,2.21709 5.8461,4.43735 8.29998,7.16475 3.13814,3.5701 1.62554,4.97801 -1.75022,7.4175 -5.55721,4.37603 -11.39799,8.39483 -16.72,13.06081 -4.3239,3.66274 -9.26074,7.10943 -11.97384,12.21921 -0.76306,3.81764 2.73411,4.77928 5.9542,5.25471 4.65942,1.01934 9.07694,2.79833 13.7243,3.83482 3.12769,0.89351 7.32607,1.66625 9.46128,4.2608 0.64855,2.8699 -6.07837,4.75397 -7.6335,6.53372 -5.31255,3.43227 -10.45424,7.24962 -14.87882,11.78512 -2.30402,2.50252 -5.52625,5.61368 -4.86229,9.34485 1.44761,2.60314 5.37487,2.74045 7.91469,3.87794 3.60976,0.63073 7.10284,1.6423 10.58011,2.79009 3.62495,0.50786 7.19829,1.26498 10.47212,2.97545 3.2637,2.12594 -3.06466,5.97857 -4.35472,7.41484 -7.27467,5.97181 -13.78167,12.84054 -20.92425,18.97175 -6.32291,5.85489 -12.69009,11.71254 -18.67025,17.90444 -2.06654,2.6378 -4.32639,5.78209 0.44149,6.74657 4.09851,0.329 8.22708,0.79025 12.11588,2.20606 2.70141,0.98083 5.61073,1.42235 8.06004,2.97302 1.02519,0.68584 0.77897,1.00981 0.50573,2.19454 -0.82989,4.20005 -1.79336,8.37194 -2.55907,12.58415 -1.38956,9.72622 -1.66217,19.60858 -3.66648,29.26062 -1.56927,9.4781 -2.99828,18.98252 -4.58608,28.45439 0,0 -2.82466,-0.0401 -2.82466,-0.0401 z" />
    <path
       style="fill:#000000;fill-opacity:1;stroke:#000000;stroke-width:3;stroke-miterlimit:4;stroke-opacity:1;stroke-dasharray:none"
       id="path2826"
       d="m 422.26293,277.93291 c -7.30359,-1.31377 -14.74066,-1.49362 -22.07286,-2.5337 -8.48286,-1.55355 -17.08469,-2.15409 -25.68707,-2.52195 -9.45402,-0.49488 -18.81792,1.42456 -28.09443,3.01901 -6.95154,1.28077 -14.01288,2.55327 -20.77291,4.66446 -3.60279,1.4374 -7.69266,4.14706 -10.65061,-0.17663 -2.25929,-5.48842 -1.77179,-11.67526 -2.40967,-17.48872 -1.10779,-8.0806 -1.79906,-16.20559 -2.26247,-24.34608 -0.31926,-1.84568 -0.45741,-3.11685 -1.03356,-4.8596 -0.13726,-0.41522 -0.23069,-0.88468 -0.53659,-1.19718 -0.18821,-0.19227 -1.04821,-0.23913 -0.79127,-0.15934 2.44608,0.7596 2.51055,-0.049 0.89448,1.76163 -4.86349,7.29618 -8.58882,15.27926 -12.78069,22.96696 -4.88389,8.30373 -9.30373,16.90518 -14.40934,25.07496 -4.74371,5.53005 -8.8802,4.53316 -11.6271,-1.60728 -2.66922,-6.05431 -4.80447,-12.317 -7.16609,-18.49077 -1.97805,-4.33501 -3.30721,-10.61976 -7.67005,-13.20509 -0.44272,0.0218 -1.51832,-0.3349 -1.32816,0.0655 0.26095,0.5494 1.46677,0.12601 1.68817,0.69251 0.19705,0.50421 -0.61395,0.89309 -0.88545,1.36144 -1.37497,2.37181 -2.04564,4.84807 -2.7513,7.47934 -1.56702,6.12917 -2.56277,12.43791 -4.31025,18.51501 -1.36192,5.40643 -5.25602,9.6692 -9.14127,2.1312 -3.76099,-8.70412 -6.11368,-17.8873 -9.52891,-26.73384 -3.38453,-8.74559 -6.95562,-17.30426 -12.62422,-24.82469 -0.23274,-2.16641 -2.49222,-1.44002 -3.50155,-2.4435 -0.30103,-0.29929 1.38275,-0.19385 1.25585,0.21124 -0.18288,0.58378 -1.14895,0.48413 -1.60235,0.89485 -1.23673,1.12033 -2.24599,3.34756 -2.97533,4.69402 -4.35081,10.09532 -7.41672,20.70421 -11.40944,30.9653 -3.1288,8.48928 -6.42549,17.06511 -12.13837,24.17483 -6.99429,5.02196 -11.00582,-2.66111 -14.06153,-7.69569 -5.3754,-9.76358 -10.28016,-19.76903 -15.60041,-29.56345 -4.3601,-7.70546 -8.54003,-15.5096 -14.25945,-22.31038 0.29542,-1.20384 -5.09676,-3.70821 -5.09672,-3.75701 4.1e-4,-0.523 1.29345,-0.22944 1.55283,0.22471 0.20838,0.36485 -0.72844,0.46947 -0.95383,0.82408 -0.34159,0.53742 -0.46652,1.18507 -0.69979,1.7776 -2.76644,7.4055 -2.86352,15.40705 -3.89207,23.15669 -0.87481,7.19026 -1.96188,14.26773 -3.95256,21.23378 -1.02262,4.69734 -3.91048,4.501 -8.30805,3.75654 -3.19483,-0.29954 -6.13602,-1.22308 -9.14137,-2.30252 -3.03806,-1.0469 -6.20797,-1.3973 -9.39628,-1.55714 -3.569634,-0.34222 -6.370151,0.044 -7.286963,0.21547 -3.771234,1.13 -7.604211,1.85947 -11.518337,2.22711 -5.970199,0.78818 -11.830506,-0.34129 -17.674118,-1.3902 -5.042419,-0.85019 -10.163162,-0.98231 -15.263834,-1.08956 -4.724275,-0.0717 -9.449217,-0.0612 -14.17386,-0.0567 -4.939814,0.008 -9.879633,0.012 -14.819453,0.014 -6.415597,0.21905 -12.7631539,-0.0999 -19.0675175,-1.31848 -4.2491404,-0.87243 -8.5654179,-1.24807 -12.8905185,-1.44846 -0.412313,0.0398 -6.833816,-0.27708 -6.805355,-0.10699 0.196882,1.17659 3.176383,-0.45252 0.618593,0.75028 -2.375985,2.91242 -1.807996,7.57341 -1.883064,11.11356 0.204493,10.13825 -1.037463,20.21653 -1.730974,30.31719 -0.663149,12.12079 -0.799961,24.23439 -1.880447,36.3281 -1.315248,10.5916 -1.264429,21.28518 -2.246888,31.89647 -1.143493,9.36559 -1.946656,18.76162 -2.379674,28.18553 -0.239187,5.53703 -0.300084,11.07932 -0.307239,16.6208 0.285958,3.19659 -1.30087,4.23352 -4.171091,4.71664 -5.036259,0.35457 -10.097193,0.19547 -15.143273,0.15647 0.189268,0.10195 0.764619,0.21936 0.567803,0.30584 -2.473759,1.08698 -6.775806,1.43159 -9.541946,1.94779 -3.701098,1.57041 -0.08142,4.84296 1.740836,6.24502 6.731193,3.97955 14.068273,6.70145 21.182203,9.88579 9.412145,3.83747 18.949146,7.3546 28.7202008,10.1634 1.0974641,-0.007 11.3835353,2.37553 7.9946082,4.84834 -5.841364,1.49023 -11.7855099,2.49494 -17.688172,3.71193 -8.637542,1.9446 -17.074502,4.57659 -25.430158,7.47543 -5.094458,1.84205 -11.67109,2.72386 -14.634378,7.77406 -0.04046,4.93927 6.011416,7.19986 9.618001,9.33304 7.28693,3.57032 14.723411,6.80987 22.447488,9.30644 2.999286,1.96003 11.027905,2.27042 11.8316476,6.5782 -1.7619016,3.35891 -9.1382656,4.29232 -12.5127076,5.16589 -7.726633,1.41346 -15.398647,3.14696 -23.149286,4.44418 -2.413518,0.68994 -10.817684,1.71165 -8.25866,5.89734 4.867453,3.34687 10.681088,5.03911 16.167924,7.11904 7.008527,2.27251 14.003054,4.6803 21.178152,6.38365 2.652702,1.026 9.2460715,2.08418 7.8720149,6.16824 -4.6701019,3.78624 -10.7380939,5.22124 -16.4088809,6.84409 -7.550478,2.30873 -15.021362,4.77694 -22.287775,7.86451 -3.174072,1.56698 -8.84385,2.83212 -8.741408,7.21146 1.876404,3.43247 5.595643,5.28309 8.927621,7.04972 4.08168,2.13295 8.304633,3.97054 12.296671,6.27187 3.544126,1.38545 5.614831,3.59588 6.792705,7.13289 0.984975,5.04301 0.715346,10.25332 0.714662,15.36692 -0.879651,12.79954 -2.331382,25.54672 -4.063391,38.25641 -2.036492,17.06135 -4.969455,33.96914 -8.385057,50.80024 -2.625683,12.34363 -3.900336,24.89405 -4.539494,37.47885 -0.30234,6.94291 -0.306736,13.89319 -0.280961,20.84103 0.12724,3.55586 -0.450321,7.14676 0.873387,10.51558 1.926542,2.24642 5.135843,2.36318 7.895516,2.53814 3.945611,0.30244 7.744082,1.56736 11.684775,2.12748 6.436804,0.69109 12.926429,0.67677 19.3927479,0.72493 9.3251237,0.87215 18.6324241,1.80671 27.8966181,3.18712 11.274845,1.79536 22.525506,3.52566 33.912342,4.44025 13.585179,1.32673 27.112168,3.13692 40.678958,4.62065 14.585786,2.47177 29.351706,3.29142 44.056206,4.67062 15.04048,1.67927 30.15637,2.38701 45.27623,2.80849 14.50852,0.1938 28.98875,0.1605 43.46971,1.1307 13.84668,1.23187 27.76523,1.17638 41.62025,2.17648 11.63021,1.07992 23.28349,1.65605 34.8621,3.21304 8.67495,1.26683 17.42037,1.84553 26.17429,2.16862 5.80495,0.25673 11.60478,-0.28404 17.29788,1.02579 3.92532,0.66631 7.64856,1.85694 11.40289,3.14557 3.41597,1.27281 6.72724,2.86719 9.73723,4.933 3.19705,2.19348 6.46522,4.40547 9.90511,6.20959 3.07377,1.98284 5.91492,4.21634 8.37147,6.93384 0.62794,1.71464 9.68983,8.80619 3.51135,2.61034 0,0 2.82225,0.0472 2.82225,0.0472 l 0,0 c -1.08396,0.90312 -2.01382,2.03276 -3.25188,2.70936 -0.95093,0.51968 -5.31583,-4.35351 -5.90844,-5.15798 -2.45184,-2.68324 -5.29288,-4.896 -8.36146,-6.8369 -3.42422,-1.84985 -6.71095,-4.02152 -9.90237,-6.24035 -3.01837,-2.02608 -6.32343,-3.60627 -9.73343,-4.85779 -3.74743,-1.2866 -7.48406,-2.42774 -11.39562,-3.11533 -5.68606,-1.25139 -11.4834,-0.69409 -17.26886,-0.97764 -8.75021,-0.3338 -17.49071,-0.92826 -26.1617,-2.19761 -11.57045,-1.54706 -23.21744,-2.11722 -34.83791,-3.19918 -13.85465,-0.97686 -27.76922,-0.9517 -41.61424,-2.17609 -14.47909,-0.96096 -28.95899,-0.91063 -43.4646,-1.12074 -15.11981,-0.4287 -30.23467,-1.149 -45.27527,-2.82674 -14.7087,-1.36575 -29.47253,-2.22367 -44.063535,-4.67404 -13.569161,-1.49176 -27.10063,-3.29317 -40.690013,-4.61104 -11.391692,-0.92838 -22.648321,-2.67125 -33.931087,-4.45631 -9.264909,-1.37462 -18.57582,-2.31267 -27.9041862,-3.14637 -6.4757298,-0.05 -12.9766668,-0.036 -19.4201178,-0.75959 -3.934036,-0.58009 -7.734182,-1.85549 -11.691833,-2.10493 -2.838407,-0.21036 -6.079549,-0.4035 -7.928951,-2.85808 -1.292633,-3.41532 -0.755501,-7.02632 -0.858492,-10.61913 -0.02005,-6.9531 0.007,-13.90859 0.314484,-20.85629 0.655879,-12.59887 1.940407,-25.1635 4.579419,-37.51968 3.428481,-16.82291 6.362908,-33.72448 8.386123,-50.78218 1.718931,-12.6969 3.150138,-25.43239 4.006209,-38.21906 -0.01003,-5.08286 0.247395,-10.2653 -0.744385,-15.27525 -1.178725,-3.47795 -3.323826,-5.53898 -6.77213,-6.92841 -3.994163,-2.28747 -8.218335,-4.11852 -12.288654,-6.264 -3.391834,-1.82717 -7.211718,-3.72532 -8.959946,-7.34808 -0.08507,-4.58362 5.357863,-5.93529 8.787795,-7.5453 7.273689,-3.09095 14.740253,-5.58582 22.299176,-7.89831 5.64893,-1.59966 11.530912,-3.08286 16.350026,-6.58236 1.4818171,-3.66267 -5.630755,-4.81229 -7.821862,-5.6934 -7.169135,-1.73295 -14.170224,-4.12549 -21.173316,-6.42015 -5.514163,-2.08384 -11.45989,-3.7422 -16.217893,-7.31301 -2.406381,-4.68983 5.338446,-5.59319 8.311959,-6.43542 7.7522,-1.27955 15.416504,-3.03594 23.147075,-4.41972 3.412341,-0.87417 10.259722,-1.77493 12.451675,-4.74168 -0.837124,-4.05209 -8.975848,-4.35303 -11.768945,-6.28175 -7.725127,-2.52636 -15.178604,-5.76225 -22.461311,-9.36688 -3.79467,-2.24162 -9.802266,-4.57286 -9.652186,-9.77173 2.919699,-5.1859 9.488204,-6.15121 14.682908,-7.97219 8.361751,-2.89797 16.79556,-5.55291 25.436199,-7.5115 5.881061,-1.21313 11.784584,-2.28755 17.6345434,-3.63185 3.417912,-1.2958 -6.2976211,-4.07442 -7.9418931,-4.18649 -9.7658703,-2.83712 -19.3094183,-6.35117 -28.7195603,-10.20254 -7.136906,-3.17941 -14.503249,-5.90699 -21.220476,-9.951 -1.99406,-1.59158 -5.463346,-5.05953 -1.737271,-6.8932 4.847648,-0.89147 9.605528,-2.32212 14.577265,-2.30121 4.061719,0.0313 5.315344,0.12124 9.539447,-0.11705 2.791959,-0.40286 4.43809,-1.11758 4.150967,-4.31669 0.0215,-5.54567 0.08437,-11.0923 0.338141,-16.63302 0.439106,-9.42825 1.247289,-18.82827 2.391449,-28.19846 0.992147,-10.61022 0.92622,-21.30526 2.257275,-31.89537 1.082706,-12.0916 1.222889,-24.2032 1.88293,-36.32227 0.686983,-10.09583 1.921839,-20.17113 1.688933,-30.304 0.07261,-3.69626 -0.447366,-8.30019 1.875453,-11.42277 3.443702,-1.79734 8.056104,-0.56986 11.8112958,-0.75798 4.3253059,0.21246 8.63942574,0.61284 12.8878071,1.4895 1.768891,0.33819 3.5850019,0.45954 5.3199131,0.94268 0.104336,0.0291 -0.09428,0.3121 0.01329,0.32465 2.680112,0.31262 5.462139,-0.24667 8.150034,-0.002 4.940982,-0.002 9.881962,-0.006 14.822941,-0.0132 6.581718,-0.007 13.164035,-0.0309 19.74529,0.0622 5.105602,0.11405 10.230948,0.25981 15.275063,1.13261 4.498189,0.81397 7.739404,1.95986 12.078668,1.3654 3.910756,-0.34627 7.750235,-1.03117 11.508056,-2.19733 4.202411,-0.91971 8.618904,-0.18887 12.895864,-0.25673 3.19633,0.17956 6.37048,0.56608 9.40858,1.63866 2.99819,1.07092 5.95976,1.93039 9.1395,2.25014 0.42171,0.0648 1.63207,-0.0233 1.26511,0.19439 -0.50699,0.30071 -1.17646,0.0782 -1.76543,0.10236 -0.34611,0.0142 0.7077,0.036 1.03668,-0.0724 1.45156,-0.47856 1.74231,-2.47562 2.13678,-3.66064 2.01176,-6.94905 3.10729,-14.01197 3.98281,-21.19159 1.03333,-7.76894 1.11691,-15.78754 3.85585,-23.22249 2.3015,-6.27744 7.84345,-2.70995 10.83441,0.83753 5.68238,6.84238 9.87447,14.64622 14.22714,22.36797 5.31817,9.79412 10.21546,19.80361 15.62322,29.54819 1.31854,2.14962 2.4664,4.22796 4.0882,6.16201 0.54183,0.64615 1.57693,0.97045 1.79176,1.78588 0.12141,0.46088 -1.40625,0.60634 -1.07202,0.94611 0.89529,0.91011 3.20849,-0.96094 3.64146,-1.23674 5.76072,-7.05192 9.05348,-15.61582 12.18142,-24.08581 3.99618,-10.26805 7.06716,-20.87777 11.36954,-31.00083 3.01795,-5.68967 6.55101,-9.56011 12.44133,-3.39912 5.64156,7.5585 9.19657,16.14895 12.5969,24.90317 3.41041,8.84015 5.7629,18.02233 9.56962,26.7002 2.14209,4.03263 1.14766,0.50752 -0.29377,3.71605 -0.77098,1.71618 6.85139,-7.47458 3.79559,-5.7907 1.77157,-6.06695 2.74609,-12.38329 4.31407,-18.50883 0.37417,-1.41273 2.14322,-8.32463 3.62602,-9.04175 2.26998,-1.09781 3.30479,-0.90275 5.28578,-0.76908 4.28191,2.85861 5.68061,8.91665 7.66104,13.38789 2.3531,6.17227 4.49224,12.42924 7.1751,18.47288 0.79667,1.72174 0.93992,2.52771 2.26933,3.79476 0.33399,0.31832 1.23309,0.30888 1.15451,0.76352 -0.0739,0.42743 -1.52133,0.44633 -1.29923,0.0737 0.84344,-1.4149 3.96032,-0.4938 3.87901,-3.06157 5.13726,-8.14735 9.54071,-16.76036 14.43245,-25.05661 4.20043,-7.69678 7.93041,-15.68122 12.73328,-23.03006 5.33819,-6.35603 6.61233,0.84183 7.1069,4.64077 0.45092,8.13632 1.13587,16.25662 2.25393,24.33119 0.63343,5.76319 0.15069,11.92298 2.43703,17.34674 1.5889,2.23331 0.92914,0.43207 -0.87291,2.18761 -0.20513,0.19983 0.5836,0.0266 0.85715,-0.0581 1.71912,-0.53252 3.23728,-1.7899 5.03663,-2.13587 6.75246,-2.1694 13.85318,-3.38611 20.80665,-4.69865 11.11872,-1.9083 22.27265,-3.91131 33.62122,-3.05439 8.60815,0.3774 17.2118,1.00124 25.70163,2.54675 7.34514,1.00646 14.78562,1.22958 22.0979,2.5377 0,0 -2.80155,0.39641 -2.80155,0.39641 z" />
    <path
       style="fill:#000000;fill-opacity:1;stroke:#000000;stroke-width:3;stroke-miterlimit:4;stroke-opacity:1;stroke-dasharray:none"
       id="path2828"
       d="m 956.49692,487.82934 c -8.58837,3.75218 -16.67518,8.74935 -23.48541,15.19167 -4.37245,5.54791 -9.53122,11.16607 -5.28122,18.1537 6.28264,5.12625 14.37918,2.55093 21.4255,0.6903 9.82062,-3.00809 19.19366,-7.43334 26.58571,-14.65205 4.75754,-5.36846 4.32695,-11.05833 1.28288,-17.08268 -4.41158,-6.0123 -8.27688,-12.20851 -10.70987,-19.27728 -2.35404,-7.60743 -0.39748,-11.87935 5.80525,-16.46846 8.05171,-4.0245 17.45184,-5.39962 26.19012,-2.99053 8.09772,4.11324 5.69412,10.26033 1.19173,16.26456 -5.60478,6.09308 -10.65934,7.81492 -18.66253,8.70843 0,0 -2.75253,-0.40636 -2.75253,-0.40636 l 0,0 c 7.98229,-0.79252 12.99956,-2.44543 18.61836,-8.48335 4.46079,-5.85311 6.87569,-11.79789 -1.17975,-15.71641 -7.08839,-1.83065 -14.08951,-0.46821 -20.60742,2.88761 -6.19297,4.45291 -8.12838,8.59122 -5.79286,16.11113 2.43933,7.05645 6.33375,13.21832 10.71071,19.23982 3.05641,6.13186 3.49325,11.96237 -1.29937,17.43614 -7.3842,7.27911 -16.77511,11.74238 -26.61979,14.79323 -8.50669,2.28979 -19.48386,5.11484 -27.00387,-0.90269 -4.20385,-7.21608 0.81237,-12.7968 5.31577,-18.53126 6.78243,-6.4778 14.8765,-11.50442 23.4593,-15.27783 0,0 2.80929,0.31231 2.80929,0.31231 z" />
    <path
       style="fill:#000000;fill-opacity:1;stroke:#000000;stroke-width:3;stroke-miterlimit:4;stroke-opacity:1;stroke-dasharray:none"
       id="path2830"
       d="m 690.78337,117.05158 c -6.73238,5.09156 -13.92083,9.56977 -21.75559,12.73383 -2.37618,0.59022 -10.77994,4.78036 -12.44874,1.41616 2.76018,-3.78922 6.6322,-6.74775 9.8038,-10.23903 4.29161,-5.08688 8.65331,-10.11178 13.13327,-15.03357 5.74421,-5.11996 8.03642,-0.38125 9.19369,4.82755 1.22615,9.59726 1.46174,19.33744 0.93985,28.99158 -0.65813,6.6854 -1.90859,13.14545 -4.58665,19.30468 0,0 -2.80174,-0.11584 -2.80174,-0.11584 l 0,0 c 2.70544,-6.11786 3.95125,-12.54576 4.60545,-19.20384 0.5184,-9.6285 0.28147,-19.34599 -0.97355,-28.91406 -0.38124,-1.66351 -0.58842,-3.37796 -1.51795,-4.86072 -0.26136,-0.4169 -1.22763,-0.59549 -1.03802,-1.04955 0.0648,-0.15516 3.58532,-0.83643 0.50236,-0.0458 -0.50364,0.42478 -1.00728,0.84957 -1.51093,1.27435 -4.49124,4.91314 -8.85909,9.93447 -13.14018,15.0319 -3.10645,3.44829 -6.63529,6.45906 -9.76236,9.87977 0.24593,0.32436 1.45517,0.35644 1.09359,0.54339 -0.44828,0.23177 -1.81449,0.47771 -1.51217,0.0736 0.39579,-0.52903 7.17387,-1.41563 7.23346,-2.21377 7.83558,-3.11278 15.01365,-7.56814 21.73165,-12.64754 0,0 2.81076,0.24687 2.81076,0.24687 z" />
    <path
       style="fill:#000000;fill-opacity:1;stroke:#000000;stroke-width:3;stroke-miterlimit:4;stroke-opacity:1;stroke-dasharray:none"
       id="path2832"
       d="m 259.40341,154.71198 c -7.0775,-2.02634 -14.4213,-3.92429 -21.84167,-3.53408 -8.44931,0.92062 -16.8441,2.83917 -24.9018,5.53806 -3.13976,1.08829 -14.51772,6.33401 -7.64127,-2.31763 7.33182,-7.64669 14.50141,-15.45153 21.35283,-23.53404 6.13861,-6.50736 10.70514,-14.45698 17.27648,-20.55323 1.81906,-0.44453 2.97827,-0.94013 5.05225,0.57988 0.8662,0.63483 -0.58228,13.65 -0.73568,14.88316 -1.53494,13.35103 -3.02839,26.70162 -4.59733,40.0501 -0.20299,1.89357 -0.40598,3.78713 -0.60898,5.68069 0,0 -2.78084,-0.0299 -2.78084,-0.0299 l 0,0 c 0.20614,-1.89445 0.41229,-3.7889 0.61843,-5.68335 1.58407,-13.34711 3.07443,-26.69711 4.58234,-40.0517 0.64038,-5.24173 0.67871,-4.6292 0.88715,-9.50087 0.0466,-1.08891 0.11753,-2.17974 0.0758,-3.26885 -0.0238,-0.6198 -0.60236,-1.31615 -0.27157,-1.84083 0.36326,-0.57617 1.41689,-0.26812 1.9024,-0.74583 0.31331,-0.30829 -0.87245,0.10776 -1.30868,0.16164 -6.65504,6.00704 -11.16083,14.03508 -17.32382,20.51393 -6.83538,8.0794 -13.98751,15.88505 -21.30313,23.52984 -2.92015,3.61502 -0.80976,2.47105 -5.14944,4.22874 -0.50928,0.20627 1.07791,-0.22488 1.60031,-0.39519 1.88622,-0.61494 3.67403,-1.51018 5.58565,-2.05536 8.05537,-2.74327 16.47437,-4.62558 24.92324,-5.62212 9.33971,-0.0991 18.50803,0.47362 27.41364,3.6146 0,0 -2.80631,0.35236 -2.80631,0.35236 z" />
    <path
       style="fill:#000000;fill-opacity:1;stroke:#000000;stroke-width:3;stroke-miterlimit:4;stroke-opacity:1;stroke-dasharray:none"
       id="path2836"
       d="m -109.21667,508.15351 c -8.75113,5.63952 -16.94415,11.9742 -24.6483,18.96838 -7.23101,7.22102 -13.50904,15.59765 -16.31601,25.51896 -0.73977,7.86639 1.92745,11.59968 9.8988,11.61441 0.37495,-0.23848 0.71236,-0.55018 1.12486,-0.71545 5.01695,-2.01008 3.37833,-0.64979 8.43799,-3.24532 4.51145,-2.31431 8.41503,-5.52003 12.32429,-8.69715 6.99682,-5.18985 10.96641,-12.00114 13.09438,-20.28734 1.16286,-7.98053 -4.41224,-13.66357 -9.43799,-19.11996 -6.76439,-6.20454 -12.92165,-12.9034 -17.06118,-21.14539 -3.14462,-9.52224 0.34638,-18.30406 5.81703,-26.12732 7.18169,-8.32593 15.6133,-12.95688 26.597432,-13.34872 2.304051,0.35139 4.690426,0.34985 6.912153,1.05415 1.287728,0.40822 2.367289,1.33642 3.394907,2.21328 5.412598,4.61855 5.969592,10.55519 5.974762,17.20747 -0.489355,8.99017 -4.430195,16.4444 -9.423682,23.67131 0,0 -2.75932,-0.16748 -2.75932,-0.16748 l 0,0 c 4.986618,-7.16769 8.913239,-14.56529 9.397268,-23.50339 -0.02371,-10.04947 -1.939605,-14.81151 -10.734216,-20.04633 -10.958774,0.2621 -19.379014,4.8216 -26.577164,13.09029 -5.44428,7.71535 -8.94082,16.40644 -5.80115,25.82595 4.15635,8.20718 10.31632,14.86792 17.05128,21.0686 5.08596,5.54845 10.65011,11.30615 9.45925,19.39804 -2.13281,8.33788 -6.08596,15.23276 -13.12423,20.46411 -8.1254,6.63263 -16.55731,12.54432 -27.44581,12.84649 -8.07889,-0.23021 -10.66988,-4.21349 -9.92202,-12.12741 2.81129,-9.972 9.09759,-18.39995 16.34899,-25.67293 7.68951,-7.00914 15.87677,-13.34628 24.607,-19.01437 0,0 2.81068,0.27712 2.81068,0.27712 z" />
    <path
       style="fill:#000000;fill-opacity:1;stroke:#000000;stroke-width:3;stroke-miterlimit:4;stroke-opacity:1;stroke-dasharray:none"
       id="path2838"
       d="m 480.3005,488.01145 c 6.61256,-4.51326 14.15257,-7.12303 21.90613,-8.83892 5.60059,-0.35421 12.11011,-1.07313 16.75685,2.67465 3.27613,4.49979 -0.98616,9.4188 -3.70987,13.04269 -4.36929,5.68884 -9.64854,10.44762 -15.21569,14.91354 -3.48612,2.81611 -5.12543,5.94254 -1.88634,9.46547 3.01123,2.60355 6.90158,3.92245 8.93147,7.52782 0.1285,6.91657 -8.64609,10.96335 -13.56291,14.222 -5.63023,3.59588 -11.97444,5.46294 -18.30199,7.3608 0,0 -2.74277,-0.35326 -2.74277,-0.35326 l 0,0 c 6.31522,-1.87319 12.64969,-3.7109 18.2739,-7.28139 4.73968,-3.14665 13.52036,-7.1398 13.50369,-13.79996 -2.08578,-3.52724 -6.00455,-4.79534 -8.92712,-7.4691 -3.22106,-3.68097 -1.696,-7.00447 1.90712,-9.92421 5.5611,-4.44854 10.8556,-9.16132 15.21363,-14.84329 2.61196,-3.45415 6.96502,-8.31133 3.69437,-12.60438 -3.24762,-2.4597 -7.28711,-2.94641 -11.15191,-2.55193 -7.73711,1.67326 -15.26209,4.2395 -21.87192,8.71254 0,0 -2.81664,-0.25307 -2.81664,-0.25307 z" />
    <path
       style="fill:#000000;fill-opacity:1;stroke:#000000;stroke-width:3;stroke-miterlimit:4;stroke-opacity:1;stroke-dasharray:none"
       id="path2840"
       d="m 505.29251,631.84026 c 3.63705,9.52687 5.32992,19.6065 6.56789,29.68138 0.74277,6.65904 0.96548,13.3591 1.03876,20.05416 -0.24447,4.00122 1.64477,5.03506 -2.87066,2.5286 0,0 2.83602,-0.003 2.83602,-0.003 l 0,0 c -4.49351,2.51209 -2.52227,1.44508 -2.7927,-2.52271 -0.0538,-6.68437 -0.27025,-13.3738 -1.00376,-20.02283 -1.22566,-10.05212 -2.90521,-20.11733 -6.5957,-29.60114 0,0 2.82015,-0.11425 2.82015,-0.11425 z" />
    <path
       style="fill:#000000;fill-opacity:1;stroke:#000000;stroke-width:3;stroke-miterlimit:4;stroke-opacity:1;stroke-dasharray:none"
       id="path2842"
       d="m 579.6995,610.99863 c -4.19932,3.26026 -8.56775,6.50507 -13.38305,8.80916 -2.38646,0.99686 -5.44908,0.58325 -7.00444,2.91694 -1.08678,4.01961 -0.81901,8.32107 -0.83423,12.45436 -0.39485,5.52136 0.50327,10.88325 1.78538,16.22405 0.59805,0.91099 1.30808,6.55743 -1.14218,1.95562 -0.2369,-0.44491 0.74005,-0.69059 1.0505,-1.0877 0.38258,-0.48937 0.67959,-1.03998 1.01938,-1.55998 2.48358,-4.36106 5.78515,-7.88093 9.81439,-10.81048 3.96103,-3.01115 9.59966,-3.92222 13.21546,0.01 4.12661,4.94202 4.54598,11.03379 4.40724,17.19179 -0.42846,8.26179 -3.62595,15.43963 -7.43864,22.59803 -2.95667,4.82042 -6.16595,9.72074 -10.41903,13.50899 -1.04111,1.00464 -2.0468,1.47021 -3.45305,1.58621 0,0 -2.80873,-0.43656 -2.80873,-0.43656 l 0,0 c 1.43057,0.0364 2.36795,-0.38832 3.43965,-1.38974 4.27916,-3.72671 7.47709,-8.61645 10.43779,-13.40634 3.80027,-7.11861 7.01857,-14.24011 7.43419,-22.46686 0.13496,-6.09203 -0.28548,-12.11831 -4.42329,-16.97078 -0.43141,-0.44042 -0.79577,-0.95848 -1.29425,-1.32126 -0.47504,-0.34572 -1.29236,-0.26324 -1.58386,-0.77336 -0.17136,-0.29989 1.3525,-0.27698 1.01025,-0.23047 -2.1378,0.29056 -4.0487,0.93523 -5.71345,2.3666 -4.02063,2.89915 -7.34494,6.3462 -9.79725,10.70599 -1.97421,3.12586 -5.92266,6.2091 -6.58645,0.59657 -1.26437,-5.3651 -2.15902,-10.75016 -1.77179,-16.2909 0.006,-4.18966 -0.24824,-8.52894 0.81266,-12.61285 1.49558,-2.52318 4.51015,-2.18128 7.02935,-3.07766 4.83529,-2.22632 9.1922,-5.50061 13.38081,-8.7423 0,0 2.81664,0.25307 2.81664,0.25307 z" />
    <path
       style="fill:#000000;fill-opacity:1;stroke:#000000;stroke-width:3;stroke-miterlimit:4;stroke-opacity:1;stroke-dasharray:none"
       id="path2844"
       d="m 604.95411,611.51013 c 3.93257,9.47405 6.68711,19.36914 9.23471,29.28875 2.82144,11.7112 3.47559,23.76456 4.98614,35.67953 0.8317,6.39438 1.57071,12.79963 2.11535,19.22503 -1.60648,-1.44847 0.57004,1.5368 0.1316,1.38534 -0.97777,-0.33779 -2.11984,-0.53113 -2.82242,-1.29041 -0.78897,-0.85265 0.71556,-6.59461 0.83422,-7.39178 1.83098,-10.44068 4.84843,-20.56547 8.36668,-30.54605 3.16827,-9.82632 7.20648,-19.30352 11.93924,-28.4643 1.69325,-1.97224 1.94216,-5.65483 4.19117,-7.17983 0,0 2.8348,0.31015 2.8348,0.31015 l 0,0 c -2.33951,0.85149 -2.57455,5.46037 -4.22262,7.00375 -4.74834,9.14463 -8.81135,18.60116 -11.97216,28.42416 -3.51136,9.96154 -6.51502,20.06887 -8.32312,30.49328 -0.27232,1.86787 -0.6466,3.72456 -0.80193,5.60577 -0.048,0.58135 0.39207,1.32409 -0.007,1.74997 -0.71977,0.76899 -1.87078,0.98861 -2.86962,1.32288 -0.44395,0.14857 1.05608,-2.76985 -0.11577,-1.39967 -0.51114,-6.42249 -1.24111,-12.82336 -2.06177,-19.21333 -1.49726,-11.90438 -2.15542,-23.94582 -4.97603,-35.64469 -2.55342,-9.91706 -5.32132,-19.80827 -9.2888,-29.26757 0,0 2.82688,-0.091 2.82688,-0.091 z" />
  </g>
</svg>
