<?xml version="1.0" encoding="UTF-8" standalone="no"?>
<!-- Created with Inkscape (http://www.inkscape.org/) -->

<svg
   xmlns:dc="http://purl.org/dc/elements/1.1/"
   xmlns:cc="http://creativecommons.org/ns#"
   xmlns:rdf="http://www.w3.org/1999/02/22-rdf-syntax-ns#"
   xmlns:svg="http://www.w3.org/2000/svg"
   xmlns="http://www.w3.org/2000/svg"
   xmlns:sodipodi="http://sodipodi.sourceforge.net/DTD/sodipodi-0.dtd"
   xmlns:inkscape="http://www.inkscape.org/namespaces/inkscape"
   width="1829.7224"
   height="882.83044"
   id="svg2"
   version="1.1"
   inkscape:version="0.47pre4 r22446"
   sodipodi:docname="New document 1">
  <sodipodi:namedview
     id="base"
     pagecolor="#ffffff"
     bordercolor="#666666"
     borderopacity="1.0"
     inkscape:pageopacity="0.0"
     inkscape:pageshadow="2"
     inkscape:zoom="0.35"
     inkscape:cx="525.31603"
     inkscape:cy="362.57131"
     inkscape:document-units="px"
     inkscape:current-layer="layer1"
     showgrid="false"
     inkscape:window-width="1280"
     inkscape:window-height="726"
     inkscape:window-x="0"
     inkscape:window-y="25"
     inkscape:window-maximized="1" />
  <defs
     id="defs4">
    <inkscape:perspective
       id="perspective10"
       inkscape:persp3d-origin="372.04724 : 350.78739 : 1"
       inkscape:vp_z="744.09448 : 526.18109 : 1"
       inkscape:vp_y="0 : 1000 : 0"
       inkscape:vp_x="0 : 526.18109 : 1"
       sodipodi:type="inkscape:persp3d" />
  </defs>
  <metadata
     id="metadata7">
    <rdf:RDF>
      <cc:Work
         rdf:about="">
        <dc:format>image/svg+xml</dc:format>
        <dc:type
           rdf:resource="http://purl.org/dc/dcmitype/StillImage" />
        <dc:title></dc:title>
      </cc:Work>
    </rdf:RDF>
  </metadata>
  <g
     id="layer1"
     inkscape:groupmode="layer"
     inkscape:label="Layer 1"
     transform="translate(313.17317,-43.531607)">
    <path
       d="m -220.29709,539.98458 c -10.93865,6.08675 -22.92644,9.1781 -35.27269,10.59025 -14.68549,0.14618 -29.03147,-4.0117 -40.71323,-13.11452 -2.2058,-1.71883 -4.13856,-3.76191 -6.20784,-5.64287 -10.14449,-12.01243 -12.55888,-27.13114 -9.36127,-42.3112 0.73724,-3.49993 1.96328,-6.87878 2.94491,-10.31816 8.21185,-20.17485 22.40354,-36.80024 39.39324,-50.20529 3.70465,-2.923 7.65754,-5.51683 11.4863,-8.27525 19.52348,-11.82015 40.64886,-22.8996 63.9589,-23.85937 3.89017,-0.16017 7.78249,0.263 11.67374,0.3945 8.38299,1.45563 13.53142,1.6328 21.14393,5.743 10.63566,5.74249 19.2649,15.59986 25.34737,25.84814 2.15916,3.63795 3.77825,7.57043 5.66738,11.35564 7.63221,18.90697 10.49187,39.75339 4.24391,59.54177 -1.19382,3.78106 -3.0211,7.33209 -4.53165,10.99814 -9.56057,18.39263 -24.94248,31.88843 -43.82612,40.26333 -3.33317,1.47826 -6.8974,2.36789 -10.34611,3.55184 -13.9737,2.57847 -6.97827,1.86976 -20.98132,2.17482 0,0 2.19549,-1.60298 2.19549,-1.60298 l 0,0 c 13.96658,-0.34891 6.9897,0.38033 20.92536,-2.23764 3.43893,-1.19266 6.95008,-2.19452 10.31679,-3.57797 17.31063,-7.1133 30.47702,-21.27043 39.26499,-37.44138 1.51695,-3.6521 3.35044,-7.18828 4.55085,-10.9563 6.28311,-19.72239 3.45344,-40.52292 -4.14847,-59.38364 -1.88267,-3.77384 -3.49471,-7.69528 -5.64799,-11.32153 -6.06394,-10.21199 -14.6672,-20.00396 -25.28194,-25.69749 -7.59881,-4.07585 -12.72222,-4.24186 -21.0834,-5.67685 -3.88136,-0.12243 -7.76446,-0.53618 -11.64408,-0.36729 -21.40337,0.93173 -41.32117,10.35875 -59.31597,21.27008 -3.83178,2.75125 -7.78763,5.33747 -11.49534,8.25376 -16.97996,13.35558 -31.17121,29.92352 -39.41385,50.04355 -0.98414,3.42582 -2.21166,6.79092 -2.95243,10.27748 -3.20583,15.08875 -0.85211,30.12888 9.2509,42.07044 2.06125,1.86979 3.98657,3.90137 6.18375,5.60936 11.65705,9.06165 25.9755,13.16529 40.61497,12.9475 12.35333,-1.45893 24.33134,-4.59655 35.26822,-10.70951 0,0 -2.2073,1.76564 -2.2073,1.76564 z"
       id="path2816"
       style="opacity:0.8;color:#000000;fill:#000000;fill-opacity:1;fill-rule:nonzero;stroke:none;stroke-width:1.54799998;marker:none;visibility:visible;display:inline;overflow:visible;enable-background:accumulate" />
    <path
       d="m -195.88622,437.31314 c -0.0246,10.06582 -0.0169,20.13168 -0.0111,30.19751 -0.89549,5.41759 -0.32375,11.63161 -2.63472,16.73951 0,0 -2.58382,1.1746 -2.58382,1.1746 l 0,0 c 2.50303,-4.96345 1.73409,-11.31886 2.72748,-16.64485 0.006,-10.06206 0.0135,-20.12415 -0.0111,-30.18619 0,0 2.51328,-1.28058 2.51328,-1.28058 z"
       id="path2818"
       style="opacity:0.8;color:#000000;fill:#000000;fill-opacity:1;fill-rule:nonzero;stroke:none;stroke-width:1.54799998;marker:none;visibility:visible;display:inline;overflow:visible;enable-background:accumulate" />
    <path
       d="m -213.60767,457.24614 c 10.86678,0.41303 21.67083,-0.42967 32.49125,-1.28832 9.63072,-1.33754 19.22275,-2.90593 28.90642,-3.81887 1.05239,-0.0846 2.10478,-0.16921 3.15718,-0.25382 0,0 -2.26408,1.67279 -2.26408,1.67279 l 0,0 c -1.04927,0.084 -2.09854,0.16793 -3.14781,0.25189 -9.67491,0.91833 -19.25805,2.49079 -28.88475,3.79758 -10.83801,0.86 -21.66009,1.67068 -32.5439,1.2994 0,0 2.28569,-1.66065 2.28569,-1.66065 z"
       id="path2820"
       style="opacity:0.8;color:#000000;fill:#000000;fill-opacity:1;fill-rule:nonzero;stroke:none;stroke-width:1.54799998;marker:none;visibility:visible;display:inline;overflow:visible;enable-background:accumulate" />
    <path
       d="m -228.24734,516.88436 c 9.9285,-1.41726 19.96328,-1.80992 29.97431,-2.16568 9.0211,-0.26756 18.04659,-0.32325 27.07107,-0.3447 2.26185,-0.0385 8.91389,-0.38928 7.64336,3.60703 0,0 -2.58302,1.19291 -2.58302,1.19291 l 0,0 c 1.79636,-3.48255 -5.74011,-3.2357 -7.33419,-3.14719 -9.01524,0.0154 -18.03161,0.0625 -27.04338,0.33613 -10.01721,0.35733 -20.06089,0.75554 -29.98945,2.22219 0,0 2.2613,-1.70069 2.2613,-1.70069 z"
       id="path2822"
       style="opacity:0.8;color:#000000;fill:#000000;fill-opacity:1;fill-rule:nonzero;stroke:none;stroke-width:1.54799998;marker:none;visibility:visible;display:inline;overflow:visible;enable-background:accumulate" />
    <path
       d="m -187.63654,419.56525 c -3.61006,-8.53771 -6.3054,-17.36063 -8.7748,-26.27981 -3.37589,-13.88151 -5.66097,-27.98758 -8.19826,-42.03683 -2.99774,-17.61872 -5.58048,-35.30344 -8.51129,-52.93277 -3.03296,-16.52191 -6.42553,-32.97094 -9.74821,-49.4358 -2.49514,-11.60931 -5.12935,-23.18664 -8.79289,-34.48898 -0.79998,-4.58146 -3.91026,-9.49043 -3.40009,-14.25715 3.69855,-4.12921 10.48983,-3.02841 15.42584,-3.03642 14.00221,0.0423 27.99973,0.29145 41.99497,-0.20209 22.69302,-0.98159 45.30872,-3.33233 67.874,-5.86415 23.764317,-2.36092 47.420045,-5.55751 71.051018,-8.96939 17.949405,-2.69106 35.8287826,-5.74516 53.592989,-9.46577 7.514769,-2.43707 15.779171,-1.90729 23.291521,-4.14595 3.333589,-1.68806 -0.17348,0.20316 -0.293923,0.2454 -0.134269,0.0471 0.19076,-0.23049 0.210357,-0.37142 0.04584,-0.32967 -0.589916,-0.53468 -0.784519,-0.62292 -0.818592,-0.306 0.303423,-2.24719 0.464628,-2.90839 0,0 2.558703,-1.23067 2.558703,-1.23067 l 0,0 c -0.198048,0.88755 -1.060648,2.59477 -0.641143,2.57167 3.021104,1.6401 -2.088263,3.37282 -3.757104,4.0433 -7.55514,2.06537 -15.716398,1.75235 -23.250856,4.08942 -17.7532319,3.69878 -35.621371,6.73202 -53.55622,9.41662 -23.629686,3.40697 -47.285123,6.59089 -71.046891,8.95564 -22.58065,2.52919 -45.21033,4.88698 -67.91834,5.87108 -14.01645,0.49102 -28.0354,0.2568 -42.05884,0.23758 -3.11494,0.0121 -6.29222,-0.0985 -9.39832,0.22299 -0.5638,0.0584 -1.36141,0.747 -1.67775,0.27668 -0.28895,-0.42958 0.79656,-0.66172 1.20346,-0.98181 0.25024,-0.19685 -0.48889,0.40799 -0.73334,0.61199 -0.76712,4.64283 2.64717,9.68615 3.3016,14.16648 3.64274,11.32304 6.28635,22.91051 8.77225,34.53608 3.3091,16.4726 6.69842,32.92738 9.73444,49.45368 2.93173,17.62664 5.51264,35.30917 8.5199,52.92379 2.5434,14.03629 4.8343,28.12936 8.21938,41.99674 2.47257,8.9103 5.15008,17.73448 8.80519,26.24674 0,0 -2.47746,1.36444 -2.47746,1.36444 z"
       id="path2824"
       style="opacity:0.8;color:#000000;fill:#000000;fill-opacity:1;fill-rule:nonzero;stroke:none;stroke-width:1.54799998;marker:none;visibility:visible;display:inline;overflow:visible;enable-background:accumulate" />
    <path
       d="m -175.55134,553.74976 c 1.57761,11.28044 2.05507,22.68538 1.83229,34.06143 -0.71742,17.57169 -1.44318,35.13138 -2.67584,52.67465 -1.32278,17.51436 -1.89631,35.06738 -2.20747,52.62455 -0.70307,12.89664 -1.85791,25.76041 -2.51805,38.65998 -0.93251,5.94778 -1.41803,12.12076 -3.15522,17.90773 -1.27748,3.41455 -3.04629,6.60703 -4.76689,9.81282 -1.89162,2.99693 -3.05717,6.28513 -3.63836,9.76163 -0.88905,4.47107 3.57906,4.50408 6.88982,4.4472 12.93251,-0.93093 25.48104,-4.78882 37.97975,-8.02744 21.02407,-5.67459 42.14034,-10.90755 63.414658,-15.54738 20.103642,-4.98776 40.678454,-7.4116 61.195482,-9.94881 12.90181,-1.54838 25.8712853,-2.42564 38.855504,-2.84194 3.818062,0.0336 9.168977,-1.41192 11.013599,2.88367 -0.06227,1.35985 1.632482,5.86098 0.188087,6.96381 -0.985732,0.75263 -2.173479,1.19519 -3.260218,1.79278 0,0 2.240082,-1.75396 2.240082,-1.75396 l 0,0 c -0.52055,0.38472 -0.933869,0.99645 -1.561649,1.15415 -0.305715,0.0768 0.332536,-0.55092 0.392342,-0.86041 0.367302,-1.90071 -0.294463,-4.03335 -0.474556,-5.90707 -1.718054,-4.10842 -7.255638,-2.50351 -10.796122,-2.62113 -12.96208881,0.40876 -25.909768,1.27567 -38.789226,2.82437 -20.505976,2.53442 -41.067367,4.96288 -61.159111,9.95267 -21.281572,4.64167 -42.401102,9.89374 -63.431302,15.57344 -12.53063,3.25229 -25.11402,7.12794 -38.08629,8.02203 -3.46169,9.5e-4 -8.03247,-0.24244 -7.15806,-4.85943 0.55423,-3.50415 1.69351,-6.83492 3.60388,-9.84978 1.72853,-3.18883 3.46537,-6.38154 4.79084,-9.76279 1.81441,-5.74693 2.21865,-11.94547 3.22236,-17.86328 0.67237,-12.90297 1.83357,-25.76999 2.55751,-38.66947 0.31893,-17.56407 0.88926,-35.12383 2.21645,-52.64505 1.22677,-17.53544 1.95441,-35.08616 2.65825,-52.65028 0.22092,-11.35028 -0.25364,-22.73309 -1.87204,-33.98269 0,0 2.4995,-1.326 2.4995,-1.326 z"
       id="path2828"
       style="opacity:0.8;color:#000000;fill:#000000;fill-opacity:1;fill-rule:nonzero;stroke:none;stroke-width:1.54799998;marker:none;visibility:visible;display:inline;overflow:visible;enable-background:accumulate" />
    <path
       d="m 15.877228,102.32119 c 3.122752,13.85637 6.159359,27.73371 8.66381,41.71775 5.111631,29.12924 8.936459,58.4357 11.881275,87.85639 4.231616,44.34852 6.895503,88.83393 9.424886,133.30706 2.697077,49.55208 5.875924,99.0718 9.399161,148.57169 3.978769,46.3904 7.039358,92.84091 9.899703,139.30997 2.709505,39.63794 3.958296,79.33117 2.683117,119.04317 -0.718045,25.65547 -3.21046,51.19835 -5.007024,76.78698 -0.859914,12.66103 -1.301951,25.34461 -1.556281,38.03063 0,0 -2.515287,1.27416 -2.515287,1.27416 l 0,0 c 0.342662,-12.70328 0.744254,-25.40744 1.638229,-38.08649 1.820777,-25.59944 4.348007,-51.15161 5.092973,-76.81888 1.322197,-39.71477 0.09339,-79.41258 -2.605549,-119.05543 C 60.025575,607.78653 56.966926,561.33397 52.995889,514.94094 49.480576,465.43867 46.31068,415.91655 43.60019,366.36346 41.058969,321.90602 38.371626,277.43679 34.102418,233.1068 31.136105,203.70699 27.292571,174.42138 22.136251,145.3186 c -2.519307,-13.9723 -5.555895,-27.84188 -8.758523,-41.67141 0,0 2.4995,-1.326 2.4995,-1.326 z"
       id="path2830"
       style="opacity:0.8;color:#000000;fill:#000000;fill-opacity:1;fill-rule:nonzero;stroke:none;stroke-width:1.54799998;marker:none;visibility:visible;display:inline;overflow:visible;enable-background:accumulate" />
    <path
       d="m 17.494407,103.31998 c 12.863125,2.84332 26.012498,3.79382 39.130926,4.54432 19.022073,1.22083 38.059441,-0.13187 57.071977,-0.85186 23.19126,0.0312 46.3731,0.84733 69.56062,1.23812 25.25525,0.36816 50.51356,0.42386 75.77102,0.4595 19.25042,-0.031 38.36855,-2.25865 57.50166,-4.07952 4.85774,-0.5683 9.74547,-0.62469 14.54817,-1.60695 2.21172,-0.45235 3.73628,-1.17943 5.92632,-0.57843 3.11798,2.71492 -0.0977,9.2744 -0.87684,12.56148 -4.0268,13.48288 -6.90899,27.1971 -8.91734,41.11488 -3.8213,24.39528 -4.75773,49.08024 -5.4552,73.72108 -0.52539,33.40306 0.48986,66.83762 1.76335,100.21762 1.84983,36.48167 2.17404,73.01201 3.36348,109.51396 0.90814,31.27825 2.34543,62.52744 3.87923,93.77935 1.06693,24.27078 2.89994,48.49377 3.87349,72.77049 0.91297,22.66317 1.89765,45.33906 3.28152,67.98016 0.99998,24.12639 3.3282,48.1358 6.32257,72.0873 3.17988,21.04537 7.02196,41.99281 11.9692,62.69596 4.02422,15.61173 9.3527,30.86935 15.89883,45.5964 4.14207,8.83775 8.85859,17.48848 14.60567,25.39324 2.76854,3.87121 4.99636,6.7544 1.20371,10.60107 -7.19989,5.14518 -15.89306,6.94795 -24.31736,9.03638 -16.85687,3.0926 -33.85881,5.42871 -50.79641,8.07853 -21.91184,3.08588 -43.92287,5.40808 -65.99992,6.89537 -22.66544,1.53453 -45.26601,3.38905 -67.83054,6.01094 -17.57719,2.32395 -35.11654,5.45336 -52.87435,5.86269 -2.00149,-0.15958 -4.00297,-0.31916 -6.00446,-0.47875 0,0 2.25942,-1.61466 2.25942,-1.61466 l 0,0 c 1.99297,0.15409 3.98594,0.30819 5.97891,0.46229 17.73656,-0.43406 35.25573,-3.53383 52.81431,-5.84967 22.56552,-2.61905 45.16936,-4.45545 67.83461,-5.99774 22.07703,-1.4968 44.08904,-3.82263 65.99938,-6.92466 16.94945,-2.65441 33.96653,-4.98747 50.82686,-8.13213 6.54502,-1.63268 13.71184,-3.0301 19.49133,-6.2676 3.91952,-3.68903 1.73915,-6.37629 -1.00652,-10.25062 -5.73639,-7.93689 -10.4481,-16.60931 -14.59354,-25.46769 -6.53801,-14.7508 -11.87539,-30.02471 -15.89056,-45.65845 -4.94487,-20.71648 -8.7766,-41.67827 -11.95793,-62.73578 -2.99604,-23.9564 -5.32305,-47.97087 -6.33174,-72.10176 -1.39003,-22.64122 -2.38211,-45.31766 -3.29171,-67.98139 -0.96356,-24.28168 -2.78414,-48.50999 -3.83855,-72.78582 -1.51296,-31.26122 -2.94261,-62.51914 -3.8366,-93.80611 -1.18472,-36.50187 -1.4959,-73.03252 -3.36108,-109.51347 -1.28746,-33.37839 -2.30734,-66.81137 -1.80978,-100.21356 0.67591,-24.63811 1.58289,-49.32037 5.377,-73.71661 1.98323,-13.91303 4.82733,-27.62854 8.8443,-41.1065 0.62658,-2.69451 3.82847,-10.09541 1.06567,-12.16351 -2.11821,-0.47042 -3.7137,0.23716 -5.83151,0.65313 -4.79715,0.94226 -9.6752,1.00344 -14.52167,1.56196 -19.12164,1.80215 -38.22889,4.01014 -57.46627,4.02107 -25.25762,-0.0449 -50.51603,-0.0982 -75.77149,-0.4642 -23.1907,-0.38713 -46.37609,-1.20711 -69.57059,-1.21251 -19.026065,0.73 -38.077865,2.07453 -57.113727,0.84996 -13.146407,-0.75504 -26.312493,-1.73504 -39.21407,-4.52222 0,0 2.316224,-1.62508 2.316224,-1.62508 z"
       id="path2832"
       style="opacity:0.8;color:#000000;fill:#000000;fill-opacity:1;fill-rule:nonzero;stroke:none;stroke-width:1.54799998;marker:none;visibility:visible;display:inline;overflow:visible;enable-background:accumulate" />
    <path
       d="m 122.19112,156.40745 c -9.63467,1.42553 -15.70298,8.42748 -21.52907,15.62298 -7.017411,10.23745 -9.945794,22.44604 -12.063602,34.49758 -1.139894,9.75679 -2.497346,19.49499 -5.422101,28.89233 -1.786765,5.58791 -4.75323,10.69094 -11.306079,10.83746 -0.624208,-0.17812 -1.248417,-0.35624 -1.872625,-0.53437 0,0 2.333998,-1.60332 2.333998,-1.60332 l 0,0 c 0.607572,0.15495 1.215143,0.3099 1.822714,0.46486 0.642704,-0.0349 1.389809,-0.45761 1.928114,-0.10474 0.321499,0.21075 -1.08396,1.06182 -0.745161,0.88018 3.006103,-1.6116 4.124412,-5.91811 5.303657,-8.74382 2.964152,-9.38099 4.328591,-19.11675 5.459332,-28.86989 2.11681,-12.08292 5.02931,-24.32772 12.006432,-34.62568 6.893681,-8.58632 14.992991,-16.51972 26.346031,-18.40629 0,0 -2.26164,1.69272 -2.26164,1.69272 z"
       id="path2834"
       style="opacity:0.8;color:#000000;fill:#000000;fill-opacity:1;fill-rule:nonzero;stroke:none;stroke-width:1.54799998;marker:none;visibility:visible;display:inline;overflow:visible;enable-background:accumulate" />
    <path
       d="m 60.396549,225.80747 c 7.716458,-5.5229 16.419679,-8.38854 25.612653,-10.14727 5.650073,-1.28477 11.238546,-0.85442 16.893458,-0.006 0,0 -2.30563,1.62355 -2.30563,1.62355 l 0,0 c -5.633079,-0.8354 -11.200738,-1.20976 -16.822823,0.0726 -7.23899,1.40887 -14.544413,3.26373 -20.753121,7.40419 0,0 -2.624537,1.05325 -2.624537,1.05325 z"
       id="path2836"
       style="opacity:0.8;color:#000000;fill:#000000;fill-opacity:1;fill-rule:nonzero;stroke:none;stroke-width:1.54799998;marker:none;visibility:visible;display:inline;overflow:visible;enable-background:accumulate" />
    <path
       d="m 127.3058,210.89262 c 1.47388,6.31418 3.3866,12.48146 5.80981,18.49238 0.93249,1.7488 1.02822,4.97021 3.51545,3.64784 3.12818,-1.79314 4.59587,2.74409 5.80361,4.89254 2.36256,5.10992 5.10376,10.0359 7.49917,15.12763 0.96874,2.62909 2.55172,4.98303 4.7203,6.76152 0.0861,-0.0724 0.17222,-0.14481 0.25833,-0.21721 0,0 -2.25794,1.74305 -2.25794,1.74305 l 0,0 c -0.13864,-0.005 -0.27728,-0.0102 -0.41592,-0.0153 -2.16853,-1.8358 -3.78662,-4.21002 -4.76055,-6.88172 -2.38579,-5.08857 -5.12513,-10.00768 -7.49269,-15.10715 -1.22303,-2.16234 -2.50261,-6.35848 -5.58435,-4.53121 -2.61943,1.03388 -2.85501,-2.25564 -3.75026,-4.04308 -2.41453,-6.03559 -4.32952,-12.21913 -5.84446,-18.54326 0,0 2.4995,-1.326 2.4995,-1.326 z"
       id="path2838"
       style="opacity:0.8;color:#000000;fill:#000000;fill-opacity:1;fill-rule:nonzero;stroke:none;stroke-width:1.54799998;marker:none;visibility:visible;display:inline;overflow:visible;enable-background:accumulate" />
    <path
       d="m 176.20902,174.07873 c 3.02258,11.73011 3.72741,23.87197 4.37417,35.91698 0.55644,12.56378 0.65106,25.14164 0.69873,37.71573 0.0141,3.84952 0.007,7.69907 0.005,11.5486 0,0 -2.52675,1.28613 -2.52675,1.28613 l 0,0 c 0.0301,-3.8553 0.0317,-7.71074 0.0334,-11.56614 -0.0259,-12.57484 -0.10591,-25.15363 -0.66294,-37.71824 -0.64726,-12.0171 -1.34027,-24.13799 -4.40156,-35.83147 0,0 2.47955,-1.35159 2.47955,-1.35159 z"
       id="path2840"
       style="opacity:0.8;color:#000000;fill:#000000;fill-opacity:1;fill-rule:nonzero;stroke:none;stroke-width:1.54799998;marker:none;visibility:visible;display:inline;overflow:visible;enable-background:accumulate" />
    <path
       d="m 218.40152,159.82749 c -0.45505,11.48798 0.92749,22.88352 2.50114,34.2342 1.72251,12.05909 3.83153,24.03363 5.03606,36.16329 0.80744,7.52188 0.6321,15.08405 -1.82893,22.26593 0,0 -2.54457,1.19081 -2.54457,1.19081 l 0,0 c 2.52743,-7.13242 2.69722,-14.67485 1.90593,-22.16875 -1.18782,-12.13001 -3.29746,-24.10223 -5.01899,-36.15984 -1.5759,-11.35437 -2.96999,-22.7508 -2.56797,-34.24299 0,0 2.51733,-1.28265 2.51733,-1.28265 z"
       id="path2842"
       style="opacity:0.8;color:#000000;fill:#000000;fill-opacity:1;fill-rule:nonzero;stroke:none;stroke-width:1.54799998;marker:none;visibility:visible;display:inline;overflow:visible;enable-background:accumulate" />
    <path
       d="m 73.685643,351.5548 c 3.673002,11.48045 7.585354,22.87779 11.171668,34.38726 2.324177,5.60002 3.364489,15.62264 7.173723,20.39991 -0.440603,0.82 2.04512,-0.36331 1.535686,-0.26247 -0.519659,0.10286 -1.195884,0.98073 -1.49371,0.54264 -0.310169,-0.45625 0.667981,-0.88311 0.933483,-1.36672 0.807112,-1.47015 0.971041,-2.34078 1.462529,-3.96516 0.306688,-1.27441 1.512252,-7.81726 3.009667,-8.15028 1.019187,-0.22666 2.069016,-0.28221 3.103521,-0.42332 1.58527,2.79926 2.10348,7.0602 5.88765,7.26858 2.44019,-0.92991 6.40066,-8.02571 8.59386,-12.23752 3.85416,-8.45252 6.34137,-17.3908 9.01518,-26.25856 1.50277,-4.57581 3.12787,-9.03083 5.54929,-13.19767 0,0 2.57189,-1.14266 2.57189,-1.14266 l 0,0 c -2.46006,4.1364 -4.07433,8.5782 -5.58852,13.142 -2.68029,8.8796 -5.17658,17.82597 -8.99576,26.30663 -3.11679,6.04923 -6.50946,12.75629 -13.45714,15.03304 -3.82314,-0.52212 -4.413281,-4.50847 -6.029238,-7.47406 4.072958,-4.13507 1.318299,-1.81093 0.797913,-0.65636 -0.939179,2.08372 -1.530578,4.33313 -1.903528,6.57984 -0.921309,3.17481 -3.029576,8.98271 -7.42926,7.71514 -3.982331,-5.15568 -4.700751,-14.58675 -7.170425,-20.51934 -3.572094,-11.50591 -7.478722,-22.89608 -11.202041,-34.35222 0,0 2.463562,-1.3687 2.463562,-1.3687 z"
       id="path2844"
       style="opacity:0.8;color:#000000;fill:#000000;fill-opacity:1;fill-rule:nonzero;stroke:none;stroke-width:1.54799998;marker:none;visibility:visible;display:inline;overflow:visible;enable-background:accumulate" />
    <path
       d="m 164.97878,370.35754 c -8.60101,5.07501 -14.44943,12.3425 -18.9112,21.12427 -3.77951,8.41329 -4.29512,17.07605 -1.50541,25.79291 2.92641,5.71564 5.3465,7.30824 11.10106,4.3947 -0.15271,0.0152 -0.55213,0.16692 -0.45811,0.0456 0.49959,-0.64444 1.16584,-1.14034 1.74877,-1.71051 0.58903,-0.68287 1.21832,-1.33299 1.76709,-2.04861 1.57809,-2.0579 2.76155,-4.27585 3.83061,-6.62233 1.36724,-2.88976 4.79483,-7.9097 8.46566,-5.37115 2.52619,2.56532 3.30708,6.28316 4.8027,9.48388 0.88414,1.11437 1.73476,2.55373 2.9898,3.32603 0.4533,0.27895 1.98324,-0.30308 1.59559,0.0616 -0.42899,0.40363 -1.05433,0.52553 -1.5815,0.78829 2.97835,-3.91222 4.42455,-8.731 6.31976,-13.21074 1.96025,-4.50578 3.48422,-9.1657 4.61787,-13.94216 4.38428,-5.45307 5.60309,2.14316 6.44377,4.97816 0.91469,5.57619 3.87535,10.31631 6.63161,15.11993 2.03233,3.9012 4.26137,8.22096 9.22499,6.67838 -0.1488,0.0637 -0.54544,0.31908 -0.44639,0.19107 0.56037,-0.72413 1.30657,-1.29163 1.86159,-2.01987 3.29122,-4.31837 5.06764,-9.87625 6.86569,-14.926 2.66338,-7.56876 4.81904,-15.30178 7.46634,-22.87492 0,0 2.5334,-1.18493 2.5334,-1.18493 l 0,0 c -2.66484,7.56772 -4.81186,15.30386 -7.46688,22.87608 -1.68264,4.7768 -4.37525,13.96001 -8.62265,17.11404 -1.36945,1.01693 -2.9575,1.70038 -4.43626,2.55057 -5.06516,1.24665 -7.35942,-2.98272 -9.4227,-6.99492 -2.76514,-4.8205 -5.74185,-9.58186 -6.6686,-15.17434 -0.53341,-1.79382 -0.97303,-3.88536 -1.77118,-5.5886 -0.1501,-0.32031 -0.75023,-0.52598 -0.62576,-0.85709 0.26766,-0.712 1.0653,-1.08691 1.57037,-1.65567 0.17494,-0.19699 -0.3856,0.35908 -0.5784,0.53862 -1.14114,4.79263 -2.65657,9.47341 -4.62211,13.99649 -1.91867,4.51511 -3.40536,9.2887 -6.22548,13.35343 -4.81215,2.77865 -4.96683,2.59658 -8.11753,-1.74891 -1.46972,-3.15062 -2.23809,-6.83321 -4.73353,-9.34357 -1.72416,-1.08647 -1.8847,0.28534 -0.29233,-1.61234 1.35416,-1.61382 -4.67325,4.18674 -3.20846,4.27348 -2.51887,5.66581 -6.01922,10.40223 -11.66755,13.27626 -5.89121,2.81675 -8.45353,0.87406 -11.35473,-4.807 -2.81628,-8.77252 -2.3403,-17.509 1.42653,-25.99705 4.43037,-8.80886 10.21646,-16.14422 18.82341,-21.24406 0,0 2.63015,-1.02911 2.63015,-1.02911 z"
       id="path2846"
       style="opacity:0.8;color:#000000;fill:#000000;fill-opacity:1;fill-rule:nonzero;stroke:none;stroke-width:1.54799998;marker:none;visibility:visible;display:inline;overflow:visible;enable-background:accumulate" />
    <path
       d="m 246.07796,409.39457 c 7.53342,2.8798 14.64964,1.45652 21.67031,-1.93292 4.28498,-3.7982 6.778,-8.08628 7.27377,-13.7967 -0.57814,-5.64377 -4.50082,-7.86903 -9.63704,-5.99798 0.0662,0.11246 0.27393,0.23085 0.19857,0.33738 -0.68064,0.96215 -1.63818,1.70631 -2.3229,2.66556 -3.65522,5.12075 -5.58424,11.2676 -7.39522,17.20427 -2.69149,10.62954 -2.66909,17.00136 5.44985,24.86168 8.8111,6.20347 19.26638,6.6039 29.6146,5.61684 1.7383,-0.47377 3.47661,-0.94755 5.21492,-1.42133 0,0 -2.20945,1.69547 -2.20945,1.69547 l 0,0 c -1.74816,0.46149 -3.49631,0.92297 -5.24447,1.38446 -10.41922,0.94021 -20.92616,0.486 -29.75836,-5.81058 -8.16281,-7.96084 -8.29383,-14.37607 -5.58992,-25.13345 2.71694,-8.98222 5.60232,-18.30739 14.27253,-23.13598 5.33211,-1.71773 9.29882,0.74406 9.92911,6.47416 -0.59886,7.91378 -5.00916,13.14413 -11.98985,16.80441 -7.09362,3.34275 -14.25244,4.64917 -21.81692,1.7727 0,0 2.34047,-1.58799 2.34047,-1.58799 z"
       id="path2848"
       style="opacity:0.8;color:#000000;fill:#000000;fill-opacity:1;fill-rule:nonzero;stroke:none;stroke-width:1.54799998;marker:none;visibility:visible;display:inline;overflow:visible;enable-background:accumulate" />
    <path
       d="m 99.723641,584.77415 c 4.542499,6.5488 7.489549,14.16277 10.083849,21.66765 0.87787,2.4718 1.47405,5.02736 2.1961,7.54439 0.1032,0.35974 0.83812,1.1292 0.48203,1.01403 -0.77099,-0.24938 -1.54892,-0.47673 -2.32338,-0.7151 -0.22113,-7.73906 1.00916,-15.32714 2.59329,-22.86991 1.54448,-7.82347 5.10078,-13.93663 11.09551,-19.09744 6.34892,-4.93694 13.43371,-5.99714 21.1515,-6.44311 5.1423,-0.15539 2.53072,0.01 7.83354,-0.5144 0,0 -2.25154,1.66938 -2.25154,1.66938 l 0,0 c -5.31595,0.50721 -2.70106,0.34374 -7.8435,0.50881 -5.56359,0.34348 -11.62929,0.56111 -16.28397,3.72419 -6.03581,5.08532 -9.62141,11.12908 -11.1808,18.93344 -1.59025,7.52487 -2.84608,15.09586 -2.58555,22.82083 -0.86456,1.18181 -1.64319,2.43157 -2.59369,3.54543 -0.29379,0.34429 -0.45999,-0.79084 -0.58223,-1.22661 -0.70589,-2.51643 -1.29381,-5.0684 -2.16329,-7.53801 -2.57194,-7.47683 -5.49886,-15.07281 -10.055329,-21.57272 0,0 2.42746,-1.45085 2.42746,-1.45085 z"
       id="path2850"
       style="opacity:0.8;color:#000000;fill:#000000;fill-opacity:1;fill-rule:nonzero;stroke:none;stroke-width:1.54799998;marker:none;visibility:visible;display:inline;overflow:visible;enable-background:accumulate" />
    <path
       d="m 177.82091,580.10328 c 6.44971,-0.66491 12.87635,-2.37013 18.68222,-5.27468 -0.25477,0.0398 -0.85682,0.3602 -0.7643,0.11951 0.20264,-0.52718 0.83822,-0.76542 1.18417,-1.21184 1.30729,-1.68694 1.17563,-3.12671 0.24295,-4.89293 -2.87367,-3.15667 -6.50361,-3.26985 -10.37204,-2.252 -3.85848,1.8027 -5.79904,6.70625 -7.03367,11.2371 -1.06034,7.33639 1.13561,14.00622 5.02217,20.14189 5.30703,6.51325 11.1718,8.77796 19.34689,9.1585 4.08064,-5.3e-4 7.38698,-1.90769 10.85679,-3.78234 0,0 -2.18266,1.75561 -2.18266,1.75561 l 0,0 c -3.50796,1.85318 -6.85068,3.71417 -10.95508,3.66646 -8.23841,-0.44656 -14.1617,-2.82002 -19.49227,-9.38428 -3.91799,-6.20279 -6.15133,-12.92837 -5.13611,-20.34433 1.80746,-6.8368 4.9064,-11.39046 11.8192,-14.16575 3.99079,-0.95284 7.69483,-0.70433 10.59023,2.55864 2.38714,4.48181 -1.66512,7.06055 -5.33262,9.15904 -5.84468,2.85681 -12.29238,4.55221 -18.76157,5.17206 0,0 2.2857,-1.66066 2.2857,-1.66066 z"
       id="path2852"
       style="opacity:0.8;color:#000000;fill:#000000;fill-opacity:1;fill-rule:nonzero;stroke:none;stroke-width:1.54799998;marker:none;visibility:visible;display:inline;overflow:visible;enable-background:accumulate" />
    <path
       d="m 268.50467,550.65832 c -4.25164,5.99773 -9.22597,11.40784 -13.39359,17.47327 -3.14199,5.1911 -5.31105,10.92546 -3.98917,16.98341 2.17544,5.51405 7.0423,7.81775 12.65294,8.22894 4.85463,-0.13767 2.40192,0.0876 7.35518,-0.70714 0,0 -2.24433,1.68438 -2.24433,1.68438 l 0,0 c -4.98654,0.75911 -2.518,0.54929 -7.40299,0.65971 -5.71794,-0.515 -10.6242,-2.9149 -12.84731,-8.53004 -1.37108,-6.12424 0.73697,-11.92065 3.9007,-17.19636 4.1457,-6.08114 9.13757,-11.47417 13.36798,-17.4851 0,0 2.60059,-1.11107 2.60059,-1.11107 z"
       id="path2854"
       style="opacity:0.8;color:#000000;fill:#000000;fill-opacity:1;fill-rule:nonzero;stroke:none;stroke-width:1.54799998;marker:none;visibility:visible;display:inline;overflow:visible;enable-background:accumulate" />
    <path
       d="m 319.70291,588.55601 c -8.66234,3.39356 -14.09181,1.07845 -19.7777,-5.8597 -6.03234,-10.47621 -6.17006,-22.73784 -5.90277,-34.4831 0.94965,-9.97806 2.41545,-19.89519 3.5009,-29.85924 0,0 2.49796,-1.23868 2.49796,-1.23868 l 0,0 c -1.09427,9.95975 -2.55663,19.8737 -3.52806,29.84621 -0.27729,11.67695 -0.16662,23.8776 5.83302,34.2953 5.6761,6.87384 11.04514,8.99017 19.58395,5.53357 0,0 -2.2073,1.76564 -2.2073,1.76564 z"
       id="path2856"
       style="opacity:0.8;color:#000000;fill:#000000;fill-opacity:1;fill-rule:nonzero;stroke:none;stroke-width:1.54799998;marker:none;visibility:visible;display:inline;overflow:visible;enable-background:accumulate" />
    <path
       d="m 291.79225,529.39457 c 9.05603,2.40399 18.15767,4.60228 27.41069,6.10148 6.81307,1.03347 13.69179,1.44823 20.57112,1.68783 0,0 -2.2798,1.64396 -2.2798,1.64396 l 0,0 c -6.88103,-0.25203 -13.76073,-0.68298 -20.57397,-1.72898 -9.26916,-1.51651 -18.39071,-3.72086 -27.46852,-6.1163 0,0 2.34048,-1.58799 2.34048,-1.58799 z"
       id="path2858"
       style="opacity:0.8;color:#000000;fill:#000000;fill-opacity:1;fill-rule:nonzero;stroke:none;stroke-width:1.54799998;marker:none;visibility:visible;display:inline;overflow:visible;enable-background:accumulate" />
    <path
       d="m 118.73392,665.52406 c 1.3303,9.86177 1.93662,19.74082 1.37897,29.67344 -0.32566,3.74154 -0.24537,7.54308 -1.97695,10.95186 0,0 -2.58783,1.16282 -2.58783,1.16282 l 0,0 c 1.85933,-3.332 1.71208,-7.14743 2.06905,-10.86097 0.57797,-9.91132 -0.004,-19.77211 -1.38184,-29.60907 0,0 2.4986,-1.31808 2.4986,-1.31808 z"
       id="path2860"
       style="opacity:0.8;color:#000000;fill:#000000;fill-opacity:1;fill-rule:nonzero;stroke:none;stroke-width:1.54799998;marker:none;visibility:visible;display:inline;overflow:visible;enable-background:accumulate" />
    <path
       d="m 176.739,630.67333 c -7.42801,8.93645 -11.11671,20.11 -14.72892,30.96621 -3.51676,11.57351 -6.08362,23.40979 -9.8411,34.90951 -3.26995,8.10576 -4.26169,11.51243 -12.10538,15.41504 -2.35934,-0.17634 -3.1022,-1.413 -4.26456,-3.29085 0,0 2.44403,-1.42163 2.44403,-1.42163 l 0,0 c 1.11245,1.78327 1.78947,2.9382 4.05501,2.96575 -0.31778,0.28659 -1.31275,1.09202 -0.95336,0.85975 4.52626,-2.92521 6.2294,-8.71884 8.29766,-13.34009 3.793,-11.495 6.3576,-23.33872 9.86403,-34.92136 3.60682,-10.87341 7.28012,-22.0447 14.62267,-31.06127 0,0 2.60992,-1.08106 2.60992,-1.08106 z"
       id="path2862"
       style="opacity:0.8;color:#000000;fill:#000000;fill-opacity:1;fill-rule:nonzero;stroke:none;stroke-width:1.54799998;marker:none;visibility:visible;display:inline;overflow:visible;enable-background:accumulate" />
    <path
       d="m 154.96376,662.96043 c 8.14789,0.23471 16.40207,0.93512 24.42533,2.43871 3.7023,0.48957 7.06932,1.97117 10.30656,3.74489 0,0 -2.37121,1.54767 -2.37121,1.54767 l 0,0 c -3.21549,-1.75577 -6.56289,-3.19925 -10.23593,-3.68479 -8.02273,-1.47607 -16.26469,-2.20578 -24.41044,-2.38583 0,0 2.28569,-1.66065 2.28569,-1.66065 z"
       id="path2864"
       style="opacity:0.8;color:#000000;fill:#000000;fill-opacity:1;fill-rule:nonzero;stroke:none;stroke-width:1.54799998;marker:none;visibility:visible;display:inline;overflow:visible;enable-background:accumulate" />
    <path
       d="m 213.02008,668.03548 c 1.04839,12.25552 1.00782,24.71189 -1.03256,36.85751 -0.97566,3.07896 -1.35204,9.81656 -5.19712,11.30731 -4.24431,1.64554 -3.30397,1.81601 -5.12882,-0.7808 -0.31804,-0.95538 -0.63609,-1.91076 -0.95413,-2.86614 0,0 2.46808,-1.35892 2.46808,-1.35892 l 0,0 c 0.3078,0.92914 0.61561,1.85828 0.92342,2.78742 0.37912,0.52964 0.75825,1.05928 1.13737,1.58892 -0.36065,0.55565 -1.44473,1.11269 -1.08195,1.66695 0.33192,0.5071 1.11846,-0.54031 1.52541,-0.98943 2.42895,-2.68063 2.99507,-6.83165 3.80965,-10.13496 2.07802,-12.10283 2.13928,-24.53702 1.03116,-36.75186 0,0 2.49949,-1.326 2.49949,-1.326 z"
       id="path2866"
       style="opacity:0.8;color:#000000;fill:#000000;fill-opacity:1;fill-rule:nonzero;stroke:none;stroke-width:1.54799998;marker:none;visibility:visible;display:inline;overflow:visible;enable-background:accumulate" />
    <path
       d="m 245.43793,687.63129 c 5.00923,4.84873 8.84642,6.90233 15.53087,4.31691 4.47444,-4.2395 6.67493,-9.79903 7.55351,-15.90319 -0.14929,-5.23167 -0.83919,-11.72505 -7.1894,-11.93301 -4.45014,1.22516 -6.05939,7.66627 -7.21753,12.38605 -1.22856,6.73866 -1.34583,13.86478 2.96273,19.4855 5.67381,5.02862 12.75523,2.3975 19.00496,-0.0187 8.99864,-4.53431 15.50699,-12.58595 21.28589,-20.63726 5.2141,-7.67412 8.84118,-16.15551 11.53849,-24.98835 0.6557,-0.0472 0.9468,-6.73554 1.298,-6.73996 3.17247,-0.0399 2.20842,0.90208 1.78464,2.941 -1.45564,7.00761 -3.1485,13.97515 -4.83286,20.93608 -1.46107,5.97911 -2.28157,12.08372 -2.86227,18.20319 -1.24389,-0.34535 0.40724,1.59152 -0.15787,1.79656 -0.49882,0.18099 -1.45018,0.58196 -1.59037,0.0702 -0.0123,-0.045 4.28006,-8.25231 4.36108,-8.4022 5.73582,-10.56203 14.03364,-19.50496 22.11401,-28.31166 5.91591,-6.31002 12.88031,-11.36973 20.11012,-16.03598 0,0 2.58788,-1.00765 2.58788,-1.00765 l 0,0 c -7.24226,4.64068 -14.21665,9.6805 -20.1456,15.97374 -8.07738,8.77674 -16.36649,17.70725 -22.10951,28.23478 -2.56428,4.72653 -2.84019,8.19948 -7.88179,10.74344 -0.53796,0.27145 1.65467,-3.30714 0.17535,-1.79919 0.59834,-6.13402 1.41281,-12.25644 2.87266,-18.2526 1.68098,-6.95412 3.3717,-13.91573 4.81433,-20.91749 0.65832,-3.1222 0.16248,-2.57176 3.31677,-5.425 0.18809,-0.17013 -0.0853,0.50006 -0.12325,0.75081 -0.30758,2.02927 -0.62187,4.05851 -1.18457,6.03812 -2.71137,8.85771 -6.3215,17.37707 -11.53538,25.08656 -6.95156,9.74707 -14.90838,18.39325 -26.03819,23.46946 -6.38328,2.41816 -13.52246,4.91898 -19.22795,-0.26581 -4.33283,-5.70843 -4.29509,-12.8706 -3.06906,-19.7125 1.69316,-7.06684 4.11582,-13.39266 12.04671,-15.25062 6.44189,0.50838 7.23963,6.89362 7.41172,12.3426 -1.13404,8.30017 -4.52544,15.02437 -12.29299,18.88046 -6.7762,2.445 -10.71451,0.26298 -15.73859,-4.60338 0,0 2.42746,-1.45085 2.42746,-1.45085 z"
       id="path2868"
       style="opacity:0.8;color:#000000;fill:#000000;fill-opacity:1;fill-rule:nonzero;stroke:none;stroke-width:1.54799998;marker:none;visibility:visible;display:inline;overflow:visible;enable-background:accumulate" />
    <path
       d="m 337.46694,159.74151 c 12.89044,-2.96347 25.97102,-4.97918 38.97316,-7.38231 24.2424,-3.9281 48.52869,-7.55508 72.89768,-10.60387 25.22792,-3.62336 50.63238,-5.54545 76.07981,-6.66016 14.62676,-0.76012 29.25486,-0.79467 43.81028,0.89354 0,0 -2.25543,1.5993 -2.25543,1.5993 l 0,0 c -14.53158,-1.67654 -29.13509,-1.64613 -43.73736,-0.89255 -25.43636,1.10908 -50.82867,3.0369 -76.04492,6.66148 -24.38067,3.06004 -48.68034,6.68739 -72.93072,10.64838 -13.0307,2.41284 -26.1355,4.45897 -39.05379,7.43687 0,0 2.26129,-1.70068 2.26129,-1.70068 z"
       id="path2870"
       style="opacity:0.8;color:#000000;fill:#000000;fill-opacity:1;fill-rule:nonzero;stroke:none;stroke-width:1.54799998;marker:none;visibility:visible;display:inline;overflow:visible;enable-background:accumulate" />
    <path
       d="m 398.16083,834.39034 c 15.01839,-0.50874 29.73892,-3.40327 44.39279,-6.50544 22.07932,-4.40476 43.51996,-11.23137 64.86801,-18.26649 21.25713,-6.79068 42.45733,-13.82651 64.17162,-19.02166 11.35756,-2.62579 22.93559,-4.14184 34.56479,-4.80104 -1.02031,0.26455 5.44789,-0.48007 4.83464,-0.51258 -5.44984,-0.28892 -2.37839,0.76663 -7.0114,-2.10069 0,0 2.37471,-1.5316 2.37471,-1.5316 l 0,0 c 0.8101,0.50297 3.60845,2.18874 3.63092,2.4232 0.40822,4.25884 -3.71525,3.22589 -6.09575,3.38825 -11.59731,0.65046 -23.14157,2.16978 -34.467,4.78966 -21.69994,5.20114 -42.88992,12.22979 -64.13379,19.02104 -21.36142,7.03744 -42.81969,13.85015 -64.91071,18.26173 -14.68936,3.10783 -29.44764,5.99322 -44.50084,6.51359 0,0 2.28201,-1.65797 2.28201,-1.65797 z"
       id="path2872"
       style="opacity:0.8;color:#000000;fill:#000000;fill-opacity:1;fill-rule:nonzero;stroke:none;stroke-width:1.54799998;marker:none;visibility:visible;display:inline;overflow:visible;enable-background:accumulate" />
    <path
       d="m 588.24734,144.98286 c -6.13983,0.52346 -12.15959,0.0514 -17.28553,-3.59344 -3.6366,-3.93494 -3.54346,-9.41538 -3.72994,-14.45926 0.28461,-6.84765 2.62916,-12.73293 7.64815,-17.36189 7.8609,-5.65068 14.4765,-7.7976 23.91386,-6.11158 9.15994,2.39823 15.85572,8.5693 21.17889,16.12398 5.2368,7.37914 7.8795,15.58575 6.31499,24.53761 -3.14182,7.0943 -10.68112,10.39823 -17.66258,12.78413 -2.94266,0.78188 -5.20689,0.31454 -7.87964,-0.87721 0,0 2.35241,-1.56574 2.35241,-1.56574 l 0,0 c 2.64053,1.12109 4.87751,1.52085 7.74807,0.71353 5.49553,-1.92516 10.4716,-4.08905 12.91745,-9.82451 1.63751,-8.88068 -0.99678,-17.02427 -6.19597,-24.34989 -5.29306,-7.49722 -11.95504,-13.60773 -21.06861,-15.93418 -6.69613,-1.1349 -13.34044,-0.62824 -19.01407,3.43955 -5.0644,4.52968 -7.43171,10.32465 -7.7495,17.13906 0.17957,4.9423 0.0429,10.3713 3.61093,14.22848 5.10167,3.56779 11.09082,3.98623 17.16239,3.41068 0,0 -2.2613,1.70068 -2.2613,1.70068 z"
       id="path2874"
       style="opacity:0.8;color:#000000;fill:#000000;fill-opacity:1;fill-rule:nonzero;stroke:none;stroke-width:1.54799998;marker:none;visibility:visible;display:inline;overflow:visible;enable-background:accumulate" />
    <path
       d="m 639.60345,813.20261 c -7.45118,5.61326 -16.13765,8.84602 -25.35073,9.79596 -8.66246,0.3499 -14.82494,-1.03003 -19.40784,-8.84064 -3.54407,-10.36108 2.5626,-20.54454 7.73667,-29.23745 7.54871,-10.84322 17.23248,-19.07026 30.56499,-21.32249 9.80714,-0.0757 15.07302,4.32653 19.29688,12.7469 2.95782,9.58236 -1.46642,18.02758 -6.95118,25.67486 -5.65121,6.07995 -14.06769,13.77328 -22.84361,14.13145 -1.41623,0.0578 -2.8247,-0.2395 -4.23705,-0.35925 0,0 2.27871,-1.62849 2.27871,-1.62849 l 0,0 c 10.53661,0.75755 15.26759,-3.30294 22.24453,-11.03609 5.47316,-7.53272 9.94941,-15.89262 7.07171,-25.3947 -4.17289,-8.3396 -9.38843,-12.62271 -19.09116,-12.45423 -2.46498,0.44058 -5.10747,0.38307 -7.36946,1.45715 -7.73975,3.67515 -13.55959,10.2124 -18.4306,17.06125 -5.13995,8.57998 -11.28445,18.69176 -7.83796,28.95451 4.52403,7.72054 10.70526,8.95159 19.22419,8.57649 7.20776,-0.79776 14.55706,-2.71594 20.47737,-7.07198 0,0 2.62454,-1.05325 2.62454,-1.05325 z"
       id="path2876"
       style="opacity:0.8;color:#000000;fill:#000000;fill-opacity:1;fill-rule:nonzero;stroke:none;stroke-width:1.54799998;marker:none;visibility:visible;display:inline;overflow:visible;enable-background:accumulate" />
    <path
       d="m 623.15423,141.88265 c 8.78352,-4.0308 18.37111,-5.24762 27.78986,-6.87826 12.40762,-2.07711 24.98208,-2.79332 37.49207,-4.01403 14.94444,-1.29735 29.92819,-1.77837 44.88022,-2.97025 13.52321,-1.24263 27.03199,-1.96291 40.59352,-1.21011 9.43763,0.70197 18.87996,1.32187 28.33783,1.66508 4.84862,0.4417 9.55153,1.75609 14.33737,2.57191 1.44678,0.22674 2.90111,0.40564 4.3625,0.49975 0.35063,-0.0277 0.62837,-0.0259 1.01904,-0.0285 -0.46985,0.11776 -1.23146,0.80373 -1.40956,0.35328 -0.20995,-0.53104 0.67554,-0.92109 0.99901,-1.39168 2.1705,-3.15763 3.55608,-6.78391 4.89916,-10.35191 3.40489,-9.38776 6.72553,-18.8011 10.04955,-28.217922 2.94903,-7.488698 5.39791,-15.145871 8.47818,-22.58316 5.3924,-8.750659 4.91051,4.679202 4.96371,6.997306 0.0476,10.028051 -0.0463,20.056338 -0.0837,30.084376 -0.0372,10.88938 -0.0447,21.77883 -0.0444,32.66827 0.01,5.14706 -0.005,10.29425 0.0187,15.44128 0.006,0.99875 0.19028,2.3942 -2.53389,0.9541 -0.36606,-0.19351 0.72822,-11.25091 0.82654,-12.11494 1.92301,-11.32901 4.10224,-22.61643 7.07821,-33.71809 2.24005,-10.034043 5.99825,-19.600827 9.232,-29.32644 0.51485,-0.985521 3.50133,-8.840811 4.72747,-9.022897 1.22556,-0.182 2.47693,-0.07279 3.71539,-0.10918 3.88749,4.932724 4.53146,11.535864 5.78483,17.51472 2.73941,9.454102 3.58061,19.261047 5.11505,28.935427 1.71803,7.8929 1.80117,16.04075 3.23825,23.95995 0.62861,1.91712 0.81602,4.00905 1.6513,5.86282 0.0945,0.2097 0.79581,0.33798 0.57114,0.38718 -0.75052,0.16437 -1.49494,0.35541 -2.24241,0.53312 1.03001,-7.47064 2.15652,-14.93747 3.23251,-22.40759 2.38791,-14.04251 5.35474,-27.997885 9.47897,-41.63719 3.0896,-9.206883 5.27649,-18.905706 9.89413,-27.511628 5.27399,-7.202046 6.20115,0.08083 7.10699,4.380773 1.11595,10.442884 1.98131,20.921338 2.90432,31.390323 1.05043,12.414772 1.35405,24.872762 1.54892,37.324822 0.45273,7.84282 1.49514,15.63423 2.44491,23.42801 -1.89746,0.37349 1.7693,1.58137 1.10067,1.79168 -0.53752,0.16908 -1.52019,0.30981 -1.67443,-0.23216 -0.23204,-0.81535 0.68624,-1.55463 0.93533,-2.36493 0.79578,-2.58872 1.2992,-5.25843 1.94326,-7.889 2.6916,-13.41345 5.49008,-26.81462 8.86394,-40.07456 3.479,-13.856119 7.7682,-27.434868 12.48295,-40.910386 2.64719,-4.417559 4.48716,-16.20903 8.62045,-19.102385 1.11935,-0.326998 2.20345,-1.144548 3.35806,-0.980995 1.4845,0.210282 1.86259,15.420531 1.90147,16.866644 1.1256,12.908449 1.96128,25.830335 2.46339,38.777662 0.3469,9.63786 0.4706,19.2817 0.51796,28.92507 0.66865,2.45571 -1.30252,6.90404 0.76824,8.86491 2.92546,0.96254 5.77993,-0.26927 8.61951,-0.96418 7.07175,-1.11531 14.2101,-1.43622 21.31088,-2.373 10.212,-1.22987 20.4767,-1.60188 30.693,-2.79393 9.476,-0.79338 18.8737,-2.01608 28.2852,-3.34725 6.276,-0.88575 12.5916,-1.40342 18.9222,-1.65177 3.5582,0.0755 6.8943,-1.3647 10.3106,-2.189 2.5288,-0.45485 3.3035,-1.71429 3.8043,1.40466 0.1413,9.62066 0.7779,19.20541 1.7826,28.77552 1.4027,13.96731 3.2136,27.87794 4.9181,41.80911 1.7406,12.79682 4.4012,25.423 5.9755,38.24287 0.8797,12.22885 2.4054,24.39458 3.4397,36.61009 1.0032,11.49813 1.1697,22.98759 0.3212,34.49007 -0.7567,10.56323 -2.6608,21.01078 -4.7028,31.38997 -2.3858,7.70136 -3.609,15.68247 -5.5289,23.48923 -1.0911,4.46096 -2.8606,8.7921 -2.1337,13.42038 0.5677,2.85117 2.5834,3.95016 5.1162,2.61631 -1.6363,0.4367 -0.9987,0.4409 0.756,-1.75711 0,0 2.5946,-1.1131 2.5946,-1.1131 l 0,0 c -2.5028,3.32053 -0.8237,1.58307 -5.5701,4.63863 -2.7077,1.16125 -4.815,-0.14566 -5.402,-3.05777 -0.7608,-4.67508 0.9594,-9.02644 2.1015,-13.53123 1.9533,-7.7989 3.133,-15.79428 5.5557,-23.48693 2.0419,-10.37159 3.9653,-20.80851 4.7265,-31.36427 0.8557,-11.48964 0.7021,-22.96529 -0.2994,-34.45182 -1.0284,-12.21397 -2.558,-24.37708 -3.4274,-36.60468 -1.5686,-12.82048 -4.2299,-25.44625 -5.978,-38.24175 -1.6954,-13.936 -3.5013,-27.85085 -4.9034,-41.82185 -1.0157,-9.55142 -1.7064,-19.12005 -1.8529,-28.72422 -0.3932,-2.75519 -1.251,-1.3585 -3.5486,-1.00992 -3.4187,0.83704 -6.764,2.24598 -10.3356,2.13726 -6.3175,0.24793 -12.6198,0.77461 -18.8826,1.65789 -9.409,1.33123 -18.8085,2.52748 -28.2802,3.33484 -10.2192,1.18115 -20.4887,1.55014 -30.69992,2.80448 -7.1026,0.93545 -14.25287,1.22958 -21.31613,2.41601 -2.87559,0.71459 -5.88815,1.97285 -8.79965,0.73572 -2.10867,-2.17622 -0.26495,-6.40076 -0.84425,-9.077 -0.0324,-9.64708 -0.13491,-19.29477 -0.4743,-28.93665 -0.49676,-12.94558 -1.32917,-25.86588 -2.48501,-38.769975 -0.1197,-4.220376 -0.13458,-8.491357 -0.70445,-12.68468 -0.11439,-0.841741 -0.24436,-1.685938 -0.47206,-2.504331 -0.13328,-0.479043 -0.76814,-0.894467 -0.60417,-1.36389 0.25538,-0.731077 1.10093,-1.089365 1.65139,-1.634047 -3.99295,2.24061 -6.3525,14.871468 -8.75629,18.955163 -4.72659,13.469478 -9.0347,27.039794 -12.50881,40.89585 -3.38079,13.24863 -6.17753,26.64228 -8.82849,40.05438 -0.25037,1.0313 -3.75668,19.29135 -7.33061,11.21795 -0.92064,-7.81204 -1.95506,-15.61835 -2.4178,-23.47496 -0.18106,-12.44747 -0.48292,-24.901 -1.53121,-37.311097 -0.92798,-10.452646 -1.80959,-20.913807 -2.92677,-31.34069 -0.43023,-2.039034 -0.5883,-3.367876 -1.37526,-5.234786 -0.19259,-0.456881 -0.45167,-0.886162 -0.7341,-1.293673 -0.13061,-0.188455 -0.62448,-0.289884 -0.49415,-0.478529 0.37659,-0.545053 0.97852,-1.316168 1.62014,-1.151189 0.54147,0.139226 -0.7121,0.86208 -1.06815,1.29312 -4.69528,8.567625 -6.87195,18.282495 -9.97162,27.485125 -4.14373,13.618736 -7.09901,27.562809 -9.48127,41.591429 -1.06143,7.46478 -2.19644,14.92791 -3.16532,22.39685 -0.87935,0.78893 -1.69376,1.65689 -2.63806,2.36679 -0.59599,0.44804 -2.50177,-6.20547 -2.38921,-6.58924 -1.4413,-7.92304 -1.4953,-16.07926 -3.22099,-23.9762 -1.53619,-9.66865 -2.356,-19.474677 -5.11654,-28.918943 -1.24417,-5.917431 -1.87583,-12.478602 -5.73073,-17.354973 3.98503,-7.277483 -3.87076,5.236018 -3.48823,6.456177 -3.23238,9.729311 -7.03681,19.284605 -9.26813,29.325509 -2.98386,11.08313 -5.14762,22.35542 -7.07072,33.66803 -0.10044,0.89286 -0.74713,6.46956 -0.81166,7.6443 -0.0488,0.88827 0.003,1.77923 0.005,2.66884 0.001,0.58452 0.32237,1.26264 0.005,1.75357 -0.60352,0.9339 -1.60209,1.5642 -2.53759,2.16523 -0.15055,0.0967 0.002,-0.35786 0.003,-0.5368 0.022,-5.1542 0.009,-10.30856 0.0231,-15.46279 0.0126,-10.8924 0.0264,-21.7848 0.0601,-32.67716 0.0337,-10.020779 0.11363,-20.041929 0.0575,-30.062657 -0.0105,-0.454596 -0.56958,-8.623342 -0.54712,-8.685873 0.37805,-1.052595 1.44121,-1.718251 2.04782,-2.657875 0.42425,-0.657138 -3.85376,3.369728 -1.39962,1.883446 -3.11012,7.431478 -5.55922,15.092676 -8.51708,22.584024 -3.31439,9.415735 -6.64959,18.819095 -10.02623,28.212685 -2.0558,5.5574 -3.92029,11.22456 -9.33993,14.25505 -0.35968,0.009 -0.68375,0.0599 -1.03405,0.0123 -1.46203,-0.11799 -2.91821,-0.29911 -4.36601,-0.53575 -4.7655,-0.84068 -9.45617,-2.14023 -14.29222,-2.55735 -9.45006,-0.35617 -18.88423,-0.98912 -28.31469,-1.68793 -13.54841,-0.74012 -27.04577,-0.003 -40.55531,1.2283 -14.95308,1.19132 -29.93947,1.66068 -44.88334,2.97874 -12.51206,1.2266 -25.08997,1.94344 -37.49714,4.0434 -9.42148,1.63066 -19.01137,2.87794 -27.77288,6.96887 0,0 2.2073,-1.76563 2.2073,-1.76563 z"
       id="path2878"
       style="opacity:0.8;color:#000000;fill:#000000;fill-opacity:1;fill-rule:nonzero;stroke:none;stroke-width:1.54799998;marker:none;visibility:visible;display:inline;overflow:visible;enable-background:accumulate" />
    <path
       d="m 980.32409,419.74151 c 10.99366,-1.6328 21.93571,-3.67484 32.82971,-5.88461 15.6349,-3.35645 31.1813,-6.99901 46.5865,-11.29515 14.8026,-4.11496 29.7789,-7.54519 44.6684,-11.31805 9.4696,-2.63335 19.165,-4.20106 28.9376,-5.10325 4.3265,-0.0224 8.4143,-1.53516 12.5859,-2.48649 2.8225,-0.55918 5.6992,-0.64786 8.5663,-0.70406 2.5367,-0.0272 5.0737,-0.0133 7.6105,-0.005 0.9071,0.002 1.8143,0.005 2.7215,0.005 0,0 -2.3071,1.67471 -2.3071,1.67471 l 0,0 c -0.9041,-0.008 -1.8083,-0.007 -2.7125,-0.0108 -2.5353,-0.006 -5.0708,-0.024 -7.606,0.01 -2.8562,0.0607 -5.7224,0.16629 -8.5294,0.74916 -4.1679,0.96003 -8.2615,2.42985 -12.5884,2.44132 -9.7531,0.90094 -19.4238,2.4912 -28.8756,5.11087 -14.8847,3.7582 -29.8506,7.19554 -44.6451,11.30847 -15.4158,4.29245 -30.9729,7.93424 -46.6169,11.29342 -10.916,2.20639 -21.87567,4.25373 -32.88671,5.91552 0,0 2.2613,-1.70068 2.2613,-1.70068 z"
       id="path2880"
       style="opacity:0.8;color:#000000;fill:#000000;fill-opacity:1;fill-rule:nonzero;stroke:none;stroke-width:1.54799998;marker:none;visibility:visible;display:inline;overflow:visible;enable-background:accumulate" />
    <path
       d="m 997.46694,482.59865 c 9.61286,-1.2722 18.92076,-4.00338 28.29766,-6.36476 14.2632,-4.12523 28.6037,-7.92829 42.9571,-11.72816 15.8677,-3.76609 31.781,-7.38071 47.8573,-10.14257 10.6031,-2.10366 21.2395,-4.05006 31.9969,-5.16063 3.5645,-0.35418 7.1387,-0.57271 10.7204,-0.5891 0.618,3.3e-4 1.2359,0.0138 1.8538,0.0227 0,0 -2.3066,1.67098 -2.3066,1.67098 l 0,0 c -0.6159,-0.008 -1.2317,-0.0205 -1.8476,-0.0206 -3.566,0.0189 -7.1249,0.24282 -10.6739,0.58943 -10.7392,1.11642 -21.3583,3.05542 -31.9463,5.1461 -16.0678,2.76897 -31.9763,6.3745 -47.8335,10.155 -14.3624,3.80218 -28.7063,7.62907 -42.9821,11.74342 -9.3929,2.38014 -18.7263,5.08005 -28.35445,6.37889 0,0 2.26129,-1.70068 2.26129,-1.70068 z"
       id="path2882"
       style="opacity:0.8;color:#000000;fill:#000000;fill-opacity:1;fill-rule:nonzero;stroke:none;stroke-width:1.54799998;marker:none;visibility:visible;display:inline;overflow:visible;enable-background:accumulate" />
    <path
       d="m 1097.4052,493.83019 c -4.9693,7.68659 -7.4002,16.02289 -8.1457,25.05883 -0.4828,12.3866 0.1123,24.75431 1.0973,37.09749 1.2498,14.61203 1.7857,29.26773 2.1107,43.92505 -0.094,10.16928 1.4406,20.24568 2.2981,30.35622 0.6726,9.18984 0.7132,18.40835 0.76,27.61763 -0.4908,12.53898 0.7533,24.96468 2.5329,37.35133 1.8842,11.42734 4.7423,22.6356 7.8184,33.78772 2.2084,7.17365 4.797,14.19858 7.3855,21.2367 0.9154,4.05246 2.6028,7.82977 3.9532,11.73869 0.6463,4.15871 -2.1656,5.93015 -5.2708,7.99249 -6.9882,4.41509 -14.8527,6.89916 -22.6466,9.4402 -11.1758,3.28644 -22.7253,4.94804 -34.1852,6.88436 -13.0337,2.26159 -26.2442,3.04645 -39.3759,4.5274 -11.7808,1.40742 -23.63517,1.90197 -35.48686,2.19805 -9.47269,0.18643 -18.94762,0.17464 -28.42167,0.17018 -9.18695,-0.42416 -18.28207,0.33393 -27.4058,1.28061 -9.94476,1.47518 -19.8011,3.4414 -29.71305,5.10338 -9.36843,1.91678 -18.71009,3.9636 -28.10514,5.74912 -8.74633,1.12226 -17.48468,2.18522 -26.22455,3.38184 -8.02226,1.11702 -16.12439,1.36771 -24.21098,1.54027 -7.17658,0.54012 -14.2439,-0.75525 -21.33148,-1.65068 -6.07797,-0.76556 -12.20166,-0.98366 -18.32026,-1.1029 -5.72078,-0.86611 -11.40313,-1.87215 -17.16938,-2.4033 -5.72841,0.36571 -11.39062,1.34309 -17.11062,1.84423 -5.4354,0.41298 -10.88873,0.48169 -16.33718,0.52731 -3.86113,0.0213 -7.72231,0.0121 -11.58346,0.007 -2.92941,-0.004 -5.85883,-0.007 -8.78824,-0.007 -2.97947,-0.0708 -5.96884,0.25413 -8.89403,-0.36659 -3.91204,-1.37793 -8.00372,-1.86164 -12.11304,-2.18301 -5.29324,-0.35463 -10.60294,-0.32156 -15.90526,-0.33366 -7.32964,0.28196 -12.32328,-1.48929 -16.66547,-7.49587 0,0 2.41861,-1.43001 2.41861,-1.43001 l 0,0 c 4.31946,5.94178 9.29384,7.5453 16.5263,7.27059 5.3085,0.0129 10.62515,-0.0247 15.92372,0.34714 4.12003,0.33328 8.21016,0.85376 12.14029,2.20468 2.9233,0.54896 5.90013,0.24991 8.86571,0.31812 2.92883,0.002 5.85765,0.003 8.78648,0.009 3.85757,0.009 7.7152,0.0182 11.57275,-0.003 5.4425,-0.0464 10.89,-0.1156 16.31867,-0.54169 5.72658,-0.51259 11.39842,-1.52056 17.14068,-1.80291 5.7599,0.54305 11.4342,1.5727 17.15694,2.38693 6.12308,0.12539 12.25075,0.35507 18.33201,1.13123 7.07686,0.90082 14.13631,2.15821 21.3023,1.6206 8.07956,-0.17467 16.17339,-0.44 24.18765,-1.56302 8.73553,-1.1984 17.47496,-2.23601 26.21274,-3.39117 9.39232,-1.79301 18.73332,-3.83755 28.10353,-5.74036 9.91439,-1.67324 19.77673,-3.63226 29.72813,-5.09252 9.1303,-0.94322 18.23409,-1.67016 27.42624,-1.25959 9.4687,0.007 18.93833,0.0186 28.40566,-0.16734 11.84371,-0.29453 23.68906,-0.80283 35.46166,-2.20954 13.129,-1.47621 26.3375,-2.2618 39.3659,-4.53904 11.4613,-1.93525 23.011,-3.6142 34.1793,-6.93174 5.8405,-1.90789 13.0272,-4.31207 17.8066,-6.69858 3.0125,-1.98031 5.9617,-3.58162 5.4206,-7.65088 -1.3396,-3.91188 -3.0372,-7.68517 -3.9369,-11.7412 -2.5778,-7.05198 -5.1637,-14.08786 -7.3693,-21.27207 -3.0684,-11.16719 -5.9316,-22.38679 -7.8211,-33.82597 -1.781,-12.39577 -3.0427,-24.8307 -2.5612,-37.3796 -0.057,-9.20014 -0.099,-18.40953 -0.7646,-27.59058 -0.8511,-10.12098 -2.3723,-20.20966 -2.2745,-30.38796 -0.3146,-14.65326 -0.8407,-29.3054 -2.0997,-43.91258 -0.997,-12.35173 -1.6013,-24.72622 -1.1454,-37.12314 0.7199,-9.05411 3.0905,-17.43482 8.0695,-25.14172 0,0 2.5753,-1.16514 2.5753,-1.16514 z"
       id="path2884"
       style="opacity:0.8;color:#000000;fill:#000000;fill-opacity:1;fill-rule:nonzero;stroke:none;stroke-width:1.54799998;marker:none;visibility:visible;display:inline;overflow:visible;enable-background:accumulate" />
    <path
       d="m 1077.4531,136.52534 c 10.5498,-3.07167 21.247,-5.56122 31.9422,-8.06475 16.5089,-3.69652 33.1259,-6.63332 49.8348,-9.23995 19.6728,-2.93096 39.4261,-5.20449 59.1926,-7.39535 17.4518,-1.51922 34.917,-2.80436 52.3725,-4.29991 11.6891,-1.50065 23.3875,-0.78652 35.0806,0.0842 8.0452,1.30068 16.0589,2.6442 24.1819,3.35875 8.3797,1.4238 16.7563,2.72028 25.2717,2.5932 0,0 -2.26,1.64625 -2.26,1.64625 l 0,0 c -8.5237,0.086 -16.9056,-1.20749 -25.2975,-2.60946 -8.1177,-0.72917 -16.1246,-2.09175 -24.1702,-3.36235 -11.6738,-0.87687 -23.3525,-1.56181 -35.0225,-0.0716 -17.4455,1.48849 -34.9021,2.75373 -52.3423,4.28606 -19.7665,2.19309 -39.52,4.46848 -59.1917,7.40979 -16.7155,2.6092 -33.3357,5.57149 -49.8494,9.277 -10.7097,2.50978 -21.4227,5.00571 -31.9763,8.12325 0,0 2.2336,-1.73521 2.2336,-1.73521 z"
       id="path2886"
       style="opacity:0.8;color:#000000;fill:#000000;fill-opacity:1;fill-rule:nonzero;stroke:none;stroke-width:1.54799998;marker:none;visibility:visible;display:inline;overflow:visible;enable-background:accumulate" />
    <path
       d="m 1101.018,782.96177 c 10.9635,0.51111 21.8058,-0.89007 32.6111,-2.53879 13.0183,-2.28068 25.8324,-5.4926 38.6563,-8.65831 14.087,-3.1188 28.1407,-6.33611 42.1638,-9.72676 12.2712,-2.82181 24.63,-5.18417 37.0108,-7.46532 10.5535,-1.80852 21.2444,-2.33385 31.8501,-3.73069 7.5375,-1.08479 15.1227,-1.7158 22.7282,-2.0234 4.8811,-0.15653 9.7652,-0.17229 14.6483,-0.1715 1.4011,0.5538 7.7618,-0.9117 2.7953,0.0127 -0.023,-0.45606 -0.046,-0.91211 -0.068,-1.36816 0,0 2.5207,-1.30462 2.5207,-1.30462 l 0,0 c 0.037,0.48162 0.074,0.96325 0.1105,1.44487 -3.4403,3.37284 -3.2725,3.01804 -7.6525,2.88179 -4.8752,-0.009 -9.7514,0.008 -14.6244,0.16868 -7.5945,0.31345 -15.1683,0.95055 -22.6954,2.03045 -10.5994,1.38952 -21.2871,1.8991 -31.8298,3.7335 -12.3731,2.28501 -24.7267,4.64058 -36.9897,7.46838 -14.0222,3.39223 -28.0795,6.59224 -42.1622,9.72713 -12.832,3.16632 -25.6543,6.38196 -38.6839,8.6477 -10.8263,1.64704 -21.6887,3.00452 -32.6709,2.53032 0,0 2.282,-1.65797 2.282,-1.65797 z"
       id="path2888"
       style="opacity:0.8;color:#000000;fill:#000000;fill-opacity:1;fill-rule:nonzero;stroke:none;stroke-width:1.54799998;marker:none;visibility:visible;display:inline;overflow:visible;enable-background:accumulate" />
    <path
       d="m 1275.5424,405.88457 c 0.5986,11.56189 3.2335,22.81642 6.4818,33.87923 1.8825,4.43949 4.4104,13.31109 10.607,12.89093 0.498,-0.29952 1.1555,-0.42629 1.4942,-0.89858 0.1576,-0.21973 -0.8822,0.20384 -0.8092,-0.0565 0.243,-0.86758 1.0407,-1.47698 1.462,-2.27343 1.666,-3.1499 2.6356,-6.68247 3.6331,-10.0759 2.0284,-7.70476 2.6565,-15.67718 3.0648,-23.60603 0.1863,-1.81793 -1.0493,-7.0463 3.3456,-4.3026 0.3964,0.2475 1.6583,5.01666 1.8911,5.83857 3.2792,10.738 5.4701,21.72413 6.9585,32.83926 1.5047,13.11225 1.9431,26.27457 1.0537,39.43518 -0.8015,9.1431 -3.4694,17.66431 -10.36,23.9276 -7.5108,5.24704 -15.3741,5.43826 -24.0676,3.90136 -5.3228,-1.21747 -9.8796,-3.91778 -14.1469,-7.20465 0,0 2.374,-1.49767 2.374,-1.49767 l 0,0 c 4.2446,3.2526 8.7762,5.91561 14.0682,7.09432 6.5443,1.11841 12.929,1.49228 19.1678,-1.23134 6.9687,-6.14531 9.6592,-14.63285 10.48,-23.74503 0.9125,-13.14456 0.4862,-26.29194 -1.0197,-39.38985 -1.4833,-11.09953 -3.6759,-22.06923 -6.976,-32.78432 -0.3173,-1.11345 -0.5924,-2.23984 -0.952,-3.34035 -0.2711,-0.82991 -1.0838,-1.5844 -0.9385,-2.44532 1.3012,-7.71162 2.7651,0.91683 1.6366,1.63983 -0.4131,7.94815 -1.0449,15.94022 -3.0476,23.67011 -1.935,6.69729 -3.5011,13.27646 -10.5998,16.17854 -6.3283,-0.0191 -8.8042,-8.5042 -10.7618,-13.23058 -3.2434,-11.08701 -5.8746,-22.35593 -6.5526,-33.93216 0,0 2.5133,-1.28058 2.5133,-1.28058 z"
       id="path2890"
       style="opacity:0.8;color:#000000;fill:#000000;fill-opacity:1;fill-rule:nonzero;stroke:none;stroke-width:1.54799998;marker:none;visibility:visible;display:inline;overflow:visible;enable-background:accumulate" />
    <path
       d="m 1372.0165,403.05865 c -2.9435,14.78333 -6.6168,29.39944 -9.8555,44.12011 -4.2464,16.28011 -7.0182,32.83555 -8.5578,49.57426 -1.0353,10.47035 -0.7933,20.90767 3.4773,30.61732 2.9336,6.07972 7.794,9.84572 14.0855,11.89675 6.0851,1.36107 6.2558,0.0319 9.1852,-4.67222 0,0 2.5767,-1.13905 2.5767,-1.13905 l 0,0 c -3.0834,5.10445 -7.8039,9.31375 -14.0988,7.39742 -6.3317,-2.13359 -11.2305,-5.97115 -14.1913,-12.10795 -4.2919,-9.75787 -4.5539,-20.23669 -3.5064,-30.76127 1.5445,-16.75276 4.3155,-33.32356 8.5677,-49.61723 3.2291,-14.70651 6.905,-29.30807 9.7745,-44.09 0,0 2.5429,-1.21814 2.5429,-1.21814 z"
       id="path2892"
       style="opacity:0.8;color:#000000;fill:#000000;fill-opacity:1;fill-rule:nonzero;stroke:none;stroke-width:1.54799998;marker:none;visibility:visible;display:inline;overflow:visible;enable-background:accumulate" />
    <path
       d="m 1436.7688,529.25658 c -8.6415,-4.35285 -16.5651,-9.63449 -23.8176,-16.01606 -8.3938,-8.35838 -10.0173,-19.27843 -9.6535,-30.61634 0.5808,-11.89298 4.1055,-23.28752 7.9651,-34.45603 2.2051,-5.62757 5.0502,-10.97593 6.7342,-16.79606 0.02,-1.68642 0.1227,-0.91123 -0.2239,-2.33497 0,0 2.501,-1.35236 2.501,-1.35236 l 0,0 c 0.3862,1.51024 0.2655,0.68949 0.2816,2.47271 -1.6741,5.83937 -4.5176,11.19989 -6.7644,16.82685 -3.8723,11.14531 -7.4279,22.51229 -8.0181,34.38888 -0.3883,11.25661 1.2019,22.10052 9.5462,30.39509 7.2435,6.36462 15.1628,11.63181 23.8107,15.93463 0,0 -2.3613,1.55366 -2.3613,1.55366 z"
       id="path2894"
       style="opacity:0.8;color:#000000;fill:#000000;fill-opacity:1;fill-rule:nonzero;stroke:none;stroke-width:1.54799998;marker:none;visibility:visible;display:inline;overflow:visible;enable-background:accumulate" />
    <path
       d="m 1386.3923,477.24614 c 9.4423,0.0161 18.8847,0.009 28.327,0.009 7.4399,-0.32087 14.974,0.56845 22.3743,-0.36271 3.356,-0.36883 6.3748,-1.74344 9.2564,-3.41075 0,0 -2.197,1.77684 -2.197,1.77684 l 0,0 c -2.9135,1.63093 -5.9527,2.97048 -9.32,3.31798 -7.4105,0.84713 -14.9308,0.0314 -22.374,0.32082 -9.4508,-2.4e-4 -18.9016,-0.007 -28.3524,0.009 0,0 2.2857,-1.66065 2.2857,-1.66065 z"
       id="path2896"
       style="opacity:0.8;color:#000000;fill:#000000;fill-opacity:1;fill-rule:nonzero;stroke:none;stroke-width:1.54799998;marker:none;visibility:visible;display:inline;overflow:visible;enable-background:accumulate" />
    <path
       d="m 1483.5747,398.67494 c 10.0183,6.65722 17.6296,16.0504 23.6117,26.35389 6.9014,12.13877 9.6496,25.35463 9.3394,39.17966 -0.9743,16.33972 -9.4101,29.86517 -18.8373,42.67544 -11.7937,15.51191 -27.8367,25.87038 -44.761,34.91575 -2.3651,0.98217 -4.7303,1.96434 -7.0954,2.9465 0,0 2.163,-1.70601 2.163,-1.70601 l 0,0 c 2.358,-0.98644 4.7159,-1.97287 7.0739,-2.95931 15.5456,-7.69563 29.2524,-18.53701 40.1043,-32.11056 9.4187,-12.75528 17.8798,-26.2232 18.8853,-42.51202 0.3407,-13.77747 -2.3918,-26.94712 -9.2687,-39.04499 -5.9625,-10.26212 -13.5499,-19.63509 -23.5799,-26.20118 0,0 2.3647,-1.53717 2.3647,-1.53717 z"
       id="path2898"
       style="opacity:0.8;color:#000000;fill:#000000;fill-opacity:1;fill-rule:nonzero;stroke:none;stroke-width:1.54799998;marker:none;visibility:visible;display:inline;overflow:visible;enable-background:accumulate" />
    <g
       transform="matrix(1.9725884,0,0,1.9725884,-240.58345,-152.12418)"
       id="g3097">
      <g
         style="font-style:normal;font-variant:normal;font-weight:normal;font-stretch:normal;letter-spacing:normal;word-spacing:normal;text-anchor:start;fill:none;stroke:#000000;stroke-linecap:butt;stroke-linejoin:miter;stroke-miterlimit:10.43299961;stroke-opacity:1;stroke-dasharray:none;stroke-dashoffset:0"
         id="g3099"
         transform="matrix(1.0629921,0,0,-1.0629921,-186.02362,789.27165)"
         xml:space="preserve"
         stroke-miterlimit="10.433"
         fill-rule="even-odd"
         font-style="normal"
         font-variant="normal"
         font-weight="normal"
         font-stretch="normal"
         font-size-adjust="none"
         letter-spacing="normal"
         word-spacing="normal"><path
           style="fill:#000000;stroke-width:0"
           d="m 463.92,441.71 0,0.14 0,0.14 0,0.14 -0.01,0.07 0,0.07 -0.01,0.07 -0.01,0.07 -0.01,0.06 -0.01,0.07 -0.01,0.07 -0.02,0.06 -0.02,0.07 -0.02,0.06 -0.03,0.06 -0.03,0.06 -0.03,0.05 -0.03,0.05 -0.04,0.05 -0.04,0.05 -0.05,0.04 -0.02,0.02 -0.03,0.02 -0.03,0.02 -0.02,0.02 -0.03,0.01 -0.03,0.02 -0.03,0.01 -0.04,0.01 -0.03,0.02 -0.04,0.01 -0.03,0.01 -0.04,0.01 -0.04,0 -0.04,0.01 -0.04,0 -0.04,0.01 -0.05,0 -0.04,0 c -1,0 -1,-0.95 -1,-1.65 v -46.52 c 0,-0.7 0,-1.64 1,-1.64 0.99,0 0.99,0.94 0.99,1.64 z"
           id="path3101" /><path
           style="fill:#000000;stroke-width:0"
           d="m 488.36,415.66 0.11,-0.02 0.13,-0.02 0.14,-0.03 0.16,-0.03 0.17,-0.04 0.18,-0.05 0.18,-0.05 0.2,-0.05 0.21,-0.06 0.21,-0.07 0.21,-0.08 0.22,-0.09 0.22,-0.09 0.22,-0.1 0.22,-0.12 0.22,-0.12 0.22,-0.13 0.21,-0.14 0.2,-0.15 0.2,-0.16 0.19,-0.18 0.18,-0.19 0.17,-0.2 0.16,-0.21 0.14,-0.22 0.07,-0.12 0.06,-0.12 0.06,-0.13 0.05,-0.12 0.05,-0.13 0.05,-0.14 0.04,-0.14 0.03,-0.14 0.03,-0.15 0.03,-0.15 0.02,-0.15 0.01,-0.16 0.01,-0.16 0,-0.17 c 0,-2.54 -1.74,-4.53 -5.63,-4.53 -4.18,0 -5.98,2.84 -6.92,7.07 -0.15,0.65 -0.2,0.85 -0.7,0.85 -0.65,0 -0.65,-0.35 -0.65,-1.25 v -6.57 c 0,-0.85 0,-1.2 0.55,-1.2 0.25,0 0.3,0.05 1.25,1 0.1,0.1 0.1,0.2 0.99,1.14 2.19,-2.09 4.44,-2.14 5.48,-2.14 5.73,0 8.02,3.34 8.02,6.93 0,2.64 -1.49,4.13 -2.09,4.73 -1.64,1.59 -3.59,1.99 -5.68,2.39 -2.79,0.55 -6.12,1.2 -6.12,4.09 0,1.74 1.29,3.78 5.57,3.78 5.48,0 5.73,-4.48 5.83,-6.03 0.05,-0.45 0.5,-0.45 0.6,-0.45 0.65,0 0.65,0.25 0.65,1.2 v 5.03 c 0,0.85 0,1.2 -0.55,1.2 -0.25,0 -0.35,0 -1,-0.6 -0.15,-0.2 -0.64,-0.65 -0.84,-0.8 -1.9,1.4 -3.94,1.4 -4.69,1.4 -6.07,0 -7.97,-3.34 -7.97,-6.13 0,-1.74 0.8,-3.14 2.15,-4.23 1.59,-1.3 2.98,-1.6 6.57,-2.3 z"
           id="path3103" /><path
           style="fill:#000000;stroke-width:0"
           d="m 505.82,428.02 -6.98,-0.55 v -1.54 c 3.24,0 3.69,-0.31 3.69,-2.75 v -13.39 c 0,-2.25 -0.55,-2.25 -3.89,-2.25 V 406 h 10.66 v 1.54 c -3.28,0 -3.48,0.25 -3.48,2.19 z"
           id="path3105" /><path
           style="fill:#000000;stroke-width:0"
           d="m 506.02,436.68 -0.01,0.15 -0.01,0.15 -0.02,0.14 -0.02,0.13 -0.03,0.14 -0.04,0.13 -0.04,0.13 -0.05,0.12 -0.06,0.12 -0.06,0.11 -0.06,0.11 -0.07,0.11 -0.08,0.1 -0.08,0.1 -0.08,0.09 -0.09,0.09 -0.09,0.09 -0.1,0.07 -0.1,0.08 -0.11,0.07 -0.1,0.06 -0.11,0.06 -0.12,0.06 -0.11,0.05 -0.12,0.04 -0.12,0.04 -0.13,0.03 -0.12,0.03 -0.13,0.02 -0.13,0.01 -0.12,0.01 -0.13,0 c -1.55,0 -2.65,-1.34 -2.65,-2.64 0,-1.34 1.1,-2.64 2.65,-2.64 1.39,0 2.64,1.05 2.64,2.64 z"
           id="path3107" /><path
           style="fill:#000000;stroke-width:0"
           d="m 516.48,423.14 v -13.35 c 0,-2.25 -0.55,-2.25 -3.89,-2.25 V 406 h 11.21 v 1.54 c -3.33,0 -3.88,0 -3.88,2.25 v 9.16 c 0,5.18 3.53,7.97 6.72,7.97 3.14,0 3.69,-2.69 3.69,-5.53 v -11.6 c 0,-2.25 -0.55,-2.25 -3.89,-2.25 V 406 h 11.21 v 1.54 c -2.59,0 -3.84,0 -3.88,1.5 v 9.51 c 0,4.29 0,5.83 -1.55,7.63 -0.7,0.84 -2.34,1.84 -5.23,1.84 -3.64,0 -5.98,-2.14 -7.37,-5.23 v 5.23 l -7.03,-0.55 v -1.54 c 3.49,0 3.89,-0.35 3.89,-2.79 z"
           id="path3109" /><path
           style="fill:#000000;stroke-width:0"
           d="m 555.49,394.04 0,0.03 0,0.03 -0.01,0.01 0,0.02 0,0.01 -0.01,0.02 0,0.02 -0.01,0.01 -0.01,0.02 -0.01,0.02 -0.01,0.03 -0.01,0.02 -0.02,0.02 -0.02,0.03 -0.02,0.03 -0.02,0.03 -0.03,0.03 -0.03,0.04 -0.01,0.02 -0.02,0.02 -0.02,0.02 -0.02,0.02 -0.02,0.02 -0.02,0.03 -0.02,0.02 -0.02,0.02 -0.02,0.03 -0.03,0.02 -0.02,0.03 -0.03,0.03 -0.02,0.03 -0.03,0.03 -0.03,0.03 -0.03,0.03 -0.03,0.03 -0.03,0.03 -0.04,0.04 -0.03,0.03 -0.04,0.04 -0.03,0.03 -0.04,0.04 -0.04,0.04 c -6.23,6.28 -7.82,15.69 -7.82,23.31 0,8.67 1.9,17.34 8.02,23.57 0.65,0.59 0.65,0.69 0.65,0.84 0,0.35 -0.2,0.5 -0.5,0.5 -0.5,0 -4.98,-3.39 -7.92,-9.72 -2.54,-5.47 -3.14,-11 -3.14,-15.19 0,-3.88 0.55,-9.91 3.29,-15.54 2.99,-6.12 7.27,-9.36 7.77,-9.36 0.3,0 0.5,0.15 0.5,0.49 z"
           id="path3111" /><path
           style="fill:#000000;stroke-width:0"
           d="m 568.26,425.93 h 4.69 c 0.99,0 1.49,0 1.49,0.99 0,0.55 -0.5,0.55 -1.4,0.55 h -4.38 c 1.79,7.07 2.04,8.07 2.04,8.37 0,0.84 -0.6,1.34 -1.44,1.34 -0.15,0 -1.54,-0.05 -1.99,-1.79 l -1.95,-7.92 h -4.68 c -0.99,0 -1.49,0 -1.49,-0.95 0,-0.59 0.39,-0.59 1.39,-0.59 h 4.39 c -3.59,-14.15 -3.79,-15 -3.79,-15.89 0,-2.7 1.89,-4.59 4.58,-4.59 5.08,0 7.92,7.28 7.92,7.67 0,0.5 -0.4,0.5 -0.6,0.5 -0.45,0 -0.49,-0.15 -0.74,-0.69 -2.14,-5.19 -4.78,-6.38 -6.48,-6.38 -1.05,0 -1.54,0.65 -1.54,2.29 0,1.2 0.1,1.54 0.29,2.39 z"
           id="path3113" /><path
           style="fill:#000000;stroke-width:0"
           d="m 590.4,418.45 -0.01,0.37 0,0.39 -0.01,0.39 -0.01,0.41 -0.04,0.84 -0.06,0.88 -0.09,0.92 -0.1,0.94 -0.14,0.98 -0.16,1 -0.2,1.02 -0.23,1.04 -0.27,1.05 -0.3,1.06 -0.35,1.06 -0.39,1.07 -0.22,0.53 -0.22,0.54 -0.24,0.53 -0.25,0.53 c -2.99,6.12 -7.27,9.36 -7.77,9.36 -0.3,0 -0.5,-0.2 -0.5,-0.5 0,-0.15 0,-0.25 0.94,-1.15 4.89,-4.92 7.73,-12.85 7.73,-23.26 0,-8.52 -1.85,-17.28 -8.02,-23.56 -0.65,-0.6 -0.65,-0.69 -0.65,-0.85 0,-0.29 0.2,-0.49 0.5,-0.49 0.5,0 4.98,3.38 7.92,9.71 2.54,5.48 3.14,11.01 3.14,15.19 z"
           id="path3115" /><path
           style="fill:#000000;stroke-width:0"
           d="m 603.92,441.71 0,0.14 0,0.14 0,0.14 -0.01,0.07 0,0.07 -0.01,0.07 -0.01,0.07 -0.01,0.06 -0.01,0.07 -0.01,0.07 -0.02,0.06 -0.02,0.07 -0.02,0.06 -0.03,0.06 -0.03,0.06 -0.03,0.05 -0.03,0.05 -0.04,0.05 -0.04,0.05 -0.05,0.04 -0.02,0.02 -0.03,0.02 -0.02,0.02 -0.03,0.02 -0.03,0.01 -0.03,0.02 -0.03,0.01 -0.04,0.01 -0.03,0.02 -0.04,0.01 -0.03,0.01 -0.04,0.01 -0.04,0 -0.04,0.01 -0.04,0 -0.04,0.01 -0.05,0 -0.04,0 c -1,0 -1,-0.95 -1,-1.65 v -46.52 c 0,-0.7 0,-1.64 1,-1.64 0.99,0 0.99,0.94 0.99,1.64 z"
           id="path3117" /></g>    </g>
    <g
       id="g3244"
       transform="matrix(1.7854443,0,0,1.7854443,-178.68061,-215.4726)">
      <g
         word-spacing="normal"
         letter-spacing="normal"
         font-size-adjust="none"
         font-stretch="normal"
         font-weight="normal"
         font-variant="normal"
         font-style="normal"
         fill-rule="even-odd"
         stroke-miterlimit="10.433"
         xml:space="preserve"
         transform="matrix(1.0629921,0,0,-1.0629921,-186.02362,789.27165)"
         id="content"
         style="font-style:normal;font-variant:normal;font-weight:normal;font-stretch:normal;letter-spacing:normal;word-spacing:normal;text-anchor:start;fill:none;stroke:#000000;stroke-linecap:butt;stroke-linejoin:miter;stroke-miterlimit:10.43299961;stroke-opacity:1;stroke-dasharray:none;stroke-dashoffset:0"><path
           id="path3247"
           d="m 473.43,408.79 0.06,-0.19 0.06,-0.19 0.07,-0.18 0.07,-0.17 0.09,-0.17 0.08,-0.17 0.1,-0.16 0.1,-0.15 0.1,-0.15 0.11,-0.15 0.12,-0.14 0.12,-0.13 0.13,-0.13 0.13,-0.13 0.14,-0.11 0.14,-0.12 0.15,-0.1 0.15,-0.1 0.16,-0.09 0.16,-0.09 0.16,-0.08 0.17,-0.07 0.17,-0.07 0.18,-0.06 0.18,-0.06 0.18,-0.04 0.19,-0.04 0.18,-0.04 0.2,-0.02 0.19,-0.02 0.2,-0.01 0.2,-0.01 c 1.74,0 2.89,1.15 3.68,2.74 0.85,1.79 1.5,4.83 1.5,4.93 0,0.5 -0.45,0.5 -0.6,0.5 -0.5,0 -0.55,-0.2 -0.7,-0.89 -0.7,-2.8 -1.64,-6.18 -3.73,-6.18 -1.05,0 -1.55,0.65 -1.55,2.29 0,1.09 0.6,3.44 1,5.18 0.45,1.79 0.94,3.59 1.39,5.38 0.16,0.75 0.65,2.64 0.85,3.39 0.25,1.14 0.75,3.03 0.75,3.33 0,0.9 -0.7,1.35 -1.44,1.35 -0.25,0 -1.55,-0.05 -1.95,-1.74 -0.95,-3.64 -3.14,-12.36 -3.73,-15 -0.05,-0.2 -2.05,-4.18 -5.68,-4.18 -2.59,0 -3.09,2.24 -3.09,4.08 0,2.79 1.39,6.73 2.69,10.16 0.6,1.5 0.85,2.19 0.85,3.14 0,2.25 -1.6,4.09 -4.09,4.09 -4.73,0 -6.57,-7.23 -6.57,-7.67 0,-0.5 0.49,-0.5 0.59,-0.5 0.5,0 0.55,0.1 0.8,0.9 1.25,4.33 3.14,6.17 5.03,6.17 0.45,0 1.25,-0.05 1.25,-1.64 0,-1.2 -0.55,-2.64 -0.85,-3.39 -1.84,-4.93 -2.89,-8.02 -2.89,-10.46 0,-4.73 3.44,-5.98 6.13,-5.98 3.28,0 5.08,2.25 5.92,3.34 z"
           style="fill:#000000;stroke-width:0" /><path
           id="path3249"
           d="m 500.49,394.04 0,0.03 0,0.03 -0.01,0.01 0,0.02 0,0.01 -0.01,0.02 0,0.02 -0.01,0.01 -0.01,0.02 -0.01,0.02 -0.01,0.03 -0.01,0.02 -0.02,0.02 -0.02,0.03 -0.02,0.03 -0.02,0.03 -0.03,0.03 -0.03,0.04 -0.01,0.02 -0.02,0.02 -0.02,0.02 -0.02,0.02 -0.02,0.02 -0.02,0.03 -0.02,0.02 -0.02,0.02 -0.02,0.03 -0.03,0.02 -0.02,0.03 -0.03,0.03 -0.02,0.03 -0.03,0.03 -0.03,0.03 -0.03,0.03 -0.03,0.03 -0.03,0.03 -0.04,0.04 -0.03,0.03 -0.04,0.04 -0.03,0.03 -0.04,0.04 -0.04,0.04 c -6.23,6.28 -7.82,15.69 -7.82,23.31 0,8.67 1.89,17.34 8.02,23.57 0.65,0.59 0.65,0.69 0.65,0.84 0,0.35 -0.2,0.5 -0.5,0.5 -0.5,0 -4.98,-3.39 -7.92,-9.72 -2.54,-5.47 -3.14,-11 -3.14,-15.19 0,-3.88 0.55,-9.91 3.29,-15.54 2.99,-6.12 7.27,-9.36 7.77,-9.36 0.3,0 0.5,0.15 0.5,0.49 z"
           style="fill:#000000;stroke-width:0" /><path
           id="path3251"
           d="m 513.26,425.93 h 4.69 c 0.99,0 1.49,0 1.49,0.99 0,0.55 -0.5,0.55 -1.4,0.55 h -4.38 c 1.79,7.07 2.04,8.07 2.04,8.37 0,0.84 -0.6,1.34 -1.44,1.34 -0.15,0 -1.54,-0.05 -1.99,-1.79 l -1.95,-7.92 h -4.68 c -1,0 -1.5,0 -1.5,-0.95 0,-0.59 0.4,-0.59 1.4,-0.59 h 4.39 c -3.59,-14.15 -3.79,-15 -3.79,-15.89 0,-2.7 1.89,-4.59 4.58,-4.59 5.08,0 7.92,7.28 7.92,7.67 0,0.5 -0.4,0.5 -0.6,0.5 -0.45,0 -0.49,-0.15 -0.74,-0.69 -2.14,-5.19 -4.78,-6.38 -6.48,-6.38 -1.05,0 -1.54,0.65 -1.54,2.29 0,1.2 0.1,1.54 0.29,2.39 z"
           style="fill:#000000;stroke-width:0" /><path
           id="path3253"
           d="m 535.4,418.45 -0.01,0.37 0,0.39 -0.01,0.39 -0.01,0.41 -0.04,0.84 -0.06,0.88 -0.09,0.92 -0.1,0.94 -0.14,0.98 -0.16,1 -0.2,1.02 -0.23,1.04 -0.27,1.05 -0.3,1.06 -0.35,1.06 -0.39,1.07 -0.22,0.53 -0.22,0.54 -0.24,0.53 -0.25,0.53 c -2.99,6.12 -7.27,9.36 -7.77,9.36 -0.3,0 -0.5,-0.2 -0.5,-0.5 0,-0.15 0,-0.25 0.94,-1.15 4.89,-4.92 7.73,-12.85 7.73,-23.26 0,-8.52 -1.85,-17.28 -8.02,-23.56 -0.65,-0.6 -0.65,-0.69 -0.65,-0.85 0,-0.29 0.2,-0.49 0.5,-0.49 0.5,0 4.98,3.38 7.92,9.71 2.54,5.48 3.14,11.01 3.14,15.19 z"
           style="fill:#000000;stroke-width:0" /><path
           id="path3255"
           d="m 589.22,422.29 0.14,0 0.15,0 0.15,0.01 0.07,0 0.07,0 0.07,0.01 0.08,0.01 0.07,0.01 0.07,0.01 0.06,0.02 0.07,0.01 0.07,0.02 0.06,0.02 0.06,0.03 0.06,0.03 0.05,0.03 0.06,0.03 0.05,0.04 0.04,0.04 0.05,0.05 0.03,0.05 0.02,0.03 0.02,0.02 0.02,0.03 0.01,0.03 0.02,0.03 0.01,0.04 0.01,0.03 0.01,0.04 0.01,0.03 0.01,0.04 0.01,0.04 0,0.04 0.01,0.04 0,0.04 0,0.05 0,0.05 c 0,0.99 -0.94,0.99 -1.64,0.99 h -29.84 c -0.7,0 -1.64,0 -1.64,-0.99 0,-1 0.94,-1 1.69,-1 z"
           style="fill:#000000;stroke-width:0" /><path
           id="path3257"
           d="m 589.27,412.62 0.13,0.01 0.14,0 0.14,0 0.07,0.01 0.07,0 0.07,0.01 0.07,0.01 0.07,0.01 0.07,0.01 0.06,0.01 0.07,0.02 0.06,0.02 0.06,0.02 0.06,0.02 0.06,0.03 0.06,0.03 0.05,0.04 0.05,0.04 0.04,0.04 0.05,0.04 0.02,0.03 0.02,0.03 0.01,0.02 0.02,0.03 0.02,0.03 0.01,0.03 0.02,0.03 0.01,0.03 0.01,0.04 0.01,0.03 0.01,0.04 0.01,0.04 0.01,0.04 0,0.04 0.01,0.04 0,0.04 0,0.05 0,0.04 c 0,1 -0.94,1 -1.69,1 h -29.74 c -0.75,0 -1.69,0 -1.69,-1 0,-1 0.94,-1 1.64,-1 z"
           style="fill:#000000;stroke-width:0" /></g>    </g>
  </g>
</svg>
