<?xml version="1.0" encoding="UTF-8" standalone="no"?>
<!-- Created with Inkscape (http://www.inkscape.org/) -->

<svg
   xmlns:dc="http://purl.org/dc/elements/1.1/"
   xmlns:cc="http://creativecommons.org/ns#"
   xmlns:rdf="http://www.w3.org/1999/02/22-rdf-syntax-ns#"
   xmlns:svg="http://www.w3.org/2000/svg"
   xmlns="http://www.w3.org/2000/svg"
   xmlns:sodipodi="http://sodipodi.sourceforge.net/DTD/sodipodi-0.dtd"
   xmlns:inkscape="http://www.inkscape.org/namespaces/inkscape"
   width="1326.2917"
   height="639.74414"
   id="svg2"
   version="1.1"
   inkscape:version="0.47pre4 r22446"
   sodipodi:docname="New document 1">
  <defs
     id="defs4">
    <inkscape:perspective
       sodipodi:type="inkscape:persp3d"
       inkscape:vp_x="0 : 526.18109 : 1"
       inkscape:vp_y="0 : 1000 : 0"
       inkscape:vp_z="744.09448 : 526.18109 : 1"
       inkscape:persp3d-origin="372.04724 : 350.78739 : 1"
       id="perspective10" />
  </defs>
  <sodipodi:namedview
     id="base"
     pagecolor="#ffffff"
     bordercolor="#666666"
     borderopacity="1.0"
     inkscape:pageopacity="0.0"
     inkscape:pageshadow="2"
     inkscape:zoom="0.35"
     inkscape:cx="797.81484"
     inkscape:cy="246.46163"
     inkscape:document-units="px"
     inkscape:current-layer="layer1"
     showgrid="false"
     inkscape:window-width="1280"
     inkscape:window-height="726"
     inkscape:window-x="0"
     inkscape:window-y="25"
     inkscape:window-maximized="1" />
  <metadata
     id="metadata7">
    <rdf:RDF>
      <cc:Work
         rdf:about="">
        <dc:format>image/svg+xml</dc:format>
        <dc:type
           rdf:resource="http://purl.org/dc/dcmitype/StillImage" />
        <dc:title></dc:title>
      </cc:Work>
    </rdf:RDF>
  </metadata>
  <g
     inkscape:label="Layer 1"
     inkscape:groupmode="layer"
     id="layer1"
     transform="translate(422.81484,-139.0797)">
    <path
       style="color:#000000;fill:#ffffff;fill-opacity:1;fill-rule:nonzero;stroke:#000000;stroke-width:2;stroke-linecap:butt;stroke-linejoin:miter;stroke-miterlimit:4;stroke-opacity:1;stroke-dasharray:none;stroke-dashoffset:0;marker:none;visibility:visible;display:inline;overflow:visible;enable-background:accumulate"
       id="path2818"
       d="m -197.50653,626.75837 c -11.30784,-4.49812 -18.11718,-14.01899 -24.10628,-24.09989 -8.82775,-16.64021 -12.25576,-34.51379 -13.76468,-53.08353 -0.40876,-16.3705 1.55573,-33.41986 8.58608,-48.42758 1.26533,-2.7011 2.93205,-5.19529 4.39807,-7.79294 7.20182,-9.93996 18.43613,-19.39572 31.65312,-17.36541 2.17714,0.33443 4.21849,1.26944 6.32773,1.90416 13.84746,7.32331 23.05434,20.65449 28.62253,35.0386 1.44974,3.74505 2.46494,7.64412 3.69741,11.46618 5.57477,21.83745 6.48543,44.77034 2.05897,66.92307 -0.90706,4.53948 -2.28278,8.9726 -3.42418,13.45889 -6.06194,17.47227 -13.58976,37.5006 -28.04768,49.98871 -1.77469,1.5329 -3.89073,2.61905 -5.8361,3.92858 -9.64644,3.52366 -9.87922,3.87581 -16.43723,-3.27635 0,0 2.37664,-1.4433 2.37664,-1.4433 l 0,0 c 4.34584,4.68024 4.90652,5.58844 11.48723,5.72652 1.96074,-1.29439 4.09365,-2.3597 5.88221,-3.88318 14.5282,-12.37494 22.07888,-32.46309 28.16437,-49.88764 1.1457,-4.47812 2.52614,-8.90265 3.4371,-13.43435 4.44433,-22.10887 3.54288,-45.00437 -2.02487,-66.80221 -1.23034,-3.81098 -2.24335,-7.69909 -3.691,-11.43292 -5.54871,-14.3114 -14.72995,-27.58662 -28.55199,-34.80801 -2.09487,-0.61262 -4.12459,-1.52466 -6.28461,-1.83785 -11.88465,-1.72321 -20.45619,5.59849 -26.90918,14.62091 -1.47362,2.58625 -3.14945,5.06732 -4.42086,7.75875 -7.06561,14.95717 -9.03778,31.98525 -8.6475,48.32148 1.51276,18.66999 4.87427,36.21788 13.73553,52.95707 5.96964,10.02323 12.75851,19.51292 24.05964,23.89424 0,0 -2.34047,1.588 -2.34047,1.588 z" />
    <path
       style="color:#000000;fill:#ffffff;fill-opacity:1;fill-rule:nonzero;stroke:#000000;stroke-width:2;stroke-linecap:butt;stroke-linejoin:miter;stroke-miterlimit:4;stroke-opacity:1;stroke-dasharray:none;stroke-dashoffset:0;marker:none;visibility:visible;display:inline;overflow:visible;enable-background:accumulate"
       id="path2820"
       d="m -184.44866,628.11746 c -1.06232,-9.52767 -2.96842,-18.91696 -4.70409,-28.33625 -2.85382,-12.76131 -5.20889,-25.61697 -7.6962,-38.45036 -1.4444,-9.07492 -3.79289,-17.94857 -5.80611,-26.90286 -0.72745,-2.1555 -0.38549,-8.32841 -3.44951,-8.90381 -0.26038,0.18147 -1.09437,0.59554 -0.78113,0.54442 0.59239,-0.0967 1.10802,-0.91501 1.66387,-0.68849 0.0899,0.0366 -0.61197,0.87715 -1.46566,2.65245 -0.88242,1.83503 -0.89682,2.09484 -1.56275,4.08365 -1.07957,3.78868 -1.55052,7.702 -1.84898,11.61825 -1.12689,-0.58152 0.29841,1.05765 -0.0736,1.14243 -4.34139,0.98917 -2.15011,-1.01492 -1.2612,-4.48014 1.39233,-5.04545 3.88012,-9.58533 6.35271,-14.1505 2.46057,-4.07663 5.45181,-7.69622 9.27051,-10.55391 4.46316,-3.14796 7.87713,-6.10019 13.23984,-3.56483 4.52015,3.41982 7.04474,8.6233 10.68894,12.86156 1.8946,1.96192 3.85718,3.33915 6.37972,4.28067 0,0 -2.34701,1.57652 -2.34701,1.57652 l 0,0 c -2.52959,-1.00768 -4.5392,-2.4089 -6.44428,-4.4045 -3.61014,-4.21275 -6.12847,-9.38477 -10.63632,-12.75116 -1.40418,-0.62787 -1.97472,-1.08708 -3.51663,-1.06005 -0.55365,0.01 -1.12926,0.51922 -1.63502,0.29377 -0.29322,-0.13072 0.89765,-0.86415 0.59486,-0.75746 -0.16845,0.0594 -3.64574,2.44929 -3.69471,2.48274 -3.85932,2.78618 -6.83374,6.40419 -9.32528,10.44162 -2.45445,4.55462 -4.98244,9.05285 -6.37389,14.0834 -0.83578,3.33295 -0.9811,4.69912 -3.84806,6.97145 -0.29904,0.23702 1.27047,-2.82035 0.0883,-1.14131 0.30586,-3.93695 0.77264,-7.87067 1.83226,-11.68637 1.32195,-4.06174 2.5665,-7.90341 7.05062,-9.40342 3.19693,1.15461 2.81702,6.54779 3.58177,9.18035 1.9881,8.96665 4.34075,17.84663 5.77076,26.93074 2.48759,12.83357 4.83442,25.69096 7.70294,38.44952 1.74299,9.41381 3.65617,18.79696 4.75287,28.31588 0,0 -2.4995,1.326 -2.4995,1.326 z" />
    <path
       style="color:#000000;fill:#ffffff;fill-opacity:1;fill-rule:nonzero;stroke:#000000;stroke-width:2;stroke-linecap:butt;stroke-linejoin:miter;stroke-miterlimit:4;stroke-opacity:1;stroke-dasharray:none;stroke-dashoffset:0;marker:none;visibility:visible;display:inline;overflow:visible;enable-background:accumulate"
       id="path2822"
       d="m -209.8301,482.03973 c 1.2235,-12.05219 1.91098,-24.14038 2.36573,-36.24291 0.29918,-15.62704 2.20847,-31.15768 2.2629,-46.79085 -0.34904,-12.24559 -0.56847,-24.50043 -2.23734,-36.64749 -0.47496,-5.67371 -2.23152,-11.01299 -3.91688,-16.40121 -0.56768,-2.03103 -1.91014,-3.99778 -0.2223,-5.72037 3.24588,-2.25436 6.87399,-4.09115 13.51973,-5.04538 9.34242,-0.41204 18.55928,-1.89169 27.78068,-3.35942 14.02802,-2.6075 28.14164,-4.79653 42.29884,-6.57571 14.90993,-1.86313 29.951576,-1.68067 44.922435,-2.5779 13.973431,-1.13233 27.970804,-1.86313 41.982618,-2.27413 11.567428,-0.28344 23.139066,-0.29983 34.7092732,-0.31169 8.6772929,-0.18763 17.2770318,1.24983 25.8921108,2.09113 5.252648,0.4798 10.524506,0.68807 15.796734,0.77177 1.822426,-0.29908 4.233428,0.66265 5.849594,-0.38607 -0.36188,0.10104 -1.134729,0.67563 -1.085639,0.30313 0.0694,-0.52664 0.796773,-0.70288 1.185962,-1.06439 2.247164,-2.08735 4.126978,-4.31499 5.997294,-6.74281 4.923229,-6.30661 9.454639,-12.91396 13.917274,-19.55181 4.905607,-7.85979 9.37397,-15.98453 14.086847,-23.96318 2.41865,-4.62885 4.888167,-9.21843 7.666211,-13.64322 5.46757,-4.89678 6.733604,5.97008 7.393931,8.85461 1.886068,10.28274 1.997969,20.78018 2.205181,31.20039 0.212371,13.25107 -1.193408,26.46658 -1.916355,39.69004 -0.463399,8.82743 -0.690972,17.6645 -0.788483,26.50281 -0.01058,1.6416 -0.19477,2.3772 0.308315,3.8288 0.100395,0.28968 0.223609,0.59713 0.453127,0.80039 0.104025,0.0921 0.539208,-0.0946 0.415709,-0.031 -2.676522,1.38024 -1.730852,0.71925 -0.534958,-0.56631 4.299882,-7.67437 7.636706,-15.87152 11.131659,-23.93684 6.04458,-14.26612 11.20421,-28.88463 16.56106,-43.41739 5.0785,-13.86424 10.62314,-27.5432 16.37052,-41.1407 3.785,-6.06751 5.0667,-14.23288 10.29887,-19.35544 1.0934,-0.60597 2.09978,-1.40641 3.28019,-1.81792 0.65911,-0.22978 1.18805,0.84519 1.48406,1.47733 1.32523,2.83004 1.51188,6.26694 1.93554,9.30217 2.14007,10.55988 2.92823,21.30118 3.46011,32.04086 0.49426,12.38204 0.52223,24.77595 0.55406,37.16585 0.0118,7.71546 0.004,15.43093 -0.002,23.1464 -0.46214,4.11365 0.60588,7.90995 1.69983,11.81007 0.25822,1.43686 0.71425,2.93195 1.61193,4.11763 0.7061,0.93264 2.88195,-0.33398 -0.98424,0.8621 2.54967,-6.46821 4.09936,-13.31428 6.08722,-19.97842 3.43062,-13.65893 7.3113,-27.19917 11.12397,-40.75496 2.6513,-9.93026 5.82608,-19.71018 8.17321,-29.72055 0.86645,-3.72398 1.18685,-7.52087 1.25599,-11.33236 2.80481,-5.30655 6.80442,3.13551 7.91402,5.16737 2.15881,6.18351 3.65919,12.58373 4.65755,19.05503 0.9987,8.59245 2.54078,17.09952 3.36347,25.71664 0.22427,7.21685 0.94241,14.3152 2.0971,21.43466 0.5538,4.21869 1.09206,8.31209 2.7548,12.24819 0.92333,2.94261 2.45059,3.92711 5.33206,4.80329 4.40853,0.59313 8.69639,1.77793 13.08536,2.51903 5.84515,0.8745 11.76361,0.9696 17.66113,1.05775 9.24617,-0.23379 18.4215,1.04634 27.62148,1.77514 11.23226,0.43011 22.40542,1.3496 33.59584,2.3811 12.73647,1.14858 25.52993,1.354 38.30895,1.51587 14.07337,0.53394 28.08951,-0.21395 42.11939,-1.20404 12.31778,-0.93256 24.6654,-1.29105 37.01339,-1.48438 9.60525,0.0654 19.12677,-1.40825 28.68253,-2.20002 5.43378,-0.10468 11.03327,-1.32561 16.43539,-0.40485 4.39056,1.89344 4.30406,6.30341 4.58708,10.49056 0.0587,9.58109 -1.3293,19.1249 -1.93999,28.69037 -1.40059,12.69592 -2.44883,25.41723 -3.99573,38.09612 -1.53669,12.54332 -2.08587,25.17095 -2.41338,37.79399 -0.18757,8.80482 -0.18958,17.61199 -0.17863,26.41834 -0.20524,4.32483 0.60475,8.49238 2.88339,12.16949 0.94449,1.03804 1.71693,1.23796 2.923,0.54921 0,0 -2.22639,1.77108 -2.22639,1.77108 l 0,0 c -1.35678,0.50658 -2.19337,0.21794 -3.14861,-0.89476 -2.29769,-3.72548 -3.15494,-7.93714 -2.93597,-12.31863 -0.003,-8.81321 0.0138,-17.62708 0.20197,-26.43868 0.33697,-12.63187 0.87969,-25.26852 2.40988,-37.82182 1.55064,-12.67279 2.595,-25.38784 3.99596,-38.07808 0.59526,-9.54999 1.97263,-19.07759 1.92326,-28.64091 -0.27094,-4.02903 -0.0996,-8.40932 -4.40272,-10.15905 -5.39677,-0.82393 -10.95259,0.31746 -16.37099,0.44284 -9.55229,0.79556 -19.07299,2.25302 -28.67601,2.172 -12.34132,0.19554 -24.68205,0.558 -36.99326,1.48837 -14.03422,0.98555 -28.05576,1.71181 -42.13263,1.1853 -12.78732,-0.16126 -25.58919,-0.37028 -38.33342,-1.52537 -11.19113,-1.03319 -22.36723,-1.92606 -33.59897,-2.37448 -9.2028,-0.73106 -18.38332,-1.98864 -27.63284,-1.7449 -5.9091,-0.0908 -11.83935,-0.19148 -17.69356,-1.08769 -4.39687,-0.75372 -8.70667,-1.90328 -13.11904,-2.54148 -2.91499,-0.92642 -4.53218,-2.02962 -5.46297,-5.01264 -1.66534,-3.96296 -2.23439,-8.06862 -2.767,-12.31823 -1.15249,-7.12789 -1.88703,-14.23113 -2.09322,-21.45752 -0.81736,-8.61254 -2.3507,-17.11458 -3.35964,-25.70029 -0.99148,-6.43943 -2.48907,-12.80352 -4.63099,-18.95793 -0.92252,-1.68569 -1.90247,-3.34319 -2.98787,-4.93115 -0.32147,-0.47031 -1.08665,-0.80521 -1.02034,-1.37101 0.10585,-0.90303 0.93417,-1.56169 1.4517,-2.30925 0.15918,-0.22994 -0.24881,0.50093 -0.37322,0.75139 -0.0686,3.83291 -0.37573,7.65158 -1.25036,11.39678 -2.36763,10.02121 -5.55452,19.81282 -8.21862,29.75561 -3.81777,13.54924 -7.69454,27.08668 -11.09825,40.74736 -1.98093,6.66599 -3.53993,13.50127 -6.0139,19.99512 -4.3788,3.54947 -4.2686,2.81725 -5.70915,-2.44835 -1.09414,-3.92595 -2.19704,-7.74535 -1.72264,-11.88569 0.0175,-7.72107 0.0415,-15.44213 0.0372,-23.16323 -0.0195,-12.38729 -0.0484,-24.7787 -0.54007,-37.15816 -0.53528,-10.72763 -1.31587,-21.459 -3.47869,-32.00316 -0.33274,-2.38362 -0.57499,-4.63919 -1.16508,-6.97335 -0.18817,-0.74433 -0.40282,-1.48973 -0.72834,-2.18505 -0.1683,-0.35949 -0.44063,-0.6702 -0.73371,-0.93789 -0.14287,-0.1305 -0.65963,-0.073 -0.53633,-0.22216 0.39884,-0.48243 1.04717,-0.68605 1.57076,-1.02907 -5.43239,4.87866 -6.54446,13.32087 -10.40148,19.27256 -5.76989,13.59232 -11.31774,27.27419 -16.40179,41.14069 -5.35359,14.53057 -10.51063,29.14603 -16.52891,43.41938 -3.49221,8.07678 -6.857759,16.24978 -11.040767,23.99797 -4.217411,4.736 -6.033741,4.34779 -5.767389,-1.6589 0.111219,-8.84903 0.357764,-17.69651 0.824644,-26.5345 0.724092,-13.21711 2.130548,-26.42658 1.924726,-39.67101 -0.213665,-10.39718 -0.32828,-20.87183 -2.21339,-31.13133 -0.600449,-2.6103 -1.124572,-5.45255 -2.196969,-7.93285 -0.234823,-0.54311 -0.947978,-0.9548 -0.87861,-1.54242 0.105761,-0.89592 0.998725,-1.51658 1.338375,-2.35234 0.09621,-0.23674 -0.389433,0.33096 -0.584149,0.49645 -2.803719,4.41819 -5.293887,9.00507 -7.700638,13.64956 -4.72728,7.97744 -9.201303,16.10476 -14.090226,23.98208 -4.450147,6.63987 -8.976336,13.2453 -13.883866,19.55681 -3.113763,4.06771 -6.365298,7.8524 -10.909914,10.40089 -1.821068,0.7611 -4.002264,0.0394 -5.922751,0.26305 -5.271228,-0.0924 -10.541548,-0.3171 -15.792597,-0.80299 -8.6023268,-0.8528 -17.19102751,-2.27861 -25.8578339,-2.08165 -11.5645431,0.01 -23.1305161,0.0229 -34.6922561,0.30905 -14.006242,0.41158 -27.997427,1.14664 -41.965759,2.27205 -14.96848,0.88148 -30.00648,0.72037 -44.91193,2.59275 -14.16121,1.78792 -28.27788,3.98604 -42.31067,6.59589 -9.23318,1.47354 -18.46367,2.92109 -27.8144,3.38044 -5.87137,0.88182 -6.31514,0.99785 -10.12936,3.18399 -0.50575,0.28987 0.99937,-0.6004 1.49906,-0.90059 -1.91177,1.45556 -0.42906,3.48417 0.0714,5.43172 1.67604,5.40986 3.44946,10.76489 3.90639,16.45978 1.65892,12.16569 1.87229,24.43668 2.22062,36.69967 -0.047,15.63545 -1.96274,31.16751 -2.25398,46.79683 -0.44542,12.08862 -1.12188,24.16361 -2.31295,36.2045 0,0 -2.51734,1.28264 -2.51734,1.28264 z" />
    <path
       style="color:#000000;fill:#ffffff;fill-opacity:1;fill-rule:nonzero;stroke:#000000;stroke-width:2;stroke-linecap:butt;stroke-linejoin:miter;stroke-miterlimit:4;stroke-opacity:1;stroke-dasharray:none;stroke-dashoffset:0;marker:none;visibility:visible;display:inline;overflow:visible;enable-background:accumulate"
       id="path2824"
       d="m 417.80888,514.0312 c 10.15024,-1.36857 20.18975,-3.53421 30.15186,-5.89599 10.23124,-2.62166 20.67336,-4.02992 31.18986,-4.77211 6.84724,-0.41421 13.7087,-0.45807 20.56609,-0.4575 3.05322,-0.41476 6.03152,-1.26299 8.91274,-2.34079 1.03302,-0.67658 1.51426,-0.36249 0.53334,0.6258 -0.16097,0.15822 -0.32193,0.31643 -0.4829,0.47465 0,0 -2.63244,1.08723 -2.63244,1.08723 l 0,0 c 0.16116,-0.15737 0.32232,-0.31474 0.48348,-0.47211 0.92814,-0.9166 1.12431,-0.22592 -0.14427,0.038 -2.89692,1.0497 -5.88401,1.90043 -8.9536,2.24625 -6.84625,-0.003 -13.69663,0.0376 -20.53251,0.4577 -10.50351,0.75073 -20.93035,2.17847 -31.14869,4.79742 -9.98253,2.35491 -20.03747,4.52118 -30.2046,5.90413 0,0 2.26164,-1.69272 2.26164,-1.69272 z" />
    <path
       style="color:#000000;fill:#ffffff;fill-opacity:1;fill-rule:nonzero;stroke:#000000;stroke-width:2;stroke-linecap:butt;stroke-linejoin:miter;stroke-miterlimit:4;stroke-opacity:1;stroke-dasharray:none;stroke-dashoffset:0;marker:none;visibility:visible;display:inline;overflow:visible;enable-background:accumulate"
       id="path2826"
       d="m 420.32409,542.59865 c 7.97768,-0.88367 15.8692,-2.23168 23.79509,-3.47779 8.15576,-0.87114 16.26159,-1.94916 24.38284,-3.10238 7.85828,-1.61574 15.70571,-3.21071 23.38217,-5.56139 5.88704,-1.50523 11.51007,-3.72311 17.1208,-6.02345 0.93439,-0.11849 3.16811,-2.07213 3.7261,-1.01076 0.25144,0.9993 -0.43601,1.60726 -1.02943,2.30686 0,0 -2.6197,1.09906 -2.6197,1.09906 l 0,0 c 0.56202,-0.57039 1.31649,-1.10723 1.16192,-2.00826 -0.85814,0.24084 -2.44783,0.93863 -3.46335,1.36507 -5.60886,2.28671 -11.2374,4.47295 -17.11459,5.98545 -7.68874,2.32389 -15.53827,3.94104 -23.40766,5.52653 -8.11864,1.15622 -16.22715,2.2096 -24.37777,3.10394 -7.93229,1.25741 -15.83867,2.56707 -23.81772,3.4978 0,0 2.2613,-1.70068 2.2613,-1.70068 z" />
    <path
       style="color:#000000;fill:#ffffff;fill-opacity:1;fill-rule:nonzero;stroke:#000000;stroke-width:2;stroke-linecap:butt;stroke-linejoin:miter;stroke-miterlimit:4;stroke-opacity:1;stroke-dasharray:none;stroke-dashoffset:0;marker:none;visibility:visible;display:inline;overflow:visible;enable-background:accumulate"
       id="path2828"
       d="m 472.3543,545.55977 c -1.3843,9.39874 -1.49275,18.9165 -2.55163,28.34298 -1.23034,8.33269 -2.08731,16.70817 -2.53278,25.11791 0.1882,6.9235 -1.08092,13.70173 -2.03862,20.52216 -0.71773,5.08959 -0.97062,10.21837 -1.08319,15.3511 -0.10452,4.72865 -1.46915,9.31942 -2.1107,14.00253 -0.55348,4.54285 -0.69897,9.11743 -0.77186,13.68859 0.10849,3.35957 -0.36129,6.77878 0.31376,10.08585 1.58381,4.01679 1.46157,4.99324 -4.00434,6.05647 -5.05212,0.40829 -10.1395,0.25152 -15.20462,0.23557 -9.50034,-0.2213 -18.94912,-0.06 -28.41454,0.76232 -13.10583,1.42933 -25.82676,4.72684 -38.45801,8.37318 -15.39519,4.1468 -30.69309,8.62753 -46.08673,12.77867 -16.23344,4.48721 -32.66277,8.23716 -49.09365,11.92411 -17.75301,4.08504 -35.65258,7.53073 -53.60589,10.61025 -17.44974,2.39003 -34.83208,5.26491 -52.33053,7.27965 -17.85202,2.3474 -35.78419,3.96649 -53.6227,6.42131 -18.48963,2.45514 -36.963111,5.07844 -55.388814,7.97927 -18.472811,3.4866 -37.057612,6.34313 -55.4819618,10.08289 -16.3475156,2.90552 -32.4156242,7.12313 -48.6146632,10.72419 -14.047476,2.90982 -28.182582,5.11135 -42.473392,6.34525 -10.501776,0.78821 -21.034749,0.94021 -31.561219,0.99674 -6.46836,0.0148 -12.93671,-0.0162 -19.40504,-0.0324 -4.06792,-0.01 -8.13585,-0.0108 -12.20377,-0.0128 -3.07152,10e-4 -6.14304,-10e-4 -9.21456,-2.5e-4 -3.59651,-0.0328 -7.01168,1.38498 -10.51195,2.09343 -3.04767,0.21603 -5.80043,1.40435 -8.60584,2.52417 -2.7359,0.2142 -2.64059,-2.7738 -2.80767,-4.80416 -0.16178,-3.92139 -0.0938,-7.84797 -0.0743,-11.77148 -0.82092,-4.71261 -1.4979,-9.49575 -2.62691,-14.14736 -1.30766,-3.91897 -2.23853,-7.90269 -2.73263,-11.99952 -0.46757,-3.46739 -0.0204,-6.9943 -0.67457,-10.42629 -1.1443,-3.4128 -1.81878,-6.92908 -2.17812,-10.50256 -0.33017,-4.29213 -0.32618,-8.59915 -0.33735,-12.90094 -0.001,-5.42956 0.01,-10.85912 0.0151,-16.28868 0.005,-4.59611 -2.1e-4,-9.19222 0.001,-13.78833 0.11989,-3.32512 -1.15087,-6.49669 -2.05642,-9.65372 -0.43357,-1.1773 -0.60408,-2.37432 -0.70635,-3.61618 0,0 2.52188,-1.31037 2.52188,-1.31037 l 0,0 c 0.0946,1.22496 0.25257,2.40513 0.67828,3.56732 0.90317,3.18338 2.19461,6.38054 2.08423,9.72817 3.2e-4,4.59779 -0.008,9.19557 -0.0107,13.79336 -0.005,5.42838 -0.0146,10.85677 -0.0106,16.28515 0.0132,4.29261 0.01,8.59047 0.33026,12.87388 0.35249,3.56567 1.0151,7.0762 2.16746,10.47825 0.68674,3.43486 0.23002,6.96832 0.68441,10.44494 0.47988,4.08863 1.40162,8.06458 2.70763,11.97394 1.14998,4.66897 1.80457,9.47788 2.66139,14.20721 -0.016,3.91462 -0.0781,7.83212 0.0738,11.7448 0.14349,1.83893 -0.0551,4.78969 2.52304,4.35721 2.81044,-1.11214 5.58546,-2.24204 8.63103,-2.48098 3.50187,-0.73674 6.9347,-2.12334 10.54764,-2.04807 3.07131,6e-4 6.14262,-0.003 9.21393,8.8e-4 4.06362,0.002 8.12722,0.0104 12.19081,0.0229 6.46352,0.0176 12.92704,0.051 19.3906,0.0402 10.513117,-0.0508 21.032978,-0.2008 31.520986,-0.99532 14.279817,-1.24257 28.404854,-3.45196 42.440988,-6.36667 16.192438,-3.60421 32.2590464,-7.8025 48.600828,-10.70716 18.42739,-3.72769 37.011467,-6.59402 55.486726,-10.07142 18.430176,-2.89329 36.905382,-5.52431 55.398352,-7.97975 17.84028,-2.44319 35.77217,-4.06939 53.62465,-6.41547 17.49398,-2.03032 34.87624,-4.8896 52.3217,-7.29185 17.95134,-3.08714 35.85069,-6.52932 53.60103,-10.62398 16.43159,-3.6877 32.85911,-7.44863 49.09277,-11.9382 15.3942,-4.15256 30.69284,-8.63462 46.08784,-12.78554 12.64851,-3.64513 25.38986,-6.93646 38.51441,-8.34826 9.47664,-0.8164 18.9392,-0.95888 28.44977,-0.75721 5.0603,0.0128 10.15222,0.18717 15.19363,-0.30191 1.4121,-0.32435 1.96497,-0.61644 -0.23448,0.77634 -0.19723,0.1249 0.43261,-0.25932 0.51061,-0.47936 0.38712,-1.09209 -1.10654,-2.22532 -1.03354,-3.29731 -0.70831,-3.32322 -0.23954,-6.76224 -0.33884,-10.14352 0.0708,-4.58223 0.21891,-9.16723 0.7634,-13.72199 0.62813,-4.67784 1.98224,-9.25841 2.12419,-13.97348 0.10728,-5.14408 0.35504,-10.28363 1.0755,-15.38443 0.95469,-6.81569 2.25546,-13.58533 2.05877,-20.50489 0.43685,-8.41703 1.29939,-16.79985 2.53593,-25.13837 1.07568,-9.42162 1.18542,-18.93506 2.51975,-28.33637 0,0 2.53499,-1.24666 2.53499,-1.24666 z" />
    <path
       style="color:#000000;fill:#ffffff;fill-opacity:1;fill-rule:nonzero;stroke:#000000;stroke-width:2;stroke-linecap:butt;stroke-linejoin:miter;stroke-miterlimit:4;stroke-opacity:1;stroke-dasharray:none;stroke-dashoffset:0;marker:none;visibility:visible;display:inline;overflow:visible;enable-background:accumulate"
       id="path2830"
       d="m -44.113782,335.98265 c 0.286853,-12.43465 1.484466,-24.83693 2.093707,-37.26545 1.029925,-14.65643 0.421074,-29.27766 -0.505687,-43.91194 -1.324529,-10.99705 -2.871546,-21.96015 -3.806068,-33.0003 -0.795783,-5.68258 -2.225753,-11.24269 -3.002821,-16.92894 -1.167924,-3.43402 -2.208489,-6.8805 -2.851437,-10.45317 -0.306781,-3.13623 -0.882025,-6.39816 -0.200722,-9.50736 1.613659,-3.99992 7.127701,-4.57601 10.84591,-5.59282 8.362239,-1.87394 16.794397,-3.3957 25.243518,-4.83061 12.7790053,-2.58856 25.5216372,-5.22255 38.463797,-6.85136 13.500011,-1.64374 27.050223,-2.79921 40.571284,-4.2382 16.100528,-1.50541 32.147621,-3.47543 48.273531,-4.70744 17.81207,-1.61652 35.59653,-3.52554 53.41583,-5.05895 19.38849,-1.43633 38.75672,-3.13744 58.11787,-4.90762 21.83169,-1.53785 43.64429,-3.33383 65.50422,-4.44023 25.71696,-0.68541 51.4035,-2.10434 77.11304,-3.00573 29.17858,-0.90483 58.37361,-1.01532 87.56362,-1.11206 31.64536,-0.0629 63.29081,-0.0381 94.93621,-0.0304 30.34705,0.009 60.6941,0.0103 91.04114,0.008 22.39682,-0.002 44.79364,-0.009 67.19046,-0.0192 9.70067,-0.007 19.40135,-0.0102 29.10201,-0.0258 6.8833,-0.25515 -1.93948,1.66277 -4.1185,1.66133 0,0 2.28606,-1.66092 2.28606,-1.66092 l 0,0 c 5.74479,-0.004 1.57148,2.4579 -0.45483,1.6614 -9.67712,-0.0155 -19.35426,-0.019 -29.03139,-0.0255 -22.37782,-0.01 -44.75563,-0.0173 -67.13345,-0.0222 -30.34006,-0.007 -60.68013,-0.0137 -91.02019,-0.023 -31.64858,-0.009 -63.29723,-0.0294 -94.94576,0.0386 -29.19369,0.0989 -58.39239,0.21589 -87.57437,1.1304 -25.71586,0.90867 -51.40911,2.32588 -77.13224,3.02502 -21.86273,1.11876 -43.67946,2.91024 -65.51376,4.46089 -19.36375,1.77416 -38.73538,3.47119 -58.12651,4.91228 -17.82233,1.54421 -35.61103,3.4497 -53.4273,5.06416 -16.128273,1.24161 -32.179153,3.2112 -48.282226,4.72388 -13.522275,1.43185 -27.070305,2.60742 -40.571402,4.24518 -12.942931,1.64353 -25.6858414,4.2956 -38.47007,6.87107 -8.4551,1.45072 -16.89855,2.9631 -25.261284,4.87913 -0.756657,0.20938 -1.513314,0.41875 -2.269971,0.62812 -0.666905,0.19702 -1.330754,0.40469 -2.000715,0.59104 -4.592554,1.27747 1.729854,-2.93633 -1.776547,1.42248 -0.775159,3.05012 -0.115703,6.30896 0.14635,9.40505 0.63152,3.57999 1.670332,7.03147 2.85085,10.46687 0.763876,5.69586 2.183403,11.26583 2.983218,16.95542 0.914178,11.04835 2.449976,22.0189 3.776225,33.02216 0.924542,14.64372 1.543656,29.27356 0.51898,43.93989 -0.605306,12.4144 -1.800322,24.80593 -2.047302,37.22666 0,0 -2.513278,1.28058 -2.513278,1.28058 z" />
    <path
       style="color:#000000;fill:#ffffff;fill-opacity:1;fill-rule:nonzero;stroke:#000000;stroke-width:2;stroke-linecap:butt;stroke-linejoin:miter;stroke-miterlimit:4;stroke-opacity:1;stroke-dasharray:none;stroke-dashoffset:0;marker:none;visibility:visible;display:inline;overflow:visible;enable-background:accumulate"
       id="path2832"
       d="m 471.75266,674.02722 c 9.44266,-1.11886 18.78721,-2.8317 28.23906,-3.89525 13.0514,-1.81519 26.14568,-3.23612 39.14484,-5.4136 12.78231,-1.91002 25.4986,-4.25465 38.3122,-5.95636 7.24441,-0.61261 14.31991,-2.34851 21.4633,-3.61659 3.53184,-0.86977 6.59144,-0.57853 9.97565,0.55163 3.00247,0.93645 6.14576,1.22191 9.26685,1.44554 1.5552,-0.22428 2.62308,0.98318 3.94337,1.47095 0.29364,0.10847 2.79435,-0.0588 -0.86922,0.10689 0.2973,-0.78062 0.5946,-1.56124 0.8919,-2.34186 0,0 2.55911,-1.19278 2.55911,-1.19278 l 0,0 c -0.28257,0.8038 -0.56513,1.6076 -0.84769,2.4114 -5.76839,4.52214 -2.61986,1.71006 -7.98732,1.19766 -3.13601,-0.23956 -6.29251,-0.54521 -9.30504,-1.50403 -3.34767,-1.09954 -6.40752,-1.28367 -9.88447,-0.44438 -7.13324,1.2639 -14.20243,2.97433 -21.43677,3.58146 -12.80574,1.70296 -25.51659,4.03713 -38.29061,5.95172 -13.00891,2.16444 -26.10977,3.60059 -39.16925,5.41362 -9.46033,1.07762 -18.81848,2.78051 -28.26721,3.93466 0,0 2.2613,-1.70068 2.2613,-1.70068 z" />
    <path
       style="color:#000000;fill:#ffffff;fill-opacity:1;fill-rule:nonzero;stroke:#000000;stroke-width:2;stroke-linecap:butt;stroke-linejoin:miter;stroke-miterlimit:4;stroke-opacity:1;stroke-dasharray:none;stroke-dashoffset:0;marker:none;visibility:visible;display:inline;overflow:visible;enable-background:accumulate"
       id="path2834"
       d="m 696.8665,347.63129 c 4.02072,4.32615 8.57493,8.8851 14.7571,9.23672 4.41786,-0.24909 4.91821,-1.73383 7.52631,-5.99231 1.93742,-3.33886 2.25453,-7.17294 2.4437,-10.94277 0.12721,-2.76334 2.92929,-9.70928 5.57372,-3.2504 2.0398,6.43855 4.13303,12.85619 6.13239,19.30959 3.01944,9.51725 4.04624,19.41469 4.6898,29.32473 0.74157,8.58338 -0.47755,17.05353 -3.22677,25.17551 -3.13654,7.46036 -6.81749,11.0482 -13.71905,14.95296 -4.97235,2.21172 -9.53976,1.57478 -14.25117,-0.79768 -5.73026,-2.74734 -8.12003,-7.27005 -9.59432,-13.1958 -0.0776,-1.17778 -0.15522,-2.35556 -0.23282,-3.53334 0,0 2.49588,-1.29161 2.49588,-1.29161 l 0,0 c 0.0702,1.16262 0.14038,2.32524 0.21057,3.48786 1.44871,5.86131 3.80231,10.28542 9.47754,12.9815 4.68582,2.30261 9.20951,2.84024 14.09284,0.57789 3.25404,-2.45246 7.15083,-7.36135 8.97725,-11.98964 2.7849,-8.08171 4.02295,-16.52768 3.29148,-25.08461 -0.63141,-9.88894 -1.64984,-19.76737 -4.66407,-29.26343 -2.00679,-6.44021 -4.10426,-12.84551 -6.15149,-19.27059 -1.1447,-2.78069 -1.01552,-1.10187 1.25153,-4.40622 0.16969,-0.24734 -2.27816,5.26918 -1.825,5.00035 -0.17602,3.80226 -0.47215,7.68397 -2.38605,11.07005 -2.69443,4.55098 -6.78193,8.68042 -12.41154,8.78345 -6.2231,-0.53716 -10.80484,-5.04196 -14.88529,-9.43136 0,0 2.42746,-1.45085 2.42746,-1.45085 z" />
    <path
       style="color:#000000;fill:#ffffff;fill-opacity:1;fill-rule:nonzero;stroke:#000000;stroke-width:2;stroke-linecap:butt;stroke-linejoin:miter;stroke-miterlimit:4;stroke-opacity:1;stroke-dasharray:none;stroke-dashoffset:0;marker:none;visibility:visible;display:inline;overflow:visible;enable-background:accumulate"
       id="path2836"
       d="m 796.73249,339.57537 c -7.361,8.69769 -13.45992,18.10411 -17.953,28.56763 -4.17129,11.05501 -5.6121,22.62672 -5.17657,34.35571 0.11811,8.85222 2.55635,17.30577 6.57581,25.12936 2.93952,4.55774 6.22983,8.72967 11.05887,11.31529 2.16102,1.20171 4.30869,2.42743 6.4438,3.67456 0.95272,0.56049 0.44229,0.17702 -1.87698,0.38103 0,0 2.56014,-1.23109 2.56014,-1.23109 l 0,0 c -2.84714,2.67287 -1.67402,3.23335 -3.07428,2.40041 -2.12493,-1.25378 -4.26524,-2.48171 -6.42443,-3.67559 -4.84284,-2.65658 -8.16778,-6.86847 -11.12419,-11.47347 -4.0365,-7.85918 -6.49274,-16.35366 -6.61825,-25.24543 -0.44273,-11.76646 0.97914,-23.37123 5.13706,-34.47288 4.4571,-10.48476 10.54103,-19.89711 17.87512,-28.62217 0,0 2.5969,-1.10336 2.5969,-1.10336 z" />
    <path
       style="color:#000000;fill:#ffffff;fill-opacity:1;fill-rule:nonzero;stroke:#000000;stroke-width:2;stroke-linecap:butt;stroke-linejoin:miter;stroke-miterlimit:4;stroke-opacity:1;stroke-dasharray:none;stroke-dashoffset:0;marker:none;visibility:visible;display:inline;overflow:visible;enable-background:accumulate"
       id="path2838"
       d="m 836.77918,432.47265 c -8.76811,-3.32866 -12.33653,-8.66654 -15.28715,-17.25695 -3.28091,-11.76713 -1.80593,-23.90972 -0.30778,-35.81814 1.73963,-10.45744 4.09345,-20.85878 7.39137,-30.94063 0.99321,-3.58183 3.07397,-6.75129 4.11229,-10.30321 0.0582,-0.24767 0.11642,-0.49534 0.17463,-0.74301 0.0291,-0.0824 0.0582,-0.16482 0.0873,-0.24723 0,0 2.59682,-1.18371 2.59682,-1.18371 l 0,0 c -0.0397,0.0654 -0.0793,0.13079 -0.11898,0.19618 -0.0569,0.25258 -0.11382,0.50516 -0.17073,0.75774 -1.00317,3.57897 -3.12889,6.73956 -4.14381,10.33042 -3.33778,10.06146 -5.68222,20.46236 -7.44576,30.90721 -1.49961,11.86599 -2.98883,23.96474 0.2712,35.69416 2.92079,8.52505 6.45206,13.78132 15.18105,17.01918 0,0 -2.34048,1.58799 -2.34048,1.58799 z" />
    <path
       style="color:#000000;fill:#ffffff;fill-opacity:1;fill-rule:nonzero;stroke:#000000;stroke-width:2;stroke-linecap:butt;stroke-linejoin:miter;stroke-miterlimit:4;stroke-opacity:1;stroke-dasharray:none;stroke-dashoffset:0;marker:none;visibility:visible;display:inline;overflow:visible;enable-background:accumulate"
       id="path2840"
       d="m 820.35155,383.31998 c 6.519,1.04434 13.08605,1.72332 19.66949,2.18572 4.00715,0.26306 8.02266,0.31377 12.03695,0.32788 1.1192,-3.8e-4 2.23857,0.002 3.35759,-0.0207 0.16939,-0.001 0.014,-0.001 0.10212,-0.008 0,0 -2.30279,1.69058 -2.30279,1.69058 l 0,0 c -0.0354,-1.4e-4 -0.0707,-0.005 -0.10617,-4.3e-4 -1.1156,0.0106 -2.23127,0.009 -3.3469,0.005 -4.01364,-0.0239 -8.02847,-0.0774 -12.03434,-0.35296 -6.5904,-0.47875 -13.16294,-1.1729 -19.69217,-2.20214 0,0 2.31622,-1.62508 2.31622,-1.62508 z" />
    <path
       style="color:#000000;fill:#ffffff;fill-opacity:1;fill-rule:nonzero;stroke:#000000;stroke-width:2;stroke-linecap:butt;stroke-linejoin:miter;stroke-miterlimit:4;stroke-opacity:1;stroke-dasharray:none;stroke-dashoffset:0;marker:none;visibility:visible;display:inline;overflow:visible;enable-background:accumulate"
       id="path2842"
       d="m 871.81817,333.32299 c 7.2553,6.69455 13.76623,14.14831 19.06927,22.47247 6.08379,9.0618 10.05279,18.8379 11.34838,29.65955 1.24997,12.06686 -2.52068,23.11006 -7.59641,33.82579 -5.99224,10.79678 -13.95932,20.1344 -23.10781,28.34478 -5.82157,3.98749 -2.58148,1.94164 -9.80687,5.99817 0,0 2.18391,-1.76036 2.18391,-1.76036 l 0,0 c 2.49519,-1.17375 0.72042,-0.27457 5.04644,-3.18726 9.16306,-8.17729 17.13908,-17.47872 23.16026,-28.24718 5.07766,-10.66587 8.88359,-21.65231 7.65395,-33.68033 -1.26375,-10.78733 -5.23059,-20.51936 -11.28768,-29.55008 -5.29017,-8.29992 -11.78682,-15.73844 -19.05577,-22.37953 0,0 2.39233,-1.49602 2.39233,-1.49602 z" />
    <path
       style="color:#000000;fill:#ffffff;fill-opacity:1;fill-rule:nonzero;stroke:#000000;stroke-width:2;stroke-linecap:butt;stroke-linejoin:miter;stroke-miterlimit:4;stroke-opacity:1;stroke-dasharray:none;stroke-dashoffset:0;marker:none;visibility:visible;display:inline;overflow:visible;enable-background:accumulate"
       id="path2844"
       d="m -419.0708,556.64854 c -0.68076,7.60412 0.2139,15.12126 1.41008,22.61487 0.474,4.05596 0.97796,8.07594 3.36333,11.4886 0.90565,1.56422 4.09657,0.18049 0.61361,0.85069 1.83713,-2.70238 3.22958,-5.69984 4.69001,-8.62932 1.36166,-3.53829 3.41121,-6.78644 5.626,-9.85007 2.24233,-1.20499 2.24345,-5.64834 4.53824,-6.59151 1.18147,-0.48558 2.43639,-0.7685 3.65458,-1.15276 2.30151,2.81103 2.98361,6.81808 4.27566,10.1999 1.52124,4.32029 3.21478,8.60481 5.29702,12.68836 1.86301,2.1344 2.02959,5.37686 3.64936,7.59996 0,0 -2.4565,1.44744 -2.4565,1.44744 l 0,0 c -1.56341,-2.29861 -1.8242,-5.45113 -3.64893,-7.64625 -2.09023,-4.09051 -3.78344,-8.38658 -5.3107,-12.71496 -1.26124,-3.276 -1.92531,-7.21488 -4.13118,-9.94157 0.43742,-0.51106 1.01352,-0.93045 1.31226,-1.53317 0.14735,-0.29728 -0.61672,0.29731 -0.82694,0.55402 -1.45471,1.77644 -1.89045,4.44334 -3.757,5.96745 -2.22598,3.0383 -4.29808,6.27565 -5.63967,9.80429 -1.45783,2.93546 -2.84379,5.94305 -4.67669,8.64664 -1.85925,1.57314 -3.71533,4.24841 -5.66097,1.74357 -2.38435,-3.4667 -2.93843,-7.5062 -3.39503,-11.61609 -1.19362,-7.51953 -2.08804,-15.05583 -1.46847,-22.68736 0,0 2.54193,-1.24273 2.54193,-1.24273 z" />
    <path
       style="color:#000000;fill:#ffffff;fill-opacity:1;fill-rule:nonzero;stroke:#000000;stroke-width:2;stroke-linecap:butt;stroke-linejoin:miter;stroke-miterlimit:4;stroke-opacity:1;stroke-dasharray:none;stroke-dashoffset:0;marker:none;visibility:visible;display:inline;overflow:visible;enable-background:accumulate"
       id="path2846"
       d="m -331.49533,550.65832 c -6.36838,7.16878 -11.47797,15.15433 -15.75029,23.70824 -3.99074,8.9645 -6.54179,18.1234 -6.09041,27.95944 0.55695,6.64025 2.63703,13.04108 6.33915,18.5805 2.19048,2.77007 4.5959,5.4235 7.80663,6.97163 1.5642,0.95261 4.95463,0.48201 0.7063,1.27385 0,0 2.56216,-1.2323 2.56216,-1.2323 l 0,0 c -2.88617,2.64653 -2.56692,2.84988 -5.63983,1.52122 -3.22489,-1.61059 -5.6657,-4.29492 -7.87045,-7.10749 -3.71566,-5.58971 -5.82526,-12.03333 -6.39301,-18.72434 -0.47998,-9.88047 2.05195,-19.07652 6.0392,-28.09276 4.25395,-8.56288 9.3302,-16.56921 15.68996,-23.74692 0,0 2.60059,-1.11107 2.60059,-1.11107 z" />
    <path
       style="color:#000000;fill:#ffffff;fill-opacity:1;fill-rule:nonzero;stroke:#000000;stroke-width:2;stroke-linecap:butt;stroke-linejoin:miter;stroke-miterlimit:4;stroke-opacity:1;stroke-dasharray:none;stroke-dashoffset:0;marker:none;visibility:visible;display:inline;overflow:visible;enable-background:accumulate"
       id="path2854"
       d="m -294.35248,610.65832 c -3.76673,4.26662 -9.01107,8.33883 -14.94879,6.63004 -4.03034,-1.35062 -4.93557,-5.07212 -6.21897,-8.6507 -1.77449,-4.85389 -2.27835,-10.00009 -2.62747,-15.11669 -0.11119,-5.13033 -0.63878,-10.30966 0.0505,-15.4107 0.99091,-4.51942 1.78276,-9.04892 2.21805,-13.65565 0.30295,-3.84857 0.33229,-7.71127 0.34963,-11.56952 0.002,-1.752 -10e-4,-3.50405 -0.0203,-5.25596 3.52862,-0.75563 2.53092,0.3436 2.52622,2.92305 0,0 -2.52529,1.28649 -2.52529,1.28649 l 0,0 c -0.002,-3.04365 -0.4942,-3.27884 2.53991,-5.5068 0.01,1.75586 0.009,3.51176 0.005,5.26764 -0.0151,3.86653 -0.0508,7.7372 -0.34281,11.59458 -0.43452,4.61137 -1.1955,9.15017 -2.21653,13.66899 -0.73243,5.07811 -0.17349,10.24839 -0.0806,15.36063 0.34191,5.09082 0.83149,10.2137 2.59911,15.04276 1.26549,3.4998 2.09519,7.14379 6.07659,8.42022 0.64455,0.16757 1.27187,0.42813 1.93366,0.50272 0.64809,0.073 1.36246,-0.33576 1.95551,-0.0644 0.26855,0.12288 -0.50979,0.92158 -0.22143,0.85785 2.59178,-0.57282 4.5223,-3.58183 6.34719,-5.21348 0,0 2.60058,-1.11107 2.60058,-1.11107 z" />
    <path
       style="color:#000000;fill:#ffffff;fill-opacity:1;fill-rule:nonzero;stroke:#000000;stroke-width:2;stroke-linecap:butt;stroke-linejoin:miter;stroke-miterlimit:4;stroke-opacity:1;stroke-dasharray:none;stroke-dashoffset:0;marker:none;visibility:visible;display:inline;overflow:visible;enable-background:accumulate"
       id="path2856"
       d="m -322.53306,596.88436 c 5.74046,-0.98165 11.34071,-2.70601 16.94621,-4.2767 1.446,-0.22516 2.81651,-1.0591 4.2884,-1.10683 0.59236,-0.0214 1.18512,-0.0167 1.7776,-0.006 0,0 -2.31057,1.67318 -2.31057,1.67318 l 0,0 c -0.58648,-0.008 -1.17358,-0.0111 -1.75923,0.0275 -1.44766,0.20215 -2.80951,0.8479 -4.23966,1.13706 -5.61237,1.56168 -11.21652,3.27917 -16.96404,4.25218 0,0 2.26129,-1.70069 2.26129,-1.70069 z" />
    <path
       style="color:#000000;fill:#ffffff;fill-opacity:1;fill-rule:nonzero;stroke:#000000;stroke-width:2;stroke-linecap:butt;stroke-linejoin:miter;stroke-miterlimit:4;stroke-opacity:1;stroke-dasharray:none;stroke-dashoffset:0;marker:none;visibility:visible;display:inline;overflow:visible;enable-background:accumulate"
       id="path2858"
       d="m -277.08685,547.6187 c 5.62763,6.61576 11.32273,13.16779 17.20152,19.56201 5.32402,5.42414 10.18189,11.23338 13.19555,18.24965 2.09929,6.58322 2.19916,13.53287 2.31606,20.37524 -0.1888,9.19183 -4.4086,17.04533 -9.41562,24.47192 -6.72023,9.66433 -16.14834,16.52009 -26.15558,22.41487 -2.35582,1.24253 -4.71164,2.48505 -7.06747,3.72757 0,0 2.17614,-1.74171 2.17614,-1.74171 l 0,0 c 0.765,-0.32902 1.53,-0.65803 2.295,-0.98704 10.00918,-5.85803 19.45872,-12.66254 26.19515,-22.29711 5.00521,-7.37027 9.25372,-15.16374 9.47146,-24.30891 -0.11283,-6.8067 -0.20088,-13.72249 -2.26961,-20.27639 -2.98711,-6.9932 -7.83669,-12.77138 -13.1321,-18.17671 -5.87487,-6.39468 -11.5586,-12.95327 -17.21916,-19.53736 0,0 2.40866,-1.47603 2.40866,-1.47603 z" />
  </g>
</svg>
