<?xml version="1.0" encoding="UTF-8" standalone="no"?>
<!-- Created with Inkscape (http://www.inkscape.org/) -->

<svg
   xmlns:dc="http://purl.org/dc/elements/1.1/"
   xmlns:cc="http://creativecommons.org/ns#"
   xmlns:rdf="http://www.w3.org/1999/02/22-rdf-syntax-ns#"
   xmlns:svg="http://www.w3.org/2000/svg"
   xmlns="http://www.w3.org/2000/svg"
   xmlns:sodipodi="http://sodipodi.sourceforge.net/DTD/sodipodi-0.dtd"
   xmlns:inkscape="http://www.inkscape.org/namespaces/inkscape"
   width="760.36017"
   height="365.05911"
   id="svg2"
   version="1.1"
   inkscape:version="0.47pre4 r22446"
   sodipodi:docname="New document 1">
  <defs
     id="defs4">
    <inkscape:perspective
       sodipodi:type="inkscape:persp3d"
       inkscape:vp_x="0 : 526.18109 : 1"
       inkscape:vp_y="0 : 1000 : 0"
       inkscape:vp_z="744.09448 : 526.18109 : 1"
       inkscape:persp3d-origin="372.04724 : 350.78739 : 1"
       id="perspective10" />
  </defs>
  <sodipodi:namedview
     id="base"
     pagecolor="#ffffff"
     bordercolor="#666666"
     borderopacity="1.0"
     inkscape:pageopacity="0.0"
     inkscape:pageshadow="2"
     inkscape:zoom="1.2956805"
     inkscape:cx="391.47672"
     inkscape:cy="182.52956"
     inkscape:document-units="px"
     inkscape:current-layer="layer1"
     showgrid="false"
     inkscape:window-width="1280"
     inkscape:window-height="726"
     inkscape:window-x="0"
     inkscape:window-y="25"
     inkscape:window-maximized="1" />
  <metadata
     id="metadata7">
    <rdf:RDF>
      <cc:Work
         rdf:about="">
        <dc:format>image/svg+xml</dc:format>
        <dc:type
           rdf:resource="http://purl.org/dc/dcmitype/StillImage" />
        <dc:title></dc:title>
      </cc:Work>
    </rdf:RDF>
  </metadata>
  <g
     inkscape:label="Layer 1"
     inkscape:groupmode="layer"
     id="layer1"
     transform="translate(86.237473,-311.68548)">
    <path
       style="color:#000000;fill:#000000;fill-opacity:1;fill-rule:nonzero;stroke:#000000;stroke-width:2;stroke-linecap:butt;stroke-linejoin:miter;stroke-miterlimit:4;stroke-opacity:1;stroke-dasharray:none;stroke-dashoffset:0;marker:none;visibility:visible;display:inline;overflow:visible;enable-background:accumulate"
       id="path2816"
       d="m -14.23666,458.69142 c 6.5071053,4.78531 13.85205251,8.18573 21.5710887,10.45885 9.4366493,2.2885 19.2267723,2.28897 28.8797013,2.43393 12.141723,0.0936 24.283996,0.0317 36.425867,5.9e-4 8.839958,-0.0267 17.67995,-0.0381 26.519942,-0.0459 7.004241,-0.002 14.008481,-0.004 21.012721,-0.004 4.98883,-0.0308 9.89711,-0.30558 14.77381,0.83598 3.81608,1.24475 7.80017,1.58381 11.77901,1.84014 2.8363,-0.0354 5.85413,0.6805 8.59812,-0.17856 0.31463,-0.16501 0.62925,-0.33002 0.94388,-0.49504 0,0 -2.22092,1.7747 -2.22092,1.7747 l 0,0 c -0.32478,0.15069 -0.64955,0.30138 -0.97433,0.45207 -2.8067,0.69949 -5.78252,0.11401 -8.64674,0.0949 -3.98951,-0.26893 -7.9773,-0.63697 -11.80507,-1.87758 -4.85886,-1.10763 -9.76339,-0.79422 -14.72513,-0.79196 -7.00229,-0.001 -14.00458,-0.004 -21.006868,4.3e-4 -8.832692,0.003 -17.665379,0.0115 -26.498052,0.0306 -12.1431,0.0268 -24.286671,0.0854 -36.429582,-0.004 -9.674296,-0.14664 -19.488526,-0.15155 -28.9383504,-2.48588 -7.7437332,-2.31115 -15.1112546,-5.74128 -21.6538566,-10.53465 0,0 2.394759,-1.50421 2.394759,-1.50421 z" />
    <path
       style="color:#000000;fill:#000000;fill-opacity:1;fill-rule:nonzero;stroke:#000000;stroke-width:2;stroke-linecap:butt;stroke-linejoin:miter;stroke-miterlimit:4;stroke-opacity:1;stroke-dasharray:none;stroke-dashoffset:0;marker:none;visibility:visible;display:inline;overflow:visible;enable-background:accumulate"
       id="path2818"
       d="m 12.106619,531.53186 c 9.049979,0.0135 18.099972,0.009 27.149958,0.01 9.718465,-4.9e-4 19.436929,-6e-5 29.155394,3e-5 9.962907,-0.66029 19.891299,-1.64222 29.757257,-3.17017 6.832942,-1.13256 13.714172,-1.92782 20.623572,-2.38887 2.50463,-0.12407 5.01239,-0.21113 7.52041,-0.20111 0,0 -2.30687,1.6747 -2.30687,1.6747 l 0,0 c -2.49759,-0.009 -4.99509,0.0716 -7.48901,0.20291 -6.89572,0.4596 -13.76199,1.26258 -20.581847,2.38812 -9.873734,1.5183 -19.81172,2.49999 -29.78236,3.13557 -9.718487,8e-5 -19.436974,5.2e-4 -29.155461,2e-5 -9.058912,0.001 -18.117831,-0.004 -27.1767353,0.01 0,0 2.2856923,-1.66065 2.2856923,-1.66065 z" />
    <path
       style="color:#000000;fill:#000000;fill-opacity:1;fill-rule:nonzero;stroke:#000000;stroke-width:2;stroke-linecap:butt;stroke-linejoin:miter;stroke-miterlimit:4;stroke-opacity:1;stroke-dasharray:none;stroke-dashoffset:0;marker:none;visibility:visible;display:inline;overflow:visible;enable-background:accumulate"
       id="path2820"
       d="m 73.903014,480.32803 c -6.859408,-4.90128 -11.761807,-11.32113 -14.917456,-19.06947 -4.072102,-9.06373 -4.515961,-19.02511 -5.832725,-28.71773 -1.688095,-10.88452 -2.323555,-21.87859 -2.704627,-32.8734 -0.686944,-10.64189 -0.0097,-21.20763 0.9954,-31.7956 0.712734,-9.1092 2.48867,-18.08516 3.554572,-27.15557 0.158779,-5.38162 1.940183,-10.48483 2.955794,-15.71993 1.123898,-2.2137 -0.317356,-5.74972 1.080541,-7.74205 4.049093,-1.66026 8.310932,-0.97592 12.469869,0.0969 6.348461,1.87123 12.763379,2.06833 19.308116,1.62047 9.384182,-0.85242 18.797142,-1.26524 28.214102,-1.51023 10.59767,-0.0927 21.15297,-0.0623 31.71045,-1.04206 10.75634,-1.15467 21.56538,-1.5818 32.37402,-1.83992 9.77947,-0.29274 19.51253,-0.39145 29.24648,0.623 8.59341,1.01528 17.2242,1.56381 25.86866,1.86473 6.23596,0.18551 12.47511,0.19872 18.71328,0.19966 4.76447,0.0302 9.39001,-1.39247 14.08571,-2.10459 3.64902,-0.57835 7.34163,-0.70372 11.02822,-0.77308 3.34459,0.31119 6.32009,-0.27981 9.45763,-1.34641 3.05514,-1.43266 4.58496,1.74798 5.58437,4.1473 1.52623,4.72296 2.73825,9.46298 3.37775,14.38994 1.65517,7.17717 2.57833,14.453 3.1265,21.78842 0.46306,7.87266 0.50551,15.76099 0.53254,23.64457 0.0122,6.86473 -0.005,13.72946 -0.0134,20.59418 -0.007,6.1169 -0.005,12.23381 -0.004,18.35071 6.8e-4,3.64478 0.001,7.28956 0.008,10.93434 0.65533,2.63313 -2.09488,3.08264 -4.09193,1.72182 -2.2526,-1.09853 -4.93385,-1.38258 -7.35527,-0.80963 -4.3181,1.33478 -4.27804,1.60828 -6.48366,4.50207 -2.1028,3.24784 -1.99084,7.24138 -2.10669,10.97041 -0.077,4.70062 -0.0311,9.40233 -0.003,14.10323 -0.37957,3.81151 0.42304,6.79977 2.52971,9.90018 2.35521,2.40716 4.98487,4.51012 8.12876,5.74495 3.08559,0.65897 5.79296,2.26631 8.80783,3.12814 3.71198,1.34146 7.70642,-0.33462 1.70683,2.75831 -1.60032,-0.96879 -5.52747,1.12348 -6.74392,0.87312 -0.39079,-0.0804 0.7049,-0.37395 1.05735,-0.56093 -3.11066,1.82939 -5.92849,4.23068 -7.8757,7.28633 -1.45001,2.50197 -1.71657,5.36903 -1.87786,8.19461 -0.31313,3.25079 0.15349,6.21778 1.59188,9.14771 1.53387,2.90102 4.57061,4.05595 7.35123,5.45497 2.55229,1.36566 5.39871,1.80817 8.23777,2.11002 2.94419,-0.0468 -1.16436,2.33503 -1.95807,2.97744 -3.01172,2.29806 -5.87947,4.52013 -7.91058,7.76339 -1.4622,2.92353 -1.53693,6.17361 -1.62791,9.37014 -0.20606,3.39846 1.30693,6.43542 3.67277,8.77997 2.26893,2.00844 5.21599,2.40814 8.12248,2.62557 2.89822,0.13753 5.80195,0.0938 8.70228,0.061 1.98485,0.13756 -7.99494,4.4033 -9.0165,4.91011 0.23823,-0.12776 0.93592,-0.53863 0.71468,-0.3833 -3.44092,2.41571 -5.04702,4.06094 -7.58121,7.43361 -2.2532,2.98215 -3.5923,6.31085 -4.26517,9.95444 -0.79097,3.10126 0.44762,5.39127 2.14052,7.86646 2.31234,2.64779 5.63497,3.63049 8.98522,4.17471 3.08994,0.36 5.91954,1.7573 8.95208,2.4403 2.76984,0.26835 4.26396,0.98876 4.96469,3.7464 -0.62426,3.81924 -1.47233,7.58479 -1.90706,11.44833 -0.0885,6.48913 -0.944,12.85043 -1.87759,19.25751 -0.55219,6.99155 -2.1874,13.80693 -3.197,20.73371 -0.799,5.98034 -1.07305,12.01225 -1.20378,18.03889 -0.14976,2.78084 0.46031,5.5952 -0.81324,8.14553 -3.5898,2.79236 -6.9713,1.71706 -11.14822,1.42303 -6.21442,-1.68022 -12.63621,-2.10705 -18.96863,-3.10569 -10.75573,-1.84432 -21.67317,-2.35363 -32.55977,-2.74304 -10.64736,-0.72761 -21.21572,-0.0282 -31.80841,0.97927 -9.38128,0.70302 -18.74893,1.76752 -27.98663,3.56629 -8.87246,2.16134 -18.01962,2.45224 -27.0146,3.74919 -8.31232,1.34665 -16.68886,2.04166 -24.99992,3.38752 -8.15185,0.93786 -16.24179,2.14563 -24.33931,3.46526 -6.26229,0.65683 -12.40807,1.55299 -18.542804,2.95967 -3.467036,0.39143 -7.774399,2.52329 -10.905579,0.31355 -2.378968,-2.75847 -2.135451,-6.93846 -1.751939,-10.33878 1.269889,-6.13523 1.869038,-12.35902 2.235449,-18.60424 0.51142,-6.82805 -0.03695,-13.70706 0.709351,-20.51106 1.026899,-5.81382 1.782066,-11.65477 2.184016,-17.54393 0.832158,-5.59037 2.468949,-11.07716 2.335326,-16.76143 -0.398967,-3.76448 -1.212229,-7.46296 -1.677004,-11.21967 -0.249889,-3.63375 -0.159127,-7.17723 -1.151156,-10.70405 -1.025448,-3.15317 -1.610582,-6.3852 -1.868042,-9.68287 -0.0501,-3.41704 -1.215567,-6.70905 -2.257738,-9.93419 -0.393492,-1.84889 -1.449106,-2.54912 -3.120614,-3.29122 0,0 2.364899,-1.56783 2.364899,-1.56783 l 0,0 c 1.701728,0.80009 2.84813,1.58296 3.246516,3.49076 1.038162,3.24802 2.219832,6.56111 2.28195,9.9965 0.250424,3.28016 0.818573,6.49761 1.841349,9.63351 1.003009,3.5412 0.950318,7.08742 1.174915,10.74071 0.454777,3.76825 1.264449,7.47685 1.67745,11.2498 0.165839,5.69327 -1.455185,11.19469 -2.327573,16.78721 -0.395416,5.89371 -1.135582,11.74153 -2.181642,17.55673 -0.783353,6.79657 -0.206295,13.67646 -0.722137,20.50034 -0.353934,6.2468 -0.931515,12.47761 -2.213487,18.61207 -0.402045,3.27158 -0.681112,7.39901 1.613233,10.06255 3.101517,2.02649 7.392148,-0.15549 10.758522,-0.49488 6.131709,-1.40259 12.288209,-2.24043 18.539719,-2.93492 8.09574,-1.32075 16.18922,-2.49921 24.33582,-3.46209 8.31222,-1.33779 16.6916,-2.03044 25.00302,-3.38326 8.99703,-1.26146 18.13249,-1.60698 27.00268,-3.75751 9.24648,-1.7677 18.61202,-2.84564 27.99744,-3.54091 10.59639,-1.00433 21.17147,-1.66639 31.82066,-0.94315 10.89976,0.39562 21.82867,0.91694 32.59841,2.75619 6.33704,0.97755 12.74892,1.45496 18.97728,3.07047 2.1756,0.15419 4.45397,0.55558 6.63842,0.4657 0.40473,-0.0167 1.36153,-0.52003 1.20643,-0.14583 -0.24482,0.59062 -1.06027,0.71478 -1.5904,1.07217 1.35423,-2.49462 0.74499,-5.26767 0.88739,-8.037 0.12895,-6.03893 0.41216,-12.0826 1.2011,-18.07612 1.00026,-6.92897 2.64838,-13.74077 3.19603,-20.7332 0.923,-6.4034 1.82147,-12.75517 1.86944,-19.24297 0.41916,-3.83456 1.17122,-7.58331 1.93938,-11.35221 -0.64888,-2.67797 -2.16112,-3.1817 -4.7985,-3.4818 -3.01814,-0.70761 -5.85133,-2.08164 -8.9412,-2.42737 -3.41349,-0.59337 -6.77127,-1.64769 -9.10918,-4.36594 -1.72636,-2.51937 -3.03206,-4.89895 -2.24636,-8.06074 0.65901,-3.68106 1.95558,-7.05537 4.21927,-10.07876 3.29186,-4.34355 6.46672,-7.7232 11.67735,-9.9389 0.72788,-0.3638 8.42929,-4.36847 4.50442,-1.46655 -2.9039,0.0252 -5.81184,0.0726 -8.71279,-0.0846 -2.96453,-0.24889 -5.9404,-0.71957 -8.23115,-2.7938 -2.38823,-2.41035 -3.98445,-5.51021 -3.78431,-8.98129 0.0822,-3.23494 0.14953,-6.52002 1.56253,-9.50416 2.00344,-3.29404 4.81794,-5.55826 7.87141,-7.8502 1.17345,-0.95686 2.10783,-1.83251 3.50102,-2.26865 0.39222,-0.12279 -3.05361,0.0905 -1.22683,-0.12284 -2.86207,-0.32555 -5.72215,-0.80985 -8.28997,-2.19761 -2.8334,-1.43964 -5.89587,-2.63546 -7.44387,-5.61267 -1.46355,-2.96874 -1.98149,-5.97058 -1.66914,-9.27156 0.15894,-2.85963 0.39864,-5.77308 1.82413,-8.32599 1.88582,-3.11506 4.7148,-5.55394 7.82212,-7.41244 3.68849,-2.11079 6.38968,-3.35923 10.62428,-3.01589 -2.36088,2.74137 -2.72635,1.14409 -6.33729,0.52737 -3.00786,-0.89149 -5.74338,-2.45829 -8.82198,-3.15189 -3.17115,-1.29243 -5.85252,-3.42192 -8.22073,-5.88566 -2.13768,-3.14428 -2.99326,-6.18433 -2.60369,-10.0507 -0.0214,-4.70435 -0.0732,-9.40942 10e-4,-14.11347 0.10696,-3.76607 -0.0232,-7.80645 2.02555,-11.12213 2.65834,-3.70065 7.04625,-6.05347 11.34602,-7.34096 2.5025,-0.47276 5.21304,-0.20445 7.49216,0.99872 2.58221,1.86981 -1.53661,5.21128 -0.83808,1.09519 0.007,-3.64769 0.007,-7.2954 0.009,-10.9431 0.004,-6.11892 0.01,-12.23783 0.0149,-18.35675 0.007,-6.86502 0.0224,-13.73003 0.0178,-20.59504 -0.0246,-7.87787 -0.0616,-15.76086 -0.52138,-23.62794 -0.54229,-7.32973 -1.45929,-14.6013 -3.12991,-21.76931 -0.63441,-4.90286 -1.83766,-9.61696 -3.35907,-14.31503 -0.99132,-2.39717 -2.37565,-5.21133 -5.35065,-3.79163 -3.14654,1.04724 -6.17019,1.54884 -9.50739,1.27551 -3.67776,0.0722 -7.36012,0.21809 -10.99936,0.79855 -4.69765,0.72886 -9.33375,2.14032 -14.10955,2.06854 -6.23499,-0.006 -12.47099,-0.0271 -18.70357,-0.21879 -8.64597,-0.31133 -17.27724,-0.87243 -25.87263,-1.88522 -9.72314,-0.99964 -19.44805,-0.88248 -29.21476,-0.6021 -10.8067,0.26382 -21.61283,0.70328 -32.36714,1.8583 -10.56158,0.96706 -21.12369,0.91558 -31.72359,1.02903 -9.4185,0.25184 -18.832229,0.67343 -28.217972,1.52712 -6.569759,0.43063 -13.010307,0.18669 -19.381119,-1.67634 -2.367374,-0.57303 -8.424195,-1.00342 -8.510648,-1.28277 -0.178848,-0.57792 0.669953,-1.0075 1.00493,-1.51125 -1.640597,1.07459 -0.09424,5.90205 -1.16858,7.59483 -0.994301,5.23902 -2.836249,10.32796 -2.985981,15.71197 -1.067789,9.07184 -2.857464,18.04699 -3.572312,27.15749 -1.012732,10.57794 -1.704226,21.13374 -1.018675,31.76692 0.378064,10.98557 1.007564,21.97102 2.696134,32.84617 1.320056,9.66823 1.746697,19.60732 5.810957,28.64978 3.128382,7.70191 8.005498,14.08143 14.851784,18.91329 0,0 -2.378524,1.52294 -2.378524,1.52294 z" />
    <path
       style="color:#000000;fill:#000000;fill-opacity:1;fill-rule:nonzero;stroke:#000000;stroke-width:2;stroke-linecap:butt;stroke-linejoin:miter;stroke-miterlimit:4;stroke-opacity:1;stroke-dasharray:none;stroke-dashoffset:0;marker:none;visibility:visible;display:inline;overflow:visible;enable-background:accumulate"
       id="path2822"
       d="m 568.93511,403.68029 c 6.79646,2.19871 13.83783,3.46795 20.90956,4.36886 5.1112,0.56604 10.25831,0.63428 15.39511,0.66383 3.58792,0.59377 7.03788,1.74692 10.62905,2.32941 2.89117,0.42929 5.82323,0.45956 8.74049,0.49818 2.3912,-0.11887 2.26849,2.62431 2.38451,4.35538 0.45709,5.62306 -0.53308,11.14049 -1.27787,16.68802 -0.81057,9.22833 -1.53162,18.42562 -3.14535,27.55747 -1.57766,11.03937 -3.99818,21.87754 -7.1294,32.57443 -2.86537,8.5603 -5.11114,17.29273 -7.60037,25.95958 -1.70563,5.42592 -2.92215,10.96028 -3.45453,16.61971 -0.30287,3.69069 -0.31022,7.39577 -0.3073,11.09607 0.011,3.29106 0.0249,6.58212 0.0353,9.87319 -0.57482,2.20234 0.99014,5.62044 -0.28266,7.57 -1.32204,0.1063 -2.65661,0.52918 -3.96614,0.31888 -0.77197,-0.12397 -5.49418,-6.01476 -6.46827,-6.91129 -3.65783,-3.53804 -8.53771,-4.91181 -13.13677,-6.79523 -4.47714,-2.01937 -9.42367,-2.11652 -14.12611,-3.19846 -3.45531,-1.07542 -6.9571,-1.93818 -10.55296,-2.35484 -3.00879,-0.77266 -4.75178,-2.5674 -4.74119,-5.70048 0.32578,-4.61214 1.9112,-8.90289 3.08325,-13.32436 1.35802,-5.94215 3.01746,-11.77709 3.94082,-17.81347 1.38129,-5.80892 2.49208,-11.6599 4.03696,-17.42706 1.30414,-4.6594 2.03337,-9.42242 2.38957,-14.23853 0.41086,-3.58738 -0.22586,-7.27458 0.51742,-10.80988 0.79631,-2.61652 1.74928,-5.15035 2.1715,-7.86119 0.3622,-2.97298 0.33387,-5.97829 0.34645,-8.96859 -0.0751,-3.12379 1.29198,-6.04858 2.04217,-9.0439 0.46029,-2.79928 1.07865,-5.72823 0.46352,-8.5338 -0.99564,-2.79929 -1.74814,-5.63714 -2.18232,-8.57552 -0.32024,-1.52524 0.35026,-3.22089 -1.42254,-3.55103 -1.87231,-0.15267 -0.86496,-0.002 -3.00938,-0.5291 0,0 2.33049,-1.61188 2.33049,-1.61188 l 0,0 c 2.13879,0.48587 1.129,0.32847 3.02082,0.52408 1.87204,0.55966 1.31875,2.13823 1.59098,3.84267 0.42255,2.93354 1.16561,5.76679 2.17176,8.55624 0.66066,2.84096 0.0465,5.80638 -0.40392,8.65204 -0.73896,2.98024 -2.10759,5.88865 -2.07356,8.98355 -0.0145,3.00169 0.0203,6.01792 -0.32531,9.00387 -0.39407,2.72509 -1.33028,5.26681 -2.16564,7.88077 -0.83244,3.50242 -0.10532,7.20607 -0.54163,10.77528 -0.34751,4.83406 -1.07214,9.61492 -2.37725,14.29197 -1.54599,5.75955 -2.65628,11.60021 -4.0511,17.39909 -0.91206,6.04678 -2.5695,11.88793 -3.92406,17.83834 -1.14019,4.40964 -2.76227,8.66448 -3.09866,13.25752 -0.11393,3.01309 1.65367,4.66469 4.52465,5.34392 3.59743,0.44149 7.09773,1.3251 10.56222,2.38388 4.72342,1.04058 9.66456,1.21529 14.14769,3.24097 4.62671,1.89783 9.52995,3.29788 13.19836,6.87551 0.48437,0.44936 6.44825,6.82924 6.44993,6.87322 0.0321,0.84309 -0.7026,1.53417 -1.0539,2.30126 1.50222,-0.97168 -0.1456,-5.76262 0.38693,-7.37565 -0.006,-3.29148 -0.0208,-6.58294 -0.0338,-9.8744 -0.006,-3.70979 0.006,-7.42445 0.30535,-11.12474 0.51862,-5.67954 1.729,-11.23259 3.44666,-16.67496 2.51521,-8.66391 4.7309,-17.41231 7.62039,-25.97041 3.1431,-10.68512 5.57568,-21.51189 7.14016,-32.54561 1.62271,-9.12384 2.34297,-18.314 3.13249,-27.5378 0.73207,-5.52771 1.74123,-11.02158 1.27419,-16.62378 -0.10395,-1.66576 0.12648,-4.14328 -2.1649,-3.99355 -2.92421,-0.0498 -5.86374,-0.0858 -8.75935,-0.53671 -3.57276,-0.60443 -7.01063,-1.76614 -10.59567,-2.29827 -5.1412,-0.0339 -10.29286,-0.11583 -15.40676,-0.69785 -7.08477,-0.92443 -14.13532,-2.21806 -20.95062,-4.40686 0,0 2.34048,-1.58799 2.34048,-1.58799 z" />
    <path
       style="color:#000000;fill:#000000;fill-opacity:1;fill-rule:nonzero;stroke:#000000;stroke-width:2;stroke-linecap:butt;stroke-linejoin:miter;stroke-miterlimit:4;stroke-opacity:1;stroke-dasharray:none;stroke-dashoffset:0;marker:none;visibility:visible;display:inline;overflow:visible;enable-background:accumulate"
       id="path2824"
       d="m 300.29709,321.88265 c 5.82112,-3.18874 12.14103,-5.19358 18.60997,-6.55122 5.37945,-0.94884 10.83549,0.45222 16.19274,1.08624 6.24969,0.79915 12.40544,2.15257 18.67635,2.89229 7.27033,0.83269 14.60816,0.40318 21.87442,1.15824 7.47248,0.94088 14.94269,1.69037 22.35641,3.02302 7.26371,1.39327 14.65142,1.88868 22.02883,2.17074 7.08924,0.13696 14.06285,1.58246 21.11334,2.26817 6.96338,1.43174 13.97073,2.48467 21.05237,3.09709 6.69835,0.49878 13.41955,0.50716 20.13248,0.53252 7.30078,0.01 14.60158,-0.005 21.90237,-0.0134 7.14967,0.43286 14.18118,-0.83593 21.23828,-1.74607 6.66667,-0.81787 13.39072,-0.97074 20.09911,-1.08644 6.05554,0.38125 11.95604,-0.9194 17.90661,-1.78996 5.25833,-0.71433 10.56475,-0.95239 15.86503,-1.07266 3.74213,-0.2652 7.5669,0.36169 11.24886,-0.41506 2.97448,-1.15736 6.08643,-1.77027 9.23916,-2.17401 3.52887,0.25095 5.43841,3.13867 7.23449,5.83888 1.59764,2.90971 2.73293,6.0849 3.91728,9.1923 1.08478,3.77266 1.46909,7.65294 2.4407,11.45713 1.15541,3.82016 1.6429,7.78085 1.95521,11.745 0.19795,3.19035 0.19225,6.38793 0.18981,9.58289 -0.004,3.35396 -0.0157,6.7079 -0.0184,10.06186 -0.78077,3.73875 -1.77567,7.40097 -2.33513,11.1857 2e-5,3.44201 -1.23778,6.57695 -2.23912,9.80872 -0.81942,3.07498 -0.98118,6.26911 -1.11003,9.4336 0.0398,2.61626 -1.02095,5.09186 -2.08834,7.43474 -0.0779,0.0861 -0.15582,0.1722 -0.23372,0.25831 0,0 -2.65239,1.05031 -2.65239,1.05031 l 0,0 c 0.0989,-0.0425 0.19775,-0.0849 0.29663,-0.12743 1.07927,-2.30338 2.17537,-4.75301 2.14222,-7.33708 0.13243,-3.18514 0.28608,-6.39884 1.08019,-9.50089 0.99728,-3.22303 2.27897,-6.33562 2.26224,-9.77135 0.55277,-3.7748 1.49394,-7.43587 2.35169,-11.14808 0.006,-3.35394 0.01,-6.70788 0.0189,-10.06181 -10e-4,-3.18831 0.01,-6.37923 -0.17996,-9.56334 -0.29886,-3.95055 -0.77655,-7.89791 -1.926,-11.70481 -0.97551,-3.79412 -1.37635,-7.6557 -2.43103,-11.42607 -1.173,-3.08963 -2.31182,-6.23928 -3.88612,-9.13685 -1.75271,-2.6245 -3.59635,-5.45202 -7.06255,-5.57457 -3.14966,0.41784 -6.23372,1.09649 -9.22562,2.18649 -3.70787,0.67186 -7.51845,0.13579 -11.27104,0.37156 -5.29199,0.12715 -10.59016,0.36729 -15.83864,1.09618 -5.95451,0.87958 -11.86506,2.13284 -17.92471,1.75834 -6.7025,0.11852 -13.42006,0.27943 -20.07946,1.11075 -7.06187,0.914 -14.10215,2.14294 -21.25609,1.71471 -7.30221,0.007 -14.60443,0.0238 -21.90664,0.0148 -6.71728,-0.0289 -13.44332,-0.038 -20.1451,-0.55226 -7.08054,-0.62622 -14.08349,-1.70221 -21.05259,-3.10052 -7.04469,-0.69496 -14.0156,-2.13372 -21.10232,-2.25569 -7.38566,-0.28901 -14.77979,-0.80439 -22.05071,-2.20299 -7.40911,-1.32559 -14.87842,-2.06528 -22.34492,-3.00492 -7.27126,-0.72076 -14.60991,-0.31782 -21.88135,-1.15925 -6.26956,-0.75217 -12.42744,-2.10854 -18.68207,-2.88827 -5.33876,-0.63901 -10.77767,-2.01894 -16.13747,-1.01226 -6.4593,1.38491 -12.75964,3.41528 -18.57152,6.61238 0,0 2.2073,-1.76563 2.2073,-1.76563 z" />
    <path
       style="color:#000000;fill:#000000;fill-opacity:1;fill-rule:nonzero;stroke:#000000;stroke-width:2;stroke-linecap:butt;stroke-linejoin:miter;stroke-miterlimit:4;stroke-opacity:1;stroke-dasharray:none;stroke-dashoffset:0;marker:none;visibility:visible;display:inline;overflow:visible;enable-background:accumulate"
       id="path2826"
       d="m 581.25867,556.97035 c -0.18848,8.67307 0.3644,17.37258 -0.34647,26.02365 -0.88594,6.54313 -1.74745,13.07997 -2.18836,19.67001 0.22352,5.01949 -0.96115,9.80225 -2.04614,14.64655 -0.70834,2.92038 -0.9522,5.91509 -1.09129,8.90751 0.14041,3.93201 -1.87574,4.46459 -5.31049,6.20586 -2.88675,0.76403 -5.90454,0.77108 -8.87123,0.80802 -3.48935,0.0122 -6.97874,-0.0122 -10.46808,-0.0231 -5.27907,-0.0142 -10.55815,-0.0174 -15.83723,-0.0191 -6.49202,-0.42287 -12.84695,0.93912 -19.25363,1.73347 -6.58934,0.28262 -12.98183,1.89064 -19.48542,2.82199 -6.74944,0.87669 -13.55789,1.03604 -20.35392,1.13632 -7.00523,0.90083 -13.9936,1.84587 -21.03939,2.38617 -6.40659,0.44221 -12.83031,0.47773 -19.24899,0.50619 -5.72492,-0.16544 -11.30677,1.34951 -16.95559,2.08298 -5.22687,0.59037 -10.49164,0.69026 -15.74617,0.76116 -5.17253,0.0358 -10.34521,0.0208 -15.5178,0.0138 -5.61214,0.0116 -11.11813,1.39622 -16.68156,2.07263 -5.56978,0.81382 -11.25018,0.26339 -16.79756,1.12648 -4.39715,1.00943 -8.84218,1.74204 -13.3275,2.20901 -3.32663,-0.1484 -6.31063,1.10833 -9.41914,2.07421 -3.1511,0.71181 -6.30261,1.01689 -9.41853,1.8924 -2.68533,0.68667 -1.3052,0.48407 -4.14353,0.58605 0,0 2.28054,-1.67341 2.28054,-1.67341 l 0,0 c 2.80349,-0.16444 1.43507,0.0528 4.10744,-0.63791 3.11584,-0.85151 6.28569,-1.13483 9.41843,-1.90366 3.11268,-0.97204 6.12075,-2.154 9.4488,-2.02646 4.48038,-0.47383 8.91393,-1.23637 13.31277,-2.21323 5.55763,-0.78918 11.22798,-0.31104 16.7985,-1.11819 5.56714,-0.69015 11.08181,-2.07123 16.70456,-2.04633 5.17279,0.006 10.34574,0.0232 15.51841,-0.0195 5.2474,-0.0734 10.50529,-0.17595 15.72329,-0.78524 5.64888,-0.74936 11.23821,-2.24053 16.96887,-2.04874 6.41459,-0.0318 12.8343,-0.0748 19.23639,-0.52221 7.04776,-0.54847 14.03479,-1.52419 21.04874,-2.37142 6.78987,-0.10553 13.59264,-0.27486 20.33405,-1.16667 6.4999,-0.95379 12.90071,-2.51718 19.48791,-2.81688 6.41236,-0.80475 12.77786,-2.13422 19.27714,-1.70736 5.28379,6.3e-4 10.56759,-0.003 15.85137,0.01 3.48969,0.0103 6.97945,0.0342 10.46914,0.0163 2.95073,-0.0463 5.9595,-0.0549 8.81497,-0.8878 -2.64744,2.06738 1.0251,-0.1125 0.53639,-3.17739 0.14149,-3.00747 0.36676,-6.0208 1.07966,-8.95645 1.07603,-4.83663 2.32549,-9.598 2.07675,-14.61339 0.43627,-6.59465 1.29095,-13.13652 2.19951,-19.68108 0.74336,-8.63812 0.18367,-17.33021 0.33705,-25.99246 0,0 2.51734,-1.28264 2.51734,-1.28264 z" />
    <path
       style="color:#000000;fill:#000000;fill-opacity:1;fill-rule:nonzero;stroke:#000000;stroke-width:2;stroke-linecap:butt;stroke-linejoin:miter;stroke-miterlimit:4;stroke-opacity:1;stroke-dasharray:none;stroke-dashoffset:0;marker:none;visibility:visible;display:inline;overflow:visible;enable-background:accumulate"
       id="path2828"
       d="m 574.33477,421.54856 c 4.42963,3.5123 8.80827,7.09073 13.03543,10.84521 3.00854,3.09815 6.44418,5.66119 10.19557,7.78076 3.15665,1.87597 6.48981,3.40156 9.7163,5.13928 2.6647,1.40735 4.86024,3.43768 7.51965,4.846 3.03443,1.65748 4.56669,0.39491 0.0861,3.43818 -2.76989,1.35804 -5.80948,1.81352 -8.66151,3.01722 -3.22056,0.92183 -6.0776,2.65162 -9.16862,3.89542 -3.27422,0.85796 -6.55826,1.04638 -9.78473,2.09294 -3.10251,0.72347 -5.94103,2.01168 -8.87784,3.19296 -4.72856,2.09561 -2.16854,-0.54559 -4.51672,2.2808 -1.47979,2.36263 0.75053,4.5449 2.40912,6.08704 3.40678,2.20111 6.87885,4.31317 10.15962,6.70795 3.42305,2.35116 7.32921,3.78445 10.65858,6.27259 2.65105,2.14946 5.86482,3.2608 8.81683,4.89461 2.41191,1.26147 5.04936,1.82743 7.71694,2.22323 2.6218,0.56439 -1.4627,2.87289 -2.18623,3.35301 -3.57747,2.50071 -7.73538,3.37886 -11.7567,4.81671 -3.74968,1.0407 -7.24619,2.75398 -10.99589,3.78918 -3.41906,1.47311 -6.85236,2.79294 -10.17816,4.45134 -1.75637,0.68509 -1.70592,0.69296 -3.44486,1.26786 -0.46528,0.15382 -1.30083,0.92013 -1.40252,0.44075 -0.10534,-0.49655 0.83825,-0.67528 1.34425,-0.71544 0.54938,-0.0436 -0.86007,0.73932 -1.09714,1.23683 0.58227,1.31354 3.47064,2.18672 4.85439,2.75853 3.11389,1.23892 6.54671,0.94774 9.70431,1.88367 2.81938,1.30192 5.9984,1.50106 8.84417,2.63877 2.68027,0.888 5.07093,2.19776 7.35101,3.83872 0.23946,0.0604 0.47891,0.12088 0.71837,0.18132 0.0578,-0.0297 0.11567,-0.0594 0.1735,-0.0892 0,0 -2.28146,1.71527 -2.28146,1.71527 l 0,0 c -0.0809,-0.007 -0.16191,-0.0137 -0.24286,-0.0205 -0.25533,-0.0877 -0.51066,-0.17541 -0.766,-0.26312 -2.26283,-1.62441 -4.65623,-2.89269 -7.30826,-3.78081 -2.86268,-1.07648 -6.00371,-1.35749 -8.82847,-2.61763 -3.18305,-0.86835 -6.61193,-0.64634 -9.72425,-1.91097 -1.55289,-0.65858 -4.49829,-1.49368 -5.07798,-3.13516 1.06474,-3.42391 6.59676,-3.7321 9.39646,-5.19882 3.32321,-1.66534 6.78075,-2.96131 10.20814,-4.40681 3.73284,-1.07174 7.24489,-2.75095 10.98562,-3.80638 0.28925,-0.10428 10.48659,-3.75373 6.88163,-2.04125 0.54878,-0.36174 4.60895,-2.39726 2.50209,-2.74875 -2.68742,-0.42355 -5.34129,-1.02331 -7.76582,-2.31109 -2.96313,-1.63148 -6.1844,-2.75982 -8.83355,-4.92897 -3.34214,-2.46108 -7.24551,-3.90475 -10.65293,-6.27307 -3.29794,-2.39194 -6.7859,-4.49624 -10.18633,-6.73259 -1.7295,-1.63248 -4.02555,-3.94934 -2.60782,-6.45562 2.13665,-2.96807 6.06698,-3.9746 9.35668,-5.15635 2.92703,-1.21125 5.80431,-2.40425 8.89012,-3.17499 3.2222,-1.0247 6.53723,-1.14971 9.77386,-2.11138 3.07879,-1.26085 5.95411,-2.95813 9.1649,-3.89577 2.85478,-1.17361 5.91468,-1.62093 8.65632,-3.04139 -2.21667,1.9007 -2.17211,1.03568 -4.6821,-0.10497 -2.6446,-1.42626 -4.85014,-3.44941 -7.51517,-4.8489 -3.24049,-1.7178 -6.55104,-3.28447 -9.7171,-5.14758 -3.75686,-2.14769 -7.20044,-4.72285 -10.22424,-7.83264 -4.22535,-3.75001 -8.58555,-7.34385 -13.02947,-10.83183 0,0 2.39476,-1.50421 2.39476,-1.50421 z" />
    <path
       style="color:#000000;fill:#000000;fill-opacity:1;fill-rule:nonzero;stroke:#000000;stroke-width:2;stroke-linecap:butt;stroke-linejoin:miter;stroke-miterlimit:4;stroke-opacity:1;stroke-dasharray:none;stroke-dashoffset:0;marker:none;visibility:visible;display:inline;overflow:visible;enable-background:accumulate"
       id="path2830"
       d="m 559.7853,523.64582 c -0.28244,1.54961 -0.57709,3.09758 -0.8707,4.64534 -0.44168,2.16579 -0.84468,4.33962 -1.35927,6.48968 0.009,-0.0663 -0.19012,0.99076 -0.4277,0.7957 -0.0618,-0.0508 -0.0137,-0.15989 -0.0102,-0.23984 0.0116,-0.26523 0.0901,-0.86198 0.11683,-1.08403 0.23864,-2.08702 0.68634,-4.14071 1.16799,-6.18271 0.41143,-1.78907 0.90599,-3.55671 1.45071,-5.30922 0.0484,-0.1477 0.0949,-0.29608 0.14533,-0.4431 0.0338,-0.0986 0.0697,-0.19653 0.10753,-0.29365 0.0169,-0.0434 0.0133,-0.14459 0.0566,-0.12756 0.0631,0.0248 0.0904,0.11628 0.0869,0.18404 -0.008,0.14884 -0.0777,0.28778 -0.11828,0.43116 -0.0569,0.20072 -0.1161,0.40074 -0.17415,0.60111 -0.65752,2.24745 -1.21974,4.5201 -1.77166,6.79522 -0.53649,1.95533 -0.89339,3.96178 -1.50123,5.89725 0.15232,0.0805 -0.21437,0.36417 -0.27686,0.25529 -0.0525,-0.0916 7.2e-4,-0.21145 0.011,-0.31652 0.0189,-0.19272 0.0471,-0.38448 0.0766,-0.57587 0.0911,-0.59121 0.21663,-1.23956 0.32462,-1.82274 0.53517,-2.71572 1.20691,-5.40072 1.94861,-8.06654 0.54939,-1.82864 1.1663,-3.63805 1.94394,-5.38271 -0.021,0.0175 0.18201,-0.46791 0.31506,-0.37382 0.0635,0.0449 -0.002,0.15631 -0.0171,0.2326 -0.0311,0.15824 -0.0782,0.31294 -0.12065,0.46851 -0.18713,0.68523 -0.30069,1.0449 -0.51527,1.76071 -1.03282,3.37967 -2.07074,6.75788 -3.04299,10.15555 -0.44535,1.59373 -0.89515,3.18685 -1.29943,4.79168 -0.17415,0.69131 -0.37603,1.39784 -0.43118,2.11158 0.0228,-0.0142 0.0592,-0.0173 0.0683,-0.0425 0.037,-0.10269 0.0293,-0.21751 0.0628,-0.32138 0.0837,-0.25921 0.19582,-0.50841 0.28781,-0.76479 0.12879,-0.35892 0.25156,-0.71997 0.37447,-1.08095 0.39559,-1.16169 0.56243,-1.68359 0.95497,-2.8816 1.09526,-3.31028 2.23342,-6.60482 3.55296,-9.83299 0.45772,-1.0365 0.88,-2.09216 1.40381,-3.09837 0.0151,-0.029 0.44793,-0.83136 0.57598,-0.93665 0.0649,-0.0534 0.16411,-0.0359 0.24616,-0.0538 1.8e-4,0.12105 0.0144,0.24289 5.3e-4,0.36315 -0.10877,0.94373 -0.40637,1.88853 -0.65567,2.79945 -0.2058,0.75198 -0.60992,2.18291 -0.8147,2.91077 -0.82116,2.86348 -1.66434,5.72072 -2.39737,8.6084 -0.28068,1.12991 -0.11615,0.4514 -0.32645,1.34583 -0.0168,0.0714 -0.002,0.15965 -0.0511,0.214 -0.0242,0.0268 -0.0965,-0.0179 -0.0939,-0.0539 0.0111,-0.15331 0.0857,-0.29522 0.12992,-0.44244 0.0759,-0.25291 0.15352,-0.5053 0.23028,-0.75795 0.88717,-2.94717 1.89255,-5.85418 2.99206,-8.72828 0.89804,-2.20219 1.77134,-4.43944 3.00446,-6.48156 0.0128,-0.0166 0.30294,-0.50093 0.47484,-0.3717 0.0767,0.0576 0.0194,0.19217 0.01,0.28761 -0.0871,0.86341 -0.39112,1.73301 -0.61907,2.56223 -1.01211,3.49363 -2.06082,6.97668 -3.13307,10.45229 -0.44273,1.4709 -0.89438,2.93956 -1.3132,4.41755 -0.15442,0.54494 -0.35113,1.12946 -0.39466,1.70155 -0.0141,-0.0281 -0.0506,-0.054 -0.0423,-0.0844 0.0476,-0.17325 0.14038,-0.33094 0.20264,-0.49948 0.10054,-0.27219 0.1926,-0.54745 0.28559,-0.82231 0.45349,-1.34039 0.88032,-2.68977 1.32757,-4.03228 1.05592,-3.17347 2.19658,-6.31947 3.56608,-9.37181 0.35141,-0.73865 0.55396,-1.19562 0.93634,-1.8933 0.0938,-0.17121 0.39073,-0.72366 0.60118,-0.89382 0.33844,-0.27365 0.2794,-0.1237 0.3238,0.13262 -0.0203,0.18315 -0.0324,0.36739 -0.0609,0.54944 -0.18148,1.15924 -0.46963,2.30674 -0.7411,3.44671 -0.41764,1.75372 -0.39258,1.62682 -0.84986,3.43265 -0.79105,3.21397 -1.60843,6.42136 -2.43805,9.62555 -0.4625,0.069 -0.014,0.69227 -0.243,0.90435 -0.034,0.0314 -0.11222,-0.0379 -0.11048,-0.0841 0.007,-0.17982 0.0906,-0.3483 0.13327,-0.52312 0.1638,-0.67199 0.32014,-1.34578 0.48108,-2.01846 0.67766,-2.98581 1.36249,-5.96982 2.09176,-8.94348 0.23195,-0.97193 0.50325,-1.93362 0.75725,-2.89982 0.0406,-0.15434 0.0791,-0.3092 0.11927,-0.46365 0.0156,-0.0598 1.1e-4,-0.13979 0.0478,-0.17911 0.031,-0.0256 0.0735,0.0325 0.11031,0.0487 -0.51822,2.01649 -0.98431,4.04608 -1.45082,6.07506 -0.58124,2.66277 -1.22855,5.31819 -1.61424,8.01854 0.21806,-0.67378 -0.1821,0.69531 0.0124,0.62266 0.048,-0.0179 -0.0192,-0.10489 -0.003,-0.1536 0.0629,-0.19393 0.16216,-0.37423 0.23628,-0.56416 0.25313,-0.64867 0.52069,-1.42537 0.74894,-2.07062 1.10926,-3.31189 2.2539,-6.61081 3.51401,-9.86849 0.49544,-1.25096 1.02966,-2.48734 1.62814,-3.69273 0.15322,-0.3086 0.4502,-0.90471 0.68106,-1.216 0.0531,-0.0716 0.12851,-0.1234 0.19277,-0.18511 0.08,0.0146 0.20309,-0.0287 0.24008,0.0437 0.067,0.13117 0.0191,0.29492 0.008,0.44176 -0.0195,0.25274 -0.0616,0.50332 -0.0999,0.75389 -0.0545,0.35594 -0.11598,0.7108 -0.17871,1.06538 -0.18036,1.0196 -0.37403,2.00551 -0.56959,3.02421 -0.75169,3.89767 -1.52248,7.79163 -2.26428,11.69121 -0.17467,0.88972 -0.33986,1.71673 -0.50451,2.60285 -0.046,0.2474 -0.0925,0.49475 -0.13272,0.74316 -0.0167,0.10322 0.0125,0.21976 -0.0379,0.31139 -0.0193,0.035 -0.0927,-0.0402 -0.0893,-0.08 0.0177,-0.20652 0.0985,-0.40267 0.14779,-0.60401 0.73892,-3.37292 1.66111,-6.70159 2.62126,-10.01709 0.92795,-3.04234 1.93314,-6.06473 3.12479,-9.01482 0.0414,-0.0831 0.48187,-1.28333 0.7943,-1.17341 0.0826,0.0291 0.0518,0.16979 0.0523,0.25731 0.002,0.36434 -0.13532,1.25029 -0.17268,1.52637 -0.54232,3.50221 -1.34466,6.95707 -2.13319,10.41004 -0.38571,1.65822 -0.78207,3.31398 -1.20813,4.96234 -0.12673,0.49033 -0.25525,1.06758 -0.41664,1.56105 -0.0175,-0.092 -0.0651,-0.18318 -0.0524,-0.27595 0.0352,-0.25801 0.12741,-0.50499 0.19333,-0.75691 0.0976,-0.37293 0.19687,-0.74543 0.29722,-1.11763 0.44148,-1.63754 0.90527,-3.26838 1.37228,-4.89878 0.97552,-3.34182 2.14687,-6.62338 3.56507,-9.80263 0.26457,-0.52358 0.53954,-1.11585 0.86812,-1.61175 0.0894,-0.13494 0.17873,-0.27582 0.30311,-0.37942 0.0944,-0.0786 0.21657,-0.18318 0.33556,-0.15255 0.0913,0.0235 0.0906,0.17083 0.1,0.26466 0.0204,0.205 -0.008,0.41196 -0.0119,0.61794 -0.37528,3.49771 -1.0949,6.94988 -1.75932,10.40147 -0.73057,3.73939 -1.52974,7.467 -2.46837,11.16003 -0.0741,0.25304 -0.14224,0.50792 -0.22238,0.75912 -0.0348,0.10918 -0.0416,0.2399 -0.12228,0.32133 -0.0386,0.039 -0.15226,0.0185 -0.16059,-0.0357 -0.0282,-0.18373 0.0395,-0.36988 0.0701,-0.55324 0.13226,-0.79444 0.30432,-1.52469 0.47704,-2.31741 0.88518,-3.99389 2.03567,-7.92302 3.34678,-11.79612 0.52343,-1.47484 1.09494,-2.93319 1.73796,-4.3602 0.26636,-0.5911 0.51921,-1.19342 0.93639,-1.69401 0.0769,0.007 0.19771,-0.0502 0.23084,0.0196 0.0634,0.13352 0.005,0.29632 -0.011,0.44329 -0.0289,0.26952 -0.0764,0.5368 -0.12251,0.80389 -0.0677,0.39156 -0.14135,0.78209 -0.21891,1.1718 -0.0551,0.27694 -0.67744,3.2386 -0.69939,3.3432 -0.86712,4.13741 -1.70865,8.28002 -2.56384,12.41989 -0.23069,1.12337 -0.29985,1.47391 -0.52463,2.52409 -0.0479,0.22395 -0.099,0.44723 -0.14672,0.67122 -0.0181,0.085 0.018,0.20273 -0.0509,0.25568 -0.0454,0.0349 -0.10282,-0.0824 -0.10005,-0.13965 0.0109,-0.22446 0.0925,-0.43981 0.13881,-0.65972 0.74559,-3.53722 1.55324,-7.06038 2.39608,-10.57557 0.76993,-3.06632 1.6566,-6.10178 2.6335,-9.10818 0.28943,-0.0471 0.0816,-0.61416 0.31544,-0.754 0.0541,-0.0324 0.16495,-0.0189 0.18473,0.041 0.0496,0.15014 -0.003,0.31644 -0.0146,0.4741 -0.0205,0.27414 -0.0542,0.54713 -0.0823,0.8206 -0.041,0.39918 -0.0834,0.79822 -0.12505,1.19733 -0.44607,4.13745 -0.93441,8.27012 -1.46287,12.39782 -0.24934,1.93207 -0.51166,3.86243 -0.77095,5.79318 -0.10973,0.81706 -0.24527,1.63807 -0.3093,2.46085 -0.022,-0.0477 -0.073,-0.0911 -0.066,-0.14313 0.0366,-0.27173 0.12879,-0.53303 0.19309,-0.79957 0.10751,-0.44568 0.21443,-0.89151 0.32236,-1.33709 0.52509,-2.16762 1.08639,-4.32125 1.67308,-6.47308 0.90085,-3.23516 1.88883,-6.44714 3.02102,-9.60926 0.28325,-0.79109 0.90828,-2.4454 1.22523,-3.28841 0.23599,-0.66611 0.50197,-1.32092 0.74864,-1.983 0.0638,-0.17122 0.12221,-0.34439 0.18478,-0.51606 0.0248,-0.068 0.0205,-0.15784 0.0772,-0.20278 0.0308,-0.0244 0.10238,0.0232 0.0999,0.0624 -0.0108,0.16772 -0.0901,0.32384 -0.13518,0.48576 -0.91645,3.43111 -1.5928,6.91878 -2.23679,10.40921 -0.76816,4.14233 -1.40937,8.30679 -1.99029,12.47907 -0.0457,0.3201 -0.0869,0.64086 -0.13698,0.96031 -0.0266,0.16988 -0.0577,0.33911 -0.0929,0.50742 -0.003,0.0133 -0.0162,0.048 -0.0206,0.0351 -0.19773,-0.57608 -0.099,-0.58215 -0.01,-1.35724 0.0538,-0.46556 0.11562,-0.93013 0.17343,-1.3952 0.54912,-4.37733 1.45784,-8.69548 2.51658,-12.97448 0.46544,-1.71269 0.93218,-3.429 1.53369,-5.10035 0.22612,-0.6283 0.51026,-1.34333 0.82375,-1.94417 0.0929,-0.17815 0.20813,-0.3438 0.3122,-0.5157 0.10482,-0.0921 0.34071,-0.40241 0.54778,-0.17625 0.14795,0.16158 0.18052,1.1554 0.18189,1.19617 0.0212,0.62726 -0.0122,1.90341 -0.0229,2.47591 -0.10596,3.70265 -0.34163,7.40014 -0.64353,11.0915 -0.0974,1.25893 -0.2216,2.51575 -0.32156,3.77446 -0.0164,0.20641 -0.0328,0.4129 -0.0423,0.61975 -0.004,0.0868 0.0407,0.18266 0.002,0.26052 -0.0175,0.0355 -0.0648,-0.0457 -0.0971,-0.0685 0.42437,-2.53369 0.86869,-5.06345 1.3342,-7.59005 0.56903,-3.00719 1.25746,-5.99748 2.14147,-8.92859 0.008,-0.0225 0.26845,-0.85233 0.41293,-0.98131 0.0624,-0.0557 0.19131,-0.11416 0.24576,-0.0507 0.0864,0.10073 0.0453,0.26234 0.0494,0.39496 0.015,0.48163 -0.0519,1.50973 -0.0729,1.91215 -0.2292,3.99075 -0.56233,7.97409 -0.86078,11.95992 -0.13179,1.81461 -0.28026,3.62802 -0.43779,5.44056 -0.0605,0.69662 -0.0878,1.43324 -0.23715,2.1214 -0.0529,-0.0476 -0.14648,-0.0726 -0.15872,-0.14266 -0.0371,-0.21255 0.0109,-0.43144 0.0208,-0.647 0.0406,-0.88828 0.0901,-1.61503 0.16409,-2.51848 0.12459,-1.52078 0.19817,-2.17062 0.3551,-3.72423 0.40503,-3.88916 1.04633,-7.74565 1.88863,-11.5626 0.20499,-0.82689 0.30005,-1.29759 0.56162,-2.07207 0.0333,-0.0986 0.2427,-0.72343 0.38189,-0.77975 0.38404,-0.15538 0.31099,0.42768 0.32698,0.54245 0.003,0.28129 0.0142,0.56258 0.0104,0.84386 -0.005,0.41013 -0.0827,2.40263 -0.0944,2.68495 -0.0855,2.06135 -0.1972,4.12079 -0.31396,6.18057 -0.27324,4.01793 -0.47137,8.04336 -0.85003,12.05338 -0.52474,-0.041 0.12668,0.86253 -0.17408,1.05186 -0.0638,0.0401 -0.17401,-0.0394 -0.19677,-0.11118 -0.0645,-0.20358 -0.035,-0.4259 -0.0411,-0.63937 -0.0249,-0.86809 0.003,-1.65457 0.0201,-2.53119 0.12307,-2.97416 0.38069,-5.94758 0.76326,-8.89997 0.23412,-1.80676 0.38149,-2.56108 0.68291,-4.31076 0.1969,-0.97395 0.34672,-1.84938 0.6247,-2.79424 0.0737,-0.25066 0.15525,-0.5006 0.26533,-0.73756 0.052,-0.11195 0.10305,-0.25226 0.21679,-0.30022 0.42473,-0.1791 0.44856,0.4856 0.49296,0.63226 0.0458,0.31337 0.10034,0.62559 0.1374,0.94012 0.0967,0.82097 0.18833,2.06949 0.24613,2.86325 0.13966,1.918 0.24122,3.83782 0.34685,5.75792 0.14132,2.97381 0.27464,5.94795 0.42827,8.92118 -0.382,0.18439 0.17997,0.54672 0.0565,0.77409 -0.0204,0.0377 -0.11439,0.007 -0.12387,-0.0345 -0.034,-0.15012 0.009,-0.30774 0.0114,-0.46165 0.008,-0.54919 0.01,-1.45731 0.0118,-1.96248 -0.0463,-3.80443 0.14029,-7.6019 0.48203,-11.38951 0.1982,-1.76247 0.47671,-3.51791 0.87081,-5.24774 0.11293,-0.49567 0.33617,-1.4116 0.55783,-1.92541 0.061,-0.14145 0.16042,-0.26305 0.24063,-0.39457 0.11724,-0.0262 0.24927,-0.14139 0.3517,-0.0786 0.12747,0.0781 0.14498,0.26431 0.18604,0.40804 0.0747,0.26151 0.12051,0.53103 0.15912,0.80025 0.22366,1.55927 0.26279,3.1511 0.3408,4.72128 0.22402,4.75014 0.29741,9.50551 0.35279,14.26005 -0.003,1.63194 0.0577,3.26458 0.0184,4.89652 -0.007,0.27092 -0.0147,0.54217 -0.0392,0.81206 -0.011,0.12153 0.0137,0.26831 -0.067,0.3599 -0.0508,0.0577 -0.15284,-0.0156 -0.22926,-0.0234 -0.038,-0.17528 -0.0845,-0.34894 -0.1141,-0.52584 -0.10703,-0.63963 -0.20529,-1.59266 -0.26521,-2.20157 -0.17866,-1.81547 -0.28824,-3.63205 -0.38762,-5.45328 -0.11419,-2.71828 -0.1077,-5.44647 0.0949,-8.16079 0.10262,-1.37485 0.18386,-1.90163 0.34983,-3.23234 0.18112,-0.99338 0.30521,-2.01775 0.6548,-2.97261 0.0584,-0.1595 0.22515,-0.65523 0.53424,-0.61294 0.10932,0.015 0.14129,0.16951 0.21193,0.25426 0.0743,0.20608 0.16293,0.40755 0.22299,0.61823 0.39425,1.38303 0.59024,2.8379 0.83767,4.25025 0.55162,3.14859 0.20969,1.2255 0.81222,4.57461 0.84065,4.63176 1.79057,9.24705 3.08999,13.77355 0,0 -0.11836,0.0645 -0.11836,0.0645 l 0,0 c -1.28518,-4.53165 -2.2352,-9.14767 -3.08135,-13.77966 -0.66762,-3.68092 -0.2082,-1.12814 -0.81947,-4.57079 -0.25024,-1.40933 -0.4506,-2.86161 -0.85044,-4.24055 -0.0605,-0.20849 -0.14946,-0.40762 -0.22419,-0.61143 -0.0671,-0.0789 -0.1201,-0.17229 -0.20124,-0.23662 -0.064,-0.0508 -0.17294,0.16352 -0.28118,0.45374 -0.0886,0.23758 -0.15733,0.48244 -0.22093,0.72789 -0.22465,0.86698 -0.28464,1.33401 -0.44399,2.24697 -0.16859,1.33281 -0.25063,1.85659 -0.35494,3.23388 -0.20553,2.71393 -0.21279,5.44207 -0.0968,8.16009 0.10103,1.81974 0.21219,3.6346 0.39581,5.44821 0.0635,0.62707 0.16131,1.54369 0.27342,2.19546 0.0299,0.17358 0.0763,0.34389 0.11447,0.51584 -0.0134,0.0569 -0.0502,0.22842 -0.0401,0.17081 0.11779,-0.6748 0.0877,-0.13236 0.118,-1.17489 0.0261,-0.89751 0.0131,-2.05944 0.008,-2.93146 -0.004,-0.65686 -0.01,-1.31371 -0.0146,-1.97057 -0.0506,-4.75393 -0.12293,-9.50879 -0.35583,-14.25791 -0.0749,-1.44454 -0.0942,-2.12165 -0.2208,-3.51273 -0.0419,-0.46064 -0.11303,-2.07933 -0.56222,-2.45933 -0.0821,0.13119 -0.18402,0.25192 -0.2464,0.39358 -0.22535,0.51171 -0.45299,1.43379 -0.56689,1.92775 -0.39887,1.72976 -0.67976,3.48601 -0.87786,5.24948 -0.3429,3.78533 -0.52949,7.58078 -0.47188,11.38307 -2.6e-4,0.51501 5.2e-4,1.40271 -0.004,1.95853 -0.003,0.34475 0.0366,0.68957 -0.1587,0.63574 -0.25073,-0.0691 0.52018,-0.99295 -0.0492,-0.77869 -0.14118,-2.97591 -0.27448,-5.95216 -0.41471,-8.92809 -0.1063,-1.91924 -0.20862,-3.83811 -0.35174,-5.75505 -0.0595,-0.79737 -0.1533,-2.03497 -0.2532,-2.85845 -0.038,-0.31317 -0.0938,-0.62391 -0.14069,-0.93587 -0.0562,-0.18313 -0.1151,-0.36546 -0.16861,-0.5494 -0.0206,-0.0709 0.017,-0.23622 -0.0537,-0.21488 -0.11903,0.0359 -0.17005,0.18635 -0.22357,0.29858 -0.1129,0.23676 -0.19581,0.48746 -0.2711,0.73872 -0.28401,0.94786 -0.43453,1.81938 -0.63504,2.79805 -0.30729,1.76648 -0.45065,2.48625 -0.68798,4.31243 -0.38335,2.94978 -0.63745,5.921 -0.7522,8.89303 -0.0144,0.88913 -0.0404,1.64857 -0.0109,2.52511 0.007,0.21147 0.0523,0.42176 0.0446,0.6332 -0.003,0.0876 -0.0935,0.33749 -0.0769,0.25144 0.0187,-0.0969 0.0554,-0.18934 0.0832,-0.28401 0.0344,-0.25698 0.0688,-0.51395 0.10322,-0.77092 0.39491,-4.01102 0.59297,-8.03947 0.86433,-12.05993 0.1127,-2.0579 0.22216,-4.11548 0.30327,-6.17491 0.0123,-0.31153 0.0827,-2.24696 0.087,-2.68034 0.003,-0.28004 -0.009,-0.56003 -0.0138,-0.84004 -0.0221,-0.15812 -0.0538,-0.3152 -0.0664,-0.47437 -0.005,-0.0663 0.0787,-0.21104 0.0133,-0.19909 -0.0934,0.0171 -0.12829,0.14305 -0.17095,0.22788 -0.0889,0.17668 -0.15645,0.36369 -0.22066,0.55073 -0.2658,0.77422 -0.36213,1.24749 -0.56944,2.07459 -0.84966,3.81626 -1.49374,7.67329 -1.8948,11.56387 -0.17174,1.72155 -0.3447,3.44205 -0.45105,5.1692 -0.0218,0.35464 -0.0383,0.70962 -0.0527,1.06464 -0.009,0.2141 0.014,0.43053 -0.0165,0.64263 -0.0144,0.10024 -0.0776,0.18711 -0.11635,0.28066 0.16471,-0.68525 0.19099,-1.43147 0.25347,-2.12714 0.16287,-1.81354 0.31229,-3.62837 0.44563,-5.44432 0.29927,-3.98327 0.63101,-7.96431 0.84834,-11.9533 0.023,-0.4741 0.0804,-1.37638 0.0651,-1.90534 -0.004,-0.12636 -0.0369,-0.25055 -0.0427,-0.37684 -0.002,-0.034 0.0406,-0.12786 0.0208,-0.10012 -0.0727,0.10183 -0.13383,0.21265 -0.18322,0.32762 -0.0916,0.21333 -0.15909,0.43626 -0.23863,0.65438 -0.89334,2.93038 -1.58364,5.9228 -2.1522,8.93202 -0.46292,2.52309 -0.90819,5.04865 -1.31308,7.58171 -0.06,0.0682 -0.0937,0.23312 -0.17993,0.20455 -0.0834,-0.0276 -0.003,-0.1759 0.002,-0.26366 0.0112,-0.20762 0.0289,-0.41485 0.0463,-0.62203 0.10591,-1.26004 0.23133,-2.51849 0.33101,-3.77908 0.30559,-3.69002 0.5417,-7.38658 0.6395,-11.08849 0.0162,-1.00767 0.10821,-2.21912 -0.0457,-3.22273 -0.0225,-0.14642 -0.0816,-0.28485 -0.11922,-0.42812 -0.0151,-0.0575 0.02,-0.18059 -0.039,-0.17388 -0.1055,0.012 -0.162,0.13728 -0.243,0.20592 -0.10552,0.17198 -0.2224,0.33748 -0.31654,0.51593 -0.31639,0.59967 -0.60406,1.31836 -0.83159,1.94599 -0.60608,1.67184 -1.07549,3.38955 -1.54321,5.10366 -1.06109,4.27577 -1.96966,8.5917 -2.50712,12.9681 -0.0561,0.46408 -0.11656,0.92765 -0.1682,1.39225 -0.0351,0.31533 -0.0364,0.635 -0.0919,0.94739 -0.0328,0.18472 -0.12063,0.35548 -0.17156,0.53605 -0.004,0.0138 0.0259,-0.0175 0.0292,-0.0314 0.0398,-0.16835 0.0707,-0.33879 0.0986,-0.50952 0.0523,-0.32012 0.0947,-0.6418 0.14199,-0.9627 0.59411,-4.1733 1.23619,-8.34039 2.00296,-12.48589 0.64016,-3.48604 1.31311,-6.96874 2.2127,-10.39891 0.0728,-0.27029 0.13642,-0.69675 0.31091,-0.67761 0.0729,0.008 -0.0557,0.13564 -0.0814,0.2043 -0.0644,0.17221 -0.12385,0.34624 -0.18878,0.51824 -0.25029,0.66304 -0.51859,1.31922 -0.75698,1.9868 -0.32995,0.87194 -0.93608,2.46495 -1.23346,3.29187 -1.13685,3.16121 -2.12612,6.37364 -3.02487,9.61011 -0.63258,2.32938 -0.663,2.38704 -1.22248,4.64753 -0.1437,0.58058 -0.5862,2.44478 -0.75252,3.15237 -0.0625,0.26566 -0.091,0.54136 -0.18526,0.79747 -0.04,0.10864 -0.14,0.18439 -0.21,0.27658 0.0772,-0.82561 0.21248,-1.64832 0.32486,-2.46934 0.2644,-1.93167 0.52817,-3.86347 0.77886,-5.79698 0.5285,-4.12486 1.01545,-8.25492 1.44955,-12.39085 0.0677,-0.67074 0.15085,-1.3402 0.19915,-2.01261 0.0111,-0.15503 -0.0113,-0.31266 0.0136,-0.46609 0.0108,-0.0664 0.13136,-0.23384 0.0911,-0.18001 -0.13588,0.18159 -0.26856,0.60809 -0.3242,0.75507 -0.98873,3.00653 -1.87806,6.04529 -2.65021,9.11491 -0.84117,3.51105 -1.64737,7.03015 -2.37754,10.56615 -0.0445,0.21892 -0.0628,0.44483 -0.13341,0.65676 -0.0344,0.10314 -0.0691,0.26004 -0.17687,0.27404 -0.0874,0.0113 0.0368,-0.17234 0.056,-0.25834 0.0501,-0.22462 0.10253,-0.44871 0.15175,-0.67351 0.22086,-1.00876 0.31116,-1.46024 0.53299,-2.52806 0.86132,-4.13877 1.70379,-8.28141 2.56463,-12.42029 0.0411,-0.19736 0.62191,-2.98462 0.69145,-3.33899 0.0826,-0.42113 0.27926,-1.46666 0.33343,-1.9692 0.0154,-0.14262 2.7e-4,-0.2873 0.0137,-0.43011 0.005,-0.0551 0.028,-0.1071 0.042,-0.16066 -0.42866,0.50017 -0.67861,1.0976 -0.94983,1.6953 -0.64765,1.42731 -1.22169,2.88706 -1.74746,4.36334 -1.3133,3.87001 -2.46399,7.79709 -3.33951,11.79098 -0.17642,0.82073 -0.33542,1.49735 -0.46777,2.31145 -0.0294,0.18096 -0.0222,0.36817 -0.0672,0.54591 -0.017,0.0672 -0.12102,0.2425 -0.11483,0.17344 0.0339,-0.37865 0.5342,-0.64656 0.3556,-1.08364 0.95139,-3.6929 1.75234,-7.42343 2.48246,-11.16592 0.6614,-3.44688 1.37787,-6.89508 1.73983,-10.38917 0.004,-0.23541 0.0824,-0.61506 -0.0767,-0.85501 -0.056,-0.0845 -0.22551,0.14224 -0.38318,0.37748 -0.33104,0.49392 -0.60973,1.09115 -0.8751,1.61316 -1.42484,3.17797 -2.59915,6.46023 -3.573,9.80419 -0.46499,1.62871 -0.92696,3.25775 -1.36358,4.89434 -0.0991,0.37138 -0.19703,0.74307 -0.29278,1.11533 -0.0646,0.25102 -0.10111,0.51034 -0.18819,0.75448 -0.0522,0.14638 -0.15087,0.27175 -0.22631,0.40762 0.16384,-0.41193 0.3365,-1.19817 0.43321,-1.56728 0.43191,-1.64847 0.8292,-3.30566 1.21526,-4.96539 0.78858,-3.44967 1.5895,-6.90197 2.12109,-10.40273 0.0461,-0.35 0.1633,-1.10682 0.16671,-1.51804 0.004,-0.4655 -0.13144,-0.16225 -0.27727,0.12093 -0.11123,0.216 -0.20225,0.44181 -0.30338,0.66271 -1.2006,2.94985 -2.209,5.97467 -3.13859,9.01973 -0.95861,3.3113 -1.88011,6.63606 -2.60362,10.00796 -0.0472,0.20086 -0.0643,0.41127 -0.14161,0.60257 -0.0355,0.0879 -0.11026,0.26769 -0.18807,0.21349 -0.0869,-0.0605 0.0251,-0.21031 0.0428,-0.31467 0.19069,-1.12204 0.43925,-2.23374 0.64937,-3.35205 0.74634,-3.89845 1.51761,-7.79205 2.26311,-11.69065 0.19775,-1.03985 0.38189,-1.98324 0.56258,-3.02042 0.0586,-0.33651 0.23951,-1.39151 0.27216,-1.81307 0.0111,-0.14301 -0.0124,-0.28699 -0.006,-0.43026 0.003,-0.0618 0.023,-0.12162 0.0344,-0.18243 -0.0659,0.061 -0.14358,0.11144 -0.19781,0.18307 -0.23258,0.30717 -0.53646,0.91328 -0.6885,1.21752 -0.60238,1.20547 -1.13882,2.44294 -1.63601,3.69515 -1.2618,3.25538 -2.40639,6.5527 -3.50841,9.86541 -0.22885,0.65187 -0.48971,1.41355 -0.74092,2.06777 -0.0805,0.20965 -0.22367,0.72831 -0.50353,0.8556 -0.1923,0.0875 0.20091,-1.33228 -0.008,-0.6337 0.39626,-2.70087 1.04239,-5.35836 1.62228,-8.02374 0.4639,-2.02566 0.92874,-4.05137 1.43368,-6.06724 0.0565,-0.0607 0.0865,-0.18109 0.16949,-0.18225 0.0626,-8.7e-4 -0.0351,0.12017 -0.0514,0.18061 -0.0417,0.15489 -0.0811,0.31039 -0.12261,0.46535 -0.25867,0.96678 -0.53084,1.93003 -0.76504,2.90323 -0.73245,2.97224 -1.418,5.95546 -2.08916,8.94211 -0.15887,0.67138 -0.31329,1.34382 -0.4733,2.01493 -0.0414,0.17375 -0.0624,0.35436 -0.12906,0.52009 -0.0342,0.085 -0.0814,0.24888 -0.16763,0.21783 -0.29585,-0.10656 1.17366,-1.1109 0.253,-0.90879 0.84087,-3.20351 1.65714,-6.41346 2.44732,-9.62987 0.45045,-1.78525 0.43512,-1.69533 0.84538,-3.43023 0.26903,-1.13767 0.55296,-2.28287 0.73088,-3.4398 0.0277,-0.1803 0.0394,-0.3627 0.0591,-0.54405 -0.0103,-0.0774 -0.0168,-0.15535 -0.0309,-0.23213 -0.002,-0.0119 -0.009,-0.0402 -0.0174,-0.0317 -0.27227,0.27249 -0.41785,0.54762 -0.60897,0.89375 -0.38454,0.69647 -0.58959,1.1574 -0.94207,1.89501 -1.37379,3.05107 -2.51679,6.19687 -3.56974,9.37198 -0.44501,1.34089 -0.86986,2.68833 -1.31822,4.02807 -0.003,0.008 -0.38821,1.17285 -0.47834,1.32134 -0.0554,0.0913 -0.15824,0.14361 -0.23737,0.21541 0.053,-0.57674 0.24838,-1.15949 0.40608,-1.71039 0.42333,-1.47878 0.87672,-2.94894 1.32101,-4.42147 1.07289,-3.473 2.11992,-6.95421 3.12437,-10.44767 0.17349,-0.63705 0.37871,-1.34544 0.51711,-1.99904 0.13089,-0.61819 0.0805,-0.37768 0.0948,-0.81902 7e-4,-0.0218 0.024,-0.0803 0.009,-0.0647 -0.084,0.086 -0.14851,0.18915 -0.22276,0.28372 -1.24412,2.0394 -2.1174,4.28148 -3.01902,6.48537 -1.09898,2.87097 -2.10343,5.77511 -2.98105,8.722 -0.0755,0.25196 -0.15226,0.50353 -0.22638,0.7559 -0.0431,0.14686 -0.0574,0.30461 -0.12536,0.44174 -0.0389,0.0785 -0.10047,0.20541 -0.18595,0.18596 -0.0186,-0.004 0.42057,-1.56288 0.38816,-1.56503 0.73927,-2.88755 1.58318,-5.74606 2.40297,-8.61144 0.22135,-0.78956 0.59065,-2.10037 0.81044,-2.90855 0.24825,-0.9128 0.53031,-1.84792 0.64689,-2.79103 0.014,-0.11352 0.005,-0.22872 0.008,-0.34308 0.0457,-0.21687 0.0553,-0.19967 -0.22582,0.25228 -0.48032,0.77233 -0.84307,1.62027 -1.21004,2.44936 -0.1825,0.4123 -0.35903,0.82721 -0.53854,1.24082 -1.32317,3.22684 -2.46238,6.52117 -3.55453,9.83264 -0.39775,1.21946 -0.5502,1.69869 -0.94904,2.87907 -0.12177,0.36038 -0.24333,0.72087 -0.37037,1.07943 -0.0715,0.2019 -0.32986,1.19295 -0.68782,1.25841 0.0624,-0.71697 0.26601,-1.4252 0.44281,-2.12007 0.4085,-1.6055 0.85958,-3.19998 1.30605,-4.79517 0.97158,-3.39506 2.00758,-6.77103 3.03193,-10.15047 0.22094,-0.74396 0.31832,-1.05146 0.50855,-1.75688 0.0417,-0.15448 0.0828,-0.30916 0.1184,-0.46514 0.0152,-0.0668 0.007,-0.1398 0.0339,-0.20268 0.0118,-0.0272 0.0823,-0.0771 0.0746,-0.0485 -0.0253,0.0943 -0.0878,0.17436 -0.13167,0.26155 -0.78534,1.74387 -1.40391,3.55532 -1.95553,5.38574 -0.74267,2.66417 -1.41439,5.3479 -1.94474,8.06327 -0.1451,0.79279 -0.31314,1.58926 -0.3936,2.39247 -0.0101,0.10113 0.0116,0.20618 -0.0139,0.30459 -0.0127,0.0493 -0.099,0.16977 -0.0956,0.11901 0.006,-0.0837 0.0687,-0.15301 0.10299,-0.22952 0.61867,-1.93448 0.97375,-3.9444 1.51217,-5.90134 0.55081,-2.27326 1.11104,-4.54421 1.76208,-6.79133 0.13137,-0.45795 0.20084,-0.9498 0.481,-1.34459 0.0271,-0.0382 -0.0418,0.084 -0.0592,0.12751 -0.10496,0.26211 -0.16473,0.46 -0.25699,0.73783 -0.54897,1.75263 -1.04587,3.52104 -1.45777,5.31144 -0.48121,2.0402 -0.92894,4.09222 -1.16225,6.1781 -0.0402,0.34137 -0.0926,0.73084 -0.11291,1.07968 -0.004,0.0727 0.0184,0.14798 -2.4e-4,0.21834 -0.009,0.0358 -0.0849,0.11495 -0.0783,0.0786 0.0151,-0.0832 0.0784,-0.15048 0.10585,-0.23041 0.0551,-0.16031 0.0941,-0.32569 0.14109,-0.48853 0.52142,-2.14961 0.92445,-4.32463 1.36514,-6.49173 0.29129,-1.54508 0.58433,-3.09046 0.85759,-4.63859 0,0 0.13973,-0.0683 0.13973,-0.0683 z" />
    <path
       style="color:#000000;fill:#000000;fill-opacity:1;fill-rule:nonzero;stroke:#000000;stroke-width:2;stroke-linecap:butt;stroke-linejoin:miter;stroke-miterlimit:4;stroke-opacity:1;stroke-dasharray:none;stroke-dashoffset:0;marker:none;visibility:visible;display:inline;overflow:visible;enable-background:accumulate"
       id="path2832"
       d="m -84.557469,470.90161 c 0.19652,4.15515 0.969009,8.24358 1.741988,12.32105 1.287321,6.63339 2.734476,13.23427 4.24511,19.81995 1.331398,5.33127 3.177949,10.51263 5.287567,15.58035 1.26992,3.02719 2.539504,6.05157 3.712902,9.11769 0.675235,1.59556 1.185238,3.31511 2.49247,4.51638 0.0095,0.004 0.665043,0.37574 0.616207,-0.0662 -0.01302,-0.11782 -0.333665,0.0283 -0.344094,-0.0897 -0.02614,-0.29595 0.189805,-0.56381 0.260882,-0.85229 0.195553,-0.79368 0.540421,-2.71105 0.666542,-3.38333 1.085678,-8.24275 2.052482,-16.50132 3.06635,-24.75334 1.364737,-11.35355 3.13539,-22.65581 5.01469,-33.93433 1.096692,-6.41523 2.453637,-12.78152 3.707033,-19.16712 0.378698,-1.33772 -0.192893,-1.50163 1.139768,-1.33612 0,0 -0.674051,0.36335 -0.674051,0.36335 l 0,0 c 1.220766,-1.65614 0.172299,-0.0961 0.209126,0.64541 -1.280505,6.38942 -2.6466,12.76318 -3.75133,19.18624 -1.889201,11.2764 -3.661327,22.57828 -5.017763,33.93243 -1.006451,8.24596 -1.967904,16.49788 -3.023895,24.73749 -0.161113,0.87567 -0.520117,5.99275 -2.520242,5.11973 -1.304975,-1.22009 -1.825391,-2.94213 -2.500402,-4.5521 -1.168467,-3.06779 -2.439009,-6.09149 -3.701864,-9.12135 -2.106108,-5.07462 -3.947487,-10.26283 -5.279288,-15.59902 -1.509862,-6.58603 -2.956737,-13.18706 -4.252888,-19.81887 -0.779113,-4.07767 -1.552806,-8.16535 -1.774822,-12.3198 0,0 0.680004,-0.34648 0.680004,-0.34648 z" />
    <path
       style="color:#000000;fill:#000000;fill-opacity:1;fill-rule:nonzero;stroke:#000000;stroke-width:2;stroke-linecap:butt;stroke-linejoin:miter;stroke-miterlimit:4;stroke-opacity:1;stroke-dasharray:none;stroke-dashoffset:0;marker:none;visibility:visible;display:inline;overflow:visible;enable-background:accumulate"
       id="path2834"
       d="m 368.39731,439.17108 c -0.72992,5.46184 -1.52321,10.91678 -2.30149,16.37262 -1.36912,8.93034 -3.351,17.74006 -5.38884,26.53556 -1.53799,6.7075 -3.21154,13.38286 -4.96312,20.03743 -0.73576,2.69591 -1.38314,5.41645 -1.83491,8.17495 -0.32665,1.30726 1.4184,-0.099 1.84194,-0.33401 3.28352,-1.6981 6.79294,-2.89053 10.28535,-4.07337 5.05425,-1.71275 10.29836,-2.75465 15.54801,-3.6545 4.57152,-0.73358 9.19771,-0.99118 13.81985,-1.12198 2.13081,-0.10821 4.25448,-0.0972 6.33181,0.42405 0.16732,0.0893 0.64223,0.088 0.65602,0.33243 0,0 -0.70705,0.30786 -0.70705,0.30786 l 0,0 c -0.18907,-0.0787 -0.38143,-0.15156 -0.57892,-0.2058 -2.06836,-0.51627 -4.18362,-0.52093 -6.30441,-0.41816 -4.61732,0.13011 -9.23874,0.38713 -13.80495,1.12402 -5.24905,0.9028 -10.49224,1.94798 -15.54457,3.66643 -3.49626,1.18697 -7.00993,2.38488 -10.29249,4.09619 -0.45856,0.25401 -2.23203,1.58653 -1.93646,0.19225 0.46253,-2.76413 1.11288,-5.49146 1.85612,-8.19303 1.76263,-6.65597 3.4424,-13.33413 4.98411,-20.04506 2.04018,-8.7934 4.02701,-17.60058 5.39199,-26.53021 0.77116,-5.44767 1.55544,-10.8955 2.25536,-16.35197 0,0 0.68665,-0.3357 0.68665,-0.3357 z" />
    <path
       style="color:#000000;fill:#000000;fill-opacity:1;fill-rule:nonzero;stroke:#000000;stroke-width:2;stroke-linecap:butt;stroke-linejoin:miter;stroke-miterlimit:4;stroke-opacity:1;stroke-dasharray:none;stroke-dashoffset:0;marker:none;visibility:visible;display:inline;overflow:visible;enable-background:accumulate"
       id="path2836"
       d="m 261.20678,331.97848 c 0.0267,3.15965 0.41977,6.30834 0.76913,9.4459 0.42063,4.89823 0.7456,9.80636 1.05913,14.7133 0.40964,5.33801 0.94209,10.66369 1.4395,15.99374 0.34532,3.84421 0.49487,7.70156 0.56993,11.55929 0.0291,1.62329 0.0341,3.24689 0.0308,4.8704 -5.5e-4,0.23244 -0.002,0.46488 -0.004,0.6973 -0.28778,-0.0118 -0.59752,0.0755 -0.86334,-0.0354 -0.0821,-0.0342 -1.58581,-3.04179 -1.73636,-3.30633 -0.87343,-1.67633 -1.7601,-3.38156 -3.01902,-4.80515 -0.12544,-0.11747 -0.23712,-0.25164 -0.37634,-0.35242 -0.40364,-0.29219 -0.68836,-0.006 -0.47937,-0.0197 0.20203,-0.0128 0.40935,-0.21738 0.59281,-0.13182 0.12696,0.0592 5e-4,0.2815 0.0242,0.41957 0.0368,0.21462 0.10429,0.42283 0.15644,0.63425 0.64515,2.02665 1.85492,3.74793 3.14411,5.41013 1.21822,1.27316 2.42437,2.77282 4.20715,3.18781 1.39391,0.0211 1.86603,-0.97583 2.71886,-2.05024 1.25697,-1.53184 2.298,-3.22336 3.39418,-4.87092 0.41536,-0.79013 1.12673,-1.43182 1.48704,-2.25051 0.18474,-0.27602 0.35905,-0.55783 0.54282,-0.8347 0,0 0.70187,-0.30703 0.70187,-0.30703 l 0,0 c -0.18363,0.27342 -0.34438,0.56022 -0.54681,0.81958 -0.31775,0.83901 -1.09211,1.46737 -1.48888,2.26808 -1.09848,1.6474 -2.13735,3.34132 -3.3916,4.8766 -1.0501,1.32988 -2.16481,2.81364 -4.045,2.78252 -1.78685,-0.45509 -3.00449,-1.94001 -4.22901,-3.2344 -1.29501,-1.67067 -2.51018,-3.40038 -3.16583,-5.43386 -0.0912,-0.35529 -0.38932,-0.76735 -0.20071,-1.08193 0.56728,-0.94617 1.00351,-0.84735 1.6068,-0.22526 1.25364,1.43462 2.14865,3.13839 3.0234,4.82045 0.13061,0.22842 1.76755,3.19789 1.74593,3.30806 -0.0581,0.29622 -0.32816,0.50675 -0.49224,0.76013 0.007,-0.23228 0.008,-0.46479 0.0103,-0.69719 0.0109,-1.62514 0.007,-3.25039 -0.0172,-4.8754 -0.0687,-3.85795 -0.21287,-7.7157 -0.55609,-11.56024 -0.49257,-5.33162 -1.02578,-10.65844 -1.43694,-15.99744 -0.31513,-4.90443 -0.6435,-9.80994 -1.06635,-14.70559 -0.35209,-3.13773 -0.74609,-6.28543 -0.78898,-9.44511 0,0 0.68001,-0.34647 0.68001,-0.34647 z" />
    <path
       style="color:#000000;fill:#000000;fill-opacity:1;fill-rule:nonzero;stroke:#000000;stroke-width:2;stroke-linecap:butt;stroke-linejoin:miter;stroke-miterlimit:4;stroke-opacity:1;stroke-dasharray:none;stroke-dashoffset:0;marker:none;visibility:visible;display:inline;overflow:visible;enable-background:accumulate"
       id="path2838"
       d="m 222.61702,383.68875 c -0.0104,2.37458 0.34633,4.73392 0.55521,7.0965 0.14375,1.67239 0.19139,3.35066 0.21486,5.02838 0.006,0.60344 0.0115,1.20694 0.008,1.81042 0,0 -0.68681,0.34916 -0.68681,0.34916 l 0,0 c 0.008,-0.60407 0.003,-1.20824 -8.7e-4,-1.81231 -0.0212,-1.67684 -0.0655,-3.35423 -0.20736,-5.0259 -0.20592,-2.36432 -0.55861,-4.72426 -0.5634,-7.09977 0,0 0.68001,-0.34648 0.68001,-0.34648 z" />
    <path
       style="color:#000000;fill:#000000;fill-opacity:1;fill-rule:nonzero;stroke:#000000;stroke-width:2;stroke-linecap:butt;stroke-linejoin:miter;stroke-miterlimit:4;stroke-opacity:1;stroke-dasharray:none;stroke-dashoffset:0;marker:none;visibility:visible;display:inline;overflow:visible;enable-background:accumulate"
       id="path2840"
       d="m 224.50861,370.51424 c -1.15141,0.45686 -2.3239,0.75276 -3.56533,0.71069 -0.53844,0.12311 -0.35428,-0.21179 0.1819,-0.0697 0.0859,0.0228 -0.0618,0.17021 -0.0627,0.25904 -0.002,0.20787 0.10237,0.43191 0.17242,0.61909 0.17155,0.47119 0.33712,0.94452 0.50109,1.41839 0,0 -0.67353,0.37174 -0.67353,0.37174 l 0,0 c -0.16161,-0.47399 -0.32567,-0.94719 -0.49823,-1.41733 -0.31123,-0.81804 -0.16081,-1.69443 1.00134,-1.63058 1.23533,0.0303 2.40042,-0.27916 3.54638,-0.73008 0,0 -0.60333,0.46873 -0.60333,0.46873 z" />
    <path
       style="color:#000000;fill:#000000;fill-opacity:1;fill-rule:nonzero;stroke:#000000;stroke-width:2;stroke-linecap:butt;stroke-linejoin:miter;stroke-miterlimit:4;stroke-opacity:1;stroke-dasharray:none;stroke-dashoffset:0;marker:none;visibility:visible;display:inline;overflow:visible;enable-background:accumulate"
       id="path2842"
       d="m 234.10495,395.95055 c -0.4376,2.19191 -0.27181,4.42436 -0.13431,6.63629 0.26733,1.02413 -0.12973,2.2848 0.29507,3.26478 0.63941,0.39954 1.4888,0.32568 2.21866,0.3286 1.06045,-0.12138 2.05389,0.20951 3.0712,0.44391 0.96033,0.21894 1.91794,-0.13369 2.86621,-0.28207 0.66857,-0.0967 1.26583,-0.27539 1.88087,0.0416 0.1705,0.0959 0.32518,0.21463 0.47717,0.33671 0,0 -0.65186,0.40949 -0.65186,0.40949 l 0,0 c -0.14855,-0.11813 -0.29967,-0.23302 -0.46715,-0.32392 -0.59825,-0.29008 -1.21212,-0.0834 -1.8508,-0.004 -0.95397,0.15519 -1.91666,0.4945 -2.8836,0.25818 -1.01359,-0.23677 -2.00531,-0.54894 -3.06192,-0.42961 -0.75214,-0.005 -1.6389,0.0702 -2.2684,-0.40181 -0.43366,-0.98858 -0.0367,-2.25658 -0.29898,-3.29298 -0.13601,-2.21561 -0.30247,-4.45182 0.12119,-6.64904 0,0 0.68665,-0.33569 0.68665,-0.33569 z" />
    <path
       style="color:#000000;fill:#000000;fill-opacity:1;fill-rule:nonzero;stroke:#000000;stroke-width:2;stroke-linecap:butt;stroke-linejoin:miter;stroke-miterlimit:4;stroke-opacity:1;stroke-dasharray:none;stroke-dashoffset:0;marker:none;visibility:visible;display:inline;overflow:visible;enable-background:accumulate"
       id="path2844"
       d="m 642.83074,363.41472 c 1.33432,2.06011 2.24304,4.33561 2.83915,6.70645 0.50589,2.31224 0.53266,4.68168 0.88797,7.01578 0.15308,1.33771 0.55514,2.63164 1.06162,3.8745 0.15274,0.35634 0.573,0.95529 -0.71909,0.28692 -0.17199,-0.089 -0.16887,-0.34852 -0.25331,-0.52277 0,0 0.6644,-0.3773 0.6644,-0.3773 l 0,0 c 0.0849,0.17419 0.28343,0.33097 0.2546,0.52258 -0.23487,1.56127 -0.44882,0.84193 -0.61633,0.46494 -0.50334,-1.2506 -0.90848,-2.55072 -1.06242,-3.89437 -0.35431,-2.33274 -0.38015,-4.69993 -0.88052,-7.01162 -0.5915,-2.36032 -1.49288,-4.62875 -2.83179,-6.67319 0,0 0.65572,-0.39192 0.65572,-0.39192 z" />
    <path
       style="color:#000000;fill:#000000;fill-opacity:1;fill-rule:nonzero;stroke:#000000;stroke-width:2;stroke-linecap:butt;stroke-linejoin:miter;stroke-miterlimit:4;stroke-opacity:1;stroke-dasharray:none;stroke-dashoffset:0;marker:none;visibility:visible;display:inline;overflow:visible;enable-background:accumulate"
       id="path2846"
       d="m 645.29543,359.02446 c -0.541,-0.42817 -1.06072,-1.50777 -1.85774,-1.53956 -0.0982,-0.004 -0.37512,0.10789 -0.27714,0.10047 0.12307,-0.009 0.23645,-0.0709 0.35467,-0.10634 -0.71774,1.07995 -1.22353,2.27435 -1.96647,3.34003 -0.59842,0.76579 -1.63864,1.57549 -2.51416,0.80803 -0.23443,-0.24741 -0.27483,-0.60234 -0.40258,-0.90968 0,0 0.66944,-0.37536 0.66944,-0.37536 l 0,0 c 0.12564,0.29589 0.16352,0.63865 0.38551,0.87857 0.138,0.1167 0.22721,0.2144 0.40938,0.26949 0.0951,0.0288 0.29562,-0.0605 0.29552,0.0389 -1.3e-4,0.13068 -0.42198,0.22325 -0.29581,0.2573 0.24076,0.065 0.68906,-0.58547 0.7528,-0.6632 0.75693,-1.05982 1.26719,-2.25351 1.95673,-3.35474 0.32121,-0.21699 0.62569,-0.46108 0.96364,-0.65096 0.78819,-0.44284 1.72437,1.15387 2.18194,1.51515 0,0 -0.65573,0.39192 -0.65573,0.39192 z" />
    <path
       style="color:#000000;fill:#000000;fill-opacity:1;fill-rule:nonzero;stroke:#000000;stroke-width:2;stroke-linecap:butt;stroke-linejoin:miter;stroke-miterlimit:4;stroke-opacity:1;stroke-dasharray:none;stroke-dashoffset:0;marker:none;visibility:visible;display:inline;overflow:visible;enable-background:accumulate"
       id="path2848"
       d="m 653.36829,383.00537 c 0.37247,3.23144 0.49274,6.48347 0.58795,9.73255 -0.10041,2.44255 -0.11763,4.92454 -0.74852,7.29989 -0.3417,1.22071 -1.38782,2.21991 -2.23655,0.62319 -0.72018,-2.03638 -0.59233,-4.22605 -0.44655,-6.34315 0.3311,-2.91047 1.18247,-5.71304 2.32194,-8.39992 0.95112,-2.15682 2.27946,-4.06171 4.21605,-5.42037 1.46292,-1.01535 2.7011,-1.45886 4.23935,-0.46663 1.05142,1.01664 1.10988,2.49131 1.20353,3.86396 -0.009,2.15438 -1.06404,3.98507 -2.25879,5.6989 -1.42482,1.77861 -3.48772,2.83368 -5.45916,3.89181 -0.80791,0.40862 -1.35747,0.56647 -0.37353,1.4139 1.99079,1.42736 4.30519,2.23777 6.57374,3.0991 2.95238,1.14255 5.85978,2.40202 8.86802,3.39361 1.23041,0.40435 2.93043,0.47378 3.26115,1.97071 0.0487,0.59354 -0.21949,1.05052 -0.48868,1.5544 0,0 -0.69639,0.31215 -0.69639,0.31215 l 0,0 c 0.26933,-0.48545 0.54385,-0.9272 0.50966,-1.50472 -0.28546,-1.45785 -2.05078,-1.50081 -3.20974,-1.90896 -3.00569,-0.99908 -5.91283,-2.25889 -8.86636,-3.39864 -2.27848,-0.86343 -4.60261,-1.67922 -6.60103,-3.11322 -1.51249,-1.32258 0.47684,-1.58768 1.61707,-2.29368 0.71454,6.4e-4 3.67427,-2.41531 4.17101,-3.1146 1.19431,-1.69766 2.25693,-3.51028 2.27792,-5.651 -0.0905,-1.34507 -0.13554,-2.80634 -1.17114,-3.80028 -0.94356,-0.59249 -1.86238,-0.77503 -2.88988,-0.22483 -1.9498,1.33535 -3.28306,3.23272 -4.23878,5.38383 -1.14226,2.67899 -1.99832,5.47289 -2.33232,8.37707 -0.14539,2.10282 -0.27587,4.27671 0.43608,6.30071 0.70523,1.32251 0.57451,0.16879 0.1979,1.18228 -0.15757,0.42403 1.23308,-1.38239 0.68799,-1.09781 0.6466,-2.36815 0.66484,-4.84747 0.77092,-7.28637 -0.0943,-3.2449 -0.2122,-6.49361 -0.59734,-9.71958 0,0 0.67448,-0.3543 0.67448,-0.3543 z" />
  </g>
</svg>
