<?xml version="1.0" encoding="UTF-8" standalone="no"?>
<!-- Created with Inkscape (http://www.inkscape.org/) -->

<svg
   xmlns:dc="http://purl.org/dc/elements/1.1/"
   xmlns:cc="http://creativecommons.org/ns#"
   xmlns:rdf="http://www.w3.org/1999/02/22-rdf-syntax-ns#"
   xmlns:svg="http://www.w3.org/2000/svg"
   xmlns="http://www.w3.org/2000/svg"
   xmlns:sodipodi="http://sodipodi.sourceforge.net/DTD/sodipodi-0.dtd"
   xmlns:inkscape="http://www.inkscape.org/namespaces/inkscape"
   width="989.12067"
   height="793.15234"
   id="svg3150"
   version="1.1"
   inkscape:version="0.47pre4 r22446"
   sodipodi:docname="New document 4">
  <defs
     id="defs3152">
    <marker
       style="overflow:visible"
       inkscape:stockid="InfiniteLineEnd"
       id="InfiniteLineEnd"
       refX="0"
       refY="0"
       orient="auto">
      <g
         id="g4179">
        <circle
           id="circle4181"
           r="0.80000001"
           cy="0"
           cx="3"
           sodipodi:cx="3"
           sodipodi:cy="0"
           sodipodi:rx="0.80000001"
           sodipodi:ry="0.80000001" />
        <circle
           id="circle4183"
           r="0.80000001"
           cy="0"
           cx="6.5"
           sodipodi:cx="6.5"
           sodipodi:cy="0"
           sodipodi:rx="0.80000001"
           sodipodi:ry="0.80000001" />
        <circle
           id="circle4185"
           r="0.80000001"
           cy="0"
           cx="10"
           sodipodi:cx="10"
           sodipodi:cy="0"
           sodipodi:rx="0.80000001"
           sodipodi:ry="0.80000001" />
      </g>
    </marker>
    <marker
       style="overflow:visible"
       inkscape:stockid="InfiniteLineStart"
       id="InfiniteLineStart"
       refX="0"
       refY="0"
       orient="auto">
      <g
         id="g4188"
         transform="translate(-13,0)">
        <circle
           d="M 3.8,0 C 3.8,0.44182781 3.4418278,0.80000001 3,0.80000001 2.5581722,0.80000001 2.2,0.44182781 2.2,0 c 0,-0.44182781 0.3581722,-0.80000001 0.8,-0.80000001 0.4418278,0 0.8,0.3581722 0.8,0.80000001 z"
           id="circle4190"
           r="0.80000001"
           cy="0"
           cx="3"
           sodipodi:cx="3"
           sodipodi:cy="0"
           sodipodi:rx="0.80000001"
           sodipodi:ry="0.80000001" />
        <circle
           d="M 7.3,0 C 7.3,0.44182781 6.9418278,0.80000001 6.5,0.80000001 6.0581722,0.80000001 5.7,0.44182781 5.7,0 c 0,-0.44182781 0.3581722,-0.80000001 0.8,-0.80000001 0.4418278,0 0.8,0.3581722 0.8,0.80000001 z"
           id="circle4192"
           r="0.80000001"
           cy="0"
           cx="6.5"
           sodipodi:cx="6.5"
           sodipodi:cy="0"
           sodipodi:rx="0.80000001"
           sodipodi:ry="0.80000001" />
        <circle
           d="M 10.8,0 C 10.8,0.44182781 10.441828,0.80000001 10,0.80000001 9.5581722,0.80000001 9.2,0.44182781 9.2,0 c 0,-0.44182781 0.3581722,-0.80000001 0.8,-0.80000001 0.441828,0 0.8,0.3581722 0.8,0.80000001 z"
           id="circle4194"
           r="0.80000001"
           cy="0"
           cx="10"
           sodipodi:cx="10"
           sodipodi:cy="0"
           sodipodi:rx="0.80000001"
           sodipodi:ry="0.80000001" />
      </g>
    </marker>
    <inkscape:perspective
       sodipodi:type="inkscape:persp3d"
       inkscape:vp_x="0 : 526.18109 : 1"
       inkscape:vp_y="0 : 1000 : 0"
       inkscape:vp_z="744.09448 : 526.18109 : 1"
       inkscape:persp3d-origin="372.04724 : 350.78739 : 1"
       id="perspective3158" />
  </defs>
  <sodipodi:namedview
     id="base"
     pagecolor="#ffffff"
     bordercolor="#666666"
     borderopacity="1.0"
     inkscape:pageopacity="0.0"
     inkscape:pageshadow="2"
     inkscape:zoom="0.35"
     inkscape:cx="53.637607"
     inkscape:cy="356.7428"
     inkscape:document-units="px"
     inkscape:current-layer="layer1"
     showgrid="false"
     inkscape:window-width="1280"
     inkscape:window-height="726"
     inkscape:window-x="0"
     inkscape:window-y="25"
     inkscape:window-maximized="1" />
  <metadata
     id="metadata3155">
    <rdf:RDF>
      <cc:Work
         rdf:about="">
        <dc:format>image/svg+xml</dc:format>
        <dc:type
           rdf:resource="http://purl.org/dc/dcmitype/StillImage" />
        <dc:title></dc:title>
      </cc:Work>
    </rdf:RDF>
  </metadata>
  <g
     inkscape:label="Layer 1"
     inkscape:groupmode="layer"
     id="layer1"
     transform="translate(191.49475,-95.952627)">
    <path
       style="color:#000000;fill:#000000;fill-opacity:1;fill-rule:nonzero;stroke:#000000;stroke-width:2;stroke-linecap:butt;stroke-linejoin:miter;stroke-miterlimit:4;stroke-opacity:1;stroke-dasharray:none;stroke-dashoffset:0;marker:none;visibility:visible;display:inline;overflow:visible;enable-background:accumulate"
       id="path3160"
       d="m 321.59106,96.952627 c 1.72368,14.206223 2.02688,28.540763 1.81621,42.832863 -0.60749,30.71407 -2.69037,61.36735 -4.43969,92.02983 -2.06934,45.60496 -3.88581,91.22222 -5.06425,136.85979 -0.75027,53.33338 -1.66516,106.66078 -2.66828,159.99043 -1.51004,61.33001 -0.93198,122.67171 1.3737,183.96972 1.97256,52.00917 5.48221,103.95268 9.24711,155.85924 0.45635,6.136 0.91271,12.272 1.36906,18.40801 0,0 -2.31778,1.20247 -2.31778,1.20247 l 0,0 c -0.44617,-6.14144 -0.89233,-12.28289 -1.3385,-18.42433 -3.70201,-51.93126 -7.16552,-103.89736 -9.13566,-155.92646 -2.2999,-61.29749 -2.88766,-122.63881 -1.40627,-183.96862 0.98355,-53.32212 1.88249,-106.64193 2.61927,-159.96758 1.16506,-45.62899 2.97038,-91.23747 4.99818,-136.83531 1.71501,-30.64117 3.77254,-61.27323 4.33644,-91.96511 0.19729,-14.26397 -0.11357,-28.57449 -1.88813,-42.746857 0,0 2.49859,-1.318086 2.49859,-1.318086 z" />
    <path
       style="color:#000000;fill:#000000;fill-opacity:1;fill-rule:nonzero;stroke:#000000;stroke-width:2;stroke-linecap:butt;stroke-linejoin:miter;stroke-miterlimit:4;stroke-opacity:1;stroke-dasharray:none;stroke-dashoffset:0;marker:none;visibility:visible;display:inline;overflow:visible;enable-background:accumulate"
       id="path3162"
       d="m -188.26123,482.23962 c 13.90223,-3.46546 28.05833,-5.78849 42.247,-7.70348 20.13942,-2.34728 40.43583,-2.65496 60.686571,-2.91166 23.713772,-0.17763 47.428551,-0.11804 71.14276,-0.0959 25.511023,-0.54049 50.99443,0.71952 76.492842,0.99409 26.600363,0.31245 53.153697,-1.4218 79.721167,-2.44372 29.45717,-1.9932 58.80865,-0.0478 88.1432,2.52071 29.29981,3.46381 58.63099,6.07601 88.14551,5.53977 29.80747,-1.90797 59.53763,-4.87059 89.28549,-7.54166 31.00289,-2.12712 62.10008,-2.03178 93.15892,-2.06239 32.24513,1.02985 64.3537,-1.00423 96.4581,-3.68493 31.35491,-3.43275 62.74622,-6.12039 94.3008,-5.56226 27.87436,1.01603 55.37619,5.84482 82.57382,11.74387 15.33108,3.1557 7.8195,1.68649 22.53099,4.4267 0,0 -2.2224,1.55275 -2.2224,1.55275 l 0,0 c -14.7012,-2.7568 -7.19391,-1.28127 -22.51824,-4.4451 -27.17701,-5.90109 -54.66041,-10.72246 -82.51606,-11.72051 -31.54481,-0.54265 -62.92554,2.15071 -94.27135,5.57377 -32.11003,2.68129 -64.22529,4.69095 -96.47543,3.67069 -31.05702,0.0363 -62.15294,-0.0576 -93.15303,2.08712 -29.75423,2.66755 -59.48925,5.64934 -89.30457,7.53203 -29.51803,0.51376 -58.8513,-2.11207 -88.15508,-5.56733 -29.33267,-2.56384 -58.68336,-4.48038 -88.137,-2.48384 -26.57304,1.02758 -53.132545,2.76229 -79.738856,2.44021 -25.499355,-0.28377 -50.9840424,-1.52432 -76.495918,-0.9885 -23.719933,-0.0174 -47.440502,-0.0771 -71.159918,0.11296 -20.250328,0.26397 -40.547208,0.57832 -60.683778,2.95084 -14.205,1.93081 -28.38829,4.24828 -42.28906,7.80098 0,0 2.23352,-1.73521 2.23352,-1.73521 z" />
    <path
       style="fill:none;stroke:#000000;stroke-width:8;stroke-linecap:butt;stroke-linejoin:miter;stroke-miterlimit:4;stroke-opacity:1;stroke-dasharray:none;marker-start:url(#InfiniteLineStart);marker-end:url(#InfiniteLineEnd)"
       d="m -102.85714,603.79075 c 0,0 227.60147,-372.19812 405.71428,-125.71428 178.11281,246.48384 420,-197.14286 420,-197.14286"
       id="path3166"
       sodipodi:nodetypes="czz" />
  </g>
</svg>
