<?xml version="1.0" encoding="UTF-8" standalone="no"?>
<svg
   xmlns:dc="http://purl.org/dc/elements/1.1/"
   xmlns:cc="http://creativecommons.org/ns#"
   xmlns:rdf="http://www.w3.org/1999/02/22-rdf-syntax-ns#"
   xmlns:svg="http://www.w3.org/2000/svg"
   xmlns="http://www.w3.org/2000/svg"
   xmlns:xlink="http://www.w3.org/1999/xlink"
   xmlns:sodipodi="http://sodipodi.sourceforge.net/DTD/sodipodi-0.dtd"
   xmlns:inkscape="http://www.inkscape.org/namespaces/inkscape"
   width="767"
   height="575"
   viewBox="0 0 767 575"
   id="svg2"
   version="1.1"
   inkscape:version="0.47pre4 r22446"
   sodipodi:docname="hw2q2.svg">
  <sodipodi:namedview
     pagecolor="#ffffff"
     bordercolor="#666666"
     borderopacity="1"
     objecttolerance="10"
     gridtolerance="10"
     guidetolerance="10"
     inkscape:pageopacity="0"
     inkscape:pageshadow="2"
     inkscape:window-width="1280"
     inkscape:window-height="726"
     id="namedview150"
     showgrid="false"
     inkscape:zoom="0.90183912"
     inkscape:cx="170.10887"
     inkscape:cy="275.83936"
     inkscape:window-x="0"
     inkscape:window-y="25"
     inkscape:window-maximized="1"
     inkscape:current-layer="svg2" />
  <metadata
     id="metadata152">
    <rdf:RDF>
      <cc:Work
         rdf:about="">
        <dc:format>image/svg+xml</dc:format>
        <dc:type
           rdf:resource="http://purl.org/dc/dcmitype/StillImage" />
      </cc:Work>
    </rdf:RDF>
  </metadata>
  <desc
     id="desc4">Produced by GNUPLOT 4.2 patchlevel 5  </desc>
  <defs
     id="defs6">
    <marker
       inkscape:stockid="Arrow1Lend"
       orient="auto"
       refY="0.0"
       refX="0.0"
       id="Arrow1Lend"
       style="overflow:visible;">
      <path
         id="path3742"
         d="M 0.0,0.0 L 5.0,-5.0 L -12.5,0.0 L 5.0,5.0 L 0.0,0.0 z "
         style="fill-rule:evenodd;stroke:#000000;stroke-width:1.0pt;marker-start:none;"
         transform="scale(0.8) rotate(180) translate(12.5,0)" />
    </marker>
    <marker
       inkscape:stockid="Arrow1Lstart"
       orient="auto"
       refY="0.0"
       refX="0.0"
       id="Arrow1Lstart"
       style="overflow:visible">
      <path
         id="path3739"
         d="M 0.0,0.0 L 5.0,-5.0 L -12.5,0.0 L 5.0,5.0 L 0.0,0.0 z "
         style="fill-rule:evenodd;stroke:#000000;stroke-width:1.0pt;marker-start:none"
         transform="scale(0.8) translate(12.5,0)" />
    </marker>
    <inkscape:perspective
       sodipodi:type="inkscape:persp3d"
       inkscape:vp_x="0 : 287.5 : 1"
       inkscape:vp_y="0 : 1000 : 0"
       inkscape:vp_z="767 : 287.5 : 1"
       inkscape:persp3d-origin="383.5 : 191.66667 : 1"
       id="perspective154" />
    <circle
       id="gpDot"
       r="0.5"
       stroke-width="0.5" />
    <path
       id="gpPt0"
       stroke-width="0.222"
       stroke="currentColor"
       d="M-1,0 h2 M0,-1 v2" />
    <path
       id="gpPt1"
       stroke-width="0.222"
       stroke="currentColor"
       d="M-1,-1 L1,1 M1,-1 L-1,1" />
    <path
       id="gpPt2"
       stroke-width="0.222"
       stroke="currentColor"
       d="M-1,0 L1,0 M0,-1 L0,1 M-1,-1 L1,1 M-1,1 L1,-1" />
    <rect
       id="gpPt3"
       stroke-width="0.222"
       stroke="currentColor"
       x="-1"
       y="-1"
       width="2"
       height="2" />
    <rect
       id="gpPt4"
       stroke-width="0.222"
       stroke="currentColor"
       fill="currentColor"
       x="-1"
       y="-1"
       width="2"
       height="2" />
    <circle
       id="gpPt5"
       stroke-width="0.222"
       stroke="currentColor"
       cx="0"
       cy="0"
       r="1" />
    <use
       xlink:href="#gpPt5"
       id="gpPt6"
       fill="currentColor"
       stroke="none" />
    <path
       id="gpPt7"
       stroke-width="0.222"
       stroke="currentColor"
       d="M0,-1.33 L-1.33,0.67 L1.33,0.67 z" />
    <use
       xlink:href="#gpPt7"
       id="gpPt8"
       fill="currentColor"
       stroke="none" />
    <use
       xlink:href="#gpPt7"
       id="gpPt9"
       stroke="currentColor"
       transform="rotate(180)" />
    <use
       xlink:href="#gpPt9"
       id="gpPt10"
       fill="currentColor"
       stroke="none" />
    <use
       xlink:href="#gpPt3"
       id="gpPt11"
       stroke="currentColor"
       transform="rotate(45)" />
    <use
       xlink:href="#gpPt11"
       id="gpPt12"
       fill="currentColor"
       stroke="none" />
    <inkscape:perspective
       id="perspective4752"
       inkscape:persp3d-origin="0.5 : 0.33333333 : 1"
       inkscape:vp_z="1 : 0.5 : 1"
       inkscape:vp_y="0 : 1000 : 0"
       inkscape:vp_x="0 : 0.5 : 1"
       sodipodi:type="inkscape:persp3d" />
  </defs>
  <g
     style="fill:none; color:white; stroke:currentColor; stroke-width:1.00; stroke-linecap:butt; stroke-linejoin:miter"
     id="g22" />
  <g
     style="fill:none; color:white; stroke:currentColor; stroke-width:0.50; stroke-linecap:butt; stroke-linejoin:miter"
     id="g24" />
  <g
     style="fill:none; color:black; stroke:currentColor; stroke-width:0.50; stroke-linecap:butt; stroke-linejoin:miter"
     id="g26">
    <path
       d="M99.7,511.8 L112.2,511.8 M694.1,511.8 L681.6,511.8 "
       id="path28" />
    <g
       transform="translate(91.4,516.3)"
       style="stroke:none; fill:rgb(0,0,0); font-family:Arial; font-size:12.00pt; text-anchor:end"
       id="g30">
      <text
         id="text32">
        <tspan
           id="tspan34">0</tspan>
      </text>
    </g>
    <path
       d="M99.7,418.1 L112.2,418.1 M694.1,418.1 L681.6,418.1 "
       id="path36" />
    <g
       transform="translate(91.4,422.6)"
       style="stroke:none; fill:rgb(0,0,0); font-family:Arial; font-size:12.00pt; text-anchor:end"
       id="g38">
      <text
         id="text40">
        <tspan
           id="tspan42">0.2</tspan>
      </text>
    </g>
    <path
       d="M99.7,324.4 L112.2,324.4 M694.1,324.4 L681.6,324.4 "
       id="path44" />
    <g
       transform="translate(91.4,328.9)"
       style="stroke:none; fill:rgb(0,0,0); font-family:Arial; font-size:12.00pt; text-anchor:end"
       id="g46">
      <text
         id="text48">
        <tspan
           id="tspan50">0.4</tspan>
      </text>
    </g>
    <path
       d="M99.7,230.6 L112.2,230.6 M694.1,230.6 L681.6,230.6 "
       id="path52" />
    <g
       transform="translate(91.4,235.1)"
       style="stroke:none; fill:rgb(0,0,0); font-family:Arial; font-size:12.00pt; text-anchor:end"
       id="g54">
      <text
         id="text56">
        <tspan
           id="tspan58">0.6</tspan>
      </text>
    </g>
    <path
       d="M99.7,136.9 L112.2,136.9 M694.1,136.9 L681.6,136.9 "
       id="path60" />
    <g
       transform="translate(91.4,141.4)"
       style="stroke:none; fill:rgb(0,0,0); font-family:Arial; font-size:12.00pt; text-anchor:end"
       id="g62">
      <text
         id="text64">
        <tspan
           id="tspan66">0.8</tspan>
      </text>
    </g>
    <path
       d="M99.7,43.2 L112.2,43.2 M694.1,43.2 L681.6,43.2 "
       id="path68" />
    <g
       transform="translate(91.4,47.7)"
       style="stroke:none; fill:rgb(0,0,0); font-family:Arial; font-size:12.00pt; text-anchor:end"
       id="g70">
      <text
         id="text72">
        <tspan
           id="tspan74">1</tspan>
      </text>
    </g>
    <path
       d="M99.7,511.8 L99.7,499.3 M99.7,43.2 L99.7,55.7 "
       id="path76" />
    <g
       transform="translate(99.7,534.3)"
       style="stroke:none; fill:rgb(0,0,0); font-family:Arial; font-size:12.00pt; text-anchor:middle"
       id="g78">
      <text
         id="text80">
        <tspan
           id="tspan82">0</tspan>
      </text>
    </g>
    <path
       d="M218.6,511.8 L218.6,499.3 M218.6,43.2 L218.6,55.7 "
       id="path84" />
    <g
       transform="translate(218.6,534.3)"
       style="stroke:none; fill:rgb(0,0,0); font-family:Arial; font-size:12.00pt; text-anchor:middle"
       id="g86">
      <text
         id="text88">
        <tspan
           id="tspan90">0.2</tspan>
      </text>
    </g>
    <path
       d="M337.5,511.8 L337.5,499.3 M337.5,43.2 L337.5,55.7 "
       id="path92" />
    <g
       transform="translate(337.5,534.3)"
       style="stroke:none; fill:rgb(0,0,0); font-family:Arial; font-size:12.00pt; text-anchor:middle"
       id="g94">
      <text
         id="text96">
        <tspan
           id="tspan98">0.4</tspan>
      </text>
    </g>
    <path
       d="M456.3,511.8 L456.3,499.3 M456.3,43.2 L456.3,55.7 "
       id="path100" />
    <g
       transform="translate(456.3,534.3)"
       style="stroke:none; fill:rgb(0,0,0); font-family:Arial; font-size:12.00pt; text-anchor:middle"
       id="g102">
      <text
         id="text104">
        <tspan
           id="tspan106">0.6</tspan>
      </text>
    </g>
    <path
       d="M575.2,511.8 L575.2,499.3 M575.2,43.2 L575.2,55.7 "
       id="path108" />
    <g
       transform="translate(575.2,534.3)"
       style="stroke:none; fill:rgb(0,0,0); font-family:Arial; font-size:12.00pt; text-anchor:middle"
       id="g110">
      <text
         id="text112">
        <tspan
           id="tspan114">0.8</tspan>
      </text>
    </g>
    <path
       d="M694.1,511.8 L694.1,499.3 M694.1,43.2 L694.1,55.7 "
       id="path116" />
    <g
       transform="translate(694.1,534.3)"
       style="stroke:none; fill:rgb(0,0,0); font-family:Arial; font-size:12.00pt; text-anchor:middle"
       id="g118">
      <text
         id="text120">
        <tspan
           id="tspan122">1</tspan>
      </text>
    </g>
    <path
       d="M99.7,43.2 L99.7,511.8 L694.1,511.8 L694.1,43.2 L99.7,43.2 Z "
       id="path124" />
    <g
       transform="translate(53.7,277.5) rotate(-90)"
       style="stroke:none; fill:rgb(0,0,0); font-family:Arial; font-size:12.00pt; text-anchor:middle"
       id="g126">
      <text
         id="text128">
        <tspan
           id="tspan130">f</tspan>
        <tspan
           font-size="9.6pt"
           dy="3.60pt"
           id="tspan132">x</tspan>
        <tspan
           font-size="12.0pt"
           dy="-3.60pt"
           id="tspan134">(t)</tspan>
      </text>
    </g>
    <g
       transform="translate(396.9,561.3)"
       style="stroke:none; fill:rgb(0,0,0); font-family:Arial; font-size:12.00pt; text-anchor:middle"
       id="g136">
      <text
         id="text138">
        <tspan
           id="tspan140">t</tspan>
      </text>
    </g>
  </g>
  <g
     style="fill:none; color:red; stroke:currentColor; stroke-width:0.50; stroke-linecap:butt; stroke-linejoin:miter"
     id="g142">
    <path
       stroke="rgb(  0,   0, 255)"
       d="M99.7,43.2 L105.6,66.1 L111.6,87.8 L117.5,108.5 L123.5,128.1 L129.4,146.9 L135.4,164.7 L141.3,181.6    L147.3,197.7 L153.2,213.0 L159.1,227.6 L165.1,241.4 L171.0,254.6 L177.0,267.2 L182.9,279.1 L188.9,290.4    L194.8,301.2 L200.7,311.5 L206.7,321.3 L212.6,330.6 L218.6,339.4 L224.5,347.8 L230.5,355.8 L236.4,363.4    L242.4,370.7 L248.3,377.5 L254.2,384.1 L260.2,390.3 L266.1,396.2 L272.1,401.9 L278.0,407.2 L284.0,412.3    L289.9,417.2 L295.9,421.8 L301.8,426.2 L307.7,430.4 L313.7,434.3 L319.6,438.1 L325.6,441.7 L331.5,445.1    L337.5,448.4 L343.4,451.5 L349.3,454.4 L355.3,457.2 L361.2,459.9 L367.2,462.4 L373.1,464.8 L379.1,467.1    L385.0,469.3 L391.0,471.4 L396.9,473.3 L402.8,475.2 L408.8,477.0 L414.7,478.7 L420.7,480.3 L426.6,481.8    L432.6,483.3 L438.5,484.7 L444.5,486.0 L450.4,487.3 L456.3,488.5 L462.3,489.6 L468.2,490.7 L474.2,491.7    L480.1,492.7 L486.1,493.6 L492.0,494.5 L497.9,495.4 L503.9,496.2 L509.8,496.9 L515.8,497.6 L521.7,498.3    L527.7,499.0 L533.6,499.6 L539.6,500.2 L545.5,500.8 L551.4,501.3 L557.4,501.8 L563.3,502.3 L569.3,502.8    L575.2,503.2 L581.2,503.6 L587.1,504.0 L593.1,504.4 L599.0,504.8 L604.9,505.1 L610.9,505.4 L616.8,505.8    L622.8,506.0 L628.7,506.3 L634.7,506.6 L640.6,506.8 L646.5,507.1 L652.5,507.3 L658.4,507.5 L664.4,507.7    L670.3,507.9 L676.3,508.1 L682.2,508.3 L688.2,508.5 L694.1,508.6 "
       id="path144" />
  </g>
  <g
     style="fill:none; color:black; stroke:currentColor; stroke-width:0.50; stroke-linecap:butt; stroke-linejoin:miter"
     id="g146">
    <path
       d="M99.7,43.2 L99.7,511.8 L694.1,511.8 L694.1,43.2 L99.7,43.2 Z "
       id="path148" />
  </g>
  <path
     style="fill:none;stroke:#000000;stroke-width:2;stroke-linecap:butt;stroke-linejoin:miter;stroke-opacity:1;stroke-miterlimit:4;stroke-dasharray:none;marker-end:url(#Arrow1Lend)"
     d="m 181.85062,510.68698 0,-125.29951"
     id="path2960"
     sodipodi:nodetypes="cc" />
  <path
     style="fill:none;stroke:#000000;stroke-width:2;stroke-linecap:butt;stroke-linejoin:miter;stroke-opacity:1;marker-start:none;marker-end:url(#Arrow1Lend);stroke-miterlimit:4;stroke-dasharray:none"
     d="m 400.29312,511.79582 0,-232.8575"
     id="path2962"
     sodipodi:nodetypes="cc" />
  <path
     style="fill:none;stroke:#000000;stroke-width:1;stroke-linecap:butt;stroke-linejoin:miter;stroke-miterlimit:4;stroke-opacity:1;stroke-dasharray:3, 3;stroke-dashoffset:0"
     d="m 180.74177,384.47592 -78.72801,0"
     id="path4742"
     sodipodi:nodetypes="cc" />
  <path
     style="fill:none;stroke:#000000;stroke-width:1;stroke-linecap:butt;stroke-linejoin:miter;stroke-miterlimit:4;stroke-opacity:1;stroke-dasharray:3, 3;stroke-dashoffset:0"
     d="m 399.7387,277.571 -299.38821,0"
     id="path4742-1"
     sodipodi:nodetypes="cc" />
  <g
     id="g4859"
     transform="matrix(0.45917527,0,0,0.45917527,69.383701,427.28948)">
    <g
       id="content"
       transform="matrix(0.82142857,0,0,-0.82142857,-143.75,575.25)"
       xml:space="preserve"
       stroke-miterlimit="10.433"
       fill-rule="even-odd"
       font-style="normal"
       font-variant="normal"
       font-weight="normal"
       font-stretch="normal"
       font-size-adjust="none"
       letter-spacing="normal"
       word-spacing="normal"
       style="font-style:normal;font-variant:normal;font-weight:normal;font-stretch:normal;letter-spacing:normal;word-spacing:normal;text-anchor:start;fill:none;stroke:#000000;stroke-linecap:butt;stroke-linejoin:miter;stroke-miterlimit:10.43299961;stroke-opacity:1;stroke-dasharray:none;stroke-dashoffset:0"><path
         d="m 476.64,455.88 0,0.05 0,0.06 0,0.05 0,0.05 0,0.05 0,0.05 0,0.04 0,0.05 0,0.04 0,0.04 0,0.04 0,0.04 0,0.04 -0.01,0.04 0,0.03 0,0.04 -0.01,0.03 0,0.03 -0.01,0.06 -0.01,0.05 -0.02,0.05 -0.01,0.05 -0.02,0.04 -0.02,0.04 -0.03,0.04 -0.03,0.03 -0.03,0.02 -0.03,0.03 -0.04,0.02 -0.05,0.02 -0.02,0.01 -0.03,0.01 -0.02,0 -0.03,0.01 -0.03,0.01 -0.03,0 -0.03,0.01 -0.03,0 -0.03,0.01 -0.04,0 -0.04,0 -0.03,0 -0.04,0.01 -0.04,0 -0.04,0 -0.05,0 -0.04,0 -0.05,0 -0.05,0.01 -0.05,0 -0.05,0 -0.05,0 c -3.09,-3.19 -7.47,-3.19 -9.07,-3.19 v -1.55 c 1,0 3.94,0 6.53,1.3 v -25.81 c 0,-1.79 -0.15,-2.39 -4.63,-2.39 h -1.6 V 424 c 1.75,0.15 6.08,0.15 8.07,0.15 1.99,0 6.33,0 8.07,-0.15 v 1.54 h -1.59 c -4.49,0 -4.64,0.55 -4.64,2.39 z"
         id="path4862"
         style="fill:#000000;stroke-width:0" /><polyline
         points="462,402 486.96,402 486.96,404.04 462,404.04 "
         id="polyline4864"
         style="fill:#000000;fill-rule:nonzero;stroke-width:0" /><path
         d="m 477.39,374.03 0.33,0.18 0.33,0.18 0.32,0.18 0.31,0.19 0.3,0.19 0.3,0.2 0.29,0.2 0.28,0.2 0.27,0.21 0.26,0.22 0.25,0.22 0.25,0.22 0.23,0.22 0.22,0.24 0.22,0.23 0.2,0.24 0.19,0.24 0.19,0.25 0.17,0.25 0.16,0.26 0.15,0.26 0.13,0.27 0.13,0.27 0.11,0.27 0.1,0.28 0.09,0.28 0.07,0.28 0.07,0.29 0.04,0.3 0.04,0.3 0.02,0.3 0.01,0.3 c 0,4.59 -4.44,7.43 -8.97,7.43 l -0.05,-1.25 c 3.64,0 6.83,-2.59 6.83,-6.18 0,-2.84 -1.94,-5.23 -4.93,-6.97 l -6.18,3.99 c -2.29,1.49 -2.49,3.18 -2.49,4.03 0,3.04 3.24,5.13 6.77,5.13 l 0.05,1.25 c -4.98,0 -9.01,-3.69 -9.01,-8.32 0,-0.9 0.1,-3.14 2.19,-5.48 0.55,-0.6 2.39,-1.84 3.64,-2.69 l 1.14,-0.75 c 1.39,-0.85 3.74,-2.34 6.13,-3.89 1.39,-0.94 3.73,-2.44 3.73,-5.48 0,-3.68 -3.73,-6.27 -7.82,-6.27 -4.28,0 -7.87,3.09 -7.87,7.22 0,2.89 1.6,6.08 5.83,8.42 h 0 l -1.14,0.75 c -2.89,-1.45 -7.18,-4.24 -7.18,-9.17 0,-5.28 5.08,-8.62 10.31,-8.62 5.63,0 10.37,4.14 10.37,9.47 0,1.79 -0.56,4.03 -2.45,6.13 -0.94,1.04 -1.74,1.54 -4.93,3.53 z"
         id="path4866"
         style="fill:#000000;stroke-width:0" /></g>  </g>
  <g
     id="g5062"
     transform="matrix(0.45917527,0,0,0.45917527,-28.194678,166.71085)">
    <g
       word-spacing="normal"
       letter-spacing="normal"
       font-size-adjust="none"
       font-stretch="normal"
       font-weight="normal"
       font-variant="normal"
       font-style="normal"
       fill-rule="even-odd"
       stroke-miterlimit="10.433"
       xml:space="preserve"
       transform="matrix(0.82142857,0,0,-0.82142857,-143.75,575.25)"
       id="g5064"
       style="font-style:normal;font-variant:normal;font-weight:normal;font-stretch:normal;letter-spacing:normal;word-spacing:normal;text-anchor:start;fill:none;stroke:#000000;stroke-linecap:butt;stroke-linejoin:miter;stroke-miterlimit:10.43299961;stroke-opacity:1;stroke-dasharray:none;stroke-dashoffset:0"><path
         id="path5066"
         d="m 476.64,455.88 0,0.05 0,0.06 0,0.05 0,0.05 0,0.05 0,0.05 0,0.04 0,0.05 0,0.04 0,0.04 0,0.04 0,0.04 0,0.04 -0.01,0.04 0,0.03 0,0.04 -0.01,0.03 0,0.03 -0.01,0.06 -0.01,0.05 -0.02,0.05 -0.01,0.05 -0.02,0.04 -0.02,0.04 -0.03,0.04 -0.03,0.03 -0.03,0.02 -0.03,0.03 -0.04,0.02 -0.05,0.02 -0.02,0.01 -0.03,0.01 -0.02,0 -0.03,0.01 -0.03,0.01 -0.03,0 -0.03,0.01 -0.03,0 -0.03,0.01 -0.04,0 -0.04,0 -0.03,0 -0.04,0.01 -0.04,0 -0.04,0 -0.05,0 -0.04,0 -0.05,0 -0.05,0.01 -0.05,0 -0.05,0 -0.05,0 c -3.09,-3.19 -7.47,-3.19 -9.07,-3.19 v -1.55 c 1,0 3.94,0 6.53,1.3 v -25.81 c 0,-1.79 -0.15,-2.39 -4.63,-2.39 h -1.6 V 424 c 1.75,0.15 6.08,0.15 8.07,0.15 1.99,0 6.33,0 8.07,-0.15 v 1.54 h -1.59 c -4.49,0 -4.64,0.55 -4.64,2.39 z"
         style="fill:#000000;stroke-width:0" /><polyline
         id="polyline5068"
         points="462,402 486.96,402 486.96,404.04 462,404.04 "
         style="fill:#000000;fill-rule:nonzero;stroke-width:0" /><path
         id="path5070"
         d="m 484.37,364.67 h -1.25 c -0.25,-1.5 -0.6,-3.69 -1.1,-4.44 -0.34,-0.39 -3.63,-0.39 -4.73,-0.39 h -8.96 l 5.28,5.12 c 7.77,6.88 10.76,9.57 10.76,14.55 0,5.68 -4.49,9.67 -10.57,9.67 -5.62,0 -9.31,-4.59 -9.31,-9.02 0,-2.79 2.49,-2.79 2.64,-2.79 0.85,0 2.59,0.6 2.59,2.64 0,1.29 -0.9,2.59 -2.64,2.59 -0.4,0 -0.5,0 -0.65,-0.05 1.15,3.24 3.84,5.08 6.73,5.08 4.53,0 6.67,-4.03 6.67,-8.12 0,-3.98 -2.49,-7.92 -5.23,-11.01 l -9.56,-10.66 c -0.55,-0.54 -0.55,-0.64 -0.55,-1.84 h 18.48 z"
         style="fill:#000000;stroke-width:0" /></g>  </g>
  <g
     id="g5276"
     transform="matrix(0.45917527,0,0,0.45917527,291.82621,421.74525)">
    <g
       id="g5278"
       transform="matrix(0.82142857,0,0,-0.82142857,-143.75,575.25)"
       xml:space="preserve"
       stroke-miterlimit="10.433"
       fill-rule="even-odd"
       font-style="normal"
       font-variant="normal"
       font-weight="normal"
       font-stretch="normal"
       font-size-adjust="none"
       letter-spacing="normal"
       word-spacing="normal"
       style="font-style:normal;font-variant:normal;font-weight:normal;font-stretch:normal;letter-spacing:normal;word-spacing:normal;text-anchor:start;fill:none;stroke:#000000;stroke-linecap:butt;stroke-linejoin:miter;stroke-miterlimit:10.43299961;stroke-opacity:1;stroke-dasharray:none;stroke-dashoffset:0"><path
         d="m 476.64,455.88 0,0.05 0,0.06 0,0.05 0,0.05 0,0.05 0,0.05 0,0.04 0,0.05 0,0.04 0,0.04 0,0.04 0,0.04 0,0.04 -0.01,0.04 0,0.03 0,0.04 -0.01,0.03 0,0.03 -0.01,0.06 -0.01,0.05 -0.02,0.05 -0.01,0.05 -0.02,0.04 -0.02,0.04 -0.03,0.04 -0.03,0.03 -0.03,0.02 -0.03,0.03 -0.04,0.02 -0.05,0.02 -0.02,0.01 -0.03,0.01 -0.02,0 -0.03,0.01 -0.03,0.01 -0.03,0 -0.03,0.01 -0.03,0 -0.03,0.01 -0.04,0 -0.04,0 -0.03,0 -0.04,0.01 -0.04,0 -0.04,0 -0.05,0 -0.04,0 -0.05,0 -0.05,0.01 -0.05,0 -0.05,0 -0.05,0 c -3.09,-3.19 -7.47,-3.19 -9.07,-3.19 v -1.55 c 1,0 3.94,0 6.53,1.3 v -25.81 c 0,-1.79 -0.15,-2.39 -4.63,-2.39 h -1.6 V 424 c 1.75,0.15 6.08,0.15 8.07,0.15 1.99,0 6.33,0 8.07,-0.15 v 1.54 h -1.59 c -4.49,0 -4.64,0.55 -4.64,2.39 z"
         id="path5280"
         style="fill:#000000;stroke-width:0" /><polyline
         points="462,402 486.96,402 486.96,404.04 462,404.04 "
         id="polyline5282"
         style="fill:#000000;fill-rule:nonzero;stroke-width:0" /><path
         d="m 484.37,364.67 h -1.25 c -0.25,-1.5 -0.6,-3.69 -1.1,-4.44 -0.34,-0.39 -3.63,-0.39 -4.73,-0.39 h -8.96 l 5.28,5.12 c 7.77,6.88 10.76,9.57 10.76,14.55 0,5.68 -4.49,9.67 -10.57,9.67 -5.62,0 -9.31,-4.59 -9.31,-9.02 0,-2.79 2.49,-2.79 2.64,-2.79 0.85,0 2.59,0.6 2.59,2.64 0,1.29 -0.9,2.59 -2.64,2.59 -0.4,0 -0.5,0 -0.65,-0.05 1.15,3.24 3.84,5.08 6.73,5.08 4.53,0 6.67,-4.03 6.67,-8.12 0,-3.98 -2.49,-7.92 -5.23,-11.01 l -9.56,-10.66 c -0.55,-0.54 -0.55,-0.64 -0.55,-1.84 h 18.48 z"
         id="path5284"
         style="fill:#000000;stroke-width:0" /></g>  </g>
  <g
     id="g5500"
     transform="matrix(0.45917527,0,0,0.45917527,-24.868142,272.48653)">
    <g
       word-spacing="normal"
       letter-spacing="normal"
       font-size-adjust="none"
       font-stretch="normal"
       font-weight="normal"
       font-variant="normal"
       font-style="normal"
       fill-rule="even-odd"
       stroke-miterlimit="10.433"
       xml:space="preserve"
       transform="matrix(0.82142857,0,0,-0.82142857,-143.75,575.25)"
       id="g5502"
       style="font-style:normal;font-variant:normal;font-weight:normal;font-stretch:normal;letter-spacing:normal;word-spacing:normal;text-anchor:start;fill:none;stroke:#000000;stroke-linecap:butt;stroke-linejoin:miter;stroke-miterlimit:10.43299961;stroke-opacity:1;stroke-dasharray:none;stroke-dashoffset:0"><path
         id="path5504"
         d="m 476.64,455.88 0,0.05 0,0.06 0,0.05 0,0.05 0,0.05 0,0.05 0,0.04 0,0.05 0,0.04 0,0.04 0,0.04 0,0.04 0,0.04 -0.01,0.04 0,0.03 0,0.04 -0.01,0.03 0,0.03 -0.01,0.06 -0.01,0.05 -0.02,0.05 -0.01,0.05 -0.02,0.04 -0.02,0.04 -0.03,0.04 -0.03,0.03 -0.03,0.02 -0.03,0.03 -0.04,0.02 -0.05,0.02 -0.02,0.01 -0.03,0.01 -0.02,0 -0.03,0.01 -0.03,0.01 -0.03,0 -0.03,0.01 -0.03,0 -0.03,0.01 -0.04,0 -0.04,0 -0.03,0 -0.04,0.01 -0.04,0 -0.04,0 -0.05,0 -0.04,0 -0.05,0 -0.05,0.01 -0.05,0 -0.05,0 -0.05,0 c -3.09,-3.19 -7.47,-3.19 -9.07,-3.19 v -1.55 c 1,0 3.94,0 6.53,1.3 v -25.81 c 0,-1.79 -0.15,-2.39 -4.63,-2.39 h -1.6 V 424 c 1.75,0.15 6.08,0.15 8.07,0.15 1.99,0 6.33,0 8.07,-0.15 v 1.54 h -1.59 c -4.49,0 -4.64,0.55 -4.64,2.39 z"
         style="fill:#000000;stroke-width:0" /><polyline
         id="polyline5506"
         points="462,402 486.96,402 486.96,404.04 462,404.04 "
         style="fill:#000000;fill-rule:nonzero;stroke-width:0" /><path
         id="path5508"
         d="m 476.45,373.54 0.37,0.13 0.38,0.14 0.36,0.16 0.36,0.17 0.35,0.18 0.34,0.19 0.33,0.2 0.32,0.21 0.31,0.22 0.3,0.23 0.3,0.24 0.28,0.25 0.27,0.26 0.26,0.27 0.25,0.27 0.23,0.29 0.23,0.29 0.21,0.3 0.2,0.3 0.19,0.31 0.17,0.32 0.16,0.33 0.15,0.33 0.13,0.33 0.12,0.34 0.1,0.35 0.09,0.35 0.08,0.35 0.05,0.36 0.04,0.36 0.03,0.36 0.01,0.37 c 0,4.09 -4.38,6.88 -9.17,6.88 -5.03,0 -8.81,-2.99 -8.81,-6.78 0,-1.64 1.09,-2.59 2.54,-2.59 1.54,0 2.54,1.1 2.54,2.54 0,2.49 -2.34,2.49 -3.09,2.49 1.54,2.44 4.83,3.09 6.62,3.09 2.05,0 4.79,-1.09 4.79,-5.58 0,-0.6 -0.1,-3.49 -1.4,-5.68 -1.49,-2.39 -3.19,-2.54 -4.43,-2.59 -0.4,-0.05 -1.6,-0.15 -1.94,-0.15 -0.4,-0.05 -0.75,-0.1 -0.75,-0.59 0,-0.55 0.35,-0.55 1.2,-0.55 h 2.19 c 4.08,0 5.92,-3.39 5.92,-8.27 0,-6.78 -3.43,-8.22 -5.63,-8.22 -2.14,0 -5.87,0.84 -7.62,3.79 1.75,-0.25 3.29,0.84 3.29,2.73 0,1.8 -1.34,2.79 -2.79,2.79 -1.19,0 -2.79,-0.69 -2.79,-2.88 0,-4.54 4.64,-7.83 10.07,-7.83 6.07,0 10.61,4.54 10.61,9.62 0,4.08 -3.15,7.97 -8.32,9.02 z"
         style="fill:#000000;stroke-width:0" /></g>  </g>
</svg>
