<?xml version="1.0" encoding="UTF-8" standalone="no"?>
<!-- Created with Inkscape (http://www.inkscape.org/) -->
<svg
   xmlns:dc="http://purl.org/dc/elements/1.1/"
   xmlns:cc="http://creativecommons.org/ns#"
   xmlns:rdf="http://www.w3.org/1999/02/22-rdf-syntax-ns#"
   xmlns:svg="http://www.w3.org/2000/svg"
   xmlns="http://www.w3.org/2000/svg"
   xmlns:sodipodi="http://sodipodi.sourceforge.net/DTD/sodipodi-0.dtd"
   xmlns:inkscape="http://www.inkscape.org/namespaces/inkscape"
   width="872.69904"
   height="654.83496"
   id="svg2"
   sodipodi:version="0.32"
   inkscape:version="0.46+devel"
   version="1.0"
   sodipodi:docname="c26d1.svg"
   inkscape:output_extension="org.inkscape.output.svg.inkscape">
  <defs
     id="defs4">
    <inkscape:perspective
       sodipodi:type="inkscape:persp3d"
       inkscape:vp_x="0 : 526.18109 : 1"
       inkscape:vp_y="0 : 1000 : 0"
       inkscape:vp_z="744.09448 : 526.18109 : 1"
       inkscape:persp3d-origin="372.04724 : 350.78739 : 1"
       id="perspective10" />
  </defs>
  <sodipodi:namedview
     id="base"
     pagecolor="#ffffff"
     bordercolor="#666666"
     borderopacity="1.0"
     inkscape:pageopacity="0.0"
     inkscape:pageshadow="2"
     inkscape:zoom="0.35"
     inkscape:cx="358.13444"
     inkscape:cy="324.03249"
     inkscape:document-units="px"
     inkscape:current-layer="layer1"
     showgrid="false"
     inkscape:window-width="1280"
     inkscape:window-height="712"
     inkscape:window-x="-5"
     inkscape:window-y="-3" />
  <metadata
     id="metadata7">
    <rdf:RDF>
      <cc:Work
         rdf:about="">
        <dc:format>image/svg+xml</dc:format>
        <dc:type
           rdf:resource="http://purl.org/dc/dcmitype/StillImage" />
        <dc:title></dc:title>
      </cc:Work>
    </rdf:RDF>
  </metadata>
  <g
     inkscape:label="Layer 1"
     inkscape:groupmode="layer"
     id="layer1"
     transform="translate(-16.86556,-201.55969)">
    <path
       style="fill:#000000;fill-opacity:1;fill-rule:nonzero;stroke:#000000;stroke-width:4.69999981;stroke-linecap:round;stroke-linejoin:round;stroke-miterlimit:4;stroke-opacity:1;stroke-dasharray:none;stroke-dashoffset:0"
       id="path2694"
       d="m 263.80894,303.57666 c -7.73419,10.08421 -17.40748,18.4233 -27.16411,26.47219 -15.93397,12.44072 -31.89129,24.84526 -47.89996,37.18894 -18.81588,14.71349 -37.97309,28.97749 -57.39885,42.8733 -16.10052,11.80622 -33.312016,21.91548 -50.370937,32.2337 -14.219198,9.07256 -29.270948,16.66569 -44.336255,24.18487 -3.66752,1.47307 -7.037548,3.53484 -10.516213,5.38479 -0.803825,0.42748 -3.208485,1.72225 -2.41419,1.27731 8.636371,-4.83776 10.070657,-6.16265 6.498813,-3.21028 -2.50325,3.5889 1.430966,6.30312 4.118216,8.14492 7.562721,4.72659 16.034216,7.89696 24.144329,11.58581 13.093235,5.8818 26.331403,11.41563 40.003133,15.80207 15.599584,4.78741 31.372344,9.00942 47.224234,12.87548 13.35076,2.87537 26.11843,7.59256 38.35145,13.59546 8.96362,4.03832 17.55744,8.78869 26.91117,11.88725 5.56467,1.05193 10.93052,2.86207 16.42479,4.19925 3.57271,0.88577 7.27583,0.91065 10.93443,0.97568 -0.62406,1.34568 5.23224,-1.12673 4.0877,-0.47637 -3.00458,1.68489 -6.00916,3.36977 -9.01374,5.05466 0.49555,-0.22751 0.28676,-0.0416 0.54852,-0.63446 12.06068,-5.6664 9.67823,-6.6997 12.96541,1.65741 2.41446,7.22039 5.10749,14.34291 7.53373,21.55763 3.87289,12.67935 8.50332,25.10398 13.0008,37.56952 6.13702,15.91636 10.91015,32.25608 15.51598,48.66204 4.66764,17.27907 10.48992,34.21482 15.37198,51.42784 4.52912,16.40312 8.77674,32.88523 12.8115,49.41674 3.79491,14.90134 6.429,30.08702 8.62454,45.29898 1.52792,10.61785 2.49871,21.39207 4.72428,31.89648 0.47608,1.53412 1.5848,9.28754 4.60893,6.52606 -2.90279,1.47529 -5.61553,3.40752 -8.70836,4.42587 -0.73034,0.24047 0.86406,-1.27643 1.21734,-1.95938 0.45315,-0.876 0.82076,-1.7942 1.19615,-2.70623 1.81687,-4.41428 3.33898,-8.95593 4.92307,-13.4559 5.32817,-16.85948 11.26467,-33.47767 17.46922,-50.03188 8.55065,-23.42102 19.26067,-45.90434 30.39071,-68.18093 11.28534,-21.24025 24.13382,-41.5804 36.56412,-62.15372 6.51476,-11.28072 13.38387,-22.34493 20.56769,-33.2075 2.85487,-3.77661 3.91856,-8.20661 5.31529,-12.58612 2.32211,-7.17848 6.27271,-7.29466 13.98926,-11.64802 4.02599,-0.86412 8.19764,-0.74874 12.29534,-0.78073 6.82978,-0.005 13.65959,0.0261 20.48936,0.0441 9.92117,0.0225 19.84238,0.033 29.76358,0.0395 13.02041,0.44294 25.98137,-0.46322 38.9631,-1.29357 16.90777,-0.50705 33.72405,-2.14957 50.52723,-3.99807 18.34432,-2.02613 36.44688,-5.58289 54.66372,-8.44866 15.31798,-2.50514 30.66283,-4.90968 46.04512,-6.99531 10.42559,-1.90712 20.88216,-3.55989 31.44226,-4.48881 4.00461,-0.14745 7.92957,-0.38379 11.80157,-1.46605 0.57858,-0.16172 2.23105,-0.85454 1.7197,-0.53923 -2.76485,1.70488 -5.67919,3.15448 -8.51879,4.73172 2.81846,-2.43424 1.42315,-6.02472 0.46179,-9.09615 -3.17511,-7.16672 -7.59609,-13.58953 -12.92626,-19.29832 -8.651,-10.08807 -19.31989,-18.04242 -29.66461,-26.27125 -15.19243,-12.06373 -31.63178,-22.42813 -48.06403,-32.69247 -18.44064,-11.13084 -38.14892,-19.81566 -57.79748,-28.53531 -17.61883,-7.96183 -34.9606,-16.5129 -52.57452,-24.48454 -14.56644,-5.92671 -28.80828,-12.64219 -43.39541,-18.50921 -10.2819,-3.96395 -20.70204,-7.52668 -30.75796,-12.05413 -6.25394,-3.00251 -12.69181,-5.56821 -19.0144,-8.41637 -4.14242,-1.70761 -8.09045,-3.8531 -12.0395,-5.96715 -3.01286,-1.87701 -6.19768,-3.43919 -9.26354,-5.21883 -2.20846,-1.39453 -4.59915,-1.99846 -4.40622,-4.90315 0.48061,-2.19104 0.68705,-4.42912 0.92994,-6.65479 0,0 10.10827,-5.01767 10.10827,-5.01767 l 0,0 c -0.22519,2.22324 -0.34329,4.47755 -0.82681,6.66387 -0.10576,0.38334 -0.58222,0.82479 -0.34316,1.14257 0.90959,1.20913 2.99679,1.53324 4.04051,2.58489 3.10556,1.70141 6.18296,3.41826 9.23687,5.21024 3.90955,2.12366 7.86963,4.18275 11.96348,5.9227 6.29797,2.85962 12.71234,5.44662 18.94099,8.46182 10.02938,4.49746 20.39827,8.09553 30.63085,12.08941 14.5459,5.94968 28.79019,12.6309 43.32785,18.60822 17.58171,8.00554 34.90252,16.56692 52.51029,24.51727 19.66953,8.77139 39.40083,17.50308 57.86512,28.67231 16.48738,10.28383 32.98583,20.65913 48.25457,32.71736 10.41833,8.24487 21.15108,16.22228 29.87954,26.33329 5.43579,5.83412 9.9781,12.37195 13.29337,19.65418 1.15168,3.45574 2.50481,7.2143 0.21572,10.4429 -12.21751,6.95635 -11.98981,7.54932 -24.60045,8.04316 -10.50888,0.94851 -20.90981,2.63239 -31.30068,4.44788 -15.34594,2.09492 -30.66361,4.43688 -45.94563,6.94968 -18.21918,2.87255 -36.33376,6.39034 -54.68348,8.39959 -16.83598,1.85134 -33.68853,3.43946 -50.62508,4.00922 -13.02031,0.85636 -26.02427,1.69456 -39.08367,1.29256 -9.94322,0.004 -19.88643,0.0112 -29.82965,0.006 -6.84772,-0.004 -13.69556,-0.0298 -20.5432,0.0126 -4.01579,0.0572 -8.21994,-0.13396 -12.05828,1.2067 2.87062,-1.69238 5.7653,-3.34458 8.61185,-5.07713 0.35413,-0.21554 -0.78499,0.29055 -1.12862,0.52247 -1.3201,0.89093 -1.61588,3.01953 -2.30021,4.33085 -1.74465,4.29506 -2.19888,9.12999 -5.32005,12.8852 -7.26035,10.90621 -14.35779,21.92065 -20.87947,33.29518 -12.49734,20.56406 -25.39398,40.90368 -36.74592,62.13888 -11.11571,22.22001 -21.81963,44.64116 -30.31878,68.0218 -6.14455,16.50677 -12.08001,33.05578 -17.24588,49.89976 -0.80184,2.33726 -5.18079,16.91146 -7.00614,18.32877 -3.36948,2.61626 -7.09337,4.74101 -10.64005,7.11152 -4.23954,0.31943 -4.70107,-5.20133 -5.56468,-8.24917 -2.21547,-10.54692 -3.06498,-21.38735 -4.60438,-32.04399 -2.13648,-15.19069 -4.7575,-30.3516 -8.53366,-45.22681 -3.9881,-16.5327 -8.24393,-33.00392 -12.75069,-49.40268 -4.85872,-17.21991 -10.70723,-34.14815 -15.37849,-51.42653 -4.60426,-16.37525 -9.35069,-32.69197 -15.53044,-48.56156 -4.5319,-12.45285 -9.18903,-24.86633 -13.14007,-37.52061 -2.43323,-7.18235 -5.17638,-14.25621 -7.62097,-21.43618 -3.36612,-8.19112 -5.28147,-5.73841 6.98178,-12.61735 0.24582,-0.13788 0.22027,0.51888 0.3304,0.77832 -0.23095,0.34598 0.0141,0.97766 -0.33636,1.20174 -7.37596,4.7161 -8.40522,6.45886 -14.86991,6.1591 -3.71544,-0.0949 -7.4682,-0.19632 -11.07529,-1.18974 -5.46866,-1.43608 -10.87027,-3.10057 -16.39097,-4.33074 -9.3189,-3.23906 -17.94329,-7.98613 -26.90855,-12.06103 -12.16664,-5.94324 -24.86761,-10.58933 -38.1291,-13.45886 -15.85962,-3.91349 -31.65298,-8.12304 -47.262531,-12.94461 -13.712276,-4.44689 -27.021393,-9.9577 -40.181161,-15.83319 -8.200969,-3.69426 -16.770089,-6.85077 -24.380678,-11.67735 -3.402245,-2.40669 -6.909045,-5.38291 -5.10596,-9.93988 7.089061,-6.57222 17.183521,-10.1221 25.649919,-14.69006 12.676316,-6.27191 19.588208,-9.5208 25.382104,-13.26131 17.081734,-10.365 34.405477,-20.37812 50.543777,-32.21271 19.43518,-13.86718 38.60157,-28.10445 57.39739,-42.82951 15.95074,-12.328 31.86306,-24.69905 47.76028,-37.09684 9.68406,-7.93336 19.26059,-16.15857 27.01802,-26.05436 0,0 10.35199,-4.52935 10.35199,-4.52935 z" />
    <path
       style="fill:#000000;fill-opacity:1;fill-rule:nonzero;stroke:#000000;stroke-width:4.69999981;stroke-linecap:round;stroke-linejoin:round;stroke-miterlimit:4;stroke-opacity:1;stroke-dasharray:none;stroke-dashoffset:0"
       id="path2696"
       d="m 436.46422,372.18874 c -0.0882,9.31338 -0.0549,18.62749 -0.0563,27.94119 -0.004,11.40694 -0.0321,22.81385 -0.0386,34.22079 -0.0251,13.92171 -1.39517,27.80132 -2.07486,41.7033 -0.58662,12.89265 -0.69804,25.79927 -0.76241,38.70295 -0.019,9.64196 -0.004,19.28395 0.0216,28.92589 0.021,6.63477 0.0332,13.26957 0.0393,19.90437 0.001,5.14891 0.0164,10.29777 0.0138,15.44668 0.001,4.0959 0.004,8.19185 0.0183,12.28773 -0.26249,2.64758 0.39527,5.43228 -0.12975,8.04674 -3.81607,1.55494 -7.51064,3.44997 -11.4482,4.66481 -0.60268,0.18594 -8.89316,-3.60624 -9.80253,-4.0332 -6.13493,-2.97933 -12.52698,-5.32605 -18.86449,-7.82952 -8.78301,-3.14268 -17.75598,-5.69165 -26.62288,-8.56957 -9.90737,-3.26418 -20.08086,-5.48383 -30.25491,-7.72443 -9.85516,-1.66352 -19.77327,-2.98037 -29.68284,-4.31078 -8.92201,-1.41192 -17.6903,-3.54739 -26.5434,-5.2949 -6.99093,-1.33087 -14.09458,-1.77163 -21.19349,-1.98202 -5.28176,-0.11054 -10.56515,-0.0886 -15.84761,-0.0558 -2.7122,0.0278 -5.42507,-8e-4 -8.13698,0.0517 -0.0567,-0.54198 -0.6089,-1.30303 -0.16995,-1.62596 6.32897,-4.65611 20.09964,-10.59627 1.96349,-1.23918 -0.37744,0.19473 0.65667,-0.54278 0.94529,-0.85436 0.92738,-1.00114 0.89186,-1.1953 1.49069,-2.46774 2.46734,-5.26632 3.27399,-11.09132 4.4978,-16.73149 1.91318,-8.79482 3.61492,-17.56923 4.52373,-26.53149 0.94505,-11.33974 2.35426,-22.61952 3.06958,-33.98171 0.74006,-14.47714 0.76254,-28.97826 0.82325,-43.47042 -0.4427,-14.27009 0.77718,-28.48632 1.68112,-42.7112 0.35293,-12.03339 1.24061,-24.00351 2.35419,-35.9859 0.99247,-10.31254 1.59867,-20.61247 0.72383,-30.9437 -0.79576,-6.93297 -1.46677,-13.87373 -1.8054,-20.84447 0.19103,-5.2439 -0.46685,-10.29145 -1.48949,-15.40727 -0.67591,-3.13842 -1.12944,-6.32039 -1.51711,-9.50575 0.79653,-15.66235 13.5158,-3.2515 16.56922,-0.97419 4.29466,3.30551 8.43538,6.75357 13.05227,9.6137 6.68463,3.48838 13.40614,7.01123 20.53799,9.49975 8.18695,2.88702 16.47572,5.47727 24.7248,8.18852 7.78167,2.69111 15.56681,5.39726 23.04299,8.8636 6.88148,2.9938 13.4436,6.74171 19.68282,10.90374 4.92701,3.1288 9.21701,7.03896 13.7251,10.69878 3.54471,3.05648 6.77698,6.44795 10.26939,9.5563 2.78034,2.9211 5.78135,5.59553 8.37571,8.69324 2.36969,2.9598 4.90327,5.77805 7.50599,8.53293 2.49907,2.62094 5.05312,5.18875 7.62959,7.73341 0.6307,0.19441 2.48719,1.78282 3.24633,1.41746 0.18297,-0.0881 0.40359,-0.65589 0.22063,-0.56781 -3.12547,1.50463 -6.12568,3.25669 -9.18852,4.88504 0.0993,-0.32016 0.19857,-0.64032 0.29786,-0.96048 0,0 10.25911,-4.90786 10.25911,-4.90786 l 0,0 c -0.0771,0.36993 -0.15426,0.73987 -0.23138,1.1098 -7.77262,5.39013 -8.34185,9.33949 -14.29242,4.95965 -2.5458,-2.58741 -5.1102,-5.15666 -7.62009,-7.77912 -2.60364,-2.78432 -5.15878,-5.61141 -7.54454,-8.58696 -2.55047,-3.05985 -5.5341,-5.68643 -8.27691,-8.56597 -3.44077,-3.13726 -6.69608,-6.47151 -10.21477,-9.52735 -4.44692,-3.67163 -8.7658,-7.48017 -13.6253,-10.62749 -6.22025,-4.0939 -12.72755,-7.80871 -19.56588,-10.77191 -7.47035,-3.38727 -15.21323,-6.10914 -22.96904,-8.76386 -8.24563,-2.74267 -16.55551,-5.29093 -24.73982,-8.20855 -7.17262,-2.5975 -13.999,-6.09129 -20.72484,-9.67065 -4.60648,-2.92308 -8.80276,-6.3562 -13.12652,-9.66932 -8.32854,-6.1144 -7.10268,-2.71321 3.61285,-10.03411 0.17382,-0.11876 -0.36305,-0.2132 -0.54458,-0.3198 0.30865,3.17239 0.73708,6.33694 1.39383,9.45738 1.03801,5.17643 1.80329,10.25786 1.54334,15.57179 0.30776,6.96917 0.93366,13.91167 1.7138,20.84371 0.88035,10.40238 0.3388,20.76495 -0.69181,31.14918 -1.11406,11.98045 -2.06942,23.94295 -2.40603,35.97638 -0.92314,14.21342 -2.20001,28.41671 -1.76384,42.67785 -0.0404,14.4985 -0.0621,29.00487 -0.72228,43.49124 -0.6829,11.3675 -2.05653,22.65074 -2.99994,33.9923 -0.85478,8.99323 -2.48758,17.79706 -4.40392,26.61527 -1.21102,5.66301 -1.9406,11.54215 -4.31548,16.85989 -2.17163,6.27666 -6.35389,5.65654 -12.90619,10.3373 -2.77271,1.98074 6.17026,-3.02178 8.82814,-5.15413 0.40236,-0.3228 -0.81658,-0.63053 -1.22488,-0.94579 2.69019,0.0295 5.38062,-0.005 8.07089,-0.002 5.27529,-9.3e-4 10.55164,-0.0177 15.82556,0.12215 7.12372,0.25818 14.24664,0.77812 21.25252,2.167 8.82018,1.7911 17.57598,3.87796 26.4795,5.25444 9.91922,1.3679 19.86545,2.61751 29.71626,4.40061 10.19611,2.27868 20.401,4.50415 30.33112,7.79905 8.90294,2.85453 17.89379,5.43891 26.69782,8.60198 6.37888,2.48013 12.7825,4.883 18.96054,7.84135 2.7311,1.21989 5.51845,2.23479 8.2991,3.32601 0.52287,0.20519 1.95181,0.28548 1.54496,0.67273 -2.51659,2.39529 -5.69057,3.98748 -8.53585,5.98122 0.17787,0.0169 0.42516,0.19262 0.53362,0.0506 0.71861,-0.94086 -0.43979,-5.97644 0.0202,-7.32079 0.014,-4.10214 0.0173,-8.20434 0.0185,-12.3065 -0.003,-5.15316 0.0124,-10.30627 0.0118,-15.45944 0.003,-6.64411 0.008,-13.28821 0.017,-19.93232 0.01,-9.65776 -0.001,-19.3156 0.0557,-28.97324 0.0795,-12.92799 0.21568,-25.85921 0.80064,-38.77598 0.6763,-13.88035 2.01213,-27.74 2.06616,-41.63837 -0.007,-11.39382 -0.0349,-22.7876 -0.0386,-34.18142 -10e-4,-9.29458 0.0321,-18.58957 -0.0563,-27.88383 0,0 10.0713,-5.13158 10.0713,-5.13158 z" />
    <path
       style="fill:#000000;fill-opacity:1;fill-rule:nonzero;stroke:#000000;stroke-width:4.69999981;stroke-linecap:round;stroke-linejoin:round;stroke-miterlimit:4;stroke-opacity:1;stroke-dasharray:none;stroke-dashoffset:0"
       id="path2698"
       d="m 274.5103,283.04362 c 2.86142,6.91914 6.87678,13.2524 10.70709,19.65496 4.40509,6.98638 9.25745,13.67072 13.67546,20.65028 5.97737,9.01595 11.30762,18.43395 16.80044,27.74708 5.48675,9.73941 11.60999,19.11515 16.85177,28.98941 4.78477,8.76504 9.23788,17.68508 13.68044,26.62604 4.25789,7.85235 8.21249,15.86147 12.45884,23.71994 4.02513,7.09516 7.34532,14.55158 11.04394,21.81296 3.44179,6.58852 6.49763,13.36651 9.83384,20.00166 2.84778,6.58819 5.83267,13.11274 8.69228,19.69603 2.81789,7.40547 6.46248,14.45507 9.45494,21.78519 3.38964,7.34615 6.79441,14.68917 10.19388,22.03379 2.61321,6.32178 5.13086,12.6798 7.76304,18.99572 2.89364,5.47262 4.64069,11.40256 6.55258,17.25926 2.21045,5.04096 3.52314,10.39251 5.73613,15.4259 0.64905,2.23126 2.08673,4.37629 2.28424,6.72406 0,0 -10.30716,4.88776 -10.30716,4.88776 l 0,0 c 0.72671,-0.23508 -1.66556,-5.39964 -1.83678,-6.06596 -2.20024,-5.08275 -3.51446,-10.46695 -5.75341,-15.54107 -1.89372,-5.83182 -3.61685,-11.74114 -6.50048,-17.18635 -2.61371,-6.30973 -5.14095,-12.64904 -7.70621,-18.97673 -3.40396,-7.36158 -6.80816,-14.72363 -10.21101,-22.08316 -2.98696,-7.32261 -6.64529,-14.35441 -9.46085,-21.75051 -2.8785,-6.55329 -5.82007,-13.07474 -8.67268,-19.63893 -3.3189,-6.64229 -6.3863,-13.41101 -9.80285,-20.01009 -3.7046,-7.24916 -7.00349,-14.70724 -11.03194,-21.7907 -4.23512,-7.87847 -8.18555,-15.90431 -12.44012,-23.7726 -4.4493,-8.92719 -8.87147,-17.8528 -13.64426,-26.61413 -5.21548,-9.86911 -11.33747,-19.22646 -16.8153,-28.95125 -5.49115,-9.30011 -10.82413,-18.7025 -16.81522,-27.69537 -4.4552,-6.96934 -9.34955,-13.64015 -13.74551,-20.64649 -3.83126,-6.43546 -7.82645,-12.79837 -10.8123,-19.69127 0,0 9.82717,-5.59543 9.82717,-5.59543 z" />
    <path
       style="fill:#000000;fill-opacity:1;fill-rule:nonzero;stroke:#000000;stroke-width:4.69999981;stroke-linecap:round;stroke-linejoin:round;stroke-miterlimit:4;stroke-opacity:1;stroke-dasharray:none;stroke-dashoffset:0"
       id="path2702"
       d="m 258.16093,264.15489 c 6.83724,1.86692 13.42491,0.82794 20.15648,-0.71431 8.18456,-2.87353 15.74441,-7.20148 23.72085,-10.62769 11.74392,-5.16661 23.54724,-10.18894 35.48846,-14.88276 15.79581,-6.60789 32.08684,-11.74711 48.62175,-16.11117 20.49805,-5.4728 41.19211,-10.04816 62.10493,-13.60501 23.0106,-3.47191 46.31024,-4.52139 69.55413,-4.26836 24.43667,-0.12277 48.50408,3.43946 72.19022,9.15145 22.50553,5.10584 43.57202,14.51532 64.21611,24.57682 21.86951,10.27009 41.17041,24.73932 59.92114,39.77438 19.33618,15.81511 37.1885,33.28022 54.51364,51.23921 17.30592,18.36324 32.89742,38.22861 48.46321,58.05752 14.41889,18.40572 27.71735,37.69655 40.15208,57.49091 10.07084,15.20169 19.21285,30.89802 25.24525,48.13823 4.61892,15.54257 5.40326,31.71554 4.20465,47.78201 -1.09296,16.28474 -5.43238,31.99091 -10.24517,47.49648 -5.20986,16.36748 -12.86182,31.85965 -21.86192,46.44803 -10.18886,16.38995 -22.90393,30.85665 -36.41932,44.53723 -8.54008,8.4498 -17.25491,16.85313 -27.20055,23.66214 -6.75026,4.62139 -17.93742,10.68701 -23.88121,14.08296 -13.99145,7.99569 -29.54046,11.00616 -45.34843,12.66457 -14.5288,1.12608 -29.11425,1.03891 -43.67585,1.00837 -12.94526,0.28337 -25.80903,-1.36596 -38.47219,-3.91382 -12.2773,-2.34812 -24.24478,-6.02706 -36.34993,-9.10273 -11.80726,-3.15766 -23.43046,-6.92424 -35.0343,-10.74848 -9.65637,-3.28168 -18.93665,-7.61128 -28.02653,-12.21414 -7.44081,-4.14002 -14.46272,-9.04305 -21.3122,-14.09589 -6.23413,-4.75221 -11.88,-10.20472 -17.48881,-15.66333 -4.49839,-5.41333 -9.31577,-10.52253 -13.98474,-15.78421 -4.21025,-4.57156 -7.64366,-9.78732 -11.08976,-14.93993 -2.61797,-3.6756 -5.80817,-6.84494 -8.76757,-10.22587 -3.39345,-3.14264 -6.65987,-6.3857 -10.14592,-9.43411 -3.19608,-2.77861 -6.07273,-5.87331 -9.68678,-8.11186 -2.77052,-1.93284 -5.65943,-3.7235 -8.25283,-5.8832 -2.81249,-2.41081 -5.0609,-5.33456 -7.32656,-8.23963 0,0 9.67754,-5.76826 9.67754,-5.76826 l 0,0 c 2.21947,2.84207 4.45758,5.67298 7.25021,7.98729 2.6164,2.07041 5.42954,3.89403 8.1892,5.77063 3.58672,2.35885 6.51535,5.47372 9.75048,8.27658 3.50084,3.09758 6.83585,6.34601 10.23418,9.5495 3.00931,3.40143 6.18395,6.64965 8.81361,10.37389 3.40463,5.11861 6.79761,10.29918 10.99144,14.81798 4.64901,5.23881 9.40593,10.36494 13.90608,15.73515 5.57986,5.419 11.20048,10.82831 17.41283,15.52981 6.80936,5.00137 13.74956,9.9138 21.17269,13.96292 9.05426,4.55197 18.27088,8.88305 27.89193,12.10654 11.56514,3.85527 23.18313,7.55399 34.9637,10.70274 12.08394,3.10669 24.05792,6.71529 36.32612,9.04579 12.6203,2.46855 25.41939,4.07149 38.30763,3.76678 14.53049,0.0194 29.08801,0.12373 43.58077,-1.08787 15.74058,-1.73822 31.16606,-4.9436 45.04654,-12.99383 -0.7214,0.46032 -2.89457,1.82692 -2.1642,1.38097 10.20301,-6.22971 19.2479,-13.34297 27.94773,-21.54636 2.25273,-2.12418 4.43386,-4.32302 6.6508,-6.48452 13.5316,-13.60194 26.29537,-27.96598 36.49468,-44.30112 9.04333,-14.47834 16.67412,-29.90139 21.93455,-46.17485 4.81483,-15.43708 9.22348,-31.05815 10.35935,-47.27689 1.25804,-15.92254 0.49736,-31.9481 -4.00905,-47.37436 -5.91995,-17.19472 -15.03131,-32.82509 -24.99611,-47.99573 -12.37141,-19.7871 -25.63167,-39.05521 -40.00955,-57.44244 -15.53735,-19.80661 -31.13418,-39.61834 -48.41063,-57.9606 -17.30241,-17.91893 -35.13826,-35.34065 -54.44605,-51.11894 -18.72077,-14.96894 -38.00779,-29.33308 -59.82939,-39.54768 -20.60306,-9.99883 -41.63225,-19.31442 -64.07692,-24.38799 -23.63856,-5.66735 -47.6673,-9.11463 -72.04247,-8.95601 -23.21949,-0.18309 -46.49262,0.89556 -69.46757,4.44559 -20.91869,3.61783 -41.62155,8.23248 -62.12621,13.74354 -16.53965,4.41091 -32.81016,9.66807 -48.62082,16.27288 -11.95836,4.74355 -23.78349,9.80268 -35.55863,14.98333 -7.99235,3.47865 -15.56683,7.96819 -23.91811,10.51705 -6.87018,1.52911 -13.66278,2.1939 -20.57223,0.25775 0,0 9.36355,-6.35307 9.36355,-6.35307 z" />
  </g>
</svg>
