<?xml version="1.0" encoding="UTF-8" standalone="no"?>
<!-- Created with Inkscape (http://www.inkscape.org/) -->
<svg
   xmlns:dc="http://purl.org/dc/elements/1.1/"
   xmlns:cc="http://creativecommons.org/ns#"
   xmlns:rdf="http://www.w3.org/1999/02/22-rdf-syntax-ns#"
   xmlns:svg="http://www.w3.org/2000/svg"
   xmlns="http://www.w3.org/2000/svg"
   xmlns:sodipodi="http://sodipodi.sourceforge.net/DTD/sodipodi-0.dtd"
   xmlns:inkscape="http://www.inkscape.org/namespaces/inkscape"
   width="837.11285"
   height="762.73993"
   id="svg2"
   sodipodi:version="0.32"
   inkscape:version="0.46+devel"
   version="1.0"
   sodipodi:docname="tmp1d2.svg"
   inkscape:output_extension="org.inkscape.output.svg.inkscape">
  <defs
     id="defs4">
    <inkscape:perspective
       sodipodi:type="inkscape:persp3d"
       inkscape:vp_x="0 : 526.18109 : 1"
       inkscape:vp_y="0 : 1000 : 0"
       inkscape:vp_z="744.09448 : 526.18109 : 1"
       inkscape:persp3d-origin="372.04724 : 350.78739 : 1"
       id="perspective10" />
  </defs>
  <sodipodi:namedview
     id="base"
     pagecolor="#ffffff"
     bordercolor="#666666"
     borderopacity="1.0"
     inkscape:pageopacity="0.0"
     inkscape:pageshadow="2"
     inkscape:zoom="0.35"
     inkscape:cx="-215.51187"
     inkscape:cy="192.26629"
     inkscape:document-units="px"
     inkscape:current-layer="layer1"
     showgrid="false"
     inkscape:window-width="1280"
     inkscape:window-height="712"
     inkscape:window-x="-5"
     inkscape:window-y="-3" />
  <metadata
     id="metadata7">
    <rdf:RDF>
      <cc:Work
         rdf:about="">
        <dc:format>image/svg+xml</dc:format>
        <dc:type
           rdf:resource="http://purl.org/dc/dcmitype/StillImage" />
        <dc:title></dc:title>
      </cc:Work>
    </rdf:RDF>
  </metadata>
  <g
     inkscape:label="Layer 1"
     inkscape:groupmode="layer"
     id="layer1"
     transform="translate(-16.22616,38.111481)">
    <path
       style="fill:#000000;fill-opacity:1;stroke:#000000;stroke-width:4.69999981;stroke-linecap:round;stroke-linejoin:round;stroke-miterlimit:4;stroke-opacity:1;stroke-dasharray:none;stroke-dashoffset:0"
       id="path2694"
       d="m 183.77004,1.7467883 c -0.41426,11.6029987 0.85123,23.1585067 1.64535,34.7181937 0.40762,12.500136 1.90545,24.916337 2.81179,37.3828 0.88821,14.793545 2.41306,29.542958 4.00263,44.275678 2.33615,17.44727 4.51121,34.92198 6.29786,52.43502 2.49118,18.78525 3.82073,37.67076 4.54423,56.59688 0.18955,20.75418 0.95527,41.47539 1.8831,62.20732 1.01814,22.81714 2.65709,45.59219 3.49059,68.42036 0.79219,25.55815 2.19163,51.08858 2.93102,76.65075 0.64401,26.32114 0.72967,52.65138 0.79462,78.97896 -0.40986,24.61744 0.8603,49.20379 1.73216,73.7961 0.78295,22.99767 0.98612,46.0091 1.11018,69.01803 -0.0967,17.79198 0.62728,35.65308 3.803,53.18455 1.89057,6.32782 0.85209,3.41761 3.00619,8.76886 0,0 -7.3437,4.09818 -7.3437,4.09818 l 0,0 c -2.14268,-5.47978 -1.10851,-2.50332 -2.99583,-8.96574 -3.10178,-17.6098 -3.8358,-35.5314 -3.71414,-53.38998 -0.10931,-23.00786 -0.28687,-46.0182 -1.06224,-69.01517 -0.85751,-24.6053 -2.15087,-49.2041 -1.71658,-73.83398 -0.0497,-26.32362 -0.11858,-52.65022 -0.77051,-78.96727 -0.72981,-25.55347 -2.16731,-51.07221 -2.97557,-76.62076 -0.83662,-22.8205 -2.49202,-45.58693 -3.52342,-68.39572 -0.94098,-20.72673 -1.74499,-41.44138 -1.92601,-62.19139 -0.72747,-18.9058 -2.02599,-37.77607 -4.54491,-56.53841 -1.77258,-17.50838 -3.96674,-34.97529 -6.3281,-52.41299 -1.6046,-14.73229 -3.17659,-29.479549 -4.06839,-44.274104 -0.91611,-12.465532 -2.4416,-24.878343 -2.8267,-37.379489 -0.78605,-11.558768 -2.04378,-23.104205 -1.7967,-34.7048169 0,0 7.54008,-3.8418618 7.54008,-3.8418618 z" />
    <path
       style="fill:#000000;fill-opacity:1;stroke:#000000;stroke-width:4.69999981;stroke-linecap:round;stroke-linejoin:round;stroke-miterlimit:4;stroke-opacity:1;stroke-dasharray:none;stroke-dashoffset:0"
       id="path2696"
       d="m 25.525002,484.55198 c 10.272993,1.46415 20.653877,2.10894 31.022252,1.83722 16.119433,-1.18887 32.169333,-3.00394 48.320426,-3.89775 21.87888,-1.0545 43.73037,-2.45388 65.62651,-3.17062 25.74879,-1.54002 51.51646,-2.55317 77.30398,-3.10752 28.98097,-0.61924 57.95053,-0.59167 86.92168,0.31685 30.96238,1.79872 61.93801,3.31226 92.90379,5.04556 31.04661,1.55922 62.07316,3.50403 93.09562,5.48419 29.47672,2.3529 58.94757,4.76527 88.41539,7.22545 27.75458,2.51211 55.60502,3.45316 83.45629,3.98401 25.51901,0.0731 51.03468,0.77814 76.50207,2.41755 20.02262,1.03069 39.84926,4.03966 59.71063,6.59599 7.37448,0.94077 14.77655,1.63313 22.18535,2.23303 0,0 -6.85615,4.892 -6.85615,4.892 l 0,0 c -7.36437,-0.67032 -14.72369,-1.40682 -22.05659,-2.36923 -19.80593,-2.61185 -39.58717,-5.59112 -59.56065,-6.63696 -25.44473,-1.61876 -50.93442,-2.3471 -76.42993,-2.42538 -27.85242,-0.55577 -55.70276,-1.51156 -83.4572,-4.04619 -29.45681,-2.45233 -58.9131,-4.89877 -88.3797,-7.23202 -31.01606,-1.98604 -62.03702,-3.92864 -93.07745,-5.48948 -30.97065,-1.73589 -61.95171,-3.24528 -92.92097,-5.00862 -28.97763,-0.88256 -57.95467,-0.90314 -86.94071,-0.2508 -25.80423,0.57639 -51.58758,1.62038 -77.35363,3.15513 -21.91669,0.74019 -43.78893,2.16378 -65.688561,3.23979 -16.188173,0.94076 -32.273905,2.83056 -48.439205,3.95028 -10.446659,0.2065 -20.897165,-0.4341 -31.252084,-1.86712 0,0 6.948842,-4.87536 6.948842,-4.87536 z" />
    <path
       style="fill:#000000;fill-opacity:1;stroke:#000000;stroke-width:4.69999981;stroke-linecap:round;stroke-linejoin:round;stroke-miterlimit:4;stroke-opacity:1;stroke-dasharray:none;stroke-dashoffset:0"
       id="path2698"
       d="m 202.5576,489.25797 c 3.63631,-10.15384 8.75256,-19.68703 13.83533,-29.17001 7.40885,-13.67272 16.35492,-26.34449 25.22432,-39.08113 9.98619,-14.55216 20.44274,-28.77501 30.96621,-42.94114 12.07027,-15.75775 24.91285,-30.91366 37.73178,-46.06431 14.18381,-17.39142 29.27133,-34.00918 44.20257,-50.75406 16.6336,-18.34087 33.73136,-36.26441 50.97326,-54.03295 19.48445,-20.25951 38.76124,-40.71915 58.30072,-60.92457 20.6952,-21.45821 41.56103,-42.72593 62.81901,-63.62808 22.21976,-22.159668 44.88576,-43.852296 67.61257,-65.488361 21.74761,-20.776801 43.97037,-41.0309773 66.16322,-61.32852 3.09729,-2.850351 6.19457,-5.700702 9.29185,-8.551054 0,0 7.46558,-3.055266 7.46558,-3.055266 l 0,0 c -3.12038,2.860428 -6.24077,5.720856 -9.36115,8.581285 -22.20455,20.3040189 -44.45203,40.550348 -66.21316,61.331699 -22.71944,21.633005 -45.39845,43.301222 -67.59977,65.46922 -21.24812,20.893407 -42.11961,42.136107 -62.79395,63.596227 -19.54325,20.1819 -38.79075,40.65054 -58.257,60.90781 -17.23363,17.74048 -34.28493,35.6729 -50.92264,53.97468 -14.92509,16.73307 -30.01212,33.33511 -44.1811,50.72206 -12.80494,15.12999 -25.60988,30.28339 -37.69955,45.99406 -10.50995,14.15571 -20.96876,28.3569 -30.93755,42.90123 -8.84651,12.71291 -17.81059,25.33111 -25.21262,38.97084 -5.04267,9.41354 -10.15004,18.87316 -13.7275,28.96332 0,0 -7.68043,3.60702 -7.68043,3.60702 z" />
    <path
       style="fill:#d40000;fill-opacity:1;stroke:#ff0000;stroke-width:4.69999981;stroke-linecap:round;stroke-linejoin:round;stroke-miterlimit:4;stroke-opacity:1;stroke-dasharray:none;stroke-dashoffset:0"
       id="path3476"
       d="m 311.42215,481.24241 c 2.40431,-3.16168 9.92592,-13.81347 14.07715,-9.84905 1.55016,2.64993 -0.60862,5.5252 -2.0613,7.73007 -7.04837,7.37057 -10.92038,5.51014 -9.39099,-1.26452 2.48151,-6.36156 6.79427,-7.59013 13.0094,-10.35236 0.11964,3.55921 -2.99144,6.8672 -5.2231,9.40308 -2.66448,2.25487 -12.08451,13.02684 -13.67195,7.27937 1.13328,-4.405 8.28935,-9.97111 12.22731,-8.46534 1.68964,2.7561 -0.0365,6.04965 -1.22966,8.71066 -0.28857,0.54679 -0.56807,1.09847 -0.86572,1.64038 -0.28766,0.52372 -1.3123,2.93304 -1.9389,3.22303 -8.58811,3.97455 -9.12695,4.61586 -6.94859,2.44815 1.07299,-0.67801 -0.10346,-1.65137 -0.56069,-2.72557 0,0 7.42308,-4.1656 7.42308,-4.1656 l 0,0 c 0.44213,1.04483 2.12057,2.9288 1.04085,3.65954 -12.24671,10.23941 -8.8153,3.95532 -5.8448,-0.57617 1.01625,-2.06019 2.6556,-5.04643 1.92011,-7.34935 -2.98291,0.11658 -0.31478,0.10328 5.57096,-3.71996 1.32709,-0.86205 -3.93272,2.44377 -3.19088,3.44295 -0.4462,0.13899 -0.41473,0.11645 0.11512,0.0151 -2.14262,1.29793 -4.28524,2.59587 -6.42785,3.8938 -1.78831,0.99375 6.55457,-4.68723 4.60976,-4.05217 2.29116,-2.39789 4.15803,-5.26692 5.822,-8.03352 13.37117,-7.93985 4.03219,-3.19215 1.79918,2.05533 -0.22747,0.90815 -0.64931,1.7979 -0.64272,2.73408 0.004,0.60909 1.12063,1.32697 0.64637,1.70918 -1.86056,1.49943 -9.57089,6.27414 -6.0249,3.8846 1.19971,-1.71503 3.58212,-4.39127 2.62492,-6.57723 -2.73184,-0.94137 -0.77752,-0.16698 6.14169,-4.07557 0.40632,-0.22952 -0.73516,0.5768 -1.07677,0.89473 -1.62901,1.51609 -2.8193,3.36325 -4.15137,5.13063 0,0 -7.77771,3.3517 -7.77771,3.3517 z" />
    <path
       style="fill:#d40000;fill-opacity:1;stroke:#ff0000;stroke-width:4.69999981;stroke-linecap:round;stroke-linejoin:round;stroke-miterlimit:4;stroke-opacity:1;stroke-dasharray:none;stroke-dashoffset:0"
       id="path3478"
       d="m 451.46553,480.33543 c -3.21268,2.26284 -12.91126,10.87322 -12.7056,4.82775 1.16552,-2.95789 3.3703,-5.39119 5.45955,-7.73969 4.73925,-4.04899 11.93187,-8.18258 8.83691,-0.63107 -1.44594,3.19944 -3.9412,5.38997 -6.71222,7.39971 0.59771,1.07472 -13.79713,9.53544 -11.02964,0.77344 2.4969,-4.58649 8.37412,-11.13261 13.90143,-9.81442 2.87655,1.54028 2.81728,4.75593 2.28436,7.56343 -1.19602,3.30656 -2.95468,6.31298 -5.27871,8.94219 -5.34315,3.68288 -12.18383,7.92555 -10.26445,-0.6272 1.25507,-3.35614 3.63194,-6.21582 6.27982,-8.57864 4.59442,-2.9746 12.05265,-9.96897 11.29604,-1.69933 -1.15841,3.91813 -3.17696,7.56998 -5.34313,11.01636 -2.18413,3.56655 -11.84172,11.14768 -10.86189,3.83024 0.21882,-3.15789 1.92727,-5.8599 2.83783,-8.79663 -1.95434,4.36047 11.41548,-7.2731 4.38602,-0.44105 -3.31386,2.31587 -0.51179,0.39299 -8.80515,5.13914 0,0 6.645,-5.33653 6.645,-5.33653 l 0,0 c -6.84274,3.98795 -8.78756,5.05379 -5.73716,3.36897 3.12589,-2.03697 8.14438,-10.50852 11.19064,-6.41156 -0.58531,2.97414 -2.87189,5.5633 -2.86846,8.75553 -0.0802,0.32393 -0.15094,0.65034 -0.24054,0.97179 -0.0452,0.16229 -0.22463,0.32117 -0.16361,0.47819 0.0411,0.10563 0.43499,-0.0872 0.33888,-0.0272 -12.06998,7.54027 -6.43198,4.51625 -4.45972,1.86001 2.26042,-3.2753 4.03247,-6.93175 5.48765,-10.63269 0.15081,-1.3909 0.41126,-2.41577 0.15857,-2.42855 -0.27686,-0.014 -1.05321,0.25996 -0.82536,0.10206 1.54116,-1.06804 9.32832,-5.80516 4.8108,-2.91535 -2.72875,2.11409 -5.0144,4.96183 -6.46189,8.10253 -2.2735,6.44004 6.65596,0.94156 -5.23216,7.55243 2.39454,-2.50108 4.13441,-5.34216 5.48246,-8.53589 0.51489,-2.19717 1.05966,-5.31412 -1.5914,-6.33116 -3.21094,0.15995 -1.90756,0.25159 4.97859,-3.60436 0.50593,-0.2833 -0.94752,0.67646 -1.36256,1.08138 -1.13713,1.10937 -2.03859,2.51789 -2.87023,3.85752 -3.62382,6.81593 10.91109,-3.49618 -4.55381,5.90051 2.72293,-1.96826 5.37506,-3.83944 6.86045,-6.99406 2.65623,-5.02089 -1.51737,-1.10431 7.68512,-6.76397 0.32639,-0.20073 -0.65755,0.39365 -0.98632,0.59047 -2.0682,2.26754 -4.18714,4.59767 -5.59164,7.34716 -1.87733,2.41551 3.13229,-1.48767 0.31471,0.3623 -11.58237,7.6048 -5.65153,3.43826 -3.12797,1.73316 0,0 7.83879,-3.24694 7.83879,-3.24694 z" />
    <path
       style="fill:#d40000;fill-opacity:1;stroke:#ff0000;stroke-width:4.69999981;stroke-linecap:round;stroke-linejoin:round;stroke-miterlimit:4;stroke-opacity:1;stroke-dasharray:none;stroke-dashoffset:0"
       id="path3480"
       d="m 592.50039,499.26779 c -3.33036,-3.01596 -5.85241,-5.75271 -4.34929,-10.37527 2.52194,-4.68279 8.47815,-10.18614 13.96501,-9.73068 2.67935,1.11592 1.22932,3.98099 0.25332,5.8643 -3.74675,6.48729 -7.4592,7.96735 -14.36,11.70595 -3.50503,-0.24206 -2.54334,-3.39086 -0.84526,-5.30504 4.07282,-2.69 10.4009,-9.79005 13.04967,-3.36067 1.52888,7.37353 0.85825,5.68092 -7.66742,8.93239 -0.3812,-3.9534 7.65373,-9.12366 8.36971,-3.16337 0.29172,3.70386 0.25099,0.56726 -7.8455,5.19687 0,0 6.87763,-5.0477 6.87763,-5.0477 l 0,0 c -6.73564,4.57418 -6.43275,7.09056 -6.58602,3.79995 -0.0467,-0.52359 -0.60958,-1.24993 -0.18925,-1.56561 10.3625,-7.78271 7.66989,-6.82835 6.95434,-3.14312 -2.56985,1.38564 -5.15646,2.74064 -7.70955,4.15693 -0.34979,0.19405 0.85626,-0.38322 0.9126,-0.77925 0.19576,-1.37613 -0.43239,-2.88804 -0.53936,-4.24232 -0.24099,-0.62772 -0.2961,-1.13051 -0.8921,-1.51368 -0.18912,-0.12159 -0.82855,-0.0623 -0.6461,-0.19371 11.44833,-8.24487 6.58647,-3.75512 3.74774,-2.30381 -1.26152,1.0171 -3.44518,3.76391 -0.27687,3.31951 -12.6593,7.84547 -2.16747,1.46477 -0.0889,-3.03659 0.58434,-0.96817 2.76248,-3.93199 0.60524,-4.30031 -3.14392,0.49131 -1.06309,0.27831 5.05828,-3.48421 0.40239,-0.24734 -0.82576,0.46162 -1.21477,0.72951 -1.47422,1.01516 -2.40433,2.34698 -3.2648,3.90508 -1.91709,4.24849 0.83476,6.71032 3.916,9.50163 0,0 -7.23435,4.43322 -7.23435,4.43322 z" />
    <path
       style="fill:#d40000;fill-opacity:1;stroke:#ff0000;stroke-width:4.69999981;stroke-linecap:round;stroke-linejoin:round;stroke-miterlimit:4;stroke-opacity:1;stroke-dasharray:none;stroke-dashoffset:0"
       id="path3482"
       d="m 727.59517,498.01421 c 3.13221,-0.46551 5.45091,0.46956 4.39062,3.94886 -4.38222,6.63265 -11.55304,6.00431 -8.46128,-0.25436 2.13499,-3.47715 10.64741,-10.38709 12.44855,-5.61634 -1.10363,5.49056 -9.22401,8.36787 -13.00489,10.50308 -3.60868,-0.442 -1.4697,-3.96377 -0.18012,-5.74748 3.32636,-3.45419 11.66883,-10.75774 15.74928,-8.98259 2.6856,2.10463 1.97027,5.30679 0.83853,8.06542 -3.48815,5.73213 -9.38113,9.22645 -15.70969,11.40782 -3.85926,-0.0401 -3.76696,-3.7065 -2.84055,-6.49572 1.44069,-4.17059 4.13087,-7.0425 7.53099,-9.66027 1.97969,-2.17677 14.21725,-9.38464 13.05895,-0.75247 -1.02777,3.98116 -4.34479,6.4727 -7.33181,8.99653 -2.72131,2.48776 -13.64169,9.40333 -10.42145,2.61983 1.76618,-2.83854 4.16264,-5.20508 6.72191,-7.32889 5.43289,-3.48264 11.51793,-8.05395 9.69861,0.34918 -1.21306,3.49297 -3.49221,6.50675 -6.0557,9.13139 -4.01455,3.108 -9.31672,8.47111 -13.34356,3.80771 0,0 7.281,-4.40185 7.281,-4.40185 l 0,0 c 0.43754,0.47837 0.77124,0.9752 1.42728,1.18654 0.30913,0.0996 1.22822,-0.10984 0.97037,0.0876 -11.05114,8.46257 -6.8593,4.08965 -4.17304,2.54088 2.68114,-2.33493 4.82615,-5.43432 6.2489,-8.67641 1.77063,-6.97211 -4.96529,-0.10005 5.8189,-7.18919 -2.58128,2.03343 -5.04892,4.28262 -6.80548,7.07236 -0.3417,0.37835 -1.40617,1.33735 -0.90756,1.23106 0.20651,-0.044 0.79962,-0.23694 0.62119,-0.12404 -1.60267,1.01402 -9.39621,5.56451 -4.91212,2.87091 2.82815,-2.49919 6.34078,-4.67093 7.51851,-8.47924 2.12007,-6.70964 -11.18257,1.98598 2.4314,-6.07905 -3.3147,2.61407 -6.30563,4.99872 -7.69245,9.23304 -0.94007,2.08488 -1.57749,5.42995 1.83304,4.83635 3.26791,-1.30323 2.79447,-1.20546 -4.22079,2.85173 -0.5154,0.29808 0.99976,-0.64859 1.47563,-1.00639 1.66471,-1.25168 2.93699,-2.77461 4.07745,-4.51398 1.06577,-2.08325 2.23686,-5.17476 -0.16902,-6.79091 -3.23331,-0.47776 -0.99845,0.046 5.14252,-3.88882 0.50182,-0.32154 -1.04297,0.57829 -1.54829,0.89432 -1.70837,1.06839 -3.14537,2.38532 -4.51966,3.85568 -0.66262,0.75204 -3.80436,4.30241 -0.9734,3.79248 -12.43473,7.51384 -2.8307,2.28996 -1.12503,-1.12609 -0.045,-0.43708 -1.6577,0.004 -1.29537,-0.24418 11.47776,-7.87324 5.82737,-4.09696 4.08853,-1.68719 -4.1302,6.27535 4.67976,-0.0861 -7.56762,7.63344 -0.18477,0.11647 0.37189,-0.22917 0.55783,-0.34375 1.45958,-2.9395 -0.99747,-2.76787 -3.41306,-2.37173 0,0 6.74195,-5.15528 6.74195,-5.15528 z" />
    <path
       style="fill:#0000ff;fill-opacity:1;stroke:#0000ff;stroke-width:4.69999981;stroke-linecap:round;stroke-linejoin:round;stroke-miterlimit:4;stroke-opacity:1;stroke-dasharray:none;stroke-dashoffset:0"
       id="path3509"
       d="m 293.36982,511.525 c 0.0471,-5.71637 0.0453,-11.43339 0.0246,-17.14993 0.14719,-4.13387 -0.36918,-8.31796 0.28754,-12.41258 0.91465,-3.56542 1.78757,-7.1206 2.20754,-10.78137 0.3453,-3.6588 0.34093,-7.33789 0.36327,-11.0093 -0.31895,-5.01177 0.31334,-9.87874 1.25782,-14.78418 1.16303,-4.76985 0.99087,-9.71497 1.80405,-14.52404 1.25094,-4.67483 1.92404,-9.4432 2.32399,-14.25632 1.13655,-4.84553 2.13889,-9.68302 2.66979,-14.63605 -0.0181,-5.03491 1.33193,-9.86223 2.21846,-14.7759 0.83601,-5.12599 0.99654,-10.32488 1.11264,-15.50699 0.0788,-5.08931 0.0625,-10.17951 0.059,-15.26925 0.016,-6.43138 0.003,-12.86279 -0.004,-19.29418 0.001,-5.62212 -0.0117,-11.24421 -0.0209,-16.86631 -0.001,-5.09646 0.005,-10.19291 0.008,-15.28937 0.005,-5.06814 -0.011,-10.13622 -0.008,-15.20436 -0.0204,-4.45861 0.006,-8.91724 -0.006,-13.37585 0.005,-4.51885 0.002,-9.03769 -4.5e-4,-13.55654 2.9e-4,-4.87383 0.0203,-9.74766 0.005,-14.62147 -0.005,-4.92354 0.004,-9.84708 0.008,-14.77062 0.004,-5.6092 0.005,-11.21839 0.005,-16.82759 0.007,-5.4467 -0.004,-10.89337 -0.0124,-16.34005 -0.80678,-4.96822 -1.72905,-9.90252 -2.31742,-14.90629 -0.50376,-4.91173 -0.51329,-9.85533 -0.54316,-14.78732 -0.61402,-4.28919 -1.66025,-8.49592 -2.33174,-12.77767 -0.62461,-3.03636 -0.12349,-6.22057 -0.85156,-9.21756 -1.03408,-2.79555 -1.77777,-5.64364 -2.21428,-8.58966 -0.32809,-2.85822 -0.33586,-5.73757 -0.35885,-8.61027 -0.005,-2.85787 0.013,-5.7157 0.0119,-8.57357 -3.6e-4,-2.83035 0.004,-5.66056 0.0169,-8.4909 -7.4e-4,-3.62201 0.01,-7.24399 -0.002,-10.866 0.23106,-2.14219 -0.42626,-4.454563 0.21593,-6.532834 3.72538,-5.11096 8.88355,-5.208106 14.12579,-5.292316 2.98677,-0.01217 5.97344,0.01886 8.96017,0.02895 2.71806,0.01888 5.43619,0.0085 8.15428,0.01362 2.93506,0.296256 5.7706,1.502743 8.68319,2.155167 3.04837,0.576455 6.15178,0.658136 9.24385,0.71234 3.47391,0.02895 6.948,0.01472 10.42201,0.01541 3.93228,-0.0081 7.86458,-0.01354 11.79687,-0.01061 4.23911,-0.0043 8.47823,0.0068 12.71734,-4.47e-4 4.80107,0.0013 9.60216,0.0036 14.40322,0.0161 6.43852,-0.844242 12.83709,-1.87552 19.31729,-2.358473 6.65046,0.02049 13.14648,-0.790074 19.69077,-1.856418 5.7913,-0.96613 11.65677,-1.258285 17.51578,-1.426159 5.1459,-0.793683 10.21015,-1.938782 15.39343,-2.477924 4.13221,-0.418745 8.29025,-0.463827 12.43988,-0.485706 3.98039,-0.01401 7.96085,0.0015 11.94126,0.0081 4.04281,0.01541 8.08563,0.0035 12.12845,0.0044 3.43707,7.09e-4 6.87416,0.0019 10.31123,-0.0052 3.27676,0.142792 6.38871,1.515519 9.62674,2.144088 3.68258,0.588905 7.41466,0.662615 11.135,0.720383 3.72197,0.03136 7.44408,0.01722 11.16612,0.01199 3.12399,-0.01413 6.24803,-0.01052 9.37202,-0.02403 3.34896,-0.01871 3.26281,-0.15883 -6.15433,3.634269 -0.22522,0.09071 -0.1329,-0.470332 -0.2434,-0.686532 -0.55172,-1.079495 -1.4304,-2.387469 -2.07433,-3.390627 0,0 7.29097,-4.258106 7.29097,-4.258106 l 0,0 c 2.87339,4.42122 7.08255,9.638119 -5.69497,9.697385 -3.11163,-0.0098 -6.22327,-3.01e-4 -9.33491,-0.0018 -3.72656,0.0077 -7.45358,0.03037 -11.17987,-0.02217 -3.75508,-0.07348 -7.52282,-0.182425 -11.23004,-0.842647 -3.17917,-0.673706 -6.27156,-2.017616 -9.54097,-1.996715 -3.43204,-0.007 -6.8641,-0.0056 -10.29615,-0.0061 -4.03978,-0.0011 -8.07955,-0.01657 -12.11934,-0.01239 -3.97828,-0.0059 -7.95656,-0.01803 -11.93484,-0.0033 -4.12753,0.0406 -8.2619,0.09859 -12.37014,0.541082 -5.17487,0.598752 -10.24082,1.794667 -15.41252,2.409523 -5.83567,0.188845 -11.67415,0.521991 -17.43902,1.50551 -6.54955,1.05903 -13.0744,1.703447 -19.71733,1.790698 -6.49175,0.54477 -12.90306,1.634621 -19.37711,2.320163 -4.81573,0.01246 -9.63148,0.01466 -14.44723,0.01588 -4.23941,-0.0073 -8.47885,0.0037 -12.71827,0.0015 -3.93214,0.0057 -7.86428,0.0051 -11.79642,0.01165 -3.48232,0.01222 -6.96501,0.03476 -10.44711,-0.01869 -3.13415,-0.06356 -6.27793,-0.195441 -9.35496,-0.850258 -2.85164,-0.681646 -5.6476,-1.897421 -8.58691,-1.987449 -2.71623,0.0011 -5.43245,-0.01686 -8.14867,-0.02227 -2.98174,-0.02027 -5.96387,-0.04769 -8.94556,-0.01338 -1.40867,0.03347 -2.84088,0.03093 -4.23788,0.242829 -0.40473,0.06139 -1.53847,0.482131 -1.2028,0.247827 2.83675,-1.980111 9.02458,-5.30624 5.96851,-3.657836 -1.3421,1.109092 -0.0378,4.586457 -0.46743,6.14566 -0.0115,3.622812 -9.9e-4,7.245592 -0.002,10.868402 0.0118,2.82723 0.0147,5.65427 0.005,8.4815 -0.0119,2.85612 -0.0152,5.71232 -0.0145,8.56845 0.005,2.83781 0.0162,5.68205 0.30525,8.50812 0.39476,2.9229 1.11043,5.74821 2.16651,8.50694 0.82276,3.01671 0.29864,6.22368 0.87442,9.3048 0.62802,4.33443 1.67268,8.58341 2.34084,12.90925 0.033,4.90284 0.0504,9.81534 0.51623,14.70064 0.54651,5.04099 1.47121,10.00304 2.36127,14.99038 -0.008,5.45089 -0.0196,10.90176 -0.0124,16.35266 4.8e-4,5.60748 0.001,11.21496 0.005,16.82244 0.004,4.92094 0.0125,9.84188 0.008,14.76283 -0.0149,4.872 0.005,9.74401 0.005,14.61602 -0.002,4.51901 -0.005,9.03799 -4.5e-4,13.557 -0.0123,4.46075 0.0141,8.92152 -0.006,13.38226 0.003,5.07076 -0.0126,10.14147 -0.008,15.21223 0.003,5.09362 0.009,10.18723 0.008,15.28085 -0.009,5.62855 -0.0222,11.25708 -0.0177,16.88565 -0.002,6.42752 -0.008,12.8551 0.0247,19.28256 0.01,5.09234 0.0378,10.18511 -0.0303,15.27717 -0.11848,5.21984 -0.28684,10.45593 -1.0656,15.62661 -0.8455,4.9068 -2.29072,9.70277 -2.25197,14.72522 -0.49196,4.94701 -1.37033,9.80738 -2.65827,14.61241 -0.41113,4.83197 -0.96649,9.64951 -2.2892,14.33286 -0.97088,4.78489 -0.59864,9.7659 -1.80499,14.53538 -0.98494,4.85398 -1.67689,9.65495 -1.30441,14.62677 -0.004,3.69514 0.003,7.39903 -0.31756,11.08303 -0.3605,3.689 -1.19279,7.27029 -2.18033,10.84014 -0.84514,4.02163 -0.16012,8.20873 -0.39599,12.2948 -0.0207,5.7082 -0.0227,11.41688 0.0246,17.1249 0,0 -7.54607,3.84492 -7.54607,3.84492 z"
       transform="translate(16.22616,-38.111481)" />
  </g>
</svg>
