<?xml version="1.0" encoding="UTF-8" standalone="no"?>
<!-- Created with Inkscape (http://www.inkscape.org/) -->
<svg
   xmlns:dc="http://purl.org/dc/elements/1.1/"
   xmlns:cc="http://creativecommons.org/ns#"
   xmlns:rdf="http://www.w3.org/1999/02/22-rdf-syntax-ns#"
   xmlns:svg="http://www.w3.org/2000/svg"
   xmlns="http://www.w3.org/2000/svg"
   xmlns:sodipodi="http://sodipodi.sourceforge.net/DTD/sodipodi-0.dtd"
   xmlns:inkscape="http://www.inkscape.org/namespaces/inkscape"
   width="910.4259"
   height="634.61475"
   id="svg2"
   sodipodi:version="0.32"
   inkscape:version="0.46+devel"
   version="1.0"
   sodipodi:docname="tmp2d1.svg"
   inkscape:output_extension="org.inkscape.output.svg.inkscape">
  <defs
     id="defs4">
    <inkscape:perspective
       sodipodi:type="inkscape:persp3d"
       inkscape:vp_x="0 : 526.18109 : 1"
       inkscape:vp_y="0 : 1000 : 0"
       inkscape:vp_z="744.09448 : 526.18109 : 1"
       inkscape:persp3d-origin="372.04724 : 350.78739 : 1"
       id="perspective10" />
  </defs>
  <sodipodi:namedview
     id="base"
     pagecolor="#ffffff"
     bordercolor="#666666"
     borderopacity="1.0"
     inkscape:pageopacity="0.0"
     inkscape:pageshadow="2"
     inkscape:zoom="0.35"
     inkscape:cx="885.11361"
     inkscape:cy="250.35846"
     inkscape:document-units="px"
     inkscape:current-layer="layer1"
     showgrid="false"
     inkscape:window-width="1280"
     inkscape:window-height="712"
     inkscape:window-x="-5"
     inkscape:window-y="-3" />
  <metadata
     id="metadata7">
    <rdf:RDF>
      <cc:Work
         rdf:about="">
        <dc:format>image/svg+xml</dc:format>
        <dc:type
           rdf:resource="http://purl.org/dc/dcmitype/StillImage" />
        <dc:title></dc:title>
      </cc:Work>
    </rdf:RDF>
  </metadata>
  <g
     inkscape:label="Layer 1"
     inkscape:groupmode="layer"
     id="layer1"
     transform="translate(510.11361,-148.10588)">
    <path
       style="fill:#000000;fill-opacity:1;fill-rule:nonzero;stroke:#000000;stroke-width:4.69999981;stroke-linecap:round;stroke-linejoin:round;stroke-miterlimit:4;stroke-opacity:1;stroke-dasharray:none;stroke-dashoffset:0"
       id="path2694"
       d="m -345.73307,172.66473 c -5.79749,12.46249 -12.54775,24.42793 -19.78039,36.10561 -8.73224,12.50276 -16.61379,25.63185 -26.10255,37.58792 -4.27097,4.62982 -11.56914,13.71176 -18.40266,9.7533 0,0 7.12012,-4.67037 7.12012,-4.67037 l 0,0 c 2.936,1.30875 6.9669,-0.93672 -2.22701,3.76408 -2.39418,1.22414 10.44677,-6.90615 5.83553,-5.56974 9.6289,-11.86749 17.45826,-25.0595 26.2471,-37.54108 7.19759,-11.60048 13.9731,-23.47429 19.58256,-35.93365 0,0 7.7273,-3.49607 7.7273,-3.49607 z" />
    <path
       style="fill:#000000;fill-opacity:1;fill-rule:nonzero;stroke:#000000;stroke-width:4.69999981;stroke-linecap:round;stroke-linejoin:round;stroke-miterlimit:4;stroke-opacity:1;stroke-dasharray:none;stroke-dashoffset:0"
       id="path2696"
       d="m -386.12698,174.32966 c 8.43729,7.60707 16.54921,15.4901 24.11343,23.97303 9.57329,11.04679 17.18235,23.3588 23.2653,36.59687 4.54531,9.97951 8.24913,20.38645 14.33845,29.55982 0,0 -7.27646,4.25656 -7.27646,4.25656 l 0,0 c -6.01426,-9.27457 -9.73668,-19.7053 -14.27811,-29.7395 -6.03702,-13.1725 -13.60613,-25.40835 -23.1521,-36.37583 -7.5597,-8.44508 -15.65127,-16.31141 -24.19606,-23.75751 0,0 7.18555,-4.51344 7.18555,-4.51344 z" />
    <path
       style="fill:#000000;fill-opacity:1;fill-rule:nonzero;stroke:#000000;stroke-width:4.69999981;stroke-linecap:round;stroke-linejoin:round;stroke-miterlimit:4;stroke-opacity:1;stroke-dasharray:none;stroke-dashoffset:0"
       id="path2698"
       d="m 168.52293,150.45588 c -5.50884,14.0133 -12.38717,27.4182 -19.42653,40.70913 -5.11332,8.49243 -10.24146,17.32307 -17.63817,24.09496 -4.18363,3.83021 -10.12877,6.6657 -14.73907,9.34583 0,0 6.53994,-5.29195 6.53994,-5.29195 l 0,0 c -1.21795,0.72878 -4.38565,3.40252 -3.65386,2.18636 0.88673,-1.47366 2.87699,-1.90493 4.16816,-3.04109 7.52675,-6.62313 12.65519,-15.49254 17.82876,-23.92499 7.01117,-13.21013 13.87627,-26.53509 19.2529,-40.51172 0,0 7.66787,-3.56653 7.66787,-3.56653 z" />
    <path
       style="fill:#000000;fill-opacity:1;fill-rule:nonzero;stroke:#000000;stroke-width:4.69999981;stroke-linecap:round;stroke-linejoin:round;stroke-miterlimit:4;stroke-opacity:1;stroke-dasharray:none;stroke-dashoffset:0"
       id="path2700"
       d="m 99.904793,160.01579 c 10.694697,7.67168 20.258297,16.7038 29.468887,26.06267 7.96385,8.98598 15.67343,18.13721 24.33852,26.46313 0,0 -7.16339,4.40478 -7.16339,4.40478 l 0,0 c -8.58228,-8.40301 -16.25965,-17.57765 -24.22968,-26.55195 -9.19805,-9.32001 -18.73958,-18.35255 -29.551333,-25.80888 0,0 7.136996,-4.56975 7.136996,-4.56975 z" />
    <path
       style="fill:#000000;fill-opacity:1;fill-rule:nonzero;stroke:#000000;stroke-width:4.69999981;stroke-linecap:round;stroke-linejoin:round;stroke-miterlimit:4;stroke-opacity:1;stroke-dasharray:none;stroke-dashoffset:0"
       id="path2706"
       d="m 391.05435,433.35444 c -7.82889,14.42677 -17.60235,27.72199 -27.27186,40.95409 -7.07035,9.52581 -14.53684,18.98853 -24.5734,25.50696 0,0 -7.86347,3.05588 -7.86347,3.05588 l 0,0 c 10.22155,-6.32316 17.78879,-15.74502 24.89513,-25.30257 9.63985,-13.13768 19.39338,-26.35042 27.11365,-40.73066 0,0 7.69995,-3.4837 7.69995,-3.4837 z" />
    <path
       style="fill:#000000;fill-opacity:1;fill-rule:nonzero;stroke:#000000;stroke-width:4.69999981;stroke-linecap:round;stroke-linejoin:round;stroke-miterlimit:4;stroke-opacity:1;stroke-dasharray:none;stroke-dashoffset:0"
       id="path2708"
       d="m 328.497,454.68362 c 10.44032,8.96462 21.44654,17.22563 31.95362,26.11951 11.53453,10.05946 22.86779,20.32414 33.76157,31.07528 1.25004,1.24938 2.50007,2.49876 3.7501,3.74814 0,0 -7.1326,4.36738 -7.1326,4.36738 l 0,0 c -1.23654,-1.25494 -2.47307,-2.50988 -3.7096,-3.76481 -10.83567,-10.77175 -22.13475,-21.03466 -33.66593,-31.05756 -10.53814,-8.89269 -21.55066,-17.16959 -32.13571,-25.9989 0,0 7.17855,-4.48904 7.17855,-4.48904 z" />
    <path
       style="fill:#000000;fill-opacity:1;fill-rule:nonzero;stroke:#000000;stroke-width:4.69999981;stroke-linecap:round;stroke-linejoin:round;stroke-miterlimit:4;stroke-opacity:1;stroke-dasharray:none;stroke-dashoffset:0"
       id="path2710"
       d="m 248.2488,652.4041 c -6.65765,9.17468 -12.60993,18.8348 -19.0873,28.14097 -6.79832,10.78209 -15.36921,20.04471 -25.70916,27.44766 0,0 -7.79071,3.07253 -7.79071,3.07253 l 0,0 c 10.42874,-7.26704 19.11228,-16.40521 25.88858,-27.20892 6.47007,-9.26263 12.42338,-18.86242 18.89545,-28.11844 0,0 7.80314,-3.3338 7.80314,-3.3338 z" />
    <path
       style="fill:#000000;fill-opacity:1;fill-rule:nonzero;stroke:#000000;stroke-width:4.69999981;stroke-linecap:round;stroke-linejoin:round;stroke-miterlimit:4;stroke-opacity:1;stroke-dasharray:none;stroke-dashoffset:0"
       id="path2712"
       d="m 185.61908,660.01579 c 9.64193,7.3208 18.971,15.04786 28.45319,22.57478 11.94434,9.73754 23.6226,19.79674 35.39466,29.74297 3.16287,3.19317 6.89867,5.50655 10.80456,7.63189 0,0 -7.07269,4.6073 -7.07269,4.6073 l 0,0 c -3.88063,-2.22401 -7.60583,-4.63151 -10.77862,-7.841 -11.72629,-9.98101 -23.38535,-20.04835 -35.35686,-29.73352 -9.50333,-7.49893 -18.81094,-15.26446 -28.58124,-22.41267 0,0 7.137,-4.56975 7.137,-4.56975 z" />
    <path
       style="fill:#000000;fill-opacity:1;fill-rule:nonzero;stroke:#000000;stroke-width:4.69999981;stroke-linecap:round;stroke-linejoin:round;stroke-miterlimit:4;stroke-opacity:1;stroke-dasharray:none;stroke-dashoffset:0"
       id="path2714"
       d="m -77.177513,675.84351 c -6.67763,14.14284 -16.076076,26.75912 -25.470657,39.17929 -11.06667,14.94028 -22.63763,29.39463 -36.92959,41.35356 0,0 -7.69543,3.10386 -7.69543,3.10386 l 0,0 c 4.48476,-3.68422 7.40717,-5.91076 11.58956,-10.15124 9.42131,-9.55218 17.20212,-20.60244 25.52628,-31.07426 9.3327,-12.31352 18.691293,-24.82644 25.284282,-38.87489 0,0 7.695555,-3.53632 7.695555,-3.53632 z" />
    <path
       style="fill:#000000;fill-opacity:1;fill-rule:nonzero;stroke:#000000;stroke-width:4.69999981;stroke-linecap:round;stroke-linejoin:round;stroke-miterlimit:4;stroke-opacity:1;stroke-dasharray:none;stroke-dashoffset:0"
       id="path2716"
       d="m -139.82629,693.50884 c 13.07538,4.84424 23.12697,14.31718 32.53439,24.25075 12.295266,15.00038 23.235885,31.05475 34.283264,46.98057 5.699545,8.01035 2.967711,4.2142 8.184188,11.39659 0,0 -7.166748,4.23389 -7.166748,4.23389 l 0,0 c -5.153633,-7.23179 -2.448197,-3.41372 -8.109287,-11.45917 -10.959225,-15.93458 -21.881977,-31.9567 -34.216357,-46.87123 -9.36932,-9.81135 -19.40172,-19.23497 -32.50075,-23.74337 0,0 6.9913,-4.78803 6.9913,-4.78803 z" />
    <path
       style="fill:#000000;fill-opacity:1;fill-rule:nonzero;stroke:#000000;stroke-width:4.69999981;stroke-linecap:round;stroke-linejoin:round;stroke-miterlimit:4;stroke-opacity:1;stroke-dasharray:none;stroke-dashoffset:0"
       id="path2718"
       d="m -456.84274,486.8947 c -6.22158,14.39668 -12.71132,28.6639 -20.2824,42.40397 -6.3277,11.45695 -14.5186,21.57477 -23.0559,31.41566 0,0 -7.58257,3.20123 -7.58257,3.20123 l 0,0 c 8.59018,-9.78314 16.83253,-19.84491 23.1844,-31.28122 7.54738,-13.62845 13.94794,-27.80511 20.05489,-42.13208 0,0 7.68158,-3.60756 7.68158,-3.60756 z" />
    <path
       style="fill:#000000;fill-opacity:1;fill-rule:nonzero;stroke:#000000;stroke-width:4.69999981;stroke-linecap:round;stroke-linejoin:round;stroke-miterlimit:4;stroke-opacity:1;stroke-dasharray:none;stroke-dashoffset:0"
       id="path2720"
       d="m -499.75397,500.37409 c 14.27579,11.0065 27.01412,23.78587 39.36958,36.86139 6.81795,7.37119 13.59138,14.78333 20.37883,22.18256 0,0 -7.02932,4.26301 -7.02932,4.26301 l 0,0 c -6.73415,-7.43395 -13.4806,-14.85679 -20.30068,-22.21221 -12.35683,-13.03843 -25.08898,-25.82817 -39.55435,-36.55807 0,0 7.13594,-4.53668 7.13594,-4.53668 z" />
    <path
       style="fill:#000000;fill-opacity:1;fill-rule:nonzero;stroke:#000000;stroke-width:4.69999981;stroke-linecap:round;stroke-linejoin:round;stroke-miterlimit:4;stroke-opacity:1;stroke-dasharray:none;stroke-dashoffset:0"
       id="path3502"
       d="m -422.21451,524.74738 c 13.65836,-5.69533 26.76808,-12.664 39.79687,-19.66219 21.003,-11.35398 41.61327,-23.41093 62.14073,-35.59941 26.43626,-16.20883 52.72274,-32.65908 78.90897,-49.26816 26.4073,-17.16173 52.21612,-35.23209 77.62343,-53.83657 20.73552,-15.5866 41.68356,-30.88007 62.93827,-45.75037 15.713727,-11.29943 31.295051,-22.76593 47.195567,-33.80351 10.954628,-8.31974 22.510212,-15.6909 34.152807,-22.98092 6.35992,-3.63954 12.6010076,-7.4405 18.91289266,-11.13884 3.29973584,-2.61046 7.35825254,-4.06335 10.80509834,-6.40619 0.326407,-0.22187 -0.6965097,0.37138 -1.0447647,0.55708 5.0039657,-2.59551 9.7872137,-5.23162 14.6094447,-8.00143 5.187681,-3.38746 10.818503,-6.37119 16.714518,-8.30954 4.711217,-1.90498 9.591161,-3.22927 14.307438,-5.09762 0.951848,-0.87796 9.197686,-2.74945 3.289793,-1.94127 -0.731089,-1.99127 -0.285245,-1.0092 -1.355349,-2.93804 0,0 2.457358,-1.41331 2.457358,-1.41331 l 0,0 c 1.111781,1.99992 0.634158,0.97228 1.439061,3.08002 -2.787938,3.05917 -4.178306,3.64634 -8.054833,4.96011 -4.714222,1.86348 -9.602594,3.1744 -14.308654,5.07866 -5.946984,2.00278 -11.348545,5.08836 -16.681073,8.35388 -3.165763,1.86925 -7.108647,4.65117 -10.72328,5.87307 -0.366826,0.124 0.633637,-0.44526 0.950455,-0.6679 -5.5592575,3.2877 -5.6436169,3.02492 -9.7688153,5.85882 -6.3342274,3.695 -12.5748207,7.52306 -18.9514817,11.14455 -11.650935,7.30034 -23.243582,14.63798 -34.196437,22.98403 -15.91633,11.03573 -31.508653,22.50662 -47.229935,33.81593 -21.27148,14.8721 -42.23932,30.16375 -62.98444,45.76232 -25.40965,18.61032 -51.22263,36.68353 -77.62824,53.85753 -26.1804,16.60669 -52.4611,33.05427 -78.88705,49.26804 -22.05337,13.10085 -44.2094,26.04031 -66.75885,38.27091 -13.05986,7.00929 -26.19864,13.98463 -39.88436,19.70077 0,0 2.21486,-1.75045 2.21486,-1.75045 z" />
    <path
       style="fill:#000000;fill-opacity:1;fill-rule:nonzero;stroke:#000000;stroke-width:4.69999981;stroke-linecap:round;stroke-linejoin:round;stroke-miterlimit:4;stroke-opacity:1;stroke-dasharray:none;stroke-dashoffset:0"
       id="path3508"
       d="m 128.49837,245.27517 c -8.00555,13.03173 -16.08079,25.99673 -23.64862,39.29458 -14.102025,24.97909 -28.414495,49.83991 -42.813047,74.64902 -18.548352,30.90723 -35.546664,62.70092 -53.4817094,93.95834 -16.7017995,29.67315 -35.4927146,58.01695 -55.3459626,85.6493 -16.538831,21.93211 -32.36175,44.40972 -49.041255,66.23308 -7.902786,10.28532 -4.134715,5.38849 -11.302316,14.69195 0,0 -2.52485,1.08396 -2.52485,1.08396 l 0,0 c 7.19656,-9.31318 3.41574,-4.41162 11.339671,-14.70681 16.715836,-21.81479 32.536821,-44.31429 49.097859,-66.24877 19.86746,-27.62724 38.678175,-55.963 55.3864396,-85.63768 C 24.102674,422.99243 41.088472,391.19773 59.62731,360.2909 c 14.377631,-24.79507 28.669391,-49.64186 42.73882,-74.61336 7.54107,-13.28468 15.60031,-26.23101 23.54425,-39.27004 0,0 2.58799,-1.13233 2.58799,-1.13233 z" />
    <path
       style="fill:#000000;fill-opacity:1;fill-rule:nonzero;stroke:#000000;stroke-width:4.69999981;stroke-linecap:round;stroke-linejoin:round;stroke-miterlimit:4;stroke-opacity:1;stroke-dasharray:none;stroke-dashoffset:0"
       id="path3510"
       d="m -359.31019,291.88985 c 13.81064,3.79021 25.68002,12.18359 37.0365,20.59241 20.16256,15.27676 38.7929,32.45349 56.43928,50.54327 22.9948,24.18318 43.2484,50.6787 62.99328,77.51586 19.33218,27.46727 38.84045,54.78931 59.31757,81.41587 18.19693,22.31921 36.18614,44.76398 52.801336,68.2933 9.071175,13.47845 18.6221,26.61338 28.377526,39.60075 0,0 -2.343427,1.39054 -2.343427,1.39054 l 0,0 C -74.411597,618.22953 -83.953235,605.0867 -93.028752,591.61042 -109.63671,568.08185 -127.62177,545.63995 -145.8,523.31188 c -20.46851,-26.63468 -39.9655,-53.96622 -59.30423,-81.43025 -19.74291,-26.82599 -39.99258,-53.31207 -63.00446,-77.46618 -17.65496,-18.07073 -36.29561,-35.22611 -56.47276,-50.47128 -11.34553,-8.37046 -23.21565,-16.76776 -37.03796,-20.42613 0,0 2.30922,-1.62819 2.30922,-1.62819 z" />
    <path
       style="fill:#000000;fill-opacity:1;fill-rule:nonzero;stroke:#000000;stroke-width:4.69999981;stroke-linecap:round;stroke-linejoin:round;stroke-miterlimit:4;stroke-opacity:1;stroke-dasharray:none;stroke-dashoffset:0"
       id="path3512"
       d="m 213.9114,629.25672 c -5.93703,-3.51596 -11.73391,-7.22501 -16.88515,-11.83202 -4.31492,-3.64416 -8.42831,-7.52175 -12.99055,-10.86766 -6.8538,-4.29662 -13.62125,-8.73497 -20.08818,-13.59646 -9.34013,-7.38039 -19.80559,-13.07388 -29.9002,-19.30722 C 121.26296,566.01943 108.0716,559.11019 95.06454,551.87585 80.523515,544.16677 66.029731,536.37783 51.542405,528.56997 35.798544,521.04231 20.788096,512.14681 5.6581244,503.48667 -8.9602334,494.69197 -23.835279,486.36263 -38.204042,477.1591 -52.21408,468.40998 -65.535123,458.61856 -78.702686,448.66345 -91.45001,438.65122 -103.30793,427.58286 -115.73527,417.18487 c -12.41518,-10.08453 -24.19082,-20.90519 -35.76547,-31.93286 -11.21573,-11.04668 -22.40598,-22.09448 -34.37511,-32.32986 -11.35676,-9.60211 -22.74244,-19.17405 -34.26749,-28.57399 -11.62368,-9.57722 -24.05161,-18.14669 -36.34832,-26.83222 -11.54627,-8.07324 -23.7185,-15.14675 -36.35202,-21.35665 -12.32206,-6.14765 -25.25559,-10.87868 -37.96999,-16.11815 0,0 2.30548,-1.54091 2.30548,-1.54091 l 0,0 c 12.71258,5.25341 25.65419,9.97658 37.97446,16.13708 12.63909,6.22504 24.82127,13.30698 36.37041,21.39672 12.29822,8.69395 24.7321,17.26498 36.3591,26.84802 11.52278,9.40568 22.91441,18.9732 34.26932,28.58047 11.9644,10.24685 23.15641,21.29874 34.3774,32.34572 11.57185,11.02222 23.34609,21.83546 35.75461,31.91883 12.41846,10.40175 24.282657,21.45677 37.026398,31.46634 13.161902,9.95084 26.478444,19.73475 40.482068,28.48082 14.369156,9.1944 29.2373303,17.52707 43.853181,26.31721 15.126823,8.6627 30.14125,17.54693 45.88257,25.07601 14.488857,7.80974 28.989879,15.58995 43.530321,23.3048 13.016592,7.23083 26.212042,14.14613 39.005222,21.77791 10.10976,6.22917 20.57542,11.94089 29.93121,19.3174 6.4797,4.84903 13.25353,9.28064 20.10857,13.58039 4.56048,3.36181 8.68983,7.23159 13.0022,10.89194 5.14003,4.58439 10.91317,8.29699 16.8543,11.76288 0,0 -2.36175,1.55395 -2.36175,1.55395 z" />
  </g>
</svg>
