<?xml version="1.0" encoding="UTF-8" standalone="no"?>
<!-- Created with Inkscape (http://www.inkscape.org/) -->

<svg
   xmlns:dc="http://purl.org/dc/elements/1.1/"
   xmlns:cc="http://creativecommons.org/ns#"
   xmlns:rdf="http://www.w3.org/1999/02/22-rdf-syntax-ns#"
   xmlns:svg="http://www.w3.org/2000/svg"
   xmlns="http://www.w3.org/2000/svg"
   xmlns:sodipodi="http://sodipodi.sourceforge.net/DTD/sodipodi-0.dtd"
   xmlns:inkscape="http://www.inkscape.org/namespaces/inkscape"
   width="1632.7576"
   height="588.5069"
   id="svg6018"
   version="1.1"
   inkscape:version="0.47pre4 r22446"
   sodipodi:docname="New document 28">
  <defs
     id="defs6020">
    <inkscape:perspective
       sodipodi:type="inkscape:persp3d"
       inkscape:vp_x="0 : 526.18109 : 1"
       inkscape:vp_y="0 : 1000 : 0"
       inkscape:vp_z="744.09448 : 526.18109 : 1"
       inkscape:persp3d-origin="372.04724 : 350.78739 : 1"
       id="perspective6026" />
    <inkscape:perspective
       id="perspective5928"
       inkscape:persp3d-origin="0.5 : 0.33333333 : 1"
       inkscape:vp_z="1 : 0.5 : 1"
       inkscape:vp_y="0 : 1000 : 0"
       inkscape:vp_x="0 : 0.5 : 1"
       sodipodi:type="inkscape:persp3d" />
    <marker
       inkscape:stockid="Arrow1Lend"
       orient="auto"
       refY="0"
       refX="0"
       id="Arrow1Lend"
       style="overflow:visible">
      <path
         id="path3678"
         d="M 0,0 5,-5 -12.5,0 5,5 0,0 z"
         style="fill-rule:evenodd;stroke:#000000;stroke-width:1pt;marker-start:none"
         transform="matrix(-0.8,0,0,-0.8,-10,0)" />
    </marker>
    <marker
       inkscape:stockid="Arrow1Lend"
       orient="auto"
       refY="0"
       refX="0"
       id="marker5934"
       style="overflow:visible">
      <path
         id="path5936"
         d="M 0,0 5,-5 -12.5,0 5,5 0,0 z"
         style="fill-rule:evenodd;stroke:#000000;stroke-width:1pt;marker-start:none"
         transform="matrix(-0.8,0,0,-0.8,-10,0)" />
    </marker>
    <marker
       inkscape:stockid="Arrow1Lend"
       orient="auto"
       refY="0"
       refX="0"
       id="marker5938"
       style="overflow:visible">
      <path
         id="path5940"
         d="M 0,0 5,-5 -12.5,0 5,5 0,0 z"
         style="fill-rule:evenodd;stroke:#000000;stroke-width:1pt;marker-start:none"
         transform="matrix(-0.8,0,0,-0.8,-10,0)" />
    </marker>
    <marker
       inkscape:stockid="Arrow1Lend"
       orient="auto"
       refY="0"
       refX="0"
       id="marker5942"
       style="overflow:visible">
      <path
         id="path5944"
         d="M 0,0 5,-5 -12.5,0 5,5 0,0 z"
         style="fill-rule:evenodd;stroke:#000000;stroke-width:1pt;marker-start:none"
         transform="matrix(-0.8,0,0,-0.8,-10,0)" />
    </marker>
    <marker
       inkscape:stockid="Arrow1Lend"
       orient="auto"
       refY="0"
       refX="0"
       id="marker5946"
       style="overflow:visible">
      <path
         id="path5948"
         d="M 0,0 5,-5 -12.5,0 5,5 0,0 z"
         style="fill-rule:evenodd;stroke:#000000;stroke-width:1pt;marker-start:none"
         transform="matrix(-0.8,0,0,-0.8,-10,0)" />
    </marker>
    <marker
       inkscape:stockid="Arrow1Lend"
       orient="auto"
       refY="0"
       refX="0"
       id="marker5950"
       style="overflow:visible">
      <path
         id="path5952"
         d="M 0,0 5,-5 -12.5,0 5,5 0,0 z"
         style="fill-rule:evenodd;stroke:#000000;stroke-width:1pt;marker-start:none"
         transform="matrix(-0.8,0,0,-0.8,-10,0)" />
    </marker>
    <marker
       inkscape:stockid="Arrow1Lend"
       orient="auto"
       refY="0"
       refX="0"
       id="marker5954"
       style="overflow:visible">
      <path
         id="path5956"
         d="M 0,0 5,-5 -12.5,0 5,5 0,0 z"
         style="fill-rule:evenodd;stroke:#000000;stroke-width:1pt;marker-start:none"
         transform="matrix(-0.8,0,0,-0.8,-10,0)" />
    </marker>
    <marker
       inkscape:stockid="Arrow1Lend"
       orient="auto"
       refY="0"
       refX="0"
       id="marker5958"
       style="overflow:visible">
      <path
         id="path5960"
         d="M 0,0 5,-5 -12.5,0 5,5 0,0 z"
         style="fill-rule:evenodd;stroke:#000000;stroke-width:1pt;marker-start:none"
         transform="matrix(-0.8,0,0,-0.8,-10,0)" />
    </marker>
    <inkscape:perspective
       id="perspective6242"
       inkscape:persp3d-origin="0.5 : 0.33333333 : 1"
       inkscape:vp_z="1 : 0.5 : 1"
       inkscape:vp_y="0 : 1000 : 0"
       inkscape:vp_x="0 : 0.5 : 1"
       sodipodi:type="inkscape:persp3d" />
    <marker
       inkscape:stockid="Arrow1Lend"
       orient="auto"
       refY="0"
       refX="0"
       id="Arrow1Lend-2"
       style="overflow:visible">
      <path
         id="path3678-9"
         d="M 0,0 5,-5 -12.5,0 5,5 0,0 z"
         style="fill-rule:evenodd;stroke:#000000;stroke-width:1pt;marker-start:none"
         transform="matrix(-0.8,0,0,-0.8,-10,0)" />
    </marker>
    <inkscape:perspective
       id="perspective6286"
       inkscape:persp3d-origin="0.5 : 0.33333333 : 1"
       inkscape:vp_z="1 : 0.5 : 1"
       inkscape:vp_y="0 : 1000 : 0"
       inkscape:vp_x="0 : 0.5 : 1"
       sodipodi:type="inkscape:persp3d" />
  </defs>
  <sodipodi:namedview
     id="base"
     pagecolor="#ffffff"
     bordercolor="#666666"
     borderopacity="1.0"
     inkscape:pageopacity="0.0"
     inkscape:pageshadow="2"
     inkscape:zoom="0.35"
     inkscape:cx="828.52163"
     inkscape:cy="214.25344"
     inkscape:document-units="px"
     inkscape:current-layer="layer1"
     showgrid="false"
     inkscape:window-width="1280"
     inkscape:window-height="726"
     inkscape:window-x="0"
     inkscape:window-y="25"
     inkscape:window-maximized="1" />
  <metadata
     id="metadata6023">
    <rdf:RDF>
      <cc:Work
         rdf:about="">
        <dc:format>image/svg+xml</dc:format>
        <dc:type
           rdf:resource="http://purl.org/dc/dcmitype/StillImage" />
        <dc:title></dc:title>
      </cc:Work>
    </rdf:RDF>
  </metadata>
  <g
     inkscape:label="Layer 1"
     inkscape:groupmode="layer"
     id="layer1"
     transform="translate(453.52163,-158.10874)">
    <path
       sodipodi:type="arc"
       style="fill:#000000;fill-opacity:1;stroke:#000000;stroke-width:3;stroke-miterlimit:4;stroke-opacity:1;stroke-dasharray:none"
       id="path2816"
       sodipodi:cx="-68.571426"
       sodipodi:cy="432.36218"
       sodipodi:rx="22.857143"
       sodipodi:ry="22.857143"
       d="m -45.714283,432.36218 c 0,12.62365 -10.233492,22.85715 -22.857143,22.85715 -12.623652,0 -22.857144,-10.2335 -22.857144,-22.85715 0,-12.62365 10.233492,-22.85714 22.857144,-22.85714 12.623651,0 22.857143,10.23349 22.857143,22.85714 z"
       transform="translate(-299.80232,14.895554)" />
    <path
       transform="translate(-2.65946,14.895554)"
       sodipodi:type="arc"
       style="fill:#000000;fill-opacity:1;stroke:#000000;stroke-width:3;stroke-miterlimit:4;stroke-opacity:1;stroke-dasharray:none"
       id="path2816-1"
       sodipodi:cx="-68.571426"
       sodipodi:cy="432.36218"
       sodipodi:rx="22.857143"
       sodipodi:ry="22.857143"
       d="m -45.714283,432.36218 c 0,12.62365 -10.233492,22.85715 -22.857143,22.85715 -12.623652,0 -22.857144,-10.2335 -22.857144,-22.85715 0,-12.62365 10.233492,-22.85714 22.857144,-22.85714 12.623651,0 22.857143,10.23349 22.857143,22.85714 z" />
    <path
       transform="translate(281.62625,-178.44016)"
       sodipodi:type="arc"
       style="fill:#000000;fill-opacity:1;stroke:#000000;stroke-width:3;stroke-miterlimit:4;stroke-opacity:1;stroke-dasharray:none"
       id="path2816-1-8"
       sodipodi:cx="-68.571426"
       sodipodi:cy="432.36218"
       sodipodi:rx="22.857143"
       sodipodi:ry="22.857143"
       d="m -45.714283,432.36218 c 0,12.62365 -10.233492,22.85715 -22.857143,22.85715 -12.623652,0 -22.857144,-10.2335 -22.857144,-22.85715 0,-12.62365 10.233492,-22.85714 22.857144,-22.85714 12.623651,0 22.857143,10.23349 22.857143,22.85714 z" />
    <path
       transform="translate(741.62628,-178.44016)"
       sodipodi:type="arc"
       style="fill:#000000;fill-opacity:1;stroke:#000000;stroke-width:3;stroke-miterlimit:4;stroke-opacity:1;stroke-dasharray:none"
       id="path2816-1-2"
       sodipodi:cx="-68.571426"
       sodipodi:cy="432.36218"
       sodipodi:rx="22.857143"
       sodipodi:ry="22.857143"
       d="m -45.714283,432.36218 c 0,12.62365 -10.233492,22.85715 -22.857143,22.85715 -12.623652,0 -22.857144,-10.2335 -22.857144,-22.85715 0,-12.62365 10.233492,-22.85714 22.857144,-22.85714 12.623651,0 22.857143,10.23349 22.857143,22.85714 z" />
    <path
       transform="translate(281.62625,209.41699)"
       sodipodi:type="arc"
       style="fill:#000000;fill-opacity:1;stroke:#000000;stroke-width:3;stroke-miterlimit:4;stroke-opacity:1;stroke-dasharray:none"
       id="path2816-1-4"
       sodipodi:cx="-68.571426"
       sodipodi:cy="432.36218"
       sodipodi:rx="22.857143"
       sodipodi:ry="22.857143"
       d="m -45.714283,432.36218 c 0,12.62365 -10.233492,22.85715 -22.857143,22.85715 -12.623652,0 -22.857144,-10.2335 -22.857144,-22.85715 0,-12.62365 10.233492,-22.85714 22.857144,-22.85714 12.623651,0 22.857143,10.23349 22.857143,22.85714 z" />
    <path
       transform="translate(741.62628,209.41699)"
       sodipodi:type="arc"
       style="fill:#000000;fill-opacity:1;stroke:#000000;stroke-width:3;stroke-miterlimit:4;stroke-opacity:1;stroke-dasharray:none"
       id="path2816-1-24"
       sodipodi:cx="-68.571426"
       sodipodi:cy="432.36218"
       sodipodi:rx="22.857143"
       sodipodi:ry="22.857143"
       d="m -45.714283,432.36218 c 0,12.62365 -10.233492,22.85715 -22.857143,22.85715 -12.623652,0 -22.857144,-10.2335 -22.857144,-22.85715 0,-12.62365 10.233492,-22.85714 22.857144,-22.85714 12.623651,0 22.857143,10.23349 22.857143,22.85714 z" />
    <path
       transform="translate(1174.4834,14.895554)"
       sodipodi:type="arc"
       style="fill:#000000;fill-opacity:1;stroke:#000000;stroke-width:3;stroke-miterlimit:4;stroke-opacity:1;stroke-dasharray:none"
       id="path2816-1-6"
       sodipodi:cx="-68.571426"
       sodipodi:cy="432.36218"
       sodipodi:rx="22.857143"
       sodipodi:ry="22.857143"
       d="m -45.714283,432.36218 c 0,12.62365 -10.233492,22.85715 -22.857143,22.85715 -12.623652,0 -22.857144,-10.2335 -22.857144,-22.85715 0,-12.62365 10.233492,-22.85714 22.857144,-22.85714 12.623651,0 22.857143,10.23349 22.857143,22.85714 z" />
    <path
       style="fill:none;stroke:#000000;stroke-width:5.19999981;stroke-linecap:butt;stroke-linejoin:miter;stroke-miterlimit:4;stroke-opacity:1;stroke-dasharray:none;marker-end:url(#Arrow1Lend)"
       d="m -328.37375,427.25774 208.57143,0"
       id="path2898" />
    <path
       style="fill:none;stroke:#000000;stroke-width:5.19999981;stroke-linecap:butt;stroke-linejoin:miter;stroke-miterlimit:4;stroke-opacity:1;stroke-dasharray:none;marker-end:url(#Arrow1Lend)"
       d="m 630.19768,253.92202 -380,0"
       id="path2898-3"
       sodipodi:nodetypes="cc" />
    <path
       style="fill:none;stroke:#000000;stroke-width:5.19999981;stroke-linecap:butt;stroke-linejoin:miter;stroke-miterlimit:4;stroke-opacity:1;stroke-dasharray:none;marker-end:url(#Arrow1Lend)"
       d="m 618.76911,641.77917 -354.28572,0"
       id="path2898-4"
       sodipodi:nodetypes="cc" />
    <path
       style="fill:none;stroke:#000000;stroke-width:5.19999981;stroke-linecap:butt;stroke-linejoin:miter;stroke-miterlimit:4;stroke-opacity:1;stroke-dasharray:none;marker-end:url(#Arrow1Lend)"
       d="M 1055.912,478.68631 713.05488,627.25774"
       id="path2898-2"
       sodipodi:nodetypes="cc" />
    <path
       style="fill:none;stroke:#000000;stroke-width:5.19999981;stroke-linecap:butt;stroke-linejoin:miter;stroke-miterlimit:4;stroke-opacity:1;stroke-dasharray:none;marker-end:url(#Arrow1Lend)"
       d="M 1055.912,415.82917 715.91198,264.4006"
       id="path2898-0"
       sodipodi:nodetypes="cc" />
    <path
       style="fill:none;stroke:#000000;stroke-width:5.19999981;stroke-linecap:butt;stroke-linejoin:miter;stroke-miterlimit:4;stroke-opacity:1;stroke-dasharray:none;marker-end:url(#Arrow1Lend)"
       d="M 184.47076,278.52442 -35.50398,421.70535"
       id="path2898-7"
       sodipodi:nodetypes="cc" />
    <path
       style="fill:none;stroke:#000000;stroke-width:5.19999981;stroke-linecap:butt;stroke-linejoin:miter;stroke-miterlimit:4;stroke-opacity:1;stroke-dasharray:none;marker-end:url(#Arrow1Lend)"
       d="m 167.34054,615.82917 -202.85714,-140"
       id="path2898-5"
       sodipodi:nodetypes="cc" />
    <flowRoot
       xml:space="preserve"
       id="flowRoot4213"
       style="font-size:40px;font-style:normal;font-weight:normal;fill:#000000;fill-opacity:1;stroke:none;font-family:Bitstream Vera Sans"
       transform="matrix(2.1533696,0,0,2.1533696,353.19637,-33.201517)"><flowRegion
         id="flowRegion4215"><rect
           id="rect4217"
           width="71.428574"
           height="74.285713"
           x="-294.28571"
           y="152.36218" /></flowRegion><flowPara
         id="flowPara4219">3</flowPara></flowRoot>    <flowRoot
       xml:space="preserve"
       id="flowRoot4213-0"
       style="font-size:40px;font-style:normal;font-weight:normal;fill:#000000;fill-opacity:1;stroke:none;font-family:Bitstream Vera Sans"
       transform="matrix(2.1533696,0,0,2.1533696,632.64909,-87.358844)"><flowRegion
         id="flowRegion4215-3"><rect
           id="rect4217-7"
           width="71.428574"
           height="74.285713"
           x="-294.28571"
           y="152.36218" /></flowRegion><flowPara
         id="flowPara4219-0">1</flowPara></flowRoot>    <flowRoot
       xml:space="preserve"
       id="flowRoot4213-9"
       style="font-size:40px;font-style:normal;font-weight:normal;fill:#000000;fill-opacity:1;stroke:none;font-family:Bitstream Vera Sans"
       transform="matrix(2.1533696,0,0,2.1533696,1012.6491,-193.07313)"><flowRegion
         id="flowRegion4215-2"><rect
           id="rect4217-1"
           width="71.428574"
           height="74.285713"
           x="-294.28571"
           y="152.36218" /></flowRegion><flowPara
         id="flowPara4219-7">1</flowPara></flowRoot>    <flowRoot
       xml:space="preserve"
       id="flowRoot4213-97"
       style="font-size:40px;font-style:normal;font-weight:normal;fill:#000000;fill-opacity:1;stroke:none;font-family:Bitstream Vera Sans"
       transform="matrix(2.1533696,0,0,2.1533696,1484.0777,-107.35884)"><flowRegion
         id="flowRegion4215-6"><rect
           id="rect4217-2"
           width="71.428574"
           height="74.285713"
           x="-294.28571"
           y="152.36218" /></flowRegion><flowPara
         id="flowPara4219-71">1</flowPara></flowRoot>    <flowRoot
       xml:space="preserve"
       id="flowRoot4213-4"
       style="font-size:40px;font-style:normal;font-weight:normal;fill:#000000;fill-opacity:1;stroke:none;font-family:Bitstream Vera Sans"
       transform="matrix(2.1533696,0,0,2.1533696,612.64909,201.21259)"><flowRegion
         id="flowRegion4215-5"><rect
           id="rect4217-6"
           width="71.428574"
           height="74.285713"
           x="-294.28571"
           y="152.36218" /></flowRegion><flowPara
         id="flowPara4219-5">1</flowPara></flowRoot>    <flowRoot
       xml:space="preserve"
       id="flowRoot4213-8"
       style="font-size:40px;font-style:normal;font-weight:normal;fill:#000000;fill-opacity:1;stroke:none;font-family:Bitstream Vera Sans"
       transform="matrix(2.1533696,0,0,2.1533696,1058.3634,332.64116)"><flowRegion
         id="flowRegion4215-8"><rect
           id="rect4217-3"
           width="71.428574"
           height="74.285713"
           x="-294.28571"
           y="152.36218" /></flowRegion><flowPara
         id="flowPara4219-8">1</flowPara></flowRoot>    <flowRoot
       xml:space="preserve"
       id="flowRoot4213-2"
       style="font-size:40px;font-style:normal;font-weight:normal;fill:#000000;fill-opacity:1;stroke:none;font-family:Bitstream Vera Sans"
       transform="matrix(2.1533696,0,0,2.1533696,1532.6491,235.4983)"><flowRegion
         id="flowRegion4215-4"><rect
           id="rect4217-5"
           width="71.428574"
           height="74.285713"
           x="-294.28571"
           y="152.36218" /></flowRegion><flowPara
         id="flowPara4219-05">1</flowPara></flowRoot>    <flowRoot
       xml:space="preserve"
       id="flowRoot4213-6"
       style="font-size:40px;font-style:normal;font-weight:normal;fill:#000000;fill-opacity:1;stroke:none;font-family:Bitstream Vera Sans"
       transform="matrix(2.1533696,0,0,2.1533696,175.50623,52.641154)"><flowRegion
         id="flowRegion4215-0"><rect
           id="rect4217-64"
           width="71.428574"
           height="74.285713"
           x="-294.28571"
           y="152.36218" /></flowRegion><flowPara
         id="flowPara4219-09">s</flowPara></flowRoot>    <flowRoot
       xml:space="preserve"
       id="flowRoot4213-5"
       style="font-size:40px;font-style:normal;font-weight:normal;fill:#000000;fill-opacity:1;stroke:none;font-family:Bitstream Vera Sans"
       transform="matrix(2.1533696,0,0,2.1533696,1781.2205,66.926868)"><flowRegion
         id="flowRegion4215-46"><rect
           id="rect4217-63"
           width="71.428574"
           height="74.285713"
           x="-294.28571"
           y="152.36218" /></flowRegion><flowPara
         id="flowPara4219-9">t</flowPara></flowRoot>    <path
       style="fill:none;stroke:#000000;stroke-width:5.19999981;stroke-linecap:butt;stroke-linejoin:miter;stroke-miterlimit:4;stroke-opacity:1;stroke-dasharray:none;marker-end:url(#Arrow1Lend)"
       d="M 644.48339,607.25774 250.19768,301.54345"
       id="path2898-3-3"
       sodipodi:nodetypes="cc" />
    <flowRoot
       xml:space="preserve"
       id="flowRoot4213-4-3"
       style="font-size:40px;font-style:normal;font-weight:normal;fill:#000000;fill-opacity:1;stroke:none;font-family:Bitstream Vera Sans"
       transform="matrix(2.1533696,0,0,2.1533696,1100.0219,13.250995)"><flowRegion
         id="flowRegion4215-5-9"><rect
           id="rect4217-6-6"
           width="71.428574"
           height="74.285713"
           x="-294.28571"
           y="152.36218" /></flowRegion><flowPara
         id="flowPara4219-5-4">2</flowPara></flowRoot>    <path
       style="fill:none;stroke:#000000;stroke-width:5.19999981;stroke-linecap:butt;stroke-linejoin:miter;stroke-miterlimit:4;stroke-opacity:1;stroke-dasharray:none;marker-end:url(#Arrow1Lend)"
       d="m -113.71429,469.50504 -208.57143,0"
       id="path2898-71" />
    <flowRoot
       xml:space="preserve"
       id="flowRoot4213-1"
       style="font-size:40px;font-style:normal;font-weight:normal;fill:#000000;fill-opacity:1;stroke:none;font-family:Bitstream Vera Sans"
       transform="matrix(2.1533696,0,0,2.1533696,406.46374,135.45624)"><flowRegion
         id="flowRegion4215-20"><rect
           id="rect4217-73"
           width="71.428574"
           height="74.285713"
           x="-294.28571"
           y="152.36218" /></flowRegion><flowPara
         id="flowPara4219-07">2</flowPara></flowRoot>  </g>
</svg>
