<?xml version="1.0" encoding="UTF-8" standalone="no"?>
<!-- Created with Inkscape (http://www.inkscape.org/) -->

<svg
   xmlns:dc="http://purl.org/dc/elements/1.1/"
   xmlns:cc="http://creativecommons.org/ns#"
   xmlns:rdf="http://www.w3.org/1999/02/22-rdf-syntax-ns#"
   xmlns:svg="http://www.w3.org/2000/svg"
   xmlns="http://www.w3.org/2000/svg"
   xmlns:sodipodi="http://sodipodi.sourceforge.net/DTD/sodipodi-0.dtd"
   xmlns:inkscape="http://www.inkscape.org/namespaces/inkscape"
   width="1672.4994"
   height="560.87195"
   id="svg3042"
   version="1.1"
   inkscape:version="0.47pre4 r22446"
   sodipodi:docname="c14d2.svg">
  <defs
     id="defs3044">
    <inkscape:perspective
       sodipodi:type="inkscape:persp3d"
       inkscape:vp_x="0 : 526.18109 : 1"
       inkscape:vp_y="0 : 1000 : 0"
       inkscape:vp_z="744.09448 : 526.18109 : 1"
       inkscape:persp3d-origin="372.04724 : 350.78739 : 1"
       id="perspective3050" />
  </defs>
  <sodipodi:namedview
     id="base"
     pagecolor="#ffffff"
     bordercolor="#666666"
     borderopacity="1.0"
     inkscape:pageopacity="0.0"
     inkscape:pageshadow="2"
     inkscape:zoom="0.35"
     inkscape:cx="548.39753"
     inkscape:cy="201.16268"
     inkscape:document-units="px"
     inkscape:current-layer="layer1"
     showgrid="false"
     inkscape:window-width="1280"
     inkscape:window-height="726"
     inkscape:window-x="0"
     inkscape:window-y="25"
     inkscape:window-maximized="1" />
  <metadata
     id="metadata3047">
    <rdf:RDF>
      <cc:Work
         rdf:about="">
        <dc:format>image/svg+xml</dc:format>
        <dc:type
           rdf:resource="http://purl.org/dc/dcmitype/StillImage" />
        <dc:title></dc:title>
      </cc:Work>
    </rdf:RDF>
  </metadata>
  <g
     inkscape:label="Layer 1"
     inkscape:groupmode="layer"
     id="layer1"
     transform="translate(173.39753,-172.65294)">
    <path
       style="color:#000000;fill:#000000;fill-opacity:1;stroke:#000000;stroke-width:1.5;stroke-linecap:butt;stroke-linejoin:miter;stroke-miterlimit:4;stroke-opacity:1;stroke-dasharray:none;stroke-dashoffset:0;marker:none;visibility:visible;display:inline;overflow:visible;enable-background:accumulate"
       id="path3052"
       d="m -104.16429,304.67619 c -5.77303,16.86543 -5.93809,35.13303 -6.76119,52.76709 -0.61276,32.1399 1.39864,64.25145 4.12723,96.25668 3.65677,38.92905 6.23295,77.93713 8.567436,116.96432 2.602741,36.95227 4.170374,73.9682 7.291044,110.88303 1.026749,11.26505 2.044497,22.57633 3.902061,33.74479 0.84328,5.07016 1.652434,10.20294 4.254291,14.6682 0,0 -4.88204,2.81456 -4.88204,2.81456 l 0,0 c -2.557623,-4.59903 -3.372397,-9.75875 -4.205784,-14.93626 -1.803565,-11.20485 -2.790819,-22.54568 -3.778386,-33.842 -3.02954,-36.94497 -4.545232,-73.98659 -7.167642,-110.96076 -2.33696,-39.01175 -4.95168,-78.00156 -8.63843,-116.91237 -2.76183,-32.00762 -4.77556,-64.12074 -4.26157,-96.26578 0.76772,-17.6639 0.93586,-35.87342 6.4024,-52.85121 0,0 5.15058,-2.33029 5.15058,-2.33029 z" />
    <path
       style="color:#000000;fill:#000000;fill-opacity:1;stroke:#000000;stroke-width:1.5;stroke-linecap:butt;stroke-linejoin:miter;stroke-miterlimit:4;stroke-opacity:1;stroke-dasharray:none;stroke-dashoffset:0;marker:none;visibility:visible;display:inline;overflow:visible;enable-background:accumulate"
       id="path3054"
       d="m -95.298894,496.79036 c 11.142046,1.4705 22.383952,1.88 33.606179,2.20261 17.952493,0.33592 35.890801,-1.21999 53.7823149,-2.53356 30.8579461,-2.15566 61.8047731,-2.09554 92.7115781,-2.92267 51.378612,-1.26043 102.689602,-4.31848 154.009652,-6.96021 57.28664,-3.73645 114.66231,-5.41909 172.05272,-6.37113 62.62696,-0.65495 125.25224,-0.64796 187.87634,-1.58069 65.36716,-0.48787 130.66763,-3.66476 195.96624,-6.41539 63.95297,-2.633 127.91344,-4.82342 191.91021,-6.00561 59.23256,-1.63435 118.47426,-2.77141 177.72546,-3.4033 48.6246,-0.85001 97.2346,-0.29908 145.8483,0.74708 34.0813,0.84652 68.0854,3.124 102.0187,6.31633 3.7599,0.47301 7.5198,0.94601 11.2798,1.41902 0,0 -4.4183,3.12562 -4.4183,3.12562 l 0,0 c -3.7421,-0.47869 -7.4843,-0.95738 -11.2264,-1.43607 -33.8643,-3.24905 -67.8036,-5.5454 -101.8208,-6.41137 -48.5623,-1.08578 -97.1218,-1.65749 -145.6963,-0.83708 -59.2277,0.61131 -118.4457,1.73494 -177.65486,3.35668 -63.98383,1.17871 -127.93168,3.35776 -191.87167,5.99169 -65.30441,2.75569 -130.61137,5.91156 -195.98417,6.41215 -62.64172,0.93564 -125.28493,0.94336 -187.92936,1.62047 -57.39915,0.97372 -114.78284,2.68399 -172.07882,6.41146 -51.38969,2.64582 -102.76872,5.73051 -154.213585,7.09429 -30.9591,0.85379 -61.95933,0.84839 -92.86621,3.06701 -17.931095,1.33711 -35.910427,2.90816 -53.904993,2.55367 -11.267057,-0.32047 -22.548383,-0.75427 -33.739549,-2.18526 0,0 4.617523,-3.25574 4.617523,-3.25574 z" />
    <path
       style="color:#000000;fill:#000000;fill-opacity:1;stroke:#000000;stroke-width:1.5;stroke-linecap:butt;stroke-linejoin:miter;stroke-miterlimit:4;stroke-opacity:1;stroke-dasharray:none;stroke-dashoffset:0;marker:none;visibility:visible;display:inline;overflow:visible;enable-background:accumulate"
       id="path3056"
       d="m 1247.9075,447.79359 c -1.0891,7.98967 -1.6046,16.01263 -3.0192,23.95462 -1.0184,5.39962 -1.795,10.84144 -2.1917,16.32212 -0.3719,2.0832 -1.1473,4.07995 -2.4368,5.76458 -0.093,0.12163 -0.2002,0.23023 -0.3002,0.34535 0,0 -5.2998,2.12457 -5.2998,2.12457 l 0,0 c 0.1163,-0.0815 0.2739,-0.10082 0.3488,-0.24442 1.4121,-1.49751 2.1566,-3.48468 2.6265,-5.45623 0.3851,-5.50713 1.1877,-10.97221 2.2067,-16.39681 1.4403,-7.92692 2.0007,-15.92931 2.9957,-23.92047 0,0 5.07,-2.49331 5.07,-2.49331 z" />
    <path
       style="color:#000000;fill:#000000;fill-opacity:1;stroke:#000000;stroke-width:1.5;stroke-linecap:butt;stroke-linejoin:miter;stroke-miterlimit:4;stroke-opacity:1;stroke-dasharray:none;stroke-dashoffset:0;marker:none;visibility:visible;display:inline;overflow:visible;enable-background:accumulate"
       id="path3058"
       d="m 1256.4859,527.45574 c -1.1774,9.63513 -3.8575,18.96383 -6.4031,28.29952 -3.4962,11.72903 -7.6892,23.22491 -11.65,34.79749 -1.148,6.01792 -4.4913,11.51041 -5.6923,17.4768 0.75,3.29941 4.6899,3.95937 7.5129,4.52854 7.229,0.69014 14.3873,1.92193 21.6007,2.7765 6.4045,0.66829 12.8381,0.9437 19.2731,1.06589 2.2026,0.0229 4.4061,0.0554 6.6087,0.013 0.071,-0.002 0.1423,-0.005 0.2135,-0.007 0,0 -4.6121,3.36401 -4.6121,3.36401 l 0,0 c -0.071,3.8e-4 -0.1419,7.6e-4 -0.2129,10e-4 -2.1915,0.007 -4.3831,-0.0221 -6.5743,-0.0604 -6.4361,-0.14435 -12.8694,-0.45267 -19.2737,-1.13357 -7.2298,-0.8744 -14.4173,-2.05306 -21.6592,-2.79649 -3.2263,-0.71001 -7.1001,-1.60318 -7.975,-5.27122 1.0354,-6.0304 4.6839,-11.51809 5.7435,-17.59183 3.9495,-11.56971 8.2123,-23.03619 11.6758,-34.77039 2.524,-9.30337 5.2567,-18.59375 6.3405,-28.20676 0,0 5.0839,-2.48547 5.0839,-2.48547 z" />
    <path
       style="color:#000000;fill:#000000;fill-opacity:1;stroke:#000000;stroke-width:1.5;stroke-linecap:butt;stroke-linejoin:miter;stroke-miterlimit:4;stroke-opacity:1;stroke-dasharray:none;stroke-dashoffset:0;marker:none;visibility:visible;display:inline;overflow:visible;enable-background:accumulate"
       id="path3060"
       d="m -146.63,343.47695 c 5.67167,-4.98948 10.57109,-10.75698 14.39218,-17.26693 2.70454,-4.64583 5.68792,-9.10511 8.79953,-13.48781 2.75888,-3.42678 5.38763,-6.96984 8.40707,-10.17367 2.81144,-2.6971 6.10019,-6.66902 10.28267,-5.20528 3.7612,3.19742 7.03392,7.02835 10.173918,10.83286 5.219511,5.58706 9.056117,12.63515 15.074471,17.40637 0,0 -4.771311,2.99429 -4.771311,2.99429 l 0,0 c -5.966895,-4.895 -9.882336,-11.87785 -15.118836,-17.51069 -3.086582,-3.69925 -6.280872,-7.5233 -10.057572,-10.52229 -0.54687,-0.15082 -2.14599,0.0948 -1.68538,-0.23635 8.01341,-5.76067 2.82629,-1.4351 1.32799,0.0625 -3.06098,3.15834 -5.65025,6.71042 -8.44652,10.10242 -3.13205,4.37106 -6.1249,8.82077 -8.85327,13.45346 -3.76473,6.57407 -8.66291,12.35589 -14.27587,17.44457 0,0 -5.24907,2.1065 -5.24907,2.1065 z" />
    <path
       style="color:#000000;fill:#000000;fill-opacity:1;stroke:#000000;stroke-width:1.5;stroke-linecap:butt;stroke-linejoin:miter;stroke-miterlimit:4;stroke-opacity:1;stroke-dasharray:none;stroke-dashoffset:0;marker:none;visibility:visible;display:inline;overflow:visible;enable-background:accumulate"
       id="path3062"
       d="m -156.83692,173.40294 c 2.08937,9.21015 5.07652,18.26557 9.28677,26.7251 1.50978,2.60905 2.82989,5.83475 5.72973,7.25161 2.08859,1.02049 3.72224,-0.22123 3.62587,-0.12708 -0.77738,0.75947 -1.91022,1.03707 -2.86533,1.55561 5.75058,-4.74774 8.27152,-11.87421 11.01511,-18.55648 2.51343,-4.17854 2.11049,-9.86787 5.11461,-13.71691 2.08175,-0.70765 4.05953,-1.88401 6.24525,-2.12293 1.40174,-0.15323 5.66328,11.60298 6.10412,12.85935 2.56151,7.07438 5.3295,14.09423 7.5141,21.29961 1.93189,5.93249 1.70591,11.19202 -0.52453,16.93238 -4.60315,9.98743 -13.03135,17.13473 -21.13833,24.21447 -13.4804,11.44724 -28.78132,20.99932 -45.91798,25.68531 0,0 4.3787,-3.36634 4.3787,-3.36634 l 0,0 c 14.27329,-4.03096 25.29412,-10.22721 36.41928,-20.23895 8.06158,-7.02328 16.47572,-14.06419 21.15328,-23.93136 2.40062,-5.9467 2.57009,-10.39802 0.68831,-16.59322 -2.1493,-7.20901 -4.90887,-14.22474 -7.48701,-21.28523 -1.09791,-3.12455 -2.16607,-6.33875 -3.67316,-9.29998 -0.35615,-0.69977 -0.7491,-1.38491 -1.20645,-2.02315 -0.29479,-0.4114 -1.30364,-0.67794 -1.03761,-1.1085 0.86329,-1.39717 2.47952,-2.1544 3.71927,-3.23161 -3.40482,3.45693 -2.66843,9.53954 -5.25577,13.57612 -2.77369,6.73659 -5.25671,13.87612 -10.83473,18.88177 -9.98523,5.6252 -10.85552,6.48197 -16.63,-3.88707 -4.21164,-8.49232 -7.1938,-17.57347 -9.3826,-26.78935 0,0 4.9591,-2.70317 4.9591,-2.70317 z" />
    <path
       style="color:#000000;fill:#000000;fill-opacity:1;stroke:#000000;stroke-width:1.5;stroke-linecap:butt;stroke-linejoin:miter;stroke-miterlimit:4;stroke-opacity:1;stroke-dasharray:none;stroke-dashoffset:0;marker:none;visibility:visible;display:inline;overflow:visible;enable-background:accumulate"
       id="path3064"
       d="m 1403.8038,430.12774 c 4.1556,7.48123 10.5403,13.36132 17.026,18.80327 4.9899,4.23707 11.2507,5.90484 17.2745,8.05141 2.7572,0.91071 6.5776,1.54484 5.3754,5.21437 -2.0604,4.38204 -5.8846,7.39709 -9.4625,10.48792 -6.1269,5.18338 -12.5143,10.0377 -18.5984,15.27772 -5.6016,4.45428 -10.6509,9.37241 -15.466,14.64166 -2.9825,3.09909 -5.5715,6.51716 -8.9914,9.15914 0,0 -5.2593,2.08886 -5.2593,2.08886 l 0,0 c 3.5266,-2.51967 6.0661,-5.97206 9.0531,-9.06962 4.8601,-5.24962 9.7974,-10.30728 15.4733,-14.71451 6.0651,-5.24915 12.4342,-10.11006 18.5708,-15.26673 3.5395,-3.05 7.3745,-5.9594 9.5138,-10.23341 1.7813,-3.10205 -2.8392,-3.61252 -4.8873,-4.42627 -6.0672,-2.18461 -12.3501,-3.92454 -17.3477,-8.24214 -6.5145,-5.4932 -12.893,-11.43691 -17.1478,-18.91591 0,0 4.8735,-2.85576 4.8735,-2.85576 z" />
    <path
       style="color:#000000;fill:#000000;fill-opacity:1;stroke:#000000;stroke-width:1.5;stroke-linecap:butt;stroke-linejoin:miter;stroke-miterlimit:4;stroke-opacity:1;stroke-dasharray:none;stroke-dashoffset:0;marker:none;visibility:visible;display:inline;overflow:visible;enable-background:accumulate"
       id="path3066"
       d="m 1498.3519,499.32049 c -6.1078,12.03526 -13.1651,23.49016 -20.7643,34.6354 -6.7091,9.22799 -13.5631,18.49529 -21.7501,26.48337 0,0 -5.1887,2.13789 -5.1887,2.13789 l 0,0 c 8.2977,-7.89342 15.1248,-17.22382 21.8904,-26.41926 7.5942,-11.09476 14.6777,-22.4881 20.6605,-34.54076 0,0 5.1522,-2.29664 5.1522,-2.29664 z" />
    <path
       style="color:#000000;fill:#000000;fill-opacity:1;stroke:#000000;stroke-width:1.5;stroke-linecap:butt;stroke-linejoin:miter;stroke-miterlimit:4;stroke-opacity:1;stroke-dasharray:none;stroke-dashoffset:0;marker:none;visibility:visible;display:inline;overflow:visible;enable-background:accumulate"
       id="path3068"
       d="m 1464.1175,521.1664 c 6.487,6.66442 13.2856,13.02442 19.5281,19.9207 4.7476,5.77707 8.7545,12.09683 12.9277,18.28705 0,0 -4.8366,2.8363 -4.8366,2.8363 l 0,0 c -4.1351,-6.18235 -8.1458,-12.46657 -12.8653,-18.22979 -6.2508,-6.88269 -13.0203,-13.26759 -19.5712,-19.8622 0,0 4.8173,-2.95206 4.8173,-2.95206 z" />
    <path
       style="color:#000000;fill:#000000;fill-opacity:1;stroke:#000000;stroke-width:1.5;stroke-linecap:butt;stroke-linejoin:miter;stroke-miterlimit:4;stroke-opacity:1;stroke-dasharray:none;stroke-dashoffset:0;marker:none;visibility:visible;display:inline;overflow:visible;enable-background:accumulate"
       id="path3188"
       d="m 593.6218,464.93644 c -1.13375,10.21633 -2.06877,20.42578 -3.86572,30.55625 -1.57058,8.83359 -4.06474,17.4806 -6.84385,26.00117 -1.61057,3.66669 -0.7746,1.9576 -2.46834,5.14643 0,0 -5.15189,2.31045 -5.15189,2.31045 l 0,0 c 1.73581,-3.13991 0.87789,-1.45778 2.53573,-5.0656 2.79335,-8.50799 5.34776,-17.13068 6.93069,-25.95621 1.8147,-10.1064 2.77154,-20.29116 3.7934,-30.49918 0,0 5.06998,-2.49331 5.06998,-2.49331 z" />
    <path
       style="color:#000000;fill:#000000;fill-opacity:1;stroke:#000000;stroke-width:1.5;stroke-linecap:butt;stroke-linejoin:miter;stroke-miterlimit:4;stroke-opacity:1;stroke-dasharray:none;stroke-dashoffset:0;marker:none;visibility:visible;display:inline;overflow:visible;enable-background:accumulate"
       id="path3190"
       d="m 562.51734,576.32902 c -0.77094,7.71851 -1.70334,15.41786 -2.33908,23.15002 -0.11764,2.49202 -1.55512,7.49578 2.56311,5.92074 3.34879,-1.47984 6.85983,-2.32467 10.47282,-2.83059 3.61838,-0.46151 7.27605,-0.43917 10.91737,-0.46889 2.39469,0.0852 4.42875,-1.39319 6.64444,-2.13606 0,0 -4.48583,3.49434 -4.48583,3.49434 l 0,0 c -2.21955,0.80013 -4.28885,2.18485 -6.74411,1.97861 -3.62537,0.0256 -7.26662,0.0297 -10.86486,0.52812 -3.60267,0.56054 -7.06839,1.51208 -10.44735,2.89111 -4.48112,0.72879 -3.37558,-3.81277 -3.09079,-6.86407 0.64501,-7.71364 1.58445,-15.39553 2.3396,-23.09803 0,0 5.03468,-2.5653 5.03468,-2.5653 z" />
    <path
       style="color:#000000;fill:#000000;fill-opacity:1;stroke:#000000;stroke-width:1.5;stroke-linecap:butt;stroke-linejoin:miter;stroke-miterlimit:4;stroke-opacity:1;stroke-dasharray:none;stroke-dashoffset:0;marker:none;visibility:visible;display:inline;overflow:visible;enable-background:accumulate"
       id="path3192"
       d="m 641.23353,575.81707 c -7.13197,10.78291 -15.18332,20.90608 -22.85779,31.3029 -7.29693,10.46466 -14.8746,20.71328 -23.0257,30.52775 -2.01801,2.42176 -3.62508,5.13823 -5.69094,7.51915 0,0 -5.25387,2.19842 -5.25387,2.19842 l 0,0 c 2.25034,-2.25908 3.72014,-5.12356 5.79768,-7.53095 8.20586,-9.7964 15.82863,-20.03892 23.12143,-30.53287 7.64659,-10.36552 15.70956,-20.44116 22.70802,-31.26226 0,0 5.20117,-2.22214 5.20117,-2.22214 z" />
    <path
       style="color:#000000;fill:#000000;fill-opacity:1;stroke:#000000;stroke-width:1.5;stroke-linecap:butt;stroke-linejoin:miter;stroke-miterlimit:4;stroke-opacity:1;stroke-dasharray:none;stroke-dashoffset:0;marker:none;visibility:visible;display:inline;overflow:visible;enable-background:accumulate"
       id="path3194"
       d="m 630.20814,631.44371 c 6.7303,-8.41851 15.59897,-13.90067 25.43548,-18.10672 6.74626,-1.82811 9.84541,-0.0207 11.71321,6.48865 0.94363,8.55263 -2.10793,16.47943 -5.13453,24.29204 -2.17677,5.91786 -6.13247,11.44437 -7.06611,17.76913 1.0965,3.62142 6.55327,3.05276 9.60448,3.18376 4.18607,0.44401 8.14882,-0.45811 12.06937,-1.82692 0,0 -4.48144,3.48514 -4.48144,3.48514 l 0,0 c -3.96342,1.3019 -7.97592,2.08308 -12.17185,1.63961 -3.5309,-0.17809 -8.90174,0.19042 -10.10258,-3.97642 0.76626,-6.39708 4.87359,-11.98042 7.07449,-17.92184 3.00642,-7.70475 6.0867,-15.49363 5.25359,-23.94529 -1.76999,-6.33904 -4.77581,-7.58692 -11.16024,-5.70684 -1.17137,0.51239 -2.28962,1.1694 -3.51413,1.53718 -0.34969,0.10503 1.13341,-0.91293 0.81879,-0.72764 -5.09989,3.00364 -9.27349,7.13538 -13.16356,11.55194 0,0 -5.17497,2.26422 -5.17497,2.26422 z" />
    <path
       style="color:#000000;fill:#000000;fill-opacity:1;stroke:#000000;stroke-width:1.5;stroke-linecap:butt;stroke-linejoin:miter;stroke-miterlimit:4;stroke-opacity:1;stroke-dasharray:none;stroke-dashoffset:0;marker:none;visibility:visible;display:inline;overflow:visible;enable-background:accumulate"
       id="path3196"
       d="m -92.97857,514.33389 c 4.477438,-8.79027 9.931456,-16.93622 15.991871,-24.69656 7.401542,-9.9971 15.380696,-19.47093 23.916558,-28.51043 10.898505,-11.69951 22.806667,-22.36049 35.175421,-32.46802 16.0415682,-12.54771 32.578504,-24.4246 49.351405,-35.96987 20.789723,-13.79047 42.480368,-26.16793 64.380626,-38.09262 22.575649,-11.71763 45.510119,-22.72304 68.540269,-33.5129 20.44367,-9.46263 41.71797,-16.91058 63.13263,-23.82115 18.06538,-5.85212 36.90391,-7.88009 55.76023,-8.94572 17.3938,-1.26887 34.63199,1.02391 51.76968,3.66915 17.23915,2.69489 34.01974,7.4838 50.59416,12.82921 15.31431,5.69158 30.24129,12.38197 45.07219,19.22069 12.01503,5.43131 23.81679,11.16374 34.74623,18.56298 9.28824,5.9721 17.466,13.41946 25.6782,20.75286 7.54244,6.70522 14.70218,13.783 21.37556,21.34859 6.29796,6.37466 11.1562,13.83931 16.27025,21.1356 4.76185,6.73308 10.34369,12.81156 16.01204,18.77883 5.09846,5.64342 10.88173,10.571 16.26595,15.92112 4.03942,3.57396 7.85946,7.42496 12.39574,10.38242 3.49514,2.52572 6.99708,4.81861 9.89139,8.04227 2.3333,2.98119 4.69913,6.04196 6.27024,9.5118 0.98372,3.49313 2.53578,6.77285 3.54006,10.25808 0.29938,3.09044 1.7086,5.84461 2.50633,8.80736 0.4024,1.62726 0.87513,4.05768 1.04116,5.37138 -1.64751,0.54234 -3.20978,1.54973 -4.94255,1.62703 -0.48599,0.0217 0.19615,-0.95399 0.33135,-1.4213 0.62683,-2.16655 1.33905,-4.34772 2.06522,-6.48252 1.49316,-5.25668 3.45511,-10.33426 5.49888,-15.39618 2.48171,-6.75099 5.5694,-13.2073 9.00183,-19.52095 4.31642,-6.29082 8.06338,-12.98868 12.71626,-19.03916 5.85964,-6.89143 12.43474,-13.12838 18.88005,-19.46148 6.33252,-6.84215 13.41091,-12.77658 20.60577,-18.65528 6.70308,-5.30769 13.80461,-10.06554 20.53877,-15.33194 7.06611,-5.72363 14.48272,-10.83867 22.29911,-15.47195 10.19312,-5.78644 20.64907,-11.26127 31.37821,-16.00075 10.01286,-4.32232 20.04348,-8.5726 30.11538,-12.75762 10.82994,-4.67625 21.96553,-8.60792 33.11961,-12.43163 12.1043,-4.45632 24.60265,-7.7757 37.1596,-10.68186 12.98841,-3.33029 26.21666,-5.68283 39.49112,-7.5316 13.7694,-2.3514 27.68195,-3.58133 41.5309,-5.34151 11.57053,-1.51094 23.2256,-2.12525 34.88146,-2.43776 9.7345,-0.20537 19.47199,-0.17886 29.20809,-0.16874 8.82149,0.20187 17.67602,-0.39402 26.47202,0.38213 7.4456,0.65432 14.7423,2.08304 22.0642,3.51287 6.8642,1.87363 13.8058,3.35456 20.4926,5.81998 7.342,2.19133 14.0676,5.925 21.0938,8.9136 7.1421,3.18241 14.2921,6.32768 21.262,9.87771 6.828,3.18004 13.2092,7.21334 19.7317,10.96584 6.9833,4.1778 13.1185,9.567 19.4707,14.61433 6.3626,5.8548 13.8019,10.24409 20.8112,15.2425 6.2033,4.29505 11.0386,10.10795 16.3884,15.33834 5.1688,4.70767 9.6194,10.13273 14.3326,15.28416 3.9648,5.43167 8.8125,10.07323 13.1832,15.15892 4.3019,5.078 8.8398,9.94777 13.4447,14.75021 4.1529,4.29169 8.3803,8.51017 12.6024,12.73345 3.0235,3.2299 6.5144,6.05031 9.2272,9.55423 1.8885,3.03326 4.0405,5.86763 6.3782,8.56459 1.4175,1.92425 4.0198,4.23331 4.2994,6.77262 -1.9366,0.76976 -3.8733,1.53953 -5.81,2.30929 0,0 4.7714,-3.09538 4.7714,-3.09538 l 0,0 c -1.3572,1.10797 -2.7143,2.21593 -4.0715,3.3239 -0.6825,-2.24986 -2.3112,-4.58667 -4.0377,-6.38629 -2.3469,-2.70223 -4.503,-5.54786 -6.3949,-8.59052 -2.7076,-3.47618 -6.1762,-6.28287 -9.1717,-9.50518 -4.2238,-4.2257 -8.4421,-8.45724 -12.598,-12.74984 -4.6126,-4.80896 -9.1397,-9.70209 -13.461,-14.77603 -4.37,-5.0768 -9.199,-9.72799 -13.1638,-15.15035 -4.7094,-5.14183 -9.1611,-10.55157 -14.3183,-15.25743 -5.3119,-5.22628 -10.1561,-10.99034 -16.3281,-15.27232 -7.0205,-4.99615 -14.4487,-9.4169 -20.8231,-15.26945 -6.3368,-5.02704 -12.4609,-10.39234 -19.4357,-14.53736 -6.5188,-3.74273 -12.897,-7.76191 -19.7172,-10.94075 -6.9671,-3.53081 -14.1051,-6.67498 -21.2394,-9.84793 -7.0115,-3.00622 -13.7503,-6.69564 -21.0876,-8.88159 -6.677,-2.41469 -13.5911,-3.92026 -20.4419,-5.74826 -7.301,-1.44013 -14.5906,-2.81529 -22.0158,-3.47155 -8.78603,-0.704 -17.62137,-0.16779 -26.42837,-0.35622 -9.7299,-0.006 -19.46109,-0.0336 -29.18938,0.17451 -11.63578,0.32379 -23.2701,0.94241 -34.81993,2.46057 -13.84697,1.75164 -27.7567,2.98693 -41.52235,5.34423 -13.26528,1.873 -26.48063,4.24757 -39.46423,7.57316 -12.55066,2.93359 -25.03851,6.27346 -37.14046,10.73837 -11.1534,3.82559 -22.27659,7.78898 -33.106,12.46565 -10.07571,4.18177 -20.10344,8.45005 -30.11702,12.77694 -7.5294,3.38066 -14.80401,7.29518 -22.2472,10.86088 -0.17029,0.0816 0.30513,-0.2225 0.4577,-0.33374 -7.82521,4.60792 -15.26391,9.66586 -22.31717,15.39989 -6.71896,5.28948 -13.81636,10.05085 -20.54881,15.3228 -7.16628,5.90523 -14.34305,11.72449 -20.63362,18.6126 -6.43427,6.32353 -12.99073,12.55355 -18.89368,19.38632 -4.70633,5.98787 -8.35156,12.725 -12.73589,18.9495 -3.45504,6.28166 -6.56035,12.7116 -9.01574,19.45456 -2.0294,5.05469 -4.05129,10.098 -5.48777,15.36137 -2.30441,6.46207 -0.69593,7.06727 -7.45643,11.64898 -0.49087,-1.81814 -0.62593,-3.79831 -1.14487,-5.64093 -0.78638,-2.9644 -2.23812,-5.70239 -2.50873,-8.79584 -0.97257,-3.46809 -2.52113,-6.72056 -3.494,-10.18885 -1.53266,-3.42255 -3.87679,-6.42951 -6.17043,-9.36588 -2.87785,-3.16687 -6.36592,-5.42017 -9.81385,-7.92245 -4.52534,-3.02872 -8.39111,-6.86829 -12.43058,-10.49256 -5.38753,-5.35155 -11.15185,-10.30603 -16.25872,-15.94475 -5.68389,-5.98994 -11.27762,-12.09408 -16.04982,-18.85309 -5.0982,-7.28059 -9.95045,-14.72366 -16.22211,-21.0916 -6.65916,-7.54947 -13.81505,-14.59997 -21.33764,-21.2942 -8.18673,-7.32299 -16.35362,-14.74228 -25.6191,-20.70154 -10.90578,-7.37182 -22.69087,-13.07257 -34.66371,-18.50946 -14.80491,-6.83853 -29.70529,-13.53607 -45.0125,-19.18079 -16.55639,-5.32911 -33.31947,-10.09422 -50.54109,-12.76003 -17.11446,-2.63456 -34.33335,-4.85866 -51.69868,-3.5784 -18.82105,1.08845 -37.6181,3.15686 -55.64037,9.02985 -21.38813,6.92114 -42.6394,14.36669 -63.0525,23.84462 -23.02946,10.79132 -45.96493,21.79661 -68.525725,33.54321 -18.766712,10.23528 -37.364949,20.81059 -55.131826,32.72492 -16.761706,11.52669 -33.2810184,23.3903 -49.319685,35.90927 -12.36333,10.07364 -24.265404,20.70384 -35.150548,32.38105 -8.535098,9.01723 -16.534595,18.44865 -23.905033,28.44974 -6.060367,7.7062 -11.531643,15.78756 -15.958825,24.55874 0,0 -5.150578,2.33029 -5.150578,2.33029 z" />
  </g>
</svg>
