<?xml version="1.0" encoding="UTF-8" standalone="no"?>
<!-- Created with Inkscape (http://www.inkscape.org/) -->

<svg
   xmlns:dc="http://purl.org/dc/elements/1.1/"
   xmlns:cc="http://creativecommons.org/ns#"
   xmlns:rdf="http://www.w3.org/1999/02/22-rdf-syntax-ns#"
   xmlns:svg="http://www.w3.org/2000/svg"
   xmlns="http://www.w3.org/2000/svg"
   xmlns:sodipodi="http://sodipodi.sourceforge.net/DTD/sodipodi-0.dtd"
   xmlns:inkscape="http://www.inkscape.org/namespaces/inkscape"
   width="1427.0254"
   height="330.13367"
   id="svg2"
   version="1.1"
   inkscape:version="0.47pre4 r22446"
   sodipodi:docname="New document 1">
  <defs
     id="defs4">
    <inkscape:perspective
       sodipodi:type="inkscape:persp3d"
       inkscape:vp_x="0 : 526.18109 : 1"
       inkscape:vp_y="0 : 1000 : 0"
       inkscape:vp_z="744.09448 : 526.18109 : 1"
       inkscape:persp3d-origin="372.04724 : 350.78739 : 1"
       id="perspective10" />
  </defs>
  <sodipodi:namedview
     id="base"
     pagecolor="#ffffff"
     bordercolor="#666666"
     borderopacity="1.0"
     inkscape:pageopacity="0.0"
     inkscape:pageshadow="2"
     inkscape:zoom="0.35"
     inkscape:cx="601.675"
     inkscape:cy="91.090867"
     inkscape:document-units="px"
     inkscape:current-layer="layer1"
     showgrid="false"
     inkscape:window-width="1280"
     inkscape:window-height="726"
     inkscape:window-x="0"
     inkscape:window-y="25"
     inkscape:window-maximized="1" />
  <metadata
     id="metadata7">
    <rdf:RDF>
      <cc:Work
         rdf:about="">
        <dc:format>image/svg+xml</dc:format>
        <dc:type
           rdf:resource="http://purl.org/dc/dcmitype/StillImage" />
        <dc:title></dc:title>
      </cc:Work>
    </rdf:RDF>
  </metadata>
  <g
     inkscape:label="Layer 1"
     inkscape:groupmode="layer"
     id="layer1"
     transform="translate(226.675,-293.31937)">
    <path
       style="color:#000000;fill:#000000;fill-opacity:1;stroke:#000000;stroke-width:1.5;stroke-linecap:butt;stroke-linejoin:miter;stroke-miterlimit:4;stroke-opacity:1;stroke-dasharray:none;stroke-dashoffset:0;marker:none;visibility:visible;display:inline;overflow:visible;enable-background:accumulate"
       id="path2844"
       d="m -21.084354,429.95582 c 8.910561,-2.46847 18.0701969,-3.91325 27.3129101,-3.9661 12.3388539,0.52301 24.6436399,1.47757 36.9979009,1.18592 16.884121,-0.3469 33.639946,-2.42596 50.393004,-4.36569 22.052489,-2.89168 44.122839,-5.65653 66.224369,-8.14884 26.21511,-3.30955 52.43442,-6.57577 78.66381,-9.77416 29.52521,-3.49213 59.15791,-5.84133 88.80108,-8.05325 31.33507,-1.78007 62.6705,-3.59235 94.03535,-4.7742 29.71429,-1.08229 59.45245,0.18286 89.16523,0.80525 26.26443,1.2402 52.52419,2.45309 78.81116,3.09266 22.64612,0.47523 45.29797,0.51777 67.94809,0.54636 18.83057,0.20795 37.59006,0.51539 56.21893,-2.51686 0,0 -4.39432,3.30064 -4.39432,3.30064 l 0,0 c -18.63472,2.9416 -37.39403,2.61013 -56.21753,2.40694 -22.63975,-0.034 -45.28117,-0.0929 -67.91658,-0.58472 -26.27465,-0.65555 -52.52139,-1.88709 -78.77425,-3.11709 -29.69529,-0.63934 -59.4167,-1.89458 -89.11386,-0.80386 -31.36287,1.18622 -62.69715,2.9966 -94.02939,4.79407 -29.65208,2.22021 -59.29326,4.5847 -88.82521,8.10215 -26.24083,3.20065 -52.47018,6.48115 -78.69673,9.79282 -22.12124,2.50916 -44.21023,5.29535 -66.28339,8.19483 -16.777227,1.95612 -33.561519,4.01251 -50.471014,4.35944 -12.371226,0.25912 -24.691602,-0.68906 -37.0492446,-1.15674 -9.236134,0.13708 -18.3871994,1.58769 -27.2754894,4.1261 0,0 4.475174,-3.44567 4.475174,-3.44567 z" />
    <path
       style="color:#000000;fill:#000000;fill-opacity:1;stroke:#000000;stroke-width:1.5;stroke-linecap:butt;stroke-linejoin:miter;stroke-miterlimit:4;stroke-opacity:1;stroke-dasharray:none;stroke-dashoffset:0;marker:none;visibility:visible;display:inline;overflow:visible;enable-background:accumulate"
       id="path2846"
       d="m -55.346015,524.61341 c 10.828641,-1.5027 21.77233,-1.82092 32.68577,-2.13481 15.8935559,-0.33892 31.7920599,-0.30758 47.688364,-0.3176 19.841675,0.43689 39.643541,-0.38658 59.457826,-1.27663 23.969375,-1.62251 47.940315,-3.17533 71.859955,-5.4324 25.89181,-2.69765 51.78368,-5.0837 77.78795,-6.36156 26.87004,-1.09217 53.76681,-1.13968 80.6544,-1.20121 28.36622,-0.15396 56.73646,0.33566 85.09688,-0.31694 29.3308,-0.63264 58.62289,-2.10749 87.92476,-3.47326 27.55094,-1.94517 55.12484,-3.37919 82.73263,-4.15516 24.00283,-1.28432 48.00918,-2.37815 72.03913,-2.98278 19.06625,-0.26119 38.08398,-1.78147 57.13059,-2.6016 14.15709,-0.85984 28.37849,-0.13894 42.521,-1.13681 1.6023,-0.28531 3.20459,-0.57062 4.80689,-0.85593 0,0 -4.4611,3.35862 -4.4611,3.35862 l 0,0 c -1.60908,0.26645 -3.21816,0.5329 -4.82724,0.79934 -14.13032,0.89814 -28.32681,0.24033 -42.46721,1.08083 -19.02726,0.81735 -38.02773,2.30787 -57.07515,2.54888 -24.01669,0.59648 -48.00875,1.70636 -71.9997,2.95603 -27.59519,0.77459 -55.15623,2.21174 -82.6955,4.14025 -29.30338,1.36724 -58.59797,2.8236 -87.93005,3.46145 -28.36866,0.64383 -56.74689,0.16228 -85.12119,0.32117 -26.88694,0.069 -53.78344,0.12402 -80.65227,1.23083 -26.00314,1.29538 -51.8939,3.69784 -77.78611,6.3898 -23.94024,2.24525 -47.92967,3.82166 -71.918743,5.44304 -19.831785,0.89897 -39.65187,1.69488 -59.511109,1.28561 -15.9083683,0.0156 -31.819071,0.003 -47.724255,0.36323 -10.933836,0.32801 -21.899867,0.67249 -32.739799,2.25306 0,0 4.523281,-3.38545 4.523281,-3.38545 z" />
    <path
       style="color:#000000;fill:#000000;fill-opacity:1;stroke:#000000;stroke-width:1.5;stroke-linecap:butt;stroke-linejoin:miter;stroke-miterlimit:4;stroke-opacity:1;stroke-dasharray:none;stroke-dashoffset:0;marker:none;visibility:visible;display:inline;overflow:visible;enable-background:accumulate"
       id="path2848"
       d="m 433.6218,396.36501 c -1.21416,9.09306 -1.71104,18.2358 -3.03297,27.31574 -0.98154,8.70296 -2.20461,17.35389 -3.4889,26.01664 -0.72137,8.44157 -2.31256,16.76315 -3.38331,25.16 -1.62252,8.15718 -2.70251,16.39417 -4.33165,24.54806 -1.32233,6.10731 -1.99975,12.31504 -2.41544,18.54109 -0.0294,0.54114 -0.0587,1.08228 -0.0881,1.62342 0,0 -5.06731,2.54564 -5.06731,2.54564 l 0,0 c 0.0326,-0.54525 0.0653,-1.0905 0.0979,-1.63575 0.44277,-6.25261 1.08995,-12.49394 2.4276,-18.6284 1.64393,-8.1418 2.70571,-16.36885 4.35184,-24.51258 1.04968,-8.40408 2.69176,-16.72242 3.38113,-25.17244 1.28443,-8.66493 2.53286,-17.31252 3.49725,-26.02001 1.34655,-9.06736 1.8701,-18.19198 2.98196,-27.28809 0,0 5.06998,-2.49332 5.06998,-2.49332 z" />
    <path
       style="color:#000000;fill:#000000;fill-opacity:1;stroke:#000000;stroke-width:1.5;stroke-linecap:butt;stroke-linejoin:miter;stroke-miterlimit:4;stroke-opacity:1;stroke-dasharray:none;stroke-dashoffset:0;marker:none;visibility:visible;display:inline;overflow:visible;enable-background:accumulate"
       id="path2850"
       d="m 199.34302,427.45574 c -2.23045,9.39529 -4.01029,18.88608 -6.20388,28.29021 -3.47554,12.23068 -7.04197,24.43483 -11.38772,36.38852 -3.37328,9.1824 -6.93537,18.29186 -9.316,27.79422 -0.58916,1.89941 -0.80147,3.70028 -0.39728,5.62842 0,0 -5.00871,2.68747 -5.00871,2.68747 l 0,0 c -0.44593,-2.01982 -0.32257,-3.88833 0.33405,-5.88613 2.3767,-9.5379 5.97297,-18.67244 9.36563,-27.88238 4.36116,-11.9272 7.91212,-24.11116 11.39615,-36.31879 2.19572,-9.37446 3.94821,-18.83998 6.13391,-28.21607 0,0 5.08385,-2.48547 5.08385,-2.48547 z" />
    <path
       style="color:#000000;fill:#000000;fill-opacity:1;stroke:#000000;stroke-width:1.5;stroke-linecap:butt;stroke-linejoin:miter;stroke-miterlimit:4;stroke-opacity:1;stroke-dasharray:none;stroke-dashoffset:0;marker:none;visibility:visible;display:inline;overflow:visible;enable-background:accumulate"
       id="path2852"
       d="m 252.34429,452.67599 c -5.88833,4.82232 -12.66226,8.50902 -19.60453,11.58801 0,0 4.43761,-3.51807 4.43761,-3.51807 l 0,0 c 0.58267,-0.26211 1.1692,-0.51579 1.748,-0.78634 0.75075,-0.35092 1.93238,-1.8473 2.24032,-1.07792 0.31308,0.78219 -2.9112,1.66854 -2.12236,1.37263 3.02061,-1.13309 5.49856,-3.61005 8.05189,-5.47182 0,0 5.24907,-2.10649 5.24907,-2.10649 z" />
    <path
       style="color:#000000;fill:#000000;fill-opacity:1;stroke:#000000;stroke-width:1.5;stroke-linecap:butt;stroke-linejoin:miter;stroke-miterlimit:4;stroke-opacity:1;stroke-dasharray:none;stroke-dashoffset:0;marker:none;visibility:visible;display:inline;overflow:visible;enable-background:accumulate"
       id="path2854"
       d="m 319.01941,421.78188 c -3.65033,8.74822 -7.55757,17.39713 -11.69487,25.92687 -4.47915,8.47435 -9.50488,16.72201 -15.68437,24.06671 -5.60163,6.10594 -12.3704,11.00126 -19.13674,15.7264 -5.01949,3.46424 -9.91694,7.1036 -15.03936,10.41894 -1.51116,0.94988 -0.81287,0.51786 -2.09214,1.30049 0,0 -5.30505,2.0491 -5.30505,2.0491 l 0,0 c 1.29834,-0.77801 0.59026,-0.348 2.12102,-1.29526 5.15713,-3.29422 10.06573,-6.93991 15.09551,-10.41829 6.76476,-4.708 13.5479,-9.55551 19.20095,-15.59701 6.24945,-7.26387 11.23897,-15.51903 15.76171,-23.94638 4.13112,-8.49348 8.02322,-17.10807 11.65318,-25.82695 0,0 5.12016,-2.40462 5.12016,-2.40462 z" />
    <path
       style="color:#000000;fill:#000000;fill-opacity:1;stroke:#000000;stroke-width:1.5;stroke-linecap:butt;stroke-linejoin:miter;stroke-miterlimit:4;stroke-opacity:1;stroke-dasharray:none;stroke-dashoffset:0;marker:none;visibility:visible;display:inline;overflow:visible;enable-background:accumulate"
       id="path2856"
       d="m 287.25364,419.29029 c -4.78379,10.71247 -11.27646,20.49535 -17.72849,30.24765 -7.27607,11.10396 -15.53404,21.42467 -24.09722,31.54362 -7.83389,8.68026 -17.73548,14.32577 -27.83072,19.90929 -4.08619,2.05542 -8.5085,3.06635 -12.96628,3.90369 0,0 4.49872,-3.40037 4.49872,-3.40037 l 0,0 c 4.42266,-0.86295 8.79714,-1.93222 12.83619,-4.0111 -0.36024,0.2728 -1.47809,1.03353 -1.08071,0.8184 5.65083,-3.05921 10.68855,-6.95373 15.44268,-11.2531 1.36094,-1.23076 2.65625,-2.53222 3.98438,-3.79833 8.57834,-10.10327 16.8722,-20.3907 24.14791,-31.49389 6.4249,-9.7089 12.92474,-19.43036 17.66425,-30.10881 0,0 5.12929,-2.35705 5.12929,-2.35705 z" />
    <path
       style="color:#000000;fill:#000000;fill-opacity:1;stroke:#000000;stroke-width:1.5;stroke-linecap:butt;stroke-linejoin:miter;stroke-miterlimit:4;stroke-opacity:1;stroke-dasharray:none;stroke-dashoffset:0;marker:none;visibility:visible;display:inline;overflow:visible;enable-background:accumulate"
       id="path2858"
       d="m 421.20903,407.89192 c -6.09679,10.97977 -13.88679,20.90119 -21.91285,30.51725 -9.64208,11.6712 -20.86885,21.83395 -31.92533,32.11938 -8.73375,7.69816 -17.6644,15.1714 -26.71354,22.49354 -3.19024,2.55874 -6.39722,5.09647 -9.61063,7.62599 0,0 -5.25579,2.10341 -5.25579,2.10341 l 0,0 c 3.23799,-2.53207 6.46724,-5.07534 9.67599,-7.64441 9.09481,-7.29311 18.00845,-14.81642 26.79255,-22.48297 11.05382,-10.27831 22.30955,-20.40194 31.95946,-32.05866 8.00503,-9.56064 15.80808,-19.42291 21.83797,-30.37689 0,0 5.15217,-2.29664 5.15217,-2.29664 z" />
    <path
       style="color:#000000;fill:#000000;fill-opacity:1;stroke:#000000;stroke-width:1.5;stroke-linecap:butt;stroke-linejoin:miter;stroke-miterlimit:4;stroke-opacity:1;stroke-dasharray:none;stroke-dashoffset:0;marker:none;visibility:visible;display:inline;overflow:visible;enable-background:accumulate"
       id="path2860"
       d="m 401.53935,390.71886 c -3.60585,11.41474 -8.55614,22.20219 -14.49779,32.57142 -6.93943,11.85926 -16.35487,21.88583 -26.05952,31.4972 -7.0552,7.17842 -14.80297,13.5095 -23.1433,19.112 -5.75095,4.34248 -12.31184,7.37407 -18.48158,10.99061 -2.26586,1.18297 -1.16589,0.62109 -3.29796,1.68945 0,0 4.42532,-3.54232 4.42532,-3.54232 l 0,0 c 2.11726,-1.0745 1.02513,-0.50729 3.27397,-1.70628 1.24239,-0.68416 4.82544,-2.89361 3.80056,-1.91318 -0.75455,0.72181 -1.72049,1.22949 -2.70276,1.58377 -1.8677,0.67363 3.34262,-2.14423 4.9905,-3.25174 0.91416,-0.61439 1.84518,-1.20332 2.76777,-1.80497 8.36775,-5.58695 16.19039,-11.84054 23.25137,-19.04211 9.72247,-9.56228 19.14285,-19.55811 26.12571,-31.36308 5.95334,-10.31119 10.95853,-21.0419 14.41843,-32.46372 0,0 5.12928,-2.35705 5.12928,-2.35705 z" />
    <path
       style="color:#000000;fill:#000000;fill-opacity:1;stroke:#000000;stroke-width:1.5;stroke-linecap:butt;stroke-linejoin:miter;stroke-miterlimit:4;stroke-opacity:1;stroke-dasharray:none;stroke-dashoffset:0;marker:none;visibility:visible;display:inline;overflow:visible;enable-background:accumulate"
       id="path2862"
       d="m 246.60237,427.59512 c -7.55381,8.7923 -14.4321,18.13164 -21.66226,27.1858 -6.40532,7.47248 -12.57345,15.13015 -18.58881,22.91902 0,0 -5.17465,2.22037 -5.17465,2.22037 l 0,0 c 6.05561,-7.79306 12.2198,-15.49046 18.66923,-22.96273 7.22237,-9.02444 14.07329,-18.34707 21.56268,-27.15574 0,0 5.19381,-2.20672 5.19381,-2.20672 z" />
    <path
       style="color:#000000;fill:#000000;fill-opacity:1;stroke:#000000;stroke-width:1.5;stroke-linecap:butt;stroke-linejoin:miter;stroke-miterlimit:4;stroke-opacity:1;stroke-dasharray:none;stroke-dashoffset:0;marker:none;visibility:visible;display:inline;overflow:visible;enable-background:accumulate"
       id="path2864"
       d="m 104.73369,336.0676 c -2.58087,7.28814 -3.39436,14.97807 -4.769364,22.53255 -1.091925,6.61649 -2.409046,13.13605 -4.142207,19.61108 -1.555485,3.7108 -2.45819,7.81158 -4.874236,11.08241 -0.592689,0.4334 -0.756103,0.87555 -1.035405,1.44492 0,0 -5.068009,2.61999 -5.068009,2.61999 l 0,0 c -0.146261,-0.8638 0.185006,-1.25808 0.885013,-1.82675 2.565017,-3.13512 3.387031,-7.23069 4.999109,-10.8912 1.738158,-6.47057 3.134301,-12.96459 4.195057,-19.58665 1.407548,-7.55813 2.168851,-15.26321 4.68989,-22.58174 0,0 5.120152,-2.40461 5.120152,-2.40461 z" />
    <path
       style="color:#000000;fill:#000000;fill-opacity:1;stroke:#000000;stroke-width:1.5;stroke-linecap:butt;stroke-linejoin:miter;stroke-miterlimit:4;stroke-opacity:1;stroke-dasharray:none;stroke-dashoffset:0;marker:none;visibility:visible;display:inline;overflow:visible;enable-background:accumulate"
       id="path2866"
       d="m 287.11503,329.57126 c -0.66647,0.34165 -2.60457,1.46622 -1.99942,1.02496 6.11726,-4.46054 13.37668,-7.71468 20.61236,-9.90466 5.19211,-0.93033 8.23762,0.75295 9.90037,5.66138 1.01651,7.66715 -2.09879,14.72062 -5.21318,21.52449 -4.25727,8.58403 -9.67983,16.49077 -14.96606,24.45591 -2.07332,3.95227 -5.14508,7.2949 -7.29237,11.16372 4.34745,-2.05295 8.76159,-3.95768 13.23659,-5.71718 7.85824,-2.74035 15.85642,-4.8172 24.07975,-6.08344 5.43404,-0.52114 10.97946,-1.6425 16.33139,-0.17421 1.14303,0.37289 2.21836,0.89014 3.17288,1.61885 0,0 -4.81727,3.05041 -4.81727,3.05041 l 0,0 c -0.91826,-0.65953 -1.94321,-1.12477 -3.02496,-1.45693 -5.29973,-1.33198 -10.79905,-0.17587 -16.15098,0.33082 -8.19838,1.3 -16.18031,3.4001 -24.00479,6.18323 -2.5077,1.00186 -10.54391,5.29558 -12.91828,5.30556 -0.3315,10e-4 -0.61922,-0.23698 -0.92882,-0.35546 -0.68909,-2.2597 6.63706,-8.98732 7.18663,-11.62015 5.29707,-7.94229 10.7166,-15.83221 15.01231,-24.38095 3.08443,-6.67707 6.20341,-13.57278 5.34861,-21.11839 -1.5559,-4.70398 -4.55084,-5.95695 -9.41081,-4.93927 -10.30491,3.24909 -7.7521,2.78357 -18.56856,8.96258 0,0 4.41461,-3.53127 4.41461,-3.53127 z" />
    <path
       style="color:#000000;fill:#000000;fill-opacity:1;stroke:#000000;stroke-width:1.5;stroke-linecap:butt;stroke-linejoin:miter;stroke-miterlimit:4;stroke-opacity:1;stroke-dasharray:none;stroke-dashoffset:0;marker:none;visibility:visible;display:inline;overflow:visible;enable-background:accumulate"
       id="path2868"
       d="m 544.18037,298.98093 c -2.72693,-0.45394 -5.46773,-1.27633 -8.24245,-1.4268 -2.27132,-0.12318 -3.60415,0.58488 -3.32102,0.44689 1.63469,-0.79671 3.33851,-1.44301 5.00776,-2.16451 4.83025,2.70226 10.69259,2.77846 16.08759,3.14256 5.61402,-0.13207 11.06309,0.78338 16.49187,2.10384 3.21922,0.57684 3.68148,3.29965 3.02069,6.05938 -1.85955,4.12196 -5.20329,7.2059 -8.65048,10.00118 -3.07205,2.60626 -7.07624,4.68443 -8.86085,8.46336 -0.52523,2.76876 2.63181,3.70788 4.69563,4.33812 3.67762,0.47357 6.47151,2.75694 8.65399,5.60751 1.49238,4.49852 -0.46216,8.73886 -2.67509,12.60363 -5.79886,9.81805 -15.04602,14.75667 -24.74584,20.1365 0,0 4.32623,-3.47914 4.32623,-3.47914 l 0,0 c 5.43408,-1.0104 12.04311,-9.95448 15.27036,-14.36781 2.17646,-3.65414 4.17477,-7.6418 2.94995,-11.99356 -2.14982,-2.80124 -4.89194,-4.80589 -8.47003,-5.31564 -2.42025,-0.80281 -5.50295,-2.07027 -5.16501,-5.15314 1.48026,-3.98744 5.68197,-6.13276 8.78361,-8.73666 3.43156,-2.73569 6.72469,-5.68709 8.76295,-9.6583 0.74925,-2.56302 0.47489,-4.76967 -2.55827,-5.28544 -5.3969,-1.31565 -10.82345,-2.13735 -16.39943,-2.05186 -5.53262,-0.39437 -11.82911,-0.38174 -16.51654,-3.69812 1.5038,-1.3301 2.88816,-2.80894 4.51142,-3.9903 2.13997,-1.55742 9.30504,1.05415 11.72391,1.24233 0,0 -4.68095,3.17598 -4.68095,3.17598 z" />
    <path
       style="color:#000000;fill:#000000;fill-opacity:1;stroke:#000000;stroke-width:1.5;stroke-linecap:butt;stroke-linejoin:miter;stroke-miterlimit:4;stroke-opacity:1;stroke-dasharray:none;stroke-dashoffset:0;marker:none;visibility:visible;display:inline;overflow:visible;enable-background:accumulate"
       id="path2870"
       d="m 169.97384,608.69034 c -5.89389,0.9064 -11.80073,2.19181 -17.63594,0.45543 -6.39117,-3.45991 -3.90057,-10.57338 -1.9041,-16.02335 3.93148,-9.14572 8.94612,-17.82842 15.20202,-25.57106 5.53574,-6.96129 12.52131,-13.78497 21.62313,-15.5311 5.9954,0.38718 8.30348,5.75281 10.07178,10.75363 2.35788,7.3043 1.59672,14.65981 -0.52466,21.88641 -1.78446,5.14632 -4.80416,9.56933 -8.2738,13.69734 0,0 -5.16823,2.1883 -5.16823,2.1883 l 0,0 c 3.51071,-4.04039 6.53852,-8.40279 8.374,-13.48638 2.16876,-7.10405 2.97246,-14.35019 0.66656,-21.56159 -1.67131,-4.75514 -3.8408,-10.01458 -9.64358,-10.06318 -0.80677,0.1898 -2.09199,1.33039 -2.42031,0.5694 -0.33178,-0.76902 2.81396,-1.76577 2.02313,-1.49 -4.96207,1.73034 -8.20131,7.28934 -11.59421,10.84965 -6.30514,7.65268 -11.29334,16.30518 -15.25299,25.39258 -1.90479,5.05222 -4.7167,12.0407 1.48428,15.19375 5.81012,1.54984 11.66555,0.25673 17.49551,-0.66119 0,0 -4.52259,3.40136 -4.52259,3.40136 z" />
    <path
       style="color:#000000;fill:#000000;fill-opacity:1;stroke:#000000;stroke-width:1.5;stroke-linecap:butt;stroke-linejoin:miter;stroke-miterlimit:4;stroke-opacity:1;stroke-dasharray:none;stroke-dashoffset:0;marker:none;visibility:visible;display:inline;overflow:visible;enable-background:accumulate"
       id="path2872"
       d="m 419.66019,587.75759 c -0.69351,7.31049 -1.67841,14.5864 -2.3345,21.90109 -0.0759,3.23404 -1.04671,6.33146 -2.52471,9.18378 -0.42384,0.4364 -0.65199,1.78836 -0.72229,0.51765 2.11437,-0.061 4.23018,-0.0612 6.3453,-0.075 4.56453,-0.93713 8.94743,-2.4363 13.30636,-4.06115 6.04642,-1.92887 12.14938,-3.64563 18.22967,-5.47667 3.40364,-1.1307 6.94526,-1.62244 10.5064,-1.88125 1.2879,-0.31134 2.00681,0.69988 2.66052,1.41098 0,0 -4.76338,3.14639 -4.76338,3.14639 l 0,0 c -0.84745,-0.71973 -1.08407,-1.53896 -2.4683,-1.18315 -3.53024,0.27828 -7.0272,0.83959 -10.40037,1.95632 -6.06612,1.8499 -12.18826,3.48279 -18.19953,5.49631 -4.39195,1.61493 -8.82281,3.1851 -13.45971,3.93056 -2.12724,0.0147 -4.25425,0.047 -6.38114,0.0796 -0.93388,-0.89974 -0.45071,-0.53213 0.15114,-1.53079 1.56385,-2.75718 2.58272,-5.81269 2.67569,-9.0009 0.67757,-7.29538 1.65265,-14.55495 2.34418,-21.84844 0,0 5.03467,-2.5653 5.03467,-2.5653 z" />
    <path
       style="color:#000000;fill:#000000;fill-opacity:1;stroke:#000000;stroke-width:1.5;stroke-linecap:butt;stroke-linejoin:miter;stroke-miterlimit:4;stroke-opacity:1;stroke-dasharray:none;stroke-dashoffset:0;marker:none;visibility:visible;display:inline;overflow:visible;enable-background:accumulate"
       id="path2874"
       d="m -186.37127,444.5986 c -1.22902,7.3003 -1.84407,14.68043 -2.22955,22.0671 -0.0701,8.10486 -0.84795,16.19192 -2.38713,24.14892 -1.22088,6.40364 -2.72431,12.69754 -4.54564,18.95194 -0.15955,1.22276 -1.72951,4.5589 -1.13606,5.22577 0,0 -4.72545,3.19687 -4.72545,3.19687 l 0,0 c -1.65599,-1.28118 0.68375,-4.3844 0.76149,-6.00354 1.82014,-6.25042 3.40092,-12.51628 4.60089,-18.92305 1.59048,-7.92312 2.34899,-15.99544 2.41929,-24.07487 0.36676,-7.39799 1.00422,-14.78261 2.15831,-22.10367 0,0 5.08385,-2.48547 5.08385,-2.48547 z" />
    <path
       style="color:#000000;fill:#000000;fill-opacity:1;stroke:#000000;stroke-width:1.5;stroke-linecap:butt;stroke-linejoin:miter;stroke-miterlimit:4;stroke-opacity:1;stroke-dasharray:none;stroke-dashoffset:0;marker:none;visibility:visible;display:inline;overflow:visible;enable-background:accumulate"
       id="path2876"
       d="m -201.03625,447.84439 c 9.4775,0.4156 18.88258,-0.88052 28.29923,-1.7226 7.24828,-1.04947 14.44096,-0.45961 21.62634,0.66004 0,0 -4.62201,3.24997 -4.62201,3.24997 l 0,0 c -7.14266,-1.11657 -14.2929,-1.6096 -21.49482,-0.58556 -9.44321,0.85342 -18.87642,2.07308 -28.38012,1.71945 0,0 4.57138,-3.3213 4.57138,-3.3213 z" />
    <path
       style="color:#000000;fill:#000000;fill-opacity:1;stroke:#000000;stroke-width:1.5;stroke-linecap:butt;stroke-linejoin:miter;stroke-miterlimit:4;stroke-opacity:1;stroke-dasharray:none;stroke-dashoffset:0;marker:none;visibility:visible;display:inline;overflow:visible;enable-background:accumulate"
       id="path2878"
       d="m -221.40241,510.31974 c 8.92702,-1.38185 17.97292,-1.51931 26.93735,-2.49879 9.66812,-1.29923 19.38278,-2.08722 29.12437,-2.52504 6.40048,-0.25375 12.80591,-0.31562 19.21064,-0.33508 1.33176,-0.003 2.66375,-0.005 3.99544,0.002 0,0 -4.62667,3.34543 -4.62667,3.34543 l 0,0 c -1.31377,-0.0214 -2.62769,-0.0218 -3.94164,-0.0232 -6.3841,0.005 -12.76921,0.0674 -19.14898,0.32026 -9.73102,0.44529 -19.4328,1.2596 -29.0919,2.54366 -8.9849,0.94196 -18.0482,1.11303 -26.9812,2.57261 0,0 4.52259,-3.40136 4.52259,-3.40136 z" />
    <path
       style="color:#000000;fill:#000000;fill-opacity:1;stroke:#000000;stroke-width:1.5;stroke-linecap:butt;stroke-linejoin:miter;stroke-miterlimit:4;stroke-opacity:1;stroke-dasharray:none;stroke-dashoffset:0;marker:none;visibility:visible;display:inline;overflow:visible;enable-background:accumulate"
       id="path2880"
       d="m -109.22841,533.17003 c -1.00041,5.53822 -1.5215,11.11303 -3.00002,16.54912 -0.89651,2.7906 -1.67843,5.60399 -2.19043,8.49088 0.14395,0.30695 -0.23777,0.65547 -0.14616,0.96902 0.0686,0.23475 0.97016,-0.62306 0.45222,-0.42859 -1.41345,0.53071 -2.74833,1.25088 -4.1225,1.87632 0,0 5.21159,-2.2613 5.21159,-2.2613 l 0,0 c -1.24101,0.87116 -6.71184,6.5918 -6.51145,2.33966 0.51295,-2.91093 1.2592,-5.75772 2.208,-8.55827 1.50796,-5.41411 2.07604,-10.95479 3.0149,-16.49137 0,0 5.08385,-2.48547 5.08385,-2.48547 z" />
    <path
       style="color:#000000;fill:#000000;fill-opacity:1;stroke:#000000;stroke-width:1.5;stroke-linecap:butt;stroke-linejoin:miter;stroke-miterlimit:4;stroke-opacity:1;stroke-dasharray:none;stroke-dashoffset:0;marker:none;visibility:visible;display:inline;overflow:visible;enable-background:accumulate"
       id="path2882"
       d="m -104.16429,507.53334 c -2.20633,4.37789 -4.39119,8.76657 -6.56996,13.15824 -0.12451,0.1794 -0.16111,0.48753 -0.37353,0.53821 -1.64377,0.39218 -3.35259,1.05445 -5.01433,0.74724 -1.34285,-0.24825 4.43695,-5.91792 4.67044,-6.14744 3.76041,-3.76658 8.42413,-6.46986 13.802514,-5.89783 3.07705,0.69145 3.701286,-0.18381 -2.365334,2.38514 0,0 5.176864,-2.35782 5.176864,-2.35782 l 0,0 c -5.676374,3.89274 -3.574219,3.91931 -7.439134,3.26962 -2.36859,-0.18826 -4.32782,0.33625 -4.17574,0.17035 0.90989,-0.99248 2.23546,-1.50186 3.36945,-2.2278 1.12694,-0.72143 -4.56758,2.95574 -3.13983,2.50113 -1.42016,1.3654 -3.00138,2.74115 -4.10886,4.39165 -0.28932,0.43119 -0.32766,1.038 -0.71472,1.38415 -1.65181,1.4772 -3.52461,2.68724 -5.30828,4.00219 -0.16401,0.12092 0.29749,-0.27853 0.44624,-0.4178 2.20899,-4.38407 4.41216,-8.77111 6.59363,-13.16895 0,0 5.15058,-2.33028 5.15058,-2.33028 z" />
    <path
       style="color:#000000;fill:#000000;fill-opacity:1;stroke:#000000;stroke-width:1.5;stroke-linecap:butt;stroke-linejoin:miter;stroke-miterlimit:4;stroke-opacity:1;stroke-dasharray:none;stroke-dashoffset:0;marker:none;visibility:visible;display:inline;overflow:visible;enable-background:accumulate"
       id="path2884"
       d="m -69.918909,473.93601 c 7.122827,2.07713 14.368896,3.58304 21.722149,4.53678 6.224253,0.97342 12.444137,0.32372 18.495746,-1.28351 4.933396,-1.48203 9.975671,-2.62041 15.083986,-3.2908 0,0 -4.536168,3.3905 -4.536168,3.3905 l 0,0 c -5.085118,0.71848 -10.101182,1.85286 -15.021627,3.32512 -6.11639,1.50578 -12.351013,2.12977 -18.611448,1.10183 -7.362603,-0.99244 -14.598623,-2.5704 -21.765086,-4.52976 0,0 4.632448,-3.25016 4.632448,-3.25016 z" />
    <path
       style="color:#000000;fill:#000000;fill-opacity:1;stroke:#000000;stroke-width:1.5;stroke-linecap:butt;stroke-linejoin:miter;stroke-miterlimit:4;stroke-opacity:1;stroke-dasharray:none;stroke-dashoffset:0;marker:none;visibility:visible;display:inline;overflow:visible;enable-background:accumulate"
       id="path2886"
       d="m -55.688125,493.17688 c 7.313709,-1.16263 14.69365,-1.79009 22.085504,-2.1539 7.489103,-0.30865 14.986062,-0.31539 22.480183,-0.33193 5.2778909,-0.50542 10.48479812,-1.5373 15.7161221,-2.37653 0.907041,-0.14524 1.8146997,-0.28656 2.7226806,-0.42578 0,0 -4.559263,3.41827 -4.559263,3.41827 l 0,0 c -0.8993547,0.13425 -1.79840839,0.27051 -2.6967047,0.4117 -5.2324908,0.82563 -10.440736,1.87322 -15.728927,2.27666 -7.486502,0.0135 -14.975933,0.0262 -22.456923,0.3489 -7.392799,0.38845 -14.777545,1.01351 -22.08526,2.23397 0,0 4.522588,-3.40136 4.522588,-3.40136 z" />
    <path
       style="color:#000000;fill:#000000;fill-opacity:1;stroke:#000000;stroke-width:1.5;stroke-linecap:butt;stroke-linejoin:miter;stroke-miterlimit:4;stroke-opacity:1;stroke-dasharray:none;stroke-dashoffset:0;marker:none;visibility:visible;display:inline;overflow:visible;enable-background:accumulate"
       id="path2888"
       d="m -35.588105,466.11953 c 8.197837,3.44721 16.907223,5.40326 25.329903,8.2 7.6400664,2.09039 15.1469701,4.66807 22.888098,6.37362 3.717112,0.78523 7.499023,1.25411 11.291537,1.45751 3.546803,1.49819 -5.635357,4.88883 -7.33689,5.85485 -7.2572777,3.70336 -4.908839,2.53663 -8.2896648,4.67591 -7.46510099,4.17183 -10.5837513,5.88071 -19.0859372,12.86923 -4.174096,3.79507 -8.676277,7.21148 -13.322554,10.4041 -1.921272,1.32657 -2.755428,1.22945 -5.642543,2.24672 0,0 5.246456,-2.17605 5.246456,-2.17605 l 0,0 c -5.768528,3.17064 -8.016279,4.45267 -4.888885,2.00315 4.686754,-3.16225 9.23573,-6.55619 13.405882,-10.38091 6.5351242,-5.4278 13.2775525,-9.68443 20.6709551,-13.91292 0.548944,-0.31396 -1.0818832,0.6551 -1.6228249,0.98265 5.8266926,-3.69545 11.7512858,-7.2375 17.9524738,-10.26783 2.964727,-1.46881 0.719144,-0.41547 -2.387149,1.71412 -0.227648,0.15607 0.502171,-0.22924 0.753256,-0.34385 0.401539,-0.40098 0.842933,-0.34217 -0.07725,-0.35258 -3.79227,-0.26552 -7.573917,-0.75167 -11.2888172,-1.56898 -7.73600525,-1.75521 -15.2548274,-4.32101 -22.8949368,-6.43658 -8.460533,-2.78718 -17.193138,-4.78003 -25.423737,-8.23484 0,0 4.722628,-3.10732 4.722628,-3.10732 z" />
    <path
       style="color:#000000;fill:#000000;fill-opacity:1;stroke:#000000;stroke-width:1.5;stroke-linecap:butt;stroke-linejoin:miter;stroke-miterlimit:4;stroke-opacity:1;stroke-dasharray:none;stroke-dashoffset:0;marker:none;visibility:visible;display:inline;overflow:visible;enable-background:accumulate"
       id="path2890"
       d="m 739.02677,428.96511 c 8.90861,3.84199 18.47443,5.42819 28.0428,6.53368 10.42183,1.04723 20.90189,-0.31739 31.19506,-1.9222 8.37183,-0.82274 16.5367,-2.76117 24.76085,-4.42781 3.81799,-1.10847 7.5747,0.10994 11.33508,0.80897 0,0 -4.65046,3.24754 -4.65046,3.24754 l 0,0 c -3.71618,-0.71672 -7.40423,-1.77125 -11.17485,-0.65456 -8.2093,1.67314 -16.37931,3.51007 -24.7299,4.37138 -10.32748,1.5823 -20.83976,2.90909 -31.28791,1.80336 -9.61982,-1.14827 -19.21715,-2.80246 -28.18809,-6.62992 0,0 4.69742,-3.13044 4.69742,-3.13044 z" />
    <path
       style="color:#000000;fill:#000000;fill-opacity:1;stroke:#000000;stroke-width:1.5;stroke-linecap:butt;stroke-linejoin:miter;stroke-miterlimit:4;stroke-opacity:1;stroke-dasharray:none;stroke-dashoffset:0;marker:none;visibility:visible;display:inline;overflow:visible;enable-background:accumulate"
       id="path2892"
       d="m 747.16902,467.46259 c 8.86219,-1.6417 17.69409,-3.28401 26.66768,-4.22684 10.88525,-0.94888 21.82026,-1.01426 32.73859,-1.09818 9.74314,-0.0414 19.4864,-0.018 29.22958,-0.0105 5.24849,0.003 10.49699,0.005 15.74548,-0.006 1.46238,-0.003 2.92478,-0.002 4.38716,-0.006 0,0 -4.61438,3.3526 -4.61438,3.3526 l 0,0 c -1.45573,-0.004 -2.91146,-0.003 -4.36719,-0.009 -5.22736,-0.0193 -10.45475,-0.0285 -15.68214,-0.0405 -9.73467,-0.0198 -19.46945,-0.0453 -29.20409,-0.002 -10.90948,0.0793 -21.83649,0.16209 -32.71008,1.14572 -8.98745,0.97665 -17.83434,2.64522 -26.7132,4.30203 0,0 4.52259,-3.40137 4.52259,-3.40137 z" />
    <path
       style="color:#000000;fill:#000000;fill-opacity:1;stroke:#000000;stroke-width:1.5;stroke-linecap:butt;stroke-linejoin:miter;stroke-miterlimit:4;stroke-opacity:1;stroke-dasharray:none;stroke-dashoffset:0;marker:none;visibility:visible;display:inline;overflow:visible;enable-background:accumulate"
       id="path2894"
       d="m 810.12618,408.97667 c 7.79029,4.54182 16.17026,7.82164 24.58535,10.97665 8.31904,3.18149 16.9479,5.15354 25.5808,7.22358 6.85268,1.39448 13.64948,2.83309 20.41111,4.61624 3.1014,0.71446 6.23138,1.32138 9.38878,1.72862 1.91096,0.14345 0.74537,2.27109 0.0519,3.15776 -3.37784,4.14347 -7.05658,8.02244 -10.75524,11.87713 -7.3435,7.48419 -15.17702,14.47132 -22.93484,21.52256 -8.43379,7.02042 -17.17589,13.7156 -26.04328,20.18487 -4.63159,3.5897 -9.75181,6.45303 -14.24127,10.22308 -0.17089,0.59698 -3.38038,2.71353 -1.44997,1.22832 2.54339,-0.84957 1.66809,-0.64473 -2.2242,1.5251 0,0 5.29405,-2.0344 5.29405,-2.0344 l 0,0 c -6.67065,3.79164 -3.99693,2.7968 -7.56442,4.00318 -2.74944,0.14075 -0.14319,-1.84623 0.68819,-2.5953 4.48192,-3.8378 9.62191,-6.70354 14.29928,-10.29211 8.90246,-6.42767 17.61144,-13.17899 26.09725,-20.14051 7.74234,-7.03902 15.55988,-14.01216 22.90236,-21.46783 3.67953,-3.8371 7.37288,-7.67647 10.69273,-11.83521 0.54636,-0.50998 2.14651,-2.03895 0.53321,-2.07152 -3.15303,-0.46232 -6.28368,-1.07616 -9.38291,-1.81737 -6.74305,-1.80175 -13.54142,-3.18807 -20.3702,-4.62714 -8.65386,-2.05297 -17.27509,-4.11623 -25.6113,-7.28718 -8.44227,-3.16575 -16.8058,-6.53231 -24.66996,-10.9912 0,0 4.72263,-3.10732 4.72263,-3.10732 z" />
    <path
       style="color:#000000;fill:#000000;fill-opacity:1;stroke:#000000;stroke-width:1.5;stroke-linecap:butt;stroke-linejoin:miter;stroke-miterlimit:4;stroke-opacity:1;stroke-dasharray:none;stroke-dashoffset:0;marker:none;visibility:visible;display:inline;overflow:visible;enable-background:accumulate"
       id="path2896"
       d="m 953.6218,413.50787 c -2.30801,9.69878 -3.64755,19.58003 -5.3784,29.39039 -1.83479,10.02054 -3.21654,20.13503 -5.12809,30.13919 -1.12825,5.28666 -2.25476,10.5715 -3.13063,15.90679 -0.16871,0.57738 -0.15742,1.19499 -0.18787,1.77267 0,0 -5.30495,2.1191 -5.30495,2.1191 l 0,0 c 0.22353,-0.4293 0.36805,-0.91477 0.39167,-1.3982 0.91114,-5.35011 2.03927,-10.65511 3.19882,-15.95621 1.96666,-9.99417 3.30496,-20.1229 5.15426,-30.14139 1.72607,-9.79048 3.05823,-19.65067 5.31521,-29.33903 0,0 5.06998,-2.49331 5.06998,-2.49331 z" />
    <path
       style="color:#000000;fill:#000000;fill-opacity:1;stroke:#000000;stroke-width:1.5;stroke-linecap:butt;stroke-linejoin:miter;stroke-miterlimit:4;stroke-opacity:1;stroke-dasharray:none;stroke-dashoffset:0;marker:none;visibility:visible;display:inline;overflow:visible;enable-background:accumulate"
       id="path2898"
       d="m 930.4366,411.45002 c 6.05966,2.1707 12.2056,4.10452 18.35096,6.01925 0,0 -4.60435,3.13694 -4.60435,3.13694 l 0,0 c -6.1554,-1.92457 -12.30661,-3.8715 -18.40655,-5.96481 0,0 4.65994,-3.19138 4.65994,-3.19138 z" />
    <path
       style="color:#000000;fill:#000000;fill-opacity:1;stroke:#000000;stroke-width:1.5;stroke-linecap:butt;stroke-linejoin:miter;stroke-miterlimit:4;stroke-opacity:1;stroke-dasharray:none;stroke-dashoffset:0;marker:none;visibility:visible;display:inline;overflow:visible;enable-background:accumulate"
       id="path2900"
       d="m 915.74045,496.03402 c 8.38883,-0.84681 16.70764,-2.02996 25.01384,-3.4738 5.47104,-0.36947 10.58615,-2.16261 15.82849,-3.56779 1.23597,-0.51684 2.68923,-0.44708 3.93575,-0.9132 0.35301,-0.132 1.32442,-0.71973 0.99831,-0.5308 -4.9023,2.84025 -5.04739,2.95819 -3.14073,1.71436 0.76976,-0.55408 0.41497,-0.28784 1.06819,-0.79358 0,0 5.28891,-2.12236 5.28891,-2.12236 l 0,0 c -0.64821,0.53496 -0.29602,0.2535 -1.06072,0.83915 -3.73103,2.62092 -7.19115,4.50841 -11.57947,5.25473 -5.22284,1.44924 -10.37433,3.05577 -15.81889,3.49287 -8.32411,1.42334 -16.66621,2.55415 -25.05627,3.50179 0,0 4.52259,-3.40137 4.52259,-3.40137 z" />
    <path
       style="color:#000000;fill:#000000;fill-opacity:1;stroke:#000000;stroke-width:1.5;stroke-linecap:butt;stroke-linejoin:miter;stroke-miterlimit:4;stroke-opacity:1;stroke-dasharray:none;stroke-dashoffset:0;marker:none;visibility:visible;display:inline;overflow:visible;enable-background:accumulate"
       id="path2902"
       d="m 995.60894,538.98093 c -5.70693,-2.36743 -10.96977,-5.45249 -14.96461,-10.21729 -3.2198,-4.82339 -1.30045,-10.15713 0.43688,-15.15574 2.54126,-6.16813 5.60555,-12.06341 9.30531,-17.60984 1.50823,-2.41794 2.88292,-4.92685 4.00402,-7.54876 0.0828,-0.19781 0.15848,-0.39841 0.23524,-0.59858 0,0 5.15702,-2.45434 5.15702,-2.45434 l 0,0 c -0.0604,0.22677 -0.10668,0.45711 -0.21477,0.66997 -1.10887,2.66802 -2.51971,5.20214 -4.01119,7.67232 -3.73532,5.49722 -6.81442,11.34863 -9.37766,17.48488 -1.69324,4.77564 -3.76026,9.97605 -0.69392,14.63098 3.94146,4.6817 9.15345,7.70179 14.80464,9.95042 0,0 -4.68096,3.17598 -4.68096,3.17598 z" />
    <path
       style="color:#000000;fill:#000000;fill-opacity:1;stroke:#000000;stroke-width:1.5;stroke-linecap:butt;stroke-linejoin:miter;stroke-miterlimit:4;stroke-opacity:1;stroke-dasharray:none;stroke-dashoffset:0;marker:none;visibility:visible;display:inline;overflow:visible;enable-background:accumulate"
       id="path2904"
       d="m 970.39232,510.70153 c 6.75282,-0.65315 13.46572,-1.64485 20.21205,-2.36203 3.8559,-0.37448 7.73055,-0.46686 11.60183,-0.51798 -0.3068,0.27593 4.2784,-1.84841 4.2637,-1.84013 -4.1651,2.34478 -5.4586,3.24428 -3.6837,2.03491 0.095,-0.34503 0.4863,-0.19121 0.5231,-0.20568 0,0 5.1551,-2.4637 5.1551,-2.4637 l 0,0 c -0.082,0.26064 0.031,0.39528 -0.3752,0.58038 -3.0939,2.22626 -6.6656,4.44466 -10.47254,5.23747 -3.85294,0.0456 -7.70866,0.15611 -11.54492,0.54141 -6.75809,0.71085 -13.48086,1.72449 -20.2508,2.31666 0,0 4.57138,-3.32131 4.57138,-3.32131 z" />
    <path
       style="color:#000000;fill:#000000;fill-opacity:1;stroke:#000000;stroke-width:1.5;stroke-linecap:butt;stroke-linejoin:miter;stroke-miterlimit:4;stroke-opacity:1;stroke-dasharray:none;stroke-dashoffset:0;marker:none;visibility:visible;display:inline;overflow:visible;enable-background:accumulate"
       id="path2906"
       d="m 1004.678,456.41582 c 12.7004,0.13424 25.4102,-0.80084 38.0445,-2.04067 12.7988,-1.49768 25.6341,-2.62656 38.5017,-3.30702 5.3459,-0.21975 10.645,0.12787 15.7139,-1.78024 0.32,-0.14791 0.64,-0.29582 0.96,-0.44374 0,0 -4.458,3.52959 -4.458,3.52959 l 0,0 c -0.3255,0.13545 -0.651,0.2709 -0.9765,0.40635 -5.1014,1.73505 -10.4188,1.33724 -15.7411,1.59483 -12.8405,0.66775 -25.6472,1.79526 -38.4199,3.27729 -12.6891,1.21828 -25.4425,2.16996 -38.1959,2.08491 0,0 4.5713,-3.3213 4.5713,-3.3213 z" />
    <path
       style="color:#000000;fill:#000000;fill-opacity:1;stroke:#000000;stroke-width:1.5;stroke-linecap:butt;stroke-linejoin:miter;stroke-miterlimit:4;stroke-opacity:1;stroke-dasharray:none;stroke-dashoffset:0;marker:none;visibility:visible;display:inline;overflow:visible;enable-background:accumulate"
       id="path2908"
       d="m 1036.1066,470.70153 c 9.619,-0.83187 19.214,-1.70774 28.7591,-3.16675 7.0423,-1.19332 14.1451,-1.91184 21.2675,-2.39029 1.6007,-0.081 3.2023,-0.21422 4.806,-0.20121 0,0 -4.6229,3.35107 -4.6229,3.35107 l 0,0 c -1.5794,0.0256 -3.1572,0.10911 -4.7339,0.2028 -7.0956,0.46501 -14.1667,1.21348 -21.1833,2.3867 -9.5792,1.44234 -19.2128,2.3184 -28.8639,3.13899 0,0 4.5714,-3.32131 4.5714,-3.32131 z" />
    <path
       style="color:#000000;fill:#000000;fill-opacity:1;stroke:#000000;stroke-width:1.5;stroke-linecap:butt;stroke-linejoin:miter;stroke-miterlimit:4;stroke-opacity:1;stroke-dasharray:none;stroke-dashoffset:0;marker:none;visibility:visible;display:inline;overflow:visible;enable-background:accumulate"
       id="path2910"
       d="m 1178.0586,506.9617 c -3.9456,3.00602 -8.4681,5.22998 -12.0146,8.73865 -0.6509,0.74668 -0.5992,0.432 -0.2116,0.67816 0.2203,-0.13201 0.891,-0.51047 0.661,-0.39602 -4.3298,2.15499 -4.9081,3.27457 -3.0734,0.85439 0,0 5.2007,-2.26735 5.2007,-2.26735 l 0,0 c -1.5437,2.48441 -9.3465,7.62354 -7.8269,3.31148 3.46,-3.6333 8.024,-5.84219 12.0157,-8.81281 0,0 5.2491,-2.1065 5.2491,-2.1065 z" />
    <path
       style="color:#000000;fill:#000000;fill-opacity:1;stroke:#000000;stroke-width:1.5;stroke-linecap:butt;stroke-linejoin:miter;stroke-miterlimit:4;stroke-opacity:1;stroke-dasharray:none;stroke-dashoffset:0;marker:none;visibility:visible;display:inline;overflow:visible;enable-background:accumulate"
       id="path2912"
       d="m 1176.2055,489.24707 c -3.9605,-5.35335 -7.4574,-10.96248 -8.4974,-17.61403 -0.6973,-5.80342 2.6783,-10.24708 6.1549,-14.49128 3.5693,-3.80458 7.9904,-6.48612 12.4097,-9.15689 3.6214,-2.17144 1.4726,-0.9122 8.0824,-4.5041 1.1561,-0.62826 -2.2642,1.35091 -3.4595,1.90095 -0.4266,0.19628 0.7893,-0.51603 1.1366,-0.83208 0.9694,-0.88217 0.9618,-1.16089 1.5429,-2.34466 1.2292,-3.36382 1.3213,-6.74184 0.01,-10.05118 -2.0881,-5.04067 -5.9859,-7.04035 -11.0059,-8.34759 -7.6004,-1.55267 -14.9638,0.25585 -21.915,3.31236 -3.3328,1.625 -7.1371,5.16321 -10.4719,11.22397 0,0 -5.1486,2.3116 -5.1486,2.3116 l 0,0 c 4.3089,-8.23814 11.7093,-13.02832 20.0178,-17.01216 7.0637,-2.98181 14.5092,-4.68717 22.1616,-3.02712 5.1423,1.42054 9.1473,3.62548 11.301,8.7793 1.4047,3.43595 1.3915,6.90421 0.2105,10.44918 -0.4697,1.16191 -0.5491,1.70287 -1.4275,2.60685 -2.271,2.33731 -12.2872,7.84453 -4.1293,2.52552 0.5302,-0.34568 -1.0869,0.64878 -1.6304,0.97316 -4.4147,2.65716 -8.8507,5.26961 -12.4927,8.98589 -3.436,4.09459 -6.9417,8.39236 -6.364,14.06628 0.9329,6.56902 4.4402,12.10216 8.3706,17.34433 0,0 -4.8549,2.9017 -4.8549,2.9017 z" />
    <path
       d="m -21.084354,429.95582 c 8.910561,-2.46847 18.0701969,-3.91325 27.3129101,-3.9661 12.3388539,0.52301 24.6436399,1.47757 36.9979009,1.18592 16.884121,-0.3469 33.639946,-2.42596 50.393004,-4.36569 22.052489,-2.89168 44.122839,-5.65653 66.224369,-8.14884 26.21511,-3.30955 52.43442,-6.57577 78.66381,-9.77416 29.52521,-3.49213 59.15791,-5.84133 88.80108,-8.05325 31.33507,-1.78007 62.6705,-3.59235 94.03535,-4.7742 29.71429,-1.08229 59.45245,0.18286 89.16523,0.80525 26.26443,1.2402 52.52419,2.45309 78.81116,3.09266 22.64612,0.47523 45.29797,0.51777 67.94809,0.54636 18.83057,0.20795 37.59006,0.51539 56.21893,-2.51686 0,0 -4.39432,3.30064 -4.39432,3.30064 l 0,0 c -18.63472,2.9416 -37.39403,2.61013 -56.21753,2.40694 -22.63975,-0.034 -45.28117,-0.0929 -67.91658,-0.58472 -26.27465,-0.65555 -52.52139,-1.88709 -78.77425,-3.11709 -29.69529,-0.63934 -59.4167,-1.89458 -89.11386,-0.80386 -31.36287,1.18622 -62.69715,2.9966 -94.02939,4.79407 -29.65208,2.22021 -59.29326,4.5847 -88.82521,8.10215 -26.24083,3.20065 -52.47018,6.48115 -78.69673,9.79282 -22.12124,2.50916 -44.21023,5.29535 -66.28339,8.19483 -16.777227,1.95612 -33.561519,4.01251 -50.471014,4.35944 -12.371226,0.25912 -24.691602,-0.68906 -37.0492446,-1.15674 -9.236134,0.13708 -18.3871994,1.58769 -27.2754894,4.1261 0,0 4.475174,-3.44567 4.475174,-3.44567 z"
       id="path2914"
       style="color:#000000;fill:#000000;fill-opacity:1;stroke:#000000;stroke-width:1.5;stroke-linecap:butt;stroke-linejoin:miter;stroke-miterlimit:4;stroke-opacity:1;stroke-dasharray:none;stroke-dashoffset:0;marker:none;visibility:visible;display:inline;overflow:visible;enable-background:accumulate" />
    <path
       d="m -55.346015,524.61341 c 10.828641,-1.5027 21.77233,-1.82092 32.68577,-2.13481 15.8935559,-0.33892 31.7920599,-0.30758 47.688364,-0.3176 19.841675,0.43689 39.643541,-0.38658 59.457826,-1.27663 23.969375,-1.62251 47.940315,-3.17533 71.859955,-5.4324 25.89181,-2.69765 51.78368,-5.0837 77.78795,-6.36156 26.87004,-1.09217 53.76681,-1.13968 80.6544,-1.20121 28.36622,-0.15396 56.73646,0.33566 85.09688,-0.31694 29.3308,-0.63264 58.62289,-2.10749 87.92476,-3.47326 27.55094,-1.94517 55.12484,-3.37919 82.73263,-4.15516 24.00283,-1.28432 48.00918,-2.37815 72.03913,-2.98278 19.06625,-0.26119 38.08398,-1.78147 57.13059,-2.6016 14.15709,-0.85984 28.37849,-0.13894 42.521,-1.13681 1.6023,-0.28531 3.20459,-0.57062 4.80689,-0.85593 0,0 -4.4611,3.35862 -4.4611,3.35862 l 0,0 c -1.60908,0.26645 -3.21816,0.5329 -4.82724,0.79934 -14.13032,0.89814 -28.32681,0.24033 -42.46721,1.08083 -19.02726,0.81735 -38.02773,2.30787 -57.07515,2.54888 -24.01669,0.59648 -48.00875,1.70636 -71.9997,2.95603 -27.59519,0.77459 -55.15623,2.21174 -82.6955,4.14025 -29.30338,1.36724 -58.59797,2.8236 -87.93005,3.46145 -28.36866,0.64383 -56.74689,0.16228 -85.12119,0.32117 -26.88694,0.069 -53.78344,0.12402 -80.65227,1.23083 -26.00314,1.29538 -51.8939,3.69784 -77.78611,6.3898 -23.94024,2.24525 -47.92967,3.82166 -71.918743,5.44304 -19.831785,0.89897 -39.65187,1.69488 -59.511109,1.28561 -15.9083683,0.0156 -31.819071,0.003 -47.724255,0.36323 -10.933836,0.32801 -21.899867,0.67249 -32.739799,2.25306 0,0 4.523281,-3.38545 4.523281,-3.38545 z"
       id="path2916"
       style="color:#000000;fill:#000000;fill-opacity:1;stroke:#000000;stroke-width:1.5;stroke-linecap:butt;stroke-linejoin:miter;stroke-miterlimit:4;stroke-opacity:1;stroke-dasharray:none;stroke-dashoffset:0;marker:none;visibility:visible;display:inline;overflow:visible;enable-background:accumulate" />
    <path
       d="m 433.6218,396.36501 c -1.21416,9.09306 -1.71104,18.2358 -3.03297,27.31574 -0.98154,8.70296 -2.20461,17.35389 -3.4889,26.01664 -0.72137,8.44157 -2.31256,16.76315 -3.38331,25.16 -1.62252,8.15718 -2.70251,16.39417 -4.33165,24.54806 -1.32233,6.10731 -1.99975,12.31504 -2.41544,18.54109 -0.0294,0.54114 -0.0587,1.08228 -0.0881,1.62342 0,0 -5.06731,2.54564 -5.06731,2.54564 l 0,0 c 0.0326,-0.54525 0.0653,-1.0905 0.0979,-1.63575 0.44277,-6.25261 1.08995,-12.49394 2.4276,-18.6284 1.64393,-8.1418 2.70571,-16.36885 4.35184,-24.51258 1.04968,-8.40408 2.69176,-16.72242 3.38113,-25.17244 1.28443,-8.66493 2.53286,-17.31252 3.49725,-26.02001 1.34655,-9.06736 1.8701,-18.19198 2.98196,-27.28809 0,0 5.06998,-2.49332 5.06998,-2.49332 z"
       id="path2918"
       style="color:#000000;fill:#000000;fill-opacity:1;stroke:#000000;stroke-width:1.5;stroke-linecap:butt;stroke-linejoin:miter;stroke-miterlimit:4;stroke-opacity:1;stroke-dasharray:none;stroke-dashoffset:0;marker:none;visibility:visible;display:inline;overflow:visible;enable-background:accumulate" />
    <path
       d="m 199.34302,427.45574 c -2.23045,9.39529 -4.01029,18.88608 -6.20388,28.29021 -3.47554,12.23068 -7.04197,24.43483 -11.38772,36.38852 -3.37328,9.1824 -6.93537,18.29186 -9.316,27.79422 -0.58916,1.89941 -0.80147,3.70028 -0.39728,5.62842 0,0 -5.00871,2.68747 -5.00871,2.68747 l 0,0 c -0.44593,-2.01982 -0.32257,-3.88833 0.33405,-5.88613 2.3767,-9.5379 5.97297,-18.67244 9.36563,-27.88238 4.36116,-11.9272 7.91212,-24.11116 11.39615,-36.31879 2.19572,-9.37446 3.94821,-18.83998 6.13391,-28.21607 0,0 5.08385,-2.48547 5.08385,-2.48547 z"
       id="path2920"
       style="color:#000000;fill:#000000;fill-opacity:1;stroke:#000000;stroke-width:1.5;stroke-linecap:butt;stroke-linejoin:miter;stroke-miterlimit:4;stroke-opacity:1;stroke-dasharray:none;stroke-dashoffset:0;marker:none;visibility:visible;display:inline;overflow:visible;enable-background:accumulate" />
    <path
       d="m 252.34429,452.67599 c -5.88833,4.82232 -12.66226,8.50902 -19.60453,11.58801 0,0 4.43761,-3.51807 4.43761,-3.51807 l 0,0 c 0.58267,-0.26211 1.1692,-0.51579 1.748,-0.78634 0.75075,-0.35092 1.93238,-1.8473 2.24032,-1.07792 0.31308,0.78219 -2.9112,1.66854 -2.12236,1.37263 3.02061,-1.13309 5.49856,-3.61005 8.05189,-5.47182 0,0 5.24907,-2.10649 5.24907,-2.10649 z"
       id="path2922"
       style="color:#000000;fill:#000000;fill-opacity:1;stroke:#000000;stroke-width:1.5;stroke-linecap:butt;stroke-linejoin:miter;stroke-miterlimit:4;stroke-opacity:1;stroke-dasharray:none;stroke-dashoffset:0;marker:none;visibility:visible;display:inline;overflow:visible;enable-background:accumulate" />
    <path
       d="m 319.01941,421.78188 c -3.65033,8.74822 -7.55757,17.39713 -11.69487,25.92687 -4.47915,8.47435 -9.50488,16.72201 -15.68437,24.06671 -5.60163,6.10594 -12.3704,11.00126 -19.13674,15.7264 -5.01949,3.46424 -9.91694,7.1036 -15.03936,10.41894 -1.51116,0.94988 -0.81287,0.51786 -2.09214,1.30049 0,0 -5.30505,2.0491 -5.30505,2.0491 l 0,0 c 1.29834,-0.77801 0.59026,-0.348 2.12102,-1.29526 5.15713,-3.29422 10.06573,-6.93991 15.09551,-10.41829 6.76476,-4.708 13.5479,-9.55551 19.20095,-15.59701 6.24945,-7.26387 11.23897,-15.51903 15.76171,-23.94638 4.13112,-8.49348 8.02322,-17.10807 11.65318,-25.82695 0,0 5.12016,-2.40462 5.12016,-2.40462 z"
       id="path2924"
       style="color:#000000;fill:#000000;fill-opacity:1;stroke:#000000;stroke-width:1.5;stroke-linecap:butt;stroke-linejoin:miter;stroke-miterlimit:4;stroke-opacity:1;stroke-dasharray:none;stroke-dashoffset:0;marker:none;visibility:visible;display:inline;overflow:visible;enable-background:accumulate" />
    <path
       d="m 287.25364,419.29029 c -4.78379,10.71247 -11.27646,20.49535 -17.72849,30.24765 -7.27607,11.10396 -15.53404,21.42467 -24.09722,31.54362 -7.83389,8.68026 -17.73548,14.32577 -27.83072,19.90929 -4.08619,2.05542 -8.5085,3.06635 -12.96628,3.90369 0,0 4.49872,-3.40037 4.49872,-3.40037 l 0,0 c 4.42266,-0.86295 8.79714,-1.93222 12.83619,-4.0111 -0.36024,0.2728 -1.47809,1.03353 -1.08071,0.8184 5.65083,-3.05921 10.68855,-6.95373 15.44268,-11.2531 1.36094,-1.23076 2.65625,-2.53222 3.98438,-3.79833 8.57834,-10.10327 16.8722,-20.3907 24.14791,-31.49389 6.4249,-9.7089 12.92474,-19.43036 17.66425,-30.10881 0,0 5.12929,-2.35705 5.12929,-2.35705 z"
       id="path2926"
       style="color:#000000;fill:#000000;fill-opacity:1;stroke:#000000;stroke-width:1.5;stroke-linecap:butt;stroke-linejoin:miter;stroke-miterlimit:4;stroke-opacity:1;stroke-dasharray:none;stroke-dashoffset:0;marker:none;visibility:visible;display:inline;overflow:visible;enable-background:accumulate" />
    <path
       d="m 421.20903,407.89192 c -6.09679,10.97977 -13.88679,20.90119 -21.91285,30.51725 -9.64208,11.6712 -20.86885,21.83395 -31.92533,32.11938 -8.73375,7.69816 -17.6644,15.1714 -26.71354,22.49354 -3.19024,2.55874 -6.39722,5.09647 -9.61063,7.62599 0,0 -5.25579,2.10341 -5.25579,2.10341 l 0,0 c 3.23799,-2.53207 6.46724,-5.07534 9.67599,-7.64441 9.09481,-7.29311 18.00845,-14.81642 26.79255,-22.48297 11.05382,-10.27831 22.30955,-20.40194 31.95946,-32.05866 8.00503,-9.56064 15.80808,-19.42291 21.83797,-30.37689 0,0 5.15217,-2.29664 5.15217,-2.29664 z"
       id="path2928"
       style="color:#000000;fill:#000000;fill-opacity:1;stroke:#000000;stroke-width:1.5;stroke-linecap:butt;stroke-linejoin:miter;stroke-miterlimit:4;stroke-opacity:1;stroke-dasharray:none;stroke-dashoffset:0;marker:none;visibility:visible;display:inline;overflow:visible;enable-background:accumulate" />
    <path
       d="m 401.53935,390.71886 c -3.60585,11.41474 -8.55614,22.20219 -14.49779,32.57142 -6.93943,11.85926 -16.35487,21.88583 -26.05952,31.4972 -7.0552,7.17842 -14.80297,13.5095 -23.1433,19.112 -5.75095,4.34248 -12.31184,7.37407 -18.48158,10.99061 -2.26586,1.18297 -1.16589,0.62109 -3.29796,1.68945 0,0 4.42532,-3.54232 4.42532,-3.54232 l 0,0 c 2.11726,-1.0745 1.02513,-0.50729 3.27397,-1.70628 1.24239,-0.68416 4.82544,-2.89361 3.80056,-1.91318 -0.75455,0.72181 -1.72049,1.22949 -2.70276,1.58377 -1.8677,0.67363 3.34262,-2.14423 4.9905,-3.25174 0.91416,-0.61439 1.84518,-1.20332 2.76777,-1.80497 8.36775,-5.58695 16.19039,-11.84054 23.25137,-19.04211 9.72247,-9.56228 19.14285,-19.55811 26.12571,-31.36308 5.95334,-10.31119 10.95853,-21.0419 14.41843,-32.46372 0,0 5.12928,-2.35705 5.12928,-2.35705 z"
       id="path2930"
       style="color:#000000;fill:#000000;fill-opacity:1;stroke:#000000;stroke-width:1.5;stroke-linecap:butt;stroke-linejoin:miter;stroke-miterlimit:4;stroke-opacity:1;stroke-dasharray:none;stroke-dashoffset:0;marker:none;visibility:visible;display:inline;overflow:visible;enable-background:accumulate" />
    <path
       d="m 246.60237,427.59512 c -7.55381,8.7923 -14.4321,18.13164 -21.66226,27.1858 -6.40532,7.47248 -12.57345,15.13015 -18.58881,22.91902 0,0 -5.17465,2.22037 -5.17465,2.22037 l 0,0 c 6.05561,-7.79306 12.2198,-15.49046 18.66923,-22.96273 7.22237,-9.02444 14.07329,-18.34707 21.56268,-27.15574 0,0 5.19381,-2.20672 5.19381,-2.20672 z"
       id="path2932"
       style="color:#000000;fill:#000000;fill-opacity:1;stroke:#000000;stroke-width:1.5;stroke-linecap:butt;stroke-linejoin:miter;stroke-miterlimit:4;stroke-opacity:1;stroke-dasharray:none;stroke-dashoffset:0;marker:none;visibility:visible;display:inline;overflow:visible;enable-background:accumulate" />
    <path
       d="m 104.73369,336.0676 c -2.58087,7.28814 -3.39436,14.97807 -4.769364,22.53255 -1.091925,6.61649 -2.409046,13.13605 -4.142207,19.61108 -1.555485,3.7108 -2.45819,7.81158 -4.874236,11.08241 -0.592689,0.4334 -0.756103,0.87555 -1.035405,1.44492 0,0 -5.068009,2.61999 -5.068009,2.61999 l 0,0 c -0.146261,-0.8638 0.185006,-1.25808 0.885013,-1.82675 2.565017,-3.13512 3.387031,-7.23069 4.999109,-10.8912 1.738158,-6.47057 3.134301,-12.96459 4.195057,-19.58665 1.407548,-7.55813 2.168851,-15.26321 4.68989,-22.58174 0,0 5.120152,-2.40461 5.120152,-2.40461 z"
       id="path2934"
       style="color:#000000;fill:#000000;fill-opacity:1;stroke:#000000;stroke-width:1.5;stroke-linecap:butt;stroke-linejoin:miter;stroke-miterlimit:4;stroke-opacity:1;stroke-dasharray:none;stroke-dashoffset:0;marker:none;visibility:visible;display:inline;overflow:visible;enable-background:accumulate" />
    <path
       d="m 287.11503,329.57126 c -0.66647,0.34165 -2.60457,1.46622 -1.99942,1.02496 6.11726,-4.46054 13.37668,-7.71468 20.61236,-9.90466 5.19211,-0.93033 8.23762,0.75295 9.90037,5.66138 1.01651,7.66715 -2.09879,14.72062 -5.21318,21.52449 -4.25727,8.58403 -9.67983,16.49077 -14.96606,24.45591 -2.07332,3.95227 -5.14508,7.2949 -7.29237,11.16372 4.34745,-2.05295 8.76159,-3.95768 13.23659,-5.71718 7.85824,-2.74035 15.85642,-4.8172 24.07975,-6.08344 5.43404,-0.52114 10.97946,-1.6425 16.33139,-0.17421 1.14303,0.37289 2.21836,0.89014 3.17288,1.61885 0,0 -4.81727,3.05041 -4.81727,3.05041 l 0,0 c -0.91826,-0.65953 -1.94321,-1.12477 -3.02496,-1.45693 -5.29973,-1.33198 -10.79905,-0.17587 -16.15098,0.33082 -8.19838,1.3 -16.18031,3.4001 -24.00479,6.18323 -2.5077,1.00186 -10.54391,5.29558 -12.91828,5.30556 -0.3315,10e-4 -0.61922,-0.23698 -0.92882,-0.35546 -0.68909,-2.2597 6.63706,-8.98732 7.18663,-11.62015 5.29707,-7.94229 10.7166,-15.83221 15.01231,-24.38095 3.08443,-6.67707 6.20341,-13.57278 5.34861,-21.11839 -1.5559,-4.70398 -4.55084,-5.95695 -9.41081,-4.93927 -10.30491,3.24909 -7.7521,2.78357 -18.56856,8.96258 0,0 4.41461,-3.53127 4.41461,-3.53127 z"
       id="path2936"
       style="color:#000000;fill:#000000;fill-opacity:1;stroke:#000000;stroke-width:1.5;stroke-linecap:butt;stroke-linejoin:miter;stroke-miterlimit:4;stroke-opacity:1;stroke-dasharray:none;stroke-dashoffset:0;marker:none;visibility:visible;display:inline;overflow:visible;enable-background:accumulate" />
    <path
       d="m 544.18037,298.98093 c -2.72693,-0.45394 -5.46773,-1.27633 -8.24245,-1.4268 -2.27132,-0.12318 -3.60415,0.58488 -3.32102,0.44689 1.63469,-0.79671 3.33851,-1.44301 5.00776,-2.16451 4.83025,2.70226 10.69259,2.77846 16.08759,3.14256 5.61402,-0.13207 11.06309,0.78338 16.49187,2.10384 3.21922,0.57684 3.68148,3.29965 3.02069,6.05938 -1.85955,4.12196 -5.20329,7.2059 -8.65048,10.00118 -3.07205,2.60626 -7.07624,4.68443 -8.86085,8.46336 -0.52523,2.76876 2.63181,3.70788 4.69563,4.33812 3.67762,0.47357 6.47151,2.75694 8.65399,5.60751 1.49238,4.49852 -0.46216,8.73886 -2.67509,12.60363 -5.79886,9.81805 -15.04602,14.75667 -24.74584,20.1365 0,0 4.32623,-3.47914 4.32623,-3.47914 l 0,0 c 5.43408,-1.0104 12.04311,-9.95448 15.27036,-14.36781 2.17646,-3.65414 4.17477,-7.6418 2.94995,-11.99356 -2.14982,-2.80124 -4.89194,-4.80589 -8.47003,-5.31564 -2.42025,-0.80281 -5.50295,-2.07027 -5.16501,-5.15314 1.48026,-3.98744 5.68197,-6.13276 8.78361,-8.73666 3.43156,-2.73569 6.72469,-5.68709 8.76295,-9.6583 0.74925,-2.56302 0.47489,-4.76967 -2.55827,-5.28544 -5.3969,-1.31565 -10.82345,-2.13735 -16.39943,-2.05186 -5.53262,-0.39437 -11.82911,-0.38174 -16.51654,-3.69812 1.5038,-1.3301 2.88816,-2.80894 4.51142,-3.9903 2.13997,-1.55742 9.30504,1.05415 11.72391,1.24233 0,0 -4.68095,3.17598 -4.68095,3.17598 z"
       id="path2938"
       style="color:#000000;fill:#000000;fill-opacity:1;stroke:#000000;stroke-width:1.5;stroke-linecap:butt;stroke-linejoin:miter;stroke-miterlimit:4;stroke-opacity:1;stroke-dasharray:none;stroke-dashoffset:0;marker:none;visibility:visible;display:inline;overflow:visible;enable-background:accumulate" />
    <path
       d="m 169.97384,608.69034 c -5.89389,0.9064 -11.80073,2.19181 -17.63594,0.45543 -6.39117,-3.45991 -3.90057,-10.57338 -1.9041,-16.02335 3.93148,-9.14572 8.94612,-17.82842 15.20202,-25.57106 5.53574,-6.96129 12.52131,-13.78497 21.62313,-15.5311 5.9954,0.38718 8.30348,5.75281 10.07178,10.75363 2.35788,7.3043 1.59672,14.65981 -0.52466,21.88641 -1.78446,5.14632 -4.80416,9.56933 -8.2738,13.69734 0,0 -5.16823,2.1883 -5.16823,2.1883 l 0,0 c 3.51071,-4.04039 6.53852,-8.40279 8.374,-13.48638 2.16876,-7.10405 2.97246,-14.35019 0.66656,-21.56159 -1.67131,-4.75514 -3.8408,-10.01458 -9.64358,-10.06318 -0.80677,0.1898 -2.09199,1.33039 -2.42031,0.5694 -0.33178,-0.76902 2.81396,-1.76577 2.02313,-1.49 -4.96207,1.73034 -8.20131,7.28934 -11.59421,10.84965 -6.30514,7.65268 -11.29334,16.30518 -15.25299,25.39258 -1.90479,5.05222 -4.7167,12.0407 1.48428,15.19375 5.81012,1.54984 11.66555,0.25673 17.49551,-0.66119 0,0 -4.52259,3.40136 -4.52259,3.40136 z"
       id="path2940"
       style="color:#000000;fill:#000000;fill-opacity:1;stroke:#000000;stroke-width:1.5;stroke-linecap:butt;stroke-linejoin:miter;stroke-miterlimit:4;stroke-opacity:1;stroke-dasharray:none;stroke-dashoffset:0;marker:none;visibility:visible;display:inline;overflow:visible;enable-background:accumulate" />
    <path
       d="m 419.66019,587.75759 c -0.69351,7.31049 -1.67841,14.5864 -2.3345,21.90109 -0.0759,3.23404 -1.04671,6.33146 -2.52471,9.18378 -0.42384,0.4364 -0.65199,1.78836 -0.72229,0.51765 2.11437,-0.061 4.23018,-0.0612 6.3453,-0.075 4.56453,-0.93713 8.94743,-2.4363 13.30636,-4.06115 6.04642,-1.92887 12.14938,-3.64563 18.22967,-5.47667 3.40364,-1.1307 6.94526,-1.62244 10.5064,-1.88125 1.2879,-0.31134 2.00681,0.69988 2.66052,1.41098 0,0 -4.76338,3.14639 -4.76338,3.14639 l 0,0 c -0.84745,-0.71973 -1.08407,-1.53896 -2.4683,-1.18315 -3.53024,0.27828 -7.0272,0.83959 -10.40037,1.95632 -6.06612,1.8499 -12.18826,3.48279 -18.19953,5.49631 -4.39195,1.61493 -8.82281,3.1851 -13.45971,3.93056 -2.12724,0.0147 -4.25425,0.047 -6.38114,0.0796 -0.93388,-0.89974 -0.45071,-0.53213 0.15114,-1.53079 1.56385,-2.75718 2.58272,-5.81269 2.67569,-9.0009 0.67757,-7.29538 1.65265,-14.55495 2.34418,-21.84844 0,0 5.03467,-2.5653 5.03467,-2.5653 z"
       id="path2942"
       style="color:#000000;fill:#000000;fill-opacity:1;stroke:#000000;stroke-width:1.5;stroke-linecap:butt;stroke-linejoin:miter;stroke-miterlimit:4;stroke-opacity:1;stroke-dasharray:none;stroke-dashoffset:0;marker:none;visibility:visible;display:inline;overflow:visible;enable-background:accumulate" />
    <path
       d="m -186.37127,444.5986 c -1.22902,7.3003 -1.84407,14.68043 -2.22955,22.0671 -0.0701,8.10486 -0.84795,16.19192 -2.38713,24.14892 -1.22088,6.40364 -2.72431,12.69754 -4.54564,18.95194 -0.15955,1.22276 -1.72951,4.5589 -1.13606,5.22577 0,0 -4.72545,3.19687 -4.72545,3.19687 l 0,0 c -1.65599,-1.28118 0.68375,-4.3844 0.76149,-6.00354 1.82014,-6.25042 3.40092,-12.51628 4.60089,-18.92305 1.59048,-7.92312 2.34899,-15.99544 2.41929,-24.07487 0.36676,-7.39799 1.00422,-14.78261 2.15831,-22.10367 0,0 5.08385,-2.48547 5.08385,-2.48547 z"
       id="path2944"
       style="color:#000000;fill:#000000;fill-opacity:1;stroke:#000000;stroke-width:1.5;stroke-linecap:butt;stroke-linejoin:miter;stroke-miterlimit:4;stroke-opacity:1;stroke-dasharray:none;stroke-dashoffset:0;marker:none;visibility:visible;display:inline;overflow:visible;enable-background:accumulate" />
    <path
       d="m -201.03625,447.84439 c 9.4775,0.4156 18.88258,-0.88052 28.29923,-1.7226 7.24828,-1.04947 14.44096,-0.45961 21.62634,0.66004 0,0 -4.62201,3.24997 -4.62201,3.24997 l 0,0 c -7.14266,-1.11657 -14.2929,-1.6096 -21.49482,-0.58556 -9.44321,0.85342 -18.87642,2.07308 -28.38012,1.71945 0,0 4.57138,-3.3213 4.57138,-3.3213 z"
       id="path2946"
       style="color:#000000;fill:#000000;fill-opacity:1;stroke:#000000;stroke-width:1.5;stroke-linecap:butt;stroke-linejoin:miter;stroke-miterlimit:4;stroke-opacity:1;stroke-dasharray:none;stroke-dashoffset:0;marker:none;visibility:visible;display:inline;overflow:visible;enable-background:accumulate" />
    <path
       d="m -221.40241,510.31974 c 8.92702,-1.38185 17.97292,-1.51931 26.93735,-2.49879 9.66812,-1.29923 19.38278,-2.08722 29.12437,-2.52504 6.40048,-0.25375 12.80591,-0.31562 19.21064,-0.33508 1.33176,-0.003 2.66375,-0.005 3.99544,0.002 0,0 -4.62667,3.34543 -4.62667,3.34543 l 0,0 c -1.31377,-0.0214 -2.62769,-0.0218 -3.94164,-0.0232 -6.3841,0.005 -12.76921,0.0674 -19.14898,0.32026 -9.73102,0.44529 -19.4328,1.2596 -29.0919,2.54366 -8.9849,0.94196 -18.0482,1.11303 -26.9812,2.57261 0,0 4.52259,-3.40136 4.52259,-3.40136 z"
       id="path2948"
       style="color:#000000;fill:#000000;fill-opacity:1;stroke:#000000;stroke-width:1.5;stroke-linecap:butt;stroke-linejoin:miter;stroke-miterlimit:4;stroke-opacity:1;stroke-dasharray:none;stroke-dashoffset:0;marker:none;visibility:visible;display:inline;overflow:visible;enable-background:accumulate" />
    <path
       d="m -109.22841,533.17003 c -1.00041,5.53822 -1.5215,11.11303 -3.00002,16.54912 -0.89651,2.7906 -1.67843,5.60399 -2.19043,8.49088 0.14395,0.30695 -0.23777,0.65547 -0.14616,0.96902 0.0686,0.23475 0.97016,-0.62306 0.45222,-0.42859 -1.41345,0.53071 -2.74833,1.25088 -4.1225,1.87632 0,0 5.21159,-2.2613 5.21159,-2.2613 l 0,0 c -1.24101,0.87116 -6.71184,6.5918 -6.51145,2.33966 0.51295,-2.91093 1.2592,-5.75772 2.208,-8.55827 1.50796,-5.41411 2.07604,-10.95479 3.0149,-16.49137 0,0 5.08385,-2.48547 5.08385,-2.48547 z"
       id="path2950"
       style="color:#000000;fill:#000000;fill-opacity:1;stroke:#000000;stroke-width:1.5;stroke-linecap:butt;stroke-linejoin:miter;stroke-miterlimit:4;stroke-opacity:1;stroke-dasharray:none;stroke-dashoffset:0;marker:none;visibility:visible;display:inline;overflow:visible;enable-background:accumulate" />
    <path
       d="m -104.16429,507.53334 c -2.20633,4.37789 -4.39119,8.76657 -6.56996,13.15824 -0.12451,0.1794 -0.16111,0.48753 -0.37353,0.53821 -1.64377,0.39218 -3.35259,1.05445 -5.01433,0.74724 -1.34285,-0.24825 4.43695,-5.91792 4.67044,-6.14744 3.76041,-3.76658 8.42413,-6.46986 13.802514,-5.89783 3.07705,0.69145 3.701286,-0.18381 -2.365334,2.38514 0,0 5.176864,-2.35782 5.176864,-2.35782 l 0,0 c -5.676374,3.89274 -3.574219,3.91931 -7.439134,3.26962 -2.36859,-0.18826 -4.32782,0.33625 -4.17574,0.17035 0.90989,-0.99248 2.23546,-1.50186 3.36945,-2.2278 1.12694,-0.72143 -4.56758,2.95574 -3.13983,2.50113 -1.42016,1.3654 -3.00138,2.74115 -4.10886,4.39165 -0.28932,0.43119 -0.32766,1.038 -0.71472,1.38415 -1.65181,1.4772 -3.52461,2.68724 -5.30828,4.00219 -0.16401,0.12092 0.29749,-0.27853 0.44624,-0.4178 2.20899,-4.38407 4.41216,-8.77111 6.59363,-13.16895 0,0 5.15058,-2.33028 5.15058,-2.33028 z"
       id="path2952"
       style="color:#000000;fill:#000000;fill-opacity:1;stroke:#000000;stroke-width:1.5;stroke-linecap:butt;stroke-linejoin:miter;stroke-miterlimit:4;stroke-opacity:1;stroke-dasharray:none;stroke-dashoffset:0;marker:none;visibility:visible;display:inline;overflow:visible;enable-background:accumulate" />
    <path
       d="m -69.918909,473.93601 c 7.122827,2.07713 14.368896,3.58304 21.722149,4.53678 6.224253,0.97342 12.444137,0.32372 18.495746,-1.28351 4.933396,-1.48203 9.975671,-2.62041 15.083986,-3.2908 0,0 -4.536168,3.3905 -4.536168,3.3905 l 0,0 c -5.085118,0.71848 -10.101182,1.85286 -15.021627,3.32512 -6.11639,1.50578 -12.351013,2.12977 -18.611448,1.10183 -7.362603,-0.99244 -14.598623,-2.5704 -21.765086,-4.52976 0,0 4.632448,-3.25016 4.632448,-3.25016 z"
       id="path2954"
       style="color:#000000;fill:#000000;fill-opacity:1;stroke:#000000;stroke-width:1.5;stroke-linecap:butt;stroke-linejoin:miter;stroke-miterlimit:4;stroke-opacity:1;stroke-dasharray:none;stroke-dashoffset:0;marker:none;visibility:visible;display:inline;overflow:visible;enable-background:accumulate" />
    <path
       d="m -55.688125,493.17688 c 7.313709,-1.16263 14.69365,-1.79009 22.085504,-2.1539 7.489103,-0.30865 14.986062,-0.31539 22.480183,-0.33193 5.2778909,-0.50542 10.48479812,-1.5373 15.7161221,-2.37653 0.907041,-0.14524 1.8146997,-0.28656 2.7226806,-0.42578 0,0 -4.559263,3.41827 -4.559263,3.41827 l 0,0 c -0.8993547,0.13425 -1.79840839,0.27051 -2.6967047,0.4117 -5.2324908,0.82563 -10.440736,1.87322 -15.728927,2.27666 -7.486502,0.0135 -14.975933,0.0262 -22.456923,0.3489 -7.392799,0.38845 -14.777545,1.01351 -22.08526,2.23397 0,0 4.522588,-3.40136 4.522588,-3.40136 z"
       id="path2956"
       style="color:#000000;fill:#000000;fill-opacity:1;stroke:#000000;stroke-width:1.5;stroke-linecap:butt;stroke-linejoin:miter;stroke-miterlimit:4;stroke-opacity:1;stroke-dasharray:none;stroke-dashoffset:0;marker:none;visibility:visible;display:inline;overflow:visible;enable-background:accumulate" />
    <path
       d="m -35.588105,466.11953 c 8.197837,3.44721 16.907223,5.40326 25.329903,8.2 7.6400664,2.09039 15.1469701,4.66807 22.888098,6.37362 3.717112,0.78523 7.499023,1.25411 11.291537,1.45751 3.546803,1.49819 -5.635357,4.88883 -7.33689,5.85485 -7.2572777,3.70336 -4.908839,2.53663 -8.2896648,4.67591 -7.46510099,4.17183 -10.5837513,5.88071 -19.0859372,12.86923 -4.174096,3.79507 -8.676277,7.21148 -13.322554,10.4041 -1.921272,1.32657 -2.755428,1.22945 -5.642543,2.24672 0,0 5.246456,-2.17605 5.246456,-2.17605 l 0,0 c -5.768528,3.17064 -8.016279,4.45267 -4.888885,2.00315 4.686754,-3.16225 9.23573,-6.55619 13.405882,-10.38091 6.5351242,-5.4278 13.2775525,-9.68443 20.6709551,-13.91292 0.548944,-0.31396 -1.0818832,0.6551 -1.6228249,0.98265 5.8266926,-3.69545 11.7512858,-7.2375 17.9524738,-10.26783 2.964727,-1.46881 0.719144,-0.41547 -2.387149,1.71412 -0.227648,0.15607 0.502171,-0.22924 0.753256,-0.34385 0.401539,-0.40098 0.842933,-0.34217 -0.07725,-0.35258 -3.79227,-0.26552 -7.573917,-0.75167 -11.2888172,-1.56898 -7.73600525,-1.75521 -15.2548274,-4.32101 -22.8949368,-6.43658 -8.460533,-2.78718 -17.193138,-4.78003 -25.423737,-8.23484 0,0 4.722628,-3.10732 4.722628,-3.10732 z"
       id="path2958"
       style="color:#000000;fill:#000000;fill-opacity:1;stroke:#000000;stroke-width:1.5;stroke-linecap:butt;stroke-linejoin:miter;stroke-miterlimit:4;stroke-opacity:1;stroke-dasharray:none;stroke-dashoffset:0;marker:none;visibility:visible;display:inline;overflow:visible;enable-background:accumulate" />
    <path
       d="m 739.02677,428.96511 c 8.90861,3.84199 18.47443,5.42819 28.0428,6.53368 10.42183,1.04723 20.90189,-0.31739 31.19506,-1.9222 8.37183,-0.82274 16.5367,-2.76117 24.76085,-4.42781 3.81799,-1.10847 7.5747,0.10994 11.33508,0.80897 0,0 -4.65046,3.24754 -4.65046,3.24754 l 0,0 c -3.71618,-0.71672 -7.40423,-1.77125 -11.17485,-0.65456 -8.2093,1.67314 -16.37931,3.51007 -24.7299,4.37138 -10.32748,1.5823 -20.83976,2.90909 -31.28791,1.80336 -9.61982,-1.14827 -19.21715,-2.80246 -28.18809,-6.62992 0,0 4.69742,-3.13044 4.69742,-3.13044 z"
       id="path2960"
       style="color:#000000;fill:#000000;fill-opacity:1;stroke:#000000;stroke-width:1.5;stroke-linecap:butt;stroke-linejoin:miter;stroke-miterlimit:4;stroke-opacity:1;stroke-dasharray:none;stroke-dashoffset:0;marker:none;visibility:visible;display:inline;overflow:visible;enable-background:accumulate" />
    <path
       d="m 747.16902,467.46259 c 8.86219,-1.6417 17.69409,-3.28401 26.66768,-4.22684 10.88525,-0.94888 21.82026,-1.01426 32.73859,-1.09818 9.74314,-0.0414 19.4864,-0.018 29.22958,-0.0105 5.24849,0.003 10.49699,0.005 15.74548,-0.006 1.46238,-0.003 2.92478,-0.002 4.38716,-0.006 0,0 -4.61438,3.3526 -4.61438,3.3526 l 0,0 c -1.45573,-0.004 -2.91146,-0.003 -4.36719,-0.009 -5.22736,-0.0193 -10.45475,-0.0285 -15.68214,-0.0405 -9.73467,-0.0198 -19.46945,-0.0453 -29.20409,-0.002 -10.90948,0.0793 -21.83649,0.16209 -32.71008,1.14572 -8.98745,0.97665 -17.83434,2.64522 -26.7132,4.30203 0,0 4.52259,-3.40137 4.52259,-3.40137 z"
       id="path2962"
       style="color:#000000;fill:#000000;fill-opacity:1;stroke:#000000;stroke-width:1.5;stroke-linecap:butt;stroke-linejoin:miter;stroke-miterlimit:4;stroke-opacity:1;stroke-dasharray:none;stroke-dashoffset:0;marker:none;visibility:visible;display:inline;overflow:visible;enable-background:accumulate" />
    <path
       d="m 810.12618,408.97667 c 7.79029,4.54182 16.17026,7.82164 24.58535,10.97665 8.31904,3.18149 16.9479,5.15354 25.5808,7.22358 6.85268,1.39448 13.64948,2.83309 20.41111,4.61624 3.1014,0.71446 6.23138,1.32138 9.38878,1.72862 1.91096,0.14345 0.74537,2.27109 0.0519,3.15776 -3.37784,4.14347 -7.05658,8.02244 -10.75524,11.87713 -7.3435,7.48419 -15.17702,14.47132 -22.93484,21.52256 -8.43379,7.02042 -17.17589,13.7156 -26.04328,20.18487 -4.63159,3.5897 -9.75181,6.45303 -14.24127,10.22308 -0.17089,0.59698 -3.38038,2.71353 -1.44997,1.22832 2.54339,-0.84957 1.66809,-0.64473 -2.2242,1.5251 0,0 5.29405,-2.0344 5.29405,-2.0344 l 0,0 c -6.67065,3.79164 -3.99693,2.7968 -7.56442,4.00318 -2.74944,0.14075 -0.14319,-1.84623 0.68819,-2.5953 4.48192,-3.8378 9.62191,-6.70354 14.29928,-10.29211 8.90246,-6.42767 17.61144,-13.17899 26.09725,-20.14051 7.74234,-7.03902 15.55988,-14.01216 22.90236,-21.46783 3.67953,-3.8371 7.37288,-7.67647 10.69273,-11.83521 0.54636,-0.50998 2.14651,-2.03895 0.53321,-2.07152 -3.15303,-0.46232 -6.28368,-1.07616 -9.38291,-1.81737 -6.74305,-1.80175 -13.54142,-3.18807 -20.3702,-4.62714 -8.65386,-2.05297 -17.27509,-4.11623 -25.6113,-7.28718 -8.44227,-3.16575 -16.8058,-6.53231 -24.66996,-10.9912 0,0 4.72263,-3.10732 4.72263,-3.10732 z"
       id="path2964"
       style="color:#000000;fill:#000000;fill-opacity:1;stroke:#000000;stroke-width:1.5;stroke-linecap:butt;stroke-linejoin:miter;stroke-miterlimit:4;stroke-opacity:1;stroke-dasharray:none;stroke-dashoffset:0;marker:none;visibility:visible;display:inline;overflow:visible;enable-background:accumulate" />
    <path
       d="m 953.6218,413.50787 c -2.30801,9.69878 -3.64755,19.58003 -5.3784,29.39039 -1.83479,10.02054 -3.21654,20.13503 -5.12809,30.13919 -1.12825,5.28666 -2.25476,10.5715 -3.13063,15.90679 -0.16871,0.57738 -0.15742,1.19499 -0.18787,1.77267 0,0 -5.30495,2.1191 -5.30495,2.1191 l 0,0 c 0.22353,-0.4293 0.36805,-0.91477 0.39167,-1.3982 0.91114,-5.35011 2.03927,-10.65511 3.19882,-15.95621 1.96666,-9.99417 3.30496,-20.1229 5.15426,-30.14139 1.72607,-9.79048 3.05823,-19.65067 5.31521,-29.33903 0,0 5.06998,-2.49331 5.06998,-2.49331 z"
       id="path2966"
       style="color:#000000;fill:#000000;fill-opacity:1;stroke:#000000;stroke-width:1.5;stroke-linecap:butt;stroke-linejoin:miter;stroke-miterlimit:4;stroke-opacity:1;stroke-dasharray:none;stroke-dashoffset:0;marker:none;visibility:visible;display:inline;overflow:visible;enable-background:accumulate" />
    <path
       d="m 930.4366,411.45002 c 6.05966,2.1707 12.2056,4.10452 18.35096,6.01925 0,0 -4.60435,3.13694 -4.60435,3.13694 l 0,0 c -6.1554,-1.92457 -12.30661,-3.8715 -18.40655,-5.96481 0,0 4.65994,-3.19138 4.65994,-3.19138 z"
       id="path2968"
       style="color:#000000;fill:#000000;fill-opacity:1;stroke:#000000;stroke-width:1.5;stroke-linecap:butt;stroke-linejoin:miter;stroke-miterlimit:4;stroke-opacity:1;stroke-dasharray:none;stroke-dashoffset:0;marker:none;visibility:visible;display:inline;overflow:visible;enable-background:accumulate" />
    <path
       d="m 915.74045,496.03402 c 8.38883,-0.84681 16.70764,-2.02996 25.01384,-3.4738 5.47104,-0.36947 10.58615,-2.16261 15.82849,-3.56779 1.23597,-0.51684 2.68923,-0.44708 3.93575,-0.9132 0.35301,-0.132 1.32442,-0.71973 0.99831,-0.5308 -4.9023,2.84025 -5.04739,2.95819 -3.14073,1.71436 0.76976,-0.55408 0.41497,-0.28784 1.06819,-0.79358 0,0 5.28891,-2.12236 5.28891,-2.12236 l 0,0 c -0.64821,0.53496 -0.29602,0.2535 -1.06072,0.83915 -3.73103,2.62092 -7.19115,4.50841 -11.57947,5.25473 -5.22284,1.44924 -10.37433,3.05577 -15.81889,3.49287 -8.32411,1.42334 -16.66621,2.55415 -25.05627,3.50179 0,0 4.52259,-3.40137 4.52259,-3.40137 z"
       id="path2970"
       style="color:#000000;fill:#000000;fill-opacity:1;stroke:#000000;stroke-width:1.5;stroke-linecap:butt;stroke-linejoin:miter;stroke-miterlimit:4;stroke-opacity:1;stroke-dasharray:none;stroke-dashoffset:0;marker:none;visibility:visible;display:inline;overflow:visible;enable-background:accumulate" />
    <path
       d="m 995.60894,538.98093 c -5.70693,-2.36743 -10.96977,-5.45249 -14.96461,-10.21729 -3.2198,-4.82339 -1.30045,-10.15713 0.43688,-15.15574 2.54126,-6.16813 5.60555,-12.06341 9.30531,-17.60984 1.50823,-2.41794 2.88292,-4.92685 4.00402,-7.54876 0.0828,-0.19781 0.15848,-0.39841 0.23524,-0.59858 0,0 5.15702,-2.45434 5.15702,-2.45434 l 0,0 c -0.0604,0.22677 -0.10668,0.45711 -0.21477,0.66997 -1.10887,2.66802 -2.51971,5.20214 -4.01119,7.67232 -3.73532,5.49722 -6.81442,11.34863 -9.37766,17.48488 -1.69324,4.77564 -3.76026,9.97605 -0.69392,14.63098 3.94146,4.6817 9.15345,7.70179 14.80464,9.95042 0,0 -4.68096,3.17598 -4.68096,3.17598 z"
       id="path2972"
       style="color:#000000;fill:#000000;fill-opacity:1;stroke:#000000;stroke-width:1.5;stroke-linecap:butt;stroke-linejoin:miter;stroke-miterlimit:4;stroke-opacity:1;stroke-dasharray:none;stroke-dashoffset:0;marker:none;visibility:visible;display:inline;overflow:visible;enable-background:accumulate" />
    <path
       d="m 970.39232,510.70153 c 6.75282,-0.65315 13.46572,-1.64485 20.21205,-2.36203 3.8559,-0.37448 7.73055,-0.46686 11.60183,-0.51798 -0.3068,0.27593 4.2784,-1.84841 4.2637,-1.84013 -4.1651,2.34478 -5.4586,3.24428 -3.6837,2.03491 0.095,-0.34503 0.4863,-0.19121 0.5231,-0.20568 0,0 5.1551,-2.4637 5.1551,-2.4637 l 0,0 c -0.082,0.26064 0.031,0.39528 -0.3752,0.58038 -3.0939,2.22626 -6.6656,4.44466 -10.47254,5.23747 -3.85294,0.0456 -7.70866,0.15611 -11.54492,0.54141 -6.75809,0.71085 -13.48086,1.72449 -20.2508,2.31666 0,0 4.57138,-3.32131 4.57138,-3.32131 z"
       id="path2974"
       style="color:#000000;fill:#000000;fill-opacity:1;stroke:#000000;stroke-width:1.5;stroke-linecap:butt;stroke-linejoin:miter;stroke-miterlimit:4;stroke-opacity:1;stroke-dasharray:none;stroke-dashoffset:0;marker:none;visibility:visible;display:inline;overflow:visible;enable-background:accumulate" />
    <path
       d="m 1004.678,456.41582 c 12.7004,0.13424 25.4102,-0.80084 38.0445,-2.04067 12.7988,-1.49768 25.6341,-2.62656 38.5017,-3.30702 5.3459,-0.21975 10.645,0.12787 15.7139,-1.78024 0.32,-0.14791 0.64,-0.29582 0.96,-0.44374 0,0 -4.458,3.52959 -4.458,3.52959 l 0,0 c -0.3255,0.13545 -0.651,0.2709 -0.9765,0.40635 -5.1014,1.73505 -10.4188,1.33724 -15.7411,1.59483 -12.8405,0.66775 -25.6472,1.79526 -38.4199,3.27729 -12.6891,1.21828 -25.4425,2.16996 -38.1959,2.08491 0,0 4.5713,-3.3213 4.5713,-3.3213 z"
       id="path2976"
       style="color:#000000;fill:#000000;fill-opacity:1;stroke:#000000;stroke-width:1.5;stroke-linecap:butt;stroke-linejoin:miter;stroke-miterlimit:4;stroke-opacity:1;stroke-dasharray:none;stroke-dashoffset:0;marker:none;visibility:visible;display:inline;overflow:visible;enable-background:accumulate" />
    <path
       d="m 1036.1066,470.70153 c 9.619,-0.83187 19.214,-1.70774 28.7591,-3.16675 7.0423,-1.19332 14.1451,-1.91184 21.2675,-2.39029 1.6007,-0.081 3.2023,-0.21422 4.806,-0.20121 0,0 -4.6229,3.35107 -4.6229,3.35107 l 0,0 c -1.5794,0.0256 -3.1572,0.10911 -4.7339,0.2028 -7.0956,0.46501 -14.1667,1.21348 -21.1833,2.3867 -9.5792,1.44234 -19.2128,2.3184 -28.8639,3.13899 0,0 4.5714,-3.32131 4.5714,-3.32131 z"
       id="path2978"
       style="color:#000000;fill:#000000;fill-opacity:1;stroke:#000000;stroke-width:1.5;stroke-linecap:butt;stroke-linejoin:miter;stroke-miterlimit:4;stroke-opacity:1;stroke-dasharray:none;stroke-dashoffset:0;marker:none;visibility:visible;display:inline;overflow:visible;enable-background:accumulate" />
    <path
       d="m 1178.0586,506.9617 c -3.9456,3.00602 -8.4681,5.22998 -12.0146,8.73865 -0.6509,0.74668 -0.5992,0.432 -0.2116,0.67816 0.2203,-0.13201 0.891,-0.51047 0.661,-0.39602 -4.3298,2.15499 -4.9081,3.27457 -3.0734,0.85439 0,0 5.2007,-2.26735 5.2007,-2.26735 l 0,0 c -1.5437,2.48441 -9.3465,7.62354 -7.8269,3.31148 3.46,-3.6333 8.024,-5.84219 12.0157,-8.81281 0,0 5.2491,-2.1065 5.2491,-2.1065 z"
       id="path2980"
       style="color:#000000;fill:#000000;fill-opacity:1;stroke:#000000;stroke-width:1.5;stroke-linecap:butt;stroke-linejoin:miter;stroke-miterlimit:4;stroke-opacity:1;stroke-dasharray:none;stroke-dashoffset:0;marker:none;visibility:visible;display:inline;overflow:visible;enable-background:accumulate" />
    <path
       d="m 1176.2055,489.24707 c -3.9605,-5.35335 -7.4574,-10.96248 -8.4974,-17.61403 -0.6973,-5.80342 2.6783,-10.24708 6.1549,-14.49128 3.5693,-3.80458 7.9904,-6.48612 12.4097,-9.15689 3.6214,-2.17144 1.4726,-0.9122 8.0824,-4.5041 1.1561,-0.62826 -2.2642,1.35091 -3.4595,1.90095 -0.4266,0.19628 0.7893,-0.51603 1.1366,-0.83208 0.9694,-0.88217 0.9618,-1.16089 1.5429,-2.34466 1.2292,-3.36382 1.3213,-6.74184 0.01,-10.05118 -2.0881,-5.04067 -5.9859,-7.04035 -11.0059,-8.34759 -7.6004,-1.55267 -14.9638,0.25585 -21.915,3.31236 -3.3328,1.625 -7.1371,5.16321 -10.4719,11.22397 0,0 -5.1486,2.3116 -5.1486,2.3116 l 0,0 c 4.3089,-8.23814 11.7093,-13.02832 20.0178,-17.01216 7.0637,-2.98181 14.5092,-4.68717 22.1616,-3.02712 5.1423,1.42054 9.1473,3.62548 11.301,8.7793 1.4047,3.43595 1.3915,6.90421 0.2105,10.44918 -0.4697,1.16191 -0.5491,1.70287 -1.4275,2.60685 -2.271,2.33731 -12.2872,7.84453 -4.1293,2.52552 0.5302,-0.34568 -1.0869,0.64878 -1.6304,0.97316 -4.4147,2.65716 -8.8507,5.26961 -12.4927,8.98589 -3.436,4.09459 -6.9417,8.39236 -6.364,14.06628 0.9329,6.56902 4.4402,12.10216 8.3706,17.34433 0,0 -4.8549,2.9017 -4.8549,2.9017 z"
       id="path2982"
       style="color:#000000;fill:#000000;fill-opacity:1;stroke:#000000;stroke-width:1.5;stroke-linecap:butt;stroke-linejoin:miter;stroke-miterlimit:4;stroke-opacity:1;stroke-dasharray:none;stroke-dashoffset:0;marker:none;visibility:visible;display:inline;overflow:visible;enable-background:accumulate" />
  </g>
</svg>
