<?xml version="1.0" encoding="UTF-8" standalone="no"?>
<!-- Created with Inkscape (http://www.inkscape.org/) -->

<svg
   xmlns:dc="http://purl.org/dc/elements/1.1/"
   xmlns:cc="http://creativecommons.org/ns#"
   xmlns:rdf="http://www.w3.org/1999/02/22-rdf-syntax-ns#"
   xmlns:svg="http://www.w3.org/2000/svg"
   xmlns="http://www.w3.org/2000/svg"
   xmlns:sodipodi="http://sodipodi.sourceforge.net/DTD/sodipodi-0.dtd"
   xmlns:inkscape="http://www.inkscape.org/namespaces/inkscape"
   width="1858.5242"
   height="766.63196"
   id="svg2"
   version="1.1"
   inkscape:version="0.47pre4 r22446"
   sodipodi:docname="New document 1">
  <defs
     id="defs4">
    <inkscape:perspective
       sodipodi:type="inkscape:persp3d"
       inkscape:vp_x="0 : 526.18109 : 1"
       inkscape:vp_y="0 : 1000 : 0"
       inkscape:vp_z="744.09448 : 526.18109 : 1"
       inkscape:persp3d-origin="372.04724 : 350.78739 : 1"
       id="perspective10" />
  </defs>
  <sodipodi:namedview
     id="base"
     pagecolor="#ffffff"
     bordercolor="#666666"
     borderopacity="1.0"
     inkscape:pageopacity="0.0"
     inkscape:pageshadow="2"
     inkscape:zoom="0.35"
     inkscape:cx="692.24539"
     inkscape:cy="388.70141"
     inkscape:document-units="px"
     inkscape:current-layer="layer1"
     showgrid="false"
     inkscape:window-width="1280"
     inkscape:window-height="750"
     inkscape:window-x="-4"
     inkscape:window-y="-3"
     inkscape:window-maximized="1" />
  <metadata
     id="metadata7">
    <rdf:RDF>
      <cc:Work
         rdf:about="">
        <dc:format>image/svg+xml</dc:format>
        <dc:type
           rdf:resource="http://purl.org/dc/dcmitype/StillImage" />
        <dc:title></dc:title>
      </cc:Work>
    </rdf:RDF>
  </metadata>
  <g
     inkscape:label="Layer 1"
     inkscape:groupmode="layer"
     id="layer1"
     transform="translate(320.10253,-154.43161)">
    <path
       style="color:#000000;fill:#000000;fill-opacity:1;stroke:#000000;stroke-width:1.5;stroke-linecap:butt;stroke-linejoin:miter;stroke-miterlimit:4;stroke-opacity:1;stroke-dasharray:none;stroke-dashoffset:0;marker:none;visibility:visible;display:inline;overflow:visible;enable-background:accumulate"
       id="path2816"
       d="m -299.40584,383.93432 c 8.45433,2.02776 16.90629,4.12324 25.43251,5.83434 10.41691,1.85326 21.01874,2.10159 31.56913,2.31516 11.64174,1.00119 23.27524,1.95078 34.95148,2.44001 12.7439,0.43967 25.49732,0.46449 38.24733,0.49383 10.95682,-0.32802 21.85548,0.2261 32.7529,1.29919 7.56469,0.80028 15.1574,1.23849 22.75917,1.44931 0.0696,0.0987 15.087015,0.1134 8.19536,0.10636 0.44428,-0.005 0.89899,-0.006 1.34069,-0.003 1.9071,-2.63357 3.33787,-5.68803 5.113294,-8.45435 3.631702,-6.30914 7.554534,-12.41942 11.924279,-18.2413 4.516074,-5.71407 9.917819,-10.80375 15.760281,-15.1503 4.70073,-3.17113 10.2658,-3.87919 15.254744,-0.93809 5.512517,5.61316 6.769951,13.17318 7.787762,20.65654 1.401729,12.01336 1.187594,24.06837 -0.433666,36.03444 -1.22696,8.26697 -3.156777,16.56647 -7.396109,23.83842 -1.857265,2.3006 -3.693834,3.92748 -6.936441,1.9739 -1.152058,-0.69409 -0.614259,-2.62255 -0.803392,-3.95418 0.110557,-11.28674 4.443623,-21.85001 8.6385,-32.13796 5.852485,-12.4603 12.392269,-24.64329 21.876814,-34.70862 7.073372,-6.66603 14.491997,-7.88301 22.661798,-2.23637 8.4640677,7.74389 11.8444391,18.75374 14.4503228,29.57005 3.1558163,13.60383 2.5683751,27.42065 0.8519003,41.14795 -0.5475442,4.39995 -1.1490498,8.89255 -2.7897204,13.04991 -0.338635,0.85808 -0.7044784,2.34293 -1.62149706,2.24266 -1.17040898,-0.12797 -2.26305404,-0.65078 -3.39458114,-0.97618 -1.6919955,-9.5108 -0.4787149,-19.28828 0.5832408,-28.80196 1.98499131,-14.47071 5.8268768,-28.65486 12.2455037,-41.78683 3.828109,-6.70641 9.091812,-11.78037 17.370634,-9.06827 1.105816,0.36226 1.883181,1.36743 2.824771,2.05115 8.154605,8.65387 10.438433,20.80317 12.299445,32.13776 1.84267,12.73897 1.284255,25.66848 -0.66185,38.34829 -0.539934,2.73925 -0.763836,3.41254 -0.993922,5.87681 -0.02795,0.29936 0.240843,1.05459 -0.0181,0.9018 -0.918366,-0.54186 -2.047396,-1.21009 -2.271298,-2.25262 -0.07657,-0.35652 2.346386,-7.57136 2.494592,-8.02274 4.355113,-13.49406 9.875699,-26.61231 16.571826,-39.10706 5.341662,-9.12137 11.021148,-17.89843 22.180086,-19.47144 1.944573,0.28446 3.976065,0.21196 5.833719,0.85337 5.791879,1.9998 9.840444,13.41374 11.651553,18.46948 2.895243,9.36071 3.855461,19.12791 4.411471,28.86326 -0.18694,0.49566 0.57146,7.55416 0.20969,7.30188 -2.896539,-2.01992 -2.338963,-1.13301 -1.595374,-4.21468 2.123464,-8.6414 3.806604,-17.36783 6.707414,-25.79366 1.92805,-6.75426 5.56423,-12.41191 11.16522,-16.62169 5.12546,-2.82404 11.45169,-2.01049 15.87634,1.70611 4.83029,4.38262 6.11925,10.57459 7.07766,16.7466 1.11326,5.13703 2.24478,10.26451 3.08596,15.45417 0.1629,0.3761 0.67866,1.78248 1.12751,2.09366 0.24812,0.17202 1.19187,0.14073 0.89083,0.16369 -4.05108,0.30899 0.9279,-0.568 1.32162,-0.64494 6.14538,-0.66707 12.25614,-1.59012 18.39178,-2.37836 11.96701,-0.89312 23.85564,-2.43755 35.73554,-4.10585 16.43754,-2.75423 32.87581,-5.42869 49.46014,-7.12376 15.66597,-1.41725 31.39947,-1.71235 47.11886,-1.88262 10.2088,0.15108 20.47056,-0.74787 30.59607,0.81189 3.18199,0.54815 6.36152,1.13342 9.50005,1.89658 1.26433,0.28806 0.61037,3.10127 -1.45106,-0.29706 -0.27201,-0.44843 0.41319,-0.96436 0.60402,-1.45291 0.28457,-0.72854 0.54798,-1.46519 0.82196,-2.19778 3.71047,-10.08976 7.86304,-19.95521 12.60523,-29.60125 5.06698,-10.42333 11.05284,-20.40259 17.88665,-29.76029 3.15875,-3.7726 6.24344,-6.33066 11.32154,-3.3237 0.87708,0.51936 3.43433,5.55277 3.66679,5.9804 5.2998,12.58926 6.90776,26.16494 8.14453,39.64087 1.55355,16.02314 1.27486,31.96081 -0.80614,47.89627 -1.6795,9.24286 -3.88784,18.83232 -9.39338,26.6193 -4.80061,4.63783 -9.21675,5.16819 -13.00287,-1.05295 -4.07284,-9.97228 -3.22179,-20.9046 -2.26301,-31.38394 1.41839,-13.66353 6.73892,-26.10435 14.10458,-37.545 5.81532,-8.99091 13.66608,-15.06547 23.66401,-18.57597 11.24958,-2.16716 17.80187,0.79952 24.1679,9.79976 5.60963,11.12306 7.83237,23.70267 8.71313,36.0339 0.10733,9.03249 0.53609,18.49798 -2.39676,27.19174 -0.94906,1.05592 -1.5137,2.00196 -3.67426,-0.43589 -1.07809,-1.21645 2.25148,-16.76374 2.61649,-18.29995 4.07039,-16.7623 10.34878,-32.75896 18.40551,-47.97492 4.04412,-6.18429 9.38999,-17.41136 17.32635,-19.65438 0.98953,-0.27966 2.05384,-0.10621 3.08075,-0.15931 1.9285,0.34426 3.98055,0.27133 5.78549,1.03277 1.10988,0.46822 1.83688,1.57708 2.60352,2.50624 4.9106,5.95157 6.03789,13.75867 7.30574,21.09081 2.52369,15.70481 1.49902,31.45817 -1.12984,47.04897 -1.17203,5.0079 -1.55115,10.24884 -3.55925,15.03733 -0.0601,0.14335 -1.02856,2.80111 -2.15704,2.57691 -1.15456,-0.22939 -2.18277,-0.88206 -3.27416,-1.32308 -0.16312,-11.89096 3.54385,-23.6339 7.18007,-34.83705 5.69886,-15.62067 12.75617,-28.42412 24.66348,-40.06804 9.34487,-7.50591 18.24708,-10.12985 29.71855,-5.50436 10.44165,6.48674 12.91354,18.00008 14.82543,29.31778 1.79921,11.60202 1.6863,23.22034 0.46511,34.84882 -0.13615,-0.0624 -0.78795,8.55379 -1.47103,8.23981 -0.90903,-0.41785 -1.74999,-0.97017 -2.62499,-1.45525 0.54144,-3.83432 2.53999,-6.1577 5.42446,-8.5188 4.06359,-2.75655 9.06229,-3.41492 13.72527,-4.65077 8.7502,-1.74818 17.61269,-2.85494 26.42407,-4.24739 14.67851,-2.07474 29.37952,-3.96237 44.1558,-5.18698 16.80711,-1.87469 33.6611,-3.12195 50.55559,-3.81362 12.40885,-0.44549 24.82598,-0.53015 37.24148,-0.56117 4.06799,0.21042 8.30804,-0.004 12.115,1.68959 0.58115,0.25847 1.08685,0.66824 1.66809,0.92651 0.47042,0.20903 1.67557,-0.004 1.47154,0.46853 -0.21371,0.49501 -1.07397,-0.0971 -1.61095,-0.14565 4.52814,-1.62624 6.89139,-7.5071 9.18886,-11.39706 6.30887,-10.31118 13.21768,-20.18616 21.01954,-29.41645 8.14241,-9.52229 17.88037,-16.76945 29.02679,-22.32583 7.20177,-2.59814 14.80656,-3.52215 22.34528,-1.60675 3.49545,0.88811 6.02546,3.14774 8.84676,5.19371 9.56187,9.95563 12.24695,23.07098 13.3798,36.35666 0.16593,12.67783 -1.80887,25.28038 -5.10359,37.49486 -0.90035,2.42973 -1.98351,8.84108 -6.37878,5.38387 -0.27337,-0.21502 0.0386,-4.08325 0.10394,-5.16122 1.67356,-13.49972 6.55498,-26.25836 11.7042,-38.75061 6.51254,-14.82174 14.35741,-27.70032 26.92056,-38.03963 10.00167,-6.94225 19.75572,-9.52309 31.39149,-4.64989 10.14359,6.49546 14.67882,17.7281 18.89406,28.48687 3.86845,10.63187 5.73409,21.80707 6.71571,33.03461 0.16288,2.80011 0.0947,3.99286 0.68817,6.58882 0.12479,0.54584 0.27779,1.09462 0.53312,1.59295 0.0993,0.19372 0.71631,0.43286 0.49895,0.42127 -2.8514,-0.15206 -2.2593,-0.22995 -1.26653,-1.68277 3.77214,-7.80234 7.40988,-15.67046 11.16787,-23.48093 5.02674,-9.87721 11.3324,-18.95099 19.05562,-26.88208 6.37559,-6.00511 12.91205,-8.49949 20.19342,-2.21716 5.54179,7.76548 5.79774,17.67861 6.36983,26.86925 -0.20006,7.33789 -0.47491,15.16328 -3.7557,21.89838 -0.86164,-0.50116 -2.14988,-0.60664 -2.5849,-1.50349 -0.25986,-0.53573 1.64195,-5.81128 1.93415,-6.59476 2.15217,-5.7707 4.63397,-11.40422 7.16125,-17.01675 6.42384,-13.90866 15.80324,-25.64048 27.97624,-34.84672 10.7392,-7.04537 22.7934,-8.52054 35.2595,-6.28159 10.4288,3.4742 14.5753,10.15812 17.6255,20.21077 1.9186,9.67718 0.1443,19.18727 -2.4226,28.52915 -1.4533,3.8814 -2.0281,9.88093 -5.6497,12.58858 -1.1253,-0.26332 -2.3509,-0.25632 -3.376,-0.78995 -1.0744,-0.55926 -0.6404,-5.49131 -0.6399,-6.47422 0.8031,-2.65558 1.4933,-5.46391 2.7938,-7.92385 1.4369,-2.86861 3.1949,-5.54461 4.8164,-8.31071 2.5805,-3.42904 5.7699,-6.24234 9.6817,-8.01234 2.8247,-1.73709 5.81,-3.03653 9.054,-3.71022 4.0012,-0.97641 7.6091,0.73325 11.3951,1.58404 3.104,0.66502 6.2981,0.70859 9.4593,0.77958 3.261,-0.0647 6.2951,1.34936 9.0417,2.98195 2.1919,1.62966 4.7516,2.26579 7.4133,2.57153 0.5254,0.22203 9.92,0.21183 6.7928,0.20457 5.8858,0.3406 11.6672,-0.53305 17.4814,-1.30103 9.7681,-1.19718 19.6214,-1.33475 29.4485,-1.48788 16.1334,-0.15355 32.2679,-0.11483 48.4017,-0.11191 19.7947,0.009 39.5894,0.0145 59.384,0.0179 21.9291,-0.12542 43.8367,-0.12851 65.7466,0.82241 23.4739,1.14537 46.9739,1.56977 70.4714,1.85482 18.4939,0.18931 36.9889,0.19861 55.4835,0.20007 10.0113,-0.005 20.0227,-0.0137 30.034,-0.0203 0.4342,-0.11356 9.9801,0.41422 8.8796,-0.5184 0,0 2.8452,-0.16009 2.8452,-0.16009 l 0,0 c 1.0018,2.3547 -7.6688,0.67908 -8.9547,1.11709 -11.8403,0.005 -23.6805,0.0127 -35.5208,0.0119 -18.4808,-0.004 -36.962,-0.0164 -55.442,-0.20995 -23.4989,-0.29042 -47.0003,-0.72014 -70.4759,-1.86263 -21.9106,-0.94443 -43.8196,-0.93073 -65.749,-0.81018 -19.8031,-0.002 -39.6061,-0.007 -59.4092,-0.0139 -14.3164,-0.004 -28.6333,-0.0258 -42.9492,0.1136 -9.8154,0.14991 -19.6568,0.28138 -29.4149,1.46023 -5.8094,0.7668 -11.5808,1.69033 -17.4633,1.3409 -4.1296,0.002 -8.2791,0.10729 -12.3987,-0.2375 -2.6748,-0.35054 -5.2169,-1.05895 -7.4246,-2.68721 -2.7539,-1.6043 -5.7735,-2.92512 -9.0238,-2.83895 -3.1663,-0.0788 -6.3645,-0.13923 -9.468,-0.83638 -1.7057,-0.4022 -5.7024,-1.48136 -5.7096,-1.56291 -0.039,-0.44252 1.7517,-0.12384 1.316,-0.21047 -0.456,-0.0906 -0.9204,0.13176 -1.3805,0.19765 -3.2486,0.61981 -6.2512,1.87502 -9.0504,3.64818 -3.9167,1.68284 -7.0712,4.4652 -9.668,7.83589 -1.6201,2.76272 -3.3671,5.43911 -4.8075,8.30151 -1.3272,2.39138 -1.9441,5.19134 -2.7925,7.78291 0,1.37424 -0.027,2.76475 0.1271,4.13342 0.083,0.73612 1.0703,1.67206 0.5146,2.16194 -0.5999,0.52886 -1.5316,0.46084 -2.2974,0.69127 3.7477,-2.26478 4.2265,-8.78834 5.6843,-12.38628 2.5682,-9.28827 4.3565,-18.74464 2.4328,-28.37128 -3.0554,-9.97655 -7.2078,-16.55551 -17.5993,-19.90486 -11.4603,-1.97238 -19.689,-0.10088 -29.7421,6.14872 -12.1861,9.13631 -21.5618,20.82756 -27.97083,34.70779 -2.51575,5.60386 -4.98353,11.22937 -7.12096,16.99211 -0.48113,1.29719 -0.95031,2.60109 -1.33497,3.93008 -0.24854,0.8587 0.0453,1.96596 -0.56156,2.62239 -0.75956,0.82164 -2.05687,0.88168 -3.08531,1.32252 3.38956,-6.62669 3.56219,-14.48667 3.79999,-21.74985 -0.5648,-9.11241 -0.80318,-18.99015 -6.38353,-26.64247 -6.71491,-5.56187 -8.1718,-3.11637 -14.60252,2.18929 -7.73428,7.8919 -14.05383,16.92697 -19.06728,26.7904 -3.75414,7.81678 -7.40205,15.68307 -11.11236,23.5198 -5.08403,8.20772 -6.43152,-4.8753 -6.08666,-7.05946 -0.96217,-11.20192 -2.80692,-22.35266 -6.6802,-32.95538 -4.205,-10.69912 -8.73783,-21.89527 -18.90706,-28.2608 -1.95696,-0.7895 -3.78691,-2.17114 -5.89222,-2.31491 -7.41471,-0.50632 -14.06353,2.7285 -19.96417,6.87982 -12.59385,10.26593 -20.42853,23.10789 -26.93857,37.90221 -5.1316,12.46028 -9.99973,25.1893 -11.62756,38.65994 -0.1355,2.40473 1.08656,5.60838 -2.3189,5.60004 -0.34668,-8.5e-4 0.60272,-0.37951 0.80001,-0.66457 0.99139,-1.43245 1.64668,-3.74007 2.1843,-5.24854 3.31869,-12.17741 5.31105,-24.74835 5.14216,-37.39732 -1.13867,-13.20961 -3.81385,-26.27645 -13.39941,-36.11655 -10.15209,-7.23512 -13.53206,-7.45496 -25.65094,-3.54222 -11.15058,5.50816 -20.89058,12.71064 -29.03274,22.21156 -7.79688,9.21055 -14.69999,19.06461 -20.98235,29.37127 -2.32978,3.97326 -4.69704,9.80028 -9.17657,11.66618 -1.33784,0.0268 -2.67964,0.18693 -4.01351,0.0805 -0.99199,-0.0792 -2.30029,-1.05069 -3.1281,-1.40172 -2.69236,-1.14171 -2.29083,-0.68118 -5.41266,-1.26922 -0.3881,-0.0731 -0.75863,-0.21988 -1.13794,-0.32981 -12.43012,0.0238 -24.8619,0.10571 -37.2856,0.54348 -16.89474,0.68267 -33.75052,1.913 -50.55631,3.80192 -14.76523,1.21389 -29.45291,3.10191 -44.11997,5.17121 -8.79438,1.40452 -17.63969,2.51058 -26.38093,4.22467 -4.64104,1.22809 -9.60899,1.8859 -13.69999,4.53284 -2.86002,2.31775 -4.88213,4.5062 -5.40519,8.31557 -0.98516,0.31754 -3.6164,1.86925 -2.89259,1.12932 1.68022,-1.71764 0.21433,-6.13699 1.35025,-7.99115 1.24042,-11.60221 1.37566,-23.19484 -0.43357,-34.77278 -1.91432,-11.23641 -4.3777,-22.69227 -14.83552,-29.03114 -1.40372,-0.54471 -2.81099,-1.08033 -4.21115,-1.63413 -0.4722,-0.18677 -0.89843,-0.56159 -1.40557,-0.58746 -7.13913,-0.36412 -13.16887,3.38261 -18.56476,7.61374 -11.94389,11.58313 -18.98123,24.33143 -24.67849,39.93323 -3.60858,11.13517 -7.30961,22.83068 -7.08722,34.65046 -0.79543,0.36025 -1.62992,0.64438 -2.38627,1.08074 -0.298,0.17192 0.7592,-0.0262 0.99408,-0.27755 0.53835,-0.57616 0.86792,-1.32605 1.18064,-2.04993 2.05545,-4.75796 2.41543,-10.00036 3.60241,-14.99025 2.64338,-15.55899 3.67736,-31.28136 1.12886,-46.955 -1.27261,-7.24657 -2.38685,-15.08119 -7.34351,-20.90947 -0.76119,-0.89504 -1.84008,-1.48481 -2.59636,-2.38401 -0.20925,-0.2488 -0.13988,-0.63498 -0.20981,-0.95247 -1.02371,0.0131 -2.07855,-0.21175 -3.0711,0.0392 -7.90015,1.99754 -13.39513,13.43021 -17.37405,19.47694 -8.07358,15.18195 -14.35082,31.1549 -18.38129,47.90531 -1.48543,6.29152 -1.56885,5.6785 -2.19403,11.67431 -0.13914,1.33441 -0.20718,2.67551 -0.2797,4.01518 -0.0439,0.81154 0.42923,1.79553 -0.0696,2.43718 -0.41931,0.53937 -3.68603,1.47696 -1.99944,0.45045 3.05409,-8.61492 2.5271,-18.09919 2.46034,-27.07768 -0.87762,-12.28266 -3.09436,-24.82362 -8.73274,-35.88071 -4.47889,-6.22781 -10.47054,-11.39995 -18.60055,-9.62716 -9.99976,3.43075 -17.85526,9.42423 -23.67506,18.38935 -7.37381,11.38823 -12.69222,23.78741 -14.10708,37.41123 -0.94509,10.41771 -1.80168,21.3083 2.31149,31.20233 0.50204,0.79335 0.89572,1.66671 1.50611,2.38005 0.46377,0.542 1.47909,0.64828 1.67265,1.33485 0.11292,0.40052 -1.60386,0.34225 -1.18938,0.37929 2.22027,0.1984 3.89143,-1.80731 5.38569,-3.05959 5.56565,-7.69918 7.74648,-17.28996 9.44448,-26.48056 2.1028,-15.91348 2.37743,-31.83163 0.81914,-47.83494 -1.24238,-13.44097 -2.84974,-26.98975 -8.19632,-39.5256 -0.63416,-1.14818 -1.20348,-2.33463 -1.90246,-3.44453 -0.53058,-0.8425 -1.56774,-1.42681 -1.77821,-2.39996 -0.10728,-0.496 1.38163,-0.78687 1.01343,-1.13609 -1.91923,-1.82028 -6.05182,3.77258 -6.72602,4.36041 -6.86595,9.32273 -12.84898,19.29918 -17.91882,29.70953 -4.73508,9.6328 -8.8772,19.48474 -12.54332,29.57533 -1.3101,3.55952 -0.71115,3.75245 -4.97222,4.77133 -0.12799,0.0306 -0.25833,-0.81776 -0.65063,-0.54505 -3.12748,-0.75042 -6.29149,-1.3418 -9.46207,-1.87717 -8.31321,-1.24476 -16.69158,-0.76661 -25.07518,-0.78 -15.72714,0.16214 -31.46836,0.44966 -47.1431,1.8536 -16.57818,1.68094 -33.00997,4.34527 -49.43696,7.11654 -11.86812,1.66803 -23.74206,3.24435 -35.69982,4.11449 -6.12389,0.78037 -12.21382,1.74356 -18.35185,2.36502 -3.26054,0.64435 -7.90574,2.26791 -8.98335,-1.95659 -0.82393,-5.19183 -1.95793,-10.31828 -3.06503,-15.45582 -0.95418,-6.11799 -2.24308,-12.23855 -7.07806,-16.54141 -0.63033,-0.50966 -1.20645,-1.09485 -1.891,-1.52899 -0.67657,-0.42908 -1.59383,-0.48181 -2.16518,-1.04343 -0.18488,-0.18172 0.84807,-0.42567 0.59867,-0.4964 -2.2242,-0.63075 -4.89843,0.34733 -6.79389,1.37715 -5.62639,4.11229 -9.25736,9.74445 -11.18608,16.45143 -2.91127,8.41178 -4.58387,17.12843 -6.67538,25.7668 -0.82071,3.49943 0.10111,2.44873 -4.080973,4.14672 -0.152959,0.0621 0.007,-6.54045 -0.163832,-7.28411 -0.536351,-9.70958 -1.48157,-19.4518 -4.386958,-28.78292 -1.654424,-4.58542 -3.276202,-9.47205 -6.245777,-13.43117 -3.108455,-4.14428 -1.909372,-1.49629 -5.413571,-4.76851 -0.20879,-0.19496 -0.175063,-0.54385 -0.262594,-0.81578 -11.17778,1.33629 -16.865478,10.14239 -22.206673,19.20375 -6.706614,12.46739 -12.212346,25.57447 -16.532459,39.0596 -0.485085,1.48817 -0.995164,2.96843 -1.455254,4.46452 -0.360638,1.1727 -0.25733,2.56879 -1.006491,3.54041 -5.591789,7.25223 -2.645899,-3.22086 -2.332629,-4.63929 1.968243,-12.6485 2.541653,-25.54902 0.692629,-38.26042 -1.864507,-11.26281 -4.134253,-23.38718 -12.338125,-31.91497 -0.939814,-0.64906 -1.977804,-1.17506 -2.81944,-1.94718 -0.178434,-0.1637 0.152976,-0.71 -0.08892,-0.72098 -5.672153,-0.2575 -9.13894,5.49758 -11.714512,9.54413 -6.454461,13.08413 -10.2850471,27.24767 -12.25841502,41.69063 -1.04275786,9.44534 -2.26351878,19.18316 -0.50620008,28.61467 -0.7582809,0.28109 -1.5012089,0.60769 -2.2748427,0.84325 -0.2622958,0.0799 0.5610915,-0.15991 0.7327613,-0.37371 0.3964678,-0.49374 0.668289,-1.0826 0.9074304,-1.66893 1.6826793,-4.12563 2.2676834,-8.61521 2.8278447,-12.99494 C 3.5504707,421.54123 4.1370551,407.75851 0.97625119,394.18747 -1.6343865,383.43234 -5.006912,372.45909 -13.504411,364.82489 c -7.568377,-5.05471 -9.956825,-3.9308 -17.091046,2.1741 -9.516321,10.00625 -16.049556,22.16915 -21.899841,34.60443 -4.174586,10.23969 -8.482319,20.7545 -8.564739,31.99067 0.6605,4.46754 2.150845,2.89741 -1.33446,4.30152 -1.150769,0.4636 6.246806,-2.12506 3.433345,-2.43036 4.280925,-7.21222 6.190817,-15.4981 7.432813,-23.72615 1.627537,-11.94144 1.84079,-23.97055 0.423065,-35.95888 -1.023164,-7.388 -2.249181,-14.93965 -7.811605,-20.39806 -4.060081,-2.25833 -4.893544,-1.87465 -9.637282,0.90455 -5.857808,4.29406 -11.243025,9.39058 -15.769325,15.06778 -4.372089,5.80987 -8.292175,11.91119 -11.905117,18.22184 -1.827365,2.83912 -3.360215,5.83102 -5.102597,8.71219 -0.44452,0.0235 -0.90687,0.0366 -1.356,0.0286 -4.59598,0.002 -9.19262,0.006 -13.78737,-0.11851 -7.59553,-0.21975 -15.18133,-0.67032 -22.7397,-1.47204 -10.90796,-1.07253 -21.75082,-1.71868 -32.7313,-1.27555 -12.75063,-0.0312 -25.50477,-0.0582 -38.24909,-0.50474 -11.67822,-0.49618 -23.31236,-1.46505 -34.95884,-2.43278 -10.55754,-0.22032 -21.16701,-0.48048 -31.5868,-2.36284 -8.53353,-1.72891 -16.99126,-3.8325 -25.46699,-5.81992 0,0 2.80145,-0.3964 2.80145,-0.3964 z" />
    <path
       style="color:#000000;fill:#000000;fill-opacity:1;stroke:#000000;stroke-width:1.5;stroke-linecap:butt;stroke-linejoin:miter;stroke-miterlimit:4;stroke-opacity:1;stroke-dasharray:none;stroke-dashoffset:0;marker:none;visibility:visible;display:inline;overflow:visible;enable-background:accumulate"
       id="path2818"
       d="m -319.35253,828.64534 c 6.52394,-2.17152 13.20425,-3.63936 20.02795,-4.416 7.75032,-0.14057 15.29484,-1.6041 22.84623,-3.20109 11.20899,-2.98825 22.24453,-6.64934 33.29046,-10.2015 13.28378,-4.10075 26.71073,-7.678 40.40542,-10.0909 14.45022,-2.60765 29.00168,-4.72971 43.58202,-6.47364 15.37893,-2.11175 30.81334,-3.74577 46.16899,-6.03081 16.696841,-2.20224 33.254999,-5.20461 49.777379,-8.43349 16.165768,-3.69079 32.523269,-6.30042 48.88091,-8.9384 15.8980812,-2.71769 32.008217,-3.59734 48.101416,-4.13448 17.315894,-0.41599 34.63886,-0.34825 51.958404,-0.34236 17.769801,0.0197 35.539611,0.035 53.309421,0.0434 18.46154,0.14669 36.93152,-0.32975 55.38324,0.35509 19.16518,1.12918 38.34736,1.81285 57.54067,2.19207 20.42352,0.31927 40.85017,0.32421 61.27565,0.33823 20.0992,0.002 40.1984,-0.008 60.2976,-0.0126 22.86013,0.41674 45.68789,-0.90526 68.52337,-1.72095 25.05292,-1.21901 50.05874,-3.1539 75.08924,-4.72714 27.29528,-2.26377 54.65303,-3.56482 81.98956,-5.20372 29.71568,-1.90654 59.49981,-1.8922 89.24905,-2.82859 31.59033,-1.32347 63.19968,-1.9868 94.8135,-2.37211 31.44211,-0.30417 62.88607,-0.30546 94.32933,-0.3146 32.03105,2.2e-4 64.06211,0.0116 96.09316,0.0174 30.91526,-0.99908 61.84936,-1.47765 92.75736,-2.67003 29.8559,-1.47575 59.7343,-2.28607 89.6214,-2.72798 27.3115,-0.33152 54.6255,-0.33173 81.9386,-0.34073 25.9865,0.001 51.973,0.0136 77.9595,0.0203 22.8668,0.0905 45.7578,0.97197 68.5799,2.42586 19.7646,1.29658 39.5116,2.94925 59.2083,5.04258 16.4812,1.87716 32.9127,4.19672 49.3349,6.53671 12.1943,1.81398 24.1546,4.81765 36.264,7.07369 1.2391,0.21221 5.1256,1.05121 6.6585,0.74754 0.373,-0.0739 -0.6935,-0.31182 -1.0403,-0.46774 0,0 2.8091,0.36547 2.8091,0.36547 l 0,0 c -3.912,0.45657 -7.3353,0.83084 -11.1947,-0.2593 -12.0918,-2.27458 -24.0413,-5.26451 -36.2236,-7.06725 -16.4129,-2.34269 -32.8365,-4.6561 -49.3092,-6.53047 -19.6908,-2.08172 -39.4293,-3.74335 -59.1874,-5.03409 -22.8159,-1.44062 -45.6985,-2.33254 -68.5587,-2.4119 -24.2175,-0.006 -48.4349,-0.0182 -72.6524,-0.0221 -27.3186,0.007 -54.6382,0.007 -81.9553,0.33419 -29.8923,0.43822 -59.7763,1.24148 -89.6374,2.71905 -32.6479,1.26774 -65.3259,1.85165 -97.98703,2.68023 -30.28734,-0.005 -60.57468,-0.0153 -90.86203,-0.0171 -31.44444,0.009 -62.88958,0.008 -94.33289,0.31086 -31.61187,0.38219 -63.2194,1.04118 -94.80764,2.3678 -29.74255,0.94595 -59.52052,0.9198 -89.22999,2.82393 -27.331,1.63843 -54.68344,2.93722 -81.97279,5.2055 -25.02748,1.56927 -50.02958,3.50865 -75.07878,4.7361 -22.82991,0.81427 -45.65174,2.14801 -68.50627,1.73334 -21.88822,0.005 -43.77644,0.0167 -65.66467,0.0129 -20.42798,-0.0138 -40.85712,-0.0202 -61.2831,-0.34234 -19.19594,-0.38249 -38.38026,-1.0751 -57.54853,-2.19546 -18.45359,-0.6654 -36.92452,-0.20226 -55.3874,-0.34445 -17.77198,-0.009 -35.54395,-0.0242 -53.315919,-0.0424 -15.509804,-0.01 -31.022263,-0.0372 -46.528661,0.33459 -16.091635,0.52793 -32.2016333,1.39049 -48.09949,4.09947 -16.356579,2.64269 -32.718923,5.22509 -48.88219,8.92911 -16.522983,3.22525 -33.077013,6.25082 -49.77513,8.44623 -15.3518,2.29771 -30.78501,3.92132 -46.16086,6.04019 -14.58018,1.73198 -29.13034,3.85742 -43.57985,6.45862 -13.69198,2.39073 -27.11162,5.96505 -40.39174,10.05431 -11.03915,3.55738 -22.0718,7.20475 -33.26414,10.23387 -7.54908,1.5978 -15.08492,3.12517 -22.83841,3.22969 -6.81506,0.74942 -13.48908,2.18839 -20.0018,4.35972 0,0 -2.80622,-0.35234 -2.80622,-0.35234 z" />
    <path
       style="color:#000000;fill:#000000;fill-opacity:1;stroke:#000000;stroke-width:1.5;stroke-linecap:butt;stroke-linejoin:miter;stroke-miterlimit:4;stroke-opacity:1;stroke-dasharray:none;stroke-dashoffset:0;marker:none;visibility:visible;display:inline;overflow:visible;enable-background:accumulate"
       id="path2820"
       d="m 257.87272,428.74397 c -2.31823,6.37353 -3.21861,13.09239 -4.73655,19.65967 -1.23261,6.07587 -2.86323,12.05429 -4.16886,18.1115 -1.85313,7.39386 -3.80117,14.77101 -5.42147,22.22137 -2.03826,7.79039 -3.9868,15.61313 -5.71961,23.47857 -1.42918,6.57501 -1.8496,13.29764 -2.07885,20.00363 -0.11431,4.66141 -0.10233,9.32476 -0.0737,13.98712 0.009,1.10612 0.0163,2.21231 0.0371,3.31829 -0.9494,-0.32201 -1.89879,-0.64402 -2.84818,-0.96603 0,0 2.8442,4.8e-4 2.8442,4.8e-4 l 0,0 c -0.9505,0.32339 -1.901,0.64677 -2.8515,0.97016 -0.0103,-1.10719 -0.0135,-2.21443 -0.0177,-3.32165 -0.0125,-4.6661 -0.0241,-9.33302 0.0918,-13.99808 0.23375,-6.72296 0.66091,-13.46332 2.09328,-20.05476 1.73511,-7.86454 3.67684,-15.68902 5.71967,-23.47774 1.61834,-7.45001 3.56321,-14.82687 5.41254,-22.2208 1.29395,-6.06102 2.93788,-12.03839 4.1684,-18.11616 1.52842,-6.5724 2.4304,-13.29741 4.72271,-19.68655 0,0 2.82678,0.091 2.82678,0.091 z" />
    <path
       style="color:#000000;fill:#000000;fill-opacity:1;stroke:#000000;stroke-width:1.5;stroke-linecap:butt;stroke-linejoin:miter;stroke-miterlimit:4;stroke-opacity:1;stroke-dasharray:none;stroke-dashoffset:0;marker:none;visibility:visible;display:inline;overflow:visible;enable-background:accumulate"
       id="path2822"
       d="m 134.93557,580.39365 c 8.83396,-1.41753 17.78488,-1.86189 26.71309,-2.20858 12.2329,-0.34233 24.47214,-0.33023 36.70876,-0.34419 13.75915,0.5035 27.44562,-0.86519 41.16218,-1.69953 14.01028,-0.72648 27.95472,-2.29943 41.95921,-3.1629 9.9532,-0.55166 19.92029,-0.76195 29.88698,-0.84491 4.7142,-0.0856 8.84548,0.31642 12.92095,2.58937 0,0 -2.81581,0.30244 -2.81581,0.30244 l 0,0 c -2.35609,-1.26511 -4.74993,-1.93883 -7.33181,-2.45483 -9.97863,0.0767 -19.9578,0.27852 -29.92326,0.82427 -14.00715,0.85411 -27.95291,2.42729 -41.96426,3.16231 -13.70736,0.82976 -27.40904,2.06625 -41.15695,1.71701 -12.2303,0.013 -24.46313,0.001 -36.68985,0.33665 -8.91237,0.33916 -17.84875,0.77012 -26.66778,2.17929 0,0 -2.80145,-0.3964 -2.80145,-0.3964 z" />
    <path
       style="color:#000000;fill:#000000;fill-opacity:1;stroke:#000000;stroke-width:1.5;stroke-linecap:butt;stroke-linejoin:miter;stroke-miterlimit:4;stroke-opacity:1;stroke-dasharray:none;stroke-dashoffset:0;marker:none;visibility:visible;display:inline;overflow:visible;enable-background:accumulate"
       id="path2824"
       d="m 146.30517,626.42656 c 7.32371,0.23645 14.5475,-1.04814 21.84114,-1.70581 9.34905,-0.37673 18.58737,-1.83604 27.88115,-2.8173 9.69081,-1.04444 19.45336,-0.74213 29.15721,-1.49639 10.51721,-1.16939 21.07345,-1.84078 31.64494,-2.23902 9.13802,-0.86655 18.23647,-2.0246 27.39613,-2.66108 6.52034,-0.41911 13.05494,-0.4918 19.58638,-0.52529 5.34344,0.52713 10.99283,-0.79433 16.26697,0.37733 2.68359,0.86223 5.39395,1.60348 8.14832,2.20377 -2.20073,-0.52124 -2.12761,0.18523 -1.7692,-1.1874 0,0 2.84487,0.0657 2.84487,0.0657 l 0,0 c -0.46748,2.16856 0.11595,0.90492 -3.89458,1.50559 -2.74716,-0.61346 -5.44483,-1.38512 -8.13725,-2.20133 -3.81187,-0.72476 -7.33187,-0.15059 -10.67594,-0.32427 -6.53495,0.0301 -13.07309,0.096 -19.5975,0.50541 -9.16647,0.62468 -18.27211,1.76584 -27.41271,2.66744 -10.5701,0.39021 -21.12647,1.04594 -31.64097,2.22777 -9.69968,0.78715 -19.4615,0.45333 -29.15138,1.49008 -9.29623,0.97228 -18.53266,2.45493 -27.88374,2.8212 -9.11891,0.81503 -18.21605,2.11844 -27.39873,1.73623 0,0 2.79489,-0.44267 2.79489,-0.44267 z" />
    <path
       style="color:#000000;fill:#000000;fill-opacity:1;stroke:#000000;stroke-width:1.5;stroke-linecap:butt;stroke-linejoin:miter;stroke-miterlimit:4;stroke-opacity:1;stroke-dasharray:none;stroke-dashoffset:0;marker:none;visibility:visible;display:inline;overflow:visible;enable-background:accumulate"
       id="path2826"
       d="m 244.27201,631.55562 c -0.0183,7.24786 -0.0121,14.49575 -0.01,21.74362 0.78218,6.98944 1.81831,13.93797 2.33866,20.9554 0.48339,7.9403 0.49587,15.89965 0.52547,23.85169 -0.6168,9.10512 -1.7282,18.15371 -3.15941,27.16194 -0.9764,8.39512 -2.79997,16.64729 -4.11122,24.98937 -0.65338,3.83515 -0.98673,7.70489 -1.28004,11.57932 0,0 -2.84824,-0.0236 -2.84824,-0.0236 l 0,0 c 0.35168,-3.8768 0.62816,-7.76129 1.32141,-11.59955 1.31727,-8.34185 3.14524,-16.59388 4.12475,-24.98944 1.42432,-8.99376 2.54076,-18.02669 3.15243,-27.11688 -0.034,-7.94552 -0.0461,-15.89827 -0.53392,-23.83189 -0.52742,-7.02386 -1.56223,-13.97947 -2.34002,-20.97632 0.002,-7.24787 0.009,-14.49576 -0.01,-21.74362 0,0 2.82973,0 2.82973,0 z" />
    <path
       style="color:#000000;fill:#000000;fill-opacity:1;stroke:#000000;stroke-width:1.5;stroke-linecap:butt;stroke-linejoin:miter;stroke-miterlimit:4;stroke-opacity:1;stroke-dasharray:none;stroke-dashoffset:0;marker:none;visibility:visible;display:inline;overflow:visible;enable-background:accumulate"
       id="path2828"
       d="m 663.58701,437.3154 c -2.72451,8.07162 -5.03608,16.20586 -6.47281,24.60586 -1.14951,7.27355 -1.35932,14.63774 -1.4565,21.9856 -0.0467,5.8392 -0.005,11.67856 0.0151,17.51778 -0.17648,4.01755 1.24068,7.852 2.09984,11.72426 0.48174,2.2084 0.66662,4.47016 0.78982,6.72342 0.0222,0.53831 0.0142,0.29332 0.0262,0.73489 0,0 -2.85322,0.007 -2.85322,0.007 l 0,0 c -0.009,-0.43608 -0.003,-0.19379 -0.0217,-0.72681 -0.11232,-2.23805 -0.29678,-4.4833 -0.77594,-6.67629 -0.86748,-3.8901 -2.26734,-7.74995 -2.08793,-11.78536 -0.0195,-5.84077 -0.0482,-11.68171 -0.002,-17.52244 0.0972,-7.36298 0.30867,-14.74161 1.46823,-22.0293 1.4391,-8.41155 3.75468,-16.55457 6.44393,-24.64944 0,0 2.82679,0.091 2.82679,0.091 z" />
    <path
       style="color:#000000;fill:#000000;fill-opacity:1;stroke:#000000;stroke-width:1.5;stroke-linecap:butt;stroke-linejoin:miter;stroke-miterlimit:4;stroke-opacity:1;stroke-dasharray:none;stroke-dashoffset:0;marker:none;visibility:visible;display:inline;overflow:visible;enable-background:accumulate"
       id="path2830"
       d="m 560.64986,551.82222 c 9.36432,-1.49039 18.85738,-1.63283 28.27735,-2.54179 13.14046,-1.01926 26.15962,-2.98578 39.16555,-5.05917 13.64464,-2.58477 27.38104,-4.62808 41.01738,-7.25537 11.20041,-2.62087 22.67136,-3.35121 34.04136,-4.78417 7.82045,-1.14284 15.5609,-2.4952 23.47062,-2.27766 3.0603,0.25339 5.44953,1.77837 7.72493,3.70592 0.77607,0.63317 0.74504,0.83413 -0.0237,1.39662 0,0 -2.82987,-0.32706 -2.82987,-0.32706 l 0,0 c 0.88676,-0.13353 0.61992,-0.27625 0.0201,-0.82184 -2.2669,-1.88858 -4.65963,-3.31849 -7.68578,-3.52928 1.29812,-0.40377 0.75036,-0.19865 -2.07899,0.12385 -5.29281,0.60331 -10.56081,1.40229 -15.83718,2.13091 -11.37171,1.45768 -22.85673,2.12963 -34.06149,4.76325 -13.63587,2.64092 -27.37713,4.66587 -41.02141,7.26395 -13.00116,2.07224 -26.01221,4.06274 -39.14854,5.07864 -9.40166,0.93007 -18.87966,1.04708 -28.22892,2.5296 0,0 -2.80145,-0.3964 -2.80145,-0.3964 z" />
    <path
       style="color:#000000;fill:#000000;fill-opacity:1;stroke:#000000;stroke-width:1.5;stroke-linecap:butt;stroke-linejoin:miter;stroke-miterlimit:4;stroke-opacity:1;stroke-dasharray:none;stroke-dashoffset:0;marker:none;visibility:visible;display:inline;overflow:visible;enable-background:accumulate"
       id="path2832"
       d="m 586.30517,617.85513 c 8.74758,0.003 17.49516,0.003 26.24275,0.003 10.55981,-0.88313 21.05927,-2.11596 31.50022,-3.94984 12.96378,-2.28369 25.76155,-5.37214 38.74403,-7.55751 12.34857,-2.23795 24.71773,-4.38284 37.11531,-6.33641 9.45746,-1.39666 18.97208,-2.16615 28.52084,-1.76285 3.52029,0.32648 6.8697,1.48253 10.3242,2.13418 1.97105,0.17831 0.83817,1.37471 -0.18431,1.98278 0,0 -2.82563,-0.30776 -2.82563,-0.30776 l 0,0 c 1.06016,-0.48809 1.97845,-1.08161 0.19422,-1.28389 -3.43655,-0.67752 -6.78121,-1.80799 -10.29275,-2.10672 -1.31538,-0.97902 -0.2342,-0.27958 -4.05128,-0.081 -6.33311,0.32941 -12.65206,0.92614 -18.93128,1.81761 -12.40427,1.94228 -24.77756,4.09367 -37.13101,6.33127 -12.983,2.17009 -25.77602,5.26545 -38.73604,7.55624 -12.2265,2.16994 -24.57179,3.71884 -37.00036,4.0001 -8.76127,4.2e-4 -17.52254,4e-5 -26.2838,0.003 0,0 2.79489,-0.44267 2.79489,-0.44267 z" />
    <path
       style="color:#000000;fill:#000000;fill-opacity:1;stroke:#000000;stroke-width:1.5;stroke-linecap:butt;stroke-linejoin:miter;stroke-miterlimit:4;stroke-opacity:1;stroke-dasharray:none;stroke-dashoffset:0;marker:none;visibility:visible;display:inline;overflow:visible;enable-background:accumulate"
       id="path2834"
       d="m 675.70058,625.84134 c 0.15452,8.40315 -0.003,16.75079 -0.8319,25.11404 -0.98588,11.87522 -2.24905,23.7358 -3.93247,35.53373 -1.86783,12.24776 -2.62343,24.61003 -4.3035,36.8795 -0.99523,6.72201 -1.70991,13.48007 -2.21284,20.25554 -0.0567,0.78689 -0.38339,1.95643 0.64916,2.12691 0,0 -2.83132,0.33151 -2.83132,0.33151 l 0,0 c -0.89022,-0.61037 -0.7985,-1.46441 -0.65065,-2.48008 0.53542,-6.77982 1.25309,-13.5446 2.25995,-20.27197 1.69617,-12.26842 2.46055,-24.63069 4.31798,-36.8807 1.68437,-11.79303 2.9389,-23.65038 3.91071,-35.52199 0.8257,-8.35418 0.98811,-16.69255 0.79515,-25.08649 0,0 2.82973,0 2.82973,0 z" />
    <path
       style="color:#000000;fill:#000000;fill-opacity:1;stroke:#000000;stroke-width:1.5;stroke-linecap:butt;stroke-linejoin:miter;stroke-miterlimit:4;stroke-opacity:1;stroke-dasharray:none;stroke-dashoffset:0;marker:none;visibility:visible;display:inline;overflow:visible;enable-background:accumulate"
       id="path2836"
       d="m 1232.8434,397.26991 c -0.655,9.3458 -2.2547,18.55991 -3.6531,27.81001 -0.8446,8.85971 -2.5567,17.59112 -3.7135,26.40905 -0.3981,7.60757 -1.9749,15.00625 -3.7427,22.38983 -1.5784,6.13961 -2.0566,12.47224 -3.7884,18.56721 -0.6166,1.88305 -1.2021,3.79752 -2.0871,5.57751 -0.036,0.0837 -0.089,0.15729 -0.1341,0.23594 0,0 -2.8505,-0.17741 -2.8505,-0.17741 l 0,0 c 0.045,-0.0645 0.1235,-0.10385 0.1346,-0.19337 0.9193,-1.74654 1.48,-3.66174 2.1131,-5.52138 1.7528,-6.08643 2.2292,-12.41848 3.8106,-18.55435 1.765,-7.37387 3.335,-14.76437 3.7424,-22.36059 1.1603,-8.82003 2.8774,-17.55249 3.7258,-26.41429 1.3947,-9.2349 3.0102,-18.43261 3.6132,-27.76816 0,0 2.8297,0 2.8297,0 z" />
    <path
       style="color:#000000;fill:#000000;fill-opacity:1;stroke:#000000;stroke-width:1.5;stroke-linecap:butt;stroke-linejoin:miter;stroke-miterlimit:4;stroke-opacity:1;stroke-dasharray:none;stroke-dashoffset:0;marker:none;visibility:visible;display:inline;overflow:visible;enable-background:accumulate"
       id="path2838"
       d="m 1123.7925,512.86372 c 10.6643,2.81031 21.6392,3.73705 32.6307,3.54195 17.7384,-1.2739 35.3095,-4.37386 52.8558,-7.20071 18.0304,-3.32585 36.1222,-6.38029 54.2922,-8.84285 10.7278,-1.42839 21.532,-2.14821 32.3443,-2.48101 2.8551,-0.18939 11.3491,-0.58114 6.1115,3.17912 -4.5871,2.02104 -9.504,3.19032 -14.2523,4.77578 0,0 -2.7959,-0.35015 -2.7959,-0.35015 l 0,0 c 4.7257,-1.60622 9.6122,-2.77976 14.224,-4.70008 3.0102,-1.97487 1.021,-2.01865 1.1579,-2.22944 0.2045,-0.31479 1.4579,-0.24221 1.0864,-0.29652 -0.9086,-0.13287 -1.8363,0.0351 -2.7544,0.0526 -10.831,0.31699 -21.6544,1.0234 -32.4017,2.4431 -18.1783,2.4477 -36.2779,5.49926 -54.3131,8.83276 -17.5386,2.83307 -35.1019,5.92043 -52.8286,7.24614 -12.836,0.0987 -25.6901,-0.11483 -38.1571,-3.60672 0,0 2.8003,-0.36398 2.8003,-0.36398 z" />
    <path
       style="color:#000000;fill:#000000;fill-opacity:1;stroke:#000000;stroke-width:1.5;stroke-linecap:butt;stroke-linejoin:miter;stroke-miterlimit:4;stroke-opacity:1;stroke-dasharray:none;stroke-dashoffset:0;marker:none;visibility:visible;display:inline;overflow:visible;enable-background:accumulate"
       id="path2840"
       d="m 1134.8766,572.14085 c 10.9424,0.004 21.8848,0.005 32.8271,0.005 14.6909,0.18515 29.2872,-1.89079 43.8775,-3.3492 15.738,-1.8879 31.4419,-4.04409 47.1856,-5.88217 12.308,-1.39813 24.6888,-1.89181 37.0652,-2.14409 7.7895,-0.12294 15.5802,-0.11169 23.3704,-0.0882 2.5835,0.35997 5.1188,1.12729 7.3814,2.43791 -0.091,1.90437 -4.2046,0.1135 -4.4569,0.0788 0,0 2.8191,-0.32795 2.8191,-0.32795 l 0,0 c -2.1163,0.79679 -1.9522,0.59466 -1.1961,0.54936 -2.264,-1.25234 -4.7698,-2.00754 -7.3398,-2.29681 -5.941,-0.0199 -11.8823,-0.0216 -17.8228,0.0776 -12.3852,0.24311 -24.7754,0.72461 -37.0933,2.11293 -15.7487,1.82867 -31.4559,3.99057 -47.197,5.88506 -16.4031,1.63514 -32.7938,3.87926 -49.326,3.37954 -10.9631,3e-4 -21.9262,4.6e-4 -32.8893,0.005 0,0 2.7949,-0.44267 2.7949,-0.44267 z" />
    <path
       style="color:#000000;fill:#000000;fill-opacity:1;stroke:#000000;stroke-width:1.5;stroke-linecap:butt;stroke-linejoin:miter;stroke-miterlimit:4;stroke-opacity:1;stroke-dasharray:none;stroke-dashoffset:0;marker:none;visibility:visible;display:inline;overflow:visible;enable-background:accumulate"
       id="path2842"
       d="m 1233.5255,582.9387 c 2.8421,9.87283 3.6809,20.15481 4.3638,30.35983 0.6426,12.73118 0.6491,25.48267 0.6765,38.22655 0,14.00049 -0.018,28.00096 -0.031,42.00144 -0.01,13.11654 0,26.23308 -7e-4,39.34962 0,7.17731 0.016,14.35461 0.021,21.53192 0,2.36897 0.01,4.73793 0.011,7.10691 3e-4,0.22418 5e-4,0.44836 8e-4,0.67255 0,0.0621 0,0.12419 0,0.18628 0,0 -2.8547,1e-5 -2.8547,1e-5 l 0,0 c 0,-0.0621 0,-0.12419 0,-0.18629 3e-4,-0.22418 5e-4,-0.44837 8e-4,-0.67255 0,-2.36897 0.01,-4.73793 0.011,-7.10691 0.01,-7.17731 0.018,-14.35463 0.022,-21.53195 0.01,-13.11659 0.017,-26.23319 0.024,-39.34979 0.01,-14.00021 0.029,-28.00042 0.02,-42.00064 -0.028,-12.73785 -0.034,-25.4838 -0.6851,-38.20855 -0.6842,-10.18265 -1.5143,-20.45105 -4.412,-30.28745 0,0 2.8268,-0.091 2.8268,-0.091 z" />
    <path
       style="color:#000000;fill:#000000;fill-opacity:1;stroke:#000000;stroke-width:1.5;stroke-linecap:butt;stroke-linejoin:miter;stroke-miterlimit:4;stroke-opacity:1;stroke-dasharray:none;stroke-dashoffset:0;marker:none;visibility:visible;display:inline;overflow:visible;enable-background:accumulate"
       id="path2844"
       d="m 36.496872,522.11505 c -7.742947,3.63675 -14.029879,9.29958 -20.457689,14.78507 -4.139291,3.47787 -7.0416259,7.96102 -8.4853761,13.14807 -0.1342677,2.36091 1.8456473,4.58421 4.3793741,4.07244 0.291319,-0.0588 -0.581919,-0.12119 -0.872878,-0.18178 4.773094,-1.64034 8.872993,-4.90601 12.826964,-7.97228 3.322981,-2.66898 6.459659,-5.55404 9.517559,-8.51938 4.993803,-4.59122 3.053817,3.45628 2.84412,5.13508 -0.863071,5.68779 -1.818446,11.40872 -2.961498,17.05819 -1.285255,7.90535 -3.334964,15.61716 -5.53131,23.30823 -1.465781,5.70327 -2.592757,11.44369 -4.58731,16.99355 -0.681946,1.62432 -1.059323,4.77155 -3.689024,1.70667 -0.108162,-0.12606 0.795573,-1.97948 1.191049,-2.82702 3.07001,-5.56638 6.131946,-11.07836 9.788201,-16.28943 5.150161,-6.91629 11.879949,-12.45938 18.203584,-18.26309 4.059602,-3.33647 2.115625,-1.67424 5.841899,-4.97503 0,0 2.798517,0.23714 2.798517,0.23714 l 0,0 c -3.729672,3.31048 -1.782962,1.64983 -5.850747,4.96948 -6.311532,5.79189 -13.033997,11.31732 -18.193529,18.2032 -3.653999,5.19242 -6.699383,10.68879 -9.756947,16.24181 -0.246834,0.52507 -0.516629,1.03994 -0.740502,1.5752 -0.170263,0.40708 -0.05251,1.03808 -0.440448,1.24833 -5.217407,2.82769 -2.598703,10e-4 -1.980914,-1.92554 2.018657,-5.53801 3.145941,-11.27425 4.614913,-16.97324 2.195555,-7.68351 4.248496,-15.38675 5.52432,-23.28623 1.137613,-5.64195 2.084113,-11.35679 2.937556,-17.03704 0.482023,-3.94203 -0.418171,-4.56266 3.87954,-5.91118 0.472602,-0.14829 -3.432737,2.30067 -1.063267,1.03805 -3.069891,2.9697 -6.210206,5.86648 -9.53771,8.54867 -3.980494,3.09405 -8.08727,6.3351 -12.834486,8.1317 -3.849712,0.15658 -9.1981835,1.01897 -9.1389812,-4.38293 1.4398866,-5.23878 4.3578805,-9.79298 8.5240042,-13.31396 6.444315,-5.4773 12.70673,-11.18231 20.441824,-14.85505 0,0 2.809192,0.3123 2.809192,0.3123 z" />
    <path
       style="color:#000000;fill:#000000;fill-opacity:1;stroke:#000000;stroke-width:1.5;stroke-linecap:butt;stroke-linejoin:miter;stroke-miterlimit:4;stroke-opacity:1;stroke-dasharray:none;stroke-dashoffset:0;marker:none;visibility:visible;display:inline;overflow:visible;enable-background:accumulate"
       id="path2846"
       d="m 43.929864,603.00755 c -0.813759,7.3358 -2.640036,14.48816 -3.924961,21.7449 -0.717846,5.4536 -2.14904,10.78892 -3.496658,16.11524 0.09984,4.22163 -4.122797,4.12632 -3.332364,-1.14109 0.68096,-4.77973 3.318966,-8.79856 5.231913,-13.12916 2.074802,-4.17662 4.529035,-8.0952 7.797568,-11.4335 4.876217,-2.74051 7.660305,0.13414 8.808038,4.44799 0.76303,4.5326 0.728698,9.15545 0.746097,13.73876 -0.458982,3.54469 0.581823,6.66812 1.680781,9.95643 0.109997,0.90365 0.351175,1.02958 0.802801,1.45408 0,0 -2.836909,0.31406 -2.836909,0.31406 l 0,0 c -0.387049,-0.54673 -0.71831,-0.90774 -0.803788,-1.67686 -1.100584,-3.31459 -2.127502,-6.4794 -1.669125,-10.0466 -0.01877,-4.55873 0.02617,-9.15897 -0.751876,-13.66504 -0.419594,-1.52588 -0.762836,-3.00805 -2.027601,-4.08647 -0.338174,-0.28836 -1.290959,-0.29676 -1.128275,-0.71034 0.178779,-0.45449 1.456074,-0.61952 1.45928,-0.13114 0.0035,0.52823 -0.970689,0.41705 -1.456034,0.62558 -3.281473,3.29344 -5.724043,7.18214 -7.803104,11.32997 -1.892307,4.31337 -4.529464,8.30319 -5.22058,13.05469 -0.609281,4.00092 -4.482094,6.21362 -2.330763,1.02777 1.369644,-5.31518 2.802722,-10.64555 3.521639,-16.09365 1.287359,-7.2544 3.128951,-14.40286 3.904952,-21.74234 0,0 2.828969,0.0467 2.828969,0.0467 z" />
    <path
       style="color:#000000;fill:#000000;fill-opacity:1;stroke:#000000;stroke-width:1.5;stroke-linecap:butt;stroke-linejoin:miter;stroke-miterlimit:4;stroke-opacity:1;stroke-dasharray:none;stroke-dashoffset:0;marker:none;visibility:visible;display:inline;overflow:visible;enable-background:accumulate"
       id="path2848"
       d="m 80.594163,626.79146 c 5.738739,1.03662 11.525799,1.72827 17.337031,2.18228 2.739126,0.20876 5.486226,0.30493 8.232886,0.329 0.1472,-2e-5 0.2944,-5e-5 0.4416,-7e-5 0,0 -2.81628,0.44522 -2.81628,0.44522 l 0,0 c -0.14639,-8.7e-4 -0.29278,-0.002 -0.43917,-0.003 -2.73975,-0.0355 -5.479691,-0.13605 -8.211567,-0.35184 -5.81414,-0.46656 -11.60222,-1.17741 -17.34595,-2.20558 0,0 2.80145,-0.3964 2.80145,-0.3964 z" />
    <path
       style="color:#000000;fill:#000000;fill-opacity:1;stroke:#000000;stroke-width:1.5;stroke-linecap:butt;stroke-linejoin:miter;stroke-miterlimit:4;stroke-opacity:1;stroke-dasharray:none;stroke-dashoffset:0;marker:none;visibility:visible;display:inline;overflow:visible;enable-background:accumulate"
       id="path2850"
       d="m 135.70058,611.55562 c 0.32247,7.20589 -0.23376,14.30557 -1.30178,21.42298 -0.73984,4.57484 -1.22953,9.18355 -1.45943,13.81103 -0.10246,2.33071 -0.11589,4.66385 -0.10561,6.99637 0,0 -2.84728,6.9e-4 -2.84728,6.9e-4 l 0,0 c -0.001,-2.33752 0.01,-4.67571 0.12009,-7.01115 0.23135,-4.63744 0.73527,-9.25505 1.47834,-13.83919 1.08268,-7.10193 1.64194,-14.18817 1.28594,-21.38073 0,0 2.82973,0 2.82973,0 z" />
    <path
       style="color:#000000;fill:#000000;fill-opacity:1;stroke:#000000;stroke-width:1.5;stroke-linecap:butt;stroke-linejoin:miter;stroke-miterlimit:4;stroke-opacity:1;stroke-dasharray:none;stroke-dashoffset:0;marker:none;visibility:visible;display:inline;overflow:visible;enable-background:accumulate"
       id="path2852"
       d="m 770.77544,501.15495 c -6.7725,-0.21453 -13.44533,-0.11979 -20.02492,1.59821 -5.39679,1.87151 -8.90028,5.25211 -11.74557,10.06329 -1.96499,3.2333 -2.16015,6.11004 1.7093,7.35328 -0.32677,-0.0218 -1.26635,0.094 -0.98033,-0.0655 1.38261,-0.77123 3.06639,-0.8221 4.53205,-1.42066 2.82173,-1.15238 5.39114,-2.8235 8.03259,-4.32452 4.86497,-2.75907 9.49568,-5.88543 14.28459,-8.77251 3.1746,-2.27669 6.10169,-1.81227 6.48511,2.2611 -0.27167,2.74191 0.88897,5.20431 1.58053,7.7962 0.65516,3.81597 0.96938,7.61056 1.82666,11.39269 1.18292,4.25297 1.63079,8.64287 1.91131,13.03265 0.28612,4.05565 0.36218,7.98879 -0.62059,11.94194 -1.21973,3.75791 -0.29856,7.31076 1.00688,10.86887 0.21938,0.5716 0.43875,1.1432 0.65812,1.7148 0,0 -2.83068,0.10354 -2.83068,0.10354 l 0,0 c -0.21878,-0.57295 -0.43756,-1.14589 -0.65634,-1.71883 -1.32308,-3.60716 -2.22612,-7.23161 -1.00825,-11.03761 0.98302,-3.92382 0.90722,-7.82642 0.62181,-11.85465 -0.27983,-4.37542 -0.72993,-8.74804 -1.90702,-12.98766 -0.85862,-3.77827 -1.17413,-7.57081 -1.83777,-11.38127 -0.70432,-2.60221 -1.8518,-5.08794 -1.58704,-7.84311 -0.0738,-0.73427 -0.0551,-1.20273 -0.34406,-1.87365 -0.11712,-0.27198 -0.6712,-0.58097 -0.4432,-0.76994 3.16751,-2.62519 1.69312,0.60729 -0.0388,0.64606 -4.8046,2.87451 -9.43711,6.00673 -14.30237,8.7776 -5.48543,3.1115 -10.59139,6.60326 -17.19841,5.86381 -3.87664,-1.46417 -3.72255,-4.54199 -1.71196,-7.85234 2.84558,-4.87981 6.34124,-8.3301 11.77319,-10.28138 6.57081,-1.78023 13.24179,-1.89355 20.02027,-1.67303 0,0 2.7949,0.44267 2.7949,0.44267 z" />
    <path
       style="color:#000000;fill:#000000;fill-opacity:1;stroke:#000000;stroke-width:1.5;stroke-linecap:butt;stroke-linejoin:miter;stroke-miterlimit:4;stroke-opacity:1;stroke-dasharray:none;stroke-dashoffset:0;marker:none;visibility:visible;display:inline;overflow:visible;enable-background:accumulate"
       id="path2854"
       d="m 809.30129,554.45826 c -1.96248,6.15686 -3.30127,12.48356 -4.38833,18.84594 -0.34216,1.6508 0.005,6.42875 -3.13917,1.72867 -0.59518,-0.88968 0.59268,-2.05717 0.89677,-3.08349 1.50588,-3.26603 3.75525,-6.02216 6.39376,-8.43448 3.20945,-2.47077 7.87687,-2.68325 10.50496,0.71779 1.43191,2.2932 1.72138,5.01449 1.87275,7.65479 -0.12018,2.89558 0.0535,5.58049 0.81809,8.36931 0.48322,0.83881 1.00756,5.61206 2.16593,5.35404 0,0 -2.82077,0.4122 -2.82077,0.4122 l 0,0 c -1.60363,-0.71329 -1.32259,-4.33425 -2.17795,-5.69037 -0.77074,-2.80794 -0.94134,-5.51539 -0.82667,-8.429 -0.14635,-2.58445 -0.42442,-5.253 -1.8627,-7.47955 -0.3006,-0.36189 -0.5488,-0.77468 -0.9018,-1.08568 -0.33887,-0.29855 -1.25661,-0.28168 -1.14774,-0.72 0.12161,-0.48965 1.4805,0.041 1.44133,-0.46205 -0.0385,-0.49488 -4.29676,1.00953 -4.24099,1.59482 -2.63203,2.36291 -4.85397,5.07067 -6.38416,8.27979 -0.30024,1.01481 -0.0983,2.35072 -0.8964,3.04572 -4.64234,4.04259 -2.72509,0.47638 -2.52109,-1.82078 1.10949,-6.37234 2.45721,-12.70819 4.3874,-18.88866 0,0 2.82678,0.091 2.82678,0.091 z" />
    <path
       style="color:#000000;fill:#000000;fill-opacity:1;stroke:#000000;stroke-width:1.5;stroke-linecap:butt;stroke-linejoin:miter;stroke-miterlimit:4;stroke-opacity:1;stroke-dasharray:none;stroke-dashoffset:0;marker:none;visibility:visible;display:inline;overflow:visible;enable-background:accumulate"
       id="path2856"
       d="m 1341.7562,480.10369 c 0.7165,4.42088 1.4779,9.6168 5.8954,11.73752 0.4326,-0.003 1.3805,0.41443 1.2978,-0.0102 -0.087,-0.44966 -1.3528,0.20061 -1.35,-0.25749 0,-0.50977 0.9115,-0.45762 1.3559,-0.70739 1.6257,-0.91368 2.927,-2.12239 4.3673,-3.29529 2.3999,-2.39116 4.4877,-5.07603 6.6157,-7.70744 4.8862,-3.68313 6.1004,0.66501 6.6943,4.41071 -0.2672,5.68997 -1.4094,11.28869 -2.6291,16.83764 -1.7491,6.77392 -3.1764,13.62583 -4.8286,20.42467 -1.3756,5.42941 -2.8558,10.80778 -4.4739,16.16994 -1.6542,3.90328 -3.271,7.80781 -4.1366,11.96856 -1.0197,4.33002 1.2876,5.30305 -3.4487,3.49937 0.6851,-3.38264 2.7783,-6.11128 5.2518,-8.41241 0,0 2.82,0.23425 2.82,0.23425 l 0,0 c -2.4513,2.21406 -4.5153,4.88159 -5.2288,8.17583 -4.7843,1.73839 -2.5207,0.67863 -2.2271,-3.55488 0.8593,-4.17142 2.4725,-8.08858 4.1462,-11.99373 1.6264,-5.35615 3.0992,-10.73198 4.4888,-16.15402 1.6582,-6.79483 3.0684,-13.64905 4.8261,-20.41834 1.2091,-5.51457 2.3398,-11.07823 2.6102,-16.73174 -0.1966,-1.20437 -0.3124,-2.40512 -0.7741,-3.54844 -0.1465,-0.36275 -0.8721,-0.74229 -0.5907,-1.01412 0.707,-0.68313 3.741,-1.20174 0.3349,0.30014 -2.1462,2.64005 -4.249,5.33159 -6.6302,7.76542 -3.5732,2.88913 -6.1887,5.34204 -11.3107,4.33014 -4.3492,-2.34857 -5.1696,-7.48386 -5.9048,-12.00195 0,0 2.8289,-0.0467 2.8289,-0.0467 z" />
    <path
       style="color:#000000;fill:#000000;fill-opacity:1;stroke:#000000;stroke-width:1.5;stroke-linecap:butt;stroke-linejoin:miter;stroke-miterlimit:4;stroke-opacity:1;stroke-dasharray:none;stroke-dashoffset:0;marker:none;visibility:visible;display:inline;overflow:visible;enable-background:accumulate"
       id="path2858"
       d="m 1390.3277,540.10369 c 1.1031,6.62269 0.4455,13.38609 0.1168,20.05292 -0.2114,3.53178 -0.2824,7.06953 -0.4239,10.60412 -0.8409,-0.52976 -1.9632,-0.7678 -2.5225,-1.58928 -0.4373,-0.64235 3.9281,-7.2436 4.5248,-8.12614 2.6289,-3.88668 5.1391,-7.82471 8.3709,-11.24826 3.7667,-2.26538 8.7173,-1.88161 10.9798,2.00986 2.5019,3.33725 3.3783,7.03656 3.0531,11.12613 -0.8204,4.8999 -0.8624,9.89004 -1.7067,14.77734 -0.7064,3.60727 -1.5166,7.19413 -2.4151,10.7583 -0.1649,0.63481 -0.089,0.35036 -0.2248,0.85379 0,0 -2.8516,-0.0763 -2.8516,-0.0763 l 0,0 c 0.1396,-0.49975 0.062,-0.21706 0.2311,-0.84865 0.9193,-3.55325 1.737,-7.13326 2.4406,-10.73555 0.8486,-4.87753 0.8759,-9.86056 1.6965,-14.75155 0.3262,-4.04446 -0.5855,-7.65499 -3.0547,-10.95049 -2.1657,-3.50253 -2.3861,-3.36667 -5.326,-1.94794 -3.2497,3.39392 -5.7544,7.31703 -8.3689,11.20111 -0.7617,1.13205 -1.6264,2.1955 -2.3409,3.35786 -0.2456,0.39945 -2.0465,4.55624 -2.1727,4.65814 -0.9099,0.73462 -2.1087,1.01176 -3.163,1.51764 0.2057,-3.5314 0.2103,-7.07427 0.4582,-10.60407 0.331,-6.64609 1.0076,-13.39386 -0.13,-19.99226 0,0 2.829,-0.0467 2.829,-0.0467 z" />
    <path
       style="color:#000000;fill:#000000;fill-opacity:1;stroke:#000000;stroke-width:1.5;stroke-linecap:butt;stroke-linejoin:miter;stroke-miterlimit:4;stroke-opacity:1;stroke-dasharray:none;stroke-dashoffset:0;marker:none;visibility:visible;display:inline;overflow:visible;enable-background:accumulate"
       id="path2860"
       d="m 1452.8434,568.69848 c -0.2664,6.39808 0.4753,12.86691 -0.3458,19.22737 -0.1176,0.62596 -1.457,6.54427 -1.987,6.39309 -1.0951,-0.3124 -2.1075,-0.86387 -3.1613,-1.29581 0,0 2.8394,-0.0731 2.8394,-0.0731 l 0,0 c -0.8403,0.3792 -1.6708,0.78087 -2.5209,1.13761 -0.3816,0.16015 0.4787,-0.68649 0.6208,-1.07515 0.6088,-1.66457 1.0685,-3.37947 1.3874,-5.12327 0.8373,-6.3455 0.104,-12.80621 0.3377,-19.19075 0,0 2.8297,0 2.8297,0 z" />
    <path
       style="color:#000000;fill:#000000;fill-opacity:1;stroke:#000000;stroke-width:1.5;stroke-linecap:butt;stroke-linejoin:miter;stroke-miterlimit:4;stroke-opacity:1;stroke-dasharray:none;stroke-dashoffset:0;marker:none;visibility:visible;display:inline;overflow:visible;enable-background:accumulate"
       id="path2862"
       d="m 1443.448,586.42656 c 5.8927,0.002 11.7855,8.8e-4 17.6782,8.1e-4 4.1389,-9e-5 8.2778,-2.7e-4 12.4168,-0.002 1.0149,-8.3e-4 2.0298,-8.2e-4 3.0447,-6.9e-4 0.1671,-10e-6 0.3342,-3e-5 0.5013,-4e-5 0,0 -2.8153,0.44591 -2.8153,0.44591 l 0,0 c -0.167,-10e-6 -0.334,-2e-5 -0.501,-3e-5 -1.0119,1.3e-4 -2.0239,1.4e-4 -3.0359,-6.9e-4 -4.1318,-10e-4 -8.2636,-0.002 -12.3953,-0.002 -5.8961,-7e-5 -11.7923,-10e-4 -17.6884,8.1e-4 0,0 2.7949,-0.44267 2.7949,-0.44267 z" />
    <path
       style="color:#000000;fill:#000000;fill-opacity:1;stroke:#000000;stroke-width:1.5;stroke-linecap:butt;stroke-linejoin:miter;stroke-miterlimit:4;stroke-opacity:1;stroke-dasharray:none;stroke-dashoffset:0;marker:none;visibility:visible;display:inline;overflow:visible;enable-background:accumulate"
       id="path2864"
       d="m 1495.3584,574.43613 c -1.348,7.18797 -1.4472,14.52918 -2.5455,21.74158 -0.8696,4.67389 -1.7766,9.3388 -2.5192,14.0352 -0.1173,0.7538 -0.2319,1.50824 -0.3193,2.26605 0,0 -2.8563,-0.0232 -2.8563,-0.0232 l 0,0 c 0.093,-0.76517 0.2137,-1.52686 0.336,-2.288 0.7637,-4.69384 1.6728,-9.35925 2.5495,-14.03268 1.1083,-7.21136 1.2124,-14.55233 2.5259,-21.74566 0,0 2.8289,0.0467 2.8289,0.0467 z" />
    <path
       style="color:#000000;fill:#000000;fill-opacity:1;stroke:#000000;stroke-width:1.5;stroke-linecap:butt;stroke-linejoin:miter;stroke-miterlimit:4;stroke-opacity:1;stroke-dasharray:none;stroke-dashoffset:0;marker:none;visibility:visible;display:inline;overflow:visible;enable-background:accumulate"
       id="path2866"
       d="m -0.76221992,160.42952 c 2.76448532,9.25847 5.02532862,18.57391 6.44150992,28.13425 1.2681027,9.28515 2.3048931,18.63397 3.8790079,27.87407 1.8274171,5.24542 0.5275371,12.23447 4.1376341,16.72907 0.365344,0.1655 0.730688,0.331 1.096031,0.4965 0,0 -2.823496,0.31186 -2.823496,0.31186 l 0,0 C 11.60148,233.76812 11.234493,233.56096 10.867506,233.3538 7.3718401,228.69436 8.5471853,221.83456 6.7604774,216.48491 5.1951868,207.24135 4.1535512,197.89256 2.890218,188.60475 1.47822,179.05348 -0.7840452,169.74658 -3.5850118,160.5081 c 0,0 2.82279188,-0.0786 2.82279188,-0.0786 z" />
    <path
       style="color:#000000;fill:#000000;fill-opacity:1;stroke:#000000;stroke-width:1.5;stroke-linecap:butt;stroke-linejoin:miter;stroke-miterlimit:4;stroke-opacity:1;stroke-dasharray:none;stroke-dashoffset:0;marker:none;visibility:visible;display:inline;overflow:visible;enable-background:accumulate"
       id="path2868"
       d="m -36.148538,168.96214 c 10.805961,-2.0095 21.509156,-4.49757 32.1968951,-7.0518 9.0210404,-2.65169 18.1221049,-4.88456 27.4374159,-6.18211 4.126558,-0.42559 2.151424,-0.24767 5.924229,-0.54662 0,0 2.789596,0.41967 2.789596,0.41967 l 0,0 c -3.779804,0.28813 -1.801721,0.11619 -5.933138,0.52844 -9.326437,1.26973 -18.4412768,3.47724 -27.4642243,6.15084 -10.6776127,2.5487 -21.3682337,5.03442 -32.1547227,7.08385 0,0 -2.796051,-0.40227 -2.796051,-0.40227 z" />
    <path
       style="color:#000000;fill:#000000;fill-opacity:1;stroke:#000000;stroke-width:1.5;stroke-linecap:butt;stroke-linejoin:miter;stroke-miterlimit:4;stroke-opacity:1;stroke-dasharray:none;stroke-dashoffset:0;marker:none;visibility:visible;display:inline;overflow:visible;enable-background:accumulate"
       id="path2870"
       d="m -10.782587,242.60932 c 8.9132325,-3.65717 17.6684693,-7.67159 26.637153,-11.19729 7.650302,-2.43757 15.200607,-5.22037 23.075201,-6.85592 3.418789,-0.49025 7.931465,-1.98746 10.711659,0.77853 0.087,0.25123 0.173998,0.50245 0.260997,0.75368 0,0 -2.845481,0.10208 -2.845481,0.10208 l 0,0 c -0.08508,-0.20791 -0.170169,-0.41582 -0.255253,-0.62373 -0.41385,-0.36756 -0.551762,-0.53785 -1.101527,-0.78234 -0.321811,-0.14311 -1.208799,-0.0588 -0.99965,-0.34219 0.275884,-0.37379 1.840554,-0.25419 1.382511,-0.17654 -1.450658,0.24592 -2.926028,0.33443 -4.362165,0.67489 -7.887122,1.59586 -15.436361,4.38736 -23.096384,6.8047 -8.9613125,3.50617 -17.69676522,7.52825 -26.5978682,11.17642 0,0 -2.8091928,-0.31229 -2.8091928,-0.31229 z" />
    <path
       style="color:#000000;fill:#000000;fill-opacity:1;stroke:#000000;stroke-width:1.5;stroke-linecap:butt;stroke-linejoin:miter;stroke-miterlimit:4;stroke-opacity:1;stroke-dasharray:none;stroke-dashoffset:0;marker:none;visibility:visible;display:inline;overflow:visible;enable-background:accumulate"
       id="path2872"
       d="m 87.470534,225.81797 c 0.536467,6.16889 2.323227,12.07365 3.912344,18.02417 0.249899,0.54901 0.894198,2.39323 1.663476,2.81994 0.311015,0.17251 1.403935,0.16572 1.065473,0.0565 -2.977753,-0.96114 -1.477959,0.005 0.759213,-2.36261 3.406009,-4.53012 6.24687,-9.48512 9.23117,-14.30639 2.94477,-4.15235 5.96953,-8.14083 10.39541,-10.76208 4.58741,-1.18129 8.46042,-0.17905 10.83427,3.82506 2.089,5.28504 3.14643,10.8559 3.88929,16.46451 0.58014,5.25381 0.72636,10.54375 0.79056,15.82537 0.20167,1.20031 -0.41035,2.73556 0.35193,3.82975 0.10002,0.14357 0.63787,0.2621 0.46362,0.24617 -2.65424,-0.24272 -2.34902,-0.0345 -1.12373,-1.33105 0.39004,-0.40402 0.78009,-0.80804 1.17014,-1.21205 0,0 2.82632,0.21778 2.82632,0.21778 l 0,0 c -0.38827,0.40021 -0.77653,0.80042 -1.1648,1.20062 -3.20683,3.80882 -6.24485,0.83851 -5.35451,-2.94794 -0.0583,-5.27036 -0.18637,-10.54927 -0.77453,-15.79153 -0.74002,-5.57091 -1.78299,-11.11306 -3.90398,-16.34718 -0.95764,-1.54183 -1.74218,-2.51376 -3.44416,-3.26371 -0.49329,-0.21735 -1.39633,-0.0154 -1.52468,-0.53897 -0.10895,-0.44439 1.77137,-0.31297 1.3694,-0.0944 -0.46888,0.25496 -1.05796,0.14179 -1.58694,0.21269 -4.44921,2.54762 -7.45918,6.49419 -10.40453,10.62284 -2.99215,4.83221 -5.84169,9.79132 -9.215247,14.3611 -2.789487,3.10833 -7.789058,4.2248 -9.136909,-0.65102 -1.577275,-5.96265 -3.348124,-11.8786 -3.917569,-18.05081 0,0 2.828969,-0.0467 2.828969,-0.0467 z" />
    <path
       style="color:#000000;fill:#000000;fill-opacity:1;stroke:#000000;stroke-width:1.5;stroke-linecap:butt;stroke-linejoin:miter;stroke-miterlimit:4;stroke-opacity:1;stroke-dasharray:none;stroke-dashoffset:0;marker:none;visibility:visible;display:inline;overflow:visible;enable-background:accumulate"
       id="path2874"
       d="m 163.50313,236.89503 c 5.6005,-3.01815 11.61264,-5.10198 17.77388,-6.61325 2.67399,-0.53994 5.38502,-0.92406 8.11146,-1.05101 0.11452,-0.003 0.22903,-0.005 0.34354,-0.008 0,0 2.81791,0.44312 2.81791,0.44312 l 0,0 c -0.11494,-1.3e-4 -0.22989,-2.6e-4 -0.34484,-3.9e-4 -2.73176,0.0889 -5.44754,0.47949 -8.12934,0.9915 -6.15798,1.47939 -12.17738,3.5233 -17.76342,6.55035 0,0 -2.80919,-0.3123 -2.80919,-0.3123 z" />
    <path
       style="color:#000000;fill:#000000;fill-opacity:1;stroke:#000000;stroke-width:1.5;stroke-linecap:butt;stroke-linejoin:miter;stroke-miterlimit:4;stroke-opacity:1;stroke-dasharray:none;stroke-dashoffset:0;marker:none;visibility:visible;display:inline;overflow:visible;enable-background:accumulate"
       id="path2876"
       d="m 207.12915,220.12705 c -0.017,6.28908 -0.0123,12.57821 -0.002,18.8673 -0.0678,1.9912 -0.22074,3.66044 0.82052,5.37769 0,0 -2.84069,0.15155 -2.84069,0.15155 l 0,0 c -1.02231,-1.77967 -0.89243,-3.49647 -0.80654,-5.52924 0.0108,-6.28909 0.0155,-12.57822 -0.002,-18.8673 0,0 2.82973,0 2.82973,0 z" />
    <path
       style="color:#000000;fill:#000000;fill-opacity:1;stroke:#000000;stroke-width:1.5;stroke-linecap:butt;stroke-linejoin:miter;stroke-miterlimit:4;stroke-opacity:1;stroke-dasharray:none;stroke-dashoffset:0;marker:none;visibility:visible;display:inline;overflow:visible;enable-background:accumulate"
       id="path2878"
       d="m 393.18482,217.24654 c 1.31766,8.31356 1.79663,16.72616 2.17892,25.12503 0.27068,6.66194 0.32976,13.3298 0.35239,19.99641 0.007,1.94903 0.003,3.89806 0.002,5.84709 0,0 -2.83437,-5.2e-4 -2.83437,-5.2e-4 l 0,0 c 0.006,-1.94859 0.009,-3.89718 0.009,-5.84579 -0.0142,-6.66258 -0.0613,-13.32642 -0.32845,-19.98455 -0.37595,-8.38859 -0.84974,-16.79372 -2.20894,-25.09094 0,0 2.82897,-0.0467 2.82897,-0.0467 z" />
    <path
       style="color:#000000;fill:#000000;fill-opacity:1;stroke:#000000;stroke-width:1.5;stroke-linecap:butt;stroke-linejoin:miter;stroke-miterlimit:4;stroke-opacity:1;stroke-dasharray:none;stroke-dashoffset:0;marker:none;visibility:visible;display:inline;overflow:visible;enable-background:accumulate"
       id="path2880"
       d="m 360.64747,220.07391 c 6.8047,-2.21734 13.74403,-4.05413 20.71087,-5.6931 6.48822,-1.51561 13.0433,-2.85978 19.48731,-4.55839 0.97758,-0.2663 1.95515,-0.5326 2.93273,-0.7989 0,0 2.79257,0.36641 2.79257,0.36641 l 0,0 c -0.97786,0.26679 -1.95572,0.53359 -2.93359,0.80038 -6.43631,1.73542 -13.01284,3.03022 -19.49826,4.5656 -6.96022,1.62171 -13.8892,3.46242 -20.68541,5.67035 0,0 -2.80622,-0.35235 -2.80622,-0.35235 z" />
    <path
       style="color:#000000;fill:#000000;fill-opacity:1;stroke:#000000;stroke-width:1.5;stroke-linecap:butt;stroke-linejoin:miter;stroke-miterlimit:4;stroke-opacity:1;stroke-dasharray:none;stroke-dashoffset:0;marker:none;visibility:visible;display:inline;overflow:visible;enable-background:accumulate"
       id="path2882"
       d="m 372.07604,282.93106 c 7.4756,-2.29696 14.88782,-4.78224 22.53086,-6.47206 5.90224,-1.49595 11.71579,-3.24234 17.51729,-5.08357 3.99272,-0.89928 7.63174,-2.80737 11.50609,-4.06131 1.31185,-0.008 2.6237,-0.0168 3.93555,-0.0251 0,0 -2.80777,0.44047 -2.80777,0.44047 l 0,0 c 0.56237,-0.0194 1.12475,-0.0389 1.68712,-0.0583 -3.89057,1.22693 -7.52284,3.16221 -11.52159,4.06002 -5.81027,1.83865 -11.62444,3.60009 -17.53166,5.10756 -7.64166,1.6599 -15.04601,4.1377 -22.50967,6.44469 0,0 -2.80622,-0.35234 -2.80622,-0.35234 z" />
    <path
       style="color:#000000;fill:#000000;fill-opacity:1;stroke:#000000;stroke-width:1.5;stroke-linecap:butt;stroke-linejoin:miter;stroke-miterlimit:4;stroke-opacity:1;stroke-dasharray:none;stroke-dashoffset:0;marker:none;visibility:visible;display:inline;overflow:visible;enable-background:accumulate"
       id="path2884"
       d="m 467.47053,262.96083 c 0.71636,5.62729 1.66124,11.12792 3.48698,16.50536 -2.05136,0.33944 1.83113,1.71606 1.34403,1.31984 -0.47354,-0.38519 -1.48872,-0.25557 -1.62127,-0.85142 -0.11418,-0.51331 0.83666,-0.64278 1.2055,-1.0176 1.11625,-1.13437 1.16428,-1.4781 1.92501,-2.89801 1.94984,-3.27985 3.6335,-6.66926 5.88687,-9.76137 2.03024,-3.47535 6.76891,-3.7623 8.7801,-0.0978 1.4152,4.28402 1.40603,8.8854 1.51727,13.35381 0.0481,2.66807 0.0496,5.33699 0.0274,8.00532 0,0 -2.85341,-0.008 -2.85341,-0.008 l 0,0 c 0.0622,-2.66278 0.033,-5.32735 -4.2e-4,-7.99042 -0.10922,-4.42094 -0.0832,-8.98616 -1.52463,-13.21406 -1.70807,-2.88957 -2.57829,-1.23079 0.12045,-2.1705 1.22108,-0.42519 -6.36291,1.7186 -3.2417,2.3003 -2.26062,3.07423 -3.93696,6.45107 -5.88286,9.71994 -1.36683,2.63588 -6.30394,8.03328 -8.50964,3.4018 -1.80552,-5.39757 -2.74459,-10.91472 -3.48862,-16.55057 0,0 2.82897,-0.0467 2.82897,-0.0467 z" />
    <path
       style="color:#000000;fill:#000000;fill-opacity:1;stroke:#000000;stroke-width:1.5;stroke-linecap:butt;stroke-linejoin:miter;stroke-miterlimit:4;stroke-opacity:1;stroke-dasharray:none;stroke-dashoffset:0;marker:none;visibility:visible;display:inline;overflow:visible;enable-background:accumulate"
       id="path2886"
       d="m 832.15844,243.02968 c -2.41944,8.63757 -4.08391,17.50286 -5.69916,26.32848 -1.27053,7.23582 -2.11895,14.43637 -0.83815,21.70559 0.89585,1.93943 0.22557,1.25199 1.8426,2.21391 0,0 -2.82519,0.27919 -2.82519,0.27919 l 0,0 c -1.61069,-1.17859 -0.9482,-0.40193 -1.84476,-2.44452 -1.24831,-7.30633 -0.40281,-14.53637 0.87358,-21.80476 1.62021,-8.8365 3.2922,-17.70683 5.66429,-26.36887 0,0 2.82679,0.091 2.82679,0.091 z" />
    <path
       style="color:#000000;fill:#000000;fill-opacity:1;stroke:#000000;stroke-width:1.5;stroke-linecap:butt;stroke-linejoin:miter;stroke-miterlimit:4;stroke-opacity:1;stroke-dasharray:none;stroke-dashoffset:0;marker:none;visibility:visible;display:inline;overflow:visible;enable-background:accumulate"
       id="path2888"
       d="m 800.59416,243.93432 c 7.87498,0.95703 15.61895,2.68412 23.45181,3.91558 5.98418,1.3961 11.95065,2.84538 18.02819,3.77584 0,0 -2.79977,0.39944 -2.79977,0.39944 l 0,0 c -6.06632,-0.95072 -12.01993,-2.42069 -18.0042,-3.78014 -7.83838,-1.24565 -15.59425,-2.95746 -23.47748,-3.91432 0,0 2.80145,-0.3964 2.80145,-0.3964 z" />
    <path
       style="color:#000000;fill:#000000;fill-opacity:1;stroke:#000000;stroke-width:1.5;stroke-linecap:butt;stroke-linejoin:miter;stroke-miterlimit:4;stroke-opacity:1;stroke-dasharray:none;stroke-dashoffset:0;marker:none;visibility:visible;display:inline;overflow:visible;enable-background:accumulate"
       id="path2890"
       d="m 792.3618,301.07424 c 8.28424,1.24471 16.41998,3.18845 24.7389,4.26446 5.458,0.14318 10.90192,-0.66444 16.33299,-1.22314 2.61129,-0.52281 5.13071,-1.46278 7.43023,-2.80506 0,0 2.83425,0.29442 2.83425,0.29442 l 0,0 c -2.30186,1.38904 -4.84733,2.3385 -7.46778,2.92435 -7.27704,0.74372 -14.56818,1.63179 -21.90138,1.21165 -8.32287,-1.09422 -16.46605,-3.05233 -24.76326,-4.26441 0,0 2.79605,-0.40227 2.79605,-0.40227 z" />
    <path
       style="color:#000000;fill:#000000;fill-opacity:1;stroke:#000000;stroke-width:1.5;stroke-linecap:butt;stroke-linejoin:miter;stroke-miterlimit:4;stroke-opacity:1;stroke-dasharray:none;stroke-dashoffset:0;marker:none;visibility:visible;display:inline;overflow:visible;enable-background:accumulate"
       id="path2892"
       d="m 869.64415,283.00755 c -1.76648,6.50776 -3.41871,13.02928 -4.53802,19.68111 -0.46168,2.71819 -0.57899,5.47537 -0.85237,8.21272 -0.72192,-0.46394 -1.73865,-0.64752 -2.16576,-1.39183 -0.13014,-0.22679 4.80341,-8.22976 5.31352,-9.03676 3.93706,-5.77846 8.53662,-11.10504 13.63976,-15.8772 2.98748,-1.92919 6.4267,-6.54119 10.41759,-6.31451 1.40073,0.0796 2.77978,0.38263 4.16967,0.57395 3.31083,2.84537 2.77088,8.2423 2.92828,12.23928 -0.56713,5.90086 -1.45575,11.77321 -3.11084,17.4693 -1.23635,2.58879 -1.30866,5.63415 -2.41691,8.24934 0,0 -2.84948,-0.12513 -2.84948,-0.12513 l 0,0 c 1.29779,-2.47925 1.07123,-5.72153 2.44635,-8.20439 1.66371,-5.66344 2.54017,-11.50714 3.11232,-17.37791 -0.15527,-3.86155 0.41959,-9.27138 -2.92712,-11.91241 0.48402,-0.16689 1.73857,-0.0763 1.45207,-0.50065 -0.96797,-1.43365 -9.51157,5.26318 -10.42327,6.13346 -5.10889,4.73445 -9.68563,10.05442 -13.62184,15.8058 -0.36586,0.57883 -5.28004,9.00515 -5.2958,9.01486 -1.05588,0.65089 -2.349,0.7977 -3.5235,1.19654 0.35076,-2.72271 0.38955,-5.49257 0.88785,-8.20174 1.13179,-6.64866 2.78261,-13.16829 4.52853,-19.68055 0,0 2.82897,0.0467 2.82897,0.0467 z" />
    <path
       style="color:#000000;fill:#000000;fill-opacity:1;stroke:#000000;stroke-width:1.5;stroke-linecap:butt;stroke-linejoin:miter;stroke-miterlimit:4;stroke-opacity:1;stroke-dasharray:none;stroke-dashoffset:0;marker:none;visibility:visible;display:inline;overflow:visible;enable-background:accumulate"
       id="path2894"
       d="m 935.35844,280.15041 c -0.6653,6.93908 -2.52611,13.64914 -3.92188,20.4549 -0.71275,3.48193 -1.16149,7.01444 -1.42325,10.55755 -0.0382,0.42532 -0.0469,0.85224 -0.041,1.27807 0,0 -2.8563,0.0261 -2.8563,0.0261 l 0,0 c -10e-4,-0.44221 0.009,-0.88473 0.0514,-1.32591 0.28111,-3.55431 0.73303,-7.09958 1.45404,-10.59284 1.39773,-6.80135 3.28509,-13.50269 3.90804,-20.44461 0,0 2.82897,0.0467 2.82897,0.0467 z" />
    <path
       style="color:#000000;fill:#000000;fill-opacity:1;stroke:#000000;stroke-width:1.5;stroke-linecap:butt;stroke-linejoin:miter;stroke-miterlimit:4;stroke-opacity:1;stroke-dasharray:none;stroke-dashoffset:0;marker:none;visibility:visible;display:inline;overflow:visible;enable-background:accumulate"
       id="path2896"
       d="m 920.64747,300.07391 c 6.48595,-1.66557 12.86486,-3.55703 19.21304,-5.68122 4.88343,-1.47724 7.34106,-2.2973 12.34497,-1.44798 0,0 -2.83038,0.27638 -2.83038,0.27638 l 0,0 c 6.72911,-1.68315 -6.65026,1.30457 -6.71631,1.52293 -6.35026,2.10958 -12.71162,4.04972 -19.2051,5.68224 0,0 -2.80622,-0.35235 -2.80622,-0.35235 z" />
    <path
       style="color:#000000;fill:#000000;fill-opacity:1;stroke:#000000;stroke-width:1.5;stroke-linecap:butt;stroke-linejoin:miter;stroke-miterlimit:4;stroke-opacity:1;stroke-dasharray:none;stroke-dashoffset:0;marker:none;visibility:visible;display:inline;overflow:visible;enable-background:accumulate"
       id="path2898"
       d="m 971.81501,283.04969 c -4.59437,9.14954 -9.02823,18.39535 -13.11951,27.78077 -2.28847,4.49826 -4.22824,9.16541 -6.59033,13.62487 0,0 -2.8215,-0.13873 -2.8215,-0.13873 l 0,0 c 2.39881,-4.43867 4.32494,-9.11178 6.62932,-13.6005 4.08541,-9.38718 8.53746,-18.62224 13.07856,-27.79741 0,0 2.82346,0.131 2.82346,0.131 z" />
    <path
       style="color:#000000;fill:#000000;fill-opacity:1;stroke:#000000;stroke-width:1.5;stroke-linecap:butt;stroke-linejoin:miter;stroke-miterlimit:4;stroke-opacity:1;stroke-dasharray:none;stroke-dashoffset:0;marker:none;visibility:visible;display:inline;overflow:visible;enable-background:accumulate"
       id="path2900"
       d="m 264.27201,797.26991 c -0.35187,5.86268 0.1706,11.57098 1.29043,17.31448 1.00566,4.30012 3.50867,7.33222 7.16221,9.67174 3.2412,2.27083 6.7314,3.82842 10.61283,4.54153 4.2382,1.5732 8.70558,2.37602 13.18117,2.88944 4.31488,0.11372 9.68273,-1.04039 14.7674,-1.57808 7.1297,-1.36633 14.27987,-2.57704 21.41031,-3.93601 9.14183,-2.23417 17.89584,-5.73131 26.99791,-8.10801 8.78122,-2.83187 17.83057,-4.41716 26.98795,-5.33297 8.31156,-0.61213 16.53484,-1.9844 24.84162,-2.70321 8.80801,-0.99278 17.58443,-0.46893 26.35157,0.55944 6.43365,0.88794 12.33453,3.22999 17.95137,6.39226 3.7671,2.396 6.79145,5.92766 9.09424,9.72792 1.83854,3.12561 3.30875,6.36468 4.27755,9.85859 0.1782,0.48452 2.03357,4.15173 -1.79814,0.2763 -0.26338,-0.26638 0.40176,-0.63395 0.56852,-0.96939 0.4053,-0.81528 0.66726,-1.62464 0.97305,-2.47852 1.28192,-3.56421 3.89703,-5.89127 6.75455,-8.19596 3.19661,-2.5834 6.90312,-4.47301 10.7574,-5.86056 3.41969,-1.19293 7.05413,-1.36622 10.63988,-1.49135 4.75486,0.11155 9.60066,-0.49059 14.2976,0.34951 4.37843,0.9223 8.59861,2.36198 12.91251,3.52392 6.08049,1.47851 12.3692,1.6149 18.59293,1.77867 6.5835,0.12436 13.16848,0.1036 19.7528,0.0966 8.77065,-0.22071 17.43334,1.31121 26.146,2.06049 7.59658,1.03958 15.018,0.28678 22.56972,-0.5124 7.75528,-0.72121 15.40244,-2.30235 22.91612,-4.31461 6.09784,-1.08791 11.96023,-2.70299 17.58785,-5.27618 4.01757,-2.23959 6.36948,-6.00732 8.4792,-9.93211 2.72478,-6.12523 4.30285,-12.70741 5.41194,-19.30096 0,0 2.80283,0.0465 2.80283,0.0465 l 0,0 c -1.10382,6.62315 -2.68568,13.2313 -5.39293,19.39349 -2.1253,3.97137 -4.46888,7.79602 -8.4965,10.11451 -5.63486,2.58753 -11.48017,4.27876 -17.60648,5.32143 -7.51915,2.02051 -15.16782,3.63394 -22.93159,4.35675 -9.35666,0.99546 -18.72257,1.53163 -28.11262,0.51817 -6.88961,-0.60118 -13.74337,-1.81115 -20.6028,-2.03656 -8.43291,0.0102 -16.86697,0.0477 -25.29893,-0.10316 -6.23397,-0.17206 -12.53321,-0.32425 -18.61605,-1.84307 -4.30651,-1.17748 -8.53469,-2.59433 -12.91512,-3.49546 -4.52065,-0.71059 -5.051,-0.18836 -8.6945,-0.31117 -3.57811,0.11122 -7.21047,0.25085 -10.63384,1.40439 -3.85237,1.33872 -7.54995,3.21558 -10.74643,5.76557 -2.82748,2.27313 -5.46155,4.51043 -6.73578,8.04075 -0.62702,1.76878 -3.57956,8.21449 -5.41539,3.15121 -0.96388,-3.4688 -2.44471,-6.67756 -4.27039,-9.78006 -2.31586,-3.75394 -5.30157,-7.24692 -9.07403,-9.58467 -5.60662,-3.13294 -11.50841,-5.42435 -17.9199,-6.2843 -6.97323,-0.81366 -13.77247,-1.5876 -20.80551,-0.55138 -8.30837,0.70704 -16.5306,2.08077 -24.84073,2.69969 -9.15813,0.89402 -18.21557,2.44301 -26.993,5.28833 -9.10933,2.35211 -17.8591,5.8513 -26.98957,8.12775 -7.12982,1.35622 -14.27847,2.56466 -21.40149,3.96098 -6.75859,0.70368 -13.53353,2.18005 -20.34689,1.57637 -4.48078,-0.53735 -8.927,-1.39098 -13.19009,-2.90869 -3.88297,-0.76917 -7.37432,-2.37918 -10.62566,-4.6513 -3.65871,-2.44041 -6.16967,-5.52956 -7.16754,-9.8981 -1.109,-5.76285 -1.62665,-11.48889 -1.29729,-17.3685 0,0 2.82973,0 2.82973,0 z" />
    <path
       style="color:#000000;fill:#000000;fill-opacity:1;stroke:#000000;stroke-width:1.5;stroke-linecap:butt;stroke-linejoin:miter;stroke-miterlimit:4;stroke-opacity:1;stroke-dasharray:none;stroke-dashoffset:0;marker:none;visibility:visible;display:inline;overflow:visible;enable-background:accumulate"
       id="path2902"
       d="m 473.69155,886.50433 c -6.59042,-0.33877 -13.04972,1.76952 -18.94922,4.62319 -5.97533,3.54031 -10.24849,8.85106 -13.32551,14.98133 -2.01345,4.02812 -2.0463,8.26816 0.81438,11.82123 4.01649,2.9755 6.12664,1.43815 10.54153,0.29275 7.99497,-2.27854 14.27035,-7.93242 20.51686,-13.15777 5.77549,-5.02761 11.35734,-10.2821 17.36137,-15.03975 1.88865,-1.57861 6.73208,-5.86734 8.05815,-0.98548 0.74802,3.88605 1.4153,7.83843 2.39683,11.68174 1.07863,4.56735 2.86989,8.7678 5.37809,12.71667 2.20194,1.98086 3.7998,5.46901 6.93647,6.04911 -2.53639,-0.46416 -2.35838,0.26635 -1.52625,-1.66087 0,0 2.83521,0.10883 2.83521,0.10883 l 0,0 c -0.98362,2.59378 -0.0377,1.40525 -4.12779,1.93059 -3.09818,-0.91477 -4.74551,-4.13196 -6.94225,-6.26833 -2.50183,-3.98113 -4.29353,-8.21476 -5.37491,-12.80559 -0.97723,-3.84452 -1.65321,-7.79107 -2.41705,-11.67518 -0.49142,-1.73069 -0.66413,-1.06504 2.00452,-1.98851 0.0353,-0.0122 -4.48861,3.02494 -4.41174,3.15133 -6.02745,4.73531 -11.61279,9.99278 -17.38607,15.0293 -6.25128,5.24312 -12.5258,10.93634 -20.51029,13.28332 -5.24211,1.37193 -11.51191,3.28095 -16.16044,-0.47397 -2.81889,-3.69509 -2.86692,-8.0042 -0.79882,-12.13984 3.07751,-6.18527 7.36332,-11.55031 13.35036,-15.16355 7.71042,-3.79261 15.884,-5.49528 24.53802,-4.70695 0,0 -2.80145,0.3964 -2.80145,0.3964 z" />
  </g>
</svg>
