<?xml version="1.0" encoding="UTF-8" standalone="no"?>
<!-- Created with Inkscape (http://www.inkscape.org/) -->

<svg
   xmlns:dc="http://purl.org/dc/elements/1.1/"
   xmlns:cc="http://creativecommons.org/ns#"
   xmlns:rdf="http://www.w3.org/1999/02/22-rdf-syntax-ns#"
   xmlns:svg="http://www.w3.org/2000/svg"
   xmlns="http://www.w3.org/2000/svg"
   xmlns:sodipodi="http://sodipodi.sourceforge.net/DTD/sodipodi-0.dtd"
   xmlns:inkscape="http://www.inkscape.org/namespaces/inkscape"
   width="1124.2633"
   height="791.86908"
   id="svg2"
   version="1.1"
   inkscape:version="0.47pre4 r22446"
   sodipodi:docname="New document 1">
  <defs
     id="defs4">
    <inkscape:perspective
       sodipodi:type="inkscape:persp3d"
       inkscape:vp_x="0 : 526.18109 : 1"
       inkscape:vp_y="0 : 1000 : 0"
       inkscape:vp_z="744.09448 : 526.18109 : 1"
       inkscape:persp3d-origin="372.04724 : 350.78739 : 1"
       id="perspective10" />
  </defs>
  <sodipodi:namedview
     id="base"
     pagecolor="#ffffff"
     bordercolor="#666666"
     borderopacity="1.0"
     inkscape:pageopacity="0.0"
     inkscape:pageshadow="2"
     inkscape:zoom="0.35"
     inkscape:cx="1229.9953"
     inkscape:cy="151.25927"
     inkscape:document-units="px"
     inkscape:current-layer="layer1"
     showgrid="false"
     inkscape:window-width="1280"
     inkscape:window-height="750"
     inkscape:window-x="-4"
     inkscape:window-y="-3"
     inkscape:window-maximized="1" />
  <metadata
     id="metadata7">
    <rdf:RDF>
      <cc:Work
         rdf:about="">
        <dc:format>image/svg+xml</dc:format>
        <dc:type
           rdf:resource="http://purl.org/dc/dcmitype/StillImage" />
        <dc:title></dc:title>
      </cc:Work>
    </rdf:RDF>
  </metadata>
  <g
     inkscape:label="Layer 1"
     inkscape:groupmode="layer"
     id="layer1"
     transform="translate(-113.57614,-234.60949)">
    <path
       style="color:#000000;fill:#000000;fill-opacity:1;stroke:#000000;stroke-width:0.25;stroke-linecap:butt;stroke-linejoin:miter;stroke-miterlimit:4;stroke-opacity:1;stroke-dasharray:none;stroke-dashoffset:0;marker:none;visibility:visible;display:inline;overflow:visible;enable-background:accumulate"
       id="path2820"
       d="m 140.04367,691.30919 c -3.66014,4.31655 -6.74726,9.86763 -12.48977,11.49493 -6.29454,0.87238 -8.56303,-2.25668 -10.34153,-7.5595 -2.31978,-5.82343 -3.55608,-11.98974 -3.50999,-18.24952 0.24561,-6.00695 2.1485,-11.7546 5.37831,-16.79552 2.02571,-3.0983 4.99231,-4.5162 8.52372,-5.09026 4.3701,-0.39299 8.68449,-0.49054 12.93539,0.66539 4.31263,1.62371 6.778,4.65655 8.99582,8.54679 2.64665,4.31423 2.22737,8.97822 1.12367,13.70822 -1.34432,4.68441 -3.78952,8.98409 -6.83748,12.76229 -2.17152,1.94208 -4.09898,4.91773 -6.94152,5.86295 -0.34538,0.0133 -0.69076,0.0266 -1.03614,0.0399 0,0 -2.80844,-0.44423 -2.80844,-0.44423 l 0,0 c 0.34222,0.0119 0.68443,0.0238 1.02664,0.0358 2.8546,-0.63055 4.77903,-3.88601 6.93925,-5.68745 3.05971,-3.71986 5.4767,-7.99817 6.83657,-12.63423 1.10098,-4.66802 1.50169,-9.24468 -1.123,-13.49598 -2.21569,-3.82658 -4.68791,-6.79958 -8.98298,-8.32441 -4.24639,-1.12159 -1.99966,-0.88379 -7.3195,-0.6335 -3.4995,0.49431 -6.48046,1.79612 -8.51297,4.85087 -3.24938,4.97041 -5.13039,10.68257 -5.38432,16.63555 -0.0485,6.23218 1.20643,12.36104 3.52031,18.15519 0.71928,2.10424 1.39177,4.16823 3.0237,5.7769 0.41469,0.40878 1.40658,0.4655 1.39782,1.04773 -0.008,0.49952 -1.68969,0.056 -1.42076,0.47705 0.30718,0.48091 1.1412,-0.0143 1.7118,-0.0214 5.78819,-1.37122 8.854,-7.05568 12.47395,-11.31416 0,0 2.82145,0.19067 2.82145,0.19067 z" />
    <path
       style="color:#000000;fill:#000000;fill-opacity:1;stroke:#000000;stroke-width:0.25;stroke-linecap:butt;stroke-linejoin:miter;stroke-miterlimit:4;stroke-opacity:1;stroke-dasharray:none;stroke-dashoffset:0;marker:none;visibility:visible;display:inline;overflow:visible;enable-background:accumulate"
       id="path2822"
       d="m 506.44415,268.74397 c -2.66785,6.9789 -2.74961,14.3412 -2.67517,21.69675 0.32995,6.1727 -0.0507,12.4031 0.76291,18.53649 1.26168,7.01876 1.86897,14.11897 2.26867,21.23119 0.32473,7.7151 0.32544,15.43908 0.33612,23.15958 0.002,8.5111 -0.0113,17.02219 -0.0194,25.53328 0.0281,10.25975 -1.39353,20.454 -2.07988,30.68282 -0.46414,9.87167 -2.01383,19.64527 -2.84739,29.49037 -0.55879,6.94835 -0.71914,13.91838 -0.78647,20.88596 -0.0239,3.53468 -0.0168,7.06951 0.006,10.60417 0.004,0.6217 0.009,1.2434 0.0185,1.86503 -2.94256,0.0482 -5.03068,-1.63691 -7.78977,-2.27651 -0.76505,-0.10506 -10.84445,-0.98664 -5.01132,-0.16559 -0.72789,1.86095 3.16901,3.4464 4.49077,3.94559 3.40673,1.31273 6.82284,2.47181 10.41908,3.17674 3.88316,0.59212 7.8182,0.69393 11.73899,0.76045 4.30974,0.0226 1.34592,0.0119 6.49996,-0.002 1.67618,-0.005 3.35235,-0.009 5.02852,-0.0137 0.42149,-0.748 0.78782,-1.60413 1.21989,-2.38469 0,0 2.83972,0.14435 2.83972,0.14435 l 0,0 c -0.49051,0.87637 -0.94505,1.73134 -1.2418,2.68602 -1.68167,0.003 -3.36334,0.007 -5.04502,0.0109 -4.03481,0.0114 -8.06984,0.0347 -12.10456,-0.002 -3.92201,-0.0757 -7.85974,-0.1854 -11.73968,-0.81179 -3.59484,-0.73574 -7.01631,-1.91141 -10.43193,-3.22574 -1.65948,-0.67971 -5.34668,-2.31975 -4.49925,-4.62083 3.56237,-0.37476 7.10228,-0.54301 10.65241,0.12439 1.55583,0.38868 6.9625,1.78422 2.11753,2.65858 -0.003,-0.62264 -0.005,-1.24529 -0.006,-1.86793 -0.007,-3.53613 -0.0129,-7.07233 0.0174,-10.60839 0.0834,-6.97455 0.24004,-13.95175 0.81057,-20.90662 0.83987,-9.84316 2.39213,-19.61519 2.85702,-29.48529 0.6827,-10.22291 2.10842,-20.41074 2.0735,-30.66434 10e-4,-8.51089 0.01,-17.02178 0.009,-25.53267 -0.0148,-7.71544 -0.009,-15.43447 -0.34163,-23.14433 -0.39615,-7.10601 -1.00727,-14.19892 -2.27669,-21.20994 -0.80645,-6.14598 -0.43437,-12.38593 -0.75539,-18.5707 -0.0699,-7.38381 0.0211,-14.77402 2.65851,-21.79048 0,0 2.82678,0.091 2.82678,0.091 z" />
    <path
       style="color:#000000;fill:#000000;fill-opacity:1;stroke:#000000;stroke-width:0.25;stroke-linecap:butt;stroke-linejoin:miter;stroke-miterlimit:4;stroke-opacity:1;stroke-dasharray:none;stroke-dashoffset:0;marker:none;visibility:visible;display:inline;overflow:visible;enable-background:accumulate"
       id="path2826"
       d="m 492.02273,518.22003 c 6.63398,1.04783 13.31233,1.76134 20.01379,2.18072 4.07875,0.245 8.1649,0.31217 12.25002,0.3305 3.1497,-0.008 -2.78206,0.0146 0.25513,-0.0123 -0.0426,-0.0271 -0.0852,-0.0542 -0.1278,-0.0812 -0.0239,-0.1658 -0.0477,-0.33161 -0.0716,-0.49741 0,0 2.85042,-0.0429 2.85042,-0.0429 l 0,0 c 0.10459,0.65257 0.0475,0.29975 0.17177,1.05835 -1.96004,0.0423 -3.92163,0.0187 -5.88234,0.0182 -4.07841,-0.0246 -8.15775,-0.0982 -12.22941,-0.35034 -6.70731,-0.43261 -13.39085,-1.15932 -20.03141,-2.20715 0,0 2.80145,-0.3964 2.80145,-0.3964 z" />
    <path
       style="color:#000000;fill:#000000;fill-opacity:1;stroke:#000000;stroke-width:0.25;stroke-linecap:butt;stroke-linejoin:miter;stroke-miterlimit:4;stroke-opacity:1;stroke-dasharray:none;stroke-dashoffset:0;marker:none;visibility:visible;display:inline;overflow:visible;enable-background:accumulate"
       id="path2828"
       d="m 518.21558,531.57898 c -0.81915,7.44891 -2.73032,14.69819 -3.92718,22.08449 -0.53803,6.99414 -2.06358,13.83233 -3.15456,20.7471 -0.43289,4.88129 -1.23596,9.61354 -2.4264,14.36047 -0.83265,3.54105 -2.53597,6.79595 -3.56859,10.27979 -0.50978,3.24479 -1.81763,6.25767 -2.60208,9.43595 -0.90917,3.82008 -0.99785,7.76419 -1.09821,11.67073 -0.0582,2.9962 -0.0461,5.99313 -0.034,8.98968 -0.14868,2.04141 1.18941,2.18943 -1.40524,1.01469 0,0 2.82695,0.26292 2.82695,0.26292 l 0,0 c -4.02893,0.84596 -4.28258,1.82078 -4.26289,-1.27668 -0.007,-2.9993 -0.0173,-5.999 0.045,-8.99785 0.10016,-3.92627 0.18837,-7.89159 1.09775,-11.73152 0.77502,-3.18631 2.09122,-6.19883 2.59735,-9.44914 1.01981,-3.48538 2.73545,-6.73226 3.57685,-10.26809 1.18985,-4.73964 2.00381,-9.46035 2.43878,-14.33503 1.09285,-6.91539 2.62908,-13.7524 3.16477,-20.74795 1.18999,-7.38693 3.1229,-14.63208 3.90274,-22.08628 0,0 2.82897,0.0467 2.82897,0.0467 z" />
    <path
       style="color:#000000;fill:#000000;fill-opacity:1;stroke:#000000;stroke-width:0.25;stroke-linecap:butt;stroke-linejoin:miter;stroke-miterlimit:4;stroke-opacity:1;stroke-dasharray:none;stroke-dashoffset:0;marker:none;visibility:visible;display:inline;overflow:visible;enable-background:accumulate"
       id="path2830"
       d="m 466.36414,646.10793 c 6.63318,-1.74055 13.24484,-3.50018 20.02983,-4.53448 5.80112,-1.59996 11.33828,-2.91838 17.36291,-2.88627 3.08564,0.59457 6.11652,1.3411 9.24803,1.69243 3.06806,0.26037 6.1481,0.31337 9.22545,0.34275 0.93681,0.004 0.5062,0.004 1.29184,0.003 0,0 -2.81499,0.44559 -2.81499,0.44559 l 0,0 c -0.78175,-0.002 -0.35318,-1.6e-4 -1.2857,-0.007 -3.07661,-0.0361 -6.15648,-0.0925 -9.22232,-0.37338 -3.12196,-0.37483 -6.14393,-1.15829 -9.23847,-1.66764 0.25505,-0.024 1.01406,-0.13247 0.76514,-0.0719 -3.17023,0.77092 -6.36548,1.45187 -9.53724,2.23639 -0.99813,0.24688 -2.00511,0.45644 -3.00767,0.68466 -6.78408,1.00829 -13.40193,2.73283 -20.01536,4.53206 0,0 -2.80145,-0.3964 -2.80145,-0.3964 z" />
    <path
       style="color:#000000;fill:#000000;fill-opacity:1;stroke:#000000;stroke-width:0.25;stroke-linecap:butt;stroke-linejoin:miter;stroke-miterlimit:4;stroke-opacity:1;stroke-dasharray:none;stroke-dashoffset:0;marker:none;visibility:visible;display:inline;overflow:visible;enable-background:accumulate"
       id="path2832"
       d="m 489.16559,669.6486 c 6.30858,1.06341 12.57805,1.85477 18.95353,1.36967 4.65693,-0.41012 9.27623,-1.14658 13.93625,-1.52028 1.32637,-0.21569 3.4789,-0.0101 4.47548,-0.32552 -0.47015,-0.66603 -0.2233,-0.26097 -0.67286,-1.25394 0,0 2.84236,-0.12366 2.84236,-0.12366 l 0,0 c 0.46971,0.98538 0.23625,0.54475 0.68258,1.33118 0.0851,1.2742 -3.53463,0.48241 -4.52425,0.79362 -4.67009,0.35306 -9.29693,1.09486 -13.96083,1.51648 -8.24363,0.66363 -16.39559,0.0477 -24.53371,-1.39115 0,0 2.80145,-0.3964 2.80145,-0.3964 z" />
    <path
       style="color:#000000;fill:#000000;fill-opacity:1;stroke:#000000;stroke-width:0.25;stroke-linecap:butt;stroke-linejoin:miter;stroke-miterlimit:4;stroke-opacity:1;stroke-dasharray:none;stroke-dashoffset:0;marker:none;visibility:visible;display:inline;overflow:visible;enable-background:accumulate"
       id="path2834"
       d="m 512.84344,674.41276 c -0.0145,6.0368 -0.006,12.07361 -0.005,18.11042 0.42548,5.72393 -0.95437,11.28763 -1.72387,16.91577 -1.18316,9.05812 -2.65953,18.08183 -4.00122,27.122 -1.6503,14.16379 -3.31356,28.32912 -4.42529,42.54835 -0.57342,15.10903 -2.03152,30.15662 -3.02533,45.23961 -0.76172,13.99652 -2.35204,27.9233 -3.18901,41.91806 -0.6844,12.71812 -0.75641,25.45737 -0.81291,38.19036 -0.024,11.39521 -0.006,22.79048 6.5e-4,34.18571 0.008,12.36895 0.008,24.73791 0.0103,37.10687 -0.0722,9.68711 -0.37367,19.34126 1.31746,28.91169 0,0 -2.81928,0.049 -2.81928,0.049 l 0,0 c -1.64409,-9.59087 -1.34343,-19.25953 -1.27191,-28.96026 -2.6e-4,-12.3689 -0.005,-24.73779 -0.015,-37.10669 -0.0109,-11.39572 -0.0326,-22.79149 0.004,-34.18719 0.0598,-12.73806 0.12749,-25.48275 0.81889,-38.20567 0.84223,-13.99522 2.43308,-27.92265 3.19714,-41.91969 0.99911,-15.08383 2.45873,-30.13245 3.02986,-45.24287 1.1087,-14.22494 2.76796,-28.39667 4.4039,-42.56759 1.32808,-9.03956 2.78778,-18.06279 3.96329,-27.11927 0.75746,-5.617 2.14381,-11.16649 1.71818,-16.87779 0.001,-6.03681 0.01,-12.07362 -0.005,-18.11042 0,0 2.82974,0 2.82974,0 z" />
    <path
       style="color:#000000;fill:#000000;fill-opacity:1;stroke:#000000;stroke-width:0.25;stroke-linecap:butt;stroke-linejoin:miter;stroke-miterlimit:4;stroke-opacity:1;stroke-dasharray:none;stroke-dashoffset:0;marker:none;visibility:visible;display:inline;overflow:visible;enable-background:accumulate"
       id="path2836"
       d="m 1113.1826,234.73449 c 1.1746,13.13703 2.2055,26.27349 3.7893,39.37231 2.3528,19.30835 5.0013,38.58202 7.6952,57.84593 2.8466,23.46839 5.1216,47.00896 7.4058,70.53933 2.0506,26.61718 3.9414,53.24826 5.1038,79.92081 1.1703,32.77636 1.2032,65.57901 1.2788,98.37189 0.5907,42.70047 -0.8687,85.37179 -2.5518,128.02968 -1.9607,46.1491 -5.1804,92.22336 -8.67,138.27759 -3.1535,43.43014 -5.5671,86.9113 -7.254,130.42239 -0.6036,16.27456 -0.9209,32.55688 -1.2123,48.83918 0,0 -2.6657,0 -2.6657,0 l 0,0 c 0.3208,-16.2841 0.6692,-32.56808 1.2886,-48.84433 1.7284,-43.51251 4.1242,-86.99905 7.289,-130.43157 3.4947,-46.05091 6.7244,-92.12155 8.6752,-138.26828 1.6725,-42.65454 3.1084,-85.32261 2.4903,-128.01896 -0.1004,-32.78937 -0.149,-65.58863 -1.3367,-98.3609 -1.176,-26.66745 -3.0657,-53.29431 -5.1236,-79.90643 -2.2921,-23.52666 -4.5729,-47.06373 -7.4331,-70.52761 -2.7022,-19.26558 -5.3579,-38.54097 -7.7235,-57.85055 -1.5981,-13.09731 -2.6228,-26.23535 -3.8698,-39.3654 0,0 2.8245,-0.0401 2.8245,-0.0401 z" />
    <path
       style="color:#000000;fill:#000000;fill-opacity:1;stroke:#000000;stroke-width:0.25;stroke-linecap:butt;stroke-linejoin:miter;stroke-miterlimit:4;stroke-opacity:1;stroke-dasharray:none;stroke-dashoffset:0;marker:none;visibility:visible;display:inline;overflow:visible;enable-background:accumulate"
       id="path2838"
       d="m 459.35253,407.5076 c -6.98298,1.90078 -13.97933,3.68589 -20.93753,5.68683 -3.80654,0.91282 -7.51175,2.15523 -7.75183,6.4957 0.9655,3.56751 3.57612,6.06714 6.61737,7.96149 3.18641,1.87309 6.03577,4.20624 8.80035,6.64175 1.39109,1.36133 3.81577,2.68184 3.41322,4.92376 -0.85148,3.20611 -3.12868,5.48458 -5.35375,7.82096 -3.51968,3.19181 -7.61861,5.54183 -11.6682,7.96877 -3.43504,1.7792 -7.90216,3.99112 -11.59139,1.44669 -0.26356,-0.39948 -0.52711,-0.79896 -0.79066,-1.19843 0,0 2.83343,-0.17123 2.83343,-0.17123 l 0,0 c 0.26128,0.36182 0.52256,0.72363 0.78385,1.08545 2.40456,1.41358 0.1695,-0.1783 -0.53286,0.79 -1.10066,1.51743 2.58693,-0.39145 4.54203,-1.29406 0.6546,-0.30221 1.29564,-0.63297 1.94346,-0.94945 4.03774,-2.41614 8.12577,-4.74249 11.65957,-7.89309 2.19581,-2.29664 4.46969,-4.5129 5.32724,-7.663 0.47559,-2.01522 -2.24409,-3.39389 -3.38807,-4.62609 -2.76155,-2.42542 -5.62202,-4.72841 -8.79912,-6.59717 -3.08552,-1.98502 -5.71227,-4.59216 -6.63018,-8.26154 0.23337,-4.47983 3.77901,-5.92275 7.7942,-6.84307 6.95614,-1.98758 13.9373,-3.80565 20.92265,-5.67662 0,0 2.80622,0.35235 2.80622,0.35235 z" />
    <path
       style="color:#000000;fill:#000000;fill-opacity:1;stroke:#000000;stroke-width:0.25;stroke-linecap:butt;stroke-linejoin:miter;stroke-miterlimit:4;stroke-opacity:1;stroke-dasharray:none;stroke-dashoffset:0;marker:none;visibility:visible;display:inline;overflow:visible;enable-background:accumulate"
       id="path2840"
       d="m 467.12915,454.41276 c -0.0168,7.13394 -0.0151,14.26791 -0.008,21.40186 10e-4,3.373 0.006,6.746 0.0169,10.11898 0,0 -2.84853,0 -2.84853,0 l 0,0 c 0.0112,-3.37298 0.0155,-6.74598 0.0169,-10.11898 0.008,-7.13395 0.009,-14.26792 -0.008,-21.40186 0,0 2.82973,0 2.82973,0 z" />
    <path
       style="color:#000000;fill:#000000;fill-opacity:1;stroke:#000000;stroke-width:0.25;stroke-linecap:butt;stroke-linejoin:miter;stroke-miterlimit:4;stroke-opacity:1;stroke-dasharray:none;stroke-dashoffset:0;marker:none;visibility:visible;display:inline;overflow:visible;enable-background:accumulate"
       id="path2844"
       d="m 425.0683,639.25791 c -5.94896,3.80112 -12.4463,6.42422 -18.86467,9.26871 -2.5648,1.23126 -6.49527,2.20322 -4.77862,5.58048 2.42293,2.10109 5.61116,3.50162 8.56301,4.78717 3.80616,1.24474 6.95122,3.42803 9.92722,6.04371 2.97893,2.76476 5.83269,6.16912 6.1936,10.34174 -0.0592,3.71901 -1.55289,7.15203 -3.50908,10.25247 -2.19417,3.77236 -5.08671,7.13352 -8.6414,9.66671 -3.56082,2.6608 -7.15991,5.34992 -11.27815,7.07119 -4.00471,1.63275 -7.97749,1.70245 -12.21109,1.38879 -0.97028,-1.23956 -0.60203,-0.51419 -0.9964,-2.22778 0,0 2.83867,-0.0672 2.83867,-0.0672 l 0,0 c 0.38744,1.52856 0.0195,0.91512 0.97207,1.91312 -5.20411,0.86427 6.26643,-0.60111 6.58843,-1.34036 4.1331,-1.66096 7.72564,-4.34877 11.27264,-7.00843 3.56822,-2.46438 6.44692,-5.81282 8.62646,-9.55726 1.96105,-3.02028 3.42831,-6.4188 3.50356,-10.06642 -0.36601,-4.10121 -3.25309,-7.42304 -6.17794,-10.12589 -2.97403,-2.59204 -6.14815,-4.69617 -9.92275,-5.95799 -2.97052,-1.33184 -6.26852,-2.69043 -8.58803,-4.98311 -1.73489,-3.60351 1.9753,-4.75392 4.81878,-6.03486 6.40429,-2.86082 12.94067,-5.39763 18.8545,-9.25709 0,0 2.80919,0.3123 2.80919,0.3123 z" />
    <path
       style="color:#000000;fill:#000000;fill-opacity:1;stroke:#000000;stroke-width:0.25;stroke-linecap:butt;stroke-linejoin:miter;stroke-miterlimit:4;stroke-opacity:1;stroke-dasharray:none;stroke-dashoffset:0;marker:none;visibility:visible;display:inline;overflow:visible;enable-background:accumulate"
       id="path2846"
       d="m 431.68852,722.17414 c 4.50237,3.73171 7.02417,8.54283 5.75765,14.36017 -1.0385,4.29514 -4.15799,7.44937 -6.52399,11.01689 0.9316,1.30553 -1.42466,0.66806 -1.21325,0.38926 0.58004,-0.76491 4.9911,-0.79488 5.94131,-0.91767 3.29867,-0.37975 6.61724,-0.5246 9.93509,-0.58941 1.92301,0.11738 7.2545,-0.87718 6.90166,2.00507 -0.27097,0.50842 -0.70172,0.73473 -1.1921,0.97907 0,0 -2.83225,-0.32632 -2.83225,-0.32632 l 0,0 c 0.43111,-0.17387 0.85655,-0.33944 1.17422,-0.69804 0.0738,-0.33394 -0.64921,-0.7587 -0.37043,-0.95681 2.10082,-1.49291 3.28528,-0.32506 -0.87616,-0.56392 -3.31871,0.0556 -6.63821,0.19203 -9.93908,0.55755 -1.85959,0.23517 -11.37705,2.81016 -10.36365,-0.0449 2.34715,-3.54521 5.48273,-6.65204 6.5348,-10.91233 1.28854,-5.72376 -1.31546,-10.41497 -5.75037,-14.0456 0,0 2.81655,-0.25305 2.81655,-0.25305 z" />
    <path
       style="color:#000000;fill:#000000;fill-opacity:1;stroke:#000000;stroke-width:0.25;stroke-linecap:butt;stroke-linejoin:miter;stroke-miterlimit:4;stroke-opacity:1;stroke-dasharray:none;stroke-dashoffset:0;marker:none;visibility:visible;display:inline;overflow:visible;enable-background:accumulate"
       id="path2848"
       d="m 543.50462,554.35963 c 5.07786,-1.5021 9.72243,-4.11254 13.97155,-7.22803 3.88419,-2.34934 6.69985,-1.49269 8.4485,2.44665 0.98018,3.30913 1.15936,6.71629 2.0374,10.06508 0.77134,2.56869 1.48347,5.12937 1.86696,7.78532 0,0 -2.84463,0.0405 -2.84463,0.0405 l 0,0 c -0.3768,-2.64445 -1.09618,-5.19329 -1.85148,-7.75322 -0.87552,-3.33294 -1.04894,-6.7286 -2.04322,-10.01675 -0.50569,-1.08701 -0.5514,-1.44584 -1.38258,-2.2885 -0.279,-0.28286 -1.1918,-0.44525 -0.93066,-0.74468 0.82964,-0.9513 3.26151,-0.56883 -0.48293,0.73018 -4.25063,3.13837 -8.89424,5.79305 -13.9827,7.31576 0,0 -2.80621,-0.35234 -2.80621,-0.35234 z" />
    <path
       style="color:#000000;fill:#000000;fill-opacity:1;stroke:#000000;stroke-width:0.25;stroke-linecap:butt;stroke-linejoin:miter;stroke-miterlimit:4;stroke-opacity:1;stroke-dasharray:none;stroke-dashoffset:0;marker:none;visibility:visible;display:inline;overflow:visible;enable-background:accumulate"
       id="path2850"
       d="m 558.55772,560.12705 c 0.38114,8.6285 -0.41705,17.16699 -1.3112,25.7331 -0.31773,7.68759 -1.96448,15.18537 -3.18081,22.75405 -0.50548,4.89862 -1.0163,9.69567 -2.4955,14.40561 -0.93302,2.75844 -1.31513,5.61955 -1.50264,8.5103 -0.0216,0.59607 -0.0556,1.19174 -0.0872,1.7873 0,0 -2.85481,-0.0238 -2.85481,-0.0238 l 0,0 c 0.0428,-0.59323 0.0922,-1.18675 0.10256,-1.78199 0.19149,-2.91345 0.56783,-5.79834 1.51,-8.57868 1.49861,-4.69238 2.00458,-9.47691 2.51437,-14.36363 1.21962,-7.56372 2.88022,-15.05457 3.19901,-22.73817 0.89048,-8.55598 1.70519,-17.0856 1.27652,-25.70407 0,0 2.82973,0 2.82973,0 z" />
    <path
       style="color:#000000;fill:#000000;fill-opacity:1;stroke:#000000;stroke-width:0.25;stroke-linecap:butt;stroke-linejoin:miter;stroke-miterlimit:4;stroke-opacity:1;stroke-dasharray:none;stroke-dashoffset:0;marker:none;visibility:visible;display:inline;overflow:visible;enable-background:accumulate"
       id="path2854"
       d="m 536.38263,611.51013 c 2.42963,6.38722 5.35298,12.56196 8.01555,18.84865 1.43092,3.64709 3.35834,7.0402 4.76086,10.70223 0.35569,1.58747 1.02687,2.22316 2.58078,2.53901 -0.55074,-0.19753 -1.50407,-0.0266 -1.65224,-0.5926 -0.13092,-0.50013 0.85061,-0.58855 1.26063,-0.90343 1.77301,-1.36162 3.36254,-2.9084 4.71972,-4.67735 2.51216,-2.92776 4.95384,-5.90945 7.3461,-8.94209 1.40514,-1.9108 2.61671,-3.73283 4.8634,-4.63661 0.71695,-0.5879 0.3993,-0.26077 0.95752,-0.97692 0,0 2.84198,0.18231 2.84198,0.18231 l 0,0 c -0.57039,0.79809 -0.24871,0.41665 -0.97284,1.13769 -2.28306,0.81569 -3.47154,2.55496 -4.8669,4.48243 -2.39293,3.03086 -4.81509,6.02427 -7.34105,8.93653 -2.59859,3.48725 -5.46586,6.11566 -9.98179,6.37042 -1.54791,-0.41842 -2.22971,-1.24413 -2.59293,-2.81576 -1.3949,-3.65768 -3.32864,-7.04423 -4.73898,-10.693 -2.66563,-6.29436 -5.56821,-12.48663 -8.02659,-18.87053 0,0 2.82678,-0.091 2.82678,-0.091 z" />
    <path
       style="color:#000000;fill:#000000;fill-opacity:1;stroke:#000000;stroke-width:0.25;stroke-linecap:butt;stroke-linejoin:miter;stroke-miterlimit:4;stroke-opacity:1;stroke-dasharray:none;stroke-dashoffset:0;marker:none;visibility:visible;display:inline;overflow:visible;enable-background:accumulate"
       id="path2856"
       d="m 594.32939,605.5949 c -3.64987,5.06196 -7.24253,10.48652 -7.13846,16.91767 -1.33138,0.69334 3.04377,6.45817 3.80289,4.35363 0.67009,-1.8577 -4.90104,1.70199 0.28172,-1.17961 3.6486,-2.97239 6.49724,-6.79022 8.30132,-11.1242 2.5856,-6.27727 3.57353,-13.02117 5.05943,-19.60723 1.04957,-5.90787 2.00962,-11.75296 3.67413,-17.52407 0.65155,-1.74988 1.32867,-4.32485 3.96914,-1.15912 0.37883,0.45419 -0.21292,1.16356 -0.31692,1.74578 -0.13344,0.74708 -0.26361,1.49475 -0.39541,2.24212 -0.83724,6.56698 -2.2765,13.02182 -3.18167,19.58115 -1.69791,8.06569 -2.87802,16.20494 -3.58577,24.41356 -0.8282,5.41908 -2.00425,10.77333 -2.8954,16.18194 0.24889,4.5693 -2.99147,2.98025 -1.63944,0.85175 0.14359,-0.39086 0.28719,-0.78173 0.43079,-1.17259 0,0 2.83838,0.0977 2.83838,0.0977 l 0,0 c -0.14371,0.41099 -0.28743,0.82197 -0.43114,1.23295 -1.79422,2.9456 -6.00314,2.61822 -4.03248,-1.05659 0.90939,-5.39958 2.08425,-10.74786 2.92272,-16.15939 0.71412,-8.21241 1.8921,-16.35708 3.58735,-24.42772 0.90254,-6.56207 2.33339,-13.02094 3.16037,-19.59165 0.077,-0.44435 0.68094,-3.95045 0.69468,-3.96109 4.71369,-3.64996 2.15525,0.15705 1.7009,1.26102 -1.68109,5.76323 -2.64674,11.60108 -3.69271,17.50659 -1.49009,6.60025 -2.47492,13.35675 -5.0448,19.65552 -1.80348,4.39848 -4.66905,8.23596 -8.30505,11.30878 -4.34517,2.64298 -9.32463,2.01728 -9.72778,-3.46495 -0.0918,-6.49804 3.47405,-11.97203 7.14175,-17.1126 0,0 2.82146,0.19066 2.82146,0.19066 z" />
    <path
       style="color:#000000;fill:#000000;fill-opacity:1;stroke:#000000;stroke-width:0.25;stroke-linecap:butt;stroke-linejoin:miter;stroke-miterlimit:4;stroke-opacity:1;stroke-dasharray:none;stroke-dashoffset:0;marker:none;visibility:visible;display:inline;overflow:visible;enable-background:accumulate"
       id="path2858"
       d="m 596.49538,958.93617 c -7.6728,2.6732 -14.83616,6.4683 -22.09733,10.06288 -7.03144,3.7636 -13.87191,7.88114 -20.3974,12.46809 -2.59352,2.5546 -8.88453,4.78467 -10.90715,7.48247 -0.55754,2.3566 3.22476,3.05173 4.86659,3.80889 4.16598,2.48091 8.77398,4.07067 13.15226,6.1301 5.68161,2.5567 11.32573,5.2185 16.86339,8.0772 4.90679,2.7252 10.10583,4.8268 15.13029,7.2799 2.95882,1.5557 6.09586,2.6238 9.34326,3.3728 0.23308,0.047 0.46615,0.094 0.69922,0.1413 0,0 -2.8211,0.3876 -2.8211,0.3876 l 0,0 c -0.2322,-0.05 -0.46439,-0.099 -0.69659,-0.1491 -3.2432,-0.7795 -6.37146,-1.8836 -9.33315,-3.4365 -5.04708,-2.412 -10.19441,-4.6011 -15.11915,-7.2883 -5.54521,-2.8429 -11.18269,-5.5145 -16.86654,-8.06615 -4.39086,-2.04145 -8.98464,-3.66768 -13.16868,-6.12653 -1.8867,-0.86724 -5.56835,-1.5883 -4.88573,-4.30682 1.84823,-2.7264 8.37148,-5.06416 10.94403,-7.57583 6.53485,-4.59579 13.37774,-8.72779 20.41414,-12.50952 7.2597,-3.59507 14.41768,-7.39237 22.07343,-10.10483 0,0 2.80621,0.35235 2.80621,0.35235 z" />
    <path
       style="color:#000000;fill:#000000;fill-opacity:1;stroke:#000000;stroke-width:0.25;stroke-linecap:butt;stroke-linejoin:miter;stroke-miterlimit:4;stroke-opacity:1;stroke-dasharray:none;stroke-dashoffset:0;marker:none;visibility:visible;display:inline;overflow:visible;enable-background:accumulate"
       id="path2860"
       d="m 566.30517,989.28371 c 6.12502,0.003 12.25003,8.9e-4 18.37505,6.6e-4 5.43417,-7e-5 10.86834,5e-5 16.30252,1.1e-4 2.79721,-0.24836 5.68543,0.31293 8.47542,5e-5 0.10951,-0.0123 -0.0463,-0.29621 0.06,-0.32509 1.86083,-0.50531 3.80532,-0.62587 5.70687,-0.94549 6.35099,-1.06236 12.79948,-1.30284 19.22429,-1.48786 7.47448,-0.1547 14.95144,-0.1187 22.42706,-0.11658 5.6301,-1.68785 12.10666,-1.89406 18.01638,-2.31337 8.99387,-0.49436 18.00527,-0.5038 27.00992,-0.53498 10.9752,-0.81954 21.97462,-1.42095 32.80083,-3.4654 12.8259,-2.55556 25.63117,-5.26249 38.35985,-8.27327 11.62239,-2.85438 23.23745,-5.55376 35.11778,-7.07259 8.35412,-1.53356 16.71457,-2.87268 25.18244,-3.56198 6.40065,-0.29673 12.65964,-1.77847 19.00997,-2.56179 5.75317,-0.51989 11.47575,-0.57265 17.17426,-1.56365 5.64492,-1.13242 11.37715,-1.61148 17.11806,-1.88439 5.71123,-0.20922 11.42745,-0.19847 17.14162,-0.20016 7.87527,0.003 15.75053,0.0137 23.6258,0.0182 8.4305,-1.11934 16.90319,-1.92139 25.33288,-3.12798 12.25692,-1.44905 24.49909,-3.02036 36.79486,-4.11562 12.14597,-1.00069 24.33577,-1.19576 36.51597,-1.31189 10.9988,-0.0653 21.9976,-0.0461 32.9964,-0.0317 5.5126,0.008 11.0251,0.0134 16.5374,0.0163 3.561,-0.0499 6.9968,-0.26236 10.4055,0.858 3.0632,1.15361 6.2731,1.57906 9.5153,1.82651 2.9448,0.19118 5.8977,0.19232 8.8474,0.19349 -0.6303,-6.5e-4 -1.2606,6.1e-4 -1.8909,-0.002 -0.5926,-0.002 0.1746,0.31816 1.4856,-0.29223 1.3206,-0.61489 1.5362,-1.42979 2.0126,-2.76489 0.1385,-0.69895 0.2769,-1.39791 0.4152,-2.09686 0,0 2.8278,0.0544 2.8278,0.0544 l 0,0 c -0.1366,0.71214 -0.2732,1.42427 -0.4099,2.13641 -1.2503,3.75753 -3.4624,3.64732 -7.247,3.40924 -2.9486,-0.005 -5.9006,-0.0104 -8.8435,-0.21656 -3.2488,-0.26909 -6.4569,-0.73715 -9.5266,-1.89071 -3.4007,-1.05443 -6.8566,-0.7869 -10.3871,-0.77229 -5.5037,-0.004 -11.0073,-0.0123 -16.511,-0.0207 -9.1606,-0.0139 -18.3214,-0.0342 -27.4818,0.0257 -12.1822,0.11206 -24.3738,0.29967 -36.52249,1.28871 -12.29008,1.085 -24.52348,2.66442 -36.77476,4.10342 -10.23664,1.46896 -20.5199,2.76336 -30.86066,3.16957 -6.02425,-0.003 -12.04856,-0.005 -18.07275,-0.0156 -5.71345,6.4e-4 -11.4288,-0.0116 -17.13962,0.18727 -5.73826,0.26117 -11.47081,0.71734 -17.11328,1.8488 -5.70037,1.01146 -11.41451,1.10218 -17.17718,1.57817 -6.35803,0.76715 -12.61871,2.26199 -19.02184,2.57174 -8.47542,0.67258 -16.84573,1.98736 -25.2022,3.54608 -11.8868,1.49505 -23.50601,4.17955 -35.13004,7.04099 -12.72425,3.0207 -25.52984,5.71715 -38.35056,8.287 -10.82354,2.07882 -21.82203,2.66313 -32.79769,3.51791 -8.99859,0.0303 -18.0036,0.0384 -26.99201,0.51888 -7.89485,0.54789 -15.67518,1.88346 -23.56913,2.33369 -5.6227,-0.0192 -11.24628,0.002 -16.86804,0.10912 -6.4205,0.17709 -12.86552,0.40412 -19.21442,1.4499 -6.56944,1.10597 -13.14973,1.59547 -19.8182,1.3172 -5.43461,6e-5 -10.86923,1.8e-4 -16.30385,1.1e-4 -6.12782,-2.3e-4 -12.25563,-0.002 -18.38345,6.6e-4 0,0 2.79489,-0.44266 2.79489,-0.44266 z" />
    <path
       style="color:#000000;fill:#000000;fill-opacity:1;stroke:#000000;stroke-width:0.25;stroke-linecap:butt;stroke-linejoin:miter;stroke-miterlimit:4;stroke-opacity:1;stroke-dasharray:none;stroke-dashoffset:0;marker:none;visibility:visible;display:inline;overflow:visible;enable-background:accumulate"
       id="path2862"
       d="m 1077.4028,916.45985 c 6.892,4.60626 14.3193,8.25612 21.8738,11.62539 5.5383,3.0149 11.4625,4.97034 17.5958,6.3115 2.4052,0.75828 4.7471,1.754 6.8929,3.08562 0.5679,2.17325 -1.4576,5.16522 -2.296,7.18513 -2.3273,5.7125 -5.4995,10.86065 -9.2311,15.74837 -3.8397,6.30735 -8.6987,11.81596 -13.2844,17.56335 -3.3887,4.09541 -7.6428,7.28994 -11.9278,10.37479 -0.6332,0.10637 -4.501,3.73258 -4.9578,3.64664 -1.1419,-0.21485 -2.2101,-0.71864 -3.3152,-1.07797 -0.086,-0.46187 -0.1724,-0.92373 -0.2586,-1.3856 0,0 2.8383,-0.0539 2.8383,-0.0539 l 0,0 c 0.087,0.43796 0.1732,0.87592 0.2598,1.31388 -5.9438,2.36313 1.7952,-1.50925 2.6179,-2.71034 4.2707,-3.08062 8.5481,-6.21844 11.9403,-10.2964 4.5765,-5.75246 9.4684,-11.23475 13.284,-17.5578 3.7263,-4.86279 6.8966,-9.98119 9.2086,-15.67581 0.7524,-1.83093 2.7635,-4.87251 2.2867,-6.78378 -2.1426,-1.29387 -4.4611,-2.28426 -6.8601,-2.99473 -6.1269,-1.37255 -12.0346,-3.37421 -17.5794,-6.37118 -7.5629,-3.39648 -15.0085,-7.05778 -21.9042,-11.69414 0,0 2.8165,-0.25306 2.8165,-0.25306 z" />
    <path
       style="color:#000000;fill:#000000;fill-opacity:1;stroke:#000000;stroke-width:0.25;stroke-linecap:butt;stroke-linejoin:miter;stroke-miterlimit:4;stroke-opacity:1;stroke-dasharray:none;stroke-dashoffset:0;marker:none;visibility:visible;display:inline;overflow:visible;enable-background:accumulate"
       id="path2864"
       d="m 827.46833,886.16306 c 1.51001,9.98989 1.17621,20.12696 0.11132,30.14016 -1.07656,8.17266 -2.18948,16.34054 -2.93358,24.55148 -0.69884,4.4558 1.54276,5.8608 -3.22797,3.27247 0,0 2.83659,-0.003 2.83659,-0.003 l 0,0 c -4.85751,2.61648 -2.40589,1.00317 -2.42985,-3.29516 0.76989,-8.21103 1.89264,-16.37999 2.9699,-24.55518 1.07102,-9.98889 1.40453,-20.10955 -0.15097,-30.07045 0,0 2.82456,-0.0401 2.82456,-0.0401 z" />
    <path
       style="color:#000000;fill:#000000;fill-opacity:1;stroke:#000000;stroke-width:0.25;stroke-linecap:butt;stroke-linejoin:miter;stroke-miterlimit:4;stroke-opacity:1;stroke-dasharray:none;stroke-dashoffset:0;marker:none;visibility:visible;display:inline;overflow:visible;enable-background:accumulate"
       id="path2866"
       d="m 837.79271,888.96508 c 8.3735,-1.49963 16.70991,-0.90028 24.53773,2.35866 6.87329,3.38118 12.38645,8.53489 16.92697,14.6177 3.39757,5.50344 4.8519,12.124 4.58336,18.55255 -1.21595,6.5952 -6.13047,10.66741 -11.44257,14.17976 -6.77089,4.09062 -14.38829,6.3728 -22.0171,8.23519 0,0 -2.76169,-0.37031 -2.76169,-0.37031 l 0,0 c 7.61351,-1.83334 15.21441,-4.0948 21.98378,-8.14246 5.26058,-3.42896 10.17708,-7.41567 11.41729,-13.91422 0.27836,-6.36926 -1.17497,-12.9228 -4.56783,-18.3599 -4.54074,-6.03664 -10.04293,-11.15089 -16.90898,-14.46779 -6.14285,-2.49649 -12.3617,-3.69235 -18.94951,-2.29278 0,0 -2.80145,-0.3964 -2.80145,-0.3964 z" />
    <path
       style="color:#000000;fill:#000000;fill-opacity:1;stroke:#000000;stroke-width:0.25;stroke-linecap:butt;stroke-linejoin:miter;stroke-miterlimit:4;stroke-opacity:1;stroke-dasharray:none;stroke-dashoffset:0;marker:none;visibility:visible;display:inline;overflow:visible;enable-background:accumulate"
       id="path2868"
       d="m 540.64986,683.25079 c 7.32887,-1.79482 14.65315,-3.56011 21.75123,-6.1415 8.15629,-2.70955 16.18416,-5.7655 24.25604,-8.71028 10.94442,-4.20774 22.07809,-7.87457 33.11185,-11.83217 11.54969,-4.39553 23.21196,-8.49098 34.91704,-12.45269 11.87307,-4.15316 23.87091,-7.90677 35.64109,-12.35511 12.51687,-4.94785 25.32644,-9.06263 37.81864,-14.0895 11.91718,-4.20132 23.63578,-8.88897 35.17592,-14.02999 12.31401,-4.5059 24.58143,-9.08909 36.62799,-14.27443 11.18918,-4.74023 22.30355,-9.64427 33.41989,-14.55664 11.55339,-5.45858 23.56601,-9.81266 35.37892,-14.65615 11.20402,-4.15236 22.38935,-8.35648 33.74699,-12.07227 10.35599,-3.27016 20.45576,-7.27493 30.70565,-10.84325 10.38961,-3.55143 20.63785,-7.48698 30.91337,-11.3491 9.6008,-3.78634 19.50498,-6.71356 29.23624,-10.134 9.94758,-3.35317 19.70528,-7.22485 29.65818,-10.56195 9.3708,-3.09972 18.7536,-6.16867 28.1627,-9.15135 7.7827,-2.50514 15.5517,-5.08983 23.413,-7.34119 5.9134,-1.6832 11.9287,-2.99834 17.8571,-4.61459 4.7631,-1.41581 9.6164,-2.48973 14.552,-3.06301 3.2423,-1.019 6.4073,-2.08907 9.766,-2.65951 1.3912,-0.18376 6.2897,-0.97385 4.56,-3.10379 -0.4287,-0.35239 -0.8574,-0.70477 -1.286,-1.05716 0,0 2.8238,-0.24573 2.8238,-0.24573 l 0,0 c 0.4336,0.37797 0.8672,0.75595 1.3008,1.13392 1.5523,2.67687 -2.6384,3.37075 -4.5914,3.67005 -3.368,0.54856 -6.5533,1.55293 -9.7723,2.67358 -4.9388,0.54279 -9.797,1.59956 -14.5593,3.01737 -5.9186,1.6508 -11.954,2.91276 -17.8633,4.61139 -7.871,2.22961 -15.6397,4.83105 -23.4273,7.33118 -9.4137,2.97303 -18.7949,6.05295 -28.1696,9.14591 -9.9591,3.32005 -19.7102,7.20904 -29.65977,10.55725 -9.72579,3.43319 -19.63369,6.34414 -29.23392,10.12856 -10.28102,3.85291 -20.52479,7.80595 -30.91727,11.35558 -10.25604,3.55337 -20.34875,7.58197 -30.70729,10.84835 -11.36419,3.69712 -22.54391,7.91673 -33.7551,12.05056 -11.80899,4.84889 -23.82598,9.18696 -35.37603,14.64903 -11.11826,4.91271 -22.23055,9.82571 -33.42467,14.55868 -12.04194,5.19246 -24.30141,9.79367 -36.62468,14.27129 -11.53939,5.14976 -23.25471,9.85566 -35.18166,14.03949 -12.49002,5.0364 -25.2998,9.15176 -37.8192,14.09533 -11.76593,4.45889 -23.76114,8.21695 -35.63505,12.36575 -11.70488,3.96225 -23.3721,8.04404 -34.91894,12.44731 -11.02508,3.96344 -22.15715,7.61509 -33.09108,11.83351 -8.07227,2.93192 -16.08504,6.01901 -24.24313,8.71137 -7.09019,2.61105 -14.41855,4.35004 -21.736,6.1963 0,0 -2.80145,-0.3964 -2.80145,-0.3964 z" />
    <path
       style="color:#000000;fill:#000000;fill-opacity:1;stroke:#000000;stroke-width:0.25;stroke-linecap:butt;stroke-linejoin:miter;stroke-miterlimit:4;stroke-opacity:1;stroke-dasharray:none;stroke-dashoffset:0;marker:none;visibility:visible;display:inline;overflow:visible;enable-background:accumulate"
       id="path2870"
       d="m 540.59655,501.44097 c 6.00237,2.1978 12.26818,3.4826 18.58307,4.36307 4.79327,0.5696 9.62386,0.63475 14.44438,0.66161 3.90821,6e-4 8.51805,-0.017 13.07166,-0.0256 7.4985,-0.22405 14.85734,1.35068 22.28755,2.07239 7.38019,0.63447 14.79189,0.70746 22.19422,0.76904 7.65843,0.0391 15.31702,0.0222 22.97551,0.0171 10.88098,-0.54239 21.6635,-2.00877 32.37203,-3.95989 13.01243,-2.30573 25.94829,-5.02027 38.84627,-7.89369 12.60198,-2.49373 25.02023,-5.81428 37.62961,-8.26338 11.15309,-2.6162 22.52538,-3.986 33.81533,-5.84117 9.01238,-1.53737 18.13979,-1.92413 27.17322,-3.28575 7.50227,-1.29413 15.10021,-1.77047 22.69693,-2.04029 7.71106,-0.0913 15.31919,-1.52249 22.98689,-2.23946 7.51595,-0.63473 15.06347,-0.71074 22.60127,-0.77276 8.53669,-0.0399 17.07354,-0.0217 25.6103,-0.014 6.57245,-1.30163 13.38476,-1.84621 20.08733,-2.31874 7.81618,-0.47923 15.54007,-1.84788 23.33753,-2.59578 7.93537,-0.26649 15.78083,-0.97484 23.6416,-2.06662 6.25006,-0.93002 12.5562,-1.30184 18.86555,-1.49337 6.3773,-0.13849 12.7569,-0.10886 19.1352,-0.10578 4.0828,-0.19405 7.9323,1.39047 11.9007,2.11229 4.3283,0.20074 8.4311,1.53444 12.623,2.51178 3.8288,0.99508 7.8487,0.58775 11.6748,1.45419 3.587,1.0501 7.2388,1.81606 10.9529,2.22202 2.9728,0.29199 5.9635,0.3 8.9477,0.31022 0.5704,1e-4 1.1407,0.002 1.7111,2.8e-4 0.3947,-0.001 -1.5785,0.002 -1.1839,-0.002 2.1317,-0.0214 4.2644,-0.009 6.3962,-0.0128 2.9247,-0.005 5.8494,-0.005 8.7741,-0.006 3.7901,-4.1e-4 7.5801,8e-5 11.3701,-1.9e-4 2.5859,2e-4 5.1717,3.2e-4 7.7575,-4.1e-4 1.8282,-0.34036 1.9843,1.08182 -0.5525,-0.28412 -0.238,-0.12817 0.4867,-0.25369 0.6787,-0.44404 0.6152,-0.60999 0.6769,-1.15366 0.9588,-1.97136 0,0 2.8382,0.0915 2.8382,0.0915 l 0,0 c -1.067,3.2954 -3.3895,3.22552 -6.7333,3.05309 -2.5837,-7.7e-4 -5.1675,-6.8e-4 -7.7513,-5.8e-4 -4.0738,-4.4e-4 -0.6384,-1e-5 -5.7624,1.2e-4 -2.9251,2.5e-4 -5.8503,10e-4 -8.7754,0.006 -4.1761,0.007 -8.3522,0.02 -12.5283,0.014 -2.9853,-0.0137 -5.9771,-0.0305 -8.9494,-0.34109 -3.7134,-0.43331 -7.3588,-1.22518 -10.9546,-2.24998 -3.8429,-0.77655 -7.8484,-0.45832 -11.6738,-1.45976 -4.1878,-0.98554 -8.2994,-2.26785 -12.6224,-2.4986 -3.9545,-0.75012 -7.8069,-2.28836 -11.8871,-2.06209 1.1621,-0.007 1.0806,-0.006 -2.0961,-0.003 -2.8583,0.002 -5.7169,0.008 -8.5751,0.0481 -0.9629,0.0135 -1.9258,0.0343 -2.8887,0.0515 -6.3106,0.1823 -12.61928,0.53756 -18.87143,1.46166 -7.86291,1.09248 -15.70475,1.84742 -23.64549,2.07829 -7.80008,0.73635 -15.52376,2.10569 -23.33836,2.60281 -8.57068,0.59175 -17.04976,1.96223 -25.6327,2.33781 -6.68907,-0.006 -13.37822,-0.022 -20.06725,0.0121 -7.53608,0.0587 -15.08171,0.129 -22.59694,0.74943 -7.67099,0.70543 -15.27893,2.1445 -22.98956,2.2554 -7.59559,0.2605 -15.19461,0.71722 -22.69641,2.00769 -9.03808,1.3729 -18.16684,1.76615 -27.18864,3.28 -11.29272,1.85337 -22.66849,3.21633 -33.82415,5.83198 -12.61553,2.43065 -25.03251,5.7659 -37.63796,8.25427 -12.89422,2.88195 -25.82925,5.59209 -38.83827,7.90554 -10.70474,1.97028 -21.4837,3.43206 -32.3615,4.01226 -9.50227,0.007 -19.00465,0.0276 -28.50684,-0.0174 -7.40515,-0.0645 -14.81988,-0.14378 -22.2018,-0.79326 -5.61931,-0.55797 -11.22173,-1.6928 -16.7234,-2.04411 -6.21608,0.0116 -12.43216,0.0365 -18.64826,0.0254 -4.82102,-0.0317 -9.65236,-0.10857 -14.44378,-0.70006 -6.32058,-0.90649 -12.58551,-2.21962 -18.59843,-4.41266 0,0 2.80622,-0.35234 2.80622,-0.35234 z" />
    <path
       style="color:#000000;fill:#000000;fill-opacity:1;stroke:#000000;stroke-width:0.25;stroke-linecap:butt;stroke-linejoin:miter;stroke-miterlimit:4;stroke-opacity:1;stroke-dasharray:none;stroke-dashoffset:0;marker:none;visibility:visible;display:inline;overflow:visible;enable-background:accumulate"
       id="path2872"
       d="m 1208.5288,458.80005 c 3.6657,-4.92298 7.7125,-9.98289 14.0018,-11.21421 5.4186,-0.45092 9.2662,0.14371 12.8678,4.27291 3.0163,4.41386 2.4417,9.29945 1.8166,14.30201 -1.2094,5.89865 -3.5713,11.43468 -6.2541,16.79374 -2.1878,4.00693 -4.9846,7.65437 -8.8585,10.12237 -3.6747,2.07461 -8.1466,1.54423 -11.6276,-0.58769 -3.4193,-2.99346 -5.4564,-6.71375 -6.9837,-10.93937 -1.858,-4.90571 -3.8269,-9.76246 -5.6803,-14.66994 -1.138,-3.16071 -1.7047,-6.46078 -2.0393,-9.79008 -0.02,-0.12302 -0.025,-0.24929 -0.059,-0.36907 -0.3397,-1.18788 2.4813,0.53006 3.4935,1.23855 1.0969,0.76777 1.3217,5.34961 1.4711,6.39517 0.7702,7.95027 0.6975,15.95741 0.737,23.93714 0.4755,9.7698 -0.8324,19.45463 -1.7256,29.15723 -1.0572,7.02148 -2.4754,13.97962 -3.4341,21.01642 -0.2226,1.76186 -0.4452,3.52524 -0.569,5.29723 -3.7637,-1.01702 -2.9037,0.20153 -3.6541,-2.58228 0,0 2.8325,-0.0759 2.8325,-0.0759 l 0,0 c 0.7141,2.55332 1.0218,1.48607 -2.0325,2.64051 0.138,-1.77891 0.3682,-3.54918 0.5982,-5.31817 0.9777,-7.03136 2.3996,-13.98584 3.4649,-21.00342 0.8919,-9.69375 2.2109,-19.36893 1.7247,-29.13014 -0.043,-7.96699 0.025,-15.96181 -0.7634,-23.89796 -0.1728,-1.17452 -1.6248,-6.01151 -1.4836,-6.30375 0.3847,-0.7963 1.419,-1.05819 2.1625,-1.53706 0.144,-0.0928 -0.2296,1.11204 0.081,0.50756 0.3201,3.30566 0.887,6.58029 2.0195,9.71619 1.8479,4.90973 3.8217,9.76568 5.6749,14.67347 1.5222,4.16166 3.5462,7.85617 6.9883,10.7458 3.8379,2.25528 2.4281,1.98355 5.989,0.59337 3.8905,-2.37471 6.6661,-6.0112 8.8577,-9.96735 2.6845,-5.32475 5.0345,-10.83168 6.2504,-16.69758 0.6148,-4.92407 1.2093,-9.74222 -1.8192,-14.06176 -3.0783,-3.4092 -3.9357,-3.10121 -7.999,-4.05903 -0.2442,-0.0576 0.5016,-0.0176 0.7523,-0.0263 -6.3005,1.01298 -10.3448,6.12002 -13.981,10.98741 0,0 -2.8193,-0.16596 -2.8193,-0.16596 z" />
  </g>
</svg>
