<?xml version="1.0" encoding="UTF-8" standalone="no"?>
<!-- Created with Inkscape (http://www.inkscape.org/) -->
<svg
   xmlns:dc="http://purl.org/dc/elements/1.1/"
   xmlns:cc="http://creativecommons.org/ns#"
   xmlns:rdf="http://www.w3.org/1999/02/22-rdf-syntax-ns#"
   xmlns:svg="http://www.w3.org/2000/svg"
   xmlns="http://www.w3.org/2000/svg"
   xmlns:sodipodi="http://sodipodi.sourceforge.net/DTD/sodipodi-0.dtd"
   xmlns:inkscape="http://www.inkscape.org/namespaces/inkscape"
   width="1794.1245"
   height="1076.1656"
   id="svg2"
   sodipodi:version="0.32"
   inkscape:version="0.46+devel"
   version="1.0"
   sodipodi:docname="c1d1.svg"
   inkscape:output_extension="org.inkscape.output.svg.inkscape">
  <defs
     id="defs4">
    <inkscape:perspective
       sodipodi:type="inkscape:persp3d"
       inkscape:vp_x="0 : 526.18109 : 1"
       inkscape:vp_y="0 : 1000 : 0"
       inkscape:vp_z="744.09448 : 526.18109 : 1"
       inkscape:persp3d-origin="372.04724 : 350.78739 : 1"
       id="perspective10" />
  </defs>
  <sodipodi:namedview
     id="base"
     pagecolor="#ffffff"
     bordercolor="#666666"
     borderopacity="1.0"
     inkscape:pageopacity="0.0"
     inkscape:pageshadow="2"
     inkscape:zoom="0.35"
     inkscape:cx="937.82373"
     inkscape:cy="311.57042"
     inkscape:document-units="px"
     inkscape:current-layer="layer1"
     showgrid="false"
     inkscape:window-width="1280"
     inkscape:window-height="725"
     inkscape:window-x="0"
     inkscape:window-y="25" />
  <metadata
     id="metadata7">
    <rdf:RDF>
      <cc:Work
         rdf:about="">
        <dc:format>image/svg+xml</dc:format>
        <dc:type
           rdf:resource="http://purl.org/dc/dcmitype/StillImage" />
        <dc:title></dc:title>
      </cc:Work>
    </rdf:RDF>
  </metadata>
  <g
     inkscape:label="Layer 1"
     inkscape:groupmode="layer"
     id="layer1"
     transform="translate(562.82373,-1.6980631)">
    <path
       style="fill:none;stroke:#000000;stroke-width:15.89999962;stroke-linecap:round;stroke-miterlimit:4;stroke-opacity:1;stroke-dasharray:none"
       id="path2846"
       d="m -554.87373,741.66577 c 5.23951,-16.14942 10.65361,-32.17362 16.97287,-47.93561 9.60789,-23.05048 20.73142,-45.32924 32.4057,-67.38982 16.36026,-31.25448 35.78654,-60.60913 56.46543,-89.12768 20.37345,-28.13789 43.50817,-53.9385 67.6147,-78.87604 21.88595,-23.02692 46.25982,-43.49532 71.51899,-62.69134 18.9104,-13.30336 38.04553,-26.71473 59.24825,-36.18471 3.95821,-1.7679 8.04225,-3.2394 12.06337,-4.85909 22.46181,-8.31787 46.21436,-14.09863 70.28648,-14.33835 4.95276,-0.0493 9.89852,0.38495 14.84778,0.57742 20.0802,2.0966 39.22246,8.60078 57.021723,18.00465 8.034652,4.24494 16.396079,9.74602 24.072053,14.60882 19.110908,12.31417 32.775029,30.13409 45.948693,48.23374 12.73453,17.57866 21.362115,35.96941 28.9843182,56.15795 7.9813998,20.76455 16.2434148,41.41808 24.1105818,62.22955 12.958561,36.10027 22.023634,73.40024 31.077747,110.62136 7.340018,27.71858 13.565474,55.712 20.400667,83.55607 6.614797,23.03001 10.975987,46.62968 17.80897,69.59039 6.506407,22.56014 13.377247,45.07403 21.702107,67.03697 5.82338,14.64224 10.25488,29.79034 16.00894,44.46224 1.34937,3.44067 7.90172,18.54999 9.37282,21.95977 8.03532,17.49731 17.28366,34.40564 29.88841,49.07416 2.81393,3.27465 5.88227,6.32178 8.8234,9.48266 20.83978,21.85382 46.66151,37.31422 72.93923,51.63382 23.41522,11.136 48.94713,17.9044 74.78899,20.1393 4.94947,0.428 9.92399,0.4861 14.88599,0.7291 23.33862,-0.5627 46.4422,-7.1885 66.18001,-19.8311 2.51541,-1.6111 4.7482,-3.6259 7.1223,-5.4388 18.85422,-13.9806 33.39066,-32.4276 47.99481,-50.55682 14.80873,-19.67555 26.80698,-41.37065 37.60756,-63.45454 11.50155,-22.15134 20.10719,-45.59902 30.13844,-68.40424 9.56172,-21.81747 19.56198,-43.43003 29.21638,-65.20711 9.01115,-23.07735 18.73535,-45.82026 28.82399,-68.44193 10.89276,-23.02255 20.80722,-46.47168 30.31564,-70.09172 8.41956,-21.82348 16.48479,-43.75825 25.28716,-65.43192 1.67212,-3.61644 3.3614,-7.22499 5.01634,-10.84932 5.01751,-10.9884 4.98394,-11.67513 10.80473,-22.44885 6.43667,-11.91365 13.6953,-23.37211 20.8521,-34.8576 13.30535,-20.21626 27.45766,-39.92469 43.23094,-58.29221 13.98362,-18.12524 31.68318,-32.56424 50.15831,-45.832 24.41731,-15.99017 51.61299,-26.50056 79.56662,-34.3541 23.11391,-6.62671 47.03516,-8.77294 70.94112,-9.94543 23.69985,-0.78316 46.95039,4.29211 69.88509,9.62053 28.32058,7.40898 54.91718,19.79526 80.15558,34.41987 17.0193,10.9624 33.486,22.97194 47.5275,37.64659 6.7842,7.0901 8.9905,10.35901 14.8293,17.95417 10.5675,15.10019 18.8195,31.54845 25.9352,48.49592 6.7801,17.09215 12.5926,34.53072 18.1118,52.06412 5.7711,17.14453 9.4067,34.87546 13.3114,52.50584 3.723,19.07101 6.4881,38.31776 9.5917,57.49747 2.4257,20.13618 5.4612,40.12917 9.4322,60.01847 3.9076,18.53733 5.1484,37.45588 6.9301,56.2713 0,0 -2.4033,1.25322 -2.4033,1.25322 l 0,0 c -1.7731,-18.80674 -3.0051,-37.71669 -6.9239,-56.24289 -3.9889,-19.88967 -7.0172,-39.88578 -9.4394,-60.02603 -3.1048,-19.17295 -5.8856,-38.41036 -9.5973,-57.47667 -3.9113,-17.621 -7.5311,-35.34793 -13.2987,-52.4857 -5.5147,-17.52597 -11.3244,-34.9556 -18.1068,-52.03793 -7.1041,-16.92683 -15.3357,-33.35875 -25.8732,-48.45072 -5.8252,-7.5985 -8.0063,-10.84478 -14.781,-17.93736 -14.0122,-14.66971 -30.4484,-26.6841 -47.4644,-37.60929 -25.2375,-14.59923 -51.8351,-26.95881 -80.15296,-34.32621 -22.92292,-5.3167 -46.16408,-10.36236 -69.84906,-9.55427 -23.89011,1.18274 -47.79269,3.34806 -70.88827,9.98157 -26.19268,7.38228 -51.96116,16.91306 -74.95061,31.73387 -18.46748,13.24164 -36.16946,27.65644 -50.14802,45.75845 -15.79912,18.35091 -29.9581,38.06072 -43.28183,58.26935 -7.15599,11.47646 -14.41075,22.92823 -20.84939,34.83152 -5.90079,10.90895 -5.71587,11.30772 -10.79999,22.4351 -1.65465,3.62147 -3.34799,7.22515 -5.02198,10.83773 -8.80096,21.67477 -16.87009,43.60826 -25.28982,65.43225 -9.51089,23.62236 -19.42775,47.07366 -30.31484,70.10221 -10.08195,22.62397 -19.8331,45.35498 -28.82302,68.44085 -9.64915,21.77827 -19.64356,43.39151 -29.21242,65.20457 -10.05051,22.80244 -18.63841,46.26369 -30.14489,68.41889 -10.78029,22.10342 -22.78638,43.80579 -37.57457,63.50578 -14.60371,18.13852 -29.11959,36.61122 -47.96038,50.62122 -3.91028,2.708 -7.70174,5.5962 -11.73084,8.1241 -19.87626,12.4704 -42.81735,19.2529 -66.2449,19.6924 -4.96362,-0.2498 -9.93996,-0.3152 -14.89085,-0.7495 -25.86416,-2.2684 -51.41704,-9.0494 -74.84477,-20.222 -26.29679,-14.3452 -52.14566,-29.8227 -73.01382,-51.68838 -2.94814,-3.16523 -6.02342,-6.21664 -8.84443,-9.49568 C 158.00028,973.07649 148.74651,956.1481 140.7052,938.62446 139.24556,935.2408 132.66368,920.05989 131.32597,916.65 125.57098,901.98019 121.13605,886.83524 115.31093,872.19551 106.9839,850.22611 100.11873,827.70262 93.60697,805.13709 86.762985,782.17478 82.41203,758.56817 75.792084,735.53485 68.972693,707.6791 62.782093,679.67012 55.467534,651.937 46.450741,614.72205 37.407494,577.42922 24.342999,541.3788 16.429339,520.58567 8.188744,499.92742 0.19995568,479.16678 -7.4080724,458.99634 -16.02069,440.62948 -28.748408,423.07234 c -13.152673,-18.06861 -26.784177,-35.86789 -45.857427,-48.17066 -7.616332,-4.82777 -16.063263,-10.38658 -24.037057,-14.59417 -17.780228,-9.38222 -36.911968,-15.84299 -56.965598,-17.91143 -4.94311,-0.18634 -9.88302,-0.61475 -14.82932,-0.55903 -24.0679,0.27111 -47.80726,6.08621 -70.25664,14.42474 -4.0167,1.62463 -8.09632,3.10163 -12.0501,4.87389 -19.59276,8.78239 -37.21008,21.1989 -54.68029,33.52512 -25.27466,19.18058 -49.66091,39.64191 -71.55693,62.66314 -24.11511,24.93148 -47.26694,50.71913 -67.65141,78.8514 -20.67299,28.49668 -40.10023,57.8256 -56.43198,89.07226 -11.65399,22.04919 -22.7688,44.31048 -32.36979,67.34236 -6.3088,15.73208 -11.71216,31.72302 -16.8957,47.85757 0,0 -2.54308,1.21824 -2.54308,1.21824 z" />
    <path
       style="fill:none;stroke:#000000;stroke-width:15.89999962;stroke-linecap:round;stroke-miterlimit:4;stroke-opacity:1;stroke-dasharray:none"
       id="path2848"
       d="m -61.499155,217.24875 c 17.685487,1.77073 35.348879,3.49839 53.1087906,4.44888 28.2860854,0.60277 56.5516824,-0.78078 84.7646854,-2.661 32.681649,-2.84231 65.381449,-5.5131 98.106149,-7.81399 28.46618,-1.58485 56.96381,-2.62661 85.45284,-3.76012 29.87759,-1.76213 59.77302,-3.10819 89.69206,-3.8862 24.13692,-0.54623 48.28107,-0.58622 72.42293,-0.61377 22.71507,-0.007 45.43014,0.0137 68.14521,0.0205 21.57467,-0.10218 43.12882,-0.15188 64.68341,0.82688 20.61025,1.10868 41.24304,1.59614 61.87888,1.85774 25.56697,0.71559 51.04105,-1.99595 76.45256,-4.40303 24.02146,-3.00528 48.12419,-5.03981 72.30532,-6.09582 22.19865,-0.77422 44.41433,-0.7827 66.6236,-0.80646 21.87354,0.20531 43.68561,0.61195 65.34539,-2.76452 3.49027,-0.61598 6.98054,-1.23196 10.47081,-1.84795 0,0 -2.16934,1.63469 -2.16934,1.63469 l 0,0 c -3.49139,0.61447 -6.98277,1.22894 -10.47415,1.8434 -21.67015,3.33569 -43.48871,2.92795 -65.36737,2.72925 -22.20535,0.0249 -44.41722,0.0296 -66.61176,0.81215 -24.17128,1.06163 -48.2642,3.09887 -72.27731,6.09213 -25.42497,2.40936 -50.91344,5.10237 -76.49345,4.39726 -20.63994,-0.25145 -41.27611,-0.75265 -61.89025,-1.86054 -21.5498,-0.9773 -43.09972,-0.91738 -64.66936,-0.822 -22.71332,-0.0123 -45.42664,-0.0291 -68.13996,-0.0238 -24.1334,0.0264 -48.26905,0.0643 -72.39765,0.60359 -29.91375,0.76975 -59.80389,2.1077 -89.67552,3.8787 -28.48653,1.13387 -56.9806,2.19338 -85.4451,3.76441 -32.72392,2.28875 -65.42199,4.96024 -98.10142,7.80939 -28.233395,1.88616 -56.519976,3.26848 -84.826767,2.66647 -17.78535,-0.94604 -35.472621,-2.70286 -53.191746,-4.3708 0,0 2.278518,-1.65544 2.278518,-1.65544 z" />
    <path
       style="fill:none;stroke:#000000;stroke-width:15.89999962;stroke-linecap:round;stroke-miterlimit:4;stroke-opacity:1;stroke-dasharray:none"
       id="path2850"
       d="m 912.01658,154.48717 c -4.20552,12.32706 -5.61957,25.11541 -5.95503,38.05438 -0.40523,15.71045 0.80555,31.35486 1.9322,47.00612 0.16992,2.6379 0.33984,5.2758 0.50975,7.91369 0,0 -2.44409,1.26513 -2.44409,1.26513 l 0,0 c -0.16873,-2.6377 -0.33745,-5.27541 -0.50618,-7.91311 -1.12992,-15.65816 -2.35154,-31.30815 -1.95205,-47.02604 0.31956,-12.94208 1.7002,-25.7407 5.87233,-38.08193 0,0 2.54307,-1.21824 2.54307,-1.21824 z" />
    <path
       style="fill:none;stroke:#000000;stroke-width:15.89999962;stroke-linecap:round;stroke-miterlimit:4;stroke-opacity:1;stroke-dasharray:none"
       id="path2852"
       d="m -70.171838,175.02738 c -0.241243,26.32673 -0.154682,52.63857 0.744678,78.9515 0.276123,4.20936 0.552246,8.41872 0.82837,12.62808 0,0 -2.388312,1.23652 -2.388312,1.23652 l 0,0 c -0.271942,-4.21468 -0.543883,-8.42935 -0.815825,-12.64403 -0.867283,-26.29344 -0.928416,-52.58505 -0.882378,-78.89139 0,0 2.513467,-1.28068 2.513467,-1.28068 z" />
    <path
       style="fill:none;stroke:#000000;stroke-width:15.89999962;stroke-linecap:round;stroke-miterlimit:4;stroke-opacity:1;stroke-dasharray:none"
       id="path2854"
       d="m 272.41519,13.325347 c 11.60458,-4.0341759 23.43966,-5.7322398 34.82637,0.07811 2.58331,1.318199 4.87218,3.147431 7.30828,4.721147 14.0259,11.439378 18.66681,27.873087 23.24987,44.569925 3.85734,13.761517 7.53735,28.486246 16.88222,39.691411 0.69964,0.20545 1.44113,0.30172 2.09894,0.61637 0.26789,0.12813 -0.88462,0.25877 -0.89005,-0.0381 -0.0525,-2.86755 1.81638,-3.33792 1.13162,-6.283632 -0.55759,-2.398666 -3.76731,-0.553461 -4.60195,-0.332176 -1.89196,0.80273 -3.78392,1.605461 -5.67588,2.408191 0,0 2.17845,-1.719279 2.17845,-1.719279 l 0,0 c 1.91148,-0.797124 3.82296,-1.594249 5.73445,-2.391373 1.15817,-0.21838 2.31066,-0.840927 3.4745,-0.655139 3.52582,0.562838 0.15624,14.520348 -5.85204,9.836018 -9.27028,-11.311372 -13.05544,-25.998251 -16.89059,-39.821703 -4.55953,-16.631913 -9.15873,-33.017566 -23.14658,-44.39811 -2.42668,-1.557143 -4.70633,-3.37162 -7.28003,-4.671429 -11.38056,-5.7475772 -23.21812,-3.938287 -34.76688,0.127174 0,0 2.2193,-1.737376 2.2193,-1.737376 z" />
    <path
       style="fill:none;stroke:#000000;stroke-width:15.89999962;stroke-linecap:round;stroke-miterlimit:4;stroke-opacity:1;stroke-dasharray:none"
       id="path2858"
       d="m 320.63251,72.981904 c -10.68917,7.94551 -20.46087,17.029276 -30.00131,26.295366 0,0 -2.52062,1.03992 -2.52062,1.03992 l 0,0 c 9.51357,-9.25919 19.2599,-18.331605 29.90079,-26.299951 0,0 2.62114,-1.035335 2.62114,-1.035335 z" />
    <path
       style="fill:none;stroke:#000000;stroke-width:15.89999962;stroke-linecap:round;stroke-miterlimit:4;stroke-opacity:1;stroke-dasharray:none"
       id="path2881"
       d="m 1486.971,406.83085 c -0.043,14.99754 -0.034,29.99516 -0.034,44.99274 0,15.31054 0.01,30.62107 0.01,45.93161 -0,14.99676 -3e-4,29.99353 -10e-4,44.99029 -0.4245,15.51716 0.3661,30.98171 1.2869,46.46219 1.0111,16.80553 1.2908,33.64101 1.4692,50.47205 0.5772,17.6844 -0.7014,35.3299 -1.6034,52.97801 -0.7042,16.44143 -0.8369,32.88012 -1.9243,49.30276 -1.856,16.16945 -3.2888,32.37694 -5.0651,48.55423 -2.4202,14.94096 -4.0226,29.98256 -5.7319,45.01566 -1.4165,15.58409 -3.2097,31.12697 -4.2987,46.73947 -0.6227,17.20968 -1.5074,34.39078 -2.5678,51.57926 -1.0076,15.5881 -1.3179,31.20555 -1.49,46.82115 -0.6458,14.97089 0.5637,29.85263 2.4338,44.68703 0.2087,7.8766 4.62,17.3114 0.3573,24.8543 -0.461,0.8157 -5.1589,5.5934 -6.171,6.6373 -0.096,0.6124 -0.5634,1.2819 -0.2878,1.837 1.5325,3.086 9.6841,3.2601 12.0765,3.6359 0,0 -2.2725,1.5973 -2.2725,1.5973 l 0,0 c -2.7631,-0.4397 -10.6589,-0.5696 -12.344,-3.9821 -0.2988,-0.6051 0.1579,-1.3405 0.2369,-2.0108 0.7722,-0.7907 5.9915,-6.1015 6.2404,-6.5246 4.3851,-7.4539 -0.094,-16.9378 -0.2805,-24.7599 -1.8676,-14.8466 -3.0983,-29.73944 -2.4463,-44.72286 0.1752,-15.62184 0.4737,-31.2459 1.4959,-46.83968 1.0597,-17.18852 1.9546,-34.36889 2.5631,-51.57927 1.0786,-15.61595 2.8658,-31.16166 4.2886,-46.74786 1.7041,-15.03387 3.2889,-30.0774 5.7332,-45.01522 1.7773,-16.17392 3.21,-32.37781 5.0703,-48.54357 1.0929,-16.42226 1.2341,-32.85962 1.9308,-49.30134 0.9056,-17.6433 2.2027,-35.28379 1.6129,-52.96385 -0.1777,-16.8261 -0.4557,-33.65673 -1.4685,-50.45723 -0.925,-15.48436 -1.7302,-30.95198 -1.3008,-46.47355 -7e-4,-14.9964 2e-4,-29.9928 -0,-44.9892 -3e-4,-15.31265 0,-30.6253 0.01,-45.93796 4e-4,-14.98619 0.01,-29.97243 -0.034,-44.95859 0,0 2.5134,-1.28067 2.5134,-1.28067 z"
       transform="translate(-562.82373,1.6980631)" />
    <path
       style="fill:none;stroke:#000000;stroke-width:15.89999962;stroke-linecap:round;stroke-miterlimit:4;stroke-opacity:1;stroke-dasharray:none"
       id="path2883"
       d="m 1449.5895,412.47946 c 16.6193,-1.01925 33.1183,-3.12304 49.7661,-3.69351 0,0 -2.1969,1.60791 -2.1969,1.60791 l 0,0 c -16.6761,0.59149 -33.2037,2.70875 -49.8514,3.7437 0,0 2.2822,-1.6581 2.2822,-1.6581 z"
       transform="translate(-562.82373,1.6980631)" />
    <path
       style="fill:none;stroke:#000000;stroke-width:15.89999962;stroke-linecap:round;stroke-miterlimit:4;stroke-opacity:1;stroke-dasharray:none"
       id="path2885"
       d="m 706.86537,850.70003 c 4.7389,-12.35211 10.8828,-24.16468 16.7018,-36.05324 9.1085,-16.71272 17.9457,-33.5991 27.6418,-49.98023 9.6085,-14.36328 16.1062,-30.44715 24.9855,-45.20082 5.6074,-8.11622 11.5773,-26.2765 20.9939,-30.12119 2.1461,-0.8762 4.5312,-0.9807 6.7968,-1.47105 1.3806,0.70373 2.9295,1.14604 4.142,2.11119 7.4184,5.90545 11.9655,22.55224 14.949,31.2412 4.975,16.23387 8.8464,32.75457 12.9335,49.22304 0.7344,2.79428 1.4334,5.59813 2.2033,8.38285 4.2305,15.30144 0.5366,0.90257 4.5003,16.11082 0.4736,1.81733 3.7005,14.79255 4.3306,16.62246 0.9263,2.6901 2.2253,5.23707 3.3379,7.8556 0,0 -2.3928,1.34293 -2.3928,1.34293 l 0,0 c -1.1189,-2.62975 -2.4253,-5.18739 -3.3567,-7.88924 -0.6048,-1.75435 -3.879,-14.87787 -4.3334,-16.62091 -3.9948,-15.32589 -0.2282,-0.67853 -4.4965,-16.11426 -0.7703,-2.78576 -1.4709,-5.59036 -2.2063,-8.38553 -4.0886,-16.45977 -7.9532,-32.97396 -12.9245,-49.20054 -2.9376,-8.53803 -7.5313,-25.28843 -14.8805,-31.03145 -1.1895,-0.92954 -2.7103,-1.33053 -4.0654,-1.99579 -0.6486,-0.39972 -1.2139,-1.41064 -1.9458,-1.19915 -9.0532,2.61579 -15.8718,22.70351 -21.0702,30.02497 -8.9138,14.74103 -15.3861,30.84807 -25.0109,45.20973 -9.7084,16.36113 -18.5106,33.25521 -27.6286,49.95022 -5.7957,11.86799 -11.9418,23.65268 -16.6445,35.98601 0,0 -2.5603,1.20238 -2.5603,1.20238 z" />
    <path
       style="fill:none;stroke:#000000;stroke-width:15.89999962;stroke-linecap:round;stroke-miterlimit:4;stroke-opacity:1;stroke-dasharray:none"
       id="path2887"
       d="m 759.90857,759.8918 c 16.502,-1.41477 32.8055,-4.4026 49.2893,-6.11366 0,0 -2.1867,1.62368 -2.1867,1.62368 l 0,0 c -16.5147,1.72881 -32.8491,4.73738 -49.3847,6.14808 0,0 2.2821,-1.6581 2.2821,-1.6581 z" />
  </g>
</svg>
