<?xml version="1.0" encoding="UTF-8" standalone="no"?>
<!-- Created with Inkscape (http://www.inkscape.org/) -->
<svg
   xmlns:dc="http://purl.org/dc/elements/1.1/"
   xmlns:cc="http://creativecommons.org/ns#"
   xmlns:rdf="http://www.w3.org/1999/02/22-rdf-syntax-ns#"
   xmlns:svg="http://www.w3.org/2000/svg"
   xmlns="http://www.w3.org/2000/svg"
   xmlns:sodipodi="http://sodipodi.sourceforge.net/DTD/sodipodi-0.dtd"
   xmlns:inkscape="http://www.inkscape.org/namespaces/inkscape"
   width="1389.1039"
   height="464.47144"
   id="svg2"
   sodipodi:version="0.32"
   inkscape:version="0.46+devel"
   version="1.0"
   sodipodi:docname="c3d2.svg"
   inkscape:output_extension="org.inkscape.output.svg.inkscape">
  <defs
     id="defs4">
    <inkscape:perspective
       sodipodi:type="inkscape:persp3d"
       inkscape:vp_x="0 : 526.18109 : 1"
       inkscape:vp_y="0 : 1000 : 0"
       inkscape:vp_z="744.09448 : 526.18109 : 1"
       inkscape:persp3d-origin="372.04724 : 350.78739 : 1"
       id="perspective10" />
    <inkscape:perspective
       id="perspective2854"
       inkscape:persp3d-origin="0.5 : 0.33333333 : 1"
       inkscape:vp_z="1 : 0.5 : 1"
       inkscape:vp_y="0 : 1000 : 0"
       inkscape:vp_x="0 : 0.5 : 1"
       sodipodi:type="inkscape:persp3d" />
    <inkscape:perspective
       id="perspective2892"
       inkscape:persp3d-origin="0.5 : 0.33333333 : 1"
       inkscape:vp_z="1 : 0.5 : 1"
       inkscape:vp_y="0 : 1000 : 0"
       inkscape:vp_x="0 : 0.5 : 1"
       sodipodi:type="inkscape:persp3d" />
    <inkscape:perspective
       id="perspective2892-3"
       inkscape:persp3d-origin="0.5 : 0.33333333 : 1"
       inkscape:vp_z="1 : 0.5 : 1"
       inkscape:vp_y="0 : 1000 : 0"
       inkscape:vp_x="0 : 0.5 : 1"
       sodipodi:type="inkscape:persp3d" />
  </defs>
  <sodipodi:namedview
     id="base"
     pagecolor="#ffffff"
     bordercolor="#666666"
     borderopacity="1.0"
     inkscape:pageopacity="0.0"
     inkscape:pageshadow="2"
     inkscape:zoom="0.35"
     inkscape:cx="640.09286"
     inkscape:cy="250.80715"
     inkscape:document-units="px"
     inkscape:current-layer="layer1"
     showgrid="false"
     inkscape:window-width="1280"
     inkscape:window-height="725"
     inkscape:window-x="0"
     inkscape:window-y="25" />
  <metadata
     id="metadata7">
    <rdf:RDF>
      <cc:Work
         rdf:about="">
        <dc:format>image/svg+xml</dc:format>
        <dc:type
           rdf:resource="http://purl.org/dc/dcmitype/StillImage" />
        <dc:title></dc:title>
      </cc:Work>
    </rdf:RDF>
  </metadata>
  <g
     inkscape:label="Layer 1"
     inkscape:groupmode="layer"
     id="layer1"
     transform="translate(265.09285,-318.69789)">
    <rect
       style="fill:none;stroke:#000000;stroke-width:15.89999962;stroke-linecap:round;stroke-miterlimit:4;stroke-opacity:1;stroke-dasharray:none"
       id="rect2842"
       width="1368.5714"
       height="448.57144"
       x="-257.14285"
       y="326.64789" />
    <path
       sodipodi:type="arc"
       style="fill:none;stroke:#000000;stroke-width:15.89999962;stroke-linecap:round;stroke-miterlimit:4;stroke-opacity:1;stroke-dasharray:none"
       id="path2844"
       sodipodi:cx="107.14286"
       sodipodi:cy="473.79074"
       sodipodi:rx="55.714287"
       sodipodi:ry="55.714287"
       d="m 162.85715,473.79074 c 0,30.75429 -24.96,55.71429 -55.71429,55.71429 -30.754286,0 -55.714286,-24.96 -55.714286,-55.71429 0,-30.75429 24.96,-55.71429 55.714286,-55.71429 30.75429,0 55.71429,24.96 55.71429,55.71429 z"
       transform="translate(60,152)" />
    <path
       sodipodi:type="arc"
       style="fill:none;stroke:#000000;stroke-width:15.89999962;stroke-linecap:round;stroke-miterlimit:4;stroke-opacity:1;stroke-dasharray:none"
       id="path2844-7"
       sodipodi:cx="107.14286"
       sodipodi:cy="473.79074"
       sodipodi:rx="55.714287"
       sodipodi:ry="55.714287"
       d="m 162.85715,473.79074 c 0,30.75429 -24.96,55.71429 -55.71429,55.71429 -30.754286,0 -55.714286,-24.96 -55.714286,-55.71429 0,-30.75429 24.96,-55.71429 55.714286,-55.71429 30.75429,0 55.71429,24.96 55.71429,55.71429 z"
       transform="translate(559.7143,-28.2857)" />
    <path
       style="fill:none;stroke:#000000;stroke-width:16.6507988;stroke-linecap:round;stroke-miterlimit:4;stroke-opacity:1;stroke-dasharray:none"
       id="path2870"
       d="m -244.86562,529.69898 c 10.40246,-5.83702 18.95254,-13.92112 30.43313,-18.29632 2.89193,-1.10208 5.98629,-1.775 8.97942,-2.66252 16.16535,-2.60646 33.39607,-2.58562 46.29429,9.8788 1.79386,1.73354 3.05,3.86434 4.575,5.79652 6.81107,10.6632 5.69445,22.81135 8.88396,34.19871 0.69658,2.487 1.72201,4.90837 2.58302,7.36255 7.78521,14.66139 19.65928,20.84187 36.22978,16.89087 15.99816,-4.73628 28.185587,-14.72054 40.758227,-24.14842 5.491472,-5.0227 11.18842,-9.5254 19.46406,-10.18433 6.082136,-0.48431 9.449485,-0.59831 14.536232,2.40067 1.811874,1.06823 3.307894,2.55041 4.961841,3.82564 9.267544,11.31218 11.017691,25.43419 13.012587,38.66449 2.240112,12.22494 3.329087,26.28001 15.8619959,34.42807 2.0433259,1.32843 4.4334758,2.08447 6.6502127,3.12671 15.6489634,4.12975 29.7224214,-1.38032 41.9091244,-8.98393 9.463165,-7.0008 17.666969,-17.82883 30.568152,-20.11051 3.370931,-0.59617 6.917701,-0.38846 10.376545,-0.58269 13.715873,2.59735 18.558633,9.93568 23.416873,21.16674 0,0 -2.96366,0.38904 -2.96366,0.38904 l 0,0 c -4.84364,-11.1434 -9.66011,-18.36928 -23.302902,-20.81599 -1.503349,-0.0403 -3.066964,-0.41067 -4.510045,-0.12096 -12.87096,2.58387 -21.173923,12.75894 -30.574098,20.04824 -2.128136,1.34246 -4.135539,2.84979 -6.384406,4.02736 -9.580447,5.01662 -22.392841,8.30768 -33.904864,7.20808 -2.541815,-0.24278 -5.0221274,-1.08486 -7.5331916,-1.6273 -2.2224729,-1.0693 -4.62134818,-1.85429 -6.6674057,-3.20794 -12.5088307,-8.27579 -13.6596567,-22.31841 -15.9114887,-34.62595 -1.981501,-13.15311 -3.70903,-27.22907 -12.979048,-38.44601 -3.132167,-2.37202 -9.082776,-6.93372 -13.53545,-6.68952 -8.313837,0.45593 -14.021244,5.08175 -19.487264,10.06216 -12.597499,9.42799 -24.759372,19.45615 -40.742077,24.2742 -3.51757,0.5901 -6.97737,1.42328 -10.55273,1.77029 -15.11953,1.46747 -25.07678,-5.88151 -31.64954,-18.3714 -0.86424,-2.46557 -1.89237,-4.89844 -2.59271,-7.39671 -3.18029,-11.34458 -2.07612,-23.45068 -8.86162,-34.07084 -1.51532,-1.90753 -2.76439,-4.0133 -4.54591,-5.72257 -7.64898,-7.3388 -19.97554,-11.87502 -30.56934,-11.55356 -3.32371,0.10088 -6.54594,0.79233 -9.81892,1.18849 -2.99256,0.87299 -6.08675,1.52827 -8.97767,2.61894 -11.48097,4.33134 -19.98492,12.40969 -30.35512,18.2431 0,0 -3.07497,0.0477 -3.07497,0.0477 z" />
    <path
       style="fill:none;stroke:#000000;stroke-width:16.86433411;stroke-linecap:round;stroke-miterlimit:4;stroke-opacity:1;stroke-dasharray:none"
       id="path2872"
       d="m 233.05281,638.62354 c 2.7585,-12.70945 8.93699,-25.47975 18.76259,-35.5491 2.41654,-2.47651 5.17852,-4.63177 7.76778,-6.94766 18.05037,-11.88332 30.17598,-13.3742 48.41188,-7.33004 10.91847,3.76017 17.79885,12.85165 27.7634,17.85303 2.18657,1.09748 4.57218,1.86862 6.85828,2.80291 14.12602,3.55539 27.15373,-0.98566 37.27946,-13.07646 1.89968,-2.26835 3.35272,-4.8125 5.02907,-7.21875 5.39383,-12.03474 4.20772,-24.39218 5.78736,-36.58541 0.37312,-2.8801 1.13408,-5.75214 1.70112,-8.62821 4.59078,-14.96359 14.04962,-29.4426 30.67292,-34.76943 2.35006,-0.75305 4.78624,-0.94934 7.17935,-1.42401 10.41202,-0.65552 20.00081,2.40716 30.06544,3.28676 8.27034,0.72281 10.25756,0.17875 18.81669,-0.554 17.99576,-3.71921 33.37038,-12.02826 40.26156,-29.37074 4.6807,-13.23926 1.57025,-26.54507 5.17542,-39.85071 0.80427,-2.96825 2.12853,-5.85107 3.1928,-8.77663 2.25505,-3.54962 4.12115,-7.31741 6.76515,-10.64888 6.31656,-7.95885 16.9888,-12.53304 26.56708,-11.71193 2.22061,0.19037 4.29726,0.86932 6.44589,1.30399 8.13078,1.63924 16.45339,2.87463 25.15796,1.767 3.06389,-0.38987 6.10347,-1.27787 9.15522,-1.91679 0,0 -1.31587,2.70046 -1.31587,2.70046 l 0,0 c -3.06744,0.63374 -6.12346,1.51536 -9.20235,1.90121 -8.7291,1.09396 -17.07778,-0.13627 -25.23937,-1.76328 -2.12809,-0.42586 -4.18515,-1.09481 -6.38426,-1.27759 -12.51551,-1.04013 -23.4952,6.7303 -30.12348,17.18012 -1.07775,2.9167 -2.41776,5.78905 -3.23325,8.75009 -3.6672,13.31542 -0.51467,26.61613 -5.10436,39.873 -2.82113,5.84103 -4.97216,11.57067 -9.4126,16.68788 -8.77806,10.11591 -21.45223,15.39594 -34.05335,17.8347 -8.6349,0.73217 -10.5448,1.26898 -18.88638,0.54176 -10.03168,-0.87456 -19.6004,-3.89868 -29.97793,-3.23235 -2.36943,0.47858 -4.78306,0.67993 -7.10827,1.43571 -14.40044,4.68066 -23.75571,16.27087 -27.62284,29.54229 -0.5768,2.86835 -1.35408,5.73204 -1.73042,8.60505 -1.86086,14.20617 -0.14757,28.26881 -8.63086,41.87392 -1.69491,2.40165 -3.1657,4.94411 -5.08471,7.20496 -10.27279,12.1028 -23.44233,16.55861 -37.62782,12.97282 -2.29999,-0.93794 -4.69966,-1.71217 -6.89995,-2.81385 -9.9547,-4.98437 -16.8217,-14.05617 -27.70834,-17.82901 -18.15273,-6.02137 -30.16068,-4.49426 -48.08626,7.39971 -2.57529,2.32184 -5.32474,4.48349 -7.7259,6.96555 -8.46627,8.75154 -13.65193,19.15484 -15.82581,30.21985 0,0 -1.83204,2.57206 -1.83204,2.57206 z" />
    <path
       style="fill:none;stroke:#000000;stroke-width:15.4891243;stroke-linecap:round;stroke-miterlimit:4;stroke-opacity:1;stroke-dasharray:none"
       id="path2874"
       d="m 718.33354,454.85577 c 13.14361,-4.46941 28.38743,-7.33391 41.00316,-1.02498 2.0195,1.00992 3.65752,2.48096 5.48627,3.72143 9.80003,8.90724 7.90028,20.98938 9.71307,32.31959 3.50489,10.4697 13.51522,18.57328 26.89667,18.90792 2.41315,0.0604 4.82304,-0.48164 7.23456,-0.72245 11.8904,-3.02488 21.07813,-10.55806 31.86673,-15.48204 2.64077,-1.20525 5.41495,-2.16937 8.12243,-3.25405 13.38803,-4.09051 27.59656,-6.34799 36.75691,4.55673 1.14913,1.36795 1.84646,2.98328 2.76968,4.47493 3.62051,9.56804 5.58046,19.86002 14.25309,27.1792 1.93513,1.63313 4.28711,2.86665 6.43065,4.29997 9.23113,4.50794 19.33611,5.25946 29.59275,1.7869 3.90017,-1.32046 7.17625,-3.77068 10.71508,-5.72462 11.58901,-7.79465 22.61898,-16.88061 37.44002,-19.56424 3.77353,-0.68326 7.63038,-0.82302 11.44554,-1.23453 2.79845,0.43889 5.70315,0.56539 8.39515,1.3167 12.7028,3.54523 17.9056,11.98596 20.6253,22.37775 1.1152,7.7239 0.498,15.92575 7.1025,21.97039 4.2345,3.87565 7.7792,4.58085 13.3797,6.65452 7.9742,1.46388 16.2208,1.38503 24.1353,-1.05766 1.6047,-0.4953 2.9913,-1.42826 4.4814,-2.1511 12.4007,-6.01545 2.2233,-1.16225 14.9371,-7.17757 10.8412,-3.37173 5.0325,-1.97631 17.4957,-3.93568 0,0 -2.6839,1.07371 -2.6839,1.07371 l 0,0 c -6.9174,0.14435 -2.8779,-0.32114 -11.9351,2.44525 -16.121,7.62125 -30.3141,15.61764 -49.1581,11.74823 -5.6731,-2.13232 -9.1646,-2.82974 -13.4432,-6.78142 -6.5928,-6.08886 -6.0493,-14.28435 -7.1415,-22.0493 -2.6864,-10.30939 -7.8525,-18.67322 -20.4948,-22.12133 -2.6852,-0.73243 -5.57777,-0.84086 -8.36669,-1.26127 -1.96657,-0.0609 -3.94574,-0.47632 -5.89963,-0.18279 -14.86475,2.23312 -25.89775,11.90518 -37.43142,19.49438 -15.71689,8.76697 -29.04891,12.95063 -45.94088,5.26174 -2.15171,-1.45035 -4.51232,-2.70169 -6.45517,-4.35104 -8.65334,-7.34619 -10.67583,-17.62777 -14.29392,-27.21321 -0.91469,-1.47163 -1.60431,-3.0671 -2.74406,-4.41485 -7.24709,-8.56965 -19.82393,-9.25141 -31.09175,-5.81868 -2.70809,1.07566 -5.48367,2.02838 -8.12429,3.22697 -12.54626,5.69486 -23.05976,14.61707 -37.4244,16.97508 -2.42093,0.21882 -4.8439,0.73738 -7.26279,0.65646 -13.45718,-0.45019 -23.48706,-8.64758 -27.01068,-19.1917 -1.81903,-11.26119 0.10984,-23.30089 -9.65257,-32.14432 -1.81871,-1.22035 -3.44956,-2.6702 -5.45614,-3.66106 -10.6447,-5.25637 -24.01452,-4.22909 -35.32254,-0.33162 0,0 -2.94522,0.40371 -2.94522,0.40371 z" />
    <flowRoot
       xml:space="preserve"
       id="flowRoot2876"
       style="font-size:40px;font-style:normal;font-weight:normal;fill:#000000;fill-opacity:1;stroke:none;font-family:Bitstream Vera Sans"
       transform="translate(980,60)"><flowRegion
         id="flowRegion2878"><rect
           id="rect2880"
           width="277.14285"
           height="260"
           x="-1057.1428"
           y="343.79074" /></flowRegion><flowPara
         id="flowPara2882"
         style="font-size:56px">a</flowPara></flowRoot>    <flowRoot
       xml:space="preserve"
       id="flowRoot2876-0"
       style="font-size:40px;font-style:normal;font-weight:normal;fill:#000000;fill-opacity:1;stroke:none;font-family:Bitstream Vera Sans"
       transform="translate(1476.0022,59.47671)"><flowRegion
         id="flowRegion2878-2"><rect
           id="rect2880-9"
           width="277.14285"
           height="260"
           x="-1057.1428"
           y="343.79074" /></flowRegion><flowPara
         id="flowPara2882-4"
         style="font-size:56px">a</flowPara></flowRoot>    <flowRoot
       xml:space="preserve"
       id="flowRoot2876-5"
       style="font-size:40px;font-style:normal;font-weight:normal;fill:#000000;fill-opacity:1;stroke:none;font-family:Bitstream Vera Sans"
       transform="translate(1938.0022,59.47671)"><flowRegion
         id="flowRegion2878-1"><rect
           id="rect2880-7"
           width="277.14285"
           height="260"
           x="-1057.1428"
           y="343.79074" /></flowRegion><flowPara
         id="flowPara2882-43"
         style="font-size:56px">a</flowPara></flowRoot>    <path
       style="stroke:#000000;stroke-width:0.93099469px;stroke-opacity:1"
       d="m -250.87407,537.45504 1374.41957,0"
       id="path2972"
       sodipodi:nodetypes="cc" />
  </g>
</svg>
