<?xml version="1.0" encoding="UTF-8" standalone="no"?>
<!-- Created with Inkscape (http://www.inkscape.org/) -->

<svg
   xmlns:dc="http://purl.org/dc/elements/1.1/"
   xmlns:cc="http://creativecommons.org/ns#"
   xmlns:rdf="http://www.w3.org/1999/02/22-rdf-syntax-ns#"
   xmlns:svg="http://www.w3.org/2000/svg"
   xmlns="http://www.w3.org/2000/svg"
   xmlns:sodipodi="http://sodipodi.sourceforge.net/DTD/sodipodi-0.dtd"
   xmlns:inkscape="http://www.inkscape.org/namespaces/inkscape"
   width="1329.9896"
   height="607.1861"
   id="svg2910"
   version="1.1"
   inkscape:version="0.47pre4 r22446"
   sodipodi:docname="c7d2.svg">
  <defs
     id="defs2912">
    <marker
       inkscape:stockid="Arrow1Lend"
       orient="auto"
       refY="0.0"
       refX="0.0"
       id="Arrow1Lend"
       style="overflow:visible;">
      <path
         id="path3850"
         d="M 0.0,0.0 L 5.0,-5.0 L -12.5,0.0 L 5.0,5.0 L 0.0,0.0 z "
         style="fill-rule:evenodd;stroke:#000000;stroke-width:1.0pt;marker-start:none;"
         transform="scale(0.8) rotate(180) translate(12.5,0)" />
    </marker>
    <inkscape:perspective
       sodipodi:type="inkscape:persp3d"
       inkscape:vp_x="0 : 526.18109 : 1"
       inkscape:vp_y="0 : 1000 : 0"
       inkscape:vp_z="744.09448 : 526.18109 : 1"
       inkscape:persp3d-origin="372.04724 : 350.78739 : 1"
       id="perspective2918" />
    <inkscape:perspective
       id="perspective4300"
       inkscape:persp3d-origin="0.5 : 0.33333333 : 1"
       inkscape:vp_z="1 : 0.5 : 1"
       inkscape:vp_y="0 : 1000 : 0"
       inkscape:vp_x="0 : 0.5 : 1"
       sodipodi:type="inkscape:persp3d" />
    <marker
       inkscape:stockid="Arrow1Lend"
       orient="auto"
       refY="0"
       refX="0"
       id="Arrow1Lend-2"
       style="overflow:visible">
      <path
         id="path3850-3"
         d="M 0,0 5,-5 -12.5,0 5,5 0,0 z"
         style="fill-rule:evenodd;stroke:#000000;stroke-width:1pt;marker-start:none"
         transform="matrix(-0.8,0,0,-0.8,-10,0)" />
    </marker>
    <inkscape:perspective
       id="perspective4336"
       inkscape:persp3d-origin="0.5 : 0.33333333 : 1"
       inkscape:vp_z="1 : 0.5 : 1"
       inkscape:vp_y="0 : 1000 : 0"
       inkscape:vp_x="0 : 0.5 : 1"
       sodipodi:type="inkscape:persp3d" />
  </defs>
  <sodipodi:namedview
     id="base"
     pagecolor="#ffffff"
     bordercolor="#666666"
     borderopacity="1.0"
     inkscape:pageopacity="0.0"
     inkscape:pageshadow="2"
     inkscape:zoom="0.35"
     inkscape:cx="99.682681"
     inkscape:cy="406.46185"
     inkscape:document-units="px"
     inkscape:current-layer="layer1"
     showgrid="false"
     inkscape:window-width="1280"
     inkscape:window-height="726"
     inkscape:window-x="0"
     inkscape:window-y="25"
     inkscape:window-maximized="1" />
  <metadata
     id="metadata2915">
    <rdf:RDF>
      <cc:Work
         rdf:about="">
        <dc:format>image/svg+xml</dc:format>
        <dc:type
           rdf:resource="http://purl.org/dc/dcmitype/StillImage" />
        <dc:title></dc:title>
      </cc:Work>
    </rdf:RDF>
  </metadata>
  <g
     inkscape:label="Layer 1"
     inkscape:groupmode="layer"
     id="layer1"
     transform="translate(183.25411,-294.49503)">
    <path
       style="fill:#000000;fill-opacity:1;fill-rule:nonzero;stroke:none"
       id="path2920"
       d="m -116.86143,294.49503 c -1.96796,15.40225 -2.15302,30.96966 -2.48588,46.47302 -0.69448,30.99051 -1.97857,61.96215 -2.63703,92.95637 -0.30677,40.64593 -1.11669,81.27526 -2.12089,121.90905 -1.1517,39.69742 -3.67334,79.32825 -6.28937,118.9494 -2.01236,32.45041 -3.94623,64.9068 -6.31343,97.33362 -1.03343,14.58929 -0.55521,7.68991 -1.4411,20.6977 0,0 -12.22769,6.11465 -12.22769,6.11465 l 0,0 c 1.08567,-13.09709 0.51721,-6.1546 1.70002,-20.8279 2.56565,-32.46772 4.5798,-64.9754 6.63113,-97.47914 2.67877,-39.62097 5.26709,-79.25112 6.4181,-118.95339 1.01272,-40.61115 1.84937,-81.21657 2.00439,-121.84185 0.53157,-30.91519 1.6927,-61.81236 2.18481,-92.72514 0.22368,-15.46669 0.36262,-30.96795 1.90199,-46.37311 0,0 12.67495,-6.23328 12.67495,-6.23328 z" />
    <path
       style="fill:#000000;fill-opacity:1;fill-rule:nonzero;stroke:none"
       id="path2922"
       d="m -133.28313,354.94442 c -1.03971,0.58413 -4.15735,2.33914 -3.11912,1.75239 2.76427,-1.56222 5.36335,-3.46473 8.29725,-4.67879 1.4888,-0.61608 -2.65351,1.835 -3.89803,2.85836 -3.957,3.25381 -7.08718,7.11478 -10.27446,11.08608 -3.54436,4.34674 -6.64278,9.03016 -9.53053,13.82975 0,0 -12.82707,5.69397 -12.82707,5.69397 l 0,0 c 2.84829,-4.88573 5.96695,-9.62867 9.52266,-14.03457 9.27496,-11.80671 18.47693,-18.94423 32.86583,-25.33537 0,0 -11.03653,8.82818 -11.03653,8.82818 z" />
    <path
       style="fill:#000000;fill-opacity:1;fill-rule:nonzero;stroke:none"
       id="path2924"
       d="m -136.5638,374.40505 c -0.26031,9.10976 -2.87466,17.58609 -6.4599,25.87156 -4.24321,9.27401 -9.61803,17.96909 -14.86643,26.69556 -1.66781,3.07155 -3.91286,5.82542 -5.39435,8.99466 0,0 -12.87698,5.95704 -12.87698,5.95704 l 0,0 c 1.17137,-3.42049 3.82948,-6.09696 5.48622,-9.29195 5.29156,-8.66456 10.64924,-17.33622 14.96562,-26.53884 3.59686,-8.08705 6.36784,-16.31948 6.55914,-25.27479 0,0 12.58668,-6.41324 12.58668,-6.41324 z" />
    <path
       style="fill:#000000;fill-opacity:1;fill-rule:nonzero;stroke:none"
       id="path2926"
       d="m -118.00845,424.43618 c -6.9624,8.91298 -12.99922,18.48189 -19.50845,27.71943 -8.66862,12.62464 -17.44792,25.16845 -26.30952,37.65841 -6.23959,8.83249 -12.6043,17.60304 -20.38705,25.14575 0,0 -12.98269,5.33609 -12.98269,5.33609 l 0,0 c 7.98764,-7.38905 14.44113,-16.1307 20.71594,-24.98899 8.86154,-12.49565 17.70393,-25.00078 26.32815,-37.66225 6.46506,-9.16309 12.40762,-18.67848 19.14069,-27.65309 0,0 13.00293,-5.55535 13.00293,-5.55535 z" />
    <path
       style="fill:#000000;fill-opacity:1;fill-rule:nonzero;stroke:none"
       id="path2928"
       d="m -128.8994,494.66535 c -4.74469,11.35212 -10.45004,22.20408 -16.89168,32.67473 -6.92095,11.15856 -14.19252,22.10192 -22.01863,32.6469 -0.85309,1.07776 -1.70618,2.15551 -2.55927,3.23326 0,0 -12.88513,5.49951 -12.88513,5.49951 l 0,0 c 0.88054,-1.07329 1.76108,-2.14659 2.64162,-3.21988 7.9994,-10.43194 15.21467,-21.44267 22.18667,-32.58147 6.44424,-10.32688 12.18489,-21.0381 16.70321,-32.36041 0,0 12.82321,-5.89264 12.82321,-5.89264 z" />
    <path
       style="fill:#000000;fill-opacity:1;fill-rule:nonzero;stroke:none"
       id="path2930"
       d="m -136.86143,540.20932 c -2.02214,11.5651 -5.08455,22.85915 -8.78293,33.98996 -3.63875,9.65079 -7.69892,19.15363 -13.01062,28.00863 0,0 -12.88208,5.68959 -12.88208,5.68959 l 0,0 c 5.54692,-8.72449 9.66373,-18.18882 13.3767,-27.822 3.70568,-10.99656 6.78216,-22.15921 8.62398,-33.63291 0,0 12.67495,-6.23327 12.67495,-6.23327 z" />
    <path
       style="fill:#000000;fill-opacity:1;fill-rule:nonzero;stroke:none"
       id="path2932"
       d="m -148.59199,603.15421 c -3.13612,14.79275 -7.09809,29.33987 -11.6523,43.75287 -3.65969,11.74024 -6.66279,23.6622 -9.89914,35.52083 0,0 -12.40385,5.90359 -12.40385,5.90359 l 0,0 c 3.33431,-11.86694 6.33614,-23.82453 9.96894,-35.6081 4.51674,-14.3034 8.55409,-28.73447 11.23185,-43.51142 0,0 12.7545,-6.05777 12.7545,-6.05777 z" />
    <path
       style="fill:#000000;fill-opacity:1;fill-rule:nonzero;stroke:none"
       id="path2934"
       d="m -148.61204,683.47949 c -4.27834,15.69194 -9.7438,31.03162 -14.88264,46.45674 -1.05256,3.15894 -2.10513,6.31789 -3.1577,9.47683 0,0 -12.32841,5.78995 -12.32841,5.78995 l 0,0 c 1.05305,-3.1589 2.10611,-6.31779 3.15916,-9.47669 5.08256,-15.29948 10.50506,-30.52683 14.49518,-46.15609 0,0 12.71441,-6.09074 12.71441,-6.09074 z" />
    <path
       style="fill:#000000;fill-opacity:1;fill-rule:nonzero;stroke:none"
       id="path2936"
       d="m -146.08625,766.7333 c -4.46528,12.93058 -8.37123,26.04805 -12.53922,39.07713 0,0 -12.12222,5.71489 -12.12222,5.71489 l 0,0 c 4.05664,-12.91363 7.87629,-25.89647 11.92621,-38.81108 0,0 12.73523,-5.98094 12.73523,-5.98094 z" />
    <path
       style="fill:#000000;fill-opacity:1;fill-rule:nonzero;stroke:none"
       id="path2938"
       d="m -100.66966,529.07573 c 5.821256,2.12715 11.886187,3.48246 18.020408,4.2949 4.793811,0.54454 9.620492,0.57482 14.438279,0.59667 4.620609,-0.006 9.241314,-0.0154 13.861899,-0.0365 4.286717,-0.005 8.573432,-0.0131 12.860153,-0.0106 4.267525,0.0118 8.535038,-0.005 12.802557,-0.006 3.467211,-3.9e-4 6.934444,9.3e-4 10.401649,-0.007 3.36097,-1.19265 6.808142,-1.91804 10.3289143,-2.41935 3.5345601,-0.75493 6.5685952,-0.0883 9.9053859,1.0257 3.7802527,0.87152 6.6626326,3.51032 9.5897258,5.88185 3.849596,3.36721 4.952406,8.09115 5.745776,12.91948 0.442517,4.21222 1.054579,8.45275 -0.504816,12.47009 -5.036244,6.58449 -13.1487993,11.40458 -21.420532,12.51038 -3.8924339,0.65827 -7.25407,-0.17015 -9.98641,-3.0414 -2.412081,-3.01626 -3.205497,-6.45615 -2.050935,-10.11962 2.001415,-4.93259 6.042438,-8.37431 10.1132289,-11.59667 C 1.6303515,545.903 9.9546702,539.76123 19.8131,537.65148 c 5.631286,-0.18404 11.060489,0.89876 16.141561,3.29278 5.281035,2.39005 10.183517,5.59278 14.583706,9.35287 4.573494,3.70915 8.08577,8.07049 11.036426,13.11337 2.433718,3.70865 3.755209,7.79058 4.426204,12.13068 1.355233,6.92966 -7.682171,17.26777 -15.256672,12.1937 -2.04421,-2.37258 -2.403136,-5.39478 -2.640548,-8.39779 0.381377,-3.88336 1.530365,-7.64525 2.892801,-11.28543 1.736813,-3.81856 4.189002,-7.21547 7.150073,-10.16901 6.79241,-5.49596 14.830739,-8.8637 23.130701,-11.10985 5.040235,-0.87813 10.509345,-0.0141 15.46253,1.17808 5.395838,0.95956 10.354078,2.9847 15.140058,5.59116 3.78221,2.14763 6.57744,4.857 7.93275,9.00719 1.16302,4.07288 0.64188,7.94449 -0.35176,11.96176 -1.11254,3.37051 -3.2903,6.06647 -6.18175,8.06488 -4.8751,3.24796 -14.940682,12.51858 -18.76264,3.87786 -1.18596,-3.52426 -0.205068,-6.84602 1.060813,-10.18266 1.597709,-3.7182 4.01032,-7.03659 6.908757,-9.84132 7.1973,-5.44382 15.09952,-10.88563 23.83369,-13.42552 6.04751,-1.47698 12.28746,-1.72864 18.482,-1.9022 6.73823,0.45528 13.07267,2.78195 19.37177,5.02771 6.11852,2.68576 12.02424,5.9282 17.54497,9.69864 3.57323,2.23086 5.97075,5.32359 7.05341,9.35874 0.33358,4.29996 -2.54119,6.61239 -5.74901,8.8206 -5.97652,3.15606 -14.25303,10.58942 -22.30097,9.14358 -3.92139,-1.79728 -6.34244,-5.39444 -8.13111,-9.17577 -0.98523,-3.64917 -0.0862,-6.66234 1.98575,-9.67072 5.53191,-7.17436 14.33636,-10.97334 22.46802,-14.59587 4.57548,-2.8273 9.78272,-3.96172 14.79457,-5.64446 3.64479,-1.44797 7.43815,-2.41046 11.33488,-2.81422 2.80665,-0.29181 5.63162,-0.24131 8.44898,-0.23182 2.95331,0.0113 5.90663,0.0173 8.85995,0.0268 3.4374,0.006 6.8748,0.0106 10.31221,0.0132 7.497,0.39045 11.38881,-2.89393 -6.0218,5.76732 0.91413,-3.48137 1.9703,-6.92635 3.2959,-10.27376 2.15979,-4.11272 3.88815,-8.41903 6.39223,-12.34308 5.08059,-7.09701 12.35981,-9.57724 20.16059,-13.86587 3.46641,-1.96053 7.23369,-2.66826 11.12536,-3.19373 5.24202,-0.39775 10.54065,-0.65227 15.76113,0.0194 6.18538,0.98562 12.12422,3.16973 18.02016,5.23178 6.0331,2.52202 11.66083,5.74039 16.55646,10.07577 4.85073,4.7238 7.50632,10.32166 8.98501,16.82422 1.46132,7.89027 1.28493,15.89024 0.47052,23.83036 -1.36363,8.32453 -4.40593,16.19499 -8.64115,23.45252 -6.61395,10.37093 -17.3217,16.77489 -28.87423,20.83728 -6.74833,2.05876 -13.64853,2.05995 -20.56323,1.14803 -7.30214,-1.32875 -12.79312,-6.21862 -18.57381,-10.4621 -5.27003,-4.1618 -9.66708,-9.17578 -13.34737,-14.76552 -3.14576,-4.55463 -5.36232,-9.3693 -6.56697,-14.75957 -0.91113,-5.14678 -0.95596,-10.38969 -1.04676,-15.60028 -0.0136,-2.28354 -0.0161,-4.56712 -0.0154,-6.85069 0.10013,-2.2963 1.24924,-4.48626 2.0266,-6.62788 0,0 12.81971,-5.96443 12.81971,-5.96443 l 0,0 c -0.77778,2.01938 -1.60732,4.14821 -2.13402,6.14169 -0.0752,2.2876 -0.0961,4.57677 -0.0946,6.86548 0.005,5.12945 0.0524,10.28747 0.87606,15.36311 1.10628,5.24706 3.26372,9.88292 6.28094,14.32512 3.5901,5.45429 7.91386,10.31218 13.06567,14.35644 5.60687,4.1607 11.02384,8.79161 18.18417,9.85545 6.79977,0.78021 13.60788,0.54386 20.1523,-1.68744 5.84066,-2.34419 5.90287,-2.57102 -5.52459,3.99305 -1.0676,0.61324 2.12198,-1.26396 3.0851,-2.03092 1.10242,-0.87788 4.25651,-4.15772 5.12927,-5.23557 0.83069,-1.02589 1.53662,-2.1468 2.30493,-3.2202 4.34262,-7.05333 7.40689,-14.73639 8.91581,-22.90984 0.85956,-7.79831 1.07649,-15.63082 -0.31542,-23.39732 -1.35582,-6.23446 -3.86168,-11.56497 -8.55004,-16.04781 -4.81377,-4.16629 -10.35303,-7.26618 -16.26849,-9.62165 -5.81495,-2.04373 -11.70687,-4.13803 -17.83672,-4.96648 -5.18873,-0.45574 -10.4334,-0.27075 -15.60914,0.31261 -3.8464,0.60772 -7.46155,1.70608 -10.94794,3.46925 21.108,-12.50453 7.68966,-5.63328 3.95231,-0.54195 -2.76472,3.71147 -4.20217,8.07843 -6.50742,12.06147 -1.39527,3.30109 -2.57844,6.75149 -3.26213,10.25601 -11.60758,7.75726 -9.27051,8.78341 -18.31325,8.50152 -3.44525,0.002 -6.89052,0.007 -10.33577,4.4e-4 -2.95166,-0.003 -5.90326,-0.022 -8.85493,-0.0257 -2.78313,0.0126 -5.57348,0.0133 -8.33924,0.37046 -3.81944,0.5684 -7.5109,1.63764 -11.1294,2.98581 -5.05369,1.53927 -10.05361,3.14842 -14.67873,5.78312 -4.45932,2.18898 -14.33915,7.59264 5.62507,-3.6121 2.43127,-1.36453 -6.58985,4.49586 -4.03642,3.81678 -2.0744,2.51243 -3.33278,4.93903 -2.68038,8.30624 1.53203,3.33875 3.67287,6.77521 7.35905,7.94225 6.21998,0.15863 17.91361,-7.28021 -2.43303,4.21869 2.83481,-1.82533 6.19234,-3.46568 6.46044,-7.23125 -0.87293,-3.76318 -3.17873,-6.46131 -6.45015,-8.51783 -5.45824,-3.66479 -11.23926,-6.90818 -17.3186,-9.42145 -6.18235,-2.20165 -12.46169,-4.39249 -19.09486,-4.57952 -6.1312,0.21544 -12.32414,0.51306 -18.25309,2.23233 -2.76486,1.01023 -2.27493,0.71188 -4.70328,2.02164 -0.64917,0.35013 -2.55639,1.47268 -1.92132,1.09758 19.34664,-11.42694 10.95402,-6.81041 7.05005,-3.66272 -3.10344,2.39171 -5.42196,5.76022 -7.17664,9.23894 -1.30894,2.91494 -2.42712,5.97015 -1.52659,9.15717 2.58828,6.43112 16.37177,-5.80007 -6.85182,8.20099 2.97414,-1.64724 5.23719,-3.92413 6.64495,-7.07577 0.95789,-3.80132 1.81063,-7.35412 0.69523,-11.2651 -1.14629,-3.83707 -3.87632,-6.17889 -7.33787,-8.09181 -4.700226,-2.52098 -9.629983,-4.33167 -14.895816,-5.28289 -4.907339,-0.98671 -10.166034,-1.86674 -15.082943,-0.58178 -1.967827,0.60833 -3.898532,1.30975 -5.864216,1.92391 -0.632595,0.19765 -2.454851,0.94351 -1.902719,0.57691 4.013847,-2.66504 14.987808,-8.79524 8.940117,-5.40652 -3.06517,2.74353 -5.485125,5.95743 -7.429043,9.58454 -1.29984,3.51478 -2.438942,7.02873 -3.137275,10.72774 0.166044,2.43926 0.226342,5.20928 1.953461,7.11943 4.978626,1.41692 0.562677,-0.0169 -10.801636,7.06328 -0.29016,0.18078 0.739447,-0.0768 0.97193,-0.32742 0.305264,-0.32911 0.791886,-2.38414 0.811095,-2.71894 0.0344,-0.59953 -0.0955,-1.19722 -0.143258,-1.79582 -0.557413,-4.18468 -1.77464,-8.10675 -4.103594,-11.68283 -2.882328,-4.89191 -6.313609,-9.12874 -10.782198,-12.70951 -4.358554,-3.63706 -9.182642,-6.72576 -14.390531,-9.01073 -4.934776,-2.11563 -10.219472,-3.17788 -15.6009878,-2.5407 -5.7167987,1.49834 -11.8968828,5.86038 4.7083428,-4.24436 6.933135,-4.219 -13.87251077,7.85919 -6.7853123,4.36118 -4.0504564,2.953 -8.1488694,6.25394 -10.3369566,10.87334 -1.5892424,3.0176 -0.8243374,6.0274 1.272599,8.65426 2.59663863,2.4531 5.8215214,2.57314 9.2160543,1.92299 5.6016906,-1.2148 9.8260536,-5.01214 -7.24103542,5.29305 -2.08402478,1.25835 6.27338322,-3.25919 4.47096992,-3.40937 2.0119821,-3.64451 1.2148612,-7.71694 0.8916429,-11.73443 -0.6594538,-4.51269 -1.5646835,-8.92999 -5.23105451,-12.0181 -2.83097659,-2.30581 -5.68572819,-4.59771 -9.34277959,-5.41782 -3.1862417,-0.99421 -6.2039127,-1.18531 -9.5084167,-0.50262 -3.5434,0.5711 -6.935486,1.70152 -10.471465,2.2593 -3.46061,-0.008 -6.92125,-0.007 -10.381866,-0.007 -4.262289,-10e-4 -8.524572,-0.0183 -12.786865,-0.005 -4.286483,0.005 -8.572959,-5.1e-4 -12.859432,0.0139 -4.617105,0.001 -9.234176,0.0345 -13.851297,0.0145 -4.85258,-0.0339 -9.712925,-0.11603 -14.530746,-0.76501 -6.190409,-0.93583 -12.281299,-2.42853 -18.200429,-4.48083 0,0 11.70238,-7.93996 11.70238,-7.93996 z" />
    <path
       style="fill:#000000;fill-opacity:1;fill-rule:nonzero;stroke:none"
       id="path2940"
       d="m 342.39229,556.78198 c 6.35309,0.0478 12.70636,0.0145 19.05952,0.003 3.85064,0.41815 7.26872,-0.37832 10.90811,-1.46849 3.07251,-0.90221 6.19192,-1.2258 9.37484,-1.33731 3.91401,-0.11327 7.83093,-0.0853 11.74622,-0.0794 3.69738,0.003 7.39476,0.007 11.09214,0.0145 3.37055,9e-4 6.7411,-0.008 10.11164,-0.005 3.12779,0.48526 5.67542,-0.56538 8.56716,-1.47163 2.67894,-0.92726 5.51812,-1.14396 8.32496,-1.34501 5.45467,-0.22884 5.8789,-1.71179 -10.0971,6.19945 -0.25897,0.12824 0.36412,-0.45955 0.47017,-0.72836 0.29634,-0.75118 0.32673,-1.65781 0.40356,-2.44346 -0.14852,-3.22609 0.5764,-6.24746 1.87786,-9.17935 3.5042,-6.53929 11.65606,-13.11811 19.14279,-12.40171 3.74824,0.13348 7.13744,1.46599 10.64785,2.60731 3.55787,1.018 6.80951,2.9937 9.2965,5.7228 2.37584,3.64738 4.03808,7.51596 4.95299,11.75892 0.73981,3.77965 1.14689,7.52414 0.20534,11.27985 -1.40754,3.46177 -3.86898,6.3123 -6.58717,8.81853 -5.48179,3.88431 -2.33506,1.72692 -14.93545,8.64409 -0.65638,0.36032 -1.3811,0.7864 -2.12711,0.72208 -0.94738,-0.0817 -1.24105,-0.94193 -1.67939,-1.60048 -1.41685,-3.74266 -0.58202,-7.42932 0.60379,-11.1007 1.88529,-5.0437 3.99528,-10.03089 6.53834,-14.78187 2.28053,-4.25687 5.54083,-7.368 9.4923,-10.00413 7.15831,-5.11166 14.1584,-9.62594 22.78778,-10.52186 2.72187,-0.27987 5.45919,-0.23804 8.19087,-0.2255 3.30857,-0.34664 5.86228,1.12199 8.50077,2.92357 3.35962,1.72525 5.74185,4.94293 7.48893,8.21618 2.01779,3.94216 2.17074,8.38676 2.35144,12.71848 0.11102,4.68302 0.11178,9.36813 0.096,14.05223 0.71674,7.85069 -9.05732,12.91223 -16.307,11.66622 -3.19326,-1.66476 -5.25958,-4.5163 -6.58133,-7.78284 -1.42572,-4.43436 -0.58354,-9.02208 0.74044,-13.36814 1.43138,-4.13874 3.07497,-8.26261 5.2918,-12.04788 1.96263,-2.95848 4.17403,-5.81347 6.84999,-8.15814 1.09953,-0.89068 1.65648,-1.4127 2.89358,-2.12585 45.59069,-26.28195 -25.30845,14.275 18.12154,-10.1497 3.45379,-1.24022 6.63744,-1.64259 10.14553,-0.60159 3.52382,1.76008 6.5246,4.35292 9.00526,7.38408 3.47548,3.61639 4.95128,8.02625 6.49073,12.65058 1.73205,4.98377 2.78429,10.03022 2.26552,15.28994 -0.40049,4.38179 -2.37334,7.96759 -5.51605,10.9485 -6.69846,5.27532 -14.09657,10.49455 -22.58293,12.0795 -4.14118,0.79404 -6.77446,-1.57775 -8.19393,-5.21115 -1.486,-4.96388 -0.63769,-9.9272 0.20386,-14.90456 1.20573,-5.17076 2.74093,-10.21335 5.37626,-14.837 2.28292,-3.68169 5.09353,-6.93781 8.70956,-9.33082 7.5208,-4.50527 15.26554,-9.14113 23.89192,-11.19191 3.70428,-1.24122 6.89938,-0.58421 10.50468,0.42155 2.67736,0.50733 4.64573,2.25794 7.15999,3.24186 3.94673,1.00953 8.08055,0.95809 12.12818,1.03591 5.58594,0.064 11.17243,0.0403 16.7586,0.0313 5.63344,0.20696 11.33731,-0.49229 16.91793,0.39675 3.85049,0.86294 7.66669,1.79398 11.60143,2.1629 1.98759,0.14554 3.9804,0.27703 5.97447,0.26124 -13.57704,7.08242 -11.84507,9.15622 -13.77356,-1.07737 -0.57104,-4.14983 -1.86579,-8.15713 -2.72535,-12.25599 -0.63179,-3.65066 -1.21335,-7.19487 0.15667,-10.69779 1.82867,-3.74128 5.37271,-5.98931 8.83999,-8.04083 8.81804,-7.99969 16.16204,-8.17595 25.98061,-10.96815 5.09925,-1.55917 10.40086,-2.08596 15.69652,-2.42041 6.07113,0.53425 12.0372,1.69961 17.9739,3.02727 6.24699,1.43808 11.77271,4.5373 17.41514,7.42372 4.5417,2.84287 8.41284,6.75791 11.24815,11.29456 2.81979,4.3108 4.41667,9.18347 5.2906,14.22033 0.60355,4.6385 0.62128,9.32422 0.6278,13.99348 -0.27547,4.59406 -2.24297,8.59291 -4.72808,12.36313 -5.75546,7.10171 -16.01662,12.28453 -24.11372,15.14525 -5.32664,2.5414 -11.04485,3.72492 -16.86347,4.40008 -5.16619,0.47562 -10.35705,0.51742 -15.5407,0.52336 -4.75406,-0.4192 -8.61119,-2.92432 -12.63193,-5.21052 -3.8885,-2.53608 -7.83515,-5.07335 -11.45115,-7.98259 -3.03635,-2.82115 -6.01722,-5.72975 -8.54913,-9.01587 -1.41361,-2.26317 -2.64113,-4.6155 -3.80413,-7.01346 0,0 12.26292,-6.96289 12.26292,-6.96289 l 0,0 c 1.12053,2.30914 2.31303,4.5658 3.68013,6.7416 2.49901,3.16399 5.40983,6.00417 8.38896,8.7157 3.62219,2.80243 7.41012,5.4263 11.31811,7.81765 3.84579,2.21038 7.63099,4.45221 12.20969,4.60511 5.14248,-0.0273 10.29674,-0.0732 15.4136,-0.64519 5.76873,-0.79519 11.36048,-2.2169 16.66933,-4.67151 6.03631,-2.45452 3.12392,-1.41596 -7.19598,4.74698 -4.95489,2.959 4.80794,-2.79248 5.85185,-3.85232 0.51087,-0.51867 0.92496,-1.12449 1.38745,-1.68673 2.51283,-3.53049 4.59715,-7.20961 5.10793,-11.60106 -0.009,-4.59871 0.0143,-9.21356 -0.52283,-13.78813 -0.77517,-4.87562 -2.24715,-9.5934 -5.01354,-13.73789 -2.70789,-4.33089 -6.43348,-8.04148 -10.82485,-10.66726 -5.5305,-2.87426 -11.0263,-5.80513 -17.18286,-7.1419 -5.85025,-1.28116 -11.77538,-2.43063 -17.7724,-2.67336 -5.26408,0.40518 -10.4965,1.0928 -15.56359,2.64353 -2.25597,0.52639 -4.55337,0.87569 -6.78739,1.49143 -4.93712,1.36076 -13.98879,6.39292 5.21583,-4.19287 -3.34317,1.96925 -7.05982,3.82952 -9.14395,7.24929 -1.77288,3.14544 -1.10718,6.41688 -0.56072,9.88914 0.80647,4.12157 2.12119,8.12884 2.75248,12.27192 1.81161,10.20858 4.96134,6.91874 -10.29017,16.10118 -1.99282,-0.0889 -3.98419,-0.21804 -5.96904,-0.41991 -3.9173,-0.47142 -7.71354,-1.49246 -11.58576,-2.22164 -5.56727,-0.61074 -11.19719,-0.0983 -16.78893,-0.25329 -5.59803,0.009 -11.19658,0.0355 -16.79422,-0.0462 -4.18072,-0.10163 -8.48994,-0.0549 -12.49234,-1.42055 -2.38424,-1.03521 -4.42504,-2.67149 -7.04489,-3.10525 -3.43693,-0.91787 -6.59897,-0.96514 -10.04324,0.16127 -5.65457,1.64519 -21.13461,8.95843 0.52269,-2.49689 -3.80525,2.01568 -6.58672,5.12955 -8.97767,8.68986 -2.82076,4.41435 -4.33594,9.31857 -5.63001,14.37134 -0.80641,4.74594 -1.82761,9.43838 -0.48441,14.20689 1.2073,3.32603 3.60942,4.40553 7.08327,3.51813 1.90863,-0.50404 7.34702,-3.23029 5.04993,-1.83022 -19.36337,11.80193 -10.81036,6.6338 -6.85882,3.66372 3.2358,-2.62602 5.49551,-5.73709 5.97174,-10.01063 0.6556,-5.08249 -0.2345,-9.91507 -1.96888,-14.74594 -1.52338,-4.44603 -2.82503,-8.73418 -6.2535,-12.18715 -2.34257,-2.76713 -5.15477,-5.25938 -8.56086,-6.6183 -3.29024,-0.71053 -6.4818,0.0852 -9.54682,1.39038 36.06619,-21.16149 -29.47463,17.41156 6.17922,-3.77741 1.01515,-0.6033 -4.19425,2.16104 -2.98074,1.91458 -2.74958,2.2053 -5.05747,4.84769 -7.01142,7.77824 -2.55125,3.45577 -3.89589,7.76638 -5.4701,11.72817 -1.46164,3.96923 -2.34354,8.31642 -1.15267,12.46631 1.06503,2.76472 2.82302,5.51276 5.784,6.47625 0.7747,0.0415 2.96466,-0.63987 2.31778,-0.2116 -18.83718,12.47109 -10.1173,9.5318 -10.20815,3.17949 0.0255,-4.67092 0.089,-9.34291 -0.0355,-14.01308 -0.15557,-4.11736 -0.2197,-8.36853 -2.07508,-12.14412 -1.6666,-3.12448 -3.95648,-5.96005 -7.14945,-7.60555 -2.53882,-1.64737 -4.97956,-2.53805 -8.05437,-2.22454 -2.68714,-0.006 -5.3805,0.0154 -8.05096,0.35329 -6.47638,0.99548 -15.17559,6.86347 3.56881,-4.14704 0.60497,-0.35536 -1.22562,0.68332 -1.83843,1.02498 -3.81384,2.69378 -7.51029,5.04631 -9.7592,9.40199 -2.63322,4.65091 -4.74731,9.58151 -6.64695,14.57007 -1.20902,3.22313 -2.12329,6.46121 -1.12851,9.87236 0.52081,0.64094 4.41633,-1.82884 2.62975,-0.75373 -9.09836,5.47513 -14.7847,8.38886 -9.28024,5.53643 2.77679,-2.29542 5.10839,-4.93701 6.91988,-8.05822 1.06494,-3.57113 0.86851,-7.03018 0.13102,-10.69904 -0.81248,-4.00657 -2.33424,-7.64874 -4.60092,-11.07069 -2.4323,-2.52159 -5.54166,-4.17372 -8.90287,-5.13528 -3.39729,-1.14226 -6.77932,-2.23127 -10.41463,-2.21526 -5.56672,0.63674 -1.58794,0.36548 9.6621,-6.43638 0.44507,-0.26909 -0.94259,0.4558 -1.35704,0.77001 -1.31379,0.99604 -2.35771,2.42771 -3.03777,3.90709 -1.61476,2.58413 -2.26545,5.6152 -2.11107,8.64598 -0.41263,7.8205 -5.23708,11.37713 -14.90331,11.76602 -2.75375,0.2384 -5.49216,0.63973 -8.10277,1.59286 -2.91354,0.96992 -5.74809,1.37624 -8.832,1.11622 -3.36394,0.003 -6.72788,-0.007 -10.09181,-0.0106 -3.69628,0.002 -7.39256,-0.005 -11.08882,-0.0171 -3.90536,-10e-4 -7.81291,-0.0251 -11.71555,0.14628 -3.11884,0.2035 -6.18238,0.69542 -9.18277,1.60046 -3.67678,1.01322 -7.27632,1.41544 -11.10222,1.11923 -6.35592,-0.0115 -12.71195,-0.0447 -19.0678,0.003 0,0 11.42846,-8.30326 11.42846,-8.30326 z" />
    <path
       style="fill:#000000;fill-opacity:1;fill-rule:nonzero;stroke:none"
       id="path2944"
       d="m 733.4181,519.19728 c 5.60203,-0.93559 11.23421,-1.69528 16.89684,-2.14203 3.84138,0.14045 7.38298,-1.19294 11.03362,-2.177 3.10106,-0.55001 6.06123,-0.71292 8.96762,-1.95927 2.78326,-1.11096 5.71531,-1.50691 8.67705,-1.75751 2.89989,-0.31834 5.62143,-1.65497 8.49753,-2.34743 3.12895,-0.56747 6.31439,-0.58916 9.48361,-0.6258 2.11765,0.0775 4.20906,-0.008 6.14633,-0.98966 0.48369,-0.24516 1.79656,-1.21076 1.32271,-0.94709 -3.56285,1.98255 -7.06511,4.07208 -10.59766,6.10812 3.15193,-2.49377 6.53447,-4.66546 9.88239,-6.88678 6.22712,-4.69843 12.97378,-8.12935 19.84829,-11.99092 3.37822,-1.89762 -13.44123,7.71597 -10.10329,5.74836 4.67192,-2.75395 9.4037,-5.40505 14.10556,-8.10757 3.52368,-1.73835 7.30142,-2.48422 11.17482,-2.85294 3.85209,0.55797 6.68959,3.01883 9.4743,5.53815 4.03113,3.09209 7.68756,6.76623 10.80329,10.77835 3.18206,3.66992 5.15764,8.03691 7.27064,12.35056 1.67885,3.83941 2.36695,7.98243 2.72395,12.1283 -0.0678,4.02598 -2.18559,7.04582 -4.92952,9.77719 -4.33261,3.69544 -16.19023,13.85957 -19.96031,5.06868 -0.23305,-5.25494 1.79843,-10.73004 3.76112,-15.56315 2.40839,-6.82876 6.49846,-12.72704 10.56898,-18.6347 6.59792,-8.03649 16.4638,-13.76599 26.76909,-15.40407 6.37091,-0.39316 12.98994,0.61689 19.20959,2.06169 5.62995,1.75728 10.81904,4.26555 14.8517,8.6229 3.05873,3.9965 3.8144,8.0689 2.54956,12.87714 -3.04241,8.9209 -9.89891,10.26522 -18.49215,14.82972 -4.01644,-0.84572 -2.38897,-5.26356 -1.07231,-7.72269 3.01315,-6.84188 7.92584,-12.34533 13.25146,-17.47294 9.42924,-8.75851 20.0742,-16.24482 32.39111,-20.47312 6.5961,-2.34657 11.89804,-0.8497 17.62648,2.6998 5.81987,3.93136 9.93692,9.62352 13.46861,15.58391 2.5114,4.22962 4.14607,8.75808 3.56538,13.68774 -2.96162,6.24546 -12.51979,13.75628 -19.20334,9.79624 -3.9348,-2.71384 -2.39434,-7.26462 -1.01911,-11.00419 3.35055,-8.10472 9.76418,-13.81287 16.77077,-18.75845 12.57615,-8.94121 25.05709,-14.02726 40.05489,-15.85332 8.3304,-0.44578 15.9641,2.12169 22.9744,6.40173 5.7478,3.80119 11.0933,7.87351 14.8843,13.6911 2.7771,4.20728 4.5913,8.87673 5.8463,13.73021 3.2501,5.63293 -12.204,15.40278 -11.99,5.49868 0,0 12.6097,-6.41377 12.6097,-6.41377 l 0,0 c 0.06,8.0366 -13.1078,15.97252 -13.0924,7.65282 -1.0979,-4.74139 -2.8232,-9.28331 -5.5373,-13.35816 -3.6616,-5.6297 -8.9406,-9.52156 -14.5056,-13.17458 -6.8678,-4.03289 -14.3229,-6.34848 -22.3865,-5.66987 -6.4224,0.88635 -12.64888,2.08386 -18.6659,4.59946 -1.6006,0.66918 -6.0815,3.27045 -4.71738,2.19859 2.28526,-1.79565 5.01648,-2.93631 7.52471,-4.40446 -7.01557,4.61328 -13.47259,10.11149 -16.98655,17.92989 -1.16921,2.8739 -3.36166,7.0524 0.0861,9.12225 0.73582,0.26372 2.96671,-0.0698 2.31653,0.36407 -26.36859,17.59598 -9.53317,6.50157 -7.68162,3.89007 0.89181,-4.63456 -0.69126,-8.85221 -3.0219,-12.88022 -3.40656,-5.77354 -7.39427,-11.28661 -13.10504,-14.98771 -5.59593,-3.24257 -10.69705,-4.08006 -16.89567,-1.69271 -6.38099,2.39598 -3.973,1.73191 5.28501,-4.09362 1.10663,-0.69633 -2.26055,1.31904 -3.33913,2.05807 -3.69558,2.53219 -6.91359,5.65162 -10.31604,8.54482 -5.33477,4.91058 -10.46532,10.24263 -13.26002,17.05123 -0.69935,1.05056 -3.66262,5.22931 -0.53269,4.8801 -21.06816,12.59043 -8.00901,6.69066 -5.62634,-0.21922 1.60684,-4.26069 0.94825,-7.9299 -1.82532,-11.56482 -3.90916,-4.08442 -8.93704,-6.41403 -14.34084,-7.94616 -6.16019,-1.26996 -12.63465,-2.37638 -18.91099,-1.58959 -6.10467,1.25467 -11.49887,5.36373 4.29534,-4.44792 0.80433,-0.49966 -1.68512,0.87569 -2.4619,1.41718 -2.2023,1.5352 -2.66523,2.30913 -4.45842,4.33318 -4.07977,5.82551 -8.29315,11.59106 -10.68319,18.36584 -2.00587,4.57291 -3.59322,9.59006 -4.12116,14.53844 0.31591,1.08733 1.06983,1.75537 2.30235,1.79373 0.46353,0.0144 1.759,-0.48529 1.37222,-0.22942 -6.53277,4.32175 -14.86225,8.49134 -9.24344,5.65125 2.7372,-2.40193 5.012,-4.85234 5.47588,-8.62813 -0.2876,-3.98286 -0.84879,-7.97772 -2.44919,-11.67307 -2.06061,-4.22974 -3.96408,-8.52482 -7.10045,-12.10796 -3.095,-3.93313 -6.70784,-7.50683 -10.68365,-10.54956 -2.58178,-2.23805 -5.2349,-4.57127 -8.85084,-4.53476 -3.77381,0.46773 -7.4279,1.43087 -10.78878,3.26865 3.35709,-1.95372 13.44033,-7.79421 10.07129,-5.86116 -4.71225,2.70375 -9.33818,5.55959 -14.10097,8.17327 -3.37131,1.85006 6.60439,-3.94175 9.92488,-5.88155 1.33955,-0.78256 -5.26424,3.14783 -3.81853,2.66086 -0.59074,0.40879 -1.18148,0.81757 -1.77223,1.22635 -3.31783,2.26919 -6.87539,4.21487 -9.81802,6.95497 -8.01018,4.6373 -12.85526,9.52419 -21.5442,9.26641 -3.11696,0.0754 -6.26018,0.14321 -9.30285,0.90187 -2.8679,0.7759 -5.61548,2.11221 -8.63023,2.17574 -2.89997,0.3213 -5.73487,0.93425 -8.44206,2.05433 -2.94733,0.9887 -6.04956,1.01754 -9.04497,1.83874 -3.67264,0.99061 -7.29927,2.02807 -11.1502,1.94589 -5.6446,0.49838 -11.26563,1.23579 -16.84262,2.24583 0,0 11.30647,-8.50342 11.30647,-8.50342 z" />
    <path
       style="fill:#000000;fill-opacity:1;fill-rule:nonzero;stroke:none"
       id="path2946"
       d="m 1086.2832,371.89484 c 0.086,12.60481 -0.8897,25.19205 -2.1734,37.72332 -1.8665,17.14252 -4.3291,34.22345 -7.0272,51.2543 -2.6689,17.28255 -5.389,34.56219 -8.5145,51.7691 -3.2532,14.056 -5.8144,28.2563 -8.8067,42.36636 -2.8544,11.95329 -4.9615,24.02369 -7.0147,36.13063 -2.0336,10.25069 -2.9013,20.65357 -3.3875,31.07499 -1.034,9.92784 -2.0866,19.84255 -2.6417,29.81093 -0.451,9.55665 -0.4917,19.12659 -0.5102,28.69196 -0.023,9.77766 10e-5,19.55531 4e-4,29.33297 0,10.82153 -0.01,21.64305 -0.01,32.46458 0.01,8.67374 0.019,17.34744 0.081,26.02099 0.01,2.88015 0.026,5.76039 0.071,8.64024 0.098,5.20282 0.504,0.43091 -12.6815,6.04097 0,0 12.6654,-6.45331 12.6654,-6.45331 l 0,0 c -13.6687,8.11324 -12.7746,12.39665 -12.6815,6.88209 0.045,-2.9039 0.061,-5.80817 0.071,-8.71237 0.062,-8.70089 0.075,-17.40192 0.08,-26.10301 0,-10.81479 -0.011,-21.62958 -0.027,-32.44436 -0.013,-9.77624 -0.018,-19.55249 -0.02,-29.32873 0.036,-9.58826 0.048,-19.18049 0.483,-28.76108 0.5588,-9.96619 1.5359,-19.88542 2.6584,-29.80325 0.4657,-10.47966 1.2866,-20.9546 3.3647,-31.25659 2.0974,-12.12563 4.1038,-24.24287 7.0404,-36.20704 3.054,-14.10746 5.5457,-28.33474 8.9196,-42.37503 3.171,-17.20004 5.91,-34.47819 8.5738,-51.7627 2.7157,-16.98789 5.1248,-34.03638 6.9693,-51.14073 1.2792,-12.43327 2.2915,-24.94476 1.9522,-37.45233 0,0 12.5664,-6.4029 12.5664,-6.4029 z" />
    <path
       style="fill:#000000;fill-opacity:1;fill-rule:nonzero;stroke:none"
       id="path2948"
       d="m 1052.0697,761.41207 c 6.1452,-9.03868 12.7482,-17.7444 19.7232,-26.15534 5.8202,-6.32425 11.2626,-12.99063 17.0408,-19.34676 2.8453,-3.52194 6.4308,-6.30856 9.1681,-9.91632 0.097,-0.17729 0.1937,-0.35459 0.2905,-0.53189 0,0 12.8259,-6.16631 12.8259,-6.16631 l 0,0 c -0.028,0.35407 -0.056,0.70814 -0.084,1.06221 -2.6704,3.79779 -6.2567,6.59826 -9.2403,10.13123 -5.9509,6.2181 -11.1876,13.1214 -17.1764,19.3208 -6.9789,8.2972 -13.5398,16.91297 -19.667,25.86077 0,0 -12.8804,5.74161 -12.8804,5.74161 z" />
    <path
       style="fill:#000000;fill-opacity:1;fill-rule:nonzero;stroke:none"
       id="path2950"
       d="m 1062.8777,710.14158 c 4.4276,-12.33276 11.9471,-23.0858 19.546,-33.62856 8.0678,-10.79545 17.0163,-20.87884 26.205,-30.72155 1.6167,-3.08747 6.1736,-4.80118 7.4355,-8.1085 -0.05,-0.12878 -0.1,-0.25757 -0.1496,-0.38635 0,0 12.4063,-6.98679 12.4063,-6.98679 l 0,0 c 0.1417,0.30424 0.2834,0.60848 0.4251,0.91272 0.5323,3.79829 -5.534,6.31421 -7.232,9.18627 -9.2992,9.79094 -18.3309,19.85414 -26.473,30.64135 -7.5243,10.35542 -14.9925,20.90738 -19.4088,33.03364 0,0 -12.7545,6.05777 -12.7545,6.05777 z" />
    <path
       style="fill:#000000;fill-opacity:1;fill-rule:nonzero;stroke:none"
       id="path2952"
       d="m 1057.4442,641.79588 c 4.4571,-9.56142 10.3547,-18.25107 16.5154,-26.77065 4.9516,-6.70784 10.3775,-13.04246 15.9937,-19.19757 1.1322,-1.26348 2.3311,-2.46536 3.4839,-3.70918 0.7567,-0.42091 -0.2281,-0.67203 -0.9003,-0.80201 0,0 11.8093,-7.93144 11.8093,-7.93144 l 0,0 c 1.4693,0.77461 2.2341,1.63371 2.3032,3.33058 -1.3318,1.10291 -2.4519,2.44413 -3.6766,3.65977 -5.7265,6.10722 -11.2312,12.42791 -16.2562,19.13043 -6.1454,8.39527 -12.1253,16.92574 -16.3959,26.46437 0,0 -12.8765,5.8257 -12.8765,5.8257 z" />
    <path
       style="fill:#000000;fill-opacity:1;fill-rule:nonzero;stroke:none"
       id="path2954"
       d="m 1057.7227,584.85961 c 5.5805,-7.02836 10.4815,-14.65758 15.0637,-22.37603 4.2797,-8.32066 10.1053,-15.59622 15.7554,-22.9961 3.5325,-4.28545 7.5712,-8.12134 11.7498,-11.7674 0.5338,-0.6596 1.75,-1.07039 1.8846,-1.76469 -0.2324,-0.2036 -0.4649,-0.40721 -0.6973,-0.61081 0,0 12.0953,-7.46174 12.0953,-7.46174 l 0,0 c 0.3062,0.30386 0.6124,0.60772 0.9186,0.91157 1.0059,1.73376 0.5399,2.58534 -1.0445,3.59974 -4.2872,3.55623 -8.3652,7.38051 -12.0452,11.56679 -5.6641,7.36329 -11.5885,14.54413 -15.8541,22.85192 -4.5048,7.74853 -9.4464,15.33729 -14.8233,22.4914 0,0 -13.003,5.55535 -13.003,5.55535 z" />
    <path
       style="fill:#000000;fill-opacity:1;fill-rule:nonzero;stroke:none"
       id="path2956"
       d="m 1080.8618,499.34253 c 6.9863,-5.72314 12.9642,-12.52262 19.6362,-18.60202 4.5622,-4.31003 9.7069,-8.04161 13.6666,-12.94475 0.8853,-1.24923 1.8295,-2.50675 2.4088,-3.93702 -0.055,-0.21572 -0.1097,-0.43143 -0.1645,-0.64715 0,0 12.4446,-6.88176 12.4446,-6.88176 l 0,0 c 0.1617,0.39862 0.3235,0.79724 0.4853,1.19586 0.081,1.78695 -1.2877,3.24386 -2.1708,4.6932 -3.8436,5.12904 -9.0285,8.91718 -13.7204,13.23397 -6.6987,6.00854 -12.7029,12.69834 -19.4632,18.62344 0,0 -13.1226,5.26623 -13.1226,5.26623 z" />
    <path
       style="fill:#000000;fill-opacity:1;fill-rule:nonzero;stroke:none"
       id="path2958"
       d="m 1086.6126,444.78459 c 6.1929,-5.37669 11.824,-11.35482 17.5395,-17.22518 5.4441,-6.33061 11.4546,-12.13265 17.4175,-17.96526 4.4527,-3.50568 8.4449,-7.36398 12.1758,-11.61151 0,0 12.9901,-5.47007 12.9901,-5.47007 l 0,0 c -3.8044,4.22682 -7.4837,8.45047 -12.2086,11.73183 -5.9655,5.82626 -12.0701,11.55186 -17.4459,17.93938 -5.6882,5.84283 -11.2353,11.87063 -17.4188,17.1955 0,0 -13.0496,5.40531 -13.0496,5.40531 z" />
    <path
       style="fill:#000000;fill-opacity:1;fill-rule:nonzero;stroke:none"
       id="path2960"
       d="m -95.979956,679.57307 c 2.05864,6.405 4.687646,12.63144 7.998021,18.48997 2.49983,3.68159 6.041871,6.33695 9.849114,8.54172 3.231087,1.50176 6.32251,1.60186 9.661928,0.65148 3.673732,-0.85178 7.268783,-1.46526 10.829572,-2.69288 4.304775,-0.87458 8.170109,-2.93137 12.161868,-4.66627 4.891458,-1.4241 9.447908,-3.66437 14.105398,-5.67835 5.785588,-2.09936 11.309563,-4.73311 17.221215,-6.47991 6.647259,-2.74934 13.69310726,-3.95212 20.8012352,-4.70952 6.1566678,-0.547 12.3423298,-0.55976 18.5179728,-0.57226 5.044997,-0.20702 9.871557,1.23084 14.473817,3.1315 3.713219,1.57817 7.107269,3.96121 10.198064,6.53313 3.050883,1.05839 4.354302,5.7966 7.558367,6.15848 2.412012,-0.99482 4.675331,-2.49245 7.231739,-3.42865 3.124366,-1.96074 6.639099,-2.78375 10.22698,-3.37064 4.477547,-0.49175 8.994748,-0.43092 13.492943,-0.44107 6.062297,0.20245 12.019872,0.0265 18.017512,-0.85529 7.48705,-0.76613 14.88468,-2.04892 22.32886,-3.13205 8.81177,-0.82974 17.52707,-2.35758 26.31841,-3.37121 9.71566,-1.46725 19.36692,-3.29641 29.06906,-4.84164 9.22463,-1.50552 18.15966,-4.16254 27.04043,-7.00454 1.23302,-0.48775 2.46372,-0.98142 3.69907,-1.46325 2.93269,-1.14387 3.96665,-1.42129 6.75358,-2.84287 1.05806,-0.5397 4.14506,-2.32176 3.10559,-1.74707 -9.93376,5.49216 -11.55925,7.32318 -6.31627,2.5883 6.08302,-6.36852 10.00601,-14.16065 12.70611,-22.45293 0.339,-1.45756 0.67801,-2.91513 1.01701,-4.37269 0,0 12.59598,-6.07299 12.59598,-6.07299 l 0,0 c -0.32045,1.49379 -0.6409,2.98758 -0.96134,4.48137 -2.61157,8.45491 -6.41673,16.4082 -12.37543,23.06298 -8.31418,8.64277 -20.2681,13.16328 -31.29689,17.39756 -8.89817,2.81985 -17.88892,5.32599 -27.12183,6.80686 -9.71373,1.59943 -19.39359,3.38526 -29.13565,4.81504 -8.78254,1.0479 -17.50697,2.51551 -26.3071,3.41808 -7.45181,1.14428 -14.88812,2.29336 -22.3792,3.15347 -6.044102,0.80475 -12.079048,0.8403 -18.170886,0.73293 -4.466695,0.0311 -8.965254,-0.016 -13.391171,0.66876 -3.555076,0.69077 -6.868246,1.91989 -10.077753,3.60758 -2.546356,1.06575 -4.952513,3.19615 -7.830096,2.65123 -3.110854,-1.53018 -4.702024,-4.96468 -7.781576,-6.63237 -3.059682,-2.43011 -6.321874,-4.72097 -9.966445,-6.1838 -4.497593,-1.80436 -9.235634,-2.93073 -14.119719,-2.70808 -6.137016,0.0236 -12.2858081,0.0574 -18.3981093,0.67551 -7.0693507,0.84457 -13.9994437,2.27944 -20.6421147,4.9183 -5.849165,1.88204 -11.411551,4.47741 -17.160397,6.63828 -4.63618,2.07475 -9.306526,4.03154 -14.110821,5.68707 -3.995369,1.80266 -7.998259,3.55408 -12.276097,4.58757 -3.574841,1.16301 -7.29291,1.6133 -10.917118,2.60654 -3.560812,0.717 -7.049855,0.11769 -10.292147,-1.55344 -3.939385,-2.434 -7.592298,-5.28543 -10.14904,-9.21616 -3.33734,-5.942 -5.95382,-12.25981 -8.18997,-18.69154 0,0 12.387324,-6.82224 12.387324,-6.82224 z" />
    <path
       style="fill:#000000;fill-opacity:1;fill-rule:nonzero;stroke:none"
       id="path2962"
       d="m -2.529176,852.91616 c 4.1984798,-9.583 8.2376519,-19.23378 12.3591704,-28.85084 3.3754796,-8.74735 6.0671376,-17.74953 8.8498536,-26.70019 1.810118,-6.99261 3.187245,-14.08855 4.707322,-21.1521 2.241528,-10.94473 -4.613508,-3.13104 11.88844,-10.98636 -1.962877,6.30567 -3.138054,12.86827 -4.277386,19.37177 -1.433807,9.21823 -1.66451,18.56371 -1.844696,27.87369 -0.317147,7.93059 1.01816,15.80101 1.985534,23.64811 0.3502,1.74132 0.263141,8.45347 3.266114,7.82906 -21.077454,11.03069 -13.479559,8.0576 -9.656645,4.66219 0,0 13.084373,-5.49312 13.084373,-5.49312 l 0,0 c -3.537063,4.75616 -10.169133,6.234 -15.056779,9.02878 -3.596214,-1.35674 -3.722101,-6.21 -4.109532,-9.48755 -0.880631,-7.93006 -2.260063,-15.86569 -1.979429,-23.86677 0.191706,-9.36322 0.39088,-18.75957 1.717522,-28.04526 1.106559,-6.5697 2.335566,-13.14434 4.016148,-19.58875 10.840217,-7.57237 16.185559,-14.59415 13.63774,-1.0699 -1.507985,7.11627 -3.024195,14.22792 -4.724888,21.29702 -2.738891,9.01608 -5.591667,18.02124 -8.843239,26.86553 -4.153963,9.5547 -8.172962,19.16156 -12.196404,28.77205 0,0 -12.823219,5.89264 -12.823219,5.89264 z" />
    <path
       style="fill:#000000;fill-opacity:1;fill-rule:nonzero;stroke:none"
       id="path2964"
       d="m 75.159682,831.45931 c 1.458765,13.75706 -0.227625,27.59678 -1.279054,41.32343 -0.769649,7.60037 -1.693769,15.18367 -2.593503,22.76933 0,0 -12.403949,6.12908 -12.403949,6.12908 l 0,0 c 0.975219,-7.57828 1.92993,-15.15944 2.721713,-22.75965 1.009007,-13.56931 2.754639,-27.29356 1.061813,-40.87176 0,0 12.49298,-6.59043 12.49298,-6.59043 z" />
    <path
       style="fill:#000000;fill-opacity:1;fill-rule:nonzero;stroke:none"
       id="path2966"
       d="m 340.57905,625.83363 c 0.34362,6.88888 2.01019,13.61553 4.26879,20.10636 1.84512,4.42362 4.06953,8.72334 6.65824,12.76208 1.99437,3.44993 5.16653,5.26696 8.5467,7.11927 2.9169,1.7067 6.19383,2.08063 9.4925,2.31153 3.13805,0.14161 6.28056,0.11411 9.42077,0.0911 3.42489,-0.0164 6.84983,-0.0128 10.27474,-0.0225 3.78544,-0.003 7.57088,0.005 11.35631,-0.002 4.57882,0.43343 8.94027,-0.56626 13.40638,-1.38109 4.88229,-0.91546 9.82545,-1.2367 14.78029,-1.38875 5.77307,0.10877 11.43523,-0.12589 17.14285,-0.96975 6.30188,-1.0391 12.66659,-1.52817 19.04162,-1.79507 4.57654,-0.50537 8.63155,0.0451 12.43379,2.67449 3.16075,2.30254 4.61759,5.43382 5.47765,9.13954 0.61002,3.09028 0.63158,6.25327 0.63885,9.39112 0.2401,2.66188 2.15083,2.00956 4.24485,1.87577 3.70062,-0.64195 7.2418,-1.97674 11.01409,-2.4869 5.81128,-1.77535 11.87039,-2.32094 17.79411,-3.53056 7.0423,-1.45831 14.16718,-2.2997 21.24842,-3.53058 8.54883,-1.3435 16.98927,-3.44077 25.27014,-5.939 9.33192,-2.50816 18.56081,-5.583 27.3334,-9.65035 7.44713,-2.84672 14.50898,-6.56425 21.79086,-9.77584 4.3664,-2.44426 15.11989,-7.29959 -5.39969,3.17735 -0.52933,0.27027 0.9215,-0.75182 1.36042,-1.15255 1.02257,-0.93358 0.91819,-0.90205 1.68839,-1.98041 0.70686,-1.14401 0.76879,-2.16101 0.68479,-3.46001 0,0 12.55251,-6.60186 12.55251,-6.60186 l 0,0 c 0.28368,1.57433 0.42064,2.77868 -0.27299,4.27523 -3.55681,7.89443 -14.37931,10.38933 -21.64666,14.49313 -7.20812,3.29876 -14.34912,6.74636 -21.70645,9.71343 -8.86636,3.91119 -18.09637,6.98259 -27.45191,9.49762 -8.35099,2.40117 -16.80357,4.53669 -25.40278,5.84103 -7.0823,1.2498 -14.22949,2.04801 -21.2629,3.57496 -5.97295,1.10861 -11.9903,1.959 -17.87216,3.53023 -3.76033,0.69832 -7.36619,2.15768 -11.19184,2.3901 -2.85217,-0.0107 -4.93264,-0.65715 -5.41126,-3.81915 -0.004,-3.04624 0.0319,-6.11449 -0.48405,-9.12758 -0.70772,-3.39804 -1.96238,-6.18765 -4.93495,-8.19849 -3.6336,-2.31233 -7.65085,-2.33647 -11.85291,-1.99002 -6.34412,0.30642 -12.67029,0.86445 -18.94302,1.89091 -5.74708,0.78758 -11.47964,0.85751 -17.27535,0.883 -4.91378,0.20369 -9.81348,0.61213 -14.64965,1.54886 -4.51661,0.84119 -8.98718,1.5368 -13.60316,1.20621 -3.78624,-0.007 -7.5725,10e-4 -11.35874,0.006 -3.43041,2.7e-4 -6.86081,0.019 -10.29115,0.0392 -3.16112,0.003 -6.32627,0.0279 -9.48133,-0.20227 -3.44889,-0.34109 -6.81265,-0.98293 -9.81902,-2.82297 -3.52704,-2.03478 -6.81957,-4.06871 -8.90717,-7.71669 -2.60773,-4.15387 -4.89952,-8.54115 -6.75352,-13.07886 -2.33076,-6.62051 -3.92123,-13.50189 -4.53547,-20.50233 0,0 12.58667,-6.41323 12.58667,-6.41323 z" />
    <path
       style="fill:#000000;fill-opacity:1;fill-rule:nonzero;stroke:none"
       id="path2968"
       d="m 420.86176,845.05682 c 6.93112,-5.82753 12.20773,-13.21725 17.38461,-20.56712 5.99384,-9.15278 10.76341,-19.10044 15.32119,-29.03526 3.62448,-7.85323 6.47372,-16.04125 9.22149,-24.23529 0.66068,-3.12829 2.13598,-6.12099 3.57605,-8.84834 4.08569,-1.59269 8.00178,-3.71879 12.25706,-4.77806 0.21696,-0.054 -0.48488,0.89501 -1.39004,4.30187 -0.84843,3.19333 -1.58138,6.43121 -2.37708,9.63894 -1.54276,8.18689 -2.72308,16.44346 -3.98092,24.68289 -1.16355,7.46947 -1.5009,15.02227 -1.68732,22.56791 0.42927,5.90826 1.2569,11.778 2.99085,17.44449 1.7265,3.95637 4.57221,6.92351 8.95758,7.28019 0.31865,1.18131 5.86979,-2.25475 4.32956,-1.40974 -11.50515,6.31198 -13.8816,9.38426 -9.99061,4.85397 0,0 13.02071,-5.58794 13.02071,-5.58794 l 0,0 c -4.08426,5.85042 -11.71398,10.50163 -18.94917,10.30205 -4.66443,-0.99876 -7.86893,-4.33169 -9.74975,-8.65915 -1.78103,-5.81495 -2.62429,-11.81732 -3.1461,-17.8753 0.19126,-7.60377 0.48499,-15.22086 1.6549,-22.74913 1.25187,-8.26971 2.49545,-16.53432 3.88746,-24.77716 0.37993,-1.56786 2.65882,-13.26991 3.61885,-13.9437 4.1978,-2.94617 8.79169,-5.28317 13.18754,-7.92476 0.83342,3.14916 -4.06716,6.11928 -3.47091,9.5058 -2.81689,8.24005 -5.67255,16.4924 -9.28595,24.4221 -4.54196,9.99927 -9.35338,19.98004 -15.22124,29.26682 -5.11252,7.39503 -10.3356,14.79051 -17.03608,20.85768 0,0 -13.12268,5.26624 -13.12268,5.26624 z" />
    <path
       style="fill:#000000;fill-opacity:1;fill-rule:nonzero;stroke:none"
       id="path2970"
       d="m 513.28313,861.20852 c 6.13579,-2.38337 12.36606,-5.57058 19.02075,-6.04119 4.26961,0.014 5.17733,3.15916 4.69697,6.7925 -1.28132,4.51661 -3.75386,8.60065 -6.11012,12.6311 -1.69534,2.56882 -3.8372,4.93654 -1.58922,7.74368 2.71483,2.47807 5.6279,4.68688 8.79715,6.54328 3.31666,1.58524 6.98893,1.97057 10.61208,2.16179 2.53579,0.0823 5.0743,0.0929 7.61043,0.0202 -3.90714,2.03089 -7.81427,4.06177 -11.72141,6.09266 0,0 12.93901,-5.87136 12.93901,-5.87136 l 0,0 c -4.24361,2.72295 -8.48721,5.44591 -12.73082,8.16886 -2.53996,-2.6e-4 -5.08095,-0.028 -7.61802,-0.15784 -3.78529,-0.30902 -7.58975,-0.88848 -10.97477,-2.72497 -3.26485,-2.0021 -6.36594,-4.29311 -9.10076,-6.98378 -2.51917,-3.4002 -1.6479,-6.09683 0.85632,-9.26897 2.39861,-3.86273 4.65297,-7.89114 6.31095,-12.12449 0.62976,-3.33495 0.71882,-4.75989 -3.32121,-4.59217 -6.54003,0.97841 -12.7079,3.79437 -18.71386,6.43888 0,0 11.03653,-8.82818 11.03653,-8.82818 z" />
    <path
       style="fill:#000000;fill-opacity:1;fill-rule:nonzero;stroke:none"
       id="path2972"
       d="m 749.15048,625.83363 c 0.34065,7.11697 1.87167,14.15103 4.26813,20.84966 1.76126,4.23365 4.19242,7.68698 8.45043,9.51309 3.43673,0.85885 7.02777,0.70695 10.54335,0.69679 4.65832,0.41422 8.84663,-1.26544 13.13264,-2.81366 5.6244,-2.40955 11.01751,-5.29659 16.55075,-7.89827 6.41986,-2.3706 12.76102,-4.97756 19.29185,-7.03102 5.82932,-2.15591 11.71653,-4.13523 17.60446,-6.13059 4.63202,-1.26535 9.56471,-2.23831 14.35024,-1.50413 3.86211,0.94355 7.34323,3.18301 10.71057,5.25369 2.42375,2.01531 4.59231,4.52126 4.20471,7.83805 -0.6321,4.6168 -13.61523,8.17975 -12.70289,6.04787 1.94636,-4.54814 10.53229,-7.46685 16.1989,-8.08809 3.78548,-1.5672 7.73082,-2.19931 11.78815,-2.51988 6.61613,0.0296 13.10455,-0.8586 19.63839,-1.77673 7.68958,-0.76301 15.24716,-2.70272 22.52445,-5.26191 6.59719,-2.28604 13.00552,-5.15228 19.21361,-8.34428 -3.04527,1.73422 -12.16425,6.96606 -9.13579,5.20265 35.17944,-20.48418 9.34644,-5.17947 5.75608,-3.34417 -2.19669,1.12289 3.61561,-2.65609 6.49078,-5.36964 3.11723,-3.0687 4.64033,-6.76338 5.37349,-10.98661 0.39812,-2.98067 0.38304,-5.99489 0.34103,-8.9955 -0.0617,-2.05836 0.1232,-4.1166 -0.31221,-6.13592 0,0 12.48011,-6.75626 12.48011,-6.75626 l 0,0 c 0.6047,2.11218 0.46068,4.24064 0.48428,6.43022 0.0164,3.07505 0.0702,6.16224 -0.28045,9.22271 -0.60339,4.45554 -1.94252,8.4535 -5.0419,11.84283 -6.55311,6.50783 -12.56517,9.25641 -21.31376,14.36248 -1.92905,1.12588 38.41893,-22.34128 -5.82304,3.3154 -6.2702,3.08307 -12.6592,5.9776 -19.30284,8.1662 -7.38264,2.41376 -14.95526,4.31289 -22.70387,5.0676 -6.5583,0.91962 -13.09578,1.59743 -19.72091,1.76275 -4.05076,0.46475 -7.90826,1.4422 -11.79588,2.64571 -0.87242,0.19758 -3.33307,1.23176 -2.57418,0.75824 34.18661,-21.33145 -9.99282,7.92511 -2.4136,-1.10511 1.1951,-2.56932 -1.45751,-4.79923 -3.26361,-6.29961 -3.22849,-1.96549 -6.58044,-4.09683 -10.34992,-4.74917 -4.72291,-0.31227 -9.45806,0.54803 -13.95516,1.98081 -5.87346,1.99314 -11.74599,3.9846 -17.58084,6.08675 -6.4794,2.15246 -12.86411,4.61743 -19.18739,7.18738 -5.51686,2.68093 -10.97009,5.50634 -16.66344,7.8053 -4.38019,1.56198 -8.74166,2.8362 -13.45489,2.44894 -3.66499,-0.003 -7.44275,0.1115 -10.92932,-1.19105 -4.39344,-2.25322 -7.04337,-5.99288 -8.94105,-10.51292 -2.45936,-6.83651 -3.91189,-14.02237 -4.53614,-21.25737 0,0 12.58668,-6.41323 12.58668,-6.41323 z" />
    <path
       style="fill:#000000;fill-opacity:1;fill-rule:nonzero;stroke:none"
       id="path2974"
       d="m 797.72273,836.28818 c 7.13844,-8.27525 11.30077,-18.60132 15.51639,-28.55644 5.56292,-14.41198 9.57854,-29.33408 13.17632,-44.33634 1.79806,-9.04308 5.79874,-17.90908 5.8233,-27.24266 -0.10643,-0.096 -0.25383,-0.41561 -0.31928,-0.28808 -1.81599,3.53796 7.23138,-3.31553 10.90205,-4.84563 0.78562,-0.32748 -1.05704,1.33752 -1.51994,2.05178 -1.17094,1.80676 -2.24064,4.06005 -3.20134,5.95344 -3.74261,9.0514 -6.72706,18.42788 -9.0319,27.94414 -1.99584,10.00239 -3.82395,20.01381 -4.85173,30.16513 -0.52556,8.0759 -1.20989,16.2157 -0.54005,24.29811 0.65401,5.17257 2.00885,10.26279 6.47347,13.30375 4.77631,2.28823 9.84008,2.05969 14.914,1.25147 2.60296,-0.34411 5.28619,-1.04927 7.67448,-2.17748 0.69926,-0.33033 2.66432,-1.57041 1.98374,-1.20314 -10.23857,5.52527 -13.16113,8.09873 -8.38358,4.17521 1.56801,-1.38555 2.48554,-3.25367 3.54078,-5.0188 0,0 12.94247,-5.7171 12.94247,-5.7171 l 0,0 c -1.15571,1.81482 -1.93682,3.80744 -3.38133,5.42667 -7.156,6.38969 -16.098,11.53709 -25.66179,12.96274 -5.34263,0.68764 -10.73155,0.57335 -15.56261,-2.12691 -4.57952,-3.52282 -6.34114,-8.7535 -6.9961,-14.39034 -0.76734,-8.16377 -0.0194,-16.40215 0.48925,-24.56606 0.98812,-10.21596 2.86741,-20.27106 4.79481,-30.34563 2.22708,-9.59781 5.29431,-18.98864 8.80864,-28.19037 2.7637,-5.72082 12.6827,-23.69253 19.54369,-15.08145 -0.0977,9.50981 -4.00931,18.51437 -6.02048,27.69624 -3.60247,15.05058 -7.59342,30.02615 -13.05622,44.52548 -4.11871,9.96176 -8.15211,20.36806 -15.05411,28.77692 0,0 -13.00293,5.55535 -13.00293,5.55535 z" />
    <path
       style="fill:#000000;fill-opacity:1;fill-rule:nonzero;stroke:none"
       id="path2976"
       d="m 887.84114,837.21268 c 5.6679,0.80347 11.52761,2.16046 15.73572,6.24835 2.58395,4.00547 -0.2605,7.82818 -2.65997,11.13448 -2.73952,3.52615 -5.34767,7.09687 -7.77789,10.83977 -2.05794,2.0925 -1.7128,4.79731 -2.35795,7.43511 -2.13337,10.61197 -13.71306,13.22646 -22.3382,17.71846 -1.77989,0.20146 -3.55978,0.40291 -5.33967,0.60436 0,0 11.15349,-8.34582 11.15349,-8.34582 l 0,0 c 1.74206,-0.29754 3.48412,-0.59507 5.22618,-0.8926 -2.75701,1.81995 -5.57239,3.55444 -8.27105,5.45985 -0.85301,0.60228 1.87415,-0.93971 2.72549,-1.54435 1.85922,-1.32044 3.06134,-3.06907 3.70112,-5.23057 0.15902,-0.53725 0.22704,-1.09735 0.34055,-1.64602 0.72425,-2.69518 0.22519,-5.73749 2.1764,-7.90615 2.65228,-3.57675 4.83976,-7.5263 7.78722,-10.90835 1.99424,-2.5197 5.37856,-5.91803 3.5876,-9.28936 -4.14092,-3.79226 -9.86467,-4.82404 -15.27016,-5.55177 0,0 11.58112,-8.12539 11.58112,-8.12539 z" />
    <path
       style="fill:#000000;fill-opacity:1;fill-rule:nonzero;stroke:none"
       id="path2978"
       d="m 225.14748,590.7711 c 5.44035,-4.69437 10.61412,-9.67101 15.2467,-15.16794 4.51186,-5.28134 8.30179,-11.06748 11.88952,-16.99536 6.5267,-11.51572 4.64916,-8.80704 19.33537,-17.06618 3.47715,1.1514 3.87903,4.48334 4.35428,7.68214 0.40715,3.93368 0.36746,7.89469 0.37895,11.84408 0.0711,1.57208 1.34922,7.37093 3.69628,5.08994 -18.88653,10.25653 -12.97024,8.64466 -9.91087,4.66231 2.15384,-2.80363 3.83712,-6.05971 5.80397,-9.00191 3.13505,-4.02171 5.48795,-8.82447 9.58097,-11.97241 4.63752,-2.36992 9.07868,-5.17154 13.91256,-7.10976 3.60188,-1.44422 7.9023,12.0625 8.4814,13.78431 3.68699,9.39692 3.90694,21.18299 11.38966,28.60733 0,0 -12.00789,7.32001 -12.00789,7.32001 l 0,0 c -7.25079,-7.9775 -7.91462,-19.42948 -11.60676,-29.18336 -1.22399,-3.53751 -2.15571,-7.59502 -4.61446,-10.54641 -0.39632,-0.47572 -0.84603,-0.94585 -1.40186,-1.21867 -0.47262,-0.23198 -1.98309,0.0797 -1.56173,-0.23598 3.32147,-2.4882 7.06549,-4.35568 10.59824,-6.53352 -4.61627,2.28358 -6.62535,7.64832 -9.85018,11.44493 -7.35089,10.76952 -4.98885,11.15987 -20.09128,18.63484 -3.58736,-0.40784 -4.53879,-4.21006 -5.03537,-7.31403 0.0173,-3.88903 0.0416,-7.78798 -0.29427,-11.66572 -0.24703,-1.90169 -0.20729,-5.94453 -3.01734,-5.53949 3.69389,-2.22059 7.38777,-4.44118 11.08166,-6.66177 -0.34784,0.24904 -0.74719,0.43856 -1.04351,0.74711 -2.35659,2.45395 -3.3755,5.81022 -5.31892,8.53962 -3.61389,5.95788 -7.27421,11.87524 -11.82403,17.18711 -4.51497,5.61966 -9.74093,10.54888 -15.04841,15.40255 0,0 -13.12268,5.26623 -13.12268,5.26623 z" />
    <path
       style="fill:#000000;fill-opacity:1;fill-rule:nonzero;stroke:none"
       id="path2980"
       d="m 634.28333,547.60309 c 1.7052,-5.27045 4.04026,-10.31106 6.40564,-15.31151 0.65968,-1.59977 1.48707,-3.0212 2.64073,-4.3054 4.41232,-4.62764 11.89134,-11.65639 16.01963,-5.21451 0.80708,2.67361 1.46304,5.3122 2.46121,7.93861 1.17634,2.86866 0.92913,6.07722 1.81702,8.99327 3.20938,6.67198 6.42462,0.86476 -10.22683,8.57397 0.2899,-3.11955 1.01762,-6.09907 2.28834,-8.96696 2.61735,-6.08583 10.86782,-15.99912 17.76005,-10.4935 3.83014,3.01858 6.80666,7.09779 9.19443,11.31625 2.22458,3.87791 3.51652,8.24795 6.26161,11.80087 0.34009,0.1124 0.68017,0.22479 1.02026,0.33718 0,0 -11.87158,7.78627 -11.87158,7.78627 l 0,0 c -0.44638,-0.29529 -0.89276,-0.59059 -1.33914,-0.88589 -2.69565,-3.66653 -4.10067,-8.02613 -6.28414,-12.00111 -2.28702,-4.04011 -5.17355,-7.93556 -8.93795,-10.71329 -4.93918,-2.55832 -1.03376,-0.16859 10.22905,-7.37784 0.27934,-0.1788 -0.71419,0.0434 -0.95823,0.26803 -1.07489,0.98934 -1.14439,3.07923 -2.14787,4.13983 -1.59113,2.59985 -2.27292,5.65988 -2.38358,8.68752 -11.08727,6.81281 -11.30257,12.05022 -15.04168,4.37003 -0.99614,-2.87808 -0.67618,-6.05847 -1.78112,-8.94033 -0.95464,-2.53813 -1.77743,-5.02191 -2.33597,-7.66543 -0.32158,-0.49599 -1.60631,-1.03517 -1.12164,-1.37358 19.4065,-13.55014 14.09025,-9.5096 10.51498,-6.06113 -1.20423,1.20021 -2.27908,2.27746 -2.87173,3.93041 -2.45243,4.91814 -4.87405,9.90014 -6.5111,15.15669 0,0 -12.80039,6.01155 -12.80039,6.01155 z" />
    <path
       style="fill:#000000;fill-opacity:1;fill-rule:nonzero;stroke:none"
       id="path2982"
       d="m 458.30576,402.43022 c 2.77659,10.39356 3.69224,21.16511 5.13904,31.79911 1.51649,11.84327 2.15306,23.7678 2.62681,35.68991 -0.13871,2.69816 0.28575,5.27505 0.98829,7.8537 0,0 -12.44155,6.75688 -12.44155,6.75688 l 0,0 c -0.71929,-2.70438 -1.21185,-5.39323 -0.98371,-8.22173 -0.31489,-11.9008 -0.92919,-23.80432 -2.45246,-35.61975 -1.43846,-10.51705 -2.3559,-21.19749 -5.26374,-31.43589 0,0 12.38732,-6.82223 12.38732,-6.82223 z" />
    <path
       style="fill:#000000;fill-opacity:1;fill-rule:nonzero;stroke:none"
       id="path2984"
       d="m 510.23907,431.15648 c -10.76424,7.65885 -22.32715,14.06735 -33.77325,20.62409 -3.14667,1.91264 -6.47133,3.48494 -9.68903,5.27007 -0.89667,0.49746 -3.57313,2.01408 -2.68126,1.50806 10.98927,-6.23497 12.56157,-7.18418 7.14572,-3.98433 -4.15556,2.41965 -8.10334,5.17716 -11.99534,7.99429 -2.69385,2.29755 -0.087,2.3188 2.09767,2.56218 4.94157,1.52181 10.05096,2.22105 15.18401,2.67295 4.67695,1.03927 9.32944,2.11259 14.06711,2.8469 3.06411,1.31588 6.36238,2.01826 9.41504,3.32302 1.87806,0.85008 3.73647,1.7512 5.52668,2.77514 0.0822,0.0496 0.16448,0.0993 0.24672,0.14889 0,0 -11.97741,7.7525 -11.97741,7.7525 l 0,0 c -0.0749,-0.0443 -0.14974,-0.0885 -0.22461,-0.13281 -1.72353,-0.99182 -3.50545,-1.88399 -5.34128,-2.64935 -3.05437,-1.0951 -6.14341,-2.12004 -9.24355,-3.07652 -4.67927,-0.81621 -9.2769,-1.98014 -13.95049,-2.80938 -5.16736,-0.51806 -10.26054,-1.38841 -15.29043,-2.69597 -2.90793,-0.55003 -6.26854,-2.22086 -3.65094,-5.46637 3.70564,-3.0741 7.94811,-5.55096 11.97502,-8.19193 9.77658,-5.53469 19.3372,-11.44113 29.2949,-16.65076 -2.82166,1.65752 -5.62093,3.35376 -8.46499,4.97256 -1.25151,0.71234 2.45257,-1.50998 3.68635,-2.25262 4.93168,-2.96849 9.83426,-6.00697 14.49263,-9.3951 0,0 13.15073,-5.14551 13.15073,-5.14551 z" />
    <path
       style="fill:#000000;fill-opacity:1;fill-rule:nonzero;stroke:none"
       id="path2986"
       d="m 537.12229,468.8685 c -2.93239,8.64962 -5.798,17.31298 -9.27305,25.76378 -0.42315,0.98257 -0.8463,1.96513 -1.26945,2.9477 0,0 -12.79186,5.8622 -12.79186,5.8622 l 0,0 c 0.44313,-0.98237 0.88627,-1.96474 1.3294,-2.94711 3.56896,-8.3497 6.44108,-16.94054 9.25046,-25.5688 0,0 12.7545,-6.05777 12.7545,-6.05777 z" />
    <path
       style="fill:#000000;fill-opacity:1;fill-rule:nonzero;stroke:none"
       id="path2992"
       d="m 60.579053,411.54791 c -1.131823,10.72875 -1.926285,21.4793 -2.423246,32.25526 -0.722215,8.23286 -1.975305,16.40403 -2.766756,24.62961 -0.157063,2.69038 -0.556687,5.39778 -0.46688,8.09956 -4.233099,1.71722 -8.466198,3.43444 -12.699296,5.15165 0,0 12.651679,-6.44881 12.651679,-6.44881 l 0,0 c -4.23178,2.57078 -8.46356,5.14156 -12.695339,7.71233 0.356335,-2.72302 0.09327,-5.52644 0.58641,-8.24189 0.868969,-8.232 2.121709,-16.41369 2.971316,-24.64812 0.514574,-10.71615 1.23265,-21.41572 2.255435,-32.09636 0,0 12.586677,-6.41323 12.586677,-6.41323 z" />
    <path
       style="fill:#000000;fill-opacity:1;fill-rule:nonzero;stroke:none"
       id="path2994"
       d="m 102.27727,425.57904 c -4.848371,5.34071 -9.874378,10.45116 -15.277078,15.22471 -6.579041,5.16277 -13.593326,10.61654 -21.774181,12.77667 -5.97258,3.39463 10.09694,-5.73901 10.373118,-5.88886 0.369029,-0.20022 -0.757527,0.73964 -0.577928,1.11914 0.236287,0.49928 1.34849,0.8156 1.665093,0.94765 3.092774,1.39517 6.374797,2.44175 9.416478,3.94769 3.627092,1.61042 5.846559,4.88387 8.215211,7.90407 1.836699,2.63803 2.810783,5.64589 3.268155,8.79681 0,0 -12.568371,6.61024 -12.568371,6.61024 l 0,0 c -0.332932,-2.92364 -1.153016,-5.71872 -2.863887,-8.15592 -2.242898,-2.88284 -4.365558,-5.89574 -7.865423,-7.33788 -3.136831,-1.37959 -6.354576,-2.57205 -9.475051,-3.99608 -8.41478,-5.24883 5.733215,-11.23632 11.658694,-12.6368 4.622137,-1.6084 10.305915,-5.43084 -8.337899,5.36509 -3.643184,2.10963 9.471123,-5.62572 5.831283,-4.13998 5.326674,-4.79077 10.504141,-9.64027 15.308854,-14.9812 0,0 13.002932,-5.55535 13.002932,-5.55535 z" />
    <path
       style="fill:#000000;fill-opacity:1;fill-rule:nonzero;stroke:none"
       id="path2996"
       d="m 114.86559,476.28818 c 7.28389,-7.91638 16.69263,-14.72323 27.41991,-16.7237 4.09841,0.0772 5.83059,3.15195 6.62805,6.73624 0.79278,3.84718 -0.13934,7.16661 -2.02931,10.50261 -1.60664,2.71088 -2.3143,2.43617 0.49323,2.7688 3.06193,-0.007 5.85712,0.0797 8.75555,1.09907 2.05536,0.63035 4.12316,1.22054 6.20253,1.7665 0,0 -11.75312,8.06239 -11.75312,8.06239 l 0,0 c -2.06422,-0.60403 -4.12696,-1.21351 -6.18052,-1.85303 -2.85211,-0.83282 -5.75098,-0.54806 -8.67564,-0.93853 -2.96799,-0.74933 -3.90431,-2.69132 -1.79653,-5.16886 1.94416,-3.01171 3.20905,-5.88059 2.47791,-9.54645 -0.56147,-3.0691 -1.83854,-5.34185 -5.37311,-4.88829 -4.80649,1.15601 -13.81789,5.51436 4.48003,-4.10974 4.72728,-2.48639 -12.06147,7.91736 -7.64605,6.73764 0,0 -13.00293,5.55535 -13.00293,5.55535 z" />
    <path
       style="fill:#000000;fill-opacity:1;fill-rule:nonzero;stroke:none"
       id="path2998"
       d="m 830.02327,359.48769 c 3.82992,8.08675 5.49984,16.88947 6.62493,25.69738 0.96769,8.88915 1.02715,17.84234 1.06943,26.77372 0.47462,7.34548 -0.59365,14.57243 -1.66398,21.809 -0.43145,3.00675 -0.79895,6.02348 -1.06594,9.04946 0,0 -12.75619,6.34368 -12.75619,6.34368 l 0,0 c 0.32886,-3.06937 0.74121,-6.1293 1.16726,-9.18644 1.14534,-7.17987 2.32034,-14.35276 1.85456,-21.65725 -0.0436,-8.88373 -0.0637,-17.78725 -0.97308,-26.63443 -1.06759,-8.64532 -2.60135,-17.33646 -6.53867,-25.20212 0,0 12.28168,-6.993 12.28168,-6.993 z" />
    <path
       style="fill:#000000;fill-opacity:1;fill-rule:nonzero;stroke:none"
       id="path3000"
       d="m 887.99155,382.7219 c -5.73229,7.01876 -12.47244,13.1401 -19.44079,18.90141 -4.27112,3.39913 -8.66818,6.67852 -13.31341,9.55558 -2.99142,1.82179 -1.34693,4.33076 0.24931,6.55022 1.83724,2.46833 4.25142,4.36329 6.8357,6.00031 2.72633,1.12986 5.55447,1.44306 8.27244,2.61045 2.45339,0.71032 4.45858,2.42955 6.22491,4.22011 0.35277,1.11001 0.2965,0.56904 0.23254,1.61502 0,0 -13.19929,5.40052 -13.19929,5.40052 l 0,0 c 0.60262,0.30187 0.33004,0.16219 0.819,0.41653 -1.66151,-1.6873 -3.56051,-3.10263 -5.87064,-3.76571 -2.77705,-1.08132 -5.82251,-1.27631 -8.41996,-2.8354 -2.67269,-1.79706 -5.1974,-3.82083 -7.08956,-6.45683 -1.80396,-2.50277 -4.05744,-6.01995 -1.27876,-8.65078 4.76059,-2.78845 9.20499,-6.06723 13.56386,-9.43518 6.94716,-5.6518 13.73542,-11.61152 19.41172,-18.57091 0,0 13.00293,-5.55534 13.00293,-5.55534 z" />
    <path
       style="fill:#000000;fill-opacity:1;fill-rule:nonzero;stroke:none"
       id="path3002"
       d="m 880.86176,442.19968 c 6.27099,-4.17393 16.81138,-16.77954 23.45644,-12.45631 2.02138,2.23991 2.2007,5.46917 1.81512,8.32529 -0.30885,2.33816 -1.9123,4.54345 -2.01535,6.90575 2.02827,0.37873 4.10442,0.40482 6.16737,0.42729 2.63274,0.004 5.26551,-0.0201 7.89792,-0.0608 0.61019,-0.01 1.22035,-0.0212 1.83037,-0.0383 0,0 -11.53924,8.408 -11.53924,8.408 l 0,0 c -0.59704,-10e-4 -1.19408,4e-4 -1.79112,0.002 -2.63354,0.01 -5.26723,0.0433 -7.9007,0.007 -2.55812,-0.0851 -5.41819,0.0647 -7.22618,-2.04023 -0.67354,-2.39911 1.29334,-5.08075 1.81648,-7.4234 0.57068,-2.03392 0.64328,-5.03072 -0.90554,-6.66553 -3.68365,-0.51791 -15.70228,8.31478 8.43003,-5.75924 0.73146,-0.42659 -1.48751,0.81684 -2.17985,1.30437 -0.13054,0.0919 -4.57128,3.66725 -4.73307,3.79739 0,0 -13.12268,5.26624 -13.12268,5.26624 z" />
    <path
       style="fill:none;stroke:#000000;stroke-width:4;stroke-linecap:butt;stroke-linejoin:miter;stroke-miterlimit:4;stroke-opacity:1;stroke-dasharray:none;marker-end:url(#Arrow1Lend)"
       d="m 276.74589,524.53827 0,-185.71429"
       id="path3070" />
    <path
       style="fill:none;stroke:#000000;stroke-width:4;stroke-linecap:butt;stroke-linejoin:miter;stroke-miterlimit:4;stroke-opacity:1;stroke-dasharray:none;marker-end:url(#Arrow1Lend)"
       d="m 665.31732,493.96684 0,-185.71429"
       id="path3070-5" />
    <flowRoot
       xml:space="preserve"
       id="flowRoot4320"
       style="font-size:40px;font-style:normal;font-weight:normal;fill:#000000;fill-opacity:1;stroke:none;font-family:Bitstream Vera Sans"
       transform="translate(976.74589,-8.3621129)"><flowRegion
         id="flowRegion4322"><rect
           id="rect4324"
           width="177.14285"
           height="154.28572"
           x="-748.57141"
           y="304.32895" /></flowRegion><flowPara
         id="flowPara4326">y1</flowPara></flowRoot>    <flowRoot
       xml:space="preserve"
       id="flowRoot4320-0"
       style="font-size:40px;font-style:normal;font-weight:normal;fill:#000000;fill-opacity:1;stroke:none;font-family:Bitstream Vera Sans"
       transform="translate(1354.855,-6.398383)"><flowRegion
         id="flowRegion4322-6"><rect
           id="rect4324-3"
           width="177.14285"
           height="154.28572"
           x="-748.57141"
           y="304.32895" /></flowRegion><flowPara
         id="flowPara4326-6">y2</flowPara></flowRoot>  </g>
</svg>
