<?xml version="1.0" encoding="UTF-8" standalone="no"?>
<!-- Created with Inkscape (http://www.inkscape.org/) -->

<svg
   xmlns:dc="http://purl.org/dc/elements/1.1/"
   xmlns:cc="http://creativecommons.org/ns#"
   xmlns:rdf="http://www.w3.org/1999/02/22-rdf-syntax-ns#"
   xmlns:svg="http://www.w3.org/2000/svg"
   xmlns="http://www.w3.org/2000/svg"
   xmlns:sodipodi="http://sodipodi.sourceforge.net/DTD/sodipodi-0.dtd"
   xmlns:inkscape="http://www.inkscape.org/namespaces/inkscape"
   width="954.521"
   height="809.76624"
   id="svg4359"
   version="1.1"
   inkscape:version="0.47pre4 r22446"
   sodipodi:docname="New document 11">
  <defs
     id="defs4361">
    <inkscape:perspective
       sodipodi:type="inkscape:persp3d"
       inkscape:vp_x="0 : 526.18109 : 1"
       inkscape:vp_y="0 : 1000 : 0"
       inkscape:vp_z="744.09448 : 526.18109 : 1"
       inkscape:persp3d-origin="372.04724 : 350.78739 : 1"
       id="perspective4367" />
  </defs>
  <sodipodi:namedview
     id="base"
     pagecolor="#ffffff"
     bordercolor="#666666"
     borderopacity="1.0"
     inkscape:pageopacity="0.0"
     inkscape:pageshadow="2"
     inkscape:zoom="0.35"
     inkscape:cx="757.65299"
     inkscape:cy="411.80909"
     inkscape:document-units="px"
     inkscape:current-layer="layer1"
     showgrid="false"
     inkscape:window-width="1280"
     inkscape:window-height="726"
     inkscape:window-x="0"
     inkscape:window-y="25"
     inkscape:window-maximized="1" />
  <metadata
     id="metadata4364">
    <rdf:RDF>
      <cc:Work
         rdf:about="">
        <dc:format>image/svg+xml</dc:format>
        <dc:type
           rdf:resource="http://purl.org/dc/dcmitype/StillImage" />
        <dc:title></dc:title>
      </cc:Work>
    </rdf:RDF>
  </metadata>
  <g
     inkscape:label="Layer 1"
     inkscape:groupmode="layer"
     id="layer1"
     transform="translate(382.65299,-134.40501)">
    <path
       style="stroke-width:4;stroke-miterlimit:4;stroke-dasharray:none"
       id="path4369"
       d="m -122.39229,576.51381 c -9.58585,-0.81462 -16.5082,-3.45119 -23.36655,-10.22519 -7.38543,-9.45879 -7.82249,-19.1228 -6.2771,-30.55543 3.13182,-14.78164 10.9638,-27.35508 20.42074,-38.86567 6.98135,-7.81642 15.31923,-14.29691 24.51389,-19.30881 19.150361,-10.43862 11.932856,-8.06315 24.911417,-11.31994 13.723579,-1.94183 25.182047,1.68965 36.777924,8.71324 11.607556,7.49625 19.795647,18.4237 27.112124,29.89679 6.848564,11.83101 8.8080237,24.88574 8.9569674,38.31771 -0.3286888,13.96468 -4.1587564,22.48221 -13.8178144,32.33578 -8.298419,7.15042 -18.025288,12.30696 -27.810349,17.16653 -5.883061,2.92171 -13.167873,4.27098 -19.496801,5.85296 -12.755616,2.49146 -25.096334,1.29069 -37.214148,-3.08453 -6.78441,-2.89745 -11.34289,-8.1931 -15.51407,-14.03588 0,0 11.99381,-7.08577 11.99381,-7.08577 l 0,0 c 4.0632,5.59977 8.44754,10.66322 15.053516,13.32753 11.975119,4.15308 24.165398,5.15061 36.668709,2.46867 5.858459,-1.52276 7.267623,-1.77023 13.022669,-3.74738 2.120527,-0.72851 5.93373,-4.55965 6.303365,-2.34815 0.395859,2.36839 -4.235329,2.34201 -6.039546,3.92656 -3.116572,2.73712 13.401988,-8.85473 10.197836,-7.13077 9.818524,-9.45216 13.849142,-17.50824 14.314292,-31.34699 -0.05278,-13.18585 -1.848149,-26.01509 -8.578161,-37.64101 -7.204606,-11.30306 -15.261842,-22.07433 -26.787351,-29.33979 -11.458795,-6.72887 -22.706624,-10.1182 -36.116192,-7.82752 -2.178091,0.61589 -5.486884,3.85427 -6.534273,1.84768 -1.035064,-1.98297 7.660216,-3.44067 5.468754,-3.889 -2.435606,-0.49828 -4.38696,2.34963 -6.486608,3.68077 -6.70232,4.24915 -12.88646,9.33658 -18.24258,15.1925 -9.48012,11.24538 -17.34494,23.56681 -20.6225,38.11712 -1.56209,10.5456 -1.32985,20.69002 5.735,29.3593 6.54462,6.26106 13.81274,8.92928 22.88149,9.24543 0,0 -11.42846,8.30326 -11.42846,8.30326 z" />
    <path
       style="stroke-width:4;stroke-miterlimit:4;stroke-dasharray:none"
       id="path4371"
       d="m -147.95879,558.85616 c 5.18085,-7.10031 10.11787,-14.37171 15.32438,-21.45405 7.81906,-10.90606 11.19072,-11.9333 23.98501,-19.41736 3.76649,-2.67596 7.26669,-2.81845 11.685796,-2.32077 4.515455,1.24533 8.583091,3.53135 12.091424,6.61237 4.103128,3.17773 7.699566,6.92144 11.047811,10.87128 3.457626,4.02182 6.910585,8.03941 10.139552,12.24514 2.358732,2.99889 5.128329,4.79464 8.856612,5.41761 1.906957,0.49636 3.063066,-0.13913 4.621731,-1.11121 0.529044,-0.32994 2.156721,-1.25116 1.605607,-0.95957 -10.81034,5.71966 -13.064526,8.29183 -8.151268,3.49477 3.978198,-3.67231 6.363141,-8.49377 8.754655,-13.25375 0,0 12.707373,-5.7641 12.707373,-5.7641 l 0,0 c -2.290336,4.8357 -4.536214,9.83692 -8.446553,13.6154 -5.698502,6.01061 -1.520241,1.95563 -15.877434,10.80842 -2.153557,1.32791 -4.347384,1.90413 -6.845287,1.26203 -3.908957,-0.95932 -6.87957,-3.09484 -9.361963,-6.28788 -3.218425,-4.18336 -6.6333,-8.20173 -10.092414,-12.18962 -3.327264,-3.8774 -6.885971,-7.55124 -10.942443,-10.67722 -3.382079,-2.82103 -7.276059,-5.0189 -11.636869,-5.87333 -4.25311,-0.32952 -7.59887,0.57759 -11.15968,3.01002 18.18578,-10.73283 12.14947,-7.71186 8.54258,-4.73943 -3.36099,2.76978 -5.91638,6.34396 -8.64966,9.70105 -5.24459,7.00662 -10.14391,14.25256 -15.26156,21.34965 0,0 -12.9374,5.66055 -12.9374,5.66055 z" />
    <path
       style="stroke-width:4;stroke-miterlimit:4;stroke-dasharray:none"
       id="path4373"
       d="m -74.288097,481.8888 c 3.15444,-9.10156 3.720481,-18.77377 4.904426,-28.25587 2.3676,-14.98475 1.650846,-30.1572 1.269337,-45.25169 -0.467797,-17.50388 -0.657107,-35.01383 -0.784368,-52.52302 -0.413458,-13.60739 -0.06869,-27.15628 1.092467,-40.713 0.659558,-7.26445 1.141079,-14.54374 1.404825,-21.83311 0.04791,-3.10194 -0.42416,-6.0613 1.932254,-8.39862 14.018002,-8.84707 13.531059,-8.05926 27.053647,-8.16666 9.332813,0.002 18.665567,0.0484 27.9983575,0.0705 13.7592401,-0.33666 27.3698275,1.76943 40.9738055,3.48153 11.424526,2.04933 22.942766,3.41706 34.375802,5.4007 7.364917,0.86362 14.526408,2.73612 21.77684,4.21654 3.045174,0.47958 6.102827,1.06337 9.192486,1.15036 3.951728,-3.32684 -1.110752,1.00924 -10.196528,5.38134 -0.522001,0.25119 0.814263,-0.82693 1.177363,-1.2783 1.178459,-1.46496 2.132981,-3.17798 3.213481,-4.71589 3.165481,-4.91204 6.518329,-9.69278 9.488922,-14.72831 2.75345,-5.04916 5.71445,-9.93575 9.06531,-14.60841 4.37259,-4.75879 12.68349,-15.69977 18.8516,-10.67455 2.81415,3.84637 4.91852,8.1757 6.47852,12.66348 2.42246,7.11667 5.00277,14.18035 7.39356,21.30623 2.60309,6.95927 5.25382,13.90036 7.99344,20.80624 1.6909,4.52265 3.01854,9.25188 6.48978,12.74789 0.0373,0.0307 1.50222,1.28389 1.74635,1.329 0.34565,0.0639 0.88135,-1.0414 0.56347,-0.89136 -11.97465,5.65185 -12.77444,10.19493 -11.00199,4.0217 1.62847,-6.76011 2.39431,-13.67076 4.04684,-20.43379 1.54772,-7.32826 3.77074,-14.47998 5.62001,-21.73142 0.44694,-6.74936 9.79706,-17.86864 16.82615,-10.71899 2.66154,4.0475 4.10217,8.70274 5.72727,13.22612 1.6203,6.42615 3.22149,12.82372 5.29921,19.12693 1.55012,5.60683 3.07946,11.21886 5.21062,16.63973 0.55121,0.96082 2.95458,8.93676 4.387,7.25455 -3.70909,1.92196 -7.25752,4.19221 -11.12725,5.76588 -0.62279,0.25326 0.78609,-1.09579 1.10229,-1.68912 0.45437,-0.85257 0.83881,-1.74199 1.20311,-2.63676 1.31996,-3.24203 2.16782,-6.66038 3.154,-10.01178 1.96224,-7.18597 3.32447,-14.5087 5.02742,-21.76122 1.23563,-3.42161 0.5952,-7.50111 2.3461,-10.73264 4.56182,-1.9817 8.93773,-4.46307 13.68546,-5.94511 1.40535,-0.43869 4.63836,10.30153 4.89694,11.23229 2.0952,5.98609 3.42751,12.18016 5.14658,18.27485 1.43466,5.59303 3.15172,11.10949 5.32598,16.45729 1.29845,2.29605 2.36035,7.41003 5.44248,7.91154 3.14659,-4.20836 0.42449,-0.36102 -10.65269,5.58009 -0.40558,0.21753 0.74089,-0.55202 1.06465,-0.87913 1.64349,-1.66051 2.55084,-3.50779 3.48449,-5.61917 2.17505,-5.82023 4.61022,-11.5501 6.52275,-17.46555 1.51905,-3.16024 2.32187,-6.84143 4.68221,-9.51482 12.62018,-9.19374 10.3514,-8.16373 19.69968,-5.86988 2.93976,0.59006 5.94108,0.65439 8.92789,0.72354 2.99982,0.0425 6.00008,0.0281 9.0001,0.0272 4.08491,0.003 8.16978,-0.003 12.25469,0.001 3.67165,-0.003 7.34329,-0.0151 11.01494,-0.0132 3.31312,0.002 6.62626,0.004 9.93938,-0.003 3.57468,0.004 7.14935,0.006 10.72403,0.0125 4.66689,-0.4575 9.07552,0.52456 13.6124,1.41258 4.6913,0.92251 9.4525,1.22319 14.21977,1.37819 3.98873,0.0953 7.97914,0.092 11.96874,0.0779 3.20683,-0.0109 6.41368,-0.0134 9.62051,-0.0231 2.87182,-0.003 5.74366,0.002 8.61548,-0.003 2.8526,-7e-5 5.70522,0.005 8.55782,1.6e-4 3.33338,-0.29307 5.05914,1.79626 6.75059,4.27958 2.80495,4.32188 4.03211,9.18077 5.40779,14.06917 2.19077,7.78042 2.85651,15.83444 3.31486,23.86735 1.08904,8.96303 2.11211,17.92208 2.65795,26.9365 0.62778,7.42071 0.0894,14.90836 0.86347,22.30984 0.82814,5.15842 1.70516,10.29847 2.2228,15.49881 0.0191,2.99473 0.52717,5.00931 3.35782,6.32807 3.55537,1.11821 6.94957,1.06622 10.48066,0.0933 5.62226,-3.53961 -2.42627,1.56008 -9.33802,5.18781 -0.43361,0.22759 0.76627,-0.62209 1.07166,-1.0049 1.02903,-1.2899 1.34537,-2.64617 1.456,-4.23508 -0.16251,-4.00005 -1.14424,-7.2344 -3.64148,-10.32874 -2.91917,-2.9584 -5.552,-1.85177 -8.90593,-0.37538 20.04533,-10.94623 11.03175,-6.85968 7.347,-3.52375 -1.65376,1.49721 -3.10259,3.22973 -4.58484,4.8906 -3.08152,3.79767 -5.63144,7.95428 -7.87513,12.28799 -1.9341,4.34356 -4.29636,8.47477 -6.41365,12.72627 -1.76135,3.92021 -2.2682,8.17968 -2.52996,12.42186 -0.20545,3.70405 -0.3648,7.3276 0.61598,10.92074 1.55383,3.13203 3.50126,5.99742 5.71536,8.69206 2.17719,2.44378 5.04773,4.4247 7.96821,5.90457 2.93981,0.93985 5.57233,2.57325 8.52379,3.50703 3.13505,1.10333 5.88486,0.75775 8.71924,-0.91357 6.56537,-3.47121 -5.82968,3.43772 -8.83308,4.99299 -0.50864,0.26339 0.89347,-0.71798 1.31843,-1.10202 1.47296,-1.33112 2.5701,-2.78849 3.65968,-4.43531 1.78556,-3.17381 2.43085,-6.58422 1.7081,-10.12694 -1.46176,-3.03886 -3.85483,-5.59121 -7.02177,-6.77518 -3.48884,-1.43438 -5.96794,0.15969 -8.9213,1.85937 -5.35457,2.33601 -3.0564,1.40643 8.69715,-5.14679 0.59015,-0.32904 -1.1704,0.677 -1.73502,1.04814 -1.92726,1.26684 -3.50481,2.84872 -5.13976,4.46083 -4.44772,3.7776 -8.30289,8.13021 -11.84755,12.74583 -3.70755,4.62976 -7.28921,9.33518 -10.7025,14.18545 -2.2411,3.79536 -4.26297,7.77252 -5.71375,11.94434 -1.30884,3.71117 -0.84694,7.39528 0.54581,10.99871 1.62018,3.75259 4.94066,5.91239 8.07721,8.27975 3.55039,2.59223 7.54877,3.82781 11.844,4.42187 3.54489,0.35045 7.11074,0.3351 10.66853,0.31047 0.992,-0.17725 2.02966,0.14627 3.02308,-0.0229 4.05997,-0.69135 17.10808,-9.30119 -6.56151,4.18993 2.4973,-1.79203 3.43311,-4.37945 3.91092,-7.29009 0.45475,-2.93989 0.37397,-5.61265 -1.19251,-8.19185 -1.85068,-2.5427 -4.18251,-4.40048 -7.16401,-5.3809 -5.14735,-1.26783 -18.43288,8.0852 3.85061,-4.34603 -3.38574,2.51584 -5.72316,6.00376 -7.89022,9.55643 -2.13001,4.04507 -4.07321,8.05747 -5.21221,12.49716 -0.88825,4.04399 -0.96632,8.20336 -1.01611,12.32616 0.39376,3.34523 1.6656,6.40383 3.76348,9.0227 2.96568,2.94121 5.94522,5.93812 9.31396,8.41737 3.32484,3.0731 7.37835,5.32407 11.4823,7.19551 3.99117,1.50247 8.25014,1.80248 12.46869,1.97562 1.7621,-0.16337 3.63053,0.3148 5.3869,0.0532 0.50284,-0.0749 1.88825,-0.7316 1.44926,-0.47518 -12.34894,7.21309 -13.83181,8.90708 -9.92956,4.97884 1.97402,-2.76085 1.42664,-5.666 0.16685,-8.59018 -1.67674,-3.37456 -4.26602,-5.9875 -7.28917,-8.1591 -3.37146,-1.95399 -6.89912,-0.62436 -10.16174,0.80304 20.71652,-12.9793 7.23084,-3.88105 3.08523,0.65279 -3.17921,3.74819 -5.68048,7.87159 -7.83687,12.27082 -1.62519,4.06278 -3.35865,8.10062 -4.78496,12.24176 -0.96206,2.93583 -1.23132,6.00479 -1.34766,9.07152 0.60657,2.84133 1.64614,5.5543 2.2461,8.40908 1.21354,3.0922 2.27607,6.21193 3.61322,9.25483 1.39768,2.97686 1.98616,6.18434 3.21686,9.22059 1.50804,3.72107 1.90408,7.66232 2.14319,11.62893 1.17491,5.77131 1.99651,11.56879 2.48205,17.43838 1.34218,6.83533 1.88738,13.80239 3.15409,20.6429 1.06663,6.0735 2.56254,12.03004 4.00603,18.01888 0.94539,5.74709 1.94835,11.45481 3.10546,17.16613 0.49884,5.26179 2.18838,10.25513 3.29055,15.3952 0.73429,3.97821 2.34499,7.68336 3.27356,11.62073 0.44366,2.35097 0.72864,4.72961 0.91051,7.11431 -1.05999,8.65304 -13.61738,8.31556 -20.13903,8.26008 -6.36809,-0.0852 -12.73673,-0.11958 -19.10527,-0.14888 -11.75604,-0.0491 -23.51217,-0.0562 -35.26828,-0.069 -13.94495,0.54827 -27.82956,1.82199 -41.60316,4.05999 -12.36879,1.76791 -24.42931,5.08515 -36.64545,7.61289 -8.24316,2.1981 -16.63664,3.61042 -24.84114,5.93703 -3.3835,0.67742 -7.35436,3.10648 -10.67283,1.33185 -1.99869,-3.31953 -0.0388,-8.42844 0.74768,-11.98521 2.06908,-8.92681 2.75378,-18.09118 3.97196,-27.15886 0.97665,-10.53379 2.61336,-20.98306 3.936,-31.47524 0.6352,-5.31364 1.02728,-10.65457 1.20941,-16.00232 0.007,-0.57079 -0.009,-1.14892 0.098,-1.70969 13.84286,-7.25416 12.65026,-9.21788 12.58809,-1.96867 -0.21445,2.81076 1.01017,5.38964 1.62038,8.09499 0.86359,5.69528 -0.3825,11.52646 -0.90896,17.22607 -0.55523,6.32421 -0.6817,12.67381 -0.75828,19.01838 -0.0731,8.10308 -0.0566,16.20666 -0.0672,24.31 0.0869,9.34954 -1.30362,18.63097 -2.03448,27.93887 -0.26355,6.87797 -1.77176,13.6181 -2.77548,20.40926 -0.59272,3.88649 -0.47172,7.79496 -1.53704,11.59384 -0.99539,2.87574 -1.61057,5.83199 -1.91866,8.85338 0.12275,3.41692 -0.98011,6.58818 -1.87374,9.82959 -0.78603,3.24634 -1.02116,6.58216 -1.14385,9.9088 -0.0988,8.17824 0.26882,4.01702 -13.5548,9.83229 -0.23533,-0.49871 -0.47066,-0.99742 -0.70599,-1.49613 0,0 12.35465,-6.98369 12.35465,-6.98369 l 0,0 c 0.15834,0.35399 0.31667,0.70799 0.47501,1.06198 -3.9616,2.40031 -8.0084,4.66533 -11.8848,7.20093 -0.17048,0.11151 0.39884,0.28801 0.57954,0.19397 0.45255,-0.23553 -0.33259,-3.06413 0.0732,-3.41509 0.12292,-3.41669 0.31622,-6.83684 1.01874,-10.19321 0.79188,-3.20718 2.19774,-6.24397 1.95422,-9.61735 0.28185,-3.10591 0.76048,-6.17017 1.81087,-9.12322 1.27078,-3.72697 1.12771,-7.54853 1.68739,-11.42437 0.9964,-6.78938 2.63393,-13.50487 2.92643,-20.37792 0.7318,-9.27689 2.1384,-18.52793 2.08767,-27.84185 -0.019,-8.09681 -0.0329,-16.19366 -0.005,-24.29046 0.0578,-6.37625 0.14411,-12.75734 0.69828,-19.11418 0.49652,-5.55964 1.67444,-11.24788 1.03469,-16.7983 -0.61839,-2.80262 -1.97067,-5.44489 -1.82534,-8.3395 -0.064,-7.57843 -0.13201,-4.68649 12.63167,-11.3165 0.15303,0.69494 0.0864,1.4211 0.0386,2.14522 -0.28953,5.41256 -0.7096,10.82098 -1.3499,16.20386 -1.36452,10.50106 -3.09087,20.95113 -3.98777,31.50874 -1.19908,9.07875 -1.86946,18.24163 -3.77283,27.20764 -0.70821,2.96171 -2.03907,7.33422 -1.60784,10.18812 3.25578,0.80566 6.83294,-1.60532 9.99726,-2.00388 8.18299,-2.25071 16.5705,-3.58536 24.77473,-5.77 12.18595,-2.57987 24.26052,-5.74734 36.6105,-7.50155 13.82559,-2.14321 27.75242,-3.44188 41.74024,-3.89047 11.80241,-0.0107 23.60481,-0.0206 35.40722,-0.0277 6.41291,0.003 12.82567,0.022 19.23849,0.0521 1.72444,-0.006 3.47105,0.0342 5.18908,-0.14927 0.45789,-0.0489 1.7457,-0.47781 1.36378,-0.22052 -10.57021,7.12084 -15.288,5.47141 -10.53877,6.97151 -0.0729,-2.32649 -0.32751,-4.64668 -0.72174,-6.94016 -0.87477,-3.96647 -2.52628,-7.66914 -3.24496,-11.66243 -1.07048,-5.15535 -2.8123,-10.14438 -3.2717,-15.42022 -1.14052,-5.70027 -2.22798,-11.37363 -3.07795,-17.12348 -1.42601,-6.01842 -2.97651,-11.98491 -4.01461,-18.09017 -1.32901,-6.87622 -1.75575,-13.91148 -3.22615,-20.77417 -0.46305,-5.87454 -1.25145,-11.68364 -2.55661,-17.43533 -0.21416,-3.81021 -0.52804,-7.61425 -1.96108,-11.19716 -1.24643,-3.02787 -1.86612,-6.19011 -3.18398,-9.19377 -1.38921,-3.13323 -2.4793,-6.34065 -3.78954,-9.50868 -0.57314,-2.97555 -1.61104,-5.78771 -2.39972,-8.70408 0.1055,-3.18612 0.29542,-6.37617 1.19355,-9.45716 1.411,-4.2063 3.20925,-8.26279 4.76594,-12.41146 2.07365,-4.53326 4.5449,-8.73147 7.65206,-12.62765 5.89078,-6.82849 12.57297,-10.77929 21.06592,-14.90505 3.6683,-1.41896 7.53753,-1.90152 10.99574,0.38665 3.14937,2.38616 5.89542,5.20401 7.67634,8.78087 1.46262,3.21369 2.27469,6.652 0.50477,9.92604 -4.46284,7.90387 -13.40667,9.96467 -21.41816,9.32407 -4.34602,-0.2632 -8.71888,-0.71395 -12.7678,-2.44158 -4.13636,-2.02649 -8.23258,-4.29723 -11.63517,-7.43794 -3.41524,-2.62012 -6.53403,-5.6321 -9.53469,-8.71395 -2.25377,-2.91887 -3.66427,-6.20549 -4.22617,-9.86722 0.0675,-4.21777 0.11145,-8.46778 0.89187,-12.62686 1.10005,-4.57605 2.8844,-8.70584 5.05276,-12.86293 2.03986,-3.69848 4.41217,-7.29957 7.64948,-10.06088 4.88627,-2.94432 13.60383,-11.20351 21.07016,-8.81258 3.12875,1.31921 5.7039,3.38398 7.66278,6.18402 1.72313,2.86695 2.13209,5.74019 1.66668,9.04569 -0.40813,3.1507 -1.10472,6.06838 -3.44591,8.39061 -7.64301,4.49564 -12.67304,9.60487 -21.13946,9.33153 -3.59688,-0.0109 -7.20534,-0.0262 -10.7767,-0.51143 -4.43705,-0.79567 -8.55215,-2.28089 -12.20158,-5.01 -3.35762,-2.50946 -6.78627,-4.94501 -8.49909,-8.93449 -1.5384,-3.82437 -2.22968,-7.86352 -0.99915,-11.88263 1.41697,-4.3141 3.43665,-8.35031 5.58694,-12.3347 3.43826,-4.8582 6.92269,-9.65266 10.71495,-14.24534 3.50195,-4.65228 7.1799,-9.22751 11.74051,-12.90079 6.28246,-6.48703 13.79793,-10.96866 22.23508,-14.66955 3.20178,-1.74318 6.22946,-2.38091 9.69315,-0.81623 3.42262,1.64284 6.06838,4.50104 7.71194,7.92971 0.89646,3.8567 0.47751,7.49754 -1.23297,11.12175 -4.549,7.54761 -11.83672,11.57307 -20.18232,15.08142 -3.19748,1.20831 -6.16097,1.30289 -9.38329,0.0347 -2.9391,-1.09215 -5.7314,-2.55419 -8.64489,-3.70097 -3.01389,-1.70694 -6.0202,-3.69996 -8.24615,-6.38087 -2.34326,-2.84415 -4.36449,-5.89503 -6.01607,-9.19643 -1.08073,-3.74497 -1.07199,-7.45725 -0.82492,-11.34453 0.2538,-4.39047 0.66792,-8.80095 2.31386,-12.92821 2.00698,-4.31448 4.54917,-8.36812 6.42008,-12.75196 2.15177,-4.46532 4.76542,-8.63457 7.71201,-12.62172 6.36245,-7.20508 11.51446,-11.4786 21.38693,-15.61161 3.85547,-1.44706 6.99875,-1.30021 9.93959,1.87265 2.65221,3.38377 3.79778,6.84312 4.11163,11.1528 0.51491,8.93509 -9.7899,12.2682 -17.07592,15.08505 -3.73048,0.78469 -7.54167,0.48894 -11.10612,-0.93211 -2.93977,-1.81059 -4.1491,-4.07726 -4.01942,-7.5459 -0.44632,-5.20754 -1.28823,-10.35573 -2.14483,-15.50988 -0.87687,-7.42703 -0.19752,-14.95756 -0.81908,-22.41422 -0.53013,-9.01462 -1.48608,-17.98136 -2.68107,-26.93199 -0.4187,-7.9284 -1.04029,-15.88711 -3.22198,-23.56089 -1.37426,-4.72385 -2.49659,-9.45298 -5.28588,-13.60663 -1.59747,-2.26376 -3.01578,-3.45517 -6.00365,-3.13277 -2.85263,-0.005 -5.70527,0 -8.5579,1e-5 -2.87057,-0.005 -5.74115,5.2e-4 -8.61172,0.002 -3.20018,-0.003 -6.40036,0.007 -9.60055,0.008 -3.98776,-0.006 -7.97662,0.002 -11.96234,-0.14781 -4.81606,-0.19401 -9.61595,-0.58895 -14.34719,-1.55957 -4.47789,-0.87732 -8.88855,-1.52757 -13.47469,-1.17515 -3.58609,0.007 -7.17216,0.009 -10.75825,0.0124 -3.31025,-0.007 -6.62054,-0.005 -9.93079,-0.003 -3.66041,0.002 -7.32082,-0.0101 -10.98123,-0.0106 -4.09513,0.007 -8.19026,0.007 -12.28537,0.0228 -3.01435,0.008 -6.02948,0.0279 -9.04308,-0.0535 -3.0536,-0.1208 -6.12435,-0.23916 -9.10639,-0.97314 -8.25481,-2.14621 -9.6404,0.70628 5.13843,-7.57732 -2.85751,2.14019 -3.40699,5.8594 -5.07472,8.88847 -1.84074,5.96622 -4.38663,11.67979 -6.47972,17.55687 -2.60369,7.34446 -9.76095,15.50936 -18.50241,14.76272 -3.21404,-1.81072 -4.52912,-5.73576 -5.95754,-8.94437 -2.17889,-5.40212 -3.92869,-10.96504 -5.37163,-16.60966 -1.71459,-6.09922 -3.03088,-12.29929 -5.15,-18.2811 -0.74373,-2.71042 -1.51905,-5.32243 -2.73761,-7.86475 -0.23099,-0.48191 -0.4481,-0.97793 -0.76126,-1.41097 -0.24309,-0.33616 -1.22066,-0.62187 -0.88895,-0.87099 3.58157,-2.6898 7.62559,-4.70118 11.43839,-7.05177 -2.70342,0.0568 -1.93322,8.06707 -2.92652,9.81938 -1.72698,7.27964 -3.19122,14.59913 -5.03331,21.84665 -0.58785,2.01777 -3.68387,13.9589 -5.04189,14.919 -4.27047,3.01914 -8.95998,5.39698 -13.43996,8.09547 -3.43763,-1.41934 -3.61487,-5.87745 -5.23883,-8.80889 -2.17442,-5.43636 -3.66396,-11.10003 -5.20494,-16.73907 -2.06524,-6.28924 -3.74844,-12.65048 -5.31295,-19.07554 -1.55143,-4.31316 -2.93008,-8.76337 -5.47642,-12.6153 -4.32793,-3.82311 -1.11833,-0.44338 10.4096,-7.97859 0.221,-0.14445 -0.5449,0.0589 -0.76527,0.2043 -1.54993,1.0227 -0.96479,3.49833 -1.67926,4.96924 -1.82934,7.2741 -4.22727,14.39576 -5.69035,21.76384 -1.75588,6.73751 -2.49801,13.62302 -3.89232,20.42917 -2.08273,6.6449 -10.87007,15.05084 -16.2041,8.97527 -3.46385,-3.75177 -4.99786,-8.52425 -6.66708,-13.27343 -2.75337,-6.92909 -5.34221,-13.92366 -7.98959,-20.89507 -2.39182,-7.11702 -4.98668,-14.16725 -7.43934,-21.26455 -1.44457,-4.16538 -3.37716,-8.26316 -6.10477,-11.75298 -0.75556,-0.18417 -0.39795,-0.22448 -1.07575,0.0914 3.7482,-2.23199 7.49639,-4.46399 11.24459,-6.69599 0.44665,-0.25281 -0.79199,0.65343 -1.17419,0.99597 -1.4663,1.31413 -1.52625,1.44385 -2.94226,2.94207 -3.29204,4.69884 -6.55707,9.37016 -9.16522,14.50903 -2.88333,5.10356 -6.31178,9.83888 -9.37319,14.83033 -4.822898,6.56862 -8.084774,14.27185 -18.722632,14.53014 -3.096032,-0.26381 -6.159798,-0.83548 -9.212645,-1.39616 -7.186441,-1.55542 -14.323979,-3.31441 -21.627496,-4.26176 -11.388205,-1.99899 -22.865933,-3.3947 -34.253551,-5.40805 -13.5854405,-1.7449 -27.1937847,-3.75865 -40.938435,-3.29371 -9.364878,-0.01 -18.730021,-0.0421 -28.094751,0.0224 -3.068304,0.0462 -6.152034,0.0457 -9.210774,0.33104 -5.885712,0.54899 -12.327322,4.76926 6.712592,-5.71592 -3.27405,1.9416 -2.346991,3.81556 -2.511597,7.30764 -0.293737,7.34237 -0.903622,14.66741 -1.547525,21.98618 -1.284954,13.54352 -1.738554,27.07961 -1.338758,40.68782 0.09861,17.49996 0.258645,35.0004 0.782244,52.49381 0.407435,15.12693 1.21967,30.33409 -1.038157,45.3662 -1.168431,9.51049 -1.664869,19.1933 -4.554831,28.39625 0,0 -12.800391,6.01154 -12.800391,6.01154 z" />
    <path
       style="stroke-width:4;stroke-miterlimit:4;stroke-dasharray:none"
       id="path4375"
       d="m 212.59147,679.57307 c 3.92387,8.94393 5.54246,18.53971 6.69326,28.16491 1.08509,11.22633 1.17675,22.51662 1.25625,33.78554 0.0229,8.75955 0.0262,17.51913 0.0269,26.2787 0.005,4.78925 0.0106,9.57857 0.0328,14.36778 -0.009,3.77577 -0.004,7.55152 -0.0117,11.32728 0.021,2.07602 -0.0128,4.15888 0.0585,6.2318 -13.25132,5.21496 -12.70876,9.53409 -12.67184,3.15713 0,0 12.62014,-6.43028 12.62014,-6.43028 l 0,0 c 0.0396,6.80955 0.52583,1.50087 -12.67188,9.75653 0.0693,-2.09362 0.0384,-4.1953 0.058,-6.29147 -0.008,-3.77242 -0.003,-7.54482 -0.01,-11.31724 0.0279,-4.80836 0.0472,-9.61678 0.0743,-14.42515 0.0425,-8.774 0.11192,-17.54806 0.084,-26.32222 -0.053,-11.22556 -0.10055,-22.47192 -1.16481,-33.65737 -1.11526,-9.51574 -2.64005,-19.05276 -6.76116,-27.8037 0,0 12.38732,-6.82224 12.38732,-6.82224 z" />
    <path
       style="stroke-width:4;stroke-miterlimit:4;stroke-dasharray:none"
       id="path4377"
       d="m 209.03628,762.2281 c -9.18468,0.055 -18.38486,-0.38541 -27.54739,0.33206 -10.18618,1.20293 -20.40732,1.83022 -30.65438,2.15817 -12.68366,0.32137 -25.37277,0.29745 -38.05952,0.29501 -14.749787,-0.002 -29.499561,-0.0209 -44.24935,-0.0193 -14.500879,-0.002 -29.00176,-0.006 -43.502639,-0.001 -12.411094,0.003 -24.82217396,0.0215 -37.233259,0.0325 -8.080463,-0.23675 -16.056024,1.32223 -24.063102,2.17465 -4.41364,0.0931 -8.586656,1.09815 -12.68406,2.67434 -1.949255,0.90782 -4.15586,0.90276 -6.266635,0.94616 -2.88593,0.13816 -5.241219,0.38241 -7.55806,-1.50922 -2.952008,-2.80305 -3.068555,-7.05106 -3.348904,-10.86029 0.06891,-6.52431 -1.106885,-12.94419 -1.849101,-19.40533 -0.44983,-7.79191 -1.793334,-15.47764 -2.773856,-23.21212 -1.00341,-7.56314 -0.736999,-15.21695 -1.498463,-22.79094 -1.081763,-6.79392 -1.868017,-13.6078 -2.257706,-20.47493 -0.31463,-7.20146 -0.334406,-14.41289 -0.336263,-21.62014 -0.002,-6.76257 -0.0034,-13.52515 -0.0041,-20.28773 -0.01685,-5.01771 -0.0028,-10.03554 -0.02101,-15.05324 -0.0052,-3.58982 -0.02067,-7.17955 -0.01086,-10.76937 0.01443,-2.78315 -0.02699,-5.56631 -0.02124,-8.34939 0.114567,-1.74336 -0.374722,-3.44839 -0.709798,-5.14344 0,0 12.456975,-6.67061 12.456975,-6.67061 l 0,0 c 0.381435,1.76499 0.997908,3.54046 0.917272,5.36118 0.0058,2.79026 -0.03556,5.5806 -0.02107,8.37094 0.0099,3.59363 -0.0054,7.18718 -0.01117,10.7808 -0.01935,5.02727 -0.0079,10.05465 -0.03298,15.08192 -0.01223,6.76754 -0.03534,13.53508 -0.03281,20.30264 0.02153,7.18293 -5.42e-4,14.36919 0.313773,21.54699 0.36896,6.84697 1.118232,13.64836 2.209568,20.41991 0.84511,7.56189 0.488905,15.21302 1.477748,22.77341 0.944564,7.74292 2.369141,15.42055 2.791513,23.21884 0.733929,6.47006 2.008983,12.88764 1.953845,19.41966 0.224257,3.34356 0.122959,7.32944 2.792179,9.75605 2.111838,1.29223 4.644194,0.70486 7.029161,0.71713 2.073172,-0.13557 4.091271,-0.40504 6.00111,-1.28444 4.154626,-1.3941 8.401397,-2.15145 12.787518,-2.33078 7.989262,-0.87897 15.9671097,-2.27953 24.03470523,-1.96653 12.38108977,0.0109 24.76217477,0.0288 37.14327377,0.0329 14.496522,0.006 28.993047,0.004 43.489569,0.0111 14.754733,0.0121 29.509476,0.0147 44.264206,0.006 12.70227,-0.0279 25.40716,-0.025 38.10541,-0.38583 10.25103,-0.3782 20.46914,-1.12066 30.66844,-2.2297 9.23484,-0.56987 18.49145,-0.18593 27.73996,-0.35146 0,0 -11.42846,8.30326 -11.42846,8.30326 z" />
    <path
       style="stroke-width:4;stroke-miterlimit:4;stroke-dasharray:none"
       id="path4379"
       d="m -370.26567,525.28736 c 4.06215,11.13596 7.24675,22.55325 11.10018,33.76075 4.0514,11.55425 9.0794,22.70597 14.06012,33.87516 3.06529,6.40362 5.89624,12.94085 9.71297,18.94563 0.7882,0.97458 1.88998,3.35367 3.53203,3.26627 0.31299,-0.0167 1.06761,-0.65497 0.78871,-0.51196 -3.70785,1.9013 -7.18029,4.31961 -11.07956,5.78887 -0.74345,0.28013 0.79517,-1.37566 1.19275,-2.06349 3.87392,-9.61767 5.89925,-19.89967 8.03118,-30.0164 2.93747,-13.0467 5.34324,-26.20251 8.05072,-39.29499 0.71799,-6.63335 3.77805,-13.27699 3.64784,-20.00629 -2.90154,-3.62883 15.17337,-10.03597 9.93533,-5.16153 0,0 -13.11159,5.43087 -13.11159,5.43087 l 0,0 c 4.01555,-4.3013 13.74735,-14.04797 15.78212,-6.77824 0.55925,6.82699 -3.19334,13.72692 -3.75285,20.47021 -2.82177,13.07314 -5.14761,26.25456 -8.08484,39.30672 -2.08717,10.1605 -4.12026,20.43098 -7.64563,30.20477 -3.21516,8.23837 -14.69999,15.48443 -19.48874,6.47398 -3.81081,-6.08903 -6.56769,-12.74747 -9.66281,-19.2111 -4.92656,-11.24087 -9.92285,-22.45174 -14.00171,-34.04173 -3.86561,-11.18611 -7.02371,-22.60887 -11.39354,-33.61526 0,0 12.38732,-6.82224 12.38732,-6.82224 z" />
    <path
       style="stroke-width:4;stroke-miterlimit:4;stroke-dasharray:none"
       id="path4381"
       d="m -220.89832,502.79692 c -8.42897,7.14216 -15.80099,15.26054 -22.0635,24.34044 -7.07377,10.6796 -11.5697,22.60561 -14.32237,35.04477 -2.39107,10.41013 -0.99392,20.55832 1.77716,30.67624 2.06235,7.1 5.90134,12.85381 12.51531,16.23495 2.54669,1.13513 5.05568,1.47145 7.79574,1.39539 0,0 -11.44312,8.27312 -11.44312,8.27312 l 0,0 c -2.84937,-0.20397 -5.5491,-0.66107 -8.14523,-1.96141 -6.74989,-3.81974 -10.84306,-9.82039 -12.997,-17.26942 -2.81976,-10.32357 -4.38057,-20.66628 -2.00517,-31.31122 2.67237,-12.58759 7.10501,-24.66837 14.12406,-35.53578 6.07339,-9.15165 13.29827,-17.38666 21.71456,-24.48178 0,0 13.04956,-5.4053 13.04956,-5.4053 z" />
    <path
       style="stroke-width:4;stroke-miterlimit:4;stroke-dasharray:none"
       id="path4383"
       d="m -190.55286,614.75566 c -7.08043,-6.08385 -12.1152,-13.66011 -16.44935,-21.82713 -5.29234,-10.76567 -7.80825,-22.40323 -9.4276,-34.20086 -0.76679,-8.25622 -1.18927,-16.48437 -2.6043,-24.66321 -0.69288,-3.42943 -0.59965,-6.96366 -2.09199,-10.17142 0,0 12.35447,-6.98211 12.35447,-6.98211 l 0,0 c 1.53286,3.35781 1.58886,6.94209 2.17937,10.55077 1.34423,8.23012 1.84315,16.47875 2.46618,24.7888 1.52731,11.65666 3.95922,23.13408 9.20274,33.75937 4.27388,7.99753 9.22769,15.43621 16.34428,21.22473 0,0 -11.9738,7.52106 -11.9738,7.52106 z" />
    <path
       style="stroke-width:4;stroke-miterlimit:4;stroke-dasharray:none"
       id="path4385"
       d="m -217.87314,554.35553 c 9.39018,1.60764 18.98028,1.09981 28.40033,0.0433 9.30252,-1.79002 18.47329,-4.34771 27.40143,-7.51001 4.44343,-1.5261 2.31242,-0.79339 6.39316,-2.19777 0,0 -11.11281,8.64738 -11.11281,8.64738 l 0,0 c -4.04518,1.37473 -1.92976,0.65383 -6.34589,2.16373 -8.99507,2.99842 -18.14036,5.67255 -27.51245,7.19772 -9.57756,0.94655 -19.26505,1.36835 -28.80489,-0.21897 0,0 11.58112,-8.1254 11.58112,-8.1254 z" />
    <path
       style="stroke-width:4;stroke-miterlimit:4;stroke-dasharray:none"
       id="path4387"
       d="m -186.55524,501.80949 c 7.67159,8.74821 13.85367,18.67189 20.3077,28.32192 7.51431,11.53285 12.41588,24.11906 15.40895,37.48364 2.23851,13.68505 0.68832,27.08094 -3.9209,40.05364 -3.35427,9.19579 -8.39884,16.94186 -16.0008,23.0605 0,0 -12.99054,5.18291 -12.99054,5.18291 l 0,0 c 7.86013,-5.74911 13.03503,-13.2268 16.4407,-22.3926 4.76601,-12.69793 6.39754,-25.86524 4.28832,-39.35836 -2.89678,-13.21871 -7.75136,-25.63049 -15.15802,-37.034 -6.42227,-9.56651 -12.55212,-19.46923 -20.41873,-27.93749 0,0 12.04332,-7.38016 12.04332,-7.38016 z" />
    <path
       style="stroke-width:4;stroke-miterlimit:4;stroke-dasharray:none"
       id="path4389"
       d="m 194.86477,134.40505 c 0.18148,12.04891 -0.41119,24.0459 -1.74799,36.01826 -1.20465,14.79448 -3.9856,29.33747 -6.63382,43.9171 -1.84029,7.62075 -2.98236,15.53895 -6.41925,22.65852 -12.72873,17.30152 -16.05965,4.82437 -17.06519,-4.09252 -1.15163,-10.56678 0.10522,-21.08022 2.16433,-31.44159 2.36504,-11.89556 7.71501,-22.34937 14.89816,-31.97737 8.86646,-9.31461 20.24343,-16.43565 32.55254,-20.23167 5.19047,-1.42314 9.78536,-0.23727 13.25423,3.82321 3.51178,4.8108 2.77119,10.65042 1.69524,16.14183 -2.34732,8.65882 -7.02772,16.37471 -12.12309,23.66336 -3.91614,6.24914 -8.39236,11.98039 -13.75031,17.03835 -3.08573,2.78132 -5.37452,4.42932 -2.18346,7.98695 5.26009,3.40692 11.62279,5.03152 17.55642,6.98442 7.44727,2.55215 14.9347,4.98579 21.91214,8.669 6.23859,3.01845 11.86046,7.10247 17.87835,10.51361 4.15715,1.82657 8.51393,4.36963 13.05593,5.03293 2.31427,-0.004 1.15555,0.16381 3.469,-0.55146 0,0 -11.27553,8.5608 -11.27553,8.5608 l 0,0 c -2.60578,0.33713 -1.33189,0.32393 -3.82099,0.0823 -4.58821,-1.20398 -9.03766,-3.26751 -13.22255,-5.4612 -5.96056,-3.46381 -11.61234,-7.45957 -17.82523,-10.47795 -6.96192,-3.5583 -14.38552,-5.99314 -21.78028,-8.48867 -6.13423,-2.0488 -12.84079,-3.62127 -18.06627,-7.54613 -3.45735,-4.01863 -2.83813,-6.6121 1.26329,-9.96109 5.44874,-4.96351 10.14134,-10.47614 13.96387,-16.81483 5.11837,-7.10382 9.80399,-14.64052 12.29463,-23.10917 1.12512,-5.0123 2.065,-10.49373 -1.14587,-14.95368 -3.29627,-3.64255 -7.70689,-3.92526 -12.27919,-2.50309 -4.50476,1.52054 -14.88363,6.81733 2.3295,-2.71053 1.27388,-0.70512 -2.47513,1.53981 -3.64757,2.40315 -3.10953,2.28974 -4.48303,3.74631 -7.30735,6.40361 -7.2823,9.42365 -12.81289,19.62842 -15.21218,31.43282 -2.09167,10.19718 -3.36566,20.565 -2.2074,30.97614 0.26316,2.32698 0.37564,4.12658 0.93907,6.36897 0.1748,0.69566 0.39635,1.38305 0.68289,2.04061 0.19207,0.44074 1.12375,0.93954 0.74466,1.23524 -3.56004,2.77695 -7.68804,4.73707 -11.501,7.15505 -0.26151,0.16583 0.56055,-0.26329 0.84083,-0.39494 4.05798,-6.75923 4.78899,-14.93705 6.88791,-22.39457 2.71622,-14.55153 5.56945,-29.06533 6.72158,-43.85239 1.3477,-11.87305 1.98683,-23.77873 1.52327,-35.73018 0,0 12.58668,-6.41324 12.58668,-6.41324 z" />
    <path
       style="stroke-width:4;stroke-miterlimit:4;stroke-dasharray:none"
       id="path4391"
       d="m 494.26515,403.15421 c -2.85923,12.38019 -4.96971,24.94549 -7.11391,37.47083 -2.52353,14.2564 -4.96045,28.5324 -7.22401,42.83306 -0.55665,6.40677 -3.656,14.04379 0.55791,19.7611 5.90087,1.71218 12.61557,-1.29906 18.39172,-2.64597 10.93936,-2.83663 21.85949,-5.73746 33.01002,-7.62383 8.73387,-1.374 17.58089,-1.71843 26.40652,-1.88681 3.98593,-0.0618 7.97273,-0.0686 11.95907,-0.0489 6.69097,0.66444 -9.24128,8.37385 -14.30327,8.36508 0,0 11.45381,-8.32592 11.45381,-8.32592 l 0,0 c 7.45559,-0.0488 -4.76556,7.79051 -8.66961,8.31002 -3.92843,-0.0702 -7.85777,-0.0736 -11.7865,-0.0225 -8.75482,0.17646 -17.52789,0.55084 -26.18209,1.98507 -11.13336,1.97647 -22.05015,4.89021 -32.99138,7.72035 -6.01862,1.47662 -13.70421,4.92447 -19.47353,1.36147 -4.3306,-6.29626 -1.79906,-13.82832 -0.83828,-20.84357 2.29368,-14.32115 4.86032,-28.60014 7.31811,-42.89372 2.08665,-12.51054 4.28352,-25.01641 6.73092,-37.45797 0,0 12.7545,-6.05777 12.7545,-6.05777 z" />
    <path
       style="stroke-width:4;stroke-miterlimit:4;stroke-dasharray:none"
       id="path4393"
       d="m 283.38213,888.36433 c -6.57643,1.20528 -12.95911,3.32658 -18.93653,6.32351 -1.77257,0.88871 -7.07009,3.56757 -5.22189,2.84926 2.43224,-0.9453 4.65673,-2.35636 6.98509,-3.53454 -8.59278,6.11368 -15.25043,13.96523 -19.64329,23.50691 -2.59848,8.47187 -0.62792,12.94192 7.30799,16.52516 9.95396,3.36352 20.2895,1.80036 30.4198,0.31575 10.9342,-1.862 21.21977,-6.14161 31.51423,-10.10641 4.63722,-1.86104 9.4032,-3.43311 14.26736,-4.5861 -16.51582,8.95943 -9.29646,9.56399 -11.85669,3.87506 0,0 12.32928,-6.9892 12.32928,-6.9892 l 0,0 c 3.67881,7.35873 -0.92767,5.93911 -11.7712,11.74383 -4.75259,1.19553 -9.40732,2.75454 -13.9573,4.57349 -10.31789,3.96014 -20.67867,8.09843 -31.65723,9.82252 -10.35055,1.46221 -20.92199,2.80307 -30.98906,-0.91968 -8.3003,-4.16587 -10.82495,-9.25997 -8.33263,-18.43179 4.26572,-9.78343 10.7915,-17.90353 19.44004,-24.25047 13.18099,-8.05866 25.83366,-16.81345 41.41023,-19.18092 0,0 -11.3082,8.46362 -11.3082,8.46362 z" />
  </g>
</svg>
