<?xml version="1.0" encoding="UTF-8" standalone="no"?>
<!-- Created with Inkscape (http://www.inkscape.org/) -->

<svg
   xmlns:dc="http://purl.org/dc/elements/1.1/"
   xmlns:cc="http://creativecommons.org/ns#"
   xmlns:rdf="http://www.w3.org/1999/02/22-rdf-syntax-ns#"
   xmlns:svg="http://www.w3.org/2000/svg"
   xmlns="http://www.w3.org/2000/svg"
   xmlns:sodipodi="http://sodipodi.sourceforge.net/DTD/sodipodi-0.dtd"
   xmlns:inkscape="http://www.inkscape.org/namespaces/inkscape"
   width="623.58466"
   height="143.51128"
   id="svg2"
   sodipodi:version="0.32"
   inkscape:version="0.47pre4 r22446"
   sodipodi:docname="Onde_electromagnetique.svg"
   version="1.0">
  <defs
     id="defs4">
    <inkscape:perspective
       sodipodi:type="inkscape:persp3d"
       inkscape:vp_x="0 : 88.130737 : 1"
       inkscape:vp_y="0 : 1000 : 0"
       inkscape:vp_z="714.03101 : 88.130737 : 1"
       inkscape:persp3d-origin="357.0155 : 58.753825 : 1"
       id="perspective7588" />
    <marker
       inkscape:stockid="TriangleInL"
       orient="auto"
       refY="0"
       refX="0"
       id="TriangleInL"
       style="overflow:visible">
      <path
         id="path13095"
         d="m 5.77,0 -8.65,5 0,-10 8.65,5 z"
         style="fill-rule:evenodd;stroke:#000000;stroke-width:1pt;marker-start:none"
         transform="scale(-0.8,-0.8)" />
    </marker>
    <marker
       inkscape:stockid="TriangleOutL"
       orient="auto"
       refY="0"
       refX="0"
       id="TriangleOutL"
       style="overflow:visible">
      <path
         id="path13086"
         d="m 5.77,0 -8.65,5 0,-10 8.65,5 z"
         style="fill-rule:evenodd;stroke:#000000;stroke-width:1pt;marker-start:none"
         transform="scale(0.8,0.8)" />
    </marker>
    <marker
       inkscape:stockid="StopL"
       orient="auto"
       refY="0"
       refX="0"
       id="StopL"
       style="overflow:visible">
      <path
         id="path13077"
         d="M 0,5.65 0,-5.65"
         style="fill:none;stroke:#000000;stroke-width:1pt"
         transform="scale(0.8,0.8)" />
    </marker>
  </defs>
  <sodipodi:namedview
     id="base"
     pagecolor="#ffffff"
     bordercolor="#666666"
     borderopacity="1.0"
     gridtolerance="10000"
     guidetolerance="10"
     objecttolerance="10"
     inkscape:pageopacity="0.0"
     inkscape:pageshadow="2"
     inkscape:zoom="1.4"
     inkscape:cx="326.20231"
     inkscape:cy="93.179964"
     inkscape:document-units="px"
     inkscape:current-layer="layer1"
     inkscape:window-width="1280"
     inkscape:window-height="750"
     inkscape:window-x="-4"
     inkscape:window-y="-3"
     showguides="true"
     inkscape:guide-bbox="true"
     showgrid="false"
     inkscape:window-maximized="1" />
  <metadata
     id="metadata7">
    <rdf:RDF>
      <cc:Work
         rdf:about="">
        <dc:format>image/svg+xml</dc:format>
        <dc:type
           rdf:resource="http://purl.org/dc/dcmitype/StillImage" />
      </cc:Work>
    </rdf:RDF>
  </metadata>
  <g
     inkscape:label="Layer 1"
     inkscape:groupmode="layer"
     id="layer1"
     style="display:inline"
     transform="translate(-143.92857,-668.95773)">
    <path
       style="fill:none;stroke:#000000;stroke-width:1;stroke-linecap:butt;stroke-linejoin:miter;stroke-miterlimit:4;stroke-opacity:1;stroke-dasharray:8, 2, 1, 2;stroke-dashoffset:0"
       d="m 144.42857,753.43361 495.53571,-0.17857"
       id="path1904"
       sodipodi:nodetypes="cc" />
    <path
       sodipodi:nodetypes="ccccc"
       d="m 648.71422,753.49868 -39.86192,-0.10707 m 28.77053,5.64167 11.23063,-5.64703 -12.32545,-6.04656"
       style="fill:none;stroke:#000000;stroke-width:2;stroke-linecap:round;stroke-linejoin:miter;stroke-miterlimit:4;stroke-opacity:1;stroke-dasharray:none;display:inline"
       id="path4814" />
    <path
       id="path14096"
       style="fill-rule:evenodd;stroke:#000000;stroke-width:0.8pt;marker-start:none"
       d="m 484.76846,695.43883 -6.92437,3.99244 0.009,-8 6.91563,4.00756 z m -249.71421,-0.7824 0,1 245.09375,0.28125 0,-1 -245.09375,-0.28125 z m -4.60707,0.50447 6.92437,-3.99244 -0.009,8 -6.91563,-4.00756 z m -0.57218,-0.50019 0,1 255.375,0.375 0,-1 -255.375,-0.375 z m 0.003,5.02523 0.0126,-9.04 m 255.3445,9.39714 0.0126,-9.04" />
    <text
       xml:space="preserve"
       style="font-size:20px;font-style:normal;font-weight:normal;fill:#000000;fill-opacity:1;stroke:none;font-family:Times New Roman"
       x="349.78568"
       y="691.30316"
       id="text14136"><tspan
         sodipodi:role="line"
         id="tspan14138"
         x="349.78568"
         y="691.30316">λ</tspan></text>
    <g
       id="g15994"
       transform="translate(-97.71429,20)">
      <path
         id="path4794"
         style="fill:none;stroke:#ff5555;stroke-width:1.5;stroke-linecap:round;stroke-linejoin:miter;stroke-miterlimit:4;stroke-opacity:1;display:inline"
         d="m 802.24017,735.02661 39.86192,-0.10707 m -28.77053,5.64167 -11.23063,-5.64703 12.32545,-6.04656"
         sodipodi:nodetypes="ccccc" />
      <path
         id="path5710"
         style="fill:none;stroke:#2a30ec;stroke-width:1.5;stroke-linecap:round;stroke-linejoin:miter;stroke-miterlimit:4;stroke-opacity:1;display:inline"
         d="m 852.19864,678.34907 0.1071,44.50482 m -6.37765,-32.32662 6.29366,-12.2282 6.13589,12.2362"
         sodipodi:nodetypes="ccccc" />
      <g
         id="g15962">
        <g
           style="stroke:#2a30ec;stroke-opacity:1;display:inline"
           id="g9420"
           transform="matrix(-0.571749,-0.820429,0.820429,-0.571749,160.8527,893.0072)">
          <path
             id="path9422"
             style="fill:none;stroke:#2a30ec;stroke-width:0.98231149;stroke-linecap:round;stroke-linejoin:miter;stroke-miterlimit:4;stroke-opacity:1"
             d="m -205.29962,714.75344 10.79488,-15.53622 m -3.53335,10.94495 -7.37381,4.63413 2.07112,-9.29912"
             sodipodi:nodetypes="ccccc" />
        </g>
        <text
           xml:space="preserve"
           style="font-size:20px;font-style:normal;font-weight:normal;fill:#2a30ec;fill-opacity:1;stroke:none;font-family:Arial"
           x="845.14288"
           y="672.21918"
           id="text9424"><tspan
             sodipodi:role="line"
             id="tspan9426"
             x="845.14288"
             y="672.21918">E</tspan></text>
      </g>
      <g
         id="g15968">
        <g
           id="g4808"
           transform="matrix(-0.571749,-0.820429,0.820429,-0.571749,91.7623,964.0543)">
          <path
             id="path4810"
             style="fill:none;stroke:#ff5555;stroke-width:0.98231149;stroke-linecap:round;stroke-linejoin:miter;stroke-miterlimit:4;stroke-opacity:1"
             d="m -205.29962,714.75344 10.79488,-15.53622 m -3.53335,10.94495 -7.37381,4.63413 2.07112,-9.29912"
             sodipodi:nodetypes="ccccc" />
        </g>
        <text
           xml:space="preserve"
           style="font-size:20px;font-style:normal;font-weight:normal;fill:#ff5555;fill-opacity:1;stroke:none;display:inline;font-family:Arial"
           x="775.93329"
           y="743.0918"
           id="text10313"><tspan
             sodipodi:role="line"
             id="tspan10315"
             x="775.93329"
             y="743.0918">B</tspan></text>
      </g>
      <g
         id="g15978">
        <g
           id="g15053"
           transform="matrix(-0.411557,-0.497537,0.590562,-0.346729,351.2183,897.4204)">
          <path
             id="path15055"
             style="fill:none;stroke:#000000;stroke-width:1.5;stroke-linecap:round;stroke-linejoin:miter;stroke-miterlimit:4;stroke-opacity:1"
             d="m -207.54346,722.71896 15.10243,-21.74806 m -4.21081,15.83 -11.06355,5.96774 2.10777,-13.56595"
             sodipodi:nodetypes="ccccc" />
        </g>
        <text
           xml:space="preserve"
           style="font-size:20px;font-style:italic;font-weight:normal;fill:#000000;fill-opacity:1;stroke:none;display:inline;font-family:Arial"
           x="845.73785"
           y="768.64447"
           id="text15057"><tspan
             sodipodi:role="line"
             id="tspan15059"
             x="845.73785"
             y="768.64447">k</tspan></text>
      </g>
      <g
         transform="translate(24.28571,-117.8571)"
         id="g15950">
        <path
           sodipodi:type="arc"
           style="fill:none;stroke:#000000;stroke-width:1;stroke-linecap:round;stroke-linejoin:miter;stroke-miterlimit:4;stroke-opacity:1;stroke-dasharray:none;stroke-dashoffset:0"
           id="path15061"
           sodipodi:cx="827.85712"
           sodipodi:cy="832.36218"
           sodipodi:rx="7.8571429"
           sodipodi:ry="7.8571429"
           d="m 835.71426,832.36218 c 0,4.33938 -3.51776,7.85715 -7.85714,7.85715 -4.33938,0 -7.85715,-3.51777 -7.85715,-7.85715 0,-4.33938 3.51777,-7.85714 7.85715,-7.85714 4.33938,0 7.85714,3.51776 7.85714,7.85714 z"
           transform="translate(0,18.92857)" />
        <path
           sodipodi:type="arc"
           style="fill:#000000;fill-opacity:1;stroke:#000000;stroke-width:1;stroke-linecap:round;stroke-linejoin:miter;stroke-miterlimit:4;stroke-opacity:1;stroke-dasharray:none;stroke-dashoffset:0"
           id="path15948"
           sodipodi:cx="824.28571"
           sodipodi:cy="876.64789"
           sodipodi:rx="1.4285715"
           sodipodi:ry="1.4285715"
           d="m 825.71428,876.64789 c 0,0.78898 -0.6396,1.42857 -1.42857,1.42857 -0.78898,0 -1.42858,-0.63959 -1.42858,-1.42857 0,-0.78898 0.6396,-1.42857 1.42858,-1.42857 0.78897,0 1.42857,0.63959 1.42857,1.42857 z"
           transform="translate(3.571411,-25.35714)" />
      </g>
    </g>
    <g
       style="display:inline"
       id="g15984"
       transform="translate(-229.5366,12.06741)">
      <g
         transform="matrix(-0.411557,-0.497537,0.590562,-0.346729,351.2183,897.4204)"
         id="g15986">
        <path
           sodipodi:nodetypes="ccccc"
           d="m -207.54346,722.71896 15.10243,-21.74806 m -4.21081,15.83 -11.06355,5.96774 2.10777,-13.56595"
           style="fill:none;stroke:#000000;stroke-width:1.5;stroke-linecap:round;stroke-linejoin:miter;stroke-miterlimit:4;stroke-opacity:1"
           id="path15988" />
      </g>
      <text
         id="text15990"
         y="768.64447"
         x="845.73785"
         style="font-size:20px;font-style:italic;font-weight:normal;fill:#000000;fill-opacity:1;stroke:none;display:inline;font-family:Arial"
         xml:space="preserve"><tspan
           y="768.64447"
           x="845.73785"
           id="tspan15992"
           sodipodi:role="line">k</tspan></text>
    </g>
  </g>
  <g
     inkscape:groupmode="layer"
     id="layer2"
     inkscape:label="electric"
     style="display:inline"
     transform="translate(-143.92857,-668.95773)">
    <path
       style="fill:none;stroke:#2a30ec;stroke-width:1;stroke-linecap:butt;stroke-linejoin:miter;stroke-miterlimit:4;stroke-opacity:1;stroke-dasharray:12, 1;stroke-dashoffset:0;display:inline"
       d="m 625.91133,811.94587 c 0,0 -30.90949,2.97605 -73.23605,-58.58884 -46.74747,-67.9952 -98.80495,-59.15527 -131.31984,-1.51523 -33.33503,59.09393 -59.599,98.23733 -125.25891,1.26269 -65.65992,-96.97465 -110.86424,-28.41054 -137.38075,0.50508"
       id="path1902"
       sodipodi:nodetypes="cssss" />
    <path
       sodipodi:nodetypes="ccccc"
       d="m 195.82363,718.43837 -0.10425,34.63688 m -6.1663,-22.45868 6.29366,-12.2282 6.13589,12.2362"
       style="fill:none;stroke:#2a30ec;stroke-width:1.5;stroke-linecap:round;stroke-linejoin:miter;stroke-miterlimit:4;stroke-opacity:1;display:inline"
       id="path5758" />
    <path
       sodipodi:nodetypes="ccccc"
       d="m 220.73435,706.56337 -0.13973,46.42439 m -6.13082,-34.24619 6.29366,-12.2282 6.13589,12.2362"
       style="fill:none;stroke:#2a30ec;stroke-width:1.5;stroke-linecap:round;stroke-linejoin:miter;stroke-miterlimit:4;stroke-opacity:1;display:inline"
       id="path5760" />
    <path
       sodipodi:nodetypes="ccccc"
       d="m 245.46649,708.52765 -0.13462,44.7269 m -6.13593,-32.5487 6.29366,-12.2282 6.13589,12.2362"
       style="fill:none;stroke:#2a30ec;stroke-width:1.5;stroke-linecap:round;stroke-linejoin:miter;stroke-miterlimit:4;stroke-opacity:1;display:inline"
       id="path5762" />
    <path
       sodipodi:nodetypes="ccccc"
       d="m 268.5022,723.34908 -0.0895,29.72756 m -6.18108,-17.54936 6.29366,-12.2282 6.13589,12.2362"
       style="fill:none;stroke:#2a30ec;stroke-width:1.5;stroke-linecap:round;stroke-linejoin:miter;stroke-miterlimit:4;stroke-opacity:1;display:inline"
       id="path5764" />
    <path
       sodipodi:nodetypes="ccccc"
       d="m 443.77006,725.1348 -0.0857,28.47507 m -6.18485,-16.29687 6.29366,-12.2282 6.13589,12.2362"
       style="fill:none;stroke:#2a30ec;stroke-width:1.5;stroke-linecap:round;stroke-linejoin:miter;stroke-miterlimit:4;stroke-opacity:1;display:inline"
       id="path5766" />
    <path
       sodipodi:nodetypes="ccccc"
       d="m 467.34149,710.67051 -0.12886,42.81322 m -6.14169,-30.63502 6.29366,-12.2282 6.13589,12.2362"
       style="fill:none;stroke:#2a30ec;stroke-width:1.5;stroke-linecap:round;stroke-linejoin:miter;stroke-miterlimit:4;stroke-opacity:1;display:inline"
       id="path5768" />
    <path
       sodipodi:nodetypes="ccccc"
       d="m 489.30577,708.17051 -0.13638,45.31318 m -6.13417,-33.13498 6.29366,-12.2282 6.13589,12.2362"
       style="fill:none;stroke:#2a30ec;stroke-width:1.5;stroke-linecap:round;stroke-linejoin:miter;stroke-miterlimit:4;stroke-opacity:1;display:inline"
       id="path5770" />
    <path
       sodipodi:nodetypes="ccccc"
       d="m 510.55578,715.49194 -0.11472,38.11745 m -6.15583,-25.93925 6.29366,-12.2282 6.13589,12.2362"
       style="fill:none;stroke:#2a30ec;stroke-width:1.5;stroke-linecap:round;stroke-linejoin:miter;stroke-miterlimit:4;stroke-opacity:1;display:inline"
       id="path5772" />
    <path
       sodipodi:nodetypes="ccccc"
       d="m 530.02005,729.24193 -0.0722,23.98921 m -6.19835,-11.81101 6.29366,-12.2282 6.13589,12.2362"
       style="fill:none;stroke:#2a30ec;stroke-width:1.5;stroke-linecap:round;stroke-linejoin:miter;stroke-miterlimit:4;stroke-opacity:1;display:inline"
       id="path5774" />
    <path
       sodipodi:nodetypes="ccccc"
       d="m 575.91291,779.41099 -0.0803,-26.68585 m -6.19023,14.50765 6.29366,12.2282 6.13589,-12.2362"
       style="fill:none;stroke:#2a30ec;stroke-width:1.5;stroke-linecap:round;stroke-linejoin:miter;stroke-miterlimit:4;stroke-opacity:1;display:inline"
       id="path5776" />
    <path
       sodipodi:nodetypes="ccccc"
       d="m 594.84149,796.37529 -0.13176,-43.77583 m -6.13879,31.59763 6.29366,12.2282 6.13589,-12.2362"
       style="fill:none;stroke:#2a30ec;stroke-width:1.5;stroke-linecap:round;stroke-linejoin:miter;stroke-miterlimit:4;stroke-opacity:1;display:inline"
       id="path5778" />
    <path
       sodipodi:nodetypes="ccccc"
       d="m 348.41292,805.66099 -0.15932,-52.93533 m -6.11123,40.75713 6.29366,12.2282 6.13589,-12.2362"
       style="fill:none;stroke:#2a30ec;stroke-width:1.5;stroke-linecap:round;stroke-linejoin:miter;stroke-miterlimit:4;stroke-opacity:1;display:inline"
       id="path5782" />
    <path
       sodipodi:nodetypes="ccccc"
       d="m 371.44863,808.161 -0.16609,-55.1837 m -6.10446,43.0055 6.29366,12.2282 6.13589,-12.2362"
       style="fill:none;stroke:#2a30ec;stroke-width:1.5;stroke-linecap:round;stroke-linejoin:miter;stroke-miterlimit:4;stroke-opacity:1;display:inline"
       id="path5784" />
    <path
       sodipodi:nodetypes="ccccc"
       d="m 395.73435,788.87528 -0.10728,-35.64424 m -6.16327,23.46604 6.29366,12.2282 6.13589,-12.2362"
       style="fill:none;stroke:#2a30ec;stroke-width:1.5;stroke-linecap:round;stroke-linejoin:miter;stroke-miterlimit:4;stroke-opacity:1;display:inline"
       id="path5786" />
    <path
       sodipodi:nodetypes="ccccc"
       d="m 324.30578,786.286 -0.22842,-33.18173 m -6.04213,21.00353 6.29366,12.2282 6.13589,-12.2362"
       style="fill:none;stroke:#2a30ec;stroke-width:1.5;stroke-linecap:round;stroke-linejoin:miter;stroke-miterlimit:4;stroke-opacity:1;display:inline"
       id="path5780" />
  </g>
  <g
     inkscape:groupmode="layer"
     id="layer3"
     inkscape:label="magnetic"
     style="display:inline"
     transform="translate(-143.92857,-668.95773)">
    <g
       style="display:inline"
       id="g2813"
       transform="translate(380.5656,63.43995)">
      <path
         id="path2815"
         style="fill:none;stroke:#ff5555;stroke-width:1.5;stroke-linecap:round;stroke-linejoin:miter;stroke-miterlimit:4;stroke-opacity:1"
         d="m -207.54346,722.71896 22.75501,-32.7291 m -11.86339,26.81104 -11.06355,5.96774 2.10777,-13.56595"
         sodipodi:nodetypes="ccccc" />
    </g>
    <path
       style="fill:none;stroke:#ff5555;stroke-width:1;stroke-linecap:butt;stroke-linejoin:miter;stroke-miterlimit:4;stroke-opacity:1;stroke-dasharray:12, 1;stroke-dashoffset:0;display:inline"
       d="m 158.71429,753.07647 c 17.14285,40 10.12687,90.17148 137.85714,0 104.18167,-73.54729 119.12919,-16.58461 124.24239,-0.33176 10.7135,34.05399 3.19009,87.7658 131.80366,0.41842 61.28048,-41.57544 72.47462,-36.76777 72.47462,-36.76777"
       id="path1900"
       sodipodi:nodetypes="csssc" />
    <g
       style="display:inline"
       id="g4736"
       transform="translate(396.0376,77.41149)">
      <path
         id="path4738"
         style="fill:none;stroke:#ff5555;stroke-width:1.5;stroke-linecap:round;stroke-linejoin:miter;stroke-miterlimit:4;stroke-opacity:1"
         d="m -207.54346,722.71896 32.39787,-46.65767 m -21.50625,40.73961 -11.06355,5.96774 2.10777,-13.56595"
         sodipodi:nodetypes="ccccc" />
    </g>
    <g
       style="display:inline"
       id="g4740"
       transform="translate(421.9305,75.44722)">
      <path
         id="path4742"
         style="fill:none;stroke:#ff5555;stroke-width:1.5;stroke-linecap:round;stroke-linejoin:miter;stroke-miterlimit:4;stroke-opacity:1"
         d="m -207.54346,722.71896 30.9693,-44.69339 m -20.07768,38.77533 -11.06355,5.96774 2.10777,-13.56595"
         sodipodi:nodetypes="ccccc" />
    </g>
    <g
       style="display:inline"
       id="g4744"
       transform="translate(455.8591,59.73294)">
      <path
         id="path4746"
         style="fill:none;stroke:#ff5555;stroke-width:1.5;stroke-linecap:round;stroke-linejoin:miter;stroke-miterlimit:4;stroke-opacity:1"
         d="m -207.54346,722.71896 20.18972,-29.03938 m -9.2981,23.12132 -11.06355,5.96774 2.10777,-13.56595"
         sodipodi:nodetypes="ccccc" />
    </g>
    <g
       style="display:inline"
       id="g4748"
       transform="matrix(-1.029111,0,0,-1.029111,129.0915,1470.467)">
      <path
         id="path4750"
         style="fill:none;stroke:#ff5555;stroke-width:1;stroke-linecap:round;stroke-linejoin:miter;stroke-miterlimit:4;stroke-opacity:1;stroke-dasharray:none"
         d="m -207.54346,722.71896 17.62789,-24.97547 m -6.73627,19.05741 -11.06355,5.96774 2.10777,-13.56595"
         sodipodi:nodetypes="ccccc" />
    </g>
    <g
       style="display:inline"
       id="g4752"
       transform="matrix(-1.025625,0,0,-1.025625,159.3608,1459.427)">
      <path
         id="path4754"
         style="fill:none;stroke:#ff5555;stroke-width:1;stroke-linecap:round;stroke-linejoin:miter;stroke-miterlimit:4;stroke-opacity:1;stroke-dasharray:none"
         d="m -207.54346,722.71896 23.29072,-33.44339 m -12.3991,27.52533 -11.06355,5.96774 2.10777,-13.56595"
         sodipodi:nodetypes="ccccc" />
    </g>
    <g
       style="display:inline"
       id="g4756"
       transform="matrix(-1.034745,0,0,-1.034745,179.8028,1467.914)">
      <path
         id="path4758"
         style="fill:none;stroke:#ff5555;stroke-width:1;stroke-linecap:round;stroke-linejoin:miter;stroke-miterlimit:4;stroke-opacity:1;stroke-dasharray:none"
         d="m -207.54346,722.71896 22.57644,-31.65767 m -11.68482,25.73961 -11.06355,5.96774 2.10777,-13.56595"
         sodipodi:nodetypes="ccccc" />
    </g>
    <g
       style="display:inline"
       id="g4760"
       transform="matrix(-1.048904,0,0,-1.048904,192.2938,1490.423)">
      <path
         id="path4762"
         style="fill:none;stroke:#ff5555;stroke-width:1;stroke-linecap:round;stroke-linejoin:miter;stroke-miterlimit:4;stroke-opacity:1;stroke-dasharray:none"
         d="m -207.54346,722.71896 13.71634,-19.60623 m -2.82472,13.68817 -11.06355,5.96774 2.10777,-13.56595"
         sodipodi:nodetypes="ccccc" />
    </g>
    <g
       style="display:inline"
       id="g4764"
       transform="translate(636.0376,52.4115)">
      <path
         id="path4766"
         style="fill:none;stroke:#ff5555;stroke-width:1.5;stroke-linecap:round;stroke-linejoin:miter;stroke-miterlimit:4;stroke-opacity:1"
         d="m -207.54346,722.71896 15.04521,-21.6399 m -4.15359,15.72184 -11.06355,5.96774 2.10777,-13.56595"
         sodipodi:nodetypes="ccccc" />
    </g>
    <g
       style="display:inline"
       id="g4768"
       transform="translate(646.5734,70.80437)">
      <path
         id="path4770"
         style="fill:none;stroke:#ff5555;stroke-width:1.5;stroke-linecap:round;stroke-linejoin:miter;stroke-miterlimit:4;stroke-opacity:1"
         d="m -207.54346,722.71896 28.11215,-40.05053 m -17.22053,34.13247 -11.06355,5.96774 2.10777,-13.56595"
         sodipodi:nodetypes="ccccc" />
    </g>
    <g
       style="display:inline"
       id="g4772"
       transform="translate(666.0376,75.62576)">
      <path
         id="path4774"
         style="fill:none;stroke:#ff5555;stroke-width:1.5;stroke-linecap:round;stroke-linejoin:miter;stroke-miterlimit:4;stroke-opacity:1"
         d="m -207.54346,722.71896 30.61215,-44.33624 m -19.72053,38.41818 -11.06355,5.96774 2.10777,-13.56595"
         sodipodi:nodetypes="ccccc" />
    </g>
    <g
       style="display:inline"
       id="g4776"
       transform="translate(692.8233,67.59011)">
      <path
         id="path4778"
         style="fill:none;stroke:#ff5555;stroke-width:1.5;stroke-linecap:round;stroke-linejoin:miter;stroke-miterlimit:4;stroke-opacity:1"
         d="m -207.54346,722.71896 25.07644,-36.65767 m -14.18482,30.73961 -11.06355,5.96774 2.10777,-13.56595"
         sodipodi:nodetypes="ccccc" />
    </g>
    <g
       style="display:inline"
       id="g4780"
       transform="translate(721.7519,53.30431)">
      <path
         id="path4782"
         style="fill:none;stroke:#ff5555;stroke-width:1.5;stroke-linecap:round;stroke-linejoin:miter;stroke-miterlimit:4;stroke-opacity:1"
         d="m -207.54346,722.71896 15.75462,-22.66026 m -4.863,16.7422 -11.06355,5.96774 2.10777,-13.56595"
         sodipodi:nodetypes="ccccc" />
    </g>
    <g
       style="display:inline"
       id="g4784"
       transform="matrix(-1.045788,0,0,-1.045788,375.1466,1485.488)">
      <path
         id="path4786"
         style="fill:none;stroke:#ff5555;stroke-width:1;stroke-linecap:round;stroke-linejoin:miter;stroke-miterlimit:4;stroke-opacity:1;stroke-dasharray:none"
         d="m -207.54346,722.71896 15.37428,-21.97136 m -4.48266,16.0533 -11.06355,5.96774 2.10777,-13.56595"
         sodipodi:nodetypes="ccccc" />
    </g>
    <g
       style="display:inline"
       id="g4788"
       transform="matrix(-1.033026,0,0,-1.033026,404.0649,1464.77)">
      <path
         id="path4790"
         style="fill:none;stroke:#ff5555;stroke-width:1;stroke-linecap:round;stroke-linejoin:miter;stroke-miterlimit:4;stroke-opacity:1;stroke-dasharray:none"
         d="m -207.54346,722.71896 23.00755,-33.36045 m -12.11593,27.44239 -11.06355,5.96774 2.10777,-13.56595"
         sodipodi:nodetypes="ccccc" />
    </g>
  </g>
</svg>
