<?xml version="1.0" encoding="UTF-8" standalone="no"?>
<!-- Created with Inkscape (http://www.inkscape.org/) -->
<svg
   xmlns:dc="http://purl.org/dc/elements/1.1/"
   xmlns:cc="http://creativecommons.org/ns#"
   xmlns:rdf="http://www.w3.org/1999/02/22-rdf-syntax-ns#"
   xmlns:svg="http://www.w3.org/2000/svg"
   xmlns="http://www.w3.org/2000/svg"
   xmlns:sodipodi="http://sodipodi.sourceforge.net/DTD/sodipodi-0.dtd"
   xmlns:inkscape="http://www.inkscape.org/namespaces/inkscape"
   width="1798.8636"
   height="1275.3043"
   id="svg7504"
   sodipodi:version="0.32"
   inkscape:version="0.46+devel"
   sodipodi:docname="hw7d1.svg"
   inkscape:output_extension="org.inkscape.output.svg.inkscape"
   version="1.0">
  <defs
     id="defs7506">
    <inkscape:perspective
       sodipodi:type="inkscape:persp3d"
       inkscape:vp_x="0 : 526.18109 : 1"
       inkscape:vp_y="0 : 1000 : 0"
       inkscape:vp_z="744.09448 : 526.18109 : 1"
       inkscape:persp3d-origin="372.04724 : 350.78739 : 1"
       id="perspective7512" />
    <inkscape:perspective
       id="perspective8058"
       inkscape:persp3d-origin="0.5 : 0.33333333 : 1"
       inkscape:vp_z="1 : 0.5 : 1"
       inkscape:vp_y="0 : 1000 : 0"
       inkscape:vp_x="0 : 0.5 : 1"
       sodipodi:type="inkscape:persp3d" />
    <inkscape:perspective
       id="perspective8058-0"
       inkscape:persp3d-origin="0.5 : 0.33333333 : 1"
       inkscape:vp_z="1 : 0.5 : 1"
       inkscape:vp_y="0 : 1000 : 0"
       inkscape:vp_x="0 : 0.5 : 1"
       sodipodi:type="inkscape:persp3d" />
    <inkscape:perspective
       id="perspective8089"
       inkscape:persp3d-origin="0.5 : 0.33333333 : 1"
       inkscape:vp_z="1 : 0.5 : 1"
       inkscape:vp_y="0 : 1000 : 0"
       inkscape:vp_x="0 : 0.5 : 1"
       sodipodi:type="inkscape:persp3d" />
  </defs>
  <sodipodi:namedview
     id="base"
     pagecolor="#ffffff"
     bordercolor="#666666"
     borderopacity="1.0"
     inkscape:pageopacity="0.0"
     inkscape:pageshadow="2"
     inkscape:zoom="0.3896146"
     inkscape:cx="838.99724"
     inkscape:cy="501.7779"
     inkscape:document-units="px"
     inkscape:current-layer="layer1"
     showgrid="false"
     showguides="true"
     inkscape:guide-bbox="true"
     inkscape:window-width="1280"
     inkscape:window-height="708"
     inkscape:window-x="-5"
     inkscape:window-y="-3" />
  <metadata
     id="metadata7509">
    <rdf:RDF>
      <cc:Work
         rdf:about="">
        <dc:format>image/svg+xml</dc:format>
        <dc:type
           rdf:resource="http://purl.org/dc/dcmitype/StillImage" />
        <dc:title />
      </cc:Work>
    </rdf:RDF>
  </metadata>
  <g
     inkscape:label="Layer 1"
     inkscape:groupmode="layer"
     id="layer1"
     transform="translate(857.43469,107.44913)">
    <rect
       style="fill:none;stroke:#000000;stroke-width:5;stroke-linecap:round;stroke-miterlimit:4;stroke-opacity:1;stroke-dasharray:none"
       id="rect8044"
       width="1320.6582"
       height="1067.8801"
       x="-601.39227"
       y="23.900139" />
    <rect
       style="fill:none;stroke:#000000;stroke-width:5;stroke-linecap:round;stroke-miterlimit:4;stroke-opacity:1;stroke-dasharray:none"
       id="rect8046"
       width="769.89545"
       height="593.09558"
       x="-314.28659"
       y="223.41884" />
    <path
       style="stroke:#000000;stroke-width:5.0999999;stroke-miterlimit:4;stroke-opacity:1;stroke-dasharray:none"
       d="M -595.53012,1092.7603 -311.07637,814.83429"
       id="path8048" />
    <path
       style="stroke:#000000;stroke-width:5.0999999;stroke-miterlimit:4;stroke-opacity:1;stroke-dasharray:none"
       d="M 458.43851,224.46016 716.51259,30.54203"
       id="path8048-7"
       sodipodi:nodetypes="cc" />
    <path
       style="stroke:#000000;stroke-width:5.0999999;stroke-miterlimit:4;stroke-opacity:1;stroke-dasharray:none"
       d="M -315.40536,221.20924 -600.13826,20.430463"
       id="path8048-2"
       sodipodi:nodetypes="cc" />
    <path
       style="stroke:#000000;stroke-width:5.0999999;stroke-miterlimit:4;stroke-opacity:1;stroke-dasharray:none"
       d="M 715.84306,1056.4313 457.21068,821.90936"
       id="path8048-3"
       sodipodi:nodetypes="cc" />
    <path
       style="fill:#000000;fill-opacity:1;stroke:#000000;stroke-width:5.0999999;stroke-linecap:round;stroke-miterlimit:4;stroke-opacity:1;stroke-dasharray:none"
       id="path8111"
       d="m -432.94544,1073.0475 c 5.7809,-0.4914 11.5246,0.102 17.25979,0.7642 4.84694,0.7183 9.48802,2.2466 14.0713,3.9209 3.36784,1.2793 6.83448,2.7195 9.17496,5.5511 2.49254,4.2898 -0.24696,8.6588 -2.4045,12.4654 -5.28188,8.4233 -11.91857,15.8879 -18.51061,23.2925 -7.56473,8.6559 -16.18219,16.2614 -24.50834,24.154 -3.1332,3.0125 -6.14396,6.1342 -9.03702,9.3754 0,0 -0.52273,0.2308 -0.52273,0.2308 l 0,0 c 0.42737,-2.0228 0.61833,-4.0772 1.25923,-6.0532 3.06329,-7.789 8.48746,-13.8859 14.23114,-19.8893 6.69239,-7.4635 13.40883,-14.9506 19.16892,-23.1748 2.08436,-3.2406 5.26489,-7.1687 4.67841,-11.255 -1.23635,-2.7732 -3.98804,-4.4713 -6.49407,-6.0004 -4.30008,-1.8204 -8.74541,-3.215 -13.36633,-3.9686 -5.32949,-0.8898 -10.7121,-1.4523 -16.12452,-1.2377 0,0 11.12437,-8.1753 11.12437,-8.1753 z" />
    <path
       style="fill:#000000;fill-opacity:1;stroke:#000000;stroke-width:5.0999999;stroke-linecap:round;stroke-miterlimit:4;stroke-opacity:1;stroke-dasharray:none"
       id="path8113"
       d="m 702.16111,915.59422 c 4.6094,-4.2658 9.03385,-8.72478 13.4034,-13.23408 7.10593,-7.63312 14.75822,-16.13894 25.8296,-17.8253 4.17435,0.5518 6.46892,4.10954 8.58631,7.37611 3.11669,5.45348 5.51471,11.31608 6.86757,17.44775 0.61134,5.38833 -0.52729,10.71037 -1.14796,16.02829 0,0 -0.49099,0.29235 -0.49099,0.29235 l 0,0 c -5.25621,-1.3418 -9.91556,-3.53717 -13.17491,-8.11532 -2.82147,-5.39219 -4.80414,-11.17249 -7.70674,-16.52842 -1.58663,-2.55952 -3.51553,-6.10334 -7.00725,-5.72719 -5.77324,2.27779 -4.17225,1.72476 11.79985,-7.25911 0.76274,-0.42902 -1.41684,1.02928 -2.09349,1.58423 -2.48894,2.04128 -4.6096,4.44543 -6.91369,6.68292 -4.57463,4.62121 -9.15814,9.2407 -14.00382,13.58067 0,0 -13.94788,5.6971 -13.94788,5.6971 l 0,0 z" />
    <path
       style="fill:#000000;fill-opacity:1;stroke:#000000;stroke-width:5.0999999;stroke-linecap:round;stroke-miterlimit:4;stroke-opacity:1;stroke-dasharray:none"
       id="path8115"
       d="m 627.05222,946.32039 c -5.40661,-2.46884 -11.11132,-3.88246 -16.95367,-4.8227 -5.81253,-0.86137 -11.60188,-0.57587 -17.3405,0.56813 -7.18931,1.16479 -23.05339,10.86859 2.31464,-3.47831 -2.32549,3.90951 2.2763,10.06793 3.93614,13.62401 5.86363,10.32642 6.6192,21.85429 7.72571,33.3883 0.33221,7.69424 0.24858,3.94914 0.27547,11.23471 0,0 -0.50151,0.27389 -0.50151,0.27389 l 0,0 c -3.6901,-5.31079 -1.84828,-2.5293 -5.50073,-8.36077 -5.73347,-9.32221 -12.32874,-18.09039 -16.58248,-28.25528 -2.4072,-4.77483 -6.36244,-10.40103 -4.69067,-15.9213 8.87029,-5.15679 16.06583,-10.61774 26.00574,-12.29053 5.74202,-0.8969 11.54196,-1.05014 17.25828,0.20098 5.71056,1.19858 11.15839,3.17672 16.4779,5.57132 0,0 -12.42432,8.26755 -12.42432,8.26755 l 0,0 z" />
    <path
       style="fill:#000000;fill-opacity:1;stroke:#000000;stroke-width:5.0999999;stroke-linecap:round;stroke-miterlimit:4;stroke-opacity:1;stroke-dasharray:none"
       id="path8117"
       d="m 534.31487,-0.82147369 c -4.74876,4.51095389 -10.1877,8.19997919 -15.60945,11.83995069 -6.84981,4.489519 -13.7629,8.875934 -20.29613,13.821696 -4.30059,3.452676 -8.46349,7.385242 -8.71703,13.166559 0.99122,5.416501 5.88807,7.967576 10.32133,10.3766 5.64261,2.23257 10.17414,6.177445 14.7627,10.024711 0.76424,0.544782 1.52849,1.089564 2.29273,1.634347 0,0 -0.47446,0.318458 -0.47446,0.318458 l 0,0 c -1.22735,-0.23196 -2.45469,-0.463921 -3.68203,-0.695881 -7.72759,-0.907175 -15.734,-1.376899 -22.8611,-4.755714 -4.97972,-2.533689 -9.99131,-5.499042 -11.24545,-11.374699 -0.0764,-6.220124 3.91146,-10.539677 8.56505,-14.287359 6.52182,-5.126265 13.55922,-9.502937 20.52133,-13.999117 5.7129,-3.766017 11.4572,-7.5441464 16.63133,-12.0414925 0,0 9.79118,-4.02805919 9.79118,-4.02805919 l 0,0 z" />
    <path
       style="fill:#000000;fill-opacity:1;stroke:#000000;stroke-width:5.0999999;stroke-linecap:round;stroke-miterlimit:4;stroke-opacity:1;stroke-dasharray:none"
       id="path8119"
       d="m 537.98327,130.95041 c 6.43798,4.22188 13.64995,6.62023 21.1079,8.25286 9.08473,1.77449 18.34578,1.66766 27.54403,1.21441 5.02413,0.2203 11.35757,-2.61997 15.77667,0.64236 2.09066,5.99574 -4.39445,12.64464 -7.62702,17.14467 -9.12355,12.63981 -20.43788,23.2873 -32.07224,33.55074 -5.69015,4.99663 -11.79109,9.46366 -17.97862,13.81127 0,0 -0.53109,0.21087 -0.53109,0.21087 l 0,0 c 4.35404,-3.44862 8.40146,-7.1402 12.05058,-11.35344 8.63044,-9.82548 16.90844,-19.97422 24.90758,-30.31873 3.28999,-4.53748 7.64332,-9.54888 8.75914,-15.18666 -3.37367,-2.98195 -10.03489,-0.0754 -13.98318,-0.65999 -9.17856,0.31366 -18.42628,0.26357 -27.44083,-1.73733 -7.16298,-1.91829 -14.13142,-4.57171 -19.43736,-9.98093 0,0 8.92444,-5.5901 8.92444,-5.5901 l 0,0 z" />
    <path
       style="fill:#000000;fill-opacity:1;stroke:#000000;stroke-width:5.0999999;stroke-linecap:round;stroke-miterlimit:4;stroke-opacity:1;stroke-dasharray:none"
       id="path8121"
       d="m 283.60166,195.32783 c 3.86745,4.25218 9.16089,6.31734 14.5546,7.86075 5.53419,1.43616 11.218,2.1172 16.80139,3.32258 4.91702,1.20053 7.15357,4.06813 6.85731,9.03175 -2.10975,8.28976 -7.82292,15.09742 -12.93008,21.74985 -8.68749,11.30419 -18.65731,21.42563 -29.02811,31.16312 -6.59363,5.86892 -3.34451,3.09526 -9.72602,8.3459 0,0 -0.52875,0.2167 -0.52875,0.2167 l 0,0 c 3.81669,-4.22075 1.85124,-1.9819 5.87676,-6.73371 7.72164,-9.74635 15.73346,-19.23993 23.66817,-28.81141 5.16708,-6.66147 10.57583,-13.44994 13.53846,-21.43395 0.94033,-4.32786 0.14842,-7.26645 -4.24913,-9.02047 -5.40144,-1.42918 -10.93239,-2.23662 -16.32473,-3.70712 -5.43701,-1.77338 -10.74415,-3.95121 -14.70042,-8.26334 0,0 6.19055,-3.72065 6.19055,-3.72065 z" />
    <path
       style="fill:#000000;fill-opacity:1;stroke:#000000;stroke-width:5.0999999;stroke-linecap:round;stroke-miterlimit:4;stroke-opacity:1;stroke-dasharray:none"
       id="path8123"
       d="m -504.86018,51.423501 c 4.20722,3.584539 8.38991,7.203365 12.27497,11.138243 3.43607,3.405067 6.00305,7.489044 8.28432,11.719896 1.48615,3.351857 3.40036,6.55752 4.33493,10.120001 1.23609,3.350505 -0.96758,5.463757 -3.44667,7.366788 -9.71477,6.893073 -20.32887,11.723481 -31.29714,16.007771 -6.26314,2.37517 -12.48057,4.82079 -18.64279,7.44268 -1.69174,0.95345 -3.38349,1.9069 -5.07523,2.86035 0,0 -0.53324,0.2054 -0.53324,0.2054 l 0,0 c 1.21462,-0.77031 2.42924,-1.54063 3.64386,-2.31095 10.71233,-6.56973 21.5052,-13.05801 33.07563,-18.035515 2.59837,-1.155179 4.87464,-2.162126 7.45458,-3.327704 1.0387,-0.469269 2.08032,-0.932351 3.11164,-1.417624 0.9084,-0.427431 3.56274,-1.845229 2.707,-1.320253 -7.99066,4.902114 -17.35068,9.946846 -10.33944,6.146392 2.48441,-1.542502 5.55514,-3.214326 5.72703,-6.456765 -0.008,-3.738108 -0.41794,-7.391901 -2.10088,-10.796375 -1.98675,-4.247458 -4.50134,-8.172094 -7.483,-11.798378 -3.36607,-4.129377 -6.67625,-8.304089 -9.9251,-12.527059 0,0 8.22953,-5.016898 8.22953,-5.016898 l 0,0 z" />
    <path
       style="fill:#000000;fill-opacity:1;stroke:#000000;stroke-width:5.0999999;stroke-linecap:round;stroke-miterlimit:4;stroke-opacity:1;stroke-dasharray:none"
       id="path8125"
       d="m -629.25244,266.57996 c 3.56568,5.18788 6.62747,10.69987 9.95222,16.04187 2.9807,5.34081 7.13019,9.34444 12.57197,12.0507 3.57417,1.3342 7.40854,1.52744 11.00857,0.12578 0.94633,-0.36845 3.60882,-1.86249 2.72486,-1.3626 -3.56242,2.01457 -7.17521,3.93874 -10.76281,5.90811 8.99696,-7.00075 13.91838,-17.12039 17.78129,-27.55885 0,0 0.51393,-0.24981 0.51393,-0.24981 l 0,0 c 0.23393,7.45259 1.30248,16.07853 -3.87033,22.14761 -9.33054,5.52472 -17.78445,14.63552 -28.0623,7.84626 -4.63552,-3.77167 -7.80133,-8.66532 -10.44167,-13.99927 -2.75017,-5.63049 -5.46715,-11.29561 -8.78859,-16.61855 0,0 7.37286,-4.33125 7.37286,-4.33125 l 0,0 z" />
    <path
       style="fill:#000000;fill-opacity:1;stroke:#000000;stroke-width:5.0999999;stroke-linecap:round;stroke-miterlimit:4;stroke-opacity:1;stroke-dasharray:none"
       id="path8127"
       d="m -520.74791,991.38154 c 3.9108,3.41194 8.63486,5.04778 13.6491,5.96941 4.39279,0.50474 8.78041,-0.13064 13.09497,-0.92823 3.61088,-0.86275 6.65426,-0.58424 9.03069,2.38042 2.27946,4.82356 1.86235,10.31826 1.45237,15.48826 -0.83765,7.5307 -2.18928,14.9954 -3.68555,22.42 -1.05675,7.7886 -3.76157,15.1425 -6.46185,22.4725 -0.3577,0.9369 -0.7154,1.8738 -1.0731,2.8106 0,0 -0.87281,0.437 -0.87281,0.437 l 0,0 c -0.24608,-0.6368 -0.49215,-1.2736 -0.73823,-1.9105 -1.89324,-6.385 -1.98189,-12.7121 -0.32273,-19.2073 1.32567,-7.4021 2.7552,-14.7973 3.64488,-22.2671 0.35648,-4.9585 0.93908,-10.1891 -0.94695,-14.9247 -1.71515,-2.7519 -4.5742,-2.6179 -7.52205,-2.0669 -4.22317,0.5857 -8.49862,1.2073 -12.72485,0.2455 -4.83384,-1.1941 -9.23581,-3.43805 -12.58922,-7.21044 0,0 6.06533,-3.70852 6.06533,-3.70852 l 0,0 z" />
    <path
       style="fill:#000000;fill-opacity:1;stroke:#000000;stroke-width:5.0999999;stroke-linecap:round;stroke-miterlimit:4;stroke-opacity:1;stroke-dasharray:none"
       id="path8129"
       d="m -345.12976,749.10559 c 4.10646,-5.57167 8.41262,-10.99128 12.84505,-16.30603 3.84191,-4.56094 7.81235,-9.03915 12.71998,-12.47127 7.9139,-4.66958 10.98048,-8.52182 17.75645,-2.18882 4.96414,6.03129 8.36288,13.21539 11.70888,20.22848 4.38788,7.917 7.25985,16.40763 10.0383,24.96162 1.46743,4.19414 0.66758,2.22012 2.35496,5.93992 0,0 -0.48903,0.29561 -0.48903,0.29561 l 0,0 c -3.75597,-2.44881 -1.86387,-1.11657 -5.65677,-4.0243 -1.53091,-1.44125 -4.5769,-4.2205 -5.86815,-5.8151 -3.94538,-4.87222 -6.32823,-10.86084 -9.08983,-16.41387 -3.36892,-6.8894 -6.499,-14.01526 -11.18685,-20.13843 -1.64013,-1.66395 -3.28344,-3.41048 -5.84783,-3.01792 -0.49921,0.0764 -1.8656,0.71512 -1.45565,0.42018 1.68814,-1.21456 3.56322,-2.14554 5.34483,-3.21831 -5.44329,3.37138 -9.89363,7.9458 -14.05331,12.78182 -4.73882,5.50575 -9.38866,11.08517 -13.9405,16.74679 0,0 -5.18053,2.21963 -5.18053,2.21963 l 0,0 z" />
    <path
       style="fill:#000000;fill-opacity:1;stroke:#000000;stroke-width:5.0999999;stroke-linecap:round;stroke-miterlimit:4;stroke-opacity:1;stroke-dasharray:none"
       id="path8131"
       d="m -200.9198,790.16026 c 7.00774,0.9465 14.03277,0.15279 20.98342,-0.81566 7.82833,-1.51362 15.58136,-3.3622 23.41533,-4.84914 6.23662,-1.08392 12.53861,-1.91852 18.87398,-2.0038 4.60266,-0.0887 7.02908,2.21636 6.79753,6.75476 -2.09891,8.40152 -7.11695,15.77576 -11.55016,23.1047 -7.45748,12.01642 -14.87022,24.05992 -22.26131,36.11723 -6.58237,10.22976 -13.85782,19.99029 -20.69576,30.0499 0,0 -0.52102,0.23468 -0.52102,0.23468 l 0,0 c 2.69936,-8.30358 3.9373,-17.15752 8.68959,-24.72055 6.92002,-12.24479 14.60435,-24.02758 21.96891,-36.00639 4.41149,-7.26181 9.10231,-14.5332 11.87703,-22.61402 0.77342,-3.56071 0.25788,-5.72964 -3.82206,-6.06657 -5.93492,-0.66689 -11.91452,0.62377 -17.76622,1.50498 -7.7651,1.48253 -15.45498,3.33388 -23.25037,4.65651 -6.96591,0.92789 -13.97396,1.41253 -20.97555,0.47275 0,0 8.23666,-5.81938 8.23666,-5.81938 l 0,0 z" />
    <path
       style="fill:#000000;fill-opacity:1;stroke:#000000;stroke-width:5.0999999;stroke-linecap:round;stroke-miterlimit:4;stroke-opacity:1;stroke-dasharray:none"
       id="path8133"
       d="m 419.16502,726.56942 c 4.51174,-2.92654 8.5036,-6.5345 12.44813,-10.16458 4.47752,-4.21443 9.58218,-8.17913 15.5554,-9.97639 5.48048,-0.48537 9.50508,3.52634 13.28187,6.91959 6.72869,6.01394 11.71734,13.47431 16.64539,20.94391 0.96965,1.12813 1.93929,2.25625 2.90894,3.38438 0,0 -0.48754,0.29805 -0.48754,0.29805 l 0,0 c -1.1389,-1.02583 -2.2778,-2.05166 -3.4167,-3.07749 -7.25486,-5.70981 -13.82242,-12.08124 -20.27633,-18.67091 -3.77274,-3.2055 -8.01157,-6.97216 -13.31878,-6.18164 -2.98268,1.03248 -2.13161,0.8805 1.55132,-1.44315 0.5761,-0.36348 -1.17598,0.68976 -1.73967,1.07222 -1.98545,1.34713 -3.77028,2.96342 -5.51114,4.60577 -3.96672,3.64912 -8.0097,7.24225 -12.48249,10.26908 0,0 -5.1584,2.02116 -5.1584,2.02116 l 0,0 z" />
    <path
       style="fill:#000000;fill-opacity:1;stroke:#000000;stroke-width:5.0999999;stroke-linecap:round;stroke-miterlimit:4;stroke-opacity:1;stroke-dasharray:none"
       id="path8135"
       d="m 725.63175,25.339076 c 7.50371,2.525844 15.39836,3.461572 23.25436,4.05719 9.26947,0.655531 18.55941,0.101927 27.80796,-0.586699 5.57797,-0.260803 11.33147,-1.675922 16.79026,0.0055 3.02479,2.089623 1.18527,4.647201 -0.66476,6.884693 -0.34043,0.333275 -0.68087,0.666549 -1.0213,0.999824 0,0 -0.81685,0.42887 -0.81685,0.42887 l 0,0 c -0.37481,0.05363 -0.74962,0.107267 -1.12442,0.160901 -2.56057,0.151382 -4.98254,0.140544 -7.36241,-0.946023 -5.30845,-1.36867 -10.82531,0.03324 -16.21027,0.139375 -9.18558,0.582483 -18.40814,1.046854 -27.5944,0.166038 -7.53943,-0.958112 -15.10681,-2.121119 -22.09276,-5.287041 0,0 9.03459,-6.022674 9.03459,-6.022674 l 0,4.6e-5 z" />
    <path
       style="fill:#000000;fill-opacity:1;stroke:#000000;stroke-width:5.0999999;stroke-linecap:round;stroke-miterlimit:4;stroke-opacity:1;stroke-dasharray:none"
       id="path8137"
       d="m 779.1815,-2.548767 c 5.60894,3.7629224 11.21054,7.5354404 16.81508,11.305196 5.32444,3.497144 10.66932,6.974802 15.78622,10.77232 3.77334,2.655046 6.34149,5.716799 6.2231,10.441844 -1.80676,7.566664 -7.44136,13.562112 -12.31602,19.366935 -10.41453,12.062546 -22.40343,22.64378 -34.06502,33.467912 -7.49566,6.76457 -3.99518,3.489747 -10.53517,9.788298 0,0 -0.52786,0.218861 -0.52786,0.218861 l 0,0 c 5.22045,-5.526813 2.73391,-2.688162 7.46797,-8.508636 8.14317,-10.039428 16.35193,-20.018449 25.03069,-29.604343 4.82852,-5.778703 9.9615,-11.629083 12.76266,-18.715854 1.02753,-4.284753 -0.29151,-7.473554 -3.54015,-10.47433 -4.82189,-3.990756 -10.01849,-7.453856 -15.02949,-11.196251 -5.14047,-3.921447 -10.15034,-8.0445765 -14.46413,-12.8856636 0,0 6.39212,-3.9762884 6.39212,-3.9762884 l 0,0 z" />
    <path
       style="fill:#000000;fill-opacity:1;stroke:#000000;stroke-width:5.0999999;stroke-linecap:round;stroke-miterlimit:4;stroke-opacity:1;stroke-dasharray:none"
       id="path8143"
       d="m -589.22153,1110.4644 c -7.17845,-1.3155 -14.40515,-2.2232 -21.67855,-2.7889 -12.6113,-0.8428 -25.24903,-0.5682 -37.87132,-0.2245 -23.28832,0.7634 -46.51879,2.5292 -69.72288,4.5876 -30.18473,3.4237 -60.41562,6.0241 -90.74907,7.6304 -15.22486,0.4279 -30.43279,1.2815 -45.64134,2.0777 0,0 0.46053,-0.3383 0.46053,-0.3383 l 0,0 c 16.49113,-0.8644 32.97857,-1.9037 49.27405,-4.7792 32.66672,-4.8887 65.27049,-10.3149 98.20687,-13.1453 23.45794,-2.218 46.94519,-4.1806 70.49887,-5.0365 12.39294,-0.2867 24.83278,-0.6123 37.16275,0.9799 6.68143,0.9664 13.30686,2.2401 19.74019,4.3283 0,0 -9.6801,6.7088 -9.6801,6.7088 l 0,0 z" />
    <path
       style="fill:#000000;fill-opacity:1;stroke:#000000;stroke-width:5.0999999;stroke-linecap:round;stroke-miterlimit:4;stroke-opacity:1;stroke-dasharray:none"
       id="path8145"
       d="m -784.92204,1088.8965 c 7.72867,2.3033 15.60437,4.0772 23.41682,6.0729 9.99968,2.5038 19.78736,5.7718 29.51495,9.1639 5.61566,2.2209 13.20745,2.6604 16.39362,8.4213 0.0132,0.7728 0.18658,1.5596 0.0396,2.3184 -1.18606,6.1216 -9.67496,15.5293 -13.42426,20.2966 -8.4655,10.1383 -17.40465,19.8672 -25.97306,29.9127 0,0 -0.52617,0.2229 -0.52617,0.2229 l 0,0 c 6.81364,-8.0059 11.86218,-17.2317 17.33541,-26.1836 4.39824,-6.2582 10.75185,-12.8692 12.08063,-20.5816 -2.55448,-5.266 -10.54175,-5.7141 -15.24402,-8.1087 -9.5413,-3.4178 -19.10347,-6.7833 -28.87471,-9.4987 -7.59874,-2.1485 -15.23831,-4.1689 -22.74316,-6.6303 0,0 8.00438,-5.4058 8.00438,-5.4058 l -3e-5,0 z" />
    <path
       style="fill:#000000;fill-opacity:1;stroke:#000000;stroke-width:5.0999999;stroke-linecap:round;stroke-miterlimit:4;stroke-opacity:1;stroke-dasharray:none"
       id="path2873"
       d="m 509.29589,972.1302 c 4.04286,10.9049 5.73856,22.40502 7.08097,33.8947 0.49569,7.6956 0.578,15.408 0.7983,23.1142 0,0 -0.45507,0.2375 -0.45507,0.2375 l 0,0 c -1.2302,-7.1189 -2.58484,-14.2082 -4.37708,-21.2123 -2.39376,-11.04339 -4.74157,-22.18956 -9.0542,-32.67826 0,0 6.00708,-3.35584 6.00708,-3.35584 z"
       transform="translate(-857.43469,-5.098767)" />
    <path
       style="fill:#000000;fill-opacity:1;stroke:#000000;stroke-width:5.0999999;stroke-linecap:round;stroke-miterlimit:4;stroke-opacity:1;stroke-dasharray:none"
       id="path2875"
       d="m 485.33779,978.90652 c 11.03301,-4.374 22.40233,-7.76587 33.89658,-10.67675 10.66746,-2.72426 21.67802,-3.45298 32.49596,-5.30442 0,0 -0.40994,0.30896 -0.40994,0.30896 l 0,0 c -12.89607,2.35843 -25.51655,5.94927 -38.09523,9.61613 -11.92147,3.60111 -23.79909,7.38035 -35.38894,11.95634 0,0 7.50157,-5.90026 7.50157,-5.90026 z"
       transform="translate(-857.43469,-5.098767)" />
    <path
       style="fill:#000000;fill-opacity:1;stroke:#000000;stroke-width:5.0999999;stroke-linecap:round;stroke-miterlimit:4;stroke-opacity:1;stroke-dasharray:none"
       id="path2877"
       d="m 491.16622,1042.0262 c 8.90312,-5.7114 18.52068,-9.8594 28.43882,-13.3957 0,0 -0.40363,0.3172 -0.40363,0.3172 l 0,0 c -8.18049,3.5057 -15.94905,7.4363 -23.74438,11.7179 -0.53944,0.2963 1.07217,-0.6046 1.60826,-0.9069 0,0 -5.89907,2.2675 -5.89907,2.2675 z"
       transform="translate(-857.43469,-5.098767)" />
    <path
       style="fill:#000000;fill-opacity:1;stroke:#000000;stroke-width:5.0999999;stroke-linecap:round;stroke-miterlimit:4;stroke-opacity:1;stroke-dasharray:none"
       id="path2879"
       d="m 588.96441,1004.7371 c 8.06297,7.0716 11.83822,16.7907 15.08895,26.7061 2.11565,8.3018 1.03678,4.1905 3.23394,12.3346 0,0 -0.44838,0.2499 -0.44838,0.2499 l 0,0 c -3.80288,-7.2257 -1.71945,-3.6892 -6.2637,-10.6016 -6.02082,-8.3571 -12.50582,-16.616 -20.74273,-22.915 0,0 9.13192,-5.774 9.13192,-5.774 z"
       transform="translate(-857.43469,-5.098767)" />
    <path
       style="fill:#000000;fill-opacity:1;stroke:#000000;stroke-width:5.0999999;stroke-linecap:round;stroke-miterlimit:4;stroke-opacity:1;stroke-dasharray:none"
       id="path2887"
       d="m 326.57968,851.424 c 4.28709,13.17125 7.10803,26.7289 9.57976,40.33705 1.42155,8.82708 1.84906,17.76565 2.46331,26.67208 0,0 -0.45469,0.23824 -0.45469,0.23824 l 0,0 c -1.38112,-8.52741 -2.96347,-17.00792 -4.71014,-25.46921 -2.68182,-13.47551 -5.60038,-26.94303 -10.31268,-39.88249 0,0 3.43444,-1.89567 3.43444,-1.89567 z"
       transform="translate(-857.43469,-5.098767)" />
    <path
       style="fill:#000000;fill-opacity:1;stroke:#000000;stroke-width:5.0999999;stroke-linecap:round;stroke-miterlimit:4;stroke-opacity:1;stroke-dasharray:none"
       id="path2889"
       d="m 313.86977,855.21656 c 7.52382,-4.70964 15.50465,-8.42014 23.67811,-11.80419 0,0 -0.40205,0.31916 -0.40205,0.31916 l 0,0 c -6.32894,3.08297 -13.10609,6.47522 -16.87542,9.01643 0,0 -6.40064,2.4686 -6.40064,2.4686 z"
       transform="translate(-857.43469,-5.098767)" />
    <path
       style="fill:#000000;fill-opacity:1;stroke:#000000;stroke-width:5.0999999;stroke-linecap:round;stroke-miterlimit:4;stroke-opacity:1;stroke-dasharray:none"
       id="path2891"
       d="m 335.79506,925.48386 c 6.60171,-3.90194 13.72577,-6.63455 20.91416,-9.21585 0,0 -0.40418,0.31646 -0.40418,0.31646 l 0,0 c -7.8069,3.05394 -15.47739,6.4431 -22.72177,10.69031 0,0 2.21179,-1.79092 2.21179,-1.79092 z"
       transform="translate(-857.43469,-5.098767)" />
    <path
       style="fill:#000000;fill-opacity:1;stroke:#000000;stroke-width:5.0999999;stroke-linecap:round;stroke-miterlimit:4;stroke-opacity:1;stroke-dasharray:none"
       id="path2893"
       d="m 406.72845,895.96983 c -5.22283,2.67329 -10.325,5.57554 -15.56142,8.22236 10.21037,-5.64346 4.19433,-3.27232 3.46844,-0.7209 -0.36347,1.27754 0.27233,2.69428 0.68143,3.85897 1.46376,3.26934 2.96568,6.52429 4.03741,9.94673 1.15703,3.70982 3.82935,2.11315 6.36407,0.78788 3.50357,-2.02869 7.01311,-2.59268 10.65083,-0.71407 3.63642,2.8033 3.11232,6.74237 1.71927,10.62082 -3.81542,6.6465 -9.74467,11.50744 -15.79705,16.01416 0,0 -0.47624,0.19157 -0.47624,0.19157 l 0,0 c 3.80509,-3.49666 6.96145,-7.3553 8.28097,-12.47412 1.21108,-3.38536 2.54528,-7.16465 -0.15776,-10.19024 -3.06123,-2.16918 -6.41255,-0.94148 -9.45075,0.74156 -3.1298,1.54861 -5.63261,2.12048 -7.28052,-1.58649 -1.24039,-3.3509 -2.56175,-6.65983 -4.22669,-9.82679 -2.73692,-7.34554 0.9871,-7.33072 8.31395,-11.56683 5.2401,-2.80025 10.50265,-5.55791 15.72807,-8.38561 0,0 -6.29401,5.081 -6.29401,5.081 z"
       transform="translate(-857.43469,-5.098767)" />
    <path
       style="fill:#000000;fill-opacity:1;stroke:#000000;stroke-width:5.0999999;stroke-linecap:round;stroke-miterlimit:4;stroke-opacity:1;stroke-dasharray:none"
       id="path2895"
       d="m 1430.8449,830.06423 c 1.3547,8.62666 2.2292,17.29946 2.5637,26.02336 0.293,6.1828 -0.069,12.36781 -0.4662,18.5361 0,0 -0.6883,0.35882 -0.6883,0.35882 l 0,0 c -1.5194,-5.41201 -2.6787,-10.92015 -3.4546,-16.49128 -1.3024,-8.40957 -2.1359,-16.90412 -3.9502,-25.22555 0,0 5.9956,-3.20145 5.9956,-3.20145 z"
       transform="translate(-857.43469,-5.098767)" />
    <path
       style="fill:#000000;fill-opacity:1;stroke:#000000;stroke-width:5.0999999;stroke-linecap:round;stroke-miterlimit:4;stroke-opacity:1;stroke-dasharray:none"
       id="path2897"
       d="m 1424.9166,815.02668 c 3.9738,-1.74879 7.9784,-3.42334 11.99,-5.08279 0,0 -0.5655,0.44686 -0.5655,0.44686 l 0,0 c -4.2962,1.89951 -8.593,3.79828 -12.8562,5.77131 0,0 1.4317,-1.13538 1.4317,-1.13538 z"
       transform="translate(-857.43469,-5.098767)" />
    <path
       style="fill:#000000;fill-opacity:1;stroke:#000000;stroke-width:5.0999999;stroke-linecap:round;stroke-miterlimit:4;stroke-opacity:1;stroke-dasharray:none"
       id="path2899"
       d="m 1413.3816,885.69026 c 7.6484,-4.09305 15.4302,-7.92854 23.2307,-11.72119 7.1541,-3.418 14.3805,-6.72487 21.9629,-9.0769 0,0 -0.7466,0.58232 -0.7466,0.58232 l 0,0 c -7.9932,3.12655 -15.8625,6.55823 -23.5577,10.36411 -7.9439,3.90895 -15.8918,7.81888 -23.6546,12.08048 0,0 2.7653,-2.22882 2.7653,-2.22882 z"
       transform="translate(-857.43469,-5.098767)" />
    <path
       style="fill:#000000;fill-opacity:1;stroke:#000000;stroke-width:5.0999999;stroke-linecap:round;stroke-miterlimit:4;stroke-opacity:1;stroke-dasharray:none"
       id="path2903"
       d="m 1483.4434,882.13673 c 5.1849,-4.09721 10.8765,-8.28971 17.6921,-8.39856 3.7684,0.35678 5.9364,2.70418 7.2405,6.0535 1.1789,4.05147 -0.029,8.02345 -1.5129,11.8097 -1.509,3.53502 -3.5847,6.80414 -6.7216,9.07522 -6.98,4.5715 -10.7901,7.50546 -17.0162,2.39147 -3.7216,-3.89136 -4.7999,-8.97026 -5.5625,-14.11097 -0.6886,-6.50785 0.4899,-12.87377 2.4625,-19.04671 1.5677,-4.78672 4.319,-8.96593 7.2989,-12.96969 2.369,-3.10415 4.4857,-6.37383 6.9222,-9.42695 1.8216,-1.94178 3.6084,-3.91409 5.3683,-5.91178 0,0 1.0677,-0.50178 1.0677,-0.50178 l 0,0 c 0.835,0.8008 1.4913,1.61913 1.6529,2.80994 -0.9479,3.42011 -3.2559,6.13075 -5.3873,8.89922 -3.1483,3.93819 -6.1564,7.98662 -7.8089,12.81852 -2.062,6.01835 -3.3058,12.18359 -2.5805,18.57863 0.7118,4.86691 1.8738,9.70134 5.2485,13.46215 5.6025,5.26976 10.7648,-0.48843 0.1933,6.17243 3.8626,-2.18283 6.6446,-5.53303 8.7341,-9.42823 1.791,-3.73282 3.3914,-7.6922 2.7123,-11.91449 -0.8136,-3.25137 -2.368,-5.60609 -5.9185,-6.1323 -5.6402,0.0523 -6.6708,1.27033 -10.875,4.47267 0,0 -3.2099,1.29801 -3.2099,1.29801 z"
       transform="translate(-857.43469,-5.098767)" />
    <path
       style="fill:#000000;fill-opacity:1;stroke:#000000;stroke-width:5.0999999;stroke-linecap:round;stroke-miterlimit:4;stroke-opacity:1;stroke-dasharray:none"
       id="path2905"
       d="m 1638.0285,821.39883 c 1.2353,11.65124 1.8362,23.35364 2.4382,35.05042 0.3717,11.21779 1.0067,22.45889 -0.4793,33.61691 -0.4118,2.8316 -1.1192,5.58717 -2.0016,8.30151 0,0 -0.4566,0.23458 -0.4566,0.23458 l 0,0 c -1.1303,-1.90222 -1.8142,-3.93378 -2.2925,-6.10414 -2.1141,-10.62817 -1.4788,-21.49887 -2.1064,-32.26894 -0.4559,-11.68811 -1.131,-23.37377 -2.4106,-35.00419 0,0 7.3088,-3.82615 7.3088,-3.82615 z"
       transform="translate(-857.43469,-5.098767)" />
    <path
       style="fill:#000000;fill-opacity:1;stroke:#000000;stroke-width:5.0999999;stroke-linecap:round;stroke-miterlimit:4;stroke-opacity:1;stroke-dasharray:none"
       id="path2907"
       d="m 1618.7312,819.33943 c 9.3222,-0.65601 18.5826,-1.9473 27.8691,-2.95993 5.9477,-0.78443 11.933,-0.9362 17.9153,-0.62559 0,0 -0.4131,0.3047 -0.4131,0.3047 l 0,0 c -7.2732,1.1816 -14.4993,2.65869 -21.8206,3.53697 -9.3171,1.19266 -18.6434,2.38076 -28.0167,3.03565 0,0 4.466,-3.2918 4.466,-3.2918 z"
       transform="translate(-857.43469,-5.098767)" />
    <path
       style="fill:#000000;fill-opacity:1;stroke:#000000;stroke-width:5.0999999;stroke-linecap:round;stroke-miterlimit:4;stroke-opacity:1;stroke-dasharray:none"
       id="path2909"
       d="m 1631.2072,903.58242 c 8.301,-0.78422 16.4456,-2.59289 24.5812,-4.34624 4.8756,-0.6803 9.9,-3.30135 14.9134,-2.67356 0.8562,0.26753 0.4939,0.0803 1.1149,0.5037 0,0 -0.5307,0.40023 -0.5307,0.40023 l 0,0 c -2.32,0.91977 -1.1134,0.44962 -3.6211,1.40709 -5.8444,2.2061 -11.9243,3.62547 -18.0055,5.02046 -8.0709,1.79163 -16.1921,3.48044 -24.4481,4.14277 0,0 5.9959,-4.45445 5.9959,-4.45445 z"
       transform="translate(-857.43469,-5.098767)" />
    <path
       style="fill:#000000;fill-opacity:1;stroke:#000000;stroke-width:5.0999999;stroke-linecap:round;stroke-miterlimit:4;stroke-opacity:1;stroke-dasharray:none"
       id="path2911"
       d="m 1669.3129,928.18834 c 7.632,-4.82207 15.5853,-8.94384 24.3269,-11.242 4.1107,-0.82288 7.7268,-0.38159 10.2304,3.1472 2.003,4.66867 0.046,9.39921 -1.8281,13.76373 -2.9024,6.18314 -7.0085,11.64197 -11.3751,16.84887 -1.3654,2.7646 -7.2372,5.70027 -7.545,8.75617 3.9553,0.53518 7.9712,-0.22044 11.8821,-0.78761 7.0623,-1.10548 14.0877,-2.43485 21.145,-3.57301 1.4694,0.0293 9.7523,-2.69165 9.803,0.001 -0.5122,1.16898 -0.1865,0.59703 -1.0056,1.69936 0,0 -3.9857,2.64555 -3.9857,2.64555 l 0,0 c -1.7619,0.76463 -0.854,0.39105 -2.7257,1.11593 -4.0911,1.40825 -8.4236,1.87661 -12.6871,2.50035 -6.8943,1.09547 -13.768,2.3428 -20.6995,3.18485 -3.5807,0.37808 -9.3781,1.76476 -11.8517,-1.61843 -0.2327,-4.17779 5.8307,-6.56517 7.7855,-9.74421 4.5946,-5.18484 8.9459,-10.6448 12.1099,-16.84337 1.9392,-4.13287 4.1864,-8.69633 3.043,-13.36674 -1.5534,-3.51313 -4.7999,-3.72347 -8.3221,-3.11789 -4.104,1.00136 -7.98,2.42998 -11.7762,4.29681 -1.0704,0.52639 -2.9845,2.83614 -3.1713,1.658 -0.1899,-1.1983 2.0955,-1.22358 3.1432,-1.83537 0,0 -6.4959,2.51072 -6.4959,2.51072 z"
       transform="translate(-857.43469,-5.098767)" />
    <path
       style="fill:#000000;fill-opacity:1;stroke:#000000;stroke-width:5.0999999;stroke-linecap:round;stroke-miterlimit:4;stroke-opacity:1;stroke-dasharray:none"
       id="path2919"
       d="m 1323.5048,-76.456975 c 8.5451,-0.790754 16.9041,-2.751598 25.1965,-4.881523 8.5788,-2.414455 17.1645,-4.787422 25.8956,-6.5872 5.196,-0.912581 10.4939,-2.131992 15.5591,-0.185796 1.6208,0.729168 2.271,1.91628 3.0808,3.38568 0,0 -0.8534,0.533108 -0.8534,0.533108 l 0,0 c -1.7223,-0.717384 -3.4818,-1.239964 -5.2434,-1.854324 -5.4672,-1.121317 -10.8973,-0.121839 -16.3086,0.975457 -8.6303,1.766767 -17.1118,4.143928 -25.6225,6.404491 -8.2582,2.037832 -16.5781,3.85942 -25.0579,4.695174 0,0 3.3538,-2.485067 3.3538,-2.485067 z"
       transform="translate(-857.43469,-5.098767)" />
    <path
       style="fill:#000000;fill-opacity:1;stroke:#000000;stroke-width:5.0999999;stroke-linecap:round;stroke-miterlimit:4;stroke-opacity:1;stroke-dasharray:none"
       id="path2921"
       d="m 1363.8147,-71.95003 c -0.7464,7.688317 -0.9459,15.406297 -0.9663,23.125753 0.1222,5.154832 0.4549,10.33225 1.8636,15.31006 2.426,4.934252 0.05,5.38458 -5.8318,6.85712 -3.1838,0.782298 -6.3188,1.755959 -9.4526,2.717482 -5.5545,1.567565 -11.0442,3.359512 -16.5276,5.157623 -5.9939,2.183423 -12.186,3.911499 -18.0671,6.39237 3.4522,-2.557772 5.3947,-2.084522 9.8611,-2.591517 7.5785,-1.161053 15.1208,-2.534252 22.6664,-3.889231 8.6494,-1.412221 17.2918,-2.869846 25.8728,-4.655221 7.4352,-1.401362 14.746,-3.351081 22.0817,-5.182099 4.1933,-1.063806 8.3832,-2.127409 12.656,-2.816941 2.5045,-0.600633 7.1454,-1.007694 1.5007,1.586006 0,0 0.4676,-0.211891 0.4676,-0.211891 l 0,0 c -3.6005,3.243679 -5.3246,4.540962 -10.0728,4.720133 -4.109,0.700382 -8.1713,1.629021 -12.2283,2.581654 -7.0617,1.628638 -14.1215,3.286433 -21.2679,4.509211 -8.2302,1.408787 -16.4922,2.607836 -24.7577,3.789916 -7.3313,1.085571 -14.6324,2.375528 -21.9828,3.33051 -5.5443,0.549163 -11.299,0.406288 -0.4239,-4.616683 5.9269,-2.387673 12.0715,-4.220966 18.0902,-6.3586 5.5182,-1.81982 11.0336,-3.671688 16.6352,-5.219977 2.9065,-0.831263 5.8284,-1.637318 8.8043,-2.179323 0.4301,-0.08918 1.5688,-0.607098 1.2902,-0.267543 -0.7015,0.854959 -1.7897,1.299635 -2.6777,1.958736 -0.1693,0.12563 0.411,-0.178431 0.5212,-0.358115 0.6268,-1.022012 -0.5332,-2.459519 -0.387,-3.507564 -1.1155,-5.178225 -1.4003,-10.427809 -1.2481,-15.726162 0.077,-7.721539 0.5487,-15.431008 0.949,-23.140612 0,0 2.6316,-1.315095 2.6316,-1.315095 z"
       transform="translate(-857.43469,-5.098767)" />
    <path
       style="fill:#000000;fill-opacity:1;stroke:#000000;stroke-width:5.0999999;stroke-linecap:round;stroke-miterlimit:4;stroke-opacity:1;stroke-dasharray:none"
       id="path2923"
       d="m 1438.3123,-22.807362 c 6.5623,-1.016203 13.1222,-2.305277 19.775,-2.474547 4.0418,0.145208 6.9608,1.827541 6.8187,6.075344 -0.8999,4.14716 -3.7089,7.417721 -6.4246,10.5351859 -1.8031,1.9848169 -4.8738,4.198485 -3.2442,7.0925762 1.7138,1.86585348 4.2596,2.55081608 6.6339,3.1699432 2.3582,0.4616971 4.4907,1.0428319 6.1162,2.9040672 1.2228,5.1707819 -13.5536,11.0376015 -14.3188,11.4689565 -4.412,1.538561 -9.0576,1.953341 -13.6668,2.471928 0,0 0.4096,-0.309378 0.4096,-0.309378 l 0,0 c 6.7845,-1.678551 13.4624,-3.674345 19.5386,-7.24215 -11.3623,6.35372 -1.3862,1.367918 -0.075,-1.7090054 -0.5861,-2.0462682 -2.2815,-2.7697327 -4.2491,-3.3156 -2.506,-0.8322671 -5.1814,-1.5832777 -6.9066,-3.7239054 -1.5766,-3.4221495 0.6071,-5.6468344 3.0681,-7.9928863 2.993,-3.229586 6.0979,-6.5105749 7.7122,-10.6867069 0.9221,-3.813221 -0.8519,-5.742537 -4.7113,-6.334625 -6.3517,0.0019 -12.6312,1.030938 -18.9105,1.896366 0,0 2.4348,-1.825563 2.4348,-1.825563 z"
       transform="translate(-857.43469,-5.098767)" />
    <path
       style="fill:#000000;fill-opacity:1;stroke:#000000;stroke-width:5.0999999;stroke-linecap:round;stroke-miterlimit:4;stroke-opacity:1;stroke-dasharray:none"
       id="path2925"
       d="m 135.21183,240.39293 c -0.0299,8.59548 0.7089,17.16981 1.41126,25.7295 0.78252,10.37821 1.94254,20.7298 2.03133,31.145 0.0219,4.19254 -0.30453,8.37319 -0.57213,12.55351 0,0 -0.52132,0.27498 -0.52132,0.27498 l 0,0 c -1.36445,-3.40003 -2.77288,-6.79377 -3.60516,-10.37626 -1.96584,-10.00712 -2.61971,-20.18748 -3.62418,-30.32462 -0.7383,-8.52784 -1.57279,-17.04804 -1.80406,-25.60941 0,0 6.68426,-3.3927 6.68426,-3.3927 z"
       transform="translate(-857.43469,-5.098767)" />
    <path
       style="fill:#000000;fill-opacity:1;stroke:#000000;stroke-width:5.0999999;stroke-linecap:round;stroke-miterlimit:4;stroke-opacity:1;stroke-dasharray:none"
       id="path2927"
       d="m 103.78005,248.51095 c 9.50869,-1.73737 18.9589,-3.77046 28.44001,-5.64779 8.2528,-1.62965 16.57688,-2.83247 24.91749,-3.90251 3.95795,-0.2764 2.02118,-0.12685 5.81058,-0.44517 0,0 -0.5355,0.40388 -0.5355,0.40388 l 0,0 c -5.01664,1.26728 -2.4757,0.66406 -7.62383,1.80543 -8.38132,1.58258 -16.88837,2.43199 -25.24698,4.16511 -9.5303,1.87437 -19.04475,3.82528 -28.5679,5.73495 0,0 2.80613,-2.1139 2.80613,-2.1139 z"
       transform="translate(-857.43469,-5.098767)" />
    <path
       style="fill:#000000;fill-opacity:1;stroke:#000000;stroke-width:5.0999999;stroke-linecap:round;stroke-miterlimit:4;stroke-opacity:1;stroke-dasharray:none"
       id="path2929"
       d="m 140.80462,308.24037 c 7.67795,-3.84479 15.41188,-7.59654 23.44304,-10.64844 0,0 -0.594,0.46741 -0.594,0.46741 l 0,0 c -8.2154,3.48996 -16.32437,7.22524 -24.26185,11.31211 0,0 1.41281,-1.13108 1.41281,-1.13108 z"
       transform="translate(-857.43469,-5.098767)" />
    <path
       style="fill:#000000;fill-opacity:1;stroke:#000000;stroke-width:5.0999999;stroke-linecap:round;stroke-miterlimit:4;stroke-opacity:1;stroke-dasharray:none"
       id="path2931"
       d="m 189.44616,340.6893 c -6.6641,2.4618 -13.35839,4.84452 -20.12796,7.00149 -2.04686,0.0903 -7.49963,3.50713 -9.14726,1.4984 0.94579,-3.0798 3.273,-5.847 4.97022,-8.62647 2.27886,-3.03524 2.92061,-7.27767 5.59245,-9.98644 2.58496,-1.3483 5.03665,-2.99077 7.75487,-4.0449 1.09837,-0.42595 4.17798,6.92555 4.47334,7.64744 2.89917,7.69443 5.41354,15.52979 7.92903,23.35632 2.98033,7.87643 5.53775,15.83018 7.43934,24.03052 0.23631,0.79304 0.47262,1.58608 0.70893,2.37912 0,0 -0.93628,0.55308 -0.93628,0.55308 l 0,0 c -0.71187,-0.52611 -1.42374,-1.05222 -2.1356,-1.57832 -6.16364,-6.53476 -8.95359,-13.26989 -11.47837,-21.85721 -2.69503,-7.72258 -5.18714,-15.52415 -8.24953,-23.11252 -0.82943,-1.90133 -1.61068,-3.87637 -2.81088,-5.58747 -0.20376,-0.2905 -0.40264,-0.60215 -0.68944,-0.81107 -0.19474,-0.14185 -0.88975,-0.0554 -0.69523,-0.19757 1.96038,-1.43258 4.13284,-2.54973 6.19927,-3.8246 -3.24878,2.31264 -3.89906,7.16406 -6.47868,10.10958 -1.82518,2.90228 -3.69679,5.88294 -6.03657,8.39228 2.21195,-0.25468 6.10619,-1.81199 8.84632,-2.40671 6.46899,-1.96475 12.89087,-4.0832 19.25695,-6.36002 0,0 -4.38492,3.42507 -4.38492,3.42507 z"
       transform="translate(-857.43469,-5.098767)" />
    <path
       style="fill:#000000;fill-opacity:1;stroke:#000000;stroke-width:5.0999999;stroke-linecap:round;stroke-miterlimit:4;stroke-opacity:1;stroke-dasharray:none"
       id="path2933"
       d="m 1460.3669,221.9619 c 0.7833,8.69308 1.5662,17.38826 2.0185,26.10571 0.2438,4.5252 -0.019,9.00544 -1.523,13.29768 0,0 -1.1098,0.59529 -1.1098,0.59529 l 0,0 c -3.2425,-2.30088 -3.6832,-6.65628 -4.3043,-10.28846 -0.9317,-8.58353 -1.3271,-17.22225 -2.5646,-25.77194 0,0 7.4832,-3.93828 7.4832,-3.93828 z"
       transform="translate(-857.43469,-5.098767)" />
    <path
       style="fill:#000000;fill-opacity:1;stroke:#000000;stroke-width:5.0999999;stroke-linecap:round;stroke-miterlimit:4;stroke-opacity:1;stroke-dasharray:none"
       id="path2935"
       d="m 1438.5652,211.8841 c 9.9215,-0.99126 19.7562,-2.66381 29.6067,-4.17788 8.8656,-1.54895 17.7289,-2.86972 26.7394,-2.56741 3.3431,0.31742 1.7756,0.11634 4.7066,0.56904 0,0 -0.5837,0.43316 -0.5837,0.43316 l 0,0 c -5.1359,1.247 -2.4512,0.60174 -8.0552,1.93227 -10.5268,2.47457 -21.075,4.85903 -31.7928,6.37377 -9.7017,1.50026 -19.4065,3.11432 -29.2093,3.79697 0,0 8.5883,-6.35992 8.5883,-6.35992 z"
       transform="translate(-857.43469,-5.098767)" />
    <path
       style="fill:#000000;fill-opacity:1;stroke:#000000;stroke-width:5.0999999;stroke-linecap:round;stroke-miterlimit:4;stroke-opacity:1;stroke-dasharray:none"
       id="path2937"
       d="m 1428.6349,292.27593 c 9.5915,-2.72414 19.216,-5.32958 28.8238,-7.99487 10.4996,-2.82813 20.9863,-5.70409 31.5337,-8.35016 5.3336,-1.50874 10.7221,-2.68548 16.2083,-3.43497 0.2318,-0.0777 0.4637,-0.15545 0.6955,-0.23318 0,0 -0.6868,0.55539 -0.6868,0.55539 l 0,0 c -0.7512,0.48073 -1.5025,0.96145 -2.2537,1.44218 -6.9922,3.53401 -14.3763,6.03621 -22.0068,7.82122 -10.3392,2.57799 -20.6411,5.30413 -30.9668,7.93552 -9.4323,2.41621 -18.8647,4.84272 -28.2201,7.54435 0,0 6.8729,-5.28548 6.8729,-5.28548 z"
       transform="translate(-857.43469,-5.098767)" />
    <path
       style="fill:#000000;fill-opacity:1;stroke:#000000;stroke-width:5.0999999;stroke-linecap:round;stroke-miterlimit:4;stroke-opacity:1;stroke-dasharray:none"
       id="path2939"
       d="m 1520.0507,273.16583 c 6.3119,0.74245 12.6615,0.98074 19.0117,0.93367 3.1238,0.0927 7.2332,-1.78298 8.8064,1.72712 0.1053,4.392 -2.5128,8.59333 -4.4026,12.43592 -3.6275,7.37412 -6.7762,14.96673 -9.9609,22.53835 -2.8225,6.54167 -4.912,13.38715 -7.9308,19.84225 -1.7794,4.06209 -2.9758,7.26693 -8.7667,6.77827 -0.7812,-0.0659 0.9084,-1.27777 1.3626,-1.91665 0.3292,-0.67412 0.6584,-1.34824 0.9877,-2.02236 0,0 0.4634,-0.22069 0.4634,-0.22069 l 0,0 c 0,0.51827 0,1.03655 0,1.55483 0.1575,0.33605 0.7538,0.76587 0.4726,1.00814 -8.0446,6.93172 -6.8503,4.70338 -5.5455,-0.0661 1.9712,-6.73766 5.1098,-13.09253 7.513,-19.67934 3.0195,-7.55407 6.1845,-15.05501 9.5895,-22.44369 1.7083,-3.74153 3.7745,-7.41464 4.684,-11.45529 -0.2473,-2.21005 -4.8826,-1.11312 -6.3008,-1.55803 -6.0205,-0.35169 -12.0171,-1.00352 -17.9956,-1.78978 0,0 8.0077,-5.66663 8.0077,-5.66663 z"
       transform="translate(-857.43469,-5.098767)" />
    <path
       style="fill:#000000;fill-opacity:1;stroke:#000000;stroke-width:5.0999999;stroke-linecap:round;stroke-miterlimit:4;stroke-opacity:1;stroke-dasharray:none"
       id="path2941"
       d="m 1525.7164,306.17416 c 6.6441,0.82965 13.2914,0.25388 19.8969,-0.57332 0.7633,-0.0897 1.5233,-0.21437 2.2898,-0.26914 6.9258,-0.49484 -3.9452,4.29838 1.1397,0.79587 0,0 1.0071,-0.43065 1.0071,-0.43065 l 0,0 c 2.0481,1.11952 0.755,0.22505 -3.9747,3.25406 -2.9727,1.90374 -6.2529,3.05425 -9.7358,3.60014 -6.793,1.16184 -13.6798,1.58299 -20.5337,0.58844 0,0 9.9107,-6.9654 9.9107,-6.9654 z"
       transform="translate(-857.43469,-5.098767)" />
    <path
       style="fill:#000000;fill-opacity:1;stroke:#000000;stroke-width:5.0999999;stroke-linecap:round;stroke-miterlimit:4;stroke-opacity:1;stroke-dasharray:none"
       id="path2943"
       d="m 430.41495,77.779758 c 3.64926,6.442231 7.20555,12.91719 10.48764,19.552855 2.04496,3.972537 2.17826,7.958017 1.83754,12.261217 0,0 -0.44622,0.25377 -0.44622,0.25377 l 0,0 c -3.59645,-2.16487 -6.75751,-4.41167 -8.70019,-8.33408 -3.5879,-6.445546 -7.03851,-12.974722 -10.94415,-19.236881 0,0 7.76538,-4.496881 7.76538,-4.496881 z"
       transform="translate(-857.43469,-5.098767)" />
    <path
       style="fill:#000000;fill-opacity:1;stroke:#000000;stroke-width:5.0999999;stroke-linecap:round;stroke-miterlimit:4;stroke-opacity:1;stroke-dasharray:none"
       id="path2945"
       d="m 403.49571,81.681539 c 9.02985,-2.791187 17.97239,-5.855211 26.92107,-8.893903 9.07522,-3.141777 18.22862,-6.037384 27.48408,-8.597562 4.20247,-1.246813 8.507,-1.566206 12.85048,-1.226694 0,0 -0.41085,0.307749 -0.41085,0.307749 l 0,0 c -6.10427,1.685841 -12.13362,3.614315 -18.21855,5.367895 -9.22865,2.706582 -18.40908,5.5657 -27.51467,8.664555 -9.05645,3.01723 -18.08825,6.108569 -27.16439,9.066851 0,0 6.05283,-4.688891 6.05283,-4.688891 z"
       transform="translate(-857.43469,-5.098767)" />
    <path
       style="fill:#000000;fill-opacity:1;stroke:#000000;stroke-width:5.0999999;stroke-linecap:round;stroke-miterlimit:4;stroke-opacity:1;stroke-dasharray:none"
       id="path2947"
       d="m 422.5333,125.59747 c 10.37195,-7.49849 21.45185,-13.91986 32.66985,-20.05146 9.70127,-5.27901 19.84849,-9.609461 30.22162,-13.363547 4.51117,-0.947739 9.79059,-4.412113 14.50794,-2.805088 0.58534,0.493045 0.35578,0.227964 0.72323,0.763974 0,0 -0.4129,0.304984 -0.4129,0.304984 l 0,0 c -2.0339,0.717563 -0.93945,0.331449 -3.28337,1.158333 -5.97894,2.017083 -12.0191,3.80747 -18.05102,5.65943 -9.70647,3.354424 -19.236,7.205684 -28.33054,12.005694 -8.21707,4.38676 -16.23946,9.11425 -23.764,14.63291 0,0 -4.28081,1.69477 -4.28081,1.69477 z"
       transform="translate(-857.43469,-5.098767)" />
    <path
       style="fill:#000000;fill-opacity:1;stroke:#000000;stroke-width:5.0999999;stroke-linecap:round;stroke-miterlimit:4;stroke-opacity:1;stroke-dasharray:none"
       id="path2949"
       d="m 550.67471,93.442723 c -5.91669,5.537265 -11.61499,11.295867 -17.12364,17.237407 -3.37901,4.15464 -8.28944,8.81464 -7.92584,14.61174 2.25561,4.33755 8.10091,2.8851 11.92343,1.98713 1.11522,-0.40745 2.25346,-0.75673 3.34568,-1.22234 3.41298,-1.45495 7.16198,-3.76219 7.08526,-3.7967 -1.33006,-0.59814 -2.82091,2.84445 -3.93776,1.90667 -1.03715,-0.87086 2.12966,-1.67594 3.14432,-2.57289 1.00955,-0.89244 1.94926,-1.86092 2.9239,-2.79138 4.50824,-4.69342 7.92639,-10.09548 7.65022,-16.74316 -1.05002,-5.286128 -5.10947,-8.703799 -8.96566,-12.086286 -3.44526,-2.881773 -6.45876,-6.032697 -8.57473,-10.005737 -2.10577,-7.019667 6.63239,-9.30221 11.41964,-12.056543 4.80157,-1.84934 9.87392,-1.932336 14.9043,-1.279603 4.65123,0.931719 8.4801,2.960418 9.84543,7.685296 -0.69785,7.231908 -7.90344,11.757448 -13.17208,15.851481 0,0 -0.47615,0.191806 -0.47615,0.191806 l 0,0 c 3.64938,-3.207802 6.49909,-6.420765 5.47043,-11.573694 -1.29011,-4.183268 -4.73537,-6.267898 -8.9481,-7.009027 -4.98465,-0.661142 -10.0086,-0.335122 -14.64594,1.779766 2.01272,-1.20645 3.99921,-2.457783 6.03817,-3.61935 0.46216,-0.263286 -0.89752,0.576939 -1.30265,0.921583 -1.43335,1.21935 -1.65642,2.67566 -0.86201,4.347795 2.2309,3.787266 5.63881,6.632267 9.0597,9.323761 4.05231,3.580982 8.31504,7.251628 9.30228,12.854714 0.21902,7.141918 -3.28986,12.904508 -8.22063,17.911618 -7.79995,7.4084 -17.14211,13.4578 -27.40512,16.782 -4.49301,0.86962 -10.15262,1.68774 -12.71207,-3.07079 -0.85343,-6.06938 4.08951,-10.92831 7.67089,-15.24783 5.85558,-6.2199 12.07212,-12.07531 18.39071,-17.821766 0,0 6.09802,-2.495671 6.09802,-2.495671 z"
       transform="translate(-857.43469,-5.098767)" />
    <path
       style="fill:#000000;fill-opacity:1;stroke:#000000;stroke-width:5.0999999;stroke-linecap:round;stroke-miterlimit:4;stroke-opacity:1;stroke-dasharray:none"
       id="path2951"
       d="m 822.12078,679.54508 c 2.22849,12.77495 2.82538,25.77698 3.36213,38.71282 0.37124,14.19776 1.42374,28.46398 0.0225,42.63201 -0.14577,2.16969 -0.52548,4.31072 -0.74854,6.47104 0,0 -0.42854,0.28258 -0.42854,0.28258 l 0,0 c -2.57618,0.10956 -3.25687,-1.72623 -4.18179,-3.97449 -3.68044,-13.27252 -2.48098,-27.27905 -3.43019,-40.89546 -0.60699,-12.9227 -1.07816,-25.89551 -3.15418,-38.68738 0,0 8.55859,-4.54112 8.55859,-4.54112 z"
       transform="translate(-857.43469,-5.098767)" />
    <path
       style="fill:#000000;fill-opacity:1;stroke:#000000;stroke-width:5.0999999;stroke-linecap:round;stroke-miterlimit:4;stroke-opacity:1;stroke-dasharray:none"
       id="path2953"
       d="m 793.47383,695.17095 c 12.16833,-9.22576 25.67664,-16.6866 39.48903,-23.13456 11.7102,-5.17502 24.08114,-8.81583 36.93764,-8.83028 4.55857,0.0412 8.69128,1.86742 13.01065,2.9934 0,0 -0.42084,0.29393 -0.42084,0.29393 l 0,0 c -6.12321,-0.77423 -12.22272,0.073 -18.30388,0.96008 -13.60325,2.60298 -27.22233,5.5054 -39.8396,11.4399 -2.19433,1.03559 -4.38866,2.07118 -6.58299,3.10677 1.01443,-0.69368 4.16335,-2.5868 3.0433,-2.08106 -6.64661,3.00121 -12.45773,7.78088 -18.52874,11.73595 0,0 -8.80457,3.51587 -8.80457,3.51587 z"
       transform="translate(-857.43469,-5.098767)" />
    <path
       style="fill:#000000;fill-opacity:1;stroke:#000000;stroke-width:5.0999999;stroke-linecap:round;stroke-miterlimit:4;stroke-opacity:1;stroke-dasharray:none"
       id="path2955"
       d="m 796.43541,782.09069 c 9.32321,-3.30467 18.68083,-6.50087 28.12586,-9.44006 9.16153,-2.80317 18.47985,-5.03885 27.93828,-6.5548 3.54012,-0.40043 7.04075,-0.85466 10.48421,-1.77176 0,0 -0.40507,0.31532 -0.40507,0.31532 l 0,0 c -5.26907,2.11267 -10.52422,4.24633 -15.95363,5.92791 -9.89849,2.77007 -19.93327,5.03255 -29.76621,8.04036 -9.34451,2.87082 -18.59533,6.01794 -27.82587,9.23507 0,0 7.40243,-5.75204 7.40243,-5.75204 z"
       transform="translate(-857.43469,-5.098767)" />
    <path
       style="fill:#000000;fill-opacity:1;stroke:#000000;stroke-width:5.0999999;stroke-linecap:round;stroke-miterlimit:4;stroke-opacity:1;stroke-dasharray:none"
       id="path2957"
       d="m 933.39444,732.04499 c -6.39578,3.88151 -12.39989,8.39021 -17.07847,14.26282 -2.24772,3.2878 -1.59626,5.16715 2.20779,5.75673 5.60288,0.43779 20.56894,-8.85506 2.9976,1.05906 3.00379,-1.00736 4.39149,-4.55767 6.97149,-6.0375 4.23432,-2.42871 8.56622,-4.6832 12.84933,-7.0248 3.66921,1.37737 6.00292,5.00799 8.34475,7.97832 3.77209,4.94895 7.51047,9.94531 10.82291,15.2172 2.77811,4.27889 4.54752,8.51651 3.1325,13.54666 -2.3024,4.52229 -6.61001,6.92589 -10.95066,9.19227 -12.118,6.32714 -7.36367,5.17315 -14.85604,6.45019 -5.0526,-0.0297 -2.42058,0.1249 -7.89098,-0.54316 0,0 0.41537,-0.30161 0.41537,-0.30161 l 0,0 c 7.6019,-0.66989 3.80534,0.0316 11.37584,-2.17804 6.07809,-2.52164 7.4698,-3.44702 1.45954,0.22137 -1.18743,0.72475 8.48887,-5.7294 7.28989,-6.72511 2.22611,-4.5797 0.96674,-8.69467 -1.38957,-13.04636 -3.06662,-5.35289 -6.61136,-10.40066 -10.58574,-15.12287 -2.02096,-2.29581 -4.56041,-6.45739 -7.97363,-6.3647 20.77731,-12.45011 7.4075,-4.445 2.40302,0.32535 -6.68083,3.87189 -14.85288,10.68964 -23.43583,9.56699 -4.01571,-1.43449 -4.81274,-4.3554 -2.46525,-7.99379 4.69083,-6.11321 10.83207,-10.76264 17.37575,-14.77092 0,0 8.98039,-3.4681 8.98039,-3.4681 z"
       transform="translate(-857.43469,-5.098767)" />
    <path
       style="fill:#000000;fill-opacity:1;stroke:#000000;stroke-width:5.0999999;stroke-linecap:round;stroke-miterlimit:4;stroke-opacity:1;stroke-dasharray:none"
       id="path2959"
       d="m 1198.8362,460.14446 c -0.5052,10.05295 -0.6643,20.11629 -0.6771,30.18067 0.088,4.52672 0.054,9.02064 0.3941,13.53515 0,0 -0.4538,0.23988 -0.4538,0.23988 l 0,0 c -0.9674,-4.15199 -1.9693,-8.30803 -2.2731,-12.57737 -0.6182,-9.75061 -0.8553,-19.50861 -1.1294,-29.27285 0,0 4.1393,-2.10548 4.1393,-2.10548 z"
       transform="translate(-857.43469,-5.098767)" />
    <path
       style="fill:#000000;fill-opacity:1;stroke:#000000;stroke-width:5.0999999;stroke-linecap:round;stroke-miterlimit:4;stroke-opacity:1;stroke-dasharray:none"
       id="path2961"
       d="m 1181.6049,459.90843 c 10.3241,-2.21053 20.7488,-3.88383 31.2332,-5.10454 6.5008,-0.34014 13.7518,-1.98081 19.8978,0.93854 0,0 -0.5811,0.41191 -0.5811,0.41191 l 0,0 c -8.4053,0.64534 -16.7347,2.03098 -25.1092,2.96957 -10.5062,1.41063 -20.9843,3.05252 -31.3538,5.27098 0,0 5.9131,-4.48646 5.9131,-4.48646 z"
       transform="translate(-857.43469,-5.098767)" />
    <path
       style="fill:#000000;fill-opacity:1;stroke:#000000;stroke-width:5.0999999;stroke-linecap:round;stroke-miterlimit:4;stroke-opacity:1;stroke-dasharray:none"
       id="path2963"
       d="m 1181.3172,512.72154 c 8.6947,-2.92371 17.5525,-5.33697 26.5089,-7.30957 4.1106,-0.55359 10.6841,-2.63006 13.4602,1.67327 0,0 -0.9307,0.60987 -0.9307,0.60987 l 0,0 c -6.2558,-0.84095 -12.534,0.91504 -18.5773,2.3389 -9.6188,2.61644 -19.0977,5.67408 -28.5141,8.94215 0,0 8.053,-6.25462 8.053,-6.25462 z"
       transform="translate(-857.43469,-5.098767)" />
    <path
       style="fill:#000000;fill-opacity:1;stroke:#000000;stroke-width:5.0999999;stroke-linecap:round;stroke-miterlimit:4;stroke-opacity:1;stroke-dasharray:none"
       id="path2965"
       d="m 1231.1575,529.56995 c 5.2364,-3.56456 9.8211,-7.91601 14.0849,-12.57253 1.8059,-2.39061 9.8151,-12.99 12.5968,-7.54184 0.791,4.9257 0.6515,9.97136 0.7064,14.95019 -0.044,5.48368 0.4794,10.95708 0.5057,16.43495 0.047,2.50782 -0.7814,4.80827 -2.3928,6.71003 0,0 -0.7446,0.42809 -0.7446,0.42809 l 0,0 c -2.2828,0.13596 -3.1394,-1.73828 -3.3169,-3.81681 -0.4249,-5.55128 0.047,-11.13691 -0.051,-16.69977 0.061,-4.85453 0.4099,-9.84002 -0.5999,-14.61503 -1.6024,-2.51356 -0.7263,-0.60144 4.7843,-4.31213 0.8277,-0.55731 -1.5547,1.26595 -2.2124,2.01631 -0.5434,0.61992 -1.0505,1.27071 -1.5809,1.90176 -0.5775,0.68707 -1.1619,1.36835 -1.7428,2.05253 -4.6451,4.95448 -9.6757,9.54946 -15.394,13.2529 0,0 -4.6424,1.81135 -4.6424,1.81135 z"
       transform="translate(-857.43469,-5.098767)" />
    <path
       style="fill:#000000;fill-opacity:1;stroke:#000000;stroke-width:5.0999999;stroke-linecap:round;stroke-miterlimit:4;stroke-opacity:1;stroke-dasharray:none"
       id="path2967"
       d="m 1292.8517,545.01792 c -5.0642,-5.47942 -5.572,-12.07931 -3.8235,-19.00058 3.4798,-9.44993 9.3082,-11.81765 17.8695,-16.48128 4.7526,-1.27597 7.5968,1.15246 9.2807,5.37006 1.9875,6.17806 -0.2288,11.53779 -3.815,16.55575 -2.0055,2.71678 -4.6707,4.54183 -7.51,6.25154 0,0 -0.4785,0.18584 -0.4785,0.18584 l 0,0 c 1.8553,-1.24567 3.1378,-2.34696 3.8367,-4.57428 1.415,-4.67457 2.4118,-9.71916 1.0132,-14.51374 -1.6933,-3.67596 -4.0441,-5.90967 -8.3143,-4.52547 1.4522,-0.9252 2.9234,-1.8212 4.3567,-2.77559 0.7353,-0.48966 -1.5461,0.86349 -2.2622,1.3808 -3.4416,2.48617 -5.843,5.98219 -7.3088,9.93499 -1.6963,6.65573 -1.2533,12.92654 3.943,17.96205 0,0 -6.7875,4.22991 -6.7875,4.22991 z"
       transform="translate(-857.43469,-5.098767)" />
    <path
       style="fill:#000000;fill-opacity:1;stroke:#000000;stroke-width:5.0999999;stroke-linecap:round;stroke-miterlimit:4;stroke-opacity:1;stroke-dasharray:none"
       id="path2969"
       d="m 1113.7312,130.14257 c 2.6799,8.66046 4.9713,17.43732 6.7691,26.32225 1.0654,4.93782 1.0262,9.95325 0.85,14.96611 0,0 -0.5258,0.29319 -0.5258,0.29319 l 0,0 c -3.4955,-3.22068 -4.5169,-7.90443 -5.7406,-12.34267 -2.2723,-8.71164 -4.3342,-17.49255 -7.1821,-26.04034 0,0 5.8294,-3.19854 5.8294,-3.19854 z"
       transform="translate(-857.43469,-5.098767)" />
    <path
       style="fill:#000000;fill-opacity:1;stroke:#000000;stroke-width:5.0999999;stroke-linecap:round;stroke-miterlimit:4;stroke-opacity:1;stroke-dasharray:none"
       id="path2971"
       d="m 1100.1091,131.75512 c 8.4924,0.0201 16.9845,0.0407 25.4768,4.1e-4 6.008,0.1901 12.0659,-0.43761 18.0332,0.45162 1.3407,0.36747 2.1817,0.79666 2.0592,2.22277 0,0 -0.5872,0.40017 -0.5872,0.40017 l 0,0 c -2.5844,0.62837 -5.0849,1.58547 -7.7357,1.94294 -6.5165,0.83646 -13.0679,0.76572 -19.629,0.68788 -8.3204,-0.10977 -16.6416,-0.18637 -24.9604,-0.38592 0,0 7.3431,-5.31987 7.3431,-5.31987 z"
       transform="translate(-857.43469,-5.098767)" />
    <path
       style="fill:#000000;fill-opacity:1;stroke:#000000;stroke-width:5.0999999;stroke-linecap:round;stroke-miterlimit:4;stroke-opacity:1;stroke-dasharray:none"
       id="path2973"
       d="m 1121.5826,177.12836 c 6.5755,0.42498 13.1646,0.53051 19.7519,0.50365 4.9553,0.025 9.9028,-0.26681 14.852,-0.45618 1.0096,0.12563 6.2103,-0.69489 5.7504,1.22396 -0.3087,0.69409 -0.8225,1.15326 -1.3953,1.62177 0,0 -0.5364,0.41779 -0.5364,0.41779 l 0,0 c -1.0496,0.67483 -2.1247,1.29 -3.2848,1.76227 -3.0536,1.24043 -6.298,1.51642 -9.5782,1.59359 -4.8151,0.15148 -9.6337,0.2552 -14.4503,0.0914 -6.3161,-0.27011 -12.6245,-0.67243 -18.9273,-1.16319 0,0 7.818,-5.59509 7.818,-5.59509 z"
       transform="translate(-857.43469,-5.098767)" />
    <path
       style="fill:#000000;fill-opacity:1;stroke:#000000;stroke-width:5.0999999;stroke-linecap:round;stroke-miterlimit:4;stroke-opacity:1;stroke-dasharray:none"
       id="path2975"
       d="m 1193.6943,161.05761 c 2.5171,6.42635 4.1782,13.1256 5.9595,19.77815 1.1032,4.36275 2.0569,8.75911 1.0663,13.2156 -0.148,1.01792 -0.5945,1.92409 -0.9749,2.86264 0,0 -0.4321,0.30159 -0.4321,0.30159 l 0,0 c -1.5074,0.41215 -2.6822,0.66262 -4.1616,-0.0778 -3.7808,-2.40137 -4.0013,-7.13393 -5.0464,-11.14235 -1.5231,-6.74698 -2.9685,-13.52278 -5.1564,-20.09586 0,0 8.7456,-4.84197 8.7456,-4.84197 z"
       transform="translate(-857.43469,-5.098767)" />
    <path
       style="fill:#000000;fill-opacity:1;stroke:#000000;stroke-width:5.0999999;stroke-linecap:round;stroke-miterlimit:4;stroke-opacity:1;stroke-dasharray:none"
       id="path2977"
       d="m 1231.3428,159.1731 c 1.6586,6.55118 3.0264,13.1692 4.3607,19.79232 0.9868,4.81915 2.2321,9.59055 1.6436,14.52514 0.017,1.69739 -1.2321,3.52212 -0.7147,5.16082 0,0 -0.4319,0.27733 -0.4319,0.27733 l 0,0 c -1.9518,-0.30618 -3.8964,-0.49029 -5.5273,-1.74888 -3.7085,-3.3039 -3.6187,-8.66529 -4.2818,-13.27436 -0.9004,-6.78233 -1.8474,-13.57273 -3.428,-20.23651 0,0 8.3794,-4.49586 8.3794,-4.49586 z"
       transform="translate(-857.43469,-5.098767)" />
    <path
       style="fill:#000000;fill-opacity:1;stroke:#000000;stroke-width:5.0999999;stroke-linecap:round;stroke-miterlimit:4;stroke-opacity:1;stroke-dasharray:none"
       id="path2979"
       d="m 455.68594,551.84305 c 0.36321,9.76325 0.0638,19.51869 -0.69007,29.25425 -0.51537,6.22375 -2.08148,12.26126 -4.42186,18.0313 0,0 -0.85238,0.41916 -0.85238,0.41916 l 0,0 c -1.14001,-5.1618 -0.80611,-10.47065 -0.24801,-15.69231 0.82627,-9.91407 1.70995,-19.82572 1.82706,-29.78148 0,0 4.38526,-2.23092 4.38526,-2.23092 z"
       transform="translate(-857.43469,-5.098767)" />
    <path
       style="fill:#000000;fill-opacity:1;stroke:#000000;stroke-width:5.0999999;stroke-linecap:round;stroke-miterlimit:4;stroke-opacity:1;stroke-dasharray:none"
       id="path2981"
       d="m 416.97029,559.18159 c 9.01735,-3.66502 18.29225,-6.6175 27.59374,-9.46029 9.0741,-2.66764 18.11714,-5.45101 27.24743,-7.92187 5.76683,-1.36922 11.67702,-3.62511 17.6883,-2.94082 1.46138,0.2191 2.46561,1.27566 3.75355,1.83367 0,0 -0.41643,0.30015 -0.41643,0.30015 l 0,0 c -3.10013,0.48625 -6.09903,1.42375 -9.13937,2.18669 -6.61651,1.67723 -13.35086,2.85958 -19.90828,4.77947 -8.76427,2.37637 -17.48202,4.92315 -26.27462,7.19584 -8.83592,2.43156 -17.6411,5.02043 -26.15272,8.44597 0,0 5.6084,-4.41881 5.6084,-4.41881 z"
       transform="translate(-857.43469,-5.098767)" />
    <path
       style="fill:#000000;fill-opacity:1;stroke:#000000;stroke-width:5.0999999;stroke-linecap:round;stroke-miterlimit:4;stroke-opacity:1;stroke-dasharray:none"
       id="path2983"
       d="m 444.83531,612.99384 c 8.85585,-6.12958 18.08102,-11.78562 27.96599,-16.09512 5.23247,-2.49314 10.80283,-3.57372 16.49769,-4.21417 0.67015,-0.0593 1.3403,-0.11857 2.01046,-0.17786 0,0 -0.67852,0.51818 -0.67852,0.51818 l 0,0 c -1.06718,0.36375 -2.13437,0.7275 -3.20156,1.09125 -6.63273,2.31397 -13.38081,4.31134 -19.89344,6.95176 -8.05986,3.57085 -7.52446,3.42322 -16.34038,9.41536 0,0 -6.36024,2.5106 -6.36024,2.5106 z"
       transform="translate(-857.43469,-5.098767)" />
    <path
       style="fill:#000000;fill-opacity:1;stroke:#000000;stroke-width:5.0999999;stroke-linecap:round;stroke-miterlimit:4;stroke-opacity:1;stroke-dasharray:none"
       id="path2985"
       d="m 491.68683,609.77309 c 1.004,6.64832 2.24292,13.29382 2.38433,20.02893 0.083,3.23269 -0.6165,6.33584 -2.2287,9.12638 0,0 -0.98232,0.50691 -0.98232,0.50691 l 0,0 c -2.23307,-1.25949 -2.88109,-3.84779 -3.32405,-6.22821 -1.11045,-6.64589 -1.24949,-13.4167 -2.20394,-20.08806 0,0 6.35468,-3.34595 6.35468,-3.34595 z"
       transform="translate(-857.43469,-5.098767)" />
    <path
       style="fill:#000000;fill-opacity:1;stroke:#000000;stroke-width:5.0999999;stroke-linecap:round;stroke-miterlimit:4;stroke-opacity:1;stroke-dasharray:none"
       id="path2987"
       d="m 516.91264,607.83061 c 5.01544,-1.73059 10.14955,-2.30112 14.9113,0.30181 3.34234,2.62756 3.61867,6.19749 2.94862,10.10112 -1.21384,4.63793 -3.97164,8.58982 -6.89404,12.30674 -0.34844,0.17029 -3.42811,4.43098 -3.45967,4.14316 -0.1346,-1.22769 0.0489,-0.95835 1.07667,-1.52444 4.73354,-2.47808 9.68711,-4.4619 14.74236,-6.17139 5.15993,-1.70583 10.46012,-2.61068 15.8842,-2.33012 3.30157,0.37713 6.6087,1.1576 7.80252,4.55759 0.0711,1.54224 -0.65418,2.7098 -1.35849,3.9982 0,0 -0.70552,0.45406 -0.70552,0.45406 l 0,0 c -1.87018,0.35967 -3.71925,0.65076 -5.63257,0.39828 -3.17759,-0.73987 -6.02968,-2.36617 -9.27923,-2.81908 -5.13712,-0.2932 -10.16849,0.62661 -15.05267,2.22935 -4.87565,1.66356 -9.62836,3.62405 -14.26028,5.88294 -5.3478,1.61147 1.18203,-4.73151 1.74557,-5.18726 3.00211,-3.70322 6.01959,-7.48767 7.47349,-12.10714 0.85821,-3.4616 0.94254,-6.88141 -1.98792,-9.39972 -4.48508,-2.5621 -9.4227,-1.75477 -14.11531,-0.0417 0,0 6.16097,-4.7924 6.16097,-4.7924 z"
       transform="translate(-857.43469,-5.098767)" />
    <path
       style="fill:#000000;fill-opacity:1;stroke:#000000;stroke-width:5.0999999;stroke-linecap:round;stroke-miterlimit:4;stroke-opacity:1;stroke-dasharray:none"
       id="path2989"
       d="m 1681.699,-99.800362 c -0.8436,8.194845 -1.041,16.433582 -1.2692,24.662575 -0.316,7.497987 -0.075,15.05296 -2.4649,22.239033 -1.2447,3.189146 -3.1745,5.626979 -6.1217,7.303713 0,0 -0.895,0.349528 -0.895,0.349528 l 0,0 c -0.1452,-1.229234 -0.3573,-2.638319 -0.7045,-3.876889 -0.3084,-7.09992 0.7903,-14.19305 0.8321,-21.294092 0.4019,-8.30288 0.7204,-16.617726 1.558,-24.891181 0,0 9.0652,-4.492687 9.0652,-4.492687 z"
       transform="translate(-857.43469,-5.098767)" />
    <path
       style="fill:#000000;fill-opacity:1;stroke:#000000;stroke-width:5.0999999;stroke-linecap:round;stroke-miterlimit:4;stroke-opacity:1;stroke-dasharray:none"
       id="path2991"
       d="m 1623.3245,-87.417955 c 10.5956,-0.309149 21.1861,-0.772846 31.7631,-1.47126 12.1291,-0.739989 24.2039,-2.14753 36.2793,-3.473161 6.4859,-0.492984 13.06,-1.925752 19.5861,-1.265122 1.0653,0.589538 1.1021,1.104452 1.0433,2.224525 0,0 -0.4383,0.267229 -0.4383,0.267229 l 0,0 c -1.7367,-0.193458 -3.2973,0.413243 -4.9961,0.770275 -7.3821,1.715287 -14.9198,2.641118 -22.4537,3.396448 -11.9188,1.251864 -23.8413,2.521626 -35.8183,3.078463 -10.3798,0.505531 -20.7676,0.701236 -31.155,0.996017 0,0 6.1896,-4.523414 6.1896,-4.523414 z"
       transform="translate(-857.43469,-5.098767)" />
    <path
       style="fill:#000000;fill-opacity:1;stroke:#000000;stroke-width:5.0999999;stroke-linecap:round;stroke-miterlimit:4;stroke-opacity:1;stroke-dasharray:none"
       id="path2993"
       d="m 1631.3378,-18.315312 c 8.5896,-0.987829 17.19,-1.872698 25.7669,-2.967356 9.9961,-1.231939 19.9539,-2.783628 29.8482,-4.664119 8.2578,-1.644786 16.4454,-3.606509 24.686,-5.332244 3.9364,-0.671884 7.8908,-1.966084 11.9257,-1.769849 0.1024,0.08268 0.2872,0.117969 0.3071,0.248043 0.3551,2.312021 -4.4674,3.660777 -5.29,3.962506 0,0 0.4086,-0.310695 0.4086,-0.310695 l 0,0 c -1.9775,1.091076 -3.0032,3.183741 -5.4606,3.612584 -4.2843,1.129913 -8.6738,1.755023 -13.0033,2.683917 -8.0152,1.648546 -16.0072,3.418493 -24.0715,4.818629 -9.573,1.578449 -19.1927,2.84339 -28.8461,3.820483 -8.4765,0.894547 -16.9725,1.61943 -25.4257,2.725496 0,0 9.1547,-6.827395 9.1547,-6.827395 z"
       transform="translate(-857.43469,-5.098767)" />
    <path
       style="fill:#000000;fill-opacity:1;stroke:#000000;stroke-width:5.0999999;stroke-linecap:round;stroke-miterlimit:4;stroke-opacity:1;stroke-dasharray:none"
       id="path2995"
       d="m 909.78087,-44.11706 c 6.3011,1.100905 12.6798,1.582147 19.0273,2.314269 3.0828,0.242039 6.4815,0.734827 6.9259,4.27298 -0.6371,3.311556 -3.1315,5.857009 -5.3369,8.262363 -1.6948,1.798562 -3.7818,3.295918 -1.8306,5.526338 2.3651,2.312505 4.646,4.674467 6.7071,7.264629 1.4563,2.42778 3.3513,4.840051 3.6053,7.7256553 -0.9824,4.5845492 -11.9118,8.40385197 -13.7374,9.16387634 -0.042,0.0172582 -3.8637,-0.66099444 -3.9103,-0.66918896 -1.0175,-0.22771276 -2.0349,-0.45542547 -3.0524,-0.68313827 0,0 0.4145,-0.30289171 0.4145,-0.30289171 l 0,0 c 1.7298,-0.3048957 3.4597,-0.6097914 5.1896,-0.9146871 1.4513,-0.3988882 2.9208,-0.7368552 4.354,-1.1966646 1.2006,-0.3852124 4.4884,-2.1657828 3.5392,-1.3357021 -12.0552,10.5422235 -6.1726,4.16748455 -5.0391,2.159815 0.3644,-2.8008616 -0.4993,-5.2799341 -2.1746,-7.5328839 -1.8885,-2.698189 -4.2597,-4.983557 -6.7109,-7.171261 -2.2551,-2.711962 -1.5445,-4.729603 0.8903,-7.120041 2.2998,-2.400058 4.5879,-4.873397 6.21,-7.798756 1.2149,-2.808295 -1.2186,-3.729638 -3.6861,-4.298409 -5.875,-1.446167 -11.8429,-2.314893 -17.836,-3.126345 0,0 6.4511,-4.539957 6.4511,-4.539957 z" />
    <path
       style="fill:#000000;fill-opacity:1;stroke:#000000;stroke-width:5.0999999;stroke-linecap:round;stroke-miterlimit:4;stroke-opacity:1;stroke-dasharray:none"
       id="path2997"
       d="m 988.22908,362.29266 c -10.39289,2.59101 -20.44181,6.28197 -30.3428,10.32636 -16.62885,6.80945 -31.79795,16.3694 -46.40342,26.71803 -19.08288,13.6619 -35.18259,30.63773 -49.88285,48.79824 -12.78035,16.31678 -23.11208,34.28324 -30.93538,53.44229 -3.68639,9.90876 -6.41263,19.21257 -2.56304,29.39263 4.11052,7.57973 11.34751,12.55432 18.25784,17.37263 9.55631,6.65822 20.08888,11.30529 31.28207,14.35255 14.31786,3.61632 28.65191,1.55792 42.73727,-1.8971 14.51912,-3.89172 27.6485,-11.05613 40.08569,-19.30121 10.28101,-6.93014 19.08654,-15.56128 26.53704,-25.42079 3.91873,-5.7591 6.95697,-12.15229 6.91762,-19.2127 -0.4295,-3.72715 -2.52168,-6.91453 -4.68084,-9.88398 -1.47902,-1.54154 -2.04583,-3.11662 -2.22516,-5.18959 -0.0433,-0.47975 -0.0866,-0.9595 -0.12991,-1.43926 0,0 0.0452,-0.0243 0.0452,-0.0243 l 0,0 c 0.16297,0.41524 0.32594,0.83048 0.48892,1.24572 0.75609,1.84076 2.20771,2.93136 3.50054,4.41128 2.26179,2.95595 4.36492,6.18583 4.79315,9.96545 0.0661,7.11404 -3.00535,13.55992 -6.94209,19.36636 -7.45327,9.89391 -16.27839,18.5499 -26.57595,25.50592 -13.43534,8.92762 -27.59452,16.82781 -43.26777,21.08737 -14.09529,3.42886 -28.43166,5.4536 -42.74254,1.78811 -11.17474,-3.10067 -21.6829,-7.77488 -31.21102,-14.46965 -6.9092,-4.85417 -14.14754,-9.88203 -18.20914,-17.51279 -3.81894,-10.25961 -1.02949,-19.63564 2.71244,-29.58773 7.929,-19.20829 18.34641,-37.22623 31.19788,-53.59577 14.75504,-18.16832 30.87876,-35.18345 49.99367,-48.87154 15.06985,-10.68407 30.77169,-20.50929 47.90644,-27.58087 9.88373,-4.02726 19.91478,-7.70121 30.28995,-10.27107 0,0 -0.63381,0.48544 -0.63381,0.48544 z"
       transform="translate(-857.43469,-5.098767)" />
    <path
       style="fill:#000000;fill-opacity:1;stroke:#000000;stroke-width:5.0999999;stroke-linecap:round;stroke-miterlimit:4;stroke-opacity:1;stroke-dasharray:none"
       id="path2999"
       d="m 951.41911,512.52629 c -0.25882,-7.39648 -0.59575,-14.78937 -1.06733,-22.17534 -0.19196,-4.15705 -0.98307,-8.32793 -0.12044,-12.44394 1.37167,-4.29224 5.23291,-6.31976 9.23016,-7.7936 6.72891,-1.93805 13.19676,0.77137 19.31219,3.41766 9.30945,4.61397 18.2314,9.96368 27.27341,15.07279 7.8172,4.4963 15.7964,8.70843 23.5654,13.28785 2.8502,1.74293 5.663,3.34762 9.0321,3.5719 0,0 -0.042,0.0302 -0.042,0.0302 l 0,0 c -3.7525,0.33514 -6.9096,-1.06586 -10.2147,-2.80403 -8.0495,-4.17241 -15.9263,-8.66284 -23.817,-13.12583 -9.01782,-5.1169 -17.91578,-10.47534 -27.20024,-15.0995 -6.02561,-2.64494 -12.42726,-5.35052 -19.07481,-3.43963 -3.18087,1.18643 -5.82491,2.85889 -6.89668,6.31785 -0.91525,4.10692 -0.13058,8.28717 0.0412,12.44483 0.44088,7.39544 0.73541,14.79685 1.02603,22.19952 0,0 -1.0478,0.53922 -1.0478,0.53922 z"
       transform="translate(-857.43469,-5.098767)" />
    <path
       style="fill:#000000;fill-opacity:1;stroke:#000000;stroke-width:5.0999999;stroke-linecap:round;stroke-miterlimit:4;stroke-opacity:1;stroke-dasharray:none"
       id="path3001"
       d="m 1413.5452,412.32803 c -2.5313,12.10708 -5.4452,24.12926 -8.343,36.15242 -4.7814,19.2662 -8.9968,38.65386 -12.3073,58.22612 -2.6411,14.88496 -3.6043,29.82877 0.067,44.56373 3.1514,10.39324 9.8594,18.65835 17.549,26.05612 6.0663,5.68912 13.0291,9.56308 21.3032,10.53668 8.6033,0.0766 14.4814,-4.74677 20.1361,-10.62846 8.4849,-9.92173 12.643,-22.22224 16.0913,-34.5848 3.3902,-13.68637 4.8027,-27.73295 6.3014,-41.71974 1.0831,-9.44731 2.1356,-18.89861 3.3693,-28.32773 0.5606,-2.8508 0.5312,-5.84156 1.2554,-8.66293 0.4547,-1.02087 0.4528,-2.00235 0.2838,-3.08985 0,0 0.045,-0.0246 0.045,-0.0246 l 0,0 c 0.3641,0.80581 0.7268,1.62642 0.9474,2.48472 0.049,2.85716 -0.8692,5.6991 -1.009,8.54203 -1.2796,9.42613 -2.2896,18.88544 -3.3909,28.33349 -1.4875,13.9954 -2.8981,28.05068 -6.2887,41.74438 -3.442,12.39449 -7.6081,24.72094 -16.0963,34.67639 -6.1854,6.46482 -13.4524,12.17827 -22.8389,12.10214 -8.2287,-1.09063 -15.0787,-5.07419 -21.0655,-10.79389 -7.6129,-7.48233 -14.3042,-15.78235 -17.453,-26.17883 -3.6715,-14.76817 -2.6468,-29.74447 0.024,-44.65277 3.3385,-19.60071 7.6313,-39.00658 12.4432,-58.29801 2.9371,-12.04221 5.9055,-24.08005 8.4665,-36.20937 0,0 0.5104,-0.24724 0.5104,-0.24724 z"
       transform="translate(-857.43469,-5.098767)" />
    <path
       style="fill:#000000;fill-opacity:1;stroke:#000000;stroke-width:5.0999999;stroke-linecap:round;stroke-miterlimit:4;stroke-opacity:1;stroke-dasharray:none"
       id="path3003"
       d="m 1451.9843,483.21556 c 6.6338,-5.02164 11.7514,-11.5531 16.3765,-18.38819 3.7505,-5.685 6.5979,-11.89792 10.3025,-17.60666 3.6305,-4.75958 5.9866,-4.37944 9.618,-0.1857 4.8318,6.94398 8.2653,14.75469 11.7727,22.42189 2.8977,5.60218 4.6881,11.6834 7.1946,17.44348 0.098,0.14057 0.1964,0.28114 0.2945,0.42171 0,0 -0.043,0.0276 -0.043,0.0276 l 0,0 c -0.2153,-0.0741 -0.4306,-0.14813 -0.6459,-0.22219 -3.5758,-5.10985 -5.2225,-11.44112 -8.1828,-16.88964 -3.5016,-7.65729 -6.9064,-15.45546 -11.6895,-22.41953 -0.9605,-1.11556 -1.73,-2.2685 -3.0617,-2.97504 -0.404,-0.2144 -0.9223,-0.14306 -1.3234,-0.36301 -0.117,-0.0642 0.062,-0.44951 -0.06,-0.39588 -1.0569,0.46374 -1.9418,1.77385 -2.6124,2.5834 -3.7468,5.69707 -6.5757,11.93652 -10.342,17.6264 -4.6694,6.87981 -9.8414,13.44446 -16.5297,18.49616 0,0 -1.0678,0.42517 -1.0678,0.42517 z"
       transform="translate(-857.43469,-5.098767)" />
    <path
       style="fill:#000000;fill-opacity:1;stroke:#000000;stroke-width:5.0999999;stroke-linecap:round;stroke-miterlimit:4;stroke-opacity:1;stroke-dasharray:none"
       id="path3005"
       d="m 934.52932,74.909228 c -12.02741,1.5942 -23.70268,4.947477 -35.2523,8.557187 -16.49458,5.208431 -32.05252,12.719431 -47.01914,21.304295 -12.67928,7.53698 -23.9769,16.87718 -32.62343,28.84551 -5.69922,9.07226 -7.40506,16.85971 -3.62542,26.93786 5.09633,9.73295 14.64171,14.35479 24.55225,17.85335 14.36874,4.35967 29.19263,3.61789 43.85604,1.58211 16.9011,-2.68229 32.6658,-9.18347 47.85157,-16.82024 12.89969,-6.69469 24.50577,-15.42408 35.12352,-25.28585 5.61079,-5.65929 11.25735,-11.95004 12.56012,-20.05773 0.0416,-4.80947 -3.31389,-6.65473 -7.46218,-7.7658 -4.29862,-0.85259 -8.67171,-0.39597 -12.98299,0.0757 -1.10874,-0.18695 -8.38791,1.57303 -3.0105,0.32563 2.0183,0.85311 2.51925,0.53082 3.77534,-1.05661 0,0 0.0471,-0.0205 0.0471,-0.0205 l 0,0 c -1.18402,2.0187 -2.81528,2.60304 -5.02321,1.88241 0.0793,-0.41887 0.0891,-0.85716 0.23804,-1.25659 0.0762,-0.20441 4.78916,-0.76168 5.25375,-0.826 4.32005,-0.46495 8.70593,-0.9102 13.00651,-0.0197 4.21603,1.15849 7.56937,3.12175 7.52888,7.9902 -1.30303,8.16565 -6.98923,14.50155 -12.63876,20.19933 -11.28743,10.48417 -23.70987,19.56821 -37.44407,26.63848 -15.17987,7.61956 -30.94079,14.10052 -47.83383,16.75294 -14.64262,2.00409 -29.44553,2.71405 -43.77111,-1.71244 -9.90054,-3.56014 -19.38296,-8.26536 -24.41289,-18.04213 -3.72288,-10.12437 -2.06778,-17.93026 3.64569,-27.0426 8.9627,-12.44353 20.79854,-22.02196 34.04231,-29.70559 14.95312,-8.568897 30.49696,-16.068286 46.97966,-21.250595 11.54263,-3.596128 23.21244,-6.917838 35.22658,-8.520744 0,0 -0.58749,0.438067 -0.58749,0.438067 z"
       transform="translate(-857.43469,-5.098767)" />
    <path
       style="fill:#000000;fill-opacity:1;stroke:#000000;stroke-width:5.0999999;stroke-linecap:round;stroke-miterlimit:4;stroke-opacity:1;stroke-dasharray:none"
       id="path3007"
       d="m 991.15696,97.763542 c -8.28345,0.168864 -16.53437,1.053137 -24.71958,2.296098 -6.10257,1.14854 -12.4457,1.94617 -18.15796,4.50212 -1.66437,3.27585 1.03318,5.7053 3.09435,8.10032 4.54124,4.58658 8.97524,9.2156 12.5667,14.5952 2.19848,3.33227 3.54276,6.9771 4.38198,10.84675 0,0 -0.0451,0.0245 -0.0451,0.0245 l 0,0 c -1.14208,-3.74878 -2.76442,-7.24744 -5.14982,-10.39207 -3.84584,-5.18889 -8.28879,-9.83311 -12.80266,-14.4422 -2.78973,-3.23241 -6.0545,-6.64577 -1.06598,-9.50864 5.73347,-2.53071 12.0682,-3.36482 18.18862,-4.483079 8.1493,-1.209942 16.36238,-2.068343 24.60673,-2.19286 0,0 -0.89725,0.653901 -0.89725,0.653901 z"
       transform="translate(-857.43469,-5.098767)" />
    <path
       style="fill:#000000;fill-opacity:1;stroke:#000000;stroke-width:5.0999999;stroke-linecap:round;stroke-miterlimit:4;stroke-opacity:1;stroke-dasharray:none"
       id="path3009"
       d="m 431.99201,247.28257 c -10.32829,4.39035 -18.31514,12.27317 -25.86662,20.32805 -13.38006,15.1273 -23.32293,32.74715 -32.49529,50.62024 -11.71064,23.50646 -19.53297,48.57578 -25.57244,74.05275 -4.63681,20.66122 -6.90638,41.69425 -4.80406,62.7887 1.67233,10.1933 5.21092,20.44455 13.89419,26.77365 1.4404,1.04988 3.06764,1.8159 4.60146,2.72385 11.57425,5.43166 23.50375,4.07643 35.3853,0.66972 14.78712,-5.0287 26.12429,-15.36376 36.54359,-26.59263 12.39362,-13.99486 20.4013,-30.7722 27.193,-47.99642 5.52617,-14.81012 9.28711,-30.16862 12.55339,-45.60737 0.43663,-4.66863 3.16598,-10.2056 1.2826,-14.88048 -1.06402,-1.12122 -2.35742,-2.00909 -3.56375,-2.97481 0,0 0.0433,-0.0276 0.0433,-0.0276 l 0,0 c 1.51036,0.87438 3.12883,1.48258 4.62078,2.37409 2.67858,4.20684 -0.78877,10.50209 -1.03921,14.85936 -3.31596,15.45488 -7.09876,30.83577 -12.63142,45.67072 -6.7879,17.24106 -14.80046,34.03496 -27.18952,48.05123 -11.02507,11.89987 -23.28293,22.59006 -38.89928,27.96044 -11.88535,3.36827 -23.81122,4.67862 -35.34647,-0.8282 -1.52359,-0.92359 -3.14217,-1.70614 -4.57077,-2.77078 -8.64239,-6.44053 -12.06611,-16.77243 -13.62819,-27.01299 -1.93984,-21.16114 0.43326,-42.23954 5.07587,-62.95018 6.07456,-25.47576 13.88976,-50.5538 25.58873,-74.07414 9.16688,-17.86553 19.09176,-35.48864 32.45459,-50.61855 7.78078,-8.31606 16.07816,-16.31612 26.73528,-20.82571 0,0 -0.36502,0.2871 -0.36502,0.2871 z"
       transform="translate(-857.43469,-5.098767)" />
    <path
       style="fill:#000000;fill-opacity:1;stroke:#000000;stroke-width:5.0999999;stroke-linecap:round;stroke-miterlimit:4;stroke-opacity:1;stroke-dasharray:none"
       id="path3011"
       d="m 449.90184,363.31158 c 7.78755,-5.03528 13.75652,-12.24168 19.60882,-19.31108 6.0775,-7.56808 11.86764,-15.40395 18.94762,-22.07895 6.72252,-5.74011 10.43493,-4.24265 15.37537,2.05738 4.68565,7.42734 7.766,15.72382 11.08596,23.81775 2.20293,5.8206 4.77215,11.42161 9.46821,15.60444 0,0 -0.0435,0.0272 -0.0435,0.0272 l 0,0 c -5.00677,-3.88416 -8.05738,-9.22222 -10.57399,-14.98626 -3.55626,-7.97469 -6.56832,-16.27132 -11.25604,-23.67607 -3.39818,-4.30842 -7.82183,-7.95746 -12.66772,-3.41429 -7.13054,6.65253 -12.92687,14.51352 -19.02422,22.09098 -6.45862,7.80182 -13.05586,15.79629 -22.05486,20.77589 0,0 1.13437,-0.90701 1.13437,-0.90701 z"
       transform="translate(-857.43469,-5.098767)" />
    <path
       style="fill:#000000;fill-opacity:1;stroke:#000000;stroke-width:5.0999999;stroke-linecap:round;stroke-miterlimit:4;stroke-opacity:1;stroke-dasharray:none"
       id="path3013"
       d="m 1119.1682,845.31324 c -10.8506,1.60698 -21.6415,3.52737 -32.3822,5.75081 -20.4311,4.28116 -40.2058,10.97371 -59.7389,18.23012 -24.5413,9.2458 -48.02804,20.90238 -70.54259,34.29878 -17.46334,10.88958 -33.94399,23.55307 -47.51263,39.12166 -2.55856,2.93568 -4.89404,6.05857 -7.34106,9.08786 -10.31055,14.18057 -19.21353,29.82428 -23.37753,47.00664 -0.68284,2.81769 -1.02939,5.70639 -1.54409,8.55959 -1.22698,12.1121 1.46876,23.8921 11.60793,31.5396 1.95373,1.4735 4.17545,2.5533 6.26317,3.83 18.49127,8.3294 38.88494,7.7283 58.67523,6.5765 26.4345,-2.1446 52.29787,-8.1416 77.80857,-15.137 26.5756,-7.3123 51.6985,-18.5314 75.8511,-31.6525 18.1709,-10.34509 34.9383,-22.87746 50.3239,-36.99518 6.327,-6.35708 13.1873,-13.14922 15.2529,-22.17364 0.4443,-4.12333 -1.2767,-7.41555 -3.9708,-10.36292 -1.319,-0.9849 -2.2903,-2.346 -3.4623,-3.46361 -2.253,-1.47271 -4.7976,-2.40309 -7.2936,-3.36817 -6.8184,-2.48797 -13.869,-4.225 -20.952,-5.76233 -6.1628,-1.27135 -12.3843,-2.22048 -18.5909,-3.24474 0.4997,-0.20054 -3.9796,-0.18454 -3.7805,-0.1664 3.4508,0.31435 1.7202,-0.39593 3.8391,2.68238 3.4627,4.62141 5.9034,9.79696 7.7932,15.2232 1.7316,4.96579 2.8042,10.11415 3.5907,15.30264 -1.3712,-0.75564 0.6682,1.48056 0.1516,1.56118 -0.6863,0.1071 -1.5241,0.33132 -2.0822,-0.0823 -0.6435,-0.47692 -0.4251,-5.54024 -0.4573,-6.17677 -0.2749,-6.95904 0.4808,-13.89909 1.2874,-20.79973 0.8619,-3.62459 0.039,-9.55989 3.5279,-12.12451 1.021,-0.75058 2.1869,-1.28096 3.2803,-1.92145 5.76,-1.08241 11.7201,0.5448 17.4156,1.46992 9.4392,1.56936 18.9728,2.35622 28.5186,2.88483 9.6088,0.55827 19.0718,-0.59507 28.375,-2.9198 0,0 -0.041,0.0313 -0.041,0.0313 l 0,0 c -9.725,2.82136 -19.7127,4.4039 -29.8743,3.99538 -9.5997,-0.45227 -19.1846,-1.22146 -28.6732,-2.80163 -5.6609,-0.91478 -11.6493,-2.57878 -17.3545,-1.33856 0.9069,-0.67234 -0.3345,0.22034 -0.9145,1.08722 -2.0748,3.10098 -1.6701,7.22634 -2.3918,10.71259 -0.8079,6.88533 -1.5761,13.81265 -1.2801,20.75664 0.027,0.52624 0.6338,5.7624 0.472,6.14247 -0.352,0.8266 -1.0869,1.43961 -1.7309,2.06604 -0.3692,0.35918 1.1472,-3.67762 -0.1308,-1.53983 -0.6846,-5.1974 -1.8379,-10.3244 -3.519,-15.29451 -1.881,-5.40997 -4.3058,-10.57372 -7.7728,-15.17061 -0.6297,-0.92123 -2.0156,-1.72809 -1.7995,-2.82285 0.6397,-3.2406 3.0945,-2.33275 5.2963,-1.98227 6.2086,1.01158 12.4251,1.99058 18.5878,3.26031 7.0939,1.54642 14.1562,3.28843 20.9874,5.77757 2.5263,0.96539 5.1231,1.89258 7.3745,3.42514 1.1123,1.1854 2.071,2.52721 3.4423,3.48542 2.7467,2.99099 4.4843,6.35803 4.0687,10.54581 -2.0483,9.09893 -8.9621,15.94465 -15.3339,22.3473 -16.3449,14.98212 -34.2417,28.15564 -53.6504,38.93907 -24.144,13.0921 -49.2559,24.2807 -75.8155,31.5704 -25.5049,6.9778 -51.36352,12.9487 -77.78887,15.0755 -19.80222,1.137 -40.22668,1.7202 -58.7003,-6.6875 -2.09016,-1.2889 -4.3178,-2.3777 -6.27049,-3.8666 -10.14199,-7.7333 -12.7869,-19.6182 -11.5225,-31.7694 0.52743,-2.8656 0.88566,-5.7676 1.58231,-8.59681 4.24586,-17.24328 13.23301,-32.93105 23.60335,-47.16446 2.46212,-3.03877 4.81382,-6.17045 7.38637,-9.11633 13.60308,-15.57719 30.09187,-28.27612 47.5819,-39.18273 23.13792,-13.70289 47.11063,-25.91414 72.34933,-35.32157 19.5469,-7.25604 39.3336,-13.95016 59.7762,-18.23857 10.7532,-2.22967 21.5583,-4.14395 32.4191,-5.77177 0,0 -0.8971,0.67317 -0.8971,0.67317 z"
       transform="translate(-857.43469,-5.098767)" />
    <path
       style="fill:#000000;fill-opacity:1;stroke:#000000;stroke-width:5.0999999;stroke-linecap:round;stroke-miterlimit:4;stroke-opacity:1;stroke-dasharray:none"
       id="path3015"
       d="m 1735.8582,-36.1444 c 5.2897,7.24323 8.2152,15.709808 10.7035,24.228062 2.7181,10.7878552 3.7612,21.8988081 4.2437,32.985076 0,0 -0.046,0.02352 -0.046,0.02352 l 0,0 c -0.5392,-10.976993 -2.2848,-21.88771842 -5.1067,-32.512218 -2.5346,-8.487022 -5.442,-16.943017 -10.6306,-24.230099 0,0 0.8357,-0.494337 0.8357,-0.494337 z"
       transform="translate(-857.43469,-5.098767)" />
  </g>
</svg>
