<?xml version="1.0" encoding="UTF-8" standalone="no"?>
<!-- Created with Inkscape (http://www.inkscape.org/) -->
<svg
   xmlns:dc="http://purl.org/dc/elements/1.1/"
   xmlns:cc="http://creativecommons.org/ns#"
   xmlns:rdf="http://www.w3.org/1999/02/22-rdf-syntax-ns#"
   xmlns:svg="http://www.w3.org/2000/svg"
   xmlns="http://www.w3.org/2000/svg"
   xmlns:sodipodi="http://sodipodi.sourceforge.net/DTD/sodipodi-0.dtd"
   xmlns:inkscape="http://www.inkscape.org/namespaces/inkscape"
   width="904.85718"
   height="344.85715"
   id="svg2"
   sodipodi:version="0.32"
   inkscape:version="0.46"
   sodipodi:docname="hw1q1.1.svg"
   inkscape:output_extension="org.inkscape.output.svg.inkscape"
   version="1.0">
  <defs
     id="defs4">
    <inkscape:perspective
       sodipodi:type="inkscape:persp3d"
       inkscape:vp_x="0 : 526.18109 : 1"
       inkscape:vp_y="0 : 1000 : 0"
       inkscape:vp_z="744.09448 : 526.18109 : 1"
       inkscape:persp3d-origin="372.04724 : 350.78739 : 1"
       id="perspective10" />
  </defs>
  <sodipodi:namedview
     id="base"
     pagecolor="#ffffff"
     bordercolor="#666666"
     borderopacity="1.0"
     gridtolerance="10000"
     guidetolerance="10"
     objecttolerance="10"
     inkscape:pageopacity="0.0"
     inkscape:pageshadow="2"
     inkscape:zoom="0.47227087"
     inkscape:cx="372.04724"
     inkscape:cy="526.18109"
     inkscape:document-units="px"
     inkscape:current-layer="layer2"
     showgrid="false"
     inkscape:window-width="1280"
     inkscape:window-height="712"
     inkscape:window-x="-5"
     inkscape:window-y="-3" />
  <metadata
     id="metadata7">
    <rdf:RDF>
      <cc:Work
         rdf:about="">
        <dc:format>image/svg+xml</dc:format>
        <dc:type
           rdf:resource="http://purl.org/dc/dcmitype/StillImage" />
      </cc:Work>
    </rdf:RDF>
  </metadata>
  <g
     inkscape:label="Layer 1"
     inkscape:groupmode="layer"
     id="layer1"
     style="display:inline"
     transform="translate(-104.71428,-268.50505)">
    <path
       sodipodi:type="arc"
       style="fill:none;fill-opacity:0.49809887;stroke:#000000;stroke-width:2;stroke-linecap:round;stroke-linejoin:round;stroke-miterlimit:4;stroke-dasharray:none;stroke-dashoffset:20.40000038;stroke-opacity:0.55513312"
       id="path2383"
       sodipodi:cx="217.14285"
       sodipodi:cy="380.93362"
       sodipodi:rx="111.42857"
       sodipodi:ry="111.42857"
       d="M 328.57143,380.93362 A 111.42857,111.42857 0 1 1 105.71428,380.93362 A 111.42857,111.42857 0 1 1 328.57143,380.93362 z" />
    <path
       sodipodi:type="arc"
       style="fill:none;fill-opacity:0.49803922;stroke:#000000;stroke-width:2;stroke-linecap:round;stroke-linejoin:round;stroke-miterlimit:4;stroke-dasharray:none;stroke-dashoffset:20.40000038;stroke-opacity:0.55513312"
       id="path2387"
       sodipodi:cx="217.14285"
       sodipodi:cy="380.93362"
       sodipodi:rx="111.42857"
       sodipodi:ry="111.42857"
       d="M 328.57143,380.93362 A 111.42857,111.42857 0 1 1 105.71428,380.93362 A 111.42857,111.42857 0 1 1 328.57143,380.93362 z"
       transform="translate(140,0)" />
    <path
       sodipodi:type="arc"
       style="fill:none;fill-opacity:0.49803922;stroke:#000000;stroke-width:2;stroke-linecap:round;stroke-linejoin:round;stroke-miterlimit:4;stroke-dasharray:none;stroke-dashoffset:20.40000038;stroke-opacity:0.55513312"
       id="path2389"
       sodipodi:cx="217.14285"
       sodipodi:cy="380.93362"
       sodipodi:rx="111.42857"
       sodipodi:ry="111.42857"
       d="M 328.57143,380.93362 A 111.42857,111.42857 0 1 1 105.71428,380.93362 A 111.42857,111.42857 0 1 1 328.57143,380.93362 z"
       transform="translate(74,120)" />
    <flowRoot
       xml:space="preserve"
       id="flowRoot3174"
       style="font-size:10px;font-style:normal;font-weight:normal;fill:#000000;fill-opacity:1;stroke:none;stroke-width:1px;stroke-linecap:butt;stroke-linejoin:miter;stroke-opacity:1;font-family:Bitstream Vera Sans"
       transform="matrix(9.9416492,0,0,9.9416492,632.81069,-2966.1834)"><flowRegion
         id="flowRegion3176"><rect
           id="rect3178"
           width="112.27364"
           height="119.51711"
           x="-50.704224"
           y="326.80887" /></flowRegion><flowPara
         id="flowPara3180">A</flowPara></flowRoot>    <flowRoot
       xml:space="preserve"
       id="flowRoot3182"
       style="font-size:10px;font-style:normal;font-weight:normal;fill:#000000;fill-opacity:1;stroke:none;stroke-width:1px;stroke-linecap:butt;stroke-linejoin:miter;stroke-opacity:1;display:inline;font-family:Bitstream Vera Sans"
       transform="matrix(9.9416492,0,0,9.9416492,886.7347,-2964.74)"><flowRegion
         id="flowRegion3184"><rect
           id="rect3186"
           width="112.27364"
           height="119.51711"
           x="-50.704224"
           y="326.80887" /></flowRegion><flowPara
         id="flowPara3188">B</flowPara></flowRoot>    <flowRoot
       xml:space="preserve"
       id="flowRoot3190"
       style="font-size:10px;font-style:normal;font-weight:normal;fill:#000000;fill-opacity:1;stroke:none;stroke-width:1px;stroke-linecap:butt;stroke-linejoin:miter;stroke-opacity:1;display:inline;font-family:Bitstream Vera Sans"
       transform="matrix(9.9416492,0,0,9.9416492,760.39698,-2756.9774)"><flowRegion
         id="flowRegion3192"><rect
           id="rect3194"
           width="112.27364"
           height="119.51711"
           x="-50.704224"
           y="326.80887" /></flowRegion><flowPara
         id="flowPara3196">C</flowPara></flowRoot>    <path
       sodipodi:type="arc"
       style="fill:none;fill-opacity:0.49809887;stroke:#000000;stroke-width:2;stroke-linecap:round;stroke-linejoin:round;stroke-miterlimit:4;stroke-dasharray:none;stroke-dashoffset:20.40000038;stroke-opacity:0.55513312;display:inline"
       id="path3274"
       sodipodi:cx="217.14285"
       sodipodi:cy="380.93362"
       sodipodi:rx="111.42857"
       sodipodi:ry="111.42857"
       d="M 328.57143,380.93362 A 111.42857,111.42857 0 1 1 105.71428,380.93362 A 111.42857,111.42857 0 1 1 328.57143,380.93362 z"
       transform="translate(540,0)" />
    <path
       sodipodi:type="arc"
       style="fill:none;fill-opacity:0.49803922;stroke:#000000;stroke-width:2;stroke-linecap:round;stroke-linejoin:round;stroke-miterlimit:4;stroke-dasharray:none;stroke-dashoffset:20.40000038;stroke-opacity:0.55513312;display:inline"
       id="path3276"
       sodipodi:cx="217.14285"
       sodipodi:cy="380.93362"
       sodipodi:rx="111.42857"
       sodipodi:ry="111.42857"
       d="M 328.57143,380.93362 A 111.42857,111.42857 0 1 1 105.71428,380.93362 A 111.42857,111.42857 0 1 1 328.57143,380.93362 z"
       transform="translate(680,0)" />
    <path
       sodipodi:type="arc"
       style="fill:none;fill-opacity:0.49803922;stroke:#000000;stroke-width:2;stroke-linecap:round;stroke-linejoin:round;stroke-miterlimit:4;stroke-dasharray:none;stroke-dashoffset:20.40000038;stroke-opacity:0.55513312;display:inline"
       id="path3278"
       sodipodi:cx="217.14285"
       sodipodi:cy="380.93362"
       sodipodi:rx="111.42857"
       sodipodi:ry="111.42857"
       d="M 328.57143,380.93362 A 111.42857,111.42857 0 1 1 105.71428,380.93362 A 111.42857,111.42857 0 1 1 328.57143,380.93362 z"
       transform="translate(614,120)" />
    <flowRoot
       xml:space="preserve"
       id="flowRoot3280"
       style="font-size:10px;font-style:normal;font-weight:normal;fill:#000000;fill-opacity:1;stroke:none;stroke-width:1px;stroke-linecap:butt;stroke-linejoin:miter;stroke-opacity:1;display:inline;font-family:Bitstream Vera Sans"
       transform="matrix(9.9416492,0,0,9.9416492,1172.8107,-2966.1834)"><flowRegion
         id="flowRegion3282"><rect
           id="rect3284"
           width="112.27364"
           height="119.51711"
           x="-50.704224"
           y="326.80887" /></flowRegion><flowPara
         id="flowPara3286">A</flowPara></flowRoot>    <flowRoot
       xml:space="preserve"
       id="flowRoot3288"
       style="font-size:10px;font-style:normal;font-weight:normal;fill:#000000;fill-opacity:1;stroke:none;stroke-width:1px;stroke-linecap:butt;stroke-linejoin:miter;stroke-opacity:1;display:inline;font-family:Bitstream Vera Sans"
       transform="matrix(9.9416492,0,0,9.9416492,1426.7347,-2964.74)"><flowRegion
         id="flowRegion3290"><rect
           id="rect3292"
           width="112.27364"
           height="119.51711"
           x="-50.704224"
           y="326.80887" /></flowRegion><flowPara
         id="flowPara3294">B</flowPara></flowRoot>    <flowRoot
       xml:space="preserve"
       id="flowRoot3296"
       style="font-size:10px;font-style:normal;font-weight:normal;fill:#000000;fill-opacity:1;stroke:none;stroke-width:1px;stroke-linecap:butt;stroke-linejoin:miter;stroke-opacity:1;display:inline;font-family:Bitstream Vera Sans"
       transform="matrix(9.9416492,0,0,9.9416492,1300.397,-2756.9774)"><flowRegion
         id="flowRegion3298"><rect
           id="rect3300"
           width="112.27364"
           height="119.51711"
           x="-50.704224"
           y="326.80887" /></flowRegion><flowPara
         id="flowPara3302">C</flowPara></flowRoot>  </g>
  <g
     inkscape:groupmode="layer"
     id="layer2"
     inkscape:label="foreground"
     style="display:inline"
     transform="translate(-104.71428,-268.50505)">
    <path
       style="fill:#7f7f7f;fill-opacity:0.49809887;stroke:#000000;stroke-width:2;stroke-linecap:round;stroke-linejoin:round;stroke-miterlimit:4;stroke-dasharray:none;stroke-dashoffset:20.40000038;stroke-opacity:0.55513312"
       d="M 182.4375 25.78125 C 157.17478 46.216921 141 77.441261 141 112.4375 C 141 118.43223 141.46213 124.32341 142.375 130.0625 C 107.05873 145.29435 81.205744 178.27961 76 217.75 C 87.414678 221.70008 99.684914 223.84375 112.4375 223.84375 C 173.94607 223.84375 223.84375 173.94607 223.84375 112.4375 C 223.84375 77.446411 207.69133 46.214604 182.4375 25.78125 z "
       transform="translate(104.71428,268.50505)"
       id="path3168" />
    <flowRoot
       xml:space="preserve"
       id="flowRoot3310"
       style="font-size:10px;font-style:normal;font-weight:normal;fill:#000000;fill-opacity:1;stroke:none;stroke-width:1px;stroke-linecap:butt;stroke-linejoin:miter;stroke-opacity:1;font-family:Bitstream Vera Sans"
       transform="matrix(24.001687,0,0,24.001687,-13826.376,-11788.071)"><flowRegion
         id="flowRegion3312"><rect
           id="rect3314"
           width="173.62917"
           height="215.97775"
           x="594.99756"
           y="501.83066" /></flowRegion><flowPara
         id="flowPara3316">=</flowPara></flowRoot>    <path
       style="fill:#7f7f7f;fill-opacity:0.49809887;stroke:#000000;stroke-width:2;stroke-linecap:round;stroke-linejoin:round;stroke-miterlimit:4;stroke-dasharray:none;stroke-dashoffset:20.40000038;stroke-opacity:0.55513312;display:inline"
       d="M 722.4375 25.78125 C 697.17727 46.214429 681 77.441261 681 112.4375 C 681 118.43663 681.49123 124.32028 682.40625 130.0625 C 647.07759 145.29274 621.17377 178.27087 615.96875 217.75 C 627.39138 221.70626 639.67449 223.84375 652.4375 223.84375 C 679.8248 223.84375 704.90477 213.9668 724.3125 197.5625 C 724.46901 197.43021 724.62548 197.28939 724.78125 197.15625 C 725.55159 196.49785 726.31054 195.80382 727.0625 195.125 C 727.37588 194.84197 727.68987 194.56777 728 194.28125 C 728.43382 193.88068 728.85385 193.46984 729.28125 193.0625 C 729.44616 192.90524 729.61731 192.75201 729.78125 192.59375 C 730.36019 192.03518 730.93322 191.47712 731.5 190.90625 C 731.51035 190.89582 731.5209 190.88543 731.53125 190.875 C 732.22671 190.17396 732.91699 189.46922 733.59375 188.75 C 734.28295 188.01756 734.95561 187.25087 735.625 186.5 C 736.29772 185.74539 736.97271 184.99156 737.625 184.21875 C 737.80004 184.01121 737.9827 183.80258 738.15625 183.59375 C 738.63368 183.01963 739.09647 182.42752 739.5625 181.84375 C 740.11983 181.14562 740.67799 180.46167 741.21875 179.75 C 741.29582 179.64858 741.36077 179.53919 741.4375 179.4375 C 743.83214 176.26355 746.07493 172.9564 748.125 169.53125 C 748.16824 169.45901 748.20692 169.38485 748.25 169.3125 C 748.77459 168.43151 749.28049 167.5527 749.78125 166.65625 C 750.27579 165.77093 750.74788 164.86873 751.21875 163.96875 C 751.38182 163.65694 751.55855 163.34478 751.71875 163.03125 C 752.74449 161.02462 753.68845 158.98091 754.59375 156.90625 C 754.68566 156.69555 754.78436 156.49263 754.875 156.28125 C 754.98622 156.02199 755.07819 155.76027 755.1875 155.5 C 755.57131 154.58614 755.95256 153.67605 756.3125 152.75 C 756.68676 151.7871 757.05822 150.8194 757.40625 149.84375 C 757.75155 148.87575 758.0872 147.91763 758.40625 146.9375 C 758.40932 146.92806 758.40318 146.91569 758.40625 146.90625 C 758.72508 145.92589 759.02035 144.92956 759.3125 143.9375 C 759.85086 142.10939 760.36677 140.27208 760.8125 138.40625 C 760.87945 138.126 760.93517 137.84357 761 137.5625 C 761.0288 137.43766 761.06537 137.3125 761.09375 137.1875 C 761.27421 136.39238 761.43042 135.58272 761.59375 134.78125 C 761.60029 134.74917 761.61849 134.71959 761.625 134.6875 C 761.82737 133.68997 762.012 132.6945 762.1875 131.6875 C 762.3697 130.64204 762.53469 129.58649 762.6875 128.53125 C 762.75657 128.05428 762.84325 127.57266 762.90625 127.09375 C 762.89689 127.09051 762.88436 127.09699 762.875 127.09375 C 763.50633 122.29631 763.84375 117.40673 763.84375 112.4375 C 763.84375 77.446411 747.69133 46.214604 722.4375 25.78125 z "
       transform="translate(104.71428,268.50505)"
       id="path3304" />
  </g>
</svg>
