<?xml version="1.0" encoding="UTF-8" standalone="no"?>
<!-- Created with Inkscape (http://www.inkscape.org/) -->
<svg
   xmlns:dc="http://purl.org/dc/elements/1.1/"
   xmlns:cc="http://creativecommons.org/ns#"
   xmlns:rdf="http://www.w3.org/1999/02/22-rdf-syntax-ns#"
   xmlns:svg="http://www.w3.org/2000/svg"
   xmlns="http://www.w3.org/2000/svg"
   xmlns:sodipodi="http://sodipodi.sourceforge.net/DTD/sodipodi-0.dtd"
   xmlns:inkscape="http://www.inkscape.org/namespaces/inkscape"
   width="904.85718"
   height="344.85715"
   id="svg2"
   sodipodi:version="0.32"
   inkscape:version="0.46"
   sodipodi:docname="hw1q1.5.svg"
   inkscape:output_extension="org.inkscape.output.svg.inkscape"
   version="1.0">
  <defs
     id="defs4">
    <inkscape:perspective
       sodipodi:type="inkscape:persp3d"
       inkscape:vp_x="0 : 526.18109 : 1"
       inkscape:vp_y="0 : 1000 : 0"
       inkscape:vp_z="744.09448 : 526.18109 : 1"
       inkscape:persp3d-origin="372.04724 : 350.78739 : 1"
       id="perspective10" />
  </defs>
  <sodipodi:namedview
     id="base"
     pagecolor="#ffffff"
     bordercolor="#666666"
     borderopacity="1.0"
     gridtolerance="10000"
     guidetolerance="10"
     objecttolerance="10"
     inkscape:pageopacity="0.0"
     inkscape:pageshadow="2"
     inkscape:zoom="0.47227087"
     inkscape:cx="372.04724"
     inkscape:cy="526.18109"
     inkscape:document-units="px"
     inkscape:current-layer="layer2"
     showgrid="false"
     inkscape:window-width="1280"
     inkscape:window-height="712"
     inkscape:window-x="-5"
     inkscape:window-y="-3" />
  <metadata
     id="metadata7">
    <rdf:RDF>
      <cc:Work
         rdf:about="">
        <dc:format>image/svg+xml</dc:format>
        <dc:type
           rdf:resource="http://purl.org/dc/dcmitype/StillImage" />
      </cc:Work>
    </rdf:RDF>
  </metadata>
  <g
     inkscape:label="Layer 1"
     inkscape:groupmode="layer"
     id="layer1"
     style="display:inline"
     transform="translate(-104.71428,-268.50505)">
    <path
       sodipodi:type="arc"
       style="fill:none;fill-opacity:0.49809887;stroke:#000000;stroke-width:2;stroke-linecap:round;stroke-linejoin:round;stroke-miterlimit:4;stroke-dasharray:none;stroke-dashoffset:20.40000038;stroke-opacity:0.55513312"
       id="path2383"
       sodipodi:cx="217.14285"
       sodipodi:cy="380.93362"
       sodipodi:rx="111.42857"
       sodipodi:ry="111.42857"
       d="M 328.57143,380.93362 A 111.42857,111.42857 0 1 1 105.71428,380.93362 A 111.42857,111.42857 0 1 1 328.57143,380.93362 z" />
    <path
       sodipodi:type="arc"
       style="fill:none;fill-opacity:0.49803922;stroke:#000000;stroke-width:2;stroke-linecap:round;stroke-linejoin:round;stroke-miterlimit:4;stroke-dasharray:none;stroke-dashoffset:20.40000038;stroke-opacity:0.55513312"
       id="path2387"
       sodipodi:cx="217.14285"
       sodipodi:cy="380.93362"
       sodipodi:rx="111.42857"
       sodipodi:ry="111.42857"
       d="M 328.57143,380.93362 A 111.42857,111.42857 0 1 1 105.71428,380.93362 A 111.42857,111.42857 0 1 1 328.57143,380.93362 z"
       transform="translate(140,0)" />
    <path
       sodipodi:type="arc"
       style="fill:none;fill-opacity:0.49803922;stroke:#000000;stroke-width:2;stroke-linecap:round;stroke-linejoin:round;stroke-miterlimit:4;stroke-dasharray:none;stroke-dashoffset:20.40000038;stroke-opacity:0.55513312"
       id="path2389"
       sodipodi:cx="217.14285"
       sodipodi:cy="380.93362"
       sodipodi:rx="111.42857"
       sodipodi:ry="111.42857"
       d="M 328.57143,380.93362 A 111.42857,111.42857 0 1 1 105.71428,380.93362 A 111.42857,111.42857 0 1 1 328.57143,380.93362 z"
       transform="translate(74,120)" />
    <flowRoot
       xml:space="preserve"
       id="flowRoot3174"
       style="font-size:10px;font-style:normal;font-weight:normal;fill:#000000;fill-opacity:1;stroke:none;stroke-width:1px;stroke-linecap:butt;stroke-linejoin:miter;stroke-opacity:1;font-family:Bitstream Vera Sans"
       transform="matrix(9.9416492,0,0,9.9416492,632.81069,-2966.1834)"><flowRegion
         id="flowRegion3176"><rect
           id="rect3178"
           width="112.27364"
           height="119.51711"
           x="-50.704224"
           y="326.80887" /></flowRegion><flowPara
         id="flowPara3180">A</flowPara></flowRoot>    <flowRoot
       xml:space="preserve"
       id="flowRoot3182"
       style="font-size:10px;font-style:normal;font-weight:normal;fill:#000000;fill-opacity:1;stroke:none;stroke-width:1px;stroke-linecap:butt;stroke-linejoin:miter;stroke-opacity:1;display:inline;font-family:Bitstream Vera Sans"
       transform="matrix(9.9416492,0,0,9.9416492,886.7347,-2964.74)"><flowRegion
         id="flowRegion3184"><rect
           id="rect3186"
           width="112.27364"
           height="119.51711"
           x="-50.704224"
           y="326.80887" /></flowRegion><flowPara
         id="flowPara3188">B</flowPara></flowRoot>    <flowRoot
       xml:space="preserve"
       id="flowRoot3190"
       style="font-size:10px;font-style:normal;font-weight:normal;fill:#000000;fill-opacity:1;stroke:none;stroke-width:1px;stroke-linecap:butt;stroke-linejoin:miter;stroke-opacity:1;display:inline;font-family:Bitstream Vera Sans"
       transform="matrix(9.9416492,0,0,9.9416492,760.39698,-2756.9774)"><flowRegion
         id="flowRegion3192"><rect
           id="rect3194"
           width="112.27364"
           height="119.51711"
           x="-50.704224"
           y="326.80887" /></flowRegion><flowPara
         id="flowPara3196">C</flowPara></flowRoot>    <path
       sodipodi:type="arc"
       style="fill:none;fill-opacity:0.49809887;stroke:#000000;stroke-width:2;stroke-linecap:round;stroke-linejoin:round;stroke-miterlimit:4;stroke-dasharray:none;stroke-dashoffset:20.40000038;stroke-opacity:0.55513312;display:inline"
       id="path3274"
       sodipodi:cx="217.14285"
       sodipodi:cy="380.93362"
       sodipodi:rx="111.42857"
       sodipodi:ry="111.42857"
       d="M 328.57143,380.93362 A 111.42857,111.42857 0 1 1 105.71428,380.93362 A 111.42857,111.42857 0 1 1 328.57143,380.93362 z"
       transform="translate(540,0)" />
    <path
       sodipodi:type="arc"
       style="fill:none;fill-opacity:0.49803922;stroke:#000000;stroke-width:2;stroke-linecap:round;stroke-linejoin:round;stroke-miterlimit:4;stroke-dasharray:none;stroke-dashoffset:20.40000038;stroke-opacity:0.55513312;display:inline"
       id="path3276"
       sodipodi:cx="217.14285"
       sodipodi:cy="380.93362"
       sodipodi:rx="111.42857"
       sodipodi:ry="111.42857"
       d="M 328.57143,380.93362 A 111.42857,111.42857 0 1 1 105.71428,380.93362 A 111.42857,111.42857 0 1 1 328.57143,380.93362 z"
       transform="translate(680,0)" />
    <path
       sodipodi:type="arc"
       style="fill:none;fill-opacity:0.49803922;stroke:#000000;stroke-width:2;stroke-linecap:round;stroke-linejoin:round;stroke-miterlimit:4;stroke-dasharray:none;stroke-dashoffset:20.40000038;stroke-opacity:0.55513312;display:inline"
       id="path3278"
       sodipodi:cx="217.14285"
       sodipodi:cy="380.93362"
       sodipodi:rx="111.42857"
       sodipodi:ry="111.42857"
       d="M 328.57143,380.93362 A 111.42857,111.42857 0 1 1 105.71428,380.93362 A 111.42857,111.42857 0 1 1 328.57143,380.93362 z"
       transform="translate(614,120)" />
    <flowRoot
       xml:space="preserve"
       id="flowRoot3280"
       style="font-size:10px;font-style:normal;font-weight:normal;fill:#000000;fill-opacity:1;stroke:none;stroke-width:1px;stroke-linecap:butt;stroke-linejoin:miter;stroke-opacity:1;display:inline;font-family:Bitstream Vera Sans"
       transform="matrix(9.9416492,0,0,9.9416492,1172.8107,-2966.1834)"><flowRegion
         id="flowRegion3282"><rect
           id="rect3284"
           width="112.27364"
           height="119.51711"
           x="-50.704224"
           y="326.80887" /></flowRegion><flowPara
         id="flowPara3286">A</flowPara></flowRoot>    <flowRoot
       xml:space="preserve"
       id="flowRoot3288"
       style="font-size:10px;font-style:normal;font-weight:normal;fill:#000000;fill-opacity:1;stroke:none;stroke-width:1px;stroke-linecap:butt;stroke-linejoin:miter;stroke-opacity:1;display:inline;font-family:Bitstream Vera Sans"
       transform="matrix(9.9416492,0,0,9.9416492,1426.7347,-2964.74)"><flowRegion
         id="flowRegion3290"><rect
           id="rect3292"
           width="112.27364"
           height="119.51711"
           x="-50.704224"
           y="326.80887" /></flowRegion><flowPara
         id="flowPara3294">B</flowPara></flowRoot>    <flowRoot
       xml:space="preserve"
       id="flowRoot3296"
       style="font-size:10px;font-style:normal;font-weight:normal;fill:#000000;fill-opacity:1;stroke:none;stroke-width:1px;stroke-linecap:butt;stroke-linejoin:miter;stroke-opacity:1;display:inline;font-family:Bitstream Vera Sans"
       transform="matrix(9.9416492,0,0,9.9416492,1300.397,-2756.9774)"><flowRegion
         id="flowRegion3298"><rect
           id="rect3300"
           width="112.27364"
           height="119.51711"
           x="-50.704224"
           y="326.80887" /></flowRegion><flowPara
         id="flowPara3302">C</flowPara></flowRoot>  </g>
  <g
     inkscape:groupmode="layer"
     id="layer2"
     inkscape:label="foreground"
     style="display:inline"
     transform="translate(-104.71428,-268.50505)">
    <path
       style="fill:#7f7f7f;fill-opacity:0.49809887;stroke:#000000;stroke-width:2;stroke-linecap:round;stroke-linejoin:round;stroke-miterlimit:4;stroke-dasharray:none;stroke-dashoffset:20.40000038;stroke-opacity:0.55513312"
       d="M 112.4375 1 C 50.928927 1 1 50.928928 1 112.4375 C 1 173.94607 50.928927 223.84375 112.4375 223.84375 C 168.96846 223.84375 215.71121 181.70141 222.90625 127.125 C 211.4798 123.16483 199.20658 121 186.4375 121 C 170.79158 121 155.89038 124.23334 142.375 130.0625 C 141.46213 124.32341 141 118.43223 141 112.4375 C 141 77.441261 157.17478 46.216921 182.4375 25.78125 C 163.29925 10.296132 138.95498 0.99999998 112.4375 1 z "
       transform="translate(104.71428,268.50505)"
       id="path3168" />
    <flowRoot
       xml:space="preserve"
       id="flowRoot3310"
       style="font-size:10px;font-style:normal;font-weight:normal;fill:#000000;fill-opacity:1;stroke:none;stroke-width:1px;stroke-linecap:butt;stroke-linejoin:miter;stroke-opacity:1;font-family:Bitstream Vera Sans"
       transform="matrix(24.001687,0,0,24.001687,-13826.376,-11788.071)"><flowRegion
         id="flowRegion3312"><rect
           id="rect3314"
           width="173.62917"
           height="215.97775"
           x="594.99756"
           y="501.83066" /></flowRegion><flowPara
         id="flowPara3316">=</flowPara></flowRoot>    <path
       style="fill:#7f7f7f;fill-opacity:0.49809887;stroke:#000000;stroke-width:2;stroke-linecap:round;stroke-linejoin:round;stroke-miterlimit:4;stroke-dasharray:none;stroke-dashoffset:20.40000038;stroke-opacity:0.55513312;display:inline"
       d="M 652.4375 1 C 590.92893 1 541 50.92893 541 112.4375 C 541 161.17563 572.35052 202.63999 615.96875 217.75 C 616.14298 217.81035 616.32537 217.84675 616.5 217.90625 C 617.43652 218.22547 618.36498 218.54896 619.3125 218.84375 C 619.35354 218.8565 619.39644 218.86229 619.4375 218.875 C 620.10121 219.08041 620.76847 219.27554 621.4375 219.46875 C 622.48517 219.77177 623.53365 220.07091 624.59375 220.34375 C 624.83326 220.40527 625.07237 220.47129 625.3125 220.53125 C 626.58025 220.8485 627.87175 221.13287 629.15625 221.40625 C 630.33095 221.65626 631.49947 221.8811 632.6875 222.09375 C 632.69766 222.09557 632.70858 222.09193 632.71875 222.09375 C 633.38236 222.21189 634.05115 222.33116 634.71875 222.4375 C 635.36204 222.54036 636.00935 222.62696 636.65625 222.71875 C 637.56816 222.8477 638.48746 222.98698 639.40625 223.09375 C 640.58586 223.23134 641.77823 223.33709 642.96875 223.4375 C 644.21291 223.54244 645.46333 223.62382 646.71875 223.6875 C 646.73954 223.68855 646.76046 223.68646 646.78125 223.6875 C 647.45745 223.72128 648.13328 223.75954 648.8125 223.78125 C 649.064 223.78931 649.31059 223.80611 649.5625 223.8125 C 650.52235 223.83683 651.47199 223.84375 652.4375 223.84375 C 653.25861 223.84375 654.08936 223.83019 654.90625 223.8125 C 655.1255 223.80771 655.34356 223.7873 655.5625 223.78125 C 656.28153 223.76137 657.0032 223.7522 657.71875 223.71875 C 658.43428 223.68539 659.1318 223.64055 659.84375 223.59375 C 660.00038 223.58348 660.15605 223.57342 660.3125 223.5625 C 660.97114 223.51642 661.62581 223.46374 662.28125 223.40625 C 662.49187 223.38782 662.69597 223.36335 662.90625 223.34375 C 663.49809 223.28849 664.09838 223.25198 664.6875 223.1875 C 665.81615 223.06392 666.94426 222.90705 668.0625 222.75 C 668.54588 222.68214 669.01862 222.6053 669.5 222.53125 C 669.86501 222.47514 670.22992 222.43464 670.59375 222.375 C 671.02102 222.3049 671.44938 222.2312 671.875 222.15625 C 672.2948 222.08237 672.70683 222.01607 673.125 221.9375 C 673.49159 221.86863 673.85343 221.79121 674.21875 221.71875 C 674.68726 221.6258 675.15863 221.53631 675.625 221.4375 C 675.93726 221.37135 676.25121 221.28751 676.5625 221.21875 C 677.08637 221.10301 677.60393 220.9981 678.125 220.875 C 678.37823 220.81524 678.62244 220.74898 678.875 220.6875 C 679.4378 220.55037 680.00308 220.39565 680.5625 220.25 C 680.771 220.19572 680.97947 220.14921 681.1875 220.09375 C 681.79513 219.93178 682.3965 219.7657 683 219.59375 C 683.15452 219.54973 683.3145 219.51342 683.46875 219.46875 C 684.12282 219.27927 684.78844 219.0761 685.4375 218.875 C 685.54213 218.84259 685.6455 218.81396 685.75 218.78125 C 686.45013 218.56208 687.11838 218.32631 687.8125 218.09375 C 688.59846 217.83042 689.40946 217.56153 690.1875 217.28125 C 690.51391 217.16364 690.83126 217.02682 691.15625 216.90625 C 691.61417 216.7364 692.07619 216.58193 692.53125 216.40625 C 693.21434 216.14251 693.91723 215.87049 694.59375 215.59375 C 694.68887 215.55482 694.78001 215.50794 694.875 215.46875 C 694.9183 215.4509 694.95673 215.42415 695 215.40625 C 696.30538 214.86613 697.59513 214.30651 698.875 213.71875 C 699.06185 213.6329 699.25121 213.55561 699.4375 213.46875 C 700.66623 212.89625 701.85859 212.303 703.0625 211.6875 C 704.06782 211.17353 705.07512 210.63707 706.0625 210.09375 C 706.42586 209.8938 706.79537 209.70387 707.15625 209.5 C 707.51318 209.2982 707.86428 209.08061 708.21875 208.875 C 709.20753 208.3019 710.187 207.72732 711.15625 207.125 C 711.5861 206.85777 712.01157 206.58541 712.4375 206.3125 C 713.31278 205.75194 714.17289 205.17788 715.03125 204.59375 C 716.21143 203.79062 717.38409 202.97167 718.53125 202.125 C 718.61528 202.06298 718.6974 201.99975 718.78125 201.9375 C 742.42448 184.38512 758.88089 157.69281 762.90625 127.09375 C 751.47567 123.13131 739.21092 121 726.4375 121 C 710.79993 121 695.91597 124.23844 682.40625 130.0625 C 681.49123 124.32028 681 118.43663 681 112.4375 C 681 77.44126 697.17727 46.21443 722.4375 25.78125 C 703.29925 10.29613 678.95498 1 652.4375 1 z "
       transform="translate(104.71428,268.50505)"
       id="path3304" />
  </g>
</svg>
