<?xml version="1.0" encoding="UTF-8" standalone="no"?>
<!-- Created with Inkscape (http://www.inkscape.org/) -->
<svg
   xmlns:dc="http://purl.org/dc/elements/1.1/"
   xmlns:cc="http://creativecommons.org/ns#"
   xmlns:rdf="http://www.w3.org/1999/02/22-rdf-syntax-ns#"
   xmlns:svg="http://www.w3.org/2000/svg"
   xmlns="http://www.w3.org/2000/svg"
   xmlns:sodipodi="http://sodipodi.sourceforge.net/DTD/sodipodi-0.dtd"
   xmlns:inkscape="http://www.inkscape.org/namespaces/inkscape"
   width="904.85718"
   height="344.85715"
   id="svg2"
   sodipodi:version="0.32"
   inkscape:version="0.46"
   sodipodi:docname="hw1q1.4.svg"
   inkscape:output_extension="org.inkscape.output.svg.inkscape"
   version="1.0">
  <defs
     id="defs4">
    <inkscape:perspective
       sodipodi:type="inkscape:persp3d"
       inkscape:vp_x="0 : 526.18109 : 1"
       inkscape:vp_y="0 : 1000 : 0"
       inkscape:vp_z="744.09448 : 526.18109 : 1"
       inkscape:persp3d-origin="372.04724 : 350.78739 : 1"
       id="perspective10" />
  </defs>
  <sodipodi:namedview
     id="base"
     pagecolor="#ffffff"
     bordercolor="#666666"
     borderopacity="1.0"
     gridtolerance="10000"
     guidetolerance="10"
     objecttolerance="10"
     inkscape:pageopacity="0.0"
     inkscape:pageshadow="2"
     inkscape:zoom="0.47227087"
     inkscape:cx="372.04724"
     inkscape:cy="526.18109"
     inkscape:document-units="px"
     inkscape:current-layer="layer2"
     showgrid="false"
     inkscape:window-width="1280"
     inkscape:window-height="712"
     inkscape:window-x="-5"
     inkscape:window-y="-3" />
  <metadata
     id="metadata7">
    <rdf:RDF>
      <cc:Work
         rdf:about="">
        <dc:format>image/svg+xml</dc:format>
        <dc:type
           rdf:resource="http://purl.org/dc/dcmitype/StillImage" />
      </cc:Work>
    </rdf:RDF>
  </metadata>
  <g
     inkscape:label="Layer 1"
     inkscape:groupmode="layer"
     id="layer1"
     style="display:inline"
     transform="translate(-104.71428,-268.50505)">
    <path
       sodipodi:type="arc"
       style="fill:none;fill-opacity:0.49809887;stroke:#000000;stroke-width:2;stroke-linecap:round;stroke-linejoin:round;stroke-miterlimit:4;stroke-dasharray:none;stroke-dashoffset:20.40000038;stroke-opacity:0.55513312"
       id="path2383"
       sodipodi:cx="217.14285"
       sodipodi:cy="380.93362"
       sodipodi:rx="111.42857"
       sodipodi:ry="111.42857"
       d="M 328.57143,380.93362 A 111.42857,111.42857 0 1 1 105.71428,380.93362 A 111.42857,111.42857 0 1 1 328.57143,380.93362 z" />
    <path
       sodipodi:type="arc"
       style="fill:none;fill-opacity:0.49803922;stroke:#000000;stroke-width:2;stroke-linecap:round;stroke-linejoin:round;stroke-miterlimit:4;stroke-dasharray:none;stroke-dashoffset:20.40000038;stroke-opacity:0.55513312"
       id="path2387"
       sodipodi:cx="217.14285"
       sodipodi:cy="380.93362"
       sodipodi:rx="111.42857"
       sodipodi:ry="111.42857"
       d="M 328.57143,380.93362 A 111.42857,111.42857 0 1 1 105.71428,380.93362 A 111.42857,111.42857 0 1 1 328.57143,380.93362 z"
       transform="translate(140,0)" />
    <path
       sodipodi:type="arc"
       style="fill:none;fill-opacity:0.49803922;stroke:#000000;stroke-width:2;stroke-linecap:round;stroke-linejoin:round;stroke-miterlimit:4;stroke-dasharray:none;stroke-dashoffset:20.40000038;stroke-opacity:0.55513312"
       id="path2389"
       sodipodi:cx="217.14285"
       sodipodi:cy="380.93362"
       sodipodi:rx="111.42857"
       sodipodi:ry="111.42857"
       d="M 328.57143,380.93362 A 111.42857,111.42857 0 1 1 105.71428,380.93362 A 111.42857,111.42857 0 1 1 328.57143,380.93362 z"
       transform="translate(74,120)" />
    <flowRoot
       xml:space="preserve"
       id="flowRoot3174"
       style="font-size:10px;font-style:normal;font-weight:normal;fill:#000000;fill-opacity:1;stroke:none;stroke-width:1px;stroke-linecap:butt;stroke-linejoin:miter;stroke-opacity:1;font-family:Bitstream Vera Sans"
       transform="matrix(9.9416492,0,0,9.9416492,632.81069,-2966.1834)"><flowRegion
         id="flowRegion3176"><rect
           id="rect3178"
           width="112.27364"
           height="119.51711"
           x="-50.704224"
           y="326.80887" /></flowRegion><flowPara
         id="flowPara3180">A</flowPara></flowRoot>    <flowRoot
       xml:space="preserve"
       id="flowRoot3182"
       style="font-size:10px;font-style:normal;font-weight:normal;fill:#000000;fill-opacity:1;stroke:none;stroke-width:1px;stroke-linecap:butt;stroke-linejoin:miter;stroke-opacity:1;display:inline;font-family:Bitstream Vera Sans"
       transform="matrix(9.9416492,0,0,9.9416492,886.7347,-2964.74)"><flowRegion
         id="flowRegion3184"><rect
           id="rect3186"
           width="112.27364"
           height="119.51711"
           x="-50.704224"
           y="326.80887" /></flowRegion><flowPara
         id="flowPara3188">B</flowPara></flowRoot>    <flowRoot
       xml:space="preserve"
       id="flowRoot3190"
       style="font-size:10px;font-style:normal;font-weight:normal;fill:#000000;fill-opacity:1;stroke:none;stroke-width:1px;stroke-linecap:butt;stroke-linejoin:miter;stroke-opacity:1;display:inline;font-family:Bitstream Vera Sans"
       transform="matrix(9.9416492,0,0,9.9416492,760.39698,-2756.9774)"><flowRegion
         id="flowRegion3192"><rect
           id="rect3194"
           width="112.27364"
           height="119.51711"
           x="-50.704224"
           y="326.80887" /></flowRegion><flowPara
         id="flowPara3196">C</flowPara></flowRoot>    <path
       sodipodi:type="arc"
       style="fill:none;fill-opacity:0.49809887;stroke:#000000;stroke-width:2;stroke-linecap:round;stroke-linejoin:round;stroke-miterlimit:4;stroke-dasharray:none;stroke-dashoffset:20.40000038;stroke-opacity:0.55513312;display:inline"
       id="path3274"
       sodipodi:cx="217.14285"
       sodipodi:cy="380.93362"
       sodipodi:rx="111.42857"
       sodipodi:ry="111.42857"
       d="M 328.57143,380.93362 A 111.42857,111.42857 0 1 1 105.71428,380.93362 A 111.42857,111.42857 0 1 1 328.57143,380.93362 z"
       transform="translate(540,0)" />
    <path
       sodipodi:type="arc"
       style="fill:none;fill-opacity:0.49803922;stroke:#000000;stroke-width:2;stroke-linecap:round;stroke-linejoin:round;stroke-miterlimit:4;stroke-dasharray:none;stroke-dashoffset:20.40000038;stroke-opacity:0.55513312;display:inline"
       id="path3276"
       sodipodi:cx="217.14285"
       sodipodi:cy="380.93362"
       sodipodi:rx="111.42857"
       sodipodi:ry="111.42857"
       d="M 328.57143,380.93362 A 111.42857,111.42857 0 1 1 105.71428,380.93362 A 111.42857,111.42857 0 1 1 328.57143,380.93362 z"
       transform="translate(680,0)" />
    <path
       sodipodi:type="arc"
       style="fill:none;fill-opacity:0.49803922;stroke:#000000;stroke-width:2;stroke-linecap:round;stroke-linejoin:round;stroke-miterlimit:4;stroke-dasharray:none;stroke-dashoffset:20.40000038;stroke-opacity:0.55513312;display:inline"
       id="path3278"
       sodipodi:cx="217.14285"
       sodipodi:cy="380.93362"
       sodipodi:rx="111.42857"
       sodipodi:ry="111.42857"
       d="M 328.57143,380.93362 A 111.42857,111.42857 0 1 1 105.71428,380.93362 A 111.42857,111.42857 0 1 1 328.57143,380.93362 z"
       transform="translate(614,120)" />
    <flowRoot
       xml:space="preserve"
       id="flowRoot3280"
       style="font-size:10px;font-style:normal;font-weight:normal;fill:#000000;fill-opacity:1;stroke:none;stroke-width:1px;stroke-linecap:butt;stroke-linejoin:miter;stroke-opacity:1;display:inline;font-family:Bitstream Vera Sans"
       transform="matrix(9.9416492,0,0,9.9416492,1172.8107,-2966.1834)"><flowRegion
         id="flowRegion3282"><rect
           id="rect3284"
           width="112.27364"
           height="119.51711"
           x="-50.704224"
           y="326.80887" /></flowRegion><flowPara
         id="flowPara3286">A</flowPara></flowRoot>    <flowRoot
       xml:space="preserve"
       id="flowRoot3288"
       style="font-size:10px;font-style:normal;font-weight:normal;fill:#000000;fill-opacity:1;stroke:none;stroke-width:1px;stroke-linecap:butt;stroke-linejoin:miter;stroke-opacity:1;display:inline;font-family:Bitstream Vera Sans"
       transform="matrix(9.9416492,0,0,9.9416492,1426.7347,-2964.74)"><flowRegion
         id="flowRegion3290"><rect
           id="rect3292"
           width="112.27364"
           height="119.51711"
           x="-50.704224"
           y="326.80887" /></flowRegion><flowPara
         id="flowPara3294">B</flowPara></flowRoot>    <flowRoot
       xml:space="preserve"
       id="flowRoot3296"
       style="font-size:10px;font-style:normal;font-weight:normal;fill:#000000;fill-opacity:1;stroke:none;stroke-width:1px;stroke-linecap:butt;stroke-linejoin:miter;stroke-opacity:1;display:inline;font-family:Bitstream Vera Sans"
       transform="matrix(9.9416492,0,0,9.9416492,1300.397,-2756.9774)"><flowRegion
         id="flowRegion3298"><rect
           id="rect3300"
           width="112.27364"
           height="119.51711"
           x="-50.704224"
           y="326.80887" /></flowRegion><flowPara
         id="flowPara3302">C</flowPara></flowRoot>  </g>
  <g
     inkscape:groupmode="layer"
     id="layer2"
     inkscape:label="foreground"
     style="display:inline"
     transform="translate(-104.71428,-268.50505)">
    <path
       style="fill:#7f7f7f;fill-opacity:0.49809887;stroke:#000000;stroke-width:2;stroke-linecap:round;stroke-linejoin:round;stroke-miterlimit:4;stroke-dasharray:none;stroke-dashoffset:20.40000038;stroke-opacity:0.55513312"
       d="M 112.4375 1 C 50.928927 1 1 50.928928 1 112.4375 C 1 173.94607 50.928927 223.84375 112.4375 223.84375 C 168.96846 223.84375 215.71121 181.70141 222.90625 127.125 C 261.1561 140.38161 289.9592 173.89116 296.46875 214.8125 C 336.09618 197.72993 363.84375 158.30739 363.84375 112.4375 C 363.84375 50.928927 313.94607 0.99999994 252.4375 1 C 225.92517 1 201.57595 10.299663 182.4375 25.78125 C 163.29925 10.296132 138.95498 0.99999998 112.4375 1 z "
       transform="translate(104.71428,268.50505)"
       id="path3168" />
    <flowRoot
       xml:space="preserve"
       id="flowRoot3310"
       style="font-size:10px;font-style:normal;font-weight:normal;fill:#000000;fill-opacity:1;stroke:none;stroke-width:1px;stroke-linecap:butt;stroke-linejoin:miter;stroke-opacity:1;font-family:Bitstream Vera Sans"
       transform="matrix(24.001687,0,0,24.001687,-13826.376,-11788.071)"><flowRegion
         id="flowRegion3312"><rect
           id="rect3314"
           width="173.62917"
           height="215.97775"
           x="594.99756"
           y="501.83066" /></flowRegion><flowPara
         id="flowPara3316">=</flowPara></flowRoot>    <path
       style="fill:#7f7f7f;fill-opacity:0.49809887;stroke:#000000;stroke-width:2;stroke-linecap:round;stroke-linejoin:round;stroke-miterlimit:4;stroke-dasharray:none;stroke-dashoffset:20.40000038;stroke-opacity:0.55513312;display:inline"
       d="M 652.4375 1 C 590.92893 1 541 50.92893 541 112.4375 C 541 161.17563 572.35052 202.63999 615.96875 217.75 C 616.14299 217.81035 616.32537 217.84675 616.5 217.90625 C 617.43652 218.22547 618.36498 218.54896 619.3125 218.84375 C 619.35354 218.8565 619.39644 218.86229 619.4375 218.875 C 620.10219 219.08094 620.76756 219.27498 621.4375 219.46875 C 622.48517 219.77177 623.53365 220.07091 624.59375 220.34375 C 624.83326 220.40527 625.07237 220.47129 625.3125 220.53125 C 626.58634 220.8493 627.86537 221.13255 629.15625 221.40625 C 630.32697 221.65447 631.5035 221.88263 632.6875 222.09375 C 632.69766 222.09557 632.70858 222.09193 632.71875 222.09375 C 633.38387 222.21261 634.04961 222.33051 634.71875 222.4375 C 635.36204 222.54036 636.00935 222.62696 636.65625 222.71875 C 637.56736 222.84803 638.48821 222.98667 639.40625 223.09375 C 640.59031 223.23135 641.77385 223.33723 642.96875 223.4375 C 644.21043 223.54169 645.46609 223.62424 646.71875 223.6875 C 646.73954 223.68855 646.76046 223.68646 646.78125 223.6875 C 647.4594 223.72152 648.13123 223.75942 648.8125 223.78125 C 649.064 223.78931 649.31059 223.80611 649.5625 223.8125 C 650.52235 223.83683 651.472 223.84375 652.4375 223.84375 C 653.2586 223.84375 654.08938 223.83019 654.90625 223.8125 C 655.1255 223.80771 655.34356 223.7873 655.5625 223.78125 C 656.28325 223.76145 657.00148 223.75219 657.71875 223.71875 C 658.43425 223.68539 659.13183 223.64056 659.84375 223.59375 C 660.00038 223.58348 660.15605 223.57342 660.3125 223.5625 C 660.9711 223.51642 661.62585 223.46374 662.28125 223.40625 C 662.49187 223.38782 662.69597 223.36335 662.90625 223.34375 C 663.49805 223.28849 664.09842 223.25199 664.6875 223.1875 C 665.81615 223.06392 666.94426 222.90705 668.0625 222.75 C 668.54584 222.68213 669.01867 222.60531 669.5 222.53125 C 669.86501 222.47514 670.22992 222.43464 670.59375 222.375 C 671.02097 222.30489 671.44943 222.23121 671.875 222.15625 C 672.2948 222.08237 672.70683 222.01607 673.125 221.9375 C 673.49155 221.86862 673.85348 221.79121 674.21875 221.71875 C 674.68726 221.6258 675.15863 221.53631 675.625 221.4375 C 675.94098 221.37055 676.24751 221.28838 676.5625 221.21875 C 677.07639 221.10521 677.58255 220.99562 678.09375 220.875 C 678.35374 220.81363 678.61572 220.75069 678.875 220.6875 C 679.4378 220.55037 680.00308 220.39565 680.5625 220.25 C 680.77097 220.19572 680.97951 220.14921 681.1875 220.09375 C 681.79513 219.93178 682.3965 219.7657 683 219.59375 C 683.1545 219.54972 683.31453 219.51343 683.46875 219.46875 C 684.12282 219.27927 684.78844 219.0761 685.4375 218.875 C 685.54211 218.84259 685.64552 218.81396 685.75 218.78125 C 686.45013 218.56208 687.11838 218.32631 687.8125 218.09375 C 688.60658 217.82777 689.4015 217.56453 690.1875 217.28125 C 690.51385 217.16363 690.83133 217.02682 691.15625 216.90625 C 691.61417 216.7364 692.07619 216.58193 692.53125 216.40625 C 692.82423 216.2931 693.11448 216.17805 693.40625 216.0625 C 693.88898 215.87133 694.36436 215.66645 694.84375 215.46875 C 695.11439 215.35714 695.38668 215.23868 695.65625 215.125 C 696.63276 214.7133 697.60038 214.2823 698.5625 213.84375 C 698.66501 213.79701 698.77265 213.76579 698.875 213.71875 C 699.05331 213.63682 699.22845 213.55159 699.40625 213.46875 C 700.63795 212.89486 701.85571 212.30467 703.0625 211.6875 C 704.07322 211.1706 705.06989 210.64037 706.0625 210.09375 C 706.42576 209.89379 706.79547 209.70388 707.15625 209.5 C 707.51318 209.2982 707.86428 209.08061 708.21875 208.875 C 709.20724 208.30188 710.1873 207.72735 711.15625 207.125 C 711.5861 206.85777 712.01157 206.58541 712.4375 206.3125 C 713.31111 205.75275 714.17446 205.17703 715.03125 204.59375 C 716.21914 203.78508 717.37672 202.97787 718.53125 202.125 C 718.61545 202.06283 718.69723 201.9999 718.78125 201.9375 C 719.35175 201.51359 719.90668 201.05951 720.46875 200.625 C 721.12935 200.11443 721.7888 199.61872 722.4375 199.09375 C 744.09531 181.56699 759.06324 156.07832 762.875 127.09375 C 801.12622 140.34217 829.94882 173.86792 836.46875 214.78125 C 876.08378 197.70234 903.84382 158.30298 903.84375 112.4375 C 903.84372 50.92893 853.946 1 792.4375 1 C 765.92522 1 741.574 10.30155 722.4375 25.78125 C 703.29922 10.29613 678.95498 1 652.4375 1 z "
       transform="translate(104.71428,268.50505)"
       id="path3304" />
  </g>
</svg>
