<?xml version="1.0" encoding="UTF-8" standalone="no"?>
<!-- Created with Inkscape (http://www.inkscape.org/) -->
<svg
   xmlns:dc="http://purl.org/dc/elements/1.1/"
   xmlns:cc="http://creativecommons.org/ns#"
   xmlns:rdf="http://www.w3.org/1999/02/22-rdf-syntax-ns#"
   xmlns:svg="http://www.w3.org/2000/svg"
   xmlns="http://www.w3.org/2000/svg"
   xmlns:sodipodi="http://sodipodi.sourceforge.net/DTD/sodipodi-0.dtd"
   xmlns:inkscape="http://www.inkscape.org/namespaces/inkscape"
   width="904.85718"
   height="344.85715"
   id="svg2"
   sodipodi:version="0.32"
   inkscape:version="0.46"
   sodipodi:docname="hw1q1.3.svg"
   inkscape:output_extension="org.inkscape.output.svg.inkscape"
   version="1.0">
  <defs
     id="defs4">
    <inkscape:perspective
       sodipodi:type="inkscape:persp3d"
       inkscape:vp_x="0 : 526.18109 : 1"
       inkscape:vp_y="0 : 1000 : 0"
       inkscape:vp_z="744.09448 : 526.18109 : 1"
       inkscape:persp3d-origin="372.04724 : 350.78739 : 1"
       id="perspective10" />
  </defs>
  <sodipodi:namedview
     id="base"
     pagecolor="#ffffff"
     bordercolor="#666666"
     borderopacity="1.0"
     gridtolerance="10000"
     guidetolerance="10"
     objecttolerance="10"
     inkscape:pageopacity="0.0"
     inkscape:pageshadow="2"
     inkscape:zoom="0.47227087"
     inkscape:cx="372.04724"
     inkscape:cy="526.18109"
     inkscape:document-units="px"
     inkscape:current-layer="layer2"
     showgrid="false"
     inkscape:window-width="1280"
     inkscape:window-height="712"
     inkscape:window-x="-5"
     inkscape:window-y="-3" />
  <metadata
     id="metadata7">
    <rdf:RDF>
      <cc:Work
         rdf:about="">
        <dc:format>image/svg+xml</dc:format>
        <dc:type
           rdf:resource="http://purl.org/dc/dcmitype/StillImage" />
      </cc:Work>
    </rdf:RDF>
  </metadata>
  <g
     inkscape:label="Layer 1"
     inkscape:groupmode="layer"
     id="layer1"
     style="display:inline"
     transform="translate(-104.71428,-268.50505)">
    <path
       sodipodi:type="arc"
       style="fill:none;fill-opacity:0.49809887;stroke:#000000;stroke-width:2;stroke-linecap:round;stroke-linejoin:round;stroke-miterlimit:4;stroke-dasharray:none;stroke-dashoffset:20.40000038;stroke-opacity:0.55513312"
       id="path2383"
       sodipodi:cx="217.14285"
       sodipodi:cy="380.93362"
       sodipodi:rx="111.42857"
       sodipodi:ry="111.42857"
       d="M 328.57143,380.93362 A 111.42857,111.42857 0 1 1 105.71428,380.93362 A 111.42857,111.42857 0 1 1 328.57143,380.93362 z" />
    <path
       sodipodi:type="arc"
       style="fill:none;fill-opacity:0.49803922;stroke:#000000;stroke-width:2;stroke-linecap:round;stroke-linejoin:round;stroke-miterlimit:4;stroke-dasharray:none;stroke-dashoffset:20.40000038;stroke-opacity:0.55513312"
       id="path2387"
       sodipodi:cx="217.14285"
       sodipodi:cy="380.93362"
       sodipodi:rx="111.42857"
       sodipodi:ry="111.42857"
       d="M 328.57143,380.93362 A 111.42857,111.42857 0 1 1 105.71428,380.93362 A 111.42857,111.42857 0 1 1 328.57143,380.93362 z"
       transform="translate(140,0)" />
    <path
       sodipodi:type="arc"
       style="fill:none;fill-opacity:0.49803922;stroke:#000000;stroke-width:2;stroke-linecap:round;stroke-linejoin:round;stroke-miterlimit:4;stroke-dasharray:none;stroke-dashoffset:20.40000038;stroke-opacity:0.55513312"
       id="path2389"
       sodipodi:cx="217.14285"
       sodipodi:cy="380.93362"
       sodipodi:rx="111.42857"
       sodipodi:ry="111.42857"
       d="M 328.57143,380.93362 A 111.42857,111.42857 0 1 1 105.71428,380.93362 A 111.42857,111.42857 0 1 1 328.57143,380.93362 z"
       transform="translate(74,120)" />
    <flowRoot
       xml:space="preserve"
       id="flowRoot3174"
       style="font-size:10px;font-style:normal;font-weight:normal;fill:#000000;fill-opacity:1;stroke:none;stroke-width:1px;stroke-linecap:butt;stroke-linejoin:miter;stroke-opacity:1;font-family:Bitstream Vera Sans"
       transform="matrix(9.9416492,0,0,9.9416492,632.81069,-2966.1834)"><flowRegion
         id="flowRegion3176"><rect
           id="rect3178"
           width="112.27364"
           height="119.51711"
           x="-50.704224"
           y="326.80887" /></flowRegion><flowPara
         id="flowPara3180">A</flowPara></flowRoot>    <flowRoot
       xml:space="preserve"
       id="flowRoot3182"
       style="font-size:10px;font-style:normal;font-weight:normal;fill:#000000;fill-opacity:1;stroke:none;stroke-width:1px;stroke-linecap:butt;stroke-linejoin:miter;stroke-opacity:1;display:inline;font-family:Bitstream Vera Sans"
       transform="matrix(9.9416492,0,0,9.9416492,886.7347,-2964.74)"><flowRegion
         id="flowRegion3184"><rect
           id="rect3186"
           width="112.27364"
           height="119.51711"
           x="-50.704224"
           y="326.80887" /></flowRegion><flowPara
         id="flowPara3188">B</flowPara></flowRoot>    <flowRoot
       xml:space="preserve"
       id="flowRoot3190"
       style="font-size:10px;font-style:normal;font-weight:normal;fill:#000000;fill-opacity:1;stroke:none;stroke-width:1px;stroke-linecap:butt;stroke-linejoin:miter;stroke-opacity:1;display:inline;font-family:Bitstream Vera Sans"
       transform="matrix(9.9416492,0,0,9.9416492,760.39698,-2756.9774)"><flowRegion
         id="flowRegion3192"><rect
           id="rect3194"
           width="112.27364"
           height="119.51711"
           x="-50.704224"
           y="326.80887" /></flowRegion><flowPara
         id="flowPara3196">C</flowPara></flowRoot>    <path
       sodipodi:type="arc"
       style="fill:none;fill-opacity:0.49809887;stroke:#000000;stroke-width:2;stroke-linecap:round;stroke-linejoin:round;stroke-miterlimit:4;stroke-dasharray:none;stroke-dashoffset:20.40000038;stroke-opacity:0.55513312;display:inline"
       id="path3274"
       sodipodi:cx="217.14285"
       sodipodi:cy="380.93362"
       sodipodi:rx="111.42857"
       sodipodi:ry="111.42857"
       d="M 328.57143,380.93362 A 111.42857,111.42857 0 1 1 105.71428,380.93362 A 111.42857,111.42857 0 1 1 328.57143,380.93362 z"
       transform="translate(540,0)" />
    <path
       sodipodi:type="arc"
       style="fill:none;fill-opacity:0.49803922;stroke:#000000;stroke-width:2;stroke-linecap:round;stroke-linejoin:round;stroke-miterlimit:4;stroke-dasharray:none;stroke-dashoffset:20.40000038;stroke-opacity:0.55513312;display:inline"
       id="path3276"
       sodipodi:cx="217.14285"
       sodipodi:cy="380.93362"
       sodipodi:rx="111.42857"
       sodipodi:ry="111.42857"
       d="M 328.57143,380.93362 A 111.42857,111.42857 0 1 1 105.71428,380.93362 A 111.42857,111.42857 0 1 1 328.57143,380.93362 z"
       transform="translate(680,0)" />
    <path
       sodipodi:type="arc"
       style="fill:none;fill-opacity:0.49803922;stroke:#000000;stroke-width:2;stroke-linecap:round;stroke-linejoin:round;stroke-miterlimit:4;stroke-dasharray:none;stroke-dashoffset:20.40000038;stroke-opacity:0.55513312;display:inline"
       id="path3278"
       sodipodi:cx="217.14285"
       sodipodi:cy="380.93362"
       sodipodi:rx="111.42857"
       sodipodi:ry="111.42857"
       d="M 328.57143,380.93362 A 111.42857,111.42857 0 1 1 105.71428,380.93362 A 111.42857,111.42857 0 1 1 328.57143,380.93362 z"
       transform="translate(614,120)" />
    <flowRoot
       xml:space="preserve"
       id="flowRoot3280"
       style="font-size:10px;font-style:normal;font-weight:normal;fill:#000000;fill-opacity:1;stroke:none;stroke-width:1px;stroke-linecap:butt;stroke-linejoin:miter;stroke-opacity:1;display:inline;font-family:Bitstream Vera Sans"
       transform="matrix(9.9416492,0,0,9.9416492,1172.8107,-2966.1834)"><flowRegion
         id="flowRegion3282"><rect
           id="rect3284"
           width="112.27364"
           height="119.51711"
           x="-50.704224"
           y="326.80887" /></flowRegion><flowPara
         id="flowPara3286">A</flowPara></flowRoot>    <flowRoot
       xml:space="preserve"
       id="flowRoot3288"
       style="font-size:10px;font-style:normal;font-weight:normal;fill:#000000;fill-opacity:1;stroke:none;stroke-width:1px;stroke-linecap:butt;stroke-linejoin:miter;stroke-opacity:1;display:inline;font-family:Bitstream Vera Sans"
       transform="matrix(9.9416492,0,0,9.9416492,1426.7347,-2964.74)"><flowRegion
         id="flowRegion3290"><rect
           id="rect3292"
           width="112.27364"
           height="119.51711"
           x="-50.704224"
           y="326.80887" /></flowRegion><flowPara
         id="flowPara3294">B</flowPara></flowRoot>    <flowRoot
       xml:space="preserve"
       id="flowRoot3296"
       style="font-size:10px;font-style:normal;font-weight:normal;fill:#000000;fill-opacity:1;stroke:none;stroke-width:1px;stroke-linecap:butt;stroke-linejoin:miter;stroke-opacity:1;display:inline;font-family:Bitstream Vera Sans"
       transform="matrix(9.9416492,0,0,9.9416492,1300.397,-2756.9774)"><flowRegion
         id="flowRegion3298"><rect
           id="rect3300"
           width="112.27364"
           height="119.51711"
           x="-50.704224"
           y="326.80887" /></flowRegion><flowPara
         id="flowPara3302">C</flowPara></flowRoot>  </g>
  <g
     inkscape:groupmode="layer"
     id="layer2"
     inkscape:label="foreground"
     style="display:inline"
     transform="translate(-104.71428,-268.50505)">
    <path
       style="fill:#7f7f7f;fill-opacity:0.49809887;stroke:#000000;stroke-width:2;stroke-linecap:round;stroke-linejoin:round;stroke-miterlimit:4;stroke-dasharray:none;stroke-dashoffset:20.40000038;stroke-opacity:0.55513312"
       d="M 182.4375 25.78125 C 157.17478 46.216921 141 77.441261 141 112.4375 C 141 118.43223 141.46213 124.32341 142.375 130.0625 C 155.89038 124.23334 170.79158 121 186.4375 121 C 199.20658 121 211.4798 123.16483 222.90625 127.125 C 223.53978 122.31949 223.84375 117.41511 223.84375 112.4375 C 223.84375 77.446411 207.69133 46.214604 182.4375 25.78125 z M 142.375 130.0625 C 107.05873 145.29435 81.205744 178.27961 76 217.75 C 87.414678 221.70008 99.684914 223.84375 112.4375 223.84375 C 138.95498 223.84375 163.29925 214.57887 182.4375 199.09375 C 161.49652 182.16808 146.79162 157.82915 142.375 130.0625 z "
       transform="translate(104.71428,268.50505)"
       id="path3168" />
    <flowRoot
       xml:space="preserve"
       id="flowRoot3310"
       style="font-size:10px;font-style:normal;font-weight:normal;fill:#000000;fill-opacity:1;stroke:none;stroke-width:1px;stroke-linecap:butt;stroke-linejoin:miter;stroke-opacity:1;font-family:Bitstream Vera Sans"
       transform="matrix(24.001687,0,0,24.001687,-13826.376,-11788.071)"><flowRegion
         id="flowRegion3312"><rect
           id="rect3314"
           width="173.62917"
           height="215.97775"
           x="594.99756"
           y="501.83066" /></flowRegion><flowPara
         id="flowPara3316">=</flowPara></flowRoot>    <path
       style="fill:#7f7f7f;fill-opacity:0.49809887;stroke:#000000;stroke-width:2;stroke-linecap:round;stroke-linejoin:round;stroke-miterlimit:4;stroke-dasharray:none;stroke-dashoffset:20.40000038;stroke-opacity:0.55513312;display:inline"
       d="M 722.4375 25.78125 C 697.17727 46.214429 681 77.441261 681 112.4375 C 681 118.43663 681.49123 124.32028 682.40625 130.0625 C 695.91597 124.23844 710.79993 121 726.4375 121 C 739.20046 121 751.45241 123.13755 762.875 127.09375 C 763.50633 122.29631 763.84375 117.40673 763.84375 112.4375 C 763.84375 77.446411 747.69133 46.214604 722.4375 25.78125 z M 762.875 127.09375 C 762.81171 127.57465 762.75691 128.05229 762.6875 128.53125 C 762.75657 128.05428 762.84325 127.57266 762.90625 127.09375 C 762.89689 127.09051 762.88436 127.09699 762.875 127.09375 z M 762.6875 128.53125 C 762.53514 129.58264 762.36904 130.64582 762.1875 131.6875 C 762.3697 130.64204 762.53469 129.58649 762.6875 128.53125 z M 762.1875 131.6875 C 762.01161 132.69679 761.82789 133.68772 761.625 134.6875 C 761.82737 133.68997 762.012 132.6945 762.1875 131.6875 z M 682.40625 130.0625 C 647.07759 145.29274 621.17377 178.27087 615.96875 217.75 C 627.39138 221.70626 639.67449 223.84375 652.4375 223.84375 C 679.8248 223.84375 704.90477 213.9668 724.3125 197.5625 C 723.69563 198.08408 723.06575 198.58542 722.4375 199.09375 C 701.50744 182.16327 686.82905 157.81779 682.40625 130.0625 z M 760.8125 138.40625 C 760.36794 140.26681 759.84918 142.11442 759.3125 143.9375 C 759.85086 142.10939 760.36677 140.27208 760.8125 138.40625 z M 759.3125 143.9375 C 759.01854 144.93607 758.72724 145.91954 758.40625 146.90625 C 758.72508 145.92589 759.02035 144.92956 759.3125 143.9375 z M 758.40625 146.9375 C 758.08807 147.91469 757.75052 148.87861 757.40625 149.84375 C 757.75155 148.87575 758.0872 147.91763 758.40625 146.9375 z M 757.40625 149.84375 C 757.05866 150.81818 756.68625 151.78828 756.3125 152.75 C 756.68676 151.7871 757.05822 150.8194 757.40625 149.84375 z M 756.3125 152.75 C 755.95414 153.67211 755.56953 154.58997 755.1875 155.5 C 755.57131 154.58614 755.95256 153.67605 756.3125 152.75 z M 751.21875 163.96875 C 750.74463 164.87532 750.27939 165.76454 749.78125 166.65625 C 750.27579 165.77093 750.74788 164.86873 751.21875 163.96875 z M 749.78125 166.65625 C 749.28311 167.54796 748.77173 168.43608 748.25 169.3125 C 748.77459 168.43151 749.28049 167.5527 749.78125 166.65625 z M 748.125 169.53125 C 746.07348 172.95983 743.83425 176.26037 741.4375 179.4375 C 743.83214 176.26355 746.07493 172.9564 748.125 169.53125 z M 741.21875 179.75 C 740.68102 180.4578 740.11663 181.14933 739.5625 181.84375 C 740.11983 181.14562 740.67799 180.46167 741.21875 179.75 z M 737.625 184.21875 C 736.97079 184.9944 736.29978 185.74265 735.625 186.5 C 736.29772 185.74539 736.97271 184.99156 737.625 184.21875 z M 735.625 186.5 C 734.95022 187.25735 734.28867 188.01137 733.59375 188.75 C 734.28295 188.01756 734.95561 187.25087 735.625 186.5 z M 727.0625 195.125 C 726.30973 195.80486 725.55244 196.49683 724.78125 197.15625 C 725.55159 196.49785 726.31054 195.80382 727.0625 195.125 z "
       transform="translate(104.71428,268.50505)"
       id="path3304" />
  </g>
</svg>
