<?xml version="1.0" encoding="UTF-8" standalone="no"?>
<!-- Created with Inkscape (http://www.inkscape.org/) -->

<svg
   xmlns:dc="http://purl.org/dc/elements/1.1/"
   xmlns:cc="http://creativecommons.org/ns#"
   xmlns:rdf="http://www.w3.org/1999/02/22-rdf-syntax-ns#"
   xmlns:svg="http://www.w3.org/2000/svg"
   xmlns="http://www.w3.org/2000/svg"
   xmlns:sodipodi="http://sodipodi.sourceforge.net/DTD/sodipodi-0.dtd"
   xmlns:inkscape="http://www.inkscape.org/namespaces/inkscape"
   width="1719.3235"
   height="1165.9587"
   id="svg2"
   version="1.1"
   inkscape:version="0.47pre4 r22446"
   sodipodi:docname="c7d1.svg">
  <defs
     id="defs4">
    <inkscape:perspective
       sodipodi:type="inkscape:persp3d"
       inkscape:vp_x="0 : 526.18109 : 1"
       inkscape:vp_y="0 : 1000 : 0"
       inkscape:vp_z="744.09448 : 526.18109 : 1"
       inkscape:persp3d-origin="372.04724 : 350.78739 : 1"
       id="perspective10" />
    <inkscape:perspective
       id="perspective2923"
       inkscape:persp3d-origin="0.5 : 0.33333333 : 1"
       inkscape:vp_z="1 : 0.5 : 1"
       inkscape:vp_y="0 : 1000 : 0"
       inkscape:vp_x="0 : 0.5 : 1"
       sodipodi:type="inkscape:persp3d" />
    <inkscape:perspective
       id="perspective2969"
       inkscape:persp3d-origin="0.5 : 0.33333333 : 1"
       inkscape:vp_z="1 : 0.5 : 1"
       inkscape:vp_y="0 : 1000 : 0"
       inkscape:vp_x="0 : 0.5 : 1"
       sodipodi:type="inkscape:persp3d" />
    <inkscape:perspective
       id="perspective3015"
       inkscape:persp3d-origin="0.5 : 0.33333333 : 1"
       inkscape:vp_z="1 : 0.5 : 1"
       inkscape:vp_y="0 : 1000 : 0"
       inkscape:vp_x="0 : 0.5 : 1"
       sodipodi:type="inkscape:persp3d" />
    <inkscape:perspective
       id="perspective3046"
       inkscape:persp3d-origin="0.5 : 0.33333333 : 1"
       inkscape:vp_z="1 : 0.5 : 1"
       inkscape:vp_y="0 : 1000 : 0"
       inkscape:vp_x="0 : 0.5 : 1"
       sodipodi:type="inkscape:persp3d" />
    <inkscape:perspective
       id="perspective3046-3"
       inkscape:persp3d-origin="0.5 : 0.33333333 : 1"
       inkscape:vp_z="1 : 0.5 : 1"
       inkscape:vp_y="0 : 1000 : 0"
       inkscape:vp_x="0 : 0.5 : 1"
       sodipodi:type="inkscape:persp3d" />
  </defs>
  <sodipodi:namedview
     id="base"
     pagecolor="#ffffff"
     bordercolor="#666666"
     borderopacity="1.0"
     inkscape:pageopacity="0.0"
     inkscape:pageshadow="2"
     inkscape:zoom="0.35"
     inkscape:cx="1343.7004"
     inkscape:cy="442.72305"
     inkscape:document-units="px"
     inkscape:current-layer="layer1"
     showgrid="false"
     inkscape:window-width="1280"
     inkscape:window-height="726"
     inkscape:window-x="0"
     inkscape:window-y="25"
     inkscape:window-maximized="1" />
  <metadata
     id="metadata7">
    <rdf:RDF>
      <cc:Work
         rdf:about="">
        <dc:format>image/svg+xml</dc:format>
        <dc:type
           rdf:resource="http://purl.org/dc/dcmitype/StillImage" />
        <dc:title />
      </cc:Work>
    </rdf:RDF>
  </metadata>
  <g
     inkscape:label="Layer 1"
     inkscape:groupmode="layer"
     id="layer1"
     transform="translate(484.35019,-100.30393)">
    <path
       style="fill:#000000;fill-opacity:1;stroke:#000000;stroke-width:10;stroke-miterlimit:4;stroke-opacity:1;stroke-dasharray:none"
       id="path2820"
       d="m 450.17408,107.17949 c -13.8815,15.34294 -30.0121,28.19585 -46.44081,40.65629 -17.3354,11.60665 -35.82183,21.22595 -53.06342,32.99651 -23.44935,17.2161 -45.48522,36.25103 -67.72454,54.97804 -28.1536,24.3219 -56.53712,48.35375 -85.14127,72.14603 -33.00966,27.21154 -65.28266,55.28362 -98.840515,81.82452 -29.799091,24.47618 -61.422538,46.55867 -92.6048216,69.20352 -22.2941754,15.89254 -44.1891364,32.32873 -66.1916994,48.6185 -4.631073,3.10841 -12.847014,8.88933 -18.080691,11.44798 -2.38309,1.16506 -4.971366,1.8524 -7.457049,2.7786 -0.197026,0.12067 -1.903556,-2.6657 -1.70653,-2.78637 l 0,0 c 2.327178,-0.85796 4.757405,-1.4761 6.981535,-2.57386 4.934373,-2.43546 13.447342,-8.43566 17.766031,-11.35213 21.964681,-16.3372 43.855142,-32.77492 66.056675,-48.79128 31.061178,-22.71483 62.554444,-44.87964 92.318201,-69.3048 33.548294,-26.5174 65.809384,-54.57017 98.866534,-81.68975 28.62405,-23.77007 57.06026,-47.73972 85.23881,-72.03422 22.36295,-18.7555 44.56388,-37.77217 68.16713,-54.96953 17.2088,-11.71863 35.635,-21.34515 52.91352,-32.93725 16.32736,-12.41096 32.40244,-25.14077 46.53905,-40.07542 0.13185,-0.16998 2.53571,1.69464 2.40386,1.86462 z" />
    <path
       style="fill:#000000;fill-opacity:1;stroke:#000000;stroke-width:10;stroke-miterlimit:4;stroke-opacity:1;stroke-dasharray:none"
       id="path2822"
       d="m 468.15335,109.19209 c 3.61056,12.5986 8.64272,24.66811 16.31082,35.32481 6.20946,7.96486 13.82067,14.62975 20.89908,21.78721 9.56895,11.39968 20.32721,21.70849 31.01244,32.04071 11.59367,12.28391 24.76676,22.65377 38.50221,32.3951 18.53105,12.40839 34.30827,28.03139 49.66269,44.06146 18.47007,20.12203 36.79612,40.31294 56.81936,58.90801 16.4496,14.94111 35.60965,26.30376 54.59214,37.65413 20.82202,13.09815 38.65182,30.31044 55.66938,47.92359 12.35572,14.21974 23.94384,29.03346 38.01349,41.6218 16.55965,12.89742 32.816,26.21059 49.54452,38.89404 2.18774,1.45495 4.37547,2.90989 6.56321,4.36483 0.1714,0.15651 -2.04197,2.58048 -2.21337,2.42398 l 0,0 c -2.25798,-1.46902 -4.51596,-2.93804 -6.77394,-4.40706 -16.85006,-12.64744 -33.12269,-26.06416 -49.65114,-39.12336 -14.06952,-12.68204 -25.77746,-27.47538 -38.25621,-41.67674 -16.92515,-17.3328 -34.54663,-34.41365 -55.11054,-47.41144 -19.16962,-11.44294 -38.46598,-22.9674 -55.09491,-38.01613 -20.08035,-18.62283 -38.52123,-38.7995 -57.00231,-58.99515 -15.16937,-15.94425 -30.66494,-31.56979 -49.07459,-43.84242 -13.80812,-9.86896 -27.09007,-20.33358 -38.77633,-32.71322 -10.67545,-10.36749 -21.38921,-20.74361 -30.94,-32.18058 -7.12956,-7.2936 -14.83116,-14.06072 -21.13449,-22.11878 -7.8369,-10.87037 -13.09132,-23.1441 -16.4745,-36.10775 -0.0571,-0.20598 2.85592,-1.01302 2.91299,-0.80704 z" />
    <path
       style="fill:#000000;fill-opacity:1;stroke:#000000;stroke-width:10;stroke-miterlimit:4;stroke-opacity:1;stroke-dasharray:none"
       id="path2834"
       d="m -70.766079,526.08371 c -11.265325,4.1738 -21.284342,10.91239 -29.024841,20.07803 -6.54897,9.07405 -9.57545,20.0499 -13.54681,30.38332 -5.0414,13.41642 -13.6062,25.01991 -22.20974,36.32826 -9.48345,13.51761 -18.02556,27.65448 -27.19709,41.37564 -9.59233,15.3628 -20.05204,30.15359 -29.99734,45.28587 -10.24807,14.24241 -20.12182,28.72144 -28.48963,44.15639 -6.95988,13.60762 -13.85053,27.23425 -21.18103,40.64786 -7.55383,13.23772 -15.49599,26.24789 -23.11789,39.44565 -8.20415,13.35317 -14.90939,27.51574 -22.0819,41.42917 -7.23179,14.47369 -14.32652,29.00993 -21.33545,43.59528 -7.49188,16.90026 -15.8674,33.37331 -24.14852,49.89282 -10.10845,19.27 -19.79461,38.73811 -30.58674,57.6395 -5.46647,8.6732 -10.20459,17.8267 -15.76276,26.4431 -1.80034,2.7909 -4.7698,7.2795 -7.75456,9.3263 -0.89274,0.6122 -2.04809,0.7018 -3.07213,1.0526 -0.18857,0.097 -1.55645,-2.57 -1.36788,-2.6668 l 0,0 c 0.66627,-0.1078 1.43774,0.052 1.99882,-0.3236 2.76481,-1.8487 5.63321,-6.3345 7.20188,-8.8233 5.45816,-8.6594 10.10309,-17.8407 15.57178,-26.4961 10.82402,-18.82849 20.55851,-38.21325 30.66723,-57.42925 8.27838,-16.50628 16.66135,-32.9592 24.15484,-49.84463 7.0713,-14.58384 14.1957,-29.134 21.41886,-43.64076 7.2006,-13.94705 13.88711,-28.16831 22.14504,-41.54058 7.58579,-13.19508 15.54089,-26.17329 23.10964,-39.37897 7.30477,-13.42251 14.19989,-27.03886 21.12519,-40.65905 8.34394,-15.54038 18.24859,-30.09318 28.55542,-44.39273 9.94775,-15.14125 20.41789,-29.93404 30.01425,-45.30456 9.2275,-13.75298 17.83111,-27.91875 27.35918,-41.47517 8.45284,-11.10278 16.9359,-22.45856 21.93502,-35.61673 4.10919,-10.59674 7.28463,-21.81326 13.96385,-31.15536 7.996857,-9.59391 18.295129,-16.83362 30.147192,-20.95297 0.185316,-0.1065 1.691435,2.51427 1.506119,2.62077 z" />
    <path
       style="fill:#000000;fill-opacity:1;stroke:#000000;stroke-width:10;stroke-miterlimit:4;stroke-opacity:1;stroke-dasharray:none"
       id="path2836"
       d="m -63.249297,532.59103 c 4.083261,15.14399 6.663225,30.71162 8.658995,46.26129 1.112208,11.87057 2.33328,23.68593 2.555017,35.61364 0.254853,16.56392 4.149027,32.59351 8.243516,48.53958 6.015414,18.04509 10.656991,36.32765 13.821237,55.0742 2.79918,23.01616 2.60855,46.29939 3.155146,69.4579 0.298324,28.95847 2.416218,57.8517 4.766238,86.70196 2.003662,23.99323 3.587281,48.03171 6.22338,71.96634 1.150557,14.36799 2.770541,28.70309 3.629732,43.09512 0.911962,14.63524 -0.56141,29.28664 0.06699,43.91314 0.163682,0.2717 1.872662,14.0096 4.7132575,8.8524 0.1796253,-0.1131 1.7777611,2.4272 1.5981357,2.5402 l 0,0 c -1.4611208,0.2523 -2.9283231,1.0419 -4.3833622,0.7567 -4.326955,-0.8482 -4.278703,-9.3831 -5.139588,-12.029 -0.675226,-14.6152 0.774119,-29.2499 -0.09541,-43.87385 -0.826072,-14.34107 -2.440907,-28.62947 -3.69062,-42.93326 -2.920878,-23.9387 -4.508206,-48.01481 -6.555857,-72.03952 -2.351172,-28.90498 -4.547191,-57.8637 -4.632041,-86.88083 -0.543984,-23.02326 -0.32348,-46.16524 -3.015167,-69.05555 -3.109573,-18.67729 -7.767767,-36.86884 -13.726463,-54.84864 -4.121538,-16.15916 -8.036396,-32.4092 -8.16791,-49.194 -0.158507,-11.83199 -1.392376,-23.53785 -2.609251,-35.30025 -2.060509,-15.41179 -4.680724,-30.80746 -8.380815,-45.91156 -0.04992,-0.20965 2.914915,-0.91565 2.964837,-0.70601 z" />
    <path
       style="fill:#000000;fill-opacity:1;stroke:#000000;stroke-width:10;stroke-miterlimit:4;stroke-opacity:1;stroke-dasharray:none"
       id="path2838"
       d="m 461.5202,130.08689 c -0.088,12.14803 0.98638,24.36735 -1.2461,36.37057 -0.94746,4.76803 -3.26957,9.02438 -4.50781,13.68577 -2.72616,8.82935 -4.3997,17.99362 -5.96042,27.09912 -2.26369,9.40286 -3.26657,19.0093 -4.88718,28.52448 -1.44548,10.84369 -3.54629,21.53896 -4.29429,32.46834 0.49374,9.53584 -0.79848,18.94038 -1.76393,28.39871 -1.01513,9.49884 -0.7548,19.05925 -0.44035,28.58666 0.40759,8.95169 0.45563,17.91139 0.41057,26.87023 -0.12644,8.71891 -0.17083,17.43813 -0.18625,26.15781 0.29677,9.78972 0.063,19.44881 -1.1706,29.1589 -1.24554,11.79432 -2.68453,23.52655 -4.48273,35.24777 -0.63567,9.26329 -2.16331,18.41918 -3.14643,27.64848 -0.25248,9.23212 -0.48596,18.32943 -1.96091,27.46376 -1.19112,6.94554 -1.1304,13.95768 -2.37062,20.88835 -1.12991,4.85958 -1.95819,9.66068 -1.75173,14.6501 0.24477,3.09004 0.67005,6.15743 0.7543,9.25815 0.0177,2.62565 -0.11754,5.25002 -0.24808,7.8718 -1.4581,3.54179 -2.89808,-0.9627 -2.77282,-2.63764 -0.15495,-1.07544 -0.13716,-2.17616 -0.16441,-3.25909 -0.003,-0.20823 2.94214,-0.24632 2.94483,-0.0381 l 0,0 c 0.006,1.13051 -0.005,2.26297 0.0822,3.39124 -0.0118,1.78658 -1.85753,6.5104 -2.98867,2.44923 0.0714,-2.57224 0.22101,-5.14235 0.22156,-7.7164 -0.069,-3.09082 -0.57566,-6.14122 -0.80253,-9.22187 -0.18953,-5.16162 0.54058,-10.17221 1.7184,-15.20243 1.26182,-6.9125 1.14168,-13.90543 2.33226,-20.83828 1.41735,-9.09477 1.63814,-18.14691 1.91824,-27.33195 0.96696,-9.27005 2.5349,-18.46071 3.13848,-27.76706 1.73947,-11.71282 3.10518,-23.43899 4.43506,-35.20479 1.31966,-9.59096 1.48954,-19.13389 1.21295,-28.81397 0.01,-8.72319 0.10623,-17.44565 0.1949,-26.16832 0.0534,-8.92362 -0.0216,-17.84819 -0.41088,-26.7649 -0.35762,-9.64797 -0.59206,-19.32751 0.42345,-28.94827 0.99249,-9.42598 2.27165,-18.79381 1.74585,-28.30147 0.70143,-11.02581 2.80713,-21.81011 4.36363,-32.73075 1.61619,-9.51578 2.54981,-19.13287 4.84154,-28.53104 1.55156,-9.1903 3.29081,-18.43848 6.13171,-27.31942 1.26278,-4.58169 3.52425,-8.76555 4.39014,-13.48403 2.07123,-11.86619 0.81267,-23.92224 1.25631,-35.9097 0,-0.21499 3.0404,-0.21499 3.0404,0 z" />
    <path
       style="fill:#000000;fill-opacity:1;stroke:#000000;stroke-width:10;stroke-miterlimit:4;stroke-opacity:1;stroke-dasharray:none"
       id="path2840"
       d="m 422.1679,564.20207 c -7.14577,9.50403 -15.76073,17.80101 -22.5539,27.5616 -4.77796,8.61609 -9.19485,17.24433 -14.83371,25.35708 -11.97418,17.63658 -24.44097,34.87721 -35.53021,53.09517 -11.15151,18.65304 -21.89107,37.54818 -32.1635,56.69874 -13.50012,25.89924 -25.94266,52.33056 -38.74955,78.57533 -11.66867,23.82361 -23.98549,47.2926 -35.07001,71.39747 -8.00271,19.48156 -14.15189,39.68437 -20.41055,59.78183 -5.60978,14.51595 -9.90374,29.59706 -16.93448,43.51923 -2.64829,5.21374 -4.88418,10.73607 -8.80903,15.14832 -3.81405,2.30373 -3.84567,-2.82525 -4.22551,-4.83246 -0.0312,-0.21332 2.9857,-0.65427 3.01688,-0.44095 l 0,0 c 0.17526,1.10999 0.83292,2.24902 0.52578,3.32997 -1.55963,5.48887 -2.97588,1.75254 -1.7124,0.28776 3.71213,-4.30322 5.76043,-9.66178 8.2867,-14.69341 6.88157,-13.82477 11.00006,-28.79696 16.55893,-43.16881 6.25232,-20.22869 12.4709,-40.5373 20.49703,-60.14228 11.03207,-24.14331 23.09122,-47.76088 34.78364,-71.58835 12.84315,-26.27727 25.53573,-52.63835 39.05784,-78.57517 10.34211,-19.17099 21.1336,-38.09458 32.25788,-56.82275 11.09669,-18.3039 23.57524,-35.61946 35.80248,-53.17591 5.79706,-8.01321 10.24535,-16.57941 14.91107,-25.27 6.72713,-9.88992 15.32227,-18.30297 22.74282,-27.66648 0.11484,-0.18044 2.66664,1.44363 2.5518,1.62407 z" />
    <path
       style="fill:#000000;fill-opacity:1;stroke:#000000;stroke-width:10;stroke-miterlimit:4;stroke-opacity:1;stroke-dasharray:none"
       id="path2842"
       d="m 441.98499,549.38705 c 2.03481,14.39973 4.07281,28.81096 6.62626,43.13056 2.1131,12.8773 5.54556,25.45217 9.67195,37.81466 6.53167,18.04747 13.04461,36.08558 18.86266,54.3778 6.27864,21.54748 12.23226,43.23585 16.64169,65.24922 4.24306,21.79868 7.80493,43.71201 11.66744,65.57803 3.72488,23.45126 5.49779,47.17115 7.47171,70.82162 1.06228,21.94484 2.60586,43.86935 3.50106,65.82367 1.37826,15.62411 2.41375,31.2774 4.39516,46.83888 1.17684,9.76101 1.6628,19.52691 3.34836,29.22211 0.46861,2.2519 0.26342,2.7382 0.56832,1.4778 0.16931,0.116 -1.47136,2.5104 -1.64068,2.3944 l 0,0 c -1.96976,-1.7593 -1.27377,-0.6513 -1.93248,-3.4167 -1.82836,-9.7178 -2.27964,-19.5349 -3.54432,-29.32968 -2.06196,-15.63298 -3.09592,-31.36772 -4.55606,-47.06583 -0.98465,-21.91203 -2.56883,-43.79383 -3.64664,-65.70023 -1.94584,-23.56341 -3.68037,-47.19665 -7.39462,-70.56029 -3.83355,-21.84824 -7.36726,-43.74341 -11.65366,-65.5114 -4.38537,-21.9101 -10.32467,-43.49021 -16.53028,-64.94806 -5.80164,-18.28179 -12.28058,-36.31631 -18.69468,-54.38997 -4.08797,-12.50644 -7.51205,-25.21326 -9.74726,-38.19231 -2.59692,-14.32202 -4.72833,-28.73877 -6.40134,-43.19717 -0.0295,-0.21124 2.95792,-0.62835 2.98741,-0.41711 z" />
    <path
       style="fill:#000000;fill-opacity:1;stroke:#000000;stroke-width:10;stroke-miterlimit:4;stroke-opacity:1;stroke-dasharray:none"
       id="path2844"
       d="m 890.10472,513.43532 c 0.55991,18.50318 -2.12802,36.87759 -5.7743,54.96203 -4.44594,18.6873 -12.09545,36.39178 -19.0569,54.2338 -10.86837,26.54982 -22.43607,52.81706 -33.92172,79.10637 -13.63575,32.56706 -30.63463,63.54498 -46.2677,95.16432 -15.24412,29.22897 -27.26073,59.92126 -37.80946,91.10025 -7.34161,21.64662 -13.904,43.54157 -20.93465,65.29136 -7.2407,17.98024 -12.78352,36.48654 -18.26865,55.04995 -2.54795,9.5253 -7.19737,18.6432 -8.49494,28.4777 0.021,0.5016 0.0421,1.0031 0.0631,1.5046 0.009,0.2084 -2.93798,0.3289 -2.94651,0.1206 l 0,0 c -0.0349,-0.646 -0.0697,-1.292 -0.1046,-1.938 1.18352,-9.9938 5.68177,-19.2901 8.2901,-28.9433 5.39364,-18.61425 10.8635,-37.16822 18.13781,-55.16264 6.99824,-21.77035 13.60414,-43.66003 20.8465,-65.34943 10.39203,-31.37844 22.24537,-62.29775 37.64595,-91.6134 15.80111,-31.47939 32.55408,-62.5278 46.31343,-94.98084 11.57311,-26.21582 23.1896,-52.4257 34.17262,-78.89331 6.97787,-17.6604 14.65629,-35.1808 19.0261,-53.72477 3.59221,-17.91795 6.11095,-36.08983 6.01722,-54.40529 0,-0.21684 3.06658,-0.21684 3.06658,0 z" />
    <path
       style="fill:#000000;fill-opacity:1;stroke:#000000;stroke-width:10;stroke-miterlimit:4;stroke-opacity:1;stroke-dasharray:none"
       id="path2846"
       d="m 913.89356,498.30532 c 5.982,17.14971 12.4554,34.09762 18.09277,51.37163 5.52664,17.43969 11.40126,34.7627 17.01042,52.1721 6.76747,22.68369 13.89851,45.23852 19.86897,68.15127 7.0161,26.43216 16.70364,52.04411 27.58918,77.09837 10.3074,23.95312 21.4248,47.517 31.3678,71.62626 11.4923,27.18462 21.1696,55.03938 30.6687,82.96367 6.5849,19.3454 14.9207,38.00314 22.1713,57.09458 4.6603,13.46072 9.6526,26.79092 18.7351,37.92542 1.0073,0.77793 2.0145,1.55586 3.0218,2.33378 0.1496,0.15779 -2.0818,2.2746 -2.2315,2.1168 l 0,0 c -1.1413,-0.9144 -2.2826,-1.82883 -3.4239,-2.74325 -9.2836,-11.36027 -14.5098,-24.87736 -19.2968,-38.62406 -7.3044,-19.10976 -15.6667,-37.79328 -22.3749,-57.13269 -9.6595,-27.80298 -19.3835,-55.5731 -30.6174,-82.79211 -9.9496,-24.08875 -21.0591,-47.63804 -31.41314,-71.55269 -10.93285,-25.20186 -20.64317,-50.97317 -27.66759,-77.56236 -5.90843,-22.86776 -13.00177,-45.37559 -19.66325,-68.02934 -5.59055,-17.41025 -11.3713,-34.76027 -16.99381,-52.16206 -5.66801,-17.28625 -12.29444,-34.22035 -17.80859,-51.54932 -0.0499,-0.20964 2.91492,-0.91565 2.96484,-0.706 z" />
    <path
       style="fill:#000000;fill-opacity:1;stroke:#000000;stroke-width:10;stroke-miterlimit:4;stroke-opacity:1;stroke-dasharray:none"
       id="path2848"
       d="m 967.279,298.44196 c -11.25461,-2.88677 -24.3035,-4.65134 -35.30144,0.40577 -1.87632,0.86278 -3.44629,2.27661 -5.16944,3.41491 -9.3739,9.74044 -8.70261,18.71575 -2.80836,29.99299 8.75866,10.72064 18.28341,14.49995 31.69631,16.18772 1.85765,-0.1479 3.7153,-0.2958 5.57295,-0.4437 0.21663,-0.0679 1.17747,2.99578 0.96084,3.06372 l 0,0 c -2.55879,0.1289 -5.11758,0.25779 -7.67637,0.38668 -14.01558,-1.98468 -24.6459,-6.44405 -33.4705,-17.96778 -6.6062,-13.10753 -6.8869,-22.28041 3.54724,-33.5747 1.92308,-1.29929 3.67662,-2.8942 5.76924,-3.89788 11.83589,-5.67682 26.19537,-3.63437 38.30068,-0.26385 0.19064,0.10049 -1.2305,2.79661 -1.42115,2.69612 z" />
    <path
       style="fill:#000000;fill-opacity:1;stroke:#000000;stroke-width:10;stroke-miterlimit:4;stroke-opacity:1;stroke-dasharray:none"
       id="path2850"
       d="m 933.41356,226.52991 c 4.21102,21.73794 1.02153,43.43143 -3.10196,64.87909 -5.5016,24.84814 -13.3445,49.0881 -22.15048,72.93878 -2.41973,5.63478 -5.17013,10.58785 -9.68053,14.68835 -0.14007,0.16385 -2.45723,-1.817 -2.31717,-1.98085 l 0,0 c 4.24023,-3.7014 6.45653,-8.57762 8.77069,-13.68444 8.57214,-23.7627 16.24499,-47.88139 21.80966,-72.54299 4.1598,-21.11269 7.30668,-42.40571 3.68238,-63.88083 -0.0295,-0.21124 2.95792,-0.62835 2.98741,-0.41711 z" />
    <path
       style="fill:#000000;fill-opacity:1;stroke:#000000;stroke-width:10;stroke-miterlimit:4;stroke-opacity:1;stroke-dasharray:none"
       id="path2852"
       d="m 546.84694,402.86413 c 11.60771,2.71459 24.4788,5.65417 34.0255,13.29761 1.62143,1.29818 2.91218,2.96249 4.36827,4.44374 5.8795,9.28984 2.2587,15.48708 -3.14824,23.56454 -2.13057,3.18303 -4.67893,6.07582 -8.24899,7.58341 -5.01147,0.97323 -9.80682,-0.59471 -14.46544,-2.2715 -6.95644,-2.68843 -12.1434,-2.78933 -19.27593,-1.07195 -8.02815,2.84075 -12.72041,9.93729 -17.49656,16.5336 -3.4428,4.70205 -7.13852,9.87614 -8.33285,15.70345 -0.039,1.07917 0.18082,1.69344 0.0472,2.74677 -0.0518,0.19659 -2.83208,-0.53668 -2.78023,-0.73327 l 0,0 c 0.2278,1.08319 -0.61381,-2.29588 -0.18256,-2.51552 1.2782,-6.18911 4.80477,-11.78251 8.57407,-16.75348 5.13153,-7.1078 10.22133,-14.61241 18.82369,-17.73621 7.60479,-1.92492 14.84075,-1.74354 22.17885,1.24088 3.68397,1.32679 7.43963,2.5412 11.41005,2.339 3.18745,-0.80216 5.27416,-3.99537 7.07874,-6.50395 4.35171,-6.54329 8.43586,-12.67326 3.30557,-20.18802 -1.32911,-1.32259 -2.50515,-2.81934 -3.98735,-3.96777 -9.36179,-7.25364 -21.7917,-10.02087 -32.9954,-12.87551 -0.20052,-0.0779 0.90109,-2.91371 1.10161,-2.83582 z" />
    <path
       style="fill:#000000;fill-opacity:1;stroke:#000000;stroke-width:10;stroke-miterlimit:4;stroke-opacity:1;stroke-dasharray:none"
       id="path2854"
       d="m 117.84596,264.72202 c 8.56092,6.96536 17.54207,14.25316 28.69129,16.15327 3.24358,0.52693 3.37422,-0.76274 2.47095,1.00817 -2.22782,-0.0614 -4.49743,0.21367 -6.73347,0.34119 -5.75358,1.26254 -11.21406,3.51369 -16.43344,6.20488 -6.32416,2.4857 -9.90995,7.91267 -13.82055,13.12664 -4.02374,5.86608 -7.18691,12.14981 -8.95516,19.03999 -1.39624,7.30654 1.33132,9.69049 7.37376,13.0696 7.14822,3.22073 14.52067,4.49967 22.30542,4.3136 5.73108,-0.30088 11.43962,-0.91028 17.15713,-1.39213 0.20596,-0.0691 1.18256,2.84375 0.97659,2.9128 l 0,0 c -5.77558,0.50824 -11.54369,1.11646 -17.33223,1.46357 -8.75134,0.0523 -17.09213,-1.03338 -25.05876,-4.94806 -6.88896,-4.13416 -9.9288,-7.7309 -8.38924,-16.04522 1.80099,-7.23537 5.11063,-13.83044 9.3016,-19.99285 4.1313,-5.46503 7.98181,-11.2863 14.59243,-13.9614 5.52642,-2.89045 11.31804,-5.21957 17.40579,-6.63895 3.12588,-0.17438 6.70988,-0.96473 9.623,0.43283 3.69815,3.69714 -3.10366,4.86441 -5.66908,3.87513 -11.55874,-2.1321 -21.00932,-9.32636 -29.71367,-16.89531 -0.14622,-0.15611 2.06143,-2.22385 2.20764,-2.06775 z" />
    <path
       style="fill:#000000;fill-opacity:1;stroke:#000000;stroke-width:10;stroke-miterlimit:4;stroke-opacity:1;stroke-dasharray:none"
       id="path2912"
       d="m 744.95411,105.79584 c 2.26754,6.96385 3.47822,14.18296 4.38158,21.43004 0.45707,3.45349 0.5111,7.452 -2.194,9.98653 0,0 -2.8327,-0.23815 -2.8327,-0.23815 l 0,0 c 2.76011,-2.37443 2.63569,-6.35626 2.2124,-9.71376 -0.88711,-7.23169 -2.09589,-14.43699 -4.39416,-21.37367 0,0 2.82688,-0.091 2.82688,-0.091 z" />
    <path
       style="fill:#000000;fill-opacity:1;stroke:#000000;stroke-width:10;stroke-miterlimit:4;stroke-opacity:1;stroke-dasharray:none"
       id="path2914"
       d="m 703.78759,152.1412 c 8.85644,-1.34888 17.90596,-1.82473 26.86554,-2.32911 6.09098,0.0522 12.01149,-1.42623 17.94614,-2.58406 1.24878,-0.24126 2.49899,-0.47509 3.75092,-0.69937 0,0 2.82275,0.39656 2.82275,0.39656 l 0,0 c -1.25833,0.21972 -2.51437,0.45221 -3.76902,0.69204 -5.95138,1.15034 -11.88346,2.67024 -17.98985,2.61634 -10.82353,0.59994 -21.59869,1.72294 -32.41697,2.34957 0,0 2.79049,-0.44197 2.79049,-0.44197 z" />
    <path
       style="fill:#000000;fill-opacity:1;stroke:#000000;stroke-width:10;stroke-miterlimit:4;stroke-opacity:1;stroke-dasharray:none"
       id="path2916"
       d="m 706.70855,191.81928 c 7.94383,-1.12103 15.94018,-1.7765 23.94797,-2.20507 4.1193,-0.2038 8.24307,-0.31298 12.36712,-0.34958 1.19786,0.26197 2.49497,0.24137 3.59359,0.78593 1.00383,0.49757 -2.61387,5.99718 -3.02545,6.7353 -1.73684,2.75701 -4.0033,5.44321 -4.09098,8.82652 0.64898,3.38469 2.33129,6.66885 3.9636,9.71129 1.67295,2.53686 3.10469,4.72004 2.53687,7.81272 -1.12873,5.15413 -6.52562,7.88548 -10.64492,10.43187 -5.9757,3.26653 -12.38395,5.38594 -18.9181,7.18275 0,0 -2.76084,-0.36209 -2.76084,-0.36209 l 0,0 c 6.52441,-1.77105 12.91531,-3.87328 18.89026,-7.10561 4.0414,-2.48541 9.4518,-5.15549 10.59358,-10.19965 0.5787,-3.01066 -0.93979,-5.13849 -2.52579,-7.62125 -1.6405,-3.09283 -3.35665,-6.41247 -3.9732,-9.85761 0.0944,-3.43874 2.28841,-6.17609 4.09798,-8.96299 0.92439,-1.66059 2.69529,-3.649 3.12387,-5.50922 0.0634,-0.27542 -0.3283,-0.67517 -0.10013,-0.84196 0.57349,-0.41919 1.3665,-0.38875 2.04974,-0.58312 -4.13556,0.0264 -8.27091,0.13333 -12.40188,0.33125 -8.00073,0.41784 -15.99106,1.05969 -23.92713,2.1828 0,0 -2.79616,-0.40228 -2.79616,-0.40228 z" />
    <path
       style="fill:#000000;fill-opacity:1;stroke:#000000;stroke-width:10;stroke-miterlimit:4;stroke-opacity:1;stroke-dasharray:none"
       id="path2918"
       d="m 409.30134,283.02969 c -2.36668,7.08087 -4.77043,14.10818 -6.46533,21.38865 -0.68727,2.4193 -1.73127,4.69362 -3.03342,6.83533 0,0 -2.838,-0.15701 -2.838,-0.15701 l 0,0 c 1.31707,-2.10467 2.36423,-4.35047 3.05846,-6.74291 1.70892,-7.28395 4.11174,-14.31876 6.45141,-21.41505 0,0 2.82688,0.091 2.82688,0.091 z" />
    <path
       style="fill:#000000;fill-opacity:1;stroke:#000000;stroke-width:10;stroke-miterlimit:4;stroke-opacity:1;stroke-dasharray:none"
       id="path2920"
       d="m 372.02278,332.50574 c 6.24909,1.0213 12.53939,1.72877 18.85358,2.18161 2.12431,0.60305 5.06481,-0.51996 6.95157,0.7359 0,0 -2.83169,0.29946 -2.83169,0.29946 l 0,0 c -2.05837,-0.96513 -4.73353,-0.0512 -6.90941,-0.6143 -6.31797,-0.46712 -12.61154,-1.18647 -18.86559,-2.20626 0,0 2.80154,-0.39641 2.80154,-0.39641 z" />
    <path
       style="fill:#000000;fill-opacity:1;stroke:#000000;stroke-width:10;stroke-miterlimit:4;stroke-opacity:1;stroke-dasharray:none"
       id="path2922"
       d="m 363.78759,360.71263 c 7.36625,-0.33072 14.61092,0.12596 21.87425,1.317 2.26361,0.47648 6.75668,0.45388 6.23614,3.75336 -1.87232,2.85041 -5.07604,4.22476 -7.33017,6.70996 -2.12391,2.51682 -2.76416,5.64574 -3.07354,8.82885 0.58365,3.52996 2.90202,6.49512 4.28776,9.78124 0.98451,2.98428 1.52728,6.09522 1.01006,9.2053 -2.1223,6.20503 -7.17603,10.22453 -12.41304,13.76463 -5.62221,3.39732 -11.85262,4.66816 -18.27954,5.35508 0,0 -2.75855,-0.4079 -2.75855,-0.4079 l 0,0 c 6.41021,-0.63732 12.62322,-1.87338 18.24838,-5.22102 5.19613,-3.48055 10.22186,-7.41465 12.36918,-13.53808 0.52088,-3.05253 -0.0373,-6.11864 -1.00985,-9.04473 -1.40573,-3.3235 -3.7713,-6.32193 -4.2908,-9.92173 0.30836,-3.23596 0.95579,-6.43055 3.08554,-9.00764 2.19766,-2.50721 5.28232,-3.86835 7.30944,-6.55165 0.54162,-2.96709 -4.3341,-2.84047 -6.18048,-3.30998 -7.26295,-1.17829 -14.51362,-1.58451 -21.87527,-1.27072 0,0 2.79049,-0.44197 2.79049,-0.44197 z" />
    <path
       style="fill:#000000;fill-opacity:1;stroke:#000000;stroke-width:10;stroke-miterlimit:4;stroke-opacity:1;stroke-dasharray:none"
       id="path2924"
       d="m -21.784375,340.15041 c -1.076673,6.65609 -1.716632,13.37266 -2.197932,20.09489 -0.167583,2.69342 -0.272908,5.39043 -0.320817,8.08854 0,0 -2.84611,-0.006 -2.84611,-0.006 l 0,0 c 0.06306,-2.70297 0.176964,-5.4047 0.345863,-8.10321 0.498635,-6.72934 1.148606,-13.4515 2.189934,-20.12109 0,0 2.829062,0.0467 2.829062,0.0467 z" />
    <path
       style="fill:#000000;fill-opacity:1;stroke:#000000;stroke-width:10;stroke-miterlimit:4;stroke-opacity:1;stroke-dasharray:none"
       id="path2926"
       d="m -53.635904,388.96507 c 8.129422,-0.97125 16.20193,-2.24442 24.294185,-3.48738 7.141167,-0.64594 14.127309,-2.18733 21.1572361,-3.52691 3.6297696,-0.33783 8.59651665,-2.34905 11.7977933,0.15683 0.012158,0.17419 0.024316,0.34839 0.036474,0.52259 0,0 -2.85173649,0.0201 -2.85173649,0.0201 l 0,0 c -0.006597,-0.0922 -0.0131945,-0.18432 -0.0197917,-0.27648 -0.44406241,-0.30603 -1.86681191,-0.42068 -1.43606982,-0.74519 0.4243787,-0.31971 2.10776091,-0.27219 1.58181312,-0.19673 -2.10490221,0.30199 -4.22514061,0.50596 -6.31573291,0.90768 -7.0397256,1.33222 -14.0284876,2.90575 -21.1804746,3.53374 -8.083097,1.23547 -16.140629,2.53414 -24.262155,3.48821 0,0 -2.801541,-0.39641 -2.801541,-0.39641 z" />
    <path
       style="fill:#000000;fill-opacity:1;stroke:#000000;stroke-width:10;stroke-miterlimit:4;stroke-opacity:1;stroke-dasharray:none"
       id="path2928"
       d="m -59.350189,426.10793 c 6.779197,-1.06708 13.612162,-1.75798 20.458173,-2.20705 4.975824,-0.58593 9.59037,0.0681 13.841859,2.60802 3.354892,1.77293 2.00125,3.35512 -0.332594,5.45399 -2.846919,2.65043 -6.210771,4.61854 -9.14276,7.16109 -3.126265,3.11683 -2.641948,5.91211 -0.88168,9.59515 1.968873,3.02335 4.155217,6.35587 4.351695,10.03947 -0.979617,4.74998 -4.584732,6.84905 -8.792418,8.53261 -4.47108,1.59398 -2.127425,0.8415 -7.042139,2.22233 0,0 -2.780818,-0.36322 -2.780818,-0.36322 l 0,0 c 4.90279,-1.35706 2.565335,-0.61316 7.023778,-2.19552 4.120309,-1.59225 7.733191,-3.55068 8.755175,-8.18092 -0.199077,-3.65225 -2.437069,-6.91626 -4.347909,-9.92957 -1.771558,-3.78776 -2.255109,-6.73541 0.893316,-9.9609 2.904657,-2.57694 6.290435,-4.50759 9.138156,-7.15941 2.527779,-2.22689 3.821676,-2.90865 0.337672,-4.92127 -3.401883,-1.97965 -5.769935,-2.72997 -8.236626,-2.47921 -6.840355,0.43579 -13.668332,1.11557 -20.44134,2.18082 0,0 -2.80154,-0.39641 -2.80154,-0.39641 z" />
    <path
       style="fill:#000000;fill-opacity:1;stroke:#000000;stroke-width:10;stroke-miterlimit:4;stroke-opacity:1;stroke-dasharray:none"
       id="path2930"
       d="m 1029.6442,608.72184 c -1.0927,7.25286 -1.6514,14.53703 -3.0175,21.74662 -0.8427,3.99121 -1.5638,8.00775 -2.1815,12.03972 -0.031,0.31673 -0.061,0.63346 -0.092,0.9502 0,0 -2.8442,-0.0271 -2.8442,-0.0271 l 0,0 c 0.031,-0.32236 0.061,-0.64472 0.092,-0.96707 0.6399,-4.03338 1.3649,-8.05424 2.2169,-12.04845 1.372,-7.20579 1.9434,-14.48488 2.9974,-21.74062 0,0 2.8291,0.0467 2.8291,0.0467 z" />
    <path
       style="fill:#000000;fill-opacity:1;stroke:#000000;stroke-width:10;stroke-miterlimit:4;stroke-opacity:1;stroke-dasharray:none"
       id="path2932"
       d="m 1000.9304,660.71263 c 8.5491,0.003 17.0981,0.002 25.6471,0.002 5.7106,-5e-4 11.4212,-7.8e-4 17.1318,-0.003 0.6656,0.19822 3.6464,-0.55935 3.1379,0.44491 0,0 -2.819,-0.44648 -2.819,-0.44648 l 0,0 c 0.5084,1.00456 -2.4528,0.2464 -3.1181,0.44491 -5.7,-0.002 -11.4,-0.002 -17.1001,-0.003 -8.5567,-6.2e-4 -17.1133,-10e-4 -25.67004,0.002 0,0 2.79044,-0.44197 2.79044,-0.44197 z" />
    <path
       style="fill:#000000;fill-opacity:1;stroke:#000000;stroke-width:10;stroke-miterlimit:4;stroke-opacity:1;stroke-dasharray:none"
       id="path2934"
       d="m 1000.6498,691.82221 c 6.9278,-1.11094 13.8166,-2.24588 20.8362,-1.38689 4.5802,0.48459 8.7686,1.34031 11.3348,5.4715 1.3609,3.71902 -0.8465,6.66334 -3.3141,9.23463 -2.1665,1.96205 -4.5675,4.32908 -3.1497,7.37986 1.9879,2.04413 5.379,2.91186 8.0959,3.76588 3.5535,1.32382 7.4278,0.93039 11.0346,1.88771 1.0669,0.69482 5.2991,0.70672 5.4044,2.44962 -0.9386,0.69802 -2.3205,0.50149 -3.4314,0.52892 0,0 -2.8048,-0.438 -2.8048,-0.438 l 0,0 c 1.125,-0.0211 2.2668,-0.12409 3.3817,-0.0724 -1.0823,-1.45117 -3.8354,-1.3073 -5.3591,-2.09387 -3.6293,-0.86111 -7.4841,-0.57799 -11.0338,-1.90585 -2.7529,-0.89484 -6.2431,-1.74161 -8.1263,-4.00448 -1.336,-3.20893 0.8063,-5.65194 3.1642,-7.715 2.3929,-2.45226 4.6672,-5.25841 3.3096,-8.85706 -2.5921,-4.00534 -6.8238,-4.73564 -11.3019,-5.22208 -5.0315,-0.5656 -10.1266,0.70697 -15.2387,1.37392 0,0 -2.8016,-0.39642 -2.8016,-0.39642 z" />
    <path
       style="fill:#000000;fill-opacity:1;stroke:#000000;stroke-width:10;stroke-miterlimit:4;stroke-opacity:1;stroke-dasharray:none"
       id="path2936"
       d="m 836.04201,777.24654 c 0.94157,5.99031 1.67929,12.00754 2.19224,18.04906 0.17813,2.62283 0.30869,5.24972 0.35268,7.87843 0.01,1.26694 -9e-4,-0.29735 0.002,0.53815 0,0 -2.85447,-0.003 -2.85447,-0.003 l 0,0 c 0.004,-0.82838 0.003,0.7353 0.003,-0.53174 -0.0273,-2.62209 -0.15111,-5.24272 -0.32816,-7.85871 -0.4979,-6.03523 -1.22485,-12.04756 -2.19562,-18.02592 0,0 2.82906,-0.0467 2.82906,-0.0467 z" />
    <path
       style="fill:#000000;fill-opacity:1;stroke:#000000;stroke-width:10;stroke-miterlimit:4;stroke-opacity:1;stroke-dasharray:none"
       id="path2938"
       d="m 818.0733,820.71263 c 7.97629,0.003 15.95257,0.002 23.92886,10e-4 4.33625,-3e-4 8.6725,-5.5e-4 13.00875,-6.9e-4 3.10042,-10e-5 3.51291,0.82943 2.76028,-0.32383 3.89251,-0.84139 7.77066,-1.66641 11.72049,-2.19508 1.14071,-0.68597 4.10623,0.0999 1.25174,0.0845 -0.3905,-1.9e-4 -0.78101,-3.8e-4 -1.17151,-5.7e-4 0,0 2.80656,-0.44421 2.80656,-0.44421 l 0,0 c 0.39222,6.6e-4 0.78444,10e-4 1.17666,0.002 2.94678,0.0357 -0.12229,1.06986 -1.25565,0.76534 -3.95707,0.51453 -7.84581,1.30703 -11.73495,2.19279 -7.10667,0.47657 -14.21367,0.38301 -21.33547,0.359 -7.98208,-5.4e-4 -15.96416,-0.002 -23.94625,10e-4 0,0 2.79049,-0.44197 2.79049,-0.44197 z" />
    <path
       style="fill:#000000;fill-opacity:1;stroke:#000000;stroke-width:10;stroke-miterlimit:4;stroke-opacity:1;stroke-dasharray:none"
       id="path2940"
       d="m 838.0733,846.42691 c 6.46869,-0.15681 12.71371,-0.47349 18.72969,2.16445 3.90752,2.43198 2.87707,5.83416 0.93744,9.26113 -2.67336,3.85606 -5.9958,7.19145 -9.28085,10.5192 -1.92118,2.27865 -1.6776,3.25838 1.1845,3.64813 3.47797,0.26537 7.37068,0.17761 7.52751,0.17656 3.51263,-0.15951 5.38184,-0.34391 8.54388,1.23047 -0.21607,0.26511 -0.43214,0.53022 -0.64821,0.79533 0,0 -2.8367,-0.20608 -2.8367,-0.20608 l 0,0 c 0.21423,-0.22039 0.42847,-0.44079 0.6427,-0.66119 7.08633,-1.74561 -1.05774,-0.27294 -2.90024,-0.71679 -4.37827,0.0308 -8.77169,0.1274 -13.14033,-0.21834 -2.98371,-0.54173 -3.11879,-1.99455 -1.19304,-4.26847 3.2775,-3.30731 6.58649,-6.62561 9.27425,-10.44589 1.91069,-3.30067 2.94548,-6.50711 -0.91698,-8.78621 -6.01356,-2.55776 -12.28078,-2.17455 -18.71411,-2.05033 0,0 2.79049,-0.44197 2.79049,-0.44197 z" />
    <path
       style="fill:#000000;fill-opacity:1;stroke:#000000;stroke-width:10;stroke-miterlimit:4;stroke-opacity:1;stroke-dasharray:none"
       id="path2942"
       d="m 521.41264,674.75453 c -0.0215,7.13431 -0.008,14.26867 -0.003,21.403 0.004,2.89729 0.005,5.79458 0.0118,8.69187 0,0 -2.84328,0 -2.84328,0 l 0,0 c 0.007,-2.89729 0.008,-5.79458 0.0118,-8.69187 0.005,-7.13433 0.0187,-14.26869 -0.003,-21.403 0,0 2.82528,0 2.82528,0 z" />
    <path
       style="fill:#000000;fill-opacity:1;stroke:#000000;stroke-width:10;stroke-miterlimit:4;stroke-opacity:1;stroke-dasharray:none"
       id="path2944"
       d="m 506.64473,717.85548 c 6.91714,-1.30649 14.10364,-1.81271 21.15427,-2.32793 5.58446,-0.36733 11.18132,-0.48876 16.77643,-0.54034 2.6824,-0.0117 5.36501,-0.0242 8.04736,0.002 0,0 -2.81876,0.44324 -2.81876,0.44324 l 0,0 c -0.88913,-0.007 -3.33492,-7.7e-4 0.48271,-0.011 0.97161,-0.003 -4.43554,0.003 -2.91484,0.007 -5.60173,0.0452 -11.20528,0.15957 -16.79683,0.51905 -8.92496,0.63995 -17.78413,1.91478 -26.72083,2.35075 0,0 2.79049,-0.44197 2.79049,-0.44197 z" />
    <path
       style="fill:#000000;fill-opacity:1;stroke:#000000;stroke-width:10;stroke-miterlimit:4;stroke-opacity:1;stroke-dasharray:none"
       id="path2946"
       d="m 520.93045,734.99834 c 6.47333,0.003 12.94667,0.002 19.42001,-3.3e-4 4.33587,0.71492 2.6489,4.28766 1.49271,7.13483 -1.26093,3.95099 0.74539,7.31998 3.04765,10.39406 2.4376,2.60184 5.06823,5.03355 7.5359,7.63415 2.38456,2.84329 2.49987,5.51564 0.25828,8.4391 -4.99894,4.29418 -11.39388,5.21003 -17.75173,5.53723 0,0 -2.76529,-0.4246 -2.76529,-0.4246 l 0,0 c 6.3279,-0.27249 12.63158,-1.16028 17.68919,-5.30178 2.25761,-2.77902 2.07364,-5.31535 -0.25705,-8.03496 -2.47149,-2.60501 -5.13146,-5.02108 -7.53335,-7.66836 -2.33777,-3.16786 -4.32208,-6.64274 -3.05115,-10.68388 1.11715,-2.75556 2.80022,-6.05097 -1.45989,-6.58315 -6.47192,-0.002 -12.94385,-0.003 -19.41577,-3.4e-4 0,0 2.79049,-0.44197 2.79049,-0.44197 z" />
    <path
       style="fill:#000000;fill-opacity:1;stroke:#000000;stroke-width:10;stroke-miterlimit:4;stroke-opacity:1;stroke-dasharray:none"
       id="path2948"
       d="m 294.93165,831.18074 c 3.61774,-1.79846 11.88582,-5.77103 15.64168,-2.85614 -0.13517,3.82432 -3.72384,6.74698 -5.85879,9.69342 -1.75611,1.96943 -4.12813,4.19576 -1.82438,6.58462 2.45999,1.75714 5.78335,1.68118 8.69263,1.80328 5.07695,0.0928 3.14878,0.0734 5.71129,0.0493 1.43092,-0.0581 0.97631,0.041 2.6837,1.33794 0,0 -2.82866,-0.22654 -2.82866,-0.22654 l 0,0 c 6.73477,-1.18864 4.56893,-0.62995 2.9571,-0.66879 -3.77385,0.0374 -7.54957,0.0461 -11.3223,-0.0615 -2.95045,-0.14035 -6.31585,-0.0948 -8.72855,-2.02645 -2.20226,-2.63674 -0.15153,-4.8509 1.83609,-6.96838 2.03296,-2.83853 5.48737,-5.64555 5.85147,-9.2437 -0.27426,-0.16845 -0.98905,-0.22978 -0.82277,-0.50536 0.20529,-0.34026 1.58309,-0.14259 1.18799,-0.1 -3.67971,0.39713 -7.12891,1.68697 -10.36721,3.50051 0,0 -2.80929,-0.31231 -2.80929,-0.31231 z" />
    <path
       style="fill:#000000;fill-opacity:1;stroke:#000000;stroke-width:10;stroke-miterlimit:4;stroke-opacity:1;stroke-dasharray:none"
       id="path2950"
       d="m 280.64981,868.96507 c 7.7266,-0.9094 15.38202,-2.18469 23.05046,-3.4856 5.13233,-0.84977 10.30008,-1.44433 15.48704,-1.8253 0.64672,-0.20632 2.00081,0.37428 1.38069,-0.64162 0,0 2.84698,-0.13253 2.84698,-0.13253 l 0,0 c 0.58262,1.36292 -0.26382,1.14711 -1.42052,1.19817 -5.19753,0.36431 -10.3759,0.94906 -15.51861,1.7933 -7.66137,1.2939 -15.3034,2.59857 -23.0245,3.48999 0,0 -2.80154,-0.39641 -2.80154,-0.39641 z" />
    <path
       style="fill:#000000;fill-opacity:1;stroke:#000000;stroke-width:10;stroke-miterlimit:4;stroke-opacity:1;stroke-dasharray:none"
       id="path2952"
       d="m 280.99427,886.10499 c 6.57007,-0.87578 13.15466,-1.65674 19.76092,-2.20241 3.44625,-0.10761 8.80396,-1.72034 8.2082,3.24318 -1.70984,3.31446 -4.65064,6.03591 -7.61384,8.25304 -1.63701,1.44618 -5.39683,4.49553 -3.61019,6.95947 2.24155,2.14465 5.09973,3.01791 8.06099,3.62687 2.16128,0.40987 5.12065,1.16728 5.73854,3.54452 -0.31128,4.2751 -4.72498,7.17401 -7.77905,9.63676 -9.27891,7.08771 -20.60342,10.13742 -31.67841,13.14502 0,0 -2.73638,-0.35939 -2.73638,-0.35939 l 0,0 c 11.04117,-2.99138 22.34587,-5.99498 31.61305,-13.03672 2.95101,-2.36377 7.35043,-5.20939 7.73614,-9.30908 -0.65706,-2.22881 -3.70728,-2.81621 -5.70489,-3.23575 -2.99402,-0.65034 -5.89461,-1.59319 -8.09071,-3.84978 -1.62203,-2.80866 1.70442,-5.69586 3.63253,-7.38634 2.94727,-2.14101 5.79346,-4.83515 7.59196,-8.02328 0.0644,-0.51362 0.31423,-1.49982 -0.0138,-2.04922 -0.17755,-0.2974 -1.00537,-0.45639 -0.76376,-0.70457 0.93211,-0.95747 3.697,-0.1418 -1.7968,-0.0355 -6.60615,0.52983 -13.19007,1.30765 -19.75839,2.18546 0,0 -2.79615,-0.40229 -2.79615,-0.40229 z" />
    <path
       style="fill:#000000;fill-opacity:1;stroke:#000000;stroke-width:10;stroke-miterlimit:4;stroke-opacity:1;stroke-dasharray:none"
       id="path2954"
       d="m -7.4986611,623.00756 c -0.3293353,5.6092 -0.031838,11.23196 0.1437821,16.842 0.091542,2.9666 0.1711457,5.93415 0.1979259,8.90214 0.00636,0.79186 0.00989,1.58374 0.013067,2.37562 0,0 -2.8488835,6e-4 -2.8488835,6e-4 l 0,0 c -1.789e-4,-0.79118 -0.00102,-1.58237 -0.00729,-2.37354 -0.02913,-2.96589 -0.08683,-5.93152 -0.180628,-8.8961 -0.171048,-5.62883 -0.449189,-11.26901 -0.147033,-16.89745 0,0 2.8290631,0.0467 2.8290631,0.0467 z" />
    <path
       style="fill:#000000;fill-opacity:1;stroke:#000000;stroke-width:10;stroke-miterlimit:4;stroke-opacity:1;stroke-dasharray:none"
       id="path2956"
       d="m -16.546263,670.01239 c 4.547261,0.48348 14.8944834,2.85806 18.9513316,1.67172 5.6400233,-0.65698 11.2549204,-1.49429 16.9078874,-2.03957 1.633398,-0.14896 3.268337,-0.28335 4.906161,-0.37233 0.04065,-0.002 0.0813,-0.004 0.121943,-0.005 0,0 2.821359,0.44034 2.821359,0.44034 l 0,0 c -0.04083,2e-5 -0.08165,4e-5 -0.12248,5e-5 -1.64579,0.0705 -3.287657,0.21083 -4.928553,0.35341 -5.661259,0.5334 -11.284869,1.35622 -16.9280565,2.046 -8.2127415,0.28604 -16.4674055,-0.0151 -24.5359045,-1.7418 0,0 2.806312,-0.35235 2.806312,-0.35235 z" />
    <path
       style="fill:#000000;fill-opacity:1;stroke:#000000;stroke-width:10;stroke-miterlimit:4;stroke-opacity:1;stroke-dasharray:none"
       id="path2958"
       d="m 39.354066,696.40077 c -6.270028,2.46876 -12.094833,5.91459 -18.384761,8.3167 -1.844652,0.4718 -9.819741,4.11045 -9.732376,0.30946 0.277846,-3.05818 1.444055,-5.78889 2.640307,-8.57494 0.948945,-1.87362 1.656464,-5.63837 3.836906,-6.53404 1.314129,0.29912 2.684288,0.41403 3.942386,0.89734 1.862145,0.71536 3.792371,6.12309 4.526555,7.76507 1.852112,3.99139 3.327045,8.18842 5.553856,11.99213 1.655012,2.23565 2.998494,4.64936 3.650181,7.35604 0.07993,0.7273 0.470766,1.02824 -0.02793,1.50339 0,0 -2.824254,-0.40616 -2.824254,-0.40616 l 0,0 c 0.664026,0.4955 -0.146242,-0.67602 0.01017,-1.02965 -0.653169,-2.67807 -2.02331,-5.0475 -3.634491,-7.27506 -2.197132,-3.83117 -3.707054,-8.01578 -5.550812,-12.02181 -0.830029,-1.85291 -1.497355,-3.8486 -2.674316,-5.52106 -0.297483,-0.42272 -0.644708,-0.80872 -0.986993,-1.19606 -0.27658,-0.31298 -1.055545,-0.53007 -0.868288,-0.90342 0.280098,-0.55846 1.13883,-0.51418 1.708245,-0.77128 -1.957669,-0.0214 -3.114234,4.90535 -3.827669,6.25976 -1.187352,2.7538 -2.357171,5.44179 -2.626647,8.46847 -0.02364,0.57347 1.203853,2.56566 -1.496256,0.99098 -0.382475,-0.22305 4.898875,-1.16078 5.583148,-1.64922 6.301262,-2.3587 12.105486,-5.83109 18.373743,-8.28895 0,0 2.809294,0.31231 2.809294,0.31231 z" />
    <path
       style="fill:#000000;fill-opacity:1;stroke:#000000;stroke-width:10;stroke-miterlimit:4;stroke-opacity:1;stroke-dasharray:none"
       id="path2960"
       d="m -199.40579,778.22003 c 4.57267,0.59443 9.68347,1.89821 10.64678,6.97011 -0.55246,3.85192 -3.55155,6.46598 -5.79586,9.41323 -3.26257,3.15447 -4.95295,6.37943 -3.28209,10.74772 1.04931,3.54704 4.9642,5.523 6.09428,8.89662 0.20783,2.85939 -3.64403,4.11631 -5.72671,5.36171 -4.27185,3.04899 -8.88145,5.50591 -13.43699,8.0904 -3.45279,1.72932 -7.06427,3.65419 -10.96857,3.92773 0,0 -2.80066,-0.42952 -2.80066,-0.42952 l 0,0 c 3.89852,-0.10916 7.51839,-2.11773 10.96548,-3.79467 4.54514,-2.59426 9.17716,-5.00603 13.42566,-8.08481 1.91993,-1.15997 5.80505,-2.39846 5.70192,-4.97574 -1.20554,-3.32936 -5.07558,-5.3331 -6.08142,-8.89 -1.64591,-4.45082 -0.0896,-7.82749 3.287,-11.03249 2.17703,-2.89576 5.15786,-5.43475 5.78094,-9.17602 -0.97182,-4.93875 -6.23633,-6.02867 -10.6113,-6.62786 0,0 2.80154,-0.39641 2.80154,-0.39641 z" />
    <path
       style="fill:#000000;fill-opacity:1;stroke:#000000;stroke-width:10;stroke-miterlimit:4;stroke-opacity:1;stroke-dasharray:none"
       id="path2962"
       d="m -233.35527,857.85548 c 7.08392,0.002 14.16785,0.002 21.25177,7.4e-4 4.96077,-2.6e-4 9.92154,-9.7e-4 14.88231,-9.1e-4 3.09606,-0.17695 6.07599,0.84284 8.84904,2.12958 0.43603,0.19163 0.83252,0.44524 1.21624,0.72123 0,0 -2.84269,0.26619 -2.84269,0.26619 l 0,0 c -0.38708,-0.24452 -0.78106,-0.47704 -1.20098,-0.66326 -2.7744,-1.25269 -5.73216,-2.19994 -8.81431,-2.01142 -4.95691,6e-5 -9.91383,-6.5e-4 -14.87074,-9.2e-4 -7.08704,-10e-4 -14.17409,-10e-4 -21.26113,7.4e-4 0,0 2.79049,-0.44197 2.79049,-0.44197 z" />
    <path
       style="fill:#000000;fill-opacity:1;stroke:#000000;stroke-width:10;stroke-miterlimit:4;stroke-opacity:1;stroke-dasharray:none"
       id="path2964"
       d="m -206.36171,893.22189 c -5.73411,2.74559 -11.64353,5.04893 -17.77199,6.73469 -3.90637,0.80993 -9.3637,2.08712 -5.23921,-2.77994 3.75917,-2.95634 7.37894,-6.07716 11.08797,-9.10236 2.55971,-2.13761 5.07409,-4.32937 7.5503,-6.56308 5.74159,-2.92522 2.81507,7.07669 2.45793,8.65474 -0.78268,5.38536 -2.33602,10.59967 -3.34376,15.9427 -0.64229,4.86201 -2.3496,9.48436 -3.30301,14.29034 -0.47308,2.38275 -0.73121,4.78909 -0.8097,7.21409 -0.003,0.10036 -0.006,0.20072 -0.009,0.30107 0,0 -2.85312,-0.0118 -2.85312,-0.0118 l 0,0 c 0.005,-0.0996 0.0106,-0.19926 0.0159,-0.29889 0.0856,-2.44092 0.34244,-4.86229 0.82693,-7.25981 0.9505,-4.80709 2.66794,-9.42635 3.31351,-14.28748 1.00473,-5.34686 2.56153,-10.56307 3.3357,-15.95296 0.41906,-1.86447 1.15805,-3.93286 1.21995,-5.85889 0.0162,-0.50373 -0.48926,-1.11535 -0.16686,-1.50272 0.60709,-0.72944 1.65818,-0.92755 2.52008,-1.32474 0.15008,-0.0692 -0.24498,0.22182 -0.36748,0.33274 -2.48941,2.23202 -5.01423,4.42471 -7.57473,6.57484 -3.70164,3.013 -7.28705,6.15087 -11.07081,9.05354 -0.50905,0.58291 -1.12628,1.18162 -1.47901,1.89623 -0.0771,0.15622 -0.23478,0.36602 -0.13102,0.50597 0.13954,0.18821 0.88628,0.13308 0.66808,0.21843 -0.21323,0.0834 -4.43157,0.16322 0.55157,-0.40938 6.13179,-1.65677 12.06177,-3.91419 17.76532,-6.71972 0,0 2.80631,0.35236 2.80631,0.35236 z" />
    <path
       style="fill:#000000;fill-opacity:1;stroke:#000000;stroke-width:10;stroke-miterlimit:4;stroke-opacity:1;stroke-dasharray:none"
       id="path2987"
       d="m 1115.3585,1074.4361 c -1.0866,5.9407 -0.5233,12.0212 -0.1251,18.0049 0.2712,3.6248 0.377,7.257 0.4473,10.8902 0.017,0.9637 0.03,1.9274 0.038,2.8912 0,0 -2.852,0 -2.852,0 l 0,0 c -8e-4,-0.9625 -0.01,-1.9249 -0.024,-2.8873 -0.06,-3.6288 -0.1735,-7.2561 -0.435,-10.8768 -0.3844,-6.0066 -0.9364,-12.1041 0.1218,-18.0701 0,0 2.8291,0.047 2.8291,0.047 z" />
    <path
       style="fill:#000000;fill-opacity:1;stroke:#000000;stroke-width:10;stroke-miterlimit:4;stroke-opacity:1;stroke-dasharray:none"
       id="path2989"
       d="m 1162.5566,1099.5701 c -6.4946,5.1347 -13.2029,9.9711 -19.5636,15.2809 -6.6146,4.9396 -12.9664,10.2039 -19.5071,15.2379 -4.1356,3.1202 -8.1601,6.3855 -12.1117,9.7349 -0.4349,0.3691 -0.8654,0.7434 -1.2921,1.1218 0,0 -2.8426,-0.2409 -2.8426,-0.2409 l 0,0 c 0.4303,-0.3812 0.8655,-0.7568 1.3049,-1.1275 3.9706,-3.3462 8.0043,-6.6205 12.1529,-9.7441 6.5406,-5.031 12.8814,-10.3045 19.5069,-15.2266 6.3515,-5.313 13.0558,-10.1459 19.5358,-15.2895 0,0 2.8166,0.2531 2.8166,0.2531 z" />
    <path
       style="fill:#000000;fill-opacity:1;stroke:#000000;stroke-width:10;stroke-miterlimit:4;stroke-opacity:1;stroke-dasharray:none"
       id="path2991"
       d="m 1168.6507,1179.3201 c -3.674,-5.5764 -4.9336,-11.6358 -3.0796,-18.0496 1.537,-2.8599 4.4157,-7.4083 8.2081,-7.5646 1.5274,-0.063 3.053,0.1665 4.5795,0.2497 4.6624,2.5035 4.7171,7.4967 3.9007,12.12 -1.0669,5.979 -5.1914,10.4705 -9.8966,14.02 -7.3623,4.7281 -9.9982,2.3849 -12.0726,-4.9712 -1.1897,-11.5625 2.7124,-22.8149 6.8508,-33.4268 4.4931,-9.7327 8.4484,-19.6719 12.3436,-29.6492 0,0 2.7975,0.1044 2.7975,0.1044 l 0,0 c -3.9121,9.9736 -7.8646,19.9176 -12.3697,29.648 -4.1257,10.5511 -8.0316,21.7428 -6.8106,33.2453 0.541,1.8665 0.8568,3.819 2.1302,5.3823 0.3925,0.4819 1.303,0.5236 1.4947,1.1149 0.112,0.3454 -1.389,0.364 -1.0737,0.1838 0.5417,-0.3097 1.1851,-0.3908 1.7777,-0.5862 0.7085,-0.4357 1.417,-0.8714 2.1255,-1.307 4.6897,-3.4593 8.8142,-7.8998 9.8828,-13.8079 0.8,-4.4673 0.7913,-9.4257 -3.885,-11.6689 0.3449,-0.094 1.3842,-0.3587 1.0347,-0.283 -3.8217,0.8271 -6.5359,3.8657 -8.1963,7.2769 -1.8799,6.3212 -0.5931,12.3083 3.0799,17.7785 0,0 -2.8216,0.1906 -2.8216,0.1906 z" />
    <path
       style="fill:#000000;fill-opacity:1;stroke:#000000;stroke-width:10;stroke-miterlimit:4;stroke-opacity:1;stroke-dasharray:none"
       id="path2993"
       d="m 741.75629,1040.1037 c 1.1847,7.1227 1.98888,14.2313 1.37316,21.4374 -0.54718,4.4905 -1.11866,8.976 -1.507,13.4836 -0.046,0.9679 -0.0163,1.6845 -0.52223,2.499 0,0 -2.84303,-0.1753 -2.84303,-0.1753 l 0,0 c 0.58587,-0.7116 0.43371,-1.4366 0.52794,-2.3486 0.40367,-4.5068 0.97323,-8.993 1.52975,-13.4831 0.63209,-7.182 -0.17501,-14.2712 -1.38765,-21.3663 0,0 2.82906,-0.047 2.82906,-0.047 z" />
    <path
       style="fill:#000000;fill-opacity:1;stroke:#000000;stroke-width:10;stroke-miterlimit:4;stroke-opacity:1;stroke-dasharray:none"
       id="path2995"
       d="m 703.45135,1092.5057 c 10.46352,1.5821 21.06343,1.6254 31.58766,2.5287 11.60478,1.2499 23.24496,2.0621 34.90562,2.5269 7.13273,-0.1726 14.14675,0.7374 21.13265,2.0665 0.67724,0.1154 1.35448,0.2307 2.03172,0.3461 0,0 -2.80198,0.395 -2.80198,0.395 l 0,0 c -0.67634,-0.1171 -1.35269,-0.2342 -2.02903,-0.3514 -6.9723,-1.3192 -13.97532,-2.1817 -21.09057,-2.0308 -11.65552,-0.4747 -23.28957,-1.3005 -34.89027,-2.5418 -10.54566,-0.8858 -21.16546,-0.9477 -31.64734,-2.5427 0,0 2.80154,-0.3965 2.80154,-0.3965 z" />
    <path
       style="fill:#000000;fill-opacity:1;stroke:#000000;stroke-width:10;stroke-miterlimit:4;stroke-opacity:1;stroke-dasharray:none"
       id="path2999"
       d="m 725.67056,1173.4152 c 4.50689,-4.8514 9.13397,-9.6427 14.82819,-13.0902 4.21937,-2.1755 8.66664,-2.7473 11.22713,1.7651 0.45671,4.6647 -2.76713,8.7878 -5.67244,12.0987 -4.1875,4.7017 -9.71234,7.7939 -15.47591,10.1471 -4.06291,1.4571 -9.96854,3.51 -13.16025,-0.4661 -2.37833,-5.0285 -0.53447,-10.5114 1.12856,-15.4715 3.47008,-9.122 8.58457,-17.4962 13.78124,-25.716 4.2735,-6.5029 8.80301,-12.8216 13.41929,-19.0852 1.37499,-1.8426 2.74187,-3.6919 4.15437,-5.5061 0.0374,-0.047 0.0748,-0.095 0.11226,-0.1424 0,0 2.84821,0.1929 2.84821,0.1929 l 0,0 c -0.038,0.047 -0.076,0.093 -0.114,0.1395 -1.43358,1.8026 -2.80132,3.6566 -4.18761,5.4954 -4.63077,6.2527 -9.16514,12.5669 -13.4481,19.0631 -5.1916,8.1956 -10.29647,16.5504 -13.76004,25.6496 -1.626,4.8473 -3.50463,10.2826 -1.1038,15.1829 0.31768,0.3616 0.56908,0.7945 0.95305,1.0848 0.37453,0.2831 1.2166,0.1333 1.27468,0.5992 0.0491,0.394 -1.56891,0.1135 -1.1775,0.1804 2.25828,0.3858 4.39679,-0.9876 6.48287,-1.5339 5.75107,-2.2995 11.27622,-5.3582 15.46098,-10.0173 2.83146,-3.1932 6.07537,-7.2152 5.6499,-11.7461 -2.20246,-3.7235 -2.04692,-3.2823 -5.58531,-1.6234 -5.71423,3.3757 -10.3205,8.1584 -14.81421,12.9901 0,0 -2.82156,-0.1906 -2.82156,-0.1906 z" />
    <path
       style="fill:#000000;fill-opacity:1;stroke:#000000;stroke-width:10;stroke-miterlimit:4;stroke-opacity:1;stroke-dasharray:none"
       id="path3001"
       d="m 526.78263,1089.3995 c -0.85622,7.0467 -1.60544,14.1049 -2.19103,21.1791 -0.44142,1.3871 0.33172,3.516 -0.66802,4.6692 0,0 -2.84019,-0.2465 -2.84019,-0.2465 l 0,0 c 1.07966,-0.5837 0.22077,-3.4677 0.68219,-4.4466 0.612,-7.0758 1.37612,-14.1356 2.19683,-21.1902 0,0 2.82022,0.035 2.82022,0.035 z" />
    <path
       style="fill:#000000;fill-opacity:1;stroke:#000000;stroke-width:10;stroke-miterlimit:4;stroke-opacity:1;stroke-dasharray:none"
       id="path3003"
       d="m 498.21562,1145.8647 c -0.40453,5.1103 0.45307,10.3731 4.32007,13.9782 3.40129,1.8847 4.44215,0.6877 7.95107,-2.0523 3.18363,-1.6703 3.17161,-5.6397 5.28031,-8.0239 4.63803,-1.1714 5.42526,3.2432 7.02246,6.3323 2.15928,5.1992 4.29733,10.4093 6.47814,15.6036 2.2407,5.5184 4.20287,11.0615 5.46294,16.8879 1.14833,4.6924 -0.65064,8.5138 -4.28754,11.4288 -6.04223,3.3079 -12.64568,5.4345 -19.27945,7.1988 -9.16764,2.159 -16.93622,2.433 -25.5657,-1.7723 0,0 2.79009,-0.3143 2.79009,-0.3143 l 0,0 c 1.47454,0.7018 6.27337,3.0427 7.82215,3.1812 4.10942,0.3672 8.17341,-0.763 12.17367,-1.4615 6.62093,-1.7379 13.17957,-3.8751 19.24593,-7.0878 3.63642,-2.7741 5.40451,-6.5182 4.27879,-11.1129 -1.24963,-5.811 -3.22323,-11.3332 -5.45496,-16.8359 -2.18246,-5.1872 -4.30742,-10.3973 -6.48864,-15.5807 -0.8316,-1.6094 -1.57777,-3.2488 -2.47534,-4.8209 -0.16066,-0.2814 -0.73617,-0.647 -0.47993,-0.8454 0.60606,-0.4691 1.52079,-0.2532 2.2403,-0.5172 0.20337,-0.075 -0.4309,-0.045 -0.64636,-0.068 -2.26565,2.2008 -2.03373,6.4936 -5.29935,8.0623 -3.91816,3.1485 -8.88416,4.8651 -13.59116,2.026 -3.8224,-3.7623 -4.7296,-9.0412 -4.32655,-14.2531 0,0 2.82906,0.047 2.82906,0.047 z" />
    <path
       style="fill:#000000;fill-opacity:1;stroke:#000000;stroke-width:10;stroke-miterlimit:4;stroke-opacity:1;stroke-dasharray:none"
       id="path3005"
       d="m 483.45135,1118.22 c 8.46442,1.5582 16.87047,3.272 25.43134,4.2601 7.73593,0.4063 15.36508,1.1904 23.00837,2.4205 4.88837,0.7828 9.822,1.2044 14.76295,1.4566 1.00399,0.046 2.00851,0.084 3.01358,0.092 0,0 -2.81766,0.4425 -2.81766,0.4425 l 0,0 c -1.00017,-0.018 -1.99984,-0.056 -2.99894,-0.1054 -4.93556,-0.2652 -9.86303,-0.701 -14.74551,-1.4899 -7.635,-1.2296 -15.26438,-1.9643 -22.98752,-2.4111 -8.57011,-1.006 -16.98644,-2.7386 -25.46815,-4.2688 0,0 2.80154,-0.3964 2.80154,-0.3964 z" />
    <path
       style="fill:#000000;fill-opacity:1;stroke:#000000;stroke-width:10;stroke-miterlimit:4;stroke-opacity:1;stroke-dasharray:none"
       id="path3007"
       d="m 177.78879,1056.895 c 5.37977,-2.7944 10.99683,-5.1154 16.87432,-6.6122 3.46608,-0.7488 7.00727,-0.9742 10.54281,-1.0542 2.98248,-0.2345 5.38141,-0.5806 7.18754,1.8867 0.26716,0.365 0.42149,0.7652 0.50964,1.1981 1.16153,-0.6609 1.80354,0.3634 2.29801,1.2863 0.62628,1.6315 0.49593,3.5061 0.51658,5.2311 0.30147,3.7411 -1.55539,6.7766 -3.37201,9.8564 -1.94115,3.4234 -4.86885,5.7761 -7.96155,8.0825 -2.09145,2.151 -5.55838,3.1947 -7.26884,5.6705 0.23745,1.4949 4.69589,1.1093 5.93523,1.1436 4.09684,0.05 4.43036,0.027 9.26431,0.01 3.20719,-0.014 6.41439,-0.02 9.62161,-0.023 0.97971,0.044 3.68268,-0.025 4.05073,-0.059 0,0 2.84938,-0.1248 2.84938,-0.1248 l 0,0 c 0.33768,1.4563 -3.09103,0.3391 -4.09827,0.6275 -3.20904,0 -6.41808,0.01 -9.6271,0.021 -4.95341,0.019 -9.90744,0.057 -14.86053,-0.016 -1.47052,-0.048 -5.98545,0.4251 -5.9768,-1.7431 1.6004,-2.5748 5.20384,-3.5969 7.29265,-5.7686 3.06883,-2.2895 6.01739,-4.5668 7.94788,-7.9711 1.80035,-3.0341 3.67749,-6.0025 3.36297,-9.7013 -0.0242,-1.6768 0.11504,-3.5125 -0.52248,-5.0909 -0.64713,-1.1313 -1.23096,-1.0237 -2.30807,-1.409 -0.1214,-0.3653 -0.24079,-0.7284 -0.49726,-1.0351 -1.07868,-1.3826 -3.70381,-1.6163 -0.43001,-1.6333 0.36822,0 -0.73645,0 -1.10468,0 -3.53655,0.062 -7.0789,0.271 -10.55163,0.9883 -5.87935,1.4505 -11.49875,3.7521 -16.86513,6.5513 0,0 -2.8093,-0.3123 -2.8093,-0.3123 z" />
    <path
       style="fill:#000000;fill-opacity:1;stroke:#000000;stroke-width:10;stroke-miterlimit:4;stroke-opacity:1;stroke-dasharray:none"
       id="path3009"
       d="m 198.0733,1112.1412 c 7.63787,-0.6899 15.67478,1.1259 23.22207,-0.3291 7.15228,-0.8656 14.3499,-1.2641 21.35805,-2.9859 3.13674,-0.7599 6.27909,-1.4968 9.42807,-2.2043 0.72471,-0.2747 0.37579,0.1839 -0.001,0.2263 0,0 2.82149,-0.421 2.82149,-0.421 l 0,0 c 0.41244,0.1156 0.73557,0.5879 0.002,0.5784 -3.1591,0.6991 -6.30987,1.4356 -9.4552,2.1941 -7.01717,1.7492 -14.21881,2.1619 -21.38724,3.029 -9.5892,0.4662 -19.17886,0.3729 -28.77862,0.3545 0,0 2.79049,-0.442 2.79049,-0.442 z" />
    <path
       style="fill:#000000;fill-opacity:1;stroke:#000000;stroke-width:10;stroke-miterlimit:4;stroke-opacity:1;stroke-dasharray:none"
       id="path3011"
       d="m 217.22217,1156.463 c -2.4152,-2.8386 -5.1785,-5.2427 -9.01112,-5.6714 -0.6565,-0.073 -1.42702,-0.3743 -1.9817,-0.015 -0.37431,0.2421 0.82868,0.3288 1.24302,0.4932 -3.33804,2.7248 -1.3245,6.6307 1.28146,9.0011 3.58259,2.3583 8.1881,2.8349 12.06003,2.9103 5.35872,-0.8684 9.78693,-3.4345 13.86411,-6.8726 4.44536,-3.7166 1.02867,-5.6635 7.07039,-3.0977 1.75604,4.6461 4.46975,8.9257 7.22976,13.0399 3.45949,5.3651 6.71294,10.848 9.55586,16.5653 2.39049,4.8206 2.36739,9.5633 -0.0275,14.3145 -5.0834,5.8096 -12.71654,7.4184 -19.85201,9.37 -7.18402,2.1625 -14.33126,1.9628 -21.71777,1.5356 0,0 2.76258,-0.4122 2.76258,-0.4122 l 0,0 c 5.39989,1.132 10.88741,-0.4056 16.18242,-1.4873 7.08755,-1.9226 14.65166,-3.4931 19.80357,-9.1392 2.40523,-4.6632 2.39393,-9.309 0.0321,-14.0515 -2.83372,-5.7089 -6.09324,-11.176 -9.54937,-16.5291 -2.76579,-4.1358 -5.48677,-8.4296 -7.2545,-13.0948 0.75396,-0.4465 1.49142,-0.9221 2.26189,-1.3394 0.34444,-0.1866 -0.54762,0.5679 -0.75624,0.8995 -0.84962,1.3502 -1.5421,2.7462 -2.92309,3.6717 -4.09109,3.4785 -8.51118,6.1026 -13.89443,7.0497 -6.0544,0.2009 -12.38091,0.3374 -17.66764,-3.1009 -2.7053,-2.5871 -4.58364,-6.6124 -1.275,-9.5836 7.05017,-0.9353 10.58244,-0.4492 15.38472,5.3537 0,0 -2.82155,0.1907 -2.82155,0.1907 z" />
    <path
       style="fill:#000000;fill-opacity:1;stroke:#000000;stroke-width:10;stroke-miterlimit:4;stroke-opacity:1;stroke-dasharray:none"
       id="path3013"
       d="m -30.355804,1068.7218 c -1.042161,6.5784 -1.447259,13.2081 -3.012662,19.6911 -0.998178,3.908 -1.783773,7.8718 -2.189484,11.8856 -0.270576,1.0773 0.231694,2.5193 -0.53473,3.377 0,0 -2.839511,-0.2592 -2.839511,-0.2592 l 0,0 c 0.841602,-0.3564 0.239869,-2.3859 0.536119,-3.1466 0.414131,-4.0268 1.204516,-8.0033 2.208947,-11.924 1.58362,-6.4715 1.994042,-13.0947 3.002259,-19.6706 0,0 2.829062,0.047 2.829062,0.047 z" />
    <path
       style="fill:#000000;fill-opacity:1;stroke:#000000;stroke-width:10;stroke-miterlimit:4;stroke-opacity:1;stroke-dasharray:none"
       id="path3015"
       d="m -87.640983,1123.5698 c 9.09592,0 18.191842,0 27.287763,0 7.830627,10e-5 15.661254,-8e-4 23.491881,0 3.860994,0 7.721988,-7e-4 11.582982,0 0.699283,0.1076 1.401125,-0.3753 0.765568,0.4458 -0.163242,-10e-5 -0.326484,-10e-5 -0.489727,-2e-4 0,0 -2.815535,-0.4459 -2.815535,-0.4459 l 0,0 c 0.162605,-10e-5 0.325211,-10e-5 0.487816,-2e-4 0.625871,0.8184 -0.06136,0.3399 -0.759707,0.4458 -3.849934,0 -7.699868,0 -11.549801,0 -7.825219,-5e-4 -15.650438,0 -23.475657,0 -9.105357,-6e-4 -18.210714,0 -27.316071,0 0,0 2.790488,-0.4419 2.790488,-0.4419 z" />
    <path
       style="fill:#000000;fill-opacity:1;stroke:#000000;stroke-width:10;stroke-miterlimit:4;stroke-opacity:1;stroke-dasharray:none"
       id="path3017"
       d="m -67.161069,1152.2391 c -0.02225,9.2842 -0.01587,18.5684 -0.01068,27.8526 0.0014,6.3462 0.01046,12.6925 0.01223,19.0388 -0.0144,0.065 0.02782,5.7564 0.01275,5.7499 -1.031095,-0.443 -1.894132,-1.2041 -2.841199,-1.8061 0,0 2.833082,0 2.833082,0 l 0,0 c -0.947066,0.602 -1.810103,1.3631 -2.841198,1.8061 -0.01507,0.01 0.02715,-5.6851 0.01275,-5.7499 0.0018,-6.3463 0.01083,-12.6926 0.01223,-19.0388 0.0052,-9.2842 0.01157,-18.5684 -0.01068,-27.8526 0,0 2.820719,0 2.820719,0 z" />
    <path
       style="fill:#000000;fill-opacity:1;stroke:#000000;stroke-width:10;stroke-miterlimit:4;stroke-opacity:1;stroke-dasharray:none"
       id="path3019"
       d="m -31.128076,1179.44 c 5.807778,-4.3964 11.985047,-8.1672 18.746326,-10.8871 6.3081335,-1.0449 9.4767241,-2.5879 9.292091,4.8787 -1.0045957,6.5526 -4.3916626,12.3123 -7.539136,18.0249 -2.581259,4.8833 -6.15374,9.116 -8.89478,13.8925 -1.858808,2.9656 -0.271435,3.5424 2.552232,3.8563 4.716089,0.248 9.4441588,0.1613 14.1648674,0.1402 4.3994749,-0.025 8.7989921,-0.042 13.1985146,-0.057 1.039391,-0.4513 3.193963,0.4398 0.931076,0.4384 0,0 2.811814,-0.4453 2.811814,-0.4453 l 0,0 c 2.278067,-2e-4 0.100464,0.8943 -0.938477,0.4502 -4.4074539,0.011 -8.8148914,0.028 -13.22229279,0.053 -6.58275781,0.03 -13.17626221,0.1707 -19.75182621,-0.1705 -2.963481,-0.4086 -4.435416,-1.4463 -2.573002,-4.4125 2.740305,-4.7808 6.319552,-9.0077 8.91463,-13.8866 3.125029,-5.6736 6.5137934,-11.3826 7.5195009,-17.8899 0.016494,-0.7882 0.1749335,-2.7807 -0.1513294,-3.7054 -0.1245733,-0.3531 -0.8259975,-0.5969 -0.6409309,-0.9224 0.2417375,-0.4252 1.7974453,-0.1296 1.4052629,-0.4218 -0.4404741,-0.3282 -4.1852192,0.4941 -4.2819076,0.5121 -6.7653979,2.6679 -12.9338909,6.4147 -18.7259889,10.8054 0,0 -2.816644,-0.2531 -2.816644,-0.2531 z" />
    <path
       style="fill:#000000;fill-opacity:1;stroke:#000000;stroke-width:10;stroke-miterlimit:4;stroke-opacity:1;stroke-dasharray:none"
       id="path3021"
       d="m -438.58736,1097.6117 c 0.38104,8.1821 -0.78871,16.2794 -1.72974,24.381 -0.56543,4.9194 -0.9277,9.8571 -1.085,14.8056 -0.39255,1.6475 -1.05501,3.5593 -2.73866,4.2394 -0.22259,0.041 -0.44518,0.082 -0.66776,0.1234 0,0 -2.81963,-0.4023 -2.81963,-0.4023 l 0,0 c 0.22057,-0.027 0.44114,-0.055 0.66171,-0.082 1.69379,-0.3569 2.33081,-2.4133 2.73004,-3.8876 0.16939,-4.9565 0.53799,-9.9017 1.11145,-14.8288 0.94834,-8.0898 2.13708,-16.1763 1.71231,-24.3484 0,0 2.82528,0 2.82528,0 z" />
    <path
       style="fill:#000000;fill-opacity:1;stroke:#000000;stroke-width:10;stroke-miterlimit:4;stroke-opacity:1;stroke-dasharray:none"
       id="path3023"
       d="m -479.35019,1160.3936 c 8.03429,-1.3457 16.16909,-1.843 24.29608,-2.2084 8.78506,-1.0359 17.55306,-2.1012 26.38317,-2.6771 5.77674,-0.642 11.44011,-1.976 17.18172,-2.8469 1.75527,-0.1911 7.21847,-1.505 6.45374,1.4845 0,0 -2.84938,-0.088 -2.84938,-0.088 l 0,0 c 0.10424,-0.251 -0.3235,-0.669 -0.0912,-0.8102 2.91242,-1.7699 1.55589,0.047 -0.70997,-0.1854 -5.75712,0.855 -11.43222,2.186 -17.21647,2.8658 -8.83202,0.5647 -17.60395,1.6061 -26.38585,2.6823 -8.11438,0.3568 -16.23816,0.8381 -24.26026,2.1795 0,0 -2.80154,-0.3965 -2.80154,-0.3965 z" />
    <path
       style="fill:#000000;fill-opacity:1;stroke:#000000;stroke-width:10;stroke-miterlimit:4;stroke-opacity:1;stroke-dasharray:none"
       id="path3027"
       d="m -392.42567,1221.1546 c -8.04149,-0.3726 -15.98029,0.2466 -23.94374,1.2746 -6.44689,1.1344 -12.62014,3.2693 -18.88644,5.0816 -4.27849,1.8409 -8.60925,3.4741 -13.1656,4.4617 -4.38321,0.8582 -7.68877,0.6133 -4.92491,-4.3013 2.83708,-3.8475 6.47851,-6.9835 9.56156,-10.6192 3.4999,-4.3198 7.50527,-8.212 10.69532,-12.7827 1.51147,-1.353 1.72126,-5.288 3.903,-5.7136 1.20628,0.4429 2.54666,0.6203 3.61884,1.3286 1.22004,0.806 1.28593,8.3151 1.3226,9.7005 0.0593,5.924 -0.004,11.8486 -0.027,17.7728 0.67208,6.2341 1.74241,12.4068 2.30727,18.6551 0.40332,5.1277 0.81011,10.1984 -0.28042,15.25 0,0 -2.82804,-0.061 -2.82804,-0.061 l 0,0 c 1.10373,-5.0196 0.6866,-10.0655 0.29095,-15.1639 -0.56523,-6.2568 -1.63916,-12.4379 -2.30248,-18.6816 0.0228,-5.9212 0.0763,-11.843 0.0146,-17.7641 -0.0601,-2.1737 -0.0687,-4.3747 -0.42082,-6.5277 -0.0908,-0.5552 -0.19897,-1.1099 -0.36156,-1.6485 -0.14172,-0.4694 -0.80412,-0.9468 -0.54825,-1.3652 0.39794,-0.6506 1.35296,-0.7043 2.02944,-1.0565 -1.97144,-0.3007 -2.64585,4.3989 -3.89839,5.4462 -3.17371,4.5937 -7.19956,8.4809 -10.70205,12.8087 -3.05444,3.6395 -6.67694,6.7637 -9.54067,10.5691 -0.35631,0.613 -1.07623,1.7013 -1.18878,2.4528 -0.0469,0.3132 0.38516,0.7324 0.14509,0.939 -2.14977,1.8499 -3.21186,0.6115 0.32767,0.3779 4.56618,-0.957 8.9171,-2.5468 13.17937,-4.4399 6.27984,-1.7968 12.45082,-3.9599 18.90159,-5.1226 7.96005,-1.0314 15.89085,-1.6991 23.93136,-1.3131 0,0 2.79049,0.442 2.79049,0.442 z" />
    <flowRoot
       xml:space="preserve"
       id="flowRoot2907"
       style="font-size:40px;font-style:normal;font-weight:normal;fill:#000000;fill-opacity:1;stroke:none;font-family:Bitstream Vera Sans"
       transform="matrix(1.1931073,1.7928827,-1.7928827,1.1931073,-268.16975,-3821.36)"><flowRegion
         id="flowRegion2909"><rect
           id="rect2911"
           width="265.71429"
           height="282.85715"
           x="1911.4286"
           y="634.53015" /></flowRegion><flowPara
         id="flowPara2913"></flowPara></flowRoot>    <flowRoot
       xml:space="preserve"
       id="flowRoot2907-0"
       style="font-size:40px;font-style:normal;font-weight:normal;fill:#000000;fill-opacity:1;stroke:none;font-family:Bitstream Vera Sans"
       transform="matrix(0.93066401,1.9421117,-1.9421117,0.93066401,-133.47546,-3934.0751)"><flowRegion
         id="flowRegion2909-5"><rect
           id="rect2911-9"
           width="265.71429"
           height="282.85715"
           x="1911.4286"
           y="634.53015" /></flowRegion><flowPara
         id="flowPara2913-4"></flowPara></flowRoot>    <flowRoot
       xml:space="preserve"
       id="flowRoot2907-0-4"
       style="font-size:40px;font-style:normal;font-weight:normal;fill:#000000;fill-opacity:1;stroke:none;font-family:Bitstream Vera Sans"
       transform="matrix(0.63767897,2.0570122,-2.0570122,0.63767897,47.930374,-3931.3244)"><flowRegion
         id="flowRegion2909-5-7"><rect
           id="rect2911-9-7"
           width="265.71429"
           height="282.85715"
           x="1911.4286"
           y="634.53015" /></flowRegion><flowPara
         id="flowPara2913-4-5"></flowPara></flowRoot>    <flowRoot
       xml:space="preserve"
       id="flowRoot2907-4"
       style="font-size:40px;font-style:normal;font-weight:normal;fill:#000000;fill-opacity:1;stroke:none;font-family:Bitstream Vera Sans"
       transform="matrix(1.121427,-1.8385687,1.8385687,1.121427,-2853.7878,3914.7321)"><flowRegion
         id="flowRegion2909-8"><rect
           id="rect2911-1"
           width="265.71429"
           height="282.85715"
           x="1911.4286"
           y="634.53015" /></flowRegion><flowPara
         id="flowPara2913-2"
         style="font-style:normal;font-variant:normal;font-weight:normal;font-stretch:normal;font-family:Arial;-inkscape-font-specification:Arial"></flowPara></flowRoot>    <flowRoot
       xml:space="preserve"
       id="flowRoot2907-4-9"
       style="font-size:40px;font-style:normal;font-weight:normal;fill:#000000;fill-opacity:1;stroke:none;font-family:Bitstream Vera Sans"
       transform="matrix(1.121427,-1.8385687,1.8385687,1.121427,-3368.3103,3962.7727)"><flowRegion
         id="flowRegion2909-8-6"><rect
           id="rect2911-1-0"
           width="265.71429"
           height="282.85715"
           x="1911.4286"
           y="634.53015" /></flowRegion><flowPara
         id="flowPara2913-2-9"
         style="font-style:normal;font-variant:normal;font-weight:normal;font-stretch:normal;font-family:Arial;-inkscape-font-specification:Arial"></flowPara></flowRoot>    <flowRoot
       xml:space="preserve"
       id="flowRoot2907-4-5"
       style="font-size:40px;font-style:normal;font-weight:normal;fill:#000000;fill-opacity:1;stroke:none;font-family:Bitstream Vera Sans"
       transform="matrix(1.121427,-1.8385687,1.8385687,1.121427,-3932.3103,4009.9155)"><flowRegion
         id="flowRegion2909-8-4"><rect
           id="rect2911-1-3"
           width="265.71429"
           height="282.85715"
           x="1911.4286"
           y="634.53015" /></flowRegion><flowPara
         id="flowPara2913-2-6"
         style="font-style:normal;font-variant:normal;font-weight:normal;font-stretch:normal;font-family:Arial;-inkscape-font-specification:Arial"></flowPara></flowRoot>  </g>
</svg>
