<?xml version="1.0" encoding="UTF-8" standalone="no"?>
<!-- Created with Inkscape (http://www.inkscape.org/) -->
<svg
   xmlns:dc="http://purl.org/dc/elements/1.1/"
   xmlns:cc="http://creativecommons.org/ns#"
   xmlns:rdf="http://www.w3.org/1999/02/22-rdf-syntax-ns#"
   xmlns:svg="http://www.w3.org/2000/svg"
   xmlns="http://www.w3.org/2000/svg"
   xmlns:sodipodi="http://sodipodi.sourceforge.net/DTD/sodipodi-0.dtd"
   xmlns:inkscape="http://www.inkscape.org/namespaces/inkscape"
   width="1688.3481"
   height="1016.1026"
   id="svg2"
   sodipodi:version="0.32"
   inkscape:version="0.46+devel"
   version="1.0"
   sodipodi:docname="c8d1.svg"
   inkscape:output_extension="org.inkscape.output.svg.inkscape">
  <defs
     id="defs4">
    <inkscape:perspective
       sodipodi:type="inkscape:persp3d"
       inkscape:vp_x="0 : 526.18109 : 1"
       inkscape:vp_y="0 : 1000 : 0"
       inkscape:vp_z="744.09448 : 526.18109 : 1"
       inkscape:persp3d-origin="372.04724 : 350.78739 : 1"
       id="perspective10" />
    <inkscape:perspective
       id="perspective3354"
       inkscape:persp3d-origin="0.5 : 0.33333333 : 1"
       inkscape:vp_z="1 : 0.5 : 1"
       inkscape:vp_y="0 : 1000 : 0"
       inkscape:vp_x="0 : 0.5 : 1"
       sodipodi:type="inkscape:persp3d" />
    <inkscape:perspective
       id="perspective3385"
       inkscape:persp3d-origin="0.5 : 0.33333333 : 1"
       inkscape:vp_z="1 : 0.5 : 1"
       inkscape:vp_y="0 : 1000 : 0"
       inkscape:vp_x="0 : 0.5 : 1"
       sodipodi:type="inkscape:persp3d" />
    <inkscape:perspective
       id="perspective3416"
       inkscape:persp3d-origin="0.5 : 0.33333333 : 1"
       inkscape:vp_z="1 : 0.5 : 1"
       inkscape:vp_y="0 : 1000 : 0"
       inkscape:vp_x="0 : 0.5 : 1"
       sodipodi:type="inkscape:persp3d" />
    <inkscape:perspective
       id="perspective3447"
       inkscape:persp3d-origin="0.5 : 0.33333333 : 1"
       inkscape:vp_z="1 : 0.5 : 1"
       inkscape:vp_y="0 : 1000 : 0"
       inkscape:vp_x="0 : 0.5 : 1"
       sodipodi:type="inkscape:persp3d" />
    <inkscape:perspective
       id="perspective3447-6"
       inkscape:persp3d-origin="0.5 : 0.33333333 : 1"
       inkscape:vp_z="1 : 0.5 : 1"
       inkscape:vp_y="0 : 1000 : 0"
       inkscape:vp_x="0 : 0.5 : 1"
       sodipodi:type="inkscape:persp3d" />
  </defs>
  <sodipodi:namedview
     id="base"
     pagecolor="#ffffff"
     bordercolor="#666666"
     borderopacity="1.0"
     inkscape:pageopacity="0.0"
     inkscape:pageshadow="2"
     inkscape:zoom="0.35"
     inkscape:cx="427.00836"
     inkscape:cy="408.86629"
     inkscape:document-units="px"
     inkscape:current-layer="layer1"
     showgrid="false"
     inkscape:window-width="1280"
     inkscape:window-height="708"
     inkscape:window-x="-5"
     inkscape:window-y="-3" />
  <metadata
     id="metadata7">
    <rdf:RDF>
      <cc:Work
         rdf:about="">
        <dc:format>image/svg+xml</dc:format>
        <dc:type
           rdf:resource="http://purl.org/dc/dcmitype/StillImage" />
        <dc:title></dc:title>
      </cc:Work>
    </rdf:RDF>
  </metadata>
  <g
     inkscape:label="Layer 1"
     inkscape:groupmode="layer"
     id="layer1"
     transform="translate(52.00836,74.874145)">
    <path
       style="fill:#000000;fill-opacity:1;stroke:#000000;stroke-width:2;stroke-linecap:round;stroke-miterlimit:4;stroke-opacity:1;stroke-dasharray:none"
       id="path2872"
       d="m 1131.9742,6.8909788 c -12.7509,-0.3802216 -24.7876,3.8566482 -36.4703,8.4606052 -15.6499,6.227878 -28.6843,15.992859 -41.8177,26.541297 -11.6739,9.864957 -22.6957,20.86813 -28.3409,35.293884 -2.5313,10.80393 2.5301,15.452413 11.4196,20.296805 12.2514,5.18972 25.6084,6.81357 38.7459,8.05933 11.0138,1.00604 22.0773,1.31814 33.1302,1.54487 1.1888,0.71887 7.7378,-1.2753 8.4777,0.56157 0.238,0.59103 -0.4615,1.95906 -0.6476,2.40602 -0.9023,1.6566 -2.2053,2.53046 -3.7319,3.57164 0,0 -0.4647,0.3326 -0.4647,0.3326 l 0,0 c -1.7753,0.86386 -3.5269,1.72778 -5.4083,2.3398 -4.286,1.53966 -8.1348,2.08021 -12.7202,1.23891 -10.8389,-0.57821 -21.6881,-1.04195 -32.4907,-2.15635 -12.9595,-1.59443 -26.2624,-3.26723 -37.9736,-9.44162 -9.0975,-6.092842 -13.2945,-12.039035 -10.1785,-23.27951 6.1314,-14.86642 17.3349,-26.348967 29.5865,-36.516526 18.4735,-14.673195 38.3634,-27.667702 60.1726,-36.8802278 11.7848,-4.4924066 23.964,-8.63368849 36.7644,-8.1399416 0,0 -8.0525,5.7668442 -8.0525,5.7668442 z" />
    <path
       style="fill:#000000;fill-opacity:1;stroke:#000000;stroke-width:2;stroke-linecap:round;stroke-miterlimit:4;stroke-opacity:1;stroke-dasharray:none"
       id="path2874"
       d="m 1461.5429,18.307942 c 1.5277,14.688557 0.2146,29.432933 -1.4787,44.037821 -2.3267,17.810812 -6.1236,35.400267 -11.0949,52.651707 -1.8578,4.12847 -4.7999,17.13245 -9.9793,18.78503 -0.7081,0.22594 -1.4864,0.0272 -2.2295,0.0408 0,0 0.4837,-0.30422 0.4837,-0.30422 l 0,0 c -0.2325,0.41732 -0.4359,0.85228 -0.6976,1.25195 -0.073,0.11147 0.1006,-0.24854 0.1262,-0.3793 0.1113,-0.56821 0.2078,-1.13971 0.284,-1.7137 0.5912,-4.45192 1.0055,-8.92155 2.56,-13.1893 4.8431,-17.30325 9.0492,-34.80133 11.4345,-52.634492 1.7665,-14.552057 3.3007,-29.268682 1.7478,-43.919091 0,0 8.8438,-4.627225 8.8438,-4.627225 z" />
    <path
       style="fill:#000000;fill-opacity:1;stroke:#000000;stroke-width:2;stroke-linecap:round;stroke-miterlimit:4;stroke-opacity:1;stroke-dasharray:none"
       id="path2876"
       d="m 1470.4375,26.48867 c 11.044,-2.098356 22.2099,-2.709957 33.4144,-2.119731 13.6085,1.190215 24.3274,5.131785 34.3705,14.432568 8.8283,10.540744 8.7951,19.356449 4.1891,31.765059 -7.4713,15.056981 -20.9721,25.123471 -34.401,34.537324 -19.1957,12.65179 -39.47,23.43271 -60.7111,32.17872 -6.6231,2.64879 -13.3897,4.90841 -20.1423,7.19685 0,0 0.4503,-0.35185 0.4503,-0.35185 l 0,0 c 8.4641,-3.28848 16.7601,-6.91604 24.8904,-10.97443 21.9392,-10.86098 24.663,-11.90512 41.669,-22.60267 13.7852,-9.47484 27.6218,-19.546475 36.0796,-34.372178 5.2323,-11.580559 6.72,-20.882741 -1.2173,-31.717821 -9.5639,-9.547087 -19.7794,-12.994187 -33.1102,-14.391975 -11.0674,-0.592265 -22.1373,-0.145434 -33.0213,2.13328 0,0 7.5399,-5.713146 7.5399,-5.713146 z" />
    <path
       style="fill:#000000;fill-opacity:1;stroke:#000000;stroke-width:2;stroke-linecap:round;stroke-miterlimit:4;stroke-opacity:1;stroke-dasharray:none"
       id="path2878"
       d="m 1095.6489,339.10752 c -10.3934,2.38214 -20.2452,6.53336 -29.8755,11.02217 -13.1385,6.62977 -17.0404,9.82172 -30.4064,21.51484 -12.3405,11.04114 -21.7391,24.38814 -28.2095,39.55264 -2.6457,8.35415 -5.3803,18.64694 0.01,26.60322 0.7772,1.14782 1.857,2.05849 2.7855,3.08774 9.9245,6.58585 21.6939,2.59853 32.0316,-0.85774 9.6229,-3.68788 18.8752,-8.30057 27.8345,-13.37856 2.0954,-1.18768 8.3982,-4.71145 6.235,-3.65216 -3.3592,1.64495 -6.5529,3.60817 -9.8294,5.41225 4.7677,-3.54734 13.0517,-7.72615 11.1382,-14.8097 -3.5155,-6.03749 -10.3156,-8.81428 -16.5638,-11.16848 -5.7992,-1.47067 -11.962,-3.36887 -18.0206,-2.87869 -0.1554,0.10006 -0.6208,0.40136 -0.4661,0.30019 5.4746,-3.58061 10.7749,-7.44354 16.426,-10.73854 0.062,-0.0362 11.4336,-1.24382 12.2793,-1.36813 6.31,-0.49606 12.6769,-3.27046 19.0145,-2.12047 5.9876,4.01514 4.3001,12.91098 3.9339,19.09046 -1.1148,13.16208 -2.7052,26.25436 -6.5408,38.91769 -2.1388,6.87143 -4.4868,13.53335 -8.4158,19.57101 0,0 -0.513,0.25175 -0.513,0.25175 l 0,0 c -3.5429,-3.8836 -2.7445,-8.63094 -3.617,-13.61778 -1.3089,-12.29293 1.318,-24.44328 2.2725,-36.69067 0.2873,-4.15811 2.3001,-14.40888 -2.3761,-16.76599 -6.1579,-0.59442 -12.233,1.78939 -18.3366,2.28029 -3.4185,0.48982 -6.8585,1.06627 -10.32,1.14366 -9.5367,0.2132 5.1573,-10.6137 11.6792,-11.23352 6.4095,0.12355 12.756,1.08313 18.8285,3.20782 6.9238,2.60346 13.8684,5.94903 17.8625,12.49041 2.6903,9.22712 -4.9852,12.78318 -11.5032,17.63366 -17.4703,10.32379 -34.7688,21.36403 -54.0046,28.19237 -10.4958,3.11714 -22.1166,6.17001 -31.13375,-1.96356 -0.8837,-1.20077 -1.94504,-2.2892 -2.65111,-3.6023 -4.74655,-8.82734 -2.07721,-19.4311 0.94394,-28.27325 6.70522,-15.51088 16.32842,-29.12653 28.97602,-40.44873 14.7111,-12.85138 30.9931,-23.58966 48.6521,-32.03121 9.7866,-4.42362 19.7545,-8.44257 30.2079,-11.02416 0,0 -8.3245,6.35147 -8.3245,6.35147 z" />
    <path
       style="fill:#000000;fill-opacity:1;stroke:#000000;stroke-width:2;stroke-linecap:round;stroke-miterlimit:4;stroke-opacity:1;stroke-dasharray:none"
       id="path2880"
       d="m 1448.9487,293.53927 c 0.3408,12.60297 -0.2414,25.20201 -0.8657,37.78604 -0.8303,17.30934 -1.6455,34.6194 -2.5617,51.9248 -0.5767,12.06588 -1.6633,24.09089 -2.972,36.09554 -0.2494,2.0919 -1.7261,9.82354 -4.4728,10.49103 -0.8066,0.19603 -1.6599,-0.0302 -2.4899,-0.0453 0,0 0.5093,-0.25898 0.5093,-0.25898 l 0,0 c -0.8372,0.82429 -1.5785,1.75905 -2.5117,2.47287 -2.3451,1.7938 -3.9379,-6.33874 -2.7859,-6.798 0.7308,-11.86453 1.3742,-23.73402 2.0744,-35.60073 1.0114,-17.31587 1.8783,-34.63877 2.6729,-51.96556 0.5352,-12.59567 1.0925,-25.19131 1.0861,-37.8017 0,0 12.317,-6.29997 12.317,-6.29997 z" />
    <path
       style="fill:#000000;fill-opacity:1;stroke:#000000;stroke-width:2;stroke-linecap:round;stroke-miterlimit:4;stroke-opacity:1;stroke-dasharray:none"
       id="path2882"
       d="m 1503.2694,314.26884 c 2.7504,10.45703 4.637,21.1085 6.2071,31.79833 1.9706,13.4325 3.0441,26.98847 3.9022,40.53283 0.5608,9.62519 0.9639,19.30363 -0.3994,28.87383 -1.8769,10.15852 -4.9285,9.1917 -15.4796,13.68033 0.5597,-3.20133 1.2833,-6.30671 1.5492,-9.54924 0,0 0.5044,-0.26847 0.5044,-0.26847 l 0,0 c 1.3638,2.5546 2.8287,4.70887 6.0413,4.43645 -14.0059,8.42713 -8.6053,7.42623 -7.7912,-0.81572 1.1478,-9.48833 1.067,-19.02837 0.5033,-28.56304 -0.7781,-13.62763 -1.8499,-27.22907 -3.1196,-40.81984 -1.1515,-10.99441 -2.0457,-22.02274 -3.8313,-32.94169 0,0 11.9136,-6.36377 11.9136,-6.36377 z" />
    <path
       style="fill:#000000;fill-opacity:1;stroke:#000000;stroke-width:2;stroke-linecap:round;stroke-miterlimit:4;stroke-opacity:1;stroke-dasharray:none"
       id="path2884"
       d="m 1445.7178,367.4849 c 10.3196,0.59057 20.6535,0.87518 30.9821,1.26049 9.1106,0.35878 18.2143,0.88018 27.2413,2.19085 4.047,0.62206 6.9091,1.08234 3.8437,5.3361 -0.5114,0.34212 -1.0228,0.68425 -1.5342,1.02638 0,0 -2.239,0.86907 -2.239,0.86907 l 0,0 c -0.2408,0.17214 -0.4817,0.34427 -0.7225,0.5164 -3.7358,1.50961 -7.7692,1.66577 -11.7094,0.97674 -8.8803,-1.16121 -17.8003,-1.85057 -26.7388,-2.39945 -9.9117,-0.73722 -19.8319,-1.35837 -29.7373,-2.17953 0,0 10.6141,-7.59705 10.6141,-7.59705 z" />
    <path
       style="fill:#000000;fill-opacity:1;stroke:#000000;stroke-width:2;stroke-linecap:round;stroke-miterlimit:4;stroke-opacity:1;stroke-dasharray:none"
       id="path2886"
       d="m 1038.3706,734.80718 c 2.7106,15.61809 3.5346,31.47496 4.0915,47.29053 0.3101,16.82948 -0.055,33.6618 -0.3672,50.48847 -0.4897,10.65594 0.2618,21.627 -3.7758,31.69211 -2.008,3.67383 -1.3727,3.98868 -5.603,3.33763 0,0 0.5139,-0.24987 0.5139,-0.24987 l 0,0 c -2.7401,2.8316 -3.5265,5.5579 -6.3813,2.71142 -4.7787,-8.44932 -1.3577,-19.49936 -2.1505,-28.6758 0.434,-16.82244 0.864,-33.65278 0.5734,-50.4816 -0.3666,-15.77287 -1.1033,-31.57116 -3.7017,-47.1603 0,0 16.8007,-8.95259 16.8007,-8.95259 z" />
    <path
       style="fill:#000000;fill-opacity:1;stroke:#000000;stroke-width:2;stroke-linecap:round;stroke-miterlimit:4;stroke-opacity:1;stroke-dasharray:none"
       id="path2888"
       d="m 1128.1085,777.37254 c -9.1859,7.47482 -19.0502,14.0612 -29.0026,20.45892 -8.7636,5.55878 -17.8564,10.57354 -26.8583,15.7278 -3.1387,1.79716 6.2168,-3.70488 9.4163,-5.3914 1.5655,-0.82517 -2.8697,2.0871 -4.1604,3.29767 -2.7054,3.99138 4.0337,7.11788 6.7446,8.91802 7.9806,5.26722 16.4862,9.65165 24.9636,14.04643 8.003,4.21056 16.3112,7.76428 24.7227,11.06249 4.4952,1.58403 9.9011,2.2658 10.8761,7.64039 -0.3495,4.6648 -4.4402,7.09488 -8.1009,9.22467 -4.1568,1.31072 -16.2751,11.76918 -10.6353,1.89241 0,0 0.4957,-0.28432 0.4957,-0.28432 l 0,0 c 8.3897,-0.69022 -0.5089,2.27198 -5.2223,4.46903 -1.0371,-0.10916 2.5295,-3.74174 2.8179,-4.63172 0.6762,-3.68413 -5.9383,-4.93956 -8.208,-6.33648 -7.9281,-3.75252 -15.7112,-7.80536 -23.2641,-12.27141 -8.045,-4.79387 -15.9879,-9.78118 -23.6602,-15.15454 -3.8065,-3.00858 -9.7329,-6.88457 -6.6571,-12.33739 5.9747,-5.94 14.6035,-9.67641 21.5832,-13.59821 2.9103,-1.63521 -5.7632,3.37029 -8.6341,5.07358 -3.3947,2.01409 14.3275,-8.35548 10.1735,-6.06027 10.8035,-6.73517 21.4904,-13.66885 31.6593,-21.34189 0,0 10.9504,-4.40378 10.9504,-4.40378 z" />
    <path
       style="fill:#000000;fill-opacity:1;stroke:#000000;stroke-width:2;stroke-linecap:round;stroke-miterlimit:4;stroke-opacity:1;stroke-dasharray:none"
       id="path2890"
       d="m 1461.8274,683.94791 c 4.9617,8.38781 8.3888,17.37331 10.9645,26.73695 3.2337,13.4837 2.7816,27.31224 1.5914,41.00677 -1.4014,13.77931 -4.9299,27.14714 -9.079,40.31446 -2.8042,8.2831 -6.1024,16.40912 -10.1727,24.15232 -0.9241,2.09606 -3.0341,5.30488 -3.4009,7.11214 3.7285,-1.08557 8.0472,-1.27982 11.9659,-1.76161 9.4335,-1.18746 18.9338,-1.69422 28.4341,-1.89204 8.9462,-0.0618 17.8236,0.88646 26.6594,2.17927 4.2966,1.10065 9.4218,0.70953 13.2883,3.1483 -1.0597,4.82737 -3.5921,4.42819 -8.4878,5.80967 0,0 0.4766,-0.31522 0.4766,-0.31522 l 0,0 c -1.2998,1.0057 -2.7124,1.88049 -3.8994,3.01709 -0.4399,0.42124 -0.4615,1.17122 -0.9077,1.58581 -0.7532,0.69989 -2.9538,1.16802 -3.8042,1.40272 -4.8729,-0.087 -9.5801,-1.59525 -14.4066,-2.15037 -8.7072,-1.28565 -17.4706,-2.14905 -26.2869,-1.99254 -9.4298,0.27157 -18.853,0.81798 -28.219,1.98782 -3.9857,0.47334 -9.4886,2.11914 -12.9056,-0.61531 -1.517,-3.57149 2.5542,-6.51283 3.8801,-9.61932 4.3217,-7.69237 7.9327,-15.78341 10.8772,-24.10031 4.4843,-13.04537 8.101,-26.42456 9.7018,-40.15893 1.4096,-13.53929 1.9686,-27.21686 -0.9873,-40.61829 -2.2064,-9.30077 -5.4987,-18.23611 -10.6626,-26.3431 0,0 15.3804,-8.88628 15.3804,-8.88628 z" />
    <path
       style="fill:#000000;fill-opacity:1;stroke:#000000;stroke-width:2;stroke-linecap:round;stroke-miterlimit:4;stroke-opacity:1;stroke-dasharray:none"
       id="path2892"
       d="m 177.68911,136.11736 c -5.59303,10.68457 -12.92126,20.09222 -21.43092,28.57554 -10.60979,9.05921 -22.83762,16.54611 -35.987,21.31578 -7.95615,2.88593 -11.00128,3.28164 -19.37542,5.16767 -20.494172,3.71995 -41.546387,4.41289 -62.181279,1.34125 -4.431076,-0.65959 -8.804802,-1.65936 -13.207202,-2.48904 -21.0032416,-5.05676 -40.752676,-14.7452 -54.850909,-31.5392 -2.713604,-3.23249 -4.935372,-6.84781 -7.403058,-10.27171 -12.060929,-20.53737 -16.078294,-43.9536 -13.530663,-67.528169 0.572798,-5.300412 1.732381,-10.520871 2.598571,-15.781306 6.768899,-28.676695 20.345845,-55.2526641 39.3737427,-77.755318 3.8567063,-4.560994 8.13989089,-8.743545 12.2098363,-13.115317 20.049251,-18.425013 43.616074,-34.245491 69.84254,-42.374709 13.682457,-4.241046 17.540252,-3.968763 31.658971,-5.487405 26.02729,-0.656266 51.9069,5.186283 74.40737,18.562205 4.14099,2.461708 7.96123,5.426793 11.94185,8.140189 17.52306,14.055377 30.17893,32.726034 34.5013,54.9862813 0.81883,4.2169567 1.01963,8.5307187 1.52944,12.7960777 0.78527,22.439442 -4.9739,44.370493 -15.66652,64.065269 -2.18375,4.022248 -4.77566,7.809094 -7.16349,11.713642 -12.13463,17.65783 -27.34149,31.85796 -44.92071,43.88754 0,0 -0.5312,0.2106 -0.5312,0.2106 l 0,0 c 13.39492,-10.7749 24.50865,-23.68195 33.12929,-38.62388 13.33672,-23.643622 22.77473,-46.50193 21.7623,-74.233338 -0.47818,-4.201044 -0.66807,-8.445016 -1.43456,-12.603131 -4.04291,-21.9322542 -16.35538,-40.433412 -33.58283,-54.291589 -3.92985,-2.674859 -7.69951,-5.601733 -11.78955,-8.024578 -22.35407,-13.242044 -48.07825,-18.74488 -73.887518,-17.879569 -14.0284,1.6428 -17.81459,1.401938 -31.384011,5.748622 -5.195799,1.664368 -10.132606,4.051154 -15.237943,5.975207 -0.801477,0.302053 -1.746344,0.245167 -2.472513,0.699346 -14.23136,8.900937 -14.803475,10.247355 -27.582754,21.249692 -4.094721,4.333098 -8.4035595,8.473435 -12.2841625,12.999293 -19.1131555,22.2912367 -32.8789095,48.661441 -39.8128305,77.193949 -0.894274,5.215033 -2.079044,10.388507 -2.68282,15.645097 -2.673173,23.273128 1.113358,46.428319 12.892585,66.801649 2.435445,3.36343 4.627794,6.91706 7.306336,10.0903 13.8450728,16.40214 33.279695,25.87703 53.676381,31.35135 4.232677,0.90826 8.432291,1.98725 12.698031,2.72479 19.827906,3.42819 40.20078,3.21204 60.001439,-0.21198 8.26687,-1.84158 11.12647,-2.174 18.96939,-5.07573 2.77974,-1.02846 5.39478,-2.46935 8.17258,-3.50303 0.33662,-0.12526 -1.07958,0.93828 -0.77384,0.7498 6.83129,-4.21129 6.47865,-4.22898 12.63127,-9.14167 8.8274,-8.47748 16.64928,-17.83286 22.39574,-28.71298 0,0 7.47474,-3.34749 7.47474,-3.34749 z" />
    <path
       style="fill:#000000;fill-opacity:1;stroke:#000000;stroke-width:2;stroke-linecap:round;stroke-miterlimit:4;stroke-opacity:1;stroke-dasharray:none"
       id="path2894"
       d="m 506.08196,185.4133 c -13.70203,-1.32517 -27.27634,-3.65349 -40.79996,-6.17659 -20.99123,-3.72471 -40.9215,-10.84778 -59.85693,-20.50175 -15.60117,-9.12252 -29.55953,-21.2657 -38.51534,-37.18048 -1.76457,-3.1357 -3.09757,-6.4954 -4.64636,-9.74311 -7.02109,-18.762752 -6.68485,-38.61624 -0.56208,-57.594576 1.35372,-4.19605 3.17785,-8.2255 4.76678,-12.33825 10.3848,-22.045392 26.1818,-40.89458729 45.4763,-55.71878 3.98726,-3.063458 8.23632,-5.770201 12.35447,-8.655302 25.39721,-16.318805 52.55984,-29.074583 83.18084,-29.953416 4.80345,-0.13786 9.60653,0.288229 14.4098,0.432344 23.95433,2.376834 46.80551,10.766642 66.79419,24.173939 3.85414,2.585142 7.45342,5.531349 11.18014,8.297023 16.24476,13.7359354 30.23612,30.639999 35.85526,51.568757 1.02206,3.806701 1.43264,7.751764 2.14895,11.627646 1.73907,20.418321 -3.7673,40.241483 -15.18094,57.240725 -2.38432,3.55116 -5.20604,6.78824 -7.80906,10.18236 -15.02867,16.81537 -34.39263,28.17179 -54.7071,37.58954 -7.34012,3.40287 -16.57658,5.18068 -24.35052,7.03333 -17.49477,2.71721 -8.60205,1.51348 -26.68214,3.58171 0,0 0.45744,-0.34247 0.45744,-0.34247 l 0,0 c 20.24305,-3.47259 10.12938,-1.34893 30.33432,-6.40284 27.37482,-8.87338 2.31628,-0.28073 28.81366,-10.72924 0.44405,-0.1751 1.0121,0.0838 1.42313,-0.15893 10.91196,-6.44254 20.70395,-14.45901 29.16205,-23.89835 2.58664,-3.31096 5.37246,-6.47554 7.75993,-9.93287 11.53619,-16.705724 17.59628,-36.207049 16.41592,-56.526891 -0.63696,-3.82426 -0.98672,-7.707596 -1.91087,-11.47278 -5.08788,-20.728934 -18.78118,-37.5745681 -34.76312,-51.105878 -3.69048,-2.730826 -7.25299,-5.643649 -11.07143,-8.192479 -19.84401,-13.245981 -42.55294,-21.386832 -66.31214,-23.536254 -4.79453,-0.0776 -9.59231,-0.425557 -14.38359,-0.232795 -14.72023,0.592222 -29.13159,3.835895 -42.82958,9.214118 -12.98127,5.096824 -16.58597,10.285852 -13.41576,5.831311 -4.13087,2.84016 -8.3935,5.497623 -12.39262,8.520479 -19.16921,14.4896358 -34.94436,33.012179 -45.26563,54.756046 -1.59357,4.04378 -3.43142,7.999625 -4.78069,12.13134 -6.04346,18.506239 -6.29926,38.044821 0.45145,56.363823 1.48236,3.20184 2.76603,6.50338 4.44708,9.6055 8.49464,15.67561 21.93841,27.82118 36.82724,37.28058 17.84593,10.23084 36.79665,17.86908 57.04822,21.90823 13.45213,2.87205 27.02967,5.28067 40.78988,6.02312 0,0 -9.86119,7.03211 -9.86119,7.03211 z" />
    <path
       style="fill:#000000;fill-opacity:1;stroke:#000000;stroke-width:2;stroke-linecap:round;stroke-miterlimit:4;stroke-opacity:1;stroke-dasharray:none"
       id="path2896"
       d="m 235.6706,409.41568 c 2.40665,12.04052 4.10486,24.17304 5.19728,36.39932 1.59971,16.14721 -0.73298,31.87621 -5.73328,47.19772 -6.61707,17.48751 -17.29278,28.60479 -32.21999,39.30673 -22.56429,15.26479 -46.9457,20.77057 -73.44739,24.4022 -22.51758,2.12473 -45.620763,2.45151 -67.750446,-2.94437 -4.205191,-1.02535 -8.293466,-2.4816 -12.440199,-3.72239 -19.462292,-7.04823 -36.719024,-19.02378 -47.4658933,-37.03952 -2.08063127,-3.48792 -3.6569808,-7.25291 -5.4854712,-10.87937 -8.0611005,-21.50108 -7.1074695,-44.06049 0.7170024,-65.51026 1.7575423,-4.81807 4.0734318,-9.41372 6.1101477,-14.12059 13.5843344,-25.90596 33.7699664,-47.53437 57.5638604,-64.41654 4.949731,-3.51191 10.196651,-6.58497 15.294977,-9.87746 27.928612,-16.96435 58.331962,-29.68834 91.392042,-30.6385 4.89737,-0.14075 9.79464,0.28535 14.69195,0.42802 21.04353,2.18538 41.38782,9.26054 57.49176,23.3435 2.78322,2.43394 5.22661,5.23107 7.83992,7.8466 16.0508,19.20527 18.23182,35.91415 17.04633,60.08347 -1.73083,13.43471 -0.67525,6.88642 -3.11734,19.65277 0,0 -0.51218,0.25337 -0.51218,0.25337 l 0,0 c 0.47518,-11.6968 0.60634,-5.76699 -0.46363,-17.78776 -3.99094,-20.83578 -11.14572,-38.43138 -24.80401,-54.94076 -2.56717,-2.57198 -4.96656,-5.32314 -7.70152,-7.71594 -15.86327,-13.87866 -35.92351,-20.79324 -56.65923,-22.87594 -4.83785,-0.12383 -9.67669,-0.5293 -14.51355,-0.37149 -23.97266,0.78216 -46.55209,8.31832 -68.310962,17.90418 -5.112335,3.25601 -10.374751,6.28757 -15.337006,9.76802 -23.553168,16.51986 -43.454455,37.82826 -56.864051,63.35839 -1.996345,4.62238 -4.280964,9.13066 -5.989035,13.86715 -7.5442303,20.92017 -8.5664103,43.30952 -0.6512684,64.23029 1.7298844,3.59491 3.1753554,7.34112 5.1896514,10.78474 10.302542,17.6131 26.990625,29.59035 45.636762,37.08584 4.020524,1.27602 7.986905,2.73722 12.061571,3.82806 21.152012,5.66267 43.284028,6.33751 64.993018,4.46001 19.7718,-2.49605 39.48315,-5.89946 57.35567,-15.24862 14.96407,-10.47609 25.95909,-21.57863 32.69885,-38.92266 5.24093,-15.24993 7.97328,-30.92543 6.31931,-47.10806 -1.13907,-12.11494 -2.64066,-24.20116 -5.76825,-35.99052 0,0 7.6346,-4.08963 7.6346,-4.08963 z" />
    <path
       style="fill:#000000;fill-opacity:1;stroke:#000000;stroke-width:2;stroke-linecap:round;stroke-miterlimit:4;stroke-opacity:1;stroke-dasharray:none"
       id="path2898"
       d="m 142.10841,655.54087 c -10.77419,-0.77229 -21.44933,0.16444 -32.03931,2.11895 -11.349595,2.99895 -23.275754,6.73141 -32.993073,13.59891 -1.101007,0.77812 2.463844,-1.09552 3.695765,-1.64329 -16.271338,10.89841 -28.439555,25.87562 -38.943323,42.15548 -12.696452,20.71427 -19.581005,43.88042 -24.340048,67.50214 -4.436203,23.64762 -3.423434,44.14966 2.267584,67.35694 6.326422,22.38943 18.013584,38.42913 34.097663,54.74476 14.503334,12.90307 31.780636,22.51608 51.019822,26.05891 3.92958,0.72362 7.93615,0.93719 11.90422,1.40579 4.09021,-0.038 8.1915,0.18927 12.27061,-0.11412 18.23269,-1.3561 35.08598,-7.90178 50.99865,-16.57146 1.53872,-0.83834 -3.19889,1.43141 -4.79834,2.14711 22.53418,-15.64876 41.63453,-35.77545 56.22412,-59.01861 3.07958,-4.90617 5.72976,-10.06912 8.59463,-15.10368 12.90793,-25.47497 21.36842,-53.19114 22.97536,-81.80561 0.29044,-5.17193 0.09,-10.35977 0.13496,-15.53966 -1.22484,-16.98326 -3.17231,-35.48125 -12.98599,-50.06899 -5.8425,-8.6847 -8.84642,-9.65375 -17.25641,-15.61557 -25.95706,-13.18409 -48.36202,-11.24449 -76.00793,-6.04709 -4.7111,1.2667 -9.42221,2.53339 -14.13331,3.80008 0,0 0.45252,-0.34893 0.45252,-0.34893 l 0,0 c 5.20765,-1.6438 10.41529,-3.28759 15.62294,-4.93138 24.61391,-6.68982 51.55613,-13.75099 76.99401,-6.78705 4.18336,1.14524 8.09301,3.12277 12.13951,4.68416 8.09464,5.26761 13.29725,7.59229 19.14442,15.56445 2.32748,3.17334 3.91154,6.85043 5.45343,10.47118 5.43447,12.76156 7.53446,26.50968 8.31233,40.26257 -0.13128,14.05712 0.27256,18.02657 -1.68442,32.14408 -3.18467,22.97389 -10.47336,45.1984 -20.69661,65.97324 -2.83373,5.08183 -5.47134,10.27808 -8.50119,15.24548 -14.33179,23.49684 -33.28626,43.81585 -55.73085,59.73344 -31.91893,19.016 -55.10582,35.38897 -93.35591,33.10117 -3.898895,-0.61837 -7.846261,-0.98448 -11.696681,-1.85511 C 70.273692,933.86888 53.641764,923.31698 39.724441,909.9989 23.930188,893.29254 12.304574,876.48628 5.9205054,854.0958 3.7422357,844.85331 2.781894,842.13215 1.8317225,832.61777 0.25890925,816.86866 1.6659373,800.98574 4.641385,785.49162 9.7173998,761.65454 16.83041,738.22512 29.48988,717.19098 c 10.706615,-16.56631 23.045383,-31.84896 39.570256,-43.00944 16.0151,-9.71302 31.816104,-20.28957 50.579734,-23.72047 9.92901,-1.48151 19.92801,-1.9359 29.87509,-0.19913 0,0 -7.40655,5.27893 -7.40655,5.27893 z" />
    <path
       style="fill:#000000;fill-opacity:1;stroke:#000000;stroke-width:2;stroke-linecap:round;stroke-miterlimit:4;stroke-opacity:1;stroke-dasharray:none"
       id="path2900"
       d="m 356.86349,799.96045 c -7.50584,-8.73216 -12.0699,-19.09463 -15.50818,-29.95605 -4.50793,-15.64915 -3.54228,-30.28345 0.4268,-45.85614 5.97857,-18.99851 18.36906,-32.0381 33.54807,-44.20831 16.25738,-11.33394 33.89712,-20.75481 52.95733,-26.34691 11.43335,-3.35444 14.23814,-3.45848 26.04272,-5.43854 23.09115,-2.65019 46.73263,-1.08576 68.74034,6.80375 4.31279,1.54608 8.43695,3.57491 12.65542,5.36237 20.78922,10.33894 38.29469,25.81316 51.23795,45.09578 2.69492,4.01484 4.97639,8.29228 7.46458,12.43841 12.16981,23.09461 20.07744,48.25621 23.24835,74.18439 0.64446,5.26963 0.84338,10.58424 1.26507,15.87636 0.52415,19.42512 -1.02398,39.40875 -9.61134,57.18568 -5.35551,11.08658 -7.78479,12.66956 -15.75716,21.89205 -26.05649,22.619 -58.09156,35.72258 -92.06366,39.91146 -6.34109,0.78188 -12.7386,1.00546 -19.1079,1.50819 -25.54195,0.54861 -51.59436,-2.13281 -74.94743,-13.28267 -14.88796,-7.10821 -16.59013,-9.94992 -28.91837,-20.49889 -3.63105,-4.52996 -7.73302,-8.71971 -10.89316,-13.58989 -13.60667,-20.96967 -15.72907,-46.64736 -12.22317,-70.88097 0.93979,-6.49604 2.73685,-12.83888 4.10528,-19.25832 2.23,-6.41024 4.46001,-12.82047 6.69001,-19.23071 0,0 0.51562,-0.24632 0.51562,-0.24632 l 0,0 c -0.95728,5.78071 -1.91455,11.56142 -2.87183,17.34213 -0.75039,14.62871 -1.88375,20.35101 0.7071,34.88367 4.07043,22.83207 16.0526,43.16525 31.8667,59.78666 12.44209,10.05431 14.25862,12.76817 28.9919,19.60834 23.03763,10.69559 48.58028,13.54586 73.69673,13.01166 16.10028,-1.34143 21.20127,-1.20203 36.88864,-4.70598 34.39595,-7.68272 -0.35654,-0.93963 31.77268,-10.69587 1.52249,-0.46231 -5.17841,3.69405 -3.93894,2.69634 3.67269,-2.95634 7.49733,-5.71878 11.24599,-8.57817 8.26073,-8.98727 10.72962,-10.45869 16.36417,-21.40247 9.03322,-17.5449 11.01818,-37.4035 10.85109,-56.8235 -0.93313,-13.65536 -0.85351,-18.1474 -3.33761,-31.67522 -3.71494,-20.23069 -10.36332,-39.93728 -19.67034,-58.26729 -5.82021,-10.14465 -7.9287,-14.64698 -15.0776,-23.87188 -11.03237,-14.23611 -24.84725,-25.86701 -40.80353,-34.21561 -4.09065,-1.8088 -8.08925,-3.84204 -12.27194,-5.42639 -21.42552,-8.11571 -44.50521,-9.83815 -67.13058,-7.17564 -12.89692,2.17274 -25.23149,4.70219 -37.48434,9.43223 -3.73164,1.44054 -7.2755,3.33921 -11.00729,4.77935 -0.21913,0.0846 0.49061,-0.76255 0.28851,-0.64286 -3.16315,1.87327 -6.18404,3.97696 -9.27606,5.96544 -15.16089,11.86012 -27.71574,24.61264 -33.70496,43.41768 -4.02417,15.28459 -4.80293,29.79989 -0.65401,45.21958 3.07487,10.80519 7.30224,21.19493 13.75381,30.47277 0,0 -9.06546,5.40031 -9.06546,5.40031 z" />
    <path
       style="fill:#000000;fill-opacity:1;stroke:#000000;stroke-width:2;stroke-linecap:round;stroke-miterlimit:4;stroke-opacity:1;stroke-dasharray:none"
       id="path2902"
       d="m 1171.5362,154.36189 c -11.4704,12.26207 -26.6387,19.46777 -41.2172,27.2726 -20.7224,9.35922 -41.8164,11.78249 -64.2978,11.58484 -21.2773,-1.16104 -41.916,-7.06988 -60.5184,-17.49522 -3.8189,-2.14019 -7.43377,-4.62556 -11.15064,-6.93834 -17.66394,-12.55657 -32.87019,-28.69343 -41.1265,-49.01172 -1.61546,-3.97557 -2.68887,-8.15043 -4.0333,-12.22564 -5.25986,-23.219351 -1.33496,-46.57319 9.969,-67.456519 2.48588,-4.592503 5.55586,-8.84393 8.3338,-13.265895 20.75438,-27.9252796 50.39754,-45.576928 81.46354,-60.16545 5.4533,-2.560826 11.3075,-4.162213 16.9612,-6.243319 27.2838,-8.24465 56.3545,-11.83402 84.4937,-5.680366 4.9498,1.082451 9.7369,2.807561 14.6053,4.211342 17.0339,6.610306 32.3576,16.969386 41.6662,33.1050321 5.6131,9.7299096 5.5931,13.1592809 8.1434,23.9441119 2.3554,23.53331 -5.1029,45.975428 -17.5675,65.76239 -2.6409,4.192291 -5.7011,8.105252 -8.5517,12.157878 -15.3344,19.041815 -34.2389,35.157425 -55.8822,46.632135 -4.5683,2.42201 -9.3038,4.51473 -13.9557,6.7721 -2.7437,0.75838 -5.4875,1.51677 -8.2312,2.27516 0,0 0.4513,-0.35058 0.4513,-0.35058 l 0,0 c 3.4111,-1.29291 6.8222,-2.58582 10.2333,-3.87873 21.2272,-9.52952 37.522,-26.85787 51.8979,-44.71778 17.1374,-24.505514 28.8056,-45.730057 26.6892,-76.632998 -2.2738,-10.738341 -2.0776,-13.836527 -7.517,-23.53640919 -8.9371,-15.93729981 -24.0252,-25.96326381 -40.7091,-32.40245681 -4.8017,-1.366348 -9.524,-3.051405 -14.4052,-4.099044 -28.0106,-6.011839 -56.8982,-2.08135 -83.9551,6.293777 -5.623,2.122603 -11.1611,4.485342 -16.8691,6.367809 -0.7644,0.252111 -1.7015,-0.380986 -2.4148,-0.008 -20.1038,10.512645 -37.55721,25.5014501 -51.30219,43.482188 -2.78175,4.342846 -5.8509,8.514488 -8.34525,13.02854 -11.26203,20.380982 -15.13119,43.234325 -9.88983,65.981507 1.30614,4.003237 2.32598,8.111497 3.91843,12.009707 8.15679,19.96729 23.3649,35.73093 40.59274,48.20721 3.6287,2.30617 7.1538,4.78411 10.8861,6.91853 18.0543,10.32488 38.2202,16.17151 58.9247,17.68921 20.746,0.5387 41.4908,-1.31866 60.7498,-9.69507 -0.6053,0.61739 -2.6151,2.18262 -1.816,1.85218 9.4489,-3.90773 18.4838,-11.77276 26.0783,-18.53514 0,0 7.6978,-3.20958 7.6978,-3.20958 z" />
    <path
       style="fill:#000000;fill-opacity:1;stroke:#000000;stroke-width:2;stroke-linecap:round;stroke-miterlimit:4;stroke-opacity:1;stroke-dasharray:none"
       id="path2904"
       d="m 1523.2616,173.59959 c -13.8096,3.48436 -27.9538,5.21176 -42.1168,6.42761 -22.3042,2.18812 -44.3514,-0.63004 -65.9548,-6.07174 -19.7147,-5.84053 -38.5986,-14.95799 -53.94,-28.86664 -3.1025,-2.81281 -5.8725,-5.97197 -8.8088,-8.95796 -14.0364,-16.84322 -21.6284,-37.401997 -21.034,-59.427133 0.1231,-4.55943 0.8911,-9.078549 1.3367,-13.617823 4.6281,-24.355415 16.8989,-45.967884 35.582,-62.33503644 3.969,-3.47703786 8.3653,-6.43378506 12.5479,-9.65067756 16.0299,-9.467362 23.7664,-14.478161 43.0831,-22.804784 14.7525,-6.359234 34.97,-9.332024 50.9205,-10.05791 5.8577,-0.266577 11.7275,0.04003 17.5913,0.06005 27.1819,2.061765 54.7019,8.598403 77.3681,24.460562 3.9495,2.763969 7.4612,6.106019 11.1919,9.1590284 12.7387,12.8183981 21.3458,28.4677106 22.0409,46.8430556 0.4466,11.805534 -1.3399,15.524468 -4.1597,26.949619 -9.6339,26.442927 -28.6955,47.221409 -51.0339,63.806879 -4.9226,3.65487 -10.1725,6.84694 -15.2588,10.27041 -22.4576,12.42943 -11.5444,7.24119 -32.5291,15.99988 0,0 0.4482,-0.35449 0.4482,-0.35449 l 0,0 c 20.0367,-8.96912 10.9011,-4.21967 27.5955,-13.87955 4.1858,-3.04179 8.5341,-5.87178 12.5575,-9.12536 19.6179,-15.86424 35.1461,-36.446036 44.2078,-60.007203 2.853,-11.146006 4.6456,-14.820327 4.3098,-26.360409 -0.5229,-17.971437 -8.9811,-33.332956 -21.4763,-45.80516558 -3.6938,-2.98729112 -7.182,-6.24856192 -11.0814,-8.96187332 -22.5487,-15.6896091 -49.883,-22.0227611 -76.9008,-23.7534381 -15.3265,0.05473 -19.732,-0.506977 -34.9446,1.861443 -34.3448,5.347108 -0.079,1.209816 -33.3543,8.793824 -0.6159,0.140377 -0.9159,-1.424216 -1.493,-1.167287 -4.9002,2.181671 -9.2935,5.358952 -13.9403,8.038428 -4.1554,3.129254 -8.5198,5.9987716 -12.4663,9.3877608 -18.5251,15.9083662 -30.8578,37.0448622 -35.451,60.9968752 -0.4364,4.441593 -1.1928,8.863318 -1.3092,13.32478 -0.5609,21.505276 6.9947,41.721945 20.5056,58.283975 2.8391,2.9677 5.5106,6.10537 8.5173,8.90311 14.7921,13.76379 33.1976,23.00928 52.3148,29.07851 20.7575,5.36306 41.901,8.32907 63.4055,7.33046 12.6235,-0.62086 25.2827,-1.21599 37.7643,-3.33922 0,0 -6.0356,4.56744 -6.0356,4.56744 z" />
    <path
       style="fill:#000000;fill-opacity:1;stroke:#000000;stroke-width:2;stroke-linecap:round;stroke-miterlimit:4;stroke-opacity:1;stroke-dasharray:none"
       id="path2906"
       d="m 1143.0506,430.38819 c -3.5691,11.85838 -9.1959,22.68136 -16.0621,32.92524 -10.9127,15.26195 -26.0383,26.13781 -41.8306,35.81906 -24.578,15.34894 -49.2392,24.18048 -77.491,29.62455 -19.29668,2.65594 -39.40837,2.08828 -57.02889,-7.14676 -3.24319,-1.69978 -6.19652,-3.90299 -9.29478,-5.85448 -15.80369,-12.22492 -26.16565,-29.33162 -30.58813,-48.78421 -0.95253,-4.18977 -1.36149,-8.48482 -2.04224,-12.72723 -1.8737,-23.75742 3.94267,-47.10136 16.95968,-67.13157 2.83088,-4.35609 6.20979,-8.33042 9.31469,-12.49563 10.94355,-12.65018 23.94847,-23.11587 38.46913,-31.39903 18.39569,-10.49362 26.85284,-15.66882 45.09484,-21.40492 5.4755,-1.72175 11.1078,-2.89807 16.6617,-4.3471 25.1051,-4.75724 51.6016,-5.57095 75.9484,3.37653 3.968,1.45824 7.7008,3.49044 11.5512,5.23565 16.9104,9.71999 28.3735,24.88789 30.1836,44.66466 0.3581,3.91302 0.011,7.85875 0.017,11.78813 -2.8871,17.45116 -9.1532,34.66436 -19.6951,49.04131 -2.6205,3.57384 -5.8022,6.7002 -8.7032,10.0503 0,0 -0.5247,0.22639 -0.5247,0.22639 l 0,0 c 10.2062,-17.16455 15.5084,-32.18947 15.5179,-52.46812 -0.084,-3.7903 0.1261,-7.59852 -0.2516,-11.37089 -1.9885,-19.86425 -12.3549,-33.52722 -29.2546,-43.49213 -3.8047,-1.68928 -7.4955,-3.66273 -11.414,-5.06785 -24.2788,-8.70589 -50.6155,-7.63643 -75.5273,-2.66197 -35.87048,9.75341 2.474,-1.2628 -32.89419,10.72944 -0.66124,0.22421 -1.48331,-0.3211 -2.09459,0.0163 -14.49079,7.9984 -27.40332,18.40323 -38.39644,30.75677 -3.11098,4.09141 -6.49179,7.99105 -9.33294,12.27424 -13.06821,19.701 -19.01169,42.59849 -17.37718,66.13117 0.66164,4.17192 1.0508,8.39627 1.98492,12.51575 4.31442,19.02646 14.52366,35.77383 29.79057,47.91712 3.02064,1.90453 5.90626,4.0423 9.06193,5.7136 16.84014,8.91888 36.06405,10.04973 54.64442,7.77919 10.8318,-1.88456 12.8622,-1.93279 23.4681,-5.00648 7.2901,-2.11274 15.3171,-5.04649 22.3029,-8.02321 3.4982,-1.49062 6.8556,-3.29957 10.3603,-4.77482 0.1252,-0.0527 0.1872,0.1971 0.2807,0.29565 16.1658,-9.75647 31.619,-20.73224 43.2006,-35.90954 7.0934,-10.00411 13.4794,-20.56876 16.2626,-32.66658 0,0 8.7283,-4.14854 8.7283,-4.14854 z" />
    <path
       style="fill:#000000;fill-opacity:1;stroke:#000000;stroke-width:2;stroke-linecap:round;stroke-miterlimit:4;stroke-opacity:1;stroke-dasharray:none"
       id="path2908"
       d="m 1428.4061,497.92102 c -14.8697,-4.18004 -28.4418,-11.39948 -41.4203,-19.61341 -15.3059,-10.23509 -27.869,-24.08226 -35.9104,-40.7182 -1.6699,-3.45488 -2.9324,-7.09232 -4.3986,-10.63847 -6.0996,-18.62146 -6.9828,-38.39119 -1.2392,-57.23937 1.1385,-3.73609 2.7342,-7.31726 4.1013,-10.97589 9.2584,-19.15833 23.8725,-35.12789 42.0397,-46.26339 7.9798,-4.8912 16.2593,-9.27589 24.3889,-13.91384 23.1903,-11.17171 48.5337,-16.97086 74.2213,-17.99022 5.399,-0.21425 10.8066,1.2e-4 16.2099,1.8e-4 26.3187,1.35208 52.7283,6.53205 76.4698,18.35593 4.3454,2.1641 8.4535,4.77502 12.6802,7.16253 18.309,12.25018 33.1865,29.06515 38.1254,51.05225 0.9169,4.08167 1.0961,8.29464 1.6442,12.44196 0.4955,22.91939 -7.6019,44.38242 -23.0422,61.39172 -3.3736,3.71634 -7.2631,6.92926 -10.8947,10.39389 -27.0538,21.27813 -58.8965,33.66204 -92.664,38.95301 -6.4179,1.0056 -12.903,1.52091 -19.3544,2.28136 -23.2497,1.22517 -46.6638,-0.12003 -69.2544,-6.02917 -4.7328,-1.23798 -9.3495,-2.88333 -14.0243,-4.325 0,0 0.4703,-0.32463 0.4703,-0.32463 l 0,0 c 5.2871,1.00881 10.5314,2.27552 15.8613,3.02643 25.5915,3.60556 51.6476,2.68372 77.2588,-0.0394 19.1991,-2.58472 38.0921,-5.35927 56.5291,-11.60808 5.6005,-1.89818 10.9844,-4.38421 16.4887,-6.54559 1.2261,-0.48147 2.5869,-0.68154 3.7021,-1.38268 4.4186,-2.7781 8.5419,-6.0004 12.8129,-9.0006 3.5581,-3.36159 7.3754,-6.46856 10.6745,-10.08478 15.0473,-16.49394 22.7322,-37.5791 22.3108,-59.79864 -0.5424,-4.05359 -0.755,-8.1651 -1.627,-12.16076 -4.7143,-21.60143 -19.2705,-38.233 -37.2258,-50.30254 -4.1453,-2.37973 -8.1631,-4.99678 -12.4359,-7.1392 -23.544,-11.80527 -49.7888,-16.83659 -75.9179,-18.02094 -5.387,0.0336 -10.7792,-0.13796 -16.1609,0.10071 -25.6302,1.13667 -50.8355,7.14806 -73.8813,18.49417 -0.039,-0.0683 -0.077,-0.13668 -0.1162,-0.20503 -3.7076,2.55721 -7.4152,5.11442 -11.1228,7.67162 -13.129,10.09388 -23.8806,22.73964 -31.0327,37.71221 -1.4245,3.61594 -3.1014,7.14237 -4.2735,10.84783 -5.8522,18.50126 -5.0384,38.08657 0.8464,56.43492 1.4106,3.51548 2.6318,7.11298 4.2317,10.54644 7.6363,16.38783 19.6557,29.97799 33.383,41.54141 11.5664,8.77033 23.6941,16.86069 37.3948,21.94384 0,0 -5.8486,3.96741 -5.8486,3.96741 z" />
    <path
       style="fill:#000000;fill-opacity:1;stroke:#000000;stroke-width:2;stroke-linecap:round;stroke-miterlimit:4;stroke-opacity:1;stroke-dasharray:none"
       id="path2910"
       d="m 1191.0405,803.08843 c 6.8215,9.94288 7.5388,21.63033 7.1346,33.28514 -2.1251,19.77557 -9.7536,34.7901 -21.3707,50.58369 -15.9374,18.23921 -37.5061,31.31062 -60.292,39.31664 -4.6376,1.62946 -9.4039,2.86649 -14.1059,4.29973 -27.8229,6.92361 -56.8664,10.11317 -85.4303,6.23134 -5.7369,-0.77964 -11.3746,-2.16698 -17.06188,-3.25046 -19.96809,-5.30704 -38.90947,-14.40413 -51.75421,-31.17342 -7.65071,-9.98829 -7.69744,-12.94834 -11.85158,-24.57512 -0.6502,-4.5012 -1.73973,-8.96058 -1.9506,-13.5036 -0.92831,-20.00006 6.8698,-39.23191 18.4466,-55.19816 3.29852,-4.54919 7.1706,-8.65356 10.7559,-12.98034 13.05239,-13.70417 28.36078,-24.79745 44.84887,-34.00095 21.4739,-11.98656 30.3489,-17.24448 51.3148,-24.50678 6.4949,-2.24976 13.1569,-3.9849 19.7353,-5.97735 30.2508,-7.42518 62.2138,-11.53049 92.9994,-4.55197 5.1089,1.15809 10.041,2.9912 15.0615,4.4868 20.9181,8.40362 38.9166,23.13251 46.5296,44.99325 1.3244,3.8031 1.8807,7.83158 2.8211,11.74738 0.6716,14.67791 -0.9778,30.87586 -10.8377,42.66657 -2.1744,2.6003 -5.031,4.544 -7.5465,6.816 0,0 -0.5275,0.21992 -0.5275,0.21992 l 0,0 c 1.284,-1.71134 2.831,-3.25392 3.8521,-5.134 6.2879,-11.57763 4.4746,-24.9028 1.2757,-37.06663 -1.1769,-3.68168 -2.1028,-7.45323 -3.5306,-11.04506 -8.3667,-21.0479 -24.7289,-35.56988 -45.5157,-43.99269 -4.9081,-1.48687 -9.7245,-3.3201 -14.7245,-4.46061 -30.611,-6.98244 -62.4263,-2.63432 -92.4149,5.0295 -39.5787,12.32328 -0.087,-0.55708 -38.9838,13.89523 -1.3334,0.49544 -2.9041,0.28074 -4.161,0.9468 -16.5599,8.77523 -31.61765,20.13189 -44.81278,33.4065 -3.64354,4.27116 -7.57163,8.31511 -10.93063,12.81348 -11.64051,15.58893 -19.73622,34.44068 -19.07431,54.20609 0.14867,4.43944 1.19568,8.80303 1.79352,13.20454 3.91423,10.88355 4.30672,14.63812 11.53522,23.9711 12.58502,16.24897 31.48868,24.97476 50.68118,30.67717 5.5199,1.13473 10.9879,2.56101 16.5598,3.40419 27.7923,4.20569 56.1843,1.33767 83.323,-5.36189 33.7207,-10.59455 -4.6218,1.9238 26.6331,-9.67488 0.3055,-0.11338 -0.8375,0.97375 -0.5616,0.80036 9.2504,-5.81219 17.77,-12.47662 24.7156,-20.98594 11.2197,-15.08812 19.64,-30.91098 21.8432,-49.88481 0.8375,-11.42161 0.554,-22.95212 -5.7492,-32.96384 0,0 11.3278,-6.71292 11.3278,-6.71292 z" />
    <path
       style="fill:#000000;fill-opacity:1;stroke:#000000;stroke-width:2;stroke-linecap:round;stroke-miterlimit:4;stroke-opacity:1;stroke-dasharray:none"
       id="path2912"
       d="m 1501.3823,883.82933 c -12.7189,5.27979 -26.2038,6.6289 -39.8318,6.70424 -18.2498,-0.92976 -35.7749,-6.8914 -49.9465,-18.67157 -3.2485,-2.70032 -6.083,-5.86308 -9.1244,-8.79462 -16.5289,-18.81591 -25.5489,-42.32706 -30.2023,-66.69698 -1.0278,-5.38277 -1.6179,-10.83996 -2.4268,-16.25994 -2.3842,-27.25822 -0.6722,-55.22531 9.1655,-81.01387 1.8789,-4.92535 4.3342,-9.61104 6.5013,-14.41656 17.0172,-30.11321 37.2389,-44.14128 69.1589,-57.69523 4.8261,-2.04927 10.1339,-2.69583 15.2008,-4.04374 28.6207,-4.69279 57.2042,0.95838 82.7732,14.47147 5.4018,2.85484 10.4262,6.37284 15.6393,9.55927 24.4909,17.64519 45.2577,40.83373 56.0356,69.40636 1.9573,5.18899 3.16,10.6321 4.74,15.94815 4.0625,20.80573 2.2774,41.71493 -7.4668,60.76647 -6.2774,12.27356 -9.5475,14.67271 -18.6139,24.95385 -4.1811,3.48016 -8.1068,7.29225 -12.5432,10.44048 -4.7011,3.33611 -9.6889,6.27839 -14.7927,8.95813 -15.7892,8.28997 -22.3428,12.64454 -38.286,14.4853 -12.7062,1.46704 -15.5658,0.16753 -28.0594,-1.76278 0,0 0.465,-0.33214 0.465,-0.33214 l 0,0 c 14.8012,0.26689 18.3463,1.19501 32.9928,-2.03882 5.5381,-1.22278 10.8169,-3.42513 16.2893,-4.91448 1.4459,-0.39349 3.1004,-0.0474 4.4363,-0.72604 10.1699,-5.16581 14.9418,-10.08961 23.6302,-17.42612 8.8615,-9.91926 12.179,-12.43865 18.5006,-24.27916 9.9727,-18.67911 12.346,-39.36296 8.6432,-60.04864 -1.4833,-5.27667 -2.5675,-10.68222 -4.4499,-15.83002 -10.4056,-28.45538 -31.2614,-51.15481 -55.5839,-68.50578 -5.2195,-3.10269 -10.2758,-6.49797 -15.6584,-9.30805 -25.2748,-13.19494 -53.4147,-18.75959 -81.6327,-13.88017 -4.9666,1.37726 -9.8144,3.29409 -14.8999,4.13178 -0.5449,0.0897 0.2945,-1.89107 -0.1997,-1.64457 -18.4005,9.17877 -31.9521,25.14269 -41.8977,42.72139 -2.137,4.72337 -4.5522,9.33049 -6.411,14.1701 -9.793,25.49736 -11.7258,53.14387 -9.0425,80.12177 0.8009,5.37023 1.3619,10.78174 2.4026,16.11067 4.6936,24.03239 14.2395,46.90209 30.6777,65.27402 3.0528,2.8238 5.9256,5.85548 9.1583,8.4714 13.8764,11.22903 30.8211,17.07979 48.4932,18.38387 12.6667,0.25293 25.302,-0.62899 37.1701,-5.4918 0,0 -11.0044,8.70236 -11.0044,8.70236 z" />
    <path
       style="fill:#000000;fill-opacity:1;stroke:#000000;stroke-width:2;stroke-linecap:round;stroke-miterlimit:4;stroke-opacity:1;stroke-dasharray:none"
       id="path2914"
       d="m 613.76803,395.58647 c -4.93435,10.35955 -9.11856,21.05312 -13.68454,31.57645 -6.52658,16.19579 -15.84084,30.7741 -26.85198,44.2339 -16.34225,19.44029 -38.00223,32.10973 -59.67003,44.65348 -16.99174,8.88596 -35.07927,16.2188 -54.17158,18.97528 -3.67616,0.53075 -7.39528,0.70238 -11.09292,1.05356 -18.30187,0.72905 -36.34921,-3.1851 -51.75959,-13.37671 -3.0966,-2.04793 -5.91741,-4.4851 -8.87611,-6.72765 -15.30569,-13.95724 -25.73184,-31.96067 -31.87401,-51.65081 -1.32044,-4.23297 -2.25973,-8.57554 -3.38959,-12.86331 -4.45825,-21.92927 -4.2764,-44.7416 3.17712,-66.03118 1.46688,-4.1899 3.4338,-8.18761 5.1507,-12.28142 11.38255,-21.84025 29.23788,-39.03155 50.48917,-51.29322 8.68068,-5.00862 17.63133,-9.53406 26.447,-14.30109 25.57807,-10.90827 53.42889,-16.04696 81.17325,-12.33862 5.35444,0.71568 10.60119,2.0842 15.90179,3.12629 24.2819,6.93376 46.85399,19.44431 63.66996,38.56848 2.94544,3.34973 5.44007,7.07041 8.1601,10.60562 8.50235,13.26998 14.60742,28.24159 12.04358,44.30749 -1.51999,9.52479 -3.78676,12.46169 -8.01271,20.95816 -5.83646,10.09206 -14.63329,16.76399 -23.88494,23.39805 0,0 -0.53113,0.21078 -0.53113,0.21078 l 0,0 c 8.19093,-6.26165 13.47915,-10.62133 17.59941,-20.45911 0.86416,-2.9167 2.04938,-5.75695 2.59249,-8.7501 3.31848,-18.28854 -3.35779,-36.60701 -12.93328,-51.85067 -2.69294,-3.47731 -5.17407,-7.1295 -8.07882,-10.43192 -16.59014,-18.86142 -38.59083,-31.51697 -62.66798,-38.15818 -5.22587,-1.02202 -10.39845,-2.36988 -15.67761,-3.06606 -27.53549,-3.63119 -55.08722,1.68339 -80.36922,12.70521 -7.20872,1.1551 -3.53278,0.25066 -15.56119,8.79414 -15.60692,11.08519 -28.67527,25.11568 -37.5997,42.1106 -1.77204,4.0542 -3.81596,8.00013 -5.31613,12.1626 -7.56847,20.99997 -7.57815,43.54056 -3.22378,65.20781 1.11862,4.24445 2.04541,8.54416 3.35586,12.73336 6.07959,19.43499 16.45974,37.15438 31.68009,50.81209 2.86953,2.22212 5.59133,4.64939 8.60858,6.66637 14.96046,10.00085 32.61807,13.80466 50.41571,13.27379 3.63601,-0.3571 7.29249,-0.54605 10.90804,-1.07132 18.69481,-2.71598 36.41002,-9.84265 53.02574,-18.60903 -3.12788,2.60693 -2.86013,2.35873 9.03902,-5.75747 8.79077,-5.99604 17.13856,-12.66783 24.77567,-20.08488 2.37779,-2.30927 4.60503,-4.76867 6.90754,-7.153 11.46746,-13.58894 21.38573,-28.25415 28.45658,-44.6526 4.84586,-10.73804 9.47034,-21.58641 14.76099,-32.11616 0,0 6.88845,-3.109 6.88845,-3.109 z" />
    <path
       style="fill:#000000;fill-opacity:1;stroke:#000000;stroke-width:2;stroke-linecap:round;stroke-miterlimit:4;stroke-opacity:1;stroke-dasharray:none"
       id="path2916"
       d="m 242.03994,46.549978 c 12.4747,-0.326133 24.95641,-0.287907 37.43456,-0.355933 13.62284,0.12376 27.22151,-0.138894 40.80144,-1.225052 7.67345,-0.404286 15.26681,-2.584769 22.96642,-2.463572 4.6385,1.37977 1.22169,6.603508 -0.17229,9.332034 -1.67673,3.503339 -0.88133,1.725595 -2.38441,5.334027 0,0 -0.51449,0.248652 -0.51449,0.248652 l 0,0 c -0.12606,-2.768499 -0.0292,-1.419924 -0.28062,-4.046424 -0.8193,-3.53543 -1.90729,-4.796775 -5.78106,-4.125416 -8.05036,1.237452 -16.04349,2.958492 -24.20628,3.369127 -13.28915,0.809646 -26.58765,0.614755 -39.89523,0.450634 -11.96121,-0.130552 -23.93374,-0.146713 -35.88108,-0.785984 0,0 7.91304,-5.732093 7.91304,-5.732093 z" />
    <path
       style="fill:#000000;fill-opacity:1;stroke:#000000;stroke-width:2;stroke-linecap:round;stroke-miterlimit:4;stroke-opacity:1;stroke-dasharray:none"
       id="path2918"
       d="m 136.8876,192.25154 c 2.76479,13.10232 4.6784,26.35812 6.50505,39.61811 2.59008,19.87554 3.88238,39.85341 2.87431,59.874 -0.47611,10.96208 -1.86131,21.84672 -2.88019,32.76245 0,0 -0.50921,0.2593 -0.50921,0.2593 l 0,0 c -0.95776,-9.78817 -2.66341,-19.46937 -4.01922,-29.20821 -2.75924,-19.3583 -3.30727,-38.91887 -5.65616,-58.32819 -1.62964,-13.32577 -3.34846,-26.6503 -6.00875,-39.81778 0,0 9.69417,-5.15968 9.69417,-5.15968 z" />
    <path
       style="fill:#000000;fill-opacity:1;stroke:#000000;stroke-width:2;stroke-linecap:round;stroke-miterlimit:4;stroke-opacity:1;stroke-dasharray:none"
       id="path2920"
       d="m 149.82445,571.11771 c 0.40993,11.43016 1.6894,22.80313 2.95239,34.16302 1.55846,12.20555 3.59612,24.32468 4.09069,36.63195 -0.66089,6.9481 -1.37385,13.91514 -2.6865,20.77561 0,0 -0.49738,0.28134 -0.49738,0.28134 l 0,0 c -5.40472,-2.78256 -5.98518,-10.0426 -7.98629,-15.22361 -1.99176,-12.06257 -3.125,-24.23927 -4.57196,-36.37568 -1.1244,-11.60447 -2.06075,-23.23481 -1.77604,-34.90677 0,0 10.47509,-5.34586 10.47509,-5.34586 z" />
    <path
       style="fill:#000000;fill-opacity:1;stroke:#000000;stroke-width:2;stroke-linecap:round;stroke-miterlimit:4;stroke-opacity:1;stroke-dasharray:none"
       id="path2922"
       d="m 210.46172,538.56974 c 10.1001,9.25906 20.25007,18.46218 30.13771,27.94982 15.41777,14.55075 30.45359,29.4984 45.8336,44.08803 10.34361,10.59773 21.86349,20.07694 31.5565,31.31222 0.55096,0.63862 10.75058,13.66914 11.54521,14.68314 3.84319,5.14927 7.95057,10.06915 11.72817,15.2651 0,0 -0.48165,0.30747 -0.48165,0.30747 l 0,0 c -7.0946,-2.48901 -13.37873,-5.93617 -19.37514,-10.56945 -3.29073,-2.42538 -12.97749,-9.49965 -15.96482,-11.97828 -11.4656,-9.51315 -21.32724,-20.78381 -32.24386,-30.88563 C 258.3197,603.8543 243.31687,589.0859 229.089,573.566 c -9.23127,-9.80265 -18.33352,-19.72718 -27.62843,-29.46964 0,0 9.00115,-5.52662 9.00115,-5.52662 z" />
    <path
       style="fill:#000000;fill-opacity:1;stroke:#000000;stroke-width:2;stroke-linecap:round;stroke-miterlimit:4;stroke-opacity:1;stroke-dasharray:none"
       id="path2924"
       d="m 1211.4475,61.702054 c 10.6563,0.93882 21.3696,0.812174 32.0533,0.594837 13.9734,-0.326511 27.9477,-0.598986 41.9248,-0.686394 13.041,-0.06377 26.0711,0.435662 39.092,1.098985 7.4081,0.470008 14.8068,1.085799 22.1708,2.025692 2.487,0.669374 9.9124,0.09756 10.6972,2.806346 -1.2895,3.768475 -3.0514,3.193723 -7.535,5.113098 0,0 0.4626,-0.335378 0.4626,-0.335378 l 0,0 c -2.0544,1.834138 -3.39,3.626471 -6.0038,4.369432 -4.4468,0.92488 -8.5452,-0.414802 -12.9703,-1.102791 -7.1301,-0.949133 -14.2568,-1.979503 -21.4456,-2.385037 -12.8311,-0.893664 -25.6913,-1.374496 -38.5548,-1.349487 -13.8263,-0.0086 -27.6509,0.172878 -41.4755,0.375608 -10.4852,0.0033 -21.0086,0.05869 -31.427,-1.304903 0,0 13.0113,-9.220008 13.0113,-9.220008 z" />
    <path
       style="fill:#000000;fill-opacity:1;stroke:#000000;stroke-width:2;stroke-linecap:round;stroke-miterlimit:4;stroke-opacity:1;stroke-dasharray:none"
       id="path2926"
       d="m 1138.3408,162.04428 c 9.3405,7.41283 18.1334,15.48218 27.1537,23.27388 11.8724,10.55644 24.187,20.57232 36.8677,30.13613 13.4406,9.89571 27.6589,18.60681 42.0664,26.99818 14.1776,7.95101 28.7321,15.1944 43.3592,22.27326 12.378,5.856 24.5127,12.18579 36.5578,18.69273 7.8346,4.46452 15.6692,8.94039 23.2444,13.83642 4.4092,2.67829 7.8844,6.2749 10.9451,10.36562 1.8496,2.77748 3.0943,5.76288 1.5853,8.92273 -1.011,1.26688 -2.2768,2.24928 -3.5573,3.21968 0,0 -5.4595,3.03665 -5.4595,3.03665 l 0,0 c -1.4161,0.56304 -2.8336,1.11333 -4.3583,1.31167 -3.1828,-0.3955 -4.9651,-3.05647 -6.7562,-5.48671 -2.8884,-3.85518 -6.0926,-7.35424 -10.2225,-9.93586 -7.413,-4.91057 -14.9234,-9.67483 -22.6905,-14.01248 -11.808,-6.71802 -23.9196,-12.87732 -36.1098,-18.86967 -14.4169,-7.25134 -28.8067,-14.59001 -42.6379,-22.92328 -14.1547,-8.51376 -27.9474,-17.6808 -40.7828,-28.10256 -12.1317,-9.89935 -23.8196,-20.34371 -34.5215,-31.79414 -7.7731,-8.48389 -15.3724,-17.11785 -22.6163,-26.0614 0,0 7.933,-4.88085 7.933,-4.88085 z" />
    <path
       style="fill:#000000;fill-opacity:1;stroke:#000000;stroke-width:2;stroke-linecap:round;stroke-miterlimit:4;stroke-opacity:1;stroke-dasharray:none"
       id="path2928"
       d="m 1073.1266,186.67478 c 1.8353,10.57699 2.9889,21.24973 3.9038,31.94024 1.2546,14.10271 1.1463,28.24992 0.763,42.38505 -0.8457,14.53357 -0.9827,29.17033 -4.194,43.41515 -1.5916,6.39166 -3.2058,12.69159 -7.1942,17.99305 0,0 -0.5152,0.24713 -0.5152,0.24713 l 0,0 c -3.0511,-3.31256 -1.6561,-9.02524 -2.4831,-13.15807 -1.0492,-14.07341 1.3709,-28.11965 1.8738,-42.18385 0.7403,-14.30731 1.1956,-28.63348 0.6584,-42.95919 -0.4403,-10.85773 -1.2054,-21.70017 -2.6474,-32.47626 0,0 9.8349,-5.20325 9.8349,-5.20325 z" />
    <path
       style="fill:#000000;fill-opacity:1;stroke:#000000;stroke-width:2;stroke-linecap:round;stroke-miterlimit:4;stroke-opacity:1;stroke-dasharray:none"
       id="path2930"
       d="m 1083.2476,491.37892 c 1.6434,7.73434 2.8329,15.56118 3.5516,23.43371 0.9823,9.52908 1.1856,19.11254 1.4447,28.6825 0.2967,10.55015 -0.1027,21.08847 -0.7309,31.6171 -0.5562,10.10442 -1.7414,20.1517 -2.6889,30.22211 -0.9641,9.52477 -2.1044,19.02987 -3.1551,28.54554 -0.806,7.75555 -1.3621,15.53273 -2.2976,23.27483 -1.1869,7.22778 -4.9302,13.70653 -9.0761,19.637 -0.667,0.70374 -1.3339,1.40748 -2.0009,2.11122 0,0 -0.5141,0.24956 -0.5141,0.24956 l 0,0 c -0.5033,-0.13446 -1.0067,-0.26891 -1.5101,-0.40337 -3.2356,-3.41866 -4.4834,-8.31211 -4.3367,-12.92069 0.5629,-7.76756 1.2824,-15.52051 2.1926,-23.25553 1.0982,-9.63458 2.4322,-19.23539 3.7178,-28.84646 1.5534,-10.30968 3.1369,-20.62064 4.3449,-30.97756 1.2644,-10.67231 1.9754,-21.38953 2.0891,-32.13971 0.2825,-9.87736 0.4597,-19.75517 0.5937,-29.63506 -0.1737,-8.12413 -0.3848,-16.24856 -1.5688,-24.30498 0,0 9.9448,-5.29021 9.9448,-5.29021 z" />
    <path
       style="fill:#000000;fill-opacity:1;stroke:#000000;stroke-width:2;stroke-linecap:round;stroke-miterlimit:4;stroke-opacity:1;stroke-dasharray:none"
       id="path2932"
       d="m 1120.853,716.3851 c 4.9459,-11.33639 10.5462,-22.3592 16.3114,-33.29547 8.4016,-15.96542 18.7684,-30.74107 29.6953,-45.05167 12.3041,-15.59425 25.8191,-30.17614 39.4774,-44.57979 12.2065,-12.68617 24.7691,-25.01992 37.6877,-36.9786 9.9567,-9.06474 19.8605,-18.1853 29.7191,-27.35655 8.8285,-8.31083 17.464,-16.823 26.1691,-25.26215 5.4083,-5.18836 10.76,-10.43533 16.143,-15.64998 3.9091,-3.82626 7.9493,-7.51482 11.9698,-11.22275 6.3219,-6.00245 14.22,-9.55393 21.7882,-13.76469 -9.5269,6.47415 -4.5967,3.31192 -1.7799,0.0612 0,0 0.5146,-0.24836 0.5146,-0.24836 l 0,0 c 6.0108,4.19296 -4.8754,4.40052 -7.814,7.51638 20.4216,-11.35813 5.293,-3.36368 1.3942,0.67815 -4.1322,3.65297 -8.1376,7.44411 -12.1394,11.23888 -5.5077,5.27853 -11.0422,10.52869 -16.5435,15.81385 -8.7501,8.40443 -17.368,16.94519 -26.1763,25.28874 -9.8931,9.32862 -19.9588,18.46948 -30.1013,27.52589 -13.1025,12.01616 -25.9474,24.31583 -38.279,37.12656 -13.7593,14.31579 -27.275,28.90058 -39.612,44.47625 -10.912,14.22729 -21.2122,28.93632 -29.6578,44.7905 -5.8346,10.89914 -11.3738,21.95392 -16.4134,33.24591 0,0 -12.3532,5.64769 -12.3532,5.64769 z" />
    <path
       style="fill:#000000;fill-opacity:1;stroke:#000000;stroke-width:2;stroke-linecap:round;stroke-miterlimit:4;stroke-opacity:1;stroke-dasharray:none"
       id="path2934"
       d="m 1512.5126,485.10831 c -0.1227,12.95531 0.014,25.9135 0.1717,38.86854 0.1946,15.99583 -0.2793,31.99756 -1.8866,47.91507 -1.0847,12.9703 -3.4672,25.78503 -6.3739,38.45757 -1.2996,6.96021 -4.1183,12.349 -9.365,17.01091 -2.795,1.89446 -1.0472,1.06556 -5.519,1.79356 0,0 0.5016,-0.2737 0.5016,-0.2737 l 0,0 c -3.5613,2.74304 -1.9373,2.08469 -4.4101,2.86152 -5.52,-1.11256 -0.5824,-9.00268 -0.1876,-12.27515 3.1569,-12.72907 5.7711,-25.56414 7.3129,-38.60247 1.5039,-15.94302 2.5525,-31.9201 2.3886,-47.94703 0.1147,-13.05148 -0.017,-26.10392 0.2691,-39.15395 0,0 17.0983,-8.65487 17.0983,-8.65487 z" />
    <flowRoot
       xml:space="preserve"
       id="flowRoot3338"
       style="font-size:40px;font-style:normal;font-weight:normal;fill:#000000;fill-opacity:1;stroke:none;font-family:Bitstream Vera Serif;-inkscape-font-specification:Bitstream Vera Serif;font-stretch:normal;font-variant:normal"
       transform="matrix(5.5071285,0,0,5.5071285,5410.6719,-1976.6955)"><flowRegion
         id="flowRegion3340"><rect
           id="rect3342"
           width="271.42856"
           height="345.71429"
           x="-982.85712"
           y="344.67404"
           style="-inkscape-font-specification:Bitstream Vera Serif;font-family:Bitstream Vera Serif;font-weight:normal;font-style:normal;font-stretch:normal;font-variant:normal" /></flowRegion><flowPara
         id="flowPara3344"
         style="-inkscape-font-specification:FreeSerif;font-family:FreeSerif;font-weight:normal;font-style:normal;font-stretch:normal;font-variant:normal">A</flowPara></flowRoot>    <flowRoot
       xml:space="preserve"
       id="flowRoot3338-3"
       style="font-size:40px;font-style:normal;font-variant:normal;font-weight:normal;font-stretch:normal;fill:#000000;fill-opacity:1;stroke:none;font-family:Bitstream Vera Serif;-inkscape-font-specification:Bitstream Vera Serif"
       transform="matrix(5.5071285,0,0,5.5071285,5839.06,-1959.1416)"><flowRegion
         id="flowRegion3340-1"><rect
           id="rect3342-8"
           width="271.42856"
           height="345.71429"
           x="-982.85712"
           y="344.67404"
           style="font-style:normal;font-variant:normal;font-weight:normal;font-stretch:normal;font-family:Bitstream Vera Serif;-inkscape-font-specification:Bitstream Vera Serif" /></flowRegion><flowPara
         id="flowPara3344-9"
         style="font-style:normal;font-variant:normal;font-weight:normal;font-stretch:normal;font-family:FreeSerif;-inkscape-font-specification:FreeSerif">B</flowPara></flowRoot>    <flowRoot
       xml:space="preserve"
       id="flowRoot3338-3-8"
       style="font-size:40px;font-style:normal;font-variant:normal;font-weight:normal;font-stretch:normal;fill:#000000;fill-opacity:1;stroke:none;font-family:DejaVu Serif;-inkscape-font-specification:DejaVu Serif"
       transform="matrix(5.5071285,0,0,5.5071285,5474.6299,-1554.856)"><flowRegion
         id="flowRegion3340-1-1"><rect
           id="rect3342-8-2"
           width="271.42856"
           height="345.71429"
           x="-982.85712"
           y="344.67404"
           style="font-style:normal;font-variant:normal;font-weight:normal;font-stretch:normal;font-family:DejaVu Serif;-inkscape-font-specification:DejaVu Serif" /></flowRegion><flowPara
         id="flowPara3344-9-8"
         style="font-style:normal;font-variant:normal;font-weight:normal;font-stretch:normal;font-family:Furat;-inkscape-font-specification:Furat">E</flowPara></flowRoot>    <flowRoot
       xml:space="preserve"
       id="flowRoot3338-3-8-2"
       style="font-size:40px;font-style:normal;font-variant:normal;font-weight:normal;font-stretch:normal;fill:#000000;fill-opacity:1;stroke:none;font-family:Bitstream Vera Serif;-inkscape-font-specification:Bitstream Vera Serif"
       transform="matrix(5.5071285,0,0,5.5071285,5508.6936,-1247.7131)"><flowRegion
         id="flowRegion3340-1-1-1"><rect
           id="rect3342-8-2-0"
           width="271.42856"
           height="345.71429"
           x="-982.85712"
           y="344.67404"
           style="font-style:normal;font-variant:normal;font-weight:normal;font-stretch:normal;font-family:Bitstream Vera Serif;-inkscape-font-specification:Bitstream Vera Serif" /></flowRegion><flowPara
         id="flowPara3344-9-8-5"
         style="-inkscape-font-specification:FreeSerif;font-family:FreeSerif;font-weight:normal;font-style:normal;font-stretch:normal;font-variant:normal">I</flowPara></flowRoot>    <flowRoot
       xml:space="preserve"
       id="flowRoot3338-3-8-2-1"
       style="font-size:40px;font-style:normal;font-variant:normal;font-weight:normal;font-stretch:normal;fill:#000000;fill-opacity:1;stroke:none;font-family:Bitstream Vera Serif;-inkscape-font-specification:Bitstream Vera Serif"
       transform="matrix(5.5071285,0,0,5.5071285,5844.1384,-1248.5795)"><flowRegion
         id="flowRegion3340-1-1-1-1"><rect
           id="rect3342-8-2-0-0"
           width="271.42856"
           height="345.71429"
           x="-982.85712"
           y="344.67404"
           style="font-style:normal;font-variant:normal;font-weight:normal;font-stretch:normal;font-family:Bitstream Vera Serif;-inkscape-font-specification:Bitstream Vera Serif" /></flowRegion><flowPara
         id="flowPara3344-9-8-5-8"
         style="font-style:normal;font-variant:normal;font-weight:normal;font-stretch:normal;font-family:FreeSerif;-inkscape-font-specification:FreeSerif">J</flowPara></flowRoot>    <flowRoot
       xml:space="preserve"
       id="flowRoot3338-3-8-2-4"
       style="font-size:40px;font-style:normal;font-variant:normal;font-weight:normal;font-stretch:normal;fill:#000000;fill-opacity:1;stroke:none;font-family:Bitstream Vera Serif;-inkscape-font-specification:Bitstream Vera Serif"
       transform="matrix(5.5071285,0,0,5.5071285,5825.4157,-1606.2845)"><flowRegion
         id="flowRegion3340-1-1-1-6"><rect
           id="rect3342-8-2-0-2"
           width="271.42856"
           height="345.71429"
           x="-982.85712"
           y="344.67404"
           style="font-style:normal;font-variant:normal;font-weight:normal;font-stretch:normal;font-family:Bitstream Vera Serif;-inkscape-font-specification:Bitstream Vera Serif" /></flowRegion><flowPara
         id="flowPara3344-9-8-5-5"
         style="font-style:normal;font-variant:normal;font-weight:normal;font-stretch:normal;font-family:FreeSerif;-inkscape-font-specification:FreeSerif">F</flowPara></flowRoot>  </g>
</svg>
