<?xml version="1.0" encoding="UTF-8" standalone="no"?>
<!-- Created with Inkscape (http://www.inkscape.org/) -->

<svg
   xmlns:dc="http://purl.org/dc/elements/1.1/"
   xmlns:cc="http://creativecommons.org/ns#"
   xmlns:rdf="http://www.w3.org/1999/02/22-rdf-syntax-ns#"
   xmlns:svg="http://www.w3.org/2000/svg"
   xmlns="http://www.w3.org/2000/svg"
   xmlns:sodipodi="http://sodipodi.sourceforge.net/DTD/sodipodi-0.dtd"
   xmlns:inkscape="http://www.inkscape.org/namespaces/inkscape"
   width="551.8988"
   height="728.57153"
   id="svg2"
   sodipodi:version="0.32"
   inkscape:version="0.46+devel r21192"
   version="1.0"
   sodipodi:docname="c17d1.svg"
   inkscape:output_extension="org.inkscape.output.svg.inkscape">
  <defs
     id="defs4">
    <inkscape:perspective
       sodipodi:type="inkscape:persp3d"
       inkscape:vp_x="0 : 526.18109 : 1"
       inkscape:vp_y="0 : 1000 : 0"
       inkscape:vp_z="744.09448 : 526.18109 : 1"
       inkscape:persp3d-origin="372.04724 : 350.78739 : 1"
       id="perspective10" />
  </defs>
  <sodipodi:namedview
     id="base"
     pagecolor="#ffffff"
     bordercolor="#666666"
     borderopacity="1.0"
     inkscape:pageopacity="0.0"
     inkscape:pageshadow="2"
     inkscape:zoom="0.35"
     inkscape:cx="188.41277"
     inkscape:cy="372.81929"
     inkscape:document-units="px"
     inkscape:current-layer="layer1"
     showgrid="false"
     inkscape:window-width="1280"
     inkscape:window-height="778"
     inkscape:window-x="-5"
     inkscape:window-y="-3" />
  <metadata
     id="metadata7">
    <rdf:RDF>
      <cc:Work
         rdf:about="">
        <dc:format>image/svg+xml</dc:format>
        <dc:type
           rdf:resource="http://purl.org/dc/dcmitype/StillImage" />
        <dc:title></dc:title>
      </cc:Work>
    </rdf:RDF>
  </metadata>
  <g
     inkscape:label="Layer 1"
     inkscape:groupmode="layer"
     id="layer1"
     transform="translate(-136.58723,-176.60995)">
    <path
       style="color:#000000;fill:#ffffff;fill-opacity:1;fill-rule:nonzero;stroke:none;stroke-width:4;marker:none;visibility:visible;display:inline;overflow:visible;enable-background:accumulate"
       id="path2816"
       d="m -19.931359,757.59308 c 7.313213,0.0495 14.6266891,0.0488 21.9400407,0.0533 10.0157693,0.004 20.0315393,0.006 30.0473093,0.009 11.117036,0.004 22.234073,0.006 33.351109,0.007 12.493812,-0.35211 24.963969,-1.24855 37.44546,-1.88125 13.71174,-0.47938 27.40957,-1.09384 41.10409,-1.93484 15.08282,-0.77294 30.15506,-1.66279 45.22553,-2.64892 17.10949,-1.01031 34.18576,-2.51324 51.24793,-4.12162 19.24972,-1.64253 38.48871,-3.41087 57.76048,-4.77957 21.18005,-1.34641 42.35365,-2.73933 63.55566,-3.69769 23.094,-0.92864 46.2068,-1.08662 69.30923,-1.72258 25.38173,-0.79769 50.7688,-1.37238 76.15974,-1.76738 25.99725,-0.66084 51.98563,-1.61068 77.98218,-2.30142 25.17867,-0.57841 50.36473,-1.06825 75.55028,-0.82382 23.1937,0.2414 46.34903,1.4621 69.49411,2.8841 20.47615,1.30519 40.94187,2.85397 61.38709,4.5822 17.36845,1.13166 34.60777,3.35787 51.83308,5.77523 9.97395,1.3472 5.06751,0.70406 14.71884,1.93319 0,0 -9.02499,6.38173 -9.02499,6.38173 l 0,0 c -9.6303,-1.25862 -4.733,-0.60363 -14.69148,-1.9681 -17.18842,-2.42716 -34.39615,-4.61846 -51.72661,-5.77611 -20.42038,-1.72618 -40.85815,-3.30526 -61.30973,-4.60691 -23.1181,-1.42409 -46.24735,-2.63621 -69.41423,-2.87221 -25.16779,-0.22587 -50.33569,0.24563 -75.4964,0.83246 -25.99919,0.69245 -51.99013,1.65006 -77.99057,2.29303 -25.40002,0.40202 -50.79587,0.99411 -76.1864,1.80269 -23.11538,0.63891 -46.24159,0.81577 -69.34756,1.77494 -21.20755,0.98072 -42.38793,2.38062 -63.57349,3.74584 -19.28197,1.39802 -38.53394,3.16382 -57.79362,4.83454 -17.08131,1.61262 -34.17741,3.10531 -51.30575,4.12562 -15.08598,0.99782 -30.17555,1.87704 -45.27311,2.67767 -13.70156,0.83533 -27.40821,1.42192 -41.125089,1.93701 -12.50413,0.65428 -24.998751,1.56575 -37.518355,1.86373 -11.123639,10e-4 -22.247279,0.003 -33.370918,0.007 -10.024271,0.003 -20.0485432,0.005 -30.0728134,0.009 -7.3622516,0.005 -14.7246236,0.004 -22.0867396,0.0533 0,0 9.195696,-6.68106 9.195696,-6.68106 z" />
    <path
       style="color:#000000;fill:#241f1c;fill-opacity:1;fill-rule:nonzero;stroke:none;stroke-width:4;marker:none;visibility:visible;display:inline;overflow:visible;enable-background:accumulate"
       id="path2818"
       d="m 145.78293,786.16451 c 9.39283,-0.12936 18.76646,0.42234 28.14222,0.90615 20.07618,1.06623 40.17246,1.66778 60.27589,1.74298 29.06967,-0.23168 58.13218,-0.98274 87.19736,-1.51594 33.6348,-0.61027 67.27435,-0.8612 100.91387,-1.01157 33.12374,-0.26504 66.24072,0.69489 99.35136,1.49077 27.91374,0.71693 55.83457,0.99926 83.74227,1.93298 18.336,0.40691 36.62338,1.66925 54.88905,3.25631 8.23075,1.12896 16.71377,1.64875 24.58201,4.49693 1.192,0.59827 2.26692,1.26471 3.60905,1.30728 0,0 -9.31921,6.53669 -9.31921,6.53669 l 0,0 c -1.28099,-0.3642 -2.46015,-0.93019 -3.65785,-1.51495 -7.77701,-2.71255 -16.11722,-3.29393 -24.22516,-4.39988 -18.17627,-1.64231 -36.37725,-2.92736 -54.62809,-3.37063 -27.85286,-0.976 -55.72021,-1.29444 -83.57982,-2.0374 -33.08734,-0.82366 -66.18189,-1.76957 -99.28304,-1.50241 -33.65276,0.1579 -67.30574,0.41162 -100.95322,1.0589 -29.12157,0.56428 -58.24022,1.35188 -87.36665,1.60971 -20.1867,-0.0618 -40.36725,-0.61631 -60.52988,-1.62143 -9.44687,-0.44608 -18.89499,-0.93157 -28.35586,-0.68343 0,0 9.1957,-6.68106 9.1957,-6.68106 z" />
    <path
       style="color:#000000;fill:#241f1c;fill-opacity:1;fill-rule:nonzero;stroke:none;stroke-width:4;marker:none;visibility:visible;display:inline;overflow:visible;enable-background:accumulate"
       id="path2820"
       d="m 278.95696,782.46333 c -2.65427,5.42093 -4.44942,11.20597 -6.11708,16.99037 -0.98267,3.40389 -1.70706,6.87232 -2.54687,10.31175 -3.41537,1.05085 -6.68876,2.81451 -10.24612,3.15257 -0.0135,0.001 0.0401,-2.1676 0.11098,-4.6872 0.0829,-2.94571 0.17758,-5.86707 0.40305,-8.80594 0.58991,-5.7143 1.52274,-11.38511 2.28036,-17.07827 -1.19323,-5.50417 9.02651,-17.5854 12.55471,-7.32308 1.1072,5.24422 1.89188,10.56469 2.70156,15.86527 0.59952,4.22047 1.08773,8.45669 1.44559,12.70445 0.0797,1.10806 0.0434,0.63248 0.10579,1.42697 0,0 -10.13405,5.22867 -10.13405,5.22867 l 0,0 c -0.0187,-0.79475 -0.004,-0.3207 -0.0558,-1.42176 -0.28071,-4.23749 -0.74358,-8.46136 -1.33328,-12.66678 -0.78938,-5.23486 -1.6042,-10.47795 -2.65279,-15.66449 -1.77358,-5.2939 -0.99456,-1.19013 8.93512,-7.99172 0.40536,-0.27766 -0.80036,0.67783 -0.91502,1.1556 -0.28997,1.20825 -0.20564,2.48791 -0.51846,3.69146 -0.7567,5.68295 -1.70945,11.33968 -2.33384,17.03963 -0.31725,3.7382 -0.38791,7.47469 -0.45984,11.2251 -0.0138,0.71899 0.51183,1.68791 -0.0331,2.15711 -3.09308,2.66302 -6.8339,4.46465 -10.25085,6.69698 1.88454,-1.96708 1.24136,-7.85424 2.77581,-10.18838 1.65546,-5.81284 3.43626,-11.61249 5.92592,-17.1319 0,0 10.35827,-4.68641 10.35827,-4.68641 z" />
    <path
       style="color:#000000;fill:#241f1c;fill-opacity:1;fill-rule:nonzero;stroke:none;stroke-width:4;marker:none;visibility:visible;display:inline;overflow:visible;enable-background:accumulate"
       id="path2822"
       d="m 625.19571,776.60996 c 0.99013,5.78563 1.2623,11.61045 1.20322,17.468 -0.17356,4.49396 -0.0194,9.22986 -1.95427,13.39852 -11.57094,16.32155 -12.39306,-0.59564 -12.76591,-5.64579 -0.0495,-5.80889 0.92662,-11.56186 1.82919,-17.28195 0.32126,-1.87508 0.63118,-3.75759 1.13975,-5.59281 0,0 10.32707,-4.81337 10.32707,-4.81337 l 0,0 c -0.79817,1.69371 -0.88703,3.64225 -1.3256,5.44114 -0.92566,5.64345 -1.9003,11.31691 -1.95028,17.05059 0.1708,2.44442 0.32566,4.88672 0.84984,7.28818 0.13632,0.62449 0.969,1.42335 0.4953,1.85251 -2.85279,2.58458 -6.46406,4.18579 -9.60956,6.40485 -0.17154,0.12102 0.41744,-0.0449 0.62616,-0.0673 2.53108,-3.70362 1.97375,-8.68989 2.30379,-12.93719 0.0835,-5.79101 -0.11001,-11.55803 -1.22153,-17.26221 0,0 10.05283,-5.30317 10.05283,-5.30317 z" />
    <path
       style="color:#000000;fill:#241f1c;fill-opacity:1;fill-rule:nonzero;stroke:none;stroke-width:4;marker:none;visibility:visible;display:inline;overflow:visible;enable-background:accumulate"
       id="path2824"
       d="m 263.24387,739.61085 c -1.84591,-8.14028 -3.32568,-16.36498 -4.73722,-24.59093 -1.18261,-7.79291 -0.62321,-3.88625 -1.67763,-11.72006 0,0 9.83814,-5.1792 9.83814,-5.1792 l 0,0 c 1.04404,7.80687 0.48592,3.91541 1.6736,11.67448 1.42292,8.16126 2.91313,16.32806 4.88104,24.37679 0,0 -9.97793,5.43892 -9.97793,5.43892 z" />
    <path
       style="color:#000000;fill:#241f1c;fill-opacity:1;fill-rule:nonzero;stroke:none;stroke-width:4;marker:none;visibility:visible;display:inline;overflow:visible;enable-background:accumulate"
       id="path2826"
       d="m 266.36476,653.75725 c 0.0746,-7.35122 0.0739,-14.70303 0.0808,-22.05455 0.0661,-4.582 0.42294,-9.15068 0.77019,-13.71734 0,0 10.01527,-5.00528 10.01527,-5.00528 l 0,0 c -0.36272,4.54213 -0.73552,9.08622 -0.8194,13.64465 0.007,7.32409 0.006,14.64846 0.0808,21.97223 0,0 -10.12763,5.16029 -10.12763,5.16029 z" />
    <path
       style="color:#000000;fill:#241f1c;fill-opacity:1;fill-rule:nonzero;stroke:none;stroke-width:4;marker:none;visibility:visible;display:inline;overflow:visible;enable-background:accumulate"
       id="path2828"
       d="m 274.68059,579.80384 c -1.16109,-3.86422 -2.34671,-7.71954 -3.46427,-11.59693 0,0 9.85475,-5.37749 9.85475,-5.37749 l 0,0 c 1.12767,3.84988 2.3208,7.67644 3.57115,11.48811 0,0 -9.96163,5.48631 -9.96163,5.48631 z" />
    <path
       style="color:#000000;fill:#241f1c;fill-opacity:1;fill-rule:nonzero;stroke:none;stroke-width:4;marker:none;visibility:visible;display:inline;overflow:visible;enable-background:accumulate"
       id="path2830"
       d="m 269.09,533.82869 c -0.92695,-6.71993 -2.3434,-13.36419 -3.46539,-20.05539 -0.96427,-6.12199 -1.80976,-12.27224 -2.00369,-18.47027 0,0 10.02003,-5.13571 10.02003,-5.13571 l 0,0 c 0.10132,6.15823 0.94864,12.26756 1.89143,18.3488 1.11891,6.68657 2.51893,13.32103 3.61045,20.0094 0,0 -10.05283,5.30317 -10.05283,5.30317 z" />
    <path
       style="color:#000000;fill:#241f1c;fill-opacity:1;fill-rule:nonzero;stroke:none;stroke-width:4;marker:none;visibility:visible;display:inline;overflow:visible;enable-background:accumulate"
       id="path2832"
       d="m 274.67244,465.32513 c -1.59877,-6.09838 -3.49618,-12.10976 -5.12484,-18.20036 -1.07982,-4.44434 -2.38578,-8.82851 -3.5868,-13.24066 0,0 9.89342,-5.37491 9.89342,-5.37491 l 0,0 c 1.18903,4.419 2.49778,8.80615 3.56305,13.25759 1.62302,6.07614 3.51701,12.07025 5.2331,18.11943 0,0 -9.97793,5.43891 -9.97793,5.43891 z" />
    <path
       style="color:#000000;fill:#241f1c;fill-opacity:1;fill-rule:nonzero;stroke:none;stroke-width:4;marker:none;visibility:visible;display:inline;overflow:visible;enable-background:accumulate"
       id="path2834"
       d="m 266.10101,391.03942 c -1.82727,-7.6351 -3.32785,-15.35273 -4.74214,-23.07485 -1.29189,-8.11237 -2.28063,-16.27083 -3.32736,-24.41788 0,0 9.81586,-5.16094 9.81586,-5.16094 l 0,0 c 1.04956,8.12019 2.04955,16.25115 3.35546,24.33464 1.4251,7.66367 2.9326,15.33066 4.87612,22.88011 0,0 -9.97794,5.43892 -9.97794,5.43892 z" />
    <path
       style="color:#000000;fill:#241f1c;fill-opacity:1;fill-rule:nonzero;stroke:none;stroke-width:4;marker:none;visibility:visible;display:inline;overflow:visible;enable-background:accumulate"
       id="path2836"
       d="m 615.07801,756.37984 c 0.8001,-7.53355 1.80884,-15.0354 2.87465,-22.53578 0.84705,-5.77548 1.44675,-11.58097 2.28856,-17.35649 0,0 10.07151,-4.9437 10.07151,-4.9437 l 0,0 c -0.89536,5.77182 -1.47966,11.58218 -2.32287,17.36237 -1.05103,7.46606 -2.09941,14.92765 -2.72928,22.44382 0,0 -10.18257,5.02978 -10.18257,5.02978 z" />
    <path
       style="color:#000000;fill:#241f1c;fill-opacity:1;fill-rule:nonzero;stroke:none;stroke-width:4;marker:none;visibility:visible;display:inline;overflow:visible;enable-background:accumulate"
       id="path2838"
       d="m 623.37572,690.97155 c -0.85946,-6.05019 -1.45866,-12.13104 -1.96525,-18.21949 -0.54035,-5.20763 -0.2808,-10.43948 0.009,-15.65115 0,0 10.03178,-5.03851 10.03178,-5.03851 l 0,0 c -0.31167,5.16109 -0.61645,10.34639 -0.0714,15.50567 0.5021,6.05193 1.08087,12.10217 2.04909,18.1003 0,0 -10.05283,5.30318 -10.05283,5.30318 z" />
    <path
       style="color:#000000;fill:#241f1c;fill-opacity:1;fill-rule:nonzero;stroke:none;stroke-width:4;marker:none;visibility:visible;display:inline;overflow:visible;enable-background:accumulate"
       id="path2840"
       d="m 629.2219,593.75725 c 0.60308,-6.70623 1.33717,-13.39959 1.917,-20.10872 0.40583,-5.28456 0.21764,-2.6546 0.56539,-7.88982 0,0 10.0334,-5.02907 10.0334,-5.02907 l 0,0 c -0.34589,5.25023 -0.15941,2.61313 -0.56017,7.91126 -0.56206,6.65669 -1.24853,13.30124 -1.82799,19.95606 0,0 -10.12763,5.16029 -10.12763,5.16029 z" />
    <path
       style="color:#000000;fill:#241f1c;fill-opacity:1;fill-rule:nonzero;stroke:none;stroke-width:4;marker:none;visibility:visible;display:inline;overflow:visible;enable-background:accumulate"
       id="path2842"
       d="m 632.07904,513.75725 c 0.069,-6.53715 0.0605,-13.07485 0.0591,-19.61228 0.18795,-6.19167 -0.63897,-12.34192 -1.5202,-18.4537 0,0 9.98826,-5.26867 9.98826,-5.26867 l 0,0 c 0.86892,6.16944 1.73202,12.3746 1.54131,18.62234 -10e-4,6.51735 -0.0101,13.03496 0.0591,19.55202 0,0 -10.12763,5.16029 -10.12763,5.16029 z" />
    <path
       style="color:#000000;fill:#241f1c;fill-opacity:1;fill-rule:nonzero;stroke:none;stroke-width:4;marker:none;visibility:visible;display:inline;overflow:visible;enable-background:accumulate"
       id="path2844"
       d="m 623.37572,442.40012 c -0.7632,-5.79792 -1.55215,-11.59697 -1.81512,-17.44155 -0.0839,-3.1538 0.11856,-6.30109 0.3252,-9.44531 0,0 10.07963,-5.0481 10.07963,-5.0481 l 0,0 c -0.22761,3.1094 -0.45885,6.22198 -0.39751,9.34313 0.20988,5.79814 0.99693,11.55423 1.86063,17.28866 0,0 -10.05283,5.30317 -10.05283,5.30317 z" />
    <path
       style="color:#000000;fill:#241f1c;fill-opacity:1;fill-rule:nonzero;stroke:none;stroke-width:4;marker:none;visibility:visible;display:inline;overflow:visible;enable-background:accumulate"
       id="path2846"
       d="m 626.36476,376.61439 c 0.0676,-6.68835 0.0627,-13.37724 0.0657,-20.06586 0.13086,-3.89372 -0.15288,-7.77766 -0.43581,-11.65676 0,0 9.96739,-5.17176 9.96739,-5.17176 l 0,0 c 0.29323,3.90457 0.60351,7.81478 0.46468,11.73517 0.003,6.66631 -0.002,13.33289 0.0657,19.99892 0,0 -10.12763,5.16029 -10.12763,5.16029 z" />
    <path
       style="color:#000000;fill:#241f1c;fill-opacity:1;fill-rule:nonzero;stroke:none;stroke-width:4;marker:none;visibility:visible;display:inline;overflow:visible;enable-background:accumulate"
       id="path2848"
       d="m 248.50279,844.27414 c -5.29217,-0.57034 -22.19088,9.27058 -5.72968,0.14804 -3.45943,2.58183 -6.91785,5.7977 -5.48609,10.39293 2.80172,4.05291 7.79236,1.37234 11.2182,-0.35505 -2.24868,1.2565 -4.34498,2.8366 -6.74602,3.7695 -1.14437,0.44464 1.97232,-1.46677 2.89727,-2.27409 4.21954,-3.68296 7.71309,-8.14833 11.09901,-12.57689 7.66595,-11.15722 8.79551,-11.13142 21.71495,-17.56637 4.3804,2.15514 5.11229,7.91042 6.34562,12.18242 1.52334,5.19102 2.49254,10.63948 5.57944,15.17468 1.82144,1.71819 0.81138,1.04579 3.00589,2.05321 0,0 -9.47286,6.21216 -9.47286,6.21216 l 0,0 c -2.40699,-1.38025 -1.30526,-0.53821 -3.29353,-2.54128 -3.10091,-4.67078 -4.19549,-10.17164 -5.70939,-15.50126 -1.00844,-3.43757 -1.61522,-9.566 -5.54218,-10.78301 2.76594,-1.74262 5.56378,-3.43561 8.29783,-5.22785 0.54052,-0.35433 -1.18809,0.53182 -1.71181,0.91054 -3.79699,2.74573 -5.98036,7.14287 -8.92538,10.65749 -7.35023,9.83909 -14.64705,17.46212 -26.35583,22.53041 -4.26415,1.87825 -9.35325,3.57728 -12.33696,-1.19726 -1.73397,-5.03969 0.97801,-8.65997 4.91505,-11.77346 8.08318,-4.75831 15.76095,-10.53334 25.43216,-10.91592 0,0 -9.19569,6.68106 -9.19569,6.68106 z" />
    <path
       style="color:#000000;fill:#241f1c;fill-opacity:1;fill-rule:nonzero;stroke:none;stroke-width:4;marker:none;visibility:visible;display:inline;overflow:visible;enable-background:accumulate"
       id="path2850"
       d="m 626.36476,888.04296 c 0.35855,-6.56611 1.6177,-13.01382 3.63533,-19.26021 2.99476,-8.14336 9.81163,-16.34381 19.56555,-16.3557 5.09202,1.63925 6.27946,6.84464 6.85026,11.57782 0.47158,5.51447 -1.12173,10.55611 -4.54148,14.84202 -7.7631,7.32597 -13.70974,11.44579 -21.78743,5.36438 -6.00205,-5.91023 -8.97845,-14.05173 -12.01434,-21.73703 -3.40632,-8.73667 -6.32117,-17.65819 -9.21531,-26.5753 -3.31772,-11.1851 -5.89596,-6.32949 6.90364,-11.24973 0.81827,9.7079 1.66149,19.41166 2.30954,29.13359 0.43645,11.19914 0.59244,22.47017 -1.36548,33.53811 0,0 -10.08282,4.90403 -10.08282,4.90403 l 0,0 c 2.17919,-10.97192 2.00628,-22.1975 1.58987,-33.33488 -0.6661,-9.70916 -1.50486,-19.40115 -2.51651,-29.08043 12.28182,-10.52787 9.30979,-10.85914 13.00022,0.68483 2.83417,8.91438 5.71537,17.82729 9.12584,26.54023 2.96454,7.47241 5.85774,15.45835 11.79433,21.12371 1.89161,1.29665 3.59537,2.51168 6.02425,2.26379 0.6565,-0.067 2.45233,-0.88418 1.9154,-0.50054 -18.67674,13.34493 -7.70173,4.62497 -6.09243,3.32759 3.6147,-3.86612 5.31211,-8.68786 4.95281,-14.00876 -0.40945,-4.03274 -1.20038,-9.24569 -5.9616,-10.07455 -4.46324,0.81089 -3.47328,0.84318 6.10504,-4.47989 0.67478,-0.375 -1.25204,0.91268 -1.80349,1.45291 -2.23346,2.18799 -3.50158,4.98154 -4.58554,7.86734 -2.0968,6.10013 -3.34897,12.42289 -3.67802,18.87639 0,0 -10.12763,5.16028 -10.12763,5.16028 z" />
    <path
       style="color:#000000;fill:#241f1c;fill-opacity:1;fill-rule:nonzero;stroke:none;stroke-width:4;marker:none;visibility:visible;display:inline;overflow:visible;enable-background:accumulate"
       id="path2852"
       d="m 327.92096,773.82426 c -0.26398,5.53205 0.41837,11.02767 1.08991,16.50571 0.61978,4.82754 1.18638,9.66124 1.68336,14.50293 0.1045,1.01688 0.19683,2.0349 0.28305,3.05346 0,0 -10.11312,5.24328 -10.11312,5.24328 l 0,0 c -0.058,-1.01836 -0.12996,-2.03578 -0.22319,-3.05162 -0.44026,-4.84673 -0.98809,-9.68215 -1.60827,-14.50916 -0.67903,-5.50527 -1.39215,-11.02413 -1.23937,-16.58431 0,0 10.12763,-5.16029 10.12763,-5.16029 z" />
    <path
       style="color:#000000;fill:#241f1c;fill-opacity:1;fill-rule:nonzero;stroke:none;stroke-width:4;marker:none;visibility:visible;display:inline;overflow:visible;enable-background:accumulate"
       id="path2856"
       d="m 341.57321,842.3503 c -4.57669,3.39307 -8.51554,7.44255 -12.00947,11.92202 -1.4011,2.27805 -5.64017,7.32559 -3.09701,10.0656 3.36804,0.32463 13.18441,-5.59313 -5.11715,3.8816 -1.10231,0.57066 1.9521,-1.53814 2.86154,-2.38294 2.862,-2.85682 5.32907,-6.07538 8.21011,-8.91482 6.80451,-4.5792 11.63424,-10.07783 15.41233,-2.5564 1.39086,3.54195 2.77883,7.09767 4.00842,10.70224 0.95547,2.62537 1.3845,5.41087 2.47992,7.98269 0.48887,0.96055 0.21324,0.5715 0.7582,1.2129 0,0 -9.7874,5.83448 -9.7874,5.83448 l 0,0 c -0.6416,-0.87277 -0.3359,-0.38602 -0.88722,-1.47858 -1.11957,-2.60333 -1.55575,-5.40726 -2.48039,-8.08275 -1.20147,-3.55764 -2.5862,-7.0562 -3.95269,-10.54985 -0.4319,-0.84646 -0.85421,-2.12984 -1.87907,-2.47706 -0.55035,-0.18645 -2.21728,0.55202 -1.72649,0.24093 2.80829,-1.78004 5.70217,-3.42132 8.55326,-5.13198 -3.05245,2.66895 -5.41266,6.00201 -8.24339,8.88803 -4.45679,4.71585 -11.49038,11.35967 -17.96914,8.67277 -2.7289,-3.65856 0.36215,-8.25052 2.50478,-11.45584 3.3986,-4.55817 7.25827,-8.69691 11.80718,-12.13776 0,0 10.55368,-4.23528 10.55368,-4.23528 z" />
    <path
       style="color:#000000;fill:#241f1c;fill-opacity:1;fill-rule:nonzero;stroke:none;stroke-width:4;marker:none;visibility:visible;display:inline;overflow:visible;enable-background:accumulate"
       id="path2860"
       d="m 353.63524,819.53855 c -0.0663,6.63124 -0.0654,13.26303 -0.0617,19.89455 0,0 -10.00416,5.09737 -10.00416,5.09737 l 0,0 c 0.004,-6.61054 0.005,-13.22137 -0.0617,-19.83164 0,0 10.12763,-5.16028 10.12763,-5.16028 z" />
    <path
       style="color:#000000;fill:#241f1c;fill-opacity:1;fill-rule:nonzero;stroke:none;stroke-width:4;marker:none;visibility:visible;display:inline;overflow:visible;enable-background:accumulate"
       id="path2862"
       d="m 582.20667,776.6814 c -0.41398,6.77736 -1.5459,13.46908 -2.6918,20.15182 -1.09628,5.26742 -0.51827,2.68024 -1.72758,7.76298 0,0 -10.12141,4.85795 -10.12141,4.85795 l 0,0 c 1.24163,-5.04474 0.6494,-2.47872 1.77039,-7.69949 1.13361,-6.60424 2.27129,-13.21111 2.64277,-19.91297 0,0 10.12763,-5.16029 10.12763,-5.16029 z" />
    <path
       style="color:#000000;fill:#241f1c;fill-opacity:1;fill-rule:nonzero;stroke:none;stroke-width:4;marker:none;visibility:visible;display:inline;overflow:visible;enable-background:accumulate"
       id="path2864"
       d="m 549.4774,888.0493 c 1.49252,-5.10746 4.13734,-9.6511 7.61693,-13.64052 5.74854,-4.93821 13.69163,-11.92153 20.2287,-5.8904 2.98636,3.81367 2.67536,8.15104 1.66648,12.61453 -1.47017,4.91911 -4.07908,9.22304 -7.66629,12.8579 -6.12332,5.06779 -12.66999,10.44886 -20.21263,6.98052 -4.9558,-3.09036 -8.26586,-8.07502 -11.4923,-12.81362 -3.50841,-5.57356 -6.33877,-11.55321 -8.80662,-17.65057 -1.53158,-3.9352 -2.36539,-8.07163 -2.59237,-12.27693 0.0515,-2.24346 -0.25138,-4.75112 1.10821,-6.67958 3.71871,-1.15636 7.28788,-3.01894 11.15613,-3.46906 1.29284,-0.15044 3.75204,13.35614 3.92064,14.47844 1.04317,8.26759 1.15533,16.61321 1.19939,24.93459 -0.055,4.38809 0.20226,9.02432 -1.73536,13.07368 0,0 -10.3733,4.6132 -10.3733,4.6132 l 0,0 c 2.53564,-3.57367 1.91806,-8.43471 2.10978,-12.58887 2.2e-4,-8.27081 -0.10529,-16.56557 -1.13336,-24.78391 -0.49191,-3.28659 -0.98274,-6.54985 -1.98503,-9.72998 -0.25201,-0.79959 -0.5456,-1.58675 -0.86936,-2.36008 -0.27377,-0.65394 -1.42246,-1.41556 -0.92124,-1.91692 2.65114,-2.65179 6.16335,-4.27263 9.24502,-6.40894 -2.22619,0.3974 -1.43396,4.03708 -1.63212,5.64273 0.12424,4.09738 0.8871,8.13062 2.35192,11.97111 2.3939,6.04039 5.1837,11.9519 8.65882,17.45152 3.11973,4.54813 6.31178,9.42685 11.21032,12.22205 1.77545,0.65596 3.19774,1.05403 5.09965,0.59348 0.54711,-0.13248 2.06115,-0.87975 1.58788,-0.57495 -2.61642,1.68508 -5.36447,3.15645 -8.0467,4.73468 0.56397,-0.37714 1.12794,-0.75428 1.69191,-1.13143 3.69793,-3.39593 6.35047,-7.48701 7.93776,-12.27888 1.04015,-4.01063 1.66565,-8.03375 -1.1072,-11.51564 -1.28253,-1.05431 -2.43973,-1.8073 -4.20595,-1.61361 -0.61266,0.0672 -2.29025,0.82984 -1.78733,0.47356 1.81837,-1.28819 11.89652,-7.40676 5.80214,-3.32086 -3.6066,3.71851 -6.31111,8.15589 -7.73071,13.1684 0,0 -10.29381,4.83436 -10.29381,4.83436 z" />
    <path
       style="color:#000000;fill:#241f1c;fill-opacity:1;fill-rule:nonzero;stroke:none;stroke-width:4;marker:none;visibility:visible;display:inline;overflow:visible;enable-background:accumulate"
       id="path2866"
       d="m 574.12922,830.29162 c 2.69866,3.9517 5.07258,8.10806 7.74898,12.07625 0,0 -9.70541,5.69395 -9.70541,5.69395 l 0,0 c -2.65838,-3.94321 -5.02098,-8.08008 -7.80478,-11.93611 0,0 9.76121,-5.83409 9.76121,-5.83409 z" />
    <path
       style="color:#000000;fill:#241f1c;fill-opacity:1;fill-rule:nonzero;stroke:none;stroke-width:4;marker:none;visibility:visible;display:inline;overflow:visible;enable-background:accumulate"
       id="path2868"
       d="m 288.05286,176.60996 c 0.96536,7.26774 1.40845,14.58808 2.10343,21.88291 1.05824,11.30118 2.33895,22.57509 3.65732,33.84817 1.67833,11.92394 3.26607,23.85972 4.99254,35.77679 1.49844,9.78662 3.76317,19.47215 8.14693,28.38215 3.17852,6.1927 8.39314,9.96204 14.39698,13.06554 4.81449,2.2821 8.94469,4.34639 11.07126,9.43013 1.43105,8.99673 -2.7107,17.88338 -5.74528,26.15729 -5.61698,14.15571 -11.25238,28.30352 -16.41576,42.6325 -4.84927,12.82266 -8.6994,25.93841 -11.07252,39.43737 -1.69768,10.3098 -0.42942,20.49919 1.96807,30.55553 2.19409,8.52003 6.68652,16.08169 11.40348,23.40848 4.66662,6.83277 9.90213,13.24952 14.48385,20.13943 5.07057,6.97667 7.523,15.07948 9.5691,23.32777 2.01305,8.08247 2.56779,16.39076 3.43552,24.64056 0.4581,5.29636 1.67725,10.45665 3.8321,15.30961 2.0296,3.88867 3.18689,8.04524 3.86734,12.35378 0.78846,6.66585 -0.08,13.4254 -1.03743,20.03112 -1.27869,7.87582 -2.92174,15.69704 -3.62678,23.65174 -0.39181,6.50765 0.0764,13.00549 1.21502,19.41263 1.34496,6.10456 2.41522,12.25618 3.11997,18.46648 0.7458,7.4138 0.79333,14.8724 0.82244,22.31615 -0.0994,6.07799 0.003,12.22963 2.04876,18.01101 0.78064,1.32966 1.41487,1.2959 2.70396,0.66747 0.43801,-0.21353 1.70524,-0.94402 1.2818,-0.70289 -9.91686,5.64731 -10.87169,6.22823 -6.95225,3.89755 7.20709,-4.7758 12.27758,-9.66135 17.51907,-2.84865 2.90485,4.32126 4.36712,9.38798 6.29161,14.17963 2.10695,4.98059 4.66362,9.68199 8.403,13.61148 2.8779,2.74291 5.48215,2.78975 8.94149,1.32362 -16.90932,10.951 -2.83679,0.73246 0.69088,-2.54125 5.92219,-4.93224 12.46673,-10.56512 20.31279,-11.53516 4.06782,0.299 6.90166,3.31616 9.5272,6.12899 2.73348,3.17231 5.19061,6.55922 8.42852,9.24548 2.97057,2.1927 6.04022,1.71487 9.29084,0.57823 3.71159,-1.56928 7.013,-0.93061 10.71791,0.16066 4.05202,1.23156 8.11155,2.40393 12.11384,3.78823 4.21226,1.58631 7.34789,4.86123 10.73969,7.67862 2.86896,2.37136 5.81577,3.64801 9.52521,3.48133 -0.76744,1.38986 5.75606,-2.67592 4.35421,-1.9306 -13.73505,7.30248 -8.88794,5.08593 -5.18363,1.82376 3.21952,-2.87842 6.28064,-5.9114 9.01703,-9.2541 2.65071,-3.35707 5.29618,-6.71543 8.00825,-10.02364 4.83566,-5.23269 11.41274,-11.31255 18.8414,-11.09215 4.13407,1.49336 5.58471,5.98197 7.06277,9.7342 1.48083,4.83474 3.34639,9.46352 6.46387,13.47014 2.69648,3.0679 5.47352,2.95452 9.05729,1.67129 5.94451,-3.22677 -3.95655,2.34996 -6.02722,3.34646 -0.70785,0.34066 1.25756,-0.94251 1.86645,-1.43886 2.10605,-1.71683 3.90661,-3.62991 5.71883,-5.64635 4.40805,-4.99567 8.2361,-10.45364 12.14664,-15.83633 3.23418,-4.65165 6.81185,-9.01844 11.11551,-12.71342 4.46163,-3.34893 9.5276,-5.87237 14.34188,-8.61842 0.44542,-0.25407 1.80729,-0.9693 1.36323,-0.71286 -9.43914,5.45111 -11.08444,6.73872 -7.34169,3.97453 2.73644,-2.05909 4.49119,-4.90962 6.16698,-7.82434 1.90084,-3.09589 3.09177,-6.46059 3.84386,-9.99441 0.65643,-3.5843 0.73775,-7.17846 0.14258,-10.76489 -0.96406,-3.85477 -1.77892,-7.73054 -2.38452,-11.65764 -0.35037,-5.32124 0.43991,-10.63753 1.00798,-15.9184 0.79846,-6.15679 2.25336,-12.18062 4.07083,-18.10747 2.02674,-7.16188 5.39549,-13.81316 8.79503,-20.39836 3.8858,-6.88234 7.9316,-13.66406 11.60194,-20.66608 3.47232,-6.84865 6.62386,-13.86188 9.14414,-21.11705 1.85933,-5.53642 2.70006,-11.29778 2.96757,-17.10907 0.16057,-4.51362 -0.18815,-8.9917 -0.91693,-13.44028 -0.96279,-6.1478 -2.43897,-12.19431 -3.64753,-18.29549 -1.53958,-6.66299 -2.98771,-13.34549 -4.66693,-19.97493 -1.59959,-6.087 -3.32101,-12.13692 -4.91717,-18.22595 -2.02317,-6.83549 -2.92368,-13.90136 -3.96113,-20.92924 -1.37805,-8.13419 -2.16942,-16.34236 -2.66825,-24.57189 -0.81862,-12.55021 -0.2704,-25.10729 0.31786,-37.65115 1.23425,-23.64163 4.93143,-47.04477 8.67484,-70.38955 0.97558,-5.61782 1.95117,-11.23565 2.92676,-16.85347 0,0 9.46615,-4.62215 9.46615,-4.62215 l 0,0 c -0.9513,5.60076 -1.90259,11.20152 -2.85389,16.80228 -3.62827,23.25518 -7.22278,46.56649 -8.37467,70.10518 -0.5381,12.48505 -1.06048,24.98155 -0.22074,37.46911 0.50897,8.1931 1.28104,16.36741 2.66296,24.46528 1.04795,6.98323 1.90048,14.01529 3.92657,20.80749 1.61332,6.08777 3.31456,12.14812 4.92109,18.23641 1.68167,6.64977 3.12305,13.35334 4.68542,20.03206 1.20768,6.10732 2.71698,12.15054 3.70805,18.29927 0.78435,4.51652 1.18741,9.05853 1.02372,13.65111 -0.2253,5.91252 -1.03843,11.77654 -2.87431,17.42513 -2.47817,7.31608 -5.6398,14.36889 -9.08917,21.27707 -3.63667,7.0221 -7.65287,13.82071 -11.60646,20.66666 -3.40694,6.51669 -6.79934,13.1065 -8.8463,20.2012 -1.83758,5.85853 -3.30847,11.81099 -4.14817,17.90198 -0.5531,5.19247 -1.31811,10.40805 -1.10348,15.64081 0.58535,3.92171 1.39211,7.79012 2.3843,11.6297 0.6756,3.70832 0.6695,7.4062 0.0497,11.1366 -0.67863,3.6396 -1.77943,7.12994 -3.68719,10.33136 -1.71888,2.9498 -3.26876,6.01139 -5.98632,8.20834 -4.32355,3.6986 -24.06361,14.33248 -5.1518,3.31701 1.10744,-0.64505 -4.83992,2.73058 -3.2598,2.0387 -4.44044,3.50543 -8.03893,7.84987 -11.27743,12.47166 -3.92024,5.38641 -7.71936,10.87357 -12.07799,15.92189 -5.73577,6.63343 -12.47831,11.86654 -20.91396,15.05152 -3.97986,1.04449 -7.06535,0.43507 -9.82248,-2.81452 -3.12502,-4.1225 -5.10408,-8.81677 -6.59576,-13.75806 -1.25753,-3.18159 -2.51775,-7.7725 -6.35616,-8.51766 -3.97513,0.53597 -9.71956,4.30984 5.20433,-4.07748 2.81027,-1.57939 -6.92131,4.25635 -4.4812,4.01446 -2.68247,3.33096 -5.40562,6.62483 -8.01666,10.0126 -2.65213,3.45181 -5.73763,6.49776 -8.93369,9.44366 -5.49724,4.75196 -11.54532,9.81867 -18.8367,11.03995 -3.84434,-0.14505 -6.99312,-1.69304 -9.94248,-4.15475 -3.28251,-2.76038 -6.36637,-5.8997 -10.51472,-7.33221 -3.99062,-1.36431 -8.04374,-2.51877 -12.08279,-3.73051 -3.61865,-0.96464 -6.79758,-1.10798 -10.34066,0.37264 -3.58011,0.99292 -6.89603,0.88034 -9.93984,-1.51566 -3.20548,-2.77732 -5.71713,-6.1636 -8.48173,-9.36033 -2.4434,-2.56219 -5.08358,-5.42031 -8.91944,-5.19441 -4.09428,0.91261 -9.60898,4.4942 4.58282,-3.59971 2.96305,-1.68989 -7.90603,4.58061 -5.38037,4.02374 -6.0741,5.75309 -12.18225,10.34321 -20.07891,13.81726 -3.79884,1.20803 -6.78999,0.40998 -9.67662,-2.42808 -3.76431,-4.08539 -6.41021,-8.89046 -8.58047,-13.9912 -1.89153,-4.68602 -3.31967,-9.65703 -6.18734,-13.86924 -0.8599,-1.06542 -1.68101,-2.15967 -3.10303,-2.48622 -0.39336,-0.0903 -1.53268,0.15689 -1.20795,-0.0828 2.05421,-1.5162 12.20676,-7.45363 7.11774,-4.47012 -3.68441,2.17595 -13.50446,11.70222 -17.5308,5.69356 -2.05474,-5.91636 -2.28446,-12.1713 -2.13618,-18.39065 -0.02,-7.40208 -0.0728,-14.81792 -0.79709,-22.19149 -0.69201,-6.18766 -1.73785,-12.31896 -3.09384,-18.39721 -1.17543,-6.49909 -1.69335,-13.0814 -1.32087,-19.68962 0.64609,-7.98168 2.31892,-15.82118 3.60104,-23.71742 0.98268,-6.48672 1.83114,-13.14224 1.12775,-19.69627 -0.64394,-4.21601 -1.75311,-8.28127 -3.7409,-12.08362 -2.19906,-4.96466 -3.47497,-10.23807 -3.93247,-15.65766 -0.84589,-8.20716 -1.32546,-16.47933 -3.32868,-24.5211 -2.00433,-8.12948 -4.37611,-16.11708 -9.39177,-22.98427 -4.58873,-6.89215 -9.82513,-13.31536 -14.48689,-20.15839 -4.77188,-7.43972 -9.32396,-15.11457 -11.5613,-23.75184 -2.44323,-10.19459 -3.79572,-20.52573 -2.11634,-30.98943 2.3441,-13.57757 6.19061,-26.76497 11.07799,-39.65152 5.13384,-14.3201 10.74445,-28.45874 16.33878,-42.60374 2.9312,-8.02371 6.9307,-16.60039 5.93841,-25.32374 -1.9402,-4.80801 -6.20899,-6.54108 -10.63562,-8.77374 -6.15525,-3.27557 -11.45432,-7.33824 -14.71729,-13.7028 -4.40422,-9.03482 -6.72064,-18.82277 -8.22871,-28.73402 -1.72556,-11.92714 -3.30637,-23.87345 -5.00454,-35.80461 -1.3225,-11.27161 -2.62611,-22.54192 -3.72083,-33.83851 -0.733,-7.25144 -1.15671,-14.53845 -2.24949,-21.75024 0,0 10.05284,-5.30317 10.05284,-5.30317 z" />
  </g>
</svg>
