<?xml version="1.0" encoding="UTF-8" standalone="no"?>
<!-- Created with Inkscape (http://www.inkscape.org/) -->
<svg
   xmlns:dc="http://purl.org/dc/elements/1.1/"
   xmlns:cc="http://creativecommons.org/ns#"
   xmlns:rdf="http://www.w3.org/1999/02/22-rdf-syntax-ns#"
   xmlns:svg="http://www.w3.org/2000/svg"
   xmlns="http://www.w3.org/2000/svg"
   xmlns:sodipodi="http://sodipodi.sourceforge.net/DTD/sodipodi-0.dtd"
   xmlns:inkscape="http://www.inkscape.org/namespaces/inkscape"
   width="937.98962"
   height="629.50049"
   id="svg2"
   sodipodi:version="0.32"
   inkscape:version="0.46+devel"
   version="1.0"
   sodipodi:docname="c21d1.svg"
   inkscape:output_extension="org.inkscape.output.svg.inkscape">
  <defs
     id="defs4">
    <inkscape:perspective
       sodipodi:type="inkscape:persp3d"
       inkscape:vp_x="0 : 526.18109 : 1"
       inkscape:vp_y="0 : 1000 : 0"
       inkscape:vp_z="744.09448 : 526.18109 : 1"
       inkscape:persp3d-origin="372.04724 : 350.78739 : 1"
       id="perspective10" />
  </defs>
  <sodipodi:namedview
     id="base"
     pagecolor="#ffffff"
     bordercolor="#666666"
     borderopacity="1.0"
     inkscape:pageopacity="0.0"
     inkscape:pageshadow="2"
     inkscape:zoom="0.35"
     inkscape:cx="316.40238"
     inkscape:cy="439.73645"
     inkscape:document-units="px"
     inkscape:current-layer="layer1"
     showgrid="false"
     inkscape:window-width="1280"
     inkscape:window-height="708"
     inkscape:window-x="-5"
     inkscape:window-y="-3" />
  <metadata
     id="metadata7">
    <rdf:RDF>
      <cc:Work
         rdf:about="">
        <dc:format>image/svg+xml</dc:format>
        <dc:type
           rdf:resource="http://purl.org/dc/dcmitype/StillImage" />
        <dc:title></dc:title>
      </cc:Work>
    </rdf:RDF>
  </metadata>
  <g
     inkscape:label="Layer 1"
     inkscape:groupmode="layer"
     id="layer1"
     transform="translate(-58.597621,-342.59814)">
    <path
       style="fill:#000000;fill-opacity:1;stroke:#000000;stroke-width:5;stroke-linecap:round;stroke-miterlimit:4;stroke-opacity:1;stroke-dasharray:none"
       id="path2842"
       d="m 122.75163,894.05016 c 0.78466,-12.97051 1.2322,-25.95289 1.52001,-38.94284 0.33159,-23.31389 0.21811,-46.63135 0.24605,-69.94694 -0.0615,-32.99547 0.20669,-65.99214 0.82327,-98.98178 0.54315,-33.53896 2.61973,-67.02135 5.38318,-100.44227 2.8868,-32.61735 6.09835,-65.20303 8.58319,-97.85468 1.82595,-24.20673 2.79792,-48.48133 2.67884,-72.75682 -0.032,-12.25675 -0.56957,-24.50397 -1.25248,-36.73926 -0.16863,-1.44686 -0.28989,-11.33411 -2.11905,-11.11859 -2.55026,5.35127 -0.1771,-0.003 12.8866,-6.57183 0.49637,-0.24961 -0.77965,0.79439 -1.12699,1.22801 -1.82896,2.28325 -3.32439,4.86243 -4.87461,7.33301 -4.93615,7.8687 -9.9201,15.70733 -14.86857,23.56824 -3.84317,6.07802 -7.62621,12.19523 -10.66784,18.71863 -0.94738,3.00147 -2.62029,6.44217 2.0322,4.45009 7.25486,-4.31339 -5.7656,3.45537 -9.45235,5.15729 -1.16034,0.53565 2.01854,-1.57178 2.9663,-2.42913 1.13499,-1.02672 2.22165,-2.10765 3.27562,-3.21737 2.91092,-3.06488 4.66861,-5.3245 7.3896,-8.62535 8.67319,-10.99893 16.5551,-22.59174 24.49672,-34.12166 3.97645,-4.03269 9.27414,-15.96239 13.88344,-18.87443 4.9589,-3.13291 10.16502,-5.85623 15.24754,-8.78434 7.4941,3.61313 5.81026,19.86498 5.86047,26.50918 0.18835,11.56695 0.1832,23.13132 0.35885,34.69886 0,0 -0.50644,0.26466 -0.50644,0.26466 l 0,0 c -2.08168,-10.37923 -4.14172,-20.7744 -7.74219,-30.76616 -5.36146,-13.91087 -0.10668,-0.65794 -5.16461,-12.48139 -0.80332,-1.87784 -1.97606,-7.08957 -4.14816,-8.3532 -0.31084,-0.18084 -0.71913,0.0127 -1.0787,0.019 3.91111,-2.37412 7.70668,-4.94999 11.73335,-7.12237 0.85525,-0.46141 -1.50084,1.24386 -2.16024,1.95769 -0.89243,0.9661 -1.695,2.01346 -2.48171,3.06744 -3.31584,4.4424 -6.25132,9.17214 -9.52292,13.64646 -7.94092,11.44177 -15.63754,23.06816 -24.14634,34.10223 -8.82759,11.05217 -17.44088,20.62025 -31.84276,25.234 -4.7987,0.18722 -5.35073,-3.71721 -3.76356,-7.56837 2.82142,-6.7024 6.75635,-12.82469 10.62894,-18.95823 4.92692,-7.8209 9.91399,-15.60396 14.71942,-23.50089 4.48883,-7.13148 11.31638,-20.45342 21.9206,-17.51907 3.06176,3.17843 2.02878,8.71691 2.53679,12.70738 0.40547,12.37522 0.77565,24.75579 0.6457,37.13935 -0.43859,24.49084 -1.53018,48.95711 -3.64426,73.36651 -2.82543,32.72772 -5.987,65.41966 -9.10984,98.12004 -2.76989,33.40504 -5.16749,66.86068 -5.48241,100.39532 -0.62635,32.97825 -0.66399,65.96027 -0.79229,98.94342 -0.1586,23.613 -0.36128,47.24263 -1.8473,70.81725 -0.94188,13.66697 -2.19127,27.35221 -4.9886,40.78432 0,0 -7.03246,3.4486 -7.03246,3.4486 z" />
    <path
       style="fill:#000000;fill-opacity:1;stroke:#000000;stroke-width:5;stroke-linecap:round;stroke-miterlimit:4;stroke-opacity:1;stroke-dasharray:none"
       id="path2844"
       d="m 66.86912,856.36277 c 16.14157,-2.19968 32.352918,-3.83962 48.55064,-5.56201 35.23289,-3.69687 70.51543,-6.88693 105.80977,-9.9317 51.37244,-4.65908 102.9246,-6.62493 154.47362,-7.93586 59.80693,-1.24985 119.63245,-0.88171 179.4441,-0.24043 56.75942,0.46649 113.48999,2.25797 170.17473,5.14245 41.07986,1.93939 82.02537,5.56231 122.91465,9.8492 12.52714,1.6072 25.09331,2.21359 37.70462,2.34476 0,0 -0.46129,0.33726 -0.46129,0.33726 l 0,0 c -14.30523,0.94273 -28.6259,1.81387 -42.97418,1.43247 -42.83819,-0.58078 -85.58044,-3.09036 -128.32182,-5.96043 -56.42122,-3.05777 -112.89111,-5.15549 -169.39881,-5.63584 -59.73004,-0.76673 -119.47362,-0.93714 -179.20177,0.12087 -51.0683,1.19818 -102.13584,2.94927 -153.07135,6.98858 -34.56247,2.673 -69.12772,5.32927 -103.66091,8.36061 -15.937247,1.45148 -31.899089,2.78039 -47.753499,4.99192 0,0 5.771499,-4.30185 5.771499,-4.30185 z" />
    <path
       style="fill:#000000;fill-opacity:1;stroke:#000000;stroke-width:5;stroke-linecap:round;stroke-miterlimit:4;stroke-opacity:1;stroke-dasharray:none"
       id="path2846"
       d="m 883.89888,782.53271 c 13.36053,6.80484 28.11431,10.22636 42.56508,13.87534 17.22634,4.16267 34.52602,8.01336 51.72015,12.30871 5.39829,1.56463 18.22082,3.63951 15.53869,12.30601 -0.49791,1.60887 -1.58386,2.97269 -2.37579,4.45903 -17.12522,19.15812 -38.86554,33.70762 -59.95735,48.12025 -20.35849,14.09516 -41.90762,26.19962 -63.9895,37.32713 0,0 0.44585,-0.35741 0.44585,-0.35741 l 0,0 c 18.06518,-9.49858 35.50463,-20.0654 51.84256,-32.35101 18.98062,-14.12731 38.58971,-27.9687 54.82244,-45.29724 0.98905,-1.39589 3.64371,-4.31074 3.56103,-6.57546 -0.19619,-5.37377 -10.60971,-6.43478 -13.79654,-8.07266 -16.74775,-4.81342 -33.67561,-8.92491 -50.60492,-13.04495 -14.7193,-3.67568 -29.58195,-7.36187 -43.37557,-13.82785 0,0 13.60387,-8.86989 13.60387,-8.86989 z" />
    <path
       style="fill:#000000;fill-opacity:1;stroke:#000000;stroke-width:5;stroke-linecap:round;stroke-miterlimit:4;stroke-opacity:1;stroke-dasharray:none"
       id="path2848"
       d="m 292.46383,662.50092 c 6.40372,-11.02176 13.37215,-21.69127 20.44805,-32.28862 9.46095,-14.08404 19.97494,-27.38907 31.05094,-40.2252 10.3821,-11.99371 22.09822,-22.67703 34.54076,-32.47615 12.58208,-9.19038 25.96882,-17.7598 41.25458,-21.36822 10.31345,-1.84428 19.64839,1.3972 28.72529,5.97042 10.7331,5.84215 20.21736,13.59633 29.92108,20.94739 9.85037,7.73429 20.40431,14.23602 32.07575,18.77384 12.57906,4.34178 25.8166,5.40914 39.00187,6.10033 15.46793,0.87288 30.89641,-0.2568 46.18498,-2.56487 17.12651,-2.54859 33.23086,-8.55188 48.59435,-16.33909 -2.54296,1.43112 -8.93135,6.90455 -7.62889,4.29336 1.47146,-2.95 5.54745,-3.56845 8.22593,-5.49029 2.7879,-2.00035 5.50722,-4.09855 8.16419,-6.26981 8.78886,-7.18219 16.62043,-15.22713 24.45115,-23.41377 16.40917,-17.88206 31.57989,-36.84334 46.87013,-55.67597 14.03311,-17.7181 29.64768,-34.05007 44.10425,-51.41762 2.08763,-2.48839 4.17526,-4.97679 6.26289,-7.46518 0,0 0.52284,-0.23057 0.52284,-0.23057 l 0,0 c -0.63077,1.85706 -1.26155,3.71411 -1.89233,5.57116 -9.25675,16.46872 -19.85428,32.14747 -32.2719,46.41246 -15.31974,18.79676 -30.48936,37.74167 -46.72338,55.76516 -19.70138,20.92383 -38.07385,36.66866 -64.46614,49.41437 -15.17738,7.31457 -31.01502,12.90986 -47.82541,15.02188 -15.11791,1.85612 -30.32762,2.72806 -45.55393,1.70416 -13.06799,-0.85308 -26.24949,-2.09476 -38.5003,-7.08971 -11.22884,-5.13698 -21.37734,-12.02452 -30.73658,-20.08598 -9.32769,-7.55096 -18.68372,-15.20581 -29.15497,-21.14233 -8.65293,-4.39706 -17.466,-7.83088 -27.35353,-5.92368 -4.7218,1.11799 -5.1361,1.02411 -9.74115,2.92687 -1.7492,0.72275 -3.26671,2.22603 -5.15265,2.38512 -1.42996,0.12062 4.86388,-3.0474 3.66444,-2.25959 -12.08623,7.93844 0.9527,-1.06656 -11.41548,7.60932 -12.7622,9.83057 -24.79005,20.58642 -35.49053,32.66059 -11.25902,12.82784 -22.00147,26.11331 -31.51521,40.30405 -7.23984,10.53947 -14.29502,21.21645 -20.65448,32.31645 0,0 -7.98661,3.54972 -7.98661,3.54972 z" />
    <path
       style="fill:#000000;fill-opacity:1;stroke:#000000;stroke-width:5;stroke-linecap:round;stroke-miterlimit:4;stroke-opacity:1;stroke-dasharray:none"
       id="path2850"
       d="m 353.36827,610.66995 c -1.4435,9.65995 -4.7756,18.86981 -6.95797,28.35607 0,0 -0.51254,0.25266 -0.51254,0.25266 l 0,0 c 0.20543,-8.11733 -0.96101,-16.15799 -1.19238,-24.27085 0,0 8.66289,-4.33788 8.66289,-4.33788 z" />
    <path
       style="fill:#000000;fill-opacity:1;stroke:#000000;stroke-width:5;stroke-linecap:round;stroke-miterlimit:4;stroke-opacity:1;stroke-dasharray:none"
       id="path2852"
       d="m 350.85431,675.66319 c -1.16759,6.29109 -0.56402,2.98843 -1.80506,9.90903 0,0 -0.69958,0.35097 -0.69958,0.35097 l 0,0 c -0.4282,-6.061 -0.1946,-3.17965 -0.68423,-8.64537 0,0 3.18887,-1.61463 3.18887,-1.61463 z" />
    <path
       style="fill:#000000;fill-opacity:1;stroke:#000000;stroke-width:5;stroke-linecap:round;stroke-miterlimit:4;stroke-opacity:1;stroke-dasharray:none"
       id="path2854"
       d="m 345.65547,724.77043 c 1.29789,9.19617 0.65382,18.41367 -0.16406,27.60903 0,0 -0.73494,0.37736 -0.73494,0.37736 l 0,0 c -1.44831,-8.63298 -2.5923,-17.29282 -2.80307,-26.05988 0,0 3.70207,-1.92651 3.70207,-1.92651 z" />
    <path
       style="fill:#000000;fill-opacity:1;stroke:#000000;stroke-width:5;stroke-linecap:round;stroke-miterlimit:4;stroke-opacity:1;stroke-dasharray:none"
       id="path2856"
       d="m 342.20017,769.18597 c 0.41947,12.54078 -0.004,25.08009 -0.0332,37.62432 0.14421,2.3226 0.28842,4.6452 0.43264,6.96779 0,0 -0.50492,0.26757 -0.50492,0.26757 l 0,0 c -0.57216,-2.09643 -1.14432,-4.19287 -1.71649,-6.2893 -3.61026,-10.68445 -7.7916,-21.23436 -10.08897,-32.30525 0,0 11.91098,-6.26513 11.91098,-6.26513 z" />
    <path
       style="fill:#000000;fill-opacity:1;stroke:#000000;stroke-width:5;stroke-linecap:round;stroke-miterlimit:4;stroke-opacity:1;stroke-dasharray:none"
       id="path2858"
       d="m 764.0276,477.97273 c 1.30779,12.55446 1.05182,25.17082 0.23912,37.743 -0.67621,12.04242 -3.7332,23.71394 -6.04407,35.49352 0,0 -0.51371,0.25026 -0.51371,0.25026 l 0,0 c 1.81669,-10.95266 1.72265,-22.10328 1.53337,-33.18662 -0.71153,-11.94085 -1.7266,-23.87788 -4.05212,-35.63077 0,0 8.83741,-4.66939 8.83741,-4.66939 z" />
    <path
       style="fill:#000000;fill-opacity:1;stroke:#000000;stroke-width:5;stroke-linecap:round;stroke-miterlimit:4;stroke-opacity:1;stroke-dasharray:none"
       id="path2860"
       d="m 759.01281,569.58684 c 1.23465,11.60832 0.94861,23.2546 0.0947,34.87118 -1.24676,9.44488 -0.60479,4.73248 -1.92554,14.13724 0,0 -0.51045,0.25684 -0.51045,0.25684 l 0,0 c -0.41196,-8.49622 -0.12106,-4.26184 -0.87079,-12.70327 -1.21325,-10.96129 -2.48605,-21.91486 -3.85804,-32.85723 0,0 7.07013,-3.70476 7.07013,-3.70476 z" />
    <path
       style="fill:#000000;fill-opacity:1;stroke:#000000;stroke-width:5;stroke-linecap:round;stroke-miterlimit:4;stroke-opacity:1;stroke-dasharray:none"
       id="path2862"
       d="m 762.05146,652.90115 c 1.88876,11.86905 1.29904,23.83452 0.48406,35.76106 -0.66584,9.46846 -0.31303,4.72357 -1.059,14.23462 0,0 -0.50843,0.26083 -0.50843,0.26083 l 0,0 c -1.24354,-8.47276 -0.5649,-4.26219 -2.03322,-12.63214 -2.33673,-10.87743 -4.9436,-21.70504 -6.12274,-32.79106 0,0 9.23933,-4.83331 9.23933,-4.83331 z" />
    <path
       style="fill:#000000;fill-opacity:1;stroke:#000000;stroke-width:5;stroke-linecap:round;stroke-miterlimit:4;stroke-opacity:1;stroke-dasharray:none"
       id="path2864"
       d="m 768.25329,788.7424 c -0.26883,7.1159 -0.21592,3.32505 -0.0832,11.37333 0,0 -0.50626,0.26501 -0.50626,0.26501 l 0,0 c -1.54765,-7.22965 -0.69278,-3.89368 -2.46273,-10.03346 0,0 3.05215,-1.60488 3.05215,-1.60488 z" />
    <path
       style="fill:#000000;fill-opacity:1;stroke:#000000;stroke-width:5;stroke-linecap:round;stroke-miterlimit:4;stroke-opacity:1;stroke-dasharray:none"
       id="path2866"
       d="m 323.97048,891.39241 c -7.34086,5.0547 -13.265,11.53633 -17.72323,19.21246 -2.42524,5.73965 -3.31033,10.83902 3.4325,13.24485 5.32257,0.4411 10.06462,-1.94129 14.59553,-4.4443 1.20891,-0.66783 -4.53478,2.98664 -3.6818,1.90042 1.23284,-1.56995 3.26441,-2.29828 4.89662,-3.44742 9.67857,-7.16327 18.68214,-15.17786 28.54912,-22.08746 10.10543,-6.06907 17.12011,-13.54599 26.78194,-5.17412 6.44835,6.71045 8.78138,16.06987 12.05635,24.5507 0.73069,1.78996 1.46139,3.57993 2.19208,5.36989 0,0 -0.49366,0.28781 -0.49366,0.28781 l 0,0 c -1.32369,-1.4446 -2.64738,-2.88919 -3.97107,-4.33378 -6.33869,-6.74945 -13.12916,-13.03134 -19.33328,-19.90392 -2.15929,-1.73032 -3.98533,-3.25242 -6.92006,-3.1914 -0.92006,0.0191 -3.35529,1.1001 -2.72752,0.4272 1.67126,-1.79138 4.23395,-2.50564 6.12254,-4.06622 1.11779,-0.92365 -2.52574,1.4251 -3.78861,2.13765 -10.18462,6.85082 -19.423,14.937 -29.20707,22.33127 -8.07152,5.72099 -5.93349,4.41111 -18.10515,11.30821 -4.58139,2.59606 -9.64554,4.62427 -14.97237,3.69704 -6.91308,-3.06813 -6.53308,-8.47651 -3.93143,-14.81587 4.44511,-7.8754 10.50862,-14.40808 17.86266,-19.70516 0,0 8.36591,-3.29785 8.36591,-3.29785 z" />
    <path
       style="fill:#000000;fill-opacity:1;stroke:#000000;stroke-width:5;stroke-linecap:round;stroke-miterlimit:4;stroke-opacity:1;stroke-dasharray:none"
       id="path2868"
       d="m 802.70751,940.64639 c 4.76326,-6.9652 10.08331,-13.54158 17.25091,-18.10648 11.56094,-6.26364 15.34274,-9.52178 19.79885,3.05728 1.90633,8.21285 0.0479,16.19488 -3.20097,23.77129 -5.41709,10.45934 -15.79629,17.51386 -27.31305,20.2029 -10.13175,0.57129 -14.49074,-7.93888 -18.03258,-16.03054 -4.93903,-13.91726 -6.28655,-28.74278 -7.44484,-43.36676 -0.8719,-9.14102 -0.91616,-18.33265 -1.83351,-27.4661 -2.02082,5.18777 9.40319,-5.10173 14.50824,-6.54695 0.87004,-0.24631 -0.28366,1.78613 -0.4122,2.68118 -0.81453,5.67196 -1.52829,11.35426 -2.35972,17.02452 -3.27063,20.77185 -10.07556,40.75385 -17.88157,60.20456 -1.26954,3.12003 -2.53909,6.24007 -3.80864,9.3601 0,0 -0.51836,0.24048 -0.51836,0.24048 l 0,0 c 1.11136,-3.04379 2.22272,-6.08759 3.33408,-9.13139 3.60326,-17.85281 5.02276,-35.87179 5.55006,-54.06687 0.38677,-5.44681 0.81599,-10.89309 1.05568,-16.34908 0.0389,-0.88476 -0.60988,-2.10966 0.0876,-2.6554 4.60292,-3.6015 9.86096,-6.28979 14.97068,-9.12678 0.20877,-0.11591 0.18661,0.43963 0.27992,0.65945 0.68842,9.30682 -0.098,18.72716 0.77074,28.03807 1.0561,14.51268 2.28313,29.1451 7.01492,43.01489 3.04901,7.06458 6.76884,15.35945 15.68885,15.15179 5.87666,-1.40474 3.78423,-1.22727 -4.99267,4.22301 -1.12143,0.69639 2.29478,-1.3176 3.35507,-2.10395 3.4503,-2.55886 6.08359,-5.89824 8.30257,-9.54247 3.66436,-7.3883 6.13023,-15.26925 4.51011,-23.5891 -0.71279,-2.49268 -1.31974,-5.33395 -3.70868,-6.84827 -0.57877,-0.36687 -1.25083,-0.61994 -1.93063,-0.70624 -0.78049,-0.0991 -2.87917,0.74866 -2.35469,0.16223 1.48818,-1.66399 3.70339,-2.49381 5.55509,-3.74071 -6.86409,4.04976 -11.73545,10.29344 -15.86998,17.02468 0,0 -10.37128,4.56066 -10.37128,4.56066 z" />
    <path
       style="fill:#000000;fill-opacity:1;stroke:#000000;stroke-width:5;stroke-linecap:round;stroke-miterlimit:4;stroke-opacity:1;stroke-dasharray:none"
       id="path2870"
       d="m 590.6765,461.95092 c -2.57545,-6.98655 -6.54731,-13.08874 -12.42253,-17.66845 -3.49461,-1.9981 -7.24954,-2.74264 -11.05077,-1.05537 -0.9435,0.41879 -3.55594,1.04657 -2.66777,1.57261 1.00999,0.59819 2.20969,-0.79303 3.31454,-1.18954 -6.38633,7.2263 -7.6915,16.80174 -8.20636,26.07745 0.10503,11.30592 1.81902,22.52508 3.12298,33.7384 1.42212,9.86226 0.57745,19.50477 -2.98316,28.78291 -3.13578,6.77912 -8.53281,11.32125 -14.8538,14.97173 0,0 -1.05854,0.41031 -1.05854,0.41031 l 0,0 c 4.46299,-3.12044 7.42216,-7.50185 9.62216,-12.46879 3.73746,-9.25517 4.91203,-18.81161 3.66809,-28.76564 -1.06622,-11.284 -2.92284,-22.51619 -3.086,-33.86686 0.41586,-9.23939 1.52021,-18.80111 7.45072,-26.3012 7.47873,-5.11581 14.1437,-11.27724 23.08989,-5.90362 5.95556,4.8526 9.41809,11.34038 11.40839,18.73325 0,0 -5.34784,2.93281 -5.34784,2.93281 z" />
    <path
       style="fill:#000000;fill-opacity:1;stroke:#000000;stroke-width:5;stroke-linecap:round;stroke-miterlimit:4;stroke-opacity:1;stroke-dasharray:none"
       id="path2872"
       d="m 525.0606,507.4791 c 11.83172,-1.36505 23.73379,-1.93902 35.62933,-2.38786 10.59135,-0.27035 21.21542,-0.69837 31.78512,0.21781 4.64136,0.48316 2.3532,0.27735 6.86397,0.62322 0,0 -0.4619,0.33641 -0.4619,0.33641 l 0,0 c -5.70946,0.47136 -2.76933,0.20741 -8.81969,0.79981 -11.22284,0.92984 -22.48234,0.8691 -33.73271,1.21953 -11.93865,0.45222 -23.87437,1.10968 -35.74333,2.52778 0,0 4.47921,-3.3367 4.47921,-3.3367 z" />
  </g>
</svg>
