<?xml version="1.0" encoding="UTF-8" standalone="no"?>
<!-- Created with Inkscape (http://www.inkscape.org/) -->
<svg
   xmlns:dc="http://purl.org/dc/elements/1.1/"
   xmlns:cc="http://creativecommons.org/ns#"
   xmlns:rdf="http://www.w3.org/1999/02/22-rdf-syntax-ns#"
   xmlns:svg="http://www.w3.org/2000/svg"
   xmlns="http://www.w3.org/2000/svg"
   xmlns:sodipodi="http://sodipodi.sourceforge.net/DTD/sodipodi-0.dtd"
   xmlns:inkscape="http://www.inkscape.org/namespaces/inkscape"
   width="1041.2736"
   height="752.00726"
   id="svg3279"
   sodipodi:version="0.32"
   inkscape:version="0.46+devel"
   sodipodi:docname="hw9d1.svg"
   inkscape:output_extension="org.inkscape.output.svg.inkscape"
   version="1.0">
  <defs
     id="defs3281">
    <inkscape:perspective
       sodipodi:type="inkscape:persp3d"
       inkscape:vp_x="0 : 526.18109 : 1"
       inkscape:vp_y="0 : 1000 : 0"
       inkscape:vp_z="744.09448 : 526.18109 : 1"
       inkscape:persp3d-origin="372.04724 : 350.78739 : 1"
       id="perspective3287" />
    <inkscape:perspective
       id="perspective3259"
       inkscape:persp3d-origin="0.5 : 0.33333333 : 1"
       inkscape:vp_z="1 : 0.5 : 1"
       inkscape:vp_y="0 : 1000 : 0"
       inkscape:vp_x="0 : 0.5 : 1"
       sodipodi:type="inkscape:persp3d" />
    <clipPath
       clipPathUnits="userSpaceOnUse"
       id="clipPath3243">
      <path
         d="m 210,468.02 8.52,0 0,10.86 -8.52,0 0,-10.86 z"
         id="path3245" />
    </clipPath>
  </defs>
  <sodipodi:namedview
     id="base"
     pagecolor="#ffffff"
     bordercolor="#666666"
     borderopacity="1.0"
     inkscape:pageopacity="0.0"
     inkscape:pageshadow="2"
     inkscape:zoom="0.46942014"
     inkscape:cx="450.86205"
     inkscape:cy="318.84254"
     inkscape:document-units="px"
     inkscape:current-layer="layer1"
     showgrid="false"
     showguides="true"
     inkscape:guide-bbox="true"
     inkscape:window-width="1280"
     inkscape:window-height="712"
     inkscape:window-x="-5"
     inkscape:window-y="-3" />
  <metadata
     id="metadata3284">
    <rdf:RDF>
      <cc:Work
         rdf:about="">
        <dc:format>image/svg+xml</dc:format>
        <dc:type
           rdf:resource="http://purl.org/dc/dcmitype/StillImage" />
        <dc:title></dc:title>
      </cc:Work>
    </rdf:RDF>
  </metadata>
  <g
     inkscape:label="Layer 1"
     inkscape:groupmode="layer"
     id="layer1"
     transform="translate(78.814805,-93.016343)">
    <path
       d="m 113.44181,363.55778 c -23.237217,-11.6186 -51.498696,-2.1981 -63.431326,21.03912 -11.618617,23.23722 -2.198118,51.49871 21.0391,63.11731 23.237234,11.93263 51.498716,2.51214 63.117326,-20.72508 11.93263,-23.23722 2.51214,-51.49872 -20.7251,-63.43135"
       style="fill:#ffffff;fill-opacity:1;fill-rule:evenodd;stroke:none"
       id="path3191" />
    <path
       d="m 113.44181,363.55778 c -23.237217,-11.6186 -51.498696,-2.1981 -63.431326,21.03912 -11.618617,23.23722 -2.198118,51.49871 21.0391,63.11731 23.237234,11.93263 51.498716,2.51214 63.117326,-20.72508 11.93263,-23.23722 2.51214,-51.49872 -20.7251,-63.43135 z"
       style="fill:none;stroke:#000000;stroke-width:3.92520666;stroke-linecap:round;stroke-linejoin:round;stroke-miterlimit:10;stroke-opacity:1;stroke-dasharray:none"
       id="path3193" />
    <path
       d="m 323.83289,469.38135 c -23.23722,-11.6186 -51.49872,-2.19811 -63.43135,21.03912 -11.6186,23.23722 -2.1981,51.49871 21.03912,63.11731 23.23722,11.61862 51.49871,2.51214 63.11731,-20.72508 11.93263,-23.23722 2.51213,-51.81273 -20.72508,-63.43135"
       style="fill:#ffffff;fill-opacity:1;fill-rule:evenodd;stroke:none"
       id="path3195" />
    <path
       d="m 323.83289,469.38135 c -23.23722,-11.6186 -51.49872,-2.19811 -63.43135,21.03912 -11.6186,23.23722 -2.1981,51.49871 21.03912,63.11731 23.23722,11.61862 51.49871,2.51214 63.11731,-20.72508 11.93263,-23.23722 2.51213,-51.81273 -20.72508,-63.43135 z"
       style="fill:none;stroke:#000000;stroke-width:3.92520666;stroke-linecap:round;stroke-linejoin:round;stroke-miterlimit:10;stroke-opacity:1;stroke-dasharray:none"
       id="path3197" />
    <path
       d="M 92.716724,195.24494 29.285397,321.47957 407.98932,511.77358 471.42066,385.53895"
       style="fill:#ffffff;fill-opacity:1;fill-rule:evenodd;stroke:none"
       id="path3199" />
    <path
       d="M 92.716724,195.24494 29.285397,321.47957 407.98932,511.77358 471.42066,385.53895 92.716724,195.24494 z"
       style="fill:none;stroke:#000000;stroke-width:3.92520666;stroke-linecap:round;stroke-linejoin:miter;stroke-miterlimit:8;stroke-opacity:1;stroke-dasharray:none"
       id="path3201" />
    <path
       d="m -76.852202,372.03623 0,471.0248 942.049582,0"
       style="fill:#ffffff;fill-opacity:1;fill-rule:evenodd;stroke:none"
       id="path3235" />
    <path
       d="m -76.852202,372.03623 0,471.0248 942.049582,0 -942.049582,-471.0248 z"
       style="fill:none;stroke:#000000;stroke-width:3.92520666;stroke-linecap:round;stroke-linejoin:round;stroke-miterlimit:10;stroke-opacity:1;stroke-dasharray:none"
       id="path3237" />
    <g
       transform="matrix(5.2336087,0,0,-5.2336087,-425.41054,3290.2965)"
       id="g3239">
      <g
         id="g3241"
         clip-path="url(#clipPath3243)">
        <text
           transform="matrix(0.94618852,0,-0.32361594,-0.94618852,210,470.6603)"
           id="text3247">
          <tspan
             style="font-size:13.0052309px;font-variant:normal;font-weight:normal;font-stretch:normal;writing-mode:lr-tb;fill:#000000;fill-opacity:1;fill-rule:nonzero;stroke:none;font-family:Symbol;-inkscape-font-specification:SymbolMT"
             x="0"
             y="0"
             id="tspan3249">α</tspan>
        </text>
      </g>
    </g>
    <path
       style="fill:#000000;fill-opacity:1;fill-rule:nonzero;stroke:#000000;stroke-width:4;stroke-linecap:round;stroke-linejoin:round;stroke-miterlimit:4;stroke-opacity:1;stroke-dasharray:none;stroke-dashoffset:24.6"
       id="path3336"
       d="m 226.74915,320.84864 c -0.0138,6.03545 -0.006,12.07091 -0.007,18.10636 -1.2e-4,5.32556 0.005,10.65112 0.003,15.97669 0.0906,5.24694 0.0897,10.44666 -0.6008,15.65214 -0.85429,5.1717 -1.1952,10.39896 -1.39111,15.63041 -0.16845,6.39592 -0.15477,12.79486 -0.1585,19.19247 0.34158,6.72855 -0.62422,13.389 -1.26606,20.0663 -0.27375,6.26501 -0.9433,12.4599 -1.77677,18.67065 -0.7895,5.69897 -1.00788,11.45191 -1.13925,17.1968 0.15987,4.93757 -0.16838,9.77691 -1.02652,14.6342 -0.38187,2.03799 -0.67907,4.08727 -0.91407,6.14669 0,0 -1.89405,0.93809 -1.89405,0.93809 l 0,0 c 0.23602,-2.06498 0.53038,-4.11997 0.91711,-6.16293 0.87278,-4.84877 1.21709,-9.67772 1.05071,-14.61019 0.12991,-5.75178 0.3416,-11.51226 1.13054,-17.21836 0.83448,-6.20935 1.52009,-12.40063 1.78401,-18.66538 0.63705,-6.67227 1.61985,-13.32585 1.27637,-20.04924 -2.1e-4,-6.39856 -0.0119,-12.79827 0.14728,-19.19532 0.18865,-5.23698 0.52287,-10.47114 1.38073,-15.64773 0.69922,-5.19709 0.70776,-10.38662 0.61234,-15.62679 -0.002,-5.32645 0.003,-10.6529 0.003,-15.97934 -9e-4,-6.033 0.007,-12.066 -0.007,-18.09899 0,0 1.87729,-0.95653 1.87729,-0.95653 z" />
    <path
       style="fill:#000000;fill-opacity:1;fill-rule:nonzero;stroke:#000000;stroke-width:4;stroke-linecap:round;stroke-linejoin:round;stroke-miterlimit:4;stroke-opacity:1;stroke-dasharray:none;stroke-dashoffset:24.6"
       id="path3338"
       d="m 193.40625,467.54045 c 3.05984,5.62803 6.36364,11.09316 9.75417,16.52638 2.46008,3.69728 5.03301,7.55911 8.71424,10.14689 1.83417,1.22542 3.81434,1.42955 5.77216,0.3068 0.17947,-0.10292 -0.40034,0.10458 -0.60051,0.15687 4.065,-4.22352 6.10829,-9.85087 8.50953,-15.09491 3.55258,-8.29596 6.16552,-16.91884 9.00064,-25.47103 2.78855,-8.85237 5.38269,-17.78227 8.56911,-26.50183 1.74292,-4.72718 0.90893,-2.46956 2.50124,-6.77314 0,0 1.89237,-0.88098 1.89237,-0.88098 l 0,0 c -1.60324,4.30715 -0.7647,2.04788 -2.51434,6.77831 -3.20338,8.71324 -5.7884,17.64714 -8.57794,26.49887 -2.8386,8.55375 -5.43932,17.18209 -8.97949,25.48606 -2.40318,5.26174 -4.44917,10.87595 -8.43893,15.18104 -3.09722,1.97588 -5.53227,3.72366 -8.91369,1.4462 -3.67796,-2.63661 -6.27379,-6.49952 -8.74121,-10.22782 -3.38858,-5.44204 -6.68633,-10.91803 -9.77913,-16.53472 0,0 1.83178,-1.04299 1.83178,-1.04299 z" />
    <path
       style="fill:#000000;fill-opacity:1;fill-rule:nonzero;stroke:#000000;stroke-width:4;stroke-linecap:round;stroke-linejoin:round;stroke-miterlimit:4;stroke-opacity:1;stroke-dasharray:none;stroke-dashoffset:24.6"
       id="path3340"
       d="m 262.96405,359.19382 c -0.3691,6.53162 -1.39687,12.96004 -2.70523,19.35922 0.42077,1.75091 -2.55315,8.99046 -4.92531,5.45749 -0.23518,-3.99846 1.56046,-7.87259 2.90688,-11.55981 1.48783,-3.98739 3.66939,-7.58885 6.27826,-10.92666 3.91975,-3.87202 5.0022,-1.65038 5.98277,2.26309 0.93449,5.49015 0.91686,11.09065 0.98613,16.644 0.0274,3.31892 0.0326,6.63799 0.0218,9.95699 -2.7e-4,0.0331 -5.3e-4,0.0661 -8e-4,0.0991 -0.55061,-0.0999 -1.33864,0.16404 -1.65184,-0.29971 -0.19966,-0.29563 2.26282,-7.60282 2.50325,-8.28734 1.47522,-5.14763 3.44712,-10.14503 6.72929,-14.40573 3.49376,-3.00664 4.77564,-4.64904 7.97457,-0.73174 2.40708,3.83059 3.13077,8.52227 3.07787,12.97843 -0.2515,3.68012 -0.89112,7.31561 -1.32649,10.9749 0.45983,2.18949 -3.27979,4.18348 -0.98717,-0.0849 1.57383,-3.05202 4.1575,-5.21834 6.7741,-7.33618 2.25393,-1.91414 4.76556,-3.55333 7.57373,-4.5314 3.86268,-1.17171 -6.02287,3.3489 -2.34844,1.53353 -2.22695,1.6695 -3.76574,4.10008 -5.11672,6.49593 -1.34069,3.05438 -2.81332,5.85737 -2.81729,9.24344 0.56507,2.68303 2.07571,3.33194 4.5179,2.44036 0.47296,-0.27325 1.06387,-0.40461 1.41888,-0.81973 0.1182,-0.13821 -0.49648,-0.18589 -0.4184,-0.35014 0.72528,-1.52575 2.1038,-2.65344 2.99368,-4.08943 0.30638,-0.49442 2.59803,-4.62222 2.86429,-5.10017 1.78259,-2.29114 2.51154,-7.55191 5.06027,-9.1513 0.84229,-0.52857 1.77015,-0.90661 2.65522,-1.35992 2.59029,0.92604 4.15005,3.70959 5.62549,5.87734 2.24201,3.98455 4.78059,7.78631 6.99525,11.78691 1.93704,3.95203 3.86927,7.80229 4.07421,12.25417 -0.5904,4.53945 -4.6538,6.65935 -8.2102,8.81041 -7.49575,4.47683 -13.19358,5.65518 -21.70332,3.62903 -1.17774,-0.39788 -2.35549,-0.79576 -3.53323,-1.19364 0,0 1.72286,-1.16821 1.72286,-1.16821 l 0,0 c 1.173,0.39318 2.346,0.78637 3.519,1.17956 6.60839,1.52317 11.83058,1.19226 18.04213,-1.6931 3.51345,-2.10625 7.59615,-4.15186 8.28959,-8.5996 -0.17137,-4.42765 -2.09878,-8.2437 -4.02048,-12.17256 -2.21058,-3.99557 -4.74856,-7.78987 -6.99149,-11.76648 -1.39457,-2.04097 -2.94997,-4.93655 -5.47968,-5.64005 0.32339,-0.25091 0.56214,-0.72021 0.97015,-0.75272 0.35641,-0.0284 -0.55929,0.45531 -0.77886,0.73748 -1.93813,2.49068 -2.72008,5.68943 -4.32753,8.36901 -2.70546,4.86155 -5.10342,10.01435 -10.4362,12.5107 -2.57923,0.81038 -4.13219,-0.0476 -4.73043,-2.77897 -0.0205,-3.43223 1.42069,-6.24112 2.77236,-9.34139 1.33154,-2.42033 2.88332,-4.85888 5.07082,-6.5878 3.52291,-2.10478 1.56279,-1.12844 3.61054,-1.97653 0.24923,-0.10322 0.81866,-0.58091 0.7424,-0.32215 -0.13675,0.46394 -0.60997,0.75545 -0.96646,1.08233 -0.18943,0.17369 -0.58361,-0.0269 -0.73927,0.21893 -1.96317,0.71565 -0.80576,-0.0224 -3.94612,2.44065 -2.60902,2.10415 -5.21893,4.22129 -6.79973,7.25739 -0.61552,1.10719 -3.75856,6.27799 -2.8367,1.88643 0.43916,-3.65557 1.0839,-7.28627 1.34958,-10.96198 0.0805,-4.40557 -0.63397,-9.05792 -3.01587,-12.84374 -0.40055,-0.48463 -1.20249,-1.58095 -1.83285,-1.9364 -0.28226,-0.15917 -0.9265,0.0668 -0.93754,-0.25703 -0.0136,-0.40025 1.2889,-0.69159 0.90173,-0.79398 -0.28788,-0.0761 -2.35646,1.80048 -2.36119,1.80455 -3.31988,4.22179 -5.31127,9.20136 -6.76562,14.34778 -0.36299,1.0262 -2.18163,7.76881 -2.49982,8.25308 -0.56058,0.85319 -1.4344,1.45301 -2.1516,2.17951 0.003,-0.0316 0.005,-0.0631 0.008,-0.0947 0.0665,-3.32173 0.01,-6.64545 0.01,-9.9674 -0.0652,-5.53687 -0.0496,-11.12009 -0.97492,-16.59477 -0.30308,-1.21923 -0.39379,-2.08637 -1.05073,-3.13763 -0.17778,-0.28448 -0.38707,-0.57288 -0.67309,-0.74816 -0.21062,-0.12907 -0.82714,0.11499 -0.73237,-0.11312 0.18339,-0.44141 0.69113,-0.70629 1.14049,-0.8692 0.36665,-0.13293 -0.58503,0.51591 -0.87754,0.77387 -2.62049,3.31691 -4.82213,6.89377 -6.31566,10.8706 -1.3317,3.6478 -3.0508,7.42492 -2.97997,11.37337 0.80217,1.17697 0.53255,0.32636 -0.71538,1.87571 -0.15428,0.19154 0.42053,-0.27822 0.55922,-0.48134 0.96998,-1.42066 0.84323,-3.29507 1.36919,-4.86674 1.32171,-6.38288 2.36066,-12.79515 2.71261,-19.31529 0,0 1.87729,-0.95653 1.87729,-0.95653 z" />
    <path
       style="fill:#000000;fill-opacity:1;fill-rule:nonzero;stroke:#000000;stroke-width:4;stroke-linecap:round;stroke-linejoin:round;stroke-miterlimit:4;stroke-opacity:1;stroke-dasharray:none;stroke-dashoffset:24.6"
       id="path3342"
       d="m 140.65769,305.4059 c 4.53873,-7.56452 10.20935,-14.3731 15.71562,-21.24071 7.55383,-9.8395 15.91358,-19.04234 24.58079,-27.90666 9.08392,-9.992 19.06444,-19.06172 28.95268,-28.23035 6.74028,-6.55884 14.4631,-11.97539 21.43325,-18.26017 3.33556,-2.90274 6.82257,-5.60541 9.48473,-9.16558 0.41347,-0.58444 0.80266,-1.18791 1.10111,-1.83961 0,0 1.93315,-0.88711 1.93315,-0.88711 l 0,0 c -0.27889,0.67541 -0.6782,1.28992 -1.09313,1.88916 -2.6514,3.59224 -6.13121,6.31876 -9.49746,9.21575 -6.96281,6.3086 -14.71698,11.70439 -21.46518,18.27037 -9.88726,9.17099 -19.888,18.22167 -28.96343,28.22406 -8.66832,8.84973 -17.0233,18.04644 -24.56907,27.87975 -5.49704,6.85259 -11.16173,13.64583 -15.6919,21.19472 0,0 -1.92116,0.85638 -1.92116,0.85638 z" />
    <path
       style="fill:#000000;fill-opacity:1;fill-rule:nonzero;stroke:#000000;stroke-width:4;stroke-linecap:round;stroke-linejoin:round;stroke-miterlimit:4;stroke-opacity:1;stroke-dasharray:none;stroke-dashoffset:24.6"
       id="path3344"
       d="m 230.81455,192.70791 c 7.93261,-2.14514 15.76879,-4.62215 23.45835,-7.52017 3.88347,-0.77197 8.98256,-4.82132 13.1677,-3.28182 0.53736,0.19766 0.93903,0.65539 1.40855,0.98308 0.25708,0.50148 0.64695,0.95477 0.77123,1.50442 1.07897,4.77177 -1.88725,13.63093 -3.1813,18.18155 -3.02524,9.87821 -6.50895,19.66734 -11.50714,28.72993 -0.62381,0.9952 -1.24761,1.99041 -1.87142,2.98561 0,0 -1.90721,0.84035 -1.90721,0.84035 l 0,0 c 0.62872,-0.99313 1.25743,-1.98627 1.88614,-2.9794 5.03223,-9.03494 8.50788,-18.82139 11.53354,-28.68997 1.28612,-4.51342 4.22115,-13.28388 3.2156,-18.02321 -0.10968,-0.51692 -0.47753,-0.94282 -0.71629,-1.41424 -0.44952,-0.2992 -0.83717,-0.72416 -1.34854,-0.89759 -3.76812,-1.27796 -9.53825,2.51531 -13.08643,3.34185 -7.70557,2.88532 -15.55077,5.36695 -23.49318,7.51689 0,0 1.6704,-1.27728 1.6704,-1.27728 z" />
    <path
       style="fill:#000000;fill-opacity:1;fill-rule:nonzero;stroke:#000000;stroke-width:4;stroke-linecap:round;stroke-linejoin:round;stroke-miterlimit:4;stroke-opacity:1;stroke-dasharray:none;stroke-dashoffset:24.6"
       id="path3346"
       d="m 249.73146,156.48926 c 6.56006,-1.77953 11.4912,-5.9128 16.05532,-10.77037 4.9894,-6.27282 9.47062,-12.95013 13.83661,-19.6681 2.59694,-4.13104 5.28589,-8.18148 8.98035,-11.40543 0.86851,-0.47187 1.67329,-1.08713 2.60553,-1.4156 1.56205,-0.55037 1.5594,4.07113 1.57971,4.44683 0.23771,5.57943 0.0527,11.12245 -0.57487,16.66707 -0.45535,5.16043 -1.83958,10.17864 -2.94932,15.226 -2.71235,-1.49223 0.18299,1.18282 -0.21775,1.18234 -0.4155,-5e-4 -1.10422,0.18576 -1.22858,-0.2107 -0.005,-0.0147 2.32975,-4.98316 2.7346,-5.86532 3.62306,-7.85273 6.87774,-15.86222 10.87762,-23.53486 4.09647,-7.0225 8.19792,-14.01945 12.82859,-20.70117 1.05487,-1.523803 2.10459,-3.051148 3.15295,-4.579435 0,0 1.93703,-0.844172 1.93703,-0.844172 l 0,0 c -1.05583,1.530902 -2.11262,3.061146 -3.17284,4.589016 -4.63849,6.679761 -8.76313,13.662521 -12.86258,20.687771 -4.00711,7.6586 -7.25249,15.66126 -10.85524,23.51286 -1.56409,3.42388 -1.99387,5.76999 -5.28214,7.95796 -0.35863,0.23863 0.45462,-2.92406 0.18953,-1.27832 1.12285,-5.04224 2.51485,-10.05819 2.97684,-15.21504 0.63236,-5.5317 0.82182,-11.05955 0.57263,-16.6267 -0.0567,-1.06321 0.0322,-2.5182 -0.47709,-3.52466 -0.15911,-0.31447 -1.06539,-0.26742 -0.88889,-0.57246 0.20491,-0.35413 0.67429,-0.46361 1.01143,-0.69542 -3.73014,3.18942 -6.43617,7.22302 -9.02919,11.36173 -4.36482,6.72871 -8.86702,13.40001 -13.82854,19.70445 -5.43956,5.84838 -11.87038,10.56727 -19.64039,12.85653 0,0 1.66868,-1.2848 1.66868,-1.2848 z" />
    <path
       style="fill:#000000;fill-opacity:1;fill-rule:nonzero;stroke:#000000;stroke-width:4;stroke-linecap:round;stroke-linejoin:round;stroke-miterlimit:4;stroke-opacity:1;stroke-dasharray:none;stroke-dashoffset:24.6"
       id="path3348"
       d="m 370.72455,380.21474 c 5.25844,-7.29834 10.7681,-14.41956 16.33057,-21.48936 8.09786,-10.20046 16.59094,-20.05572 25.39092,-29.65355 9.30326,-9.61257 19.17832,-18.64301 29.42439,-27.23594 9.36214,-7.37654 18.80173,-14.65685 28.28863,-21.87224 6.1096,-4.51978 11.98278,-9.34074 17.62734,-14.42669 1.78481,-1.64644 3.57127,-3.2938 5.28166,-5.01823 -0.41893,-0.0482 -0.67095,-0.45712 -0.93546,-0.76672 0,0 1.81914,-1.09644 1.81914,-1.09644 l 0,0 c 0.35099,0.40267 0.79839,0.63162 1.07937,1.04883 -1.71437,1.7363 -3.51636,3.38401 -5.3062,5.0413 -5.64955,5.09835 -11.53045,9.9296 -17.65085,14.45498 -9.49549,7.21038 -18.93162,14.50153 -28.30595,21.86866 -10.2538,8.58186 -20.12628,17.61266 -29.4397,27.21326 -8.79993,9.58944 -17.29038,19.43814 -25.38417,29.63387 -5.55213,7.05565 -11.04447,14.16819 -16.29008,21.454 0,0 -1.92961,0.84427 -1.92961,0.84427 z" />
    <path
       style="fill:#000000;fill-opacity:1;fill-rule:nonzero;stroke:#000000;stroke-width:4;stroke-linecap:round;stroke-linejoin:round;stroke-miterlimit:4;stroke-opacity:1;stroke-dasharray:none;stroke-dashoffset:24.6"
       id="path3350"
       d="m 479.82048,237.97302 c 6.66008,0.36066 13.20694,-0.62611 19.71656,-1.89925 5.77896,-1.10635 11.44354,-2.70624 17.23664,-3.75234 3.63711,-0.64336 4.83548,-0.42761 3.48917,3.38814 -2.11961,6.01302 -5.13775,11.66876 -7.97871,17.36327 -3.06545,6.2498 -5.17671,12.90495 -8.15048,19.1869 -1.05378,1.52019 -1.13045,3.703 -2.34089,5.12001 0,0 -1.96707,0.80839 -1.96707,0.80839 l 0,0 c 1.43645,-1.07955 1.25276,-3.7418 2.39657,-5.05924 3.00751,-6.27371 5.11241,-12.93948 8.17006,-19.1999 2.83238,-5.68332 5.8475,-11.32788 7.95938,-17.32843 1.40484,-3.7237 0.2548,-3.58855 -3.25503,-3.01411 -5.78546,1.05553 -11.44703,2.64612 -17.22207,3.74472 -6.52479,1.26697 -13.0867,2.21845 -19.75868,1.88027 0,0 1.70455,-1.23843 1.70455,-1.23843 z" />
    <path
       style="fill:#000000;fill-opacity:1;fill-rule:nonzero;stroke:#000000;stroke-width:4;stroke-linecap:round;stroke-linejoin:round;stroke-miterlimit:4;stroke-opacity:1;stroke-dasharray:none;stroke-dashoffset:24.6"
       id="path3352"
       d="m 539.26375,207.89721 c 5.12246,-5.54191 9.82697,-11.43656 14.59312,-17.2808 3.4619,-4.67359 6.89974,-9.36136 10.6049,-13.84647 4.06815,-3.89939 5.05823,-2.81526 5.40277,2.04567 0.0305,5.066 -1.04752,10.08169 -1.6059,15.11386 -0.73019,4.2558 -2.12994,8.3715 -1.79722,12.72022 1.07974,3.39609 2.62077,1.0516 3.9179,-0.0712 5.79351,-5.49395 10.68861,-11.87224 15.55124,-18.18353 3.13398,-3.7553 5.26346,-8.13834 7.41904,-12.484 0,0 1.88656,-0.85439 1.88656,-0.85439 l 0,0 c -2.15488,4.35557 -4.27004,8.75826 -7.40717,12.52307 -4.85229,6.31345 -9.74308,12.68546 -15.50144,18.20727 -2.1444,1.88793 -6.40745,6.48037 -7.73829,1.8352 -0.34831,-4.36582 1.02187,-8.4939 1.79156,-12.76173 0.55463,-5.02024 1.62426,-10.02397 1.61399,-15.07561 -0.0662,-0.96733 -0.072,-2.16383 -0.37539,-3.12385 -0.0982,-0.31083 -0.52629,-0.56428 -0.43328,-0.8767 0.51967,-1.74565 2.15317,-2.19058 -0.78951,0.163 -3.7205,4.4812 -7.17195,9.16724 -10.62715,13.85428 -4.766,5.83816 -9.46648,11.72779 -14.5594,17.28956 0,0 -1.94633,0.8062 -1.94633,0.8062 z" />
    <path
       style="fill:#000000;fill-opacity:1;fill-rule:nonzero;stroke:#000000;stroke-width:4;stroke-linecap:round;stroke-linejoin:round;stroke-miterlimit:4;stroke-opacity:1;stroke-dasharray:none;stroke-dashoffset:24.6"
       id="path3354"
       d="m 297.29649,512.56133 c 1.73446,6.97869 2.74757,14.07551 3.36989,21.22955 0.58656,8.29839 0.61204,16.62219 0.65269,24.93704 0.0529,7.81097 -1.00228,15.57857 -1.55071,23.3633 -0.75192,5.8512 -1.77776,11.6567 -2.32878,17.53284 -0.20721,2.61787 -0.32829,5.24172 -0.39204,7.86673 0,0 -1.89071,0.95716 -1.89071,0.95716 l 0,0 c 0.0733,-2.63221 0.20058,-5.26306 0.40407,-7.88863 0.54881,-5.87863 1.57561,-11.68563 2.34683,-17.53645 0.54612,-7.78102 1.60471,-15.54411 1.56039,-23.3508 -0.0339,-8.30978 -0.0628,-16.62842 -0.64483,-24.92189 -0.61951,-7.14703 -1.61697,-14.24275 -3.39012,-21.20589 0,0 1.86332,-0.98296 1.86332,-0.98296 z" />
    <path
       style="fill:#000000;fill-opacity:1;fill-rule:nonzero;stroke:#000000;stroke-width:4;stroke-linecap:round;stroke-linejoin:round;stroke-miterlimit:4;stroke-opacity:1;stroke-dasharray:none;stroke-dashoffset:24.6"
       id="path3356"
       d="m 287.38646,603.86795 c 2.7923,4.89978 5.50988,9.86524 7.83297,15.0088 1.40803,2.66861 3.50035,4.81059 6.61343,3.71288 0.4327,-0.20121 0.91398,-0.32051 1.29811,-0.60364 0.10014,-0.0738 -0.4393,0.0131 -0.3633,-0.0854 0.95478,-1.23719 2.28719,-2.13615 3.33084,-3.29936 1.00825,-1.12375 2.87509,-3.48542 3.79596,-4.63309 3.3744,-4.27751 6.00823,-8.88847 7.68577,-14.06317 0,0 1.90238,-0.89561 1.90238,-0.89561 l 0,0 c -1.67241,5.19903 -4.28054,9.8386 -7.66647,14.13792 -3.30833,4.13641 -6.5952,8.63629 -11.65383,10.73671 -3.21039,0.92082 -5.34117,-1.23599 -6.77329,-3.97495 -2.30308,-5.13968 -5.00973,-10.10045 -7.8198,-14.97627 0,0 1.81723,-1.06484 1.81723,-1.06484 z" />
    <path
       style="fill:#000000;fill-opacity:1;fill-rule:nonzero;stroke:#000000;stroke-width:4;stroke-linecap:round;stroke-linejoin:round;stroke-miterlimit:4;stroke-opacity:1;stroke-dasharray:none;stroke-dashoffset:24.6"
       id="path3358"
       d="m 293.28283,635.84593 c 1.8181,5.76876 2.66111,11.78142 3.27513,17.78022 0.28323,3.04514 0.39339,6.10105 0.52593,9.15502 -0.63047,0.058 -1.32947,0.46562 -1.89141,0.17394 -0.37588,-0.19511 0.46111,-7.42934 0.5851,-8.13336 0.85155,-3.19449 0.12426,-7.46929 2.91283,-9.76447 3.7888,-2.11648 3.56368,-0.82736 5.14248,2.2699 0.4741,0.80024 0.71044,1.72729 1.1501,2.54245 0.0847,0.15702 0.70121,-0.11992 0.52291,-0.11404 -0.46597,0.0154 -0.89598,0.25817 -1.34397,0.38726 1.70383,-3.14712 3.92725,-3.12837 6.49682,-0.69437 2.01772,2.609 3.58896,5.5451 5.92728,7.89013 0.87307,0.55187 2.12455,2.42743 3.27653,1.64849 0,0 -1.66118,1.32551 -1.66118,1.32551 l 0,0 c -1.33944,0.4376 -2.44324,-1.20156 -3.41511,-1.87216 -2.32325,-2.35603 -3.90569,-5.27737 -5.92549,-7.8826 -0.3247,-0.3033 -0.63246,-0.62581 -0.97409,-0.9099 -0.28517,-0.23715 -0.88455,-0.28026 -0.90256,-0.65071 -0.0271,-0.55765 0.72154,-0.91899 0.79939,-1.47183 0.14566,-1.03454 -1.69681,1.53749 -1.68169,1.7641 -3.54794,2.84488 -2.53896,2.27557 -4.10624,-0.91417 -0.42687,-0.83489 -0.85301,-1.83795 -1.3754,-2.61363 -0.2298,-0.34121 -1.22124,-0.28975 -1.04262,-0.66034 0.19685,-0.40842 0.71967,-0.55164 1.07951,-0.82746 -2.95042,2.05713 -2.13024,6.51905 -2.98828,9.62559 -0.15261,0.85742 -0.54198,2.9023 -0.60607,3.80307 -0.0584,0.82143 0.48136,3.57267 0.0184,4.28977 -0.46681,0.72307 -1.25896,1.17389 -1.88844,1.76084 -0.0828,-3.05637 -0.22822,-6.11151 -0.48933,-9.15831 -0.60285,-5.98334 -1.4299,-11.98491 -3.26806,-17.73143 0,0 1.84752,-1.01751 1.84752,-1.01751 z" />
    <path
       style="fill:#000000;fill-opacity:1;fill-rule:nonzero;stroke:#000000;stroke-width:4;stroke-linecap:round;stroke-linejoin:round;stroke-miterlimit:4;stroke-opacity:1;stroke-dasharray:none;stroke-dashoffset:24.6"
       id="path3360"
       d="m 345.05702,642.07645 c -2.88942,4.06923 -5.5115,8.58573 -6.31422,13.56321 0.10987,1.00793 -0.49544,2.84974 0.41292,3.7236 0.28984,0.27883 1.47798,-0.35009 1.20533,-0.0544 -0.26064,0.28264 -0.69218,0.33491 -1.03826,0.50236 1.87647,-2.13743 3.20511,-4.65206 4.07167,-7.34634 2.28008,-4.21289 4.42252,-2.6266 6.79475,-0.0616 2.35838,3.2469 4.58853,6.57742 6.76149,9.94917 2.37819,3.65035 3.24412,7.82209 3.73113,12.07653 0.2859,6.74921 -4.22689,10.79777 -9.1586,14.61747 -6.05913,4.38489 -12.78525,5.40157 -19.99116,6.17382 0,0 1.65727,-1.23163 1.65727,-1.23163 l 0,0 c 5.65706,-0.62028 11.40451,-1.16257 16.40193,-4.17099 4.9005,-3.75435 9.47178,-7.71948 9.22803,-14.413 -0.47497,-4.22437 -1.32063,-8.36825 -3.68422,-11.992 -2.16848,-3.35997 -4.38764,-6.68369 -6.74797,-9.91405 -0.47402,-0.50726 -1.39619,-1.56427 -2.02297,-2.00662 -0.24392,-0.17215 -0.81926,-0.0957 -0.80437,-0.39392 0.0192,-0.38555 1.8792,-2.4196 -0.25495,0.46595 -0.84918,2.74044 -2.20821,5.23649 -4.00906,7.4774 -4.15312,2.435 -4.62349,2.22827 -4.44061,-2.47645 0.75721,-5.00892 3.39707,-9.5487 6.26253,-13.6599 0,0 1.93934,-0.82856 1.93934,-0.82856 z" />
    <path
       style="fill:#000000;fill-opacity:1;fill-rule:nonzero;stroke:#000000;stroke-width:4;stroke-linecap:round;stroke-linejoin:round;stroke-miterlimit:4;stroke-opacity:1;stroke-dasharray:none;stroke-dashoffset:24.6"
       id="path3362"
       d="m 86.148672,412.7066 c -0.04377,10.86228 0.108886,21.7225 -0.282765,32.57885 -0.651426,15.54014 -1.774494,31.06105 -3.17638,46.55074 -1.049521,14.01219 -2.610868,27.96055 -4.585087,41.86947 -0.560345,5.15895 -1.476,10.26664 -2.391177,15.37091 0,0 -1.861816,0.90713 -1.861816,0.90713 l 0,0 c 0.927763,-5.10403 1.85333,-10.21205 2.413442,-15.37327 1.985654,-13.90883 3.562761,-27.85687 4.611344,-41.87086 1.404686,-15.48438 2.524207,-31.00053 3.171248,-46.53578 0.386299,-10.84406 0.228603,-21.69229 0.226873,-32.54218 0,0 1.874318,-0.95501 1.874318,-0.95501 z" />
    <path
       style="fill:#000000;fill-opacity:1;fill-rule:nonzero;stroke:#000000;stroke-width:4;stroke-linecap:round;stroke-linejoin:round;stroke-miterlimit:4;stroke-opacity:1;stroke-dasharray:none;stroke-dashoffset:24.6"
       id="path3364"
       d="m 57.067834,557.01254 c 2.983557,6.60422 5.102601,13.51787 7.054912,20.48339 2.075166,4.40397 2.21407,10.25619 5.682905,13.90149 2.188863,0.74899 3.373394,-2.73785 5.089765,-5.40805 3.149761,-5.93044 5.496451,-12.23074 8.423255,-18.26514 1.315898,-2.5452 2.367312,-5.20925 3.407989,-7.87405 0,0 1.903606,-0.88228 1.903606,-0.88228 l 0,0 c -1.04331,2.67107 -2.091307,5.34433 -3.412532,7.89465 -2.942588,6.03036 -5.287346,12.33239 -8.403375,18.28315 -1.778211,2.77953 -4.713092,8.6312 -8.813039,7.3494 -3.445582,-3.72989 -3.647726,-9.53198 -5.704724,-14.00498 -1.945613,-6.95215 -4.052411,-13.85619 -7.060548,-20.43459 0,0 1.831786,-1.04299 1.831786,-1.04299 z" />
    <path
       style="fill:#000000;fill-opacity:1;fill-rule:nonzero;stroke:#000000;stroke-width:4;stroke-linecap:round;stroke-linejoin:round;stroke-miterlimit:4;stroke-opacity:1;stroke-dasharray:none;stroke-dashoffset:24.6"
       id="path3366"
       d="m 64.84728,625.4798 c -0.01299,5.3406 -0.0094,10.68123 -1.2e-4,16.02183 -1.585427,-0.97806 0.465644,1.33821 0.0087,1.37534 -0.549824,0.0447 -1.333287,0.27645 -1.645253,-0.1785 -0.12842,-0.18728 1.534102,-5.83829 1.641497,-6.2332 1.624106,-5.3507 4.111268,-10.35844 7.050699,-15.09542 1.556933,-2.37692 5.335323,-7.02012 7.078168,-2.47609 0.870349,4.24125 0.785919,8.61218 0.820061,12.92284 -0.0057,0.31711 0.0231,6.75455 -0.01013,6.7549 -0.556205,0.006 -1.103502,-0.14098 -1.655253,-0.21147 1.006164,-4.34204 2.874481,-8.39255 4.73623,-12.41986 2.013083,-3.56239 3.305654,-8.0573 6.91983,-10.36004 0.910109,-0.33987 1.764784,-0.9122 2.730327,-1.01962 2.154205,-0.23967 3.366183,7.32869 3.565916,8.55177 1.213805,5.69674 1.967298,11.4684 2.484698,17.26558 0.193861,2.56808 0.10994,1.36007 0.256646,3.62367 0,0 -1.873554,0.96946 -1.873554,0.96946 l 0,0 c -0.137499,-2.26429 -0.05799,-1.05607 -0.243833,-3.62431 -0.505378,-5.79381 -1.248494,-11.56272 -2.476509,-17.25251 -0.358872,-2.21202 -0.620886,-4.50781 -1.671327,-6.53 -0.230856,-0.44442 -0.485657,-0.89162 -0.839624,-1.2459 -0.246627,-0.24683 -0.92349,-0.1608 -0.914375,-0.50961 0.01197,-0.45807 0.63571,-0.66013 0.953565,-0.99019 -3.712653,2.13264 -4.963499,6.73925 -6.985298,10.25208 -1.854522,4.01449 -3.732663,8.04225 -4.738529,12.36923 -0.715819,0.69712 -1.394597,1.43441 -2.147458,2.09135 -0.284788,0.2485 0.02099,-0.75568 0.02433,-1.13364 0.01655,-1.87519 0.01798,-3.75052 0.01327,-5.62576 -0.03019,-4.28654 0.05146,-8.63079 -0.79581,-12.85123 -0.216646,-0.58163 -0.291281,-1.4223 -1.035744,-1.63747 -0.25509,-0.0737 -0.790748,0.31973 -0.794746,0.0542 -0.0047,-0.31075 0.970734,-0.7497 0.788059,-0.49827 -0.298271,0.41055 -0.766957,0.6647 -1.150436,0.99705 -0.373079,0.56234 -0.746159,1.12469 -1.119238,1.68703 -2.95033,4.71604 -5.44531,9.70408 -7.077326,15.03998 -0.15945,0.59368 -1.349784,5.79847 -1.628392,6.21751 -0.550392,0.82783 -1.38302,1.43522 -2.154891,2.06168 -0.358263,0.29076 1.24482,-3.46176 0.0087,-1.38421 0.0092,-5.34056 0.01289,-10.68114 -1.2e-4,-16.0217 0,0 1.877291,-0.95653 1.877291,-0.95653 z" />
    <path
       style="fill:#000000;fill-opacity:1;fill-rule:nonzero;stroke:#000000;stroke-width:4;stroke-linecap:round;stroke-linejoin:round;stroke-miterlimit:4;stroke-opacity:1;stroke-dasharray:none;stroke-dashoffset:24.6"
       id="path3368"
       d="m 117.11622,618.64328 c -3.53964,4.69227 -6.14111,9.96654 -8.10666,15.48383 -0.58401,2.40905 -0.65789,6.42963 2.79589,5.15598 -0.27238,0.0883 -0.89476,0.54055 -0.81714,0.26493 0.16236,-0.57651 0.79649,-0.89886 1.13485,-1.39307 0.3942,-0.57575 0.74168,-1.18444 1.05627,-1.80726 1.01482,-2.00909 1.81508,-4.1678 2.71868,-6.23014 0.94267,-2.41268 2.64111,-7.76557 6.32501,-6.49889 2.90011,2.11146 4.37716,5.69636 5.77203,8.88595 2.24709,5.01103 5.10149,9.71448 7.5907,14.60309 2.85801,4.65686 4.55146,9.65315 5.38689,15.01635 1.16395,6.83594 -1.36058,12.80013 -4.6263,18.62799 -6.56194,8.8315 -16.53245,14.15795 -26.35047,18.63568 -8.21573,3.19189 -17.104243,4.26559 -25.623151,1.44099 -4.579649,-1.51846 -8.328463,-3.92415 -12.467459,-6.29284 0,0 1.712402,-1.11304 1.712402,-1.11304 l 0,0 c 4.178256,2.38839 7.798691,4.72567 12.431941,6.24113 8.510194,2.78355 17.369767,1.65799 25.552767,-1.5523 8.61741,-3.96276 17.14697,-8.67119 22.84498,-16.51153 3.26126,-5.78263 5.82613,-11.69376 4.67259,-18.49594 -0.82285,-5.34365 -2.50306,-10.32167 -5.35148,-14.96 -2.49039,-4.89248 -5.35146,-9.59676 -7.60179,-14.61088 -1.36568,-3.11971 -2.81451,-6.70059 -5.69518,-8.71996 -0.94223,-0.25054 -1.32869,-0.14052 0.33973,-1.13312 0.27992,-0.16653 -0.47718,0.44941 -0.66685,0.71419 -1.0451,1.45884 -1.73127,3.1749 -2.33578,4.84715 -1.91738,4.36385 -3.09462,9.06575 -7.67589,11.33779 -3.59238,0.98505 -3.62108,-2.97252 -3.02318,-5.56441 1.95489,-5.53278 4.55764,-10.8172 8.06726,-15.54311 0,0 1.93934,-0.82856 1.93934,-0.82856 z" />
    <path
       style="fill:#000000;fill-opacity:1;fill-rule:nonzero;stroke:#000000;stroke-width:4;stroke-linecap:round;stroke-linejoin:round;stroke-miterlimit:4;stroke-opacity:1;stroke-dasharray:none;stroke-dashoffset:24.6"
       id="path3370"
       d="m 313.4478,499.99108 c 5.32981,-4.54391 10.03433,-9.74782 15.19883,-14.48316 3.95499,-3.86803 7.68121,-7.96196 11.38591,-12.06793 1.70833,-2.03194 2.69626,-4.44932 3.85573,-6.79256 1.27571,-2.62618 2.60031,-5.20221 4.0673,-7.72744 1.77613,-2.77818 3.66854,-5.50401 5.71158,-8.09063 1.80303,-2.34104 3.6923,-4.62352 5.53052,-6.9436 1.0104,-1.11629 1.75743,-2.11911 1.96282,-3.6175 0.0174,-0.24257 0.0348,-0.48513 0.0522,-0.7277 0,0 1.89598,-0.95 1.89598,-0.95 l 0,0 c -0.0156,0.24609 -0.0312,0.49218 -0.0469,0.73827 -0.17276,1.55589 -0.84897,2.58218 -1.92126,3.72592 -1.84154,2.31922 -3.72715,4.60705 -5.53206,6.94524 -2.07093,2.55448 -3.92197,5.31198 -5.72636,8.06261 -1.45941,2.52598 -2.80763,5.08296 -4.06811,7.71367 -1.18589,2.3425 -2.13125,4.7941 -3.8373,6.84688 -3.71786,4.10944 -7.45159,8.21137 -11.40483,12.09719 -5.16466,4.72606 -9.87213,9.91268 -15.16683,14.4853 0,0 -1.95721,0.78544 -1.95721,0.78544 z" />
    <path
       style="fill:#000000;fill-opacity:1;fill-rule:nonzero;stroke:#000000;stroke-width:4;stroke-linecap:round;stroke-linejoin:round;stroke-miterlimit:4;stroke-opacity:1;stroke-dasharray:none;stroke-dashoffset:24.6"
       id="path3372"
       d="m 354.1335,433.9595 c 5.78976,0.31733 11.5103,-0.53634 17.22967,-1.29174 3.06736,-0.43415 6.01979,-2.4187 9.14825,-2.3019 1.98021,1.37135 1.82105,4.34288 1.5566,6.47009 -0.65779,4.01166 -1.48647,7.95515 -2.87496,11.781 -1.2251,3.07176 -2.23519,6.2123 -3.01078,9.42573 -0.12608,0.51205 -0.22453,1.02974 -0.31602,1.54871 0,0 -1.91077,0.9366 -1.91077,0.9366 l 0,0 c 0.0894,-0.52611 0.18782,-1.05056 0.31737,-1.5688 0.78036,-3.22218 1.7821,-6.37554 3.01595,-9.45468 1.40479,-3.80765 2.22538,-7.73701 2.88714,-11.73543 0.26879,-1.93973 0.50877,-4.94659 -1.38001,-6.16037 -3.12781,0.0358 -6.03404,1.88514 -9.11408,2.31457 -5.72732,0.75276 -11.45681,1.56982 -17.25291,1.27465 0,0 1.70455,-1.23843 1.70455,-1.23843 z" />
    <path
       style="fill:#000000;fill-opacity:1;fill-rule:nonzero;stroke:#000000;stroke-width:4;stroke-linecap:round;stroke-linejoin:round;stroke-miterlimit:4;stroke-opacity:1;stroke-dasharray:none;stroke-dashoffset:24.6"
       id="path3374"
       d="m 392.02256,463.54293 c 3.54129,-4.15178 6.67533,-8.59636 9.83194,-13.03481 1.31435,-0.9586 2.37758,-5.30517 3.87225,-5.81699 0.88356,-0.30256 1.80939,-0.46372 2.71408,-0.69558 1.57953,1.73723 1.52436,4.16698 1.58533,6.3812 0.0275,2.47024 -0.0174,4.94058 -0.0412,7.4107 -0.24226,2.29904 0.41583,4.42438 1.23953,6.53704 -0.86647,0.36208 0.59604,0.31019 0.41899,0.36334 -0.46229,0.13878 -0.98751,0.57565 -1.40791,0.33849 -0.01,-0.005 1.19184,-2.05592 1.86699,-3.3485 1.9526,-4.04619 4.29945,-7.79471 7.04705,-11.34528 2.98141,-4.2284 5.36842,-8.75422 7.3984,-13.49943 0,0 1.89863,-0.87278 1.89863,-0.87278 l 0,0 c -2.0276,4.75756 -4.40016,9.29724 -7.37107,13.54604 -2.75263,3.53455 -5.11065,7.2613 -7.04929,11.30419 -0.58843,1.15079 -2.99744,6.52708 -4.65272,4.54518 -0.8276,-2.1349 -1.51906,-4.28709 -1.27375,-6.60995 0.0219,-2.46823 0.0704,-4.93653 0.0466,-7.4049 -0.0552,-2.10663 0.0484,-4.50158 -1.45882,-6.156 0.33854,-0.42107 0.80329,-0.7664 1.01563,-1.26322 0.0924,-0.21622 -0.46164,0.1629 -0.61974,0.33695 -1.38262,1.52213 -1.8024,3.95206 -3.30269,5.41407 -3.17432,4.42393 -6.27352,8.89317 -9.8189,13.04168 0,0 -1.93935,0.82856 -1.93935,0.82856 z" />
    <path
       style="fill:#000000;fill-opacity:1;fill-rule:nonzero;stroke:#000000;stroke-width:4;stroke-linecap:round;stroke-linejoin:round;stroke-miterlimit:4;stroke-opacity:1;stroke-dasharray:none;stroke-dashoffset:24.6"
       id="path3376"
       d="m 102.55474,376.18995 c 4.87837,-4.75952 9.51693,-9.76914 14.58334,-14.33049 3.12692,-3.0866 6.55955,-5.84257 9.99463,-8.57496 0.87174,-0.87793 1.61127,-1.91704 1.91768,-3.12948 0.0368,-0.0893 0.0189,-0.18577 0.0283,-0.2775 0,0 1.88129,-0.99781 1.88129,-0.99781 l 0,0 c 0.002,0.11582 0.0585,0.23368 0.007,0.35257 -0.26052,1.25657 -1.01576,2.33643 -1.87238,3.26583 -3.44673,2.72869 -6.89451,5.47983 -10.02428,8.57325 -5.07711,4.53836 -9.70219,9.55233 -14.56918,14.31239 0,0 -1.94634,0.8062 -1.94634,0.8062 z" />
    <path
       style="fill:#000000;fill-opacity:1;fill-rule:nonzero;stroke:#000000;stroke-width:4;stroke-linecap:round;stroke-linejoin:round;stroke-miterlimit:4;stroke-opacity:1;stroke-dasharray:none;stroke-dashoffset:24.6"
       id="path3378"
       d="m 132.30927,339.68941 c 2.73803,-0.9026 7.1084,-2.5923 8.93365,0.5342 1.11017,3.91663 -0.31306,7.92321 -1.43038,11.67672 -1.06128,4.28983 -2.36213,8.50938 -3.62423,12.74408 -0.119,0.40028 -0.238,0.80057 -0.357,1.20086 0,0 -1.91054,0.90456 -1.91054,0.90456 l 0,0 c 0.12054,-0.40104 0.24109,-0.80209 0.36163,-1.20313 1.27258,-4.23431 2.57967,-8.45424 3.63404,-12.7485 1.10579,-3.70011 2.53474,-7.64304 1.49374,-11.51547 -1.74214,-2.99564 -6.21798,-1.10454 -8.76651,-0.29932 0,0 1.6656,-1.294 1.6656,-1.294 z" />
    <path
       style="fill:#000000;fill-opacity:1;fill-rule:nonzero;stroke:#000000;stroke-width:4;stroke-linecap:round;stroke-linejoin:round;stroke-miterlimit:4;stroke-opacity:1;stroke-dasharray:none;stroke-dashoffset:24.6"
       id="path3380"
       d="m 85.759712,331.68935 c 4.122945,-3.12632 7.946779,-6.62055 11.712828,-10.16159 2.479618,-2.11663 4.18596,-4.75362 6.22484,-0.85096 1.22449,3.41846 1.56448,7.12252 1.28921,10.7234 -0.50873,3.08339 -1.05675,6.15929 -1.52288,9.24993 0.0189,0.2972 -0.25862,3.14699 -1.66156,1.32876 -0.036,-0.0466 1.37476,-1.98168 1.39302,-2.00704 1.60616,-2.65947 3.46807,-5.15316 5.28662,-7.67479 1.50383,-2.63754 3.75668,-4.66937 5.7146,-6.93629 0.87481,-1.04224 1.5645,-2.11067 1.88777,-3.43101 0,0 1.91203,-0.91956 1.91203,-0.91956 l 0,0 c -0.3035,1.36095 -0.94879,2.45401 -1.85375,3.52603 -1.92092,2.29404 -4.2507,4.26392 -5.72533,6.92354 -1.83839,2.5027 -3.67658,5.01829 -5.28154,7.67199 -0.65463,0.8997 -4.6027,6.01294 -3.57271,2.45101 0.47449,-3.08793 1.01065,-6.16457 1.54228,-9.24281 0.299,-3.56029 -0.046,-7.2283 -1.24412,-10.61307 -0.35465,-0.67654 -0.48322,-1.10353 -1.04518,-1.59836 -0.11654,-0.10261 -0.49638,-0.0857 -0.41251,-0.21643 0.27594,-0.42999 0.88952,-0.55817 1.17954,-0.9788 0.53229,-0.77203 -3.604403,2.95678 -2.165453,1.79585 -3.767766,3.54346 -7.593592,7.0361 -11.696274,10.19275 0,0 -1.961431,0.76745 -1.961431,0.76745 z" />
    <path
       style="fill:#000000;fill-opacity:1;fill-rule:nonzero;stroke:#000000;stroke-width:4;stroke-linecap:round;stroke-linejoin:round;stroke-miterlimit:4;stroke-opacity:1;stroke-dasharray:none;stroke-dashoffset:24.6"
       id="path3382"
       d="m 577.59179,624.84087 c 4.89589,4.07416 9.58883,8.36513 14.56769,12.33919 5.28837,4.01922 10.14464,8.52245 15.1178,12.91073 6.24295,5.78311 13.02755,10.90148 19.90045,15.90195 8.68287,6.09593 17.60723,11.83284 26.50951,17.60205 10.0384,6.54108 20.65721,12.08283 31.17789,17.78425 11.57516,6.14127 23.56927,11.43487 35.07248,17.71175 12.23237,6.63764 24.19964,13.73992 36.46617,20.31643 12.49922,6.77633 25.23775,13.09545 37.86856,19.62058 11.36416,5.90545 22.30156,12.57976 33.61536,18.57417 9.2369,5.13346 18.4441,10.32259 27.427,15.89119 2.9007,1.88207 6.0029,3.40059 9.1145,4.89049 0,0 -1.7468,1.15315 -1.7468,1.15315 l 0,0 c -3.1083,-1.50357 -6.2073,-3.0348 -9.1084,-4.92108 -8.9739,-5.5696 -18.1705,-10.76345 -27.4033,-15.8899 -11.3077,-6.00015 -22.2409,-12.67689 -33.60396,-18.57907 -12.62867,-6.53035 -25.36944,-12.84621 -37.86824,-19.62451 -12.26537,-6.58058 -24.2368,-13.67792 -36.47041,-20.31535 -11.50724,-6.27157 -23.5047,-11.56111 -35.07877,-17.70695 -10.52738,-5.7008 -21.14853,-11.25023 -31.19117,-17.7948 -8.90961,-5.76722 -17.83901,-11.50612 -26.52639,-17.60453 -6.87924,-5.0047 -13.67319,-10.12377 -19.92325,-15.91067 -4.97157,-4.38611 -9.83522,-8.8769 -15.11775,-12.89873 -4.97712,-3.97904 -9.66363,-8.282 -14.58482,-12.3286 0,0 1.78585,-1.12174 1.78585,-1.12174 z" />
    <path
       style="fill:#000000;fill-opacity:1;fill-rule:nonzero;stroke:#000000;stroke-width:4;stroke-linecap:round;stroke-linejoin:round;stroke-miterlimit:4;stroke-opacity:1;stroke-dasharray:none;stroke-dashoffset:24.6"
       id="path3384"
       d="m 575.72026,625.8862 c 6.44733,-4.82683 12.21598,-10.43548 17.97147,-16.04897 8.80806,-9.17137 17.03967,-18.87997 25.29836,-28.54403 9.43454,-11.6482 18.77008,-23.38407 28.54519,-34.75126 9.44946,-11.45655 19.51963,-22.36246 29.46777,-33.38189 8.74231,-9.32303 17.10786,-18.9852 25.69177,-28.45181 6.97613,-8.31753 14.38159,-16.25804 21.51734,-24.43395 6.78864,-8.00698 14.14605,-15.50315 21.37206,-23.11225 6.90408,-7.03579 14.15832,-13.70217 21.37247,-20.41506 5.11801,-4.92739 10.34535,-9.73394 15.53286,-14.5833 1.63084,-2.38136 5.3224,-3.40672 6.18944,-6.2675 -0.33508,-1.04528 -0.0912,-0.55783 -0.73637,-1.45997 0,0 1.82507,-1.07656 1.82507,-1.07656 l 0,0 c 0.69779,0.99098 0.41992,0.45138 0.823,1.62422 -0.6874,2.96162 -4.51044,4.00756 -6.16401,6.38484 -5.1831,4.86362 -10.44171,9.64854 -15.55385,14.59266 -7.21627,6.71331 -14.47571,13.37638 -21.3871,20.40728 -7.22466,7.60772 -14.58376,15.09947 -21.37297,23.10316 -7.13195,8.18376 -14.55489,16.11371 -21.5247,24.4414 -8.59101,9.46679 -16.95791,19.13428 -25.70696,28.45769 -9.95071,11.01872 -20.02711,21.92053 -29.47524,33.37978 -9.78205,11.35849 -19.11307,23.09608 -28.53954,34.74804 -8.25009,9.66514 -16.48159,19.36655 -25.26808,28.5515 -5.74213,5.60927 -11.48924,11.22402 -17.92078,16.05053 0,0 -1.9572,0.78545 -1.9572,0.78545 z" />
    <path
       style="fill:#000000;fill-opacity:1;fill-rule:nonzero;stroke:#000000;stroke-width:4;stroke-linecap:round;stroke-linejoin:round;stroke-miterlimit:4;stroke-opacity:1;stroke-dasharray:none;stroke-dashoffset:24.6"
       id="path3386"
       d="m 867.0683,782.75689 c 3.7832,4.75674 8.5306,8.60663 12.6736,13.03023 3.553,3.19667 6.2793,7.08073 8.9409,11.00887 1.3906,2.36567 2.8234,4.60623 2.2875,7.39804 -1.8379,3.4863 -6.5597,4.15958 -10.0526,5.04921 -6.9685,1.2137 -13.8046,2.94935 -20.6313,4.77564 -6.3338,1.36419 -11.9466,4.26972 -17.343,7.70603 -1.9628,1.29417 -1.0579,0.68688 -2.7188,1.81587 0,0 -1.9663,0.77149 -1.9663,0.77149 l 0,0 c 1.668,-1.13626 0.7594,-0.52526 2.7298,-1.82693 6.5632,-4.18903 13.2513,-8.02881 20.9455,-9.73029 6.8335,-1.83086 13.6827,-3.54106 20.6519,-4.78872 3.6884,-0.9534 5.2844,-0.61469 6.4802,-2.84932 0.5837,-2.73822 -0.8323,-4.92516 -2.1972,-7.25627 -2.649,-3.92307 -5.3772,-7.78994 -8.9127,-10.98716 -4.1474,-4.42869 -8.8932,-8.28689 -12.6977,-13.03475 0,0 1.8102,-1.08194 1.8102,-1.08194 z" />
    <path
       style="fill:#000000;fill-opacity:1;fill-rule:nonzero;stroke:#000000;stroke-width:4;stroke-linecap:round;stroke-linejoin:round;stroke-miterlimit:4;stroke-opacity:1;stroke-dasharray:none;stroke-dashoffset:24.6"
       id="path3388"
       d="m 960.4587,797.57133 c -7.3221,4.51415 -14.1494,9.76371 -21.087,14.83384 -7.3777,5.29206 -15.122,10.19 -23.6285,13.44738 -2.6625,0.86753 -1.4116,0.49411 -3.7455,1.14382 0,0 1.6713,-1.28543 1.6713,-1.28543 l 0,0 c 2.3181,-0.65386 1.0753,-0.27832 3.7212,-1.1501 7.2353,-2.8039 13.8591,-6.72053 20.0629,-11.39546 6.9283,-5.0604 13.7356,-10.31566 21.0441,-14.8266 0,0 1.9615,-0.76745 1.9615,-0.76745 z" />
    <path
       style="fill:#000000;fill-opacity:1;fill-rule:nonzero;stroke:#000000;stroke-width:4;stroke-linecap:round;stroke-linejoin:round;stroke-miterlimit:4;stroke-opacity:1;stroke-dasharray:none;stroke-dashoffset:24.6"
       id="path3390"
       d="m 924.8339,795.52921 c 5.2791,5.25159 9.979,11.06446 14.319,17.10612 3.7903,5.31926 6.6599,11.20047 10.065,16.74959 0.662,2.32747 3.6968,4.54848 3.7357,7.05585 -0.06,0.11272 -0.1206,0.22544 -0.1809,0.33816 0,0 -1.9514,0.84279 -1.9514,0.84279 l 0,0 c 0.078,-0.0752 0.1566,-0.15032 0.2349,-0.22548 0.231,-1.82792 -3.1812,-5.19936 -3.6512,-6.9584 -3.3918,-5.55142 -6.2565,-11.42874 -10.0434,-16.74453 -4.3295,-6.03695 -9.0246,-11.84514 -14.324,-17.06335 0,0 1.7963,-1.10075 1.7963,-1.10075 z" />
    <path
       style="fill:#000000;fill-opacity:1;fill-rule:nonzero;stroke:#000000;stroke-width:4;stroke-linecap:round;stroke-linejoin:round;stroke-miterlimit:4;stroke-opacity:1;stroke-dasharray:none;stroke-dashoffset:24.6"
       id="path3392"
       d="m 756.77054,387.83805 c 5.27015,1.77646 10.63288,2.77887 16.18581,2.63925 3.69864,-0.20529 7.37963,-0.62722 11.07429,-0.88747 2.14066,-0.29699 3.91146,-0.13909 5.82785,0.83749 0.40135,-0.15238 1.07299,1.00721 1.42337,0.94262 0.12821,-0.0236 0.42893,-0.28786 0.30657,-0.24287 -0.40402,0.14855 -0.77632,0.3722 -1.16448,0.5583 0.60702,-0.0363 3.87932,-2.89837 4.95555,-1.91311 0.74131,3.71086 0.47299,7.69685 0.17524,11.45209 -0.88393,6.99939 -1.95711,14.03179 -3.45103,20.93228 -0.8371,3.73001 -1.85716,7.43303 -2.47077,11.2098 -0.13583,1.07161 -0.072,0.61146 -0.18356,1.38154 0,0 -1.90713,0.93533 -1.90713,0.93533 l 0,0 c 0.12529,-0.76905 0.0561,-0.30773 0.19059,-1.38643 0.598,-3.78741 1.65774,-7.49305 2.48914,-11.23191 1.51957,-6.88584 2.56959,-13.91837 3.46366,-20.90697 0.29936,-3.71148 0.48513,-7.56545 -0.1063,-11.25435 -0.67635,-0.40781 -3.81349,1.64415 -1.18579,-10e-4 -2.77084,1.72368 -2.25638,1.97289 -4.30645,0.68981 -1.88525,-0.93862 -3.66974,-1.0184 -5.75735,-0.74811 -3.69145,0.25964 -7.36971,0.68147 -11.06627,0.86911 -5.56963,0.11034 -10.94969,-0.92848 -16.23831,-2.69081 0,0 1.74537,-1.18421 1.74537,-1.18421 z" />
    <path
       style="fill:#000000;fill-opacity:1;fill-rule:nonzero;stroke:#000000;stroke-width:4;stroke-linecap:round;stroke-linejoin:round;stroke-miterlimit:4;stroke-opacity:1;stroke-dasharray:none;stroke-dashoffset:24.6"
       id="path3394"
       d="m 814.9556,333.8385 c 0.795,7.35145 1.0528,14.76046 1.9823,22.09432 0.7188,4.51948 1.2961,9.66376 4.7714,12.98226 0.385,0.26207 2.8186,0.93785 3.0143,0.0221 0.069,-0.32359 -0.9498,0.59094 -0.9579,0.26014 -0.012,-0.49469 0.6721,-0.73366 0.936,-1.15224 0.3398,-0.53886 0.5768,-1.13609 0.8651,-1.70414 1.8139,-4.49609 2.0735,-9.35998 2.3247,-14.14243 0.1097,-3.06712 0.1716,-6.13835 0.1233,-9.20754 3.2301,-3.07829 5.1607,5.17084 5.6963,6.78127 2.5808,7.21598 4.7318,14.56501 6.8901,21.91492 2.4496,8.11821 3.3549,16.54733 3.8888,24.97381 0.2661,7.18262 -2.081,13.4917 -6.6443,18.93582 -8.5176,7.2414 -15.7539,6.17827 -25.8335,3.74153 0,0 1.6997,-1.17458 1.6997,-1.17458 l 0,0 c 7.3822,1.76941 15.9056,3.65525 22.2117,-1.75198 4.5935,-5.37919 6.9607,-11.64222 6.7202,-18.79545 -0.5251,-8.4131 -1.4165,-16.82985 -3.8627,-24.93521 -2.1606,-7.34526 -4.3081,-14.69152 -6.9064,-21.89756 -0.6672,-1.99913 -1.3606,-3.96928 -2.3219,-5.85118 -0.2095,-0.40996 -0.7877,-0.74562 -0.6911,-1.19572 0.3322,-1.54746 2.1927,-2.07739 1.044,-1.71159 0.015,3.07716 -0.018,6.15539 -0.1389,9.23036 -0.2543,4.80418 -0.5017,9.68599 -2.2823,14.21706 -1.3569,2.80877 -4.1533,6.3277 -7.5736,4.54902 -3.474,-3.39314 -4.1074,-8.53122 -4.8168,-13.11965 -0.9321,-7.33901 -1.1664,-14.75467 -2.0157,-22.10677 0,0 1.8772,-0.95653 1.8772,-0.95653 z" />
    <path
       style="fill:#000000;fill-opacity:1;fill-rule:nonzero;stroke:#000000;stroke-width:4;stroke-linecap:round;stroke-linejoin:round;stroke-miterlimit:4;stroke-opacity:1;stroke-dasharray:none;stroke-dashoffset:24.6"
       id="path3396"
       d="m 227.88633,320.64995 c -3.66983,5.35658 -7.24241,10.78086 -10.79825,16.21468 -0.49396,0.74875 -0.98792,1.4975 -1.48188,2.24625 0,0 -1.919,0.84057 -1.919,0.84057 l 0,0 c 0.49584,-0.74926 0.99167,-1.49853 1.48751,-2.24779 3.55719,-5.42779 7.12588,-10.84883 10.782,-16.20944 0,0 1.92962,-0.84427 1.92962,-0.84427 z" />
    <path
       style="fill:#000000;fill-opacity:1;fill-rule:nonzero;stroke:#000000;stroke-width:4;stroke-linecap:round;stroke-linejoin:round;stroke-miterlimit:4;stroke-opacity:1;stroke-dasharray:none;stroke-dashoffset:24.6"
       id="path3398"
       d="m 185.28057,378.16772 c -2.65597,4.49704 -5.5494,8.84043 -8.21405,13.33237 0,0 -1.91247,0.84875 -1.91247,0.84875 l 0,0 c 2.66485,-4.49009 5.56398,-8.82789 8.19691,-13.33685 0,0 1.92961,-0.84427 1.92961,-0.84427 z" />
    <path
       style="fill:#000000;fill-opacity:1;fill-rule:nonzero;stroke:#000000;stroke-width:4;stroke-linecap:round;stroke-linejoin:round;stroke-miterlimit:4;stroke-opacity:1;stroke-dasharray:none;stroke-dashoffset:24.6"
       id="path3400"
       d="m 172.49884,407.99175 c -0.47039,0.70411 -0.94079,1.40822 -1.41118,2.11232 0,0 -1.92123,0.84061 -1.92123,0.84061 l 0,0 c 0.4676,-0.70289 0.9352,-1.40577 1.4028,-2.10866 0,0 1.92961,-0.84427 1.92961,-0.84427 z" />
    <path
       style="fill:#000000;fill-opacity:1;fill-rule:nonzero;stroke:#000000;stroke-width:4;stroke-linecap:round;stroke-linejoin:round;stroke-miterlimit:4;stroke-opacity:1;stroke-dasharray:none;stroke-dashoffset:24.6"
       id="path3402"
       d="m 151.44622,442.06405 c -2.37507,5.72715 -5.69792,10.97466 -8.95815,16.22463 -2.17901,3.23085 -1.10794,1.68299 -3.20594,4.64861 0,0 -1.92257,0.83456 -1.92257,0.83456 l 0,0 c 2.10601,-2.96094 1.03142,-1.41613 3.21656,-4.63943 3.26252,-5.23707 6.60035,-10.47108 8.94961,-16.19948 0,0 1.92049,-0.86889 1.92049,-0.86889 z" />
  </g>
</svg>
