<?xml version="1.0" encoding="UTF-8" standalone="no"?>
<!-- Created with Inkscape (http://www.inkscape.org/) -->
<svg
   xmlns:dc="http://purl.org/dc/elements/1.1/"
   xmlns:cc="http://creativecommons.org/ns#"
   xmlns:rdf="http://www.w3.org/1999/02/22-rdf-syntax-ns#"
   xmlns:svg="http://www.w3.org/2000/svg"
   xmlns="http://www.w3.org/2000/svg"
   xmlns:sodipodi="http://sodipodi.sourceforge.net/DTD/sodipodi-0.dtd"
   xmlns:inkscape="http://www.inkscape.org/namespaces/inkscape"
   width="851.93665"
   height="913.133"
   id="svg3404"
   sodipodi:version="0.32"
   inkscape:version="0.46+devel"
   sodipodi:docname="hw9d2.svg"
   inkscape:output_extension="org.inkscape.output.svg.inkscape"
   version="1.0">
  <defs
     id="defs3406">
    <marker
       inkscape:stockid="Arrow1Lend"
       orient="auto"
       refY="0"
       refX="0"
       id="Arrow1Lend"
       style="overflow:visible">
      <path
         id="path4472"
         d="M 0,0 5,-5 -12.5,0 5,5 0,0 z"
         style="fill-rule:evenodd;stroke:#000000;stroke-width:1pt;marker-start:none"
         transform="matrix(-0.8,0,0,-0.8,-10,0)" />
    </marker>
    <inkscape:perspective
       sodipodi:type="inkscape:persp3d"
       inkscape:vp_x="0 : 526.18109 : 1"
       inkscape:vp_y="0 : 1000 : 0"
       inkscape:vp_z="744.09448 : 526.18109 : 1"
       inkscape:persp3d-origin="372.04724 : 350.78739 : 1"
       id="perspective3412" />
  </defs>
  <sodipodi:namedview
     id="base"
     pagecolor="#ffffff"
     bordercolor="#666666"
     borderopacity="1.0"
     inkscape:pageopacity="0.0"
     inkscape:pageshadow="2"
     inkscape:zoom="0.35"
     inkscape:cx="-23.634749"
     inkscape:cy="525.41872"
     inkscape:document-units="px"
     inkscape:current-layer="layer1"
     showgrid="false"
     inkscape:window-width="1280"
     inkscape:window-height="712"
     inkscape:window-x="-5"
     inkscape:window-y="-3" />
  <metadata
     id="metadata3409">
    <rdf:RDF>
      <cc:Work
         rdf:about="">
        <dc:format>image/svg+xml</dc:format>
        <dc:type
           rdf:resource="http://purl.org/dc/dcmitype/StillImage" />
      </cc:Work>
    </rdf:RDF>
  </metadata>
  <g
     inkscape:label="Layer 1"
     inkscape:groupmode="layer"
     id="layer1"
     transform="translate(175.65097,-144.64789)">
    <path
       sodipodi:type="arc"
       style="fill:none;stroke:#000000;stroke-width:4;stroke-linecap:round;stroke-linejoin:round;stroke-miterlimit:4;stroke-opacity:1;stroke-dasharray:none;stroke-dashoffset:24.6"
       id="path3414"
       sodipodi:cx="400"
       sodipodi:cy="560.93359"
       sodipodi:rx="334.28571"
       sodipodi:ry="334.28571"
       d="m 734.28571,560.93359 c 0,184.52571 -149.76,334.28571 -334.28571,334.28571 -184.52571,0 -334.285706,-149.76 -334.285706,-334.28571 0,-184.52571 149.759996,-334.2857 334.285706,-334.2857 184.52571,0 334.28571,149.75999 334.28571,334.2857 z"
       transform="translate(-60,-80)" />
    <path
       style="fill:#000000;fill-opacity:1;stroke:#000000;stroke-width:4;stroke-linecap:round;stroke-linejoin:round;stroke-miterlimit:4;stroke-opacity:1;stroke-dasharray:none;stroke-dashoffset:24.6"
       id="path4190"
       d="m 541.89242,203.99237 c -4.74962,8.1959 -9.39687,16.45219 -13.87237,24.80071 -9.53957,18.08852 -18.44723,36.4807 -26.91326,55.09178 -9.15136,20.67744 -19.43347,40.82804 -30.38862,60.60059 -4.06886,6.77588 -8.54962,13.28638 -13.02901,19.79273 0,0 -4.9974,2.17608 -4.9974,2.17608 l 0,0 c 4.52716,-6.50275 9.03793,-13.02087 13.15993,-19.79257 11.01214,-19.75404 21.34083,-39.89596 30.47721,-60.59364 8.42608,-18.58184 17.2819,-36.95015 26.72116,-55.04206 4.41044,-8.31698 8.9999,-16.54016 13.69047,-24.70274 0,0 5.15189,-2.33088 5.15189,-2.33088 z" />
    <path
       style="fill:#000000;fill-opacity:1;stroke:#000000;stroke-width:4;stroke-linecap:round;stroke-linejoin:round;stroke-miterlimit:4;stroke-opacity:1;stroke-dasharray:none;stroke-dashoffset:24.6"
       id="path4192"
       d="m 442.83141,335.59706 c 0.44164,8.8661 -2.01584,17.58192 -4.67009,25.95044 -3.62086,9.95186 -8.12269,19.55344 -12.15834,29.34149 -3.13157,8.74278 2.79022,7.27278 8.97301,5.7853 9.98434,-4.02374 19.3287,-9.41856 28.61449,-14.8193 5.73115,-3.00204 11.05467,-6.4028 16.55417,-9.73524 0,0 5.12605,-1.9801 5.12605,-1.9801 l 0,0 c -5.49137,3.32567 -10.96524,6.69348 -16.60367,9.76617 -12.42626,7.18197 -24.72139,14.84802 -38.11191,20.13604 -6.67385,1.47288 -12.74725,2.15007 -9.59696,-6.82754 4.08075,-9.77427 8.5727,-19.38401 12.23392,-29.3248 2.63884,-8.26413 5.07707,-16.8688 4.66004,-25.6303 0,0 4.97929,-2.66216 4.97929,-2.66216 z" />
    <path
       style="fill:#000000;fill-opacity:1;stroke:#000000;stroke-width:4;stroke-linecap:round;stroke-linejoin:round;stroke-miterlimit:4;stroke-opacity:1;stroke-dasharray:none;stroke-dashoffset:24.6"
       id="path4194"
       d="m 344.12606,386.70516 c 5.49604,-6.61162 9.19431,-14.49273 12.94228,-22.167 6.08163,-13.42817 12.69425,-26.60409 19.90599,-39.45934 5.48023,-9.03491 10.68206,-18.23188 16.06317,-27.32472 2.87765,-4.11262 9.85467,-11.11968 8.60553,-1.27888 -1.56602,8.86946 -3.15536,17.74182 -4.6699,26.6268 -2.34065,11.05983 -5.08127,22.04588 -8.09607,32.94289 -0.18862,0.2446 -3.72446,13.83722 -1.49309,12.56208 -1.30108,0.64845 -2.48601,1.62172 -3.90325,1.94535 -0.58196,0.13289 0.82275,-0.8666 1.20112,-1.32832 0.50128,-0.6117 0.97862,-1.24351 1.43548,-1.88906 2.09838,-2.96506 4.0487,-6.05219 6.01709,-9.10339 6.79814,-9.3076 12.61623,-19.24676 18.5402,-29.1149 4.91291,-8.59274 10.44468,-16.79664 16.04298,-24.94779 1.66193,-2.49103 3.33337,-4.9797 4.86613,-7.55343 0.36337,-0.59943 -0.64203,-1.6113 -0.9639,-2.22454 0,0 4.9238,-2.81747 4.9238,-2.81747 l 0,0 c 0.38612,0.72969 1.55153,1.99007 1.24765,2.7321 -1.55559,2.60825 -3.28496,5.10925 -4.96544,7.63697 -5.61579,8.16241 -11.24615,16.32549 -16.14235,24.95471 -5.9281,9.84408 -11.6788,19.80629 -18.46694,29.10004 -1.54411,2.4211 -6.22754,10.9515 -8.46541,12.48028 -1.90355,1.30039 -4.00886,2.27752 -6.01329,3.41628 -2.93177,-1.4586 0.73676,-11.20079 1.14521,-13.47298 3.05339,-10.88118 5.81788,-21.8554 8.16036,-32.91034 1.4908,-8.85457 3.03399,-17.7016 4.54841,-26.54441 0.0472,-0.34496 0.43942,-2.82317 0.365,-3.44619 -0.0216,-0.18109 -0.44742,-0.34182 -0.30422,-0.45476 8.17417,-6.44673 2.50347,-1.24227 1.47874,0.42936 -5.45311,9.09508 -10.66745,18.33032 -16.2082,27.37405 -7.2192,12.82676 -13.84761,25.97284 -19.86737,39.40644 -3.71826,7.68361 -7.38887,15.52339 -12.70268,22.26506 0,0 -5.22703,2.16511 -5.22703,2.16511 z" />
    <path
       style="fill:#000000;fill-opacity:1;stroke:#000000;stroke-width:4;stroke-linecap:round;stroke-linejoin:round;stroke-miterlimit:4;stroke-opacity:1;stroke-dasharray:none;stroke-dashoffset:24.6"
       id="path4196"
       d="m 454.56906,238.04457 c 3.15819,8.47221 3.89672,17.62417 5.16654,26.52077 1.12293,7.9476 1.66221,15.95635 2.18026,23.96041 0,0 -4.88776,2.52863 -4.88776,2.52863 l 0,0 c -0.47269,-7.99691 -1.01034,-15.99572 -2.13672,-23.93303 -1.27639,-8.81607 -2.03441,-17.90696 -5.23624,-26.27887 0,0 4.91392,-2.79791 4.91392,-2.79791 z" />
    <path
       style="fill:#000000;fill-opacity:1;stroke:#000000;stroke-width:4;stroke-linecap:round;stroke-linejoin:round;stroke-miterlimit:4;stroke-opacity:1;stroke-dasharray:none;stroke-dashoffset:24.6"
       id="path4198"
       d="m 209.84034,783.84802 c 6.0146,-6.21038 11.40245,-13.01299 16.88835,-19.68994 10.12482,-12.87359 20.2627,-25.74836 29.50174,-39.27765 9.25802,-13.45964 18.70987,-26.77977 27.75859,-40.38359 5.16209,-7.02784 10.29591,-14.14349 16.1852,-20.59019 2.38487,-2.42014 4.94996,-4.6553 7.56315,-6.82402 0.64382,-0.65904 0.91502,-1.49373 1.12138,-2.36505 0,0 5.12616,-2.47906 5.12616,-2.47906 l 0,0 c -0.17946,0.95854 -0.44095,1.89233 -0.97799,2.72176 -2.6502,2.15093 -5.22876,4.39423 -7.66714,6.78396 -6.00742,6.37849 -11.10027,13.58232 -16.36197,20.56939 -9.07173,13.62034 -18.56782,26.9422 -27.83879,40.42491 -9.18938,13.52933 -19.30801,26.38077 -29.3651,39.27135 -5.4487,6.65198 -10.79758,13.42463 -16.70654,19.67302 0,0 -5.22704,2.16511 -5.22704,2.16511 z" />
    <path
       style="fill:#000000;fill-opacity:1;stroke:#000000;stroke-width:4;stroke-linecap:round;stroke-linejoin:round;stroke-miterlimit:4;stroke-opacity:1;stroke-dasharray:none;stroke-dashoffset:24.6"
       id="path4200"
       d="m 286.81673,636.03055 c 8.6373,-1.15358 16.57436,-4.8196 24.39983,-8.44253 8.82996,-3.70357 17.20419,-8.37312 26.25531,-11.53125 2.90365,-0.89091 2.94918,-0.78294 5.51863,-1.98946 0.6118,-0.28727 2.37339,-1.29238 1.79641,-0.94036 -6.67456,4.07219 -3.5636,2.09609 -2.1572,1.03199 1.73494,-0.57831 3.39931,-1.44407 5.20481,-1.73492 0.10265,-0.0165 0.15055,0.47351 -0.94997,2.17964 -1.0657,1.65214 -2.43563,3.15116 -3.63068,4.707 -5.92795,6.96361 -9.24653,15.52874 -12.78686,23.84018 -5.29269,11.63231 -9.40824,23.76618 -14.72359,35.38079 -1.39364,3.45542 -3.50633,6.43697 -5.78697,9.33598 0,0 -5.1542,2.2005 -5.1542,2.2005 l 0,0 c 2.34848,-2.8568 4.52951,-5.78904 5.93972,-9.25518 5.40406,-11.57418 9.46478,-23.7348 14.74526,-35.3715 3.5097,-8.30833 6.73414,-16.92222 12.60975,-23.91098 0.33696,-0.45239 4.41474,-6.30757 4.68405,-6.49221 1.63255,-1.11929 3.41803,-1.99731 5.12704,-2.99596 -4.25321,3.55157 -9.56632,5.84096 -14.82268,7.4345 -9.00275,3.20874 -17.37417,7.83612 -26.17702,11.53538 -7.8951,3.63302 -15.90329,7.21391 -24.59318,8.4267 0,0 4.50154,-3.40831 4.50154,-3.40831 z" />
    <path
       style="fill:#000000;fill-opacity:1;stroke:#000000;stroke-width:4;stroke-linecap:round;stroke-linejoin:round;stroke-miterlimit:4;stroke-opacity:1;stroke-dasharray:none;stroke-dashoffset:24.6"
       id="path4202"
       d="m 184.12606,658.13373 c 5.98914,-5.80663 10.75981,-12.67451 15.25685,-19.65661 5.92963,-10.24463 11.98353,-20.46961 17.20993,-31.09586 3.72266,-8.23931 8.39932,-15.96795 13.31206,-23.53392 3.59239,-4.63907 7.37053,-10.47644 13.77325,-11.34641 4.40277,1.67031 3.93629,8.37746 4.23137,12.2656 -0.4142,9.24329 -1.44549,18.43899 -2.82155,27.58399 -1.0562,6.85273 -1.87625,13.73907 -2.38701,20.65365 -0.27306,3.13076 0.74338,2.69235 -4.50156,3.53234 -0.56265,0.0901 0.58634,-0.97954 0.82755,-1.49578 0.34536,-0.73918 0.61953,-1.50957 0.9293,-2.26435 3.54513,-9.34967 7.66572,-18.4674 11.62788,-27.6449 4.90441,-11.37551 10.98954,-22.19448 16.75253,-33.14734 3.75487,-6.14849 6.61089,-12.67275 8.42915,-19.63106 0,0 5.077,-2.42479 5.077,-2.42479 l 0,0 c -1.84793,7.00913 -4.64154,13.62222 -8.48173,19.79559 -5.77925,10.94709 -11.90818,21.7474 -16.81137,33.12695 -3.93242,9.14421 -8.02424,18.2318 -11.49561,27.56415 -0.12405,0.32985 -1.11484,3.2977 -1.68022,3.78984 -4.53657,3.94895 -6.1039,5.72313 -5.71394,1.31845 0.57435,-6.94146 1.40354,-13.85758 2.47342,-20.74084 1.37173,-9.10135 2.39119,-18.24415 2.8213,-27.44381 -0.25185,-3.31731 0.28704,-10.32581 -3.79278,-11.41931 -2.56081,0.68361 -1.55942,0.53503 2.40969,-1.84855 0.62705,-0.23452 -0.99642,0.89528 -1.47013,1.36833 -1.90197,1.89935 -3.3691,4.10373 -5.08462,6.16467 -4.92965,7.56844 -9.71423,15.24678 -13.42571,23.51109 -5.19176,10.65323 -11.30082,20.85866 -17.17123,31.14743 -4.44771,6.98209 -9.16112,13.85647 -15.06679,19.70634 0,0 -5.22703,2.16511 -5.22703,2.16511 z" />
    <path
       style="fill:#000000;fill-opacity:1;stroke:#000000;stroke-width:4;stroke-linecap:round;stroke-linejoin:round;stroke-miterlimit:4;stroke-opacity:1;stroke-dasharray:none;stroke-dashoffset:24.6"
       id="path4204"
       d="m 268.23031,647.07474 c 0.24467,8.20073 -0.9835,16.32813 -1.75789,24.47184 -0.11329,1.29891 -0.22658,2.59782 -0.33986,3.89673 0,0 -4.97755,2.48045 -4.97755,2.48045 l 0,0 c 0.1197,-1.30325 0.2394,-2.60651 0.3591,-3.90976 0.77221,-8.10904 2.03396,-16.20936 1.68415,-24.37531 0,0 5.03205,-2.56395 5.03205,-2.56395 z" />
    <path
       style="fill:#000000;fill-opacity:1;stroke:#000000;stroke-width:4;stroke-linecap:round;stroke-linejoin:round;stroke-miterlimit:4;stroke-opacity:1;stroke-dasharray:none;stroke-dashoffset:24.6"
       id="path4206"
       d="m 375.57489,423.54123 c 3.37098,-4.48471 9.37167,-10.39537 15.32079,-7.63194 3.52322,3.51588 1.92444,9.36663 1.00265,13.7164 -2.10965,6.33966 -5.00744,12.39662 -8.44296,18.11794 -1.61438,3.43947 -5.23325,6.7249 -5.78623,10.62012 2.72716,1.56398 6.86063,1.00547 9.93326,1.0275 4.95094,-0.003 9.90174,-0.0509 14.85253,-0.0871 2.48636,-0.0205 4.97281,-0.0282 7.45921,-0.0432 0,0 -4.60276,3.34533 -4.60276,3.34533 l 0,0 c -2.47026,-0.006 -4.94049,10e-4 -7.41074,0.0108 -4.9479,0.0216 -9.89568,0.0726 -14.84367,0.0711 -3.22098,-0.0273 -8.06602,0.74183 -10.4699,-1.78726 0.13672,-3.94472 4.21285,-7.48044 5.76548,-10.89837 3.46037,-5.65993 6.31811,-11.67887 8.50852,-17.945 0.8912,-3.97888 2.594,-9.78916 -0.6738,-13.01416 -4.52744,-1.82414 -3.32896,0.97459 -0.10977,-2.81574 2.20526,-2.59651 -8.01066,5.92329 -5.3161,5.07844 0,0 -5.18651,2.23506 -5.18651,2.23506 z" />
    <path
       style="fill:#000000;fill-opacity:1;stroke:#000000;stroke-width:4;stroke-linecap:round;stroke-linejoin:round;stroke-miterlimit:4;stroke-opacity:1;stroke-dasharray:none;stroke-dashoffset:24.6"
       id="path4210"
       d="m 333.93865,484.56238 c 0.0266,12.77719 -1.18693,25.51484 -1.83174,38.27107 -0.97086,23.57199 -2.54262,47.11708 -4.06745,70.65922 -2.82269,32.78086 -4.24414,65.65622 -5.92152,98.50939 -1.72895,34.57066 -2.27122,69.18292 -2.56572,103.79051 -0.41464,26.69116 0.31632,53.39656 -0.43309,80.08061 -0.58468,14.65744 -1.48209,29.29985 -2.04667,43.95809 -0.11142,3.67703 -0.25326,7.35483 -0.26684,11.03403 0.006,0.1402 2.1e-4,0.2858 3.1e-4,0.4265 0,0 -5.07073,2.6311 -5.07073,2.6311 l 0,0 c -0.002,-0.1578 -0.035,-0.3209 -0.007,-0.4794 0.0871,-3.7086 0.26049,-7.4147 0.40484,-11.1213 0.65246,-14.69558 1.65565,-29.3728 2.28194,-44.06981 0.8373,-26.70575 0.13901,-53.43741 0.59664,-80.15177 0.36011,-34.62557 0.91367,-69.25532 2.62795,-103.84522 1.64239,-32.82925 3.02231,-65.68063 5.77137,-98.4416 1.4853,-23.50976 3.00523,-47.02462 3.89707,-70.56469 0.5984,-12.70669 1.79957,-25.40318 1.6103,-38.12882 0,0 5.02016,-2.55791 5.02016,-2.55791 z" />
    <path
       style="fill:#000000;fill-opacity:1;stroke:#000000;stroke-width:4;stroke-linecap:round;stroke-linejoin:round;stroke-miterlimit:4;stroke-opacity:1;stroke-dasharray:none;stroke-dashoffset:24.6"
       id="path4212"
       d="m 288.85477,886.616 c 3.78744,8.58199 7.08512,17.37915 10.82931,25.99108 3.84588,10.07772 7.79584,20.11682 12.46266,29.84632 1.2418,2.1114 3.83177,6.4771 7.0822,5.5545 0.68614,-0.1948 2.50431,-0.7984 1.84823,-1.0782 -0.84405,-0.36 -1.76858,0.49 -2.65287,0.735 6.97361,-8.3014 10.55749,-18.5537 14.42378,-28.51012 2.99799,-7.46239 5.63417,-15.06005 8.49756,-22.57524 0,0 5.00114,-2.32127 5.00114,-2.32127 l 0,0 c -2.90982,7.51176 -5.55222,15.11814 -8.54198,22.59761 -3.85957,9.97852 -7.40095,20.22582 -14.2067,28.67212 -7.90461,5.6157 -10.73536,9.1692 -16.28359,-0.3359 -4.59721,-9.7705 -8.55536,-19.8135 -12.4082,-29.89753 -3.75522,-8.58701 -7.05103,-17.37702 -10.96546,-25.88046 0,0 4.91392,-2.79791 4.91392,-2.79791 z" />
    <path
       style="fill:#000000;fill-opacity:1;stroke:#000000;stroke-width:4;stroke-linecap:round;stroke-linejoin:round;stroke-miterlimit:4;stroke-opacity:1;stroke-dasharray:none;stroke-dashoffset:24.6"
       id="path4214"
       d="m 382.83141,840.16849 c 2.47945,9.23982 3.72607,18.74884 5.28237,28.17454 1.43013,7.87887 2.00389,15.86227 2.80643,23.81657 0.35235,1.9412 0.79058,3.2021 -4.86147,1.473 -0.75631,-0.2314 0.0344,-1.5815 0.0444,-2.3724 0.0469,-3.7319 0.0366,-7.4648 0.0401,-11.1969 0.38129,-10.50297 2.40396,-20.80701 4.82005,-31.00109 1.68179,-4.02002 2.91586,-11.6337 6.86623,-14.31878 1.96935,-1.33857 4.11952,-2.38958 6.17929,-3.58437 5.79185,0.82697 7.98722,7.85809 10.0047,12.51747 3.58706,9.49499 4.35779,19.6966 6.02435,29.63532 1.35487,5.15845 0.94362,10.73045 2.34509,15.86815 -1.64726,0.446 -3.2562,1.6052 -4.94177,1.3382 -0.51263,-0.081 2.01034,-15.08325 2.16542,-15.91263 1.33714,-8.82977 4.53929,-17.20829 8.64462,-25.095 3.44246,-5.47976 8.98198,-13.28842 16.45717,-12.364 6.38671,2.43774 9.1277,8.43394 11.95389,14.17453 3.3707,7.13894 6.54611,14.37185 9.5094,21.69039 0.87469,1.80843 2.05516,3.39351 3.5302,4.74291 0,0 -4.83425,2.9813 -4.83425,2.9813 l 0,0 c -1.48614,-1.4473 -2.69959,-3.1062 -3.59101,-4.99132 -2.88224,-7.33768 -6.05289,-14.56132 -9.44391,-21.6766 -2.73978,-5.53264 -5.40521,-11.52539 -11.71317,-13.64221 -3.21971,-0.0996 -1.96123,0.30696 1.14016,-2.15947 0.65092,-0.51766 -1.43116,0.86002 -2.07124,1.39104 -2.48971,2.06549 -4.08946,4.93287 -5.86649,7.57305 -4.18571,7.79903 -7.38338,16.16115 -8.72047,24.94662 -0.7037,3.6938 -1.16141,7.38089 -1.69589,11.10049 -0.12387,0.862 -0.29565,1.7186 -0.36919,2.5864 -0.0597,0.7043 0.43012,1.5835 -0.0297,2.1203 -1.39823,1.6324 -3.42081,2.6032 -5.13122,3.9049 -1.21761,-5.2239 -0.93595,-10.7645 -2.21761,-15.98839 -1.63295,-9.89631 -2.40517,-20.0548 -5.98485,-29.50142 -1.82087,-4.14669 -4.06741,-11.64109 -9.57062,-11.69815 1.14124,-0.70794 2.14532,-1.71234 3.42372,-2.12384 0.68015,-0.21893 -1.07608,0.95149 -1.52029,1.51115 -2.89191,3.64345 -4.03096,8.30353 -5.56794,12.58451 -2.44378,10.14814 -4.48094,20.40571 -4.85416,30.87234 0.004,1.2005 0.47576,12.9374 0.0152,13.5422 -1.35219,1.7754 -3.277,3.0496 -5.09701,4.3412 -0.18157,0.1288 -0.0581,-0.4415 -0.0872,-0.6623 -0.61552,-7.9784 -1.28337,-15.9569 -2.6514,-23.85068 -1.56005,-9.4012 -2.78292,-18.90718 -5.41123,-28.08487 0,0 4.97929,-2.66216 4.97929,-2.66216 z" />
    <path
       style="fill:#000000;fill-opacity:1;stroke:#000000;stroke-width:4;stroke-linecap:round;stroke-linejoin:round;stroke-miterlimit:4;stroke-opacity:1;stroke-dasharray:none;stroke-dashoffset:24.6"
       id="path4218"
       d="m 492.07553,848.21762 c 1.2321,-4.2397 2.17728,-8.2952 0.18322,-12.39599 -0.35669,-0.36256 -0.65939,-0.78763 -1.07005,-1.08769 -1.26045,-0.92094 -3.47619,-1.69064 -5.03878,-1.21666 -0.67164,0.20373 -2.52435,0.93693 -1.83025,1.04097 1.04369,0.15643 2.0316,-0.57236 3.04741,-0.85854 -4.46968,8.25343 -4.50005,17.90801 -3.59294,27.0058 0.84652,8.86422 2.90041,17.22619 9.65272,23.32739 -1.08862,2.9409 5.03689,-0.7033 4.19195,0.4183 -0.64402,0.8549 -2.07743,2.1625 -2.86898,1.442 -0.73898,-0.6726 1.43385,-1.4019 2.04167,-2.195 1.43378,-1.8709 2.50015,-4.1788 3.57209,-6.2462 3.14387,-6.39418 4.48888,-13.33965 5.35833,-20.34614 0.95292,-3.63247 1.6577,-4.71821 7.16546,-4.69311 0.75105,0.003 3.50582,7.01991 3.7027,7.44281 4.94354,9.48269 8.28853,19.57804 11.37253,29.77704 4.20122,13.128 4.96313,26.71 4.71984,40.3739 -0.33507,18.2713 -6.39789,35.3111 -13.36886,51.9528 -5.94118,11.6155 -13.47409,26.4636 -28.02004,28.8781 -1.536,0.2549 -2.91115,-1.1056 -4.36673,-1.6584 -5.48998,-5.4241 -6.68025,-12.964 -8.54212,-20.1188 0,0 4.73982,-2.569 4.73982,-2.569 l 0,0 c 1.81456,6.9757 2.96669,14.3567 8.39139,19.5887 1.38761,0.4641 2.96622,0.5503 4.16284,1.3923 0.39811,0.2801 -0.55684,1.6604 -0.11516,1.4558 9.07167,-4.2031 14.39065,-16.6402 18.9012,-24.7362 6.97275,-16.568 13.05284,-33.5281 13.38617,-51.7342 0.23839,-13.6037 -0.51309,-27.126 -4.68688,-40.1993 -3.09054,-10.164 -6.43106,-20.23208 -11.4297,-29.65323 -0.79602,-1.673 -3.72508,-6.97074 -3.62223,-7.15306 5.55217,-9.84247 3.77652,-1.99406 2.6446,-0.83109 -0.93517,7.05411 -2.18428,14.07486 -5.32342,20.54247 -2.9767,5.92451 -8.80399,15.88611 -16.77256,11.81801 -6.73837,-6.2905 -8.89393,-14.72672 -9.75742,-23.7315 -0.95886,-9.22298 -0.92274,-18.86963 3.2943,-27.36784 5.25397,-3.89756 9.48416,-8.89535 14.97164,-2.84795 2.03519,4.22673 1.29351,8.34517 0.0101,12.73853 0,0 -5.10389,2.44498 -5.10389,2.44498 z" />
    <path
       style="fill:#000000;fill-opacity:1;fill-rule:nonzero;stroke:#000000;stroke-width:4;stroke-linecap:round;stroke-linejoin:round;stroke-miterlimit:4;stroke-opacity:1;stroke-dasharray:none;stroke-dashoffset:24.6"
       id="path4224"
       d="m -147.80497,599.02872 c 59.706086,26.05276 118.791151,53.58079 176.301006,84.21428 12.718484,6.77469 25.279584,13.84079 37.919384,20.76118 83.23335,47.56905 163.8411,99.52699 245.00715,150.49303 59.72375,36.73333 119.57237,73.33399 180.70953,107.68869 35.92678,20.1882 54.8549,29.9276 91.14475,49.1478 56.68484,29.1385 29.27254,15.2222 82.2081,41.8057 0,0 -3.06789,2.6415 -3.06789,2.6415 l 0,0 c -52.68731,-26.8401 -25.36204,-12.8407 -81.96035,-42.0285 -35.99736,-19.103 -55.4627,-29.1553 -91.10554,-49.1981 C 428.21447,930.1758 368.33765,893.59954 308.57912,856.90021 227.34937,805.99047 146.67167,754.09479 63.35523,706.62193 50.70533,699.71436 38.13458,692.65983 25.405524,685.89924 -32.168314,655.32094 -91.322612,627.87223 -151.09342,601.8924 c -37.30809,-31.26633 -22.71448,4.80166 3.28845,-2.86368 z"
       sodipodi:nodetypes="csccscccccsccscc" />
    <path
       style="fill:#000000;fill-opacity:1;fill-rule:nonzero;stroke:#000000;stroke-width:4;stroke-linecap:round;stroke-linejoin:round;stroke-miterlimit:4;stroke-opacity:1;stroke-dasharray:none;stroke-dashoffset:24.6"
       id="path4226"
       d="m 224.74956,786.84951 c -3.2995,6.24698 -8.73567,10.85452 -14.25635,15.08093 -6.71563,4.19545 -14.39221,10.2015 -22.42838,6.4514 -5.67141,-5.00817 -4.01185,-13.09017 -2.39821,-19.57134 2.8835,-9.13702 7.54753,-17.09588 14.76813,-23.37972 7.50017,-4.87168 14.49939,-10.9096 22.40609,-4.28129 5.10141,6.51759 3.10328,14.94495 0.77167,22.16397 -3.58106,9.36197 -10.16219,16.48172 -18.35656,21.99728 -7.57447,4.52976 -16.1532,9.46457 -24.97353,5.67689 -5.36159,-3.85139 -4.61774,-10.23389 -2.39787,-15.69704 4.52728,-8.33375 11.77566,-13.5236 20.51463,-17.01792 6.03356,-2.19103 10.97598,-0.35434 14.86233,4.47452 3.08944,4.86782 2.01694,9.56767 -0.56276,14.30365 -4.519,5.77683 -10.53914,8.17651 -17.21988,5.23459 -5.43132,-4.60323 -6.94181,-10.9942 -6.71343,-17.83033 0.93444,-6.28494 3.25785,-11.32429 8.57309,-14.87135 7.03991,-4.05794 10.93461,-6.3197 15.73197,0.83866 3.66338,6.87345 0.56669,14.07571 -2.60379,20.48289 -4.45184,8.34397 -10.89875,12.76331 -18.91027,17.29577 -4.70097,0.74255 -6.91481,-1.98801 -7.34534,-6.3817 -0.006,-6.28231 3.62723,-11.43548 7.62241,-15.95977 4.58242,-4.37144 10.65537,-9.10644 17.27267,-8.8751 4.62923,1.83222 3.4552,6.95665 1.86582,10.60885 -3.07911,6.5756 -8.44833,11.21251 -15.63471,13.11147 -4.8128,0.80093 -7.16752,-2.91851 -7.85096,-7.14465 0.35837,-5.53175 2.70158,-10.35003 6.64159,-14.17805 7.24712,-4.53292 10.04629,-6.20493 14.08617,1.71023 2.5168,5.84587 1.2489,11.49047 -1.30168,17.01091 -3.08793,4.59147 -9.57747,10.36284 -15.38367,8.64526 -4.6884,-3.03059 -3.61272,-8.3431 -2.63945,-13.04787 2.14916,-8.30107 8.03126,-11.614 15.06772,-15.61448 4.93892,-1.40306 6.00806,3.30842 6.67728,7.13837 0.0343,5.57657 -1.41064,11.06976 -4.62212,15.63911 -3.74142,3.68534 -8.77909,9.25845 -13.60948,4.79296 -3.21972,-4.55082 -1.07579,-9.69368 0.78913,-14.31513 2.73324,-5.19064 7.24867,-10.64496 13.6185,-11.1811 4.38859,1.7867 3.19084,6.6929 2.03425,10.24512 -2.93217,7.19114 -9.13216,10.02045 -15.62379,13.52294 -4.6012,2.08596 -6.24735,-1.18415 -6.39493,-5.34975 0.15988,-6.75367 3.20708,-12.5646 7.85846,-17.29167 5.26097,-3.72678 11.44638,-9.26097 17.6381,-5.1199 4.09381,5.24556 3.75627,11.72313 2.71338,17.93705 -1.5433,4.74034 -4.04391,10.70783 -8.51899,13.53841 -2.23433,1.41326 -4.63697,2.54097 -6.95546,3.81145 -5.85255,1.75131 -8.20109,-3.68648 -8.97252,-8.51375 0.0458,-7.35476 2.87034,-13.78263 7.24284,-19.54685 4.92467,-4.70641 10.49095,-10.05542 17.34151,-6.17372 3.8099,3.49585 3.88803,8.33906 2.74584,13.04524 -3.24777,7.79234 -5.65636,9.31408 -13.10686,13.3639 -5.11538,-0.96135 -3.24933,-8.20319 -2.64657,-11.74521 1.85063,-8.20962 6.10431,-15.31593 11.60297,-21.56645 7.569,-5.85065 12.2803,-7.87619 13.28957,2.37102 0.29618,9.07787 -3.09361,17.41473 -7.49499,25.16071 -4.18557,6.06292 -11.27041,15.08999 -19.60997,12.78449 -5.53924,-3.92821 -4.20102,-11.06371 -3.08457,-16.81688 1.83708,-6.56332 5.08279,-12.82813 10.32191,-17.26967 7.32226,-5.05246 11.16826,-7.41751 11.59778,2.30317 -1.10563,9.08217 -5.41246,17.39512 -9.34706,25.53804 -1.62841,2.95957 -3.44348,6.07211 -6.59677,7.64492 -5.31454,2.6508 -6.85054,5.02518 -8.47293,0.2203 0.2624,-8.16133 3.36498,-16.04324 6.83937,-23.33574 2.94055,-4.93422 9.84787,-15.06103 16.82551,-12.19249 4.81145,4.46013 2.54064,11.5786 0.99284,17.05957 -3.87998,9.52155 -5.91284,10.93962 -15.00486,15.63341 -5.2666,0.87757 -5.45547,-4.20607 -5.31935,-8.1062 0.69433,-6.1802 3.13837,-11.21676 7.46753,-15.59638 5.92138,-4.54713 9.89254,-7.2673 14.31096,-0.80925 1.30359,5.33164 -1.55286,10.26616 -4.72677,14.34476 -5.23268,4.47468 -11.32615,10.0863 -17.51113,4.48069 -3.07426,-6.80262 -0.26098,-13.8974 2.88447,-20.10954 3.34788,-5.2976 10.62811,-14.84828 17.68688,-10.54203 4.12662,4.68367 2.93756,10.64125 1.58393,16.1664 -3.13027,9.97373 -6.77098,11.86155 -15.76603,16.39336 -6.09399,-1.0695 -6.26708,-8.32181 -6.36146,-13.29137 0.13367,-6.67113 1.87139,-13.53616 7.00109,-18.09219 2.16963,-1.09483 4.21204,-2.49046 6.50888,-3.28448 3.44286,-1.19019 4.16716,8.07504 4.20205,9.55337 -0.15317,6.59454 -2.22964,12.99451 -6.52612,18.02451 -4.6089,3.76694 -10.39327,8.36856 -15.38537,3.4058 -2.05539,-3.36924 -2.43186,-7.181 -0.77471,-10.75656 4.13817,-4.08771 8.47759,-7.63828 13.50853,-3.56644 3.10152,4.8799 0.63878,9.8301 -2.35253,14.06279 -4.04197,4.3251 -11.86966,11.94183 -17.97142,9.00743 -3.70249,-5.23092 -0.62565,-12.3957 1.60328,-17.68883 1.81972,-3.79798 9.2653,-16.42794 12.98326,-7.51209 1.47595,5.05041 1.12686,9.91234 -0.61067,14.79781 0,0 -5.09134,2.37075 -5.09134,2.37075 l 0,0 c 1.83064,-4.75492 2.25528,-9.44687 0.78632,-14.41689 -1.25668,-3.09511 -3.66513,-2.18093 1.87212,-4.50723 0.67756,-0.28465 -1.14587,0.93327 -1.62308,1.49217 -1.67273,1.95906 -2.07772,3.12497 -3.25782,5.45045 -2.12821,4.89546 -5.34539,11.96344 -1.9591,16.88599 0.49121,0.19343 0.95,0.51304 1.47362,0.5803 0.63726,0.0819 2.10913,-0.75881 1.9221,-0.14414 -0.29692,0.97579 -3.02109,1.00807 -2.44006,1.84635 0.40566,0.58526 6.9555,-5.18875 7.17612,-5.93982 2.91056,-3.87994 5.59535,-8.62238 2.7152,-13.279 -1.14931,-0.86529 -1.48572,-1.36918 -2.95434,-1.54541 -0.46446,-0.0557 -1.71826,0.46487 -1.3979,0.12399 5.12554,-5.45377 3.19676,-1.3209 0.76764,-0.3424 -1.83982,3.2568 -1.47621,6.94033 0.43992,10.11961 1.20039,1.13001 2.45719,1.99031 4.22658,1.90147 0.66393,-0.0333 2.32788,-0.99108 1.9431,-0.44899 -0.64386,0.90711 -1.80799,1.35004 -2.8531,1.73104 -0.79535,0.28994 1.38963,-0.96722 2.08445,-1.45083 4.42733,-4.80036 6.52972,-11.15832 6.70949,-17.65107 -0.0225,-2.47435 -0.0204,-5.1655 -1.36283,-7.38153 -0.24749,-0.40855 -0.60092,-0.77727 -1.01994,-1.0066 -0.38831,-0.21252 -1.56449,0.0922 -1.3015,-0.2639 0.77288,-1.0464 2.11587,-1.51401 3.17381,-2.27101 -5.36618,4.14968 -7.05821,11.14408 -7.25528,17.65887 0.0463,4.43112 0.0319,11.87412 5.83785,12.3674 -0.90825,0.66717 -1.98528,1.15107 -2.72473,2.00149 -0.54182,0.62313 1.46716,-0.77915 2.11121,-1.29591 3.54369,-2.8433 5.49095,-7.02368 6.90748,-11.22534 1.32081,-5.23735 2.71778,-11.03989 -1.27928,-15.50495 -0.51184,-0.27223 -0.97236,-0.67909 -1.53552,-0.8167 -0.65747,-0.16065 -6.29067,0.56159 0.63105,-1.95665 0.92716,-0.33732 -1.60462,1.16016 -2.31254,1.84736 -2.33313,2.26488 -2.86198,3.38627 -4.67356,6.10935 -3.11586,5.93323 -5.99703,12.81519 -3.16635,19.42204 1.29657,1.11786 1.64339,1.72627 3.42372,2.02498 0.71069,0.11923 2.31923,-0.72763 2.16173,-0.0244 -0.2387,1.06575 -2.25665,0.95487 -2.60217,1.99092 -0.59665,1.78909 5.61844,-4.61378 4.59554,-3.30037 3.12496,-3.80816 6.03396,-8.56651 5.00887,-13.68351 -0.95025,-1.37164 -2.02358,-2.79753 -3.7556,-3.25565 -0.5478,-0.14489 -2.00289,0.40755 -1.69847,-0.0704 0.67904,-1.0661 2.09562,-1.41478 3.11791,-2.15815 0.62271,-0.4528 -1.27909,0.85739 -1.91863,1.28609 -4.39171,4.23949 -6.90914,9.08142 -7.65071,15.21581 -0.15382,3.61298 -0.21639,8.33287 4.75479,7.16328 -0.9856,0.70091 -1.92277,1.47547 -2.9568,2.10273 -0.65852,0.39947 1.24716,-0.90785 1.82553,-1.41649 3.21325,-2.82582 4.97128,-6.6053 6.66452,-10.46237 1.48673,-5.07431 3.95117,-12.16087 -0.644,-16.29087 -3.18732,-1.00316 -1.10764,0.13441 1.42135,-2.95491 0.47559,-0.58097 -1.34595,0.68885 -1.93149,1.15879 -2.84185,2.2808 -4.64993,5.54531 -6.5965,8.54343 -3.4784,7.16669 -6.47858,14.8792 -6.93097,22.90835 1.41218,4.75315 2.59638,-1.00418 -1.70839,4.52843 -2.32129,2.9834 9.99572,-7.80211 6.79623,-7.39241 3.93238,-8.05147 8.19099,-16.28552 9.39759,-25.26037 -0.0598,-2.12793 0.17796,-2.8035 -0.70265,-4.64834 -0.20002,-0.41904 -0.43589,-0.87103 -0.82744,-1.12062 -0.33188,-0.21156 -1.42795,0.14479 -1.17077,-0.15314 0.85875,-0.99479 2.21686,-1.42135 3.24093,-2.24496 0.59578,-0.47916 -1.30027,0.80471 -1.95041,1.20706 -5.36221,4.2202 -8.60344,10.45541 -10.51251,16.93179 -1.07641,5.36525 -2.67244,12.44475 2.70668,16.04811 0.65883,0.13703 1.3036,0.41695 1.97651,0.41107 0.78465,-0.007 2.30049,-1.23313 2.31093,-0.44852 0.012,0.90534 -2.74892,2.23371 -2.29762,1.44879 0.76141,-1.3243 8.21871,-6.3434 7.92766,-8.74234 4.44036,-7.60687 7.85862,-15.85006 7.58828,-24.82641 -0.19008,-2.26801 0.0326,-3.04175 -1.09011,-4.96146 -0.28828,-0.4929 -0.63235,-1.00446 -1.12657,-1.29048 -0.44267,-0.2562 -1.76404,0.20839 -1.5157,-0.23873 0.58068,-1.04548 2.0695,-1.27095 2.85505,-2.17268 0.60693,-0.6967 -1.53627,1.02707 -2.30441,1.5406 -5.54775,6.13509 -9.85642,13.13009 -11.73321,21.28524 -0.50065,2.79838 -2.60862,10.44086 2.0705,10.68912 -1.12102,0.72867 -2.17764,1.56762 -3.36307,2.18601 -0.60566,0.31595 1.11685,-0.79574 1.60806,-1.27049 2.41796,-2.33692 3.90223,-5.38016 5.35564,-8.35436 1.22137,-4.41011 1.27844,-9.11195 -2.39767,-12.38417 -1.56633,-0.80925 -1.70004,-1.07749 -3.5265,-1.19791 -0.62791,-0.0414 -2.11557,0.68928 -1.88495,0.1038 0.39172,-0.99444 1.6888,-1.31546 2.58912,-1.89146 1.70471,-1.09063 -7.19079,5.02954 -4.67282,3.87608 -4.42499,5.59585 -7.24963,11.88921 -7.42012,19.12947 0.68073,4.64615 2.88518,9.61237 8.4249,7.63152 -0.87908,0.60214 -1.57291,1.75593 -2.63724,1.80641 -0.89954,0.0427 1.40587,-1.13277 2.0343,-1.77781 3.12375,-3.20636 5.51325,-7.10577 6.66793,-11.43493 1.07077,-5.95271 1.52661,-12.29964 -2.44485,-17.33497 -1.85179,-1.13807 -3.25424,-1.72818 -5.4662,-1.10515 -0.7754,0.2184 -2.53455,1.64738 -2.24456,0.89581 0.35076,-0.90906 2.62838,-2.49599 2.48984,-1.53151 -0.14313,0.99641 -1.67391,1.1186 -2.51087,1.6779 -4.71141,4.52524 -7.81655,10.20914 -8.02076,16.86393 0.0395,4.09708 1.5766,6.42604 5.79508,4.41473 -0.90533,0.60001 -1.86548,1.12454 -2.71598,1.80002 -0.63987,0.50819 1.40878,-0.83105 2.08095,-1.29567 3.01325,-2.08286 5.28074,-4.77574 6.76472,-8.1398 1.03152,-2.95677 2.7209,-7.99693 -1.4743,-9.24576 -2.02266,0.40005 -3.4062,0.8397 1.88203,-1.73312 0.5564,-0.27071 -1.00365,0.72711 -1.46833,1.13569 -1.92399,1.69171 -3.22843,3.79219 -4.41989,6.0435 -1.77818,4.35359 -4.14194,9.33733 -1.07041,13.68204 0.90007,0.76719 1.21549,1.3188 2.46628,1.36802 0.4219,0.0166 1.56089,-0.53768 1.23869,-0.2648 -6.60979,5.59796 -1.45764,0.16011 -0.0488,-0.68862 3.33493,-4.36634 4.71977,-9.7662 4.80942,-15.22886 -0.60933,-3.59618 -1.46667,-7.93745 -6.09281,-6.25222 0.91068,-0.56558 1.70233,-1.39856 2.73203,-1.69675 0.80716,-0.23374 -1.38296,0.95845 -2.03078,1.49367 -3.15117,2.60348 -5.20589,5.93117 -6.34404,9.85523 -0.93807,4.31193 -2.27634,9.58308 2.24521,12.27994 3.07697,0.62213 4.66009,-1.56278 0.30934,1.85232 -0.78416,0.61552 5.71093,-3.64733 5.32368,-4.96774 2.55168,-5.36389 4.0104,-10.801 1.52981,-16.55355 -1.02052,-1.98691 -1.85252,-4.03959 -4.14911,-4.8138 -1.67796,-0.56567 -3.12048,0.24171 -3.08348,0.20429 0.89091,-0.90107 2.1488,-1.34358 3.2232,-2.01537 -4.03372,3.59872 -6.33944,8.28008 -6.87046,13.68328 0.55435,4.05525 2.81745,7.3095 7.33329,6.33713 0.69468,-0.22357 2.40923,-1.32404 2.08404,-0.67072 -0.43262,0.86911 -1.58465,1.83244 -2.49669,1.49973 -0.82917,-0.30247 1.42829,-1.04608 2.06517,-1.65715 1.92236,-1.84446 3.22222,-4.16419 4.41324,-6.51426 1.52013,-3.13122 3.08662,-8.20427 -1.3222,-9.62602 -3.3511,0.0917 -6.07806,1.94431 -5.74738,1.4292 0.54289,-0.84567 1.5551,-1.41057 2.53558,-1.63089 1.83501,-0.41235 -6.8938,3.75239 -4.34657,3.59763 -3.98894,4.34793 -7.66597,9.388 -7.77125,15.52469 0.27282,4.11432 2.41757,6.51622 6.73416,5.45889 -0.91711,0.57762 -1.68799,1.94275 -2.75132,1.73285 -0.97463,-0.19238 1.60913,-1.16839 2.369,-1.80832 3.88529,-3.27204 7.48047,-6.8554 9.85057,-11.41218 3.13695,-6.17892 6.3611,-13.22983 2.81602,-19.92746 -1.20004,-1.76126 -2.22747,-3.5477 -4.49884,-3.97996 -2.06834,-0.39363 -4.06049,0.3319 -3.98879,0.17802 0.48279,-1.03624 1.89443,-1.28008 2.84164,-1.92012 -5.41598,3.3518 -7.82199,8.12294 -8.83312,14.39936 -0.318,6.59647 1.05843,12.85415 6.40483,17.22564 2.05193,0.83074 2.40194,1.19067 4.6766,1.22466 0.75702,0.0113 2.46362,-0.97816 2.25753,-0.24965 -0.31892,1.12739 -1.90792,1.36651 -2.79122,2.13626 -1.10462,0.96261 4.87324,-3.42258 3.27228,-2.93487 2.58067,-4.5056 3.88856,-8.9755 0.87836,-13.7149 -3.82372,-4.69309 -8.65155,-6.11792 -14.43703,-3.89663 -0.97394,0.41398 -1.87116,1.11525 -2.92182,1.24194 -0.71231,0.0859 2.33786,-1.63135 1.843,-1.11186 -0.8245,0.86554 -1.95497,1.38375 -2.85328,2.17242 -2.88804,2.53556 -5.17153,5.63444 -7.12333,8.92362 -2.25023,5.09401 -3.18769,11.31091 1.99686,14.90985 3.97771,1.5834 7.85285,1.51584 11.99117,0.27812 1.33025,-0.39786 2.53507,-1.16882 3.87883,-1.51834 0.32109,-0.0835 -0.47511,0.46321 -0.71266,0.69481 8.23794,-5.36127 14.83923,-12.37706 18.49324,-21.65326 2.31929,-6.95202 4.44911,-15.22784 -0.50857,-21.54535 -2.36109,-1.88611 -4.29926,-2.92297 -7.46188,-2.51683 -1.08684,0.13957 -2.11857,1.03227 -3.18899,0.79792 -0.61338,-0.13428 2.03401,-1.45658 1.47355,-1.17348 -1.17611,0.59408 -2.226,1.41051 -3.339,2.11577 -7.30433,6.13945 -11.98503,13.98175 -14.91413,23.0713 -1.57935,6.14955 -3.42215,14.10155 2.08607,18.85202 2.71498,1.15598 4.83937,1.42665 7.78137,0.64384 1.07229,-0.28531 2.0143,-1.18576 3.12336,-1.15127 0.65879,0.0205 -2.16996,1.47659 -1.57193,1.19951 1.15049,-0.53304 2.16657,-1.31795 3.24986,-1.97692 5.50168,-4.12392 10.95314,-8.65818 14.26714,-14.80605 0,0 5.15189,-2.33088 5.15189,-2.33088 z" />
    <path
       style="fill:#000000;fill-opacity:1;fill-rule:nonzero;stroke:#000000;stroke-width:4;stroke-linecap:round;stroke-linejoin:round;stroke-miterlimit:4;stroke-opacity:1;stroke-dasharray:none;stroke-dashoffset:24.6"
       id="path4278"
       d="m -81.136177,505.45054 c -7.141592,-0.61888 -13.589152,1.02168 -19.909523,4.24787 0.51266,-0.2254 1.921307,-1.08451 1.537995,-0.67622 -0.879555,0.93689 -2.097905,1.48986 -3.079945,2.31868 -4.01079,3.38501 -5.91973,7.36566 -7.47716,12.26696 -1.8693,8.85332 -0.43271,18.0306 0.17013,26.97097 0.60859,8.91055 1.05218,17.79139 0.10427,26.68277 -0.97206,5.85948 -2.52301,11.40768 -7.37503,15.14015 -7.28144,3.4792 -4.2491,3.21526 -8.54368,3.22305 0,0 4.55771,-3.33124 4.55771,-3.33124 l 0,0 c 2.97499,-0.16762 2.18447,-0.44743 -1.25326,2.18134 5.05576,-3.43382 6.60026,-8.9483 7.63056,-14.74213 0.99869,-8.86626 0.59059,-17.72074 -0.0276,-26.61223 -0.59737,-8.99799 -2.06087,-18.20951 -0.29543,-27.1355 3.1405,-10.48217 8.73372,-14.63095 18.396624,-19.76156 6.4249,-3.12937 12.950105,-4.64685 20.133374,-4.09248 0,0 -4.569005,3.31957 -4.569005,3.31957 z" />
    <path
       style="fill:#000000;fill-opacity:1;fill-rule:nonzero;stroke:#000000;stroke-width:4;stroke-linecap:round;stroke-linejoin:round;stroke-miterlimit:4;stroke-opacity:1;stroke-dasharray:none;stroke-dashoffset:24.6"
       id="path4280"
       d="m -142.13936,567.05543 c 8.3314,-4.52535 17.13074,-8.00044 25.88141,-11.605 10.27499,-3.74334 20.822318,-6.7595 31.561049,-8.83621 4.045308,-0.69547 8.122465,-1.17069 12.208434,-1.54342 0,0 -4.530937,3.35428 -4.530937,3.35428 l 0,0 c -4.048051,0.35715 -8.087689,0.81985 -12.091551,1.52759 -10.703566,2.0955 -21.225865,5.10691 -31.454015,8.89188 -8.79785,3.62706 -17.62352,7.17398 -25.99013,11.74305 0,0 4.41574,-3.53217 4.41574,-3.53217 z" />
    <path
       style="stroke:#000000;stroke-width:5;stroke-miterlimit:4;stroke-opacity:1;stroke-dasharray:none;marker-start:none;marker-end:url(#Arrow1Lend)"
       d="M 74.285714,689.50504 -73.92673,603.93454"
       id="path4282" />
  </g>
</svg>
