<?xml version="1.0" encoding="UTF-8" standalone="no"?>
<!-- Created with Inkscape (http://www.inkscape.org/) -->

<svg
   xmlns:dc="http://purl.org/dc/elements/1.1/"
   xmlns:cc="http://creativecommons.org/ns#"
   xmlns:rdf="http://www.w3.org/1999/02/22-rdf-syntax-ns#"
   xmlns:svg="http://www.w3.org/2000/svg"
   xmlns="http://www.w3.org/2000/svg"
   xmlns:sodipodi="http://sodipodi.sourceforge.net/DTD/sodipodi-0.dtd"
   xmlns:inkscape="http://www.inkscape.org/namespaces/inkscape"
   sodipodi:docname="2.svg"
   inkscape:export-ydpi="200"
   inkscape:export-xdpi="200"
   inkscape:export-filename="/home/afief/elvish/elvish.png"
   inkscape:version="0.47pre4 r22446"
   version="1.1"
   id="svg2"
   height="445.41791"
   width="785">
  <defs
     id="defs4">
    <inkscape:perspective
       sodipodi:type="inkscape:persp3d"
       inkscape:vp_x="0 : 526.18109 : 1"
       inkscape:vp_y="0 : 1000 : 0"
       inkscape:vp_z="744.09448 : 526.18109 : 1"
       inkscape:persp3d-origin="372.04724 : 350.78739 : 1"
       id="perspective10" />
    <inkscape:perspective
       id="perspective2896"
       inkscape:persp3d-origin="0.5 : 0.33333333 : 1"
       inkscape:vp_z="1 : 0.5 : 1"
       inkscape:vp_y="0 : 1000 : 0"
       inkscape:vp_x="0 : 0.5 : 1"
       sodipodi:type="inkscape:persp3d" />
    <inkscape:perspective
       id="perspective5708"
       inkscape:persp3d-origin="0.5 : 0.33333333 : 1"
       inkscape:vp_z="1 : 0.5 : 1"
       inkscape:vp_y="0 : 1000 : 0"
       inkscape:vp_x="0 : 0.5 : 1"
       sodipodi:type="inkscape:persp3d" />
    <inkscape:perspective
       id="perspective5812"
       inkscape:persp3d-origin="0.5 : 0.33333333 : 1"
       inkscape:vp_z="1 : 0.5 : 1"
       inkscape:vp_y="0 : 1000 : 0"
       inkscape:vp_x="0 : 0.5 : 1"
       sodipodi:type="inkscape:persp3d" />
    <inkscape:perspective
       id="perspective5826"
       inkscape:persp3d-origin="0.5 : 0.33333333 : 1"
       inkscape:vp_z="1 : 0.5 : 1"
       inkscape:vp_y="0 : 1000 : 0"
       inkscape:vp_x="0 : 0.5 : 1"
       sodipodi:type="inkscape:persp3d" />
    <inkscape:perspective
       id="perspective6017"
       inkscape:persp3d-origin="0.5 : 0.33333333 : 1"
       inkscape:vp_z="1 : 0.5 : 1"
       inkscape:vp_y="0 : 1000 : 0"
       inkscape:vp_x="0 : 0.5 : 1"
       sodipodi:type="inkscape:persp3d" />
    <inkscape:perspective
       id="perspective6039"
       inkscape:persp3d-origin="0.5 : 0.33333333 : 1"
       inkscape:vp_z="1 : 0.5 : 1"
       inkscape:vp_y="0 : 1000 : 0"
       inkscape:vp_x="0 : 0.5 : 1"
       sodipodi:type="inkscape:persp3d" />
    <inkscape:perspective
       id="perspective6061"
       inkscape:persp3d-origin="0.5 : 0.33333333 : 1"
       inkscape:vp_z="1 : 0.5 : 1"
       inkscape:vp_y="0 : 1000 : 0"
       inkscape:vp_x="0 : 0.5 : 1"
       sodipodi:type="inkscape:persp3d" />
    <inkscape:perspective
       id="perspective6083"
       inkscape:persp3d-origin="0.5 : 0.33333333 : 1"
       inkscape:vp_z="1 : 0.5 : 1"
       inkscape:vp_y="0 : 1000 : 0"
       inkscape:vp_x="0 : 0.5 : 1"
       sodipodi:type="inkscape:persp3d" />
    <inkscape:perspective
       id="perspective6105"
       inkscape:persp3d-origin="0.5 : 0.33333333 : 1"
       inkscape:vp_z="1 : 0.5 : 1"
       inkscape:vp_y="0 : 1000 : 0"
       inkscape:vp_x="0 : 0.5 : 1"
       sodipodi:type="inkscape:persp3d" />
    <inkscape:perspective
       id="perspective6127"
       inkscape:persp3d-origin="0.5 : 0.33333333 : 1"
       inkscape:vp_z="1 : 0.5 : 1"
       inkscape:vp_y="0 : 1000 : 0"
       inkscape:vp_x="0 : 0.5 : 1"
       sodipodi:type="inkscape:persp3d" />
    <inkscape:perspective
       id="perspective6149"
       inkscape:persp3d-origin="0.5 : 0.33333333 : 1"
       inkscape:vp_z="1 : 0.5 : 1"
       inkscape:vp_y="0 : 1000 : 0"
       inkscape:vp_x="0 : 0.5 : 1"
       sodipodi:type="inkscape:persp3d" />
    <inkscape:perspective
       id="perspective6267"
       inkscape:persp3d-origin="100 : 73.333333 : 1"
       inkscape:vp_z="200 : 110 : 1"
       inkscape:vp_y="0 : 1000 : 0"
       inkscape:vp_x="0 : 110 : 1"
       sodipodi:type="inkscape:persp3d" />
    <filter
       id="filter6689"
       inkscape:label="Glow"
       inkscape:menu="Shadows and Glows"
       inkscape:menu-tooltip="Glow of object's own color at the edges"
       color-interpolation-filters="sRGB">
      <feGaussianBlur
         id="feGaussianBlur6691"
         stdDeviation="5"
         result="result91" />
      <feComposite
         id="feComposite6693"
         in2="result91"
         in="SourceGraphic"
         operator="over" />
    </filter>
    <filter
       id="filter6695"
       inkscape:label="Glow"
       inkscape:menu="Shadows and Glows"
       inkscape:menu-tooltip="Glow of object's own color at the edges"
       color-interpolation-filters="sRGB">
      <feGaussianBlur
         id="feGaussianBlur6697"
         stdDeviation="5"
         result="result91" />
      <feComposite
         id="feComposite6699"
         in2="result91"
         in="SourceGraphic"
         operator="over"
         result="fbSourceGraphic" />
      <feColorMatrix
         result="fbSourceGraphicAlpha"
         in="fbSourceGraphic"
         values="0 0 0 -1 0 0 0 0 -1 0 0 0 0 -1 0 0 0 0 1 0"
         id="feColorMatrix6707" />
      <feGaussianBlur
         id="feGaussianBlur6709"
         stdDeviation="5"
         result="result91"
         in="fbSourceGraphic" />
      <feComposite
         id="feComposite6711"
         in2="result91"
         in="fbSourceGraphic"
         operator="over" />
    </filter>
    <filter
       id="filter6701"
       inkscape:label="Glow"
       inkscape:menu="Shadows and Glows"
       inkscape:menu-tooltip="Glow of object's own color at the edges"
       color-interpolation-filters="sRGB">
      <feGaussianBlur
         id="feGaussianBlur6703"
         stdDeviation="5"
         result="result91" />
      <feComposite
         id="feComposite6705"
         in2="result91"
         in="SourceGraphic"
         operator="over" />
    </filter>
    <inkscape:perspective
       id="perspective6795"
       inkscape:persp3d-origin="0.5 : 0.33333333 : 1"
       inkscape:vp_z="1 : 0.5 : 1"
       inkscape:vp_y="0 : 1000 : 0"
       inkscape:vp_x="0 : 0.5 : 1"
       sodipodi:type="inkscape:persp3d" />
    <filter
       id="filter6701-4"
       inkscape:label="Glow"
       inkscape:menu="Shadows and Glows"
       inkscape:menu-tooltip="Glow of object's own color at the edges"
       color-interpolation-filters="sRGB">
      <feGaussianBlur
         id="feGaussianBlur6703-6"
         stdDeviation="5"
         result="result91" />
      <feComposite
         id="feComposite6705-6"
         in2="result91"
         in="SourceGraphic"
         operator="over" />
    </filter>
  </defs>
  <sodipodi:namedview
     id="base"
     pagecolor="#000000"
     bordercolor="#666666"
     borderopacity="1.0"
     inkscape:pageopacity="1"
     inkscape:pageshadow="2"
     inkscape:zoom="0.74528244"
     inkscape:cx="325.89832"
     inkscape:cy="318.59439"
     inkscape:document-units="px"
     inkscape:current-layer="layer1"
     showgrid="false"
     inkscape:window-width="1280"
     inkscape:window-height="750"
     inkscape:window-x="-4"
     inkscape:window-y="-3"
     inkscape:window-maximized="1" />
  <metadata
     id="metadata7">
    <rdf:RDF>
      <cc:Work
         rdf:about="">
        <dc:format>image/svg+xml</dc:format>
        <dc:type
           rdf:resource="http://purl.org/dc/dcmitype/StillImage" />
        <dc:title></dc:title>
      </cc:Work>
    </rdf:RDF>
  </metadata>
  <g
     inkscape:label="Layer 1"
     inkscape:groupmode="layer"
     id="layer1"
     transform="translate(16.367434,-8.7412493)">
    <g
       transform="translate(278.58073,238.37931)"
       id="layer2"
       style="display:inline;filter:url(#filter6689)" />
    <g
       id="g6292"
       style="opacity:0.23452771;filter:url(#filter6695)"
       transform="matrix(2.0246268,0,0,2.0246268,-316.59787,-733.7734)">
      <path
         style="fill:#000000;fill-opacity:1;fill-rule:evenodd"
         id="path3284"
         d="m 242.86518,366.74149 198.93047,0.35518 0.35651,100.01937 c 0,59.05188 -51.30688,106.6742 -99.82175,119.62545 C 291.82926,573.25999 242.15216,526.1503 242.15216,467.11604 l 0.71302,-100.37455 z" />
      <path
         style="fill:#ffffff;fill-opacity:1"
         id="path3253"
         d="m 341.24416,404.61153 c -2.35776,1.67821 -5.98622,3.15267 -4.34375,5.125 2.04225,-1.53718 3.66755,0.20866 4.34375,1.96875 0,0.8437 0,1.68755 0,2.53125 -0.37286,0.2297 -1.05665,-0.019 -2.125,-1.15625 -3.85846,-2.4361 -10.67824,1.16598 -5.875,5.09375 3.85771,2.14849 -0.32621,-5.81267 4.96875,-3.09375 4.87573,1.91669 2.15436,15.10328 -3.875,9.34375 -4.33955,-3.40511 -12.59567,-3.79024 -13.5625,-10.5625 0.86863,-2.47475 8.35161,-2.93316 3.9375,0.0312 4.85579,3.34775 2.90648,-7.94818 -2.3125,-4.3125 -6.85821,-0.18255 -2.69136,9.14497 -6.625,12.6875 -0.88242,6.18458 5.24728,3.06008 7.375,0.25 -2.2398,1.21286 -8.51488,0.0279 -3.09375,-1.40625 5.27027,0.43012 9.61792,3.41249 13.4375,6.46875 -0.24377,2.83224 9.20499,6.0451 2.28125,5.375 -3.44772,2.57834 4.7165,3.96205 2.78125,8.125 1.79665,4.59928 -3.07584,8.31109 -5.0625,2.65625 0.77346,-3.74133 -8.2236,-7.18448 -5.71875,-2.6875 7.48051,3.01516 -5.37085,1.56019 -6.03125,-2.28125 -2.82638,-3.85169 0.56394,-9.67007 2,-4.375 4.36345,-5.6258 -4.77908,-6.15436 -4.90625,0.15625 -0.1476,7.32416 6.92858,7.90453 10.78125,11.28125 2.93234,2.57009 12.7,8.18178 5.40625,10.96875 -3.43606,0.0978 -9.3129,-6.32053 -7.75,-8.09375 5.34775,0.59287 -1.00886,-2.48795 -2.625,-2.90625 -4.14129,-2.60039 1.85081,3.88776 -0.625,5.53125 5.59109,-0.0658 -0.85014,7.81493 5.03125,5.65625 3.41366,1.92046 6.80031,6.04428 8.59375,9.3125 -2.31806,6.08295 -9.51234,-3.13496 -12.0625,-6.0625 -2.55597,-4.05186 -4.5903,-8.22932 -6.625,-12 -3.69029,-6.83882 -4.2912,-7.54929 -7.59375,-15.15625 -2.50772,-5.18961 -8.45092,-10.56058 -12.77084,-6.49256 -1.01405,0.95493 0.0216,6.26383 3.55052,6.13622 2.44319,-0.0884 -3.10876,-1.70563 -2.70528,-4.11836 0.27045,-1.61722 2.59632,-3.40044 6.21726,0.40774 2.03093,2.13593 6.56701,7.63004 0.60863,6.73809 -3.68914,0.27209 -4.81439,0.57302 -11.77529,2.76637 -6.96091,2.19335 -7.75812,13.50645 -0.15625,14.96875 5.40105,0.65904 12.41281,-3.96051 10.71875,-10.03125 -1.34437,-4.80254 -11.63017,0.18085 -3.28125,-0.5 4.09366,4.05201 -3.33882,12.31614 -8.125,7.84375 -5.67729,-2.36545 -2.35578,-8.84824 2,-10.53125 4.60233,-1.36829 12.16378,-3.49434 14.71875,2.03125 0.10147,3.72155 5.25629,11.79173 -1.90625,9.625 -5.77432,0.33625 -11.15633,2.7455 -15.34375,4.84375 -3.80467,2.22552 -5.60306,-6.15088 -7.15625,-0.84375 0.43665,1.96628 4.87551,6.10714 5.125,3.1875 7.27133,0.60022 -5.64226,6.89382 -7.3125,1.59375 -1.42675,-4.59227 -1.76074,7.30766 2.8125,5.09375 2.53203,0.16472 4.93532,-3.33883 3.5625,1.3125 -1.13375,1.94621 -9.48948,0.0671 -4.78125,3.125 1.45441,8.01884 7.42285,-6.72117 8.46875,1.25 1.52125,7.66177 13.8195,6.06426 14.125,-1.21875 2.96126,-2.13032 -2.82713,-15.01233 -2.40625,-5.5625 4.55924,6.15044 -6.22813,13.79549 -9.9375,7.03125 -3.16537,-5.1505 -1.80569,-13.374 4.65625,-14.9375 3.91309,-3.27169 10.32826,-2.31787 14.3125,0 3.17303,0.44816 5.29766,4.57505 7.46875,5.75 -2.39558,-1.45646 -9.03416,-1.9168 -3.8125,1.125 6.47909,-0.0263 7.98057,7.27002 12.1875,10 3.64511,5.95646 -7.49692,0.1445 -7.5,-3.5 -6.48678,-1.36506 -3.37687,3.41586 0.46875,4.375 -4.35971,4.53636 -8.05903,-5.05169 -6.03125,-7.96875 -2.93751,-5.90967 -8.43742,-0.37469 -5.5625,3.15625 6.92995,-0.72973 3.93736,9.18544 2.15625,9.96875 2.12601,2.99879 10.12027,0.10697 3.375,-0.1875 -2.55487,-3.93728 10.51187,-3.356 5.65625,1.3125 -3.86342,8.45944 13.029,6.50616 7.28125,1.09375 -0.51127,5.75432 -9.32652,1.4996 -4.25,-2.3125 7.01972,-2.87587 11.24837,5.19383 11.4375,10.75 0.20395,13.321 0.53735,26.66974 -0.375,39.96875 -2.55577,4.89068 -10.94464,4.75928 -10.96875,11.65625 -1.94904,2.40791 -2.54572,8.93738 -7.4375,6.1875 0.95838,-1.65283 6.43813,-2.50015 1.5625,-2.34375 -7.73894,4.12771 6.6643,6.83217 6.5,0.1875 -0.48332,-3.04099 7.13056,-7.7496 7.71875,-4.875 -4.9599,1.94721 -3.53866,9.17833 -7.78125,10.65625 -1.23902,-1.42803 2.90419,-3.04015 -0.875,-1.53125 -4.3546,4.4511 7.94861,4.73885 6.15625,-1 0.37276,-7.39506 10.67858,-6.0223 7.125,1.28125 -1.42242,4.16376 -4.2292,0.40337 -1.71875,-0.75 -5.3615,-0.15485 -0.78654,6.33064 2.125,7.09375 1.07355,2.8822 -1.47209,3.48683 1.09375,6.3125 0.38802,2.05168 0.96569,2.56528 1.46874,2.28125 0.49798,0.25598 1.05519,-0.25981 1.4375,-2.28125 2.56584,-2.82567 0.0202,-3.4303 1.09375,-6.3125 2.91154,-0.76311 7.4865,-7.2486 2.125,-7.09375 2.51046,1.15337 -0.32758,4.91376 -1.75,0.75 -3.55358,-7.30355 6.78349,-8.67631 7.15625,-1.28125 -1.79236,5.73885 10.51086,5.4511 6.15625,1 -3.77919,-1.5089 0.36402,0.10322 -0.875,1.53125 -4.24259,-1.47792 -2.82134,-8.70904 -7.78125,-10.65625 0.58819,-2.8746 8.20207,1.83401 7.71875,4.875 -0.1643,6.64467 14.23895,3.94021 6.5,-0.1875 -4.87563,-0.1564 0.60412,0.69092 1.5625,2.34375 -4.89177,2.74988 -5.48846,-3.77959 -7.4375,-6.1875 -0.0241,-6.89697 -8.41298,-6.76557 -10.96875,-11.65625 -0.91235,-13.29901 -0.57895,-26.64775 -0.375,-39.96875 0.18914,-5.55617 4.41778,-13.62587 11.4375,-10.75 5.07652,3.8121 -3.73873,8.06682 -4.25,2.3125 -5.74774,5.41241 11.14468,7.36569 7.28125,-1.09375 -4.85562,-4.6685 8.21112,-5.24978 5.65625,-1.3125 -6.74527,0.29447 1.24899,3.18629 3.375,0.1875 -1.78111,-0.78331 -4.7737,-10.69848 2.15625,-9.96875 2.87493,-3.53094 -2.62498,-9.06592 -5.5625,-3.15625 2.02778,2.91706 -1.70278,12.50511 -6.0625,7.96875 3.84562,-0.95914 6.98678,-5.74006 0.5,-4.375 -0.003,3.6445 -11.14511,9.45646 -7.5,3.5 4.20693,-2.72998 5.70841,-10.02632 12.1875,-10 5.22167,-3.0418 -1.41692,-2.58146 -3.8125,-1.125 2.17109,-1.17495 4.26448,-5.30184 7.4375,-5.75 3.98424,-2.31787 10.39942,-3.27169 14.3125,0 6.46195,1.5635 7.85288,9.787 4.6875,14.9375 -3.70936,6.76424 -14.49675,-0.88081 -9.9375,-7.03125 0.42088,-9.44983 -5.3675,3.43218 -2.40625,5.5625 0.30551,7.28301 12.60376,8.88052 14.125,1.21875 1.04591,-7.97117 7.01433,6.76884 8.46875,-1.25 4.70823,-3.0579 -3.64749,-1.17879 -4.78125,-3.125 -1.37282,-4.65133 0.99923,-1.14778 3.53125,-1.3125 4.57324,2.21391 4.27051,-9.68602 2.84375,-5.09375 -1.67023,5.30007 -14.61507,-0.99353 -7.34375,-1.59375 0.2495,2.91964 4.71961,-1.22122 5.15625,-3.1875 -1.55319,-5.30713 -3.35157,3.06927 -7.15625,0.84375 -4.18741,-2.09825 -9.56941,-4.5075 -15.34375,-4.84375 -7.16254,2.16673 -2.00771,-5.90345 -1.90625,-9.625 2.55498,-5.52559 10.11641,-3.39954 14.71875,-2.03125 4.35578,1.68301 7.64604,8.1658 1.96875,10.53125 -4.78618,4.47239 -12.21866,-3.79174 -8.125,-7.84375 8.34892,0.68085 -1.93687,-4.30254 -3.28125,0.5 -1.69405,6.07074 5.34894,10.69029 10.75,10.03125 7.60187,-1.4623 6.86784,-12.28767 -0.15625,-14.96875 -9.92826,-3.7896 -2.39315,-1.37541 -11.65625,-3.71875 -5.95836,0.89195 -1.12467,-3.11407 0.90625,-5.25 3.62094,-3.80818 5.13758,-2.76727 6.69345,-0.88393 1.60892,2.89306 -6.72779,0.51529 -0.45732,2.69983 2.00706,0.69922 2.90171,-4.1932 1.06446,-5.07483 -3.79379,-3.34959 -10.81976,1.96847 -13.42559,6.79018 -2.70871,7.19738 -3.72567,8.85034 -7.59375,15.15625 -2.08775,3.40354 -4.06903,7.94814 -6.625,12 -2.55016,2.92754 -9.77567,12.14545 -12.09375,6.0625 1.79345,-3.26822 5.1801,-7.39204 8.59375,-9.3125 5.88139,2.15868 -0.52858,-5.72206 5.0625,-5.65625 -2.4758,-1.64349 3.48505,-8.13164 -0.65625,-5.53125 -1.61614,0.4183 -7.94149,3.49912 -2.59375,2.90625 1.5629,1.77322 -4.34518,8.19158 -7.78125,8.09375 -7.29374,-2.78697 2.50515,-8.39866 5.4375,-10.96875 3.85266,-3.37672 10.92884,-3.95709 10.78125,-11.28125 -0.12717,-6.31061 -9.2697,-5.78205 -4.90625,-0.15625 1.43606,-5.29507 4.82638,0.52331 2,4.375 -0.66039,3.84144 -13.51175,5.29641 -6.03125,2.28125 2.50486,-4.49698 -6.49221,-1.05383 -5.71875,2.6875 -1.98666,5.65484 -6.85915,1.94303 -5.0625,-2.65625 -1.93524,-4.16295 6.22898,-5.54666 2.78125,-8.125 -6.92374,0.6701 2.49377,-2.54276 2.25,-5.375 3.81958,-3.05626 8.19849,-6.03863 13.46875,-6.46875 5.42112,1.43412 -0.88518,2.61911 -3.125,1.40625 2.12772,2.81008 8.28867,5.93458 7.40625,-0.25 -3.93363,-3.54253 0.2332,-12.87005 -6.625,-12.6875 -5.21898,-3.63568 -7.16827,7.66025 -2.3125,4.3125 -4.41411,-2.96441 3.06888,-2.506 3.9375,-0.0312 -0.96683,6.77226 -9.22295,7.15739 -13.5625,10.5625 -6.02935,5.75953 -8.75073,-7.42706 -3.875,-9.34375 5.29497,-2.71892 1.07981,5.24224 4.9375,3.09375 4.80324,-3.92777 -1.98529,-7.52985 -5.84375,-5.09375 -1.1024,1.17346 -1.79215,1.39397 -2.15625,1.125 0,-0.81245 0,-1.62505 0,-2.4375 0.66126,-1.78044 2.3089,-3.58638 4.375,-2.03125 1.65115,-1.98274 -2.01849,-3.46701 -4.375,-5.15625 -0.39517,-0.86786 -0.67314,-2.69082 -1.56249,0.0312 z m -27.58334,39.21577 c 3.76223,0.79153 1.2814,9.46455 0.0312,2.875 -0.18083,-0.83169 -0.95731,-2.2581 -0.0312,-2.875 z m 56.49107,0.53572 c 0.92608,0.6169 0.16114,2.0393 0,2.875 -1.26985,6.58554 -3.76223,-2.08347 0,-2.875 z" />
      <path
         style="fill:#ffffff;fill-opacity:1;fill-rule:nonzero;marker:none;visibility:visible;display:inline;overflow:visible;enable-background:accumulate"
         id="path3261"
         d="m 342.03582,398.95371 -2.37776,-8.00343 -8.12006,1.94251 5.7423,-6.06091 -5.7423,-6.06092 8.12006,1.94252 2.37776,-8.00344 2.37775,8.00344 8.12005,-1.94252 -5.7423,6.06092 5.7423,6.06091 -8.12005,-1.94251 -2.37775,8.00343 z" />
      <path
         style="fill:#ffffff;fill-opacity:1;fill-rule:nonzero;marker:none;visibility:visible;display:inline;overflow:visible;enable-background:accumulate"
         id="path3263"
         d="m 260.50277,475.22459 -2.37775,-8.00343 -8.12007,1.94251 5.7423,-6.06091 -5.7423,-6.06092 8.12007,1.94252 2.37775,-8.00344 2.37776,8.00344 8.12005,-1.94252 -5.7423,6.06092 5.7423,6.06091 -8.12005,-1.94251 -2.37776,8.00343 z" />
      <path
         style="fill:#ffffff;fill-opacity:1;fill-rule:nonzero;marker:none;visibility:visible;display:inline;overflow:visible;enable-background:accumulate"
         id="path3265"
         d="m 272.32875,437.24234 -2.37777,-8.00343 -8.12006,1.94251 5.7423,-6.06091 -5.7423,-6.06092 8.12006,1.94252 2.37777,-8.00344 2.37775,8.00344 8.12005,-1.94252 -5.7423,6.06092 5.7423,6.06091 -8.12005,-1.94251 -2.37775,8.00343 z" />
      <path
         style="fill:#ffffff;fill-opacity:1;fill-rule:nonzero;marker:none;visibility:visible;display:inline;overflow:visible;enable-background:accumulate"
         id="path3267"
         d="m 299.80155,410.53457 -2.37776,-8.00343 -8.12006,1.94251 5.7423,-6.06091 -5.7423,-6.06092 8.12006,1.94252 2.37776,-8.00344 2.37776,8.00344 8.12005,-1.94252 -5.7423,6.06092 5.7423,6.06091 -8.12005,-1.94251 -2.37776,8.00343 z" />
      <path
         style="fill:#ffffff;fill-opacity:1;fill-rule:nonzero;marker:none;visibility:visible;display:inline;overflow:visible;enable-background:accumulate"
         id="path3278"
         d="m 423.80155,475.22459 2.37776,-8.00343 8.12006,1.94251 -5.7423,-6.06091 5.7423,-6.06092 -8.12006,1.94252 -2.37776,-8.00344 -2.37776,8.00344 -8.12005,-1.94252 5.7423,6.06092 -5.7423,6.06091 8.12005,-1.94251 2.37776,8.00343 z" />
      <path
         style="fill:#ffffff;fill-opacity:1;fill-rule:nonzero;marker:none;visibility:visible;display:inline;overflow:visible;enable-background:accumulate"
         id="path3280"
         d="m 411.97558,437.24234 2.37776,-8.00343 8.12006,1.94251 -5.7423,-6.06091 5.7423,-6.06092 -8.12006,1.94252 -2.37776,-8.00344 -2.37776,8.00344 -8.12005,-1.94252 5.74229,6.06092 -5.74229,6.06091 8.12005,-1.94251 2.37776,8.00343 z" />
      <path
         style="fill:#ffffff;fill-opacity:1;fill-rule:nonzero;marker:none;visibility:visible;display:inline;overflow:visible;enable-background:accumulate"
         id="path3282"
         d="m 384.50277,410.53457 2.37775,-8.00343 8.12007,1.94251 -5.7423,-6.06091 5.7423,-6.06092 -8.12007,1.94252 -2.37775,-8.00344 -2.37776,8.00344 -8.12005,-1.94252 5.7423,6.06092 -5.7423,6.06091 8.12005,-1.94251 2.37776,8.00343 z" />
    </g>
    <flowRoot
       xml:space="preserve"
       id="flowRoot2816-2"
       style="font-size:40px;font-style:normal;font-variant:normal;font-weight:normal;font-stretch:normal;text-align:start;line-height:150%;writing-mode:lr-tb;text-anchor:start;fill:#ffffff;fill-opacity:1;stroke:none;filter:url(#filter6701);font-family:Tengwar Quenya;-inkscape-font-specification:Tengwar Quenya"
       transform="translate(-263.15259,35.296024)"
       inkscape:export-filename="/home/afief/elvish/elvish.png"
       inkscape:export-xdpi="200"
       inkscape:export-ydpi="200"><flowRegion
         id="flowRegion2818-6"><rect
           id="rect2820-93"
           width="1500"
           height="577.14288"
           x="-111.42857"
           y="49.505039"
           style="font-size:40px;font-style:normal;font-variant:normal;font-weight:normal;font-stretch:normal;text-align:start;line-height:150%;writing-mode:lr-tb;text-anchor:start;fill:#ffffff;fill-opacity:1;font-family:Tengwar Quenya;-inkscape-font-specification:Tengwar Quenya" /></flowRegion><flowPara
         style="font-size:40px;font-style:normal;font-variant:normal;font-weight:normal;font-stretch:normal;text-align:center;line-height:150%;writing-mode:lr-tb;text-anchor:middle;fill:#ffffff;fill-opacity:1;font-family:Tengwar Quenya;-inkscape-font-specification:Tengwar Quenya"
         id="flowPara6849">`B5 9F7 9J`HiR 5RnR6 2E 19F 8Y`M52</flowPara><flowPara
         style="font-size:40px;font-style:normal;font-variant:normal;font-weight:normal;font-stretch:normal;text-align:center;line-height:150%;writing-mode:lr-tb;text-anchor:middle;fill:#ffffff;fill-opacity:1;font-family:Tengwar Quenya;-inkscape-font-specification:Tengwar Quenya"
         id="flowPara6855">`Ne .~B5R `C5e iEa~V aR`C8R</flowPara><flowPara
         style="font-size:40px;font-style:normal;font-variant:normal;font-weight:normal;font-stretch:normal;text-align:center;line-height:150%;writing-mode:lr-tb;text-anchor:middle;fill:#ffffff;fill-opacity:1;font-family:Tengwar Quenya;-inkscape-font-specification:Tengwar Quenya"
         id="flowPara6857">1Y 6U5</flowPara><flowPara
         style="font-size:40px;font-style:normal;font-variant:normal;font-weight:normal;font-stretch:normal;text-align:center;line-height:150%;writing-mode:lr-tb;text-anchor:middle;fill:#ffffff;fill-opacity:1;font-family:Tengwar Quenya;-inkscape-font-specification:Tengwar Quenya"
         id="flowPara6859" /><flowPara
         style="font-size:40px;font-style:normal;font-variant:normal;font-weight:normal;font-stretch:normal;text-align:center;line-height:150%;writing-mode:lr-tb;text-anchor:middle;fill:#ffffff;fill-opacity:1;font-family:Tengwar Quenya;-inkscape-font-specification:Tengwar Quenya"
         id="flowPara6861">a~C5 lY`M 1Rj? .9Di 89F 9Jj28 eU6 lU`N</flowPara></flowRoot>    <flowRoot
       xml:space="preserve"
       id="flowRoot2816-2-9"
       style="font-size:40px;font-style:normal;font-variant:normal;font-weight:normal;font-stretch:normal;text-align:start;line-height:150%;writing-mode:lr-tb;text-anchor:start;fill:#ffffff;fill-opacity:1;stroke:none;filter:url(#filter6701-4);font-family:Tholoth;-inkscape-font-specification:Tholoth"
       transform="translate(-242.94698,-241.83401)"
       inkscape:export-filename="/home/afief/elvish/elvish.png"
       inkscape:export-xdpi="200"
       inkscape:export-ydpi="200"><flowRegion
         id="flowRegion2818-6-6"><rect
           id="rect2820-93-7"
           width="1500"
           height="577.14288"
           x="-111.42857"
           y="49.505039"
           style="font-size:40px;font-style:normal;font-variant:normal;font-weight:normal;font-stretch:normal;text-align:start;line-height:150%;writing-mode:lr-tb;text-anchor:start;fill:#ffffff;fill-opacity:1;font-family:Tholoth;-inkscape-font-specification:Tholoth" /></flowRegion><flowPara
         style="font-size:40px;font-style:normal;font-variant:normal;font-weight:normal;font-stretch:normal;text-align:center;line-height:150%;writing-mode:lr-tb;text-anchor:middle;fill:#ffffff;fill-opacity:1;font-family:Tholoth;-inkscape-font-specification:Tholoth"
         id="flowPara6189-4">In her house never do the sounds of wine</flowPara><flowPara
         style="font-size:40px;font-style:normal;font-variant:normal;font-weight:normal;font-stretch:normal;text-align:center;line-height:150%;writing-mode:lr-tb;text-anchor:middle;fill:#ffffff;fill-opacity:1;font-family:Tholoth;-inkscape-font-specification:Tholoth"
         id="flowPara6838">and sake cease to run</flowPara><flowPara
         style="font-size:40px;font-style:normal;font-variant:normal;font-weight:normal;font-stretch:normal;text-align:center;line-height:150%;writing-mode:lr-tb;text-anchor:middle;fill:#ffffff;fill-opacity:1;font-family:Tholoth;-inkscape-font-specification:Tholoth"
         id="flowPara6840">Can you tell what she holds for you?</flowPara></flowRoot>  </g>
</svg>
