<?xml version="1.0" encoding="UTF-8" standalone="no"?>
<!-- Created with Inkscape (http://www.inkscape.org/) -->

<svg
   xmlns:dc="http://purl.org/dc/elements/1.1/"
   xmlns:cc="http://creativecommons.org/ns#"
   xmlns:rdf="http://www.w3.org/1999/02/22-rdf-syntax-ns#"
   xmlns:svg="http://www.w3.org/2000/svg"
   xmlns="http://www.w3.org/2000/svg"
   xmlns:sodipodi="http://sodipodi.sourceforge.net/DTD/sodipodi-0.dtd"
   xmlns:inkscape="http://www.inkscape.org/namespaces/inkscape"
   width="1494.969"
   height="554.72595"
   id="svg2"
   version="1.1"
   inkscape:version="0.47pre4 r22446"
   sodipodi:docname="New document 1">
  <defs
     id="defs4">
    <inkscape:perspective
       sodipodi:type="inkscape:persp3d"
       inkscape:vp_x="0 : 526.18109 : 1"
       inkscape:vp_y="0 : 1000 : 0"
       inkscape:vp_z="744.09448 : 526.18109 : 1"
       inkscape:persp3d-origin="372.04724 : 350.78739 : 1"
       id="perspective10" />
  </defs>
  <sodipodi:namedview
     id="base"
     pagecolor="#ffffff"
     bordercolor="#666666"
     borderopacity="1.0"
     inkscape:pageopacity="0.0"
     inkscape:pageshadow="2"
     inkscape:zoom="0.35"
     inkscape:cx="691.38293"
     inkscape:cy="192.39602"
     inkscape:document-units="px"
     inkscape:current-layer="layer1"
     showgrid="false"
     inkscape:window-width="1280"
     inkscape:window-height="726"
     inkscape:window-x="0"
     inkscape:window-y="25"
     inkscape:window-maximized="1" />
  <metadata
     id="metadata7">
    <rdf:RDF>
      <cc:Work
         rdf:about="">
        <dc:format>image/svg+xml</dc:format>
        <dc:type
           rdf:resource="http://purl.org/dc/dcmitype/StillImage" />
        <dc:title></dc:title>
      </cc:Work>
    </rdf:RDF>
  </metadata>
  <g
     inkscape:label="Layer 1"
     inkscape:groupmode="layer"
     id="layer1"
     transform="translate(316.38293,-170.03227)">
    <path
       style="fill:#000000;fill-opacity:1;stroke:#000000;stroke-width:3;stroke-miterlimit:4;stroke-opacity:1;stroke-dasharray:none"
       id="path2816"
       d="m -47.498661,171.57898 c -2.31026,16.23488 -4.09462,32.53576 -5.966422,48.82616 -2.938388,25.65495 -5.362386,51.34233 -6.852082,77.12277 -0.66923,14.18686 -1.887041,28.5755 1.346393,42.53343 0,0 -2.804654,0.0631 -2.804654,0.0631 l 0,0 c -3.162583,-13.99677 -1.945232,-28.4005 -1.244456,-42.6123 1.523932,-25.7828 3.945212,-51.47549 6.858456,-77.13765 1.849004,-16.29305 3.618709,-32.59473 5.833703,-48.84222 0,0 2.829062,0.0467 2.829062,0.0467 z" />
    <path
       style="fill:#000000;fill-opacity:1;stroke:#000000;stroke-width:3;stroke-miterlimit:4;stroke-opacity:1;stroke-dasharray:none"
       id="path2820"
       d="m 15.69835,171.89738 c 1.125384,11.20019 1.874718,22.42052 2.30949,33.66746 0.477334,14.95807 0.49177,29.92593 0.524062,44.89009 0.330138,15.48629 -1.353103,30.90986 -3.709253,46.18956 -2.065147,12.87634 -4.557568,25.6885 -7.3214321,38.43309 -0.742679,3.41353 -1.4978614,6.82431 -2.255796,10.23447 0,0 -2.8223679,-0.0624 -2.8223679,-0.0624 l 0,0 c 0.7742948,-3.40836 1.544031,-6.81776 2.2931758,-10.23175 2.7803097,-12.73711 5.2842432,-25.54355 7.3522632,-38.41557 2.355083,-15.26539 4.04111,-30.67472 3.709106,-46.1468 -0.03362,-14.96085 -0.05058,-29.92528 -0.535329,-44.87988 -0.446052,-11.25124 -1.191484,-22.47798 -2.36919,-33.67828 0,0 2.825271,0 2.825271,0 z" />
    <path
       style="fill:#000000;fill-opacity:1;stroke:#000000;stroke-width:3;stroke-miterlimit:4;stroke-opacity:1;stroke-dasharray:none"
       id="path2822"
       d="m 12.359017,257.85548 c 10.169707,-0.17439 20.291622,-0.0155 30.426902,0.82834 13.297675,1.69028 26.523487,3.88136 39.829505,5.49887 15.044846,1.28949 30.068806,2.82891 45.131576,3.91808 11.4721,0.91587 22.79266,2.68165 34.0828,4.83818 3.55318,0.67577 7.10602,1.35342 10.66101,2.01959 -0.0647,-3.6e-4 1.05401,0.19526 0.81234,0.0709 -0.52278,-0.26909 -1.44437,-0.0594 -1.65577,-0.60809 -0.16863,-0.43766 0.73001,-0.59082 1.0689,-0.91508 1.37854,-1.31906 1.49366,-1.62845 2.75739,-3.29206 6.59635,-7.33902 12.61964,-15.11288 18.15132,-23.27794 6.15757,-9.41234 11.57879,-19.23345 16.56943,-29.29921 0.51354,-1.02563 6.38465,-18.46733 8.2992,-6.40286 0.84914,8.62339 1.5162,17.28327 2.57276,25.88656 1.74365,10.20882 1.81502,20.61193 3.21491,30.84893 0.77954,3.13767 0.83197,6.47716 1.68885,9.59743 0.16476,0.59998 0.39772,1.19113 0.72634,1.71947 0.17724,0.28497 1.0913,0.64292 0.7564,0.66444 -0.63319,0.0407 -1.20499,-0.39794 -1.80748,-0.5969 4.39725,-6.91381 7.17602,-14.85031 10.24823,-22.42699 3.74686,-10.63816 7.53602,-21.26098 11.18479,-31.93328 1.41109,-6.02447 5.12967,-7.92079 7.05112,-0.65282 1.1033,8.69919 2.33897,17.38977 3.22379,26.11905 1.29445,7.40299 2.00298,14.94157 4.33665,22.10976 -3.52675,0.22752 3.16563,2.62356 2.09713,2.46854 -0.5623,-0.0816 -1.56033,-0.12194 -1.55859,-0.69012 0.003,-0.82187 1.12908,-1.20825 1.56654,-1.90403 1.31759,-2.09565 2.33003,-5.04842 3.20548,-7.26811 4.22588,-12.06153 9.01801,-23.90046 13.72697,-35.7768 1.0327,-2.01123 4.81305,-16.61428 7.14895,-16.82656 1.31337,-0.11935 2.61666,0.33147 3.92499,0.4972 3.62873,6.30867 3.27825,14.41276 3.60513,21.49238 0.92514,9.3453 1.89543,18.68369 2.66851,28.0436 0.35531,1.6246 0.37864,2.48904 1.14327,3.85014 0.14573,0.25941 0.85831,0.74396 0.56561,0.69053 -3.00097,-0.54788 -0.15459,-2.21435 0.69463,-3.26794 2.04647,-3.29246 4.74632,-5.76375 8.17867,-7.51236 4.25543,-1.27784 8.57623,-2.40789 12.97117,-3.12072 8.35294,-1.04551 16.79729,-1.00765 25.20159,-1.08616 13.10236,0.2936 26.15379,-0.97714 39.21946,-1.74222 16.24134,-0.85358 32.51085,-0.97445 48.77089,-1.08972 13.64199,0.0119 27.29298,-0.49038 40.89411,0.77049 7.42389,0.62091 14.62039,2.65352 21.94094,3.95244 2.45859,0.377 4.92974,0.67584 7.40905,0.8768 0.28265,0.0229 1.05878,0.2516 0.84854,0.0613 -0.4893,-0.44288 -1.17811,-0.59518 -1.76717,-0.89277 5.03943,-5.78795 8.18985,-12.96785 11.48571,-19.82307 5.20715,-11.59805 11.60323,-22.54142 19.56748,-32.44236 4.34648,-4.4181 9.80412,-10.93756 16.80482,-10.2986 1.96289,0.17915 3.88035,0.69501 5.82053,1.04252 0.99019,0.61872 2.15114,1.02441 2.97056,1.85618 6.73867,6.8402 9.98163,21.47068 11.93897,30.55192 2.76739,12.93219 2.45223,25.96753 0.49281,38.95234 -1.09976,7.37488 -2.48519,14.94862 -6.33287,21.44419 -7.3885,5.64048 -7.28078,-15.3316 -7.31024,-17.43685 0.16296,-12.91231 1.95697,-25.73931 6.03016,-37.99587 4.03995,-10.17055 7.39131,-14.25192 18.05732,-16.7345 11.52048,-1.02492 23.04964,0.82068 33.3776,5.98696 9.04226,5.40365 12.77619,14.12139 14.11093,24.16384 0.85315,9.81185 -1.16885,19.26483 -4.88044,28.27645 -0.58889,3.58898 -6.96941,11.26039 -9.46946,4.56271 -1.55135,-9.18968 2.15637,-18.41985 5.13501,-26.96528 3.85145,-11.52465 10.49239,-21.39116 19.37388,-29.57317 8.47062,-6.27978 16.87332,-6.59327 25.92569,-1.27806 9.33085,6.21585 13.79132,15.64844 16.84378,26.05819 2.86748,10.32787 1.63308,20.75188 -0.22863,31.09217 -0.96102,2.91567 -1.94716,10.53876 -6.7652,5.0025 -0.51163,-0.5879 -0.28392,-6.06563 -0.26891,-7.10245 0.90671,-12.83368 5.75383,-24.6064 11.7096,-35.83463 6.5583,-11.83071 13.43885,-17.93717 26.7241,-20.62282 14.84901,-2.20974 24.58499,2.98149 35.68976,12.06548 8.71721,7.84669 14.90246,17.63212 19.37437,28.36919 1.9188,3.35845 0.96655,8.86036 4.32878,11.28912 -1.94839,-0.1666 4.76622,1.5068 3.18416,0.70509 -0.44593,-0.22598 -1.57156,0.21201 -1.47373,-0.27825 0.009,-0.0438 2.46262,-0.67788 3.53113,-0.95779 8.01011,-2.39238 16.0897,-4.576 24.23327,-6.46901 13.06631,-2.82291 26.26347,-4.65647 39.58068,-5.7099 14.99165,-0.49134 29.93251,-1.79121 44.89846,-2.74338 12.03669,-0.58956 24.10187,-1.50203 36.12172,-0.25798 4.98965,1.09405 10.29764,0.80157 15.20944,2.18518 2.3836,0.77657 3.79986,1.71447 4.26199,4.20688 0.28005,2.86166 0.1664,5.7502 0.13891,8.62205 -0.0402,3.56089 -0.053,7.12198 -0.0618,10.68305 0.3918,5.67686 -0.49096,11.2121 -1.30729,16.80382 -0.9297,7.96461 -1.21734,15.95107 -2.28768,23.90073 -1.30526,7.67574 -1.21633,15.50651 -2.30774,23.19516 -1.02978,5.50325 -1.91785,11.0289 -2.37658,16.61036 -0.29974,4.62541 -0.30994,9.26273 -0.32112,13.8958 0.003,3.98046 0.011,7.96092 0.021,11.94136 0.006,3.34295 0.006,6.68591 0.006,10.02886 -0.1499,2.65834 0.89331,5.16599 2.07546,7.49345 0.84656,1.23716 0.74541,2.72453 0.77972,4.16863 -0.49735,4.22179 -1.54853,8.39882 -2.06475,12.66571 -0.83498,8.8486 -0.51928,17.74276 -1.14999,26.60025 -0.63282,10.92459 -2.65077,21.68156 -3.93298,32.53297 -1.04656,10.1834 -2.6464,20.28156 -3.49566,30.49034 -0.51846,9.53514 -1.13216,19.11624 -0.47687,28.65465 0.90536,8.72203 1.67237,17.43431 3.01136,26.10063 0.83385,7.39616 2.07384,14.68493 3.51378,21.98116 1.03618,5.36969 1.46309,10.8277 1.66794,16.28447 0.11907,4.63528 0.10032,9.2726 0.0908,13.90895 -0.74572,5.38555 -1.78613,10.70543 -3.17735,15.95843 -1.94285,5.72754 -4.20289,11.34536 -6.02525,17.11214 -1.63443,6.00526 -3.41577,11.97054 -5.08737,17.96821 -1.47097,7.01921 -3.20112,13.9921 -4.44584,21.06017 -0.43331,5.60806 -1.74523,11.0392 -3.00409,16.50135 -1.04228,3.2736 -3.11363,4.56214 -6.34716,5.07048 -8.13236,0.59853 -16.09444,-1.71321 -23.93148,-3.5584 -14.43437,-3.47712 -29.33202,-3.97091 -44.10163,-4.48777 -23.84737,-0.80382 -47.71131,0.32176 -71.52401,1.57799 -36.99291,2.08259 -73.96447,4.56435 -110.93421,7.02984 -48.56036,3.02722 -97.1823,4.84845 -145.78969,6.90951 -52.80625,2.417 -105.66257,3.24205 -158.51564,3.73907 -53.53213,-0.0613 -107.04892,-1.38176 -160.53072,-3.63227 -49.33915,-2.41023 -98.721067,-3.57339 -148.110557,-4.22264 -39.8920285,-0.38061 -79.777829,-0.18255 -119.658749,-1.26722 -28.277864,-1.30949 -56.537864,-1.31619 -84.823444,-0.5228 -19.34238,0.38577 -38.65304,1.80121 -57.85149,4.14963 -10.33012,1.08627 -20.57886,2.92603 -30.60297,5.63703 -3.85698,0.871 -11.41618,4.5018 -14.39716,0.31007 -0.37045,-7.55242 1.014,-15.20818 1.91874,-22.70711 1.66314,-17.5178 3.24981,-35.03771 4.24027,-52.60908 0.77693,-24.6012 2.15749,-49.17601 3.06417,-73.77272 1.15878,-25.34955 -0.14925,-50.71485 -2.58886,-75.94658 -1.9512,-19.82691 -4.85295,-39.55332 -8.13322,-59.20031 -2.52442,-16.7104 -5.84419,-33.31249 -9.88393,-49.72186 -3.64801,-13.92455 -7.57003,-27.77135 -12.07235,-41.44471 -3.16421,-10.11224 -6.24215,-20.25312 -9.5719,-30.31249 -2.5588,-8.65646 -4.99661,-17.35382 -7.42134,-26.05136 -2.27612,-7.22543 -4.61317,-14.42131 -7.00683,-21.60837 -1.05362,-4.02853 -3.08046,-7.67651 -4.28641,-11.6588 -0.13288,-3.61723 3.03163,-5.14142 6.02105,-6.02384 5.61666,-1.08031 11.38267,-0.9476 17.07792,-0.98232 9.8682,0.44605 19.62864,-0.92524 29.45124,-1.67861 11.43481,-1.17744 22.76169,-3.10362 34.13804,-4.70574 11.27419,-1.5099 22.6522,-1.84398 34.01006,-2.06818 10.15327,-0.83535 20.28391,-1.85689 30.45745,-2.43123 7.91476,-0.40893 15.84153,-0.47577 23.76507,-0.51217 6.96535,-0.0161 13.93074,-0.002 20.89609,0.005 2.8171,-0.27817 5.74903,0.35751 8.55717,0.006 0.14219,-0.0178 -0.41863,-0.27187 -0.28449,-0.32226 1.5089,-0.56685 3.16309,-0.62237 4.74294,-0.94204 4.78519,-1.41999 9.565483,-1.09099 14.395974,-0.1768 4.271569,1.2925 6.465925,3.54698 5.679568,8.08539 -0.452148,0.79198 -0.904296,1.58395 -1.356444,2.37593 0,0 -2.8174,-0.14835 -2.8174,-0.14835 l 0,0 c 0.448433,-0.759 0.896866,-1.51799 1.345299,-2.27699 0.793455,-4.41342 -1.534593,-6.46945 -5.653029,-7.64551 -4.713948,-0.88368 -3.146341,-1.07678 -8.795528,0.1724 -6.14889,1.24704 -12.32601,1.55497 -18.59824,1.31289 -5.11163,-0.006 -10.22326,-0.0191 -15.33489,-0.007 -7.92828,0.0329 -15.85974,0.0946 -23.77961,0.4953 -10.1779,0.56489 -20.31366,1.56903 -30.46788,2.43992 -11.35735,0.21677 -22.73506,0.5402 -34.01051,2.03432 -11.37832,1.59263 -22.70337,3.52977 -34.13696,4.72366 -9.79756,0.74652 -19.5859,1.94866 -29.42959,1.70188 -5.68377,0.032 -11.42892,-0.093 -17.04493,0.90998 -2.84684,0.77485 -6.08245,2.09228 -5.99313,5.57505 1.20417,3.97636 3.23089,7.62314 4.26719,11.65193 2.37884,7.19426 4.71819,14.3924 6.98692,21.62251 2.42865,8.69167 4.85657,17.38676 7.41611,26.03828 3.32628,10.05905 6.39429,20.20151 9.55405,30.31366 4.48329,13.68457 8.40511,27.53578 12.04893,41.46644 4.03087,16.41784 7.35144,33.02527 9.86997,49.74295 3.2733,19.65311 6.16264,39.38623 8.09905,59.21954 2.42862,25.24442 3.71679,50.62159 2.56939,75.98241 -0.90122,24.59816 -2.27243,49.17494 -3.03062,73.77805 -0.97619,17.57665 -2.54425,35.10223 -4.18116,52.62694 -0.88084,7.42665 -2.23003,15.01572 -1.86093,22.49148 3.32191,4.17991 -1.36832,-2.39737 -0.75185,1.55855 0.0857,0.55018 1.11855,0.0739 1.67046,1.6e-4 2.67329,-0.35732 5.24139,-1.48251 7.86335,-2.05178 10.04146,-2.72305 20.30496,-4.59062 30.65733,-5.66958 19.22129,-2.35301 38.55427,-3.78114 57.92031,-4.16509 30.03423,-0.84133 60.05148,-0.80712 90.076628,0.53284 39.854889,1.08449 79.7150249,0.88703 119.580941,1.27571 49.37808,0.65524 98.748351,1.82567 148.076131,4.23537 51.83308,2.17636 103.69746,3.47891 155.57867,3.62568 52.84837,-0.49568 105.70013,-1.31569 158.50168,-3.73286 48.588,-2.06525 97.19093,-3.88173 145.73191,-6.9121 36.93936,-2.47125 73.88082,-4.95415 110.84312,-7.04735 25.58897,-1.36285 51.23328,-2.43265 76.85962,-1.59341 14.79198,0.5234 29.70928,1.0352 44.1622,4.53345 6.02754,1.40773 12.89445,3.36078 18.36146,3.52756 3.17435,-0.4187 5.26474,-1.50425 6.32636,-4.73149 1.27094,-5.45583 2.58961,-10.88074 3.02071,-16.48598 1.24786,-7.0768 2.98458,-14.05725 4.44727,-21.08743 1.6679,-6.00154 3.44646,-11.97037 5.08158,-17.97799 1.81549,-5.76449 4.07393,-11.37847 6.02352,-17.09904 1.38557,-5.22994 2.42136,-10.52444 3.16888,-15.88595 0.007,-4.63263 0.0308,-9.26633 -0.0902,-13.89785 -0.20406,-5.44184 -0.61905,-10.88548 -1.65602,-16.24031 -1.43674,-7.30006 -2.66314,-14.59426 -3.49838,-21.99298 -1.34243,-8.67364 -2.10566,-17.39456 -3.00901,-26.12442 -0.65412,-9.55268 -0.0356,-19.14764 0.48168,-28.69704 0.85503,-10.21164 2.44663,-20.31403 3.50014,-30.49987 1.28066,-10.84738 3.30896,-21.59858 3.93303,-32.51995 0.62727,-8.86213 0.30095,-17.75995 1.11886,-26.61426 0.50936,-4.25223 1.53022,-8.42163 2.04212,-12.62461 -0.0396,-1.41547 0.0407,-2.82955 -0.78317,-4.04369 -1.17613,-2.37544 -2.2175,-4.92775 -2.06579,-7.62569 -0.002,-3.34281 -0.002,-6.68563 -0.006,-10.02844 -0.003,-3.98081 -0.0158,-7.96161 -0.0128,-11.94242 0.009,-4.64068 0.0241,-9.28527 0.32205,-13.91836 0.45894,-5.58757 1.3568,-11.11837 2.38978,-16.62708 1.10363,-7.68626 1.01591,-15.5177 2.31884,-23.19282 1.0732,-7.95021 1.35617,-15.93729 2.27608,-23.90386 0.81044,-5.57879 1.68877,-11.1008 1.29213,-16.76366 0.004,-3.56187 0.0101,-7.12375 0.0528,-10.68542 0.0305,-2.85288 0.13937,-5.723 -0.14508,-8.56534 -0.47053,-2.37316 -1.97533,-3.17544 -4.22746,-3.89138 -4.93216,-1.26768 -10.1812,-1.11273 -15.1728,-2.14442 -10.19433,-1.02826 -20.39043,-0.31077 -30.61973,0.26264 -14.96603,0.94552 -29.90534,2.26276 -44.89734,2.73932 -13.30895,1.03876 -26.49629,2.85821 -39.55502,5.67176 -8.13018,1.87825 -16.19656,4.05939 -24.18402,6.46791 -3.50325,0.90768 -7.46287,2.23751 -10.8787,0.41694 -3.22675,-2.71628 -2.41576,-7.91064 -4.29773,-11.43622 -4.44036,-10.70365 -10.62612,-20.44014 -19.33032,-28.23439 -8.68642,-7.04477 -18.47293,-13.66001 -30.17441,-11.92845 -13.27351,2.55156 -20.16383,8.58806 -26.72433,20.37547 -5.94617,11.18334 -10.78822,22.90966 -11.66689,35.70334 -0.0147,1.36887 -0.10162,2.73886 -0.0441,4.1066 0.14266,3.39338 1.27504,2.43737 -1.46957,4.64152 -0.36531,0.29338 0.67293,-0.66764 0.90806,-1.0729 1.05929,-1.82579 1.42643,-3.59616 2.03644,-5.62893 1.87165,-10.29748 3.12583,-20.67438 0.25242,-30.9626 -3.05276,-10.35415 -7.52522,-19.71643 -16.85069,-25.84533 -8.53674,-4.87215 -11.99052,-4.51944 -20.36058,1.21678 -8.89908,8.11654 -15.53964,17.94053 -19.38189,29.43517 -2.9515,8.47147 -6.65921,17.6587 -5.07576,26.76622 0.9365,2.25922 1.10564,1.24638 -1.33896,2.03912 -0.35351,0.11464 0.77371,-0.0377 1.0905,-0.23199 2.18117,-1.33792 3.02731,-4.26489 4.08291,-6.37375 3.7198,-8.96102 5.75652,-18.35851 4.89494,-28.12946 -1.33915,-9.97025 -5.08244,-18.58258 -14.09427,-23.89184 -8.57998,-4.21854 -18.24733,-6.5954 -27.83478,-5.92046 -10.65076,2.36882 -13.99028,6.30241 -18.04976,16.44847 -4.09241,12.2194 -5.88582,25.01864 -6.02524,37.90217 0.0834,5.1785 -0.1229,5.2748 0.6902,10.12317 0.21207,1.2646 0.44797,2.52995 0.80368,3.76188 0.25119,0.86997 1.15032,1.62688 1.0106,2.52154 -0.11495,0.7361 -1.1392,0.9667 -1.6413,1.5171 -0.23621,0.25893 0.55827,-0.42392 0.83741,-0.63588 3.92168,-6.41594 5.25228,-14.00572 6.37377,-21.33293 1.97876,-12.94991 2.29861,-25.95086 -0.46564,-38.85168 -1.94757,-8.99482 -5.18028,-23.63833 -11.97708,-30.32443 -0.82359,-0.81018 -1.97803,-1.19422 -2.96704,-1.79133 -0.45771,-1.81543 -0.0389,-1.4906 -3.35898,-0.82341 -5.68344,1.14209 -9.86787,6.00888 -13.70121,9.91688 -7.9762,9.86962 -14.3783,20.78726 -19.56262,32.37826 -3.29506,6.88363 -6.44316,14.07317 -11.43471,19.93042 -4.96978,1.39165 -7.01556,1.00736 -12.1117,0.11489 -7.30433,-1.31252 -14.49138,-3.33478 -21.90575,-3.93346 -11.7869,-1.07695 -23.57803,-0.89221 -35.41884,-0.75288 -16.25618,0.11161 -32.52171,0.22949 -48.75947,1.07717 -13.0576,0.76107 -26.09964,2.05076 -39.19357,1.76003 -8.39231,0.0761 -16.82236,0.0392 -25.16661,1.04922 -4.39102,0.68688 -8.67173,1.85394 -12.94325,3.03706 -3.43986,1.69079 -6.15189,4.09261 -8.16964,7.38963 -3.4057,4.3273 -7.58831,5.11072 -8.04332,-1.44044 -0.74105,-9.36539 -1.71656,-18.70551 -2.64502,-28.05327 -0.32752,-6.92981 0.0887,-15.09403 -3.63881,-21.18884 0.57579,-0.19186 1.16113,-0.79403 1.72736,-0.57557 0.4106,0.1584 -0.74317,0.50141 -1.00747,0.85331 -0.50229,0.66875 -0.90202,1.41369 -1.26218,2.16854 -2.09822,4.39769 -2.97279,9.21814 -4.93836,13.67124 -4.71752,11.87006 -9.51086,23.70531 -13.70282,35.77639 -1.42524,3.66728 -5.91941,16.5635 -10.92626,7.3776 -2.30664,-7.1943 -3.01574,-14.74806 -4.30574,-22.16972 -0.88624,-8.71503 -2.11354,-17.39339 -3.25881,-26.07277 -0.77048,-2.79493 -2.67408,-3.53997 0.87404,-4.00185 0.0261,-0.003 -3.14163,4.40449 -2.29926,4.67269 -3.67026,10.67306 -7.48392,21.29488 -11.21397,31.9473 -3.08347,7.64385 -5.918,15.5582 -10.19405,22.62386 -1.28396,0.17415 -2.55823,0.59556 -3.85188,0.52244 -1.55694,-0.088 -2.84235,-10.70388 -3.13847,-12.17264 -1.3706,-10.2419 -1.45561,-20.64245 -3.19917,-30.85251 -1.06001,-8.60082 -1.73103,-17.25675 -2.61702,-25.87485 -0.34865,-2.07444 -1.09059,-2.6477 1.93362,-3.22058 0.37718,-0.0714 -0.49491,0.593 -0.68099,0.92878 -1.55466,2.80546 -2.38386,5.96558 -3.9279,8.77776 -5.00984,10.07197 -10.44026,19.90326 -16.59302,29.33531 -5.51692,8.16761 -11.51448,15.95777 -18.10457,23.2948 -2.18373,2.93608 -4.27484,5.95926 -8.62311,4.95571 -3.53789,-0.67324 -7.07508,-1.35018 -10.61228,-2.02706 -11.27242,-2.16022 -22.58229,-3.89709 -34.03664,-4.81213 -15.06319,-1.09812 -30.090005,-2.62596 -45.134626,-3.93125 -13.310445,-1.62803 -26.5422,-3.81964 -39.848951,-5.48513 -10.148364,-0.83387 -20.28589,-0.96783 -30.4672338,-0.79872 0,0 2.7904878,-0.44197 2.7904878,-0.44197 z" />
    <path
       style="fill:#000000;fill-opacity:1;stroke:#000000;stroke-width:3;stroke-miterlimit:4;stroke-opacity:1;stroke-dasharray:none"
       id="path2824"
       d="m 902.43537,457.55455 c 3.15336,10.02141 7.97054,19.35254 12.46184,28.80685 3.65619,7.10805 7.25356,14.6978 13.52776,19.87013 2.21331,1.21615 2.04071,1.39032 4.39588,1.75819 0.25751,0.0402 -0.92981,-0.10977 -0.73078,-0.27805 0.59621,-0.50409 1.46854,-0.54712 2.15237,-0.9239 2.29769,-1.26598 2.73229,-1.9493 4.69842,-3.8272 5.83483,-5.96086 10.17771,-13.03234 14.16061,-20.29538 1.03353,-3.39447 5.17154,-6.92608 4.87472,-10.71165 -0.0969,-0.0686 -0.19382,-0.13719 -0.29072,-0.20579 0,0 2.84317,-0.21776 2.84317,-0.21776 l 0,0 c 0.0984,0.13506 0.19676,0.27013 0.29514,0.4052 0.20553,3.9008 -3.74744,7.39276 -4.92069,10.87067 -3.99487,7.28173 -8.33639,14.37769 -14.15886,20.38021 -4.55267,4.44801 -10.14168,7.39662 -16.12749,3.29178 -6.22468,-5.26782 -9.85089,-12.84478 -13.50194,-19.99303 -4.491,-9.46354 -9.2872,-18.80777 -12.49959,-28.81603 0,0 2.82016,-0.11424 2.82016,-0.11424 z" />
    <path
       style="fill:#000000;fill-opacity:1;stroke:#000000;stroke-width:3;stroke-miterlimit:4;stroke-opacity:1;stroke-dasharray:none"
       id="path2826"
       d="m 1018.5532,455.09629 c -0.034,9.82386 -1.262,19.60683 -2.08,29.39013 -0.346,3.75191 -0.5215,7.51536 -0.7273,11.27642 0,0 -2.8446,-0.0173 -2.8446,-0.0173 l 0,0 c 0.2514,-3.76113 0.3974,-7.53006 0.7702,-11.28277 0.835,-9.77275 2.0831,-19.5502 2.061,-29.36651 0,0 2.8207,0 2.8207,0 z" />
    <path
       style="fill:#000000;fill-opacity:1;stroke:#000000;stroke-width:3;stroke-miterlimit:4;stroke-opacity:1;stroke-dasharray:none"
       id="path2828"
       d="m 1036.0398,400.44877 c 0.6539,5.14514 0.4275,2.42147 0.5965,8.1775 0,0 -2.7969,0.009 -2.7969,0.009 l 0,0 c -0.1833,-5.72776 0.052,-3.01467 -0.6243,-8.14599 0,0 2.8247,-0.0401 2.8247,-0.0401 z" />
    <path
       style="fill:#000000;fill-opacity:1;stroke:#000000;stroke-width:3;stroke-miterlimit:4;stroke-opacity:1;stroke-dasharray:none"
       id="path2830"
       d="m 1105.758,397.02348 c -9.5962,10.7046 -16.8111,23.22141 -23.92,35.63981 -8.9239,14.91005 -15.7915,30.87029 -20.3129,47.62822 -1.9513,8.32785 -3.824,16.25644 3.4389,22.2731 2.747,1.92396 5.7282,2.08145 8.9408,2.28475 0,0 -2.7837,0.42096 -2.7837,0.42096 l 0,0 c -3.2375,-0.24872 -6.2236,-0.47922 -8.9628,-2.46141 -7.2051,-6.2243 -5.4104,-14.12772 -3.3976,-22.59044 4.5495,-16.77571 11.4231,-32.75967 20.3498,-47.69698 7.0942,-12.42093 14.2843,-24.94526 23.826,-35.68868 0,0 2.8215,0.19067 2.8215,0.19067 z" />
    <path
       style="fill:#000000;fill-opacity:1;stroke:#000000;stroke-width:3;stroke-miterlimit:4;stroke-opacity:1;stroke-dasharray:none"
       id="path2832"
       d="m 1111.5079,502.17727 c -5.6432,-7.30109 -9.1389,-15.40198 -10.4864,-24.48577 -1.4496,-12.79987 2.1378,-25.13175 6.3009,-37.07841 3.7908,-10.05944 7.8827,-20.02892 13.4547,-29.24573 1.5227,-2.38527 3.2332,-4.63903 5.1171,-6.74773 0,0 2.8337,0.20856 2.8337,0.20856 l 0,0 c -1.9021,2.08222 -3.6197,4.32119 -5.1504,6.69223 -5.6074,9.1803 -9.6906,19.14455 -13.4887,29.18555 -4.1558,11.902 -7.7396,24.18893 -6.2819,36.94419 1.3612,9.03732 4.8609,17.10251 10.5225,24.33644 0,0 -2.8215,0.19067 -2.8215,0.19067 z" />
    <path
       style="fill:#000000;fill-opacity:1;stroke:#000000;stroke-width:3;stroke-miterlimit:4;stroke-opacity:1;stroke-dasharray:none"
       id="path2834"
       d="m 1069.2212,454.67936 c 9.1785,-0.9884 18.3112,-2.25662 27.4601,-3.48936 7.9242,-1.54599 15.8046,-3.24281 23.833,-4.15342 4.9275,-0.0725 9.6814,-1.09813 14.4248,-2.33217 0.8293,-0.57225 3.1248,-0.27838 3.6366,-1.27947 0,0 2.8498,0.10073 2.8498,0.10073 l 0,0 c -0.3701,1.24977 -2.6614,1.0361 -3.677,1.55052 -4.7525,1.24231 -9.508,2.32729 -14.4509,2.36948 -8.0385,0.88836 -15.93,2.56527 -23.8556,4.14386 -9.1364,1.22449 -18.2515,2.52006 -27.4192,3.48624 0,0 -2.8016,-0.39641 -2.8016,-0.39641 z" />
    <path
       style="fill:#000000;fill-opacity:1;stroke:#000000;stroke-width:3;stroke-miterlimit:4;stroke-opacity:1;stroke-dasharray:none"
       id="path2836"
       d="m 1165.6325,386.10992 c 6.1465,12.29231 8.9129,25.58502 10.8123,39.081 1.7887,16.91529 -0.3229,33.62216 -4.3661,50.03192 -4.0119,13.86283 -10.6407,24.0357 -22.265,32.48631 -1.7127,0.78318 -3.4253,1.56636 -5.138,2.34954 0,0 -2.7638,-0.31823 -2.7638,-0.31823 l 0,0 c 1.7122,-0.76446 3.4244,-1.52892 5.1366,-2.29338 11.6349,-8.36141 18.2594,-18.47888 22.281,-32.29081 4.0526,-16.37348 6.1608,-33.04499 4.3666,-49.92682 -1.9051,-13.46578 -4.6664,-26.74132 -10.8802,-38.97317 0,0 2.8166,-0.14636 2.8166,-0.14636 z" />
  </g>
</svg>
