<?xml version="1.0" encoding="UTF-8" standalone="no"?>
<!-- Created with Inkscape (http://www.inkscape.org/) -->

<svg
   xmlns:dc="http://purl.org/dc/elements/1.1/"
   xmlns:cc="http://creativecommons.org/ns#"
   xmlns:rdf="http://www.w3.org/1999/02/22-rdf-syntax-ns#"
   xmlns:svg="http://www.w3.org/2000/svg"
   xmlns="http://www.w3.org/2000/svg"
   xmlns:sodipodi="http://sodipodi.sourceforge.net/DTD/sodipodi-0.dtd"
   xmlns:inkscape="http://www.inkscape.org/namespaces/inkscape"
   width="848.32782"
   height="486.94632"
   id="svg2901"
   version="1.1"
   inkscape:version="0.47pre4 r22446"
   sodipodi:docname="New document 4">
  <defs
     id="defs2903">
    <inkscape:perspective
       sodipodi:type="inkscape:persp3d"
       inkscape:vp_x="0 : 526.18109 : 1"
       inkscape:vp_y="0 : 1000 : 0"
       inkscape:vp_z="744.09448 : 526.18109 : 1"
       inkscape:persp3d-origin="372.04724 : 350.78739 : 1"
       id="perspective2909" />
  </defs>
  <sodipodi:namedview
     id="base"
     pagecolor="#ffffff"
     bordercolor="#666666"
     borderopacity="1.0"
     inkscape:pageopacity="0.0"
     inkscape:pageshadow="2"
     inkscape:zoom="0.35"
     inkscape:cx="451.90293"
     inkscape:cy="288.60511"
     inkscape:document-units="px"
     inkscape:current-layer="layer1"
     showgrid="false"
     inkscape:window-width="1280"
     inkscape:window-height="726"
     inkscape:window-x="0"
     inkscape:window-y="25"
     inkscape:window-maximized="1" />
  <metadata
     id="metadata2906">
    <rdf:RDF>
      <cc:Work
         rdf:about="">
        <dc:format>image/svg+xml</dc:format>
        <dc:type
           rdf:resource="http://purl.org/dc/dcmitype/StillImage" />
        <dc:title></dc:title>
      </cc:Work>
    </rdf:RDF>
  </metadata>
  <g
     inkscape:label="Layer 1"
     inkscape:groupmode="layer"
     id="layer1"
     transform="translate(76.902927,-334.02096)">
    <path
       style="fill:#000000;fill-opacity:1;stroke:#000000;stroke-width:3;stroke-miterlimit:4;stroke-opacity:1;stroke-dasharray:none"
       id="path2911"
       d="m -49.168023,623.2834 c -9.439101,-3.45347 -15.379346,-8.16803 -20.577006,-16.75776 -7.437761,-13.81688 -6.090387,-29.01571 -4.066216,-43.99077 3.193042,-18.49703 11.860806,-34.81357 23.145518,-49.55361 7.631523,-8.91202 17.589373,-16.7196 29.78965,-17.40197 3.056667,-0.17096 6.122346,0.0814 9.183519,0.12215 15.8331413,2.40131 25.434782,11.4558 34.533288,23.89998 6.900998,11.87833 11.436509,25.6392 10.543057,39.55856 -0.192001,2.99124 -0.887449,5.92874 -1.331173,8.89311 -3.581531,14.10378 -10.560343,27.36768 -22.5367695,36.09619 -2.0311453,1.48031 -4.2833764,2.63062 -6.4250646,3.94594 -13.2045559,6.74187 -26.0629289,5.86724 -39.0684439,-0.79974 -5.128891,-3.05868 -8.628805,-7.4674 -12.06171,-12.20349 0,0 2.775433,-0.17485 2.775433,-0.17485 l 0,0 c 3.432126,4.69638 6.928304,9.0639 12.049626,12.07302 12.551765,6.32979 20.437473,7.31987 33.56266698,0.82365 2.14249012,-1.30108 4.39465752,-2.43671 6.42747022,-3.90326 11.9786718,-8.64186 18.9591998,-21.84735 22.5394248,-35.89814 0.441246,-2.94844 1.133289,-5.87013 1.323739,-8.84532 0.887709,-13.86772 -3.639725,-27.57381 -10.543701,-39.39173 -9.108205,-12.38576 -18.7144148,-21.36478 -34.525969,-23.64635 -13.691629,-0.58435 -24.929988,6.79689 -33.496885,17.03172 -11.29336,14.68292 -19.960668,30.95292 -23.147591,49.41085 -2.010648,14.91815 -3.344844,30.05887 4.113803,43.80177 5.068022,8.28521 11.380701,13.34917 20.599647,16.5577 0,0 -2.806313,0.35235 -2.806313,0.35235 z" />
    <path
       style="fill:#000000;fill-opacity:1;stroke:#000000;stroke-width:3;stroke-miterlimit:4;stroke-opacity:1;stroke-dasharray:none"
       id="path2913"
       d="m -23.927711,612.80694 c 2.848952,-12.1641 3.607601,-24.64762 4.91042,-37.03157 1.589073,-13.4688 2.510409,-26.99687 3.048637,-40.54422 0.142663,-5.27767 0.328797,-10.55835 0.292617,-15.839 0.943566,0.5351 2.098155,0.80529 2.830699,1.60531 0.391801,0.4279 -1.560374,8.14129 -1.747922,9.11158 -1.287899,5.54462 -3.136945,10.91109 -4.736512,16.36535 -3.015836,6.9262 -1.828113,8.55047 -9.738449,8.40889 -3.016624,-1.93847 -3.468641,-6.14958 -3.251382,-9.43757 0.347952,-5.10855 2.33508,-9.65057 4.503841,-14.19297 2.353615,-4.18922 5.928577,-8.11604 11.03348,-4.70071 3.486572,4.52705 5.431611,9.97361 8.2493748,14.92205 0.7038412,1.08442 1.4076823,2.16884 2.1115235,3.25326 0,0 -2.8007389,0.16118 -2.8007389,0.16118 l 0,0 c -0.7047806,-1.08978 -1.4095614,-2.17956 -2.1143414,-3.26935 -2.790375,-4.91309 -4.711308,-10.35994 -8.266907,-14.78077 -0.454832,-0.26476 -1.34757,-0.26828 -1.364496,-0.79429 -0.01445,-0.44892 1.344823,-0.64922 1.332494,-0.20023 -0.0133,0.48454 -0.937488,0.29266 -1.342351,0.5592 -1.819383,1.19779 -2.842464,3.22905 -4.017788,4.97532 -2.152335,4.51223 -4.160996,9.00624 -4.494575,14.08614 -0.209371,3.11273 0.171888,7.35686 3.23046,8.99658 -0.513207,0.0427 -1.142246,0.45557 -1.539621,0.12801 -0.351389,-0.28965 0.943644,-0.0623 1.333217,-0.29815 0.476653,-0.28852 0.824021,-0.76002 1.155197,-1.20809 1.48859,-2.014 2.14741,-4.43702 3.163248,-6.6888 1.592684,-5.44673 3.450266,-10.80087 4.727945,-16.33872 0.115012,-0.60181 1.707325,-9.02637 1.73853,-9.05995 0.742694,-0.79919 1.90253,-1.06845 2.853794,-1.60267 -0.05839,5.2844 -0.162384,10.5683 -0.35662,15.8497 -0.561876,13.55272 -1.490286,27.08658 -3.079458,40.56169 -1.294196,12.38568 -2.049859,24.86629 -4.839653,37.04288 0,0 -2.824663,-0.0401 -2.824663,-0.0401 z" />
    <path
       style="fill:#000000;fill-opacity:1;stroke:#000000;stroke-width:3;stroke-miterlimit:4;stroke-opacity:1;stroke-dasharray:none"
       id="path2915"
       d="m -8.1513574,501.80568 c -4.5577226,-9.69929 -5.0840066,-20.21222 -5.2634286,-30.72848 -0.295047,-13.92381 2.119271,-27.68692 3.8196522,-41.45589 1.7725672,-13.79315 4.6381752,-27.4025 6.4550485,-41.1871 0.4796741,-8.93517 3.27575517,-17.596 3.4695823,-26.53743 -0.45156331,-3.76962 -0.17836506,-7.95295 -1.7458549,-11.49158 -0.2937099,-1.13369 -2.6688544,-2.58994 -1.7316881,-3.68324 4.7589004,-0.82997 9.8042804,0.78431 14.546075,1.40012 9.26501,1.02258 18.604073,1.02612 27.913442,1.12297 13.344984,0.0346 26.690799,0.28743 40.025796,-0.27537 17.109322,-1.10944 34.236523,-1.80214 51.375593,-2.21022 16.24422,-0.32088 32.49238,-0.33071 48.73912,-0.34578 14.76759,-0.005 29.53517,0.005 44.30276,0.0108 8.9984,-0.88674 18.0022,-1.76038 27.02764,-2.32644 6.67324,-1.06491 13.47864,-1.64527 20.06447,-3.18813 3.77714,-1.05724 7.57957,-1.99432 11.43263,-2.72889 2.36916,-0.56018 4.8175,-0.49424 4.96051,2.77713 0.0349,8.30052 0.0442,16.59609 -0.43452,24.88361 -1.39202,15.72708 -1.55366,31.52359 -2.59329,47.26846 -1.47153,14.669 -1.64095,29.43085 -2.86687,44.11133 -0.87748,8.96769 -1.91449,17.92142 -2.49814,26.91474 -0.6524,6.75878 2.0728,7.21465 -4.93298,6.31008 -3.4377,-1.8121 -7.21742,-2.66669 -11.03969,-3.16167 0.19216,0.0538 0.7688,0.10835 0.57646,0.16148 -0.77273,0.21344 -1.59782,0.1671 -2.38126,0.33704 -3.50515,0.76029 -6.63064,2.26436 -9.80558,3.86469 -5.16271,2.43721 -7.59367,6.65559 -8.96957,11.96748 -1.38408,5.57934 0.98068,10.37323 3.96096,14.93714 4.31565,5.3882 10.30252,8.85477 16.30105,12.05538 5.40347,2.49831 10.85558,4.83115 16.61551,6.36363 -1.18108,-0.52258 4.92981,1.41098 3.79056,0.80258 -0.82846,-0.44244 -1.83591,-0.53586 -2.60378,-1.07667 -0.62715,-0.4417 -0.68864,-1.3828 -1.16241,-1.9861 -1.6559,-0.71425 -2.75218,-2.31351 -4.26135,-3.21962 -0.20548,-0.12336 -0.9292,-0.19789 -0.6896,-0.20351 1.40366,-0.0329 2.80694,0.0807 4.21041,0.12098 3.77251,1.93833 7.37951,2.08779 11.08042,1.83193 5.26919,-0.13586 10.10961,-1.83374 14.53025,-4.60574 3.29181,-2.47274 4.80408,-5.64876 1.04971,-8.36304 -5.46778,-2.26345 -10.80121,-1.34287 -16.44347,-0.39082 -9.74997,2.37564 -19.15549,6.05355 -28.15149,10.47339 -7.1534,3.62138 -13.13882,8.63952 -16.79327,15.80936 -2.79523,6.31052 -1.6228,12.72761 0.071,19.12521 2.05401,7.27058 6.84157,12.09209 12.91864,16.20915 6.39651,2.89685 14.08075,5.1761 21.20419,4.49731 6.53308,-0.59698 13.08168,-2.2086 19.27239,-4.39638 4.1253,-1.86254 4.80785,-4.67315 1.86506,-7.98248 -3.81355,-2.87304 -8.68731,-3.32227 -13.29602,-3.73087 0.14794,0.0718 0.6011,0.16735 0.44383,0.21541 -0.78585,0.2402 -1.6467,0.15646 -2.43372,0.39278 -4.10542,1.23275 -7.44257,4.5561 -10.56342,7.3081 -5.62254,5.86232 -8.59604,13.0834 -10.47523,20.8485 -0.93596,6.9751 0.23402,11.2452 5.07992,16.23133 5.15201,3.93442 11.61207,5.86985 17.86177,7.30971 5.44193,0.75802 6.98065,2.02906 10.70306,-0.14352 2.83437,-2.30462 0.93929,-5.28371 -0.23223,-7.9937 -2.57082,-4.54121 -7.09154,-6.92735 -11.91719,-8.38001 -5.99139,-1.04859 -11.26759,1.63152 -16.20844,4.72579 -6.89748,4.43774 -10.96559,10.86451 -13.37369,18.52655 -2.07938,8.29526 -1.89919,16.70737 -0.30599,25.04241 1.75357,7.14371 5.86144,12.54788 12.32928,15.91788 5.24111,2.76284 10.78156,3.46422 16.54602,2.68012 5.50745,-0.69382 9.98878,-3.28716 14.01736,-6.94216 2.50516,-2.85228 4.08386,-6.31688 3.29763,-10.10759 -1.01408,-2.44241 -8.51593,-3.20695 -4.92975,-2.58151 -3.27307,0.63986 -6.15417,2.34229 -8.93366,4.11827 -3.49916,1.97485 -5.45317,5.14382 -7.31045,8.55243 -2.10225,3.92672 -3.47342,8.24836 -4.6888,12.52653 -0.97521,5.53218 -1.96953,11.03889 -3.07189,16.55296 -0.69784,4.6977 -1.80714,9.49289 -1.20058,14.24837 0.81992,3.41711 1.58624,6.81866 2.91823,10.07463 1.29261,4.47343 3.00748,8.783 4.74556,13.09974 1.7097,5.55552 3.3642,11.09444 5.68664,16.4339 2.06112,5.55178 3.72739,11.28031 4.9127,17.08888 1.05408,6.59784 1.21195,13.29071 1.32199,19.95762 0.057,4.82625 0.0374,9.65286 0.0271,14.4793 0.28011,3.09908 -2.09086,3.76061 -4.54988,4.70443 -6.35179,1.50073 -12.8985,1.81398 -19.35058,2.76024 -10.2406,1.60788 -20.62349,1.54278 -30.93137,2.35856 -13.02349,1.39516 -26.1031,2.01555 -39.18975,2.38464 -15.62059,0.87884 -31.09746,-1.38375 -46.5733,-3.05523 -15.03874,-2.28008 -30.18559,-3.64989 -45.28737,-5.42117 -12.70105,-1.56435 -25.482482,-2.17529 -38.265724,-2.51032 -7.92283,-0.13788 -15.848133,-0.21457 -23.772288,-0.16957 -5.309554,0.0106 -10.619104,0.0219 -15.928662,0.03 -3.730083,-0.34494 -7.159506,0.22806 -10.71199,1.25923 -4.770037,0.79382 -7.5556546,-0.21229 -9.6740421,-4.34105 -1.557906,-4.28801 -1.4267606,-8.89464 -1.4936841,-13.38914 -0.04879,-9.6769 0.0036,-19.35413 0.02308,-29.0311 C 4.7463955,739.84504 3.9395282,724.08889 3.0470949,708.31927 2.4659278,691.2501 1.4672732,674.21965 0.28457317,657.18311 -0.81015723,644.33353 -2.7011801,631.6126 -4.9534833,618.92541 c -1.0056899,-5.56187 -3.262021,-9.25935 -8.5775677,-11.15932 0,0 2.799673,-0.3418 2.799673,-0.3418 l 0,0 c 5.3078219,2.04889 7.5764977,5.84276 8.5704141,11.45231 2.22970591,12.6986 4.10355,25.43047 5.192372,38.28754 1.1733338,17.03809 2.1782874,34.06947 2.7600333,51.13958 0.8957472,15.77483 1.7060879,31.53613 1.2838347,47.34515 -0.00594,9.67536 -0.040208,19.35099 0.020352,29.02622 0.07625,4.44879 -0.056152,9.02012 1.5112233,13.25707 0.7231168,1.35614 1.5045926,2.69963 2.8624796,3.54061 0.389883,0.24147 1.481867,0.0992 1.277826,0.5099 -0.236304,0.47565 -1.128821,-0.14845 -1.589071,0.1166 -0.427717,0.24631 0.986496,-0.0358 1.479744,-0.0536 3.565886,-1.03372 6.96994,-1.73041 10.726551,-1.33755 5.316563,-0.006 10.633117,-0.017 15.949673,-0.0267 9.765776,-0.006 19.532695,-0.0301 29.296856,0.1808 12.776881,0.34429 25.551212,0.96816 38.24524,2.53868 15.10036,1.77239 30.24523,3.14787 45.2839,5.41916 13.65763,1.47915 27.34063,3.60937 41.11659,3.03211 13.08114,-0.36363 26.15663,-0.9699 39.17395,-2.37245 10.29682,-0.83736 20.67097,-0.74702 30.90371,-2.344 6.43836,-0.95069 12.95424,-1.30486 19.31223,-2.70433 2.35863,-0.87368 4.78862,-1.37446 4.52854,-4.3634 0.0257,-4.82447 0.042,-9.64927 -0.008,-14.47365 -0.10717,-6.64952 -0.25804,-13.3264 -1.32243,-19.90544 -1.18514,-5.78983 -2.84971,-11.49906 -4.91536,-17.03036 -2.308,-5.34688 -3.9651,-10.88778 -5.68628,-16.44113 -1.74306,-4.31567 -3.44836,-8.62991 -4.75897,-13.09832 -1.32832,-3.28117 -2.10974,-6.70567 -2.91646,-10.1487 -0.5942,-4.78932 0.4995,-9.60948 1.21222,-14.33934 1.10205,-5.52159 2.10377,-11.03346 3.06823,-16.57523 1.21176,-4.2983 2.58295,-8.64284 4.6848,-12.58953 1.86602,-3.43898 3.7933,-6.68512 7.31692,-8.69358 2.77786,-1.8163 5.68008,-3.52033 8.94634,-4.24332 3.63258,-0.16975 8.37298,-0.72198 10.57413,2.93189 0.7677,3.8896 -0.77194,7.44136 -3.31902,10.39904 -4.03698,3.69616 -8.499,6.38655 -14.04786,7.10843 -7.58489,1.12278 -15.20038,0.68557 -22.13291,-2.77647 -6.47074,-3.48235 -10.57961,-8.96889 -12.32913,-16.16989 -1.59056,-8.38145 -1.77144,-16.83739 0.30199,-25.18027 2.40814,-7.71547 6.4619,-14.22199 13.38373,-18.72402 6.82082,-4.33649 13.5749,-6.35892 21.79714,-4.80054 4.86623,1.53168 9.39919,3.9962 11.94972,8.62179 1.23072,2.83662 3.07536,5.92837 0.22833,8.39764 -4.70419,3.05733 -11.16718,0.89061 -16.3139,0.23152 -6.27009,-1.47916 -12.76302,-3.43596 -17.88476,-7.47004 -4.55914,-4.7696 -6.14335,-9.878 -5.07593,-16.51395 1.88747,-7.81494 4.86744,-15.08551 10.48401,-21.01931 5.54523,-4.92445 10.29659,-8.75507 18.14706,-8.0955 4.64518,0.43918 9.55478,0.93012 13.32573,3.94566 2.92026,3.46663 2.36997,6.53341 -1.89005,8.52962 -6.18397,2.24241 -12.77111,3.81327 -19.30276,4.48178 -9.14283,0.14136 -18.51163,-0.25269 -26.76894,-4.65548 -6.09158,-4.18637 -10.88257,-9.08832 -12.93558,-16.40906 -1.70301,-6.46155 -2.86575,-12.95368 -0.071,-19.32988 3.64887,-7.23488 9.63255,-12.32426 16.83194,-15.98725 8.99607,-4.4462 18.40764,-8.12273 28.15393,-10.55417 7.2457,-1.26397 15.02486,-2.30646 22.037,0.52072 3.70871,2.94971 2.36079,6.27447 -1.06067,8.90754 -4.40828,2.82812 -9.26188,4.59357 -14.55287,4.7435 -5.7762,0.42361 -11.35713,0.67731 -16.68521,-1.90119 0.47713,-0.27329 0.89717,-0.68969 1.43139,-0.81986 1.45184,-0.35377 3.50009,3.39421 4.96003,3.58625 3.42929,4.7189 -3.18147,3.63378 -5.66352,2.81259 -5.75227,-1.56595 -11.20762,-3.91234 -16.60405,-6.43007 -6.01637,-3.24102 -12.03097,-6.73684 -16.32231,-12.19539 -3.00275,-4.63933 -5.35626,-9.51804 -3.96835,-15.17058 1.37191,-5.36748 3.78023,-9.70949 8.98498,-12.20723 5.50039,-2.78112 10.88298,-4.94109 17.21644,-4.45787 3.83202,0.52785 7.59589,1.43659 11.05528,3.22787 -0.45589,0.19459 -0.93035,0.3504 -1.36766,0.58376 -0.10316,0.055 0.29184,0.0624 0.34848,-0.0399 0.10518,-0.18994 0.0244,-0.43355 0.0338,-0.65046 0.0847,-1.96138 0.15505,-3.92352 0.28617,-5.88266 0.59715,-8.99542 1.6667,-17.94888 2.5439,-26.91955 1.24591,-14.67745 1.40881,-29.43936 2.88919,-44.10624 1.0462,-15.74319 1.19795,-31.53868 2.56876,-47.26605 0.46419,-8.27862 0.43612,-16.56452 0.37068,-24.85517 -0.0234,-0.51129 -0.42604,-1.16609 -0.0701,-1.53388 1.2004,-1.24034 4.57381,-1.45468 0.76094,-0.86367 -3.86131,0.71858 -7.67352,1.63719 -11.45139,2.71244 -6.58155,1.60665 -13.41932,2.10405 -20.09288,3.23309 -10.85752,0.66843 -21.65647,2.08594 -32.53776,2.33992 -12.9475,-0.007 -25.895,-0.0173 -38.8425,-0.0149 -16.24831,0.0141 -32.49801,0.0224 -48.74389,0.3387 -17.13737,0.40221 -34.263414,1.08555 -51.370353,2.20564 -15.153194,0.6643 -30.326834,0.26256 -45.49133,0.28899 -9.321881,-0.0992 -18.674523,-0.10392 -27.9499446,-1.15143 -1.3291594,-0.17661 -7.2249956,-0.61888 -8.329557,-1.37607 -0.34497303,-0.23649 1.0872726,0.10923 1.221509,-0.28689 0.019476,-0.0575 -1.57806447,0.0952 -1.81319476,0.11633 -0.69220702,0.65627 1.52916726,2.34839 1.72815196,3.31023 1.5207577,3.60489 1.2995462,7.79027 1.7203705,11.61365 -0.2045472,8.95401 -3.0123168,17.62088 -3.50872675,26.56756 -1.82223205,13.78392 -4.69960465,27.39085 -6.46870745,41.18462 -1.6993081,13.75561 -4.1025549,27.50707 -3.8043369,41.41712 0.188846,10.47804 0.7025411,20.96249 5.3124437,30.60233 0,0 -2.8235624,0.13101 -2.8235624,0.13101 z" />
    <path
       style="fill:#000000;fill-opacity:1;stroke:#000000;stroke-width:3;stroke-miterlimit:4;stroke-opacity:1;stroke-dasharray:none"
       id="path2917"
       d="m 280.64742,362.93105 c 6.59342,-2.1357 12.91674,-4.86784 19.682,-6.47025 6.52414,-1.45133 13.23331,-1.1375 19.84003,-1.82099 8.98337,-1.32503 18.05499,-1.82802 27.11907,-2.19366 8.55537,-0.28461 17.11613,-0.30919 25.67529,-0.32321 4.61829,-0.21369 9.29003,0.33132 13.89982,0.005 2.34497,-0.16613 5.18216,-0.92029 7.57094,-1.26529 5.9505,-0.93057 11.96124,-1.28634 17.97368,-1.47914 4.29403,-0.0994 8.52823,0.16296 12.71448,-0.89611 3.90586,-1.25789 8.03865,-1.32133 12.01566,-2.18891 4.58042,-1.2524 9.26897,-1.99666 13.99246,-2.4152 3.60247,-0.79435 7.07823,-2.01312 10.71634,-2.6528 3.05115,-0.0934 5.82272,-0.82175 8.69026,-1.7852 2.73764,-0.96075 6.71233,-2.38609 7.97101,1.17102 0.0919,4.00322 0.84174,7.89692 1.45286,11.8514 1.00906,7.24252 1.19839,14.56525 1.35515,21.86582 0.85756,7.93864 1.87937,15.84645 2.44328,23.81475 0.007,7.72817 1.3215,15.33661 2.23633,22.98717 0.67243,6.42584 0.77786,12.8431 1.91092,19.20945 1.16059,4.89663 1.64946,9.88795 1.90663,14.90096 0.2018,4.47691 0.19317,8.95977 0.19409,13.44019 -5.5e-4,3.17969 -0.0108,6.35936 -0.0117,9.53904 0.97884,3.17073 -2.19179,3.63238 -3.65829,0.70998 0,0 2.84003,-0.13164 2.84003,-0.13164 l 0,0 c 1.22038,2.45503 -3.02144,3.18863 -2.02293,-0.57883 0.0101,-3.1795 0.0158,-6.35901 0.0237,-9.53852 10e-6,-4.47562 0.009,-8.95335 -0.18756,-13.42568 -0.25913,-5.00115 -0.75554,-9.97856 -1.90066,-14.86599 -1.1293,-6.3721 -1.23275,-12.79448 -1.9014,-19.2256 -0.91218,-7.65543 -2.2268,-15.26809 -2.23563,-23.00077 -0.56004,-7.97311 -1.58642,-15.88508 -2.44217,-23.82849 -0.15632,-7.28836 -0.34766,-14.59938 -1.36786,-21.82825 -0.61905,-3.93442 -1.36421,-7.81273 -1.47779,-11.79509 -0.2102,-0.55298 -1.32235,-1.18224 -0.86064,-1.55209 0.5174,-0.41446 1.28966,-0.31846 1.94655,-0.40775 1.17448,-0.15965 -4.58045,1.14564 -3.39969,1.04222 -2.88061,0.95368 -5.61781,1.80965 -8.69684,1.82807 -3.6519,0.60425 -7.13731,1.8053 -10.72849,2.67471 -4.7203,0.39775 -9.41183,1.11414 -13.98524,2.37727 -3.96223,0.92977 -8.10653,0.91452 -12.01072,2.18075 -4.1945,1.11246 -8.41889,0.89444 -12.73671,0.95635 -6.0121,0.18366 -12.02396,0.52225 -17.975,1.44694 -7.13031,1.03371 -14.27407,1.55516 -21.48373,1.29899 -8.56223,0.0116 -17.12604,0.0335 -25.68468,0.31086 -9.05803,0.35753 -18.12681,0.84111 -27.10261,2.17737 -6.59912,0.72374 -13.30312,0.36915 -19.82968,1.78726 -6.76951,1.56849 -13.08668,4.28266 -19.66423,6.44649 0,0 -2.80632,-0.35235 -2.80632,-0.35235 z" />
    <path
       style="fill:#000000;fill-opacity:1;stroke:#000000;stroke-width:3;stroke-miterlimit:4;stroke-opacity:1;stroke-dasharray:none"
       id="path2919"
       d="m 423.45135,498.22003 c 9.11731,1.04033 18.35766,2.2748 27.5499,1.83641 11.76222,-0.44304 23.45732,-1.98403 35.06183,-3.89714 11.47641,-1.75183 22.86902,-3.97352 34.3971,-5.37252 8.64135,-0.45003 17.13857,-1.96934 25.68461,-3.20539 3.73017,-0.54423 7.48565,-0.90728 11.248,-1.1334 3.02099,0.18305 4.75431,-0.10748 -0.0837,1.18587 0,0 -2.80852,-0.36946 -2.80852,-0.36946 l 0,0 c 1.04528,-0.28296 2.04993,-0.87221 3.13276,-0.86016 6.95442,0.0773 4.08861,0.49318 2.57265,0.47269 -3.77239,0.20912 -7.538,0.56692 -11.2781,1.1046 -8.55853,1.22415 -17.06165,2.78235 -25.71649,3.20719 -11.53008,1.38319 -22.92043,3.60914 -34.39669,5.36018 -11.60406,1.93402 -23.30442,3.46643 -35.06752,3.93547 -11.06384,0.18324 -22.13378,-0.23982 -33.09739,-1.86793 0,0 2.80154,-0.39641 2.80154,-0.39641 z" />
    <path
       style="fill:#000000;fill-opacity:1;stroke:#000000;stroke-width:3;stroke-miterlimit:4;stroke-opacity:1;stroke-dasharray:none"
       id="path2921"
       d="m 438.0733,540.71263 c 9.07131,-0.47171 18.31135,0.82162 27.33307,-0.3299 10.03854,-0.5707 19.95347,-2.0306 29.88907,-3.47732 8.46525,-1.28729 16.96262,-2.5722 25.36847,-4.21516 6.78205,-1.20911 13.46014,-2.79327 20.16216,-4.36548 4.78617,-0.90899 9.36129,-2.63079 14.07062,-3.8724 2.0061,-0.97651 6.9304,-0.54225 1.30033,1.2468 -2.544,0.96354 -1.22158,0.47915 -3.9696,1.44679 0,0 -2.80564,-0.34785 -2.80564,-0.34785 l 0,0 c 2.74531,-0.95861 1.42579,-0.46904 3.96206,-1.45927 0.90578,-0.26627 1.73267,-0.80514 2.66339,-0.96351 7.13721,-1.21451 3.31392,-0.017 1.65892,0.44852 -4.72123,1.22878 -9.30069,2.95588 -14.08953,3.87749 -6.71036,1.56052 -13.38475,3.18088 -20.17636,4.37338 -8.40283,1.67252 -16.91438,2.91965 -25.37879,4.22798 -9.94154,1.43995 -19.85667,2.92967 -29.90111,3.49827 -10.95567,0.47302 -21.9126,0.36257 -32.87755,0.35363 0,0 2.79049,-0.44197 2.79049,-0.44197 z" />
    <path
       style="fill:#000000;fill-opacity:1;stroke:#000000;stroke-width:3;stroke-miterlimit:4;stroke-opacity:1;stroke-dasharray:none"
       id="path2923"
       d="m 502.09697,540.08156 c 2.72079,8.07749 2.72009,16.52985 2.6536,24.94311 0.25952,8.29196 -1.22657,16.45518 -2.13852,24.66254 -0.58639,8.56322 -1.63317,17.09078 -3.24096,25.52359 -1.93211,9.42194 -2.83176,18.9988 -4.16259,28.51455 -1.35646,10.15593 -3.28078,20.20346 -4.30564,30.40737 -0.2635,8.4559 -1.59885,16.79243 -2.67068,25.16736 -0.8494,6.65153 -0.98791,13.36068 -1.08953,20.05645 -0.0682,7.114 -0.0475,14.22852 -0.0401,21.34274 0.009,6.52091 0.0156,13.04182 0.0189,19.56273 0.002,5.20316 0.006,10.40632 0.005,15.60948 0.21189,3.69275 -0.42733,7.48215 0.3464,11.11551 0.5161,2.32257 2.31353,4.79896 1.3859,7.17435 -2.30016,1.66199 -5.69046,1.29582 -8.40223,1.33519 -2.23952,0.52112 -14.58027,-0.90264 -15.97795,0.29117 -7.3599,0.8124 -14.61395,2.21004 -21.90626,3.45749 -8.12702,1.16214 -16.31039,1.51468 -24.44259,2.62645 -7.8305,1.2059 -15.73541,1.70261 -23.64527,1.97367 -7.68094,0.14379 -15.2659,1.55143 -22.91029,2.24591 -7.87381,0.62889 -15.77714,0.71048 -23.67152,0.77382 -5.85183,0.21735 -11.73137,-0.23748 -17.57992,0.0211 -1.56109,0.069 -3.06979,0.60002 -4.62086,0.78961 -7.65122,0.84789 -15.12845,2.86914 -22.33919,5.52164 -5.99288,2.24774 -12.1425,4.04342 -18.25186,5.95061 -0.80523,0.10643 -1.61045,0.21286 -2.41568,0.31929 0,0 -2.79511,-0.40807 -2.79511,-0.40807 l 0,0 c 0.80407,-0.0894 1.60815,-0.17884 2.41223,-0.26825 6.11447,-1.89931 12.26334,-3.7025 18.26418,-5.93412 7.20601,-2.68574 14.69405,-4.71833 22.3486,-5.58603 7.38212,-0.91916 14.77803,-0.91911 22.20702,-0.84238 7.89281,-0.0599 15.79439,-0.13621 23.66754,-0.75118 7.6479,-0.68165 15.23274,-2.09751 22.91312,-2.26139 7.90889,-0.26187 15.81451,-0.74136 23.64444,-1.94469 8.13099,-1.1196 16.30768,-1.49271 24.43907,-2.61774 7.29242,-1.23962 14.53967,-2.65791 21.8977,-3.47684 5.42106,-0.31713 11.47101,-0.40907 15.96692,-0.31908 2.73308,-0.0325 5.84486,0.2299 8.35252,-1.00871 1.00424,-2.2428 -0.96928,-4.77635 -1.37485,-7.00325 -0.75509,-3.65848 -0.14418,-7.45858 -0.33686,-11.17408 -7e-4,-5.20313 0.004,-10.40625 0.002,-15.60938 -10e-4,-6.52084 -0.003,-13.04168 -0.0104,-19.56252 -0.008,-7.11578 -0.0284,-14.23177 0.0356,-21.34737 0.10411,-6.70615 0.23691,-13.42668 1.09352,-20.08802 1.07911,-8.37219 2.42449,-16.70499 2.68794,-25.15941 1.02484,-10.20782 2.95474,-20.25837 4.31005,-30.4181 1.32668,-9.52059 2.22209,-19.10185 4.1522,-28.52861 1.60718,-8.42565 2.65316,-16.94579 3.23857,-25.50177 0.90612,-8.19854 2.39423,-16.35142 2.13829,-24.6339 0.0694,-8.38392 0.0819,-16.81301 -2.68007,-24.84986 0,0 2.82688,-0.091 2.82688,-0.091 z" />
    <path
       style="fill:#000000;fill-opacity:1;stroke:#000000;stroke-width:3;stroke-miterlimit:4;stroke-opacity:1;stroke-dasharray:none"
       id="path2925"
       d="m 480.59421,349.6486 c 5.98874,1.06935 12.03751,1.75835 18.1039,2.18142 4.30204,0.28871 8.61524,0.31676 12.9251,0.33028 3.2464,4e-4 7.83626,-0.008 12.26135,-0.0124 5.72608,0.10961 11.37567,0.12414 17.034,-0.79685 6.87738,-1.20163 13.84473,-1.60781 20.80926,-1.87577 7.70571,-0.21798 15.41539,-0.20733 23.12345,-0.20972 9.46295,0.002 18.9259,0.0124 28.38885,0.0165 9.24091,0.004 18.48183,0.004 27.72274,0.004 7.1819,0.39816 14.25901,-0.33375 21.36184,-1.27645 7.07829,-0.62732 14.12055,-1.67789 20.99063,-3.51368 5.72155,-1.36509 11.20379,-3.51002 16.85068,-5.12507 3.38813,-1.54649 6.88347,-2.78932 10.46016,-3.81641 1.22097,0.0319 2.4657,-0.14617 3.66289,0.0957 1.31377,0.26538 2.48947,5.4494 2.75102,6.35273 1.61646,6.8817 1.25728,13.94432 0.6319,20.91733 -0.72492,10.37559 -2.39314,20.64147 -3.50896,30.97704 -1.58231,9.70868 -2.67083,19.47697 -4.46824,29.14792 -1.63822,7.43829 -1.6376,15.09329 -2.76251,22.59037 -1.05576,5.4345 -1.92321,10.89989 -2.3717,16.41872 -0.48689,3.15479 -2.59315,6.30606 -1.01163,9.38117 2.37239,2.10356 5.398,3.53522 8.35294,4.6721 3.37429,0.78964 6.58695,1.8826 9.85009,3.03774 3.14136,0.85376 6.09046,2.34397 9.0853,3.62371 2.69147,0.73766 -0.005,1.90546 -1.31912,2.49588 -3.85644,1.17837 -7.63445,2.63436 -11.28558,4.34634 -4.04301,1.44414 -7.89202,3.34098 -12.04039,4.48503 -4.01312,1.45807 -8.14165,2.56958 -11.99203,4.43041 -1.94296,1.09262 -5.6948,1.26389 -6.07995,3.90886 1.22501,2.68402 4.19226,3.06537 6.68145,3.99628 3.99882,1.48293 8.19587,2.10716 12.24127,3.42949 4.73162,1.23998 9.33565,2.85751 14.12784,3.87331 5.56227,0.61431 10.99036,1.95139 16.48079,2.99959 3.3255,1.13367 7.26418,0.13764 10.46893,1.49474 1.12997,2.24693 -5.16374,3.42703 -6.66398,3.87458 -5.96187,2.12628 -12.01894,4.0139 -18.18809,5.43447 -7.47587,1.92238 -14.8142,4.2988 -22.30745,6.15552 -4.39222,1.83962 -9.28706,2.4571 -13.62691,4.37224 -2.09238,1.55583 1.73658,2.63124 2.9518,3.24299 3.19367,1.65498 6.84403,1.87329 10.36797,2.11492 4.6355,0.20174 9.27798,0.1718 13.91684,0.17316 7.54181,0.61308 15.18144,1.26379 22.6258,2.68464 6.34514,1.5944 12.84223,2.24314 19.35001,2.70321 4.38159,0.034 8.74877,0.49014 12.85655,2.09791 2.1105,1.27893 -2.80945,2.46837 -3.60621,2.72137 -5.08479,0.86765 -10.13845,1.7993 -15.20149,2.82271 -5.81133,0.83199 -11.58431,1.95845 -17.21952,3.61781 -5.19158,1.25399 -10.0468,3.45585 -15.10974,5.10602 -3.86657,1.20328 -6.28657,3.223 -7.59709,7.03831 -0.80922,3.86245 -0.99943,7.8577 -0.42963,11.75767 1.33669,5.76153 1.89517,11.62768 2.2581,17.51711 0.15764,6.21316 0.7134,12.47008 0.0173,18.66048 -1.0968,5.59672 -1.8199,11.22785 -2.20647,16.91599 -0.29708,5.11622 -0.32819,10.24165 -0.34403,15.36474 -0.12665,4.94628 -0.13591,9.78853 0.82637,14.6455 1.15545,5.16269 1.56794,10.43464 1.86511,15.70292 0.20383,4.5368 0.20546,9.0796 0.20716,13.62003 -0.004,4.15484 -0.0101,8.30967 -0.0145,12.46451 -0.007,3.95644 -0.003,7.91289 -0.003,11.86934 0.2069,3.40087 -0.43632,6.91305 0.34312,10.24752 1.05158,2.97671 1.83744,5.98469 2.193,9.12163 0.0148,2.21417 0.77776,4.62968 0.003,6.75903 -2.08356,1.9661 -4.73929,3.33749 -7.43827,4.25181 -3.66685,1.87165 -7.63895,2.88874 -11.45577,4.39062 -5.24195,2.05964 -10.62077,3.67032 -16.00874,5.30781 -6.91851,2.1899 -14.21,2.24549 -21.33645,3.18816 -7.80301,1.00367 -15.5398,2.32489 -23.28796,3.6784 -7.29889,1.73151 -14.6738,3.05256 -21.93804,4.9199 -5.93697,1.21972 -11.8496,2.47626 -17.77027,3.78274 -4.83929,1.19758 -9.80856,1.50268 -14.76973,1.67494 -5.68449,0.53725 -11.10985,2.24069 -16.59895,3.68721 -6.04187,1.06256 -11.64169,3.61332 -17.48959,5.33836 -5.82978,1.07372 -11.46942,2.90752 -17.27272,4.09103 -5.37907,0.51786 -10.60431,1.85018 -15.88639,2.92533 -3.89255,0.40695 -7.54479,1.7318 -11.27288,2.8309 -3.16623,1.59213 -6.38308,2.82052 -9.86857,3.48773 -3.85243,0.77543 -7.74487,0.52974 -11.30703,-1.11428 0,0 2.8126,-0.32486 2.8126,-0.32486 l 0,0 c 3.85585,1.67224 1.85571,1.45001 5.68797,1.04725 3.49264,-0.62702 6.72705,-1.79787 9.86391,-3.4592 3.73743,-1.09091 7.382,-2.46836 11.28545,-2.8538 5.28713,-1.05927 10.50437,-2.44533 15.89105,-2.92476 5.81018,-1.15859 11.4389,-3.02626 17.27715,-4.0662 5.85734,-1.69503 11.43949,-4.29839 17.48532,-5.34681 5.49903,-1.43559 10.91753,-3.1651 16.60325,-3.7501 4.95782,-0.16108 9.92804,-0.43724 14.76692,-1.62331 5.92446,-1.29494 11.82777,-2.5913 17.77444,-3.77204 7.26909,-1.87256 14.64654,-3.19417 21.9485,-4.94097 7.75022,-1.34698 15.48293,-2.69303 23.28807,-3.68934 7.1153,-0.97544 14.40556,-0.97582 21.32416,-3.14427 5.38303,-1.63016 10.75352,-3.23823 15.9904,-5.28724 3.81964,-1.50355 7.79579,-2.50936 11.45293,-4.40726 2.69488,-0.86013 5.19402,-2.2371 7.40641,-4.00245 0.83583,-2.03578 -0.0326,-4.48522 0.006,-6.62198 -0.36255,-3.12532 -1.16005,-6.11995 -2.19499,-9.09029 -0.7515,-3.36539 -0.15036,-6.88399 -0.34039,-10.31123 2e-4,-3.95654 0.006,-7.91308 0.005,-11.86962 0.004,-4.15469 0.0154,-8.30937 0.0178,-12.46405 -0.003,-4.53526 10e-4,-9.07281 -0.20336,-13.6045 -0.2881,-5.25606 -0.71052,-10.51394 -1.8649,-15.66343 -0.96378,-4.87627 -0.94973,-9.73654 -0.82577,-14.70151 0.014,-5.12936 0.0478,-10.2607 0.34957,-15.383 0.38564,-5.69241 1.09803,-11.32965 2.20701,-16.92864 0.70241,-6.17293 0.13915,-12.41511 -0.0128,-18.6114 -0.36386,-5.88251 -0.93664,-11.73909 -2.27055,-17.49366 -0.57092,-3.94645 -0.38755,-7.9807 0.42147,-11.89095 1.29929,-3.89646 3.67823,-6.04995 7.625,-7.30053 5.07544,-1.63272 9.92417,-3.85592 15.12116,-5.11121 5.62528,-1.69831 11.40787,-2.82132 17.2213,-3.64347 5.05836,-1.01437 10.09037,-2.00629 15.18355,-2.79606 0.57121,-0.17264 5.37371,-1.26571 3.59613,-2.02051 -4.1194,-1.52845 -8.45188,-1.97987 -12.82199,-2.01904 -6.50905,-0.47313 -13.00132,-1.15428 -19.3504,-2.73552 -5.58975,-1.02903 -11.75636,-1.02833 -17.05796,-2.63274 -6.49845,0.002 -13.0035,0.0768 -19.49779,-0.19059 -3.54357,-0.26194 -7.19346,-0.52474 -10.38885,-2.22671 -1.45784,-0.75375 -5.21872,-1.95527 -2.94857,-3.87731 4.29545,-2.03034 9.28801,-2.49166 13.65599,-4.42182 7.50063,-1.84116 14.84163,-4.21303 22.31419,-6.15953 6.16592,-1.39573 12.2202,-3.27802 18.16709,-5.4197 0.89319,-0.2593 7.73305,-1.92696 6.64411,-3.17138 -3.29032,-1.13762 -7.09148,-0.38099 -10.44307,-1.44726 -5.488,-1.0567 -10.92266,-2.35966 -16.47978,-3.006 -4.78898,-1.04061 -9.40741,-2.64469 -14.13854,-3.90101 -4.05013,-1.30304 -8.2587,-1.9263 -12.24741,-3.43977 -2.61407,-0.94447 -5.63027,-1.46021 -6.71331,-4.37912 0.3693,-2.87605 3.91978,-3.09868 6.10845,-4.18627 3.85216,-1.89188 7.98365,-3.00047 12.00458,-4.48272 4.15844,-1.10592 7.98192,-3.02134 12.03245,-4.43596 3.64169,-1.72279 7.41124,-3.21952 11.27549,-4.3568 1.205,-0.49896 3.86881,-1.20366 1.31679,-1.8356 -2.98783,-1.28376 -5.93443,-2.75294 -9.07551,-3.6073 -3.25545,-1.17497 -6.50134,-2.17272 -9.84811,-3.04668 -2.9739,-1.18861 -6.09878,-2.60181 -8.37919,-4.88014 -1.50973,-3.18614 0.433,-6.29997 1.02401,-9.53417 0.44859,-5.52571 1.32543,-10.99715 2.38391,-16.43794 1.13729,-7.49873 1.1364,-15.15859 2.77701,-22.59984 1.80767,-9.6627 2.89667,-19.42423 4.48006,-29.12638 1.12161,-10.33273 2.78055,-20.59795 3.49771,-30.97192 0.61784,-6.93999 0.97366,-13.96778 -0.66353,-20.8119 -0.48344,-1.63781 -1.02178,-3.11059 -1.76677,-4.64259 -0.24644,-0.50678 -1.47433,-1.13002 -0.97117,-1.38375 0.58804,-0.29653 1.31403,-0.0906 1.97105,-0.13597 -3.58697,1.00887 -7.10647,2.21174 -10.47722,3.81442 -5.65932,1.58832 -11.13458,3.76628 -16.86172,5.12701 -6.86313,1.87927 -13.91866,2.92377 -21.00037,3.54979 -8.9493,1.19234 -17.86661,1.66798 -26.90342,1.31125 -9.24136,-2.1e-4 -18.48272,-0.001 -27.72408,-0.004 -7.61896,-0.004 -15.23793,-0.008 -22.85689,-0.0156 -7.70554,0.002 -15.4126,-0.01 -23.11597,0.20023 -6.95879,0.25915 -13.92204,0.6475 -20.79473,1.8422 -5.66114,0.94549 -11.30386,0.97665 -17.03878,0.84246 -5.94743,0.006 -11.89485,0.0185 -17.84228,0.0131 -4.30789,-0.0162 -8.61908,-0.052 -12.91853,-0.35056 -6.07077,-0.43782 -12.12204,-1.14227 -18.11693,-2.20644 0,0 2.80154,-0.39641 2.80154,-0.39641 z" />
  </g>
</svg>
