<?xml version="1.0" encoding="UTF-8" standalone="no"?>
<!-- Created with Inkscape (http://www.inkscape.org/) -->

<svg
   xmlns:dc="http://purl.org/dc/elements/1.1/"
   xmlns:cc="http://creativecommons.org/ns#"
   xmlns:rdf="http://www.w3.org/1999/02/22-rdf-syntax-ns#"
   xmlns:svg="http://www.w3.org/2000/svg"
   xmlns="http://www.w3.org/2000/svg"
   xmlns:sodipodi="http://sodipodi.sourceforge.net/DTD/sodipodi-0.dtd"
   xmlns:inkscape="http://www.inkscape.org/namespaces/inkscape"
   width="1186.3362"
   height="804.06256"
   id="svg2878"
   version="1.1"
   inkscape:version="0.47pre4 r22446"
   sodipodi:docname="New document 4">
  <defs
     id="defs2880">
    <inkscape:perspective
       sodipodi:type="inkscape:persp3d"
       inkscape:vp_x="0 : 526.18109 : 1"
       inkscape:vp_y="0 : 1000 : 0"
       inkscape:vp_z="744.09448 : 526.18109 : 1"
       inkscape:persp3d-origin="372.04724 : 350.78739 : 1"
       id="perspective2886" />
  </defs>
  <sodipodi:namedview
     id="base"
     pagecolor="#ffffff"
     bordercolor="#666666"
     borderopacity="1.0"
     inkscape:pageopacity="0.0"
     inkscape:pageshadow="2"
     inkscape:zoom="0.35"
     inkscape:cx="158.64188"
     inkscape:cy="374.33251"
     inkscape:document-units="px"
     inkscape:current-layer="layer1"
     showgrid="false"
     inkscape:window-width="1280"
     inkscape:window-height="726"
     inkscape:window-x="0"
     inkscape:window-y="25"
     inkscape:window-maximized="1" />
  <metadata
     id="metadata2883">
    <rdf:RDF>
      <cc:Work
         rdf:about="">
        <dc:format>image/svg+xml</dc:format>
        <dc:type
           rdf:resource="http://purl.org/dc/dcmitype/StillImage" />
        <dc:title></dc:title>
      </cc:Work>
    </rdf:RDF>
  </metadata>
  <g
     inkscape:label="Layer 1"
     inkscape:groupmode="layer"
     id="layer1"
     transform="translate(272.22402,-102.63211)">
    <path
       style="color:#000000;fill:#000000;fill-opacity:1;stroke:#000000;stroke-width:1.5;stroke-linecap:butt;stroke-linejoin:miter;stroke-miterlimit:4;stroke-opacity:1;stroke-dasharray:none;stroke-dashoffset:0;marker:none;visibility:visible;display:inline;overflow:visible;enable-background:accumulate"
       id="path3662"
       d="m -259.57858,574.30504 c -4.49797,-5.04866 -5.79241,-11.2473 -5.4082,-17.81553 2.29342,-13.25999 11.60641,-23.28369 20.35336,-32.86664 16.03675,-17.27823 34.34159,-32.16199 53.45945,-45.86133 18.02819,-12.124 37.04394,-23.56149 58.22347,-29.21346 4.04078,-1.07833 8.18621,-1.71716 12.27932,-2.57575 21.839703,-2.66664 41.217209,0.52308 59.50151,13.10899 3.473468,2.39095 6.64482,5.19353 9.96723,7.7903 21.51313,19.95312 33.059765,43.89315 42.5558745,71.14351 5.0694346,17.42194 7.98073496,35.74545 6.1165142,53.9211 -1.097733,10.70261 -2.8775165,15.71188 -5.6421177,26.0602 -7.107145,21.59796 -20.134001,40.44797 -36.433823,56.17512 -3.372662,3.25417 -7.036029,6.19291 -10.554043,9.28937 -15.49206,11.95246 -32.441636,22.18363 -50.591155,29.58718 -11.94432,4.87233 -16.09229,5.65384 -28.40158,9.08858 -18.45029,4.28347 -38.01708,6.44921 -56.66128,1.7758 -10.95373,-2.7457 -13.60334,-4.92268 -23.47726,-10.16888 -20.79897,-14.67501 -34.31107,-36.68075 -43.35034,-60.13631 -2.00989,-5.21537 -3.6003,-10.58286 -5.40045,-15.87429 -5.64791,-19.59667 -9.53311,-39.99578 -8.15169,-60.48479 0.73694,-10.93028 1.88395,-13.75431 4.42488,-24.17025 5.39088,-13.53794 2.34801,-7.06083 9.05417,-19.46613 0,0 2.65644,0.13208 2.65644,0.13208 l 0,0 c -6.72139,12.36079 -3.67025,5.90658 -9.07985,19.39725 -2.55278,10.38085 -3.70663,13.21375 -4.46065,24.11054 -1.41557,20.45733 2.44682,40.8319 8.09402,60.39798 1.80222,5.28449 3.39426,10.6454 5.40668,15.85347 9.04853,23.41734 22.58435,45.36744 43.40483,59.95778 3.77816,1.99441 7.40947,4.29609 11.33449,5.98324 20.41912,8.77703 42.50778,7.50746 63.64971,2.35847 12.29917,-3.413 16.47237,-4.19437 28.40538,-9.04749 18.138154,-7.37674 35.072942,-17.59455 50.562839,-29.51401 3.51623,-3.0886 7.177934,-6.01906 10.548689,-9.2658 16.285256,-15.68611 29.302372,-34.49349 36.417579,-56.04691 2.7678823,-10.34507 4.5362311,-15.30383 5.637711,-26.00233 1.8680791,-18.14435 -1.0278587,-36.43271 -6.096483,-53.8242 -9.561184,-27.43883 -20.919805,-50.8954 -42.575198,-70.99285 -3.324234,-2.58573 -6.497368,-5.37841 -9.972702,-7.75719 -16.218274,-11.101 -34.835622,-15.61853 -54.295525,-13.02313 -4.09364,0.84909 -8.23936,1.47743 -12.28093,2.54727 -21.18075,5.60672 -40.19584,17.02109 -58.21793,29.13293 -19.09996,13.6726 -37.37818,28.53986 -53.37759,45.8125 -8.69288,9.53509 -17.96382,19.49793 -20.2493,32.68439 -0.38215,6.49922 0.92721,12.63481 5.44482,17.57721 0,0 -2.82087,0.22201 -2.82087,0.22201 z" />
    <path
       style="color:#000000;fill:#000000;fill-opacity:1;stroke:#000000;stroke-width:1.5;stroke-linecap:butt;stroke-linejoin:miter;stroke-miterlimit:4;stroke-opacity:1;stroke-dasharray:none;stroke-dashoffset:0;marker:none;visibility:visible;display:inline;overflow:visible;enable-background:accumulate"
       id="path3664"
       d="m -141.7535,727.82409 c -1.27258,-8.96505 -2.47337,-17.95176 -3.44524,-26.95865 -1.79749,-19.1382 -1.56478,-38.34989 -0.94375,-57.53381 1.46068,-24.31691 3.14149,-48.61901 5.73214,-72.84371 2.03148,-18.38179 4.58356,-36.73489 8.08966,-54.89688 1.13178,-8.81428 4.70601,-17.55167 4.0142,-26.52983 2.77088,-0.47791 -1.56818,-1.70135 -0.92934,-1.67762 0.70299,0.0261 1.6051,-0.12308 2.0715,0.40357 0.28561,0.32251 -0.73989,0.45027 -1.06257,0.7357 -0.68822,0.60879 -1.88359,2.13854 -2.40166,2.77115 -3.54507,5.21129 -6.22306,10.93186 -9.23604,16.45542 -4.02447,7.96188 -7.86967,16.00043 -11.37377,24.20574 -3.14614,4.07705 -3.63218,9.92269 -6.67762,13.98206 -0.9663,-0.43297 -2.24696,-0.46456 -2.89891,-1.29893 -0.67569,-0.86476 4.42065,-14.34987 4.98846,-15.84488 3.4406,-8.58248 7.02897,-17.09373 11.10371,-25.39623 2.58314,-4.39016 4.03759,-10.79701 9.15532,-12.91387 5.9235,-0.90933 9.83819,1.794 13.71026,5.74069 4.69765,5.20797 9.45657,10.35731 14.30324,15.42694 3.70522,4.29866 1.85205,2.12002 5.55813,6.53709 0,0 -2.76757,0.19366 -2.76757,0.19366 l 0,0 c -3.70792,-4.41006 -1.85221,-2.23765 -5.56548,-6.51863 -4.84935,-5.07224 -9.60691,-10.22776 -14.32681,-15.42041 -1.18548,-1.18968 -2.26836,-2.39407 -3.65778,-3.35656 -0.61512,-0.42612 -1.28188,-0.77597 -1.95294,-1.10709 -0.57643,-0.28442 -1.46472,-0.17716 -1.78235,-0.73598 -0.19645,-0.34561 1.43678,-0.27449 1.09377,-0.47545 -0.52044,-0.30491 -1.20577,0.0378 -1.80866,0.0566 -5.191,1.77118 -6.60677,8.46377 -9.18623,12.69983 -4.0865,8.28836 -7.67413,16.7911 -11.10333,25.37005 -1.39195,3.66796 -2.79214,7.37103 -4.00253,11.10349 -0.27444,0.84629 -0.52131,1.70434 -0.69579,2.57674 -0.13478,0.67392 0.24306,1.54983 -0.22934,2.049 -0.68487,0.72368 -1.84723,0.74748 -2.77085,1.12122 2.94393,-3.38713 3.71493,-10.31641 6.74086,-13.90139 3.51085,-8.21068 7.35476,-16.25761 11.3708,-24.23217 3.00778,-5.53836 5.68741,-11.26499 9.20037,-16.50907 1.58931,-1.97173 6.77072,-7.87444 7.9499,-2.06091 0.60163,9.01689 -2.93781,17.75414 -4.12163,26.60203 -3.5474,18.14939 -6.08934,36.50118 -8.16163,54.87305 -2.60218,24.21711 -4.30554,48.5113 -5.73518,72.82396 -0.60381,19.17272 -0.79832,38.37364 1.04781,57.49565 0.99174,8.99909 2.19729,17.9823 3.53035,26.93266 0,0 -2.82348,0.0557 -2.82348,0.0557 z" />
    <path
       style="color:#000000;fill:#000000;fill-opacity:1;stroke:#000000;stroke-width:1.5;stroke-linecap:butt;stroke-linejoin:miter;stroke-miterlimit:4;stroke-opacity:1;stroke-dasharray:none;stroke-dashoffset:0;marker:none;visibility:visible;display:inline;overflow:visible;enable-background:accumulate"
       id="path3666"
       d="m -98.555193,447.79622 c 0.03075,-8.71067 0.02961,-17.42142 0.03824,-26.13213 -0.455578,-17.21543 1.072228,-34.36285 2.578193,-51.48964 2.200274,-22.99076 3.655961,-46.03519 5.383487,-69.06251 1.465411,-22.21808 2.986814,-44.42884 4.512866,-66.64327 1.130484,-16.62408 1.563177,-33.28109 1.766504,-49.9385 -0.122246,-11.34039 1.146089,-22.62901 2.948335,-33.80508 1.170395,-9.14184 2.396737,-18.24778 3.900334,-27.34156 1.237711,-3.4155 -0.327442,-9.84486 3.304495,-11.96742 4.400305,-0.51297 8.955632,1.57707 13.131745,2.85731 9.057937,2.41475 18.450332,3.35706 27.688017,4.91261 17.475857,2.80343 34.9499696,5.53372 52.554057,7.39488 24.034977,2.89409 48.128694,1.31032 72.148004,-0.67978 28.721196,-2.30207 57.284856,-6.15887 85.924466,-9.26729 28.7736,-3.297 57.56341,-6.41786 86.46403,-8.34788 24.13157,-2.03824 48.30099,-3.44763 72.50459,-4.21344 16.61661,-0.71186 33.20191,-0.57149 49.77589,0.76572 5.74013,1.39039 13.86539,-0.61769 18.93649,2.71809 2.02736,3.71503 -1.35608,8.83898 -2.92861,12.2544 -5.51068,12.18452 -10.8584,24.44042 -15.74419,36.88927 -7.61181,19.81014 -12.33202,40.5621 -16.57631,61.30783 -3.59561,19.38685 -5.91802,38.96346 -8.29225,58.52683 -2.02723,15.37979 -4.31867,30.67464 -7.29449,45.89767 -2.64056,10.91761 -5.20803,21.87616 -8.38613,32.65218 -1.4088,5.38091 -3.05839,10.57095 -5.37046,15.61485 -0.64366,1.44086 -1.25155,2.89769 -1.79958,4.37755 -4.06948,-0.53995 -3.34952,-1.51903 -4.55489,-4.74854 0,0 2.81032,-0.10074 2.81032,-0.10074 l 0,0 c 1.01619,2.70503 2.64277,3.97296 -1.10599,4.74979 0.5604,-1.48645 1.17996,-2.94971 1.82952,-4.39939 2.3093,-5.03581 4.02761,-10.19114 5.42033,-15.57336 3.20462,-10.76351 5.77539,-21.71703 8.43602,-32.62495 2.98381,-15.21641 5.28554,-30.50517 7.32942,-45.87758 2.38639,-19.5705 4.72939,-39.15343 8.32968,-58.54775 4.24414,-20.75725 8.96551,-41.51932 16.53884,-61.35463 4.8587,-12.45175 10.18041,-24.71092 15.64302,-36.90909 1.47365,-3.21749 4.89359,-8.37157 2.90534,-11.84997 -5.40517,-3.25651 -12.91667,-1.1019 -18.84084,-2.59486 -14.80671,-1.19453 -29.58147,-1.56727 -44.43632,-0.76603 -24.22419,0.75516 -48.41497,2.15089 -72.56656,4.19461 -28.90624,1.91925 -57.70137,5.03371 -86.47944,8.33473 -28.63293,3.10283 -57.18792,6.96918 -85.901278,9.27729 -25.731975,2.14794 -51.59908,3.59618 -77.345372,0.68214 -17.6297058,-1.87042 -35.131785,-4.59827 -52.634911,-7.39968 -9.264438,-1.54543 -18.686053,-2.4842 -27.761261,-4.93883 -0.80999,-0.24434 -8.213125,-2.45243 -8.196844,-2.62804 0.05082,-0.54817 1.102158,-0.15232 1.611653,-0.36085 0.292867,-0.11987 -0.630166,0.0587 -0.94525,0.0881 -3.715039,1.55287 -2.107818,8.62875 -3.343319,11.70004 -1.517714,9.09243 -2.754598,18.19664 -3.922404,27.33997 -1.806341,11.16307 -3.084,22.43592 -2.985822,33.76437 -0.22321,16.66303 -0.677396,33.32464 -1.826528,49.95338 -1.544545,22.21432 -3.077425,44.42529 -4.542399,66.64462 -1.728874,23.02745 -3.182003,46.07264 -5.355091,69.066 -1.48807,17.11926 -2.992842,34.26062 -2.490912,51.46643 0.0086,8.71071 0.0075,17.42146 0.03824,26.13213 0,0 -2.824671,0 -2.824671,0 z" />
    <path
       style="color:#000000;fill:#000000;fill-opacity:1;stroke:#000000;stroke-width:1.5;stroke-linecap:butt;stroke-linejoin:miter;stroke-miterlimit:4;stroke-opacity:1;stroke-dasharray:none;stroke-dashoffset:0;marker:none;visibility:visible;display:inline;overflow:visible;enable-background:accumulate"
       id="path3668"
       d="m 217.05862,390.76145 c 10.39942,7.0158 23.43784,7.75754 35.58461,8.34109 22.53548,-0.53873 44.72712,-5.06608 66.77536,-9.38787 25.00171,-5.2665 49.93614,-10.8192 75.09981,-15.27085 18.3897,-3.46442 36.96645,-4.36616 55.56471,-2.48811 7.09126,1.42861 15.29626,2.2519 20.9552,7.24966 0.75571,1.51993 0.5574,0.76294 0.70571,2.23904 0,0 -2.83839,0.0286 -2.83839,0.0286 l 0,0 c -0.13634,-1.33613 0.0503,-0.64879 -0.6779,-2.02628 -5.71177,-4.85355 -13.77528,-5.70802 -20.84667,-7.09077 -0.11072,-0.0111 -10.31786,-1.05704 -11.4089,-1.08192 -13.04272,-0.29747 -26.002,1.50816 -38.84786,3.53592 -25.1732,4.43559 -50.11502,9.98374 -75.1207,15.26291 -23.75126,4.6663 -47.69487,9.62738 -72.01456,9.43668 -12.21249,-0.61244 -25.33876,-1.37415 -35.74213,-8.52684 0,0 2.81171,-0.22129 2.81171,-0.22129 z" />
    <path
       style="color:#000000;fill:#000000;fill-opacity:1;stroke:#000000;stroke-width:1.5;stroke-linecap:butt;stroke-linejoin:miter;stroke-miterlimit:4;stroke-opacity:1;stroke-dasharray:none;stroke-dashoffset:0;marker:none;visibility:visible;display:inline;overflow:visible;enable-background:accumulate"
       id="path3670"
       d="m 234.53849,470.021 c 9.11255,2.80969 18.68818,3.73974 28.08896,5.17459 12.7859,2.26101 25.64485,1.77782 38.53447,1.23389 16.6832,-1.73674 33.43523,-2.59361 50.14604,-3.96395 16.85377,-1.64521 33.76746,-2.42263 50.68951,-2.87292 13.56032,-0.3531 27.17402,-1.11718 40.64937,-2.7291 3.74019,0.26243 16.79318,-4.29496 19.79015,-2.08594 -0.87148,1.5937 -2.73156,2.13329 -4.27867,2.89208 0,0 -2.79139,-0.31293 -2.79139,-0.31293 l 0,0 c 1.43487,-0.69811 2.94228,-1.33411 4.23717,-2.28573 -0.13019,-0.0577 -0.52727,-0.13319 -0.39058,-0.17323 0.3637,-0.10652 1.49761,-0.15863 1.13604,-0.0451 -4.79215,1.50475 -10.13005,1.22394 -14.98458,2.40799 -13.48752,1.63866 -27.12244,2.38037 -40.69673,2.74774 -16.92405,0.44342 -33.84055,1.20827 -50.69606,2.85669 -16.70539,1.38334 -33.45609,2.20791 -50.13236,3.9769 -14.66762,0.62631 -29.37861,1.18622 -43.93308,-1.25765 -9.42989,-1.441 -19.04105,-2.3628 -28.17046,-5.2282 0,0 2.8022,-0.33513 2.8022,-0.33513 z" />
    <path
       style="color:#000000;fill:#000000;fill-opacity:1;stroke:#000000;stroke-width:1.5;stroke-linecap:butt;stroke-linejoin:miter;stroke-miterlimit:4;stroke-opacity:1;stroke-dasharray:none;stroke-dashoffset:0;marker:none;visibility:visible;display:inline;overflow:visible;enable-background:accumulate"
       id="path3672"
       d="m 340.0388,485.26845 c -6.2507,6.9945 -8.31362,16.54847 -10.10874,25.49004 -2.5666,16.65596 -2.64579,33.5608 -2.85919,50.37312 0.0249,22.84604 -0.0978,45.67003 -0.90998,68.50222 -1.73243,31.04389 -4.75556,62.00307 -8.70537,92.83922 -3.83477,27.02135 -7.78835,54.02386 -11.85926,81.01033 -1.72902,14.75419 -4.04,29.43225 -5.81061,44.18072 -0.93307,8.18577 -1.17435,16.42219 -1.27024,24.65281 -0.0464,5.63313 -0.008,11.26639 0.0152,16.89951 0.37365,3.66292 -1.64771,5.2177 -4.93567,5.92734 -7.62148,0.64975 -15.30448,0.38825 -22.94812,0.36774 -16.36872,-0.0511 -32.73752,-0.0639 -49.10631,-0.0752 -25.93553,-0.18873 -51.81347,1.92917 -77.69362,3.34066 -33.07671,2.378 -66.192409,4.14755 -99.357747,4.25227 -34.8523154,-0.48332 -69.586721,-3.54907 -104.30162,-6.41707 -26.881251,-2.89913 -53.785093,-2.88567 -80.675663,-0.49448 -15.38347,1.55653 -30.71155,3.90579 -45.78075,7.38047 -1.92936,0.15945 -11.85527,4.21729 -12.97173,1.5286 -0.25182,-0.60646 0.70703,-1.10677 1.06055,-1.66015 4.66158,-8.98155 6.09112,-19.13462 7.72304,-29.00227 2.60322,-19.73244 4.52783,-39.54398 6.98274,-59.29427 1.84971,-18.55765 4.9903,-36.9313 7.95807,-55.329 0.29252,-6.80693 4.623,-13.38161 4.15213,-20.22094 0,0 2.83248,-0.0177 2.83248,-0.0177 l 0,0 c 0.39114,6.87872 -3.90213,13.4411 -4.26312,20.28252 -3.00887,18.39104 -6.19959,36.75687 -8.03024,55.31795 -2.45793,19.75131 -4.35788,39.56622 -6.91623,59.30562 -1.60875,9.90213 -3.02746,20.07372 -7.62355,29.11756 -1.53252,2.42915 -0.63283,1.88388 -4.44101,2.35532 -0.39961,0.0495 0.74604,-0.30733 1.13258,-0.42015 3.18386,-0.9293 6.48642,-1.40468 9.67117,-2.33268 15.11108,-3.48018 30.47947,-5.84 45.90525,-7.40024 28.57876,-2.55624 57.235978,-2.41773 85.801462,0.50647 33.051279,2.73532 66.1134744,5.57247 99.282452,6.39897 33.153239,-0.0911 66.257546,-1.85719 99.321416,-4.2446 27.60032,-1.5067 55.1935,-3.74074 82.85871,-3.3687 16.40124,0.007 32.80248,0.0162 49.20366,0.0603 5.80466,0.0119 11.63617,0.17214 17.42424,-0.32367 3.21977,-0.598 5.2878,-1.91171 4.91785,-5.53965 -0.0155,-5.63457 -0.0254,-11.26929 0.0158,-16.90378 0.0993,-8.24149 0.35034,-16.48766 1.29997,-24.68285 1.81349,-14.75023 4.15721,-29.42984 5.91826,-44.18735 4.13266,-26.97953 8.11708,-53.97983 11.95728,-81.0029 3.9558,-30.82627 6.96429,-61.77801 8.6496,-92.81578 0.78252,-22.83087 0.8859,-45.65277 0.84078,-68.49646 0.20601,-16.82844 0.26292,-33.74709 2.80193,-50.4235 1.77366,-8.98797 3.83459,-18.57131 10.03044,-25.65761 0,0 2.81171,0.22129 2.81171,0.22129 z" />
    <path
       style="color:#000000;fill:#000000;fill-opacity:1;stroke:#000000;stroke-width:1.5;stroke-linecap:butt;stroke-linejoin:miter;stroke-miterlimit:4;stroke-opacity:1;stroke-dasharray:none;stroke-dashoffset:0;marker:none;visibility:visible;display:inline;overflow:visible;enable-background:accumulate"
       id="path3674"
       d="m 394.53234,112.14124 c 7.24706,-0.29853 14.40794,0.99224 21.5921,1.73889 9.31241,1.71825 18.70284,2.91746 28.07431,4.25838 12.41028,1.72683 24.94415,2.13273 37.4539,2.42668 12.2119,-0.22697 24.5282,0.92366 36.71035,-0.14933 12.06029,-0.74099 24.08675,-2.17548 35.98639,-4.26774 9.28787,-1.41979 18.40372,-3.70746 27.64673,-5.36024 7.05401,-1.6924 14.15367,-3.07686 21.36963,-3.82949 5.85012,-1.18976 11.69127,-2.30227 17.63569,-2.89072 5.25867,-0.43083 10.53817,-0.48851 15.81145,-0.5183 4.79632,0.0221 9.71543,-1.18377 13.24444,2.57309 3.01513,4.19795 2.61306,9.81662 2.75508,14.75162 0.19716,13.4935 -2.66955,26.82566 -4.60153,40.12984 -3.57473,21.61421 -5.85199,43.39536 -8.20856,65.16459 -2.68289,21.63739 -3.19418,43.45339 -2.01583,65.20631 0.78539,12.87585 2.80988,25.66679 5.87323,38.18977 1.02165,4.59398 2.7613,9.01559 5.17834,13.05246 -0.93712,1.55907 -7.65259,-2.62458 -9.35483,-3.15021 -0.68075,-0.25918 -1.35689,-0.53077 -2.04223,-0.77755 -2.32863,-0.83847 -4.85421,-1.72477 -7.32482,-2.01559 -3.6479,-0.4294 -3.40338,-0.37496 -2.34703,0.085 -5.09084,0.89033 -9.29962,3.59354 -12.85026,7.24672 -4.4552,4.9445 -6.72576,11.24381 -8.60155,17.518 -2.05431,6.76346 -4.20286,13.65495 -4.24294,20.7758 -0.044,5.45394 3.24634,8.34164 7.85146,10.51258 4.82635,1.88087 7.10837,1.7577 11.50345,0.9388 1.07498,-0.23607 7.17513,-1.29714 4.81648,-1.05569 -4.2327,-0.3779 -3.89348,0.4021 -8.62332,1.93355 -7.1017,2.51964 -13.14112,7.02031 -18.51347,12.19859 -5.4656,5.49449 -10.00953,11.76533 -12.88746,18.96793 -2.22153,5.35984 -1.47863,10.08526 0.28515,15.37662 2.20592,5.12666 6.47462,8.5228 10.76691,11.82762 3.69961,2.6122 7.978,3.96603 12.41326,4.61013 0.22857,-0.30711 5.00299,0.60005 3.5131,0.75747 -1.23392,0.13038 -2.48157,-0.006 -3.72236,-0.009 -0.47817,-0.004 -1.01987,-0.24987 -1.4345,-0.0117 -0.28068,0.16124 1.16898,0.0978 0.92148,0.30639 -1.26667,1.06768 -3.13994,1.0676 -4.66306,1.71914 -2.56445,1.09698 -2.89005,1.38452 -5.36248,2.80556 -6.67096,3.88704 -11.40684,9.77643 -15.53502,16.15887 -3.44051,5.16043 -6.39284,10.56413 -6.472,16.85358 0.77372,4.42897 4.51395,7.11135 8.42636,8.74279 3.3421,1.24952 6.91051,1.46356 10.44045,1.55284 -3.20607,0.049 4.25382,-2.11363 4.93344,-2.33003 2.11395,-0.56052 4.3258,-0.55268 6.49796,-0.59502 6.29086,-0.31536 5.56687,2.96821 5.16554,7.70954 -1.33777,10.99636 -2.08322,22.04897 -3.10101,33.079 -1.73147,20.302 -2.0295,40.68719 -2.29396,61.04967 -1.0405,24.89848 -2.01505,49.79515 -2.54469,74.71046 -0.80317,22.08761 -0.2529,44.14019 0.81478,66.20196 0.50385,14.27075 2.03539,28.49086 4.39991,42.56691 1.19967,7.86956 3.30238,15.55772 4.85943,23.35829 0.75769,4.01163 1.22401,7.93166 0.18343,11.89955 -1.04753,3.49051 -3.31786,6.5203 -5.58402,9.32388 -2.26632,3.23085 -4.63123,6.37283 -7.19852,9.37076 -3.02155,3.0705 -6.6534,4.79963 -10.62673,6.24975 -6.65216,2.44387 -13.76854,2.64105 -20.71711,3.54804 -12.47221,2.0329 -25.05057,2.22176 -37.64299,1.70073 -15.14442,-1.03297 -30.26442,-1.31184 -45.42476,-0.73751 -17.77785,0.7099 -35.49044,2.57613 -53.17026,4.50899 -16.09578,1.90483 -32.03263,4.83326 -47.97182,7.72157 -12.2367,2.24642 -24.28402,5.23726 -36.26208,8.56148 -5.86126,1.35805 -11.57342,5.25799 -17.73949,5.26191 -1.85705,10e-4 -3.70703,-0.22918 -5.56055,-0.34377 0,0 2.77441,-0.40472 2.77441,-0.40472 l 0,0 c 0.0531,1.27816 -0.0873,0.63608 2.91166,0.0399 5.11147,-1.01613 9.89237,-3.47865 14.8779,-4.91118 11.99706,-3.31901 24.05528,-6.33461 36.31025,-8.58016 15.94969,-2.88338 31.89337,-5.82542 47.99805,-7.73696 17.68183,-1.93284 35.3953,-3.80941 53.1748,-4.52752 16.94286,-0.65372 33.85577,-0.38122 50.77834,0.7321 10.78295,0.43092 21.52123,0.0861 32.19942,-1.68301 6.92835,-0.92923 14.03242,-1.08032 20.67749,-3.49191 3.9476,-1.43808 7.56781,-3.0784 10.59903,-6.10782 2.57554,-2.98932 4.94979,-6.12333 7.20193,-9.36327 2.2632,-2.75184 4.50032,-5.7708 5.57182,-9.20413 1.04112,-3.92409 0.57896,-7.79966 -0.16604,-11.77201 -1.5248,-7.80659 -3.62263,-15.49593 -4.80473,-23.3675 -2.33556,-14.08954 -3.84002,-28.31933 -4.32102,-42.59961 -1.0473,-22.06851 -1.5696,-44.12761 -0.75938,-66.22029 0.52404,-24.91442 1.50938,-49.80987 2.52431,-74.70827 0.2518,-20.36888 0.52983,-40.75943 2.21874,-61.07097 0.99152,-11.02931 1.7152,-22.07954 3.01192,-33.07751 0.20153,-2.48917 0.39419,-2.73023 0.0246,-4.99273 -0.0767,-0.46956 -0.66416,-1.0147 -0.36059,-1.38106 0.5108,-0.61647 1.5324,-0.49589 2.23454,-0.88052 0.42661,-0.23369 -2.18171,0.30902 -1.45925,0.007 -2.16527,0.0345 -4.36764,0.0158 -6.48565,0.51798 -3.55352,1.00878 -6.57146,2.99239 -10.5418,2.4025 -3.53844,-0.10816 -7.11032,-0.35939 -10.44442,-1.65943 -3.97795,-1.7444 -7.70348,-4.53086 -8.44025,-9.07415 0.083,-6.34436 3.02545,-11.80196 6.50218,-17.0095 4.12989,-6.41337 8.86228,-12.35356 15.53372,-16.29131 5.03834,-2.9417 10.10302,-5.446 16.12554,-4.96937 -1.83388,0.006 -2.65317,0.85094 -5.38942,0.0931 -4.44554,-0.69655 -8.72332,-2.09967 -12.41541,-4.75356 -4.32197,-3.33826 -8.58721,-6.81593 -10.77652,-11.99362 -1.78086,-5.35427 -2.507,-10.15385 -0.27236,-15.5728 2.88048,-7.24227 7.43259,-13.5491 12.91111,-19.08422 5.35815,-5.22134 11.40634,-9.75085 18.50572,-12.32709 4.64439,-1.51367 9.27712,-2.70755 14.21477,-1.98675 2.44593,0.93403 -4.26424,1.73511 -4.8417,1.84814 -5.75687,1.10744 -11.56716,1.25316 -17.08497,-1.01252 -4.654,-2.28006 -7.91568,-5.29794 -7.86185,-10.8294 0.0644,-7.14742 2.19559,-14.06242 4.25625,-20.85464 1.87967,-6.31125 4.14618,-12.65269 8.59376,-17.65126 3.52554,-3.72825 7.77107,-6.45629 12.86787,-7.4545 6.09984,-0.18687 11.67657,0.10407 17.29236,2.7747 1.54061,0.50475 9.01596,3.00129 3.72223,3.65676 -2.3744,-4.08133 -4.11234,-8.52004 -5.11463,-13.13761 -3.02947,-12.54395 -5.01787,-25.35231 -5.78073,-38.24157 -1.14308,-21.76856 -0.61965,-43.59737 2.05976,-65.24895 2.35321,-21.77033 4.61519,-43.55408 8.15275,-65.17474 1.90433,-13.28829 4.75002,-26.60896 4.50447,-40.08287 -0.15477,-4.86463 0.24534,-10.43434 -2.78342,-14.54305 -2.8012,-2.8008 -5.60404,-2.40672 -7.6523,-2.35166 -5.27484,0.0259 -10.55564,0.076 -15.81699,0.49137 -5.9483,0.57002 -11.79815,1.6496 -17.64149,2.88836 -7.22075,0.73106 -14.32956,2.08677 -21.3805,3.80723 -9.25694,1.63384 -18.37886,3.9391 -27.67746,5.35617 -11.90418,2.11572 -23.94286,3.53866 -36.00975,4.29819 -14.03335,0.53438 -28.0749,0.36834 -42.11581,0.15776 -12.5164,-0.30096 -25.05647,-0.71808 -37.47202,-2.4568 -9.37952,-1.34268 -18.77658,-2.54866 -28.10126,-4.24381 -7.19596,-0.7552 -14.37243,-2.01872 -21.63284,-1.70316 0,0 2.7899,-0.44188 2.7899,-0.44188 z" />
    <path
       style="color:#000000;fill:#000000;fill-opacity:1;stroke:#000000;stroke-width:1.5;stroke-linecap:butt;stroke-linejoin:miter;stroke-miterlimit:4;stroke-opacity:1;stroke-dasharray:none;stroke-dashoffset:0;marker:none;visibility:visible;display:inline;overflow:visible;enable-background:accumulate"
       id="path3676"
       d="m 654.67086,107.78419 c -2.29971,2.56149 -6.05686,5.56307 -5.42212,9.3325 2.71748,4.44902 8.08131,6.58242 12.73521,8.39141 10.42806,3.47392 21.23964,4.83656 32.14162,5.70503 16.67437,0.97887 33.38775,0.93926 50.08456,0.98383 16.55523,-0.0223 33.08196,-1.38003 49.62155,-2.09307 14.24197,-1.13712 28.46652,-2.41006 42.73699,-3.1404 7.82032,-0.37997 15.64917,-0.51578 23.47767,-0.55847 4.49551,-0.0142 8.99105,-0.002 13.48654,0.0119 2.18824,0.97043 3.24532,3.24734 3.94058,5.40154 0.82938,6.50721 1.62535,13.04399 2.34619,19.5791 1.39166,12.76257 1.31491,25.55891 0.64674,38.35517 -0.78331,16.61105 -2.95481,33.12446 -5.47892,49.54958 -2.32779,16.63395 -5.62354,33.13826 -9.60798,49.45195 -3.70735,15.68758 -7.50765,31.35023 -10.99118,47.09021 -2.35664,11.78824 -4.89333,23.51961 -6.35179,35.46027 -0.79497,5.87453 -1.16261,11.60131 0.32705,17.36573 1.05499,2.52169 1.00137,3.55992 -1.85879,3.94479 -5.48918,1.3286 -10.83234,3.19666 -16.11064,5.19008 -9.55439,3.89867 -18.5744,8.95075 -27.88884,13.3778 -5.64727,3.67917 -12.5086,5.55135 -17.44604,10.256 -1.06267,3.81077 5.66301,5.05719 8.25505,5.8088 8.83609,2.76517 18.09724,3.75214 27.2165,5.17188 10.98164,1.66258 22.08697,2.14038 33.17424,2.44446 8.68912,0.25246 17.48092,0.94927 26.02704,2.60701 4.3654,1.1044 8.72041,2.21656 13.16677,2.94162 3.22913,1.51598 0.0645,2.70911 -1.69757,3.40054 -6.76361,2.19957 -13.41735,4.71764 -20.19107,6.88369 -11.72658,3.9763 -23.50606,7.77902 -35.24563,11.72157 -11.03752,3.94543 -22.06032,7.94534 -32.87794,12.46394 -5.4417,3.23403 -12.15327,3.55006 -17.76109,6.19137 -1.56744,2.19548 6.4629,3.74659 7.63846,4.00181 8.94372,1.08556 17.86395,2.30263 26.84467,3.08116 13.71877,0.89995 27.47392,1.01213 41.21705,1.11829 10.56797,-0.64162 20.73265,1.79056 30.78823,4.67317 6.32513,2.03413 12.41206,4.73743 18.10791,8.15885 2.49007,1.60397 5.59448,2.9763 2.0237,5.20216 -6.99992,2.51515 -14.30247,4.06366 -21.4886,5.94737 -12.34859,2.96382 -24.65416,6.00274 -37.05621,8.74428 -10.2432,2.47781 -20.76272,3.24549 -31.06969,5.33937 -1.15224,0.72492 -9.06855,0.69545 -8.58933,2.82324 3.164,2.24807 6.74602,3.8731 10.36769,5.23776 7.07029,2.82636 14.43077,4.72325 21.73006,6.82286 8.16214,2.57754 16.71708,3.00594 25.11796,4.25504 5.98278,1.04422 11.97901,1.95179 18.02361,2.54404 4.44803,-0.009 3.05132,1.51026 -0.0836,2.4132 -5.25313,0.99097 -10.38088,2.53954 -15.52975,3.9592 -7.50058,2.38683 -14.81116,5.33952 -22.07423,8.3647 -5.31539,2.24232 -10.70525,4.32951 -15.21844,7.99563 -3.58321,4.09973 -2.97869,10.06068 -3.11187,15.15308 0.23176,15.94265 -0.60651,31.84769 -1.34677,47.76619 -1.08743,20.67996 -2.21055,41.37946 -3.83088,62.02688 -1.53065,16.62641 -2.52261,33.29144 -3.05713,49.97766 -0.89339,12.11556 -1.92577,24.21169 -3.48413,36.25946 -0.89456,8.48326 -1.90041,16.89903 -3.63028,25.2538 -0.52209,4.48292 -2.30105,7.88955 -6.60882,9.44744 -7.08479,1.18669 -14.39294,0.78064 -21.5525,0.7692 -9.02111,0.24757 -18.0304,1.39673 -27.06188,1.96094 -11.33211,0.62252 -22.68378,0.70603 -34.02984,0.7712 -11.26438,0.36064 -22.38492,2.04647 -33.51917,3.63287 -7.9039,0.9066 -15.63738,2.8129 -23.49002,4.05938 -4.24833,0.63862 -8.54264,0.83801 -12.83251,0.91154 -2.42785,0.15448 -4.90846,-0.23813 -7.32376,0.012 -0.43989,0.0455 1.33668,-0.13414 1.29102,0.30574 -10e-4,0.0133 -1.94506,0.63602 -2.85325,0.92815 -3.66466,1.93994 -6.60829,4.90806 -9.42366,7.90003 -1.46028,1.5958 -3.15302,2.50477 -5.16327,3.16463 0,0 -2.80053,-0.35855 -2.80053,-0.35855 l 0,0 c 2.02661,-0.57713 3.68869,-1.43899 5.15795,-3.01816 2.8379,-3.02275 5.78418,-5.99246 9.42439,-8.04348 5.01709,-1.60122 5.56622,-1.29626 8.90126,-1.32766 4.29438,-0.0633 8.59389,-0.24602 12.84892,-0.8692 7.87111,-1.22984 15.61747,-3.14359 23.53515,-4.05713 11.14109,-1.58022 22.26303,-3.28691 33.53271,-3.66856 11.34362,-0.063 22.69279,-0.14288 34.02286,-0.75658 10.84427,-0.67022 21.6526,-2.09583 32.52953,-1.98132 5.32774,0.0422 10.73646,0.20435 16.00486,-0.68417 4.31716,-1.40586 6.09291,-4.71231 6.61255,-9.15598 1.76201,-8.34376 2.77197,-16.75454 3.68132,-25.23149 1.55985,-12.03938 2.59601,-24.12687 3.5061,-36.233 0.55784,-16.69052 1.57973,-33.35882 3.11343,-49.98974 1.63433,-20.64343 2.76092,-41.34034 3.8344,-62.01811 0.72043,-15.91687 1.5355,-31.82091 1.23644,-47.76075 0.11767,-5.18108 -0.49565,-11.18134 3.07901,-15.39567 4.51862,-3.71459 9.91453,-5.83645 15.27185,-8.07153 7.25731,-3.03824 14.56993,-5.98191 22.05843,-8.40237 5.1408,-1.40929 10.25153,-2.99897 15.49832,-3.96368 3.03869,-0.78708 4.39594,-1.50337 0.0965,-1.63231 -6.03052,-0.60866 -12.01206,-1.53236 -17.98437,-2.56299 -8.4093,-1.2216 -16.95834,-1.71268 -25.12195,-4.29184 -7.31508,-2.08902 -14.67619,-4.02507 -21.76134,-6.84273 -3.61986,-1.39152 -7.48951,-2.94636 -10.4274,-5.52386 -0.45363,-2.93562 6.98322,-2.31426 8.67542,-3.25535 10.32309,-2.10472 20.85841,-2.86267 31.12263,-5.32739 12.39135,-2.74422 24.69014,-5.76438 37.02633,-8.73737 7.15554,-1.8881 14.40955,-3.46285 21.4109,-5.88201 3.6066,-1.89979 0.1757,-3.09556 -2.00551,-4.61636 -5.69461,-3.37786 -11.74317,-6.0975 -18.06075,-8.09153 -10.04149,-2.87375 -20.19642,-5.23558 -30.74323,-4.60424 -13.7491,-0.11274 -27.51043,-0.2278 -41.23464,-1.13751 -8.9983,-0.78786 -17.94394,-1.98311 -26.90156,-3.11004 -1.85759,-0.42275 -9.18914,-1.66046 -7.6702,-4.69454 5.53225,-2.80046 12.42404,-2.86589 17.82847,-6.20009 10.82537,-4.53145 21.86557,-8.52005 32.91059,-12.4798 11.72862,-3.94777 23.50344,-7.73457 35.21444,-11.72987 6.75754,-2.14696 13.37666,-4.69748 20.12609,-6.87188 1.46384,-0.59153 4.89087,-1.40188 1.70028,-2.66773 -4.42933,-0.74596 -8.76685,-1.87683 -13.12494,-2.95449 -8.54389,-1.61053 -17.3089,-2.33945 -25.99032,-2.56727 -11.08871,-0.31283 -22.19478,-0.805 -33.17628,-2.47946 -9.13802,-1.42466 -18.4148,-2.41929 -27.26724,-5.20184 -2.9079,-0.86715 -9.50701,-2.18406 -8.29455,-6.39499 4.93639,-4.77556 11.84254,-6.63215 17.52354,-10.33867 9.31533,-4.42236 18.33565,-9.46389 27.87078,-13.40239 5.26759,-2.0097 10.60241,-3.85154 16.06271,-5.26712 3.17087,-0.29487 2.8402,-0.59102 1.84298,-3.46272 -1.45685,-5.80708 -1.09689,-11.56252 -0.27419,-17.47001 1.48506,-11.94906 4.03875,-23.68822 6.4099,-35.4855 3.49918,-15.73852 7.28633,-31.40713 10.99765,-47.09592 3.99543,-16.3035 7.29076,-32.80175 9.61864,-49.42812 2.52129,-16.41569 4.68911,-32.92033 5.45678,-49.52256 0.65439,-12.7823 0.71873,-25.56491 -0.69935,-38.31029 -0.73984,-6.51504 -1.53552,-13.03618 -2.40417,-19.52016 -0.68175,-2.03451 -1.71045,-4.3388 -3.91599,-5.0487 -3.65206,-0.014 -5.77908,-0.0219 -7.91418,-0.017 -7.84814,0.0359 -15.69675,0.1628 -23.53705,0.53641 -14.28586,0.71824 -28.52617,1.97858 -42.78138,3.13573 -18.31088,0.7821 -36.60641,2.26867 -54.9437,2.10196 -16.7108,-0.046 -33.43867,-0.005 -50.12637,-0.99857 -10.92664,-0.88267 -21.76887,-2.26277 -32.21182,-5.7772 -4.71824,-1.86581 -10.18087,-4.04608 -12.79837,-8.67953 -0.58897,-3.90803 3.0021,-6.93017 5.4309,-9.59917 0,0 2.82087,0.22201 2.82087,0.22201 z" />
  </g>
</svg>
