<?xml version="1.0" encoding="UTF-8" standalone="no"?>
<!-- Created with Inkscape (http://www.inkscape.org/) -->

<svg
   xmlns:dc="http://purl.org/dc/elements/1.1/"
   xmlns:cc="http://creativecommons.org/ns#"
   xmlns:rdf="http://www.w3.org/1999/02/22-rdf-syntax-ns#"
   xmlns:svg="http://www.w3.org/2000/svg"
   xmlns="http://www.w3.org/2000/svg"
   xmlns:sodipodi="http://sodipodi.sourceforge.net/DTD/sodipodi-0.dtd"
   xmlns:inkscape="http://www.inkscape.org/namespaces/inkscape"
   width="1227.0704"
   height="587.49969"
   id="svg2934"
   version="1.1"
   inkscape:version="0.47pre4 r22446"
   sodipodi:docname="New document 4">
  <defs
     id="defs2936">
    <inkscape:perspective
       sodipodi:type="inkscape:persp3d"
       inkscape:vp_x="0 : 526.18109 : 1"
       inkscape:vp_y="0 : 1000 : 0"
       inkscape:vp_z="744.09448 : 526.18109 : 1"
       inkscape:persp3d-origin="372.04724 : 350.78739 : 1"
       id="perspective2942" />
  </defs>
  <sodipodi:namedview
     id="base"
     pagecolor="#ffffff"
     bordercolor="#666666"
     borderopacity="1.0"
     inkscape:pageopacity="0.0"
     inkscape:pageshadow="2"
     inkscape:zoom="0.35"
     inkscape:cx="402.54397"
     inkscape:cy="287.08646"
     inkscape:document-units="px"
     inkscape:current-layer="layer1"
     showgrid="false"
     inkscape:window-width="1280"
     inkscape:window-height="726"
     inkscape:window-x="0"
     inkscape:window-y="25"
     inkscape:window-maximized="1" />
  <metadata
     id="metadata2939">
    <rdf:RDF>
      <cc:Work
         rdf:about="">
        <dc:format>image/svg+xml</dc:format>
        <dc:type
           rdf:resource="http://purl.org/dc/dcmitype/StillImage" />
        <dc:title></dc:title>
      </cc:Work>
    </rdf:RDF>
  </metadata>
  <g
     inkscape:label="Layer 1"
     inkscape:groupmode="layer"
     id="layer1"
     transform="translate(27.543974,-231.94894)">
    <path
       style="color:#000000;fill:#000000;fill-opacity:1;stroke:#000000;stroke-width:1.5;stroke-linecap:butt;stroke-linejoin:miter;stroke-miterlimit:4;stroke-opacity:1;stroke-dasharray:none;stroke-dashoffset:0;marker:none;visibility:visible;display:inline;overflow:visible;enable-background:accumulate"
       id="path2944"
       d="m 19.352575,593.22189 c -8.031619,3.08202 -16.0835528,3.37473 -24.5370111,2.77897 -6.6110419,-0.84116 -11.6139839,-3.74544 -13.7100589,-10.19431 -0.558183,-10.92128 6.667146,-20.15872 13.0406194,-28.32901 10.4153037,-12.62956 23.5486816,-22.51807 37.6813236,-30.60033 8.891754,-4.30757 18.467621,-7.04168 28.42397,-5.05684 4.066013,0.81058 7.518386,3.54981 10.857234,5.73213 11.590108,9.67995 17.050815,23.30916 20.880694,37.49596 3.322703,16.16163 -0.03052,28.26562 -7.246842,42.66257 -9.530562,16.06644 -23.611437,27.77782 -39.255414,37.51094 -13.091663,6.90947 -27.738924,12.16601 -42.6409987,8.0583 -2.44633698,-0.67433 -4.5973649,-2.14974 -6.8960474,-3.2246 -13.2479419,-8.4947 -18.2724459,-22.69026 -22.7440179,-37.00601 0,0 2.725047,-0.0827 2.725047,-0.0827 l 0,0 c 4.469881,14.25936 9.499589,28.38645 22.7571197,36.77594 1.75601111,0.805 8.6398416,4.32743 11.4726923,4.56347 11.513424,0.95932 22.623233,-4.46826 32.608493,-9.36129 15.630435,-9.68316 29.692658,-21.33904 39.223508,-37.3621 7.202641,-14.32764 10.55123,-26.36731 7.241093,-42.46177 -3.828199,-14.12994 -9.277893,-27.70914 -20.884338,-37.29321 -13.563035,-8.7285 -19.021987,-7.26564 -33.783619,-0.66148 -14.132494,8.03115 -27.2565446,17.89474 -37.6671699,30.49374 -6.3140515,8.07781 -13.5213401,17.24721 -12.9771071,28.05667 2.117191,6.35202 7.1810339,9.07332 13.674293,9.87807 3.8173665,2.14125 14.72038,-1.64021 18.950225,-2.72551 0,0 2.806312,0.35236 2.806312,0.35236 z" />
    <path
       style="color:#000000;fill:#000000;fill-opacity:1;stroke:#000000;stroke-width:1.5;stroke-linecap:butt;stroke-linejoin:miter;stroke-miterlimit:4;stroke-opacity:1;stroke-dasharray:none;stroke-dashoffset:0;marker:none;visibility:visible;display:inline;overflow:visible;enable-background:accumulate"
       id="path2950"
       d="m 18.927233,644.57395 c 2.462882,-11.27131 5.215119,-22.47499 7.92496,-33.68959 4.037425,-15.87013 8.81596,-31.53937 13.402213,-47.25688 3.124355,-10.25846 6.249518,-20.46585 10.164244,-30.44737 0.363635,-1.72121 1.564778,-3.28117 1.901631,-5.01277 0.187137,-0.96198 -1.691521,-1.35729 1.167992,0.0971 -3.427407,2.26415 -6.385277,5.17541 -9.080932,8.2626 -3.437953,4.28262 -6.902257,8.54617 -10.33431,12.83591 -0.559133,0.67788 -3.044602,5.25581 -4.579769,2.53341 -0.234525,-0.41589 0.780424,-0.55081 1.15825,-0.84273 0.403896,-0.31206 0.79067,-0.64568 1.186004,-0.96852 2.961516,-2.59309 5.741629,-5.38381 8.529169,-8.16042 2.482032,-2.14714 5.041549,-4.15114 7.828683,-5.89126 5.51842,-1.10368 5.910657,2.45763 7.354039,6.37622 1.380331,4.66207 2.89143,9.28766 4.787472,13.76994 1.628627,3.15787 2.181241,6.95545 5.239294,9.08612 0,0 -2.826849,0.26624 -2.826849,0.26624 l 0,0 c -2.976455,-2.28186 -3.619216,-6.01558 -5.234006,-9.23969 -1.888195,-4.49073 -3.398764,-9.12056 -4.795247,-13.78277 -0.558075,-1.51712 -0.924034,-3.23115 -1.775805,-4.62157 -0.231354,-0.37766 -1.048006,-0.70204 -0.794328,-1.06508 0.369693,-0.52907 1.315412,-0.16098 1.875361,-0.48199 0.289696,-0.16608 -0.66773,-0.0126 -1.001595,-0.0189 -2.793713,1.71454 -5.347685,3.70029 -7.83486,5.8255 -2.792951,2.77908 -5.574712,5.57454 -8.525683,8.18774 -3.222743,2.66767 -9.190223,4.69746 -3.408427,-1.16232 3.423153,-4.30109 6.92376,-8.54018 10.337095,-12.84769 2.696545,-3.11316 5.651707,-6.04783 9.074388,-8.34993 7.246402,-1.43066 4.38042,-0.2836 2.566182,5.31044 -3.939527,9.97038 -7.114293,20.15823 -10.228132,30.41998 -4.595544,15.70949 -9.367588,31.37603 -13.393089,47.24402 -2.699344,11.20544 -5.447546,22.39894 -7.854884,33.67099 0,0 -2.829061,-0.0467 -2.829061,-0.0467 z" />
    <path
       style="color:#000000;fill:#000000;fill-opacity:1;stroke:#000000;stroke-width:1.5;stroke-linecap:butt;stroke-linejoin:miter;stroke-miterlimit:4;stroke-opacity:1;stroke-dasharray:none;stroke-dashoffset:0;marker:none;visibility:visible;display:inline;overflow:visible;enable-background:accumulate"
       id="path2952"
       d="m 47.498661,527.4311 c 2.206317,-8.62875 4.650211,-17.15805 6.273136,-25.92371 1.694845,-9.96221 3.269846,-19.88784 4.043636,-29.97089 1.289804,-10.43859 2.494632,-20.87628 3.151694,-31.37561 0.927573,-7.16941 2.188898,-14.2804 2.847229,-21.48327 0.811266,-5.29756 0.219284,-10.35246 -0.784635,-15.54472 -1.078285,-5.57233 -1.28426,-11.25931 -1.479375,-16.91684 0.331836,-4.86876 -0.844953,-9.5221 -1.847014,-14.23536 -0.761778,-3.57281 -0.973449,-7.21391 -1.08491,-10.8543 -0.07721,-3.90129 -0.05297,-7.80354 -0.04896,-11.70531 0.01022,-4.22673 0.01151,-8.45346 0.0148,-12.68019 -0.0026,-3.64981 9.34e-4,-7.29961 -0.0012,-10.94941 5.7e-5,-2.90587 4.25e-4,-5.81174 -0.0053,-8.71761 1.433847,-3.16969 6.308227,-1.00004 8.873965,-0.35787 3.769734,0.83868 7.629412,0.96682 11.473584,1.07422 5.636093,0.0904 11.273296,0.0857 16.909964,0.0808 9.127395,0.27978 18.177835,-0.10085 27.183885,-1.62327 10.03548,-1.64578 20.04753,-3.45726 30.10602,-4.96141 9.98634,-1.02708 19.90653,-2.58269 29.8889,-3.64917 10.00369,-0.77666 19.94088,-2.26517 29.80852,-4.05637 9.43843,-2.0326 18.80825,-4.39621 28.27311,-6.29982 8.8732,-2.37979 17.9744,-3.63946 26.98531,-5.3583 8.47917,-1.90736 16.88806,-4.08388 25.34129,-6.09719 6.91374,-2.11429 14.05397,-3.27191 20.98047,-5.31724 4.74893,-1.55901 9.70125,-2.16174 14.66369,-2.50233 4.68333,-0.31446 9.33978,-0.2153 14.00869,0.18958 2.83492,0.86589 3.55267,3.45924 3.9299,6.09802 0.31828,4.99944 0.19047,10.01886 0.16961,15.02582 -0.0384,9.04678 -0.0512,18.09365 -0.0606,27.14051 0.095,10.31745 -1.32696,20.57122 -2.07436,30.84911 -0.46417,8.61226 -2.02998,17.10694 -2.84642,25.68983 -0.63044,9.47853 -2.71077,18.77516 -4.1733,28.1442 -1.74863,10.26959 -3.94973,20.44621 -5.88355,30.67942 -1.95727,7.44539 -3.48664,14.98488 -4.44426,22.62263 -0.953,4.57838 -2.24165,9.07376 -2.94375,13.70173 -0.4161,3.38922 -0.47149,6.80605 -0.49609,10.21603 0.20574,1.12208 0.9346,2.33196 2.1054,2.71909 0.39442,0.13041 1.64646,0.17298 1.24439,0.0685 -1.56107,-0.40571 -2.54975,0.24959 -0.11693,-0.73015 4.13153,-1.99412 1.16023,-2.58385 4.44343,-2.29355 -3.20938,0.64075 -6.11528,2.1504 -9.24569,3.06495 -3.50838,1.60744 -7.15979,2.84199 -10.66184,4.45697 -1.69278,1.25825 -6.41413,2.59095 -5.38186,5.38143 2.22986,1.94659 5.23145,2.18451 8.05761,2.40861 0.35491,0.17004 12.46757,0.18032 9.08991,0.16434 5.1384,-0.21243 10.19638,0.0533 15.1925,1.2985 3.85467,0.48722 7.46252,1.55222 11.13064,2.76916 2.00122,1.19998 7.3611,0.0457 8.1655,2.52169 -1.39884,2.94119 -5.57235,4.35337 -8.28154,5.86166 -6.14345,3.05608 -12.33964,6.02012 -18.60584,8.82042 -6.884,3.0582 -13.68567,6.29244 -20.53139,9.43366 -3.63541,1.89627 -8.04559,3.19701 -11.02343,6.13981 -0.67239,2.62569 3.5764,3.99037 5.46112,4.61383 3.21836,0.64226 6.58048,1.3189 9.88556,1.21691 0.96146,-0.0297 1.86049,-0.50857 2.81257,-0.64579 6.8994,-1.13551 13.87375,-1.56934 20.85093,-1.84958 7.59969,-0.22883 15.20372,-0.22489 22.80608,-0.2309 4.93953,0.2666 12.70265,-0.80326 16.49498,3.35201 1.09735,4.35593 -4.02063,6.53739 -7.04255,8.44482 -7.8828,4.2871 -16.10251,8.09348 -24.40673,11.51386 -10.37959,4.23237 -20.89308,8.16323 -31.14271,12.70433 -7.56926,3.27385 -15.36726,6.02981 -22.77819,9.65721 -0.0346,0.16037 -4.58267,1.9902 -4.16288,2.66732 0.2667,0.43018 0.96131,0.32604 1.41578,0.54885 4.5829,1.79054 9.55659,2.01381 14.41202,2.28978 7.40052,0.76189 14.63237,-0.21532 21.97144,-0.98592 9.49119,-1.76174 19.07632,-2.81282 28.55621,-4.6278 6.96423,-1.50462 13.90377,-2.45051 21.01568,-2.18193 2.82701,0.20034 4.23619,1.61177 6.13485,3.395 0.95882,0.86151 3.90611,0.8318 2.75625,2.40486 -3.35222,1.91413 -6.59633,3.99852 -9.87379,6.03684 -4.23814,2.7212 -8.3398,5.67304 -12.73931,8.13443 -4.11963,1.43144 -7.57559,4.10731 -11.41286,6.07486 -3.25969,1.54403 -6.59894,3.01543 -9.48947,5.19342 -2.43301,1.78485 -2.58133,4.7846 -2.77321,7.55941 -0.16471,5.00968 -0.0908,10.02413 -0.0764,15.03568 0.0236,7.11779 0.0321,14.23562 0.0342,21.35345 -0.77716,7.90591 -1.7963,15.77554 -2.33662,23.70427 -0.42117,6.82514 -0.48826,13.66421 -0.52619,20.49998 -0.018,6.50833 -0.003,13.0167 0.005,19.52504 0.007,5.81603 0.009,11.63207 0.01,17.4481 0.003,4.08369 0.008,8.16737 0.008,12.25106 -0.17885,3.31769 0.39602,6.72079 -0.34109,9.9764 -0.85236,3.71355 -3.78173,5.86633 -6.72461,7.94099 -5.53152,3.36625 -11.80743,5.03348 -18.11939,6.17295 -11.10157,2.59331 -22.49839,3.09764 -33.80084,4.19014 -16.12397,1.33277 -32.23979,2.76935 -48.37065,4.02825 -19.18165,0.97386 -38.24255,3.37053 -57.35578,5.14468 -18.71358,2.24604 -37.5039,3.68297 -56.26085,5.49384 -17.854933,1.80343 -35.542628,4.71579 -53.142189,8.17921 -12.207445,2.89017 -24.493189,5.73829 -36.360249,9.84966 -2.591401,0.66795 -7.621641,4.11711 -9.85711,0.64832 -0.233679,-0.36261 1.41523,-3.52228 1.421998,-3.53626 2.840685,-4.06339 3.457791,-8.83644 4.515939,-13.53671 1.861899,-8.05116 3.77787,-16.09054 5.613225,-24.15261 1.95757,-7.42372 2.087385,-15.12985 3.281359,-22.66371 1.480615,-7.39531 2.070581,-14.89327 2.400646,-22.41324 -0.08491,-10.61614 0.699077,-21.15864 1.609036,-31.72517 0.843401,-9.76104 1.238678,-19.54958 1.440788,-29.34218 0.1123,-6.60306 0.104737,-13.20727 0.09902,-19.81103 -0.0057,-4.21383 -0.01293,-8.42766 -0.0276,-12.64147 -0.44354,-2.28592 -1.588963,-4.33947 -2.069306,-6.71026 0,0 2.833407,-0.0574 2.833407,-0.0574 l 0,0 c 0.495073,2.37961 1.705509,4.44023 2.077056,6.76729 -0.0042,4.21388 6.24e-4,8.42776 0.0042,12.64164 0.0033,6.60583 0.0061,13.21215 -0.114816,19.81715 -0.212955,9.79878 -0.616489,19.59278 -1.461024,29.36012 -0.907674,10.5627 -1.689948,21.10108 -1.592569,31.7134 -0.321471,7.53105 -0.903693,15.03931 -2.385555,22.44559 -1.207032,7.53842 -1.336548,15.25256 -3.299772,22.68174 -1.829785,8.06171 -3.744395,16.09997 -5.592418,24.15244 -1.060088,4.7168 -1.64253,9.52803 -4.50524,13.60278 -2.172747,4.4184 0.194397,2.2814 -4.468538,4.63725 -0.406345,0.2053 0.889282,-0.19634 1.330228,-0.30961 3.19202,-0.81996 2.360086,-0.62681 5.967782,-1.91338 11.87844,-4.14695 24.201983,-6.95646 36.422994,-9.88059 17.601769,-3.47323 35.292765,-6.39052 53.150398,-8.20527 18.76176,-1.80978 37.55712,-3.24238 56.27497,-5.49279 19.1091,-1.7675 38.16374,-4.18062 57.34092,-5.15094 16.12242,-1.25398 32.22828,-2.70209 48.34406,-4.02687 11.28661,-1.10543 22.6754,-1.57054 33.76123,-4.17352 6.29435,-1.10771 12.54086,-2.75079 18.0804,-6.05381 2.88889,-2.02784 5.85222,-4.08545 6.7026,-7.73522 0.76476,-3.22437 0.14727,-6.62071 0.34264,-9.91182 -2e-5,-4.08366 0.006,-8.16733 0.007,-12.251 -8.3e-4,-5.81595 -0.002,-11.63191 -0.007,-17.44786 -0.006,-6.50892 -0.0167,-13.01785 -8.3e-4,-19.52676 0.0313,-6.84183 0.11071,-13.68673 0.53398,-20.51765 0.54114,-7.9222 1.55444,-15.78578 2.33501,-23.68498 -0.007,-7.11754 -0.013,-14.2351 -0.044,-21.35259 -0.0233,-5.01824 -0.0958,-10.03928 0.0586,-15.05594 0.1884,-2.82665 0.33594,-5.95055 2.7823,-7.80086 2.88095,-2.2147 6.2189,-3.7138 9.50219,-5.244 3.85936,-1.92654 7.273,-4.67906 11.4153,-6.06383 4.4167,-2.42673 8.50434,-5.40066 12.74039,-8.11969 3.25315,-2.03592 6.46188,-4.15479 9.84188,-5.97278 1.13541,-0.73948 -2.28195,-1.25418 -2.7505,-1.95206 -1.86227,-1.7645 -3.34066,-3.03214 -6.09684,-3.20801 1.3608,-0.44172 1.00542,-0.27774 -2.00411,0.0357 -4.51317,0.46998 -8.9851,1.28817 -13.44356,2.11318 -9.48278,1.82109 -19.07041,2.86496 -28.56132,4.65101 -9.15185,0.96211 -18.31274,1.68619 -27.51979,1.00151 -4.87497,-0.28857 -9.87751,-0.52825 -14.45479,-2.3999 -3.31402,-1.6901 1.14951,-2.79343 2.76996,-3.84386 7.41732,-3.64169 15.22725,-6.39682 22.81222,-9.66407 10.24431,-4.55556 20.76492,-8.47326 31.14284,-12.7122 8.29598,-3.39562 16.48849,-7.22245 24.37195,-11.46896 2.78698,-1.7547 8.02927,-3.86729 7.0175,-7.94586 -2.69897,-2.71569 -7.27358,-2.79069 -10.89434,-3.12841 -7.60136,0.004 -15.20428,-1.5e-4 -22.80317,0.22032 -6.97163,0.27152 -13.9424,0.68688 -20.83641,1.82146 -6.0928,0.9133 -12.30096,0.91385 -18.29734,-0.62082 -2.14748,-0.75522 -6.26235,-2.24652 -5.48448,-5.18397 2.88613,-3.05725 7.4384,-4.31869 11.06232,-6.24055 6.85434,-3.12838 13.65005,-6.38225 20.53907,-9.43571 6.26572,-2.77839 12.43663,-5.77473 18.58568,-8.79703 2.72267,-1.52568 6.40551,-2.84825 8.23974,-5.46243 -0.93457,-2.17205 -6.29487,-0.9688 -8.12916,-2.26917 -3.65909,-1.22873 -7.29292,-2.19682 -11.1253,-2.74716 -1.34885,-0.33181 -2.8527,-0.24965 -4.06093,-0.93497 -0.24025,-0.13627 1.03489,-0.24871 0.76663,-0.31446 -1.9776,-0.48472 -4.29066,0.388 -6.29589,0.0184 -4.89563,0.005 -9.7976,0.0749 -14.68843,-0.18689 -2.87818,-0.25572 -5.99513,-0.52554 -8.09884,-2.73684 -0.9519,-3.13857 3.37042,-4.35756 5.4116,-5.79415 3.50528,-1.63268 7.1698,-2.84428 10.66852,-4.5003 3.14537,-0.88463 6.03611,-2.40561 9.23479,-3.09223 6.16879,-0.29817 4.99704,0.69837 1.19121,3.015 -3.21709,1.46985 -7.99525,1.7503 -8.88721,-2.38932 0.0299,-3.42352 0.085,-6.85336 0.50144,-10.25633 0.69954,-4.62725 1.99589,-9.11941 2.95832,-13.69448 0.96801,-7.64269 2.50221,-15.18988 4.46724,-22.6396 1.94026,-10.22982 4.14736,-20.40257 5.89557,-30.67014 1.45602,-9.36377 3.51828,-18.65613 4.15241,-28.12783 0.81903,-8.58111 2.38553,-17.07326 2.85685,-25.68348 0.74795,-10.27128 2.18258,-20.51774 2.07866,-30.82903 0.004,-9.04709 0.0114,-18.09417 0.0385,-27.14122 0.0119,-4.99308 0.13225,-9.99913 -0.19733,-14.98393 -0.38123,-2.57959 -1.09996,-4.99713 -3.90188,-5.75739 0.42255,-0.10496 1.62959,-0.0729 1.26764,-0.31489 -0.84581,-0.56544 -8.25202,0.39873 -9.67007,0.1675 -4.95994,0.32005 -9.91599,0.89041 -14.66514,2.43893 -6.9293,2.06244 -14.07617,3.20553 -20.99449,5.33106 -8.46082,1.99964 -16.87068,4.18876 -25.35131,6.10839 -9.01135,1.719 -18.11539,2.96767 -26.98691,5.35554 -9.46988,1.88544 -18.83989,4.25913 -28.2767,6.30432 -9.86885,1.79552 -19.80578,3.30708 -29.81244,4.07666 -9.98435,1.05428 -19.90171,2.62853 -29.89061,3.63707 -10.05843,1.49172 -20.06622,3.3175 -30.10087,4.95607 -9.00103,1.55774 -18.04979,1.95901 -27.178179,1.67196 -7.490912,0.002 -14.982783,0.0343 -22.473011,-0.0855 -3.852827,-0.11553 -7.721653,-0.26082 -11.493532,-1.13399 -0.899132,-0.2302 -1.786483,-0.50627 -2.689501,-0.72071 -0.412038,-0.0978 -1.620718,-0.0409 -1.247432,-0.24094 3.52788,-1.89031 1.084021,0.54395 0.720024,0.94527 -0.0056,2.90587 -0.0052,5.81174 -0.0051,8.71762 -0.0022,3.64984 0.0013,7.29969 -0.0045,10.94953 -8.68e-4,4.22684 -0.0068,8.45367 -0.01267,12.68051 -0.0084,3.89868 -0.02319,7.79795 0.05178,11.69611 0.112793,3.62339 0.322193,7.24775 1.080643,10.80401 0.997246,4.72989 2.17163,9.40067 1.838318,14.28478 0.190804,5.6435 0.398603,11.31526 1.482789,16.87249 1.009898,5.21844 1.587033,10.30171 0.776821,15.62442 -0.66123,7.20103 -1.926803,14.3092 -2.868226,21.47513 -0.665787,10.50045 -1.874723,20.93899 -3.164941,31.37921 -0.766677,10.09388 -2.330041,20.02972 -4.034053,30.00081 -1.622597,8.76142 -4.057038,17.28802 -6.235457,25.91932 0,0 -2.829062,-0.0467 -2.829062,-0.0467 z" />
    <path
       style="color:#000000;fill:#000000;fill-opacity:1;stroke:#000000;stroke-width:1.5;stroke-linecap:butt;stroke-linejoin:miter;stroke-miterlimit:4;stroke-opacity:1;stroke-dasharray:none;stroke-dashoffset:0;marker:none;visibility:visible;display:inline;overflow:visible;enable-background:accumulate"
       id="path2954"
       d="m 343.50695,283.25078 c 7.62614,-1.27863 15.33847,-1.82481 23.05254,-2.20823 8.56979,-0.33751 17.14796,-0.33268 25.7229,-0.34646 9.53059,-0.87992 19.11412,-1.42445 28.60768,-2.65043 6.95491,-1.0869 13.92225,-2.08618 20.93358,-2.72535 2.54275,-0.18924 5.09092,-0.32095 7.64082,-0.35054 2.32315,-0.4981 2.93529,-2.83741 4.00171,-4.69458 1.48009,-3.37903 3.66791,-6.32028 6.29874,-8.88347 2.42783,-2.83327 5.1284,-5.37283 7.98654,-7.76502 2.88023,-2.28669 5.94214,-4.34648 8.93681,-6.49166 3.87238,-2.52068 8.15105,-4.22888 12.30398,-6.21185 4.68813,-2.27788 9.25243,-2.75401 14.37979,-2.56665 3.72771,1.27461 6.38562,3.60051 8.23498,7.02104 1.30745,3.21265 1.2541,6.68916 1.30714,10.09654 0.0126,4.05017 -0.0269,8.10029 -0.0453,12.1504 0.23121,1.52725 -0.28793,3.19069 -0.0143,4.71151 0.0399,0.22199 0.56667,0.58373 0.34111,0.58441 -2.86328,0.009 -2.23687,-0.32304 -1.47689,-1.46924 2.16026,-3.5109 4.66614,-6.84522 7.22828,-10.08318 3.19597,-3.87146 6.67484,-7.49318 10.18657,-11.07578 3.60042,-3.4876 7.61467,-6.37386 11.82579,-9.06739 5.04109,-3.83739 7.23557,-4.51994 13.52304,-3.92326 2.60725,1.26712 4.04899,4.26079 5.23364,6.80393 1.17475,3.4971 1.41964,7.12777 2.47304,10.65754 1.09148,3.06192 1.65153,6.25342 1.92557,9.48101 0.17217,2.87348 0.1723,5.75281 0.18897,8.6302 -7e-5,0.0913 -1.4e-4,0.18264 -2.1e-4,0.27396 -0.7224,-0.38597 -1.78966,-0.43106 -2.16718,-1.15791 -0.23459,-0.45166 0.64358,-0.78937 0.94141,-1.20208 1.16114,-1.60903 1.9467,-3.41485 2.85194,-5.17342 2.04791,-4.73719 4.89302,-9.06359 7.9367,-13.21197 3.27789,-3.97339 6.55631,-8.0553 10.5293,-11.36003 4.1472,-4.27099 6.88103,-4.78362 12.68918,-4.69674 3.05303,1.35548 4.26854,5.03768 5.46219,7.94805 1.19188,3.26916 1.53903,6.70783 1.68956,10.15607 0.10709,3.53896 0.0728,7.08047 0.0628,10.62056 0.43283,2.74167 -0.7978,6.04488 0.32317,8.63324 0.15533,0.0517 0.62448,0.19617 0.46598,0.15517 -0.70609,-0.18263 -1.67198,0.003 -2.10964,-0.5803 -0.27683,-0.36902 0.58948,-0.71049 0.86224,-1.08254 1.03161,-1.40713 1.57246,-2.79199 2.10688,-4.44263 1.52305,-4.11968 2.98479,-8.23418 5.19133,-12.0451 2.02062,-3.59433 5.13635,-6.35382 7.57007,-9.63039 2.18823,-3.04956 4.72628,-5.40084 7.90288,-7.35485 3.94123,-2.35612 7.80736,-4.39362 12.29048,-5.49579 5.06911,-1.00744 10.74764,-0.72809 15.12152,2.18479 3.13379,2.29987 3.90844,5.94202 4.40211,9.57714 0.30036,3.33604 0.22221,6.69022 0.19565,10.03534 -0.03,3.07743 -0.0447,6.15495 -0.0547,9.2325 0.21754,2.71286 -0.4769,5.59621 0.33672,8.21802 1.85626,2.18929 4.72043,2.31977 7.39127,2.49223 -0.27522,-0.0891 -1.08401,-0.13712 -0.82567,-0.26731 2.10767,-1.06226 8.39953,-1.67798 10.90651,-1.98493 5.49631,-0.58016 10.84615,-1.98264 16.34311,-2.63639 6.69136,-0.66511 13.42032,-0.73857 20.13831,-0.79671 7.80955,-0.038 15.61925,-0.0179 23.42885,-0.009 5.32136,-0.14183 10.64527,-1.4004 16.02331,-2.04309 4.60594,-0.50549 9.23444,-0.71685 13.8649,-0.79579 3.22801,-0.23835 6.52454,0.28581 9.74172,-0.0262 0.44821,-0.0435 -1.45435,0.12074 -1.31545,-0.30761 0.16757,-0.51681 1.04264,-0.30588 1.56396,-0.45882 3.17586,-0.55026 6.00727,-1.83056 8.91568,-3.12435 1.5062,-0.62504 3.03433,-1.20043 4.59006,-1.69037 0.0634,-0.0191 0.12677,-0.0382 0.19016,-0.0573 0.98963,0.38608 2.11224,0.53011 2.9689,1.15826 0.53281,0.39068 0.0958,4.4408 0.0919,5.10777 0.26111,3.81512 -0.98325,7.44414 -1.7887,11.12892 -0.93719,4.30863 -0.8109,8.73278 -1.4555,13.0727 -1.20023,5.11976 -1.53073,10.39404 -2.58833,15.52891 -1.3988,5.30317 -2.08042,10.72988 -2.51916,16.18359 -0.32451,4.85365 -0.31919,9.72127 -0.32473,14.58337 -0.88072,4.86913 -1.82732,9.7012 -2.32295,14.6309 -0.61001,5.16022 -0.0934,10.39723 -0.86348,15.52917 -0.97193,4.50585 -1.74814,9.03453 -2.18809,13.62241 0.10572,3.39071 -0.58318,6.45371 -1.62359,9.64207 -0.85251,2.75479 -1.25231,5.61051 -1.45301,8.47851 -0.34871,1.25301 0.44729,3.17919 -0.44892,4.1926 -2.22232,0.41732 -4.32373,0.91676 -6.36649,1.99887 -3.4886,1.76631 -6.25982,4.57964 -9.31934,6.96273 -3.38634,2.39596 -6.60591,4.99187 -9.85625,7.56827 -3.19581,2.73587 -6.85798,4.82714 -10.05275,7.55691 -2.66328,2.34659 -5.97163,4.47982 -7.61766,7.72058 -0.64763,2.2859 2.52725,2.25674 4.05689,2.38395 4.91249,0.14664 2.46269,0.0974 6.92695,0.0751 4.20301,-0.79016 8.33598,-1.79352 12.58471,-2.35772 3.96804,-0.27615 7.70235,-1.76129 11.56928,-2.59325 4.31936,-0.78089 8.71964,-0.75657 13.09218,-0.80474 7.55013,-0.46675 14.982,0.86218 22.44323,1.72812 7.49732,0.39242 14.86426,1.82364 22.28981,2.83346 5.50051,0.71195 11.03968,1.00266 16.58029,1.13545 9.0655,-0.0344 -0.0363,0.47504 -3.38915,0.46582 -0.47474,-8.2e-4 -1.21961,-0.43084 -1.42421,-0.002 -0.18884,0.39538 1.50291,-0.0661 1.2775,0.30964 -0.0618,0.10305 -3.07902,0.75709 -3.72451,0.94798 -1.55501,0.45987 -3.06821,1.05087 -4.60211,1.57689 -6.29853,2.46755 -12.35494,5.46474 -18.48085,8.32118 -7.08834,3.10436 -14.17418,6.19476 -21.29383,9.22388 -6.23407,2.64091 -11.84863,6.39964 -17.68057,9.77837 -5.22592,2.68072 -10.74817,4.75407 -15.88076,7.60899 -4.81233,2.7371 -9.56019,5.57056 -14.5291,8.02113 -2.15921,1.96139 -7.7032,2.53097 -8.44294,5.69942 0.71481,2.26303 4.70935,2.08685 6.65412,2.23119 3.79656,0.19808 6.98639,0.16007 9.85605,0.1555 5.53422,-0.0143 11.06845,-0.023 16.60268,-0.0279 4.75245,-0.21211 9.57498,0.41306 14.2861,-0.32385 3.58194,-0.85899 7.14943,-1.71636 10.80433,-2.19949 3.02717,-0.32949 6.0748,-0.34365 9.11596,-0.35763 4.53791,-0.007 9.07581,0.006 13.61371,0.0126 1.11918,0.27865 6.00446,-1.00151 3.96633,1.15356 -3.61149,1.55792 -7.33889,2.95062 -10.99753,4.44734 -6.69867,1.90904 -13.12116,4.66862 -19.1784,8.09015 -5.89433,3.23755 -11.57591,6.85804 -17.74795,9.55444 -4.06066,2.01234 -8.11166,3.98007 -11.92112,6.44315 -2.18676,1.76937 1.02887,1.63773 2.3349,1.71539 4.55912,0.38529 4.64777,-0.33466 9.08438,-1.20525 5.65288,-0.95689 11.16673,-2.62008 16.62061,-4.36418 4.51583,-1.68756 9.25966,-2.39977 14.03777,-2.78909 4.77401,-0.28155 9.5597,-0.22126 14.33942,-0.21737 3.73517,-0.24623 -6.5e-4,1.7096 -1.41422,2.15366 -4.13106,1.77232 -8.05216,3.976 -12.08536,5.95327 -4.8244,2.45915 -9.65934,4.9144 -14.58072,7.17689 -3.13291,1.25342 -6.84001,2.37667 -8.54945,5.51274 0.85447,2.11218 1.76832,4.13702 2.31993,6.39455 0.31342,3.80211 1.68803,7.35557 2.46802,11.07228 0.8086,5.20473 1.30131,10.51286 0.76392,15.76174 -0.93516,5.41281 -1.69255,10.84653 -2.14889,16.32078 -0.34509,5.09014 -0.34117,10.19532 -0.35717,15.29459 -0.005,4.02159 0.012,8.04316 0.018,12.06474 0.3428,3.38355 -0.83795,6.52734 -1.71479,9.73513 -0.84332,3.47029 -0.98828,7.04959 -1.09867,10.60304 -0.0767,3.51613 -0.0585,7.03338 -0.0533,10.55008 0.006,4.02988 0.008,8.05975 0.0129,12.08963 -0.0383,3.38932 -0.25859,6.66968 0.81722,9.91329 0.89589,2.5332 1.58112,5.09223 1.86078,7.76466 0.22336,3.36033 0.20026,6.73059 0.20166,10.09649 0.42989,3.58641 2.15412,6.93606 1.98338,10.57538 -1.18065,2.86349 -3.8643,4.53893 -6.55115,5.82156 -3.78336,2.33989 -8.08245,3.13059 -12.42319,3.67641 -6.97536,1.09309 -13.81935,2.81814 -20.74516,4.15607 -9.13979,2.10764 -18.21222,4.48047 -27.28975,6.83962 -9.91471,2.84139 -19.96375,5.29878 -30.09748,7.2291 -9.74618,1.28033 -19.26342,3.74598 -28.90176,5.59363 -9.24945,2.05459 -18.48753,4.187 -27.79766,5.95251 -8.86374,1.63751 -17.80396,2.88537 -26.66794,4.51108 -8.47989,1.45247 -16.93203,3.09762 -25.2979,5.11066 -8.12046,2.25843 -16.49094,3.14138 -24.87445,3.64654 -8.31337,0.30166 -16.53105,1.7021 -24.81333,2.43368 -6.99313,0.5851 -14.01102,0.70001 -21.02432,0.75963 -6.47137,-0.42984 -12.80198,0.80483 -19.17017,1.71229 -6.55477,1.42264 -13.14924,2.57022 -19.6496,4.22463 -5.69555,2.3761 -11.71736,3.5661 -17.64958,5.1209 -5.57848,1.715 -11.33954,2.50122 -17.13878,2.93795 -5.57817,1.03946 -11.14621,2.03275 -16.78981,2.64614 -4.15581,0.88598 -8.21084,2.1463 -12.40799,2.83665 -2.96801,0.45941 -5.97608,0.51089 -8.97283,0.54146 -3.75611,0.94374 -7.65072,1.47311 -11.345,2.62664 -4.00637,1.62846 -7.90227,3.46949 -11.91159,5.11545 -3.89001,1.59773 -7.83159,2.98231 -11.717,4.60628 -2.52472,0.69338 -4.7372,2.10366 -6.67647,3.82894 -4.04824,-1.39134 -2.91425,-2.27941 -1.94819,-5.66443 0,0 2.82192,0.0785 2.82192,0.0785 l 0,0 c -0.90631,3.17537 -0.0688,4.31366 -3.7121,5.34747 1.93384,-1.75817 4.15103,-3.24473 6.70192,-3.92262 3.8915,-1.62176 7.8208,-3.03088 11.72389,-4.60635 4.00155,-1.66822 7.92962,-3.44159 11.90923,-5.13863 3.68095,-1.22443 7.61426,-1.63392 11.35061,-2.71251 2.99487,-0.0244 6.00144,-0.0615 8.97043,-0.49884 4.20849,-0.65802 8.27214,-1.90477 12.41991,-2.84979 5.64754,-0.59995 11.22479,-1.55629 16.79559,-2.65482 5.79525,-0.4182 11.55881,-1.16977 17.13291,-2.88599 5.92277,-1.58697 11.97634,-2.68358 17.65326,-5.12309 6.50306,-1.66044 13.09669,-2.80909 19.65106,-4.25534 6.37388,-0.89946 12.70479,-2.18767 19.18206,-1.74824 7.01411,-0.0561 14.03293,-0.16291 21.02772,-0.73663 8.28588,-0.72032 16.50436,-2.12718 24.81827,-2.4409 8.37863,-0.4896 16.74987,-1.3422 24.86627,-3.59731 8.36253,-2.03555 16.82132,-3.66709 25.30181,-5.12555 8.85931,-1.65176 17.80981,-2.86125 26.6718,-4.50947 9.314,-1.75176 18.55301,-3.88829 27.80164,-5.95142 9.64235,-1.83189 19.15375,-4.33101 28.90395,-5.59369 10.13469,-1.90995 20.18311,-4.36819 30.09408,-7.21076 9.07682,-2.35471 18.14489,-4.7341 27.27854,-6.85929 6.92521,-1.3223 13.76135,-3.06015 20.72877,-4.17759 4.32108,-0.51822 8.63956,-1.23843 12.39726,-3.58954 2.62811,-1.20982 5.26871,-2.7922 6.53355,-5.51488 0.18662,-3.62877 -1.59864,-6.9769 -1.97963,-10.56126 -0.003,-3.35596 0.0218,-6.71666 -0.20839,-10.06668 -0.28486,-2.65059 -0.96819,-5.19133 -1.8566,-7.70479 -1.06269,-3.27779 -0.85953,-6.58415 -0.81324,-10.00301 4.7e-4,-4.02977 -0.005,-8.05954 -0.0147,-12.0893 -0.007,-3.51985 -0.0236,-7.04023 0.0534,-10.55951 0.1148,-3.57553 0.25556,-7.17625 1.09734,-10.66992 0.87428,-3.18399 2.05285,-6.29937 1.71475,-9.65887 -0.006,-4.022 -0.0119,-8.04402 -0.004,-12.06602 0.0145,-5.1068 0.008,-10.21962 0.353,-15.31732 0.45949,-5.4757 1.21917,-10.91167 2.15454,-16.32612 0.53994,-5.21917 0.0387,-10.49983 -0.77157,-15.67402 -0.78765,-3.71092 -2.15473,-7.26512 -2.47786,-11.06282 -0.57233,-2.32301 -1.65086,-4.36247 -2.32274,-6.60159 1.67717,-3.23644 5.35491,-4.46937 8.581,-5.6959 4.92889,-2.24769 9.76363,-4.70623 14.58646,-7.16916 4.04341,-1.96703 7.96584,-4.16914 12.07382,-6.00121 1.1629,-0.33085 5.07015,-1.74682 1.42638,-1.34844 0.4196,-0.001 1.6784,-0.002 1.2588,-0.004 -3.33373,-0.0157 -6.66964,0.017 -9.99907,0.19858 -4.77574,0.36533 -9.52594,1.03911 -14.04031,2.72299 -5.45555,1.74489 -10.96413,3.43976 -16.61883,4.39745 -4.85125,0.94839 -9.72521,1.6895 -14.68745,1.24248 -1.63803,-0.12647 -4.57406,-0.41954 -2.35016,-2.42225 3.81956,-2.47851 7.87236,-4.46427 11.94652,-6.48753 6.18619,-2.65922 11.85729,-6.29124 17.75089,-9.52371 6.04184,-3.44839 12.46357,-6.24472 19.17088,-8.12749 3.64099,-1.48291 7.28249,-2.98067 10.95919,-4.33973 0.20578,-0.18826 0.95785,-0.41569 0.68618,-0.47879 -1.45872,-0.33878 -3.14411,0.30253 -4.60914,-0.007 -3.47353,-0.004 -7.70831,-0.0155 -8.01817,-0.0129 -3.03814,0.0112 -6.08201,0.0183 -9.10829,0.32306 -3.65935,0.46371 -7.23502,1.28814 -10.80996,2.18804 -4.70171,0.83942 -9.54768,0.13106 -14.3033,0.36841 -5.53273,0.005 -11.06545,0.0132 -16.59815,0.0284 -5.14811,0.01 -10.3034,0.0946 -15.44642,-0.17562 -2.14462,-0.17903 -6.12777,-0.0682 -6.69749,-2.71381 0.7018,-3.37439 6.15248,-3.95516 8.48246,-5.95181 4.97638,-2.43357 9.72221,-5.26398 14.53049,-8.00545 5.11219,-2.89124 10.64642,-4.9469 15.88241,-7.60537 5.85216,-3.36321 11.45546,-7.15955 17.69666,-9.81063 7.11416,-3.03876 14.20661,-6.11018 21.29395,-9.21439 6.12476,-2.85902 12.17996,-5.85434 18.46509,-8.35315 4.59094,-1.57405 9.10993,-3.2548 14.07668,-2.92565 6.55888,0.0192 -0.20737,0.72222 -2.20728,0.41263 -5.53647,-0.14252 -11.07095,-0.44737 -16.56615,-1.16923 -7.4226,-1.0206 -14.79267,-2.41992 -22.28717,-2.82828 -5.69182,-0.66949 -11.17439,-2.00064 -16.87954,-1.69687 -4.36416,0.0445 -8.75388,0.0133 -13.07065,0.75155 -3.87974,0.80185 -7.60808,2.32442 -11.57648,2.61443 -4.25488,0.54988 -8.40013,1.49568 -12.58788,2.39306 -4.17692,0.022 -8.35991,0.11723 -12.53252,-0.0985 -1.79114,-0.18523 -4.8001,-0.39871 -4.08553,-2.93296 1.60435,-3.29931 4.93874,-5.47998 7.63462,-7.8323 3.16902,-2.7695 6.86116,-4.82207 10.05544,-7.56949 3.26373,-2.55873 6.4499,-5.19715 9.85277,-7.57088 3.07934,-2.37651 5.83953,-5.21394 9.32234,-7.00766 2.01713,-1.13881 4.05392,-1.77956 6.34519,-1.9568 0.91205,-0.35856 0.12524,-3.13171 0.44827,-3.95158 0.19837,-2.89139 0.61072,-5.76912 1.45829,-8.54855 1.03989,-3.16815 1.73584,-6.20645 1.62822,-9.57963 0.44684,-4.59251 1.21529,-9.12721 2.19347,-13.63753 0.78014,-5.12529 0.25637,-10.36029 0.86687,-15.51497 0.49137,-4.92056 1.41991,-9.74655 2.31821,-14.60327 0.0131,-4.86951 -0.003,-9.74479 0.32718,-14.60572 0.44833,-5.46395 1.11785,-10.90429 2.52157,-16.21822 1.06402,-5.12787 1.38229,-10.39988 2.58898,-15.51299 0.64566,-4.34539 0.50418,-8.7776 1.44669,-13.09211 0.80398,-3.66447 2.04093,-7.27567 1.78036,-11.06931 0.005,-1.25171 -0.23872,-4.96841 -0.0976,-5.06887 0.71449,-0.5088 3.75897,-1.10018 2.51435,-0.77611 -1.56301,0.46614 -3.09038,1.04579 -4.60218,1.65558 -2.92524,1.26703 -5.71611,2.66387 -8.92123,3.15875 -5.51461,1.68409 -4.5394,0.48374 -10.00637,0.86888 -4.6327,0.0712 -9.2638,0.27016 -13.87303,0.76553 -7.18454,0.84244 -14.30665,2.43798 -21.58744,2.07453 -5.95891,-0.007 -11.91789,-0.0234 -17.87677,0.007 -6.71452,0.0547 -13.43957,0.12218 -20.12907,0.76736 -5.49867,0.63273 -10.8434,2.03312 -16.332,2.63717 -5.2698,0.61984 -10.34448,2.25292 -15.67956,2.26737 -2.75355,-0.20732 -5.66703,-0.42343 -7.42882,-2.83361 -0.76818,-2.66927 -0.14682,-5.55066 -0.33356,-8.30127 0.007,-3.07802 0.0263,-6.156 0.0577,-9.23387 0.0244,-3.3316 0.10371,-6.67247 -0.19691,-9.99493 -0.48488,-3.57485 -1.26125,-7.11747 -4.38245,-9.3342 -3.41577,-2.15562 -7.06317,-2.80967 -9.50677,-2.09014 -4.48969,1.05734 -8.34083,3.05067 -12.27292,5.40834 -3.16294,1.93806 -5.72519,4.19323 -7.89366,7.24606 -2.40206,3.29137 -5.54427,6.01831 -7.57308,9.59975 -2.21511,3.78551 -3.66551,7.88194 -5.18347,11.9838 -0.80756,2.55602 -3.02314,8.5816 -6.99936,5.97193 -1.02181,-2.69605 0.0624,-5.92166 -0.31543,-8.74354 0.0154,-3.53556 0.044,-7.07246 -0.0608,-10.60696 -0.15446,-3.41516 -0.4934,-6.82375 -1.68682,-10.0582 -1.16378,-2.82441 -2.34916,-6.4938 -5.43506,-7.62851 0.40894,-0.0295 1.62998,-0.16317 1.22683,-0.0885 -3.27687,0.60703 -5.9837,2.08965 -8.29589,4.60455 -3.99857,3.24734 -7.24369,7.34838 -10.52978,11.28958 -3.04568,4.12883 -5.89431,8.44087 -7.92934,13.16732 -2.26605,4.41076 -2.23129,6.52725 -7.29789,7.12509 0.0195,-2.8692 -0.0143,-5.74076 -0.1773,-8.60584 -0.27687,-3.20838 -0.83656,-6.37828 -1.91923,-9.42322 -1.04679,-3.51634 -1.2848,-7.13892 -2.47584,-10.61476 -1.18452,-2.48635 -2.57384,-5.41956 -5.21204,-6.55495 0.42743,-0.12152 1.66519,-0.13904 1.2823,-0.36457 -2.00165,-1.17904 -7.61375,3.24656 -9.18136,4.19756 -4.21655,2.66301 -8.21642,5.54308 -11.82468,9.00246 -3.50464,3.57754 -6.98546,7.18579 -10.18113,11.04644 -2.55968,3.22412 -5.06303,6.55102 -7.20958,10.05242 -3.96132,6.71827 -5.30105,-1.64734 -4.52074,-3.98669 0.0257,-4.04812 0.062,-8.09635 0.0461,-12.14456 -0.0497,-3.36085 0.003,-6.79776 -1.30772,-9.95926 -1.83638,-3.33659 -4.50744,-5.61757 -8.20314,-6.74591 0.30306,-0.0617 1.21775,-0.20635 0.90919,-0.18511 -3.35446,0.23086 -6.58183,1.44853 -9.68011,2.65265 -4.14864,1.97076 -8.40449,3.69061 -12.29393,6.1625 -2.99208,2.14437 -6.04166,4.20803 -8.93325,6.47057 -2.85472,2.39105 -5.58375,4.89252 -7.98659,7.74475 -2.63542,2.52675 -4.83419,5.43589 -6.28487,8.80476 -1.10281,1.9125 -1.72519,4.28324 -4.02119,4.99006 -2.55683,0.0116 -5.112,0.14652 -7.66213,0.32382 -7.02176,0.62368 -14.00025,1.6098 -20.96239,2.70966 -9.4918,1.25675 -19.08256,1.75155 -28.61084,2.68628 -8.57193,0.0131 -17.14694,0.007 -25.71404,0.33438 -7.70349,0.37383 -15.40671,0.90364 -23.02242,2.17963 0,0 -2.80154,-0.39642 -2.80154,-0.39642 z" />
    <path
       style="color:#000000;fill:#000000;fill-opacity:1;stroke:#000000;stroke-width:1.5;stroke-linecap:butt;stroke-linejoin:miter;stroke-miterlimit:4;stroke-opacity:1;stroke-dasharray:none;stroke-dashoffset:0;marker:none;visibility:visible;display:inline;overflow:visible;enable-background:accumulate"
       id="path2956"
       d="m 794.87992,275.36288 c 6.77301,1.06526 13.60099,1.74503 20.44134,2.18082 3.95501,0.24515 7.91761,0.31217 11.87918,0.33039 0.44303,2.2e-4 1.77211,0.002 1.32908,6.6e-4 -0.54211,-0.002 -1.08429,0.006 -1.62636,-0.002 -0.0403,-5.9e-4 0.23745,-5.3e-4 2.86057,-0.006 2.97515,-0.006 0.98974,-0.0449 5.92123,0.36469 2.9358,1.04066 5.93789,1.79408 9.02714,2.17682 3.15679,0.32956 6.3381,0.31035 9.50844,0.32289 0.43367,1.7e-4 1.7347,0.004 1.30103,5.2e-4 -4.51405,-0.0344 3.31902,-0.0129 3.75741,-0.0137 3.45609,-0.005 6.91219,-0.005 10.36829,-0.006 4.20571,-0.75191 8.32136,-1.80842 12.56991,-2.32261 4.64484,-0.32353 9.22375,-0.43192 13.79929,-1.33196 5.24888,-1.32913 10.70941,-1.2215 16.00017,-2.19854 4.46911,-1.3148 9.14423,-1.64494 13.65375,-2.72511 3.42412,-1.13299 6.89276,-2.06481 10.47029,-2.53465 4.47007,-0.99234 6.98531,0.832 10.32655,3.10723 2.7639,1.65878 5.89657,1.9756 9.04054,2.19568 3.18145,0.02 6.16464,0.0316 9.20774,0.98096 3.58774,1.195 7.32133,1.55019 11.06921,1.8002 3.52505,0.18744 7.0558,0.18987 10.58467,0.1916 3.25774,0.73131 6.40891,1.80188 9.70933,2.34679 3.19124,0.0834 6.12778,0.90458 9.15588,1.83768 3.1694,0.9403 6.4427,1.27705 9.7297,1.43099 0.2617,0.10506 11.2869,0.10472 6.8689,0.0975 3.3121,-0.009 6.6242,-0.0137 9.9363,-0.016 4.9766,-0.002 9.9531,-0.002 14.9297,-0.002 7.8294,5.1e-4 15.6588,0.001 23.4882,9.8e-4 7.1849,0.68726 14.3196,1.7593 21.5153,2.35053 4.1852,0.34271 8.3831,0.46953 12.5806,0.51795 2.8188,-0.18705 2.738,2.62578 2.8699,4.72775 0.1195,4.96031 0.043,9.92342 0.017,14.8846 0.4037,6.70245 -0.949,13.27012 -1.769,19.88362 -0.2954,6.72568 -1.7771,13.2816 -2.8198,19.90939 -1.6888,6.35404 -2.7647,12.82644 -4.3059,19.21432 -1.2934,6.52707 -3.032,12.93959 -4.149,19.5036 -0.6421,6.70426 -2.0701,13.28303 -3.0059,19.94811 -0.2382,5.92643 -1.7168,11.63616 -2.8401,17.4243 -0.4238,3.2837 -1.6915,6.37532 -3.1941,9.30096 -0.6347,2.49838 -3.6209,0.74453 -3.6844,-1.35534 -0.8079,-3.38962 -2.0936,-6.60759 -3.9523,-9.55139 -1.9253,-2.42014 -0.8622,-1.28127 -3.2012,-3.40551 0,0 2.8154,-0.23345 2.8154,-0.23345 l 0,0 c 2.3441,2.18201 1.2778,1.01792 3.2113,3.48103 1.8544,3.00056 3.1816,6.25557 3.9682,9.70092 0.082,2.84365 -4.1678,3.7762 -1.9993,1.2275 1.5183,-2.89168 2.7891,-5.95826 3.2132,-9.21882 1.1215,-5.78432 2.6216,-11.48527 2.8525,-17.4094 0.9359,-6.66788 2.3591,-13.24998 3.0057,-19.95626 1.1166,-6.57076 2.8486,-12.9907 4.1488,-19.52287 1.5418,-6.3803 2.6069,-12.84659 4.3018,-19.19166 1.0433,-6.62489 2.5337,-13.17642 2.8249,-19.89993 0.8109,-6.60338 2.1771,-13.15879 1.7593,-19.85059 0.025,-4.95456 0.1,-9.91136 -0.032,-14.8648 -0.1429,-2.14057 -0.077,-4.51778 -2.8393,-4.30546 -4.1905,-0.0565 -8.3811,-0.19217 -12.5588,-0.54144 -7.1906,-0.60414 -14.3204,-1.69719 -21.5069,-2.32824 -5.9761,-1.6e-4 -11.9521,-1e-4 -17.9282,8e-4 -4.9728,2.3e-4 -9.9456,2.3e-4 -14.9184,0.003 -3.3106,0.003 -6.6212,0.007 -9.9319,0.0166 -4.1567,0.002 -8.3163,0.0427 -12.4711,-0.11137 -3.2933,-0.17163 -6.5704,-0.539 -9.7405,-1.50065 -3.02128,-0.92595 -5.97979,-1.66274 -9.15233,-1.80114 -3.2859,-0.57704 -6.42593,-1.6797 -9.69941,-2.3001 -3.52928,-0.003 -7.06062,-0.0105 -10.58547,-0.21086 -3.75568,-0.26347 -7.49105,-0.65932 -11.08311,-1.86371 -3.03243,-0.91081 -6.04701,-0.83411 -9.19747,-0.91846 -3.16614,-0.24629 -6.30797,-0.61791 -9.06209,-2.3429 -1.16749,-0.7967 -2.36714,-1.84913 -3.64086,-2.46491 -0.39525,-0.19109 -1.47621,-0.025 -1.25373,-0.40346 0.2784,-0.47358 1.14625,0.0209 1.63078,-0.23794 0.42289,-0.22593 -0.95488,0.0879 -1.43232,0.13191 -3.58142,0.43544 -7.05897,1.33985 -10.47427,2.50093 -4.49706,1.14115 -9.1965,1.38206 -13.65951,2.73947 -5.27867,1.04131 -10.75193,0.85495 -15.9995,2.19646 -4.57744,0.92063 -9.14334,1.08234 -13.79952,1.35432 -4.25389,0.49253 -8.37954,1.49963 -12.56889,2.35645 -3.45417,6.3e-4 -6.90834,9.5e-4 -10.36251,0.006 -3.55457,0.007 -7.10915,0.0214 -10.66374,0.0121 -3.17268,-0.0163 -6.35724,-10e-4 -9.51414,-0.35757 -3.08702,-0.41495 -6.0766,-1.20603 -9.02852,-2.19879 0.39375,-0.10347 1.47077,-0.0242 1.18124,-0.3104 -0.65031,-0.64281 -9.1539,0.67851 -9.66204,0.01 -3.955,-0.0245 -7.91089,-0.0983 -11.85893,-0.35045 -6.84602,-0.44906 -13.67898,-1.13997 -20.45818,-2.20704 0,0 2.80154,-0.39642 2.80154,-0.39642 z" />
    <path
       style="color:#000000;fill:#000000;fill-opacity:1;stroke:#000000;stroke-width:1.5;stroke-linecap:butt;stroke-linejoin:miter;stroke-miterlimit:4;stroke-opacity:1;stroke-dasharray:none;stroke-dashoffset:0;marker:none;visibility:visible;display:inline;overflow:visible;enable-background:accumulate"
       id="path2958"
       d="m 1040.9369,441.79474 c 8.6571,3.81962 17.9428,5.44793 27.2731,6.54399 8.2729,0.15829 16.537,-0.68131 24.6783,-2.12442 8.1572,-1.59432 16.358,-2.3491 24.6518,-2.10252 7.7061,0.57088 15.2617,2.10537 22.8831,3.28214 10.2048,0.98153 20.3448,2.50449 30.5439,3.54791 5.679,0.27702 11.396,1.19336 17.0954,1.05181 1.2159,-0.0302 2.3846,-0.48847 3.5889,-0.65853 3.3596,-0.9632 3.6984,-2.62272 3.1132,-5.77118 0,0 2.8251,-0.0512 2.8251,-0.0512 l 0,0 c 0.586,3.24571 0.3254,5.14602 -3.149,6.22329 -8.715,1.28188 -17.5056,0.33201 -26.2321,-0.38624 -10.2017,-1.05498 -20.349,-2.55887 -30.5555,-3.56071 -7.6218,-1.18697 -15.1856,-2.70017 -22.8951,-3.25267 -2.8863,-1.2347 -15.4308,1.88298 -19.0944,2.06743 -9.968,1.78423 -20.0816,2.49148 -30.2148,2.13881 -9.3481,-1.12089 -18.6416,-2.79082 -27.3153,-6.6196 0,0 2.8034,-0.32833 2.8034,-0.32833 z" />
    <path
       style="color:#000000;fill:#000000;fill-opacity:1;stroke:#000000;stroke-width:1.5;stroke-linecap:butt;stroke-linejoin:miter;stroke-miterlimit:4;stroke-opacity:1;stroke-dasharray:none;stroke-dashoffset:0;marker:none;visibility:visible;display:inline;overflow:visible;enable-background:accumulate"
       id="path2960"
       d="m 1054.8838,484.65989 c 8.9353,3.96239 18.512,5.77366 28.2242,6.18463 9.7801,0.10937 19.444,-1.20085 29.115,-2.45537 9.186,-1.21307 18.4414,-1.63306 27.6953,-1.86276 8.4663,-0.16021 16.9347,-0.13117 25.4021,-0.12259 5.1835,0.008 10.3669,0.0156 15.5504,0.0199 3.2883,0.22446 6.7028,-0.46036 9.9123,0.37709 2.3337,0.65809 4.6412,1.40666 6.9295,2.20744 -3.1764,-1.00498 -2.0055,-1.55459 -1.77,-4.14925 0,0 2.8339,0.0251 2.8339,0.0251 l 0,0 c -0.2824,3.24594 0.055,3.4928 -3.8914,4.47498 -2.2817,-0.79661 -4.5814,-1.54651 -6.9142,-2.18017 -3.2324,-0.69881 -6.6082,-0.11752 -9.8947,-0.31284 -5.1773,-0.005 -10.3547,-0.015 -15.5321,-0.0229 -6.62,-0.007 -13.2405,-0.0138 -19.8596,0.11437 -9.2552,0.22184 -18.5128,0.62812 -27.7012,1.83234 -11.4976,1.4893 -22.9939,2.92729 -34.6267,2.47771 -9.7355,-0.46236 -19.3339,-2.29553 -28.2821,-6.29544 0,0 2.8093,-0.31231 2.8093,-0.31231 z" />
    <path
       style="color:#000000;fill:#000000;fill-opacity:1;stroke:#000000;stroke-width:1.5;stroke-linecap:butt;stroke-linejoin:miter;stroke-miterlimit:4;stroke-opacity:1;stroke-dasharray:none;stroke-dashoffset:0;marker:none;visibility:visible;display:inline;overflow:visible;enable-background:accumulate"
       id="path2962"
       d="m 1129.6442,494.43613 c -1.1327,6.78468 -2.0135,13.54909 -1.3867,20.41365 0.5572,5.05077 1.1335,10.05577 2.3349,14.99326 1.6005,6.54 1.835,13.30271 2.0673,20.0007 0.01,9.94783 -0.9118,19.96289 -2.2254,29.82669 -1.5714,9.62308 -2.4698,19.32491 -2.9893,29.05538 0.2019,5.5673 -0.8474,10.93037 -2.0675,16.31879 -1.106,3.49012 -0.6365,6.60388 0.2206,10.05168 0.9541,3.26991 1.2229,6.67443 1.4244,10.05795 -0.1286,2.23083 1.0601,5.21988 -1.0318,6.67536 -3.3873,0.99926 -6.837,1.88186 -10.3237,2.51922 -6.4765,1.09575 -12.8847,2.40706 -19.4235,3.12278 -9.517,0.53574 -19.0105,1.48586 -28.4418,2.87529 -11.4501,1.83033 -22.8161,4.15754 -34.236,6.17496 -12.7792,2.67498 -25.6789,4.70644 -38.53028,6.99511 -12.42974,1.74032 -24.55028,5.00001 -36.77288,7.74746 -8.21404,1.81131 -16.61975,2.22538 -24.91917,3.48992 -7.52586,1.40804 -15.20514,1.38463 -22.78111,2.29243 -7.81326,1.22816 -15.67609,1.95859 -23.57009,2.37269 -7.20105,-0.071 -14.28299,0.5598 -21.39595,1.60192 -6.74448,0.62717 -13.40218,1.56787 -20.07201,2.74222 -4.74697,0.62629 -9.35822,1.40957 -13.92553,2.85216 -3.26283,1.08838 -6.66106,1.42131 -10.07323,1.60195 -3.98728,0.149 -7.97911,0.11106 -11.96833,0.10132 -2.86551,-0.01 -5.73102,-0.0152 -8.59653,-0.0183 -2.67108,-0.002 -5.34217,-0.002 -8.01325,-0.002 -5.22386,-0.38762 6.38125,0.67524 -4.48868,-0.38333 0,0 2.81841,-0.36147 2.81841,-0.36147 l 0,0 c -5.07387,0.90077 2.93289,-0.0491 4.47834,0.30006 2.66921,4.1e-4 5.33843,0.002 8.00764,0.003 2.8654,0.003 5.73079,0.009 8.59617,0.0187 2.1218,0.004 4.24356,-0.0394 6.36483,-0.0874 3.40586,-0.16318 6.80282,-0.46041 10.06514,-1.52966 4.57785,-1.45731 9.17918,-2.2977 13.94899,-2.88691 6.67217,-1.17076 13.32307,-2.15723 20.07397,-2.75 7.11726,-1.04499 14.19679,-1.73159 21.40548,-1.62718 7.89323,-0.40307 15.75766,-1.11244 23.56825,-2.35308 7.57105,-0.94651 15.25511,-0.87219 22.78092,-2.28399 8.3029,-1.27335 16.70789,-1.69303 24.9327,-3.46862 12.23585,-2.73308 24.36055,-6.02028 36.80139,-7.7558 12.84561,-2.29726 25.74381,-4.31306 38.51671,-6.99759 11.4191,-2.01 22.7814,-4.34353 34.2275,-6.18378 9.421,-1.41062 18.91,-2.367 28.4206,-2.88956 6.535,-0.70013 12.9366,-1.99939 19.4041,-3.10555 3.4825,-0.61813 6.8769,-1.56307 10.2915,-2.41945 2.1781,-1.10029 0.8444,-4.33872 1.0253,-6.36637 -0.1962,-3.36716 -0.4734,-6.75161 -1.4212,-10.00557 -0.8678,-3.48755 -1.3291,-6.65672 -0.2185,-10.18418 1.2317,-5.37146 2.2875,-10.71681 2.0982,-16.27044 0.53,-9.73742 1.429,-19.44685 3.0019,-29.07732 1.3196,-9.84651 2.2238,-19.84849 2.2088,-29.7798 -0.2386,-6.67977 -0.4775,-13.42315 -2.0859,-19.9432 -1.2043,-4.951 -1.7768,-9.97025 -2.3288,-15.03515 -0.6204,-6.88888 0.2748,-13.67265 1.374,-20.48586 0,0 2.8291,0.0467 2.8291,0.0467 z" />
  </g>
</svg>
