<?xml version="1.0" encoding="UTF-8" standalone="no"?>
<!-- Created with Inkscape (http://www.inkscape.org/) -->

<svg
   xmlns:dc="http://purl.org/dc/elements/1.1/"
   xmlns:cc="http://creativecommons.org/ns#"
   xmlns:rdf="http://www.w3.org/1999/02/22-rdf-syntax-ns#"
   xmlns:svg="http://www.w3.org/2000/svg"
   xmlns="http://www.w3.org/2000/svg"
   xmlns:sodipodi="http://sodipodi.sourceforge.net/DTD/sodipodi-0.dtd"
   xmlns:inkscape="http://www.inkscape.org/namespaces/inkscape"
   width="924.44952"
   height="946.39874"
   id="svg2"
   version="1.1"
   inkscape:version="0.47pre4 r22446"
   sodipodi:docname="New document 1">
  <defs
     id="defs4">
    <inkscape:perspective
       sodipodi:type="inkscape:persp3d"
       inkscape:vp_x="0 : 526.18109 : 1"
       inkscape:vp_y="0 : 1000 : 0"
       inkscape:vp_z="744.09448 : 526.18109 : 1"
       inkscape:persp3d-origin="372.04724 : 350.78739 : 1"
       id="perspective10" />
  </defs>
  <sodipodi:namedview
     id="base"
     pagecolor="#ffffff"
     bordercolor="#666666"
     borderopacity="1.0"
     inkscape:pageopacity="0.0"
     inkscape:pageshadow="2"
     inkscape:zoom="0.35"
     inkscape:cx="636.84216"
     inkscape:cy="486.26096"
     inkscape:document-units="px"
     inkscape:current-layer="layer1"
     showgrid="false"
     inkscape:window-width="1280"
     inkscape:window-height="726"
     inkscape:window-x="0"
     inkscape:window-y="25"
     inkscape:window-maximized="1" />
  <metadata
     id="metadata7">
    <rdf:RDF>
      <cc:Work
         rdf:about="">
        <dc:format>image/svg+xml</dc:format>
        <dc:type
           rdf:resource="http://purl.org/dc/dcmitype/StillImage" />
        <dc:title></dc:title>
      </cc:Work>
    </rdf:RDF>
  </metadata>
  <g
     inkscape:label="Layer 1"
     inkscape:groupmode="layer"
     id="layer1"
     transform="translate(261.84216,-72.22441)">
    <path
       style="fill:#000000;fill-opacity:1;stroke:#000000;stroke-width:10;stroke-miterlimit:4;stroke-opacity:1;stroke-dasharray:none"
       id="path2816"
       d="m -19.401915,293.23132 c 6.679415,3.4786 13.1478788,7.26025 20.20501609,9.93358 7.93069851,2.31291 16.20935491,3.44639 24.39323691,4.53406 10.672515,0.4264 21.337307,-0.58443 31.950799,-1.59529 16.13152,-2.02854 32.245802,-4.21814 48.412503,-5.95111 17.10812,-1.83874 34.32905,-1.68182 51.48941,-2.56976 17.97263,-0.95231 35.93187,-1.87164 53.81965,-3.9085 15.58769,-2.03421 31.07,-4.62254 46.73357,-6.04953 10.65064,-1.43849 21.34866,-2.46243 31.92883,-4.36224 7.33314,-1.41743 14.77781,-1.81919 22.11622,-3.18466 6.83574,-0.8049 13.49252,-2.54653 20.25563,-3.76298 5.86188,-1.57148 11.79374,-2.79645 17.64052,-4.41768 3.995,-1.23397 8.08658,-2.06642 12.2471,-2.44799 5.4055,-0.23053 8.62223,2.33655 11.24504,6.80859 2.65257,5.84786 4.0651,12.12766 5.49943,18.35925 1.8235,10.64955 3.44376,21.32927 4.42105,32.09343 1.4955,14.57531 0.26977,29.2013 -0.44518,43.78141 -0.73235,14.05372 -1.20291,28.09216 -0.2518,42.13886 0.32946,9.71304 2.12619,19.25121 3.52235,28.84088 0.73236,5.19612 1.17954,10.42276 1.32814,15.66658 0.0731,3.3225 0.0546,6.64614 0.0425,9.96916 -0.3871,3.05755 0.35386,5.71437 1.27505,8.57489 0.79272,2.12887 1.19633,4.34933 1.47312,6.59465 0.0666,0.49106 0.0939,0.98525 0.11922,1.47937 0,0 -2.85583,0.004 -2.85583,0.004 l 0,0 c -0.022,-0.48381 -0.0466,-0.96768 -0.11036,-1.4486 -0.26826,-2.22822 -0.67938,-4.42758 -1.46115,-6.54055 -0.93503,-2.88472 -1.65566,-5.58456 -1.2765,-8.66444 0.01,-3.32004 0.0344,-6.64058 -0.0356,-9.96019 -0.14903,-5.23198 -0.57535,-10.449 -1.30295,-15.63423 -1.38598,-9.59733 -3.17231,-19.14342 -3.49352,-28.8627 -0.93217,-14.05801 -0.46389,-28.10699 0.27243,-42.17091 0.7121,-14.56747 1.93419,-29.18069 0.42879,-43.74266 -0.98971,-10.75119 -2.61338,-21.41974 -4.45075,-32.05506 -1.44012,-6.2031 -2.84886,-12.46028 -5.52188,-18.27147 -1.40946,-2.34479 -2.95389,-4.23705 -5.39136,-5.58375 -0.49769,-0.27497 -1.41579,-0.16575 -1.54684,-0.71903 -0.10306,-0.4351 0.88004,-0.15893 1.32006,-0.2384 -4.16346,0.35107 -8.26139,1.1593 -12.25688,2.39444 -5.85131,1.62493 -11.78496,2.84912 -17.64691,4.44353 -6.76773,1.19888 -13.41817,2.97172 -20.25754,3.76039 -7.34266,1.37933 -14.78636,1.79159 -22.12997,3.18467 -10.59336,1.91003 -21.30333,2.93562 -31.96825,4.38117 -15.67289,1.41148 -31.16293,3.9906 -46.75626,6.03964 -17.88637,2.05336 -35.84548,2.97103 -53.81824,3.92579 -17.15823,0.90495 -34.37847,0.7252 -51.48633,2.55516 -16.161242,1.72355 -32.269486,3.91245 -48.39237,5.95723 -12.442587,1.19166 -24.938133,2.2196 -37.450448,1.58931 -8.191615,-1.10103 -16.4876899,-2.21637 -24.4114752,-4.597 -7.0526569,-2.70783 -13.5292428,-6.50289 -20.2305958,-9.95875 0,0 2.809294,-0.31231 2.809294,-0.31231 z" />
    <path
       style="fill:#000000;fill-opacity:1;stroke:#000000;stroke-width:10;stroke-miterlimit:4;stroke-opacity:1;stroke-dasharray:none"
       id="path2818"
       d="m 357.73707,503.93431 c 7.19384,1.17367 14.45941,1.77945 21.73185,2.18008 5.24595,0.18135 10.50528,-1.09761 15.77041,-1.72214 6.77628,-1.30929 13.56991,-2.47646 20.31607,-3.93312 6.55025,-1.34481 12.90309,-3.3786 19.50723,-4.48948 4.76123,-0.79062 9.45896,-1.03378 14.24748,-0.61778 3.07973,2.60088 3.0452,7.23673 3.33385,10.95576 0.0675,7.8325 1.27227,15.58133 1.94432,23.37571 0.93993,10.53376 0.60312,21.12645 1.40074,31.66205 0.98044,8.54967 1.75253,17.11407 2.25343,25.70482 0.57129,4.07689 1.64347,8.06586 2.68097,12.04479 -0.25549,2.81563 -3.01915,3.45171 -5.19283,4.50085 -4.53456,1.91747 -9.26286,3.32275 -13.88952,4.99402 -6.12374,2.00458 -12.22893,4.05064 -18.32175,6.1528 -7.95401,2.72284 -15.77002,5.79168 -23.53407,9.01222 -6.88418,3.38416 -13.75448,6.74796 -20.73928,9.91432 -4.37572,2.02551 -8.91216,3.55523 -13.66963,4.32674 -7.86807,1.36179 -6.34311,-2.51179 -5.25111,-8.11082 1.89052,-9.345 3.58681,-18.73184 5.58258,-28.05431 1.88636,-9.94628 4.15966,-19.80755 5.52043,-29.84544 1.07415,-8.7516 1.3287,-17.57311 1.45922,-26.38048 0.0557,-4.39006 0.0214,-8.78035 0.004,-13.17049 -0.007,-1.38739 -0.0143,-2.77478 -0.0181,-4.16219 0,0 2.83935,-8.5e-4 2.83935,-8.5e-4 l 0,0 c 0.005,1.38729 0.008,2.77457 0.0131,4.16185 0.02,4.39198 0.0302,8.78424 -0.0304,13.17599 -0.14039,8.81846 -0.40481,17.65108 -1.4791,26.41366 -1.35643,10.04612 -3.63312,19.91322 -5.52027,29.86687 -2.00165,9.31763 -3.68723,18.70396 -5.55847,28.04922 -0.41685,2.16666 -0.76997,3.29932 -0.76827,5.38783 4.1e-4,0.50916 -0.0349,1.04611 0.15133,1.51997 0.12042,0.30634 0.96688,0.47094 0.71421,0.6819 -0.46566,0.38878 -1.20512,0.14155 -1.80539,0.22913 -0.44529,0.065 0.89357,-0.10753 1.34035,-0.16129 4.76193,-0.73396 9.30539,-2.22352 13.68195,-4.24845 6.9852,-3.17846 13.88345,-6.49658 20.7548,-9.92165 7.75855,-3.23194 15.57462,-6.29767 23.52403,-9.03098 6.09194,-2.09631 12.18432,-4.16668 18.31234,-6.14905 4.60987,-1.69185 9.33435,-3.07572 13.87013,-4.96625 2.03244,-1.00653 4.8046,-1.49411 5.16845,-4.11332 -1.02204,-3.99958 -2.09556,-8.00465 -2.65135,-12.10055 -0.48007,-8.58986 -1.26173,-17.15103 -2.2288,-25.69981 -0.79637,-10.53477 -0.45393,-21.12671 -1.40536,-31.65894 -0.68019,-7.79533 -1.8943,-15.54394 -1.97545,-23.37781 -0.28161,-3.56639 -0.1944,-8.25538 -3.32832,-10.60919 5.87551,-0.97838 -8.54491,0.62985 -8.64122,0.64389 -6.61244,1.08492 -12.96478,3.11414 -19.51358,4.47491 -6.74628,1.45914 -13.53825,2.62383 -20.31006,3.96118 -7.0909,0.82672 -14.15519,2.38421 -21.33679,1.73803 -7.28061,-0.41177 -14.55318,-1.03227 -21.75538,-2.20779 0,0 2.80155,-0.39641 2.80155,-0.39641 z" />
    <path
       style="fill:#000000;fill-opacity:1;stroke:#000000;stroke-width:10;stroke-miterlimit:4;stroke-opacity:1;stroke-dasharray:none"
       id="path2820"
       d="m 429.6442,614.43613 c -1.48448,9.47042 -1.6134,19.07108 -2.55807,28.593 -1.5066,9.9443 -1.7027,20.02167 -2.87088,29.99411 -0.80292,5.68965 -1.71663,11.36224 -2.5002,17.05484 -0.0436,0.21994 -0.0872,0.43988 -0.1308,0.65983 0,0 -2.84769,-0.0587 -2.84769,-0.0587 l 0,0 c 0.047,-0.21356 0.0939,-0.42712 0.1409,-0.64069 0.81142,-5.68842 1.73117,-11.35991 2.54299,-17.04806 1.17853,-9.9697 1.36732,-20.04701 2.88136,-29.98887 0.94324,-9.52726 1.08068,-19.13001 2.51332,-28.61223 0,0 2.82907,0.0467 2.82907,0.0467 z" />
    <path
       style="fill:#000000;fill-opacity:1;stroke:#000000;stroke-width:10;stroke-miterlimit:4;stroke-opacity:1;stroke-dasharray:none"
       id="path2822"
       d="m 389.21885,691.50248 c 7.46804,-2.50823 15.24676,-3.64174 23.054,-4.41741 6.96777,-0.49194 13.90756,-0.52889 20.83182,-1.48916 5.96494,-0.89746 11.95739,-1.23005 17.82995,-2.6341 3.73834,-1.11581 7.55834,-1.7569 11.43771,-2.07438 3.02849,-0.44726 4.63487,-0.0932 7.53425,1.00646 0.50559,4.65295 0.24391,9.36969 0.19339,14.04347 -0.19538,8.70065 -1.54432,17.33165 -2.19343,26.01213 -1.04956,9.03217 0.0693,18.03151 0.93346,27.01986 0.8189,7.74255 1.12654,15.43101 0.27138,23.16784 -0.89044,6.97832 -1.39138,13.96822 -2.60645,20.89944 -1.065,5.40334 -1.7338,10.85245 -2.06799,16.34549 -0.17384,3.36727 -0.18921,6.73927 -0.18578,10.11006 0.31019,3.0374 -2.08791,3.8248 -4.5968,4.30847 -5.51125,0.73963 -10.98095,-0.70277 -16.40832,-1.47512 -7.26116,-0.86666 -14.57843,-1.01335 -21.88185,-1.13026 -5.50931,-0.0696 -11.01912,-0.0628 -16.52874,-0.0572 -4.79519,-0.75007 -11.41939,2.32646 -15.52988,-0.79983 -2.73715,-4.69645 -2.14795,-10.75109 -2.22236,-16.0102 0.002,-11.57441 1.53088,-23.10161 2.95031,-34.57247 1.68414,-13.82295 3.30256,-27.65826 5.55742,-41.40199 1.13969,-7.95315 2.9582,-15.95748 2.50249,-24.02817 0,0 2.81525,-0.0157 2.81525,-0.0157 l 0,0 c 0.44422,8.09405 -1.37618,16.11648 -2.54222,24.08921 -2.27766,13.73707 -3.89034,27.56967 -5.567,41.39056 -1.40938,11.4583 -2.93184,22.97295 -2.9117,34.53429 0.0823,5.14308 -0.54265,11.20056 2.2424,15.74559 0.39988,0.26889 1.19573,0.3248 1.19964,0.80666 0.003,0.41029 -1.59076,0.22209 -1.19056,0.31263 3.07717,0.69613 6.7731,-1.53805 9.91325,-0.49111 7.36187,-0.007 14.72415,-0.0254 22.08565,0.063 7.30845,0.1223 14.63132,0.27584 21.89537,1.16403 5.14583,0.74223 7.28495,1.79854 10.808,1.48231 2.39812,-0.41073 4.88011,-0.94324 4.57256,-3.9146 6e-5,-3.37686 0.0138,-6.75449 0.19583,-10.12763 0.34455,-5.50377 1.00797,-10.96382 2.08537,-16.37689 1.21753,-6.92516 1.71197,-13.90957 2.60897,-20.88157 0.85618,-7.71657 0.54972,-15.38759 -0.26609,-23.11015 -0.85764,-9.00442 -1.97703,-18.01994 -0.9246,-27.06735 0.64303,-8.67442 1.98984,-17.29951 2.17556,-25.99408 0.0394,-4.64136 0.29607,-9.32887 -0.2236,-13.94725 5.49547,-1.90213 -0.29168,-0.37525 -1.89058,-0.67885 -3.88001,0.29947 -7.70687,0.89828 -11.44259,2.02884 -5.8782,1.42554 -11.86632,1.78534 -17.84601,2.65955 -6.92774,0.97743 -13.86369,1.04625 -20.84021,1.49957 -7.79415,0.7569 -15.56466,1.85856 -23.02095,4.35832 0,0 -2.80632,-0.35235 -2.80632,-0.35235 z" />
    <path
       style="fill:#000000;fill-opacity:1;stroke:#000000;stroke-width:10;stroke-miterlimit:4;stroke-opacity:1;stroke-dasharray:none"
       id="path2824"
       d="m 441.75187,835.07875 c 0.90917,10.40965 2.72071,20.70126 3.89646,31.08014 1.1326,11.10268 1.30287,22.26944 1.43999,33.41922 0.20007,9.88542 -1.26862,19.70473 -2.0253,29.54549 -0.5428,7.45679 -0.71391,14.93217 -0.79169,22.40593 -0.0408,5.41135 -0.0216,10.82288 -0.0136,16.23431 0.30351,4.24645 -1.18831,7.6068 -4.1674,10.51447 -3.78378,2.69547 -8.58715,2.6818 -13.04949,2.86084 -9.619,0.16417 -19.2409,0.0765 -28.86095,0.0545 -14.73274,-0.47156 -29.40979,0.4652 -44.1115,1.24362 -21.62986,1.2742 -43.27047,1.37507 -64.91747,0.65218 -27.67712,-1.57762 -55.36792,-0.76446 -83.00043,1.12146 -32.69681,2.56337 -64.89679,9.19947 -97.01778,15.56433 -24.410757,5.04906 -48.789908,10.13216 -73.443323,13.84786 0,0 -2.640333,-0.3779 -2.640333,-0.3779 l 0,0 c 24.66157,-3.7002 49.04643,-8.7801 73.462286,-13.83274 32.12527,-6.36577 64.32801,-13.00922 97.02657,-15.59704 29.38881,-2.0221 58.84806,-2.72593 88.28499,-1.1401 19.85701,0.65395 39.69751,0.56528 59.54012,-0.65187 16.51325,-0.87545 33.02151,-1.66468 49.5652,-1.26447 7.77567,0.0166 15.55284,0.0862 23.32771,-0.0499 4.42327,-0.16203 9.193,-0.11237 13.01048,-2.65841 2.98142,-2.82793 4.46684,-6.08761 4.16574,-10.28636 -0.007,-5.41257 -0.0149,-10.82526 0.0243,-16.23774 0.083,-7.48012 0.26384,-14.96152 0.81121,-22.42435 0.75569,-9.83292 2.23415,-19.64298 2.0347,-29.52072 -0.128,-11.14057 -0.30583,-22.29788 -1.43729,-33.39113 -1.17734,-10.37887 -2.97274,-20.67234 -3.93345,-31.07647 0,0 2.82021,-0.0351 2.82021,-0.0351 z" />
    <path
       style="fill:#000000;fill-opacity:1;stroke:#000000;stroke-width:10;stroke-miterlimit:4;stroke-opacity:1;stroke-dasharray:none"
       id="path2826"
       d="m 179.92069,259.68995 c 6.50835,7.19063 14.9242,12.25364 23.02584,17.43536 9.20462,4.83977 18.53681,9.36004 27.2292,15.09358 6.0144,3.87134 12.03317,7.81678 17.69622,12.18833 2.2751,1.90078 4.90164,4.54121 4.56508,7.73376 -1.35026,4.62162 -5.14462,8.16901 -8.30965,11.6334 -6.76478,6.607 -13.47133,13.28186 -20.10396,20.03205 -7.46946,7.51701 -14.58248,15.42886 -20.83099,23.99515 -2.05195,2.98132 -1.07103,1.67709 -2.88386,3.95631 0,0 -2.82513,-0.19187 -2.82513,-0.19187 l 0,0 c 1.83796,-2.25287 0.84543,-0.95632 2.9089,-3.94129 6.2676,-8.5726 13.38423,-16.50047 20.86134,-24.03376 6.62196,-6.7469 13.29938,-13.43729 20.06941,-20.02463 3.12722,-3.4197 6.88015,-6.9186 8.2717,-11.45718 0.36897,-3.07113 -2.39201,-5.63363 -4.53278,-7.44394 -5.67503,-4.34105 -11.65054,-8.31768 -17.66672,-12.17056 -8.69889,-5.71571 -18.03742,-10.21607 -27.21852,-15.09104 -8.12639,-5.20496 -16.55745,-10.29621 -23.07764,-17.523 0,0 2.82156,-0.19067 2.82156,-0.19067 z" />
    <path
       style="fill:#000000;fill-opacity:1;stroke:#000000;stroke-width:10;stroke-miterlimit:4;stroke-opacity:1;stroke-dasharray:none"
       id="path2828"
       d="m 224.61124,170.16306 c 1.09452,7.83271 1.71921,15.71638 2.18765,23.60765 -0.18089,5.40107 1.05307,10.61029 2.06844,15.86779 0.83765,2.9993 2.00831,5.90087 3.43402,8.66742 0.0736,-0.0114 0.14715,-0.0228 0.22073,-0.0342 0,0 -2.83179,0.355 -2.83179,0.355 l 0,0 c -0.0778,-0.0622 -0.15563,-0.12442 -0.23345,-0.18662 -1.41006,-2.79952 -2.58215,-5.72354 -3.41561,-8.74768 -1.01583,-5.26929 -2.23845,-10.4935 -2.05444,-15.90532 -0.4502,-7.88487 -1.06979,-15.76332 -2.20022,-23.58392 0,0 2.82467,-0.0401 2.82467,-0.0401 z" />
    <path
       style="fill:#000000;fill-opacity:1;stroke:#000000;stroke-width:10;stroke-miterlimit:4;stroke-opacity:1;stroke-dasharray:none"
       id="path2830"
       d="m 227.58706,125.3154 c -1.32678,4.87974 -0.67968,2.32582 -1.91792,7.66763 0,0 -2.79945,-0.0634 -2.79945,-0.0634 l 0,0 c 1.22801,-5.35651 0.59089,-2.79317 1.89048,-7.69518 0,0 2.82689,0.091 2.82689,0.091 z" />
    <path
       style="fill:#000000;fill-opacity:1;stroke:#000000;stroke-width:10;stroke-miterlimit:4;stroke-opacity:1;stroke-dasharray:none"
       id="path2832"
       d="m 529.98406,511.89738 c -0.39726,8.71862 0.25556,17.34516 1.28245,25.99157 0.29437,5.75041 1.53185,11.28948 3.20474,16.7741 2.86097,3.01612 0.13351,1.98019 -0.30822,0.98574 -0.20213,-0.45504 0.72113,-0.69148 1.02888,-1.08289 1.26193,-1.60499 1.51429,-2.3071 2.49553,-4.16899 3.62893,-7.24837 7.90274,-14.13354 12.15705,-21.02342 3.7436,-6.7992 7.68335,-13.47556 11.5258,-20.21714 1.10319,-3.17523 3.55721,-5.55031 4.99489,-8.528 0.31374,-0.69653 0.56725,-1.41701 0.75886,-2.15587 0,0 2.85189,0.072 2.85189,0.072 l 0,0 c -0.1942,0.75745 -0.45234,1.49601 -0.77082,2.21084 -1.42607,3.00056 -3.90702,5.35913 -5.01782,8.54741 -3.86035,6.73992 -7.81597,13.41417 -11.55458,20.22506 -4.24364,6.88432 -8.51742,13.75782 -12.12671,21.00497 -1.49971,2.89429 -5.49467,10.28903 -8.86686,4.21354 -1.65203,-5.50469 -2.88354,-11.06064 -3.17507,-16.82435 -1.0187,-8.65798 -1.65568,-17.29574 -1.30528,-26.02455 0,0 2.82527,0 2.82527,0 z" />
    <path
       style="fill:#000000;fill-opacity:1;stroke:#000000;stroke-width:10;stroke-miterlimit:4;stroke-opacity:1;stroke-dasharray:none"
       id="path2834"
       d="m 603.92991,551.57898 c -1.07667,6.65609 -1.71663,13.37266 -2.19793,20.09489 -0.17079,2.87757 -0.29868,5.75885 -0.32607,8.64166 0.0482,0.45854 -0.21591,0.76544 0.33561,0.51494 0,0 -2.82345,0.406 -2.82345,0.406 l 0,0 c -0.46117,-0.31734 -0.37969,-0.37963 -0.36192,-0.92458 0.0463,-2.88849 0.18158,-5.77511 0.35476,-8.65853 0.49864,-6.72935 1.14861,-13.45151 2.18994,-20.1211 0,0 2.82906,0.0467 2.82906,0.0467 z" />
    <path
       style="fill:#000000;fill-opacity:1;stroke:#000000;stroke-width:10;stroke-miterlimit:4;stroke-opacity:1;stroke-dasharray:none"
       id="path2836"
       d="m 550.32772,731.53226 c 1.3185,8.92961 3.14151,17.78968 5.05975,26.611 1.36984,7.3146 3.29985,14.54695 6.69777,21.19038 1.3015,2.04608 2.37483,4.78492 4.69568,5.95975 0.28482,0.14418 1.22507,0.32813 0.93963,0.18517 -0.57064,-0.2858 -1.20728,-0.41437 -1.81092,-0.62155 3.19055,-3.67858 3.59362,-9.08431 4.58197,-13.69504 1.25598,-9.18379 3.97399,-18.0501 6.85829,-26.82681 2.00475,-6.09041 4.45604,-11.6358 9.25092,-15.97964 1.21199,-1.07363 2.40772,-1.83777 4.00757,-2.05221 0,0 2.81705,0.41432 2.81705,0.41432 l 0,0 c -1.61063,0.14139 -2.77486,0.78507 -4.0025,1.87573 -4.83091,4.27021 -7.27513,9.76447 -9.27636,15.83078 -2.89068,8.76386 -5.61721,17.61795 -6.84565,26.79684 -0.9956,4.69672 -1.42664,10.09777 -4.56415,13.91605 -1.27857,0.23843 -2.53993,0.60335 -3.83572,0.71531 -2.67256,0.23091 -4.48193,-4.87417 -5.63023,-6.38615 -3.37786,-6.67545 -5.30902,-13.92722 -6.67598,-21.26319 -1.91532,-8.82921 -3.72934,-17.69457 -5.09618,-26.62402 0,0 2.82906,-0.0467 2.82906,-0.0467 z" />
    <path
       style="fill:#000000;fill-opacity:1;stroke:#000000;stroke-width:10;stroke-miterlimit:4;stroke-opacity:1;stroke-dasharray:none"
       id="path2838"
       d="m 609.21736,796.89502 c 6.68167,-4.06641 13.89322,-6.90079 21.41184,-8.9483 4.66119,-1.27582 10.9751,-1.61828 12.3205,4.02535 -0.10282,5.3125 -2.45291,10.48856 -4.82031,15.17168 -1.19247,3.40766 -5.37148,7.89383 -3.7022,11.65926 1.97792,1.93778 5.16699,1.99525 7.73736,2.84117 3.5461,1.0825 6.89129,2.69356 10.40619,3.89398 1.64947,0.44488 3.33838,0.7181 5.03663,0.88574 0,0 -2.81888,0.41618 -2.81888,0.41618 l 0,0 c -1.69875,-0.19033 -3.38973,-0.47334 -5.03379,-0.95108 -3.50553,-1.21463 -6.84954,-2.82965 -10.40206,-3.8897 -2.61609,-0.8414 -5.90921,-0.87494 -7.76387,-3.08446 -1.5581,-3.9866 2.3845,-8.32695 3.72665,-11.90334 2.35137,-4.61508 4.68261,-9.72935 4.79937,-14.97109 -0.55739,-2.19649 -2.65864,-3.2385 -2.83783,-3.84837 -0.10151,-0.34548 1.2865,-0.39362 0.94833,-0.51733 -1.14381,-0.41844 -3.82835,0.40748 -4.80676,0.63865 -7.51436,2.01361 -14.74135,4.7916 -21.39187,8.89397 0,0 -2.8093,-0.31231 -2.8093,-0.31231 z" />
    <path
       style="fill:#000000;fill-opacity:1;stroke:#000000;stroke-width:10;stroke-miterlimit:4;stroke-opacity:1;stroke-dasharray:none"
       id="path2840"
       d="m -7.1223684,926.42917 c 0.4204498,-16.67608 1.5546465,-33.33135 2.1195282,-50.00967 1.2332468,-24.25593 -0.1253045,-48.48607 -1.7358802,-72.68235 -2.351429,-26.66804 -5.5313646,-53.26917 -8.9872566,-79.81602 -2.194433,-19.34108 -4.752865,-38.62024 -7.810162,-57.84268 -2.79015,-15.54765 -6.997511,-30.7903 -11.162121,-46.01271 -2.702347,-11.33877 -6.42757,-22.3869 -9.663466,-33.57338 -1.170126,-5.18107 -2.186678,-10.27242 -4.042175,-15.2455 -0.369548,-1.13124 -0.825808,-2.31833 -1.332961,-3.3434 0,0 2.845784,-0.20735 2.845784,-0.20735 l 0,0 c 0.702469,0.99891 0.736969,2.38425 1.319797,3.4496 1.855268,4.97805 2.822457,10.08887 4.007183,15.26803 3.220396,11.18833 6.923751,22.24078 9.618015,33.57861 4.153196,15.23517 8.384752,30.48296 11.161718,46.04283 3.037837,19.22559 5.565934,38.50854 7.745905,57.85126 3.4373709,26.55481 6.6224014,53.1601 8.9835705,79.83282 1.6202225,24.205 2.9812348,48.44348 1.7701672,72.70934 -0.5528095,16.67371 -1.6898895,33.32756 -2.0214807,50.00057 0,0 -2.8161654,0 -2.8161654,0 z" />
    <path
       style="fill:#000000;fill-opacity:1;stroke:#000000;stroke-width:10;stroke-miterlimit:4;stroke-opacity:1;stroke-dasharray:none"
       id="path2842"
       d="m -75.69835,638.54127 c 0.798732,-11.81304 4.826414,-23.0795 8.613204,-34.19846 4.426658,-12.94718 9.958648,-25.45065 16.503568,-37.45643 3.190138,-4.54623 5.657203,-14.05004 12.002827,-15.32982 1.393376,0.23094 2.852302,0.21145 4.180129,0.6928 1.830444,0.66356 8.516519,11.82046 9.671183,13.63751 6.8651,10.06941 15.961244,18.22115 25.48071856,25.69943 7.74612824,6.03595 16.04456044,10.99593 25.16228644,14.60758 0,0 -2.7731,0.33193 -2.7731,0.33193 l 0,0 c -9.10521,-3.65657 -17.4002266,-8.64654 -25.1463943,-14.68954 -9.5306577,-7.51124 -18.6422837,-15.69029 -25.5140707,-25.79093 -2.550946,-3.9933 -5.044614,-8.56774 -8.151524,-12.17029 -0.441075,-0.51144 -1.513354,-0.63257 -1.548134,-1.30703 -0.02699,-0.52347 0.966179,-0.40682 1.449268,-0.61023 -5.696187,0.60336 -9.372816,10.99362 -12.039248,15.06739 -6.559349,11.98401 -12.097305,24.47186 -16.518602,37.40815 -3.768822,11.0868 -7.799685,22.32517 -8.54684,34.10794 0,0 -2.825271,0 -2.825271,0 z" />
    <path
       style="fill:#000000;fill-opacity:1;stroke:#000000;stroke-width:10;stroke-miterlimit:4;stroke-opacity:1;stroke-dasharray:none"
       id="path2844"
       d="m -254.02592,719.67446 c 10.32551,13.22928 15.53829,29.74667 20.78348,45.46686 6.58101,20.48518 10.87623,41.62734 17.25718,62.16732 0.56017,1.47889 1.98017,5.75768 3.18046,7.43179 0.23848,0.33262 1.40078,0.84266 1.03183,0.6655 -0.6117,-0.29373 -1.62282,-0.35304 -1.76354,-1.01686 -0.20199,-0.95282 0.69965,-1.821 0.96316,-2.75867 0.43928,-1.56314 0.76186,-3.15675 1.14279,-4.73512 4.38278,-20.75198 8.70802,-41.50562 13.43555,-62.18324 6.21285,-25.53774 14.23053,-50.63129 23.14331,-75.34726 2.61297,-6.873 5.67426,-13.55829 8.62526,-20.28855 0,0 2.77825,0.11532 2.77825,0.11532 l 0,0 c -2.97322,6.72267 -6.06346,13.39713 -8.68992,20.26745 -8.95886,24.69213 -16.98857,49.77813 -23.18512,75.31299 -4.70865,20.6754 -9.01318,41.42616 -13.31598,62.18855 -0.11137,0.47426 -1.5757,7.25205 -2.06899,7.65465 -5.51689,4.50264 -6.77738,-4.26899 -8.03714,-7.22394 -6.29754,-20.55691 -10.59529,-41.68965 -17.1932,-62.16287 -5.25979,-15.6837 -10.48032,-32.20688 -20.90362,-45.33227 0,0 2.81624,-0.22165 2.81624,-0.22165 z" />
  </g>
</svg>
