<?xml version="1.0" encoding="UTF-8" standalone="no"?>
<!-- Created with Inkscape (http://www.inkscape.org/) -->

<svg
   xmlns:dc="http://purl.org/dc/elements/1.1/"
   xmlns:cc="http://creativecommons.org/ns#"
   xmlns:rdf="http://www.w3.org/1999/02/22-rdf-syntax-ns#"
   xmlns:svg="http://www.w3.org/2000/svg"
   xmlns="http://www.w3.org/2000/svg"
   xmlns:sodipodi="http://sodipodi.sourceforge.net/DTD/sodipodi-0.dtd"
   xmlns:inkscape="http://www.inkscape.org/namespaces/inkscape"
   width="724.55713"
   height="757.25903"
   id="svg2867"
   version="1.1"
   inkscape:version="0.47pre4 r22446"
   sodipodi:docname="New document 3">
  <defs
     id="defs2869">
    <inkscape:perspective
       sodipodi:type="inkscape:persp3d"
       inkscape:vp_x="0 : 526.18109 : 1"
       inkscape:vp_y="0 : 1000 : 0"
       inkscape:vp_z="744.09448 : 526.18109 : 1"
       inkscape:persp3d-origin="372.04724 : 350.78739 : 1"
       id="perspective2875" />
  </defs>
  <sodipodi:namedview
     id="base"
     pagecolor="#ffffff"
     bordercolor="#666666"
     borderopacity="1.0"
     inkscape:pageopacity="0.0"
     inkscape:pageshadow="2"
     inkscape:zoom="0.35"
     inkscape:cx="340.72991"
     inkscape:cy="406.30002"
     inkscape:document-units="px"
     inkscape:current-layer="layer1"
     showgrid="false"
     inkscape:window-width="1280"
     inkscape:window-height="726"
     inkscape:window-x="0"
     inkscape:window-y="25"
     inkscape:window-maximized="1" />
  <metadata
     id="metadata2872">
    <rdf:RDF>
      <cc:Work
         rdf:about="">
        <dc:format>image/svg+xml</dc:format>
        <dc:type
           rdf:resource="http://purl.org/dc/dcmitype/StillImage" />
        <dc:title></dc:title>
      </cc:Work>
    </rdf:RDF>
  </metadata>
  <g
     inkscape:label="Layer 1"
     inkscape:groupmode="layer"
     id="layer1"
     transform="translate(-34.270086,-181.40317)">
    <path
       style="fill:#000000;fill-opacity:1;stroke:#000000;stroke-width:10;stroke-miterlimit:4;stroke-opacity:1;stroke-dasharray:none"
       id="path2877"
       d="m 112.02666,187.51703 c 8.91966,5.37327 18.08201,10.25595 27.49819,14.69707 10.33469,4.34428 21.29361,6.85564 32.35364,8.45706 12.60567,1.71538 25.32692,0.65188 37.92948,-0.52343 17.65765,-1.93484 35.28484,-4.15364 52.93211,-6.19607 18.60753,-1.86818 37.26534,-3.21767 55.86894,-5.12437 17.46899,-1.83952 35.00131,-2.8812 52.4277,-5.12196 14.1489,-2.08407 28.38629,-3.33804 42.66457,-4.03441 10.15732,-0.23868 20.22656,-1.71402 30.34953,-2.48946 7.56831,-0.53989 15.15634,-0.6843 22.74108,-0.75614 5.40835,-0.0335 10.81685,-0.022 16.22526,-0.0107 2.68884,0.006 5.37769,0.009 8.06655,0.0101 0.62232,0.001 3.44009,-0.002 0.35575,0.001 4.41067,-0.0459 6.92313,1.41631 8.62768,5.37896 2.20381,3.79353 2.89593,8.05643 4.04131,12.21084 1.70915,6.02256 2.38494,12.25554 3.53577,18.39986 1.22031,8.20157 2.41118,16.41129 3.46119,24.63916 1.32324,11.41792 1.48876,22.92245 1.64058,34.40231 0.12466,14.31662 0.0935,28.63408 0.0831,42.95109 0.43158,16.08591 -1.72866,32.04305 -3.38747,47.99917 -1.66032,14.60208 -3.90177,29.12082 -5.87592,43.67985 -0.66908,8.08331 -1.89602,16.04912 -3.82122,23.92434 -0.59693,1.12104 -0.30922,3.39604 -1.52252,4.1167 -4.27394,-0.32228 -7.90995,-2.43659 -11.79399,-4.01753 -4.26855,-1.49346 -8.8359,-1.59599 -13.30824,-1.75195 0.0305,0.0923 0.1854,0.25183 0.0915,0.27688 -1.81681,0.48454 -3.73047,0.50495 -5.56829,0.9024 -2.92508,0.63259 -5.75087,1.59955 -8.54167,2.65765 -6.61922,3.04679 -12.17315,7.86885 -17.18263,13.07431 -5.75494,7.61629 -10.01359,16.17765 -14.00093,24.80745 -3.82364,8.08803 -5.3736,16.83627 -6.16642,25.66694 -0.83219,7.69674 0.76762,15.02186 4.09028,21.92606 4.11653,7.76144 10.80154,13.30669 17.81624,18.33643 9.49562,7.08799 20.72232,9.39049 32.20658,10.84928 11.15231,1.70875 21.85508,-1.09193 32.1921,-5.06521 8.44983,-2.9936 16.20432,-7.10912 22.35619,-13.67886 4.03517,-5.68285 5.05201,-12.17735 4.49399,-18.95669 -1.22549,-6.47647 -4.22234,-12.38891 -6.63124,-18.47187 -2.64641,-7.01515 -7.08593,-12.90476 -11.91629,-18.53333 -3.70437,-4.73936 -8.41315,-8.37785 -13.16149,-11.98357 -2.8784,-1.6289 -5.75547,-3.24452 -8.54747,-5.02354 -0.99629,-0.48171 -1.16661,-1.21708 -1.45603,-2.21415 0,0 2.84165,-0.0837 2.84165,-0.0837 l 0,0 c 0.30207,0.95219 0.50076,1.55014 1.44275,2.01305 2.79185,1.77935 5.68732,3.36543 8.53407,5.04854 4.74778,3.62174 9.43827,7.29633 13.14321,12.04485 4.84168,5.65735 9.27668,11.58169 11.92673,18.62578 2.42505,6.10564 5.4343,12.04451 6.63943,18.55491 0.55806,6.85528 -0.47434,13.41824 -4.50732,19.19023 -6.14442,6.63051 -13.90728,10.79886 -22.39755,13.80184 -12.16566,4.71892 -24.58695,7.12092 -37.69933,5.13084 -11.50917,-1.49189 -22.73519,-3.8646 -32.23828,-10.98436 -7.0371,-5.06974 -13.73196,-10.66163 -17.84131,-18.47514 -3.31959,-6.95647 -4.93096,-14.33339 -4.08977,-22.07655 0.79787,-8.86178 2.34956,-17.64352 6.18203,-25.76242 3.99222,-8.65693 8.26249,-17.23579 13.99431,-24.90069 5.00237,-5.24544 10.57081,-10.0845 17.18057,-13.19897 6.28722,-2.43463 12.82469,-3.92882 19.60361,-3.92988 4.48624,0.16745 9.06713,0.29291 13.33207,1.84915 2.66119,1.09253 7.83897,3.34939 7.83852,3.35156 -0.12232,0.58689 -1.12334,0.41919 -1.68502,0.62879 1.08604,0.0794 1.09355,-3.18181 1.52307,-3.81373 1.96167,-7.85999 3.20029,-15.81702 3.87756,-23.8933 1.98227,-14.55586 4.24105,-29.07008 5.89667,-43.67089 1.65608,-15.9469 3.824,-31.89396 3.38143,-47.97085 0.005,-14.31572 0.0342,-28.63188 -0.0977,-42.94716 -0.16099,-11.46943 -0.33195,-22.96374 -1.66203,-34.37051 -1.05747,-8.22214 -2.25767,-16.42563 -3.477,-24.62258 -1.15687,-6.13625 -1.83276,-12.36279 -3.55102,-18.37619 -1.13843,-4.14459 -1.85539,-8.38698 -4.05106,-12.16953 -0.65953,-1.47457 -1.2348,-2.48356 -2.50482,-3.50798 -0.34807,-0.28076 -0.69868,-0.5628 -1.08188,-0.79331 -0.30766,-0.18506 -1.20291,-0.16551 -0.97998,-0.44694 0.33196,-0.41906 1.04985,-0.20262 1.57477,-0.30394 -1.9897,6.9e-4 -3.97939,0.003 -5.96908,-2.8e-4 -2.68556,-0.003 -5.37112,-0.006 -8.05667,-0.0121 -4.41251,-0.0105 -6.24169,-0.0195 -10.6434,0.006 -7.59024,0.0666 -15.18384,0.20326 -22.7582,0.73456 -10.13063,0.76457 -20.2052,2.24981 -30.36828,2.49439 -14.28746,0.68307 -28.53547,1.92007 -42.69279,4.00784 -17.42921,2.25681 -34.96622,3.29209 -52.44026,5.12729 -18.60306,1.91774 -37.2624,3.2591 -55.87117,5.12053 -17.64099,2.03875 -35.26106,4.25873 -52.91063,6.20516 -14.40855,1.36646 -28.99304,2.34195 -43.40697,0.51344 -11.06625,-1.62776 -22.03503,-4.15571 -32.36535,-8.53865 -9.42433,-4.45449 -18.5781,-9.3782 -27.54231,-14.69847 0,0 2.8093,-0.31231 2.8093,-0.31231 z" />
    <path
       style="fill:#000000;fill-opacity:1;stroke:#000000;stroke-width:10;stroke-miterlimit:4;stroke-opacity:1;stroke-dasharray:none"
       id="path2879"
       d="m 478.21562,560.15041 c -1.06641,7.36709 -1.74767,14.75011 -3.01971,22.08606 -1.18161,7.11986 -2.2565,14.30323 -1.85506,21.52925 0.62082,5.13396 1.47257,10.23345 2.0127,15.37756 0.29525,3.13472 0.34263,6.28328 0.36626,9.42927 0.007,2.83986 -0.005,5.67973 -0.008,8.51959 -0.007,3.12815 -0.009,6.25631 -0.006,9.38447 -0.002,1.77667 5.7e-4,3.55335 0.006,5.33001 1.7e-4,0.20407 0.002,0.40815 0.003,0.61222 -3.06811,1.07705 -5.68956,2.64296 -8.32447,4.52595 -5.33473,3.73803 -9.86033,8.36214 -14.15911,13.21562 -6.35841,7.47481 -12.30955,15.23219 -17.00416,23.86899 -4.71166,8.25131 -7.59294,17.24855 -8.08072,26.72619 -0.45209,9.17901 3.2217,17.20685 7.64217,24.97987 5.6844,8.60234 14.01854,13.92625 23.59006,17.22205 11.81679,3.63152 20.48992,2.53899 32.09327,-0.59749 12.6955,-3.36523 23.07476,-10.56226 32.61919,-19.30779 10.07222,-9.99187 16.58777,-22.54031 21.2719,-35.77568 3.4803,-10.42243 3.9419,-19.54849 -1.51683,-29.21317 -4.53399,-7.02959 -12.12677,-9.92148 -19.65765,-12.58502 -8.19891,-2.46495 -16.69539,-3.90983 -25.1198,-5.41629 -5.32409,-0.92686 -10.71208,-1.37076 -16.10356,-1.64842 0,0 2.79006,-0.42683 2.79006,-0.42683 l 0,0 c 5.38729,0.29123 10.77041,0.74826 16.08905,1.68606 8.42646,1.51951 16.93148,2.95065 25.123,5.46197 7.57696,2.69464 15.16184,5.68603 19.68056,12.78526 5.42686,9.75259 4.98939,18.96415 1.47851,29.45041 -4.68964,13.27276 -11.20309,25.8685 -21.27738,35.91053 -9.54034,8.78481 -19.91265,16.03804 -32.62464,19.4402 -12.42654,3.40889 -25.10754,4.41702 -37.60932,0.57962 -9.595,-3.36986 -17.94095,-8.75834 -23.6186,-17.42115 -4.43176,-7.82511 -8.10454,-15.90938 -7.64785,-25.13846 0.48631,-9.51755 3.36451,-18.56147 8.09325,-26.85034 4.68348,-8.66231 10.64094,-16.43321 16.99402,-23.93323 4.29606,-4.86944 8.80494,-9.52185 14.13814,-13.28149 2.54049,-1.81204 5.09513,-3.83035 8.28384,-4.25702 9.9e-4,-0.20418 0.002,-0.40836 0.003,-0.61255 0.005,-1.77669 0.007,-3.55339 0.006,-5.33009 0.005,-3.1283 0.004,-6.25661 0.007,-9.38492 0.007,-2.83904 0.0153,-5.6781 0.008,-8.51714 -0.0192,-3.13675 -0.0688,-6.27619 -0.35899,-9.40189 -0.5292,-5.149 -1.38445,-10.25192 -1.99054,-15.39134 -0.39943,-7.24853 0.66809,-14.45139 1.85985,-21.59286 1.26781,-7.3349 1.96984,-14.71333 2.9952,-22.0847 0,0 2.82906,0.0467 2.82906,0.0467 z" />
    <path
       style="fill:#000000;fill-opacity:1;stroke:#000000;stroke-width:10;stroke-miterlimit:4;stroke-opacity:1;stroke-dasharray:none"
       id="path2881"
       d="m 498.55549,771.89738 c -0.0233,10.05939 -0.0213,20.11883 -0.0226,30.17824 0.003,10.57418 0.004,21.14835 0.005,31.72253 0.004,8.3799 0.005,16.7598 0.009,25.1397 0.002,6.79893 -0.002,13.59786 0.005,20.39679 -0.30589,4.80688 0.0937,9.3963 1.29999,14.04128 1.1604,3.037 0.93346,4.17814 -2.36891,4.78592 -5.53198,0.57131 -11.0313,0.23511 -16.50616,-0.63467 -9.91726,-1.5474 -19.97571,-1.57199 -29.96916,-2.25204 -18.03685,-1.88177 -36.10952,-1.58657 -54.19841,-1.10973 -22.49088,1.08665 -44.92813,3.14723 -67.21544,6.34459 -20.62436,2.86854 -41.14751,6.53573 -61.53868,10.75045 -17.33516,3.56039 -34.75245,6.70188 -52.094,10.22675 -12.66182,2.34497 -25.29528,4.88022 -38.04125,6.73786 -6.40158,0.57296 -12.64437,2.15382 -18.89721,3.56509 -3.86569,1.74312 -1.39636,2.83808 -6.17556,0.66584 0,0 2.83963,-0.0515 2.83963,-0.0515 l 0,0 c -5.72683,2.46787 -0.60453,0.015 0.52887,-0.99549 6.27018,-1.40677 12.52625,-3.01315 18.94439,-3.58047 12.75945,-1.83966 25.40206,-4.38143 38.07632,-6.71704 17.34786,-3.53253 34.77561,-6.66088 52.11843,-10.22248 20.39654,-4.22491 40.92796,-7.8906 61.5588,-10.76441 22.28588,-3.2108 44.72281,-5.27206 67.21303,-6.37684 19.88932,-0.52971 39.77821,-0.86433 59.61106,1.11369 10.0138,0.66331 20.09195,0.70379 30.02643,2.2687 4.62411,0.71989 6.33335,1.09648 10.90705,0.63475 3.67133,-0.57312 3.44891,-0.88068 2.35015,-4.31753 -1.19647,-4.66896 -1.59822,-9.28529 -1.28774,-14.11276 0.007,-6.79893 0.003,-13.59786 0.005,-20.39679 0.004,-8.3799 0.005,-16.7598 0.009,-25.1397 9.7e-4,-10.57418 0.002,-21.14835 0.005,-31.72253 -10e-4,-10.05941 7.3e-4,-20.11885 -0.0226,-30.17824 0,0 2.82527,0 2.82527,0 z" />
    <path
       style="fill:#000000;fill-opacity:1;stroke:#000000;stroke-width:10;stroke-miterlimit:4;stroke-opacity:1;stroke-dasharray:none"
       id="path2883"
       d="m 477.47058,469.81797 c 1.19023,5.52727 1.68024,10.97144 0.90047,16.5712 -0.35694,1.89102 -0.16964,1.01981 -0.54379,2.61746 0,0 -2.84146,-0.0664 -2.84146,-0.0664 l 0,0 c 0.38223,-1.58002 0.19086,-0.71777 0.5554,-2.59081 0.80009,-5.57087 0.30451,-10.98707 -0.89968,-16.48472 0,0 2.82906,-0.0467 2.82906,-0.0467 z" />
    <path
       style="fill:#000000;fill-opacity:1;stroke:#000000;stroke-width:10;stroke-miterlimit:4;stroke-opacity:1;stroke-dasharray:none"
       id="path2885"
       d="m 450.93314,485.78819 c 8.66476,-2.5993 17.65798,-3.65844 26.63884,-4.41872 6.14234,-0.59444 12.26362,-0.57087 18.41661,-0.29271 0,0 -2.77945,0.41767 -2.77945,0.41767 l 0,0 c -3.82918,-1.47258 -8.89492,0.82448 -12.8735,0.2891 -8.96471,0.74392 -17.94289,1.78002 -26.59619,4.35701 0,0 -2.80631,-0.35235 -2.80631,-0.35235 z" />
    <path
       style="fill:#000000;fill-opacity:1;stroke:#000000;stroke-width:10;stroke-miterlimit:4;stroke-opacity:1;stroke-dasharray:none"
       id="path2887"
       d="m 464.31088,528.01238 c 7.16213,3.21175 14.76335,5.14804 22.21357,7.54052 4.45846,1.41965 9.02345,2.42066 13.65702,3.0427 1.27894,0.002 3.42581,0.8902 -0.86949,-0.71562 0,0 2.83883,0.13557 2.83883,0.13557 l 0,0 c -2.70934,0.92811 -2.71158,1.32136 -4.78088,0.98611 -4.62472,-0.64928 -9.18035,-1.66909 -13.63103,-3.09597 -7.45541,-2.39837 -15.05247,-4.36067 -22.23433,-7.54095 0,0 2.80631,-0.35236 2.80631,-0.35236 z" />
    <path
       style="fill:#000000;fill-opacity:1;stroke:#000000;stroke-width:10;stroke-miterlimit:4;stroke-opacity:1;stroke-dasharray:none"
       id="path2889"
       d="m 487.47058,671.53225 c 1.53299,7.61236 0.98059,15.35215 0.46424,23.0335 -0.28528,3.22537 -0.33201,6.47305 -0.68994,9.69217 0,0 -2.84861,-0.0335 -2.84861,-0.0335 l 0,0 c 0.40195,-3.2103 0.43173,-6.45779 0.72681,-9.67775 0.52658,-7.66032 1.09436,-15.3806 -0.48157,-22.96769 0,0 2.82907,-0.0467 2.82907,-0.0467 z" />
    <path
       style="fill:#000000;fill-opacity:1;stroke:#000000;stroke-width:10;stroke-miterlimit:4;stroke-opacity:1;stroke-dasharray:none"
       id="path2891"
       d="m 477.79266,688.96507 c 6.57488,-1.03402 13.20515,-1.43495 19.68437,-2.99653 2.24578,-0.63037 4.51875,-1.23833 6.6618,-2.1753 0.24887,-0.47383 0.14998,-0.20497 0.25757,-0.81989 0,0 2.84965,0.0466 2.84965,0.0466 l 0,0 c -0.11685,0.74733 -0.026,0.38058 -0.27352,1.09998 -2.13882,0.98971 -4.44924,1.56234 -6.70103,2.22313 -6.47531,1.58738 -13.09782,2.00207 -19.6773,3.0184 0,0 -2.80154,-0.39641 -2.80154,-0.39641 z" />
    <path
       style="fill:#000000;fill-opacity:1;stroke:#000000;stroke-width:10;stroke-miterlimit:4;stroke-opacity:1;stroke-dasharray:none"
       id="path2893"
       d="m 474.93553,740.39364 c 6.1396,-1.01485 12.3231,-1.68273 18.52136,-2.20512 1.70733,-0.13558 3.41537,-0.26633 5.12616,-0.34945 0.0296,-0.0555 0.0592,-0.11105 0.0888,-0.16658 0,0 2.85113,0.0839 2.85113,0.0839 l 0,0 c -0.0397,0.17316 -0.0794,0.34632 -0.11917,0.51949 -1.7201,0.0623 -3.43631,0.20342 -5.15247,0.33139 -6.19603,0.51128 -12.37804,1.16522 -18.51428,2.18274 0,0 -2.80154,-0.39642 -2.80154,-0.39642 z" />
    <path
       style="fill:#000000;fill-opacity:1;stroke:#000000;stroke-width:10;stroke-miterlimit:4;stroke-opacity:1;stroke-dasharray:none"
       id="path2895"
       d="m 661.41264,454.75453 c 0.0838,9.62431 1.36357,19.20262 2.0538,28.80146 0.82469,7.98113 2.08721,15.85538 4.42877,23.53332 1.31937,2.36205 2.17259,6.09773 4.70256,7.538 -0.46151,-0.34111 -1.43114,-0.45132 -1.38455,-1.02332 0.0628,-0.77129 1.13527,-1.06245 1.60456,-1.67775 0.68356,-0.89622 1.3027,-1.84624 1.83924,-2.8375 2.06492,-3.81499 3.5979,-8.01905 5.18587,-12.04511 2.3035,-7.21517 4.6983,-14.39638 6.36432,-21.79099 0.58301,-2.55281 0.90549,-5.16207 0.99385,-7.77801 0.0244,-0.28374 -0.007,-0.56654 -0.0225,-0.84853 0,0 2.85587,-0.0355 2.85587,-0.0355 l 0,0 c 0.0129,0.29765 0.0408,0.59567 0.0159,0.89444 -0.10297,2.63339 -0.42545,5.26185 -1.02143,7.83051 -1.68721,7.40591 -4.09325,14.59918 -6.39028,21.8331 -1.36168,3.45892 -5.1245,15.07998 -8.6046,16.72408 -1.32387,0.62544 -2.84517,0.69298 -4.26775,1.03947 -2.4539,-1.73406 -3.38636,-5.19834 -4.69096,-7.73997 -2.31328,-7.70438 -3.57653,-15.59731 -4.40069,-23.59625 -0.68477,-9.60745 -1.95499,-19.18996 -2.08721,-28.82142 0,0 2.82528,0 2.82528,0 z" />
    <path
       style="fill:#000000;fill-opacity:1;stroke:#000000;stroke-width:10;stroke-miterlimit:4;stroke-opacity:1;stroke-dasharray:none"
       id="path2897"
       d="m 715.69607,515.09629 c -0.0251,9.40064 -0.0159,18.80133 -0.0102,28.20199 0.003,3.74068 0.002,7.48138 0.0181,11.22203 0,0 -2.83667,0 -2.83667,0 l 0,0 c 0.0162,-3.74065 0.0151,-7.48135 0.0181,-11.22203 0.006,-9.40066 0.0149,-18.80135 -0.0102,-28.20199 0,0 2.82071,0 2.82071,0 z" />
    <path
       style="fill:#000000;fill-opacity:1;stroke:#000000;stroke-width:10;stroke-miterlimit:4;stroke-opacity:1;stroke-dasharray:none"
       id="path2899"
       d="m 664.26978,677.61167 c -0.0347,12.46378 -0.0319,24.92764 -0.0322,37.39146 0.34645,12.01633 -0.59853,24.09906 0.36068,36.08996 0.38511,2.4953 0.62314,5.0713 1.3963,7.49295 0.0854,0.26743 0.63439,0.78739 0.35465,0.76388 -3.36742,-0.28295 -2.53628,-0.75864 -1.89956,-2.82012 1.99088,-10.52545 3.75245,-21.1024 5.83451,-31.61551 2.33298,-11.16459 4.59773,-22.3896 7.44222,-33.43914 1.59793,-2.80792 1.19078,-7.49198 3.44189,-9.98904 3.60591,2.16171 2.98096,0.64463 3.15903,3.77483 0,0 -2.83123,0.0164 -2.83123,0.0164 l 0,0 c -0.1737,-2.95363 -0.6632,-1.59344 2.51384,-3.53386 -1.73008,2.85893 -2.36387,6.60114 -3.48248,9.80262 -2.86902,11.04033 -5.15256,22.26062 -7.48521,33.42212 -2.08005,10.51948 -3.82396,21.10398 -5.76295,31.64516 -3.18581,10.64745 -6.06635,-4.26169 -5.47978,-5.49836 -0.92057,-12.00085 0.0165,-24.08744 -0.32285,-36.11185 -3e-4,-12.46382 0.003,-24.92768 -0.0322,-37.39146 0,0 2.82527,0 2.82527,0 z" />
    <path
       style="fill:#000000;fill-opacity:1;stroke:#000000;stroke-width:10;stroke-miterlimit:4;stroke-opacity:1;stroke-dasharray:none"
       id="path2901"
       d="m 689.21736,762.60931 c 6.38365,-3.66216 12.93452,-6.95252 20.03191,-8.94741 4.7652,-0.6768 9.92386,-1.37054 11.68806,3.79933 -0.0392,4.98394 -2.05858,9.79376 -3.81567,14.40118 -1.81036,4.78708 -4.04936,9.48442 -2.76232,14.63596 1.35812,4.11167 5.22894,4.91333 9.06166,5.46466 4.09772,0.37019 8.11256,0.27906 11.90921,0.25784 3.76979,-0.0263 7.53956,-0.0556 11.30941,-0.0721 1.1074,-0.23196 4.56467,0.88931 4.32452,-1.06591 0,0 2.85054,-0.0305 2.85054,-0.0305 l 0,0 c 0.23179,2.43837 -2.80776,1.38037 -4.37062,1.53938 -3.77589,0.0146 -7.5517,0.0423 -11.32753,0.0688 -5.83003,0.0344 -11.68302,0.19536 -17.49812,-0.29653 -3.9274,-0.61978 -7.74944,-1.58373 -9.08548,-5.7977 -1.25736,-5.22751 0.90809,-9.95505 2.77278,-14.80672 1.73851,-4.54055 3.72992,-9.29316 3.79686,-14.20276 -1.29723,-3.60077 -3.58178,-4.02268 -6.06263,-3.53008 -7.09962,1.94634 -13.66029,5.19833 -20.01328,8.89487 0,0 -2.8093,-0.31231 -2.8093,-0.31231 z" />
    <path
       style="fill:#000000;fill-opacity:1;stroke:#000000;stroke-width:10;stroke-miterlimit:4;stroke-opacity:1;stroke-dasharray:none"
       id="path2903"
       d="m 137.87078,243.36525 c -2.53839,8.89099 -3.61122,18.09099 -4.40117,27.27468 -0.35649,4.58393 -0.50805,9.17959 -0.61906,13.77477 0,0 -2.82352,-0.007 -2.82352,-0.007 l 0,0 c 0.12807,-4.60064 0.28713,-9.202 0.64629,-13.79154 0.79892,-9.19941 1.87874,-18.41096 4.37456,-27.32916 0,0 2.8229,0.0786 2.8229,0.0786 z" />
    <path
       style="fill:#000000;fill-opacity:1;stroke:#000000;stroke-width:10;stroke-miterlimit:4;stroke-opacity:1;stroke-dasharray:none"
       id="path2905"
       d="m 71.729067,279.44002 c 9.719444,-6.28642 20.618238,-10.45031 31.608073,-13.90935 12.64168,-3.26047 25.56586,-5.24487 38.55197,-6.46023 12.8055,-1.23529 25.65531,0.0528 38.44574,0.83403 1.57375,0.0842 3.14749,0.16832 4.72124,0.25248 0,0 -2.7621,0.42226 -2.7621,0.42226 l 0,0 c -1.57222,-0.0851 -3.14444,-0.17019 -4.71666,-0.25528 -10.96107,-0.67391 -21.98037,-1.91275 -32.95262,-0.84618 -12.9825,1.19971 -25.89814,3.18024 -38.54356,6.40246 -10.966856,3.42446 -21.82478,7.57527 -31.535439,13.81288 0,0 -2.816644,-0.25307 -2.816644,-0.25307 z" />
    <path
       style="fill:#000000;fill-opacity:1;stroke:#000000;stroke-width:10;stroke-miterlimit:4;stroke-opacity:1;stroke-dasharray:none"
       id="path2907"
       d="m 103.50457,837.21676 c 10.77277,-2.75052 21.7386,-4.7434 32.7689,-6.13226 6.45282,-0.87016 12.8766,-1.82485 19.27832,-3.00966 0,0 2.74802,0.38362 2.74802,0.38362 l 0,0 c -6.40372,1.19565 -12.83013,2.14848 -19.28602,3.02514 -11.00946,1.37072 -21.94708,3.36389 -32.70291,6.08552 0,0 -2.80631,-0.35236 -2.80631,-0.35236 z" />
    <path
       style="fill:#000000;fill-opacity:1;stroke:#000000;stroke-width:10;stroke-miterlimit:4;stroke-opacity:1;stroke-dasharray:none"
       id="path2909"
       d="m 42.096968,488.65298 c 3.49748,9.20074 6.17732,18.6772 9.581118,27.90777 3.240821,9.89055 7.212394,19.51152 10.972332,29.21038 2.92131,6.15857 4.719872,12.81554 8.296485,18.64736 1.947466,3.14184 4.350876,5.97516 6.48393,9.00221 2.239421,1.84532 -0.28206,1.10694 -0.362435,0.70067 -0.100953,-0.51029 0.837122,-0.62587 1.196026,-1.0024 1.194023,-1.25266 1.954993,-2.6178 2.896449,-4.07531 5.53441,-10.23174 10.436673,-20.81887 15.435239,-31.32683 5.408598,-12.12235 11.855218,-23.74884 17.345048,-35.82693 1.96403,-4.831 4.19331,-9.55692 6.70815,-14.12582 0.93973,-2.25984 4.06325,-0.39231 5.48951,0.69974 0,0 -2.83627,0.26217 -2.83627,0.26217 l 0,0 c -3.14521,-2.36459 2.06599,-2.08974 0.18555,-0.81791 -2.54848,4.55086 -4.78566,9.27452 -6.76133,14.10089 -5.50543,12.07687 -11.97149,23.69924 -17.375517,35.8302 -4.994353,10.51365 -9.889391,21.10444 -15.376527,31.36493 -1.685151,2.65469 -5.854433,9.18657 -9.380847,4.39063 -2.126692,-3.03318 -4.535405,-5.86567 -6.46621,-9.02213 -3.534855,-5.86899 -5.367035,-12.518 -8.270904,-18.69822 -3.751872,-9.70212 -7.716399,-19.3261 -10.960755,-29.21543 -3.398084,-9.24008 -6.086709,-18.72198 -9.625924,-27.91498 0,0 2.826882,-0.091 2.826882,-0.091 z" />
  </g>
</svg>
