<?xml version="1.0" encoding="UTF-8" standalone="no"?>
<!-- Created with Inkscape (http://www.inkscape.org/) -->

<svg
   xmlns:dc="http://purl.org/dc/elements/1.1/"
   xmlns:cc="http://creativecommons.org/ns#"
   xmlns:rdf="http://www.w3.org/1999/02/22-rdf-syntax-ns#"
   xmlns:svg="http://www.w3.org/2000/svg"
   xmlns="http://www.w3.org/2000/svg"
   xmlns:sodipodi="http://sodipodi.sourceforge.net/DTD/sodipodi-0.dtd"
   xmlns:inkscape="http://www.inkscape.org/namespaces/inkscape"
   width="767.18591"
   height="604.65942"
   id="svg2932"
   version="1.1"
   inkscape:version="0.47pre4 r22446"
   sodipodi:docname="New document 5">
  <defs
     id="defs2934">
    <inkscape:perspective
       sodipodi:type="inkscape:persp3d"
       inkscape:vp_x="0 : 526.18109 : 1"
       inkscape:vp_y="0 : 1000 : 0"
       inkscape:vp_z="744.09448 : 526.18109 : 1"
       inkscape:persp3d-origin="372.04724 : 350.78739 : 1"
       id="perspective2940" />
  </defs>
  <sodipodi:namedview
     id="base"
     pagecolor="#ffffff"
     bordercolor="#666666"
     borderopacity="1.0"
     inkscape:pageopacity="0.0"
     inkscape:pageshadow="2"
     inkscape:zoom="0.35"
     inkscape:cx="350.43697"
     inkscape:cy="102.03175"
     inkscape:document-units="px"
     inkscape:current-layer="layer1"
     showgrid="false"
     inkscape:window-width="1280"
     inkscape:window-height="726"
     inkscape:window-x="0"
     inkscape:window-y="25"
     inkscape:window-maximized="1" />
  <metadata
     id="metadata2937">
    <rdf:RDF>
      <cc:Work
         rdf:about="">
        <dc:format>image/svg+xml</dc:format>
        <dc:type
           rdf:resource="http://purl.org/dc/dcmitype/StillImage" />
        <dc:title></dc:title>
      </cc:Work>
    </rdf:RDF>
  </metadata>
  <g
     inkscape:label="Layer 1"
     inkscape:groupmode="layer"
     id="layer1"
     transform="translate(9.7226816,-35.448775)">
    <path
       style="fill:#000000;fill-opacity:1;stroke:#000000;stroke-width:10;stroke-miterlimit:4;stroke-opacity:1;stroke-dasharray:none"
       id="path2942"
       d="m -1.9217208,207.14943 c 11.1873073,3.19698 22.5652698,5.19944 34.1207118,6.43879 17.669848,1.62436 35.386974,1.30904 53.087481,0.6437 27.181448,-1.15755 54.127738,-4.71713 81.058558,-8.35932 32.76757,-4.62064 65.4213,-9.94437 98.32619,-13.51386 20.88392,-1.93824 41.7446,-4.0276 62.68961,-5.18685 13.11252,-0.94182 26.22351,0.33472 39.29286,1.29191 5.70271,0.84071 11.55432,1.33102 16.28744,4.86414 3.20453,3.12537 3.7031,6.62721 3.22063,10.88184 -0.7554,6.93288 -1.98765,13.78851 -2.95963,20.6922 -2.21066,11.62359 -4.21978,23.27011 -6.1424,34.94393 -2.17202,14.63731 -3.73201,29.371 -5.22152,44.09445 -0.78631,11.42144 -1.61925,22.79466 -3.1126,34.14641 -0.67416,5.13459 -1.16948,10.29204 -1.52274,15.4583 -0.96971,0.45776 0.61484,1.56783 0.25169,1.46762 -3.48336,-0.96122 -0.35403,-1.07608 1.08604,-1.56751 3.1813,-0.96818 6.50268,-1.13227 9.80175,-1.25636 4.4415,-0.10737 8.88536,-0.0731 13.32778,-0.0648 4.30794,0.0994 8.63081,-0.26595 12.89964,0.37698 4.04642,0.50751 7.69041,2.01813 11.42191,3.52345 3.39742,0.94624 4.51655,3.71264 5.09851,6.89743 0.16029,5.82598 -1.03064,11.78881 -2.03718,17.53909 -1.84751,10.68653 -3.34028,21.42899 -5.10703,32.12828 -1.72456,12.18636 -3.9104,24.30681 -5.37732,36.52926 -1.32246,8.11724 -2.85861,16.19595 -3.78798,24.37127 -1.40368,3.54836 1.10857,7.19571 0.0266,10.62132 -2.02745,3.07272 -5.55726,4.299 -8.99081,5.07025 -3.58681,0.65754 -7.25642,0.58614 -10.88891,0.59717 -4.82919,0.005 -9.65828,-0.0272 -14.48742,-0.041 -4.48528,-0.94176 -8.97039,-1.82498 -13.52439,-2.36762 -4.86267,-0.0657 -9.54613,-0.79218 -14.27953,-1.83722 -4.70862,-0.53926 -9.23288,-1.60892 -13.81735,-2.76384 -5.07545,-1.17852 -10.2961,-1.38298 -15.48264,-1.54349 -3.31951,-0.55796 -7.96589,1.24125 -10.56299,-1.35141 -0.82906,-4.46964 1.07906,-8.97549 2.55109,-13.12059 2.84569,-7.86204 5.46658,-15.79028 7.98418,-23.76215 2.74842,-10.24131 6.00521,-20.33924 8.28846,-30.69809 1.94432,-9.63631 3.29769,-19.38091 5.09034,-29.04152 1.36909,-6.5856 2.41307,-13.23037 3.04154,-19.9266 0.21133,-4.86818 0.14442,-7.40094 6.49904,-5.18134 3.33895,2.09849 6.91124,3.7038 10.42705,5.47344 1.40426,0.47791 7.80326,4.19703 2.76262,0.25246 0,0 2.82917,0.10348 2.82917,0.10348 l 0,0 c -4.77449,2.70725 -3.94276,2.17105 -8.404,-0.0445 -3.50495,-1.77641 -7.0605,-3.40511 -10.43207,-5.42897 -0.41615,-0.1249 -1.57529,-0.0884 -1.24844,-0.3747 0.46798,-0.40987 1.26466,-0.34292 1.85937,-0.16039 0.30591,0.0939 -0.6299,0.22875 -0.83418,0.47505 -1.06393,1.28271 -0.14889,3.47307 -0.6323,4.91227 -0.64722,6.70371 -1.69512,13.35719 -3.07032,19.95117 -1.79751,9.66346 -3.16394,19.40974 -5.10277,29.05047 -2.27895,10.36802 -5.54416,20.47097 -8.28356,30.723 -2.5113,7.97487 -5.12185,15.90733 -7.9612,23.7728 -1.42341,4.0189 -3.3471,8.45858 -2.53232,12.79149 2.7061,2.32852 7.24812,0.54433 10.51822,1.15228 5.19369,0.1702 10.42087,0.39304 15.49735,1.60303 4.57953,1.1654 9.12135,2.16122 13.81625,2.7552 4.72987,1.04323 9.42526,1.68945 14.27666,1.81006 4.5499,0.56107 9.02304,1.49102 13.52395,2.33399 3.20329,0.009 6.40729,0.006 9.61044,0.0372 0.2389,0.002 -0.47781,0.003 -0.71672,0.004 3.62752,-0.007 7.28943,0.0708 10.87765,-0.53849 3.37573,-0.70324 6.86946,-1.85078 8.95963,-4.77758 1.16538,-3.34424 -1.50567,-7.07789 -0.007,-10.56258 0.9425,-8.17601 2.49627,-16.25421 3.82622,-24.37238 1.47017,-12.2264 3.66843,-24.34924 5.38317,-36.54141 1.76551,-10.69899 3.24479,-21.44307 5.07907,-32.1313 0.99396,-5.71696 2.16692,-11.64893 2.00604,-17.43868 -0.594,-3.15256 -1.74273,-5.68605 -5.07806,-6.61458 -3.7124,-1.52098 -7.37985,-2.94114 -11.40451,-3.45594 -4.27516,-0.57436 -8.59384,-0.2459 -12.90015,-0.33692 -1.55848,-0.002 -3.84342,-0.0287 -7.73099,0.0556 -3.29027,0.11153 -6.60266,0.25371 -9.78645,1.17537 -1.95326,0.65439 -7.76664,3.60181 -6.99458,-0.27258 0.38216,-5.17093 0.88483,-10.33434 1.5649,-15.47497 1.51224,-11.34779 2.36309,-22.71749 3.15332,-34.13741 1.4942,-14.72857 3.0497,-29.46793 5.21625,-44.11159 1.91171,-11.67164 3.90734,-23.31656 6.10942,-34.93786 0.96167,-6.90143 2.18422,-13.75506 2.92997,-20.68521 0.47233,-4.15955 -0.0173,-7.57836 -3.21362,-10.58468 -4.74706,-3.41912 -10.57771,-3.89151 -16.2333,-4.71219 -11.24408,-0.82929 -22.53239,-2.06973 -33.81228,-1.29428 -20.97138,1.14553 -41.85751,3.23161 -62.76786,5.16066 -32.91361,3.54834 -65.57437,8.86322 -98.34538,13.50383 -26.91149,3.6526 -53.83803,7.22059 -81.000864,8.39415 -19.49832,0.74287 -39.034663,1.04543 -58.498684,-0.65397 -11.576118,-1.25773 -22.9735685,-3.28841 -34.1856836,-6.47795 0,0 2.8004408,-0.36399 2.8004408,-0.36399 z" />
    <path
       style="fill:#000000;fill-opacity:1;stroke:#000000;stroke-width:10;stroke-miterlimit:4;stroke-opacity:1;stroke-dasharray:none"
       id="path2944"
       d="m 358.21562,500.15041 c -1.42882,8.25808 -1.59633,16.65334 -2.55313,24.96205 -1.11578,9.89981 -2.56717,19.74956 -3.83276,29.63025 -1.23105,10.10993 -1.584,20.29064 -1.79081,30.46356 -0.11773,7.22637 -0.098,14.4539 -0.0829,21.68091 0.0107,3.34216 0.0194,6.68433 0.036,10.02647 0.20096,1.63379 -1.29655,1.45339 -2.54952,1.48419 -4.20651,0.0129 -8.41251,-0.0536 -12.61889,-0.0763 -6.70169,-0.0242 -13.40344,-0.0241 -20.10517,-0.0259 -10.05314,-0.25181 -20.03722,1.05947 -30.06355,1.70917 -14.19782,0.8296 -28.33393,2.37139 -42.5373,3.16963 -15.20223,0.30148 -30.34599,1.65102 -45.51796,2.55492 -15.56652,0.443 -31.09033,1.29464 -46.62288,2.39399 -14.00872,0.89003 -28.02798,1.15708 -42.0178,2.32192 -11.386768,0.84366 -22.64018,2.82977 -33.991906,4.02664 -5.432937,0.45669 -10.956044,1.30692 -16.261062,-0.30312 0,0 2.80007,-0.36236 2.80007,-0.36236 l 0,0 c 3.622206,1.01357 6.882647,0.88714 10.695649,0.25703 11.363294,-1.18256 22.625024,-3.1725 34.020049,-4.02837 13.99374,-1.17213 28.01518,-1.44976 42.02937,-2.32373 15.53368,-1.09739 31.05699,-1.9714 46.62543,-2.39675 15.17065,-0.89829 30.31152,-2.26461 45.5124,-2.55673 14.20129,-0.79 28.33423,-2.32971 42.52843,-3.16856 11.84822,-0.76346 23.67746,-2.10167 35.56999,-1.73216 6.71025,10e-4 13.42053,-3.3e-4 20.13074,0.0233 0.14947,8.1e-4 12.70418,0.0842 7.01348,0.0772 1.1196,-0.0118 2.70642,0.42296 2.51385,-1.04341 0.002,-3.34222 -0.004,-6.68443 -0.008,-10.02665 -0.008,-7.22912 -0.0134,-14.45886 0.10505,-21.68721 0.2182,-10.18273 0.57032,-20.37313 1.8023,-30.49314 1.26099,-9.87977 2.70534,-19.72894 3.82366,-29.62682 0.95418,-8.31271 1.13152,-16.70913 2.51826,-24.97678 0,0 2.82906,0.0467 2.82906,0.0467 z" />
    <path
       style="fill:#000000;fill-opacity:1;stroke:#000000;stroke-width:10;stroke-miterlimit:4;stroke-opacity:1;stroke-dasharray:none"
       id="path2946"
       d="m 383.45135,198.22003 c 6.92829,1.11447 13.92235,1.73557 20.92161,2.1808 5.55947,0.30769 11.12914,0.3183 16.69529,0.33152 4.14872,0.001 8.29748,-0.009 12.44626,-0.0133 6.10398,0.35064 12.09663,-0.88769 18.11243,-1.70775 6.02958,-0.3948 11.93794,-1.28276 17.87124,-2.38572 5.66681,-1.06081 11.42679,-1.36295 17.17654,-1.54344 6.72597,-0.43496 13.29218,1.1749 19.92091,1.98431 6.11939,0.67438 12.28143,0.72246 18.43024,0.78386 6.48962,0.0397 12.9794,0.0248 19.46909,0.0188 6.4165,-0.007 12.833,-0.0103 19.2495,-0.0121 4.57405,-0.53777 9.02876,-1.72666 13.59539,-2.32348 3.76137,-0.41368 7.48068,-0.26784 11.13661,-1.32108 3.49495,-1.14597 7.1298,-1.60575 10.77919,-1.88546 4.01833,-0.4345 7.68111,-0.71636 11.71785,-0.23839 2.07646,2.58794 1.82291,6.11269 1.90839,9.25429 0.12102,6.07006 -0.22742,12.1375 0.32446,18.18763 1.0881,8.1985 2.09056,16.41432 1.81664,24.69237 -0.76214,9.22967 -1.47168,18.45809 -1.85626,27.71203 -0.29249,8.1601 -0.32736,16.32633 -0.34593,24.49072 -0.009,5.26849 0.009,10.53696 0.017,15.80544 0.14157,3.69742 0.11743,7.23476 -0.80738,10.81828 -0.99209,3.40517 -1.47945,6.87934 -2.67189,10.22379 -1.16212,3.53849 -1.61942,7.18031 -2.87747,10.68576 -0.42355,2.12066 -2.45154,5.03611 -1.6985,7.22789 1.6857,1.41023 4.8394,0.98863 6.9323,1.01627 0.68365,0.15477 4.90112,0.007 8.43838,-0.82152 3.86392,-0.9767 7.78649,-1.60923 11.75767,-1.90277 4.16766,-0.15103 7.57718,-1.40543 9.05547,3.31818 0.76687,5.37555 0.52343,10.86026 0.51193,16.27809 0.26221,9.94266 -1.05666,19.8191 -1.79775,29.71754 -1.60074,10.7487 -2.34846,21.60385 -3.78642,32.36753 -1.38079,8.37978 -2.27037,16.82283 -2.76679,25.29787 -0.60023,4.65857 -1.65059,9.24612 -2.64769,13.83274 -0.36356,2.46399 -3.16645,2.30116 -5.12806,2.39284 -4.07608,0.0587 -8.15239,-0.0245 -12.22829,-0.0615 -2.51573,-0.019 -5.03151,-0.0285 -7.54729,-0.0331 -2.35797,-0.004 -2.76247,-0.42187 -1.72166,0.31675 -5.66344,1.07691 -11.35931,1.85651 -17.01068,2.99735 -6.30265,1.92552 -12.69874,3.4775 -19.01758,5.34067 -4.46369,1.31526 -9.02366,2.18018 -13.65224,2.60969 -5.33864,0.24188 -6.94769,-1.46386 -6.57835,-6.54914 0.87694,-5.89233 2.74131,-11.53611 3.76956,-17.40802 0.92352,-9.82005 1.81773,-19.63699 2.79858,-29.45672 0.56103,-10.24269 2.00746,-20.39241 3.2279,-30.56948 0.70163,-5.67374 1.03034,-11.38231 1.17552,-17.09448 0.33537,-3.47574 -0.10448,-6.66716 -1.26117,-9.93795 -0.63287,-3.54298 1.7993,-5.27784 4.21794,-7.37749 3.26074,-2.19171 6.76895,-4.11068 10.3975,-5.63107 3.43076,-1.41743 7.144,-1.71594 10.80915,-1.92249 3.57345,-0.13043 7.15028,-0.10286 10.72539,-0.0788 0.7393,0.005 1.47856,0.0133 2.21777,0.0256 0.022,0.18093 0.0439,0.36187 0.0659,0.5428 0,0 -2.85222,0.0417 -2.85222,0.0417 l 0,0 c -0.0117,-0.0477 -0.0235,-0.0954 -0.0352,-0.1431 -0.7352,-0.0104 -1.47043,-0.0191 -2.20569,-0.024 -4.95993,-0.032 1.29545,-0.0331 -5.11342,0.0641 -3.65527,0.18935 -7.36738,0.44769 -10.80114,1.82722 -3.63116,1.47297 -7.09933,3.42236 -10.3864,5.54024 -2.32292,2.01125 -4.81671,3.61761 -4.20355,7.03956 1.14859,3.30534 1.59658,6.53576 1.25571,10.04117 -0.16024,5.72102 -0.49121,11.43897 -1.20585,17.12067 -1.2435,10.17283 -2.67952,20.32254 -3.24468,30.56339 -0.9777,9.82644 -1.86928,19.64923 -2.77479,29.47746 -1.01536,5.86418 -2.86482,11.49974 -3.74635,17.38026 -0.12011,1.63527 -0.25828,3.28369 0.67542,4.75192 0.184,0.28935 0.43361,0.54683 0.72125,0.7335 0.3024,0.19626 1.22036,0.0974 1.00898,0.3894 -0.28929,0.39966 -0.97418,0.15698 -1.46127,0.23546 4.63144,-0.40607 9.19649,-1.24197 13.66349,-2.55203 6.32385,-1.86347 12.72477,-3.40839 19.02402,-5.36452 5.64914,-1.14529 11.33858,-1.93284 16.99966,-3.01473 4.95639,-0.34723 9.89683,-0.45044 14.86529,-0.32262 1.78146,0.0166 4.97248,-0.56564 6.61848,0.0706 0.44775,0.17307 -1.89405,0.16411 -1.44008,0.008 0.45497,-0.15639 0.96218,-0.006 1.44327,-0.009 1.80886,-0.0645 4.72334,0.26891 5.09558,-2.02154 1.01615,-4.56924 2.06723,-9.14389 2.67773,-13.78784 0.50484,-8.48181 1.40093,-16.93214 2.78652,-25.31842 1.44234,-10.75808 2.19474,-21.60781 3.79686,-32.35112 0.73587,-9.89144 2.03777,-19.76229 1.77232,-29.69717 0.002,-5.38803 0.23933,-10.84633 -0.54538,-16.18937 -0.31455,-0.9501 -0.33879,-1.37208 -0.99723,-2.12128 -0.24488,-0.27863 -1.07676,-0.43981 -0.84232,-0.72729 0.35495,-0.43525 1.29944,0.15139 1.66185,-0.27766 0.69756,-0.82584 -4.29334,1.1125 -3.23989,0.14268 -3.96924,0.27226 -7.89205,0.87986 -11.75306,1.85704 -4.6374,1.11842 -9.2637,1.0398 -14.04168,0.88326 -2.12863,-0.036 -5.47526,0.42426 -6.97968,-1.37107 -0.64488,-2.35845 1.1818,-5.15622 1.71355,-7.40982 1.261,-3.50517 1.73113,-7.14077 2.87746,-10.68556 1.20188,-3.33385 1.67716,-6.80075 2.67221,-10.19785 0.92016,-3.55939 0.9507,-7.07198 0.80781,-10.74637 -0.004,-5.26885 -0.004,-10.53771 0.004,-15.80655 0.0261,-8.168 0.0675,-16.33789 0.35969,-24.50154 0.38298,-9.2532 1.09847,-18.48044 1.85435,-27.70975 0.27655,-8.26673 -0.74324,-16.4703 -1.82712,-24.65743 -0.55591,-6.05558 -0.21503,-12.12941 -0.34329,-18.20534 -0.0864,-2.99465 0.22605,-6.54486 -1.90436,-8.92705 5.65355,-1.04048 -5.35374,0.53466 -6.09279,0.32559 -3.64339,0.26442 -7.27914,0.6849 -10.76997,1.82598 -3.66053,1.10516 -7.36307,1.00183 -11.14792,1.36515 -4.57849,0.57299 -9.04061,1.74417 -13.61189,2.35724 -6.41971,10e-4 -12.83942,0.004 -19.25913,0.0104 -8.3403,0.007 -16.68073,0.0261 -25.02095,-0.0207 -6.1529,-0.0651 -12.31936,-0.11999 -18.44104,-0.81424 -4.87591,-0.60752 -9.71371,-1.82833 -14.34589,-1.95859 -5.74676,0.17113 -11.50505,0.45522 -17.1714,1.50066 -5.93714,1.09951 -11.83787,2.04457 -17.87629,2.39883 -6.01618,0.81216 -12.00489,2.09167 -18.10809,1.74655 -6.00732,0.007 -12.01464,0.0188 -18.02197,0.0122 -5.56597,-0.0152 -11.13559,-0.0298 -16.69431,-0.34931 -7.00505,-0.45763 -14.00411,-1.09034 -20.93857,-2.20706 0,0 2.80154,-0.39641 2.80154,-0.39641 z" />
    <path
       style="fill:#000000;fill-opacity:1;stroke:#000000;stroke-width:10;stroke-miterlimit:4;stroke-opacity:1;stroke-dasharray:none"
       id="path2948"
       d="m 595.69835,486.1831 c -0.0194,8.82401 -0.0168,17.64807 -0.0148,26.4721 -0.0322,9.09757 1.33055,18.13467 2.07253,27.19388 0.551,7.60503 0.70935,15.22982 0.78839,22.85188 0.0394,5.23909 0.0283,10.47834 0.025,15.71751 -0.002,3.27559 -0.008,6.55116 -0.007,9.82674 -0.98663,2.69574 -1.62369,5.5348 -2.68394,8.19589 -2.02648,3.8801 -5.51739,5.76141 -9.5977,6.78988 -6.65169,0.65629 -13.29573,1.33345 -19.94339,2.12482 -10.48604,1.15798 -21.04853,1.2791 -31.58616,1.42911 -12.4159,0.009 -24.79699,-0.0412 -37.181,0.90151 -12.29698,1.01621 -24.6125,1.44943 -36.89343,2.6533 -11.21582,1.19796 -22.48192,1.75375 -33.75234,2.07223 -9.33199,0.21176 -18.66694,0.19481 -28.00069,0.19406 -6.18952,0.0186 -12.3185,0.30912 -18.41341,-0.85846 -5.19697,-1.15945 -10.49983,-1.58721 -15.80498,-1.84411 -4.70385,-0.18426 -9.4117,-0.19558 -14.11838,-0.19744 1.43095,0.004 0.91384,10e-4 -1.55135,0.005 0,0 -2.79261,-0.4419 -2.79261,-0.4419 l 0,0 c 3.86978,-0.006 1.49006,-0.003 7.13918,-0.005 4.70427,0.004 9.40977,0.0196 14.11091,0.21259 5.30932,0.269 10.61219,0.72305 15.81331,1.88195 6.08637,1.13062 12.21669,0.80206 18.38898,0.80909 7.4906,0.007 14.98183,-0.025 22.47095,-0.18409 11.27471,-0.31006 22.54579,-0.85406 33.766,-2.05043 12.28113,-1.21012 24.59497,-1.65375 36.89354,-2.65933 12.38393,-0.95392 24.76316,-0.92415 37.18029,-0.91913 10.52812,-0.14638 21.08084,-0.26226 31.5588,-1.40384 6.63784,-0.78786 13.26172,-1.52216 19.91281,-2.09474 4.03561,-0.95111 7.52689,-2.70979 9.56733,-6.52328 1.07306,-2.6181 1.63593,-5.44475 2.68021,-8.08716 0.004,-3.27569 0.002,-6.55139 0.015,-9.82706 0.0136,-5.23806 0.0249,-10.47624 -0.009,-15.71425 -0.0733,-7.61528 -0.22142,-15.23377 -0.77467,-22.83192 -0.73536,-9.06751 -2.10476,-18.11097 -2.06848,-27.21665 0.002,-8.82403 0.005,-17.64809 -0.0148,-26.4721 0,0 2.82527,0 2.82527,0 z" />
    <path
       style="fill:#000000;fill-opacity:1;stroke:#000000;stroke-width:10;stroke-miterlimit:4;stroke-opacity:1;stroke-dasharray:none"
       id="path2950"
       d="m 166.78705,105.8647 c -1.28824,8.53986 -1.81031,17.16779 -2.208,25.78714 -0.96398,5.96452 1.39629,11.75125 1.40254,17.6404 -0.25574,2.23734 -0.0848,1.18688 -0.48214,3.1562 0,0 -2.83786,-0.0574 -2.83786,-0.0574 l 0,0 c 0.40338,-1.93344 0.22962,-0.90222 0.49065,-3.09867 0.003,-5.89118 -2.34977,-11.68828 -1.37411,-17.65353 0.40613,-8.62949 0.94075,-17.26425 2.17986,-25.82083 0,0 2.82906,0.0467 2.82906,0.0467 z" />
    <path
       style="fill:#000000;fill-opacity:1;stroke:#000000;stroke-width:10;stroke-miterlimit:4;stroke-opacity:1;stroke-dasharray:none"
       id="path2952"
       d="m 178.21343,40.488855 c -0.41318,4.514994 -1.36927,8.955676 -2.20909,13.403833 0,0 -2.79207,-0.05207 -2.79207,-0.05207 l 0,0 c 0.83768,-4.442594 1.79882,-8.878468 2.17649,-13.391843 0,0 2.82467,0.04008 2.82467,0.04008 z" />
    <path
       style="fill:#000000;fill-opacity:1;stroke:#000000;stroke-width:10;stroke-miterlimit:4;stroke-opacity:1;stroke-dasharray:none"
       id="path2956"
       d="m 591.34926,282.54709 c 3.87182,5.61187 8.26586,10.82884 12.47543,16.18701 2.84464,3.20004 6.17661,5.90398 9.44851,8.6467 0.46128,-0.5399 4.84188,4.853 -0.34307,0.6342 -0.26384,-0.21467 0.45113,-0.51142 0.64357,-0.79189 0.33134,-0.48289 0.61651,-0.99589 0.92476,-1.49384 2.82886,-5.25382 6.17701,-10.0492 9.88603,-14.70744 3.3833,-4.07365 6.5906,-8.35026 10.58703,-11.84864 2.285,-2.04261 4.28993,-4.35914 6.34906,-6.61975 0.73725,-0.70832 1.3416,-1.4348 1.86357,-2.30743 0,0 2.83967,0.14891 2.83967,0.14891 l 0,0 c -0.51076,0.91402 -1.09914,1.64718 -1.86845,2.36851 -2.07015,2.26703 -4.08606,4.5893 -6.36903,6.65145 -4.02123,3.45244 -7.20558,7.74276 -10.59223,11.79615 -3.70111,4.64916 -7.0762,9.40761 -9.86633,14.67321 -1.70921,2.85011 -4.21447,4.52234 -6.88185,1.74366 -3.27138,-2.75783 -6.60531,-5.47435 -9.42994,-8.7065 -4.20986,-5.35996 -8.5831,-10.59352 -12.48828,-16.18364 0,0 2.82155,-0.19067 2.82155,-0.19067 z" />
    <path
       style="fill:#000000;fill-opacity:1;stroke:#000000;stroke-width:10;stroke-miterlimit:4;stroke-opacity:1;stroke-dasharray:none"
       id="path2958"
       d="m 695.69835,237.61167 c -0.40404,7.91507 0.71347,15.75087 1.71421,23.57807 0.60311,4.59141 0.92655,9.21106 1.11109,13.83608 0.0311,0.80762 0.0499,1.61559 0.0632,2.42367 0,0 -2.85008,0.004 -2.85008,0.004 l 0,0 c -0.008,-0.80571 -0.0225,-1.61134 -0.0505,-2.41666 -0.16792,-4.61693 -0.49147,-9.22788 -1.08536,-13.81146 -0.98407,-7.84113 -2.09562,-15.68678 -1.72784,-23.6135 0,0 2.82527,0 2.82527,0 z" />
    <path
       style="fill:#000000;fill-opacity:1;stroke:#000000;stroke-width:10;stroke-miterlimit:4;stroke-opacity:1;stroke-dasharray:none"
       id="path2960"
       d="m 696.04201,200.10369 c 0.17037,4.42269 0.12141,2.12584 0.12799,6.89091 0,0 -2.80791,6.6e-4 -2.80791,6.6e-4 l 0,0 c -0.0154,-4.74267 0.0414,-2.46122 -0.14914,-6.84485 0,0 2.82906,-0.0467 2.82906,-0.0467 z" />
    <path
       style="fill:#000000;fill-opacity:1;stroke:#000000;stroke-width:10;stroke-miterlimit:4;stroke-opacity:1;stroke-dasharray:none"
       id="path2962"
       d="m 307.47058,282.96082 c 1.62536,9.38669 0.9126,18.92237 0.45563,28.37649 -0.26659,5.31964 -0.13885,2.78601 -0.38279,7.6009 0,0 -2.81146,-0.0146 -2.81146,-0.0146 l 0,0 c 0.25814,-4.81423 0.12442,-2.28092 0.39974,-7.6 0.47195,-9.43358 1.18547,-18.95549 -0.49018,-28.31602 0,0 2.82906,-0.0467 2.82906,-0.0467 z" />
    <path
       style="fill:#000000;fill-opacity:1;stroke:#000000;stroke-width:10;stroke-miterlimit:4;stroke-opacity:1;stroke-dasharray:none"
       id="path2964"
       d="m 346.31237,258.9456 c 6.16511,3.37058 11.65709,7.63554 16.86767,12.31588 4.00721,3.94072 8.31597,7.64374 11.84751,12.02999 2.78403,2.74528 4.70284,6.13802 6.64934,9.48321 0.76385,1.57774 1.5005,2.99721 2.93479,4.05126 0.22283,0.16375 0.95521,0.54821 0.6964,0.45082 -0.63266,-0.23805 -1.21902,-0.58454 -1.82853,-0.87682 2.01145,-2.96932 2.83335,-6.55249 3.953,-9.923 2.16486,-4.51717 4.19351,-9.09844 6.05621,-13.74919 1.84215,-3.81285 3.71812,-7.60112 5.81974,-11.2794 0,0 2.83044,0.14756 2.83044,0.14756 l 0,0 c -2.10973,3.66253 -3.97429,7.44312 -5.82732,11.23954 -1.86414,4.64424 -3.86878,9.23129 -6.05644,13.73179 -1.12908,3.41996 -1.97509,7.02079 -3.94643,10.07113 -5.52191,1.32122 -4.88347,0.87347 -7.46153,-3.71381 -1.95528,-3.32658 -3.8632,-6.70236 -6.6377,-9.44097 -3.54781,-4.3553 -7.82582,-8.06557 -11.83466,-11.98598 -5.20726,-4.6621 -10.69517,-8.91548 -16.87178,-12.2397 0,0 2.80929,-0.31231 2.80929,-0.31231 z" />
    <path
       style="fill:#000000;fill-opacity:1;stroke:#000000;stroke-width:10;stroke-miterlimit:4;stroke-opacity:1;stroke-dasharray:none"
       id="path2966"
       d="m 269.98406,237.61167 c -0.0213,7.70799 -0.0115,15.41602 -0.006,23.12402 -0.31228,4.66778 1.05149,9.15404 2.08128,13.64678 0.17197,0.87058 0.43159,1.99561 0.69758,2.73869 0,0 -2.84617,0.23029 -2.84617,0.23029 l 0,0 c -0.26554,-0.94648 -0.48467,-1.93375 -0.6869,-2.9054 -1.02389,-4.51409 -2.37414,-9.02422 -2.05974,-13.71036 0.006,-7.708 0.0156,-15.41603 -0.006,-23.12402 0,0 2.82527,0 2.82527,0 z" />
    <path
       style="fill:#000000;fill-opacity:1;stroke:#000000;stroke-width:10;stroke-miterlimit:4;stroke-opacity:1;stroke-dasharray:none"
       id="path2968"
       d="m 270.32772,217.24654 c 0.62773,4.29258 0.31306,2.11612 0.94343,6.52948 0,0 -2.81172,0.04 -2.81172,0.04 l 0,0 c -0.63343,-4.41073 -0.31273,-2.23655 -0.96077,-6.52275 0,0 2.82906,-0.0467 2.82906,-0.0467 z" />
    <path
       style="fill:#000000;fill-opacity:1;stroke:#000000;stroke-width:10;stroke-miterlimit:4;stroke-opacity:1;stroke-dasharray:none"
       id="path2970"
       d="m 720.64593,268.3236 c 5.37789,-2.71264 10.78975,-5.47378 16.87778,-5.82618 6.09535,-0.0432 8.91228,1.84379 8.95396,7.90172 -0.11133,7.59039 -3.68411,14.06135 -7.70867,20.24678 -1.66992,3.42158 -5.90037,5.72853 -6.6483,9.60284 0.12232,0.0881 0.51518,0.29212 0.36697,0.26446 -4.42293,-0.82563 3.45692,-1.88899 4.26833,-2.04058 4.23291,0.16722 9.03534,0.31887 12.97862,2.11502 1.05522,0.57793 1.95048,1.3533 2.7286,2.26015 0,0 -2.84251,0.20508 -2.84251,0.20508 l 0,0 c -0.77684,-0.865 -1.66173,-1.60273 -2.70443,-2.1365 -0.69069,-0.28509 -11.40557,-2.37085 -7.35167,-2.05099 -2.60096,0.46814 -8.36869,2.99077 -10.29207,1.33004 0.7331,-3.93956 4.93895,-6.27823 6.69126,-9.712 4.01659,-6.12705 7.59676,-12.54078 7.68933,-20.08196 -0.0237,-2.43144 -0.18752,-5.1127 -2.58388,-6.48183 -0.48497,-0.27708 -1.22621,-0.15785 -1.56328,-0.60322 -0.18108,-0.23927 0.54062,-0.26059 0.81092,-0.39088 -6.09093,0.25552 -11.49777,2.97755 -16.86166,5.71036 0,0 -2.8093,-0.31231 -2.8093,-0.31231 z" />
    <path
       style="fill:#000000;fill-opacity:1;stroke:#000000;stroke-width:10;stroke-miterlimit:4;stroke-opacity:1;stroke-dasharray:none"
       id="path2972"
       d="m 372.84121,403.32596 c -0.016,6.92821 -0.008,13.85645 -0.004,20.78468 -0.1588,4.29595 0.37864,8.64539 -0.33578,12.89608 -0.6824,3.13073 -1.33178,6.07248 -3.48453,8.51765 -0.18772,0.17863 -0.37545,0.35726 -0.56318,0.53589 -0.0304,0.0894 -0.0607,0.17879 -0.0911,0.26819 0,0 -2.85127,-0.0789 -2.85127,-0.0789 l 0,0 c 0.16626,-0.66942 -0.003,-0.32585 0.66955,-0.93334 2.18449,-2.37548 2.80834,-5.26155 3.49106,-8.35703 0.72397,-4.23249 0.16831,-8.56988 0.34775,-12.84856 0.004,-6.92823 0.0121,-13.85647 -0.004,-20.78468 0,0 2.82527,0 2.82527,0 z" />
    <path
       style="fill:#000000;fill-opacity:1;stroke:#000000;stroke-width:10;stroke-miterlimit:4;stroke-opacity:1;stroke-dasharray:none"
       id="path2974"
       d="m 594.93165,411.18074 c 6.37716,-3.12681 12.58306,-6.41158 19.33826,-8.67181 4.99771,-1.71079 10.06571,-1.86809 14.67882,0.75738 3.37134,2.67111 4.91573,5.33629 5.04017,9.63354 -0.60721,5.53018 -3.65279,9.83869 -7.43206,13.71854 -3.5439,3.54918 -7.5146,6.4023 -12.25851,8.04176 -0.45068,0.12659 -0.91576,0.54947 -1.35203,0.37976 -5.52965,-2.15106 4.28602,-4.66261 5.74023,-4.97883 4.11087,-0.75847 8.30489,-0.80238 12.47153,-0.83517 1.52048,0.0408 7.83998,-0.52395 8.53296,2.29518 -1.24747,-0.1608 -2.49494,-0.32159 -3.7424,-0.48239 0,0 2.82967,-0.2675 2.82967,-0.2675 l 0,0 c -0.64614,0.27601 -1.29227,0.55202 -1.93841,0.82804 -0.50985,-1.52219 -6.6149,-2.06877 -2.88286,-1.93199 -4.16505,0.0245 -8.35672,0.0549 -12.47135,0.77765 -2.14146,0.4386 -4.2921,0.83196 -6.17163,2.03223 -0.49921,0.31879 -0.83558,0.88723 -1.38102,1.11815 -1.2126,0.51338 -2.53693,0.70725 -3.8011,1.07579 -0.44879,0.13084 0.90314,-0.24173 1.35471,-0.36259 4.75009,-1.57542 8.72351,-4.36936 12.26159,-7.90852 3.75679,-3.79698 6.79077,-8.04107 7.4128,-13.49168 -0.12836,-4.18691 -1.68793,-6.79924 -5.03044,-9.34187 -4.33461,-2.38111 -4.54321,-1.98189 -9.06519,-0.70616 -6.7607,2.2282 -12.96625,5.48061 -19.32445,8.6328 0,0 -2.80929,-0.31231 -2.80929,-0.31231 z" />
  </g>
</svg>
