<?xml version="1.0" encoding="UTF-8" standalone="no"?>
<!-- Created with Inkscape (http://www.inkscape.org/) -->

<svg
   xmlns:dc="http://purl.org/dc/elements/1.1/"
   xmlns:cc="http://creativecommons.org/ns#"
   xmlns:rdf="http://www.w3.org/1999/02/22-rdf-syntax-ns#"
   xmlns:svg="http://www.w3.org/2000/svg"
   xmlns="http://www.w3.org/2000/svg"
   xmlns:sodipodi="http://sodipodi.sourceforge.net/DTD/sodipodi-0.dtd"
   xmlns:inkscape="http://www.inkscape.org/namespaces/inkscape"
   width="1272.9791"
   height="1141.7642"
   id="svg2"
   version="1.1"
   inkscape:version="0.47pre4 r22446"
   sodipodi:docname="New document 1">
  <defs
     id="defs4">
    <inkscape:perspective
       sodipodi:type="inkscape:persp3d"
       inkscape:vp_x="0 : 526.18109 : 1"
       inkscape:vp_y="0 : 1000 : 0"
       inkscape:vp_z="744.09448 : 526.18109 : 1"
       inkscape:persp3d-origin="372.04724 : 350.78739 : 1"
       id="perspective10" />
  </defs>
  <sodipodi:namedview
     id="base"
     pagecolor="#ffffff"
     bordercolor="#666666"
     borderopacity="1.0"
     inkscape:pageopacity="0.0"
     inkscape:pageshadow="2"
     inkscape:zoom="0.35"
     inkscape:cx="405.06448"
     inkscape:cy="619.38092"
     inkscape:document-units="px"
     inkscape:current-layer="layer1"
     showgrid="false"
     inkscape:window-width="1280"
     inkscape:window-height="726"
     inkscape:window-x="0"
     inkscape:window-y="25"
     inkscape:window-maximized="1" />
  <metadata
     id="metadata7">
    <rdf:RDF>
      <cc:Work
         rdf:about="">
        <dc:format>image/svg+xml</dc:format>
        <dc:type
           rdf:resource="http://purl.org/dc/dcmitype/StillImage" />
        <dc:title></dc:title>
      </cc:Work>
    </rdf:RDF>
  </metadata>
  <g
     inkscape:label="Layer 1"
     inkscape:groupmode="layer"
     id="layer1"
     transform="translate(30.064475,-9.978958)">
    <path
       style="fill:#000000;fill-opacity:1;stroke:#000000;stroke-width:10;stroke-miterlimit:4;stroke-opacity:1;stroke-dasharray:none"
       id="path2816"
       d="m -22.262934,218.22003 c 12.9960784,1.63165 26.1201837,1.88094 39.199941,2.18067 18.931512,0.23202 37.852729,-1.07365 56.771876,-1.7271 17.482059,-0.46861 35.075097,-0.13814 52.486507,1.62352 8.20027,0.91902 16.36182,2.14927 24.57551,2.94789 0.86185,-0.27459 6.24918,1.19151 2.3102,-0.28096 0,0 2.82185,0.3075 2.82185,0.3075 l 0,0 c -2.94788,0.51654 -5.04643,0.89131 -7.92699,0.38809 -8.19389,-0.8147 -16.33685,-2.04819 -24.52029,-2.95663 -15.60946,-1.55287 -31.378683,-2.06299 -47.0543,-1.61245 -20.718862,0.71112 -41.437771,2.12061 -62.174936,1.73307 -13.1103193,-0.30259 -26.266358,-0.55374 -39.290909,-2.20719 0,0 2.801541,-0.39641 2.801541,-0.39641 z" />
    <path
       style="fill:#000000;fill-opacity:1;stroke:#000000;stroke-width:10;stroke-miterlimit:4;stroke-opacity:1;stroke-dasharray:none"
       id="path2818"
       d="m 172.49914,146.20314 c -1.83764,14.53248 -3.89302,29.04124 -5.94912,43.54583 -2.96815,22.01694 -5.51276,44.08814 -8.49983,66.10239 -1.87036,16.25021 -4.28022,32.42354 -6.58374,48.61568 0.60094,0.17016 -2.5881,19.81958 -6.41034,6.08594 -0.12441,-1.06989 -0.24881,-2.13978 -0.37322,-3.20968 0,0 2.81418,-0.0334 2.81418,-0.0334 l 0,0 c 0.12898,1.05483 0.25797,2.10967 0.38695,3.16451 0.62184,2.12744 1.37015,2.32487 -1.41383,3.26629 -0.32876,0.11118 0.49486,-0.50535 0.64199,-0.81967 0.27544,-0.58841 0.47013,-1.21685 0.60846,-1.85163 0.47629,-2.18573 0.41397,-4.46869 0.95867,-6.64223 2.36008,-16.18678 4.78244,-32.36037 6.6622,-48.6124 2.9962,-22.01289 5.53512,-44.08452 8.48196,-66.10405 2.04037,-14.50261 4.09155,-29.00983 5.85101,-43.54766 0,0 2.82466,0.0401 2.82466,0.0401 z" />
    <path
       style="fill:#000000;fill-opacity:1;stroke:#000000;stroke-width:10;stroke-miterlimit:4;stroke-opacity:1;stroke-dasharray:none"
       id="path2820"
       d="m 223.92771,154.77457 c -1.40854,13.80359 -2.96193,27.58607 -3.95708,41.42908 -1.75587,19.16517 -3.23532,38.3497 -5.42306,57.47249 -1.84522,19.48149 -5.02925,38.77814 -8.82339,57.96159 -1.79489,4.53974 -0.5343,11.52945 -4.36037,15.14912 0,0 -2.82908,-0.24269 -2.82908,-0.24269 l 0,0 c 4.02333,-3.18581 2.5883,-10.70103 4.43858,-14.96038 3.82454,-19.17249 7.02957,-38.45878 8.85275,-57.93861 2.18263,-19.11905 3.65595,-38.29951 5.40415,-57.46105 0.98168,-13.84843 2.54477,-27.63358 3.87284,-41.44963 0,0 2.82466,0.0401 2.82466,0.0401 z" />
    <path
       style="fill:#000000;fill-opacity:1;stroke:#000000;stroke-width:10;stroke-miterlimit:4;stroke-opacity:1;stroke-dasharray:none"
       id="path2822"
       d="m 237.73707,241.07717 c 9.77127,1.48719 19.65509,1.85862 29.5185,2.1794 13.01906,0.7687 25.98292,-0.14262 38.96984,-0.94778 15.8807,-1.37969 31.74738,-2.88631 47.66203,-3.82291 6.84837,-0.0299 13.54606,-1.50139 20.25101,-2.7067 1.28009,-0.50254 3.83821,0.0884 4.43094,-1.42887 0.0253,-4.06045 0.82208,-8.03619 1.38748,-12.05069 1.13265,-9.59828 1.26487,-19.27756 1.4184,-28.93011 0.50214,-13.10951 -0.11843,-26.16598 -1.18294,-39.22701 -0.84202,-7.75975 -0.69624,-15.5932 -2.31901,-23.24288 -1.11315,-4.6474 -1.68837,-9.39228 -1.97802,-14.15487 -0.43656,-3.85622 0.29951,-7.84711 -0.53457,-11.64216 -0.95719,-2.74194 -1.84768,-5.05431 1.18756,-6.545739 4.5175,-1.003589 9.23676,-0.760624 13.83948,-0.768971 7.89299,0.217037 15.67847,0.102301 23.49939,-0.743306 8.35568,-1.228738 16.83526,-1.150039 25.20094,-2.18411 6.31231,-1.063987 12.65528,-1.895938 19.03558,-2.406708 3.91007,-0.289237 7.83101,-0.323428 11.74961,-0.335907 3.89451,-0.0068 7.78901,0.0079 11.6835,0.01623 2.1084,-0.308024 1.6873,0.988338 -0.42854,-0.281607 -0.25824,-0.154998 0.55238,-0.25718 0.78304,-0.450849 0.74871,-0.628631 0.81039,-1.072603 1.21838,-1.974405 0.86161,-3.661975 1.55825,-7.35556 2.46731,-11.025542 0.75568,-4.834871 1.76326,-9.593233 2.78215,-14.381379 1.06422,-5.274337 1.36665,-10.654671 1.56196,-16.018859 0.49753,-3.022715 1.39424,-5.964385 2.42519,-8.843751 1.72913,-1.733477 4.78413,-1.352291 7.05023,-1.384945 4.01355,-0.02223 8.02682,0.0336 12.04019,0.05981 3.21064,1.049729 6.58992,1.60113 9.76258,2.750792 4.05057,1.367635 8.11135,2.623846 12.02028,4.371258 5.3609,1.901357 10.50943,4.256468 15.7093,6.534477 6.12116,2.924061 11.9998,6.301416 17.49609,10.277848 5.50016,4.010043 11.4001,7.370528 17.29497,10.747226 4.98229,2.367232 9.8763,4.933612 15.08844,6.77318 2.40016,1.14386 5.33553,0.549963 7.35379,2.362135 0.43577,3.142468 -2.14984,5.335942 -3.85953,7.636133 -3.47616,3.980129 -7.54795,7.345209 -11.70185,10.583287 -5.85084,4.591442 -11.31259,9.624162 -17.15855,14.220902 -5.82356,4.36224 -11.9549,8.29595 -18.30173,11.84896 -3.90254,1.8691 -7.70849,3.94008 -11.80363,5.36989 -3.86441,1.48144 -7.31514,3.72206 -11.14078,5.29539 -3.82342,1.70916 -7.57964,3.55529 -11.40424,5.26246 -3.18243,1.88217 -6.59375,3.30495 -9.78415,5.16705 -3.19118,2.51426 -6.47435,4.79795 -10.03306,0.88823 -2.87596,-4.08723 -3.55258,-8.95825 -4.7786,-13.67324 -2.0533,-6.63431 -2.22879,-13.60989 -3.38696,-20.40267 -0.96783,-4.78042 -1.9678,-9.54775 -2.52972,-14.395622 -0.86919,-2.688789 -1.76317,-5.333335 -2.38037,-8.097405 0,0 2.83433,-0.0623 2.83433,-0.0623 l 0,0 c 0.61959,2.772797 1.54325,5.419126 2.37991,8.127281 0.55159,4.842746 1.54949,9.605016 2.5079,14.380736 1.148,6.78677 1.33174,13.75286 3.38891,20.37841 1.21422,4.67317 1.89286,9.51189 4.79382,13.53314 1.74218,1.85042 1.07208,0.43568 -0.58478,2.00673 -0.22615,0.21443 0.60942,-0.14178 0.89881,-0.25744 1.55393,-0.62107 2.66711,-1.84499 4.07012,-2.72022 3.19114,-1.88174 6.61419,-3.28635 9.79224,-5.19814 3.83151,-1.69666 7.5857,-3.54895 11.40465,-5.27135 3.84366,-1.55236 7.2916,-3.78124 11.14113,-5.31095 4.10682,-1.40081 7.90117,-3.46958 11.81365,-5.31872 6.35579,-3.52254 12.47941,-7.45894 18.306,-11.80397 5.84973,-4.59175 11.31633,-9.61469 17.15367,-14.222471 4.13845,-3.223327 8.18835,-6.568497 11.67769,-10.5078 1.57846,-2.155866 4.19515,-4.280383 3.84938,-7.210167 -2.05476,-1.650283 -5.00564,-1.060912 -7.32435,-2.261707 -5.20267,-1.868805 -10.10673,-4.434313 -15.0798,-6.824595 -5.90259,-3.373368 -11.79026,-6.765052 -17.29387,-10.776983 -5.50041,-3.951465 -11.37741,-7.3189 -17.49854,-10.218238 -5.19365,-2.299248 -10.36911,-4.592265 -15.71455,-6.534349 -3.91904,-1.715857 -7.98171,-2.973429 -12.02716,-4.348238 -3.1804,-1.08756 -6.51947,-1.756597 -9.75367,-2.657039 -0.29944,-0.0021 -11.44187,-0.07986 -6.43631,-0.06157 -2.23998,0.02372 -5.10375,-0.319426 -7.00685,1.043637 -1.04181,2.84754 -1.93271,5.762173 -2.44489,8.755282 -0.19926,5.380095 -0.50792,10.776364 -1.56701,16.067519 -1.01579,4.791922 -2.02722,9.551815 -2.7752,14.391167 -0.91714,3.685188 -1.61413,7.390669 -2.45786,11.073955 -1.36443,3.210781 -3.86757,3.223152 -7.21624,3.033483 -0.32856,-8.52e-4 -10.37629,-0.02351 -6.07849,-0.01768 -3.92035,0.0094 -7.84306,0.03542 -11.75563,0.313228 -6.38579,0.497218 -12.73664,1.308785 -19.05082,2.39113 -8.36255,1.078315 -16.85111,0.943963 -25.20781,2.187898 -7.81087,0.860098 -15.63859,0.923452 -23.48896,0.775319 -4.59244,0.0062 -9.2653,-0.192672 -13.79716,0.655357 -3.097,1.241702 -2.05741,3.519062 -1.17564,6.159312 0.8043,3.81865 0.10814,7.80943 0.5273,11.685 0.29104,4.74866 0.86044,9.47934 1.97056,14.1135 1.60574,7.66364 1.44688,15.50798 2.27609,23.27913 1.04435,13.06989 1.67011,26.13663 1.18964,39.25374 -0.14988,9.6637 -0.27836,19.35322 -1.38976,28.96475 -0.55814,4.03494 -1.3535,8.02841 -1.35166,12.10973 -0.60164,1.81438 -2.87068,1.26484 -4.4772,1.72389 -6.72643,1.19884 -13.44121,2.70765 -20.31033,2.73165 -15.92166,0.92326 -31.79598,2.41492 -47.68081,3.81904 -14.80057,0.91874 -29.60666,1.68202 -44.43841,0.95911 -9.883,-0.32678 -19.78602,-0.70907 -29.5755,-2.20847 0,0 2.80155,-0.39641 2.80155,-0.39641 z" />
    <path
       style="fill:#000000;fill-opacity:1;stroke:#000000;stroke-width:10;stroke-miterlimit:4;stroke-opacity:1;stroke-dasharray:none"
       id="path2824"
       d="m 629.6442,17.293269 c -1.29036,9.908562 -2.18639,19.844261 -3.85635,29.705239 -2.03488,11.986048 -4.74264,23.856527 -7.70894,35.644181 -3.00311,10.81645 -5.02402,21.834361 -7.29032,32.811801 -1.40701,6.33177 -2.61199,12.70472 -3.39003,19.14491 0.42767,4.61384 -3.62945,3.09888 -4.84882,-0.54297 0,0 2.83078,-0.093 2.83078,-0.093 l 0,0 c 0.89786,2.58821 1.07784,1.2869 -1.43927,3.01893 -0.11323,0.0779 0.33046,-0.0189 0.38616,-0.14458 0.30872,-0.69648 -0.19728,-1.60642 0.239,-2.27298 0.80403,-6.44662 2.01376,-12.82792 3.43221,-19.16728 2.2804,-10.9789 4.29801,-22.003053 7.30395,-32.823327 2.96781,-11.779922 5.67548,-23.643364 7.7098,-35.622241 1.66904,-9.859734 2.5621,-19.791977 3.80276,-29.705408 0,0 2.82907,0.04672 2.82907,0.04672 z" />
    <path
       style="fill:#000000;fill-opacity:1;stroke:#000000;stroke-width:10;stroke-miterlimit:4;stroke-opacity:1;stroke-dasharray:none"
       id="path2826"
       d="m 632.35902,72.141198 c 5.40466,-0.243998 10.86035,0.33502 16.25968,0.0018 1.64953,-0.101785 3.25384,-0.590371 4.89361,-0.796435 6.92964,-0.728122 13.76455,-1.879615 20.61167,-3.145192 6.13437,-1.030462 12.08759,-2.802036 18.24323,-3.749286 4.94091,-0.437976 9.71837,-1.826733 14.27566,-3.728593 4.21903,-1.87146 7.75791,-2.305103 8.72741,2.789395 0.61206,7.565493 0.40535,15.181536 0.38699,22.766648 -0.82654,10.890737 -1.83877,21.760595 -2.40741,32.670215 -0.46067,9.22832 -1.33868,18.51945 -2.94471,27.62665 -1.27493,5.93335 -2.32621,11.90758 -2.95912,17.94371 -0.23869,2.32106 -0.33129,4.65517 -0.33828,6.98772 0.0808,0.49892 -0.26083,1.06018 0.35092,0.70532 -5.49031,0.27048 5.40453,-0.30538 5.79333,-0.37599 5.6435,-0.99903 11.20049,-2.36416 16.81734,-3.4973 7.76022,-2.00282 15.55681,-3.89206 23.42135,-5.44207 9.43643,-1.91354 18.7208,-4.44287 28.00894,-6.96215 10.17298,-3.00907 20.39534,-5.86385 30.68458,-8.4504 10.46053,-2.5544 21.02003,-4.61367 31.59919,-6.6071 9.89085,-2.01453 19.88741,-3.44562 29.80984,-5.26765 7.65111,-1.41972 15.29522,-2.7505 22.89283,-4.44321 4.83558,-1.17663 9.8167,-1.19146 14.59175,-2.59764 2.75293,-0.64606 7.9673,-3.38149 10.01847,-0.30366 0.88376,2.60313 0.53841,5.49383 0.48427,8.20295 -0.0824,3.98916 -0.12534,7.97892 -0.14965,11.9688 -0.0169,3.75816 -0.0152,7.51635 -0.0172,11.27454 0.003,4.23475 -6.6e-4,8.4695 -0.002,12.70425 -0.002,5.51064 -0.002,11.02128 -0.002,16.53191 -0.002,6.68587 -0.005,13.37174 -0.006,20.0576 -0.0292,7.48528 -1.40872,14.88994 -2.07228,22.34168 -0.7011,7.49125 -1.62727,15.04198 -3.19094,22.40982 -1.76605,5.92916 -2.14831,12.11956 -3.33071,18.15318 -1.25281,4.95344 -2.12982,9.94781 -2.5372,15.03823 -0.34904,5.50276 -1.70256,10.87742 -2.38838,16.35068 -0.54815,4.42986 -0.35692,8.85545 -1.56905,13.1716 -1.01481,3.63698 -1.45589,9.8563 -6.66487,3.6596 -0.61721,-1.15523 -1.23442,-2.31046 -1.85162,-3.46569 0,0 2.80165,-0.13929 2.80165,-0.13929 l 0,0 c 0.62371,1.13378 1.24742,2.26756 1.87113,3.40134 0.0185,0.0201 3.87737,3.31837 -0.53733,2.00497 -0.46914,-0.13957 2.07997,-5.18139 1.54949,-5.53917 1.2301,-4.29846 1.02215,-8.71302 1.58159,-13.12844 0.68311,-5.46938 2.0335,-10.84015 2.38376,-16.33806 0.40497,-5.10238 1.27904,-10.10758 2.5434,-15.07049 1.19115,-6.0335 1.56159,-12.22876 3.3379,-18.15747 1.57366,-7.35434 2.49415,-14.89591 3.19665,-22.37571 0.66238,-7.44344 2.03073,-14.84066 2.06874,-22.31678 -6.1e-4,-6.68586 -0.004,-13.37173 -0.006,-20.0576 -2.5e-4,-5.51063 -5.5e-4,-11.02126 -0.003,-16.53189 -0.002,-4.23476 -0.007,-8.46953 -0.005,-12.70429 -0.002,-3.75871 -0.002,-7.51746 0.0169,-11.27613 0.021,-3.99119 0.0733,-7.98203 0.14907,-11.97257 0.0476,-2.6416 0.40346,-5.49245 -0.49147,-8.02042 -0.91397,-1.16911 -0.95691,-0.78026 1.33845,-1.12665 0.33495,-0.0506 -0.65333,0.17928 -0.97974,0.26983 -1.57972,0.43824 -3.15723,0.88449 -4.7307,1.34472 -4.77804,1.45223 -9.75429,1.47343 -14.61122,2.61546 -7.60576,1.69271 -15.25182,3.04327 -22.91337,4.45067 -9.92082,1.84545 -19.92995,3.23489 -29.82098,5.2652 -10.57916,1.98655 -21.13607,4.04958 -31.59819,6.59044 -10.28824,2.57444 -20.50599,5.43395 -30.67362,8.44654 -9.28996,2.51536 -18.56994,5.06124 -28.0055,6.98261 -7.86303,1.53563 -15.65815,3.42002 -23.40856,5.44262 -5.61374,1.12065 -11.1576,2.50667 -16.79596,3.5015 -3.73759,0.78707 -7.62232,0.20937 -11.4187,0.42241 -0.52077,-0.30937 -0.38756,-0.53013 -0.38135,-1.14226 0.0195,-2.34201 0.11204,-4.68615 0.35939,-7.016 0.64838,-6.04196 1.70011,-12.02383 2.98497,-17.96297 1.61822,-9.09344 2.49493,-18.37585 2.96039,-27.59205 0.57112,-10.90456 1.58682,-21.769697 2.40421,-32.656207 0.0111,-7.566638 0.20954,-15.166013 -0.42948,-22.711134 -0.73466,-3.618375 -2.87937,-2.965729 0.0933,-3.530451 1.0933,-0.207696 -5.17032,0.832962 -3.17975,1.017418 -4.5632,1.915592 -9.33469,3.375841 -14.29434,3.796084 -6.16295,0.924064 -12.11515,2.693537 -18.24812,3.739613 -6.85166,1.260502 -13.6824,2.448452 -20.6184,3.160126 -8.87193,1.139064 -17.79745,0.808324 -26.72181,0.83247 0,0 2.79049,-0.44197 2.79049,-0.44197 z" />
    <path
       style="fill:#000000;fill-opacity:1;stroke:#000000;stroke-width:10;stroke-miterlimit:4;stroke-opacity:1;stroke-dasharray:none"
       id="path2828"
       d="m 384.95212,226.14381 c 1.96878,7.30871 3.48305,14.72466 4.38284,22.23909 0.65863,6.22818 0.9026,12.42992 -0.12918,18.61257 -0.55196,5.08499 -2.19529,9.9014 -3.60091,14.78757 -1.43222,3.26329 -2.7022,6.59675 -4.46681,9.69873 -2.18109,2.81467 -3.67614,5.97663 -4.76249,9.34421 -1.01741,2.71675 1.87698,2.57973 3.78926,2.7172 5.28858,0.16431 10.58228,0.087 15.87261,0.0739 10.48665,-0.83 20.95816,-1.79227 31.38712,-3.17522 9.92442,-1.38525 19.93083,-2.00087 29.93619,-2.40688 5.2337,-0.21767 10.47209,-0.21141 15.70904,-0.2096 0.32193,0.002 1.19909,0.2264 0.96581,0.005 -0.41234,-0.39217 -1.38719,-0.0753 -1.59657,-0.60443 -0.16525,-0.41761 0.66306,-0.60602 1.00015,-0.90279 1.28529,-1.13157 2.29763,-2.30678 3.37972,-3.64011 2.86145,-4.18401 6.08071,-8.13393 9.22117,-12.12116 3.76124,-5.5543 7.88112,-10.84012 11.77044,-16.30259 3.97106,-5.10368 6.22606,-11.10397 8.79021,-16.94507 0.25503,-0.53752 2.63603,-5.63828 2.97133,-5.55132 1.06587,0.27645 2.06511,0.76509 3.09766,1.14764 0.42803,4.26939 0.25773,8.58346 0.23598,12.86924 -0.06,10.32388 -0.0736,20.64796 -0.0793,30.97199 -0.005,9.61084 -0.002,19.22169 0.004,28.83253 0.004,5.44088 0.005,10.88176 0.0158,16.32264 -8.1e-4,0.30436 0.83495,5.61462 -1.71945,1.53905 -0.26115,-0.41666 0.68356,-0.71784 0.93775,-1.13878 0.36594,-0.60597 0.60597,-1.27954 0.90896,-1.91931 3.50117,-8.08139 5.77428,-16.66285 8.33296,-25.08058 3.2968,-10.8712 6.63643,-21.719 10.33473,-32.46 1.84996,-4.24925 2.52215,-8.87967 3.93373,-13.25714 0.99431,0.35234 2.18566,0.36627 2.98295,1.05702 0.1291,0.11185 0.0659,11.11174 0.0615,11.93541 -0.0486,8.50531 -0.0639,17.01077 -0.0716,25.5162 -0.25057,8.13165 0.46474,16.31496 -0.34132,24.41823 0.19635,4.27443 -2.60042,8.859 -1.8349,13.09462 1.17481,0.90184 -1.11477,-0.27513 -1.20323,-0.73708 -0.1134,-0.59224 0.72485,-0.96489 1.05519,-1.46935 1.61427,-2.46517 2.79412,-5.0215 3.93017,-7.734 4.81513,-11.59095 9.80476,-23.06715 14.06802,-34.87552 3.65085,-10.67958 8.40713,-20.9212 12.55519,-31.40218 2.19464,-3.5452 2.7982,-8.47509 5.57222,-11.68288 1.16741,0.41966 2.49273,0.53794 3.50222,1.25898 1.08887,0.77772 2.78372,11.47098 3.10336,13.02066 1.39827,9.24209 2.02256,18.54529 3.91987,27.71349 1.85442,8.04157 2.86509,16.22333 4.67121,24.2704 1.08974,4.69306 1.89882,9.43426 2.30008,14.23443 0.35562,1.0473 -0.65398,5.88784 0.98122,5.87721 -0.70466,-0.2204 -1.6237,-0.10917 -2.11399,-0.6612 -0.2771,-0.312 0.36032,-0.7536 0.51225,-1.14224 0.25152,-0.64339 0.50109,-1.28922 0.69722,-1.95159 1.02552,-3.46335 1.82884,-7.0227 2.65024,-10.53755 2.54084,-9.66829 4.74743,-19.42735 7.38452,-29.06925 1.45911,-4.86425 2.3767,-9.89455 6.14202,-13.50812 3.0219,-2.16346 6.64572,-2.17316 10.21136,-2.2824 6.2652,-0.0673 12.53106,-0.002 18.79636,0.0291 5.45623,0.0252 10.91253,0.0312 16.36882,0.035 3.50136,0.002 8.024,9.2e-4 8.37515,8.6e-4 3.32724,-2.5e-4 6.65449,-4e-4 9.98173,-3.1e-4 3.49188,-1.9e-4 6.98377,-1.7e-4 10.47565,1.4e-4 5.13916,-4.6e-4 10.27833,2.6e-4 15.4175,5.8e-4 2.89355,-0.63238 6.38474,0.80996 9.22829,-5.3e-4 0.29623,-0.0844 -0.57861,-0.21151 -0.86792,-0.31727 0.67266,-0.15467 1.34531,-0.30935 2.01797,-0.46402 3.60813,-0.80494 4.95077,-0.89579 6.67246,-4.18656 2.04761,-3.64997 2.39779,-7.82239 2.71161,-11.9103 0.4665,-6.00735 1.71954,-11.91703 2.34996,-17.92147 0.53937,-5.76833 0.68158,-11.56304 0.75059,-17.35292 0.0361,-5.26527 0.0194,-10.53074 0.0132,-15.79609 -0.63018,-4.48591 -1.78211,-8.86673 -2.3546,-13.36314 -0.41495,-3.41713 -0.49837,-6.86145 -0.5343,-10.29972 -0.9255,-3.15487 -1.78274,-6.30732 -2.33597,-9.55181 -0.17479,-2.3044 -0.75484,-4.46665 -1.31486,-6.69803 0,0 2.82898,-0.0703 2.82898,-0.0703 l 0,0 c 0.57399,2.23597 1.15065,4.40844 1.32153,6.72056 0.55387,3.26018 1.44613,6.41731 2.33637,9.59658 0.0377,3.42717 0.11412,6.86034 0.52685,10.26679 0.57856,4.50658 1.73532,8.89882 2.3463,13.39875 0.007,5.2666 0.0262,10.53332 -0.009,15.79986 -0.0708,5.79865 -0.22707,11.60172 -0.7625,17.3789 -0.62856,6.00147 -1.86944,11.91021 -2.33853,17.91355 -0.31165,4.12148 -0.65382,8.33742 -2.7029,12.0244 -1.76339,3.43297 -2.90374,3.61016 -6.70077,4.42934 -5.23661,1.24393 -10.63562,0.75972 -15.9717,0.84524 -3.61268,2.2e-4 -7.22537,0.001 -10.83805,7.2e-4 -0.33541,-4e-5 0.67082,-10e-5 1.00623,-1.5e-4 -3.49105,3.1e-4 -6.98209,3.3e-4 -10.47313,2.5e-4 -3.32661,2.3e-4 -6.65321,3.1e-4 -9.97982,6e-4 -4.65551,-1.6e-4 -9.31102,7.4e-4 -13.96653,-0.003 -5.45442,-0.005 -10.90886,-0.012 -16.36324,-0.0371 -4.6464,-0.023 -8.72109,-0.079 -13.21736,-0.0344 -3.52583,0.093 -7.12943,0.0493 -10.18,2.07875 -3.80673,3.52523 -4.7064,8.52855 -6.17279,13.35223 -2.65031,9.63423 -4.85329,19.39077 -7.38022,29.05835 -0.26864,1.16187 -2.95015,13.34179 -3.82365,13.78587 -1.08164,0.5499 -2.36449,0.54632 -3.54673,0.81948 -1.80925,-0.90061 -0.50573,-4.6265 -0.98997,-6.23056 -0.39022,-4.78691 -1.19561,-9.51548 -2.27597,-14.19588 -1.79751,-8.0495 -2.79569,-16.23398 -4.65371,-24.27545 -1.88718,-9.1699 -2.51757,-18.47377 -3.93583,-27.71291 -0.77172,-3.70259 -1.28141,-7.66982 -2.4715,-11.26359 -0.1884,-0.56894 -0.93913,-1.14378 -0.65816,-1.67316 0.38678,-0.72874 1.44937,-0.78865 2.17406,-1.18298 -2.77343,2.59178 -3.48904,8.50775 -5.61255,11.5713 -4.16043,10.47786 -8.94927,20.70738 -12.59345,31.39213 -4.25911,11.80914 -9.24618,23.28459 -14.02293,34.89052 -0.90247,2.18571 -5.10359,13.75777 -9.43469,9.87634 -0.65265,-4.30776 1.97473,-8.83654 1.86842,-13.16934 0.8182,-8.09249 0.10661,-16.26872 0.35672,-24.39041 0.01,-8.50576 0.0179,-17.01153 0.0525,-25.51724 0.0141,-3.44297 0.0839,-6.89438 -0.0163,-10.33672 -0.0152,-0.52019 -0.4463,-1.19667 -0.0732,-1.55951 0.68978,-0.67089 1.80475,-0.66814 2.70713,-1.00222 -1.53015,4.33548 -2.05543,9.03855 -3.98738,13.25734 -3.71296,10.73398 -7.0692,21.57435 -10.34878,32.4491 -2.55605,8.42719 -4.81944,17.01797 -8.28651,25.12144 -1.49485,3.28827 -6.06631,7.47535 -5.78792,1.39623 0.0102,-5.44088 0.0113,-10.88177 0.0148,-16.32266 0.006,-9.61092 0.0109,-19.22184 0.0193,-28.83275 0.012,-10.32434 0.0148,-20.6487 0.0439,-30.97301 0.0162,-4.26216 0.17775,-8.55443 -0.26135,-12.79883 0.86072,-0.30968 1.72022,-0.62279 2.58216,-0.92904 0.3676,-0.13061 -0.55496,0.56304 -0.74075,0.90606 -0.79498,1.46776 -1.54369,2.96041 -2.24615,4.47469 -2.58728,5.85053 -4.83587,11.87543 -8.80705,17.00167 -3.89056,5.46525 -8.01393,10.75189 -11.76543,16.31659 -3.13982,3.98511 -6.35881,7.93732 -9.20678,12.12551 -2.6044,3.24333 -4.64964,5.82676 -9.37879,5.3945 0.50064,-8e-4 2.00255,-0.003 1.50191,-0.002 -3.87837,0.006 -7.75702,0.0476 -11.63296,0.196 -10.01163,0.39391 -20.02508,0.99698 -29.95607,2.37788 -10.42757,1.38787 -20.89531,2.34686 -31.37843,3.21306 -7.1454,0.0196 -14.29588,0.13675 -21.43841,-0.0895 -2.12256,-0.18767 -4.87208,-0.38324 -3.82301,-3.22697 1.09274,-3.38209 2.56032,-6.58423 4.76828,-9.40285 1.77029,-3.0778 3.02393,-6.39378 4.47,-9.63098 1.41227,-4.87448 3.06043,-9.67862 3.60973,-14.75486 1.03557,-6.15632 0.797,-12.3294 0.1362,-18.5323 -0.89427,-7.50036 -2.38694,-14.90937 -4.39289,-22.19396 0,0 2.8229,-0.0786 2.8229,-0.0786 z" />
    <path
       style="fill:#000000;fill-opacity:1;stroke:#000000;stroke-width:10;stroke-miterlimit:4;stroke-opacity:1;stroke-dasharray:none"
       id="path2830"
       d="m 912.35902,320.71263 c 8.77536,0.004 17.55073,0.002 26.3261,0.003 8.01014,-1.22051 16.12992,-1.52994 24.14981,-2.66196 7.4547,-1.43248 14.98563,-2.2645 22.55581,-2.73566 6.81375,-1.07781 13.62583,-2.09002 20.50156,-2.67381 6.0647,0.0119 11.9672,-1.30213 17.9284,-2.22035 5.8927,-0.71006 11.6177,-2.29738 17.4891,-3.16025 4.2808,-0.14132 8.2949,-1.48349 12.4033,-2.53342 4.825,-0.98136 8.2161,-2.231 9.8636,3.21318 0.6391,6.25716 -0.7666,12.65272 -1.3114,18.92006 -0.2813,9.05972 -1.0704,18.04352 -2.1391,27.04041 -0.7982,8.23161 -2.4514,16.36342 -4.3828,24.39673 -1.17,5.34895 -3.549,10.30635 -4.8018,15.63185 -0.7624,3.38173 -0.9168,6.84913 -0.9817,10.30181 -0.012,2.59653 0.5049,5.26592 -1.625,7.13134 -2.5748,1.42615 -5.7483,1.22556 -8.6104,1.27253 -2.8779,0.36999 -6.0632,-0.63852 -8.8742,-0.004 -0.2406,0.0543 0.8947,0.20373 0.6721,0.31009 -1.3597,0.64956 -2.9378,0.70807 -4.3459,1.24453 -4.2212,1.41626 -7.9371,3.65411 -11.5843,6.14525 -2.7928,2.3324 -5.2326,5.03039 -6.992,8.21723 -1.3183,3.01977 -1.7118,5.78485 -0.3445,8.80186 1.8,3.86807 5.6004,4.90709 9.3319,6.12131 4.9484,1.52407 10.0672,2.26685 15.2097,2.71339 -1.1198,-1.31075 7.5357,1.59184 5.4437,0.24226 -0.012,-0.007 -3.744,-1.58492 -4.4659,-1.83625 -7.4685,-0.54457 1.9936,-1.91136 -3.9171,0.46668 -2.0141,0.81029 -2.2432,1.03881 -4.1677,2.1541 -3.6666,2.392 -7.2344,5.10332 -10.0425,8.48325 -2.3903,3.07049 -4.9361,6.01955 -3.9708,10.05206 1.3856,3.76333 4.3574,6.2156 7.972,7.69671 4.4523,1.34719 9.1271,1.49336 13.7417,1.59091 4.156,0.0272 4.7619,0.0375 8.8887,-0.0108 1.0329,1.09908 -5.4241,-0.14957 -1.243,0.72389 -4.4631,0.95144 -8.6065,2.68179 -12.6755,4.6962 -3.3118,1.56905 -6.3514,3.76608 -8.2749,6.92376 -1.6164,2.7828 -0.8467,5.54081 0.4897,8.25558 2.3297,3.11467 5.2493,5.60895 8.5185,7.68566 3.6478,1.98114 7.532,3.58705 11.5227,4.74593 3.2219,0.81856 6.5355,1.01723 9.8363,1.23886 -1.0793,1.12507 -4.8076,0.39721 -5.5214,0.46753 -0.3532,0.0348 1.3091,0.10746 1.0182,0.31083 -1.2558,0.87816 -2.9979,0.63687 -4.5004,0.93809 -7.2238,1.7283 -14.0871,4.47535 -20.6444,7.92639 -5.3176,2.99289 -9.8725,7.06011 -14.2793,11.22993 -2.9403,2.99981 -4.2805,6.15406 -2.4133,10.001 2.1121,2.63725 5.2502,3.00219 8.4069,3.30325 3.7784,0.23468 6.4641,0.155 8.2391,0.14607 4.8696,-0.0289 9.7392,-0.0375 14.6088,-0.0436 4.2867,0.17866 8.3981,-1.2449 12.5658,-2.05031 3.1188,-0.22539 8.3702,-2.31107 9.9312,1.33012 0.9653,4.633 0.7596,9.42327 0.7656,14.13122 -0.023,7.08878 -0.053,14.17752 -0.067,21.26632 -0.016,7.19004 -0.014,14.38011 -0.013,21.57017 -0.4129,4.27757 1.1607,9.22398 -1.1463,13.07082 -2.8605,2.84407 -7.6862,2.77189 -11.4715,3.414 -11.3885,1.14326 -22.7093,2.8196 -34.0502,4.35848 -17.7677,2.48144 -35.44188,5.51959 -53.07609,8.80867 -16.12349,2.98634 -32.32049,5.53144 -48.4607,8.41844 -7.84889,1.34146 -15.75066,2.37085 -23.67695,3.12645 -5.86744,0.62798 -4.40482,-1.30338 -3.76966,-5.43935 0,0 2.82179,0.0423 2.82179,0.0423 l 0,0 c -0.0753,0.50675 -0.59559,4.25323 -0.73747,4.35906 -2.53085,1.88774 -4.19563,0.57732 -1.11738,0.62093 7.9474,-0.73443 15.86941,-1.75916 23.73858,-3.09399 16.15215,-2.88262 32.35982,-5.42804 48.49501,-8.41148 17.62719,-3.29435 35.29522,-6.33273 53.05517,-8.82544 11.3219,-1.53511 22.6193,-3.24279 33.9918,-4.35762 3.7319,-0.62901 8.4845,-0.5834 11.4254,-3.17839 2.4026,-3.70797 0.6906,-8.73207 1.1644,-12.91293 0,-7.19025 0.01,-14.38049 0.019,-21.57072 0.016,-7.08844 0.043,-14.17685 0.057,-21.2653 -0.01,-4.66622 0.201,-9.42273 -0.785,-14.00941 -0.8993,-1.81721 -2.1589,-1.06441 0.531,-1.6512 5.0717,-1.10636 -9.4497,1.40157 -4.8189,0.5889 -4.1789,0.79392 -8.2957,2.24322 -12.5848,2.10122 -4.8663,0.006 -9.7326,0.0145 -14.5988,0.044 -4.6114,0.0247 -9.2345,0.1264 -13.839,-0.17238 -3.2242,-0.34466 -6.3768,-0.81199 -8.4377,-3.59224 -1.85479,-3.9641 -0.5732,-7.2537 2.4356,-10.35621 4.4205,-4.18439 8.9749,-8.28105 14.2981,-11.30522 6.5604,-3.46747 13.4142,-6.24039 20.6393,-8.00885 1.5009,-0.2983 2.9744,-0.7533 4.4929,-0.9421 3.5807,-0.44521 6.5892,-0.35148 3.1587,-0.36319 -0.4648,-0.002 1.7116,-0.2085 1.335,0.40215 -3.3007,-0.2243 -6.6123,-0.45875 -9.8269,-1.30311 -3.9908,-1.19702 -7.8958,-2.79345 -11.5318,-4.82585 -3.2772,-2.13163 -6.2393,-4.64592 -8.5357,-7.83981 -1.3437,-2.80306 -2.126,-5.66655 -0.4892,-8.53657 1.8964,-3.22475 4.9509,-5.49183 8.2998,-7.08401 4.073,-2.01854 8.1952,-3.80872 12.6685,-4.7577 4.4553,-0.40182 2.7844,-0.37963 5.2544,-0.37273 0.1714,4.8e-4 2.7079,-0.0367 1.6139,0.46543 -4.8302,0.0544 -9.6615,0.049 -14.4918,0.005 -4.6251,-0.10946 -9.3156,-0.27349 -13.7593,-1.69583 -3.6438,-1.57577 -6.6278,-4.12447 -7.9941,-7.96251 -0.9473,-4.14803 1.4949,-7.14591 3.9779,-10.3116 2.7864,-3.43002 6.3905,-6.15075 10.0577,-8.58206 4.2471,-2.51895 8.7176,-4.29684 13.7132,-2.66379 6.0338,2.76359 -5.2614,2.85745 -6.594,2.348 -5.1466,-0.46485 -10.2673,-1.2362 -15.2159,-2.77708 -3.8015,-1.23711 -7.5622,-2.42171 -9.3586,-6.35658 -1.3651,-3.11318 -0.9938,-5.95125 0.3414,-9.06293 1.7647,-3.23157 4.2069,-5.96176 7.0091,-8.34962 3.6631,-2.48993 7.3462,-4.80332 11.5928,-6.20821 4.5191,-1.82062 10.0957,-1.72515 12.5573,-1.65133 2.8413,-0.0377 5.9578,0.16017 8.5764,-1.0865 2.2264,-1.6509 1.5617,-4.41299 1.6207,-6.88372 0.063,-3.47282 0.2254,-6.96059 0.9916,-10.36165 1.2455,-5.33138 3.6347,-10.28545 4.8234,-15.63306 1.9352,-8.02154 3.5901,-16.14281 4.3891,-24.36363 1.076,-8.99334 1.8617,-17.97385 2.1339,-27.03135 0.5341,-6.23003 1.9297,-12.59397 1.2824,-18.81087 -0.3214,-1.01482 -0.4732,-1.99145 -1.2566,-2.78039 -0.2773,-0.27921 -1.2158,-0.27881 -1.0086,-0.61331 0.262,-0.42295 1.8665,-0.47377 1.4845,-0.15501 -0.8954,0.74717 -2.5926,-0.26357 -3.4426,0.62378 -4.1192,1.04213 -8.1274,2.44079 -12.4198,2.56106 -5.8769,0.84165 -11.5991,2.43605 -17.4903,3.15788 -5.9665,0.90654 -11.8661,2.26923 -17.9358,2.23867 -6.8784,0.56945 -13.69723,1.55296 -20.50542,2.6796 -7.57243,0.4575 -15.10901,1.26506 -22.56335,2.7116 -9.81899,1.42434 -19.78501,2.09271 -29.6795,2.70024 -8.78603,7.4e-4 -17.57207,-9.8e-4 -26.3581,0.003 0,0 2.79049,-0.44197 2.79049,-0.44197 z" />
    <path
       style="fill:#000000;fill-opacity:1;stroke:#000000;stroke-width:10;stroke-miterlimit:4;stroke-opacity:1;stroke-dasharray:none"
       id="path2832"
       d="m 907.57433,315.44031 c -9.92419,-0.36151 -19.7894,0.82829 -29.65543,1.70626 -7.9849,0.68441 -15.99463,0.9702 -24.00508,1.10966 -4.55994,-0.25208 -8.95546,0.24497 -13.26462,1.73147 -0.76069,0.26836 -1.49201,0.6014 -2.17958,1.02005 -0.003,2.14886 0.0354,4.29996 0.0497,6.44949 -1.00368,5.4914 -1.85844,10.97439 -2.31029,16.54183 -0.51424,7.97567 -1.9334,15.85264 -2.60593,23.82098 -0.50815,7.0948 -0.69312,14.20705 -0.76664,21.31793 -0.0319,4.00984 -0.0119,8.0198 -0.003,12.02969 0.008,2.68134 0.0121,5.36269 0.0155,8.04403 0.20123,2.79728 -2.85788,3.00049 -4.96431,3.23347 -4.03051,0.0884 -8.02552,0.87954 -11.83149,2.19463 -4.57936,1.53882 -8.63235,4.1575 -12.76359,6.59296 -3.58905,2.10863 -6.05391,4.77233 -6.11805,9.0119 0.81565,4.05665 4.37089,5.82292 7.63436,7.74679 4.06126,2.09803 8.65967,2.34564 13.13389,2.61989 2.58754,0.1262 5.1781,0.14046 7.76802,0.14726 0.48652,10e-4 -0.97316,0.007 -1.45956,-0.003 -0.33944,-0.008 0.67905,-0.004 1.01857,-0.006 0.98684,0.14688 -3.24641,-1.20935 -3.74093,-1.35052 -3.86109,-1.06368 -5.94012,-0.1955 -10.27198,1.42094 -4.43706,1.4786 -8.80688,3.40101 -12.30358,6.55664 -2.88374,2.7517 -4.73325,5.98203 -5.58528,9.84544 -0.20017,3.76615 1.83301,6.30384 4.28818,8.86883 3.22315,2.10259 7.12583,3.27828 10.81287,4.41284 4.50603,1.47898 7.76187,1.03038 12.1671,0.31696 3.31201,-0.66431 6.67701,-0.952 10.01891,-1.40067 -0.22224,0.97282 -2.73231,-0.27797 -2.83543,0.28315 -0.0831,0.45235 1.51962,-0.1215 1.34582,0.30432 -0.0598,0.14653 -3.02984,0.76413 -3.90666,0.95624 -5.9914,1.48 -11.63992,3.93812 -17.3002,6.33937 -5.40121,1.7102 -10.33819,4.46219 -15.38954,6.96032 -2.95495,1.17963 -5.13633,3.2195 -3.63857,6.40592 1.76874,2.72483 4.98519,4.22282 7.93442,5.3472 3.37828,1.23739 6.95968,1.61967 10.52723,1.80147 5.16229,0.10016 3.35642,0.0805 7.17037,0.0645 2.64946,-0.0122 5.29894,-0.0191 7.94841,-0.0252 1.23413,0.38176 2.56049,0.54122 3.70238,1.14528 1.76341,0.93284 1.10848,7.12874 1.11313,8.53286 0.34112,7.0929 -0.63639,14.07512 -1.46249,21.0951 -1.73898,8.80593 -2.85552,17.70057 -4.66189,26.49157 -0.95989,6.20152 -2.23135,12.27035 -3.78502,18.34274 -0.69624,3.8645 -1.71533,7.57897 -2.94365,11.30378 -1.10871,3.5893 -1.37926,7.34042 -1.55377,11.06939 -0.51675,3.61726 0.4314,6.30415 2.44113,9.20278 2.60472,2.87416 5.80871,4.60312 9.47156,5.72642 6.16957,2.04552 12.50843,3.6666 18.86329,5.05202 5.28158,0.97394 15.11304,4.92573 20.20356,2.69915 5.19376,-0.38997 9.30122,-2.44137 13.32116,-5.57867 0,0 2.7972,0.2533 2.7972,0.2533 l 0,0 c -4.01572,3.19865 -8.1057,5.3274 -13.34139,5.73125 -8.89761,0.63613 -17.22971,0.20072 -25.76208,-2.72583 -6.36068,-1.4029 -12.70668,-3.02259 -18.88573,-5.0741 -3.67714,-1.17971 -6.92088,-2.96856 -9.4984,-5.91192 -2.03322,-2.9414 -2.94217,-5.74326 -2.44316,-9.3878 0.17972,-3.75421 0.44626,-7.53026 1.55501,-11.14642 1.23198,-3.71828 2.25421,-7.42517 2.95297,-11.28407 1.55328,-6.06925 2.85096,-12.1287 3.8057,-18.32897 1.81491,-8.78174 2.92872,-17.66824 4.66389,-26.46725 0.81611,-7.00934 1.79112,-13.98007 1.43854,-21.06108 -0.0129,-1.98245 0.0787,-4.04892 -0.2545,-6.01624 -0.0733,-0.43266 -0.16546,-0.86619 -0.31929,-1.27716 -0.13727,-0.36674 -0.77591,-0.72099 -0.54775,-1.03923 0.41553,-0.57958 1.29321,-0.60159 1.93981,-0.90238 -2.65202,0.004 -5.30403,0.011 -7.95602,0.0234 -4.2585,0.0179 -8.5188,0.0598 -12.7757,-0.0788 -3.57482,-0.20463 -7.15827,-0.61996 -10.53348,-1.89122 -2.99543,-1.18844 -6.22636,-2.72604 -7.96198,-5.56543 -1.44107,-3.31325 0.49032,-5.6039 3.66671,-6.84011 5.06198,-2.48935 9.98767,-5.28355 15.40309,-6.97508 5.6671,-2.39714 11.30631,-4.88194 17.2945,-6.39359 3.33158,-0.70777 7.98353,-2.5539 11.01563,-0.75452 -3.34257,0.48478 -6.72744,0.69459 -10.04138,1.39069 -5.92101,0.98146 -11.93986,1.40684 -17.7689,-0.35558 -3.70024,-1.16792 -7.66501,-2.30729 -10.83383,-4.55544 -2.49785,-2.64612 -4.50674,-5.29853 -4.29332,-9.14491 0.84658,-3.92093 2.6913,-7.20809 5.59638,-10.01893 3.46386,-3.22303 7.86456,-5.17946 12.31948,-6.66364 5.11216,-1.93706 10.463,-2.93896 15.89004,-1.44299 0.59174,0.17954 5.1309,1.55332 3.73625,2.1569 -4.31003,0.0292 -8.62383,0.044 -12.93044,-0.15592 -4.49413,-0.29163 -9.10307,-0.58214 -13.15487,-2.75161 -3.34886,-1.98972 -6.87372,-3.86681 -7.65331,-8.04407 0.0697,-4.33213 2.4525,-7.11947 6.13905,-9.30089 4.1452,-2.43298 8.18904,-5.08514 12.77174,-6.64652 3.78469,-1.37175 7.80404,-2.18007 11.83156,-2.26274 1.93763,-0.18166 5.10849,-0.17995 4.92759,-2.81821 5e-5,-2.68119 -0.003,-5.36239 -0.008,-8.04358 -0.009,-4.01118 -0.0186,-8.0225 0.0143,-12.0336 0.0917,-7.11767 0.28474,-14.23606 0.79131,-21.33799 0.65978,-7.96899 2.09043,-15.84424 2.59149,-23.8203 0.44649,-5.55869 1.28084,-11.03569 2.29247,-16.51696 -0.02,-2.22395 -0.0772,-4.44939 -0.0666,-6.67264 0.64687,-0.52434 1.41513,-0.86585 2.20873,-1.14882 4.31783,-1.52937 8.71743,-2.09711 13.30411,-1.81707 8.01578,-0.13266 16.03113,-0.40879 24.02185,-1.0868 9.85729,-0.87269 19.71206,-2.08579 29.62709,-1.73578 0,0 2.79049,0.44197 2.79049,0.44197 z" />
    <path
       style="fill:#000000;fill-opacity:1;stroke:#000000;stroke-width:10;stroke-miterlimit:4;stroke-opacity:1;stroke-dasharray:none"
       id="path2834"
       d="m 1112.0745,456.89502 c 7.1701,-3.76236 13.7478,-8.52183 20.1126,-13.49743 3.0408,-2.24136 8.9953,-5.06055 8.7861,1.35204 -1.446,7.42976 -3.1751,14.82179 -4.9014,22.19854 -1.7859,7.95113 -3.9007,15.80224 -5.1303,23.86719 -0.3217,5.90599 -1.6215,11.65134 -2.7134,17.44327 -0.5436,2.70936 -0.6294,5.48871 -1.0664,8.20918 -0.959,-0.42217 -1.918,-0.84434 -2.8771,-1.2665 0,0 2.8408,-0.007 2.8408,-0.007 l 0,0 c -0.9391,0.39729 -1.8782,0.79457 -2.8173,1.19185 0.5149,-2.69355 0.521,-5.48788 1.096,-8.18032 1.0948,-5.78884 2.4086,-11.52871 2.7275,-17.43315 1.2352,-8.07217 3.3545,-15.93048 5.1447,-23.88889 1.7222,-7.35658 3.4349,-14.73057 4.8628,-22.14351 0.1367,-4.17786 -1.7665,-1.74347 1.6522,-3.32012 0.3364,-0.15516 -0.7575,-0.0491 -1.1095,0.0666 -0.8953,0.29426 -3.0931,1.78241 -3.6947,2.1655 -6.3727,4.97823 -12.9501,9.74622 -20.1033,13.55495 0,0 -2.8093,-0.31231 -2.8093,-0.31231 z" />
    <path
       style="fill:#000000;fill-opacity:1;stroke:#000000;stroke-width:10;stroke-miterlimit:4;stroke-opacity:1;stroke-dasharray:none"
       id="path2836"
       d="m 1181.0728,448.72184 c -1.2374,9.79169 -3.7313,19.3521 -5.581,29.03267 -1.7509,9.19979 -4.0075,18.26775 -6.2125,27.36232 -0.7434,3.22813 -1.4896,6.45811 -2.0944,9.71581 0,0 -2.8495,-0.0533 -2.8495,-0.0533 l 0,0 c 0.6282,-3.2608 1.3852,-6.49557 2.1371,-9.72944 2.2132,-9.08953 4.4918,-18.14923 6.2356,-27.34792 1.8449,-9.67655 4.3556,-19.23138 5.5356,-29.02689 0,0 2.8291,0.0467 2.8291,0.0467 z" />
    <path
       style="fill:#000000;fill-opacity:1;stroke:#000000;stroke-width:10;stroke-miterlimit:4;stroke-opacity:1;stroke-dasharray:none"
       id="path2838"
       d="m 1218.5532,449.382 c 0.4775,11.09973 -0.8671,22.07335 -2.5557,33.01177 -1.8348,10.01793 -4.712,19.77277 -7.8218,29.45391 -2.2725,3.82596 -2.9431,9.89478 -6.8824,12.48593 0,0 -2.8276,-0.28908 -2.8276,-0.28908 l 0,0 c 4.0228,-2.30815 4.6327,-8.60589 6.9134,-12.28396 3.1165,-9.66578 5.997,-19.40575 7.84,-29.40937 1.6867,-10.92318 3.0492,-21.8843 2.5134,-32.9692 0,0 2.8207,0 2.8207,0 z" />
    <path
       style="fill:#000000;fill-opacity:1;stroke:#000000;stroke-width:10;stroke-miterlimit:4;stroke-opacity:1;stroke-dasharray:none"
       id="path2840"
       d="m 1172.359,486.42691 c 7.5518,0.74297 15.0761,1.72932 22.6399,2.35176 3.7487,-0.0227 7.2328,0.64912 10.5876,2.30048 0.215,0.12139 0.43,0.24278 0.645,0.36417 0,0 -2.8312,0.30239 -2.8312,0.30239 l 0,0 c -0.2132,-0.11631 -0.4264,-0.23263 -0.6396,-0.34894 -3.3466,-1.59806 -6.8344,-2.19011 -10.5447,-2.20097 -7.5643,-0.63531 -15.088,-1.64563 -22.6475,-2.32692 0,0 2.7905,-0.44197 2.7905,-0.44197 z" />
    <path
       style="fill:#000000;fill-opacity:1;stroke:#000000;stroke-width:10;stroke-miterlimit:4;stroke-opacity:1;stroke-dasharray:none"
       id="path2842"
       d="m 617.09913,467.70089 c 5.26101,-6.16431 11.93621,-10.71764 19.09401,-14.39249 6.44541,-2.72901 13.53177,-4.75328 20.47007,-2.82808 5.01192,2.46304 6.70314,7.4884 6.85951,12.74699 -0.19189,7.17714 -3.62283,13.42394 -7.94788,18.94082 -3.70969,4.52863 -8.6959,7.65393 -13.17363,11.31182 -2.84445,2.74808 3.70642,3.44841 5.25339,3.68824 6.12739,0.66761 12.3017,0.68063 18.45802,0.71776 2.8561,0.011 5.5117,0.002 8.58162,-0.0183 1.3511,0.1039 1.01587,-0.28445 1.497,-1.48285 0,0 2.84302,0.11288 2.84302,0.11288 l 0,0 c -0.48936,1.11551 -0.0883,1.99695 -1.52839,1.8135 -4.72495,0.0282 -9.45006,0.0263 -14.17507,0.0136 -6.16136,-0.0412 -12.34285,-0.0554 -18.47197,-0.75969 -1.83834,-0.31094 -8.3035,-1.29547 -5.28158,-4.33519 4.45153,-3.67388 9.48554,-6.72785 13.19572,-11.24915 4.32046,-5.4428 7.73521,-11.63018 7.92848,-18.74493 -0.15695,-5.16436 -1.84478,-10.0826 -6.83704,-12.38615 -0.7519,-0.1895 -1.44928,-0.8161 -2.21674,-0.70531 -4.35416,0.62858 -8.65573,1.61227 -12.66743,3.47167 -7.14964,3.62243 -13.8142,8.13895 -19.05955,14.27557 0,0 -2.82156,-0.19067 -2.82156,-0.19067 z" />
    <path
       style="fill:#000000;fill-opacity:1;stroke:#000000;stroke-width:10;stroke-miterlimit:4;stroke-opacity:1;stroke-dasharray:none"
       id="path2844"
       d="m 709.642,449.06028 c -1.18794,9.34797 -1.73361,18.73331 -3.02385,28.06998 -1.15254,7.60926 -1.84603,15.26976 -2.18797,22.95483 0.50036,2.517 -1.24572,8.15438 0.16431,10.2766 -0.68617,-0.22117 -1.37235,-0.44233 -2.05852,-0.6635 0,0 2.83225,0.25775 2.83225,0.25775 l 0,0 c -1.20594,0.18494 -2.41188,0.36987 -3.61783,0.5548 -1.49767,-2.93783 0.45567,-7.29383 -0.13459,-10.43826 0.34781,-7.69417 1.05152,-15.36292 2.21046,-22.98058 1.29154,-9.33627 1.85544,-18.71774 2.99107,-28.0717 0,0 2.82467,0.0401 2.82467,0.0401 z" />
    <path
       style="fill:#000000;fill-opacity:1;stroke:#000000;stroke-width:10;stroke-miterlimit:4;stroke-opacity:1;stroke-dasharray:none"
       id="path2846"
       d="m 752.50134,448.72184 c -2.49059,8.31098 -3.4273,16.93495 -4.89289,25.45019 -1.27967,8.39635 -2.72295,16.73643 -4.35058,25.07178 -1.3196,4.66371 -0.49931,9.85644 -2.59252,14.27876 -1.57351,1.5057 -0.29658,0.5773 -4.68962,-0.66324 0,0 2.8234,-0.23994 2.8234,-0.23994 l 0,0 c -1.67854,1.30152 -2.01593,1.54162 -0.97081,0.77518 2.16219,-4.36448 1.2789,-9.57798 2.62154,-14.20504 1.63461,-8.33287 3.08897,-16.66919 4.36524,-25.06511 1.46478,-8.51263 2.40135,-17.13253 4.85718,-25.44931 0,0 2.82906,0.0467 2.82906,0.0467 z" />
    <path
       style="fill:#000000;fill-opacity:1;stroke:#000000;stroke-width:10;stroke-miterlimit:4;stroke-opacity:1;stroke-dasharray:none"
       id="path2848"
       d="m 720.93328,481.07423 c 8.0763,1.13665 16.2139,1.75144 24.35466,2.18285 1.81864,-0.23393 3.66953,0.41413 5.49166,0.22355 0.23726,-0.0248 -0.83522,-0.10829 -0.66188,-0.27218 0.76739,-0.72557 1.9334,-0.92136 2.71753,-1.62881 0,0 2.82954,0.23123 2.82954,0.23123 l 0,0 c -3.46939,3.40234 -8.74592,1.853 -13.1529,1.87066 -8.14758,-0.44229 -16.29101,-1.06947 -24.37477,-2.20501 0,0 2.79616,-0.40229 2.79616,-0.40229 z" />
    <path
       style="fill:#000000;fill-opacity:1;stroke:#000000;stroke-width:10;stroke-miterlimit:4;stroke-opacity:1;stroke-dasharray:none"
       id="path2850"
       d="m 466.36171,214.35962 c 5.05883,-2.27821 10.14088,-4.50431 15.22934,-6.71539 4.94434,-1.08662 6.3287,1.83402 7.3681,5.77588 1.02088,5.55021 0.95611,11.23229 1.0329,16.8558 0.0394,4.41139 0.0235,8.823 0.0148,13.23448 0.3038,1.89126 2.78838,2.73403 -0.5983,0.99643 0,0 2.83053,0.21276 2.83053,0.21276 l 0,0 c -3.59174,1.0272 -4.199,2.03138 -5.06953,-1.21023 0.0238,-4.40988 0.039,-8.81995 0.004,-13.22981 -0.0676,-5.60038 -0.012,-11.26085 -1.04472,-16.78554 -0.36621,-1.35337 -0.48645,-2.14065 -1.14318,-3.35727 -0.21069,-0.39032 -0.46798,-0.75809 -0.75817,-1.09354 -0.23852,-0.27573 -1.08612,-0.48139 -0.81692,-0.72726 0.5235,-0.47813 1.41283,-0.19848 2.08321,-0.42928 0.34366,-0.11831 -0.72464,0.0575 -1.08696,0.0863 -5.09937,2.20088 -10.19874,4.405 -15.23887,6.73903 0,0 -2.80631,-0.35236 -2.80631,-0.35236 z" />
    <path
       style="fill:#000000;fill-opacity:1;stroke:#000000;stroke-width:10;stroke-miterlimit:4;stroke-opacity:1;stroke-dasharray:none"
       id="path2852"
       d="m 525.06686,224.65046 c -5.00391,1.71146 -11.40303,3.16457 -15.97932,-0.25982 -2.32382,-2.77007 -1.20289,-5.39169 0.48904,-8.14388 1.95849,-3.0296 4.55664,-5.02203 7.91494,-6.22314 4.58964,-1.29775 8.49706,-0.0344 11.82514,3.00581 2.73559,2.53757 2.5372,6.00318 1.33826,9.26719 -1.20878,1.67105 -1.44214,5.45018 -3.464,6.35777 -1.38823,-0.24405 -2.77645,-0.4881 -4.16468,-0.73214 0,0 2.82012,-0.3088 2.82012,-0.3088 l 0,0 c -0.49318,0.22211 -0.98636,0.44423 -1.47954,0.66634 1.81814,-0.10909 2.48056,-4.84197 3.45519,-6.08487 1.21439,-3.16886 1.36138,-6.49073 -1.32924,-8.92743 -2.98097,-2.60943 -5.44421,-3.48471 -6.18517,-2.89403 -3.34913,1.1328 -5.94552,3.02396 -7.89988,6.03076 -1.63678,2.6103 -2.82963,5.10968 -0.49504,7.71932 0.86004,0.60559 2.03503,0.752 2.77822,1.49636 0.1736,0.17386 -0.94113,0.20947 -0.69723,0.23902 2.85715,0.34621 5.62591,-0.6306 8.26688,-1.56082 0,0 2.80631,0.35236 2.80631,0.35236 z" />
    <path
       style="fill:#000000;fill-opacity:1;stroke:#000000;stroke-width:10;stroke-miterlimit:4;stroke-opacity:1;stroke-dasharray:none"
       id="path2854"
       d="m 576.49305,224.33072 c -5.68203,1.01416 -12.23791,1.35947 -16.92812,-2.48241 -2.35247,-3.70147 0.67939,-7.46905 3.20584,-10.14975 3.72539,-3.80611 8.50592,-5.94679 13.55687,-7.34308 4.46173,-1.12247 8.50727,-0.55396 11.43423,2.96331 1.92574,3.45383 0.72954,7.30172 -0.67119,10.70667 -1.87892,2.67984 -3.25161,6.25092 -6.5768,7.31919 -1.34252,-0.11075 -2.68504,-0.22149 -4.02756,-0.33224 0,0 2.81632,-0.36913 2.81632,-0.36913 l 0,0 c -0.53475,0.11069 -1.0695,0.22138 -1.60425,0.33206 3.36892,-0.75587 4.67277,-4.51659 6.5628,-7.06065 1.36625,-3.30206 2.61164,-7.05384 0.67104,-10.39546 -2.64307,-3.00859 -4.46345,-3.29651 -5.79911,-2.79542 -5.03574,1.34545 -9.82233,3.41593 -13.54634,7.18969 -2.41356,2.49926 -5.54719,6.1797 -3.19855,9.68098 3.75534,2.92408 6.84319,3.31212 11.30328,2.33983 0,0 2.80154,0.39641 2.80154,0.39641 z" />
    <path
       style="fill:#000000;fill-opacity:1;stroke:#000000;stroke-width:10;stroke-miterlimit:4;stroke-opacity:1;stroke-dasharray:none"
       id="path2856"
       d="m 606.30849,229.6486 c 5.12171,1.26832 9.83089,0.24926 14.76352,-1.15436 3.96339,-1.49854 5.24525,-4.72089 5.85107,-8.60848 0.46983,-3.50744 -1.04163,-6.88261 -1.7582,-10.28097 -1.14823,-3.88959 0.0673,-6.34254 2.98011,-8.92719 3.33665,-2.18797 8.05463,-1.92301 10.85859,1.02753 1.55266,3.13227 3.1369,6.28494 4.10323,9.65718 0.88034,3.29846 0.002,6.88259 -1.24789,9.98913 -1.85148,3.01431 -2.05046,5.53761 0.39987,8.21075 3.26793,1.89828 6.74033,3.59993 10.53978,3.9343 0,0 -2.80007,0.41417 -2.80007,0.41417 l 0,0 c -3.79911,-0.44543 -7.36111,-2.09753 -10.56901,-4.14313 -2.39191,-2.79545 -2.34014,-5.43494 -0.40283,-8.52565 1.25146,-3.03778 2.11508,-6.56579 1.24964,-9.79991 -0.96815,-3.32098 -2.51102,-6.45817 -4.10161,-9.51661 -0.34421,-0.33788 -0.64534,-0.72613 -1.03261,-1.01364 -0.37919,-0.28151 -1.32449,-0.2115 -1.2446,-0.67696 0.0851,-0.49601 1.29108,0.0245 1.43915,-0.45647 0.22932,-0.74493 -4.63251,1.18736 -4.36851,1.14064 -2.90425,2.49703 -4.10758,4.78983 -2.97014,8.6267 0.73012,3.43046 2.24347,6.83866 1.75457,10.38336 -0.6028,3.96122 -1.87635,7.3184 -5.87767,8.92951 -6.66292,1.91345 -13.49185,2.55849 -20.36793,1.18651 0,0 2.80154,-0.39641 2.80154,-0.39641 z" />
    <path
       style="fill:#000000;fill-opacity:1;stroke:#000000;stroke-width:10;stroke-miterlimit:4;stroke-opacity:1;stroke-dasharray:none"
       id="path2858"
       d="m 944.61344,631.53226 c 1.33274,8.42653 1.82157,16.95318 2.1767,25.46726 0.23081,11.11869 -1.10479,22.21467 -1.73885,33.31276 -1.04446,9.69434 -2.40475,19.34748 -3.1212,29.07448 -0.21511,5.32063 -0.23342,10.54129 -1.83074,15.65395 -0.39105,1.10141 -0.79778,2.21344 -1.44759,3.19128 -0.0183,0.0235 -0.0366,0.047 -0.0549,0.0705 0,0 -2.84559,-0.24609 -2.84559,-0.24609 l 0,0 c 0.0173,-0.007 0.0346,-0.014 0.0519,-0.0209 0.70538,-0.89965 1.04911,-2.03046 1.4622,-3.08153 1.62438,-5.08512 1.63433,-10.28756 1.86278,-15.58781 0.71674,-9.72635 2.09887,-19.37637 3.14604,-29.06972 0.63256,-11.08845 1.95742,-22.17626 1.72132,-33.28522 -0.35747,-8.5031 -0.83517,-17.02242 -2.21116,-25.43224 0,0 2.82906,-0.0467 2.82906,-0.0467 z" />
    <path
       style="fill:#000000;fill-opacity:1;stroke:#000000;stroke-width:10;stroke-miterlimit:4;stroke-opacity:1;stroke-dasharray:none"
       id="path2860"
       d="m 875.62433,757.53144 c 10.785,-1.20368 21.60776,-1.80347 32.39393,-3.00613 11.33813,-0.92203 22.62202,-2.15912 33.91734,-3.49291 8.75914,-1.04265 17.57404,-1.45508 26.38678,-1.67572 5.56767,-0.10847 11.13677,-0.11396 16.70526,-0.0961 0.8929,0.089 1.5835,-0.30215 0.4389,0.45814 0,0 -2.8135,-0.44327 -2.8135,-0.44327 l 0,0 c 1.14042,0.74582 0.44629,0.34941 -0.43125,0.42857 -0.25282,-8.7e-4 -7.33056,-0.0134 -11.1242,0.0852 -8.81846,0.21153 -17.63965,0.61166 -26.40529,1.64668 -11.29929,1.32789 -22.58309,2.59085 -33.92659,3.49324 -10.77193,1.20566 -21.5783,1.81663 -32.3504,3.00879 0,0 -2.79098,-0.40653 -2.79098,-0.40653 z" />
    <path
       style="fill:#000000;fill-opacity:1;stroke:#000000;stroke-width:10;stroke-miterlimit:4;stroke-opacity:1;stroke-dasharray:none"
       id="path2862"
       d="m 897.73945,778.58382 c 9.43619,2.80451 19.30596,3.37298 29.00474,4.70667 10.09708,1.5376 20.28043,2.16384 30.37586,3.6894 6.37682,1.0468 12.79988,1.75977 19.24807,2.15938 1.9073,0.41665 9.16167,-0.31165 0.48458,0.60681 -0.4612,-0.002 -0.92241,-0.004 -1.38362,-0.007 0,0 2.80395,-0.44271 2.80395,-0.44271 l 0,0 c 0.46234,0.002 0.92468,0.005 1.38702,0.007 -2.05305,0.53287 -3.94687,0.52177 -6.08775,0.26036 -6.43897,-0.41491 -12.8517,-1.14305 -19.2202,-2.18806 -10.09173,-1.51683 -20.27331,-2.13967 -30.36414,-3.68719 -9.72002,-1.31907 -19.60624,-1.92289 -29.05482,-4.75259 0,0 2.80631,-0.35235 2.80631,-0.35235 z" />
    <path
       style="fill:#000000;fill-opacity:1;stroke:#000000;stroke-width:10;stroke-miterlimit:4;stroke-opacity:1;stroke-dasharray:none"
       id="path2864"
       d="m 1043.5046,754.35962 c 6.9935,-3.0828 14.2572,-5.31919 21.7555,-6.74495 5.0053,-0.36726 11.9981,-2.81943 16.5668,-0.009 4.0831,2.52073 3.423,7.1432 2.804,11.30429 -1.798,6.83974 -4.8521,13.35264 -8.8552,19.17453 -1.5538,2.66307 -5.5811,6.24757 -3.7637,9.61291 2.0662,1.52246 4.9149,2.16613 7.3759,2.9842 2.8249,0.84107 5.7516,1.17648 8.6789,1.40638 1.6535,-0.0386 3.1914,0.84389 -0.9824,-1.10394 0,0 2.8379,0.0609 2.8379,0.0609 l 0,0 c -2.6748,1.33146 -2.5129,1.69864 -4.6683,1.46513 -2.9297,-0.24749 -5.8582,-0.60521 -8.6788,-1.47544 -2.4745,-0.82985 -5.4765,-1.42468 -7.4031,-3.20544 -1.6883,-3.62633 2.0218,-7.06132 3.7912,-9.91522 4.019,-5.76317 7.0534,-12.24858 8.8496,-19.04567 0.6102,-4.09119 1.2529,-8.55302 -2.8069,-10.96669 -0.4469,-0.24336 -1.1791,-0.24755 -1.3406,-0.73007 -0.1103,-0.32936 1.3536,-0.22184 1.0085,-0.26168 -3.4921,-0.40319 -7.1773,0.88341 -10.6313,1.09295 -7.4925,1.39364 -14.7667,3.58215 -21.7317,6.70947 0,0 -2.8063,-0.35236 -2.8063,-0.35236 z" />
    <path
       style="fill:#000000;fill-opacity:1;stroke:#000000;stroke-width:10;stroke-miterlimit:4;stroke-opacity:1;stroke-dasharray:none"
       id="path2866"
       d="m 1106.3595,793.71371 c 7.1362,-4.56453 13.0819,-10.68549 18.5994,-17.04824 5.5799,-6.85835 10.1292,-14.47621 14.792,-21.96808 1.6274,-2.54688 4.7852,-11.0627 7.8404,-2.94354 0.6377,1.65209 1.5994,4.02328 3.458,4.70699 0.4588,0.1688 1.0829,-0.13928 1.456,0.17667 0.3447,0.29192 -0.9015,-0.0592 -1.3522,-0.0888 2.7814,-0.28077 3.893,-4.21511 6.5952,-4.55082 1.2916,-0.16047 2.6032,0.002 3.9048,0.003 2.8764,1.32914 3.6131,4.66712 4.9875,7.23283 1.2051,1.49695 1.4455,4.80639 3.0555,5.67056 0,0 -2.8265,0.39622 -2.8265,0.39622 l 0,0 c -1.5203,-1.56922 -1.8243,-4.11505 -3.0598,-5.92865 -1.3016,-2.47961 -2.0643,-5.87054 -4.9667,-6.94134 0.5751,-0.0379 1.3345,-0.53739 1.7252,-0.11372 0.3205,0.34758 -0.8943,0.32859 -1.2937,0.58164 -1.8996,1.2036 -3.089,3.37017 -5.3165,4.07989 -5.342,0.0714 -7.3328,0.21636 -9.199,-5.12254 -0.8649,-2.28538 -1.2162,-1.59812 1.7201,-2.90927 0.6185,-0.27619 -0.9675,0.96328 -1.3344,1.53265 -0.9179,1.424 -1.6076,2.98765 -2.5879,4.37436 -4.674,7.50156 -9.2501,15.11664 -14.8045,22.01141 -5.5186,6.37642 -11.4593,12.52279 -18.5822,17.12559 0,0 -2.8107,-0.27712 -2.8107,-0.27712 z" />
    <path
       style="fill:#000000;fill-opacity:1;stroke:#000000;stroke-width:10;stroke-miterlimit:4;stroke-opacity:1;stroke-dasharray:none"
       id="path2868"
       d="m 1189.9818,757.95343 c -0.021,9.55533 -0.017,19.1107 -0.014,28.66604 0.01,7.01205 0,14.02412 0.017,21.03616 0.01,1.15399 0,2.30832 0.015,3.46216 0,0 -2.8564,0 -2.8564,0 l 0,0 c 0.017,-1.15384 0.01,-2.30817 0.015,-3.46216 0.013,-7.01204 0.011,-14.02411 0.017,-21.03616 0,-9.55534 0.01,-19.11071 -0.014,-28.66604 0,0 2.8207,0 2.8207,0 z" />
    <path
       style="fill:#000000;fill-opacity:1;stroke:#000000;stroke-width:10;stroke-miterlimit:4;stroke-opacity:1;stroke-dasharray:none"
       id="path2870"
       d="m 1195.2162,752.1412 c 7.0417,0.45476 13.8675,-0.28848 20.809,-1.27314 4.04,-0.62084 8.0938,-1.13064 12.1663,-1.47923 0.9252,-0.0711 0.5042,-0.041 1.2627,-0.0925 0,0 2.8181,0.42772 2.8181,0.42772 l 0,0 c -0.7627,0.0467 -0.3395,0.0189 -1.2695,0.086 -4.0823,0.33488 -8.1461,0.83484 -12.1945,1.45854 -8.7554,1.25234 -17.5434,1.53719 -26.3826,1.31459 0,0 2.7905,-0.44197 2.7905,-0.44197 z" />
    <path
       style="fill:#000000;fill-opacity:1;stroke:#000000;stroke-width:10;stroke-miterlimit:4;stroke-opacity:1;stroke-dasharray:none"
       id="path2872"
       d="m 1197.7395,772.86953 c 7.855,2.28157 15.9471,3.52606 24.0679,4.35887 4.7548,0.47399 9.5333,0.62171 14.3089,0.66541 2.336,0.002 -0.1341,0.0928 -1.0098,-0.59354 -0.2259,-0.17708 0.1986,-0.56729 0.1438,-0.84905 -0.086,-0.44077 -0.3655,-0.82032 -0.5483,-1.23048 0,0 2.836,-0.11326 2.836,-0.11326 l 0,0 c 1.3257,3.30818 -1.0305,3.18943 -4.2262,3.22753 -4.7666,-0.0552 -9.5358,-0.21173 -14.2807,-0.69626 -8.1318,-0.85292 -16.2349,-2.11672 -24.098,-4.41686 0,0 2.8064,-0.35236 2.8064,-0.35236 z" />
    <path
       style="fill:#000000;fill-opacity:1;stroke:#000000;stroke-width:10;stroke-miterlimit:4;stroke-opacity:1;stroke-dasharray:none"
       id="path2874"
       d="m 945.63497,805.40424 c 3.56339,4.84485 7.54486,9.4364 10.49623,14.69874 1.88813,4.25758 3.6594,8.4641 4.5331,13.05108 0.73677,4.26936 2.09258,8.39289 2.85574,12.66829 0.70116,5.29979 0.69931,10.66734 0.75725,16.00517 0.0281,4.86335 0.0147,9.72685 0.006,14.59025 -0.006,3.95959 -0.007,7.91918 -0.01,11.87878 -0.003,3.89216 0.002,7.78431 -1.8e-4,11.67647 -0.63419,3.35742 -1.75738,6.58051 -2.33723,9.9517 -0.0366,3.44742 -1.2776,6.6106 -2.25077,9.86444 -0.67971,2.57615 -0.95671,5.11306 -1.90856,7.60984 -1.33678,3.43114 -1.30338,7.16606 -2.24715,10.67894 -0.97233,2.82988 -1.46741,5.75103 -4.02275,7.56828 -4.24019,1.54624 -8.95215,1.24271 -13.40194,1.28308 -8.42495,1.01774 -16.85068,1.84616 -25.32741,2.2908 -10.7957,0.35022 -21.5633,0.31803 -32.32387,1.31595 -9.29689,0.98282 -18.62664,1.54355 -27.9674,1.86452 -5.55617,0.1641 -11.11496,0.19986 -16.6732,0.20352 -2.49861,-1.07901 -6.31667,1.08054 -8.73333,-0.42526 -1.22281,-0.73618 -1.37416,-2.1993 -1.71903,-3.46734 0,0 2.83241,-0.0767 2.83241,-0.0767 l 0,0 c 0.34841,1.22931 0.50189,2.56605 1.71714,3.23535 0.66974,0.2861 6.34577,0.4269 3.1074,0.29134 5.56615,-9.1e-4 11.13288,-0.0306 16.69711,-0.19024 9.34552,-0.31184 18.68077,-0.86053 27.98208,-1.84555 10.76026,-1.01025 21.52491,-0.99949 32.32235,-1.32777 8.46962,-0.43633 16.89276,-1.22888 25.30424,-2.3067 4.43908,-0.0359 9.07645,0.22483 13.35627,-1.12276 2.62586,-1.65868 3.03126,-4.60752 4.01793,-7.36556 0.96394,-3.51638 0.91234,-7.26492 2.24353,-10.70723 0.95049,-2.49162 1.23586,-5.01461 1.90885,-7.58904 0.97314,-3.24309 2.22235,-6.39152 2.25062,-9.8299 0.57041,-3.35794 1.68041,-6.56717 2.34119,-9.90369 -0.002,-3.89219 0.002,-7.78438 10e-4,-11.67657 -2.7e-4,-3.95973 0.003,-7.91947 0.0134,-11.87918 0.008,-4.86225 0.0299,-9.72457 -0.001,-14.58678 -0.0542,-5.32249 -0.0488,-10.67476 -0.76338,-15.95805 -0.76626,-4.27326 -2.12424,-8.39499 -2.85282,-12.66489 -0.87718,-4.55295 -2.64177,-8.73636 -4.52771,-12.9598 -2.96272,-5.23996 -6.91568,-9.83785 -10.49728,-14.65284 0,0 2.82155,-0.19067 2.82155,-0.19067 z" />
    <path
       style="fill:#000000;fill-opacity:1;stroke:#000000;stroke-width:10;stroke-miterlimit:4;stroke-opacity:1;stroke-dasharray:none"
       id="path2876"
       d="m 821.75629,905.81797 c 2.83509,10.19405 3.8001,20.67407 4.50101,31.18815 0.71108,12.76138 0.81278,25.54531 0.88113,38.32298 0.0245,6.60729 0.0135,13.21465 0.008,19.82197 3.7e-4,0.29521 0.26747,1.01287 10e-4,0.88561 -3.80662,-1.81871 -3.13462,-4.54071 -3.65434,-8.11602 0,0 2.81331,-0.0409 2.81331,-0.0409 l 0,0 c 0.54756,3.7099 2.21413,6.12486 -2.00432,8.15544 -0.26584,0.12796 0.007,-0.59002 0.0105,-0.88504 0.0376,-6.60651 0.0514,-13.21316 0.0394,-19.81978 -0.0478,-12.7719 -0.14494,-25.55028 -0.8591,-38.30571 -0.70994,-10.50706 -1.69688,-20.98136 -4.56554,-31.15995 0,0 2.82906,-0.0467 2.82906,-0.0467 z" />
    <path
       style="fill:#000000;fill-opacity:1;stroke:#000000;stroke-width:10;stroke-miterlimit:4;stroke-opacity:1;stroke-dasharray:none"
       id="path2878"
       d="m 798.55322,909.382 c 0.17104,10.80573 1.41872,21.57194 2.04878,32.36406 0.51258,10.60673 1.9928,21.1348 2.86054,31.71795 0.53388,6.67614 0.71433,13.37186 0.8153,20.06617 0.006,0.54998 0.0127,1.09994 0.0176,1.64992 0.01,1.10357 0.0226,2.47448 0.008,2.47217 -3.27864,-0.51872 -2.85464,-0.21561 -2.8601,-2.30099 -0.11416,-0.56112 -0.22833,-1.12224 -0.34249,-1.68336 0,0 2.83333,-0.0565 2.83333,-0.0565 l 0,0 c 0.11615,0.57951 0.2323,1.15902 0.34846,1.73854 0.0133,2.07853 0.43508,1.77651 -2.82958,2.30041 -0.008,0.001 0.0117,-1.36306 0.007,-2.46793 -0.002,-0.54951 -0.007,-1.09902 -0.0101,-1.64854 -0.0769,-6.68803 -0.26084,-13.37697 -0.78191,-20.04723 -0.85571,-10.58604 -2.34186,-21.11521 -2.84353,-31.72443 -0.63161,-10.79895 -1.87312,-21.56885 -2.09222,-32.38028 0,0 2.82072,0 2.82072,0 z" />
    <path
       style="fill:#000000;fill-opacity:1;stroke:#000000;stroke-width:10;stroke-miterlimit:4;stroke-opacity:1;stroke-dasharray:none"
       id="path2880"
       d="m 804.37317,949.72567 c -11.85498,-0.0277 -23.64667,-1.43112 -35.47742,-2.08182 -13.46296,-0.65127 -26.94433,-0.71217 -40.41995,-0.77519 -13.13168,0.15994 -26.3317,0.88532 -39.38732,2.38092 -6.39877,1.55853 -13.49556,1.06035 -19.72659,3.29822 -2.64246,1.25928 -2.11471,3.45108 -1.12524,5.68714 1.04551,1.19949 2.44252,1.9802 3.9474,2.44756 -0.59865,-0.19088 -1.43957,-0.0551 -1.79594,-0.57263 -0.43026,-0.62482 1.0769,-1.10381 1.41372,-1.78357 0.68764,-1.38781 0.75592,-2.98516 0.91114,-4.49131 0.43129,-5.10671 1.65426,-10.1072 2.27861,-15.20349 0.91074,-1.93875 1.27253,-8.50901 3.0773,-9.67812 0.80566,0.77441 2.06252,1.26343 2.41696,2.32322 0.44146,1.31996 -4.63023,13.39048 -5.32529,15.17263 -2.48586,6.75575 -5.57849,13.26856 -8.14278,19.99392 -2.06986,4.02544 -3.0281,8.93594 -6.33388,12.20402 -5.29994,2.6351 -5.28463,-6.03043 -5.89933,-8.89334 -0.90072,-5.05718 -2.56264,-9.97134 -4.65703,-14.65294 -1.16648,-3.56994 -3.09713,-6.78362 -4.52543,-10.2395 -0.99892,-2.40842 -1.74915,-5.32921 -3.37732,-7.42104 0.70242,0.3099 1.71765,0.26815 2.10726,0.92969 0.27099,0.46011 -0.5316,0.93194 -0.71563,1.4332 -1.36075,3.70625 -1.45421,7.88353 -2.1253,11.74108 -1.34594,6.92199 -1.88815,13.92757 -3.46212,20.80298 -0.24119,2.37411 -2.72465,11.65365 -6.29762,4.07777 -2.2098,-4.76489 -3.59564,-9.84666 -5.61693,-14.69686 -2.71592,-5.47651 -4.47383,-11.31658 -6.69765,-16.97986 -1.41345,-2.29792 -1.49257,-5.98852 -3.41454,-7.84172 0.88564,0.38235 2.00798,0.43331 2.65692,1.14705 0.54997,0.60489 -1.25663,9.91037 -1.46574,11.07325 -0.76034,4.37947 -1.18691,8.80162 -1.40464,13.23805 -0.0762,2.10382 -0.10433,4.20948 -0.10079,6.31464 1.7e-4,0.098 0.10191,0.30377 0.004,0.294 -1.18826,-0.11911 -2.34918,-0.43119 -3.52376,-0.64679 -1.74499,-3.56339 -3.37508,-7.17285 -4.91136,-10.83093 -1.51746,-5.04559 -3.22086,-10.05125 -4.51195,-15.16565 -0.71015,-1.57499 -1.20596,-3.43225 -2.30512,-4.8161 -1.34865,-1.69796 -2.62463,-0.94256 -1.82301,-1.02241 0.55586,-0.0554 1.11474,0.0743 1.67212,0.11138 -2.76613,1.1924 -4.22062,4.10189 -5.84271,6.50029 -2.14517,3.42073 -4.33182,6.81319 -6.62938,10.14188 -2.70337,3.31416 -4.42769,7.28826 -7.34671,10.42596 -2.20318,2.25295 -5.1147,2.87395 -8.12808,3.16177 -4.80322,-0.0712 -9.35735,-1.68005 -13.9003,-3.1132 -6.13007,-1.89195 -12.56915,-2.13558 -18.92997,-2.39617 -10.74813,-1.52696 -21.59348,-1.96338 -32.39642,-2.89636 -13.5595,-1.49832 -27.11097,-2.36837 -40.74053,-1.87846 -13.90573,0.7397 -27.81888,1.24933 -41.74103,1.52898 -12.89181,-0.19004 -25.71676,0.5025 -38.55963,1.51252 -12.22253,0.8768 -24.45732,1.0406 -36.65181,2.2704 -10.33337,0.76469 -20.60028,1.9453 -30.87524,3.25847 -9.86843,0.76733 -19.63879,2.35307 -29.47895,3.38212 -10.174,1.79638 -20.47491,2.57456 -30.71013,3.86995 -9.64557,1.54467 -19.37756,2.3186 -29.12746,2.76881 -9.57292,1.12075 -19.14708,2.12365 -28.77208,2.65852 -10.78899,0.47782 -21.59144,0.48611 -32.38879,0.51344 -10.72686,0.0135 -21.45374,-1.5e-4 -32.1806,-0.008 -5.83174,0.56144 -10.536,-0.71872 -15.46216,-3.68609 0,0 2.78711,-0.28956 2.78711,-0.28956 l 0,0 c 4.9309,2.88218 9.65913,4.08152 15.44234,3.53759 8.8884,0.008 17.77681,0.0213 26.66522,0.0113 10.79356,-0.0261 21.59203,-0.0331 32.37759,-0.50038 9.62412,-0.52476 19.19997,-1.50422 28.76767,-2.66185 9.75123,-0.43945 19.48685,-1.19392 29.13278,-2.74504 10.23145,-1.31771 20.53921,-2.04583 30.708,-3.87685 9.84081,-1.01714 19.60704,-2.62348 29.47612,-3.37596 10.27938,-1.30926 20.54636,-2.51691 30.88557,-3.26428 12.19757,-1.23955 24.43321,-1.41515 36.66086,-2.27535 12.84614,-1.01056 25.67257,-1.73453 38.56853,-1.52758 13.92405,-0.27491 27.83946,-0.77653 41.7467,-1.52346 15.4524,-0.57258 30.83317,0.13924 46.2016,1.89178 10.81811,0.91839 21.67266,1.39342 32.43916,2.87757 6.37387,0.27108 12.8224,0.54053 18.95675,2.46742 2.88706,0.91084 9.73671,2.67572 9.74238,2.7919 0.0239,0.49025 -0.96643,0.1723 -1.44965,0.25845 2.97531,-0.2417 5.89881,-0.76742 8.11034,-2.95692 2.96537,-3.08489 4.63709,-7.08671 7.34665,-10.38272 2.30327,-3.32505 4.48784,-6.71629 6.62806,-10.13883 1.66361,-2.46696 3.13663,-5.34547 5.85816,-6.75643 6.00137,-0.0834 6.02769,0.61833 8.09004,6.08139 1.2899,5.10025 2.97671,10.097 4.51046,15.12293 1.53406,3.62806 3.12668,7.22817 4.92483,10.73464 -0.72181,0.28497 -1.41426,0.66009 -2.16543,0.85491 -0.44209,0.11465 0.0119,-0.91336 0.0163,-1.37005 0.017,-1.75087 0.027,-3.50223 0.0989,-5.25198 0.22722,-4.44839 0.65682,-8.88192 1.41793,-13.27394 0.5619,-3.14085 1.21975,-6.19091 1.34746,-9.38035 0.0225,-0.56145 -0.29878,-1.28665 0.0998,-1.68272 0.78864,-0.78372 2.013,-0.94471 3.0195,-1.41706 2.11528,1.76177 1.76779,5.93335 3.39661,8.04668 2.20019,5.6718 3.99185,11.49284 6.69281,16.97382 2.0131,4.84879 3.40312,9.92848 5.63838,14.67782 0.9739,1.88414 1.03183,1.04368 -1.53063,1.7262 -0.20748,0.0553 0.49542,0.0426 0.63232,-0.12277 1.17939,-1.42486 0.62104,-4.0925 1.54427,-5.61473 1.58139,-6.86961 2.13616,-13.86793 3.46942,-20.78777 0.29837,-1.71814 1.35845,-12.49516 2.81473,-13.31596 1.07057,-0.60341 2.38013,-0.61309 3.5702,-0.91964 1.53331,2.21711 2.39641,5.0084 3.36913,7.48979 1.42864,3.45061 3.3498,6.6671 4.51517,10.23233 2.08638,4.70565 3.74783,9.63648 4.65607,14.71145 0.47362,2.19309 0.81779,4.40791 1.26599,6.59821 0.10274,0.5021 0.72773,1.05518 0.43383,1.47503 -0.44979,0.64255 -1.42817,0.64893 -2.14439,0.96861 -0.23116,0.10318 0.45943,-0.21271 0.68915,-0.31906 3.41297,-3.09935 4.25065,-8.14207 6.35365,-12.07607 2.56448,-6.72676 5.66257,-13.2391 8.14946,-19.99585 0.45368,-1.16222 5.27033,-15.08724 5.30255,-15.12274 0.83915,-0.92476 2.15873,-1.25589 3.2381,-1.88384 -0.86,-0.19498 -2.77551,8.15254 -3.08494,9.32756 -0.62119,5.09417 -1.84077,10.09358 -2.26563,15.1978 -0.49777,4.99377 -0.60617,6.573 -6.19083,7.17422 -1.53321,-0.54541 -2.95461,-1.37311 -3.95761,-2.68612 -1.00693,-2.34621 -1.5356,-4.74599 1.15026,-6.1464 6.17123,-2.42762 13.41893,-1.69545 19.79422,-3.35849 14.86967,-1.73162 29.90498,-2.35517 44.86607,-2.40946 13.47883,0.0654 26.96351,0.12767 40.42933,0.78787 9.99602,0.55529 19.97114,1.6614 29.95043,2.05919 0,0 2.78599,0.44126 2.78599,0.44126 z" />
    <path
       style="fill:#000000;fill-opacity:1;stroke:#000000;stroke-width:10;stroke-miterlimit:4;stroke-opacity:1;stroke-dasharray:none"
       id="path2882"
       d="m 602.26055,831.85483 c -2.36098,-0.46215 -12.10683,-4.24507 -14.05161,-3.14106 -0.41009,0.2328 0.9058,0.2627 1.3587,0.39405 -3.23553,1.14769 -4.25225,3.91417 -4.90086,7.00762 -0.5833,3.25269 -0.18129,6.56733 -0.79322,9.80121 -0.39166,2.57518 -2.35123,5.40927 -1.32605,7.99206 2.18911,1.31385 5.07094,1.116 7.55267,1.15758 3.688,-0.12101 7.26232,0.8489 9.61567,3.78524 1.6553,3.25699 1.86006,6.59696 0.13369,9.81343 -2.73223,2.84374 -5.98654,5.14119 -9.40629,7.08228 -3.96484,2.2617 -8.60253,2.31676 -12.29658,-0.4632 -0.46698,-0.53707 -0.93396,-1.07413 -1.40093,-1.6112 0,0 2.82158,-0.20484 2.82158,-0.20484 l 0,0 c 0.46621,0.5169 0.93241,1.03381 1.39862,1.55071 0.51252,0.36547 0.9899,0.78607 1.53755,1.09642 0.45223,0.25627 1.28557,0.0968 1.4425,0.59231 0.12203,0.38535 -1.57828,0.0295 -1.20026,0.1726 1.57373,0.59581 3.54574,-0.92549 4.884,-1.43215 3.41289,-1.88805 6.59649,-4.19784 9.38768,-6.92555 1.74068,-3.08133 1.51711,-6.34972 -0.13188,-9.47523 -2.40697,-2.8298 -5.95917,-3.65507 -9.58749,-3.54253 -2.49462,-0.0542 -5.58626,0.19869 -7.5952,-1.49377 -0.95579,-2.69061 0.85848,-5.49083 1.33822,-8.14761 0.62307,-3.23204 0.19978,-6.55347 0.7906,-9.80606 0.65461,-3.15532 1.65626,-6.05618 4.92224,-7.31213 6.47346,-0.7074 12.1824,0.45954 18.31296,2.75747 0,0 -2.80631,0.35235 -2.80631,0.35235 z" />
    <path
       style="fill:#000000;fill-opacity:1;stroke:#000000;stroke-width:10;stroke-miterlimit:4;stroke-opacity:1;stroke-dasharray:none"
       id="path2884"
       d="m 633.22217,865.03442 c -3.14259,-5.03329 -5.49221,-10.58968 -3.56197,-16.46498 2.32022,-4.77615 7.06946,-4.75529 11.73883,-4.62092 3.62617,0.80551 5.41423,3.92121 6.46881,7.20646 0.88608,3.79189 1.26325,7.53074 0.21856,11.29878 -1.60192,4.46865 -3.33777,4.02662 -7.65335,3.22192 0,0 2.82068,-0.29769 2.82068,-0.29769 l 0,0 c -3.57584,1.87064 1.7598,-0.62611 1.99875,-3.00176 1.0529,-3.7086 0.66869,-7.3977 -0.21506,-11.1322 -1.06069,-3.21736 -2.84667,-6.21039 -6.44264,-6.87644 0.39289,-0.0524 1.55967,-0.26666 1.17867,-0.15734 -2.99333,0.85883 -5.91487,1.17584 -7.28791,4.45069 -1.97461,5.76049 0.44531,11.26982 3.55818,16.1828 0,0 -2.82155,0.19068 -2.82155,0.19068 z" />
    <path
       style="fill:#000000;fill-opacity:1;stroke:#000000;stroke-width:10;stroke-miterlimit:4;stroke-opacity:1;stroke-dasharray:none"
       id="path2886"
       d="m 847.92162,1078.6164 c -6.14885,1.1195 -12.36783,1.7594 -18.59733,2.2065 -4.07638,0.6168 -7.96138,1.972 -12.02246,2.6674 -8.12907,1.3757 -3.34285,-3.7762 -1.37363,-6.6687 3.78233,-4.1891 7.36992,-8.5255 10.73188,-13.0565 3.00732,-4.8964 6.33763,-9.584 9.19282,-14.5711 1.54778,-2.6532 1.8512,-5.7619 2.69989,-8.6276 1.19503,0.4854 2.5403,0.6999 3.58511,1.4563 1.5295,1.1073 1.81834,9.8421 1.92271,11.6046 0.29285,8.141 0.23235,16.2899 0.22207,24.4346 -0.0101,9.0134 -0.0139,18.0267 -0.0157,27.0401 0.0163,3.693 -0.0125,7.3863 0.0145,11.0793 9.2e-4,0.064 0.002,0.1274 0.003,0.1912 0,0 -2.85459,-10e-5 -2.85459,-10e-5 l 0,0 c 9.5e-4,-0.064 0.002,-0.1275 0.003,-0.1912 0.0289,-3.693 0.003,-7.3864 0.0253,-11.0795 0.0124,-9.0133 0.0335,-18.0266 0.0379,-27.0399 -0.006,-8.1391 0.0494,-16.2827 -0.25284,-24.4177 -0.19859,-3.2991 -0.25138,-6.7511 -1.30799,-9.919 -0.17761,-0.5325 -0.88389,-1.0613 -0.62972,-1.5618 0.37216,-0.7329 1.39235,-0.8739 2.08852,-1.3108 -0.96323,2.5015 -1.12416,5.974 -2.71947,8.4884 -2.86228,4.9969 -6.20273,9.6895 -9.20489,14.6037 -3.35368,4.5297 -6.91098,8.8876 -10.71983,13.046 -0.9885,1.4489 -2.30923,3.0712 -3.02121,4.6952 -0.12071,0.2753 0.095,0.7293 -0.16066,0.8875 -0.71767,0.444 -1.66947,0.3463 -2.4288,0.7145 -0.41083,0.1993 0.90392,-0.1295 1.35589,-0.1942 4.07571,-0.674 7.96833,-2.0046 12.04117,-2.6922 6.22491,-0.4336 12.44145,-1.0572 18.58417,-2.1814 0,0 2.80154,0.3964 2.80154,0.3964 z" />
    <path
       style="fill:#000000;fill-opacity:1;stroke:#000000;stroke-width:10;stroke-miterlimit:4;stroke-opacity:1;stroke-dasharray:none"
       id="path2888"
       d="m 883.15784,1124.8283 c 6.45654,-7.4629 13.19475,-14.6836 19.56695,-22.2177 6.12471,-7.925 10.88365,-16.7754 15.0584,-25.846 3.92251,-8.1685 7.48795,-16.5209 10.25266,-25.1552 0.71447,-2.3429 1.16535,-4.7472 1.63128,-7.1467 0.08,-0.4119 -0.0688,-1.3416 0.33097,-1.2144 0.99555,0.3167 1.93856,0.7795 2.90783,1.1693 0.05,4.3887 -0.01,8.7782 -0.0317,13.1671 -0.0937,4.7157 -2.79379,9.5237 -1.21203,14.1373 0.25186,0.2779 0.41034,0.6872 0.75559,0.8336 0.33779,0.1433 1.40658,0.1546 1.09976,-0.047 -1.53254,-1.0051 -2.75961,0.5279 -0.27381,-1.1414 1.12395,-0.7548 1.78282,-1.3931 2.81917,-2.2968 2.61192,-1.4981 2.96916,-5.2718 5.80591,-6.256 1.26977,0.2703 2.6169,0.2975 3.80932,0.8108 0.65083,0.2802 2.56415,7.023 2.84866,8.0001 0.50472,3.5194 1.63605,6.8143 3.13512,10.0218 0.13126,0.2615 0.26252,0.523 0.39378,0.7845 0,0 -2.84238,0.1312 -2.84238,0.1312 l 0,0 c -0.13001,-0.2641 -0.26002,-0.5283 -0.39003,-0.7924 -1.48304,-3.2264 -2.60667,-6.5384 -3.12658,-10.0646 -0.65107,-2.2156 -1.23615,-4.7003 -2.18554,-6.8052 -0.16617,-0.3684 -0.89039,-0.6827 -0.66176,-1.0159 0.37181,-0.542 1.22784,-0.4695 1.84177,-0.7042 -2.9313,0.6715 -3.20837,4.685 -5.80772,6.1301 -2.46425,2.186 -7.18641,6.0228 -10.05401,2.5019 -1.50997,-4.6856 1.06074,-9.4611 1.22349,-14.2296 0.0194,-4.3827 0.0772,-8.7664 0.0101,-13.1488 0.92704,-0.3211 1.85415,-0.6421 2.78113,-0.9634 0.34642,-0.12 -0.27325,0.6848 -0.34541,1.0443 -0.48359,2.4089 -0.92949,4.8276 -1.65314,7.1814 -2.78508,8.6411 -6.34529,17.0091 -10.27693,25.1879 -4.17443,9.0952 -8.93758,17.9685 -15.06221,25.9213 -6.36219,7.5415 -13.12808,14.736 -19.53243,22.2439 0,0 -2.81624,-0.2216 -2.81624,-0.2216 z" />
    <path
       style="fill:#000000;fill-opacity:1;stroke:#000000;stroke-width:10;stroke-miterlimit:4;stroke-opacity:1;stroke-dasharray:none"
       id="path2890"
       d="m 992.50134,1065.8647 c -1.51781,9.2431 -1.88666,18.6207 -2.21715,27.9658 -1.00475,10.961 -2.06695,21.9104 -2.67549,32.9023 -0.30286,6.5386 -0.45575,13.0834 -0.49313,19.6287 5.3e-4,0.1272 10e-4,0.2544 0.002,0.3816 0,0 -2.85207,0 -2.85207,0 l 0,0 c 0.004,-0.1269 0.008,-0.2538 0.0117,-0.3808 0.0994,-6.549 0.21909,-13.0985 0.54076,-19.6413 0.61882,-10.9894 1.68209,-21.937 2.68403,-32.8965 0.32666,-9.3565 0.69692,-18.7422 2.17072,-28.0027 0,0 2.82906,0.047 2.82906,0.047 z" />
    <path
       style="fill:#000000;fill-opacity:1;stroke:#000000;stroke-width:10;stroke-miterlimit:4;stroke-opacity:1;stroke-dasharray:none"
       id="path2892"
       d="m 994.93552,1063.2508 c 8.31118,-1.3417 16.72558,-1.8249 25.12548,-2.2084 7.02,-0.2608 14.0452,-0.3261 21.0695,-0.3482 2.4393,0 4.8786,0 7.3179,0 0,0 -2.8084,0.4439 -2.8084,0.4439 l 0,0 c -3.9318,-0.012 4.6732,3e-4 -1.7208,-0.01 -7.0315,0.017 -14.064,0.078 -21.0916,0.3327 -8.3876,0.3746 -16.7909,0.8442 -25.09053,2.1794 0,0 -2.80155,-0.3964 -2.80155,-0.3964 z" />
    <path
       style="fill:#000000;fill-opacity:1;stroke:#000000;stroke-width:10;stroke-miterlimit:4;stroke-opacity:1;stroke-dasharray:none"
       id="path2894"
       d="m 1003.8514,1097.5336 c 10.2021,-0.9671 20.2997,-2.7097 30.4744,-3.9156 7.2669,-0.8297 14.5711,-1.2521 21.8798,-1.4542 1.1407,-0.076 2.6776,0.4062 2.8655,-1.0085 0,0 2.846,0.035 2.846,0.035 l 0,0 c -0.1988,1.732 -1.3171,1.4037 -2.9196,1.4086 -7.32,0.1898 -14.6359,0.601 -21.9148,1.4231 -10.1637,1.194 -20.246,2.9469 -30.4351,3.9143 0,0 -2.7962,-0.4022 -2.7962,-0.4022 z" />
    <path
       style="fill:#000000;fill-opacity:1;stroke:#000000;stroke-width:10;stroke-miterlimit:4;stroke-opacity:1;stroke-dasharray:none"
       id="path2896"
       d="m 40.300698,33.399687 c 4.012392,-3.115177 6.431425,-9.943166 10.965791,-12.206268 1.23426,0.490911 2.662633,0.646606 3.702781,1.472732 1.238814,0.983914 0.977538,10.622535 0.97058,12.271019 -0.285666,7.604691 -0.165551,15.144869 0.598788,22.714154 0.935968,6.912796 0.89602,13.931316 2.643455,20.706009 -0.352336,1.044662 3.394753,3.797685 0.93992,2.129165 0,0 2.807654,0.362092 2.807654,0.362092 l 0,0 c -4.810647,0.497467 -4.85969,1.350586 -6.571171,-2.420579 -1.720984,-6.793743 -1.684538,-13.822007 -2.617294,-20.748497 -0.767309,-7.578916 -0.902539,-15.128196 -0.617446,-22.743255 0.0061,-2.704518 0.07734,-5.435559 -0.171023,-8.133445 -0.06698,-0.727603 -0.14232,-1.457089 -0.288868,-2.172921 -0.125642,-0.613711 -0.786591,-1.235004 -0.525382,-1.804386 0.326383,-0.711449 1.301327,-0.870223 1.95199,-1.305335 -4.121228,1.612836 -7.380363,9.302234 -10.973536,12.101157 0,0 -2.816239,-0.221642 -2.816239,-0.221642 z" />
    <path
       style="fill:#000000;fill-opacity:1;stroke:#000000;stroke-width:10;stroke-miterlimit:4;stroke-opacity:1;stroke-dasharray:none"
       id="path2898"
       d="m 89.216669,70.856566 c 5.868272,-4.331543 11.247181,-9.101012 15.231901,-15.235464 2.20661,-4.57728 3.59218,-9.542428 4.54221,-14.526024 0.77457,-4.486839 2.13532,-8.846953 3.10352,-13.301406 -0.15785,-3.225921 2.55318,-5.89412 4.44631,-1.241173 1.25032,3.747767 2.97306,7.33496 4.73031,10.875472 1.8137,3.171197 4.30074,6.400682 7.58079,8.164419 0.34709,0.136104 1.39583,0.293117 1.04126,0.408313 -0.61756,0.200634 -1.37062,0.188768 -1.9446,-0.114829 -0.53593,-0.283469 0.93972,-0.827342 1.18033,-1.383832 0.39359,-0.910321 0.45086,-1.759053 0.60362,-2.736742 1.02698,-3.598703 2.04861,-7.178409 2.66273,-10.874432 3.38578,-7.457511 5.64355,5.833798 5.79139,7.001893 0.21444,4.952141 0.62039,9.922269 2.48927,14.554964 0.67607,1.451484 1.11976,2.639598 2.50879,3.44465 0,0 -2.82789,0.2825 -2.82789,0.2825 l 0,0 c -1.31214,-0.940093 -1.86057,-2.131677 -2.50846,-3.619678 -1.84367,-4.664264 -2.26703,-9.651685 -2.48569,-14.626595 -0.22794,-1.771952 -0.31255,-2.936944 -0.77789,-4.650937 -0.17559,-0.646743 -0.89487,-1.276917 -0.65239,-1.901668 0.29421,-0.758069 1.36364,-0.900659 1.95614,-1.457585 0.29469,-0.276987 -2.71487,0.682696 -0.65812,1.019271 -0.61726,3.694125 -1.62469,7.276008 -2.66236,10.870718 -0.55852,3.718862 -1.99745,6.251632 -6.5401,4.084054 -3.25505,-1.909759 -5.76606,-5.084221 -7.58245,-8.334082 -1.76388,-3.545519 -3.46863,-7.146537 -4.74213,-10.894615 -0.16818,-0.400564 -0.8113,-0.89407 -0.50453,-1.201693 3.64252,-3.652734 1.97754,1.460351 1.72804,2.392594 -0.97896,4.449946 -2.32789,8.811471 -3.1151,13.293386 -0.95058,5.020294 -2.34567,10.016647 -4.54792,14.63518 -3.99321,6.168806 -9.364494,10.965695 -15.2363,15.350466 0,0 -2.810681,-0.277125 -2.810681,-0.277125 z" />
    <path
       style="fill:#000000;fill-opacity:1;stroke:#000000;stroke-width:10;stroke-miterlimit:4;stroke-opacity:1;stroke-dasharray:none"
       id="path2900"
       d="m 169.642,23.345998 c -1.42005,9.414406 -1.89584,18.922271 -2.21701,28.425503 -0.4142,10.809077 0.96877,21.584809 1.73711,32.353114 0.32875,7.18799 0.37178,14.321269 2.10556,21.333845 0.55566,1.44674 0.11484,0.92531 1.14947,1.69547 0,0 -2.83421,0.24682 -2.83421,0.24682 l 0,0 c -1.0136,-0.9597 -0.59163,-0.36185 -1.14266,-1.87448 -1.70045,-7.033918 -1.74293,-14.17979 -2.07073,-21.38189 -0.75919,-10.778446 -2.14092,-21.563763 -1.72305,-32.382126 0.31192,-9.513296 0.78495,-19.027557 2.17085,-28.45634 0,0 2.82467,0.04008 2.82467,0.04008 z" />
    <path
       style="fill:#000000;fill-opacity:1;stroke:#000000;stroke-width:10;stroke-miterlimit:4;stroke-opacity:1;stroke-dasharray:none"
       id="path2902"
       d="m 178.0733,17.855483 c 7.05467,-0.214813 14.09789,-1.387766 21.15387,-2.056092 5.73575,-0.515736 11.49346,-0.700134 17.2493,-0.794063 2.04772,-0.02272 1.09428,-0.01455 2.86031,-0.02637 0,0 2.80615,0.442783 2.80615,0.442783 l 0,0 c -1.7733,0.0087 -0.81616,0.0021 -2.8714,0.0218 -5.76162,0.08618 -11.52528,0.261952 -17.26748,0.768993 -8.89531,0.8316 -17.76107,2.289733 -26.72124,2.084916 0,0 2.79049,-0.44197 2.79049,-0.44197 z" />
    <path
       style="fill:#000000;fill-opacity:1;stroke:#000000;stroke-width:10;stroke-miterlimit:4;stroke-opacity:1;stroke-dasharray:none"
       id="path2904"
       d="m 189.16564,46.791454 c 5.98268,0.957545 11.99663,1.683699 18.03401,2.182775 1.84537,0.138949 3.69189,0.27415 5.54188,0.330518 0.051,0.169266 0.10202,0.338533 0.15303,0.5078 0,0 -2.85014,0.108997 -2.85014,0.108997 l 0,0 c -0.0409,-0.05942 -0.0819,-0.118845 -0.12278,-0.178267 -1.8412,-0.0755 -3.67967,-0.204779 -5.51658,-0.35032 -6.03938,-0.511787 -12.05493,-1.250289 -18.04096,-2.20509 0,0 2.80154,-0.396413 2.80154,-0.396413 z" />
    <path
       style="fill:#000000;fill-opacity:1;stroke:#000000;stroke-width:10;stroke-miterlimit:4;stroke-opacity:1;stroke-dasharray:none"
       id="path2906"
       d="m 712.07838,872.65276 c 6.02475,-0.87333 12.20432,-2.23368 17.21786,-5.83453 2.69589,-2.12551 3.40413,-5.12176 3.65879,-8.36918 0.11004,-3.59446 0.0176,-7.19301 -0.0227,-10.78839 -0.91028,-3.84793 -1.98438,-6.82843 -0.29244,-10.56838 2.20439,-2.6125 5.73776,-3.92609 8.84972,-5.22497 4.17221,-1.82097 8.76185,-1.63995 11.90775,1.75807 2.10155,2.78637 2.18136,6.39298 2.32567,9.74458 0.19704,3.64338 0.18149,7.16015 -0.7974,10.68356 -0.99142,3.10773 -1.57724,6.29428 -1.89123,9.53405 0.29604,3.53275 2.3777,5.88776 4.99919,8.02057 3.06276,2.0939 6.64389,4.09244 10.29674,4.90948 -1.65798,-0.35627 -1.43023,-0.0631 0.42579,-1.02907 0,0 2.81777,0.30145 2.81777,0.30145 l 0,0 c -2.8376,1.65982 -0.94402,0.87198 -6.05279,1.10479 -3.658,-0.94244 -7.25104,-2.85592 -10.30761,-5.03674 -2.66991,-2.20746 -4.73301,-4.69169 -5.01704,-8.29804 0.31868,-3.25604 0.898,-6.46038 1.89699,-9.58385 0.98576,-3.49176 0.98769,-6.97954 0.79833,-10.59381 -0.14652,-3.28751 -0.21141,-6.83412 -2.32179,-9.54111 -3.05841,-3.10635 -3.19995,-2.81558 -6.26673,-1.64012 -3.07887,1.24528 -6.54347,2.57983 -8.83055,5.01319 -1.85425,3.9766 -0.52058,6.35266 0.28949,10.44332 0.0369,3.60375 0.1434,7.21059 0.0299,10.81334 -0.25316,3.31266 -0.96556,6.41108 -3.68208,8.61261 -4.97495,3.68899 -11.19226,5.07794 -17.23007,5.96559 0,0 -2.80154,-0.39641 -2.80154,-0.39641 z"
       transform="translate(-30.064475,9.978958)" />
  </g>
</svg>
