<?xml version="1.0" encoding="UTF-8" standalone="no"?>
<!-- Created with Inkscape (http://www.inkscape.org/) -->

<svg
   xmlns:dc="http://purl.org/dc/elements/1.1/"
   xmlns:cc="http://creativecommons.org/ns#"
   xmlns:rdf="http://www.w3.org/1999/02/22-rdf-syntax-ns#"
   xmlns:svg="http://www.w3.org/2000/svg"
   xmlns="http://www.w3.org/2000/svg"
   xmlns:sodipodi="http://sodipodi.sourceforge.net/DTD/sodipodi-0.dtd"
   xmlns:inkscape="http://www.inkscape.org/namespaces/inkscape"
   width="1493.1746"
   height="531.86255"
   id="svg2"
   version="1.1"
   inkscape:version="0.47pre4 r22446"
   sodipodi:docname="c5d5.svg">
  <defs
     id="defs4">
    <inkscape:perspective
       sodipodi:type="inkscape:persp3d"
       inkscape:vp_x="0 : 526.18109 : 1"
       inkscape:vp_y="0 : 1000 : 0"
       inkscape:vp_z="744.09448 : 526.18109 : 1"
       inkscape:persp3d-origin="372.04724 : 350.78739 : 1"
       id="perspective10" />
  </defs>
  <sodipodi:namedview
     id="base"
     pagecolor="#ffffff"
     bordercolor="#666666"
     borderopacity="1.0"
     inkscape:pageopacity="0.0"
     inkscape:pageshadow="2"
     inkscape:zoom="0.35"
     inkscape:cx="1059.3526"
     inkscape:cy="120.88046"
     inkscape:document-units="px"
     inkscape:current-layer="layer1"
     showgrid="false"
     inkscape:window-width="1280"
     inkscape:window-height="726"
     inkscape:window-x="0"
     inkscape:window-y="25"
     inkscape:window-maximized="1" />
  <metadata
     id="metadata7">
    <rdf:RDF>
      <cc:Work
         rdf:about="">
        <dc:format>image/svg+xml</dc:format>
        <dc:type
           rdf:resource="http://purl.org/dc/dcmitype/StillImage" />
        <dc:title></dc:title>
      </cc:Work>
    </rdf:RDF>
  </metadata>
  <g
     inkscape:label="Layer 1"
     inkscape:groupmode="layer"
     id="layer1"
     transform="translate(684.35258,-121.38006)">
    <path
       style="fill:#000000;fill-opacity:1;stroke:#000000;stroke-width:10;stroke-miterlimit:4;stroke-opacity:1;stroke-dasharray:none"
       id="path2816"
       d="m -676.54626,367.15525 c 8.47064,2.62869 16.92903,5.03856 25.69901,6.438 9.58243,1.26772 19.26073,1.35135 28.90947,1.44183 9.55502,0.0439 19.11018,0.008 28.66523,-0.009 6.14263,-0.0106 12.28527,-0.0189 18.42791,-0.0272 2.98091,0.12073 3.42855,-3.83227 3.91533,-6.05039 2.2298,-7.41801 2.84976,-15.12079 3.30901,-22.81033 0.65294,-12.97086 1.95562,-25.89347 2.62215,-38.8682 1.11457,-12.23587 2.33208,-24.45921 3.08817,-36.72403 1.15513,-4.95193 -1.28451,-12.52805 1.67294,-16.84696 4.10112,-2.55495 9.58485,-1.75068 14.17028,-1.75101 7.57164,0.32583 15.06523,1.64629 22.6337,2.2429 14.0602,1.10357 28.12823,0.55118 42.19348,0.004 19.74824,-0.33644 39.49862,0.045 59.24173,0.48949 1.53417,0.15117 3.07266,0.26348 4.60251,0.45351 2.72013,0.3379 12.88602,2.22082 8.94092,1.85424 9.19624,-2.6535 16.94087,-8.75997 24.89447,-13.85926 16.50209,-10.50684 33.47358,-20.24522 50.09758,-30.55107 10.40384,-5.92707 19.69626,-13.45787 29.4868,-20.28321 4.95443,-3.78828 10.06797,-7.37173 15.34641,-10.69424 0.82965,-0.50324 1.52835,-0.63983 1.64929,-1.63486 0,0 2.85036,0.0325 2.85036,0.0325 l 0,0 c -0.12811,1.18101 -0.63288,1.33629 -1.67465,1.8892 -5.30807,3.29735 -10.44143,6.87605 -15.40246,10.67485 -9.8138,6.81352 -19.08718,14.39394 -29.52365,20.29435 -16.62681,10.28966 -33.6038,20.0071 -50.07742,30.54869 -7.97333,5.12033 -15.69778,11.16041 -24.8483,14.01747 -1.56464,0.0103 -3.13154,0.11552 -4.69394,0.031 -4.78007,-0.25851 -9.48102,-2.90753 -14.39654,-2.34428 -17.93483,-0.41311 -35.87681,-0.80876 -53.81669,-0.50525 -15.87276,0.62671 -31.76884,1.12844 -47.63421,-0.002 -7.57234,-0.60687 -15.07278,-1.94143 -22.65466,-2.2173 -2.92141,0.0403 -5.97161,-0.1148 -8.55224,1.48681 -3.03254,4.00911 -0.5402,11.96128 -1.71216,16.68764 -0.77754,12.26296 -2.0073,24.48503 -3.11897,36.72069 -0.66053,12.97513 -1.96205,25.8985 -2.59698,38.87045 -0.44524,7.70273 -1.05344,15.41952 -3.26866,22.85444 -0.47499,2.21167 -0.97577,6.46848 -3.94025,6.43367 -6.1583,0.003 -12.31661,0.01 -18.47491,0.0195 -11.39329,0.019 -22.78672,0.0571 -34.17997,0.007 -9.65241,-0.0958 -19.33525,-0.18644 -28.91825,-1.4829 -8.7789,-1.42685 -17.25036,-3.85886 -25.73816,-6.47874 0,0 2.80632,-0.35235 2.80632,-0.35235 z" />
    <path
       style="fill:#000000;fill-opacity:1;stroke:#000000;stroke-width:10;stroke-miterlimit:4;stroke-opacity:1;stroke-dasharray:none"
       id="path2818"
       d="m -279.06955,269.28405 c 7.97628,0.003 15.95257,0.002 23.92885,0.001 7.34908,3e-5 14.69816,-5e-5 22.04725,-6e-5 7.08616,-2.6e-4 14.17232,4e-5 21.25848,-2.4e-4 5.09047,-7.9e-4 10.18095,-10e-4 15.27143,-10e-4 2.07106,-3.1e-4 4.14212,-7.2e-4 6.21318,-0.002 4.80771,-0.21419 -1.31471,1.07475 1.08409,-2.43264 1.99575,-3.7812 3.93696,-7.58701 5.44358,-11.59272 2.3749,-4.72413 4.5964,-9.49159 6.74627,-14.31969 1.59262,-3.96314 3.6865,-7.66866 5.63775,-11.46104 5.20433,-5.04892 6.67971,6.82524 7.15958,9.03207 1.89785,8.1817 1.95337,16.59955 2.90099,24.90211 1.31732,9.32951 2.04263,18.71904 2.48455,28.12573 0.70974,6.23918 1.87846,12.41115 2.6716,18.63946 0.42575,1.2391 -0.53213,6.6418 1.79938,6.29222 -0.68333,-0.14383 -1.59608,0.0992 -2.04998,-0.43149 -0.2813,-0.32886 0.57982,-0.64655 0.81985,-1.00664 0.39917,-0.59883 0.76395,-1.22191 1.09249,-1.86222 1.51038,-2.94362 2.60143,-6.05464 3.66116,-9.17819 3.26249,-9.83595 6.49951,-19.65333 10.46113,-29.23441 3.48712,-9.61502 7.64927,-18.96103 11.66908,-28.35889 2.69818,-3.51032 3.72439,-10.60271 6.68829,-13.73608 1.08052,0.48384 2.38536,0.63386 3.24156,1.4515 0.70933,0.67738 0.386,12.18489 0.37937,13.53606 -0.46773,8.80392 0.30906,17.52601 1.16898,26.27439 0.5163,9.14207 1.43136,18.19927 2.74825,27.25718 0.79955,4.88158 0.75061,10.46181 3.659,14.68594 -1.7033,0.27078 2.26131,1.28107 1.64949,1.05421 -0.63673,-0.23609 -1.64225,-0.008 -1.94141,-0.61757 -0.25264,-0.51484 0.6694,-0.93697 0.9272,-1.44925 0.41791,-0.83042 1.6524,-4.25847 1.87643,-4.86377 2.78184,-9.3898 5.58953,-18.77792 8.734052,-28.05408 4.708153,-12.03888 9.574413,-24.02421 15.166728,-35.68264 2.315319,-5.25518 4.934702,-10.3752 7.794441,-15.35417 4.40011,-2.81288 5.307216,7.49119 5.664288,9.63189 0.486217,6.90334 1.808136,13.69603 2.69695,20.5536 1.390405,7.20014 2.532689,14.4288 4.279515,21.55153 1.094007,4.37655 1.886744,8.81375 2.442353,13.28824 -0.996596,0.81047 1.701107,1.82776 0.987554,1.71435 -3.180939,-0.50556 0.39765,-1.50266 1.710701,-2.4741 4.327317,-3.98068 9.010776,-7.31646 14.54502,-9.331 6.565183,-2.72749 13.492239,-3.91472 20.518915,-4.61566 6.746829,-0.55602 13.521619,-0.53959 20.2858995,-0.55057 6.3628565,-0.005 12.7256581,0.0231 19.0884855,0.0365 3.248877,0.006 6.497759,0.009 9.746641,0.009 1.721546,0.0123 4.904974,-0.0617 -3.116447,0.0713 0,0 2.810884,-0.38103 2.810884,-0.38103 l 0,0 c -1.202908,0.6942 -1.28948,0.83261 -2.503514,0.75455 -3.243335,-0.002 -6.48667,-0.005 -9.729999,-0.0124 -4.5064232,-0.011 -9.012851,-0.0234 -13.51925655,-0.0387 -6.76317825,0.008 -13.53636445,-0.0119 -20.28340745,0.52353 -7.018908,0.67861 -13.948472,1.81879 -20.505456,4.54773 -5.540318,1.94919 -10.22948,5.2501 -14.520332,9.24817 -2.06047,1.57582 -7.927525,5.04491 -8.356168,0.53265 -0.535276,-4.46461 -1.325682,-8.89002 -2.413772,-13.2552 -1.743506,-7.1337 -2.878792,-14.37403 -4.27577,-21.58288 -0.887694,-6.85472 -2.21022,-13.64388 -2.71103,-20.54289 -0.398539,-2.36463 -0.843998,-4.67235 -1.518697,-6.97597 -0.169016,-0.57706 -0.877152,-1.22219 -0.541131,-1.72085 0.513244,-0.76167 1.641237,-0.82961 2.492352,-1.1748 0.171706,-0.0696 -0.292262,0.22784 -0.438393,0.34177 -2.892773,4.96106 -5.522037,10.07791 -7.845772,15.33025 -5.619669,11.63497 -10.484092,23.61228 -15.172906,35.64846 -3.142618,9.27566 -5.948498,18.66417 -8.697208,28.06252 -1.15237,3.15256 -3.17722,11.14938 -8.15889,5.94429 -2.82145,-4.33523 -2.86799,-9.85686 -3.63119,-14.81279 -1.30735,-9.06279 -2.21466,-18.1253 -2.73759,-27.2701 -0.86317,-8.75727 -1.64289,-17.48975 -1.18543,-26.30294 0.0122,-3.86167 0.17146,-7.78248 -0.1716,-11.6353 -0.0542,-0.60885 -0.58712,-1.31901 -0.235,-1.81867 0.53003,-0.75211 1.62271,-0.86786 2.43407,-1.3018 -2.56636,2.16929 -4.42338,10.80743 -6.73024,13.61866 -4.02838,9.39487 -8.2052,18.73592 -11.6848,28.35477 -3.95969,9.57344 -7.20168,19.3803 -10.43886,29.21653 -0.53952,1.6085 -3.79654,11.56832 -5.54594,12.23645 -1.1352,0.43354 -2.39846,0.39238 -3.59769,0.58858 -2.4392,-0.49068 -1.29954,-5.00116 -1.81046,-6.69448 -0.77792,-6.23652 -1.94581,-12.41518 -2.644,-18.66191 -0.43266,-9.40092 -1.15816,-18.7842 -2.47865,-28.10704 -0.94314,-8.29425 -1.01423,-16.70321 -2.92291,-24.87335 -0.51815,-2.37079 -0.69395,-5.14154 -1.76082,-7.35644 -0.23625,-0.49046 -1.07111,-0.85183 -0.89416,-1.36666 0.2043,-0.59437 1.05108,-0.75541 1.66683,-0.88135 0.27136,-0.0555 -0.34753,0.43137 -0.5213,0.64706 -1.96029,3.78588 -4.05759,7.4851 -5.65476,11.44405 -2.15026,4.82175 -4.34221,9.5969 -6.74327,14.30261 -1.50202,4.02945 -3.4537,7.84887 -5.43086,11.66196 -1.55098,2.26114 -4.14229,2.88742 -6.73393,2.70853 -2.06311,-10e-4 -4.12623,-0.002 -6.18935,-0.002 -5.08495,-2.2e-4 -10.16991,-5.2e-4 -15.25487,-10e-4 -7.08515,-2.8e-4 -14.17029,2e-5 -21.25544,-2.5e-4 -7.34884,0 -14.69769,-8e-5 -22.04653,-5e-5 -7.98208,-5.4e-4 -15.96416,-0.002 -23.94624,10e-4 0,0 2.79049,-0.44197 2.79049,-0.44197 z" />
    <path
       style="fill:#000000;fill-opacity:1;stroke:#000000;stroke-width:10;stroke-miterlimit:4;stroke-opacity:1;stroke-dasharray:none"
       id="path2820"
       d="m -558.92723,383.00756 c -0.98345,8.23452 -2.33498,16.40696 -3.50591,24.61629 -0.73289,9.04995 -3.18791,17.78259 -5.17,26.59984 -0.95807,6.07733 -3.08749,11.8704 -4.40737,17.86437 -0.25997,2.27711 -1.23168,4.34245 -2.95387,5.85783 1.11761,1.39004 3.23548,1.72544 4.91289,2.08826 5.13922,0.74551 10.33361,0.4817 15.48839,1.03971 9.96598,1.40371 20.01745,1.87196 30.06531,2.19394 13.05003,0.31184 26.10482,0.31383 39.15778,0.32613 11.28842,10e-4 22.57684,-0.009 33.86526,-0.0147 9.36755,-0.004 18.73509,-0.006 28.10263,-0.008 6.31229,-0.29236 12.52194,0.1568 18.6307,1.7543 1.99446,0.4028 3.98618,0.94515 6.02395,1.07259 -0.66945,-0.30002 2.8834,0.3147 2.2003,0.0472 -0.50877,-0.1992 -1.36863,0.18721 -1.61096,-0.30248 -0.19464,-0.39331 0.84627,-0.25381 1.23326,-0.46074 0.39712,-0.21234 0.73244,-0.52411 1.09866,-0.78617 3.47922,-3.46037 5.48285,-8.08924 8.07583,-12.20426 3.39834,-6.53869 6.83636,-13.07205 10.77309,-19.30536 2.54593,-3.64643 4.19643,-8.81518 8.20112,-11.22774 6.17178,-0.93418 6.07741,7.39519 7.01487,11.28948 1.96747,8.22317 3.84567,16.46454 5.72538,24.71032 3.05961,9.79195 5.24834,19.79188 7.70946,29.73684 1.53725,6.41196 3.05301,12.91308 5.77982,18.94317 0.80219,3.15464 6.04474,5.92073 1.1936,3.59062 2.48288,-6.18076 4.58051,-12.49708 7.06382,-18.68392 4.61527,-11.04396 9.89262,-21.79394 15.16227,-32.53573 4.00706,-8.17125 8.71201,-15.98477 12.62108,-24.20175 1.25554,-2.39604 2.11616,-3.84303 4.96523,-0.59694 0.90688,1.03325 0.16838,2.74491 0.20758,4.11914 0.0183,7.10147 -0.0659,14.20291 -0.1038,21.3043 -0.18675,9.16837 0.2996,18.35665 -0.3927,27.50495 -0.72089,6.90757 -2.10925,13.71201 -1.3695,20.65887 0.25966,1.61917 0.21756,2.41163 1.02698,3.8169 0.8901,1.54534 2.08065,1.00323 1.47401,0.80636 -2.12883,-0.69089 -2.45514,0.37844 -0.92405,-1.47199 2.83687,-5.90021 5.25318,-11.98304 7.8227,-18.00103 4.45443,-9.26712 8.24362,-18.842 13.00766,-27.95881 4.068,-7.49454 8.00278,-15.04525 12.27991,-22.42081 2.37809,-2.1964 1.92073,-7.2866 4.90495,-8.70624 1.22829,0.40303 2.56577,0.562 3.68488,1.2091 1.31235,0.75884 2.82891,9.06962 3.1002,10.57231 0.56844,7.28118 1.91278,14.46101 2.77283,21.70882 0.98392,6.98758 0.57917,14.08668 1.46118,21.07028 0.9751,3.45224 0.9443,7.29146 2.24815,10.65417 -0.77769,-0.25251 -1.76873,-0.16585 -2.33306,-0.75754 -0.55852,-0.58559 4.08574,-6.01541 4.64212,-6.55507 2.91777,-3.01631 6.48975,-4.4481 10.53889,-5.12315 5.09466,-1.41775 10.27988,-2.29081 15.53626,-2.80014 8.31833,-0.64569 16.66381,-0.52607 24.98828,-0.13922 9.8148,1.14108 19.6597,1.83102 29.53092,2.20316 9.93054,0.31743 19.86736,0.32876 29.80193,0.3434 8.5301,-0.25532 17.00126,0.20377 25.45912,1.29778 5.45524,0.76713 10.94391,0.79049 16.256731,2.29484 3.416174,1.03668 6.915967,1.63241 10.464375,1.94535 0.58202,0.17987 10.418149,0.17911 5.902392,0.17651 2.850148,-0.006 5.70029,-0.0139 8.550441,-0.0186 3.137141,-0.0859 6.292987,0.24859 9.388566,-0.31822 3.934068,-1.18094 7.932488,-1.85749 12.017389,-2.20911 5.390089,-0.34536 10.794824,-0.33681 16.193563,-0.35118 4.693719,-0.42865 9.535184,0.51464 14.219169,0.007 0.109906,-0.0119 -0.02801,-0.29048 0.07784,-0.32238 0.817053,-0.24629 1.678929,-0.3068 2.518393,-0.4602 3.721779,-0.8198 7.4587031,-1.51005 11.2537852,-1.86667 3.2976963,-0.22225 6.6061733,-0.2121 9.9098873,-0.21779 1.3573264,6.2e-4 2.7249554,0.16877 4.0719791,0.002 0.5650525,-0.07 -1.4753786,0.23257 -1.6819249,-0.29802 -0.1792124,-0.46037 0.8603323,-0.48865 1.2658579,-0.7708 1.3278087,-0.92385 2.1142824,-2.03943 2.9742674,-3.38025 2.207616,-3.21076 3.443404,-6.94445 4.804038,-10.56378 1.67301,-4.90831 3.392419,-9.77009 4.470142,-14.85353 0.917812,-5.00183 2.233224,-9.90138 3.029068,-14.93472 0.627949,-4.45499 0.714136,-8.96091 0.77056,-13.45221 0.124306,-4.23074 -1.318394,-8.30619 -2.070144,-12.43978 -0.618764,-4.09237 -0.719308,-8.23606 -0.794052,-12.36665 -0.04153,-3.86333 -0.02311,-7.72696 -0.01842,-11.59042 0.0069,-3.80804 0.01208,-7.61608 0.01123,-11.42413 7.15e-4,-3.80859 0.0034,-7.61717 9.98e-4,-11.42576 0.0024,-4.0658 4.57e-4,-8.13159 0.0018,-12.19739 0.142258,-3.96383 0.09066,-7.7864 -0.813524,-11.64897 -1.109121,-3.72917 -1.598333,-7.58652 -1.859543,-11.45543 -0.216479,-3.80705 -0.204427,-7.62257 -0.205117,-11.4344 1.27e-4,-3.55321 0.01189,-7.1064 0.01415,-10.65961 -0.126972,-3.04147 1.043152,-5.95131 2.070907,-8.7688 -0.224884,-1.97287 -0.995958,-3.9831 -1.897066,-5.75535 0,0 2.836892,-0.13182 2.836892,-0.13182 l 0,0 c 0.914596,1.85309 1.735293,3.92336 1.902055,5.98735 -1.030983,2.78166 -2.203047,5.66088 -2.078544,8.66896 -0.0062,3.55303 -0.01064,7.10606 -0.01799,10.65909 0.0041,3.80553 -0.0097,7.61445 0.205002,11.41534 0.264727,3.85403 0.75601,7.6938 1.85805,11.40968 0.907112,3.88352 0.958173,7.72978 0.813577,11.71396 0.0014,4.0658 -4.94e-4,8.13159 0.002,12.19739 -0.0024,3.80862 5.08e-4,7.61725 -9.85e-4,11.42587 -0.0039,3.80819 -0.0035,7.61637 -0.0113,11.42455 -0.0096,3.86162 -0.02261,7.72347 0.0173,11.58496 0.06876,4.11525 0.1723,8.24421 0.792947,12.32054 0.758282,4.15042 2.19686,8.24443 2.067828,12.49431 -0.05464,4.50495 -0.147556,9.02457 -0.774053,13.4932 -0.802845,5.03672 -2.106606,9.94396 -3.028942,14.94919 -1.078042,5.09722 -2.802946,9.97183 -4.469952,14.89587 -1.357458,3.63734 -2.595806,7.38972 -4.796012,10.62289 -2.715841,4.32303 -3.137931,3.9374 -8.196504,4.73259 -0.506819,0.0797 1.0260849,-0.001 1.5391273,-0.002 -3.3034369,10e-4 -6.61086809,-0.008 -9.9094167,0.19195 -3.7992754,0.33835 -7.5426516,1.00192 -11.2641326,1.83868 -5.558843,1.05243 -11.196699,0.82664 -16.826448,0.82582 -5.395346,0.0126 -10.79611,0.003 -16.183732,0.32952 -4.080731,0.33305 -8.084279,0.96098 -12.004978,2.1787 -3.084394,0.66161 -6.250236,0.27765 -9.391581,0.37361 -2.850169,0.004 -5.700327,0.012 -8.55049,0.019 -3.837059,-3e-4 -7.68157,0.0568 -11.512679,-0.20216 -3.54912,-0.33277 -7.045732,-0.96337 -10.46364,-1.99754 -5.305007,-1.46619 -10.797277,-1.46013 -16.229457,-2.25751 -8.48097,-1.09251 -16.84119,-1.8074 -25.43783,-1.26509 -9.93378,-0.0154 -19.86988,-0.0294 -29.79944,-0.35411 -9.87481,-0.37952 -19.72134,-1.08821 -29.54157,-2.21128 -6.33916,-1.14414 -13.03265,0.11625 -19.4341,0.13646 -5.25234,0.49104 -10.44558,1.31906 -15.52435,2.78357 -4.02971,0.62054 -7.60782,1.95581 -10.52069,4.95212 -0.79217,0.75918 -2.05297,1.88482 -2.72389,2.81323 -0.39623,0.54829 -1.29689,3.41368 -1.89741,3.69033 -1.03644,0.47748 -2.23655,0.45456 -3.35483,0.68185 -1.18523,-3.43599 -1.31553,-7.21133 -2.21509,-10.71886 -0.87191,-6.98553 -0.47032,-14.08343 -1.45042,-21.0722 -0.86554,-7.242 -2.2009,-14.41762 -2.78883,-21.69145 -0.57847,-3.17366 -1.24073,-6.26378 -2.53025,-9.23674 -0.17721,-0.40855 -0.81617,-0.82359 -0.58215,-1.20247 0.39185,-0.63442 1.31627,-0.7011 1.97441,-1.05164 -3.0249,0.90237 -2.61447,6.5503 -4.92219,8.513 -4.28441,7.37112 -8.24314,14.90789 -12.30268,22.40742 -4.77575,9.10272 -8.55221,18.6749 -12.99967,27.93695 -2.56944,6.03813 -5.00314,12.13133 -7.78734,18.07585 -3.3139,4.50664 -7.30661,0.86307 -7.22922,-3.30913 -0.7269,-6.96547 0.65978,-13.78612 1.39481,-20.70975 0.69947,-9.14125 0.20375,-18.32335 0.39021,-27.48505 0.0299,-7.09815 0.11169,-14.1965 0.075,-21.29464 -0.022,-0.72702 -0.0279,-1.45471 -0.0661,-2.18106 -0.0334,-0.63351 -0.5229,-1.38503 -0.14876,-1.89735 0.57108,-0.782 1.75008,-0.84576 2.55026,-1.39108 0.3003,-0.20466 -3.66512,1.98222 -1.86378,2.06442 -3.93005,8.21544 -8.65033,16.02764 -12.66783,24.2027 -5.2652,10.73408 -10.53861,21.47639 -15.14218,32.51573 -2.47998,6.19632 -4.57844,12.51866 -7.01804,18.72369 -5.40499,1.99591 -4.00999,1.16026 -6.85087,-3.61782 -2.69301,-6.06124 -4.2318,-12.56086 -5.75147,-18.99455 -2.44762,-9.95073 -4.64813,-19.94847 -7.71063,-29.7418 -1.87889,-8.24632 -3.76481,-16.48618 -5.74641,-24.70643 -0.6422,-2.66824 -0.96192,-5.51751 -1.89209,-8.10616 -0.2126,-0.59167 -1.02658,-1.12101 -0.80069,-1.70773 0.27495,-0.71416 1.37597,-0.71324 1.93428,-1.23662 0.14901,-0.13969 -0.4085,-10e-4 -0.61275,-0.002 -4.11475,2.04505 -5.68258,7.63103 -8.22602,11.08281 -3.94631,6.22541 -7.3911,12.75586 -10.76492,19.30544 -2.61335,4.13746 -4.62575,8.77094 -8.06056,12.309 -2.46408,1.92496 -5.5416,1.86859 -8.56359,1.6626 -2.03363,-0.18914 -4.02685,-0.69038 -6.01817,-1.12404 -4.59353,-1.18516 -8.2454,-2.13543 -13.04866,-1.6874 -9.37516,-2.9e-4 -18.75033,0 -28.12549,0.004 -13.11649,0.005 -26.23298,0.0166 -39.34947,0.0123 -13.05625,-0.0131 -26.11435,-0.0162 -39.16757,-0.33339 -10.0601,-0.32782 -20.12097,-0.81486 -30.10026,-2.20897 -5.16691,-0.52152 -10.37879,-0.26071 -15.51965,-1.0688 -1.60507,-0.37665 -4.52642,-0.76449 -4.94167,-2.71797 1.75653,-1.40798 2.70723,-3.44967 2.96618,-5.67096 1.32118,-5.99648 3.47902,-11.78388 4.43468,-17.86503 1.98324,-8.81004 4.44598,-17.5337 5.17733,-26.57732 1.16436,-8.21129 2.52588,-16.38257 3.46969,-24.62357 0,0 2.82906,0.0467 2.82906,0.0467 z" />
    <path
       style="fill:#000000;fill-opacity:1;stroke:#000000;stroke-width:10;stroke-miterlimit:4;stroke-opacity:1;stroke-dasharray:none"
       id="path2822"
       d="m 29.501874,394.99834 c 7.154936,0.49183 14.091701,-0.36302 21.153251,-1.2746 7.583621,-1.1125 15.265737,-1.01276 22.871311,-1.81332 8.615151,-1.33329 17.301704,-1.93141 26.002371,-2.31519 6.628503,0.30699 13.059063,-0.96222 19.550073,-2.03088 4.69515,-0.72608 9.4414,-0.97145 14.18429,-1.10231 4.82611,-0.0829 9.65346,-0.0595 14.48006,-0.0509 3.89272,0.22367 4.86869,-0.76503 9.37068,-1.67927 4.78425,-0.84914 9.65359,-0.99731 14.49987,-1.12076 4.40498,-0.0827 8.81137,-0.0687 13.21691,-0.0576 0.2858,10e-4 1.11501,0.12706 0.85741,0.003 -0.64038,-0.30782 -1.59749,-0.0312 -2.05189,-0.5774 -0.26079,-0.31349 0.57214,-0.58629 0.80584,-0.92047 0.87061,-1.24501 1.4289,-2.77581 2.1379,-4.11407 2.01061,-3.46346 4.21414,-6.83168 6.83954,-9.86288 2.72588,-3.51208 5.52391,-6.96151 8.49017,-10.27344 2.5181,-3.06297 5.8242,-5.12557 9.06623,-7.29616 4.20883,-2.76683 9.80268,-3.45161 14.29312,-0.84308 3.81732,2.07497 5.90803,5.6275 7.71159,9.41854 1.90016,3.87739 2.32187,8.17403 2.61068,12.41903 0.18878,3.96007 0.15952,7.92582 0.14595,11.88905 -0.12275,0.98703 1.09167,5.70447 -1.74563,2.42552 -0.24073,-0.27821 0.43424,-0.59973 0.5885,-0.93374 0.18836,-0.40783 0.28819,-0.85098 0.43228,-1.27647 1.28713,-4.25721 3.59726,-8.04574 5.63547,-11.96476 2.41882,-4.59404 5.395,-8.8355 8.33334,-13.09865 2.44683,-3.02761 5.22608,-5.75076 8.60207,-7.70359 4.88352,-1.28834 8.15199,0.17605 10.58874,4.24138 2.06342,2.57815 3.30629,5.55819 4.18274,8.70637 0.60257,2.89344 1.77362,5.63722 2.60563,8.48044 0.0902,0.19971 0.47115,0.68788 0.27076,0.59913 -0.68859,-0.30495 -1.55288,-0.60574 -1.8491,-1.29812 -0.10297,-0.24068 2.83358,-4.75579 3.66951,-6.23991 2.23554,-4.6122 5.13997,-8.86093 8.21019,-12.95281 2.95683,-3.90626 5.87749,-7.79361 9.73593,-10.85767 4.38708,-3.23034 7.72031,-2.31137 11.21267,1.14771 2.50054,3.10648 3.10671,7.12167 3.51988,10.97084 0.34015,3.90431 0.30591,7.82903 0.2991,11.74454 -0.007,3.31988 -0.0314,6.63972 -0.0283,9.95962 9e-5,0.1371 0.12798,0.46117 2.8e-4,0.41129 -0.88967,-0.3475 -1.92646,-0.63046 -2.5057,-1.38991 -0.19853,-0.26029 2.9488,-6.07274 3.36928,-6.76773 2.33505,-4.46616 5.88787,-8.12039 9.05312,-11.99495 2.2968,-3.23291 4.89566,-6.17311 7.91297,-8.7409 3.05406,-2.0387 6.08052,-3.97661 9.55763,-5.20208 3.56498,-1.10865 7.0234,-0.91984 10.69559,-0.61198 3.33291,1.06566 5.16931,3.43117 6.48109,6.52399 0.87023,4.10737 2.06451,8.13116 2.90137,12.25254 0.46781,3.56616 -1.29511,7.00351 -0.4459,10.50582 1.69221,2.04029 4.61594,1.78983 7.03836,1.87231 4.31711,0.10591 7.37766,-1.00768 12.56429,-1.72908 7.95033,-0.63393 15.85439,-1.74664 23.69791,-3.18702 9.34124,-1.91421 18.61231,-4.16793 27.92478,-6.2261 9.27153,-1.88663 18.71399,-2.45188 28.0593,-3.84343 6.45042,-0.99472 12.93722,-1.69815 19.45223,-2.06747 2.46535,-0.27114 5.23856,0.10581 7.56505,-0.36998 -0.75854,-1.06768 -0.33543,-0.42813 -1.21572,-1.95306 0,0 2.83336,-0.14915 2.83336,-0.14915 l 0,0 c 0.93176,1.59643 0.52946,0.84382 1.23077,2.24491 -0.64228,1.54329 -6.21683,0.047 -7.62009,0.65382 -6.52243,0.35519 -13.01757,1.04263 -19.47489,2.03781 -9.34636,1.39649 -18.7858,1.97035 -28.06464,3.8232 -9.31367,2.05036 -18.58228,4.31059 -27.92041,6.23629 -7.83407,1.46315 -15.73614,2.58097 -23.68218,3.20223 -6.0268,0.82761 -12.02726,2.16532 -18.15187,1.75998 -2.51913,-0.1049 -5.50397,0.0836 -7.078,-2.23962 -0.80328,-3.52128 0.87545,-6.93833 0.46176,-10.51484 -0.83302,-4.10242 -2.02286,-8.11067 -2.90851,-12.19461 -1.30453,-3.02527 -3.17582,-5.29294 -6.46227,-6.26166 4.66514,-0.89336 -4.63834,0.24044 -5.06675,0.58522 -3.48265,1.18353 -6.48945,3.09117 -9.55023,5.09851 -3.03811,2.52549 -5.62272,5.4681 -7.91753,8.68725 -3.14691,3.874 -6.72319,7.49701 -9.04772,11.95626 -0.47707,0.78258 -3.02769,6.4537 -3.35446,6.68314 -3.32327,2.33347 -3.19774,2.35223 -3.17806,0.90776 0.0321,-3.31946 0.0222,-6.63922 0.0439,-9.95876 0.004,-3.9053 0.0405,-7.81937 -0.29787,-11.71368 -0.41298,-3.78958 -1.00162,-7.75218 -3.51884,-10.777 -3.19274,-3.1444 -1.948,-3.54154 -5.56922,-1.11641 -3.88251,3.01103 -6.78446,6.89542 -9.73539,10.78392 -3.0726,4.07483 -5.97946,8.31202 -8.20265,12.91589 -0.88412,1.57031 -5.04328,10.68846 -7.75388,6.87455 -0.82756,-2.84569 -2.00228,-5.58803 -2.6061,-8.48397 -0.86939,-3.12719 -2.13846,-6.06098 -4.17317,-8.62818 -0.89648,-1.44114 -1.86341,-2.82258 -3.40654,-3.66424 -0.46018,-0.251 -1.44354,0.004 -1.48442,-0.51909 -0.0374,-0.4784 1.6711,-0.50951 1.43671,-0.0908 -0.24333,0.4347 -0.98944,0.11703 -1.48416,0.17555 -3.38209,1.8976 -6.1461,4.58435 -8.6027,7.57566 -2.92567,4.25948 -5.92153,8.47517 -8.33344,13.0635 -2.02165,3.91 -4.34487,7.67461 -5.61779,11.92027 -1.39144,4.32185 -6.12556,4.79726 -4.94442,-0.30675 0.0129,-3.95646 0.0464,-7.91558 -0.14354,-11.86885 -0.28766,-4.21175 -0.70922,-8.46889 -2.60543,-12.31204 -1.80807,-3.7487 -3.89758,-7.22246 -7.70148,-9.24526 -0.58964,-0.31772 -1.38537,-0.40405 -1.76892,-0.95315 -0.17388,-0.24894 1.09049,-0.32777 0.80397,-0.42831 -2.53595,-0.88989 -5.65241,1.01384 -7.6964,2.20101 -3.20867,2.18914 -6.56002,4.16079 -9.06403,7.22666 -2.9694,3.30736 -5.77907,6.74631 -8.48846,10.26997 -2.64137,2.99393 -4.81127,6.36217 -6.83023,9.79823 -1.85207,3.47448 -2.40261,6.40652 -7.38686,5.91411 -2.53915,-0.007 -5.07834,0.0182 -7.6173,0.0491 -4.84217,0.11504 -9.70662,0.25318 -14.49098,1.07244 -4.95721,0.98514 -9.84897,2.21191 -14.97032,1.73491 -1.78298,-0.003 -5.12653,-0.0224 -8.88561,0.0435 -4.74306,0.12183 -9.48994,0.35205 -14.18733,1.06312 -6.50301,1.05774 -12.93644,2.39368 -19.57849,2.06037 -8.697469,0.37496 -17.38381,0.95142 -25.994002,2.29838 -7.600222,0.83845 -15.283877,0.69673 -22.866651,1.80798 -8.877618,1.15037 -17.767357,1.58934 -26.721851,1.31312 0,0 2.790488,-0.44197 2.790488,-0.44197 z" />
    <path
       style="fill:#000000;fill-opacity:1;stroke:#000000;stroke-width:10;stroke-miterlimit:4;stroke-opacity:1;stroke-dasharray:none"
       id="path2824"
       d="m 484.61344,300.10369 c 0.88194,7.72583 2.17561,15.37332 3.47463,23.03734 1.0905,6.66452 1.36876,13.38553 2.62943,20.01959 1.34371,6.25317 1.69986,12.64294 1.95765,19.01479 0.2156,6.80398 -1.16389,13.54512 -1.88745,20.29554 -0.21797,5.81641 -0.87901,11.48816 -2.08926,17.17439 -0.84854,3.92069 -1.29881,7.89843 -1.48586,11.90013 -0.0695,2.02812 -0.1115,4.05779 -0.0917,6.08716 -3.15828,-1.12565 -2.84498,-0.007 -2.8341,-2.02709 0,0 2.84361,0.002 2.84361,0.002 l 0,0 c -0.0108,2.02575 0.31376,0.90276 -2.86142,2.0274 -0.006,-2.03449 0.0405,-4.06893 0.11166,-6.10207 0.18351,-4.01802 0.64305,-8.01005 1.49419,-11.94642 1.21392,-5.67674 1.88646,-11.33598 2.09958,-17.14511 0.72433,-6.73652 2.10253,-13.46369 1.88731,-20.25411 -0.25608,-6.35868 -0.61956,-12.73324 -1.96015,-18.97336 -1.25583,-6.6363 -1.52982,-13.35898 -2.61622,-20.02537 -1.29578,-7.66579 -2.58209,-15.31582 -3.50096,-23.03762 0,0 2.82906,-0.0467 2.82906,-0.0467 z" />
    <path
       style="fill:#000000;fill-opacity:1;stroke:#000000;stroke-width:10;stroke-miterlimit:4;stroke-opacity:1;stroke-dasharray:none"
       id="path2826"
       d="m 536.03981,297.59163 c 1.35369,8.51135 1.88895,17.00846 1.36635,25.6017 -0.84636,9.30447 -1.27582,18.63352 -1.52091,27.9706 -0.0612,9.13093 -1.46588,18.18414 -2.28171,27.2674 -0.48138,6.43492 -0.48537,12.83969 -1.57883,19.20697 -0.56259,5.01418 -1.64833,9.81398 -3.16001,14.60995 -0.92976,3.12915 -1.37178,6.36011 -1.65533,9.60245 -0.39996,3.40819 1.3511,4.02028 -2.93045,1.89159 0,0 2.83835,0.002 2.83835,0.002 l 0,0 c -4.15547,2.05111 -2.81198,1.56095 -2.75131,-1.91895 0.29725,-3.26175 0.73973,-6.51315 1.6701,-9.66354 1.50858,-4.78464 2.62363,-9.56457 3.1714,-14.57157 1.09708,-6.35931 1.10244,-12.75696 1.59138,-19.18421 0.82477,-9.07666 2.23512,-18.12416 2.29492,-27.24947 0.24615,-9.34008 0.66276,-18.67301 1.51585,-27.98022 0.51977,-8.57442 -0.005,-17.0565 -1.39446,-25.54466 0,0 2.82466,-0.0401 2.82466,-0.0401 z" />
    <path
       style="fill:#000000;fill-opacity:1;stroke:#000000;stroke-width:10;stroke-miterlimit:4;stroke-opacity:1;stroke-dasharray:none"
       id="path2828"
       d="m 543.45135,363.93431 c 7.72762,1.29406 15.5439,1.83008 23.36185,2.17944 9.92401,0.58829 19.78587,0.25068 29.67811,-0.46725 14.35565,-1.52057 28.52712,-4.28435 42.74106,-6.73085 14.74708,-2.47701 29.50861,-4.63052 44.42131,-5.78155 14.04835,-0.91562 28.13274,-0.97703 42.205,-1.03133 13.35723,-0.0226 26.71448,0.008 40.07171,0.0242 9.23185,0.0958 18.4599,-0.45213 27.62278,0.84769 3.38243,0.5383 6.76277,1.11336 10.1046,1.8684 -3.39761,-0.8747 -2.46526,-1.55762 -3.55264,-4.21615 0,0 2.82982,-0.10844 2.82982,-0.10844 l 0,0 c 1.19504,3.00974 1.74633,3.42496 -2.1001,4.70799 -3.32992,-0.74324 -6.69441,-1.32442 -10.06465,-1.85062 -9.15105,-1.26453 -18.36904,-0.70526 -27.58448,-0.8145 -11.53169,-0.0142 -23.06339,-0.0433 -34.59508,-0.0269 -14.0732,0.0514 -28.1583,0.10858 -42.20832,1.01047 -14.91387,1.1365 -29.6754,3.27864 -44.42254,5.75526 -14.21191,2.44105 -28.37752,5.21462 -42.72732,6.76003 -11.71795,0.86196 -23.4458,0.99143 -35.18602,0.47897 -7.83015,-0.35868 -15.65705,-0.91131 -23.39663,-2.20843 0,0 2.80154,-0.39641 2.80154,-0.39641 z" />
    <path
       style="fill:#000000;fill-opacity:1;stroke:#000000;stroke-width:10;stroke-miterlimit:4;stroke-opacity:1;stroke-dasharray:none"
       id="path2830"
       d="m -384.30165,569.04024 c -0.17658,9.19374 0.34114,18.40784 -0.35568,27.58144 -0.84767,7.21105 -1.69506,14.42248 -2.18344,21.6681 -0.20824,3.34655 -0.30566,6.69939 -0.32636,10.05209 -0.44889,0.41817 1.7292,0.90389 1.62638,0.8967 -0.64231,-0.045 -1.51894,0.27647 -1.91806,-0.22879 -0.28376,-0.35922 0.82119,-0.42156 1.17245,-0.71511 0.43634,-0.36464 0.77964,-0.82801 1.16947,-1.24201 0,0 2.82627,0.20993 2.82627,0.20993 l 0,0 c -1.8384,2.06273 -5.91723,4.16117 -7.72305,1.07675 0.039,-3.35822 0.13913,-6.7168 0.35448,-10.06865 0.4945,-7.24645 1.35509,-14.45834 2.20443,-21.67039 0.70752,-9.16519 0.19776,-18.37398 0.32784,-27.56006 0,0 2.82527,0 2.82527,0 z" />
    <path
       style="fill:#000000;fill-opacity:1;stroke:#000000;stroke-width:10;stroke-miterlimit:4;stroke-opacity:1;stroke-dasharray:none"
       id="path2832"
       d="m -294.93552,575.7593 c -7.08126,0.73401 -13.97884,2.47717 -20.93617,3.90886 -4.12008,0.74542 -8.08201,0.81667 -11.46174,3.48056 -2.40864,2.46455 -1.67394,5.06736 -0.96684,8.08292 0.75171,3.39271 0.92765,6.86835 1.06501,10.32891 0.46767,2.8729 -0.58586,6.12984 0.43937,8.87797 0.39156,0.51179 3.19476,2.66396 -0.63986,1.01317 -0.36471,-0.15701 0.78236,-0.14001 1.16743,-0.23687 0.85149,-0.21418 1.68619,-0.49065 2.5338,-0.71967 3.9006,-0.68457 7.78917,-0.99893 11.64794,-1.92197 4.78893,-1.61342 9.80766,-1.06938 14.69922,-0.23151 3.80148,1.03573 6.50397,3.35725 8.43693,6.7246 1.82458,3.40949 0.0541,6.77046 -1.87877,9.69806 -3.59977,4.60893 -8.5431,7.85174 -13.04234,11.50335 -6.00148,4.07813 -12.43517,7.46537 -19.00912,10.51485 -2.32074,1.25714 -4.75335,1.4035 -7.31424,1.46011 0,0 -2.79375,-0.43869 -2.79375,-0.43869 l 0,0 c 2.55923,-0.0113 4.98234,-0.0846 7.31015,-1.3412 6.57345,-3.02439 12.99214,-6.40732 19.00673,-10.44444 4.47452,-3.64376 9.39622,-6.86533 13.01697,-11.42076 1.91092,-2.8189 3.67222,-6.07697 1.87544,-9.38197 -1.94519,-3.29224 -4.6475,-5.53623 -8.41405,-6.47769 -3.89575,-0.65453 -4.23056,-1.26149 -9.09183,0.21133 -3.85572,0.93556 -7.72081,1.31026 -11.63531,1.91674 -2.64393,0.6957 -6.95465,2.67705 -8.71721,-0.33078 -0.94837,-2.82041 -0.009,-6.03671 -0.43091,-8.96353 -0.13336,-3.44294 -0.31469,-6.90119 -1.069,-10.27498 -0.72186,-3.11128 -1.43348,-5.82072 0.98004,-8.40123 3.39035,-2.77023 7.28917,-2.91762 11.49655,-3.61151 6.95705,-1.41687 13.84496,-3.1935 20.92401,-3.92105 0,0 2.80155,0.39642 2.80155,0.39642 z" />
    <path
       style="fill:#000000;fill-opacity:1;stroke:#000000;stroke-width:10;stroke-miterlimit:4;stroke-opacity:1;stroke-dasharray:none"
       id="path2834"
       d="m -220.64742,633.22189 c -6.75359,2.88152 -13.36838,3.39395 -20.57024,2.77251 -4.7226,-2.06857 -5.58287,-7.09373 -5.45203,-11.76242 0.2319,-6.54701 3.93666,-11.26781 8.24447,-15.79904 5.6226,-4.54351 11.89073,-8.02638 19.09248,-8.99552 7.60875,-0.79711 13.99978,1.28362 19.86889,5.90756 3.83022,3.55413 5.76463,7.43711 5.47473,12.63817 -0.97976,4.25871 -2.84491,7.93159 -6.69308,10.13529 -3.0802,1.4669 -6.63445,0.98345 -9.39296,-0.9621 0,0 2.81698,-0.27451 2.81698,-0.27451 l 0,0 c 0.55337,0.36584 1.48623,0.45734 1.66009,1.09752 0.11574,0.42615 -1.54761,0.20263 -1.22506,0.50424 0.63501,0.59377 2.84651,-0.47942 3.32512,-0.66615 3.85875,-2.0654 5.68588,-5.66595 6.67968,-9.85039 0.29741,-5.10988 -1.6698,-8.90833 -5.45286,-12.36653 -3.58967,-2.77856 -6.33714,-3.57247 -10.37027,-5.35505 -0.17865,-0.0789 -0.17626,-0.43387 -0.37055,-0.45391 -1.17373,-0.1211 -2.35968,0.0337 -3.53952,0.0505 -7.19594,0.85508 -13.42689,4.33498 -19.06885,8.80491 -4.27739,4.47222 -8.00101,9.10104 -8.22697,15.59294 -0.12851,4.56342 0.71859,9.48004 5.42656,11.36159 -1.32517,1.48517 5.53823,0.0188 5.54628,0.0173 3.21631,-0.59436 6.31491,-1.76403 9.42079,-2.74932 0,0 2.80632,0.35236 2.80632,0.35236 z" />
    <path
       style="fill:#000000;fill-opacity:1;stroke:#000000;stroke-width:10;stroke-miterlimit:4;stroke-opacity:1;stroke-dasharray:none"
       id="path2836"
       d="m -60.997101,126.86888 c -6.391191,0.02 -12.752485,-0.36178 -19.061144,0.78775 -3.755366,1.10858 -6.583304,3.6475 -7.760719,7.40176 -0.506748,4.05011 -0.04411,8.05452 1.155537,11.92864 1.041409,2.11208 0.536809,7.8493 3.7962,7.73036 -0.490714,-0.0846 -1.6389,0.21555 -1.472142,-0.25364 0.195775,-0.55084 1.138661,-0.26551 1.70631,-0.40521 2.642636,-0.65039 5.119031,-1.80867 7.698727,-2.67355 4.364853,-1.36946 8.897539,-1.7724 13.43786,-2.00871 2.849237,-0.0701 5.731331,-0.29864 8.56122,0.24507 1.520192,0.29207 3.414532,1.91524 4.715274,2.72846 2.014699,1.77606 3.845443,4.05907 2.980324,6.83949 -1.897243,2.99123 -5.005666,4.79834 -7.854556,6.76286 -4.147311,2.74703 -8.648643,4.46521 -13.453444,5.62923 -4.842042,1.9175 -9.370021,2.79652 -14.603283,2.07109 -1.533095,-0.46209 -2.616941,-1.23026 -3.712896,-2.34936 0,0 2.829133,-0.22463 2.829133,-0.22463 l 0,0 c 1.100675,1.04691 2.183674,1.78453 3.692357,2.16636 0.594978,0.0724 5.341021,-0.2516 8.994276,-2.03986 4.799487,-1.13272 9.290989,-2.80002 13.438985,-5.52607 2.813972,-1.93572 5.855571,-3.70606 7.825545,-6.57947 0.90508,-2.63124 -1.049557,-4.83208 -2.956056,-6.46285 -0.456926,-0.28367 -4.646493,-2.52827 -4.700612,-2.62166 -0.170823,-0.29478 1.300813,-0.20155 0.97586,-0.30392 -1.251715,-0.39431 -2.69359,0.51696 -3.935949,0.0937 -4.534123,0.22217 -9.062834,0.59297 -13.429828,1.93272 -4.499325,1.47915 -8.641439,3.68237 -13.549339,3.40472 -3.292571,-0.58525 -2.691231,-5.6437 -3.812921,-8.07068 -1.201077,-3.93248 -1.662396,-7.99085 -1.15941,-12.09743 1.151972,-3.83537 3.992142,-6.50357 7.798031,-7.70781 6.310247,-1.1886 12.665378,-0.83705 19.066173,-0.83931 0,0 2.790487,0.44197 2.790487,0.44197 z" />
    <path
       style="fill:#000000;fill-opacity:1;stroke:#000000;stroke-width:10;stroke-miterlimit:4;stroke-opacity:1;stroke-dasharray:none"
       id="path2838"
       d="m 11.128076,165.28434 c -5.207672,3.85946 -10.69329632,7.35349 -17.1488091,8.50482 -6.9698589,0.45167 -10.5728119,-0.0151 -10.9940469,-7.26193 0.921834,-6.52012 5.217154,-11.86898 9.9617379,-16.15719 6.16592195,-4.99898 13.5196561,-8.30972 21.0735341,-10.59937 6.431654,-1.09929 12.863379,-0.65221 16.645867,5.01577 2.628053,5.53231 1.988567,11.51101 0.634619,17.28208 -2.281863,7.59932 -7.842518,12.71946 -14.378629,16.78822 -3.719129,2.28235 -7.7018907,3.67115 -11.8834317,4.7721 0,0 -2.7785167,-0.36843 -2.7785167,-0.36843 l 0,0 c 4.1836908,-1.05737 8.1542894,-2.41945 11.8727194,-4.68856 6.513869,-3.98475 12.065345,-9.03996 14.355983,-16.56841 1.347085,-5.6913 1.994325,-11.6044 -0.644952,-17.04846 -2.659017,-3.84742 -6.6424,-5.67731 -11.037124,-4.82587 -7.5460087,2.24108 -14.8909857,5.52297 -21.0632829,10.47644 -4.7161689,4.19076 -8.9854581,9.48113 -9.9313061,15.9049 0.130929,2.15499 0.128058,4.03101 1.925888,5.53625 0.491395,0.41142 1.296476,0.44119 1.66103,0.9683 0.154738,0.22373 -0.956682,0.37831 -0.690589,0.43484 0.80773,0.17158 1.6510927,-0.037 2.4766392,-0.0555 6.4599085,-1.02746 11.9313543,-4.53049 17.126026,-8.36311 0,0 2.8166438,0.25306 2.8166438,0.25306 z" />
  </g>
</svg>
