<?xml version="1.0" encoding="UTF-8" standalone="no"?>
<!-- Created with Inkscape (http://www.inkscape.org/) -->

<svg
   xmlns:dc="http://purl.org/dc/elements/1.1/"
   xmlns:cc="http://creativecommons.org/ns#"
   xmlns:rdf="http://www.w3.org/1999/02/22-rdf-syntax-ns#"
   xmlns:svg="http://www.w3.org/2000/svg"
   xmlns="http://www.w3.org/2000/svg"
   xmlns:sodipodi="http://sodipodi.sourceforge.net/DTD/sodipodi-0.dtd"
   xmlns:inkscape="http://www.inkscape.org/namespaces/inkscape"
   width="1407.4856"
   height="848.3114"
   id="svg2861"
   version="1.1"
   inkscape:version="0.47pre4 r22446"
   sodipodi:docname="New document 3">
  <defs
     id="defs2863">
    <inkscape:perspective
       sodipodi:type="inkscape:persp3d"
       inkscape:vp_x="0 : 526.18109 : 1"
       inkscape:vp_y="0 : 1000 : 0"
       inkscape:vp_z="744.09448 : 526.18109 : 1"
       inkscape:persp3d-origin="372.04724 : 350.78739 : 1"
       id="perspective2869" />
  </defs>
  <sodipodi:namedview
     id="base"
     pagecolor="#ffffff"
     bordercolor="#666666"
     borderopacity="1.0"
     inkscape:pageopacity="0.0"
     inkscape:pageshadow="2"
     inkscape:zoom="0.35"
     inkscape:cx="515.35628"
     inkscape:cy="373.88794"
     inkscape:document-units="px"
     inkscape:current-layer="layer1"
     showgrid="false"
     inkscape:window-width="1280"
     inkscape:window-height="726"
     inkscape:window-x="0"
     inkscape:window-y="25"
     inkscape:window-maximized="1" />
  <metadata
     id="metadata2866">
    <rdf:RDF>
      <cc:Work
         rdf:about="">
        <dc:format>image/svg+xml</dc:format>
        <dc:type
           rdf:resource="http://purl.org/dc/dcmitype/StillImage" />
        <dc:title></dc:title>
      </cc:Work>
    </rdf:RDF>
  </metadata>
  <g
     inkscape:label="Layer 1"
     inkscape:groupmode="layer"
     id="layer1"
     transform="translate(140.35628,-57.938695)">
    <path
       style="fill:#000000;fill-opacity:1;stroke:#000000;stroke-width:10;stroke-miterlimit:4;stroke-opacity:1;stroke-dasharray:none"
       id="path2871"
       d="m 10.781147,607.5076 c -9.7413491,3.19752 -19.5974873,3.81937 -29.741999,3.2631 -10.573879,-0.65496 -18.952084,-5.25986 -26.315027,-12.58549 -9.713223,-10.79994 -10.758752,-20.58212 -9.837432,-34.57265 2.876536,-19.65549 15.483824,-35.15721 28.188128,-49.62125 14.457329,-14.08342 30.6896566,-27.559 49.423103,-35.63653 4.518208,-1.94817 9.26519,-3.3158 13.897786,-4.9737 23.07779,-6.25345 47.491734,-9.17221 71.199284,-4.64917 3.43444,0.65523 6.779,1.71582 10.1685,2.57374 12.35468,4.16925 23.41934,11.94231 28.18359,24.54465 0.72094,1.90702 1.04618,3.94099 1.56927,5.91149 1.99868,14.48095 -4.32869,26.4632 -12.82815,37.60729 -12.50838,14.26048 -28.24952,24.85684 -44.797263,33.83233 -18.677342,9.40993 -38.575209,15.49405 -59.081194,19.23798 -3.115518,0.29908 -6.231036,0.59817 -9.346554,0.89725 0,0 -2.702338,-0.40189 -2.702338,-0.40189 l 0,0 c 3.11601,-0.29116 6.23202,-0.58233 9.34803,-0.8735 20.504183,-3.70904 40.398064,-9.76413 59.078231,-19.15148 16.530428,-8.93713 32.244528,-19.50485 44.751318,-33.72037 8.46709,-11.05986 14.80005,-22.95809 12.80283,-37.35542 -0.52083,-1.95219 -0.84467,-3.96791 -1.56248,-5.85658 -4.76219,-12.53009 -15.81686,-20.19674 -28.10909,-24.31301 -3.38286,-0.84858 -6.7215,-1.89852 -10.1486,-2.54574 -22.030227,-4.16053 -44.448821,-1.34616 -65.884617,4.58829 -4.620448,1.64679 -9.354642,3.00386 -13.861346,4.94037 -18.7220319,8.04478 -34.9516027,21.48071 -49.401974,35.53887 -12.666301,14.40977 -25.256166,29.85548 -28.127047,49.44443 -0.907424,13.92739 0.15063,23.61784 9.857704,34.3344 7.377146,7.26383 15.760902,11.76802 26.294476,12.39228 8.0572199,1.47344 16.38155862,-1.43294 24.1765481,-3.20204 0,0 2.8063129,0.35235 2.8063129,0.35235 z" />
    <path
       style="fill:#000000;fill-opacity:1;stroke:#000000;stroke-width:10;stroke-miterlimit:4;stroke-opacity:1;stroke-dasharray:none"
       id="path2873"
       d="m 69.984064,494.75453 c -0.01827,7.86524 -0.01554,15.73053 -0.0065,23.59578 0,0 -2.812219,0 -2.812219,0 l 0,0 c 0.009,-7.86525 0.01174,-15.73054 -0.0065,-23.59578 0,0 2.825271,0 2.825271,0 z" />
    <path
       style="fill:#000000;fill-opacity:1;stroke:#000000;stroke-width:10;stroke-miterlimit:4;stroke-opacity:1;stroke-dasharray:none"
       id="path2875"
       d="m 52.422837,514.67642 c 10.759245,-2.28854 21.677869,-3.65908 32.541795,-5.34168 6.886679,-0.89353 13.744089,-1.81462 20.563968,-3.13201 0,0 2.7724,0.3849 2.7724,0.3849 l 0,0 c -6.8278,1.32545 -13.690266,2.26182 -20.588655,3.13915 -10.848661,1.67825 -21.756851,3.03084 -32.49335,5.35192 0,0 -2.796158,-0.40228 -2.796158,-0.40228 z" />
    <path
       style="fill:#000000;fill-opacity:1;stroke:#000000;stroke-width:10;stroke-miterlimit:4;stroke-opacity:1;stroke-dasharray:none"
       id="path2877"
       d="m 6.6447312,566.42691 c 8.3313288,0.29998 16.5782358,-0.97898 24.8678658,-1.70637 6.217759,-0.91201 3.107572,-0.43798 9.330521,-1.42235 0,0 2.766237,0.39367 2.766237,0.39367 l 0,0 c -6.225331,0.98842 -3.113451,0.50802 -9.335616,1.44135 -10.122697,0.88194 -20.233868,2.13294 -30.4194955,1.73567 0,0 2.7904877,-0.44197 2.7904877,-0.44197 z" />
    <path
       style="fill:#000000;fill-opacity:1;stroke:#000000;stroke-width:10;stroke-miterlimit:4;stroke-opacity:1;stroke-dasharray:none"
       id="path2879"
       d="m 81.446784,475.34236 c 0.617693,-10.93676 2.802111,-21.67506 4.896528,-32.39893 2.8385,-12.57315 5.759039,-25.12782 8.365458,-37.75176 2.268642,-13.30851 3.667227,-26.77019 5.035264,-40.20139 1.129566,-11.66757 1.492896,-23.38646 1.674746,-35.10083 0.61106,-8.38261 -0.60183,-16.64176 -1.664131,-24.92309 -0.669424,-4.61186 -0.973033,-9.26204 -1.13134,-13.91578 -0.280224,-2.667 0.108053,-3.98248 2.831271,-4.49873 7.00502,-0.39842 14.03786,-0.20895 21.05304,-0.18461 10.32541,0.33106 20.58314,-0.981 30.87851,-1.6537 14.69204,-1.51116 29.40906,-2.66966 44.09447,-4.23829 12.51909,-1.38785 25.09345,-2.09185 37.67909,-2.45513 8.53851,-0.21645 17.08024,-0.19844 25.62072,-0.1944 3.6096,0.006 7.2192,0.0148 10.8288,0.0242 -0.63249,-0.17767 1.22631,0.11555 0.93563,0.003 -3.14246,-1.22155 -1.37423,-0.16922 -0.23254,-4.07114 1.55037,-4.44877 3.73297,-8.62852 5.49132,-12.99097 2.80782,-6.14452 5.0573,-12.53773 7.84933,-18.68164 2.82019,-5.91582 1.84604,-7.68981 8.61106,-6.2794 1.75941,5.02066 1.36862,10.64935 1.43499,15.90615 0.87547,8.67939 1.83735,17.33996 2.34814,26.05111 -0.0803,7.38318 1.0989,14.63472 2.23916,21.90031 0.7023,1.107 0.11234,7.72485 1.44296,7.92067 -0.67564,-0.3737 -1.66862,-0.43717 -2.02693,-1.1211 -0.26218,-0.50044 0.46278,-1.0357 0.61144,-1.58075 1.08938,-3.99415 1.72547,-8.15531 2.71101,-12.1817 2.4697,-9.99705 6.10414,-19.5545 9.94092,-29.08474 3.01971,-7.53687 6.61641,-14.8267 10.5854,-21.90069 1.86215,-4.48926 5.8156,-7.07219 6.49779,0.0101 0.19433,7.3819 0.0449,14.76992 1e-4,22.15355 -0.06,10.8894 -0.0756,21.77899 -0.0806,32.66854 0.35256,8.3557 -0.61162,16.81113 0.3522,25.13058 0.27335,1.38872 0.51905,2.90064 0.95939,4.26053 0.16549,0.51106 1.30497,1.53656 0.78331,1.40837 -3.00482,-0.73843 -2.58403,-0.29087 -2.24469,-2.41889 0.12989,-6.43094 1.5653,-12.70763 2.80355,-18.99197 2.59112,-11.0106 5.86261,-21.84814 9.77626,-32.45907 3.15759,-9.1553 6.86005,-18.09477 10.43162,-27.08894 0.449,-1.02883 3.86246,-8.9953 4.834,-8.78895 1.14502,0.2432 2.22176,0.738 3.33263,1.107 0.86234,5.85399 1.69297,11.73001 2.24358,17.63456 0.74349,11.31561 -0.48111,22.66718 -1.08615,33.97141 -0.38779,7.86216 -0.61082,15.73142 -0.72101,23.60206 0.25177,0.82722 -0.55693,2.69671 0.31579,3.38693 0.12102,0.0957 0.59341,0.0533 0.46205,-0.0276 -2.05187,-1.26421 -2.47543,-0.0936 -0.41708,-2.02739 3.24481,-3.77935 7.22328,-6.59477 11.51367,-9.05312 8.52523,-3.9021 17.52627,-6.62251 26.50182,-9.27371 13.34981,-4.05348 27.08209,-6.5034 40.79156,-8.95159 13.04643,-2.46643 26.28363,-3.50785 39.52714,-4.12424 8.24495,-0.34696 16.49782,-0.35225 24.74824,-0.34722 1.81164,-0.006 3.62302,0.0307 5.43452,0.0418 3.21522,0.0299 6.36542,1.2663 9.46517,2.10896 8.66493,2.37926 17.67665,2.84332 26.60492,3.26421 11.55154,0.407 23.11264,0.3808 34.66966,0.388 12.1281,-0.008 24.25619,-0.0193 36.38429,-0.0261 12.41926,0.46724 24.77113,-0.8191 37.13693,-1.71978 9.73924,-0.72599 19.50317,-0.97398 29.26552,-1.10817 6.5695,-0.61148 13.07485,-1.71095 19.63947,-2.38189 5.06546,-0.34196 10.27076,-1.00991 15.24534,0.31846 2.89036,1.01053 5.88681,1.5686 8.92782,1.8406 0.45447,0.0298 1.27488,0.53608 1.36342,0.0893 0.0878,-0.44298 -1.34099,0.1853 -1.32838,-0.26611 0.0143,-0.51363 0.93497,-0.43847 1.35626,-0.73263 1.63519,-1.14177 2.98045,-2.75556 4.32894,-4.2013 3.97031,-4.33933 7.27344,-9.24988 10.55914,-14.11592 3.53908,-5.40778 7.15892,-10.72929 10.11311,-16.48573 1.10644,-2.15104 1.19067,-4.67417 4.48728,-1.4812 0.0933,0.0904 0.13359,3.19341 0.14572,3.79107 -0.37516,7.54669 0.48231,15.01624 1.19618,22.51391 0.6014,10.92124 2.09777,21.75492 3.14824,32.63674 1.54376,8.32143 2.05345,16.863 3.90622,25.12118 -0.77499,-0.15567 2.0432,4.53559 1.86178,4.39238 -0.54397,-0.42939 -1.45877,-0.64935 -1.59976,-1.32788 -0.13704,-0.65953 0.6693,-1.17102 0.95363,-1.78169 0.38331,-0.82322 0.69801,-1.67669 1.04701,-2.51503 3.37042,-10.25044 6.3133,-20.62366 9.96429,-30.79013 4.30833,-11.72371 9.43825,-23.09172 16.02239,-33.70994 4.18644,-4.96529 6.51427,-11.95908 12.21769,-15.48053 6.87792,-0.75292 6.4986,6.13185 7.18576,11.11384 1.032,10.58906 1.02085,21.2477 1.10283,31.87695 -0.30472,9.20239 0.10822,18.29441 1.31985,27.40951 0.3839,2.12153 0.36813,4.89386 1.85923,6.67785 0.16057,0.19211 0.84408,0.51536 0.67391,0.3317 -2.16777,-2.3397 -2.31495,-0.40591 -0.3578,-3.69375 3.94086,-11.58908 7.90421,-23.10089 12.63213,-34.40307 6.57165,-13.95647 13.86132,-27.57834 22.48024,-40.37935 1.49263,-1.96814 7.90345,-11.3081 10.7066,-11.60743 1.23209,-0.13157 2.47585,0.10761 3.71377,0.16142 3.84305,4.90492 3.37206,12.59453 3.71887,18.52863 0.4458,11.7291 0.41672,23.46979 0.4303,35.20546 0.004,7.11531 -0.006,14.23061 -0.006,21.34592 0.28617,0.68534 -0.004,5.08807 -2.15711,0.94094 -0.24576,-0.47333 3.27213,-3.48683 3.5763,-3.79712 5.41683,-5.16003 12.48832,-7.5551 19.50795,-9.63384 10.23487,-3.57283 20.90148,-5.28266 31.65136,-6.29215 9.61965,-1.37486 19.2534,-2.51455 28.95512,-3.08396 8.71043,-0.43116 17.43372,-0.46431 26.15275,-0.48695 8.96297,-0.27833 17.81529,1.27344 26.70967,2.10065 8.04,0.64447 16.1097,0.71546 24.1706,0.77865 7.3867,-1.14204 14.8705,-1.8129 22.3328,-2.31394 6.7199,-0.0445 13.291,-0.57665 19.885,-1.81945 4.3013,-0.7646 8.8272,-2.03759 13.133,-0.63868 3.3349,2.66313 2.9403,7.80903 3.1162,11.66327 0.1788,10.49664 0.3427,21.00189 -0.2271,31.48671 -0.9032,15.00944 -1.9314,29.98987 -3.879,44.90406 -1.8848,16.34595 -4.1259,32.63701 -6.5439,48.91124 -2.8875,15.55924 -4.5985,31.29184 -6.5466,46.98598 -1.4471,13.28724 -3.3723,26.51931 -5.4863,39.71527 -2.5433,12.22412 -4.9271,24.46896 -7.2087,36.7436 -2.3941,13.68339 -4.0862,27.47451 -6.0803,41.21849 -2.1612,16.28744 -4.1273,32.59373 -5.3832,48.97828 -2.1438,18.20109 -2.7862,36.51826 -4.1341,54.77994 -1.3778,15.25573 -2.2543,30.54553 -2.726,45.85414 -0.2714,9.9996 -0.2976,20.00338 -0.2998,30.00594 0.475,6.96868 1.6706,13.83012 3.1807,20.63486 1.08,6.59453 3.48,12.83242 5.7624,19.0769 1.8078,4.90961 3.4835,9.78904 4.5269,14.92521 0.6386,4.25825 2.118,8.30529 2.9603,12.5291 0.505,3.40115 1.2926,6.76857 -0.388,9.91033 -3.5015,4.71554 -10.4552,3.65165 -15.5436,3.5447 -12.6328,-1.26957 -25.3189,-1.69577 -38.0044,-2.00245 -23.36529,-0.82041 -46.7087,0.14127 -70.05831,0.90008 -34.12381,0.70034 -68.21957,2.24115 -102.33645,3.19298 -40.80589,1.55933 -81.59489,3.55473 -122.37851,5.61375 -45.62912,2.08711 -91.21306,5.16873 -136.74376,8.80105 -45.57231,3.35937 -91.12639,6.93164 -136.68353,10.48572 -41.25575,3.52912 -82.58242,6.15337 -123.81878,9.90501 -35.0086,2.97292 -70.0411,5.6586 -105.06153,8.49297 -28.0254,2.27002 -56.13479,3.06903 -84.23882,3.50913 -20.85276,0.24877 -41.707457,0.22529 -62.561305,0.20558 -11.814861,-0.0153 -23.629721,-0.0304 -35.44459,-0.038 -4.973197,-0.30138 -10.650102,1.10846 -15.0870412,-1.71525 -2.8407317,-3.71133 -2.3275915,-8.82475 -2.4045501,-13.25164 -0.026053,-8.00753 0.046831,-16.01505 0.081306,-24.0225 0.037671,-9.9732 0.041129,-19.94649 0.046669,-29.91974 0.00478,-10.47314 0.00108,-20.94627 0.00196,-31.4194 C 7.0493004,789.77346 7.5056405,778.7051 6.8389649,767.665 5.7973159,756.53856 5.061792,745.39236 4.6421376,734.22594 4.3439851,725.31222 4.3116345,716.39272 4.2937893,707.47495 c -0.00693,-6.73726 0.00133,-13.47453 0.00577,-20.21178 0.00236,-5.07474 0.00398,-10.14948 -9.67e-5,-15.22421 0.0017,-3.7591 -0.00272,-7.5182 -0.00232,-11.2773 0.00133,-3.63448 1.423e-4,-7.26895 8.247e-4,-10.90343 4.078e-4,-3.52165 7.018e-4,-7.0433 -0.00212,-10.56494 0.6931051,-2.97576 1.7495196,-5.82869 2.3387804,-8.8355 0.8770995,-3.6151 0.01142,-6.9586 -0.7590126,-10.48234 -0.3301641,-3.33093 0.5067668,-6.6148 1.0802556,-9.87078 0,0 2.8041216,0.0486 2.8041216,0.0486 l 0,0 c -0.5612902,3.21971 -1.3892798,6.46886 -1.0566924,9.76104 0.7839063,3.55933 1.6415881,6.94586 0.7693191,10.59836 -0.5861262,2.98982 -1.6100402,5.83206 -2.3399016,8.78057 -0.00282,3.52164 -0.00253,7.04329 -0.0021,10.56494 7.053e-4,3.63448 -4.403e-4,7.26895 9.923e-4,10.90343 5.052e-4,3.75911 -0.00372,7.51822 -0.0027,11.27734 -0.00542,5.0748 -0.00652,10.14961 -0.012348,15.22441 -0.00727,6.73702 -0.020982,13.47403 -0.019726,20.21105 0.01324,8.9144 0.042236,17.83048 0.3324792,26.74106 0.4160769,11.16446 1.1462547,22.30856 2.1911572,33.43271 0.6662929,11.04574 0.2140452,22.11959 0.3452212,33.18097 0.00146,10.47317 -7.377e-4,20.94634 -0.00112,31.41951 -0.00212,9.97359 -0.00919,19.94717 -0.037719,29.92072 -0.027758,8.00542 -0.1010556,16.01095 -0.06335,24.01639 0.07896,4.30584 -0.4666026,9.41781 2.4107527,12.96686 4.500444,2.61746 10.073785,1.25921 15.029608,1.56754 11.798195,0.011 23.59638,0.0282 35.394566,0.046 19.06234,0.0199 38.125329,0.0363 57.186669,-0.19325 28.11947,-0.4315 56.24456,-1.22088 84.28588,-3.48431 35.0355,-2.82934 70.08238,-5.51856 105.1063,-8.4836 41.24798,-3.75525 82.5869,-6.37408 123.85458,-9.90303 45.5624,-3.54955 91.12096,-7.12761 136.69849,-10.48299 45.52358,-3.63644 91.10069,-6.72107 136.72284,-8.81177 40.77073,-2.06407 81.54726,-4.05555 122.34007,-5.62561 34.09842,-0.95075 68.17531,-2.49814 102.28057,-3.20041 25.12856,-0.8202 50.2585,-1.71324 75.40287,-0.91441 12.7071,0.30874 25.4117,0.75487 38.0682,1.99669 3.4545,0.5737 7.7584,-0.37716 9.9369,-3.25897 1.7249,-3.0385 0.8566,-6.39309 0.3888,-9.71203 -0.8387,-4.223 -2.3251,-8.26886 -2.9543,-12.52822 -1.0358,-5.12323 -2.7278,-9.98337 -4.5191,-14.88323 -2.2736,-6.25949 -4.6732,-12.50851 -5.7561,-19.11385 -1.5211,-6.82308 -2.7015,-13.70785 -3.1708,-20.69657 0.01,-10.00549 0.046,-20.01221 0.3319,-30.01439 0.4832,-15.31265 1.3734,-30.60628 2.7584,-45.8657 1.3516,-18.26152 1.9938,-36.57898 4.1319,-54.78067 1.2529,-16.39011 3.205,-32.70354 5.361,-48.99711 1.9912,-13.74775 3.6833,-27.54209 6.0723,-41.22956 2.2748,-12.27326 4.6536,-24.51652 7.2023,-36.73692 2.1184,-13.19273 4.0541,-26.42091 5.5059,-39.70517 1.9486,-15.69654 3.6702,-31.43023 6.5535,-46.99251 2.4197,-16.27232 4.6657,-32.5608 6.541,-48.90638 1.9441,-14.90735 2.9737,-29.88003 3.8603,-44.88332 0.5641,-10.47562 0.3817,-20.97177 0.1843,-31.4585 -0.1794,-3.69659 0.2562,-8.89331 -3.1199,-11.31642 -0.414,-0.12097 -1.3456,0.0558 -1.242,-0.36292 0.1119,-0.45248 1.8357,-0.0959 1.383,-0.20681 -2.331,-0.57098 -5.3191,1.39746 -7.6627,1.23763 -6.6042,1.24756 -13.1727,1.8477 -19.9086,1.85016 -9.3111,0.61231 -18.5449,1.99891 -27.8716,2.33005 -8.0639,-0.0665 -16.1367,-0.14207 -24.1787,-0.80162 -7.06532,-0.66621 -14.09917,-1.94083 -21.16505,-2.07602 -8.72114,0.0201 -17.44643,0.0494 -26.15941,0.47018 -9.70341,0.55705 -19.34123,1.67496 -28.95901,3.07361 -10.74579,0.98743 -21.41673,2.66001 -31.64513,6.23848 -6.98472,2.04486 -14.03477,4.39784 -19.44872,9.49527 -1.25641,1.29865 -7.7099,8.74003 -7.07346,2.63715 0.0304,-7.115 0.0495,-14.23006 0.0554,-21.34513 -0.003,-11.73023 0.0242,-23.46613 -0.44194,-35.18914 -0.34085,-5.68931 0.21702,-13.61617 -3.74458,-18.16159 0.64212,-0.0785 1.3693,-0.56431 1.92637,-0.23543 0.40637,0.23991 -0.88799,0.34733 -1.27181,0.62187 -3.90369,2.79221 -6.67939,7.0697 -9.48452,10.84077 -8.64284,12.77266 -15.94407,26.37596 -22.51202,40.32312 -4.72303,11.30924 -8.67601,22.82826 -12.55376,34.44471 -5.03078,8.62817 -7.35728,2.01735 -7.80202,-3.42902 -1.20114,-9.12768 -1.59529,-18.23158 -1.29365,-27.44433 -0.0797,-10.61735 -0.0691,-21.26492 -1.12678,-31.84016 -0.36291,-2.57112 -0.50594,-4.28037 -1.18921,-6.73283 -0.20345,-0.73027 -0.45446,-1.45049 -0.76859,-2.14042 -0.21165,-0.46484 -1.09481,-0.88876 -0.80077,-1.3064 0.42802,-0.60793 1.49983,-0.23896 2.14677,-0.60537 0.27505,-0.15579 -0.63022,-0.0501 -0.94533,-0.0751 -5.79667,3.33298 -8.05895,10.44939 -12.25859,15.34276 -6.60123,10.5908 -11.73474,21.93915 -16.03549,33.65056 -3.65053,10.16692 -6.59125,20.53853 -9.91397,30.80499 -0.60914,1.48982 -0.63611,3.53364 -1.99411,4.39761 -4.91498,3.12698 -4.80257,0.44645 -5.90278,-3.21404 -1.82835,-8.27384 -2.33583,-16.82309 -3.87577,-25.15616 -1.04267,-10.88283 -2.5458,-21.71583 -3.15517,-32.6368 -0.72249,-7.50423 -1.58831,-14.98001 -1.23362,-22.53448 -0.0156,-0.687 -0.0182,-1.37442 -0.0468,-2.061 -0.0235,-0.56408 -0.48247,-1.26668 -0.10914,-1.69019 4.13348,-4.68922 2.06485,1.02562 1.17808,1.56959 -2.97096,5.76179 -6.59212,11.09473 -10.13014,16.51832 -3.28917,4.87518 -6.58781,9.7996 -10.54747,14.16051 -3.38248,3.65502 -5.76163,6.33417 -11.34678,5.31674 -3.04243,-0.29996 -6.03119,-0.89433 -8.93006,-1.88649 -0.58212,-0.14821 -1.3328,-0.009 -1.74637,-0.44462 -0.24978,-0.26312 1.40155,-0.20414 1.04905,-0.28995 -2.7984,-0.68123 -6.12048,0.76447 -8.94784,0.45776 -6.5752,0.65983 -13.09035,1.74109 -19.66377,2.40306 -9.76877,0.12835 -19.53933,0.36853 -29.2854,1.08844 -12.37073,0.89601 -24.72607,2.2089 -37.15024,1.73792 -13.95291,0.008 -27.90582,0.0247 -41.85873,0.027 -11.56166,-0.008 -23.12758,0.0187 -34.68348,-0.39907 -8.94437,-0.43132 -17.96816,-0.91879 -26.64458,-3.31978 -3.1062,-0.83426 -6.25024,-2.06432 -9.48646,-2.03258 -1.80361,-0.0173 -3.60714,-0.0455 -5.41091,-0.0437 1.17425,-0.0109 2.15829,-0.0188 -2.40333,5e-5 -5.60257,0.0232 -11.20537,0.11037 -16.80407,0.328 -13.24827,0.60255 -26.49195,1.62482 -39.54404,4.08511 -13.69868,2.45018 -27.42657,4.87043 -40.7664,8.92431 -8.96045,2.63492 -17.93119,5.37206 -26.46017,9.21326 -4.28214,2.4335 -8.27254,5.20413 -11.48964,8.98672 -3.5946,3.46419 -6.70372,3.477 -6.01129,-1.56574 0.14366,-7.87396 0.37665,-15.74651 0.76586,-23.61249 0.6137,-11.28927 1.83474,-22.62999 1.06954,-33.93016 -0.55759,-5.86941 -1.38234,-11.71552 -2.28379,-17.52884 0.77799,-0.29536 1.57262,-0.55014 2.33396,-0.88608 0.17172,-0.0758 -0.41334,-0.0236 -0.55399,0.10066 -0.32761,0.28946 -0.54426,0.68789 -0.76535,1.06504 -1.3775,2.34984 -2.3541,4.93095 -3.53378,7.37675 -3.58439,8.99066 -7.31189,17.9215 -10.46532,27.08065 -3.91047,10.59527 -7.17636,21.41792 -9.75571,32.41514 -1.22792,6.281 -2.65409,12.5546 -2.76205,18.98138 -1.45094,9.64205 -6.4021,-2.83232 -5.15148,-3.26152 -0.94109,-8.33263 0.0286,-16.79548 -0.32095,-25.1629 0.0132,-10.88996 0.0213,-21.77997 0.0736,-32.66984 0.0369,-7.37374 0.17779,-14.75274 -0.0403,-22.12409 -0.22316,-2.19876 -1.56981,-3.62916 1.77649,-3.77308 1.59843,-0.0687 -4.44591,2.91415 -2.6259,3.87935 -3.97452,7.06272 -7.60903,14.32593 -10.61454,21.86321 -3.83742,9.51537 -7.47553,19.05581 -9.92399,29.04507 -0.31544,1.29674 -2.57189,13.36912 -3.29285,13.86368 -1.05954,0.72682 -2.42644,0.84614 -3.63967,1.26921 -1.41473,-1.17066 -0.559,-6.43968 -1.42777,-8.19357 -1.12425,-7.27614 -2.30376,-14.53608 -2.21847,-21.92743 -0.51415,-8.71536 -1.47502,-17.38031 -2.35455,-26.06374 -0.0747,-5.16293 0.34671,-10.77076 -1.46572,-15.67549 0.71092,-0.18145 1.46115,-0.24896 2.13277,-0.54436 0.62031,-0.27284 -1.4078,0.26543 -1.89484,0.73661 -1.68777,1.63278 -2.12505,3.95931 -3.19934,5.97341 -2.81573,6.12785 -5.03826,12.53081 -7.85103,18.6682 -1.73722,4.35899 -3.91655,8.52718 -5.46673,12.9637 -0.97774,3.41041 -2.2802,4.78979 -6.35169,4.43293 -3.5996,-0.0123 -7.19921,-0.0217 -10.79882,-0.0283 -6.69527,-0.0611 -13.39239,0.0654 -20.08615,0.18229 -12.59394,0.35365 -25.17732,1.04472 -37.70497,2.42935 -14.68217,1.56932 -29.39555,2.72591 -44.08303,4.25156 -12.11706,0.78741 -24.22011,2.10379 -36.38221,1.67504 -5.15685,-0.0165 -10.32492,-0.13114 -15.47619,0.14599 -2.69447,0.37954 -3.08415,1.40568 -2.80994,4.09109 0.14805,4.6449 0.45429,9.2851 1.10917,13.88938 1.05623,8.29503 2.2528,16.5688 1.64172,24.9633 -0.19351,11.72248 -0.56201,23.44896 -1.69688,35.12445 -1.36969,13.44047 -2.76745,26.91168 -5.036411,40.2296 -2.603898,12.62276 -5.512046,25.17869 -8.35576,37.74899 -2.089565,10.70438 -4.28028,21.42446 -4.851256,32.3454 0,0 -2.820718,0 -2.820718,0 z" />
    <path
       style="fill:#000000;fill-opacity:1;stroke:#000000;stroke-width:10;stroke-miterlimit:4;stroke-opacity:1;stroke-dasharray:none"
       id="path2881"
       d="m 636.72279,574.34726 c 3.71809,7.77227 6.76844,15.77891 8.64003,24.19068 1.50181,7.85846 2.17615,15.77313 0.64976,23.64946 -1.46007,8.61453 -5.71005,16.02256 -10.32001,23.27438 -4.75411,8.24836 -11.52239,14.19093 -19.43989,19.23422 -9.51769,5.91219 -20.4069,8.92565 -31.29918,11.09963 -15.02001,2.32343 -30.24783,2.7985 -45.36598,1.34299 -15.3579,-1.80893 -28.83669,-6.53564 -41.64165,-15.12448 -12.19387,-8.71497 -20.02398,-21.35977 -26.40303,-34.63328 -6.30922,-13.12829 -8.43193,-27.1659 -8.65427,-41.5641 0.28736,-13.64025 4.12277,-26.6259 10.05914,-38.79833 6.53539,-11.7435 17.18245,-19.16786 28.75852,-25.3349 13.60467,-6.58742 28.64637,-8.4469 43.58228,-8.77769 15.49488,-0.36235 30.72579,2.12357 45.60907,6.21033 11.89981,3.59756 23.0636,8.72463 32.9926,16.19544 9.30237,7.75483 13.29016,19.10899 15.78115,30.57396 1.55583,8.59288 2.23982,17.2689 1.08557,25.93326 -0.42715,3.52241 -0.85051,6.45559 -3.93287,8.4681 0,0 -2.82424,-0.28648 -2.82424,-0.28648 l 0,0 c 3.12836,-1.87896 3.50855,-4.73694 3.94556,-8.21914 1.16748,-8.62986 0.48938,-17.27429 -1.05466,-25.83616 -2.48765,-11.41659 -6.4664,-22.69377 -15.77283,-30.37582 -9.924,-7.42949 -21.0851,-12.51974 -32.9601,-16.09394 -13.1203,-3.57791 -26.49994,-5.98363 -40.14738,-6.14422 -14.91751,0.28726 -29.94969,2.12114 -43.55716,8.65086 -11.54704,6.11924 -22.19107,13.47954 -28.7371,25.16231 -5.93785,12.1279 -9.77567,25.06664 -10.06405,38.66818 0.21947,14.35941 2.34613,28.35713 8.64946,41.44457 6.37258,13.23639 14.20287,25.82693 26.39281,34.48641 12.80549,8.53055 26.29019,13.21562 41.61896,14.98983 13.32019,1.2486 26.65673,0.83384 39.88987,-1.31831 10.87543,-2.14036 21.75811,-5.12661 31.2712,-10.99919 7.90673,-5.00558 14.68533,-10.88353 19.4255,-19.11238 4.59317,-7.22349 8.85878,-14.58325 10.30915,-23.16986 1.52631,-7.8374 0.84696,-15.7137 -0.64522,-23.53423 -1.87545,-8.39096 -4.90868,-16.38638 -8.66458,-24.12109 0,0 2.82357,-0.13101 2.82357,-0.13101 z" />
    <path
       style="fill:#000000;fill-opacity:1;stroke:#000000;stroke-width:10;stroke-miterlimit:4;stroke-opacity:1;stroke-dasharray:none"
       id="path2883"
       d="m 555.73022,644.25555 c 0.0248,-10.14899 0.0208,-20.29804 0.0221,-30.44707 0.21156,-10.83848 -0.4304,-21.70749 0.33588,-32.5261 0.63395,-6.65301 1.60052,-13.26865 2.17693,-19.92718 0.29933,-3.49587 0.32256,-7.00679 0.33571,-10.51294 1.36437,-0.32624 -0.93256,-2.10942 -0.81564,-2.02891 0.56334,0.38793 1.56454,0.40087 1.75901,1.05664 0.17196,0.57989 -0.67205,1.00599 -0.99584,1.51688 -0.40257,0.63518 -0.78866,1.28065 -1.18299,1.92097 -3.89445,7.16599 -7.50724,14.48077 -11.46966,21.61007 -2.64309,5.62139 -6.5981,10.52038 -9.39248,16.04743 -0.18333,0.36258 -0.36665,0.72515 -0.54997,1.08772 0.0141,0.0533 0.0926,0.1821 0.0422,0.15973 -0.64093,-0.28483 -1.71782,-0.28526 -1.86686,-0.97061 -0.13524,-0.62181 0.94056,-0.86041 1.36567,-1.33393 0.67734,-0.75448 2.43435,-3.11357 2.97982,-3.83372 4.74727,-6.48034 8.71634,-13.44843 12.69536,-20.41156 4.72628,-7.14079 8.68636,-14.83288 14.16438,-21.44736 5.52233,-4.44708 7.75219,-1.94758 9.80547,3.24569 3.09983,6.6192 4.83859,13.74779 7.11816,20.66721 2.18748,3.25525 2.27458,10.97064 4.8499,13.67823 0,0 -2.83677,0.20353 -2.83677,0.20353 l 0,0 c -2.75445,-3.43375 -2.41862,-10.00915 -4.81327,-13.79268 -2.27547,-6.91703 -4.03089,-14.03779 -7.14043,-20.64884 -0.29455,-0.7278 -1.07752,-2.91595 -1.70215,-3.69642 -0.27545,-0.34417 -1.21316,-0.43294 -1.02739,-0.83271 0.21772,-0.46853 1.39191,-0.74652 1.52987,-0.24864 0.30131,1.08741 -3.97892,-0.37692 -2.97202,1.62059 -5.52749,6.56121 -9.4531,14.27234 -14.18205,21.39644 -3.97572,6.97264 -7.94935,13.94445 -12.67283,20.44891 -2.77531,3.68715 -3.1216,5.42238 -8.14842,5.99534 -0.50215,0.0572 1.54317,-3.1449 0.53442,-1.41892 2.78183,-5.54271 6.78385,-10.42523 9.42459,-16.05748 3.97027,-7.12428 7.58343,-14.43962 11.44163,-21.62349 0.71619,-1.17214 0.9724,-2.83447 2.17339,-3.50114 3.21254,-1.78329 4.79097,-1.86912 4.7212,1.19231 -0.0187,3.51387 -0.0351,7.03329 -0.34512,10.53625 -0.58478,6.65747 -1.57731,13.26959 -2.21094,19.92243 -0.77296,10.81187 -0.14397,21.67428 -0.34764,32.50626 10e-4,10.14903 -0.003,20.29808 0.022,30.44707 0,0 -2.82527,0 -2.82527,0 z" />
    <path
       style="fill:#000000;fill-opacity:1;stroke:#000000;stroke-width:10;stroke-miterlimit:4;stroke-opacity:1;stroke-dasharray:none"
       id="path2885"
       d="m 567.15879,512.82698 c -0.3935,-9.81018 0.53714,-19.54737 1.31852,-29.31002 0.73297,-16.09867 2.1937,-32.14817 3.20426,-48.23037 0.42531,-15.1082 1.93098,-30.14482 2.92596,-45.21899 0.83432,-13.37076 1.02217,-26.76806 1.12789,-40.16055 0.45579,-10.66262 -0.16118,-21.23185 -1.26698,-31.82579 -1.00174,-7.52643 -3.16609,-14.7711 -5.12663,-22.07559 -1.36561,-4.49719 -0.69493,-2.23624 -2.0114,-6.78304 0,0 2.80859,-0.0792 2.80859,-0.0792 l 0,0 c 1.31832,4.54618 0.64625,2.28338 2.01576,6.78854 1.96193,7.31789 4.1126,14.58002 5.10838,22.12032 1.1029,10.60413 1.70305,21.18551 1.24736,31.85714 -0.11991,13.39779 -0.29771,26.8006 -1.14343,40.17639 -0.99346,15.07424 -2.50665,30.11013 -2.93824,45.21807 -1.01279,16.08309 -2.4823,32.13319 -3.17556,48.23503 -0.76366,9.75609 -1.71004,19.48571 -1.26921,29.2881 0,0 -2.82527,0 -2.82527,0 z" />
    <path
       style="fill:#000000;fill-opacity:1;stroke:#000000;stroke-width:10;stroke-miterlimit:4;stroke-opacity:1;stroke-dasharray:none"
       id="path2887"
       d="m 564.95411,674.36727 c 2.26462,8.82991 4.51887,17.65525 6.09213,26.63881 0.99375,9.37233 1.94434,18.73239 3.0741,28.09318 1.05782,8.66366 1.33545,17.39186 1.49834,26.10979 0.11395,7.76341 0.0967,15.52785 0.0915,23.29185 -8.9e-4,5.56218 -0.008,11.12435 -0.0114,16.68652 0.15263,5.07379 -1.34477,9.98747 -2.07152,14.97567 -0.56254,3.84301 -0.70731,7.72491 -0.77682,11.60238 -0.0442,3.99214 -0.0243,7.98463 -0.0193,11.97691 0.003,4.82818 0.007,9.65635 0.01,14.48452 -10e-4,4.63803 0.002,9.27604 10e-4,13.91407 0.003,3.42575 10e-4,6.85151 0.006,10.27726 6.5e-4,0.32131 0.001,0.64261 0.002,0.96392 0,0 -2.84431,-10e-6 -2.84431,-10e-6 l 0,0 c 6.6e-4,-0.3213 0.001,-0.64261 0.002,-0.96391 0.005,-3.42575 0.003,-6.85151 0.007,-10.27727 -7.2e-4,-4.63799 0.003,-9.27598 -6.5e-4,-13.91397 -5e-4,-4.82805 -7.1e-4,-9.65611 -0.0124,-14.48415 -0.008,-3.99418 -0.0242,-7.98858 0.0147,-11.98263 0.0747,-3.88942 0.21366,-7.7836 0.78599,-11.63787 0.72078,-4.97631 2.22404,-9.87469 2.07447,-14.93507 0.003,-5.56222 0.009,-11.12444 0.0244,-16.68663 0.009,-7.76213 0.0244,-15.52472 -0.0821,-23.28632 -0.16566,-8.70841 -0.43948,-17.42692 -1.49493,-26.08146 -1.13077,-9.35577 -2.07075,-18.71188 -3.07174,-28.07839 -1.56884,-8.97223 -3.81223,-17.79121 -6.12565,-26.59621 0,0 2.82688,-0.091 2.82688,-0.091 z" />
    <path
       style="fill:#000000;fill-opacity:1;stroke:#000000;stroke-width:10;stroke-miterlimit:4;stroke-opacity:1;stroke-dasharray:none"
       id="path2889"
       d="m 316.38268,62.938699 c 3.35246,12.160514 3.76708,24.888763 4.34697,37.416931 -0.0162,14.88975 -0.79456,29.91478 -3.70018,44.54595 -1.22565,6.68175 -6.29627,11.21722 -10.01487,2.84371 -3.89677,-8.79005 -4.51273,-18.3191 -3.81814,-27.77504 1.48039,-12.15093 6.22363,-23.019395 13.64607,-32.638155 5.85067,-7.489053 13.77305,-11.881862 22.82389,-14.196296 5.40781,-0.369833 13.21305,-1.292085 16.40021,4.190803 1.52109,5.505267 -3.35645,9.24532 -7.00937,12.533077 -4.63198,4.544529 -10.54099,7.455561 -15.36065,11.747981 -2.85237,3.99164 -0.54691,6.10387 2.7685,8.57516 5.30324,4.02084 11.42597,6.7513 17.0634,10.24681 4.33956,2.43715 8.31544,5.41895 11.67603,9.09057 1.65363,2.25651 1.91523,4.03515 0.71642,6.51134 -0.51635,0.87821 -0.25924,0.47369 -0.76198,1.21946 0,0 -2.84369,-0.17142 -2.84369,-0.17142 l 0,0 c 0.50441,-0.71981 0.24652,-0.32902 0.7644,-1.17844 1.19183,-2.36602 0.92415,-4.01457 -0.70302,-6.17058 -3.35336,-3.64412 -7.3365,-6.57934 -11.64472,-9.01537 -5.65761,-3.47965 -11.77608,-6.23623 -17.08105,-10.27084 -3.44119,-2.60356 -5.61287,-4.94688 -2.76978,-9.07348 4.78917,-4.336338 10.74491,-7.193818 15.37695,-11.746604 3.5225,-3.156746 8.47657,-6.812173 6.97923,-12.144549 -2.25064,-3.624803 -6.88174,-4.378405 -10.78668,-3.973076 -9.04093,2.240502 -16.97756,6.551563 -22.83284,14.008615 -7.42951,9.556319 -12.16406,20.369624 -13.6407,32.475364 -0.69059,9.41538 -0.0615,18.89701 3.85652,27.63436 0.36913,0.79357 0.62042,1.65348 1.1074,2.38072 0.32625,0.48721 1.35469,0.61479 1.28861,1.19741 -0.0547,0.48213 -1.29118,0.63879 -1.44467,0.17849 -0.15951,-0.47837 0.8837,-0.53105 1.19477,-0.92793 1.40205,-1.78884 1.60736,-3.41447 2.26245,-5.60731 2.96241,-14.60033 3.72535,-29.60933 3.7424,-44.47791 -0.59049,-12.503554 -1.01033,-25.218668 -4.42876,-37.338765 0,0 2.82688,-0.09099 2.82688,-0.09099 z" />
    <path
       style="fill:#000000;fill-opacity:1;stroke:#000000;stroke-width:10;stroke-miterlimit:4;stroke-opacity:1;stroke-dasharray:none"
       id="path2891"
       d="m 399.23983,140.08156 c 2.26295,8.27388 3.97518,16.71331 5.66704,25.12575 1.05922,5.11595 1.13625,10.35015 2.87463,15.30064 0,0 -2.82944,0.0944 -2.82944,0.0944 l 0,0 c -1.70113,-4.97183 -1.78849,-10.2126 -2.84271,-15.33964 -1.68521,-8.40354 -3.38792,-16.83894 -5.69641,-25.09022 0,0 2.82689,-0.091 2.82689,-0.091 z" />
    <path
       style="fill:#000000;fill-opacity:1;stroke:#000000;stroke-width:10;stroke-miterlimit:4;stroke-opacity:1;stroke-dasharray:none"
       id="path2893"
       d="m 812.84121,86.183099 c 0.34355,12.263327 -0.52753,24.477771 -1.32705,36.704461 -1.42939,12.30166 -2.23548,24.7451 -5.42563,36.75097 -0.40591,1.14029 -3.23434,10.43932 -4.32639,10.42606 -1.35391,-0.0164 -2.65725,-0.52192 -3.98587,-0.78288 -3.17233,-6.28811 -3.76129,-13.33903 -3.84109,-20.26373 -0.47199,-14.0171 4.33946,-26.82721 10.25084,-39.25687 6.63642,-12.775792 16.08132,-20.271771 29.60065,-24.710085 12.29812,-2.750111 22.58677,-2.085445 33.01396,5.176255 7.94253,6.700947 10.26949,11.75852 7.37084,21.8089 -3.27941,8.54274 -10.15164,13.04602 -18.51563,15.71933 -5.55244,1.54775 -11.31297,1.9988 -17.05126,2.12039 -2.73144,0.60589 4.95741,3.20277 5.54716,3.48498 6.70916,3.36542 13.68184,6.18001 20.62543,9.02029 4.71982,2.29008 9.36138,4.66791 13.71773,7.59617 1.2929,0.76135 1.68279,2.70293 2.8491,3.32274 0,0 -2.82847,0.38463 -2.82847,0.38463 l 0,0 c -1.05994,-1.02539 -1.56817,-2.55279 -2.8412,-3.43018 -4.34271,-2.91137 -8.97753,-5.27156 -13.68311,-7.5426 -6.94685,-2.85417 -13.92651,-5.66819 -20.64539,-9.03341 -0.83388,-0.39331 -8.68305,-2.9387 -5.54244,-4.24087 5.74246,-0.0952 11.509,-0.52409 17.07418,-2.03566 8.32371,-2.58315 15.19985,-6.96836 18.49133,-15.44504 2.90867,-9.94509 0.52467,-14.869685 -7.35075,-21.460025 -8.51605,-5.840078 -17.35511,-7.815784 -27.47781,-5.097869 -13.50741,4.326026 -22.95396,11.76897 -29.59744,24.484634 -5.90411,12.38767 -10.71715,25.15207 -10.21827,39.1308 0.0925,6.81354 0.62342,13.85436 3.87679,19.99303 -0.55737,0.27044 -1.06843,0.67216 -1.67211,0.81131 -0.32076,0.0739 0.583,-0.34192 0.77995,-0.60566 0.28007,-0.37504 0.43669,-0.8296 0.61502,-1.26237 1.12913,-2.7402 1.94505,-5.60743 2.96891,-8.38542 3.2324,-11.97916 4.02522,-24.41189 5.46207,-36.69581 0.79708,-12.22011 1.66694,-24.430184 1.26068,-36.686471 0,0 2.82527,0 2.82527,0 z" />
    <path
       style="fill:#000000;fill-opacity:1;stroke:#000000;stroke-width:10;stroke-miterlimit:4;stroke-opacity:1;stroke-dasharray:none"
       id="path2895"
       d="m 903.50695,166.10793 c 7.17464,-1.82918 14.32606,-3.90869 21.7558,-4.20825 5.98558,-0.14567 11.95465,0.19061 14.84612,5.99198 1.83926,5.02787 -0.80512,9.54462 -3.52249,13.66717 -3.60062,4.53767 -8.58761,7.57734 -12.97551,11.25657 -3.95855,4.1347 -1.28668,4.17704 2.88374,4.73113 6.44476,1.22335 12.91885,2.09001 19.31367,3.55742 2.33735,0.1599 5.13237,1.96908 7.54352,1.27889 0.28394,-0.0813 -0.86829,-0.19835 -0.75136,-0.46956 0.22714,-0.52679 0.92724,-0.67575 1.39086,-1.01363 0,0 2.82174,0.25957 2.82174,0.25957 l 0,0 c -3.88834,3.11912 -9.41345,1.34311 -13.79259,0.32221 -6.39664,-1.45958 -12.87738,-2.31969 -19.32415,-3.53162 -4.45744,-0.65953 -6.78998,-1.22582 -2.89786,-5.37985 4.3559,-3.69009 9.34904,-6.682 12.97366,-11.17587 2.67352,-4.022 5.34551,-8.44843 3.50987,-13.36955 -1.98141,-3.83089 -5.08359,-5.00608 -9.24204,-5.69498 -7.42329,0.22165 -14.58055,2.29981 -21.73144,4.17478 0,0 -2.80154,-0.39641 -2.80154,-0.39641 z" />
    <path
       style="fill:#000000;fill-opacity:1;stroke:#000000;stroke-width:10;stroke-miterlimit:4;stroke-opacity:1;stroke-dasharray:none"
       id="path2897"
       d="m 1008.1514,502.91869 c 4.7503,8.33664 8.9064,16.983 13.4205,25.44701 4.7673,9.2886 10.3791,18.11888 16.4359,26.61307 4.4247,6.02654 9.8609,10.39751 16.8105,13.03659 0.7954,0.089 1.5886,0.33277 2.3862,0.26691 0.286,-0.0236 -0.9462,-0.18161 -0.7614,-0.40107 0.4734,-0.56232 1.3564,-0.59296 1.9561,-1.01799 2.0928,-1.48324 3.5083,-3.77117 4.8649,-5.87627 3.0012,-7.1928 5.3024,-14.61597 8.3105,-21.81428 2.8349,-5.92664 1.3615,-2.94727 4.4257,-8.93532 0,0 2.7861,0.13187 2.7861,0.13187 l 0,0 c -3.0586,5.97678 -1.5871,3.00455 -4.4203,8.91393 -3.0094,7.21204 -5.3215,14.64237 -8.2863,21.86419 -3.4508,5.43655 -7.0033,8.84015 -14.0623,7.2067 -6.9425,-2.70797 -12.3777,-7.15572 -16.7964,-13.20263 -6.0502,-8.51104 -11.6602,-17.35186 -16.4322,-26.64922 -4.519,-8.47023 -8.6736,-17.12749 -13.4611,-25.45248 0,0 2.8236,-0.13101 2.8236,-0.13101 z" />
    <path
       style="fill:#000000;fill-opacity:1;stroke:#000000;stroke-width:10;stroke-miterlimit:4;stroke-opacity:1;stroke-dasharray:none"
       id="path2899"
       d="m 1175.3541,466.5424 c -1.3083,12.84409 -4.2521,25.45351 -6.829,38.08612 -2.001,10.53388 -3.8663,21.14173 -6.9396,31.42671 0,0 -2.8071,-0.082 -2.8071,-0.082 l 0,0 c 3.1079,-10.26919 4.9808,-20.87324 6.9864,-31.40027 2.577,-12.62151 5.5284,-25.22408 6.769,-38.06561 0,0 2.8203,0.0351 2.8203,0.0351 z" />
    <path
       style="fill:#000000;fill-opacity:1;stroke:#000000;stroke-width:10;stroke-miterlimit:4;stroke-opacity:1;stroke-dasharray:none"
       id="path2901"
       d="m 1152.3619,443.93138 c 12.0657,1.12476 24.1308,2.02984 36.1214,3.83471 11.011,1.73893 22.1033,3.79119 32.564,7.73597 1.0095,0.57499 2.019,1.14999 3.0284,1.72499 0,0 -2.7952,0.29664 -2.7952,0.29664 l 0,0 c -1.0047,-0.56095 -2.0094,-1.12191 -3.0142,-1.68286 -10.4596,-3.89601 -21.5225,-5.96246 -32.5205,-7.68276 -12.0119,-1.7888 -24.097,-2.68482 -36.1801,-3.82441 0,0 2.7962,-0.40228 2.7962,-0.40228 z" />
    <path
       style="fill:#000000;fill-opacity:1;stroke:#000000;stroke-width:10;stroke-miterlimit:4;stroke-opacity:1;stroke-dasharray:none"
       id="path2903"
       d="m 1140.9943,548.96213 c 9.7826,-2.16816 19.693,-3.56647 29.6581,-4.53727 7.8954,-0.96991 15.7751,-0.60086 23.5692,0.86062 0.6474,0.11316 1.2949,0.22633 1.9423,0.33949 0,0 -2.8033,0.39414 -2.8033,0.39414 l 0,0 c -0.6465,-0.11425 -1.2931,-0.2285 -1.9397,-0.34276 -6.0284,-1.11472 -11.8769,-1.8258 -18.0061,-0.84121 -9.9542,0.95469 -19.8628,2.31561 -29.6244,4.52928 0,0 -2.7961,-0.40229 -2.7961,-0.40229 z" />
    <path
       style="fill:#000000;fill-opacity:1;stroke:#000000;stroke-width:10;stroke-miterlimit:4;stroke-opacity:1;stroke-dasharray:none"
       id="path2905"
       d="m 1229.1702,576.44782 c 6.1643,4.26728 10.1341,10.04277 11.1029,17.47598 0.3203,5.23619 -1.9741,10.08359 -3.3138,15.04431 -0.6953,4.55106 1.9427,6.92873 5.2504,9.50645 4.7082,2.97488 9.6906,5.46494 14.5458,8.18804 1.8676,1.13191 4.1229,2.01952 5.3738,3.8902 0,0 -2.8408,0.17387 -2.8408,0.17387 l 0,0 c -1.3105,-1.7775 -3.5107,-2.63837 -5.3433,-3.7653 -4.8587,-2.73151 -9.8604,-5.20847 -14.5482,-8.23125 -3.3783,-2.66242 -5.9731,-5.2005 -5.2652,-9.83651 1.3266,-4.92665 3.6303,-9.7357 3.3264,-14.93315 -0.9696,-7.36805 -4.9653,-13.05115 -11.0987,-17.23552 0,0 2.8107,-0.27712 2.8107,-0.27712 z" />
    <path
       style="fill:#000000;fill-opacity:1;stroke:#000000;stroke-width:10;stroke-miterlimit:4;stroke-opacity:1;stroke-dasharray:none"
       id="path2907"
       d="m 385.29421,540.06155 c 4.5627,10.49028 5.62138,21.98124 6.55111,33.25402 1.35501,14.76806 0.22289,29.553 -0.69534,44.30386 -1.35867,8.15137 -1.52345,16.69796 -3.79131,24.67736 -0.23403,0.46091 -0.46806,0.92183 -0.7021,1.38274 0,0 -2.83351,-0.13645 -2.83351,-0.13645 l 0,0 c 0.23735,-0.44185 0.4747,-0.88371 0.71204,-1.32556 2.32242,-7.94274 2.45865,-16.49164 3.84385,-24.61551 0.93852,-14.73667 2.07429,-29.50902 0.7042,-44.26357 -0.93871,-11.23947 -1.99197,-22.71131 -6.6125,-33.14589 0,0 2.82356,-0.131 2.82356,-0.131 z" />
    <path
       style="fill:#000000;fill-opacity:1;stroke:#000000;stroke-width:10;stroke-miterlimit:4;stroke-opacity:1;stroke-dasharray:none"
       id="path2909"
       d="m 338.13355,551.17273 c 12.80606,-5.06727 26.11466,-8.77347 39.41634,-12.29336 15.28107,-3.32222 30.66627,-6.6451 46.29366,-7.71858 2.08975,-0.0406 4.1795,-0.0813 6.26925,-0.1219 0,0 2.7402,0.42888 2.7402,0.42888 l 0,0 c -2.09213,0.0357 -4.18426,0.0714 -6.2764,0.10714 -15.63215,1.02457 -31.01627,4.36814 -46.30295,7.66393 -13.27448,3.5106 -26.561,7.19637 -39.3368,12.26222 0,0 -2.8033,-0.32833 -2.8033,-0.32833 z" />
    <path
       style="fill:#000000;fill-opacity:1;stroke:#000000;stroke-width:10;stroke-miterlimit:4;stroke-opacity:1;stroke-dasharray:none"
       id="path2911"
       d="m 335.62433,668.96001 c 12.40625,-1.27413 24.85754,-1.84869 37.27585,-3.00747 14.27241,-0.99128 28.51511,-2.16118 42.75983,-3.49355 2.25802,-0.17368 4.51604,-0.34737 6.77407,-0.52105 0,0 2.73581,0.41189 2.73581,0.41189 l 0,0 c -2.25745,0.17222 -4.51489,0.34444 -6.77233,0.51666 -14.24727,1.3278 -28.49015,2.51687 -42.76598,3.4926 -12.3986,1.1607 -24.82851,1.7465 -37.21627,3.00746 0,0 -2.79098,-0.40654 -2.79098,-0.40654 z" />
    <path
       style="fill:#000000;fill-opacity:1;stroke:#000000;stroke-width:10;stroke-miterlimit:4;stroke-opacity:1;stroke-dasharray:none"
       id="path2913"
       d="m -132.53162,480.44877 c 2.28881,12.00926 4.21189,24.10211 5.79472,36.22579 1.68598,12.87683 2.79781,25.8538 4.7641,38.69107 1.06434,6.5606 1.94802,13.10341 4.38834,19.3139 3.10943,4.47917 0.26826,1.38247 0.24975,1.00867 -0.0448,-0.90435 0.87028,-1.5903 1.23996,-2.41684 0.49646,-1.10997 0.9038,-2.25768 1.3557,-3.38652 3.14409,-10.28985 6.17769,-20.61139 9.39601,-30.87878 3.75757,-11.47337 8.133403,-22.71426 12.828129,-33.82996 1.85352,-5.16842 4.20555,-10.18064 7.255166,-14.75477 0.344307,-0.5516 0.775381,-1.00784 1.224764,-1.47139 0,0 2.838741,0.22161 2.838741,0.22161 l 0,0 c -0.448371,0.44557 -0.882282,0.88196 -1.226221,1.41826 -3.091428,4.53576 -5.450369,9.54092 -7.305572,14.69791 -4.706595,11.10343 -9.094328,22.33269 -12.842957,33.80244 -3.2104,10.27373 -6.25147,20.59694 -9.36165,30.90084 -1.32956,3.37306 -4.99537,12.96751 -8.48124,4.79365 -2.40798,-6.23929 -3.29053,-12.79803 -4.34441,-19.37694 -1.94241,-12.8421 -3.0535,-25.81874 -4.73845,-38.69724 -1.59059,-12.12441 -3.50787,-24.2224 -5.85954,-36.22162 0,0 2.82466,-0.0401 2.82466,-0.0401 z" />
  </g>
</svg>
