<?xml version="1.0" encoding="UTF-8" standalone="no"?>
<!-- Created with Inkscape (http://www.inkscape.org/) -->

<svg
   xmlns:dc="http://purl.org/dc/elements/1.1/"
   xmlns:cc="http://creativecommons.org/ns#"
   xmlns:rdf="http://www.w3.org/1999/02/22-rdf-syntax-ns#"
   xmlns:svg="http://www.w3.org/2000/svg"
   xmlns="http://www.w3.org/2000/svg"
   xmlns:sodipodi="http://sodipodi.sourceforge.net/DTD/sodipodi-0.dtd"
   xmlns:inkscape="http://www.inkscape.org/namespaces/inkscape"
   width="2249.3943"
   height="973.31653"
   id="svg2"
   version="1.1"
   inkscape:version="0.47pre4 r22446"
   sodipodi:docname="New document 1">
  <defs
     id="defs4">
    <inkscape:perspective
       sodipodi:type="inkscape:persp3d"
       inkscape:vp_x="0 : 526.18109 : 1"
       inkscape:vp_y="0 : 1000 : 0"
       inkscape:vp_z="744.09448 : 526.18109 : 1"
       inkscape:persp3d-origin="372.04724 : 350.78739 : 1"
       id="perspective10" />
  </defs>
  <sodipodi:namedview
     id="base"
     pagecolor="#ffffff"
     bordercolor="#666666"
     borderopacity="1.0"
     inkscape:pageopacity="0.0"
     inkscape:pageshadow="2"
     inkscape:zoom="0.35"
     inkscape:cx="1461.2887"
     inkscape:cy="370.95203"
     inkscape:document-units="px"
     inkscape:current-layer="layer1"
     showgrid="false"
     inkscape:window-width="1280"
     inkscape:window-height="726"
     inkscape:window-x="0"
     inkscape:window-y="25"
     inkscape:window-maximized="1" />
  <metadata
     id="metadata7">
    <rdf:RDF>
      <cc:Work
         rdf:about="">
        <dc:format>image/svg+xml</dc:format>
        <dc:type
           rdf:resource="http://purl.org/dc/dcmitype/StillImage" />
        <dc:title></dc:title>
      </cc:Work>
    </rdf:RDF>
  </metadata>
  <g
     inkscape:label="Layer 1"
     inkscape:groupmode="layer"
     id="layer1"
     transform="translate(1086.2887,70.002337)">
    <path
       style="fill:#000000;fill-opacity:1;stroke:#000000;stroke-width:10;stroke-miterlimit:4;stroke-opacity:1;stroke-dasharray:none"
       id="path2816"
       d="m -924.72216,540.06809 c 14.14611,-2.00967 28.51083,-1.89688 42.77009,-2.07813 25.39836,0.21543 50.7682,-0.59097 76.14751,-1.43758 29.43408,-1.19393 58.875,-1.39834 88.29262,0.19123 20.16503,1.49386 40.196,4.20816 59.96298,8.4424 6.65168,1.5265 3.55839,0.7932 9.28389,2.18284 0,0 -2.77822,0.37233 -2.77822,0.37233 l 0,0 c -5.69969,-1.38855 -2.61951,-0.65594 -9.24469,-2.18043 -19.73435,-4.23013 -39.73606,-6.92825 -59.86837,-8.41287 -27.66387,-1.48119 -55.33314,-1.39368 -83.01314,-0.18715 -25.35966,0.84756 -50.70951,1.6709 -76.08845,1.45243 -14.22493,0.18044 -28.54266,0.094 -42.66378,2.01892 0,0 -2.80044,-0.36399 -2.80044,-0.36399 z" />
    <path
       style="fill:#000000;fill-opacity:1;stroke:#000000;stroke-width:10;stroke-miterlimit:4;stroke-opacity:1;stroke-dasharray:none"
       id="path2818"
       d="m -850.08995,586.10286 c 15.29468,-1.6181 30.675,-2.05637 46.04184,-1.86113 15.56166,0.48278 31.00065,2.67132 46.51055,3.93082 0,0 -2.73824,0.41087 -2.73824,0.41087 l 0,0 c -15.49864,-1.27104 -30.92884,-3.45883 -46.48197,-3.91722 -13.527,-0.33888 -27.07573,0.6047 -40.5412,1.8432 0,0 -2.79098,-0.40654 -2.79098,-0.40654 z" />
    <path
       style="fill:#000000;fill-opacity:1;stroke:#000000;stroke-width:10;stroke-miterlimit:4;stroke-opacity:1;stroke-dasharray:none"
       id="path2820"
       d="m -775.69607,535.34236 c 0.0356,-15.1263 0.0343,-30.25267 0.0567,-45.37899 0.0237,-28.83106 0.0249,-57.66213 0.0291,-86.49319 -0.0578,-30.27027 -0.23539,-60.52799 0.80041,-90.78306 0.41542,-19.70261 2.06797,-39.42077 1.47285,-59.13219 -0.62811,-7.82407 -0.0614,-15.95592 -4.12576,-22.92022 -0.045,-1.7516 -4.82476,-3.00718 -4.12652,-4.20992 5.58558,-0.30542 11.2312,-0.0949 16.83292,-0.0613 12.29322,-0.41707 24.58515,-1.48325 36.8949,-1.9983 18.6699,-0.23589 37.2902,-1.60314 55.93403,-2.49652 17.25941,-0.28603 34.45428,-1.73334 51.67165,-2.837 10.02081,-0.63306 20.05712,-0.98975 30.09595,-1.15131 4.45683,-0.0554 8.91431,-0.0664 13.37142,-0.0426 0.17208,0.001 0.66158,0.0964 0.51626,0.004 -0.74726,-0.47401 -1.82656,-0.49037 -2.37612,-1.18395 -0.31789,-0.40121 0.13302,-1.01597 0.23569,-1.51744 0.49774,-2.43127 1.03113,-4.78525 1.40246,-7.24865 1.96958,-8.68146 3.71316,-17.41027 5.67341,-26.09261 1.02431,-4.11261 1.81702,-8.27601 2.68354,-12.4228 0.48213,-2.30722 0.82425,-3.74143 0.92208,-3.73237 1.28689,0.11912 2.3434,1.09068 3.5151,1.63601 2.18674,12.54821 2.40037,25.40395 3.30509,38.10479 0.91878,18.55956 1.91402,37.0933 3.42578,55.61518 0.70503,5.47093 0.58899,11.03658 1.23468,16.51079 0.11655,0.98819 0.2831,1.9764 0.55997,2.93215 0.12097,0.41761 0.99593,1.36787 0.62161,1.14669 -0.80343,-0.47473 -1.33247,-1.30692 -1.9987,-1.96039 1.89695,-12.17879 3.67693,-24.3677 5.6659,-36.53788 2.31516,-14.57532 6.1341,-28.82708 9.74154,-43.11515 1.57683,-5.74102 5.73677,-16.04671 12.40476,-6.94047 5.82833,10.93737 8.76299,23.10445 11.63697,35.07484 3.15702,10.93215 4.15242,22.70565 9.46023,32.91022 0.5021,0.43087 1.25851,0.67913 1.50629,1.29261 0.14119,0.34959 -1.23665,0.0722 -1.09642,-0.27782 0.33497,-0.836 1.41039,-1.14762 1.95497,-1.86493 3.50381,-4.61511 5.19368,-10.65594 7.13409,-15.9917 6.44265,-19.82309 11.22241,-40.13948 15.9157,-60.43276 2.30775,-7.77878 3.71041,-15.84838 6.16064,-23.58779 0.3576,-1.12954 1.97191,-5.72718 3.03715,-5.9955 1.28963,-0.32484 2.63805,0.33953 3.95708,0.50929 3.85726,14.43949 3.85951,29.71665 4.4492,44.56851 0.97605,21.74548 2.62311,43.43485 4.45882,65.12055 1.68517,6.9918 0.49624,15.72661 4.28772,22.21369 0.29795,0.50978 1.04347,0.64758 1.34067,1.1578 0.25598,0.43943 -0.80573,-0.62072 -1.2086,-0.93108 7.64132,-12.75525 10.58079,-28.05383 14.40721,-42.29745 5.08018,-17.87414 8.77047,-36.15078 14.51932,-53.83027 1.78202,-6.09425 6.64344,-13.42232 9.73439,-2.98086 2.53188,10.85908 4.08787,21.95521 5.45317,33.01791 1.26857,11.58746 2.30964,23.25824 4.94842,34.63035 0.0721,0.74754 2.8605,8.42667 5.19108,6.23919 0.27711,-0.26009 -0.61031,-0.45308 -0.91547,-0.67963 0.71762,-0.56604 1.43525,-1.13208 2.15288,-1.69812 5.89877,-6.65217 10.59139,-14.24302 15.93523,-21.33385 3.78577,-4.80682 7.31032,-10.52594 13.54912,-12.09344 5.92369,-1.15647 10.64428,1.96575 15.9679,3.74149 6.40008,1.43467 12.46282,3.94897 18.69626,5.92316 3.36349,0.98245 1.76454,0.53117 4.79443,1.36241 0,0 -2.80368,0.36696 -2.80368,0.36696 l 0,0 c -3.02165,-0.83933 -1.42652,-0.38384 -4.78297,-1.37497 -6.22834,-1.99467 -12.30659,-4.46269 -18.69966,-5.92761 -0.87696,-0.29944 -8.92923,-3.15788 -9.36899,-3.51542 -0.24882,-0.2023 1.21226,-0.28348 0.89771,-0.34585 -0.62251,-0.12344 -1.26544,0.0983 -1.89816,0.14747 -6.27894,1.38236 -9.78278,7.12178 -13.5633,11.89629 -5.361,7.09818 -10.07276,14.68364 -15.91482,21.40406 -6.48988,5.39213 -9.95533,2.60883 -12.03925,-4.04878 -2.59695,-11.3891 -3.64253,-23.0642 -4.91377,-34.6596 -1.37372,-11.04775 -2.92454,-22.13515 -5.50485,-32.96931 -0.27079,-0.87856 -0.44435,-1.79321 -0.81237,-2.63567 -0.23233,-0.53186 -1.19904,-0.91214 -0.97047,-1.44562 0.23408,-0.54634 1.2571,-0.70217 1.74565,-0.36365 0.36764,0.25475 -0.7658,0.49868 -1.03089,0.85893 -1.33824,1.8187 -2.2799,4.62772 -3.07624,6.57183 -5.81437,17.65845 -9.51046,35.9368 -14.57537,53.81377 -3.83765,14.33074 -6.82006,29.58806 -14.30592,42.52663 -1.47709,0.28834 -2.93046,0.97664 -4.43129,0.86501 -1.41028,-0.1049 -2.41098,-4.25749 -2.46318,-4.43849 -1.79966,-6.23934 -2.23958,-12.73628 -3.0763,-19.14438 -1.80561,-21.6913 -3.43695,-43.38537 -4.43446,-65.13255 -0.60116,-14.73662 -0.55864,-29.98103 -4.56208,-44.26649 0.56201,-0.21175 1.55512,-1.22137 1.68605,-0.63524 0.16591,0.74277 -1.07653,1.1058 -1.43043,1.77958 -0.68573,1.30555 -1.206,2.69786 -1.65849,4.1014 -2.49116,7.72696 -3.88521,15.80492 -6.2137,23.57712 -4.70332,20.29855 -9.48906,40.61887 -15.87495,60.46668 -1.61702,4.49407 -6.66033,24.64714 -15.06821,16.87976 -5.21166,-10.26789 -6.26024,-22.01938 -9.40189,-32.97886 -2.87123,-11.93707 -5.80214,-24.08801 -11.69574,-34.95735 -0.5681,-0.72605 -1.48393,-1.28299 -1.7043,-2.17816 -0.0975,-0.39612 1.33826,-0.50256 0.99149,-0.71742 -2.53152,-1.56857 -5.86092,8.607 -6.09513,9.7227 -3.63474,14.27592 -7.47786,28.5167 -9.7783,43.09042 -1.98287,12.19091 -3.76411,24.39597 -5.58601,36.6065 -1.22127,0.66078 -2.29636,1.74108 -3.66381,1.98236 -0.21903,0.0386 -0.81548,-1.2851 -1.14382,-4.19496 -0.61783,-5.47548 -0.50452,-11.03586 -1.19104,-16.50747 -1.47765,-18.52438 -2.46386,-37.05972 -3.40692,-55.61772 -0.91961,-12.66992 -1.13392,-25.5088 -3.40043,-38.01357 0.71812,-0.55387 1.27122,-1.45538 2.15436,-1.66161 0.42642,-0.0996 -0.28984,0.82756 -0.39889,1.25167 -1.26397,4.91589 -1.91319,9.98065 -3.25544,14.88027 -1.96319,8.67274 -3.68459,17.39811 -5.64757,26.07221 -0.0831,0.56508 -1.27131,8.50975 -1.61692,8.81509 -1.83591,1.622 -2.29582,1.54461 -3.78873,1.53295 -1.72918,-0.009 -3.06346,-0.0172 -7.78111,0.0344 -10.05631,0.15274 -20.11029,0.50043 -30.14876,1.12959 -17.22728,1.09675 -34.43076,2.55959 -51.69997,2.83712 -18.63841,0.88897 -37.25233,2.26923 -55.91669,2.50087 -14.13418,0.5881 -28.23531,1.91646 -42.38117,2.01728 -4.54883,-0.0263 -8.35185,-0.0674 -11.22357,-0.0752 0.37788,0.27872 3.61285,2.20258 4.11159,3.76118 4.01544,7.03535 3.46132,15.18929 4.06676,23.06002 0.55862,19.71859 -1.13464,39.44057 -1.56121,59.14952 -1.05725,30.25154 -0.90134,60.50631 -0.82665,90.77381 0.004,28.83106 0.005,57.66213 0.0291,86.49319 0.0224,15.12632 0.021,30.25269 0.0567,45.37899 0,0 -2.82071,0 -2.82071,0 z" />
    <path
       style="fill:#000000;fill-opacity:1;stroke:#000000;stroke-width:10;stroke-miterlimit:4;stroke-opacity:1;stroke-dasharray:none"
       id="path2822"
       d="m -304.64594,126.5424 c -1.9909,17.21101 -3.92542,34.43086 -5.95957,51.6379 -2.60967,24.83464 -5.68706,49.61811 -8.14905,74.4683 -1.1136,16.9528 -2.85104,33.84759 -4.39109,50.76431 -0.58417,4.84711 -0.55626,9.75564 -1.10071,14.60447 0,0 -2.84815,-0.0355 -2.84815,-0.0355 l 0,0 c 0.66924,-4.82949 0.5175,-9.7609 1.17161,-14.5945 1.57868,-16.91591 3.33962,-33.81075 4.46697,-50.76556 2.48203,-24.84971 5.56134,-49.6346 8.14922,-74.4732 2.01989,-17.20502 3.94109,-34.42391 5.84055,-51.64129 0,0 2.82022,0.0351 2.82022,0.0351 z" />
    <path
       style="fill:#000000;fill-opacity:1;stroke:#000000;stroke-width:10;stroke-miterlimit:4;stroke-opacity:1;stroke-dasharray:none"
       id="path2824"
       d="m -247.15879,174.75453 c -0.85243,12.00431 -2.36205,23.93728 -3.66347,35.89692 -1.34328,11.26457 -3.35298,22.39179 -5.61435,33.49859 -0.71106,3.57407 -1.42942,7.14714 -2.08358,10.73221 -0.0188,0.10593 -0.0375,0.21185 -0.0563,0.31777 0,0 -2.85237,-0.0513 -2.85237,-0.0513 l 0,0 c 0.0198,-0.10633 0.0396,-0.21267 0.0594,-0.31901 0.68243,-3.58432 1.41084,-7.15974 2.13319,-10.73616 2.27807,-11.09678 4.31072,-22.2128 5.64921,-33.47209 1.30075,-11.94777 2.81279,-23.8693 3.60294,-35.86695 0,0 2.82527,0 2.82527,0 z" />
    <path
       style="fill:#000000;fill-opacity:1;stroke:#000000;stroke-width:10;stroke-miterlimit:4;stroke-opacity:1;stroke-dasharray:none"
       id="path2826"
       d="m -250.83436,218.22003 c 5.85078,1.05121 11.74761,1.77589 17.67635,2.18128 4.83368,0.28521 9.6761,0.31633 14.51647,0.33049 2.34439,8.3e-4 5.74786,-0.009 9.62005,-0.013 4.53986,-0.005 9.07973,-0.006 13.6196,-0.006 6.37326,-8e-5 12.74653,8e-5 19.11979,1.9e-4 5.60233,-1.2e-4 11.20465,5.4e-4 16.80697,-2.4e-4 4.98696,-3.1e-4 9.97393,2e-5 14.9609,1.6e-4 4.43036,2e-4 9.37468,1.8e-4 14.01748,1.9e-4 6.81532,-0.004 13.53655,-1.39286 20.31131,-2.05627 7.68051,-1.61981 15.50184,-2.27663 23.246508,-3.45429 8.195664,-1.43004 16.47208,-2.15667 24.671938,-3.55213 7.499842,-0.91609 14.852682,-2.64829 22.295297,-3.907 5.165964,-0.48669 10.191653,-1.26016 15.207874,-2.5639 4.204511,-1.0376 8.538672,-1.32581 12.849408,-1.52899 3.1912587,-0.91033 6.3144545,-1.92414 9.6062605,-2.42024 3.18829353,-0.0942 6.0640373,-0.59246 9.0136872,-1.77303 2.5658239,-1.14967 5.4323333,-1.02465 8.0719093,-1.81515 3.407031,-1.0151 6.620532,-2.54959 9.69334,-4.32993 4.082969,-2.07697 7.696975,-4.83006 10.887067,-8.09757 4.303514,-3.63386 7.689356,-8.0973 10.588445,-12.88982 2.795885,-4.69063 5.292764,-9.5783 7.563939,-14.54571 0.280885,-0.97718 3.03354,-7.93745 3.812477,-7.74895 1.204581,0.29152 2.287505,0.95462 3.431257,1.43193 0.699498,5.3744 1.359601,10.76513 2.058489,16.1554 0.942858,7.39203 1.182382,14.84388 1.374815,22.28525 0.520345,4.71635 1.75912,9.30563 2.443125,13.99586 -1.512096,1.68725 3.060393,2.61481 2.046703,2.86694 -4.144913,1.03094 0.337292,-2.37857 0.857704,-2.98691 6.416953,-8.97406 12.419275,-18.2445 18.465354,-27.47449 7.648295,-11.97028 16.412463,-23.12744 24.916253,-34.47971 2.783,-3.87044 11.35916,-13.19043 15.58395,-5.38851 2.02847,8.98066 1.56061,18.37486 1.5894,27.53308 -0.01,11.08737 -0.0619,22.17465 -0.0887,33.262 -0.0433,3.10654 -0.23872,6.30058 1.14445,9.1811 0.25117,0.52308 0.55503,1.03395 0.95126,1.45786 0.23855,0.2552 1.25194,0.57017 0.90515,0.52819 -0.60229,-0.0729 -1.13946,-0.417 -1.70919,-0.6255 5.02632,-5.69721 7.24033,-13.63955 9.78885,-20.68311 3.72223,-10.14908 6.95988,-20.48147 11.39342,-30.35461 2.35816,-4.17987 3.57442,-11.30675 8.76053,-12.97634 1.27291,0.17308 2.62276,0.0503 3.81873,0.51926 1.98987,0.78025 3.49243,12.71137 3.72025,14.47604 1.58282,9.99773 2.64038,20.05662 5.17595,29.8735 2.08632,6.59748 4.3988,12.69832 10.72022,16.0793 0.81909,0.152 1.62636,0.3959 2.45726,0.45599 0.11757,0.008 -0.2984,-0.23003 -0.19853,-0.29264 0.84032,-0.52686 1.83999,-0.76027 2.69082,-1.26996 3.6529,-2.18828 5.94462,-5.29723 8.41544,-8.67022 6.38407,-10.06832 11.50657,-20.86099 16.37304,-31.72242 3.79788,-5.57999 4.93791,-13.5122 10.33017,-17.93251 4.90227,-1.80999 6.18926,0.98787 7.93672,4.43789 1.47799,3.13421 3.83397,5.62687 6.45619,7.83024 3.1377,1.76983 5.84237,4.01055 8.4509,6.50003 2.57404,2.78525 5.04874,5.69737 7.42746,8.66096 2.71951,2.90542 5.70576,5.43281 9.42147,6.9125 3.91885,1.31371 8.14288,1.11314 12.22235,1.15239 7.60778,0.01 15.21561,-0.02 22.82339,-0.0315 12.34989,-0.0164 24.69979,-0.0185 37.04969,-0.0199 12.29951,-0.002 24.59903,-0.002 36.89854,-0.003 5.05899,-8.6e-4 10.11798,-10e-4 15.17697,-0.004 2.65143,-0.13422 1.11931,0.94281 -2.34979,-1.06195 -0.67058,-0.38752 -0.90918,-1.2541 -1.36377,-1.88115 0,0 2.82053,-0.17723 2.82053,-0.17723 l 0,0 c 2.39297,3.29746 0.96632,3.56619 -1.91488,3.56506 -5.04259,-0.002 -10.08518,-0.003 -15.12777,-0.004 -10.46826,-0.001 -20.93653,-0.002 -31.40479,-0.001 -12.34479,0.002 -24.68957,0.004 -37.03435,0.0219 -9.45278,0.0156 -18.9056,0.0559 -28.3584,0.0344 -4.09576,-0.0444 -8.33759,0.14284 -12.25162,-1.25638 -3.70402,-1.56062 -6.71955,-4.10891 -9.43237,-7.05443 -2.39021,-2.9412 -4.828,-5.87048 -7.42306,-8.62398 -2.61515,-2.47524 -5.3568,-4.65876 -8.45301,-6.48426 -2.61893,-2.25715 -4.98908,-4.76989 -6.46691,-7.94243 -0.56012,-1.10903 -1.03788,-2.64121 -1.92086,-3.55704 -0.25308,-0.2625 -1.1312,-0.34799 -0.8964,-0.62696 0.37984,-0.45132 1.15805,-0.22717 1.73153,-0.36531 0.39353,-0.0948 -0.79426,0.1568 -1.19139,0.2352 -5.54086,4.1593 -6.53272,12.35253 -10.37983,17.79301 -4.87332,10.87563 -10.00793,21.67682 -16.36239,31.78089 -4.72193,6.53826 -10.06467,12.47216 -18.95861,9.90279 -6.28418,-3.51518 -8.62764,-9.66382 -10.70943,-16.31037 -2.51862,-9.83162 -3.57794,-19.90197 -5.17888,-29.90767 -0.48808,-3.71621 -0.90384,-7.45035 -2.12556,-11.01801 -0.24213,-0.70704 -0.53893,-1.39701 -0.87846,-2.06278 -0.20298,-0.39803 -0.99437,-0.74682 -0.74257,-1.1159 0.35322,-0.51772 1.21442,-0.31048 1.82162,-0.46572 -5.22687,1.1784 -6.46975,8.78527 -8.78239,12.72566 -4.46399,9.85387 -7.68614,20.18784 -11.40245,30.33271 -2.56698,7.1215 -4.81612,15.0227 -9.74958,20.88914 -1.31451,0.20168 -2.61369,0.6173 -3.94352,0.60505 -2.91059,-0.0268 -3.16686,-9.89376 -2.96862,-11.45017 0.0439,-11.08668 0.10484,-22.17335 0.1067,-33.26015 -0.0338,-9.10783 0.43571,-18.46846 -1.63685,-27.38869 -0.33613,-0.57013 -1.11088,-1.05654 -1.00839,-1.71041 0.0795,-0.50747 1.7444,-0.31463 1.38302,-0.67968 -1.94116,-1.96091 -9.75907,6.56498 -10.35861,7.81199 -8.51457,11.3429 -17.297143,22.4845 -24.936128,34.46076 -6.038266,9.23415 -12.036921,18.5029 -18.400768,27.51278 -3.137015,3.75826 -6.647556,5.87425 -8.555381,-0.037 -0.686836,-4.69979 -1.914705,-9.30232 -2.424698,-14.02994 -0.176514,-7.43206 -0.42634,-14.87376 -1.369266,-22.25577 -0.70472,-5.36294 -1.360341,-10.73072 -2.085209,-16.07392 3.934949,-2.23563 1.718612,-1.30742 0.905496,0.26847 -0.999123,1.93638 -1.742685,4.01114 -2.490191,6.05189 -2.27914,4.97588 -4.778758,9.8735 -7.57429,14.57716 -2.889556,4.81479 -6.264289,9.32006 -10.588673,12.95434 -3.182894,3.29604 -6.780964,6.09903 -10.884046,8.17439 -3.061585,1.81771 -6.288827,3.35374 -9.693839,4.39249 -2.606884,0.89501 -5.496603,0.65536 -8.0683917,1.79488 -2.964562,1.20514 -5.8020878,1.80991 -9.02932288,1.83921 -3.30100932,0.46552 -6.44618022,1.42033 -9.61064392,2.44799 -4.3069485,0.19093 -8.6385175,0.45913 -12.8446055,1.47013 -5.02693,1.30272 -10.041422,2.15464 -15.228285,2.58602 -7.448632,1.24278 -14.798736,3.0017 -22.303522,3.90511 -8.200946,1.40255 -16.475557,2.13641 -24.67493,3.55634 -7.739048,1.20408 -15.569535,1.8006 -23.240666,3.47097 -6.77603,0.65195 -13.49422,2.04181 -20.30533,2.08474 -6.52963,2e-5 -13.05927,1e-4 -19.5889,2e-4 -4.98759,1.4e-4 -9.97517,4.7e-4 -14.96276,1.4e-4 -5.60096,-8.1e-4 -11.20192,-1.9e-4 -16.80287,-4.1e-4 -4.5325,0 -8.99955,2e-5 -13.54532,5.7e-4 -4.53877,7.3e-4 -9.07753,0.002 -13.61629,0.006 -5.06899,0.006 -10.13799,0.0197 -15.20698,0.0125 -4.83851,-0.0178 -9.67913,-0.0536 -14.51035,-0.35034 -5.93326,-0.42013 -11.83281,-1.16295 -17.69015,-2.20658 0,0 2.80154,-0.39641 2.80154,-0.39641 z" />
    <path
       style="fill:#000000;fill-opacity:1;stroke:#000000;stroke-width:10;stroke-miterlimit:4;stroke-opacity:1;stroke-dasharray:none"
       id="path2828"
       d="m 398.92723,53.145382 c 0.51689,-3.180473 0.91708,-6.37823 1.38583,-9.565697 0.36413,-2.476104 0.49371,-3.094676 0.60411,-3.015588 0.87829,0.629197 1.37749,1.664819 2.06624,2.497228 -3.90346,14.629806 -6.39045,29.565117 -8.58862,44.529826 -3.54602,25.295359 -6.66642,50.650659 -9.99035,75.977309 -2.73914,24.65698 -6.44281,49.18807 -10.12557,73.71701 -2.35793,13.41583 -4.31485,26.89191 -7.77818,40.07855 0.37225,2.45344 -4.13582,13.06132 -6.7565,4.56584 -0.13232,-0.76984 -0.26464,-1.53967 -0.39695,-2.3095 0,0 2.82575,-0.0489 2.82575,-0.0489 l 0,0 c 0.13477,0.75657 0.26953,1.51315 0.4043,2.26972 0.7546,2.21655 1.06882,1.46284 -1.66211,2.06274 -0.24578,0.054 0.54795,-0.0247 0.72774,-0.20081 0.34148,-0.33442 0.56754,-0.78358 0.73467,-1.23136 0.62306,-1.66927 0.6085,-3.53638 1.31731,-5.18042 3.52433,-13.16716 5.49065,-26.63862 7.86998,-40.04643 3.71437,-24.5241 7.42292,-49.05436 10.16217,-73.71131 3.32038,-25.32717 6.43583,-50.68283 9.95595,-75.981746 2.17771,-14.976556 4.6504,-29.920219 8.47828,-44.577521 1.20007,-0.7729 2.30435,-1.720158 3.60023,-2.318701 0.25163,-0.116224 -0.21948,0.512847 -0.27733,0.783917 -0.15365,0.719858 -0.24587,1.451557 -0.35519,2.179466 -0.31994,2.130235 -0.60036,4.266227 -0.90841,6.398213 -0.15295,1.058576 -0.30952,2.116626 -0.46429,3.174939 0,0 -2.82906,-0.04673 -2.82906,-0.04673 z" />
    <path
       style="fill:#000000;fill-opacity:1;stroke:#000000;stroke-width:10;stroke-miterlimit:4;stroke-opacity:1;stroke-dasharray:none"
       id="path2830"
       d="m 441.41264,120.46881 c 0.0622,9.48603 -0.28115,18.9779 0.32191,28.44834 1.08896,10.26935 0.47556,20.61972 0.12939,30.91452 -0.0486,6.83037 -1.55226,13.53412 -2.49975,20.27626 -0.27503,2.0322 -0.54209,4.06576 -0.76483,6.10444 0,0 -2.85024,-0.032 -2.85024,-0.032 l 0,0 c 0.23724,-2.04081 0.51238,-4.07701 0.79385,-6.11213 0.96054,-6.73102 2.45941,-13.42604 2.52347,-20.24614 0.35828,-10.28527 0.97628,-20.6271 -0.11746,-30.88721 -0.60569,-9.47675 -0.25659,-18.97372 -0.36162,-28.46608 0,0 2.82528,0 2.82528,0 z" />
    <path
       style="fill:#000000;fill-opacity:1;stroke:#000000;stroke-width:10;stroke-miterlimit:4;stroke-opacity:1;stroke-dasharray:none"
       id="path2832"
       d="m 449.17021,165.01925 c 8.04283,5.00026 17.27072,7.57945 26.2393,10.37369 11.56788,3.85216 23.53377,5.6002 35.53255,7.41705 14.46978,2.21962 29.10015,2.92301 43.71306,3.36202 11.75157,-0.2281 23.41938,0.90697 35.09604,2.03155 5.10289,0.48706 10.21631,0.84723 15.33807,1.05394 -0.61139,-0.49609 2.95189,0.56642 2.36158,0.0454 -1.71029,-1.50951 -2.32132,-0.23478 -0.4934,-1.9982 3.61076,-3.94339 6.38565,-8.64881 9.11761,-13.22976 4.14057,-7.52648 8.51519,-14.92073 12.88539,-22.31511 2.64992,-3.35184 4.85687,-11.4275 8.45844,-13.69381 1.15899,0.52295 2.57762,0.67 3.47695,1.56884 0.35905,0.35885 0.51284,4.57891 0.58529,5.35775 0.42755,4.59612 0.98717,9.17714 1.39249,13.77726 0.90421,12.05689 1.13554,24.14972 1.31229,36.2349 0.4521,6.84803 1.04026,13.6764 3.7365,20.04162 0.20777,0.41237 0.31846,0.89028 0.62329,1.23712 0.20165,0.22943 1.12587,0.38385 0.82126,0.40647 -0.67272,0.05 -1.65518,0.26169 -1.99843,-0.31903 -0.27924,-0.47244 0.78932,-0.77954 1.07056,-1.2508 0.6662,-1.11628 1.98647,-4.6825 2.35404,-5.62381 4.23163,-11.19791 8.7807,-22.27623 12.81223,-33.54789 3.43824,-9.3625 7.40622,-18.54605 11.86319,-27.46974 5.1199,-8.87633 7.27255,-0.87684 8.00558,4.1498 0.54672,10.1296 1.73055,20.20599 2.53894,30.31701 0.40157,8.02124 0.73153,15.96225 2.38323,23.83437 -2.10331,0.55037 2.06515,1.71398 1.62883,1.19981 -0.43646,-0.51435 -1.66987,-0.38299 -1.72689,-1.05515 -0.0765,-0.90171 0.9915,-1.51536 1.44225,-2.30007 1.78433,-3.10637 2.25886,-4.32895 3.8672,-7.75721 5.88111,-13.6857 10.56067,-27.84105 15.8481,-41.75907 4.35009,-9.34338 7.51648,-19.39273 12.64681,-28.36164 6.80633,-5.947 5.24471,16.3598 5.24986,17.57511 0.0297,11.997 -1.42539,23.93818 -2.26088,35.89609 -0.44426,6.68691 -0.70363,13.38446 -0.81361,20.08477 -0.004,0.33888 -0.008,0.67777 -0.0122,1.01666 -5e-4,0.0423 0.035,0.14858 -10e-4,0.12703 -0.62473,-0.3694 -1.71102,-0.48338 -1.81576,-1.20155 -0.0445,-0.30503 4.87099,-4.82053 5.31239,-5.20743 5.92868,-4.81623 12.77071,-8.0998 19.58159,-11.42861 5.29126,-2.56275 10.87147,-4.44986 16.67371,-5.39151 4.24385,-0.76092 8.46043,-0.32477 12.25466,1.70035 3.49164,2.13255 7.42285,3.56201 11.36516,4.61467 7.81132,1.3372 15.62769,2.69332 23.50979,3.57401 9.49903,0.44492 18.89233,1.89691 28.33817,2.90438 5.98084,0.2563 11.73709,1.98562 17.56018,3.20994 2.62924,0.62645 5.33023,0.74062 8.02017,0.79128 2.73375,-0.20688 3.96433,1.47973 4.57158,3.89108 0.3342,4.64204 0.52009,9.22527 1.21065,13.8402 1.23257,7.45888 1.57177,15.01853 1.80694,22.56208 0.91449,7.85012 1.94672,15.67728 2.53885,23.56151 0.38956,6.20542 0.47735,12.42249 0.52129,18.63803 0.0167,4.21474 10e-4,8.42951 -0.003,12.64426 -0.0302,3.83163 -0.73174,5.68927 3.67494,5.71374 -0.24692,-0.13245 -0.98079,-0.25275 -0.74078,-0.39735 0.70455,-0.42447 1.60403,-0.36914 2.39391,-0.59861 5.02518,-1.45989 10.01746,-3.03026 14.9207,-4.85827 8.82663,-3.33039 17.71852,-6.27153 27.0092,-7.95281 4.89669,0.17687 9.5838,-2.95213 14.44269,-2.73869 1.43489,0.063 2.85627,0.30544 4.2844,0.45816 2.84342,2.93308 -1.87235,6.61304 -3.82592,8.54838 -5.84668,5.47417 -12.30863,10.2624 -18.69635,15.08228 -5.92326,4.95706 -12.50985,8.94603 -19.08345,12.94714 -4.51085,2.72856 -5.32856,4.04083 -0.70771,6.60283 5.77797,2.09343 11.9347,3.34401 17.97764,4.52541 6.4447,0.59321 12.6808,2.25982 19.01104,3.49537 3.13441,1.14591 8.51651,2.06612 8.42549,6.25046 -2.45417,5.0385 -7.98199,7.24772 -12.67435,9.71156 -6.24705,3.60523 -12.87036,6.50618 -19.36876,9.62021 -1.57433,1.26087 -8.76454,2.32683 -6.29904,5.2931 4.46247,1.89246 9.77505,1.56467 14.55197,1.68099 6.70367,0.10189 13.40841,0.0774 20.11259,0.0645 5.62187,-0.0245 11.2236,-0.17555 16.82174,0.35445 0.86678,2.7112 -5.74388,5.17294 -7.61868,6.22924 -5.9908,3.05538 -12.12897,5.82176 -18.09561,8.92269 -3.91277,2.07 -8.35628,3.51926 -11.66121,6.5565 -2.10933,2.31596 -2.00386,5.46286 -2.08463,8.40659 -0.0499,7.31271 0.006,14.62586 0.0239,21.93868 -0.44494,10.87929 -2.18433,21.61835 -3.60545,32.39345 -1.73616,11.05735 -3.71031,22.09005 -7.20954,32.73757 -2.21166,7.18841 -5.22847,14.09582 -7.49576,21.26193 -1.2012,2.94752 -1.19867,5.24253 0.063,8.07554 0.8429,0.65213 1.81224,4.49471 -1.81895,0.38779 -0.326,-0.3687 0.32572,-0.92892 0.47933,-1.39649 0.18687,-0.5688 0.36136,-1.14159 0.54203,-1.71238 0.16957,-0.67081 0.33915,-1.34162 0.50872,-2.01243 0,0 2.82853,0.0696 2.82853,0.0696 l 0,0 c -0.16846,0.6764 -0.33693,1.3528 -0.50539,2.0292 -0.70922,2.26883 -2.77519,7.32938 -4.8767,2.75237 -1.25393,-2.89832 -1.2689,-5.28378 -0.0398,-8.27962 2.27093,-7.16944 5.31027,-14.0731 7.52809,-21.26423 3.51239,-10.62642 5.48151,-21.64424 7.21574,-32.68525 1.41747,-10.76264 3.15499,-21.48913 3.59076,-32.35618 -0.026,-7.3155 -0.0895,-14.63122 -0.0559,-21.94672 0.071,-3.01204 -0.0245,-6.23008 2.08476,-8.63042 3.24641,-3.13076 7.76663,-4.55654 11.68965,-6.63175 5.95451,-3.11688 12.09952,-5.86508 18.09005,-8.91384 1.11557,-0.63153 8.52532,-4.05751 7.60606,-5.56575 0.53928,-0.10059 2.0249,0.066 1.61786,-0.30179 -0.41274,-0.37292 -11.57459,0.24995 -12.84602,0.0206 -8.55568,0.0143 -17.11209,0.0519 -25.66715,-0.0709 -4.75795,-0.12243 -10.29434,0.31007 -14.61268,-1.92918 -2.47183,-3.53075 4.32216,-4.37039 6.34039,-5.79321 6.49141,-3.12675 13.1359,-5.98639 19.37268,-9.60967 4.62805,-2.43114 10.03812,-4.55947 12.62686,-9.4141 0.12319,-3.93673 -5.52513,-4.79671 -8.37942,-5.85589 -6.32226,-1.25509 -12.56376,-2.86843 -18.99847,-3.49717 -6.05473,-1.2027 -12.25074,-2.41264 -18.01086,-4.61166 -4.6958,-2.68017 -3.82056,-4.51066 0.72087,-7.18976 6.56931,-4.00604 13.19,-7.94273 19.10191,-12.91734 6.37516,-4.81212 12.82653,-9.58946 18.6679,-15.04723 1.69784,-1.67392 6.63671,-5.40952 3.82507,-7.96113 0.44265,-0.13401 1.75722,-0.23001 1.32793,-0.40204 -2.487,-0.99664 -11.37863,3.36661 -14.46941,2.70717 -9.29317,1.64978 -18.18428,4.56523 -27.00562,7.90214 -7.13018,2.6862 -14.5175,5.39891 -22.15215,5.95172 -3.96688,-0.20254 -3.89351,-2.63163 -3.70492,-6.1499 0.0105,-4.21401 0.0216,-8.42806 0.0113,-12.64207 -0.0309,-6.20897 -0.11914,-12.41999 -0.50619,-18.61877 -0.5871,-7.88858 -1.62331,-15.71884 -2.53142,-23.57364 -0.24022,-7.53291 -0.58108,-15.08155 -1.82019,-22.52899 -0.69282,-4.60493 -0.88779,-9.17932 -1.23616,-13.81025 -0.63238,-2.38109 -1.90767,-3.72144 -4.53643,-3.52472 -2.69252,-0.0626 -5.39128,-0.20763 -8.02024,-0.84499 -5.80681,-1.23632 -11.55471,-2.93058 -17.52253,-3.18638 -9.44385,-1.01696 -18.83935,-2.44263 -28.33605,-2.9062 -7.89064,-0.89513 -15.72583,-2.23085 -23.54006,-3.61319 -3.95053,-1.09124 -7.87862,-2.52961 -11.38743,-4.67296 -1.59562,-0.80703 -1.25733,-0.72557 -2.88758,-1.22338 -4.21546,-1.28721 3.37522,-0.6596 -3.74832,-0.38701 -5.80727,0.89201 -11.3935,2.75709 -16.68816,5.30501 -6.79207,3.32403 -13.63322,6.56404 -19.55824,11.3569 -0.65891,0.57088 -9.41412,10.25909 -9.12478,5.0195 0.13831,-6.7051 0.40488,-13.40746 0.85983,-20.09911 0.84862,-11.94965 2.31234,-23.88478 2.2601,-35.8751 -0.0183,-3.148 -0.007,-6.78022 -0.14289,-9.94657 -0.052,-1.21462 -0.1124,-2.43041 -0.24313,-3.6391 -0.10079,-0.93188 -0.76732,-1.89339 -0.45067,-2.77561 0.30565,-0.85155 1.40018,-1.14707 2.07495,-1.74977 0.2771,-0.2475 -0.58715,0.45542 -0.88073,0.68313 -5.2455,8.89117 -8.3087,19.01351 -12.71847,28.31297 -5.29464,13.91798 -9.97033,28.07493 -15.80814,41.78101 -1.05366,2.26973 -6.43604,16.90804 -10.82227,9.84861 -1.62457,-7.887 -1.94628,-15.83913 -2.34409,-23.86999 -0.80992,-10.1053 -1.98989,-20.17624 -2.57,-30.2978 -0.25181,-1.66919 -0.43086,-3.80722 -1.13055,-5.4237 -0.19097,-0.44122 -1.08594,-0.77213 -0.83035,-1.17934 0.32741,-0.52162 1.33246,-0.7697 1.80834,-0.37877 0.94632,0.77739 -5.01068,1.49326 -2.22766,2.92167 -4.5031,8.89485 -8.45063,18.08634 -11.91081,27.43357 -4.02689,11.27068 -8.5696,22.34896 -12.76809,33.55689 -1.01586,2.63787 -4.42867,13.15034 -8.50804,5.55844 -2.65797,-6.41189 -3.2555,-13.26989 -3.69352,-20.15007 -0.15907,-12.07856 -0.38629,-24.16538 -1.31229,-36.21407 -0.41264,-4.60296 -0.98039,-9.18456 -1.42256,-13.78275 -0.0973,-1.01171 -0.0981,-2.03184 -0.21377,-3.04161 -0.0854,-0.74586 -0.72391,-1.54677 -0.38853,-2.21842 0.38507,-0.77117 1.45735,-0.92091 2.18603,-1.38137 -3.2521,1.50028 -6.20708,10.65935 -8.49153,13.53896 -4.37631,7.38924 -8.74997,14.78325 -12.87594,22.31631 -2.73106,4.60098 -5.51209,9.31909 -9.09617,13.30549 -2.03057,1.99104 -4.7812,2.39594 -7.50274,2.15893 -5.10859,-0.2193 -10.20888,-0.58523 -15.2988,-1.07546 -11.66223,-1.12904 -23.31749,-2.23174 -35.05422,-2.01937 -14.61819,-0.44683 -29.25268,-1.16553 -43.72662,-3.39344 -12.01036,-1.81144 -23.97907,-3.6035 -35.55576,-7.45648 -8.99379,-2.80077 -18.23262,-5.41733 -26.28724,-10.44901 0,0 2.81068,-0.27712 2.81068,-0.27712 z" />
    <path
       style="fill:#000000;fill-opacity:1;stroke:#000000;stroke-width:10;stroke-miterlimit:4;stroke-opacity:1;stroke-dasharray:none"
       id="path2834"
       d="m 849.16564,509.6486 c 12.09463,1.66467 24.33525,1.87992 36.52289,2.18029 15.50873,0.30194 31.021,0.32181 46.53209,0.33621 8.0865,0.002 16.17299,-0.007 24.25948,-0.0173 5.75007,-0.12092 1.55925,0.43702 -1.12805,0.43593 -4.14777,0.1082 -8.25036,-0.76367 -12.34674,-1.31443 0,0 2.78028,-0.40225 2.78028,-0.40225 l 0,0 c 4.10038,0.55394 8.20954,1.40044 12.36326,1.27376 2.74161,-3.2e-4 6.89664,0.56216 1.11856,0.44818 -9.92561,0.007 -19.85122,0.0146 -29.77683,0.008 -15.50732,-0.017 -31.01583,-0.0396 -46.52073,-0.34462 -12.21569,-0.3041 -24.48503,-0.52332 -36.60575,-2.20758 0,0 2.80154,-0.39641 2.80154,-0.39641 z" />
    <path
       style="fill:#000000;fill-opacity:1;stroke:#000000;stroke-width:10;stroke-miterlimit:4;stroke-opacity:1;stroke-dasharray:none"
       id="path2836"
       d="m 801.26996,557.85584 c 15.64698,0.007 31.29397,0.006 46.94095,0.008 22.32407,0.002 44.64814,10e-4 66.97221,9.3e-4 19.24704,-2e-4 38.49407,-10e-4 57.74111,-0.003 9.74768,-0.002 19.49537,-0.002 29.24307,-0.006 0.6559,0.18562 5.2199,-0.54667 4.7852,0.44393 -1.3017,-0.25465 -2.6034,-0.5093 -3.9051,-0.76396 0,0 2.8257,-0.28568 2.8257,-0.28568 l 0,0 c -0.58,0.20103 -1.16,0.40206 -1.74,0.6031 0.4383,0.99219 -4.097,0.25711 -4.75213,0.44392 -9.7241,-0.003 -19.44819,-0.004 -29.17228,-0.006 -19.23396,-0.002 -38.46791,-0.003 -57.70186,-0.003 -22.32798,-2.4e-4 -44.65596,-7.9e-4 -66.98393,9.3e-4 -15.67965,0.001 -31.35929,0.001 -47.03893,0.008 0,0 2.78599,-0.44126 2.78599,-0.44126 z" />
    <path
       style="fill:#000000;fill-opacity:1;stroke:#000000;stroke-width:10;stroke-miterlimit:4;stroke-opacity:1;stroke-dasharray:none"
       id="path2838"
       d="m 906.78705,568.72184 c -1.30484,7.75325 -1.81857,15.60509 -2.20621,23.44825 -0.23835,7.37088 -0.0726,14.69864 -1.14957,22.00485 -1.04576,5.86226 -1.56525,11.78718 -1.84322,17.72907 -0.34432,5.70419 0.13795,11.43952 -0.54081,17.11534 -1.21385,6.22243 -1.8068,12.52287 -2.18038,18.84357 -0.32601,6.64586 -0.32394,13.30183 -0.3366,19.95393 -0.004,5.52435 0.013,11.04869 0.0185,16.57304 0.004,4.67381 0.005,9.34763 0.009,14.02144 0.004,3.78991 -10e-4,7.57981 9.3e-4,11.36971 0.23129,3.52523 -0.12843,6.68001 -2.53464,9.37142 -4.45933,1.9839 -9.42257,2.98373 -14.24068,3.74514 -8.63484,0.98552 -17.34309,1.0188 -26.02295,1.10483 -9.78298,0.0569 -19.56622,0.0353 -29.34932,0.024 -7.73586,0.43503 -15.36378,-0.83159 -23.01287,-1.75248 -5.62567,-0.66338 -11.28595,-0.93675 -16.9454,-1.0851 -5.87346,-0.0731 -2.19237,0.1525 -7.89539,-0.78361 -0.7305,-0.43406 -1.461,-0.86811 -2.1915,-1.30217 0,0 2.80797,-0.29368 2.80797,-0.29368 l 0,0 c 0.73232,0.4205 1.46463,0.841 2.19695,1.2615 -3.89893,2.1298 6.30135,0.10581 7.87765,0.68292 5.65466,0.15786 11.30969,0.44261 16.92979,1.11401 7.64368,0.92657 15.26949,2.15015 22.9998,1.72069 7.94037,0.009 15.88085,0.0302 23.82114,-0.0207 8.67106,-0.0821 17.36858,-0.11529 25.99756,-1.06762 4.81257,-0.73636 9.65543,-1.81248 14.19564,-3.55808 2.43892,-2.59923 2.75953,-5.68933 2.53462,-9.1611 0.002,-3.78989 -0.003,-7.57978 5.7e-4,-11.36967 0.003,-4.67373 10e-4,-9.34746 -0.003,-14.02119 -0.006,-5.52463 -0.0118,-11.04927 -0.007,-16.57392 0.015,-6.65739 0.007,-13.31889 0.33596,-19.96997 0.37477,-6.32557 0.95761,-12.63359 2.17497,-18.86066 0.68475,-5.668 0.19143,-11.39797 0.54058,-17.0948 0.27849,-5.95139 0.79761,-11.88614 1.84888,-17.75721 1.08328,-7.29624 0.92316,-14.61539 1.15832,-21.97747 0.39368,-7.85299 0.91452,-15.71233 2.18165,-23.48104 0,0 2.82906,0.0467 2.82906,0.0467 z" />
    <path
       style="fill:#000000;fill-opacity:1;stroke:#000000;stroke-width:10;stroke-miterlimit:4;stroke-opacity:1;stroke-dasharray:none"
       id="path2840"
       d="m 544.26978,177.61167 c -0.0203,8.93794 -0.0149,17.87591 -0.0171,26.81387 0.35886,10.88532 -1.69758,21.60428 -3.3673,32.30483 -1.21328,9.38284 -3.06412,18.66725 -5.12768,27.89462 -1.86491,7.74915 -3.27094,15.61797 -5.1775,23.35398 -1.38882,5.04433 -2.45766,10.16157 -3.15769,15.34478 -0.0533,2.06064 -0.32287,3.0707 -1.96412,4.31271 -3.51671,2.22163 -6.91481,4.64287 -10.50439,6.75912 -4.08712,2.47683 -8.43464,4.41032 -12.7059,6.53379 -3.01418,2.20349 -6.58373,3.74819 -9.19724,6.45989 -1.41665,2.87742 2.23134,4.95827 4.43086,5.97272 4.54949,2.01407 9.2716,3.67484 13.97193,5.323 4.3383,1.13979 7.95814,3.36452 11.32601,6.24877 2.99405,2.77245 5.85221,5.76849 9.41695,7.80156 3.54519,1.46556 7.09766,3.01898 10.82249,3.99102 2.1452,1.10021 6.52816,-0.28596 7.752,2.08622 -1.36321,1.99686 -5.13411,2.73256 -7.39768,3.42822 -4.26787,2.07332 -8.83478,3.34097 -13.33081,4.80664 -5.59682,1.64951 -11.13998,3.482 -16.6636,5.36572 -4.66601,1.50623 -9.10256,3.61427 -13.53251,5.69179 -3.30889,1.74694 -5.18192,1.10806 -2.38381,4.20679 2.94379,2.53176 6.69158,3.28773 10.42947,3.75413 5.44879,-0.008 10.73685,0.77891 16.08347,1.72186 4.45468,0.31303 8.24985,1.79568 12.03884,4.019 3.35753,1.61258 6.84269,3.07089 9.95314,5.13038 1.77474,1.22437 5.66128,2.18334 3.33708,4.60483 -3.38054,1.89956 -7.09509,3.28519 -10.67759,4.80335 -5.78308,2.48247 -11.23306,5.59216 -16.63325,8.80585 -4.45175,2.8481 -9.4716,4.39142 -14.32261,6.36106 -2.87435,0.84397 -4.29507,2.346 -0.98184,3.71947 3.78811,1.636 7.81936,2.45685 11.75325,3.64097 5.63837,2.02644 11.62711,2.31885 17.47022,3.32734 6.08717,1.2326 12.24577,1.75664 18.24867,3.35918 3.73496,1.248 7.61966,1.82198 11.52807,2.14859 3.48082,-0.19304 1.38225,1.51068 -0.44689,2.2837 -3.32698,0.84975 -6.71511,1.12469 -10.06536,1.91065 -5.44917,1.22472 -10.76987,2.99528 -16.0605,4.77817 -4.6898,1.34751 -9.24963,3.23281 -13.46873,5.6878 -2.90925,1.46929 -3.7149,3.87167 -4.12736,6.89463 -0.66455,3.97725 0.23139,7.69551 1.12701,11.53457 0.95885,3.58846 1.32346,7.27237 1.52654,10.96746 0.14011,3.73115 0.1196,7.46591 0.11826,11.19899 -0.005,2.98812 -0.0115,5.97625 -0.0105,8.96438 -0.2669,4.25159 -3.06551,0.58335 -3.65344,-1.84706 0,0 2.83018,-0.0688 2.83018,-0.0688 l 0,0 c 1.07029,4.21089 -2.2913,4.46249 -2.02107,1.91539 0.0109,-2.98805 0.0165,-5.97612 0.022,-8.96418 0.006,-3.72784 0.0207,-7.45748 -0.11939,-11.18331 -0.19839,-3.67872 -0.57168,-7.34477 -1.52006,-10.91791 -0.90682,-3.87016 -1.79013,-7.62883 -1.1367,-11.63782 0.41515,-3.07362 1.18558,-5.63335 4.14887,-7.15067 4.21925,-2.48085 8.78256,-4.40278 13.48894,-5.7436 5.29219,-1.78064 10.60679,-3.5739 16.0546,-4.80538 3.34411,-0.79445 6.69554,-1.13808 10.04432,-1.86838 1.70974,-0.67957 3.81745,-1.67053 0.46515,-1.52914 -3.90843,-0.34609 -7.78438,-0.96089 -11.52201,-2.19901 -5.99844,-1.58164 -12.16013,-2.09138 -18.2351,-3.33509 -5.85674,-0.97711 -11.83997,-1.33688 -17.48492,-3.35963 -3.95334,-1.15801 -7.97721,-2.02991 -11.77439,-3.67684 -3.2587,-1.58565 -2.1558,-3.54482 0.99425,-4.37898 4.85084,-1.96261 9.86893,-3.49525 14.33282,-6.31656 5.39781,-3.22782 10.84993,-6.3425 16.62863,-8.84553 3.5698,-1.50329 7.21031,-2.95376 10.64632,-4.70569 2.35486,-1.96317 -1.95558,-3.00632 -3.32314,-4.09148 -3.14535,-2.00629 -6.5984,-3.4893 -9.94932,-5.11754 -3.77162,-2.20587 -7.60858,-3.5679 -12.01569,-3.92072 -5.34673,-0.94456 -10.64632,-1.65645 -16.08928,-1.70788 -3.77277,-0.50492 -7.54182,-1.32957 -10.46274,-3.95223 -2.89129,-3.20379 -0.80341,-3.19882 2.40764,-4.7348 4.44205,-2.0686 8.86839,-4.2192 13.54517,-5.72123 5.5246,-1.87915 11.06033,-3.73248 16.65978,-5.3701 4.49571,-1.45938 9.07473,-2.70328 13.32393,-4.81336 2.42024,-0.72161 5.30071,-1.52847 7.35837,-2.91956 -1.36494,-2.09589 -5.68209,-0.66002 -7.71222,-1.86489 -3.72116,-1.01165 -7.30416,-2.53677 -10.83213,-4.06575 -3.53786,-2.09601 -6.41289,-5.07652 -9.41959,-7.85227 -3.36321,-2.85333 -7.01039,-4.99406 -11.31134,-6.14614 -4.70049,-1.67018 -9.43857,-3.30377 -13.98333,-5.35176 -2.39285,-1.17883 -5.89844,-3.41526 -4.44866,-6.50552 2.57829,-2.79001 6.21531,-4.296 9.22073,-6.55851 4.27452,-2.11289 8.61169,-4.05501 12.70677,-6.51388 3.59374,-2.0924 6.96586,-4.53234 10.48146,-6.73465 1.68101,-1.1474 1.88253,-2.03912 1.96024,-4.08238 0.71859,-5.19186 1.78647,-10.32042 3.18362,-15.37437 1.9188,-7.73123 3.31979,-15.60072 5.18755,-23.34745 2.06165,-9.22236 3.93068,-18.49791 5.14121,-27.87625 1.67504,-10.68515 3.72428,-21.39092 3.36143,-32.26162 -0.002,-8.93796 0.003,-17.87593 -0.0171,-26.81387 0,0 2.82527,0 2.82527,0 z" />
    <path
       style="fill:#000000;fill-opacity:1;stroke:#000000;stroke-width:10;stroke-miterlimit:4;stroke-opacity:1;stroke-dasharray:none"
       id="path2842"
       d="m 478.07614,518.21709 c 9.15602,1.28923 18.39373,1.81506 27.62528,2.18223 9.31147,0.31393 18.62959,0.321 27.94524,0.33468 6.19469,0.002 12.38938,-0.009 18.58407,-0.0143 5.15817,0.0804 10.45145,-0.54083 15.36278,1.33617 4.57684,1.86473 -0.2745,1.92569 -0.65089,-1.17486 0,0 2.83869,-0.033 2.83869,-0.033 l 0,0 c 0.42969,3.82793 -3.07885,2.69108 -5.00584,1.55125 -0.97118,-0.35567 -2.15021,-0.28338 -2.96186,-0.9244 -0.20167,-0.15927 0.95457,-0.27167 0.70195,-0.31881 -2.41649,-0.45091 -5.07197,0.3742 -7.50329,0.004 -8.04287,0.006 -16.08574,0.0176 -24.12861,0.0112 -9.31448,-0.0157 -18.63153,-0.0241 -27.9416,-0.34616 -9.24423,-0.37542 -18.49333,-0.91496 -27.66208,-2.20564 0,0 2.79616,-0.40228 2.79616,-0.40228 z" />
    <path
       style="fill:#000000;fill-opacity:1;stroke:#000000;stroke-width:10;stroke-miterlimit:4;stroke-opacity:1;stroke-dasharray:none"
       id="path2844"
       d="m 423.78759,552.1412 c 10.63778,0.26085 21.2134,-0.0704 31.81766,-0.79946 14.61549,-1.12919 29.26601,-1.59803 43.91868,-1.86503 14.44523,-0.9084 28.87368,-1.97605 43.33809,-2.54218 10.38353,0.1404 20.66094,-1.05454 30.95287,-2.22743 5.93706,-0.76104 11.83644,-1.14899 17.8018,-0.74357 2.6709,0.79574 5.34846,1.54406 8.0688,2.1562 3.11016,0.27673 -1.72021,1.72555 -1.03317,-2.38232 0,0 2.8365,0.0462 2.8365,0.0462 l 0,0 c -0.37083,2.30035 -2.37098,3.43265 -4.62269,2.71828 -2.71173,-0.6234 -5.37597,-1.40132 -8.05581,-2.14214 0.36802,-0.0904 1.4753,-0.19503 1.10408,-0.27126 -4.23812,-0.87032 -9.07187,1.38893 -13.32429,1.02607 -10.30702,1.1676 -20.59664,2.40015 -30.99592,2.24186 -14.46775,0.55905 -28.90009,1.61321 -43.34688,2.54662 -14.64865,0.26326 -29.29571,0.72259 -43.90715,1.85257 -12.43824,0.86508 -24.87887,0.95199 -37.34306,0.8276 0,0 2.79049,-0.44197 2.79049,-0.44197 z" />
    <path
       style="fill:#000000;fill-opacity:1;stroke:#000000;stroke-width:10;stroke-miterlimit:4;stroke-opacity:1;stroke-dasharray:none"
       id="path2846"
       d="m 521.41264,549.04024 c -0.0258,9.71771 -0.0176,19.43547 -0.0189,29.15321 0.46508,9.37189 -0.76272,18.656 -1.71413,27.95338 -0.77407,7.20929 -0.97455,14.45852 -1.09298,21.70255 0.0333,6.16134 -1.39206,12.20712 -2.12066,18.30726 -0.49055,5.75419 -0.57716,11.46817 -1.58121,17.16272 -1.1058,4.74413 -1.58537,9.57679 -1.86967,14.4283 -0.18787,3.95537 -0.18921,7.91622 -0.19066,11.87507 0.0988,3.38838 0.17184,6.64802 -0.7964,9.91487 -1.24644,2.77522 -0.20866,5.33067 1.84884,7.34601 3.11538,2.03856 6.79272,2.16794 10.39184,2.3654 4.87552,1.28174 9.81128,2.01244 14.82844,2.42326 5.31544,-0.3258 13.91138,1.64169 18.80674,0.15539 8.38116,-1.11821 16.79461,-1.83001 25.23933,-2.20539 10.67939,-0.39945 21.3605,-0.45582 32.03602,-0.003 10.51108,1.20245 21.10169,1.47865 31.61843,2.5533 10.03121,1.07788 20.03218,2.12308 29.91579,4.19027 9.80546,2.06939 19.36511,5.12087 29.12978,7.35797 8.3281,2.41216 16.88223,3.79876 25.29807,5.838 5.61505,1.35685 11.20125,3.02686 16.66701,4.90749 3.94015,1.30925 7.74849,2.89843 11.599,4.44246 3.32649,1.94278 6.88504,3.32727 10.36181,4.95909 4.15556,1.36911 8.36963,2.35207 12.40013,4.10425 4.70861,1.70194 9.36195,3.60572 14.13661,5.12266 3.14608,0.6896 6.38461,1.56001 9.63136,1.62093 0.17972,0.003 -0.6449,-0.082 -0.50353,-0.19304 0.5941,-0.46663 1.35374,-0.67093 2.03062,-1.0064 0.55506,-0.77602 1.11012,-1.55205 1.66518,-2.32807 0,0 2.81305,0.17118 2.81305,0.17118 l 0,0 c -0.55617,0.82149 -1.11233,1.64298 -1.66849,2.46447 -5.05756,2.76446 -11.43722,0.7978 -16.76964,-0.37411 -4.76965,-1.54506 -9.43974,-3.41428 -14.14037,-5.14923 -4.04478,-1.71413 -8.27443,-2.67784 -12.40794,-4.11315 -3.46926,-1.63735 -7.02554,-3.02879 -10.36078,-4.94281 -3.84151,-1.54931 -7.65728,-3.11229 -11.58784,-4.42834 -5.47386,-1.84194 -11.02946,-3.56001 -16.64938,-4.88411 -8.40998,-2.03596 -16.9578,-3.42896 -25.28025,-5.83719 -9.75853,-2.25686 -19.32191,-5.29216 -29.12837,-7.35214 -9.88346,-2.03924 -19.88104,-3.08604 -29.90716,-4.16214 -10.51891,-1.04805 -21.105,-1.364 -31.61746,-2.54275 -8.75312,-1.10752 -17.72213,0.16099 -26.5176,0.0102 -8.44092,0.36645 -16.85327,1.05655 -25.22815,2.1953 -8.12007,0.41642 -16.249,0.41278 -24.36636,-0.15334 -5.02112,-0.42549 -9.94574,-1.21826 -14.84258,-2.41371 -3.63365,-0.21655 -7.34503,-0.3911 -10.42223,-2.57148 -2.03591,-2.13102 -3.14367,-4.79519 -1.85404,-7.64925 0.97909,-3.23812 0.88702,-6.46969 0.79663,-9.83251 10e-4,-3.96443 0.0125,-7.93079 0.19742,-11.89173 0.29196,-4.86178 0.75649,-9.7083 1.87866,-14.46079 1.00595,-5.68911 1.09106,-11.39767 1.58132,-17.14696 0.7272,-6.09112 2.15336,-12.12681 2.12685,-18.27844 0.12247,-7.25204 0.31939,-14.51005 1.10347,-21.72658 0.95928,-9.28746 2.1879,-18.56179 1.72792,-27.92468 -10e-4,-9.71774 0.007,-19.4355 -0.0189,-29.15321 0,0 2.82528,0 2.82528,0 z" />
    <path
       style="fill:#000000;fill-opacity:1;stroke:#000000;stroke-width:10;stroke-miterlimit:4;stroke-opacity:1;stroke-dasharray:none"
       id="path2848"
       d="m -87.158793,214.75453 c -0.02192,9.48571 -0.01781,18.97147 -0.01975,28.45721 -2.85e-4,11.69034 -0.0053,23.38069 -0.0056,35.07104 -0.0037,12.35327 -3.24e-4,24.70653 0.0034,37.0598 9.82e-4,10.15199 0.0028,20.30399 0.0088,30.45598 -0.0032,7.13212 0.0075,14.26424 0.01066,21.39636 0.0056,3.67435 0.0041,7.34871 0.01005,11.02306 -0.176442,1.94788 0.766121,3.59045 2.071472,4.95107 1.070655,0.70543 0.50733,1.37682 -0.03251,2.38127 -2.208022,3.12486 -5.248369,5.26586 -8.367147,7.3935 -4.627415,3.6901 -9.207882,7.41744 -13.610532,11.3761 -5.60549,4.14426 -10.78291,8.73119 -15.85973,13.4877 -2.61612,3.01051 -8.66121,4.13911 -9.61695,8.31792 1.62788,2.7409 5.59627,3.52332 8.47988,4.34993 6.81348,1.4172 13.80342,1.48251 20.73257,1.6202 8.120191,0.10558 16.241297,0.0802 24.361958,0.0714 7.480377,-0.0103 14.960755,-0.0185 22.441137,-0.0227 5.422824,-0.3489 10.682055,0.60249 15.848427,2.1055 1.971303,1.30111 -3.237879,1.33598 -3.967422,1.49542 -4.706623,1.09822 -9.353413,2.2902 -13.939591,3.832 -6.524552,2.18024 -12.919342,4.72551 -19.455656,6.87719 -6.509973,2.25995 -12.808325,5.03691 -19.372047,7.14194 -3.177236,1.86146 -7.885866,2.04486 -10.401576,4.89035 -0.66686,2.37429 5.10215,2.00318 6.5142,2.09093 6.162147,0.46081 12.246226,1.67143 18.413062,2.25059 7.451891,0.50292 14.872504,0.51834 22.273643,1.57485 6.956395,1.04823 13.970364,1.56928 20.99423,1.85734 5.470024,-0.13878 10.756652,0.25276 16.074054,1.51331 1.738433,0.20875 6.901489,1.10013 3.871582,3.49982 -3.976229,2.31611 -8.238674,4.0588 -12.660771,5.31194 -5.94304,1.96717 -11.983051,3.59449 -17.903657,5.63124 -6.578061,2.39778 -13.394056,4.05863 -20.019035,6.29001 -4.90045,2.12519 -10.210066,2.75863 -15.329027,4.07103 -2.44012,1.38207 -6.852732,0.79487 -8.558042,3.25737 0.247422,1.64326 4.322327,2.68246 5.83207,3.20278 4.807072,1.47408 9.603028,2.81933 14.561774,3.70196 4.215463,1.20564 8.594913,2.12806 12.079976,4.91492 1.262737,1.3265 2.779045,2.75786 3.119369,4.63253 0.376023,2.49089 -0.139638,4.81851 -0.774027,7.21362 -0.932723,5.09341 -2.082448,10.12256 -3.204419,15.17989 -0.550358,4.89848 -2.188551,9.53453 -3.39368,14.28486 -0.808059,3.54706 -1.067362,7.17333 -1.190139,10.79818 -0.0637,2.92168 -0.04409,5.84439 -0.03212,8.76651 -0.246822,2.21549 0.374772,3.94536 1.738943,5.65164 -3.866198,-0.60215 -2.895936,0.0893 -4.804003,-2.96013 0,0 2.816723,-0.15854 2.816723,-0.15854 l 0,0 c 1.904069,3.00082 2.266933,1.92084 -0.854337,3.30731 -1.349321,-1.76891 -1.986317,-3.58439 -1.736243,-5.83928 -0.0085,-2.92576 -0.03127,-5.85202 0.03414,-8.77734 0.129232,-3.64506 0.389385,-7.29073 1.198905,-10.85853 1.201258,-4.74905 2.859612,-9.37792 3.403513,-14.27613 1.119466,-5.06125 2.275814,-10.09135 3.191883,-15.19156 0.62049,-2.35521 1.139387,-4.63696 0.756917,-7.08637 -0.367783,-1.79718 -1.867728,-3.16719 -3.092701,-4.42998 -3.514357,-2.68394 -7.859664,-3.62051 -12.055504,-4.7795 -4.960733,-0.90117 -9.763151,-2.26437 -14.575734,-3.74585 -1.700552,-0.6101 -5.841062,-1.58714 -5.86336,-3.71203 1.572106,-2.67068 6.09537,-2.09928 8.598621,-3.46674 5.10386,-1.36571 10.445119,-1.89418 15.339199,-4.04948 6.61338,-2.26514 13.447035,-3.87858 20.021918,-6.28801 5.91334,-2.05943 11.958453,-3.6639 17.895772,-5.64941 4.414254,-1.21863 8.647936,-2.94765 12.625497,-5.22273 3.097991,-1.77654 -2.696009,-2.73203 -3.843807,-2.84607 -5.308378,-1.23809 -10.600423,-1.56191 -16.052065,-1.46254 -7.02396,-0.29881 -14.03671,-0.83581 -20.993138,-1.8856 -7.399845,-1.03788 -14.825067,-1.02584 -22.270808,-1.56226 -6.169429,-0.59318 -12.258127,-1.81049 -18.430754,-2.23947 -1.7031,-0.11603 -7.45673,0.23011 -6.55474,-2.71394 2.41712,-3.00207 7.24431,-3.15092 10.44104,-5.04635 6.574706,-2.08439 12.875649,-4.85644 19.38132,-7.13854 6.541013,-2.13163 12.927915,-4.69348 19.449807,-6.87508 4.579157,-1.56245 9.217434,-2.76388 13.922871,-3.86137 0.586258,-0.1477 5.858137,-0.30714 3.96056,-0.75151 -3.617126,-1.03969 -6.902771,-2.09444 -10.251612,-2.03053 -7.486339,0.003 -14.972676,0.01 -22.45901,0.0197 -9.964363,0.0113 -19.929419,0.0449 -29.893276,-0.0757 -6.94162,-0.14381 -13.95003,-0.21156 -20.76576,-1.69021 -2.98657,-0.8824 -7.12043,-1.68693 -8.51747,-4.77459 0.9264,-4.32047 6.86832,-5.5034 9.65258,-8.4863 5.0878,-4.74542 10.22786,-9.38097 15.86284,-13.49266 4.40104,-3.9709 8.98493,-7.70268 13.602291,-11.41493 3.089607,-2.10697 6.111372,-4.1963 8.335326,-7.25838 0.551944,-1.05079 0.989437,-1.27796 0.03149,-2.0291 -1.301685,-1.44345 -2.243458,-3.159 -2.069537,-5.16436 0.006,-3.67435 0.0045,-7.34871 0.01005,-11.02306 0.0032,-7.13212 0.01386,-14.26424 0.01066,-21.39636 0.006,-10.15199 0.0078,-20.30399 0.0088,-30.45598 0.0037,-12.35327 0.0071,-24.70653 0.0034,-37.0598 -2.87e-4,-11.69035 -0.0053,-23.3807 -0.0056,-35.07104 -0.0019,-9.48574 0.0022,-18.9715 -0.01975,-28.45721 0,0 2.825271,0 2.825271,0 z" />
    <path
       style="fill:#000000;fill-opacity:1;stroke:#000000;stroke-width:10;stroke-miterlimit:4;stroke-opacity:1;stroke-dasharray:none"
       id="path2850"
       d="m -159.40341,575.72667 c 8.45257,2.96182 17.05376,5.08536 25.90044,6.43725 10.33733,2.03425 20.81584,3.12496 31.23806,4.61439 11.329248,1.61268 22.594039,3.46314 34.004027,4.44308 11.148358,0.8093 22.331426,0.88723 33.503584,0.94857 8.656126,0.026 17.312296,0.002 25.9684273,-0.0103 7.4905328,-0.39419 14.8627883,0.32491 22.2025707,1.72945 0.65088,0.32811 5.039864,0.46061 4.754125,1.45426 -5.172845,-0.73364 -3.046508,-0.21261 -6.455214,-1.21048 0,0 2.806733,-0.36162 2.806733,-0.36162 l 0,0 c 2.38222,0.72156 2.553904,0.25604 0.811615,1.24777 0.167719,0.38811 -4.13598,-0.61579 -4.717174,-0.74049 -5.5657983,-1.06116 -10.93164445,-2.20177 -16.6386095,-1.68148 -10.4952065,0.0134 -20.9904635,0.0381 -31.4856595,0.007 -11.171354,-0.0649 -22.353857,-0.14846 -33.500531,-0.97175 -11.409843,-0.99438 -22.676428,-2.85395 -34.008514,-4.45807 -10.42531,-1.48992 -20.90648,-2.58439 -31.2476,-4.61608 -8.85838,-1.37491 -17.47003,-3.53304 -25.94259,-6.47949 0,0 2.80631,-0.35236 2.80631,-0.35236 z" />
    <path
       style="fill:#000000;fill-opacity:1;stroke:#000000;stroke-width:10;stroke-miterlimit:4;stroke-opacity:1;stroke-dasharray:none"
       id="path2852"
       d="m -107.97483,621.44096 c 7.05607,2.30253 14.372232,3.54848 21.730513,4.3597 5.753189,0.0663 11.329439,1.23238 16.929153,2.41408 1.644954,0.35066 3.289797,0.70214 4.930253,1.07336 0,0 -2.828266,0.38299 -2.828266,0.38299 l 0,0 c -1.632184,-0.3693 -3.267835,-0.72305 -4.90446,-1.0721 -5.591146,-1.18201 -11.166017,-2.29165 -16.906791,-2.38964 -7.36828,-0.83296 -14.690852,-2.10605 -21.756722,-4.41603 0,0 2.80632,-0.35236 2.80632,-0.35236 z" />
    <path
       style="fill:#000000;fill-opacity:1;stroke:#000000;stroke-width:10;stroke-miterlimit:4;stroke-opacity:1;stroke-dasharray:none"
       id="path2854"
       d="m -84.30165,629.04024 c -0.02654,10.15156 -0.02257,20.3032 -0.01926,30.45479 0.0025,9.05537 0.0048,18.11075 0.0089,27.16612 5.53e-4,6.06137 0.0085,12.12274 0.0098,18.18411 -0.55146,4.43779 -1.693902,8.76689 -2.335545,13.19102 -0.311676,3.14642 -0.358744,6.1719 -1.341771,9.189 -1.274407,3.65353 -1.634987,7.47001 -1.859933,11.30388 -0.074,4.50774 -1.494239,8.84978 -2.265529,13.27124 -0.211255,4.00431 -1.006615,7.8072 -2.058456,11.65897 -0.796516,3.65421 -2.517516,6.99913 -3.549993,10.59364 -0.364527,3.64371 2.019213,5.15649 4.804932,6.89521 4.470328,1.84021 9.120214,3.26849 13.857803,4.25371 7.096644,1.10793 14.298032,1.13853 21.462328,1.22529 8.954723,0.0599 17.909765,0.0315 26.864608,0.0224 12.5949,0.36698 25.13382,-0.9474 37.6878369,-1.72928 14.5501721,-1.47194 29.1225361,-2.63856 43.6583101,-4.24568 14.01954,-1.48351 27.989328,-3.40888 41.956065,-5.32213 13.540544,-1.50587 27.104824,-2.76539 40.662574,-4.12798 11.89873,-1.18249 23.85495,-1.49693 35.80302,-1.67716 11.04449,0.29571 22.00628,-0.36528 32.99396,-1.36499 9.94422,-0.9364 19.92637,-1.27111 29.90808,-1.45841 9.64679,-0.46286 19.12922,-2.21512 28.64395,-3.72438 9.18257,-1.38154 18.46354,-1.77323 27.73326,-2.00167 8.95596,-0.13089 17.83766,-1.49365 26.76553,-2.17034 8.76406,-0.61011 17.552,-0.70382 26.33352,-0.76694 8.78976,0.37663 17.49271,-0.89333 26.21838,-1.7227 7.98671,-0.27155 15.83449,-1.69645 23.72849,-2.80313 6.13257,-0.71346 12.09025,-2.35567 18.2051,-3.22157 5.81499,-1.05402 11.42069,-2.87611 17.10511,-4.43646 4.74317,-2.07614 9.81522,-3.09449 14.7063,-4.6746 3.98742,-1.68518 8.28716,-2.16083 12.447,-3.17281 4.47428,-1.18679 8.8816,-2.58846 13.35003,-3.79728 5.53015,-1.35687 10.95097,-2.97881 16.58761,-3.87027 6.49572,-1.51901 13.06486,-2.60761 19.5829,-4.01925 6.78354,-1.00987 13.39281,-2.84304 20.12585,-4.10908 6.29756,-1.52881 9.64267,-3.01578 12.27481,-9.15445 0.34058,-1.45924 0.68116,-2.91848 1.02175,-4.37772 0,0 2.79623,0.0634 2.79623,0.0634 l 0,0 c -0.33645,1.47554 -0.6729,2.95108 -1.00935,4.42662 -2.61041,6.27237 -5.8893,7.8356 -12.29514,9.43121 -6.73915,1.24635 -13.34247,3.10858 -20.13128,4.10018 -6.51773,1.40897 -13.08438,2.50061 -19.57522,4.03691 -5.63916,0.86673 -11.05501,2.47772 -16.58002,3.84069 -4.4733,1.19157 -8.87182,2.61705 -13.34607,3.80282 -4.14279,1.06074 -8.46552,1.44199 -12.44447,3.15213 -4.87229,1.63743 -9.99578,2.53551 -14.71707,4.68797 -5.69357,1.54566 -11.29429,3.39232 -17.10942,4.47215 -6.12256,0.84549 -12.08007,2.49157 -18.21286,3.22056 -7.90089,1.0964 -15.74971,2.5582 -23.74343,2.81345 -8.72743,0.82379 -17.42947,2.12547 -26.22057,1.7471 -8.78129,0.0605 -17.56895,0.14823 -26.33342,0.7477 -8.92945,0.66697 -17.81037,2.03421 -26.76489,2.18484 -9.26884,0.2202 -18.54941,0.59811 -27.73313,1.96419 -9.51989,1.50115 -19.00043,3.27569 -28.6499,3.76256 -9.98234,0.18188 -19.96558,0.5064 -29.9109,1.43758 -10.99147,1.0008 -21.95446,1.70014 -33.00402,1.38483 -11.94964,0.17508 -23.90769,0.47982 -35.80887,1.65239 -13.56061,1.3564 -27.12497,2.63293 -40.670101,4.11677 -13.968062,1.91114 -27.937441,3.84735 -41.958231,5.32904 -14.535499,1.60841 -29.107007,2.77362 -43.6557584,4.2595 -12.5490551,0.77771 -25.0815506,2.11233 -37.6711616,1.74901 -10.794529,0.0116 -21.589294,0.0449 -32.383682,-0.0227 -7.17364,-0.0913 -14.387327,-0.12489 -21.487798,-1.27703 -4.743859,-1.01273 -9.433672,-2.4238 -13.883,-4.3525 -2.868124,-1.84813 -5.206618,-3.49458 -4.820558,-7.25899 1.032755,-3.59497 2.749347,-6.93953 3.55471,-10.5897 1.047466,-3.84425 1.858633,-7.63361 2.059199,-11.63238 0.7671,-4.41173 2.194231,-8.74224 2.268662,-13.23883 0.221344,-3.85803 0.576432,-7.69833 1.85156,-11.37706 0.983369,-3.00114 1.033386,-6.00682 1.344676,-9.14016 0.637848,-4.41185 1.784794,-8.72634 2.343136,-13.1503 0.0013,-6.06137 0.0093,-12.12274 0.0098,-18.18411 0.0041,-9.05537 0.0064,-18.11075 0.0089,-27.16612 0.0033,-10.15159 0.0073,-20.30323 -0.01926,-30.45479 0,0 2.825271,0 2.825271,0 z" />
    <path
       style="fill:#000000;fill-opacity:1;stroke:#000000;stroke-width:10;stroke-miterlimit:4;stroke-opacity:1;stroke-dasharray:none"
       id="path2856"
       d="m -790.69866,583.02969 c -2.41539,7.51006 -3.55247,15.32838 -5.21382,23.02182 -1.47021,6.08817 -1.6345,12.37109 -3.34125,18.39633 -0.5497,2.95657 -2.46984,6.38118 -1.21627,9.34621 0.3976,0.65668 0.91785,1.17214 1.67506,1.3142 -0.30408,1.50005 -2.8503,2.44002 -4.25848,3.1467 -3.80688,1.44966 -7.49056,3.00512 -10.95826,5.16362 -2.38289,1.26632 -3.27877,3.07331 -0.71029,4.6193 4.024,2.33137 8.3094,4.11023 12.78911,5.34779 6.11168,1.95251 12.43009,2.94338 18.56273,4.80183 1.93137,0.90574 6.80036,0.88464 6.50707,3.90828 -3.13755,3.54467 -8.6996,4.97832 -12.92271,7.0042 -7.73582,3.29714 -15.51992,6.50663 -23.50758,9.14939 -2.98526,1.27101 -9.97947,2.95949 -7.60044,7.45882 4.36215,4.76202 10.74155,7.18994 16.74401,9.15744 7.05548,2.64098 14.43016,4.16618 21.68054,6.14077 4.2975,1.14534 9.0613,1.70472 12.8412,4.23608 0.1688,1.80088 -5.55567,2.13246 -6.83812,2.4053 -7.25066,1.08876 -14.43337,2.56295 -21.69318,3.61249 -5.98405,1.60109 -12.25781,2.17312 -18.18643,3.94618 -4.1573,1.57643 -4.48557,2.9133 -0.86153,5.32685 6.99438,2.41807 14.5793,2.7198 21.88603,3.71047 9.89303,1.29374 19.86437,1.75326 29.82885,2.04316 -6.46367,0.11404 20.67499,0.17932 14.63034,0.16474 9.35339,0.41077 -2.02355,4.06509 -3.77596,4.76716 -6.01325,2.21312 -11.69938,5.21268 -17.49651,7.93649 -5.44734,2.23993 -10.91328,4.51374 -16.55997,6.21502 -2.50398,0.71664 -5.75214,0.54932 -5.39766,3.8139 0.60827,3.24847 0.87715,6.53492 1.03768,9.83108 0.18338,5.21614 0.1775,10.43666 0.18624,15.65532 -0.39371,5.89908 -2.15127,11.51197 -3.63894,17.18837 -1.08616,4.6944 -2.64864,9.33017 -4.40942,13.81937 -1.34429,2.70617 -2.60554,4.88069 -0.54576,7.46133 3.43055,1.65251 7.44421,2.34083 11.18416,3.16744 6.64428,1.03912 13.34463,1.39994 20.01096,2.31816 9.5155,1.20604 19.0827,1.73034 28.61929,2.75474 12.59037,1.5797 24.91748,4.5817 37.18119,7.76255 13.08817,3.06841 25.96783,6.92284 39.03369,10.08034 13.29886,3.65621 26.8651,6.07011 40.40234,8.61686 13.23996,2.13217 26.56035,3.83205 39.88907,5.32579 12.67174,1.23074 25.38876,1.4966 38.0688,2.61746 11.94368,1.17311 23.93408,1.65341 35.92696,1.92037 10.40432,0.92808 20.79041,1.96559 31.22367,2.52414 9.99085,-0.009 19.88598,1.32408 29.81608,2.23713 9.00743,0.78229 18.04875,0.96994 27.08454,1.07963 7.25202,0.063 14.50437,0.0498 21.75658,0.0427 7.44248,0.1172 14.82539,0.1057 22.2156,-0.81059 7.84644,-1.03437 15.72178,-1.53659 23.55514,-2.67079 8.57326,-1.19627 17.03738,-3.07038 25.48525,-4.93744 8.60335,-1.78943 17.16602,-3.75839 25.73351,-5.71239 8.40779,-2.47125 17.00747,-4.19559 25.37413,-6.80624 7.70117,-2.70981 15.56523,-4.71889 23.44597,-6.80193 6.66628,-1.47083 12.82925,-4.44521 19.21566,-6.74656 5.66948,-2.24002 11.38739,-4.4103 17.21579,-6.20578 4.58699,-0.948 8.94784,-2.67581 13.47741,-3.82445 4.95247,-1.24203 9.38998,-3.61762 13.84599,-6.01292 5.19434,-2.29484 10.25122,-4.89342 15.56913,-6.89498 5.59813,-2.25922 11.27905,-4.3687 17.05566,-6.13096 5.33965,-2.11605 10.93702,-3.33693 16.34459,-5.2358 4.45143,-1.57514 9.16542,-1.84077 13.6479,-3.28235 3.21115,-1.15369 6.52311,-1.79476 9.91345,-2.06671 3.46493,-0.97979 6.92185,-1.91517 10.47793,-2.50499 3.44444,-0.10655 6.67406,-0.84623 9.967949,-1.7867 3.660612,-1.00033 7.43524,-1.31055 11.209095,-1.49401 2.519866,-0.6057 5.670901,0.66785 8.064577,-0.38362 0.744447,-0.6157 0.719486,-1.49292 0.837845,-2.39009 0,0 2.840295,0.036 2.840295,0.036 l 0,0 c -0.119376,0.96889 -0.109914,1.93372 -0.846822,2.6589 -2.156697,1.39234 -5.676678,-0.15326 -8.096483,0.5088 -3.768088,0.16874 -7.538394,0.45544 -11.199163,1.42952 -3.301166,0.93467 -6.507353,1.7805 -9.970383,1.81934 -3.56187,0.57167 -7.04062,1.44823 -10.48253,2.52882 -3.3868,0.24537 -6.70001,0.84576 -9.90751,1.99932 -4.48056,1.47655 -9.18225,1.74713 -13.65414,3.27492 -5.41131,1.9051 -11.00913,3.12384 -16.35221,5.24737 -5.78089,1.73751 -11.4583,3.8559 -17.05304,6.11331 -5.3231,1.97138 -10.35922,4.59309 -15.55971,6.85778 -4.46913,2.39054 -8.88842,4.82235 -13.84903,6.083 -4.54127,1.11591 -8.8875,2.89474 -13.48619,3.80848 -5.83433,1.77061 -11.54989,3.95044 -17.21622,6.19232 -6.4014,2.27928 -12.55477,5.29682 -19.22814,6.76884 -7.87417,2.10276 -15.75638,4.05072 -23.44887,6.78903 -8.36341,2.63816 -16.97429,4.33436 -25.38052,6.82803 -8.56918,1.94788 -17.12827,3.93261 -25.73364,5.71423 -8.44989,1.86378 -16.91099,3.75823 -25.48523,4.9581 -7.83226,1.14077 -15.70192,1.66005 -23.55029,2.67705 -7.39255,0.93485 -14.7724,0.98194 -22.22079,0.8449 -9.09818,0.008 -18.1966,0.027 -27.29457,-0.0469 -9.03494,-0.11455 -18.07529,-0.3101 -27.08109,-1.10269 -9.92785,-0.91972 -19.82353,-2.22555 -29.81229,-2.22694 -10.42837,-0.56805 -20.80876,-1.62262 -31.21148,-2.51717 -11.9916,-0.27301 -23.98004,-0.76461 -35.92228,-1.93945 -12.67934,-1.11443 -25.39794,-1.36868 -38.06647,-2.62454 -13.32852,-1.50348 -26.65143,-3.19298 -39.88918,-5.34639 -13.54025,-2.54046 -27.10161,-4.98549 -40.40422,-8.63109 -13.06392,-3.17026 -25.94911,-7.01058 -39.03731,-10.08425 -12.26595,-3.16933 -24.59413,-6.16687 -37.18779,-7.72056 -9.54394,-1.02117 -19.12154,-1.53049 -28.64161,-2.75985 -6.67378,-0.91335 -13.39047,-1.24153 -20.0337,-2.3385 -3.74404,-0.84129 -7.90845,-1.43681 -11.22359,-3.36117 -2.02608,-2.71559 -0.87296,-4.96568 0.55594,-7.75398 1.76887,-4.4742 3.3278,-9.10441 4.41878,-13.78546 1.47925,-5.65392 3.23933,-11.24072 3.63598,-17.11571 -0.01,-5.21421 -0.005,-10.43038 -0.19566,-15.64184 -0.16549,-3.29117 -0.4402,-6.57249 -1.05278,-9.81532 -0.35537,-3.49651 2.62125,-3.51599 5.44121,-4.20445 5.65478,-1.66639 11.10954,-3.96046 16.56495,-6.17165 5.7918,-2.73555 11.48846,-5.71781 17.49116,-7.9534 1.53583,-0.62152 3.12232,-1.1184 4.63733,-1.78909 0.29438,-0.13032 2.33606,-1.34672 2.77314,-1.47686 1.09017,-0.32459 2.26664,-0.33431 3.33393,-0.72767 0.42834,-0.15788 -0.91303,0.002 -1.36954,0.004 -6.7313,0.002 -13.46337,0.004 -20.19287,-0.17809 -9.96491,-0.29884 -19.93616,-0.77031 -29.82868,-2.0729 -7.32513,-0.99233 -14.9804,-1.23813 -21.94119,-3.83632 -3.61027,-2.56016 -3.42645,-4.31551 0.87727,-5.95976 5.91269,-1.85608 12.23775,-2.31186 18.21406,-3.98639 7.2553,-1.03595 14.42578,-2.52652 21.67215,-3.59667 0.91618,-0.19327 6.59993,-0.89917 6.80632,-1.73933 -3.83793,-2.40554 -8.50222,-3.01905 -12.80105,-4.15269 -7.24837,-1.97622 -14.62008,-3.50954 -21.67177,-6.15704 -6.03438,-2.01506 -12.50691,-4.46957 -16.79867,-9.37583 -2.28647,-4.83752 4.24189,-6.54117 7.65264,-7.94059 7.99023,-2.61637 15.7625,-5.83663 23.49976,-9.1133 4.2264,-2.0454 9.44196,-3.50254 12.86463,-6.72133 0.33548,-2.60933 -4.9384,-2.68336 -6.45548,-3.51758 -6.13247,-1.84869 -12.45575,-2.83549 -18.56222,-4.79606 -4.48645,-1.27288 -8.79457,-3.06857 -12.82085,-5.43183 -2.49636,-1.77194 -1.86611,-3.82016 0.7227,-5.18612 3.46373,-2.17748 7.12374,-3.79076 10.95889,-5.19175 1.27548,-0.62367 3.42943,-1.77728 4.24468,-2.4461 -0.7515,-0.31994 -1.30435,-0.85762 -1.68906,-1.59173 -1.18719,-3.0789 0.61629,-6.48433 1.23339,-9.5339 1.73177,-6.01424 1.88975,-12.29513 3.36508,-18.37738 1.66755,-7.70121 2.80984,-15.52342 5.18896,-23.05313 0,0 2.82688,0.091 2.82688,0.091 z" />
    <path
       style="fill:#000000;fill-opacity:1;stroke:#000000;stroke-width:10;stroke-miterlimit:4;stroke-opacity:1;stroke-dasharray:none"
       id="path2858"
       d="m -655.27641,702.12307 c -8.36878,3.69293 -15.97458,8.70459 -22.7862,14.77392 -4.84601,5.08642 -5.36353,8.41436 1.61667,10.87884 8.31329,2.08672 16.72428,0.48545 25.01229,-0.90013 7.51257,-1.65097 15.16787,-3.42591 21.04661,-8.6458 3.27549,-5.13353 -0.2962,-9.87556 -3.07618,-14.30418 -5.76218,-7.8891 -10.06012,-16.35577 -13.71509,-25.37221 -2.36641,-6.53056 -5.36594,-13.42513 -3.75566,-20.45421 2.74506,-5.57163 9.91763,-3.68792 14.712,-2.03193 6.05182,2.54392 10.3695,6.04893 12.17229,12.47235 0.666,10.09421 -5.43668,18.616 -11.33699,26.23241 -3.52336,4.53788 -7.502,8.39135 -12.03255,11.87326 0,0 -2.77591,-0.25588 -2.77591,-0.25588 l 0,0 c 4.54799,-3.44266 8.51482,-7.27421 12.03796,-11.80054 5.85385,-7.52352 11.95146,-15.98029 11.29503,-25.97136 -1.81967,-6.32328 -6.17713,-9.74165 -12.15807,-12.19999 -4.07104,-1.3426 -6.51339,-2.73214 -9.08767,1.74639 -1.64942,6.95785 1.39575,13.81369 3.71695,20.2821 3.65078,9.00578 7.97812,17.44429 13.73261,25.3222 2.8703,4.57181 6.36293,9.39763 3.08412,14.69812 -5.85558,5.32064 -13.55034,7.11917 -21.09954,8.79947 -10.06897,1.69681 -20.47247,3.25983 -30.57087,0.85265 -7.01412,-2.6802 -6.5095,-6.29779 -1.61342,-11.45763 6.81709,-6.08545 14.41222,-11.12888 22.77832,-14.86618 0,0 2.8033,0.32833 2.8033,0.32833 z" />
    <path
       style="fill:#000000;fill-opacity:1;stroke:#000000;stroke-width:10;stroke-miterlimit:4;stroke-opacity:1;stroke-dasharray:none"
       id="path2860"
       d="m -1061.7844,497.29327 c -1.6658,11.39369 -3.7306,22.73105 -5.9339,34.03295 -2.4442,12.64643 -4.9279,25.28788 -7.6572,37.87668 -1.3852,5.18335 -1.9557,10.53873 -3.0671,15.77437 0,0 -2.8461,-0.0621 -2.8461,-0.0621 l 0,0 c 1.2078,-5.21477 1.6829,-10.60234 3.1287,-15.77186 2.7455,-12.58462 5.2402,-25.22366 7.6804,-37.87013 2.1951,-11.29706 4.2656,-22.62951 5.8662,-34.02659 0,0 2.829,0.0467 2.829,0.0467 z" />
    <path
       style="fill:#000000;fill-opacity:1;stroke:#000000;stroke-width:10;stroke-miterlimit:4;stroke-opacity:1;stroke-dasharray:none"
       id="path2862"
       d="m -1022.2097,522.93105 c 6.1551,-2.29124 12.5873,-3.52783 19.0711,-4.4134 6.25288,-0.92692 12.44224,0.62741 18.62024,1.38798 5.10137,0.87856 8.80644,3.11571 11.62145,7.43767 3.03044,6.5368 0.2242,14.12564 -2.07555,20.4948 -3.62929,8.99272 -8.77287,17.24387 -14.47571,25.04744 -2.39209,5.02001 -8.15708,7.75377 -10.71983,12.54254 2.08911,1.99863 9.38899,1.12783 12.19096,1.1353 8.69872,-0.39189 17.34193,0.31115 25.98288,1.2025 6.18445,1.10073 12.6704,0.43143 18.79405,1.79424 0.88301,0.47255 4.05465,0.94215 4.05462,2.30878 0,0 -2.85352,-0.01 -2.85352,-0.01 l 0,0 c -1.00287,-0.92865 -2.59591,-1.52549 -4.00445,-1.91501 -6.13919,-1.24467 -12.57296,-0.71934 -18.75718,-1.76914 -8.67552,-0.89405 -17.23961,-1.72473 -25.99317,-1.17266 -2.65056,-0.009 -10.85219,1.00503 -12.25399,-1.7109 2.4737,-4.85575 8.40106,-7.5315 10.77065,-12.58236 5.70281,-7.77407 10.84184,-15.99935 14.46707,-24.96811 2.27611,-6.27625 5.0865,-13.79761 2.05318,-20.23309 -2.82589,-4.23489 -6.55632,-6.37564 -11.5929,-7.19541 -4.51708,-0.56666 -9.03935,-1.83466 -13.0397,-1.39135 -6.4765,0.86535 -12.9102,2.06303 -19.0539,4.36232 0,0 -2.8063,-0.35235 -2.8063,-0.35235 z" />
    <path
       style="fill:#000000;fill-opacity:1;stroke:#000000;stroke-width:10;stroke-miterlimit:4;stroke-opacity:1;stroke-dasharray:none"
       id="path2864"
       d="m -486.71139,89.726025 c -8.48728,-0.04857 -16.92937,1.232791 -25.23981,2.855293 -6.20024,1.444343 -12.59471,1.669723 -18.71239,3.442813 -3.38815,1.079221 -10.58894,3.629194 -5.61714,-3.115515 4.93645,-5.615752 9.63355,-11.432001 14.24008,-17.319643 3.91205,-5.396252 7.74204,-10.825609 10.69412,-16.812902 3.98668,-6.014463 5.64949,3.21643 6.00977,5.289889 1.39724,8.73221 0.38913,17.522865 -0.29065,26.265673 -1.57353,11.117827 -2.96885,22.246967 -3.77829,33.447937 0.0267,5.66333 -1.4467,11.11859 -2.70517,16.58557 -0.37034,0.58797 -0.26019,1.78555 -0.25256,2.20375 0,0 -2.8461,0.19391 -2.8461,0.19391 l 0,0 c -0.42883,-0.79495 0.184,-1.60837 0.26383,-2.46222 1.27174,-5.45169 2.76747,-10.88872 2.74967,-16.54127 0.82026,-11.20064 2.21663,-22.33035 3.78687,-33.449165 0.67183,-8.719938 1.66444,-17.488686 0.25021,-26.194878 -0.33018,-1.841815 -0.37909,-2.680277 -1.0029,-4.34769 -0.16529,-0.441802 -0.9197,-0.924289 -0.60764,-1.278024 0.51307,-0.581592 1.5091,-0.362139 2.25175,-0.585669 0.45216,-0.136097 -3.93836,0.464177 -1.00133,1.00204 -2.97237,6.002607 -6.80734,11.451695 -10.73084,16.868533 -4.59835,5.883374 -9.27281,11.709081 -14.20709,17.315428 -2.19931,2.910731 -0.90803,2.658784 -4.8075,4.043375 -3.6563,1.298248 7.65078,-3.131119 4.79746,-1.47154 6.12261,-1.815562 12.52326,-2.03498 18.74216,-3.464894 8.30474,-1.63085 16.73977,-2.93885 25.22301,-2.912771 0,0 2.79048,0.44197 2.79048,0.44197 z" />
    <path
       style="fill:#000000;fill-opacity:1;stroke:#000000;stroke-width:10;stroke-miterlimit:4;stroke-opacity:1;stroke-dasharray:none"
       id="path2866"
       d="m -265.12008,49.648597 c 6.63399,1.047808 13.31235,1.761333 20.01381,2.180716 4.74568,-0.241083 9.22298,0.91612 13.76195,2.086597 3.61786,1.706543 3.1355,2.714637 0.73551,5.352196 -5.25795,3.969985 -11.10691,7.200172 -16.83988,10.449723 -6.02816,3.595618 -12.00935,7.276253 -17.90496,11.088285 -3.01159,1.687964 -3.661,3.275542 -0.15406,4.519296 3.96544,1.13363 7.85127,2.465333 11.65951,4.050527 4.10154,1.88709 7.80784,4.133287 11.16662,7.142666 3.19406,3.552387 3.70957,5.560227 1.85754,9.933967 -3.58761,6.08796 -9.81964,10.18297 -15.45002,14.23241 -4.27695,3.53008 -9.38693,4.97278 -14.59138,6.47405 0,0 -2.75883,-0.35864 -2.75883,-0.35864 l 0,0 c 5.19547,-1.46769 10.30213,-2.85655 14.56712,-6.38001 5.59613,-4.01461 11.78643,-8.07752 15.40374,-14.08193 1.8331,-4.26733 1.3189,-6.12869 -1.84758,-9.581834 -3.34927,-2.9769 -7.07724,-5.184268 -11.15484,-7.048797 -3.81007,-1.583639 -7.71303,-2.866637 -11.66758,-4.040928 -3.51767,-1.431175 -3.00741,-3.44402 0.16105,-5.141887 5.90807,-3.80832 11.8946,-7.49454 17.92489,-11.102813 5.71812,-3.225739 11.51089,-6.4825 16.80012,-10.365059 2.34018,-2.507701 2.85082,-3.185587 -0.71636,-4.768685 -4.52821,-1.168408 -9.00742,-2.247703 -13.73652,-2.036288 -6.70731,-0.432606 -13.39084,-1.159302 -20.03139,-2.20715 0,0 2.80154,-0.396412 2.80154,-0.396412 z" />
    <path
       style="fill:#000000;fill-opacity:1;stroke:#000000;stroke-width:10;stroke-miterlimit:4;stroke-opacity:1;stroke-dasharray:none"
       id="path2868"
       d="m 201.86004,64.011739 c -6.9295,-0.0025 -13.859,-0.0013 -20.7885,-6.05e-4 -5.10294,0.55427 -10.10838,1.713072 -15.20474,2.323676 -2.40454,0.238879 -4.81346,0.478076 -7.23017,0.544525 -7.22617,0.03179 1.91717,-7.86615 3.2979,-9.343152 5.09022,-5.39457 10.33928,-10.596281 16.0432,-15.337602 2.91534,-1.404215 6.51488,-6.941048 9.83018,-7.303241 1.22474,-0.1338 2.46393,0.02438 3.69589,0.03657 2.13155,2.761021 1.17317,6.387039 0.62612,9.520899 -0.9406,7.157208 -2.60111,14.178443 -3.66494,21.31749 -1.52803,7.004 -2.58322,14.072545 -4.47785,20.988418 -1.38208,4.188744 -1.73523,8.574838 -3.23205,12.720164 -0.70847,1.401339 -1.40623,3.845049 -1.56306,4.871259 0,0 -2.83937,0.29767 -2.83937,0.29767 l 0,0 c -0.6906,-1.29104 1.35708,-3.96737 1.57118,-5.26776 1.51537,-4.133895 1.85403,-8.516615 3.24739,-12.696807 1.89995,-6.904337 2.9677,-13.958977 4.48904,-20.954404 1.06243,-7.140962 2.72167,-14.163641 3.64805,-21.324436 0.48811,-2.839287 1.61125,-6.663959 -0.61896,-9.054018 0.64637,-0.04345 1.37684,-0.452102 1.93913,-0.130349 0.38814,0.222105 -0.83544,0.325314 -1.22976,0.536269 -3.21909,1.722188 -5.63151,4.636031 -8.62401,6.688501 -5.70379,4.726686 -10.95614,9.907053 -16.03234,15.302918 -1.4088,1.505585 -2.59631,2.729133 -3.911,4.299317 -0.86975,1.038764 -1.20779,2.603486 -2.36771,3.303535 -1.01201,0.610778 -2.28021,0.643951 -3.37283,1.094941 -0.22582,0.09321 0.48858,-0.0035 0.73286,-0.0053 2.42215,-0.04152 4.8363,-0.288252 7.24642,-0.514867 5.1059,-0.589887 10.11811,-1.731126 15.21858,-2.355004 6.92696,6.99e-4 13.85391,0.0019 20.78086,-6.05e-4 0,0 2.79049,0.44197 2.79049,0.44197 z" />
    <path
       style="fill:#000000;fill-opacity:1;stroke:#000000;stroke-width:10;stroke-miterlimit:4;stroke-opacity:1;stroke-dasharray:none"
       id="path2870"
       d="m 445.41379,-29.001374 c -6.12032,4.908176 -11.6772,10.453144 -17.49446,15.711078 -3.32286,3.216803 -6.18242,7.2119537 -4.68975,11.9428122 2.95522,4.4389757 7.82668,5.7617021 12.76597,6.7452172 7.28385,1.0035699 14.74942,-0.3465579 21.8219,-2.1028791 8.16174,-2.54536781 16.05642,-5.6784872 23.13363,-10.5188008 4.09811,-3.1233375 7.7069,-6.7962065 6.86326,-12.2331315 -1.8947,-4.81526 -5.52627,-8.346013 -9.49092,-11.515903 -3.95228,-3.309509 -8.58578,-5.634792 -12.57257,-8.883082 -2.9758,-2.612825 -5.73235,-5.977503 -3.65356,-9.882779 3.85547,-4.549972 9.72589,-6.52887 15.15375,-8.533271 7.98345,-3.201943 16.40632,-4.948565 24.90759,-6.031844 5.69215,-0.460645 11.87293,-1.707246 17.18726,0.938945 3.4174,1.83587 4.30306,5.01291 3.06537,8.522605 -1.66757,3.881166 -4.74902,6.890212 -7.55904,9.957549 -3.20584,2.859214 -6.75071,5.49888 -10.66506,7.315934 -3.39433,1.32883 -6.54846,3.152302 -10.24307,3.335882 0,0 -2.79805,-0.434346 -2.79805,-0.434346 l 0,0 c 3.70881,-0.04362 6.82827,-1.923546 10.22751,-3.224787 3.92432,-1.748645 7.43662,-4.401087 10.66083,-7.201611 2.77789,-3.0512 5.86492,-6.008341 7.5433,-9.847143 1.26811,-3.404907 0.27357,-6.386758 -3.04615,-8.106999 -1.11287,-0.517822 -2.40068,-0.621522 -3.47786,-1.209986 -0.17231,-0.09413 0.72119,-0.252702 0.52532,-0.266449 -2.86602,-0.20115 -5.79076,0.538165 -8.64254,0.624792 -8.49712,1.05587 -16.92433,2.766613 -24.90126,5.96842 -5.38837,1.971019 -11.19536,3.917722 -15.10543,8.335668 -2.1479,3.72219 0.8242,7.022851 3.63825,9.487496 4.01376,3.20685 8.61298,5.578107 12.56222,8.883724 3.99064,3.236026 7.66038,6.818604 9.51484,11.724747 0.81715,5.555356 -2.67804,9.326182 -6.89451,12.5474851 -7.07267,4.8926527 -14.99146,8.0267123 -23.16275,10.6160946 -8.8888,2.2542222 -18.24255,3.3212349 -27.38062,2.1182009 -4.99496,-1.0344188 -9.9367,-2.4611072 -12.81038,-7.0452335 -1.45416,-4.8509355 1.28889,-8.9435751 4.721,-12.2622921 5.82747,-5.248296 11.38717,-10.786447 17.47934,-15.729178 0,0 2.81664,0.253065 2.81664,0.253065 z" />
    <path
       style="fill:#000000;fill-opacity:1;stroke:#000000;stroke-width:10;stroke-miterlimit:4;stroke-opacity:1;stroke-dasharray:none"
       id="path2872"
       d="m 724.71719,78.297453 c -7.06687,-0.119555 -14.05921,1.202434 -21.0544,2.053211 -3.91329,0.510577 -7.85741,0.706702 -11.79993,0.796717 -2.95636,-0.131553 -8.71717,1.033299 -5.14257,-3.715459 3.45644,-4.606707 7.41402,-8.800695 11.34839,-12.995287 4.27766,-4.136533 7.92037,-8.851547 12.01249,-13.156021 1.21019,-0.73607 5.71764,-6.305758 7.06723,-6.16576 1.22686,0.127267 2.39621,0.586304 3.59431,0.879457 1.3304,3.720472 0.8894,7.902284 0.84711,11.798796 -0.0955,6.302523 -0.13511,12.605645 -0.16088,18.908776 0.47015,5.072075 1.50265,10.068268 2.32622,15.090658 0.43533,0.741003 0.016,1.955586 0.43092,2.70547 0.16283,0.294317 1.22344,0.536973 0.8944,0.467196 -0.7018,-0.148825 -1.39272,-0.344992 -2.08908,-0.517488 0.28986,-0.286179 0.57972,-0.572357 0.86958,-0.858536 0,0 2.83204,0.221014 2.83204,0.221014 l 0,0 c -0.28974,0.301088 -0.57947,0.602176 -0.86921,0.903264 -4.32075,0.698227 -4.40624,0.866451 -4.9031,-2.875338 -0.80846,-5.039528 -1.84381,-10.049912 -2.30602,-15.137432 0.0276,-6.30366 0.0668,-12.607343 0.15213,-18.910525 0.0381,-3.813877 0.49962,-7.959693 -0.85834,-11.583312 0.68868,-0.255306 1.37311,-0.522398 2.06604,-0.765916 0.74851,-0.263047 -1.38237,0.800005 -1.9773,1.324904 -1.73898,1.534298 -3.4515,3.099489 -5.10124,4.729952 -4.11755,4.28177 -7.73125,9.025365 -12.02071,13.152885 -3.93244,4.180976 -7.88373,8.3672 -11.32621,12.970498 -0.33877,0.420976 -0.73821,0.799628 -1.0163,1.262929 -0.17714,0.295096 -0.0452,0.784184 -0.3292,0.978645 -2.87245,1.966995 -3.20257,0.552449 0.8565,0.84887 3.94663,-0.07922 7.89585,-0.262825 11.814,-0.76634 6.99695,-0.839749 13.98741,-2.178485 21.05264,-2.087798 0,0 2.79049,0.44197 2.79049,0.44197 z" />
    <path
       style="fill:#000000;fill-opacity:1;stroke:#000000;stroke-width:10;stroke-miterlimit:4;stroke-opacity:1;stroke-dasharray:none"
       id="path2874"
       d="m 993.5558,355.98039 c 2.89806,-8.95756 9.0519,-15.40782 16.3487,-21.01246 8.619,-6.51415 18.9181,-8.95557 29.3845,-10.5244 8.362,-0.59689 16.591,-0.13085 23.8355,4.29546 4.3035,3.38921 6.035,7.5086 4.9687,12.81433 -2.4363,5.93269 -7.8427,9.19718 -13.2064,12.17642 -5.7268,3.37187 -11.8365,6.03501 -18.5187,6.42117 -7.9661,-0.27586 -10.674,-2.07268 -13.2739,-9.43466 -2.1814,-8.06928 -0.7619,-16.23495 1.1703,-24.18845 3.9215,-12.58223 12.0514,-22.84768 19.9596,-33.12163 8.1895,-9.4971 16.5436,-19.03876 26.4918,-26.73975 3.8319,-3.16161 7.9458,-5.9961 12.3426,-8.31422 0.6517,-0.35094 1.3464,-0.60349 2.032,-0.87676 0,0 2.8277,0.32965 2.8277,0.32965 l 0,0 c -0.6713,0.31642 -1.3668,0.51802 -2.0332,0.85666 -4.4232,2.27352 -8.5497,5.10292 -12.3875,8.25978 -9.9796,7.64602 -18.3204,17.19 -26.5181,26.66566 -7.8846,10.24244 -16.0063,20.46551 -19.9261,33.00707 -1.9182,7.89894 -3.3338,16.01614 -1.1413,24.02557 1.1886,3.31103 2.3796,6.35014 5.779,7.90246 0.6708,0.30633 1.4661,0.33413 2.0886,0.72947 0.1439,0.0914 -0.131,0.31475 -0.1965,0.47213 6.6775,-0.27333 12.7934,-2.93841 18.5101,-6.29319 5.3179,-2.91775 10.6897,-6.10744 13.1751,-11.93403 1.0683,-5.19744 -0.6975,-9.20258 -4.9471,-12.46849 -5.5421,-3.30063 -11.8291,-4.6638 -18.2673,-4.18835 -10.4482,1.53115 -20.7499,3.90755 -29.3708,10.38383 -7.2786,5.54558 -13.44309,11.921 -16.30042,20.84772 0,0 -2.82688,-0.091 -2.82688,-0.091 z" />
    <path
       style="fill:#000000;fill-opacity:1;stroke:#000000;stroke-width:10;stroke-miterlimit:4;stroke-opacity:1;stroke-dasharray:none"
       id="path2876"
       d="m 1096.4954,561.79332 c -5.2893,2.16447 -10.0265,5.51865 -13.155,10.33788 -2.1381,3.40675 -1.3107,6.93583 0.022,10.47031 1.4183,3.79831 3.4461,7.10251 6.241,10.02369 3.0975,3.52005 7.3739,4.35472 11.8095,4.904 3.5779,0.0408 7.2801,0.75831 10.8599,0.38839 0.1075,-0.0111 -0.054,-0.2886 0.049,-0.3204 0.8128,-0.25028 1.6722,-0.31143 2.5083,-0.46715 4.4395,-1.0825 7.5757,-3.74866 10.033,-7.49399 1.7874,-3.82436 2.4276,-8.09357 1.9601,-12.26742 -0.5508,-5.41058 -4.031,-9.63379 -6.7648,-14.11736 -3.2799,-5.17718 -6.2493,-10.55837 -8.9854,-16.0421 -2.8781,-4.94567 -4.9912,-10.24328 -6.0972,-15.85188 -1.0211,-5.05834 1.0932,-9.39156 4.5572,-12.94255 4.7499,-4.68642 10.6821,-7.00509 17.1101,-8.2349 7.3332,-1.12334 14.8808,-1.30707 21.6554,1.9568 4.1876,1.90995 7.6568,4.73525 9.427,9.02665 1.6756,5.67362 -2.5209,10.00845 -6.1303,13.80523 -6.9179,6.24251 -14.4628,11.69706 -22.8126,15.83212 -1.3309,0.41784 -2.6618,0.83568 -3.9927,1.25353 0,0 -2.7789,-0.35532 -2.7789,-0.35532 l 0,0 c 1.3312,-0.40292 2.6624,-0.80584 3.9936,-1.20875 8.3508,-4.08803 15.8713,-9.52596 22.7907,-15.73527 3.5329,-3.69278 7.7681,-7.92316 6.0979,-13.47928 -1.7895,-4.21823 -5.2649,-6.94786 -9.3956,-8.82141 -5.2472,-2.43846 -10.3862,-2.98024 -16.0692,-1.88583 -6.4051,1.17265 -12.3368,3.4177 -17.0833,8.0661 -3.4525,3.44616 -5.5555,7.69362 -4.5451,12.66771 1.1084,5.58359 3.2203,10.85163 6.0854,15.77661 2.7409,5.47424 5.7066,10.84924 8.9887,16.01792 2.7648,4.51345 6.2269,8.78719 6.7756,14.24068 0.4682,4.2409 -0.1756,8.56269 -1.9605,12.46149 -2.4435,3.81136 -5.5945,6.56302 -10.063,7.72048 -6.2611,1.21007 -12.6819,0.90032 -19.0083,0.41614 -4.4766,-0.59138 -8.732,-1.53091 -11.8347,-5.09547 -2.7958,-2.95886 -4.8249,-6.31251 -6.2489,-10.13714 -1.3423,-3.61362 -2.1796,-7.24671 -0.018,-10.73309 3.1096,-4.88638 7.8692,-8.28687 13.1722,-10.52878 0,0 2.8063,0.35236 2.8063,0.35236 z" />
    <path
       style="fill:#000000;fill-opacity:1;stroke:#000000;stroke-width:10;stroke-miterlimit:4;stroke-opacity:1;stroke-dasharray:none"
       id="path2878"
       d="m 612.07451,522.60931 c 6.87124,-3.37258 14.24457,-5.34893 21.75729,-6.62235 4.81654,-0.79583 9.69841,-0.98216 14.57034,-1.0445 5.34031,-0.10393 9.44008,2.30444 12.9024,6.1999 1.7297,1.9553 2.53819,4.26718 2.95217,6.79417 -0.45161,2.27858 -2.14548,3.57163 -3.91655,4.87608 -2.60921,1.4395 -5.16195,3.04444 -7.94563,4.15021 -3.32085,1.0517 -6.80603,1.19435 -10.25838,1.32306 -1.94274,-0.0457 -3.19392,0.77517 -0.98306,1.71955 3.35024,1.04488 6.64511,2.17346 10.11626,2.79917 4.2813,0.34302 8.49746,1.23715 12.46803,2.88852 4.05576,1.30875 6.67463,3.69735 8.2296,7.58896 0.46267,3.88371 -1.58447,6.94314 -4.25734,9.53334 -3.15383,3.38237 -6.98451,6.0006 -11.18081,7.90273 -4.538,2.06009 -9.2419,3.76807 -13.9265,5.47567 -5.41189,1.83507 -10.99561,1.97308 -16.63165,1.69423 0,0 2.79689,-0.41195 2.79689,-0.41195 l 0,0 c -1.18805,0.51492 -0.87981,0.30869 1.63683,0.0854 2.38149,-0.21131 4.7756,-0.5088 7.10283,-1.06992 0.77101,-0.1859 1.52727,-0.42838 2.2909,-0.64257 4.68792,-1.68484 9.38061,-3.41773 13.92166,-5.45567 4.19948,-1.84281 8.03256,-4.43884 11.16959,-7.80662 2.62563,-2.46257 4.68749,-5.43169 4.2448,-9.19606 -1.55504,-3.82611 -4.23662,-6.07424 -8.20596,-7.36341 -3.98844,-1.59208 -8.18587,-2.4671 -12.46081,-2.83112 -3.47509,-0.65593 -6.7876,-1.77732 -10.14232,-2.86844 -2.13617,-1.07822 -1.27671,-2.67237 1.00725,-2.47567 3.44422,-0.11646 6.91829,-0.24005 10.24661,-1.22908 2.7977,-1.05518 5.30819,-2.69397 7.93489,-4.07849 1.70992,-1.20686 3.37025,-2.42896 3.89642,-4.56183 -0.40351,-2.47863 -1.22256,-4.72659 -2.92926,-6.63271 -1.40829,-1.53936 -2.88999,-2.80633 -4.66951,-3.91904 -1.13573,-0.71015 -2.7859,-0.69063 -3.62454,-1.73508 -0.22144,-0.27579 0.67581,-0.20895 1.01371,-0.31342 -4.87622,0.0514 -9.76342,0.21899 -14.58691,0.99801 -7.50153,1.24102 -14.87028,3.17897 -21.72995,6.54125 0,0 -2.80929,-0.31231 -2.80929,-0.31231 z" />
    <path
       style="fill:#000000;fill-opacity:1;stroke:#000000;stroke-width:10;stroke-miterlimit:4;stroke-opacity:1;stroke-dasharray:none"
       id="path2880"
       d="m 584.26978,349.04024 c 0.0982,8.44851 0.11532,16.8456 -0.8258,25.2471 -0.87765,6.93115 -1.24693,13.87901 -2.66436,20.72552 -0.81153,3.44945 -1.47903,6.93166 -2.04943,10.42862 -0.0289,0.18738 -0.0579,0.37475 -0.0868,0.56212 -0.0201,0.057 -0.0403,0.11403 -0.0604,0.17105 0,0 -2.83518,-0.3474 -2.83518,-0.3474 l 0,0 c 0.0155,0.044 0.0309,0.0879 0.0464,0.13187 0.0302,-0.18812 0.0603,-0.37624 0.0905,-0.56436 0.58877,-3.49922 1.25839,-6.98664 2.07829,-10.43955 1.42263,-6.83731 1.80314,-13.77599 2.68029,-20.69924 0.94763,-8.39013 0.93627,-16.77775 0.80126,-25.21573 0,0 2.82527,0 2.82527,0 z" />
    <path
       style="fill:#000000;fill-opacity:1;stroke:#000000;stroke-width:10;stroke-miterlimit:4;stroke-opacity:1;stroke-dasharray:none"
       id="path2882"
       d="m 606.36022,365.46645 c 4.19643,-1.6431 7.68282,-4.82591 12.015,-6.14851 2.39599,-0.73149 4.84561,-0.45596 7.31553,-0.46069 3.76459,1.23866 4.04285,5.18556 4.3096,8.59312 0.18977,4.44818 0.0937,8.90198 0.0532,13.35228 0.35463,4.94033 -1.78734,8.92488 -4.24628,12.98714 -3.15369,5.15691 -7.93075,8.93791 -12.70289,12.51031 -4.44545,3.4513 -8.82471,6.93949 -13.61256,9.90819 -5.35547,3.88088 2.574,3.69002 -0.34643,3.23065 7.86393,-1.06393 15.74452,-1.2017 23.64488,-0.52538 6.88951,0.62313 13.57684,2.51169 20.38425,3.69942 2.98164,0.43868 5.97847,0.80298 8.98847,0.97437 1.42933,0.0535 -0.33446,-0.009 0.59764,0.0158 0,0 -2.82003,0.44016 -2.82003,0.44016 l 0,0 c -0.92691,-0.0426 0.82561,0.0455 -0.59452,-0.0273 -3.00167,-0.19537 -5.99138,-0.55581 -8.96426,-1.01026 -6.7957,-1.20094 -13.47759,-3.08632 -20.36376,-3.67686 -6.05465,-0.50056 -12.03494,-0.40162 -18.07284,0.53303 -2.66637,0.0763 -11.09558,0.94113 -5.26924,-3.94127 4.80338,-2.94498 9.18961,-6.41804 13.62662,-9.88147 4.75136,-3.54686 9.53365,-7.28108 12.6853,-12.40288 2.43411,-4.02448 4.60365,-7.93151 4.23691,-12.83634 0.0466,-4.44174 0.13551,-8.88756 -0.0537,-13.32708 -0.26583,-3.29635 -0.51647,-7.1637 -4.27625,-8.17466 2.10521,-0.097 -0.47144,-0.007 -1.72425,0.35249 -3.31005,0.94852 -6.16966,3.11835 -9.17633,4.7122 -0.93061,0.49331 -1.88321,0.94395 -2.82482,1.41593 0,0 -2.80929,-0.31231 -2.80929,-0.31231 z" />
    <path
       style="fill:#000000;fill-opacity:1;stroke:#000000;stroke-width:10;stroke-miterlimit:4;stroke-opacity:1;stroke-dasharray:none"
       id="path2884"
       d="m 56.145757,424.01174 c -7.982082,-0.003 -15.964164,-0.002 -23.946245,-10e-4 -5.376681,0.038 -10.71959,-0.37995 -15.995141,0.7842 -3.885568,0.77746 -6.5370742,2.56178 -7.9841016,6.24041 -1.121921,3.54815 -1.1245041,7.29419 -1.1644095,10.97707 0.4192488,4.10444 -0.8582472,7.97429 -1.6698982,11.93633 -0.78116,3.08954 -1.0889228,5.27543 2.2748472,6.34467 0.5175503,0.0805 1.0358267,0.15643 1.5526509,0.24145 0.417186,0.0686 -1.5179757,0.13776 -1.2537223,-0.19227 0.3350003,-0.4184 7.2829195,-1.47119 8.1109715,-1.59893 4.818019,-0.63096 9.678892,-0.78514 14.531685,-0.86803 5.066632,-0.45176 9.598046,0.13481 14.010328,2.57238 3.560177,2.59197 5.796733,6.23092 7.115095,10.36146 1.622358,5.05485 0.140817,9.19596 -2.188566,13.69237 -3.399568,5.35786 -8.737262,8.36829 -14.204376,11.20726 -6.092391,3.13595 -12.580193,5.09041 -19.255165,6.49438 0,0 -2.772365,-0.38095 -2.772365,-0.38095 l 0,0 c 6.66856,-1.37426 13.146058,-3.30294 19.234602,-6.41975 5.429793,-2.81227 10.760031,-5.7421 14.178693,-11.03625 2.31372,-4.42836 3.801172,-8.48091 2.180139,-13.46897 -1.320257,-4.06484 -3.54467,-7.65362 -7.104131,-10.14766 -0.544094,-0.29794 -2.626211,-1.46682 -3.23913,-1.69125 -0.590656,-0.21628 -1.358427,-0.0454 -1.829536,-0.46222 -0.250317,-0.22146 1.275695,-0.22978 0.952241,-0.31391 -0.05326,-0.0138 -4.261555,0.0302 -4.286886,0.0304 -4.850042,0.0767 -9.70778,0.22079 -14.525405,0.83059 -4.643099,0.69487 -9.306056,2.43773 -14.0258279,1.49938 -3.342957,-1.27964 -3.0971289,-3.60046 -2.2848732,-6.75114 0.8020271,-3.94656 2.089111,-7.79425 1.6694765,-11.88227 0.035625,-3.71706 0.041976,-7.495 1.1637716,-11.07865 1.4319797,-3.76513 4.0268091,-5.70625 8.011107,-6.5165 5.285688,-1.21144 10.625654,-0.83489 16.024826,-0.84285 7.976286,5.3e-4 15.952572,0.002 23.928857,-10e-4 0,0 2.790488,0.44197 2.790488,0.44197 z" />
    <path
       style="fill:#000000;fill-opacity:1;stroke:#000000;stroke-width:10;stroke-miterlimit:4;stroke-opacity:1;stroke-dasharray:none"
       id="path2886"
       d="m 64.269779,580.46881 c -0.01924,7.90474 -1.272084,15.75521 -2.077226,23.61031 -0.487343,4.58749 -0.692502,9.19381 -0.771538,13.80397 -0.69691,3.90601 -1.765691,7.72386 -2.355845,11.65077 -0.318695,2.23476 -0.42332,4.49248 -0.49636,6.74635 0,0 -2.844812,-0.01 -2.844812,-0.01 l 0,0 c 0.08204,-2.26442 0.187176,-4.5334 0.508216,-6.77871 0.584554,-3.91571 1.649746,-7.72167 2.356991,-11.61353 0.08012,-4.61876 0.294555,-9.23306 0.791519,-13.82813 0.821729,-7.84243 2.07966,-15.68668 2.063783,-23.58127 0,0 2.825272,0 2.825272,0 z" />
    <path
       style="fill:#000000;fill-opacity:1;stroke:#000000;stroke-width:10;stroke-miterlimit:4;stroke-opacity:1;stroke-dasharray:none"
       id="path2888"
       d="m 107.97722,635.07577 c -6.25432,-1.4642 -11.043688,-5.04226 -12.82911,-11.27409 -0.465507,-8.47231 4.88636,-15.08922 10.38267,-20.9121 6.31566,-6.53205 13.39435,-12.03057 22.31292,-14.23178 10.36706,-0.64832 14.4176,2.12186 18.72876,11.01144 3.17774,7.85158 2.73549,15.75299 0.0935,23.63578 -4.26535,7.10634 -8.50591,7.38646 -16.30797,7.32215 0,0 2.77815,-0.43332 2.77815,-0.43332 l 0,0 c 4.57824,0.80185 8.54794,-3.61992 10.72118,-6.98025 2.65232,-7.80987 3.0925,-15.63665 -0.0879,-23.41703 -1.65419,-3.3692 -3.1709,-6.50921 -6.41721,-8.65502 -0.86617,-0.57254 -1.92448,-0.80587 -2.80153,-1.36161 -0.24764,-0.15691 -0.20685,-0.67218 -0.49483,-0.72709 -1.12293,-0.21412 -2.28628,-0.0141 -3.42942,-0.0212 -8.93242,2.07683 -15.99855,7.57077 -22.31077,14.0695 -5.44358,5.72538 -10.79902,12.2537 -10.351465,20.62082 1.81178,6.14247 6.638365,9.58284 12.814555,10.95736 0,0 -2.80154,0.39641 -2.80154,0.39641 z" />
    <path
       style="fill:#000000;fill-opacity:1;stroke:#000000;stroke-width:10;stroke-miterlimit:4;stroke-opacity:1;stroke-dasharray:none"
       id="path2890"
       d="m -83.957991,131.53226 c 0.619361,6.68798 2.422347,13.14653 3.909873,19.67274 0.74017,3.41039 1.237894,6.85634 1.450612,10.33762 0.0469,0.75682 0.06334,1.51451 0.04706,2.27211 -3.576127,-0.0314 -0.688255,-0.26236 0.522618,-0.96772 2.01882,-2.39261 3.489957,-5.17862 5.101508,-7.85125 1.84933,-3.08083 3.639133,-6.19998 6.008645,-8.91034 2.714389,-3.72191 5.936779,-7.00375 8.820397,-10.59285 0.949721,-1.26818 2.152699,-2.33405 2.400202,-3.93696 0.01454,-0.18071 0.02908,-0.36143 0.04363,-0.54215 0,0 2.849675,0.0227 2.849675,0.0227 l 0,0 c -0.01489,0.1873 -0.02978,0.3746 -0.04467,0.56189 -0.245752,1.68 -1.380427,2.7764 -2.422376,4.08623 -2.890712,3.59005 -6.12059,6.86918 -8.823858,10.60515 -2.378946,2.68626 -4.159605,5.7888 -6.003145,8.85934 -1.622376,2.7154 -3.154205,5.486 -5.100136,7.98935 -2.143382,1.35328 -3.434277,1.07036 -6.208432,0.6573 0.023,-0.74528 0.0092,-1.49103 -0.03394,-2.23594 -0.200649,-3.46542 -0.695654,-6.89663 -1.426674,-10.29162 -1.475371,-6.53469 -3.26635,-13.00032 -3.92004,-19.68892 0,0 2.829062,-0.0467 2.829062,-0.0467 z" />
    <path
       style="fill:#000000;fill-opacity:1;stroke:#000000;stroke-width:10;stroke-miterlimit:4;stroke-opacity:1;stroke-dasharray:none"
       id="path2892"
       d="m -24.984371,165.88683 c -2.234166,5.31078 -2.787774,11.15399 -4.729611,16.53205 -0.877795,2.24757 -1.821498,4.47073 -2.864325,6.64697 -0.08556,0.18353 -0.180975,0.36209 -0.27419,0.54174 0,0 -2.852067,-0.14536 -2.852067,-0.14536 l 0,0 c 0.09271,-0.17478 0.200005,-0.34253 0.278447,-0.52495 1.058835,-2.16171 2.003961,-4.37812 2.885215,-6.61757 1.985562,-5.35777 2.505004,-11.21493 4.729648,-16.52387 0,0 2.826883,0.091 2.826883,0.091 z" />
    <path
       style="fill:#000000;fill-opacity:1;stroke:#000000;stroke-width:10;stroke-miterlimit:4;stroke-opacity:1;stroke-dasharray:none"
       id="path2894"
       d="m 532.50134,103.00756 c -0.89968,6.44196 -0.95562,13.21496 0.21355,19.63235 0.84454,4.16798 2.12078,8.15878 3.93536,11.99854 0.75394,1.85833 1.38496,3.76907 1.84831,5.72077 -0.14671,-0.11359 0.26542,0.63501 0.10195,0.54723 -3.08657,-1.6573 -1.46493,-1.16469 0.21592,-3.40814 2.55177,-3.34055 4.69871,-6.93022 6.93451,-10.47916 1.75283,-2.70786 2.90236,-5.6073 5.24188,-7.88325 1.06922,-0.77075 1.52524,-1.9937 1.81977,-3.22969 0.14574,-0.79584 0.0855,-1.61764 0.0739,-2.42346 0,0 2.85114,-0.004 2.85114,-0.004 l 0,0 c 0.0101,0.82904 0.0738,1.67448 -0.0738,2.49335 -0.29674,1.26894 -0.73569,2.60736 -1.83684,3.3931 -2.37789,2.23217 -3.51051,5.10574 -5.25261,7.81288 -2.24419,3.54923 -4.37659,7.15294 -6.92817,10.5 -0.80992,1.11687 -5.0509,5.90743 -5.9984,2.74701 -0.45321,-1.93325 -1.07393,-3.8266 -1.82995,-5.6624 -1.80482,-3.86722 -3.08446,-7.88192 -3.92245,-12.07275 -1.14883,-6.45595 -1.09647,-13.24812 -0.22312,-19.72931 0,0 2.82906,0.0467 2.82906,0.0467 z" />
    <path
       style="fill:#000000;fill-opacity:1;stroke:#000000;stroke-width:10;stroke-miterlimit:4;stroke-opacity:1;stroke-dasharray:none"
       id="path2896"
       d="m 574.93552,146.10793 c 6.1394,-0.99051 12.80666,-1.81481 18.04458,2.04862 1.9424,3.0889 0.78074,6.11646 -1.14642,8.86412 -1.9572,3.02277 -4.88234,5.22424 -7.61738,7.50407 -2.7392,1.91021 0.22443,3.19992 1.85636,4.36929 2.6925,1.38503 5.22164,3.03262 7.70539,4.75911 0.81574,1.60245 0.25881,2.38628 -1.13772,3.27215 0,0 -2.82577,-0.29736 -2.82577,-0.29736 l 0,0 c 1.29704,-0.66942 1.96132,-1.26257 1.13465,-2.70139 -2.48431,-1.72593 -5.03356,-3.33548 -7.70244,-4.76126 -1.7629,-1.22128 -4.67361,-2.90321 -1.85673,-4.88915 2.7258,-2.25875 5.65875,-4.43612 7.61522,-7.43125 1.87596,-2.57254 3.10025,-5.51186 1.15544,-8.42125 -3.86431,-2.74097 -7.84514,-2.9846 -12.42363,-1.91929 0,0 -2.80155,-0.39641 -2.80155,-0.39641 z" />
    <path
       style="fill:#000000;fill-opacity:1;stroke:#000000;stroke-width:10;stroke-miterlimit:4;stroke-opacity:1;stroke-dasharray:none"
       id="path2898"
       d="m 163.92771,774.77457 c -0.86491,8.71451 -2.19425,17.34576 -3.50191,26.00125 -0.72735,7.45716 -1.7543,14.82235 -3.09451,22.19058 -0.8847,4.32881 -1.35369,8.71258 -1.5594,13.12034 -0.35737,4.49313 1.64696,4.74612 -3.60591,3.81014 0,0 2.83595,-0.21173 2.83595,-0.21173 l 0,0 c -0.72233,0.28001 -1.40855,0.68213 -2.16699,0.84002 -0.12691,0.0264 -6.6e-4,-0.25927 7e-5,-0.38891 0.008,-1.35482 0.0504,-2.70926 0.10396,-4.06295 0.21295,-4.4207 0.67729,-8.81785 1.57858,-13.15763 1.34422,-7.36529 2.38467,-14.72637 3.11182,-22.18176 1.30531,-8.65423 2.65461,-17.28068 3.47368,-25.99943 0,0 2.82466,0.0401 2.82466,0.0401 z" />
    <path
       style="fill:#000000;fill-opacity:1;stroke:#000000;stroke-width:10;stroke-miterlimit:4;stroke-opacity:1;stroke-dasharray:none"
       id="path2900"
       d="m 95.555675,843.57013 c 11.414025,-1.48516 22.985105,-1.89456 34.488335,-2.32961 14.35645,-1.17242 28.71007,-2.27934 43.1038,-2.86874 12.8447,-0.71123 25.65575,-0.46747 38.45282,0.77269 4.31753,0.68539 8.76095,0.62167 13.05206,1.48934 -0.53285,1.20076 -2.97096,1.48485 -4.10353,1.79591 0,0 -2.80789,-0.3694 -2.80789,-0.3694 l 0,0 c 0.81233,-0.2138 3.59706,-1.43007 4.08804,-1.03414 -4.28751,-0.78079 -8.68282,-0.84171 -12.99095,-1.47146 -10.9861,-1.05967 -21.91914,-1.57244 -32.95936,-0.76174 -14.39465,0.58186 -28.75025,1.6727 -43.10554,2.86933 -13.35676,0.49947 -26.66998,1.49577 -40.003776,2.34907 0,0 2.785991,-0.44125 2.785991,-0.44125 z" />
    <path
       style="fill:#000000;fill-opacity:1;stroke:#000000;stroke-width:10;stroke-miterlimit:4;stroke-opacity:1;stroke-dasharray:none"
       id="path2902"
       d="m 137.73707,866.79145 c 6.36907,0.98445 12.77698,1.7072 19.20361,2.18184 3.45707,0.25466 6.92377,0.31213 10.38876,0.32933 3.37962,0.16193 -3.11819,0.40818 -4.32653,0.0401 0,0 2.81568,-0.36826 2.81568,-0.36826 l 0,0 c 3.021,0.7531 -0.36657,0.59253 -1.29547,0.77096 -3.46002,-0.0234 -6.92153,-0.0891 -10.37308,-0.35151 -6.42998,-0.48945 -12.84119,-1.22008 -19.21452,-2.20603 0,0 2.80155,-0.39642 2.80155,-0.39642 z" />
    <path
       style="fill:#000000;fill-opacity:1;stroke:#000000;stroke-width:10;stroke-miterlimit:4;stroke-opacity:1;stroke-dasharray:none"
       id="path2904"
       d="m 152.02517,890.01239 c 6.00238,2.19778 12.26819,3.4826 18.58308,4.36307 4.00573,0.25907 7.86485,1.53374 11.65954,2.77442 0.70442,0.23232 1.40863,0.4717 2.08468,0.77461 -0.11069,0.12991 -0.22138,0.25981 -0.33207,0.38972 0,0 -2.81948,-0.43502 -2.81948,-0.43502 l 0,0 c 0.10436,0.12131 0.20871,0.24261 0.31307,0.36392 -0.68195,-0.26363 -1.37019,-0.51052 -2.06536,-0.73744 -3.7864,-1.23278 -7.63517,-2.46755 -11.63136,-2.72827 -6.32057,-0.90648 -12.5855,-2.2196 -18.59842,-4.41266 0,0 2.80632,-0.35235 2.80632,-0.35235 z" />
  </g>
</svg>
