<?xml version="1.0" encoding="UTF-8" standalone="no"?>
<!-- Created with Inkscape (http://www.inkscape.org/) -->

<svg
   xmlns:dc="http://purl.org/dc/elements/1.1/"
   xmlns:cc="http://creativecommons.org/ns#"
   xmlns:rdf="http://www.w3.org/1999/02/22-rdf-syntax-ns#"
   xmlns:svg="http://www.w3.org/2000/svg"
   xmlns="http://www.w3.org/2000/svg"
   xmlns:sodipodi="http://sodipodi.sourceforge.net/DTD/sodipodi-0.dtd"
   xmlns:inkscape="http://www.inkscape.org/namespaces/inkscape"
   width="1204.1215"
   height="1000.0772"
   id="svg2"
   version="1.1"
   inkscape:version="0.47pre4 r22446"
   sodipodi:docname="New document 1">
  <defs
     id="defs4">
    <inkscape:perspective
       sodipodi:type="inkscape:persp3d"
       inkscape:vp_x="0 : 526.18109 : 1"
       inkscape:vp_y="0 : 1000 : 0"
       inkscape:vp_z="744.09448 : 526.18109 : 1"
       inkscape:persp3d-origin="372.04724 : 350.78739 : 1"
       id="perspective10" />
  </defs>
  <sodipodi:namedview
     id="base"
     pagecolor="#ffffff"
     bordercolor="#666666"
     borderopacity="1.0"
     inkscape:pageopacity="0.0"
     inkscape:pageshadow="2"
     inkscape:zoom="0.35"
     inkscape:cx="550.08746"
     inkscape:cy="462.30034"
     inkscape:document-units="px"
     inkscape:current-layer="layer1"
     showgrid="false"
     inkscape:window-width="1280"
     inkscape:window-height="726"
     inkscape:window-x="0"
     inkscape:window-y="25"
     inkscape:window-maximized="1" />
  <metadata
     id="metadata7">
    <rdf:RDF>
      <cc:Work
         rdf:about="">
        <dc:format>image/svg+xml</dc:format>
        <dc:type
           rdf:resource="http://purl.org/dc/dcmitype/StillImage" />
        <dc:title></dc:title>
      </cc:Work>
    </rdf:RDF>
  </metadata>
  <g
     inkscape:label="Layer 1"
     inkscape:groupmode="layer"
     id="layer1"
     transform="translate(135.08746,19.700373)">
    <path
       style="fill:#000000;fill-opacity:1;stroke:#000000;stroke-width:10;stroke-miterlimit:4;stroke-opacity:1;stroke-dasharray:none"
       id="path2816"
       d="m -127.30147,469.28441 c 12.82006,-0.20253 25.66789,0.44803 38.470421,-0.33039 19.086047,-0.7811 38.126884,-2.21048 57.183222,-3.48246 19.001093,-0.85012 37.9793033,-1.81933 56.956544,-3.10465 12.501499,-0.87373 25.024893,-1.33053 37.55261,-1.57976 5.072405,0.0844 10.327058,0.3732 15.094896,2.29475 0.140355,0.0703 0.28071,0.14051 0.421065,0.21077 0,0 -2.833001,0.31955 -2.833001,0.31955 l 0,0 c -0.138318,-0.0635 -0.276637,-0.12707 -0.414955,-0.19061 -3.067828,-1.17714 -6.316818,-1.52493 -9.503336,-2.2021 -12.545144,0.23892 -25.086122,0.68858 -37.60518,1.55821 -18.9845631,1.28154 -37.9687463,2.26674 -56.977741,3.10169 -19.04872,1.26868 -38.080791,2.7088 -57.158908,3.49312 -14.654757,0.46512 -29.310207,0.36197 -43.971627,0.35314 0,0 2.78599,-0.44126 2.78599,-0.44126 z" />
    <path
       style="fill:#000000;fill-opacity:1;stroke:#000000;stroke-width:10;stroke-miterlimit:4;stroke-opacity:1;stroke-dasharray:none"
       id="path2818"
       d="m -56.548649,512.50574 c 8.921996,1.32613 17.933118,1.8312 26.93723,2.17928 10.690261,0.48652 21.4056999,-0.0491 32.0808625,0.68623 7.3840155,0.71434 14.7502715,1.59344 22.1462125,2.18021 2.300154,0.1652 1.23409,0.0929 3.197954,0.22045 0,0 -2.807128,0.42561 -2.807128,0.42561 l 0,0 c -1.955057,-0.13179 -0.893529,-0.0574 -3.184355,-0.2265 -7.382575,-0.59858 -14.7357662,-1.4848 -22.10908988,-2.18215 -10.67736412,-0.70022 -21.39145512,-0.19252 -32.08190912,-0.67814 -9.019297,-0.35591 -18.045168,-0.87281 -26.981317,-2.20858 0,0 2.80154,-0.39641 2.80154,-0.39641 z" />
    <path
       style="fill:#000000;fill-opacity:1;stroke:#000000;stroke-width:10;stroke-miterlimit:4;stroke-opacity:1;stroke-dasharray:none"
       id="path2820"
       d="m -7.1610694,537.95343 c -0.024589,11.33591 -0.022786,22.67186 -0.027102,34.00779 0.4030047,14.11765 -0.3170015,28.17772 -1.294616,42.25263 -0.8642194,11.7941 -1.2501703,23.61393 -1.4562664,35.43539 -0.1070262,7.61164 -0.1133182,15.22421 -0.096218,22.83643 0.0056,3.32671 0.01243,6.65342 0.02699,9.98012 9.48e-4,0.1939 0.0019,0.3878 0.0028,0.5817 0.0014,0.0118 0.0029,0.0237 0.0043,0.0355 0,0 -2.856632,0.005 -2.856632,0.005 l 0,0 c 9.64e-4,-0.0135 0.0019,-0.027 0.0029,-0.0404 2.28e-4,-0.1939 4.56e-4,-0.38781 6.85e-4,-0.58171 0.0026,-3.32682 -0.0016,-6.65362 -0.0046,-9.98043 0.0063,-7.61402 0.0215,-15.22827 0.129486,-22.84165 0.219807,-11.82623 0.612055,-23.65087 1.481503,-35.44961 0.98316,-14.06835 1.7000449,-28.12197 1.2931078,-42.23339 -0.00432,-11.33593 -0.00251,-22.67188 -0.027102,-34.00779 0,0 2.8207184,0 2.8207184,0 z" />
    <path
       style="fill:#000000;fill-opacity:1;stroke:#000000;stroke-width:10;stroke-miterlimit:4;stroke-opacity:1;stroke-dasharray:none"
       id="path2822"
       d="m -59.919626,787.53745 c -5.423823,-9.49117 -4.189483,-19.88881 -2.24173,-30.15602 3.103787,-14.65707 10.536115,-27.51964 18.555171,-39.95066 8.681801,-12.69649 16.846687,-19.46452 31.253561,-24.63691 16.0561094,-4.24361 26.284637,-2.73838 40.599099,5.04453 15.251389,9.11501 22.727417,23.07261 29.208224,39.00936 4.423487,13.04508 6.773218,26.89837 6.450493,40.70416 -0.195303,8.35482 -1.146128,12.50612 -2.464197,20.70293 -3.478541,16.21755 -10.311651,31.59849 -21.225199,44.21752 -2.043091,2.36237 -4.359636,4.47365 -6.539454,6.71048 -10.167274,9.38706 -22.636484,16.81188 -36.8588668,17.16451 -3.4907592,0.0865 -6.9758352,-0.3306 -10.4637522,-0.49589 -20.947986,-5.10188 -29.74105,-19.7863 -38.569975,-38.08626 -7.572431,-20.37118 -10.930854,-42.56347 -8.412928,-64.26133 0.502531,-4.33049 1.552115,-8.57983 2.328172,-12.86974 2.436016,-12.22618 8.120008,-22.99689 14.07217,-33.76607 0,0 2.694105,0.13631 2.694105,0.13631 l 0,0 c -5.95305,10.73922 -11.639688,21.47965 -14.083586,33.67789 -0.77782,4.2787 -1.830067,8.51651 -2.333461,12.83611 -2.523689,21.65561 0.847392,43.80613 8.43877,64.12496 8.84715,18.24253 17.641061,32.84478 38.589382,37.79501 16.4316564,1.67327 30.027074,-5.60343 41.875678,-16.4667 2.179982,-2.22606 4.496871,-4.32583 6.539945,-6.67816 10.914879,-12.56708 17.749151,-27.90519 21.229835,-44.08207 1.317501,-8.16498 2.272906,-12.32874 2.467219,-20.65101 0.321599,-13.77381 -2.030432,-27.59808 -6.459861,-40.6071 -6.622868,-16.20733 -13.76547,-29.49956 -29.231754,-38.81821 -12.011655,-6.45823 -21.7031982,-9.03915 -35.0980947,-5.00142 -14.4190963,5.09638 -22.5552813,11.78209 -31.2538523,24.45501 -8.008935,12.3973 -15.442941,25.21797 -18.536381,39.84463 -1.930139,10.19994 -3.175938,20.53926 2.290697,29.93816 0,0 -2.819429,0.16598 -2.819429,0.16598 z" />
    <path
       style="fill:#000000;fill-opacity:1;stroke:#000000;stroke-width:10;stroke-miterlimit:4;stroke-opacity:1;stroke-dasharray:none"
       id="path2824"
       d="m 4.2697786,729.04024 c 0.1011825,8.94376 -0.1697324,17.97674 -2.0711137,26.74206 -0.2721649,0.90923 -0.5443299,1.81846 -0.8164948,2.72769 0,0 -2.8181193,-0.0828 -2.8181193,-0.0828 l 0,0 c 0.2753317,-0.90184 0.5506634,-1.80367 0.82599509,-2.70551 1.93315811,-8.73842 2.20660731,-17.75855 2.05446121,-26.68148 0,0 2.8252715,0 2.8252715,0 z" />
    <path
       style="fill:#000000;fill-opacity:1;stroke:#000000;stroke-width:10;stroke-miterlimit:4;stroke-opacity:1;stroke-dasharray:none"
       id="path2826"
       d="m -7.9748341,735.72667 c 6.1525378,2.00656 12.4515128,3.44459 18.8525321,4.36358 2.971055,0.35308 1.508595,0.20651 4.386824,0.44521 0,0 -2.79764,0.41872 -2.79764,0.41872 l 0,0 c -2.87605,-0.25226 -1.415405,-0.0997 -4.3813896,-0.46299 -6.404805,-0.94623 -12.7068491,-2.40415 -18.8666394,-4.41216 0,0 2.8063129,-0.35236 2.8063129,-0.35236 z" />
    <path
       style="fill:#000000;fill-opacity:1;stroke:#000000;stroke-width:10;stroke-miterlimit:4;stroke-opacity:1;stroke-dasharray:none"
       id="path2828"
       d="m -1.9202881,813.22331 c 4.4591522,1.29934 12.8858301,5.81984 17.4370461,4.78249 1.140874,-0.26004 2.242232,-0.67026 3.363349,-1.00539 0,0 2.787478,0.35589 2.787478,0.35589 l 0,0 c -9.056803,2.91391 -17.94606,-0.38887 -26.3911793,-3.80466 0,0 2.8033062,-0.32833 2.8033062,-0.32833 z" />
    <path
       style="fill:#000000;fill-opacity:1;stroke:#000000;stroke-width:10;stroke-miterlimit:4;stroke-opacity:1;stroke-dasharray:none"
       id="path2830"
       d="m -9.9840643,475.68412 c -0.3698327,-8.87734 0.3930205,-17.67041 1.3088935,-26.4866 1.6529087,-10.18132 3.264899,-20.36306 5.4503526,-30.44625 2.63133752,-12.00164 5.292087,-23.99891 8.0186614,-35.98087 3.1098709,-14.0224 5.6855678,-28.15255 8.5896398,-42.217 2.156799,-11.99506 4.66228,-23.93282 6.578077,-35.97093 1.783749,-5.22237 -0.502887,-12.1238 2.656014,-16.80787 5.420858,-1.90011 11.303309,0.87478 16.599694,2.05355 11.381896,2.38494 22.929676,0.83276 34.312011,-0.65727 21.65335,-2.72535 43.111841,-6.75839 64.619441,-10.42255 21.67197,-3.7634 43.61879,-5.32055 65.56987,-6.18617 15.60962,-0.52136 31.2294,-0.5059 46.84551,-0.49418 5.65028,0.01 11.30053,0.0314 16.95079,0.0483 3.11192,0.009 3.68226,0.67098 2.60566,-0.30895 3.48191,-0.74064 6.90348,-1.68087 10.43227,-2.18295 3.13447,-0.10427 3.2855,-2.50826 3.96218,-5.03624 1.35189,-6.77557 2.48841,-13.60318 3.67699,-20.41644 1.04265,-7.35472 2.43694,-14.68827 4.64289,-21.78718 0.34131,-0.93359 2.08855,-8.16461 2.90176,-8.07002 1.30583,0.15189 2.53965,0.68064 3.80947,1.02096 3.5675,5.33118 4.89008,11.84537 5.95862,18.07115 2.54255,11.48856 3.38211,23.21688 3.93742,34.93826 1.19363,13.5837 2.25791,27.1742 2.89458,40.79611 0.43263,4.45643 0.0466,8.98147 0.42957,13.43824 0.0642,0.74718 0.19385,1.49291 0.39995,2.21397 0.0988,0.34577 0.84545,1.06999 0.50532,0.9532 -0.70452,-0.2419 -1.17046,-0.92169 -1.75569,-1.38253 3.72104,-9.2702 6.34711,-18.94012 9.00476,-28.55618 4.29181,-15.52089 8.795,-30.99864 14.78354,-45.95714 5.46717,-12.73274 11.59472,-25.16936 19.17666,-36.77755 3.87602,-4.90694 7.55843,-12.78323 14.62341,-13.16463 1.5245,0.26864 3.11496,0.28736 4.57351,0.80592 3.64597,1.29627 6.44585,9.37258 7.50623,12.5615 2.48035,10.19302 2.44217,20.78773 2.63947,31.21685 0.16464,12.7329 -1.25679,25.42502 -2.00839,38.12749 0.50348,4.49979 -2.24476,17.36629 0.0273,20.988 -0.48093,-0.55661 -1.44564,-0.93424 -1.4428,-1.66984 0.004,-1.00395 1.04626,-1.71966 1.45945,-2.63464 0.51527,-1.14105 0.89949,-2.33717 1.31851,-3.51697 1.74951,-4.926 3.25657,-9.90399 4.67076,-14.9346 3.37179,-12.54689 7.7559,-24.76068 13.00874,-36.63321 4.47304,-9.4448 9.29746,-18.88966 15.48541,-27.3434 3.0215,-3.9082 8.17251,-9.19041 13.31193,-4.97109 4.50202,5.64775 5.67302,13.32331 6.82135,20.25761 1.04652,11.08344 1.92196,22.17553 2.96814,33.26396 0.38706,9.38804 1.94342,18.63527 3.21315,27.9259 0.68052,2.90304 1.01883,5.97027 2.54549,8.59907 0.28154,0.4848 0.61192,0.9609 1.0428,1.31956 0.24819,0.20658 1.23324,0.37802 0.91718,0.31186 -0.58672,-0.12282 -1.15492,-0.32168 -1.73238,-0.48251 4.02275,-7.45346 4.80949,-16.60934 6.76036,-24.82331 2.72934,-15.17929 7.0606,-29.94293 11.43054,-44.70421 2.97819,-8.60189 5.20241,-17.62514 9.79505,-25.56205 5.9995,-4.38187 7.48336,5.12641 8.4181,8.82542 2.62903,8.92635 3.68916,18.15143 4.30546,27.40066 0.54896,10.15989 0.58366,20.33827 0.61499,30.51016 -0.20073,4.57939 0.49448,9.16048 2.06257,13.46403 0.20027,0.0586 0.80936,0.16858 0.60082,0.17577 -0.606,0.0209 -1.51685,0.39455 -1.81413,-0.13393 -0.0433,-0.0769 1.32259,-0.416 3.23886,-1.34114 2.10634,-1.0169 2.44091,-1.31425 4.50099,-2.61149 6.46743,-4.79387 13.69861,-8.34808 21.06388,-11.52012 10.40853,-4.37822 21.41463,-6.42009 32.46261,-8.35934 12.74441,-2.32149 25.68657,-3.01423 38.60776,-3.44651 13.60243,-1.09616 27.20366,-2.09405 40.84059,-2.63208 12.15755,-0.41497 24.32318,-0.4698 36.48654,-0.50117 8.93368,-0.0137 17.86736,-10e-4 26.80104,0.007 4.25288,0.004 8.50576,0.006 12.75864,0.006 1.59937,1.44258 0.30644,5.15256 0.10234,7.09611 -1.47899,7.32405 -2.85461,14.66276 -4.55987,21.93971 -2.43199,12.55845 -4.57366,25.17659 -6.77763,37.77873 -1.87262,13.69845 -3.77615,27.39607 -5.11764,41.15984 -0.94279,10.91256 -0.94348,21.84865 -2.12174,32.73976 -1.09804,8.84303 -1.59777,17.73578 -1.86887,26.6371 -0.74296,6.94814 -1.90428,13.83423 -2.51688,20.79779 -0.37381,4.29775 -0.47145,8.61101 -0.50376,12.92254 -0.16386,2.90274 -0.2214,5.40318 2.53887,6.88487 -5.3109,0.45649 5.88957,-1.80812 6.31489,-1.94347 4.27989,-1.8866 8.97714,-2.06959 13.45682,-3.13747 4.76217,-1.53207 9.69416,-2.18674 14.66059,-2.56994 4.80143,-0.30212 9.6133,-0.3196 14.42216,-0.33001 4.5395,-0.006 9.07898,0.0117 13.61847,0.0192 0.55625,6.7e-4 1.30472,0.4226 1.66874,0.002 0.31365,-0.36238 -1.44769,0.17015 -1.40461,-0.30718 0.044,-0.48761 5.58512,-0.4278 7.43527,1.71421 1.79299,3.68046 1.54347,7.89427 1.61747,11.885 0.0514,7.40332 8e-4,14.80703 -0.0186,22.21043 -0.78414,11.03296 -1.85827,22.03526 -3.18942,33.01435 -1.18785,10.87223 -3.28956,21.60309 -4.45081,32.48173 -1.32715,7.41605 -2.65162,14.812 -3.3139,22.3216 -0.96746,5.93541 -2.18908,11.82291 -2.85559,17.80327 -0.4911,6.16278 -0.48888,12.35115 -0.51639,18.52933 0.67919,6.58977 1.76718,13.12036 2.35365,19.72213 0.23275,3.24991 1.53906,7.54423 -2.82253,7.8478 -7.78843,-0.64293 -15.12759,-3.72489 -22.64133,-5.76506 -10.82554,-2.2962 -21.74693,-4.16623 -32.74687,-5.4007 -11.61667,-1.53222 -23.19678,-0.82476 -34.82205,-0.0541 -10.29778,0.29002 -20.46939,1.79216 -30.65881,3.17148 -3.27667,0.0447 -12.30579,3.33532 -12.60459,-1.83711 1.05518,-6.15866 3.46174,-12.01057 5.45362,-17.9161 3.6407,-12.81216 6.64154,-25.80444 9.46142,-38.81993 2.96373,-13.58967 6.93331,-26.92896 10.30372,-40.41752 1.25878,-6.37917 3.78155,-12.40592 5.11367,-18.76227 0.68075,-5.06724 0.76082,-10.12089 1.67057,-15.16012 1.22023,-6.26125 1.57757,-12.64297 1.83533,-19.00318 0.4469,-4.63951 -0.33264,-9.40237 0.52289,-13.98916 1.1382,-3.41264 1.42338,-7.04626 2.51888,-10.45492 1.87194,-3.77756 5.16757,-4.70662 9.05669,-5.30076 7.64625,-0.85734 15.32424,0.16731 22.82029,1.6618 7.51766,0.89462 14.37361,3.80849 21.40034,6.38297 4.53857,1.25177 2.25151,0.69904 6.86119,1.65814 0,0 -2.78399,0.38189 -2.78399,0.38189 l 0,0 c -4.61437,-0.98334 -2.32485,-0.41735 -6.86849,-1.69824 -7.01359,-2.58823 -13.88367,-5.42961 -21.3863,-6.34009 -5.73907,-1.11652 -11.44013,-2.32368 -17.2441,-1.64486 -3.81426,0.53639 -7.11439,1.31043 -9.02301,4.98811 -1.11243,3.3908 -1.36989,7.02183 -2.51928,10.41916 -0.88446,4.56586 -0.0683,9.32575 -0.54075,13.9474 -0.25991,6.37247 -0.61625,12.76741 -1.82984,19.04214 -0.9112,5.04176 -0.98727,10.09742 -1.66511,15.168 -1.32969,6.36505 -3.87826,12.38968 -5.15706,18.77233 -3.39135,13.48256 -7.36946,26.8188 -10.33386,40.40779 -2.81127,13.02483 -5.80484,26.02533 -9.42014,38.85202 -1.97153,5.87183 -4.33762,11.69263 -5.4054,17.80839 0.22593,3.6137 3.16028,1.69222 6.98733,1.45253 10.20298,-1.37171 20.38395,-2.90543 30.69534,-3.18516 13.43594,-0.89496 26.89112,-1.52597 40.3126,0.0653 11.00513,1.25067 21.93771,3.11565 32.76461,5.4414 5.22851,1.42753 10.37539,3.07723 15.56175,4.63951 0.78774,0.23729 1.71158,0.16205 2.38517,0.6344 0.26652,0.1869 -0.5878,0.27993 -0.88171,0.41989 4.38203,0.002 3.01703,-4.15679 2.81384,-7.38825 -0.58569,-6.61028 -1.67461,-13.14942 -2.34983,-19.74813 0.0202,-6.18827 0.0269,-12.38604 0.50523,-18.55959 0.66673,-5.97877 1.89819,-11.86306 2.86746,-17.79657 0.65867,-7.5128 1.99004,-14.91052 3.33124,-22.32678 1.17079,-10.8798 3.2796,-21.61132 4.47024,-32.48532 1.32536,-10.96809 2.39003,-21.95983 3.16791,-32.9815 0.0111,-7.40144 0.0518,-14.80318 -0.005,-22.20447 -0.0769,-3.9145 0.18915,-8.09364 -1.63058,-11.68096 -0.27121,-0.28242 -0.49568,-0.61874 -0.81363,-0.84726 -0.31579,-0.22695 -1.24965,-0.15919 -1.05581,-0.49632 0.25778,-0.44833 1.33008,0.17007 1.51998,-0.31096 0.17673,-0.44767 -0.96029,0.0672 -1.43985,0.108 -4.95339,0.42201 -2.72435,0.3753 -5.87523,0.37083 -2.90083,-0.005 -5.80177,-0.006 -8.70257,-0.0187 -0.22534,-9.6e-4 0.45069,-9e-4 0.67603,-0.001 -4.80985,0.007 -9.62253,0.0207 -14.42568,0.30847 -4.96056,0.36564 -9.89706,0.97881 -14.64999,2.52436 -4.46082,1.12344 -9.17674,1.21034 -13.44837,3.1164 -3.81355,1.29776 -7.93417,2.10424 -11.95156,1.88874 -2.72312,-1.63562 -2.7151,-4.23106 -2.54434,-7.18623 0.0391,-4.31922 0.1331,-8.64027 0.52055,-12.94497 0.61466,-6.95878 1.77843,-13.83939 2.53249,-20.7816 0.27526,-8.90863 0.77259,-17.80881 1.87682,-26.65877 1.18984,-10.88946 1.19131,-21.82527 2.14234,-32.73659 1.35688,-13.7695 3.25394,-27.47463 5.12594,-41.18061 2.20335,-12.60619 4.33976,-25.22854 6.7507,-37.79503 1.69656,-7.26475 3.05505,-14.59206 4.51919,-21.90483 0.17055,-1.66498 1.47586,-5.55418 -0.0761,-6.62264 -4.24432,-0.003 -8.48864,-0.005 -12.73295,-0.0105 -7.09024,-0.008 -14.18047,-0.0215 -21.27071,-0.0123 -12.16888,0.0288 -24.34,0.0794 -36.50326,0.48825 -13.63687,0.53084 -27.23915,1.51297 -40.83948,2.63395 -12.91551,0.42374 -25.85357,1.09867 -38.59409,3.40908 -11.03436,1.9406 -22.03568,3.93469 -32.43868,8.29723 -7.35201,3.15785 -14.59129,6.67492 -21.03124,11.47867 -3.10633,1.98792 -8.34234,5.84923 -12.17389,3.72578 -1.53519,-4.34461 -2.23592,-8.95254 -2.02033,-13.56129 -0.0176,-10.16591 -0.0474,-20.33828 -0.60024,-30.49211 -0.62869,-9.2325 -1.68646,-18.44361 -4.33316,-27.34919 -0.72325,-2.81423 -0.70067,-3.16815 -1.75525,-5.72273 -0.29452,-0.71342 -0.61753,-1.41646 -0.98035,-2.09769 -0.23464,-0.44055 -1.08468,-0.84496 -0.80824,-1.26055 0.34433,-0.51765 1.2725,-0.54302 1.84189,-0.2934 0.38074,0.16691 -0.71808,0.41911 -1.07711,0.62867 -4.67234,7.87874 -6.86421,16.91471 -9.86481,25.49158 -4.37719,14.75354 -8.7169,29.509 -11.41791,44.68917 -1.96688,8.32832 -2.80883,17.43714 -6.70729,25.08546 -1.30477,0.16298 -2.59943,0.48088 -3.91432,0.48895 -2.68943,0.0165 -4.10267,-8.81821 -4.48779,-10.52553 -1.25931,-9.29475 -2.8012,-18.54732 -3.18681,-27.9377 -1.04653,-11.08196 -1.92054,-22.16829 -2.97894,-33.2441 -1.14652,-6.85656 -2.29359,-14.52642 -6.85435,-20.04493 -0.41791,-0.30173 -1.25388,-0.38975 -1.25371,-0.90519 1.3e-4,-0.42871 1.65652,-0.43302 1.25408,-0.28525 -3.23487,1.18783 -5.65866,3.1643 -7.69022,6.08054 -6.22099,8.41215 -11.03226,17.85835 -15.51392,27.28123 -5.2577,11.85671 -9.64233,24.05529 -12.99974,36.59362 -0.82723,2.9596 -5.16965,19.50833 -7.40569,21.20842 -1.19953,0.91201 -2.81355,1.08004 -4.22033,1.62006 -2.1371,-4.03745 0.49754,-16.36239 0.0382,-21.15285 0.75751,-12.69459 2.18109,-25.38025 2.00656,-38.10574 -0.19901,-10.40148 -0.16614,-20.97094 -2.66788,-31.13146 -1.09222,-3.24206 -2.22302,-6.24971 -4.20715,-9.07336 -0.46623,-0.66351 -0.96717,-1.31036 -1.54549,-1.87884 -0.53008,-0.52106 -1.51396,-0.66833 -1.75948,-1.36992 -0.1376,-0.3932 0.68993,-0.46708 1.0349,-0.70062 -7.0577,-0.0115 -10.8098,8.10822 -14.64156,12.89053 -7.60349,11.58163 -13.73851,24.00112 -19.20896,36.72102 -5.99598,14.94353 -10.49261,30.41222 -14.76486,45.92682 -2.65519,9.65056 -5.3025,19.33623 -8.94149,28.67224 -1.30375,0.44139 -2.53774,1.23436 -3.91125,1.32417 -0.26134,0.0171 -0.74221,-1.61805 -0.87654,-3.2925 -0.35754,-4.45691 0.028,-8.97606 -0.39615,-13.43216 -0.62544,-13.6223 -1.67797,-27.21301 -2.88236,-40.79574 -0.566,-11.71082 -1.41644,-23.42773 -3.97004,-34.90365 -1.07103,-6.16541 -2.37656,-12.6617 -5.99113,-17.89902 0.6184,-0.3239 1.22966,-0.6618 1.8552,-0.97169 0.47409,-0.23485 -0.79139,0.76408 -0.9563,1.2668 -0.71692,2.18553 -1.22006,4.44187 -1.96515,6.61926 -2.22437,7.08155 -3.61587,14.40653 -4.65278,21.75038 -1.19076,6.82023 -2.32746,13.65338 -3.65335,20.4414 -0.65786,2.49769 -0.80831,5.25538 -3.98179,5.368 -3.53761,0.48115 -6.96882,1.39232 -10.44605,2.18146 -8.35669,0.5648 -16.72402,0.26967 -25.09748,0.2915 -13.80285,-0.0331 -27.60824,0.0399 -41.40525,0.47561 -21.9575,0.85292 -43.91235,2.39045 -65.59176,6.14738 -21.49417,3.66431 -42.938787,7.69882 -64.576665,10.43902 -13.163396,1.74889 -26.650598,3.18498 -39.81155,0.6418 -3.889508,-0.87933 -10.491123,-3.13848 -10.983849,-2.25771 -3.098513,4.20064 -0.997801,11.78348 -2.693718,16.67816 -1.936113,12.04091 -4.455946,23.98172 -6.613769,35.98282 -2.908192,14.06487 -5.474344,28.19807 -8.5801253,42.22266 -2.7196725,11.98174 -5.3773916,23.97764 -8.00432887,35.97839 -2.18279633,10.07298 -3.78432913,20.24533 -5.43734773,30.41586 -0.9191579,8.80606 -1.6877593,17.59007 -1.2788299,26.4576 0,0 -2.8252715,0 -2.8252715,0 z" />
    <path
       style="fill:#000000;fill-opacity:1;stroke:#000000;stroke-width:10;stroke-miterlimit:4;stroke-opacity:1;stroke-dasharray:none"
       id="path2832"
       d="m 670.32552,631.87734 c 1.71845,11.59146 0.81174,23.33554 0.44018,34.9911 -0.2067,20.45429 -1.20612,40.87361 -2.08586,61.30622 -1.60906,27.09162 -3.55874,54.16971 -5.93915,81.20477 -1.69553,17.26461 -3.1017,34.55561 -3.88037,51.88657 0.0446,6.69535 1.32284,13.28364 1.98654,19.92777 0.43496,5.03916 0.52413,10.0996 0.57013,15.15464 0.0249,3.57096 0.0172,7.14206 0.01,10.71307 0.32558,3.95867 -1.29729,5.96888 -4.53806,7.79941 -8.33477,3.34455 -17.20427,4.98761 -25.94903,6.86164 -17.53787,3.92991 -35.26622,6.96678 -53.0394,9.60832 -24.29713,3.08686 -48.83053,3.5818 -73.2728,4.74912 -33.563,0.97067 -67.08651,2.14003 -100.60393,4.17009 -35.96414,2.06475 -71.76038,5.91783 -107.57577,9.64653 -32.99814,3.16847 -65.74031,8.4645 -98.36628,14.25206 -21.74372,3.67263 -43.34227,8.38613 -65.39985,9.64325 -13.71282,0.37017 -27.42148,-0.27253 -41.120682,-0.80068 -5.429097,-0.50441 -10.700415,-1.94635 -16.079509,-2.76113 -3.90075,-0.15152 -7.63135,-1.0504 -11.43714,-1.84477 -6.045212,-1.16497 -12.222103,-1.29147 -18.357605,-1.43599 -6.578625,0.0967 -13.156701,1.35435 -19.759027,1.9572 -6.820367,1.15492 -13.615972,2.37604 -20.4945668,3.13562 -3.9142672,0.79113 -7.6771603,2.12197 -11.6003549,2.87897 -3.8679733,0.57845 -7.9901033,0.96805 -11.4328073,-1.16964 -3.202258,-2.52922 -4.044357,-7.06129 -4.945093,-10.84257 -1.445756,-8.33665 -1.511396,-16.83964 -1.6659,-25.27732 -0.08571,-7.1638 -0.09239,-14.32827 -0.08243,-21.49248 0.0027,-2.68086 0.0069,-5.36171 0.01301,-8.04256 -0.0043,-4.39633 1.15065,-8.76075 2.082109,-13.04846 1.156775,-5.81893 0.521946,-2.77304 1.92186,-9.13403 0,0 2.788569,0.0601 2.788569,0.0601 l 0,0 c -1.38577,6.35727 -0.757373,3.31151 -1.902388,9.1337 -0.919065,4.26939 -2.052156,8.61561 -2.048379,12.98905 -0.0014,2.68096 -0.01941,5.36184 -0.03066,8.04278 -0.02145,7.16227 -0.04168,14.32492 0.05534,21.48679 0.151172,8.41777 0.218608,16.90276 1.686433,25.21608 0.897467,3.72026 1.726935,8.19019 4.94855,10.61656 0.450383,0.25809 0.873753,0.57044 1.351149,0.77428 0.470705,0.20098 1.455585,-0.0797 1.473492,0.43178 0.01719,0.49092 -1.548359,-0.2124 -1.44897,0.26866 0.04292,0.20773 4.1573622,-0.39706 4.4262769,-0.40396 3.9377823,-0.73403 7.711555,-2.04208 11.620299,-2.89856 6.8857654,-0.74509 13.6910111,-1.94008 20.5099901,-3.13862 8.428899,-0.75633 16.815425,-2.33761 25.309001,-1.97616 6.144741,0.15109 12.330969,0.29014 18.380832,1.48459 3.803025,0.80144 7.549326,1.6285 11.442041,1.82878 5.359743,0.84268 10.62192,2.26405 16.040731,2.73435 11.875489,0.46372 23.760719,1.08405 35.647819,0.81417 22.0842,-1.20936 43.70589,-5.9347 65.47369,-9.59975 32.64154,-5.7893 65.39931,-11.08985 98.41241,-14.26457 35.81537,-3.72634 71.6101,-7.59224 107.57406,-9.65821 33.50194,-2.0315 67.00919,-3.21842 100.55722,-4.18064 24.42245,-1.1693 48.93471,-1.67041 73.21452,-4.73065 17.75751,-2.63152 35.47038,-5.66468 52.99016,-9.59746 8.71745,-1.87333 17.5416,-3.52493 25.87688,-6.78599 3.19572,-1.7752 4.86705,-3.54926 4.51834,-7.50023 0.006,-3.56998 0.0212,-7.14001 -3.5e-4,-10.70997 -0.0464,-5.04652 -0.12586,-10.09863 -0.56476,-15.12916 -0.66375,-6.65614 -1.93413,-13.2599 -1.94557,-19.96866 0.82119,-17.33475 2.25805,-34.62906 3.97371,-51.89745 2.40223,-27.02894 4.35237,-54.10348 5.93488,-81.19249 0.85599,-20.43202 1.83975,-40.85038 2.01747,-61.30346 0.36025,-11.63918 1.26698,-23.37382 -0.50564,-34.94235 0,0 2.82466,-0.0401 2.82466,-0.0401 z" />
    <path
       style="fill:#000000;fill-opacity:1;stroke:#000000;stroke-width:10;stroke-miterlimit:4;stroke-opacity:1;stroke-dasharray:none"
       id="path2834"
       d="m 345.29065,17.902889 c 5.45686,13.025619 7.48847,27.126476 9.69872,40.980982 2.17887,13.556652 1.87137,27.330391 1.36545,41.001443 -0.15275,1.267726 0.81904,8.605906 -3.33355,4.113666 -0.0487,-0.0526 -0.0845,-5.530528 -0.0873,-5.832425 -0.87616,-14.957884 1.30883,-29.474683 5.30499,-43.838379 5.1676,-19.379797 15.21611,-36.632709 27.56893,-52.2399063 8.82591,-10.0478272 19.91924,-16.4798357 33.36406,-16.7886427 9.46262,0.09981 15.14759,2.465632 14.82369,12.5770709 -3.21244,10.8328545 -12.21801,18.5487031 -20.86191,25.2192621 -10.93048,7.561332 -22.82507,13.558371 -34.28253,20.258359 -5.15148,3.765809 -14.31717,6.947688 -15.13412,14.241829 3.24549,6.815243 11.95916,8.627543 18.5749,10.560971 10.75959,3.255626 21.86875,5.095369 32.75198,7.861641 7.37592,1.773293 14.70878,3.574297 21.99563,5.677936 -1.69458,0.545637 6.86623,0.922537 5.15263,1.405132 -2.15501,-0.148771 -2.53115,0.145272 -1.37343,-0.406439 0,0 2.83235,0.300981 2.83235,0.300981 l 0,0 c -2.71313,1.750893 -6.62967,-0.312854 -9.40829,-0.937215 -7.27173,-2.113854 -14.60427,-3.876197 -21.96162,-5.67281 -10.88832,-2.747713 -21.99278,-4.613259 -32.75194,-7.872272 -6.72438,-1.987489 -15.5613,-3.864907 -18.64203,-10.949178 0.81785,-7.445852 9.88567,-10.684733 15.20108,-14.499386 11.45297,-6.70051 23.34671,-12.687756 34.29037,-20.222278 8.59503,-6.5991 17.55711,-14.2468607 20.80349,-24.9755815 0.2277,-7.0462379 -2.35217,-10.2768915 -9.25269,-12.1362795 -13.8678,0.173501 -24.15078,6.3806936 -33.3901,16.5403482 -12.36766,15.5576618 -22.42245,32.7745998 -27.57033,52.1305348 -3.98666,14.339124 -6.15335,28.83069 -5.22596,43.760987 0.0172,1.199841 0.0265,2.39982 0.0517,3.59952 0.0155,0.73721 0.54869,1.64978 0.0704,2.211 -4.12233,4.83712 -2.29842,-3.52508 -2.30739,-4.099261 0.55109,-13.651322 0.87197,-27.408906 -1.31305,-40.94713 -2.21582,-13.840485 -4.25,-27.934741 -9.7706,-40.923391 0,0 2.81643,-0.101089 2.81643,-0.101089 z" />
    <path
       style="fill:#000000;fill-opacity:1;stroke:#000000;stroke-width:10;stroke-miterlimit:4;stroke-opacity:1;stroke-dasharray:none"
       id="path2838"
       d="m 530.78264,64.972198 c -5.80586,2.811855 -11.7828,5.172304 -16.95354,9.089959 -2.95563,2.703435 -3.6396,5.479301 -1.03865,8.626684 3.33874,3.180088 7.08586,5.889639 10.84597,8.541807 1.9595,1.469808 5.53981,3.471856 5.6256,6.23625 -2.08663,3.342442 -6.40657,4.586062 -9.90026,5.895372 -5.19457,2.41671 -10.77608,3.50701 -16.36848,4.52565 0,0 -2.76593,-0.38753 -2.76593,-0.38753 l 0,0 c 5.58193,-1.00046 11.16334,-2.05081 16.34087,-4.4793 3.46343,-1.27368 7.51749,-2.49746 9.84857,-5.545513 -0.0784,-2.624576 -3.80457,-4.562251 -5.59315,-5.975755 -3.7631,-2.681726 -7.55103,-5.377481 -10.86025,-8.619534 -2.58091,-3.309803 -1.9851,-6.237135 1.05324,-9.077656 5.16472,-3.949674 11.13274,-6.335665 16.95671,-9.142741 0,0 2.8093,0.312307 2.8093,0.312307 z" />
    <path
       style="fill:#000000;fill-opacity:1;stroke:#000000;stroke-width:10;stroke-miterlimit:4;stroke-opacity:1;stroke-dasharray:none"
       id="path2840"
       d="m 824.61124,503.30591 c 2.05247,10.70097 4.02129,21.42255 5.80462,32.17305 1.08301,8.13447 1.99601,16.2416 3.65154,24.28378 0.82842,3.45063 1.11178,6.98326 1.58149,10.48779 1.37693,0.38904 -1.24416,-0.3098 -1.30533,-1.00254 -0.0696,-0.78877 0.95654,-1.26225 1.4238,-1.90153 0.58574,-0.80139 1.20907,-1.57839 1.73502,-2.42023 1.25211,-2.00414 2.46403,-4.65681 3.48084,-6.74731 4.95176,-9.89416 8.98339,-20.1718 13.07131,-30.43898 3.06805,-9.68134 7.319,-18.892 11.54031,-28.10332 2.21721,-3.97237 1.13984,-2.04344 3.23193,-5.78691 0,0 2.81191,0.14362 2.81191,0.14362 l 0,0 c -2.09582,3.73772 -1.0151,1.81627 -3.24306,5.76385 -4.22937,9.20583 -8.51014,18.40297 -11.56625,28.08793 -4.08704,10.27094 -8.11197,20.55435 -13.04671,30.46018 -1.39162,2.88443 -5.94328,14.77953 -10.98187,11.98104 -0.41615,-3.50419 -0.75477,-7.01865 -1.55039,-10.46678 -1.63333,-8.04808 -2.54383,-16.15721 -3.61418,-24.29498 -1.77703,-10.75577 -3.74475,-21.48362 -5.84965,-32.17857 0,0 2.82467,-0.0401 2.82467,-0.0401 z" />
    <path
       style="fill:#000000;fill-opacity:1;stroke:#000000;stroke-width:10;stroke-miterlimit:4;stroke-opacity:1;stroke-dasharray:none"
       id="path2842"
       d="m 942.21147,485.9519 c -8.41082,8.88667 -16.84173,17.71682 -24.3161,27.41991 -6.04044,8.27884 -10.77062,17.25053 -12.07858,27.47733 -0.80032,8.28475 0.66706,15.85575 5.01205,22.92077 3.59468,5.04034 8.16078,7.43661 14.09361,8.55964 0,0 -2.78601,0.38619 -2.78601,0.38619 l 0,0 c -5.94645,-1.20349 -10.53819,-3.71069 -14.11173,-8.79182 -4.33421,-7.1333 -5.8132,-14.77216 -5.00516,-23.11025 1.3062,-10.27853 6.03855,-19.30152 12.10929,-27.62359 7.46667,-9.71018 15.90436,-18.53321 24.27281,-27.45931 0,0 2.80982,0.22113 2.80982,0.22113 z" />
    <path
       style="fill:#000000;fill-opacity:1;stroke:#000000;stroke-width:10;stroke-miterlimit:4;stroke-opacity:1;stroke-dasharray:none"
       id="path2846"
       d="m 1037.4029,473.6027 c 8.7374,7.80109 14.1841,18.29462 19.5205,28.53047 7.1511,15.06606 8.4368,28.07511 5.9422,44.37264 -2.5548,10.20574 -7.1509,19.79626 -16.4092,25.48597 -2.6379,1.62117 -5.5799,2.68557 -8.3698,4.02836 0,0 -2.7164,-0.30678 -2.7164,-0.30678 l 0,0 c 2.784,-1.32368 5.7165,-2.37217 8.3521,-3.97103 9.2469,-5.6093 13.8338,-15.1254 16.3872,-25.27849 2.4996,-16.24752 1.2055,-29.18681 -5.9444,-44.19788 -5.3359,-10.21142 -10.7903,-20.69088 -19.5789,-28.41019 0,0 2.8167,-0.25307 2.8167,-0.25307 z" />
    <path
       style="fill:#000000;fill-opacity:1;stroke:#000000;stroke-width:10;stroke-miterlimit:4;stroke-opacity:1;stroke-dasharray:none"
       id="path2848"
       d="m 111.68763,700.02912 c 7.76583,10.69189 13.84021,22.44269 19.51821,34.33514 5.364,12.84275 10.15709,25.90992 15.07119,38.92683 3.49443,7.06455 4.63317,16.24002 9.45219,22.53521 0.48073,0.29334 1.55083,0.32742 1.44218,0.88 -0.10246,0.52115 -1.47482,0.37487 -1.58683,-0.14431 -0.12234,-0.56708 0.96767,-0.67826 1.30802,-1.14806 2.02374,-2.79353 3.01524,-6.91367 4.15707,-10.07156 4.95228,-15.5276 9.7125,-31.13032 13.91101,-46.87929 3.54885,-13.99119 7.81825,-27.78454 13.20112,-41.17602 0.94302,-1.39796 3.5431,-8.18906 5.7063,-8.56798 1.27357,-0.22309 2.58569,-0.0356 3.87853,-0.0534 0,0 -2.80948,0.43541 -2.80948,0.43541 l 0,0 c 0.58654,-0.0413 1.30171,-0.49275 1.75963,-0.12391 0.3217,0.25911 -0.69661,0.45367 -0.99291,0.74147 -2.18715,2.12441 -3.33617,5.04674 -4.75285,7.67548 -5.41794,13.37247 -9.712,27.15204 -13.25757,41.14016 -4.19481,15.75252 -8.95373,31.35703 -13.85113,46.90453 -1.65673,4.63579 -3.69222,15.62083 -10.93059,10.56929 -4.82332,-6.54208 -5.87587,-15.38299 -9.40827,-22.61699 -4.8945,-13.01398 -9.6866,-26.07135 -15.04943,-38.90403 -5.68378,-11.87628 -11.74757,-23.6307 -19.58116,-34.26207 0,0 2.81477,-0.19586 2.81477,-0.19586 z" />
    <path
       style="fill:#000000;fill-opacity:1;stroke:#000000;stroke-width:10;stroke-miterlimit:4;stroke-opacity:1;stroke-dasharray:none"
       id="path2850"
       d="m 250.77876,784.33072 c -7.00611,1.47887 -13.72456,3.80331 -20.10886,7.02456 -4.9433,2.79284 -5.15859,6.88107 -3.76336,11.87227 1.98862,4.96902 5.48917,8.74856 9.27315,12.37667 1.54204,2.52121 5.66542,2.87187 6.25602,5.84214 -2.90775,3.3077 -7.64933,5.46189 -11.44095,7.79409 -4.56742,3.12181 -8.81491,3.21928 -14.15604,2.84665 0,0 2.79361,-0.40062 2.79361,-0.40062 l 0,0 c -0.83797,1.66491 8.7041,-2.15544 8.56373,-2.7321 3.81427,-2.35392 8.03524,-4.55194 11.39346,-7.44945 -0.61579,-2.79789 -4.87741,-3.16001 -6.2248,-5.67313 -3.81496,-3.65368 -7.29726,-7.52487 -9.28368,-12.52788 -1.39571,-5.08388 -1.21313,-9.35801 3.78906,-12.25851 6.3866,-3.24202 13.09892,-5.58867 20.10712,-7.1111 0,0 2.80154,0.39641 2.80154,0.39641 z" />
    <path
       style="fill:#000000;fill-opacity:1;stroke:#000000;stroke-width:10;stroke-miterlimit:4;stroke-opacity:1;stroke-dasharray:none"
       id="path2852"
       d="m 333.98318,677.69901 c -8.85173,11.97096 -15.5451,25.21314 -21.65851,38.729 -5.8852,13.58568 -9.45752,27.97029 -10.05433,42.75402 -0.32544,10.83515 1.48713,18.97799 9.06078,26.85536 0,0 -2.7956,0.21332 -2.7956,0.21332 l 0,0 c -7.53918,-7.9727 -9.3821,-16.19218 -9.03829,-27.07995 0.60662,-14.82056 4.19325,-29.2384 10.09152,-42.85892 6.10447,-13.52443 12.78884,-26.77154 21.58187,-38.78751 0,0 2.81256,0.17468 2.81256,0.17468 z" />
    <path
       style="fill:#000000;fill-opacity:1;stroke:#000000;stroke-width:10;stroke-miterlimit:4;stroke-opacity:1;stroke-dasharray:none"
       id="path2854"
       d="m 365.45449,785.0499 c -8.90339,-9.31895 -11.48908,-22.10346 -12.93574,-34.4651 -1.20349,-15.5898 0.39089,-31.1891 4.47565,-46.2466 2.30614,-7.93962 1.078,-4.0906 3.65795,-11.55547 0,0 2.7786,0.0928 2.7786,0.0928 l 0,0 c -2.59051,7.4483 -1.35775,3.60579 -3.671,11.53625 -4.106,15.01772 -5.70116,30.58474 -4.48795,46.14083 1.45452,12.31668 4.04835,25.05136 12.99873,34.27568 0,0 -2.81624,0.22164 -2.81624,0.22164 z" />
    <path
       style="fill:#000000;fill-opacity:1;stroke:#000000;stroke-width:10;stroke-miterlimit:4;stroke-opacity:1;stroke-dasharray:none"
       id="path2856"
       d="m 346.78705,694.43613 c -0.83806,6.50517 1.60305,11.30496 6.37606,15.43233 3.82274,2.47906 8.49079,3.11778 12.99137,2.93155 1.64445,-0.068 3.18157,-0.84784 4.78768,-1.20735 5.44088,-1.50333 10.10895,-4.55402 14.6635,-7.7645 0,0 2.78859,0.26711 2.78859,0.26711 l 0,0 c -4.55777,3.23782 -9.22907,6.32086 -14.6736,7.87368 -7.62532,1.77914 -16.44146,2.36477 -23.36654,-1.86016 -4.79362,-4.21793 -7.20364,-9.15754 -6.39612,-15.71939 0,0 2.82906,0.0467 2.82906,0.0467 z" />
    <path
       style="fill:#000000;fill-opacity:1;stroke:#000000;stroke-width:10;stroke-miterlimit:4;stroke-opacity:1;stroke-dasharray:none"
       id="path2858"
       d="m 402.77537,663.25278 c 6.2849,10.39708 13.92344,19.87259 20.35103,30.17423 4.46896,7.46331 8.41762,15.42645 9.47442,24.17793 0.54508,4.51391 0.23694,9.13686 0.1076,13.65488 -1.67279,14.85184 -7.28019,28.61212 -14.89162,41.33754 -5.35668,6.61199 -2.54509,3.60381 -8.35974,9.09409 0,0 -2.77066,-0.22684 -2.77066,-0.22684 l 0,0 c 5.82371,-5.43721 3.00808,-2.45504 8.37226,-9.01638 7.61746,-12.67181 13.21119,-26.38899 14.88607,-41.19623 0.12559,-4.49088 0.42987,-9.1057 -0.11517,-13.59255 -1.05901,-8.71797 -5.01287,-16.6443 -9.46514,-24.07808 -6.44366,-10.30599 -14.08556,-19.79271 -20.40568,-30.18224 0,0 2.81663,-0.14635 2.81663,-0.14635 z" />
    <path
       style="fill:#000000;fill-opacity:1;stroke:#000000;stroke-width:10;stroke-miterlimit:4;stroke-opacity:1;stroke-dasharray:none"
       id="path2860"
       d="m 143.92991,431.57898 c -1.56983,9.47726 -1.88655,19.00184 -1.4026,28.5722 0.91558,10.87204 0.88386,21.80514 1.86125,32.66716 0.93003,7.70194 1.79064,15.40881 2.43028,23.14054 0.0471,0.61085 0.0941,1.22171 0.14121,1.83256 0,0 -2.83259,0.0211 -2.83259,0.0211 l 0,0 c -0.0442,-0.6103 -0.0884,-1.2206 -0.13258,-1.8309 -0.61097,-7.73232 -1.47302,-15.43715 -2.39321,-23.13835 -0.97554,-10.86581 -0.93705,-21.80267 -1.85903,-32.67803 -0.48794,-9.5904 -0.16123,-19.12932 1.35821,-28.63303 0,0 2.82906,0.0467 2.82906,0.0467 z" />
    <path
       style="fill:#000000;fill-opacity:1;stroke:#000000;stroke-width:10;stroke-miterlimit:4;stroke-opacity:1;stroke-dasharray:none"
       id="path2862"
       d="m 160.64981,443.25078 c 7.67434,-1.15632 15.3935,-1.73044 23.05049,-3.00555 5.16237,-0.93575 10.38669,-1.36875 15.56586,-2.18492 0,0 2.77479,0.39461 2.77479,0.39461 l 0,0 c -5.17684,0.83534 -10.40151,1.25056 -15.56513,2.18291 -7.64852,1.28276 -15.35479,1.87234 -23.02447,3.00937 0,0 -2.80154,-0.39642 -2.80154,-0.39642 z" />
    <path
       style="fill:#000000;fill-opacity:1;stroke:#000000;stroke-width:10;stroke-miterlimit:4;stroke-opacity:1;stroke-dasharray:none"
       id="path2864"
       d="m 152.07838,503.25078 c 8.73509,-2.16587 17.54856,-3.9834 26.28314,-6.15493 10.4867,-2.86046 21.16495,-4.7783 31.79973,-6.95131 0,0 2.76462,0.38071 2.76462,0.38071 l 0,0 c -10.6308,2.18943 -21.31995,4.05963 -31.80254,6.93908 -8.72115,2.18254 -17.53096,3.97084 -26.24341,6.18287 0,0 -2.80154,-0.39642 -2.80154,-0.39642 z" />
    <path
       style="fill:#000000;fill-opacity:1;stroke:#000000;stroke-width:10;stroke-miterlimit:4;stroke-opacity:1;stroke-dasharray:none"
       id="path2868"
       d="m 160.64981,528.96507 c 9.78716,-0.21081 19.64165,-0.40361 29.40019,0.47898 8.11238,0.98402 16.22932,1.88838 24.38769,2.37811 3.79347,0.19321 7.59159,0.27951 11.38946,0.31926 2.38176,0.0249 2.70202,0.25384 1.22977,-0.29714 0.55763,-0.25779 1.11526,-0.51557 1.67289,-0.77335 0,0 2.81456,0.31652 2.81456,0.31652 l 0,0 c -0.56154,0.2841 -1.12307,0.5682 -1.6846,0.8523 -6.06673,0.4556 -12.12554,0.37851 -18.20197,0.005 -8.15245,-0.50264 -16.26252,-1.42138 -24.37162,-2.3883 -7.91778,-0.68398 -15.89258,-0.6829 -23.83483,-0.49537 0,0 -2.80154,-0.39641 -2.80154,-0.39641 z" />
    <path
       style="fill:#000000;fill-opacity:1;stroke:#000000;stroke-width:10;stroke-miterlimit:4;stroke-opacity:1;stroke-dasharray:none"
       id="path2870"
       d="m 76.042009,414.3894 c 1.093503,6.82463 1.678968,13.71334 2.189877,20.60147 0.122547,1.94013 0.198293,3.88521 0.332397,5.82321 0,0 -2.853072,0.0321 -2.853072,0.0321 l 0,0 c -0.174831,-1.93877 -0.109625,-3.89637 -0.300276,-5.83485 -0.489013,-6.88142 -1.070353,-13.76386 -2.197988,-20.57519 0,0 2.829062,-0.0467 2.829062,-0.0467 z" />
    <path
       style="fill:#000000;fill-opacity:1;stroke:#000000;stroke-width:10;stroke-miterlimit:4;stroke-opacity:1;stroke-dasharray:none"
       id="path2872"
       d="m 74.883799,421.80275 c 7.231192,3.64374 15.070355,5.38055 23.02029,6.53896 3.825851,0.2715 4.563551,-0.47275 8.281581,-1.24842 0,0 2.78057,0.38136 2.78057,0.38136 l 0,0 c -4.54913,0.96891 -9.166067,1.68053 -13.837065,1.26504 -7.965154,-1.18667 -15.810159,-2.96975 -23.054669,-6.62463 0,0 2.809293,-0.31231 2.809293,-0.31231 z" />
    <path
       style="fill:#000000;fill-opacity:1;stroke:#000000;stroke-width:10;stroke-miterlimit:4;stroke-opacity:1;stroke-dasharray:none"
       id="path2874"
       d="m 14.931648,542.60931 c 7.243261,-3.93638 14.94774,-5.11148 23.056864,-5.34733 4.484979,-0.4347 9.007928,0.35638 13.492264,0.1945 1.10281,-0.0398 2.10527,-0.66632 3.17427,-0.94021 0,0 2.795031,0.36881 2.795031,0.36881 l 0,0 c -5.466203,1.49421 -11.085621,0.89088 -16.691039,0.80799 -8.091555,0.20482 -15.786845,1.28886 -23.018096,5.22855 0,0 -2.809294,-0.31231 -2.809294,-0.31231 z" />
    <path
       style="fill:#000000;fill-opacity:1;stroke:#000000;stroke-width:10;stroke-miterlimit:4;stroke-opacity:1;stroke-dasharray:none"
       id="path2876"
       d="m 995.01563,548.74397 c -1.86957,7.91542 -5.08932,15.37549 -9.00216,22.4729 -2.35463,4.2064 -7.40145,7.83947 -10.87122,2.68545 -4.11044,-8.79294 -4.07818,-19.0089 -4.55411,-28.52771 -0.97535,-15.43091 0.92679,-30.78384 2.7757,-46.0679 1.25074,-7.86336 3.08314,-15.61379 4.59299,-23.428 0.22591,-1.24196 0.50378,-2.47363 0.61771,-3.73157 0,0 2.84749,0.0251 2.84749,0.0251 l 0,0 c -0.10962,1.26978 -0.40245,2.50901 -0.63617,3.76108 -1.54365,7.80463 -3.38646,15.54944 -4.65573,23.40688 -1.86941,15.26616 -3.77378,30.60503 -2.78054,46.02033 0.4923,9.46233 0.45247,19.65846 4.62151,28.36931 0.32896,0.45477 0.57992,0.97777 0.98688,1.36431 0.33371,0.31698 1.34915,0.27086 1.18883,0.7023 -0.17257,0.46441 -1.35011,0.56791 -1.48353,0.0908 -0.1366,-0.48847 0.8994,-0.48837 1.27794,-0.82597 1.19108,-1.06226 2.33795,-2.74967 3.26384,-3.98652 3.92983,-7.06814 7.17062,-14.50771 8.98369,-22.42177 0,0 2.82688,0.091 2.82688,0.091 z" />
    <path
       style="fill:#000000;fill-opacity:1;stroke:#000000;stroke-width:10;stroke-miterlimit:4;stroke-opacity:1;stroke-dasharray:none"
       id="path2878"
       d="m 935.27784,528.63952 c 8.54731,-2.08726 17.03913,-4.39974 25.67157,-6.1189 7.67951,-1.2624 15.44598,-1.48232 23.14302,-2.60003 6.21691,-0.77015 12.37446,-1.48826 18.42167,-3.16407 2.1724,-0.95575 5.3617,-0.45908 6.9916,-2.37427 -0.02,-0.25686 -0.04,-0.51372 -0.059,-0.77058 0,0 2.8454,-0.0185 2.8454,-0.0185 l 0,0 c 0.018,0.327 0.037,0.654 0.055,0.981 -1.5798,2.09368 -4.7425,1.64731 -7.0296,2.54859 -6.05533,1.69581 -12.21184,2.45174 -18.44614,3.19675 -7.69807,1.12969 -15.4591,1.36804 -23.1472,2.58515 -8.62743,1.69813 -17.10734,4.01415 -25.64558,6.09888 0,0 -2.80044,-0.36399 -2.80044,-0.36399 z" />
  </g>
</svg>
