<?xml version="1.0" encoding="UTF-8" standalone="no"?>
<!-- Created with Inkscape (http://www.inkscape.org/) -->

<svg
   xmlns:dc="http://purl.org/dc/elements/1.1/"
   xmlns:cc="http://creativecommons.org/ns#"
   xmlns:rdf="http://www.w3.org/1999/02/22-rdf-syntax-ns#"
   xmlns:svg="http://www.w3.org/2000/svg"
   xmlns="http://www.w3.org/2000/svg"
   xmlns:sodipodi="http://sodipodi.sourceforge.net/DTD/sodipodi-0.dtd"
   xmlns:inkscape="http://www.inkscape.org/namespaces/inkscape"
   width="780.31458"
   height="513.48309"
   id="svg2901"
   version="1.1"
   inkscape:version="0.47pre4 r22446"
   sodipodi:docname="New document 3">
  <defs
     id="defs2903">
    <inkscape:perspective
       sodipodi:type="inkscape:persp3d"
       inkscape:vp_x="0 : 526.18109 : 1"
       inkscape:vp_y="0 : 1000 : 0"
       inkscape:vp_z="744.09448 : 526.18109 : 1"
       inkscape:persp3d-origin="372.04724 : 350.78739 : 1"
       id="perspective2909" />
  </defs>
  <sodipodi:namedview
     id="base"
     pagecolor="#ffffff"
     bordercolor="#666666"
     borderopacity="1.0"
     inkscape:pageopacity="0.0"
     inkscape:pageshadow="2"
     inkscape:zoom="0.35"
     inkscape:cx="383.04631"
     inkscape:cy="215.40988"
     inkscape:document-units="px"
     inkscape:current-layer="layer1"
     showgrid="false"
     inkscape:window-width="1280"
     inkscape:window-height="726"
     inkscape:window-x="0"
     inkscape:window-y="25"
     inkscape:window-maximized="1" />
  <metadata
     id="metadata2906">
    <rdf:RDF>
      <cc:Work
         rdf:about="">
        <dc:format>image/svg+xml</dc:format>
        <dc:type
           rdf:resource="http://purl.org/dc/dcmitype/StillImage" />
        <dc:title></dc:title>
      </cc:Work>
    </rdf:RDF>
  </metadata>
  <g
     inkscape:label="Layer 1"
     inkscape:groupmode="layer"
     id="layer1"
     transform="translate(8.0463055,-234.28897)">
    <path
       style="fill:#000000;fill-opacity:1;stroke:#000000;stroke-width:10;stroke-miterlimit:4;stroke-opacity:1;stroke-dasharray:none"
       id="path2911"
       d="m 129.33359,738.58056 c -3.10369,-12.38213 -3.74603,-25.18731 -4.35049,-37.88345 -0.9433,-22.324 -2.10633,-44.63167 -2.71834,-66.97065 -1.55331,-30.12855 -2.51687,-60.27527 -3.07656,-90.43718 -0.88316,-31.54317 -0.22308,-63.06807 0.75274,-94.59655 0.33087,-25.50867 1.96432,-50.96297 3.17711,-76.43709 0.76176,-16.45995 1.06256,-32.93518 1.19207,-49.41059 0.0439,-7.85217 0.0416,-15.70457 0.008,-23.55677 1.93048,0.26717 -1.46558,-1.88549 -0.82823,-1.76244 0.74745,0.14431 1.7457,0.20759 2.10881,0.87667 0.0106,0.0195 -2.24655,5.00955 -2.75693,6.3133 -1.95678,6.77849 -4.71064,13.26169 -7.29299,19.81075 -0.40635,0.78796 -0.78745,1.58946 -1.21903,2.36389 -0.0482,0.0864 -8.73792,12.65583 -5.22681,1.18283 2.2577,-6.66874 4.56935,-13.33182 6.9961,-19.94551 2.08125,-7.53946 5.40653,-14.5931 8.32196,-21.81349 1.24279,-4.64029 4.89642,-7.62513 9.22762,-3.46243 3.53203,4.8617 6.0645,10.3685 8.69386,15.75142 3.04754,5.81946 5.72523,11.85216 8.18254,17.94512 0.92629,2.14141 1.98663,4.21927 3.05435,6.29214 0,0 -2.82822,0.13408 -2.82822,0.13408 l 0,0 c -1.06258,-2.08273 -2.11847,-4.16999 -3.0453,-6.31804 -2.45696,-6.08524 -5.11809,-12.11542 -8.16877,-17.92559 -2.62215,-5.35343 -5.13441,-10.85214 -8.71252,-15.64657 -2.2864,-2.05549 -1.28077,-0.4869 0.42362,-1.67317 0.31148,-0.21679 -0.7937,-0.063 -1.13357,0.10589 -1.66571,0.82757 -2.27538,3.44591 -2.87984,4.90517 -2.91429,7.21954 -6.27737,14.25702 -8.33711,21.80398 -2.42631,6.60532 -4.7263,13.26538 -6.96033,19.93301 -0.6728,2.09915 -0.16737,1.91598 -3.26108,2.35637 -0.31253,0.0445 0.53971,-0.34351 0.74824,-0.5805 1.41197,-1.60462 2.27352,-3.68064 3.3094,-5.51444 2.5851,-6.54735 5.36613,-13.02079 7.29129,-19.8098 0.63628,-1.63378 4.56385,-13.28776 7.12092,-5.32325 1.8e-4,7.85328 -0.006,15.70659 -0.0673,23.55968 -0.14526,16.4794 -0.47455,32.95794 -1.24862,49.42132 -1.23634,25.47221 -2.89422,50.92435 -3.23183,76.43236 -0.9936,31.52382 -1.65173,63.04434 -0.76594,94.58334 0.56079,30.16157 1.54246,60.3074 3.11418,90.43466 0.62537,22.33786 1.8123,44.64298 2.78435,66.96488 0.61534,12.67557 1.25984,25.4699 4.42524,37.81807 0,0 -2.82291,0.0786 -2.82291,0.0786 z" />
    <path
       style="fill:#000000;fill-opacity:1;stroke:#000000;stroke-width:10;stroke-miterlimit:4;stroke-opacity:1;stroke-dasharray:none"
       id="path2917"
       d="m 12.767188,634.67429 c 10.748294,-1.45243 21.605857,-1.57767 32.394286,-2.53733 13.580908,-1.12791 26.833535,-4.49199 40.170499,-7.12362 17.046457,-3.42345 34.298277,-5.84092 51.580487,-7.70974 18.4562,-1.76625 36.90173,-3.4332 55.42336,-4.33343 18.72549,-0.63531 37.44527,-0.68256 56.15832,-1.65682 19.66377,-0.55985 39.13424,-3.16109 58.56607,-6.00952 19.0059,-3.17789 37.99549,-6.37976 57.16786,-8.36685 17.62078,-1.20054 35.25508,-2.12464 52.88367,-3.24603 16.09072,-0.90613 32.11649,-2.60628 48.20801,-3.54451 13.48291,-0.19418 26.88824,-1.58085 40.32302,-2.58422 10.37349,-0.74432 20.77134,-0.98691 31.16765,-1.10782 7.14405,0.22316 14.16516,-0.0461 21.19659,-1.31207 2.83908,-0.50399 5.68074,-0.99387 8.52648,-1.45886 0.62286,-0.54917 0.31249,-0.15157 0.5502,-1.40962 0,0 2.84065,0.0494 2.84065,0.0494 l 0,0 c -0.24071,1.4676 0.0448,0.92076 -0.56945,1.76081 -2.85548,0.45749 -5.70569,0.94745 -8.55362,1.44963 -7.04289,1.28444 -14.06687,1.60823 -21.22816,1.35506 -10.40226,0.11555 -20.80625,0.3502 -31.18615,1.08724 -13.44118,0.99652 -26.851,2.40441 -40.34033,2.58617 -16.09768,0.92863 -32.1284,2.62847 -48.22398,3.54055 -17.6311,1.11831 -35.26611,2.05913 -52.89091,3.23403 -19.17573,1.9716 -38.16776,5.16575 -57.17362,8.35424 -19.43205,2.84852 -38.89978,5.47895 -58.56485,6.03545 -18.71225,0.98006 -37.43016,1.03967 -56.15567,1.65828 -18.52056,0.89159 -36.96415,2.55445 -55.41899,4.31776 -17.27403,1.85648 -34.51814,4.26983 -51.555607,7.68911 -13.334944,2.62408 -26.579404,6.00978 -40.154788,7.15519 -10.771933,0.98024 -21.616709,1.07742 -32.350045,2.53406 0,0 -2.790982,-0.40654 -2.790982,-0.40654 z" />
    <path
       style="fill:#000000;fill-opacity:1;stroke:#000000;stroke-width:10;stroke-miterlimit:4;stroke-opacity:1;stroke-dasharray:none"
       id="path2919"
       d="m 554.88231,544.2981 c 8.15142,2.60001 16.3707,4.96527 24.61129,7.26706 6.58726,2.71121 13.62707,3.91947 20.39255,6.0039 4.19398,0.98059 7.53005,2.29842 9.30066,6.39749 0.0642,5.47146 -3.24342,10.75637 -6.30925,15.07843 -6.201,8.0346 -11.88825,16.44518 -18.04743,24.50912 -6.42071,8.0265 -12.83724,16.05439 -18.91626,24.34319 -2.13969,2.37938 -3.30816,6.04833 -6.39694,7.32996 0,0 -2.81824,-0.34731 -2.81824,-0.34731 l 0,0 c 3.1678,-0.95899 4.2904,-4.8979 6.42222,-7.15971 6.08647,-8.28863 12.50515,-16.32025 18.93175,-24.34759 6.15729,-8.05739 11.83642,-16.46531 18.02488,-24.50122 3.02095,-4.22054 6.29895,-9.43127 6.27575,-14.78724 -1.79187,-3.98732 -5.18847,-5.17 -9.26504,-6.15635 -6.774,-2.03659 -13.77153,-3.34532 -20.36824,-6.00063 -8.24935,-2.31204 -16.47989,-4.67915 -24.64401,-7.27674 0,0 2.80631,-0.35236 2.80631,-0.35236 z" />
    <path
       style="fill:#000000;fill-opacity:1;stroke:#000000;stroke-width:10;stroke-miterlimit:4;stroke-opacity:1;stroke-dasharray:none"
       id="path2921"
       d="m 134.93552,628.96507 c 8.26564,-1.07532 16.50121,-2.44869 24.64223,-4.24706 9.33459,-1.9895 18.70796,-3.77803 28.05752,-5.69695 9.82742,-1.93201 19.73591,-3.48972 29.64258,-4.97465 11.09775,-1.12428 21.981,-3.78349 32.70941,-6.75856 13.45883,-3.86253 26.13381,-10.13044 38.30573,-16.96929 12.27534,-6.4264 22.78405,-15.36455 33.31839,-24.22294 11.94557,-10.42179 23.81719,-20.92887 35.68554,-31.44003 10.67197,-9.70654 20.88296,-19.93191 30.88074,-30.33082 9.41326,-9.79658 17.89,-20.44446 26.13448,-31.22797 8.81033,-11.93422 16.89528,-24.40175 24.42183,-37.18013 7.24911,-12.98746 14.16181,-26.18004 20.63826,-39.57135 7.24562,-16.54154 14.30748,-33.16923 21.22572,-49.85171 8.85667,-19.82484 16.18974,-40.27409 24.16559,-60.45826 5.98253,-15.41437 11.50036,-30.96498 16.42589,-46.74638 0,0 2.67879,0.0809 2.67879,0.0809 l 0,0 c -4.91164,15.79 -10.42332,31.34611 -16.39945,46.76729 -7.97397,20.1845 -15.30012,40.63584 -24.14937,60.46337 -6.90769,16.68858 -13.96515,33.3197 -21.19803,49.86857 -6.46849,13.40205 -13.38249,26.60105 -20.63401,39.59419 -7.52655,12.78851 -15.61337,25.26346 -24.41658,37.21373 -8.24349,10.79347 -16.72017,21.45132 -26.13161,31.25954 -10.00041,10.40922 -20.23127,20.62779 -30.89947,30.35156 -11.86707,10.51358 -23.74787,21.0108 -35.68135,31.44742 -10.53612,8.87146 -21.03215,17.84225 -33.31728,24.27484 -12.16623,6.86305 -24.85099,13.13622 -38.30358,17.03684 -10.72039,2.99263 -21.60208,5.67243 -32.69696,6.79485 -9.90737,1.47323 -19.81251,3.04606 -29.64207,4.95922 -9.34345,1.9329 -18.71746,3.70195 -28.04831,5.69378 -8.12675,1.82086 -16.35789,3.18531 -24.61308,4.26638 0,0 -2.80155,-0.39641 -2.80155,-0.39641 z" />
    <path
       style="fill:#000000;fill-opacity:1;stroke:#000000;stroke-width:10;stroke-miterlimit:4;stroke-opacity:1;stroke-dasharray:none"
       id="path2923"
       d="m 39.920688,388.26138 c 3.566988,5.0978 8.492763,8.58833 14.193687,10.89882 4.474579,1.04652 8.964486,1.81102 13.422653,2.97655 4.912539,1.67135 9.294559,4.44251 13.689665,7.14315 5.777473,4.08093 11.896962,7.60071 18.053239,11.06426 7.015498,4.48408 14.394488,8.34448 21.522418,12.64096 7.32516,4.89765 14.8958,9.3954 22.31643,14.146 7.55623,4.93454 14.66109,10.51365 22.0471,15.68755 7.76198,4.81408 15.3957,9.80638 22.96719,14.912 7.79065,6.00198 16.58292,10.3765 25.16371,15.08415 9.71474,5.21186 19.29961,10.65016 28.90385,16.06098 10.13949,5.51247 20.81507,9.95354 31.18848,15.01691 9.3176,4.73872 18.73377,9.23367 27.87773,14.31161 8.96099,5.37205 17.93692,10.71804 26.73488,16.3547 8.78912,5.60099 17.50984,11.31337 26.15137,17.13998 8.78861,5.70343 17.49757,11.48641 25.72517,17.97894 9.06707,6.42681 17.20197,13.9163 25.23574,21.55004 7.93874,7.55543 15.76085,15.20924 24.0614,22.36843 7.9433,7.31139 16.38211,14.01159 25.00221,20.49667 8.39472,6.23974 17.36372,11.66618 25.68414,17.9979 8.52582,6.88108 17.42658,13.23955 26.54352,19.30827 8.79289,6.05285 17.81553,11.74943 26.8241,17.47084 8.31606,5.50711 16.85833,10.60833 25.34938,15.83342 6.71337,4.24765 14.19807,7.01292 21.15512,10.7854 3.87087,1.90398 7.16181,5.55049 11.29029,6.9402 0,0 -2.82757,0.34295 -2.82757,0.34295 l 0,0 c -4.04097,-1.71877 -7.41113,-4.90904 -11.25875,-6.98114 -6.97102,-3.74338 -14.43323,-6.55064 -21.14132,-10.80276 -8.49315,-5.21754 -17.01714,-10.34539 -25.33906,-15.83853 -9.01058,-5.71966 -18.02786,-11.42591 -26.82262,-17.47714 -9.11594,-6.07814 -18.01333,-12.44803 -26.54769,-19.32507 -8.33675,-6.30979 -17.29281,-11.75347 -25.68487,-17.99672 -8.62068,-6.49185 -17.04939,-13.211 -25.00441,-20.51521 -8.29515,-7.16768 -16.1128,-14.83 -24.05659,-22.38219 -8.02903,-7.63179 -16.18387,-15.08975 -25.23715,-21.52408 -8.23188,-6.47998 -16.94758,-12.24838 -25.72666,-17.95797 -8.64242,-5.82207 -17.35982,-11.53604 -26.14907,-17.13361 -8.79881,-5.62944 -17.76973,-10.97812 -26.73493,-16.33705 -9.14248,-5.06869 -18.55767,-9.55631 -27.86787,-14.29793 -10.37795,-5.05967 -21.05804,-9.50008 -31.19049,-15.03325 -9.60554,-5.41217 -19.19586,-10.8445 -28.91236,-16.05681 -8.59015,-4.70474 -17.36888,-9.11206 -25.16998,-15.10928 -7.57388,-5.10716 -15.22244,-10.08145 -22.97404,-14.91666 -7.37135,-5.18977 -14.48795,-10.74698 -22.04429,-15.67578 -7.41973,-4.74837 -14.98664,-9.24991 -22.31577,-14.13827 -7.13435,-4.28564 -14.505,-8.16177 -21.529197,-12.63194 -6.16273,-3.46262 -12.269275,-7.01138 -18.06456,-11.07365 -4.392074,-2.68205 -8.76875,-5.44969 -13.693391,-7.0591 -4.457773,-1.16292 -8.970173,-1.87081 -13.420305,-3.01536 -5.702974,-2.38555 -10.614986,-5.93132 -14.212083,-11.04051 0,0 2.821554,-0.19067 2.821554,-0.19067 z" />
    <path
       style="fill:#000000;fill-opacity:1;stroke:#000000;stroke-width:10;stroke-miterlimit:4;stroke-opacity:1;stroke-dasharray:none"
       id="path2925"
       d="m 20.042661,314.49575 c -4.624633,8.17206 -8.826949,16.55998 -12.1525451,25.34442 -2.4953836,6.71041 -4.1005404,13.66431 -6.0144512,20.53991 -0.6180238,2.11972 -1.34477937,4.20412 -2.08888248,6.28186 0,0 -2.83308772,-0.0982 -2.83308772,-0.0982 l 0,0 c 0.7527403,-2.06953 1.4870221,-4.14625 2.10762723,-6.26033 1.92664416,-6.88183 3.52684297,-13.84779 6.03426037,-20.56445 3.3314818,-8.8002 7.5489219,-17.19361 12.1276489,-25.40921 0,0 2.81943,0.16597 2.81943,0.16597 z" />
    <path
       style="fill:#000000;fill-opacity:1;stroke:#000000;stroke-width:10;stroke-miterlimit:4;stroke-opacity:1;stroke-dasharray:none"
       id="path2929"
       d="m 37.872772,277.3154 c -1.991363,5.44823 -4.11791,10.88649 -6.456634,16.20004 -0.27099,1.31742 0.251473,2.96942 -2.526523,0.0753 -0.09363,-0.0975 0.711833,-2.34771 0.7944,-2.65167 1.748443,-2.78411 2.058914,-5.95173 2.419235,-9.14468 0,0 2.812405,0.0309 2.812405,0.0309 l 0,0 c -0.343613,3.18752 -0.601892,6.42202 -2.385301,9.18954 -0.128919,0.47141 -0.437005,2.45476 -0.801339,2.67605 -3.43871,2.0886 -3.549852,1.80155 -3.143233,-0.29412 2.381539,-5.283 4.474412,-10.7346 6.460107,-16.17236 0,0 2.826883,0.091 2.826883,0.091 z" />
    <path
       style="fill:#000000;fill-opacity:1;stroke:#000000;stroke-width:10;stroke-miterlimit:4;stroke-opacity:1;stroke-dasharray:none"
       id="path2931"
       d="m 573.6359,315.7593 c -6.71673,1.58034 -13.30802,4.48024 -18.52,9.05938 -2.38114,0.025 -1.36475,4.59342 -0.13453,2.82488 0.17206,-0.24734 -0.53604,-0.27528 -0.80406,-0.41292 0.85304,-0.21437 1.70608,-0.42875 2.55911,-0.64312 5.92267,-1.86366 11.4753,-4.66429 17.3155,-6.74502 3.13648,-0.99226 8.11673,-3.12801 9.88635,0.70214 0.33525,3.99702 1.08052,7.92215 1.71588,11.89217 0.6334,6.94938 1.56253,13.8241 2.6757,20.713 0.66683,6.3439 -0.23148,12.17094 -2.8726,17.91762 -2.61994,4.82521 -7.2834,6.1335 -12.35225,6.89379 -6.34747,0.68984 -10.56834,-1.22405 -15.63162,-4.62155 0,0 2.79126,-0.27553 2.79126,-0.27553 l 0,0 c 3.16677,2.08698 6.17899,4.08112 10.04671,4.49582 5.00268,-0.70256 9.68771,-1.87218 12.3274,-6.61444 2.6372,-5.69367 3.55002,-11.45183 2.88144,-17.75075 -1.11035,-6.88901 -2.03866,-13.76514 -2.68391,-20.71285 -0.64204,-3.94144 -1.37765,-7.84456 -1.74013,-11.80964 -0.26117,-0.5191 -0.4431,-1.08528 -1.00161,-1.38921 -0.27128,-0.14762 -1.18702,-0.0973 -0.90132,-0.21464 0.47219,-0.19387 1.72209,-0.51699 1.53071,-0.0438 -0.50536,1.2495 -3.60477,-0.397 -3.87223,1.16432 -5.85628,2.05106 -11.40662,4.86169 -17.31789,6.77057 -2.8524,0.73158 -12.58522,3.29499 -7.23052,-2.37938 5.1959,-4.63739 11.80887,-7.5624 18.53107,-9.21728 0,0 2.80154,0.39642 2.80154,0.39642 z" />
    <path
       style="fill:#000000;fill-opacity:1;stroke:#000000;stroke-width:10;stroke-miterlimit:4;stroke-opacity:1;stroke-dasharray:none"
       id="path2933"
       d="m 638.89915,314.3894 c 0.83308,9.62764 -1.12218,19.05653 -3.52348,28.31963 -2.19065,8.44801 -5.09449,16.66256 -7.00698,25.18588 -0.74033,4.82925 0.59891,8.65586 3.58246,12.34443 0.45161,0.36391 0.90321,0.72781 1.35481,1.09172 0,0 -2.82272,0.24915 -2.82272,0.24915 l 0,0 c -0.45288,-0.38322 -0.90575,-0.76644 -1.35862,-1.14966 -2.99261,-3.77126 -4.31641,-7.70731 -3.56983,-12.59807 1.93251,-8.52397 4.83522,-16.74329 7.03467,-25.19428 2.40049,-9.22092 4.35985,-18.61663 3.48063,-28.20207 0,0 2.82906,-0.0467 2.82906,-0.0467 z" />
    <path
       style="fill:#000000;fill-opacity:1;stroke:#000000;stroke-width:10;stroke-miterlimit:4;stroke-opacity:1;stroke-dasharray:none"
       id="path2935"
       d="m 678.89915,337.24654 c 0.77606,7.33948 2.61764,14.48794 3.90499,21.74234 1.57199,5.73701 2.84826,11.52839 3.78767,17.40072 0.7248,2.094 1.33492,6.22844 4.198,6.34389 -0.61834,-0.15912 -1.53365,0.0744 -1.85503,-0.47734 -0.24062,-0.41308 0.65552,-0.69756 0.95236,-1.07228 2.42813,-3.06531 4.35032,-6.58962 6.57743,-9.80482 4.03161,-6.00437 7.93707,-12.01472 11.37947,-18.37476 2.19944,-3.57494 3.59658,-7.48105 4.46359,-11.56426 0,0 2.82866,0.059 2.82866,0.059 l 0,0 c -0.86714,4.11047 -2.26376,8.04997 -4.48362,11.64473 -3.44848,6.36841 -7.34656,12.39279 -11.38506,18.40533 -1.01439,1.46371 -6.10164,10.49056 -7.50663,11.01069 -1.19822,0.44358 -2.52592,0.38695 -3.78888,0.58043 -2.86993,-0.672 -3.44359,-4.32924 -4.20879,-6.70616 -0.92156,-5.87291 -2.21078,-11.65798 -3.76829,-17.39589 -1.28494,-7.25674 -3.11123,-14.4091 -3.92493,-21.7449 0,0 2.82906,-0.0467 2.82906,-0.0467 z" />
    <path
       style="fill:#000000;fill-opacity:1;stroke:#000000;stroke-width:10;stroke-miterlimit:4;stroke-opacity:1;stroke-dasharray:none"
       id="path2937"
       d="m 739.91823,306.10992 c 5.84427,9.68143 11.74704,19.35015 16.99268,29.3709 5.76582,10.90954 9.98935,20.61712 10.35737,33.07948 -0.67168,13.20496 -8.0485,23.87073 -17.2386,32.80013 -6.65122,4.73493 -3.26492,2.63718 -10.1234,6.35017 0,0 -2.76501,-0.29907 -2.76501,-0.29907 l 0,0 c 6.86066,-3.66421 3.47333,-1.59188 10.12754,-6.27299 9.17691,-8.83971 16.5372,-19.43981 17.21743,-32.57002 -0.36693,-12.41482 -4.6086,-22.08731 -10.34935,-32.95374 -5.25326,-10.02097 -11.14943,-19.69797 -17.0353,-29.3585 0,0 2.81664,-0.14636 2.81664,-0.14636 z" />
  </g>
</svg>
