<?xml version="1.0" encoding="UTF-8" standalone="no"?>
<!-- Created with Inkscape (http://www.inkscape.org/) -->

<svg
   xmlns:dc="http://purl.org/dc/elements/1.1/"
   xmlns:cc="http://creativecommons.org/ns#"
   xmlns:rdf="http://www.w3.org/1999/02/22-rdf-syntax-ns#"
   xmlns:svg="http://www.w3.org/2000/svg"
   xmlns="http://www.w3.org/2000/svg"
   xmlns:sodipodi="http://sodipodi.sourceforge.net/DTD/sodipodi-0.dtd"
   xmlns:inkscape="http://www.inkscape.org/namespaces/inkscape"
   width="938.66565"
   height="633.03864"
   id="svg3016"
   version="1.1"
   inkscape:version="0.47pre4 r22446"
   sodipodi:docname="New document 6">
  <defs
     id="defs3018">
    <inkscape:perspective
       sodipodi:type="inkscape:persp3d"
       inkscape:vp_x="0 : 526.18109 : 1"
       inkscape:vp_y="0 : 1000 : 0"
       inkscape:vp_z="744.09448 : 526.18109 : 1"
       inkscape:persp3d-origin="372.04724 : 350.78739 : 1"
       id="perspective3024" />
  </defs>
  <sodipodi:namedview
     id="base"
     pagecolor="#ffffff"
     bordercolor="#666666"
     borderopacity="1.0"
     inkscape:pageopacity="0.0"
     inkscape:pageshadow="2"
     inkscape:zoom="0.35"
     inkscape:cx="546.01832"
     inkscape:cy="153.26806"
     inkscape:document-units="px"
     inkscape:current-layer="layer1"
     showgrid="false"
     inkscape:window-width="1280"
     inkscape:window-height="726"
     inkscape:window-x="0"
     inkscape:window-y="25"
     inkscape:window-maximized="1" />
  <metadata
     id="metadata3021">
    <rdf:RDF>
      <cc:Work
         rdf:about="">
        <dc:format>image/svg+xml</dc:format>
        <dc:type
           rdf:resource="http://purl.org/dc/dcmitype/StillImage" />
        <dc:title></dc:title>
      </cc:Work>
    </rdf:RDF>
  </metadata>
  <g
     inkscape:label="Layer 1"
     inkscape:groupmode="layer"
     id="layer1"
     transform="translate(171.01832,-52.591628)">
    <path
       style="fill:#000000;fill-opacity:1;stroke:#000000;stroke-width:10;stroke-miterlimit:4;stroke-opacity:1;stroke-dasharray:none"
       id="path3026"
       d="m 83.451351,186.79145 c 7.727621,1.29407 15.543899,1.83008 23.361849,2.17944 8.52133,-0.14423 17.21835,1.10234 25.69612,0.002 11.47686,-1.00273 22.95961,-1.77202 34.41363,-3.01315 12.24117,-1.02546 24.45502,-2.19716 36.67018,-3.49979 10.19414,-0.58039 20.26745,-2.21413 30.39932,-3.38261 6.90761,-0.79053 13.85516,-1.06501 20.80145,-1.20379 4.86787,0.28182 9.54685,-0.26652 14.28547,-1.29997 3.79574,-0.84131 7.65017,-1.28379 11.52769,-1.47622 3.3531,-0.0477 6.58205,0.0595 9.814,-0.89084 3.81801,-2.08181 5.6574,-6.56509 7.50074,-10.30658 1.9328,-4.57905 4.15812,-8.97368 5.43026,-13.80139 0.57622,-1.99622 0.54573,-5.25338 3.7553,-0.92877 0.0498,0.0671 0.077,4.38461 0.0815,4.88509 0.004,7.0706 -0.0327,14.14114 -0.0489,21.21171 -0.0123,5.9056 -0.0161,11.81122 -0.0111,17.71683 -1.4198,0.38285 1.00037,2.95373 0.81764,2.88365 -0.72342,-0.27746 -1.68725,-0.32289 -2.1119,-0.97097 -0.0116,-0.0177 0.96614,-2.67345 1.22107,-3.36907 2.76933,-5.76696 4.97248,-11.76707 7.92425,-17.4447 2.81485,-5.08986 4.98839,-11.02559 9.67133,-14.72142 5.95871,-2.38552 8.10358,2.40679 9.55821,7.03031 2.17773,5.76666 3.14038,11.886 3.84921,17.98082 0.47745,2.2905 0.94698,4.6163 1.74814,6.82309 0.13079,0.36025 0.20134,0.78203 0.48061,1.04449 0.17267,0.16228 0.93133,0.14891 0.70724,0.0719 -0.67733,-0.23282 -1.38589,-0.36223 -2.07883,-0.54335 3.32528,-4.34773 5.16859,-9.733 7.24776,-14.76187 1.93073,-5.03573 3.71795,-10.14169 5.73606,-15.14272 3.51686,-6.09923 6.23564,4.20941 6.72337,5.72341 1.73468,8.56126 2.75497,17.28344 3.89441,25.95121 1.71294,5.94013 0.006,12.85822 2.03853,18.66907 1.6767,0.67444 -1.01959,-0.32413 -1.21317,-1.65933 -0.15714,-1.08388 0.68998,-2.07914 1.00988,-3.1266 0.41221,-1.3497 0.82601,-2.69966 1.18621,-4.06416 0.89418,-3.3873 1.63167,-6.81403 2.44403,-10.22188 3.1641,-11.13822 5.52885,-22.51319 8.9313,-33.58 1.21616,-3.54136 3.08321,-12.42091 8.69756,-7.6116 3.82905,5.0937 5.57959,11.34676 7.70135,17.27022 3.04367,8.66281 4.93153,17.63711 7.26796,26.49137 1.04423,2.64494 1.14008,5.65649 2.72873,8.08627 0.99109,1.51583 2.26747,1.28142 1.75228,0.8746 -0.62489,-0.49343 -1.44698,-0.6649 -2.17048,-0.99735 2.7377,-7.68181 4.05144,-15.79116 5.83238,-23.73088 1.41474,-6.81116 2.76349,-13.66845 5.54145,-20.08113 5.24143,-4.61774 7.06517,8.67899 7.638,11.17054 1.17653,5.80967 2.52975,11.70655 5.12712,17.06326 2.53911,2.33883 0.59954,2.71395 -0.30447,0.86609 -0.19943,-0.40766 0.64471,-0.64561 0.90389,-1.01815 0.77055,-1.10758 0.86902,-1.73409 1.30334,-3.02937 1.48941,-3.37857 2.63965,-6.90089 5.08349,-9.72709 3.48558,-3.0603 8.02341,-1.97231 12.21583,-1.26904 4.06802,0.78388 8.21793,0.89656 12.3466,1.00739 4.32466,0.0895 8.65039,0.088 12.97574,0.0906 7.19343,-0.004 14.38686,-0.007 21.58029,-0.009 10.80299,-0.17204 21.55946,-1.45973 32.35087,-2.06274 13.72012,-0.51649 27.42448,-0.62966 41.1235,-1.59212 13.03476,-1.04918 26.09845,-1.59224 39.16951,-1.8836 9.88937,0.17811 19.68873,-0.3553 29.5059,-1.47693 5.40533,-0.639 10.81963,-1.18816 16.25625,-1.46325 4.08691,-0.41744 6.3589,-0.18293 6.96527,3.79001 0.25058,3.65759 0.13956,7.32955 0.11147,10.99276 0.1313,6.41063 -0.0536,12.74642 -0.88008,19.10378 -1.35103,8.98159 -1.33108,18.08083 -2.21415,27.10179 -1.42133,10.18904 -1.68353,20.48509 -2.74234,30.70398 -1.51879,9.66638 -1.70911,19.46988 -2.85576,29.16894 -1.16155,8.01995 -2.06863,16.06671 -2.51121,24.15834 -0.26157,5.72055 -0.30352,11.44734 -0.31181,17.1728 0.16651,3.13217 0.35036,5.43072 -2.08706,7.61914 -3.58881,1.98124 -7.93304,1.82065 -11.92173,1.94628 -7.1544,-0.37121 -14.19018,-1.7141 -21.3357,-2.3075 -5.041,-0.4215 -10.10043,-0.50349 -15.15608,-0.54445 -4.17756,-0.77102 -3.59346,1.60027 -9.61384,-0.86336 -3.19213,-3.11751 -2.53068,-8.60238 -2.6618,-12.7023 -0.13168,-8.03544 -0.0775,-16.07256 -0.0564,-24.10867 0.17889,-2.59852 -0.0714,-5.16421 -0.79869,-7.66169 -0.13363,-0.4589 -0.21237,-0.95458 -0.47823,-1.35177 -0.16949,-0.25322 -1.06759,-0.51823 -0.76327,-0.503 0.69599,0.0348 1.34177,0.37701 2.01265,0.56552 -4.095,5.96273 -5.57128,13.51611 -7.87497,20.31304 -2.90356,10.52073 -6.90955,20.67453 -11.32877,30.63851 -2.41757,3.76921 -5.32439,13.3746 -10.5051,13.91071 -1.35538,-0.28505 -2.84465,-0.20225 -4.06613,-0.85516 -2.37143,-1.26757 -3.06983,-14.57643 -3.36341,-16.94294 -1.02679,-10.59806 -2.81872,-21.09117 -4.24111,-31.63883 -0.67482,-3.33177 -0.67847,-4.32853 -1.98845,-7.3443 -0.32888,-0.75712 -0.71807,-1.4963 -1.20156,-2.16534 -0.28405,-0.39307 -1.41826,-0.64166 -1.07314,-0.98237 0.46154,-0.45566 1.5497,-0.39183 1.94172,0.12486 0.30133,0.39715 -0.67358,0.73512 -1.01037,1.10268 -3.3442,8.72132 -4.1505,18.23605 -5.6289,27.40641 -1.44232,10.0101 -3.75236,19.86715 -5.67603,29.79196 -3.87668,12.94559 -7.04873,-7.55689 -7.26158,-8.80942 -1.32403,-12.24098 -2.8163,-24.46809 -3.9612,-36.73035 -0.15084,-1.70136 -1.5273,-17.67883 -3.33246,-16.99416 0.84479,0.28348 1.98176,0.15139 2.53437,0.85043 0.4332,0.54798 -0.16563,1.38779 -0.21413,2.08463 -0.0713,1.02394 -0.10994,2.05 -0.14503,3.07581 -0.16244,4.74994 -0.55731,9.4316 -0.99591,14.16655 -0.87971,10.63108 -2.70935,21.15103 -3.92044,31.7479 -0.27531,0.92456 -0.26572,10.4902 -1.73913,10.08978 -1.24789,-0.33913 -2.39463,-0.97708 -3.59195,-1.46562 -1.25612,-4.42928 -1.18485,-9.02332 -2.17399,-13.52031 -0.90515,-3.4347 -1.21829,-6.97636 -1.83062,-10.46199 -0.0284,-0.10248 -0.18245,-0.35055 -0.0852,-0.30743 0.73389,0.32552 1.7165,0.48616 2.09017,1.19674 0.4363,0.82969 -4.90328,2.3884 -5.62386,2.65597 -4.12224,1.77545 -8.62106,2.03638 -12.96519,2.89534 -6.31053,1.19177 -12.57363,2.61893 -18.89057,3.77623 -8.54887,1.36456 -17.07052,2.90367 -25.54693,4.66777 -8.48118,2.06379 -16.91468,4.30689 -25.3972,6.36393 -6.99331,2.12047 -14.09923,3.69602 -21.35317,4.55552 -5.54188,1.23741 -11.17795,2.03691 -16.7157,3.27593 -4.64897,1.33324 -9.39078,2.24433 -14.20117,2.70994 -3.89998,0.33234 -7.81789,0.33101 -11.72892,0.3389 -4.89338,0.003 -9.78673,-0.0141 -14.6801,-0.0214 -4.14912,-0.0507 -8.16875,-1.39903 -12.25669,-2.10078 -3.79233,-0.56126 -7.62952,-0.69188 -11.45702,-0.75992 -5.178,-0.0338 -3.56165,-0.0233 -7.34864,-0.0144 -2.92056,0.007 -5.84112,0.01 -8.76169,0.0115 -2.76468,0.65629 -5.32426,1.77091 -8.12828,2.31406 -2.81756,0.44951 -5.66868,0.51814 -8.51486,0.55419 -4.20825,0.0221 -8.41661,0.006 -12.62488,-0.002 -3.08894,-0.006 -6.17788,-0.007 -9.26681,-0.008 -3.59502,-0.21955 -5.60643,0.18267 -6.2728,0.31196 -3.52655,0.97288 -8.05917,2.9932 -10.97393,-0.34256 -2.40771,-4.12543 -1.98086,-9.30684 -2.61715,-13.91986 -0.7907,-6.51053 -1.99412,-12.90464 -3.54721,-19.27196 -0.58999,-1.97228 -0.69338,-4.07509 -1.31635,-6.03874 -0.0471,-0.14854 -0.36523,-0.48374 -0.22941,-0.40733 2.69861,1.51819 2.23125,0.92858 0.91074,3.20909 -2.74586,5.79181 -4.87601,11.84246 -7.49213,17.69278 -2.33073,5.1686 -4.4948,10.49782 -7.69317,15.20251 -5.22723,3.92913 -8.16313,1.03091 -9.9593,-3.89741 -2.48885,-7.50866 -4.42816,-15.16668 -5.85168,-22.94531 -1.725,-6.49852 -2.46693,-13.36534 -5.6262,-19.37661 2.43618,0.0761 -2.84038,-2.09241 -2.10629,-1.60296 0.51857,0.34575 1.55679,0.18002 1.69584,0.78758 0.16522,0.72193 -0.75627,1.2763 -1.06996,1.94717 -1.45731,3.11668 -1.43957,3.66652 -2.46048,7.24343 -3.10447,11.7728 -5.54237,23.71515 -8.26795,35.58255 -2.20918,6.17845 -2.7181,16.03909 -9.38312,19.33263 -1.45887,-0.0533 -2.96553,0.21416 -4.3766,-0.16003 -3.38164,-0.89674 -7.50293,-11.70796 -8.53948,-14.49176 -3.25117,-8.39233 -5.7045,-17.06418 -8.60441,-25.57656 -0.96639,-2.82108 -1.75803,-5.93685 -3.66827,-8.32313 -0.28106,-0.35111 -1.31928,-1.21479 -1.03304,-0.8679 1.91134,2.3163 1.89138,0.12095 0.17389,3.93371 -3.24926,10.44208 -5.20164,21.26911 -7.5786,31.94316 -2.44329,6.60677 -2.32528,15.39924 -7.97372,20.32886 -2.18833,0.40326 -3.20708,0.77328 -5.83561,-0.40143 -2.00042,-0.894 -4.44045,-10.41194 -5.02313,-12.27997 -2.43791,-9.72758 -4.42663,-19.57758 -6.18908,-29.45164 -0.72446,-2.87546 -1.39038,-5.80668 -2.48754,-8.57298 -0.27527,-0.69403 -1.97855,-2.21457 -1.38752,-1.75835 0.53455,0.41262 1.08942,0.79824 1.63413,1.19736 -2.38229,6.05686 -3.19237,12.77436 -3.96059,19.2251 -0.62641,7.32588 -1.8234,14.6264 -3.93282,21.67384 -1.12714,4.1895 -2.88341,8.30759 -6.35886,11.03792 -3.286725,2.20557 -7.055789,2.16777 -10.824699,1.11763 -3.123908,-1.25202 -6.498571,-1.41492 -9.719425,-2.23969 -5.317355,-1.40315 -10.765755,-2.13196 -16.149241,-3.24007 -7.461644,-1.56495 -15.0938,-1.90867 -22.690336,-2.16188 -6.921504,-0.1704 -13.846009,-0.19753 -20.769346,-0.18245 -6.288966,0.31175 -12.3352409,1.86249 -18.3436656,3.61679 -4.3900839,1.43426 -8.6734711,1.96747 -13.2462274,1.67049 -3.308923,-3.80508 -3.810382,-9.32947 -4.769739,-14.0892 -3.077158,-15.54622 -4.728868,-31.35883 -6.206026,-47.12754 -1.571789,-20.1525 -3.263181,-40.28617 -4.262391,-60.47768 -0.938408,-12.43551 -2.301881,-24.83295 -3.237035,-37.26894 0.159765,-4.86938 -0.960721,-9.44465 -2.253899,-14.07769 -0.985943,-2.51471 0.599826,-3.99699 2.630084,-5.23665 5.584682,-1.51405 11.326123,-2.43784 16.977313,-3.70083 8.3047547,-2.14783 16.8391932,-2.89899 25.373469,-3.37688 7.704311,-0.36502 15.418968,-0.37338 23.130048,-0.38151 5.83462,-0.003 11.66921,0.0173 17.503813,0.0276 3.253208,-0.0659 6.350922,-0.21982 9.443129,0.86663 3.318549,1.01118 3.311862,3.13804 2.85056,6.22578 -0.236946,0.72821 -0.473893,1.45642 -0.71084,2.18462 0,0 -2.825435,-0.0894 -2.825435,-0.0894 l 0,0 c 0.234822,-0.71239 0.469644,-1.42478 0.704466,-2.13716 0.45377,-3.03919 0.392604,-4.87931 -2.834552,-5.83224 -3.08248,-1.01964 -6.206125,-0.80316 -9.424556,-0.77572 -3.975597,-0.009 -7.951287,-0.0169 -11.926803,-0.0301 -7.715798,0.004 -15.435038,0.0102 -23.144493,0.3638 -8.5272668,0.46521 -17.0598579,1.18719 -25.358419,3.33195 -5.62936,1.27861 -11.330712,2.24665 -16.933219,3.61869 -1.987813,1.11072 -3.571116,2.44609 -2.620301,4.86457 1.285845,4.65238 2.390796,9.24909 2.223548,14.13381 0.902919,12.43897 2.240794,24.83932 3.166905,37.27624 0.979902,20.18859 2.667415,40.31828 4.256705,60.46548 1.488191,15.76048 3.149355,31.56718 6.275971,47.09706 0.932581,4.55928 1.371119,10.27197 4.7894414,13.76461 -6.0749574,0.74123 7.3219359,-0.96514 7.63034999,-1.65182 6.02069201,-1.76075 12.06633661,-3.34403 18.36727161,-3.69413 8.770855,-0.002 17.543654,-0.0362 26.312343,0.1929 7.604231,0.26218 15.242034,0.62482 22.708328,2.20714 5.389668,1.10616 10.848123,1.82695 16.167742,3.24889 3.236376,0.77239 6.593317,1.02251 9.725808,2.24487 5.704603,1.48957 -1.118363,-0.51956 0.172624,0.64082 0.909671,0.81765 4.24206,-1.30154 5.017937,-1.64893 3.517302,-2.6068 5.235552,-6.73335 6.365592,-10.86021 2.1276,-7.02634 3.32055,-14.31432 3.94721,-21.6245 0.76826,-6.51829 1.6133,-13.26263 3.93637,-19.41183 1.34125,-0.41231 2.62995,-1.07482 4.02374,-1.23692 1.24929,-0.1453 3.63572,9.38567 3.84455,10.5415 1.73694,9.86641 3.72755,19.70533 6.18429,29.41589 0.3254,1.03466 2.0166,6.51244 2.52166,7.76587 0.36927,0.91644 0.80309,1.81035 1.30523,2.66128 0.34222,0.57993 1.26046,0.94058 1.21681,1.61254 -0.0322,0.49617 -1.54956,0.14996 -1.36118,0.61012 0.19742,0.48224 1.03857,-0.0865 1.55786,-0.1297 5.76986,-4.69443 5.54568,-13.66747 8.01736,-20.14363 2.38781,-10.68834 4.34534,-21.52445 7.54146,-31.99874 4.73799,-11.06369 8.82333,0.77407 10.1461,5.28202 2.88485,8.51374 5.33783,17.18183 8.59542,25.56832 1.39354,3.70666 2.77142,7.54595 5.08462,10.81401 0.5351,0.75598 1.16521,1.44585 1.82933,2.09144 0.49663,0.48277 1.46429,0.60826 1.63768,1.27881 0.10578,0.40906 -0.82904,0.16354 -1.24356,0.24531 6.75272,-2.85938 7.2156,-13.13285 9.42106,-19.07311 2.73716,-11.86822 5.17332,-23.81267 8.24594,-35.59686 1.00648,-3.59415 3.59307,-15.64324 9.55898,-8.43333 3.11136,6.06162 3.89925,12.92929 5.60592,19.46115 1.41967,7.76515 3.36293,15.40908 5.87364,22.89603 0.51668,1.37837 0.89779,2.89079 1.95605,4.00144 0.34754,0.36474 1.35743,0.29955 1.28361,0.79792 -0.0713,0.48133 -1.01246,0.48295 -1.43853,0.24794 -0.81476,-0.44941 3.93664,-0.22581 2.51083,-1.21987 3.22672,-4.67106 5.3828,-9.99498 7.71038,-15.15089 2.62624,-5.85378 4.75854,-11.90911 7.47491,-17.72212 5.12972,-8.97055 5.49957,-0.21988 6.27883,3.31749 1.54096,6.37878 2.74655,12.78216 3.54268,19.30037 0.63277,4.55108 0.19793,9.70536 2.63254,13.74841 2.40508,2.49887 0.28333,-0.32396 -0.59377,1.526 -0.1394,0.294 4.1462,-0.85883 4.21156,-0.87804 0.57041,-0.16767 1.14517,-0.32019 1.71775,-0.48028 3.8774,-0.88746 7.93154,-0.16094 11.88359,-0.3706 3.08795,8e-4 6.1759,0.003 9.26384,0.009 5.16291,0.009 3.23033,0.016 7.02261,0.004 2.84267,-0.0303 5.68933,-0.0856 8.50743,-0.50498 2.8217,-0.52132 5.39756,-1.5573 8.13509,-2.36656 2.92106,-0.001 5.84212,-0.004 8.76318,-0.0108 4.31701,-0.009 8.63424,-0.0265 12.95108,0.0196 3.82916,0.0767 7.66823,0.21863 11.45922,0.80328 4.07911,0.71293 8.09595,2.06239 12.25005,2.05313 3.35097,0.005 6.70233,-10e-4 10.05324,0.0196 0.32143,0.002 -0.64286,10e-4 -0.9643,0.002 3.91034,-0.006 7.82725,0.002 11.72773,-0.3127 4.81118,-0.44085 9.55971,-1.32293 14.20361,-2.67259 5.53324,-1.27922 11.19002,-2.00956 16.72542,-3.30513 7.25628,-0.8343 14.3701,-2.37756 21.35744,-4.52065 8.4898,-2.04236 16.9244,-4.29626 25.40633,-6.37166 8.47404,-1.76503 16.99053,-3.32124 25.53864,-4.67606 6.31484,-1.14167 12.56749,-2.59189 18.87505,-3.77278 4.32609,-0.89637 8.82916,-1.08643 12.9472,-2.85103 1.30698,-0.50856 9.14293,-3.81439 9.27854,-3.25145 0.56256,3.48965 0.92578,7.01444 1.80917,10.44846 0.97813,4.47057 0.90167,9.04516 2.18146,13.43817 -0.69049,0.42832 -1.41716,0.80319 -2.07149,1.28496 -0.37674,0.2774 0.88207,-0.54565 0.98213,-1.00268 0.62461,-2.85307 0.12662,-5.94281 0.78695,-8.79541 1.22997,-10.5928 3.0705,-21.11054 3.93696,-31.74129 0.16573,-1.81678 0.77454,-8.26695 0.88202,-10.2661 0.0318,-0.59134 0.0332,-8.73103 0.41564,-9.11508 0.78799,-0.7912 2.08405,-0.80277 3.12607,-1.20415 2.27694,1.02953 2.97091,15.15159 3.29089,17.40187 1.13229,12.25669 2.62601,24.47745 3.97788,36.70853 0.0391,0.22515 2.39809,10.56593 2.39278,10.58342 -0.20975,0.69054 -1.10407,1.09677 -1.8221,1.16945 -1.0422,0.1055 3.75596,-3.36212 1.08223,-2.95036 1.96186,-9.91624 4.27865,-19.77219 5.71879,-29.78173 1.48052,-9.2225 2.30323,-18.75656 5.57196,-27.55898 5.04044,-6.59294 9.02726,6.08293 8.95574,9.42405 1.40244,10.55101 3.20064,21.04393 4.23818,31.64138 0.51973,4.14217 0.63871,8.49114 1.58791,12.56705 0.19087,0.81962 0.44864,1.62825 0.78632,2.39908 0.26803,0.61184 1.16532,1.07276 1.02022,1.72478 -0.12426,0.55833 -1.04141,0.47344 -1.56211,0.71016 5.00558,0.0815 8.27102,-10.10649 10.52138,-13.59574 4.43251,-9.94977 8.44242,-20.09568 11.33188,-30.61274 2.32064,-6.86622 3.83252,-14.39225 7.83036,-20.49832 1.21673,-0.18329 2.42018,-0.58293 3.65019,-0.54988 1.77584,0.0477 2.17933,8.71558 2.01446,9.7779 -0.0276,8.03273 -0.0843,16.06671 0.0612,24.09863 0.1315,3.93921 -0.5684,9.48621 2.67015,12.37264 0.39567,0.1494 1.27682,0.0349 1.187,0.4482 -0.0981,0.45129 -1.66637,-0.0307 -1.35108,0.30675 0.44672,0.47812 7.91609,-0.22496 9.75181,0.007 5.05208,0.0459 10.10772,0.13703 15.14443,0.56771 2.5362,0.21552 14.74876,0.88006 15.76415,2.29107 3.96732,-0.11466 8.2424,0.0383 11.88122,-1.75515 2.46208,-2.08676 2.24115,-4.28542 2.08973,-7.37761 0.0132,-5.73054 0.0698,-11.46202 0.33125,-17.18754 0.43866,-8.09847 1.36498,-16.14947 2.52355,-24.17611 1.15619,-9.69666 1.33785,-19.50046 2.86408,-29.16467 1.05791,-10.21824 1.32135,-20.51352 2.73808,-30.70242 0.88116,-9.02369 0.85944,-18.12526 2.19792,-27.11088 0.82475,-6.34615 1.00237,-12.67042 0.86147,-19.06949 0.0237,-3.64774 0.13081,-7.30504 -0.1261,-10.94658 -0.1476,-0.91668 -0.25447,-2.0661 -0.97801,-2.76519 -0.20017,-0.19341 -0.95562,-0.26508 -0.72296,-0.41786 0.50128,-0.32916 1.26095,0.029 1.77794,-0.27491 0.40282,-0.23678 -0.93383,0.0355 -1.40075,0.0532 -5.44654,0.26173 -10.8711,0.79969 -16.28564,1.44043 -9.82706,1.12592 -19.63231,1.7018 -29.53362,1.49865 -13.07517,0.28525 -26.14351,0.81798 -39.1823,1.86808 -13.69552,0.97016 -27.39471,1.10017 -41.11263,1.59794 -10.78386,0.59652 -21.53148,1.87927 -32.32421,2.08248 -7.18856,0.002 -14.37712,0.006 -21.56567,0.0113 -6.18299,4.4e-4 -12.36695,0.0287 -18.54906,-0.0972 -4.13509,-0.11773 -8.28808,-0.25142 -12.36088,-1.04481 -4.56151,-0.76278 -2.04019,-1.60494 -6.58392,1.07726 -2.48528,2.75437 -3.57681,6.27697 -5.0789,9.61254 -1.09546,3.37048 -4.38417,8.24384 -7.55946,3.21783 -2.5707,-5.38971 -3.93149,-11.29722 -5.11273,-17.12609 -0.66689,-2.86681 -1.25947,-5.91637 -2.23656,-8.7005 -0.23497,-0.66953 -1.07214,-1.24118 -0.89934,-1.92938 0.16271,-0.64797 1.04992,-0.8543 1.66424,-1.11689 0.251,-0.10729 -0.34924,0.41963 -0.52386,0.62944 -2.83118,6.37718 -4.1637,13.2302 -5.58337,20.02557 -1.7849,7.96535 -3.11612,16.08646 -5.78651,23.81705 -1.15939,0.42816 -2.28376,0.96683 -3.47816,1.28449 -2.904,0.77232 -3.7673,-8.07414 -4.47138,-9.32361 -2.31994,-8.85053 -4.20446,-17.81682 -7.26285,-26.46703 -2.11162,-5.87261 -3.83828,-12.11903 -7.73028,-17.11023 -0.3615,-0.25834 -1.38489,-0.44762 -1.0845,-0.77503 0.44047,-0.4801 1.38548,-0.49517 1.94761,-0.16573 0.34435,0.20182 -0.69366,0.43897 -0.91747,0.76946 -1.51044,2.23047 -1.80931,5.25756 -3.02094,7.61033 -3.43839,11.05056 -5.78982,22.42626 -8.94554,33.56096 -0.53169,2.24909 -3.27515,16.09483 -4.59738,17.49278 -2.9066,3.07304 -2.95012,2.78198 -4.44822,1.60628 -1.89909,-5.8935 -0.35247,-12.72393 -1.99215,-18.72445 -1.14045,-8.65122 -2.15473,-17.36099 -3.92231,-25.8993 -0.71961,-2.20344 -0.81041,-2.66487 -1.67906,-4.68949 -0.17543,-0.40888 -0.88338,-0.87416 -0.58182,-1.20129 0.50876,-0.55187 1.48385,-0.27467 2.1863,-0.53916 0.38447,-0.14477 -2.38222,-0.15535 -0.99418,0.72839 -2.07114,4.97997 -3.81444,10.11312 -5.76245,15.14246 -2.09258,5.07425 -3.96923,10.45316 -7.22381,14.90594 -1.19243,0.21965 -2.36851,0.56421 -3.5773,0.65894 -2.05706,0.16122 -2.37968,-7.21303 -2.93268,-8.27661 -0.70303,-6.0797 -1.66461,-12.17919 -3.85233,-17.92658 -0.56741,-1.77149 -0.7645,-2.74623 -1.70448,-4.34072 -0.32917,-0.55838 -0.70566,-1.09633 -1.15091,-1.56739 -0.36611,-0.38734 -1.40235,-0.47005 -1.26047,-0.9838 0.14785,-0.53536 1.08119,-0.44227 1.62894,-0.35041 0.48661,0.0816 -0.95305,0.2559 -1.42957,0.38385 -4.75175,3.56193 -6.87151,9.56072 -9.68535,14.59759 -2.9557,5.66133 -5.13668,11.65408 -7.90065,17.40899 -0.23147,0.63568 -0.46966,1.26896 -0.69441,1.90705 -0.18005,0.51117 -0.0616,1.25118 -0.5199,1.54049 -3.78354,2.38863 -4.41161,0.87988 -4.3693,-2.09038 0.0103,-5.9058 0.0167,-11.8116 0.0317,-17.71739 0.0185,-7.06937 0.053,-14.13881 0.0344,-21.20819 -0.009,-0.86921 -0.0118,-1.73853 -0.0284,-2.60764 -0.0144,-0.75387 -0.48863,-1.63746 -0.0648,-2.2611 3.58638,-5.27734 2.5945,-0.097 1.90678,0.98223 -1.2692,4.84993 -3.50424,9.25906 -5.44076,13.85737 -1.86043,3.80696 -3.72679,8.30024 -7.50606,10.53975 -3.24253,0.99094 -6.44361,0.96647 -9.8269,0.9588 -3.8757,0.1759 -7.73003,0.5954 -11.52543,1.42858 -4.74664,1.04001 -9.41648,1.67639 -14.29983,1.35378 -6.95247,0.13003 -13.90665,0.39268 -20.82142,1.1738 -10.13951,1.15781 -20.21599,2.81578 -30.41772,3.38222 -12.21713,1.29768 -24.42991,2.49128 -36.67427,3.4986 -11.45098,1.24511 -22.92907,2.02134 -34.40314,3.02728 -10.40288,0.4449 -20.81137,0.40749 -31.21808,0.005 -7.830152,-0.35868 -15.657046,-0.9113 -23.396629,-2.20842 0,0 2.80154,-0.39642 2.80154,-0.39642 z" />
    <path
       style="fill:#000000;fill-opacity:1;stroke:#000000;stroke-width:10;stroke-miterlimit:4;stroke-opacity:1;stroke-dasharray:none"
       id="path3028"
       d="m 653.18487,340.10369 c 1.32589,8.03608 1.81624,16.16936 2.17851,24.29531 0.30535,8.63594 0.32852,17.27842 0.34228,25.91873 -0.0135,7.00954 0.35573,13.9909 -0.81764,20.92269 -1.22809,3.53558 -0.55398,7.79014 -2.19632,11.16186 -2.1592,1.54935 -4.76647,2.54248 -7.28513,3.39082 -3.59016,1.02519 -6.99069,2.41482 -10.67734,3.11243 -1.22876,0.55703 -8.00601,-0.0998 -7.96171,1.90424 3.87653,1.89421 7.86152,3.44722 12.00704,4.6552 7.93069,1.81015 15.89659,3.44395 23.83481,5.22675 6.76429,1.59665 13.66695,2.32533 20.59035,2.72967 5.27691,1.07668 2.27449,2.60862 -0.57626,3.72827 -5.8126,1.48401 -11.39745,3.66887 -17.02269,5.72323 -2.24805,1.20439 -7.8653,2.28611 -6.61961,5.86421 1.81012,2.403 4.43404,4.07075 6.97242,5.63855 2.86803,2.18689 2.07325,4.28347 -0.68546,5.99978 -4.40197,2.33627 -9.15476,4.02221 -13.83376,5.73945 -2.50015,1.29897 -7.10849,0.60023 -8.76899,3.27598 0.26087,2.45212 4.16099,3.57185 6.12375,4.4706 3.38547,1.51196 6.77902,3.11619 9.72223,5.38878 2.4874,2.55522 1.16153,5.13811 -0.82966,7.45708 -3.08153,2.67402 -7.18338,3.46434 -10.90096,4.89849 -2.92905,1.5281 -4.93454,3.54424 -3.50082,6.86615 2.59721,3.38223 6.77825,5.49082 10.63846,7.17811 3.21421,0.96281 6.25491,2.10524 9.05951,3.97306 0.8092,2.18251 -3.82903,2.88654 -5.14797,3.21494 -3.87383,0.87412 -7.85678,1.02985 -11.81154,1.15034 -2.85763,0.59398 -1.68763,2.19013 -0.82027,4.20814 1.84301,3.86456 2.93558,7.93128 4.19262,12.0104 2.10878,8.01195 2.74081,16.31992 3.94224,24.50296 1.32844,8.42713 1.88628,16.93838 2.20618,25.45448 0.17906,5.85537 0.19046,11.71409 0.18615,17.57166 -0.003,3.48271 -0.0142,6.9654 -0.0152,10.44811 -1.04723,3.7325 -6.12115,0.60259 -8.02697,-1.08083 -2.18574,-2.21668 -3.32514,-5.22726 -5.31959,-7.58897 -2.09827,-1.92475 -4.99979,-2.91105 -7.63419,-3.93725 -2.95145,-0.89644 -5.70978,-2.37641 -8.52814,-3.63944 -2.72531,-0.81055 -5.6189,-0.75606 -8.43676,-0.80142 -3.91962,0.29288 -2.50314,-0.58412 -7.53092,0.31962 -3.96706,1.1735 -7.99255,1.86647 -12.10769,2.2221 -5.47421,-0.045 -10.80415,0.6962 -16.18132,1.62252 -6.34789,0.74546 -12.57555,2.18422 -18.88505,3.1787 -7.39588,1.37243 -14.52764,3.73903 -21.89225,5.2584 -7.798,1.975 -15.76385,3.04474 -23.60443,4.81527 -5.87953,0.84852 -11.49382,2.76494 -17.24803,4.14287 -4.72215,0.5576 -9.31201,1.50656 -13.94047,2.57137 -5.09148,1.11683 -10.29747,1.36379 -15.4889,1.52237 -6.24066,1.00057 -12.46663,1.92385 -18.77115,2.4266 -7.8628,1.19967 -15.74095,2.21588 -23.56526,3.65011 -8.66105,1.1868 -17.30056,2.48334 -25.96145,3.6825 -10.88692,1.42589 -21.71775,3.01065 -32.6818,3.74084 -14.05634,0.34321 -28.06561,1.11119 -42.08509,2.16188 -14.3112,0.62663 -28.58063,1.64577 -42.86084,2.75854 -14.26791,1.4544 -28.46584,3.45717 -42.69892,5.19555 -12.01532,2.00397 -24.11518,3.34916 -36.14482,5.24428 -8.73285,0.96375 -17.31932,2.80271 -25.9838,4.20219 -5.3782,0.82832 -10.81052,1.15219 -16.24414,1.29348 -4.83971,0.0728 -9.68031,0.0436 -14.52038,0.0289 -3.90376,-0.0124 -7.80753,-0.0159 -11.71131,-0.0183 -4.29594,-0.002 -8.59188,-0.002 -12.88783,-0.002 -7.31445,1.03345 -14.70002,1.56888 -22.00346,2.65913 -8.312745,1.05734 -16.458031,3.03009 -24.709597,4.4424 -6.334279,1.57609 -12.725384,2.85337 -19.020645,4.57542 -4.762397,0.99925 -9.076127,3.31033 -13.784288,4.49546 -3.483999,0.32144 -6.669063,1.6924 -9.986092,2.67857 -4.512944,1.33103 -8.102418,0.71036 -9.83667,-3.55677 -2.59135,-5.57387 -3.071316,-11.72446 -3.510217,-17.76742 -0.485636,-9.344 -0.474361,-18.70429 -0.490235,-28.05811 -0.590524,-8.43275 -1.424618,-16.83394 -3.136355,-25.11412 -1.126067,-5.23669 -1.976746,-10.52906 -2.390554,-15.86991 -0.223608,-4.02498 -0.203667,-8.05814 -0.202536,-12.08777 0.154944,-3.11859 -0.999369,-6.11034 -2.050989,-9.00102 -0.667583,-1.988 -1.560592,-1.86647 2.088285,-0.49933 0,0 -2.842771,-0.0422 -2.842771,-0.0422 l 0,0 c 3.420737,-1.22956 2.749435,-1.78598 3.596304,0.44309 1.046876,2.92625 2.198929,5.94868 2.041195,9.09972 -0.0066,4.02223 -0.02212,8.04819 0.201058,12.06569 0.410181,5.32835 1.243186,10.61018 2.367955,15.83465 1.704776,8.29958 2.532279,16.72047 3.121859,25.1707 0.01711,9.34713 0.0022,18.70119 0.499883,28.03804 0.447476,6.01618 0.93778,12.13512 3.53908,17.67631 1.672227,3.92749 3.674028,3.81292 4.192718,3.3046 3.331733,-0.95484 6.494302,-2.41589 9.993582,-2.68974 4.728707,-1.13911 9.031332,-3.47767 13.795953,-4.48659 6.301923,-1.7271 12.696412,-3.00661 19.034757,-4.6015 8.25661,-1.39645 16.399411,-3.38681 24.713737,-4.44698 7.297473,-1.12092 14.688703,-1.59241 21.992923,-2.70345 6.15546,-6e-5 12.31091,-6.6e-4 18.46636,9.8e-4 3.90534,0.002 7.81067,0.006 11.71599,0.0183 4.08636,0.0129 3.85307,0.033 8.92694,-0.0222 5.43756,-0.13038 10.8746,-0.4372 16.25855,-1.25309 8.6751,-1.38424 17.2646,-3.25152 26.00773,-4.19962 12.03715,-1.89635 24.14399,-3.23902 36.1659,-5.25105 14.23684,-1.72989 28.43617,-3.74083 42.70555,-5.20674 14.27853,-1.1099 28.54423,-2.15098 42.85466,-2.76027 14.01914,-1.04925 28.02612,-1.8435 42.08313,-2.16464 10.95548,-0.71838 21.77611,-2.29425 32.6523,-3.72523 8.65961,-1.18918 17.29126,-2.5141 25.95401,-3.67096 7.82393,-1.43901 15.69966,-2.45229 23.55887,-3.68025 6.30454,-0.4902 12.53595,-1.37232 18.76623,-2.44127 5.18491,-0.14976 10.38518,-0.37679 15.47485,-1.46873 4.63233,-1.05443 9.20537,-2.07776 13.94146,-2.56906 5.76641,-1.35121 11.37313,-3.32049 17.26402,-4.14361 7.84142,-1.77571 15.8069,-2.8437 23.60612,-4.82081 7.3711,-1.49899 14.49941,-3.8634 21.88868,-5.27218 6.3105,-0.98039 12.53052,-2.44305 18.8784,-3.1753 5.37792,-0.92553 10.69854,-1.73554 16.17794,-1.64768 4.1115,-0.33692 8.1423,-0.98167 12.09632,-2.19289 4.29096,-0.89607 8.77599,-0.18471 13.13815,-0.36892 2.82922,0.0527 5.74796,0.001 8.46002,0.91435 2.81085,1.26789 5.56702,2.72882 8.51842,3.62666 2.65876,1.05017 5.59049,2.04477 7.65015,4.07995 1.93475,2.38997 3.12027,5.3514 5.31387,7.54147 0.41068,0.34539 0.79105,0.73043 1.23204,1.03617 0.42842,0.29703 1.42327,0.2461 1.36458,0.7641 -0.0615,0.54263 -1.0645,0.30971 -1.52031,0.61047 -0.24135,0.15926 2.55884,-0.44547 1.28516,-1.08709 0.0118,-3.48261 0.0194,-6.96524 0.031,-10.44785 0.006,-5.85396 0.009,-11.70908 -0.1688,-17.56099 -0.31177,-8.50602 -0.86711,-17.0068 -2.19155,-25.42408 -1.20544,-8.16927 -1.83519,-16.46652 -3.96862,-24.45951 -1.25343,-4.07179 -2.37007,-8.12262 -4.21065,-11.97966 -0.90357,-2.11164 -2.07889,-3.97081 0.85732,-4.75826 3.95104,-0.11044 7.93067,-0.24875 11.80654,-1.09145 0.97897,-0.23022 5.65405,-0.95162 5.12257,-2.55827 -2.80412,-1.83289 -5.86134,-2.91399 -9.0359,-3.92825 -3.89381,-1.74947 -8.12968,-3.87411 -10.66769,-7.3917 -1.39123,-3.47826 0.43956,-5.64706 3.52739,-7.31691 3.68954,-1.43574 7.75359,-2.21142 10.88194,-4.76241 1.93138,-2.18568 3.31163,-4.57777 0.83434,-6.99418 -2.95108,-2.23691 -6.34386,-3.81448 -9.71103,-5.32738 -2.16692,-1.01348 -6.04627,-2.13085 -6.15554,-4.93793 1.49379,-2.88438 6.25465,-2.25794 8.81045,-3.47397 4.67492,-1.69191 9.40617,-3.40244 13.81689,-5.68786 2.71353,-1.54526 3.49839,-3.35792 0.6842,-5.42026 -2.5654,-1.60891 -5.26153,-3.30611 -6.99478,-5.83612 -1.19044,-3.89655 4.04387,-4.97396 6.66514,-6.29712 5.62358,-2.04643 11.19434,-4.27016 17.01181,-5.7208 2.7624,-1.0116 5.63175,-2.0281 0.59663,-2.96262 -6.92003,-0.42024 -13.81667,-1.1744 -20.57626,-2.77755 -7.94401,-1.78537 -15.9203,-3.40194 -23.85108,-5.243 -4.12966,-1.22501 -8.47578,-2.5975 -12.0667,-5.01654 0.0457,-2.67994 6.32137,-1.65637 8.01096,-2.29479 3.69254,-0.66565 7.08173,-2.03997 10.66261,-3.07491 2.5091,-0.82229 4.97678,-1.86311 7.26101,-3.17132 1.75492,-3.26205 0.9285,-7.61623 2.21706,-11.07524 1.19215,-6.9132 0.81276,-13.88105 0.83491,-20.87451 -0.0158,-8.63629 -0.0276,-17.27489 -0.33855,-25.90676 -0.35984,-8.11543 -0.84813,-16.24076 -2.20936,-24.26103 0,0 2.82907,-0.0467 2.82907,-0.0467 z" />
    <path
       style="fill:#000000;fill-opacity:1;stroke:#000000;stroke-width:10;stroke-miterlimit:4;stroke-opacity:1;stroke-dasharray:none"
       id="path3030"
       d="m -21.865019,571.49666 c 10.395283,-3.72329 21.27990054,-5.47282 32.200457,-6.74685 9.916916,-0.99359 19.889429,-1.15242 29.847518,-1.22685 6.752762,-0.0291 13.505567,-0.003 20.258274,0.0256 -0.472844,-0.10095 -1.17139,0.11273 -1.418534,-0.30284 -0.345114,-0.58029 1.34911,-0.58239 1.636691,-1.19325 0.491067,-1.04308 -0.424319,-2.57201 -0.813569,-3.41771 0,0 2.832523,-0.12046 2.832523,-0.12046 l 0,0 c 1.986552,4.4619 -0.219985,5.52952 -5.03479,5.47608 -4.898432,-0.0233 -9.796964,-0.0507 -14.695449,-0.0315 -9.962299,0.0685 -19.938873,0.21784 -29.861519,1.19421 -10.9021009,1.25369 -21.7846164,2.95591 -32.151161,6.70756 0,0 -2.800441,-0.36399 -2.800441,-0.36399 z" />
    <path
       style="fill:#000000;fill-opacity:1;stroke:#000000;stroke-width:10;stroke-miterlimit:4;stroke-opacity:1;stroke-dasharray:none"
       id="path3032"
       d="m -50.158611,526.42727 c 11.91102,0.23066 23.776582,-1.02271 35.661343,-1.70829 15.6699632,-0.14585 31.322724,0.75122 46.98035,1.23689 11.885273,0.34806 23.775855,0.4274 35.665408,0.47115 6.184584,-0.69428 12.349033,-1.58846 18.531318,-2.31603 1.992158,-0.21187 3.985872,-0.42235 5.985829,-0.54683 0.401554,-0.12976 0.293424,0.0287 0.304638,-0.60458 0,0 2.850894,0.004 2.850894,0.004 l 0,0 c -0.0057,0.42243 0.197861,1.02527 -0.335178,1.03057 -2.008788,0.10146 -4.009627,0.32591 -6.010104,0.52609 -8.013035,0.92269 -15.98091,2.39258 -24.079597,2.34117 -11.883409,-0.0462 -23.767842,-0.12955 -35.646856,-0.48174 -13.839211,-0.43371 -27.6739401,-1.23399 -41.520109,-1.24534 -13.714986,0.78772 -27.421212,2.05916 -41.173927,1.73376 0,0 2.785991,-0.44126 2.785991,-0.44126 z" />
    <path
       style="fill:#000000;fill-opacity:1;stroke:#000000;stroke-width:10;stroke-miterlimit:4;stroke-opacity:1;stroke-dasharray:none"
       id="path3034"
       d="m -1.4445071,394.75453 c -0.3873938,8.45328 0.85175244,16.83106 1.70880514,25.2172 1.66744426,7.28646 2.35704226,14.74922 3.78390856,22.07119 1.1470441,7.25295 3.2331932,14.28487 4.4966306,21.51402 1.5471698,7.12043 3.3846128,14.16376 5.0559878,21.25454 1.467811,5.46931 1.385771,11.17979 2.377507,16.71132 0.945729,3.70216 1.847633,7.40737 2.289452,11.20656 0.08296,3.7864 1.850538,5.00587 -2.52378,1.85024 0,0 2.829812,0.002 2.829812,0.002 l 0,0 c -4.351623,3.1447 -2.580715,2.07308 -3.141156,-1.81915 -0.445146,-3.79228 -1.344424,-7.49093 -2.277423,-11.18969 -0.98107,-5.52837 -0.903054,-11.23077 -2.363833,-16.69614 -1.671116,-7.0959 -3.5114879,-14.14431 -5.0540188,-21.27093 -1.2659081,-7.22643 -3.3511178,-14.25804 -4.4991726,-21.50876 -1.41804488,-7.33176 -2.12334515,-14.79914 -3.7747485,-22.09666 -0.8522296,-8.3968 -2.0836417,-16.78233 -1.7332427,-25.24562 0,0 2.8252715,0 2.8252715,0 z" />
    <path
       style="fill:#000000;fill-opacity:1;stroke:#000000;stroke-width:10;stroke-miterlimit:4;stroke-opacity:1;stroke-dasharray:none"
       id="path3046"
       d="m 301.10305,521.41845 c -1.48005,-9.59832 -1.86479,-19.23059 -1.36125,-28.91164 0.59325,-11.91155 4.42552,-22.73825 9.32925,-33.4588 5.77378,-11.39291 15.31128,-19.43656 26.34565,-25.44171 12.98583,-6.00574 26.98425,-5.57911 40.49959,-1.71053 13.48941,4.85213 23.80575,14.52067 32.9546,25.20425 8.26911,9.55105 12.27381,21.02366 14.38211,33.26028 1.33565,11.34289 -2.94722,18.44909 -10.28592,26.51095 -10.0764,9.37171 -22.61031,14.93538 -35.28526,19.80677 -11.69127,4.06097 -24.02192,6.29637 -36.38203,4.19105 -1.86537,-0.31773 -3.60864,-1.14016 -5.41295,-1.71024 -10.14567,-4.77777 -13.21081,-12.14396 -15.76412,-22.46075 0,0 2.77311,-0.0675 2.77311,-0.0675 l 0,0 c 2.55689,10.24739 5.63012,17.50941 15.75035,22.17633 1.46363,0.44979 6.57809,2.2088 8.7315,2.34496 9.45571,0.59788 18.6753,-1.87644 27.56375,-4.80548 12.6513,-4.84485 25.16512,-10.36204 35.24715,-19.68099 7.30739,-7.98921 11.60364,-14.97824 10.27902,-26.25751 -2.10137,-12.19176 -6.09899,-23.60807 -14.3539,-33.11201 -9.14545,-10.64504 -19.45717,-20.26623 -32.94334,-25.04268 -3.36201,-0.94621 -6.6153,-2.46992 -10.08982,-2.82518 -8.48316,-0.86737 -17.18404,1.12712 -24.9077,4.47567 -11.02011,5.93231 -20.54933,13.93027 -26.33043,25.26339 -4.89442,10.68753 -8.72698,21.47509 -9.31426,33.35424 -0.50092,9.66362 -0.12632,19.28175 1.39956,28.8571 0,0 -2.82466,0.0401 -2.82466,0.0401 z" />
    <path
       style="fill:#000000;fill-opacity:1;stroke:#000000;stroke-width:10;stroke-miterlimit:4;stroke-opacity:1;stroke-dasharray:none"
       id="path3048"
       d="m 357.90303,533.21424 c -2.44965,-9.11832 -3.56357,-18.52149 -5.18279,-27.8105 -1.34249,-7.40202 -2.07892,-14.88663 -2.55709,-22.38769 -0.11044,-2.07169 -0.16558,-4.14561 -0.19248,-6.21985 0,0 2.84415,-0.003 2.84415,-0.003 l 0,0 c 0.0166,2.06936 0.0643,4.13853 0.17292,6.20535 0.45042,7.4917 1.18834,14.96505 2.52218,22.35701 1.61796,9.27665 2.71208,18.67632 5.21999,27.76767 0,0 -2.82688,0.091 -2.82688,0.091 z" />
    <path
       style="fill:#000000;fill-opacity:1;stroke:#000000;stroke-width:10;stroke-miterlimit:4;stroke-opacity:1;stroke-dasharray:none"
       id="path3050"
       d="m 339.27009,493.12325 c 1.93887,-6.23036 3.58023,-12.65627 6.45449,-18.53698 3.27254,-4.07968 8.38326,-2.03428 11.66721,0.84911 3.33769,3.21423 6.48846,6.62787 9.89844,9.76679 2.28333,1.62547 4.51411,3.27622 6.90654,4.74303 0,0 -2.81744,0.28777 -2.81744,0.28777 l 0,0 c -2.39019,-1.48469 -4.63695,-3.13876 -6.90671,-4.79823 -3.38879,-3.16 -6.55414,-6.55309 -9.90228,-9.75597 -1.47361,-1.24088 -1.28597,-1.23736 -2.9976,-2.08068 -0.46833,-0.23074 -1.30613,-0.10426 -1.44343,-0.60796 -0.10998,-0.4035 1.42646,-0.47843 1.25074,-0.0989 -0.4723,1.02008 -3.21003,-0.48406 -2.83627,1.82436 -2.912,5.8467 -4.53379,12.27726 -6.44681,18.49867 0,0 -2.82688,-0.091 -2.82688,-0.091 z" />
    <path
       style="fill:#000000;fill-opacity:1;stroke:#000000;stroke-width:10;stroke-miterlimit:4;stroke-opacity:1;stroke-dasharray:none"
       id="path3052"
       d="m 349.98179,383.66772 c -0.15869,9.97002 -0.12516,19.8944 0.79768,29.8247 0.73657,4.51589 0.57456,9.07611 0.44825,13.62432 0,0 -2.79863,-0.008 -2.79863,-0.008 l 0,0 c 0.1268,-4.53676 0.29283,-9.08565 -0.43865,-13.59071 -0.92175,-9.93936 -0.93844,-19.87188 -0.82937,-29.85052 0,0 2.82072,0 2.82072,0 z" />
    <path
       style="fill:#000000;fill-opacity:1;stroke:#000000;stroke-width:10;stroke-miterlimit:4;stroke-opacity:1;stroke-dasharray:none"
       id="path3054"
       d="m 366.78705,551.57898 c -1.33848,8.8076 -1.84056,17.7085 -2.21114,26.6 -0.24567,6.99195 -0.29702,13.98845 -0.32622,20.98398 0,0 -2.80888,-10e-4 -2.80888,-10e-4 l 0,0 c 0.0365,-6.99905 0.0979,-13.99885 0.34046,-20.99437 0.37515,-8.90231 0.88502,-17.81039 2.17672,-26.63502 0,0 2.82906,0.0467 2.82906,0.0467 z" />
    <path
       style="fill:#000000;fill-opacity:1;stroke:#000000;stroke-width:10;stroke-miterlimit:4;stroke-opacity:1;stroke-dasharray:none"
       id="path3056"
       d="m 323.92771,57.631712 c -2.54231,11.25753 -3.68068,22.75065 -4.55756,34.236904 -0.34443,4.778402 -0.52405,9.565634 -0.69307,14.352564 0,0 -2.80387,-0.0103 -2.80387,-0.0103 l 0,0 c 0.18323,-4.79048 0.37157,-9.581474 0.72086,-14.36353 0.88656,-11.489265 2.02493,-22.983043 4.50898,-34.255722 0,0 2.82466,0.04008 2.82466,0.04008 z" />
    <path
       style="fill:#000000;fill-opacity:1;stroke:#000000;stroke-width:10;stroke-miterlimit:4;stroke-opacity:1;stroke-dasharray:none"
       id="path3058"
       d="m 379.35407,107.82934 c -7.28096,4.10163 -15.0335,7.65883 -23.48895,7.82775 -10.11678,-0.53799 -12.67632,-4.72481 -10.47219,-14.20834 3.61321,-9.814841 11.4309,-16.932716 20.03215,-22.441622 8.72557,-3.81918 17.2404,-6.277892 25.13082,0.653294 4.3243,6.023927 4.99285,13.180569 4.37681,20.345048 0,0 -2.81322,-0.02434 -2.81322,-0.02434 l 0,0 c 0.61862,-7.075469 -0.0215,-14.168668 -4.36633,-20.079715 -7.15483,-6.090263 -11.18088,-4.215011 -19.55646,-0.615138 -8.57727,5.429508 -16.37593,12.486056 -20.00037,22.226813 -0.92109,3.92381 -1.78304,8.80764 1.93977,11.77029 3.66621,2.91761 1.8873,0.039 2.9529,1.9376 8.44202,-0.0439 16.20999,-3.58036 23.45577,-7.70395 0,0 2.8093,0.31231 2.8093,0.31231 z" />
    <path
       style="fill:#000000;fill-opacity:1;stroke:#000000;stroke-width:10;stroke-miterlimit:4;stroke-opacity:1;stroke-dasharray:none"
       id="path3060"
       d="m 171.81506,234.47827 c -4.0308,7.97206 -6.78664,16.36372 -8.66545,25.07222 -0.94377,4.70478 -1.5456,9.47942 -1.77983,14.27209 -0.005,0.1166 -0.0108,0.23319 -0.0162,0.34978 0,0 -2.85244,-0.017 -2.85244,-0.017 l 0,0 c 0.008,-0.11582 0.017,-0.23163 0.0255,-0.34745 0.26208,-4.80743 0.87052,-9.59764 1.82574,-14.3169 1.88528,-8.72652 4.64155,-17.13559 8.63915,-25.14374 0,0 2.82356,0.13101 2.82356,0.13101 z" />
    <path
       style="fill:#000000;fill-opacity:1;stroke:#000000;stroke-width:10;stroke-miterlimit:4;stroke-opacity:1;stroke-dasharray:none"
       id="path3062"
       d="m 206.30849,249.6486 c 4.99054,0.71534 10.59775,2.38443 12.83514,7.277 1.13546,3.84587 -0.63368,7.40646 -1.87056,10.98714 -1.15834,3.2444 -0.49397,5.25586 2.6566,6.46563 3.17319,1.57497 6.58423,2.51139 10.0706,3.05329 2.50835,0.23397 4.803,1.5159 7.05976,2.58183 0.84909,0.29221 3.07511,1.26559 -0.43492,-0.36183 0,0 2.82687,0.25741 2.82687,0.25741 l 0,0 c -2.74751,0.64095 -3.28231,1.43771 -5.21973,0.42535 -2.24874,-1.05912 -4.52854,-2.29189 -7.03794,-2.50406 -3.49193,-0.57943 -6.89393,-1.55421 -10.08425,-3.11581 -3.18165,-1.34978 -3.82511,-3.61951 -2.6689,-6.89626 1.21723,-3.50572 2.99312,-7.00175 1.87432,-10.76878 -2.29298,-4.78029 -7.91271,-6.29466 -12.80853,-7.0045 0,0 2.80154,-0.39641 2.80154,-0.39641 z" />
    <path
       style="fill:#000000;fill-opacity:1;stroke:#000000;stroke-width:10;stroke-miterlimit:4;stroke-opacity:1;stroke-dasharray:none"
       id="path3064"
       d="m 508.52771,256.27232 c 3.60597,-4.96806 8.55665,-8.64249 13.73066,-11.83167 4.71089,-3.09307 10.33889,-2.32431 13.90081,1.90957 2.45245,4.23381 0.68951,8.80668 -1.26354,12.85172 -2.84923,4.84624 -5.91445,9.53862 -9.32753,14.00536 -0.72574,1.53795 -4.68494,5.38437 -2.35143,6.95492 3.54651,1.11514 6.6919,0.33865 10.0272,-0.16016 5.56927,-0.92312 11.17332,-1.56901 16.8049,-1.93769 2.62344,-0.13549 5.24997,-0.2162 7.8769,-0.2309 0.0501,-0.0596 0.10027,-0.11924 0.1504,-0.17886 0,0 2.8491,0.13206 2.8491,0.13206 l 0,0 c -0.0615,0.1639 -0.123,0.3278 -0.18449,0.4917 -2.63344,0.003 -5.26653,0.0839 -7.89677,0.21032 -5.63428,0.35578 -11.24248,0.98321 -16.81313,1.91195 -5.0848,0.77904 -10.62827,1.48331 -15.64976,0.0112 -2.19331,-2.15853 1.36204,-5.43984 2.36885,-7.38911 3.41737,-4.44446 6.47385,-9.12122 9.32478,-13.94839 1.91928,-3.93092 3.7176,-8.41276 1.25959,-12.52311 -3.14305,-3.57149 -4.50054,-4.23139 -8.27055,-1.82296 -5.1702,3.14008 -10.13077,6.78626 -13.71444,11.73472 0,0 -2.82155,-0.19067 -2.82155,-0.19067 z" />
    <path
       style="fill:#000000;fill-opacity:1;stroke:#000000;stroke-width:10;stroke-miterlimit:4;stroke-opacity:1;stroke-dasharray:none"
       id="path3066"
       d="m 759.0029,441.1546 c -7.03056,0.0953 -14.19325,0.77076 -21.05256,2.37896 -4.04195,0.92462 -7.27631,2.5753 -9.37552,6.21741 -1.00886,2.86022 -1.82034,5.97922 -1.16759,8.99091 0.922,3.52667 2.6342,2.83313 4.89149,4.22071 0.27212,0.16727 -0.63679,-0.0509 -0.95519,-0.0763 4.67621,-1.07533 9.33968,-1.27489 14.07706,-0.47962 3.58821,0.33681 6.37205,2.6101 9.28365,4.50346 3.16573,1.65266 4.58731,4.45824 6.38667,7.30193 2.25328,3.19975 1.76712,6.00639 0.38799,9.43669 -1.99563,4.45929 -5.24848,7.7025 -9.18517,10.47177 -6.05633,3.75765 -12.68796,5.38253 -19.73495,5.75351 -2.56001,-0.0264 -5.12002,-0.0528 -7.68004,-0.0792 0,0 2.75798,-0.43205 2.75798,-0.43205 l 0,0 c 0.71879,0.0289 1.43757,0.0579 2.15636,0.0868 7.03016,-0.30692 13.62685,-1.90596 19.692,-5.6002 3.92635,-2.70913 7.16675,-5.89827 9.1635,-10.30928 1.36208,-3.36267 1.84662,-6.03508 -0.39008,-9.16952 -1.75842,-2.84044 -3.25478,-5.54135 -6.37526,-7.17933 -2.8991,-1.89201 -5.68805,-4.07784 -9.26861,-4.3868 -3.96169,-0.63308 -3.61651,-0.42129 -8.47256,0.51898 -4.20332,0.002 -8.20116,0.16825 -9.57178,-4.52237 -0.64003,-3.09037 0.15423,-6.25498 1.17378,-9.19609 2.07847,-3.73605 5.29339,-5.49783 9.41386,-6.44681 6.84496,-1.66658 14.02947,-2.30458 21.05448,-2.44557 0,0 2.79049,0.44197 2.79049,0.44197 z" />
    <path
       style="fill:#000000;fill-opacity:1;stroke:#000000;stroke-width:10;stroke-miterlimit:4;stroke-opacity:1;stroke-dasharray:none"
       id="path3068"
       d="m 429.22124,463.25078 c 7.04289,-1.96974 14.17864,-3.46696 21.4097,-4.53496 5.79237,-0.61619 11.78239,-1.44172 17.51991,-0.0456 3.56216,1.55896 2.76677,4.37744 0.88283,7.02662 -2.08934,3.31319 -5.45816,5.35102 -8.45798,7.71906 -2.96994,2.89608 -0.16502,5.89563 1.87953,8.38657 2.55289,2.44205 3.72431,5.37373 4.34336,8.76567 0.62212,3.78956 -1.31328,7.15218 -3.32655,10.2052 -3.4152,4.17865 -8.26091,6.40156 -13.07998,8.53734 -3.40368,1.75853 -6.05861,1.35336 -9.89667,1.16776 0,0 2.79541,-0.41153 2.79541,-0.41153 l 0,0 c -1.58863,0.97065 4.31737,-0.74504 4.3017,-1.08129 4.79301,-2.09756 9.61346,-4.28172 13.05554,-8.3779 1.98911,-2.9795 3.93063,-6.27208 3.315,-9.98822 -0.61557,-3.35137 -1.82621,-6.20506 -4.33085,-8.6235 -2.12719,-2.6218 -4.8814,-5.78855 -1.87434,-8.83396 2.96143,-2.37695 6.36862,-4.3461 8.4459,-7.64362 1.87162,-2.50567 2.62556,-5.08994 -0.8588,-6.47035 -0.62972,-0.1446 -1.32195,-0.12441 -1.88918,-0.43379 -0.18892,-0.10304 0.79604,-0.2555 0.58214,-0.2791 -3.49192,-0.38526 -7.14502,0.68278 -10.62112,0.78044 -7.22764,1.05 -14.37159,2.50239 -21.39401,4.53159 0,0 -2.80154,-0.39642 -2.80154,-0.39642 z" />
    <path
       style="fill:#000000;fill-opacity:1;stroke:#000000;stroke-width:10;stroke-miterlimit:4;stroke-opacity:1;stroke-dasharray:none"
       id="path3070"
       d="m -123.50238,511.01066 c -7.01769,4.91042 -14.27278,9.491 -21.75512,13.65991 -4.58201,2.80622 -9.92351,3.8245 -14.56563,6.48248 -3.26818,2.5524 -4.08578,5.52965 -2.74369,9.36889 1.24802,3.79333 3.27076,7.22092 4.79484,10.88764 0.55573,1.36664 1.07534,3.27738 2.29106,4.275 0.2952,0.24224 1.4318,0.33502 1.0619,0.42984 -0.57398,0.14712 -1.44238,0.2494 -1.75981,-0.25094 -0.24512,-0.38637 0.84654,-0.34761 1.26981,-0.52141 3.2963,-2.12381 5.45438,-5.42653 8.24046,-8.09567 3.30137,-2.49556 6.36431,-4.67107 10.59628,-4.83695 5.03118,0.092 8.6421,1.80108 11.89514,5.49564 2.50373,3.6177 2.39471,7.51813 1.06899,11.52515 -1.56824,5.06879 -4.84731,9.19925 -8.54689,12.8883 -3.57142,2.76471 -6.67211,6.21172 -11.30084,6.89218 0,0 -2.80628,-0.40717 -2.80628,-0.40717 l 0,0 c 4.66063,-0.53255 7.70844,-3.96349 11.2942,-6.70739 3.68775,-3.64613 6.97762,-7.72152 8.53378,-12.75704 1.31857,-3.91106 1.43227,-7.71779 -1.06882,-11.22839 -1.29134,-1.44001 -2.46694,-2.63722 -4.21,-3.53308 -1.02955,-0.52914 -2.69118,-0.27784 -3.21639,-1.3094 -0.18617,-0.36566 0.77069,-0.28195 1.15603,-0.42293 -4.2507,0.0536 -7.2429,2.16175 -10.57465,4.63072 -2.83402,2.65522 -4.97999,5.98819 -8.24147,8.19515 -4.70767,2.14486 -7.20353,0.24308 -8.51041,-4.14951 -1.54281,-3.66416 -3.54494,-7.10977 -4.79731,-10.90602 -1.3387,-3.9609 -0.55561,-7.0643 2.76038,-9.75724 4.61694,-2.73531 9.98979,-3.68955 14.59163,-6.48556 7.48499,-4.14216 14.73874,-8.71309 21.73213,-13.63933 0,0 2.81068,0.27713 2.81068,0.27713 z" />
    <path
       style="fill:#000000;fill-opacity:1;stroke:#000000;stroke-width:10;stroke-miterlimit:4;stroke-opacity:1;stroke-dasharray:none"
       id="path3072"
       d="m -63.502383,562.43923 c -5.430027,3.15933 -12.174979,6.13287 -18.670524,5.53014 -2.097169,-0.1946 -4.147461,-0.73655 -6.221192,-1.10483 -7.159486,-3.54829 -10.629213,-9.82877 -11.666071,-17.50327 -0.6735,-7.15615 2.278604,-12.84871 7.293789,-17.67925 5.411744,-4.28329 11.780431,-4.95014 18.422729,-4.82491 5.171398,1.12922 8.607494,4.02054 10.888193,8.69608 1.607447,3.70633 1.930493,7.7622 2.079577,11.75184 -0.416798,1.47944 -0.0309,0.85839 -1.13312,1.87819 0,0 -2.832101,-0.24982 -2.832101,-0.24982 l 0,0 c 1.09884,-0.79951 0.708678,-0.26998 1.129791,-1.61779 -0.147394,-3.95147 -0.455573,-7.96675 -2.065569,-11.6331 -2.284714,-4.58498 -5.742452,-7.39692 -10.859163,-8.39654 1.10492,-0.35797 1.107368,-0.33495 -2.119024,0.24778 -2.858663,0.51632 -5.664264,1.25611 -8.212714,2.70115 -0.870695,0.49371 -1.661624,1.11644 -2.492436,1.67466 -5.008587,4.72933 -7.957283,10.3312 -7.290168,17.41381 1.034714,7.58856 4.512733,13.77229 11.64284,17.18556 0.219466,0.34485 0.257843,0.95305 0.658397,1.03454 5.401514,1.09882 14.119233,-2.68773 18.636084,-5.38137 0,0 2.810682,0.27713 2.810682,0.27713 z" />
  </g>
</svg>
