<?xml version="1.0" encoding="UTF-8" standalone="no"?>
<!-- Created with Inkscape (http://www.inkscape.org/) -->

<svg
   xmlns:dc="http://purl.org/dc/elements/1.1/"
   xmlns:cc="http://creativecommons.org/ns#"
   xmlns:rdf="http://www.w3.org/1999/02/22-rdf-syntax-ns#"
   xmlns:svg="http://www.w3.org/2000/svg"
   xmlns="http://www.w3.org/2000/svg"
   xmlns:sodipodi="http://sodipodi.sourceforge.net/DTD/sodipodi-0.dtd"
   xmlns:inkscape="http://www.inkscape.org/namespaces/inkscape"
   width="1421.3944"
   height="821.21973"
   id="svg2947"
   version="1.1"
   inkscape:version="0.47pre4 r22446"
   sodipodi:docname="New document 4">
  <defs
     id="defs2949">
    <inkscape:perspective
       sodipodi:type="inkscape:persp3d"
       inkscape:vp_x="0 : 526.18109 : 1"
       inkscape:vp_y="0 : 1000 : 0"
       inkscape:vp_z="744.09448 : 526.18109 : 1"
       inkscape:persp3d-origin="372.04724 : 350.78739 : 1"
       id="perspective2955" />
  </defs>
  <sodipodi:namedview
     id="base"
     pagecolor="#ffffff"
     bordercolor="#666666"
     borderopacity="1.0"
     inkscape:pageopacity="0.0"
     inkscape:pageshadow="2"
     inkscape:zoom="0.35"
     inkscape:cx="875.69607"
     inkscape:cy="325.29849"
     inkscape:document-units="px"
     inkscape:current-layer="layer1"
     showgrid="false"
     inkscape:window-width="1280"
     inkscape:window-height="726"
     inkscape:window-x="0"
     inkscape:window-y="25"
     inkscape:window-maximized="1" />
  <metadata
     id="metadata2952">
    <rdf:RDF>
      <cc:Work
         rdf:about="">
        <dc:format>image/svg+xml</dc:format>
        <dc:type
           rdf:resource="http://purl.org/dc/dcmitype/StillImage" />
        <dc:title></dc:title>
      </cc:Work>
    </rdf:RDF>
  </metadata>
  <g
     inkscape:label="Layer 1"
     inkscape:groupmode="layer"
     id="layer1"
     transform="translate(500.69607,-36.44096)">
    <path
       style="fill:#000000;fill-opacity:1;stroke:#000000;stroke-width:10;stroke-miterlimit:4;stroke-opacity:1;stroke-dasharray:none"
       id="path2957"
       d="m -231.47123,513.08576 c 7.35059,-10.88186 17.60154,-19.00163 28.0833,-26.66366 13.5003,-9.52609 29.17306,-14.48804 45.48664,-16.01193 13.09757,-0.38678 26.30456,1.66495 37.0924,9.65229 1.89376,1.40214 3.53496,3.11663 5.30244,4.67494 12.22813,12.81033 15.49073,23.45901 15.528198,40.8514 -1.978078,20.94145 -10.756058,35.01687 -24.431338,50.36284 -13.80656,13.245 -30.90115,22.04364 -49.50957,26.40225 -4.2979,1.00668 -8.69281,1.54154 -13.03922,2.31232 -23.5676,2.75669 -48.11085,2.35408 -71.06666,-4.30707 -3.94831,-1.14569 -7.74591,-2.75822 -11.61886,-4.13732 -11.31809,-5.07911 -23.60871,-11.91538 -26.60704,-25.12169 -1.64826,-7.25987 -0.0703,-9.54682 1.83471,-16.54488 8.16196,-17.86964 24.26823,-28.74978 40.56989,-38.49815 0,0 2.66895,0.27657 2.66895,0.27657 l 0,0 c -16.25583,9.6909 -32.32406,20.5116 -40.49842,38.29466 -1.89506,6.91535 -3.4693,9.18719 -1.82914,16.36486 2.9977,13.11851 15.30017,19.86386 26.53372,24.89833 3.86776,1.36937 7.66099,2.971 11.60329,4.10812 21.28153,6.1385 43.89178,7.09856 65.7548,4.29347 4.34162,-0.76124 8.73134,-1.28629 13.02486,-2.28372 18.5801,-4.31632 35.65787,-13.06613 49.46489,-26.25584 13.6536,-15.27628 22.43016,-29.28485 24.39434,-50.1641 -0.0444,-17.32627 -3.31444,-27.89037 -15.53061,-40.61731 -1.7662,-1.54263 -3.4077,-3.24092 -5.29859,-4.62788 -9.15358,-6.71412 -20.43258,-9.40386 -31.62113,-9.52836 -16.2983,1.45456 -31.9693,6.37742 -45.4694,15.86447 -10.45519,7.62656 -20.70182,15.70311 -28.00302,26.57136 0,0 -2.81943,-0.16597 -2.81943,-0.16597 z" />
    <path
       style="fill:#000000;fill-opacity:1;stroke:#000000;stroke-width:10;stroke-miterlimit:4;stroke-opacity:1;stroke-dasharray:none"
       id="path2959"
       d="m -158.58964,500.81058 c -0.40893,8.82845 -2.15247,17.45134 -4.88139,25.8341 0,0 -2.80572,-0.0888 -2.80572,-0.0888 l 0,0 c 2.74586,-8.34701 4.49602,-16.94236 4.86639,-25.74533 0,0 2.82072,0 2.82072,0 z" />
    <path
       style="fill:#000000;fill-opacity:1;stroke:#000000;stroke-width:10;stroke-miterlimit:4;stroke-opacity:1;stroke-dasharray:none"
       id="path2961"
       d="m -184.78384,520.71263 c 7.04177,0.45476 13.86753,-0.28849 20.809,-1.27314 1.006,-0.14255 2.012,-0.28509 3.018,-0.42764 0,0 2.78775,0.40147 2.78775,0.40147 l 0,0 c -1.00756,0.14223 -2.01511,0.28446 -3.02266,0.42669 -8.75533,1.25234 -17.54339,1.53719 -26.38258,1.31459 0,0 2.79049,-0.44197 2.79049,-0.44197 z" />
    <path
       style="fill:#000000;fill-opacity:1;stroke:#000000;stroke-width:10;stroke-miterlimit:4;stroke-opacity:1;stroke-dasharray:none"
       id="path2963"
       d="m -207.64098,566.42691 c 9.14469,-0.37996 18.20817,0.34936 27.28982,1.31069 1.3968,0.1421 2.79359,0.2842 4.19039,0.4263 0,0 -2.77089,0.41004 -2.77089,0.41004 l 0,0 c -1.39527,-0.14267 -2.79053,-0.28535 -4.1858,-0.42802 -9.08931,-0.95962 -18.1631,-1.64987 -27.31401,-1.27704 0,0 2.79049,-0.44197 2.79049,-0.44197 z" />
    <path
       style="fill:#000000;fill-opacity:1;stroke:#000000;stroke-width:10;stroke-miterlimit:4;stroke-opacity:1;stroke-dasharray:none"
       id="path2965"
       d="m -141.7541,472.84702 c -1.85899,-10.84152 -1.49616,-21.75859 -0.52716,-32.6596 1.50213,-17.77098 5.3811,-35.21852 8.76826,-52.69705 3.15744,-16.81964 6.23258,-33.63336 8.05862,-50.65658 0.34674,-7.74117 1.9897,-15.31994 3.32222,-22.9271 0.20485,-2.66856 -0.93347,-5.05248 -1.61081,-7.55323 0.42958,-3.06444 4.50459,-2.54483 6.81328,-2.67471 8.87644,0.0256 17.681692,-1.18814 26.522141,-1.84941 13.037694,-0.43498 26.026289,-1.33179 39.02873,-2.361 13.458346,-1.41404 26.830446,-3.46963 40.254866,-5.14523 10.71275533,-1.28655 21.490198,-1.81836 32.269082,-2.11407 5.65148,-0.13033 11.304982,-0.12089 16.957533,-0.0979 4.362815,-0.0964 1.566866,0.58447 0.22242,-0.84052 -0.188518,-0.19982 0.710629,-2.76911 0.73219,-2.83573 1.15956,-5.49154 2.979636,-10.79618 4.683439,-16.13647 2.165121,-6.9496 4.048269,-13.97476 6.1096,-20.95679 1.652929,-4.75303 2.041885,-9.77826 3.684923,-14.52176 -0.30153,-0.12006 3.881256,-13.47453 4.957757,-2.85851 0.571061,7.55309 -0.488839,15.04581 -1.20269,22.54789 -1.474139,11.05045 -3.462977,22.0451 -5.91418,32.92012 -1.98797,7.60976 -2.561606,15.49008 -4.736534,23.04474 -1.885684,4.81868 -0.206603,5.82913 -5.098905,4.18418 0.06949,-5.36259 2.02112,-10.73105 3.57454,-15.8366 2.390852,-9.60938 5.90435,-18.87119 9.097408,-28.22583 2.038226,-6.91169 4.551327,-13.66504 6.267815,-20.66945 1.109568,-3.45987 3.192,-10.12665 7.659853,-3.45852 1.659047,6.46176 2.33287,13.22369 3.161982,19.85741 1.087697,9.14031 1.297582,18.35197 1.461487,27.5457 -0.367421,6.72014 0.578652,13.29076 1.818652,19.86439 -2.67599,-1.73871 1.178276,2.15844 0.620413,1.83398 -0.677112,-0.39382 -1.729131,-0.61717 -1.901042,-1.38138 -0.177403,-0.78863 0.808187,-1.40678 1.104676,-2.15878 0.413216,-1.04805 2.096163,-6.83246 2.304325,-7.53524 3.80835,-12.89978 8.121909,-25.63761 12.16094,-38.46616 3.267028,-10.58142 7.826079,-20.67795 12.176269,-30.83899 0.99143,-3.75492 5.1658,-9.34677 8.4893,-3.55069 2.74107,7.81347 2.70126,16.32109 3.0062,24.50673 0.3291,12.47584 0.30053,24.95778 0.30861,37.43698 -0.40348,7.98899 0.27063,15.87867 1.71654,23.72515 -2.24345,-1.13444 2.12141,3.10945 1.43256,2.45777 -0.51675,-0.48887 -1.44106,-0.80406 -1.50551,-1.51248 -0.0793,-0.87134 0.82111,-1.54843 1.15336,-2.35783 1.30133,-3.17018 1.53953,-4.544 2.45751,-7.97142 3.05346,-13.26656 7.15637,-26.23954 11.80689,-39.02277 3.85961,-9.33492 8.17694,-18.5398 13.31587,-27.24698 1.84737,-2.61552 3.40143,-3.91689 6.32111,-0.39835 0.51881,0.62523 0.20618,1.61224 0.34251,2.41318 0.1522,0.89425 0.34851,1.78043 0.52277,2.67064 1.41409,7.11381 1.887,14.34919 2.18191,21.58029 0.24763,7.86173 0.25084,15.72864 0.25922,23.59349 0.003,3.95672 -0.001,7.91345 -6.1e-4,11.87018 0.11236,0.0431 0.45238,0.16394 0.33709,0.1294 -0.69109,-0.20704 -1.62368,-0.0767 -2.06528,-0.64713 -0.11344,-0.14655 3.65604,-2.86616 4.0681,-3.19561 2.4763,-2.03006 5.31777,-3.00265 8.43472,-3.47346 4.08076,-0.66043 8.03845,-1.83503 12.15004,-2.4289 6.04799,-1.51891 12.19659,-2.46801 18.2661,-3.8907 7.04052,-1.3083 14.10318,-2.50503 21.16918,-3.70038 6.55656,-0.95046 12.96003,-2.65729 19.49962,-3.73201 4.17672,-0.63532 8.40137,-0.81701 12.61956,-0.89026 2.44126,-0.15666 4.93567,0.23687 7.36434,-0.0143 0.44019,-0.0455 -1.34031,0.13354 -1.29178,-0.30633 0.001,-0.0125 1.95824,-0.63846 2.86274,-0.92889 2.74941,-0.9713 5.64408,-1.30525 8.53598,-1.49016 3.81515,-0.1671 7.63709,-0.12221 11.45486,-0.12068 1.88877,0.008 3.77755,0.0127 5.66633,0.0155 4.49665,-0.19272 -0.0284,-0.14868 5.97908,-1.6828 4.36844,-0.97637 8.86991,-1.02947 13.3246,-1.12923 6.40119,-0.65064 12.59936,-2.36101 18.87986,-3.66021 8.22303,-1.3116 16.4833,-2.44037 24.65729,-4.04784 9.26004,-1.58347 18.40615,-3.7424 27.7005,-5.12793 8.62235,-1.89447 17.3342,-3.14813 26.13122,-3.81725 8.80637,-1.35447 17.63237,-2.37349 26.52652,-2.89443 11.35459,-0.51014 22.72438,-0.48933 34.08784,-0.51121 14.40365,-0.01 28.8073,0.006 43.21095,0.0135 13.8098,0.007 27.61961,0.008 41.42942,0.009 12.78343,-0.036 25.533,-1.36051 38.29771,-2.06339 10.9106,-0.39515 21.72447,-1.99988 32.60447,-2.85047 7.62574,-0.3304 15.12709,-1.85542 22.68021,-2.86358 3.51635,-0.0337 9.36557,-2.16876 12.24889,0.44717 2.66336,2.86121 2.69551,7.05844 2.94248,10.7433 -0.82454,7.64032 -1.37734,15.32915 -2.44624,22.93988 -1.51481,8.77642 -2.30774,17.6358 -2.75336,26.52277 -0.30172,6.98205 -0.32726,13.9715 -0.33484,20.95876 0.16388,5.17736 -1.33672,10.19887 -2.04572,15.29752 5.39641,191.65494 2.36657,154.27248 -10.78748,274.41296 -0.59782,4.75069 -2.28172,9.3484 -4.15823,13.73716 -1.415,4.33153 -3.2943,8.50714 -4.51957,12.90025 -0.94035,3.94622 -2.32281,7.79078 -4.1934,11.39042 -1.38102,3.52373 -3.22897,6.77282 -5.19928,9.9873 -3.34911,5.04696 -4.44554,10.9441 -5.84855,16.71191 -1.68822,6.43855 -2.50206,13.0347 -2.95074,19.66026 0.27825,5.12364 1.19366,10.19698 2.85488,15.04845 1.10232,4.38165 2.95678,8.51152 4.13727,12.86626 1.86887,4.9903 2.98414,10.19575 4.45514,15.30769 1.42336,5.0155 2.10647,10.17387 2.42061,15.36362 0.20015,4.39453 0.19302,8.79444 0.18649,13.19239 -0.14014,3.36097 0.31017,6.77135 -0.36628,10.07889 -1.02149,3.46185 -1.78007,6.98138 -2.19835,10.56521 -0.30993,3.47229 -0.32553,6.96069 -0.34108,10.44386 0.13614,4.61285 -0.34928,9.26732 0.35137,13.83887 1.11663,4.15322 1.32217,8.52503 2.54399,12.63842 0.77794,3.21335 2.53748,6.10736 3.49159,9.22281 0.31916,2.31465 -2.88647,3.08931 -4.58713,3.7778 -4.5861,1.46979 -9.48167,1.40343 -14.24682,1.5275 -9.43028,0.12815 -18.86211,0.0874 -28.29302,0.0792 -12.19072,1.27411 -24.44421,1.87599 -36.6907,2.31401 -15.82084,0.46606 -31.64982,0.49811 -47.47613,0.5312 -18.0927,0.15567 -36.159,0.13076 -54.22789,-0.82417 -18.72826,-1.00765 -37.4665,-1.48554 -56.18426,-2.68278 -19.35361,-0.91569 -38.64727,-2.68541 -57.9898,-3.78482 -20.44043,-0.98999 -40.83937,-2.56129 -61.29167,-3.35567 -21.15539,-0.57673 -42.30275,-0.64112 -63.445,-1.62934 -21.02366,-1.25893 -42.04207,-1.67525 -63.0876,-1.04266 -23.56009,0.49466 -47.080452,1.7157 -70.609172,2.95691 -21.902423,1.13114 -43.832687,1.49459 -65.7600007,1.69818 -18.4351183,-0.2865 -36.8222473,0.387 -55.2231723,1.39007 -15.933644,0.88949 -31.888965,1.24653 -47.843825,1.45644 -11.72206,0.12839 -23.44496,0.11668 -35.16752,0.11378 -9.29526,-0.007 -18.59052,-0.0126 -27.88578,-0.0153 -6.65606,0.39888 -13.11494,-0.13317 -19.64307,-1.3197 -4.04297,-0.86785 -8.161,-1.23734 -12.28268,-1.45019 -3.40112,0.0256 -6.65722,0.008 -9.62806,-1.81586 -3.81281,-2.02581 -5.01083,-6.19224 -6.4391,-9.98345 -3.0577,-6.49895 -4.16157,-13.66057 -5.63879,-20.63159 -1.7741,-9.02303 -2.24656,-18.22176 -2.54421,-27.39064 -0.37597,-9.69281 -0.24446,-19.33907 0.64484,-28.99417 0.74513,-11.03552 2.44917,-21.96315 3.60984,-32.95677 0.68838,-8.58888 2.38403,-17.04749 3.36623,-25.60407 0.25795,-7.19018 1.11204,-14.2724 2.11304,-21.38885 0.92951,-6.44598 1.27848,-12.94923 1.46344,-19.45249 0.12133,-5.77235 0.10415,-11.54641 0.099,-17.31969 -0.36077,-5.54313 0.18831,-10.91269 1.2747,-16.33257 0.81265,-3.92343 1.2692,-7.89623 1.46243,-11.89405 0.15486,-4.61074 0.11845,-9.22572 0.12443,-13.83838 0,0 2.80893,-1.4e-4 2.80893,-1.4e-4 l 0,0 c 0.0105,4.61707 0.0609,9.23695 -0.10147,13.85204 -0.18966,4.01284 -0.65518,7.99869 -1.47011,11.93654 -1.08814,5.40187 -1.64606,10.74934 -1.2798,16.27631 0.005,5.77605 0.022,11.5529 -0.10099,17.32799 -0.1872,6.51382 -0.54024,13.02737 -1.4723,19.48367 -0.99991,7.11406 -1.85695,14.19389 -2.11176,21.38186 -0.98985,8.55581 -2.69392,17.0128 -3.39041,25.60124 -1.16854,10.99136 -2.86515,21.91862 -3.60748,32.95291 -0.88458,9.64359 -1.01192,19.27865 -0.63629,28.95951 0.29892,9.15259 0.76345,18.33604 2.54782,27.34122 1.47742,6.95975 2.59985,14.10264 5.66064,20.588 1.42988,3.76165 2.62782,7.81657 6.43776,9.79192 2.9955,1.69778 6.24358,1.67776 9.60957,1.68099 4.12019,0.22593 8.23311,0.62116 12.27479,1.48744 6.515,1.17958 12.97525,1.63563 19.61206,1.27344 9.29355,0.004 18.58709,0.009 27.88063,0.0161 9.89248,0.008 19.78516,-0.005 29.67721,-0.10624 15.962576,-0.20383 31.925767,-0.55393 47.867227,-1.44125 18.408056,-1.00358 36.801393,-1.69913 55.2440752,-1.39934 21.9332368,-0.19944 43.8695658,-0.55626 65.7781008,-1.68345 23.527161,-1.23882 47.045177,-2.47121 70.603737,-2.96387 22.83049,-0.69579 45.64068,-0.30199 68.44597,1.04599 21.14346,0.98372 42.2928,1.03581 63.44881,1.62666 20.45426,0.79992 40.85566,2.37319 61.29866,3.35955 19.34373,1.10542 38.63994,2.86737 57.99503,3.78591 18.71979,1.19352 37.46091,1.66402 56.19062,2.67872 16.26415,0.85215 32.52232,0.98832 48.80816,0.80872 15.8229,-0.0326 31.64844,-0.0632 47.466,-0.52345 14.07777,-0.49862 28.10483,-1.61997 42.16874,-2.32831 7.58571,0.005 15.17204,0.0324 22.75718,-0.0768 4.75028,-0.11708 9.62111,-0.0466 14.21226,-1.43086 1.51846,-0.6009 4.78511,-1.32784 4.56359,-3.35551 -0.97829,-3.11186 -2.69074,-6.01747 -3.48168,-9.22727 -1.20399,-4.13183 -1.42927,-8.50879 -2.53967,-12.67685 -0.69005,-4.58761 -0.21809,-9.25461 -0.35781,-13.88253 0.0112,-3.49387 0.0332,-6.99237 0.33951,-10.47555 0.41522,-3.5923 1.17395,-7.12136 2.19856,-10.59064 0.69629,-3.28239 0.20739,-6.68226 0.36958,-10.02113 0.007,-4.39201 0.0209,-8.78619 -0.18033,-13.17481 -0.3153,-5.16847 -0.99036,-10.30791 -2.41375,-15.30174 -1.47314,-5.11337 -2.59431,-10.31937 -4.46394,-15.31155 -1.18869,-4.3455 -3.02857,-8.47526 -4.13578,-12.84867 -1.6563,-4.89138 -2.57982,-9.99872 -2.84583,-15.16028 0.45136,-6.64136 1.26877,-13.25295 2.95559,-19.70813 1.40285,-5.79332 2.49731,-11.71754 5.83393,-16.80021 1.96045,-3.21321 3.83603,-6.43917 5.19633,-9.96836 1.87898,-3.57582 3.25729,-7.40205 4.19581,-11.33066 1.21826,-4.40888 3.11413,-8.59055 4.52217,-12.93826 1.87867,-4.35906 3.55575,-8.93545 4.15516,-13.65781 10.14266,-112.81697 0.0571,-88.27056 10.79097,-274.41665 0.70333,-5.08738 2.20462,-10.09528 2.05263,-15.259 0.0112,-6.99194 0.0437,-13.98599 0.35144,-20.97247 0.44971,-8.89511 1.23968,-17.76284 2.75489,-26.54778 1.06907,-7.59034 1.60213,-15.261 2.4241,-22.88149 -0.2531,-3.61411 -0.27131,-7.75526 -2.9525,-10.5171 -1.57421,-1.25335 -1.06345,-0.4875 1.03156,-0.98475 0.40202,-0.0954 -0.8246,0.0542 -1.23662,0.0852 -2.14503,0.16119 -4.28719,0.36126 -6.4238,0.61108 -7.56507,0.99787 -15.07488,2.53696 -22.70957,2.87468 -10.8882,0.83929 -21.70781,2.4508 -32.62449,2.85382 -14.58317,0.79546 -29.14734,2.27855 -43.7667,2.07692 -13.81059,-4.9e-4 -27.62118,-0.002 -41.43176,-0.009 -12.58099,-0.007 -25.16199,-0.0203 -37.74298,-0.013 -11.35538,0.0221 -22.71681,10e-4 -34.06374,0.4992 -8.89229,0.50981 -17.72042,1.5005 -26.51985,2.89061 -8.79719,0.65255 -17.51458,1.87633 -26.13148,3.79687 -9.29652,1.36581 -18.43771,3.53518 -27.69714,5.11463 -8.16548,1.63134 -16.42497,2.75216 -24.64651,4.04732 -6.28576,1.28441 -12.47694,3.00632 -18.87284,3.71278 -4.44587,0.0931 -8.93661,0.13564 -13.30388,1.06736 -3.82516,0.96576 -7.57792,2.14718 -11.59835,1.75377 -1.88801,-0.003 -3.77602,-0.008 -5.66401,-0.0158 5.31445,-0.006 -5.11541,-0.0202 -5.84216,0.10339 -2.8848,0.16419 -5.78091,0.46332 -8.5272,1.42003 -5.0335,1.60295 -5.59063,1.29704 -8.94958,1.33151 -4.21942,0.0635 -8.44576,0.23025 -12.62613,0.84771 -6.54805,1.05941 -12.95476,2.76564 -19.51359,3.72852 -7.0646,1.18583 -14.11722,2.41128 -21.16111,3.68343 -6.06921,1.4274 -12.21728,2.36579 -18.2581,3.91732 -4.11483,0.57395 -8.07294,1.72791 -12.13969,2.42991 -3.10079,0.42245 -5.93678,1.32035 -8.41304,3.32131 -1.6921,1.40856 -5.87594,5.3731 -8.01215,3.46133 0.022,-3.95638 0.0305,-7.9128 0.0355,-11.86923 -0.002,-7.86108 3.1e-4,-15.72422 -0.25236,-23.58212 -0.30066,-7.21689 -0.77095,-14.43986 -2.19876,-21.53724 -0.003,-0.0162 -0.98861,-4.805 -0.87406,-5.05516 0.39474,-0.86198 1.61584,-1.04033 2.23685,-1.7567 0.3762,-0.43397 -1.23085,0.13603 -1.63477,0.54434 -0.4952,0.50059 -0.85544,1.1187 -1.28316,1.67805 -5.1706,8.67903 -9.49856,17.87173 -13.36938,27.19269 -4.65229,12.77098 -8.75341,25.73439 -11.76914,38.99916 -0.60272,2.28088 -4.80432,19.53387 -9.1583,9.36213 -1.41416,-7.86742 -2.08189,-15.77206 -1.67002,-23.77599 0.005,-12.47574 0.0282,-24.95434 -0.31158,-37.4265 -0.31208,-8.13665 -0.26756,-16.61867 -3.0561,-24.36689 -1.39189,-2.31884 -1.08483,-0.80304 1.34363,-2.00823 0.62994,-0.31262 -1.4596,0.38466 -1.8873,0.9429 -1.11915,1.46072 -1.58194,2.88393 -2.30961,4.57956 -4.376848,10.14562 -8.947928,20.23354 -12.221061,30.80933 -4.04046,12.82257 -8.349495,25.55748 -12.123206,38.46211 -0.215352,0.73482 -4.844065,18.48836 -7.751793,9.2135 -1.222532,-6.59085 -2.161209,-13.17844 -1.789444,-19.91174 -0.158742,-9.18402 -0.373286,-18.38548 -1.463718,-27.51561 -0.832601,-6.58648 -1.489537,-13.31895 -3.192827,-19.72043 -1.023917,-1.42031 -1.725686,-1.4842 0.664367,-2.14565 0.242321,-0.0671 -0.377065,0.33765 -0.527762,0.53891 -1.093944,1.46102 -1.511517,3.28517 -2.142478,4.96148 -1.735033,7.01085 -4.256365,13.77191 -6.301159,20.69305 -3.189218,9.35157 -6.721451,18.60369 -9.086447,28.21668 -1.534306,5.05882 -3.465382,10.38813 -3.531312,15.69846 -4.844915,1.26729 -1.610307,0.50064 -0.566739,-4.20836 2.205705,-7.5429 2.780404,-15.42155 4.769074,-23.02707 2.462737,-10.8604 4.44952,-21.84459 5.91494,-32.88438 0.701877,-7.48316 1.75414,-14.96025 1.152492,-22.49188 -0.217206,-1.9891 -0.680969,-1.92977 2.436312,-2.29698 0.15945,-0.0188 -1.794307,4.89738 -1.726731,5.22079 -1.664618,4.73444 -2.041451,9.76026 -3.706583,14.50741 -2.064665,6.98311 -3.946252,14.01047 -6.108786,20.96273 -1.69833,5.34046 -3.52352,10.64324 -4.656833,16.13954 -0.156626,0.47328 -0.347135,0.93666 -0.469879,1.41983 -0.12055,0.47454 0.135117,1.15431 -0.258139,1.44598 -1.908183,1.41526 -3.773998,1.17918 -5.863848,1.16328 -1.057919,-0.004 -7.646868,-0.0279 -11.383952,0.0868 -10.789765,0.28365 -21.5784634,0.80415 -32.3029486,2.08164 -13.4268204,1.66658 -26.7987394,3.7297 -40.2567784,5.15751 -12.998016,1.02698 -25.979989,1.94993 -39.014339,2.36445 -8.827799,0.65463 -17.617842,1.89091 -26.480492,1.86164 -2.05278,0.10448 -6.19207,-0.50733 -6.76178,2.17241 0.69051,2.53913 1.81735,4.96791 1.59503,7.67812 -1.35757,7.5991 -3.02441,15.17001 -3.38417,22.90732 -1.84869,17.02988 -4.9462,33.84958 -8.09957,50.67895 -3.37712,17.46913 -7.24898,34.90737 -8.73085,52.66929 -0.95657,10.88057 -1.31172,21.78091 0.58946,32.59517 0,0 -2.82467,0.0401 -2.82467,0.0401 l 0,1.8e-4 z"
       sodipodi:nodetypes="ccccccccccccsccccccccccccccccssssccccccssscccssccscsscccccccssccccccccccccscccccccccccccccccccccccccccccccccccccccccccccccccccccccccccccccccccccccccccccscccccccccccccccccccccccccccccccccccccccssccccsccccccccccccccccccccccsssscccccccssccsccccssccccccccsccccsssccccccccccccc" />
    <path
       style="fill:#000000;fill-opacity:1;stroke:#000000;stroke-width:10;stroke-miterlimit:4;stroke-opacity:1;stroke-dasharray:none"
       id="path2967"
       d="m 324.26978,291.89738 c -0.11068,8.94465 0.25804,17.89596 -0.35894,26.82348 -0.79155,11.5354 -3.64552,22.75527 -6.38113,33.94248 -3.05389,11.82924 -6.99373,23.38347 -10.96283,34.92546 -3.1334,8.74455 -6.37096,17.43846 -9.82342,26.06179 -2.2038,4.7902 -4.97973,9.2708 -7.39133,13.949 -0.43398,1.39217 -1.57777,2.62045 -1.92239,4.05016 -0.0211,0.0876 0.23325,-0.14853 0.16868,-0.21146 -0.55011,-0.5361 -1.21793,-0.93635 -1.82689,-1.40453 2.50667,-3.91471 5.66326,-7.35506 8.82251,-10.74444 4.2653,-4.12754 9.03146,-7.37994 14.9406,-8.3695 8.28379,-0.64421 12.39695,1.16559 16.66794,8.02211 3.82374,6.147 5.75603,12.84781 4.94447,20.04601 -1.79114,8.43222 -6.96691,14.98917 -12.85558,20.98649 -6.34095,5.8392 -13.44592,10.71824 -20.96652,14.89329 -1.98301,1.17333 -11.58167,4.37707 -10.70474,-0.49339 1.3753,-4.38667 5.43208,-7.04635 9.11456,-9.40905 5.27691,-2.97723 11.28141,-3.89332 16.92643,-1.15031 5.36551,3.06884 8.24762,7.04473 10.08864,12.851 2.18284,6.81953 0.47365,12.5879 -2.5757,18.76742 -3.12158,6.83378 -8.73958,12.03156 -14.99062,16.0064 -5.30527,2.56326 -10.74434,5.26865 -16.69157,5.73132 -4.18365,0.34095 -10.68099,-0.60585 -8.76879,-6.22697 2.7033,-3.31229 7.24936,-3.83108 11.25003,-4.27784 7.04769,-0.44078 11.31465,2.46574 13.98943,8.79272 2.88071,9.46583 1.53309,19.13639 0.0942,28.70337 -1.49256,11.82962 -6.73128,21.97612 -13.64921,31.46151 -4.38576,5.76318 -10.19796,9.18971 -17.14272,10.8168 -4.37189,0.2289 -10.10132,0.32577 -11.36648,-4.82464 -0.20781,-4.30662 2.52595,-7.79766 5.52105,-10.571 5.23352,-3.99649 9.33921,-3.95862 15.68082,-3.62583 5.12288,1.39809 7.85706,5.70999 9.71171,10.36698 1.80138,7.06198 2.08893,14.46546 1.58469,21.70749 -0.53206,8.28275 -3.42838,15.99076 -6.39213,23.64027 -3.25386,7.58417 -6.46274,15.19954 -9.35436,22.93198 -3.16081,7.2509 -5.57444,14.80455 -7.4429,22.48423 -2.32092,7.74141 -3.45957,15.73994 -5.35398,23.57967 -1.33576,5.00525 -1.73501,10.16896 -3.25577,15.11977 -0.60076,3.22219 -1.96871,6.06409 -3.32081,8.9986 -1.24918,3.21419 -1.47798,6.64888 -1.64743,10.05549 -0.19508,5.19438 0.10535,10.38604 -0.44342,15.55853 -1.17397,6.10304 -1.41069,12.34592 -2.51468,18.44929 -1.15236,4.49311 -2.0783,9.02709 -2.5256,13.64496 -1.0287,3.69635 -2.04132,7.37798 -2.66435,11.16793 -0.0211,3.59183 -1.31933,6.89805 -2.23243,10.31666 -0.78444,3.40142 -0.98613,6.88623 -1.08918,10.36279 -0.86589,3.56292 -1.80187,7.09289 -2.38309,10.718 -0.33367,3.5198 -0.334,6.93616 -1.32985,10.34275 -1.04544,2.99793 -3.31778,5.05056 -5.70842,6.99524 0,0 -2.81191,-0.25192 -2.81191,-0.25192 l 0,0 c 2.37126,-1.88468 4.63781,-3.88498 5.68743,-6.82416 0.99863,-3.39426 1.00184,-6.79637 1.32822,-10.30712 0.58278,-3.61212 1.49289,-7.13649 2.38494,-10.681 0.099,-3.49876 0.30833,-7.0037 1.08855,-10.42824 0.90372,-3.41273 2.22291,-6.70332 2.23135,-10.28933 0.62583,-3.78295 1.61509,-7.46538 2.66996,-11.1488 0.4442,-4.62657 1.37085,-9.17015 2.53769,-13.66837 1.1115,-6.09495 1.33832,-12.33318 2.51695,-18.4285 0.55062,-5.1672 0.2316,-10.35344 0.42483,-15.54268 0.16863,-3.44221 0.40452,-6.90933 1.64554,-10.16318 1.32985,-2.93037 2.75126,-5.74043 3.32765,-8.96177 1.53783,-4.94131 1.92978,-10.1033 3.27482,-15.10187 1.91244,-7.83621 3.03754,-15.8377 5.36038,-23.57957 1.86746,-7.6909 4.2696,-15.26067 7.44481,-22.51762 2.8893,-7.73457 6.09557,-15.35276 9.35549,-22.93532 2.95564,-7.62331 5.85645,-15.30023 6.38861,-23.55626 0.50426,-7.19892 0.21491,-14.56596 -1.60098,-21.58031 -1.85521,-4.58951 -4.58651,-8.81009 -9.69108,-10.06406 0.22453,-0.0763 0.90826,-0.19483 0.67359,-0.229 -2.97575,-0.43332 -6.09954,0.87515 -8.61629,2.32925 -0.72645,0.41973 -1.41655,0.89945 -2.12482,1.34917 -2.95145,2.66563 -5.68793,6.06312 -5.50048,10.26629 0.89046,3.38057 3.4412,3.70445 6.44672,4.47126 0.23088,0.0589 -0.4756,0.03 -0.7134,0.0449 6.93679,-1.54173 12.75971,-4.889 17.15704,-10.61381 6.92235,-9.43757 12.17371,-19.5285 13.65544,-31.32691 1.42766,-9.51564 2.77308,-19.14147 -0.13262,-28.54799 -1.4557,-3.35816 -3.17605,-6.03898 -6.6533,-7.59943 -0.6873,-0.30843 -1.4814,-0.34943 -2.14995,-0.69663 -0.1392,-0.0723 0.2845,-0.1322 0.42675,-0.1983 -3.93457,0.40763 -8.41254,0.86737 -11.21183,3.96242 -0.78661,2.11172 -0.31069,3.92917 1.90954,5.01154 0.61376,0.29921 1.37407,0.23037 1.96864,0.56608 0.21735,0.12271 -0.49172,0.086 -0.73759,0.129 5.94906,-0.32487 11.37039,-3.10154 16.68751,-5.59088 6.24595,-3.90251 11.86858,-9.06524 14.98411,-15.85232 3.03366,-6.11193 4.74078,-11.79914 2.56355,-18.55152 -1.83858,-5.72955 -4.74671,-9.64215 -10.08003,-12.61931 -0.7238,-0.3305 -1.55148,-0.49267 -2.17139,-0.99149 -0.15291,-0.12304 0.56248,-0.41404 0.37102,-0.4572 -3.33211,-0.7511 -6.67074,1.21398 -9.51339,2.56297 -3.63057,2.29198 -7.685,4.89386 -9.07781,9.18238 -0.0698,0.31235 -0.25577,0.6204 -0.20933,0.93707 0.0356,0.24294 0.6356,0.45495 0.43403,0.59514 -0.51966,0.36144 -1.65451,-0.20468 -1.85747,0.39489 -0.60543,1.78853 7.5316,-2.70535 6.69884,-1.78888 7.52606,-4.13914 14.6275,-8.99711 20.97385,-14.81135 5.86228,-5.94143 11.04022,-12.42625 12.83363,-20.80107 0.81962,-7.13879 -1.14127,-13.77169 -4.94361,-19.8563 -1.73826,-2.74023 -3.22833,-4.86664 -6.17883,-6.40239 -0.76117,-0.39619 -1.67043,-0.50071 -2.37788,-0.98637 -0.14638,-0.10049 0.47161,-0.41521 0.2962,-0.44271 -0.92409,-0.14486 -1.87046,0.0329 -2.80569,0.0493 -5.9115,0.86089 -10.64823,4.10456 -14.91962,8.18316 -3.14993,3.37689 -6.30584,6.79851 -8.80703,10.69848 -6.36354,2.69595 -3.64485,1.14023 -2.07392,-2.73437 2.41158,-4.67334 5.18548,-9.14824 7.4141,-13.92126 3.4591,-8.6188 6.71056,-17.30522 9.84666,-26.04701 3.96977,-11.53402 7.92135,-23.07639 10.9709,-34.89978 2.72999,-11.17147 5.57446,-22.37644 6.36252,-33.89522 0.61419,-8.92075 0.25322,-17.86644 0.32459,-26.80426 0,0 2.82527,0 2.82527,0 z" />
    <path
       style="fill:#000000;fill-opacity:1;stroke:#000000;stroke-width:10;stroke-miterlimit:4;stroke-opacity:1;stroke-dasharray:none"
       id="path2969"
       d="m 531.68837,233.96018 c 5.81278,5.2387 12.32416,9.60571 19.53651,12.63761 4.54882,1.60399 9.30874,2.07661 13.70863,4.09594 3.1348,2.71927 -1.94038,5.84485 -3.95522,7.4436 -6.78671,4.86884 -13.74375,9.44802 -20.98324,13.61669 -6.27678,3.46982 -12.20978,7.49151 -17.85247,11.90751 -1.58837,0.94768 -3.12981,2.34816 -5.02884,2.52009 0,0 -2.81183,-0.44092 -2.81183,-0.44092 l 0,0 c 1.88318,0.1145 3.45298,-1.47781 5.02606,-2.33519 5.65896,-4.42185 11.59484,-8.46875 17.88826,-11.94418 7.23584,-4.14577 14.17082,-8.72605 20.95058,-13.57817 1.79354,-1.41405 7.00271,-4.45426 3.94659,-6.86516 -4.39828,-1.97279 -9.16852,-2.42339 -13.67841,-4.09242 -7.21346,-3.08807 -13.73654,-7.48531 -19.56286,-12.74376 0,0 2.81624,-0.22164 2.81624,-0.22164 z" />
    <path
       style="fill:#000000;fill-opacity:1;stroke:#000000;stroke-width:10;stroke-miterlimit:4;stroke-opacity:1;stroke-dasharray:none"
       id="path2971"
       d="m 538.89915,54.389401 c 1.12846,8.247627 0.40568,16.634966 0.10908,24.924882 -0.7824,7.063192 -1.86656,14.077798 -3.58706,20.971537 -1.43738,4.13638 -1.3279,8.64075 -3.22135,12.60339 -1.25691,1.38383 -0.30932,0.73634 -3.41216,-0.46011 0,0 2.84405,10e-4 2.84405,10e-4 l 0,0 c -3.09742,0.94921 -3.56901,1.5499 -2.26709,0.33058 1.93951,-3.92572 1.78593,-8.43044 3.24235,-12.54404 1.72163,-6.874404 2.81241,-13.868478 3.6009,-20.912643 0.2989,-8.269898 1.03442,-16.645053 -0.13778,-24.86809 0,0 2.82906,-0.04673 2.82906,-0.04673 z" />
    <path
       style="fill:#000000;fill-opacity:1;stroke:#000000;stroke-width:10;stroke-miterlimit:4;stroke-opacity:1;stroke-dasharray:none"
       id="path2973"
       d="m 492.02517,41.44096 c 9.44582,2.414541 18.92947,4.640485 28.57742,6.08794 10.30988,1.330881 20.7125,1.6001 31.094,1.759562 4.85655,0.06468 8.84154,0.04865 13.04063,0.02321 0.60425,0.217878 2.00209,-0.568178 1.41341,0.423307 0,0 2.81942,-0.441174 2.81942,-0.441174 l 0,0 c 0.56803,1.000359 -0.80565,0.238034 -1.42939,0.460209 -6.20248,0.0349 -12.40549,0.03972 -18.60772,-0.03229 -10.37961,-0.16775 -20.78056,-0.44737 -31.08628,-1.798563 -9.66224,-1.468381 -19.16884,-3.694773 -28.62781,-6.129839 0,0 2.80632,-0.352356 2.80632,-0.352356 z" />
    <path
       style="fill:#000000;fill-opacity:1;stroke:#000000;stroke-width:10;stroke-miterlimit:4;stroke-opacity:1;stroke-dasharray:none"
       id="path2975"
       d="m 477.73945,104.2981 c 7.92878,2.82881 15.95324,5.0546 24.25999,6.43877 8.41012,0.76679 16.77736,1.60761 25.14709,2.75144 5.49234,0.74653 11.01835,1.18865 16.55325,1.44602 1.45243,0.1823 3.10627,-0.58244 3.49506,1.08258 0.0687,0.64027 0.0479,0.32991 0.0671,0.93074 0,0 -2.85148,0.009 -2.85148,0.009 l 0,0 c -0.0178,-0.56533 0.003,-0.2756 -0.0655,-0.86893 -0.35394,-1.26961 -2.44033,-0.46621 -3.44669,-0.72341 -5.5268,-0.27017 -11.04423,-0.72384 -16.52829,-1.47491 -8.36698,-1.14608 -16.73807,-1.94746 -25.14055,-2.76102 -8.31546,-1.40926 -16.3475,-3.66958 -24.29635,-6.47797 0,0 2.80631,-0.35236 2.80631,-0.35236 z" />
    <path
       style="fill:#000000;fill-opacity:1;stroke:#000000;stroke-width:10;stroke-miterlimit:4;stroke-opacity:1;stroke-dasharray:none"
       id="path2977"
       d="m 583.92771,131.91743 c -1.85793,10.05149 -6.02571,19.48005 -9.9806,28.84711 -2.72306,4.7636 -4.85666,9.94744 -8.0602,14.42412 0,0 -2.83,-0.17849 -2.83,-0.17849 l 0,0 c 3.27447,-4.40924 5.34334,-9.63525 8.10589,-14.35706 3.95326,-9.33726 8.12465,-18.74351 9.94025,-28.77577 0,0 2.82466,0.0401 2.82466,0.0401 z" />
    <path
       style="fill:#000000;fill-opacity:1;stroke:#000000;stroke-width:10;stroke-miterlimit:4;stroke-opacity:1;stroke-dasharray:none"
       id="path2979"
       d="m -94.025718,270.74556 c 7.790559,5.38695 16.01539,10.07398 24.211273,14.80145 6.188089,3.16318 12.206408,6.67565 18.469295,9.68878 2.900018,2.06598 6.507591,3.0926 8.814692,5.87753 1.754463,2.26157 -0.04273,4.37741 -1.360154,6.33527 -3.21811,3.24888 -5.594142,7.15915 -8.245027,10.85292 -4.088615,5.2135 -7.641344,10.82293 -11.659099,16.08644 -2.064515,2.83369 -4.037038,5.7382 -5.839636,8.74618 -0.07746,0.0544 -0.154915,0.10872 -0.232373,0.16308 0,0 -2.827192,-0.39098 -2.827192,-0.39098 l 0,0 c 0.07196,0.0246 0.14392,0.0492 0.21588,0.0738 1.819248,-3.01502 3.807184,-5.92634 5.874323,-8.77604 4.037014,-5.24492 7.563144,-10.87101 11.655541,-16.07783 2.647899,-3.68686 4.98514,-7.62692 8.226463,-10.84506 1.245979,-1.86289 3.088961,-3.82098 1.355988,-5.96851 -2.327085,-2.69746 -5.922788,-3.72567 -8.782371,-5.76162 -6.244932,-3.04481 -12.277549,-6.5206 -18.448788,-9.7114 -8.209981,-4.73579 -16.437597,-9.4516 -24.245458,-14.84094 0,0 2.816643,-0.25307 2.816643,-0.25307 z" />
    <path
       style="fill:#000000;fill-opacity:1;stroke:#000000;stroke-width:10;stroke-miterlimit:4;stroke-opacity:1;stroke-dasharray:none"
       id="path2981"
       d="m -133.55779,103.36525 c -2.53839,8.89099 -3.61122,18.09099 -4.40118,27.27468 -0.0653,7.02243 -1.2689,13.90609 -2.38984,20.81346 -0.42359,2.61269 -1.02172,5.54128 -2.7329,7.65444 0,0 -2.83949,-0.20276 -2.83949,-0.20276 l 0,0 c 1.80516,-1.94795 2.29069,-4.99243 2.75207,-7.49738 1.13568,-6.89887 2.3381,-13.77608 2.41388,-20.79187 0.79891,-9.19941 1.87873,-18.41096 4.37456,-27.32916 0,0 2.8229,0.0786 2.8229,0.0786 z" />
    <path
       style="fill:#000000;fill-opacity:1;stroke:#000000;stroke-width:10;stroke-miterlimit:4;stroke-opacity:1;stroke-dasharray:none"
       id="path2983"
       d="m -159.06955,100.71263 c 8.54902,0.003 17.09804,0.002 25.64707,0.002 3.56929,-0.25889 7.21065,0.30944 10.77548,-8.2e-4 1.63112,-0.14197 4.66324,-0.985784 6.43851,-1.271922 3.72359,-0.979987 7.42824,-2.018895 11.1645,-2.951576 0,0 2.79789,0.373518 2.79789,0.373518 l 0,0 c -3.74293,0.926517 -7.45724,1.946566 -11.17338,2.974141 -7.55169,1.221289 -15.12022,1.576599 -22.77048,1.314979 -8.5567,-6.2e-4 -17.11339,-0.001 -25.67008,0.002 0,0 2.79049,-0.44197 2.79049,-0.44197 z" />
    <path
       style="fill:#000000;fill-opacity:1;stroke:#000000;stroke-width:10;stroke-miterlimit:4;stroke-opacity:1;stroke-dasharray:none"
       id="path2985"
       d="m -190.15861,174.9987 c 9.7119,-0.92377 19.38332,-2.27356 29.05669,-3.61147 7.89169,-1.5028 15.72861,-3.26277 23.69432,-4.34102 4.00463,-0.49187 8.03706,-0.6224 12.0673,-0.65828 2.27272,-0.005 1.90863,-0.005 5.32712,0.002 0.38473,8.2e-4 1.51187,0.14834 1.15418,0.007 -2.32943,-0.92288 -2.11198,0.10407 -0.599,-1.17489 0,0 2.83733,0.24122 2.83733,0.24122 l 0,0 c -1.95368,1.79315 -9.1118,1.42552 -4.67658,1.36659 0.41361,-0.005 -0.8273,7e-5 -1.24095,1e-4 -4.0335,0.0276 -8.06953,0.14373 -12.07918,0.62072 -7.98059,1.05379 -15.83112,2.80487 -23.72896,4.33481 -11.4926,1.58272 -22.97039,3.42762 -34.59826,3.65494 0,0 2.78599,-0.44125 2.78599,-0.44125 z" />
    <path
       style="fill:#000000;fill-opacity:1;stroke:#000000;stroke-width:10;stroke-miterlimit:4;stroke-opacity:1;stroke-dasharray:none"
       id="path2987"
       d="m -90.498126,163.56977 c 7.133406,0.003 14.266813,0.001 21.400219,4.4e-4 4.854901,0.57162 6.333861,2.16064 4.846818,6.78251 -3.060455,5.26808 -6.750959,10.11162 -10.626834,14.79733 -1.224959,2.56692 -5.633376,6.24131 -5.808286,9.18459 1.111936,1.18829 3.864378,0.76378 5.395796,0.76548 -0.495788,-0.003 -1.979398,-0.0703 -1.487364,-0.009 1.420867,0.17608 2.86182,0.16236 4.28047,0.35548 2.213428,0.30132 4.466264,1.20493 6.66532,1.67186 2.16896,0.35996 4.357089,0.60629 6.551615,0.7391 0.110143,0.005 0.220285,0.01 0.330427,0.0145 0,0 -2.819844,0.43202 -2.819844,0.43202 l 0,0 c -0.10962,-0.006 -0.21924,-0.0126 -0.32886,-0.0189 -2.191919,-0.15174 -4.378819,-0.39848 -6.54277,-0.78248 -0.632997,-0.13719 -6.59156,-1.52603 -6.66701,-1.67346 -0.207743,-0.40594 1.789252,-0.24954 1.335618,-0.29607 -1.366713,-0.14016 -2.747754,0.007 -4.121631,0.0103 -1.612508,-0.009 -4.566033,0.45621 -5.43989,-1.22593 0.215672,-3.46594 4.489524,-6.37085 5.847756,-9.3619 3.863749,-4.65488 7.524949,-9.4717 10.601764,-14.69215 1.500126,-4.52512 -0.155222,-5.75402 -4.798023,-6.25195 -7.135259,-8.3e-4 -14.270519,-0.003 -21.405779,4.4e-4 0,0 2.790488,-0.44197 2.790488,-0.44197 z" />
    <path
       style="fill:#000000;fill-opacity:1;stroke:#000000;stroke-width:10;stroke-miterlimit:4;stroke-opacity:1;stroke-dasharray:none"
       id="path2989"
       d="m 237.06109,671.82421 c 5.47576,8.38499 9.5258,17.5452 13.97583,26.48093 3.59896,6.41946 7.60875,12.54833 12.75124,17.8322 2.35271,2.55765 4.97737,4.02539 8.37031,4.54184 -0.36675,-0.84977 2.95567,0.98922 2.68015,0.13814 -0.14481,-0.44729 -1.49927,0.15092 -1.37748,-0.30318 0.15947,-0.59465 1.12737,-0.49802 1.67023,-0.78842 1.47561,-0.78936 1.91225,-1.19293 3.29366,-2.21044 4.67311,-4.23002 6.79361,-10.21239 9.19788,-15.86502 3.36028,-8.44052 7.25938,-16.62334 11.08027,-24.85887 2.67935,-5.40677 1.31023,-2.69226 4.10914,-8.14263 0,0 2.79235,0.13257 2.79235,0.13257 l 0,0 c -2.79597,5.44492 -1.42681,2.73416 -4.10914,8.13142 -3.81875,8.23221 -7.72213,16.40845 -11.06965,24.85022 -2.41723,5.69211 -4.53404,11.70669 -9.18424,16.01524 -3.63134,2.73297 -7.20594,4.19138 -11.89524,3.30017 -3.39464,-0.5834 -6.02122,-2.1673 -8.36962,-4.72461 -5.11688,-5.33197 -9.14543,-11.46715 -12.72539,-17.91994 -4.44308,-8.93906 -8.50219,-18.0962 -14.00694,-26.46327 0,0 2.81664,-0.14635 2.81664,-0.14635 z" />
    <path
       style="fill:#000000;fill-opacity:1;stroke:#000000;stroke-width:10;stroke-miterlimit:4;stroke-opacity:1;stroke-dasharray:none"
       id="path2991"
       d="m 364.61124,646.16306 c 1.29118,9.35129 0.45041,18.83541 -0.70764,28.15277 -1.55,7.6759 -3.42384,15.27354 -4.62424,23.01551 -0.0627,0.65721 -2.09108,6.19489 -2.81236,5.91898 -1.11808,-0.42771 -2.14069,-1.07221 -3.21104,-1.60831 0,0 2.83604,-0.0715 2.83604,-0.0715 l 0,0 c -5.07892,2.7504 -0.20885,0.22536 0.36776,-4.28293 1.21875,-7.73788 3.09059,-15.33419 4.65425,-23.00638 1.16044,-9.29103 2.00526,-18.75674 0.67256,-28.07811 0,0 2.82467,-0.0401 2.82467,-0.0401 z" />
    <path
       style="fill:#000000;fill-opacity:1;stroke:#000000;stroke-width:10;stroke-miterlimit:4;stroke-opacity:1;stroke-dasharray:none"
       id="path2993"
       d="m 383.92991,571.57898 c -0.79614,6.94744 -1.56654,13.66605 -4.30794,20.14137 0,0 -2.81583,-0.11348 -2.81583,-0.11348 l 0,0 c 2.76432,-6.44623 3.5374,-13.14044 4.29471,-20.07461 0,0 2.82906,0.0467 2.82906,0.0467 z" />
    <path
       style="fill:#000000;fill-opacity:1;stroke:#000000;stroke-width:10;stroke-miterlimit:4;stroke-opacity:1;stroke-dasharray:none"
       id="path2995"
       d="m 623.11714,413.6027 c 5.02088,5.04583 10.83988,9.20904 17.19926,12.38045 4.7769,2.6068 9.43988,5.45834 14.53643,7.40629 3.64447,1.76712 7.50264,2.97162 11.08698,4.8548 2.63649,1.49005 5.77424,2.71052 7.97747,4.83997 1.72162,1.88812 0.046,3.61021 -1.41467,5.01795 -3.13164,2.95412 -7.20507,4.43634 -11.08664,6.10581 -6.95455,3.33946 -13.96265,6.55322 -20.7624,10.21299 -8.44744,4.06152 -16.8465,8.21919 -25.3687,12.12233 -6.64826,3.51985 -13.56404,6.44492 -20.36793,9.63459 -0.44318,0.47168 -7.5729,2.60332 -4.12538,3.01732 3.74548,0.21607 6.14668,0.14554 8.40104,0.13647 5.61017,-0.0279 11.2204,-0.0363 16.83062,-0.0417 6.49427,-0.006 12.98854,-0.005 19.48281,-0.006 6.49152,-6.9e-4 12.98305,4.3e-4 19.47457,-3.7e-4 4.24649,-3.5e-4 8.49299,-10e-6 12.73948,-4.9e-4 3.78294,0.0338 4.90768,-0.32529 9.80535,1.33909 2.30872,0.62229 5.94458,1.09029 4.9367,4.22775 -3.56607,3.23325 -7.93474,5.44627 -11.92906,8.10657 -7.6149,4.12866 -15.2731,8.16321 -22.81507,12.4248 -9.87205,4.52302 -19.64532,9.24642 -29.45977,13.89346 -7.04859,3.6661 -14.08323,7.35123 -21.09091,11.09484 -1.32753,0.61214 -8.10883,3.19273 -5.06953,5.26539 3.24726,0.92259 6.70395,0.80662 10.05231,0.83723 3.12279,0.006 7.95687,-0.0172 12.69758,-0.0283 6.70077,0.39927 13.27225,-0.40073 19.89091,-1.29116 6.68975,-0.91309 13.43163,-1.28279 20.17472,-1.48451 7.26878,-0.14352 14.5396,-0.1192 21.80941,-0.11706 4.49729,-0.0342 8.8966,-0.28523 13.26447,0.86384 2.94943,1.00484 6.00009,1.56873 9.09613,1.8386 1.1014,0.29024 4.95312,-0.63463 3.20573,1.34481 -3.49333,2.75216 -6.86282,5.60276 -10.59498,8.03311 -8.84334,4.75045 -17.06959,10.47879 -25.78363,15.46322 -9.55869,5.77087 -19.47096,10.91714 -29.45343,15.90737 -5.70681,3.65671 -11.58694,6.54109 -18.26867,7.74049 0,0 -2.7884,-0.39225 -2.7884,-0.39225 l 0,0 c 6.69283,-1.14075 12.58522,-3.97569 18.28117,-7.65711 9.99317,-4.97274 19.90785,-10.12144 29.46987,-15.88972 8.70664,-4.97416 16.90775,-10.71349 25.74357,-15.45175 3.73153,-2.40434 7.0665,-5.25744 10.5563,-7.98775 1.56716,-1.11702 -2.59452,-0.34579 -3.17372,-0.69222 -3.09702,-0.29766 -6.14039,-0.8965 -9.09726,-1.88452 -4.35928,-1.10164 -8.77118,-0.79379 -13.24418,-0.79489 -4.91189,-0.003 -10.90589,-10e-4 -16.23978,0.10821 -6.74337,0.19298 -13.48636,0.54876 -20.17727,1.45446 -6.61866,0.88829 -13.18371,1.74902 -19.887,1.3291 -6.09177,0.0142 -12.18357,0.0467 -18.27536,0.0276 -3.35488,-0.0364 -6.89808,0.13616 -10.09267,-1.01904 -3.00496,-2.64524 3.30785,-5.02246 5.10268,-5.82726 7.02556,-3.73365 14.06591,-7.42856 21.12239,-11.10489 9.81667,-4.63171 19.56939,-9.38919 29.45509,-13.87346 7.52974,-4.26118 15.16458,-8.3168 22.78841,-12.40652 3.95654,-2.65439 8.19178,-4.90556 11.8884,-7.92682 1.09252,-2.81658 -3.02296,-3.1854 -4.91026,-3.77913 -0.99559,-0.33235 -2.63464,0.0441 -3.00596,-0.93763 -0.15639,-0.41345 1.72917,-0.26827 1.28918,-0.31081 -2.664,-0.25752 -5.39468,0.13854 -8.07064,-1.9e-4 -4.24397,-5e-4 -8.48795,-1.9e-4 -12.73192,-7e-4 -4.63473,-7.5e-4 -9.26945,-2.7e-4 -13.90418,-0.001 -6.49497,-4.8e-4 -12.98994,2.4e-4 -19.48491,0.005 -5.6057,0.006 -11.21141,0.0147 -16.81705,0.043 -4.66823,0.0204 -9.35361,0.14804 -14.0123,-0.18922 -3.6711,-1.05448 3.40789,-3.31638 4.14657,-3.72403 6.81316,-3.18145 13.73326,-6.10617 20.38282,-9.63545 8.52868,-3.88647 16.91845,-8.06033 25.37363,-12.10314 6.78998,-3.67233 13.79493,-6.88687 20.73783,-10.24032 3.85292,-1.67214 7.9272,-3.09348 11.06163,-6.00794 1.36977,-1.28757 3.09509,-2.80654 1.41098,-4.55571 -2.27395,-2.0448 -5.3115,-3.29835 -7.96351,-4.76439 -3.58453,-1.85724 -7.43782,-3.07119 -11.07577,-4.82438 -5.07753,-1.99366 -9.74411,-4.8335 -14.5248,-7.43495 -6.35542,-3.22118 -12.15655,-7.41184 -17.22142,-12.43742 0,0 2.81664,-0.25307 2.81664,-0.25307 z" />
    <path
       style="fill:#000000;fill-opacity:1;stroke:#000000;stroke-width:10;stroke-miterlimit:4;stroke-opacity:1;stroke-dasharray:none"
       id="path2997"
       d="m 767.80926,471.85809 c 2.49972,11.29456 4.11083,22.79549 5.65517,34.25934 1.13815,10.04318 2.39929,20.13282 5.05327,29.90242 0.93704,1.74978 0.85216,4.21526 1.97159,5.90071 0.15537,0.23393 0.90383,0.66196 0.69997,0.46883 -1.84741,-1.75019 -1.99541,-0.52043 0.20109,-2.75539 5.90717,-7.72866 10.03496,-16.64199 14.77295,-25.10572 6.34882,-11.58046 13.58732,-22.65312 20.91982,-33.62888 4.09633,-6.25829 8.68849,-12.1621 12.93068,-18.3156 1.0161,-0.59798 3.29064,-4.6254 4.8455,-4.41324 1.1321,0.15447 2.21044,0.57971 3.31566,0.86956 0.47154,1.25207 0.45342,2.58983 0.50952,3.90526 0,0 -2.83565,0.0125 -2.83565,0.0125 l 0,0 c -0.0583,-1.26905 -0.0365,-2.56343 -0.51446,-3.76474 0.78627,-0.24429 1.55555,-0.55214 2.35881,-0.73287 0.20573,-0.0463 -0.36668,0.20889 -0.54313,0.32436 -1.64571,1.07691 -3.06241,2.4621 -4.31674,3.96971 -4.25518,6.15369 -8.86252,12.05386 -12.97821,18.30863 -7.34174,10.96291 -14.58232,22.02871 -20.92465,33.60652 -4.74028,8.4801 -8.86899,17.39606 -14.72188,25.18204 -6.4302,6.7071 -6.95738,1.36187 -8.49968,-3.75769 -2.62224,-9.78827 -3.87841,-19.88526 -5.01424,-29.93935 -1.54298,-11.45231 -3.14519,-22.9486 -5.70829,-34.21785 0,0 2.8229,-0.0786 2.8229,-0.0786 z" />
    <path
       style="fill:#000000;fill-opacity:1;stroke:#000000;stroke-width:10;stroke-miterlimit:4;stroke-opacity:1;stroke-dasharray:none"
       id="path2999"
       d="m 839.57636,529.33146 c 4.10776,11.21535 5.36545,22.91127 4.92486,34.76722 -0.84945,9.00522 -3.19634,17.64736 -7.4955,25.59489 -1.7266,3.21394 -3.72685,4.39543 -7.52223,2.63639 -0.70488,-0.32669 -1.28574,-3.39762 -1.34636,-3.6355 -0.16119,-9.92026 3.98711,-19.42785 7.58069,-28.49745 4.94416,-11.27873 11.52002,-21.64982 20.59525,-30.01087 6.13006,-4.91107 13.10895,-7.01588 20.85962,-5.05454 5.15447,2.40371 6.15755,7.23807 5.96888,12.43423 -0.9838,6.56201 -5.11232,11.44243 -10.04428,15.55062 -3.34889,3.16976 -7.65935,4.84692 -11.44924,7.32754 0.17616,2.61117 3.88081,4.55798 5.67038,6.15035 3.53141,3.06593 6.49516,6.65176 9.59839,10.11216 2.30892,2.3207 2.98947,5.57325 5.03242,8.04108 1.24557,0.51604 0.87511,0.27447 -1.31177,0.19898 0,0 2.81068,0.44453 2.81068,0.44453 l 0,0 c -3.93733,-0.068 -2.63034,0.56542 -4.33391,-0.44982 -1.98893,-2.49479 -2.7129,-5.72175 -5.01994,-8.02897 -3.07649,-3.47474 -6.07403,-7.01527 -9.59236,-10.07894 -1.96424,-1.72677 -5.77786,-3.71858 -5.68504,-6.66946 3.76468,-2.51908 8.13894,-4.10271 11.47719,-7.29484 4.90867,-4.02304 9.03139,-8.82643 10.02586,-15.31346 0.18423,-5.09337 -0.81366,-9.81541 -5.94549,-12.04847 -5.92417,-1.35892 -10.17769,1.14362 -15.27838,4.91031 -9.10436,8.2911 -15.66813,18.63426 -20.60681,29.88417 -3.56954,9.00936 -7.70194,18.46533 -7.52615,28.32074 1.43222,5.36486 2.11081,1.94254 -0.47945,4.02691 -1.32755,1.06826 6.93976,-2.69177 3.70835,-3.09606 4.3239,-7.89476 6.67832,-16.49554 7.5354,-25.46486 0.44231,-11.82223 -0.80764,-23.49129 -4.96749,-34.65579 0,0 2.81643,-0.10109 2.81643,-0.10109 z" />
    <path
       style="fill:#000000;fill-opacity:1;stroke:#000000;stroke-width:10;stroke-miterlimit:4;stroke-opacity:1;stroke-dasharray:none"
       id="path3001"
       d="m 915.69835,600.46881 c -0.0338,10.21761 -1.34069,20.39376 -2.90388,30.47626 -0.36218,1.51154 -0.72436,3.02308 -1.08653,4.53462 0,0 -2.79438,-0.0661 -2.79438,-0.0661 l 0,0 c 0.36511,-1.5038 0.73023,-3.00761 1.09534,-4.51142 1.56803,-10.0652 2.88388,-20.23077 2.86418,-30.43331 0,0 2.82527,0 2.82527,0 z" />
    <path
       style="fill:#000000;fill-opacity:1;stroke:#000000;stroke-width:10;stroke-miterlimit:4;stroke-opacity:1;stroke-dasharray:none"
       id="path3003"
       d="m 87.811254,68.652985 c 2.437326,7.755081 5.112134,15.460085 8.079556,23.03077 2.06079,6.338884 5.43487,12.071955 8.50072,17.944105 1.94095,3.55093 4.4653,6.72867 8.73202,6.77741 -0.46015,-0.14732 -1.43093,0.0385 -1.38045,-0.44197 0.0636,-0.60587 1.04784,-0.62686 1.53164,-0.99708 0.61122,-0.46774 1.23036,-0.93954 1.7459,-1.51103 2.15398,-2.38773 3.58245,-5.37928 4.95571,-8.23875 4.02551,-9.77894 8.30241,-19.444944 12.7647,-29.031636 4.20946,-8.158694 8.8539,-16.044291 12.54283,-24.463775 0.97129,-2.346075 0.53827,-1.264309 1.31064,-3.240635 0,0 2.83598,0.106304 2.83598,0.106304 l 0,0 c -0.78469,1.983258 -0.34526,0.898017 -1.32953,3.251138 -3.71626,8.415431 -8.356,16.31136 -12.5863,24.467843 -4.45878,9.585005 -8.73536,19.248189 -12.73267,29.035741 -1.38069,2.91271 -4.67217,9.99173 -8.2238,10.97413 -1.37177,0.37943 -2.82505,0.34923 -4.23757,0.52385 -4.26814,-0.24246 -6.80704,-3.50885 -8.74944,-7.07596 -3.059164,-5.88275 -6.419726,-11.629429 -8.478384,-17.975279 -2.961483,-7.581627 -5.636555,-15.291305 -8.108435,-23.04419 0,0 2.826883,-0.09099 2.826883,-0.09099 z" />
    <path
       style="fill:#000000;fill-opacity:1;stroke:#000000;stroke-width:10;stroke-miterlimit:4;stroke-opacity:1;stroke-dasharray:none"
       id="path3005"
       d="m 173.52554,94.36727 c 2.47011,6.81316 3.29064,13.78798 3.08883,20.97963 -0.15606,2.71766 -0.31413,5.44794 -0.7709,8.13544 -0.97756,-0.34755 -2.12829,-0.38739 -2.93268,-1.04266 -0.92601,-0.75434 2.85477,-11.322 3.29701,-12.51669 3.31415,-8.25249 7.95269,-15.956234 13.37528,-22.985363 4.31092,-5.191363 9.80463,-9.747955 16.20375,-12.067203 5.31316,-1.485428 8.44781,-0.176141 9.57285,4.90184 0.10555,4.547443 -2.68441,7.90331 -5.27204,11.344063 -2.87298,3.2762 -6.37473,5.833224 -9.89739,8.337596 -2.09124,1.271547 0.67944,1.630667 1.89656,2.172777 3.76538,0.99567 7.29458,2.59907 10.74302,4.38732 2.82308,1.85593 6.02948,3.40003 7.81607,6.36437 0.47843,1.02013 0.2774,0.53176 0.61942,1.45828 0,0 -2.84632,0.10174 -2.84632,0.10174 l 0,0 c -0.33695,-0.89224 -0.13864,-0.422 -0.61135,-1.40371 -1.80146,-2.88438 -5.01586,-4.39413 -7.78828,-6.21198 -3.4565,-1.77821 -7.00611,-3.31853 -10.75412,-4.37109 -1.31799,-0.60359 -4.17863,-1.27598 -1.89979,-2.767258 3.50067,-2.503638 7.02691,-4.995046 9.90482,-8.250178 2.54119,-3.368356 5.33429,-6.64041 5.25625,-11.099069 -0.26625,-1.159215 -0.34285,-1.991231 -0.97974,-3.004612 -0.2358,-0.375184 -0.53279,-0.717827 -0.87049,-1.00475 -0.36478,-0.309938 -1.19563,-0.288271 -1.21429,-0.76658 -0.0155,-0.398439 1.56811,-0.291418 1.17579,-0.220138 -0.68344,0.124172 -1.36611,0.252546 -2.04916,0.378819 -6.4098,2.16894 -11.89862,6.792846 -16.21291,11.904067 -5.43283,6.986651 -10.05155,14.677369 -13.36064,22.900649 -1.08396,2.92656 -2.25234,5.942 -2.99883,8.98009 -0.1644,0.66906 -0.26008,1.35615 -0.31284,2.04309 -0.035,0.45575 0.39369,1.06825 0.0507,1.37034 -0.73614,0.64826 -1.84095,0.67788 -2.76143,1.01682 0.48158,-2.67059 0.63931,-5.39021 0.80519,-8.09412 0.21114,-7.16206 -0.59975,-14.10585 -3.09917,-20.880543 0,0 2.82688,-0.09099 2.82688,-0.09099 z" />
    <path
       style="fill:#000000;fill-opacity:1;stroke:#000000;stroke-width:10;stroke-miterlimit:4;stroke-opacity:1;stroke-dasharray:none"
       id="path3007"
       d="m 240.64593,134.03788 c 5.7109,-2.3196 11.38409,-5.51748 17.57169,-6.2895 4.35232,-0.22383 8.44161,-0.43897 7.86846,4.75076 -0.43196,3.96501 -3.11589,7.00727 -4.91512,10.40795 -1.44181,2.32277 -3.92922,4.147 -2.32495,6.86442 3.01219,2.25468 7.25948,2.08334 10.85962,2.26658 4.49259,0.22405 9.4688,0.22697 11.89936,-0.18175 0,0 2.80375,0.39283 2.80375,0.39283 l 0,0 c -5.70683,1.10244 -11.71377,0.0304 -17.49413,0.21589 -3.63311,-0.19869 -8.01276,-0.0207 -10.90847,-2.54654 -1.585,-2.88755 0.73675,-4.73421 2.3391,-7.14823 1.76411,-3.381 4.46312,-6.37703 4.90297,-10.30278 0.19491,-1.71748 0.25593,-3.43257 -1.77077,-4.04098 -0.45862,-0.13768 -1.00867,0.0456 -1.42339,-0.1938 -0.27822,-0.16058 0.64063,-0.0487 0.96094,-0.0731 -6.18901,0.60912 -11.86087,3.92154 -17.55976,6.19057 0,0 -2.8093,-0.31231 -2.8093,-0.31231 z" />
    <path
       style="fill:#000000;fill-opacity:1;stroke:#000000;stroke-width:10;stroke-miterlimit:4;stroke-opacity:1;stroke-dasharray:none"
       id="path3009"
       d="m 357.7881,396.57085 c 5.0522,-2.74454 9.4444,-7.36316 15.2351,-8.44897 1.3009,0.12443 2.65269,-0.008 3.90268,0.37329 2.27499,0.69383 1.10666,8.72555 0.92077,10.10501 -1.03869,8.41432 -3.22182,16.6418 -5.63595,24.75264 -2.4051,7.18053 -4.47143,14.51376 -7.09828,21.61836 -1.19194,2.76745 -2.48822,5.46782 -3.19281,8.40716 0,0 -2.8369,-0.0662 -2.8369,-0.0662 l 0,0 c 0.69618,-2.95688 1.99492,-5.66911 3.21316,-8.44121 2.64751,-7.09241 4.70928,-14.42548 7.12084,-21.59898 2.40987,-8.09549 4.59514,-16.30784 5.61274,-24.70939 0.33076,-2.4729 0.85147,-4.91923 0.28375,-7.39599 -0.11298,-0.49287 -0.24188,-0.99209 -0.47561,-1.44049 -0.17565,-0.33697 -0.97269,-0.58125 -0.73118,-0.87464 0.37229,-0.45227 1.15031,-0.22216 1.72546,-0.33324 -5.82104,0.8938 -10.20324,5.60093 -15.23309,8.32976 0,0 -2.81068,-0.27713 -2.81068,-0.27713 z" />
    <path
       style="fill:#000000;fill-opacity:1;stroke:#000000;stroke-width:10;stroke-miterlimit:4;stroke-opacity:1;stroke-dasharray:none"
       id="path3011"
       d="m 411.46983,400.54199 c -5.16081,10.30855 -9.23616,21.09052 -13.74382,31.68671 -2.5737,6.73117 -5.31136,13.38169 -8.11682,20.01969 0,0 -2.81531,-0.11306 -2.81531,-0.11306 l 0,0 c 2.82773,-6.63423 5.58292,-13.28191 8.15804,-20.01832 4.5137,-10.59929 8.60523,-21.37694 13.70128,-31.72138 0,0 2.81663,0.14636 2.81663,0.14636 z" />
    <path
       style="fill:#000000;fill-opacity:1;stroke:#000000;stroke-width:10;stroke-miterlimit:4;stroke-opacity:1;stroke-dasharray:none"
       id="path3013"
       d="m 451.81506,397.33541 c -4.72941,9.70923 -10.061,19.10456 -15.18782,28.60571 -3.92404,8.76868 -9.13807,16.81413 -14.02051,25.05136 -1.75164,3.15253 -3.62004,6.42734 -6.874,8.20332 0,0 -2.82213,-0.31072 -2.82213,-0.31072 l 0,0 c 3.31675,-1.59456 5.13227,-4.9629 6.89018,-8.04317 4.90045,-8.22866 10.12765,-16.26833 14.0549,-25.03799 5.11816,-9.49438 10.45764,-18.87591 15.13582,-28.59952 0,0 2.82356,0.13101 2.82356,0.13101 z" />
    <path
       style="fill:#000000;fill-opacity:1;stroke:#000000;stroke-width:10;stroke-miterlimit:4;stroke-opacity:1;stroke-dasharray:none"
       id="path3015"
       d="m 414.88231,430.01239 c 4.29017,1.75554 2.11714,0.84653 6.51769,2.73037 0,0 -2.78946,0.32706 -2.78946,0.32706 l 0,0 c -4.40549,-1.87732 -2.2267,-0.97708 -6.53454,-2.70508 0,0 2.80631,-0.35235 2.80631,-0.35235 z" />
    <path
       style="fill:#000000;fill-opacity:1;stroke:#000000;stroke-width:10;stroke-miterlimit:4;stroke-opacity:1;stroke-dasharray:none"
       id="path3017"
       d="m 731.38591,395.9429 c 5.59876,-7.27052 12.1018,-13.78415 19.71018,-18.92141 5.14462,-2.70857 12.6094,-5.88931 16.68864,0.0891 2.72507,6.66007 0.36526,13.75484 -2.23155,20.05244 -3.30338,6.96836 -7.15214,13.44393 -12.87176,18.66612 -3.27291,3.18704 -7.47277,4.92758 -11.30215,7.25056 -0.24466,0.64177 6.07585,1.14833 3.01068,0.24568 3.74027,-0.98355 7.51304,-1.799 11.35394,-2.25786 2.56165,-0.22584 5.13263,-0.33408 7.70348,-0.37392 0.13362,-10e-4 0.26724,-0.002 0.40086,-0.003 0,0 2.81686,0.44498 2.81686,0.44498 l 0,0 c -0.13435,5e-5 -0.2687,1e-4 -0.40304,1.6e-4 -2.5743,0.0272 -5.14839,0.13482 -7.71461,0.34276 -3.84181,0.43282 -7.62088,1.22318 -11.35139,2.2384 -0.47578,0.0367 -8.96676,1.58015 -8.64453,-0.92607 3.78814,-2.37228 8.06892,-3.98847 11.32681,-7.1961 5.73995,-5.16061 9.57058,-11.60637 12.87517,-18.54144 2.56757,-6.1933 4.95408,-13.22267 2.2088,-19.76905 -0.42239,-0.57882 -0.84479,-1.15765 -1.26718,-1.73647 -0.56799,-0.28742 -1.26467,-0.40157 -1.70397,-0.86226 -0.15499,-0.16254 0.8355,-0.29022 0.61101,-0.28392 -3.15556,0.0885 -6.04124,1.31076 -8.71681,2.89416 -7.61459,5.07592 -14.10662,11.56037 -19.68001,18.81319 0,0 -2.81943,-0.16597 -2.81943,-0.16597 z" />
    <path
       style="fill:#000000;fill-opacity:1;stroke:#000000;stroke-width:10;stroke-miterlimit:4;stroke-opacity:1;stroke-dasharray:none"
       id="path3021"
       d="m 789.21885,445.78819 c 6.34214,-1.97224 12.33853,-4.81592 18.11403,-8.06622 4.9091,-2.41197 9.79958,-4.8219 14.48648,-7.65605 3.33858,-2.13902 6.32518,-4.75021 9.22883,-7.43453 1.9325,-2.2505 1.76049,-4.68138 1.05367,-7.37708 -1.62116,-4.15133 -3.8686,-8.00332 -5.50158,-12.14272 -1.23042,-4.3854 0.272,-7.83113 3.46252,-10.84262 4.3774,-3.1418 9.39707,-2.82895 14.17833,-0.81218 3.19472,1.48622 5.59542,4.42925 7.22131,7.50244 1.29973,2.71067 1.33771,5.73359 1.42022,8.67676 0.0415,3.39724 0.004,6.79485 -0.0135,10.19215 -0.14417,3.10806 0.3118,6.26746 -0.36363,9.3175 -1.30615,3.18715 -1.89449,6.16267 -0.56106,9.41564 1.72715,2.9946 5.08491,4.67952 8.25774,5.75068 4.35535,1.36036 7.79762,0.2426 12.65891,-0.42484 0,0 2.79082,0.40311 2.79082,0.40311 l 0,0 c -6.0306,0.82631 -12.27191,2.13303 -18.25888,0.37091 -3.21697,-1.1474 -6.58743,-2.89057 -8.28125,-5.9919 -1.29703,-3.31246 -0.80526,-6.35241 0.55807,-9.58641 0.69267,-3.02415 0.20464,-6.17139 0.36578,-9.25606 0.0155,-3.39422 0.0539,-6.78878 0.011,-10.18291 -0.0796,-2.9004 -0.12104,-5.88006 -1.41744,-8.54497 -1.64581,-3.02259 -4.0024,-5.8865 -7.19662,-7.30965 -4.26779,-1.73388 -4.06247,-1.84745 -8.54787,0.71308 -3.18181,2.87495 -4.67247,6.22011 -3.4618,10.50268 1.65109,4.14407 3.90615,8.00708 5.51329,12.17695 0.7254,2.79312 0.87268,5.31916 -1.05799,7.68347 -2.91789,2.69297 -5.90832,5.32364 -9.24834,7.48994 -4.68786,2.84392 -9.56858,5.27942 -14.49797,7.66342 -5.76884,3.27304 -11.76814,6.12484 -18.1068,8.12177 0,0 -2.80632,-0.35236 -2.80632,-0.35236 z" />
    <path
       style="fill:#000000;fill-opacity:1;stroke:#000000;stroke-width:10;stroke-miterlimit:4;stroke-opacity:1;stroke-dasharray:none"
       id="path3023"
       d="m 5.6705627,370.55803 c 3.868443,-4.74124 7.3327553,-10.01208 12.9601973,-12.76215 5.021196,-1.82483 7.736422,0.006 9.583474,4.33112 1.065651,6.05045 -0.890764,11.75879 -2.705561,17.43431 -2.695499,7.19277 -6.472878,14.07899 -11.098669,20.21367 -1.046838,2.04939 -6.5368388,6.31876 -4.248903,8.95087 3.234202,0.5295 6.427207,1.25562 9.649813,1.9936 3.177937,0.74689 6.422226,1.15393 9.676726,1.35279 1.778628,0.0779 3.559054,0.0825 5.338987,0.0883 0,0 -2.80503,0.44313 -2.80503,0.44313 l 0,0 c -1.781032,-0.008 -3.562725,-0.0152 -5.342007,-0.10502 -3.254144,-0.21631 -6.495489,-0.64714 -9.672172,-1.40012 -3.232528,-0.75085 -6.560918,-1.26486 -9.6872343,-2.18515 -2.1641618,-3.09371 2.9411263,-6.94468 4.2851183,-9.32066 4.64165,-6.0862 8.395587,-12.96174 11.097742,-20.11812 1.786238,-5.60973 3.756371,-11.25133 2.682144,-17.23177 -0.581625,-1.31976 -0.751402,-2.0078 -1.697582,-3.07801 -0.996241,-1.12684 -2.010186,-1.29979 -1.999994,-1.31255 0.309391,-0.38752 1.816305,-0.55371 1.474922,-0.19405 -0.409077,0.43097 -1.14891,0.30386 -1.723365,0.45579 -5.675811,2.60844 -9.10682,7.91558 -12.9470523,12.63466 0,0 -2.821554,-0.19067 -2.821554,-0.19067 z" />
    <path
       style="fill:#000000;fill-opacity:1;stroke:#000000;stroke-width:10;stroke-miterlimit:4;stroke-opacity:1;stroke-dasharray:none"
       id="path3025"
       d="m 54.933139,420.07391 c 8.354517,-3.0144 16.513929,-6.49381 24.643138,-10.06881 6.956469,-3.31821 13.606048,-7.36122 19.11629,-12.7806 3.802973,-3.57446 4.920153,-8.13407 5.498913,-13.11498 0.31561,-3.93973 0.23159,-7.89628 0.1868,-11.84417 0.43191,-3.81115 2.69496,-6.50584 5.6289,-8.78266 4.18964,-2.5029 8.78794,-3.8314 13.53204,-4.78073 5.21399,-0.418 9.58753,0.12181 13.11538,4.11004 2.24372,3.767 1.81502,8.07931 1.14554,12.21278 -1.82495,6.7061 -5.1545,12.81081 -8.41074,18.89771 -2.51773,4.70305 -5.41791,9.17008 -6.93629,14.31867 -0.63306,4.7375 1.7161,7.66468 5.74208,9.76265 3.18613,1.4534 6.46596,1.61883 9.89696,1.72301 0,0 -2.7725,0.42881 -2.7725,0.42881 l 0,0 c -3.4469,-0.14557 -6.74723,-0.34276 -9.93031,-1.84795 -4.07526,-2.24441 -6.41295,-5.30655 -5.76243,-10.14716 1.5091,-5.17547 4.41244,-9.66195 6.9573,-14.37593 3.24213,-6.06083 6.56712,-12.12948 8.39364,-18.80516 0.65567,-4.0444 1.11092,-8.29841 -1.1523,-11.96009 -2.34353,-2.5713 -4.64258,-3.28796 -7.98607,-3.8923 -0.16388,-0.0296 0.33211,-0.0251 0.49817,-0.0376 -4.73297,0.92251 -9.30325,2.21834 -13.51064,4.65346 -2.9132,2.17466 -5.15852,4.79687 -5.61491,8.51925 0.0453,3.95992 0.11897,7.92847 -0.19311,11.8802 -0.58852,5.03304 -1.68633,9.67838 -5.5214,13.30449 -5.50071,5.47058 -12.175037,9.52956 -19.145975,12.88053 -8.120442,3.58147 -16.27888,7.04704 -24.612163,10.09891 0,0 -2.806313,-0.35235 -2.806313,-0.35235 z" />
    <path
       style="fill:#000000;fill-opacity:1;stroke:#000000;stroke-width:10;stroke-miterlimit:4;stroke-opacity:1;stroke-dasharray:none"
       id="path3027"
       d="m -492.87536,503.66772 c 0.74938,13.46661 2.85859,26.79364 4.83911,40.11834 1.74802,12.31059 3.34248,24.69347 6.39511,36.76202 0.69581,2.74245 1.40086,5.48254 2.11614,8.21997 0.12558,0.48056 0.16091,0.99472 0.37848,1.44124 0.1196,0.24545 0.85253,0.65712 0.59705,0.56077 -0.66406,-0.25043 -1.23973,-0.69127 -1.85959,-1.0369 2.19167,-7.60416 1.98661,-15.84169 2.7364,-23.7212 1.06182,-10.51611 1.14461,-21.08084 2.64695,-31.54743 0.65798,-5.26164 1.58167,-10.57502 4.08252,-15.30291 1.17402,-2.1523 0.604,-1.1118 1.70935,-3.12187 0,0 2.83141,0.14276 2.83141,0.14276 l 0,0 c -1.10926,2.00763 -0.53807,0.96831 -1.71255,3.11851 -2.54255,4.67022 -3.42801,9.98425 -4.10944,15.20374 -1.52367,10.46015 -1.61481,21.02011 -2.66624,31.53348 -0.7495,7.94868 -0.55303,16.21526 -2.68828,23.90869 -1.26932,0.34605 -2.49609,0.93852 -3.80795,1.03815 -0.74844,0.0568 -2.7338,-9.41508 -3.05412,-10.36811 -3.01156,-12.08502 -4.59905,-24.47272 -6.34638,-36.79027 -1.98703,-13.34025 -4.08979,-26.68177 -4.90868,-40.15898 0,0 2.82071,0 2.82071,0 z" />
    <path
       style="fill:#000000;fill-opacity:1;stroke:#000000;stroke-width:10;stroke-miterlimit:4;stroke-opacity:1;stroke-dasharray:none"
       id="path3029"
       d="m -426.01478,570.99863 c -4.53518,4.25112 -9.04121,8.56092 -12.68924,13.6113 -1.9645,4.05469 -0.11898,7.3029 2.07679,10.72503 1.69143,3.31809 3.19449,6.70242 4.79429,10.07001 1.30438,2.88518 1.54798,5.07103 -1.59401,6.46108 -5.26007,1.15336 -10.74648,0.76461 -16.06997,0.42346 0,0 2.79158,-0.40672 2.79158,-0.40672 l 0,0 c -0.31629,0.98971 9.00096,-0.0813 10.45784,-0.35226 3.15056,-1.17169 2.85036,-3.20243 1.58216,-5.99996 -1.59175,-3.35672 -3.08062,-6.73943 -4.78787,-10.03438 -2.25442,-3.52241 -4.03271,-6.90715 -2.07035,-11.06269 3.65446,-5.07288 8.17096,-9.38965 12.69214,-13.68794 0,0 2.81664,0.25307 2.81664,0.25307 z" />
    <path
       style="fill:#000000;fill-opacity:1;stroke:#000000;stroke-width:10;stroke-miterlimit:4;stroke-opacity:1;stroke-dasharray:none"
       id="path3035"
       d="m -374.20534,653.25173 c -5.62078,-9.66652 -7.64159,-20.68244 -8.41047,-31.6908 0.035,-11.44636 -0.11789,-22.9881 1.1619,-34.37872 0.65821,-4.67656 1.44535,-9.34311 2.56147,-13.93428 0.0762,-0.35237 0.18928,-0.69425 0.29419,-1.03829 0,0 2.8532,0.0957 2.8532,0.0957 l 0,0 c -0.10967,0.33433 -0.22961,0.66587 -0.30296,1.01148 -1.14927,4.57368 -1.94422,9.23089 -2.60922,13.89691 -1.30097,11.37136 -1.15908,22.89863 -1.18614,34.32777 0.76945,10.96484 2.78758,21.95101 8.45746,31.54421 0,0 -2.81943,0.16597 -2.81943,0.16597 z" />
    <path
       style="fill:#000000;fill-opacity:1;stroke:#000000;stroke-width:10;stroke-miterlimit:4;stroke-opacity:1;stroke-dasharray:none"
       id="path3037"
       d="m -399.35476,619.42799 c 6.74264,-3.94006 13.68328,-7.61554 20.93868,-10.52546 4.82898,-1.78258 9.95555,-2.27592 15.05685,-2.508 3.28531,-0.0708 6.57392,-0.10206 9.85907,-0.006 0.10722,0.004 0.21445,0.008 0.32167,0.0127 0,0 -2.81935,0.43608 -2.81935,0.43608 l 0,0 c -0.10634,-0.004 -0.21269,-0.007 -0.31903,-0.0106 -0.73255,-0.019 -2.93039,-0.012 -2.19805,-0.0377 0.49572,-0.0174 1.98407,-0.0115 1.48808,-0.006 -4.39065,0.0492 1.35476,-0.0469 -3.53424,0.0422 -5.09723,0.21092 -10.22411,0.66817 -15.06149,2.4118 -7.2584,2.86847 -14.18487,6.54485 -20.92151,10.46805 0,0 -2.81068,-0.27713 -2.81068,-0.27713 z" />
  </g>
</svg>
