<?xml version="1.0" encoding="UTF-8" standalone="no"?>
<!-- Created with Inkscape (http://www.inkscape.org/) -->

<svg
   xmlns:dc="http://purl.org/dc/elements/1.1/"
   xmlns:cc="http://creativecommons.org/ns#"
   xmlns:rdf="http://www.w3.org/1999/02/22-rdf-syntax-ns#"
   xmlns:svg="http://www.w3.org/2000/svg"
   xmlns="http://www.w3.org/2000/svg"
   xmlns:sodipodi="http://sodipodi.sourceforge.net/DTD/sodipodi-0.dtd"
   xmlns:inkscape="http://www.inkscape.org/namespaces/inkscape"
   width="1107.5858"
   height="572.59247"
   id="svg3041"
   version="1.1"
   inkscape:version="0.47pre4 r22446"
   sodipodi:docname="c9d3.svg">
  <defs
     id="defs3043">
    <inkscape:perspective
       sodipodi:type="inkscape:persp3d"
       inkscape:vp_x="0 : 526.18109 : 1"
       inkscape:vp_y="0 : 1000 : 0"
       inkscape:vp_z="744.09448 : 526.18109 : 1"
       inkscape:persp3d-origin="372.04724 : 350.78739 : 1"
       id="perspective3049" />
  </defs>
  <sodipodi:namedview
     id="base"
     pagecolor="#ffffff"
     bordercolor="#666666"
     borderopacity="1.0"
     inkscape:pageopacity="0.0"
     inkscape:pageshadow="2"
     inkscape:zoom="0.35"
     inkscape:cx="699.01008"
     inkscape:cy="236.36281"
     inkscape:document-units="px"
     inkscape:current-layer="layer1"
     showgrid="false"
     inkscape:window-width="1280"
     inkscape:window-height="726"
     inkscape:window-x="0"
     inkscape:window-y="25"
     inkscape:window-maximized="1" />
  <metadata
     id="metadata3046">
    <rdf:RDF>
      <cc:Work
         rdf:about="">
        <dc:format>image/svg+xml</dc:format>
        <dc:type
           rdf:resource="http://purl.org/dc/dcmitype/StillImage" />
        <dc:title></dc:title>
      </cc:Work>
    </rdf:RDF>
  </metadata>
  <g
     inkscape:label="Layer 1"
     inkscape:groupmode="layer"
     id="layer1"
     transform="translate(324.01008,-196.13251)">
    <path
       style="fill:#000000;fill-opacity:1;stroke:#000000;stroke-width:10;stroke-miterlimit:4;stroke-opacity:1;stroke-dasharray:none"
       id="path3051"
       d="m -179.57993,544.66282 c -4.85336,-10.09395 -5.7581,-21.21168 -5.39737,-32.2322 1.21164,-16.95872 9.02832,-31.99092 17.8677,-46.14091 7.57338,-10.83425 17.34708,-20.49848 29.8695,-25.38344 2.12806,-0.83015 4.37774,-1.30632 6.56661,-1.95948 18.80062,-1.71631 27.21648,4.18348 38.303737,18.41739 9.086626,14.26771 13.457378,30.87837 13.43358,47.76738 -0.0054,3.86063 -0.447683,7.70828 -0.671525,11.56242 -1.848995,23.74306 -10.503971,45.40064 -22.606692,65.62303 -7.99067,11.23456 -17.94944,23.14477 -32.15314,26.29415 -2.15484,0.4778 -4.39467,0.41646 -6.59201,0.62469 -3.05834,-0.34128 -6.1859,-0.2923 -9.17501,-1.02385 -10.26635,-2.51256 -17.51038,-12.08018 -21.49812,-21.22829 -1.33295,-3.05787 -2.1947,-6.3002 -3.29206,-9.45029 -2.79394,-14.11317 -1.79399,-6.92506 -2.94695,-21.57163 0,0 2.70895,-0.0214 2.70895,-0.0214 l 0,0 c 1.1603,14.60248 0.15553,7.43786 2.96054,21.50135 5.63057,16.02814 10.79036,27.0521 28.50398,31.38541 2.19635,-0.18595 4.43311,-0.0991 6.58904,-0.55786 14.20546,-3.023 24.19436,-14.91352 32.18476,-26.09885 12.122011,-20.16792 20.770471,-41.78612 22.613701,-65.49211 0.221911,-3.84371 0.662727,-7.68101 0.665733,-11.53112 0.01315,-16.83996 -4.362092,-33.40126 -13.466869,-47.60075 -7.157235,-9.11112 -11.735755,-13.63857 -22.816675,-17.55389 -1.16744,-0.4125 -2.32153,-0.98563 -3.55676,-1.07105 -2.14694,-0.14846 -4.2967,0.25294 -6.44505,0.37941 -2.18919,0.63832 -4.43877,1.09753 -6.56758,1.91496 -12.52168,4.80815 -22.30021,14.43496 -29.87745,25.22678 -8.82952,14.10021 -16.63347,29.08466 -17.83665,45.99694 -0.35603,10.97969 0.55959,22.06067 5.45564,32.09218 0,0 -2.82356,0.13101 -2.82356,0.13101 z" />
    <path
       style="fill:#000000;fill-opacity:1;stroke:#000000;stroke-width:10;stroke-miterlimit:4;stroke-opacity:1;stroke-dasharray:none"
       id="path3053"
       d="m -132.50134,607.4311 c 1.46893,-11.83497 2.04446,-23.76121 3.04676,-35.64497 1.10125,-17.85098 2.22723,-35.69241 3.49801,-53.53367 0.90508,-13.07224 1.38615,-26.16741 1.63205,-39.267 0.053,-3.9393 0.10593,-7.87945 0.0658,-11.81916 -0.003,-0.009 -0.006,-0.0186 -0.009,-0.0279 0.94729,0.40566 2.14092,0.46162 2.84187,1.21699 0.0703,0.0757 -1.87945,6.81379 -2.082,7.40047 -1.79653,5.32278 -4.11317,10.46995 -7.00299,15.28796 -0.44507,0.67963 -0.85289,1.38517 -1.33521,2.03889 -0.34124,0.4625 -0.76518,0.85826 -1.13002,1.30239 -0.2466,0.30018 -0.42262,1.09873 -0.75104,0.8912 -2.70719,-1.71069 -2.4188,-1.04418 -0.95344,-3.08834 3.40068,-4.78829 6.54761,-9.7619 9.97614,-14.55702 4.19655,-5.92384 5.12006,-6.79157 12.27733,-6.19895 4.52216,3.19765 5.45126,9.37724 6.97167,14.34651 0,0 -2.80664,0.0834 -2.80664,0.0834 l 0,0 c -1.4874,-4.85082 -2.39696,-11.09192 -6.97555,-14.04942 0.42513,-0.11432 1.61685,-0.0651 1.27538,-0.34296 -1.78236,-1.45029 -7.33737,5.17448 -7.93242,6.3361 -3.43078,4.79195 -6.58543,9.75673 -9.95904,14.559 -1.87277,2.58691 -0.38415,1.1766 -4.70402,2.54377 -0.87255,0.27615 1.34128,-1.25876 1.8917,-1.98995 0.48709,-0.64704 0.89263,-1.35163 1.33894,-2.02744 2.89686,-4.79276 5.20973,-9.922 6.995,-15.22935 0.23926,-0.68915 1.821,-7.10523 2.06549,-7.30784 0.79968,-0.66269 1.90349,-0.83143 2.85524,-1.24714 2.8e-4,0.0193 5.7e-4,0.0385 8.5e-4,0.0578 0.0102,3.94248 -0.0525,7.88484 -0.11547,11.82667 -0.28813,13.10404 -0.77688,26.20377 -1.69035,39.28088 -1.28272,17.84166 -2.40335,35.68386 -3.48814,53.53709 -0.99024,11.89097 -1.56059,23.82028 -2.96817,35.66869 0,0 -2.82906,-0.0467 -2.82906,-0.0467 z" />
    <path
       style="fill:#000000;fill-opacity:1;stroke:#000000;stroke-width:10;stroke-miterlimit:4;stroke-opacity:1;stroke-dasharray:none"
       id="path3055"
       d="m -124.61344,450.33496 c -1.78172,-12.22078 -0.94682,-24.67165 -0.0899,-36.93894 1.4326,-19.00275 3.10015,-37.99086 5.02631,-56.9504 1.53676,-18.01734 3.79033,-35.96143 5.40358,-53.97086 0.33074,-9.56231 1.64884,-18.99143 3.16189,-28.4203 0.54643,-3.23129 -0.009,-6.39446 3.56762,-7.42551 5.72663,-1.01191 11.697761,0.47215 17.374269,-0.63715 13.66871,-1.04297 27.315624,-2.33226 40.983837,-3.38673 21.432722,-1.9672 42.8527349,-4.08047 64.178097,-7.00358 22.766873,-2.40769 45.159573,-7.0173 67.540759,-11.67259 15.946364,-3.4896 31.968988,-6.67234 48.060268,-9.4233 7.56774,-1.05723 15.10939,-1.84103 22.54727,-3.62093 4.48086,-1.13216 3.91573,-1.98032 8.29813,-0.0205 0.97229,5.13766 1.73539,10.28463 2.15535,15.51017 -0.46622,12.10192 -1.27536,24.18613 -1.69282,36.2933 -0.42293,14.54655 -0.48014,29.10017 -0.5192,43.65176 -0.0828,11.90798 -0.24541,23.78303 0.81629,35.64987 0.73351,7.25567 1.4698,14.50977 1.88571,21.79144 0.18417,3.78865 0.20351,7.5825 0.21309,11.37479 5.7e-4,0.98029 0.002,1.96063 -0.008,2.94089 0.51599,0.46279 1.16368,1.08506 1.70838,1.61803 0.36902,0.36094 0.73617,0.72377 1.10238,1.08756 0.70233,0.59591 1.42479,1.03115 2.13305,1.6623 5.54406,2.9978 10.80199,6.48907 15.86157,10.23783 9.06885,6.43465 18.22569,12.6924 27.06081,19.44702 7.59774,5.99405 15.06592,12.18069 22.30146,18.60597 2.33057,1.92902 4.48457,4.57423 7.27529,5.9169 0.29184,0.14042 1.25211,0.32115 0.94965,0.20536 -0.64083,-0.24533 -1.31357,-0.39741 -1.97035,-0.59611 0.17043,-0.35956 0.34086,-0.71913 0.51129,-1.0787 0,0 2.83784,0.11957 2.83784,0.11957 l 0,0 c -0.17277,0.40674 -0.34555,0.81348 -0.51832,1.22022 -1.2267,0.23554 -2.43574,0.59782 -3.68011,0.70664 -2.11899,0.18531 -6.64267,-5.18264 -8.2015,-6.25701 -7.23351,-6.41201 -14.67269,-12.61405 -22.27334,-18.58796 -8.83926,-6.75377 -18.00908,-13.0005 -27.07708,-19.4408 -5.08952,-3.74142 -10.38158,-7.18793 -15.90719,-10.25531 -0.71078,-0.59358 -1.4743,-1.06584 -2.15035,-1.68195 -0.36368,-0.36305 -0.72815,-0.72532 -1.09526,-1.08492 -0.59185,-0.57926 -1.326,-1.14563 -1.72379,-1.84965 0.0186,-0.97842 0.0209,-1.95706 0.0243,-2.93562 0.002,-3.78709 -0.0194,-7.5757 -0.19822,-11.35931 -0.39645,-7.2786 -1.12351,-14.53006 -1.8473,-21.7824 -1.05562,-11.87555 -0.88455,-23.75956 -0.79704,-35.67548 0.0477,-14.55444 0.11085,-29.11073 0.52354,-43.66036 0.40957,-12.09579 1.20995,-24.16981 1.64939,-36.26108 -0.42984,-5.21197 -1.20181,-10.34386 -2.18881,-15.46674 6.04514,-2.64118 -1.25277,0.33295 -2.65973,0.33033 -7.45617,1.79326 -15.0064,2.61083 -22.60109,3.63236 -16.11047,2.73446 -32.15016,5.91837 -48.113351,9.40589 -22.38989,4.6482 -44.785289,9.28763 -67.560965,11.68844 -21.3121585,2.93326 -42.720011,5.04603 -64.139718,7.02564 -13.649827,1.05028 -27.277022,2.3485 -40.926492,3.3965 -5.780359,0.26575 -11.560028,0.20206 -17.328084,0.59277 -3.90935,0.88247 -2.83342,3.69322 -3.56528,7.09728 -1.53273,9.42126 -2.88254,18.84142 -3.2231,28.39994 -1.63313,18.00959 -3.90278,35.95376 -5.43562,53.97363 -1.92101,18.95658 -3.58799,37.94126 -5.00275,56.94186 -0.84044,12.24558 -1.6756,24.68257 0.17235,36.87323 0,0 -2.82906,0.0467 -2.82906,0.0467 z" />
    <path
       style="fill:#000000;fill-opacity:1;stroke:#000000;stroke-width:10;stroke-miterlimit:4;stroke-opacity:1;stroke-dasharray:none"
       id="path3057"
       d="m 175.01364,463.36525 c -2.66781,8.72294 -3.41447,17.82144 -4.74602,26.7951 -1.92561,10.56227 -2.49068,21.28378 -2.87997,31.99118 -0.73364,13.52539 0.61054,27.01855 1.39622,40.50869 0.79988,14.16853 1.00151,28.36031 1.12587,42.54779 0.0829,12.36171 0.0687,24.72376 0.0688,37.08567 -0.004,8.67364 -0.002,17.34728 2.2e-4,26.02091 -0.004,6.75496 -0.001,13.50992 3.2e-4,20.26488 0.007,4.39373 0.005,8.78747 0.009,13.18121 -0.37813,3.74289 0.27894,7.1635 1.29385,10.72618 0.98372,3.57046 1.28896,7.25257 1.4688,10.93538 0.23524,3.25356 0.26496,6.33398 -0.69966,9.45476 -1.03068,3.16489 -1.56681,6.43279 -1.8733,9.7367 -0.0717,1.79642 0.004,3.28225 -1.01953,4.78335 -2.51053,2.00653 -6.00438,2.01964 -9.06744,2.19046 -8.16427,0.0162 -16.27418,0.26355 -24.40942,0.96298 -14.77325,0.89067 -29.52234,2.02941 -44.282083,3.12919 -17.699916,1.3383 -35.422582,1.69579 -53.149737,0.86044 -15.362495,-0.58061 -30.7592463,-2.00655 -46.1392067,-1.41706 -12.3835673,0.61976 -24.7716623,1.11495 -37.0657183,2.77046 -8.449179,1.24605 -16.955509,1.79083 -25.404394,3.02518 -8.880755,0.92697 -17.710371,2.08823 -26.549555,3.34977 -6.108926,0.61133 -12.512386,2.39652 -18.609146,0.82692 -3.57245,-2.48121 -2.98033,-7.83921 -3.09346,-11.68545 -0.29341,-10.52026 0.053,-21.00266 0.84643,-31.49102 1.10925,-13.77179 2.97889,-27.4544 3.97981,-41.2404 0.7572,-10.99574 0.90476,-22.01894 0.97842,-33.03634 0.31653,-6.94269 -1.11885,-13.77855 -2.08682,-20.61639 -0.57674,-3.85667 -0.64567,-7.70704 -0.35811,-11.58376 0,0 2.81187,0.0207 2.81187,0.0207 l 0,0 c -0.28244,3.85736 -0.20358,7.68671 0.36923,11.52354 0.96164,6.8515 2.38069,13.70334 2.05334,20.65778 -0.0737,11.0237 -0.23187,22.05336 -1.00059,33.05458 -1.00544,13.78577 -2.8748,27.46878 -3.97688,41.24114 -0.78691,10.47881 -1.11611,20.95182 -0.80347,31.46151 0.11897,3.68896 -0.51031,9.07914 3.091,11.31815 0.51661,0.12099 1.12192,0.0493 1.54985,0.36296 0.21709,0.15914 -1.0516,0.20064 -0.78244,0.1996 4.10374,-0.0158 8.18731,-1.08051 12.260553,-1.41221 8.839763,-1.25612 17.664219,-2.44709 26.547986,-3.34888 8.45232,-1.24118 16.958144,-1.79912 25.414155,-3.02691 12.30872,-1.66901 24.709614,-2.17204 37.109795,-2.7944 17.2075316,-0.32417 34.39456,0.4247 51.574214,1.42324 15.919779,0.7388 31.818607,0.3919 47.716803,-0.85266 14.747514,-1.09606 29.482614,-2.25199 44.244144,-3.13152 8.12249,-0.7073 16.21706,-0.99254 24.37064,-0.97833 3.03265,-0.15213 6.41849,-0.15972 9.01938,-1.93658 1.03338,-1.4454 0.9496,-2.86745 1.02318,-4.63642 0.31171,-3.32291 0.84417,-6.61041 1.87592,-9.79563 0.96224,-3.08843 0.93415,-6.1313 0.70169,-9.35554 -0.18075,-3.66128 -0.48272,-7.3226 -1.46897,-10.87058 -1.02324,-3.58585 -1.66126,-7.04106 -1.29394,-10.80488 0.004,-4.39374 0.002,-8.78748 0.009,-13.18121 0.002,-6.75499 0.004,-13.50998 0.004,-20.26497 0.008,-8.67366 0.0209,-17.34731 0.0278,-26.02097 0.0129,-12.36104 0.0239,-24.72224 -0.0507,-37.08312 -0.12109,-14.18291 -0.32139,-28.37013 -1.12057,-42.53408 -0.79123,-13.49887 -2.13964,-27.00018 -1.416,-40.53487 0.38756,-10.71695 0.93832,-21.45086 2.86958,-32.02217 1.33061,-8.98443 2.08412,-18.08913 4.71324,-26.83263 0,0 2.8229,0.0786 2.8229,0.0786 z" />
    <path
       style="fill:#000000;fill-opacity:1;stroke:#000000;stroke-width:10;stroke-miterlimit:4;stroke-opacity:1;stroke-dasharray:none"
       id="path3059"
       d="m 175.22114,227.14943 c 9.39054,2.25532 18.89966,4.12091 28.4356,5.66814 11.29322,1.65837 22.71887,1.93626 34.11184,2.1305 11.99684,0.61874 23.90193,-0.32753 35.85073,-1.19825 12.03073,-0.68205 23.99309,-2.28848 35.85513,-4.36846 8.39771,-1.51238 16.83918,-3.08255 25.12054,-5.15991 5.42472,-1.56661 10.96274,-2.6571 16.57961,-3.20397 4.21769,-0.32002 8.27658,-1.65299 12.43895,-2.38748 3.51231,-0.54253 6.7549,-2.01752 10.21971,-2.81612 5.51267,-1.58633 7.06695,1.07997 8.66646,5.59073 2.04316,6.71051 3.13283,13.56312 3.79323,20.53044 0.8087,12.32149 0.77784,24.6793 0.82486,37.02157 0.0218,13.39372 0.006,26.78746 -0.002,40.18119 -0.50292,9.55817 -1.65428,19.06367 -2.33651,28.60909 -0.35145,5.31715 -0.47482,10.64529 -0.51859,15.97266 -0.0104,2.26858 -10e-4,4.5372 0.0111,6.80575 0.002,0.091 0.004,0.1821 0.006,0.27315 0,0 -2.85349,0.003 -2.85349,0.003 l 0,0 c 2.8e-4,-0.0916 5.5e-4,-0.18318 8.2e-4,-0.27476 -0.006,-2.26977 -0.0159,-4.53957 0.005,-6.80931 0.048,-5.33353 0.19052,-10.66738 0.54232,-15.99043 0.69393,-9.53878 1.85722,-19.03711 2.36923,-28.58912 0.0136,-13.39329 0.0402,-26.78661 0.0105,-40.17989 -0.0484,-12.33391 -0.0254,-24.68414 -0.85555,-36.99601 -0.66837,-6.94478 -1.76481,-13.77591 -3.823,-20.45974 -0.56348,-1.55479 -0.72708,-2.29419 -1.59873,-3.66539 -1.02341,-1.60993 -1.78697,-1.72887 -1.73658,-1.7709 0.43904,-0.36627 1.18228,-0.3739 1.70866,-0.15066 0.43948,0.18638 -0.93637,0.18642 -1.40456,0.27963 -3.47892,0.77916 -6.7207,2.24289 -10.22617,2.82995 -4.17259,0.71271 -8.23142,2.05901 -12.44652,2.40845 -5.61964,0.52031 -11.1644,1.58615 -16.58829,3.15913 -8.27971,2.11578 -16.74712,3.638 -25.14693,5.17726 -11.86956,2.08561 -23.83814,3.71256 -35.87787,4.3935 -13.76301,1.00378 -27.5233,1.72872 -41.33059,1.21476 -11.39858,-0.19934 -22.82992,-0.48892 -34.12605,-2.16894 -9.54936,-1.56306 -19.07628,-3.41994 -28.47881,-5.69531 0,0 2.80044,-0.36399 2.80044,-0.36399 z" />
    <path
       style="fill:#000000;fill-opacity:1;stroke:#000000;stroke-width:10;stroke-miterlimit:4;stroke-opacity:1;stroke-dasharray:none"
       id="path3061"
       d="m 338.13712,397.53356 c 11.20824,-1.37885 22.30835,-3.57709 33.35788,-5.88715 15.47406,-3.42255 30.66127,-7.94687 45.8191,-12.53848 9.94931,-3.27417 20.19711,-5.37834 30.58896,-6.55871 4.3929,-0.49548 8.80412,-0.50909 13.2159,-0.46568 0.15774,0.008 0.31548,0.0164 0.47322,0.0246 0,0 -2.81793,0.43211 -2.81793,0.43211 l 0,0 c -0.15579,-0.007 -0.31159,-0.0145 -0.46738,-0.0217 6.34117,-0.0887 -7.44409,0.089 -7.62343,0.43935 -10.40664,1.15209 -20.67297,3.22678 -30.63543,6.50102 -15.15644,4.59375 -30.34348,9.1153 -45.8104,12.56404 -11.03094,2.31904 -22.11571,4.51522 -33.30433,5.91297 0,0 -2.79616,-0.40229 -2.79616,-0.40229 z" />
    <path
       style="fill:#000000;fill-opacity:1;stroke:#000000;stroke-width:10;stroke-miterlimit:4;stroke-opacity:1;stroke-dasharray:none"
       id="path3063"
       d="m 340.59421,455.36288 c 9.5483,1.80212 19.10688,1.4405 28.70929,0.55281 13.88723,-2.0011 27.36708,-6.00095 40.8356,-9.81458 9.66413,-3.36866 19.64968,-5.59151 29.51233,-8.26187 4.61188,-1.24724 9.29904,-2.15604 14.04089,-2.72118 0.49635,-0.20063 2.58409,0.23939 1.80542,-0.66143 0,0 2.84534,-0.1603 2.84534,-0.1603 l 0,0 c 0.76835,1.54094 -0.75012,1.06621 -1.84007,1.23356 -4.75205,0.54018 -9.44965,1.43341 -14.07067,2.67481 -9.8751,2.66776 -19.87584,4.87759 -29.54983,8.25372 -13.47626,3.80802 -26.95405,7.82532 -40.84127,9.86468 -11.41329,1.08627 -22.89942,1.33332 -34.24857,-0.5638 0,0 2.80154,-0.39642 2.80154,-0.39642 z" />
    <path
       style="fill:#000000;fill-opacity:1;stroke:#000000;stroke-width:10;stroke-miterlimit:4;stroke-opacity:1;stroke-dasharray:none"
       id="path3065"
       d="m 407.12692,460.46881 c 0.2623,10.09648 -0.99995,20.1353 -1.74376,30.18848 -0.87594,12.56122 -1.00005,25.15657 -1.10626,37.74259 -0.0866,16.03883 -0.0674,32.078 -0.0628,48.117 -0.64447,17.16023 -1.66717,34.29692 -3.14028,51.40456 -1.32232,14.40867 -1.99388,28.86396 -2.36773,43.32482 -0.50447,7.31512 -1.67988,14.55763 -2.51849,21.83695 0.14734,3.34911 1.22935,6.55186 1.84007,9.83263 0.50054,2.22179 -0.57199,4.36207 -1.87568,6.10389 -2.78286,2.36325 -6.37155,3.57631 -9.8407,4.54274 -9.44361,2.60067 -19.04374,4.55462 -28.52968,6.99642 -15.23446,3.91722 -30.75902,6.38545 -46.30626,8.66083 -16.65989,1.98641 -33.38821,3.35898 -50.05574,5.28055 -13.45674,1.569 -26.96034,2.99785 -40.28025,5.51591 -6.9341,1.31346 -13.71224,3.44524 -20.7906,3.32523 -1.66008,-0.43457 -1.41319,-1.82387 -1.38673,-3.24011 0,0 2.83508,0.005 2.83508,0.005 l 0,0 c -0.025,1.35919 -0.23042,2.49929 1.35925,2.80948 -0.49847,0.0355 -1.91249,0.38165 -1.4954,0.10642 0.53668,-0.35415 1.26241,-0.24511 1.89335,-0.36903 4.9493,-0.97208 9.89307,-1.97281 14.82682,-3.02116 13.32815,-2.54596 26.85082,-3.95222 40.31924,-5.53063 16.66663,-1.93426 33.39665,-3.2964 50.05835,-5.27188 15.53678,-2.26572 31.05072,-4.72653 46.27508,-8.63517 9.46766,-2.45119 19.05185,-4.40161 28.47971,-6.9991 3.44807,-0.92225 6.96181,-2.14153 9.80211,-4.36104 1.29351,-1.65814 2.36012,-3.71688 1.87394,-5.86647 -0.61306,-3.30774 -1.70856,-6.53747 -1.82823,-9.91761 0.86001,-7.27007 2.04343,-14.50431 2.56442,-21.81151 0.39727,-14.46607 1.0808,-28.92681 2.40586,-43.34096 1.47257,-17.09975 2.49514,-34.22852 3.13786,-51.38091 -0.007,-16.03976 -0.0301,-32.07968 0.0437,-48.11933 0.0967,-12.59203 0.2138,-25.19362 1.09019,-37.76085 0.74044,-10.04551 2.0068,-20.07928 1.69829,-30.16799 0,0 2.82527,0 2.82527,0 z" />
    <path
       style="fill:#000000;fill-opacity:1;stroke:#000000;stroke-width:10;stroke-miterlimit:4;stroke-opacity:1;stroke-dasharray:none"
       id="path3067"
       d="m 389.84139,214.9987 c 11.4039,1.05886 22.81927,1.864 34.26174,2.3489 14.19931,0.48644 28.40904,0.49482 42.61489,0.52573 15.91789,-0.52732 31.68667,-2.69955 47.44395,-4.85794 15.57222,-2.32888 31.01312,-5.40429 46.6115,-7.55737 9.98157,-1.07023 19.85477,-2.89211 29.83809,-3.96102 6.89279,-1.03404 13.70982,0.36803 20.51018,1.27973 3.01971,0.40817 6.06161,0.63509 9.10443,0.77961 1.71705,-0.16986 1.31481,1.28142 1.3353,2.68438 0.16775,5.30713 1.60444,10.53657 2.76067,15.70489 2.05638,10.10968 2.30401,20.45672 2.59088,30.73369 0.64974,12.69665 -0.0737,25.33001 -1.07311,37.97959 -0.47456,10.48563 -1.47551,20.8876 -2.77943,31.29662 -0.88717,6.77648 -1.34271,13.59558 -1.57335,20.42265 0.15793,4.21092 -0.15088,8.21639 -1.385,12.24543 -0.39992,1.19956 -0.84233,2.38922 -1.44208,3.50394 -1.1395,0.49296 -2.37759,1.08143 -3.48049,1.77863 -5.45957,2.93941 -10.7626,6.11554 -16.22709,9.05047 -6.37951,3.83433 -12.75466,7.7178 -18.83444,12.02023 -2.8243,2.1164 -8.29836,3.48445 -7.19115,7.83602 2.37327,2.92426 5.89454,4.56036 9.23629,6.1207 5.09503,2.08541 10.35817,3.68192 15.47245,5.71426 4.70985,1.65989 9.57123,2.91379 14.16641,4.88841 3.72611,1.49255 7.50903,2.87191 10.83884,5.14336 4.05648,3.10598 2.19775,5.00348 -1.03749,7.51765 -6.10764,3.50173 -12.52822,6.51468 -18.92531,9.46446 -6.98598,3.37558 -13.88981,7.17767 -20.07041,11.89088 -3.30577,2.80305 -9.0892,5.40756 -9.03685,10.41017 2.15824,4.16733 8.26829,4.14838 12.36547,4.57327 7.94939,0.57153 15.92825,0.51056 23.89339,0.51629 6.43315,-0.0152 12.8663,-0.0311 19.29945,-0.0422 3.99232,0.10191 7.92815,-0.68822 11.58473,0.99856 -4.4302,2.29296 -9.14548,3.95642 -13.76645,5.81505 -7.10303,2.75504 -14.11208,5.84741 -20.78833,9.5252 -5.60106,2.85451 -10.56491,6.78906 -15.62133,10.49661 -1.79589,1.92124 -7.27517,3.38403 -6.86193,6.56044 1.33953,2.50105 4.55858,3.67652 7.04439,4.78736 4.67822,2.04348 9.52492,3.14015 14.56585,3.844 6.07317,0.88177 12.2401,0.41035 18.30838,1.19853 3.38589,0.98015 7.16788,0.92375 10.46561,2.21683 0.0128,1.03487 -2.00387,2.00342 -2.8512,2.68865 -2.76622,1.7024 -5.69266,3.12604 -8.59182,4.6029 -2.96041,1.00521 -5.87559,1.9565 -8.76894,3.16113 -3.18555,0.89394 -6.23816,1.39977 -8.1124,4.34332 -0.46934,3.84486 0.38678,7.93426 1.15461,11.71591 1.77272,7.09558 2.37024,14.37356 2.74503,21.65274 0.37016,10.01936 1.73615,19.96704 2.42801,29.96972 0.58772,9.96067 0.69356,19.94072 0.76637,29.91578 0.0346,6.28411 0.0269,12.56834 0.025,18.85251 0.54565,3.32277 1.69096,6.49192 2.33288,9.79873 0.44677,2.81649 0.49218,5.67089 0.52942,8.51555 -0.31161,2.76831 0.46097,5.20824 1.28881,7.80885 1.49199,4.02597 0.51203,6.30786 -2.71817,8.89291 -5.92483,3.48688 -12.80112,4.8996 -19.28086,7.03596 -11.94399,3.63377 -23.8067,7.4912 -35.81171,10.92324 -16.2754,4.21019 -32.83305,7.20122 -49.47967,9.48091 -16.38324,2.4162 -32.81668,4.55341 -49.27912,6.36111 -7.47437,0.81544 -14.98304,1.19324 -22.48855,1.56958 0,0 -2.72756,-0.41811 -2.72756,-0.41811 l 0,0 c 7.50726,-0.3708 15.01772,-0.74272 22.49422,-1.5522 16.46702,-1.79745 32.90383,-3.93907 49.29089,-6.35201 16.63783,-2.26364 33.18304,-5.25484 49.45186,-9.4451 11.99451,-3.42876 23.84508,-7.28437 35.77807,-10.91603 6.45454,-2.14361 13.28064,-3.56604 19.23449,-6.94221 3.2021,-2.49864 4.19176,-4.57295 2.70131,-8.55081 -0.8322,-2.6246 -1.6081,-5.10026 -1.29306,-7.89253 -0.0339,-2.82767 -0.0814,-5.66564 -0.52823,-8.46476 -0.64342,-3.32324 -1.80845,-6.50739 -2.32328,-9.85356 0.0194,-6.28336 0.0313,-12.56679 0.005,-18.85015 -0.0615,-9.96928 -0.16396,-19.94375 -0.75654,-29.89837 -0.69456,-10.00438 -2.05464,-19.954 -2.43912,-29.97445 -0.38273,-7.26569 -0.98651,-14.52966 -2.76373,-21.61069 -0.78684,-3.85476 -1.65601,-8.00779 -1.16812,-11.92947 1.84158,-3.06604 4.82915,-3.68624 8.12683,-4.51938 2.89616,-1.20485 5.77459,-2.21928 8.7681,-3.13977 2.89632,-1.46348 5.78219,-2.9135 8.58051,-4.54209 0.68892,-0.57238 2.52964,-2.00084 2.85258,-2.09011 -3.35812,-1.11389 -7.00215,-1.31124 -10.42532,-2.1584 -6.07403,-0.72903 -12.23614,-0.31181 -18.30702,-1.20342 -5.04942,-0.72657 -9.9089,-1.86017 -14.59406,-3.92085 -2.56016,-1.16392 -5.8347,-2.38357 -7.07231,-5.07918 -0.35623,-3.46877 4.81876,-4.82629 6.8947,-6.85717 5.05933,-3.72255 10.04357,-7.65459 15.64268,-10.53076 6.6673,-3.70162 13.68209,-6.79813 20.7858,-9.55978 4.5921,-1.86194 9.24047,-3.56901 13.72089,-5.6942 9.31616,-0.95574 -4.54585,0.006 -5.9678,-0.34667 -8.28163,0.0132 -16.56324,0.0403 -24.84489,0.0401 -7.97104,-0.007 -15.95698,0.0544 -23.91076,-0.54351 -4.22668,-0.46158 -10.41005,-0.51244 -12.42383,-4.98177 -0.0213,-5.1431 5.59695,-7.81505 9.07899,-10.66955 6.16813,-4.75159 13.09876,-8.54822 20.08367,-11.95256 6.39022,-2.9232 12.76677,-5.97834 18.89728,-9.40332 3.15084,-2.4103 5.07814,-3.9454 1.03324,-6.98266 -3.35455,-2.20895 -7.11314,-3.60012 -10.82692,-5.09082 -4.61038,-1.9321 -9.45892,-3.20625 -14.16191,-4.88213 -5.12044,-2.02451 -10.39155,-3.61479 -15.47853,-5.73138 -3.37599,-1.60316 -7.01547,-3.26466 -9.26814,-6.37145 -1.07982,-4.59541 4.11578,-5.98558 7.22822,-8.17222 6.07953,-4.32094 12.47611,-8.18903 18.84893,-12.0537 5.45238,-2.93215 10.73792,-6.10624 16.19172,-9.03112 0.973,-0.6443 2.32104,-1.65447 3.45312,-1.65161 0.62763,-1.0775 1.04948,-2.25905 1.45837,-3.4337 1.24834,-4.00187 1.54819,-7.98143 1.39661,-12.17015 0.2397,-6.83572 0.70793,-13.66329 1.60043,-20.44789 1.3123,-10.40425 2.32076,-20.80178 2.79946,-31.28359 1.00219,-12.63947 1.73348,-25.26305 1.07134,-37.94986 -0.29008,-10.25976 -0.54937,-20.59011 -2.62099,-30.67944 -1.16996,-5.18665 -2.6114,-10.43425 -2.79309,-15.76207 -0.0295,-1.49401 0.30576,-2.36432 -1.30946,-2.25784 -3.03686,-0.1574 -6.07241,-0.39155 -9.08591,-0.80666 -4.95095,-0.67441 -9.94541,-1.94455 -14.94026,-1.2747 -9.99671,1.05235 -19.8795,2.88026 -29.87243,3.94733 -15.60967,2.13593 -31.0587,5.21135 -46.63749,7.55373 -17.54467,2.40292 -35.12375,4.89377 -52.87715,4.89595 -14.21309,-0.0309 -28.43016,-0.0392 -42.63649,-0.53367 -11.4571,-0.49186 -22.88382,-1.32807 -34.30695,-2.32978 0,0 2.78599,-0.44125 2.78599,-0.44125 z" />
    <path
       style="fill:#000000;fill-opacity:1;stroke:#000000;stroke-width:10;stroke-miterlimit:4;stroke-opacity:1;stroke-dasharray:none"
       id="path3069"
       d="m 508.27073,385.61039 c -7.37522,6.43735 -14.71951,12.90553 -21.90589,19.55381 -5.51105,5.17022 -9.89635,10.93292 -12.21704,18.14194 -1.12426,7.00024 2.6453,12.22611 8.2841,15.83456 2.81669,1.58963 5.81709,2.35378 9.03203,2.24189 0,0 2.7647,0.43597 2.7647,0.43597 l 0,0 c -5.39209,0.003 -9.8291,0.35563 -14.59012,-2.39908 -5.68309,-3.7466 -9.44293,-9.09684 -8.30586,-16.20075 2.32081,-7.26198 6.70102,-13.07637 12.24968,-18.28441 7.17886,-6.64121 14.51444,-13.10391 21.87216,-19.54557 0,0 2.81624,0.22164 2.81624,0.22164 z" />
    <path
       style="fill:#000000;fill-opacity:1;stroke:#000000;stroke-width:10;stroke-miterlimit:4;stroke-opacity:1;stroke-dasharray:none"
       id="path3071"
       d="m 693.86394,400.41169 c 3.89831,10.16237 5.42634,20.98517 6.56283,31.74654 1.11712,8.5282 0.12345,16.94301 -2.67155,25.02788 -0.62638,3.39529 -6.20046,10.98318 -9.375,4.94284 -2.06794,-8.1925 -0.59086,-16.55357 1.20674,-24.63343 2.8309,-12.35476 8.78671,-23.14204 16.66142,-32.92503 8.10777,-8.86321 13.35536,-10.69839 24.99435,-10.34328 7.08042,1.5053 9.8802,7.12979 11.74025,13.53016 1.46655,9.07126 -4.2989,15.06984 -10.54867,20.70595 -7.78365,5.716 -16.76664,9.31753 -25.43247,13.40417 -4.24645,2.46007 -6.92019,3.60859 -1.44532,6.44657 6.37721,2.63042 12.96435,4.68812 19.35341,7.29065 5.69554,2.26339 11.29156,4.82804 16.71789,7.68076 2.49949,1.17246 5.05946,2.2324 7.69853,3.04953 -2.83636,-0.93112 -2.56389,0.0406 -2.17119,-2.11021 0,0 2.83837,0.0496 2.83837,0.0496 l 0,0 c -0.42975,2.51423 0.21103,1.25063 -3.49419,2.41993 -2.62898,-0.84991 -5.18885,-1.9077 -7.6793,-3.10234 -5.42147,-2.84111 -11.00972,-5.39813 -16.69737,-7.65531 -6.40613,-2.58706 -13.00559,-4.64407 -19.37737,-7.31751 -5.51729,-3.02009 -2.91945,-4.60801 1.46887,-7.06785 8.64827,-4.09589 17.63729,-7.6451 25.43683,-13.32204 6.18547,-5.53646 11.98242,-11.42558 10.51879,-20.39197 -1.85676,-6.32867 -4.66395,-11.82761 -11.70649,-13.1866 -5.79725,-1.92993 -15.99354,6.08588 -19.44203,10.10835 -7.87858,9.73575 -13.83669,20.47235 -16.65506,32.79728 -1.77925,8.00532 -3.26796,16.32093 -1.15106,24.42858 1.00565,1.70155 1.10705,1.04265 -1.25134,1.61634 -0.37544,0.0913 0.79789,-0.0757 1.1242,-0.28259 2.10864,-1.33717 2.93683,-4.1049 3.85834,-6.22651 2.8061,-8.03972 3.80262,-16.41515 2.6982,-24.90468 -1.13243,-10.73661 -2.64423,-21.5442 -6.60077,-31.66155 0,0 2.82016,-0.11425 2.82016,-0.11425 z" />
    <path
       style="fill:#000000;fill-opacity:1;stroke:#000000;stroke-width:10;stroke-miterlimit:4;stroke-opacity:1;stroke-dasharray:none"
       id="path3073"
       d="m -267.49866,485.8647 c -1.48403,10.03229 -1.87832,20.18233 -2.21894,30.30493 -0.27539,9.51433 -0.31507,19.03315 -0.32662,28.55077 9.9e-4,1.05034 0.002,2.10068 0.003,3.15102 0,0 -2.81516,-1.1e-4 -2.81516,-1.1e-4 l 0,0 c 0.002,-1.05048 0.004,-2.10096 0.006,-3.15143 0.024,-9.5206 0.0768,-19.04238 0.35421,-28.55956 0.33852,-10.13432 0.7402,-20.29161 2.16893,-30.34235 0,0 2.82906,0.0467 2.82906,0.0467 z" />
    <path
       style="fill:#000000;fill-opacity:1;stroke:#000000;stroke-width:10;stroke-miterlimit:4;stroke-opacity:1;stroke-dasharray:none"
       id="path3075"
       d="m -305.06835,496.89502 c 10.05685,-4.40466 20.61752,-7.37658 31.16867,-10.31121 11.51062,-3.25539 23.38344,-4.68955 35.28218,-5.49511 5.99075,-0.28253 3.0702,-0.17005 8.76134,-0.34491 0,0 2.76854,0.42997 2.76854,0.42997 l 0,0 c -5.69826,0.1674 -2.77408,0.0589 -8.77225,0.33284 -11.90049,0.78632 -23.77847,2.19264 -35.29353,5.43609 -10.52735,2.92952 -21.06691,5.87859 -31.10566,10.26464 0,0 -2.80929,-0.31231 -2.80929,-0.31231 z" />
    <path
       style="fill:#000000;fill-opacity:1;stroke:#000000;stroke-width:10;stroke-miterlimit:4;stroke-opacity:1;stroke-dasharray:none"
       id="path3077"
       d="m -319.01008,570.8471 c 12.09328,-6.84134 24.94615,-12.2807 37.98306,-17.03348 13.93707,-4.91236 28.42047,-8.09811 42.9354,-10.75676 6.74011,-1.41597 13.63682,-1.26738 20.46867,-0.81377 0,0 -2.77986,0.42187 -2.77986,0.42187 l 0,0 c -5.0126,-0.31656 -9.99839,-0.45083 -14.94093,0.77645 -14.52085,2.63686 -29.01027,5.81313 -42.9551,10.70725 -13.01641,4.72283 -25.8497,10.14769 -37.90639,16.9945 0,0 -2.80485,-0.29606 -2.80485,-0.29606 z" />
    <path
       style="fill:#000000;fill-opacity:1;stroke:#000000;stroke-width:10;stroke-miterlimit:4;stroke-opacity:1;stroke-dasharray:none"
       id="path3179"
       d="m 905.97408,379.90475 c 5.31212,5.15142 10.38868,10.59286 14.60048,16.69124 2.36117,2.75433 3.72382,8.06595 7.67772,8.88945 -0.54886,-0.0226 -1.37853,0.41169 -1.64659,-0.0678 -0.003,-0.005 1.32859,-0.23767 2.928,-1.55964 1.92523,-1.59128 3.35608,-3.69788 4.74655,-5.73552 3.10352,-5.1746 4.75617,-10.98376 7.36159,-16.38574 2.67096,-4.88016 5.64982,-9.54576 8.89114,-14.06291 0,0 2.81016,0.17549 2.81016,0.17549 l 0,0 c -3.24515,4.4983 -6.21586,9.15082 -8.88947,14.01417 -2.62264,5.40766 -4.26841,11.23054 -7.35772,16.42689 -3.02697,4.49761 -5.74429,8.25809 -11.65929,7.56744 -3.91922,-1.2322 -5.25743,-6.17046 -7.67356,-9.09137 -4.21985,-6.07871 -9.27743,-11.51942 -14.60525,-16.64007 0,0 2.81624,-0.22164 2.81624,-0.22164 z"
       transform="translate(-324.01008,196.13251)" />
    <path
       style="fill:#000000;fill-opacity:1;stroke:#000000;stroke-width:10;stroke-miterlimit:4;stroke-opacity:1;stroke-dasharray:none"
       id="path3181"
       d="m 998.55322,361.04086 c -0.0355,11.80503 -0.0263,23.61015 -0.0197,35.41522 0.8181,3.90382 -1.56168,15.64068 0.84331,18.61772 0,0 -2.84083,0.17838 -2.84083,0.17838 l 0,0 c -2.25852,-3.44338 -0.0109,-14.56638 -0.78374,-18.7961 0.007,-11.80507 0.0158,-23.61019 -0.0197,-35.41522 0,0 2.82072,0 2.82072,0 z"
       transform="translate(-324.01008,196.13251)" />
    <path
       style="fill:#000000;fill-opacity:1;stroke:#000000;stroke-width:10;stroke-miterlimit:4;stroke-opacity:1;stroke-dasharray:none"
       id="path3183"
       d="m 980.64593,348.55388 c 7.13624,-3.61438 14.87776,-5.34952 22.71037,-6.62308 5.9923,-0.21857 13.0062,-0.45154 17.7518,3.79912 0.3879,0.50423 0.7757,1.00846 1.1636,1.51268 0,0 -2.8258,0.18765 -2.8258,0.18765 l 0,0 c -0.3857,-0.48614 -0.7713,-0.97229 -1.157,-1.45843 -3.2899,-2.7638 -7.9455,-3.83028 -12.1527,-3.64614 -7.81903,1.2483 -15.5567,2.9354 -22.68097,6.54051 0,0 -2.8093,-0.31231 -2.8093,-0.31231 z"
       transform="translate(-324.01008,196.13251)" />
    <path
       style="fill:#000000;fill-opacity:1;stroke:#000000;stroke-width:10;stroke-miterlimit:4;stroke-opacity:1;stroke-dasharray:none"
       id="path3185"
       d="m 978.0733,423.80005 c 7.70615,0.003 15.41229,0.002 23.1184,8.9e-4 0.6232,-0.61658 11.263,0.1827 11.3882,-0.002 0.2549,-0.37564 -0.8841,-0.20662 -1.3262,-0.30994 1.7276,-0.61604 0.8484,-0.30381 2.6376,-0.93643 0,0 2.8164,0.34878 2.8164,0.34878 l 0,0 c -1.7938,0.62949 -0.9131,0.30625 -2.6426,0.96776 -5.2135,0.45433 -10.4186,0.4338 -15.65267,0.37181 -7.70987,-9.1e-4 -15.41974,-0.002 -23.12962,8.8e-4 0,0 2.79049,-0.44197 2.79049,-0.44197 z"
       transform="translate(-324.01008,196.13251)" />
    <path
       style="fill:#000000;fill-opacity:1;stroke:#000000;stroke-width:10;stroke-miterlimit:4;stroke-opacity:1;stroke-dasharray:none"
       id="path3187"
       d="m 1059.2378,412.08838 c 2.3044,9.72763 3.9197,19.67308 4.0312,29.67907 -0.2671,2.65507 0.1166,14.32838 -3.2221,15.26899 -1.1037,-0.44156 -2.4715,-0.48316 -3.3112,-1.32468 -1.8847,-1.88888 1.4069,-17.48323 1.9235,-19.8666 2.6668,-11.91805 9.0026,-22.21808 17.0446,-31.22742 6.1875,-5.80303 14.2414,-12.13008 22.8748,-7.02743 5.7,5.68498 3.9289,13.46877 2.2537,20.49742 -2.7335,8.34217 -8.8085,14.08417 -15.1858,19.68944 -4.3996,3.22654 -6.858,5.16952 -4.2316,10.45531 4.6311,5.48393 10.2688,10.00505 15.9598,14.33293 3.4826,2.58841 1.7404,1.40086 5.2111,3.58544 0,0 -2.8031,0.28287 -2.8031,0.28287 l 0,0 c -3.4634,-2.21174 -1.7245,-1.01514 -5.2025,-3.61046 -5.7127,-4.35393 -11.3962,-8.90217 -15.9903,-14.46214 -2.6083,-5.41185 -0.3173,-7.54189 4.2563,-10.82258 6.3458,-5.56932 12.4521,-11.21398 15.1873,-19.51635 1.6459,-6.89686 3.4659,-14.62725 -2.2589,-20.13531 -0.8123,-0.44367 -1.6504,-0.84325 -2.437,-1.33102 -0.091,-0.0566 -0.054,-0.29136 -0.1604,-0.2795 -5.941,0.66013 -10.5165,4.59914 -14.6948,8.54482 -8.053,8.94508 -14.3847,19.20463 -17.0406,31.0832 -1.0189,4.73143 -1.9187,9.29763 -2.1605,14.13929 -0.055,1.08996 -0.1339,2.18324 -0.077,3.27305 0.041,0.77 0.7656,1.62223 0.3692,2.28356 -0.4375,0.72978 -1.5627,0.67382 -2.3441,1.01073 2.8929,0.41618 3.1765,-12.90001 3.2462,-14.8406 -0.1001,-9.98199 -1.7045,-19.91225 -4.0611,-29.60345 0,0 2.8229,-0.0786 2.8229,-0.0786 z"
       transform="translate(-324.01008,196.13251)" />
    <path
       style="fill:#000000;fill-opacity:1;stroke:#000000;stroke-width:10;stroke-miterlimit:4;stroke-opacity:1;stroke-dasharray:none"
       id="path3189"
       d="m 705.29421,388.86326 c 3.69806,5.81619 6.05036,12.41796 10.07134,18.0158 3.84339,4.62171 4.55639,3.45529 9.03563,0.94857 5.88071,-4.27679 10.00596,-10.75133 14.07481,-16.71062 3.04505,-4.16632 5.53549,-8.65967 7.39247,-13.46546 0,0 2.825,0.10427 2.825,0.10427 l 0,0 c -1.86704,4.82581 -4.35531,9.34534 -7.41639,13.529 -4.07769,5.99048 -8.22782,12.47669 -14.0718,16.83919 -4.84295,2.80653 -10.99653,4.18418 -14.65309,-1.07056 -3.98569,-5.63938 -6.36606,-12.23498 -10.08153,-18.05918 0,0 2.82356,-0.13101 2.82356,-0.13101 z"
       transform="translate(-324.01008,196.13251)" />
    <path
       style="fill:#000000;fill-opacity:1;stroke:#000000;stroke-width:10;stroke-miterlimit:4;stroke-opacity:1;stroke-dasharray:none"
       id="path3191"
       d="m 787.12692,352.12767 c -0.16425,10.14068 0.31587,20.29633 -0.35991,30.41951 -0.68848,6.21501 -1.221,12.46502 -2.16836,18.64902 0,0 -2.84012,-0.0447 -2.84012,-0.0447 l 0,0 c 1.01456,-6.16586 1.50169,-12.42007 2.21951,-18.62294 0.68025,-10.11652 0.22015,-20.26657 0.32361,-30.40085 0,0 2.82527,0 2.82527,0 z"
       transform="translate(-324.01008,196.13251)" />
    <path
       style="fill:#000000;fill-opacity:1;stroke:#000000;stroke-width:10;stroke-miterlimit:4;stroke-opacity:1;stroke-dasharray:none"
       id="path3193"
       d="m 766.70855,346.33528 c 9.56417,-1.25916 19.19746,-1.81426 28.82982,-2.20564 6.80312,-0.13665 13.66208,-0.76933 20.39435,0.49761 0,0 -2.79652,0.39085 -2.79652,0.39085 l 0,0 c -0.92504,-0.16673 -1.78263,-0.68032 -2.72058,-0.74156 -4.0191,-0.26242 -8.09763,0.40862 -12.11784,0.27879 -9.61984,0.38303 -19.24127,0.92637 -28.79307,2.18223 0,0 -2.79616,-0.40228 -2.79616,-0.40228 z"
       transform="translate(-324.01008,196.13251)" />
    <path
       style="fill:#000000;fill-opacity:1;stroke:#000000;stroke-width:10;stroke-miterlimit:4;stroke-opacity:1;stroke-dasharray:none"
       id="path3195"
       d="m 769.50471,401.30452 c 7.93607,1.12311 15.9264,1.76496 23.92713,2.1828 3.83294,-0.5878 7.70653,-1.12853 11.55223,-1.72464 0,0 2.79982,0.3995 2.79982,0.3995 l 0,0 c -5.67803,0.87683 -11.34789,1.94104 -17.12737,1.74969 -8.00779,-0.42857 -16.00414,-1.08404 -23.94797,-2.20507 0,0 2.79616,-0.40228 2.79616,-0.40228 z"
       transform="translate(-324.01008,196.13251)" />
    <path
       style="fill:#000000;fill-opacity:1;stroke:#000000;stroke-width:10;stroke-miterlimit:4;stroke-opacity:1;stroke-dasharray:none"
       id="path3197"
       d="m 851.47229,397.25376 c -4.57424,6.28928 -9.95546,11.89558 -14.9543,17.83137 -3.84001,5.13687 -5.38824,8.60438 0.27037,12.70764 4.93053,2.73566 10.36849,2.77326 15.83992,2.8808 0,0 -2.75943,0.43085 -2.75943,0.43085 l 0,0 c -5.50333,-0.13338 -10.96908,-0.22179 -15.89081,-3.04889 -5.64384,-4.2848 -4.17308,-7.92829 -0.25996,-13.16648 4.98629,-5.93856 10.39634,-11.51356 14.93266,-17.82596 0,0 2.82155,0.19067 2.82155,0.19067 z"
       transform="translate(-324.01008,196.13251)" />
    <path
       style="fill:#000000;fill-opacity:1;stroke:#000000;stroke-width:10;stroke-miterlimit:4;stroke-opacity:1;stroke-dasharray:none"
       id="path3201"
       d="m 630.32772,123.19111 c 1.14982,7.81628 1.67127,15.67286 2.99466,23.46449 0.65394,6.14782 2.34168,12.05543 3.93181,18.00296 0.54813,0.85916 0.30166,2.0273 0.771,2.91668 0.19868,0.37651 1.50893,0.75774 1.18089,0.4864 -1.79802,-1.48724 -2.32063,-0.12129 -0.59032,-2.07315 3.12701,-5.47457 5.1736,-11.46244 7.69195,-17.22431 3.33043,-7.93741 7.45686,-15.46639 11.41696,-23.09416 1.84631,-3.30708 3.81881,-6.54911 6.00099,-9.64633 0.0975,-0.052 0.19508,-0.10402 0.29261,-0.15603 0,0 2.82432,0.40581 2.82432,0.40581 l 0,0 c -0.0917,-0.0246 -0.18343,-0.0493 -0.27515,-0.0739 -2.20656,3.07332 -4.18103,6.30911 -6.03478,9.60527 -3.97341,7.61651 -8.10463,15.13793 -11.42778,23.07466 -2.52898,5.78362 -4.58061,11.78485 -7.66065,17.31176 -3.1138,3.64856 -6.61687,2.96446 -7.01664,-1.45922 -1.57696,-5.95773 -3.25609,-11.87536 -3.90866,-18.02943 -1.31632,-7.79336 -1.8305,-15.65351 -3.02027,-23.4648 0,0 2.82906,-0.0467 2.82906,-0.0467 z"
       transform="translate(-324.01008,196.13251)" />
    <path
       style="fill:#000000;fill-opacity:1;stroke:#000000;stroke-width:10;stroke-miterlimit:4;stroke-opacity:1;stroke-dasharray:none"
       id="path3203"
       d="m 664.64152,170.51852 c 0.69028,-6.45599 2.75248,-12.55506 6.80354,-17.64572 3.49522,-3.07913 7.97722,-3.13917 10.96468,0.82696 1.88223,3.35166 1.68654,6.56486 0.25401,10.01681 -1.57269,2.89413 -3.93017,5.8428 -7.02818,7.17439 0,0 -2.82074,-0.33869 -2.82074,-0.33869 l 0,0 c 3.11237,-1.1179 5.44069,-4.17089 7.02003,-6.94829 1.42562,-3.34988 1.62486,-6.47327 -0.25586,-9.71853 -0.30884,-0.39401 -0.57784,-0.82281 -0.92653,-1.18204 -0.35889,-0.36974 -1.25489,-0.48254 -1.18471,-0.99302 0.0659,-0.47908 1.57918,-3e-5 1.38193,-0.44156 -0.44879,-1.00462 -4.47854,1.23301 -4.58468,1.79526 -4.08093,5.02065 -6.14498,11.07617 -6.79443,17.50116 0,0 -2.82906,-0.0467 -2.82906,-0.0467 z"
       transform="translate(-324.01008,196.13251)" />
  </g>
</svg>
