<?xml version="1.0" encoding="UTF-8" standalone="no"?>
<!-- Created with Inkscape (http://www.inkscape.org/) -->

<svg
   xmlns:dc="http://purl.org/dc/elements/1.1/"
   xmlns:cc="http://creativecommons.org/ns#"
   xmlns:rdf="http://www.w3.org/1999/02/22-rdf-syntax-ns#"
   xmlns:svg="http://www.w3.org/2000/svg"
   xmlns="http://www.w3.org/2000/svg"
   xmlns:sodipodi="http://sodipodi.sourceforge.net/DTD/sodipodi-0.dtd"
   xmlns:inkscape="http://www.inkscape.org/namespaces/inkscape"
   width="679.21155"
   height="813.83624"
   id="svg3627"
   version="1.1"
   inkscape:version="0.47pre4 r22446"
   sodipodi:docname="New document 4">
  <defs
     id="defs3629">
    <inkscape:perspective
       sodipodi:type="inkscape:persp3d"
       inkscape:vp_x="0 : 526.18109 : 1"
       inkscape:vp_y="0 : 1000 : 0"
       inkscape:vp_z="744.09448 : 526.18109 : 1"
       inkscape:persp3d-origin="372.04724 : 350.78739 : 1"
       id="perspective3635" />
  </defs>
  <sodipodi:namedview
     id="base"
     pagecolor="#ffffff"
     bordercolor="#666666"
     borderopacity="1.0"
     inkscape:pageopacity="0.0"
     inkscape:pageshadow="2"
     inkscape:zoom="0.35"
     inkscape:cx="358.75352"
     inkscape:cy="577.55372"
     inkscape:document-units="px"
     inkscape:current-layer="layer1"
     showgrid="false"
     inkscape:window-width="1280"
     inkscape:window-height="726"
     inkscape:window-x="0"
     inkscape:window-y="25"
     inkscape:window-maximized="1" />
  <metadata
     id="metadata3632">
    <rdf:RDF>
      <cc:Work
         rdf:about="">
        <dc:format>image/svg+xml</dc:format>
        <dc:type
           rdf:resource="http://purl.org/dc/dcmitype/StillImage" />
        <dc:title></dc:title>
      </cc:Work>
    </rdf:RDF>
  </metadata>
  <g
     inkscape:label="Layer 1"
     inkscape:groupmode="layer"
     id="layer1"
     transform="translate(-16.246481,-296.07965)">
    <path
       style="color:#000000;fill:#000000;fill-opacity:1;fill-rule:nonzero;stroke:#000000;stroke-width:5;stroke-linecap:butt;stroke-linejoin:miter;stroke-miterlimit:4;stroke-opacity:1;stroke-dasharray:none;stroke-dashoffset:0;marker:none;visibility:visible;display:inline;overflow:visible;enable-background:accumulate"
       id="path3637"
       d="m 57.516952,658.32493 c 6.459286,2.99511 13.283154,5.07956 20.006785,7.38333 6.419584,1.70824 12.991106,2.86381 19.515194,4.15837 6.569589,0.93324 12.806879,3.28352 19.186599,5.00881 7.39967,1.75117 15.00637,2.08416 22.5746,2.30388 7.87448,0.0192 15.6843,-10e-4 23.50765,0.93263 7.48784,1.06555 15.03347,1.53667 22.58532,1.8186 6.97588,0.19581 13.95523,0.1946 20.93325,0.19581 6.8685,-0.46893 13.6001,0.8946 20.37928,1.72029 7.01365,0.81025 14.07475,0.97273 21.12682,1.08216 7.93457,-0.80666 15.8406,-1.77108 23.803,-2.29309 8.91483,-0.46619 17.84482,-0.50059 26.76953,-0.53496 10.06291,-0.0507 20.07166,-1.38967 30.10802,-2.07419 10.81978,-1.08809 21.43525,-3.43958 32.21316,-4.83793 10.67851,-1.34323 21.39308,-2.53846 32.04977,-4.05884 10.34545,-1.69793 20.79415,-2.49431 31.18755,-3.8265 10.84372,-0.97186 21.63966,-2.20746 32.4509,-3.48669 10.2829,-1.08159 20.46857,-2.7917 30.7725,-3.71684 9.21321,-0.63888 18.31887,-2.19776 27.52764,-2.94191 9.50815,-0.83973 19.05249,-1.78498 28.49812,-3.19718 9.29676,-1.62764 18.68354,-2.49125 28.10101,-2.96992 8.30562,0.13797 16.49837,-1.14786 24.72518,-2.07573 6.99274,-0.79699 14.03253,-0.95496 21.06267,-1.06439 5.67104,-0.0635 11.34256,-0.0557 17.01386,-0.0481 4.37984,0.24062 8.85847,-0.46278 13.17998,0.37436 2.5744,0.65126 4.57213,2.44636 7.05759,0.96129 -1.77515,0.80145 -1.64002,0.96792 -0.36749,-0.52791 0,0 2.61008,-1.11238 2.61008,-1.11238 l 0,0 c -1.78539,2.28715 -0.50417,0.92195 -4.45489,3.42077 -2.55932,1.23359 -4.59435,-0.49138 -7.16627,-1.11919 -4.32279,-0.7531 -8.77501,-0.11604 -13.14458,-0.33686 -5.66691,-0.008 -11.33406,-0.0231 -17.00071,0.0445 -7.02364,0.11165 -14.05606,0.28131 -21.04172,1.08269 -8.22742,0.93036 -16.42346,2.18404 -24.72928,2.05739 -9.41077,0.48452 -18.78896,1.36575 -28.07968,2.98755 -9.45353,1.39074 -18.99686,2.3604 -28.51178,3.18444 -9.20517,0.75866 -18.31109,2.31209 -27.52378,2.94199 -10.29975,0.93151 -20.48301,2.64607 -30.76377,3.72014 -10.80915,1.28484 -21.60765,2.4905 -32.44718,3.48718 -10.39263,1.33173 -20.84127,2.1297 -31.18571,3.82982 -10.65933,1.50363 -21.36893,2.72264 -32.04939,4.05464 -10.77992,1.41303 -21.40176,3.76799 -32.22938,4.82871 -10.04101,0.69133 -20.05541,2.02697 -30.12471,2.06412 -8.92273,0.0373 -17.85107,0.0701 -26.76332,0.55189 -7.96795,0.52967 -15.8772,1.52718 -23.82279,2.27912 -7.05843,-0.11481 -14.12574,-0.28303 -21.14459,-1.10599 -6.77247,-0.83099 -13.50088,-2.1606 -20.36289,-1.69008 -6.97883,-0.004 -13.95897,-0.008 -20.93557,-0.20717 -7.55493,-0.29175 -15.10269,-0.77545 -22.59387,-1.84005 -7.81793,-0.91817 -15.62602,-0.87185 -23.49233,-0.91309 -7.58496,-0.22545 -15.20752,-0.57588 -22.61866,-2.35375 -6.37236,-1.73554 -12.61347,-4.05424 -19.178069,-4.99131 -6.530812,-1.30543 -13.118285,-2.43792 -19.536559,-4.18946 -6.733224,-2.31566 -13.565198,-4.4116 -20.038404,-7.40732 0,0 2.361314,-1.55366 2.361314,-1.55366 z" />
    <path
       style="color:#000000;fill:#000000;fill-opacity:1;fill-rule:nonzero;stroke:#000000;stroke-width:5;stroke-linecap:butt;stroke-linejoin:miter;stroke-miterlimit:4;stroke-opacity:1;stroke-dasharray:none;stroke-dashoffset:0;marker:none;visibility:visible;display:inline;overflow:visible;enable-background:accumulate"
       id="path3639"
       d="m 358.73437,345.17833 c 1.49504,6.67437 1.45473,13.28841 0.9074,20.0501 -0.61673,6.63813 -0.94826,13.29529 -1.12921,19.95793 -0.13666,6.51601 -0.12733,13.03397 -0.12811,19.55108 0.10463,6.70511 0.16282,13.3467 -0.79512,19.99064 -1.04005,5.9279 -1.57338,11.91558 -1.86004,17.92134 -0.22533,6.14312 -0.208,12.29177 -0.21067,18.43804 -0.45202,6.27835 0.82859,12.40875 1.72976,18.58053 0.48314,6.23296 1.39927,12.37933 2.39296,18.5481 0.9719,6.62301 1.25871,13.28203 2.33499,19.88995 1.41891,7.13075 1.40002,14.42455 2.30001,21.61139 1.36643,7.80415 2.01439,15.69209 2.3842,23.59747 0.43641,8.14558 0.44187,16.24158 -0.48108,24.34517 -1.08352,8.27293 -1.59305,16.59893 -1.88062,24.9324 -0.89934,7.86331 -1.981,15.69697 -2.54658,23.59432 -0.38212,6.23818 -0.47576,12.4885 -0.51096,18.73665 0.19297,3.96577 -0.40958,8.01797 0.34121,11.93156 1.06419,3.39219 1.81024,6.83033 2.20799,10.36202 0.95672,3.58253 2.12674,7.07289 2.67718,10.75012 0.45689,3.92994 0.49534,7.88963 0.52573,11.84076 0.0145,3.17807 0.002,6.3562 -0.006,9.53428 -0.006,3.16366 -0.01,6.32731 -0.009,9.49098 -7.8e-4,3.28075 -5.5e-4,6.56151 -10e-4,9.84226 0.005,2.18047 -0.006,4.361 0.007,6.54145 0,0 -2.53849,1.29344 -2.53849,1.29344 l 0,0 c 0.013,-2.18273 10e-4,-4.36554 0.007,-6.54829 -0.001,-3.28042 -0.001,-6.56084 -6.7e-4,-9.84126 0.003,-3.16376 3.3e-4,-6.32752 0.008,-9.49127 0.006,-3.17806 0.0229,-6.35612 0.0121,-9.53419 -0.0287,-3.93901 -0.0603,-7.8866 -0.50795,-11.80534 -0.54231,-3.68195 -1.70493,-7.17804 -2.68318,-10.75862 -0.38887,-3.52562 -1.1236,-6.95867 -2.19686,-10.34152 -0.78428,-3.92857 -0.17322,-8.00094 -0.35704,-11.98675 0.035,-6.25607 0.14039,-12.5137 0.51653,-18.76001 0.5547,-7.89597 1.63497,-15.72788 2.55441,-23.58673 0.28102,-8.34007 0.79239,-16.6727 1.87069,-24.95252 0.93348,-8.09034 0.93725,-16.17144 0.5026,-24.30555 -0.36888,-7.89786 -1.00804,-15.77928 -2.37874,-23.57538 -0.91379,-7.1817 -0.88118,-14.47286 -2.2991,-21.60038 -1.0801,-6.60812 -1.38326,-13.26388 -2.33637,-19.8899 -0.9926,-6.16991 -1.93463,-12.31312 -2.39965,-18.54934 -0.89863,-6.18516 -2.1993,-12.32736 -1.74435,-18.61895 0.002,-6.14926 -0.0242,-12.30089 0.19943,-18.44714 0.28195,-6.01451 0.80543,-12.01236 1.8524,-17.94808 0.97228,-6.63217 0.92872,-13.25797 0.81255,-19.95402 0.003,-6.51905 -0.008,-13.03899 0.1231,-19.557 0.18035,-6.66801 0.51134,-13.33055 1.12772,-19.97408 0.54499,-6.7386 0.63704,-13.3301 -0.89274,-19.97965 0,0 2.4995,-1.32601 2.4995,-1.32601 z" />
    <path
       style="color:#000000;fill:#000000;fill-opacity:1;fill-rule:nonzero;stroke:#000000;stroke-width:5;stroke-linecap:butt;stroke-linejoin:miter;stroke-miterlimit:4;stroke-opacity:1;stroke-dasharray:none;stroke-dashoffset:0;marker:none;visibility:visible;display:inline;overflow:visible;enable-background:accumulate"
       id="path3641"
       d="m 100.86176,682.19968 c 9.15736,-6.70107 19.42879,-11.59707 29.55475,-16.62171 3.96375,-1.84665 8.23855,-2.71275 12.57189,-3.03874 4.0729,-0.16115 8.15093,-0.10895 12.22608,-0.0962 3.17922,0.0161 6.35849,0.0308 9.53776,0.0306 2.85851,0.003 5.71703,0.008 8.57553,0.003 2.8522,-1.6e-4 5.70441,0.005 8.5566,-2.8e-4 2.85681,-1.2e-4 5.71363,0.005 8.57043,-7e-5 3.12809,0.003 6.25617,0.003 9.38425,0.007 2.85948,0.75629 5.59631,1.85176 8.49213,2.45976 2.6098,0.37807 5.25124,0.39079 7.88248,0.40904 2.83949,0.007 5.67906,2.6e-4 8.51854,-0.011 2.74591,0.16684 5.61339,-0.47934 8.21936,0.48874 2.66319,1.36239 5.64191,1.77563 8.57591,2.11685 3.35067,0.26944 6.71558,0.26166 10.07469,0.27116 2.97213,-0.003 5.94423,-0.019 8.91636,-0.0194 2.85658,-0.005 5.71318,-0.01 8.56977,-0.005 3.24459,0.004 6.48921,0.007 9.7338,-1.1e-4 2.92806,-0.002 5.85613,0.003 8.78419,-0.002 3.07004,0.40613 5.59726,-0.44482 8.42044,-1.48381 2.54278,-0.79592 5.13457,-1.20076 7.78786,-1.3205 3.52694,-0.097 7.05539,-0.0597 10.58315,-0.0596 3.77996,0.19072 7.31959,0.0814 10.95161,-0.94324 3.71706,-1.06956 7.5411,-1.51565 11.38852,-1.75415 3.54593,-0.16253 7.09577,-0.1638 10.6445,-0.17076 2.93641,0.004 5.87281,0.0156 8.80922,0.0144 3.50631,0.009 7.01262,0.0109 10.51894,0.0179 4.09292,0.0468 8.01721,1.52467 12.0557,2.16694 3.47963,0.46229 6.98431,0.62956 10.49061,0.68569 2.70075,0.0205 5.40167,0.0146 8.10241,-0.005 3.03206,0.009 6.0641,-0.003 9.09614,-0.002 3.73041,0.006 7.46085,0.0128 11.19127,0.006 3.5695,-0.001 7.13899,-0.004 10.70849,-0.001 2.70738,-0.0131 5.41478,-0.006 8.12217,-0.0106 2.75701,10e-4 5.51404,0.006 8.27105,0.002 3.06637,0.40602 5.5928,-0.44704 8.41341,-1.48307 4.9494,-1.79272 12.96944,-6.32979 -7.90459,4.44567 1.29223,-2.83181 2.05182,-5.80924 2.44658,-8.88434 0.31816,-3.22959 0.28366,-6.48044 0.29264,-9.72186 0.63465,-3.32687 1.68284,-6.5443 2.26389,-9.89062 0.45521,-2.95516 0.53314,-5.94834 0.56735,-8.93254 0.0256,-3.13325 0.0115,-6.26668 0.0112,-9.4 -0.17805,-3.81262 -1.36013,-7.52651 -2.01346,-11.29636 -0.69009,-4.86462 -0.75408,-9.79385 -0.81854,-14.699 -0.0529,-4.29777 -0.0486,-8.59616 -0.0361,-12.89418 1.6e-4,-4.2403 0.0217,-8.48067 0.0109,-12.72097 0.004,-4.14234 0.0108,-8.28466 -0.006,-12.42698 -0.004,-3.69486 0.009,-7.38974 -4.6e-4,-11.08458 0.0121,-3.6295 -0.006,-7.25898 -0.003,-10.88847 0.007,-3.48843 -0.006,-6.97681 0.004,-10.46525 -10e-4,-3.83973 0.003,-7.67946 0.005,-11.5192 0.005,-4.77533 0.0268,-9.55066 0.011,-14.32599 -0.004,-4.35225 -0.0114,-8.70444 -0.004,-13.05669 -0.38109,-4.34099 0.75893,-8.50719 1.65245,-12.70711 0.78933,-3.86067 1.01482,-7.79255 1.14686,-11.72016 0.0973,-4.19422 0.072,-8.39012 0.0744,-12.58518 0.003,-4.71007 -0.0138,-9.42005 -0.0107,-14.13013 -0.01,-4.12843 -0.0176,-8.25689 -0.0114,-12.38533 -0.004,-3.40963 -0.0182,-6.81926 -0.0139,-10.22888 -0.0145,-3.05332 0.006,-6.10665 9e-4,-9.15997 0.0156,-3.51939 -7.9e-4,-7.03879 0.002,-10.55819 0.003,-3.37581 0.005,-6.75169 -0.006,-10.1275 0.002,-2.65095 0.005,-5.30189 -0.0177,-7.95277 0.0928,-0.29155 -0.1908,-2.60888 0.091,-0.99568 0,0 11.80965,-7.9954 11.80965,-7.9954 l 0,0 c 0.9081,0.99979 0.85458,1.23135 0.77455,2.53273 -0.0222,2.65688 -0.0192,5.31381 -0.0177,7.97075 -0.0113,3.37783 -0.009,6.75573 -0.006,10.13356 0.003,3.51859 -0.0132,7.03718 0.002,10.55577 -0.005,3.05303 0.0154,6.10607 8.3e-4,9.1591 0.004,3.41437 -0.0105,6.82874 -0.0141,10.24311 0.006,4.13149 -0.002,8.26298 -0.008,12.39447 0.007,4.70852 -10e-4,9.41702 0.0169,14.12552 0.0139,4.20444 0.027,8.40914 -0.0321,12.61334 -0.10515,4.00132 -0.31242,8.00494 -1.04959,11.94833 -0.83836,4.13073 -2.17305,8.18236 -1.7896,12.45171 0.008,4.35359 4.3e-4,8.70712 -0.004,13.06071 -0.0158,4.77158 0.006,9.54317 0.011,14.31476 0.002,3.83808 0.006,7.67615 0.005,11.51422 0.01,3.48711 -0.003,6.97418 0.004,10.46129 0.003,3.63046 -0.015,7.2609 -0.003,10.89136 -0.01,3.69497 0.004,7.38997 -2.3e-4,11.08495 -0.017,4.14498 -0.01,8.28997 -0.008,12.43498 -0.0137,4.24106 0.003,8.48219 -0.0114,12.72325 -10e-4,4.29699 -0.0279,8.59395 -0.002,12.89094 0.0596,4.83515 0.0988,9.69202 0.74548,14.49178 0.62885,3.85477 1.85548,7.62609 2.14433,11.49143 0.011,3.13588 0.025,6.27176 0.0173,9.40766 -0.0389,3.05033 -0.0813,6.10632 -0.4816,9.13589 -0.54052,3.28771 -1.27573,6.52784 -2.37213,9.68026 0.006,3.28914 0.01,6.58299 -0.2031,9.86648 -0.35989,3.18441 -0.9635,6.30173 -2.28991,9.24563 -7.29867,5.12363 -9.56373,8.04312 -16.16464,10.20598 -2.8743,0.96011 -5.66537,1.35074 -8.70631,1.10465 -2.75895,-0.004 -5.5179,9.5e-4 -8.27685,0.002 -2.69765,-0.004 -5.3953,0.003 -8.09294,-0.0106 -3.56818,0.002 -7.13636,-1.7e-4 -10.70455,-0.002 -3.73669,-0.007 -7.47342,5.5e-4 -11.21011,0.008 -3.03814,0.004 -6.07629,-0.006 -9.11439,0.02 -2.7008,-0.003 -5.40203,0.0191 -8.10241,-0.0387 -3.54025,-0.0968 -7.07529,-0.34993 -10.58006,-0.87723 -3.96111,-0.71659 -7.85162,-2.10468 -11.91583,-1.9741 -3.52001,0.006 -7.04,0.009 -10.56002,0.009 -2.93303,-0.01 -5.8661,-0.0144 -8.79914,-0.0176 -3.52263,-9.7e-4 -7.0485,0.014 -10.56526,0.2395 -3.80193,0.32113 -7.56285,0.88721 -11.2349,1.95792 -3.68504,0.87039 -7.39598,0.69299 -11.16323,0.65219 -3.51951,-0.006 -7.04342,-0.0283 -10.55871,0.16609 -2.57551,0.2459 -5.10458,0.75037 -7.54998,1.61726 -2.87633,0.96236 -5.66923,1.34999 -8.71264,1.1039 -2.9261,-0.005 -5.85221,-5.5e-4 -8.77832,-0.002 -3.24449,-0.007 -6.48903,-0.005 -9.73352,2.7e-4 -2.85592,0.005 -5.71185,0.002 -8.56777,0.007 -2.9708,0.01 -5.94169,0.0164 -8.91249,0.006 -3.39733,-0.0193 -6.80485,-0.0401 -10.18563,-0.40988 -2.98642,-0.42909 -5.92079,-1.06255 -8.7018,-2.27004 -2.63464,-0.42409 -5.33371,-0.0739 -7.99289,-0.17784 -2.84437,0.002 -5.68878,0.0216 -8.5331,-0.005 -2.69718,-0.0501 -5.41272,-0.0948 -8.06401,-0.65036 -2.7768,-0.68887 -5.42482,-1.87119 -8.2791,-2.21892 -3.13438,0.004 -6.26876,0.004 -9.40313,0.007 -2.85682,-0.005 -5.71364,1.1e-4 -8.57045,1.3e-4 -2.85229,-0.005 -5.7046,4.4e-4 -8.55689,3.6e-4 -2.85842,-0.005 -5.71685,-1.9e-4 -8.57527,-0.007 -3.17231,-0.0145 -6.34461,-0.0264 -9.51687,-0.0506 -4.04885,-0.028 -8.10629,-0.084 -12.14719,0.21198 -4.23238,0.48044 -8.37247,1.47101 -12.20105,3.40219 -1.57944,0.77227 -15.27093,8.42708 -8.44443,4.08413 17.83816,-11.34845 7.06298,-3.93305 3.02538,-1.52731 0,0 -13.12268,5.26624 -13.12268,5.26624 z" />
    <path
       style="color:#000000;fill:#000000;fill-opacity:1;fill-rule:nonzero;stroke:#000000;stroke-width:5;stroke-linecap:butt;stroke-linejoin:miter;stroke-miterlimit:4;stroke-opacity:1;stroke-dasharray:none;stroke-dashoffset:0;marker:none;visibility:visible;display:inline;overflow:visible;enable-background:accumulate"
       id="path3643"
       d="m 428.19733,732.11372 c -5.21324,-2.93566 -9.85444,-6.53451 -13.20314,-11.51707 -2.2191,-3.65281 -1.32244,-6.7472 0.423,-10.33481 2.42357,-4.1012 5.6033,-7.08892 9.51831,-9.71152 3.95736,-2.4374 8.48779,-6.25594 13.30242,-4.18789 2.59275,1.68701 4.13283,4.24192 5.06436,7.12211 0.77459,2.96208 2.17452,5.67808 2.9133,8.66073 0.69586,2.92229 -0.65869,5.81899 -1.28462,8.65817 -0.10504,3.44276 -1.43278,6.09999 -3.29257,8.88942 -1.54145,1.7152 -0.7527,0.91392 -2.35599,2.41391 0,0 -2.62429,1.07464 -2.62429,1.07464 l 0,0 c 1.61513,-1.46884 0.81785,-0.68767 2.38348,-2.35201 1.84285,-2.77808 3.28637,-5.3348 3.33481,-8.7923 0.59773,-2.80484 1.97916,-5.66555 1.34358,-8.5435 -0.7275,-2.98036 -2.13301,-5.68707 -2.90397,-8.64338 -0.89306,-2.80436 -2.38444,-5.3073 -4.93706,-6.90989 -3.41557,-1.31965 -6.22088,0.14686 -8.31551,1.58175 -3.91887,2.60021 -7.11057,5.49551 -9.56776,9.57056 -1.72541,3.50262 -2.75254,6.46584 -0.56108,10.07311 3.31233,4.95039 7.93499,8.51382 13.12405,11.39431 0,0 -2.36132,1.55366 -2.36132,1.55366 z" />
    <path
       style="color:#000000;fill:#000000;fill-opacity:1;fill-rule:nonzero;stroke:#000000;stroke-width:5;stroke-linecap:butt;stroke-linejoin:miter;stroke-miterlimit:4;stroke-opacity:1;stroke-dasharray:none;stroke-dashoffset:0;marker:none;visibility:visible;display:inline;overflow:visible;enable-background:accumulate"
       id="path3645"
       d="m 475.2206,753.85097 c -1.05908,-5.40856 -2.27878,-11.41578 0.43052,-16.51352 5.75358,-4.95457 6.50129,2.41455 6.61148,6.35952 0.0417,5.47981 -1.41148,10.89404 -4.46139,15.45359 -3.00351,3.90025 -7.08116,4.96244 -9.25831,0.38779 -1.5571,-3.60621 -0.52727,-6.61328 2.02964,-9.38277 2.78571,-2.23479 6.99306,-5.72932 9.39327,-1.73347 1.59642,4.41341 1.18379,8.9537 -0.27556,13.31964 -1.31352,3.03229 -3.10304,7.98624 -7.41881,7.38346 -2.1325,-0.92448 -1.90782,-4.11977 -2.37308,-6.05194 0,0 2.49223,-1.34622 2.49223,-1.34622 l 0,0 c 0.43708,1.75507 0.19904,4.97836 2.19876,5.74548 0.97355,0.0337 2.0034,-0.0842 -0.8083,1.16598 -0.38154,0.16963 0.65718,-0.52749 0.91352,-0.8571 1.10053,-1.41509 1.60848,-3.2844 2.43801,-4.84074 1.49231,-4.28083 1.92185,-8.73979 0.37715,-13.09458 -1.94454,-3.22377 -4.42854,-0.95391 -4.3216,-0.78074 -2.59674,2.61886 -3.69136,5.53544 -2.17772,9.07483 0.46023,0.97391 0.61133,1.67159 1.52811,2.30112 0.32999,0.22659 0.72124,0.36943 1.1133,0.45027 0.42302,0.0872 1.14054,-0.35711 1.29493,0.0463 0.14797,0.38656 -1.14456,1.13292 -0.99066,0.74868 0.23347,-0.58287 0.8359,-0.93716 1.25384,-1.40574 3.11562,-4.46205 4.55895,-9.87164 4.5439,-15.2973 -0.0344,-1.42586 0.0273,-3.71459 -0.4185,-5.15294 -0.17622,-0.56856 -0.51121,-1.08252 -0.8593,-1.56537 -0.2637,-0.3658 -1.05124,-0.51417 -0.95784,-0.95532 0.15248,-0.72017 1.1068,-0.99768 1.50274,-1.61826 0.16513,-0.25881 -0.52089,0.32506 -0.78134,0.48759 -2.85287,4.96442 -1.57507,10.97422 -0.54153,16.30734 0,0 -2.47746,1.36445 -2.47746,1.36445 z" />
    <path
       style="color:#000000;fill:#000000;fill-opacity:1;fill-rule:nonzero;stroke:#000000;stroke-width:5;stroke-linecap:butt;stroke-linejoin:miter;stroke-miterlimit:4;stroke-opacity:1;stroke-dasharray:none;stroke-dashoffset:0;marker:none;visibility:visible;display:inline;overflow:visible;enable-background:accumulate"
       id="path3647"
       d="m 494.63726,697.60569 c 7.1068,0.0882 14.31206,0.43762 21.3714,-0.51648 3.71069,-0.51112 7.26401,-1.72993 10.93903,-2.39747 2.11661,-1.27863 -0.19399,0.15176 -0.89727,0.34021 -0.63199,0.16935 0.86916,-0.99678 1.16229,-1.58173 0.88167,-0.0654 1.83524,-0.55102 2.64499,-0.19619 0.87557,0.38367 -2.61362,12.59398 -2.84892,13.41342 -2.7338,11.07059 -5.94152,22.01741 -8.56909,33.11364 -1.68188,6.36299 -3.86243,12.58096 -5.17525,19.03707 -0.39161,0.0404 -0.23361,3.46923 -0.56829,3.51404 -3.02272,0.40469 -2.57568,0.92407 -2.58257,-1.16906 0.11275,-0.66988 0.2255,-1.33975 0.33825,-2.00962 0,0 2.54357,-1.24131 2.54357,-1.24131 l 0,0 c -0.11747,0.65365 -0.23494,1.30731 -0.35241,1.96096 0.0143,3.54126 -4.04357,6.27307 -1.92587,0.17921 1.31451,-6.4689 3.50153,-12.69573 5.21108,-19.06433 2.62797,-11.09761 5.85024,-22.04134 8.5546,-33.12093 0.19868,-0.69818 1.78468,-6.20215 2.07918,-7.45205 0.0621,-0.26373 0.7668,-5.84031 0.77309,-5.84975 0.6239,-0.93689 1.64908,-1.5325 2.47362,-2.29876 -0.92018,2.14082 -3.07553,3.19422 -5.12934,4.1374 -3.66356,0.68845 -7.21858,1.88182 -10.926,2.36895 -7.08619,0.89107 -14.30618,0.60189 -21.43231,0.45786 0,0 2.31622,-1.62508 2.31622,-1.62508 z" />
    <path
       style="color:#000000;fill:#000000;fill-opacity:1;fill-rule:nonzero;stroke:#000000;stroke-width:5;stroke-linecap:butt;stroke-linejoin:miter;stroke-miterlimit:4;stroke-opacity:1;stroke-dasharray:none;stroke-dashoffset:0;marker:none;visibility:visible;display:inline;overflow:visible;enable-background:accumulate"
       id="path3649"
       d="m 511.75266,725.45579 c 7.19992,-1.16098 14.46849,-1.77249 21.7451,-2.17582 4.60626,0.17953 8.96827,-0.73175 13.32808,-2.09725 0.97186,-0.3423 1.9746,-0.63256 2.89109,-1.11072 -2.80542,0.56803 -2.34822,1.26874 -2.32096,-0.95568 0,0 2.52992,-1.28612 2.52992,-1.28612 l 0,0 c -0.0162,2.61931 0.3181,1.08601 -2.43663,4.02836 -0.94706,0.41132 -1.92539,0.74457 -2.90796,1.06024 -4.36804,1.33778 -8.74644,2.18774 -13.3478,2.02563 -7.27646,0.40907 -14.54604,1.02386 -21.74214,2.21204 0,0 2.2613,-1.70068 2.2613,-1.70068 z" />
    <path
       style="color:#000000;fill:#000000;fill-opacity:1;fill-rule:nonzero;stroke:#000000;stroke-width:5;stroke-linecap:butt;stroke-linejoin:miter;stroke-miterlimit:4;stroke-opacity:1;stroke-dasharray:none;stroke-dashoffset:0;marker:none;visibility:visible;display:inline;overflow:visible;enable-background:accumulate"
       id="path3651"
       d="m 572.68724,691.25606 c -0.40381,11.30322 0.43708,22.55317 1.26453,33.81497 0.79655,10.77112 1.21697,21.56434 1.48825,32.35986 0.0698,3.61829 0.13061,7.23711 0.13349,10.85619 -0.0622,-0.0152 0.0349,0.70043 -0.005,0.70048 -3.79865,0.005 -2.09956,-0.88203 -0.93497,-3.49802 3.0061,-6.22961 5.46637,-12.70138 8.20078,-19.05639 3.82298,-10.20943 7.75215,-20.37963 11.36775,-30.66506 1.81212,-5.09686 3.30507,-10.31247 4.36968,-15.61718 0.91431,-1.30916 1.48614,-2.40218 1.62003,-4.0062 0,0 2.53689,-1.27247 2.53689,-1.27247 l 0,0 c -0.0733,1.64571 -0.50242,2.79047 -1.59953,4.03907 -1.07811,5.32348 -2.57805,10.56026 -4.40119,15.67553 -3.61595,10.28923 -7.55769,20.45836 -11.35648,30.6808 -2.72888,6.34905 -5.16694,12.82112 -8.16347,19.04518 -0.32537,0.70647 -3.68158,8.62213 -4.17341,5.26686 0.0236,-3.62311 -0.0306,-7.24636 -0.0922,-10.86884 -0.24048,-10.79728 -0.65433,-21.59201 -1.44951,-32.36424 -0.82833,-11.26005 -1.68033,-22.50595 -1.3232,-33.80789 0,0 2.51734,-1.28265 2.51734,-1.28265 z" />
    <path
       style="color:#000000;fill:#000000;fill-opacity:1;fill-rule:nonzero;stroke:#000000;stroke-width:5;stroke-linecap:butt;stroke-linejoin:miter;stroke-miterlimit:4;stroke-opacity:1;stroke-dasharray:none;stroke-dashoffset:0;marker:none;visibility:visible;display:inline;overflow:visible;enable-background:accumulate"
       id="path3653"
       d="m 610.82489,516.57061 c 4.0302,7.55584 8.90654,14.62194 13.08347,22.08675 3.78557,6.42493 6.7069,13.29638 10.07364,19.93416 1.6671,2.80764 3.14508,5.68196 4.1391,8.79617 -0.94682,0.68544 1.33992,0.51968 0.9785,0.48116 -0.55647,-0.0593 -1.49272,0.44715 -1.67688,-0.0813 -0.25728,-0.73828 0.62575,-1.43411 0.89271,-2.16895 0.69293,-1.90746 1.25456,-3.8601 1.88932,-5.78769 3.06073,-9.08083 6.15076,-18.14303 9.58417,-27.09356 2.09889,-5.05655 4.00063,-10.19602 5.67048,-15.41011 0.17625,-0.54084 0.33103,-1.08804 0.47739,-1.63745 0,0 2.56236,-1.26224 2.56236,-1.26224 l 0,0 c -0.12302,0.56896 -0.27623,1.13648 -0.46912,1.68911 -1.68752,5.2246 -3.59429,10.37946 -5.70989,15.44588 -3.44348,8.93826 -6.52477,17.99442 -9.57024,27.07174 -0.69537,2.12098 -3.27718,13.45302 -7.12383,10.12225 -0.96808,-3.10804 -2.44206,-5.96858 -4.09199,-8.76947 -3.3602,-6.63695 -6.26272,-13.51379 -10.05094,-19.93384 -4.17926,-7.46865 -9.04441,-14.5458 -13.11459,-22.08401 0,0 2.45634,-1.3986 2.45634,-1.3986 z" />
    <path
       style="color:#000000;fill:#000000;fill-opacity:1;fill-rule:nonzero;stroke:#000000;stroke-width:5;stroke-linecap:butt;stroke-linejoin:miter;stroke-miterlimit:4;stroke-opacity:1;stroke-dasharray:none;stroke-dashoffset:0;marker:none;visibility:visible;display:inline;overflow:visible;enable-background:accumulate"
       id="path3655"
       d="m 662.80809,591.74723 c -5.27171,-4.38722 -7.63702,-9.94121 -6.85899,-16.66897 1.55584,-5.34598 6.71089,-8.26019 12.10439,-8.07453 4.44913,1.14604 7.6442,4.44439 10.29536,8.01406 1.56075,2.97368 3.44208,6.60331 1.77441,9.82408 -1.88334,2.07967 -3.97723,2.69258 -6.60418,3.82081 0,0 2.25624,-1.71717 2.25624,-1.71717 l 0,0 c -2.39532,2.84862 1.35329,-0.78967 1.7569,-0.94538 1.83015,-3.04672 -0.13304,-6.66359 -1.61656,-9.53997 -2.60042,-3.50419 -5.75406,-6.7685 -10.1552,-7.79891 -4.39141,-0.0606 -5.33867,-0.0508 -7.28216,5.1663 -0.87815,6.99654 1.34863,11.79786 6.72455,16.41547 0,0 -2.39476,1.50421 -2.39476,1.50421 z" />
    <path
       style="color:#000000;fill:#000000;fill-opacity:1;fill-rule:nonzero;stroke:#000000;stroke-width:5;stroke-linecap:butt;stroke-linejoin:miter;stroke-miterlimit:4;stroke-opacity:1;stroke-dasharray:none;stroke-dashoffset:0;marker:none;visibility:visible;display:inline;overflow:visible;enable-background:accumulate"
       id="path3657"
       d="m 275.87723,342.32119 c 0.74755,8.10598 -0.70843,16.05031 -2.66522,23.87156 -1.34573,5.85438 -3.22074,11.57294 -5.19731,17.24053 -0.26863,0.76738 -0.54997,1.53014 -0.83958,2.28979 0,0 -2.58596,1.19945 -2.58596,1.19945 l 0,0 c 0.2981,-0.75812 0.58501,-1.52053 0.85757,-2.28826 2.00267,-5.6591 3.88996,-11.3753 5.2363,-17.23038 1.96315,-7.78331 3.44953,-15.68331 2.6947,-23.75669 0,0 2.4995,-1.326 2.4995,-1.326 z" />
    <path
       style="color:#000000;fill:#000000;fill-opacity:1;fill-rule:nonzero;stroke:#000000;stroke-width:5;stroke-linecap:butt;stroke-linejoin:miter;stroke-miterlimit:4;stroke-opacity:1;stroke-dasharray:none;stroke-dashoffset:0;marker:none;visibility:visible;display:inline;overflow:visible;enable-background:accumulate"
       id="path3659"
       d="m 286.97992,316.68889 c -0.38967,-4.69847 -0.42685,-9.45237 2.62454,-13.27126 3.89793,-3.32888 6.7679,-2.51649 10.06893,0.44431 2.92317,2.27506 -1.80605,3.37685 -3.99662,2.75356 -2.21307,-1.58622 -5.48251,-2.23201 -6.2775,-5.0708 1.63332,-3.86099 5.57179,-2.85066 5.469,0.7581 -0.80849,2.57237 -0.73533,5.57873 -2.11104,7.93071 -1.14362,0.38274 -2.23376,1.00234 -3.43087,1.14823 -1.67433,0.20405 -1.9159,-5.24027 -1.97339,-5.99537 -0.56516,-2.91388 2.67494,-8.3366 6.1554,-6.39742 2.01105,2.00653 1.73629,4.74306 0.39426,7.01755 -2.21253,2.93745 -5.79618,2.1748 -2.81238,-1.79851 3.07664,-1.88138 5.33539,0.089 3.4328,2.42311 0,0 -2.63206,1.09133 -2.63206,1.09133 l 0,0 c 2.00256,-1.63185 -1.43878,-3.42387 1.818,-4.62874 -0.81823,0.90266 -0.71468,2.12271 -1.36002,2.97492 -3.52863,4.65979 -2.53461,2.16225 -1.04405,1.08288 1.37589,-2.05609 1.76362,-4.72194 -0.17251,-6.59686 -1.14572,-0.47437 -1.32848,-0.30737 0.79775,-1.42668 0.37722,-0.19858 -0.6778,0.52334 -0.96889,0.83478 -1.14212,1.22196 -1.29202,2.49278 -1.09239,4.11803 0.10272,1.40564 0.14622,2.83556 0.65297,4.17136 0.12861,0.339 0.25154,0.69165 0.47025,0.98083 0.17272,0.22836 0.77837,0.26559 0.67418,0.53229 -0.26821,0.68649 -1.00821,1.07535 -1.51231,1.61302 1.53962,-2.19402 1.2758,-5.31585 2.17382,-7.79953 0.27031,-2.97336 -3.13284,-2.51812 -0.0696,-4.08744 0.23238,-0.11906 -0.23899,0.46431 -0.35848,0.69647 0.6774,2.70911 4.04325,3.33772 6.118,4.82071 2.08386,0.54732 1.38679,-0.0246 -0.25109,1.8201 -0.13815,0.15559 0.55629,-0.20083 0.48291,-0.39552 -0.1717,-0.45552 -0.82443,-0.62953 -0.99136,-1.07238 -0.97142,-0.86522 -1.97822,-1.7441 -3.20123,-2.24582 -0.47983,-0.19683 -1.31496,0.0608 -1.49674,-0.42489 -0.17208,-0.45979 1.23075,-0.79971 0.90198,-1.1643 -0.32856,-0.36435 -0.83157,0.52086 -1.24736,0.78129 -3.1492,3.70049 -3.11927,8.39702 -2.73538,13.05594 0,0 -2.49949,1.326 -2.49949,1.326 z" />
    <path
       style="color:#000000;fill:#000000;fill-opacity:1;fill-rule:nonzero;stroke:#000000;stroke-width:5;stroke-linecap:butt;stroke-linejoin:miter;stroke-miterlimit:4;stroke-opacity:1;stroke-dasharray:none;stroke-dashoffset:0;marker:none;visibility:visible;display:inline;overflow:visible;enable-background:accumulate"
       id="path3661"
       d="m 299.64845,415.6901 c -5.50044,-1.48157 -11.32664,-2.86993 -14.48601,-7.9914 -1.79015,-3.78186 0.79744,-7.14618 3.55061,-9.60033 3.08111,-2.73047 6.67448,-3.52035 10.59219,-3.74542 3.7524,0.57841 5.27954,2.98543 6.54644,6.30736 0.51114,3.18643 -0.65583,5.71904 -2.75522,8.0179 -1.98367,1.9071 -4.37423,3.33285 -7.051,4.00241 0,0 2.25116,-1.72731 2.25116,-1.72731 l 0,0 c 0.47017,-0.13434 1.29235,-0.87752 1.41049,-0.40303 0.12556,0.50429 -0.82096,0.65478 -1.2945,0.86885 -0.80279,0.36291 3.21188,-2.08018 2.06633,-1.64797 2.12472,-2.1734 3.31177,-4.6176 2.8964,-7.73376 -1.21248,-3.21047 -2.68331,-5.57269 -6.35633,-6.00139 -1.38419,0.0944 -2.75731,0.21017 -4.11359,0.52559 -0.51637,0.12009 -1.14501,0.79236 -1.5314,0.42937 -0.33762,-0.31718 1.44022,-1.15021 1.13535,-0.80143 -0.31637,0.36193 -0.78054,0.56133 -1.17081,0.842 -2.70312,2.31305 -5.43653,5.54384 -3.72902,9.24504 3.10402,5.04898 8.94657,6.36018 14.35513,7.78844 0,0 -2.31622,1.62508 -2.31622,1.62508 z" />
    <path
       style="color:#000000;fill:#000000;fill-opacity:1;fill-rule:nonzero;stroke:#000000;stroke-width:5;stroke-linecap:butt;stroke-linejoin:miter;stroke-miterlimit:4;stroke-opacity:1;stroke-dasharray:none;stroke-dashoffset:0;marker:none;visibility:visible;display:inline;overflow:visible;enable-background:accumulate"
       id="path3663"
       d="m 21.007459,988.32025 c 10.883972,-0.87247 21.621986,-2.75723 32.349683,-4.72155 12.415898,-2.14625 24.858541,-4.10785 37.286958,-6.17918 12.2405,-1.44454 24.43214,-3.29716 36.69007,-4.6029 10.47871,-0.59384 20.90176,-1.41704 31.33292,-2.58184 8.45935,-0.9477 16.96291,-1.2961 25.46744,-1.4826 6.45423,-0.75561 12.84942,-1.86678 19.32562,-2.44452 4.51183,-0.4003 9.04293,-0.47548 13.56958,-0.50639 3.91686,-0.0129 7.83373,-0.002 11.75058,0.006 2.06935,0.003 4.13869,0.004 6.20804,0.002 -0.32015,0.0116 0.54051,-0.007 0.4055,-6e-4 -0.77721,0.0383 -1.67249,0.52092 -2.33199,0.10789 -0.28172,-0.17644 0.0535,-4.98907 0.0527,-5.37161 -1.19912,-5.98135 -1.94579,-12.00614 -2.40056,-18.08758 -0.90628,-6.16629 -2.0878,-12.28476 -2.88843,-18.46702 -0.71439,-4.15192 -0.22169,-4.23196 3.48595,-6.49892 0.5005,-0.30603 -1.03406,0.55439 -1.55109,0.83159 3.79314,-2.43604 7.80705,-3.74436 12.30315,-3.34074 4.774,0.81111 9.55816,1.5306 14.38545,1.92643 4.84807,0.38544 9.75568,1.35663 14.40813,2.79724 4.44436,1.27675 8.79873,2.77969 13.17603,4.26493 3.91322,1.89949 8.05541,3.20522 12.0171,4.98355 3.31212,1.34541 6.77398,2.10079 10.14137,3.28018 3.51967,1.396 6.8957,3.04087 10.5472,4.10189 3.18957,1.2179 6.5326,2.10683 9.707,3.38319 2.34555,1.6183 5.67399,1.55851 7.85786,3.34465 1.71461,3.24151 -1.56579,6.92256 -3.59708,9.26193 -4.31822,4.1937 -8.86028,8.14867 -13.26134,12.25519 -4.57652,4.44895 -9.23678,8.80137 -14.08812,12.94839 -4.08101,3.04357 -7.71628,6.5827 -11.02952,10.4352 -3.05732,3.68791 -6.37756,7.20142 -9.92539,10.42482 -3.33878,3.35573 -6.85368,6.51223 -10.49639,9.53613 -3.22911,3.0328 -6.73551,5.6487 -10.36302,8.172 -2.3682,1.6643 -4.33172,3.5857 -7.41742,3.8468 -0.73667,0.062 -0.95673,-1.1317 -1.36491,-1.7481 -1.70733,-3.2865 -2.58999,-6.9947 -3.67698,-10.5388 -1.44253,-4.4769 -2.5188,-9.09879 -4.09437,-13.53193 -1.13959,-4.00897 -2.90782,-7.75002 -4.3597,-11.63709 -1.09944,-2.97908 -1.28086,-6.11881 -2.61783,-9.00562 -0.7012,-1.36498 -1.64297,-2.494 -1.96489,-4.00425 -0.17984,-1.56339 -0.1488,-3.14572 -0.16836,-4.7164 0,0 2.51866,-1.28754 2.51866,-1.28754 l 0,0 c 0.022,1.55213 0.002,3.11303 0.16086,4.65935 0.29749,1.49129 1.24992,2.59844 1.92524,3.95131 1.34349,2.89786 1.54657,6.02916 2.62063,9.02904 1.44912,3.88999 3.22366,7.62988 4.35812,11.64268 1.58522,4.43347 2.65031,9.06475 4.10223,13.54225 1.0747,3.5188 1.96499,7.1949 3.64705,10.461 1.77969,2.6516 1.3468,0.3015 -0.24223,3.2027 -0.77701,1.4186 4.63387,-4.2915 3.94218,-2.8294 3.62036,-2.5305 7.1673,-5.0879 10.37256,-8.1504 3.64881,-3.019 7.18098,-6.1551 10.50474,-9.52708 3.57262,-3.18627 6.86912,-6.72414 9.93851,-10.39068 3.30442,-3.87189 6.91775,-7.44712 11.02147,-10.47983 4.86719,-4.12553 9.51436,-8.49086 14.09214,-12.93602 4.39234,-4.10687 8.91998,-8.06653 13.26224,-12.22621 1.92632,-2.1444 5.28906,-5.78903 3.7925,-8.84497 -2.21725,-1.69318 -5.46955,-1.69593 -7.80099,-3.28275 -3.18103,-1.24468 -6.49873,-2.17106 -9.69514,-3.35977 -3.64541,-1.08242 -7.02313,-2.74004 -10.55348,-4.11507 -3.3712,-1.17897 -6.85282,-1.91314 -10.1529,-3.30127 -3.95586,-1.76908 -8.08799,-3.08442 -12.00067,-4.96277 -4.37155,-1.49083 -8.73093,-2.97436 -13.16878,-4.2591 -4.65374,-1.40132 -9.53047,-2.39061 -14.37431,-2.74736 -4.82673,-0.40839 -9.60687,-1.15055 -14.3871,-1.92362 -1.99819,-0.13445 -3.67483,-0.023 -5.62106,0.47177 -0.50462,0.12828 -1.00244,0.28337 -1.49634,0.4482 -0.50548,0.16871 -1.14024,0.9447 -1.50038,0.55193 -0.33825,-0.36889 0.84358,-0.53881 1.26538,-0.80822 -1.10713,0.65876 -2.18539,1.36865 -3.32138,1.97626 -0.57131,0.30558 1.02663,-0.81698 1.62381,-1.06827 0.22101,-0.093 -0.33177,0.35536 -0.43913,0.56977 -0.62068,1.23951 0.0467,2.6115 0.0552,3.9064 0.78203,6.19179 1.9562,12.31832 2.87805,18.48921 0.45274,6.08546 1.19211,12.11629 2.4296,18.09523 0.01,2.38409 0.94035,7.99664 -2.95468,8.22589 -2.06392,-0.006 -4.12784,-0.0107 -6.19176,-0.0144 -3.9157,-0.005 -7.83143,-0.0221 -11.74713,-0.005 -4.51918,0.0359 -9.04239,0.11486 -13.54653,0.51837 -6.47422,0.58984 -12.86786,1.71904 -19.32756,2.42225 -8.49636,0.18791 -16.9916,0.54483 -25.44233,1.49503 -10.42841,1.15955 -20.85204,1.95531 -31.32537,2.57463 -12.25176,1.31201 -24.44135,3.14325 -36.673494,4.61092 -12.427999,2.07245 -24.871824,4.02687 -37.285697,6.18376 -10.74304,1.96776 -21.499903,3.82243 -32.394648,4.73542 0,0 2.260988,-1.68605 2.260988,-1.68605 z" />
    <path
       style="color:#000000;fill:#000000;fill-opacity:1;fill-rule:nonzero;stroke:#000000;stroke-width:5;stroke-linecap:butt;stroke-linejoin:miter;stroke-miterlimit:4;stroke-opacity:1;stroke-dasharray:none;stroke-dashoffset:0;marker:none;visibility:visible;display:inline;overflow:visible;enable-background:accumulate"
       id="path3665"
       d="m 340.9292,902.36283 c -1.21032,7.30553 -1.83095,14.68674 -2.21174,22.07623 -0.49054,6.90881 0.0793,13.86941 -0.67397,20.753 -0.83697,5.13252 -1.69662,10.2524 -2.17625,15.43234 -0.28655,3.47288 -0.32172,6.95811 -0.33799,10.44045 -6.3e-4,3.36267 0.006,6.72535 0.0131,10.08801 0.004,2.89864 0.005,5.79728 0.0105,8.69592 -0.0189,1.86435 0.46141,1.2993 -2.52856,0.57381 0,0 2.52313,-1.2856 2.52313,-1.2856 l 0,0 c -3.21311,4.05404 -2.47275,4.26911 -2.52896,2.00321 0.004,-2.90002 0.003,-5.80005 -0.002,-8.70007 -0.004,-3.36328 -0.0175,-6.72656 -0.0128,-10.08984 0.0105,-3.49052 0.0477,-6.98355 0.33059,-10.46483 0.48181,-5.1841 1.32726,-10.3096 2.18612,-15.44332 0.79127,-6.87597 0.19187,-13.8377 0.6904,-20.74206 0.37144,-7.39515 1.00326,-14.7786 2.17612,-22.09452 0,0 2.54193,-1.24273 2.54193,-1.24273 z" />
    <path
       style="color:#000000;fill:#000000;fill-opacity:1;fill-rule:nonzero;stroke:#000000;stroke-width:5;stroke-linecap:butt;stroke-linejoin:miter;stroke-miterlimit:4;stroke-opacity:1;stroke-dasharray:none;stroke-dashoffset:0;marker:none;visibility:visible;display:inline;overflow:visible;enable-background:accumulate"
       id="path3667"
       d="m 340.32409,945.45579 c 5.99386,-1.0591 12.04488,-1.75513 18.11465,-2.18047 4.69688,-0.74443 9.14995,0.45063 13.69803,1.40981 3.94837,0.80328 7.96874,0.97566 11.98332,1.09017 4.07408,0.0791 8.14926,0.0609 12.22388,0.0566 3.77329,0.16541 7.61642,-0.40807 11.33187,0.34875 3.4189,0.98803 6.89948,1.68279 10.41908,2.18506 3.19328,-0.0671 6.07493,1.25064 9.09627,2.0772 3.13371,0.85308 6.40281,0.9524 9.62991,1.05796 2.7407,0.0605 5.48231,0.0539 8.22347,0.0402 1.16021,0.12174 3.90194,-0.44412 -0.61929,0.42649 0,0 2.55024,-1.25732 2.55024,-1.25732 l 0,0 c -2.56624,2.49702 -1.79124,2.55494 -4.23192,2.50388 -2.74096,0.006 -5.48237,0.013 -8.22272,-0.054 -3.24222,-0.11622 -6.52448,-0.23337 -9.66778,-1.11306 -3.00854,-0.84204 -5.89605,-2.09095 -9.07873,-2.04588 -3.51906,-0.51896 -6.99486,-1.23781 -10.42205,-2.19923 -3.71437,-0.67889 -7.53527,-0.14845 -11.29587,-0.30757 -4.07708,0.006 -8.1548,0.0234 -12.23126,-0.0621 -4.02556,-0.12383 -8.05601,-0.30964 -12.01228,-1.13178 -4.52856,-0.96377 -8.96918,-2.08871 -13.64394,-1.35139 -6.0674,0.43555 -12.11642,1.13296 -18.10618,2.20738 0,0 2.2613,-1.70068 2.2613,-1.70068 z" />
    <path
       style="color:#000000;fill:#000000;fill-opacity:1;fill-rule:nonzero;stroke:#000000;stroke-width:5;stroke-linecap:butt;stroke-linejoin:miter;stroke-miterlimit:4;stroke-opacity:1;stroke-dasharray:none;stroke-dashoffset:0;marker:none;visibility:visible;display:inline;overflow:visible;enable-background:accumulate"
       id="path3669"
       d="m 458.3995,908.74172 c -0.0147,7.93161 -0.008,15.86325 -0.005,23.79488 -0.20874,5.01975 0.43548,10.1087 -0.32321,15.08699 -0.86781,3.39669 -1.74795,6.77769 -2.19238,10.25935 -0.33608,3.53042 -0.33439,7.08026 -0.34952,10.62306 -6.1e-4,3.40319 0.009,6.80637 0.0114,10.20957 0.007,3.37017 0.008,6.74036 0.008,10.11054 10e-4,3.44121 6.8e-4,6.88243 -10e-4,10.32364 0.003,2.55435 0.003,5.10875 0.006,7.66315 0.3328,1.9727 -2.53418,2.3815 -2.53246,-0.3889 0,0 2.52983,-1.289 2.52983,-1.289 l 0,0 c 0.001,1.9612 -2.74494,5.9442 -2.53245,2.9695 0.003,-2.5564 0.003,-5.1129 0.006,-7.6693 -0.002,-3.44074 -0.002,-6.88148 -0.002,-10.32221 -0.002,-3.37069 -0.002,-6.74138 -0.004,-10.11207 -0.007,-3.40327 -0.0194,-6.80656 -0.0141,-10.20985 0.0123,-3.55236 0.0119,-7.11088 0.33133,-10.65209 0.42574,-3.48867 1.29282,-6.87851 2.19547,-10.2712 0.81448,-4.95928 0.12126,-10.04921 0.36032,-15.05609 0.003,-7.92979 0.009,-15.85961 -0.005,-23.7894 0,0 2.51328,-1.28057 2.51328,-1.28057 z" />
    <path
       style="color:#000000;fill:#000000;fill-opacity:1;fill-rule:nonzero;stroke:#000000;stroke-width:5;stroke-linecap:butt;stroke-linejoin:miter;stroke-miterlimit:4;stroke-opacity:1;stroke-dasharray:none;stroke-dashoffset:0;marker:none;visibility:visible;display:inline;overflow:visible;enable-background:accumulate"
       id="path3671"
       d="m 486.97295,936.97035 c -0.0145,6.3547 -0.004,12.70941 -9.1e-4,19.06412 0.002,3.89937 0.003,7.79875 0.006,11.69812 -0.001,2.06797 10e-4,4.13594 0.006,6.20391 3e-4,0.10228 6.1e-4,0.20455 9.2e-4,0.30683 0,0 -2.54209,1.29526 -2.54209,1.29526 l 0,0 c 3.1e-4,-0.10259 6.2e-4,-0.20518 9.2e-4,-0.30777 0.005,-2.07013 0.008,-4.14027 0.006,-6.21041 0.003,-3.90141 0.004,-7.80282 0.006,-11.70422 0.003,-6.3544 0.0136,-12.70881 -9.1e-4,-19.0632 0,0 2.51733,-1.28264 2.51733,-1.28264 z" />
    <path
       style="color:#000000;fill:#000000;fill-opacity:1;fill-rule:nonzero;stroke:#000000;stroke-width:5;stroke-linecap:butt;stroke-linejoin:miter;stroke-miterlimit:4;stroke-opacity:1;stroke-dasharray:none;stroke-dashoffset:0;marker:none;visibility:visible;display:inline;overflow:visible;enable-background:accumulate"
       id="path3673"
       d="m 491.78012,957.60569 c 5.87434,1.06448 11.81205,1.71234 17.75983,2.18557 3.54567,0.25916 7.10052,0.31364 10.65408,0.32782 2.86795,0.78804 5.64567,1.7829 8.57532,2.34822 3.47751,0.48489 7.00003,0.47752 10.50401,0.50493 4.15611,0.015 8.31225,0.002 12.46837,-0.005 4.35871,0.77694 8.63413,1.83599 13.03837,2.34548 4.69879,0.43234 9.42069,0.48404 14.13569,0.51691 5.8471,0.0209 11.69426,0.006 17.54137,-0.003 5.14605,-0.007 10.2921,-0.006 15.43815,-0.009 4.7592,0.37951 9.30306,-0.30108 13.9253,-1.3195 3.70953,-0.81756 7.47737,-1.23571 11.26371,-1.45365 3.20814,-0.13077 6.41976,-0.10978 9.62982,-0.10535 3.7232,0.008 7.4464,0.0131 11.16961,0.0164 4.7733,0.004 9.54661,0.005 14.31992,0.006 5.58556,0.0718 11.09969,0.21522 16.6011,-0.8351 2.20074,-0.91412 2.74232,-1.04643 1.51955,-0.69882 0,0 2.63372,-1.02672 2.63372,-1.02672 l 0,0 c -4.97182,3.01048 -2.76281,2.01815 -6.40602,3.42681 -5.51207,1.01112 -11.04218,0.84796 -16.63079,0.7921 -4.77632,4.9e-4 -9.55265,0.002 -14.32897,3.9e-4 -3.72376,-0.003 -7.44751,-0.009 -11.17126,-0.0153 -3.20739,-0.002 -6.41662,-0.0224 -9.6217,0.12033 -3.77579,0.22504 -7.53178,0.66319 -11.22956,1.48392 -4.63022,1.01483 -9.19976,1.61877 -13.96001,1.26919 -5.14526,-0.001 -10.29053,0.003 -15.43579,0.008 -5.8484,0.005 -11.69681,0.0159 -17.5452,0.003 -4.72166,-0.0347 -9.45034,-0.0944 -14.1546,-0.54153 -4.39443,-0.52405 -8.65845,-1.61248 -13.0214,-2.31643 -4.15646,0.006 -8.31298,0.0202 -12.46941,0.002 -3.51733,-0.0282 -7.05542,-0.0227 -10.54245,-0.54221 -2.91069,-0.58038 -5.66808,-1.61152 -8.54367,-2.30496 -3.55444,-0.0209 -7.11,-0.0825 -10.65583,-0.35302 -5.95301,-0.4898 -11.89411,-1.15377 -17.77748,-2.2023 0,0 2.31622,-1.62508 2.31622,-1.62508 z" />
    <path
       style="color:#000000;fill:#000000;fill-opacity:1;fill-rule:nonzero;stroke:#000000;stroke-width:5;stroke-linecap:butt;stroke-linejoin:miter;stroke-miterlimit:4;stroke-opacity:1;stroke-dasharray:none;stroke-dashoffset:0;marker:none;visibility:visible;display:inline;overflow:visible;enable-background:accumulate"
       id="path3675"
       d="m 420.60368,1085.2966 c -2.81832,-6.814 -3.08471,-13.867 -1.74598,-21.0139 1.71188,-5.9486 5.52088,-8.9049 10.90129,-11.3222 3.92088,-0.3263 6.17406,2.8171 7.45084,6.0893 1.18886,4.2902 1.3869,8.6127 0.45271,12.946 -0.4804,2.9287 -1.98554,5.4774 -3.92788,7.6692 -0.12058,0.122 -0.24116,0.244 -0.36174,0.366 0,0 -2.63449,1.088 -2.63449,1.088 l 0,0 c 0.12366,-0.1172 0.24732,-0.2344 0.37098,-0.3515 1.97438,-2.1269 3.52278,-4.6402 4.00459,-7.542 0.96325,-4.2818 0.78905,-8.5452 -0.37797,-12.7975 -1.22869,-3.1785 -3.40882,-6.2056 -7.22526,-5.7411 0.27037,-0.3139 1.21571,-1.0313 0.81112,-0.9419 -3.04755,0.6733 -5.98512,6.7814 -6.9317,9.3067 -1.3662,7.0896 -1.15466,14.0814 1.66983,20.8463 0,0 -2.45634,1.3986 -2.45634,1.3986 z" />
    <path
       style="color:#000000;fill:#000000;fill-opacity:1;fill-rule:nonzero;stroke:#000000;stroke-width:5;stroke-linecap:butt;stroke-linejoin:miter;stroke-miterlimit:4;stroke-opacity:1;stroke-dasharray:none;stroke-dashoffset:0;marker:none;visibility:visible;display:inline;overflow:visible;enable-background:accumulate"
       id="path3677"
       d="m 460.26235,1099.5445 c -1.90207,3.7932 -0.94807,1.8881 -2.86193,5.7151 0,0 -2.56401,1.1601 -2.56401,1.1601 l 0,0 c 1.91168,-3.8241 0.96148,-1.9208 2.85066,-5.7101 0,0 2.57528,-1.1651 2.57528,-1.1651 z" />
    <path
       style="color:#000000;fill:#000000;fill-opacity:1;fill-rule:nonzero;stroke:#000000;stroke-width:5;stroke-linecap:butt;stroke-linejoin:miter;stroke-miterlimit:4;stroke-opacity:1;stroke-dasharray:none;stroke-dashoffset:0;marker:none;visibility:visible;display:inline;overflow:visible;enable-background:accumulate"
       id="path3679"
       d="m 483.18123,1062.5986 c 7.33669,-0.7809 14.48104,-2.6297 21.7348,-3.9101 4.49239,-0.7343 8.75658,-3.5433 13.36485,-3.4241 3.33466,1.7256 2.87741,5.8997 3.00539,9.1347 -0.50959,7.226 -2.19059,14.2697 -3.61053,21.3497 -1.1212,5.6735 -1.67266,11.4352 -2.03815,17.2002 -0.0646,1.051 -0.11117,2.1031 -0.1111,3.1559 0,0 -2.5373,1.311 -2.5373,1.311 l 0,0 c -0.0103,-1.066 0.0462,-2.132 0.11459,-3.1964 0.3826,-5.7793 0.92856,-11.5573 2.0477,-17.2468 1.41411,-7.0603 3.08606,-14.0802 3.62557,-21.2826 -0.11801,-2.9988 0.41873,-7.244 -2.79365,-8.7588 -4.59471,0.061 -8.81299,2.7217 -13.31103,3.4483 -7.25742,1.2919 -14.41381,3.1109 -21.75244,3.9197 0,0 2.2613,-1.7007 2.2613,-1.7007 z" />
    <path
       style="color:#000000;fill:#000000;fill-opacity:1;fill-rule:nonzero;stroke:#000000;stroke-width:5;stroke-linecap:butt;stroke-linejoin:miter;stroke-miterlimit:4;stroke-opacity:1;stroke-dasharray:none;stroke-dashoffset:0;marker:none;visibility:visible;display:inline;overflow:visible;enable-background:accumulate"
       id="path3681"
       d="m 506.39233,1085.8176 c 8.8267,0.4147 17.57089,-0.8777 26.33086,-1.724 6.83511,-0.3881 13.51267,-2.01 20.23846,-3.1855 2.20746,-0.7647 5.09306,0.073 7.08735,-1.1892 0,0 -2.2169,1.7847 -2.2169,1.7847 l 0,0 c -2.17665,0.9903 -4.84235,0.414 -7.12744,1.1046 -6.7217,1.172 -13.39773,2.771 -20.22924,3.1519 -8.77199,0.8538 -17.53012,2.1043 -26.36878,1.7181 0,0 2.28569,-1.6606 2.28569,-1.6606 z" />
  </g>
</svg>
