<?xml version="1.0" encoding="UTF-8" standalone="no"?>
<!-- Created with Inkscape (http://www.inkscape.org/) -->

<svg
   xmlns:dc="http://purl.org/dc/elements/1.1/"
   xmlns:cc="http://creativecommons.org/ns#"
   xmlns:rdf="http://www.w3.org/1999/02/22-rdf-syntax-ns#"
   xmlns:svg="http://www.w3.org/2000/svg"
   xmlns="http://www.w3.org/2000/svg"
   xmlns:sodipodi="http://sodipodi.sourceforge.net/DTD/sodipodi-0.dtd"
   xmlns:inkscape="http://www.inkscape.org/namespaces/inkscape"
   width="494.36508"
   height="308.953"
   id="svg3704"
   version="1.1"
   inkscape:version="0.47pre4 r22446"
   sodipodi:docname="New document 6">
  <defs
     id="defs3706">
    <inkscape:perspective
       sodipodi:type="inkscape:persp3d"
       inkscape:vp_x="0 : 526.18109 : 1"
       inkscape:vp_y="0 : 1000 : 0"
       inkscape:vp_z="744.09448 : 526.18109 : 1"
       inkscape:persp3d-origin="372.04724 : 350.78739 : 1"
       id="perspective3712" />
  </defs>
  <sodipodi:namedview
     id="base"
     pagecolor="#ffffff"
     bordercolor="#666666"
     borderopacity="1.0"
     inkscape:pageopacity="0.0"
     inkscape:pageshadow="2"
     inkscape:zoom="0.35"
     inkscape:cx="313.75039"
     inkscape:cy="139.06198"
     inkscape:document-units="px"
     inkscape:current-layer="layer1"
     showgrid="false"
     inkscape:window-width="1280"
     inkscape:window-height="726"
     inkscape:window-x="0"
     inkscape:window-y="25"
     inkscape:window-maximized="1" />
  <metadata
     id="metadata3709">
    <rdf:RDF>
      <cc:Work
         rdf:about="">
        <dc:format>image/svg+xml</dc:format>
        <dc:type
           rdf:resource="http://purl.org/dc/dcmitype/StillImage" />
        <dc:title></dc:title>
      </cc:Work>
    </rdf:RDF>
  </metadata>
  <g
     inkscape:label="Layer 1"
     inkscape:groupmode="layer"
     id="layer1"
     transform="translate(-61.249612,-362.47115)">
    <path
       style="color:#000000;fill:#000000;fill-opacity:1;fill-rule:nonzero;stroke:#000000;stroke-width:5;stroke-linecap:butt;stroke-linejoin:miter;stroke-miterlimit:4;stroke-opacity:1;stroke-dasharray:none;stroke-dashoffset:0;marker:none;visibility:visible;display:inline;overflow:visible;enable-background:accumulate"
       id="path3714"
       d="m 66.065836,617.60569 c 5.763728,0.63491 11.319912,1.90579 16.877,3.50258 3.692861,1.2158 7.557871,1.59448 11.417634,1.78074 4.392387,-0.28386 8.57091,0.56501 12.84511,1.4127 4.57294,1.1408 9.31224,0.98946 13.92635,1.78589 5.05535,1.10324 10.16989,1.87679 15.32567,2.29324 4.64847,0.29293 9.30822,0.30463 13.964,0.31551 4.74316,-0.42197 9.26293,0.40093 13.88518,1.30086 4.32035,0.79055 8.76064,1.66083 13.14767,1.08374 3.54793,-0.94328 7.13825,-1.64241 10.78111,-2.08333 3.01274,-0.29889 6.04151,-0.32558 9.066,-0.3439 2.8561,-0.005 5.7122,0.007 8.56829,0.0109 2.85449,0.005 5.70899,0.006 8.56348,0.006 3.51736,0.002 7.03471,0.002 10.55207,0.003 5.2923,0.40457 10.41628,-0.42152 15.60561,-1.31031 6.98568,-0.82568 13.86188,-2.29422 20.84217,-3.18028 9.01572,-1.11284 17.97661,-2.51336 27.03757,-3.27386 10.14848,-0.68114 20.20285,-2.19531 30.3556,-2.88491 12.27642,-0.68612 24.57618,-0.72129 36.86785,-0.77019 14.13426,0.80213 28.25174,1.80202 42.40043,2.34157 14.16854,0.46635 28.34627,0.50232 42.52098,0.53778 14.24756,0.0185 28.49515,0.004 42.74271,-0.004 11.54523,-0.23359 23.12352,0.43747 34.64864,-0.36466 9.19716,-0.76297 18.35377,-1.69368 27.33829,-3.85126 5.32195,-1.83891 2.73361,-0.7906 7.76944,-3.13403 0,0 -2.1936,1.74336 -2.1936,1.74336 l 0,0 c -5.05849,2.31206 -2.45966,1.27904 -7.80086,3.08804 -8.99624,2.12117 -18.15665,3.05974 -27.35904,3.80887 -11.52535,0.76005 -23.09784,0.11757 -34.6412,0.33608 -14.24631,0.005 -28.49262,0.0175 -42.73892,3.5e-4 -14.17681,-0.0345 -28.35672,-0.0736 -42.52719,-0.5455 -14.14752,-0.54335 -28.26349,-1.55803 -42.39845,-2.32849 -12.29248,0.055 -24.59339,0.0933 -36.86997,0.79392 -10.15228,0.70736 -20.21008,2.21635 -30.36057,2.89403 -9.06007,0.77284 -18.02086,2.18141 -27.03813,3.2893 -6.97938,0.90372 -13.862,2.35891 -20.84812,3.19955 -5.19929,0.8909 -10.34275,1.65795 -15.64194,1.27758 -3.52004,0.001 -7.04009,0.002 -10.56013,0.003 -2.85459,-0.002 -5.70919,-0.002 -8.56378,-0.006 -2.85557,-0.006 -5.71117,-0.016 -8.56675,-0.009 -3.01744,0.0192 -6.03971,0.0539 -9.04391,0.36839 -3.64041,0.45139 -7.2165,1.19764 -10.77639,2.07911 -4.41478,0.48374 -8.85715,-0.33818 -13.19499,-1.1584 -4.60971,-0.89743 -9.12966,-1.65315 -13.85577,-1.25595 -4.66023,-0.0113 -9.32455,-0.0292 -13.97683,-0.33401 -5.15932,-0.43184 -10.27402,-1.22689 -15.33697,-2.31442 -4.62223,-0.75453 -9.35979,-0.64675 -13.9328,-1.79154 -4.26526,-0.84689 -8.44749,-1.62749 -12.826595,-1.37523 -3.873505,-0.19996 -7.746697,-0.6098 -11.449721,-1.83785 -5.548306,-1.60144 -11.1085,-2.83286 -16.862452,-3.47302 0,0 2.316224,-1.62508 2.316224,-1.62508 z" />
    <path
       style="color:#000000;fill:#000000;fill-opacity:1;fill-rule:nonzero;stroke:#000000;stroke-width:5;stroke-linecap:butt;stroke-linejoin:miter;stroke-miterlimit:4;stroke-opacity:1;stroke-dasharray:none;stroke-dashoffset:0;marker:none;visibility:visible;display:inline;overflow:visible;enable-background:accumulate"
       id="path3716"
       d="m 286.64349,399.50568 c -1.09848,9.70842 -2.80814,19.32796 -3.93797,29.03332 -1.0659,10.314 -1.30333,20.6865 -1.44133,31.04666 -0.0721,7.85153 -0.0475,15.70351 -0.0347,23.55524 0.46315,6.50024 2.15828,12.85501 2.02312,19.38697 -0.70311,6.3262 -1.31307,12.65353 -1.66219,19.01042 -0.4347,7.12191 -0.0134,14.27172 -0.6851,21.37423 -1.07568,7.29449 -1.80084,14.62652 -2.19265,21.98763 -0.91942,6.7713 -2.05672,13.49964 -2.66819,20.30949 -0.20373,6.58968 -1.1917,13.11623 -2.57547,19.55437 -1.69814,6.69642 -2.73202,13.51038 -3.28771,20.38806 -0.92644,5.16326 -2.14576,10.23858 -2.71909,15.46081 -0.11447,5.41404 -0.74158,10.69745 -1.79111,16.00425 -0.70223,3.54516 -1.12817,7.1389 -1.4552,10.73601 -0.015,0.10649 -0.03,0.21298 -0.045,0.31947 0,0 -2.56376,1.25155 -2.56376,1.25155 l 0,0 c 0.0208,-0.101 0.0417,-0.202 0.0625,-0.303 0.33785,-3.60798 0.76317,-7.21401 1.46103,-10.77189 1.06256,-5.29917 1.71149,-10.57063 1.8021,-15.9818 0.55972,-5.22471 1.75833,-10.3016 2.72964,-15.45728 0.54987,-6.88983 1.57418,-13.71765 3.27839,-20.425 1.39396,-6.42422 2.3827,-12.94152 2.58341,-19.51957 0.60593,-6.80926 1.73326,-13.53745 2.68005,-20.3039 0.38135,-7.36484 1.1038,-14.7017 2.18675,-21.99838 0.69682,-7.09586 0.25366,-14.24391 0.68574,-21.36151 0.34596,-6.35359 0.93384,-12.68056 1.66251,-19.00093 0.17836,-6.53083 -1.54493,-12.88667 -2.01188,-19.38461 -0.0117,-7.85527 -0.0331,-15.71078 0.0463,-23.5658 0.1371,-10.3698 0.38322,-20.75127 1.43596,-31.07584 1.12094,-9.70259 2.85164,-19.31453 3.89195,-29.02623 0,0 2.54193,-1.24274 2.54193,-1.24274 z" />
    <path
       style="color:#000000;fill:#000000;fill-opacity:1;fill-rule:nonzero;stroke:#000000;stroke-width:5;stroke-linecap:butt;stroke-linejoin:miter;stroke-miterlimit:4;stroke-opacity:1;stroke-dasharray:none;stroke-dashoffset:0;marker:none;visibility:visible;display:inline;overflow:visible;enable-background:accumulate"
       id="path3718"
       d="m 97.249401,614.291 c 6.243079,0.0641 12.486879,0.0447 18.729999,-0.006 3.5681,-0.004 7.1362,-0.0222 10.7043,-0.0185 3.04346,-0.42681 5.95034,-1.65044 9.04679,-2.26332 3.69327,-0.51517 7.42741,-0.54138 11.14863,-0.59853 3.29926,-0.10695 6.42156,-1.56411 9.66119,-2.29739 3.85815,-0.51956 7.77009,-0.51182 11.65719,-0.55077 3.46763,-0.15363 6.95024,0.32754 10.33882,-0.48675 3.68594,-1.19878 7.47944,-1.77294 11.32025,-2.14901 2.9352,-0.21075 5.87534,-0.26776 8.81685,-0.25764 2.87645,-0.002 5.75281,0.0269 8.62926,0.0267 2.97199,0.018 5.94401,-0.01 8.91598,-0.005 3.22427,0.15315 6.21398,-1.2565 9.35997,-1.90698 3.98928,-0.62571 8.02983,-0.83824 12.06258,-0.92465 3.32931,-0.0698 6.65969,-0.0366 9.98938,-0.0182 4.13483,0.0193 8.26973,0.0106 12.40459,0.0126 4.02409,-0.008 8.04822,0.0138 12.0723,0.002 4.01718,-1.13623 8.11701,-1.89797 12.24597,-2.47945 3.85784,-0.37009 7.74032,-0.36793 11.61241,-0.40675 3.51068,0.006 7.02139,0.002 10.53207,0.0112 2.96688,0.002 5.93378,-0.006 8.90066,0.002 3.50008,-0.29249 6.87943,-1.65395 10.40794,-2.2303 3.55106,-0.47609 7.13052,-0.57543 10.70735,-0.64043 3.27588,-0.23624 6.72295,0.56967 9.85666,-0.51908 2.96065,-1.21344 6.18095,-1.81729 9.35816,-2.12801 3.20616,-0.0335 6.53183,-0.71611 9.60415,0.33649 2.56129,1.01144 5.22651,1.65001 7.92182,2.18028 3.44582,-7.07528 0.12463,0.0741 -18.21305,9.65719 -0.86114,0.45002 1.18992,-1.5455 1.66148,-2.39503 0.66871,-1.20473 1.11384,-2.08237 1.75378,-3.31323 2.29157,-3.51317 3.93549,-7.34693 5.69416,-11.13868 1.83153,-3.29023 3.81347,-6.44456 4.95684,-10.05197 1.47355,-3.44909 2.44541,-7.0704 3.81945,-10.55768 1.27703,-3.75014 2.7276,-7.36526 4.79208,-10.75365 1.88159,-3.11704 3.89179,-6.16401 5.99418,-9.13753 1.90223,-3.20091 4.29542,-6.04178 6.58691,-8.95927 2.37833,-2.97915 4.40749,-6.21539 6.64258,-9.29848 2.27404,-2.7975 4.098,-5.91264 6.31812,-8.76102 2.13253,-2.76412 3.95267,-5.76789 6.13226,-8.49172 2.04468,-2.59183 3.42029,-5.6601 5.02061,-8.54119 1.93673,-3.05819 4.1201,-5.9706 6.325,-8.84277 2.53999,-2.89603 4.68182,-6.09548 6.6731,-9.38768 2.17565,-3.70227 4.58884,-7.24916 7.04325,-10.77024 2.9969,-4.09785 6.53602,-7.7365 9.61972,-11.76594 3.38187,-3.99199 6.85783,-7.91064 10.07155,-12.04066 2.73647,-4.05992 5.81964,-7.85745 8.78306,-11.74697 2.79321,-3.32405 5.14359,-6.98193 7.34243,-10.71878 2.0641,-3.23428 4.05624,-6.51092 5.87202,-9.89218 1.74957,-3.17084 3.73611,-6.19765 5.66187,-9.26129 1.85261,-2.90218 3.82373,-5.72696 5.70499,-8.61091 1.91075,-3.06923 4.26724,-5.81717 6.43031,-8.70576 2.22402,-2.95131 4.31783,-5.99984 6.45845,-9.01307 1.64234,-1.98558 2.70309,-4.27747 3.5598,-6.67951 1.34254,-1.34072 2.80868,-2.28257 4.06314,-3.77746 0,0 20.74469,-9.04888 20.74469,-9.04888 l 0,0 c -0.968,1.73882 -1.66431,3.59056 -3.82576,3.97906 -2.16328,0.65203 -1.62386,5.28772 -3.76442,6.52196 -2.18944,3.01607 -4.26365,6.06413 -6.41947,9.07138 -2.20353,2.81586 -4.26712,5.68215 -6.53626,8.42089 -1.53213,3.05146 -3.7611,5.81097 -5.71752,8.59041 -1.59161,3.20977 -3.88724,6.08947 -5.73222,9.15548 -1.56301,3.53157 -3.67358,6.82303 -5.80522,10.03242 -2.14842,3.81708 -4.37096,7.67778 -7.2993,10.93961 -2.71607,4.07166 -6.20877,7.59204 -8.79002,11.77759 -2.95492,4.31474 -6.58252,8.2047 -10.07591,12.08118 -3.01741,4.06255 -6.33517,7.81097 -9.59459,11.68125 -2.48733,3.45975 -4.88522,6.94645 -7.08294,10.5786 -1.9181,3.35444 -3.87552,6.82901 -6.59518,9.57189 -1.98949,2.9967 -4.35536,5.69502 -6.39644,8.67388 -1.8415,2.85657 -3.21184,5.95113 -4.82983,8.90685 -2.42938,2.52106 -4.12451,5.54255 -6.24775,8.33077 -2.08183,2.98793 -4.45573,5.72595 -6.20994,8.93217 -2.79779,2.57157 -4.23796,6.35552 -6.74718,9.19737 -2.27243,2.91512 -4.80866,5.6298 -6.57289,8.87002 -2.18169,2.89896 -4.23217,5.92956 -6.06589,9.02934 -2.21104,3.22418 -3.89452,6.58529 -4.98968,10.34882 -1.35228,3.43917 -2.17746,7.01925 -3.89371,10.29722 -0.821,3.80773 -2.56421,7.25871 -4.85724,10.40428 -1.61782,3.8351 -3.18765,7.81175 -5.64566,11.1887 -3.99452,9.11643 -12.15295,21.83044 -24.51627,18.39733 -2.65774,-0.65084 -5.25951,-1.47167 -7.88519,-2.23286 -3.0326,-0.27805 -6.10752,0.0113 -9.1271,0.33187 -3.13612,0.54902 -6.18885,1.36363 -9.24612,2.23758 -3.36343,0.2918 -6.74263,0.0694 -10.11547,0.19864 -3.49843,0.0872 -7.00679,0.27069 -10.45246,0.92282 -3.54199,0.77624 -7.02143,2.09561 -10.69453,1.90974 -2.96257,0.005 -5.92517,-0.005 -8.88771,-0.0154 -3.5033,-0.003 -7.00667,-0.0345 -10.50989,0.005 -3.8126,0.036 -7.64141,0.09 -11.41987,0.6527 -4.16171,0.65136 -8.23526,1.80906 -12.42922,2.19945 -4.02543,-0.0115 -8.05093,0.0106 -12.07637,-9.8e-4 -4.1351,-0.002 -8.2702,-0.0193 -12.4053,-0.015 -3.31994,0.008 -6.64054,-7.1e-4 -9.95955,0.0883 -3.95128,0.1622 -7.92389,0.38269 -11.79076,1.27196 -3.20268,0.81084 -6.36662,1.83547 -9.7184,1.53469 -2.96402,0.004 -5.92806,-0.0264 -8.89211,-0.0168 -2.88041,-0.01 -5.76086,-8.3e-4 -8.64128,10e-4 -2.88299,0.0403 -5.77048,0.10042 -8.63874,0.42131 -3.79982,0.46771 -7.48357,1.42493 -11.22342,2.21681 -3.50581,0.31502 -7.0206,0.18153 -10.53815,0.229 -3.81383,0.0803 -7.68022,0.0811 -11.40793,0.99002 -3.27724,0.84013 -6.47465,2.13195 -9.92796,1.87777 -3.64663,0.0752 -7.3215,0.19075 -10.8992,0.96453 -3.10561,0.73162 -6.07806,2.13902 -9.33845,1.87769 -3.55111,0.004 -7.10222,-0.0142 -10.653332,-0.0185 -6.237712,-0.0517 -12.476105,-0.0689 -18.713788,-0.006 0,0 18.285541,-13.28522 18.285541,-13.28522 z" />
  </g>
</svg>
