<?xml version="1.0" encoding="UTF-8" standalone="no"?>
<!-- Created with Inkscape (http://www.inkscape.org/) -->

<svg
   xmlns:dc="http://purl.org/dc/elements/1.1/"
   xmlns:cc="http://creativecommons.org/ns#"
   xmlns:rdf="http://www.w3.org/1999/02/22-rdf-syntax-ns#"
   xmlns:svg="http://www.w3.org/2000/svg"
   xmlns="http://www.w3.org/2000/svg"
   xmlns:sodipodi="http://sodipodi.sourceforge.net/DTD/sodipodi-0.dtd"
   xmlns:inkscape="http://www.inkscape.org/namespaces/inkscape"
   width="613.27209"
   height="588.30505"
   id="svg2"
   version="1.1"
   inkscape:version="0.47pre4 r22446"
   sodipodi:docname="New document 1">
  <defs
     id="defs4">
    <inkscape:perspective
       sodipodi:type="inkscape:persp3d"
       inkscape:vp_x="0 : 526.18109 : 1"
       inkscape:vp_y="0 : 1000 : 0"
       inkscape:vp_z="744.09448 : 526.18109 : 1"
       inkscape:persp3d-origin="372.04724 : 350.78739 : 1"
       id="perspective10" />
  </defs>
  <sodipodi:namedview
     id="base"
     pagecolor="#ffffff"
     bordercolor="#666666"
     borderopacity="1.0"
     inkscape:pageopacity="0.0"
     inkscape:pageshadow="2"
     inkscape:zoom="0.80400466"
     inkscape:cx="306.63606"
     inkscape:cy="294.15253"
     inkscape:document-units="px"
     inkscape:current-layer="layer1"
     showgrid="false"
     inkscape:window-width="1280"
     inkscape:window-height="726"
     inkscape:window-x="0"
     inkscape:window-y="25"
     inkscape:window-maximized="1" />
  <metadata
     id="metadata7">
    <rdf:RDF>
      <cc:Work
         rdf:about="">
        <dc:format>image/svg+xml</dc:format>
        <dc:type
           rdf:resource="http://purl.org/dc/dcmitype/StillImage" />
        <dc:title></dc:title>
      </cc:Work>
    </rdf:RDF>
  </metadata>
  <g
     inkscape:label="Layer 1"
     inkscape:groupmode="layer"
     id="layer1"
     transform="translate(3.7640394,-136.96405)">
    <path
       style="color:#000000;fill:none;stroke:#000000;stroke-width:5;stroke-linecap:butt;stroke-linejoin:miter;stroke-miterlimit:4;stroke-opacity:1;stroke-dasharray:none;stroke-dashoffset:0;marker:none;visibility:visible;display:inline;overflow:visible;enable-background:accumulate"
       id="path2816"
       d="m 355.87723,139.46405 c 3.45049,13.67436 3.9004,27.82944 4.48924,41.84653 0.92896,35.46368 0.78275,70.9463 0.80152,106.41926 -0.5823,55.68465 0.29033,111.33245 2.04828,166.98613 1.81559,59.66584 6.97467,119.1411 11.88335,178.60866 2.35067,29.46897 5.26204,58.88575 8.27451,88.29255 0,0 -2.20507,1.15192 -2.20507,1.15192 l 0,0 c -2.9861,-29.41646 -5.87162,-58.84262 -8.23755,-88.31707 -4.95794,-59.46556 -10.06768,-118.94625 -11.90287,-178.61266 -1.77002,-55.64153 -2.65976,-111.27735 -2.13489,-166.95045 -0.0559,-35.44569 0.0475,-70.90164 -0.93872,-106.33661 -0.61115,-13.98896 -1.06382,-28.12936 -4.5773,-41.76226 0,0 2.4995,-1.326 2.4995,-1.326 z" />
    <path
       style="color:#000000;fill:none;stroke:#000000;stroke-width:5;stroke-linecap:butt;stroke-linejoin:miter;stroke-miterlimit:4;stroke-opacity:1;stroke-dasharray:none;stroke-dashoffset:0;marker:none;visibility:visible;display:inline;overflow:visible;enable-background:accumulate"
       id="path2818"
       d="m 1.0179697,434.39034 c 15.3665753,0.39881 30.6971923,-0.55551 46.0382513,-1.26965 27.017876,-1.24394 53.832619,-4.72205 80.700029,-7.61974 39.05787,-3.92955 77.98273,-8.91042 116.84129,-14.4421 45.13327,-6.92997 90.46394,-12.28749 135.82756,-17.42403 41.30972,-4.40595 82.82101,-6.68451 124.30929,-8.6345 34.08068,-1.65088 68.21558,-1.0812 102.27369,-3.15355 0,0 -2.14248,1.57643 -2.14248,1.57643 l 0,0 c -34.04314,2.03901 -68.16148,1.46434 -102.22568,3.1139 -41.47468,1.9435 -82.9722,4.21834 -124.26799,8.62508 -45.36431,5.13182 -90.69445,10.49485 -135.82671,17.43261 -38.88108,5.54475 -77.82959,10.53089 -116.90938,14.48192 -26.890783,2.91824 -53.730507,6.3982 -80.773244,7.65353 -15.370499,0.72865 -30.729981,1.66734 -46.1266354,1.31807 0,0 2.2820091,-1.65797 2.2820091,-1.65797 z" />
    <path
       style="color:#000000;fill:#000000;fill-opacity:1;stroke:#000000;stroke-width:5;stroke-linecap:butt;stroke-linejoin:miter;stroke-miterlimit:4;stroke-opacity:1;stroke-dasharray:none;stroke-dashoffset:0;marker:none;visibility:visible;display:inline;overflow:visible;enable-background:accumulate"
       id="path2820"
       d="m 91.447408,427.0544 c 5.938651,-0.89042 11.922052,-1.42414 17.904682,-1.90842 4.0287,-0.15658 8.06267,-0.21566 12.09448,-0.18747 2.9742,0.001 5.94873,-0.0171 8.9229,0.008 2.8456,4.3e-4 5.69144,-0.0221 8.537,10e-4 0.86886,-0.40523 1.98854,0.39731 2.8523,-2e-5 0.41264,-0.18981 0.48258,-0.79205 0.83885,-1.07378 1.14905,-0.90865 2.85992,-1.25236 4.24655,-1.46674 3.38523,-0.53939 6.88694,-0.37845 10.31521,-0.32425 2.49347,-0.46916 5.48271,0.70776 7.92999,0.0143 1.03464,-0.29319 1.82493,-1.13967 2.76275,-1.66592 3.41511,-0.96262 7.01435,-1.22305 10.55434,-1.24199 3.02243,-0.0524 6.04788,-0.0234 9.07095,0.0223 2.00347,-2.75531 5.61146,-2.4885 8.66186,-2.7915 3.51202,-0.13811 7.02578,-0.0933 10.5399,-0.0549 3.19069,-1.97105 6.80611,-2.57479 10.48764,-2.71759 3.38216,-0.21765 6.77917,-0.21494 10.16775,-0.1636 3.29781,0.0438 6.59699,0.0609 9.89513,0.0321 3.18457,0.008 6.36904,0.009 9.55362,0.0273 3.46984,-0.0109 6.94001,-0.009 10.40987,0.0217 3.27776,-0.42203 7.39805,1.03723 10.16147,-0.94163 3.59008,-1.58414 7.52553,-1.65233 11.37057,-1.92251 3.98796,-0.38532 8.31676,0.84699 12.02918,-0.8132 4.47086,-1.35308 9.10201,-1.77609 13.74624,-1.92511 3.74206,-0.76143 8.62319,1.17648 11.81445,-1.08514 3.06559,-1.70393 6.49127,-1.66898 9.88068,-2.03258 2.76168,-0.29225 6.03598,0.86897 8.31776,-0.84913 3.76134,-1.0825 7.64128,-1.79695 11.55802,-1.86834 1.11822,-0.47582 2.42325,0.30578 3.54225,-0.0718 0.47817,-0.16136 0.71283,-0.72841 1.14191,-0.99406 1.48311,-0.91821 3.43495,-1.04558 5.09709,-1.43083 0.62574,-0.0604 1.27624,0.003 1.87723,-0.18126 1.19864,-0.36789 2.16476,-1.29335 3.34026,-1.72955 2.08774,-0.7747 3.95854,-0.77041 6.00153,-1.75764 2.32811,-1.62661 5.2992,-1.44902 7.85601,-2.2569 1.21025,-0.3824 2.24509,-1.18506 3.3803,-1.75272 3.21071,-1.63787 7.20844,-0.4553 10.20106,-2.23054 3.1014,-2.08852 6.57272,-1.71919 10.12688,-1.91661 3.88616,0.4162 6.71092,-1.30819 10.28189,-2.64473 23.09754,-9.22544 51.20371,-30.24535 -60.06562,36.09999 -0.44735,0.26674 0.84431,-0.67348 1.06092,-1.14715 0.4095,-2.80809 0.20919,-5.65661 0.18505,-8.48284 0.11837,-3.49843 -0.0897,-6.8242 -0.90577,-10.22879 -1.08686,-4.27203 -1.38997,-8.67585 -1.85966,-13.04154 -0.94513,-3.70952 -1.58377,-7.50276 -2.50391,-11.21523 -1.08924,-3.62791 -2.81945,-6.98389 -4.17993,-10.51368 -1.63191,-3.68761 -3.12262,-7.41075 -4.04806,-11.34076 -0.42066,-3.05698 -1.76445,-5.84125 -2.58574,-8.79753 -0.68633,-3.26902 -1.03648,-6.60807 -1.15702,-9.94409 0.34446,-2.78759 -0.8816,-5.26152 -1.66775,-7.8605 -0.84788,-2.80386 -1.07775,-5.73624 -1.16411,-8.64888 -0.0787,-3.6931 0.062,-7.38557 0.0247,-11.07849 -0.0653,-3.84817 0.0586,-7.69675 0.0105,-11.54471 -0.0295,-3.36978 -0.0136,-6.74064 -0.074,-10.11005 0.41244,-3.33567 -0.4266,-6.37148 -1.2597,-9.56378 -1.21419,-3.81829 -1.10575,-7.45057 -0.24773,-11.28767 0.87871,-2.68119 1.19854,-5.48532 1.43503,-8.28337 0.17985,-3.53561 0.1725,-7.08273 0.10487,-10.62209 -0.008,-3.08924 -0.0451,-6.17678 0.0105,-9.26592 0.004,-3.61617 -0.004,-7.23246 0.0384,-10.84861 -0.0508,-3.26161 -0.001,-6.5238 -0.11342,-9.78429 -0.0223,-2.56191 0.0332,-5.12373 0.006,-7.68555 0.0306,-3.0935 0.037,-6.1869 0.0663,-9.28053 0.66411,-0.9934 -0.84577,-3.6459 -0.14931,-4.55067 0.17172,-0.22308 0.32933,0.50364 0.31237,0.78464 -0.33368,-0.24639 -0.66736,-0.49279 -1.00104,-0.73919 0,0 62.43704,-39.17531 62.43704,-39.17531 l 0,0 c 0.5289,0.45069 1.05779,0.90137 1.58669,1.35206 2.63582,3.44796 2.82411,4.76243 2.47364,8.87334 0.0294,3.07112 0.0356,6.14199 0.0663,9.21297 -0.0272,2.55995 0.0277,5.11987 0.006,7.67991 -0.10976,3.29904 -0.0645,6.59959 -0.11357,9.89971 0.0434,3.60083 0.0347,7.20176 0.0421,10.80263 0.0605,3.07944 0.0298,6.15766 0.0346,9.23733 -0.0584,3.62681 -0.0478,7.25567 -0.0292,10.88258 0.0349,3.24774 -0.0693,6.48768 -0.65492,9.69109 -0.96452,3.27344 -2.41161,4.68207 -1.49329,8.12206 0.81807,3.69001 2.45153,7.22009 2.18257,11.05265 -0.0597,3.39593 -0.0448,6.79323 -0.0759,10.1895 -0.0503,3.85184 0.0683,7.70441 -0.0115,11.55637 -0.0484,3.61224 0.0525,7.22557 0.0572,10.8377 0.0335,2.36353 -0.0427,4.75354 0.3761,7.08903 0.67115,3.18311 2.39118,6.15628 2.48686,9.41577 0.0122,2.85928 -0.052,5.72854 0.35982,8.56824 0.59307,3.15705 2.26255,5.96554 2.68355,9.12389 0.50302,3.6687 1.75227,7.11779 3.4769,10.39511 1.17061,3.65876 3.14614,6.92468 4.29897,10.58639 1.46705,3.88889 1.42647,8.17198 2.79156,12.13124 1.09459,4.19551 0.72978,8.56317 1.76922,12.79441 0.89216,3.83481 2.20879,7.54705 1.81725,11.54245 0.0747,3.06842 0.11997,6.13699 0.24739,9.20388 2.22834,27.61031 -39.78428,36.43354 -65.43657,43.07695 -3.69647,0.93045 -7.27656,1.1048 -11.05425,1.43205 -3.313,0.56094 -6.11281,2.26686 -9.41725,2.83037 -3.43728,0.18378 -6.56625,1.43357 -9.68394,2.85763 -3.81195,1.14267 -7.64019,2.11892 -11.33404,3.66277 -3.97358,0.90877 -7.66052,2.76509 -11.72522,3.32668 -3.52392,1.00627 -6.72563,1.59317 -10.40447,1.61409 -3.73349,0.75942 -7.42609,1.69576 -11.14906,2.49367 -2.91313,-0.27526 -5.83681,-0.13845 -8.70328,0.50315 -3.24798,0.56685 -6.21825,1.98172 -9.50903,2.32942 -4.04685,-0.45951 -8.11975,-0.0627 -12.16836,0.26697 -4.52144,0.61671 -8.94455,1.72561 -13.44834,2.43726 -4.1251,-0.15511 -8.27316,-0.0721 -12.36199,0.55115 -3.7344,0.55394 -7.27681,1.88223 -10.99986,2.46539 -3.64042,-0.42616 -7.30897,-0.1628 -10.97021,-0.2579 -3.4905,0.0303 -6.98131,0.0332 -10.47177,0.0208 -3.20965,0.0162 -6.41919,0.0155 -9.62882,0.0106 -3.27127,-0.0434 -6.54485,-0.05 -9.81547,0.025 -3.18406,0.11659 -6.37395,0.24407 -9.50744,0.87899 -3.65149,0.94941 -7.24911,2.47959 -11.09585,1.95496 -3.31754,0.10006 -6.66329,0.19651 -9.90241,0.99613 -3.16343,0.75663 -6.07116,2.86456 -9.41481,1.85525 -2.89524,0.0482 -5.79505,0.0636 -8.67301,0.42902 -3.28731,0.54948 -6.50337,1.3106 -9.64287,2.44802 -3.88829,0.34586 -7.85129,-0.41037 -11.762134,0.0819 -3.194248,0.24355 -6.334784,0.59289 -9.30915,1.87237 -3.109946,1.37588 -5.877961,1.13357 -9.191577,0.90113 -2.847589,0.0217 -5.695485,-10e-4 -8.543047,-0.0111 -2.94507,0.0138 -5.8901,-0.0257 -8.835217,-0.0177 -3.856639,0.0595 -7.717778,0.0897 -11.558587,0.49337 -5.921661,0.479 -11.812104,1.27637 -17.632624,2.47944 0,0 58.793654,-44.21775 58.793654,-44.21775 z" />
    <path
       style="color:#000000;fill:#000000;fill-opacity:1;fill-rule:nonzero;stroke:#000000;stroke-width:5;stroke-linecap:butt;stroke-linejoin:miter;stroke-miterlimit:4;stroke-opacity:1;stroke-dasharray:none;stroke-dashoffset:0;marker:none;visibility:visible;display:inline;overflow:visible;enable-background:accumulate"
       id="path3596"
       d="m 434.76793,47.717481 c 0.6358,3.170764 0.81923,6.36148 0.60001,9.579234 -0.0961,3.080715 -0.80621,6.071424 -1.40238,9.079924 -0.23408,1.309586 -0.43471,2.626245 -0.56709,3.950266 -1.31938,1.863133 -1.29445,-0.271595 -1.32718,-0.708048 0,0 1.09038,-0.565435 1.09038,-0.565435 l 0,0 c 0.0833,1.2209 0.23294,0.755779 -0.88752,1.989173 -0.037,0.04076 0.01,-0.109699 0.0148,-0.164549 0.13941,-1.330007 0.34571,-2.652414 0.5787,-3.968942 0.60293,-3.004776 1.31868,-5.992062 1.41799,-9.070236 0.22168,-3.205703 0.0559,-6.385466 -0.60183,-9.541758 0,0 1.08413,-0.579629 1.08413,-0.579629 z"
       transform="translate(-3.7640394,136.96405)" />
    <path
       style="color:#000000;fill:#000000;fill-opacity:1;fill-rule:nonzero;stroke:#000000;stroke-width:5;stroke-linecap:butt;stroke-linejoin:miter;stroke-miterlimit:4;stroke-opacity:1;stroke-dasharray:none;stroke-dashoffset:0;marker:none;visibility:visible;display:inline;overflow:visible;enable-background:accumulate"
       id="path3598"
       d="m 440.43039,27.403826 c -1.55749,-0.942396 -2.67291,-2.226619 -2.24746,-4.104253 0.3297,-1.088841 2.0083,-2.691126 2.5623,-0.824038 0.26844,1.027824 -0.37917,1.55274 -1.09792,2.113261 -0.90866,0.953874 -1.19008,1.105355 -2.58487,1.478496 0,0 1.03052,-0.681559 1.03052,-0.681559 l 0,0 c -1.58049,1.744821 -0.002,-0.02913 0.40851,-0.336495 0.66146,-0.552858 1.42319,-0.954811 1.15959,-1.982427 -0.0398,-0.142948 -0.0587,-0.293487 -0.11947,-0.428844 -0.0446,-0.09929 -0.24709,-0.170373 -0.19193,-0.26422 0.18376,-0.312647 0.55127,-0.475396 0.78808,-0.750053 0.30961,-0.359083 -1.29537,1.292889 -0.84522,1.144012 -0.4897,1.816912 0.65726,3.066459 2.16634,3.95942 0,0 -1.02847,0.6767 -1.02847,0.6767 z"
       transform="translate(-3.7640394,136.96405)" />
    <path
       style="color:#000000;fill:#000000;fill-opacity:1;fill-rule:nonzero;stroke:#000000;stroke-width:5;stroke-linecap:butt;stroke-linejoin:miter;stroke-miterlimit:4;stroke-opacity:1;stroke-dasharray:none;stroke-dashoffset:0;marker:none;visibility:visible;display:inline;overflow:visible;enable-background:accumulate"
       id="path3600"
       d="m 539.24494,291.49716 c 0.71826,4.99816 0.81132,10.05991 0.93821,15.09969 -0.0359,6.97866 0.24418,13.93411 0.71151,20.89467 0.12973,4.40516 0.62559,8.76779 1.39602,13.10291 0.19291,1.15952 0.38417,2.31987 0.53528,3.48574 -0.2674,0.0304 -0.63963,0.3056 -0.80221,0.0911 -0.1468,-0.19366 0.29894,-0.3853 0.4191,-0.59652 0.16269,-0.28599 0.2925,-0.58967 0.4266,-0.89013 0.72835,-1.63194 1.33185,-3.32366 1.98286,-4.98694 2.40978,-6.41145 4.94865,-12.77255 7.35636,-19.18499 1.94669,-5.95978 4.82644,-11.51357 7.42867,-17.19132 0.69527,-1.62201 1.42787,-3.23569 1.98659,-4.91204 0.12491,-0.44997 0.0337,-0.81764 -0.0733,-1.26229 0,0 1.08386,-0.58627 1.08386,-0.58627 l 0,0 c 0.12142,0.46523 0.21997,0.84584 0.11096,1.32194 -0.56454,1.68706 -1.31533,3.30656 -2.01471,4.93959 -2.61089,5.68098 -5.51904,11.22892 -7.46309,17.19787 -2.40187,6.40621 -4.93369,12.76176 -7.32455,19.17194 -0.45741,1.1753 -1.82263,5.66403 -2.78798,6.48771 -0.43852,0.37417 -0.95137,0.65122 -1.42706,0.97684 -0.13713,-1.16802 -0.32595,-2.32942 -0.5138,-3.49008 -0.74953,-4.34678 -1.24831,-8.71725 -1.37014,-13.13097 -0.4603,-6.96258 -0.74127,-13.92003 -0.71137,-20.90019 -0.13146,-5.02636 -0.22483,-10.07751 -0.97192,-15.05867 0,0 1.08414,-0.57963 1.08414,-0.57963 z"
       transform="translate(-3.7640394,136.96405)" />
    <path
       style="color:#000000;fill:#000000;fill-opacity:1;fill-rule:nonzero;stroke:#000000;stroke-width:5;stroke-linecap:butt;stroke-linejoin:miter;stroke-miterlimit:4;stroke-opacity:1;stroke-dasharray:none;stroke-dashoffset:0;marker:none;visibility:visible;display:inline;overflow:visible;enable-background:accumulate"
       id="path3602"
       d="m 558.72679,368.03255 c -1.50931,-1.56091 -2.20491,-3.2479 -2.32171,-5.3854 0.22688,-1.69856 1.17702,-3.18587 2.09414,-4.60136 1.04284,-1.43185 2.39709,-2.58458 3.8412,-3.59427 1.74252,-1.02984 3.39119,-1.95732 5.44841,-1.60089 2.11341,0.36333 2.84442,1.97637 3.30665,3.87137 0.54859,3.09375 -8.9e-4,6.26216 -0.52408,9.32457 -0.64179,3.57246 -1.23571,7.17333 -2.35057,10.63516 -0.89907,2.56691 -1.86446,3.58668 -4.26121,4.77178 -2.529,-0.34621 -2.71925,-3.14227 -3.04435,-5.20088 -0.0685,-0.7181 -0.13702,-1.4362 -0.20554,-2.1543 0,0 1.06638,-0.55626 1.06638,-0.55626 l 0,0 c 0.069,0.71501 0.13809,1.43003 0.20714,2.14505 0.30768,1.92802 0.47455,4.81943 2.94747,5.00947 -0.14422,0.13078 -0.58392,0.51495 -0.43268,0.39235 1.24249,-1.00721 2.10528,-2.38676 2.62229,-3.88941 1.13515,-3.45322 1.72511,-7.05385 2.36702,-10.62357 0.52266,-3.04463 1.06744,-6.19576 0.53097,-9.27244 -0.44883,-1.86269 -1.15312,-3.41379 -3.23447,-3.74686 -0.83437,-0.12272 -1.58852,-0.14038 -2.40096,0.1482 -0.0529,0.0188 -1.16463,0.57945 -1.2769,0.56898 -0.15471,-0.0144 0.25224,-0.18151 0.37837,-0.27227 -1.44901,0.99472 -2.80504,2.13621 -3.86124,3.55164 -0.92494,1.38543 -1.84849,2.87082 -2.12826,4.53158 0.10253,2.11296 0.77372,3.77182 2.28219,5.30415 0,0 -1.05026,0.64361 -1.05026,0.64361 z"
       transform="translate(-3.7640394,136.96405)" />
    <path
       style="color:#000000;fill:#000000;fill-opacity:1;fill-rule:nonzero;stroke:#000000;stroke-width:5;stroke-linecap:butt;stroke-linejoin:miter;stroke-miterlimit:4;stroke-opacity:1;stroke-dasharray:none;stroke-dashoffset:0;marker:none;visibility:visible;display:inline;overflow:visible;enable-background:accumulate"
       id="path3604"
       d="m 459.22488,83.208326 c -1.64328,-1.489415 -2.52091,-3.442666 -2.73296,-5.621345 -0.0188,-2.568063 0.92926,-5.040394 2.10909,-7.285127 0.98305,-2.303737 2.61081,-3.36907 4.7531,-4.446506 1.76666,-0.120194 3.11405,0.526323 4.30331,1.785644 1.52511,2.087773 1.56604,4.546619 1.36954,7.016599 -0.43994,2.957266 -1.60525,5.653622 -3.53838,7.920307 -0.98124,0.958725 -2.23466,1.547977 -3.50372,2.023271 0,0 0.96599,-0.757346 0.96599,-0.757346 l 0,0 c 2.19786,-0.861735 -0.84721,0.681039 1.41221,-0.789953 1.95001,-2.237023 3.1293,-4.906385 3.57543,-7.85272 0.20089,-2.434378 0.18045,-4.863165 -1.32795,-6.922265 -1.16325,-1.215345 -2.50592,-1.855334 -4.22395,-1.663441 0.13385,-0.114642 0.57597,-0.369073 0.40154,-0.343926 -1.22926,0.177224 -2.55169,2.609935 -3.07427,3.530231 -1.19249,2.214783 -2.13388,4.676329 -2.1386,7.220532 0.19091,2.155796 1.06893,4.079844 2.69988,5.542441 0,0 -1.05026,0.643604 -1.05026,0.643604 z"
       transform="translate(-3.7640394,136.96405)" />
  </g>
</svg>
