<?xml version="1.0" encoding="UTF-8" standalone="no"?>
<!-- Created with Inkscape (http://www.inkscape.org/) -->

<svg
   xmlns:dc="http://purl.org/dc/elements/1.1/"
   xmlns:cc="http://creativecommons.org/ns#"
   xmlns:rdf="http://www.w3.org/1999/02/22-rdf-syntax-ns#"
   xmlns:svg="http://www.w3.org/2000/svg"
   xmlns="http://www.w3.org/2000/svg"
   xmlns:sodipodi="http://sodipodi.sourceforge.net/DTD/sodipodi-0.dtd"
   xmlns:inkscape="http://www.inkscape.org/namespaces/inkscape"
   width="2177.8982"
   height="939.83478"
   id="svg2"
   version="1.1"
   inkscape:version="0.47pre4 r22446"
   sodipodi:docname="New document 1">
  <defs
     id="defs4">
    <inkscape:perspective
       sodipodi:type="inkscape:persp3d"
       inkscape:vp_x="0 : 526.18109 : 1"
       inkscape:vp_y="0 : 1000 : 0"
       inkscape:vp_z="744.09448 : 526.18109 : 1"
       inkscape:persp3d-origin="372.04724 : 350.78739 : 1"
       id="perspective10" />
  </defs>
  <sodipodi:namedview
     id="base"
     pagecolor="#ffffff"
     bordercolor="#666666"
     borderopacity="1.0"
     inkscape:pageopacity="0.0"
     inkscape:pageshadow="2"
     inkscape:zoom="0.35"
     inkscape:cx="1166.6118"
     inkscape:cy="421.62114"
     inkscape:document-units="px"
     inkscape:current-layer="layer1"
     showgrid="false"
     inkscape:window-width="1280"
     inkscape:window-height="726"
     inkscape:window-x="0"
     inkscape:window-y="25"
     inkscape:window-maximized="1" />
  <metadata
     id="metadata7">
    <rdf:RDF>
      <cc:Work
         rdf:about="">
        <dc:format>image/svg+xml</dc:format>
        <dc:type
           rdf:resource="http://purl.org/dc/dcmitype/StillImage" />
        <dc:title></dc:title>
      </cc:Work>
    </rdf:RDF>
  </metadata>
  <g
     inkscape:label="Layer 1"
     inkscape:groupmode="layer"
     id="layer1"
     transform="translate(791.61179,-14.148539)">
    <path
       style="color:#000000;fill:none;stroke:#000000;stroke-width:5;stroke-linecap:butt;stroke-linejoin:miter;stroke-miterlimit:4;stroke-opacity:1;stroke-dasharray:none;stroke-dashoffset:0;marker:none;visibility:visible;display:inline;overflow:visible;enable-background:accumulate"
       id="path2816"
       d="m 1383.7863,16.648539 c -2.3292,22.612058 -5.0604,45.182476 -7.7039,67.760543 -3.6965,31.510288 -9.0438,62.789128 -14.4627,94.038558 -5.9461,31.12206 -10.055,62.52151 -12.5071,94.09998 -2.2352,32.22876 -2.2769,64.52753 -1.4916,96.80385 1.01,32.52485 1.5825,65.05924 1.9063,97.59738 0.1136,30.03618 0.1184,60.0578 1.0578,90.08086 1.0687,35.12196 1.5378,70.25229 2.6331,105.37358 1.2418,37.86452 1.7549,75.74646 2.0732,113.62823 0.03,29.09676 1.5032,58.16512 2.2825,87.24714 0.3544,16.19931 0.1998,8.23872 0.4678,23.88169 0,0 -2.4068,1.23141 -2.4068,1.23141 l 0,0 c -0.2538,-15.64803 -0.106,-7.68498 -0.4477,-23.88905 -0.7664,-29.0916 -2.2246,-58.17022 -2.2364,-87.27622 -0.2882,-37.88445 -0.7897,-75.76919 -2.045,-113.63582 -1.107,-35.11272 -1.6031,-70.23454 -2.683,-105.34794 -0.9466,-30.02534 -0.9534,-60.04942 -1.0561,-90.08816 -0.3134,-32.5394 -0.8751,-65.07521 -1.8905,-97.60112 -0.7927,-32.28223 -0.7655,-64.58746 1.4692,-96.82262 2.4435,-31.58641 6.5492,-62.99407 12.4975,-94.12309 5.4161,-31.24448 10.7731,-62.51678 14.4633,-94.022573 2.6358,-22.549724 5.3652,-45.095312 7.5382,-67.693893 0,0 2.5419,-1.242735 2.5419,-1.242735 z" />
    <path
       style="color:#000000;fill:none;stroke:#000000;stroke-width:5;stroke-linecap:butt;stroke-linejoin:miter;stroke-miterlimit:4;stroke-opacity:1;stroke-dasharray:none;stroke-dashoffset:0;marker:none;visibility:visible;display:inline;overflow:visible;enable-background:accumulate"
       id="path2818"
       d="m -350.84757,72.309497 c -4.58516,20.742092 -9.01552,41.496693 -14.10501,62.126533 -7.29354,30.74967 -14.31265,61.55896 -20.54853,92.54165 -6.74664,36.13376 -13.28475,72.32984 -18.16871,108.76645 -4.36214,35.33129 -5.68486,70.92669 -6.39607,106.48755 -0.8931,28.25456 0.50994,56.48757 1.45837,84.71814 0.85465,24.2516 4.10964,48.28883 7.70494,72.25373 2.92637,20.3998 7.8417,40.42369 13.28074,60.27632 5.60889,20.12763 11.98896,40.04069 19.16693,59.66244 4.63431,11.16903 9.05695,22.42035 13.56145,33.63939 2.04756,5.39916 4.63692,10.58537 7.34593,15.67881 2.40637,4.48503 5.19594,8.79695 8.14353,12.95272 1.02327,1.42282 1.63772,3.0751 2.47129,4.59964 0.11703,0.21404 0.65357,0.65677 0.41578,0.60227 -2.97194,-0.68114 -1.68395,-1.51767 -1.11686,-4.24043 2.58652,-12.37247 4.15905,-24.946 5.63474,-37.49334 3.19029,-18.19224 5.03867,-36.53368 6.9057,-54.89334 1.87223,-21.65937 3.42895,-43.35188 4.88993,-65.0444 1.79558,-22.25917 1.25241,-44.53921 0.51359,-66.82235 -0.87767,-23.56174 -1.1799,-47.14007 -1.39811,-70.7156 -0.39969,-16.43746 0.33575,-32.9054 -0.49958,-49.32859 -0.99545,-11.87142 -1.77941,-23.75172 -2.18787,-35.65782 -0.35794,-11.97548 -1.70565,-23.8946 -2.40393,-35.8566 -0.15929,-11.82817 -1.555,-23.57062 -2.49054,-35.34944 -0.847,-11.42936 -1.00737,-22.89244 -1.11412,-34.34773 -0.91019,-12.88517 -1.81923,-25.7597 -3.18115,-38.60626 -1.06655,-12.74062 -2.59456,-25.43445 -4.43767,-38.08523 -1.94091,-13.43188 -4.41655,-26.76507 -7.99955,-39.85695 -3.62683,-14.87674 -8.2335,-29.48418 -12.90376,-44.05842 -3.57531,-10.97705 -1.68473,-5.41639 -5.68711,-16.67675 0,0 2.3936,-1.32459 2.3936,-1.32459 l 0,0 c 4.01587,11.26214 2.12079,5.70069 5.7011,16.67895 4.6781,14.57469 9.29737,29.18143 12.92239,44.06176 3.58976,13.09988 6.08506,26.43973 8.02494,39.88166 1.8578,12.65315 3.36907,25.35392 4.43552,38.09871 1.36546,12.85193 2.28566,25.73209 3.20846,38.62225 0.10516,11.44959 0.2626,22.90696 1.10432,34.33094 0.93196,11.78158 2.33609,23.52587 2.48911,35.35674 0.69408,11.96388 2.04887,23.88344 2.412,35.85994 0.4044,11.9066 1.18157,23.7878 2.17372,35.6599 0.83593,16.43482 0.0693,32.91462 0.45597,49.3639 0.19914,23.57565 0.49822,47.15333 1.38491,70.71489 0.75215,22.28932 1.29915,44.57437 -0.48972,66.84075 -1.45391,21.69503 -3.03313,43.38824 -4.88328,65.05147 -1.86439,18.35283 -3.67217,36.69323 -6.86668,54.87877 -1.47151,12.54413 -3.02999,25.11442 -5.57635,37.49087 -0.77271,3.87004 -0.20009,3.95298 -3.86898,6.90777 -0.10759,0.0866 -2.63199,-5.05459 -2.86803,-5.20664 -2.9464,-4.17171 -5.73812,-8.49395 -8.16017,-12.98474 -2.71012,-5.10495 -5.29612,-10.30516 -7.33823,-15.71786 -4.49086,-11.23031 -8.88179,-22.50035 -13.50876,-33.6785 -7.16108,-19.63657 -13.52478,-39.56138 -19.16883,-59.6872 -5.43937,-19.86481 -10.35983,-39.89939 -13.28264,-60.31192 -3.58342,-23.98007 -6.83873,-48.03049 -7.69183,-72.29553 -0.9449,-28.23945 -2.33919,-56.48174 -1.43771,-84.74476 0.72806,-35.57742 2.08487,-71.18736 6.42852,-106.53677 4.8466,-36.44119 11.41613,-72.63196 18.13646,-108.76977 6.22247,-30.97629 13.22309,-61.7803 20.49129,-92.52679 5.07295,-20.60377 9.5141,-41.324726 13.99549,-62.060237 0,0 2.52906,-1.226356 2.52906,-1.226356 z" />
    <path
       style="color:#000000;fill:none;stroke:#000000;stroke-width:5;stroke-linecap:butt;stroke-linejoin:miter;stroke-miterlimit:4;stroke-opacity:1;stroke-dasharray:none;stroke-dashoffset:0;marker:none;visibility:visible;display:inline;overflow:visible;enable-background:accumulate"
       id="path2820"
       d="m -21.60456,46.570166 c 0.09673,16.151709 0.05689,32.276302 -0.839881,48.405147 -0.997268,15.305887 -1.553834,30.633357 -1.852668,45.967187 -0.199395,12.70384 -0.198475,25.40962 -0.199796,38.11467 -0.268758,9.33966 0.522253,18.73356 -0.306851,28.04779 -0.367916,2.55175 -0.550872,5.12851 -1.346673,7.58997 0,0 -2.571435,1.20474 -2.571435,1.20474 l 0,0 c 0.884525,-2.4265 1.011289,-5.00383 1.405186,-7.54302 0.872352,-9.30742 0.05866,-18.70287 0.344527,-28.03834 0.0041,-12.70886 0.0086,-25.4184 0.210325,-38.126 0.297407,-15.33983 0.870508,-30.67279 1.864925,-45.98463 0.907949,-16.11349 0.972987,-32.223962 0.787176,-48.361068 0,0 2.505165,-1.276446 2.505165,-1.276446 z" />
    <path
       style="color:#000000;fill:none;stroke:#000000;stroke-width:5;stroke-linecap:butt;stroke-linejoin:miter;stroke-miterlimit:4;stroke-opacity:1;stroke-dasharray:none;stroke-dashoffset:0;marker:none;visibility:visible;display:inline;overflow:visible;enable-background:accumulate"
       id="path2822"
       d="m -21.934529,260.18603 c -1.886603,14.73216 -0.870887,29.6591 -0.523588,44.46109 1.187619,22.13545 2.786783,44.26445 2.75318,66.43977 -0.327999,14.94568 -1.120757,29.87479 -1.569762,44.81687 -0.266658,9.38373 -0.317273,18.77129 -0.34521,28.15812 -0.01514,9.21535 -1.91e-4,18.43072 0.0035,27.64608 -0.09554,7.95538 1.300386,15.83457 2.074759,23.73676 0.881434,5.39632 2.308299,10.68051 3.127077,16.08733 0.298993,1.90697 0.385562,3.83607 0.515945,5.75905 0,0 -2.527242,1.30794 -2.527242,1.30794 l 0,0 c -0.113528,-1.91863 -0.202468,-3.84188 -0.490895,-5.74475 -0.805368,-5.41581 -2.220016,-10.70955 -3.115289,-16.11004 -0.766073,-7.913 -2.168365,-15.80123 -2.077573,-23.76578 -0.0052,-9.21591 -0.0084,-18.43181 -0.0021,-27.64771 0.01729,-9.39196 0.08502,-18.78435 0.35706,-28.17296 0.4676,-14.94893 1.268026,-29.88475 1.626716,-44.83703 0.06698,-22.17302 -1.538226,-44.29867 -2.757586,-66.42956 -0.355746,-14.79999 -1.386962,-29.71902 0.422229,-44.45608 0,0 2.528755,-1.2491 2.528755,-1.2491 z" />
    <path
       style="color:#000000;fill:none;stroke:#000000;stroke-width:5;stroke-linecap:butt;stroke-linejoin:miter;stroke-miterlimit:4;stroke-opacity:1;stroke-dasharray:none;stroke-dashoffset:0;marker:none;visibility:visible;display:inline;overflow:visible;enable-background:accumulate"
       id="path2824"
       d="m -30.175989,595.14159 c 0.472976,26.40451 -0.885369,52.75261 -2.548515,79.09332 -2.672983,38.37354 -6.81008,76.6234 -9.550885,114.98986 -1.035151,24.6772 -2.668336,49.3207 -3.971816,73.98414 -0.514867,14.78567 -2.22613,29.48916 -3.154397,44.25043 -0.602701,10.63222 -0.731502,21.28262 -0.792214,31.9292 -0.0159,3.60538 -0.01241,7.21078 -0.0063,10.81617 0,0 -2.509075,1.27861 -2.509075,1.27861 l 0,0 c 0.0022,-3.60871 0.0026,-7.21744 0.02162,-10.82611 0.07168,-10.65492 0.203605,-21.31358 0.806598,-31.95417 0.93271,-14.76789 2.664088,-29.47572 3.194186,-44.26749 1.334547,-24.67687 3.011146,-49.33245 4.042735,-74.0252 2.76576,-38.37577 6.987254,-76.6295 9.613072,-115.0183 1.622489,-26.30131 2.943556,-52.61227 2.349791,-78.97401 0,0 2.505165,-1.27645 2.505165,-1.27645 z" />
    <path
       style="color:#000000;fill:none;stroke:#000000;stroke-width:5;stroke-linecap:butt;stroke-linejoin:miter;stroke-miterlimit:4;stroke-opacity:1;stroke-dasharray:none;stroke-dashoffset:0;marker:none;visibility:visible;display:inline;overflow:visible;enable-background:accumulate"
       id="path2826"
       d="m 48.620483,175.83427 c 7.621814,5.83363 17.250794,7.75689 26.289654,10.37843 10.028944,2.57924 20.214643,4.63384 30.436263,6.3014 9.38152,1.44962 18.88564,1.68935 28.35898,1.85441 10.17319,0.25481 20.29899,0.17553 30.43068,-0.76466 11.71945,-1.0689 23.46182,-1.50453 35.17075,-2.69546 12.13416,-1.45234 24.36173,-1.55328 36.53694,-2.40115 22.52358,-1.21286 44.98675,-3.2673 67.48209,-4.88517 32.2488,-1.95363 64.47289,-4.26787 96.66665,-6.9797 30.67165,-2.73218 61.35815,-5.24358 92.06325,-7.57395 29.47829,-1.62377 58.86516,-4.29662 88.23241,-7.25676 27.92123,-3.02565 55.62758,-7.67539 83.3575,-12.06236 25.38791,-3.856 50.90647,-6.69274 76.45191,-9.25426 19.8453,-1.69906 39.72289,-2.93325 59.58629,-4.41751 14.52934,-1.5987 29.07465,-3.0017 43.58189,-4.78707 11.61453,-0.97365 23.111,-2.87509 34.6863,-4.18886 8.94971,-1.19605 17.75648,-3.07125 26.58265,-4.92815 7.06183,-1.00302 14.01427,-2.60753 21.05511,-3.74298 5.62471,-0.62337 11.0375,-2.34669 16.61399,-3.2642 3.6652,0.25339 6.92812,-1.94272 10.45804,-2.18433 4.90888,5.45027 4.51758,19.71403 4.90759,26.55634 0.73098,18.81449 2.1271,37.59181 2.89776,56.40662 0.16017,17.94971 2.20873,35.77937 4.1252,53.60112 1.10638,10.44289 1.89039,20.91722 2.28579,31.41081 0.27401,4.34886 -0.22081,8.83128 -3.52585,11.9298 -4.62835,3.00285 -9.8548,4.51681 -15.0523,6.16853 -7.98551,3.00619 -16.38566,4.61486 -24.67156,6.54078 -15.25078,3.72198 -30.73682,6.09862 -46.23463,8.49154 -18.40224,3.10756 -36.93252,5.0077 -55.48556,6.90081 -19.99016,1.63316 -39.92967,3.74482 -59.87157,5.87577 -22.07777,2.88124 -44.26611,4.75722 -66.38904,7.23932 -23.93562,2.61367 -47.86923,5.259 -71.77659,8.12176 -25.76759,2.90209 -51.55618,5.61564 -77.31895,8.56034 -26.58641,3.50256 -53.24595,6.41209 -79.80913,10.0892 -34.87386,4.66946 -70.0051,6.4767 -105.10184,8.48277 -30.09366,1.78223 -60.19047,3.35201 -90.33937,2.72881 -20.17464,-0.68493 -40.35069,-1.25697 -60.5349,-1.55232 -18.34566,-0.36159 -36.67796,0.92787 -54.9294,2.65768 -15.21031,1.07441 -30.33252,3.0332 -45.51761,4.37738 -9.95454,0.51155 -19.829629,1.23233 -29.696955,2.63625 -6.160192,0.77757 -9.638015,2.90549 -12.113983,-3.98764 -1.759615,-11.47822 -1.291096,-23.19856 -1.295072,-34.77964 0.784822,-22.64683 1.104161,-45.27378 0.918568,-67.94145 -0.190843,-16.08147 -0.225786,-32.15979 -0.883602,-48.22957 0,0 2.411119,-1.24093 2.411119,-1.24093 l 0,0 c 0.65306,16.0788 0.666065,32.16599 0.850476,48.25635 0.193972,22.65429 -0.066,45.27141 -0.844862,67.90612 0.01663,11.5429 -0.424738,23.22032 1.312797,34.66224 2.369548,6.67399 5.990548,4.36053 11.891505,3.67318 9.859305,-1.39209 19.731199,-2.07038 29.673939,-2.6009 15.17728,-1.3456 30.29378,-3.28858 45.49631,-4.36361 18.25526,-1.71774 36.5909,-2.99673 54.93899,-2.62774 20.17626,0.30153 40.3442,0.87908 60.51071,1.57188 30.11722,0.63582 60.1848,-0.91535 90.24759,-2.68749 35.11489,-2.01217 70.26433,-3.83269 105.15156,-8.54603 26.56566,-3.67173 53.22692,-6.58305 79.8151,-10.08573 25.76565,-2.94286 51.55676,-5.65747 77.32615,-8.56749 23.91141,-2.85927 47.84772,-5.51255 71.78691,-8.12692 22.12724,-2.47757 44.31797,-4.36885 66.40006,-7.24583 19.94508,-2.13734 39.88935,-4.23919 59.88246,-5.88217 18.55201,-1.89217 37.07878,-3.81442 55.4806,-6.91468 15.51017,-2.39469 31.00169,-4.80661 46.26238,-8.53848 8.29465,-1.92601 16.69207,-3.57434 24.68591,-6.58028 2.47852,-0.79411 5.02566,-1.52218 7.46831,-2.41773 1.24661,-0.45705 2.32603,-1.40194 3.63378,-1.63156 0.37116,-0.0652 -0.60302,0.45213 -0.90452,0.6782 3.42426,-2.91882 3.90033,-7.43078 3.64993,-11.71415 -0.36745,-10.49716 -1.12115,-20.97627 -2.22029,-31.42278 -1.89523,-17.83107 -3.96009,-35.66664 -4.12109,-53.62361 -0.75798,-18.81209 -2.15003,-37.58556 -2.90892,-56.39554 -0.37323,-6.33628 -0.0572,-21.15246 -4.74669,-26.12916 -3.5109,0.39678 -6.78498,2.35594 -10.43278,2.19204 -5.56737,0.94069 -10.98393,2.63564 -16.60545,3.2562 -7.03374,1.14689 -13.98728,2.7253 -21.04093,3.74872 -8.82447,1.85897 -17.63653,3.70994 -26.58565,4.8974 -11.5678,1.31604 -23.06035,3.19991 -34.66727,4.17788 -14.50253,1.78163 -29.04369,3.17865 -43.56951,4.76141 -19.84976,1.47285 -39.71392,2.70046 -59.54512,4.39574 -25.53667,2.56586 -51.04868,5.38756 -76.42683,9.25455 -27.72975,4.3763 -55.43329,9.0361 -83.35511,12.04185 -29.36683,2.96173 -58.75493,5.61857 -88.23232,7.24849 -30.70002,2.3268 -61.38078,4.84464 -92.04804,7.56545 -32.19887,2.71077 -64.42863,5.01639 -96.68134,6.98674 -22.52403,1.64931 -45.01786,3.70349 -67.57047,4.9493 -12.17728,0.8432 -24.40538,0.96518 -36.54112,2.41518 -11.7124,1.18519 -23.46023,1.61315 -35.18121,2.7001 -10.13886,0.93154 -20.27385,0.98665 -30.45267,0.74283 -9.48167,-0.16855 -18.9942,-0.42009 -28.38159,-1.88791 -10.225051,-1.68117 -20.416488,-3.73367 -30.445935,-6.33531 -9.080631,-2.6303 -18.73221,-4.58679 -26.389971,-10.44428 0,0 2.394759,-1.50422 2.394759,-1.50422 z" />
    <path
       style="color:#000000;fill:none;stroke:#000000;stroke-width:5;stroke-linecap:butt;stroke-linejoin:miter;stroke-miterlimit:4;stroke-opacity:1;stroke-dasharray:none;stroke-dashoffset:0;marker:none;visibility:visible;display:inline;overflow:visible;enable-background:accumulate"
       id="path2828"
       d="m 34.985899,489.39072 c 10.870777,2.31686 21.738307,4.59995 32.755705,6.10605 12.261831,1.64049 24.59732,2.67535 36.871976,4.19056 13.42945,1.90567 26.80068,3.96547 40.32901,5.07193 14.48302,1.66606 29.01401,2.75786 43.51201,4.27031 14.45446,1.57943 28.98952,2.07612 43.51685,2.36932 14.4553,0.21411 28.91278,0.18854 43.36925,0.1821 15.22107,-0.13863 30.45122,0.30252 45.66065,-0.36993 16.37352,-1.10118 32.76579,-1.79641 49.1702,-2.19566 16.56616,-0.7163 33.04375,-2.50316 49.55011,-3.97901 19.14376,-2.05272 38.26448,-4.29191 57.39998,-6.42104 28.91334,-3.29213 57.92863,-5.72888 86.9689,-7.57504 33.37994,-1.95022 66.79445,-3.13737 100.19259,-4.69355 30.22919,-1.27726 60.44323,-2.75808 90.65732,-4.35049 22.88394,-1.26328 45.78867,-2.4874 68.64393,-4.22139 17.8361,-1.49598 35.70669,-2.98679 53.6163,-2.71866 15.42445,0.43232 30.82385,1.85502 46.25915,1.50855 5.58259,0.88307 17.21221,-3.11553 22.23429,-0.47469 0.8283,0.43555 1.40794,1.23323 2.11192,1.84985 3.97589,5.86048 3.90357,13.59853 4.22423,20.42207 0.32983,7.01873 0.42573,16.37773 0.53986,23.31621 0.59457,29.18901 3.60448,58.23803 6.62485,87.25148 3.30079,27.60367 7.98279,54.97369 13.91298,82.12609 0.8617,3.33382 1.71398,6.67009 2.5851,10.00147 2.26936,8.67855 1.91786,7.7262 4.51555,15.62237 1.44985,4.40708 2.94233,8.3954 3.47811,13.0013 -0.1453,0.7229 -0.0958,1.51447 -0.4359,2.16871 -2.8788,5.53781 -19.50551,4.45102 -24.49426,4.51463 -24.27035,-1.13459 -48.54534,-2.04821 -72.83613,-2.60314 -28.2429,-0.54478 -56.49211,-0.58382 -84.73921,-0.62742 -35.43435,-9.8e-4 -70.86741,-0.16902 -106.29896,0.30396 -67.55331,1.69176 -135.09706,2.4076 -202.6679,1.70333 -59.9524,-1.54655 -119.89708,-3.24685 -179.86362,-4.15185 -48.79363,-0.64546 -97.59208,-0.72444 -146.38918,-0.75967 -27.45231,0.34514 -54.86275,0.067 -82.281647,-1.23658 -15.560653,-1.06151 -31.089935,-1.24207 -46.642402,-0.13143 -2.961438,-0.14713 -11.89535,2.36129 -14.015726,-0.78667 -0.406468,-0.60345 -0.543984,-1.34965 -0.815976,-2.02447 -1.441646,-10.83209 -0.838906,-21.91789 -0.781476,-32.83612 0.100888,-14.69797 0.151612,-29.39618 0.182516,-44.09444 0.02254,-15.52815 0.02537,-31.05632 0.02779,-46.58447 -0.0023,-15.61255 -0.002,-31.2251 -0.0056,-46.83765 -0.0044,-12.8961 -0.0078,-25.79219 -0.0096,-38.68829 0.04115,-9.61749 0.261329,-19.1981 -0.816552,-28.76401 -0.187601,-3.59126 -1.203958,-7.03688 -2.066582,-10.50234 0,0 2.473494,-1.33734 2.473494,-1.33734 l 0,0 c 0.866847,3.47764 1.889353,6.93546 2.074418,10.54008 1.081558,9.57948 0.867935,19.17056 0.810519,28.80239 -0.0017,12.89919 -0.005,25.79839 -0.0087,38.69758 -0.0027,15.614 -7.58e-4,31.22799 -0.0029,46.84199 0.0011,15.52695 0.0061,31.05393 -0.01957,46.58087 -0.02622,14.69784 -0.08094,29.39558 -0.17797,44.09315 -0.05648,10.87816 -0.619141,21.91283 0.790242,32.7095 0.249967,0.63321 0.367563,1.33637 0.7499,1.89962 1.973995,2.90805 11.106028,0.46621 13.851539,0.6392 15.544179,-1.07141 31.064746,-0.87008 46.614044,0.19215 27.372839,1.30662 54.738149,1.64236 82.145399,1.31985 48.77704,0.059 97.55545,0.13984 146.32879,0.80792 59.94578,0.92062 119.86945,2.6396 179.80107,4.19576 67.60122,0.71972 135.17582,0.0215 202.75774,-1.77609 35.46886,-0.51426 70.93921,-0.40557 106.41134,-0.38079 28.25168,0.0384 56.50545,0.0808 84.75291,0.62454 24.31205,0.55527 48.60747,1.48763 72.90229,2.54287 3.96322,-0.0576 9.0665,-0.0667 13.07004,-0.36212 1.45361,-0.10729 2.88519,-0.51735 4.34275,-0.51099 0.31272,10e-4 0.47584,0.63414 0.77186,0.5333 1.79783,-0.61246 1.66692,-1.9102 2.01663,-3.40957 -0.4861,-4.60529 -1.96695,-8.57401 -3.40288,-12.97932 -2.58231,-7.92234 -2.22982,-6.95615 -4.48739,-15.65504 -0.86625,-3.3378 -1.71415,-6.68035 -2.57123,-10.02052 -5.90217,-27.17172 -10.58489,-54.55544 -13.89071,-82.17149 -3.01066,-29.01704 -6.04086,-58.06448 -6.6677,-87.2554 -0.13251,-7.55744 -0.20959,-15.70428 -0.58492,-23.27654 -0.3338,-6.73457 -0.25763,-14.40811 -4.17546,-20.1973 -0.67933,-0.5777 -1.24178,-1.33153 -2.038,-1.73312 -5.09035,-2.56745 -16.53276,1.42056 -22.14759,0.49665 -15.43352,0.31167 -30.82898,-1.10381 -46.2519,-1.52602 -17.8969,-0.25094 -35.75305,1.23552 -53.57734,2.72061 -22.84649,1.71821 -45.74046,2.94635 -68.61555,4.19277 -30.20188,1.57307 -60.40294,3.05134 -90.61931,4.32071 -33.40253,1.56168 -66.82232,2.7373 -100.20591,4.70893 -29.05062,1.85943 -58.07787,4.29399 -86.99953,7.61347 -19.14849,2.14227 -38.28071,4.40639 -57.44074,6.44392 -16.51051,1.48167 -32.99394,3.26231 -49.56527,3.96801 -16.40406,0.40186 -32.7954,1.10292 -49.16878,2.20118 -15.21437,0.65622 -30.44825,0.2282 -45.67369,0.36468 -14.45792,0.005 -28.91689,0.0356 -43.37356,-0.18602 -14.53134,-0.29649 -29.06993,-0.80454 -43.52772,-2.3899 -14.49852,-1.51036 -29.03006,-2.60237 -43.51412,-4.26139 -13.53153,-1.11771 -26.90729,-3.18492 -40.34325,-5.0755 -12.278097,-1.5025 -24.612598,-2.55381 -36.876604,-4.19209 -11.035097,-1.52115 -21.922789,-3.81073 -32.817112,-6.11174 0,0 2.329966,-1.59569 2.329966,-1.59569 z" />
    <path
       style="color:#000000;fill:none;stroke:#000000;stroke-width:5;stroke-linecap:butt;stroke-linejoin:miter;stroke-miterlimit:4;stroke-opacity:1;stroke-dasharray:none;stroke-dashoffset:0;marker:none;visibility:visible;display:inline;overflow:visible;enable-background:accumulate"
       id="path2830"
       d="m 1174.8822,25.240181 c -3.3399,10.647896 -5.7279,21.543837 -8.131,32.433271 -3.6161,14.333428 -7.3282,28.646576 -11.1652,42.923188 -2.9458,12.33863 -6.7295,24.4544 -10.3635,36.6027 -5.0651,15.32885 -10.4483,30.51932 -14.9476,46.02954 -4.3807,17.11148 -9.0586,34.14305 -13.8969,51.12967 -5.0781,16.41907 -9.3708,33.04669 -13.8967,49.62155 -5.2772,20.20086 -10.1964,40.48774 -15.0875,60.78368 -3.3036,14.20453 -5.3946,28.68424 -7.1431,43.15575 -1.3882,12.27659 -1.6837,24.63411 -1.8514,36.97594 0.022,11.5 0.075,22.96 -0.8541,34.42618 -1.056,11.11636 -1.5462,22.27097 -1.8333,33.42994 -0.2027,9.84329 -0.1986,19.68914 -0.2015,29.53403 0.01,9.67618 0.01,19.35236 0.015,29.02853 -0.4253,9.84036 0.364,19.59114 1.2907,29.37228 1.5188,11.25333 3.5517,22.42453 5.0929,33.67323 1.6313,14.21585 3.3105,28.42566 4.9865,42.63746 2.339,16.89613 5.5619,33.65511 9.5802,50.22927 5.3261,21.5285 9.4738,43.28885 12.4489,65.26035 2.1594,21.87869 4.7608,43.69405 9.4403,65.18503 3.6049,15.36145 9.3405,30.09584 16.8835,43.93216 0.3566,0.57507 4.895,9.21715 6.7489,7.20882 0.4356,-0.47186 -0.6146,-1.21804 -0.5242,-1.85384 0.3078,-2.16592 1.1259,-4.228 1.6889,-6.34201 0,0 2.4988,-1.19417 2.4988,-1.19417 l 0,0 c -1.3801,5.44377 -0.8423,7.68997 -5.9856,11.00786 -2.6828,1.73067 -6.1752,-6.78863 -6.8364,-7.44363 -7.5318,-13.87266 -13.2671,-28.64013 -16.8691,-44.02939 -4.6821,-21.50073 -7.2885,-43.32476 -9.4282,-65.21589 -2.9698,-21.96012 -7.1352,-43.70167 -12.4767,-65.21365 -4.026,-16.58209 -7.2532,-33.34925 -9.6064,-50.25285 -1.6807,-14.20689 -3.3715,-28.41097 -5.0043,-42.62227 -1.541,-11.25083 -3.5828,-22.42257 -5.1113,-33.67666 -0.9308,-9.7887 -1.7369,-19.54539 -1.3054,-29.39422 0,-9.67605 -0.014,-19.35208 -0.017,-29.02812 0,-9.848 0,-19.69691 0.204,-29.54331 0.2876,-11.16434 0.7783,-22.32474 1.8322,-33.44661 0.9351,-11.46093 0.8924,-22.91468 0.864,-34.41018 0.1674,-12.35249 0.4627,-24.72063 1.8496,-37.00806 1.7464,-14.48553 3.8415,-28.97953 7.1527,-43.19621 4.9126,-20.29547 9.8571,-40.58064 15.0951,-60.79616 4.5138,-16.57462 8.7906,-33.20269 13.8771,-49.61574 4.8493,-16.9888 9.5336,-34.02457 13.9172,-51.14046 4.4761,-15.50825 9.8302,-30.69771 14.9082,-46.01345 3.6207,-12.15063 7.4219,-24.25942 10.3679,-36.59649 3.8478,-14.27165 7.5572,-28.583584 11.1761,-42.914258 2.3897,-10.885492 4.771,-21.775069 8.0569,-32.430493 0,0 2.5601,-1.202308 2.5601,-1.202308 z" />
    <path
       style="color:#000000;fill:none;stroke:#000000;stroke-width:5;stroke-linecap:butt;stroke-linejoin:miter;stroke-miterlimit:4;stroke-opacity:1;stroke-dasharray:none;stroke-dashoffset:0;marker:none;visibility:visible;display:inline;overflow:visible;enable-background:accumulate"
       id="path2832"
       d="m 1179.7236,36.202719 c 4.919,5.145457 9.3513,10.734817 13.6456,16.403643 4.7451,5.566389 8.0197,12.109966 11.7098,18.376582 5.1533,9.316504 8.1414,19.507093 10.4127,29.846126 2.2781,13.31248 2.5406,26.84687 3.6761,40.284 1.3496,15.47881 1.6822,31.01722 1.9142,46.54491 0.1845,16.21084 0.167,32.423 0.1673,48.63461 0.046,15.61841 -1.3923,31.19285 -2.0876,46.78995 -1.6814,17.48728 -2.196,35.05355 -3.47,52.56666 -1.64,16.24662 -1.9226,32.58181 -3.0762,48.85754 -0.814,14.13944 -2.8547,28.15424 -4.2316,42.2402 -1.778,11.76916 -3.0696,23.5812 -3.7541,35.4625 -0.088,10.76586 -0.869,21.45588 -1.8533,32.16893 -0.7344,11.84444 -3.0527,23.49841 -4.8114,35.21309 -2.0898,12.82333 -4.2661,25.63934 -5.9896,38.5183 -1.7641,13.7014 -2.9993,27.45838 -4.5293,41.1846 -1.706,17.52993 -3.8532,35.01486 -6.766,52.38595 -2.0167,13.64549 -4.6837,27.16754 -7.2954,40.70568 -3.8697,18.07256 -7.9405,36.09838 -11.9259,54.14474 -4.0064,15.82076 -6.6939,31.92044 -9.6616,47.95511 -2.6557,15.16788 -5.6456,30.30074 -9.4599,45.22268 -3.5909,11.30627 -6.4955,23.9235 -15.1852,32.50168 0,0 -2.588,1.06763 -2.588,1.06763 l 0,0 c 1.0394,-0.99408 2.225,-1.85507 3.1184,-2.98223 6.6011,-8.32825 8.735,-19.64548 12.1684,-29.39778 3.8303,-14.91338 6.8098,-30.04403 9.4695,-45.20656 2.9704,-16.04242 5.657,-32.15092 9.6824,-47.97565 3.9834,-18.03561 8.0515,-36.0503 11.8892,-54.11872 2.6036,-13.54279 5.3021,-27.06266 7.3216,-40.71121 2.9309,-17.36086 5.0871,-34.83829 6.7576,-52.3648 1.5381,-13.72544 2.7542,-27.4852 4.52,-41.18663 1.717,-12.88019 3.8956,-25.69591 5.9829,-38.51996 1.7535,-11.70907 4.0772,-23.35583 4.809,-35.19409 0.9814,-10.71117 1.7817,-21.3982 1.8618,-32.16263 0.6799,-11.88639 1.9609,-23.70493 3.7575,-35.47659 1.3785,-14.08707 3.4329,-28.10105 4.2506,-42.24158 1.1646,-16.27749 1.4396,-32.6159 3.0887,-48.86434 1.2837,-17.50806 1.784,-35.07116 3.4628,-52.55424 0.689,-15.594 2.1307,-31.16424 2.0926,-46.77885 0.01,-16.21113 0.019,-32.42284 -0.1609,-48.63322 -0.2336,-15.51955 -0.5689,-31.04973 -1.9204,-46.52024 -1.1349,-13.42425 -1.4063,-26.94455 -3.6708,-40.2455 -2.2602,-10.311151 -5.2485,-20.469203 -10.3903,-29.757558 -3.6885,-6.255335 -6.9694,-12.782311 -11.7049,-18.341894 -4.2888,-5.67106 -8.7146,-11.265013 -13.6537,-16.389991 0,0 2.4274,-1.450848 2.4274,-1.450848 z" />
    <path
       style="color:#000000;fill:none;stroke:#000000;stroke-width:5;stroke-linecap:butt;stroke-linejoin:miter;stroke-miterlimit:4;stroke-opacity:1;stroke-dasharray:none;stroke-dashoffset:0;marker:none;visibility:visible;display:inline;overflow:visible;enable-background:accumulate"
       id="path2834"
       d="m -777.51695,529.25658 c -6.19796,-3.41776 -10.69279,-8.14712 -11.59484,-15.28387 0.4097,-5.64649 3.23799,-9.68745 7.72079,-12.88058 9.27112,-5.43685 11.66174,-1.91151 15.44324,7.01988 1.91521,5.44607 3.68891,23.00805 -2.90589,26.13469 -1.71444,0.81283 -3.75165,0.57018 -5.62747,0.85526 -1.04032,-1.33069 -2.42242,-2.45421 -3.12096,-3.99209 -6.13999,-13.51753 1.06204,-32.36116 6.40257,-45.0304 3.14509,-5.99492 11.09748,-17.60582 19.33182,-12.06193 0.92713,0.62421 1.57418,1.58708 2.36128,2.38061 5.67485,7.91617 6.01796,17.41553 4.52181,26.69234 -1.77522,7.91228 -5.81762,14.01977 -12.73146,18.15113 -7.43034,4.22404 -10.58656,3.01358 -14.65321,-4.09662 -3.1911,-7.18501 -2.26297,-14.07605 0.97628,-21.00556 3.92405,-6.87769 10.89783,-11.56838 18.95051,-11.21053 6.94972,1.53846 8.82067,7.68091 10.02888,13.91819 0.83475,8.16334 -2.82961,14.37387 -8.89775,19.44199 -7.00437,4.06414 -13.94586,8.01929 -20.4732,1.26682 -4.36159,-7.56919 -1.59332,-15.60448 1.94512,-22.85533 4.63326,-6.23985 15.86375,-15.42169 24.28179,-11.82505 1.56686,0.66945 2.65655,2.13438 3.98482,3.20156 5.73995,12.48242 2.60699,25.6786 -3.25248,37.45921 -2.04891,2.97106 -7.32385,9.51704 -11.77053,7.2065 -1.44287,-0.74972 -2.3562,-2.89625 -3.05554,-4.11709 -2.83113,-8.49905 -1.6645,-15.27444 2.24386,-23.13333 2.35495,-3.46011 8.43749,-10.68645 13.48121,-7.85837 0.74366,0.41698 1.30775,1.09427 1.96162,1.64141 4.90296,5.88981 4.4935,13.43047 2.87788,20.47329 -1.44554,5.03159 -3.5501,10.9863 -8.136,14.11566 -1.38744,0.94677 -2.93619,1.63226 -4.40428,2.4484 -5.61753,1.69585 -7.5066,-4.85499 -8.07678,-9.12088 0.58954,-7.85164 3.21124,-15.59763 7.7379,-22.04023 4.53791,-4.69233 10.79331,-8.66583 17.11671,-5.37316 4.39321,4.11737 4.2021,10.40851 3.01353,15.86546 0.55876,2.18858 -6.40537,11.57183 -3.63703,1.66137 0,0 2.53908,-1.20806 2.53908,-1.20806 l 0,0 c -1.07145,3.86336 -0.24789,3.20164 -3.74407,5.76146 -0.31477,0.23046 0.51407,-0.59437 0.70307,-0.93565 0.66718,-1.20469 1.15263,-2.78583 1.59969,-4.055 1.22141,-5.30581 1.48294,-11.53451 -2.83705,-15.53741 -5.21538,-2.59288 -8.37559,-1.26189 -12.17686,2.70266 -4.57381,6.35674 -7.16457,14.05233 -7.8223,21.84756 0.52584,4.15051 2.31732,10.52086 7.7899,8.66336 -0.13676,0.13156 -0.54801,0.52525 -0.41029,0.39469 0.64803,-0.6143 1.32861,-1.19629 1.9412,-1.84593 2.31436,-2.4543 4.02315,-5.24383 5.17973,-8.42102 0.44088,-1.2111 0.73124,-2.47181 1.09685,-3.70772 1.63743,-6.92408 2.10806,-14.39311 -2.74419,-20.19018 -0.63369,-0.51257 -1.18042,-1.15699 -1.90107,-1.53771 -0.585,-0.30907 -1.42641,-0.0488 -1.92506,-0.48368 -0.25912,-0.22597 0.55349,-1.05861 0.21325,-1.00915 -3.03032,0.44056 -5.21952,4.58815 -6.88389,6.59436 -3.93795,7.77356 -5.13982,14.42511 -2.35597,22.87926 0.64021,1.10898 1.54381,3.23817 2.9283,3.8942 0.58151,0.27555 1.33121,-0.0384 1.91696,0.22796 0.18743,0.0852 -0.24665,0.7113 -0.065,0.61428 2.68572,-1.43479 3.23363,-2.81127 5.06229,-5.2673 5.89085,-11.6285 9.09315,-24.73994 3.43318,-37.12457 -1.29989,-1.02399 -2.36889,-2.44349 -3.89967,-3.07195 -7.60193,-3.12095 -15.38776,3.60643 -19.45755,9.05627 -3.52487,7.12105 -6.37739,15.06018 -2.08584,22.53971 4.88319,4.98589 9.42603,3.77157 15.46196,1.25315 6.08222,-4.95252 9.81019,-11.05416 9.02326,-19.16849 -1.17439,-6.11949 -2.96195,-12.18515 -9.83547,-13.59314 -7.14522,-0.19028 -10.42701,2.13912 -14.10926,8.39945 -3.27688,6.82808 -4.24309,13.63965 -1.09032,20.76 1.63407,2.85418 3.5657,6.27827 7.31912,6.38194 0.78845,0.0218 1.56058,-0.34146 2.34791,-0.29412 0.14599,0.009 -0.058,0.28669 -0.0871,0.43003 6.95145,-4.0387 11.0476,-10.0332 12.85446,-17.93663 1.5269,-9.18211 1.23078,-18.61405 -4.41158,-26.44992 -8.19189,-8.12543 -12.45336,-0.49177 -16.80397,7.06577 -5.34212,12.53849 -12.60671,31.33666 -6.49629,44.74587 0.67186,1.47439 2.01758,2.5358 3.02638,3.8037 0.95725,2.39094 0.85035,3.7329 3.41894,-1.09907 3.6539,-6.8736 2.38052,-15.83052 0.37557,-22.90508 -1.75574,-4.13968 -3.29306,-9.36257 -8.71307,-9.34243 -0.71107,0.003 -1.39295,0.39116 -2.10319,0.35669 -0.20641,-0.01 0.29287,-0.29164 0.43931,-0.43745 -4.49334,3.10419 -7.35598,7.00255 -7.85533,12.60711 0.82404,7.06347 5.32956,11.70633 11.4611,15.03977 0,0 -2.36131,1.55366 -2.36131,1.55366 z" />
    <path
       style="color:#000000;fill:none;stroke:#000000;stroke-width:5;stroke-linecap:butt;stroke-linejoin:miter;stroke-miterlimit:4;stroke-opacity:1;stroke-dasharray:none;stroke-dashoffset:0;marker:none;visibility:visible;display:inline;overflow:visible;enable-background:accumulate"
       id="path2836"
       d="m -753.60767,497.24614 c 10.04097,-0.64086 19.94175,-2.43518 29.59366,-5.23501 12.4131,-3.9709 24.42284,-9.10883 36.37939,-14.26838 14.57796,-6.61757 28.62107,-14.31286 42.66207,-21.98445 15.22968,-8.45838 31.12515,-15.55834 46.81996,-23.07769 16.19925,-7.19739 32.10171,-14.98603 47.95229,-22.91247 14.34857,-7.50074 28.37578,-15.56612 42.22672,-23.94201 12.34952,-6.85358 23.96352,-14.85996 35.7755,-22.5699 10.87966,-6.8997 22.13417,-13.18617 33.61551,-19.02049 8.36779,-4.03032 16.17339,-9.07616 24.23338,-13.66851 1.15959,-1.23386 0.15368,-0.24239 3.02355,-2.09482 3.09791,-1.99961 1.82561,-1.3161 4.97522,-3.12569 4.35254,-2.50072 6.24178,-3.29717 4.30307,-2.46674 4.19956,-2.53453 8.11386,-5.39567 11.88914,-8.51603 4.77991,-3.97093 9.71588,-7.74926 14.66411,-11.51141 4.10463,-2.60307 8.17492,-5.24903 12.28762,-7.83759 4.65306,-3.23753 9.51886,-6.12634 14.44997,-8.91806 0.8454,-1.54157 5.83398,-1.36929 6.31417,-2.97279 0.15593,-0.5207 -2.99922,1.93625 -0.47724,0.0343 2.73877,-2.56715 5.00361,-3.13892 8.31068,-2.15999 3.54784,1.12148 7.23755,1.5242 10.93213,1.76063 4.66187,-0.20589 9.11807,0.64366 13.65944,1.53597 4.97392,1.01179 10.02602,1.28892 15.08462,1.43817 7.08665,0.55602 14.06306,-0.39568 21.0825,-1.19669 8.71358,-1.67404 17.4748,-3.00531 26.19304,-4.64461 9.13904,-1.23366 18.25874,-2.56479 27.4005,-3.79116 9.16034,-1.19152 18.22522,-2.84583 27.42976,-3.72178 9.19192,-0.72615 18.29582,-2.19144 27.49266,-2.9357 8.74998,-0.18688 17.39109,-1.52776 26.07251,-2.50497 8.11914,-0.77498 16.12259,-2.36586 24.24469,-3.17077 8.64452,-0.83262 17.335025,-1.78564 25.90267,-3.24134 8.006845,-0.98519 15.738756,-3.31043 23.666138,-4.70241 6.742153,-0.94149 13.335887,-2.61746 20.090278,-3.5113 6.036422,-0.24195 11.917034,-1.57939 17.860097,-2.53518 5.433893,-0.8172 10.932527,-0.96525 16.416545,-1.08018 5.0536931,0.34462 9.9228159,-0.46573 14.8686877,-1.35107 5.6113339,-0.85306 11.2306273,-1.16529 16.8019613,-2.26896 4.927112,-0.83388 9.634181,-2.49351 14.474461,-3.69916 4.756788,-0.71073 9.381146,-2.01848 14.086694,-3.00423 4.935855,-0.89816 9.972426,-1.01469 14.975765,-1.11057 4.812652,-0.0628 9.625809,-0.0424 14.438704,-0.0332 5.533993,0.41941 10.897879,-0.37523 16.328208,-1.29611 5.103145,-0.86123 10.260351,-1.26773 15.426941,-1.45425 5.3514,-0.13276 10.70514,-0.11113 16.05776,-0.10726 5.79273,-0.40276 11.41646,0.37044 17.10357,1.3291 5.66548,0.97996 11.40916,1.27799 17.14569,1.45596 5.96993,1.02056 11.91803,1.97968 17.95944,2.45952 6.20327,0.65374 12.49588,0.002 18.66778,0.85922 4.79332,0.83261 9.514,1.77756 14.2122,3.01572 5.17194,1.28232 10.46592,1.87265 15.77451,2.1673 4.99331,0.89814 9.94723,1.9668 14.99258,2.53712 4.62066,0.42228 9.26374,0.46692 13.90001,0.49519 4.73634,-0.41292 9.26667,0.94013 13.88467,1.7331 5.5633,0.75039 10.98221,2.33039 16.33307,3.99069 5.89624,2.04977 11.91439,3.53999 17.94925,5.10155 7.29496,1.90101 14.80437,2.74296 22.22911,3.99053 8.95695,1.5371 18.04882,1.91704 27.11538,2.17403 9.7704,0.19946 19.54347,0.17738 29.31537,0.17275 9.4071,-0.009 18.81418,-0.02 28.22128,-0.0234 9.04488,0.42454 17.98519,-0.33783 26.96057,-1.31125 9.62547,-1.13562 19.33439,-0.97418 28.97646,-1.80537 10.1533,-1.20489 20.34301,-1.90385 30.55628,-2.30207 10.45843,-0.35965 20.84837,-1.72507 31.29399,-2.3959 10.28479,-0.50214 20.5462,-0.54526 30.79501,-1.58559 8.98409,-1.0869 18.01705,-1.59479 27.05769,-1.86427 8.29931,-0.3661 16.6287,0.18874 24.9054,-0.54336 7.7585,-0.99267 15.52987,-1.77472 23.34124,-2.17406 6.62911,-0.1568 13.12745,-1.64323 19.70101,-2.41728 5.06508,-0.56584 10.1581,-0.70029 15.24934,-0.75881 6.51681,-0.0337 13.03381,-0.0124 19.55068,-0.004 10.52786,0.0172 21.05574,0.0163 31.58362,0.0149 9.07861,0.46616 18.06155,-0.83329 27.06706,-1.73395 8.81759,-0.82816 17.676,-0.98041 26.52552,-1.08738 9.63959,0.3312 19.2008,-0.94541 28.78208,-1.78151 9.12734,-0.76075 18.28546,-0.9611 27.43935,-1.07824 8.30581,-0.0719 16.61204,-0.0582 24.91806,-0.0507 8.04313,0.49235 15.96995,-0.8434 23.93029,-1.721 6.82137,-0.72727 13.67861,-0.96534 20.53309,-1.08921 5.90274,0.37004 11.6494,-0.93337 17.44761,-1.78979 4.60138,-0.56358 8.92867,-2.30424 13.47709,-3.16277 3.68638,-0.67149 7.44345,-0.74978 11.17945,-0.81542 3.83687,0.39171 7.39764,-0.49612 11.09971,-1.31808 5.14253,-1.05724 10.39988,-1.26889 15.63136,-1.43238 6.51251,-0.13389 13.02723,-0.11064 19.5408,-0.10533 7.43779,-0.002 14.79317,-1.40311 22.19487,-2.06383 7.3499,-0.60597 14.726,-0.70422 22.0963,-0.77074 6.9689,0.35785 13.8096,-0.35159 20.6923,-1.32658 6.0716,-0.91703 12.2015,-1.2617 18.3321,-1.44739 6.1979,0.026 12.315,-0.0617 18.4547,-0.93597 4.8437,-0.87845 9.7257,-1.48627 14.6339,-1.84143 3.1179,-0.1866 6.242,-0.19299 9.3642,-0.196 3.1156,0.006 6.2313,0.0132 9.347,0.0175 3.6374,0.004 7.2748,0.004 10.9122,0.005 3.5361,-0.001 7.0721,3.8e-4 10.6082,-0.001 3.4169,0.002 6.8338,-4e-4 10.2507,9e-5 3.3153,-0.0965 6.1654,2.01714 9.0488,3.41803 3.7921,2.35336 7.1858,5.39255 10.5542,8.32897 4.5926,3.89567 9.3173,7.69757 14.1756,11.26533 5.5555,4.09932 11.1665,8.13963 16.9543,11.90679 5.9698,3.86125 11.1459,8.78497 16.3771,13.5616 3.8551,4.38884 8.251,8.20829 12.1451,12.55804 3.8363,4.99449 8.0126,9.65574 12.1373,14.40978 4.4637,4.80885 7.8532,10.45332 12.2576,15.30029 4.3726,4.55432 7.9148,9.80261 12.0847,14.51589 3.9119,4.66106 7.8161,9.30517 11.4905,14.15552 3.9515,4.81346 7.7201,9.74095 11.3545,14.79652 2.9325,3.82255 5.4842,7.9466 7.682,12.23177 1.7481,3.44877 3.0458,7.08786 4.6044,10.62164 1.544,4.04977 4.2783,7.48497 6.3907,11.23617 2.2907,3.43761 4.8968,6.63722 7.4408,9.89327 3.2202,3.67851 6.3559,7.43661 9.6283,11.06389 2.6207,3.62617 5.1244,7.33198 7.74,10.96999 2.8094,3.69858 5.4369,7.51663 8.5869,10.93484 2.9615,3.26002 6.4957,5.97733 9.257,9.41115 2.2403,4.02851 4.8001,4.13559 -0.6406,4.27125 -0.4472,-0.82551 -0.8944,-1.65103 -1.3415,-2.47654 0,0 2.4454,-1.40388 2.4454,-1.40388 l 0,0 c 0.4486,0.81783 0.8972,1.63566 1.3458,2.45349 -2.6767,5.03502 -1.4128,2.11873 -4.2387,-1.39109 -2.7627,-3.42367 -6.2906,-6.13782 -9.2411,-9.39885 -3.1564,-3.42755 -5.7912,-7.25515 -8.609,-10.96139 -2.611,-3.62866 -5.1012,-7.33141 -7.7201,-10.94582 -3.2706,-3.63873 -6.4205,-7.39231 -9.6426,-11.0785 -2.5493,-3.26938 -5.1726,-6.47413 -7.4618,-9.93018 -2.1152,-3.76019 -4.8564,-7.20134 -6.4064,-11.25854 -1.5635,-3.5252 -2.8472,-7.1659 -4.5948,-10.60872 -2.1831,-4.27671 -4.7333,-8.3861 -7.6537,-12.19939 -3.6246,-5.05924 -7.3979,-9.97993 -11.3437,-14.79424 -3.675,-4.84091 -7.5772,-9.47875 -11.4823,-14.136 -4.1602,-4.72052 -7.7152,-9.95524 -12.0807,-14.51398 -4.3958,-4.85738 -7.7999,-10.49242 -12.2631,-15.30404 -4.1256,-4.75138 -8.291,-9.42054 -12.1363,-14.40526 -3.8918,-4.33801 -8.2794,-8.15423 -12.1274,-12.53609 -5.2125,-4.77596 -10.3878,-9.67783 -16.3506,-13.52412 -5.7849,-3.78097 -11.4062,-7.81381 -16.9637,-11.91959 -4.8595,-3.58172 -9.6014,-7.37274 -14.1987,-11.27811 -3.3551,-2.9163 -6.7255,-5.95228 -10.5195,-8.2628 -2.8604,-1.39567 -5.6766,-3.44873 -8.9783,-3.3107 -3.417,5.1e-4 -6.8341,-0.001 -10.2511,2.2e-4 -3.5349,-0.002 -7.0698,3.7e-4 -10.6047,-0.001 -3.6383,5e-5 -7.2766,9.3e-4 -10.9149,-0.003 -3.1168,-0.003 -6.2335,-0.0105 -9.3503,-0.0145 -3.1165,0.002 -6.2351,0.0147 -9.3469,0.20865 -4.8992,0.35899 -9.769,0.98586 -14.6066,1.84475 -6.1465,0.8584 -12.2766,0.91947 -18.4778,0.91485 -6.1232,0.1923 -12.2446,0.54931 -18.3084,1.46822 -6.8882,0.97095 -13.7406,1.63517 -20.7123,1.29544 -7.3649,0.0676 -14.7358,0.17392 -22.0798,0.78684 -7.4052,0.67526 -14.76795,2.06949 -22.2133,2.04584 -6.51452,-0.001 -13.03024,-0.0276 -19.54353,0.11864 -5.2247,0.17134 -10.47525,0.39629 -15.60627,1.47979 -3.70929,0.833 -7.29985,1.63431 -11.13946,1.27643 -3.72601,0.0678 -7.47163,0.1633 -11.14519,0.85073 -4.53706,0.88967 -8.87227,2.61071 -13.47642,3.14717 -5.80247,0.86604 -11.55967,2.12286 -17.46711,1.75897 -6.84681,0.12701 -13.69635,0.36964 -20.50937,1.1039 -7.96385,0.88857 -15.89922,2.17694 -23.94574,1.69368 -8.30464,-0.005 -16.60952,-0.0228 -24.91393,0.0524 -9.14798,0.11761 -18.30018,0.3247 -27.42112,1.09062 -9.58618,0.83785 -19.15297,2.09712 -28.79772,1.76709 -8.84598,0.11193 -17.70083,0.27064 -26.51404,1.1093 -9.00818,0.90279 -17.99568,2.17263 -27.07666,1.70633 -10.53133,-0.004 -21.06266,-0.009 -31.59399,-0.008 -6.52148,-0.003 -13.0431,-0.0234 -19.56449,0.0183 -5.08362,0.0642 -10.16927,0.20709 -15.226,0.77876 -6.57146,0.78584 -13.07295,2.25701 -19.70417,2.39636 -7.8082,0.40729 -15.57559,1.20418 -23.33306,2.17989 -8.28142,0.68926 -16.60918,0.16832 -24.91035,0.52774 -9.03474,0.2773 -18.06077,0.79368 -27.0396,1.87538 -10.24864,1.02897 -20.51298,1.05524 -30.79556,1.57349 -10.44778,0.67988 -20.84105,2.04867 -31.30384,2.39432 -10.21048,0.40071 -20.3958,1.11918 -30.54737,2.31135 -9.64512,0.80801 -19.35377,0.67391 -28.97954,1.81575 -8.97961,0.97498 -17.92798,1.69346 -26.97549,1.28488 -9.40682,0.006 -18.81364,0.0129 -28.22045,0.0227 -9.77345,0.004 -19.54807,0.0232 -29.31996,-0.17944 -9.07692,-0.26127 -18.17832,-0.65438 -27.14423,-2.20077 -7.43293,-1.24585 -14.95229,-2.08342 -22.25127,-4.00435 -6.04484,-1.54611 -12.05554,-3.07645 -17.96231,-5.1093 -5.34464,-1.65652 -10.7614,-3.20733 -16.31745,-3.95702 -4.60634,-0.80058 -9.13345,-2.10455 -13.85925,-1.69406 -4.64254,-0.0299 -9.29201,-0.0826 -13.91773,-0.52001 -5.03874,-0.58658 -9.98384,-1.67727 -14.98115,-2.5253 -5.32064,-0.30801 -10.62432,-0.92116 -15.80627,-2.21433 -4.68875,-1.23527 -9.4102,-2.15468 -14.19151,-2.98758 -6.17245,-0.80554 -12.45372,-0.20056 -18.65178,-0.85197 -6.039,-0.48918 -11.98118,-1.47499 -17.95669,-2.44472 -5.74459,-0.18552 -11.4952,-0.49794 -17.16735,-1.48734 -5.67705,-0.95585 -11.29802,-1.67366 -17.07741,-1.29019 -5.35185,-0.003 -10.70498,-0.0237 -16.05542,0.11874 -5.15799,0.19703 -10.306749,0.61228 -15.400318,1.48046 -5.439143,0.92184 -10.821394,1.65669 -16.360818,1.26069 -4.811331,-0.008 -9.622991,-0.028 -14.434038,0.0374 -4.994974,0.10291 -10.023484,0.22758 -14.946652,1.15477 -4.701741,0.98955 -9.330109,2.27793 -14.08057,3.01302 -4.836225,1.21216 -9.547414,2.86574 -14.476864,3.68309 -5.572704,1.09006 -11.20208,1.37811 -16.8070241,2.26676 -4.9527439,0.88843 -9.8401914,1.63625 -14.8973759,1.31737 -5.475837,0.11406 -10.965738,0.27825 -16.389256,1.10894 -5.941411,0.96636 -11.828641,2.25915 -17.862107,2.52698 -6.746052,0.90956 -13.338099,2.57836 -20.076199,3.51575 -7.919454,1.41797 -15.658829,3.70247 -23.661147,4.69552 -8.578232,1.42704 -17.264771,2.40807 -25.917181,3.22885 -8.11858,0.82152 -16.12289,2.40528 -24.2423,3.17332 -8.6802,0.97932 -17.32303,2.29589 -26.07139,2.4934 -9.1946,0.75619 -18.29855,2.22065 -27.49103,2.93936 -9.20013,0.88536 -18.26225,2.5521 -27.42171,3.72923 -9.13848,1.23787 -18.26148,2.53983 -27.39423,3.80465 -8.72136,1.6429 -17.48754,2.97468 -26.20796,4.63065 -7.03052,0.80996 -14.02292,1.72323 -21.12016,1.17411 -5.07074,-0.15382 -10.13262,-0.44759 -15.11632,-1.47247 -4.53295,-0.89179 -8.99302,-1.67678 -13.64211,-1.50365 -3.71116,-0.24817 -7.4118,-0.67849 -10.97525,-1.80455 -0.83525,-0.23238 -1.76651,-0.56156 -2.65499,-0.53908 -0.64359,0.0163 -4.20082,1.42915 -0.061,-0.49276 0.24575,-0.11409 -0.40801,0.35657 -0.61202,0.53486 -3.26666,2.54884 -7.02262,3.93893 -10.67724,5.76606 1.079,-0.7888 0.0289,-0.009 -1.55882,0.95785 -2.06323,1.25641 -4.05652,2.51767 -6.05535,3.87431 -0.65752,0.44627 -1.33658,0.85995 -2.00488,1.28992 -4.1066,2.59643 -8.17654,5.23889 -12.29772,7.81517 -4.95109,3.76013 -9.8915,7.53168 -14.67213,11.50224 -3.77872,3.1219 -7.65921,6.02084 -11.86709,8.55333 -5.52048,3.23909 -11.1625,6.61971 -17.11933,10.46691 -8.19201,4.31421 -15.72004,9.89157 -24.22516,13.64642 -9.85109,5.00514 -19.55802,10.27405 -28.85887,16.27161 -11.8239,7.70664 -23.43038,15.74059 -35.794,22.58716 -15.39584,9.31305 -30.99336,18.28208 -46.92929,26.64293 -15.85023,7.92991 -31.7641,15.6973 -47.95719,22.91033 -15.69872,7.51183 -31.58529,14.63084 -46.81375,23.0915 -14.04918,7.67333 -28.10168,15.3697 -42.69356,21.97685 -11.968,5.15752 -23.98648,10.30139 -36.41657,14.25297 -9.68103,2.77814 -19.60926,4.56869 -29.67342,5.19629 0,0 2.28569,-1.66065 2.28569,-1.66065 z" />
    <path
       style="color:#000000;fill:none;stroke:#000000;stroke-width:5;stroke-linecap:butt;stroke-linejoin:miter;stroke-miterlimit:4;stroke-opacity:1;stroke-dasharray:none;stroke-dashoffset:0;marker:none;visibility:visible;display:inline;overflow:visible;enable-background:accumulate"
       id="path2838"
       d="m -739.64845,517.60569 c 6.25326,1.1613 12.33875,3.05249 18.58899,4.27066 3.92194,0.35103 7.58558,1.21234 11.30735,2.42565 3.5313,1.21448 7.14849,2.41293 10.59259,3.89679 3.44678,1.54402 7.12306,2.30751 10.54856,3.88668 3.26754,1.28326 6.69053,1.77975 9.97697,3.00437 3.91112,1.03965 7.75336,2.28903 11.66757,3.32245 4.5456,0.90142 8.94933,2.32391 13.46472,3.36786 4.54385,1.11805 9.20479,2.08362 13.63603,3.61481 4.52536,1.77267 9.32334,2.51107 14.13189,2.98197 5.0208,0.36162 10.05958,0.32705 15.09029,0.33149 5.11052,0.63797 10.12644,1.77325 15.24962,2.32519 4.44338,0.45882 8.91486,0.47922 13.37692,0.51016 4.68082,0.15985 9.39984,-0.3546 14.03897,0.3551 4.80273,1.19503 9.69044,1.82088 14.61757,2.17854 5.57585,1.14723 11.157,2.14118 16.82607,2.68268 5.5161,0.35344 10.89544,1.76843 16.3555,2.59212 4.7949,0.62682 9.63802,0.69571 14.46627,0.75584 5.00774,0.96705 10.00263,1.87015 15.0834,2.35928 5.06588,0.57857 10.20361,0.0939 15.23826,0.86452 5.28348,1.30604 10.74596,1.50444 16.06619,2.53819 5.59824,1.54281 11.42441,1.77042 17.09349,2.86795 5.63204,1.38738 11.37127,2.10784 17.14725,2.50737 4.79724,1.08679 9.58363,2.07844 14.47081,2.6645 3.94619,0.32035 7.66307,1.82545 11.54347,2.5884 3.06179,0.74479 6.26483,0.33572 9.29636,1.11791 3.37827,0.91533 6.53339,2.35372 9.82747,3.50969 3.72574,1.09805 7.56344,1.2873 11.21889,2.61057 2.9756,1.15953 6.07913,1.6919 9.24614,1.92707 2.22545,0.14222 4.45509,0.17454 6.68429,0.17099 2.69833,-0.009 5.39666,-0.0136 8.095,-0.016 3.93349,-1.07305 7.98727,-1.66546 11.92243,-2.71085 5.42815,-1.24089 10.79269,-2.69628 16.20346,-4.01381 6.03724,-0.99463 11.93349,-2.57941 17.98301,-3.51583 6.77618,-0.81518 13.55998,-0.97818 20.31129,-2.0022 6.89717,-1.34357 13.96251,-1.2134 20.88953,-2.23133 6.37313,-1.34556 12.82931,-1.99866 19.32167,-2.37267 6.88625,-0.32215 13.78238,-0.30803 20.67445,-0.31502 8.39569,0.37621 16.70158,-0.97042 25.04066,-1.70995 9.52997,-0.37466 18.95436,-1.81412 28.42767,-2.8157 8.35685,-1.01814 16.80942,-0.6111 25.16506,-1.49574 7.43181,-1.04811 14.88335,-1.86858 22.38035,-2.2272 7.37196,-0.92482 14.70871,-2.05059 22.115622,-2.67076 5.35823,0.10846 10.486434,-1.34039 15.715327,-2.24932 4.616874,-0.85796 9.317143,-0.9782 13.998076,-1.07188 5.582063,-0.0381 11.062797,1.36238 16.593835,2.04364 6.744557,0.65311 13.526221,0.72303 20.296352,0.78552 7.747626,0.0424 15.495428,0.0246 23.2431275,0.0198 7.9512412,-0.007 15.9024855,-0.0118 23.8537295,-0.0121 7.804972,-0.003 15.609943,-4.2e-4 23.414915,-7.3e-4 9.015128,0.0929 17.962982,1.46062 26.958677,2.08254 11.073872,0.23063 22.061957,1.6171 33.091789,2.50641 11.48531,0.4059 22.88091,1.87975 34.32489,2.83681 12.10053,0.90708 24.24107,1.02966 36.36948,1.13313 12.11846,0.89359 24.22069,1.86911 36.36367,2.38229 12.08054,-0.008 24.08615,0.83895 36.11662,1.8122 12.16899,0.97664 24.37524,1.27791 36.57738,1.45585 11.30923,0.52771 22.53935,-0.16708 33.7905,-1.2038 10.09288,-0.95558 20.22608,-1.28522 30.35721,-1.47883 9.29967,-0.13261 18.60057,-0.11806 27.90094,-0.11397 9.11919,0.44681 18.14033,-0.39558 27.19788,-1.28818 10.00999,-1.04923 20.07571,-1.28889 30.13118,-1.45489 12.80499,-0.12465 25.61084,-0.11018 38.41629,-0.10761 11.81602,0.1248 23.59183,0.15978 35.37145,-0.80879 11.40922,-0.95684 22.84734,-1.92845 34.30001,-1.50131 11.52509,0.89048 23.05477,1.61773 34.60855,1.98972 15.8925,0.36742 31.79069,0.34944 47.68647,0.36397 13.09689,0.004 26.19378,-0.0118 39.29067,-0.0238 7.44025,0.25495 14.75514,-1.34109 22.12535,-2.09463 5.77736,-0.76697 11.64964,-0.29548 17.40626,-1.13028 5.86654,-1.21568 11.73933,-2.11668 17.73336,-1.84514 10.71486,0.91072 21.44747,1.81884 32.20483,1.52389 9.04182,-0.4586 18.0559,-1.32388 27.09298,-1.85386 5.34672,-0.28305 10.70198,-0.3225 16.05488,-0.34445 4.71869,-0.45638 9.21618,0.87393 13.79289,1.75008 4.67484,0.78584 9.42189,0.97083 14.15236,1.08507 5.17184,0.99657 10.33629,1.90579 15.58309,2.4029 5.78214,0.45535 11.58605,0.47705 17.3824,0.50709 6.7713,-0.14363 13.46375,-0.0749 20.17737,0.82468 7.88964,0.88839 15.64533,2.54844 23.51818,3.57424 9.38273,0.93034 18.69956,2.45681 27.96359,4.19483 9.22562,1.90369 18.5288,3.37585 27.79047,5.08932 9.45915,1.90521 18.81483,4.08299 28.40901,5.24328 8.28454,0.87972 16.62227,1.01847 24.94561,1.09273 6.1238,0.0286 12.2476,-10e-4 18.3715,-0.0158 6.2725,-0.0144 12.545,-0.0141 18.8175,-0.0163 6.6448,-0.14266 13.3151,0.34815 19.9312,-0.35392 7.0038,-1.0632 14.0395,-1.77076 21.1086,-2.18905 5.3596,-0.2777 10.7275,-0.32256 16.0932,-0.33786 4.5998,-0.002 9.1997,0.007 13.7995,0.0132 4.0719,0.004 8.1439,0.005 12.2159,0.003 3.376,0.002 6.752,-2.7e-4 10.128,2.1e-4 3.7728,-4.5e-4 7.5455,0.002 11.3183,0.001 3.8057,10e-4 7.6114,-0.001 11.4171,-9.3e-4 3.3877,2.2e-4 6.7754,5.5e-4 10.1631,-9.6e-4 3.1148,0.34455 5.8328,-0.30551 8.7353,-1.33221 1.1142,-0.58722 6.4011,-3.51581 9.3682,-5.11329 0.6335,-0.34163 1.2698,-0.67814 1.9005,-1.0249 2.4475,-1.34566 10.2376,-5.6525 6.868,-4.09519 4.9228,-2.75839 9.5233,-5.35798 13.9991,-8.84909 4.8361,-3.76999 9.5646,-7.64149 14.7591,-10.91559 5.0131,-3.04708 10.2119,-5.83678 15.1105,-8.76506 6.7117,-3.80533 13.4858,-7.66877 20.5497,-10.80534 5.2282,-2.6975 9.2285,-4.97219 14.2413,-7.77369 3.1997,-1.70926 2.8374,-1.58169 4.7876,-2.71531 3.9933,-2.32121 5.3599,-2.90341 3.0956,-1.88383 5.4606,-3.17035 7.7321,-4.3502 13.8922,-7.09157 4.883,-2.34217 8.6913,-4.66897 12.9719,-7.01791 -0.1961,0.0654 -0.7537,0.32046 -0.5884,0.19635 3.5421,-2.6583 8.1432,-4.64822 12.2209,-6.43329 3.19,-1.10012 6.3697,-2.41918 9.3231,-4.06814 0.2939,-0.16411 -0.5931,0.3186 -0.8897,0.4779 6.3184,-3.52406 5.3,-2.60932 9.8749,-5.24131 0.3344,-0.19239 -0.7048,0.31397 -1.0572,0.47095 5.1546,-2.97979 6.7497,-2.80992 9.4236,-9.08268 2.0285,-6.92952 1.0832,-3.07498 2.6052,-11.61777 0,0 2.4834,-1.21155 2.4834,-1.21155 l 0,0 c -1.4742,8.56226 -0.5534,4.69545 -2.5348,11.65225 -2.4496,6.05727 -5.9766,7.59002 -9.3381,9.22442 -1.2209,0.74993 -7.5692,5.16366 -9.6446,5.37743 -0.3382,0.0348 0.554,-0.39427 0.8311,-0.5914 -4.2517,2.48825 -8.5741,4.87216 -13.2939,6.36634 -5.4113,2.42427 -6.3772,3.00847 -11.6197,6.24873 1.6091,-1.51679 0.3804,-0.31262 -4.1954,2.35371 -2.1808,1.27078 -4.4138,2.52298 -6.6634,3.66825 -0.6945,0.35357 -1.4147,0.65411 -2.1221,0.98116 -0.4668,0.20576 -3.8111,1.70567 -4.41,1.87418 -0.2113,0.0594 0.707,-0.51621 0.5147,-0.41051 -0.3012,0.16553 -4.424,2.65984 -5.8004,3.26326 -0.2373,0.104 0.4368,-0.27843 0.6553,-0.41764 -3.6924,2.24479 -7.0808,4.38156 -12.7195,7.40204 -3.9239,2.17657 -9.2024,5.20823 -14.2465,7.74603 -5.3721,2.41436 -10.6113,5.22379 -15.7159,8.04496 -5.0183,2.97687 -10.0623,5.87705 -15.1168,8.76073 -5.213,3.24324 -9.9329,7.11883 -14.7684,10.88663 -4.3874,3.48963 -9.4405,6.57827 -14.3877,9.19426 -0.1531,0.081 0.2739,-0.21202 0.4108,-0.31802 -4.1668,2.46841 -8.1854,4.9056 -13.6189,7.90702 1.9676,-1.53188 0.8244,-0.59133 -3.3279,1.80384 -6.6502,3.83603 8.1325,-4.59495 -4.5652,2.53281 -0.4882,0.27401 -1.0003,0.50282 -1.5005,0.75423 -2.9128,1.01026 -5.6837,1.56766 -8.7924,1.25551 -3.3868,-0.002 -6.7736,-10e-4 -10.1604,-9.5e-4 -3.8049,2.2e-4 -7.6097,-0.002 -11.4146,-9.2e-4 -3.774,-10e-4 -7.5479,0.002 -11.3219,0.001 -3.376,5.8e-4 -6.7521,-0.001 -10.1281,-1.6e-4 -4.0695,-0.003 -8.1391,-0.005 -12.2086,-0.009 -4.5996,-0.004 -9.1991,-0.0173 -13.7987,-0.0123 -5.3591,0.0173 -10.7205,0.059 -16.0734,0.34291 -7.0667,0.42034 -14.0973,1.15393 -21.1009,2.19838 -6.6257,0.65286 -13.2984,0.20083 -19.949,0.33152 -6.2739,0.001 -12.5477,0.005 -18.8215,0.0199 -6.122,0.0143 -12.2441,0.0428 -18.3661,0.008 -8.32545,-0.0833 -16.66555,-0.23323 -24.95083,-1.12747 -9.59495,-1.17646 -18.95374,-3.36656 -28.41919,-5.25693 -9.26509,-1.69814 -18.56175,-3.20081 -27.79052,-5.09042 -9.26211,-1.73726 -18.57938,-3.24389 -27.95938,-4.1789 -7.87296,-1.03586 -15.63503,-2.68259 -23.52699,-3.56868 -6.70701,-0.88366 -13.39908,-0.9178 -20.16041,-0.79285 -5.80305,-0.0276 -11.61392,-0.0559 -17.40183,-0.52457 -5.24252,-0.5088 -10.39803,-1.44899 -15.57683,-2.3828 -4.74043,-0.12109 -9.49735,-0.31995 -14.17961,-1.12309 -4.56385,-0.8845 -9.05483,-2.15884 -13.7607,-1.70555 -5.34677,0.022 -10.69582,0.062 -16.03624,0.34987 -9.02879,0.52942 -18.03611,1.37547 -27.07001,1.82573 -10.76913,0.26579 -21.51069,-0.64159 -32.23945,-1.5219 -5.98817,-0.21917 -11.85041,0.70197 -17.71339,1.89319 -5.76382,0.7727 -11.62727,0.36077 -17.4049,1.11681 -7.36639,0.77225 -14.68552,2.33244 -22.12488,2.0586 -13.08315,9e-4 -26.16629,0.004 -39.24943,-0.007 -15.90757,-0.0182 -31.81753,0.019 -47.72191,-0.34892 -11.55527,-0.37248 -23.08526,-1.11395 -34.61289,-1.98787 -11.44702,-0.39603 -22.87729,0.56777 -34.28011,1.52723 -11.78231,0.95732 -23.56245,0.90361 -35.3798,0.78673 -12.80762,-0.005 -25.61579,-0.025 -38.42282,0.11824 -10.05322,0.17183 -20.1158,0.42459 -30.12315,1.47725 -9.06312,0.89738 -18.09272,1.70391 -27.2167,1.26775 -9.2987,-0.003 -18.59795,-0.0179 -27.89592,0.11706 -10.12572,0.19385 -20.2532,0.53323 -30.34025,1.49148 -11.25437,1.03268 -22.4903,1.69114 -33.80115,1.17487 -12.20498,-0.18267 -24.41371,-0.49263 -36.5853,-1.47267 -12.02796,-0.97025 -24.03273,-1.79534 -36.10969,-1.80414 -12.14124,-0.51891 -24.24145,-1.50366 -36.35999,-2.37337 -12.13371,-0.10726 -24.27979,-0.23346 -36.38514,-1.14756 -11.44314,-0.96359 -22.84024,-2.42115 -34.32481,-2.83584 -11.030743,-0.8947 -22.021981,-2.26298 -33.097026,-2.49874 -8.994154,-0.62578 -17.942706,-1.99064 -26.958616,-2.0587 -7.805193,-3.3e-4 -15.610386,0.002 -23.415579,10e-4 -7.9503512,0.003 -15.9007027,0.003 -23.8510516,0.0104 -7.7503404,0.008 -15.5008134,0.0264 -23.2510734,-0.0176 -6.779328,-0.0648 -13.570403,-0.13794 -20.323039,-0.80592 -5.520535,-0.69101 -10.996071,-2.08547 -16.573468,-2.00812 -4.673681,0.10119 -9.364194,0.24173 -13.972324,1.1065 -5.226839,0.92553 -10.365479,2.31873 -15.722794,2.22342 -7.404999,0.62938 -14.739429,1.76797 -22.114589,2.65778 -7.49324,0.3792 -14.9416,1.20143 -22.37203,2.23976 -8.3573,0.83918 -16.80249,0.47692 -25.15671,1.49049 -9.47274,1.00505 -18.89929,2.42639 -28.42848,2.81058 -8.34614,0.75104 -16.6622,2.07779 -25.06657,1.69848 -6.89022,0.0117 -13.78457,-0.001 -20.66865,0.33061 -6.48831,0.38372 -12.9351,1.07065 -19.30797,2.39202 -6.93231,0.97184 -13.98956,0.89685 -20.88642,2.23144 -6.75141,1.0098 -13.5412,1.15605 -20.31182,2.00456 -6.04208,0.95429 -11.94289,2.52682 -17.97344,3.5386 -5.4082,1.33163 -10.78258,2.75752 -16.20618,4.02109 -3.95729,1.01003 -8.00235,1.70926 -11.97356,2.65949 -2.7012,0.004 -5.40239,0.0109 -8.10357,0.022 -2.23072,-8.8e-4 -4.46153,-0.0452 -6.68792,-0.19551 -3.18394,-0.25413 -6.29926,-0.82201 -9.28977,-1.989 -3.65513,-1.29716 -7.50994,-1.46265 -11.21453,-2.61204 -3.28092,-1.1687 -6.44344,-2.57756 -9.81656,-3.48292 -3.04182,-0.7038 -6.23276,-0.3581 -9.28612,-1.11011 -3.86702,-0.78265 -7.58304,-2.26993 -11.5267,-2.57391 -4.87944,-0.60086 -9.65547,-1.61827 -14.45596,-2.65747 -5.78276,-0.41266 -11.52479,-1.15688 -17.16595,-2.5349 -5.67614,-1.06301 -11.49228,-1.34545 -17.0942,-2.86759 -5.32534,-0.99817 -10.77706,-1.24827 -16.06365,-2.52538 -5.03739,-0.71277 -10.16606,-0.27662 -15.22726,-0.85533 -5.07547,-0.50065 -10.06049,-1.43572 -15.07478,-2.33624 -4.83572,-0.0661 -9.68682,-0.14371 -14.48715,-0.78889 -5.45178,-0.83881 -10.82826,-2.24136 -16.34166,-2.58298 -5.6668,-0.5548 -11.24139,-1.57589 -16.82452,-2.67587 -4.93246,-0.36904 -9.81974,-1.02183 -14.63302,-2.19261 -4.63799,-0.65293 -9.34466,-0.16636 -14.01774,-0.32224 -4.46703,-0.0373 -8.94391,-0.058 -13.39085,-0.53535 -5.11293,-0.56593 -10.1193,-1.72141 -15.22886,-2.30261 -5.03791,-0.005 -10.08465,0.0302 -15.11159,-0.3505 -4.82264,-0.49149 -9.62849,-1.25944 -14.16837,-3.03557 -4.43779,-1.49628 -9.07523,-2.49251 -13.62024,-3.59123 -4.51259,-1.05615 -8.92518,-2.45939 -13.46842,-3.37594 -3.91833,-1.0463 -7.78162,-2.26371 -11.68992,-3.34009 -3.28994,-1.21709 -6.73957,-1.68344 -9.98957,-3.02133 -3.42497,-1.56227 -7.10823,-2.32137 -10.54091,-3.88249 -3.45273,-1.45411 -7.04305,-2.68505 -10.58229,-3.87418 -3.70522,-1.21634 -7.38121,-2.0012 -11.27508,-2.40596 -6.24497,-1.23793 -12.33119,-3.13663 -18.5925,-4.25822 0,0 2.31622,-1.62508 2.31622,-1.62508 z" />
    <path
       style="color:#000000;fill:none;stroke:#000000;stroke-width:5;stroke-linecap:butt;stroke-linejoin:miter;stroke-miterlimit:4;stroke-opacity:1;stroke-dasharray:none;stroke-dashoffset:0;marker:none;visibility:visible;display:inline;overflow:visible;enable-background:accumulate"
       id="path2840"
       d="m 1248.9351,517.966 c 6.633,2.31743 13.6487,3.06783 20.4377,4.72342 3.5047,1.20174 8.009,1.21574 9.4955,5.09248 -0.4989,6.24385 -2.2167,12.35857 -4.1706,18.28824 -1.9641,4.07386 -1.7562,9.35962 -4.8992,12.79014 0,0 -2.6221,1.08944 -2.6221,1.08944 l 0,0 c 3.3531,-3.20488 2.9801,-8.6944 4.9809,-12.68596 1.9578,-5.87802 3.5914,-11.92403 4.228,-18.10209 -1.3772,-3.74189 -6.0215,-3.67068 -9.3289,-4.87184 -6.8042,-1.6316 -13.8141,-2.44224 -20.4618,-4.73584 0,0 2.3405,-1.58799 2.3405,-1.58799 z" />
    <path
       style="color:#000000;fill:none;stroke:#000000;stroke-width:5;stroke-linecap:butt;stroke-linejoin:miter;stroke-miterlimit:4;stroke-opacity:1;stroke-dasharray:none;stroke-dashoffset:0;marker:none;visibility:visible;display:inline;overflow:visible;enable-background:accumulate"
       id="path2842"
       d="m 1290.4937,296.58768 c 2.3257,6.5001 4.842,12.9346 7.2618,19.40407 2.1702,7.52529 3.8841,15.18048 5.0524,22.92553 0.9847,8.04628 1.1774,16.16305 1.3088,24.26021 0.056,3.87279 0.041,7.74605 0.027,11.61907 -0.9982,3.07764 -5.2339,4.39828 -8.0969,5.46429 -5.8263,2.3016 -11.7012,4.2904 -17.8494,5.52813 -5.145,0.30998 -2.5885,0.37029 -7.6696,-0.16984 0,0 2.2871,-1.62652 2.2871,-1.62652 l 0,0 c 5.0473,0.49079 2.5078,0.45254 7.6187,0.10194 6.142,-1.26904 12.0184,-3.27843 17.8449,-5.58293 1.8252,-0.71482 1.1521,-0.3982 2.8141,-1.24492 0.4157,-0.21176 1.5661,-0.98003 1.2427,-0.64375 -2.8646,2.97915 -0.9837,0.12475 -0.7231,-0.53818 0.026,-3.87518 0.04,-7.75062 -8e-4,-11.62575 -0.1164,-8.08784 -0.2953,-16.1953 -1.2809,-24.23236 -1.1579,-7.72756 -2.8754,-15.361 -5.032,-22.87005 -2.4168,-6.4736 -4.9276,-12.91172 -7.282,-19.40449 0,0 2.4775,-1.36445 2.4775,-1.36445 z" />
  </g>
</svg>
