<?xml version="1.0" encoding="UTF-8" standalone="no"?>
<!-- Created with Inkscape (http://www.inkscape.org/) -->

<svg
   xmlns:dc="http://purl.org/dc/elements/1.1/"
   xmlns:cc="http://creativecommons.org/ns#"
   xmlns:rdf="http://www.w3.org/1999/02/22-rdf-syntax-ns#"
   xmlns:svg="http://www.w3.org/2000/svg"
   xmlns="http://www.w3.org/2000/svg"
   xmlns:sodipodi="http://sodipodi.sourceforge.net/DTD/sodipodi-0.dtd"
   xmlns:inkscape="http://www.inkscape.org/namespaces/inkscape"
   width="1917"
   height="1171.4286"
   id="svg2"
   version="1.1"
   inkscape:version="0.47pre4 r22446"
   sodipodi:docname="hw5d3.svg">
  <defs
     id="defs4">
    <marker
       inkscape:stockid="Arrow1Lend"
       orient="auto"
       refY="0"
       refX="0"
       id="Arrow1Lend"
       style="overflow:visible">
      <path
         id="path3682"
         d="M 0,0 5,-5 -12.5,0 5,5 0,0 z"
         style="fill-rule:evenodd;stroke:#000000;stroke-width:1pt;marker-start:none"
         transform="matrix(-0.8,0,0,-0.8,-10,0)" />
    </marker>
    <inkscape:perspective
       sodipodi:type="inkscape:persp3d"
       inkscape:vp_x="0 : 526.18109 : 1"
       inkscape:vp_y="0 : 1000 : 0"
       inkscape:vp_z="744.09448 : 526.18109 : 1"
       inkscape:persp3d-origin="372.04724 : 350.78739 : 1"
       id="perspective10" />
    <inkscape:perspective
       id="perspective3598"
       inkscape:persp3d-origin="0.5 : 0.33333333 : 1"
       inkscape:vp_z="1 : 0.5 : 1"
       inkscape:vp_y="0 : 1000 : 0"
       inkscape:vp_x="0 : 0.5 : 1"
       sodipodi:type="inkscape:persp3d" />
    <inkscape:perspective
       id="perspective3598-5"
       inkscape:persp3d-origin="0.5 : 0.33333333 : 1"
       inkscape:vp_z="1 : 0.5 : 1"
       inkscape:vp_y="0 : 1000 : 0"
       inkscape:vp_x="0 : 0.5 : 1"
       sodipodi:type="inkscape:persp3d" />
    <inkscape:perspective
       id="perspective3629"
       inkscape:persp3d-origin="0.5 : 0.33333333 : 1"
       inkscape:vp_z="1 : 0.5 : 1"
       inkscape:vp_y="0 : 1000 : 0"
       inkscape:vp_x="0 : 0.5 : 1"
       sodipodi:type="inkscape:persp3d" />
    <inkscape:perspective
       id="perspective3629-7"
       inkscape:persp3d-origin="0.5 : 0.33333333 : 1"
       inkscape:vp_z="1 : 0.5 : 1"
       inkscape:vp_y="0 : 1000 : 0"
       inkscape:vp_x="0 : 0.5 : 1"
       sodipodi:type="inkscape:persp3d" />
    <inkscape:perspective
       id="perspective3660"
       inkscape:persp3d-origin="0.5 : 0.33333333 : 1"
       inkscape:vp_z="1 : 0.5 : 1"
       inkscape:vp_y="0 : 1000 : 0"
       inkscape:vp_x="0 : 0.5 : 1"
       sodipodi:type="inkscape:persp3d" />
    <inkscape:perspective
       id="perspective4141"
       inkscape:persp3d-origin="0.5 : 0.33333333 : 1"
       inkscape:vp_z="1 : 0.5 : 1"
       inkscape:vp_y="0 : 1000 : 0"
       inkscape:vp_x="0 : 0.5 : 1"
       sodipodi:type="inkscape:persp3d" />
    <marker
       inkscape:stockid="Arrow1Lend"
       orient="auto"
       refY="0"
       refX="0"
       id="Arrow1Lend-6"
       style="overflow:visible">
      <path
         id="path3682-5"
         d="M 0,0 5,-5 -12.5,0 5,5 0,0 z"
         style="fill-rule:evenodd;stroke:#000000;stroke-width:1pt;marker-start:none"
         transform="matrix(-0.8,0,0,-0.8,-10,0)" />
    </marker>
    <inkscape:perspective
       id="perspective4141-5"
       inkscape:persp3d-origin="0.5 : 0.33333333 : 1"
       inkscape:vp_z="1 : 0.5 : 1"
       inkscape:vp_y="0 : 1000 : 0"
       inkscape:vp_x="0 : 0.5 : 1"
       sodipodi:type="inkscape:persp3d" />
    <marker
       inkscape:stockid="Arrow1Lend"
       orient="auto"
       refY="0"
       refX="0"
       id="Arrow1Lend-61"
       style="overflow:visible">
      <path
         id="path3682-4"
         d="M 0,0 5,-5 -12.5,0 5,5 0,0 z"
         style="fill-rule:evenodd;stroke:#000000;stroke-width:1pt;marker-start:none"
         transform="matrix(-0.8,0,0,-0.8,-10,0)" />
    </marker>
    <inkscape:perspective
       id="perspective4141-59"
       inkscape:persp3d-origin="0.5 : 0.33333333 : 1"
       inkscape:vp_z="1 : 0.5 : 1"
       inkscape:vp_y="0 : 1000 : 0"
       inkscape:vp_x="0 : 0.5 : 1"
       sodipodi:type="inkscape:persp3d" />
    <marker
       inkscape:stockid="Arrow1Lend"
       orient="auto"
       refY="0"
       refX="0"
       id="Arrow1Lend-1"
       style="overflow:visible">
      <path
         id="path3682-2"
         d="M 0,0 5,-5 -12.5,0 5,5 0,0 z"
         style="fill-rule:evenodd;stroke:#000000;stroke-width:1pt;marker-start:none"
         transform="matrix(-0.8,0,0,-0.8,-10,0)" />
    </marker>
    <inkscape:perspective
       id="perspective4141-8"
       inkscape:persp3d-origin="0.5 : 0.33333333 : 1"
       inkscape:vp_z="1 : 0.5 : 1"
       inkscape:vp_y="0 : 1000 : 0"
       inkscape:vp_x="0 : 0.5 : 1"
       sodipodi:type="inkscape:persp3d" />
    <marker
       inkscape:stockid="Arrow1Lend"
       orient="auto"
       refY="0"
       refX="0"
       id="Arrow1Lend-16"
       style="overflow:visible">
      <path
         id="path3682-3"
         d="M 0,0 5,-5 -12.5,0 5,5 0,0 z"
         style="fill-rule:evenodd;stroke:#000000;stroke-width:1pt;marker-start:none"
         transform="matrix(-0.8,0,0,-0.8,-10,0)" />
    </marker>
    <inkscape:perspective
       id="perspective4208"
       inkscape:persp3d-origin="0.5 : 0.33333333 : 1"
       inkscape:vp_z="1 : 0.5 : 1"
       inkscape:vp_y="0 : 1000 : 0"
       inkscape:vp_x="0 : 0.5 : 1"
       sodipodi:type="inkscape:persp3d" />
    <marker
       inkscape:stockid="Arrow1Lend"
       orient="auto"
       refY="0"
       refX="0"
       id="Arrow1Lend-3"
       style="overflow:visible">
      <path
         id="path3682-58"
         d="M 0,0 5,-5 -12.5,0 5,5 0,0 z"
         style="fill-rule:evenodd;stroke:#000000;stroke-width:1pt;marker-start:none"
         transform="matrix(-0.8,0,0,-0.8,-10,0)" />
    </marker>
    <inkscape:perspective
       id="perspective4236"
       inkscape:persp3d-origin="0.5 : 0.33333333 : 1"
       inkscape:vp_z="1 : 0.5 : 1"
       inkscape:vp_y="0 : 1000 : 0"
       inkscape:vp_x="0 : 0.5 : 1"
       sodipodi:type="inkscape:persp3d" />
    <marker
       inkscape:stockid="Arrow1Lend"
       orient="auto"
       refY="0"
       refX="0"
       id="Arrow1Lend-2"
       style="overflow:visible">
      <path
         id="path3682-7"
         d="M 0,0 5,-5 -12.5,0 5,5 0,0 z"
         style="fill-rule:evenodd;stroke:#000000;stroke-width:1pt;marker-start:none"
         transform="matrix(-0.8,0,0,-0.8,-10,0)" />
    </marker>
    <inkscape:perspective
       id="perspective4236-5"
       inkscape:persp3d-origin="0.5 : 0.33333333 : 1"
       inkscape:vp_z="1 : 0.5 : 1"
       inkscape:vp_y="0 : 1000 : 0"
       inkscape:vp_x="0 : 0.5 : 1"
       sodipodi:type="inkscape:persp3d" />
    <marker
       inkscape:stockid="Arrow1Lend"
       orient="auto"
       refY="0"
       refX="0"
       id="Arrow1Lend-0"
       style="overflow:visible">
      <path
         id="path3682-41"
         d="M 0,0 5,-5 -12.5,0 5,5 0,0 z"
         style="fill-rule:evenodd;stroke:#000000;stroke-width:1pt;marker-start:none"
         transform="matrix(-0.8,0,0,-0.8,-10,0)" />
    </marker>
    <inkscape:perspective
       id="perspective4236-6"
       inkscape:persp3d-origin="0.5 : 0.33333333 : 1"
       inkscape:vp_z="1 : 0.5 : 1"
       inkscape:vp_y="0 : 1000 : 0"
       inkscape:vp_x="0 : 0.5 : 1"
       sodipodi:type="inkscape:persp3d" />
    <marker
       inkscape:stockid="Arrow1Lend"
       orient="auto"
       refY="0"
       refX="0"
       id="Arrow1Lend-21"
       style="overflow:visible">
      <path
         id="path3682-25"
         d="M 0,0 5,-5 -12.5,0 5,5 0,0 z"
         style="fill-rule:evenodd;stroke:#000000;stroke-width:1pt;marker-start:none"
         transform="matrix(-0.8,0,0,-0.8,-10,0)" />
    </marker>
    <inkscape:perspective
       id="perspective4298"
       inkscape:persp3d-origin="0.5 : 0.33333333 : 1"
       inkscape:vp_z="1 : 0.5 : 1"
       inkscape:vp_y="0 : 1000 : 0"
       inkscape:vp_x="0 : 0.5 : 1"
       sodipodi:type="inkscape:persp3d" />
    <inkscape:perspective
       id="perspective4298-8"
       inkscape:persp3d-origin="0.5 : 0.33333333 : 1"
       inkscape:vp_z="1 : 0.5 : 1"
       inkscape:vp_y="0 : 1000 : 0"
       inkscape:vp_x="0 : 0.5 : 1"
       sodipodi:type="inkscape:persp3d" />
    <inkscape:perspective
       id="perspective4298-2"
       inkscape:persp3d-origin="0.5 : 0.33333333 : 1"
       inkscape:vp_z="1 : 0.5 : 1"
       inkscape:vp_y="0 : 1000 : 0"
       inkscape:vp_x="0 : 0.5 : 1"
       sodipodi:type="inkscape:persp3d" />
    <inkscape:perspective
       id="perspective4298-6"
       inkscape:persp3d-origin="0.5 : 0.33333333 : 1"
       inkscape:vp_z="1 : 0.5 : 1"
       inkscape:vp_y="0 : 1000 : 0"
       inkscape:vp_x="0 : 0.5 : 1"
       sodipodi:type="inkscape:persp3d" />
    <inkscape:perspective
       id="perspective4298-3"
       inkscape:persp3d-origin="0.5 : 0.33333333 : 1"
       inkscape:vp_z="1 : 0.5 : 1"
       inkscape:vp_y="0 : 1000 : 0"
       inkscape:vp_x="0 : 0.5 : 1"
       sodipodi:type="inkscape:persp3d" />
    <inkscape:perspective
       id="perspective4389"
       inkscape:persp3d-origin="0.5 : 0.33333333 : 1"
       inkscape:vp_z="1 : 0.5 : 1"
       inkscape:vp_y="0 : 1000 : 0"
       inkscape:vp_x="0 : 0.5 : 1"
       sodipodi:type="inkscape:persp3d" />
    <inkscape:perspective
       id="perspective4424"
       inkscape:persp3d-origin="0.5 : 0.33333333 : 1"
       inkscape:vp_z="1 : 0.5 : 1"
       inkscape:vp_y="0 : 1000 : 0"
       inkscape:vp_x="0 : 0.5 : 1"
       sodipodi:type="inkscape:persp3d" />
    <inkscape:perspective
       id="perspective4641"
       inkscape:persp3d-origin="0.5 : 0.33333333 : 1"
       inkscape:vp_z="1 : 0.5 : 1"
       inkscape:vp_y="0 : 1000 : 0"
       inkscape:vp_x="0 : 0.5 : 1"
       sodipodi:type="inkscape:persp3d" />
    <marker
       inkscape:stockid="Arrow1Lend"
       orient="auto"
       refY="0"
       refX="0"
       id="Arrow1Lend-4"
       style="overflow:visible">
      <path
         id="path3682-9"
         d="M 0,0 5,-5 -12.5,0 5,5 0,0 z"
         style="fill-rule:evenodd;stroke:#000000;stroke-width:1pt;marker-start:none"
         transform="matrix(-0.8,0,0,-0.8,-10,0)" />
    </marker>
    <marker
       inkscape:stockid="Arrow1Lend"
       orient="auto"
       refY="0"
       refX="0"
       id="marker4647"
       style="overflow:visible">
      <path
         id="path4649"
         d="M 0,0 5,-5 -12.5,0 5,5 0,0 z"
         style="fill-rule:evenodd;stroke:#000000;stroke-width:1pt;marker-start:none"
         transform="matrix(-0.8,0,0,-0.8,-10,0)" />
    </marker>
    <marker
       inkscape:stockid="Arrow1Lend"
       orient="auto"
       refY="0"
       refX="0"
       id="marker4651"
       style="overflow:visible">
      <path
         id="path4653"
         d="M 0,0 5,-5 -12.5,0 5,5 0,0 z"
         style="fill-rule:evenodd;stroke:#000000;stroke-width:1pt;marker-start:none"
         transform="matrix(-0.8,0,0,-0.8,-10,0)" />
    </marker>
    <marker
       inkscape:stockid="Arrow1Lend"
       orient="auto"
       refY="0"
       refX="0"
       id="marker4655"
       style="overflow:visible">
      <path
         id="path4657"
         d="M 0,0 5,-5 -12.5,0 5,5 0,0 z"
         style="fill-rule:evenodd;stroke:#000000;stroke-width:1pt;marker-start:none"
         transform="matrix(-0.8,0,0,-0.8,-10,0)" />
    </marker>
    <marker
       inkscape:stockid="Arrow1Lend"
       orient="auto"
       refY="0"
       refX="0"
       id="marker4659"
       style="overflow:visible">
      <path
         id="path4661"
         d="M 0,0 5,-5 -12.5,0 5,5 0,0 z"
         style="fill-rule:evenodd;stroke:#000000;stroke-width:1pt;marker-start:none"
         transform="matrix(-0.8,0,0,-0.8,-10,0)" />
    </marker>
    <marker
       inkscape:stockid="Arrow1Lend"
       orient="auto"
       refY="0"
       refX="0"
       id="marker4663"
       style="overflow:visible">
      <path
         id="path4665"
         d="M 0,0 5,-5 -12.5,0 5,5 0,0 z"
         style="fill-rule:evenodd;stroke:#000000;stroke-width:1pt;marker-start:none"
         transform="matrix(-0.8,0,0,-0.8,-10,0)" />
    </marker>
    <marker
       inkscape:stockid="Arrow1Lend"
       orient="auto"
       refY="0"
       refX="0"
       id="marker4667"
       style="overflow:visible">
      <path
         id="path4669"
         d="M 0,0 5,-5 -12.5,0 5,5 0,0 z"
         style="fill-rule:evenodd;stroke:#000000;stroke-width:1pt;marker-start:none"
         transform="matrix(-0.8,0,0,-0.8,-10,0)" />
    </marker>
    <marker
       inkscape:stockid="Arrow1Lend"
       orient="auto"
       refY="0"
       refX="0"
       id="marker4671"
       style="overflow:visible">
      <path
         id="path4673"
         d="M 0,0 5,-5 -12.5,0 5,5 0,0 z"
         style="fill-rule:evenodd;stroke:#000000;stroke-width:1pt;marker-start:none"
         transform="matrix(-0.8,0,0,-0.8,-10,0)" />
    </marker>
    <marker
       inkscape:stockid="Arrow1Lend"
       orient="auto"
       refY="0"
       refX="0"
       id="marker4675"
       style="overflow:visible">
      <path
         id="path4677"
         d="M 0,0 5,-5 -12.5,0 5,5 0,0 z"
         style="fill-rule:evenodd;stroke:#000000;stroke-width:1pt;marker-start:none"
         transform="matrix(-0.8,0,0,-0.8,-10,0)" />
    </marker>
    <inkscape:perspective
       id="perspective4925"
       inkscape:persp3d-origin="0.5 : 0.33333333 : 1"
       inkscape:vp_z="1 : 0.5 : 1"
       inkscape:vp_y="0 : 1000 : 0"
       inkscape:vp_x="0 : 0.5 : 1"
       sodipodi:type="inkscape:persp3d" />
    <marker
       inkscape:stockid="Arrow1Lend"
       orient="auto"
       refY="0"
       refX="0"
       id="Arrow1Lend-43"
       style="overflow:visible">
      <path
         id="path3682-6"
         d="M 0,0 5,-5 -12.5,0 5,5 0,0 z"
         style="fill-rule:evenodd;stroke:#000000;stroke-width:1pt;marker-start:none"
         transform="matrix(-0.8,0,0,-0.8,-10,0)" />
    </marker>
    <inkscape:perspective
       id="perspective4953"
       inkscape:persp3d-origin="0.5 : 0.33333333 : 1"
       inkscape:vp_z="1 : 0.5 : 1"
       inkscape:vp_y="0 : 1000 : 0"
       inkscape:vp_x="0 : 0.5 : 1"
       sodipodi:type="inkscape:persp3d" />
    <marker
       inkscape:stockid="Arrow1Lend"
       orient="auto"
       refY="0"
       refX="0"
       id="Arrow1Lend-36"
       style="overflow:visible">
      <path
         id="path3682-1"
         d="M 0,0 5,-5 -12.5,0 5,5 0,0 z"
         style="fill-rule:evenodd;stroke:#000000;stroke-width:1pt;marker-start:none"
         transform="matrix(-0.8,0,0,-0.8,-10,0)" />
    </marker>
    <inkscape:perspective
       id="perspective4981"
       inkscape:persp3d-origin="0.5 : 0.33333333 : 1"
       inkscape:vp_z="1 : 0.5 : 1"
       inkscape:vp_y="0 : 1000 : 0"
       inkscape:vp_x="0 : 0.5 : 1"
       sodipodi:type="inkscape:persp3d" />
    <inkscape:perspective
       id="perspective5040"
       inkscape:persp3d-origin="0.5 : 0.33333333 : 1"
       inkscape:vp_z="1 : 0.5 : 1"
       inkscape:vp_y="0 : 1000 : 0"
       inkscape:vp_x="0 : 0.5 : 1"
       sodipodi:type="inkscape:persp3d" />
    <marker
       inkscape:stockid="Arrow1Lend"
       orient="auto"
       refY="0"
       refX="0"
       id="Arrow1Lend-07"
       style="overflow:visible">
      <path
         id="path3682-73"
         d="M 0,0 5,-5 -12.5,0 5,5 0,0 z"
         style="fill-rule:evenodd;stroke:#000000;stroke-width:1pt;marker-start:none"
         transform="matrix(-0.8,0,0,-0.8,-10,0)" />
    </marker>
    <inkscape:perspective
       id="perspective5068"
       inkscape:persp3d-origin="0.5 : 0.33333333 : 1"
       inkscape:vp_z="1 : 0.5 : 1"
       inkscape:vp_y="0 : 1000 : 0"
       inkscape:vp_x="0 : 0.5 : 1"
       sodipodi:type="inkscape:persp3d" />
  </defs>
  <sodipodi:namedview
     id="base"
     pagecolor="#ffffff"
     bordercolor="#666666"
     borderopacity="1.0"
     inkscape:pageopacity="0.0"
     inkscape:pageshadow="2"
     inkscape:zoom="0.35"
     inkscape:cx="885.12394"
     inkscape:cy="599.28428"
     inkscape:document-units="px"
     inkscape:current-layer="layer1"
     showgrid="false"
     inkscape:window-width="1280"
     inkscape:window-height="726"
     inkscape:window-x="0"
     inkscape:window-y="25"
     inkscape:window-maximized="1" />
  <metadata
     id="metadata7">
    <rdf:RDF>
      <cc:Work
         rdf:about="">
        <dc:format>image/svg+xml</dc:format>
        <dc:type
           rdf:resource="http://purl.org/dc/dcmitype/StillImage" />
        <dc:title></dc:title>
      </cc:Work>
    </rdf:RDF>
  </metadata>
  <g
     inkscape:label="Layer 1"
     inkscape:groupmode="layer"
     id="layer1"
     transform="translate(117,160.92356)">
    <g
       id="g4583">
      <path
         transform="translate(78.57142,8.57143)"
         d="m 317.14286,646.64789 c 0,28.40321 -23.02535,51.42857 -51.42857,51.42857 -28.40321,0 -51.42857,-23.02536 -51.42857,-51.42857 0,-28.40322 23.02536,-51.42857 51.42857,-51.42857 28.40322,0 51.42857,23.02535 51.42857,51.42857 z"
         sodipodi:ry="51.42857"
         sodipodi:rx="51.42857"
         sodipodi:cy="646.64789"
         sodipodi:cx="265.71429"
         id="path2816"
         style="color:#000000;fill:none;stroke:#000000;stroke-width:10;stroke-linecap:butt;stroke-linejoin:miter;stroke-miterlimit:4;stroke-opacity:1;stroke-dasharray:none;stroke-dashoffset:0;marker:none;visibility:visible;display:inline;overflow:visible;enable-background:accumulate"
         sodipodi:type="arc" />
      <path
         transform="translate(78.57142,-357.14287)"
         d="m 317.14286,646.64789 c 0,28.40321 -23.02535,51.42857 -51.42857,51.42857 -28.40321,0 -51.42857,-23.02536 -51.42857,-51.42857 0,-28.40322 23.02536,-51.42857 51.42857,-51.42857 28.40322,0 51.42857,23.02535 51.42857,51.42857 z"
         sodipodi:ry="51.42857"
         sodipodi:rx="51.42857"
         sodipodi:cy="646.64789"
         sodipodi:cx="265.71429"
         id="path2816-0"
         style="color:#000000;fill:none;stroke:#000000;stroke-width:10;stroke-linecap:butt;stroke-linejoin:miter;stroke-miterlimit:4;stroke-opacity:1;stroke-dasharray:none;stroke-dashoffset:0;marker:none;visibility:visible;display:inline;overflow:visible;enable-background:accumulate"
         sodipodi:type="arc" />
      <path
         transform="translate(78.57142,-751.14288)"
         d="m 317.14286,646.64789 c 0,28.40321 -23.02535,51.42857 -51.42857,51.42857 -28.40321,0 -51.42857,-23.02536 -51.42857,-51.42857 0,-28.40322 23.02536,-51.42857 51.42857,-51.42857 28.40322,0 51.42857,23.02535 51.42857,51.42857 z"
         sodipodi:ry="51.42857"
         sodipodi:rx="51.42857"
         sodipodi:cy="646.64789"
         sodipodi:cx="265.71429"
         id="path2816-02"
         style="color:#000000;fill:none;stroke:#000000;stroke-width:10;stroke-linecap:butt;stroke-linejoin:miter;stroke-miterlimit:4;stroke-opacity:1;stroke-dasharray:none;stroke-dashoffset:0;marker:none;visibility:visible;display:inline;overflow:visible;enable-background:accumulate"
         sodipodi:type="arc" />
      <path
         transform="translate(-326.28572,-217.14287)"
         d="m 317.14286,646.64789 c 0,28.40321 -23.02535,51.42857 -51.42857,51.42857 -28.40321,0 -51.42857,-23.02536 -51.42857,-51.42857 0,-28.40322 23.02536,-51.42857 51.42857,-51.42857 28.40322,0 51.42857,23.02535 51.42857,51.42857 z"
         sodipodi:ry="51.42857"
         sodipodi:rx="51.42857"
         sodipodi:cy="646.64789"
         sodipodi:cx="265.71429"
         id="path2816-0-9"
         style="color:#000000;fill:none;stroke:#000000;stroke-width:10;stroke-linecap:butt;stroke-linejoin:miter;stroke-miterlimit:4;stroke-opacity:1;stroke-dasharray:none;stroke-dashoffset:0;marker:none;visibility:visible;display:inline;overflow:visible;enable-background:accumulate"
         sodipodi:type="arc" />
      <path
         transform="translate(491.42856,-217.14287)"
         d="m 317.14286,646.64789 c 0,28.40321 -23.02535,51.42857 -51.42857,51.42857 -28.40321,0 -51.42857,-23.02536 -51.42857,-51.42857 0,-28.40322 23.02536,-51.42857 51.42857,-51.42857 28.40322,0 51.42857,23.02535 51.42857,51.42857 z"
         sodipodi:ry="51.42857"
         sodipodi:rx="51.42857"
         sodipodi:cy="646.64789"
         sodipodi:cx="265.71429"
         id="path2816-0-5"
         style="color:#000000;fill:none;stroke:#000000;stroke-width:10;stroke-linecap:butt;stroke-linejoin:miter;stroke-miterlimit:4;stroke-opacity:1;stroke-dasharray:none;stroke-dashoffset:0;marker:none;visibility:visible;display:inline;overflow:visible;enable-background:accumulate"
         sodipodi:type="arc" />
      <path
         transform="translate(82.857134,305.71429)"
         d="m 317.14286,646.64789 c 0,28.40321 -23.02535,51.42857 -51.42857,51.42857 -28.40321,0 -51.42857,-23.02536 -51.42857,-51.42857 0,-28.40322 23.02536,-51.42857 51.42857,-51.42857 28.40322,0 51.42857,23.02535 51.42857,51.42857 z"
         sodipodi:ry="51.42857"
         sodipodi:rx="51.42857"
         sodipodi:cy="646.64789"
         sodipodi:cx="265.71429"
         id="path2816-8"
         style="color:#000000;fill:none;stroke:#000000;stroke-width:10;stroke-linecap:butt;stroke-linejoin:miter;stroke-miterlimit:4;stroke-opacity:1;stroke-dasharray:none;stroke-dashoffset:0;marker:none;visibility:visible;display:inline;overflow:visible;enable-background:accumulate"
         sodipodi:type="arc" />
      <path
         id="path3674"
         d="M -60,483.79075 282.85714,955.21933"
         style="fill:none;stroke:#000000;stroke-width:8;stroke-linecap:butt;stroke-linejoin:miter;stroke-miterlimit:4;stroke-opacity:1;stroke-dasharray:none;marker-end:url(#Arrow1Lend)" />
      <path
         id="path3674-6"
         d="M -59.999998,373.79076 282.85714,-97.637817"
         style="fill:none;stroke:#000000;stroke-width:8;stroke-linecap:butt;stroke-linejoin:miter;stroke-miterlimit:4;stroke-opacity:1;stroke-dasharray:none;marker-end:url(#Arrow1Lend)" />
      <path
         id="path3674-0"
         d="M 398.85714,-121.35211 741.71428,350.07647"
         style="fill:none;stroke:#000000;stroke-width:8;stroke-linecap:butt;stroke-linejoin:miter;stroke-miterlimit:4;stroke-opacity:1;stroke-dasharray:none;marker-end:url(#Arrow1Lend)" />
      <path
         id="path3674-8"
         d="M 402.85714,955.79076 745.71428,484.36218"
         style="fill:none;stroke:#000000;stroke-width:8;stroke-linecap:butt;stroke-linejoin:miter;stroke-miterlimit:4;stroke-opacity:1;stroke-dasharray:none;marker-end:url(#Arrow1Lend)" />
      <path
         sodipodi:nodetypes="cc"
         id="path3674-9"
         d="M -8.5714271,439.50503 288.57143,630.93361"
         style="fill:none;stroke:#000000;stroke-width:8;stroke-linecap:butt;stroke-linejoin:miter;stroke-miterlimit:4;stroke-opacity:1;stroke-dasharray:none;marker-end:url(#Arrow1Lend)" />
      <path
         sodipodi:nodetypes="cc"
         id="path3674-9-5"
         d="M 401.71428,270.36218 696,427.50505"
         style="fill:none;stroke:#000000;stroke-width:8;stroke-linecap:butt;stroke-linejoin:miter;stroke-miterlimit:4;stroke-opacity:1;stroke-dasharray:none;marker-end:url(#Arrow1Lend)" />
      <path
         sodipodi:nodetypes="cc"
         id="path3674-9-5-2"
         d="m 352.85714,225.21932 10e-6,-268.571419"
         style="fill:none;stroke:#000000;stroke-width:8;stroke-linecap:butt;stroke-linejoin:miter;stroke-miterlimit:4;stroke-opacity:1;stroke-dasharray:none;marker-end:url(#Arrow1Lend)" />
      <path
         sodipodi:nodetypes="cc"
         id="path3674-9-5-7"
         d="m 338.57142,708.07647 14.28572,185.71429"
         style="fill:none;stroke:#000000;stroke-width:8;stroke-linecap:butt;stroke-linejoin:miter;stroke-miterlimit:4;stroke-opacity:1;stroke-dasharray:none;marker-end:url(#Arrow1Lend)" />
      <path
         sodipodi:nodetypes="cc"
         id="path3674-9-5-3"
         d="m 347.14286,593.79074 0,-242.85713"
         style="fill:none;stroke:#000000;stroke-width:8;stroke-linecap:butt;stroke-linejoin:miter;stroke-miterlimit:4;stroke-opacity:1;stroke-dasharray:none;marker-end:url(#Arrow1Lend)" />
      <flowRoot
         transform="matrix(1.6766958,0,0,1.6766958,1142.2904,-597.19201)"
         style="font-size:40px;font-style:normal;font-weight:normal;fill:#000000;fill-opacity:1;stroke:none;font-family:Bitstream Vera Sans"
         id="flowRoot4282"
         xml:space="preserve"><flowRegion
           id="flowRegion4284"><rect
             y="775.2193"
             x="-740"
             height="117.14286"
             width="385.71429"
             id="rect4286" /></flowRegion><flowPara
           id="flowPara4288">400</flowPara></flowRoot>      <flowRoot
         transform="matrix(1.6766958,0,0,1.6766958,1288.7343,-909.88004)"
         style="font-size:40px;font-style:normal;font-weight:normal;fill:#000000;fill-opacity:1;stroke:none;font-family:Bitstream Vera Sans"
         id="flowRoot4282-4"
         xml:space="preserve"><flowRegion
           id="flowRegion4284-1"><rect
             y="775.2193"
             x="-740"
             height="117.14286"
             width="385.71429"
             id="rect4286-6" /></flowRegion><flowPara
           id="flowPara4288-3">400</flowPara></flowRoot>      <flowRoot
         transform="matrix(1.6766958,0,0,1.6766958,1197.3058,-1235.5943)"
         style="font-size:40px;font-style:normal;font-weight:normal;fill:#000000;fill-opacity:1;stroke:none;font-family:Bitstream Vera Sans"
         id="flowRoot4282-5"
         xml:space="preserve"><flowRegion
           id="flowRegion4284-5"><rect
             y="775.2193"
             x="-740"
             height="117.14286"
             width="385.71429"
             id="rect4286-0" /></flowRegion><flowPara
           id="flowPara4288-1">400</flowPara></flowRoot>      <flowRoot
         transform="matrix(1.6766958,0,0,1.6766958,1765.8771,-1307.0229)"
         style="font-size:40px;font-style:normal;font-weight:normal;fill:#000000;fill-opacity:1;stroke:none;font-family:Bitstream Vera Sans"
         id="flowRoot4282-6"
         xml:space="preserve"><flowRegion
           id="flowRegion4284-4"><rect
             y="775.2193"
             x="-740"
             height="117.14286"
             width="385.71429"
             id="rect4286-8" /></flowRegion><flowPara
           id="flowPara4288-5">400</flowPara></flowRoot>      <flowRoot
         transform="matrix(1.6766958,0,0,1.6766958,1817.3057,-604.16575)"
         style="font-size:40px;font-style:normal;font-weight:normal;fill:#000000;fill-opacity:1;stroke:none;font-family:Bitstream Vera Sans"
         id="flowRoot4282-2"
         xml:space="preserve"><flowRegion
           id="flowRegion4284-52"><rect
             y="775.2193"
             x="-740"
             height="117.14286"
             width="385.71429"
             id="rect4286-69" /></flowRegion><flowPara
           id="flowPara4288-13">400</flowPara></flowRoot>      <flowRoot
         transform="matrix(1.6766958,0,0,1.6766958,1608.4486,-826.73718)"
         style="font-size:40px;font-style:normal;font-weight:normal;fill:#000000;fill-opacity:1;stroke:none;font-family:Bitstream Vera Sans"
         id="flowRoot4282-1"
         xml:space="preserve"><flowRegion
           id="flowRegion4284-526"><rect
             y="775.2193"
             x="-740"
             height="117.14286"
             width="385.71429"
             id="rect4286-9" /></flowRegion><flowPara
           id="flowPara4288-4">1</flowPara></flowRoot>      <flowRoot
         transform="matrix(1.6766958,0,0,1.6766958,1615.973,-598.41872)"
         style="font-size:40px;font-style:normal;font-weight:normal;fill:#000000;fill-opacity:1;stroke:none;font-family:Bitstream Vera Sans"
         id="flowRoot4282-1-9"
         xml:space="preserve"><flowRegion
           id="flowRegion4284-526-1"><rect
             y="775.2193"
             x="-740"
             height="117.14286"
             width="385.71429"
             id="rect4286-9-3" /></flowRegion><flowPara
           id="flowPara4288-4-8">1</flowPara></flowRoot>      <path
         d="m 284.16175,97.544704 c -4.57201,2.773596 -8.43744,6.390426 -12.19013,10.156876 -3.90424,3.63842 -6.85678,7.93864 -8.57345,12.98037 -1.18356,4.06052 -1.08639,8.1388 1.378,11.64293 3.1248,3.26407 7.38258,4.09354 11.67922,4.63531 5.3467,0.0359 10.48935,-1.59681 15.56655,-3.08698 7.05022,-1.92322 13.23843,-5.77841 19.34537,-9.65998 4.99828,-3.03856 8.96708,-7.0601 11.28413,-12.43424 1.063,-3.10303 1.66723,-6.50521 -0.42702,-9.26983 -2.53685,-2.15307 -5.21033,-1.12474 -8.1293,-0.48608 -4.44188,1.30078 -8.72424,3.21947 -12.42086,6.01767 -3.41536,2.76837 -5.98605,6.16788 -7.73458,10.17712 -1.72388,4.38861 -1.71782,8.92187 -0.87419,13.48489 1.15808,5.21977 3.04732,10.22982 4.31505,15.42115 1.19434,5.5617 1.51209,11.24895 1.70389,16.91772 -0.0547,0.75984 -0.10946,1.51968 -0.16418,2.27951 0,0 -1.72263,-0.0126 -1.72263,-0.0126 l 0,0 c 0.0559,-0.75375 0.1117,-1.50751 0.16756,-2.26126 -0.18261,-5.65717 -0.49421,-11.33353 -1.69423,-16.88234 -1.27592,-5.19317 -3.17123,-10.20621 -4.32544,-15.43087 -0.84426,-4.596 -0.85544,-9.16402 0.87176,-13.58684 1.74696,-4.03908 4.31213,-7.46698 7.7395,-10.26494 3.69203,-2.83062 7.98386,-4.75666 12.43051,-6.09191 3.76103,-0.83417 8.32858,-2.108656 11.57547,0.60802 2.05909,2.85817 1.50451,6.27659 0.41133,9.45057 -2.32067,5.40751 -6.2914,9.47501 -11.318,12.53439 -6.10913,3.88886 -12.29483,7.76623 -19.34551,9.70789 -6.20419,1.83376 -12.40073,3.64243 -18.95702,3.11618 -4.3279,-0.56733 -8.59879,-1.44721 -11.70743,-4.77754 -2.44508,-3.57304 -2.56334,-7.69109 -1.36647,-11.80416 1.71082,-5.06964 4.6655,-9.40171 8.58777,-13.05792 3.74699,-3.76667 7.59391,-7.40135 12.15597,-10.184806 0,0 1.73836,0.16166 1.73836,0.16166 z"
         id="path4414"
         style="color:#000000;fill:none;stroke:#000000;stroke-width:4.94460201;stroke-linecap:butt;stroke-linejoin:miter;stroke-miterlimit:4;stroke-opacity:1;stroke-dasharray:none;stroke-dashoffset:0;marker:none;visibility:visible;display:inline;overflow:visible;enable-background:accumulate" />
      <flowRoot
         transform="matrix(1.6766958,0,0,1.6766958,1694.4485,-1075.5944)"
         style="font-size:40px;font-style:normal;font-weight:normal;fill:#000000;fill-opacity:1;stroke:none;font-family:Bitstream Vera Sans"
         id="flowRoot4282-4-0"
         xml:space="preserve"><flowRegion
           id="flowRegion4284-1-7"><rect
             y="775.2193"
             x="-740"
             height="117.14286"
             width="385.71429"
             id="rect4286-6-2" /></flowRegion><flowPara
           id="flowPara4288-3-9">400</flowPara></flowRoot>    </g>
    <path
       sodipodi:type="arc"
       style="color:#000000;fill:none;stroke:#000000;stroke-width:10;stroke-linecap:butt;stroke-linejoin:miter;stroke-miterlimit:4;stroke-opacity:1;stroke-dasharray:none;stroke-dashoffset:0;marker:none;visibility:visible;display:inline;overflow:visible;enable-background:accumulate"
       id="path2816-1"
       sodipodi:cx="265.71429"
       sodipodi:cy="646.64789"
       sodipodi:rx="51.42857"
       sodipodi:ry="51.42857"
       d="m 317.14286,646.64789 c 0,28.40321 -23.02535,51.42857 -51.42857,51.42857 -28.40321,0 -51.42857,-23.02536 -51.42857,-51.42857 0,-28.40322 23.02536,-51.42857 51.42857,-51.42857 28.40322,0 51.42857,23.02535 51.42857,51.42857 z"
       transform="translate(1065,10.285775)" />
    <path
       sodipodi:type="arc"
       style="color:#000000;fill:none;stroke:#000000;stroke-width:10;stroke-linecap:butt;stroke-linejoin:miter;stroke-miterlimit:4;stroke-opacity:1;stroke-dasharray:none;stroke-dashoffset:0;marker:none;visibility:visible;display:inline;overflow:visible;enable-background:accumulate"
       id="path2816-0-56"
       sodipodi:cx="265.71429"
       sodipodi:cy="646.64789"
       sodipodi:rx="51.42857"
       sodipodi:ry="51.42857"
       d="m 317.14286,646.64789 c 0,28.40321 -23.02535,51.42857 -51.42857,51.42857 -28.40321,0 -51.42857,-23.02536 -51.42857,-51.42857 0,-28.40322 23.02536,-51.42857 51.42857,-51.42857 28.40322,0 51.42857,23.02535 51.42857,51.42857 z"
       transform="translate(1065,-355.42853)" />
    <path
       sodipodi:type="arc"
       style="color:#000000;fill:none;stroke:#000000;stroke-width:10;stroke-linecap:butt;stroke-linejoin:miter;stroke-miterlimit:4;stroke-opacity:1;stroke-dasharray:none;stroke-dashoffset:0;marker:none;visibility:visible;display:inline;overflow:visible;enable-background:accumulate"
       id="path2816-02-4"
       sodipodi:cx="265.71429"
       sodipodi:cy="646.64789"
       sodipodi:rx="51.42857"
       sodipodi:ry="51.42857"
       d="m 317.14286,646.64789 c 0,28.40321 -23.02535,51.42857 -51.42857,51.42857 -28.40321,0 -51.42857,-23.02536 -51.42857,-51.42857 0,-28.40322 23.02536,-51.42857 51.42857,-51.42857 28.40322,0 51.42857,23.02535 51.42857,51.42857 z"
       transform="translate(1065,-749.42853)" />
    <path
       sodipodi:type="arc"
       style="color:#000000;fill:none;stroke:#000000;stroke-width:10;stroke-linecap:butt;stroke-linejoin:miter;stroke-miterlimit:4;stroke-opacity:1;stroke-dasharray:none;stroke-dashoffset:0;marker:none;visibility:visible;display:inline;overflow:visible;enable-background:accumulate"
       id="path2816-0-9-6"
       sodipodi:cx="265.71429"
       sodipodi:cy="646.64789"
       sodipodi:rx="51.42857"
       sodipodi:ry="51.42857"
       d="m 317.14286,646.64789 c 0,28.40321 -23.02535,51.42857 -51.42857,51.42857 -28.40321,0 -51.42857,-23.02536 -51.42857,-51.42857 0,-28.40322 23.02536,-51.42857 51.42857,-51.42857 28.40322,0 51.42857,23.02535 51.42857,51.42857 z"
       transform="translate(660.14285,-215.42852)" />
    <path
       sodipodi:type="arc"
       style="color:#000000;fill:none;stroke:#000000;stroke-width:10;stroke-linecap:butt;stroke-linejoin:miter;stroke-miterlimit:4;stroke-opacity:1;stroke-dasharray:none;stroke-dashoffset:0;marker:none;visibility:visible;display:inline;overflow:visible;enable-background:accumulate"
       id="path2816-0-5-8"
       sodipodi:cx="265.71429"
       sodipodi:cy="646.64789"
       sodipodi:rx="51.42857"
       sodipodi:ry="51.42857"
       d="m 317.14286,646.64789 c 0,28.40321 -23.02535,51.42857 -51.42857,51.42857 -28.40321,0 -51.42857,-23.02536 -51.42857,-51.42857 0,-28.40322 23.02536,-51.42857 51.42857,-51.42857 28.40322,0 51.42857,23.02535 51.42857,51.42857 z"
       transform="translate(1477.8571,-215.42852)" />
    <path
       sodipodi:type="arc"
       style="color:#000000;fill:none;stroke:#000000;stroke-width:10;stroke-linecap:butt;stroke-linejoin:miter;stroke-miterlimit:4;stroke-opacity:1;stroke-dasharray:none;stroke-dashoffset:0;marker:none;visibility:visible;display:inline;overflow:visible;enable-background:accumulate"
       id="path2816-8-6"
       sodipodi:cx="265.71429"
       sodipodi:cy="646.64789"
       sodipodi:rx="51.42857"
       sodipodi:ry="51.42857"
       d="m 317.14286,646.64789 c 0,28.40321 -23.02535,51.42857 -51.42857,51.42857 -28.40321,0 -51.42857,-23.02536 -51.42857,-51.42857 0,-28.40322 23.02536,-51.42857 51.42857,-51.42857 28.40322,0 51.42857,23.02535 51.42857,51.42857 z"
       transform="translate(1069.2857,307.42863)" />
    <path
       style="fill:none;stroke:#000000;stroke-width:8;stroke-linecap:butt;stroke-linejoin:miter;stroke-miterlimit:4;stroke-opacity:1;stroke-dasharray:none;marker-end:url(#Arrow1Lend)"
       d="M 926.42857,485.50509 1269.2857,956.93367"
       id="path3674-3" />
    <path
       style="fill:none;stroke:#000000;stroke-width:8;stroke-linecap:butt;stroke-linejoin:miter;stroke-miterlimit:4;stroke-opacity:1;stroke-dasharray:none;marker-end:url(#Arrow1Lend)"
       d="M 926.42857,375.5051 1269.2857,-95.923472"
       id="path3674-6-5" />
    <path
       style="fill:none;stroke:#000000;stroke-width:8;stroke-linecap:butt;stroke-linejoin:miter;stroke-miterlimit:4;stroke-opacity:1;stroke-dasharray:none;marker-end:url(#Arrow1Lend)"
       d="m 1385.2857,-119.63777 342.8572,471.42858"
       id="path3674-0-7" />
    <path
       style="fill:none;stroke:#000000;stroke-width:8;stroke-linecap:butt;stroke-linejoin:miter;stroke-miterlimit:4;stroke-opacity:1;stroke-dasharray:none;marker-end:url(#Arrow1Lend)"
       d="M 1389.2857,957.5051 1732.1429,486.07652"
       id="path3674-8-4" />
    <path
       style="fill:none;stroke:#000000;stroke-width:8;stroke-linecap:butt;stroke-linejoin:miter;stroke-miterlimit:4;stroke-opacity:1;stroke-dasharray:none;marker-end:url(#Arrow1Lend)"
       d="M 977.85714,441.21937 1275,632.64796"
       id="path3674-9-2"
       sodipodi:nodetypes="cc" />
    <path
       style="fill:none;stroke:#000000;stroke-width:8;stroke-linecap:butt;stroke-linejoin:miter;stroke-miterlimit:4;stroke-opacity:1;stroke-dasharray:none;marker-end:url(#Arrow1Lend)"
       d="m 1390.1429,262.07652 294.2857,157.14287"
       id="path3674-9-5-4"
       sodipodi:nodetypes="cc" />
    <path
       style="fill:none;stroke:#000000;stroke-width:8;stroke-linecap:butt;stroke-linejoin:miter;stroke-miterlimit:4;stroke-opacity:1;stroke-dasharray:none;marker-end:url(#Arrow1Lend)"
       d="m 1339.2857,226.93367 0,-268.571424"
       id="path3674-9-5-2-0"
       sodipodi:nodetypes="cc" />
    <path
       style="fill:none;stroke:#000000;stroke-width:8;stroke-linecap:butt;stroke-linejoin:miter;stroke-miterlimit:4;stroke-opacity:1;stroke-dasharray:none;marker-end:url(#Arrow1Lend)"
       d="m 1325,709.79081 14.2857,185.71429"
       id="path3674-9-5-7-2"
       sodipodi:nodetypes="cc" />
    <path
       style="fill:none;stroke:#000000;stroke-width:8;stroke-linecap:butt;stroke-linejoin:miter;stroke-miterlimit:4;stroke-opacity:1;stroke-dasharray:none;marker-end:url(#Arrow1Lend)"
       d="m 1333.5714,352.64796 0,242.85712"
       id="path3674-9-5-3-7"
       sodipodi:nodetypes="cc" />
    <flowRoot
       xml:space="preserve"
       id="flowRoot4282-20"
       style="font-size:40px;font-style:normal;font-weight:normal;fill:#000000;fill-opacity:1;stroke:none;font-family:Bitstream Vera Sans"
       transform="matrix(1.6766958,0,0,1.6766958,2128.719,-595.47766)"><flowRegion
         id="flowRegion4284-16"><rect
           id="rect4286-1"
           width="385.71429"
           height="117.14286"
           x="-740"
           y="775.2193" /></flowRegion><flowPara
         id="flowPara4288-9">400</flowPara></flowRoot>    <flowRoot
       xml:space="preserve"
       id="flowRoot4282-4-4"
       style="font-size:40px;font-style:normal;font-weight:normal;fill:#000000;fill-opacity:1;stroke:none;font-family:Bitstream Vera Sans"
       transform="matrix(1.6766958,0,0,1.6766958,2275.1629,-908.1657)"><flowRegion
         id="flowRegion4284-1-9"><rect
           id="rect4286-6-9"
           width="385.71429"
           height="117.14286"
           x="-740"
           y="775.2193" /></flowRegion><flowPara
         id="flowPara4288-3-6">400</flowPara></flowRoot>    <flowRoot
       xml:space="preserve"
       id="flowRoot4282-5-9"
       style="font-size:40px;font-style:normal;font-weight:normal;fill:#000000;fill-opacity:1;stroke:none;font-family:Bitstream Vera Sans"
       transform="matrix(1.6766958,0,0,1.6766958,2183.7344,-1233.88)"><flowRegion
         id="flowRegion4284-5-4"><rect
           id="rect4286-0-2"
           width="385.71429"
           height="117.14286"
           x="-740"
           y="775.2193" /></flowRegion><flowPara
         id="flowPara4288-1-0">400</flowPara></flowRoot>    <flowRoot
       xml:space="preserve"
       id="flowRoot4282-6-2"
       style="font-size:40px;font-style:normal;font-weight:normal;fill:#000000;fill-opacity:1;stroke:none;font-family:Bitstream Vera Sans"
       transform="matrix(1.6766958,0,0,1.6766958,2752.3057,-1305.3086)"><flowRegion
         id="flowRegion4284-4-3"><rect
           id="rect4286-8-6"
           width="385.71429"
           height="117.14286"
           x="-740"
           y="775.2193" /></flowRegion><flowPara
         id="flowPara4288-5-8">400</flowPara></flowRoot>    <flowRoot
       xml:space="preserve"
       id="flowRoot4282-2-9"
       style="font-size:40px;font-style:normal;font-weight:normal;fill:#000000;fill-opacity:1;stroke:none;font-family:Bitstream Vera Sans"
       transform="matrix(1.6766958,0,0,1.6766958,2803.7343,-602.45141)"><flowRegion
         id="flowRegion4284-52-2"><rect
           id="rect4286-69-8"
           width="385.71429"
           height="117.14286"
           x="-740"
           y="775.2193" /></flowRegion><flowPara
         id="flowPara4288-13-6">400</flowPara></flowRoot>    <flowRoot
       xml:space="preserve"
       id="flowRoot4282-1-7"
       style="font-size:40px;font-style:normal;font-weight:normal;fill:#000000;fill-opacity:1;stroke:none;font-family:Bitstream Vera Sans"
       transform="matrix(1.6766958,0,0,1.6766958,2586.3058,-913.59426)"><flowRegion
         id="flowRegion4284-526-3"><rect
           id="rect4286-9-5"
           width="385.71429"
           height="117.14286"
           x="-740"
           y="775.2193" /></flowRegion><flowPara
         id="flowPara4288-4-3">1</flowPara></flowRoot>    <flowRoot
       xml:space="preserve"
       id="flowRoot4282-1-9-5"
       style="font-size:40px;font-style:normal;font-weight:normal;fill:#000000;fill-opacity:1;stroke:none;font-family:Bitstream Vera Sans"
       transform="matrix(1.6766958,0,0,1.6766958,2602.4016,-596.70438)"><flowRegion
         id="flowRegion4284-526-1-9"><rect
           id="rect4286-9-3-5"
           width="385.71429"
           height="117.14286"
           x="-740"
           y="775.2193" /></flowRegion><flowPara
         id="flowPara4288-4-8-9">1</flowPara></flowRoot>    <path
       style="color:#000000;fill:none;stroke:#000000;stroke-width:4.94460201;stroke-linecap:butt;stroke-linejoin:miter;stroke-miterlimit:4;stroke-opacity:1;stroke-dasharray:none;stroke-dashoffset:0;marker:none;visibility:visible;display:inline;overflow:visible;enable-background:accumulate"
       id="path4414-7"
       d="m 1270.5903,99.259049 c -4.572,2.773591 -8.4374,6.390421 -12.1901,10.156871 -3.9042,3.63842 -6.8568,7.93864 -8.5735,12.98037 -1.1835,4.06052 -1.0863,8.1388 1.378,11.64294 3.1248,3.26407 7.3826,4.09353 11.6793,4.63531 5.3467,0.0359 10.4893,-1.59681 15.5665,-3.08699 7.0502,-1.92321 13.2384,-5.77841 19.3454,-9.65998 4.9983,-3.03856 8.9671,-7.0601 11.2841,-12.43424 1.063,-3.10303 1.6672,-6.50521 -0.427,-9.26983 -2.5369,-2.15307 -5.2103,-1.12474 -8.1293,-0.48608 -4.4419,1.30078 -8.7242,3.21947 -12.4209,6.01767 -3.4153,2.76837 -5.986,6.16788 -7.7345,10.17712 -1.7239,4.38861 -1.7179,8.92187 -0.8742,13.48489 1.158,5.21977 3.0473,10.22982 4.315,15.42115 1.1944,5.5617 1.5121,11.24895 1.7039,16.91772 -0.055,0.75984 -0.1095,1.51968 -0.1642,2.27951 0,0 -1.7226,-0.0126 -1.7226,-0.0126 l 0,0 c 0.056,-0.75375 0.1117,-1.50751 0.1676,-2.26126 -0.1827,-5.65717 -0.4943,-11.33352 -1.6943,-16.88234 -1.2759,-5.19317 -3.1712,-10.20621 -4.3254,-15.43087 -0.8443,-4.596 -0.8555,-9.16401 0.8717,-13.58683 1.747,-4.03908 4.3122,-7.46699 7.7395,-10.26494 3.6921,-2.83062 7.9839,-4.75666 12.4306,-6.09191 3.761,-0.83417 8.3285,-2.10866 11.5754,0.60802 2.0591,2.85817 1.5045,6.27659 0.4114,9.45057 -2.3207,5.40751 -6.2914,9.47501 -11.318,12.53439 -6.1092,3.88886 -12.2949,7.76623 -19.3456,9.70788 -6.2041,1.83377 -12.4007,3.64243 -18.957,3.11618 -4.3279,-0.56733 -8.5988,-1.44721 -11.7074,-4.77754 -2.4451,-3.57303 -2.5633,-7.69109 -1.3665,-11.80415 1.7108,-5.06964 4.6655,-9.40171 8.5878,-13.05792 3.747,-3.76668 7.5939,-7.40135 12.156,-10.184811 0,0 1.7383,0.16166 1.7383,0.16166 z" />
    <flowRoot
       xml:space="preserve"
       id="flowRoot4282-4-0-9"
       style="font-size:40px;font-style:normal;font-weight:normal;fill:#000000;fill-opacity:1;stroke:none;font-family:Bitstream Vera Sans"
       transform="matrix(1.6766958,0,0,1.6766958,2680.8771,-1073.8801)"><flowRegion
         id="flowRegion4284-1-7-9"><rect
           id="rect4286-6-2-0"
           width="385.71429"
           height="117.14286"
           x="-740"
           y="775.2193" /></flowRegion><flowPara
         id="flowPara4288-3-9-5">399</flowPara></flowRoot>    <path
       style="fill:none;stroke:#000000;stroke-width:8;stroke-linecap:butt;stroke-linejoin:miter;stroke-miterlimit:4;stroke-opacity:1;stroke-dasharray:none;marker-end:url(#Arrow1Lend)"
       d="M 1271.5715,673.07652 974.42856,481.64793"
       id="path3674-9-2-0"
       sodipodi:nodetypes="cc" />
    <flowRoot
       xml:space="preserve"
       id="flowRoot4282-4-4-4"
       style="font-size:40px;font-style:normal;font-weight:normal;fill:#000000;fill-opacity:1;stroke:none;font-family:Bitstream Vera Sans"
       transform="matrix(1.6766958,0,0,1.6766958,2334.8771,-723.73714)"><flowRegion
         id="flowRegion4284-1-9-6"><rect
           id="rect4286-6-9-4"
           width="385.71429"
           height="117.14286"
           x="-740"
           y="775.2193" /></flowRegion><flowPara
         id="flowPara4288-3-6-9">1</flowPara></flowRoot>    <path
       style="fill:none;stroke:#000000;stroke-width:8;stroke-linecap:butt;stroke-linejoin:miter;stroke-miterlimit:4;stroke-opacity:1;stroke-dasharray:none;marker-end:url(#Arrow1Lend)"
       d="M 1690.1429,473.07652 1395.8572,315.93365"
       id="path3674-9-5-4-7"
       sodipodi:nodetypes="cc" />
    <flowRoot
       xml:space="preserve"
       id="flowRoot4282-1-9-5-6"
       style="font-size:40px;font-style:normal;font-weight:normal;fill:#000000;fill-opacity:1;stroke:none;font-family:Bitstream Vera Sans"
       transform="matrix(1.6766958,0,0,1.6766958,2753.2587,-904.84725)"><flowRegion
         id="flowRegion4284-526-1-9-1"><rect
           id="rect4286-9-3-5-1"
           width="385.71429"
           height="117.14286"
           x="-740"
           y="775.2193" /></flowRegion><flowPara
         id="flowPara4288-4-8-9-2">1</flowPara></flowRoot>  </g>
</svg>
