<?xml version="1.0" encoding="UTF-8" standalone="no"?>
<!-- Created with Inkscape (http://www.inkscape.org/) -->
<svg
   xmlns:dc="http://purl.org/dc/elements/1.1/"
   xmlns:cc="http://creativecommons.org/ns#"
   xmlns:rdf="http://www.w3.org/1999/02/22-rdf-syntax-ns#"
   xmlns:svg="http://www.w3.org/2000/svg"
   xmlns="http://www.w3.org/2000/svg"
   xmlns:sodipodi="http://sodipodi.sourceforge.net/DTD/sodipodi-0.dtd"
   xmlns:inkscape="http://www.inkscape.org/namespaces/inkscape"
   width="436.28027"
   height="540.28876"
   id="svg2739"
   sodipodi:version="0.32"
   inkscape:version="0.46+devel"
   sodipodi:docname="c20d2.svg"
   inkscape:output_extension="org.inkscape.output.svg.inkscape"
   version="1.0">
  <defs
     id="defs2741">
    <inkscape:perspective
       sodipodi:type="inkscape:persp3d"
       inkscape:vp_x="0 : 526.18109 : 1"
       inkscape:vp_y="0 : 1000 : 0"
       inkscape:vp_z="744.09448 : 526.18109 : 1"
       inkscape:persp3d-origin="372.04724 : 350.78739 : 1"
       id="perspective2747" />
  </defs>
  <sodipodi:namedview
     id="base"
     pagecolor="#ffffff"
     bordercolor="#666666"
     borderopacity="1.0"
     inkscape:pageopacity="0.0"
     inkscape:pageshadow="2"
     inkscape:zoom="0.35"
     inkscape:cx="295.06316"
     inkscape:cy="194.5761"
     inkscape:document-units="px"
     inkscape:current-layer="layer1"
     showgrid="false"
     inkscape:window-width="1280"
     inkscape:window-height="712"
     inkscape:window-x="-5"
     inkscape:window-y="-3" />
  <metadata
     id="metadata2744">
    <rdf:RDF>
      <cc:Work
         rdf:about="">
        <dc:format>image/svg+xml</dc:format>
        <dc:type
           rdf:resource="http://purl.org/dc/dcmitype/StillImage" />
        <dc:title></dc:title>
      </cc:Work>
    </rdf:RDF>
  </metadata>
  <g
     inkscape:label="Layer 1"
     inkscape:groupmode="layer"
     id="layer1"
     transform="translate(-79.936838,-186.64956)">
    <path
       style="fill:#000000;fill-opacity:1;fill-rule:nonzero;stroke:#000000;stroke-width:4.69999981;stroke-linecap:round;stroke-linejoin:round;stroke-miterlimit:4;stroke-opacity:1;stroke-dasharray:none;stroke-dashoffset:0"
       id="path2749"
       d="m 331.40929,286.01074 c -3.95738,14.1862 -5.47873,12.98547 -19.69173,21.16396 -4.41615,-2.4427 -2.86427,-9.10158 -2.39173,-13.21743 0.91418,-5.20752 2.30382,-10.30367 6.43073,-13.86044 4.46184,-2.26678 8.71766,-4.99553 13.38554,-6.80034 0.50617,-0.1957 0.80844,0.7422 1.10127,1.19911 1.60092,2.4979 0.73968,5.87296 0.40225,8.59262 -1.01674,5.17473 -3.39528,9.98241 -7.13316,13.70862 -8.29683,4.90038 -19.21113,13.79272 -15.94736,0.10768 4.21075,-12.40727 9.11115,-13.28772 21.25868,-20.42797 3.94785,-1.35254 5.2095,2.57888 5.76427,5.68528 0.15521,3.76342 -1.6918,6.8148 -3.82855,9.73561 -5.93922,6.51966 -11.22741,12.02454 -17.07187,5.92597 0,0 12.09584,-7.42055 12.09584,-7.42055 l 0,0 c 0.3127,0.28963 0.57845,0.64015 0.9381,0.86888 0.28253,0.17968 1.22133,0.13689 0.94843,0.33091 -16.22854,11.53754 -13.64939,9.27019 -9.95762,5.8437 2.25423,-2.39778 4.00426,-5.32531 4.35485,-8.64514 -0.41212,-2.76114 -1.05459,-5.17893 -4.25187,-3.4334 20.67816,-12.35307 11.16216,-7.43264 8.2689,-4.44375 -2.63714,2.72431 -4.38155,6.42418 -5.78714,9.87846 -0.098,0.37956 -1.52775,4.11019 -0.96586,4.73182 0.42094,0.4657 1.39034,0.1183 1.7887,0.0469 -3.57627,2.17401 -7.15254,4.34802 -10.72881,6.52202 4.12568,-2.91881 6.3336,-7.99677 7.59285,-12.76296 0.24682,-1.91581 0.87987,-4.31163 0.60491,-6.26202 -0.87755,-6.22482 -18.31194,8.93658 10.37417,-8.15805 -4.777,2.45212 -5.92371,7.96543 -7.00664,12.78594 -0.1879,1.57044 -1.97827,10.89071 0.88305,10.64339 -21.53719,12.99116 -10.41166,7.68786 -7.77755,3.27527 1.73232,-2.90193 2.6714,-6.3421 3.59028,-9.55512 0,0 12.75707,-6.059 12.75707,-6.059 z" />
    <path
       style="fill:#000000;fill-opacity:1;fill-rule:nonzero;stroke:#000000;stroke-width:4.69999981;stroke-linecap:round;stroke-linejoin:round;stroke-miterlimit:4;stroke-opacity:1;stroke-dasharray:none;stroke-dashoffset:0"
       id="path2751"
       d="m 109.44608,606.1849 c -5.93041,-5.18037 -9.54577,-11.7758 -10.071866,-19.61843 1.313536,-11.89655 11.097706,-18.80721 22.763396,-21.51116 7.54713,0.80389 11.08221,6.38541 13.51209,12.92699 2.04768,6.30935 0.93127,12.74366 -2.5856,18.26253 -6.33868,6.66593 -15.6249,14.70601 -25.22393,12.30302 -5.35211,-3.08662 -4.1106,-9.405 -2.61026,-14.4172 3.47561,-11.16627 11.788,-13.41702 21.9866,-18.88758 5.53256,1.06886 5.75108,6.32351 5.7367,10.96507 -0.30257,3.96945 -1.31196,7.58447 -3.80634,10.70104 0,0 -13.08977,5.48935 -13.08977,5.48935 l 0,0 c 2.83134,-2.69122 3.91218,-5.93198 4.33004,-9.79964 0.0421,-3.43367 0.56388,-8.9849 -4.37495,-8.67836 3.5088,-2.12557 7.0237,-4.24111 10.52641,-6.37672 0.65672,-0.40041 -1.34999,0.74186 -1.98831,1.171 -3.403,2.28786 -5.39934,5.52298 -6.58469,9.42311 -1.38211,3.91766 -3.36728,10.08949 1.47821,12.30228 3.39115,0.38855 6.90365,-1.35777 6.12127,-0.83644 -18.39277,12.25588 -8.85249,5.57369 -5.44463,2.26003 3.84588,-4.86569 5.05143,-11.09217 3.23077,-17.06093 -2.12028,-5.87303 -5.33344,-11.3815 -12.38818,-11.13888 -4.19222,1.46742 -10.96284,4.03243 6.9977,-4.87679 0.92577,-0.45922 -1.57318,1.35425 -2.23781,2.14558 -2.22106,2.64447 -3.3819,5.81036 -3.85781,9.19461 0.19601,7.50969 3.77995,13.75908 9.55688,18.53512 0,0 -11.97592,7.5224 -11.97592,7.5224 z" />
    <path
       style="fill:#000000;fill-opacity:1;fill-rule:nonzero;stroke:#000000;stroke-width:4.69999981;stroke-linecap:round;stroke-linejoin:round;stroke-miterlimit:4;stroke-opacity:1;stroke-dasharray:none;stroke-dashoffset:0"
       id="path2753"
       d="m 433.42512,605.38137 c -9.749,6.49785 -19.83618,14.04446 -31.74676,15.27674 -6.13794,0.50342 -10.70912,-1.86725 -12.22274,-7.93788 0.0822,-7.01504 4.54998,-12.32795 9.63506,-16.6352 9.18761,-6.28631 18.80999,-14.43433 29.90176,-9.69387 4.30082,3.06545 5.70897,7.99493 4.70304,13.0047 -4.51418,10.35704 -17.00913,14.77303 -26.05028,19.79083 -3.70058,1.2811 -10.74801,3.57264 -14.46537,1.12121 -0.65454,-0.43164 -1.02032,-1.19077 -1.53047,-1.78615 -1.81284,-6.51515 3.36743,-12.08892 7.20436,-16.79176 7.55074,-7.38832 17.12325,-16.58912 28.234,-16.26718 5.03816,1.57007 7.61079,6.42633 8.74316,11.27615 1.11718,11.25673 -7.67792,13.05991 -16.9172,18.45533 -4.54017,1.59451 -8.30787,1.4345 -12.4439,-0.98235 -2.88866,-2.69656 -5.15314,-5.79491 -4.68311,-9.87866 8.12088,-15.66709 14.46032,-9.65845 15.78212,-1.70354 0.40496,2.25919 0.67469,0.0733 -11.1921,5.72431 -1.05241,0.50117 1.76429,-1.54364 2.76637,-2.13907 4.30243,-2.55648 8.6594,-5.02003 12.9891,-7.53005 0.66544,0.884 1.20136,1.15937 0.65104,2.45547 -0.26708,0.62902 -1.92327,1.42047 -2.50753,1.74602 -4.40626,2.45518 -8.82679,4.88467 -13.24018,7.32701 -2.25208,-0.26709 -2.37451,-2.37566 -2.50229,-4.23191 0,0 12.6295,-6.4943 12.6295,-6.4943 l 0,0 c 2.9e-4,1.0767 -0.478,2.53414 1.06129,1.95793 -3.74015,2.18588 -7.48177,4.36928 -11.22047,6.55765 -0.8614,0.5042 1.59199,-1.50225 2.5901,-1.50248 0.82794,-1.8e-4 1.0921,0.58075 1.46399,1.1071 3.75712,-2.19815 7.49123,-4.43609 11.27134,-6.59445 0.99701,-0.56927 -1.83359,1.39 -2.81971,1.97794 -4.47181,2.66617 -8.81126,5.58882 -13.49102,7.87037 -0.89141,0.4346 -0.96705,-1.32256 -1.00359,-1.59608 -0.16545,-1.22678 -0.25641,-2.64482 -0.81016,-3.777 -0.11251,-0.23004 -0.69918,-0.44509 -0.4895,-0.59209 3.48636,-2.44422 15.85065,-9.89171 10.86225,-6.72097 -1.296,3.31227 1.43875,6.20832 3.75688,8.30337 3.86706,2.02265 7.66112,1.6239 11.60329,-0.15884 -3.42182,2.0512 -6.80313,4.17157 -10.26548,6.1536 -0.54496,0.31196 1.06741,-0.68373 1.50204,-1.13694 1.95045,-2.03383 2.33395,-5.26301 2.19875,-7.92108 -0.78003,-4.23989 -3.07861,-8.79308 -7.68907,-9.61474 -5.28595,0.50129 -12.35373,4.97759 4.38745,-4.58217 1.01826,-0.58145 -1.94422,1.3155 -2.86216,2.04511 -1.76553,1.40328 -3.8095,3.42224 -5.43837,4.97541 -3.48434,4.12681 -8.54411,9.13733 -8.00993,14.95035 3.69225,3.83215 10.73418,0.74035 14.87682,-0.76774 -19.4075,11.77404 -3.99338,3.09012 -0.59685,-0.461 1.20741,-1.26237 2.05515,-2.96102 2.9035,-4.46437 1.36125,-4.25488 0.23632,-8.73602 -3.68078,-11.23149 -2.48047,-0.863 -4.88944,-1.38719 -7.54637,-0.89989 -1.08624,0.19922 -4.04459,1.62215 -3.17743,0.9383 0.77268,-0.60935 14.98747,-9.04664 5.58252,-3.45361 -5.02374,3.85232 -9.47587,8.59628 -10.21326,15.18231 1.03544,5.62357 5.84978,6.7746 11.03872,6.208 3.53794,-0.58442 3.14721,-0.34817 6.61868,-1.65084 1.16135,-0.4358 4.4347,-2.16918 3.43157,-1.43954 -16.57639,12.05718 -6.99402,3.44894 -2.69763,1.4992 0,0 13.12501,-5.26717 13.12501,-5.26717 z" />
    <path
       style="fill:#000000;fill-opacity:1;fill-rule:nonzero;stroke:#000000;stroke-width:4.69999981;stroke-linecap:round;stroke-linejoin:round;stroke-miterlimit:4;stroke-opacity:1;stroke-dasharray:none;stroke-dashoffset:0"
       id="path2755"
       d="m 388.04755,296.35921 c 11.71913,-1.67798 23.10928,0.0731 34.21113,3.83393 16.09105,5.74622 29.7513,16.08156 42.52853,27.15992 14.66019,12.65912 26.90013,27.3882 36.65202,44.0711 8.97675,16.94282 11.73184,35.81614 12.42788,54.72657 -0.57554,18.48934 -6.83546,35.81753 -15.20243,52.09 -7.91603,14.58332 -18.49793,27.38918 -29.51518,39.6966 -4.46514,5.33421 -9.61419,9.90397 -15.23409,13.96038 0,0 -13.05839,5.14515 -13.05839,5.14515 l 0,0 c 5.76295,-3.92923 11.06906,-8.36251 15.55669,-13.75242 11.07815,-12.21517 21.74925,-24.91584 29.75261,-39.42019 8.46565,-16.03276 14.76146,-33.16082 15.52943,-51.46596 -0.57652,-18.69877 -3.2507,-37.37314 -12.07763,-54.14573 -9.69714,-16.54101 -21.84413,-31.16884 -36.44967,-43.668 -12.72129,-10.93615 -26.30637,-21.10358 -42.33605,-26.63797 -11.10151,-3.53843 -22.48473,-5.06068 -34.09526,-3.1281 0,0 11.31041,-8.46528 11.31041,-8.46528 z" />
    <path
       style="fill:#000000;fill-opacity:1;fill-rule:nonzero;stroke:#000000;stroke-width:4.69999981;stroke-linecap:round;stroke-linejoin:round;stroke-miterlimit:4;stroke-opacity:1;stroke-dasharray:none;stroke-dashoffset:0"
       id="path2757"
       d="m 443.12439,500.54427 c -1.21151,11.89963 -2.82996,23.75198 -4.02456,35.65441 0.14263,3.98803 -2.84888,15.27277 0.97303,18.39828 0.4879,0.399 1.19148,0.41155 1.78722,0.61733 9.34466,-1.41853 18.17209,-5.60109 27.13925,-8.591 9.77983,-3.17731 19.49958,-6.34836 28.93643,-10.45124 0,0 -10.95629,8.65773 -10.95629,8.65773 l 0,0 c -9.45614,3.97855 -19.19424,7.0619 -28.92205,10.29869 -4.76208,1.61373 -7.12912,2.37962 -11.77137,4.08743 -5.21411,1.91818 -10.51852,4.66955 -16.22727,3.78822 -0.73706,-0.43621 -1.60249,-0.7061 -2.21118,-1.30862 -4.64763,-4.60053 -0.88603,-13.93161 -1.17515,-19.32074 1.19433,-11.87109 2.90019,-23.68432 3.80534,-35.58359 0,0 12.6466,-6.2469 12.6466,-6.2469 z" />
    <path
       style="fill:#000000;fill-opacity:1;fill-rule:nonzero;stroke:#000000;stroke-width:4.69999981;stroke-linecap:round;stroke-linejoin:round;stroke-miterlimit:4;stroke-opacity:1;stroke-dasharray:none;stroke-dashoffset:0"
       id="path2759"
       d="m 375.67828,570.56872 c -5.33392,-13.54552 -9.10001,-27.64638 -12.93385,-41.67067 -7.65477,-23.93755 -13.49628,-48.36315 -18.97347,-72.87142 -5.31141,-24.82814 -11.21609,-49.54041 -18.23361,-73.94451 -3.6312,-12.09752 -8.19306,-23.91757 -14.03236,-35.12131 -1.48106,-2.66309 -0.78473,-1.45826 -2.06997,-3.62544 0,0 12.27742,-7.08247 12.27742,-7.08247 l 0,0 c 1.24229,2.24713 0.56891,1.00178 2.0041,3.74467 5.65,11.41709 10.20667,23.34086 13.77042,35.57359 6.86154,24.494 12.70154,49.26692 18.04285,74.13344 5.50621,24.45682 11.42894,48.81749 19.20684,72.67026 3.8816,13.90969 7.65152,27.944 13.24877,41.28181 0,0 -12.30714,6.91205 -12.30714,6.91205 z" />
    <path
       style="fill:#000000;fill-opacity:1;fill-rule:nonzero;stroke:#000000;stroke-width:4.69999981;stroke-linecap:round;stroke-linejoin:round;stroke-miterlimit:4;stroke-opacity:1;stroke-dasharray:none;stroke-dashoffset:0"
       id="path2761"
       d="m 294.00304,401.65852 c 2.06103,-9.90171 4.60191,-19.68705 7.1247,-29.4776 2.2892,-8.00265 4.60571,-16.04332 8.54668,-23.4089 8.06992,-10.37263 15.23461,-13.94773 25.46566,-7.20861 3.99571,3.09763 7.58814,6.66625 11.23866,10.15127 0,0 -11.87422,7.31401 -11.87422,7.31401 l 0,0 c -3.59047,-3.43149 -7.14096,-6.93608 -11.17782,-9.85427 -2.32493,-1.37929 -3.01152,-2.09421 -5.6072,-2.57614 -0.66867,-0.12414 -2.57411,0.37599 -2.03978,-0.0447 18.02762,-14.19523 10.55828,-6.74999 6.86709,-3.53502 -4.18998,7.19938 -6.51001,15.19999 -8.85537,23.15369 -2.48616,9.71647 -5.06132,19.40748 -7.01096,29.25181 0,0 -12.67744,6.2345 -12.67744,6.2345 z" />
    <path
       style="fill:#000000;fill-opacity:1;fill-rule:nonzero;stroke:#000000;stroke-width:4.69999981;stroke-linecap:round;stroke-linejoin:round;stroke-miterlimit:4;stroke-opacity:1;stroke-dasharray:none;stroke-dashoffset:0"
       id="path2763"
       d="m 173.76184,573.50207 c 11.6437,-1.35849 23.40366,0.17935 34.94698,1.76298 17.35293,2.81697 34.51821,6.55543 51.59219,10.71728 20.23258,5.14303 40.70853,9.32971 61.26583,12.94767 0,0 -11.19736,7.83441 -11.19736,7.83441 l 0,0 c -20.54189,-3.78371 -41.04444,-7.89073 -61.29553,-13.02605 -17.08458,-4.11437 -34.26881,-7.78509 -51.63605,-10.50961 -11.56731,-1.48387 -23.35839,-2.95597 -34.98648,-1.26141 0,0 11.31042,-8.46527 11.31042,-8.46527 z" />
    <path
       style="fill:#000000;fill-opacity:1;fill-rule:nonzero;stroke:#000000;stroke-width:4.69999981;stroke-linecap:round;stroke-linejoin:round;stroke-miterlimit:4;stroke-opacity:1;stroke-dasharray:none;stroke-dashoffset:0"
       id="path2765"
       d="m 330.31736,562.27093 c 3.74496,6.22961 7.20153,12.62247 10.84325,18.90989 2.56879,3.65736 4.02158,7.77873 4.81625,12.13445 0.81168,4.15246 -1.23256,7.08655 -3.91576,9.98818 -5.10572,4.25548 -10.44244,8.241 -15.75713,12.23479 -3.34974,2.6795 -6.82546,5.19373 -10.2971,7.7109 0,0 -13.03307,5.15434 -13.03307,5.15434 l 0,0 c 3.48323,-2.49497 6.99262,-4.9612 10.30588,-7.68262 5.26429,-3.9739 10.46439,-8.02233 15.73834,-11.98349 2.50221,-2.50864 5.09881,-4.90996 4.43822,-8.77418 -0.66644,-4.22653 -2.03797,-8.18811 -4.49142,-11.74217 -3.6009,-6.27533 -6.94431,-12.69916 -10.83379,-18.80928 0,0 12.18633,-7.14081 12.18633,-7.14081 z" />
    <path
       style="fill:#000000;fill-opacity:1;fill-rule:nonzero;stroke:#000000;stroke-width:4.69999981;stroke-linecap:round;stroke-linejoin:round;stroke-miterlimit:4;stroke-opacity:1;stroke-dasharray:none;stroke-dashoffset:0"
       id="path2767"
       d="m 94.856019,626.17985 c -0.135672,10.39856 -0.141001,20.7986 -0.108025,31.19785 0,0 -12.353131,6.29424 -12.353131,6.29424 l 0,0 c 0.03275,-10.36256 0.0285,-20.72592 -0.108025,-31.08778 0,0 12.569181,-6.40431 12.569181,-6.40431 z" />
    <path
       style="fill:#000000;fill-opacity:1;fill-rule:nonzero;stroke:#000000;stroke-width:4.69999981;stroke-linecap:round;stroke-linejoin:round;stroke-miterlimit:4;stroke-opacity:1;stroke-dasharray:none;stroke-dashoffset:0"
       id="path2771"
       d="m 366.29301,673.43153 c 8.96176,-8.2611 19.96299,-14.81293 31.76429,-18.03677 5.90784,-1.19667 11.35061,-1.74663 14.77771,3.89857 1.91166,7.94168 -2.93584,15.69048 -6.6873,22.37248 -5.5268,8.96872 -11.86855,17.38295 -17.93587,25.98303 -3.17971,4.55457 -6.05077,7.58089 0.86957,8.81257 8.6996,0.0341 17.03099,-2.58617 25.17698,-5.37318 5.57598,-1.90148 2.89684,-0.98117 8.03834,-2.75827 0,0 -11.07274,8.6177 -11.07274,8.6177 l 0,0 c -5.10609,1.73728 -2.44127,0.83343 -7.99494,2.71016 -8.32302,2.71156 -16.89633,5.46146 -25.76431,4.84227 -7.25145,-2.06028 -6.25348,-5.96071 -2.08551,-11.27949 6.09229,-8.57304 12.41875,-16.98148 18.04105,-25.87935 3.57863,-6.19017 8.28802,-13.50978 7.1907,-20.94852 -2.92079,-4.72223 -8.97888,-3.52561 -13.68684,-2.42009 -5.9521,1.82038 -13.34068,6.57991 1.66844,-2.74475 0.93787,-0.58267 -2.85327,1.34995 -6.72125,4.40481 -0.89284,0.70515 -1.71539,1.495 -2.57309,2.2425 0,0 -13.00523,5.55633 -13.00523,5.55633 z" />
    <path
       style="fill:#000000;fill-opacity:1;fill-rule:nonzero;stroke:#000000;stroke-width:4.69999981;stroke-linecap:round;stroke-linejoin:round;stroke-miterlimit:4;stroke-opacity:1;stroke-dasharray:none;stroke-dashoffset:0"
       id="path2773"
       d="m 276.61898,190.64492 c 6.46031,-0.30575 13.29827,-2.97724 19.60217,-0.79543 4.26742,2.01713 3.47813,5.56044 2.05548,9.24882 -1.91556,4.37399 -4.81158,8.18727 -7.34947,12.20282 -1.82459,3.07926 -2.02531,5.86338 0.64288,8.35903 3.16577,1.72696 5.73987,3.44895 7.4984,6.70582 1.25499,5.77591 -3.03321,10.07361 -6.74111,13.86109 -11.89199,10.04596 -25.8136,17.48235 -40.24693,23.19618 0,0 10.93844,-8.60239 10.93844,-8.60239 l 0,0 c 3.12531,-1.26661 20.88162,-9.59334 4.30576,-0.78315 -1.11773,0.59409 3.86316,-2.16765 8.61213,-5.7082 1.17042,-0.87259 2.27907,-1.82512 3.4186,-2.73768 3.41042,-3.26283 7.75208,-7.00976 7.41026,-12.17374 -1.66451,-3.12537 -4.46636,-4.4126 -7.27539,-6.34763 -2.88666,-2.99444 -3.46065,-6.28216 -1.49782,-10.07576 2.5276,-3.95997 5.3093,-7.75706 7.44692,-11.95123 1.17065,-2.90804 2.98695,-5.70977 -0.89712,-7.21512 -6.28824,-1.53476 -12.91276,0.8987 -19.23361,1.28185 0,0 11.31041,-8.46528 11.31041,-8.46528 z" />
  </g>
</svg>
