<?xml version="1.0" encoding="UTF-8" standalone="no"?>
<!-- Created with Inkscape (http://www.inkscape.org/) -->
<svg
   xmlns:dc="http://purl.org/dc/elements/1.1/"
   xmlns:cc="http://creativecommons.org/ns#"
   xmlns:rdf="http://www.w3.org/1999/02/22-rdf-syntax-ns#"
   xmlns:svg="http://www.w3.org/2000/svg"
   xmlns="http://www.w3.org/2000/svg"
   xmlns:sodipodi="http://sodipodi.sourceforge.net/DTD/sodipodi-0.dtd"
   xmlns:inkscape="http://www.inkscape.org/namespaces/inkscape"
   width="932.46381"
   height="782.40924"
   id="svg2"
   sodipodi:version="0.32"
   inkscape:version="0.46+devel"
   sodipodi:docname="c20d1.svg"
   inkscape:output_extension="org.inkscape.output.svg.inkscape"
   version="1.0">
  <defs
     id="defs4">
    <inkscape:perspective
       sodipodi:type="inkscape:persp3d"
       inkscape:vp_x="0 : 526.18109 : 1"
       inkscape:vp_y="0 : 1000 : 0"
       inkscape:vp_z="744.09448 : 526.18109 : 1"
       inkscape:persp3d-origin="372.04724 : 350.78739 : 1"
       id="perspective10" />
  </defs>
  <sodipodi:namedview
     id="base"
     pagecolor="#ffffff"
     bordercolor="#666666"
     borderopacity="1.0"
     inkscape:pageopacity="0.0"
     inkscape:pageshadow="2"
     inkscape:zoom="0.35"
     inkscape:cx="361.73312"
     inkscape:cy="416.94526"
     inkscape:document-units="px"
     inkscape:current-layer="layer1"
     showgrid="false"
     inkscape:window-width="1280"
     inkscape:window-height="712"
     inkscape:window-x="-5"
     inkscape:window-y="-3" />
  <metadata
     id="metadata7">
    <rdf:RDF>
      <cc:Work
         rdf:about="">
        <dc:format>image/svg+xml</dc:format>
        <dc:type
           rdf:resource="http://purl.org/dc/dcmitype/StillImage" />
        <dc:title></dc:title>
      </cc:Work>
    </rdf:RDF>
  </metadata>
  <g
     inkscape:label="Layer 1"
     inkscape:groupmode="layer"
     id="layer1"
     transform="translate(-13.266873,-166.89823)">
    <path
       style="fill:#000000;fill-opacity:1;fill-rule:nonzero;stroke:#000000;stroke-width:4.69999981;stroke-linecap:round;stroke-linejoin:round;stroke-miterlimit:4;stroke-opacity:1;stroke-dasharray:none;stroke-dashoffset:0"
       id="path2694"
       d="m 101.16937,794.23202 c 1.75492,8.7835 0.77871,16.27856 -4.745411,23.41727 -4.779253,4.07567 -16.297286,14.46004 -21.244359,7.58773 -1.264796,-1.75702 -1.423247,-3.93793 -1.800221,-5.96477 0.306716,-14.65348 4.514425,-14.48855 17.589149,-22.15828 4.855883,2.12286 5.392462,8.763 6.074011,13.401 1.883521,7.43259 -11.44549,20.57795 -16.128704,11.99591 -1.139737,-3.28855 -1.266342,-6.84039 0.02302,-10.09884 4.536487,-2.01228 8.864896,-4.58148 13.609461,-6.03685 1.386094,-0.42518 2.816642,8.59585 2.953031,9.62143 0.841279,7.22314 -4.906116,7.00562 -13.806565,9.75835 -0.364483,0.11272 -2.011358,-3.2925 -2.080891,-3.42791 0,0 12.30197,-7.02173 12.30197,-7.02173 l 0,0 c 0.263442,0.51357 0.484682,1.05108 0.790325,1.54072 0.227967,0.36519 1.144918,0.75013 0.802917,1.01161 -3.564418,2.72527 -7.664029,4.6704 -11.428261,7.11227 -0.171726,0.1114 0.460749,0.0506 0.607068,-0.0925 0.628328,-0.61469 0.325045,-1.59564 0.269103,-2.2955 -0.218076,-1.95558 -0.412182,-3.95078 -0.96247,-5.84896 -0.160385,-0.55324 -0.345187,-1.10526 -0.609913,-1.61685 -0.19839,-0.38339 -1.103284,-0.77323 -0.766781,-1.04362 3.522796,-2.83069 7.553713,-4.96317 11.33057,-7.44475 -2.040169,2.36697 -1.48127,6.06938 -0.713141,8.81807 2.08965,3.96468 13.507952,-5.75823 -10.436633,7.49138 -0.474832,0.26274 1.171955,-0.53739 1.666022,-3.26581 0.153561,-0.84802 0.07873,-1.72183 0.118095,-2.58274 -0.366957,-2.65446 -0.984304,-11.27185 -4.704556,-11.11186 3.620945,-2.1988 7.145041,-4.56564 10.862835,-6.59639 0.597907,-0.32659 -1.033899,0.90325 -1.440677,1.44977 -2.489575,3.34484 -3.333751,7.77312 -3.482624,11.83317 0.209658,1.30374 0.396214,3.8209 1.318097,5.02293 1.355283,1.76715 3.696842,0.90653 3.563344,1.01347 -2.199099,1.76173 -15.009435,9.647 -7.194023,4.43886 5.880614,-6.53606 7.007981,-13.60277 5.265963,-22.14725 0,0 12.400249,-6.7593 12.400249,-6.7593 z" />
    <path
       style="fill:#000000;fill-opacity:1;fill-rule:nonzero;stroke:#000000;stroke-width:4.69999981;stroke-linecap:round;stroke-linejoin:round;stroke-miterlimit:4;stroke-opacity:1;stroke-dasharray:none;stroke-dashoffset:0"
       id="path2696"
       d="m 485.13556,302.72141 c -9.15304,8.8817 -19.56224,16.7781 -31.72697,21.05764 -6.45608,1.32831 -10.78007,-2.09525 -12.23623,-8.19553 -0.24099,-7.09749 3.64322,-12.55043 8.98998,-16.76783 9.95443,-6.19188 19.65093,-12.8662 28.9625,-3.66879 3.58351,4.61938 3.67048,9.90116 1.91741,15.24928 -3.17433,5.62517 -7.65594,6.4478 -15.56048,7.91585 -1.26554,0.23504 0.70755,-8.73699 0.7779,-9.06305 2.21315,-5.57548 3.32263,-12.517 7.80423,-16.86297 4.49853,-1.45914 8.80695,-3.75898 13.49559,-4.37743 0.85925,-0.11333 0.0664,1.73766 -0.0203,2.6 -0.49633,4.93577 -2.64016,9.34709 -4.92402,13.65951 -5.50749,8.87203 -13.97649,16.99575 -24.73242,19.02724 -4.05852,-1.23696 -3.89488,-6.36471 -4.15447,-9.87574 -3.2376,-6.55351 15.57695,-14.51971 11.99956,-7.24911 -4.49248,2.16273 -8.81613,4.71845 -13.47743,6.4882 -0.45738,0.17366 -0.76696,-0.60944 -1.12318,-0.94479 -1.62937,-1.53394 -1.95056,-3.04918 -1.86542,-5.20791 1.08109,-9.57967 8.10833,-10.33218 16.82458,-14.68606 3.1535,3.83511 2.33314,8.82227 1.72378,13.37768 -1.15754,7.43828 -0.82609,5.95132 -13.77362,8.71089 -0.0916,0.0195 -0.29301,-3.79882 -0.29433,-3.82133 0,0 12.58548,-6.49684 12.58548,-6.49684 l 0,0 c 0.029,0.61428 0.0475,1.22915 0.087,1.84284 0.0388,0.60334 0.62892,1.44136 0.14797,1.80771 -17.73642,13.51024 -12.55572,10.87222 -11.42641,4.18927 0.53711,-3.52462 1.80318,-8.34207 -0.66515,-11.40277 21.13033,-12.79851 8.3639,-7.57377 7.49533,0.14726 -1.41735,9.41926 14.49012,-1.78265 -9.36598,11.51687 6.14536,-3.23684 14.83876,-14.6734 13.68879,-4.77768 0.13502,2.28386 -0.3937,7.7584 2.84645,7.75714 4.93448,-1.69863 4.0196,-1.50023 -8.60523,5.56761 -0.83203,0.4658 1.57642,-1.08136 2.29253,-1.71098 2.76456,-2.43064 5.07037,-5.40297 6.99154,-8.52304 1.84074,-3.2763 3.53901,-6.45792 4.50517,-10.11893 0.25554,-0.96831 0.40549,-1.96171 0.581,-2.94767 0.11821,-0.66409 -0.23177,-1.58614 0.29992,-2.00122 3.76834,-2.94189 8.07249,-5.12402 12.10873,-7.68603 -4.81502,1.69974 -6.43872,11.72499 -8.39095,15.8979 -0.81378,3.4559 -0.81893,2.89519 -1.11808,6.12196 -0.0557,0.60126 0.37859,1.44326 -0.10216,1.80864 -21.09949,16.03608 -13.14824,8.83603 -9.47493,5.2926 1.93759,-4.7717 2.22846,-9.56859 -1.11611,-13.82826 -2.81947,-2.63109 -5.77128,-4.03657 -9.75294,-3.65706 -1.07466,0.10243 -3.98518,1.33457 -3.17944,0.61611 2.69033,-2.39888 6.05198,-3.91709 9.07798,-5.87564 -5.33221,3.6167 -9.44182,8.56378 -9.65175,15.28653 1.07406,5.65385 5.34291,7.79614 10.86612,6.20194 1.98213,-0.80797 16.42165,-6.89148 -5.14019,3.72554 -1.33093,0.65534 2.40283,-1.74237 3.56291,-2.66707 0.13454,-0.10724 6.37138,-5.39933 6.6674,-5.65365 0.86298,-0.7414 1.71539,-1.495 2.57309,-2.2425 0,0 13.00523,-5.55633 13.00523,-5.55633 z" />
    <path
       style="fill:#000000;fill-opacity:1;fill-rule:nonzero;stroke:#000000;stroke-width:4.69999981;stroke-linecap:round;stroke-linejoin:round;stroke-miterlimit:4;stroke-opacity:1;stroke-dasharray:none;stroke-dashoffset:0"
       id="path2698"
       d="m 666.58543,797.53084 c 0.13474,7.63117 0.80822,15.88849 -2.81233,22.85987 -12.64269,13.91378 -17.61464,9.57329 -18.93092,-2.52474 0.0186,-4.43084 1.72465,-14.20877 5.7188,-16.91491 4.47636,-3.03284 9.28386,-5.5456 13.92579,-8.3184 6.54848,0.42196 6.28625,9.10012 6.22087,13.93623 -1.57766,14.73923 -8.56554,15.49694 -21.74557,22.46915 -8.1109,-0.47309 -8.02451,-10.36825 -7.71815,-16.44627 1.15428,-10.44364 6.58244,-18.48837 14.66614,-24.81554 5.00945,-2.7742 9.81665,-5.95007 15.02836,-8.32258 0.8402,-0.38248 1.87684,-0.043 2.76037,0.22466 4.82468,1.46129 4.79219,7.01426 4.78472,11.01497 -1.01352,9.49114 -5.74062,17.61629 -11.08443,25.28383 -8.52158,8.62392 -21.20606,18.20863 -18.59559,1.81656 2.18988,-8.9153 6.18964,-17.29967 11.06384,-25.04373 4.03394,-5.32772 7.93886,-6.69373 16.0739,-8.72156 1.8163,-0.45274 0.51658,8.86637 0.44855,9.37334 -2.34656,11.27908 -8.61624,20.96337 -15.98346,29.59853 -6.91055,6.03216 -20.8026,19.97574 -29.48887,12.84052 -0.8373,-0.68779 -1.3771,-1.67335 -2.06565,-2.51002 -4.01736,-7.97356 -1.73027,-16.39234 2.28878,-23.82627 6.31121,-8.08473 17.1453,-16.41384 27.48223,-12.3076 5.66299,3.43472 5.96853,8.60891 3.27969,14.14105 -1.66476,2.52092 -3.71512,4.83598 -6.37696,6.34804 -6.8097,3.86826 -12.41963,11.66667 -18.0515,5.77334 -1.1079,-3.25063 -0.70445,-1.60173 -1.22366,-4.94342 0,0 12.49741,-6.58964 12.49741,-6.58964 l 0,0 c 0.36292,2.90308 0.0769,1.53972 0.79966,4.10189 3.89263,3.23309 12.07436,-5.03964 -7.14586,6.78981 -1.10237,0.67848 7.33464,-4.56999 6.62765,-5.7146 2.84289,-4.58742 3.24087,-9.15967 -2.10156,-11.99631 -2.03726,-0.60605 -2.51523,-0.9774 -4.68299,-0.70778 -0.91808,0.11419 -3.42641,1.22572 -2.69653,0.65722 17.82223,-13.88169 7.71564,-4.55625 4.4035,-1.26202 -4.0848,6.74962 -6.71201,14.73648 -3.02385,22.27198 1.49355,1.69917 1.71836,2.55369 4.1129,2.95119 0.98383,0.16333 3.68894,-0.78365 2.99105,-0.0712 -2.33627,2.38493 -5.61125,3.62207 -8.34573,5.53744 -2.72399,1.90801 12.32619,-7.58578 7.91384,-6.07589 7.42065,-8.33326 13.72928,-17.76517 16.19648,-28.81652 0.39786,-2.53836 0.81897,-3.9773 0.58324,-6.45705 -0.0465,-0.48877 -0.79162,-1.12567 -0.39739,-1.41832 20.5931,-15.2868 12.62441,-8.09858 8.75546,-4.61757 -5.00972,7.51725 -9.04742,15.75812 -11.30909,24.53298 -0.20366,1.07952 -0.92241,3.95167 -0.71586,5.38917 0.043,0.29903 0.19188,0.65008 0.46584,0.77739 0.29341,0.13636 1.23491,-0.28984 0.96405,-0.11288 -3.2528,2.12508 -6.52609,4.2452 -9.98835,6.00855 -0.94996,0.48382 1.58783,-1.42297 2.38174,-2.13445 5.37039,-7.40759 10.23043,-15.24687 11.43257,-24.51826 0.0997,-2.73384 0.65097,-6.30377 -1.85292,-8.30824 -1.82016,-1.45712 -4.30822,-0.44473 -4.19881,-0.53312 2.75542,-2.22598 6.01739,-3.73901 9.02609,-5.60851 -8.48539,6.13178 -13.72064,13.06842 -15.20078,23.7267 -0.34741,4.94232 -1.02029,14.80223 6.37231,14.06834 -3.21715,2.03814 -6.42872,4.0851 -9.65144,6.11442 -0.77968,0.49095 1.61227,-0.91197 2.3222,-1.49927 3.64269,-3.01348 4.90914,-7.56498 5.40007,-12.08081 0.0752,-3.2291 0.9227,-12.77737 -4.69015,-11.39403 3.34662,-2.03164 6.52471,-4.37125 10.03987,-6.09493 0.84351,-0.41361 -1.33223,1.33573 -1.88435,2.09583 -2.929,4.03229 -4.24565,8.89566 -4.3482,13.82811 0.18361,1.90292 0.24505,4.14661 0.95146,5.98477 1.02853,2.67635 2.38387,2.73224 2.28757,2.8068 -2.99591,2.31943 -15.97362,9.97782 -9.6745,5.96667 4.33425,-6.30585 3.31257,-14.74045 3.23111,-22.02341 0,0 12.48734,-6.55947 12.48734,-6.55947 z" />
    <path
       style="fill:#000000;fill-opacity:1;fill-rule:nonzero;stroke:#000000;stroke-width:4.69999981;stroke-linecap:round;stroke-linejoin:round;stroke-miterlimit:4;stroke-opacity:1;stroke-dasharray:none;stroke-dashoffset:0"
       id="path2700"
       d="m 860.0035,448.54932 c -4.15692,11.31798 -14.40566,19.8062 -26.70063,21.60226 -8.06984,-0.51151 -11.26362,-7.21697 -11.54251,-14.47148 1.11962,-14.17511 6.20943,-13.78815 19.36923,-20.13874 5.00858,3.44093 4.55122,10.19868 3.80616,15.53189 -2.91384,14.44224 -6.57944,14.33994 -20.26277,22.0208 -5.88762,-2.03514 -3.93367,-9.42906 -2.66189,-13.93423 1.9,-6.88462 4.66524,-13.51588 10.13113,-18.29438 4.51725,-2.41803 8.83381,-5.25575 13.55175,-7.2541 0.49867,-0.21122 0.99176,0.52159 1.31183,0.95844 1.77209,2.41861 0.29716,6.10612 -0.39365,8.5798 -0.46283,3.6411 -3.22567,6.51451 -4.04904,9.99466 -0.48614,-4.26336 17.67178,-9.60578 -10.47694,4.57431 -0.45853,0.23099 0.75822,-0.69634 1.09065,-1.08762 0.86566,-1.01892 1.07324,-1.5324 1.7032,-2.68271 0.6958,-1.50611 0.38571,-0.78655 0.94194,-2.15359 0,0 12.89764,-5.97867 12.89764,-5.97867 l 0,0 c -0.54375,1.45417 -0.24226,0.68766 -0.91462,2.2955 -2.86775,6.062 -12.21613,16.55619 -18.03231,11.31105 0.33903,-3.71401 3.57367,-6.48473 4.0874,-10.21678 0.032,-0.10902 1.22203,-4.1295 1.28252,-4.47957 0.13506,-0.78154 0.49779,-1.78786 -0.0308,-2.37918 -0.15778,-0.1765 -0.89743,0.0102 -0.69994,-0.12039 3.5365,-2.33772 7.24664,-4.40152 10.86996,-6.60228 -5.97612,3.99042 -8.67791,10.85534 -10.57471,17.52721 -0.81313,2.53639 -3.87127,11.06367 1.1105,11.18514 -28.48211,17.41226 -10.48639,7.0131 -8.71377,4.98838 2.90253,-3.31534 4.34819,-7.86568 5.2198,-12.06992 0.69397,-3.99235 1.83827,-11.14439 -2.66557,-13.37415 3.58902,-2.23589 7.25021,-4.35987 10.76704,-6.70766 0.53752,-0.35884 -1.2923,0.32099 -1.79976,0.72121 -3.26811,2.5775 -3.86435,7.62255 -4.3475,11.38209 -0.0542,6.57024 2.78627,12.65132 10.24583,12.37834 5.13177,-1.33228 8.10483,-2.41592 -5.8638,4.6355 -1.13242,0.57166 2.03027,-1.5324 2.93972,-2.41675 2.26144,-2.19902 2.98888,-3.38293 4.33459,-6.19726 0.48348,-1.0111 0.84446,-2.07635 1.26668,-3.11452 0,0 12.80263,-6.0126 12.80263,-6.0126 z" />
    <path
       style="fill:#000000;fill-opacity:1;fill-rule:nonzero;stroke:#000000;stroke-width:4.69999981;stroke-linecap:round;stroke-linejoin:round;stroke-miterlimit:4;stroke-opacity:1;stroke-dasharray:none;stroke-dashoffset:0"
       id="path2704"
       d="m 431.72873,204.65357 c 4.49678,-8.16286 10.65819,-15.43872 17.54269,-21.68427 8.27282,-5.26477 20.56916,-15.96935 31.61677,-13.30068 6.28728,3.9428 4.47187,11.82849 2.99145,17.86909 -3.94868,10.53903 -9.99726,20.13851 -16.30559,29.4024 -1.78762,3.00493 -10.83669,11.06313 -9.27394,14.85088 5.53295,0.27028 11.06559,-1.68349 16.42609,-2.90193 9.17737,-2.43581 18.21018,-5.32035 27.22227,-8.29993 5.67776,-1.52351 10.91624,-4.2159 16.54782,-5.88663 1.68347,-0.4522 0.99076,-0.17245 2.12443,-0.71394 0,0 -11.21043,8.77508 -11.21043,8.77508 l 0,0 c -1.19028,0.32931 -0.48373,0.13137 -2.11786,0.60015 -5.53269,1.75654 -10.76897,4.33825 -16.39902,5.80914 -9.02289,2.97736 -18.09125,5.80635 -27.29187,8.19055 -5.32038,1.24523 -12.63232,4.51777 -17.69119,1.38061 -2.57419,-5.97953 6.07246,-11.90719 8.8909,-16.23794 6.33758,-9.11098 12.30709,-18.59586 16.45668,-28.92849 1.30009,-4.92359 3.79621,-12.7741 -1.95663,-15.81835 -7.0018,-0.92328 -20.788,7.11664 -3.36158,-2.52242 1.30417,-0.72137 -2.48444,1.64697 -3.72667,2.47045 -6.97564,5.91605 -13.08015,13.16235 -17.60548,21.11944 0,0 -12.87884,5.82679 -12.87884,5.82679 z" />
    <path
       style="fill:#000000;fill-opacity:1;fill-rule:nonzero;stroke:#000000;stroke-width:4.69999981;stroke-linecap:round;stroke-linejoin:round;stroke-miterlimit:4;stroke-opacity:1;stroke-dasharray:none;stroke-dashoffset:0"
       id="path2706"
       d="m 716.67911,873.92403 c 7.82677,0.20188 15.85406,0.68063 23.23509,3.44434 4.77211,1.82633 8.08231,5.34415 8.5776,10.46884 -0.16581,4.60726 -2.45599,8.78327 -5.24377,12.3422 -1.36424,1.72617 -3.78435,3.5518 -1.65569,5.3696 2.9336,1.84091 5.90803,3.66099 8.77453,5.63088 2.48204,1.37254 3.69216,3.21021 4.29961,5.92024 -0.28917,5.26229 -5.0273,8.79105 -8.89954,11.68426 -10.01451,6.60745 -20.3338,12.75544 -31.73465,16.59232 0,0 11.05639,-8.60688 11.05639,-8.60688 l 0,0 c 1.30855,-0.46046 2.6319,-0.88085 3.92566,-1.38137 1.45141,-0.56151 5.50558,-2.79518 4.30637,-1.80334 -2.37392,1.9634 -5.29873,3.14531 -7.90837,4.78246 -2.40415,1.50822 9.20623,-5.38777 7.28526,-4.40649 3.7619,-2.67253 7.98179,-5.50976 9.43581,-10.15508 -0.43665,-2.42878 -1.52983,-3.76026 -3.70774,-5.00186 -2.92659,-2.00015 -5.99661,-3.77559 -8.92001,-5.78043 -2.58114,-2.51569 -1.64982,-4.84284 0.71124,-7.33791 2.93171,-3.0444 5.18459,-7.13564 5.69376,-11.35633 0.0189,-4.66522 -3.52724,-7.53561 -7.64927,-9.09332 -7.35807,-2.51956 -15.27774,-2.98739 -23.01296,-3.00725 0,0 11.43068,-8.30488 11.43068,-8.30488 z" />
    <path
       style="fill:#000000;fill-opacity:1;fill-rule:nonzero;stroke:#000000;stroke-width:4.69999981;stroke-linecap:round;stroke-linejoin:round;stroke-miterlimit:4;stroke-opacity:1;stroke-dasharray:none;stroke-dashoffset:0"
       id="path2708"
       d="m 89.150152,796.28867 c 5.515919,-6.40853 10.673264,-13.11217 15.716818,-19.89613 5.47389,-7.32706 11.09688,-14.54598 16.7653,-21.72429 5.85871,-7.68135 11.50731,-15.52091 17.15601,-23.35744 5.90308,-8.11742 11.58509,-16.39503 17.16512,-24.73724 5.80766,-9.72882 11.9526,-19.21354 18.44942,-28.49649 6.38534,-9.28734 12.49447,-18.76388 18.61204,-28.22936 6.48146,-9.10028 13.39996,-17.87595 21.18035,-25.89876 7.96707,-8.06109 15.61975,-16.41668 23.38968,-24.66248 8.26124,-8.24093 16.43697,-16.55718 24.59601,-24.89742 8.73613,-9.27485 17.33451,-18.67113 25.68301,-28.29577 10.18681,-11.03839 19.6539,-22.6789 28.94191,-34.4743 11.45534,-14.90766 22.05738,-30.44075 33.03372,-45.69933 11.74241,-16.25098 23.05849,-32.80232 34.29976,-49.40184 10.14963,-16.27498 20.37704,-32.49956 31.11207,-48.39703 7.99492,-12.24837 16.38359,-24.21793 24.95108,-36.07045 4.8137,-7.11222 9.67737,-14.18551 14.60977,-21.21403 4.42765,-6.87332 11.04332,-11.84031 19.29836,-14.00889 0.93591,-0.23561 1.87571,-0.27745 2.8252,-0.17854 0,0 -11.57512,8.3455 -11.57512,8.3455 l 0,0 c -0.83669,0.11554 -1.67011,0.25882 -2.46072,0.57227 -4.69256,2.12565 -3.1658,1.47654 10.05277,-6.10196 0.38158,-0.21877 -0.70276,0.53013 -1.0362,0.81697 -1.65595,1.42453 -3.12831,3.01292 -4.19476,4.93849 -4.92431,7.10565 -10.01513,14.09646 -14.78155,21.31795 -8.64754,11.84628 -17.09818,23.82322 -25.12815,36.09898 -10.81507,15.87245 -21.08143,32.104 -31.19335,48.43095 -11.23031,16.60381 -22.52661,33.16577 -34.25387,49.42452 -10.96814,15.24341 -21.56986,30.75174 -32.92334,45.71375 -9.23192,11.81263 -18.62975,23.48601 -28.81944,34.49473 -8.33262,9.64264 -16.91312,19.05313 -25.61707,28.36316 -8.18928,8.29248 -16.24063,16.71728 -24.5812,24.86442 -7.82348,8.19495 -15.38282,16.6436 -23.375,24.6839 -7.86734,7.88267 -14.70812,16.65294 -21.28098,25.632 -6.10498,9.49353 -12.27301,18.95134 -18.61135,28.29017 -6.5281,9.23962 -12.72045,18.67478 -18.42498,28.44692 -5.54386,8.37057 -11.24284,16.64309 -17.13079,24.77501 -5.60978,7.87055 -11.33384,15.66147 -17.10888,23.41131 -5.69519,7.14642 -11.26912,14.39264 -16.78378,21.67766 -4.96026,6.79913 -10.12493,13.45507 -15.55264,19.88676 0,0 -13.005228,5.55633 -13.005228,5.55633 z" />
    <path
       style="fill:#000000;fill-opacity:1;fill-rule:nonzero;stroke:#000000;stroke-width:4.69999981;stroke-linecap:round;stroke-linejoin:round;stroke-miterlimit:4;stroke-opacity:1;stroke-dasharray:none;stroke-dashoffset:0"
       id="path2710"
       d="m 629.24006,821.36361 c -6.25307,-2.13946 -12.70091,-3.43966 -19.23893,-4.2941 -5.26455,-0.59511 -10.57044,-0.57771 -15.86065,-0.60766 -7.16813,-0.003 -14.33627,0.003 -21.50439,0.0113 -8.97465,0.008 -17.94929,-0.002 -26.92393,-0.01 -11.3327,-0.45055 -22.59061,0.44227 -33.8752,1.31598 -13.19735,1.51833 -26.3348,3.47572 -39.51573,5.11715 -13.66548,1.76764 -27.15827,4.54522 -40.70534,7.01078 -13.61889,3.3372 -27.21505,6.34048 -41.15586,7.95727 -12.49887,1.99625 -25.08152,3.21641 -37.71605,3.86246 -11.76348,0.45521 -23.53925,0.46463 -35.30992,0.47984 -10.65713,0.56342 -21.14249,-0.71214 -31.58732,-2.65631 -9.48904,-1.86328 -19.13609,-2.51072 -28.77914,-2.88085 -9.50564,-0.268 -19.01659,-0.24695 -28.52512,-0.23479 -8.56767,0.0144 -17.13533,0.0298 -25.70301,0.046 -6.60122,0.46593 -13.01476,-0.30484 -19.50359,-1.36388 -5.76393,-0.78438 -11.5046,-1.14487 -17.20927,-2.30031 -6.13494,-1.23228 -12.36303,-1.65229 -18.60125,-1.89025 -6.19846,-0.0248 -12.29549,-0.0365 -18.41294,-1.06505 -6.88952,-0.81798 -13.70995,-1.6955 -20.40892,-3.54768 -5.98533,-1.48865 -10.47967,-5.40137 -14.964257,-9.38371 0,0 11.892677,-7.38687 11.892677,-7.38687 l 0,0 c 4.37034,3.86404 8.79375,7.48907 14.64259,8.81494 6.7024,1.71149 13.5164,2.53477 20.36864,3.40349 6.07554,0.93211 12.16772,0.7766 18.30122,0.94051 6.29161,0.28123 12.56287,0.7852 18.74525,2.05324 5.69126,1.09459 11.45758,1.34107 17.17723,2.2647 6.42176,1.04051 12.80604,1.54983 19.32432,1.21197 8.55333,0.002 17.10667,-0.008 25.66001,-0.014 9.51995,0.005 19.04271,-0.0281 28.55893,0.28215 9.68102,0.42717 19.35761,1.14922 28.87912,3.05254 10.38493,1.90832 20.82571,2.9709 31.40583,2.47047 11.75107,-0.0137 23.50763,-0.005 35.2498,-0.52457 12.59736,-0.68498 25.13441,-1.9734 37.60697,-3.8951 13.91066,-1.69669 27.46607,-4.8457 41.09874,-8.02383 13.55641,-2.51433 27.08464,-5.20341 40.76849,-6.95983 13.1986,-1.66944 26.35761,-3.63383 39.58417,-5.0867 11.32404,-0.88878 22.62819,-1.66544 33.9988,-1.27249 8.99386,-0.009 17.98772,-0.0211 26.98157,-0.0343 7.186,-0.0103 14.37196,-0.0458 21.55797,-0.0397 5.33261,0.0198 10.68369,0.0445 15.97915,0.75401 6.59403,0.97082 13.08161,2.40389 19.42377,4.48163 0,0 -11.70443,7.94134 -11.70443,7.94134 z" />
    <path
       style="fill:#000000;fill-opacity:1;fill-rule:nonzero;stroke:#000000;stroke-width:4.69999981;stroke-linecap:round;stroke-linejoin:round;stroke-miterlimit:4;stroke-opacity:1;stroke-dasharray:none;stroke-dashoffset:0"
       id="path2712"
       d="m 472.59256,305.28676 c 2.325,8.18817 4.62787,16.36208 6.08264,24.75489 1.55034,11.46403 3.04697,22.93187 4.6261,34.39241 1.9555,13.45542 3.39368,26.97163 5.07368,40.46031 1.45666,13.62786 3.42246,27.17524 5.69398,40.68862 2.69388,12.8751 4.58902,25.89359 7.26185,38.77274 2.40275,11.77505 5.14999,23.4839 8.12429,35.12777 2.74094,10.39038 5.49027,20.78489 8.57158,31.08128 2.65777,9.43924 5.43074,18.85777 8.58177,28.14595 2.74877,8.42416 6.15403,16.62422 9.77962,24.7059 3.74169,8.68736 7.35996,17.44173 10.54511,26.34922 3.44949,9.48908 6.69922,19.04144 10.36839,28.45178 2.56255,7.22105 5.24617,14.38203 8.13694,21.47761 2.93428,6.26805 5.87537,12.51983 8.27236,19.01693 2.83757,8.10768 6.19582,16.02579 9.03896,24.13182 2.45544,6.56578 4.933,13.14312 6.98931,19.84737 1.25737,5.15809 3.68106,9.89918 5.47577,14.86827 1.25123,4.41798 2.89709,8.75617 5.16545,12.75492 2.67927,3.50283 5.3613,6.97573 7.9206,10.57607 3.09921,4.05259 6.28801,8.02137 9.38025,12.08093 3.20262,3.85299 7.02258,7.04662 10.78988,10.31964 3.15473,3.45214 6.40448,6.77538 9.90721,9.87892 1.17385,0.90974 2.53302,2.37462 4.07032,2.71456 0.8119,0.17953 3.07981,-1.23514 2.35017,-0.83634 -3.72571,2.03639 -7.40813,4.15099 -11.11219,6.22648 0,0 13.21521,-5.19478 13.21521,-5.19478 l 0,0 c -9.40542,5.46864 -13.04212,11.56799 -20.53843,4.54575 -3.46792,-3.12637 -6.7044,-6.45113 -9.88342,-9.868 -3.84604,-3.32274 -7.68203,-6.6376 -10.92701,-10.57371 -3.11674,-4.06315 -6.30329,-8.06041 -9.43541,-12.10961 -2.56832,-3.65446 -5.3296,-7.12965 -8.00878,-10.69378 -2.27613,-4.08596 -3.99221,-8.48012 -5.23461,-12.98774 -1.7826,-5.00035 -4.29174,-9.73926 -5.48819,-14.94237 -2.00635,-6.70374 -4.48164,-13.2692 -6.90009,-19.83218 -2.79078,-8.11415 -6.19611,-16.00447 -9.04235,-24.09835 -2.39924,-6.47927 -5.37451,-12.69925 -8.28464,-18.96032 -2.86839,-7.11766 -5.55642,-14.28801 -8.05673,-21.54457 -3.66213,-9.42677 -6.92697,-18.98882 -10.37479,-28.49221 -3.1757,-8.86991 -6.82546,-17.57064 -10.51742,-26.2368 -3.67306,-8.10788 -7.10152,-16.35262 -9.84567,-24.82366 -3.15538,-9.3065 -5.91642,-18.74832 -8.57399,-28.20694 -3.09971,-10.31325 -5.83481,-20.73677 -8.55618,-31.15402 -2.99569,-11.66167 -5.73184,-23.39761 -8.13202,-35.19583 -2.68598,-12.89787 -4.54076,-25.94416 -7.25854,-38.83604 -2.25418,-13.53373 -4.29472,-27.08976 -5.71824,-40.74008 -1.70051,-13.47708 -3.09023,-26.9913 -5.08701,-40.43208 -1.60633,-11.43028 -3.1469,-22.86568 -4.70009,-34.30231 -1.42407,-8.31495 -3.67811,-16.42033 -6.13513,-24.48499 0,0 12.38949,-6.82343 12.38949,-6.82343 z" />
    <path
       style="fill:#000000;fill-opacity:1;fill-rule:nonzero;stroke:#000000;stroke-width:4.69999981;stroke-linecap:round;stroke-linejoin:round;stroke-miterlimit:4;stroke-opacity:1;stroke-dasharray:none;stroke-dashoffset:0"
       id="path2714"
       d="m 39.102954,817.0821 c -7.550761,9.35422 -9.847595,21.31216 -10.9719,32.96765 -0.958165,16.7125 1.614639,33.31764 4.8636,49.65272 3.11466,13.6663 6.69224,27.22562 10.876746,40.60297 0,0 -12.149824,6.65201 -12.149824,6.65201 l 0,0 c -4.030751,-13.48167 -7.617216,-27.09355 -10.795243,-40.8017 -3.326207,-16.42953 -5.979037,-33.11877 -5.159394,-49.9442 0.974397,-11.85549 3.260733,-23.82056 10.283901,-33.72308 0,0 13.052114,-5.40637 13.052114,-5.40637 z" />
    <path
       style="fill:#000000;fill-opacity:1;fill-rule:nonzero;stroke:#000000;stroke-width:4.69999981;stroke-linecap:round;stroke-linejoin:round;stroke-miterlimit:4;stroke-opacity:1;stroke-dasharray:none;stroke-dashoffset:0"
       id="path2737"
       d="m 931.83462,596.09088 c -7.94834,-0.78065 -15.73564,-2.544 -23.58524,-3.95761 -5.24308,-0.73075 -10.22169,-2.59016 -15.4368,-3.48722 -4.62909,-0.63086 -9.31089,-0.67948 -13.97474,-0.72379 -2.13423,0.0409 -7.56042,0.78619 -4.45103,-3.06247 4.38096,-3.06812 8.67077,-6.18824 12.52657,-9.91596 3.97645,-3.70811 7.92126,-7.42294 11.53014,-11.49359 1.92626,-2.29391 3.41236,-4.91553 4.85448,-7.53131 2.62797,-3.84052 5.07515,-7.80913 7.66267,-11.67874 6.74277,-10.63132 5.26168,-8.25011 19.75956,-14.78232 2.44717,6.2245 0.44339,13.58928 -0.60965,19.97938 -1.68367,11.08637 -4.49874,21.92354 -7.61467,32.67768 -2.50121,9.00993 -6.71186,17.37908 -10.15136,26.03328 -1.33492,3.98585 -3.07199,7.82262 -5.03816,11.53338 -15.45678,6.47818 -12.52805,6.37694 -10.27297,-2.11681 0,0 12.69445,-6.06699 12.69445,-6.06699 l 0,0 c -0.42788,1.68505 -8.77878,34.06706 -15.40363,13.9886 2.1177,-3.6305 3.94303,-7.44784 5.27857,-11.43673 3.38255,-8.67798 7.77898,-16.96685 10.31699,-25.97026 3.14072,-10.6918 6.00801,-21.46104 7.63791,-32.50512 0.9942,-5.89727 2.53064,-12.44331 1.24885,-18.35648 19.0674,-11.57924 9.9332,-7.43413 5.09347,1.39139 -2.69865,3.72885 -4.80787,7.86002 -7.6518,11.49566 -1.42443,2.7261 -2.92958,5.37224 -4.78526,7.82699 -3.45316,4.25317 -7.54325,7.9023 -11.55342,11.62638 -3.66228,3.81002 -7.77804,7.2556 -12.39389,9.86499 -1.02595,0.8012 -1.99939,0.28589 -1.8142,0.15752 1.01581,-0.70416 3.53043,0.69802 4.58343,0.0456 4.71382,0.0676 9.44981,0.17123 14.11383,0.92026 5.16664,1.01397 10.14876,2.80553 15.37563,3.53108 7.83814,1.48742 15.64394,3.18096 23.60634,3.87229 0,0 -11.54607,8.14093 -11.54607,8.14093 z" />
  </g>
</svg>
