<?xml version="1.0" encoding="UTF-8" standalone="no"?>
<!-- Created with Inkscape (http://www.inkscape.org/) -->
<svg
   xmlns:dc="http://purl.org/dc/elements/1.1/"
   xmlns:cc="http://creativecommons.org/ns#"
   xmlns:rdf="http://www.w3.org/1999/02/22-rdf-syntax-ns#"
   xmlns:svg="http://www.w3.org/2000/svg"
   xmlns="http://www.w3.org/2000/svg"
   xmlns:sodipodi="http://sodipodi.sourceforge.net/DTD/sodipodi-0.dtd"
   xmlns:inkscape="http://www.inkscape.org/namespaces/inkscape"
   width="1304.2084"
   height="1024.6035"
   id="svg2831"
   sodipodi:version="0.32"
   inkscape:version="0.46+devel"
   version="1.0"
   sodipodi:docname="c25d2.svg"
   inkscape:output_extension="org.inkscape.output.svg.inkscape">
  <defs
     id="defs2833">
    <inkscape:perspective
       sodipodi:type="inkscape:persp3d"
       inkscape:vp_x="0 : 526.18109 : 1"
       inkscape:vp_y="0 : 1000 : 0"
       inkscape:vp_z="744.09448 : 526.18109 : 1"
       inkscape:persp3d-origin="372.04724 : 350.78739 : 1"
       id="perspective2839" />
    <inkscape:perspective
       id="perspective2817"
       inkscape:persp3d-origin="0.5 : 0.33333333 : 1"
       inkscape:vp_z="1 : 0.5 : 1"
       inkscape:vp_y="0 : 1000 : 0"
       inkscape:vp_x="0 : 0.5 : 1"
       sodipodi:type="inkscape:persp3d" />
  </defs>
  <sodipodi:namedview
     id="base"
     pagecolor="#ffffff"
     bordercolor="#666666"
     borderopacity="1.0"
     inkscape:pageopacity="0.0"
     inkscape:pageshadow="2"
     inkscape:zoom="0.35"
     inkscape:cx="672.66687"
     inkscape:cy="530.31742"
     inkscape:document-units="px"
     inkscape:current-layer="layer1"
     showgrid="false"
     inkscape:window-width="1280"
     inkscape:window-height="712"
     inkscape:window-x="-5"
     inkscape:window-y="-3" />
  <metadata
     id="metadata2836">
    <rdf:RDF>
      <cc:Work
         rdf:about="">
        <dc:format>image/svg+xml</dc:format>
        <dc:type
           rdf:resource="http://purl.org/dc/dcmitype/StillImage" />
        <dc:title></dc:title>
      </cc:Work>
    </rdf:RDF>
  </metadata>
  <g
     inkscape:label="Layer 1"
     inkscape:groupmode="layer"
     id="layer1"
     transform="translate(297.66687,-68.696545)">
    <path
       style="fill:#000000;fill-opacity:1;fill-rule:nonzero;stroke:#000000;stroke-width:4.69999981;stroke-linecap:round;stroke-linejoin:round;stroke-miterlimit:4;stroke-opacity:1;stroke-dasharray:none;stroke-dashoffset:0"
       id="path2718"
       d="m 245.80034,379.64453 c -7.721,0.6367 -15.5167,2.58704 -23.1216,0.48837 -5.2374,-1.76288 -8.1047,-5.80382 -8.8223,-11.13199 1.5708,-16.16825 24.0518,-27.5119 38.1605,-27.43859 5.8154,2.07238 10.3812,6.65474 14.4414,11.15132 3.925,4.26473 6.814,9.22197 8.935,14.58167 5.7527,16.01433 -2.9842,7.69373 -32.1307,21.95624 -2.5686,-2.27123 -4.6706,-4.90111 -6.3167,-7.89516 -1.8537,-3.7864 -1.4579,-7.14343 0.5276,-10.73781 8.759,-12.27756 27.4691,-30.26031 40.3956,-19.54338 2.7168,3.22017 3.5838,7.32281 4.0764,11.39475 1.257,15.8685 -21.2634,24.62274 -35.773,25.17643 -5.1903,0.55834 -10.0026,-1.11654 -14.7542,-2.99397 -5.2486,-2.90774 -6.7977,-7.93687 -6.7214,-13.59948 0.6934,-6.49152 4.2358,-11.70102 9.1108,-15.8171 -4.2913,8.77174 28.1833,-26.56857 40.6954,-18.3908 1.4383,0.94003 3.0545,3.08551 4.1231,4.37269 4.6211,6.39553 5.1122,13.95253 4.3846,21.54032 -4.2421,18.15401 -26.4197,30.50219 -43.5991,31.97904 -9.1558,0.46429 -14.7762,-3.1463 -20.6275,-9.76924 -5.1519,-7.2985 -5.4237,-14.84714 -2.5177,-23.03354 9.0924,-15.87882 27.7829,-28.69236 46.3676,-28.63158 6.4822,1.0842 9.9334,5.71856 12.1046,11.51494 1.3635,6.26187 -0.8397,12.02194 -4.5468,16.98917 -9.6131,8.69747 -31.2861,28.72543 -46.5949,19.31677 -5.2101,-4.74162 -4.5731,-11.3578 -2.8981,-17.58645 8.2206,-17.01205 33.346,-25.01924 46.9748,-32.39816 7.6109,-1.21966 11.9372,3.98929 14.6711,10.3813 2.3151,8.46758 0.249,16.17543 -4.2716,23.41491 -12.6517,14.61978 -31.4614,27.58288 -51.1685,27.11305 -7.8221,-1.27856 -11.5424,-5.29525 -13.7977,-12.64002 -1.3301,-7.09995 1.7987,-12.33187 6.8475,-16.94953 8.6855,-5.14973 32.2261,-28.5125 46.418,-15.78695 1.4526,1.72739 2.3847,3.73657 3.2714,5.78329 0,0 -32.1822,17.97746 -32.1822,17.97746 l 0,0 c -0.5484,-1.50756 -1.0893,-2.99582 -2.2304,-4.1797 -2.2864,-1.4688 -4.861,-1.90528 -7.55,-1.22366 -0.8604,0.21812 -3.2669,1.35265 -2.5106,0.88786 9.5039,-5.84114 19.2001,-11.36362 28.8002,-17.04542 -4.7597,3.0665 -9.0994,6.86096 -8.7101,13.01507 1.5793,6.16849 4.7571,8.40221 11.1725,8.58033 2.8142,-0.23921 3.6756,-0.13978 6.3932,-1.07714 1.1482,-0.39605 4.3788,-2.0844 3.3423,-1.45121 -51.9199,31.71802 -30.4909,19.87272 -21.4884,11.54316 5.1025,-6.67043 7.2049,-11.50854 5.747,-20.06255 -2.2687,-5.50022 -5.7254,-7.89066 -11.6969,-5.87088 9.5059,-5.60187 19.0593,-11.124 28.5177,-16.80561 0.9848,-0.59155 -2.0948,0.95306 -3.088,1.53025 -4.1064,2.38622 -7.6971,5.79544 -10.3626,9.70267 -1.6144,4.03853 -3.6372,9.80477 0.5058,12.93813 2.1749,0.73773 4.1265,0.92854 6.4091,0.31478 0.7917,-0.21289 2.9812,-1.34783 2.2793,-0.92423 -14.2495,8.59929 -39.8723,23.28298 -26.6152,15.67997 3.934,-3.43285 6.584,-8.02237 6.2587,-13.3955 -1.5488,-4.60335 -4.1937,-7.83481 -9.4792,-7.49571 -11.7941,2.12855 -31.3684,16.66227 23.4161,-15.27214 1.2155,-0.7085 -2.3048,0.84777 -5.0684,4.04078 -0.7642,0.88306 -1.3651,1.89524 -2.0477,2.84286 -3.5164,6.62531 -3.9632,13.00543 0.5618,19.34431 5.0837,5.50573 10.934,8.17022 18.5433,6.55152 13.0636,-4.84493 4.6664,-1.92264 -25.6292,15.85454 -0.831,0.48763 1.6627,-0.99149 2.3974,-1.61481 2.477,-2.10135 3.9324,-4.91098 4.951,-7.94123 1.1194,-6.51528 1.0812,-13.18241 -3.0507,-18.70605 -0.8905,-0.93039 -1.6574,-2.08543 -2.9936,-2.43725 -1.8856,-0.49647 -3.8735,0.24491 -5.5137,1.07441 9.7312,-5.70391 19.4624,-11.40783 29.1936,-17.11174 -4.9605,3.11973 -8.9902,6.91786 -10.421,12.84448 -0.4322,4.24122 -0.082,7.80077 4.3681,9.5909 4.4478,1.55705 9.0107,2.47091 13.6663,1.19538 12.2528,-5.38676 -0.35,0.0894 -28.9751,17.14729 -1.2126,0.72257 7.1805,-2.49978 2.7334,-2.97465 -0.2186,-2.86771 -0.364,-6.29568 -2.4463,-8.47908 -1.8991,-0.54855 -2.8225,0.42008 -2.738,0.37129 10.0718,-5.81443 20.1024,-11.70011 30.1536,-17.55017 -2.3796,0.73506 -1.3403,0.0789 -3.059,2.05896 -1.98,2.26047 -3.6417,4.04465 -2.2467,7.08996 1.1977,2.30595 2.8501,4.53861 5.1208,5.87534 -10.4999,5.86022 -21.3342,11.15793 -31.4998,17.58064 -0.5544,0.35023 0.7204,1.10264 1.1632,1.58627 0.1979,0.21624 -0.031,-0.58699 -0.083,-0.87557 -0.1502,-0.83952 -0.2536,-1.14059 -0.4896,-2.02949 -1.6347,-5.05084 -4.2836,-9.59458 -7.9587,-13.46184 -3.1105,-3.30968 -7.5051,-8.55208 -12.5064,-7.83174 -11.561,6.44089 0.6938,-0.36982 28.1044,-16.70678 0.5265,-0.31377 -1.1285,0.50259 -1.6214,0.8668 -1.4298,1.05646 -1.7507,2.61853 -2.6308,4.06048 -0.1513,4.10574 2.2808,6.23308 6.2142,7.14693 7.4769,1.0315 15.0246,-0.70109 22.4429,-1.58891 0,0 -29.4071,22.00973 -29.4071,22.00973 z" />
    <path
       style="fill:#000000;fill-opacity:1;fill-rule:nonzero;stroke:#000000;stroke-width:4.69999981;stroke-linecap:round;stroke-linejoin:round;stroke-miterlimit:4;stroke-opacity:1;stroke-dasharray:none;stroke-dashoffset:0"
       id="path2720"
       d="m 785.38214,405.40338 c -6.2484,-4.86457 -11.1302,-10.92485 -13.4375,-18.52713 -0.8002,-6.60565 1.6754,-13.27721 7.7017,-16.73989 11.9479,-6.86515 24.1524,-13.27363 36.2286,-19.91044 9.047,-3.25149 18.8906,-2.53355 25.2161,5.54906 1.1832,1.5119 1.9288,3.32017 2.8931,4.98025 3.3198,9.2135 1.664,18.64425 -4.9446,25.80803 -13.3545,10.01555 -30.0234,26.26975 -47.1836,19.20301 -5.8207,-3.48547 -8.3291,-9.02875 -9.3922,-15.49119 -0.951,-10.09957 3.4313,-15.40497 11.1187,-21.33624 12.0746,-6.54631 23.7371,-13.91758 36.2237,-19.63892 1.6869,-0.77294 3.748,0.0346 5.544,0.50102 5.3364,1.38598 9.1544,5.76414 10.3166,11.088 0.4051,1.85599 0.1951,3.79439 0.2926,5.69159 -1.2209,10.55137 -6.296,19.17365 -14.7052,25.47069 -23.6475,13.75215 -32.6232,26.37611 -55.0251,16.31873 -7.4597,-4.02604 -11.7655,-10.45107 -13.4618,-18.60716 -1.2537,-8.6898 2.0283,-16.13334 7.1095,-22.95377 1.3137,-1.22313 2.5341,-2.55482 3.941,-3.6694 1.5057,-1.19282 3.0975,-2.28911 4.7709,-3.23225 10.6701,-6.01353 32.1546,-26.35013 49.4514,-19.10045 1.9948,0.83606 3.6731,2.28483 5.5096,3.42724 1.3811,1.69202 3.0613,3.17879 4.1434,5.07606 5.7798,10.1347 4.2289,22.51316 0.8807,33.03413 -2.9237,6.33912 -6.797,13.15666 -13.0332,16.85257 -34.3337,20.34814 -22.1166,17.54691 -39.3376,20.83519 -8.6998,0.11918 -15.1836,-4.51796 -20.0913,-11.29533 -4.4357,-8.30232 -5.0311,-14.77782 -0.6515,-23.13856 13.292,-16.28942 33.9945,-25.98885 54.4105,-30.1883 5.1549,1.3128 2.7164,0.49412 7.337,2.39127 0,0 -30.3001,20.49306 -30.3001,20.49306 l 0,0 c -3.9222,-1.09601 -1.8932,-0.81531 -6.0939,-0.78911 -2.8026,0.66841 -5.007,1.11591 -7.756,2.13083 -1.4985,0.55323 -5.762,2.73123 -4.4026,1.89245 8.9086,-5.49674 18.0628,-10.58498 27.0872,-15.88929 1.3328,-0.78336 -2.7765,1.3973 -4.0121,2.32638 -1.0885,0.81852 -1.9361,1.91608 -2.9041,2.87411 -5.1548,7.21608 -5.3563,11.23755 -1.2955,19.29943 4.2927,5.77999 10.2047,9.16935 17.5849,7.69879 13.5082,-4.86399 5.0279,-2.06981 -23.3666,14.66071 -1.384,0.8155 2.8446,-1.51992 4.1305,-2.48279 4.3192,-3.23421 7.5196,-7.65809 9.9621,-12.40699 3.7222,-8.99414 6.1036,-20.61949 0.8764,-29.6874 -0.8782,-1.52342 -2.3047,-2.65636 -3.4571,-3.98453 -4.426,-2.23264 -5.1885,-3.32211 -10.424,-3.04027 -1.9865,0.10694 -7.4534,2.39474 -5.8396,1.23142 7.9988,-5.76619 16.9289,-10.11703 25.3292,-15.28097 1.5882,-0.97632 -3.3196,1.70998 -4.8893,2.71579 -1.4135,0.90576 -2.6939,2.00423 -4.0409,3.00634 -5.2434,5.59482 -9.0497,12.11171 -8.3815,20.04863 0.9758,7.14345 4.9739,12.36618 11.5178,15.49119 3.0642,1.13303 4.0873,1.71118 7.3524,2.12461 14.0783,1.78264 34.816,-15.08395 -16.5813,15.05157 9.1942,-5.10699 14.0439,-11.87035 16.3381,-22.2273 0.089,-1.49879 0.4537,-3.00674 0.266,-4.49635 -2.676,-21.22916 -49.565,14.80853 13.3761,-22.87512 -6.8482,4.20591 -12.9319,8.76662 -12.4143,17.56502 0.3949,5.13762 2.3312,9.75703 7.3593,11.86516 2.3577,0.51204 4.4364,0.80417 6.8403,0.25487 0.8442,-0.19292 3.213,-1.24602 2.4732,-0.79578 -25.5573,15.55375 -39.6171,21.58282 -26.4028,15.80376 7.7456,-5.61564 9.9379,-12.09475 7.4485,-21.49159 -0.7762,-1.34477 -1.3368,-2.83964 -2.3285,-4.03431 -5.9075,-7.11592 -15.3587,-5.15468 -22.8272,-2.22131 8.6889,-5.2476 17.4315,-10.40729 26.0666,-15.7428 0.7667,-0.47369 -4.0481,1.34227 -6.7061,4.56157 -1.8283,2.21443 -2.6028,5.17284 -2.6897,7.96583 1.5504,6.93847 6.4024,12.27177 12.2061,16.18437 0,0 -30.927,19.80221 -30.927,19.80221 z" />
    <path
       style="fill:#000000;fill-opacity:1;fill-rule:nonzero;stroke:#000000;stroke-width:4.69999981;stroke-linecap:round;stroke-linejoin:round;stroke-miterlimit:4;stroke-opacity:1;stroke-dasharray:none;stroke-dashoffset:0"
       id="path2722"
       d="m 754.89234,831.23397 c -1.0049,-9.72802 -1.0868,-19.58158 2.3414,-28.82479 1.953,-3.4179 4.157,-7.21413 7.736,-9.22636 5.8425,-3.28489 25.5843,-21.44204 40.0168,-18.83224 1.9695,0.35614 3.8286,1.16824 5.7429,1.75237 14.6485,7.33466 20.1654,20.58937 22.2462,36.04005 0.05,12.83312 -5.9993,23.38952 -14.9127,32.15231 -16.8016,12.04233 -36.131,28.17744 -57.9345,24.73265 -10.9811,-2.91567 -15.3067,-7.66713 -18.2431,-18.47043 -1.8631,-12.42726 4.0945,-22.92 11.4781,-32.34614 16.9838,-17.34046 39.583,-31.51493 64.0667,-33.44873 15.6489,-0.67791 20.151,2.96117 25.1146,17.58698 2.9302,13.58519 -1.7835,23.82773 -9.7158,34.50275 -13.3893,13.0743 -30.2251,25.3402 -48.7907,28.94706 -3.0556,0.59365 -6.0552,0.49341 -9.1396,0.52615 -10.0409,-0.7315 -16.622,-6.95967 -21.6832,-15.0824 -4.4992,-10.12798 -3.8328,-18.7949 0.6379,-28.69662 2.544,-4.01521 5.3955,-8.28976 9.6045,-10.78739 17.9585,-10.65673 26.4894,-20.31597 44.0531,-21.48378 11.0582,1.34944 16.5171,6.40513 20.6265,16.38228 2.4731,8.8562 -0.5039,16.81191 -6.1915,23.59587 -15.3162,13.26894 -33.3889,26.89245 -54.1056,27.22007 -7.812,-0.75437 -11.8964,-5.71598 -13.7035,-12.95708 -0.5318,-8.83117 3.9476,-16.25193 9.4874,-22.71764 13.1325,-11.66327 5.9912,-5.737 38.8348,-23.26496 0.4666,-0.24905 9.1141,-2.44634 9.8658,-2.44093 3.6428,0.0262 6.3022,1.74341 9.4138,3.26276 8.7412,6.10165 9.1787,13.02579 4.7205,22.07487 -2.3086,3.46794 -5.1592,6.82706 -8.8026,8.9797 -11.6831,6.90281 -26.3224,19.95497 -41.8866,21.47107 -6.2074,0.39274 -11.5569,-2.28208 -15.0768,-7.30281 -2.0906,-4.9636 -0.6038,-9.63932 3.2429,-13.14565 3.3305,-0.0709 29.8494,-26.94737 42.8636,-17.3169 3.1164,2.59262 3.6319,6.35434 2.7717,10.09667 -7.7169,12.01423 -26.2499,17.21189 -36.3161,22.71927 -1.2407,0.67879 -2.463,0.18532 -3.6901,-0.0681 -2.5712,-1.41623 -1.3541,-0.69948 -3.6602,-2.13512 0,0 30.8382,-20.1803 30.8382,-20.1803 l 0,0 c 1.7314,0.72458 0.8525,0.54569 2.6248,0.59275 11.2414,-4.01587 30.7543,-18.20719 -27.3737,16.24443 -0.9083,0.53834 2.1067,-0.56364 2.9121,-1.24648 0.3504,-0.29713 0.5711,-0.71988 0.8566,-1.07982 2.1515,-0.93973 2.1564,-3.6502 0.118,-4.8307 -10.3732,-2.8873 -49.3551,27.02652 22.3491,-16.06692 -3.4,1.23341 -6.6273,3.67356 -5.8742,7.71779 3.0084,4.05362 7.8139,4.83828 12.5989,3.98202 12.1183,-3.39842 28.8732,-15.40784 -21.2136,13.86261 -4.0753,2.38156 13.1391,-7.6622 9.4224,-7.46048 4.5212,-6.71894 6.3168,-11.83529 -1.702,-16.72133 -4.741,-1.67771 -7.6835,-1.76249 -12.5541,-0.17141 -1.633,0.53344 -6.2608,2.76404 -4.8165,1.83386 62.6349,-40.33885 30.3979,-18.45027 23.097,-13.46877 -5.3888,5.42288 -10.1702,11.55555 -10.7601,19.49074 0.9022,6.05011 4.7065,8.79372 10.825,8.61945 3.1606,-0.32191 4.1985,-0.26347 7.2831,-1.26169 1.3293,-0.43018 5.0769,-2.29749 3.8907,-1.55921 -49.4855,30.79986 -30.4185,18.59718 -20.1082,11.28808 6.1566,-5.86521 9.4954,-11.01286 7.9824,-19.88057 -3.3718,-8.77195 -8.2091,-12.54609 -17.931,-12.39514 -13.4579,2.74031 -28.0191,14.05518 18.9196,-13.60343 1.3032,-0.76792 -2.6839,1.42157 -3.8969,2.32531 -2.9584,2.20412 -4.1223,3.98965 -6.4411,6.82428 -5.0304,8.94649 -6.2105,15.55211 -2.282,25.33488 4.8951,7.65612 10.0486,11.93388 19.5954,11.86979 3.4894,-0.28338 5.015,-0.22673 8.4391,-1.26505 1.5456,-0.46871 5.8823,-2.61506 4.5183,-1.75006 -8.6709,5.49882 -17.6721,10.45869 -26.5051,15.6933 -1.5502,0.91869 3.1932,-1.69447 4.6569,-2.74552 1.5144,-1.08748 2.8283,-2.42997 4.2425,-3.64495 7.8417,-9.43045 13.5181,-18.49207 11.253,-31.29367 -4.4073,-13.78515 -8.491,-14.23384 -22.4056,-13.4636 -5.4075,0.82701 -6.4417,0.73357 -11.6406,2.53733 -2.0454,0.70965 -7.8346,3.62199 -6.0169,2.44587 48.2261,-31.20426 24.869,-15.63764 15.7454,-7.19946 -7.2469,8.22891 -13.7405,17.62541 -12.6924,29.13341 2.3291,9.63565 6.1609,12.89393 15.9722,14.69238 4.4527,0.2286 8.2805,-0.066 12.5727,-1.44376 1.4554,-0.46716 5.5723,-2.46055 4.2819,-1.64117 -7.2391,4.59676 -38.8449,23.1454 -22.1369,13.10584 9.1812,-7.36727 15.5762,-17.11055 16.5175,-29.09854 -1.2342,-14.19002 -5.9831,-26.51344 -20.0852,-32.15828 -1.7653,-0.27307 -3.5099,-0.7871 -5.2958,-0.81922 -1.477,-0.0266 -5.6023,1.4812 -4.3844,0.64514 8.867,-6.08734 18.4828,-11.00587 27.6559,-16.62137 1.0704,-0.65526 -2.3075,1.02406 -3.3408,1.73644 -2.495,1.72018 -3.4173,3.28701 -5.2635,5.65011 -0.6649,1.18942 -1.5079,2.29551 -1.9947,3.56825 -2.7807,7.27056 -1.7725,15.82144 -0.9989,23.32741 0,0 -32.4671,17.05464 -32.4671,17.05464 z" />
    <path
       style="fill:#000000;fill-opacity:1;fill-rule:nonzero;stroke:#000000;stroke-width:4.69999981;stroke-linecap:round;stroke-linejoin:round;stroke-miterlimit:4;stroke-opacity:1;stroke-dasharray:none;stroke-dashoffset:0"
       id="path2724"
       d="m 171.09644,848.26053 c -8.0974,-6.26397 -13.1548,-14.51695 -15.6859,-24.33004 -1.6792,-11.95928 3.1576,-19.25029 11.5857,-27.05648 25.3943,-19.73501 41.7879,-26.83448 70.2537,-29.745 14.8544,-0.57688 26.445,1.49406 38.7211,10.06817 8.6181,7.29243 12.2093,16.84565 12.3039,27.86248 -3.0897,24.02545 -27.3005,29.4949 -46.6601,40.61351 -11.8837,4.34068 -24.3868,4.16585 -36.7725,2.83033 -11.8839,-1.8237 -23.4559,-5.53917 -33.0922,-12.84636 -5.8201,-6.46143 -8.4115,-11.56786 -3.663,-19.49377 15.1106,-16.42517 35.1271,-24.48326 56.2032,-26.57376 10.6046,-0.99433 21.1782,-0.61523 31.6519,1.25175 7.4203,2.19986 15.0608,4.7434 17.4722,12.7766 9e-4,5.5427 -3.3928,10.9477 -8.1694,13.82522 -11.4426,6.89324 -23.0803,13.45746 -34.6204,20.18619 -9.0543,3.55211 -16.8041,3.99976 -26.0755,1.27917 -9.4399,-3.34627 -14.1229,-8.96969 -16.7883,-18.41886 -1.7257,-9.92448 1.9728,-18.41739 8.2968,-25.82825 14.8686,-12.35317 32.8351,-26.26185 52.9517,-24.67553 6.3046,1.43206 8.8523,6.50224 9.514,12.47175 0.3705,7.41192 -3.9523,12.11986 -9.3623,16.48589 -16.3129,12.40399 -32.9168,22.3415 -52.7035,25.37674 -6.6375,0.0604 -9.8005,-4.36312 -10.1732,-10.5167 3.4067,-18.0176 32.0703,-27.01438 42.5567,-33.11415 6.4436,-2.72356 12.8975,-2.79425 19.1304,0.33587 6.0749,5.04224 7.0938,11.91091 6.4898,19.36102 -1.322,8.35722 -6.4496,14.07801 -13.2562,18.59081 -17.7376,10.05881 -33.5529,27.45124 -53.4838,17.56655 -5.9689,-4.78598 -8.6748,-11.42823 -8.3038,-18.93949 0.9617,-4.43657 3.0693,-9.23867 7.1838,-11.69306 33.0413,-19.70974 22.0784,-16.24919 38.3283,-20.90126 7.2333,-2.00653 14.3424,-1.30544 21.3181,1.13353 5.7415,3.09632 6.7874,8.34031 5.0508,14.20717 -2.446,4.83723 -6.3345,8.66443 -11.0144,11.37818 -34.8723,20.2211 -22.5416,15.81458 -39.5704,21.45758 -9.5378,1.96983 -18.3575,0.51618 -26.7414,-4.26127 -7.3625,-4.91828 -7.3575,-12.12974 -4.0783,-19.5745 2.1376,-3.36098 4.9716,-6.1254 8.4272,-8.13334 16.4195,-9.54094 26.4228,-19.58973 43.2326,-21.63183 7.7452,-0.66262 15.0169,1.41635 21.3477,5.80715 5.7183,3.38906 8.4655,8.06052 8.4011,14.62873 -0.9622,5.14837 -3.9846,10.04734 -8.5879,12.77846 -11.3701,6.74591 -22.8974,13.22328 -34.3461,19.83491 -7.0237,2.9755 -14.3955,3.25317 -21.7363,1.53324 -6.2116,-2.13216 -11.3473,-6.18179 -12.214,-12.8949 0.6581,-4.96558 3.6145,-9.62068 8.0614,-12.10235 11.462,-6.39652 23.0352,-12.59172 34.5528,-18.88758 8.3624,-0.69714 13.3172,0.93261 18.9234,7.16947 4.3494,5.74621 5.491,12.16632 4.5425,19.15152 -1.0639,4.21166 -3.3088,7.98893 -7.1488,10.23714 -32.8367,19.22497 -22.2559,14.86514 -37.4515,20.87718 -6.1333,2.2428 -12.4806,1.14784 -18.2378,-1.57983 -5.6694,-3.6426 -6.0702,-9.43414 -3.7986,-15.24521 10.459,-15.49711 28.9442,-25.05898 46.9761,-29.32743 5.6166,-0.5424 10.4893,0.54569 13.642,5.40266 2.7837,5.78984 0.028,10.74621 -3.68,15.24212 -11.2764,11.27268 -26.2419,24.08922 -42.4521,23.87012 0,0 29.5561,-21.88436 29.5561,-21.88436 l 0,0 c 13.0731,-2.82462 1.6242,-0.56181 -27.4063,16.72653 -0.7294,0.43439 1.5816,-0.63164 2.3207,-1.04934 2.0692,-1.16935 2.5023,-1.80756 4.2225,-3.46994 2.8221,-2.86378 7.2702,-6.30578 5.6497,-10.81448 -2.3595,-3.39509 -7.3437,-2.45281 -10.8101,-1.70584 -11.8603,4.13861 -30.1316,15.93233 21.9956,-14.06798 3.4801,-2.0029 -10.0308,7.04561 -6.5353,6.06212 -2.6323,3.47841 -3.8926,7.59789 0.8217,9.87172 5.5641,1.9009 11.0205,1.90009 16.4052,-0.73591 13.1838,-6.43519 0.2568,-0.21429 -25.3595,15.00833 -0.905,0.53779 1.9457,-0.81509 2.8669,-1.32475 2.628,-1.45408 4.2122,-3.39065 5.478,-6.09333 1.5357,-5.81866 0.9015,-11.24084 -2.8479,-16.14027 -4.603,-4.66585 -10.2525,-5.58336 -16.5326,-3.67359 9.5079,-5.58459 19.076,-11.0679 28.5237,-16.75377 0.8179,-0.49223 -1.7786,0.70643 -2.6172,1.16251 -3.0857,1.67819 -5.3612,4.22879 -6.9032,7.36012 -1.1307,5.06281 5.5231,7.64603 9.4195,8.66108 7.0655,0.90649 13.9189,0.007 20.2334,-3.50539 -9.3796,5.48984 -18.7527,10.99064 -28.1387,16.46951 -0.9582,0.55936 1.9314,-1.09644 2.8553,-1.71085 3.0079,-2.00027 5.591,-4.68678 6.8984,-8.08939 1.1322,-5.43622 -1.7997,-8.49613 -6.3308,-11.22922 -5.9838,-3.6022 -12.729,-4.80201 -19.6454,-3.61325 -13.0222,3.3147 -28.2128,14.75408 19.8278,-13.52843 4.1684,-2.45405 -13.4802,7.35412 -9.0226,6.39154 -3.9161,5.69911 -5.3589,10.33221 1.2255,14.55829 7.9372,3.95109 16.3307,4.56512 24.8391,1.8027 13.9027,-5.94792 5.0344,-2.36104 -22.9722,14.12392 -1.2627,0.7432 2.5707,-1.40889 3.8186,-2.17657 3.4054,-2.09487 3.0954,-1.92123 5.7657,-4.72439 0.7013,-0.73615 1.3716,-1.50118 2.0574,-2.25178 2.1049,-3.82775 2.7004,-7.14023 -2.0877,-8.96863 -6.5928,-1.91745 -13.2803,-1.64025 -19.7792,0.67133 -13.3287,5.539 -5.2919,2.38791 24.4135,-15.05099 0.987,-0.57944 -1.9815,1.15449 -2.9041,1.83174 -2.5721,1.88798 -4.3966,4.10142 -5.4123,7.14974 -1.2313,5.89262 0.8123,11.50256 5.9316,14.91995 2.5581,0.9542 3.2547,1.42637 6.0437,1.59564 13.5081,0.81982 36.2405,-17.34087 -17.0337,14.20831 6.7024,-3.56136 12.4969,-7.77686 14.5198,-15.52042 0.9846,-5.64137 1.059,-11.68649 -4.2336,-15.19741 -5.9053,-1.94771 -11.6733,-0.72961 -17.0609,2.26138 9.3695,-5.50555 18.7245,-11.03584 28.1084,-16.51666 0.975,-0.56943 -1.9919,1.08551 -2.8806,1.78203 -2.7278,2.13812 -5.2104,5.15622 -6.5498,8.33318 -0.8769,4.7456 2.3297,5.76719 6.6139,5.08648 3.5349,-0.65283 7.0214,-1.36376 10.3879,-2.67223 1.223,-0.47537 4.7165,-2.28614 3.5929,-1.60845 -8.0903,4.87946 -39.5935,23.1263 -24.4949,14.2602 5.2547,-3.04633 10.2753,-6.55227 10.7013,-13.03085 0.2258,-4.55602 -1.7668,-7.61958 -6.5664,-7.86993 -3.5027,0.0454 -6.6096,0.38162 -9.9465,1.59005 -1.2559,0.45479 -4.8121,2.2992 -3.6728,1.60204 49.0519,-30.01659 33.7838,-20.23536 23.9397,-13.8837 -6.6319,5.8703 -10.7823,13.28423 -9.8562,22.39619 2.1168,8.43641 6.2834,12.66794 14.7344,15.13516 8.5249,1.74151 16.7158,0.60536 24.4705,-3.52708 -59.423,34.94641 -29.6733,19.43452 -22.0052,12.22107 1.7161,-1.6143 3.0003,-3.86985 4.0174,-5.96498 -0.1364,-5.73831 -10.419,-8.1479 -14.7227,-9.28578 -10.3316,-1.46413 -20.7251,-1.67438 -31.1045,-0.40535 -4.7604,0.66401 -9.51,1.31569 -14.0503,2.99094 -1.3888,0.51241 -5.3112,2.59593 -4.0509,1.81958 38.8313,-23.91982 35.248,-21.5611 24.6756,-14.32753 -6.0824,5.67793 -4.4295,8.57058 0.759,14.44116 9.2249,6.81121 20.3627,10.00456 31.6566,11.39817 12.1759,0.86705 24.4598,0.71102 35.7398,-4.60695 -8.7914,5.23388 -17.5189,10.57654 -26.3741,15.70165 -1.3375,0.77408 2.5987,-1.68164 3.8094,-2.64194 4.6185,-3.66327 7.5978,-8.73245 8.5106,-14.55315 0.5214,-9.90333 -2.4,-18.42627 -10.3627,-24.8169 -11.1331,-7.30749 -23.8429,-9.37023 -37.0415,-8.12507 -7.1768,0.88887 -14.2726,1.82115 -21.1933,4.0349 -2.2255,0.71191 -8.4968,3.77502 -6.5629,2.46345 6.3704,-4.32046 37.406,-22.455 19.8593,-11.78332 -7.7499,6.15778 -14.1658,12.76412 -13.1582,23.41152 1.9593,9.08952 6.7191,16.65761 14.6365,21.77344 0,0 -30.927,19.80222 -30.927,19.80222 z" />
    <path
       style="fill:#000000;fill-opacity:1;fill-rule:nonzero;stroke:#000000;stroke-width:4.69999981;stroke-linecap:round;stroke-linejoin:round;stroke-miterlimit:4;stroke-opacity:1;stroke-dasharray:none;stroke-dashoffset:0"
       id="path2728"
       d="m 274.61574,348.42289 c 10.9685,-1.60204 21.9077,-3.16112 32.9748,-4.01735 13.8183,-1.94927 27.7442,-2.80111 41.6762,-3.36641 14.7593,-1.36318 29.5419,-2.33947 44.3541,-2.85492 14.3115,-0.43586 28.6314,-0.43804 42.9481,-0.48293 13.2366,0.8583 26.458,1.85724 39.7131,2.39525 12.9269,0.4923 25.7882,1.95685 38.7118,2.64164 13.3526,0.63423 26.6426,2.11379 39.996,2.84063 12.7788,0.12329 25.4776,1.04634 38.2044,2.10214 11.5707,0.95698 23.1806,1.20648 34.7845,1.35625 10.3807,0.0762 20.7617,0.0522 31.1425,0.0403 9.3268,0.95578 18.6455,1.89252 28.0101,2.38692 9.5961,-0.0757 19.0785,0.9412 28.6069,1.90491 9.0224,0.90571 18.0886,1.17548 27.1498,1.30705 7.4297,0.10132 14.7683,1.56367 22.1661,2.25951 5.0203,0.44375 10.0589,0.53941 15.0954,0.569 3.3624,-0.0259 6.7248,-0.0116 10.0872,-0.032 2.568,0.002 5.1357,-0.0292 7.7036,-0.0417 0.2792,-0.003 0.5584,-0.006 0.8376,-0.008 0,0 -29.9342,21.75099 -29.9342,21.75099 l 0,0 c -0.2716,-0.002 -0.5432,-0.005 -0.8147,-0.007 -2.5369,-0.009 -5.0737,-0.0311 -7.6106,-0.0196 -3.3559,-0.006 -6.7126,0.0391 -10.0677,-0.0608 -5.0469,-0.12361 -10.0882,-0.40421 -15.1077,-0.96145 -7.2793,-0.8356 -14.5316,-2.1564 -21.8828,-2.09036 -9.0817,-0.25387 -18.1656,-0.62761 -27.2015,-1.62481 -9.5177,-0.95664 -19.0197,-1.57185 -28.5873,-1.73695 -9.285,-0.62051 -18.5256,-1.71897 -27.814,-2.25844 -10.3573,-10e-4 -20.7155,0.006 -31.0717,-0.16145 -11.64,-0.20081 -23.283,-0.54706 -34.8832,-1.59241 -12.6864,-1.08623 -25.3692,-1.74291 -38.0992,-2.06562 -13.3243,-0.846 -26.6031,-2.30295 -39.9439,-2.85805 -12.922,-0.72218 -25.7902,-2.17881 -38.7279,-2.57628 -13.2008,-0.58024 -26.3576,-1.81843 -39.5615,-2.3088 -14.2682,0.009 -28.5394,0.0563 -42.801,0.53585 -14.8162,0.60787 -29.5932,1.70481 -44.373,2.89181 -13.9421,0.63627 -27.835,1.79773 -41.6831,3.55617 -11.2054,1.02931 -22.2769,2.83004 -33.3966,4.51152 0,0 29.3994,-21.92364 29.3994,-21.92364 z" />
    <path
       style="fill:#000000;fill-opacity:1;fill-rule:nonzero;stroke:#000000;stroke-width:4.69999981;stroke-linecap:round;stroke-linejoin:round;stroke-miterlimit:4;stroke-opacity:1;stroke-dasharray:none;stroke-dashoffset:0"
       id="path2730"
       d="m 255.99894,379.67497 c -3.4009,8.64075 -6.0467,17.57282 -8.2904,26.57811 -1.9112,9.95374 -3.4447,19.99533 -4.5307,30.07502 -0.8383,9.9023 -1.4896,19.8721 -0.9462,29.8053 0.9719,8.46644 1.8105,16.93761 2.2236,25.4507 0.284,8.125 1.6564,16.15742 2.4084,24.24822 0.803,7.4844 0.4384,15.03722 1.1438,22.52125 1.0854,6.84403 1.8635,13.72577 2.2389,20.64426 0.4424,8.05048 0.4461,16.07655 -0.4032,24.09413 -0.7663,8.60539 -1.8845,17.14754 -3.1492,25.69125 -0.9243,8.65283 -2.0934,17.27526 -3.7024,25.82884 -1.9322,10.11665 -3.4175,20.32478 -4.8203,30.52894 -0.8166,9.87103 -2.2435,19.66651 -3.4568,29.49271 -0.917,7.34213 -1.1319,14.74224 -1.246,22.13243 -0.1912,8.52502 0.1409,17.05824 -0.3825,25.57083 -0.7416,7.23982 -1.5457,14.46874 -2.0434,21.7304 -0.1067,1.73158 -0.1562,3.46556 -0.1937,5.19968 0,0 -32.9721,16.61905 -32.9721,16.61905 l 0,0 c 0.1166,-1.80092 0.2378,-3.60155 0.3706,-5.40137 0.54,-7.31549 1.4519,-14.59405 2.3113,-21.87726 0.7406,-8.41652 0.1996,-16.8709 0.3605,-25.31244 0.089,-7.51838 0.1828,-15.05812 1.1174,-22.5295 1.2959,-9.86698 3.0261,-19.67349 3.6702,-29.61735 1.3031,-10.24576 2.8289,-20.4724 4.5456,-30.65307 1.7644,-8.46699 2.9052,-17.05129 3.7831,-25.64931 1.1658,-8.52059 2.5528,-16.98931 3.1834,-25.57656 0.886,-7.83271 1.0926,-15.62991 0.5657,-23.51045 -0.3669,-6.85282 -0.9679,-13.68866 -2.1704,-20.45257 -0.9255,-7.50306 -0.2958,-15.1127 -1.0801,-22.64183 -0.6775,-8.15209 -2.1447,-16.22201 -2.4483,-24.39339 -0.3944,-8.50591 -1.1192,-16.9798 -2.1308,-25.43557 -0.7146,-10.11602 0.027,-20.28701 0.7353,-30.38867 1.0886,-10.20658 2.5738,-20.3628 4.2702,-30.48212 2.1466,-9.00325 4.7508,-17.90322 7.7517,-26.65692 0,0 33.2868,-15.63274 33.2868,-15.63274 z" />
    <path
       style="fill:#000000;fill-opacity:1;fill-rule:nonzero;stroke:#000000;stroke-width:4.69999981;stroke-linecap:round;stroke-linejoin:round;stroke-miterlimit:4;stroke-opacity:1;stroke-dasharray:none;stroke-dashoffset:0"
       id="path2732"
       d="m 300.14844,794.64442 c 11.8099,1.37563 23.659,2.22279 35.4786,3.53372 14.4916,1.18253 28.9118,3.00695 43.4125,4.09633 15.4503,0.80235 30.895,1.0724 46.332,2.12514 17.5465,1.24127 35.1355,1.61445 52.7189,1.85123 16.5735,0.12607 33.0998,1.57884 49.6581,2.25448 15.3482,0.4125 30.6685,0.51093 45.987,1.58867 13.968,1.2911 28.0206,1.0649 41.9913,2.18263 12.5282,1.23562 25.0936,1.92548 37.674,2.29336 11.5205,0.26744 23.045,0.26032 34.5679,0.26483 10.5566,-0.5124 21.02,0.91469 31.5143,1.79018 8.8786,0.5448 17.71,0.71885 26.5269,1.92889 6.5545,1.02012 13.165,1.50368 19.7886,1.73104 5.568,0.1874 11.0101,1.66854 16.5403,2.3849 3.4455,0.39382 6.9112,0.48793 10.3753,0.53154 0,0 -29.8506,21.55807 -29.8506,21.55807 l 0,0 c -3.5316,-0.1569 -7.0607,-0.37408 -10.556,-0.93456 -5.3898,-0.88819 -10.752,-2.15693 -16.2452,-2.13881 -6.6391,-0.36841 -13.2453,-1.0717 -19.8174,-2.09281 -8.7433,-1.08689 -17.5508,-1.03987 -26.3189,-1.88238 -10.3889,-0.93672 -20.768,-2.06433 -31.2217,-1.61815 -11.5357,-0.0158 -23.0737,-0.0272 -34.605,-0.38205 -12.5709,-0.46627 -25.1145,-1.32962 -37.6416,-2.48241 -13.9551,-0.85265 -27.949,-1.04174 -41.8859,-2.24458 -15.2804,-0.98861 -30.5766,-0.99755 -45.8758,-1.56605 -16.4892,-0.78583 -32.9592,-2.16396 -49.4719,-2.25965 -17.653,-0.287 -35.3051,-0.76425 -52.9257,-1.92377 -15.4733,-0.9655 -30.9705,-1.07519 -46.4408,-2.10239 -14.5415,-1.17172 -29.029,-2.90335 -43.5666,-4.1227 -11.9206,-1.27684 -23.8833,-2.29122 -35.8624,-2.77202 0,0 29.7198,-21.59268 29.7198,-21.59268 z" />
    <path
       style="fill:#000000;fill-opacity:1;fill-rule:nonzero;stroke:#000000;stroke-width:4.69999981;stroke-linecap:round;stroke-linejoin:round;stroke-miterlimit:4;stroke-opacity:1;stroke-dasharray:none;stroke-dashoffset:0"
       id="path2734"
       d="m 807.83354,388.06571 c -0.1148,9.59514 -0.141,19.14953 -0.9684,28.71465 -1.5586,12.0582 -4.237,23.91812 -5.9367,35.95452 -1.4184,10.99764 -1.6933,22.09297 -1.8715,33.1662 -0.082,10.37262 -0.045,20.74608 -0.045,31.11906 -0.3545,10.17423 0.2673,20.26937 1.2712,30.38262 1.7454,9.70791 3.0271,19.48311 4.541,29.22784 1.273,10.69783 3.5502,21.23619 6.1236,31.68603 2.5919,10.82826 5.2542,21.64284 8.3106,32.35085 3.2732,10.63863 4.396,21.69402 5.0616,32.74973 0.769,10.46667 0.576,20.9045 -0.9876,31.2795 -1.5922,8.82359 -2.9759,17.66618 -5.2005,26.35838 -1.9784,7.19757 -4.0765,14.357 -6.1269,21.5338 -1.848,5.56882 -3.0858,11.29171 -3.7793,17.11089 -0.3142,3.26892 -0.3687,6.55404 -0.3482,9.83553 -0.034,3.06482 0.012,6.12953 0.01,9.19435 0.01,1.5831 0.039,3.16603 0.093,4.74822 0,0 -33.0187,16.82796 -33.0187,16.82796 l 0,0 c 0.05,-1.60915 0.076,-3.219 0.078,-4.82895 -0.02,-3.05797 0,-6.11615 -0.064,-9.17381 0.018,-3.42522 0.059,-6.85523 0.364,-10.26942 0.5353,-6.06127 1.7618,-12.04195 3.6541,-17.83052 2.2862,-7.09847 3.9924,-14.37543 6.2505,-21.488 2.5293,-8.54824 3.7709,-17.34757 5.4951,-26.07927 1.8427,-10.13168 2.0822,-20.33076 1.4316,-30.60439 -0.5833,-10.8009 -1.5509,-21.62 -4.7131,-32.02464 -3.0889,-10.73822 -5.6837,-21.61417 -8.3627,-32.45936 -2.6906,-10.52649 -4.9583,-21.17425 -6.2907,-31.96555 -1.5614,-9.7958 -2.9182,-19.61638 -4.7069,-29.3754 -1.0131,-10.23284 -1.8019,-20.43077 -1.3696,-30.72881 -0.033,-10.3904 -0.074,-20.78083 0.023,-31.17105 0.1347,-11.22618 0.4606,-22.46365 1.7945,-33.6227 1.5993,-11.98183 4.186,-23.77746 5.9015,-35.74084 0.842,-9.39153 1.1264,-18.77094 0.6588,-28.19978 0,0 32.7317,-16.67764 32.7317,-16.67764 z" />
    <path
       style="fill:#000000;fill-opacity:1;fill-rule:nonzero;stroke:#000000;stroke-width:4.69999981;stroke-linecap:round;stroke-linejoin:round;stroke-miterlimit:4;stroke-opacity:1;stroke-dasharray:none;stroke-dashoffset:0"
       id="path2738"
       d="m 779.90444,810.99567 c -5.2521,-5.74596 -11.3077,-10.64433 -17.1219,-15.79588 -6.2508,-6.09756 -13.121,-11.44846 -20.093,-16.68087 -9.0217,-6.49042 -17.9553,-13.09304 -27.275,-19.15563 -11.2256,-6.53492 -22.1066,-13.62773 -33.1331,-20.48937 -13.5537,-8.59235 -26.9241,-17.48994 -39.7359,-27.15913 -12.525,-8.93582 -23.7431,-19.54732 -34.3189,-30.68061 -9.8044,-11.1509 -20.2748,-21.68503 -31.3395,-31.5819 -9.9869,-9.85238 -22.0892,-16.92254 -33.498,-24.89304 -9.4059,-6.66318 -19.6428,-12.05693 -29.5856,-17.86981 -8.6546,-5.44824 -17.6817,-10.11587 -26.1851,-15.79897 -8.8953,-6.1545 -17.6653,-12.48017 -26.4759,-18.75272 -9.0401,-6.68248 -18.6548,-12.508 -27.7258,-19.14623 -7.9149,-5.90027 -14.7586,-13.05212 -22.1633,-19.54517 -7.0202,-6.26222 -14.5823,-11.85934 -21.8351,-17.841 -5.8158,-4.71526 -11.6092,-9.43216 -17.37,-14.21868 -3.854,-3.93564 -8.132,-7.41807 -12.1474,-11.18543 -3.8743,-3.16648 -7.8654,-6.25513 -11.3771,-9.82972 -3.3407,-2.75046 -6.1774,-5.9981 -8.9853,-9.28032 -3.3628,-3.8692 -6.6009,-7.83047 -9.7223,-11.89812 -3.5424,-3.43456 -6.6059,-7.35567 -10.257,-10.67246 -3.5666,-3.80982 -7.2592,-7.4578 -10.7895,-11.30848 -3.2995,-3.67048 -6.237,-7.63959 -9.2478,-11.55159 -2.8551,-3.54234 -5.8239,-6.97786 -8.5737,-10.59922 -2.8923,-3.04503 -5.3219,-6.48406 -8.086,-9.64763 -2.8208,-3.13717 -5.9823,-5.86193 -8.905,-8.91624 -2.5788,-2.97399 -5.6451,-5.54028 -9.1717,-7.31098 -2.9796,-1.56608 -6.0273,-2.93356 -9.2029,-4.07796 -3.1735,-0.0202 -4.3177,-1.358 -5.5029,-4.27431 0,0 32.3342,-17.91656 32.3342,-17.91656 l 0,0 c 0.4019,1.43583 2.5068,0.67387 3.8512,1.627 3.1916,1.391 6.3425,2.87522 9.3793,4.58258 3.6207,2.2905 6.9486,4.94637 9.7347,8.22246 2.9318,3.10027 6.2398,5.79979 8.978,9.08349 2.7656,3.2528 5.3508,6.64353 8.1847,9.83515 2.7865,3.60154 5.7415,7.0576 8.5761,10.62206 2.8826,3.87027 5.8321,7.70517 9.0601,11.29072 3.4098,3.82299 7.115,7.34021 10.6275,11.06456 3.6667,3.56987 7.0357,7.43807 10.5311,11.17394 3.1293,3.9968 6.3065,7.95141 9.7195,11.70996 2.7133,3.22382 5.6548,6.22633 8.808,9.02249 3.5686,3.44731 7.4251,6.58449 11.2326,9.76131 4.025,3.65751 8.1384,7.22336 11.9878,11.06866 5.7126,4.79051 11.3881,9.60764 17.1618,14.3244 7.2745,6.00523 14.8452,11.64625 21.8536,17.97057 7.2872,6.46468 14.0826,13.50643 21.9584,19.2892 9.0228,6.63959 18.5708,12.50252 27.5741,19.1708 8.8215,6.21852 17.6358,12.44565 26.5105,18.58837 8.5032,5.53699 17.5139,10.17045 26.0584,15.64925 9.9856,5.85172 20.1835,11.42044 29.5699,18.218 11.5394,8.00876 23.5153,15.45945 33.6174,25.34991 11.0568,10.03927 21.6025,20.60944 31.4733,31.82404 10.4475,10.97439 21.5927,21.35119 33.8867,30.2464 12.803,9.5546 26.1387,18.38603 39.7199,26.79375 11.0914,6.86595 22.163,13.76114 33.368,20.4387 9.3707,6.15364 18.3983,12.79752 27.5634,19.25027 7.0564,5.29288 13.9893,10.73068 20.343,16.8682 5.8052,5.11755 11.6541,10.18185 17.2989,15.47358 0,0 -31.1374,19.55821 -31.1374,19.55821 z" />
    <path
       style="fill:#000000;fill-opacity:1;fill-rule:nonzero;stroke:#000000;stroke-width:4.69999981;stroke-linecap:round;stroke-linejoin:round;stroke-miterlimit:4;stroke-opacity:1;stroke-dasharray:none;stroke-dashoffset:0"
       id="path2750"
       d="m 812.24464,385.67295 c 0.51,-11.08704 -1.9857,-21.9588 -5.1599,-32.49595 -5.6088,-17.95715 -16.5732,-31.32405 -29.5488,-44.48071 -20.6036,-19.70347 -46.4356,-32.07231 -71.9889,-43.9703 -35.9073,-15.27645 -73.8134,-24.76386 -111.7848,-33.24613 -47.7339,-10.11631 -96.5079,-14.18355 -145.1752,-16.28866 -52.7067,-2.49422 -105.3108,1.42434 -157.6334,7.44122 -42.8314,5.52035 -85.4637,13.34708 -126.8546,25.83979 -7.8421,2.36694 -15.5685,5.10165 -23.3528,7.65247 -22.0902,7.88048 -43.707505,17.1579 -64.479405,28.06572 -6.596,3.46375 -13.2418,6.87863 -19.5058,10.91202 -3.144,2.02442 12.7288,-7.53085 10.1098,-4.86187 -4.9739,5.06874 -11.6006,8.1947 -17.4009,12.29204 -26.6441,20.05483 -50.37189694,44.10195 -68.902797,71.9137 -3.5781,5.37001 -6.7303,11.01185 -10.0954,16.51778 -12.5338,22.51438 -22.0123,46.62056 -27.918,71.71017 -3.6486,15.5005 -4.1514,21.6434 -6.3755,37.38862 -2.9129,28.67713 -2.6296,57.94966 4.8703,85.96068 1.3604,5.08093 3.1928,10.0236 4.7892,15.03539 7.351,19.15976 18.4116,36.51998 32.2173,51.67096 7.9647,8.7408 14.1557001,13.94773 22.93690006,21.89102 24.90599694,21.44823 53.46699694,37.93565 81.99529694,53.99311 27.790805,14.6982 56.485305,27.65881 85.442105,39.8756 17.1091,7.22888 34.4765,13.40381 52.7449,16.81266 0,0 -29.4147,20.44856 -29.4147,20.44856 l 0,0 c -17.9879,-4.25929 -35.1981,-10.75244 -52.1806,-18.03037 -28.8927,-12.50291 -57.586205,-25.57074 -85.387905,-40.36475 -28.7086,-16.22455 -57.3710969,-32.98245 -82.423897,-54.62127 -9.2237,-8.32152 -14.9449,-13.06249 -23.2896,-22.24142 -14.0906,-15.49936 -25.3204,-33.28847 -32.8216,-52.86755 -4.3851,-13.84559 -5.919,-17.10227 -8.4425,-31.56381 -4.093,-23.45617 -3.8302,-47.41107 -1.4481,-71.02578 2.2043,-16.26553 2.5767,-21.75081 6.235,-37.78228 5.7863,-25.35715 15.1081,-49.74338 27.5359,-72.58856 3.3334,-5.58943 6.4451,-11.31714 10.0001,-16.76829 18.3863,-28.1933 42.1013001,-52.64812 68.768397,-73.05944 5.802,-4.16398 11.3677,-8.67872 17.406,-12.49194 41.5489,-26.23826 84.328205,-50.70235 131.083105,-66.42119 7.7917,-2.49321 15.529,-5.16371 23.3753,-7.47963 41.4546,-12.2358 84.1075,-19.8614 126.9414,-25.27191 52.4945,-5.88597 105.2507,-9.68177 158.1101,-7.15148 48.9348,2.23788 97.9619,6.32796 145.9792,16.42525 38.375,8.45712 76.7191,17.88236 112.9902,33.31254 26.063,12.03919 52.3099,24.58952 73.4208,44.5187 13.6754,13.63877 24.7419,27.0255 31.0048,45.62674 3.3826,10.72642 6.1503,21.78048 6.3607,33.09091 0,0 -32.7317,16.67764 -32.7317,16.67764 z" />
    <path
       style="fill:#000000;fill-opacity:1;fill-rule:nonzero;stroke:#000000;stroke-width:4.69999981;stroke-linecap:round;stroke-linejoin:round;stroke-miterlimit:4;stroke-opacity:1;stroke-dasharray:none;stroke-dashoffset:0"
       id="path2868"
       d="m 441.2691,389.2249 c -4.86885,9.71793 -10.34892,19.09934 -16.05483,28.34354 -5.54981,8.90976 -10.92724,17.92374 -16.43958,26.85677 0,0 -10.29458,4.54145 -10.29458,4.54145 l 0,0 c 5.62099,-8.9171 11.02515,-17.96615 16.59005,-26.91759 5.6661,-9.17531 11.16662,-18.46146 15.89587,-28.16273 0,0 10.30307,-4.66144 10.30307,-4.66144 z" />
    <path
       style="fill:#000000;fill-opacity:1;fill-rule:nonzero;stroke:#000000;stroke-width:4.69999981;stroke-linecap:round;stroke-linejoin:round;stroke-miterlimit:4;stroke-opacity:1;stroke-dasharray:none;stroke-dashoffset:0"
       id="path2870"
       d="m 527.29467,383.4363 c -3.81919,10.42051 -8.25173,20.61374 -13.3778,30.45454 -6.67725,12.15285 -14.50344,23.6387 -22.25373,35.12432 -5.8799,8.06059 -10.47553,16.9584 -16.38178,24.9965 0,0 -10.34618,4.45811 -10.34618,4.45811 l 0,0 c 6.10225,-7.9612 10.6764,-16.92837 16.58983,-25.02562 7.73527,-11.46224 15.57134,-22.90564 22.28605,-35.00504 5.1411,-9.72224 9.54056,-19.83276 13.2415,-30.19274 0,0 10.24211,-4.81007 10.24211,-4.81007 z" />
    <path
       style="fill:#000000;fill-opacity:1;fill-rule:nonzero;stroke:#000000;stroke-width:4.69999981;stroke-linecap:round;stroke-linejoin:round;stroke-miterlimit:4;stroke-opacity:1;stroke-dasharray:none;stroke-dashoffset:0"
       id="path2872"
       d="m 618.72324,380.57915 c -3.87206,11.78156 -10.49533,22.30715 -17.22113,32.62649 -11.13464,15.0621 -22.33809,30.08327 -32.69828,45.6947 -9.26822,14.5086 -18.27602,29.17997 -27.11528,43.95389 -4.20512,6.99878 -8.32074,14.02349 -13.12332,20.63387 0,0 -10.35325,4.46872 -10.35325,4.46872 l 0,0 c 4.95822,-6.56281 9.15885,-13.58313 13.38756,-20.63025 8.87719,-14.79491 17.93452,-29.47743 27.1882,-44.03942 10.29853,-15.62691 21.48435,-30.641 32.63839,-45.66234 6.67645,-10.17341 13.29752,-20.56924 17.05501,-32.23558 0,0 10.2421,-4.81008 10.2421,-4.81008 z" />
    <path
       style="fill:#000000;fill-opacity:1;fill-rule:nonzero;stroke:#000000;stroke-width:4.69999981;stroke-linecap:round;stroke-linejoin:round;stroke-miterlimit:4;stroke-opacity:1;stroke-dasharray:none;stroke-dashoffset:0"
       id="path2874"
       d="m 715.84787,383.7595 c -3.8283,12.69581 -8.95938,24.90972 -14.69806,36.84501 -9.0273,16.939 -19.33993,33.16744 -29.46538,49.46532 -11.19279,17.09929 -23.4735,33.45263 -35.65475,49.85255 -7.29098,10.12832 -14.99064,19.94983 -21.87106,30.36705 -1.66427,2.6058 -0.91488,1.40906 -2.25838,3.58381 0,0 -10.37232,4.57759 -10.37232,4.57759 l 0,0 c 1.38867,-2.2201 0.61494,-1.00016 2.33175,-3.65312 6.98672,-10.46281 14.7462,-20.3534 22.12146,-30.541 12.22359,-16.37065 24.50445,-32.72606 35.74798,-49.79302 10.09785,-16.25113 20.33122,-32.46026 29.40414,-49.31107 5.73524,-11.80836 10.84063,-23.91986 14.50897,-36.54592 0,0 10.20565,-4.8472 10.20565,-4.8472 z" />
    <path
       style="fill:#000000;fill-opacity:1;fill-rule:nonzero;stroke:#000000;stroke-width:4.69999981;stroke-linecap:round;stroke-linejoin:round;stroke-miterlimit:4;stroke-opacity:1;stroke-dasharray:none;stroke-dashoffset:0"
       id="path2876"
       d="m 747.29467,463.4363 c -3.86798,9.57541 -8.49747,18.825 -13.03315,28.09651 -6.7077,12.93618 -13.61302,25.77464 -21.1795,38.23031 -7.4313,11.6688 -14.34111,23.65296 -21.37314,35.56288 -4.83391,8.29359 -10.28076,16.19303 -15.87429,23.98641 -0.53059,0.72809 -1.06119,1.45618 -1.59178,2.18427 0,0 -10.36097,4.47545 -10.36097,4.47545 l 0,0 c 0.54394,-0.73047 1.08788,-1.46095 1.63182,-2.19142 5.67117,-7.76553 11.16944,-15.65558 16.04773,-23.94908 7.05273,-11.92441 13.98657,-23.9217 21.43427,-35.60711 7.59568,-12.3917 14.44984,-25.21354 21.15428,-38.10606 4.49373,-9.1967 9.06284,-18.37765 12.90262,-27.87209 0,0 10.24211,-4.81007 10.24211,-4.81007 z" />
    <path
       style="fill:#000000;fill-opacity:1;fill-rule:nonzero;stroke:#000000;stroke-width:4.69999981;stroke-linecap:round;stroke-linejoin:round;stroke-miterlimit:4;stroke-opacity:1;stroke-dasharray:none;stroke-dashoffset:0"
       id="path2878"
       d="m 750.15181,574.86487 c -4.05082,10.8036 -8.68697,21.37807 -13.07218,32.04886 -5.03282,12.78408 -10.84349,25.2197 -16.80293,37.58855 -1.75959,3.51536 -3.84338,6.84319 -5.98654,10.13129 0,0 -10.32952,4.51921 -10.32952,4.51921 l 0,0 c 2.21937,-3.25244 4.37156,-6.55105 6.18809,-10.0523 5.99929,-12.3532 11.89228,-24.7542 16.89738,-37.55587 4.31963,-10.60922 8.92212,-21.11257 12.8636,-31.86967 0,0 10.2421,-4.81007 10.2421,-4.81007 z" />
    <path
       style="fill:#000000;fill-opacity:1;fill-rule:nonzero;stroke:#000000;stroke-width:4.69999981;stroke-linecap:round;stroke-linejoin:round;stroke-miterlimit:4;stroke-opacity:1;stroke-dasharray:none;stroke-dashoffset:0"
       id="path2880"
       d="m 646.36917,754.7656 c -7.93446,7.29413 -15.70343,14.78227 -23.26679,22.46319 -3.22667,3.62144 -7.21193,6.28965 -11.24188,8.90137 0,0 -10.44849,4.05975 -10.44849,4.05975 l 0,0 c 4.09049,-2.52911 8.1752,-5.06171 11.41649,-8.69498 7.50932,-7.65855 15.21839,-15.13467 23.09898,-22.40424 0,0 10.44169,-4.32509 10.44169,-4.32509 z" />
    <path
       style="fill:#000000;fill-opacity:1;fill-rule:nonzero;stroke:#000000;stroke-width:4.69999981;stroke-linecap:round;stroke-linejoin:round;stroke-miterlimit:4;stroke-opacity:1;stroke-dasharray:none;stroke-dashoffset:0"
       id="path2882"
       d="m 600.9779,711.84847 c -6.43119,7.5675 -12.15762,15.6697 -17.46932,24.04955 -6.23803,10.60283 -13.19039,20.76371 -19.93959,31.0444 -3.52449,6.20981 -8.10056,11.60354 -13.03897,16.70689 0,0 -10.34231,4.29336 -10.34231,4.29336 l 0,0 c 5.02146,-5.01321 9.72288,-10.29014 13.19687,-16.53729 6.77413,-10.25753 13.7226,-20.41978 19.94694,-31.02272 5.24096,-8.38536 10.8924,-16.49727 17.24219,-24.08913 0,0 10.40419,-4.44506 10.40419,-4.44506 z" />
    <path
       style="fill:#000000;fill-opacity:1;fill-rule:nonzero;stroke:#000000;stroke-width:4.69999981;stroke-linecap:round;stroke-linejoin:round;stroke-miterlimit:4;stroke-opacity:1;stroke-dasharray:none;stroke-dashoffset:0"
       id="path2884"
       d="m 543.83504,686.13418 c -7.03057,8.9387 -12.27937,19.05094 -17.84991,28.912 -6.66208,12.18374 -12.64547,24.70885 -20.02524,36.48522 -2.93454,5.00514 -6.82068,9.08903 -11.31102,12.68271 0,0 -10.45658,4.17633 -10.45658,4.17633 l 0,0 c 4.61057,-3.4448 8.63038,-7.35671 11.58529,-12.37545 7.49794,-11.71593 13.52445,-24.22431 20.10815,-36.46127 5.55955,-9.82785 10.71381,-19.93144 17.54512,-28.97447 0,0 10.40419,-4.44507 10.40419,-4.44507 z" />
    <path
       style="fill:#000000;fill-opacity:1;fill-rule:nonzero;stroke:#000000;stroke-width:4.69999981;stroke-linecap:round;stroke-linejoin:round;stroke-miterlimit:4;stroke-opacity:1;stroke-dasharray:none;stroke-dashoffset:0"
       id="path2886"
       d="m 523.80894,643.57666 c -7.95476,9.72839 -15.77919,19.53398 -23.17396,29.69676 -11.44924,14.6824 -22.04656,29.98076 -32.82382,45.15229 -7.60219,10.41021 -15.23788,20.75206 -23.80929,30.38694 0,0 -10.24425,4.30753 -10.24425,4.30753 l 0,0 c 8.69071,-9.57674 16.38592,-19.90379 24.01563,-30.33897 10.79171,-15.13677 21.3193,-30.46275 32.75418,-45.13211 7.29651,-10.1202 14.9713,-19.93481 22.92952,-29.54309 0,0 10.35199,-4.52935 10.35199,-4.52935 z" />
    <path
       style="fill:#000000;fill-opacity:1;fill-rule:nonzero;stroke:#000000;stroke-width:4.69999981;stroke-linecap:round;stroke-linejoin:round;stroke-miterlimit:4;stroke-opacity:1;stroke-dasharray:none;stroke-dashoffset:0"
       id="path2888"
       d="m 458.07198,632.45737 c -7.40657,12.76728 -14.59413,25.65897 -22.03395,38.40701 -10.834,18.67137 -21.58854,37.38676 -32.78779,55.84242 -8.88127,14.05842 -17.87317,28.01452 -28.10881,41.13009 0,0 -10.24836,4.38637 -10.24836,4.38637 l 0,0 c 10.42166,-13.0539 19.48743,-27.0274 28.43134,-41.12379 11.20732,-18.42201 21.9536,-37.113 32.72406,-55.79262 7.38212,-12.67012 14.50745,-25.48701 21.71687,-38.25517 0,0 10.30664,-4.59431 10.30664,-4.59431 z" />
    <path
       style="fill:#000000;fill-opacity:1;fill-rule:nonzero;stroke:#000000;stroke-width:4.69999981;stroke-linecap:round;stroke-linejoin:round;stroke-miterlimit:4;stroke-opacity:1;stroke-dasharray:none;stroke-dashoffset:0"
       id="path2890"
       d="m 418.07198,606.74308 c -8.38931,15.22656 -15.40978,31.11574 -22.53407,46.95644 -9.71735,22.16255 -19.70818,44.21487 -30.71507,65.77001 -3.09932,6.60875 -6.74593,12.92481 -10.48655,19.1823 0,0 -10.1824,4.50616 -10.1824,4.50616 l 0,0 c 3.85905,-6.24924 7.63048,-12.55686 10.75616,-19.21707 11.12802,-21.49401 21.13504,-43.54498 30.78422,-65.73773 7.05001,-15.77353 13.99303,-31.5822 22.07107,-46.86579 0,0 10.30664,-4.59432 10.30664,-4.59432 z" />
    <path
       style="fill:#000000;fill-opacity:1;fill-rule:nonzero;stroke:#000000;stroke-width:4.69999981;stroke-linecap:round;stroke-linejoin:round;stroke-miterlimit:4;stroke-opacity:1;stroke-dasharray:none;stroke-dashoffset:0"
       id="path2892"
       d="m 392.08346,594.7656 c -9.4679,8.70156 -16.15205,19.77493 -22.88082,30.60031 -8.27574,14.21627 -15.60588,28.94077 -23.50566,43.36233 -6.11916,11.97927 -13.08526,23.42953 -21.6298,33.82757 -0.97795,1.11146 -1.9559,2.22291 -2.93385,3.33437 0,0 -10.31821,4.34372 -10.31821,4.34372 l 0,0 c 0.99793,-1.10617 1.99586,-2.21233 2.99379,-3.3185 8.6732,-10.30151 15.73581,-21.69105 21.84282,-33.68886 7.93223,-14.41273 15.275,-29.1348 23.46574,-43.40764 6.66684,-10.80738 13.22417,-21.92911 22.5243,-30.72821 0,0 10.44169,-4.32509 10.44169,-4.32509 z" />
    <path
       style="fill:#000000;fill-opacity:1;fill-rule:nonzero;stroke:#000000;stroke-width:4.69999981;stroke-linecap:round;stroke-linejoin:round;stroke-miterlimit:4;stroke-opacity:1;stroke-dasharray:none;stroke-dashoffset:0"
       id="path2894"
       d="m 350.15181,552.00773 c -3.0514,9.4865 -6.2565,18.9243 -9.43143,28.37208 -5.33406,15.43455 -11.99845,30.36685 -18.94384,45.13197 -6.62187,15.47797 -15.03142,30.04999 -22.86096,44.91918 -2.6132,4.80997 -5.49545,9.46382 -8.54354,14.00769 0,0 -10.35805,4.51582 -10.35805,4.51582 l 0,0 c 3.16413,-4.51531 6.13017,-9.16637 8.81364,-13.98591 7.86319,-14.87438 16.38514,-29.41114 22.98904,-44.92248 6.93284,-14.69723 13.54468,-29.57655 18.85509,-44.94824 3.13107,-9.41002 6.34018,-18.79899 9.23795,-28.28004 0,0 10.2421,-4.81007 10.2421,-4.81007 z" />
    <path
       style="fill:#000000;fill-opacity:1;fill-rule:nonzero;stroke:#000000;stroke-width:4.69999981;stroke-linecap:round;stroke-linejoin:round;stroke-miterlimit:4;stroke-opacity:1;stroke-dasharray:none;stroke-dashoffset:0"
       id="path2896"
       d="m 318.12075,526.13418 c -6.15992,6.67676 -10.86107,14.43708 -15.72617,22.05897 -5.19258,8.47074 -11.04358,16.48162 -15.96853,25.1155 -2.54641,4.73206 -5.70702,9.09029 -8.6786,13.55752 0,0 -10.31773,4.51246 -10.31773,4.51246 l 0,0 c 2.99935,-4.45946 6.21637,-8.78924 8.79007,-13.51504 4.87269,-8.68796 10.73736,-16.69682 15.95349,-25.17484 4.86172,-7.59447 9.4267,-15.42585 15.54329,-22.1095 0,0 10.40418,-4.44507 10.40418,-4.44507 z" />
    <path
       style="fill:#000000;fill-opacity:1;fill-rule:nonzero;stroke:#000000;stroke-width:4.69999981;stroke-linecap:round;stroke-linejoin:round;stroke-miterlimit:4;stroke-opacity:1;stroke-dasharray:none;stroke-dashoffset:0"
       id="path2898"
       d="m 292.38037,472.14809 c -5.1948,7.87139 -10.03787,15.95852 -15.3313,23.76522 0,0 -10.27533,4.48129 -10.27533,4.48129 l 0,0 c 5.34139,-7.74329 10.20937,-15.7814 15.25464,-23.71716 0,0 10.35199,-4.52935 10.35199,-4.52935 z" />
    <path
       style="fill:#000000;fill-opacity:1;fill-rule:nonzero;stroke:#000000;stroke-width:4.69999981;stroke-linecap:round;stroke-linejoin:round;stroke-miterlimit:4;stroke-opacity:1;stroke-dasharray:none;stroke-dashoffset:0"
       id="path2900"
       d="m 724.51206,316.09006 c -1.19673,0.2759 -2.40694,0.4988 -3.5902,0.82771 -2.95324,0.82091 -5.59625,1.79007 -8.38589,3.07272 -1.4063,0.6466 -5.52081,2.80226 -4.13915,2.10458 1.87496,-0.94677 3.53029,-2.63044 5.61903,-2.85185 1.51242,-0.16032 -2.47619,1.76663 -3.71428,2.64994 -3.42569,2.65584 -6.92074,5.21966 -10.41684,7.78134 0,0 -10.42691,4.13088 -10.42691,4.13088 l 0,0 c 3.51315,-2.55376 7.04126,-5.09027 10.43797,-7.79921 10.22624,-7.38441 21.10241,-14.35522 33.6646,-16.68834 0,0 -9.04833,6.77223 -9.04833,6.77223 z" />
    <path
       style="fill:#000000;fill-opacity:1;fill-rule:nonzero;stroke:#000000;stroke-width:4.69999981;stroke-linecap:round;stroke-linejoin:round;stroke-miterlimit:4;stroke-opacity:1;stroke-dasharray:none;stroke-dashoffset:0"
       id="path2902"
       d="m 666.98339,277.79633 c -5.32166,9.28594 -10.20161,18.81606 -15.58842,28.06275 -6.47059,9.87624 -12.354,20.16536 -19.6572,29.46274 -3.31837,3.81608 -1.7228,2.06041 -4.75987,5.29127 0,0 -10.39923,4.33328 -10.39923,4.33328 l 0,0 c 3.12247,-3.19495 1.48414,-1.45818 4.88756,-5.23603 7.4674,-9.1694 13.25032,-19.52319 19.79534,-29.34672 5.38697,-9.16328 10.16574,-18.66409 15.41875,-27.90585 0,0 10.30307,-4.66144 10.30307,-4.66144 z" />
    <path
       style="fill:#000000;fill-opacity:1;fill-rule:nonzero;stroke:#000000;stroke-width:4.69999981;stroke-linecap:round;stroke-linejoin:round;stroke-miterlimit:4;stroke-opacity:1;stroke-dasharray:none;stroke-dashoffset:0"
       id="path2904"
       d="m 637.77183,277.91985 c -7.58238,9.97384 -14.87571,20.1741 -22.20921,30.3345 -5.55099,8.26306 -11.87884,15.82182 -19.33339,22.40566 0,0 -10.37694,4.21201 -10.37694,4.21201 l 0,0 c 7.59156,-6.4607 14.03457,-13.91394 19.57041,-22.22499 7.28563,-10.12877 14.61,-20.23202 21.95926,-30.31278 0,0 10.38987,-4.4144 10.38987,-4.4144 z" />
    <path
       style="fill:#000000;fill-opacity:1;fill-rule:nonzero;stroke:#000000;stroke-width:4.69999981;stroke-linecap:round;stroke-linejoin:round;stroke-miterlimit:4;stroke-opacity:1;stroke-dasharray:none;stroke-dashoffset:0"
       id="path2906"
       d="m 583.54119,248.76523 c -8.43199,7.67428 -15.22606,16.91959 -21.79206,26.18144 -7.10292,9.98727 -14.3027,19.90472 -21.35733,29.92649 0,0 -10.16748,4.41595 -10.16748,4.41595 l 0,0 c 7.09194,-10.00526 14.27948,-19.94052 21.38397,-29.93652 6.50023,-9.2858 13.26112,-18.46682 21.43289,-26.37363 0,0 10.50001,-4.21373 10.50001,-4.21373 z" />
    <path
       style="fill:#000000;fill-opacity:1;fill-rule:nonzero;stroke:#000000;stroke-width:4.69999981;stroke-linecap:round;stroke-linejoin:round;stroke-miterlimit:4;stroke-opacity:1;stroke-dasharray:none;stroke-dashoffset:0"
       id="path2908"
       d="m 509.84053,243.51062 c -6.66149,9.91151 -13.42418,19.76976 -20.46469,29.41923 -9.5458,12.64921 -19.77405,24.74232 -30.25696,36.61746 0,0 -10.20663,4.29901 -10.20663,4.29901 l 0,0 c 10.54588,-11.81675 20.77056,-23.90502 30.33495,-36.53718 6.99919,-9.54815 13.57703,-19.38904 20.29026,-29.13709 0,0 10.30307,-4.66143 10.30307,-4.66143 z" />
    <path
       style="fill:#000000;fill-opacity:1;fill-rule:nonzero;stroke:#000000;stroke-width:4.69999981;stroke-linecap:round;stroke-linejoin:round;stroke-miterlimit:4;stroke-opacity:1;stroke-dasharray:none;stroke-dashoffset:0"
       id="path2910"
       d="m 458.07198,229.60023 c -6.90379,12.09183 -14.38157,23.83846 -22.00465,35.48744 -9.52765,14.53274 -20.20438,28.2101 -31.88363,41.06277 -1.50637,1.56983 -3.01273,3.13965 -4.5191,4.70948 0,0 -10.23467,4.25925 -10.23467,4.25925 l 0,0 c 1.52936,-1.5684 3.05872,-3.1368 4.58808,-4.7052 11.76411,-12.76121 22.46469,-26.40504 32.00116,-40.91909 7.55781,-11.57348 15.02081,-23.22092 21.74617,-35.30034 0,0 10.30664,-4.59431 10.30664,-4.59431 z" />
    <path
       style="fill:#000000;fill-opacity:1;fill-rule:nonzero;stroke:#000000;stroke-width:4.69999981;stroke-linecap:round;stroke-linejoin:round;stroke-miterlimit:4;stroke-opacity:1;stroke-dasharray:none;stroke-dashoffset:0"
       id="path2912"
       d="m 392.08346,240.47988 c -8.53906,8.16496 -15.59325,17.66677 -22.24827,27.38119 -8.98407,13.49675 -18.13387,26.85202 -27.68965,39.94935 -6.03768,7.56663 -3.07968,3.97201 -8.85011,10.80346 0,0 -10.2124,4.32595 -10.2124,4.32595 l 0,0 c 5.84958,-6.80959 2.85725,-3.23029 8.95331,-10.75763 9.55922,-13.0804 18.76201,-26.38149 27.68522,-39.90643 6.54964,-9.72807 13.52006,-19.23775 21.92021,-27.4708 0,0 10.44169,-4.32509 10.44169,-4.32509 z" />
    <path
       style="fill:#000000;fill-opacity:1;fill-rule:nonzero;stroke:#000000;stroke-width:4.69999981;stroke-linecap:round;stroke-linejoin:round;stroke-miterlimit:4;stroke-opacity:1;stroke-dasharray:none;stroke-dashoffset:0"
       id="path2914"
       d="m 301.24794,243.82555 c -5.25742,11.87537 -10.59644,23.70475 -16.09773,35.46909 -6.74808,13.96867 -14.90382,27.16169 -23.04341,40.34252 0,0 -10.14864,4.47904 -10.14864,4.47904 l 0,0 c 8.21358,-13.13282 16.38146,-26.31366 23.17607,-40.25687 5.43985,-11.70585 10.78151,-23.44719 15.85297,-35.31868 0,0 10.26074,-4.7151 10.26074,-4.7151 z" />
    <path
       style="fill:#000000;fill-opacity:1;fill-rule:nonzero;stroke:#000000;stroke-width:4.69999981;stroke-linecap:round;stroke-linejoin:round;stroke-miterlimit:4;stroke-opacity:1;stroke-dasharray:none;stroke-dashoffset:0"
       id="path2916"
       d="m 249.84053,254.93919 c -5.89572,11.61319 -11.89965,23.17211 -18.18093,34.58211 -7.78976,13.87675 -16.38407,27.27516 -24.95315,40.67691 0,0 -10.03256,4.40994 -10.03256,4.40994 l 0,0 c 8.61507,-13.35041 17.17906,-26.74645 24.96823,-40.602 6.22895,-11.32884 12.17739,-22.81091 17.89534,-34.40553 0,0 10.30307,-4.66143 10.30307,-4.66143 z" />
    <path
       style="fill:#000000;fill-opacity:1;fill-rule:nonzero;stroke:#000000;stroke-width:4.69999981;stroke-linecap:round;stroke-linejoin:round;stroke-miterlimit:4;stroke-opacity:1;stroke-dasharray:none;stroke-dashoffset:0"
       id="path2918"
       d="m 183.78627,266.74308 c -8.51047,14.33054 -16.22016,29.1183 -24.4084,43.63286 -14.36667,25.89057 -31.01613,50.37793 -47.8475,74.70229 -19.693396,28.35253 -40.983846,55.50981 -63.40562,81.74045 -12.833298,14.03768 -6.611043,7.38581 -18.629814,19.99011 0,0 -9.944518,4.14355 -9.944518,4.14355 l 0,0 c 12.17263,-12.62126 5.884499,-5.96425 18.825645,-20.00758 22.485484,-26.16887 43.804983,-53.29306 63.479547,-81.65332 16.77012,-24.24541 33.36227,-48.65427 47.61834,-74.49341 8.11366,-14.4251 15.73501,-29.12459 24.00567,-43.46063 0,0 10.30665,-4.59432 10.30665,-4.59432 z" />
    <path
       style="fill:#000000;fill-opacity:1;fill-rule:nonzero;stroke:#000000;stroke-width:4.69999981;stroke-linecap:round;stroke-linejoin:round;stroke-miterlimit:4;stroke-opacity:1;stroke-dasharray:none;stroke-dashoffset:0"
       id="path2920"
       d="m 80.929124,335.31451 c -8.592327,13.57994 -16.651431,27.49429 -24.871206,41.30284 -13.803794,23.49977 -29.40121,45.84069 -44.599798,68.43986 -15.1203912,22.71334 -31.217206,44.75654 -48.190589,66.11617 -2.03613,2.49909 -4.07226,4.99818 -6.10839,7.49727 0,0 -10.046981,4.27821 -10.046981,4.27821 l 0,0 c 2.068867,-2.50782 4.137735,-5.01564 6.206602,-7.52345 17.077728,-21.31853 33.241598,-43.35473 48.3741911,-66.10015 15.1551899,-22.54897 30.7125019,-44.83752 44.4431389,-68.30445 8.116024,-13.73017 16.070682,-27.5656 24.48639,-41.11198 0,0 10.306642,-4.59432 10.306642,-4.59432 z" />
    <path
       style="fill:#000000;fill-opacity:1;fill-rule:nonzero;stroke:#000000;stroke-width:4.69999981;stroke-linecap:round;stroke-linejoin:round;stroke-miterlimit:4;stroke-opacity:1;stroke-dasharray:none;stroke-dashoffset:0"
       id="path2922"
       d="m 139.90844,487.51174 c -15.73322,19.74307 -32.28371,38.8227 -48.782901,57.92566 -11.357166,13.38838 -23.656172,25.92309 -35.992785,38.39789 0,0 -10.030875,4.15853 -10.030875,4.15853 l 0,0 c 12.439787,-12.45442 24.824079,-24.99006 36.228958,-38.41552 16.385781,-18.95594 32.833803,-37.89275 48.261743,-57.64251 0,0 10.31586,-4.42405 10.31586,-4.42405 z" />
    <path
       style="fill:#000000;fill-opacity:1;fill-rule:nonzero;stroke:#000000;stroke-width:4.69999981;stroke-linecap:round;stroke-linejoin:round;stroke-miterlimit:4;stroke-opacity:1;stroke-dasharray:none;stroke-dashoffset:0"
       id="path2924"
       d="m 196.15778,352.26073 c -2.9941,15.71425 -8.80285,30.71741 -14.62745,45.55667 -8.87075,23.04754 -20.9994,44.53097 -33.7262,65.61442 -6.65565,10.13892 -3.43292,5.39652 -9.62122,14.25901 0,0 -10.11514,4.39334 -10.11514,4.39334 l 0,0 c 6.33301,-8.86758 3.04144,-4.12388 9.82546,-14.26512 12.78831,-21.00386 24.98033,-42.41468 33.80532,-65.446 5.74121,-14.68934 11.47995,-29.55115 14.31728,-45.12472 0,0 10.14195,-4.9876 10.14195,-4.9876 z" />
    <path
       style="fill:#000000;fill-opacity:1;fill-rule:nonzero;stroke:#000000;stroke-width:4.69999981;stroke-linecap:round;stroke-linejoin:round;stroke-miterlimit:4;stroke-opacity:1;stroke-dasharray:none;stroke-dashoffset:0"
       id="path2926"
       d="m 175.84787,512.33093 c -4.20272,14.50259 -8.72119,28.88209 -13.94576,43.05493 -9.00414,23.79676 -20.3967,46.56635 -31.90173,69.22514 -7.76863,15.16275 -15.97816,30.07731 -24.9289,44.57277 0,0 -10.115649,4.4619 -10.115649,4.4619 l 0,0 c 9.132499,-14.4644 17.453559,-29.39477 25.261689,-44.61638 11.4956,-22.59256 22.87368,-45.29811 31.82307,-69.04924 5.17087,-14.07241 9.64569,-28.34622 13.60163,-42.80193 0,0 10.20565,-4.84719 10.20565,-4.84719 z" />
    <path
       style="fill:#000000;fill-opacity:1;fill-rule:nonzero;stroke:#000000;stroke-width:4.69999981;stroke-linecap:round;stroke-linejoin:round;stroke-miterlimit:4;stroke-opacity:1;stroke-dasharray:none;stroke-dashoffset:0"
       id="path2928"
       d="m 201.53198,607.27733 c -2.82708,17.25841 -8.21435,33.92769 -13.34127,50.60228 -5.76675,18.45624 -12.59692,36.53429 -19.53126,54.57432 0,0 -9.8915,4.58709 -9.8915,4.58709 l 0,0 c 7.04985,-17.99624 13.8825,-36.0725 19.6338,-54.53477 5.05439,-16.56895 10.47292,-33.14288 12.98493,-50.33604 0,0 10.1453,-4.89288 10.1453,-4.89288 z" />
    <path
       style="fill:#000000;fill-opacity:1;fill-rule:nonzero;stroke:#000000;stroke-width:4.69999981;stroke-linecap:round;stroke-linejoin:round;stroke-miterlimit:4;stroke-opacity:1;stroke-dasharray:none;stroke-dashoffset:0"
       id="path2930"
       d="m -176.90356,292.35824 c 6.40906,16.18284 14.89394,31.41021 23.16587,46.68784 8.20362,15.43402 17.60633,30.16322 27.11947,44.80883 0,0 -9.48246,5.53501 -9.48246,5.53501 l 0,0 c -9.38231,-14.75821 -18.80304,-29.50461 -27.04061,-44.94707 -8.33853,-15.29337 -16.83702,-30.54014 -23.61886,-46.60851 0,0 9.85659,-5.4761 9.85659,-5.4761 z" />
    <path
       style="fill:#000000;fill-opacity:1;fill-rule:nonzero;stroke:#000000;stroke-width:4.69999981;stroke-linecap:round;stroke-linejoin:round;stroke-miterlimit:4;stroke-opacity:1;stroke-dasharray:none;stroke-dashoffset:0"
       id="path2932"
       d="m -145.78495,206.33652 c 4.02403,13.93338 10.69166,26.96761 17.27237,39.83572 11.82565,20.20604 22.87267,40.81688 32.730298,62.05334 6.366704,14.19431 12.228598,28.59202 17.275646,43.30627 0,0 -9.721025,5.35545 -9.721025,5.35545 l 0,0 c -4.822395,-14.7658 -10.591001,-29.17549 -16.947449,-43.34988 -9.84497,-21.22766 -20.89223,-41.82013 -32.82731,-61.94795 -6.66172,-12.90239 -13.35727,-25.94739 -17.70272,-39.84551 0,0 9.92019,-5.40744 9.92019,-5.40744 z" />
    <path
       style="fill:#000000;fill-opacity:1;fill-rule:nonzero;stroke:#000000;stroke-width:4.69999981;stroke-linecap:round;stroke-linejoin:round;stroke-miterlimit:4;stroke-opacity:1;stroke-dasharray:none;stroke-dashoffset:0"
       id="path2934"
       d="m -93.736752,175.16562 c 6.320445,14.08834 13.609106,27.66186 21.359062,41.00713 10.217425,17.86649 21.218929,35.25932 31.588118,53.03575 0,0 -9.483757,5.47615 -9.483757,5.47615 l 0,0 c -10.230302,-17.85736 -21.310106,-35.20056 -31.563013,-53.04616 -7.793013,-13.34146 -15.097682,-26.92176 -21.692798,-40.89724 0,0 9.792388,-5.57563 9.792388,-5.57563 z" />
    <path
       style="fill:#000000;fill-opacity:1;fill-rule:nonzero;stroke:#000000;stroke-width:4.69999981;stroke-linecap:round;stroke-linejoin:round;stroke-miterlimit:4;stroke-opacity:1;stroke-dasharray:none;stroke-dashoffset:0"
       id="path2936"
       d="m -22.927803,146.33652 c 4.228893,13.22693 8.622314,26.39847 12.809978,39.63948 5.4671442,16.69996 12.511884,32.77905 19.687651,48.79382 0,0 -9.6400154,5.42824 -9.6400154,5.42824 l 0,0 C -7.0945456,224.0713 -14.209788,207.97731 -19.722204,191.24804 c -4.222863,-13.21972 -8.623205,-26.37711 -13.125797,-39.50408 0,0 9.920198,-5.40744 9.920198,-5.40744 z" />
    <path
       style="fill:#000000;fill-opacity:1;fill-rule:nonzero;stroke:#000000;stroke-width:4.69999981;stroke-linecap:round;stroke-linejoin:round;stroke-miterlimit:4;stroke-opacity:1;stroke-dasharray:none;stroke-dashoffset:0"
       id="path2938"
       d="m 60.22459,123.04362 c 6.25146,13.70643 13.048097,27.16144 19.604404,40.72511 6.930383,14.14272 13.808206,28.3465 23.317906,40.95955 0,0 -9.601101,5.69116 -9.601101,5.69116 l 0,0 C 84.192951,197.61489 77.311888,183.35379 70.326768,169.16332 63.753544,155.62019 56.963444,142.18405 50.39742,128.63905 c 0,0 9.82717,-5.59543 9.82717,-5.59543 z" />
    <path
       style="fill:#000000;fill-opacity:1;fill-rule:nonzero;stroke:#000000;stroke-width:4.69999981;stroke-linecap:round;stroke-linejoin:round;stroke-miterlimit:4;stroke-opacity:1;stroke-dasharray:none;stroke-dashoffset:0"
       id="path2940"
       d="m 146.83628,93.935449 c 10.00019,8.870051 16.09775,20.697121 21.74275,32.580161 6.53053,14.89096 11.07136,30.51289 16.55911,45.79436 1.55628,3.28629 1.85185,8.09892 5.35282,10.03947 0,0 -9.56614,6.12357 -9.56614,6.12357 l 0,0 c -3.40314,-2.60894 -4.02318,-6.96999 -5.49295,-10.79409 -5.3349,-15.2992 -9.86792,-30.89331 -16.4225,-45.73848 -5.60687,-11.72937 -11.64796,-23.46353 -21.74449,-32.019603 0,0 9.5714,-5.985388 9.5714,-5.985388 z" />
    <path
       style="fill:#000000;fill-opacity:1;fill-rule:nonzero;stroke:#000000;stroke-width:4.69999981;stroke-linecap:round;stroke-linejoin:round;stroke-miterlimit:4;stroke-opacity:1;stroke-dasharray:none;stroke-dashoffset:0"
       id="path2942"
       d="m 234.82597,80.507066 c 7.18669,13.012651 14.39676,25.990394 22.09716,38.709164 6.19561,8.84851 11.19944,19.30964 19.74867,26.21524 2.59659,1.23033 1.32386,0.78281 3.78697,1.42827 0,0 -9.3616,6.38445 -9.3616,6.38445 l 0,0 c -2.5981,-0.90868 -1.25691,-0.3241 -3.98501,-1.83964 -8.37151,-7.29253 -13.5353,-17.61515 -19.69904,-26.67198 -7.68997,-12.73264 -14.86525,-25.74617 -22.36212,-38.587724 0,0 9.77497,-5.63778 9.77497,-5.63778 z" />
    <path
       style="fill:#000000;fill-opacity:1;fill-rule:nonzero;stroke:#000000;stroke-width:4.69999981;stroke-linecap:round;stroke-linejoin:round;stroke-miterlimit:4;stroke-opacity:1;stroke-dasharray:none;stroke-dashoffset:0"
       id="path2944"
       d="m 329.11168,80.507066 c 8.28443,14.015344 15.48189,28.628244 23.25267,42.925474 5.6519,11.18209 12.47038,21.55238 21.02211,30.69632 0,0 -9.53779,5.79027 -9.53779,5.79027 l 0,0 c -8.44798,-9.33328 -15.28306,-19.79978 -20.96218,-31.04709 -7.76374,-14.28731 -14.93483,-28.918631 -23.54978,-42.727194 0,0 9.77497,-5.63778 9.77497,-5.63778 z" />
    <path
       style="fill:#000000;fill-opacity:1;fill-rule:nonzero;stroke:#000000;stroke-width:4.69999981;stroke-linecap:round;stroke-linejoin:round;stroke-miterlimit:4;stroke-opacity:1;stroke-dasharray:none;stroke-dashoffset:0"
       id="path2946"
       d="m 457.36745,88.757903 c 7.47556,13.624777 15.20283,27.111227 22.74404,40.702037 8.6082,14.94484 17.345,29.95973 28.05099,43.52212 4.48776,4.21524 2.26045,2.40008 6.58751,5.55935 0,0 -9.49289,6.00199 -9.49289,6.00199 l 0,0 c -4.35174,-3.37218 -2.11143,-1.44828 -6.62633,-5.88006 -10.58521,-13.72118 -19.31041,-28.78877 -27.97791,-43.76267 -7.57632,-13.59092 -15.29593,-27.09395 -23.11258,-40.547331 0,0 9.82717,-5.595436 9.82717,-5.595436 z" />
    <path
       style="fill:#000000;fill-opacity:1;fill-rule:nonzero;stroke:#000000;stroke-width:4.69999981;stroke-linecap:round;stroke-linejoin:round;stroke-miterlimit:4;stroke-opacity:1;stroke-dasharray:none;stroke-dashoffset:0"
       id="path2948"
       d="m 558.57821,71.046545 c 12.14187,9.501144 19.87925,22.909831 27.61483,35.950465 8.9565,16.95665 16.50168,34.60682 25.11009,51.74067 3.88204,5.92543 6.09108,14.5863 12.89902,17.94314 0,0 -9.48903,6.18348 -9.48903,6.18348 l 0,0 c -6.65351,-4.10076 -9.0921,-12.31647 -12.96828,-18.68556 -8.49543,-17.15959 -16.01935,-34.79474 -25.00869,-51.70525 -7.69882,-12.901442 -15.39994,-26.232027 -27.67252,-35.378035 0,0 9.51458,-6.04891 9.51458,-6.04891 z" />
    <path
       style="fill:#000000;fill-opacity:1;fill-rule:nonzero;stroke:#000000;stroke-width:4.69999981;stroke-linecap:round;stroke-linejoin:round;stroke-miterlimit:4;stroke-opacity:1;stroke-dasharray:none;stroke-dashoffset:0"
       id="path2950"
       d="m 641.0598,87.422431 c 10.24938,5.271563 17.62036,13.391959 24.14711,22.698159 10.58003,16.08941 18.69135,33.60127 27.66138,50.5955 5.17103,9.56793 10.38207,19.11601 18.92442,26.03982 0,0 -9.51594,5.95046 -9.51594,5.95046 l 0,0 c -8.43281,-7.22416 -13.70933,-16.85913 -18.88295,-26.56894 -8.92239,-16.96394 -17.02132,-34.43539 -27.68846,-50.41386 -6.50448,-9.11529 -13.86418,-17.113061 -24.09257,-22.085341 0,0 9.44701,-6.215798 9.44701,-6.215798 z" />
    <path
       style="fill:#000000;fill-opacity:1;fill-rule:nonzero;stroke:#000000;stroke-width:4.69999981;stroke-linecap:round;stroke-linejoin:round;stroke-miterlimit:4;stroke-opacity:1;stroke-dasharray:none;stroke-dashoffset:0"
       id="path2952"
       d="m 754.82597,86.221352 c 9.31819,15.701428 17.60671,31.964248 25.73593,48.301768 11.02522,22.72736 20.81745,45.99024 32.34664,68.47178 3.79362,7.61098 8.64768,14.56517 13.60689,21.43633 0,0 -9.53475,5.62574 -9.53475,5.62574 l 0,0 c -4.89032,-6.97985 -9.6933,-14.03047 -13.4986,-21.68525 -11.41448,-22.54168 -21.17613,-45.82504 -32.29547,-68.51075 -8.17288,-16.28631 -16.48047,-32.52885 -26.13561,-48.001839 0,0 9.77497,-5.637779 9.77497,-5.637779 z" />
    <path
       style="fill:#000000;fill-opacity:1;fill-rule:nonzero;stroke:#000000;stroke-width:4.69999981;stroke-linecap:round;stroke-linejoin:round;stroke-miterlimit:4;stroke-opacity:1;stroke-dasharray:none;stroke-dashoffset:0"
       id="path2954"
       d="m 837.99196,189.03168 c 7.93645,11.8425 14.83764,24.37213 22.0516,36.66764 14.07013,23.75412 27.76176,47.73137 41.92041,71.43235 13.23757,21.05606 27.05812,41.74269 43.14446,60.73541 1.69416,1.89131 3.38833,3.78262 5.08249,5.67393 0,0 -9.43937,5.70485 -9.43937,5.70485 l 0,0 c -1.67118,-1.91603 -3.34237,-3.83206 -5.01355,-5.74809 -15.95021,-19.1642 -29.73603,-39.92675 -42.98249,-61.03096 -14.17245,-23.69576 -27.89147,-47.66007 -42.1362,-71.31391 -7.26976,-12.22547 -14.25089,-24.68591 -22.33649,-36.38981 0,0 9.70914,-5.73141 9.70914,-5.73141 z" />
    <path
       style="fill:#000000;fill-opacity:1;fill-rule:nonzero;stroke:#000000;stroke-width:4.69999981;stroke-linecap:round;stroke-linejoin:round;stroke-miterlimit:4;stroke-opacity:1;stroke-dasharray:none;stroke-dashoffset:0"
       id="path2956"
       d="m 960.50855,322.59736 c 8.23436,10.32516 15.14145,21.49397 21.34225,33.12974 8.40142,16.49725 15.6042,33.51069 22.3407,50.73982 0,0 -9.50852,5.29589 -9.50852,5.29589 l 0,0 c -6.60479,-17.23487 -13.84376,-34.18524 -22.32224,-50.59603 -6.23412,-11.54288 -13.18313,-22.63593 -21.56375,-32.765 0,0 9.71156,-5.80442 9.71156,-5.80442 z" />
    <path
       style="fill:#000000;fill-opacity:1;fill-rule:nonzero;stroke:#000000;stroke-width:4.69999981;stroke-linecap:round;stroke-linejoin:round;stroke-miterlimit:4;stroke-opacity:1;stroke-dasharray:none;stroke-dashoffset:0"
       id="path2958"
       d="m 931.66787,432.35824 c 5.08474,13.74698 12.08142,26.66358 18.88406,39.61074 0,0 -9.45585,5.40719 -9.45585,5.40719 l 0,0 c -6.778,-13.00337 -13.83488,-25.90452 -19.2848,-39.54183 0,0 9.85659,-5.4761 9.85659,-5.4761 z" />
    <path
       style="fill:#000000;fill-opacity:1;fill-rule:nonzero;stroke:#000000;stroke-width:4.69999981;stroke-linecap:round;stroke-linejoin:round;stroke-miterlimit:4;stroke-opacity:1;stroke-dasharray:none;stroke-dashoffset:0"
       id="path2960"
       d="m 920.50855,488.31165 c 9.2781,12.742 18.86235,25.26284 28.61989,37.64144 9.00334,11.89496 4.62633,6.07238 13.13632,17.46379 0,0 -9.36255,5.55056 -9.36255,5.55056 l 0,0 c -8.43774,-11.41661 -4.07483,-5.59813 -13.10094,-17.4463 -9.8161,-12.35294 -19.42188,-24.8717 -29.00428,-37.40507 0,0 9.71156,-5.80442 9.71156,-5.80442 z" />
    <path
       style="fill:#000000;fill-opacity:1;fill-rule:nonzero;stroke:#000000;stroke-width:4.69999981;stroke-linecap:round;stroke-linejoin:round;stroke-miterlimit:4;stroke-opacity:1;stroke-dasharray:none;stroke-dashoffset:0"
       id="path2962"
       d="m 900.22459,528.7579 c 7.34701,12.98584 16.34921,24.91479 25.14914,36.92886 14.60275,19.78651 29.81604,39.08927 43.79564,59.32909 7.39906,10.69962 14.0471,21.86659 20.35462,33.23282 0,0 -9.57708,5.49929 -9.57708,5.49929 l 0,0 c -6.13964,-11.4162 -12.70258,-22.58759 -20.06511,-33.26945 -13.97238,-20.23765 -29.16093,-39.54854 -43.87859,-59.24186 -8.90714,-12.02921 -17.94539,-24.00057 -25.60579,-36.88331 0,0 9.82717,-5.59544 9.82717,-5.59544 z" />
    <path
       style="fill:#000000;fill-opacity:1;fill-rule:nonzero;stroke:#000000;stroke-width:4.69999981;stroke-linecap:round;stroke-linejoin:round;stroke-miterlimit:4;stroke-opacity:1;stroke-dasharray:none;stroke-dashoffset:0"
       id="path2964"
       d="m 899.92504,580.25482 c 6.07322,14.98151 15.07748,28.578 23.70968,42.17233 12.52468,19.34444 24.57864,38.98508 36.94683,58.42891 0,0 -9.28947,5.41239 -9.28947,5.41239 l 0,0 c -12.23546,-19.52562 -24.36348,-39.12043 -36.99419,-58.39453 -8.76295,-13.62917 -17.83744,-27.23732 -24.28444,-42.16036 0,0 9.91159,-5.45874 9.91159,-5.45874 z" />
    <path
       style="fill:#000000;fill-opacity:1;fill-rule:nonzero;stroke:#000000;stroke-width:4.69999981;stroke-linecap:round;stroke-linejoin:round;stroke-miterlimit:4;stroke-opacity:1;stroke-dasharray:none;stroke-dashoffset:0"
       id="path2966"
       d="m 908.19384,655.32964 c 2.28287,18.74036 9.20043,36.35054 16.26567,53.70687 11.1532,27.28501 23.38621,54.12219 33.42617,81.84623 4.28048,13.10387 2.33905,6.89253 5.87465,18.6182 0,0 -9.6349,5.26116 -9.6349,5.26116 l 0,0 c -3.36533,-11.76943 -1.50301,-5.53971 -5.64659,-18.67123 -9.84799,-27.7821 -22.08801,-54.60336 -33.38102,-81.81575 -7.1817,-17.3727 -14.1819,-34.97369 -16.89385,-53.6979 0,0 9.98987,-5.24758 9.98987,-5.24758 z" />
    <path
       style="fill:#000000;fill-opacity:1;fill-rule:nonzero;stroke:#000000;stroke-width:4.69999981;stroke-linecap:round;stroke-linejoin:round;stroke-miterlimit:4;stroke-opacity:1;stroke-dasharray:none;stroke-dashoffset:0"
       id="path2968"
       d="m 899.92934,766.33652 c 3.04525,12.35323 8.02008,24.03376 13.15899,35.62741 10.43006,22.96476 21.68531,45.56137 33.26691,67.96747 8.50085,17.90522 18.54781,35.19604 25.85901,53.64882 0.38972,1.19936 0.77943,2.39872 1.16914,3.59808 0,0 -9.84962,5.39813 -9.84962,5.39813 l 0,0 c -0.35284,-1.19182 -0.70567,-2.38364 -1.05851,-3.57546 -6.90571,-18.58012 -16.97053,-35.87344 -25.40682,-53.76499 -11.59936,-22.41416 -22.91364,-44.99352 -33.52522,-67.89101 -5.24327,-11.5933 -10.28943,-23.26016 -13.53408,-35.60101 0,0 9.9202,-5.40744 9.9202,-5.40744 z" />
    <path
       style="fill:#000000;fill-opacity:1;fill-rule:nonzero;stroke:#000000;stroke-width:4.69999981;stroke-linecap:round;stroke-linejoin:round;stroke-miterlimit:4;stroke-opacity:1;stroke-dasharray:none;stroke-dashoffset:0"
       id="path2970"
       d="m 914.5103,877.32933 c 6.90535,12.85134 13.63166,25.79649 20.45679,38.69024 11.32545,21.62181 21.5039,43.89883 29.21238,67.07088 2.72394,7.15338 3.53124,14.52826 3.83716,22.07955 0,0 -9.9085,5.0838 -9.9085,5.0838 l 0,0 c -0.11728,-7.5037 -0.75701,-14.80334 -3.43664,-21.93189 -7.5313,-23.17003 -17.6967,-45.40071 -29.16203,-66.88336 -6.92753,-12.84568 -13.63176,-25.81341 -20.82633,-38.51378 0,0 9.82717,-5.59544 9.82717,-5.59544 z" />
    <path
       style="fill:#000000;fill-opacity:1;fill-rule:nonzero;stroke:#000000;stroke-width:4.69999981;stroke-linecap:round;stroke-linejoin:round;stroke-miterlimit:4;stroke-opacity:1;stroke-dasharray:none;stroke-dashoffset:0"
       id="path2972"
       d="m 859.32136,906.47445 c -0.20629,12.46893 3.61145,24.56366 6.8172,36.47821 6.59998,21.61609 13.29874,43.20543 19.02444,65.07274 1.97873,9.6285 1.16929,5.1052 2.51291,13.5546 0,0 -9.83022,5.1938 -9.83022,5.1938 l 0,0 c -1.18123,-8.4479 -0.4516,-3.9264 -2.28038,-13.5494 -5.54977,-21.9102 -12.2607,-43.49275 -19.02402,-65.05456 -3.31581,-11.9396 -7.27551,-24.04826 -7.29122,-36.56381 0,0 10.07129,-5.13158 10.07129,-5.13158 z" />
    <path
       style="fill:#000000;fill-opacity:1;fill-rule:nonzero;stroke:#000000;stroke-width:4.69999981;stroke-linecap:round;stroke-linejoin:round;stroke-miterlimit:4;stroke-opacity:1;stroke-dasharray:none;stroke-dashoffset:0"
       id="path2974"
       d="m 784.72921,915.11787 c -2.03559,12.37495 -1.60985,24.84968 -0.75803,37.30247 2.13789,21.54703 5.62745,42.92543 7.00222,64.54276 0.84871,9.6773 -0.77785,18.2236 -5.52016,26.5712 0,0 -10.21787,4.5331 -10.21787,4.5331 l 0,0 c 5.26859,-8.4534 6.72909,-16.0224 6.07308,-26.1057 -1.25149,-21.6137 -4.7748,-42.97343 -7.07977,-64.48823 -0.95366,-12.47114 -1.47179,-24.94178 0.35858,-37.368 0,0 10.14195,-4.9876 10.14195,-4.9876 z" />
    <path
       style="fill:#000000;fill-opacity:1;fill-rule:nonzero;stroke:#000000;stroke-width:4.69999981;stroke-linecap:round;stroke-linejoin:round;stroke-miterlimit:4;stroke-opacity:1;stroke-dasharray:none;stroke-dashoffset:0"
       id="path2976"
       d="m 664.92939,951.14694 c -2.72166,-1.84567 -5.24376,-4.05206 -8.4344,-5.07578 -0.83582,-0.26818 -1.71417,-0.53383 -2.59004,-0.47579 -0.72276,0.0479 -2.67624,1.10408 -2.02754,0.78178 2.75431,-1.36847 5.56724,-2.61567 8.35087,-3.9235 -1.93152,12.07945 3.07395,24.39939 6.6005,35.77004 6.30781,21.03331 13.63964,41.92351 16.67538,63.73911 0.17245,8.9059 0.32823,4.7478 -0.29516,12.4795 0,0 -9.97943,4.9683 -9.97943,4.9683 l 0,0 c 0.81175,-7.6399 0.56124,-3.5285 0.57469,-12.3436 -2.73975,-21.8103 -10.12752,-42.6522 -16.55194,-63.59026 -3.7583,-11.77852 -8.53564,-23.98655 -7.41762,-36.55494 13.94178,-9.38705 12.11987,-10.51003 24.67542,-1.79277 0,0 -9.58073,6.01791 -9.58073,6.01791 z" />
    <path
       style="fill:#000000;fill-opacity:1;fill-rule:nonzero;stroke:#000000;stroke-width:4.69999981;stroke-linecap:round;stroke-linejoin:round;stroke-miterlimit:4;stroke-opacity:1;stroke-dasharray:none;stroke-dashoffset:0"
       id="path2978"
       d="m 558.72324,917.72201 c -3.85768,10.91612 -0.55485,22.91999 1.89761,33.79306 5.01211,20.95072 12.54887,41.15641 18.38409,61.87683 2.38257,7.6799 3.97006,15.2281 2.43989,23.1666 0,0 -10.12659,4.8865 -10.12659,4.8865 l 0,0 c 1.93639,-7.7913 0.3777,-15.2025 -1.91026,-22.8309 -5.69609,-20.77792 -13.24242,-40.98546 -18.4353,-61.90445 -2.57284,-10.92747 -6.09133,-23.11164 -2.49154,-34.17756 0,0 10.2421,-4.81008 10.2421,-4.81008 z" />
    <path
       style="fill:#000000;fill-opacity:1;fill-rule:nonzero;stroke:#000000;stroke-width:4.69999981;stroke-linecap:round;stroke-linejoin:round;stroke-miterlimit:4;stroke-opacity:1;stroke-dasharray:none;stroke-dashoffset:0"
       id="path2980"
       d="m 461.85973,944.0261 c -2.4745,13.62116 -0.41635,27.27446 2.06981,40.71853 4.73405,23.14207 11.92347,45.67487 17.94901,68.49417 0.29124,1.8096 3.90054,13.3154 1.14328,15.3738 -3.47425,2.5935 -7.50618,4.341 -11.25927,6.5115 0,0 8.90949,-7.0066 8.90949,-7.0066 l 0,0 c -2.64194,1.7256 -5.05518,3.8664 -7.92582,5.1767 -0.75893,0.3464 1.16208,-1.3216 1.28702,-2.1465 0.5572,-3.6784 -1.08215,-9.5303 -1.73642,-12.716 -5.84626,-22.8933 -13.05294,-45.4354 -17.98817,-68.55572 -2.61403,-13.4594 -4.83735,-27.1613 -2.56621,-40.85236 0,0 10.11728,-4.99752 10.11728,-4.99752 z" />
    <path
       style="fill:#000000;fill-opacity:1;fill-rule:nonzero;stroke:#000000;stroke-width:4.69999981;stroke-linecap:round;stroke-linejoin:round;stroke-miterlimit:4;stroke-opacity:1;stroke-dasharray:none;stroke-dashoffset:0"
       id="path2982"
       d="m 360.9779,946.13418 c -7.86889,10.03274 -10.63462,22.86539 -13.07911,35.10184 -2.35506,22.45138 -0.18753,45.08718 0.90102,67.56178 1.14896,12.5438 0.84958,24.9257 -1.33014,37.3042 0,0 -9.96497,4.848 -9.96497,4.848 l 0,0 c 2.43199,-12.3287 2.89396,-24.6661 1.71644,-37.2139 -1.06203,-22.5218 -3.29544,-45.1702 -1.24051,-67.68579 2.35724,-12.28271 5.06507,-25.19325 12.59308,-35.47106 0,0 10.40419,-4.44507 10.40419,-4.44507 z" />
    <path
       style="fill:#000000;fill-opacity:1;fill-rule:nonzero;stroke:#000000;stroke-width:4.69999981;stroke-linecap:round;stroke-linejoin:round;stroke-miterlimit:4;stroke-opacity:1;stroke-dasharray:none;stroke-dashoffset:0"
       id="path2984"
       d="m 222.17053,961.10599 c 2.17285,19.65222 7.56361,38.7356 12.70798,57.76531 5.93503,21.9663 12.61995,43.7602 14.29675,66.546 0,0 -9.82951,5.0879 -9.82951,5.0879 l 0,0 c -1.24415,-22.8045 -7.87275,-44.5941 -13.88504,-66.5156 -5.22655,-19.0608 -10.63011,-38.13849 -13.34553,-57.76015 0,0 10.05535,-5.12346 10.05535,-5.12346 z" />
    <path
       style="fill:#000000;fill-opacity:1;fill-rule:nonzero;stroke:#000000;stroke-width:4.69999981;stroke-linecap:round;stroke-linejoin:round;stroke-miterlimit:4;stroke-opacity:1;stroke-dasharray:none;stroke-dashoffset:0"
       id="path2986"
       d="m 131.04168,933.1766 c 3.33893,19.54109 9.38968,38.48007 14.26147,57.66879 2.92056,10.60331 4.5699,21.37321 4.74199,32.34781 0,0 -9.93057,5.0652 -9.93057,5.0652 l 0,0 c 0.0802,-10.9441 -1.40156,-21.6886 -4.32051,-32.2668 -4.85859,-19.21641 -10.89509,-38.14448 -14.72364,-57.60856 0,0 9.97126,-5.20644 9.97126,-5.20644 z" />
    <path
       style="fill:#000000;fill-opacity:1;fill-rule:nonzero;stroke:#000000;stroke-width:4.69999981;stroke-linecap:round;stroke-linejoin:round;stroke-miterlimit:4;stroke-opacity:1;stroke-dasharray:none;stroke-dashoffset:0"
       id="path2988"
       d="m 47.884815,881.10599 c 1.345305,21.07252 7.139174,41.61279 12.421769,61.96684 3.560483,12.78002 6.661848,25.67962 9.788357,38.57026 0,0 -9.520262,5.13424 -9.520262,5.13424 l 0,0 C 57.562102,973.8547 54.529893,960.93312 50.923534,948.15933 45.58016,927.7758 39.747804,907.28234 37.82947,886.22945 c 0,0 10.055345,-5.12346 10.055345,-5.12346 z" />
    <path
       style="fill:#000000;fill-opacity:1;fill-rule:nonzero;stroke:#000000;stroke-width:4.69999981;stroke-linecap:round;stroke-linejoin:round;stroke-miterlimit:4;stroke-opacity:1;stroke-dasharray:none;stroke-dashoffset:0"
       id="path2990"
       d="m -48.016907,795.53362 c 9.042983,19.99256 17.134897,40.39037 25.698069,60.58878 6.043637,14.49935 11.93172,29.05958 17.6420638,43.69303 0,0 -9.5724038,5.32689 -9.5724038,5.32689 l 0,0 c -5.523406,-14.70461 -11.31664,-29.30084 -17.397755,-43.78486 -8.582448,-20.16048 -16.68254,-40.54108 -26.173481,-60.30069 0,0 9.803507,-5.52315 9.803507,-5.52315 z" />
    <path
       style="fill:#000000;fill-opacity:1;fill-rule:nonzero;stroke:#000000;stroke-width:4.69999981;stroke-linecap:round;stroke-linejoin:round;stroke-miterlimit:4;stroke-opacity:1;stroke-dasharray:none;stroke-dashoffset:0"
       id="path2992"
       d="m -88.33213,700.92967 c 8.398855,21.57258 17.958579,42.66982 27.577282,63.71866 2.184691,4.66794 4.369381,9.33588 6.554072,14.00382 0,0 -9.242274,5.22816 -9.242274,5.22816 l 0,0 c -2.166304,-4.68023 -4.332608,-9.36045 -6.498912,-14.04067 -9.718184,-21.00749 -19.349562,-42.0624 -28.246755,-63.43387 0,0 9.856587,-5.4761 9.856587,-5.4761 z" />
    <path
       style="fill:#000000;fill-opacity:1;fill-rule:nonzero;stroke:#000000;stroke-width:4.69999981;stroke-linecap:round;stroke-linejoin:round;stroke-miterlimit:4;stroke-opacity:1;stroke-dasharray:none;stroke-dashoffset:0"
       id="path2994"
       d="m -180.07066,620.62224 c 5.28548,17.92561 15.56213,33.99202 25.13123,49.88378 2.16093,3.44844 4.32187,6.89689 6.4828,10.34533 0,0 -9.32507,5.42604 -9.32507,5.42604 l 0,0 c -2.1473,-3.46195 -4.29459,-6.92389 -6.44189,-10.38584 -9.68491,-15.93706 -20.02188,-31.99692 -25.76727,-49.86187 0,0 9.9202,-5.40744 9.9202,-5.40744 z" />
    <path
       style="fill:#000000;fill-opacity:1;fill-rule:nonzero;stroke:#000000;stroke-width:4.69999981;stroke-linecap:round;stroke-linejoin:round;stroke-miterlimit:4;stroke-opacity:1;stroke-dasharray:none;stroke-dashoffset:0"
       id="path2996"
       d="m -236.29375,483.3174 c 13.62948,21.04581 29.89466,40.2363 45.62203,59.71713 14.75982,17.31493 7.51958,8.98034 21.69394,25.027 0,0 -9.08599,5.48659 -9.08599,5.48659 l 0,0 c -14.0667,-16.14772 -6.85106,-7.78127 -21.63056,-25.11345 -15.82862,-19.47329 -32.13118,-38.65031 -46.30857,-59.38587 0,0 9.70915,-5.7314 9.70915,-5.7314 z" />
    <path
       style="fill:#000000;fill-opacity:1;fill-rule:nonzero;stroke:#000000;stroke-width:4.69999981;stroke-linecap:round;stroke-linejoin:round;stroke-miterlimit:4;stroke-opacity:1;stroke-dasharray:none;stroke-dashoffset:0"
       id="path2998"
       d="m -285.4897,377.32933 c 8.75978,18.57659 21.45054,34.90829 34.14738,50.9096 9.95586,12.22002 20.62903,23.81948 31.2857,35.42243 0,0 -9.10979,5.52553 -9.10979,5.52553 l 0,0 c -10.59913,-11.68437 -21.27307,-23.31196 -31.3089,-35.49106 -12.84063,-16.01131 -25.58298,-32.35205 -34.84156,-50.77106 0,0 9.82717,-5.59544 9.82717,-5.59544 z" />
    <path
       style="fill:#000000;fill-opacity:1;fill-rule:nonzero;stroke:#000000;stroke-width:4.69999981;stroke-linecap:round;stroke-linejoin:round;stroke-miterlimit:4;stroke-opacity:1;stroke-dasharray:none;stroke-dashoffset:0"
       id="path3000"
       d="m -234.05185,349.13256 c 9.64338,18.648 21.06426,36.26689 32.79079,53.65171 11.94051,17.85246 24.48015,35.29044 37.10042,52.66493 0,0 -9.17031,5.41883 -9.17031,5.41883 l 0,0 c -12.50368,-17.46962 -25.08182,-34.89087 -37.10206,-52.69962 -11.85398,-17.39222 -23.34869,-35.03276 -33.46456,-53.5062 0,0 9.84572,-5.52965 9.84572,-5.52965 z" />
    <path
       style="fill:#000000;fill-opacity:1;fill-rule:nonzero;stroke:#000000;stroke-width:4.69999981;stroke-linecap:round;stroke-linejoin:round;stroke-miterlimit:4;stroke-opacity:1;stroke-dasharray:none;stroke-dashoffset:0"
       id="path3002"
       d="m -161.39994,531.43339 c 5.41157,5.05457 11.05892,9.84718 16.67566,14.66955 0,0 -9.32857,5.81511 -9.32857,5.81511 l 0,0 c -5.64171,-4.83426 -11.31203,-9.63561 -16.90538,-14.52591 0,0 9.55829,-5.95875 9.55829,-5.95875 z" />
    <path
       style="fill:#000000;fill-opacity:1;fill-rule:nonzero;stroke:#000000;stroke-width:4.69999981;stroke-linecap:round;stroke-linejoin:round;stroke-miterlimit:4;stroke-opacity:1;stroke-dasharray:none;stroke-dashoffset:0"
       id="path3004"
       d="m 71.050984,795.32964 c 2.613919,18.96278 7.799532,37.46778 13.371633,55.74104 3.44187,11.89194 7.821028,23.47068 12.199869,35.03815 0,0 -9.478347,5.2652 -9.478347,5.2652 l 0,0 C 82.842572,879.75064 78.483562,868.1369 74.990021,856.23611 69.348013,837.96179 64.123788,819.48384 61.061114,800.57722 c 0,0 9.98987,-5.24758 9.98987,-5.24758 z" />
    <path
       style="fill:#000000;fill-opacity:1;fill-rule:nonzero;stroke:#000000;stroke-width:4.69999981;stroke-linecap:round;stroke-linejoin:round;stroke-miterlimit:4;stroke-opacity:1;stroke-dasharray:none;stroke-dashoffset:0"
       id="path3006"
       d="m 168.49647,868.82625 c 4.10684,12.43088 9.20185,24.48366 14.09828,36.6147 0.97106,2.39887 1.94212,4.79773 2.91319,7.1966 0,0 -9.62234,5.37521 -9.62234,5.37521 l 0,0 c -0.9585,-2.40461 -1.917,-4.80922 -2.87551,-7.21383 -4.93294,-12.12517 -10.0476,-24.17203 -14.42522,-36.51394 0,0 9.9116,-5.45874 9.9116,-5.45874 z" />
    <path
       style="fill:#000000;fill-opacity:1;fill-rule:nonzero;stroke:#000000;stroke-width:4.69999981;stroke-linecap:round;stroke-linejoin:round;stroke-miterlimit:4;stroke-opacity:1;stroke-dasharray:none;stroke-dashoffset:0"
       id="path3008"
       d="m 271.66243,897.70399 c 3.81521,8.13287 6.93838,16.52058 9.75133,25.04372 0,0 -9.77986,5.3769 -9.77986,5.3769 l 0,0 c -2.72845,-8.51454 -5.81266,-16.88007 -9.81718,-24.89098 0,0 9.84571,-5.52964 9.84571,-5.52964 z" />
    <path
       style="fill:#000000;fill-opacity:1;fill-rule:nonzero;stroke:#000000;stroke-width:4.69999981;stroke-linecap:round;stroke-linejoin:round;stroke-miterlimit:4;stroke-opacity:1;stroke-dasharray:none;stroke-dashoffset:0"
       id="path3010"
       d="m 311.05422,863.54641 c 1.82505,15.44881 4.38703,30.82368 6.94166,46.17079 2.09037,10.87338 3.8432,21.80699 5.64125,32.73116 0,0 -9.62037,5.09734 -9.62037,5.09734 l 0,0 c -1.72984,-10.93524 -3.4617,-21.87262 -5.61903,-32.7341 -2.6177,-15.29972 -5.21654,-30.619 -7.33985,-45.99181 0,0 9.99634,-5.27338 9.99634,-5.27338 z" />
    <path
       style="fill:#000000;fill-opacity:1;fill-rule:nonzero;stroke:#000000;stroke-width:4.69999981;stroke-linecap:round;stroke-linejoin:round;stroke-miterlimit:4;stroke-opacity:1;stroke-dasharray:none;stroke-dashoffset:0"
       id="path3012"
       d="m 399.31339,875.39171 c 0.91633,16.27629 4.09201,32.29454 7.09155,48.2831 3.86181,17.85054 7.74714,35.68063 12.35837,53.3545 0,0 -9.6284,5.21406 -9.6284,5.21406 l 0,0 c -4.46091,-17.74089 -8.36942,-35.59795 -12.3069,-53.46085 -3.05981,-16.00126 -6.27583,-32.00026 -7.56997,-48.26736 0,0 10.05535,-5.12345 10.05535,-5.12345 z" />
    <path
       style="fill:#000000;fill-opacity:1;fill-rule:nonzero;stroke:#000000;stroke-width:4.69999981;stroke-linecap:round;stroke-linejoin:round;stroke-miterlimit:4;stroke-opacity:1;stroke-dasharray:none;stroke-dashoffset:0"
       id="path3014"
       d="m 507.89279,877.90302 c 0.69789,15.60404 5.96469,30.52411 10.84969,45.21341 4.22137,11.88437 9.39237,23.39033 14.66951,34.83282 0,0 -9.58777,5.41333 -9.58777,5.41333 l 0,0 c -5.18835,-11.5286 -10.35086,-23.08177 -14.62327,-34.99041 -4.95268,-14.76059 -10.25205,-29.6904 -11.37945,-45.33757 0,0 10.07129,-5.13158 10.07129,-5.13158 z" />
    <path
       style="fill:#000000;fill-opacity:1;fill-rule:nonzero;stroke:#000000;stroke-width:4.69999981;stroke-linecap:round;stroke-linejoin:round;stroke-miterlimit:4;stroke-opacity:1;stroke-dasharray:none;stroke-dashoffset:0"
       id="path3016"
       d="m 596.44827,864.30896 c 0.8885,17.74002 4.77621,35.18793 8.33089,52.54293 3.7807,18.17409 8.76016,36.08042 13.76387,53.94959 0,0 -9.61397,5.22848 -9.61397,5.22848 l 0,0 c -4.85568,-17.94408 -9.84735,-35.87601 -13.69103,-54.06926 -3.61738,-17.37314 -7.51407,-34.80349 -8.82916,-52.53641 0,0 10.0394,-5.11533 10.0394,-5.11533 z" />
    <path
       style="fill:#000000;fill-opacity:1;fill-rule:nonzero;stroke:#000000;stroke-width:4.69999981;stroke-linecap:round;stroke-linejoin:round;stroke-miterlimit:4;stroke-opacity:1;stroke-dasharray:none;stroke-dashoffset:0"
       id="path3018"
       d="m 708.49945,881.70006 c 3.92563,21.59809 10.22113,42.63809 16.85205,63.52992 6.01847,18.26853 12.85616,36.25474 19.57589,54.27346 0,0 -9.41031,5.22096 -9.41031,5.22096 l 0,0 c -6.58277,-18.09203 -13.42682,-36.09469 -19.51112,-54.36294 -6.69903,-20.86493 -13.05248,-41.86141 -17.42407,-63.35902 0,0 9.91756,-5.30238 9.91756,-5.30238 z" />
    <path
       style="fill:#000000;fill-opacity:1;fill-rule:nonzero;stroke:#000000;stroke-width:4.69999981;stroke-linecap:round;stroke-linejoin:round;stroke-miterlimit:4;stroke-opacity:1;stroke-dasharray:none;stroke-dashoffset:0"
       id="path3020"
       d="m 900.84911,377.60311 c 12.17022,14.66949 23.5432,29.97145 34.7389,45.39131 8.26695,11.60146 16.00001,23.56798 23.80444,35.48116 0,0 -9.25715,5.41092 -9.25715,5.41092 l 0,0 c -7.7273,-11.94116 -15.45336,-23.8895 -23.77227,-35.43269 -11.3129,-15.36526 -22.74425,-30.67207 -35.22307,-45.1193 0,0 9.70915,-5.7314 9.70915,-5.7314 z" />
  </g>
</svg>
