<?xml version="1.0" encoding="UTF-8" standalone="no"?>
<!-- Created with Inkscape (http://www.inkscape.org/) -->
<svg
   xmlns:dc="http://purl.org/dc/elements/1.1/"
   xmlns:cc="http://creativecommons.org/ns#"
   xmlns:rdf="http://www.w3.org/1999/02/22-rdf-syntax-ns#"
   xmlns:svg="http://www.w3.org/2000/svg"
   xmlns="http://www.w3.org/2000/svg"
   xmlns:sodipodi="http://sodipodi.sourceforge.net/DTD/sodipodi-0.dtd"
   xmlns:inkscape="http://www.inkscape.org/namespaces/inkscape"
   width="2517.4717"
   height="561.78314"
   id="svg2"
   sodipodi:version="0.32"
   inkscape:version="0.46+devel"
   version="1.0"
   sodipodi:docname="c28d1.svg"
   inkscape:output_extension="org.inkscape.output.svg.inkscape">
  <defs
     id="defs4">
    <inkscape:perspective
       sodipodi:type="inkscape:persp3d"
       inkscape:vp_x="0 : 526.18109 : 1"
       inkscape:vp_y="0 : 1000 : 0"
       inkscape:vp_z="744.09448 : 526.18109 : 1"
       inkscape:persp3d-origin="372.04724 : 350.78739 : 1"
       id="perspective10" />
  </defs>
  <sodipodi:namedview
     id="base"
     pagecolor="#ffffff"
     bordercolor="#666666"
     borderopacity="1.0"
     inkscape:pageopacity="0.0"
     inkscape:pageshadow="2"
     inkscape:zoom="0.35"
     inkscape:cx="1017.7314"
     inkscape:cy="170.12193"
     inkscape:document-units="px"
     inkscape:current-layer="layer1"
     showgrid="false"
     inkscape:window-width="1280"
     inkscape:window-height="712"
     inkscape:window-x="-5"
     inkscape:window-y="-3" />
  <metadata
     id="metadata7">
    <rdf:RDF>
      <cc:Work
         rdf:about="">
        <dc:format>image/svg+xml</dc:format>
        <dc:type
           rdf:resource="http://purl.org/dc/dcmitype/StillImage" />
        <dc:title></dc:title>
      </cc:Work>
    </rdf:RDF>
  </metadata>
  <g
     inkscape:label="Layer 1"
     inkscape:groupmode="layer"
     id="layer1"
     transform="translate(642.73136,-140.70094)">
    <path
       style="fill:#000000;fill-opacity:1;fill-rule:nonzero;stroke:#000000;stroke-width:4.69999981;stroke-linecap:round;stroke-linejoin:round;stroke-miterlimit:4;stroke-opacity:1;stroke-dasharray:none;stroke-dashoffset:0"
       id="path2694"
       d="m -118.72324,624.14521 c 3.13219,-7.61689 12.77518,-15.7334 21.034662,-15.19345 4.096413,0.73982 4.376987,3.93762 2.242499,6.89669 -6.141261,5.62593 -13.855571,9.36885 -22.025851,10.74378 -4.48861,-0.0761 -6.74505,-2.81727 -4.85394,-6.96024 6.30959,-5.98087 14.47321,-11.46058 23.321057,-12.07673 5.171494,0.0915 9.452638,0.69377 10.659036,6.28527 -0.648597,9.40679 -11.428004,13.01269 -18.273113,16.95032 -4.01029,1.90662 -7.11452,1.6872 -10.11742,-1.64599 -1.63358,-3.61045 -0.36866,-6.31705 2.40666,-8.76882 3.14817,-1.66781 9.41546,-7.97465 14.534026,-5.86839 0.875439,0.36024 1.306999,1.43396 2.195685,1.34455 0.125236,0.26418 1.573289,-1.0757 1.151986,-0.85111 -2.993655,1.59592 -12.201777,5.53049 -8.846017,5.03272 4.69231,-0.69603 10.390495,-9.41892 12.355303,-3.49877 -0.252445,4.49374 -2.94289,8.37135 -5.932492,11.5403 -3.864841,3.21197 -15.480841,13.41733 -18.653751,5.19134 -0.73884,-6.54 2.89994,-12.25097 6.77207,-17.1774 5.92322,-5.41771 14.589143,-12.6347 22.896873,-12.20079 4.150299,1.82354 3.745777,5.51061 2.729352,9.28698 -2.564869,6.36261 -8.037315,10.65402 -13.735345,14.10571 -5.30496,2.90716 -15.55674,11.87136 -21.55356,4.71284 -2.22922,-4.23989 -0.335,-8.21107 2.48047,-11.55198 6.34876,-5.11794 14.74906,-11.06917 23.443496,-10.70235 3.684016,0.86796 7.023283,3.37285 4.018707,6.98593 -4.963023,3.1282 -12.775813,10.64124 -18.041853,4.24196 -2.98318,-2.93365 -3.30055,-6.39544 -2.15107,-10.22675 3.46136,-5.63123 12.700556,-12.2257 18.686668,-10.96109 3.586083,1.20309 4.986383,4.83426 5.026431,8.35655 -0.705906,6.30722 -9.429704,13.62308 -15.439329,10.77987 -1.90178,-1.61861 -2.0737,-2.64635 -4.64737,-1.82492 -5.69947,3.28376 -0.16411,3.28989 8.475864,-6.51854 1.815249,-2.06074 -4.769904,2.72579 -7.204734,3.99598 -1.27911,0.66728 2.49918,-1.4424 3.73541,-2.18612 1.76958,-1.06459 3.521027,-2.15902 5.28154,-3.23853 22.5375,-14.15568 45.53709,-27.55573 68.578254,-40.86968 37.1306229,-21.45541 74.604678,-42.28618 111.477535,-64.18099 37.261171,-22.03077 74.171101,-44.63499 110.921481,-67.50455 27.59817,-16.74742 55.16086,-33.63191 83.52881,-49.05814 -5.51666,3.01448 21.84911,-12.44531 16.43963,-9.24249 -13.62571,8.06745 -7.47607,4.87875 -5.48075,2.60883 -3.07131,1.03243 -8.13035,0.28429 -11.60524,0.32198 0,0 9.10273,-6.6276 9.10273,-6.6276 l 0,0 c 3.58224,-0.0336 10.34107,-1.31246 12.88014,1.61053 -1.2423,4.091 -24.19695,14.27795 -29.83265,18.1733 -22.1969,12.08556 -43.75087,25.31336 -65.33391,38.45399 -36.80946,22.88568 -73.76824,45.52188 -111.077117,67.58723 -36.786761,21.86536 -74.038572,42.90289 -111.215852,64.09356 -22.862251,13.22297 -45.694461,26.5157 -68.026358,40.62251 -3.992055,2.48975 -19.305843,12.21399 -21.080803,12.45335 -3.9714,0.53555 5.58223,-6.55884 9.50971,-7.35492 2.25504,-0.19045 3.314824,1.02204 4.976627,2.28478 3.332644,0.30693 11.523427,-5.29865 -6.485979,4.79958 -1.561238,0.87541 3.997543,-3.00461 2.391956,-4.06771 0.304067,-3.00732 -0.986136,-6.18854 -4.153154,-6.9253 -4.78946,-0.18779 -1.90704,0.23495 6.295144,-5.10326 2.040464,-1.328 -7.793184,5.22549 -5.461414,4.70446 -1.3122,3.50251 -1.25985,6.45149 1.610117,9.18949 4.1511,4.60919 14.583311,-4.15271 -2.184957,5.93924 3.819665,-2.8644 0.67715,-3.90709 -2.66153,-4.66677 -2.42622,0.10865 -4.48838,0.53371 -6.76522,1.42358 -0.8293,0.32413 -3.18648,1.56817 -2.44564,1.07425 15.148672,-10.09967 7.53005,-4.47962 5.33212,-2.82439 -2.62988,2.76554 -5.10166,6.16337 -3.17935,10.07393 4.74652,5.231 15.905743,-3.92759 1.31877,5.19408 5.67643,-3.23039 11.201393,-7.21777 14.031255,-13.31251 0.93189,-2.81066 2.088477,-6.45887 -1.676172,-7.45203 -2.811146,0.22227 -7.435643,2.68893 -5.926743,1.66807 14.909098,-10.08684 5.338714,-2.95737 2.54088,-0.54836 -3.835,4.52147 -7.50253,9.90505 -7.17825,16.09851 0.39021,1.38593 0.97666,1.98883 2.56946,1.76531 0.56841,-0.0798 2.12519,-0.8012 1.65669,-0.46959 -16.00759,11.33042 -8.18983,5.136 -5.94259,3.31869 3.05422,-2.86126 5.49272,-6.32303 6.32079,-10.50201 0.0707,-0.24997 -0.7353,-0.43054 -0.52195,-0.57875 2.83271,-1.96778 11.913649,-6.91815 8.7832,-5.47017 -3.090383,1.42945 -7.71192,6.85587 -12.29492,6.42319 -0.67894,-0.38282 -1.30874,-1.085 -2.08391,-1.26577 -4.03086,-0.93999 -10.67937,4.95109 5.29633,-4.83165 -2.57781,1.74119 -4.45659,3.83201 -3.23908,7.08096 2.85043,2.92588 5.80418,2.19535 9.222482,0.44662 -15.837702,9.34453 -1.033678,2.27461 -0.524762,-4.52595 -0.767938,-4.99541 -5.47604,-4.90985 -9.71742,-4.88955 -0.90052,0.12762 -1.81737,0.16968 -2.70155,0.38285 -0.90242,0.21757 -3.36817,1.47183 -2.63417,0.90356 2.22485,-1.72247 4.82322,-2.90085 7.18645,-4.42792 1.39833,-0.90358 -2.89632,1.66019 -4.22639,2.66153 -0.52142,0.39256 -1.0231,0.81066 -1.53465,1.21599 -2.6811,3.71096 -0.33416,4.8735 3.52876,4.76086 3.82333,-0.76624 7.43538,-2.35076 6.76657,-1.86628 -13.75527,9.96414 -7.52931,4.30063 -4.23102,2.33687 2.24071,-1.97461 2.77708,-4.35518 -0.94237,-4.63572 -4.87387,0.39535 -1.83083,0.42755 5.80471,-4.64927 0.67579,-0.44932 -1.48259,0.68586 -2.13828,1.16404 -2.50189,1.82458 -4.19024,4.35215 -5.2963,7.20672 0,0 -10.2421,4.81007 -10.2421,4.81007 z" />
    <path
       style="fill:#000000;fill-opacity:1;fill-rule:nonzero;stroke:#000000;stroke-width:4.69999981;stroke-linecap:round;stroke-linejoin:round;stroke-miterlimit:4;stroke-opacity:1;stroke-dasharray:none;stroke-dashoffset:0"
       id="path2696"
       d="m -120.9779,352.8759 c 7.11513,-8.38749 15.29298,-12.76813 24.917967,-18.08167 4.872965,-1.70991 7.136822,2.04326 8.603092,6.06013 0.871484,5.34121 -1.541201,9.44982 -5.181615,13.10179 -6.838661,5.69359 -14.562444,10.96711 -23.440194,12.58111 -5.52956,0.27288 -7.32578,-3.89959 -8.35723,-8.5773 -0.43831,-6.63186 3.5282,-12.02064 7.73134,-16.73109 7.40312,-5.85342 16.25113,-12.95215 26.069126,-10.72768 5.78596,1.89474 6.458219,7.91621 5.749491,13.15177 -2.058864,8.02607 -6.308711,13.26638 -12.969442,17.90632 -7.813285,4.66378 -16.995345,11.57581 -25.758055,5.56019 -3.97039,-4.11776 -3.51588,-9.37703 -1.50538,-14.32238 1.43684,-2.87145 3.71018,-4.80042 6.484,-6.33206 8.38311,-4.62897 11.07927,-6.7305 18.883443,-8.15639 5.36188,-0.31815 9.855279,0.87334 11.576485,6.32329 0.212242,6.22053 -4.453323,10.0764 -8.693775,13.85894 -6.508973,4.45218 -14.172013,12.81492 -22.238343,8.86528 -3.57407,-3.35491 -2.59589,-7.81407 -1.10469,-11.92852 3.42908,-6.65308 11.2578,-13.23045 18.68914,-13.92284 3.469138,0.39668 3.192174,4.08821 2.153139,6.52895 -3.834779,4.54618 -11.893679,11.92684 -17.554639,8.30218 -2.49858,-2.22428 -2.1525,-5.39731 -0.9069,-8.16798 3.2255,-5.19841 11.66915,-10.55004 18.015274,-9.87781 4.10993,0.52329 5.685185,3.72159 4.255631,7.39508 -3.390674,4.66486 -12.130405,11.62901 -17.643765,8.43519 -2.00515,-2.19951 -0.13456,-4.37312 1.61342,-5.96936 1.47817,4.92436 11.705995,-9.20579 15.647391,-4.8064 0.514005,1.43552 -0.162167,2.53804 -1.07365,3.59262 -0.565234,1.17531 -1.430181,-0.71046 -0.436661,-0.74843 2.628095,0.002 5.256177,-0.009 7.884272,-0.0109 3.539019,-0.006 7.078062,-0.003 10.61709,-0.002 4.896511,-1.18663 9.844276,-1.96445 14.863426,-2.36201 7.229523,-0.46585 14.478401,-0.45039 21.719502,-0.47791 8.71825,-0.009 17.436499,0.006 26.154743,0.0149 8.9776026,-0.031 17.8878775,-1.41665 26.836779,-2.09795 9.312273,-0.13249 18.506126,-1.59615 27.755981,-2.51189 7.947644,-1.2447 15.856316,-0.11795 23.774339,0.68368 6.318002,0.66163 12.666653,0.88974 19.014243,1.00764 5.329367,-0.38403 10.470491,0.78701 15.643594,1.86162 3.463681,0.73016 6.992861,0.90556 10.519831,1.00026 4.67156,0.0723 9.34403,0.0539 14.01601,0.0507 6.49858,-0.28475 12.93308,-1.5244 19.43038,-2.10888 8.60293,-0.85605 17.25198,-1.81593 25.79268,-3.21099 10.01595,-1.49599 20.026,-3.08434 29.95976,-5.06294 10.18758,-1.73398 20.39432,-3.3773 30.61548,-4.91703 8.19544,-0.79471 16.30969,-1.8197 24.43313,-3.15917 5.3587,-0.88499 10.77003,-1.30221 16.19134,-1.5147 3.76089,-0.43116 7.21295,0.61847 10.58918,2.18094 3.92727,1.61009 7.93578,2.85714 11.62125,4.99805 3.38468,1.69644 6.15326,4.04735 8.79767,6.71875 2.75129,2.47467 4.63687,5.2938 5.57327,8.86216 0.61869,3.32157 0.70794,6.70652 0.76769,10.07524 0.0661,5.13389 0.0716,1.72392 -10.15579,5.53196 0,0 10.11208,-5.16852 10.11208,-5.16852 l 0,0 c -11.53311,7.44713 -10.12446,10.28085 -10.08389,4.80713 0.005,-3.29113 -0.0625,-6.5974 -0.6104,-9.85053 -0.82488,-3.40054 -2.66125,-6.00604 -5.27542,-8.3364 -2.57336,-2.59569 -5.33246,-4.79959 -8.60769,-6.46845 -3.69959,-2.02404 -7.69937,-3.24808 -11.56969,-4.89463 -3.33944,-1.37306 -6.64108,-2.21915 -10.28803,-1.76632 -5.37569,0.2215 -10.73833,0.69805 -16.04933,1.58172 -8.10314,1.32764 -16.22502,2.19694 -24.38322,3.10396 -10.20698,1.55286 -20.41178,3.14554 -30.57581,4.94767 -9.96039,1.92083 -19.97586,3.54607 -30.00698,5.0475 -8.58146,1.31696 -17.23086,2.37419 -25.87136,3.17995 -6.52245,0.62873 -12.98655,1.94884 -19.53777,2.05956 -4.6924,0.008 -9.38572,0.0408 -14.077465,-0.0521 -3.566608,-0.13035 -7.127975,-0.38743 -10.62057,-1.17178 -5.117335,-1.08282 -10.217359,-2.04765 -15.484738,-1.71646 -6.356435,-0.14263 -12.711798,-0.41519 -19.035986,-1.10454 -7.862268,-0.80914 -15.716581,-1.76191 -23.603126,-0.52756 -9.250344,0.95327 -18.461084,2.29417 -27.7736702,2.49223 -8.9598524,0.70324 -17.8872758,2.10183 -26.8861338,2.02613 -8.72591,-0.003 -17.45186,-0.0165 -26.177747,0.009 -7.23587,0.0346 -14.48151,0.0456 -21.701631,0.58125 -5.045726,0.48878 -9.977955,1.49272 -14.969602,2.31713 -3.543581,0.002 -7.087141,0.006 -10.630714,0.0145 -2.649187,0.01 -5.298437,0.0239 -7.947597,0.0257 -0.8918,-0.0645 -2.06949,-1.2755 -0.87141,-1.58776 0.72357,-0.57961 1.28786,-1.29925 1.92442,-1.96215 -3.17215,-1.62255 -16.6834,7.93009 4.63136,-5.45859 -1.13766,0.81703 -3.95841,2.48754 -2.71817,3.9922 1.12337,0.38338 1.10742,0.55213 2.37087,0.19304 0.50512,-0.14357 1.895893,-0.89316 1.4501,-0.61563 -15.94348,9.92561 -8.53573,5.73014 -5.99194,2.91711 1.98453,-2.95605 0.34973,-5.25519 -3.11716,-5.41997 -1.61691,0.0923 -1.44299,-0.0341 -3.0643,0.58443 -0.50149,0.19132 -1.91703,0.95928 -1.46241,0.67396 15.124974,-9.49224 8.27227,-5.90134 6.05798,-2.67823 -1.26522,2.04667 -2.16647,4.82855 0.0701,6.59077 2.00201,0.72754 4.21369,-0.74078 3.34598,-0.17786 -14.9979,9.72977 -8.55236,5.40942 -5.64971,2.77176 0.9561,-1.50649 2.12583,-4.66184 -0.85995,-4.33893 -4.14145,1.33758 -2.00547,0.74583 6.8533,-4.3566 0.60477,-0.34834 -1.22096,0.68763 -1.76981,1.11872 -1.8796,1.4763 -3.4042,3.42077 -4.46441,5.5478 -1.37654,3.38767 -2.9849,7.5659 0.30147,10.40274 1.16058,0.44372 1.65667,0.77178 2.99087,0.64567 0.7146,-0.0675 2.66333,-0.93815 2.09439,-0.50052 -13.6874,10.52829 -6.28328,3.20089 -2.73724,1.53218 3.96701,-3.56819 8.812517,-6.87756 9.19814,-12.69382 -1.305349,-4.99754 -6.09063,-5.37864 -10.62157,-4.94988 -6.85467,1.44916 -9.16246,4.12958 0.60655,-2.68983 2.92699,-2.04324 -9.51357,5.22831 -6.72617,5.68453 -2.11419,4.28714 -2.91721,9.22079 0.75924,12.90891 2.87134,1.75177 5.93504,2.25112 9.28101,1.49773 0.98438,-0.22164 3.62312,-1.62703 2.87372,-0.95134 -1.8759,1.69138 -4.24669,2.73583 -6.37004,4.10374 7.11189,-4.68821 10.737838,-8.70484 13.309445,-17.04715 0.827864,-4.69386 0.539806,-10.16615 -4.895901,-11.64527 -2.450874,-0.37138 -2.667514,-0.61162 -5.235944,-0.088 -0.95338,0.19436 -3.53171,1.48597 -2.7909,0.85516 2.0714,-1.76381 4.65336,-2.82489 6.90224,-4.356 1.753398,-1.19377 -7.59468,4.26696 -5.3099,3.50719 -4.15387,4.32259 -8.20692,9.44639 -8.14471,15.73333 0.88216,4.29521 2.3196,7.77377 7.39955,7.09926 4.90644,-1.09436 10.056157,-4.72178 -2.63276,3.20601 -0.71539,0.44696 1.48825,-0.79942 2.19229,-1.26405 1.08099,-0.71339 3.4611,-2.6416 4.43621,-3.41583 3.64432,-3.20628 6.203165,-6.82565 5.712474,-11.90371 -1.324376,-3.79884 -3.205954,-6.42566 -7.539074,-4.52494 17.013398,-10.47909 6.392167,-4.04195 4.61597,-2.725 -3.70886,2.74991 -6.95908,6.16564 -10.28394,9.34118 0,0 -10.40419,4.44507 -10.40419,4.44507 z" />
    <path
       style="fill:#000000;fill-opacity:1;fill-rule:nonzero;stroke:#000000;stroke-width:4.69999981;stroke-linecap:round;stroke-linejoin:round;stroke-miterlimit:4;stroke-opacity:1;stroke-dasharray:none;stroke-dashoffset:0"
       id="path2698"
       d="m 335.26361,360.4199 c -7.45559,8.98049 -18.51097,16.19637 -30.46056,15.95426 -8.09284,-1.1957 -13.66177,-5.89092 -17.57775,-12.80637 -2.84964,-6.13979 -4.05676,-12.34795 -1.39759,-18.68494 8.11246,-9.67165 17.78213,-12.15704 29.46983,-11.81188 9.40441,0.9705 15.93089,4.42868 20.07362,13.07307 3.21241,9.92559 -2.8313,17.86445 -8.77619,25.21557 -10.20065,9.71176 -23.29324,17.63368 -37.55577,18.46595 -10.9888,-0.85444 -14.10091,-7.611 -14.57797,-17.67007 0.64924,-11.97801 8.53819,-20.00767 17.36873,-27.10507 14.05411,-9.02598 22.94494,-15.13434 39.22946,-13.38465 7.68441,2.70286 10.08704,7.45678 8.82146,15.26805 -4.32463,12.09608 -16.22237,18.25431 -27.57906,22.81525 -8.12819,1.9242 -15.2592,0.64004 -20.48986,-6.18642 -4.0529,-8.3037 -1.12053,-14.60694 5.26718,-20.43427 13.33907,-8.72479 20.43878,-12.20787 35.14524,-6.85371 7.6679,4.71737 11.70375,10.17464 10.72522,19.37465 -3.41538,11.35287 -15.79509,17.2895 -26.96226,18.56254 -8.46896,0.85129 -14.73629,-2.21338 -18.52483,-9.75653 -2.55142,-8.37286 1.95955,-14.70833 8.60236,-19.32631 8.98396,-5.10655 19.90847,-12.77142 30.55101,-7.72765 6.31962,5.11195 2.08468,12.75759 -1.37591,18.25965 -8.1804,8.70466 -19.16205,17.06313 -31.49515,17.40668 -7.70811,-0.86949 -11.91335,-6.00523 -12.24275,-13.51338 0.80796,-11.9621 11.47072,-15.03055 20.95487,-19.74751 7.35749,-0.32836 12.7459,3.24168 15.89237,9.67632 2.68691,6.7301 0.91968,12.74625 -3.54853,18.0929 -7.23077,6.46937 -16.77895,12.20596 -24.89294,5.25407 -3.8668,-4.8916 -3.79072,-10.77617 -0.19641,-15.68376 8.87815,-7.39497 16.25737,-11.65696 26.06436,-6.06696 5.88973,4.60638 6.24359,8.86791 3.38792,15.41652 -6.80006,8.5693 -17.07889,14.54228 -28.00914,15.62402 -7.01464,-0.12361 -11.3224,-3.83364 -12.90859,-10.48015 -0.41771,-7.09591 3.5422,-11.91349 8.92565,-15.89687 3.9625,-2.78361 16.57209,-12.21465 18.29101,-1.95319 0.0477,5.10481 -2.54258,9.59606 -5.85264,13.29606 -5.24124,4.96043 -16.37124,12.2205 -15.17349,1.56913 1.43633,-5.1375 4.4763,-8.95973 8.83622,-11.89481 0.8191,-4.95624 18.95754,-10.95954 15.78026,-1.85737 -2.21869,5.03722 -6.09606,8.72034 -10.44586,11.92785 -1.56823,3.39705 -17.36064,11.8678 -15.15866,1.7586 3.63055,-8.78739 4.64171,-7.73147 14.74287,-10.92628 -0.54671,1.19793 -1.29451,2.27512 -2.11637,3.29582 0,0 -10.50468,4.41999 -10.50468,4.41999 l 0,0 c 0.89143,-0.89607 1.67767,-1.88381 2.3051,-2.98601 18.57944,-9.93236 9.09501,-6.61128 5.83717,1.36151 -4.03558,8.79562 15.71822,-6.13106 -5.60597,7.22508 4.35424,-3.02281 8.38391,-6.43909 10.62505,-11.37685 5.33512,-8.37433 -17.82442,6.47376 5.08132,-6.94085 -4.42194,2.65835 -7.53537,6.02072 -9.20641,11.01163 -0.27524,1.28684 -0.59257,1.85253 -0.24116,3.09577 0.0637,0.2255 0.17584,0.49144 0.39103,0.5842 0.32324,0.13934 1.34226,-0.16454 1.05526,0.0393 -2.11581,1.50239 -12.35713,7.61091 -6.64572,4.05448 3.34643,-3.35526 6.07133,-7.50784 6.25781,-12.3887 -0.46958,-7.69403 -14.046,2.47131 2.23045,-7.44679 -5.30929,3.54091 -9.55931,7.87681 -9.48044,14.69097 1.30301,6.26076 5.55111,9.2782 11.99696,9.10638 5.34723,-0.71418 12.32981,-4.3705 0.84953,2.45891 -3.93793,2.3426 11.74719,-7.42495 7.89161,-6.70036 2.97057,-5.93986 3.12307,-9.67413 -2.57908,-13.92343 -2.66733,-1.38857 -4.88532,-2.33668 -7.98359,-2.08055 -0.9586,0.0793 -3.52264,1.22143 -2.83243,0.55149 1.99785,-1.93918 4.65162,-3.06102 6.98414,-4.58126 0.80687,-0.52588 -1.60475,1.06544 -2.40712,1.59816 -4.0327,4.27901 -4.22442,9.38869 -0.61902,14.1049 7.13079,5.54928 16.30018,-1.55814 2.56596,6.80052 -0.82942,0.50478 1.58218,-1.12588 2.37327,-1.68882 4.57884,-4.80931 6.67505,-10.413 4.14171,-16.90221 -2.93475,-6.04752 -8.15414,-9.18971 -15.02032,-8.36978 2.20381,-1.53248 4.46704,-2.98286 6.61145,-4.59742 0.81751,-0.61552 -1.80271,0.98327 -2.6233,1.59467 -3.52277,2.62473 -5.73655,6.34267 -5.99312,10.7445 -0.0294,7.04741 4.10102,11.54114 11.26716,11.99759 7.25363,-0.5884 11.32401,-4.34623 1.79095,2.13085 -1.25491,0.85263 2.64472,-1.50022 3.87308,-2.39067 2.50645,-1.81694 4.34421,-3.81874 6.52084,-5.99046 3.11191,-4.6673 8.08608,-11.99187 2.2327,-16.51676 -4.3233,-1.7793 -8.18214,-1.45896 -12.65444,-0.14283 -1.294,0.3808 -4.66529,2.37191 -3.82691,1.31522 1.4278,-1.79959 3.84766,-2.51077 5.7715,-3.76616 -6.50431,3.98765 -11.48596,9.75691 -9.26595,17.83311 3.60679,7.2326 9.76166,9.57268 17.7253,8.61096 1.35873,-0.22216 2.74543,-0.31349 4.07618,-0.66647 1.27731,-0.33881 4.64581,-2.33122 3.70952,-1.39867 -1.69802,1.69122 -3.92322,2.80876 -6.10993,3.78947 -1.09925,0.493 1.97207,-1.41351 2.78819,-2.29971 1.9718,-2.14114 2.3389,-3.67495 3.43991,-6.30651 1.44564,-8.72888 -2.66084,-13.74532 -9.91877,-18.07305 -5.72807,-1.95333 -11.24747,-3.18422 -17.26403,-1.54551 -1.41836,0.38631 -5.09082,2.65142 -4.13424,1.5352 1.50604,-1.75737 3.9488,-2.41514 5.92321,-3.62272 -6.31121,5.15472 -9.79579,10.84992 -5.98985,18.89243 4.93751,6.32882 12.19701,7.1664 19.60427,5.01307 1.3695,-0.59685 5.12708,-2.88337 4.10849,-1.79056 -1.46745,1.57437 -3.45939,2.75796 -5.53629,3.32239 -1.42341,0.38684 2.38995,-1.74334 3.46036,-2.75822 1.34063,-1.27109 4.22574,-4.80437 5.189,-6.45857 0.60164,-1.03319 0.96715,-2.18688 1.45072,-3.28032 1.60267,-7.16563 -0.64216,-11.47944 -7.84023,-13.68169 -4.72262,-0.41824 -8.95417,-0.51047 -13.59632,0.78974 -1.76551,0.4945 -3.94046,3.22286 -5.174,1.86642 -1.14735,-1.26165 5.84597,-3.15131 4.14783,-2.99482 -1.99431,0.18377 -3.43618,2.05838 -5.15427,3.08757 -8.73743,6.78506 -16.82619,14.42121 -17.73932,26.12289 0.2683,9.62989 3.10752,15.67991 13.63267,16.14395 4.49092,-0.40704 5.10311,-0.19959 9.52682,-1.73396 1.73263,-0.60097 4.34331,-3.83426 5.06492,-2.1483 0.72982,1.70511 -2.89468,2.66568 -4.73055,2.9295 -3.51773,0.50552 12.76196,-6.14117 8.44522,-6.5075 5.74312,-6.91831 12.14271,-14.48475 9.25403,-24.04467 -3.89163,-8.34788 -10.43336,-11.28819 -19.3772,-12.04203 -2.88866,-0.0278 -5.3624,-0.18758 -8.22061,0.29839 -1.27421,0.21665 -4.58102,1.96267 -3.75446,0.96902 1.65732,-1.99234 4.36217,-2.80082 6.49854,-4.26781 1.61018,-1.10566 -6.61406,3.90734 -4.65409,3.5603 -2.98071,5.94306 -1.82302,11.83237 0.8734,17.75881 3.73147,6.61126 9.14038,10.97953 16.91597,11.81906 8.21775,-0.21488 11.32246,-4.11179 2.18015,2.7529 -0.54575,0.40979 2.79613,-1.04516 6.59896,-4.98482 0.80263,-0.8315 1.46704,-1.78613 2.20056,-2.67919 0,0 10.40419,-4.44506 10.40419,-4.44506 z" />
    <path
       style="fill:#000000;fill-opacity:1;fill-rule:nonzero;stroke:#000000;stroke-width:4.69999981;stroke-linecap:round;stroke-linejoin:round;stroke-miterlimit:4;stroke-opacity:1;stroke-dasharray:none;stroke-dashoffset:0"
       id="path2700"
       d="m 332.48837,344.56529 c 7.71005,4.50928 16.25324,7.32694 24.54686,10.54685 9.87887,2.89268 19.25572,7.00668 28.48721,11.50475 11.37475,6.47142 22.20857,13.83057 33.23488,20.87409 15.07686,9.32801 31.38391,16.40295 47.42425,23.86678 23.82605,10.65683 47.43254,21.78796 71.1732,32.63095 28.38724,12.41834 56.23532,26.00794 84.32575,39.07095 26.33829,12.22194 52.76263,24.25053 79.38774,35.8336 20.14207,8.53264 40.69432,16.03044 61.40642,23.0429 9.16248,3.09511 18.5824,5.21158 28.14177,6.58439 0,0 -9.17876,6.46004 -9.17876,6.46004 l 0,0 c -9.52959,-1.52107 -18.91858,-3.73733 -28.05435,-6.88555 -20.65291,-7.10586 -41.13526,-14.71908 -61.24368,-23.25959 -26.59479,-11.6164 -52.97998,-23.69759 -79.30048,-35.9227 -28.09374,-13.07504 -55.96439,-26.63647 -84.3709,-39.03138 -23.78995,-10.83322 -47.46708,-21.90977 -71.36116,-32.51434 -16.12608,-7.44504 -32.5121,-14.52128 -47.64312,-23.89822 -11.02284,-6.99944 -21.82587,-14.36809 -33.24124,-20.71689 -9.23521,-4.45697 -18.63,-8.46147 -28.47295,-11.40416 -8.35201,-3.22537 -16.87001,-6.18325 -24.70845,-10.56667 0,0 9.44701,-6.2158 9.44701,-6.2158 z" />
    <path
       style="fill:#000000;fill-opacity:1;fill-rule:nonzero;stroke:#000000;stroke-width:4.69999981;stroke-linecap:round;stroke-linejoin:round;stroke-miterlimit:4;stroke-opacity:1;stroke-dasharray:none;stroke-dashoffset:0"
       id="path2702"
       d="m 310.11424,342.93327 c 12.01633,-1.23257 23.9003,-3.55945 35.7514,-5.86016 18.16539,-3.10233 36.482,-5.10655 54.85792,-6.40182 25.22526,-0.95385 50.45175,-1.81295 75.67866,-2.78429 29.75383,-1.07237 59.48065,-2.67045 89.24426,-3.52325 28.25178,-0.96307 56.5351,-0.43636 84.75024,1.19512 20.24637,0.95973 40.38828,3.19517 60.57195,4.94975 8.74422,1.15184 17.69332,0.35945 26.31962,2.29878 3.22093,1.42514 6.15823,3.27497 9.56357,4.24695 6.14967,1.60584 6.93374,-1.37369 -7.63205,6.35809 -1.73868,-0.54623 -3.32202,-1.46541 -4.92656,-2.3086 0,0 9.47683,-6.21335 9.47683,-6.21335 l 0,0 c 1.60125,0.82532 3.2064,1.64978 4.90741,2.25655 -7.57011,6.76993 -5.26611,8.04552 -11.2079,6.30724 -3.31708,-1.08104 -6.20635,-2.98498 -9.46234,-4.20445 -8.53703,-1.81283 -17.39139,-1.11136 -26.01835,-2.33931 -20.09778,-1.86872 -40.16417,-4.09316 -60.33419,-5.07734 -28.16564,-1.64209 -56.39705,-2.16854 -84.59993,-1.18937 -29.7794,0.85968 -59.52125,2.46908 -89.29027,3.57038 -25.26633,0.99543 -50.53566,1.84133 -75.7964,2.91508 -18.39809,1.35568 -36.74191,3.40787 -54.91765,6.60976 -11.93434,2.30591 -23.89323,4.60612 -35.9822,5.93997 0,0 9.04598,-6.74573 9.04598,-6.74573 z" />
    <path
       style="fill:#000000;fill-opacity:1;fill-rule:nonzero;stroke:#000000;stroke-width:4.69999981;stroke-linecap:round;stroke-linejoin:round;stroke-miterlimit:4;stroke-opacity:1;stroke-dasharray:none;stroke-dashoffset:0"
       id="path2704"
       d="m 793.48161,342.23102 c -8.98744,3.06167 -18.3499,3.35488 -27.71278,2.52202 -9.21224,-0.92975 -18.41702,-3.28034 -26.36593,-8.11711 -4.67428,-3.22041 -7.43204,-6.70542 -3.73327,-11.86059 10.55371,-8.67289 20.8076,-9.69087 33.4206,-8.9932 9.77256,1.04022 19.03534,4.21275 26.62605,10.50805 5.57913,6.88312 3.54181,11.57062 -2.68223,16.84448 -11.4035,7.60158 -22.67115,12.78475 -36.34684,10.11206 -9.58427,-3.33315 -12.35878,-8.73156 -12.94276,-18.46893 2.27779,-16.10968 12.95353,-19.9056 26.2197,-27.33713 8.55749,-3.66372 16.7052,-2.54413 24.40358,2.31411 5.59721,5.05379 6.79917,9.24151 2.48434,15.51543 -8.46605,7.45038 -19.04456,12.67464 -30.24489,13.75235 -6.21127,-0.39391 -11.28837,-1.28923 -11.76835,-8.31195 3.64834,-10.18449 16.29962,-14.44972 24.84567,-18.91136 6.95747,-1.4046 12.56327,-1.8735 16.84587,4.50507 2.4411,6.80548 -0.70813,12.4397 -6.27182,16.29356 -9.1003,5.61446 -17.50369,11.41414 -26.81689,4.39891 -5.22928,-5.30014 -4.16774,-11.75103 -1.42677,-17.97014 1.65677,-2.77978 3.70739,-5.45392 6.59919,-7.06251 7.77169,-4.32309 10.21717,-8.30298 17.06974,-5.467 5.7091,3.6278 5.81805,9.86501 4.50775,15.86484 -4.22322,12.23065 -8.77759,13.50917 -20.47904,20.16881 -5.3346,2.15097 -7.06517,0.62676 -8.39032,-4.59207 -0.43985,-6.55579 3.56546,-11.9408 7.69212,-16.61563 4.67431,-4.22943 15.06022,-14.40892 20.11316,-8.82577 1.93868,3.80555 1.37668,7.85465 -0.99158,11.27978 -4.34379,4.96305 -12.33402,12.88059 -18.56479,8.20927 -2.97048,-2.93445 -1.34552,-7.23916 0.42569,-10.39086 2.89434,-4.19951 13.25704,-13.5649 14.26741,-5.9806 -1.59459,5.37985 -7.03207,8.64755 -11.39727,11.68895 -6.03684,3.83673 -4.72905,3.0742 -15.03644,8.66297 -0.42002,0.22774 -2.97828,1.44471 -3.85517,1.31007 -1.04683,-0.16075 -1.00427,-1.51627 -1.13899,-2.16486 1.44598,-4.94465 6.42875,-8.3197 10.52633,-11.09523 2.0519,-1.52341 4.21731,-2.87668 6.39873,-4.2028 0,0 10.55347,-4.06827 10.55347,-4.06827 l 0,0 c -2.21128,1.2938 -4.44646,2.56385 -6.44858,4.17697 -4.09452,2.53629 -8.52145,5.74876 -10.90846,9.99398 -0.85378,1.66012 3.88918,-1.14805 3.66829,-1.00054 -1.35873,0.90737 -11.94246,7.17017 -4.22028,2.49285 4.30805,-2.86768 9.24052,-5.94653 11.71892,-10.64137 0.071,-0.2226 0.21088,-0.43417 0.21295,-0.66781 0.003,-0.35727 -0.96941,0.24552 -0.70235,0.0815 15.38878,-9.44986 9.6497,-6.63242 6.72786,-3.14988 -1.69611,2.36645 -3.76395,6.40201 -1.23296,8.83362 2.22338,1.24662 4.02135,0.13232 3.93884,0.18719 -15.31556,10.18402 -7.95655,5.30736 -5.35059,2.17304 2.53763,-2.70093 3.32304,-6.35472 1.71551,-9.80037 -1.75502,-1.56327 -3.86622,0.099 -3.29328,-0.3004 15.29934,-10.66607 6.15536,-3.7519 3.24512,-1.15119 -4.07015,4.28547 -8.12858,9.39198 -8.10693,15.58782 1.16161,4.96873 2.67544,4.87846 7.24162,2.90936 -2.42088,1.4673 -4.79138,3.02114 -7.26264,4.4019 -0.79632,0.44493 1.54396,-0.98549 2.22803,-1.58891 3.31253,-2.92199 4.82269,-7.12332 6.55916,-11.04836 1.40259,-5.36213 1.71388,-11.30808 -3.73928,-14.40526 -5.09734,-1.50256 -8.35136,2.44667 2.79645,-4.98665 0.84193,-0.5614 -1.7597,1.01319 -2.55729,1.63597 -2.30792,1.80211 -2.57038,2.51483 -4.29916,4.88194 -2.75076,5.64542 -4.28487,11.65958 0.72552,16.58956 3.28287,2.30414 6.34607,3.30406 10.39762,2.44242 1.04617,-0.22249 3.85306,-1.6769 3.06301,-0.95592 -1.94542,1.77534 -4.44344,2.82875 -6.66515,4.24313 5.72758,-3.37285 9.04875,-7.76149 7.02973,-14.66146 -3.78656,-5.50954 -10.02499,-4.87395 -15.93236,-3.28209 1.9957,-1.33697 4.11961,-2.50001 5.98709,-4.01091 0.97778,-0.79108 -2.23517,1.1607 -3.29713,1.83457 -3.56574,2.26266 -6.80538,5.1231 -8.64674,8.98339 -0.11376,6.35813 5.55323,6.59062 10.7176,6.77603 2.97098,-0.36284 4.43905,-0.40894 7.33838,-1.31543 2.96165,-0.92598 16.4104,-7.03096 0.86636,0.71814 -0.99331,0.49518 1.78183,-1.32383 2.67275,-1.98575 4.57632,-5.71083 3.93986,-8.91221 -1.57688,-13.89037 -7.58753,-4.58504 -15.501,-5.19632 -23.68109,-1.41313 1.76303,-1.11429 3.42401,-2.40941 5.28909,-3.34289 1.47261,-0.73704 -2.82624,1.71132 -4.10423,2.74987 -4.99411,4.05845 -7.78367,9.49157 -8.7242,15.80006 0.3576,9.29908 2.93361,14.23225 12.15494,17.18568 6.23106,0.99753 12.0936,0.65745 18.1285,-1.35406 1.49005,-0.49665 5.33152,-2.9635 4.39297,-1.70412 -1.34868,1.80972 -3.84469,2.36526 -5.76703,3.54789 5.9693,-4.49373 8.95926,-8.42962 3.58889,-15.06936 -7.47411,-6.1145 -16.61097,-9.06645 -26.18464,-9.94333 -4.82179,-0.22106 -9.44988,-0.38304 -14.23278,0.43512 -1.30096,0.22254 -4.65862,1.90017 -3.86887,0.84267 1.57471,-2.1086 4.45907,-2.81153 6.54122,-4.42105 0.70122,-0.54204 -1.5821,0.7994 -2.37316,1.1991 -4.32016,4.29159 -1.5062,7.19892 2.75408,10.17202 7.87925,4.66739 16.92964,6.90243 26.00562,7.74049 9.3503,0.69799 18.66363,0.23307 27.57229,-2.98246 0,0 -8.93562,6.94205 -8.93562,6.94205 z" />
    <path
       style="fill:#000000;fill-opacity:1;fill-rule:nonzero;stroke:#000000;stroke-width:4.69999981;stroke-linecap:round;stroke-linejoin:round;stroke-miterlimit:4;stroke-opacity:1;stroke-dasharray:none;stroke-dashoffset:0"
       id="path2706"
       d="m 804.4178,586.70536 c -8.34479,-1.62853 -14.59891,-6.39377 -18.62929,-13.77188 -3.28551,-8.22619 -0.98547,-15.77272 3.86516,-22.71549 5.93356,-5.92171 16.46249,-15.10309 25.09608,-13.27634 1.118,0.23656 2.12576,0.83945 3.18864,1.25918 7.7971,4.31894 10.48293,12.01055 10.56906,20.47307 -0.98458,10.20379 -7.36679,17.88793 -14.97562,24.18742 -11.41692,7.80618 -22.19347,13.11675 -35.81308,9.6827 -8.3502,-4.29527 -9.87607,-10.33889 -8.41387,-19.09978 4.97732,-13.29211 18.11052,-18.64855 29.75325,-24.99337 9.16268,-3.10276 17.979,-2.96146 26.46459,1.69713 6.05323,5.06029 7.06011,11.37894 3.89787,18.33434 -6.72914,8.9731 -17.90897,13.31037 -28.65397,15.09307 -7.81986,0.29216 -11.72801,-2.15236 -12.08324,-10.17848 1.06476,-8.84398 7.1212,-15.04587 13.72834,-20.41158 9.36124,-6.59375 19.02945,-13.58854 28.93993,-5.78578 5.33754,6.73706 2.2779,14.08751 -1.83102,20.52548 -8.49545,8.9596 -19.88421,16.11829 -32.26832,17.71531 -7.53954,0.91132 -12.91447,-1.93591 -14.89898,-9.33336 -1.13893,-7.68786 2.51672,-13.56179 8.45231,-18.02942 9.45981,-5.62278 16.0958,-11.67601 24.73148,-3.35124 3.23875,4.15217 2.37457,9.26258 0.22426,13.69907 -2.89376,4.96246 -12.49458,15.13552 -16.56258,7.72977 -1.90534,-5.08137 -0.32933,-9.99319 1.83566,-14.69862 4.1455,-6.3053 12.72829,-14.78104 20.691,-12.81523 4.12275,3.41252 2.00205,9.28915 0.5196,13.55604 -5.3971,10.33587 -15.72938,14.55919 -25.55645,19.86972 -5.31181,1.95789 -9.99746,2.55862 -13.61886,-2.31791 -2.10505,-5.36787 0.37326,-9.60592 3.53551,-13.85122 4.65319,-4.63826 14.76618,-14.62077 18.84798,-6.24395 0.436,4.6668 -2.6494,8.30038 -5.57694,11.56515 -4.75264,3.18255 -13.46156,12.82911 -18.02599,8.0564 -0.91568,-3.90751 3.15057,-6.95306 5.82547,-9.20477 3.2299,-2.05935 16.39223,-12.9402 17.27354,-4.49227 -2.24183,6.53949 -10.33172,8.80241 -15.68264,11.77069 0,0 8.87757,-7.04714 8.87757,-7.04714 l 0,0 c -15.95207,9.49595 -5.70177,4.59716 -3.33889,0.41652 0.23817,-0.94998 0.11047,-1.5596 -1.10628,-1.46072 -0.54831,0.0445 -2.06138,0.65059 -1.61805,0.32488 1.91642,-1.40799 11.96519,-7.55173 6.08772,-3.71961 -2.43874,1.83047 -5.77435,4.39313 -6.64214,7.41768 1.15723,0.74664 2.98173,-0.49089 2.34499,-0.0919 -15.71656,9.84797 -7.81292,4.57002 -4.42551,2.38561 2.8641,-2.8771 5.72345,-6.12916 6.13244,-10.33398 -0.45348,-1.04287 -0.36608,-1.50047 -1.65543,-1.78243 -0.46383,-0.10143 -1.80322,0.3386 -1.42335,0.0538 14.79559,-11.09257 7.60455,-4.53342 4.48067,-2.07126 -2.98537,3.77378 -5.86194,7.48614 -4.17786,12.5282 3.36483,4.36732 8.13624,2.84452 12.70936,1.10908 -2.21539,1.39518 -4.48185,2.71239 -6.64616,4.18556 -0.95742,0.65168 2.05184,-1.08236 3.02027,-1.71755 4.11991,-2.70227 7.66371,-6.35204 10.15808,-10.59194 1.21097,-3.17327 3.91107,-9.23563 0.39713,-11.77585 -3.97468,-0.12466 -9.31884,3.91542 4.65484,-4.23589 0.78349,-0.45704 -1.53918,0.97105 -2.23221,1.55624 -1.8826,1.58965 -2.16446,2.2861 -3.55273,4.29747 -2.22682,4.2878 -3.91617,8.9211 -2.2667,13.70526 2.32678,4.28364 6.72818,-2.17461 -7.47661,6.6414 -1.84013,1.14205 5.59244,-3.40349 3.86935,-4.08749 2.30113,-3.79202 3.40065,-8.63123 0.47556,-12.39494 -2.49323,-2.31603 -5.02861,-3.70028 -8.59098,-3.25189 -0.96817,0.12186 -3.56961,1.37139 -2.83525,0.7288 2.00136,-1.75129 4.52658,-2.79286 6.78987,-4.18929 -5.94595,3.93665 -9.95043,9.31668 -8.99807,16.79058 1.64083,7.07275 7.11295,8.91174 13.94326,7.98219 1.37315,-0.22951 2.77012,-0.34568 4.11944,-0.68853 1.42261,-0.36148 4.97849,-2.64199 4.16906,-1.41752 -1.23856,1.87367 -3.8788,2.28918 -5.65446,3.66458 -4.61376,3.57377 15.38323,-9.72266 10.40231,-8.05751 3.93402,-5.77477 7.59475,-12.68958 2.55618,-19.0013 -2.55901,-1.88959 -4.82614,-3.10136 -8.14673,-3.00583 -1.12331,0.0323 -4.01603,1.41341 -3.33054,0.52291 1.49729,-1.94508 4.16357,-2.61636 6.10163,-4.12273 1.12042,-0.87086 -2.42622,1.47259 -3.63932,2.20888 -6.54553,5.03967 -12.67885,10.92652 -14.09178,19.4383 -0.0238,7.57932 4.0022,9.04605 11.03609,8.54931 2.87342,-0.536 4.29313,-0.70557 7.09908,-1.62065 1.20019,-0.39141 4.46329,-2.21318 3.53582,-1.35676 -1.80328,1.66513 -4.07168,2.76623 -6.26194,3.87403 -1.03379,0.52288 1.90752,-1.32664 2.76521,-2.10543 0.82938,-0.75309 1.51764,-1.64829 2.27646,-2.47244 3.39447,-6.28622 2.7612,-12.17286 -3.03693,-16.8339 -8.33244,-4.34937 -17.00251,-4.1662 -25.78379,-0.8889 1.62121,-1.07761 3.46254,-1.88134 4.86363,-3.23283 1.21201,-1.16911 -2.90145,1.71589 -4.28549,2.67516 -4.98929,3.45803 -9.20249,8.02776 -11.52312,13.6833 -1.63601,8.15188 -0.49841,13.8265 7.55644,17.62758 5.69678,1.25707 11.17139,1.34577 16.82637,-0.42631 1.58923,-0.49801 5.3432,-3.38142 4.63067,-1.87612 -0.87311,1.84454 -3.49381,2.10993 -5.24071,3.16489 7.61024,-5.90436 14.12851,-13.35493 15.35829,-23.26359 0.10951,-8.01732 -2.34893,-15.38067 -9.91346,-19.25678 -2.78681,-0.87629 -3.05464,-1.33325 -6.00542,-0.7965 -1.05924,0.19268 -3.89252,1.68052 -3.07912,0.9752 1.89351,-1.64192 4.20249,-2.75026 6.43642,-3.88641 1.13276,-0.57612 -2.13593,1.3879 -3.11556,2.19745 -1.03169,0.85257 -1.93447,1.85008 -2.90171,2.77512 -4.91404,6.44346 -7.49171,13.63717 -4.42091,21.58023 3.84773,7.15116 10.05689,11.52733 18.13097,12.84514 0,0 -9.23685,6.51274 -9.23685,6.51274 z" />
    <path
       style="fill:#000000;fill-opacity:1;fill-rule:nonzero;stroke:#000000;stroke-width:4.69999981;stroke-linecap:round;stroke-linejoin:round;stroke-miterlimit:4;stroke-opacity:1;stroke-dasharray:none;stroke-dashoffset:0"
       id="path2708"
       d="m 260.07496,241.6124 c -2.54554,-7.21612 -9.02595,-8.5941 -15.8851,-7.59042 1.75223,-1.73115 -8.94987,4.0449 -6.78505,2.88223 2.2141,-1.18913 4.2621,-2.80934 6.67915,-3.49795 1.05772,-0.30135 -1.66072,1.4516 -2.38903,2.27571 -1.74669,1.97647 -1.98335,2.8134 -3.13925,5.11995 -1.00657,3.10627 -3.29292,8.14606 0.38829,10.23989 4.39748,1.80819 20.23391,-7.78951 5.13286,-0.21606 6.19841,-5.42325 12.02257,-11.22469 18.27678,-16.59265 8.70405,-6.04745 16.97287,-13.3102 18.00945,-0.3324 0.13311,8.19648 -0.5639,16.34015 -2.38657,24.33081 -1.09562,3.50016 -2.49292,6.89168 -3.87052,10.28657 0,0 -10.22517,4.7161 -10.22517,4.7161 l 0,0 c 1.40289,-3.35256 2.79003,-6.71283 3.98883,-10.14553 1.93293,-7.86961 2.59969,-15.89943 2.48175,-23.99953 -0.0449,-0.78532 -0.015,-3.52334 -0.61258,-4.48872 -0.84949,-1.37235 -2.7744,-0.8391 -2.59855,-0.98157 1.73377,-1.40467 12.28002,-7.77519 5.63885,-3.60763 -6.30467,5.34323 -12.22305,11.05569 -18.27706,16.67269 -4.92173,3.07094 -17.29579,13.59302 -25.12321,10.4722 -3.88072,-2.97195 -2.42796,-7.60459 -1.08182,-11.68552 4.44769,-9.97176 14.67245,-15.30179 24.91014,-18.16005 7.3631,-0.63521 13.96128,1.36381 16.7794,8.84314 0,0 -9.91159,5.45874 -9.91159,5.45874 z" />
    <path
       style="fill:#000000;fill-opacity:1;fill-rule:nonzero;stroke:#000000;stroke-width:4.69999981;stroke-linecap:round;stroke-linejoin:round;stroke-miterlimit:4;stroke-opacity:1;stroke-dasharray:none;stroke-dashoffset:0"
       id="path2710"
       d="m 299.01493,266.54644 c -1.36333,6.88127 -3.20861,13.67075 -6.9644,19.64437 -0.78793,1.19607 -1.71933,2.27566 -2.69557,3.31725 0,0 -10.51488,4.34604 -10.51488,4.34604 l 0,0 c 1.05023,-0.9541 2.03094,-1.97034 2.86164,-3.12864 3.96161,-5.73975 5.86106,-12.38555 7.17126,-19.19142 0,0 10.14195,-4.9876 10.14195,-4.9876 z" />
    <path
       style="fill:#000000;fill-opacity:1;fill-rule:nonzero;stroke:#000000;stroke-width:4.69999981;stroke-linecap:round;stroke-linejoin:round;stroke-miterlimit:4;stroke-opacity:1;stroke-dasharray:none;stroke-dashoffset:0"
       id="path2712"
       d="m 350.15181,269.15058 c -2.76468,6.76172 -6.15925,13.39787 -11.17061,18.76359 -2.63315,2.31903 -1.3487,1.2747 -3.8271,3.165 0,0 -10.51744,4.16904 -10.51744,4.16904 l 0,0 c 2.55526,-1.79804 1.23061,-0.80346 3.94993,-3.01549 5.19572,-5.0604 8.53964,-11.6341 11.32312,-18.27206 0,0 10.2421,-4.81008 10.2421,-4.81008 z" />
    <path
       style="fill:#000000;fill-opacity:1;fill-rule:nonzero;stroke:#000000;stroke-width:4.69999981;stroke-linecap:round;stroke-linejoin:round;stroke-miterlimit:4;stroke-opacity:1;stroke-dasharray:none;stroke-dashoffset:0"
       id="path2714"
       d="m 390.15181,269.15058 c -2.55409,6.52641 -6.15715,12.63564 -10.37382,18.22219 -4.14443,5.11454 -9.89401,7.3191 -15.67454,10.63297 0,0 8.84943,-7.11518 8.84943,-7.11518 l 0,0 c -16.93769,9.91585 -6.4424,4.51062 -3.53602,0.92289 4.34493,-5.37025 7.88314,-11.46264 10.49285,-17.85279 0,0 10.2421,-4.81008 10.2421,-4.81008 z" />
    <path
       style="fill:#000000;fill-opacity:1;fill-rule:nonzero;stroke:#000000;stroke-width:4.69999981;stroke-linecap:round;stroke-linejoin:round;stroke-miterlimit:4;stroke-opacity:1;stroke-dasharray:none;stroke-dashoffset:0"
       id="path2716"
       d="m 427.29467,266.29344 c -2.65508,7.64801 -7.32673,14.16769 -12.90403,19.93638 -2.98625,3.07728 -6.54462,5.45122 -10.17945,7.67555 0,0 -10.54571,4.06556 -10.54571,4.06556 l 0,0 c 3.68238,-2.14257 7.32665,-4.40332 10.35534,-7.44213 5.64808,-5.52569 10.38199,-11.90552 13.03174,-19.42528 0,0 10.24211,-4.81008 10.24211,-4.81008 z" />
    <path
       style="fill:#000000;fill-opacity:1;fill-rule:nonzero;stroke:#000000;stroke-width:4.69999981;stroke-linecap:round;stroke-linejoin:round;stroke-miterlimit:4;stroke-opacity:1;stroke-dasharray:none;stroke-dashoffset:0"
       id="path2718"
       d="m 455.94063,238.9472 c -3.47436,0.98862 -7.07286,1.54142 -10.37211,3.08629 -1.00412,0.47018 -3.87431,2.15512 -2.88097,1.66255 6.99139,-3.46687 9.29171,-5.59209 4.76414,-1.88602 -3.48357,3.26717 -5.01968,7.49538 -4.42562,12.19235 1.47566,4.22347 3.96114,5.27388 8.14895,5.0703 -4.10433,3.28502 10.33712,-5.00517 5.92711,-2.51262 -13.78261,7.78998 -6.44382,3.53802 -3.17348,0.28718 3.6853,-3.62138 6.60695,-7.88289 9.82483,-11.89778 6.42343,-6.8169 12.37369,-11.3754 14.72477,-2.74454 0.79908,4.54059 0.83188,9.17027 0.87342,13.76706 0.51871,3.66156 1.54062,7.22384 2.29596,10.84161 0.3738,1.17675 0.21001,2.16476 -0.54015,3.11172 0,0 -10.58833,4.22584 -10.58833,4.22584 l 0,0 c 1.01771,-0.40298 1.52591,-0.77507 1.1122,-1.98088 -0.71709,-3.70296 -1.73713,-7.33542 -2.34548,-11.05822 -0.0395,-4.50658 -0.0453,-9.04373 -0.77281,-13.50332 -0.1828,-0.72876 -0.37695,-1.95621 -0.89154,-2.62447 -0.25558,-0.3319 -1.60786,0.11775 -1.2524,-0.10389 9.72916,-6.06611 11.05965,-7.47424 7.82163,-4.35796 -3.43617,3.86984 -6.09676,8.38735 -9.8523,11.99891 -6.00152,6.32042 -13.76131,11.34361 -22.31665,13.21209 -4.37154,-0.13558 -7.5641,-2.1468 -9.02086,-6.44872 -0.73423,-4.94995 0.47654,-9.55924 3.99384,-13.24915 8.15824,-7.02903 17.51807,-11.8468 27.99418,-13.86055 0,0 -9.04833,6.77222 -9.04833,6.77222 z" />
    <path
       style="fill:#000000;fill-opacity:1;fill-rule:nonzero;stroke:#000000;stroke-width:4.69999981;stroke-linecap:round;stroke-linejoin:round;stroke-miterlimit:4;stroke-opacity:1;stroke-dasharray:none;stroke-dashoffset:0"
       id="path2720"
       d="m 507.58635,257.97501 c -0.82788,6.59733 -2.58374,13.04183 -4.22937,19.47371 -0.47552,-0.0383 -0.55752,3.56996 -0.79526,3.66491 -10.69566,4.2716 -11.80387,6.38239 -9.36173,2.60847 1.37666,-3.1041 2.78504,-6.17358 4.44219,-9.13749 5.23113,-7.97616 7.97653,-8.61834 17.54502,-14.12309 3.73173,-1.11048 5.46013,1.28203 6.44069,4.50105 0.72302,3.88535 0.62775,7.87397 0.62491,11.81145 0.24449,3.22748 -0.18785,6.24052 -1.62445,9.1363 -0.27456,0.53796 -0.63689,1.02358 -0.93779,1.54399 0,0 -10.62072,4.2045 -10.62072,4.2045 l 0,0 c 0.53786,-0.15819 0.85108,-0.63811 1.16966,-1.0995 1.6538,-2.6917 2.20449,-5.48686 1.92991,-8.64796 -2.5e-4,-3.83606 0.1023,-7.71033 -0.50687,-11.50914 -0.81516,-2.93014 -2.21692,-4.21467 -5.32864,-2.86919 15.46275,-9.44185 4.71741,-2.85771 1.6497,2.42246 -1.6167,2.9779 -3.29636,5.93005 -4.38788,9.15745 -3.17041,5.72899 -14.81194,10.91468 -10.45081,3.21176 1.72969,-6.37398 3.56019,-12.78852 4.29949,-19.36208 0,0 10.14195,-4.9876 10.14195,-4.9876 z" />
    <path
       style="fill:#000000;fill-opacity:1;fill-rule:nonzero;stroke:#000000;stroke-width:4.69999981;stroke-linecap:round;stroke-linejoin:round;stroke-miterlimit:4;stroke-opacity:1;stroke-dasharray:none;stroke-dashoffset:0"
       id="path2722"
       d="m 546.96462,271.89738 c 5.81402,0.0345 11.62819,0.0199 17.44219,-0.0103 1.06643,-0.006 2.13286,-0.0127 3.19924,-0.0253 0.009,-2.9e-4 0.0181,-5.8e-4 0.0271,-8.7e-4 0,0 -9.24481,6.71675 -9.24481,6.71675 l 0,0 c -0.008,-2.9e-4 -0.0165,-5.8e-4 -0.0247,-8.7e-4 -1.04319,-0.0127 -2.08644,-0.0195 -3.12968,-0.0253 -5.80457,-0.0305 -11.60929,-0.0445 -17.41388,-0.0103 0,0 9.14455,-6.6439 9.14455,-6.6439 z" />
    <path
       style="fill:#000000;fill-opacity:1;fill-rule:nonzero;stroke:#000000;stroke-width:4.69999981;stroke-linecap:round;stroke-linejoin:round;stroke-miterlimit:4;stroke-opacity:1;stroke-dasharray:none;stroke-dashoffset:0"
       id="path2724"
       d="m 593.60708,257.90302 c 0.26194,6.61779 -0.13265,13.11215 -1.25678,19.629 -0.65734,3.47172 -1.14806,6.96833 -1.45075,10.48805 -0.33783,5.50173 -2.43206,2.87187 -11.33719,6.80237 0,0 9.44101,-6.33219 9.44101,-6.33219 l 0,0 c -15.95413,10.26041 -8.58018,8.07756 -8.28556,4.60316 0.33402,-3.56093 0.79618,-7.10577 1.48702,-10.61696 1.20309,-6.44966 1.72812,-12.87124 1.33095,-19.44185 0,0 10.0713,-5.13158 10.0713,-5.13158 z" />
    <path
       style="fill:#000000;fill-opacity:1;fill-rule:nonzero;stroke:#000000;stroke-width:4.69999981;stroke-linecap:round;stroke-linejoin:round;stroke-miterlimit:4;stroke-opacity:1;stroke-dasharray:none;stroke-dashoffset:0"
       id="path2726"
       d="m 626.83628,171.07831 c 9.78416,8.91668 15.72931,20.66147 20.95115,32.59593 5.69544,13.98586 7.28958,28.94802 8.21592,43.87357 0.18893,14.27432 -1.70291,26.29151 -9.1156,38.61874 -4.88086,5.33795 -2.3616,2.94653 -7.48398,7.25121 0,0 -10.36876,4.17166 -10.36876,4.17166 l 0,0 c 5.23215,-4.12991 2.64991,-1.84098 7.68562,-6.93511 1.07439,-1.67617 2.30847,-3.26013 3.22318,-5.02852 5.20526,-10.06327 6.11243,-21.90095 6.24374,-33.00166 -0.87192,-14.8045 -2.3903,-29.65983 -8.01363,-43.54117 -5.15334,-11.78161 -11.01951,-23.43463 -20.90904,-32.01927 0,0 9.5714,-5.98538 9.5714,-5.98538 z" />
    <path
       style="fill:#000000;fill-opacity:1;fill-rule:nonzero;stroke:#000000;stroke-width:4.69999981;stroke-linecap:round;stroke-linejoin:round;stroke-miterlimit:4;stroke-opacity:1;stroke-dasharray:none;stroke-dashoffset:0"
       id="path2728"
       d="m 238.09466,172.14809 c -7.9689,10.95239 -16.29545,21.63701 -24.41507,32.47702 -6.94277,9.99588 -13.10167,20.6281 -15.32401,32.70027 -0.88133,6.81529 0.11704,13.62766 2.43561,20.05919 1.36517,3.93112 3.90795,7.34606 7.32451,9.71542 2.08792,0.36468 1.04463,0.27559 3.12908,0.27633 0,0 -9.21683,6.61329 -9.21683,6.61329 l 0,0 c -2.30844,-0.26305 -1.144,-0.007 -3.48233,-0.81579 -3.49115,-2.64075 -6.20144,-6.15052 -7.62274,-10.32233 -2.39024,-6.60553 -3.46122,-13.61313 -2.62089,-20.62327 2.08441,-12.27226 8.27767,-23.06686 15.25544,-33.23952 8.05059,-10.77919 16.33149,-21.38604 24.18524,-32.31126 0,0 10.35199,-4.52935 10.35199,-4.52935 z" />
    <path
       style="fill:#000000;fill-opacity:1;fill-rule:nonzero;stroke:#000000;stroke-width:4.69999981;stroke-linecap:round;stroke-linejoin:round;stroke-miterlimit:4;stroke-opacity:1;stroke-dasharray:none;stroke-dashoffset:0"
       id="path2730"
       d="m -524.01128,299.34922 c -8.73832,2.31005 -17.10346,2.86541 -25.5036,-0.80712 -9.14264,-5.4061 -10.11037,-12.47311 -7.43419,-22.0629 5.55845,-14.09526 18.43368,-21.65856 32.18751,-26.87014 11.5921,-3.02285 22.23125,0.47594 32.31634,6.09922 6.47355,4.78616 12.24931,11.55936 12.7772,20.00671 0.0977,1.56339 -0.21768,3.12531 -0.32653,4.68797 -2.21843,10.86895 -10.86959,17.30611 -19.70904,22.93584 -7.18359,4.98637 -14.32157,7.98319 -22.3044,10.66721 0,0 8.86457,-6.89713 8.86457,-6.89713 l 0,0 c 2.6069,-0.90369 14.89132,-6.33805 3.0509,0.25916 8.72677,-5.34208 17.52485,-11.46367 20.0845,-21.97174 0.15451,-1.4701 0.51817,-2.93312 0.46352,-4.4103 -0.30111,-8.13861 -6.0108,-14.67089 -12.22681,-19.19542 -9.95825,-5.43377 -20.4554,-8.64256 -31.75135,-5.29869 -1.6841,0.6916 -4.43094,3.78607 -5.05229,2.07481 -0.63298,-1.7433 3.42951,-4.17593 4.75893,-2.88273 1.29913,1.26372 -2.95885,2.10949 -4.29479,3.33422 -3.84982,3.52932 -6.76836,7.85622 -8.73552,12.67504 -2.84429,9.02976 -2.20227,15.61742 6.65718,20.62327 8.10774,3.24518 16.83458,2.57346 25.13003,0.13999 0,0 -8.95216,6.89273 -8.95216,6.89273 z" />
    <path
       style="fill:#000000;fill-opacity:1;fill-rule:nonzero;stroke:#000000;stroke-width:4.69999981;stroke-linecap:round;stroke-linejoin:round;stroke-miterlimit:4;stroke-opacity:1;stroke-dasharray:none;stroke-dashoffset:0"
       id="path2732"
       d="m -458.41962,314.86487 c -3.35292,10.00025 -7.79821,19.39476 -13.79573,28.05983 -4.20135,5.38991 -2.13332,2.8353 -6.18342,7.68053 0,0 -10.30234,4.36843 -10.30234,4.36843 l 0,0 c 4.11337,-4.80834 2.01611,-2.27718 6.27229,-7.60958 6.05792,-8.50495 10.58386,-17.72078 13.7671,-27.68914 0,0 10.2421,-4.81007 10.2421,-4.81007 z" />
    <path
       style="fill:#000000;fill-opacity:1;fill-rule:nonzero;stroke:#000000;stroke-width:4.69999981;stroke-linecap:round;stroke-linejoin:round;stroke-miterlimit:4;stroke-opacity:1;stroke-dasharray:none;stroke-dashoffset:0"
       id="path2734"
       d="m -438.41962,272.00773 c -1.39295,5.06832 -3.80075,10.12433 -4.11233,15.42266 0.27584,3.78809 1.72232,3.46014 4.70675,2.87478 0.52208,-0.23073 1.04417,-0.46145 1.56626,-0.69218 -2.71544,1.49435 -5.34469,3.15732 -8.14631,4.48306 -0.68729,0.32523 1.16926,-0.9723 1.75407,-1.45824 1.98787,-1.65176 3.79175,-3.3595 5.58214,-5.22414 3.47389,-3.66148 6.58368,-7.66253 10.57813,-10.77945 4.45764,-3.16223 12.34746,-10.3594 14.22246,-2.60982 1.2546,3.08983 2.04414,6.28229 2.53186,9.57623 1.03086,3.77895 2.04311,7.55095 2.81448,11.39262 0.38705,2.16583 0.48205,4.36323 0.55952,6.5569 0,0 -10.1191,5.19092 -10.1191,5.19092 l 0,0 c -0.0416,-2.14056 -0.11468,-4.28472 -0.45386,-6.40298 -0.71637,-3.87332 -1.70184,-7.67374 -2.82488,-11.44921 -0.45227,-3.27516 -1.19472,-6.45361 -2.53526,-9.48987 -0.99487,-5.80516 -10.97172,3.75388 6.33297,-6.9479 -4.13959,2.94353 -7.27596,6.88501 -10.69083,10.6126 -5.58697,6.03026 -12.18445,11.68475 -20.25634,14.0566 -3.31348,0.38047 -5.5029,-0.99846 -5.7317,-4.57345 -0.003,-5.38928 2.73125,-10.55188 3.97987,-15.72906 0,0 10.2421,-4.81007 10.2421,-4.81007 z" />
    <path
       style="fill:#000000;fill-opacity:1;fill-rule:nonzero;stroke:#000000;stroke-width:4.69999981;stroke-linecap:round;stroke-linejoin:round;stroke-miterlimit:4;stroke-opacity:1;stroke-dasharray:none;stroke-dashoffset:0"
       id="path2736"
       d="m -374.96435,303.61731 c 0.16981,4.67617 -0.5317,9.31083 -1.26432,13.91195 0,0 -10.13038,4.9521 -10.13038,4.9521 l 0,0 c 0.79371,-4.53197 1.60334,-9.11014 1.3234,-13.73247 0,0 10.0713,-5.13158 10.0713,-5.13158 z" />
    <path
       style="fill:#000000;fill-opacity:1;fill-rule:nonzero;stroke:#000000;stroke-width:4.69999981;stroke-linecap:round;stroke-linejoin:round;stroke-miterlimit:4;stroke-opacity:1;stroke-dasharray:none;stroke-dashoffset:0"
       id="path2738"
       d="m -312.70533,303.4363 c -2.76578,6.08955 -5.88553,12.15359 -10.34687,17.18352 -0.5348,0.49456 -1.06961,0.98911 -1.60441,1.48367 0,0 -10.48097,4.26212 -10.48097,4.26212 l 0,0 c 0.55678,-0.46417 1.11356,-0.92834 1.67034,-1.39251 4.68518,-4.72217 7.64897,-10.79371 10.5198,-16.72673 0,0 10.24211,-4.81007 10.24211,-4.81007 z" />
    <path
       style="fill:#000000;fill-opacity:1;fill-rule:nonzero;stroke:#000000;stroke-width:4.69999981;stroke-linecap:round;stroke-linejoin:round;stroke-miterlimit:4;stroke-opacity:1;stroke-dasharray:none;stroke-dashoffset:0"
       id="path2740"
       d="m -289.86641,309.47379 c -1.64738,5.99389 -4.00575,11.76504 -6.41317,17.48698 -0.41356,0.97685 -0.84086,1.94776 -1.27755,2.91445 0,0 -10.39079,4.71359 -10.39079,4.71359 l 0,0 c 0.49687,-0.94698 0.93156,-1.92483 1.37228,-2.89875 2.49017,-5.65592 4.92452,-11.38324 6.50357,-17.36908 0,0 10.20566,-4.84719 10.20566,-4.84719 z" />
    <path
       style="fill:#000000;fill-opacity:1;fill-rule:nonzero;stroke:#000000;stroke-width:4.69999981;stroke-linecap:round;stroke-linejoin:round;stroke-miterlimit:4;stroke-opacity:1;stroke-dasharray:none;stroke-dashoffset:0"
       id="path2742"
       d="m -266.39292,312.18874 c 0.2665,6.51827 -1.06934,12.81745 -3.2744,18.90441 -0.22448,0.55535 -0.44897,1.1107 -0.67345,1.66605 0,0 -10.29633,4.73924 -10.29633,4.73924 l 0,0 c 0.23952,-0.54625 0.47903,-1.0925 0.71854,-1.63875 2.32063,-5.93698 3.82054,-12.10679 3.45434,-18.53937 0,0 10.0713,-5.13158 10.0713,-5.13158 z" />
    <path
       style="fill:#000000;fill-opacity:1;fill-rule:nonzero;stroke:#000000;stroke-width:4.69999981;stroke-linecap:round;stroke-linejoin:round;stroke-miterlimit:4;stroke-opacity:1;stroke-dasharray:none;stroke-dashoffset:0"
       id="path2744"
       d="m -209.77365,270.37577 c -1.19674,0.27591 -2.40694,0.49881 -3.5902,0.82772 -4.0092,1.11443 -4.28701,1.35416 -8.04035,3.09085 -1.23496,0.57142 -4.81811,2.50634 -3.69113,1.74372 15.052,-10.18557 5.19691,-2.61548 4.00572,-1.6749 -2.75488,2.91736 -5.47714,6.44923 -3.80249,10.53485 2.9173,3.58407 6.24536,3.19149 9.96124,1.23353 -2.42496,1.33576 -4.74144,2.89085 -7.27487,4.00728 -0.98169,0.43261 1.73467,-1.26395 2.57185,-1.93475 3.90846,-3.13169 7.46239,-6.69801 11.03865,-10.19405 5.8628,-5.0175 15.00569,-15.05741 22.74345,-14.56985 4.21246,2.14115 4.47129,7.32925 4.90301,11.51398 0.36278,5.14039 0.33458,10.29803 0.33728,15.44824 -0.0694,1.052 0.0378,4.256 0.0572,4.49693 0.3967,-0.0397 0.7951,-0.0305 1.19313,-0.0467 0,0 -9.26237,6.65663 -9.26237,6.65663 l 0,0 c -0.55479,-0.0743 -1.07639,-0.15262 -1.55225,-0.48237 -1.23536,-1.44941 -0.32549,-3.67751 -0.52425,-5.489 0.0425,-5.11958 0.0763,-10.24632 -0.25824,-15.35785 -0.32021,-3.34326 -0.24365,-8.7397 -4.04391,-10.03047 -4.51525,0.77464 -1.79469,0.48305 6.65358,-4.56605 0.69466,-0.41517 -1.43614,0.75821 -2.09103,1.23364 -2.8206,2.04767 -4.96551,4.85592 -7.78415,6.90853 -7.81392,7.69381 -15.23706,14.88538 -25.55322,19.43719 -4.30913,1.73131 -8.06553,1.1823 -11.00713,-2.71188 -1.98222,-4.51379 0.20787,-8.36306 3.25234,-11.87459 8.54325,-7.46056 19.75249,-12.5179 30.80652,-14.9728 0,0 -9.04833,6.77222 -9.04833,6.77222 z" />
    <path
       style="fill:#000000;fill-opacity:1;fill-rule:nonzero;stroke:#000000;stroke-width:4.69999981;stroke-linecap:round;stroke-linejoin:round;stroke-miterlimit:4;stroke-opacity:1;stroke-dasharray:none;stroke-dashoffset:0"
       id="path2746"
       d="m -157.21782,285.96911 c 1.67199,5.02662 3.05511,10.14469 4.42033,15.26163 3.02588,4.43363 -10.97895,11.29716 -9.12171,4.05661 1.06448,-2.49726 2.6274,-4.74689 4.17775,-6.96285 5.11463,-4.92399 11.59095,-10.62949 18.85353,-8.54292 3.07713,2.03565 3.48549,5.68681 3.83395,9.06942 0.22633,3.55237 0.17639,7.11503 0.16598,10.67258 0.23484,1.99679 -0.46915,3.55842 -1.59473,5.14688 -2.71943,3.69357 -8.0155,7.1866 -12.20638,5.15278 0,0 9.47587,-6.30326 9.47587,-6.30326 l 0,0 c 4.83004,1.86638 -11.23505,8.90201 -7.7372,5.64457 1.17091,-1.39289 2.18217,-2.57543 1.93947,-4.49411 0.0508,-3.52514 0.0921,-7.05494 -0.0952,-10.57688 -0.24499,-2.81361 -0.33204,-6.34908 -3.12076,-7.85962 -2.71522,-0.52104 -4.81777,0.48885 -4.6245,0.35906 14.70356,-9.87447 8.70072,-5.25582 5.53382,-2.74884 -1.68333,2.00819 -3.03746,4.3662 -4.264,6.68412 -0.32931,0.48767 -0.0112,1.34328 -0.48006,1.6988 -9.62002,7.29397 -9.32517,10.18029 -10.71235,4.40734 -1.26615,-5.11801 -2.5953,-10.23292 -4.35539,-15.20657 0,0 9.91159,-5.45874 9.91159,-5.45874 z" />
    <path
       style="fill:#000000;fill-opacity:1;fill-rule:nonzero;stroke:#000000;stroke-width:4.69999981;stroke-linecap:round;stroke-linejoin:round;stroke-miterlimit:4;stroke-opacity:1;stroke-dasharray:none;stroke-dashoffset:0"
       id="path2748"
       d="m -110.17824,300.4688 c 5.81402,0.0346 11.628188,0.0199 17.442192,-0.0103 1.513679,-0.16744 3.307855,0.51428 4.49898,-0.55012 0,0 -8.91558,7.08118 -8.91558,7.08118 l 0,0 c -1.57466,0.25519 -3.164572,0.0986 -4.756262,0.13341 -5.80456,-0.0305 -11.60929,-0.0445 -17.41387,-0.0103 0,0 9.14454,-6.6439 9.14454,-6.6439 z" />
    <path
       style="fill:#000000;fill-opacity:1;fill-rule:nonzero;stroke:#000000;stroke-width:4.69999981;stroke-linecap:round;stroke-linejoin:round;stroke-miterlimit:4;stroke-opacity:1;stroke-dasharray:none;stroke-dashoffset:0"
       id="path2752"
       d="m -89.255471,293.102 c 7.564875,-4.88075 15.399455,-12.67825 24.889767,-11.64988 4.055962,2.02298 2.581079,6.00463 1.315326,9.37319 -2.554103,5.93958 -6.919443,10.79098 -11.151916,15.58011 -2.306576,3.72981 -7.437507,6.01103 -9.020329,10.172 0.672792,1.49525 4.641264,1.06215 6.154708,1.10096 2.099196,0.41304 5.138541,-0.89952 6.834966,0.54835 0.66205,0.75484 0.937028,1.66473 1.09094,2.62876 0.01102,0.10048 0.01881,0.20127 0.02822,0.3019 0,0 -10.233549,5.07725 -10.233549,5.07725 l 0,0 c 0.01836,-0.0498 0.07886,-0.0819 0.05509,-0.14927 0.0069,-0.61357 -0.07402,-1.23343 -0.52639,-1.69458 -2.10257,-0.35654 -4.339092,0.22603 -6.455041,-0.0754 -2.492928,-0.11836 -6.328258,0.14667 -7.188108,-2.78644 0.42815,-4.12784 6.67153,-7.35924 8.886472,-10.75699 4.212447,-4.68581 8.566081,-9.41842 11.265741,-15.18069 0.918099,-2.38415 3.288672,-6.31476 -0.275598,-7.5355 -1.559995,-0.0363 -2.064519,-0.14719 -3.691404,0.30526 -0.891269,0.24786 -3.329394,1.5348 -2.603437,0.9614 13.101862,-10.34852 4.671513,-1.83995 1.124553,-0.43418 0,0 -10.500006,4.21374 -10.500006,4.21374 z" />
    <path
       style="fill:#000000;fill-opacity:1;fill-rule:nonzero;stroke:#000000;stroke-width:4.69999981;stroke-linecap:round;stroke-linejoin:round;stroke-miterlimit:4;stroke-opacity:1;stroke-dasharray:none;stroke-dashoffset:0"
       id="path2754"
       d="m -24.78457,204.46452 c 10.683795,5.17002 19.2013403,12.96804 26.9575238,21.79368 1.6870409,2.24181 4.0830849,4.09575 5.0611229,6.72544 4.7149583,12.67729 -9.3068521,36.25986 -15.167814,47.15583 -9.2584177,16.75947 -20.1264207,30.71638 -35.5713977,42.07541 -1.647744,1.04183 -3.295488,2.08366 -4.943231,3.12549 0,0 -10.369086,4.01911 -10.369086,4.01911 l 0,0 c 1.679923,-1.02674 3.359847,-2.05348 5.039771,-3.08022 15.834555,-11.25237 26.438204,-24.7905 35.936731,-41.69498 5.419502,-9.99717 19.859313,-34.39549 15.6257993,-45.98896 -0.9527603,-2.60913 -3.3541733,-4.42841 -5.03126,-6.64261 -7.7559573,-8.67542 -16.2867873,-16.35752 -26.9847583,-21.25677 0,0 9.446599,-6.23142 9.446599,-6.23142 z" />
    <path
       style="fill:#000000;fill-opacity:1;fill-rule:nonzero;stroke:#000000;stroke-width:4.69999981;stroke-linecap:round;stroke-linejoin:round;stroke-miterlimit:4;stroke-opacity:1;stroke-dasharray:none;stroke-dashoffset:0"
       id="path2756"
       d="m -547.6423,195.31451 c -7.38416,13.31323 -15.81614,25.9953 -23.42185,39.1754 -9.95807,16.84692 -18.40485,34.45698 -24.29319,53.12187 -2.15163,9.33464 -3.75514,19.07671 -2.08847,28.64442 0.77839,4.46842 1.99916,7.32177 3.51007,11.50531 0,0 -9.73679,5.39131 -9.73679,5.39131 l 0,0 c -1.46233,-4.10323 -2.8181,-7.41888 -3.59919,-11.76889 -1.74359,-9.7104 -0.1455,-19.60509 1.99998,-29.09502 5.86493,-18.74028 14.26501,-36.43719 24.23529,-53.35544 7.48262,-13.13625 15.91114,-25.70839 23.0875,-39.02464 0,0 10.30665,-4.59432 10.30665,-4.59432 z" />
    <path
       style="fill:#000000;fill-opacity:1;fill-rule:nonzero;stroke:#000000;stroke-width:4.69999981;stroke-linecap:round;stroke-linejoin:round;stroke-miterlimit:4;stroke-opacity:1;stroke-dasharray:none;stroke-dashoffset:0"
       id="path2758"
       d="m -557.21782,557.39768 c 3.24959,12.62623 3.74281,25.72512 4.30974,38.68498 0.37806,18.27626 1.05092,36.57855 0.37603,54.85331 -0.55572,8.82018 -0.2528,4.63948 -0.88571,12.54375 0,0 -9.9641,4.96915 -9.9641,4.96915 l 0,0 c 0.73523,-7.91555 0.38575,-3.73126 1.02056,-12.55516 0.81917,-18.24629 0.11938,-36.53411 -0.30212,-54.7847 -0.60064,-12.81603 -1.0778,-25.80311 -4.46599,-38.25259 0,0 9.91159,-5.45874 9.91159,-5.45874 z" />
    <path
       style="fill:#000000;fill-opacity:1;fill-rule:nonzero;stroke:#000000;stroke-width:4.69999981;stroke-linecap:round;stroke-linejoin:round;stroke-miterlimit:4;stroke-opacity:1;stroke-dasharray:none;stroke-dashoffset:0"
       id="path2760"
       d="m -509.25804,646.82028 c 0.016,8.14973 -3.22983,15.21286 -7.10835,22.16155 0,0 -10.22421,4.55941 -10.22421,4.55941 l 0,0 c 3.92005,-6.74868 7.34473,-13.57228 7.27721,-21.59751 0,0 10.05535,-5.12345 10.05535,-5.12345 z" />
    <path
       style="fill:#000000;fill-opacity:1;fill-rule:nonzero;stroke:#000000;stroke-width:4.69999981;stroke-linecap:round;stroke-linejoin:round;stroke-miterlimit:4;stroke-opacity:1;stroke-dasharray:none;stroke-dashoffset:0"
       id="path2762"
       d="m -472.23268,602.23102 c -1.03011,0.55722 -4.10672,2.25353 -3.09034,1.67164 1.95771,-1.1208 3.69009,-2.91491 5.91477,-3.28864 1.50618,-0.25303 -2.4386,1.84853 -3.55384,2.89201 -3.69385,3.4562 -6.60047,7.4822 -9.37304,11.6733 -3.27674,6.31806 -7.06199,13.5892 -5.65556,20.90668 0.44597,0.8273 0.63863,1.74326 1.74412,1.91588 1.09323,0.17071 4.11293,-1.59486 3.14766,-1.054 -9.18992,5.14929 -9.94809,6.06626 -5.87216,2.51475 5.00302,-5.94546 9.71957,-12.11552 14.81597,-17.98842 6.53503,-7.87946 14.51205,-12.00054 23.36823,-17.04561 4.73333,-0.67711 6.06082,4.38104 7.43175,7.93762 1.74872,5.42401 2.14052,11.12339 3.30783,16.68164 0.44546,2.06541 0.93452,4.12087 1.42984,6.17474 0,0 -9.98611,5.38022 -9.98611,5.38022 l 0,0 c -0.46875,-2.07429 -0.93443,-4.14928 -1.38052,-6.22859 -1.16794,-5.50051 -1.58846,-11.12459 -3.24232,-16.51168 -1.17423,-3.04283 -2.22504,-7.82159 -6.3896,-6.3371 16.46753,-9.65926 6.47919,-4.18105 3.46257,-1.80882 -2.80811,2.20825 -4.96938,5.07475 -7.67361,7.39667 -5.12163,5.84592 -9.94996,11.91892 -14.69666,18.07133 -3.81138,3.71614 -15.57245,14.27632 -19.42926,6.23183 -1.61935,-7.58931 2.03824,-15.1097 5.3967,-21.74805 7.22256,-11.42362 16.27869,-19.27442 29.25921,-24.37945 0,0 -8.93563,6.94205 -8.93563,6.94205 z" />
    <path
       style="fill:#000000;fill-opacity:1;fill-rule:nonzero;stroke:#000000;stroke-width:4.69999981;stroke-linecap:round;stroke-linejoin:round;stroke-miterlimit:4;stroke-opacity:1;stroke-dasharray:none;stroke-dashoffset:0"
       id="path2764"
       d="m -420.98507,635.11787 c -1.14841,7.65358 -1.77708,15.37091 -2.23386,23.09259 -0.15788,3.34284 -0.0919,1.77201 -0.20366,4.71225 0,0 -10.10889,5.09513 -10.10889,5.09513 l 0,0 c 0.14701,-2.96953 0.0646,-1.38383 0.25045,-4.75692 0.47951,-7.73844 1.16218,-15.46468 2.15401,-23.15545 0,0 10.14195,-4.9876 10.14195,-4.9876 z" />
    <path
       style="fill:#000000;fill-opacity:1;fill-rule:nonzero;stroke:#000000;stroke-width:4.69999981;stroke-linecap:round;stroke-linejoin:round;stroke-miterlimit:4;stroke-opacity:1;stroke-dasharray:none;stroke-dashoffset:0"
       id="path2766"
       d="m -357.89458,642.63369 c -4.76416,2.04281 -10.04251,5.89518 -15.45885,4.67936 -2.87083,-2.03407 0.31888,-4.68841 2.21787,-5.93128 5.13263,-4.89626 14.1176,-9.86774 11.97563,-1.1604 -1.00662,2.92137 -3.03863,5.25471 -4.90822,7.64888 -10.19854,3.65498 -10.35304,6.9076 -9.37055,1.6311 0.004,-0.0321 0.009,-0.0642 0.013,-0.0962 0,0 10.10157,-5.32533 10.10157,-5.32533 l 0,0 c 0.0207,0.0846 0.0414,0.16913 0.062,0.2537 0.32438,4.81276 -9.29803,11.63306 -11.27107,8.03254 1.78521,-2.36226 3.90477,-4.50145 5.11723,-7.25164 0.11238,-0.3885 0.22475,-0.77699 0.33713,-1.16549 0.0903,-0.34975 0.17135,-0.70203 0.27089,-1.04927 0.36039,-1.25706 -0.84504,-0.30942 -0.59234,-0.4587 2.94342,-1.73883 5.91242,-3.43398 8.86862,-5.15096 -0.81844,0.44975 -5.21661,2.69289 -3.54147,3.49285 5.38424,0.37058 10.27954,-3.14837 15.00936,-5.21298 0,0 -8.83086,7.06386 -8.83086,7.06386 z" />
    <path
       style="fill:#000000;fill-opacity:1;fill-rule:nonzero;stroke:#000000;stroke-width:4.69999981;stroke-linecap:round;stroke-linejoin:round;stroke-miterlimit:4;stroke-opacity:1;stroke-dasharray:none;stroke-dashoffset:0"
       id="path2768"
       d="m -296.45881,640.1938 c -3.19397,2.21277 -5.9035,4.93745 -8.67461,7.62281 0,0 -10.53884,4.2652 -10.53884,4.2652 l 0,0 c 3.07437,-2.27945 5.30027,-5.73475 8.71344,-7.67428 0,0 10.50001,-4.21373 10.50001,-4.21373 z" />
    <path
       style="fill:#000000;fill-opacity:1;fill-rule:nonzero;stroke:#000000;stroke-width:4.69999981;stroke-linecap:round;stroke-linejoin:round;stroke-miterlimit:4;stroke-opacity:1;stroke-dasharray:none;stroke-dashoffset:0"
       id="path2776"
       d="m -252.23268,602.23102 c 1.43731,-1.35742 -8.52543,4.24729 -6.43497,3.10588 2.07402,-1.13244 3.97272,-2.67036 6.21986,-3.40134 1.2136,-0.39477 -2.06338,1.50917 -3.01547,2.35898 -1.87791,1.67619 -3.10042,3.30035 -4.69577,5.22796 -2.93449,3.97706 -5.03537,8.50703 -6.39402,13.24649 -0.069,3.47054 1.89492,1.66057 3.77565,0.53832 -16.87991,10.92889 -3.58748,0.92129 0.087,-2.00904 3.26283,-2.60271 6.0123,-5.80577 9.30182,-8.36118 8.89058,-4.95153 12.03626,-10.59373 15.46995,-1.83759 1.72772,3.78256 2.27824,7.91058 2.67595,12.00788 0.027,2.98174 0.19111,5.81347 1.90569,8.32875 0.39644,0.46903 0.20271,0.27037 0.56633,0.61016 0,0 -9.73701,5.94542 -9.73701,5.94542 l 0,0 c -0.42315,-0.47158 -0.20074,-0.20706 -0.65686,-0.80216 -1.7464,-2.71477 -2.18282,-5.6468 -2.11599,-8.84995 -0.35418,-3.99568 -0.83639,-8.02831 -2.53531,-11.7125 -0.35706,-0.87253 -0.54839,-1.82455 -1.03453,-2.63231 -1.84388,-3.06376 -17.14098,9.12132 6.01089,-5.19613 -3.56853,2.10069 -6.06809,5.76728 -9.34718,8.3031 -6.36455,4.79278 -11.70049,10.26789 -19.43394,13.32283 -2.99913,1.44943 -4.91675,0.81894 -5.15984,-2.76623 1.14108,-4.90407 3.50657,-9.54713 6.27824,-13.72509 7.10358,-8.93567 16.52759,-14.55727 27.2051,-18.6443 0,0 -8.93563,6.94205 -8.93563,6.94205 z" />
    <path
       style="fill:#000000;fill-opacity:1;fill-rule:nonzero;stroke:#000000;stroke-width:4.69999981;stroke-linecap:round;stroke-linejoin:round;stroke-miterlimit:4;stroke-opacity:1;stroke-dasharray:none;stroke-dashoffset:0"
       id="path2778"
       d="m -209.25007,623.61731 c -0.40925,7.72608 -1.86619,15.25551 -3.59796,22.76951 -2.40394,10.1088 1.09291,7.11527 -11.58377,11.28118 1.80765,-3.46146 3.58092,-6.94439 5.8703,-10.11845 5.23082,-4.43074 12.37259,-10.30378 19.03253,-10.75026 3.41469,1.16574 4.06834,5.41343 5.1363,8.47764 1.13911,3.41484 2.17597,6.98186 1.86372,10.60186 -0.73178,3.42404 -1.39665,6.85776 -2.7789,10.08517 -0.62287,1.37438 -1.35852,2.69155 -2.14368,3.9783 -0.0272,0.0469 -0.0543,0.0938 -0.0815,0.14069 0,0 -10.49552,4.50271 -10.49552,4.50271 l 0,0 c 0.035,-0.0332 0.0699,-0.0664 0.1049,-0.0996 0.90163,-1.18071 1.62742,-2.48201 2.29962,-3.80559 1.48512,-3.11941 2.14143,-6.42925 2.92134,-9.78577 0.63726,-3.40493 -0.6194,-6.89809 -1.59795,-10.14205 -0.84663,-2.41294 -1.38555,-6.73743 -4.3301,-7.17098 -4.52399,0.81766 -1.99081,0.53732 6.73927,-4.7821 4.04297,-2.46347 -10.33432,6.33685 -6.2659,4.28265 -2.46376,2.98851 -3.9253,6.51845 -6.01507,9.75187 -14.11164,8.35242 -10.96724,8.84765 -8.81735,-1.5673 1.7321,-7.43697 3.35094,-14.84899 3.66844,-22.51786 0,0 10.07129,-5.13158 10.07129,-5.13158 z" />
    <path
       style="fill:#000000;fill-opacity:1;fill-rule:nonzero;stroke:#000000;stroke-width:4.69999981;stroke-linecap:round;stroke-linejoin:round;stroke-miterlimit:4;stroke-opacity:1;stroke-dasharray:none;stroke-dashoffset:0"
       id="path2780"
       d="m -167.55336,652.72632 c 3.77131,1.28127 1.87348,0.64213 5.6936,1.91708 0,0 -9.32557,6.3273 -9.32557,6.3273 l 0,0 c -3.83097,-1.27541 -1.92042,-0.64505 -5.73158,-1.89131 0,0 9.36355,-6.35307 9.36355,-6.35307 z" />
    <path
       style="fill:#000000;fill-opacity:1;fill-rule:nonzero;stroke:#000000;stroke-width:4.69999981;stroke-linecap:round;stroke-linejoin:round;stroke-miterlimit:4;stroke-opacity:1;stroke-dasharray:none;stroke-dashoffset:0"
       id="path2782"
       d="m -136.33875,651.06477 c 5.6485,-1.52468 11.53004,-4.11358 17.41218,-2.50635 3.81347,2.43194 3.87175,6.15706 3.27833,10.22852 -1.42874,5.2998 -5.54879,9.05587 -9.49932,12.59884 -2.76167,2.29641 -6.18929,3.78955 -8.80455,6.26456 2.03414,-0.56571 4.97041,0.33998 7.17472,0.94425 3.84436,0.68018 6.81444,3.31224 9.64475,5.82641 0.73145,0.68469 1.48113,1.36158 2.09456,2.15685 0,0 -9.83522,5.80934 -9.83522,5.80934 l 0,0 c -0.58793,-0.70385 -1.22838,-1.36083 -1.90922,-1.97711 -2.72797,-2.44628 -5.5962,-4.78812 -9.32711,-5.39523 -2.74347,-0.6902 -6.42052,-0.21844 -8.21499,-2.64581 0.75729,-3.26273 6.56556,-4.53438 8.71761,-6.73799 3.9395,-3.29723 7.98987,-6.93202 9.80386,-11.86788 0.57235,-3.38052 1.10436,-6.88485 -2.43549,-8.75447 -5.82996,-1.05134 -11.51367,1.43072 -17.03574,2.99813 0,0 8.93563,-6.94206 8.93563,-6.94206 z" />
    <path
       style="fill:#000000;fill-opacity:1;fill-rule:nonzero;stroke:#000000;stroke-width:4.69999981;stroke-linecap:round;stroke-linejoin:round;stroke-miterlimit:4;stroke-opacity:1;stroke-dasharray:none;stroke-dashoffset:0"
       id="path2784"
       d="m -50.410503,592.72632 c 8.196693,2.98117 15.080269,7.76121 21.02923,14.04481 7.064479,8.94924 7.72668,19.99941 7.130108,30.93284 -1.472557,16.00192 -8.707165,30.18295 -18.316249,42.77002 -7.867804,9.2069 -18.420494,15.3394 -29.653229,19.66012 0,0 8.786202,-6.90602 8.786202,-6.90602 l 0,0 c 1.476282,-0.6062 4.154104,-3.39069 4.428846,-1.81862 0.290856,1.66427 -5.345892,4.03387 -4.269244,2.73186 2.995075,-3.62198 8.5197,-4.63902 10.578091,-9.32241 9.714679,-12.29672 16.988029,-26.31981 18.542515,-42.14024 0.637234,-10.61469 0.09963,-21.39031 -6.788866,-30.08127 -5.867299,-6.14596 -12.704708,-10.79356 -20.83095,-13.51802 0,0 9.363546,-6.35307 9.363546,-6.35307 z" />
    <path
       style="fill:#000000;fill-opacity:1;fill-rule:nonzero;stroke:#000000;stroke-width:4.69999981;stroke-linecap:round;stroke-linejoin:round;stroke-miterlimit:4;stroke-opacity:1;stroke-dasharray:none;stroke-dashoffset:0"
       id="path2786"
       d="m -556.8642,521.13089 c -14.60711,19.16132 -27.14416,39.82337 -39.47596,60.4911 -13.54746,25.36064 -28.62323,51.47721 -33.37554,80.29714 -0.71417,4.331 -0.70839,8.75034 -1.06259,13.12551 1.68223,13.98096 0.34476,7.44575 3.70479,19.66609 0,0 -9.62502,5.22897 -9.62502,5.22897 l 0,0 c -3.32736,-12.49817 -1.99831,-5.81761 -3.68284,-20.09982 0.36281,-4.44026 0.36246,-8.92528 1.08841,-13.3208 4.77448,-28.90868 19.8353,-55.13295 33.3342,-80.62869 12.15879,-20.57888 24.5942,-41.06558 38.72179,-60.36937 0,0 10.37276,-4.39013 10.37276,-4.39013 z" />
    <path
       style="fill:#000000;fill-opacity:1;fill-rule:nonzero;stroke:#000000;stroke-width:4.69999981;stroke-linecap:round;stroke-linejoin:round;stroke-miterlimit:4;stroke-opacity:1;stroke-dasharray:none;stroke-dashoffset:0"
       id="path2788"
       d="m 901.51821,212.01353 c -11.09623,-3.19663 -22.00408,0.78418 -31.84703,5.83157 1.42748,-0.6392 4.57921,-3.45324 4.28244,-1.9176 -0.39607,2.04953 -3.1927,2.69352 -4.70954,4.12762 -1.45829,1.37875 -2.89109,2.7914 -4.20926,4.30468 -3.50592,4.02486 -5.85942,8.1948 -7.79765,13.11172 -1.54692,6.12565 0.57746,11.40266 6.92607,12.82772 8.52969,-0.74516 16.08963,-5.62575 23.51645,-9.53174 7.8166,-4.43582 15.52584,-9.03141 23.85197,-12.45031 6.00602,-1.73366 8.62584,2.58255 9.35767,7.88568 0.0253,6.06759 -0.72319,12.10746 -1.13603,18.1566 -0.23954,3.33695 -0.36252,6.68018 -0.39797,10.02507 0.17607,0.86304 0.71405,1.35474 1.44461,1.7643 0,0 -9.60667,6.14047 -9.60667,6.14047 l 0,0 c -0.94451,-0.73133 -1.6556,-1.57049 -1.97418,-2.75892 0.0637,-3.3756 0.1539,-6.75212 0.44057,-10.11768 0.44087,-5.98654 1.10991,-11.96483 1.23752,-17.96733 -0.50087,-5.00688 -2.88945,-8.07858 -8.20572,-6.15645 -8.24439,3.48168 -15.88066,8.13163 -23.70033,12.45665 -7.52764,3.94241 -15.37147,9.08237 -24.14237,8.94214 -6.63121,-2.17422 -9.28443,-7.68419 -7.75984,-14.50112 5.45334,-14.90134 17.55259,-23.94007 31.24645,-31.27078 10.19115,-4.94481 21.18834,-8.56488 32.50458,-5.28632 0,0 -9.32174,6.38403 -9.32174,6.38403 z" />
    <path
       style="fill:#000000;fill-opacity:1;fill-rule:nonzero;stroke:#000000;stroke-width:4.69999981;stroke-linecap:round;stroke-linejoin:round;stroke-miterlimit:4;stroke-opacity:1;stroke-dasharray:none;stroke-dashoffset:0"
       id="path2790"
       d="m 949.37554,271.06477 c 2.33793,-0.58059 9.64063,-3.9705 11.84361,-2.12527 0.37179,0.31142 0.4385,0.8652 0.65776,1.2978 -1.00207,5.43192 -6.37084,9.05322 -10.33801,12.43327 -1.15659,1.9213 -9.56263,5.33679 -8.43109,8.12448 4.7032,1.41026 9.84595,1.11485 14.71519,1.17696 6.17543,0.51503 12.2708,1.29279 17.83074,4.14318 2.42603,1.4472 5.66404,3.70129 5.54005,6.86864 -1.44733,4.34412 -8.84484,7.31085 -13.84686,7.1646 -0.83168,0.0124 -0.90697,-0.96689 -1.00453,-1.61549 0,0 10.10902,-5.27527 10.10902,-5.27527 l 0,0 c 0.0198,0.79161 -0.48845,0.0991 0.0981,0.14773 0.8572,-0.10297 3.24406,-1.04491 2.52836,-0.56205 -11.14271,7.51769 -10.99434,7.42098 -8.14668,5.08951 1.25854,-2.18146 -3.35125,-4.75851 -4.71577,-5.60226 -5.48839,-2.61702 -11.4664,-3.36889 -17.49337,-3.76547 -5.02007,-0.0742 -11.17356,0.68883 -15.52706,-2.18427 -2.02855,-4.40744 5.57218,-6.88594 7.9177,-9.49038 3.95652,-3.35197 8.16481,-6.53605 10.84247,-11.07928 -0.33876,-1.88759 -10.10515,1.74018 -11.51524,2.19563 0,0 8.93563,-6.94206 8.93563,-6.94206 z" />
    <path
       style="fill:#000000;fill-opacity:1;fill-rule:nonzero;stroke:#000000;stroke-width:4.69999981;stroke-linecap:round;stroke-linejoin:round;stroke-miterlimit:4;stroke-opacity:1;stroke-dasharray:none;stroke-dashoffset:0"
       id="path2792"
       d="m 1061.3143,273.21967 c -8.3006,1.44445 -16.5387,3.92527 -24.9972,4.14784 -7.3758,-1.79269 -2.8322,-7.0665 0.5304,-10.28459 6.6166,-5.37808 17.0057,-14.07235 25.7791,-13.04349 4.8031,1.20941 4.079,5.61182 2.7948,9.33113 -3.3808,6.71225 -10.9579,10.61527 -18.188,11.98442 -1.9425,0.0349 -3.4147,-1.03638 -5.0058,-1.97743 -4.3121,-2.5504 -2.772,-0.16969 8.2678,-5.48744 -0.8778,3.40339 -2.4966,6.54235 -3.8393,9.77713 -2.0304,5.13266 -1.6234,2.48056 -11.0087,5.80984 0,0 10.3828,-4.65336 10.3828,-4.65336 l 0,0 c -19.5269,9.36789 -11.4434,7.94006 -9.6751,3.58956 1.3346,-3.18834 2.9143,-6.28067 3.8794,-9.60021 11.5669,-7.35954 6.7015,-8.35425 11.5024,-5.60885 1.4494,0.82887 2.7829,1.56373 4.5158,1.28433 4.1159,-1.10242 9.6494,-4.56287 -4.769,3.73439 -1.8484,1.06369 4.9563,-3.40705 3.6773,-4.06698 1.1471,-3.00267 2.7031,-6.82368 -1.732,-7.52445 -2.2527,-0.0144 -2.2388,-0.19567 -4.5829,0.67645 -1.0007,0.37229 -3.7895,1.94452 -2.9089,1.34078 13.839,-9.48828 4.0762,-1.96151 1.341,0.16434 -2.3668,2.09175 -8.3163,7.01384 -1.873,7.89603 8.4424,-0.45515 16.6503,-2.79821 24.9551,-4.23517 0,0 -9.046,6.74573 -9.046,6.74573 z" />
    <path
       style="fill:#000000;fill-opacity:1;fill-rule:nonzero;stroke:#000000;stroke-width:4.69999981;stroke-linecap:round;stroke-linejoin:round;stroke-miterlimit:4;stroke-opacity:1;stroke-dasharray:none;stroke-dashoffset:0"
       id="path2794"
       d="m 1095.8738,286.92803 c 3.4009,-6.68561 7.5906,-12.84887 13.8916,-17.04727 3.804,-1.98755 7.4501,-4.31219 11.412,-5.96265 0.4763,-0.19843 1.0465,0.26077 1.4196,0.61726 2.0939,2.0009 -0.065,6.0218 -0.8909,8.03127 -4.4309,9.15408 -4.1816,8.05733 -14.7584,11.47994 5.2529,-4.91742 12.029,-7.81097 18.7706,-10.06832 0.6218,-0.20068 1.2437,-0.40136 1.8656,-0.60204 0,0 -8.948,6.94385 -8.948,6.94385 l 0,0 c -0.6161,0.20453 -1.2323,0.40906 -1.8484,0.61359 -1.7546,0.62906 -2.0004,0.70997 -3.6887,1.34177 -0.4728,0.17693 -1.8427,0.80681 -1.4157,0.53773 15.5625,-9.80495 8.8743,-5.50872 5.7349,-3.11104 -18.5514,8.70247 -10.3389,6.88841 -5.9746,-2.42379 1.2696,-2.78581 0.8675,-1.63136 1.6587,-4.31263 0.06,-0.20199 0.7556,-1.62883 0.1131,-2.02164 -0.2934,-0.17939 -1.3037,0.0892 -1.0255,-0.11309 2.5735,-1.87119 5.4057,-3.35795 8.1085,-5.03693 -6.5036,3.82437 -10.7861,9.78352 -14.1214,16.47256 0,0 -10.303,4.66143 -10.303,4.66143 z" />
    <path
       style="fill:#000000;fill-opacity:1;fill-rule:nonzero;stroke:#000000;stroke-width:4.69999981;stroke-linecap:round;stroke-linejoin:round;stroke-miterlimit:4;stroke-opacity:1;stroke-dasharray:none;stroke-dashoffset:0"
       id="path2796"
       d="m 1193.7772,302.127 c -4.2279,-4.97933 -7.4026,-10.67684 -8.5634,-17.12798 -0.7245,-5.20267 1.7921,-9.0161 5.194,-12.60456 3.957,-5.01995 16.5405,-10.472 12.4207,-1.48498 -2.0466,3.53489 -5.4959,5.89479 -8.649,8.37207 -2.2676,8.51409 -14.5701,8.52086 -11.8897,2.40047 0.6828,-1.20726 1.0852,-2.51305 1.7505,-3.73819 0,0 10.3842,-4.62685 10.3842,-4.62685 l 0,0 c -0.7359,1.21382 -1.2938,2.41393 -1.7318,3.70789 -3.5603,5.12792 9.599,-5.94247 -9.0429,6.46656 3.1136,-2.40531 6.536,-4.6822 8.8395,-7.90884 0.4364,-0.78462 0.9386,-1.53602 1.3102,-2.35336 0.1,-0.2199 -0.729,-0.36308 -0.5278,-0.49661 4.8506,-3.21763 12.5523,-7.37312 7.5931,-4.68046 -3.3384,3.27813 -6.2517,6.64209 -5.6807,11.66125 0.924,6.31002 4.1612,11.82712 8.3046,16.60917 0,0 -9.7115,5.80442 -9.7115,5.80442 z" />
    <path
       style="fill:#000000;fill-opacity:1;fill-rule:nonzero;stroke:#000000;stroke-width:4.69999981;stroke-linecap:round;stroke-linejoin:round;stroke-miterlimit:4;stroke-opacity:1;stroke-dasharray:none;stroke-dashoffset:0"
       id="path2798"
       d="m 1269.8437,229.96459 c -9.4647,0.27355 -18.3929,2.16073 -26.872,6.3503 18.8237,-10.01722 2.8725,-2.94394 4.5064,-0.15578 0.4428,0.75567 1.6636,0.55518 2.5147,0.76199 6.9376,-0.27844 13.4115,-3.29477 19.7344,-5.89977 6.1207,-2.94377 11.8426,-6.58006 18.1506,-9.13549 5.1815,-1.03485 4.2538,4.49144 3.9603,7.89597 -0.8245,5.09297 -2.4683,9.88824 -4.5012,14.60026 -0.8464,2.05207 -0.4533,1.08128 -1.1833,2.91074 0,0 -10.3072,4.76551 -10.3072,4.76551 l 0,0 c 0.7481,-1.85395 0.3471,-0.87034 1.2059,-2.94967 1.9761,-4.6519 3.8348,-9.24479 4.6659,-14.28161 0.2684,-3.00148 1.9544,-7.43592 -2.7184,-5.94244 -6.2294,2.63759 -11.9092,6.31916 -18.0808,9.0764 -6.4124,2.62679 -13.2087,5.81702 -20.2877,5.33909 -11.5495,-4.28826 10.7029,-13.41867 11.1211,-13.98368 8.62,-3.98666 17.7307,-5.69497 27.2214,-5.9852 0,0 -9.1301,6.63338 -9.1301,6.63338 z" />
    <path
       style="fill:#000000;fill-opacity:1;fill-rule:nonzero;stroke:#000000;stroke-width:4.69999981;stroke-linecap:round;stroke-linejoin:round;stroke-miterlimit:4;stroke-opacity:1;stroke-dasharray:none;stroke-dashoffset:0"
       id="path2802"
       d="m 1313.009,252.00773 c -1.7065,6.40133 -3.8995,12.64032 -6.1093,18.8824 -2.0438,5.90778 -1.4056,4.95023 -11.5274,7.06786 -0.1336,0.028 0.2103,-1.24541 0.6703,-3.04199 0.9214,-3.55643 2.3294,-7.05469 3.91,-10.37523 3.5516,-5.25225 10.1225,-10.32053 16.6695,-8.75413 2.9743,0.54738 5.2275,1.43549 7.3808,3.56537 2.3697,2.87274 3.1251,6.35955 3.6004,9.95498 0.2414,2.7009 0.3403,5.4127 0.3717,8.1235 -7.119,10.31952 -11.5784,6.99367 -9.4584,0.9995 0,0 10.3081,-4.77711 10.3081,-4.77711 l 0,0 c -2.8262,6.54456 2.3281,1.81895 -11.0175,9.37168 -0.1227,0.0695 0.01,-0.28196 0.013,-0.42294 0.043,-2.67626 -0.031,-5.35563 -0.2497,-8.02365 -0.3976,-3.34122 -0.9867,-6.62589 -3.2366,-9.27176 -2.0316,-1.87578 -4.3129,-2.52662 -7.0198,-3.01752 -0.8074,-0.10663 -3.1211,0.43454 -2.4433,-0.017 16.7275,-11.14292 7.6993,-5.39107 5.4206,-2.38458 -1.7893,3.09636 -2.966,6.74602 -4.0137,10.13792 -0.2485,0.93859 0.03,2.25542 -0.7666,2.81007 -14.3394,9.98037 -10.8591,8.65291 -8.8529,2.83489 2.2741,-6.21097 4.5704,-12.40992 6.1084,-18.8522 0,0 10.2422,-4.81007 10.2422,-4.81007 z" />
    <path
       style="fill:#000000;fill-opacity:1;fill-rule:nonzero;stroke:#000000;stroke-width:4.69999981;stroke-linecap:round;stroke-linejoin:round;stroke-miterlimit:4;stroke-opacity:1;stroke-dasharray:none;stroke-dashoffset:0"
       id="path2804"
       d="m 1358.1609,261.29774 c 6.5188,2.10576 13.2656,3.37337 20.039,4.31395 2.104,0.25636 4.2113,0.53418 6.3315,0.59985 -8.751,5.54217 -7.9395,9.57672 -11.17,3.53858 0,0 9.8677,-5.65104 9.8677,-5.65104 l 0,0 c 2.2477,4.26051 4.3004,11.29485 -7.9647,8.77535 -2.1031,-0.19726 -4.1997,-0.45755 -6.29,-0.76183 -6.8146,-1.03961 -13.5912,-2.39637 -20.177,-4.46178 0,0 9.3635,-6.35308 9.3635,-6.35308 z" />
    <path
       style="fill:#000000;fill-opacity:1;fill-rule:nonzero;stroke:#000000;stroke-width:4.69999981;stroke-linecap:round;stroke-linejoin:round;stroke-miterlimit:4;stroke-opacity:1;stroke-dasharray:none;stroke-dashoffset:0"
       id="path2806"
       d="m 1418.7232,269.15058 c -1.8768,5.94508 -3.5989,11.90606 -5.6859,17.78538 -1.1827,2.88309 -2.674,5.63151 -4.3821,8.23518 -2.465,3.67851 -1.0259,0.92462 -10.8657,4.57513 0,0 10.1004,-5.23641 10.1004,-5.23641 l 0,0 c -18.9335,10.74236 -12.2674,8.40351 -9.6824,5.20835 1.8275,-2.48343 3.3113,-5.20759 4.5961,-8.00562 2.1356,-5.85718 3.9419,-11.76729 5.6775,-17.75193 0,0 10.2421,-4.81008 10.2421,-4.81008 z" />
    <path
       style="fill:#000000;fill-opacity:1;fill-rule:nonzero;stroke:#000000;stroke-width:4.69999981;stroke-linecap:round;stroke-linejoin:round;stroke-miterlimit:4;stroke-opacity:1;stroke-dasharray:none;stroke-dashoffset:0"
       id="path2808"
       d="m 1469.8405,283.51062 c -3.8907,7.74407 -9.2328,14.50403 -14.8066,21.07201 -2.7039,3.01067 -5.7324,5.6991 -8.7803,8.35085 0,0 -10.4793,4.2477 -10.4793,4.2477 l 0,0 c 3.0875,-2.6162 6.1412,-5.2815 8.9296,-8.22096 5.5313,-6.50797 11.0285,-13.05888 14.8336,-20.78817 0,0 10.303,-4.66143 10.303,-4.66143 z" />
    <path
       style="fill:#000000;fill-opacity:1;fill-rule:nonzero;stroke:#000000;stroke-width:4.69999981;stroke-linecap:round;stroke-linejoin:round;stroke-miterlimit:4;stroke-opacity:1;stroke-dasharray:none;stroke-dashoffset:0"
       id="path2810"
       d="m 1533.5008,274.00408 c -6.9079,-6.87723 -8.5377,-13.33723 -7.0416,-22.78161 4.5486,-13.34312 16.6152,-20.16764 29.4325,-24.8092 11.4584,-2.22536 18.2517,-0.9381 25.7562,8.25512 6.1296,9.88232 4.8967,20.45725 2.117,31.16758 -6.1484,16.53165 -15.154,19.63453 -30.3081,27.20766 -3.7598,0.73188 -7.1088,-0.3337 -10.6218,-1.47926 0,0 9.3069,-6.3405 9.3069,-6.3405 l 0,0 c 3.4035,1.01432 6.5892,1.85719 10.1633,0.93711 -1.8975,1.36927 -4.1314,2.36478 -5.6927,4.10783 -1.0437,1.16529 2.7867,-1.43793 4.0842,-2.31195 6.2154,-4.18701 10.3871,-10.40383 13.0307,-17.33018 2.804,-10.34053 4.2739,-20.59679 -1.675,-30.20504 -7.2156,-8.68806 -14.1933,-9.63515 -24.9461,-7.12459 -1.5751,0.62699 -5.3178,3.46929 -4.7252,1.88097 0.7102,-1.9036 3.193,-2.8953 5.2061,-3.17006 1.5904,-0.21706 -2.6195,1.87301 -3.7855,2.97616 -2.1852,2.0675 -4.0776,4.68712 -5.4962,7.33239 -0.6886,1.28414 -1.1875,2.66133 -1.7813,3.99199 -1.6877,9.04322 -0.3009,15.20188 6.5573,21.67767 0,0 -9.5807,6.01791 -9.5807,6.01791 z" />
    <path
       style="fill:#000000;fill-opacity:1;fill-rule:nonzero;stroke:#000000;stroke-width:4.69999981;stroke-linecap:round;stroke-linejoin:round;stroke-miterlimit:4;stroke-opacity:1;stroke-dasharray:none;stroke-dashoffset:0"
       id="path2812"
       d="m 1643.6908,162.9359 c 8.9924,11.47878 12.9627,25.0428 15.0503,39.24003 1.2025,15.44249 -0.9999,31.04381 -7.645,45.14031 -1.3183,2.79654 -2.9885,5.41322 -4.4828,8.11982 -4.7697,7.56987 -10.4312,14.6882 -17.6365,20.10731 -5.4789,4.12077 -20.3694,11.72731 -24.0027,13.6991 0,0 8.6013,-6.87882 8.6013,-6.87882 l 0,0 c -0.7743,0.62766 -3.2094,2.33817 -2.3227,1.88298 10.7331,-5.51018 18.9706,-14.24252 25.3677,-24.34593 1.5146,-2.66414 3.2067,-5.23489 4.5438,-7.99242 6.7309,-13.88223 9.0003,-29.32328 7.8735,-44.60965 -2.0296,-13.9926 -5.8951,-27.41466 -15.0252,-38.55186 0,0 9.6783,-5.81087 9.6783,-5.81087 z" />
    <path
       style="fill:#000000;fill-opacity:1;fill-rule:nonzero;stroke:#000000;stroke-width:4.69999981;stroke-linecap:round;stroke-linejoin:round;stroke-miterlimit:4;stroke-opacity:1;stroke-dasharray:none;stroke-dashoffset:0"
       id="path2814"
       d="m 889.25547,143.05094 c -14.11078,12.32879 -26.33498,26.74307 -38.31471,41.10559 -14.35166,18.22107 -27.79236,37.99641 -34.2144,60.57595 -1.19856,4.21408 -1.80902,8.57365 -2.71353,12.86048 -1.87827,11.42123 -0.004,22.55457 2.02479,33.75646 0,0 -9.62424,5.11976 -9.62424,5.11976 l 0,0 c -1.99344,-11.34572 -3.91108,-22.64046 -2.06516,-34.19943 0.89227,-4.33465 1.48724,-8.74129 2.67681,-13.00396 6.32806,-22.67583 19.71411,-42.58312 34.03797,-60.91022 11.82311,-14.3116 23.9427,-28.5824 37.69247,-41.09089 0,0 10.5,-4.21374 10.5,-4.21374 z" />
    <path
       style="fill:#000000;fill-opacity:1;fill-rule:nonzero;stroke:#000000;stroke-width:4.69999981;stroke-linecap:round;stroke-linejoin:round;stroke-miterlimit:4;stroke-opacity:1;stroke-dasharray:none;stroke-dashoffset:0"
       id="path2816"
       d="m 1002.3486,493.55558 c -6.43362,-7.30584 -12.19797,-8.43423 -21.48993,-6.82915 -0.66234,0.26622 -9.52729,3.55005 -9.4171,4.71151 0.1644,1.73281 4.49112,-3.64448 4.84772,-1.9408 0.41576,1.98632 -3.01045,2.73278 -4.3658,4.2432 -3.28876,3.66503 -4.08825,5.38674 -6.59642,9.50287 -2.98605,6.71887 -7.27658,15.59467 -2.54163,22.40405 6.70544,4.38199 15.00939,-0.12364 21.57542,-2.80852 18.50394,-9.1053 11.85695,-6.34057 31.44774,-17.38384 7.1038,-3.40869 14.6042,-6.96865 22.6405,-6.65231 6.1776,1.83027 6.0807,9.60841 6.0558,14.9168 -0.6412,8.33587 -1.43,16.65695 -1.9273,25.00379 0,0 -10.0553,5.04378 -10.0553,5.04378 l 0,0 c 0.556,-8.32952 1.2972,-16.64219 1.97,-24.96261 0.102,-4.58514 0.5204,-12.18453 -5.1983,-13.37473 -7.8781,0.0411 -15.2128,3.59961 -22.1458,7.02317 -1.6292,0.91716 -3.1044,2.18971 -4.8876,2.75149 -1.5875,0.5001 5.718,-3.40971 4.2858,-2.56189 -10.11663,5.98849 -20.08613,12.49232 -30.95087,17.09211 -7.11626,2.81919 -15.67354,7.03833 -22.54535,1.62908 -4.97113,-7.46007 -1.11365,-16.13463 2.09845,-23.60782 2.42594,-4.12588 3.32948,-6.06758 6.5101,-9.76834 7.29022,-8.4824 17.80778,-14.09008 28.14053,-17.96676 9.65943,-1.2976 15.61184,0.33114 22.26094,7.7305 0,0 -9.7116,5.80442 -9.7116,5.80442 z" />
    <path
       style="fill:#000000;fill-opacity:1;fill-rule:nonzero;stroke:#000000;stroke-width:4.69999981;stroke-linecap:round;stroke-linejoin:round;stroke-miterlimit:4;stroke-opacity:1;stroke-dasharray:none;stroke-dashoffset:0"
       id="path2818"
       d="m 1053.9321,567.33946 c 8.2514,-5.24457 1.4415,-0.98615 17.2866,-10.19645 1.7328,-1.00724 -6.966,3.9684 -5.2177,2.98826 7.4499,-4.17672 13.7377,-7.9338 21.3394,-11.16935 4.9483,-1.17504 9.8327,-1.49109 9.6789,4.82434 -0.6694,4.37262 -3.3513,8.01457 -5.2846,11.88697 -1.8092,3.54146 2.5813,3.09674 5.0128,3.27313 5.8141,0.26113 11.6366,0.19001 17.4546,0.15402 3.2019,0.47936 6.3378,1.33762 9.3861,2.41859 0.4644,0.1303 0.8803,0.35499 1.2846,0.59719 0,0 -9.5999,6.19513 -9.5999,6.19513 l 0,0 c -0.3644,-0.12457 -0.7516,-0.27794 -1.1186,-0.41551 -2.9408,-1.032 -5.9699,-1.88065 -9.0852,-2.15318 -5.8407,0.02 -11.6879,0.0789 -17.5223,-0.23393 -3.0829,-0.31604 -7.9397,-0.85118 -6.1256,-5.13854 1.7126,-3.87559 4.5976,-7.29889 5.4549,-11.52809 0.8849,-5.16094 -5.0353,-3.95354 -8.3472,-2.91447 -2.4974,1.08534 -9.3674,5.31585 -7.4241,3.40831 0.7033,-0.69039 30.8787,-17.91188 -8.5738,4.83896 -1.806,1.04145 3.5329,-2.22823 5.4012,-3.15335 1.2293,-0.60871 -2.3183,1.46716 -3.4774,2.20074 0,0 -10.5227,4.11723 -10.5227,4.11723 z" />
    <path
       style="fill:#000000;fill-opacity:1;fill-rule:nonzero;stroke:#000000;stroke-width:4.69999981;stroke-linecap:round;stroke-linejoin:round;stroke-miterlimit:4;stroke-opacity:1;stroke-dasharray:none;stroke-dashoffset:0"
       id="path2820"
       d="m 1182.0722,565.43266 c -3.9958,-3.27399 -8.5861,-6.79888 -9.5726,-12.16538 7.5079,-17.96493 12.1598,-4.46094 12.5717,0.96345 0.9644,5.91891 -12.1374,13.57495 -12.6463,5.78304 1.4181,-6.37588 9.0883,-9.05719 14.9983,-10.69332 2.7452,0.63295 3.0823,3.0239 2.5228,5.42655 -0.4552,1.30189 -0.2123,0.73424 -0.6851,1.72099 0,0 -10.4721,4.49354 -10.4721,4.49354 l 0,0 c 0.7493,-0.57145 0.3874,-0.17559 0.8906,-1.33996 0.4923,-1.40531 1.0846,-3.72281 -1.2469,-3.34035 -3.6842,1.30843 -9.3517,4.73641 6.294,-4.1662 0.7065,-0.40201 -1.3575,0.97159 -1.7819,1.66488 -0.2041,0.33338 -0.2506,0.7405 -0.3759,1.11075 -0.062,0.31963 -0.2314,0.63655 -0.1857,0.95888 0.043,0.30392 0.678,0.62105 0.4367,0.81075 -15.2922,12.02009 -8.7151,7.689 -7.8089,2.78495 -0.546,-8.65733 -4.4928,-3.94273 7.8749,-12.03591 0.1845,-0.12071 -0.2188,0.38276 -0.3283,0.57414 0.2713,5.09821 5.6149,8.44453 9.0955,11.43128 0,0 -9.5808,6.01792 -9.5808,6.01792 z" />
    <path
       style="fill:#000000;fill-opacity:1;fill-rule:nonzero;stroke:#000000;stroke-width:4.69999981;stroke-linecap:round;stroke-linejoin:round;stroke-miterlimit:4;stroke-opacity:1;stroke-dasharray:none;stroke-dashoffset:0"
       id="path2822"
       d="m 1249.5565,555.32078 c 1.4068,-4.88192 2.7399,-10.80041 6.3805,-14.61539 3.6657,-1.21131 7.175,-3.08977 10.9971,-3.63393 0.6757,-0.0962 0.2519,1.34683 0.2761,2.02896 0.1113,3.14786 -1.5675,5.71613 -3.1759,8.26604 -3.7471,4.19164 -12.1445,13.39009 -16.6363,8.03338 -1.152,-1.74859 -0.066,-3.74265 0.8288,-5.36304 2.9702,-3.95475 8.1578,-6.0146 12.9851,-6.71789 0,0 -9.0741,6.83882 -9.0741,6.83882 l 0,0 c -6.2965,1.32247 11.7266,-6.09787 6.5075,-4.73521 -0.717,1.0864 -2.1229,2.85106 -1.5085,4.07891 0.9778,0.95925 1.8882,0.1663 1.8858,0.16784 -15.7002,9.91956 -8.2458,5.44074 -5.3409,2.23867 1.2317,-1.8225 2.6673,-3.67273 3.2441,-5.84027 0.15,-0.56362 0.1959,-1.15226 0.2304,-1.73448 0.031,-0.5195 -0.4353,-1.22814 -0.035,-1.56082 2.8913,-2.40367 6.2697,-4.15218 9.4045,-6.22827 -3.6818,1.50625 -5.7259,10.34252 -6.827,13.78908 0,0 -10.142,4.9876 -10.142,4.9876 z" />
    <path
       style="fill:#000000;fill-opacity:1;fill-rule:nonzero;stroke:#000000;stroke-width:4.69999981;stroke-linecap:round;stroke-linejoin:round;stroke-miterlimit:4;stroke-opacity:1;stroke-dasharray:none;stroke-dashoffset:0"
       id="path2824"
       d="m 1316.4588,547.38771 c 5.6777,-3.84291 17.1977,-15.14229 22.7012,-11.5531 1.2773,4.71255 -2.396,9.17042 -4.9819,12.80612 -2.4835,4.06797 -14.9461,15.17017 -14.6622,6.94242 0.7975,-7.16057 7.1724,-8.05471 13.4905,-11.6561 2.1884,0.1936 2.8755,1.6893 3.3171,3.6181 0.036,0.21601 0.073,0.43202 0.1091,0.64802 0,0 -10.0775,5.32041 -10.0775,5.32041 l 0,0 c -0.024,-0.1972 -0.048,-0.3944 -0.072,-0.5916 -0.2412,-1.32306 -0.5223,-2.55349 -2.1529,-1.88951 2.911,-1.70292 5.8309,-3.39052 8.7329,-5.10877 0.3623,-0.21452 -0.7516,0.38118 -1.1131,0.59709 -1.6388,0.97885 -1.8791,2.18315 -2.0319,4.01053 -0.6145,2.71139 -14.483,10.78344 -5.8943,2.58934 2.4865,-3.34007 5.1418,-6.83789 5.8308,-11.04674 -3.182,-0.94736 -10.4466,4.67846 5.0112,-4.35834 6.3053,-3.68616 -14.1931,8.20064 -7.7069,5.4584 0,0 -10.5,4.21373 -10.5,4.21373 z" />
    <path
       style="fill:#000000;fill-opacity:1;fill-rule:nonzero;stroke:#000000;stroke-width:4.69999981;stroke-linecap:round;stroke-linejoin:round;stroke-miterlimit:4;stroke-opacity:1;stroke-dasharray:none;stroke-dashoffset:0"
       id="path2826"
       d="m 1433.0354,495.68413 c -1.2981,0.2449 -2.6102,0.42438 -3.8943,0.73469 -4.0431,0.97709 -5.5516,1.53351 -9.3029,3.49236 -1.5597,0.81445 -6.1217,1.85567 -4.558,2.66236 1.6905,0.87211 3.6667,-3.43524 5.2115,-2.32526 1.3596,0.97689 -2.4388,2.29425 -3.6582,3.44137 -1.6796,2.03835 -10.9377,12.72522 -4.1476,13.60544 3.5008,0.12199 6.6131,-1.44631 9.6681,-2.96581 1.4047,-0.6987 5.5233,-2.97754 4.1635,-2.19497 -1.6325,0.93954 -3.7757,4.11259 -4.9823,2.66618 -1.1865,-1.42233 3.0485,-2.10475 4.5728,-3.15712 8.3835,-5.58068 16.022,-12.15332 24.1418,-18.08849 5.3217,-2.94732 15.1734,-15.01496 17.4813,-5.42123 -0.4887,5.80672 -1.5152,11.55777 -2.0657,17.36944 -0.3815,4.25667 -0.5527,8.52793 -0.6054,12.80018 0,0 -10.1263,5.13789 -10.1263,5.13789 l 0,0 c 0.094,-4.31143 0.2441,-8.62368 0.6515,-12.91886 0.5181,-5.70155 1.3203,-11.35995 2.148,-17.0231 -0.01,-0.0361 -0.1705,-1.72007 -0.5857,-1.96056 -0.1819,-0.10542 -0.8067,0.14939 -0.6299,0.0355 16.628,-10.70465 7.6236,-4.46759 4.1733,-2.15138 -8.1992,5.88341 -15.8256,12.51739 -24.2199,18.13999 -8.2673,5.83928 -5.1498,3.82044 -18.6743,11.56871 -4.3882,2.51402 -9.2849,5.0344 -14.4697,4.55027 -0.6698,-0.29497 -1.4592,-0.40235 -2.0095,-0.8849 -4.4379,-3.89153 3.0882,-11.996 5.194,-14.85433 9.0526,-8.92559 22.6939,-17.0883 35.6684,-18.90231 0,0 -9.1445,6.6439 -9.1445,6.6439 z" />
    <path
       style="fill:#000000;fill-opacity:1;fill-rule:nonzero;stroke:#000000;stroke-width:4.69999981;stroke-linecap:round;stroke-linejoin:round;stroke-miterlimit:4;stroke-opacity:1;stroke-dasharray:none;stroke-dashoffset:0"
       id="path2828"
       d="m 1482.4828,534.97498 c 0.7966,5.80379 1.5042,11.61946 2.2172,17.434 0.7464,4.40823 1.4972,2.22998 -9.5376,5.16954 -0.5289,0.1409 0.3472,-1.03826 0.5305,-1.55401 1.0467,-2.94509 0.6976,-1.9887 2.0903,-5.10878 2.6534,-7.41979 6.3588,-14.28657 11.3252,-20.39545 6.2659,-5.46005 13.6321,-14.46906 22.6695,-12.6269 3.676,2.27081 4.572,7.15108 5.7887,11.04133 1.6549,4.67229 0.7892,9.3863 0.042,14.12703 -0.5719,3.22291 -0.8811,6.47945 -1.0421,9.74598 1.5803,4.78512 -11.4532,11.49303 -9.4541,3.93582 0,0 10.2414,-4.86458 10.2414,-4.86458 l 0,0 c -1.4852,4.83328 -12.5845,13.46355 -10.9401,6.03623 0.1777,-3.30791 0.4273,-6.6157 1.037,-9.87715 0.73,-4.58446 1.7901,-9.12854 0.1992,-13.67033 -1.0308,-3.37527 -1.7831,-8.20984 -5.1443,-9.94662 -4.3898,-0.39725 -9.1816,2.88351 4.2555,-4.40429 0.8447,-0.45812 -1.5758,1.10317 -2.3194,1.71177 -1.7184,1.40639 -3.2213,3.06414 -4.9984,4.40371 -5.102,5.90776 -8.8825,12.70279 -11.4081,20.10048 -0.5988,1.28597 -10.4247,27.10342 -13.3785,11.43766 -0.6124,-5.82008 -1.2681,-11.63884 -2.1706,-17.42206 0,0 9.9963,-5.27338 9.9963,-5.27338 z" />
    <path
       style="fill:#000000;fill-opacity:1;fill-rule:nonzero;stroke:#000000;stroke-width:4.69999981;stroke-linecap:round;stroke-linejoin:round;stroke-miterlimit:4;stroke-opacity:1;stroke-dasharray:none;stroke-dashoffset:0"
       id="path2830"
       d="m 1557.947,525.35049 c 6.6916,-2.03143 13.5618,-3.4262 20.497,-4.28682 3.634,-0.34304 7.2793,-0.60006 10.9297,-0.66676 0.408,-0.0546 0.7948,0.005 1.1558,0.114 0,0 -9.3813,6.52432 -9.3813,6.52432 l 0,0 c -0.1526,0.0211 -0.7276,0.16016 -0.976,0.0735 -3.594,0.07 -7.1854,0.2983 -10.7584,0.69491 -6.909,0.92974 -13.7664,2.32486 -20.4025,4.48892 0,0 8.9357,-6.94205 8.9357,-6.94205 z" />
    <path
       style="fill:#000000;fill-opacity:1;fill-rule:nonzero;stroke:#000000;stroke-width:4.69999981;stroke-linecap:round;stroke-linejoin:round;stroke-miterlimit:4;stroke-opacity:1;stroke-dasharray:none;stroke-dashoffset:0"
       id="path2832"
       d="m 1627.5864,512.26073 c -0.8444,8.0497 -2.0674,16.01129 -3.5103,23.97258 -0.3929,3.3587 -1.3999,6.66479 -1.6753,10.03985 -11.5873,4.65995 -10.286,6.22428 -10.3582,-0.33766 0,0 10.0953,-5.15402 10.0953,-5.15402 l 0,0 c 0.035,6.97096 0.8443,4.15783 -10.1022,10.27398 0.9874,-3.10203 1.1648,-6.6749 1.9434,-9.90461 1.4535,-7.93529 2.8154,-15.8501 3.4653,-23.90252 0,0 10.142,-4.9876 10.142,-4.9876 z" />
    <path
       style="fill:#000000;fill-opacity:1;fill-rule:nonzero;stroke:#000000;stroke-width:4.69999981;stroke-linecap:round;stroke-linejoin:round;stroke-miterlimit:4;stroke-opacity:1;stroke-dasharray:none;stroke-dashoffset:0"
       id="path2834"
       d="m 1698.7232,503.4363 c -1.6795,5.36518 -4.0128,10.67106 -8.0482,14.68137 -0.2836,0.225 -0.5673,0.45001 -0.8509,0.67501 0,0 -10.5858,4.155 -10.5858,4.155 l 0,0 c 0.3108,-0.18051 0.6215,-0.36102 0.9323,-0.54154 4.3472,-3.55914 6.7006,-8.89161 8.3105,-14.15977 0,0 10.2421,-4.81007 10.2421,-4.81007 z" />
    <path
       style="fill:#000000;fill-opacity:1;fill-rule:nonzero;stroke:#000000;stroke-width:4.69999981;stroke-linecap:round;stroke-linejoin:round;stroke-miterlimit:4;stroke-opacity:1;stroke-dasharray:none;stroke-dashoffset:0"
       id="path2836"
       d="m 1776.4562,389.67742 c -0.6131,13.94791 -3.3563,27.59839 -6.5881,41.1369 -3.6579,17.49029 -7.9445,34.83735 -12.5574,52.09745 -2.5728,9.57841 -5.0626,19.21773 -8.1658,28.64425 -0.1422,0.31123 -0.2843,0.62247 -0.4265,0.9337 0,0 -10.3996,4.61389 -10.3996,4.61389 l 0,0 c 0.1926,-0.25144 0.3853,-0.50288 0.5779,-0.75432 3.4812,-9.33748 5.7403,-19.13653 8.4773,-28.70067 4.7116,-17.2306 8.9957,-34.58052 12.596,-52.08027 3.2137,-13.41174 5.9758,-26.93399 6.4309,-40.76748 0,0 10.0553,-5.12345 10.0553,-5.12345 z" />
    <path
       style="fill:#000000;fill-opacity:1;fill-rule:nonzero;stroke:#000000;stroke-width:4.69999981;stroke-linecap:round;stroke-linejoin:round;stroke-miterlimit:4;stroke-opacity:1;stroke-dasharray:none;stroke-dashoffset:0"
       id="path2838"
       d="m 1849.4395,332.63502 c 9.5222,19.03041 14.4367,39.78615 18.2443,60.58538 2.9193,23.07322 6.2496,46.57605 3.927,69.87551 -0.4189,4.20246 -1.228,8.35683 -1.842,12.53524 -2.2227,14.94736 -9.4261,27.30861 -17.9862,39.37838 0,0 -10.0229,4.34333 -10.0229,4.34333 l 0,0 c 8.853,-12.15244 15.8704,-23.79405 18.3441,-38.97713 0.6362,-4.15282 1.4667,-8.2805 1.9086,-12.45847 2.4556,-23.21819 -0.8465,-46.66601 -3.7755,-69.66466 -3.8242,-20.63629 -8.6961,-41.29906 -18.5445,-60.01151 0,0 9.7471,-5.60607 9.7471,-5.60607 z" />
    <path
       style="fill:#000000;fill-opacity:1;fill-rule:nonzero;stroke:#000000;stroke-width:4.69999981;stroke-linecap:round;stroke-linejoin:round;stroke-miterlimit:4;stroke-opacity:1;stroke-dasharray:none;stroke-dashoffset:0"
       id="path2840"
       d="m 984.10508,383.82555 c -10.46515,21.17968 -22.8662,41.37949 -34.49413,61.93982 -14.00402,25.7149 -29.58942,50.90395 -39.99592,78.39998 -1.60246,4.234 -2.83283,8.59963 -4.24924,12.89945 -2.60946,10.975 -4.94133,24.43548 4.60314,32.98774 3.73364,3.34552 8.36316,4.90921 12.84891,6.83241 0,0 -9.20161,6.12088 -9.20161,6.12088 l 0,0 c -4.67506,-2.09614 -9.27024,-3.71991 -13.13678,-7.29672 -9.71237,-8.98458 -7.5945,-22.64793 -4.80989,-34.08681 1.43281,-4.33975 2.67647,-8.74658 4.29843,-13.01923 10.45211,-27.53342 26.08198,-52.75953 40.04965,-78.55404 11.43317,-20.39867 23.65882,-40.44714 33.8267,-61.50838 0,0 10.26074,-4.7151 10.26074,-4.7151 z" />
  </g>
</svg>
