<?xml version="1.0" encoding="UTF-8" standalone="no"?>
<!-- Created with Inkscape (http://www.inkscape.org/) -->
<svg
   xmlns:dc="http://purl.org/dc/elements/1.1/"
   xmlns:cc="http://creativecommons.org/ns#"
   xmlns:rdf="http://www.w3.org/1999/02/22-rdf-syntax-ns#"
   xmlns:svg="http://www.w3.org/2000/svg"
   xmlns="http://www.w3.org/2000/svg"
   xmlns:sodipodi="http://sodipodi.sourceforge.net/DTD/sodipodi-0.dtd"
   xmlns:inkscape="http://www.inkscape.org/namespaces/inkscape"
   width="1131.9596"
   height="758.07159"
   id="svg2"
   sodipodi:version="0.32"
   inkscape:version="0.46+devel"
   version="1.0"
   sodipodi:docname="c30d1.svg"
   inkscape:output_extension="org.inkscape.output.svg.inkscape">
  <defs
     id="defs4">
    <inkscape:perspective
       sodipodi:type="inkscape:persp3d"
       inkscape:vp_x="0 : 526.18109 : 1"
       inkscape:vp_y="0 : 1000 : 0"
       inkscape:vp_z="744.09448 : 526.18109 : 1"
       inkscape:persp3d-origin="372.04724 : 350.78739 : 1"
       id="perspective10" />
  </defs>
  <sodipodi:namedview
     id="base"
     pagecolor="#ffffff"
     bordercolor="#666666"
     borderopacity="1.0"
     inkscape:pageopacity="0.0"
     inkscape:pageshadow="2"
     inkscape:zoom="0.35"
     inkscape:cx="485.25378"
     inkscape:cy="381.7864"
     inkscape:document-units="px"
     inkscape:current-layer="layer1"
     showgrid="false"
     inkscape:window-width="1280"
     inkscape:window-height="712"
     inkscape:window-x="-5"
     inkscape:window-y="-3" />
  <metadata
     id="metadata7">
    <rdf:RDF>
      <cc:Work
         rdf:about="">
        <dc:format>image/svg+xml</dc:format>
        <dc:type
           rdf:resource="http://purl.org/dc/dcmitype/StillImage" />
        <dc:title></dc:title>
      </cc:Work>
    </rdf:RDF>
  </metadata>
  <g
     inkscape:label="Layer 1"
     inkscape:groupmode="layer"
     id="layer1"
     transform="translate(110.25378,-156.07697)">
    <path
       style="fill:#000000;fill-opacity:1;fill-rule:nonzero;stroke:#000000;stroke-width:4.69999981;stroke-linecap:round;stroke-linejoin:round;stroke-miterlimit:4;stroke-opacity:1;stroke-dasharray:none;stroke-dashoffset:0"
       id="path2694"
       d="m 238.7309,198.3566 c 4.60819,-7.55673 12.99387,-17.54869 22.84544,-16.34609 4.61091,2.20314 5.42914,7.31954 6.06956,11.91308 -0.24444,8.02151 -9.03645,13.43877 -16.52731,14.09779 -4.46676,-0.8157 -7.62637,-4.29952 -8.71521,-8.5677 -0.66427,-5.09556 1.94399,-9.1439 5.48574,-12.50133 7.08097,-5.17097 13.95234,-10.30239 21.66797,-5.28725 3.06519,3.12979 3.92455,6.81781 2.03532,10.75086 -3.31439,4.6746 -11.10359,11.58893 -15.35674,5.99706 -0.5058,-2.80795 0.0244,-0.52891 -2.53829,-3.43711 0,0 9.69914,-5.87165 9.69914,-5.87165 l 0,0 c 0.85068,0.93051 2.33292,1.92907 3.01703,2.99017 0.1149,0.17822 -1.20758,-0.34271 -0.4057,0.48997 0.32228,0.39303 0.55218,0.83862 1.10997,0.93943 0.27783,0.0502 1.08016,-0.21045 0.84527,-0.0538 -16.79918,11.20248 -9.17334,6.3469 -6.72369,3.58056 2.09001,-3.30844 1.70995,-6.44755 -1.19925,-9.23871 -1.72559,-0.97995 -3.43647,-1.67403 -5.47925,-1.64603 -0.65121,0.009 -2.44448,0.69192 -1.93221,0.28975 2.80865,-2.20496 11.96211,-7.18864 5.73386,-3.76219 -3.53316,2.86589 -6.39797,6.60602 -5.98918,11.39361 0.75544,3.78942 3.79195,6.97336 7.80636,7.13383 4.51683,-1.04601 4.09864,-1.14952 -6.28125,4.56292 -0.56173,0.30914 0.96678,-0.84542 1.40722,-1.31139 1.46305,-1.54791 2.30768,-3.10849 2.33166,-5.28188 -0.49879,-3.97524 -0.95205,-9.00853 -5.25077,-10.57811 -4.8527,0.11648 -2.91497,0.42478 5.27633,-4.70544 0.81273,-0.50902 -1.64411,1.00942 -2.35313,1.65511 -2.5154,2.29071 -4.46725,5.29135 -6.27582,8.13312 0,0 -10.30307,4.66143 -10.30307,4.66143 z" />
    <path
       style="fill:#000000;fill-opacity:1;fill-rule:nonzero;stroke:#000000;stroke-width:4.69999981;stroke-linecap:round;stroke-linejoin:round;stroke-miterlimit:4;stroke-opacity:1;stroke-dasharray:none;stroke-dashoffset:0"
       id="path2696"
       d="m 690.45067,192.8759 c 2.07154,-2.004 4.17809,-4.07272 6.7441,-5.45043 4.91131,-2.63692 10.41951,-9.45267 14.12578,-4.11822 1.43327,6.1946 -2.50857,11.2999 -6.25752,15.76675 -5.96483,5.23389 -15.38201,14.52605 -23.40695,10.20547 -3.59202,-3.34361 -2.87031,-7.26878 -1.39573,-11.48309 3.53277,-7.32455 11.43363,-11.58241 19.02599,-13.8396 5.2503,-0.1452 6.81168,4.11293 7.02785,8.60102 -0.72571,5.95489 -4.20329,11.14499 -7.80508,15.78962 -3.54591,4.28049 -6.25006,5.43204 -13.27768,6.83076 -0.68526,0.13639 -0.37711,-1.36264 -0.38015,-2.06133 -0.009,-1.96941 0.78637,-3.82899 1.37483,-5.65327 3.56032,-7.3506 9.27664,-13.28596 15.1687,-18.81662 3.65453,-2.49743 16.39878,-13.59628 19.4754,-6.68373 -0.24892,4.21353 -3.5689,6.85849 -6.60234,9.33264 -3.87546,2.82438 -13.17327,11.88716 -15.65039,7.46683 -0.78486,-4.65529 8.24753,-7.74055 11.67825,-4.78074 0,0 -9.65588,6.03684 -9.65588,6.03684 l 0,0 c -3.89772,-3.12738 12.16173,-3.94223 8.02806,-6.67977 -0.70697,-0.9045 1.56442,-1.18266 0.81562,-0.71917 -16.23125,10.04683 -8.95267,5.60926 -5.71379,2.8932 2.87901,-2.29093 5.84215,-4.42382 7.15623,-8.02304 -0.53747,-2.46514 -6.07918,1.14606 -3.97932,-0.32881 1.52561,-1.07154 12.26242,-7.66849 4.85681,-2.77355 -5.94548,5.33571 -11.55989,11.21221 -15.38447,18.29265 -0.61015,1.73586 -1.30569,3.33276 -1.52979,5.16643 -0.0566,0.46309 0.4139,1.11336 0.0449,1.39887 -16.76256,12.97094 -9.87292,6.49363 -6.80685,3.5389 3.61446,-4.40293 7.05587,-9.3757 8.12957,-15.06132 -0.0588,-3.90922 -1.17721,-7.66739 -5.92185,-6.81996 -4.5881,1.64548 -2.37221,0.982 6.071,-4.12318 0.57249,-0.34616 -1.17771,0.64651 -1.70674,1.05603 -1.76788,1.36855 -3.20652,3.18717 -4.18191,5.18498 -1.38915,3.53559 -2.7141,7.1503 0.59314,10.00746 1.546,0.61071 1.62352,0.85861 3.42777,0.57713 0.77692,-0.12121 2.89295,-1.11933 2.27094,-0.63829 -14.21089,10.99017 -5.27391,2.564 -2.10657,0.49096 3.54726,-4.04365 7.58109,-8.58996 6.82896,-14.37913 -2.38837,-3.26359 -11.05322,5.56966 6.20097,-5.71928 0.71262,-0.46625 -1.52565,0.76789 -2.23023,1.24622 -1.19957,0.81436 -3.53667,2.87171 -4.64748,3.8247 0,0 -10.40419,4.44507 -10.40419,4.44507 z" />
    <path
       style="fill:#000000;fill-opacity:1;fill-rule:nonzero;stroke:#000000;stroke-width:4.69999981;stroke-linecap:round;stroke-linejoin:round;stroke-miterlimit:4;stroke-opacity:1;stroke-dasharray:none;stroke-dashoffset:0"
       id="path2698"
       d="m 911.80292,458.32081 c -0.7679,-8.21552 1.33643,-15.69587 6.21693,-22.2501 9.37412,-8.04053 16.42633,-13.20674 23.3268,-2.657 2.91757,7.97264 0.84803,15.68915 -2.74606,23.00052 -4.16466,7.35253 -12.45722,15.01228 -21.37389,15.11754 -4.57822,-1.5747 -4.52803,-6.57464 -4.17842,-10.62793 1.04059,-5.29733 3.80302,-9.81792 8.2902,-12.79675 5.6629,-3.71996 15.9095,-10.96763 17.05358,-0.48711 -0.71964,6.73185 -3.72068,12.49635 -7.89277,17.69385 -4.39306,5.26621 -9.03957,7.20904 -15.6431,10.75354 -0.48682,0.26131 -1.06194,0.48098 -1.60853,0.40019 -1.32906,-0.19644 -1.84085,-1.49059 -2.44913,-2.42583 -1.04596,-6.88376 2.06777,-13.76733 5.14825,-19.7631 5.08927,-8.49822 12.85503,-16.11995 23.01101,-18.19133 4.96151,0.79154 5.3818,6.22984 5.85148,10.33933 0.15813,5.87945 -1.93672,10.98615 -5.24652,15.71704 -3.63328,3.89557 -12.70624,14.55966 -16.81247,9.00771 -1.57448,-6.6632 11.62673,-11.00217 14.08696,-12.39001 2.19166,-0.58234 1.1123,-0.32705 3.23631,-0.77334 0,0 -9.02329,6.87892 -9.02329,6.87892 l 0,0 c -2.04315,0.53116 -1.015,0.2119 -3.08055,0.97024 18.33163,-10.84558 4.78268,-4.68663 4.56349,-0.5196 3.82988,-0.39103 2.8468,-1.22532 -7.48616,4.90287 -0.76706,0.45492 4.57801,-2.87746 4.14654,-3.60134 3.45407,-4.39635 5.56594,-9.28224 5.6084,-14.95505 -0.34746,-3.31205 -0.37495,-8.76803 -4.82477,-8.68991 -3.86988,1.28419 -5.78648,2.07533 5.3727,-3.70846 0.84394,-0.43741 -1.55842,1.09678 -2.26471,1.73295 -2.75363,2.48023 -5.02669,5.50546 -6.90931,8.67731 -3.05252,5.66886 -5.95479,12.05142 -5.58568,18.63208 0.49242,0.7233 0.58849,1.37222 1.63133,1.21922 0.51364,-0.0754 1.89246,-0.83186 1.4579,-0.54784 -15.36681,10.04312 -6.13569,3.92849 -3.53125,0.73747 4.21499,-4.95471 7.20858,-10.35244 8.18771,-16.88246 -0.23382,-9.17815 -12.3515,1.54429 3.54763,-8.79569 -4.63854,2.49988 -7.48041,6.71077 -8.72018,11.83391 -0.34624,3.19414 -0.99693,8.17984 3.19168,8.93743 4.73471,-0.57322 2.12804,-0.50402 -6.07461,4.74733 -0.66675,0.42686 1.36578,-0.8056 2.00729,-1.26953 2.65435,-1.91959 4.5977,-4.33676 6.09266,-7.25715 3.62174,-6.90979 5.88988,-14.2111 3.23605,-21.92204 -1.4908,-2.2413 -2.74578,-4.30621 -5.66334,-4.69648 -0.73959,-0.0989 -2.78054,0.61736 -2.23596,0.10724 2.06614,-1.93542 4.69443,-3.16806 7.0989,-4.66249 0.86003,-0.53453 -1.64101,1.18683 -2.46151,1.78025 -5.02606,6.21336 -7.35976,13.33595 -6.55525,21.41023 0,0 -9.99634,5.27337 -9.99634,5.27337 z" />
    <path
       style="fill:#000000;fill-opacity:1;fill-rule:nonzero;stroke:#000000;stroke-width:4.69999981;stroke-linecap:round;stroke-linejoin:round;stroke-miterlimit:4;stroke-opacity:1;stroke-dasharray:none;stroke-dashoffset:0"
       id="path2700"
       d="m 745.63932,703.11196 c 1.04049,3.70859 2.50028,7.75138 2.31954,11.67515 -3.57525,1.05338 -7.01004,2.86775 -10.72575,3.16013 -0.7673,0.0604 -0.20646,-1.53214 -0.18576,-2.30153 0.10562,-3.92606 1.56578,-7.67919 2.83859,-11.33207 2.81098,-6.05624 11.05346,-15.89598 18.3231,-13.46399 3.53085,2.06662 3.66834,6.66301 3.50615,10.31589 -0.6026,4.58558 -1.79968,9.61882 -5.15223,13.01295 -12.09946,9.986 -13.36542,5.97875 -9.36089,-2.02728 1.44341,-2.66836 2.87085,-5.34534 4.28639,-8.02858 0.0641,-0.63073 0.0977,-0.28744 -0.21797,-1.01158 0,0 9.91424,-5.60016 9.91424,-5.60016 l 0,0 c 0.56757,1.19957 0.32585,0.5546 0.6965,1.9454 -1.46138,2.68269 -2.91492,5.36966 -4.35682,8.06286 -4.25687,7.32484 -0.30558,5.64672 -11.50689,10.88228 3.91492,-2.33664 4.84673,-8.06077 5.59438,-12.17077 0.25826,-2.93037 0.44657,-7.45284 -2.72162,-8.8861 -4.29938,-0.083 -2.0712,0.1634 7.1624,-5.14794 0.52393,-0.30137 -0.94758,0.75227 -1.39302,1.16082 -1.92962,1.76984 -3.59523,3.71274 -4.56922,6.18277 -1.24178,3.52464 -2.74416,7.12321 -2.997,10.90306 -0.0466,0.69715 0.62895,1.63198 0.10439,2.09353 -2.94696,2.59294 -6.55896,4.31411 -9.83844,6.47117 0.1872,0.10587 0.4144,0.47438 0.56161,0.3176 0.58874,-0.627 -1.70129,-9.72453 -2.19327,-10.75486 0,0 9.91159,-5.45875 9.91159,-5.45875 z" />
    <path
       style="fill:#000000;fill-opacity:1;fill-rule:nonzero;stroke:#000000;stroke-width:4.69999981;stroke-linecap:round;stroke-linejoin:round;stroke-miterlimit:4;stroke-opacity:1;stroke-dasharray:none;stroke-dashoffset:0"
       id="path2702"
       d="m 293.30782,830.01875 c 5.75144,-7.45366 13.01428,-13.33596 21.05138,-18.13373 6.064,-2.35182 19.60955,-14.33753 27.77653,-8.58599 2.97492,3.90251 1.79307,9.13595 0.25561,13.41772 -4.33393,6.37008 -12.531,13.84693 -15.18805,3.45072 -1.1004,-5.70747 -0.76307,-11.43175 0.72573,-17.01881 2.80453,-6.63673 11.63025,-15.75315 18.89156,-11.02209 4.55097,6.44043 2.15681,14.23149 -0.62068,20.86726 -6.90109,13.52732 -13.34246,16.19265 -26.77651,23.18536 -6.92613,0.68593 -8.87408,-4.7658 -8.48252,-10.68225 1.59668,-7.01741 5.88277,-12.53372 11.76847,-16.47513 6.87843,-4.0023 15.97074,-11.29172 23.82304,-5.48551 3.0929,2.49138 3.15146,5.93844 2.50317,9.54295 -5.04657,7.82445 -12.46818,8.56072 -12.86081,0.9191 -0.0859,-1.67216 0.13807,-3.78614 0.27283,-5.45453 0.091,-0.87194 0.18262,-1.74381 0.27292,-2.61581 0.0789,-0.76156 0.17026,-5.44813 1.35942,-5.89434 11.45404,-4.29796 10.44062,-6.4707 10.88109,-0.41551 -0.45636,5.69936 -2.20762,11.12561 -5.52573,15.78148 -7.41399,7.00007 -13.67633,12.07123 -16.25895,2.05927 -1.15157,-5.16093 0.44263,-9.60771 3.19317,-13.88641 3.59261,-4.44331 15.8647,-15.46018 17.15261,-6.45735 -1.22769,5.11033 -5.66424,8.84461 -9.57616,12.07516 -3.27569,1.99068 -16.49146,13.48675 -17.30973,5.16676 2.81275,-6.77577 10.99928,-9.56206 16.74785,-12.80986 3.71335,-1.67804 3.34137,2.25768 2.21037,4.48784 -3.96745,4.55408 -10.43184,12.48024 -16.6796,9.20159 -2.34585,-2.61133 -0.52373,-5.06086 1.70513,-6.93963 6.7339,-3.68994 13.26812,-11.56888 18.31275,-3.1145 2.48979,5.32372 0.91627,10.4377 -1.14951,15.58702 -3.41578,6.17318 -12.77931,15.11405 -19.87213,13.12729 -3.69694,-3.00947 -3.89887,-8.26673 -3.68809,-12.68425 1.28266,-6.10293 4.48651,-11.57446 8.43694,-16.32518 3.76929,-3.24314 15.80016,-13.87138 16.79327,-4.87691 -1.26566,6.20153 -4.40466,11.90793 -7.76501,17.20973 -3.97757,5.10632 -14.84274,15.95597 -20.96528,13.80335 -2.43035,-4.71477 1.69172,-10.94367 4.08194,-14.98118 3.94487,-6.01829 8.67308,-11.47496 14.50939,-15.70484 6.21701,-3.59468 17.44862,-13.28673 14.602,-1.40668 -2.01301,5.45125 -5.36059,10.27438 -8.15993,15.33535 -2.16784,5.08751 -10.91629,14.82394 -16.33676,8.51001 0,0 9.71212,-5.86257 9.71212,-5.86257 l 0,0 c 3.41789,3.82943 1.2649,0.66494 -7.84748,7.22974 -0.27434,0.19763 0.6711,-0.18185 0.93502,-0.39318 1.50812,-1.20763 2.40785,-3.20409 3.23919,-4.86701 2.69356,-5.04787 6.04316,-9.76402 8.24479,-15.06588 0.28671,-1.05565 0.75315,-2.07708 0.86722,-3.165 0.0198,-0.18859 -0.002,-0.43976 -0.15912,-0.54617 -0.1873,-0.12698 -0.86603,0.10493 -0.67849,-0.0217 4.52792,-3.05697 11.98232,-7.14383 6.07803,-3.87378 -5.99749,3.94251 -10.69651,9.37823 -14.72553,15.28086 -2.11783,3.41082 -5.85295,8.82872 -5.03323,13.0403 4.18848,0.0283 1.34706,-0.16506 -7.21419,5.02374 -0.64693,0.39209 1.30093,-0.77502 1.92088,-1.20852 2.60043,-1.81837 4.6931,-4.11974 6.64678,-6.60921 3.37165,-5.1375 6.24611,-10.58557 7.96277,-16.51495 0.007,-0.58777 0.34043,-1.48183 -0.18049,-1.75417 -0.66178,-0.34598 -2.83536,0.76286 -2.21267,0.35066 12.37323,-8.19068 9.45852,-6.00936 6.07813,-3.32974 -4.0159,4.52815 -7.19184,9.76413 -8.73985,15.66357 -0.30271,3.64339 -0.42517,8.89536 2.89608,11.24003 4.56427,0.28204 1.40055,-0.18284 -6.58678,5.09916 -0.62291,0.41193 1.36027,-0.63276 1.97707,-1.05377 2.18886,-1.49403 3.55546,-3.76911 4.9493,-5.95374 2.06438,-4.76958 3.85769,-9.5781 1.581,-14.62026 -0.63088,-1.04223 -0.87076,-1.79851 -1.99498,-2.38195 -3.59219,-1.86423 -13.81259,6.70361 4.02297,-4.39426 -1.4015,0.98923 -4.58303,2.87121 -2.7851,4.82385 3.48859,0.90864 10.23865,-4.42389 -6.67265,5.05293 -0.98337,0.55106 3.60743,-2.54059 2.4375,-2.34411 0.3632,-0.31693 0.72641,-0.63386 1.08962,-0.95079 1.08148,-1.76828 2.39362,-3.69122 -0.70542,-2.03969 16.37485,-9.64426 5.1828,-3.83371 2.27701,0.6233 -1.12416,2.8625 4.79032,-0.75332 2.53638,0.76609 -1.87001,1.2606 -11.96213,7.26942 -5.8678,3.36801 3.88997,-2.93854 7.98129,-6.54355 9.95969,-11.07123 0.0475,-0.40519 0.43795,-1.28985 -0.33448,-1.43837 -0.31898,-0.0613 -1.2344,0.31332 -0.96565,0.13087 15.30578,-10.3913 7.31499,-4.84433 4.59552,-1.97733 -2.69017,4.03972 -4.7184,7.99729 -3.58633,13.0417 0.24432,1.01975 0.42822,2.2876 1.04098,3.20215 0.18236,0.27219 0.42982,0.53617 0.73686,0.65049 0.30081,0.11199 1.22712,-0.19974 0.96277,-0.0177 -19.73569,13.59043 -8.8562,5.48554 -6.83584,3.9664 3.49006,-4.36403 5.25114,-9.52323 5.88429,-15.06865 -0.27719,-6.2675 -0.77477,-2.39518 9.54548,-9.36972 0.33226,-0.22454 -0.56451,0.58843 -0.73846,0.94976 -1.07502,2.23304 -0.75837,4.74571 -1.18048,7.12015 -0.17923,1.88035 -0.36814,3.35825 -0.35429,5.25389 0.005,0.69036 -0.0285,1.39707 0.14093,2.06634 0.12305,0.48613 1.08985,0.9874 0.71689,1.32261 -2.69702,2.42407 -6.04233,4.01361 -8.99547,6.11813 -0.21232,0.15131 0.49662,-0.15898 0.74493,-0.23848 0.76458,-3.17991 1.06014,-6.20296 -1.82158,-8.40577 -6.88703,-4.46164 -17.70273,4.02791 -3.77556,-4.67843 -5.97807,3.5414 -10.29654,8.73362 -12.17798,15.52568 -0.62447,5.33105 0.98091,10.03172 7.26734,8.7775 -2.21401,1.47132 -4.45661,2.9005 -6.64202,4.41396 -0.99849,0.69148 2.10579,-1.22145 3.07979,-1.94701 4.90759,-3.6558 8.34558,-8.7909 11.3034,-14.05859 2.67491,-5.90798 5.41812,-13.4378 1.27441,-19.34955 -0.4411,-0.20913 -0.84365,-0.53665 -1.32331,-0.62738 -0.51271,-0.097 -1.97678,0.39961 -1.56329,0.0814 14.83488,-11.41839 5.61597,-3.59093 3.68691,0.55002 -1.63886,5.38584 -1.97262,10.91452 -0.94356,16.47133 0.19592,0.82851 0.39734,2.1661 0.9374,2.93389 0.13435,0.19101 0.77085,0.25942 0.57964,0.3935 -16.90426,11.85351 -9.05351,6.26262 -6.56171,3.37117 1.50823,-3.65186 3.03569,-8.58869 0.47791,-12.05779 -3.14933,-1.81208 -6.21145,-0.73305 -9.47252,0.46678 -1.24392,0.45767 -4.52684,2.51834 -3.68468,1.49481 1.35263,-1.64394 3.55922,-2.3368 5.33883,-3.5052 -8.06531,4.56921 -15.37474,10.30904 -21.07238,17.69438 0,0 -10.40418,4.44506 -10.40418,4.44506 z" />
    <path
       style="fill:#000000;fill-opacity:1;fill-rule:nonzero;stroke:#000000;stroke-width:4.69999981;stroke-linecap:round;stroke-linejoin:round;stroke-miterlimit:4;stroke-opacity:1;stroke-dasharray:none;stroke-dashoffset:0"
       id="path2704"
       d="m 55.562475,618.43092 c 2.834969,-6.64334 8.399374,-17.63186 17.76153,-15.52447 4.096937,4.08213 -0.630146,10.64492 -3.033494,14.42317 -6.240873,9.55758 -15.646461,13.78545 -25.45799,19.11306 -4.234094,1.22255 -9.325673,3.42291 -12.845679,-0.27312 -1.835909,-4.7629 2.783777,-9.24391 5.79005,-12.42285 6.665499,-5.52039 14.238506,-12.83488 23.252191,-13.15076 4.894329,1.94694 2.501673,8.17663 1.20296,11.84222 -3.455089,7.30454 -9.628688,12.97046 -15.656125,18.19134 -5.163856,3.25893 -17.667766,13.53135 -21.996185,10.45535 -0.55698,-0.39582 -0.78007,-1.12209 -1.170105,-1.68313 -1.02075,-7.15625 2.770299,-13.30807 6.920584,-18.75217 6.615631,-7.46154 15.486015,-15.61342 25.566598,-17.42715 5.067536,-0.42165 5.607858,4.14399 5.327453,8.11138 -1.159836,6.21104 -4.875524,10.99479 -10.000124,14.46728 -7.707214,4.61353 -16.426584,11.6746 -23.985061,3.98001 -3.548056,-5.91435 -2.006136,-12.31543 0.719707,-18.18057 5.383228,-7.9007 15.079732,-14.42503 24.462685,-15.84959 6.286011,0.0411 8.35747,4.74365 8.820505,10.28969 0.331405,8.86852 -4.391082,16.13575 -9.354109,23.05586 -5.132023,5.67768 -14.850536,16.62692 -22.778924,14.34952 -2.996175,-4.53835 1.216428,-10.36803 3.606318,-14.27736 3.594188,-5.40156 8.21096,-9.98408 13.140049,-14.15766 3.926312,-3.42507 17.851139,-11.5764 12.459292,-2.92242 -2.083251,2.67471 -4.552353,5.00591 -6.510481,7.7812 -0.03736,-0.3441 -0.292393,-0.73684 -0.112092,-1.03229 0.19051,-0.31218 0.680982,-0.26971 1.007353,-0.43473 0.526862,-0.26639 2.063632,-1.14811 1.549425,-0.85804 -15.147421,8.54486 -6.94049,3.75335 -3.613212,1.70548 4.53007,-2.80955 15.106288,-12.45592 17.959512,-7.99941 -0.550792,6.34985 -9.891757,9.56208 -15.093824,6.6026 -3.791515,-3.44487 -2.666635,-8.22007 -1.557898,-12.62803 3.541536,-10.84409 9.113129,-12.73132 19.160826,-18.43174 4.877844,-0.96814 6.727487,3.22654 7.154651,7.34326 0.09795,6.27731 -3.084853,11.48466 -7.459923,15.71385 -7.651443,5.5347 -14.729102,12.86842 -24.615083,10.21261 -4.33334,-2.21919 -4.347505,-6.37238 -2.947725,-10.46657 3.241419,-5.1066 12.495612,-12.10972 18.325907,-9.03549 3.519618,2.65393 1.340756,6.70552 -0.920361,9.36989 -6.677833,5.97128 -14.362094,8.95092 -22.903568,9.90377 -5.011099,-0.63588 -6.744583,-2.61445 -5.778467,-7.52943 3.085175,-8.67732 12.452807,-12.05435 19.88322,-16.1382 4.314158,-1.28115 6.218941,1.6041 5.496164,5.51804 -1.747048,4.62595 -5.173907,8.12674 -8.733657,11.41867 -0.5441,0.44681 -1.024131,0.98573 -1.632302,1.34044 -3.752953,2.18884 -7.555001,4.29835 -11.42417,6.27452 -0.380799,0.19449 -0.839665,0.17384 -1.265974,0.20693 -5.514719,0.42803 8.083696,-9.30906 9.41652,-4.51063 0.0574,5.61 -8.937599,7.03698 -12.760106,4.24186 0,0 9.56865,-6.08388 9.56865,-6.08388 l 0,0 c 5.277389,3.66945 -0.681266,1.17381 -6.870328,7.19347 -0.0075,-3.90074 22.982344,-14.72533 2.830786,-3.10918 -0.609524,0.35135 1.113441,-0.86031 1.670162,-1.29046 3.594308,-3.06343 6.913493,-6.47292 8.974709,-10.78449 1.170074,-3.50911 -0.749893,-4.68653 -4.146906,-3.40709 16.461906,-10.19798 0.899019,-1.52942 -0.804043,4.21385 -1.155457,4.47122 -0.164945,5.3786 4.656561,5.68032 2.186312,-0.28281 4.344625,-0.59726 6.46131,-1.24225 0.817285,-0.24904 3.108825,-1.34963 2.420306,-0.84374 -1.723797,1.26654 -11.597059,7.06148 -5.498591,3.30846 1.848468,-1.76025 5.011329,-5.34055 1.910753,-7.43624 -1.230285,-0.3815 -1.22971,-0.55881 -2.600392,-0.1721 -0.554516,0.15644 -2.081799,0.97461 -1.594581,0.66707 15.654714,-9.88152 8.040866,-5.46217 5.592903,-2.53129 -1.406755,3.39577 -2.09433,7.08632 1.983243,8.80702 1.630087,0.3361 2.530685,0.66264 4.249486,0.40182 0.820274,-0.12447 3.041281,-1.21234 2.388419,-0.70037 -13.323556,10.44823 -5.227719,2.33202 -1.763284,0.78663 4.437321,-3.80782 7.760565,-8.72482 7.851461,-14.76474 -0.173603,-3.6853 -1.768795,-7.02766 -5.977338,-5.49798 2.651021,-1.61042 5.238559,-3.33032 7.953063,-4.83127 0.711608,-0.39347 -1.333125,0.94081 -1.925156,1.49822 -2.865213,2.69768 -4.871414,6.14471 -6.144235,9.83824 -0.996048,3.7533 -2.633413,8.32591 0.859328,11.25482 1.058856,0.44276 1.264647,0.66124 2.440198,0.62967 0.305773,-0.008 1.154535,-0.35765 0.897314,-0.19212 -21.237146,13.6672 -10.582598,4.90069 -7.577919,4.94149 -0.629671,-0.0658 -2.392115,0.71841 -1.862646,0.37132 15.434525,-10.11821 7.549524,-4.56621 4.298805,-2.17729 -5.340379,3.08254 -10.318037,6.33561 -15.785685,9.4367 -0.118387,0.0671 -2.354348,1.1632 -2.862174,1.0104 -0.450549,-0.13557 -0.703203,-0.6253 -1.054805,-0.93795 0.585047,-3.2439 4.78109,-5.35136 6.42304,-8.08221 0.458072,-0.57003 0.704164,-1.35533 1.316745,-1.75471 0.05183,-0.0338 1.124765,0.11784 0.09677,0.15838 2.91867,-1.74025 5.837341,-3.48049 8.756011,-5.22073 0.571292,-0.34512 -1.162371,0.65636 -1.743556,0.98453 -4.941915,4.11499 -9.672399,8.51826 -13.32934,13.85413 -1.925238,3.01002 -6.198988,8.47412 -4.58578,12.29304 3.522269,0.0935 10.179798,-4.09725 -4.778217,4.0917 -0.910666,0.49856 1.718454,-1.17244 2.509209,-1.84518 1.934571,-1.64584 3.775794,-3.78179 5.476174,-5.63423 4.918533,-6.6597 9.813596,-13.67103 9.60955,-22.31205 -0.24789,-5.08039 -2.047174,-9.10591 -7.812656,-8.68427 -5.599116,1.18065 -3.132157,1.0073 4.19304,-3.94949 0.86232,-0.58351 -1.810425,1.03472 -2.663722,1.63135 -1.125915,0.78724 -3.851052,3.04857 -4.781154,4.08853 -0.731006,0.81735 -1.309155,1.7595 -1.963732,2.63925 -2.704192,5.32992 -4.601225,11.3608 -1.323608,16.91485 2.406331,2.30015 4.785423,3.26581 8.168201,2.5008 0.92219,-0.20855 3.434908,-1.46216 2.700952,-0.86615 -2.14386,1.74095 -4.687421,2.92168 -7.031131,4.38253 5.205036,-3.07041 8.986104,-7.49521 10.388418,-13.50232 0.352881,-3.4725 0.359101,-7.13969 -4.204386,-6.30818 -4.697855,1.32421 -3.177435,1.10264 4.970794,-3.72961 0.887703,-0.52645 -1.77728,1.05585 -2.610418,1.66499 -3.210052,2.34696 -6.073519,5.19262 -8.628873,8.22455 -4.099553,5.1352 -7.623851,10.55257 -7.449172,17.40575 0.798233,1.09586 0.551422,1.25531 2.23835,1.05149 0.70511,-0.0852 2.625456,-0.98061 2.057334,-0.55437 -14.247351,10.68914 -4.882112,2.08861 -1.298376,0.70065 6.03879,-5.02662 12.139389,-10.63797 15.840947,-17.64685 0.964759,-2.45839 4.040631,-8.92939 -0.113493,-9.85359 -4.19356,0.54719 -9.09593,3.89456 3.807585,-3.55309 0.830587,-0.4794 -1.628923,1.01364 -2.421703,1.55326 -2.935427,1.99807 -2.452556,1.72327 -5.112589,4.0908 -2.642476,2.57977 -7.271937,6.71369 -6.503986,10.80589 3.191377,2.99357 8.488403,0.18884 11.984034,-0.78835 -2.267281,1.4163 -4.571278,2.77544 -6.801843,4.24888 -0.916617,0.60549 1.941168,-1.03614 2.856896,-1.64297 4.040054,-2.67725 7.428877,-6.32553 10.28113,-10.20479 1.696228,-2.53834 7.09154,-9.39134 4.089032,-12.31495 -4.09409,0.66782 -1.833364,0.4207 7.36515,-4.85483 0.554792,-0.31819 -1.129382,0.64799 -1.552153,1.12789 -1.940236,2.20239 -2.665445,5.3195 -4.093601,7.81636 0,0 -10.242104,4.81007 -10.242104,4.81007 z" />
    <path
       style="fill:#000000;fill-opacity:1;fill-rule:nonzero;stroke:#000000;stroke-width:4.69999981;stroke-linecap:round;stroke-linejoin:round;stroke-miterlimit:4;stroke-opacity:1;stroke-dasharray:none;stroke-dashoffset:0"
       id="path2706"
       d="m 60.977896,406.13418 c -5.58975,7.08986 -11.884678,13.57384 -19.408904,18.58724 -6.308999,3.28151 -18.043072,13.52526 -26.352286,7.79903 -3.72747,-5.69754 -0.588459,-12.78521 2.003652,-18.33791 6.272152,-12.02747 14.599227,-16.11121 26.255186,-22.69995 5.912353,-2.67783 8.550397,-1.16386 9.21908,5.2017 -0.793278,8.8128 -6.400501,15.99235 -12.040996,22.418 -2.980417,3.03718 -6.36952,5.6664 -10.073689,7.76564 -5.828466,3.30314 -10.485124,8.22149 -17.056989,7.06477 -4.4650859,-4.07447 1.938808,-11.52272 4.494722,-15.06095 8.598801,-10.34639 20.090921,-17.49102 32.78107,-21.97211 7.37398,-1.48495 11.462385,0.20981 12.911516,7.77743 -0.143381,8.39901 -5.196104,14.93749 -10.790411,20.70232 -8.073556,6.21941 -17.301703,12.82328 -27.847764,12.61868 -4.015914,-0.28714 -6.558387,-2.45965 -5.530499,-6.51083 4.111981,-5.79285 11.233474,-9.64223 18.25835,-10.69765 4.450807,0.21567 6.249563,2.6778 5.634551,6.98329 -1.192264,5.67437 -4.843102,9.7526 -9.225387,13.27573 -4.589468,2.96639 -16.020924,13.511 -18.065728,4.0804 -0.213039,-5.97392 3.488718,-10.67567 7.348957,-14.81772 6.378087,-5.61289 13.560609,-10.07023 21.604401,-13.0445 0.609787,-0.22548 1.198118,0.5052 1.797178,0.7578 3.642028,3.5728 0.07189,8.18003 -2.167853,11.49418 -4.856793,4.85131 -14.028588,13.07929 -20.481026,10.30095 -4.534975,-4.31314 -1.480515,-10.39712 0.568289,-15.21867 0.546661,-1.12235 1.093323,-2.24469 1.639984,-3.36704 0,0 10.232676,-4.63408 10.232676,-4.63408 l 0,0 c -0.558027,1.1073 -1.116054,2.2146 -1.674081,3.32189 -1.715834,3.84187 -5.34173,9.98549 -1.37228,13.52833 0.423177,0.0939 0.83607,0.28469 1.269531,0.28172 0.548675,-0.004 2.063569,-0.62202 1.618213,-0.30152 -2.47433,1.78061 -5.229277,3.13554 -7.810338,4.75758 -0.606849,0.38137 1.274646,-0.65869 1.885246,-1.03402 2.268427,-1.3944 1.882566,-1.23228 3.772403,-3.12863 1.668706,-2.34498 5.939249,-6.85791 3.138534,-9.63111 -4.536824,-0.97827 -1.518039,0.0344 6.304085,-5.39026 0.742431,-0.51488 -1.598773,0.84616 -2.361347,1.33071 -0.918403,0.58356 -4.289145,3.07162 -5.062433,3.66255 -0.847319,0.6475 -1.673598,1.32209 -2.510396,1.98313 -3.768106,3.83586 -7.608512,8.15075 -7.716342,13.83514 0.105878,1.1907 0.240853,2.41191 1.820605,2.28462 0.491438,-0.0396 1.839228,-0.65368 1.429651,-0.37922 -3.734641,2.50256 -11.780536,6.79562 -5.693645,3.51754 4.374312,-3.27267 8.229006,-7.00488 9.524037,-12.52406 0.982005,-3.69184 -0.707183,-5.33485 -4.492559,-5.09854 -4.684346,1.02437 -8.477734,4.19548 4.960232,-3.95181 1.899499,-1.15164 -5.736722,3.07473 -3.889262,3.01873 -1.672736,3.39353 1.239086,4.54761 4.374203,4.67055 2.834902,-0.11224 2.62061,0.0416 5.55502,-0.73867 1.023292,-0.27209 3.809076,-1.67655 3.02721,-0.96252 -1.910447,1.74471 -4.434036,2.67651 -6.543822,4.17404 -2.058723,1.46129 9.12994,-5.27237 6.33057,-4.15778 5.571386,-5.43149 10.618014,-11.60854 11.17841,-19.69815 -1.088563,-7.15831 -5.313261,-7.71202 -11.783374,-6.1694 -7.624051,2.84356 -2.303404,1.20046 1.40061,-2.09589 1.199886,-1.06783 -2.790471,1.59881 -4.114325,2.50843 -3.549303,2.4387 -4.666267,3.5844 -7.653832,6.66397 -1.124126,1.15875 -2.196183,2.3669 -3.294275,3.55034 -1.406959,1.88301 -8.647459,10.77945 -5.542537,12.94612 4.5309,0.14502 8.928335,-3.78726 -2.659787,3.54848 -1.033662,0.65435 2.125915,-1.21388 3.151987,-1.88007 3.889259,-2.52514 3.534787,-2.45409 7.10744,-5.60916 5.601161,-6.13175 11.155259,-13.05732 12.309802,-21.53855 -0.324062,-6.17372 -3.088975,-5.61524 -7.971527,-3.37071 2.213209,-1.3466 4.376322,-2.77922 6.639627,-4.0398 1.054821,-0.58751 -2.053676,1.27823 -3.008419,2.01734 -4.513026,3.4937 -8.065815,8.1462 -10.906387,13.04751 -2.397259,4.8191 -5.803365,11.70791 -2.677451,16.84121 6.586069,3.77055 20.04407,-5.78695 6.400561,2.3908 7.618017,-4.73891 13.909345,-11.15082 19.428176,-18.20154 0,0 10.404186,-4.44507 10.404186,-4.44507 z" />
    <path
       style="fill:#000000;fill-opacity:1;fill-rule:nonzero;stroke:#000000;stroke-width:4.69999981;stroke-linecap:round;stroke-linejoin:round;stroke-miterlimit:4;stroke-opacity:1;stroke-dasharray:none;stroke-dashoffset:0"
       id="path2708"
       d="m 417.8269,420.1938 c -3.58523,2.59726 -17.14251,14.04323 -22.76145,8.95357 -2.22842,-4.22037 2.58747,-7.80223 5.5206,-10.1096 2.05956,2.86451 12.52551,-11.0956 18.07897,-7.49635 1.28027,0.82975 1.66677,2.2829 2.22782,3.56795 1.088,8.2655 -3.52913,15.59555 -8.25828,21.93825 -8.79157,9.58678 -21.70479,19.01299 -34.27753,22.03506 -8.54989,0.44438 -11.83244,-2.68279 -12.11701,-11.03077 0.98793,-8.7893 6.40189,-15.63388 12.92229,-21.19242 9.20138,-6.29095 18.56603,-12.63713 29.86181,-10.2613 5.45155,2.31359 6.97901,7.31125 6.15058,12.78833 -1.87075,6.52678 -6.65546,10.65608 -12.18174,14.13902 -6.14239,3.63951 -17.53088,11.89145 -22.45917,2.1955 -1.67718,-5.92894 1.75149,-10.68319 5.80487,-14.62693 6.37559,-4.35846 15.96358,-12.76662 23.89027,-7.35587 3.1383,4.89279 0.10927,9.93631 -2.92914,14.02736 -5.96317,5.99058 -14.59793,13.17244 -22.99753,14.03008 -4.17128,-1.88039 -3.48969,-7.22411 -2.57874,-10.88122 1.78635,-4.71242 3.24905,-10.29352 7.22333,-13.68776 3.51968,-1.19629 6.8931,-2.97226 10.55903,-3.58888 1.73652,-0.29209 -2.99572,9.23354 -3.20889,9.62315 -2.60674,4.05804 -3.98484,3.85406 -11.49874,4.99218 -0.90977,0.1378 2.6504,-5.8173 2.79223,-6.05883 5.40429,-8.68913 9.8081,-9.92365 19.49779,-14.72645 3.50088,2.04322 3.0188,5.48899 2.38856,8.95268 -0.69677,5.6896 -13.80802,11.1744 -12.1404,3.20675 3.15987,-5.46147 13.39057,-11.40716 14.96374,-3.32888 0.0273,8.64135 -5.85139,9.30692 -13.59603,13.53146 -2.18302,-1.21834 -1.18246,-0.50784 -3.01332,-2.11499 0,0 9.61489,-6.01698 9.61489,-6.01698 l 0,0 c 1.50455,1.15896 0.69615,0.79561 2.37849,1.18855 -14.71299,9.20947 -5.62751,5.37782 -5.43207,-1.29908 -0.048,-1.05749 -0.15667,-2.00968 -1.41436,-2.26478 -0.27013,-0.0548 -1.05484,0.19828 -0.82567,0.0451 2.80356,-1.87358 5.7583,-3.51043 8.63745,-5.26564 -0.33709,0.23824 -0.67418,0.47647 -1.01127,0.71471 -0.47283,0.80453 -0.64171,0.76039 -0.47346,1.70147 0.0363,0.20328 0.41039,0.45109 0.24182,0.57038 -19.31484,13.66781 -9.08284,7.47374 -8.12097,4.2872 0.46556,-2.37634 1.7965,-6.08379 -1.31514,-7.13761 16.71921,-10.39816 3.61215,-3.39584 -0.0431,3.37757 -0.25409,0.40992 -2.93652,5.53968 -2.96522,5.55889 -21.87982,14.65308 -11.39458,7.38872 -9.02503,4.69027 6.3922,-10.17335 -1.65556,-6.74159 13.58574,-14.77019 -4.56495,2.24239 -5.72976,8.69776 -7.604,12.96822 -0.75592,2.44511 -2.20188,8.11139 1.44635,8.90731 3.81706,-0.9704 9.48952,-4.97983 -3.81859,3.04907 -0.88149,0.53181 1.81498,-0.98016 2.66479,-1.56125 2.30386,-1.57537 2.78874,-2.26837 4.73019,-4.2551 2.74239,-3.31048 6.25132,-7.96109 3.76129,-12.32947 -1.98391,-1.12344 -3.51863,-1.3242 -5.82496,-0.93298 -0.89911,0.15252 -3.3545,1.24409 -2.65542,0.65849 1.36139,-1.14041 11.67809,-7.09496 4.54743,-2.77595 -3.91678,3.41407 -7.68495,7.72797 -6.39508,13.29825 3.85029,7.99471 16.56352,-1.98663 2.11099,7.46243 5.50298,-3.19571 10.3896,-7.00883 12.54096,-13.25483 1.05481,-4.87997 -0.15377,-9.4362 -5.24848,-11.27002 -3.13461,-0.50417 -6.10225,-0.6343 -9.22961,0.16659 -1.17789,0.30165 -4.29196,2.07439 -3.44343,1.20353 1.67149,-1.71547 4.10257,-2.48236 6.04918,-3.87785 1.1336,-0.81266 -2.40299,1.41686 -3.60448,2.12529 -6.55327,5.16036 -11.99688,11.76313 -13.2909,20.24905 -0.0144,7.86738 3.14969,10.11825 11.00051,9.33346 7.91648,-2.25552 1.70156,-0.89915 -1.59062,2.477 -1.17409,1.20403 2.96848,-1.58894 4.3832,-2.49819 3.78006,-2.42946 5.24002,-3.75991 8.4814,-6.88107 1.31627,-1.26745 2.56699,-2.60125 3.85049,-3.90187 4.65188,-5.95634 9.23034,-12.89358 8.63762,-20.80117 -0.35186,-0.83828 -0.64335,-2.16315 -1.65028,-2.60071 -3.47577,-1.51036 -14.24004,6.57791 1.70148,-3.18336 -2.29728,1.62676 -7.49084,4.86097 -6.38139,8.24213 1.46719,0.99071 2.98029,0.60041 4.62795,0.0852 0.86298,-0.26985 3.2681,-1.49819 2.53199,-0.97311 -18.1242,12.92826 -5.02353,2.58455 -4.52458,2.18366 0,0 10.50001,-4.21373 10.50001,-4.21373 z" />
    <path
       style="fill:#000000;fill-opacity:1;fill-rule:nonzero;stroke:#000000;stroke-width:4.69999981;stroke-linecap:round;stroke-linejoin:round;stroke-miterlimit:4;stroke-opacity:1;stroke-dasharray:none;stroke-dashoffset:0"
       id="path2710"
       d="m 700.9779,194.70561 c -5.15468,6.55895 -11.3632,12.06065 -18.16071,16.83773 -7.73784,6.08239 -15.46426,12.17049 -23.45952,17.9131 -11.04138,8.45507 -23.01695,15.35617 -35.07656,22.22246 2.69883,-1.56178 -11.4029,6.48982 -8.57925,4.8204 1.75477,-1.03746 3.39245,-2.35879 5.32509,-3.00719 1.50495,-0.50491 -2.67689,1.70693 -4.01143,2.56646 -4.75727,3.06398 -3.44126,2.21188 -8.10308,5.36691 -7.08082,5.53527 -14.50521,10.55486 -21.91482,15.63021 -6.23694,4.27838 -12.50492,8.51393 -18.74482,12.79829 -5.5974,4.13242 -11.11552,8.37702 -16.84075,12.33426 -6.16503,3.93396 -11.72654,8.67132 -17.12873,13.57402 -5.97917,5.94504 -12.50901,11.2767 -18.87171,16.79654 -7.53807,5.78829 -13.9629,12.82181 -20.93806,19.23713 -6.73795,5.86142 -13.40328,11.80048 -19.90995,17.91787 -5.50946,5.37933 -11.64736,10.0501 -17.44866,15.10428 -5.11993,4.02602 -9.69735,8.64005 -15.00725,12.42728 -4.36151,3.15781 -8.18045,6.97397 -11.97826,10.76994 -3.70957,4.14469 -8.14784,7.47866 -12.47184,10.93582 -3.57788,4.47468 -35.52426,21.95652 -14.06159,9.72092 -29.38232,16.69445 -6.50973,3.6551 -4.3339,2.54544 3.00764,-1.53389 -3.16208,2.37456 -4.54212,3.62924 -10.22403,9.95122 -11.44764,6.25277 -14.01558,-0.48318 -2.1903,-4.97972 -3.84393,-10.16384 -5.39532,-15.3783 -3.00135,-8.09575 -5.98047,-16.19704 -8.93841,-24.30966 -3.79187,-9.13692 -7.07741,-18.45208 -10.05461,-27.88218 -2.89406,-9.10661 -5.89451,-18.17887 -8.80462,-27.28028 -2.36535,-7.50985 -4.37451,-15.11572 -6.59947,-22.66755 -1.65402,-7.31692 -2.86036,-14.73409 -4.16883,-22.12333 -1.48157,-6.58489 -3.03264,-13.12047 -5.57758,-19.38385 -1.53245,-4.87063 -4.18588,-9.13362 -6.7818,-13.46679 -2.3813,-3.59114 -5.41051,-6.62818 -8.21552,-9.86763 -3.39909,-3.29118 -6.98697,-6.40736 -10.20089,-9.88338 -3.60951,-3.27022 -6.72228,-6.83301 -9.31442,-10.94434 -3.07753,-3.62474 -5.60391,-7.66999 -8.49369,-11.42619 -2.84315,-3.59788 -6.02638,-6.89276 -9.00994,-10.36763 -2.88407,-2.8531 -6.45291,-4.85957 -9.80284,-7.10918 -3.08194,-2.21567 -6.64101,-3.6673 -9.78968,-5.75971 -4.65755,-2.11523 -8.8399,-4.94986 -13.05247,-7.83567 -0.93269,-0.6298 -1.86538,-1.25959 -2.79806,-1.88939 0,0 9.48003,-6.06062 9.48003,-6.06062 l 0,0 c 0.93113,0.63167 1.86226,1.26334 2.79339,1.895 4.23767,2.85783 8.50934,5.53933 13.10984,7.7666 3.21134,2.00546 6.70597,3.56128 9.79315,5.77498 3.45198,2.26289 7.04892,4.41685 9.95646,7.37808 3.01279,3.47947 6.17133,6.82621 9.04746,10.42456 2.87714,3.80767 5.45466,7.84996 8.5297,11.51842 2.57104,4.03538 5.67078,7.52435 9.20001,10.76874 3.25242,3.4603 6.85928,6.57378 10.24446,9.9019 2.8654,3.27347 5.89503,6.39836 8.30537,10.04588 2.63127,4.38216 5.28797,8.70779 6.83152,13.63681 2.59666,6.33359 4.13516,12.95143 5.66528,19.61002 1.27856,7.35408 2.52898,14.72112 4.11307,22.01114 2.20283,7.55351 4.22519,15.1495 6.54574,22.66775 2.88419,9.11263 5.90115,18.18286 8.78491,27.29572 2.94481,9.42194 6.25825,18.71036 10.04378,27.82988 2.97123,8.12862 5.96449,16.24377 9.02405,24.33886 1.5544,5.17847 3.2173,10.32273 5.43682,15.25169 2.2855,5.77492 -0.75418,-2.12734 0.99417,3.08648 1.78711,5.3294 8.02374,-2.35968 -7.84603,7.69411 -0.17663,0.1119 0.2878,-0.30339 0.4317,-0.45509 4.99562,-4.84271 27.59941,-17.46367 8.87261,-6.42858 30.79233,-17.97415 5.74774,-3.34848 4.5694,-2.67944 -0.87324,0.4958 1.7379,-1.00914 2.57356,-1.56595 2.43116,-1.61992 4.77935,-3.41758 6.97773,-5.33828 4.29077,-3.47026 8.83209,-6.66143 12.50885,-10.81853 3.81502,-3.82314 7.61614,-7.69465 11.92713,-10.96905 5.43343,-3.64425 9.93481,-8.32871 15.09161,-12.32295 5.7797,-5.08614 11.93203,-9.74004 17.48418,-15.07457 6.50149,-6.13925 13.15256,-12.11205 19.9296,-17.94627 7.0341,-6.34612 13.35389,-13.49077 20.90818,-19.25291 6.34227,-5.52701 12.91516,-10.79455 18.85848,-16.76164 5.37558,-4.93985 10.88109,-9.76706 17.04699,-13.71478 5.78731,-3.86386 11.27272,-8.16478 16.84411,-12.32806 6.24215,-4.30951 12.52909,-8.53818 18.78156,-12.81285 7.39536,-5.11568 14.93699,-9.99032 21.94403,-15.64829 11.09658,-7.5879 22.65254,-14.42187 34.46495,-20.84021 -1.73641,1.03885 -3.48788,2.05293 -5.20923,3.11654 -1.39871,0.86425 2.85017,-1.64177 4.24116,-2.51838 5.81299,-3.66338 11.32891,-7.80039 16.97397,-11.70965 8.01544,-5.69311 15.76518,-11.73823 23.41586,-17.91129 6.78846,-4.66658 13.08595,-9.95333 18.17785,-16.49357 0,0 10.40419,-4.44507 10.40419,-4.44507 z" />
    <path
       style="fill:#000000;fill-opacity:1;fill-rule:nonzero;stroke:#000000;stroke-width:4.69999981;stroke-linecap:round;stroke-linejoin:round;stroke-miterlimit:4;stroke-opacity:1;stroke-dasharray:none;stroke-dashoffset:0"
       id="path2712"
       d="m 384.51206,438.9472 c -10.35188,0.73811 -20.06318,4.37485 -29.47407,8.5008 -11.72961,5.40439 -23.37469,10.99663 -35.14617,16.30911 -12.36158,6.33418 -24.66805,12.80351 -36.77673,19.61124 -1.80053,1.02207 -3.66093,1.94519 -5.40158,3.0662 -1.44507,0.93064 5.58293,-3.83937 4.51316,-2.49404 -1.1817,1.4861 -3.28312,1.91127 -4.87393,2.94774 -4.54235,2.95948 -8.96519,6.13812 -13.48716,9.13578 -8.57051,5.37574 -16.96967,11.00003 -25.29917,16.73823 -7.40219,4.38111 -14.48469,9.18634 -21.12832,14.6469 -6.4414,5.08427 -13.37817,9.45936 -19.81935,14.55191 -6.3137,5.51834 -13.05395,10.48547 -20.03205,15.12188 -6.5312,4.55276 -13.574,8.29875 -20.46974,12.25238 -1.94115,1.11295 7.77573,-4.43189 5.8199,-3.34497 -5.60444,3.11457 -11.16407,6.30922 -16.76203,9.43541 2.08026,-1.16404 8.31746,-4.66252 6.24079,-3.4921 -1.01043,0.56948 -12.28706,7.05732 -16.75039,9.28279 -3.62892,1.80944 -7.35279,3.40083 -10.97726,5.22385 2.26935,-1.68065 -9.36273,4.93158 -7.13207,3.50339 2.02796,-1.29841 4.15257,-2.44166 6.27416,-3.58067 1.21878,-0.65432 -2.36533,1.43559 -3.56417,2.12576 -5.54383,3.1916 -11.1173,6.33146 -16.66704,9.51278 2.24726,-1.44163 -8.849069,4.80685 -6.663552,3.55674 18.189502,-10.40437 -7.924012,4.55017 -12.963855,7.46714 -1.133914,0.59668 -2.262069,1.20444 -3.401743,1.79005 -3.792939,1.94896 -7.531858,3.95858 -11.274496,6.004 -1.426738,0.77973 -5.80037,2.91972 -4.285041,2.33035 1.837001,-0.71447 3.504351,-1.80547 5.256526,-2.7082 -7.698383,4.58179 -14.446281,10.71245 -22.108591,15.32807 -4.269253,2.57172 -8.640278,4.97056 -12.960417,7.45584 -2.764226,1.17401 -4.957289,0.8421 -7.666026,-0.027 0,0 9.340883,-6.40472 9.340883,-6.40472 l 0,0 c 2.558133,0.59983 4.593078,0.60092 7.059829,-0.61879 -2.058037,1.22618 -3.979474,2.71801 -6.17411,3.67853 -1.493215,0.65352 2.713498,-1.80738 4.045457,-2.74689 6.00104,-4.23288 11.95538,-8.53019 18.068477,-12.60447 10.767441,-6.50643 21.56259,-12.91197 32.822101,-18.53726 1.142401,-0.6514 2.279442,-1.3123 3.427203,-1.95422 1.106149,-0.61864 4.413945,-2.49112 3.334284,-1.82732 -18.075241,11.11305 7.304081,-4.86083 12.864361,-7.23673 0.0982,-0.0557 14.09518,-8.0311 -2.51451,1.57714 -1.19409,0.69075 2.35225,-1.44226 3.54486,-2.13555 6.61574,-3.84592 13.09618,-7.84747 20.09264,-10.94857 3.63604,-1.79045 7.34889,-3.42174 10.9667,-5.24778 1.20459,-0.60801 4.67422,-2.6774 3.58309,-1.88359 -1.5485,1.12656 -26.71173,15.80066 6.91191,-3.92791 1.17101,-0.64669 4.62398,-2.68528 3.51305,-1.94008 -1.91716,1.28601 -7.95179,4.69281 -5.93694,3.566 4.48522,-2.50838 8.88433,-5.16802 13.34968,-7.71161 1.95744,-1.11502 -3.8632,2.31952 -5.82565,3.4257 -1.20288,0.67802 2.38236,-1.39803 3.54631,-2.14091 1.21833,-0.77759 2.39894,-1.61277 3.59841,-2.41915 7.00023,-4.57689 13.78752,-9.47049 20.05627,-15.02228 6.40164,-5.15149 13.30383,-9.5587 19.82999,-14.53292 6.61177,-5.5366 13.6393,-10.47555 21.13513,-14.75819 8.34347,-5.72763 16.69474,-11.43493 25.30506,-16.76123 12.51902,-8.29053 24.84441,-16.83605 38.26867,-23.68639 12.13348,-6.75731 24.40569,-13.28571 36.81467,-19.52143 11.77567,-5.35785 23.44633,-10.94505 35.20791,-16.3345 9.54126,-4.08519 19.36612,-7.51017 29.79301,-8.36843 0,0 -9.04833,6.77222 -9.04833,6.77222 z" />
    <path
       style="fill:#000000;fill-opacity:1;fill-rule:nonzero;stroke:#000000;stroke-width:4.69999981;stroke-linecap:round;stroke-linejoin:round;stroke-miterlimit:4;stroke-opacity:1;stroke-dasharray:none;stroke-dashoffset:0"
       id="path2714"
       d="m 239.19589,219.37388 c -7.58523,2.12582 -14.82148,5.4692 -21.63809,9.38875 1.96425,-1.11751 3.83736,-2.41311 5.89274,-3.35253 1.32765,-0.6068 -2.48785,1.52958 -3.69619,2.34859 -5.96717,4.0445 -11.68588,8.40954 -17.71686,12.37171 -10.38936,6.90956 -20.47068,14.26693 -30.91641,21.09457 -12.62811,8.24321 -25.03456,16.82 -37.3317,25.54787 -11.38642,7.67417 -22.4572,15.77903 -33.2097,24.31847 -7.115771,5.66895 -14.006353,11.60171 -20.634301,17.83326 -3.891217,3.24473 -7.387859,6.78283 -10.462969,10.79022 -2.201553,3.03524 -3.763981,6.44928 -5.683465,9.66426 -2.134607,3.32344 -4.516402,6.47963 -6.837135,9.67519 -2.767537,3.04234 -5.480881,6.12989 -8.249551,9.17483 -2.839516,3.14803 -5.073626,6.71444 -6.807767,10.57001 -2.023185,4.6577 -4.426369,8.70289 -8.473322,11.82619 0,0 -10.519205,4.16656 -10.519205,4.16656 l 0,0 c 4.224746,-2.90265 6.68606,-6.59541 8.729397,-11.27739 1.627521,-3.97125 3.79956,-7.64498 6.633032,-10.8824 2.647901,-3.12094 5.437534,-6.12746 8.29771,-9.06317 2.220479,-3.25517 4.716927,-6.3015 6.873727,-9.60978 2.002428,-3.2174 3.550403,-6.6269 5.633242,-9.78941 3.195105,-3.96296 6.331366,-7.8705 10.468186,-10.96821 6.586421,-6.34347 13.602275,-12.22039 20.709219,-17.97041 10.765352,-8.58588 21.846002,-16.7454 33.284482,-24.41228 12.26528,-8.75014 24.67138,-17.30559 37.26755,-25.57265 10.46689,-6.7646 20.50753,-14.15139 30.86794,-21.07272 11.54855,-7.50638 22.14033,-16.38402 34.60592,-22.46096 6.93454,-3.83187 14.22099,-7.08999 21.84915,-9.28062 0,0 -8.93563,6.94205 -8.93563,6.94205 z" />
    <path
       style="fill:#000000;fill-opacity:1;fill-rule:nonzero;stroke:#000000;stroke-width:4.69999981;stroke-linecap:round;stroke-linejoin:round;stroke-miterlimit:4;stroke-opacity:1;stroke-dasharray:none;stroke-dashoffset:0"
       id="path2716"
       d="m 37.927755,382.14885 c 4.779111,3.52495 8.54942,7.83672 11.099251,13.17681 1.670807,4.2784 1.731406,8.91661 1.819077,13.44628 0.01683,4.9846 -0.04389,9.96914 -0.0714,14.95366 -0.02781,5.65449 -0.03191,11.30906 -0.03503,16.96361 -0.799869,6.42862 -1.777438,12.82362 -2.327646,19.28258 -0.391654,5.26213 -0.495138,10.54 -0.522759,15.81483 -0.02351,3.7744 0.0048,7.54879 0.01035,11.32318 0.0016,3.63312 0.0071,7.26623 0.0057,10.89935 -0.420093,4.27163 0.875762,8.31867 1.661965,12.46106 0.885709,5.26859 1.018499,10.62036 1.129967,15.94954 -0.342269,5.76942 0.892462,11.39323 1.739198,17.06041 0.815398,5.70579 1.001012,11.47091 1.118471,17.22506 0.06661,5.39993 0.08151,10.80062 0.06009,16.20091 -0.02077,6.07199 -0.01203,12.14402 -0.02757,18.21602 -0.0073,7.0958 -0.01231,14.19158 -0.0061,21.28738 0.0551,2.44528 -0.04698,4.89619 0.07002,7.3403 0,0 -10.159984,5.17683 -10.159984,5.17683 l 0,0 c 0.112427,-2.46818 0.01868,-4.94235 0.06987,-7.41164 0.0063,-7.09445 0.0012,-14.18887 -0.0027,-21.28331 -0.01166,-6.06763 0.0044,-12.13527 -2.07e-4,-18.20291 -0.0091,-5.39455 0.03639,-10.78935 -0.043,-16.18362 -0.104863,-5.71045 -0.26621,-11.43259 -1.050396,-17.0982 -0.838471,-5.71163 -2.158803,-11.37206 -1.809321,-17.18528 -0.101904,-5.26823 -0.216359,-10.55906 -1.066279,-15.77105 -0.786815,-4.20383 -2.181096,-8.30296 -1.781057,-12.63648 -0.0033,-3.63151 -4.93e-4,-7.26302 -0.01123,-10.89452 -0.0084,-3.78101 -0.0062,-7.56208 0.0042,-11.34308 0.05708,-5.30883 0.149743,-10.61963 0.535794,-15.91688 0.529212,-6.42972 1.411096,-12.80969 2.352916,-19.19049 0.0023,-5.65488 0.0054,-11.30977 0.02622,-16.96461 0.0205,-4.97296 0.06451,-9.9459 0.05609,-14.91891 -0.0589,-4.37788 -0.04856,-8.86658 -1.58511,-13.02848 -2.419539,-5.22459 -6.148374,-9.36912 -10.840076,-12.73044 0,0 9.580732,-6.01791 9.580732,-6.01791 z" />
    <path
       style="fill:#000000;fill-opacity:1;fill-rule:nonzero;stroke:#000000;stroke-width:4.69999981;stroke-linecap:round;stroke-linejoin:round;stroke-miterlimit:4;stroke-opacity:1;stroke-dasharray:none;stroke-dashoffset:0"
       id="path2718"
       d="m 273.60708,192.18874 c -0.23051,7.99861 0.31564,16.02139 -0.34978,23.99948 -1.14676,6.70073 -1.50139,13.50555 -2.51269,20.21741 -1.15825,7.35586 -2.49891,14.67021 -3.83179,21.99652 -1.21858,7.18347 -1.60687,14.46471 -1.82047,21.73594 -0.007,6.00315 -1.40323,11.88594 -2.13328,17.82625 -0.57826,6.42043 -0.59599,12.82334 -1.57222,19.20324 -1.1106,6.53246 -1.51255,13.12533 -2.68352,19.64729 -1.00568,6.68492 -2.11299,13.33244 -3.34667,19.98047 -1.16181,6.78689 -1.49426,13.67157 -1.69065,20.5422 -0.13558,6.58727 -0.10628,13.17635 -0.11085,19.76459 0.009,7.37889 0.0114,14.75777 0.0227,22.13666 -0.31177,5.99465 0.11275,11.83015 1.27029,17.70189 0.8141,3.96485 1.31877,7.97214 1.52119,12.01183 0.13729,3.26886 0.13958,6.54172 0.13301,9.81292 -0.002,2.90032 0.26093,5.75332 -0.72485,8.52082 -1.1112,2.38191 -1.60336,1.61628 0.96982,1.74493 2.94155,0.17987 5.87948,-0.24151 8.75227,0.47142 3.62133,1.14535 7.34659,1.74785 11.11494,2.11645 3.63322,0.3369 7.05977,1.77389 10.66218,2.44957 3.42208,1.33674 6.4948,3.45265 8.79239,6.31499 2.84001,3.26497 5.45461,6.78516 7.14884,10.78116 1.48467,4.50469 1.69232,9.28584 1.83125,13.98896 0.0664,4.77565 0.0387,9.55221 0.0178,14.32814 0.28477,4.03876 -0.16605,7.86554 -1.23868,11.74744 -3.01046,8.08473 -9.66175,10.3821 -17.05067,14.67412 -2.82892,1.19911 -5.93614,1.26097 -8.96163,1.3012 -1.65811,-0.2086 -3.13424,0.31025 -4.63212,0.94483 -0.36432,0.15435 -1.41741,0.70245 -1.07274,0.50813 9.35262,-5.27281 11.13716,-7.4334 8.27219,-4.21639 -1.10811,2.41224 0.39723,5.40332 0.90145,7.89792 0.43524,4.77659 1.71253,9.40114 2.53863,14.1168 1.06913,6.31711 0.8222,12.74015 1.47065,19.09328 1.20601,8.53719 1.87434,17.12341 2.23107,25.73349 0.30337,9.8234 1.65657,19.57657 2.38102,29.37819 0.78436,8.30135 0.26728,16.68583 1.13407,24.97082 0.98222,5.8679 1.47423,11.79572 2.99828,17.55509 0.96818,4.20754 2.16327,8.32582 3.48087,12.43521 1.1015,3.71598 2.80998,7.17563 3.75414,10.957 0.6943,3.65133 2.2238,7.05729 3.70264,10.44149 1.84495,5.08518 3.9598,10.07419 6.31118,14.9459 2.49096,5.58995 4.86946,11.23657 6.43,17.16356 1.69251,4.9872 3.09648,10.05273 4.68655,15.07136 1.30657,5.49473 3.00365,10.88444 4.14113,16.42064 0.81001,4.97723 2.41978,9.7546 3.36719,14.71312 1.38898,10.75774 3.24907,7.4051 -10.06164,12.81032 0,0 9.71202,-5.87393 9.71202,-5.87393 l 0,0 c -12.40838,9.27629 -7.9922,8.41968 -9.63437,-1.61622 -0.89556,-4.96968 -2.52719,-9.73605 -3.32722,-14.71337 -1.10134,-5.50582 -2.82149,-10.84458 -4.09497,-16.3081 -1.60047,-5.03771 -3.00324,-10.12302 -4.70026,-15.13227 -1.50188,-5.86969 -3.86528,-11.44288 -6.31737,-16.97157 -2.37349,-4.87394 -4.5131,-9.86837 -6.37548,-14.95893 -1.51282,-3.43556 -3.1115,-6.89586 -3.81003,-10.60764 -0.89676,-3.77419 -2.61549,-7.19849 -3.70748,-10.89385 -1.3038,-4.13719 -2.57387,-8.25144 -3.48271,-12.49846 -1.53091,-5.82218 -2.07126,-11.78989 -3.03882,-17.72469 -0.93358,-8.30218 -0.28309,-16.71765 -1.08379,-25.04249 -0.69395,-9.81406 -2.0799,-19.5701 -2.41077,-29.4013 -0.35891,-8.5795 -0.98353,-17.14278 -2.24168,-25.64357 -0.72981,-6.31833 -0.44432,-12.71281 -1.47985,-19.00767 -0.80938,-4.70703 -2.15078,-9.30207 -2.57251,-14.06695 -0.5568,-2.83678 -1.98566,-5.8739 -1.34131,-8.72241 3.06532,-5.16493 10.93634,-8.32196 17.03757,-8.45121 2.9579,-0.10752 5.9584,-0.29019 8.62382,-1.72099 -15.63758,9.28911 -4.33977,3.51354 -2.0183,-2.69776 1.13275,-3.80466 1.7368,-7.48418 1.40201,-11.48022 0.0169,-4.76534 0.0712,-9.53105 -0.002,-14.2962 -0.11639,-4.57101 -0.24992,-9.22166 -1.63892,-13.61703 -1.62647,-3.91205 -4.22788,-7.30965 -6.99402,-10.49585 -2.18031,-2.62516 -5.1192,-4.60169 -8.37555,-5.65457 -3.548,-0.75035 -6.96829,-2.13331 -10.60132,-2.36521 -3.78985,-0.43005 -7.51016,-1.15752 -11.18324,-2.19824 -2.88767,-0.43615 -5.80936,-0.0717 -8.71562,-0.36855 -2.32085,-0.36636 -3.78474,-1.43886 -2.02036,-3.5717 1.24657,-2.60501 0.94202,-5.29069 0.93384,-8.12888 9e-4,-3.25714 0.0231,-6.51536 -0.0926,-9.77109 -0.18292,-3.99169 -0.61806,-7.96036 -1.41631,-11.88029 -1.16426,-5.94773 -1.69234,-11.8454 -1.32286,-17.92046 0.004,-7.37953 -0.005,-14.75903 -0.0174,-22.13855 -0.019,-6.59426 -0.0522,-13.18969 0.0745,-19.78309 0.1926,-6.92244 0.52754,-13.85493 1.62326,-20.70323 1.22706,-6.6511 2.3913,-13.28275 3.34684,-19.97738 1.20685,-6.51335 1.61297,-13.08498 2.68954,-19.61937 1.02577,-6.36572 1.09687,-12.73691 1.57364,-19.15858 0.69653,-5.92214 2.11678,-11.77272 2.19568,-17.74352 0.21306,-7.32472 0.6085,-14.65586 1.77264,-21.90085 1.32468,-7.31795 2.6822,-14.61696 3.82463,-21.96487 1.10952,-6.67781 1.28354,-13.49218 2.55871,-20.15834 0.79915,-7.92449 0.21243,-15.92099 0.33375,-23.87562 0,0 10.0713,-5.13158 10.0713,-5.13158 z" />
    <path
       style="fill:#000000;fill-opacity:1;fill-rule:nonzero;stroke:#000000;stroke-width:4.69999981;stroke-linecap:round;stroke-linejoin:round;stroke-miterlimit:4;stroke-opacity:1;stroke-dasharray:none;stroke-dashoffset:0"
       id="path2720"
       d="m 69.384232,622.54693 c 6.557791,5.67269 13.1055,11.35121 19.490561,17.21891 6.311284,6.04449 13.858127,10.63491 21.054007,15.54413 7.65777,5.03268 15.78388,9.27748 23.44115,14.31576 7.2191,4.40271 14.35207,8.91919 21.09552,14.02609 6.56376,5.52042 13.05949,11.11433 19.6277,16.63338 6.95473,5.77687 13.92735,11.55416 21.03403,17.14587 7.17933,6.00916 15.09062,10.94734 23.06334,15.80094 7.6365,3.65427 15.12945,7.61284 22.78474,11.21595 6.88305,3.1045 13.56438,6.56978 20.09742,10.35437 6.4741,2.70718 12.04522,7.00956 17.74498,11.01461 5.47775,4.00655 10.75228,8.19123 15.62023,12.92261 4.716,4.09418 9.85309,7.62534 14.80885,11.41665 4.55757,3.10847 8.73185,6.61339 12.68139,10.46339 3.03854,3.29888 5.64855,6.92497 8.36021,10.48924 0.31884,0.41301 0.5986,0.85938 0.95651,1.23902 0.19477,0.2066 0.41732,0.59368 0.68672,0.50398 0.22033,-0.0734 0.0426,-0.75419 -0.17539,-0.67423 -10.90051,3.99784 -8.55765,7.90034 -10.77595,2.64956 0,0 9.8764,-5.54311 9.8764,-5.54311 l 0,0 c 3.08092,7.20359 -7.31337,14.11376 -10.30873,7.61014 -2.65403,-3.53442 -5.2303,-7.11305 -8.24216,-10.35887 -3.93012,-3.80528 -8.08768,-7.26213 -12.59726,-10.36339 -4.96044,-3.84677 -10.1747,-7.34323 -14.85896,-11.53524 -4.84224,-4.66934 -10.07476,-8.82848 -15.52122,-12.77534 -5.68496,-3.97904 -11.24987,-8.20805 -17.68475,-10.93509 -6.52017,-3.74411 -13.17313,-7.19811 -20.02689,-10.29362 -7.6565,-3.67068 -15.21702,-7.55158 -22.82431,-11.32845 -8.00719,-4.8754 -15.9058,-9.90752 -23.13324,-15.91574 -7.11268,-5.60422 -14.09915,-11.38324 -21.06181,-17.17023 -6.55677,-5.50497 -13.03746,-11.09062 -19.60457,-16.57921 -6.73913,-5.07222 -13.87879,-9.52904 -21.04404,-13.97102 -7.6749,-5.01811 -15.80939,-9.26439 -23.4518,-14.33217 -7.245476,-4.92824 -14.817109,-9.56853 -21.140412,-15.68183 -6.403857,-5.88599 -12.96716,-11.58601 -19.608809,-17.20178 0,0 9.636543,-5.90528 9.636543,-5.90528 z" />
    <path
       style="fill:#000000;fill-opacity:1;fill-rule:nonzero;stroke:#000000;stroke-width:4.69999981;stroke-linecap:round;stroke-linejoin:round;stroke-miterlimit:4;stroke-opacity:1;stroke-dasharray:none;stroke-dashoffset:0"
       id="path2722"
       d="m 335.48794,805.77717 c 9.45073,-2.07953 18.95426,-3.87896 28.36082,-6.16211 13.44655,-2.98052 26.86111,-6.13883 40.23417,-9.44389 17.61635,-4.23105 34.50086,-10.87138 51.62955,-16.67673 18.51317,-6.87278 37.69008,-11.4167 56.946,-15.60453 19.11781,-3.40879 38.265,-6.64117 57.41873,-9.84204 19.20225,-3.44832 38.32371,-7.40471 57.3345,-11.78974 16.53497,-3.70785 33.1947,-6.82995 49.74446,-10.46223 12.52624,-3.06745 25.03941,-6.1872 37.51409,-9.45824 7.16892,-2.37859 14.77524,-2.82788 22.06395,-4.59091 2.49945,-0.74781 5.05974,-1.45167 7.38485,-2.66556 3.45785,-1.23431 6.79626,-2.72782 -8.06859,4.60223 -0.31818,0.1569 0.45585,-0.54401 0.67159,-0.82563 0.52573,-0.68625 1.01633,-1.41866 1.50625,-2.12969 2.63024,-4.28866 5.24887,-8.58615 7.90519,-12.86271 3.75623,-6.61381 7.42425,-13.20325 11.95184,-19.33202 4.62472,-6.49238 9.00693,-13.14195 13.87182,-19.45979 5.1444,-5.94062 9.89043,-12.2037 14.89714,-18.25792 4.57278,-5.96669 10.27117,-10.8094 15.68915,-15.9469 4.50786,-4.67307 9.17709,-9.1689 13.61698,-13.90895 4.992,-4.91662 9.18797,-10.52505 13.64982,-15.90523 5.27257,-5.68797 10.23228,-11.52643 14.68122,-17.87936 5.39571,-6.7896 9.99027,-14.05575 14.37694,-21.51804 4.78295,-8.01444 10.14945,-15.64483 15.56367,-23.23872 4.65164,-6.00757 9.6169,-11.77293 14.45416,-17.63585 3.30972,-4.09758 5.57068,-8.89621 8.18595,-13.44193 2.40228,-4.53742 4.13983,-9.35613 6.23921,-14.02993 2.20392,-3.38771 3.81683,-7.13039 6.25997,-10.35029 1.37162,-1.91184 4.39292,-3.36148 3.38029,-5.97469 -1.62088,-3.13811 -3.74507,-5.95801 -5.61908,-8.93869 -2.7385,-3.45478 -5.87578,-6.55238 -8.64554,-9.98082 -2.19755,-3.64942 -4.76411,-7.07258 -6.82491,-10.80577 -2.00252,-4.9147 -4.08703,-9.79105 -6.13814,-14.68644 -2.52558,-6.73074 -5.68732,-13.17659 -7.91136,-20.0179 -2.14952,-6.46581 -4.54763,-12.83192 -7.54132,-18.95577 -2.67489,-4.84583 -5.48913,-9.58864 -8.42582,-14.2752 -2.79643,-3.85569 -4.98856,-8.0866 -7.67515,-12.01314 -2.65068,-3.59145 -5.40963,-7.0842 -8.09514,-10.65144 -2.72446,-3.72601 -5.82671,-7.14371 -8.99793,-10.48854 -3.67523,-3.54648 -7.38722,-7.06349 -11.34727,-10.30299 -4.10094,-3.02392 -7.62213,-6.70258 -10.88566,-10.59338 -3.079,-3.67136 -5.94402,-7.50184 -8.78919,-11.35704 -2.91281,-4.07102 -6.31564,-7.7508 -9.74818,-11.38155 -3.49778,-4.62153 -7.62105,-8.69111 -10.99167,-13.41067 -3.40593,-4.13818 -6.97558,-8.12302 -10.33859,-12.2977 -3.2047,-3.54555 -6.78919,-6.71466 -10.04851,-10.20175 -3.46868,-3.03828 -6.97449,-6.02647 -10.38942,-9.12653 -3.6876,-2.65608 -7.39854,-5.26481 -10.87606,-8.19494 -3.1696,-3.40655 -6.47766,-6.76662 -10.18849,-9.58487 -3.50734,-2.93365 -7.00412,-5.82251 -10.09982,-9.1994 -3.68125,-3.01139 -6.4214,-6.89804 -9.42757,-10.51866 -2.13186,-3.14996 -4.31746,-6.24048 -6.76786,-9.15219 -1.92266,-1.9081 -4.12593,-2.90703 -6.74192,-3.37527 -1.82237,0.33881 -3.82815,1.19606 -5.76468,1.71997 0,0 8.9933,-6.91492 8.9933,-6.91492 l 0,0 c 1.97796,-0.567 4.03333,-1.70506 6.11421,-1.29955 2.76523,0.67293 5.11192,1.96997 7.11482,4.03421 2.4335,2.92848 4.63371,6.01045 6.75825,9.16833 2.96399,3.63257 5.74078,7.44666 9.38449,10.46839 3.07888,3.30009 6.53394,6.15616 9.99666,9.04081 3.68289,2.8848 7.01342,6.21636 10.22059,9.61675 3.51136,2.91007 7.24401,5.51035 10.89344,8.24027 3.42908,3.12777 7.00849,6.07819 10.44537,9.19549 3.29833,3.48578 6.86263,6.71096 10.07138,10.28706 3.38761,4.18046 6.96423,8.19015 10.36241,12.36017 3.34842,4.66802 7.43153,8.71162 10.91624,13.27501 3.47369,3.65408 6.89881,7.37909 9.83075,11.49151 2.84446,3.82562 5.69066,7.64152 8.75093,11.29702 3.24052,3.8224 6.72609,7.42944 10.76472,10.42287 3.9968,3.26717 7.74251,6.82631 11.4435,10.41472 3.18297,3.38933 6.33358,6.81756 9.05817,10.59601 2.71073,3.56902 5.48451,7.07684 8.12867,10.6936 2.69661,3.93808 4.88284,8.19103 7.6857,12.06127 2.94839,4.72643 5.77902,9.50752 8.46902,14.39007 2.97667,6.19091 5.42997,12.58909 7.58316,19.11147 2.18905,6.8182 5.36798,13.22139 7.88217,19.92078 2.07266,4.84218 4.15754,9.67411 6.13563,14.55445 2.02088,3.67875 4.55833,7.04042 6.72463,10.63048 2.81245,3.4486 5.9634,6.59553 8.70622,10.10022 1.92195,3.02408 4.08826,5.89042 5.75631,9.07453 1.49016,3.33985 -0.5962,4.76899 -2.878,7.08541 -2.60361,3.08081 -4.02634,6.82929 -6.39838,10.09763 -2.10123,4.70363 -3.92616,9.49777 -6.19513,14.12984 -2.59899,4.60809 -4.97265,9.38741 -8.13162,13.64184 -4.95264,5.77261 -9.74022,11.71938 -14.57147,17.59014 -5.42392,7.56116 -10.77804,15.17257 -15.59199,23.14249 -4.39697,7.46483 -8.82787,14.85126 -14.32042,21.58754 -4.43182,6.38171 -9.23273,12.34779 -14.62327,17.9588 -4.48559,5.36504 -8.61245,11.03294 -13.60339,15.95511 -4.43802,4.76608 -9.10223,9.26799 -13.60491,13.96813 -5.32432,5.21295 -11.22558,9.83616 -15.75468,15.83979 -5.03865,6.0303 -9.72743,12.33861 -14.9312,18.23133 -4.90778,6.27965 -9.29113,12.91547 -13.86696,19.43602 -4.58554,6.05905 -8.32514,12.56429 -11.95086,19.22824 -2.66187,4.24798 -5.26181,8.53128 -7.81983,12.83282 -2.94402,5.06574 -7.44044,7.95313 -13.42709,10.03006 -2.41061,0.99702 -4.90637,1.77764 -7.43962,2.39783 -7.30566,1.51667 -14.77585,2.29631 -21.93274,4.5375 -12.46231,3.20432 -24.93585,6.36241 -37.45112,9.3545 -16.53298,3.5621 -33.15338,6.71318 -49.65817,10.41243 -19.02334,4.34422 -38.14569,8.31041 -57.35739,11.72605 -19.14466,3.23449 -38.30279,6.38536 -57.39943,9.89292 -19.23464,4.18918 -38.3601,8.8363 -56.85433,15.69028 -17.15824,5.85124 -34.0995,12.46301 -51.76869,16.66527 -13.41394,3.3049 -26.85852,6.50121 -40.33923,9.51561 -9.4768,2.25434 -19.0301,4.13416 -28.55359,6.1757 0,0 9.04833,-6.77222 9.04833,-6.77222 z" />
    <path
       style="fill:#000000;fill-opacity:1;fill-rule:nonzero;stroke:#000000;stroke-width:4.69999981;stroke-linecap:round;stroke-linejoin:round;stroke-miterlimit:4;stroke-opacity:1;stroke-dasharray:none;stroke-dashoffset:0"
       id="path2724"
       d="m -97.821496,526.47445 c 0.09264,5.70853 -0.877201,12.25931 2.712619,17.11553 2.403102,2.05743 5.693305,3.13327 8.685477,4.16406 2.515219,1.51857 5.075079,2.93414 7.918181,3.70126 3.236055,0.74904 6.004018,0.25862 8.846493,-1.38119 2.19203,-1.08332 13.055092,-6.48704 -6.200217,3.54364 -0.628747,0.32753 1.194744,-0.76536 1.765805,-1.18547 1.754853,-1.29098 3.415773,-2.74956 5.123469,-4.10293 2.949253,-2.52016 5.519348,-5.22762 7.505753,-8.56094 0,0 10.340993,-4.60731 10.340993,-4.60731 l 0,0 c -1.932738,3.49499 -4.357094,6.31702 -7.353444,8.96048 -6.249887,4.99187 -12.472729,9.93047 -20.031124,13.03544 -3.071296,1.34281 -6.113649,1.62848 -9.380565,0.71298 -2.813867,-0.89604 -5.330726,-2.40175 -7.936031,-3.77085 -3.169959,-1.19157 -6.649253,-2.25504 -9.028693,-4.75258 -3.62935,-5.1619 -2.98122,-11.69908 -3.04001,-17.74054 0,0 10.071294,-5.13158 10.071294,-5.13158 z" />
    <path
       style="fill:#000000;fill-opacity:1;fill-rule:nonzero;stroke:#000000;stroke-width:4.69999981;stroke-linecap:round;stroke-linejoin:round;stroke-miterlimit:4;stroke-opacity:1;stroke-dasharray:none;stroke-dashoffset:0"
       id="path2726"
       d="m -9.5565022,566.54644 c -0.8036938,5.28161 -1.3000278,10.6016 -1.7748738,15.92051 0,0 -10.049685,5.00578 -10.049685,5.00578 l 0,0 c 0.49694,-5.31944 0.993484,-10.63977 1.682608,-15.93869 0,0 10.1419508,-4.9876 10.1419508,-4.9876 z" />
    <path
       style="fill:#000000;fill-opacity:1;fill-rule:nonzero;stroke:#000000;stroke-width:4.69999981;stroke-linecap:round;stroke-linejoin:round;stroke-miterlimit:4;stroke-opacity:1;stroke-dasharray:none;stroke-dashoffset:0"
       id="path2728"
       d="m 123.54119,788.76523 c -5.74495,4.90209 -10.03022,10.95324 -12.84771,17.9163 -1.18232,4.58054 -3.75832,10.17615 -1.33325,14.75488 3.4749,2.53985 7.82043,-0.60233 10.90692,-2.40641 3.76827,-1.88024 7.55943,-4.39401 11.74737,-2.64981 4.25784,1.91336 6.55542,6.17419 9.03505,9.89848 2.29048,2.8465 5.62288,5.37421 9.42687,4.97053 0.56985,-0.25109 1.1397,-0.50217 1.70956,-0.75325 -2.56958,1.43994 -5.05093,3.05008 -7.70874,4.31982 -0.72613,0.34691 1.25923,-0.55111 3.92478,-3.57549 1.3057,-1.48146 3.21694,-4.10703 4.37025,-5.64838 3.16666,-4.58389 1.63678,-2.31062 4.59495,-6.81623 0,0 10.27525,-4.50595 10.27525,-4.50595 l 0,0 c -2.95967,4.53301 -1.44138,2.24174 -4.55779,6.87186 -5.66312,7.69758 -11.41767,14.74655 -21.77959,16.78178 -4.11564,-0.32436 -7.53453,-2.67519 -10.00528,-5.93444 -2.34035,-3.53873 -4.53204,-7.61089 -8.67543,-9.24782 -3.9846,-1.0122 -7.68652,1.71411 -11.14033,3.39484 -3.67407,2.05223 -8.41311,4.48086 -11.972696,0.93419 -2.590691,-4.96776 -0.367724,-10.63239 0.996136,-15.66892 2.70147,-7.12292 6.85772,-13.27831 12.53367,-18.42225 0,0 10.50001,-4.21373 10.50001,-4.21373 z" />
    <path
       style="fill:#000000;fill-opacity:1;fill-rule:nonzero;stroke:#000000;stroke-width:4.69999981;stroke-linecap:round;stroke-linejoin:round;stroke-miterlimit:4;stroke-opacity:1;stroke-dasharray:none;stroke-dashoffset:0"
       id="path2732"
       d="m 155.87376,872.64232 c 3.75447,-6.9007 8.15281,-13.58045 13.81329,-19.06361 5.87877,-4.32922 14.38917,-14.49769 21.5362,-8.9936 3.03896,4.73719 1.40957,11.07145 0.4109,16.24691 -1.87222,7.66944 -5.12632,14.60186 -9.39845,21.18391 -5.128,6.58463 -12.84005,11.82179 -21.08621,13.46857 -5.41028,0.67381 -9.46688,3.18905 8.05171,-6.33624 1.22315,-0.66506 2.78447,-0.0181 4.1767,-0.0281 5.77574,-0.0186 11.5514,-0.0552 17.32716,-0.0692 2.14959,0.63746 6.52017,0.55948 7.78198,2.85959 1.12088,4.66525 -8.0902,8.07723 -11.59279,5.12555 0,0 9.63296,-6.07485 9.63296,-6.07485 l 0,0 c 4.04203,2.73258 -12.07035,3.8771 -7.99638,6.5294 -1.65149,-0.74487 -4.67478,-1.77882 -6.95804,-1.80166 -5.78005,0.0113 -11.56025,0.0156 -17.33996,0.0877 -3.04321,0.0318 -4.2143,0.0447 -4.21035,0.0398 5.92854,-7.3186 4.92416,-6.29104 10.13865,-7.20685 3.95949,-1.1026 9.83576,-4.62173 -4.34531,3.46307 -0.68866,0.39261 1.33147,-0.86376 1.96013,-1.34665 2.42662,-1.86391 2.12474,-1.77905 4.16112,-4.19386 4.28213,-6.48853 7.69816,-13.1804 9.58215,-20.79634 0.96228,-4.61283 2.65168,-10.72811 0.13162,-15.04312 -2.33682,-1.37354 -4.59802,-0.17956 -4.22452,-0.46267 14.55683,-11.03386 5.9469,-2.92515 2.67313,-0.92031 -5.82199,5.19619 -10.18404,11.86581 -13.92263,18.671 0,0 -10.30306,4.66143 -10.30306,4.66143 z" />
    <path
       style="fill:#000000;fill-opacity:1;fill-rule:nonzero;stroke:#000000;stroke-width:4.69999981;stroke-linecap:round;stroke-linejoin:round;stroke-miterlimit:4;stroke-opacity:1;stroke-dasharray:none;stroke-dashoffset:0"
       id="path2734"
       d="m 503.83504,851.84847 c -4.33218,5.46523 -7.00763,11.88101 -8.88831,18.53559 -0.72888,3.99179 0.83935,6.74082 5.00607,6.54706 -1.27231,2.02432 8.02052,-3.52479 5.67485,-2.31625 -2.48576,1.28072 -4.78967,2.93172 -7.37395,3.99978 -1.93608,0.80017 3.19951,-2.71201 4.68467,-4.1895 3.80587,-3.99673 6.55704,-8.82441 9.54966,-13.42728 3.00156,-3.89955 4.91061,-3.70215 12.03452,-5.43004 0.42018,-0.10191 0.23421,0.83261 0.36658,1.24421 0.14938,0.46448 0.31897,0.92221 0.47845,1.38332 0.18355,0.58535 0.36711,1.17071 0.55066,1.75606 1.22534,2.90871 3.3684,5.53737 6.78307,5.35161 3.56612,-1.32365 10.34494,-3.89227 -6.13656,3.52019 -0.52219,0.23485 0.80133,-0.81935 1.17207,-1.25569 1.24327,-1.46324 1.11201,-1.43064 2.06576,-3.14399 1.65495,-4.39603 3.3321,-8.77892 5.06312,-13.14488 1.11336,-3.56378 2.75721,-6.93155 4.23875,-10.35209 0,0 10.30842,-4.72723 10.30842,-4.72723 l 0,0 c -1.50882,3.40892 -3.21537,6.76061 -4.29769,10.32966 -1.69835,4.39915 -3.53557,8.74685 -4.9919,13.23558 -2.958,6.31633 -9.62555,11.51561 -16.66241,12.14762 -3.71152,-0.68527 -6.06446,-3.06895 -7.47863,-6.50908 -0.0717,-0.22518 -1.57468,-4.00704 -1.32836,-4.18683 16.17235,-11.80401 11.5828,-7.39578 8.20767,-4.76643 -3.06,4.62487 -5.81248,9.50749 -9.52533,13.64887 -5.94374,6.36565 -13.86079,12.25586 -22.57995,13.44966 -4.58842,-0.58338 -6.65717,-3.6986 -5.98857,-8.31814 1.81648,-6.75604 4.46808,-13.2794 8.66315,-18.93672 0,0 10.40419,-4.44506 10.40419,-4.44506 z" />
    <path
       style="fill:#000000;fill-opacity:1;fill-rule:nonzero;stroke:#000000;stroke-width:4.69999981;stroke-linecap:round;stroke-linejoin:round;stroke-miterlimit:4;stroke-opacity:1;stroke-dasharray:none;stroke-dashoffset:0"
       id="path2736"
       d="m 557.94697,868.20763 c 5.42419,-1.51517 10.9228,-3.98146 16.63209,-3.91454 3.32247,1.08904 4.66257,3.88256 4.47193,7.21425 -0.52398,3.07909 -3.09291,4.60237 -5.41051,6.29172 -0.11364,1.49717 3.65397,3.11808 4.80687,4.16093 2.77025,3.11419 2.7003,6.6329 1.62208,10.44347 -1.59065,4.19399 -4.68523,7.62378 -7.94719,10.61433 -5.03548,3.9583 -2.15769,1.82611 -13.21826,8.03475 -2.81337,1.57924 -5.06518,0.37417 -7.63064,-1.05326 -0.65205,-0.43208 -1.30411,-0.86417 -1.95616,-1.29625 0,0 9.51611,-6.1092 9.51611,-6.1092 l 0,0 c 0.63134,0.40141 1.26269,0.80282 1.89403,1.20423 1.85804,0.88579 3.29551,1.64471 5.36431,0.9282 0.56642,-0.19617 2.12755,-1.10069 1.61764,-0.78557 -10.50036,6.48905 -9.77965,6.05054 -6.0568,3.32862 3.32162,-2.73565 6.34894,-6.10816 8.16669,-10.04191 1.22846,-3.31107 1.5171,-6.51634 -1.0019,-9.27952 -2.12681,-1.80478 -5.33635,-2.76686 -5.72171,-5.86158 1.87086,-1.93328 4.98492,-2.65021 5.77001,-5.55455 0.59773,-2.6612 -0.62685,-5.07071 -3.43039,-5.55973 -5.65154,0.36918 -11.05242,2.53746 -16.42383,4.17766 0,0 8.93563,-6.94205 8.93563,-6.94205 z" />
    <path
       style="fill:#000000;fill-opacity:1;fill-rule:nonzero;stroke:#000000;stroke-width:4.69999981;stroke-linecap:round;stroke-linejoin:round;stroke-miterlimit:4;stroke-opacity:1;stroke-dasharray:none;stroke-dashoffset:0"
       id="path2738"
       d="m 904.12624,603.51062 c -2.81421,5.74512 -5.07105,11.72758 -6.63671,17.92736 -0.59201,4.09625 1.47293,6.03512 5.09348,7.12651 4.85956,-4.2e-4 17.82653,-8.35176 1.22724,1.06561 4.0572,-2.61227 7.32869,-6.19743 11.05308,-9.21937 4.74184,-3.30386 12.05818,-13.35738 17.40207,-8.40445 1.34327,2.84914 1.26517,6.04464 2.15419,9.05931 0.8953,2.79032 2.05078,5.73654 4.82182,7.02075 -0.40246,2.30644 7.41366,-2.04078 5.45122,-0.91755 -9.11784,5.21874 -10.87389,6.50713 -6.74129,3.63819 3.07164,-2.24543 4.88677,-5.74215 6.40726,-9.15234 0.99906,-2.91178 2.43254,-5.63531 3.52799,-8.50926 0,0 10.28472,-4.78446 10.28472,-4.78446 l 0,0 c -1.0698,2.91012 -2.5186,5.63143 -3.53115,8.55835 -1.38469,3.52751 -3.25246,7.23214 -6.16069,9.70596 -4.91058,3.90169 -12.02352,10.17496 -18.73885,7.674 -2.84832,-1.70528 -4.3128,-4.6703 -5.2688,-7.79445 -0.8569,-2.81381 -1.00116,-5.67406 -1.85015,-8.45093 -3.01813,-1.92939 -11.36399,5.43438 7.31912,-5.44166 0.50674,-0.29499 -0.97266,0.65539 -1.44912,0.99714 -1.89842,1.36166 -1.39034,0.99246 -3.11906,2.60673 -3.88686,2.83504 -7.01057,6.60962 -11.0163,9.31776 -5.83397,3.43027 -13.52555,9.966 -21.16154,9.39648 -3.9948,-1.47762 -6.30473,-4.10797 -5.89848,-8.61064 1.56345,-6.26115 3.79857,-12.29658 6.52689,-18.14761 0,0 10.30306,-4.66143 10.30306,-4.66143 z" />
    <path
       style="fill:#000000;fill-opacity:1;fill-rule:nonzero;stroke:#000000;stroke-width:4.69999981;stroke-linecap:round;stroke-linejoin:round;stroke-miterlimit:4;stroke-opacity:1;stroke-dasharray:none;stroke-dashoffset:0"
       id="path2740"
       d="m 1004.4178,658.13393 c -5.73302,-0.93094 -12.72113,-0.47936 -16.64635,-5.4171 -2.16719,-3.60168 -0.32238,-7.27487 1.91733,-10.3055 2.79704,-2.99277 6.1833,-5.27554 9.46409,-7.68352 5.61783,-4.05546 11.70333,-7.01967 17.85923,-10.24982 2.5472,0.8363 2.2636,4.44019 2.3425,6.59944 0.051,6.03574 -1.4557,11.97733 -2.8571,17.81108 -1.4319,5.83748 -3.764,11.32564 -6.6169,16.59421 -2.6862,4.65226 -9.5153,8.57629 -12.98516,3.77315 0,0 9.76026,-5.77744 9.76026,-5.77744 l 0,0 c 4.2491,5.70305 -11.17795,10.62909 -7.13144,6.61765 3.09324,-5.07639 5.29864,-10.60506 6.84194,-16.33958 1.3484,-5.74163 2.9335,-11.56312 2.9082,-17.4985 -0.039,-1.15599 0.4738,-4.98946 -1.3426,-4.92023 18.3639,-10.89119 5.8116,-3.57844 1.7533,-0.78767 -3.2564,2.40488 -6.61,4.64935 -9.5827,7.40387 -2.08872,2.47492 -4.43437,5.69376 -2.60741,8.94383 3.76091,4.54657 10.88221,3.72581 16.15971,4.72339 0,0 -9.2369,6.51274 -9.2369,6.51274 z" />
    <path
       style="fill:#000000;fill-opacity:1;fill-rule:nonzero;stroke:#000000;stroke-width:4.69999981;stroke-linecap:round;stroke-linejoin:round;stroke-miterlimit:4;stroke-opacity:1;stroke-dasharray:none;stroke-dashoffset:0"
       id="path2742"
       d="m 859.24827,165.49083 c -2.97153,1.98398 -14.04716,6.63569 0.57535,-0.59569 0.94479,-0.46724 -1.77176,1.1494 -2.59065,1.81299 -1.68003,1.36142 -2.26639,2.19873 -3.60603,3.79295 -2.10923,2.88075 -2.74776,6.1951 -2.95046,9.67117 -0.29523,2.99063 0.47428,5.79212 1.96435,8.37175 2.29797,2.37986 5.45794,3.31099 8.68152,2.80727 -1.22942,1.67978 6.92354,-2.89552 4.69195,-1.67809 -13.83452,7.54727 -8.76757,5.2075 -5.44708,2.19744 4.3375,-3.54884 12.40234,-11.28521 15.28211,-4.16209 1.15381,2.68984 2.69726,4.63352 5.26863,6.02664 1.66595,0.47075 3.53901,1.3107 5.24338,0.51865 0.49103,-0.22819 1.84541,-1.13208 1.37067,-0.8717 -2.79646,1.53373 -5.55886,3.12876 -8.33829,4.69314 3.25834,-2.22596 5.53245,-5.41886 7.4778,-8.79178 2.26076,-3.04814 3.73605,-6.42009 4.61187,-10.09057 0.45767,-1.46858 0.23252,-2.71963 -0.17974,-4.13747 0,0 9.96643,-5.45362 9.96643,-5.45362 l 0,0 c 0.49258,1.56767 0.91076,3.01872 0.43234,4.67021 -0.81857,3.74065 -2.036,7.36572 -4.49759,10.37935 -1.80783,3.52144 -4.12735,6.81705 -7.24857,9.29126 -6.95583,4.09345 -11.04664,9.22068 -18.36316,5.97903 -2.67757,-1.63086 -4.40391,-3.82473 -5.68095,-6.68424 -0.22065,-0.62886 -0.43605,-1.50657 -1.29837,-1.50569 -0.29422,3e-4 -1.11293,0.33018 -0.86613,0.17001 2.37742,-1.54288 12.43495,-7.65683 7.31447,-4.33496 -5.22581,5.00275 -11.62072,9.42573 -18.85687,10.52018 -3.63705,0.0398 -6.96918,-1.02771 -9.39054,-3.87036 -1.5807,-2.74355 -2.55157,-5.74841 -2.28007,-8.94296 0.16732,-3.65361 0.67228,-7.18386 2.69763,-10.33754 6.26322,-8.05441 16.00332,-11.82525 24.84687,-16.50914 0,0 -8.83087,7.06386 -8.83087,7.06386 z" />
    <path
       style="fill:#000000;fill-opacity:1;fill-rule:nonzero;stroke:#000000;stroke-width:4.69999981;stroke-linecap:round;stroke-linejoin:round;stroke-miterlimit:4;stroke-opacity:1;stroke-dasharray:none;stroke-dashoffset:0"
       id="path2744"
       d="m 938.84586,205.0635 c -1.0828,0.43655 -2.16208,0.88193 -3.2484,1.30965 -1.22856,0.48371 -2.48756,0.89265 -3.69604,1.42456 -1.17153,0.51564 -4.54284,2.35725 -3.43593,1.71452 12.8986,-7.48949 5.35871,-2.83456 2.6343,0.001 -1.94302,2.78112 -1.82369,5.26675 0.45223,7.61927 3.00959,1.8825 6.29876,3.16043 9.37694,4.95646 4.11102,2.46114 7.38151,5.87908 9.96021,9.88534 1.70373,2.71436 2.73607,5.05491 1.98761,8.22958 -1.97515,7.2161 -10.66481,10.15054 -16.29031,13.42528 -5.6747,2.09689 -11.52457,-0.0484 -16.76829,-2.35478 0,0 9.38088,-6.24653 9.38088,-6.24653 l 0,0 c 5.12647,2.18379 10.83812,4.0352 16.19816,1.48721 -16.3677,9.69718 -3.91376,3.54022 -2.77636,-1.43263 0.94816,-2.88708 0.0938,-4.832 -1.50436,-7.40255 -2.48712,-3.86128 -5.6674,-7.12201 -9.67595,-9.42111 -3.18979,-1.77145 -6.64634,-3.04663 -9.58375,-5.22166 -2.54976,-2.74616 -3.04899,-5.7357 -1.16877,-9.14841 6.85304,-8.07297 17.43595,-12.02056 27.10999,-15.71796 0,0 -8.95216,6.89273 -8.95216,6.89273 z" />
    <path
       style="fill:#000000;fill-opacity:1;fill-rule:nonzero;stroke:#000000;stroke-width:4.69999981;stroke-linecap:round;stroke-linejoin:round;stroke-miterlimit:4;stroke-opacity:1;stroke-dasharray:none;stroke-dashoffset:0"
       id="path2746"
       d="m 700.22459,183.04362 c 3.4845,7.73643 5.33787,16.09052 7.40764,24.28854 2.19762,7.99419 2.35645,16.29074 3.25531,24.47215 1.35888,9.16586 2.00599,18.40585 2.36996,27.65751 0.71092,10.7961 -0.063,21.53023 -0.97543,32.28033 -0.93686,10.15694 -1.28773,20.35094 -1.48734,30.54463 -0.13753,9.71663 -0.12331,19.4344 -0.1211,29.15172 0.17592,9.34447 -0.35356,18.71533 0.34834,28.03999 1.17106,7.94176 1.45779,15.98623 2.53437,23.93172 1.35411,7.04289 2.13415,14.14844 2.56465,21.30085 1.22201,8.13144 2.13801,16.28254 2.64369,24.49035 0.48289,8.8982 0.49011,17.81215 0.52459,26.72051 0.85746,9.23526 1.43607,18.51867 2.63655,27.71708 1.59435,8.35343 1.92585,16.86792 3.06827,25.2733 1.39951,6.65703 1.71585,13.48169 2.88472,20.16475 1.34281,5.71382 2.12166,11.51333 2.5463,17.36001 1.04553,6.39506 1.95607,12.78901 3.42228,19.10264 1.73835,6.67007 1.83179,13.58777 2.72802,20.38125 1.32813,7.35476 2.02833,14.78698 2.40652,22.24436 -0.12641,7.66977 1.17457,15.22082 2.02003,22.81478 0.81182,7.49531 0.98674,15.03645 1.11408,22.56811 0.0631,6.9813 0.0604,13.96296 0.0597,20.94447 0.11654,5.20684 0.2244,10.33051 -1.19795,15.37458 -1.89934,4.64324 -0.0721,0.7561 -11.44262,5.92477 0,0 9.43604,-6.33039 9.43604,-6.33039 l 0,0 c -8.97643,6.11532 -10.76471,8.84048 -8.24801,5.25265 1.63371,-4.93614 1.56782,-9.94999 1.41758,-15.10987 0.0139,-6.97886 0.0411,-13.95805 -0.0348,-20.93666 -0.10113,-7.50236 -0.26412,-15.01334 -1.04763,-22.4816 -0.84609,-7.61493 -2.19748,-15.18312 -2.05357,-22.87374 -0.37239,-7.42583 -1.02227,-14.83207 -2.37294,-22.15255 -0.96561,-6.75013 -0.96002,-13.64279 -2.69456,-20.28215 -1.48212,-6.36787 -2.40317,-12.80986 -3.5256,-19.24968 -0.39505,-5.81181 -1.12873,-11.58241 -2.48018,-17.25803 -1.23051,-6.69154 -1.43136,-13.55497 -2.86062,-20.22833 -1.18522,-8.40476 -1.42955,-16.93506 -3.04537,-25.2918 -1.2568,-9.23548 -1.73868,-18.57348 -2.70692,-27.84371 -0.0211,-8.88857 -0.0526,-17.782 -0.49705,-26.66157 -0.49999,-8.20329 -1.38264,-16.35447 -2.69024,-24.47018 -0.40047,-7.12837 -1.15718,-14.21305 -2.50391,-21.23155 -1.12939,-7.96268 -1.34313,-16.04 -2.54273,-24.00306 -0.75695,-9.35185 -0.17882,-18.75349 -0.36662,-28.12827 -0.004,-9.72439 -0.0249,-19.44958 0.11638,-29.17319 0.18267,-10.22077 0.53461,-20.44334 1.48551,-30.62584 0.90539,-10.70405 1.74125,-21.38705 1.00035,-32.1382 -0.36134,-9.22326 -0.97416,-18.43791 -2.35153,-27.57342 -0.96015,-8.12575 -1.03744,-16.38223 -3.18832,-24.3386 -2.04151,-8.11289 -3.80945,-16.41957 -7.38301,-24.02323 0,0 9.82717,-5.59543 9.82717,-5.59543 z" />
    <path
       style="fill:#000000;fill-opacity:1;fill-rule:nonzero;stroke:#000000;stroke-width:4.69999981;stroke-linecap:round;stroke-linejoin:round;stroke-miterlimit:4;stroke-opacity:1;stroke-dasharray:none;stroke-dashoffset:0"
       id="path2748"
       d="m 578.12075,454.70561 c -4.00996,5.50501 -7.93582,11.04489 -10.58702,17.34187 -1.68734,4.102 -2.29957,8.44723 -2.51126,12.84032 0.15486,3.69224 1.92629,5.46907 5.32786,6.4593 -0.93504,2.80569 9.68295,-3.23677 7.04904,-1.70187 -9.73851,5.67506 -9.89085,5.97369 -5.95652,2.82311 7.24223,-5.28947 11.53552,-11.70434 16.73441,-4.48609 2.12956,2.33101 3.56402,6.24998 6.58088,7.50902 2.74127,0.21535 14.62708,-5.71479 -7.22442,4.38363 -0.42533,0.19656 0.61585,-0.70747 0.89642,-1.08273 0.83163,-1.1123 0.98016,-1.4625 1.65581,-2.6579 1.51573,-3.28178 3.05224,-6.5529 4.7314,-9.75671 1.15107,-2.99195 2.95401,-5.62743 4.42196,-8.45506 0.83815,-1.91419 1.24313,-3.96422 1.38647,-6.03798 0,0 10.17047,-5.10793 10.17047,-5.10793 l 0,0 c -0.10526,2.20914 -0.4619,4.3693 -1.20635,6.46536 -1.40669,2.89241 -3.3646,5.42824 -4.44852,8.48116 -1.64354,3.22688 -3.32319,6.43257 -4.70155,9.76925 -2.76854,5.29731 -8.76377,12.32901 -15.1898,10.21383 -2.95905,-1.89037 -4.64395,-5.27424 -6.84537,-7.94252 -0.35577,-0.48196 -1.03135,-1.50798 -1.58397,-1.87238 -0.43103,-0.28423 -1.97373,0.44582 -1.54005,0.16565 15.1509,-9.78808 9.6589,-5.96271 6.63804,-3.82424 -5.11414,4.53886 -13.43846,11.02517 -20.95752,9.48056 -3.70063,-1.40252 -5.72784,-3.65698 -6.05962,-7.72737 0.20001,-4.50962 0.70361,-8.98884 2.40854,-13.21872 2.54038,-6.42319 6.46785,-11.9761 10.40649,-17.61649 0,0 10.40418,-4.44507 10.40418,-4.44507 z" />
    <path
       style="fill:#000000;fill-opacity:1;fill-rule:nonzero;stroke:#000000;stroke-width:4.69999981;stroke-linecap:round;stroke-linejoin:round;stroke-miterlimit:4;stroke-opacity:1;stroke-dasharray:none;stroke-dashoffset:0"
       id="path2750"
       d="m 610.74453,524.53057 c 4.3748,-4.24521 9.06879,-8.06576 14.30123,-11.19197 3.64278,-1.63757 12.32019,-9.54006 18.04819,-6.23534 2.12016,1.41783 1.89389,3.98528 1.98801,6.27452 -0.42364,3.82813 -1.93341,7.36702 -3.85352,10.665 -4.22997,7.17551 -10.04386,9.30647 -17.53634,13.54108 -3.39209,1.33155 -6.67072,0.90227 -9.80244,-0.82213 -3.28552,-1.99524 -5.13939,-5.17704 -6.46375,-8.67112 -1.33314,-4.23992 0.54289,-8.24413 2.49846,-11.94267 2.76796,-4.40387 6.12107,-8.39478 9.31917,-12.48514 1.88472,-2.77917 4.1234,-5.31568 5.71255,-8.28219 0.60338,-1.2855 0.33351,-0.67615 0.81884,-1.82392 0,0 10.33411,-4.77037 10.33411,-4.77037 l 0,0 c -0.4773,1.20953 -0.21232,0.56751 -0.80375,1.92241 -1.50735,3.09665 -3.72542,5.66757 -5.6794,8.49353 -3.10704,4.1244 -6.52877,8.00816 -9.38489,12.3263 -1.91276,3.34756 -3.99521,7.10322 -2.8982,11.05724 1.1838,3.26912 2.88841,6.19385 6.02036,7.94963 3.06342,1.40221 6.11979,1.45335 9.19998,-0.0202 -16.40332,9.7917 -4.32018,3.24013 -1.68518,-1.89405 1.98084,-3.09716 3.40086,-6.43354 4.11115,-10.05486 -0.0559,-1.80502 0.38871,-4.17249 -1.40019,-5.20799 -4.4029,-1.77998 -14.45779,5.87154 2.02245,-4.07966 -5.29221,2.99963 -10.15088,6.62574 -14.36684,11.03817 0,0 -10.5,4.21374 -10.5,4.21374 z" />
    <path
       style="fill:#000000;fill-opacity:1;fill-rule:nonzero;stroke:#000000;stroke-width:4.69999981;stroke-linecap:round;stroke-linejoin:round;stroke-miterlimit:4;stroke-opacity:1;stroke-dasharray:none;stroke-dashoffset:0"
       id="path2752"
       d="m 338.72324,617.72201 c -1.14394,4.06703 -3.77703,11.31897 0.26184,14.58346 0.39844,0.12503 0.77772,0.37401 1.19531,0.37508 1.48098,0.004 2.9444,-1.20143 4.35083,-1.52603 0.93376,-0.21551 2.23893,-0.11239 3.1741,-0.0837 3.87856,1.08613 6.10911,4.41481 8.68931,7.23195 2.13841,1.93895 3.9595,3.50303 6.94771,2.75492 0.593,-0.14846 2.26339,-0.89296 1.74159,-0.5745 -2.68453,1.63837 -5.50861,3.03632 -8.26291,4.55448 3.25467,-1.7306 4.79959,-4.66663 6.34966,-7.81383 1.37587,-2.41544 2.37921,-5.00413 2.89308,-7.73308 0,0 10.21596,-4.98546 10.21596,-4.98546 l 0,0 c -0.45339,2.82487 -1.31315,5.57012 -2.77554,8.04993 -1.64464,3.15488 -2.7986,6.51958 -6.11452,8.38516 -9.51508,5.42692 -12.65065,10.44685 -20.66185,3.22598 -2.35375,-2.58578 -4.48936,-5.83533 -8.1953,-6.41816 -3.15717,0.16257 -6.22035,2.32997 -9.19531,0.52275 -4.0545,-4.11837 -2.29188,-10.78674 -0.85606,-15.73888 0,0 10.2421,-4.81008 10.2421,-4.81008 z" />
    <path
       style="fill:#000000;fill-opacity:1;fill-rule:nonzero;stroke:#000000;stroke-width:4.69999981;stroke-linecap:round;stroke-linejoin:round;stroke-miterlimit:4;stroke-opacity:1;stroke-dasharray:none;stroke-dashoffset:0"
       id="path2754"
       d="m 398.34508,642.92002 c 7.66956,-0.51502 15.08896,-2.49129 22.60888,-3.92306 4.05823,-1.36678 8.06991,-2.80859 12.23045,-3.83403 3.09415,-1.12627 2.77371,1.65652 2.10497,3.80849 -1.62368,3.93504 -4.01132,7.51455 -6.2795,11.10368 -2.98949,4.52341 -5.96974,9.03153 -9.32353,13.29767 -2.98626,3.6387 -6.09735,7.17872 -8.88918,10.97246 -0.95776,1.33123 -1.85333,2.70518 -2.69891,4.10981 -0.028,0.2328 -0.12292,0.0663 -0.15387,0.083 0,0 -10.3063,4.93547 -10.3063,4.93547 l 0,0 c 0.0123,-0.10436 -0.0868,-0.25692 0.0416,-0.35261 0.80347,-1.48968 1.76303,-2.88798 2.72574,-4.27861 2.7597,-3.8488 5.85524,-7.41587 8.90598,-11.0343 3.39519,-4.20732 6.37859,-8.6756 9.35113,-13.18028 2.25921,-3.51381 4.51188,-7.05191 6.35639,-10.79984 0.70864,-2.37918 2.0011,-2.51681 -0.85516,-1.76442 -4.1215,1.06269 -8.07951,2.6163 -12.1885,3.72193 -7.53434,1.47135 -15.00936,3.24511 -22.6785,3.90685 0,0 9.04833,-6.77222 9.04833,-6.77222 z" />
    <path
       style="fill:#000000;fill-opacity:1;fill-rule:nonzero;stroke:#000000;stroke-width:4.69999981;stroke-linecap:round;stroke-linejoin:round;stroke-miterlimit:4;stroke-opacity:1;stroke-dasharray:none;stroke-dashoffset:0"
       id="path2756"
       d="m 409.86791,658.019 c 5.67012,0.90147 11.37017,1.58456 17.08058,2.16939 1.61796,0.15633 0.8765,0.0874 2.22417,0.20932 0,0 -9.2739,6.5973 -9.2739,6.5973 l 0,0 c -1.32686,-0.14624 -0.59644,-0.065 -2.19117,-0.24479 -5.70264,-0.65942 -11.39583,-1.38977 -17.07653,-2.21847 0,0 9.23685,-6.51275 9.23685,-6.51275 z" />
    <path
       style="fill:#000000;fill-opacity:1;fill-rule:nonzero;stroke:#000000;stroke-width:4.69999981;stroke-linecap:round;stroke-linejoin:round;stroke-miterlimit:4;stroke-opacity:1;stroke-dasharray:none;stroke-dashoffset:0"
       id="path2758"
       d="m 366.06791,171.67062 c -7.41154,5.05192 -13.56715,11.89016 -18.64303,19.24229 -3.00379,4.37279 -6.61908,8.94347 -7.20609,14.38624 0.60173,3.85376 3.41276,5.25031 6.88036,6.09934 3.99541,-0.19884 7.71907,-2.08082 11.13641,-4.05531 -19.15027,11.63727 1.9768,-3.03544 6.2374,-3.66308 0.79105,-0.11653 1.31694,0.2806 1.95095,0.61825 1.78005,2.66308 1.48719,6.21988 1.54929,9.30796 0.46434,2.28996 0.72413,5.09106 2.86037,6.41071 3.67242,-1.28227 4.73885,-1.7025 -8.06541,4.49905 -0.41884,0.20286 0.69113,-0.62555 1.00466,-0.96947 1.28982,-1.41483 2.21941,-2.94501 3.10465,-4.62997 2.06101,-4.03402 3.74413,-8.24982 5.48447,-12.42898 0,0 10.25748,-4.72335 10.25748,-4.72335 l 0,0 c -1.76354,4.17704 -3.41024,8.4165 -5.43276,12.47495 -2.6022,5.76987 -8.82628,13.54677 -15.95539,11.88823 -2.27561,-1.78415 -2.78054,-4.63425 -3.35484,-7.35703 -0.0275,-2.5936 0.28539,-5.77593 -0.90622,-8.12112 -1.37402,-0.23847 -3.32875,1.11657 -2.61185,0.68273 2.69265,-1.62953 5.37543,-3.28021 8.13953,-4.78538 0.62306,-0.33928 -1.13398,0.85287 -1.70097,1.27931 -3.79046,2.20607 -7.58093,4.41214 -11.3714,6.61821 -3.63564,1.88318 -7.4629,3.85205 -11.67363,3.3661 -3.92062,-1.20986 -6.81385,-3.17253 -7.66699,-7.43982 0.23737,-5.6571 3.90561,-10.51475 7.0677,-14.9724 4.95798,-7.45171 11.11287,-14.37043 18.39262,-19.61023 0,0 10.52269,-4.11723 10.52269,-4.11723 z" />
    <path
       style="fill:#000000;fill-opacity:1;fill-rule:nonzero;stroke:#000000;stroke-width:4.69999981;stroke-linecap:round;stroke-linejoin:round;stroke-miterlimit:4;stroke-opacity:1;stroke-dasharray:none;stroke-dashoffset:0"
       id="path2760"
       d="m 400.9779,226.13418 c -4.41283,5.41287 -8.97404,10.6999 -13.65305,15.88355 -2.61818,3.07326 -4.99818,5.95242 -3.01055,9.91801 2.11169,2.32239 5.06922,2.60822 8.02318,2.80238 -2.21701,1.94874 7.24428,-3.07637 4.4156,-1.35358 -14.68969,8.94664 -8.97809,5.93043 -6.44767,2.56491 1.99735,-3.97969 1.75109,-8.67508 1.84575,-13.018 -0.009,-6.97651 -0.13636,-13.899 0.78582,-20.82333 0.60258,-5.05508 1.84793,-10.15543 5.34547,-13.99037 5.17883,-4.33123 12.71785,-10.51333 16.87261,-3.56913 1.66076,4.09259 -0.55029,7.81267 -2.68164,11.24456 -3.09793,4.82853 -7.50405,8.36481 -12.28526,11.40543 0,0 -10.52666,4.07808 -10.52666,4.07808 l 0,0 c 4.79968,-2.89297 9.2884,-6.21963 12.46326,-10.93228 1.95882,-2.97264 4.49837,-6.38185 3.20192,-10.09824 -0.58077,-0.96026 -1.19119,-1.82256 -2.40316,-2.02839 -0.41158,-0.0699 -1.58909,0.26583 -1.25226,0.0192 0.0514,-0.0376 12.5379,-7.83604 7.09138,-4.43431 -3.91094,3.25407 -5.07471,8.49095 -5.73155,13.33529 -0.98194,6.88269 -0.91887,13.75049 -0.83053,20.69586 -0.0646,4.53153 0.14767,9.27336 -1.49261,13.5747 -3.64314,5.9249 -10.82835,9.18853 -17.59692,9.91662 -3.32975,-0.33362 -6.4593,-1.01456 -8.65498,-3.77426 -2.23119,-4.44017 -0.62105,-7.57039 2.47146,-11.16806 4.69846,-5.13686 9.2797,-10.37994 13.6462,-15.80356 0,0 10.40419,-4.44507 10.40419,-4.44507 z" />
    <path
       style="fill:#000000;fill-opacity:1;fill-rule:nonzero;stroke:#000000;stroke-width:4.69999981;stroke-linecap:round;stroke-linejoin:round;stroke-miterlimit:4;stroke-opacity:1;stroke-dasharray:none;stroke-dashoffset:0"
       id="path2766"
       d="m 162.78218,585.96911 c 1.98587,4.60447 4.0988,10.45081 9.77038,11.01345 3.62866,-0.46001 11.5939,-4.4162 -4.86152,3.45677 -0.62568,0.29935 1.11685,-0.82577 1.63671,-1.28495 1.24664,-1.1011 1.95918,-2.01829 3.05752,-3.28797 4.57189,-6.47153 8.46178,-7.4914 16.3281,-11.38814 1.88336,2.19861 3.49735,4.22849 6.00969,5.74691 2.7223,1.06929 5.82838,2.05732 8.71285,1.21701 3.91478,-1.12098 10.42455,-4.34936 -5.74082,3.82849 -0.5013,0.2536 0.88102,-0.69909 1.29301,-1.08103 1.19928,-1.11183 1.18955,-1.23461 2.15124,-2.55757 1.73986,-3.2436 2.08118,-6.95505 2.32642,-10.5655 0.0908,-1.50465 0.0895,-3.01238 0.0654,-4.51886 0,0 10.14673,-5.18794 10.14673,-5.18794 l 0,0 c 0.0186,1.54094 0.0555,3.0827 -0.0624,4.62143 -0.25413,3.76378 -0.58139,7.59562 -2.0926,11.09874 -3.57557,6.02412 -10.41863,9.61993 -17.14884,11.20154 -3.18439,0.28492 -6.33647,-0.48108 -9.18837,-1.91209 -2.29907,-1.49225 -3.89309,-3.41391 -5.76626,-5.3239 17.36704,-10.83093 6.48086,-4.49931 3.37124,0.40674 -4.78804,5.83134 -11.63973,12.09537 -19.5227,12.0181 -5.81879,-1.53489 -8.18423,-6.88833 -10.39733,-12.04249 0,0 9.91159,-5.45874 9.91159,-5.45874 z" />
    <path
       style="fill:#000000;fill-opacity:1;fill-rule:nonzero;stroke:#000000;stroke-width:4.69999981;stroke-linecap:round;stroke-linejoin:round;stroke-miterlimit:4;stroke-opacity:1;stroke-dasharray:none;stroke-dashoffset:0"
       id="path2772"
       d="m 235.94063,598.9472 c -6.78224,0.57793 -13.33175,2.37188 -19.9256,3.95177 -2.23511,0.53498 -1.85372,0.32801 -3.89317,1.25463 -0.51849,0.23557 -2.0217,1.0481 -1.52813,0.764 22.57917,-12.99675 8.18446,-6.98568 8.36459,-3.81286 2.09854,1.82845 4.94181,0.6167 7.43377,0.25606 3.80063,-1.31898 10.64601,-5.23205 -4.70883,3.18098 -0.57737,0.31634 1.14449,-0.65381 1.68841,-1.02471 0.45359,-0.30929 2.7248,-2.10768 3.13373,-2.42929 3.78558,-3.42669 11.20703,-13.8538 16.13736,-8.4201 1.46551,2.69657 2.45097,5.69873 3.53983,8.59055 1.04279,2.91212 1.73073,5.99834 1.3674,9.08515 -0.58401,3.16269 -2.35266,5.40737 -4.81791,7.34168 -5.79237,3.85028 -12.87289,9.63179 -20.46771,8.77143 -3.21444,-1.02899 -4.29763,-3.70288 -5.49881,-6.58016 0,0 9.86438,-5.52306 9.86438,-5.52306 l 0,0 c 1.03208,2.52704 1.87862,4.90226 4.84714,5.48798 1.92578,-0.0156 3.71315,-0.34317 5.54694,-0.97208 0.61531,-0.21102 2.34905,-1.10167 1.80113,-0.75108 -16.33456,10.45159 -9.17991,5.53322 -6.62412,3.75731 2.4274,-1.75142 4.43253,-3.48898 5.15119,-6.55222 0.67023,-2.84253 -0.20626,-5.82969 -1.08331,-8.55755 -1.02344,-2.74641 -2.01702,-5.56951 -3.31827,-8.16067 -3.35746,-2.86811 -0.91964,-0.41609 8.32855,-6.15728 0.24535,-0.15231 -0.53103,0.25217 -0.73839,0.45316 -1.26021,1.22157 -2.09278,2.91082 -3.5192,3.98864 -6.01229,4.54245 -12.24427,9.40056 -19.70038,11.26676 -3.12336,0.46892 -6.20726,1.22654 -8.38783,-1.66354 -2.02128,-6.80978 10.81804,-8.67905 16.056,-10.43958 6.61804,-1.5607 13.21227,-3.21689 19.99957,-3.87814 0,0 -9.04833,6.77222 -9.04833,6.77222 z" />
    <path
       style="fill:#000000;fill-opacity:1;fill-rule:nonzero;stroke:#000000;stroke-width:4.69999981;stroke-linecap:round;stroke-linejoin:round;stroke-miterlimit:4;stroke-opacity:1;stroke-dasharray:none;stroke-dashoffset:0"
       id="path2774"
       d="m 517.8269,231.62237 c -5.71889,3.97396 -10.19805,9.04803 -13.95523,14.85538 -2.22747,4.22647 -4.3829,8.88599 -4.1185,13.7713 1.33011,3.63323 3.01893,4.90298 6.79747,4.56873 0.51661,-0.22654 1.03341,-0.45264 1.54983,-0.6796 1.24732,-0.54816 4.82663,-2.53038 3.62764,-1.8833 -14.238,7.68422 -6.85325,3.76828 -3.48548,1.06152 3.31002,-3.30581 6.60433,-6.64884 9.52747,-10.30684 2.76438,-4.03493 -1.53903,-1.48691 10.73124,-4.75387 0.39085,-0.10406 -0.41168,0.69643 -0.60879,1.04962 -0.73192,1.3115 -0.61081,1.1164 -1.23475,2.46709 -0.76681,2.48184 -2.30891,5.89671 -0.55866,8.21497 2.3249,1.35932 5.55748,-0.34545 7.69364,-1.54748 3.92546,-1.95562 4.54151,-2.30329 -6.01809,3.5585 -0.61863,0.34341 1.21317,-0.72937 1.80344,-1.11952 1.84665,-1.22057 3.55795,-2.59188 5.26265,-3.99889 2.46801,-1.96591 4.43191,-4.42189 5.39204,-7.43648 0.27304,-1.15726 0.16199,-0.60998 0.34492,-1.6394 0,0 10.22832,-5.00876 10.22832,-5.00876 l 0,0 c -0.15989,1.1125 -0.0616,0.52104 -0.30594,1.77246 -0.82446,3.20723 -2.56429,5.97519 -5.17285,8.07182 -6.11383,5.27638 -13.08754,9.39217 -20.38869,12.87402 -2.81709,1.20428 -6.0512,2.6379 -8.62863,0.23954 -1.90704,-2.8683 -0.89813,-6.15506 0.0215,-9.25505 0.36468,-0.8424 0.92539,-3.08182 1.80258,-3.55968 21.06598,-11.47604 12.10169,-7.78798 10.04742,-4.38853 -2.89504,3.75508 -6.25277,7.06979 -9.46453,10.54787 -6.29451,5.27368 -13.38505,10.17239 -21.32011,12.41082 -3.95993,-0.1028 -6.38393,-2.30475 -7.70493,-6.03183 -0.51828,-5.08648 1.67347,-9.99731 3.88281,-14.46323 3.64458,-5.91494 8.01065,-11.1649 13.75216,-15.17745 0,0 10.50001,-4.21373 10.50001,-4.21373 z" />
    <path
       style="fill:#000000;fill-opacity:1;fill-rule:nonzero;stroke:#000000;stroke-width:4.69999981;stroke-linecap:round;stroke-linejoin:round;stroke-miterlimit:4;stroke-opacity:1;stroke-dasharray:none;stroke-dashoffset:0"
       id="path2776"
       d="m 560.80411,253.92191 c 5.34531,-2.16735 10.68001,-6.17161 16.66545,-5.39396 4.99831,2.6989 2.33482,8.35737 0.63392,12.36137 -2.78232,5.95634 -5.29236,12.05977 -8.42803,17.84239 -3.2652,5.49751 -4.8008,4.27446 -13.06665,8.23022 0,0 9.32108,-6.51529 9.32108,-6.51529 l 0,0 c -15.18202,9.66676 -9.16237,7.06174 -6.56257,2.8858 3.3256,-5.64454 5.66373,-11.83285 8.48779,-17.73527 1.29062,-2.96392 4.79091,-8.61426 0.40386,-10.48306 -5.90899,-0.0901 -10.99287,3.81268 -16.39048,5.74986 0,0 8.93563,-6.94206 8.93563,-6.94206 z" />
    <path
       style="fill:#000000;fill-opacity:1;fill-rule:nonzero;stroke:#000000;stroke-width:4.69999981;stroke-linecap:round;stroke-linejoin:round;stroke-miterlimit:4;stroke-opacity:1;stroke-dasharray:none;stroke-dashoffset:0"
       id="path2778"
       d="m 588.64639,278.75526 c -1.60331,-5.71892 -0.76455,-11.27367 3.1103,-15.78881 6.39245,-4.14489 14.38407,-11.32573 16.52383,-0.80219 -0.32597,5.68617 -3.10704,11.00284 -7.19594,14.8613 -12.66152,7.24788 -7.56535,5.62582 -14.19105,7.48551 0,0 8.941,-6.92962 8.941,-6.92962 l 0,0 c 4.71257,-1.71026 2.67413,-1.12459 -5.1902,3.68046 4.26115,-3.36542 6.84453,-8.39187 7.63463,-13.77268 -1.37594,-8.75208 -11.61959,0.91514 3.92598,-8.87211 -4.21372,3.86103 -5.17456,9.23555 -3.64696,14.67939 0,0 -9.91159,5.45875 -9.91159,5.45875 z" />
  </g>
</svg>
