<?xml version="1.0" encoding="UTF-8" standalone="no"?>
<!-- Created with Inkscape (http://www.inkscape.org/) -->
<svg
   xmlns:dc="http://purl.org/dc/elements/1.1/"
   xmlns:cc="http://creativecommons.org/ns#"
   xmlns:rdf="http://www.w3.org/1999/02/22-rdf-syntax-ns#"
   xmlns:svg="http://www.w3.org/2000/svg"
   xmlns="http://www.w3.org/2000/svg"
   xmlns:sodipodi="http://sodipodi.sourceforge.net/DTD/sodipodi-0.dtd"
   xmlns:inkscape="http://www.inkscape.org/namespaces/inkscape"
   width="450.09897"
   height="506.71259"
   id="svg2"
   sodipodi:version="0.32"
   inkscape:version="0.46+devel"
   sodipodi:docname="somestupiddrawing.svg"
   inkscape:output_extension="org.inkscape.output.svg.inkscape"
   version="1.0">
  <defs
     id="defs4">
    <inkscape:perspective
       sodipodi:type="inkscape:persp3d"
       inkscape:vp_x="0 : 526.18109 : 1"
       inkscape:vp_y="0 : 1000 : 0"
       inkscape:vp_z="744.09448 : 526.18109 : 1"
       inkscape:persp3d-origin="372.04724 : 350.78739 : 1"
       id="perspective10" />
    <inkscape:perspective
       id="perspective2710"
       inkscape:persp3d-origin="0.5 : 0.33333333 : 1"
       inkscape:vp_z="1 : 0.5 : 1"
       inkscape:vp_y="0 : 1000 : 0"
       inkscape:vp_x="0 : 0.5 : 1"
       sodipodi:type="inkscape:persp3d" />
    <inkscape:perspective
       id="perspective3515"
       inkscape:persp3d-origin="0.5 : 0.33333333 : 1"
       inkscape:vp_z="1 : 0.5 : 1"
       inkscape:vp_y="0 : 1000 : 0"
       inkscape:vp_x="0 : 0.5 : 1"
       sodipodi:type="inkscape:persp3d" />
    <inkscape:perspective
       id="perspective3537"
       inkscape:persp3d-origin="0.5 : 0.33333333 : 1"
       inkscape:vp_z="1 : 0.5 : 1"
       inkscape:vp_y="0 : 1000 : 0"
       inkscape:vp_x="0 : 0.5 : 1"
       sodipodi:type="inkscape:persp3d" />
    <inkscape:perspective
       id="perspective3565"
       inkscape:persp3d-origin="0.5 : 0.33333333 : 1"
       inkscape:vp_z="1 : 0.5 : 1"
       inkscape:vp_y="0 : 1000 : 0"
       inkscape:vp_x="0 : 0.5 : 1"
       sodipodi:type="inkscape:persp3d" />
    <inkscape:perspective
       id="perspective3596"
       inkscape:persp3d-origin="0.5 : 0.33333333 : 1"
       inkscape:vp_z="1 : 0.5 : 1"
       inkscape:vp_y="0 : 1000 : 0"
       inkscape:vp_x="0 : 0.5 : 1"
       sodipodi:type="inkscape:persp3d" />
  </defs>
  <sodipodi:namedview
     id="base"
     pagecolor="#ffffff"
     bordercolor="#666666"
     borderopacity="1.0"
     inkscape:pageopacity="0.0"
     inkscape:pageshadow="2"
     inkscape:zoom="0.35"
     inkscape:cx="-296.19749"
     inkscape:cy="-8.9285697"
     inkscape:document-units="px"
     inkscape:current-layer="layer1"
     showgrid="false"
     inkscape:window-width="1280"
     inkscape:window-height="712"
     inkscape:window-x="-5"
     inkscape:window-y="-3" />
  <metadata
     id="metadata7">
    <rdf:RDF>
      <cc:Work
         rdf:about="">
        <dc:format>image/svg+xml</dc:format>
        <dc:type
           rdf:resource="http://purl.org/dc/dcmitype/StillImage" />
        <dc:title></dc:title>
      </cc:Work>
    </rdf:RDF>
  </metadata>
  <g
     inkscape:label="Layer 1"
     inkscape:groupmode="layer"
     id="layer1"
     transform="translate(-96.911773,-16.721033)">
    <path
       sodipodi:type="arc"
       style="fill:#000000;fill-opacity:1;stroke:#000000;stroke-width:3;stroke-linecap:round;stroke-linejoin:round;stroke-miterlimit:4;stroke-opacity:1;stroke-dasharray:none;stroke-dashoffset:24.6"
       id="path2733"
       sodipodi:cx="134.28572"
       sodipodi:cy="129.50504"
       sodipodi:rx="25.714285"
       sodipodi:ry="25.714285"
       d="m 160.00001,129.50504 c 0,14.19428 -11.52,25.71428 -25.71429,25.71428 -14.19428,0 -25.71428,-11.52 -25.71428,-25.71428 0,-14.19429 11.52,-25.71429 25.71428,-25.71429 14.19429,0 25.71429,11.52 25.71429,25.71429 z"
       transform="matrix(0.68503936,0,0,0.68503936,33.723288,32.21756)" />
    <path
       sodipodi:type="arc"
       style="fill:#000000;fill-opacity:1;stroke:#000000;stroke-width:3;stroke-linecap:round;stroke-linejoin:round;stroke-miterlimit:4;stroke-opacity:1;stroke-dasharray:none;stroke-dashoffset:24.6"
       id="path2733-8"
       sodipodi:cx="134.28572"
       sodipodi:cy="129.50504"
       sodipodi:rx="25.714285"
       sodipodi:ry="25.714285"
       d="m 160.00001,129.50504 c 0,14.19428 -11.52,25.71428 -25.71429,25.71428 -14.19428,0 -25.71428,-11.52 -25.71428,-25.71428 0,-14.19429 11.52,-25.71429 25.71428,-25.71429 14.19429,0 25.71429,11.52 25.71429,25.71429 z"
       transform="matrix(0.68503936,0,0,0.68503936,205.43757,31.646136)" />
    <path
       sodipodi:type="arc"
       style="fill:#000000;fill-opacity:1;stroke:#000000;stroke-width:3;stroke-linecap:round;stroke-linejoin:round;stroke-miterlimit:4;stroke-opacity:1;stroke-dasharray:none;stroke-dashoffset:24.6"
       id="path2733-8-4"
       sodipodi:cx="134.28572"
       sodipodi:cy="129.50504"
       sodipodi:rx="25.714285"
       sodipodi:ry="25.714285"
       d="m 160.00001,129.50504 c 0,14.19428 -11.52,25.71428 -25.71429,25.71428 -14.19428,0 -25.71428,-11.52 -25.71428,-25.71428 0,-14.19429 11.52,-25.71429 25.71428,-25.71429 14.19429,0 25.71429,11.52 25.71429,25.71429 z"
       transform="matrix(0.68503936,0,0,0.68503936,399.43757,33.646136)" />
    <path
       style="fill:#000000;fill-opacity:1;fill-rule:nonzero;stroke:#000000;stroke-width:3;stroke-linecap:round;stroke-linejoin:round;stroke-miterlimit:4;stroke-opacity:1;stroke-dasharray:none;stroke-dashoffset:24.6"
       id="path3555"
       d="m 132.56475,124.98811 c 4.88957,0.0211 9.77918,0.007 14.66877,0.005 3.28749,-0.004 6.57498,-0.009 9.86247,-0.007 3.38595,0.32127 6.50178,-1.06048 9.75392,-1.76628 3.9595,-0.93785 8.08812,-0.5414 12.03116,-1.43549 3.78788,-1.12001 7.643,-1.84233 11.57042,-2.22566 3.80769,-0.2865 7.62774,-0.29522 11.44384,-0.30418 4.08258,0.002 8.16514,0.0154 12.24772,0.0161 3.70975,0.008 7.41952,0.002 11.12928,0.003 3.64609,0.003 7.29218,5e-4 10.93827,0.002 3.13562,-0.002 6.27125,-0.006 9.40687,-0.004 3.27745,-5.2e-4 6.5549,6.4e-4 9.83234,0.004 3.9225,-5.1e-4 7.84499,9e-4 11.76748,0.001 4.32088,0.003 8.64175,2.5e-4 12.96262,0.003 4.39782,-0.007 8.79564,0.004 13.19345,-0.001 4.80955,0.0949 9.63481,-0.28924 14.40692,0.37648 5.29065,1.05037 10.63268,1.75296 16.00715,2.18022 5.08911,0.32167 10.19148,0.31316 15.2885,0.32608 4.97011,-0.74839 9.85151,-1.85638 14.85854,-2.37941 4.24142,-0.43005 8.5084,-0.48915 12.76782,-0.5184 3.31018,-0.0189 6.62042,-0.004 9.93063,-0.004 3.26683,-0.35131 6.23515,0.48377 9.33744,1.37171 3.63752,1.06099 7.40171,1.27524 11.16322,1.42025 4.28708,0.12543 8.57656,0.10622 12.86495,0.10147 4.3507,-0.005 8.70137,-0.0135 13.05206,-0.0135 4.49891,-0.34218 8.83509,0.91737 13.2127,1.76193 5.35142,0.71668 10.69175,0.98309 16.01754,1.91666 6.48557,1.40882 13.15225,1.29027 19.68754,2.2501 6.57761,1.14072 13.20855,1.89796 19.86581,2.36205 4.04909,0.24423 8.10584,0.29034 12.16108,0.29365 3.41279,0.31368 6.87259,-1.52354 -0.92967,2.16783 0.0455,-0.19085 0.0909,-0.38171 0.13637,-0.57256 0,0 5.12109,-2.48052 5.12109,-2.48052 l 0,0 c -0.0369,0.212 -0.0739,0.424 -0.11077,0.636 -4.8298,3.38005 -4.27185,3.76644 -8.79173,3.57073 -4.05118,-0.0227 -8.10344,-0.0834 -12.14722,-0.35163 -6.6565,-0.5009 -13.28294,-1.30077 -19.86696,-2.40835 -6.55009,-0.89733 -13.215,-0.85456 -19.70639,-2.25762 -5.33606,-0.9119 -10.70448,-1.10522 -16.05189,-1.90699 -4.35168,-0.85559 -8.67288,-2.01405 -13.14813,-1.67459 -4.35275,0.006 -8.70549,0.009 -13.05824,0.0181 -4.29109,0.003 -8.58382,0.02 -12.87307,-0.12403 -3.79841,-0.15813 -7.59156,-0.41791 -11.25619,-1.51852 -3.07174,-0.87135 -6.04273,-1.54825 -9.26407,-1.23311 -3.3002,-0.0166 -6.60049,-0.024 -9.90071,-0.01 -4.24443,0.0415 -8.49544,0.10804 -12.72069,0.55325 -5.0063,0.56143 -9.89089,1.73724 -14.88889,2.32477 -5.1094,-0.0136 -10.2251,-0.004 -15.32516,-0.35477 -5.37491,-0.45859 -10.712,-1.20436 -16.0132,-2.20764 -4.7715,-0.56465 -9.58186,-0.21995 -14.38007,-0.30705 -4.39685,-0.005 -8.79371,0.006 -13.19057,-0.001 -4.3237,0.003 -8.64739,8e-5 -12.97109,0.003 -3.92368,4.2e-4 -7.84737,0.002 -11.77106,0.001 -3.28142,0.004 -6.56285,0.005 -9.84427,0.004 -3.13229,0.002 -6.26459,-0.002 -9.39689,-0.004 -3.64749,10e-4 -7.29498,-7.2e-4 -10.94247,10e-4 -3.70765,2.4e-4 -7.4153,-0.008 -11.12295,-0.009 -4.08261,-0.0106 -8.16525,-0.0178 -12.24786,-0.0128 -3.80519,0.0155 -7.6158,0.0245 -11.41017,0.34907 -3.91287,0.42478 -7.74304,1.20575 -11.53366,2.26871 -3.9706,0.73558 -8.07293,0.49387 -12.02583,1.44449 -3.26247,0.76021 -6.42968,2.01754 -9.84162,1.67577 -3.28089,0.002 -6.56179,-0.003 -9.84268,-0.007 -4.89426,-0.002 -9.78856,-0.016 -14.68281,0.005 0,0 4.56901,-3.31957 4.56901,-3.31957 z" />
    <path
       sodipodi:type="arc"
       style="fill:#000000;fill-opacity:1;stroke:#000000;stroke-width:3;stroke-linecap:round;stroke-linejoin:round;stroke-miterlimit:4;stroke-opacity:1;stroke-dasharray:none;stroke-dashoffset:24.6"
       id="path2733-3"
       sodipodi:cx="134.28572"
       sodipodi:cy="129.50504"
       sodipodi:rx="25.714285"
       sodipodi:ry="25.714285"
       d="m 160.00001,129.50504 c 0,14.19428 -11.52,25.71428 -25.71429,25.71428 -14.19428,0 -25.71428,-11.52 -25.71428,-25.71428 0,-14.19429 11.52,-25.71429 25.71428,-25.71429 14.19429,0 25.71429,11.52 25.71429,25.71429 z"
       transform="matrix(0.68503936,0,0,0.68503936,39.43757,234.64613)" />
    <path
       sodipodi:type="arc"
       style="fill:#000000;fill-opacity:1;stroke:#000000;stroke-width:3;stroke-linecap:round;stroke-linejoin:round;stroke-miterlimit:4;stroke-opacity:1;stroke-dasharray:none;stroke-dashoffset:24.6"
       id="path2733-8-1"
       sodipodi:cx="134.28572"
       sodipodi:cy="129.50504"
       sodipodi:rx="25.714285"
       sodipodi:ry="25.714285"
       d="m 160.00001,129.50504 c 0,14.19428 -11.52,25.71428 -25.71429,25.71428 -14.19428,0 -25.71428,-11.52 -25.71428,-25.71428 0,-14.19429 11.52,-25.71429 25.71428,-25.71429 14.19429,0 25.71429,11.52 25.71429,25.71429 z"
       transform="matrix(0.68503936,0,0,0.68503936,211.15185,234.07471)" />
    <path
       sodipodi:type="arc"
       style="fill:#000000;fill-opacity:1;stroke:#000000;stroke-width:3;stroke-linecap:round;stroke-linejoin:round;stroke-miterlimit:4;stroke-opacity:1;stroke-dasharray:none;stroke-dashoffset:24.6"
       id="path2733-8-4-4"
       sodipodi:cx="134.28572"
       sodipodi:cy="129.50504"
       sodipodi:rx="25.714285"
       sodipodi:ry="25.714285"
       d="m 160.00001,129.50504 c 0,14.19428 -11.52,25.71428 -25.71429,25.71428 -14.19428,0 -25.71428,-11.52 -25.71428,-25.71428 0,-14.19429 11.52,-25.71429 25.71428,-25.71429 14.19429,0 25.71429,11.52 25.71429,25.71429 z"
       transform="matrix(0.68503936,0,0,0.68503936,405.15185,236.07471)" />
    <path
       style="fill:#000000;fill-opacity:1;fill-rule:nonzero;stroke:#000000;stroke-width:3;stroke-linecap:round;stroke-linejoin:round;stroke-miterlimit:4;stroke-opacity:1;stroke-dasharray:none;stroke-dashoffset:24.6"
       id="path3555-9"
       d="m 138.27903,327.41668 c 4.88957,0.0211 9.77918,0.007 14.66877,0.005 3.28749,-0.004 6.57498,-0.009 9.86247,-0.007 3.38595,0.32127 6.50178,-1.06048 9.75392,-1.76628 3.9595,-0.93785 8.08812,-0.5414 12.03116,-1.43549 3.78788,-1.12001 7.643,-1.84233 11.57042,-2.22566 3.80769,-0.2865 7.62774,-0.29522 11.44384,-0.30418 4.08258,0.002 8.16514,0.0154 12.24772,0.0161 3.70975,0.008 7.41952,0.002 11.12928,0.003 3.64609,0.003 7.29218,5e-4 10.93827,0.002 3.13562,-0.002 6.27125,-0.006 9.40687,-0.004 3.27745,-5.2e-4 6.5549,6.4e-4 9.83234,0.004 3.9225,-5.1e-4 7.84499,9e-4 11.76748,0.001 4.32088,0.003 8.64175,2.5e-4 12.96262,0.003 4.39782,-0.007 8.79564,0.004 13.19345,-10e-4 4.80955,0.0949 9.63481,-0.28924 14.40692,0.37648 5.29065,1.05037 10.63268,1.75296 16.00715,2.18022 5.08911,0.32167 10.19148,0.31316 15.2885,0.32608 4.97011,-0.74839 9.85151,-1.85638 14.85854,-2.37941 4.24142,-0.43005 8.5084,-0.48915 12.76782,-0.5184 3.31018,-0.0189 6.62042,-0.004 9.93063,-0.004 3.26683,-0.35131 6.23515,0.48377 9.33744,1.37171 3.63752,1.06099 7.40171,1.27524 11.16322,1.42025 4.28708,0.12543 8.57656,0.10622 12.86495,0.10147 4.3507,-0.005 8.70137,-0.0135 13.05206,-0.0135 4.49891,-0.34218 8.83509,0.91737 13.2127,1.76193 5.35142,0.71668 10.69175,0.98309 16.01754,1.91666 6.48557,1.40882 13.15225,1.29027 19.68754,2.2501 6.57761,1.14072 13.20855,1.89796 19.86581,2.36205 4.04909,0.24423 8.10584,0.29034 12.16108,0.29365 3.41279,0.31368 6.87259,-1.52354 -0.92967,2.16783 0.0455,-0.19085 0.0909,-0.38171 0.13637,-0.57256 0,0 5.12109,-2.48052 5.12109,-2.48052 l 0,0 c -0.0369,0.212 -0.0739,0.424 -0.11077,0.636 -4.8298,3.38005 -4.27185,3.76644 -8.79173,3.57073 -4.05118,-0.0227 -8.10344,-0.0834 -12.14722,-0.35163 -6.6565,-0.5009 -13.28294,-1.30077 -19.86696,-2.40835 -6.55009,-0.89733 -13.215,-0.85456 -19.70639,-2.25762 -5.33606,-0.9119 -10.70448,-1.10522 -16.05189,-1.90699 -4.35168,-0.85559 -8.67288,-2.01405 -13.14813,-1.67459 -4.35275,0.006 -8.70549,0.009 -13.05824,0.0181 -4.29109,0.003 -8.58382,0.02 -12.87307,-0.12403 -3.79841,-0.15813 -7.59156,-0.41791 -11.25619,-1.51852 -3.07174,-0.87135 -6.04273,-1.54825 -9.26407,-1.23311 -3.3002,-0.0166 -6.60049,-0.024 -9.90071,-0.01 -4.24443,0.0415 -8.49544,0.10804 -12.72069,0.55325 -5.0063,0.56143 -9.89089,1.73724 -14.88889,2.32477 -5.1094,-0.0136 -10.2251,-0.004 -15.32516,-0.35477 -5.37491,-0.45859 -10.712,-1.20436 -16.0132,-2.20764 -4.7715,-0.56465 -9.58186,-0.21995 -14.38007,-0.30705 -4.39685,-0.005 -8.79371,0.006 -13.19057,-10e-4 -4.3237,0.003 -8.64739,8e-5 -12.97109,0.003 -3.92368,4.2e-4 -7.84737,0.002 -11.77106,10e-4 -3.28142,0.004 -6.56285,0.005 -9.84427,0.004 -3.13229,0.002 -6.26459,-0.002 -9.39689,-0.004 -3.64749,0.001 -7.29498,-7.2e-4 -10.94247,0.001 -3.70765,2.4e-4 -7.4153,-0.008 -11.12295,-0.009 -4.08261,-0.0106 -8.16525,-0.0178 -12.24786,-0.0128 -3.80519,0.0155 -7.6158,0.0245 -11.41017,0.34907 -3.91287,0.42478 -7.74304,1.20575 -11.53366,2.26871 -3.9706,0.73558 -8.07293,0.49387 -12.02583,1.44449 -3.26247,0.76021 -6.42968,2.01754 -9.84162,1.67577 -3.28089,0.002 -6.56179,-0.003 -9.84268,-0.007 -4.89426,-0.002 -9.78856,-0.016 -14.68281,0.005 0,0 4.56901,-3.31957 4.56901,-3.31957 z" />
    <path
       sodipodi:type="arc"
       style="fill:#000000;fill-opacity:1;stroke:#000000;stroke-width:3;stroke-linecap:round;stroke-linejoin:round;stroke-miterlimit:4;stroke-opacity:1;stroke-dasharray:none;stroke-dashoffset:24.6"
       id="path2733-3-2"
       sodipodi:cx="134.28572"
       sodipodi:cy="129.50504"
       sodipodi:rx="25.714285"
       sodipodi:ry="25.714285"
       d="m 160.00001,129.50504 c 0,14.19428 -11.52,25.71428 -25.71429,25.71428 -14.19428,0 -25.71428,-11.52 -25.71428,-25.71428 0,-14.19429 11.52,-25.71429 25.71428,-25.71429 14.19429,0 25.71429,11.52 25.71429,25.71429 z"
       transform="matrix(0.68503936,0,0,0.68503936,39.43757,414.64613)" />
    <path
       sodipodi:type="arc"
       style="fill:#000000;fill-opacity:1;stroke:#000000;stroke-width:3;stroke-linecap:round;stroke-linejoin:round;stroke-miterlimit:4;stroke-opacity:1;stroke-dasharray:none;stroke-dashoffset:24.6"
       id="path2733-8-1-0"
       sodipodi:cx="134.28572"
       sodipodi:cy="129.50504"
       sodipodi:rx="25.714285"
       sodipodi:ry="25.714285"
       d="m 160.00001,129.50504 c 0,14.19428 -11.52,25.71428 -25.71429,25.71428 -14.19428,0 -25.71428,-11.52 -25.71428,-25.71428 0,-14.19429 11.52,-25.71429 25.71428,-25.71429 14.19429,0 25.71429,11.52 25.71429,25.71429 z"
       transform="matrix(0.68503936,0,0,0.68503936,211.15185,414.07471)" />
    <path
       sodipodi:type="arc"
       style="fill:#000000;fill-opacity:1;stroke:#000000;stroke-width:3;stroke-linecap:round;stroke-linejoin:round;stroke-miterlimit:4;stroke-opacity:1;stroke-dasharray:none;stroke-dashoffset:24.6"
       id="path2733-8-4-4-6"
       sodipodi:cx="134.28572"
       sodipodi:cy="129.50504"
       sodipodi:rx="25.714285"
       sodipodi:ry="25.714285"
       d="m 160.00001,129.50504 c 0,14.19428 -11.52,25.71428 -25.71429,25.71428 -14.19428,0 -25.71428,-11.52 -25.71428,-25.71428 0,-14.19429 11.52,-25.71429 25.71428,-25.71429 14.19429,0 25.71429,11.52 25.71429,25.71429 z"
       transform="matrix(0.68503936,0,0,0.68503936,405.15185,416.07471)" />
    <path
       style="fill:#000000;fill-opacity:1;fill-rule:nonzero;stroke:#000000;stroke-width:3;stroke-linecap:round;stroke-linejoin:round;stroke-miterlimit:4;stroke-opacity:1;stroke-dasharray:none;stroke-dashoffset:24.6"
       id="path3555-9-8"
       d="m 138.27903,507.41668 c 4.88957,0.0211 9.77918,0.007 14.66877,0.005 3.28749,-0.004 6.57498,-0.009 9.86247,-0.007 3.38595,0.32127 6.50178,-1.06048 9.75392,-1.76628 3.9595,-0.93785 8.08812,-0.5414 12.03116,-1.43549 3.78788,-1.12001 7.643,-1.84233 11.57042,-2.22566 3.80769,-0.2865 7.62774,-0.29522 11.44384,-0.30418 4.08258,0.002 8.16514,0.0154 12.24772,0.0161 3.70975,0.008 7.41952,0.002 11.12928,0.003 3.64609,0.003 7.29218,5e-4 10.93827,0.002 3.13562,-0.002 6.27125,-0.006 9.40687,-0.004 3.27745,-5.2e-4 6.5549,6.4e-4 9.83234,0.004 3.9225,-5.1e-4 7.84499,9e-4 11.76748,0.001 4.32088,0.003 8.64175,2.5e-4 12.96262,0.003 4.39782,-0.007 8.79564,0.004 13.19345,-10e-4 4.80955,0.0949 9.63481,-0.28924 14.40692,0.37648 5.29065,1.05037 10.63268,1.75296 16.00715,2.18022 5.08911,0.32167 10.19148,0.31316 15.2885,0.32608 4.97011,-0.74839 9.85151,-1.85638 14.85854,-2.37941 4.24142,-0.43005 8.5084,-0.48915 12.76782,-0.5184 3.31018,-0.0189 6.62042,-0.004 9.93063,-0.004 3.26683,-0.35131 6.23515,0.48377 9.33744,1.37171 3.63752,1.06099 7.40171,1.27524 11.16322,1.42025 4.28708,0.12543 8.57656,0.10622 12.86495,0.10147 4.3507,-0.005 8.70137,-0.0135 13.05206,-0.0135 4.49891,-0.34218 8.83509,0.91737 13.2127,1.76193 5.35142,0.71668 10.69175,0.98309 16.01754,1.91666 6.48557,1.40882 13.15225,1.29027 19.68754,2.2501 6.57761,1.14072 13.20855,1.89796 19.86581,2.36205 4.04909,0.24423 8.10584,0.29034 12.16108,0.29365 3.41279,0.31368 6.87259,-1.52354 -0.92967,2.16783 0.0455,-0.19085 0.0909,-0.38171 0.13637,-0.57256 0,0 5.12109,-2.48052 5.12109,-2.48052 l 0,0 c -0.0369,0.212 -0.0739,0.424 -0.11077,0.636 -4.8298,3.38005 -4.27185,3.76644 -8.79173,3.57073 -4.05118,-0.0227 -8.10344,-0.0834 -12.14722,-0.35163 -6.6565,-0.5009 -13.28294,-1.30077 -19.86696,-2.40835 -6.55009,-0.89733 -13.215,-0.85456 -19.70639,-2.25762 -5.33606,-0.9119 -10.70448,-1.10522 -16.05189,-1.90699 -4.35168,-0.85559 -8.67288,-2.01405 -13.14813,-1.67459 -4.35275,0.006 -8.70549,0.009 -13.05824,0.0181 -4.29109,0.003 -8.58382,0.02 -12.87307,-0.12403 -3.79841,-0.15813 -7.59156,-0.41791 -11.25619,-1.51852 -3.07174,-0.87135 -6.04273,-1.54825 -9.26407,-1.23311 -3.3002,-0.0166 -6.60049,-0.024 -9.90071,-0.01 -4.24443,0.0415 -8.49544,0.10804 -12.72069,0.55325 -5.0063,0.56143 -9.89089,1.73724 -14.88889,2.32477 -5.1094,-0.0136 -10.2251,-0.004 -15.32516,-0.35477 -5.37491,-0.45859 -10.712,-1.20436 -16.0132,-2.20764 -4.7715,-0.56465 -9.58186,-0.21995 -14.38007,-0.30705 -4.39685,-0.005 -8.79371,0.006 -13.19057,-10e-4 -4.3237,0.003 -8.64739,8e-5 -12.97109,0.003 -3.92368,4.2e-4 -7.84737,0.002 -11.77106,10e-4 -3.28142,0.004 -6.56285,0.005 -9.84427,0.004 -3.13229,0.002 -6.26459,-0.002 -9.39689,-0.004 -3.64749,0.001 -7.29498,-7.2e-4 -10.94247,0.001 -3.70765,2.4e-4 -7.4153,-0.008 -11.12295,-0.009 -4.08261,-0.0106 -8.16525,-0.0178 -12.24786,-0.0128 -3.80519,0.0155 -7.6158,0.0245 -11.41017,0.34907 -3.91287,0.42478 -7.74304,1.20575 -11.53366,2.26871 -3.9706,0.73558 -8.07293,0.49387 -12.02583,1.44449 -3.26247,0.76021 -6.42968,2.01754 -9.84162,1.67577 -3.28089,0.002 -6.56179,-0.003 -9.84268,-0.007 -4.89426,-0.002 -9.78856,-0.016 -14.68281,0.005 0,0 4.56901,-3.31957 4.56901,-3.31957 z" />
    <path
       style="fill:#000000;fill-opacity:1;fill-rule:nonzero;stroke:#000000;stroke-width:3;stroke-linecap:round;stroke-linejoin:round;stroke-miterlimit:4;stroke-opacity:1;stroke-dasharray:none;stroke-dashoffset:24.6"
       id="path3619"
       d="m 116.4959,18.221033 c -1.56655,7.148758 -3.4013,14.239514 -5.13046,21.353367 -1.34292,5.181979 -3.06227,10.223223 -5.03625,15.193382 0,0 -5.0643,2.341082 -5.0643,2.341082 l 0,0 c 2.01227,-4.944758 3.7503,-9.96415 5.10164,-15.134783 1.70104,-7.096501 3.57693,-14.160273 5.02548,-21.30807 0,0 5.10389,-2.444978 5.10389,-2.444978 z" />
    <path
       style="fill:#000000;fill-opacity:1;fill-rule:nonzero;stroke:#000000;stroke-width:3;stroke-linecap:round;stroke-linejoin:round;stroke-miterlimit:4;stroke-opacity:1;stroke-dasharray:none;stroke-dashoffset:24.6"
       id="path3621"
       d="m 272.14635,49.91257 c 5.40674,-3.164392 11.21269,-5.616431 17.00437,-7.986749 4.50531,-1.688065 9.26968,-2.2752 7.34128,4.097171 -3.6637,6.08673 -7.53603,12.136665 -11.93309,17.726751 -0.83226,2.053908 -7.33482,6.756359 -5.22638,9.263683 4.13915,0.267855 8.63582,-0.934316 12.84465,-1.421236 4.46106,-0.87561 9.16268,-0.142099 13.55826,-1.25703 -3.23027,2.316513 7.53035,-3.858313 3.83273,-1.45271 -7.61428,4.953704 -3.97126,2.226476 -2.85658,1.369322 0,0 5.25902,-2.115649 5.25902,-2.115649 l 0,0 c -3.09757,2.66384 -6.85178,4.432797 -10.72824,5.617752 -4.44556,0.87563 -9.07924,0.381191 -13.55382,1.18073 -4.18705,0.503605 -9.21803,2.23826 -13.23783,0.98771 -2.46209,-3.340921 3.58545,-7.30487 4.98553,-9.9827 4.4373,-5.500901 8.16016,-11.571678 11.95467,-17.524903 2.31058,-6.040302 -2.89808,-4.355134 -6.63669,-3.025356 -5.80416,2.387575 -11.59507,4.891321 -17.02362,8.055385 0,0 4.41574,-3.532171 4.41574,-3.532171 z" />
    <path
       style="fill:#000000;fill-opacity:1;fill-rule:nonzero;stroke:#000000;stroke-width:3;stroke-linecap:round;stroke-linejoin:round;stroke-miterlimit:4;stroke-opacity:1;stroke-dasharray:none;stroke-dashoffset:24.6"
       id="path3623"
       d="m 483.99332,30.702395 c 7.02012,0.380712 13.94174,-0.308247 20.87842,-1.305461 4.10993,-0.648126 8.59601,-2.02902 11.09207,2.139828 -0.33159,3.133975 0.40512,5.517142 1.59548,8.393083 1.41688,3.284293 1.24122,6.33683 -0.0372,9.613015 -1.78118,4.186933 -4.87663,7.719067 -8.06275,10.914672 -6.85231,5.716225 -14.97507,8.314745 -23.58175,9.718361 0,0 4.44936,-3.345594 4.44936,-3.345594 l 0,0 c 2.69611,-0.453535 4.99401,-0.773531 7.64641,-1.499677 1.15577,-0.316412 2.27393,-0.756867 3.4109,-1.135301 -0.61868,0.4621 -2.62013,1.49791 -1.85603,1.386299 0.82525,-0.120545 3.98011,-2.443539 4.74302,-2.980785 3.21096,-3.083367 6.28738,-6.613097 8.11942,-10.696066 1.40127,-3.083003 1.57527,-6.062152 0.23903,-9.213804 -1.18226,-2.841928 -2.17962,-5.193741 -1.56439,-8.315556 -2.30705,-3.850411 -6.987,-2.077661 -10.6615,-1.635701 -6.97163,0.963771 -13.93142,1.581094 -20.97947,1.282263 0,0 4.569,-3.319576 4.569,-3.319576 z" />
    <path
       style="fill:#000000;fill-opacity:1;fill-rule:nonzero;stroke:#000000;stroke-width:3;stroke-linecap:round;stroke-linejoin:round;stroke-miterlimit:4;stroke-opacity:1;stroke-dasharray:none;stroke-dashoffset:24.6"
       id="path3625"
       d="m 98.411773,235.27659 c 6.316097,-5.37994 13.589377,-9.611 21.256087,-12.75334 6.0606,-2.74871 12.36447,-5.11737 19.0748,-5.19524 4.48464,0.10355 8.08238,1.74184 8.63042,6.43818 -0.0562,5.2106 -3.74089,9.27635 -6.92811,13.07147 -1.64246,2.89935 -8.27806,5.65873 -7.67149,9.44501 3.34924,1.9574 7.97152,1.6993 11.69721,1.25973 5.02455,-0.89148 10.04695,-1.7221 15.12672,-2.21759 2.71083,-0.5711 4.89899,0.0807 7.19921,1.48305 0.17236,0.11999 0.34471,0.23999 0.51706,0.35998 0,0 -4.79684,3.06119 -4.79684,3.06119 l 0,0 c -0.16379,-0.11148 -0.32757,-0.22297 -0.49136,-0.33446 -2.22841,-1.31739 -4.37124,-1.71502 -6.95117,-1.21538 -5.07136,0.5017 -10.07965,1.38203 -15.10642,2.2071 -3.91168,0.35963 -8.99877,0.73068 -12.19701,-1.92512 -0.99402,-4.15371 5.5102,-6.96047 7.51217,-9.93778 3.14598,-3.62011 6.85241,-7.64391 7.08729,-12.64791 -0.32099,-4.47041 -4.07407,-5.68122 -8.1486,-5.74624 -6.66253,0.24407 -12.89883,2.61381 -18.92765,5.34325 -1.13149,0.47826 -2.19019,1.1925 -3.39447,1.43478 -0.57571,0.11582 1.95203,-1.29375 1.4233,-1.03821 -3.55708,1.71914 -6.59074,4.34131 -9.68411,6.74242 0,0 -5.227037,2.16511 -5.227037,2.16511 z" />
    <path
       style="fill:#000000;fill-opacity:1;fill-rule:nonzero;stroke:#000000;stroke-width:3;stroke-linecap:round;stroke-linejoin:round;stroke-miterlimit:4;stroke-opacity:1;stroke-dasharray:none;stroke-dashoffset:24.6"
       id="path3627"
       d="m 305.68792,223.8118 c 1.43053,7.74196 1.82955,15.62871 2.16579,23.48 0.18404,5.00992 0.26854,10.0227 0.35053,15.03509 0,0 -4.99012,2.54988 -4.99012,2.54988 l 0,0 c -0.0343,-5.01773 -0.0958,-10.0357 -0.28215,-15.05051 -0.33692,-7.79947 -0.7008,-15.64691 -2.22207,-23.32245 0,0 4.97802,-2.69201 4.97802,-2.69201 z" />
    <path
       style="fill:#000000;fill-opacity:1;fill-rule:nonzero;stroke:#000000;stroke-width:3;stroke-linecap:round;stroke-linejoin:round;stroke-miterlimit:4;stroke-opacity:1;stroke-dasharray:none;stroke-dashoffset:24.6"
       id="path3631"
       d="m 455.42189,224.98811 c 7.09588,-0.20831 14.14622,-1.41235 21.22295,-2.06779 6.15437,-0.86392 12.02771,-0.5073 17.77599,1.84592 3.4103,1.99116 5.00403,5.04178 4.82925,8.93555 -1.17872,6.91608 -7.87443,9.57777 -13.32781,12.71659 -5.67381,2.98629 -11.85317,4.65249 -17.80103,6.93009 -1.76402,0.71869 -3.50232,1.50014 -5.20755,2.34887 -0.30804,0.15332 -1.22379,0.62988 -0.91809,0.47193 5.70062,-2.94542 3.39742,-3.16891 6.46883,-2.55487 4.42478,0.30909 8.87257,0.12747 13.30471,0.0715 4.47631,-0.19389 9.0271,0.69933 12.41099,3.75784 2.74151,2.86966 2.35796,6.24591 1.08764,9.68636 -2.95682,5.73121 -8.49049,9.48887 -13.86081,12.75721 -7.88938,5.65747 -16.44881,8.22044 -25.79526,9.97534 0,0 4.4224,-3.34145 4.4224,-3.34145 l 0,0 c 6.39142,-1.22411 11.31528,-2.87982 17.29817,-5.31219 0.40157,-0.16326 -0.73993,0.45184 -1.1099,0.67776 5.34453,-3.1432 10.83821,-6.8559 13.93394,-12.3863 1.30551,-3.19979 1.84592,-6.35862 -0.77253,-9.07837 -3.35184,-2.9216 -7.80412,-3.61083 -12.14796,-3.43345 -4.47444,0.0609 -8.98291,0.30421 -13.43958,-0.15996 -5.10412,-1.59198 7.53532,-6.41593 8.73928,-6.93642 5.96774,-2.20081 12.09333,-3.97654 17.74016,-6.99097 -0.72033,0.43791 -1.4349,1.74204 -2.16099,1.31373 -0.70559,-0.41621 1.39266,-0.87214 2.02337,-1.39491 2.03688,-1.68829 3.56175,-3.98536 4.0628,-6.58917 0.34803,-3.65985 -1.24001,-6.52327 -4.45394,-8.33631 -5.68562,-2.27685 -11.52152,-2.4786 -17.57556,-1.66013 -7.10799,0.66714 -14.18447,1.88128 -21.31847,2.07321 0,0 4.569,-3.31957 4.569,-3.31957 z" />
    <path
       style="fill:#000000;fill-opacity:1;fill-rule:nonzero;stroke:#000000;stroke-width:3;stroke-linecap:round;stroke-linejoin:round;stroke-miterlimit:4;stroke-opacity:1;stroke-dasharray:none;stroke-dashoffset:24.6"
       id="path3633"
       d="m 143.14049,406.616 c 2.82269,6.01215 3.74538,12.56553 4.39504,19.10385 0.75057,8.83563 0.79725,17.64945 -0.11412,26.46354 -0.43993,3.71358 -0.84565,7.431 -1.24395,11.14922 0,0 -5.00594,2.48191 -5.00594,2.48191 l 0,0 c 0.42078,-3.72295 0.83464,-7.44673 1.28448,-11.16631 0.93835,-8.77716 0.91609,-17.55364 0.15125,-26.3554 -0.64384,-6.46183 -1.52016,-12.96245 -4.38069,-18.8789 0,0 4.91393,-2.79791 4.91393,-2.79791 z" />
    <path
       style="fill:#000000;fill-opacity:1;fill-rule:nonzero;stroke:#000000;stroke-width:3;stroke-linecap:round;stroke-linejoin:round;stroke-miterlimit:4;stroke-opacity:1;stroke-dasharray:none;stroke-dashoffset:24.6"
       id="path3635"
       d="m 275.88599,432.38039 c 7.33748,-5.26247 15.5365,-8.9322 23.88844,-12.22878 5.6461,-2.02745 11.44854,-3.59667 17.44665,-2.75332 4.2971,0.4716 7.37041,2.90474 9.55077,6.48693 1.78096,3.71613 0.97995,7.08877 -1.26791,10.33326 -2.55941,3.51822 -6.26921,5.76419 -9.7732,8.20997 -18.15001,10.46005 -3.89836,2.24403 -3.57972,2.0666 3.95788,-2.20393 -3.8757,2.18673 -4.84787,3.0091 -0.0145,0.52029 3.98482,0.37077 4.82802,0.38213 3.7621,0.0149 7.52425,-0.006 11.2863,-0.0251 2.85007,0.46972 5.97643,1.49397 6.19459,4.75254 -1.36472,4.29497 -5.18752,7.2559 -8.71009,9.78423 -7.89609,6.00522 -16.64023,10.8497 -25.65997,14.94678 -5.75962,2.41065 -11.66526,3.87673 -17.81056,4.83136 0,0 4.43937,-3.33295 4.43937,-3.33295 l 0,0 c 6.10944,-0.98235 11.98965,-2.50614 17.7039,-4.94061 7.54251,-3.49983 9.04136,-4.14067 16.12409,-9.45081 3.50578,-2.46635 7.09858,-5.21609 8.86404,-9.25005 0.0842,-2.97497 -3.30799,-3.69037 -5.71271,-4.01953 -3.76321,0.009 -7.5265,0.0394 -11.28969,0.0153 -1.23888,-0.0179 -5.62575,0.54755 -5.50953,-1.51482 1.85244,-2.19082 17.93611,-10.37035 8.43583,-5.18943 3.48681,-2.43173 7.22412,-4.60315 9.84716,-8.03631 2.27791,-3.00881 3.24809,-6.13849 1.55024,-9.73607 -2.09994,-3.48779 -5.11112,-5.6616 -9.26113,-6.07299 -5.92551,-0.72843 -11.67302,0.93569 -17.22406,2.94278 -8.30792,3.31829 -8.95349,3.14332 -14.26512,6.70289 0,0 -5.24784,2.08699 -5.24784,2.08699 z" />
    <path
       style="fill:#000000;fill-opacity:1;fill-rule:nonzero;stroke:#000000;stroke-width:3;stroke-linecap:round;stroke-linejoin:round;stroke-miterlimit:4;stroke-opacity:1;stroke-dasharray:none;stroke-dashoffset:24.6"
       id="path3637"
       d="m 462.88351,458.05542 c -1.78476,-6.41392 0.77367,-12.13642 3.9887,-17.57281 6.45418,-7.41122 15.29141,-12.5426 24.43972,-15.92929 6.37773,-1.81935 12.87528,-2.81413 19.28464,-0.78473 4.95375,2.74414 7.21718,7.46747 7.77214,12.90466 0.40895,7.5278 -3.04527,13.80092 -7.70514,19.40963 -5.76205,6.5442 -12.80649,11.58864 -20.26325,16.00258 -4.56375,2.73568 -9.38506,4.95643 -14.17041,7.25392 -0.74659,0.35844 -1.49322,0.71679 -2.23985,1.07513 -0.56452,0.27092 -2.22748,1.13984 -1.69361,0.81264 1.29423,-0.7932 2.65308,-1.47579 3.97961,-2.21368 0.21628,-0.53035 -2.31695,0.64007 0.35165,-0.86229 2.21221,-1.24542 7.16261,-1.94277 9.63573,-2.47317 8.8662,-2.48265 17.98274,-3.60915 27.13323,-4.34019 7.96308,-0.50666 15.94394,-0.61827 23.92078,-0.66133 2.53027,-0.005 5.06069,-0.0196 7.59094,0.002 2.65217,-0.14646 -4.29445,4.46963 -4.60641,1.71692 0,0 5.04463,-2.63364 5.04463,-2.63364 l 0,0 c 0.20139,2.37746 -2.83731,4.34936 -5.05345,4.26042 -2.50111,-0.0463 -5.00283,-0.0493 -7.50428,-0.0522 -7.94949,0.0264 -15.90402,0.11546 -23.83832,0.65358 -9.15478,0.75004 -18.26093,1.95022 -27.13024,4.43271 -2.49172,0.56556 -7.3382,2.51098 -9.69624,2.56228 -0.37326,0.008 -0.72145,-0.19254 -1.08217,-0.28881 -0.0165,-0.083 -0.033,-0.16603 -0.0495,-0.24904 2.86361,-1.68811 12.24588,-7.29677 15.62852,-8.11299 0.58113,-0.14023 -0.9377,0.74177 -1.40655,1.11266 7.47978,-4.34159 14.53295,-9.34298 20.33296,-15.82757 4.67155,-5.43512 8.19871,-11.58307 7.85855,-18.99084 -0.46134,-5.22115 -2.62846,-9.79228 -7.44729,-12.32895 -6.34776,-1.86312 -12.77335,-0.82505 -19.02929,1.05274 -1.17386,0.45042 -2.27956,1.15576 -3.52157,1.35128 -0.49094,0.0773 1.57785,-1.18658 1.12837,-0.97454 -4.83428,2.28059 -8.95568,6.00983 -12.56975,9.8625 -3.202,5.26377 -5.91693,10.86112 -4.1048,17.1387 0,0 -4.97802,2.69201 -4.97802,2.69201 z" />
  </g>
</svg>
