<?xml version="1.0" encoding="UTF-8" standalone="no"?>
<!-- Created with Inkscape (http://www.inkscape.org/) -->
<svg
   xmlns:dc="http://purl.org/dc/elements/1.1/"
   xmlns:cc="http://creativecommons.org/ns#"
   xmlns:rdf="http://www.w3.org/1999/02/22-rdf-syntax-ns#"
   xmlns:svg="http://www.w3.org/2000/svg"
   xmlns="http://www.w3.org/2000/svg"
   xmlns:sodipodi="http://sodipodi.sourceforge.net/DTD/sodipodi-0.dtd"
   xmlns:inkscape="http://www.inkscape.org/namespaces/inkscape"
   width="837.11285"
   height="762.73993"
   id="svg2"
   sodipodi:version="0.32"
   inkscape:version="0.46+devel"
   version="1.0"
   sodipodi:docname="tmp1d1.svg"
   inkscape:output_extension="org.inkscape.output.svg.inkscape">
  <defs
     id="defs4">
    <inkscape:perspective
       sodipodi:type="inkscape:persp3d"
       inkscape:vp_x="0 : 526.18109 : 1"
       inkscape:vp_y="0 : 1000 : 0"
       inkscape:vp_z="744.09448 : 526.18109 : 1"
       inkscape:persp3d-origin="372.04724 : 350.78739 : 1"
       id="perspective10" />
  </defs>
  <sodipodi:namedview
     id="base"
     pagecolor="#ffffff"
     bordercolor="#666666"
     borderopacity="1.0"
     inkscape:pageopacity="0.0"
     inkscape:pageshadow="2"
     inkscape:zoom="0.35"
     inkscape:cx="-215.51187"
     inkscape:cy="192.26629"
     inkscape:document-units="px"
     inkscape:current-layer="layer1"
     showgrid="false"
     inkscape:window-width="1280"
     inkscape:window-height="712"
     inkscape:window-x="-5"
     inkscape:window-y="-3" />
  <metadata
     id="metadata7">
    <rdf:RDF>
      <cc:Work
         rdf:about="">
        <dc:format>image/svg+xml</dc:format>
        <dc:type
           rdf:resource="http://purl.org/dc/dcmitype/StillImage" />
        <dc:title></dc:title>
      </cc:Work>
    </rdf:RDF>
  </metadata>
  <g
     inkscape:label="Layer 1"
     inkscape:groupmode="layer"
     id="layer1"
     transform="translate(-16.22616,38.111481)">
    <path
       style="fill:#000000;fill-opacity:1;stroke:#000000;stroke-width:4.69999981;stroke-linecap:round;stroke-linejoin:round;stroke-miterlimit:4;stroke-opacity:1;stroke-dasharray:none;stroke-dashoffset:0"
       id="path2694"
       d="m 183.77004,1.7467883 c -0.41426,11.6029987 0.85123,23.1585067 1.64535,34.7181937 0.40762,12.500136 1.90545,24.916337 2.81179,37.3828 0.88821,14.793545 2.41306,29.542958 4.00263,44.275678 2.33615,17.44727 4.51121,34.92198 6.29786,52.43502 2.49118,18.78525 3.82073,37.67076 4.54423,56.59688 0.18955,20.75418 0.95527,41.47539 1.8831,62.20732 1.01814,22.81714 2.65709,45.59219 3.49059,68.42036 0.79219,25.55815 2.19163,51.08858 2.93102,76.65075 0.64401,26.32114 0.72967,52.65138 0.79462,78.97896 -0.40986,24.61744 0.8603,49.20379 1.73216,73.7961 0.78295,22.99767 0.98612,46.0091 1.11018,69.01803 -0.0967,17.79198 0.62728,35.65308 3.803,53.18455 1.89057,6.32782 0.85209,3.41761 3.00619,8.76886 0,0 -7.3437,4.09818 -7.3437,4.09818 l 0,0 c -2.14268,-5.47978 -1.10851,-2.50332 -2.99583,-8.96574 -3.10178,-17.6098 -3.8358,-35.5314 -3.71414,-53.38998 -0.10931,-23.00786 -0.28687,-46.0182 -1.06224,-69.01517 -0.85751,-24.6053 -2.15087,-49.2041 -1.71658,-73.83398 -0.0497,-26.32362 -0.11858,-52.65022 -0.77051,-78.96727 -0.72981,-25.55347 -2.16731,-51.07221 -2.97557,-76.62076 -0.83662,-22.8205 -2.49202,-45.58693 -3.52342,-68.39572 -0.94098,-20.72673 -1.74499,-41.44138 -1.92601,-62.19139 -0.72747,-18.9058 -2.02599,-37.77607 -4.54491,-56.53841 -1.77258,-17.50838 -3.96674,-34.97529 -6.3281,-52.41299 -1.6046,-14.73229 -3.17659,-29.479549 -4.06839,-44.274104 -0.91611,-12.465532 -2.4416,-24.878343 -2.8267,-37.379489 -0.78605,-11.558768 -2.04378,-23.104205 -1.7967,-34.7048169 0,0 7.54008,-3.8418618 7.54008,-3.8418618 z" />
    <path
       style="fill:#000000;fill-opacity:1;stroke:#000000;stroke-width:4.69999981;stroke-linecap:round;stroke-linejoin:round;stroke-miterlimit:4;stroke-opacity:1;stroke-dasharray:none;stroke-dashoffset:0"
       id="path2696"
       d="m 25.525002,484.55198 c 10.272993,1.46415 20.653877,2.10894 31.022252,1.83722 16.119433,-1.18887 32.169333,-3.00394 48.320426,-3.89775 21.87888,-1.0545 43.73037,-2.45388 65.62651,-3.17062 25.74879,-1.54002 51.51646,-2.55317 77.30398,-3.10752 28.98097,-0.61924 57.95053,-0.59167 86.92168,0.31685 30.96238,1.79872 61.93801,3.31226 92.90379,5.04556 31.04661,1.55922 62.07316,3.50403 93.09562,5.48419 29.47672,2.3529 58.94757,4.76527 88.41539,7.22545 27.75458,2.51211 55.60502,3.45316 83.45629,3.98401 25.51901,0.0731 51.03468,0.77814 76.50207,2.41755 20.02262,1.03069 39.84926,4.03966 59.71063,6.59599 7.37448,0.94077 14.77655,1.63313 22.18535,2.23303 0,0 -6.85615,4.892 -6.85615,4.892 l 0,0 c -7.36437,-0.67032 -14.72369,-1.40682 -22.05659,-2.36923 -19.80593,-2.61185 -39.58717,-5.59112 -59.56065,-6.63696 -25.44473,-1.61876 -50.93442,-2.3471 -76.42993,-2.42538 -27.85242,-0.55577 -55.70276,-1.51156 -83.4572,-4.04619 -29.45681,-2.45233 -58.9131,-4.89877 -88.3797,-7.23202 -31.01606,-1.98604 -62.03702,-3.92864 -93.07745,-5.48948 -30.97065,-1.73589 -61.95171,-3.24528 -92.92097,-5.00862 -28.97763,-0.88256 -57.95467,-0.90314 -86.94071,-0.2508 -25.80423,0.57639 -51.58758,1.62038 -77.35363,3.15513 -21.91669,0.74019 -43.78893,2.16378 -65.688561,3.23979 -16.188173,0.94076 -32.273905,2.83056 -48.439205,3.95028 -10.446659,0.2065 -20.897165,-0.4341 -31.252084,-1.86712 0,0 6.948842,-4.87536 6.948842,-4.87536 z" />
    <path
       style="fill:#000000;fill-opacity:1;stroke:#000000;stroke-width:4.69999981;stroke-linecap:round;stroke-linejoin:round;stroke-miterlimit:4;stroke-opacity:1;stroke-dasharray:none;stroke-dashoffset:0"
       id="path2698"
       d="m 202.5576,489.25797 c 3.63631,-10.15384 8.75256,-19.68703 13.83533,-29.17001 7.40885,-13.67272 16.35492,-26.34449 25.22432,-39.08113 9.98619,-14.55216 20.44274,-28.77501 30.96621,-42.94114 12.07027,-15.75775 24.91285,-30.91366 37.73178,-46.06431 14.18381,-17.39142 29.27133,-34.00918 44.20257,-50.75406 16.6336,-18.34087 33.73136,-36.26441 50.97326,-54.03295 19.48445,-20.25951 38.76124,-40.71915 58.30072,-60.92457 20.6952,-21.45821 41.56103,-42.72593 62.81901,-63.62808 22.21976,-22.159668 44.88576,-43.852296 67.61257,-65.488361 21.74761,-20.776801 43.97037,-41.0309773 66.16322,-61.32852 3.09729,-2.850351 6.19457,-5.700702 9.29185,-8.551054 0,0 7.46558,-3.055266 7.46558,-3.055266 l 0,0 c -3.12038,2.860428 -6.24077,5.720856 -9.36115,8.581285 -22.20455,20.3040189 -44.45203,40.550348 -66.21316,61.331699 -22.71944,21.633005 -45.39845,43.301222 -67.59977,65.46922 -21.24812,20.893407 -42.11961,42.136107 -62.79395,63.596227 -19.54325,20.1819 -38.79075,40.65054 -58.257,60.90781 -17.23363,17.74048 -34.28493,35.6729 -50.92264,53.97468 -14.92509,16.73307 -30.01212,33.33511 -44.1811,50.72206 -12.80494,15.12999 -25.60988,30.28339 -37.69955,45.99406 -10.50995,14.15571 -20.96876,28.3569 -30.93755,42.90123 -8.84651,12.71291 -17.81059,25.33111 -25.21262,38.97084 -5.04267,9.41354 -10.15004,18.87316 -13.7275,28.96332 0,0 -7.68043,3.60702 -7.68043,3.60702 z" />
    <path
       style="fill:#d40000;fill-opacity:1;stroke:#ff0000;stroke-width:4.69999981;stroke-linecap:round;stroke-linejoin:round;stroke-miterlimit:4;stroke-opacity:1;stroke-dasharray:none;stroke-dashoffset:0"
       id="path3476"
       d="m 311.42215,481.24241 c 2.40431,-3.16168 9.92592,-13.81347 14.07715,-9.84905 1.55016,2.64993 -0.60862,5.5252 -2.0613,7.73007 -7.04837,7.37057 -10.92038,5.51014 -9.39099,-1.26452 2.48151,-6.36156 6.79427,-7.59013 13.0094,-10.35236 0.11964,3.55921 -2.99144,6.8672 -5.2231,9.40308 -2.66448,2.25487 -12.08451,13.02684 -13.67195,7.27937 1.13328,-4.405 8.28935,-9.97111 12.22731,-8.46534 1.68964,2.7561 -0.0365,6.04965 -1.22966,8.71066 -0.28857,0.54679 -0.56807,1.09847 -0.86572,1.64038 -0.28766,0.52372 -1.3123,2.93304 -1.9389,3.22303 -8.58811,3.97455 -9.12695,4.61586 -6.94859,2.44815 1.07299,-0.67801 -0.10346,-1.65137 -0.56069,-2.72557 0,0 7.42308,-4.1656 7.42308,-4.1656 l 0,0 c 0.44213,1.04483 2.12057,2.9288 1.04085,3.65954 -12.24671,10.23941 -8.8153,3.95532 -5.8448,-0.57617 1.01625,-2.06019 2.6556,-5.04643 1.92011,-7.34935 -2.98291,0.11658 -0.31478,0.10328 5.57096,-3.71996 1.32709,-0.86205 -3.93272,2.44377 -3.19088,3.44295 -0.4462,0.13899 -0.41473,0.11645 0.11512,0.0151 -2.14262,1.29793 -4.28524,2.59587 -6.42785,3.8938 -1.78831,0.99375 6.55457,-4.68723 4.60976,-4.05217 2.29116,-2.39789 4.15803,-5.26692 5.822,-8.03352 13.37117,-7.93985 4.03219,-3.19215 1.79918,2.05533 -0.22747,0.90815 -0.64931,1.7979 -0.64272,2.73408 0.004,0.60909 1.12063,1.32697 0.64637,1.70918 -1.86056,1.49943 -9.57089,6.27414 -6.0249,3.8846 1.19971,-1.71503 3.58212,-4.39127 2.62492,-6.57723 -2.73184,-0.94137 -0.77752,-0.16698 6.14169,-4.07557 0.40632,-0.22952 -0.73516,0.5768 -1.07677,0.89473 -1.62901,1.51609 -2.8193,3.36325 -4.15137,5.13063 0,0 -7.77771,3.3517 -7.77771,3.3517 z" />
    <path
       style="fill:#d40000;fill-opacity:1;stroke:#ff0000;stroke-width:4.69999981;stroke-linecap:round;stroke-linejoin:round;stroke-miterlimit:4;stroke-opacity:1;stroke-dasharray:none;stroke-dashoffset:0"
       id="path3478"
       d="m 451.46553,480.33543 c -3.21268,2.26284 -12.91126,10.87322 -12.7056,4.82775 1.16552,-2.95789 3.3703,-5.39119 5.45955,-7.73969 4.73925,-4.04899 11.93187,-8.18258 8.83691,-0.63107 -1.44594,3.19944 -3.9412,5.38997 -6.71222,7.39971 0.59771,1.07472 -13.79713,9.53544 -11.02964,0.77344 2.4969,-4.58649 8.37412,-11.13261 13.90143,-9.81442 2.87655,1.54028 2.81728,4.75593 2.28436,7.56343 -1.19602,3.30656 -2.95468,6.31298 -5.27871,8.94219 -5.34315,3.68288 -12.18383,7.92555 -10.26445,-0.6272 1.25507,-3.35614 3.63194,-6.21582 6.27982,-8.57864 4.59442,-2.9746 12.05265,-9.96897 11.29604,-1.69933 -1.15841,3.91813 -3.17696,7.56998 -5.34313,11.01636 -2.18413,3.56655 -11.84172,11.14768 -10.86189,3.83024 0.21882,-3.15789 1.92727,-5.8599 2.83783,-8.79663 -1.95434,4.36047 11.41548,-7.2731 4.38602,-0.44105 -3.31386,2.31587 -0.51179,0.39299 -8.80515,5.13914 0,0 6.645,-5.33653 6.645,-5.33653 l 0,0 c -6.84274,3.98795 -8.78756,5.05379 -5.73716,3.36897 3.12589,-2.03697 8.14438,-10.50852 11.19064,-6.41156 -0.58531,2.97414 -2.87189,5.5633 -2.86846,8.75553 -0.0802,0.32393 -0.15094,0.65034 -0.24054,0.97179 -0.0452,0.16229 -0.22463,0.32117 -0.16361,0.47819 0.0411,0.10563 0.43499,-0.0872 0.33888,-0.0272 -12.06998,7.54027 -6.43198,4.51625 -4.45972,1.86001 2.26042,-3.2753 4.03247,-6.93175 5.48765,-10.63269 0.15081,-1.3909 0.41126,-2.41577 0.15857,-2.42855 -0.27686,-0.014 -1.05321,0.25996 -0.82536,0.10206 1.54116,-1.06804 9.32832,-5.80516 4.8108,-2.91535 -2.72875,2.11409 -5.0144,4.96183 -6.46189,8.10253 -2.2735,6.44004 6.65596,0.94156 -5.23216,7.55243 2.39454,-2.50108 4.13441,-5.34216 5.48246,-8.53589 0.51489,-2.19717 1.05966,-5.31412 -1.5914,-6.33116 -3.21094,0.15995 -1.90756,0.25159 4.97859,-3.60436 0.50593,-0.2833 -0.94752,0.67646 -1.36256,1.08138 -1.13713,1.10937 -2.03859,2.51789 -2.87023,3.85752 -3.62382,6.81593 10.91109,-3.49618 -4.55381,5.90051 2.72293,-1.96826 5.37506,-3.83944 6.86045,-6.99406 2.65623,-5.02089 -1.51737,-1.10431 7.68512,-6.76397 0.32639,-0.20073 -0.65755,0.39365 -0.98632,0.59047 -2.0682,2.26754 -4.18714,4.59767 -5.59164,7.34716 -1.87733,2.41551 3.13229,-1.48767 0.31471,0.3623 -11.58237,7.6048 -5.65153,3.43826 -3.12797,1.73316 0,0 7.83879,-3.24694 7.83879,-3.24694 z" />
    <path
       style="fill:#d40000;fill-opacity:1;stroke:#ff0000;stroke-width:4.69999981;stroke-linecap:round;stroke-linejoin:round;stroke-miterlimit:4;stroke-opacity:1;stroke-dasharray:none;stroke-dashoffset:0"
       id="path3480"
       d="m 592.50039,499.26779 c -3.33036,-3.01596 -5.85241,-5.75271 -4.34929,-10.37527 2.52194,-4.68279 8.47815,-10.18614 13.96501,-9.73068 2.67935,1.11592 1.22932,3.98099 0.25332,5.8643 -3.74675,6.48729 -7.4592,7.96735 -14.36,11.70595 -3.50503,-0.24206 -2.54334,-3.39086 -0.84526,-5.30504 4.07282,-2.69 10.4009,-9.79005 13.04967,-3.36067 1.52888,7.37353 0.85825,5.68092 -7.66742,8.93239 -0.3812,-3.9534 7.65373,-9.12366 8.36971,-3.16337 0.29172,3.70386 0.25099,0.56726 -7.8455,5.19687 0,0 6.87763,-5.0477 6.87763,-5.0477 l 0,0 c -6.73564,4.57418 -6.43275,7.09056 -6.58602,3.79995 -0.0467,-0.52359 -0.60958,-1.24993 -0.18925,-1.56561 10.3625,-7.78271 7.66989,-6.82835 6.95434,-3.14312 -2.56985,1.38564 -5.15646,2.74064 -7.70955,4.15693 -0.34979,0.19405 0.85626,-0.38322 0.9126,-0.77925 0.19576,-1.37613 -0.43239,-2.88804 -0.53936,-4.24232 -0.24099,-0.62772 -0.2961,-1.13051 -0.8921,-1.51368 -0.18912,-0.12159 -0.82855,-0.0623 -0.6461,-0.19371 11.44833,-8.24487 6.58647,-3.75512 3.74774,-2.30381 -1.26152,1.0171 -3.44518,3.76391 -0.27687,3.31951 -12.6593,7.84547 -2.16747,1.46477 -0.0889,-3.03659 0.58434,-0.96817 2.76248,-3.93199 0.60524,-4.30031 -3.14392,0.49131 -1.06309,0.27831 5.05828,-3.48421 0.40239,-0.24734 -0.82576,0.46162 -1.21477,0.72951 -1.47422,1.01516 -2.40433,2.34698 -3.2648,3.90508 -1.91709,4.24849 0.83476,6.71032 3.916,9.50163 0,0 -7.23435,4.43322 -7.23435,4.43322 z" />
    <path
       style="fill:#d40000;fill-opacity:1;stroke:#ff0000;stroke-width:4.69999981;stroke-linecap:round;stroke-linejoin:round;stroke-miterlimit:4;stroke-opacity:1;stroke-dasharray:none;stroke-dashoffset:0"
       id="path3482"
       d="m 727.59517,498.01421 c 3.13221,-0.46551 5.45091,0.46956 4.39062,3.94886 -4.38222,6.63265 -11.55304,6.00431 -8.46128,-0.25436 2.13499,-3.47715 10.64741,-10.38709 12.44855,-5.61634 -1.10363,5.49056 -9.22401,8.36787 -13.00489,10.50308 -3.60868,-0.442 -1.4697,-3.96377 -0.18012,-5.74748 3.32636,-3.45419 11.66883,-10.75774 15.74928,-8.98259 2.6856,2.10463 1.97027,5.30679 0.83853,8.06542 -3.48815,5.73213 -9.38113,9.22645 -15.70969,11.40782 -3.85926,-0.0401 -3.76696,-3.7065 -2.84055,-6.49572 1.44069,-4.17059 4.13087,-7.0425 7.53099,-9.66027 1.97969,-2.17677 14.21725,-9.38464 13.05895,-0.75247 -1.02777,3.98116 -4.34479,6.4727 -7.33181,8.99653 -2.72131,2.48776 -13.64169,9.40333 -10.42145,2.61983 1.76618,-2.83854 4.16264,-5.20508 6.72191,-7.32889 5.43289,-3.48264 11.51793,-8.05395 9.69861,0.34918 -1.21306,3.49297 -3.49221,6.50675 -6.0557,9.13139 -4.01455,3.108 -9.31672,8.47111 -13.34356,3.80771 0,0 7.281,-4.40185 7.281,-4.40185 l 0,0 c 0.43754,0.47837 0.77124,0.9752 1.42728,1.18654 0.30913,0.0996 1.22822,-0.10984 0.97037,0.0876 -11.05114,8.46257 -6.8593,4.08965 -4.17304,2.54088 2.68114,-2.33493 4.82615,-5.43432 6.2489,-8.67641 1.77063,-6.97211 -4.96529,-0.10005 5.8189,-7.18919 -2.58128,2.03343 -5.04892,4.28262 -6.80548,7.07236 -0.3417,0.37835 -1.40617,1.33735 -0.90756,1.23106 0.20651,-0.044 0.79962,-0.23694 0.62119,-0.12404 -1.60267,1.01402 -9.39621,5.56451 -4.91212,2.87091 2.82815,-2.49919 6.34078,-4.67093 7.51851,-8.47924 2.12007,-6.70964 -11.18257,1.98598 2.4314,-6.07905 -3.3147,2.61407 -6.30563,4.99872 -7.69245,9.23304 -0.94007,2.08488 -1.57749,5.42995 1.83304,4.83635 3.26791,-1.30323 2.79447,-1.20546 -4.22079,2.85173 -0.5154,0.29808 0.99976,-0.64859 1.47563,-1.00639 1.66471,-1.25168 2.93699,-2.77461 4.07745,-4.51398 1.06577,-2.08325 2.23686,-5.17476 -0.16902,-6.79091 -3.23331,-0.47776 -0.99845,0.046 5.14252,-3.88882 0.50182,-0.32154 -1.04297,0.57829 -1.54829,0.89432 -1.70837,1.06839 -3.14537,2.38532 -4.51966,3.85568 -0.66262,0.75204 -3.80436,4.30241 -0.9734,3.79248 -12.43473,7.51384 -2.8307,2.28996 -1.12503,-1.12609 -0.045,-0.43708 -1.6577,0.004 -1.29537,-0.24418 11.47776,-7.87324 5.82737,-4.09696 4.08853,-1.68719 -4.1302,6.27535 4.67976,-0.0861 -7.56762,7.63344 -0.18477,0.11647 0.37189,-0.22917 0.55783,-0.34375 1.45958,-2.9395 -0.99747,-2.76787 -3.41306,-2.37173 0,0 6.74195,-5.15528 6.74195,-5.15528 z" />
    <path
       style="fill:#0000ff;fill-opacity:1;stroke:#0000ff;stroke-width:4.69999981;stroke-linecap:round;stroke-linejoin:round;stroke-miterlimit:4;stroke-opacity:1;stroke-dasharray:none;stroke-dashoffset:0"
       id="path3484"
       d="m 221.88088,480.87135 c 5.52323,-0.1352 11.04781,0.12655 16.56915,0.26167 5.58671,0.13468 11.17511,0.16027 16.76316,0.17884 5.43647,0.0132 10.87296,0.0118 16.30945,0.0117 4.79974,-0.0177 9.59952,-0.002 14.39927,-0.0121 4.44972,0.16531 8.74109,0.0974 13.08028,-0.88704 5.03849,-1.20199 10.20987,-1.5548 15.36672,-1.79317 6.05948,-1.24642 12.15828,-2.06345 18.32316,-2.54452 7.1654,-0.45657 14.35015,-0.45473 21.52704,-0.4804 7.23997,-0.023 14.40437,-1.3872 21.60344,-2.10089 6.14426,-0.57302 12.31634,-0.6886 18.48277,-0.75295 4.67839,-0.0449 9.35715,-0.0321 14.03571,-0.0264 3.68102,0.004 7.36206,0.007 11.04308,4.5e-4 2.93088,-0.002 5.86176,0.003 8.79264,-0.002 3.3286,0.30463 6.54223,1.53343 9.87413,2.14381 3.31754,0.49518 6.67554,0.64329 10.02536,0.71319 1.48373,0.0225 2.96763,0.006 4.45142,-0.001 0.74035,-0.004 1.48067,-0.0116 2.22096,-0.0216 2.97052,-0.11083 -3.60957,1.96374 -7.10496,3.78206 -0.34624,-2.62558 0.48814,-4.93541 1.24554,-7.39853 1.19043,-3.76688 1.36724,-7.72719 1.53174,-11.6436 0.13964,-4.23324 0.13331,-8.46962 0.11377,-12.70458 -0.0221,-3.58999 -0.005,-7.18003 -0.0147,-10.77003 -0.004,-3.618 -0.008,-7.23599 -0.005,-10.85399 -0.004,-3.10069 -0.0128,-6.2014 -0.008,-9.30209 0.009,-3.36884 -9.2e-4,-6.73767 0.008,-10.10652 -0.0116,-3.42258 0.004,-6.84518 -0.003,-10.26776 3.4e-4,-3.45049 -0.002,-6.90097 0.002,-10.35147 -0.18885,-2.66656 -2.07959,-5.04578 -1.60686,-7.72937 3.71937,-4.27324 9.58465,-6.53252 15.06856,-7.69099 4.02543,-0.60745 8.11326,-0.62834 12.17594,-0.66205 3.67484,0.47103 6.96521,-0.92792 10.44171,-1.80858 2.85994,-0.75627 5.82459,-0.92687 8.76812,-1.01468 2.8527,-0.0652 5.70671,-0.0494 8.55996,-0.039 3.26602,0.009 6.53205,0.0132 9.79808,0.0205 3.51193,-0.006 7.02387,0.003 10.5358,-0.002 2.9525,-0.0137 5.90501,-1.4e-4 8.85751,-0.003 3.67895,-0.41207 6.99871,0.40047 10.48902,1.39312 3.55868,0.95774 7.22653,1.22806 10.89145,1.39148 3.91313,-0.0366 7.65727,0.006 11.44917,0.99589 3.05878,0.99193 6.21909,1.52667 9.41608,1.78151 2.67373,0.15291 5.35253,0.16975 8.02981,0.16389 1.98441,-7.6e-4 3.96874,-0.0145 5.95313,-0.02 3.4564,0.0739 6.13656,-1.06916 -5.07723,3.53516 -0.5602,0.23002 0.37981,-1.15387 0.491,-1.74916 0.30963,-2.62129 -0.10377,-5.25517 0.39135,-7.84814 1.29402,-3.30275 1.70329,-6.80863 2.50256,-10.23441 1.26149,-3.88491 2.064,-7.87478 2.53883,-11.92511 0.30597,-3.06641 0.33595,-6.15057 0.34022,-9.22935 0.003,-3.40314 0.005,-6.80634 -0.008,-10.20946 0.0586,-4.50062 -0.20619,-9.0058 0.33355,-13.47948 1.19465,-4.65314 1.47082,-9.4809 2.50773,-14.15239 1.45993,-4.57233 2.1448,-9.29421 2.56179,-14.05822 1.25086,-4.8415 1.90403,-9.80693 2.99403,-14.67742 1.32881,-4.94004 2.26036,-9.95403 2.72299,-15.04544 0.32932,-4.64607 0.33356,-9.30645 0.34768,-13.96163 0.004,-5.43947 -0.006,-10.87893 -0.0109,-16.31839 -0.005,-5.7135 -0.005,-11.427 -0.006,-17.1405 0.0495,-5.63903 -1.25412,-11.19193 -2.05244,-16.75792 -0.60033,-4.5399 -0.74511,-9.12323 -0.81486,-13.69697 -0.0539,-3.78569 -0.0286,-7.57194 -0.034,-11.3579 -0.36284,-3.36371 0.34423,-6.3963 1.25794,-9.58986 0.93274,-3.09161 1.29883,-6.29652 1.50359,-9.50595 0.14502,-3.1873 0.13547,-6.37914 0.12393,-9.56895 -0.006,-3.5572 10e-4,-7.11444 -0.01,-10.67164 -0.003,-3.51956 -0.006,-7.03912 -0.003,-10.55868 -0.004,-3.50696 -0.004,-7.01394 0.004,-10.5209 0.0644,-3.55329 0.17088,-7.006901 -0.76484,-10.453152 -1.11932,-3.664519 -1.59338,-7.45225 -1.89586,-11.25629 -0.20835,-3.264553 -0.21597,-6.536106 -0.22993,-9.80572 0.006,-3.154505 0.0144,-6.30898 0.0232,-9.463478 0.0117,-4.002077 0.0203,-8.004249 0.01,-12.00634 -0.003,-3.870698 0.008,-7.741428 -0.002,-11.612115 -0.017,-3.145173 0.0184,-6.290925 -0.0201,-9.435933 -0.007,-1.57027 -0.01,-3.140402 -0.009,-4.710646 0.55409,-2.327949 1.58593,-4.513139 2.50405,-6.713457 0,0 7.65863,-3.527545 7.65863,-3.527545 l 0,0 c -0.88555,2.113076 -1.71141,4.248112 -2.56506,6.369824 3.1e-4,1.573392 -0.003,3.146674 -0.009,4.720093 -0.0381,3.151829 -0.003,6.304381 -0.02,9.456373 -0.01,3.871419 10e-4,7.74288 -0.002,11.61431 -0.011,4.000521 -0.003,8.001107 0.001,12.001633 10e-4,3.151417 -0.005,6.302821 -0.009,9.454226 -0.008,3.254221 2.8e-4,6.510751 0.18018,9.760997 0.2631,3.7545 0.71326,7.497108 1.82173,11.110414 0.97838,3.52509 1.00247,7.010421 0.86212,10.658156 0.008,3.50555 0.008,7.01112 0.004,10.51666 0.004,3.51942 7.7e-4,7.03884 0.002,10.55827 -0.005,3.55509 0.0123,7.1102 0.0218,10.66528 -0.004,3.2044 0.0337,6.41127 -0.10155,9.61351 -0.1689,3.26188 -0.51629,6.52796 -1.43613,9.6746 -0.85305,3.15051 -1.79239,6.04778 -1.35204,9.38184 -0.0207,3.78629 -0.0246,7.57269 1.5e-4,11.35898 0.0673,4.54525 0.17076,9.10005 0.74799,13.61487 0.75408,5.61304 2.10536,11.19448 2.08873,16.86975 4.7e-4,5.71295 9.7e-4,11.42589 0.007,17.13884 0.007,5.43673 0.0203,10.87345 0.0318,16.31017 8e-5,4.67662 0.003,9.35653 -0.31443,14.0251 -0.42446,5.13296 -1.33764,10.18451 -2.68651,15.15966 -1.1533,4.81815 -1.61192,9.78973 -3.02353,14.56108 -0.42604,4.79193 -0.98827,9.57717 -2.5071,14.16948 -1.18822,4.6128 -1.21788,9.47861 -2.56345,14.08138 -0.62741,4.42563 -0.27016,8.89525 -0.33734,13.35687 -0.001,3.40098 0.0214,6.80193 0.0298,10.20289 -0.0159,3.11046 -0.0258,6.22479 -0.31631,9.32487 -0.47749,4.07971 -1.18616,8.1328 -2.5211,12.03133 -0.86285,3.39797 -1.05393,6.94486 -2.45662,10.20928 -0.74449,2.51321 -0.11678,5.1801 -0.39927,7.77499 -0.57128,4.51465 -5.53975,7.33354 -9.94792,6.97007 -1.98232,0.003 -3.96463,0.009 -5.94695,0.012 -2.68476,-0.012 -5.37026,-0.0602 -8.04985,-0.24071 -3.21837,-0.31304 -6.3847,-0.93062 -9.47312,-1.90446 -3.75277,-0.90343 -7.51354,-0.78083 -11.35729,-0.85687 -3.70951,-0.19784 -7.41541,-0.53602 -11.00682,-1.54629 -3.43495,-0.97613 -6.76569,-1.52678 -10.36343,-1.19453 -2.94988,-0.003 -5.89978,0.0109 -8.84965,-0.003 -3.50902,-0.005 -7.01806,0.005 -10.52708,-0.005 -3.27306,0.004 -6.54614,0.002 -9.81919,-0.007 -2.84675,-10e-4 -5.69433,-0.0231 -8.54014,0.0662 -2.91111,0.13229 -5.83036,0.3588 -8.64789,1.15805 -3.48374,0.9564 -6.86578,2.03047 -10.54358,1.62394 -4.03712,0.0554 -8.10874,0.0726 -12.09042,0.81794 -0.55806,0.13098 -1.12111,0.24233 -1.6742,0.39296 -2.71442,0.73922 -3.33221,1.28247 -3.16342,1.17736 11.08006,-6.90013 6.89756,-3.57081 4.21352,-2.66106 -1.06663,2.39246 1.40828,5.06039 1.44476,7.54171 0.004,3.44985 0.002,6.8997 0.002,10.34955 -0.007,3.42365 0.008,6.84733 -0.003,10.27099 0.009,3.36612 -9.8e-4,6.7322 0.008,10.09831 0.005,3.10325 -0.004,6.20652 -0.008,9.30976 0.003,3.61847 -7.7e-4,7.23693 6.8e-4,10.8554 -0.004,3.58958 0.0236,7.17912 0.017,10.76871 -0.0113,4.24857 0.008,8.49828 -0.11318,12.74555 -0.17122,3.96368 -0.25492,7.99124 -1.41781,11.81786 -0.6818,2.41115 -1.70824,4.56197 -1.31019,7.12969 -2.41276,1.71796 -4.82553,3.43593 -7.2383,5.1539 -0.0559,-9.9e-4 -0.1145,-0.006 -0.17081,-0.003 -0.731,-0.002 -1.46201,-0.002 -2.19301,6.3e-4 -1.48478,0.007 -2.96965,0.0148 -4.45399,-0.0352 -3.36253,-0.14263 -6.73611,-0.28964 -10.06078,-0.84983 -3.28002,-0.64028 -6.47216,-1.89917 -9.80714,-1.99697 -2.92832,-0.005 -5.85666,-3.5e-4 -8.78499,-0.004 -3.67184,-0.0102 -7.34371,-0.0136 -11.01556,-0.0216 -4.66357,-0.009 -9.32718,-0.0248 -13.99072,0.007 -6.14335,0.0725 -12.29205,0.20323 -18.4117,0.79312 -7.20495,0.73097 -14.38061,2.08506 -21.63638,2.02558 -7.17161,0.0312 -14.35149,0.0499 -21.5093,0.54685 -6.17741,0.51645 -12.26377,1.48637 -18.36698,2.54427 -5.14391,0.27103 -10.29071,0.69561 -15.30989,1.92438 -4.36685,0.91354 -8.73683,0.81942 -13.18672,0.74062 -4.79078,-0.009 -9.58158,0.008 -14.37235,-0.007 -5.44018,0.002 -10.88038,0.007 -16.32054,-0.008 -5.58919,-0.0239 -11.17841,-0.072 -16.76632,-0.19972 -5.49169,-0.15257 -11.01911,-0.51448 -16.49816,-0.0291 0,0 6.74194,-5.15528 6.74194,-5.15528 z" />
  </g>
</svg>
