<?xml version="1.0" encoding="UTF-8" standalone="no"?>
<!-- Created with Inkscape (http://www.inkscape.org/) -->

<svg
   xmlns:dc="http://purl.org/dc/elements/1.1/"
   xmlns:cc="http://creativecommons.org/ns#"
   xmlns:rdf="http://www.w3.org/1999/02/22-rdf-syntax-ns#"
   xmlns:svg="http://www.w3.org/2000/svg"
   xmlns="http://www.w3.org/2000/svg"
   xmlns:sodipodi="http://sodipodi.sourceforge.net/DTD/sodipodi-0.dtd"
   xmlns:inkscape="http://www.inkscape.org/namespaces/inkscape"
   width="1074.417"
   height="738.8595"
   id="svg2"
   version="1.1"
   inkscape:version="0.47pre4 r22446"
   sodipodi:docname="cc2.svg">
  <defs
     id="defs4">
    <inkscape:perspective
       sodipodi:type="inkscape:persp3d"
       inkscape:vp_x="0 : 526.18109 : 1"
       inkscape:vp_y="0 : 1000 : 0"
       inkscape:vp_z="744.09448 : 526.18109 : 1"
       inkscape:persp3d-origin="372.04724 : 350.78739 : 1"
       id="perspective10" />
  </defs>
  <sodipodi:namedview
     id="base"
     pagecolor="#ffffff"
     bordercolor="#666666"
     borderopacity="1.0"
     inkscape:pageopacity="0.0"
     inkscape:pageshadow="2"
     inkscape:zoom="0.35"
     inkscape:cx="831.70401"
     inkscape:cy="263.6986"
     inkscape:document-units="px"
     inkscape:current-layer="layer1"
     showgrid="false"
     inkscape:window-width="1280"
     inkscape:window-height="726"
     inkscape:window-x="0"
     inkscape:window-y="25"
     inkscape:window-maximized="1" />
  <metadata
     id="metadata7">
    <rdf:RDF>
      <cc:Work
         rdf:about="">
        <dc:format>image/svg+xml</dc:format>
        <dc:type
           rdf:resource="http://purl.org/dc/dcmitype/StillImage" />
        <dc:title></dc:title>
      </cc:Work>
    </rdf:RDF>
  </metadata>
  <g
     inkscape:label="Layer 1"
     inkscape:groupmode="layer"
     id="layer1"
     transform="translate(456.70401,-57.201286)">
    <path
       style="color:#000000;fill:#000000;fill-opacity:1;fill-rule:nonzero;stroke:#000000;stroke-width:5.69999981;stroke-linecap:butt;stroke-linejoin:miter;stroke-miterlimit:4;stroke-opacity:1;stroke-dasharray:none;stroke-dashoffset:0;marker:none;visibility:visible;display:inline;overflow:visible;enable-background:accumulate"
       id="path2818"
       d="m -331.03897,244.75156 c 8.83078,7.61497 19.58782,10.82178 30.79813,12.99741 17.71101,2.42734 35.67563,2.60199 53.51831,2.13088 23.87915,-0.83999 47.73797,-1.94482 71.55552,-3.87263 26.97553,-2.04072 53.86671,-5.19585 80.647844,-8.99588 22.877182,-3.02699 45.649874,-6.7859 68.534879,-9.75265 14.16305,-1.84406 28.4539164,-2.00413 42.629059,-3.66145 5.238057,0.23834 11.904634,-3.37962 16.819707,-0.71577 2.861646,2.75678 2.272235,7.49412 1.897387,11.09325 -0.991417,8.96573 -3.026088,17.75722 -4.852391,26.57801 -2.783427,11.99875 -5.556315,24.00012 -8.21656,36.02674 -2.753596,11.87322 -5.783589,23.67902 -8.603599,35.53596 -2.047801,9.02866 -4.312357,17.97989 -5.7658634,27.13098 -0.3448227,4.33584 -3.1388064,8.57339 -2.9881051,12.93983 2.0741839,1.3095 6.2521795,-1.21499 8.3930895,-1.92808 6.613482,-2.61272 13.436999,-4.76633 20.347539,-6.44772 6.829468,-1.81408 13.609044,-1.85699 20.543957,-0.91907 4.565779,0.31112 8.186532,2.49932 10.898218,6.08189 2.127235,3.50438 1.133712,6.68817 -0.575648,10.06796 -2.736864,4.66243 -7.2639,7.87448 -11.558107,10.99744 -4.514371,3.55782 -9.159028,6.89283 -13.911594,10.11852 -0.530923,0.53409 -5.783836,3.11834 -3.578854,4.00143 2.985806,-0.003 5.721875,0.78793 8.5639,1.60776 3.406234,1.55753 5.903827,4.19938 7.434854,7.57234 1.107046,3.33993 1.201298,6.86332 1.256209,10.34609 0.32182,4.1089 -1.799242,7.2812 -4.176753,10.39701 -3.214188,4.01924 -7.672184,6.9491 -12.596385,8.41828 -2.9215,1.10016 -6.221838,0.13596 -9.104183,1.14815 0.902674,-0.0506 1.835161,-0.38745 2.708022,-0.15187 0.883353,0.23841 1.115593,1.4992 1.883453,1.99674 1.411216,0.91441 2.819508,1.58565 4.187079,2.61787 3.212828,2.23525 4.535434,5.37488 5.189185,9.0888 0.882501,5.04996 -0.002,9.69228 -2.367696,14.17062 -3.587363,5.44812 -8.499074,8.81016 -14.097509,11.92517 -4.020369,1.93672 -8.06539,3.71295 -12.388551,4.84589 -1.9987183,1.02092 -4.9000532,0.16926 0.583412,-0.13278 0.953464,-0.0525 1.638235,0.98164 2.458953,1.46977 3.764272,2.02452 7.097247,4.54455 10.226689,7.43986 3.562557,3.07066 5.689868,6.86354 6.734485,11.38442 0.642969,4.93052 1.122716,10.0083 0.437593,14.95217 -1.239139,5.20426 -4.401135,8.3838 -8.713383,11.20723 -5.038356,3.35459 -10.557767,4.90567 -16.4714103,5.62847 -2.3331688,0.52249 -4.8369337,-0.0742 -7.16782633,0.30721 -0.32236517,0.0527 -1.21372207,0.47971 -0.90095593,0.38548 0.64168809,-0.19332 1.2604826,-0.45578 1.89072386,-0.68366 -0.61192569,1.9455 -0.18935049,4.04906 -0.056512,6.04768 0.2137068,3.58087 0.2226857,7.16892 0.2376627,10.75475 -0.1829533,7.60971 0.051929,15.15775 0.8102713,22.72845 1.2471679,10.25253 1.6158843,20.57258 1.853987,30.88813 0.2094035,11.88813 0.2029978,23.77864 0.2062464,35.66819 0.00101,9.60853 -0.00458,19.21707 -0.00625,28.8256 -0.00257,6.36989 0.00443,12.73977 0.00567,19.10966 -0.4335865,3.94499 0.7698665,7.59679 1.7094795,11.3631 0.9595716,4.32742 1.0114107,8.78383 1.1080919,13.19527 0.07654,4.78389 0.060669,9.56848 0.057241,14.35277 -0.1604393,3.5547 -0.083133,6.93694 0.7847852,10.38194 0.9656429,3.00225 1.7026282,6.04219 -0.6099031,8.53337 -4.5399583,3.48002 -8.6659524,1.80472 -13.799266,1.00255 -7.6164082,-1.03624 -15.3295732,-1.03188 -23.0016532,-1.13609 -12.589556,0.0878 -25.139454,-0.0982 -37.703024,-0.90611 -17.388114,-1.30995 -34.72787,-3.02079 -52.14801,-3.92271 -19.24248,-0.68125 -38.5127,-1.26735 -57.76199,-0.63409 -17.39767,0.83071 -34.68327,3.05522 -52.05729,4.27397 -13.8322,1.6957 -27.76534,2.3632 -41.61493,3.82868 -10.41799,1.29286 -20.88113,1.99416 -31.26295,3.55394 -6.16761,1.34186 -10.42308,1.07818 -15.97696,-1.84311 0,0 2.34559,-1.53798 2.34559,-1.53798 l 0,0 c 5.51846,2.83626 9.77861,3.01626 15.86872,1.70425 10.37888,-1.54533 20.83971,-2.23824 31.25264,-3.531 13.84783,-1.44129 27.77288,-2.1369 41.6031,-3.80805 17.36932,-1.21909 34.65137,-3.44206 52.04585,-4.25275 19.25496,-0.61331 38.52963,-0.0372 57.77716,0.6515 17.426948,0.90676 34.774464,2.61909 52.171372,3.90997 12.569696,0.79668 25.126627,0.95802 37.721166,0.87584 7.688557,0.10309 15.41954,0.0947 23.0505784,1.1501 2.3178848,0.36394 4.65304478,0.88831 6.9873504,1.13069 0.5916126,0.0614 1.1906262,0.13475 1.7826845,0.0778 0.4932359,-0.0475 1.3436468,-0.87441 1.4351697,-0.38742 0.099076,0.52718 -0.8938131,0.59332 -1.3407197,0.88999 2.4447694,-2.34 1.7016614,-5.3085 0.7450159,-8.2755 -0.8862739,-3.4707 -0.9986285,-6.8593 -0.8146854,-10.4461 0.010263,-4.78315 0.020604,-9.56667 -0.049266,-14.34946 -0.095657,-4.39062 -0.144986,-8.82565 -1.0884874,-13.13467 -0.9391766,-3.78878 -2.178145,-7.46063 -1.7325373,-11.42888 0.00199,-6.37329 0.010912,-12.74657 0.014095,-19.11986 0.00771,-9.6118 0.019642,-19.22358 0.025866,-28.83538 -0.00188,-11.88769 0.00726,-23.77638 -0.2030378,-35.66264 -0.2409639,-10.3067 -0.61520993,-20.61788 -1.85802323,-30.86182 -0.76983437,-7.57417 -1.02739717,-15.12426 -0.84770727,-22.73921 -0.023391,-3.57807 -0.035278,-7.1584 -0.2448843,-10.73166 -0.1364607,-2.06168 -0.5342063,-4.18767 -0.030736,-6.21981 4.8706986,-3.62651 5.2489629,-2.30924 11.0552837,-2.83412 3.9523948,-0.49975 8.1784488,-1.46863 11.5737738,-2.91193 4.301771,-2.77755 7.518431,-5.80832 8.806975,-10.98587 0.734182,-4.90575 0.220752,-9.95863 -0.391442,-14.85879 -1.017462,-4.47311 -3.119532,-8.21041 -6.649454,-11.23798 -3.117149,-2.88207 -6.455326,-5.36763 -10.201469,-7.38526 -0.881979,-0.52264 -2.51974,-1.47981 -2.50988,-1.53571 0.452187,-2.56349 2.223346,-2.63009 4.095002,-3.06642 4.303376,-1.15385 8.335134,-2.95062 12.339192,-4.88957 3.339364,-2.15707 6.804706,-5.42292 9.324347,-9.00148 2.399543,-4.41209 3.314988,-8.98684 2.442735,-13.99833 -0.629036,-3.65451 -1.912917,-6.71527 -5.083083,-8.90316 -0.802128,-0.59656 -6.4129,-3.9041 -6.17473,-4.78059 0.312291,-1.14926 1.35772,-1.95702 2.036579,-2.93552 2.940653,-0.81874 6.168671,-0.0684 9.098499,-1.14205 3.608936,-1.15282 4.589045,-1.88485 7.756133,-5.56859 2.365282,-3.05608 4.561875,-6.15794 4.253787,-10.22347 -0.0528,-3.44523 -0.127061,-6.93319 -1.203293,-10.2429 -1.48919,-3.30494 -3.946488,-5.88988 -7.304963,-7.36463 -2.854561,-0.82775 -5.629664,-1.49013 -8.602873,-1.63936 -2.661454,-1.47809 2.35583,-3.68751 3.327821,-4.53911 4.747524,-3.23681 9.426752,-6.52612 13.923053,-10.11375 4.27843,-3.10115 8.811444,-6.26873 11.594426,-10.86811 1.683435,-3.28528 2.815886,-6.33439 0.719861,-9.78581 -2.677916,-3.5364 -6.272471,-5.59769 -10.764298,-5.90288 -6.910905,-0.92303 -13.672197,-0.81514 -20.469661,0.99509 -6.907209,1.71025 -13.727585,3.8655 -20.346438,6.47683 -2.2910811,0.78112 -6.5894017,3.46391 -8.6929226,1.49975 -0.274578,-4.37097 2.653043,-8.66976 2.9916262,-13.0072 1.4664589,-9.16157 3.7194075,-18.1269 5.7859364,-27.16406 2.815129,-11.85812 5.853649,-23.66187 8.610358,-35.53437 2.65635,-12.02402 5.426175,-24.02279 8.208156,-36.01841 1.815716,-8.80876 3.849621,-17.58595 4.833081,-26.53834 0.380619,-3.44531 1.013475,-8.14715 -1.745402,-10.79049 -4.934556,-2.46934 -11.481398,1.10787 -16.683724,0.82532 -14.15969844,1.62638 -28.43374,1.77566 -42.577465,3.62761 -22.870998,2.95874 -45.630738,6.7051 -68.493711,9.72591 -26.78773,3.78965 -53.68346,6.94416 -80.6639,8.98775 -23.82925,1.9244 -47.69968,3.03581 -71.59016,3.87982 -17.86684,0.46609 -35.85831,0.30102 -53.59078,-2.15283 -11.25438,-2.20391 -22.03844,-5.46565 -30.9231,-13.08293 0,0 2.39233,-1.49602 2.39233,-1.49602 z" />
    <path
       style="color:#000000;fill:#000000;fill-opacity:1;fill-rule:nonzero;stroke:#000000;stroke-width:5.69999981;stroke-linecap:butt;stroke-linejoin:miter;stroke-miterlimit:4;stroke-opacity:1;stroke-dasharray:none;stroke-dashoffset:0;marker:none;visibility:visible;display:inline;overflow:visible;enable-background:accumulate"
       id="path2820"
       d="m 476.84577,228.55601 c -7.80931,3.58394 -15.918,6.35363 -24.28696,8.26732 -10.08267,2.87035 -20.49179,3.83155 -30.91074,4.43455 -14.08742,1.34844 -28.19654,2.3546 -42.28444,3.69389 -16.19414,1.88283 -32.33481,4.20232 -48.5395,5.98695 -14.81536,2.42846 -29.7972,3.3426 -44.71007,4.87456 -12.19765,1.48971 -24.45236,2.34202 -36.72761,2.80811 -8.71959,-0.29002 -17.38224,-1.39393 -26.0789,-2.03645 -4.97947,-0.32993 -9.96884,-0.48383 -14.9583,-0.53931 -1.24717,-0.008 -2.49457,-0.0177 -3.74161,0.006 0.77459,-0.0349 1.66826,-0.5188 2.32376,-0.10466 0.43504,0.27486 -0.0378,1.02855 -0.0471,1.54306 -0.0514,2.84732 0.004,5.69822 0.0229,8.54561 0.33956,6.8038 -0.94939,13.51931 -1.66336,20.26112 -0.83777,8.61768 -2.34667,17.14544 -3.16547,25.77028 -0.95009,7.77302 -2.81465,15.36591 -4.45765,23.00641 -0.88306,6.397 -2.57231,12.62927 -3.72077,18.97649 -1.80087,5.62508 -2.55658,11.48359 -3.87285,17.21411 -1.43636,4.54516 -2.28303,9.21282 -2.75499,13.94655 -0.75026,3.44736 -1.77243,6.8291 -2.64415,10.24858 -2.27245,3.88202 -4.80001,3.10385 -8.17386,2.1799 -3.43883,-1.02249 -7.03391,-1.28526 -10.59816,-1.46455 -4.16933,0.0597 -8.43291,-0.58414 -12.54609,0.2225 -1.28865,-0.0761 -2.12846,1.21158 -3.93534,5.28465 -1.72381,4.05909 -2.30279,8.45727 -1.95212,12.82605 0.55564,4.54617 1.66398,8.84642 3.66199,12.96444 2.04825,3.90939 3.86001,7.90687 6.88519,11.16828 2.82409,2.89534 5.91113,5.01391 9.73765,6.27966 1.54107,0.28542 3.09335,0.93423 4.66514,0.42577 0.2471,-0.0799 0.9098,-0.47552 0.65605,-0.42024 -5.70134,1.24205 -1.88165,1.19528 -5.81317,1.0248 -5.68876,0.24881 -11.06998,2.59216 -16.17277,4.95641 -4.1873,2.10901 -8.17935,4.86605 -11.42211,8.29724 -3.40217,3.14637 -5.63079,6.54006 -4.76316,11.23008 1.23413,4.44901 3.97839,7.7433 7.51188,10.5516 3.2854,2.80386 7.53813,3.70751 11.40493,5.40612 2.29016,0.91023 5.84439,1.42042 6.01154,4.40095 -2.57393,3.82363 -7.93978,5.60323 -12.06832,7.5081 -4.91336,2.05213 -8.85239,5.33242 -13.06733,8.446 -3.99385,2.97599 -8.13629,5.77586 -11.25482,9.70241 -2.08158,3.1168 -1.55756,6.42781 -0.16258,9.69029 2.57149,4.70628 7.2876,7.1096 11.8441,9.49564 4.77608,2.42538 10.01017,3.53182 15.28133,4.198 3.33308,0.77969 3.61654,2.3405 0.95722,4.26618 -4.34466,2.95371 -5.72999,3.42705 -8.80486,5.91932 -2.94795,2.45149 -4.88707,5.53042 -5.99228,9.16456 -0.62851,3.64407 -1.40452,7.49498 -0.68797,11.16999 1.37551,3.32579 4.15598,5.60068 7.04264,7.60225 2.69495,1.17204 4.91776,1.56188 6.22545,4.36058 0.52746,4.86381 -0.83094,9.99997 -1.27854,14.91618 -0.68267,11.50956 -2.51856,22.91762 -4.54828,34.25556 -2.37476,13.79187 -5.16721,27.50784 -8.18045,41.17346 -3.49008,12.6293 -5.92059,25.50813 -8.87406,38.26308 -1.95889,10.06046 -4.46692,20.01036 -6.3323,30.08945 -1.32798,5.22395 -2.83518,10.38051 -3.82475,15.68392 -0.50686,3.19329 -0.52551,6.43535 -0.54635,9.66045 -0.002,2.90489 0.0185,5.80973 0.026,8.7146 -0.24622,3.45162 1.88225,5.57125 4.87152,6.78506 7.24942,1.97192 14.6562,2.7384 22.13024,3.24696 16.65025,0.49794 33.31814,-0.80212 49.96673,-1.31336 25.8312,-1.21333 51.58849,-3.48209 77.41225,-4.83402 26.9242,-1.5667 53.91102,-1.06209 80.82388,0.41277 22.02009,1.35531 43.9795,3.61534 65.89449,6.13017 14.22946,2.02734 28.62478,2.10371 42.91142,3.38221 7.94333,0.9366 15.87856,1.90231 23.86495,2.37805 2.21627,-0.0928 4.48735,0.43838 6.70472,0.25246 0.53657,-0.045 1.05265,-0.22721 1.57898,-0.34082 0.41016,-0.15939 1.65884,-0.57895 1.23049,-0.47816 -0.63244,0.14881 -1.23123,0.41546 -1.84684,0.62319 -0.18436,-1.7463 0.0563,-0.80556 -0.95599,-2.75177 0,0 2.45873,-1.40607 2.45873,-1.40607 l 0,0 c 1.09987,2.08708 0.788,1.06 1.10547,3.02446 -4.88444,3.68103 -6.57397,3.15757 -12.56301,2.71761 -7.97821,-0.49047 -15.9043,-1.47193 -23.84065,-2.40521 -14.27711,-1.2662 -28.65842,-1.38459 -42.87602,-3.41605 -21.89905,-2.52501 -43.84345,-4.78969 -65.84906,-6.14268 -26.90359,-1.46907 -53.87959,-1.9725 -80.79409,-0.39893 -25.83745,1.36105 -51.60848,3.63762 -77.45361,4.8572 -16.67091,0.52648 -33.36157,1.844 -50.03526,1.32932 -7.50519,-0.51136 -14.95243,-1.27192 -22.22484,-3.29346 -3.03105,-1.30106 -5.28207,-3.5322 -5.04216,-7.07007 -0.01,-2.90577 -0.0269,-5.81154 -0.0261,-8.71733 0.0161,-3.24011 0.0359,-6.49667 0.52579,-9.70698 0.99621,-5.30904 2.48398,-10.47568 3.85191,-15.69654 1.86822,-10.08842 4.40231,-20.04185 6.35369,-30.11378 2.9699,-12.75208 5.37477,-25.63827 8.88342,-38.26418 3.01465,-13.66225 5.81667,-27.37321 8.18485,-41.16331 2.02705,-11.32357 3.86189,-22.7191 4.52252,-34.21559 0.42955,-4.87849 1.70133,-9.94663 1.31677,-14.76883 -1.25533,-2.71728 -3.5793,-3.01525 -6.14255,-4.23599 -2.93694,-2.06041 -5.74585,-4.39439 -7.15259,-7.78891 -0.76104,-3.71181 0.028,-7.60234 0.63018,-11.29502 1.06601,-3.68241 2.96947,-6.8151 5.9239,-9.3175 3.95287,-3.32999 5.95707,-3.65832 8.78928,-5.93775 2.79996,-1.88688 3.05331,-2.69018 -0.62523,-3.67306 -5.29036,-0.69675 -10.53869,-1.83909 -15.32799,-4.28717 -4.61524,-2.41646 -9.35117,-4.89626 -11.95734,-9.65237 -1.43658,-3.32146 -2.01564,-6.7406 0.0288,-9.96284 3.09073,-3.97542 7.21926,-6.80243 11.23986,-9.77878 5.69384,-4.17895 11.45331,-8.24144 17.89415,-11.24055 3.7358,-1.74767 4.8908,-1.6008 7.32864,-4.45441 0.0298,-2.81342 -3.82377,-3.23662 -5.83778,-4.13028 -3.88713,-1.69995 -8.15314,-2.62944 -11.43814,-5.47202 -3.57736,-2.85469 -6.34848,-6.22304 -7.61729,-10.72222 -0.93891,-4.75735 1.15516,-8.27131 4.65635,-11.473 4.45483,-4.85136 10.45494,-8.11054 16.22938,-11.13756 5.13845,-2.34666 10.54277,-4.69358 16.26855,-4.85533 6.2756,0.46928 -0.96154,4.51591 -4.15254,2.20996 -3.84627,-1.31077 -6.96773,-3.48056 -9.8089,-6.4024 -3.03031,-3.29318 -4.87597,-7.29945 -6.92632,-11.24022 -2.02108,-4.14661 -3.14306,-8.47653 -3.70935,-13.05722 -0.3872,-4.40049 0.17328,-8.84674 1.88419,-12.94878 1.77678,-4.1343 3.87759,-7.19555 8.76846,-8.17053 4.14273,-0.70727 8.399,-0.14044 12.58413,-0.16861 3.57999,0.18978 7.18593,0.47656 10.63779,1.5113 0.90567,0.24759 1.79361,0.57145 2.71622,0.74565 0.29838,0.0563 1.05453,-0.19839 0.90843,0.0678 -1.50947,2.75007 -1.74246,0.5184 -0.35326,-0.16163 0.87827,-3.40965 1.88165,-6.78681 2.67547,-10.21569 0.46174,-4.74594 1.28844,-9.43336 2.74847,-13.98416 1.34082,-5.72028 2.0401,-11.58998 3.87974,-17.20186 1.1393,-6.35419 2.85125,-12.58542 3.72526,-18.98912 1.6387,-7.63415 3.51266,-15.21687 4.47948,-22.98042 0.80953,-8.6262 2.32316,-17.15359 3.1609,-25.77133 0.70202,-6.73069 2.0008,-13.43273 1.65847,-20.22339 -0.0118,-1.54518 -0.64299,-8.99493 0.001,-10.10224 0.6377,-1.09596 1.68107,-1.89872 2.5216,-2.84808 1.24363,-0.01 2.48732,-0.001 3.7309,0.0125 4.98598,0.068 9.97161,0.233 14.94731,0.56882 8.68251,0.65438 17.33257,1.76795 26.04079,2.02516 12.26595,-0.46933 24.51053,-1.32583 36.69959,-2.8094 14.91034,-1.51435 29.8832,-2.46117 44.69659,-4.86736 16.20538,-1.79472 32.34865,-4.10754 48.54517,-5.986 14.0965,-1.3435 28.21464,-2.35649 42.31136,-3.70124 10.41706,-0.61768 20.81657,-1.61753 30.8976,-4.48309 8.36361,-1.93655 16.47455,-4.72226 24.26938,-8.33832 0,0 -2.2073,1.76564 -2.2073,1.76564 z" />
    <path
       style="color:#000000;fill:#000000;fill-opacity:1;fill-rule:nonzero;stroke:#000000;stroke-width:5.69999981;stroke-linecap:butt;stroke-linejoin:miter;stroke-miterlimit:4;stroke-opacity:1;stroke-dasharray:none;stroke-dashoffset:0;marker:none;visibility:visible;display:inline;overflow:visible;enable-background:accumulate"
       id="path2822"
       d="m -172.6942,62.321192 c 1.15669,11.279102 0.56125,22.775042 -0.23266,34.074188 -0.7724,13.63464 -2.76915,27.14144 -4.34456,40.69448 -1.01991,3.73773 0.005,10.25891 -3.05184,13.2916 0,0 -2.64354,1.05976 -2.64354,1.05976 l 0,0 c 2.62971,-1.63666 2.61033,-10.49355 3.20151,-13.117 1.59205,-13.55107 3.60396,-27.0561 4.36758,-40.691677 0.79507,-11.267613 1.38881,-22.740839 0.20401,-33.985351 0,0 2.4995,-1.326 2.4995,-1.326 z" />
    <path
       style="color:#000000;fill:#000000;fill-opacity:1;fill-rule:nonzero;stroke:#000000;stroke-width:5.69999981;stroke-linecap:butt;stroke-linejoin:miter;stroke-miterlimit:4;stroke-opacity:1;stroke-dasharray:none;stroke-dashoffset:0;marker:none;visibility:visible;display:inline;overflow:visible;enable-background:accumulate"
       id="path2824"
       d="m -204.69632,60.104623 c 10.7984,-0.326357 21.54025,0.918261 32.29017,1.740804 5.01962,0.372579 10.04779,0.595719 15.07607,0.807047 0,0 -2.26884,1.633667 -2.26884,1.633667 l 0,0 c -5.02662,-0.217859 -10.05305,-0.44782 -15.0711,-0.822297 -10.75462,-0.830117 -21.5045,-2.061 -32.30831,-1.701244 0,0 2.28201,-1.657977 2.28201,-1.657977 z" />
    <path
       style="color:#000000;fill:#000000;fill-opacity:1;fill-rule:nonzero;stroke:#000000;stroke-width:5.69999981;stroke-linecap:butt;stroke-linejoin:miter;stroke-miterlimit:4;stroke-opacity:1;stroke-dasharray:none;stroke-dashoffset:0;marker:none;visibility:visible;display:inline;overflow:visible;enable-background:accumulate"
       id="path2826"
       d="m -213.59613,154.74716 c 10.17885,1.04839 20.25317,2.81563 30.42634,3.92395 9.74233,1.09781 19.56976,0.21311 29.2954,-0.66401 2.24048,-0.32623 4.35885,-1.06308 6.45481,-1.87965 0,0 -2.2306,1.7486 -2.2306,1.7486 l 0,0 c -2.10879,0.79193 -4.23846,1.50622 -6.48611,1.80522 -9.73009,0.85013 -19.5577,1.71438 -29.3008,0.59971 -10.18448,-1.11715 -20.27337,-2.8825 -30.4678,-3.90596 0,0 2.30876,-1.62786 2.30876,-1.62786 z" />
    <path
       style="color:#000000;fill:#000000;fill-opacity:1;fill-rule:nonzero;stroke:#000000;stroke-width:5.69999981;stroke-linecap:butt;stroke-linejoin:miter;stroke-miterlimit:4;stroke-opacity:1;stroke-dasharray:none;stroke-dashoffset:0;marker:none;visibility:visible;display:inline;overflow:visible;enable-background:accumulate"
       id="path2828"
       d="m -134.88711,162.6349 c 2.76698,8.33168 3.75606,16.98649 3.44906,25.71817 -0.3376,4.53897 -0.15196,2.33707 -0.54959,6.60631 0,0 -2.52065,1.25463 -2.52065,1.25463 l 0,0 c 0.40708,-4.26511 0.21515,-2.06597 0.56906,-6.59802 0.33059,-8.69232 -0.62994,-17.30877 -3.40879,-25.59897 0,0 2.46091,-1.38212 2.46091,-1.38212 z" />
    <path
       style="color:#000000;fill:#000000;fill-opacity:1;fill-rule:nonzero;stroke:#000000;stroke-width:5.69999981;stroke-linecap:butt;stroke-linejoin:miter;stroke-miterlimit:4;stroke-opacity:1;stroke-dasharray:none;stroke-dashoffset:0;marker:none;visibility:visible;display:inline;overflow:visible;enable-background:accumulate"
       id="path2830"
       d="m 355.54438,99.82749 c -1.0889,10.70949 -1.85207,21.43975 -2.35612,32.1917 -0.26879,6.30202 -0.41209,12.60851 -0.49375,18.91545 0,0 -2.52166,1.28009 -2.52166,1.28009 l 0,0 c 0.10731,-6.31655 0.26067,-12.63278 0.53164,-18.94468 0.50757,-10.73998 1.25547,-21.46004 2.32256,-32.15991 0,0 2.51733,-1.28265 2.51733,-1.28265 z" />
    <path
       style="color:#000000;fill:#000000;fill-opacity:1;fill-rule:nonzero;stroke:#000000;stroke-width:5.69999981;stroke-linecap:butt;stroke-linejoin:miter;stroke-miterlimit:4;stroke-opacity:1;stroke-dasharray:none;stroke-dashoffset:0;marker:none;visibility:visible;display:inline;overflow:visible;enable-background:accumulate"
       id="path2832"
       d="m 331.75266,99.741506 c 10.59978,-1.100848 21.09726,-2.898593 31.59383,-4.711723 9.95898,-1.330545 19.80845,-3.272614 29.69702,-5.030312 2.05072,-0.362851 4.10388,-0.711532 6.15789,-1.055125 0,0 -2.26836,1.705847 -2.26836,1.705847 l 0,0 c -2.04581,0.337883 -4.09072,0.681147 -6.13295,1.040133 -9.87911,1.746245 -19.72101,3.669958 -29.66756,5.006617 -10.51332,1.81812 -21.03073,3.591697 -31.64117,4.745247 0,0 2.2613,-1.700684 2.2613,-1.700684 z" />
    <path
       style="color:#000000;fill:#000000;fill-opacity:1;fill-rule:nonzero;stroke:#000000;stroke-width:5.69999981;stroke-linecap:butt;stroke-linejoin:miter;stroke-miterlimit:4;stroke-opacity:1;stroke-dasharray:none;stroke-dashoffset:0;marker:none;visibility:visible;display:inline;overflow:visible;enable-background:accumulate"
       id="path2834"
       d="m 331.78012,160.46284 c 9.07955,1.27262 18.23872,2.12334 27.40772,1.84148 6.59681,-0.10051 12.90785,-1.62378 18.91606,-4.24975 0,0 -2.21073,1.74837 -2.21073,1.74837 l 0,0 c -6.03071,2.581 -12.36164,4.05406 -18.95777,4.14783 -9.19104,0.24831 -18.36891,-0.59982 -27.4715,-1.86286 0,0 2.31622,-1.62507 2.31622,-1.62507 z" />
    <path
       style="color:#000000;fill:#000000;fill-opacity:1;fill-rule:nonzero;stroke:#000000;stroke-width:5.69999981;stroke-linecap:butt;stroke-linejoin:miter;stroke-miterlimit:4;stroke-opacity:1;stroke-dasharray:none;stroke-dashoffset:0;marker:none;visibility:visible;display:inline;overflow:visible;enable-background:accumulate"
       id="path2836"
       d="m 417.43995,164.73979 c 5.31706,-2.07195 10.99061,-5.87902 16.93838,-4.87957 3.14704,2.82373 0.49078,7.30763 -1.26794,10.17388 -2.78393,4.74846 -5.93466,9.25327 -8.88051,13.89875 -2.97055,4.09237 -0.13327,5.98344 4.01661,6.35041 8.07354,-0.29186 16.13239,-0.89239 24.20597,-1.21918 5.80129,-0.68081 11.55328,-1.73235 17.30309,-2.75205 3.4282,-2.55838 -2.68268,3.43651 0.60561,-1.60087 0,0 2.60353,-1.13923 2.60353,-1.13923 l 0,0 c -1.40018,2.05904 -2.84722,3.73484 -5.47357,4.44639 -5.74731,1.00463 -11.49438,2.06245 -17.29608,2.7 -8.08778,0.3336 -16.16131,0.95845 -24.25064,1.20203 -4.20292,-0.48412 -7.35222,-2.62188 -4.301,-6.8487 2.94415,-4.64804 6.10666,-9.14307 8.88356,-13.89744 1.63269,-2.59085 4.49993,-7.06796 1.5317,-9.68156 -5.93866,-0.80465 -11.52798,2.91406 -16.82602,5.01277 0,0 2.20731,-1.76563 2.20731,-1.76563 z" />
    <path
       style="color:#000000;fill:#000000;fill-opacity:1;fill-rule:nonzero;stroke:#000000;stroke-width:5.69999981;stroke-linecap:butt;stroke-linejoin:miter;stroke-miterlimit:4;stroke-opacity:1;stroke-dasharray:none;stroke-dashoffset:0;marker:none;visibility:visible;display:inline;overflow:visible;enable-background:accumulate"
       id="path2838"
       d="m -445.11777,436.66875 c -3.33084,10.55199 -5.47841,21.32867 -6.15941,32.36656 -0.47672,10.38162 0.60304,20.64013 4.89601,30.14245 1.7705,3.21375 4.19659,4.90764 7.837,3.48233 2.39533,-0.93783 2.08897,-0.52195 2.66759,-1.69939 7.86403,-6.85243 13.54619,-15.6455 18.96761,-24.44562 6.29499,-9.7333 12.45164,-19.55154 18.6625,-29.33815 2.31033,-1.87456 2.78663,-6.61703 5.51332,-8.10036 1.24482,-0.67718 2.55994,-1.21627 3.83992,-1.82441 0.40836,-0.0684 0.81673,-0.13683 1.22509,-0.20524 0,0 -2.26821,1.71023 -2.26821,1.71023 l 0,0 c -0.4008,0.0766 -0.80161,0.15329 -1.20242,0.22994 0.34771,-0.3249 0.76952,-0.58533 1.04312,-0.97469 0.4069,-0.57903 -1.03346,0.9855 -1.42019,1.5782 -1.40029,2.146 -2.78744,4.30056 -4.16876,6.45881 -6.23081,9.78072 -12.38484,19.60754 -18.68578,29.34384 -5.41206,8.81721 -11.08589,17.60603 -18.88681,24.53707 -5.85499,3.73899 -10.89376,8.36434 -15.57156,0.62798 -4.28995,-9.55315 -5.39894,-19.8503 -4.92291,-30.28094 0.65384,-11.04873 2.7995,-21.82982 6.07381,-32.4063 0,0 2.56008,-1.20231 2.56008,-1.20231 z" />
    <path
       style="color:#000000;fill:#000000;fill-opacity:1;fill-rule:nonzero;stroke:#000000;stroke-width:5.69999981;stroke-linecap:butt;stroke-linejoin:miter;stroke-miterlimit:4;stroke-opacity:1;stroke-dasharray:none;stroke-dashoffset:0;marker:none;visibility:visible;display:inline;overflow:visible;enable-background:accumulate"
       id="path2840"
       d="m -373.35998,505.55977 c -0.93853,9.81627 -2.57407,19.54051 -3.9277,29.30524 0,0 -2.50951,1.23516 -2.50951,1.23516 l 0,0 c 1.3691,-9.75771 3.01566,-19.47661 3.90222,-29.29374 0,0 2.53499,-1.24666 2.53499,-1.24666 z" />
    <path
       style="color:#000000;fill:#000000;fill-opacity:1;fill-rule:nonzero;stroke:#000000;stroke-width:5.69999981;stroke-linecap:butt;stroke-linejoin:miter;stroke-miterlimit:4;stroke-opacity:1;stroke-dasharray:none;stroke-dashoffset:0;marker:none;visibility:visible;display:inline;overflow:visible;enable-background:accumulate"
       id="path2842"
       d="m 515.54235,405.88457 c 0.0811,13.91205 -1.01639,27.75543 -0.93772,41.67042 -0.21291,11.71598 0.76222,23.35402 2.49799,34.92645 0.18889,0.6223 0.73812,3.10361 1.51452,3.78107 0.25361,0.22129 1.19069,-0.0636 0.9886,0.20553 -0.29765,0.39645 -1.39475,0.88357 -1.43534,0.38948 -0.0675,-0.82183 0.9532,-1.35748 1.29416,-2.10829 0.51069,-1.12453 0.83177,-2.32586 1.24765,-3.4888 3.64857,-12.70273 7.64359,-25.29605 12.13974,-37.72364 3.82166,-10.12156 8.05352,-20.11124 13.8342,-29.27955 0.40312,-0.48415 0.80624,-0.96831 1.20936,-1.45246 0,0 2.60767,-1.10463 2.60767,-1.10463 l 0,0 c -0.413,0.47405 -0.82599,0.9481 -1.23899,1.42214 -5.83432,9.1402 -10.08649,19.12435 -13.91324,29.24871 -4.49995,12.41328 -8.50012,24.994 -12.09568,37.69973 -1.5652,4.57133 -6.22447,13.45743 -8.63826,3.72362 -1.69849,-11.59663 -2.67862,-23.25289 -2.4652,-34.98781 -0.0811,-13.90515 1.02163,-27.73926 0.87727,-41.64139 0,0 2.51327,-1.28058 2.51327,-1.28058 z" />
    <path
       style="color:#000000;fill:#000000;fill-opacity:1;fill-rule:nonzero;stroke:#000000;stroke-width:5.69999981;stroke-linecap:butt;stroke-linejoin:miter;stroke-miterlimit:4;stroke-opacity:1;stroke-dasharray:none;stroke-dashoffset:0;marker:none;visibility:visible;display:inline;overflow:visible;enable-background:accumulate"
       id="path2844"
       d="m 571.72566,487.59693 c 3.45652,-1.47301 9.8262,-5.86744 12.93703,-1.90713 0.13067,5.17966 -2.59116,9.92971 -4.15494,14.76558 -1.86544,4.81218 -0.17108,7.72713 4.43452,9.49257 7.33486,0.94102 14.65663,-0.58193 21.74665,-2.34755 5.53715,-1.43234 2.81316,-0.63044 8.17403,-2.39867 0,0 -2.21288,1.71733 -2.21288,1.71733 l 0,0 c -5.37267,1.74764 -2.64491,0.95182 -8.18516,2.38103 -7.12593,1.74931 -14.51105,3.29998 -21.86784,2.22106 -4.65002,-1.87183 -6.54973,-4.93007 -4.6407,-9.86421 1.53046,-4.78795 4.12165,-9.41326 4.26863,-14.51153 -2.97239,-3.7047 -9.49696,0.91085 -12.70664,2.21716 0,0 2.2073,-1.76564 2.2073,-1.76564 z" />
    <path
       style="color:#000000;fill:#000000;fill-opacity:1;fill-rule:nonzero;stroke:#000000;stroke-width:5.69999981;stroke-linecap:butt;stroke-linejoin:miter;stroke-miterlimit:4;stroke-opacity:1;stroke-dasharray:none;stroke-dashoffset:0;marker:none;visibility:visible;display:inline;overflow:visible;enable-background:accumulate"
       id="path2846"
       d="m -119.07427,414.1312 c -2.25725,10.6201 -3.06634,21.46613 -5.69907,32.00201 -1.54396,6.28476 -3.9905,12.313 -6.95706,18.05309 -0.72388,2.73762 3.18103,3.14958 5.06827,3.56885 5.63736,0.64708 11.37943,-0.62711 17.01645,-1.15424 5.54142,-0.48145 11.10099,-0.66986 16.660442,-0.76599 1.749538,0.17761 3.31819,0.79651 4.771854,1.74945 0,0 -2.395229,1.53831 -2.395229,1.53831 l 0,0 c -1.424671,-0.90887 -2.956795,-1.48458 -4.661633,-1.62163 -5.551234,0.0935 -11.102674,0.28805 -16.635294,0.77437 -5.65633,0.53611 -11.42496,1.83336 -17.08306,1.09184 -2.12955,-0.4946 -5.97462,-1.04291 -5.32836,-4.01603 3.00771,-5.7154 5.47254,-11.73627 7.02964,-18.0142 2.6646,-10.51429 3.46568,-21.34526 5.67806,-31.95918 0,0 2.53499,-1.24665 2.53499,-1.24665 z" />
    <path
       style="color:#000000;fill:#000000;fill-opacity:1;fill-rule:nonzero;stroke:#000000;stroke-width:5.69999981;stroke-linecap:butt;stroke-linejoin:miter;stroke-miterlimit:4;stroke-opacity:1;stroke-dasharray:none;stroke-dashoffset:0;marker:none;visibility:visible;display:inline;overflow:visible;enable-background:accumulate"
       id="path2848"
       d="m -50.169904,471.25606 c -0.799795,7.21145 -1.203654,14.47304 -2.411776,21.62939 0,0 -2.518319,1.22982 -2.518319,1.22982 l 0,0 c 1.238428,-7.13454 1.617762,-14.38157 2.41276,-21.57656 0,0 2.517335,-1.28265 2.517335,-1.28265 z" />
    <path
       style="color:#000000;fill:#000000;fill-opacity:1;fill-rule:nonzero;stroke:#000000;stroke-width:5.69999981;stroke-linecap:butt;stroke-linejoin:miter;stroke-miterlimit:4;stroke-opacity:1;stroke-dasharray:none;stroke-dashoffset:0;marker:none;visibility:visible;display:inline;overflow:visible;enable-background:accumulate"
       id="path2850"
       d="m 255.21491,433.7914 c -0.88702,8.10127 -2.20413,16.11822 -3.50121,24.16155 -1.31233,7.05141 -3.26052,13.90648 -5.42473,20.73003 -1.35908,4.18661 -3.97169,8.25501 -4.10617,12.74227 0.37515,2.79663 5.66678,1.09245 7.68677,0.89076 4.87664,-0.90889 9.57123,-0.24338 14.38302,0.58484 4.53021,0.85991 9.17043,0.66663 13.53435,2.23512 2.67,1.57705 5.47058,1.67094 0.006,2.20208 0,0 2.44086,-1.44767 2.44086,-1.44767 l 0,0 c -2.35321,3.96362 -1.27569,2.22938 -4.7959,0.83264 -4.35425,-1.52523 -8.99325,-1.31761 -13.49735,-2.20185 -4.79774,-0.82144 -9.48443,-1.41322 -14.34145,-0.52068 -2.32113,0.23536 -7.3713,1.95684 -7.94734,-1.29221 0.0506,-4.51466 2.69601,-8.62886 4.08636,-12.8229 2.16325,-6.81754 4.14898,-13.65361 5.46028,-20.70103 1.28882,-8.03984 2.64501,-16.04558 3.47437,-24.15022 0,0 2.54192,-1.24273 2.54192,-1.24273 z" />
    <path
       style="color:#000000;fill:#000000;fill-opacity:1;fill-rule:nonzero;stroke:#000000;stroke-width:5.69999981;stroke-linecap:butt;stroke-linejoin:miter;stroke-miterlimit:4;stroke-opacity:1;stroke-dasharray:none;stroke-dashoffset:0;marker:none;visibility:visible;display:inline;overflow:visible;enable-background:accumulate"
       id="path2852"
       d="m 300.73551,517.22397 c 6.88633,-4.35813 14.695,-7.50464 22.90162,-7.70934 4.6032,0.63833 8.25235,2.64305 10.66477,6.60732 1.769,3.70371 0.5257,7.08697 -1.15408,10.53993 -1.35385,2.47284 -4.72236,5.11332 -2.57014,7.9064 3.38029,1.87219 7.08059,3.24149 10.80164,4.32345 3.61088,1.86675 5.04666,3.12793 8.92034,1.39294 0,0 -2.22418,1.75943 -2.22418,1.75943 l 0,0 c -3.85305,1.61893 -5.49599,0.20556 -9.03231,-1.55481 -3.7564,-1.11013 -7.54541,-2.4728 -10.90719,-4.47011 -2.25524,-3.01224 0.82406,-5.53999 2.43374,-8.18891 1.67048,-3.35621 2.996,-6.64711 1.27945,-10.28496 -2.35612,-3.88698 -5.97561,-5.80666 -10.48562,-6.36803 -6.19234,0.22996 -12.67289,1.91689 -17.9979,5.01758 0,0 -2.63014,1.02911 -2.63014,1.02911 z" />
    <path
       style="color:#000000;fill:#000000;fill-opacity:1;fill-rule:nonzero;stroke:#000000;stroke-width:5.69999981;stroke-linecap:butt;stroke-linejoin:miter;stroke-miterlimit:4;stroke-opacity:1;stroke-dasharray:none;stroke-dashoffset:0;marker:none;visibility:visible;display:inline;overflow:visible;enable-background:accumulate"
       id="path2866"
       d="m 226.97992,388.11746 c -0.38956,-1.90851 -1.44899,-9.21651 0.95933,-10.45483 1.04488,-0.53726 2.21155,-0.79416 3.31733,-1.19124 1.77214,1.76916 1.66261,5.08381 1.19586,7.38756 -2.28869,4.99843 -5.11896,5.15556 -8.34225,7.00591 -3.03502,1.04251 -4.60402,-0.71153 -4.63144,-3.68362 0.55243,-4.21015 4.06232,-6.8515 7.11749,-9.38157 3.63219,-2.31892 8.55915,-6.55406 12.50522,-3.00363 2.37817,3.84411 1.92542,8.12359 0.58691,12.22176 -1.55312,4.33419 -4.77396,7.65059 -8.2436,10.5455 -2.88498,1.76139 -7.15997,5.51211 -9.11525,1.17958 -1.11821,-4.15807 1.60219,-7.86469 4.1064,-10.93603 3.00323,-3.1569 7.18796,-7.01211 11.79665,-6.97842 2.46698,1.35009 3.02842,4.22261 2.66735,6.81618 -0.93777,4.23388 -3.94104,5.48388 -7.51514,7.47378 -3.35343,0.26595 -3.21834,-2.9262 -2.57617,-5.2891 1.84845,-3.63527 4.9544,-5.92517 8.40563,-7.87888 2.49316,-0.23295 -0.96074,1.13073 -2.48481,1.99947 0,0 2.25632,-1.72945 2.25632,-1.72945 l 0,0 c -1.47097,1.56511 -0.70416,1.23203 -1.99249,1.507 4.59048,-2.92213 -3.30696,2.97833 -3.62218,4.88305 -0.61223,2.12764 -0.99753,5.24539 2.2299,4.73125 -0.43843,0.27625 -0.94614,0.46509 -1.3153,0.82877 -0.34437,0.33925 0.84335,-0.4759 1.23902,-0.75362 1.644,-1.15395 2.28826,-2.6401 2.82612,-4.52325 0.41983,-2.37005 -0.0451,-5.24153 -2.41265,-6.39087 -3.18411,0.16109 -3.61235,0.79365 -6.90373,4.19838 -2.46368,2.95702 -5.25678,6.58856 -4.23017,10.64696 1.39879,3.17117 3.31671,1.63779 4.01542,1.27353 3.47473,-2.84459 6.72233,-6.11317 8.31114,-10.40283 1.35561,-3.97519 1.87079,-8.1647 -0.43954,-11.9245 -2.15603,-1.84972 -3.10356,-0.47522 -4.12147,-1.085 -0.28989,-0.17366 0.85981,-0.92082 0.52629,-0.86643 -0.38799,0.0633 -3.68043,2.27043 -3.87868,2.40023 -3.01703,2.48209 -6.55421,5.02848 -7.20809,9.15196 -0.0891,2.87822 1.51045,4.29757 4.30697,3.18759 -0.34835,0.21121 -1.39262,0.84609 -1.04505,0.63361 3.45457,-2.11185 2.94118,-0.69034 4.62582,-4.62381 0.49162,-2.08934 0.66915,-5.3919 -0.97723,-6.99699 0.54495,-0.51628 1.0544,-1.07282 1.63485,-1.54884 0.25796,-0.21155 -0.50253,0.45767 -0.66176,0.75083 -1.59219,2.93133 -1.00087,6.39426 -0.41353,9.49401 0,0 -2.49949,1.326 -2.49949,1.326 z" />
    <path
       style="color:#000000;fill:#000000;fill-opacity:1;fill-rule:nonzero;stroke:#000000;stroke-width:5.69999981;stroke-linecap:butt;stroke-linejoin:miter;stroke-miterlimit:4;stroke-opacity:1;stroke-dasharray:none;stroke-dashoffset:0;marker:none;visibility:visible;display:inline;overflow:visible;enable-background:accumulate"
       id="path2868"
       d="m -24.448656,359.54603 c -0.252378,-7.51319 -1.399908,-9.44534 5.53035,-13.06615 2.604178,1.50238 3.695636,4.79643 4.597735,7.50849 0.485842,3.84259 -0.411974,7.2366 -2.64102,10.34344 -2.448132,2.83676 -6.072862,5.67753 -10.000336,4.8967 -2.767608,-1.80992 -2.633141,-5.23185 -2.811351,-8.20126 0.261872,-4.96193 2.828459,-9.20402 5.56778,-13.1894 3.160944,-3.04651 6.55503,-5.47623 10.07529,-1.91061 2.8201,3.48805 2.890261,7.12952 2.400841,11.37676 -1.254407,5.9405 -5.069112,8.68484 -10.037152,11.5319 -3.009256,1.18663 -6.251974,2.09881 -8.94999,-0.12917 -2.002116,-2.95161 -1.943913,-6.21053 -1.210584,-9.55157 2.072422,-5.23071 3.584808,-6.61529 8.710751,-8.98123 3.412567,-0.19736 5.120722,2.98191 6.275388,5.71232 1.309074,3.51155 0.555285,6.44224 -1.390872,9.4696 -3.345092,3.50076 -6.143837,4.50572 -10.34374,2.26714 -1.95516,-1.70921 -3.806399,-4.27479 -3.512341,-6.99466 1.169202,-2.62734 4.959332,-1.99315 4.576915,0.82367 0,0 -2.564999,1.23798 -2.564999,1.23798 l 0,0 c 0.884042,-2.7116 -2.440743,-0.45054 0.908395,-3.95415 0.169525,-0.17734 -0.244477,0.42543 -0.366716,0.63814 -0.489499,2.55082 1.519675,5.12189 3.331528,6.6947 0.890097,0.46118 1.793408,1.01269 2.800498,1.20113 0.423904,0.0793 1.210935,-0.40882 1.293704,0.0144 0.0985,0.50371 -1.255625,0.62144 -1.075376,1.102 0.353587,0.9427 2.207018,-2.7911 2.354985,-1.89138 1.959628,-2.94225 2.804548,-5.74804 1.513839,-9.22113 -1.101849,-2.63013 -2.73465,-5.72694 -6.052003,-5.37077 0.35835,-0.33679 1.555351,-0.90476 1.075049,-1.01037 -1.499175,-0.32963 -4.45896,5.93018 -4.983679,7.03259 -0.737341,3.23224 -0.884442,6.39524 1.06505,9.27145 2.659988,2.08285 5.878678,1.04222 8.74756,-0.13953 -0.251167,0.16109 -0.990557,0.66448 -0.753502,0.48326 3.030079,-2.31631 5.162829,-5.16857 6.051186,-8.98145 0.503627,-4.16527 0.508096,-7.72648 -2.28308,-11.14956 -0.588081,-0.5793 -1.187375,-1.36777 -2.054002,-1.5934 -0.398588,-0.10378 -1.152329,0.35432 -1.234647,-0.0492 -0.09901,-0.48543 1.445712,-0.88207 1.000396,-1.09918 -0.550745,-0.26851 -2.562965,1.84053 -2.772923,2.03999 -2.739198,3.92944 -5.333327,8.11047 -5.650824,13.02062 0.16373,2.78924 -0.05078,6.22174 2.627035,7.87131 0.373327,0.0601 0.742064,0.16754 1.11998,0.18022 0.438515,0.0147 1.140623,-0.50222 1.31259,-0.0986 0.169164,0.39708 -1.436838,0.75693 -1.008733,0.81181 1.159353,0.14864 2.967761,-2.40472 3.646987,-3.03674 2.25853,-3.01748 3.187148,-6.30591 2.76086,-10.10182 -0.8206,-2.48591 -1.839872,-5.90757 -4.357087,-7.12411 0.482655,-0.35614 0.851068,-1.12766 1.447965,-1.06843 0.698692,0.0693 -1.192045,0.33217 -1.964462,2.82425 -0.824488,2.66008 -0.290724,5.52228 -0.273739,8.23398 0,0 -2.499499,1.326 -2.499499,1.326 z" />
    <path
       style="color:#000000;fill:#000000;fill-opacity:1;fill-rule:nonzero;stroke:#000000;stroke-width:5.69999981;stroke-linecap:butt;stroke-linejoin:miter;stroke-miterlimit:4;stroke-opacity:1;stroke-dasharray:none;stroke-dashoffset:0;marker:none;visibility:visible;display:inline;overflow:visible;enable-background:accumulate"
       id="path2870"
       d="m -163.46083,227.99918 c 2.72364,6.604 7.12436,11.75869 12.78301,15.99527 4.61029,3.15768 9.86888,4.8776 14.92729,7.06306 2.78152,1.16459 6.94737,2.03119 6.13874,5.82619 -2.63778,4.3339 -6.00813,8.13741 -9.38448,11.89883 -6.19591,6.4513 -12.77994,12.52683 -19.14542,18.81405 -6.38646,6.52463 -12.98156,12.83513 -19.84207,18.86041 -0.69061,0.59634 -1.38123,1.19269 -2.07184,1.78903 0,0 -2.61384,1.06006 -2.61384,1.06006 l 0,0 c 0.69395,-0.59683 1.3879,-1.19366 2.08185,-1.79049 6.87469,-6.01741 13.48466,-12.31914 19.86926,-18.85331 6.34728,-6.29277 12.93051,-12.35536 19.13007,-18.78991 3.36515,-3.7392 6.66103,-7.538 9.4128,-11.76234 1.08461,-3.56441 -3.47029,-4.38467 -5.92732,-5.48511 -5.08722,-2.16859 -10.33065,-3.96125 -14.95243,-7.12716 -5.67242,-4.2817 -10.0974,-9.47324 -12.86195,-16.09998 0,0 2.45633,-1.3986 2.45633,-1.3986 z" />
    <path
       style="color:#000000;fill:#000000;fill-opacity:1;fill-rule:nonzero;stroke:#000000;stroke-width:5.69999981;stroke-linecap:butt;stroke-linejoin:miter;stroke-miterlimit:4;stroke-opacity:1;stroke-dasharray:none;stroke-dashoffset:0;marker:none;visibility:visible;display:inline;overflow:visible;enable-background:accumulate"
       id="path2872"
       d="m 305.98052,224.63118 c 7.10643,5.3562 14.29717,10.58364 21.55534,15.73214 4.14506,3.00831 8.91325,5.72635 9.53025,11.21029 -1.03462,4.56835 -4.96843,8.344 -8.22993,11.57301 -4.70393,3.95187 -8.46242,8.78712 -11.66422,13.99483 -0.44114,0.90764 -0.88229,1.81528 -1.32343,2.72292 0,0 2.44962,1.39097 2.44962,1.39097 l 0,0 c 0.4362,-0.89972 0.8724,-1.79945 1.3086,-2.69918 3.19086,-5.19006 6.94558,-9.99743 11.63289,-13.93542 3.32458,-3.30647 7.28004,-7.12518 8.36381,-11.78666 -0.51702,-5.60856 -5.199,-8.39411 -9.45921,-11.44153 -7.25406,-5.13933 -14.44011,-10.35667 -21.53918,-15.70812 0,0 -2.62454,-1.05325 -2.62454,-1.05325 z" />
    <path
       style="color:#000000;fill:#000000;fill-opacity:1;fill-rule:nonzero;stroke:#000000;stroke-width:5.69999981;stroke-linecap:butt;stroke-linejoin:miter;stroke-miterlimit:4;stroke-opacity:1;stroke-dasharray:none;stroke-dashoffset:0;marker:none;visibility:visible;display:inline;overflow:visible;enable-background:accumulate"
       id="path2916"
       d="m 121.25867,192.03909 c -0.0165,8.25215 -0.0119,16.50434 -0.0106,24.7565 0.41886,8.21657 -0.35933,16.32716 -1.28715,24.47331 -1.42597,9.21928 -3.4521,18.32498 -5.10116,27.50238 -0.82248,7.69519 -2.55882,15.23128 -3.82428,22.85476 -0.46447,5.94971 -1.92377,11.73007 -2.91093,17.59976 -0.42105,5.10377 -1.14954,10.06659 -2.40866,15.02822 -0.85836,3.38523 -1.63302,6.6455 -0.72071,10.06688 1.17647,2.52541 4.26092,0.48477 6.15423,-0.0976 4.19382,-2.17079 8.24253,-4.4372 12.76125,-5.86863 5.01332,-1.81393 9.64405,-0.9818 14.36354,1.17725 6.90058,2.48864 12.87452,6.42319 18.19618,11.40137 5.28132,4.92465 9.09253,10.98513 12.14753,17.46555 3.76805,7.09265 5.69443,14.82751 5.941,22.8165 0.0139,9.66317 -2.72772,18.90482 -5.99841,27.89292 -3.44109,9.33032 -8.99052,17.49346 -15.25215,25.12239 -5.36751,6.83039 -12.39756,11.5413 -19.91215,15.66385 -6.79956,3.32201 -13.74341,3.55424 -21.05722,2.33582 -9.93084,-2.30144 -17.084393,-9.41799 -24.069691,-16.35491 -8.192674,-8.17355 -12.675031,-18.72818 -16.548934,-29.41859 -3.411539,-9.63706 -2.699877,-19.58913 -0.639708,-29.39795 1.264961,-7.7429 4.88814,-14.39855 9.709214,-20.45792 4.40722,-4.31496 10.471511,-6.50133 16.249727,-8.37708 4.115362,-1.13718 8.385322,-1.46595 12.633992,-1.61933 -1.58722,1.38629 6.53678,-1.28509 4.61812,-0.0489 -2.68067,1.7272 -1.97826,0.92744 -1.44421,0.14456 0.0751,-0.26084 0.15019,-0.52167 0.22528,-0.7825 0,0 2.56642,-1.22972 2.56642,-1.22972 l 0,0 c -0.0617,0.28847 -0.12336,0.57694 -0.18505,0.8654 -1.93307,3.23862 -4.96827,2.68436 -8.06602,2.72484 -4.23358,0.16714 -8.489261,0.5035 -12.580709,1.67808 -4.585856,1.51992 -8.085664,2.23738 -11.427829,5.53873 -4.859694,5.99812 -8.504245,12.63379 -9.783496,20.3475 -2.079316,9.75786 -2.825605,19.66599 0.559818,29.26484 3.847813,10.65718 8.315352,21.17437 16.485379,29.31321 6.957178,6.89998 14.090137,13.9669 23.993197,16.198 7.29132,1.16408 14.20469,0.8727 20.95163,-2.48299 5.51495,-1.99789 11.18311,-8.67558 15.14749,-12.80916 6.27286,-7.60033 11.849,-15.7296 15.30216,-25.04096 3.26474,-8.95634 6.03036,-18.15846 6.03066,-27.79103 -0.21708,-7.95401 -2.14081,-15.6528 -5.89199,-22.71188 -3.03742,-6.44906 -6.83645,-12.47725 -12.09409,-17.37347 -5.31092,-4.95435 -11.27811,-8.84291 -18.15534,-11.31833 -4.70465,-2.10158 -9.28475,-2.82812 -14.24448,-1.00732 -4.50531,1.47085 -8.53288,3.79242 -12.7712,5.87295 -2.09947,0.66097 -5.16712,2.52016 -6.40753,-0.28135 -0.94359,-3.47401 -0.22885,-6.75517 0.66256,-10.20032 1.27309,-4.95541 2.03319,-9.90573 2.42791,-15.01113 0.97824,-5.87271 2.46105,-11.64916 2.91555,-17.6015 1.26173,-7.62936 3.0282,-15.16466 3.84064,-22.86684 1.63841,-9.17311 3.67048,-18.27124 5.10301,-27.4833 0.92265,-8.13739 1.72652,-16.23614 1.30057,-24.44458 0.001,-8.24855 0.006,-16.49712 -0.0106,-24.74565 0,0 2.51734,-1.28265 2.51734,-1.28265 z"
       transform="translate(-456.70401,57.201286)" />
    <path
       style="color:#000000;fill:#000000;fill-opacity:1;fill-rule:nonzero;stroke:#000000;stroke-width:5.69999981;stroke-linecap:butt;stroke-linejoin:miter;stroke-miterlimit:4;stroke-opacity:1;stroke-dasharray:none;stroke-dashoffset:0;marker:none;visibility:visible;display:inline;overflow:visible;enable-background:accumulate"
       id="path2918"
       d="m 101.92794,403.14457 c 1.46913,-6.08274 3.72937,-11.84522 7.38725,-16.93138 2.98838,-3.74535 7.09198,-7.48555 12.17341,-7.05857 3.47607,1.53868 6.26098,4.57 8.45732,7.61574 2.09399,3.57155 4.73332,6.63514 7.52884,9.64236 2.11379,2.16379 4.73222,3.38577 7.58903,4.21721 1.12316,0.56961 5.15242,-0.13009 1.28441,0.67769 2.11755,-4.01209 3.44037,-8.4705 4.68526,-12.8297 1.97979,-4.44992 3.42656,-9.04432 4.25923,-13.8388 0,0 2.5415,-1.24102 2.5415,-1.24102 l 0,0 c -0.81462,4.80605 -2.22742,9.42758 -4.25343,13.86937 -1.23367,4.38083 -2.57928,8.8389 -4.63061,12.9005 -2.72201,2.11829 -3.27792,2.96687 -6.2352,2.06671 -2.88425,-0.87865 -5.52669,-2.15335 -7.66015,-4.35092 -2.80748,-3.01278 -5.43342,-6.10255 -7.54605,-9.673 -2.14869,-2.97085 -4.87902,-5.99983 -8.32597,-7.40509 -0.52247,-0.0283 -1.04502,-0.11423 -1.56743,-0.0848 -0.49825,0.0281 -1.01835,0.45756 -1.47503,0.25633 -0.28927,-0.12746 1.01487,-0.75385 0.75526,-0.57349 -1.898,1.31856 -3.6748,2.75799 -4.99378,4.69002 -3.68933,5.03396 -5.95611,10.75178 -7.43193,16.80807 0,0 -2.54193,1.24274 -2.54193,1.24274 z"
       transform="translate(-456.70401,57.201286)" />
    <path
       style="color:#000000;fill:#000000;fill-opacity:1;fill-rule:nonzero;stroke:#000000;stroke-width:5.69999981;stroke-linecap:butt;stroke-linejoin:miter;stroke-miterlimit:4;stroke-opacity:1;stroke-dasharray:none;stroke-dashoffset:0;marker:none;visibility:visible;display:inline;overflow:visible;enable-background:accumulate"
       id="path2920"
       d="m 135.87723,451.67565 c 1.99492,7.15317 3.54747,14.39277 4.52683,21.75239 1.61641,7.06962 2.64192,14.22187 3.21176,21.44485 0.0624,9.83254 1.31687,19.57939 2.22809,29.3544 0.75033,8.49063 0.97048,17.01187 1.09095,25.53043 0.0705,7.25816 0.0556,14.51686 0.0463,21.77527 0.75562,7.15766 1.77673,14.27045 2.3208,21.45201 0.43047,6.30547 0.49844,12.62696 0.53624,18.9445 0.018,5.74319 0.004,11.48642 -0.002,17.22962 -0.006,5.70672 -0.008,11.41344 -0.009,17.12016 -6.6e-4,5.71336 -5.4e-4,11.42671 -5.1e-4,17.14007 -0.13388,5.72043 0.32818,11.46745 -0.33425,17.15809 -0.95699,5.74099 -1.67845,11.48737 -3.00095,17.15709 -0.66872,2.97841 -1.26232,5.97276 -1.83651,8.97055 0,0 -2.55091,1.2391 -2.55091,1.2391 l 0,0 c 0.58354,-3.00264 1.18432,-6.00211 1.84779,-8.98829 1.32717,-5.66127 2.05547,-11.39487 3.01395,-17.12873 0.69744,-5.67705 0.20532,-11.41793 0.34907,-17.12798 -4e-5,-5.71336 -1.7e-4,-11.42673 4.6e-4,-17.14009 9.1e-4,-5.70679 0.002,-11.41359 0.008,-17.12037 0.006,-5.74283 0.0199,-11.48568 0.004,-17.2285 -0.035,-6.31284 -0.0975,-12.62966 -0.51999,-18.93091 -0.5378,-7.189 -1.55422,-14.30881 -2.32969,-21.47147 0.005,-7.25762 0.0272,-14.51545 -0.0419,-21.77286 -0.11257,-8.51356 -0.3271,-17.03023 -1.07021,-25.51629 -0.90275,-9.77522 -2.16521,-19.52045 -2.24175,-29.35178 -0.56341,-7.21852 -1.58156,-14.36758 -3.20715,-21.43041 -0.96684,-7.35634 -2.49801,-14.59838 -4.53971,-21.73485 0,0 2.4995,-1.326 2.4995,-1.326 z"
       transform="translate(-456.70401,57.201286)" />
    <path
       style="color:#000000;fill:#000000;fill-opacity:1;fill-rule:nonzero;stroke:#000000;stroke-width:5.69999981;stroke-linecap:butt;stroke-linejoin:miter;stroke-miterlimit:4;stroke-opacity:1;stroke-dasharray:none;stroke-dashoffset:0;marker:none;visibility:visible;display:inline;overflow:visible;enable-background:accumulate"
       id="path2922"
       d="m 938.73437,171.67565 c 1.17662,7.31935 1.81395,14.70626 2.19086,22.10516 0.75552,7.93464 -0.0857,15.76947 -0.9464,23.64529 -1.18227,9.32143 -0.99706,18.73486 -1.8275,28.07781 -0.81045,9.88091 -2.77936,19.59722 -4.03197,29.42304 -1.45385,9.74 -3.38511,19.3916 -5.05276,29.09401 -2.18281,7.93136 -3.07435,16.12058 -4.70788,24.15531 -1.18887,5.16701 -2.25233,10.36351 -2.81038,15.63911 -0.18031,1.95776 -0.29721,3.92138 -0.30978,5.88745 -1.37618,2.79807 -4.323,4.62594 -6.78959,6.38182 -5.65589,3.47022 -11.46508,6.68578 -17.48283,9.48137 -2.66279,2.41672 -7.13802,2.64545 -9.78207,4.99703 -0.23413,0.20823 0.61092,-0.13962 0.91638,-0.20943 -2.81188,2.28812 -2.99173,3.97172 -0.5538,6.51901 3.19893,2.53264 7.2315,3.37087 11.05096,4.55414 4.77854,1.0187 9.46599,2.33273 14.20867,3.49898 4.38719,0.63173 8.48792,2.30874 12.77067,3.35636 3.48297,1.3771 6.94382,2.69294 10.28882,4.36461 2.10691,1.36631 5.32845,2.35604 6.75331,4.55273 -0.0859,2.49961 -3.98661,3.95254 -5.86949,5.1476 -5.41878,3.64016 -11.57903,5.77094 -17.30415,8.8036 -5.66273,2.70042 -11.39625,5.26872 -17.1409,7.7958 -4.83107,1.5678 -9.44432,3.73167 -14.30925,5.19352 -0.43918,-0.17852 -11.95999,4.59816 -6.51201,2.31901 -1.5769,2.39755 3.3784,2.52376 4.80265,2.70548 4.78316,0.37705 9.58886,0.3226 14.3834,0.32684 5.00647,-0.41252 9.83666,0.91935 14.73387,1.71378 3.87453,0.89612 7.94768,0.48549 11.78763,1.43795 3.00278,0.93332 6.05547,1.65504 9.14349,2.23941 1.99157,2.23344 -4.60168,4.43223 -5.95536,5.18016 -4.69524,1.8492 -9.33773,3.84929 -13.87034,6.07206 -5.43877,2.99733 -11.23228,4.98242 -17.05628,7.03968 -4.42959,1.68656 -9.11735,2.41091 -13.48323,4.24576 -0.59748,0.58728 -11.08866,3.15739 -5.4036,1.43769 0.44966,2.72703 4.12403,3.96615 6.32533,5.15833 3.63549,1.33095 7.30845,2.54519 10.98603,3.77199 3.81182,1.03029 7.68416,1.32056 11.46611,2.45278 3.17039,1.34836 6.67229,1.32309 9.92018,2.28333 3.05669,1.14089 6.18624,1.9258 9.415,2.36108 3.0562,-0.081 5.79205,1.16483 8.64747,2.06245 1.34249,0.43895 4.37679,0.72326 2.6784,2.63825 -3.1576,1.78032 -4.58965,3.05519 -10.7886,6.29583 -4.11911,1.99543 -8.3352,3.44719 -12.81087,4.39482 -3.91451,1.304 -7.83383,2.56274 -11.91182,3.23025 1.44988,-0.45443 -5.68231,0.58975 -3.7629,0.8019 3.68531,0.40735 1.27754,-1.64104 3.11212,2.42808 2.63433,3.54141 5.40331,6.96693 7.99846,10.55143 2.29706,3.45228 4.36371,7.01614 6.40592,10.6267 1.60141,3.23514 3.35214,6.36444 4.57225,9.77511 1.71197,4.07199 3.34491,8.18457 4.90688,12.31983 1.67921,4.8003 3.14612,9.60752 4.10017,14.60852 0.32784,4.59171 1.12549,9.01007 2.16484,13.48446 0.71062,5.1679 1.7054,10.25187 2.75241,15.36281 1.11787,5.62258 1.40094,11.35361 1.5785,17.06837 0.1214,5.03148 0.10779,10.06463 0.10043,15.09713 -0.41459,4.86605 0.34532,9.52187 1.26283,14.26965 1.17705,5.57592 2.5115,11.13996 3.87074,16.68191 1.6798,7.28457 3.58589,14.49729 4.81023,21.87732 1.44201,7.07685 3.36014,14.06859 5.83439,20.85403 1.4777,4.8645 3.91482,9.34224 5.57697,14.13319 1.53385,4.88518 1.36426,9.81661 0.67961,14.81018 -2.22765,8.43831 -5.67918,16.56386 -9.12433,24.5776 -1.80712,4.183 -3.32267,8.47639 -5.00982,12.70754 0,0 -2.5418,1.1756 -2.5418,1.1756 l 0,0 c 1.69673,-4.23239 3.21035,-8.53029 5.01664,-12.71869 3.44153,-7.99076 6.86113,-16.09598 9.13258,-24.49779 0.68242,-4.95277 0.88955,-9.83538 -0.62939,-14.68694 -1.65123,-4.79424 -4.0917,-9.26973 -5.56199,-14.13598 -2.48307,-6.80072 -4.3943,-13.8139 -5.84978,-20.9051 -1.21646,-7.37409 -3.12942,-14.57636 -4.80868,-21.85336 -1.37402,-5.54155 -2.69505,-11.11408 -3.88623,-16.6898 -0.92269,-4.76511 -1.71613,-9.43181 -1.28809,-14.31775 0.006,-5.03048 0.0218,-10.06167 -0.0921,-15.09123 -0.17298,-5.69981 -0.44725,-11.41646 -1.5566,-17.02535 -1.045,-5.10837 -2.06052,-10.18495 -2.75568,-15.35264 -1.03975,-4.47883 -1.86342,-8.8962 -2.16818,-13.49581 -0.93808,-4.98939 -2.40339,-9.77876 -4.07856,-14.56449 -1.55796,-4.13814 -3.19563,-8.2512 -4.9154,-12.32104 -1.20644,-3.39935 -2.95957,-6.50878 -4.54472,-9.73454 -2.0374,-3.60111 -4.09818,-7.15623 -6.38801,-10.60071 -2.60269,-3.60303 -5.39488,-7.03465 -8.03497,-10.59608 -2.46418,-5.42233 1.2238,-5.78362 5.38553,-6.32743 4.06799,-0.70111 7.97427,-1.97921 11.89932,-3.23649 4.46177,-0.96376 8.65943,-2.46452 12.77299,-4.44489 -2.15294,2.30217 12.33734,-8.27809 5.93767,-3.46498 2.08313,-1.35597 -1.43731,-1.74213 -2.38731,-2.11229 -2.84226,-0.90222 -5.57749,-2.08483 -8.62018,-2.02306 -3.2342,-0.45638 -6.36466,-1.27384 -9.4348,-2.39629 -3.26394,-0.90398 -6.74636,-0.95514 -9.91923,-2.2875 -3.78298,-1.11834 -7.67536,-1.37616 -11.47145,-2.46099 -3.68548,-1.24386 -7.38888,-2.41902 -11.01544,-3.81176 -2.41462,-1.3191 -6.01917,-2.5636 -6.55452,-5.55881 0.98768,-0.76057 1.89637,-1.63658 2.96304,-2.2817 1.98861,-1.2027 5.35251,-0.42355 7.26659,-2.05853 4.37498,-1.79021 9.06347,-2.5222 13.48011,-4.22352 5.82887,-2.03844 11.59018,-4.09611 17.03634,-7.06552 4.54728,-2.20669 9.19474,-4.19754 13.88097,-6.08829 -0.3264,0.2171 -1.32262,0.84035 -0.9792,0.65131 1.22025,-0.67169 2.3706,-1.46953 3.61229,-2.10071 0.50783,-0.25814 -0.91905,0.67521 -1.40208,0.97722 -0.35843,0.2241 1.34594,-0.95226 0.18051,-1.30687 -3.08561,-0.60089 -6.13396,-1.34182 -9.14294,-2.25487 -3.84945,-0.87396 -7.89759,-0.54495 -11.76608,-1.42827 -4.88568,-0.80103 -9.7106,-2.08525 -14.70643,-1.67764 -4.80543,-0.005 -9.62374,0.0551 -14.41614,-0.34883 -1.7175,-0.23534 -6.62477,-0.50184 -5.12023,-3.2696 3.50179,-2.30073 7.29771,-4.06745 11.38286,-5.12031 4.84439,-1.49534 9.46871,-3.6098 14.27785,-5.21191 5.73751,-2.53929 11.48174,-5.08064 17.12882,-7.8109 4.24299,-2.21626 8.62334,-4.05452 12.84969,-6.30693 0.14035,-0.0748 -0.25159,0.19464 -0.37739,0.29196 1.83414,-1.17352 5.46742,-2.56797 6.04588,-4.73652 -1.3747,-2.15311 -4.62745,-3.07882 -6.65983,-4.43186 -3.32618,-1.66395 -6.78047,-2.96493 -10.2497,-4.31542 -4.27495,-1.068 -8.38567,-2.70686 -12.766,-3.35952 -4.74371,-1.17728 -9.44601,-2.45681 -14.21928,-3.51178 -3.86287,-1.19997 -7.93535,-2.05287 -11.13932,-4.66846 -2.48272,-2.61553 -2.58003,-4.53475 0.34844,-6.94043 4.38175,-2.92818 9.02411,-5.1779 13.70101,-7.59847 4.3646,-2.03861 8.56854,-4.16978 12.64658,-6.68788 2.48786,-1.76589 5.18679,-3.52203 6.87985,-6.12701 -7.7e-4,-1.97755 0.14067,-3.95186 0.3127,-5.92112 0.5478,-5.28852 1.62186,-10.49581 2.81678,-15.67307 1.66326,-8.02876 2.51249,-16.22944 4.72678,-24.15445 1.66627,-9.6998 3.59855,-19.34796 5.05969,-29.08389 1.25054,-9.82343 3.21492,-19.53667 4.0359,-29.41339 0.84626,-9.34236 0.6395,-18.7572 1.81929,-28.07964 0.85208,-7.86236 1.71739,-15.68092 0.96049,-23.6024 -0.37532,-7.38574 -0.99042,-14.7635 -2.19701,-22.0656 0,0 2.4995,-1.326 2.4995,-1.326 z"
       transform="translate(-456.70401,57.201286)" />
    <path
       style="color:#000000;fill:#000000;fill-opacity:1;fill-rule:nonzero;stroke:#000000;stroke-width:5.69999981;stroke-linecap:butt;stroke-linejoin:miter;stroke-miterlimit:4;stroke-opacity:1;stroke-dasharray:none;stroke-dashoffset:0;marker:none;visibility:visible;display:inline;overflow:visible;enable-background:accumulate"
       id="path3441"
       d="m 157.53941,212.30478 c 5.69946,-3.72534 10.49915,-8.60202 14.96016,-13.70169 3.06734,-3.57459 5.67679,-7.568 7.62446,-11.8578 2.63264,-4.70388 1.44205,-5.36942 6.74595,-6.6799 2.70202,4.42215 2.45129,10.29228 2.72033,15.32366 0.25494,6.93145 0.26386,13.86893 0.26812,20.80415 0.10303,3.88506 0.40237,8.4396 2.36068,11.90302 -0.0875,1.70473 2.93091,0.10245 2.22008,0.56492 -3.36717,2.19069 -0.14292,-1.40129 0.28809,-2.10709 2.86682,-5.73922 5.36128,-11.66455 7.84887,-17.58046 3.44483,-8.05909 7.19938,-15.98699 10.18561,-24.23499 2.21647,-5.06873 3.7718,-10.40491 6.2153,-15.36959 1.03439,-1.89905 1.70567,-4.44748 4.82796,-2.72435 0.23552,0.12998 0.38328,2.83926 0.45245,3.78011 0.13161,6.14785 -0.006,12.29834 -0.0639,18.44661 -0.0518,6.06836 -0.0669,12.13695 -0.0762,18.20549 -0.002,4.14325 -0.003,8.28649 0.001,12.42973 0.3787,2.42574 -0.96802,5.91088 0.77252,7.92587 0.12921,-0.0947 0.54426,-0.31773 0.38761,-0.28415 -0.68255,0.14628 -1.33766,0.85725 -1.99739,0.62916 -0.40389,-0.13963 0.4733,-0.7123 0.68772,-1.08196 0.96029,-1.65552 1.48925,-3.32393 2.00428,-5.15902 0.94083,-4.67422 3.10577,-8.95343 4.66726,-13.42893 1.14012,-4.66594 3.67958,-8.7286 5.64416,-13.0469 1.34376,-3.79481 2.5012,-7.65688 3.66291,-11.52153 1.30304,-3.56607 1.02327,-7.43004 1.91207,-11.06256 1.14399,-4.7213 3.64454,-6.18789 5.97776,-0.62308 1.599,3.55891 1.40434,7.51287 2.22862,11.24832 1.14021,3.87729 1.90804,7.81684 2.32077,11.83392 0.33476,3.65116 1.72175,7.09153 2.38342,10.6976 0.63038,3.62872 0.70745,7.32125 0.77804,10.99448 -0.23813,2.32505 1.34845,3.23082 -1.41251,1.94548 0,0 2.56152,-1.19579 2.56152,-1.19579 l 0,0 c -4.09187,4.33602 -3.50963,4.36186 -3.67267,0.54193 -0.0621,-3.6599 -0.13662,-7.33852 -0.75306,-10.9556 -0.65646,-3.61534 -2.0524,-7.06107 -2.39472,-10.71701 -0.40293,-4.00773 -1.1573,-7.93956 -2.30328,-11.80518 -0.8412,-3.71599 -0.62583,-7.65435 -2.20822,-11.20232 -0.2217,-0.52886 -0.41876,-1.06873 -0.6651,-1.58657 -0.21254,-0.44679 -0.86662,-0.83434 -0.70979,-1.3036 0.32079,-0.95982 1.32321,-1.53377 1.92902,-2.34443 0.0418,-0.0559 -1.93776,3.45711 -1.50309,3.24863 -0.96274,3.61765 -0.59054,7.50797 -1.91176,11.07482 -1.14542,3.8811 -2.34761,7.7369 -3.64948,11.55713 -1.93455,4.3278 -4.53221,8.3572 -5.65974,13.02609 -1.54114,4.4772 -3.72636,8.74183 -4.66803,13.40899 -0.79141,2.93215 -2.28843,8.27672 -6.07768,8.57731 -1.74884,-2.17857 -0.54442,-5.52554 -0.85652,-8.10432 0.003,-4.14528 3.1e-4,-8.29057 0.01,-12.43584 0.01,-6.07078 0.0375,-12.1415 0.0846,-18.2121 0.0514,-6.13877 0.19307,-12.27959 0.0576,-18.41785 -0.047,-0.67227 -0.065,-1.34721 -0.14099,-2.01682 -0.0643,-0.56636 -0.49788,-1.16053 -0.27942,-1.687 0.42045,-1.01328 1.41412,-1.68089 2.04833,-2.57604 0.63574,-0.8973 -2.70447,3.40307 -1.81708,2.75357 -2.47685,4.94947 -4.02303,10.28805 -6.25338,15.35172 -2.97546,8.25592 -6.73547,16.18526 -10.17997,24.24802 -2.4794,5.92293 -4.98758,11.84211 -7.8063,17.60674 -1.4319,2.38543 -4.80488,7.23641 -7.55699,4.10488 -1.96774,-3.5165 -2.31736,-8.09714 -2.41343,-12.03929 0.005,-6.93209 0.008,-13.86663 -0.25337,-20.79489 -0.26076,-4.93077 0.001,-10.73195 -2.61743,-15.07694 4.45544,-4.51463 -1.62978,2.09583 -1.77529,3.96596 -1.93488,4.31783 -4.53371,8.34347 -7.6068,11.94062 -4.44703,5.11007 -9.22283,10.02779 -14.9291,13.74341 0,0 -2.62453,1.05325 -2.62453,1.05325 z"
       transform="translate(-456.70401,57.201286)" />
    <path
       style="color:#000000;fill:#000000;fill-opacity:1;fill-rule:nonzero;stroke:#000000;stroke-width:5.69999981;stroke-linecap:butt;stroke-linejoin:miter;stroke-miterlimit:4;stroke-opacity:1;stroke-dasharray:none;stroke-dashoffset:0;marker:none;visibility:visible;display:inline;overflow:visible;enable-background:accumulate"
       id="path3443"
       d="m 166.11815,249.11978 c 4.60125,-4.31567 8.36647,-9.42148 12.68949,-13.98853 1.1483,-0.66716 2.20277,-1.53158 3.4449,-2.00149 1.96921,-0.74496 1.9031,5.87511 1.91824,6.25275 0.002,6.40098 0.28541,12.82124 -0.35062,19.19642 -1.1342,6.87648 -1.83164,13.79875 -2.24027,20.75279 -0.26762,5.15392 -0.32214,10.31472 -0.33878,15.47442 -0.002,1.7536 3.7e-4,3.50739 0.0206,5.26081 0,0 -2.5413,1.3003 -2.5413,1.3003 l 0,0 c -0.004,-1.75915 -0.005,-3.51832 -6.4e-4,-5.27747 0.0179,-5.16707 0.0805,-10.33494 0.34735,-15.49619 0.40611,-6.95749 1.08499,-13.88675 2.23644,-20.76439 0.66102,-6.35893 0.35292,-12.76663 0.3539,-19.15336 -0.0611,-1.52323 0.0698,-3.47723 -0.53765,-4.94567 -0.17252,-0.41703 -1.33592,-0.4458 -1.0795,-0.81719 0.30893,-0.44744 0.91977,-0.58017 1.37965,-0.87026 -4.38027,4.5124 -8.07714,9.69196 -12.69188,13.996 0,0 -2.60991,1.08106 -2.60991,1.08106 z"
       transform="translate(-456.70401,57.201286)" />
    <path
       style="color:#000000;fill:#000000;fill-opacity:1;fill-rule:nonzero;stroke:#000000;stroke-width:5.69999981;stroke-linecap:butt;stroke-linejoin:miter;stroke-miterlimit:4;stroke-opacity:1;stroke-dasharray:none;stroke-dashoffset:0;marker:none;visibility:visible;display:inline;overflow:visible;enable-background:accumulate"
       id="path3445"
       d="m 211.73877,300.16551 c 4.25676,-1.70327 8.56518,-3.47192 12.41302,-6.00807 0.75129,-0.49518 1.25566,-1.29553 1.95686,-1.85942 3.24997,-3.12946 3.93386,-7.04911 3.28736,-11.31895 -0.69532,-5.05547 -1.8113,-9.98821 -3.11008,-14.91855 -0.39736,-4.05414 -2.61376,-7.67474 -3.12924,-11.66756 -0.0199,-3.74275 4.51435,-4.62652 7.56794,-4.91761 4.08065,-0.40361 7.35402,1.46796 10.18715,4.19658 2.94475,3.64482 4.2587,7.97301 5.2291,12.46972 0.40747,4.69699 1.64239,9.23859 2.58295,13.84403 1.10562,3.89609 0.30481,7.5326 -0.61741,11.34144 -1.0983,3.55994 -0.63502,6.85983 0.20204,10.39224 1.09326,3.4286 3.94002,5.65454 6.58116,7.89664 1.25815,1.55734 6.51921,-0.69435 5.11273,-0.72046 0,0 2.62632,-1.04131 2.62632,-1.04131 l 0,0 c -3.27912,2.13192 -6.18173,5.117 -10.14551,3.26325 -2.68337,-2.28705 -5.54684,-4.57025 -6.66819,-8.05356 -0.84799,-3.56919 -1.36632,-6.90534 -0.26545,-10.5101 0.92626,-3.77394 1.78286,-7.3649 0.68146,-11.23427 -0.93386,-4.6061 -2.18732,-9.14387 -2.58075,-13.84191 -0.9455,-4.44619 -2.2318,-8.72396 -5.14997,-12.32117 -2.80459,-2.68444 -6.04108,-4.43459 -10.05445,-3.98996 -1.19524,0.12883 -4.59919,1.47441 -1.43913,-0.58529 0.91346,-0.59539 -2.44067,1.60697 -1.33782,2.49365 0.44233,3.98871 2.7481,7.59034 3.09925,11.6395 1.29474,4.94046 2.43066,9.87748 3.12863,14.94184 0.68248,4.33206 0.0734,8.34182 -3.16777,11.58848 -5.70957,4.65424 -12.37351,8.028 -19.22372,10.65603 0,0 2.23352,-1.73521 2.23352,-1.73521 z"
       transform="translate(-456.70401,57.201286)" />
    <path
       style="color:#000000;fill:#000000;fill-opacity:1;fill-rule:nonzero;stroke:#000000;stroke-width:5.69999981;stroke-linecap:butt;stroke-linejoin:miter;stroke-miterlimit:4;stroke-opacity:1;stroke-dasharray:none;stroke-dashoffset:0;marker:none;visibility:visible;display:inline;overflow:visible;enable-background:accumulate"
       id="path3459"
       d="m 987.90541,325.76191 c -6.58796,1.29035 -13.40084,1.15514 -19.95607,2.54147 -1.20418,0.12862 -7.56057,3.09117 -6.09925,-0.26664 3.29768,-4.02221 7.1366,-7.59065 10.82059,-11.2578 4.55705,-5.10286 6.64462,-9.1908 12.76509,-12.39587 2.5104,2.84369 -1.42718,9.21488 -2.53101,12.14897 -3.27554,7.64922 -6.5904,15.28989 -10.21808,22.78027 -2.08107,4.38734 -4.1274,8.78335 -5.33322,13.49882 -0.23589,1.07792 -0.11117,0.64671 -0.32025,1.308 0,0 -2.5856,1.20454 -2.5856,1.20454 l 0,0 c 0.26437,-0.62173 0.11064,-0.20503 0.34484,-1.28706 1.20166,-4.74117 3.24079,-9.159 5.34003,-13.56515 3.6414,-7.47652 6.94048,-15.11679 10.22564,-22.75473 0.94763,-2.54362 4.86001,-9.122 2.83687,-11.5814 0.51562,-0.36142 0.91721,-1.08919 1.54687,-1.08428 0.54816,0.004 -0.84048,0.70543 -1.23434,1.08672 -3.02892,2.93235 -5.29988,6.54799 -8.24105,9.56662 -3.66936,3.65431 -7.44074,7.23516 -10.82182,11.16095 -1.65829,2.77136 4.70584,-0.41377 5.75329,-0.26623 6.57583,-1.30777 13.37407,-1.2495 19.96911,-2.52993 0,0 -2.26164,1.69273 -2.26164,1.69273 z"
       transform="translate(-456.70401,57.201286)" />
    <path
       style="color:#000000;fill:#000000;fill-opacity:1;fill-rule:nonzero;stroke:#000000;stroke-width:5.69999981;stroke-linecap:butt;stroke-linejoin:miter;stroke-miterlimit:4;stroke-opacity:1;stroke-dasharray:none;stroke-dashoffset:0;marker:none;visibility:visible;display:inline;overflow:visible;enable-background:accumulate"
       id="path3461"
       d="m 1022.5601,343.62475 c -5.5239,2.44908 -11.2114,5.95043 -17.2948,3.55915 -4.4096,-3.86361 -1.3554,-10.28739 0.7437,-14.62071 4.1555,-7.16144 7.0995,-10.89372 14.4111,-14.81379 4.2363,-1.41388 6.5845,1.71001 8.5553,4.93024 2.1597,3.99803 3.1932,8.08651 1.8476,12.47853 -2.745,5.12299 -7.3199,7.76563 -12.2622,10.46815 -2.8205,1.18871 -1.3944,0.6732 -4.2759,1.55343 0,0 2.2361,-1.73026 2.2361,-1.73026 l 0,0 c 2.8578,-0.90977 1.4428,-0.38249 4.2426,-1.58873 2.2994,-1.40065 5.7943,-4.30536 7.4988,-7.49584 1.4259,-4.30403 0.3902,-8.32693 -1.7342,-12.26363 -1.9406,-3.15419 -4.194,-6.10476 -8.3195,-4.58972 0.7942,-0.8773 1.4694,-1.5857 -1.5738,1.26188 -2.3923,2.23856 -4.3199,4.78056 -6.1191,7.51129 -0.6741,1.02307 -1.2979,2.07838 -1.9469,3.11757 -2.0328,4.11556 -5.2304,10.49803 -0.9547,14.20227 6.0472,2.22428 11.6976,-1.3327 17.1532,-3.74547 0,0 -2.2073,1.76564 -2.2073,1.76564 z"
       transform="translate(-456.70401,57.201286)" />
    <path
       style="color:#000000;fill:#000000;fill-opacity:1;fill-rule:nonzero;stroke:#000000;stroke-width:5.69999981;stroke-linecap:butt;stroke-linejoin:miter;stroke-miterlimit:4;stroke-opacity:1;stroke-dasharray:none;stroke-dashoffset:0;marker:none;visibility:visible;display:inline;overflow:visible;enable-background:accumulate"
       id="path3463"
       d="m 1062.5056,350.75884 c -5.4001,-1.31939 -10.4635,-3.16277 -12.8961,-8.47871 -1.4072,-5.77966 2.5357,-8.36118 7.0043,-10.94072 4.0154,-1.99586 7.5305,-1.77823 11.4077,0.23614 3.9201,2.98455 4.1193,7.55023 3.7045,12.06572 -1.1114,5.55131 -4.0863,10.21354 -8.1182,14.07602 -4.7331,2.58082 -2.6663,1.94401 -5.9018,2.69483 0,0 2.2519,-1.72139 2.2519,-1.72139 l 0,0 c 1.8877,-0.50013 2.0491,-0.80743 1.0365,0.10084 4.0492,-3.79564 7.0488,-8.38153 8.2046,-13.8926 0.4271,-4.39468 0.3235,-8.88287 -3.5444,-11.76984 -3.8347,-1.94983 -7.3343,-2.0191 -11.2425,-0.0121 1.5015,-1.03232 -0.1332,0.0539 -0.8086,0.84523 -1.6258,1.90469 -2.103,4.55804 -1.5293,6.92682 2.3542,5.24134 7.4628,6.98188 12.7476,8.24466 0,0 -2.3162,1.62507 -2.3162,1.62507 z"
       transform="translate(-456.70401,57.201286)" />
    <path
       style="color:#000000;fill:#000000;fill-opacity:1;fill-rule:nonzero;stroke:#000000;stroke-width:5.69999981;stroke-linecap:butt;stroke-linejoin:miter;stroke-miterlimit:4;stroke-opacity:1;stroke-dasharray:none;stroke-dashoffset:0;marker:none;visibility:visible;display:inline;overflow:visible;enable-background:accumulate"
       id="path3465"
       d="m 1106.1108,363.73335 c 5.9874,-4.82948 9.0275,-11.33303 11.0148,-18.57245 1.177,-7.11537 -0.4535,-14.07673 -1.9027,-21.00278 -1.1594,-5.09207 -2.1235,-10.15681 0.7575,-14.78517 3.9835,-4.74767 9.9246,-7.3336 16.0231,-7.54794 6.7921,0.89912 11.853,5.42431 16.3825,10.20346 5.3764,6.10296 5.9005,11.36634 4.712,19.08618 -1.6522,7.5334 -6.083,13.95917 -9.8197,20.57569 -2.8037,4.99903 -4.9498,8.1342 -0.2339,12.50305 8.6659,5.06358 18.7726,3.43164 28.0359,1.26 0,0 -2.2066,1.68153 -2.2066,1.68153 l 0,0 c -9.344,2.15485 -19.5447,3.72905 -28.2321,-1.45771 -4.7889,-4.50566 -2.8646,-7.67968 0.071,-12.84155 3.7172,-6.60146 8.1687,-12.98768 9.8638,-20.48498 1.2008,-7.6497 0.7606,-12.80128 -4.591,-18.85994 -4.4883,-4.72248 -9.5095,-9.21368 -16.2569,-9.99776 -4.8191,0.2543 -8.235,1.12476 -11.1579,4.74168 -3.0058,4.50653 -1.999,9.56214 -0.8705,14.59612 1.4546,6.96674 3.1021,13.96187 1.9596,21.12255 -1.9647,7.27191 -4.9527,13.83331 -10.9246,18.72678 0,0 -2.6246,1.05324 -2.6246,1.05324 z"
       transform="translate(-456.70401,57.201286)" />
  </g>
</svg>
