<?xml version="1.0" encoding="UTF-8" standalone="no"?>
<!-- Created with Inkscape (http://www.inkscape.org/) -->

<svg
   xmlns:dc="http://purl.org/dc/elements/1.1/"
   xmlns:cc="http://creativecommons.org/ns#"
   xmlns:rdf="http://www.w3.org/1999/02/22-rdf-syntax-ns#"
   xmlns:svg="http://www.w3.org/2000/svg"
   xmlns="http://www.w3.org/2000/svg"
   xmlns:sodipodi="http://sodipodi.sourceforge.net/DTD/sodipodi-0.dtd"
   xmlns:inkscape="http://www.inkscape.org/namespaces/inkscape"
   width="968.05481"
   height="817.30762"
   id="svg2883"
   version="1.1"
   inkscape:version="0.47pre4 r22446"
   sodipodi:docname="New document 3">
  <defs
     id="defs2885">
    <inkscape:perspective
       sodipodi:type="inkscape:persp3d"
       inkscape:vp_x="0 : 526.18109 : 1"
       inkscape:vp_y="0 : 1000 : 0"
       inkscape:vp_z="744.09448 : 526.18109 : 1"
       inkscape:persp3d-origin="372.04724 : 350.78739 : 1"
       id="perspective2891" />
  </defs>
  <sodipodi:namedview
     id="base"
     pagecolor="#ffffff"
     bordercolor="#666666"
     borderopacity="1.0"
     inkscape:pageopacity="0.0"
     inkscape:pageshadow="2"
     inkscape:zoom="0.35"
     inkscape:cx="399.00573"
     inkscape:cy="367.83387"
     inkscape:document-units="px"
     inkscape:current-layer="layer1"
     showgrid="false"
     inkscape:window-width="1280"
     inkscape:window-height="726"
     inkscape:window-x="0"
     inkscape:window-y="25"
     inkscape:window-maximized="1" />
  <metadata
     id="metadata2888">
    <rdf:RDF>
      <cc:Work
         rdf:about="">
        <dc:format>image/svg+xml</dc:format>
        <dc:type
           rdf:resource="http://purl.org/dc/dcmitype/StillImage" />
        <dc:title></dc:title>
      </cc:Work>
    </rdf:RDF>
  </metadata>
  <g
     inkscape:label="Layer 1"
     inkscape:groupmode="layer"
     id="layer1"
     transform="translate(24.005734,-82.888419)">
    <path
       style="fill:#000000;fill-opacity:1;stroke:#000000;stroke-width:10;stroke-miterlimit:4;stroke-opacity:1;stroke-dasharray:none"
       id="path2893"
       d="m -16.209577,166.78852 c 14.0579258,1.73166 28.253023,1.90262 42.396699,2.18453 26.243883,0.36237 52.491364,0.32984 78.737178,0.34362 36.12977,-0.0755 72.26091,0.25259 108.38663,-0.34707 46.09983,-1.08584 92.20071,-2.11353 138.3146,-1.85666 47.89555,0.6818 95.59457,5.38518 143.1866,10.44635 45.55757,5.51151 91.30266,9.17841 136.98025,13.4964 39.78441,3.05145 79.44245,7.31997 118.98257,12.64225 33.19255,4.92147 66.26262,10.55767 99.54611,14.85417 26.33953,3.38014 52.647,7.0367 79.1951,8.1598 2.27854,-0.0496 4.55709,-0.0992 6.83564,-0.14885 0,0 2.69725,0.42303 2.69725,0.42303 l 0,0 c -4.07167,0.0463 -8.14335,0.0926 -12.21502,0.13887 -26.52618,-1.14992 -52.81321,-4.81615 -79.1324,-8.19243 -33.27022,-4.30749 -66.32859,-9.94392 -99.51004,-14.86078 -39.52578,-5.31812 -79.16939,-9.58076 -118.93841,-12.63839 -45.66854,-4.31779 -91.40348,-7.99582 -136.95233,-13.50354 -47.59263,-5.05755 -95.29284,-9.75296 -143.18894,-10.42035 -44.42436,-0.30898 -88.83771,0.8993 -133.24907,1.85993 -37.84884,0.63893 -75.70438,0.25871 -113.55753,0.36195 -26.270596,-0.0103 -52.542878,0.0247 -78.811548,-0.33722 -14.1783114,-0.28347 -28.4080624,-0.45789 -42.499496,-2.20333 0,0 2.796157,-0.40228 2.796157,-0.40228 z" />
    <path
       style="fill:#000000;fill-opacity:1;stroke:#000000;stroke-width:10;stroke-miterlimit:4;stroke-opacity:1;stroke-dasharray:none"
       id="path2895"
       d="m 913.63978,156.40077 c -11.46296,5.51842 -22.80306,11.29903 -34.06686,17.21763 -13.10585,7.04168 -26.06523,14.35661 -39.98196,19.68672 -1.9719,0.58874 -3.9438,1.17748 -5.9157,1.76622 0,0 -2.75214,-0.35487 -2.75214,-0.35487 l 0,0 c 1.97264,-0.58158 3.94529,-1.16316 5.91793,-1.74473 13.93309,-5.29068 26.89315,-12.60522 39.99675,-19.65169 11.24061,-5.91999 22.5642,-11.68876 33.99269,-17.23159 0,0 2.80929,0.31231 2.80929,0.31231 z" />
    <path
       style="fill:#000000;fill-opacity:1;stroke:#000000;stroke-width:10;stroke-miterlimit:4;stroke-opacity:1;stroke-dasharray:none"
       id="path2897"
       d="m 785.41379,122.4272 c -8.49106,8.31406 -17.23879,16.36253 -26.16769,24.20518 -11.66231,10.136 -24.0059,19.26138 -37.6831,26.46714 -8.11694,3.64829 -16.68919,8.91777 -25.86908,9.29149 -2.19974,0.0896 -4.40151,-0.11936 -6.60226,-0.17904 -4.58169,-1.21864 -2.43981,-0.37523 -6.45164,-2.46321 0,0 2.79635,-0.30835 2.79635,-0.30835 l 0,0 c 4.00085,2.00758 1.86652,1.20208 6.42897,2.34649 7.53531,1.4618 20.24264,-6.10544 26.95362,-8.98691 13.68741,-7.16431 26.02412,-16.27684 37.68162,-26.40154 8.91701,-7.83549 17.67048,-15.86232 26.09657,-24.22432 0,0 2.81664,0.25307 2.81664,0.25307 z" />
    <path
       style="fill:#000000;fill-opacity:1;stroke:#000000;stroke-width:10;stroke-miterlimit:4;stroke-opacity:1;stroke-dasharray:none"
       id="path2899"
       d="m 696.84236,110.99863 c -9.94461,7.81476 -20.14908,15.21277 -30.62109,22.30965 -14.9227,10.36674 -31.35412,18.13317 -47.87334,25.54946 -15.06417,6.85008 -31.03071,11.32646 -47.0689,15.22014 -2.16299,0.34712 -4.32598,0.69424 -6.48896,1.04135 0,0 -2.74194,-0.39018 -2.74194,-0.39018 l 0,0 c 2.16563,-0.33929 4.33126,-0.67858 6.49689,-1.01787 16.04263,-3.87271 32.01489,-8.33455 47.08577,-15.16706 16.51323,-7.401 32.94071,-15.14905 47.8583,-25.50307 10.4487,-7.08707 20.6378,-14.46203 30.53663,-22.29549 0,0 2.81664,0.25307 2.81664,0.25307 z" />
    <path
       style="fill:#000000;fill-opacity:1;stroke:#000000;stroke-width:10;stroke-miterlimit:4;stroke-opacity:1;stroke-dasharray:none"
       id="path2901"
       d="m 553.2958,102.4487 c -11.8177,6.73326 -22.9731,14.60126 -34.18904,22.28747 -14.58355,10.36402 -29.30217,20.50752 -44.76789,29.51876 -11.86626,7.30349 -24.82096,11.96 -38.47567,14.39205 -7.02659,0.39615 -3.13518,0.37083 -11.67266,-0.20591 0,0 2.77095,-0.40774 2.77095,-0.40774 l 0,0 c 2.9349,0.93064 0.93594,0.48065 6.14279,0.22592 13.66349,-2.38542 26.63635,-6.99074 38.50938,-14.28981 15.47098,-8.99163 30.18895,-19.12669 44.75992,-29.49913 11.19919,-7.68568 22.34115,-15.54307 34.11736,-22.31768 0,0 2.80486,0.29607 2.80486,0.29607 z" />
    <path
       style="fill:#000000;fill-opacity:1;stroke:#000000;stroke-width:10;stroke-miterlimit:4;stroke-opacity:1;stroke-dasharray:none"
       id="path2903"
       d="m 445.41379,93.855769 c -10.44955,8.646771 -21.5305,16.498331 -32.34712,24.678241 -15.37949,12.11572 -32.20545,22.05059 -49.58485,30.96517 -12.432,6.61881 -25.6159,11.76304 -39.68325,13.19948 0,0 -2.75681,-0.40882 -2.75681,-0.40882 l 0,0 c 14.08073,-1.34688 27.28189,-6.48894 39.72287,-13.09004 17.38006,-8.89239 34.2117,-18.80116 49.57986,-30.91775 10.79042,-8.17251 21.85067,-16.01537 32.25266,-24.679346 0,0 2.81664,0.253065 2.81664,0.253065 z" />
    <path
       style="fill:#000000;fill-opacity:1;stroke:#000000;stroke-width:10;stroke-miterlimit:4;stroke-opacity:1;stroke-dasharray:none"
       id="path2905"
       d="m 325.06905,91.010656 c -11.80729,7.702831 -23.32408,15.858524 -34.88301,23.930484 -18.06405,13.00105 -37.13765,24.49485 -56.60424,35.24772 -17.28984,9.51406 -35.51869,17.00818 -54.38217,22.72226 0,0 -2.72261,-0.34973 -2.72261,-0.34973 l 0,0 c 18.87587,-5.68179 37.11531,-13.15711 54.41389,-22.66056 19.46074,-10.7395 38.53338,-22.21374 56.5793,-35.22139 11.53111,-8.07155 23.02706,-16.215366 34.78815,-23.945909 0,0 2.81069,0.277125 2.81069,0.277125 z" />
    <path
       style="fill:#000000;fill-opacity:1;stroke:#000000;stroke-width:10;stroke-miterlimit:4;stroke-opacity:1;stroke-dasharray:none"
       id="path2907"
       d="m 125.41359,108.46754 c -9.57165,9.56168 -20.27092,17.94089 -31.053248,26.08296 -11.183358,8.76556 -22.582475,17.21431 -35.715566,22.77816 0,0 -2.764021,-0.32551 -2.764021,-0.32551 l 0,0 c 13.157155,-5.50635 24.56616,-13.93293 35.74236,-22.70638 10.764515,-8.11864 21.453025,-16.47791 30.974235,-26.05088 0,0 2.81624,0.22165 2.81624,0.22165 z" />
    <path
       style="fill:#000000;fill-opacity:1;stroke:#000000;stroke-width:10;stroke-miterlimit:4;stroke-opacity:1;stroke-dasharray:none"
       id="path2909"
       d="m 56.842361,88.141483 c -10.431424,8.40616 -21.551409,15.939427 -32.350912,23.867037 -9.166695,6.97247 -18.6746402,13.45827 -28.339709,19.71252 0,0 -2.7358582,-0.27367 -2.7358582,-0.27367 l 0,0 c 9.6706729,-6.24267 19.1860222,-12.71555 28.3455462,-19.69545 10.773809,-7.92109 21.878905,-15.44059 32.26429,-23.863501 0,0 2.816643,0.253064 2.816643,0.253064 z" />
    <path
       style="fill:#000000;fill-opacity:1;stroke:#000000;stroke-width:10;stroke-miterlimit:4;stroke-opacity:1;stroke-dasharray:none"
       id="path2911"
       d="m 217.52935,88.763982 c -5.20074,9.849171 -11.4199,19.091188 -18.07063,28.007328 -9.73426,13.63188 -21.62547,25.46875 -32.99805,37.70179 -5.64886,6.23604 -11.69484,12.08811 -17.57633,18.10075 0,0 -2.7426,-0.21286 -2.7426,-0.21286 l 0,0 c 5.88412,-6.0113 11.93941,-11.85495 17.58777,-18.09282 11.36279,-12.22406 23.24961,-24.0489 32.97063,-37.67392 6.63791,-8.89507 12.84791,-18.116163 18.00565,-27.961276 0,0 2.82356,0.131008 2.82356,0.131008 z" />
    <path
       style="fill:#000000;fill-opacity:1;stroke:#000000;stroke-width:10;stroke-miterlimit:4;stroke-opacity:1;stroke-dasharray:none"
       id="path2913"
       d="m 440.26,176.45985 c 5.43623,5.65488 11.65588,10.45576 17.19756,15.99289 6.18269,6.81657 11.87808,14.01567 17.75157,21.08952 8.24869,10.37186 17.14952,20.19728 25.84465,30.19207 12.88569,14.51135 26.11265,28.73933 40.30752,41.97824 16.7898,15.26948 34.28157,29.74356 52.28843,43.55005 15.54632,11.45284 30.469,23.67133 45.37084,35.93571 10.51544,9.17073 21.40716,17.84137 32.845,25.83022 7.4252,5.18899 14.95049,10.17313 21.70596,16.22646 1.85852,1.98211 3.89447,3.60394 6.27188,4.88399 0,0 -2.81336,0.30091 -2.81336,0.30091 l 0,0 c -2.34805,-1.33361 -4.39373,-2.97385 -6.25725,-4.94895 -6.75308,-6.0295 -14.26659,-11.00873 -21.67171,-16.19608 -11.42458,-8.00203 -22.2998,-16.68732 -32.81307,-25.85497 -14.88453,-12.26976 -29.80805,-24.47053 -45.33704,-35.92928 -18.00453,-13.81948 -35.49652,-28.3029 -52.29109,-43.57604 -14.20143,-13.25553 -27.4512,-27.48334 -40.35192,-42.00327 -8.70572,-9.99719 -17.62117,-19.82113 -25.88024,-30.19612 -5.86523,-7.07467 -11.57761,-14.25309 -17.76125,-21.0622 -5.55865,-5.51617 -11.74556,-10.35182 -17.22313,-15.96009 0,0 2.81665,-0.25306 2.81665,-0.25306 z" />
    <path
       style="fill:#000000;fill-opacity:1;stroke:#000000;stroke-width:10;stroke-miterlimit:4;stroke-opacity:1;stroke-dasharray:none"
       id="path2915"
       d="m 706.36171,417.21676 c 7.20766,-2.40091 14.13794,-5.06432 21.75736,-5.67781 8.78597,-0.57541 14.93423,3.69906 21.34095,9.0629 5.50617,5.43177 9.76877,11.94553 12.37621,19.21097 2.39547,7.03362 2.01328,13.70264 -1.20611,20.332 -4.59879,7.92886 -12.15308,12.87386 -19.74923,17.59052 -10.47213,6.18303 -21.99699,8.98646 -33.90466,10.66542 -9.46309,0.91297 -19.35341,1.29808 -28.64886,-1.13096 -5.30048,-1.3851 -6.65198,-2.41588 -11.50326,-4.90485 -12.04165,-7.32063 -16.97856,-17.34916 -20.36219,-30.52921 -1.99664,-12.22768 0.46462,-22.54027 7.38214,-32.66365 7.12552,-8.37841 16.43554,-12.12705 26.90768,-14.295 6.47158,-0.87023 3.26912,-0.51808 9.60607,-1.06831 0,0 2.76365,0.41362 2.76365,0.41362 l 0,0 c -6.33708,0.53203 -3.13502,0.19064 -9.60495,1.03554 -10.44553,2.11359 -19.74234,5.77047 -26.89409,14.08151 -6.92121,10.03373 -9.37354,20.27236 -7.38627,32.42644 3.3812,13.12346 8.31842,23.05824 20.34435,30.29479 10.97059,5.55455 22.37332,7.85407 34.65011,5.94422 11.89397,-1.64794 23.40667,-4.40386 33.87984,-10.55197 7.56281,-4.68032 15.09924,-9.57292 19.71134,-17.43605 3.23141,-6.54665 3.58616,-13.14759 1.20954,-20.10693 -2.61526,-7.21603 -6.86059,-13.69074 -12.36719,-19.06269 -4.78585,-3.97871 -9.58745,-7.50943 -15.76624,-8.89001 -7.62175,0.55826 -14.53611,3.17763 -21.72988,5.61187 0,0 -2.80631,-0.35236 -2.80631,-0.35236 z" />
    <path
       style="fill:#000000;fill-opacity:1;stroke:#000000;stroke-width:10;stroke-miterlimit:4;stroke-opacity:1;stroke-dasharray:none"
       id="path2917"
       d="m 676.84216,491.32468 c -6.5995,6.83455 -13.54803,13.3017 -20.38237,19.89238 -9.74421,8.79983 -19.48768,17.59293 -28.66782,26.98419 -11.41363,12.47493 -23.40603,24.38315 -35.19087,36.50134 -11.46445,11.97553 -23.79381,23.07952 -35.81209,34.48968 -11.05162,9.7594 -22.08378,19.52662 -33.10851,29.3163 -9.41638,8.26831 -18.88143,16.50739 -27.57709,25.54029 -8.17881,8.21718 -16.12841,16.65259 -23.96597,25.19623 -6.13175,6.73568 -12.44125,13.30484 -18.81478,19.811 -4.47465,4.56057 -8.9921,9.07887 -13.51205,13.59445 -3.10459,2.39028 -5.22526,6.26832 -8.59893,8.29792 -1.16786,-0.51975 -2.33571,-1.03951 -3.50357,-1.55926 0,0 2.83302,-0.12174 2.83302,-0.12174 l 0,0 c -0.71961,0.45908 -1.43921,0.91816 -2.15882,1.37724 3.47996,-1.72059 5.47775,-5.99277 8.61939,-8.21532 4.52045,-4.51892 9.04502,-9.03387 13.52778,-13.59028 6.37718,-6.50416 12.6928,-13.06904 18.83072,-19.80063 7.84414,-8.54188 15.78858,-16.98643 23.97326,-25.20213 8.69029,-9.05008 18.16632,-17.29167 27.59295,-25.56105 11.03224,-9.78253 22.05318,-19.56352 33.12125,-29.30592 12.01742,-11.41089 24.35235,-22.50877 35.82299,-34.47781 11.78049,-12.11796 23.7715,-24.02309 35.17504,-36.50308 9.16126,-9.40236 18.89298,-18.20171 28.63618,-26.99492 6.81782,-6.59355 13.78242,-13.03143 20.34405,-19.89052 0,0 2.81624,0.22164 2.81624,0.22164 z" />
    <path
       style="fill:#000000;fill-opacity:1;stroke:#000000;stroke-width:10;stroke-miterlimit:4;stroke-opacity:1;stroke-dasharray:none"
       id="path2919"
       d="m 348.9915,810.37711 c -4.19322,-9.15096 -4.11873,-18.78478 -1.69889,-28.35317 3.71934,-12.1295 12.44706,-20.49889 22.30612,-27.86792 10.47653,-7.98943 22.49519,-12.11332 35.27477,-14.54265 12.44659,-2.33021 24.7091,-1.79476 36.64532,2.31676 9.96508,3.91633 14.01676,9.17664 15.54893,19.62994 0.24326,12.08991 -5.56487,22.63193 -12.34047,32.22262 -10.61566,13.08723 -21.31247,19.02903 -37.27413,23.60989 -13.98363,2.94632 -29.2175,3.98181 -42.75297,-1.52475 -2.24237,-0.91225 -4.31552,-2.19498 -6.47328,-3.29247 -11.99484,-9.25953 -13.23417,-17.30587 -12.65095,-31.76209 0,0 2.74957,0.011 2.74957,0.011 l 0,0 c -0.57011,14.36284 0.6756,22.31453 12.64521,31.44734 2.15382,1.08287 4.22425,2.3506 6.46145,3.24863 11.99476,4.8148 24.9086,4.35916 37.29224,1.51753 15.94648,-4.51731 26.61602,-10.37936 37.23834,-23.42563 6.75497,-9.51582 12.55082,-19.99494 12.30952,-32.01105 -1.54454,-10.37301 -5.63576,-15.48308 -15.51931,-19.32581 -10.30443,-3.49442 -20.37473,-4.51465 -31.13247,-2.27913 -12.76931,2.38667 -24.78544,6.4503 -35.26038,14.4175 -9.8346,7.31155 -18.56165,15.60565 -22.28692,27.67935 -2.41448,9.50283 -2.48698,19.08527 1.74186,28.15311 0,0 -2.82356,0.13101 -2.82356,0.13101 z" />
    <path
       style="fill:#000000;fill-opacity:1;stroke:#000000;stroke-width:10;stroke-miterlimit:4;stroke-opacity:1;stroke-dasharray:none"
       id="path2921"
       d="m 441.06834,172.25668 c -1.11124,11.33573 -2.40345,22.66571 -4.27746,33.90345 -1.15374,6.11192 -2.16953,12.24438 -2.98357,18.41023 0,0 -2.80434,-0.037 -2.80434,-0.037 l 0,0 c 0.82254,-6.16911 1.84824,-12.30427 3.00919,-18.41924 1.87986,-11.23134 3.18805,-22.55566 4.23597,-33.89251 0,0 2.82021,0.0351 2.82021,0.0351 z" />
    <path
       style="fill:#000000;fill-opacity:1;stroke:#000000;stroke-width:10;stroke-miterlimit:4;stroke-opacity:1;stroke-dasharray:none"
       id="path2923"
       d="m 432.50134,271.57898 c -1.17894,7.73712 -0.44095,15.64662 -0.13569,23.43584 0.14397,3.49512 0.23634,6.99189 0.32259,10.48878 0,0 -2.81318,0.007 -2.81318,0.007 l 0,0 c -0.0836,-3.49551 -0.17316,-6.99092 -0.31395,-10.48473 -0.30025,-7.80945 -1.03054,-15.73237 0.11117,-23.49344 0,0 2.82906,0.0467 2.82906,0.0467 z" />
    <path
       style="fill:#000000;fill-opacity:1;stroke:#000000;stroke-width:10;stroke-miterlimit:4;stroke-opacity:1;stroke-dasharray:none"
       id="path2925"
       d="m 432.84121,386.1831 c -0.46662,8.87675 -2.0097,17.58743 -3.64451,26.30295 -1.24839,4.36132 -0.60547,2.25091 -1.91739,6.33468 0,0 -2.81419,-0.0878 -2.81419,-0.0878 l 0,0 c 1.31655,-4.06651 0.67016,-1.9679 1.92891,-6.29898 1.64044,-8.6961 3.20476,-17.3872 3.62191,-26.25083 0,0 2.82527,0 2.82527,0 z" />
    <path
       style="fill:#000000;fill-opacity:1;stroke:#000000;stroke-width:10;stroke-miterlimit:4;stroke-opacity:1;stroke-dasharray:none"
       id="path2927"
       d="m 494.67221,265.90684 c -3.85616,8.44498 -10.65613,14.37155 -17.7179,20.08137 -7.87964,6.16126 -16.9279,10.3939 -26.53967,12.99384 0,0 -2.77084,-0.36481 -2.77084,-0.36481 l 0,0 c 9.60697,-2.54764 18.65181,-6.74435 26.52999,-12.87759 7.03797,-5.67479 13.85893,-11.53721 17.67485,-19.96382 0,0 2.82357,0.13101 2.82357,0.13101 z" />
    <path
       style="fill:#000000;fill-opacity:1;stroke:#000000;stroke-width:10;stroke-miterlimit:4;stroke-opacity:1;stroke-dasharray:none"
       id="path2929"
       d="m 511.47123,328.78147 c -4.76371,7.22746 -10.37985,13.78741 -17.36886,18.91614 -5.0674,2.91414 -11.06234,6.02069 -16.96903,3.70791 -3.52927,-2.03094 -5.49104,-5.62174 -5.89967,-9.58718 -0.1705,-4.89187 3.2902,-8.15867 6.69451,-11.16898 5.03167,-3.68309 10.97647,-3.88605 16.96374,-3.73789 5.74447,1.3144 8.83371,5.3902 11.49895,10.2987 3.3757,7.56083 2.2731,15.53514 0.95342,23.41148 -1.85643,7.60306 -4.44883,15.23694 -9.66955,21.18723 -6.06189,4.51409 -13.56537,5.47335 -20.85422,3.91951 -5.96062,-1.92299 -10.19693,-5.7553 -13.65716,-10.81952 0,0 2.803,-0.16906 2.803,-0.16906 l 0,0 c 3.46127,5.00057 7.70728,8.77389 13.64304,10.60435 5.6395,1.10376 10.54088,-0.35169 15.25811,-3.73924 5.25444,-5.86582 7.81546,-13.47807 9.67884,-21.02968 1.30736,-7.81646 2.42386,-15.73211 -0.96963,-23.22426 -2.65865,-4.83812 -5.75901,-8.84717 -11.47779,-10.01361 3.19994,-1.16308 -14.4993,2.92583 -11.35531,3.55227 -3.35788,2.91384 -6.83445,6.10827 -6.67916,10.89924 0.41071,3.87636 2.37143,7.38 5.88047,9.27182 0.57261,0.19428 1.21578,0.24583 1.71782,0.58284 0.21581,0.14487 -1.02317,0.13508 -0.77832,0.0478 3.54556,-1.26358 7.32341,-1.87882 10.42472,-4.25741 7.0025,-5.0658 12.61793,-11.59649 17.34265,-18.81846 0,0 2.81943,0.16598 2.81943,0.16598 z" />
    <path
       style="fill:#000000;fill-opacity:1;stroke:#000000;stroke-width:10;stroke-miterlimit:4;stroke-opacity:1;stroke-dasharray:none"
       id="path2931"
       d="m 707.47058,505.81797 c 1.48804,8.44965 1.8658,16.93642 1.36313,25.48131 -0.42129,4.92895 -0.56032,9.88085 -1.53945,14.73541 0,0 -2.81809,-0.0568 -2.81809,-0.0568 l 0,0 c 0.9998,-4.83766 1.13753,-9.77937 1.56302,-14.69504 0.49991,-8.52475 0.1312,-16.99428 -1.39767,-25.41819 0,0 2.82906,-0.0467 2.82906,-0.0467 z" />
    <path
       style="fill:#000000;fill-opacity:1;stroke:#000000;stroke-width:10;stroke-miterlimit:4;stroke-opacity:1;stroke-dasharray:none"
       id="path2933"
       d="m 712.50134,554.43613 c -1.92083,7.94351 -4.07918,15.83284 -5.84266,23.81342 -1.03471,7.33932 -2.80347,14.53829 -4.05205,21.83923 -0.38422,2.26718 -0.67455,4.54562 -0.91558,6.8315 0,0 -2.83061,-0.0299 -2.83061,-0.0299 l 0,0 c 0.24383,-2.29244 0.54301,-4.57612 0.93223,-6.84935 1.25176,-7.30588 3.03381,-14.50721 4.068,-21.85228 1.75617,-7.9752 3.92475,-15.8544 5.81161,-23.79939 0,0 2.82906,0.0467 2.82906,0.0467 z" />
    <path
       style="fill:#000000;fill-opacity:1;stroke:#000000;stroke-width:10;stroke-miterlimit:4;stroke-opacity:1;stroke-dasharray:none"
       id="path2935"
       d="m 707.47058,625.81797 c 0.97135,6.04355 1.54042,12.13803 1.98698,18.23928 0,0 -2.80787,0.0205 -2.80787,0.0205 l 0,0 c -0.44344,-6.09346 -1.00427,-12.18219 -2.00817,-18.21301 0,0 2.82906,-0.0467 2.82906,-0.0467 z" />
    <path
       style="fill:#000000;fill-opacity:1;stroke:#000000;stroke-width:10;stroke-miterlimit:4;stroke-opacity:1;stroke-dasharray:none"
       id="path2937"
       d="m 710.32772,671.53226 c 1.71189,8.44269 1.40068,16.94867 0.8828,25.48156 -0.36665,5.33236 -0.65917,10.66899 -0.91628,16.00758 0,0 -2.81295,-0.0139 -2.81295,-0.0139 l 0,0 c 0.27049,-5.33925 0.5659,-10.67706 0.93472,-16.01059 0.51444,-8.51287 0.83572,-17.00087 -0.91735,-25.41794 0,0 2.82906,-0.0467 2.82906,-0.0467 z" />
    <path
       style="fill:#000000;fill-opacity:1;stroke:#000000;stroke-width:10;stroke-miterlimit:4;stroke-opacity:1;stroke-dasharray:none"
       id="path2939"
       d="m 636.72108,551.84026 c 3.86217,9.32825 10.60191,16.22331 18.84685,21.75101 9.87454,4.82721 15.41499,3.76559 25.37185,0.43982 5.86909,-2.23097 11.01467,-5.67713 15.77934,-9.6935 0,0 2.79044,0.2429 2.79044,0.2429 l 0,0 c -4.76681,4.05259 -9.92211,7.52742 -15.80255,9.7971 -10.30027,3.50417 -20.94769,4.74437 -30.91703,-0.51377 -8.25697,-5.58793 -14.97939,-12.56465 -18.88905,-21.90931 0,0 2.82015,-0.11425 2.82015,-0.11425 z" />
    <path
       style="fill:#000000;fill-opacity:1;stroke:#000000;stroke-width:10;stroke-miterlimit:4;stroke-opacity:1;stroke-dasharray:none"
       id="path2941"
       d="m 642.20972,630.36474 c -7.91865,3.02134 -15.86286,3.40043 -24.19775,2.77751 -5.10514,-1.44657 -9.06483,-4.64501 -9.79823,-10.02294 -0.26462,-4.70374 2.69719,-7.50368 6.30878,-9.88333 5.2123,-2.97564 11.1522,-3.60764 16.95226,-2.04154 4.79713,1.24091 8.24431,4.09896 11.10643,7.99346 4.05126,5.97939 2.54386,12.67229 0.91666,19.20541 -2.84275,9.12474 -8.98066,16.60389 -15.10331,23.74455 -4.1341,4.14588 -8.82645,8.74269 -14.96272,9.14595 -1.46624,-0.29675 -3.02371,-0.30094 -4.39873,-0.89023 -3.07323,-1.3171 -3.90517,-10.05031 -4.2367,-12.76883 -0.20126,-5.0352 1.21473,-9.87443 2.81751,-14.58437 0,0 2.80586,0.0924 2.80586,0.0924 l 0,0 c -1.59969,4.66657 -3.01417,9.46441 -2.81,14.45769 0.37135,3.01774 0.64831,6.16371 1.80011,9.01603 0.2841,0.70353 0.64687,1.3811 1.0825,2.0023 0.38384,0.54736 1.31637,0.80936 1.35717,1.47664 0.0293,0.47973 -0.81324,0.51248 -1.21986,0.76872 6.14093,-0.2021 10.84263,-4.81148 14.97687,-8.91445 6.10846,-7.10017 12.2427,-14.53342 15.08959,-23.6148 1.60977,-6.45973 3.11963,-13.06512 -0.93432,-18.9572 -2.85923,-3.84094 -6.33679,-6.60548 -11.08796,-7.80199 -0.76789,-0.18962 -1.56234,-0.2931 -2.30367,-0.56888 -0.13739,-0.0511 0.56606,-0.13104 0.41947,-0.13207 -3.37583,-0.0236 -6.51783,1.02107 -9.45249,2.65117 -3.54497,2.30416 -6.55706,4.9274 -6.29596,9.56443 0.74324,5.27154 4.75613,8.32238 9.75621,9.65902 2.16213,2.25948 15.48964,-1.85583 18.60597,-2.72698 0,0 2.80631,0.35235 2.80631,0.35235 z" />
    <path
       style="fill:#000000;fill-opacity:1;stroke:#000000;stroke-width:10;stroke-miterlimit:4;stroke-opacity:1;stroke-dasharray:none"
       id="path2943"
       d="m 649.22124,674.67936 c 5.63762,-0.19164 12.88198,-1.61877 15.63664,4.45205 0.73193,4.19438 -0.006,8.3373 0.66293,12.54463 1.24224,4.08179 4.08634,6.17518 7.93978,7.58443 4.00243,1.40064 7.51918,0.71587 11.56942,-0.16159 0,0 2.78666,0.37922 2.78666,0.37922 l 0,0 c -5.62522,1.27641 -11.558,1.87991 -17.16256,0.12402 -3.89557,-1.50252 -6.74647,-3.7248 -7.96302,-7.88165 -0.65933,-4.18239 0.0637,-8.29979 -0.66129,-12.46558 -2.26436,-4.71946 -5.44262,-4.45944 -10.00702,-4.17912 0,0 -2.80154,-0.39641 -2.80154,-0.39641 z" />
    <path
       style="fill:#000000;fill-opacity:1;stroke:#000000;stroke-width:10;stroke-miterlimit:4;stroke-opacity:1;stroke-dasharray:none"
       id="path2945"
       d="m 540.72792,406.22239 c -2.38859,8.92062 -4.19519,18.09436 -3.2433,27.33386 0,0 -2.80144,0.0283 -2.80144,0.0283 l 0,0 c -0.92617,-9.27485 0.86615,-18.47571 3.22184,-27.44076 0,0 2.8229,0.0786 2.8229,0.0786 z" />
    <path
       style="fill:#000000;fill-opacity:1;stroke:#000000;stroke-width:10;stroke-miterlimit:4;stroke-opacity:1;stroke-dasharray:none"
       id="path2947"
       d="m 620.3007,319.11397 c 6.3372,-6.36108 10.64734,-14.12191 14.68845,-22.0393 3.83934,-8.04996 6.58585,-16.4344 8.20977,-25.19043 0.42868,-4.14645 2.46864,-9.13241 -0.93206,-12.41283 -2.4686,-1.27687 -2.10755,-1.36338 -5.42838,1.46686 -4.27128,5.08396 -5.10543,11.54369 -5.90957,17.90453 -1.73402,10.16031 -2.73295,20.41188 -3.34726,30.69387 0.22978,7.08084 0.38369,14.44954 3.4881,20.94821 0.36502,0.67999 0.6739,1.39325 1.09505,2.03997 2.24052,3.44053 8.09799,4.636 6.5499,3.25466 3.40075,-1.21892 6.35837,-3.29731 9.37051,-5.23606 0,0 2.8001,0.28036 2.8001,0.28036 l 0,0 c -3.02566,1.95592 -5.99308,4.03598 -9.37362,5.3529 -6.13164,0.46755 -10.54084,0.71176 -13.26257,-5.56747 -3.05741,-6.56854 -3.25536,-13.95546 -3.45954,-21.08934 0.62255,-10.28701 1.62067,-20.5442 3.34234,-30.71201 0.80068,-6.43061 1.64564,-12.92326 5.88455,-18.11049 3.04982,-2.74318 7.3574,-3.74251 11.08126,-1.44814 3.32439,3.4716 1.39813,8.41574 0.90646,12.68649 -1.63268,8.78152 -4.38296,17.19234 -8.22412,25.2707 -4.04822,7.93568 -8.34867,15.72046 -14.66313,22.12917 0,0 -2.81624,-0.22165 -2.81624,-0.22165 z" />
    <path
       style="fill:#000000;fill-opacity:1;stroke:#000000;stroke-width:10;stroke-miterlimit:4;stroke-opacity:1;stroke-dasharray:none"
       id="path2949"
       d="m 693.52554,317.22441 c 2.38864,7.56335 2.21724,15.65349 2.30621,23.5086 0.0671,2.73039 0.11428,5.37953 -0.364,8.06465 0,0 -2.82954,-0.051 -2.82954,-0.051 l 0,0 c 0.49726,-2.66494 0.44583,-5.29689 0.38896,-8.01055 -0.0829,-7.82657 0.0968,-15.89556 -2.32851,-23.42069 0,0 2.82688,-0.091 2.82688,-0.091 z" />
    <path
       style="fill:#000000;fill-opacity:1;stroke:#000000;stroke-width:10;stroke-miterlimit:4;stroke-opacity:1;stroke-dasharray:none"
       id="path2951"
       d="m 459.95734,615.9429 c 6.12352,-9.74936 10.84038,-20.37784 14.97072,-31.10495 4.7714,-11.82731 7.69311,-24.21838 10.71195,-36.56436 1.4184,-7.93128 4.11838,-16.01051 3.77382,-24.15103 -0.10633,-0.50028 -0.0837,-1.04671 -0.31898,-1.50085 -0.13781,-0.26604 -1.02532,-0.47321 -0.73009,-0.5243 0.65677,-0.11367 1.60702,-0.24661 1.97564,0.30873 0.27323,0.41164 -0.79092,0.59573 -1.15012,0.93496 -1.80587,1.70545 -1.56349,1.66104 -3.01542,3.9318 -4.22673,7.77125 -6.77263,16.27219 -8.56588,24.8942 -1.31808,7.25999 -2.1975,14.57024 -1.13149,21.89929 0.66982,4.12176 1.44683,8.50188 4.39737,11.64069 0.48175,0.23744 2.18456,1.32461 2.83115,0.57206 0.28285,-0.3292 -1.42627,0.11513 -1.26948,-0.28959 0.22097,-0.57036 1.14009,-0.45345 1.67339,-0.75299 1.5411,-0.86559 2.60943,-1.82449 3.99729,-2.93446 3.98878,-4.82881 8.00939,-9.63628 11.68431,-14.70777 0,0 2.79497,0.17504 2.79497,0.17504 l 0,0 c -3.66904,5.09803 -7.72803,9.89324 -11.66944,14.7841 -3.55275,2.88802 -8.24085,6.1004 -12.87089,3.36322 -2.88938,-3.25985 -3.74033,-7.61406 -4.38765,-11.81004 -1.04676,-7.36462 -0.17658,-14.7046 1.15722,-21.9968 1.79775,-8.65229 4.34474,-17.17653 8.54398,-24.99558 1.51902,-2.43928 7.29135,-10.15319 8.88075,-3.00272 0.29165,8.17261 -2.37659,16.26682 -3.82058,24.22887 -3.03567,12.35435 -5.95019,24.76024 -10.72687,36.59907 -4.1254,10.74265 -8.84496,21.3745 -14.91624,31.16938 0,0 -2.81943,-0.16597 -2.81943,-0.16597 z" />
    <path
       style="fill:#000000;fill-opacity:1;stroke:#000000;stroke-width:10;stroke-miterlimit:4;stroke-opacity:1;stroke-dasharray:none"
       id="path2953"
       d="m 511.0085,591.49012 c 2.6432,6.55642 3.16411,13.34207 1.70602,20.20332 -0.94212,3.67581 -2.99649,5.31426 1.6994,6.08491 -0.28691,-0.0663 -1.12142,-0.0619 -0.86074,-0.19887 0.79647,-0.41847 1.75431,-0.41576 2.60238,-0.7162 2.60101,-0.92143 3.63478,-1.62379 6.08939,-2.9687 0,0 2.79359,0.29893 2.79359,0.29893 l 0,0 c -4.35809,2.42818 -8.25109,4.43872 -13.43378,3.97688 -4.69456,-0.9775 -2.69069,-2.94864 -1.71003,-6.5366 1.47454,-6.79797 0.95956,-13.52747 -1.70979,-20.01267 0,0 2.82356,-0.131 2.82356,-0.131 z" />
    <path
       style="fill:#000000;fill-opacity:1;stroke:#000000;stroke-width:10;stroke-miterlimit:4;stroke-opacity:1;stroke-dasharray:none"
       id="path2955"
       d="m 795.01563,423.02969 c -2.10193,6.83862 -4.76358,13.47845 -6.46447,20.438 -0.80682,3.46267 -1.25557,7.00168 -1.44671,10.54948 -0.006,0.18577 -0.0118,0.37154 -0.0177,0.55731 -7e-5,0.0139 0.0126,0.0471 -2e-4,0.0417 -4.06624,-1.71631 -3.16093,-1.88302 -1.99225,-5.52019 1.51361,-3.58677 3.71397,-6.69054 6.75457,-9.10973 4.18273,-2.21868 8.29757,-1.82738 10.92971,2.15069 1.16426,3.66217 2.28909,7.37112 3.27079,11.10067 0.51456,2.18231 0.75428,4.42265 1.08079,6.63116 -0.71135,-0.32339 -1.76812,-0.27973 -2.13405,-0.97016 -0.24571,-0.46361 0.664,-0.81443 0.95784,-1.24913 1.68073,-2.48647 3.23176,-4.5692 5.49917,-6.58397 3.11558,-3.21408 6.60585,-5.81255 11.17619,-5.97162 5.94889,0.004 8.51216,2.65071 10.83438,7.74702 1.91261,6.04207 0.72417,12.40596 -0.67629,18.42231 -0.23218,0.90692 -0.46437,1.81385 -0.69655,2.72077 0,0 -2.81887,-0.071 -2.81887,-0.071 l 0,0 c 0.23387,-0.90476 0.46774,-1.80951 0.70162,-2.71426 1.39081,-5.95312 2.5958,-12.26156 0.66666,-18.23598 -0.93506,-2.0117 -1.8377,-3.7658 -3.47428,-5.30946 -0.3914,-0.36919 -0.79897,-0.73192 -1.26101,-1.0076 -0.48091,-0.28694 -1.32295,-0.15017 -1.54267,-0.66526 -0.15145,-0.35503 0.71162,-0.29921 1.06743,-0.44882 -4.57299,0.026 -8.06038,2.53624 -11.16206,5.77358 -1.71625,1.49301 -3.24589,3.00169 -4.52147,4.9025 -0.14344,0.21375 -1.48419,2.67689 -1.91457,2.87845 -1.10413,0.5171 -2.37018,0.57289 -3.55526,0.85933 -0.28833,-2.219 -0.54754,-4.45073 -1.05857,-6.63511 -0.97018,-3.69947 -2.07383,-7.38835 -3.2716,-11.00522 -2.33094,-3.39171 -2.27477,-3.5102 -5.2739,-2.06251 -3.04314,2.35331 -5.22946,5.39572 -6.74307,8.9417 -0.10968,0.33976 -0.77497,4.13791 -0.83867,4.19528 -0.76533,0.68918 -2.90579,2.21347 -2.85347,1.1849 0.01,-0.1877 0.0143,-0.37562 0.0214,-0.56343 0.2105,-3.56457 0.66254,-7.12176 1.47803,-10.60091 1.70213,-6.96603 4.3852,-13.60538 6.45227,-20.46151 0,0 2.82688,0.091 2.82688,0.091 z" />
    <path
       style="fill:#000000;fill-opacity:1;stroke:#000000;stroke-width:10;stroke-miterlimit:4;stroke-opacity:1;stroke-dasharray:none"
       id="path2957"
       d="m 878.21562,477.29327 c -1.33416,8.6191 -3.04308,17.16953 -4.27607,25.80838 -0.13263,0.88887 -0.26527,1.77775 -0.39791,2.66662 0,0 -2.8209,-0.0426 -2.8209,-0.0426 l 0,0 c 0.13767,-0.88804 0.27535,-1.77608 0.41302,-2.66412 1.25232,-8.63621 2.96863,-17.18811 4.2528,-25.81502 0,0 2.82906,0.0467 2.82906,0.0467 z" />
    <path
       style="fill:#000000;fill-opacity:1;stroke:#000000;stroke-width:10;stroke-miterlimit:4;stroke-opacity:1;stroke-dasharray:none"
       id="path2959"
       d="m 284.61344,817.24654 c 1.22788,6.23043 1.28197,12.64179 2.53115,18.85517 0.46463,1.74679 0.99698,4.04727 2.48129,5.30324 0.33335,0.28208 1.55937,0.27647 1.20027,0.52495 -0.45172,0.31258 -1.28121,0.19647 -1.63241,-0.22593 -0.24364,-0.29303 0.68474,-0.33471 1.02711,-0.50207 3.42639,-2.98443 5.44189,-7.38866 7.45664,-11.39277 2.3148,-4.78948 4.94502,-9.29124 9.29346,-12.46547 5.83898,-2.31733 8.23938,0.12587 10.74569,4.58639 2.28221,3.75229 2.97806,8.06136 3.43869,12.35304 0.384,1.26405 -0.31138,2.98518 0.62364,4.08054 0.12301,0.14411 0.65561,0.38017 0.49003,0.28806 -2.29085,-1.2744 -2.26099,-0.56366 -0.4317,-2.15786 3.40443,-3.15499 7.87336,-4.01391 12.3042,-2.35391 2.92362,2.20281 4.51086,5.50868 5.96643,8.76896 0.60729,1.47002 0.33342,0.78047 0.82871,2.06581 0,0 -2.84258,0.10433 -2.84258,0.10433 l 0,0 c -0.48894,-1.276 -0.21825,-0.59134 -0.8194,-2.05106 -1.42792,-3.19609 -2.98955,-6.48159 -5.94629,-8.53923 -0.52875,-0.17253 -1.22094,-0.0982 -1.58624,-0.51758 -0.23168,-0.26597 1.40417,-0.13625 1.05405,-0.0934 -2.39165,0.29258 -4.38767,1.11837 -6.13557,2.85828 -5.05097,4.37057 -6.26825,2.51508 -6.3343,-2.4226 -0.45938,-4.25776 -1.15766,-8.52133 -3.43482,-12.23777 -0.34133,-0.59896 -1.44628,-2.64529 -1.99809,-3.24666 -0.35088,-0.38239 -0.76981,-0.71154 -1.22476,-0.96126 -0.4592,-0.25205 -1.28021,-0.0406 -1.48149,-0.52418 -0.15227,-0.36586 1.49436,-0.45639 1.16523,-0.23569 -0.45524,0.30525 -1.04348,0.33592 -1.56521,0.50389 -4.38406,3.08221 -6.98745,7.5719 -9.29408,12.32836 -2.02936,4.05986 -4.07722,8.45314 -7.4473,11.56869 -5.0929,2.92336 -7.81239,-0.90139 -8.72117,-5.35153 -1.23245,-6.2203 -1.28387,-12.63373 -2.54024,-18.864 0,0 2.82906,-0.0467 2.82906,-0.0467 z" />
    <path
       style="fill:#000000;fill-opacity:1;stroke:#000000;stroke-width:10;stroke-miterlimit:4;stroke-opacity:1;stroke-dasharray:none"
       id="path2961"
       d="m 357.79028,865.78819 c 6.39464,-2.50503 12.91443,-3.36226 19.67243,-1.86845 4.44469,1.52864 5.78369,4.60859 6.50104,8.95363 0.81698,4.78581 0.20585,9.34921 -0.89973,14.0071 -0.94477,4.07742 -1.96354,6.03149 2.61698,7.45964 4.43156,0.86579 9.03078,-1.5978 13.16459,-3.36914 0,0 2.78116,0.32504 2.78116,0.32504 l 0,0 c -6.02927,2.6195 -12.03392,4.95904 -18.75804,3.39688 -4.12406,-1.47332 -3.71171,-4.06308 -2.6327,-7.87868 1.10846,-4.62018 1.72238,-9.14445 0.90028,-13.89407 -0.7197,-4.26402 -2.08042,-7.2085 -6.47267,-8.61776 -0.78231,-0.16414 -1.59807,-0.21285 -2.34692,-0.49243 -0.12325,-0.046 0.40971,-0.27667 0.2782,-0.27992 -4.1484,-0.10272 -8.13692,1.29519 -11.99831,2.61052 0,0 -2.80631,-0.35236 -2.80631,-0.35236 z" />
  </g>
</svg>
