<?xml version="1.0" encoding="UTF-8" standalone="no"?>
<!-- Created with Inkscape (http://www.inkscape.org/) -->

<svg
   xmlns:dc="http://purl.org/dc/elements/1.1/"
   xmlns:cc="http://creativecommons.org/ns#"
   xmlns:rdf="http://www.w3.org/1999/02/22-rdf-syntax-ns#"
   xmlns:svg="http://www.w3.org/2000/svg"
   xmlns="http://www.w3.org/2000/svg"
   xmlns:sodipodi="http://sodipodi.sourceforge.net/DTD/sodipodi-0.dtd"
   xmlns:inkscape="http://www.inkscape.org/namespaces/inkscape"
   width="1084.6555"
   height="605.39307"
   id="svg2"
   version="1.1"
   inkscape:version="0.47pre4 r22446"
   sodipodi:docname="hw4d1.svg">
  <defs
     id="defs4">
    <marker
       inkscape:stockid="Arrow1Lstart"
       orient="auto"
       refY="0"
       refX="0"
       id="Arrow1Lstart"
       style="overflow:visible">
      <path
         id="path3619"
         d="M 0,0 5,-5 -12.5,0 5,5 0,0 z"
         style="fill-rule:evenodd;stroke:#000000;stroke-width:1pt;marker-start:none"
         transform="matrix(0.8,0,0,0.8,10,0)" />
    </marker>
    <marker
       inkscape:stockid="Arrow1Lend"
       orient="auto"
       refY="0"
       refX="0"
       id="Arrow1Lend"
       style="overflow:visible">
      <path
         id="path3622"
         d="M 0,0 5,-5 -12.5,0 5,5 0,0 z"
         style="fill-rule:evenodd;stroke:#000000;stroke-width:1pt;marker-start:none"
         transform="matrix(-0.8,0,0,-0.8,-10,0)" />
    </marker>
    <inkscape:perspective
       sodipodi:type="inkscape:persp3d"
       inkscape:vp_x="0 : 526.18109 : 1"
       inkscape:vp_y="0 : 1000 : 0"
       inkscape:vp_z="744.09448 : 526.18109 : 1"
       inkscape:persp3d-origin="372.04724 : 350.78739 : 1"
       id="perspective10" />
    <inkscape:perspective
       id="perspective3600"
       inkscape:persp3d-origin="0.5 : 0.33333333 : 1"
       inkscape:vp_z="1 : 0.5 : 1"
       inkscape:vp_y="0 : 1000 : 0"
       inkscape:vp_x="0 : 0.5 : 1"
       sodipodi:type="inkscape:persp3d" />
    <inkscape:perspective
       id="perspective3600-5"
       inkscape:persp3d-origin="0.5 : 0.33333333 : 1"
       inkscape:vp_z="1 : 0.5 : 1"
       inkscape:vp_y="0 : 1000 : 0"
       inkscape:vp_x="0 : 0.5 : 1"
       sodipodi:type="inkscape:persp3d" />
    <inkscape:perspective
       id="perspective4081"
       inkscape:persp3d-origin="0.5 : 0.33333333 : 1"
       inkscape:vp_z="1 : 0.5 : 1"
       inkscape:vp_y="0 : 1000 : 0"
       inkscape:vp_x="0 : 0.5 : 1"
       sodipodi:type="inkscape:persp3d" />
    <marker
       inkscape:stockid="Arrow1Lend"
       orient="auto"
       refY="0"
       refX="0"
       id="Arrow1Lend-1"
       style="overflow:visible">
      <path
         id="path3622-7"
         d="M 0,0 5,-5 -12.5,0 5,5 0,0 z"
         style="fill-rule:evenodd;stroke:#000000;stroke-width:1pt;marker-start:none"
         transform="matrix(-0.8,0,0,-0.8,-10,0)" />
    </marker>
    <inkscape:perspective
       id="perspective4164"
       inkscape:persp3d-origin="0.5 : 0.33333333 : 1"
       inkscape:vp_z="1 : 0.5 : 1"
       inkscape:vp_y="0 : 1000 : 0"
       inkscape:vp_x="0 : 0.5 : 1"
       sodipodi:type="inkscape:persp3d" />
    <inkscape:perspective
       id="perspective4164-5"
       inkscape:persp3d-origin="0.5 : 0.33333333 : 1"
       inkscape:vp_z="1 : 0.5 : 1"
       inkscape:vp_y="0 : 1000 : 0"
       inkscape:vp_x="0 : 0.5 : 1"
       sodipodi:type="inkscape:persp3d" />
    <inkscape:perspective
       id="perspective4573"
       inkscape:persp3d-origin="0.5 : 0.33333333 : 1"
       inkscape:vp_z="1 : 0.5 : 1"
       inkscape:vp_y="0 : 1000 : 0"
       inkscape:vp_x="0 : 0.5 : 1"
       sodipodi:type="inkscape:persp3d" />
    <marker
       inkscape:stockid="Arrow1Lstart"
       orient="auto"
       refY="0"
       refX="0"
       id="Arrow1Lstart-9"
       style="overflow:visible">
      <path
         id="path3619-6"
         d="M 0,0 5,-5 -12.5,0 5,5 0,0 z"
         style="fill-rule:evenodd;stroke:#000000;stroke-width:1pt;marker-start:none"
         transform="matrix(0.8,0,0,0.8,10,0)" />
    </marker>
    <marker
       inkscape:stockid="Arrow1Lend"
       orient="auto"
       refY="0"
       refX="0"
       id="Arrow1Lend-1-5"
       style="overflow:visible">
      <path
         id="path3622-7-4"
         d="M 0,0 5,-5 -12.5,0 5,5 0,0 z"
         style="fill-rule:evenodd;stroke:#000000;stroke-width:1pt;marker-start:none"
         transform="matrix(-0.8,0,0,-0.8,-10,0)" />
    </marker>
  </defs>
  <sodipodi:namedview
     id="base"
     pagecolor="#ffffff"
     bordercolor="#666666"
     borderopacity="1.0"
     inkscape:pageopacity="0.0"
     inkscape:pageshadow="2"
     inkscape:zoom="0.7578443"
     inkscape:cx="542.32776"
     inkscape:cy="302.69654"
     inkscape:document-units="px"
     inkscape:current-layer="layer1"
     showgrid="false"
     inkscape:window-width="1280"
     inkscape:window-height="726"
     inkscape:window-x="0"
     inkscape:window-y="25"
     inkscape:window-maximized="1" />
  <metadata
     id="metadata7">
    <rdf:RDF>
      <cc:Work
         rdf:about="">
        <dc:format>image/svg+xml</dc:format>
        <dc:type
           rdf:resource="http://purl.org/dc/dcmitype/StillImage" />
        <dc:title></dc:title>
      </cc:Work>
    </rdf:RDF>
  </metadata>
  <g
     inkscape:label="Layer 1"
     inkscape:groupmode="layer"
     id="layer1"
     transform="translate(220.36341,-56.18338)">
    <path
       style="fill:none;stroke:#000000;stroke-width:7;stroke-linecap:butt;stroke-linejoin:miter;stroke-miterlimit:4;stroke-opacity:1;stroke-dasharray:none"
       d="M -140,658.07647 C 24.93251,300.3977 338.00894,87.710864 860.7921,80.2689"
       id="path2816"
       sodipodi:nodetypes="cc" />
    <path
       style="fill:none;stroke:#000000;stroke-width:1px;stroke-linecap:butt;stroke-linejoin:miter;stroke-opacity:1"
       d="m -138,426.6479 285.71429,0"
       id="path3590" />
    <path
       style="fill:none;stroke:#000000;stroke-width:1px;stroke-linecap:butt;stroke-linejoin:miter;stroke-opacity:1"
       d="m 202.85714,186.6479 285.71429,0"
       id="path3590-3" />
    <path
       style="fill:none;stroke:#000000;stroke-width:2;stroke-linecap:butt;stroke-linejoin:miter;stroke-miterlimit:4;stroke-opacity:1;stroke-dasharray:none;marker-end:url(#Arrow1Lend)"
       d="m 11.428571,420.93361 -122.857141,120"
       id="path3614" />
    <path
       style="fill:none;stroke:#000000;stroke-width:2;stroke-linecap:butt;stroke-linejoin:miter;stroke-miterlimit:4;stroke-opacity:1;stroke-dasharray:none;marker-end:url(#Arrow1Lend)"
       d="M 326.17154,181.85347 485.25703,117.15661"
       id="path3614-0" />
    <path
       style="fill:none;stroke:#000000;stroke-width:1px;stroke-linecap:butt;stroke-linejoin:miter;stroke-opacity:1"
       d="m 407.42978,147.98284 c 20.83768,5.96392 28.09403,19.6886 27.54455,37.87376"
       id="path4101"
       sodipodi:nodetypes="cc" />
    <path
       style="fill:#000000;fill-opacity:1;stroke:#000000;stroke-width:2;stroke-miterlimit:4;stroke-opacity:1;stroke-dasharray:none"
       id="path4103"
       d="m 515.18803,159.67467 c -3.26623,0.63968 -6.51399,1.31037 -9.82184,1.71575 -2.82984,0.11478 -6.17164,1.16453 -8.67454,-0.55818 -1.68188,-1.90201 -1.26459,-4.45116 -0.8251,-6.74683 0.8324,-3.34777 2.89541,-5.77991 5.58753,-7.80581 3.42283,-2.3225 6.76022,-2.64281 10.76835,-2.38265 4.16529,1.30571 5.35089,3.94296 6.32555,7.92371 1.13957,5.7513 0.47761,11.48882 -0.99897,17.09752 -1.6859,6.34326 -4.9951,11.85458 -9.53935,16.529 -3.1252,2.82498 -6.8428,5.12275 -11.18583,5.13551 -1.13321,0.003 -2.26307,-0.12334 -3.39461,-0.18501 -3.8588,-0.65836 -7.24396,-2.56322 -8.72641,-6.36357 -0.31183,-0.79942 -0.44697,-1.65694 -0.67046,-2.4854 -0.46767,-3.3223 0.468,-6.37903 1.38836,-9.51824 0,0 1.08048,0.0308 1.08048,0.0308 l 0,0 c -0.91357,3.12024 -1.84424,6.15681 -1.37023,9.45829 0.22436,0.82011 0.36047,1.66965 0.67308,2.46035 1.49024,3.76933 4.88603,5.62252 8.71673,6.25385 4.75422,0.72736 8.97459,-1.81192 12.40025,-4.87093 4.55232,-4.64678 7.85983,-10.14347 9.54163,-16.47262 1.47297,-5.59194 2.13162,-11.31065 0.97845,-17.04281 -0.9781,-3.94371 -2.17197,-6.55069 -6.32376,-7.7876 -2.53426,-0.86568 -6.39734,1.08376 -8.55346,2.3231 -2.68405,1.99925 -4.74601,4.39718 -5.57835,7.7237 -0.43116,2.24676 -0.8588,4.77652 0.83116,6.61492 2.15974,1.40376 3.94494,0.68338 6.448,0.50808 3.30165,-0.39833 6.54302,-1.06028 9.79963,-1.71023 0,0 1.12371,0.1553 1.12371,0.1553 z" />
    <path
       style="fill:#000000;fill-opacity:1;stroke:#000000;stroke-width:2;stroke-miterlimit:4;stroke-opacity:1;stroke-dasharray:none"
       id="path4107"
       d="m -88.496657,467.25546 c -3.342618,0.6464 -6.730664,0.82136 -10.124741,0.75171 -3.645472,-0.45315 -5.313462,-1.85893 -6.567612,-5.24024 -1.0251,-3.53654 -0.38906,-7.26664 1.11708,-10.55922 2.5795,-4.17781 4.33334,-5.5518 9.334271,-3.70299 5.252795,3.17234 6.9666,8.84873 8.167204,14.50772 0.743167,6.90433 -0.904738,11.96471 -4.944104,17.48458 -2.940025,3.31269 -6.934787,5.11459 -11.337731,3.50885 -0.67465,-0.24604 -1.18827,-0.80671 -1.78241,-1.21006 -3.58788,-3.62605 -3.45168,-8.18268 -2.98488,-12.9142 0,0 1.08735,0.0106 1.08735,0.0106 l 0,0 c -0.45913,4.69581 -0.5985,9.22304 2.99917,12.79514 0.59352,0.39152 1.18313,0.78905 1.78057,1.17456 0.28157,0.18168 0.52526,0.47409 0.85618,0.52684 3.325751,0.53016 6.18703,-1.71284 8.291508,-3.96093 4.045143,-5.48708 5.687273,-10.51168 4.948693,-17.39265 -1.201691,-5.62964 -2.914026,-11.28976 -8.182879,-14.39492 -0.802977,-0.28198 -1.615791,-0.96977 -2.439148,-0.75442 -2.207724,0.57741 -3.591864,2.52213 -4.681414,4.36984 -1.5093,3.26108 -2.1387,6.96383 -1.11364,10.47125 1.26283,3.34431 2.9478,4.68995 6.554708,5.10949 2.612467,0.27961 5.312677,-0.45485 7.898119,-0.73629 0,0 1.123706,0.1553 1.123706,0.1553 z" />
    <path
       style="fill:#000000;fill-opacity:1;stroke:#000000;stroke-width:2;stroke-miterlimit:4;stroke-opacity:1;stroke-dasharray:none"
       id="path4113"
       d="m 417.31566,62.581349 c 1.17809,3.89938 2.2957,7.809497 3.29081,11.761147 1.34831,5.48499 2.29004,11.050417 3.29376,16.604826 0.44649,3.07414 1.15656,6.108508 2.09317,9.069488 0.0498,0.14589 0.0996,0.29179 0.14945,0.43768 0,0 -1.1383,0.0369 -1.1383,0.0369 l 0,0 c -0.0484,-0.14676 -0.0967,-0.29352 -0.1451,-0.44029 -0.91111,-2.970572 -1.61384,-6.007734 -2.0566,-9.084171 -0.99781,-5.552953 -1.93773,-11.116296 -3.29277,-16.597237 -1.00376,-3.954531 -2.12551,-7.868665 -3.32858,-11.765912 0,0 1.13416,-0.02239 1.13416,-0.02239 z" />
    <path
       style="fill:#000000;fill-opacity:1;stroke:#000000;stroke-width:2;stroke-miterlimit:4;stroke-opacity:1;stroke-dasharray:none"
       id="path4115"
       d="m 377.5741,80.952466 c 3.70639,-2.535053 7.51847,-4.900419 11.42569,-7.11328 6.45497,-3.629406 13.25327,-6.622 19.98722,-9.693921 4.99988,-2.031394 10.02551,-4.037163 15.153,-5.728061 1.7091,-0.553309 3.44343,-1.051177 5.23876,-1.203874 0.73794,-0.04464 1.47811,-0.02646 2.21671,-0.0254 0,0 -1.12858,0.177728 -1.12858,0.177728 l 0,0 c 1.90806,-0.0063 0.39013,-0.0095 0.0369,0.01684 -1.8028,0.129555 -3.54466,0.625565 -5.26042,1.173778 -5.14078,1.67758 -10.17421,3.688387 -15.18621,5.711851 -6.73093,3.066542 -13.52541,6.057166 -19.97501,9.685729 -3.89438,2.205526 -7.691,4.566965 -11.37827,7.103678 0,0 -1.12977,-0.105065 -1.12977,-0.105065 z" />
    <path
       style="fill:#000000;fill-opacity:1;stroke:#000000;stroke-width:2;stroke-miterlimit:4;stroke-opacity:1;stroke-dasharray:none"
       id="path4117"
       d="m 450.06357,108.59414 c -1.68917,-1.89687 -2.21235,-4.38787 -2.63805,-6.81654 -0.27539,-3.080919 0.95389,-5.647954 3.03758,-7.819288 2.45257,-2.108117 5.75576,-1.9733 8.59553,-0.761789 2.33156,1.444398 3.97411,3.53403 4.49887,6.231244 0.3557,2.944513 -1.0486,5.126153 -3.13832,7.031593 -1.77,1.07897 -0.85264,0.60371 -2.75175,1.4264 0,0 -1.11069,-0.13014 -1.11069,-0.13014 l 0,0 c 1.89493,-0.80143 0.97941,-0.33813 2.74666,-1.3897 2.07658,-1.86327 3.48626,-4.00755 3.12918,-6.9164 -0.52483,-2.663227 -2.16742,-4.722663 -4.48722,-6.121493 -2.54086,-1.034601 -4.10147,-1.109144 -6.36332,0.716545 -2.08223,2.13013 -3.31214,4.66278 -3.035,7.713538 0.42376,2.41024 0.94531,4.88428 2.64965,6.74685 0,0 -1.13312,0.0892 -1.13312,0.0892 z" />
    <path
       style="fill:#000000;fill-opacity:1;stroke:#000000;stroke-width:2;stroke-miterlimit:4;stroke-opacity:1;stroke-dasharray:none"
       id="path4119"
       d="m -189.67449,503.14171 c 1.19033,3.09397 2.49599,6.13873 3.59971,9.26716 1.37605,3.42786 2.20817,6.99201 2.71986,10.63785 0.17735,1.37823 0.25637,2.76458 0.3056,4.15219 0,0 -1.13258,0.004 -1.13258,0.004 l 0,0 c -0.0435,-1.38356 -0.11906,-2.7661 -0.29236,-4.14054 -0.49994,-3.63967 -1.33751,-7.19534 -2.70999,-10.61558 -1.10693,-3.12567 -2.40613,-6.17072 -3.62504,-9.25222 0,0 1.1348,-0.0527 1.1348,-0.0527 z" />
    <path
       style="fill:#000000;fill-opacity:1;stroke:#000000;stroke-width:2;stroke-miterlimit:4;stroke-opacity:1;stroke-dasharray:none"
       id="path4121"
       d="m -219.36341,509.0486 c 2.22853,-2.22263 5.09557,-3.64591 7.9214,-4.95032 4.21778,-1.72408 8.64001,-2.83619 13.0254,-4.03287 3.98801,-1.18401 7.89362,-2.60207 11.71118,-4.25295 2.55512,-1.11027 5.03826,-2.35754 7.72468,-3.12645 1.25665,-0.25983 0.64861,-0.14995 1.82295,-0.33612 0,0 1.12007,0.15978 1.12007,0.15978 l 0,0 c -1.17595,0.17837 -0.5674,0.0731 -1.82459,0.32206 -2.69551,0.75022 -5.18072,1.99736 -7.73804,3.10972 -3.82018,1.65853 -7.73179,3.07578 -11.72291,4.26737 -4.38051,1.19776 -8.79916,2.30275 -13.01666,4.01552 -2.81154,1.29391 -5.67808,2.69841 -7.89036,4.91344 0,0 -1.13312,-0.0892 -1.13312,-0.0892 z" />
    <path
       style="fill:#000000;fill-opacity:1;stroke:#000000;stroke-width:2;stroke-miterlimit:4;stroke-opacity:1;stroke-dasharray:none"
       id="path4123"
       d="m -158.48269,548.31923 c -2.93126,-0.80976 -4.95893,-2.82898 -6.55204,-5.32296 -1.86744,-3.63405 -1.72685,-7.48306 -0.9389,-11.37032 1.05708,-4.15167 3.16779,-7.69938 6.28115,-10.60349 3.35578,-2.71759 5.99297,-3.24402 10.19429,-2.99048 3.36222,0.84015 4.27625,3.58766 4.91911,6.66084 0.49887,4.33973 -0.52501,8.56297 -1.71324,12.70075 -0.94808,2.60135 -0.42872,1.33894 -1.55006,3.79052 0,0 -1.10883,-0.0477 -1.10883,-0.0477 l 0,0 c 1.12381,-2.43979 0.60336,-1.183 1.5532,-3.77374 1.18603,-4.11997 2.21172,-8.32455 1.70595,-12.64665 -0.64649,-3.04148 -1.56772,-5.74015 -4.91423,-6.52048 -2.02009,-0.91745 -6.4148,1.69053 -7.97981,2.91819 -3.11516,2.87734 -5.22296,6.4006 -6.28211,10.5344 -0.78278,3.86019 -0.92246,7.68209 0.94885,11.28448 1.60169,2.48315 3.64032,4.44896 6.56229,5.25206 0,0 -1.12562,0.13462 -1.12562,0.13462 z" />
    <path
       style="fill:#000000;fill-opacity:1;stroke:#000000;stroke-width:2;stroke-miterlimit:4;stroke-opacity:1;stroke-dasharray:none"
       id="path4148"
       d="m 234.36704,358.09733 c 0.66594,3.78436 0.73442,7.63285 1.15748,11.44332 0.45384,4.8187 1.13259,9.6022 1.76644,14.39876 0.60893,4.38797 1.84951,8.61494 3.46339,12.72895 1.4926,3.71427 3.97862,6.51542 7.20285,8.79626 3.82084,2.56081 8.23217,3.87069 12.69484,4.77317 5.80404,1.20412 11.63919,0.55134 17.45814,-0.0737 7.82914,-0.68766 15.57821,-1.97663 23.32234,-3.27731 8.40473,-1.5752 16.88472,-2.76138 25.38154,-3.71478 8.05943,-0.6205 16.10997,-1.36691 24.17893,-1.86339 7.51695,-0.39796 14.90738,0.36514 22.20355,2.1011 4.36115,1.22259 8.5777,3.14405 12.22205,5.84796 2.27503,1.98353 3.50406,4.46578 4.09604,7.37216 0.42263,2.46096 0.43618,4.96457 0.44218,7.45403 0.0155,1.66349 -1.06136,3.24279 -0.95329,4.88984 -0.49689,0.32616 0.89884,0.37385 0.65115,0.36032 -0.2553,-0.014 -0.56838,0.0991 -0.76427,-0.0652 -0.14321,-0.12011 0.37142,-0.0564 0.54868,-0.11566 0.61242,-0.20488 0.86782,-0.42489 1.42991,-0.78435 1.97166,-1.48497 3.73585,-3.20705 5.66882,-4.74431 2.28965,-2.34174 4.75073,-4.46261 7.37121,-6.42362 2.81522,-2.34694 6.14896,-3.78462 9.53316,-5.07918 4.02817,-1.27235 8.1592,-2.19813 12.34187,-2.78404 5.2402,-0.63581 10.46918,-1.2684 15.73892,-1.61365 6.13071,-0.63664 12.27321,-1.09679 18.39476,-1.81652 6.15694,-0.78095 12.32572,-1.46527 18.48698,-2.21451 5.97493,-0.64677 11.93727,-1.36275 17.78289,-2.78312 4.9094,-1.13058 9.69541,-2.79957 14.31228,-4.80681 3.8068,-1.86383 7.28074,-4.32195 10.59204,-6.94946 3.37587,-2.87863 6.30996,-6.07791 8.85371,-9.70416 2.54937,-3.52481 4.36586,-7.50468 5.88607,-11.56193 1.66909,-4.37981 2.52957,-9.00699 3.68687,-13.53703 1.226,-5.2126 1.93806,-10.54183 2.61379,-15.85115 1.06112,-5.83201 1.62409,-11.72421 1.94478,-17.63747 0.57893,-6.04784 1.08118,-12.09859 1.35535,-18.16827 0.17816,-5.76538 0.84116,-11.50046 1.18738,-17.2577 0.29098,-5.7088 0.32736,-11.42621 0.35432,-17.14106 0.2058,-5.63706 -0.39648,-11.24681 -0.79019,-16.86143 -0.20265,-6.14611 -0.87888,-12.25764 -1.30366,-18.38983 -0.48855,-7.19183 -0.34259,-14.40421 -0.68434,-21.60036 -0.48762,-8.01419 -1.46768,-15.99272 -2.3598,-23.97045 -0.49376,-4.56424 -1.30179,-9.08244 -2.10994,-13.5983 0,0 1.22818,-0.0218 1.22818,-0.0218 l 0,0 c 0.81192,4.51844 1.62412,9.03918 2.1213,13.60627 0.89477,7.98032 1.87947,15.96116 2.36691,23.97834 0.34388,7.19523 0.20287,14.40686 0.69571,21.59759 0.42528,6.13228 1.10767,12.24337 1.31099,18.38969 0.39281,5.61785 0.99932,11.23066 0.79177,16.87089 -0.0287,5.71721 -0.0688,11.43673 -0.35446,17.14808 -0.34796,5.75652 -1.01469,11.49086 -1.18868,17.25582 -0.27725,6.07001 -0.78512,12.12066 -1.35931,18.16935 -0.3204,5.91606 -0.87887,11.81176 -1.94049,17.64666 -0.67609,5.3141 -1.38336,10.64879 -2.60611,15.86697 -1.15735,4.53426 -2.02014,9.1646 -3.68227,13.55095 -1.5184,4.06825 -3.33911,8.0586 -5.88939,11.59411 -2.54199,3.64012 -5.47782,6.84698 -8.85312,9.74123 -3.31431,2.63684 -6.79196,5.10291 -10.59994,6.9821 -4.61824,2.01928 -9.41193,3.69046 -14.32571,4.82711 -5.84651,1.43402 -11.81226,2.15245 -17.79141,2.79695 -6.15929,0.75579 -12.32883,1.42796 -18.4838,2.21554 -6.12105,0.72058 -12.26259,1.18075 -18.39231,1.82355 -5.26633,0.34054 -10.49106,0.9711 -15.72737,1.60597 -4.17883,0.57592 -8.30188,1.50063 -12.32935,2.75635 -3.37697,1.29152 -6.71898,2.69653 -9.52738,5.04405 -2.62108,1.95729 -5.09112,4.06458 -7.36578,6.42025 -1.93455,1.53734 -3.70232,3.25272 -5.65982,4.75733 -1.14359,0.76189 -3.43173,1.9478 -4.47102,0.48361 -0.088,-1.65569 0.95157,-3.22863 0.96422,-4.89733 -0.004,-2.48079 -0.0131,-4.97546 -0.43433,-7.42809 -0.59667,-2.87491 -1.82054,-5.32815 -4.08595,-7.27825 -3.643,-2.67855 -7.83718,-4.59558 -12.18859,-5.80015 -6.47384,-1.53405 -13.05412,-2.39106 -19.72603,-2.08195 -8.07015,0.49295 -16.12103,1.24365 -24.18199,1.85663 -8.49679,0.94752 -16.9769,2.1319 -25.38072,3.70801 -7.74051,1.29931 -15.48405,2.60058 -23.3098,3.28655 -6.63023,0.71729 -13.34592,1.32136 -19.95668,0.0644 -4.47268,-0.91857 -8.8891,-2.24244 -12.71218,-4.82472 -3.22817,-2.30586 -5.71522,-5.13823 -7.20678,-8.87045 -1.6088,-4.12578 -2.85228,-8.36181 -3.45727,-12.75995 -0.63503,-4.79732 -1.30801,-9.58265 -1.76958,-14.40134 -0.42551,-3.80718 -0.48877,-7.65484 -1.18467,-11.43174 0,0 1.30399,-0.0257 1.30399,-0.0257 z"
       transform="translate(-220.36341,56.18338)" />
    <path
       style="fill:#000000;fill-opacity:1;stroke:#000000;stroke-width:2;stroke-miterlimit:4;stroke-opacity:1;stroke-dasharray:none"
       id="path4150"
       d="m 393.0774,469.72836 c -4.38076,1.00122 -8.64426,2.41878 -13.00872,3.48102 -5.42594,1.32817 -10.91871,2.36474 -16.35999,3.62142 -3.22643,0.7568 -6.40635,1.74568 -9.73669,1.68917 -0.72254,-0.67854 2.48262,-3.4976 2.95492,-4.03711 2.64998,-2.9905 4.44998,-6.60202 6.30695,-10.10865 1.4782,-2.89227 2.62677,-5.92054 3.90123,-8.8998 0.61111,-1.46685 1.59058,-2.8689 3.28499,-2.95967 3.12713,-0.13177 5.2065,1.84607 7.43679,3.76913 3.17988,2.42874 6.16627,5.04104 8.90279,7.95756 2.26195,2.52343 4.82825,4.77282 6.86394,7.49411 0.18915,0.28817 0.3783,0.57634 0.56746,0.86452 0,0 -1.29778,0.0755 -1.29778,0.0755 l 0,0 c -0.18753,-0.28556 -0.37506,-0.57111 -0.56259,-0.85666 -2.03897,-2.70921 -4.58833,-4.96384 -6.84673,-7.48104 -2.73984,-2.91128 -5.73552,-5.51239 -8.91111,-7.94315 -1.12184,-0.96051 -2.23477,-1.94105 -3.50006,-2.71419 -0.32399,-0.19797 -0.65729,-0.38303 -1.00342,-0.53909 -0.28614,-0.12901 -0.68534,-0.0738 -0.88786,-0.31365 -0.11643,-0.13786 0.35336,-0.0734 0.53004,-0.11003 -1.68108,-0.0514 -2.67749,1.38747 -3.28134,2.80927 -1.28598,2.9797 -2.43846,6.01239 -3.91697,8.90961 -1.86234,3.51148 -3.65744,7.13376 -6.30048,10.13849 -0.24582,0.28413 -3.21558,3.4442 -3.16099,3.63983 0.0216,0.0775 0.14341,0.0731 0.21512,0.10958 -0.25596,0.0152 -0.99211,0.16979 -0.76787,0.0455 0.71327,-0.39553 1.60933,-0.26771 2.40941,-0.42604 1.85995,-0.36807 3.68883,-0.87307 5.53921,-1.28353 5.44081,-1.26312 10.93811,-2.2856 16.36386,-3.61958 4.35654,-1.05264 8.60946,-2.46775 12.97393,-3.49101 0,0 1.29196,0.17856 1.29196,0.17856 z"
       transform="translate(-220.36341,56.18338)" />
    <path
       style="fill:#000000;fill-opacity:1;stroke:#000000;stroke-width:2;stroke-miterlimit:4;stroke-opacity:1;stroke-dasharray:none"
       id="path4152"
       d="m 448.81837,446.40296 c -2.82114,4.01941 -5.79222,7.92889 -8.57746,11.97412 -2.85913,4.41267 -5.61397,8.91813 -9.12765,12.84852 -1.51991,1.52467 -0.72876,0.89392 -2.32757,1.94843 0,0 -1.28761,-0.12883 -1.28761,-0.12883 l 0,0 c 1.60895,-1.01762 0.81289,-0.40062 2.33864,-1.91321 3.53246,-3.91219 6.28854,-8.41871 9.14514,-12.83086 2.77777,-4.04288 5.74829,-7.94596 8.53467,-11.98206 0,0 1.30184,0.0839 1.30184,0.0839 z"
       transform="translate(-220.36341,56.18338)" />
    <path
       style="fill:#000000;fill-opacity:1;stroke:#000000;stroke-width:2;stroke-miterlimit:4;stroke-opacity:1;stroke-dasharray:none"
       id="path4154"
       d="m 431.44814,444.99039 c 2.84976,3.20759 5.92298,6.16618 9.17089,8.96827 3.40531,2.75955 6.3833,5.98575 8.87155,9.5872 1.07651,2.15147 0.60668,1.05903 1.41683,3.27413 0,0 -1.2856,0.0452 -1.2856,0.0452 l 0,0 c -0.80736,-2.1949 -0.33864,-1.1133 -1.41341,-3.24167 -2.48617,-3.59053 -5.45937,-6.8035 -8.85756,-9.55573 -3.252,-2.81024 -6.32159,-5.78451 -9.20125,-8.97522 0,0 1.29855,-0.1022 1.29855,-0.1022 z"
       transform="translate(-220.36341,56.18338)" />
    <path
       style="fill:none;stroke:#000000;stroke-width:1.78136039px;stroke-linecap:butt;stroke-linejoin:miter;stroke-opacity:1"
       d="m -139.27355,589.00217 906.6414,0"
       id="path3590-3-8" />
    <path
       style="fill:none;stroke:#000000;stroke-width:3;stroke-linecap:butt;stroke-linejoin:miter;stroke-miterlimit:4;stroke-opacity:1;stroke-dasharray:none;marker-start:url(#Arrow1Lstart);marker-end:url(#Arrow1Lend-1)"
       d="m 7.68179,432.76612 0,148.8501"
       id="path3590-3-0" />
    <path
       style="fill:none;stroke:#000000;stroke-width:3;stroke-linecap:butt;stroke-linejoin:miter;stroke-miterlimit:4;stroke-opacity:1;stroke-dasharray:none;marker-start:url(#Arrow1Lstart);marker-end:url(#Arrow1Lend-1)"
       d="m 340.4378,182.05499 0,403.51983"
       id="path3590-3-0-6"
       sodipodi:nodetypes="cc" />
    <path
       style="fill:#000000;fill-opacity:1;stroke:#000000;stroke-width:3;stroke-miterlimit:4;stroke-opacity:1;stroke-dasharray:none"
       id="path4599"
       d="m 192.98839,452.98895 c -1.08208,2.04028 -1.9115,4.2016 -1.49624,6.5178 0.29881,1.03962 0.88633,2.22439 1.96659,2.66225 0.19198,0.0778 0.58766,-0.10144 0.61266,0.1042 0.0244,0.20068 -0.40335,-0.0276 -0.60503,-0.0415 1.90418,-0.0571 3.50546,-0.83417 5.10667,-1.77886 0.83512,-0.49554 1.66895,-0.99326 2.49942,-1.49656 0.4813,0.20038 1.0459,0.2644 1.4439,0.60113 0.17385,0.14708 0.0548,0.45235 0.0698,0.67957 0.0914,1.38366 0.38969,2.71836 0.60887,4.08942 0.51075,3.83532 0.6533,7.71873 0.45514,11.57986 -0.0861,4.54556 -1.51965,8.66341 -3.84788,12.50817 -2.52055,3.30965 -6.19798,4.34886 -10.18203,4.5562 -4.72018,0.048 -8.42848,-1.69537 -11.1405,-5.52404 -1.12306,-2.47176 -0.69438,-1.17592 -1.26653,-3.89393 0,0 1.27948,-0.0267 1.27948,-0.0267 l 0,0 c 0.57353,2.68212 0.14479,1.40378 1.26766,3.8412 2.17424,3.02343 4.92583,4.6817 8.59367,5.40908 3.95833,-0.16755 7.63635,-1.16823 10.16897,-4.4317 2.33191,-3.82222 3.76787,-7.91564 3.85269,-12.44471 0.19429,-3.85278 0.0437,-7.72698 -0.47511,-11.5526 -0.0659,-0.40201 -0.8287,-4.6151 -0.69266,-4.7582 0.29277,-0.30798 0.78244,-0.33172 1.17365,-0.49757 -0.83658,0.50118 -1.67516,0.99899 -2.51411,1.4962 -1.60716,0.94976 -3.19387,1.77113 -5.10987,1.84263 -2.65943,0.0279 -3.74512,-0.14671 -4.56356,-2.90084 -0.40727,-2.34322 0.40088,-4.5308 1.4896,-6.60102 0,0 1.30472,0.0605 1.30472,0.0605 z"
       transform="translate(-220.36341,56.18338)" />
    <path
       style="fill:#000000;fill-opacity:1;stroke:#000000;stroke-width:4.06026983;stroke-miterlimit:4;stroke-opacity:1;stroke-dasharray:none"
       id="path4601"
       d="m -10.510955,544.11922 c -0.127973,6.22775 -0.180233,12.46235 -0.195653,18.82858 0,0 -0.521437,-0.0182 -0.521437,-0.0182 l 0,0 c 0.01594,-6.39469 0.06783,-12.66252 0.190985,-18.92927 0,0 0.526105,0.11713 0.526105,0.11713 z" />
    <path
       style="fill:#000000;fill-opacity:1;stroke:#000000;stroke-width:3;stroke-miterlimit:4;stroke-opacity:1;stroke-dasharray:none"
       id="path4603"
       d="m 590.48318,311.92657 c 0.32311,3.66972 1.23134,7.23201 2.2395,10.76202 1.10563,2.1104 1.22376,5.13642 3.07744,6.7805 0.17545,0.005 0.65406,0.13415 0.52634,0.0138 -0.20053,-0.18899 -0.67758,-0.004 -0.78537,-0.25791 -0.0921,-0.21658 0.3312,-0.343 0.44161,-0.55081 0.53717,-1.01098 0.82118,-2.26497 1.19515,-3.34356 0.88954,-1.85472 0.59867,-4.0725 1.33043,-5.94127 1.29345,-1.53248 3.45768,0.77678 4.32356,1.74959 1.6961,2.24308 3.72125,4.18262 5.62439,6.24166 2.21986,2.42294 3.42144,5.34071 4.03182,8.52225 0.39903,4.1983 -2.19225,7.41958 -4.8384,10.36977 -3.51062,3.56384 -7.6979,6.08541 -12.45044,7.5557 -4.0063,0.66397 -6.10803,0.6712 -8.24675,-2.84843 0,0 1.28519,-0.0712 1.28519,-0.0712 l 0,0 c 1.49562,2.38354 2.88364,3.35737 5.69239,2.75706 4.75244,-1.44041 8.93983,-3.93277 12.45037,-7.48627 2.62321,-2.91129 5.21149,-6.09821 4.81866,-10.25206 -0.61478,-3.15936 -1.81164,-6.05426 -4.03122,-8.45049 -1.9063,-2.05854 -3.92363,-4.00831 -5.63247,-6.24282 -0.78008,-0.85608 -0.53331,-0.65013 -1.38915,-1.3504 -0.1788,-0.1463 -0.64488,-0.21708 -0.5466,-0.42616 0.12955,-0.27558 0.62001,-0.0993 0.87317,-0.26854 0.195,-0.13035 -1.02928,-0.087 -0.65734,0.251 -0.78383,1.83893 -0.42788,4.09659 -1.34261,5.93383 -0.77335,2.22846 -0.80343,4.89843 -3.97645,4.20301 -1.80281,-1.73348 -1.95975,-4.69653 -3.05537,-6.85268 -1.00758,-3.54339 -1.91303,-7.11877 -2.26238,-10.79761 0,0 1.30453,0 1.30453,0 z"
       transform="translate(-220.36341,56.18338)" />
    <path
       style="fill:#000000;fill-opacity:1;stroke:#000000;stroke-width:3;stroke-miterlimit:4;stroke-opacity:1;stroke-dasharray:none"
       id="path4605"
       d="m 632.03824,349.01598 c 2.73696,-1.37795 5.54055,-1.72137 8.55119,-1.67803 2.76898,0.47888 3.04154,2.56971 3.08783,4.98041 -0.12774,3.10552 -0.85386,6.15983 -1.28868,9.23782 -0.18846,3.20892 0.80195,4.2867 3.72396,5.37307 3.67944,1.04882 7.41422,0.61397 11.15435,0.29504 3.41564,-0.29831 6.84419,-0.34607 10.11891,-1.44251 1.42358,-0.79648 0.73862,-0.34472 2.05138,-1.36058 0,0 1.29023,0.11728 1.29023,0.11728 l 0,0 c -1.31524,1.04178 -0.62841,0.57544 -2.05729,1.40373 -3.27597,1.13319 -6.71538,1.1745 -10.14206,1.4708 -4.55658,0.39171 -9.2178,0.87016 -13.69888,-0.32801 -2.94727,-1.14378 -3.92763,-2.31235 -3.73254,-5.54712 0.44179,-3.06936 1.15797,-6.11925 1.28684,-9.21688 -0.0511,-2.37492 -0.33916,-4.37898 -3.07805,-4.7842 0.0731,-0.0131 0.29349,-0.0422 0.21929,-0.0393 -0.41193,0.0162 -0.82706,0.0146 -1.2342,0.0793 -1.70691,0.27114 -3.36253,0.94232 -4.95416,1.58349 0,0 -1.29812,-0.14431 -1.29812,-0.14431 z"
       transform="translate(-220.36341,56.18338)" />
    <path
       style="fill:#000000;fill-opacity:1;stroke:#000000;stroke-width:3;stroke-miterlimit:4;stroke-opacity:1;stroke-dasharray:none"
       id="path4607"
       d="m 148.43988,404.29383 c -0.0165,2.83074 0.60566,5.62095 0.95112,8.42328 0.34394,1.92582 -0.21669,3.82351 -0.58994,5.70019 -0.0307,0.57837 -0.4067,1.23243 -0.1471,1.77907 0,0 -1.31278,0.0513 -1.31278,0.0513 l 0,0 c -0.22031,-0.6062 0.0853,-1.23106 0.15486,-1.85602 0.37038,-1.86396 0.94169,-3.74412 0.60065,-5.65873 -0.34477,-2.80837 -0.95535,-5.60346 -0.96135,-8.43912 0,0 1.30454,0 1.30454,0 z"
       transform="translate(-220.36341,56.18338)" />
    <path
       style="fill:#000000;fill-opacity:1;stroke:#000000;stroke-width:3;stroke-miterlimit:4;stroke-opacity:1;stroke-dasharray:none"
       id="path4609"
       d="m 751.95551,129.83667 c 2.17053,-2.27917 4.46055,-4.41173 7.01262,-6.25652 2.99578,-1.93328 4.55153,-2.35134 8.05096,-1.93346 2.22933,1.29267 2.59991,3.81883 2.60417,6.18675 -0.55207,3.81764 -2.68423,7.11478 -4.95419,10.14039 -2.38662,3.00114 -5.28301,5.53055 -7.68756,8.51239 -1.27212,2.31101 0.13064,1.71676 1.22813,1.47429 3.46113,-0.84613 6.90829,-1.75086 10.40955,-2.42067 2.59969,-0.4649 5.23706,-0.65079 7.8723,-0.76007 0.18334,-0.006 0.36696,-0.0284 0.55002,-0.0168 0.61118,0.0387 1.22606,0.0635 1.82957,0.16758 0.66646,0.11489 0.94684,0.66659 1.6849,0.63106 -1.26877,-0.47473 -1.03403,-0.0303 -0.65081,-1.36021 0,0 1.2986,0.035 1.2986,0.035 l 0,0 c -0.43055,1.62285 0.0716,0.96932 -1.94356,1.52822 -0.16822,-0.0135 -1.70714,-0.64261 -1.68717,-0.66516 0.12948,-0.14616 1.60294,-0.15772 0.20804,-0.12074 -2.64046,0.10099 -5.28323,0.28092 -7.88914,0.73823 -3.49919,0.66054 -6.9426,1.56332 -10.39762,2.41715 -1.68056,0.40644 -5.51556,1.00829 -3.80443,-1.7358 2.41046,-2.9805 5.3085,-5.50989 7.70447,-8.50681 2.25927,-2.99793 4.37954,-6.27129 4.9371,-10.05778 -0.007,-2.31492 -0.36929,-4.81511 -2.60195,-6.01699 0.11067,-0.0799 0.46168,-0.19698 0.33202,-0.23958 -1.59866,-0.52526 -4.48561,1.46123 -5.8113,2.12478 -2.55375,1.82764 -4.84223,3.94973 -6.99194,6.23725 0,0 -1.30278,-0.10254 -1.30278,-0.10254 z"
       transform="translate(-220.36341,56.18338)" />
    <path
       style="fill:none;stroke:#000000;stroke-width:3;stroke-linecap:butt;stroke-linejoin:miter;stroke-miterlimit:4;stroke-opacity:1;stroke-dasharray:none;marker-end:url(#Arrow1Lend-1-5)"
       d="m 196.60878,255.16051 0,110.84071"
       id="path4611" />
    <path
       style="fill:#000000;fill-opacity:1;stroke:#000000;stroke-width:3;stroke-miterlimit:4;stroke-opacity:1;stroke-dasharray:none"
       id="path5189"
       d="m 433.29929,259.31386 c -0.56641,2.91639 -1.05796,5.94312 -2.12927,8.72698 -0.53817,1.32532 -1.8196,3.09986 -3.43077,1.5029 -1.00143,-2.42365 -0.55893,-5.04758 -0.0719,-7.53425 0.7099,-3.33948 1.80649,-6.62329 3.3629,-9.66481 1.0007,-1.74371 3.13597,-4.37729 5.24661,-2.19643 1.45959,2.56839 2.1017,5.56477 2.79896,8.42062 0.49704,2.19091 0.78831,4.41832 0.96139,6.65594 0.12561,0.21935 1.26917,1.66959 -0.66983,0.313 -0.13223,-0.0925 0.24966,-0.20664 0.3563,-0.32777 0.13486,-0.15319 0.82642,-1.13706 0.87991,-1.21226 1.6146,-2.48882 2.98923,-5.05286 4.93748,-7.31845 1.46691,-2.04589 3.30434,-3.63209 5.63113,-4.58064 3.57595,-0.43516 4.6966,0.32029 5.96171,3.49945 1.10093,3.50958 1.24991,7.20551 1.37546,10.85341 0.0355,1.17488 0.0473,2.35019 0.0546,3.5255 0,0 -1.30284,4e-4 -1.30284,4e-4 l 0,0 c 1.1e-4,-1.17395 -0.005,-2.34795 -0.0384,-3.52154 -0.12131,-3.63331 -0.26731,-7.31599 -1.37642,-10.80837 -0.87405,-2.13654 -2.0584,-3.58527 -3.38031,-3.39409 -2.3338,0.91441 -4.18032,2.47006 -5.63944,4.51754 -1.9536,2.25686 -3.33042,4.80856 -4.92237,7.30695 -0.60991,0.86722 -2.35976,3.10886 -3.17492,1.15655 -0.15817,-2.23097 -0.44663,-4.4513 -0.94101,-6.63477 -0.69187,-2.83176 -1.32017,-5.82408 -2.81358,-8.34716 -0.16467,-0.15005 -0.56288,-0.23828 -0.494,-0.45013 0.0735,-0.22604 0.47106,-0.24738 0.69383,-0.16448 0.21551,0.0802 -0.4668,0.062 -0.66747,0.17428 -0.97485,0.54547 -1.57606,1.73549 -2.18676,2.59387 -1.56841,3.0227 -2.65624,6.30148 -3.36708,9.62819 -0.47313,2.42974 -0.94129,5.04418 0.0925,7.39916 0.5512,0.43623 0.50728,0.28102 -0.59659,0.32974 -0.12502,0.006 0.26743,0.0216 0.37255,-0.0462 0.52611,-0.33975 0.68842,-1.27823 1.05116,-1.72434 1.09191,-2.76465 1.57862,-5.79235 2.12535,-8.70023 0,0 1.30111,0.0215 1.30111,0.0215 z"
       transform="translate(-220.36341,56.18338)" />
    <path
       style="fill:#000000;fill-opacity:1;stroke:#000000;stroke-width:3;stroke-miterlimit:4;stroke-opacity:1;stroke-dasharray:none"
       id="path5191"
       d="m 480.50437,261.89243 c -0.91247,-0.55464 -1.89173,-1.20416 -3.03163,-0.9505 -0.0958,0.0213 0.0849,0.23963 0.003,0.29434 -0.40289,0.27059 -0.88569,0.39713 -1.32854,0.59569 -0.39779,0.27743 -0.79558,0.55485 -1.19336,0.83228 -2.00837,2.15891 -3.14943,4.93379 -1.98481,7.76035 2.38767,2.43577 4.82477,0.69194 7.31875,-0.6778 3.5771,-2.01259 6.53771,-4.81681 9.32239,-7.7882 1.147,-0.92488 2.34638,-1.60177 3.86621,-0.73977 0.0425,0.0241 0.56027,1.61593 0.63128,1.83041 0.88491,3.52207 1.90798,7.00844 2.95644,10.48577 1.11107,4.53904 2.42241,9.05737 2.81399,13.72739 0.43151,5.42049 -1.32595,8.72178 -5.27251,12.27637 -6.56558,4.80721 -14.56562,6.45244 -22.43668,7.69889 -6.5406,1.03823 -13.11225,0.93211 -19.64294,-0.007 0,0 1.22444,-0.17621 1.22444,-0.17621 l 0,0 c 5.74516,0.81066 11.44124,1.05311 17.20267,0.0105 7.85047,-1.2329 15.82578,-2.86117 22.38783,-7.63226 3.9388,-3.51331 5.68907,-6.77115 5.26044,-12.15925 -0.38755,-4.66112 -1.70089,-9.17186 -2.81493,-13.70053 -1.05241,-3.47661 -2.07393,-6.96333 -2.97676,-10.48133 -0.90879,-2.68816 -0.87825,-1.10076 0.25176,-2.01757 0.63397,-0.51435 -3.19643,0.97354 -2.16257,0.98237 -2.79927,2.97285 -5.75914,5.79535 -9.3384,7.82672 -2.87925,1.61762 -7.2246,3.41725 -9.88796,0.59168 -1.14444,-2.89277 -0.0303,-5.70196 1.99551,-7.93337 2.42828,-1.7385 5.53481,-2.65636 8.13875,-0.75109 0,0 -1.30277,0.10253 -1.30277,0.10253 z"
       transform="translate(-220.36341,56.18338)" />
  </g>
</svg>
