<?xml version="1.0" encoding="UTF-8" standalone="no"?>
<!-- Created with Inkscape (http://www.inkscape.org/) -->

<svg
   xmlns:dc="http://purl.org/dc/elements/1.1/"
   xmlns:cc="http://creativecommons.org/ns#"
   xmlns:rdf="http://www.w3.org/1999/02/22-rdf-syntax-ns#"
   xmlns:svg="http://www.w3.org/2000/svg"
   xmlns="http://www.w3.org/2000/svg"
   xmlns:sodipodi="http://sodipodi.sourceforge.net/DTD/sodipodi-0.dtd"
   xmlns:inkscape="http://www.inkscape.org/namespaces/inkscape"
   width="712.36603"
   height="484.58032"
   id="svg2"
   version="1.1"
   inkscape:version="0.47pre4 r22446"
   sodipodi:docname="New document 1">
  <defs
     id="defs4">
    <inkscape:perspective
       sodipodi:type="inkscape:persp3d"
       inkscape:vp_x="0 : 526.18109 : 1"
       inkscape:vp_y="0 : 1000 : 0"
       inkscape:vp_z="744.09448 : 526.18109 : 1"
       inkscape:persp3d-origin="372.04724 : 350.78739 : 1"
       id="perspective10" />
  </defs>
  <sodipodi:namedview
     id="base"
     pagecolor="#ffffff"
     bordercolor="#666666"
     borderopacity="1.0"
     inkscape:pageopacity="0.0"
     inkscape:pageshadow="2"
     inkscape:zoom="0.35"
     inkscape:cx="415.27584"
     inkscape:cy="297.43489"
     inkscape:document-units="px"
     inkscape:current-layer="layer1"
     showgrid="false"
     inkscape:window-width="1280"
     inkscape:window-height="726"
     inkscape:window-x="0"
     inkscape:window-y="25"
     inkscape:window-maximized="1" />
  <metadata
     id="metadata7">
    <rdf:RDF>
      <cc:Work
         rdf:about="">
        <dc:format>image/svg+xml</dc:format>
        <dc:type
           rdf:resource="http://purl.org/dc/dcmitype/StillImage" />
        <dc:title></dc:title>
      </cc:Work>
    </rdf:RDF>
  </metadata>
  <g
     inkscape:label="Layer 1"
     inkscape:groupmode="layer"
     id="layer1"
     transform="translate(40.275843,-345.21673)">
    <path
       style="fill:#000000;fill-opacity:1;stroke:#000000;stroke-width:10;stroke-miterlimit:4;stroke-opacity:1;stroke-dasharray:none"
       id="path2816"
       d="m 39.401915,614.35019 c -7.929292,-5.00926 -10.823382,-12.47953 -11.521277,-21.47487 0.206733,-10.12697 5.882144,-17.80566 13.568653,-23.81025 7.06605,-3.95564 15.65267,-5.8854 21.981051,0.36461 4.721712,7.98854 0.499892,16.88625 -3.265773,24.34766 -3.644117,6.71654 -8.225927,12.80671 -14.052866,17.75124 0,0 -2.801722,-0.24478 -2.801722,-0.24478 l 0,0 c 5.853457,-4.87995 10.428228,-10.94687 14.07225,-17.63677 3.709905,-7.32866 7.986131,-16.15626 3.236901,-23.99173 -0.541728,-0.51535 -4.610264,-3.74127 -5.063563,-3.75277 -4.007123,-0.10164 -7.932611,1.45486 -11.318292,3.41733 -7.667259,5.89791 -13.350055,13.48394 -13.560734,23.53375 0.695604,8.91657 3.607823,16.3117 11.534666,21.18427 0,0 -2.809294,0.31231 -2.809294,0.31231 z" />
    <path
       style="fill:#000000;fill-opacity:1;stroke:#000000;stroke-width:10;stroke-miterlimit:4;stroke-opacity:1;stroke-dasharray:none"
       id="path2818"
       d="m 60.30143,567.35652 c 7.624072,-9.18187 16.904385,-16.7734 25.822041,-24.6389 13.497296,-11.43003 26.961329,-22.91039 41.066349,-33.58697 16.46352,-11.94653 32.93579,-23.87992 49.45426,-35.75057 11.03086,-7.65596 22.23168,-15.10943 33.92576,-21.72065 4.53508,-1.98514 8.48012,-5.13036 12.94274,-7.2265 2.6511,-2.06461 5.3922,-4.03252 8.07525,-6.0702 3.25313,-2.61532 6.63727,-5.05438 10.00977,-7.51735 2.81912,-2.1355 6.03808,-3.59708 8.91421,-5.66013 3.25431,-2.4456 6.14405,-5.32867 9.04341,-8.17418 3.6268,-3.73575 7.29331,-7.36511 11.38834,-10.58283 4.24214,-3.73043 9.02108,-6.79471 13.28551,-10.48087 4.04431,-3.32215 8.19101,-6.52843 12.51721,-9.47774 2.75722,-2.0902 5.83796,-3.7023 8.96832,-5.15362 0.55026,-0.24499 1.12779,-0.38308 1.46663,-0.80399 0,0 2.8515,0.0619 2.8515,0.0619 l 0,0 c -0.13982,0.79624 -0.7739,0.72117 -1.49188,1.06582 -3.13664,1.42464 -6.23066,3.01277 -8.98004,5.10504 -4.33511,2.92825 -8.47095,6.13721 -12.52219,9.44331 -4.24323,3.71596 -9.05404,6.74639 -13.28619,10.49518 -4.09359,3.20666 -7.77247,6.80578 -11.37915,10.55221 -2.90554,2.85201 -5.79075,5.75192 -9.04161,8.21672 -2.86188,2.09303 -6.07809,3.54772 -8.91679,5.65833 -3.3642,2.47295 -6.76713,4.88217 -10.00612,7.51269 -2.69329,2.04885 -5.46894,3.98579 -8.07555,6.13356 -4.51384,1.99369 -8.41365,5.27936 -12.98516,7.1976 -11.72217,6.581 -22.93285,14.03954 -33.98234,21.68448 -16.52843,11.85938 -33.00061,23.79545 -49.46546,35.74265 -14.09644,10.6649 -27.53921,22.14843 -41.025352,33.5699 -8.894612,7.85401 -18.171217,15.41999 -25.758693,24.60096 0,0 -2.814775,-0.19587 -2.814775,-0.19587 z" />
    <path
       style="fill:#000000;fill-opacity:1;stroke:#000000;stroke-width:10;stroke-miterlimit:4;stroke-opacity:1;stroke-dasharray:none"
       id="path2820"
       d="m 307.15879,375.68412 c 0.37027,-7.6535 3.60617,-14.27498 8.93542,-19.64566 6.71841,-5.29689 11.52433,-6.02708 19.77792,-5.78052 5.53068,1.22707 8.03323,5.47642 8.82071,10.72568 -0.003,8.38633 -4.96626,14.96212 -10.41108,20.84279 -5.65884,5.6976 -12.74817,8.88117 -20.26355,11.29308 0,0 -2.77635,-0.3525 -2.77635,-0.3525 l 0,0 c 7.50457,-2.36477 14.58698,-5.49386 20.25424,-11.14955 5.40692,-5.79679 10.36673,-12.29095 10.37819,-20.59121 -0.79862,-5.1625 -3.32231,-9.267 -8.79201,-10.34399 -4.56785,-0.0492 -10.12506,2.34115 -14.19006,5.5767 -5.33247,5.27091 -8.55849,11.84119 -8.90816,19.42518 0,0 -2.82527,0 -2.82527,0 z" />
    <path
       style="fill:#000000;fill-opacity:1;stroke:#000000;stroke-width:10;stroke-miterlimit:4;stroke-opacity:1;stroke-dasharray:none"
       id="path2822"
       d="m 339.92069,379.68995 c 7.17985,7.55896 14.35918,15.08743 22.11516,22.06354 11.26506,9.95624 23.74488,18.45719 36.19553,26.84813 14.71669,9.63541 29.54989,19.0732 44.14765,28.88992 12.79248,8.53281 24.96996,17.83861 36.26326,28.27316 8.60886,8.31729 16.34545,17.47701 24.23817,26.46359 7.42346,8.45017 15.65089,16.13576 23.93171,23.73154 7.67797,6.6794 15.64144,12.98422 23.79183,19.07186 0.97388,0.75084 1.94776,1.50168 2.92164,2.25252 0,0 -2.79632,0.25628 -2.79632,0.25628 l 0,0 c -0.97207,-0.74966 -1.94414,-1.49932 -2.91621,-2.24898 -8.1396,-6.10471 -16.1028,-12.41574 -23.77766,-19.1012 -8.27974,-7.60555 -16.50652,-15.30137 -23.92732,-23.76186 -7.88659,-8.97782 -15.61625,-18.12987 -24.22184,-26.43577 -11.29045,-10.41394 -23.45543,-19.71004 -36.2353,-28.23331 -14.59631,-9.82186 -29.43974,-19.24684 -44.15361,-28.88957 -12.46311,-8.39965 -24.95247,-16.91283 -36.22492,-26.88424 -7.766,-6.99809 -14.97018,-14.53699 -22.17333,-22.10494 0,0 2.82156,-0.19067 2.82156,-0.19067 z" />
    <path
       style="fill:#000000;fill-opacity:1;stroke:#000000;stroke-width:10;stroke-miterlimit:4;stroke-opacity:1;stroke-dasharray:none"
       id="path2824"
       d="m 536.54626,600.42626 c -8.00337,-3.4846 -10.83858,-7.20781 -9.94426,-16.0346 2.66654,-10.40959 10.72323,-17.6849 18.50242,-24.51747 6.91582,-5.30267 14.85241,-9.1383 23.60155,-9.76239 8.73735,0.16766 12.10788,3.61513 13.61787,11.98543 1.0287,8.44004 -2.37416,15.86047 -6.7568,22.80709 -2.8045,4.73152 -6.70827,7.74941 -11.47259,10.25716 0,0 -2.79114,-0.30581 -2.79114,-0.30581 l 0,0 c 4.76711,-2.44801 8.66739,-5.3978 11.46659,-10.10937 4.36808,-6.87756 7.77674,-14.22157 6.74301,-22.59828 -0.74538,-4.03101 -1.9577,-7.7927 -5.65876,-10.08193 -0.71199,-0.44039 -1.56988,-0.61404 -2.27277,-1.06881 -0.13241,-0.0857 -0.0636,-0.30894 -0.0954,-0.46341 -8.73992,0.4983 -16.68294,4.33387 -23.60769,9.57694 -7.74036,6.77502 -15.78803,13.97534 -18.47249,24.30929 -0.89313,8.73581 2.0385,12.29666 9.94678,15.65381 0,0 -2.80632,0.35235 -2.80632,0.35235 z" />
    <path
       style="fill:#000000;fill-opacity:1;stroke:#000000;stroke-width:10;stroke-miterlimit:4;stroke-opacity:1;stroke-dasharray:none"
       id="path2826"
       d="m 542.55665,602.4272 c -7.40481,5.94215 -14.33472,12.43715 -21.20774,18.9773 -11.34314,10.55272 -21.02186,22.66799 -30.82004,34.61655 -13.22116,16.11344 -25.97165,32.60436 -39.2242,48.69123 -12.66071,15.82956 -25.06196,31.79692 -38.60412,46.89195 -9.12506,10.26133 -18.90907,19.87705 -29.34102,28.79708 0,0 -2.7526,-0.23851 -2.7526,-0.23851 l 0,0 c 10.44802,-8.8991 20.24286,-18.50101 29.37091,-28.75813 13.55419,-15.08484 25.96113,-31.04591 38.61742,-46.87945 13.25746,-16.07818 25.99802,-32.5725 39.20634,-48.69167 9.7883,-11.9556 19.44823,-24.08559 30.77551,-34.65396 6.86252,-6.54443 13.78717,-13.03565 21.16289,-19.00546 0,0 2.81665,0.25307 2.81665,0.25307 z" />
    <path
       style="fill:#000000;fill-opacity:1;stroke:#000000;stroke-width:10;stroke-miterlimit:4;stroke-opacity:1;stroke-dasharray:none"
       id="path2830"
       d="m 391.47123,794.49575 c -3.72033,5.84774 -7.87099,11.47279 -13.72954,15.29176 -5.83679,3.06046 -12.45213,2.94245 -18.67417,1.23176 -6.43276,-2.4123 -11.33716,-7.03625 -15.4463,-12.39398 -4.56397,-5.43796 -6.38326,-11.42214 -6.44433,-18.39714 0.37097,-7.09019 3.7565,-12.8635 7.31902,-18.75674 3.34864,-5.37954 7.86999,-8.87128 13.81372,-10.85259 6.09468,-1.74039 12.04195,-0.25882 17.60796,2.32529 5.12646,2.63351 9.27125,5.95841 11.88568,11.12747 2.35823,6.40261 1.98828,12.92722 0.60761,19.47545 -1.97233,5.40671 -3.52192,12.19113 -8.90841,15.18094 0,0 -2.81322,-0.30654 -2.81322,-0.30654 l 0,0 c 5.45481,-2.72721 6.93678,-9.65643 8.91385,-14.93292 1.37462,-6.48265 1.74963,-12.95257 -0.61911,-19.28383 -2.62251,-5.09559 -6.78598,-8.36231 -11.8684,-10.93958 -4.74961,-2.15361 -7.25584,-3.61291 -12.00813,-2.2933 -5.93856,1.90084 -10.45102,5.30571 -13.80452,10.6524 -3.53736,5.84966 -6.94019,11.55778 -7.31363,18.60149 0.0604,6.91972 1.90617,12.8304 6.43851,18.21507 4.10944,5.30788 9.00498,9.88908 15.43424,12.21053 4.84313,1.26131 8.4099,1.33836 13.07418,-1.14507 5.88582,-3.73295 10.03015,-9.33927 13.71556,-15.17644 0,0 2.81943,0.16597 2.81943,0.16597 z" />
    <path
       style="fill:#000000;fill-opacity:1;stroke:#000000;stroke-width:10;stroke-miterlimit:4;stroke-opacity:1;stroke-dasharray:none"
       id="path2832"
       d="m 336.49305,784.33072 c -8.21067,1.51045 -16.64215,1.38024 -24.87455,0.13193 -8.59496,-2.04428 -16.70034,-5.5713 -24.57416,-9.5059 -10.08904,-4.52844 -20.27232,-8.83725 -30.15996,-13.79747 -9.20218,-3.99455 -18.02708,-8.78036 -26.85959,-13.51955 -7.8101,-4.37833 -15.09736,-9.57777 -22.35791,-14.79499 -7.91907,-5.50563 -15.77257,-11.11689 -23.45204,-16.95345 -7.21166,-4.8583 -14.55213,-9.45818 -21.4036,-14.82998 -7.70284,-4.45101 -14.33244,-10.35584 -21.15415,-16.00352 -6.38111,-5.37934 -13.16128,-10.23913 -19.52452,-15.64511 -5.51562,-4.35761 -11.37086,-8.28435 -17.33255,-12.00335 -5.396674,-3.41735 -10.627844,-7.06474 -15.827563,-10.77259 -4.39973,-2.65097 -8.358291,-5.97477 -12.788569,-8.57723 -3.488068,-1.50478 -6.320631,-4.06334 -9.519314,-6.02688 -2.832442,-1.88202 -5.128724,-4.29273 -7.433457,-6.76914 0,0 2.81588,-0.21188 2.81588,-0.21188 l 0,0 c 2.299721,2.45598 4.605777,4.83916 7.436285,6.69419 3.172876,2.00169 6.04784,4.4828 9.512477,6.02156 4.408392,2.64197 8.39412,5.92684 12.782248,8.60151 5.199143,3.69871 10.420923,7.35306 15.819913,10.75649 5.95582,3.74191 11.82827,7.65403 17.32875,12.04443 6.36621,5.39609 13.14299,10.25653 19.51411,15.64257 6.82367,5.64637 13.47566,11.51608 21.16011,15.99533 6.85714,5.35879 14.20704,9.9413 21.39627,14.82656 7.68221,5.83075 15.534,11.44158 23.45247,16.94587 7.25874,5.20763 14.54401,10.39829 22.35661,14.75843 8.8302,4.73126 17.6482,9.51366 26.84172,13.51371 9.89579,4.94989 20.08584,9.24908 30.16961,13.7958 7.87344,3.91123 15.97789,7.43143 24.57772,9.41662 6.46033,0.93734 12.8539,1.28567 19.29622,-0.13037 0,0 2.80154,0.39641 2.80154,0.39641 z" />
    <path
       style="fill:#000000;fill-opacity:1;stroke:#000000;stroke-width:10;stroke-miterlimit:4;stroke-opacity:1;stroke-dasharray:none"
       id="path2836"
       d="m 332.84121,397.61167 c -0.42717,6.99106 0.72276,13.87606 1.71681,20.76458 0.76382,5.5605 2.35497,10.94289 3.17011,16.50507 0.85508,7.13619 2.20245,14.1911 2.89797,21.35448 0.16837,7.86013 1.58018,15.58554 2.5062,23.37144 0.80503,7.08594 0.99998,14.21598 1.10447,21.33997 0.0671,6.44197 0.0522,12.88441 0.045,19.32661 -0.10405,5.24978 -0.20029,10.40613 0.80212,15.56744 1.28829,5.69578 1.61046,11.52237 1.85209,17.33653 0.89435,6.06636 1.91139,12.10213 2.54885,18.20386 0.49429,5.08001 1.89173,10.00603 2.58369,15.07102 1.57398,6.19628 2.51674,12.50782 3.11016,18.86502 0.0566,6.41364 0.67426,12.6714 1.83521,18.96716 1.07899,5.6264 1.3009,11.35185 1.451,17.06237 0.12875,6.8657 0.10544,13.73313 0.10242,20.59972 -0.0106,6.93057 -0.0131,13.86116 -0.0146,20.79174 0.44625,5.99747 -0.84449,11.84245 -1.72192,17.73288 -0.73625,4.98143 -0.98079,10.0062 -1.09535,15.03369 0.0545,4.84684 -1.32341,9.55528 -2.1211,14.30876 -0.4727,3.05002 -0.68907,6.12545 -0.76272,9.20793 0.18652,0.76726 -0.53713,2.90674 0.32005,3.24906 0,0 -2.8395,0.25975 -2.8395,0.25975 l 0,0 c -0.78508,-0.89579 -0.16544,-2.4012 -0.31957,-3.51543 0.0705,-3.09677 0.29976,-6.18454 0.77275,-9.24856 0.80234,-4.73922 2.17742,-9.43525 2.12631,-14.26788 0.1126,-5.03979 0.35918,-10.07584 1.10093,-15.06898 0.87481,-5.87708 2.16955,-11.70729 1.72541,-17.69135 0.005,-6.9306 0.0142,-13.8612 0.0177,-20.7918 0.006,-6.86404 0.0251,-13.72889 -0.10461,-20.59204 -0.15359,-5.69588 -0.38364,-11.40649 -1.45757,-17.01851 -1.15839,-6.30395 -1.75638,-12.57299 -1.82908,-18.99233 -0.59246,-6.3545 -1.54376,-12.65944 -3.11704,-18.85279 -0.69612,-5.06703 -2.10144,-9.99561 -2.58463,-15.08031 -0.62681,-6.10853 -1.65693,-12.1478 -2.5402,-18.22127 -0.24236,-5.80062 -0.57588,-11.61224 -1.86237,-17.29415 -1.0028,-5.18035 -0.90055,-10.35386 -0.79571,-15.62189 0.009,-6.44069 0.0278,-12.88163 -0.0375,-19.32211 -0.105,-7.11402 -0.30016,-14.23457 -1.10046,-21.31081 -0.93123,-7.7871 -2.32826,-15.51643 -2.50547,-23.37746 -0.70149,-7.15887 -2.04494,-14.20969 -2.9126,-21.34065 -0.81814,-5.56129 -2.41429,-10.94364 -3.16734,-16.50598 -0.98731,-6.90261 -2.1203,-13.8017 -1.72524,-20.80478 0,0 2.82527,0 2.82527,0 z" />
    <path
       style="fill:#000000;fill-opacity:1;stroke:#000000;stroke-width:10;stroke-miterlimit:4;stroke-opacity:1;stroke-dasharray:none"
       id="path2838"
       d="m 202.09697,671.51013 c 2.04618,6.17607 4.65522,12.14482 7.26569,18.09772 2.49994,3.93831 4.47889,8.09405 5.66956,12.60166 1.03985,2.99803 2.34177,5.93745 3.06954,9.03291 0.77082,2.63073 0.11609,4.80448 -1.15306,7.15081 -2.62003,3.45926 -6.08017,6.06238 -9.38396,8.81892 -5.03273,4.50997 -10.96484,7.81095 -16.41352,11.77946 -5.30198,3.96859 -11.12891,7.04823 -16.94942,10.15822 -3.08883,1.36162 -1.58541,0.74485 -4.50342,1.86695 0,0 -2.8066,-0.34036 -2.8066,-0.34036 l 0,0 c 2.92032,-1.10195 1.4162,-0.49689 4.50596,-1.83106 5.82641,-3.0903 11.65005,-6.16578 16.95912,-10.11725 5.43397,-3.97603 11.36419,-7.26285 16.39294,-11.76282 3.27883,-2.744 6.71883,-5.31759 9.36783,-8.71402 1.26606,-2.28329 1.9002,-4.37004 1.14381,-6.94258 -0.74191,-3.0898 -2.02424,-6.02901 -3.06181,-9.02603 -1.18631,-4.49344 -3.19248,-8.61649 -5.65144,-12.55843 -2.61435,-5.96177 -5.20129,-11.9482 -7.2781,-18.12312 0,0 2.82688,-0.091 2.82688,-0.091 z" />
    <path
       style="fill:#000000;fill-opacity:1;stroke:#000000;stroke-width:10;stroke-miterlimit:4;stroke-opacity:1;stroke-dasharray:none"
       id="path2840"
       d="m 180.59421,446.79145 c 7.13369,2.04741 14.37783,3.56784 21.73326,4.52997 4.31664,0.69422 8.73808,0.19772 12.87521,1.71124 1.86921,0.63964 3.74766,1.25243 5.63495,1.83658 1.06763,0.18184 0.58412,1.33106 0.30267,2.06172 -1.28532,3.59403 -3.0935,6.96122 -5.1311,10.18 -2.83145,4.67499 -6.15346,9.00542 -8.8669,13.76 -1.65401,2.28186 -0.82068,1.22913 -2.47614,3.17694 0,0 -2.82588,-0.20074 -2.82588,-0.20074 l 0,0 c 1.65904,-1.91478 0.82412,-0.8801 2.48165,-3.12257 2.71533,-4.75981 6.0282,-9.09997 8.87052,-13.77306 2.03452,-3.19881 3.83722,-6.55051 5.1047,-10.13117 0.33146,-0.75651 0.64574,-1.41061 -0.2879,-1.59045 -1.88212,-0.59199 -3.75753,-1.20566 -5.62261,-1.84942 -4.13436,-1.42972 -8.55623,-0.92437 -12.83999,-1.65604 -7.36049,-0.98409 -14.5981,-2.54733 -21.75398,-4.53658 0,0 2.80154,-0.39642 2.80154,-0.39642 z" />
    <path
       style="fill:#000000;fill-opacity:1;stroke:#000000;stroke-width:10;stroke-miterlimit:4;stroke-opacity:1;stroke-dasharray:none"
       id="path2842"
       d="m 324.95411,557.22441 c 2.64971,5.89604 5.54007,11.72012 8.78413,17.31327 2.05851,3.42594 3.5843,7.41986 6.57213,10.17071 0.93116,1.38943 6.6666,2.12073 2.46963,1.47437 3.66963,-1.49674 5.99435,-5.23145 8.1887,-8.36456 4.25818,-6.47721 7.90353,-13.29614 11.82216,-19.97496 2.19674,-3.32558 4.25789,-6.73532 6.40171,-10.09479 0,0 2.80149,0.15943 2.80149,0.15943 l 0,0 c -2.14572,3.35565 -4.20283,6.76514 -6.40578,10.08406 -3.9266,6.67857 -7.56346,13.50556 -11.80466,19.99775 -2.20401,3.1809 -4.54895,6.92639 -8.18553,8.56382 -3.43547,0.27107 -5.48418,0.62421 -8.11618,-1.61493 -2.92305,-2.85136 -4.51263,-6.78097 -6.55882,-10.25347 -3.22751,-5.62516 -6.14457,-11.4522 -8.79586,-17.36971 0,0 2.82688,-0.091 2.82688,-0.091 z" />
    <path
       style="fill:#000000;fill-opacity:1;stroke:#000000;stroke-width:10;stroke-miterlimit:4;stroke-opacity:1;stroke-dasharray:none"
       id="path2844"
       d="m 481.07277,443.00756 c -0.32934,5.6092 -0.0318,11.23196 0.14378,16.842 -0.27174,3.84042 0.9217,7.41251 1.91435,11.05871 0.36028,3.25781 1.44005,6.23934 2.40074,9.34285 0.51536,2.07355 1.28247,4.11606 1.52741,6.24736 0.35861,1.94712 -0.43668,3.37596 -1.54399,4.95024 -1.95415,2.2109 -4.76436,3.67406 -7.39396,4.97436 -3.40326,1.25476 -6.79589,2.5538 -10.19555,3.83662 -5.00081,1.36981 -9.45231,4.41006 -14.61578,5.12968 0,0 -2.79995,-0.40813 -2.79995,-0.40813 l 0,0 c 5.18518,-0.56289 9.60997,-3.72804 14.61134,-5.06207 3.3903,-1.29207 6.77031,-2.6015 10.18216,-3.81278 2.61409,-1.24341 5.39027,-2.72726 7.37893,-4.8346 1.10949,-1.50624 1.87289,-2.85473 1.52974,-4.73979 -0.25725,-2.11147 -0.99223,-4.14108 -1.51217,-6.19535 -0.97281,-3.10286 -2.02796,-6.09705 -2.40283,-9.35327 -0.99228,-3.66731 -2.18518,-7.26447 -1.90625,-11.12511 -0.17105,-5.62883 -0.44919,-11.26901 -0.14703,-16.89745 0,0 2.82906,0.0467 2.82906,0.0467 z" />
    <path
       style="fill:#000000;fill-opacity:1;stroke:#000000;stroke-width:10;stroke-miterlimit:4;stroke-opacity:1;stroke-dasharray:none"
       id="path2846"
       d="m 460.93045,634.99834 c 6.45929,-1.00596 13.00507,-1.67955 19.42793,-3.12102 4.52649,-1.23052 9.14651,-1.99403 13.81302,-2.40887 3.17076,-0.46194 5.96283,-0.0972 9.08387,0.56772 1.51677,1.41105 1.13241,2.604 0.3614,4.36512 -1.08468,3.1243 -2.66365,6.02297 -3.71165,9.16358 -0.71801,4.06917 -1.69905,8.05444 -2.62698,12.08207 -1.00452,4.10704 -1.32958,8.32718 -1.50323,12.53801 -0.0924,2.88143 -0.1042,5.76483 -0.0856,8.64747 10e-4,0.42971 0.01,0.85931 0.0207,1.28884 0,0 -2.85626,0.009 -2.85626,0.009 l 0,0 c -0.007,-0.43227 -0.012,-0.86457 -0.0114,-1.29692 -0.004,-2.88691 0.009,-5.77457 0.1032,-8.66016 0.17121,-4.22816 0.50004,-8.46654 1.50824,-12.59019 0.92347,-4.03735 1.91324,-8.02854 2.62009,-12.10899 1.03862,-3.15377 2.62689,-6.05517 3.70391,-9.19137 0.74751,-1.66729 1.13141,-2.68739 -0.35352,-3.99264 5.14646,-1.55841 -2.38605,-0.12896 -3.45047,-0.40273 -4.67107,0.39513 -9.30049,1.12788 -13.82863,2.36812 -8.21153,1.85779 -16.58864,2.8571 -25.00512,3.18472 0,0 2.79049,-0.44197 2.79049,-0.44197 z" />
    <path
       style="fill:#000000;fill-opacity:1;stroke:#000000;stroke-width:10;stroke-miterlimit:4;stroke-opacity:1;stroke-dasharray:none"
       id="path2848"
       d="m 19.354066,619.25791 c -6.9015,2.74042 -13.2193163,6.40657 -19.21293943,10.73637 -4.46193027,3.34124 -6.39213867,7.65268 -6.19183817,13.10064 0.2771163,5.03529 2.8060049,9.44592 4.8317909,13.93542 1.73089385,2.63552 3.4752988,5.23102 4.8894183,8.05718 1.229026,2.23093 0.059801,3.77899 -1.8036807,5.10653 -4.6515464,2.69533 -9.5261126,5.07332 -14.4933519,7.1342 -6.789768,2.60092 -13.234842,5.96318 -19.855706,8.94146 0,0 -2.793602,-0.32261 -2.793602,-0.32261 l 0,0 c 6.631676,-2.95739 13.06316,-6.35377 19.856534,-8.94993 4.961959,-2.02992 9.8056976,-4.43013 14.46308006,-7.07842 1.84571847,-1.20312 2.98116664,-2.55117 1.78456744,-4.6994 -1.41158214,-2.82695 -3.1805476,-5.40805 -4.8700413,-8.06915 -2.0450074,-4.5198 -4.5610243,-8.97471 -4.8329313,-14.04477 -0.2082835,-5.52596 1.7031026,-9.95726 6.2142132,-13.37681 5.9996151,-4.32956 12.2866389,-8.05659 19.2051929,-10.78302 0,0 2.809294,0.31231 2.809294,0.31231 z" />
    <path
       style="fill:#000000;fill-opacity:1;stroke:#000000;stroke-width:10;stroke-miterlimit:4;stroke-opacity:1;stroke-dasharray:none"
       id="path2850"
       d="m 638.24371,650.33496 c -1.49525,-10.89268 -2.05922,-21.89971 -1.8212,-32.88453 0.19748,-13.47952 1.95154,-26.80776 4.38325,-40.04162 1.71169,-9.01026 4.83349,-17.63011 7.35255,-26.42262 0.60135,-2.22553 1.04595,-4.48652 1.46551,-6.75143 0,0 2.83313,0.0524 2.83313,0.0524 l 0,0 c -0.42917,2.2733 -0.88251,4.5427 -1.48589,6.77789 -2.53899,8.78081 -5.66481,17.39256 -7.38855,26.39441 -2.44627,13.21687 -4.20321,26.53115 -4.39289,39.99694 -0.23448,10.96798 0.33173,21.96304 1.88315,32.83185 0,0 -2.82906,0.0467 -2.82906,0.0467 z" />
    <path
       style="fill:#000000;fill-opacity:1;stroke:#000000;stroke-width:10;stroke-miterlimit:4;stroke-opacity:1;stroke-dasharray:none"
       id="path2852"
       d="m 620.59659,581.44096 c 8.0022,2.36221 16.25869,3.5363 24.53878,4.35852 5.53648,0.4943 11.09635,0.62901 16.65209,0.66591 4.02975,0.004 0.26247,0.001 0.0378,-0.002 -2.5756,-0.0391 1.76168,0.17901 2.25533,-0.2399 0.0536,-0.14246 0.10714,-0.28492 0.16072,-0.42738 0,0 2.84889,0.0939 2.84889,0.0939 l 0,0 c -0.0549,0.17479 -0.10984,0.34958 -0.16476,0.52437 -0.81888,1.33937 -6.42608,0.14708 -7.93505,0.49226 -5.54857,-0.0451 -11.10112,-0.1899 -16.62944,-0.69576 -8.29208,-0.83959 -16.55981,-2.03755 -24.57067,-4.41721 0,0 2.80631,-0.35236 2.80631,-0.35236 z" />
    <path
       style="fill:#000000;fill-opacity:1;stroke:#000000;stroke-width:10;stroke-miterlimit:4;stroke-opacity:1;stroke-dasharray:none"
       id="path2854"
       d="m 178.89915,788.67511 c 1.44167,8.33665 1.89577,16.71022 1.3654,25.14021 -0.29541,3.66288 -0.63155,7.32226 -0.96561,10.98175 0,0 -2.81467,-0.026 -2.81467,-0.026 l 0,0 c 0.34305,-3.65638 0.68323,-7.31308 0.98123,-10.97348 0.53644,-8.40937 0.0849,-16.76498 -1.39541,-25.07577 0,0 2.82906,-0.0467 2.82906,-0.0467 z" />
    <path
       style="fill:#000000;fill-opacity:1;stroke:#000000;stroke-width:10;stroke-miterlimit:4;stroke-opacity:1;stroke-dasharray:none"
       id="path2856"
       d="m 94.933139,400.07391 c 9.655651,-3.55381 19.090581,-7.66782 28.708621,-11.32395 7.72595,-2.3476 17.21847,-5.73095 25.07075,-2.06663 4.58753,3.88008 3.72757,9.69053 2.5986,14.96947 -2.47245,7.80271 -7.2484,14.45137 -12.29247,20.7755 -1.45917,2.48698 -9.00653,8.16589 -5.98366,11.39338 2.59801,0.36034 8.60201,-2.03149 12.65808,-3.5278 4.15135,-1.36246 8.28689,-2.85404 12.60186,-3.60587 0.77988,-0.12873 1.56564,-0.21057 2.35263,-0.27828 0,0 2.81815,0.42376 2.81815,0.42376 l 0,0 c -0.78923,0.0559 -1.57708,0.12911 -2.35936,0.2516 -4.32511,0.71085 -8.46503,2.19386 -12.62124,3.55029 -5.75087,2.12555 -12.04017,4.96533 -18.28469,3.38429 -2.88305,-3.80196 4.22726,-8.9192 6.02405,-11.78002 5.03042,-6.28449 9.79404,-12.88796 12.27404,-20.64635 1.10828,-5.14054 2.00848,-10.89604 -2.59266,-14.58652 -0.72475,-0.31494 -1.4959,-0.53948 -2.17424,-0.94483 -0.11596,-0.0693 0.0609,-0.38854 -0.0738,-0.39849 -5.91137,-0.43651 -11.7115,1.76442 -17.25092,3.42222 -9.6134,3.63946 -19.03944,7.74304 -28.667408,11.34058 0,0 -2.806313,-0.35235 -2.806313,-0.35235 z" />
    <path
       style="fill:#000000;fill-opacity:1;stroke:#000000;stroke-width:10;stroke-miterlimit:4;stroke-opacity:1;stroke-dasharray:none"
       id="path2858"
       d="m 252.07838,566.10793 c 5.64013,-1.04711 11.18324,-2.05847 16.92109,-1.86063 2.51068,2.10602 0.24142,4.96414 -1.20692,7.02145 -1.1134,1.40683 -5.35853,3.71188 -3.4875,5.7255 3.16417,0.65355 6.29717,1.32116 9.4288,2.23985 2.36462,0.79346 5.17879,1.86451 6.70592,3.94214 1.23917,2.21524 -1.21539,4.3583 -2.67461,5.81133 -5.12852,4.46282 -10.5742,8.5609 -15.96312,12.70631 -4.69576,3.68831 -9.94486,6.54473 -15.12548,9.46952 0,0 -2.75633,-0.29252 -2.75633,-0.29252 l 0,0 c 5.17163,-2.91336 10.41506,-5.75402 15.10203,-9.43207 5.37386,-4.13538 10.78658,-8.24382 15.91618,-12.67679 1.35484,-1.30245 3.84648,-3.36714 2.66338,-5.39878 -1.61177,-1.97677 -4.32171,-2.99879 -6.67771,-3.76577 -3.14713,-0.91861 -6.39715,-1.40346 -9.45972,-2.4082 -1.77708,-2.43076 2.03319,-4.50595 3.49858,-6.09528 1.27888,-1.79002 3.76614,-4.69186 1.22725,-6.43336 0.49593,-0.0496 1.97684,-0.24489 1.4878,-0.14872 -4.22478,0.83075 -8.58935,1.03274 -12.7981,1.99243 0,0 -2.80154,-0.39641 -2.80154,-0.39641 z" />
    <path
       style="fill:#000000;fill-opacity:1;stroke:#000000;stroke-width:10;stroke-miterlimit:4;stroke-opacity:1;stroke-dasharray:none"
       id="path2860"
       d="m 517.52935,363.0497 c -4.0216,9.57215 -7.32097,19.44428 -9.96693,29.48045 -1.37973,6.60697 -3.02461,13.33574 -2.76609,20.1251 0,0 -2.82079,0.0101 -2.82079,0.0101 l 0,0 c -0.22902,-6.81874 1.41055,-13.57197 2.80485,-20.20689 2.64677,-10.05123 5.96418,-19.92814 9.9254,-29.53977 0,0 2.82356,0.13101 2.82356,0.13101 z" />
    <path
       style="fill:#000000;fill-opacity:1;stroke:#000000;stroke-width:10;stroke-miterlimit:4;stroke-opacity:1;stroke-dasharray:none"
       id="path2862"
       d="m 483.50457,717.21676 c 7.62304,-2.47518 15.37276,-4.34917 23.24882,-1.94252 5.35668,2.7268 8.71388,7.78477 9.89763,13.5721 0.87135,5.72736 -0.83358,10.84416 -3.0937,15.98819 -1.89152,3.5063 -4.97147,6.71828 -5.33282,10.81535 0.0688,3.52619 3.43186,4.28115 6.32202,4.75667 0.33714,0.3785 12.20307,0.3869 6.86971,0.36741 1.64454,-0.0158 3.28906,-0.0341 4.93357,-0.0527 0.57189,-0.33333 0.57397,-0.83475 0.68581,-1.44633 0,0 2.84559,0.0488 2.84559,0.0488 l 0,0 c -0.11973,0.72799 -0.19044,1.29027 -0.71516,1.84041 -1.64811,0.0174 -3.29621,0.0349 -4.9443,0.0529 -4.15865,0.005 -8.34681,0.12575 -12.48074,-0.41571 -3.0354,-0.55968 -6.30547,-1.52361 -6.35211,-5.17601 0.35332,-4.13827 3.37581,-7.39826 5.34865,-10.90771 2.24162,-5.09167 3.9729,-10.13613 3.09431,-15.81392 -1.18737,-5.70342 -4.5363,-10.67315 -9.87028,-13.26949 -1.16895,-0.33645 -2.24656,-1.17077 -3.46282,-1.15138 -4.86651,0.0775 -9.54572,1.84421 -14.18787,3.08628 0,0 -2.80631,-0.35236 -2.80631,-0.35236 z" />
  </g>
</svg>
