<?xml version="1.0" encoding="UTF-8" standalone="no"?>
<!-- Created with Inkscape (http://www.inkscape.org/) -->

<svg
   xmlns:dc="http://purl.org/dc/elements/1.1/"
   xmlns:cc="http://creativecommons.org/ns#"
   xmlns:rdf="http://www.w3.org/1999/02/22-rdf-syntax-ns#"
   xmlns:svg="http://www.w3.org/2000/svg"
   xmlns="http://www.w3.org/2000/svg"
   xmlns:sodipodi="http://sodipodi.sourceforge.net/DTD/sodipodi-0.dtd"
   xmlns:inkscape="http://www.inkscape.org/namespaces/inkscape"
   width="1149.5253"
   height="727.46277"
   id="svg2"
   version="1.1"
   inkscape:version="0.47pre4 r22446"
   sodipodi:docname="New document 1">
  <defs
     id="defs4">
    <inkscape:perspective
       sodipodi:type="inkscape:persp3d"
       inkscape:vp_x="0 : 526.18109 : 1"
       inkscape:vp_y="0 : 1000 : 0"
       inkscape:vp_z="744.09448 : 526.18109 : 1"
       inkscape:persp3d-origin="372.04724 : 350.78739 : 1"
       id="perspective10" />
  </defs>
  <sodipodi:namedview
     id="base"
     pagecolor="#ffffff"
     bordercolor="#666666"
     borderopacity="1.0"
     inkscape:pageopacity="0.0"
     inkscape:pageshadow="2"
     inkscape:zoom="0.35"
     inkscape:cx="483.76593"
     inkscape:cy="335.06281"
     inkscape:document-units="px"
     inkscape:current-layer="layer1"
     showgrid="false"
     inkscape:window-width="1280"
     inkscape:window-height="750"
     inkscape:window-x="-4"
     inkscape:window-y="-3"
     inkscape:window-maximized="1" />
  <metadata
     id="metadata7">
    <rdf:RDF>
      <cc:Work
         rdf:about="">
        <dc:format>image/svg+xml</dc:format>
        <dc:type
           rdf:resource="http://purl.org/dc/dcmitype/StillImage" />
        <dc:title></dc:title>
      </cc:Work>
    </rdf:RDF>
  </metadata>
  <g
     inkscape:label="Layer 1"
     inkscape:groupmode="layer"
     id="layer1"
     transform="translate(111.62308,-139.96225)">
    <path
       style="color:#000000;fill:#000000;fill-opacity:1;stroke:#000000;stroke-width:1.5;stroke-linecap:butt;stroke-linejoin:miter;stroke-miterlimit:4;stroke-opacity:1;stroke-dasharray:none;stroke-dashoffset:0;marker:none;visibility:visible;display:inline;overflow:visible;enable-background:accumulate"
       id="path2818"
       d="m -86.360271,582.11505 c -7.67418,2.67621 -15.891559,3.58089 -22.102539,-2.38137 -4.58106,-6.28189 -1.86412,-13.25971 1.7903,-19.25507 4.28356,-5.31856 9.940366,-8.59142 16.73332,-5.57824 4.716593,3.0548 6.979165,8.09508 7.443811,13.5469 -0.399187,2.92096 -0.885026,5.36531 -3.840728,6.36029 0,0 -2.812221,-0.36589 -2.812221,-0.36589 l 0,0 c 3.000131,-0.69454 3.40407,-3.15459 3.8287,-5.97044 -0.455514,-5.36686 -2.721101,-10.32307 -7.426761,-13.24077 -0.700564,-0.282 -1.46077,-0.44659 -2.101692,-0.84601 -0.133934,-0.0835 0.585748,-0.22816 0.431489,-0.19485 -3.908607,0.84408 -6.965548,3.3842 -9.452118,6.44357 -3.6242,5.85824 -6.36704,12.73349 -1.78714,18.87098 4.86004,4.47905 10.47925,4.74694 16.486387,2.2986 0,0 2.809192,0.3123 2.809192,0.3123 z" />
    <path
       style="color:#000000;fill:#000000;fill-opacity:1;stroke:#000000;stroke-width:1.5;stroke-linecap:butt;stroke-linejoin:miter;stroke-miterlimit:4;stroke-opacity:1;stroke-dasharray:none;stroke-dashoffset:0;marker:none;visibility:visible;display:inline;overflow:visible;enable-background:accumulate"
       id="path2820"
       d="m 1000.7602,604.64281 c -2.65989,-7.9086 -2.38106,-16.05243 0.1445,-23.90345 2.7905,-7.30371 8.6602,-11.82374 15.9292,-14.18013 9.0763,-0.95496 14.329,1.24476 18.6603,9.02825 3.0429,7.92471 2.0513,13.94458 -4.2569,19.6205 -3.5282,3.09026 -7.6286,4.39995 -12.0142,5.73902 0,0 -2.7651,-0.3554 -2.7651,-0.3554 l 0,0 c 4.3707,-1.29804 8.4568,-2.56564 11.982,-5.6206 6.3084,-5.51612 7.2851,-11.43396 4.2455,-19.23975 -1.7308,-3.05722 -3.246,-5.45097 -6.4657,-7.1315 -0.9783,-0.51059 -2.0969,-0.71823 -3.0702,-1.23828 -0.2005,-0.10713 -0.121,-0.55873 -0.3465,-0.58735 -1.0524,-0.13353 -2.1197,0.0933 -3.1795,0.13995 -7.2398,2.22164 -13.1189,6.69539 -15.9175,13.91295 -2.5338,7.79242 -2.8097,15.88027 -0.1191,23.7248 0,0 -2.8268,0.091 -2.8268,0.091 z" />
    <path
       style="color:#000000;fill:#000000;fill-opacity:1;stroke:#000000;stroke-width:1.5;stroke-linecap:butt;stroke-linejoin:miter;stroke-miterlimit:4;stroke-opacity:1;stroke-dasharray:none;stroke-dashoffset:0;marker:none;visibility:visible;display:inline;overflow:visible;enable-background:accumulate"
       id="path2822"
       d="m 242.59719,305.40737 c -5.84779,-4.99375 -9.45109,-11.06811 -9.81053,-18.76959 0.33352,-5.19705 1.22993,-11.21415 5.70658,-14.50006 5.30318,-1.01461 6.75529,2.58848 7.7573,6.72065 0.33356,4.21904 -1.13883,8.02777 -2.71937,11.83716 0,0 -2.82974,-0.11172 -2.82974,-0.11172 l 0,0 c 1.56824,-3.75149 3.0447,-7.49527 2.72051,-11.65738 -0.43615,-1.75737 -0.8104,-3.5085 -1.98856,-4.95097 -0.28481,-0.3487 -1.18786,-0.52957 -0.98036,-0.92914 0.28808,-0.55473 1.27239,-0.23195 1.77578,-0.60252 0.24442,-0.17992 -0.60656,-0.0233 -0.90984,-0.0349 -4.54677,3.0751 -5.3749,9.13259 -5.72343,14.21582 0.3561,7.63002 3.99653,13.62749 9.81821,18.52964 0,0 -2.81655,0.25305 -2.81655,0.25305 z" />
    <path
       style="color:#000000;fill:#000000;fill-opacity:1;stroke:#000000;stroke-width:1.5;stroke-linecap:butt;stroke-linejoin:miter;stroke-miterlimit:4;stroke-opacity:1;stroke-dasharray:none;stroke-dashoffset:0;marker:none;visibility:visible;display:inline;overflow:visible;enable-background:accumulate"
       id="path2824"
       d="m 237.90508,424.29484 c -1.91825,-8.70148 -1.46366,-17.15409 2.13197,-25.29247 2.4164,-3.75809 6.43966,-8.47092 11.41478,-8.55666 1.60384,-0.0276 3.20033,0.22397 4.80049,0.33596 5.50243,2.48927 6.47394,8.26213 7.34738,13.65345 0.43828,3.83739 0.85614,7.68164 0.388,11.52388 0,0 -2.82636,-0.035 -2.82636,-0.035 l 0,0 c 0.4858,-3.81389 0.0595,-7.63291 -0.37537,-11.44345 -0.86474,-5.28905 -1.8204,-11.022 -7.33586,-13.30301 1.51155,-0.64256 1.08653,-0.38778 -1.48609,0.0394 -2.65725,0.87149 -5.35968,2.86523 -7.12995,4.989 -0.75367,0.90416 -1.32991,1.94254 -1.99487,2.91381 -3.61197,8.06936 -4.06737,16.45913 -2.11133,25.09657 0,0 -2.82279,0.0786 -2.82279,0.0786 z" />
    <path
       style="color:#000000;fill:#000000;fill-opacity:1;stroke:#000000;stroke-width:1.5;stroke-linecap:butt;stroke-linejoin:miter;stroke-miterlimit:4;stroke-opacity:1;stroke-dasharray:none;stroke-dashoffset:0;marker:none;visibility:visible;display:inline;overflow:visible;enable-background:accumulate"
       id="path2826"
       d="m 245.45434,596.83594 c -6.79577,-5.81177 -9.19291,-11.65111 -8.51374,-20.50799 1.04841,-4.42907 3.89351,-10.37732 9.33096,-10.51481 1.69163,-0.0428 3.371,0.30011 5.0565,0.45017 6.01079,3.49877 6.08216,10.60397 5.98439,16.80616 -0.73995,4.62072 -2.52296,8.93631 -4.45045,13.16296 0,0 -2.81953,-0.12142 -2.81953,-0.12142 l 0,0 c 1.93406,-4.1849 3.72202,-8.46052 4.46295,-13.04596 0.0954,-6.06336 0.0631,-13.15823 -5.97725,-16.41572 0.93453,-0.80148 1.41246,-1.07183 -1.6989,0.10713 -2.89797,1.0981 -4.84288,3.25885 -6.0458,6.10551 -0.47221,1.11744 -0.69325,2.32509 -1.03987,3.48763 -0.68624,8.78454 1.755,14.52264 8.52728,20.23329 0,0 -2.81654,0.25305 -2.81654,0.25305 z" />
    <path
       style="color:#000000;fill:#000000;fill-opacity:1;stroke:#000000;stroke-width:1.5;stroke-linecap:butt;stroke-linejoin:miter;stroke-miterlimit:4;stroke-opacity:1;stroke-dasharray:none;stroke-dashoffset:0;marker:none;visibility:visible;display:inline;overflow:visible;enable-background:accumulate"
       id="path2828"
       d="m 234.36614,818.96601 c -3.97059,-8.02802 -5.17407,-16.80519 -3.55242,-25.57112 1.17874,-5.61841 5.4454,-9.29602 10.8367,-4.99123 2.61413,2.94447 3.98107,6.72292 5.10168,10.44191 -0.29334,2.31668 -1.39395,0.97933 -4.06643,0.35633 0,0 2.83433,-0.21503 2.83433,-0.21503 l 0,0 c -3.33629,1.21478 -1.78698,1.24381 -1.60839,-0.0584 -1.09747,-3.67027 -2.44015,-7.40884 -5.08036,-10.26628 -6.29867,-4.67605 1.17831,1.5363 -0.15433,-1.6333 -0.80525,-1.91522 -6.80054,6.24399 -5.05919,6.41789 -1.64333,8.69135 -0.43719,17.41848 3.56773,25.35331 0,0 -2.81932,0.16596 -2.81932,0.16596 z" />
    <path
       style="color:#000000;fill:#000000;fill-opacity:1;stroke:#000000;stroke-width:1.5;stroke-linecap:butt;stroke-linejoin:miter;stroke-miterlimit:4;stroke-opacity:1;stroke-dasharray:none;stroke-dashoffset:0;marker:none;visibility:visible;display:inline;overflow:visible;enable-background:accumulate"
       id="path2830"
       d="m 737.22222,333.60584 c -4.33234,-7.33156 -4.8486,-15.22304 -2.72722,-23.31436 2.97586,-7.27563 7.5268,-14.01401 14.70454,-17.54246 7.75025,-2.67066 11.88884,0.68305 14.99423,7.41267 2.65295,6.76619 2.3792,13.61541 -0.41708,20.23275 -0.85281,2.34106 -2.38231,4.20785 -3.97558,6.06539 0,0 -2.82208,-0.20186 -2.82208,-0.20186 l 0,0 c 1.59861,-1.82558 3.13595,-3.6522 3.98148,-5.97726 2.81963,-6.53263 3.07081,-13.30829 0.42232,-19.99627 -1.17144,-2.48479 -1.26249,-3.20387 -3.09934,-5.18451 -0.60351,-0.65076 -1.62429,-0.95134 -2.00339,-1.75384 -0.17263,-0.36542 1.05951,-0.77759 0.71094,-0.98212 -1.1337,-0.66519 -4.04636,0.42996 -4.99461,0.70057 -7.19856,3.37066 -11.71063,10.1048 -14.70149,17.29922 -2.12625,7.99985 -1.61363,15.8334 2.74873,23.05142 0,0 -2.82145,0.19066 -2.82145,0.19066 z" />
    <path
       style="color:#000000;fill:#000000;fill-opacity:1;stroke:#000000;stroke-width:1.5;stroke-linecap:butt;stroke-linejoin:miter;stroke-miterlimit:4;stroke-opacity:1;stroke-dasharray:none;stroke-dashoffset:0;marker:none;visibility:visible;display:inline;overflow:visible;enable-background:accumulate"
       id="path2832"
       d="m 740.76022,464.64281 c -1.54967,-7.29916 -0.67189,-14.89503 1.66518,-21.92004 2.50114,-5.10836 8.354,-8.54644 12.81302,-2.94901 4.05307,6.16626 5.18998,13.40643 4.44914,20.62102 -0.6374,5.51683 -2.69209,10.48056 -6.45409,14.54645 0,0 -2.81607,-0.21278 -2.81607,-0.21278 l 0,0 c 3.79254,-3.97543 5.82334,-8.89852 6.46521,-14.36257 0.74393,-7.14349 -0.39402,-14.32355 -4.46477,-20.39712 -0.47242,-0.55106 -1.31825,-0.93411 -1.41726,-1.65316 -0.0585,-0.42517 1.42146,-0.39379 1.09677,-0.67446 -2.35807,-2.0384 -6.32463,3.83214 -6.86031,5.17268 -2.354,6.95599 -3.22956,14.5058 -1.65003,21.738 0,0 -2.82679,0.091 -2.82679,0.091 z" />
    <path
       style="color:#000000;fill:#000000;fill-opacity:1;stroke:#000000;stroke-width:1.5;stroke-linecap:butt;stroke-linejoin:miter;stroke-miterlimit:4;stroke-opacity:1;stroke-dasharray:none;stroke-dashoffset:0;marker:none;visibility:visible;display:inline;overflow:visible;enable-background:accumulate"
       id="path2834"
       d="m 756.493,635.75929 c -5.6376,0.19163 -12.88189,1.61874 -15.63655,-4.45205 -0.46082,-6.49159 4.72171,-9.43421 10.04229,-11.45114 7.3095,-1.74264 12.98558,0.5571 16.41228,6.99 2.03661,6.54298 0.0881,12.69798 -2.95438,18.54766 -1.57135,3.34075 -3.97883,6.1231 -6.65449,8.61845 0,0 -2.82975,-0.23417 -2.82975,-0.23417 l 0,0 c 2.68682,-2.45192 5.10721,-5.19798 6.67169,-8.52015 3.03445,-5.74679 4.98687,-11.82686 2.95317,-18.27234 -2.66627,-4.86794 -3.52757,-4.64831 -8.19587,-6.91783 -0.0962,-0.0468 0.24726,-0.29388 0.14042,-0.28858 -0.92574,0.0459 -1.83271,0.27857 -2.74906,0.41785 -5.17417,1.895 -10.44127,4.63649 -10.00831,10.98677 2.26434,4.71945 5.44272,4.45947 10.00711,4.17913 0,0 2.80145,0.3964 2.80145,0.3964 z" />
    <path
       style="color:#000000;fill:#000000;fill-opacity:1;stroke:#000000;stroke-width:1.5;stroke-linecap:butt;stroke-linejoin:miter;stroke-miterlimit:4;stroke-opacity:1;stroke-dasharray:none;stroke-dashoffset:0;marker:none;visibility:visible;display:inline;overflow:visible;enable-background:accumulate"
       id="path2836"
       d="m 769.9863,780.12705 c -0.57374,5.48657 -1.25117,11.23396 -5.2206,15.34422 -4.93448,3.7392 -8.6639,1.64636 -10.57447,-3.47555 -1.4183,-6.07462 -0.34805,-12.23656 3.14875,-17.36129 2.53472,-3.1693 5.66053,-3.85477 9.65068,-2.22875 1.08535,0.44229 2.43572,3.32639 2.86688,4.11195 2.83138,7.09644 2.60977,14.27279 0.83815,21.55459 -2.5584,6.57434 -3.91949,5.82704 -10.79488,5.13765 0,0 2.78967,-0.3855 2.78967,-0.3855 l 0,0 c 0.88804,2.65064 5.88224,-3.47095 5.1952,-4.81968 1.77904,-7.21084 2.00507,-14.32387 -0.84605,-21.34374 -0.43195,-0.76403 -0.77834,-1.58323 -1.29586,-2.29211 -0.44371,-0.60777 -1.40479,-0.89161 -1.56518,-1.62682 -0.0888,-0.40724 1.35606,-0.34757 1.06861,-0.64941 -1.34538,-1.41275 -4.61635,2.00821 -5.09304,2.71226 -3.51198,5.01255 -4.56421,11.10656 -3.13616,17.08843 0.52352,1.36002 0.75684,2.39639 1.76992,3.4803 0.36293,0.38831 1.2807,0.41246 1.28509,0.94395 0.004,0.43973 -1.71422,0.34189 -1.27448,0.34066 1.60055,-0.005 1.89994,-0.51992 3.14732,-1.40718 4.02328,-3.97685 4.64633,-9.7155 5.21071,-15.12398 0,0 2.82974,0 2.82974,0 z" />
    <path
       style="color:#000000;fill:#000000;fill-opacity:1;stroke:#000000;stroke-width:1.5;stroke-linecap:butt;stroke-linejoin:miter;stroke-miterlimit:4;stroke-opacity:1;stroke-dasharray:none;stroke-dashoffset:0;marker:none;visibility:visible;display:inline;overflow:visible;enable-background:accumulate"
       id="path2838"
       d="m -71.815011,558.81753 c 7.255276,-12.46863 15.242095,-24.47358 23.703864,-36.14907 17.068263,-23.41931 36.444928,-44.95359 56.4356267,-65.87893 26.3071163,-27.197 53.3638723,-53.6451 81.0033963,-79.4824 22.507134,-20.26526 44.908904,-40.65929 68.033144,-60.22263 11.02261,-8.90522 22.01462,-17.82305 34.1708,-25.13477 3.44389,-2.03398 7.08802,-3.57185 10.89672,-4.74978 0,0 2.80503,0.35961 2.80503,0.35961 l 0,0 c -3.81761,1.14548 -7.46918,2.65367 -10.91905,4.67792 -12.18621,7.29236 -23.22251,16.17092 -34.26331,25.08149 -23.16878,19.53981 -45.59458,39.93582 -68.126524,60.20137 -27.640432,25.82449 -54.695103,52.26292 -80.981267,79.46924 -19.9635935,20.91311 -39.311171,42.43575 -56.341382,65.84914 -8.433292,11.65802 -16.391083,23.64573 -23.593588,36.10981 0,0 -2.82346,-0.131 -2.82346,-0.131 z" />
    <path
       style="color:#000000;fill:#000000;fill-opacity:1;stroke:#000000;stroke-width:1.5;stroke-linecap:butt;stroke-linejoin:miter;stroke-miterlimit:4;stroke-opacity:1;stroke-dasharray:none;stroke-dashoffset:0;marker:none;visibility:visible;display:inline;overflow:visible;enable-background:accumulate"
       id="path2840"
       d="M -42.211408,584.48675 C -30.754835,574.08097 -18.058675,565.13219 -5.2558591,556.48024 15.843761,542.31902 37.557344,529.09953 59.470652,516.2437 85.738357,500.74787 112.42777,485.98956 138.8995,470.84788 c 18.6415,-10.87713 37.64264,-21.08935 57.04516,-30.53244 0,0 2.73866,0.3076 2.73866,0.3076 l 0,0 c -19.43463,9.42758 -38.47477,19.6134 -57.1347,30.5044 -26.47625,15.13204 -53.166159,29.88793 -79.427544,45.39294 -21.894307,12.85069 -43.589699,26.06359 -64.6661707,40.22541 -12.7736723,8.63182 -25.4423103,17.56169 -36.8566213,27.96209 0,0 -2.809692,-0.22113 -2.809692,-0.22113 z" />
    <path
       style="color:#000000;fill:#000000;fill-opacity:1;stroke:#000000;stroke-width:1.5;stroke-linecap:butt;stroke-linejoin:miter;stroke-miterlimit:4;stroke-opacity:1;stroke-dasharray:none;stroke-dashoffset:0;marker:none;visibility:visible;display:inline;overflow:visible;enable-background:accumulate"
       id="path2842"
       d="m -61.862824,597.53357 c 15.507662,-2.7365 30.971916,-5.62073 46.559196,-7.88056 30.569952,-4.73412 61.466347,-6.69902 92.302228,-8.78978 30.60059,-2.24027 61.29804,-1.85222 91.7704,1.64333 11.17544,1.49602 21.97183,4.62533 32.72023,7.89497 0,0 -2.69998,0.34635 -2.69998,0.34635 l 0,0 c -10.73299,-3.25701 -21.51383,-6.37375 -32.67336,-7.85203 -28.74033,-3.2786 -57.64123,-3.96455 -86.508978,-1.63757 -30.814952,2.08632 -61.692426,4.03939 -92.24037,8.77828 -15.546696,2.25842 -30.973673,5.12487 -46.433315,7.89928 0,0 -2.796051,-0.40227 -2.796051,-0.40227 z" />
    <path
       style="color:#000000;fill:#000000;fill-opacity:1;stroke:#000000;stroke-width:1.5;stroke-linecap:butt;stroke-linejoin:miter;stroke-miterlimit:4;stroke-opacity:1;stroke-dasharray:none;stroke-dashoffset:0;marker:none;visibility:visible;display:inline;overflow:visible;enable-background:accumulate"
       id="path2844"
       d="m 25.066813,338.93617 c -9.977862,3.09905 -18.4723564,9.13461 -26.6374288,15.45269 -6.722969,6.19951 -13.0005792,12.95716 -13.8723022,22.37484 0.299415,4.04221 2.840836,6.72674 6.807687,7.52214 2.9021238,0.5819 2.3215617,0.70845 3.8372438,0.0401 0,0 2.7799652,0.41672 2.7799652,0.41672 l 0,0 c -6.9001762,0.31248 -15.288778,0.82724 -16.237014,-8.00489 0.879834,-9.50222 7.137442,-16.32694 13.9180409,-22.60173 8.1574043,-6.33155 16.6340961,-12.40347 26.5975911,-15.55219 0,0 2.806217,0.35235 2.806217,0.35235 z" />
    <path
       style="color:#000000;fill:#000000;fill-opacity:1;stroke:#000000;stroke-width:1.5;stroke-linecap:butt;stroke-linejoin:miter;stroke-miterlimit:4;stroke-opacity:1;stroke-dasharray:none;stroke-dashoffset:0;marker:none;visibility:visible;display:inline;overflow:visible;enable-background:accumulate"
       id="path2846"
       d="m 41.412582,386.1831 c -0.02275,9.12908 -0.0222,18.25821 -0.01174,27.38731 0.0019,1.09897 0.0038,2.19793 0.0057,3.29689 0,0 -2.813074,0 -2.813074,0 l 0,0 c 0.0019,-1.09896 0.0038,-2.19792 0.0057,-3.29689 0.01046,-9.1291 0.01101,-18.25823 -0.01174,-27.38731 0,0 2.825164,0 2.825164,0 z" />
    <path
       style="color:#000000;fill:#000000;fill-opacity:1;stroke:#000000;stroke-width:1.5;stroke-linecap:butt;stroke-linejoin:miter;stroke-miterlimit:4;stroke-opacity:1;stroke-dasharray:none;stroke-dashoffset:0;marker:none;visibility:visible;display:inline;overflow:visible;enable-background:accumulate"
       id="path2848"
       d="m 133.64042,445.29637 c -7.41365,5.11232 -14.67494,10.49451 -20.59622,17.31704 -2.79371,4.22166 -7.22255,9.91758 -1.39927,13.46186 5.49345,2.02648 10.40132,-0.31407 15.6311,-2.2489 0,0 2.7744,0.33835 2.7744,0.33835 l 0,0 c -6.73372,2.53609 -14.13964,4.7517 -21.21956,2.1923 -5.74046,-3.91028 -1.5388,-9.48218 1.41855,-13.94331 5.91112,-6.85127 13.17765,-12.2416 20.58043,-17.39446 0,0 2.81057,0.27712 2.81057,0.27712 z" />
    <path
       style="color:#000000;fill:#000000;fill-opacity:1;stroke:#000000;stroke-width:1.5;stroke-linecap:butt;stroke-linejoin:miter;stroke-miterlimit:4;stroke-opacity:1;stroke-dasharray:none;stroke-dashoffset:0;marker:none;visibility:visible;display:inline;overflow:visible;enable-background:accumulate"
       id="path2850"
       d="m 157.09918,476.27232 c 2.95669,-3.34555 5.51864,-8.68704 10.50397,-8.98572 1.10767,0.55383 2.45573,0.77748 3.32301,1.66149 0.5904,0.6018 -0.33172,9.93036 -0.42691,11.2279 0.0656,0.6371 0.0941,1.27912 0.19683,1.91129 0.36167,2.22567 1.5061,3.48147 3.85179,3.41535 0.28408,-0.008 -0.56044,-0.0946 -0.84066,-0.14197 2.98251,-0.71873 5.62657,-2.27194 8.34036,-3.63648 0,0 2.80551,0.31142 2.80551,0.31142 l 0,0 c -2.73131,1.36922 -5.37758,2.92952 -8.34687,3.74859 -5.86172,0.15915 -8.44343,0.8837 -8.83292,-5.62907 0.0807,-1.08101 0.27194,-10.90586 0.41823,-11.11478 0.50973,-0.72802 1.54577,-0.87746 2.31866,-1.31619 -4.99706,-0.0557 -7.59209,5.45927 -10.48954,8.73883 0,0 -2.82146,-0.19066 -2.82146,-0.19066 z" />
    <path
       style="color:#000000;fill:#000000;fill-opacity:1;stroke:#000000;stroke-width:1.5;stroke-linecap:butt;stroke-linejoin:miter;stroke-miterlimit:4;stroke-opacity:1;stroke-dasharray:none;stroke-dashoffset:0;marker:none;visibility:visible;display:inline;overflow:visible;enable-background:accumulate"
       id="path2852"
       d="m 113.69155,615.07576 c -3.76239,-0.15341 -7.05372,-0.70409 -9.5316,2.57102 0.0443,4.40961 6.44896,4.689 9.66728,5.19836 2.54354,-0.0175 5.21568,0.98708 7.72797,0.31485 0,0 2.77738,0.42314 2.77738,0.42314 l 0,0 c -4.46376,0.14786 -8.8634,0.35477 -13.29506,-0.34195 -3.5095,-0.58124 -9.81557,-1.00481 -9.71305,-5.77291 3.20842,-4.5809 10.33135,-2.69013 15.16853,-2.78891 0,0 -2.80145,0.3964 -2.80145,0.3964 z" />
    <path
       style="color:#000000;fill:#000000;fill-opacity:1;stroke:#000000;stroke-width:1.5;stroke-linecap:butt;stroke-linejoin:miter;stroke-miterlimit:4;stroke-opacity:1;stroke-dasharray:none;stroke-dashoffset:0;marker:none;visibility:visible;display:inline;overflow:visible;enable-background:accumulate"
       id="path2854"
       d="m 149.2189,631.50248 c 5.15377,-1.68658 12.22535,-3.38403 16.88723,0.26241 1.63394,2.79295 0.0758,6.53761 -1.12808,9.29298 -1.81461,2.89224 -2.38646,5.48982 -0.66668,8.50834 1.82061,2.25257 2.59662,4.73324 1.40917,7.42692 -4.12568,5.62626 -10.45405,9.05874 -16.54936,12.14505 -7.09265,2.55718 -3.37859,1.5279 -11.16644,2.99894 0,0 -2.74923,-0.38389 -2.74923,-0.38389 l 0,0 c 7.76929,-1.41472 4.06355,-0.41048 11.14125,-2.92261 6.06569,-3.04129 12.31083,-6.44484 16.48934,-11.95906 1.23848,-2.60995 0.29885,-4.96158 -1.41036,-7.16112 -1.69031,-3.10247 -1.21,-5.81955 0.67175,-8.77025 1.15802,-2.59921 2.75898,-6.29646 1.13259,-8.91338 -3.87465,-2.81789 -6.40689,-1.86766 -11.25496,-0.17198 0,0 -2.80622,-0.35235 -2.80622,-0.35235 z" />
    <path
       style="color:#000000;fill:#000000;fill-opacity:1;stroke:#000000;stroke-width:1.5;stroke-linecap:butt;stroke-linejoin:miter;stroke-miterlimit:4;stroke-opacity:1;stroke-dasharray:none;stroke-dashoffset:0;marker:none;visibility:visible;display:inline;overflow:visible;enable-background:accumulate"
       id="path2856"
       d="m 280.64986,280.39365 c 11.88196,-1.50589 23.75298,-2.98364 35.69771,-3.92127 19.52129,-1.99839 39.11008,-3.1651 58.67837,-4.58917 23.64931,-1.57555 47.345,-2.0336 71.01314,-3.24435 23.52426,-1.11052 47.01269,-2.90579 70.47502,-4.92127 19.7862,-1.72343 39.62481,-2.79651 59.48482,-2.48874 13.73562,0.89284 27.53021,1.1035 41.23955,2.34116 10.65872,0.95809 21.26589,2.531 31.75628,4.64231 8.69411,1.61533 17.1176,4.30015 25.39933,7.3518 6.99949,2.43611 13.86016,5.29406 20.52352,8.53841 5.02777,2.54332 10.03605,5.1405 15.0291,7.76967 1.55511,1.19107 5.43837,2.16851 5.85575,4.40074 0,0 -2.85184,0.057 -2.85184,0.057 l 0,0 c -1.47231,-1.8478 -3.67192,-3.05431 -5.81172,-4.15151 -4.98872,-2.62442 -9.98611,-5.23196 -15.01514,-7.7619 -6.66668,-3.22132 -13.5151,-6.08355 -20.51064,-8.51179 -8.27929,-3.03222 -16.69541,-5.70594 -25.38279,-7.31037 -10.48785,-2.08636 -21.08358,-3.67134 -31.73706,-4.61457 -13.70059,-1.2099 -27.48054,-1.45826 -41.20635,-2.32714 -18.04819,-0.55606 -36.10685,1.24523 -54.09464,2.46564 -23.46727,2.01427 -46.95999,3.81732 -70.4891,4.92857 -23.6632,1.21268 -47.35341,1.67622 -70.99845,3.24069 -19.55472,1.42463 -39.13041,2.58872 -58.63748,4.59385 -11.91884,0.92885 -23.76045,2.40819 -35.61593,3.90865 0,0 -2.80145,-0.3964 -2.80145,-0.3964 z" />
    <path
       style="color:#000000;fill:#000000;fill-opacity:1;stroke:#000000;stroke-width:1.5;stroke-linecap:butt;stroke-linejoin:miter;stroke-miterlimit:4;stroke-opacity:1;stroke-dasharray:none;stroke-dashoffset:0;marker:none;visibility:visible;display:inline;overflow:visible;enable-background:accumulate"
       id="path2858"
       d="m 544.61339,177.24654 c 1.70503,10.07965 3.29136,20.14767 4.23915,30.3341 0.0212,1.96752 0.0425,3.93504 0.0637,5.90257 0,0 -2.77839,0.003 -2.77839,0.003 l 0,0 c -0.0212,-1.95992 -0.0425,-3.91984 -0.0637,-5.87975 -0.95047,-10.18188 -2.5316,-20.24591 -4.28973,-30.31319 0,0 2.82897,-0.0467 2.82897,-0.0467 z" />
    <path
       style="color:#000000;fill:#000000;fill-opacity:1;stroke:#000000;stroke-width:1.5;stroke-linecap:butt;stroke-linejoin:miter;stroke-miterlimit:4;stroke-opacity:1;stroke-dasharray:none;stroke-dashoffset:0;marker:none;visibility:visible;display:inline;overflow:visible;enable-background:accumulate"
       id="path2860"
       d="m 292.07843,426.10793 c 8.65952,-1.77832 17.3976,-1.49053 26.16364,-0.91176 9.73494,0.78132 19.49953,0.98232 29.26035,1.12288 13.74457,-0.13629 27.47741,0.76399 41.14053,2.20233 15.56417,1.49237 31.11225,3.1528 46.6835,4.57519 15.08204,1.94381 30.22308,3.30097 45.33043,5.01519 13.21663,0.96755 26.30935,2.74922 39.35717,5.0162 11.41959,2.00847 22.79705,4.04435 34.34212,5.19535 9.81181,0.84169 19.66509,0.94003 29.50628,0.99871 8.82743,0.5108 17.54147,1.83731 26.11048,3.9905 9.14472,2.54098 18.24925,4.93356 27.66593,6.23164 8.80833,1.2131 17.72035,0.78691 26.55351,1.56511 8.42523,1.28183 16.97713,1.38525 25.40902,2.52198 4.3268,0.64862 8.58051,1.63969 12.96229,1.66787 0,0 -2.78693,0.4374 -2.78693,0.4374 l 0,0 c -4.37374,-0.0948 -8.62754,-1.06145 -12.94958,-1.70327 -8.4344,-1.09833 -16.97676,-1.25594 -25.4023,-2.50993 -8.83547,-0.73972 -17.74552,-0.35359 -26.55128,-1.58031 -9.41544,-1.32298 -18.52093,-3.73826 -27.67336,-6.26057 -8.56758,-2.12225 -17.27731,-3.44972 -26.0991,-3.92481 -9.83941,-0.0625 -19.6911,-0.1688 -29.49994,-1.0262 -11.54113,-1.16737 -22.91664,-3.21478 -34.33539,-5.21651 -13.04109,-2.26478 -26.13104,-4.01424 -39.33784,-5.0025 -15.104,-1.7145 -30.2417,-3.07449 -45.32131,-5.01049 -15.57357,-1.42908 -31.12573,-3.07906 -46.69228,-4.57748 -13.67112,-1.41956 -27.40794,-2.31495 -41.15875,-2.17444 -9.76789,-0.14296 -19.53899,-0.35168 -29.2809,-1.13405 -6.92342,-0.44902 -13.74399,-0.67691 -20.59484,0.88837 0,0 -2.80145,-0.3964 -2.80145,-0.3964 z" />
    <path
       style="color:#000000;fill:#000000;fill-opacity:1;stroke:#000000;stroke-width:1.5;stroke-linecap:butt;stroke-linejoin:miter;stroke-miterlimit:4;stroke-opacity:1;stroke-dasharray:none;stroke-dashoffset:0;marker:none;visibility:visible;display:inline;overflow:visible;enable-background:accumulate"
       id="path2862"
       d="m 504.27201,388.69848 c -0.0288,9.83667 -0.0226,19.67341 -0.0223,29.51011 -0.43712,6.13602 -0.16127,3.16409 -0.8057,8.91779 0,0 -2.80081,-0.0315 -2.80081,-0.0315 l 0,0 c 0.6539,-5.73553 0.37298,-2.77411 0.82135,-8.88627 3.3e-4,-9.8367 0.007,-19.67344 -0.0223,-29.51011 0,0 2.82973,0 2.82973,0 z" />
    <path
       style="color:#000000;fill:#000000;fill-opacity:1;stroke:#000000;stroke-width:1.5;stroke-linecap:butt;stroke-linejoin:miter;stroke-miterlimit:4;stroke-opacity:1;stroke-dasharray:none;stroke-dashoffset:0;marker:none;visibility:visible;display:inline;overflow:visible;enable-background:accumulate"
       id="path2864"
       d="m 257.79271,280.39365 c 8.20948,-1.60899 16.33396,-1.86056 24.53592,-0.0787 7.40562,2.22281 14.46341,5.3979 21.77683,7.87799 9.01609,3.50845 18.06101,6.90489 27.27542,9.86132 12.0817,4.42699 24.24237,8.53322 36.487,12.49139 13.72456,5.01042 27.72715,9.17519 41.59994,13.74442 13.79937,4.24891 27.57779,8.52471 41.59985,11.98541 12.69964,3.27497 25.34673,6.74988 37.68535,11.21115 10.67445,3.71853 20.7849,8.74224 31.13993,13.2062 8.8479,3.94324 17.92582,7.39797 27.12465,10.43384 8.21696,3.06137 16.60174,5.58892 24.97009,8.18294 6.86156,1.96616 13.70852,3.97577 20.53297,6.07064 6.48381,1.70773 12.98395,3.36441 19.5087,4.92044 5.60878,1.00763 11.26844,1.93822 16.63887,3.89927 4.69105,1.4689 9.29425,3.15189 13.97316,4.65991 3.53888,1.6938 7.12126,3.20758 10.59557,5.01486 3.9165,2.36835 7.79422,4.71638 11.83361,6.87603 4.83183,2.00512 9.65509,3.87716 14.17593,6.54054 3.5954,2.32053 6.70452,5.26467 9.76718,8.22749 2.43736,2.85622 4.32241,6.01401 5.76287,9.46654 0.0562,1.33878 0.1372,0.72176 -0.16954,1.8592 0,0 -2.84561,-0.0797 -2.84561,-0.0797 l 0,0 c 0.31084,-1.01069 0.22577,-0.45822 0.17909,-1.66735 -1.42695,-3.41852 -3.3108,-6.54436 -5.74871,-9.35187 -3.05162,-2.94992 -6.15961,-5.87314 -9.75638,-8.16091 -4.52513,-2.64582 -9.36742,-4.47427 -14.17181,-6.52939 -4.04431,-2.1513 -7.90146,-4.54489 -11.84288,-6.87241 -3.45979,-1.80952 -7.04708,-3.30355 -10.58274,-4.96896 -4.67114,-1.53198 -9.29131,-3.16856 -13.97176,-4.66885 -5.38364,-1.90533 -11.02548,-2.84602 -16.62706,-3.86957 -6.52131,-1.57173 -13.02957,-3.20008 -19.50584,-4.93823 -6.8267,-2.0784 -13.66535,-4.10652 -20.52433,-6.07262 -8.37174,-2.58051 -16.74168,-5.14943 -24.96445,-8.18932 -9.19355,-3.05676 -18.27368,-6.50454 -27.11888,-10.45931 -10.34077,-4.48183 -20.45987,-9.46782 -31.12509,-13.19071 -12.33663,-4.44257 -24.97755,-7.91443 -37.67026,-11.18413 -14.01884,-3.47665 -27.80069,-7.74671 -41.5977,-12.00668 -13.87563,-4.56451 -27.87581,-8.74103 -41.60492,-13.74226 -12.25229,-3.95548 -24.4128,-8.08475 -36.50959,-12.48802 -9.21797,-2.96091 -18.26138,-6.37748 -27.29065,-9.86437 -7.30428,-2.4985 -14.36502,-5.6642 -21.78196,-7.84432 -1.17179,-0.24895 -2.36405,-0.41591 -3.51538,-0.74685 -0.33602,-0.0966 -0.56078,-0.48557 -0.90821,-0.52469 -4.8521,-0.54646 -9.73555,0.91459 -14.52773,1.36597 0,0 -2.80145,-0.3964 -2.80145,-0.3964 z" />
    <path
       style="color:#000000;fill:#000000;fill-opacity:1;stroke:#000000;stroke-width:1.5;stroke-linecap:butt;stroke-linejoin:miter;stroke-miterlimit:4;stroke-opacity:1;stroke-dasharray:none;stroke-dashoffset:0;marker:none;visibility:visible;display:inline;overflow:visible;enable-background:accumulate"
       id="path2866"
       d="m 602.09692,331.51013 c 2.57449,9.08832 3.56013,18.5268 4.37238,27.90798 0.35128,4.83595 0.34399,2.55191 0.12288,6.85106 0,0 -2.8169,-0.0151 -2.8169,-0.0151 l 0,0 c 0.23767,-4.26221 0.2362,-1.9913 -0.1018,-6.81198 -0.80084,-9.36154 -1.77169,-18.78754 -4.40335,-27.841 0,0 2.82679,-0.091 2.82679,-0.091 z" />
    <path
       style="color:#000000;fill:#000000;fill-opacity:1;stroke:#000000;stroke-width:1.5;stroke-linecap:butt;stroke-linejoin:miter;stroke-miterlimit:4;stroke-opacity:1;stroke-dasharray:none;stroke-dashoffset:0;marker:none;visibility:visible;display:inline;overflow:visible;enable-background:accumulate"
       id="path2868"
       d="m 791.34921,331.11852 c 7.25236,8.1635 13.48596,17.13376 20.55169,25.44657 9.99767,11.07126 20.69422,21.48488 31.27771,31.98954 12.06842,12.00868 21.74074,26.07148 32.18443,39.44421 10.44516,13.54141 22.61884,25.5851 35.27193,37.03923 11.6006,10.4226 23.77027,20.18784 34.22152,31.79262 9.60281,10.71465 17.46664,22.8088 25.35485,34.79812 4.93689,7.91734 9.97541,15.77098 15.07572,23.5839 0,0 -2.82245,0.16274 -2.82245,0.16274 l 0,0 c -5.05673,-7.82851 -10.07555,-15.68183 -15.01359,-23.58584 -7.88038,-11.97915 -15.74228,-24.05896 -25.34523,-34.75672 -10.45777,-11.58418 -22.62307,-21.34194 -34.20816,-31.76586 -12.64748,-11.47644 -24.82734,-23.52796 -35.26886,-37.08668 -10.4347,-13.37032 -20.11747,-27.41752 -32.19324,-39.40879 -10.59148,-10.51023 -21.29845,-20.92756 -31.29637,-32.01173 -7.06551,-8.33005 -13.32374,-17.29987 -20.61141,-25.45064 0,0 2.82146,-0.19067 2.82146,-0.19067 z" />
    <path
       style="color:#000000;fill:#000000;fill-opacity:1;stroke:#000000;stroke-width:1.5;stroke-linecap:butt;stroke-linejoin:miter;stroke-miterlimit:4;stroke-opacity:1;stroke-dasharray:none;stroke-dashoffset:0;marker:none;visibility:visible;display:inline;overflow:visible;enable-background:accumulate"
       id="path2870"
       d="m 792.02661,476.08847 c 9.25963,4.54387 18.03278,9.98663 26.93681,15.17324 10.5551,6.87754 21.17015,13.62211 31.90129,20.21724 11.96177,7.31146 24.113,14.31353 36.31739,21.21134 12.32308,7.69241 25.13099,14.55817 38,21.28117 10.68682,5.5933 21.27808,11.35633 31.96552,16.9484 6.08416,3.92819 12.83667,6.54103 19.25225,9.82816 1.14053,0.94275 3.25775,1.18192 4.05546,2.50663 0,0 -2.8464,0.17136 -2.8464,0.17136 l 0,0 c -0.95522,-1.18303 -2.86558,-1.43594 -4.01644,-2.36858 -6.40918,-3.27725 -13.13558,-5.92291 -19.21639,-9.83464 -10.68092,-5.5904 -21.25749,-11.36718 -31.94186,-16.95086 -12.86671,-6.72955 -25.66633,-13.60993 -37.99744,-21.29059 -12.2055,-6.9037 -24.36313,-13.90226 -36.3254,-21.22053 -10.73865,-6.58687 -21.33835,-13.3585 -31.91225,-20.20965 -8.91173,-5.1917 -17.69626,-10.63653 -26.98174,-15.1504 0,0 2.8092,-0.31229 2.8092,-0.31229 z" />
    <path
       style="color:#000000;fill:#000000;fill-opacity:1;stroke:#000000;stroke-width:1.5;stroke-linecap:butt;stroke-linejoin:miter;stroke-miterlimit:4;stroke-opacity:1;stroke-dasharray:none;stroke-dashoffset:0;marker:none;visibility:visible;display:inline;overflow:visible;enable-background:accumulate"
       id="path2872"
       d="m 797.73374,640.71228 c 10.04368,-0.32904 20.08193,-2.05872 30.00887,-3.67854 17.47729,-3.3043 34.60802,-8.19221 51.71577,-13.00682 18.86531,-5.30935 37.62217,-10.96365 56.51589,-16.16936 12.90449,-3.42238 25.8095,-6.79422 39.01174,-8.84833 0.7558,-0.4612 11.92616,-0.53088 10.66661,-2.2501 0,0 2.84722,-0.12131 2.84722,-0.12131 l 0,0 c 0.90014,2.77949 -9.49847,2.18478 -10.74907,2.766 -13.22208,2.02508 -26.14293,5.38865 -39.06331,8.80903 -18.89803,5.20162 -37.66064,10.84558 -56.52593,16.16646 -17.09974,4.81812 -34.22132,9.70989 -51.68596,13.04191 -11.75105,1.93316 -23.58693,3.90823 -35.53672,3.73373 0,0 2.79489,-0.44267 2.79489,-0.44267 z" />
    <path
       style="color:#000000;fill:#000000;fill-opacity:1;stroke:#000000;stroke-width:1.5;stroke-linecap:butt;stroke-linejoin:miter;stroke-miterlimit:4;stroke-opacity:1;stroke-dasharray:none;stroke-dashoffset:0;marker:none;visibility:visible;display:inline;overflow:visible;enable-background:accumulate"
       id="path2874"
       d="m 786.35955,784.81565 c 9.38911,-8.30418 18.09387,-17.30417 27.06419,-26.04563 12.61289,-12.11706 25.24748,-24.2006 38.15022,-36.00869 14.3288,-12.9729 29.23564,-25.23468 44.65009,-36.88433 13.5081,-9.41276 27.29438,-18.41413 40.70713,-27.96359 10.93469,-8.03868 22.58835,-15.00253 34.20078,-21.99805 6.9242,-4.86017 14.6704,-8.22653 22.13568,-12.11128 3.39702,-1.9766 4.20642,-3.75991 3.44769,-7.51207 0,0 2.82642,-0.056 2.82642,-0.056 l 0,0 c 0.76715,3.85323 0.0193,5.81053 -3.47004,7.87522 -7.47447,3.88706 -15.24968,7.21734 -22.17917,12.08914 -11.61698,6.98916 -23.27894,13.94156 -34.21839,21.9749 -13.4118,9.5571 -27.20589,18.55326 -40.72666,27.95403 -15.4167,11.63975 -30.33224,23.88337 -44.65462,36.85805 -12.89196,11.80788 -25.52079,23.88523 -38.12247,36.00236 -8.96275,8.73604 -17.65918,17.73093 -27.00021,26.07277 0,0 -2.81064,-0.24686 -2.81064,-0.24686 z" />
    <path
       style="color:#000000;fill:#000000;fill-opacity:1;stroke:#000000;stroke-width:1.5;stroke-linecap:butt;stroke-linejoin:miter;stroke-miterlimit:4;stroke-opacity:1;stroke-dasharray:none;stroke-dashoffset:0;marker:none;visibility:visible;display:inline;overflow:visible;enable-background:accumulate"
       id="path2876"
       d="m 940.72987,337.3154 c -2.86238,8.31299 -5.09813,16.74335 -6.4751,25.42618 -1.22294,5.8452 -2.21003,11.73054 -3.04206,17.64242 0,0 -2.80109,-0.0393 -2.80109,-0.0393 l 0,0 c 0.8366,-5.91301 1.82238,-11.8009 3.04981,-17.647 1.3738,-8.69603 3.61703,-17.13581 6.44165,-25.47332 0,0 2.82679,0.091 2.82679,0.091 z" />
    <path
       style="color:#000000;fill:#000000;fill-opacity:1;stroke:#000000;stroke-width:1.5;stroke-linecap:butt;stroke-linejoin:miter;stroke-miterlimit:4;stroke-opacity:1;stroke-dasharray:none;stroke-dashoffset:0;marker:none;visibility:visible;display:inline;overflow:visible;enable-background:accumulate"
       id="path2878"
       d="m 842.43702,477.2044 c 3.2023,6.71287 4.94785,13.95238 7.38982,20.94845 0.29727,0.96 0.59455,1.92 0.89182,2.88 0,0 -2.81564,0.0846 -2.81564,0.0846 l 0,0 c -0.29621,-0.95676 -0.59242,-1.91352 -0.88863,-2.87027 -2.42911,-6.98907 -4.15561,-14.22849 -7.40083,-20.91174 0,0 2.82346,-0.13101 2.82346,-0.13101 z" />
    <path
       style="color:#000000;fill:#000000;fill-opacity:1;stroke:#000000;stroke-width:1.5;stroke-linecap:butt;stroke-linejoin:miter;stroke-miterlimit:4;stroke-opacity:1;stroke-dasharray:none;stroke-dashoffset:0;marker:none;visibility:visible;display:inline;overflow:visible;enable-background:accumulate"
       id="path2880"
       d="m 833.52349,557.57238 c 2.75476,9.72773 3.64133,19.82367 4.36854,29.86573 0.092,1.67345 0.1841,3.3469 0.27616,5.02035 0,0 -2.78993,0.0152 -2.78993,0.0152 l 0,0 c -0.0901,-1.67183 -0.18024,-3.34365 -0.27036,-5.01547 -0.72076,-10.02517 -1.60911,-20.10803 -4.4072,-29.80721 0,0 2.82279,-0.0786 2.82279,-0.0786 z" />
    <path
       style="color:#000000;fill:#000000;fill-opacity:1;stroke:#000000;stroke-width:1.5;stroke-linecap:butt;stroke-linejoin:miter;stroke-miterlimit:4;stroke-opacity:1;stroke-dasharray:none;stroke-dashoffset:0;marker:none;visibility:visible;display:inline;overflow:visible;enable-background:accumulate"
       id="path2882"
       d="m 844.26973,717.61167 c 0.3437,9.29466 -0.32592,18.51185 -1.30814,27.74398 -0.53285,4.75595 -0.27625,2.51366 -0.76638,6.72726 0,0 -2.81715,-0.0331 -2.81715,-0.0331 l 0,0 c 0.50561,-4.21133 0.24187,-1.97019 0.78691,-6.72392 0.99174,-9.22178 1.67205,-18.42869 1.27959,-27.71418 0,0 2.82517,0 2.82517,0 z" />
    <path
       style="color:#000000;fill:#000000;fill-opacity:1;stroke:#000000;stroke-width:1.5;stroke-linecap:butt;stroke-linejoin:miter;stroke-miterlimit:4;stroke-opacity:1;stroke-dasharray:none;stroke-dashoffset:0;marker:none;visibility:visible;display:inline;overflow:visible;enable-background:accumulate"
       id="path2884"
       d="m 767.46833,174.73449 c 1.52673,13.64822 1.83644,27.39622 2.15411,41.11442 -0.005,13.61308 -1.16127,27.13513 -3.26852,40.57042 -0.18123,3.01326 -1.02968,5.7464 -2.26873,8.45198 0,0 -2.82805,-0.12336 -2.82805,-0.12336 l 0,0 c 1.26757,-2.67467 2.12286,-5.37206 2.30334,-8.37254 2.14868,-13.41456 3.30747,-26.9214 3.31704,-40.52008 -0.324,-13.7077 -0.62786,-27.45055 -2.23375,-41.08076 0,0 2.82456,-0.0401 2.82456,-0.0401 z" />
    <path
       style="color:#000000;fill:#000000;fill-opacity:1;stroke:#000000;stroke-width:1.5;stroke-linecap:butt;stroke-linejoin:miter;stroke-miterlimit:4;stroke-opacity:1;stroke-dasharray:none;stroke-dashoffset:0;marker:none;visibility:visible;display:inline;overflow:visible;enable-background:accumulate"
       id="path2886"
       d="m 760.64529,196.57086 c 8.13058,-4.92754 16.91849,-8.59654 26.28868,-10.2114 12.80785,-0.86178 21.51075,1.83949 31.68585,9.19058 8.70009,7.28911 11.97556,15.95563 12.07369,27.07708 -0.99501,13.32095 -9.9539,21.72616 -20.20989,29.04051 -8.69777,5.63584 -18.30632,8.8436 -28.32684,11.07485 0,0 -2.73034,-0.37191 -2.73034,-0.37191 l 0,0 c 10.01494,-2.18595 19.6087,-5.36708 28.3117,-10.9653 10.20408,-7.23314 19.16269,-15.54077 20.16538,-28.77577 -0.0877,-10.62728 -3.56204,-19.98801 -12.06142,-26.81553 -7.71352,-5.52251 -16.45218,-9.69294 -26.14836,-9.06458 -9.35736,1.54518 -18.12304,5.19595 -26.23787,10.09858 0,0 -2.81058,-0.27711 -2.81058,-0.27711 z" />
    <path
       style="color:#000000;fill:#000000;fill-opacity:1;stroke:#000000;stroke-width:1.5;stroke-linecap:butt;stroke-linejoin:miter;stroke-miterlimit:4;stroke-opacity:1;stroke-dasharray:none;stroke-dashoffset:0;marker:none;visibility:visible;display:inline;overflow:visible;enable-background:accumulate"
       id="path2888"
       d="m 254.8766,140.71228 c 6.33845,1.11882 11.92133,4.42371 15.51435,9.7626 2.10184,5.5605 -0.0573,10.11058 -3.94028,14.12959 -4.63224,3.78027 -10.04188,5.81998 -15.81906,7.03149 -6.42456,0.82687 -11.31268,-0.70048 -16.09346,-4.7821 -3.15453,-3.45249 -4.8896,-7.70026 -6.47844,-12.01291 -0.1313,-0.35405 -0.26259,-0.70809 -0.39389,-1.06214 -0.0823,0.052 -0.33907,0.1246 -0.2469,0.15584 0.86986,0.29483 1.93381,0.1222 2.67353,0.66662 0.0913,0.0672 1.10157,6.89894 1.12176,7.04016 0.83509,9.75257 2.23735,19.4391 3.21651,29.17869 0.2897,7.02324 1.92309,14.21555 0.43695,21.18255 0,0 -2.83029,-0.0606 -2.83029,-0.0606 l 0,0 c 1.53349,-6.9272 -0.12572,-14.10366 -0.39332,-21.09412 -0.97434,-9.73694 -2.38284,-19.41916 -3.24366,-29.16606 -0.25098,-1.70975 -1.46097,-6.83707 -1.15296,-7.13289 0.81088,-0.77877 2.73467,-1.86501 3.25863,-0.87029 0.17572,0.3336 0.25805,0.70857 0.38707,1.06286 1.55245,4.27921 3.30142,8.47961 6.46032,11.8666 3.29538,2.74263 6.99465,4.99052 10.48628,4.64352 5.76265,-1.16516 11.14388,-3.15461 15.79914,-6.86542 3.84098,-3.87793 6.03552,-8.30541 3.93435,-13.74295 -3.61197,-5.25587 -9.18367,-8.50297 -15.49152,-9.4884 0,0 2.79489,-0.44267 2.79489,-0.44267 z" />
    <path
       style="color:#000000;fill:#000000;fill-opacity:1;stroke:#000000;stroke-width:1.5;stroke-linecap:butt;stroke-linejoin:miter;stroke-miterlimit:4;stroke-opacity:1;stroke-dasharray:none;stroke-dashoffset:0;marker:none;visibility:visible;display:inline;overflow:visible;enable-background:accumulate"
       id="path2890"
       d="m 285.75796,302.73776 c -4.24454,5.68394 -8.48179,11.54007 -13.73104,16.34568 -2.66807,2.10328 -1.37981,1.15117 -3.84564,2.88204 0,0 -2.8158,-0.27194 -2.8158,-0.27194 l 0,0 c 2.47365,-1.7068 1.18166,-0.76733 3.85696,-2.84435 5.27426,-4.75433 9.50457,-10.61528 13.71406,-16.30209 0,0 2.82146,0.19066 2.82146,0.19066 z" />
    <path
       style="color:#000000;fill:#000000;fill-opacity:1;stroke:#000000;stroke-width:1.5;stroke-linecap:butt;stroke-linejoin:miter;stroke-miterlimit:4;stroke-opacity:1;stroke-dasharray:none;stroke-dashoffset:0;marker:none;visibility:visible;display:inline;overflow:visible;enable-background:accumulate"
       id="path2892"
       d="m 274.20635,299.68995 c 4.92894,6.54371 8.42985,13.87938 10.83777,21.67346 0.79342,2.90899 1.28614,5.88089 1.74617,8.85566 0,0 -2.82479,0.0429 -2.82479,0.0429 l 0,0 c -0.44896,-2.96166 -0.93145,-5.92052 -1.7259,-8.81446 -2.40303,-7.76585 -5.8966,-15.07794 -10.8547,-21.56692 0,0 2.82145,-0.19067 2.82145,-0.19067 z" />
    <path
       style="color:#000000;fill:#000000;fill-opacity:1;stroke:#000000;stroke-width:1.5;stroke-linecap:butt;stroke-linejoin:miter;stroke-miterlimit:4;stroke-opacity:1;stroke-dasharray:none;stroke-dashoffset:0;marker:none;visibility:visible;display:inline;overflow:visible;enable-background:accumulate"
       id="path2894"
       d="m 310.32768,342.96083 c 0.65923,5.36898 2.19734,10.58323 3.71548,15.76034 0,0 -2.82274,0.08 -2.82274,0.08 l 0,0 c -1.50233,-5.19355 -3.02689,-10.41933 -3.72171,-15.79364 0,0 2.82897,-0.0467 2.82897,-0.0467 z" />
    <path
       style="color:#000000;fill:#000000;fill-opacity:1;stroke:#000000;stroke-width:1.5;stroke-linecap:butt;stroke-linejoin:miter;stroke-miterlimit:4;stroke-opacity:1;stroke-dasharray:none;stroke-dashoffset:0;marker:none;visibility:visible;display:inline;overflow:visible;enable-background:accumulate"
       id="path2896"
       d="m 302.90082,454.16633 c -5.56553,6.2302 -10.54467,12.96174 -16.07437,19.21427 -2.69613,2.54766 -5.65843,4.74853 -8.35217,7.29941 0,0 -2.82092,-0.22956 -2.82092,-0.22956 l 0,0 c 2.69248,-2.55593 5.64727,-4.75918 8.37658,-7.27321 5.54596,-6.22585 10.50326,-12.96712 16.04942,-19.20157 0,0 2.82146,0.19066 2.82146,0.19066 z" />
    <path
       style="color:#000000;fill:#000000;fill-opacity:1;stroke:#000000;stroke-width:1.5;stroke-linecap:butt;stroke-linejoin:miter;stroke-miterlimit:4;stroke-opacity:1;stroke-dasharray:none;stroke-dashoffset:0;marker:none;visibility:visible;display:inline;overflow:visible;enable-background:accumulate"
       id="path2898"
       d="m 288.491,457.18692 c 3.94087,5.96493 8.20904,11.8761 13.71536,16.48876 2.97014,2.22132 6.00079,4.28215 9.38339,5.80902 0,0 -2.81548,0.32287 -2.81548,0.32287 l 0,0 c -3.37286,-1.56327 -6.41126,-3.64449 -9.37285,-5.88751 -5.4822,-4.67513 -9.76131,-10.59101 -13.72974,-16.56717 0,0 2.81932,-0.16597 2.81932,-0.16597 z" />
    <path
       style="color:#000000;fill:#000000;fill-opacity:1;stroke:#000000;stroke-width:1.5;stroke-linecap:butt;stroke-linejoin:miter;stroke-miterlimit:4;stroke-opacity:1;stroke-dasharray:none;stroke-dashoffset:0;marker:none;visibility:visible;display:inline;overflow:visible;enable-background:accumulate"
       id="path2900"
       d="m 331.68852,487.88842 c 4.77189,3.43786 8.23969,8.27449 12.60442,12.14805 4.52083,3.13206 7.21896,1.369 11.95559,-0.15167 1.07199,-0.36248 2.14397,-0.72496 3.21596,-1.08744 0,0 2.79003,0.34894 2.79003,0.34894 l 0,0 c -1.07169,0.36364 -2.14337,0.72727 -3.21506,1.09091 -5.58609,1.84378 -12.38507,3.76493 -17.56133,0.0364 -4.32724,-3.90917 -7.82817,-8.7075 -12.60616,-12.13214 0,0 2.81655,-0.25306 2.81655,-0.25306 z" />
    <path
       style="color:#000000;fill:#000000;fill-opacity:1;stroke:#000000;stroke-width:1.5;stroke-linecap:butt;stroke-linejoin:miter;stroke-miterlimit:4;stroke-opacity:1;stroke-dasharray:none;stroke-dashoffset:0;marker:none;visibility:visible;display:inline;overflow:visible;enable-background:accumulate"
       id="path2902"
       d="m 294.32832,594.49575 c -4.28244,5.84884 -9.02377,11.31816 -13.65452,16.88432 -2.44148,2.54961 -1.24381,1.36382 -3.57671,3.57378 0,0 -2.81716,-0.23025 -2.81716,-0.23025 l 0,0 c 2.33869,-2.1886 1.13857,-1.01448 3.58434,-3.53869 4.61993,-5.56252 9.38599,-10.99902 13.64473,-16.85513 0,0 2.81932,0.16597 2.81932,0.16597 z" />
    <path
       style="color:#000000;fill:#000000;fill-opacity:1;stroke:#000000;stroke-width:1.5;stroke-linecap:butt;stroke-linejoin:miter;stroke-miterlimit:4;stroke-opacity:1;stroke-dasharray:none;stroke-dashoffset:0;marker:none;visibility:visible;display:inline;overflow:visible;enable-background:accumulate"
       id="path2904"
       d="m 288.491,591.47264 c 3.93827,6.41774 8.04328,12.76112 12.47573,18.85433 2.29696,3.18982 4.85226,6.17292 7.54049,9.03586 0,0 -2.83395,0.2133 -2.83395,0.2133 l 0,0 c -2.67506,-2.88014 -5.22557,-5.87181 -7.5136,-9.07269 -4.42285,-6.10704 -8.51383,-12.46206 -12.48799,-18.86484 0,0 2.81932,-0.16596 2.81932,-0.16596 z" />
    <path
       style="color:#000000;fill:#000000;fill-opacity:1;stroke:#000000;stroke-width:1.5;stroke-linecap:butt;stroke-linejoin:miter;stroke-miterlimit:4;stroke-opacity:1;stroke-dasharray:none;stroke-dashoffset:0;marker:none;visibility:visible;display:inline;overflow:visible;enable-background:accumulate"
       id="path2906"
       d="m 329.22128,614.67936 c 5.85987,-0.90291 11.74573,-2.46423 17.68915,-1.38016 2.63652,2.04729 -0.1507,4.51395 -1.72286,6.22349 -2.64269,3.1686 -3.12343,6.45573 -2.69726,10.42905 0.62616,3.73374 1.24397,7.465 1.55706,11.23966 -0.33674,4.89445 -4.24112,7.53085 -8.35475,9.34961 -0.9613,0.14631 -1.92259,0.29261 -2.88389,0.43892 0,0 -2.78947,-0.40224 -2.78947,-0.40224 l 0,0 c 0.95642,-0.12132 1.91284,-0.24264 2.86926,-0.36396 4.03107,-1.71127 7.96939,-4.21088 8.32417,-8.99878 -0.31526,-3.77184 -0.92789,-7.50098 -1.54893,-11.233 -0.43443,-4.0498 0.0429,-7.41283 2.69562,-10.66932 1.35877,-1.49055 4.37998,-3.89663 1.74345,-5.61752 -2.34637,-0.37694 -7.74214,0.57585 -12.0801,1.38065 0,0 -2.80145,-0.3964 -2.80145,-0.3964 z" />
    <path
       style="color:#000000;fill:#000000;fill-opacity:1;stroke:#000000;stroke-width:1.5;stroke-linecap:butt;stroke-linejoin:miter;stroke-miterlimit:4;stroke-opacity:1;stroke-dasharray:none;stroke-dashoffset:0;marker:none;visibility:visible;display:inline;overflow:visible;enable-background:accumulate"
       id="path2908"
       d="m 311.47225,788.45205 c -4.98326,7.35206 -10.75054,14.00887 -17.02674,20.26847 -3.3824,2.83661 -1.65274,1.57494 -5.16086,3.82328 0,0 -2.80249,-0.28292 -2.80249,-0.28292 l 0,0 c 3.5126,-2.19917 1.78044,-0.95889 5.16738,-3.76117 6.28508,-6.23336 12.07446,-12.85868 17.00125,-20.23833 0,0 2.82146,0.19067 2.82146,0.19067 z" />
    <path
       style="color:#000000;fill:#000000;fill-opacity:1;stroke:#000000;stroke-width:1.5;stroke-linecap:butt;stroke-linejoin:miter;stroke-miterlimit:4;stroke-opacity:1;stroke-dasharray:none;stroke-dashoffset:0;marker:none;visibility:visible;display:inline;overflow:visible;enable-background:accumulate"
       id="path2910"
       d="m 296.72274,782.91869 c 3.77912,8.18518 7.87415,16.20217 12.26386,24.07741 3.00307,4.54981 5.46179,9.42602 8.35527,14.03962 0,0 -2.82067,0.15764 -2.82067,0.15764 l 0,0 c -2.87657,-4.62412 -5.33399,-9.50057 -8.33021,-14.05516 -4.3826,-7.88751 -8.46332,-15.91935 -12.29172,-24.08851 0,0 2.82347,-0.131 2.82347,-0.131 z" />
    <path
       style="color:#000000;fill:#000000;fill-opacity:1;stroke:#000000;stroke-width:1.5;stroke-linecap:butt;stroke-linejoin:miter;stroke-miterlimit:4;stroke-opacity:1;stroke-dasharray:none;stroke-dashoffset:0;marker:none;visibility:visible;display:inline;overflow:visible;enable-background:accumulate"
       id="path2912"
       d="m 365.06443,847.18786 c -6.71336,0.83952 -13.40607,1.83384 -20.1131,2.67134 -7.99795,0.13633 -6.56185,-1.56469 -3.42093,-6.78475 2.79585,-5.12207 5.97897,-10.07405 10.04679,-14.27428 3.31834,-3.97636 9.08866,-7.53951 13.13134,-1.89584 2.65752,7.72818 2.29593,16.19993 2.43677,24.28047 0.0559,5.16321 0.0572,10.32676 0.0487,15.49019 0,0 -2.8245,-10e-4 -2.8245,-10e-4 l 0,0 c 0.0419,-5.16122 0.045,-10.32283 -0.0156,-15.48396 -0.13886,-8.01747 0.23287,-16.45649 -2.46973,-24.10521 -0.40025,-0.52346 -0.80049,-1.04692 -1.20074,-1.57038 0.42245,-0.27713 1.56801,-0.42534 1.26736,-0.83139 -1.32986,-1.79601 -6.92762,3.26286 -7.56268,4.33533 -4.08813,4.15408 -7.25924,9.10103 -10.03664,14.20979 -0.77249,1.27607 -2.36256,3.32077 -2.53651,4.90613 -0.27466,2.50321 1.07674,-1.50172 1.36929,1.11872 0.0386,0.34562 -0.68279,0.13259 -1.02418,0.19888 6.70577,-0.78658 13.38921,-1.86276 20.10289,-2.66006 0,0 2.80145,0.3964 2.80145,0.3964 z" />
  </g>
</svg>
