<?xml version="1.0" encoding="UTF-8" standalone="no"?>
<!-- Created with Inkscape (http://www.inkscape.org/) -->

<svg
   xmlns:dc="http://purl.org/dc/elements/1.1/"
   xmlns:cc="http://creativecommons.org/ns#"
   xmlns:rdf="http://www.w3.org/1999/02/22-rdf-syntax-ns#"
   xmlns:svg="http://www.w3.org/2000/svg"
   xmlns="http://www.w3.org/2000/svg"
   xmlns:sodipodi="http://sodipodi.sourceforge.net/DTD/sodipodi-0.dtd"
   xmlns:inkscape="http://www.inkscape.org/namespaces/inkscape"
   width="891.99353"
   height="795.03149"
   id="svg2"
   version="1.1"
   inkscape:version="0.47pre4 r22446"
   sodipodi:docname="New document 1">
  <defs
     id="defs4">
    <inkscape:perspective
       sodipodi:type="inkscape:persp3d"
       inkscape:vp_x="0 : 526.18109 : 1"
       inkscape:vp_y="0 : 1000 : 0"
       inkscape:vp_z="744.09448 : 526.18109 : 1"
       inkscape:persp3d-origin="372.04724 : 350.78739 : 1"
       id="perspective10" />
  </defs>
  <sodipodi:namedview
     id="base"
     pagecolor="#ffffff"
     bordercolor="#666666"
     borderopacity="1.0"
     inkscape:pageopacity="0.0"
     inkscape:pageshadow="2"
     inkscape:zoom="0.35"
     inkscape:cx="-54.019499"
     inkscape:cy="408.63721"
     inkscape:document-units="px"
     inkscape:current-layer="layer1"
     showgrid="false"
     inkscape:window-width="1280"
     inkscape:window-height="726"
     inkscape:window-x="0"
     inkscape:window-y="25"
     inkscape:window-maximized="1" />
  <metadata
     id="metadata7">
    <rdf:RDF>
      <cc:Work
         rdf:about="">
        <dc:format>image/svg+xml</dc:format>
        <dc:type
           rdf:resource="http://purl.org/dc/dcmitype/StillImage" />
        <dc:title></dc:title>
      </cc:Work>
    </rdf:RDF>
  </metadata>
  <g
     inkscape:label="Layer 1"
     inkscape:groupmode="layer"
     id="layer1"
     transform="translate(83.837643,-145.9679)">
    <path
       style="fill:#000000;fill-opacity:1;stroke:#000000;stroke-width:10;stroke-miterlimit:4;stroke-opacity:1;stroke-dasharray:none"
       id="path2816"
       d="m 48.573811,302.83556 c -1.565988,6.04115 -4.300088,11.54071 -8.844442,15.84421 -10.720806,5.99484 -16.69061,13.77364 -19.530572,0.76905 -0.619503,-6.49284 1.614961,-11.97737 5.481429,-17.03605 7.779082,-6.29533 17.520037,-13.21124 27.580572,-9.26862 9.050496,7.3786 -10.482459,13.01273 -13.416774,14.48297 0,0 11.383827,-8.4555 11.383827,-8.4555 l 0,0 c -3.576873,2.20611 -7.225312,4.30019 -10.730621,6.61832 -0.848445,0.5611 2.037882,-0.80412 2.54275,-1.68718 0.845286,-1.47848 -0.37049,-2.31066 -1.49922,-3.02311 -2.208749,-0.64157 -4.364112,-0.8814 -6.677911,-0.6021 -0.901662,0.10884 -3.376688,1.12238 -2.667491,0.55504 2.02237,-1.61786 14.535503,-8.87508 6.428215,-4.14808 -3.931611,4.6712 -6.352925,9.61845 -5.978437,15.89287 0.267077,1.31418 0.452992,4.22185 1.865845,5.05695 3.210502,1.89765 19.728181,-11.51917 -7.878962,6.17444 4.765825,-3.90702 7.787541,-9.12525 9.141401,-15.16166 0,0 12.800391,-6.01155 12.800391,-6.01155 z" />
    <path
       style="fill:#000000;fill-opacity:1;stroke:#000000;stroke-width:10;stroke-miterlimit:4;stroke-opacity:1;stroke-dasharray:none"
       id="path2818"
       d="m 687.69746,344.69362 c 0.49481,-6.40955 0.61669,-16.43781 6.88611,-20.46579 4.79747,-3.08229 9.92267,-5.62188 14.88401,-8.43282 7.85278,-0.48609 13.69141,5.61442 17.90805,11.54519 5.52723,12.58509 -4.94398,14.62397 -15.26869,20.6283 -2.97363,0.56231 -1.45811,0.50464 -4.54788,0.13387 0,0 11.47891,-8.25213 11.47891,-8.25213 l 0,0 c 2.80522,-0.0776 1.43457,0.15638 4.11152,-0.70415 -20.66505,12.76855 -7.10959,6.34599 -6.54188,0.72047 0.22806,-2.25983 -0.50736,-3.30387 -1.32988,-5.38798 -3.89203,-5.4675 -9.47631,-11.44112 -16.81882,-9.91729 3.03323,-1.89929 5.91568,-4.0639 9.0997,-5.69787 1.07937,-0.55391 -1.94693,1.48437 -2.71658,2.42218 -3.82635,4.66238 -4.40633,11.05208 -4.65159,16.8176 0,0 -12.49298,6.59042 -12.49298,6.59042 z" />
    <path
       style="fill:#000000;fill-opacity:1;stroke:#000000;stroke-width:10;stroke-miterlimit:4;stroke-opacity:1;stroke-dasharray:none"
       id="path2820"
       d="m 69.508487,803.09802 c -7.903606,1.40497 -16.347773,-1.19528 -21.990449,-7.04383 -1.20026,-1.24405 -2.055582,-2.77988 -3.083373,-4.16982 -4.395653,-9.61285 -2.187155,-19.58321 3.469066,-28.07239 9.017651,-8.88561 20.281808,-15.68055 33.150379,-13.7355 7.355865,1.46811 9.810363,7.1342 12.943801,13.10147 0.412255,0.29277 0.824509,0.58553 1.236764,0.87829 0,0 -12.012781,7.51156 -12.012781,7.51156 l 0,0 c -0.493049,-0.46215 -0.986098,-0.92429 -1.479147,-1.38644 -2.916004,-5.66621 -5.075939,-10.8944 -12.161264,-11.9879 -3.19626,-0.32126 -3.671405,-0.56065 -6.91907,-0.0954 -1.218391,0.17454 -4.493118,1.63607 -3.609279,0.77947 2.370393,-2.29735 5.64027,-3.44173 8.330268,-5.35497 2.214778,-1.57524 -9.586647,5.29954 -6.648099,4.72042 -5.854308,7.72572 -8.30218,17.32421 -4.298232,26.52699 0.95921,1.28815 1.748404,2.72241 2.877629,3.86445 5.552542,5.61556 13.827436,7.68681 21.361366,5.78758 0,0 -11.167579,8.67605 -11.167579,8.67605 z" />
    <path
       style="fill:#000000;fill-opacity:1;stroke:#000000;stroke-width:10;stroke-miterlimit:4;stroke-opacity:1;stroke-dasharray:none"
       id="path2822"
       d="m 665.71667,754.26414 c -4.99516,14.00271 -12.7644,16.79589 -25.8017,24.29669 -4.38639,1.82755 -9.45147,-0.49566 -9.44042,-5.74502 0.003,-1.22485 0.452,-2.40765 0.67799,-3.61147 5.12548,-13.45676 17.14756,-17.87552 29.18674,-24.41207 6.74565,-1.80545 11.68541,0.77664 15.27363,6.38797 1.82528,5.47962 -1.06952,10.35517 -4.85397,14.14242 -5.54595,3.86105 -11.16063,9.95343 -18.18646,8.96414 0,0 11.4935,-8.29219 11.4935,-8.29219 l 0,0 c 8.27325,-0.81757 -15.81983,9.73237 -6.35375,4.68202 3.60783,-3.15554 6.93854,-7.26038 5.69201,-12.37788 -3.3109,-5.23892 -8.05829,-6.86264 -14.06564,-4.79114 2.86404,-1.78517 5.77521,-3.49687 8.59213,-5.3555 1.12419,-0.74176 -2.38972,1.25395 -3.5097,2.00206 -4.84059,3.23335 -8.3224,7.62189 -10.59468,12.96575 -0.30658,1.00543 -0.82889,1.96909 -0.91975,3.0163 -0.42438,4.89146 4.71879,5.36159 7.9714,3.60715 -3.03982,1.82838 -5.97751,3.83844 -9.11946,5.48513 -1.15346,0.60453 2.1481,-1.48343 3.1257,-2.34379 3.81877,-3.36083 6.2387,-7.91927 8.03204,-12.60903 0,0 12.80039,-6.01154 12.80039,-6.01154 z" />
    <path
       style="fill:#000000;fill-opacity:1;stroke:#000000;stroke-width:10;stroke-miterlimit:4;stroke-opacity:1;stroke-dasharray:none"
       id="path2824"
       d="m 717.14524,357.12128 c -3.64293,11.9753 -5.87448,24.30981 -8.31001,36.56938 -3.68233,17.9849 -7.64933,35.8719 -12.41259,53.60369 -7.29001,27.17734 -14.74738,54.30888 -21.93532,81.51351 -6.1088,25.46862 -11.32509,51.13912 -16.93289,76.72036 -4.55568,24.95815 -9.60197,49.82931 -14.05291,74.80534 -4.11831,23.76845 -8.74913,47.44057 -12.71094,71.2366 -0.59875,3.43342 -1.19751,6.86683 -1.79626,10.30025 0,0 -12.21349,5.95707 -12.21349,5.95707 l 0,0 c 0.61171,-3.43552 1.22341,-6.87104 1.83512,-10.30655 4.01657,-23.81275 8.68339,-47.50436 12.80758,-71.29795 4.40897,-24.99598 9.53537,-49.86564 14.01932,-74.85014 5.64536,-25.6151 10.87667,-51.32433 17.02321,-76.82653 7.19781,-27.16182 14.60007,-54.26801 21.77695,-81.43523 4.5455,-17.70749 8.5882,-35.50388 12.22386,-53.419 2.39781,-12.23431 4.60088,-24.52013 7.87798,-36.55926 0,0 12.80039,-6.01154 12.80039,-6.01154 z" />
    <path
       style="fill:#000000;fill-opacity:1;stroke:#000000;stroke-width:10;stroke-miterlimit:4;stroke-opacity:1;stroke-dasharray:none"
       id="path2826"
       d="m 48.550866,317.43993 c -3.857126,14.07288 -6.176213,28.48538 -8.021793,42.93975 -3.556348,24.23843 -4.654429,48.71611 -5.416904,73.17084 -1.008618,30.5206 -0.598016,61.0366 0.90947,91.52906 1.376868,31.98706 3.859137,63.88367 7.021533,95.73718 3.472901,32.13054 7.721806,64.17283 11.058502,96.31768 2.509207,22.86218 4.41747,45.77561 5.756368,68.73403 1.992738,0.47449 -1.144102,7.88104 1.310422,9.06479 0,0 -12.161733,7.38826 -12.161733,7.38826 l 0,0 c -1.941624,-2.81166 -0.95848,-7.02102 -1.374369,-10.14507 -1.006555,-23.01088 -2.827522,-45.97208 -5.352414,-68.86755 -3.17446,-32.18341 -7.345793,-64.25529 -10.91225,-96.396 -3.203844,-31.86703 -5.788402,-63.76583 -7.084754,-95.77735 -1.572873,-30.49876 -2.032312,-61.0219 -1.093526,-91.55399 0.669562,-24.44752 1.672788,-48.92399 5.124277,-73.16675 1.741474,-14.4298 3.988429,-28.79653 7.482671,-42.91711 0,0 12.7545,-6.05777 12.7545,-6.05777 z" />
    <path
       style="fill:#000000;fill-opacity:1;stroke:#000000;stroke-width:10;stroke-miterlimit:4;stroke-opacity:1;stroke-dasharray:none"
       id="path2828"
       d="m 48.217258,303.34221 c 12.82229,3.99958 25.970802,6.86824 39.166064,9.32225 22.115348,3.53904 44.568008,3.80573 66.908018,4.18686 33.46481,0.1364 66.94571,-0.93917 100.3903,-2.10684 39.58922,-1.82521 79.1853,-2.67764 118.81069,-2.191 47.31417,0.96212 94.41989,5.5654 141.54802,9.47848 40.96174,3.51502 81.99691,5.89657 123.01778,8.54066 23.62729,1.42495 47.25068,2.67892 70.84671,4.56502 4.88832,0.38974 9.78032,0.71889 14.65878,1.21875 0,0 -11.50447,8.15856 -11.50447,8.15856 l 0,0 c -4.7616,-0.61238 -9.54608,-0.98987 -14.32884,-1.40071 -23.44459,-2.06455 -46.93143,-3.29276 -70.41362,-4.84551 -40.83987,-2.77702 -81.6861,-5.41158 -122.47102,-8.95806 -47.2274,-3.91463 -94.46324,-8.27606 -141.87469,-9.13273 -39.60945,-0.48747 -79.19135,0.40284 -118.76365,2.23404 -33.55164,1.23275 -67.13733,2.43488 -100.71319,2.25818 -22.49204,-0.32046 -45.096633,-0.49466 -67.355066,-4.14825 -13.318876,-2.48048 -26.556561,-5.41657 -39.571643,-9.20127 0,0 11.649827,-7.97843 11.649827,-7.97843 z" />
    <path
       style="fill:#000000;fill-opacity:1;stroke:#000000;stroke-width:10;stroke-miterlimit:4;stroke-opacity:1;stroke-dasharray:none"
       id="path2830"
       d="m 67.986312,790.22871 c 16.420841,-3.29923 32.582128,-7.71733 48.925768,-11.3601 23.84997,-5.40551 47.83731,-10.09218 71.86659,-14.61525 25.40131,-4.74499 51.10725,-7.35107 76.81375,-9.75212 27.08225,-2.17025 54.26812,-3.16169 81.43317,-2.76786 27.84962,0.89947 55.67061,2.97519 83.4304,5.36761 28.99096,2.14537 57.92138,4.89878 86.76441,8.52996 20.7695,2.19619 41.2945,6.12725 61.65185,10.71789 14.17084,3.9273 28.01045,8.8809 41.75951,14.06637 8.81455,3.6088 17.29655,7.8518 26.43343,10.6144 0,0 -11.62561,7.91779 -11.62561,7.91779 l 0,0 c -9.05345,-2.94639 -17.502,-7.24462 -26.32363,-10.78544 -13.65891,-5.17688 -27.38932,-10.19098 -41.50329,-14.00967 -20.25777,-4.60804 -40.6853,-8.50392 -61.35221,-10.7678 -28.76827,-3.67531 -57.63276,-6.42523 -86.55131,-8.61309 -27.79635,-2.30412 -55.65807,-4.24216 -83.53347,-5.1776 -27.13938,-0.34408 -54.29853,0.63795 -81.34948,2.88502 -25.70268,2.43823 -51.40171,5.08804 -76.79253,9.8915 -24.02789,4.5403 -48.01687,9.23665 -71.86234,14.67137 -16.501939,3.75353 -32.846662,8.147 -49.372943,11.80119 0,0 11.187935,-8.61417 11.187935,-8.61417 z" />
    <path
       style="fill:#000000;fill-opacity:1;stroke:#000000;stroke-width:10;stroke-miterlimit:4;stroke-opacity:1;stroke-dasharray:none"
       id="path2832"
       d="m 256.49977,172.67599 c -1.64815,1.18734 10.27555,-5.40074 7.72472,-4.01656 -2.43729,1.32256 -4.70128,3.025 -7.30358,3.98289 -1.61728,0.59532 2.88087,-1.89294 4.29638,-2.87596 2.97702,-2.06742 4.45271,-3.23219 7.26359,-5.36873 6.10821,-5.33091 12.70057,-8.69328 20.00097,-12.73683 1.97122,-1.09183 3.04917,-0.86092 4.64858,0.46444 0.36642,0.48611 0.85944,0.89883 1.09925,1.45835 3.04212,7.0978 2.63504,20.73915 2.93854,28.46056 0.41422,13.033 0.46911,26.07395 0.49922,39.11242 0.0264,9.27473 -0.0158,18.54943 0.0257,27.82413 -0.12102,13.02532 3.52065,8.42708 -12.5998,15.39489 0.005,-0.51642 0.0109,-1.03283 0.0164,-1.54925 0,0 12.63716,-6.43912 12.63716,-6.43912 l 0,0 c 0.006,0.51065 0.0111,1.02131 0.0167,1.53196 -16.35245,9.59486 -12.3996,10.65493 -12.5819,-2.56546 0.063,-9.29364 0.0537,-18.58749 0.0918,-27.88124 0.0155,-13.03887 0.035,-26.0807 -0.37595,-39.11477 -0.30428,-7.62126 0.25531,-22.0359 -3.73602,-28.57653 -1.7737,-0.71966 -4.56069,1.29699 -3.6623,0.73733 19.6027,-12.21153 7.65545,-4.68066 3.99335,-1.30823 -11.22476,8.60454 -23.21681,16.24601 -36.06479,22.21608 0,0 11.072,-8.75037 11.072,-8.75037 z" />
    <path
       style="fill:#000000;fill-opacity:1;stroke:#000000;stroke-width:10;stroke-miterlimit:4;stroke-opacity:1;stroke-dasharray:none"
       id="path2834"
       d="m 378.31097,165.66127 c 3.12567,11.40877 2.67365,23.2917 2.63592,35.00378 -0.004,7.27792 -0.22745,14.55445 -0.23605,21.83217 -4.23187,1.58522 -8.46373,3.17044 -12.69559,4.75565 0,0 12.61398,-6.46443 12.61398,-6.46443 l 0,0 c -4.20565,2.70327 -8.41131,5.40655 -12.61696,8.10982 0.61979,-7.29178 0.2729,-14.65189 0.59872,-21.95577 0.0821,-11.54633 0.56858,-23.31707 -2.69776,-34.52328 0,0 12.39774,-6.75794 12.39774,-6.75794 z" />
    <path
       style="fill:#000000;fill-opacity:1;stroke:#000000;stroke-width:10;stroke-miterlimit:4;stroke-opacity:1;stroke-dasharray:none"
       id="path2836"
       d="m 368.43913,176.78867 c 11.15118,0.12782 22.30115,-0.17288 33.43819,0.44959 9.85037,0.69196 19.68304,1.60302 29.54436,2.13167 -0.88879,2.20243 8.07608,-1.87066 6.14891,-0.75388 -16.7176,9.68771 -12.23686,8.93247 -9.62242,3.61443 0.97979,-2.55554 0.53164,-1.27686 1.34862,-3.83458 0,0 12.79638,-6.04261 12.79638,-6.04261 l 0,0 c -0.79465,2.64004 -0.37628,1.30765 -1.25765,3.99637 -0.44975,1.04493 -0.32626,2.53394 -1.27132,3.1672 -8.4086,5.6344 -11.24525,8.74602 -19.56707,8.05182 -9.79427,-0.62242 -19.55816,-1.6171 -29.35132,-2.25619 -11.19886,-0.50061 -22.40862,-0.25293 -33.61672,-0.23394 0,0 11.41004,-8.28988 11.41004,-8.28988 z" />
    <path
       style="fill:#000000;fill-opacity:1;stroke:#000000;stroke-width:10;stroke-miterlimit:4;stroke-opacity:1;stroke-dasharray:none"
       id="path2838"
       d="m 516.56298,194.15047 c -4.54565,5.0949 -9.14948,10.14877 -14.4326,14.49323 -3.81972,2.93839 -7.02958,6.38538 -8.85423,10.86972 -0.71118,3.89596 0.23516,7.57919 2.43781,10.80797 3.00581,2.81514 7.26264,3.21135 11.18957,3.52191 3.65683,0.19193 7.32067,0.178 10.98063,0.10791 -0.14575,1.80818 0.51517,-0.2912 0.5658,-0.10611 1.85524,6.78109 -1.10778,2.5379 -12.74547,9.48086 -3.61434,2.15629 7.3113,-4.17157 10.99669,-6.20406 0.50241,-0.27708 -0.963,0.62402 -1.4445,0.93603 -4.73338,3.0504 -9.48913,6.06224 -14.28584,9.01176 -4.20991,2.7345 -7.76122,6.17555 -11.08114,9.90189 -2.66152,2.99995 -2.9088,6.10215 -2.2552,9.86208 1.33342,4.51667 5.38062,6.76479 9.52093,8.2981 7.23904,1.88048 14.63812,1.59028 21.99504,0.8602 6.26429,-0.23914 12.16705,-2.14989 18.17414,-3.7179 1.56459,-0.40657 3.1305,-0.80804 4.69892,-1.19955 0,0 -11.31642,8.64687 -11.31642,8.64687 l 0,0 c -1.53634,0.37302 -3.07051,0.75493 -4.60171,1.14855 -6.00142,1.5563 -11.95281,3.22761 -18.2009,3.45676 -7.51719,0.6842 -15.14405,0.80924 -22.46852,-1.33528 -4.52471,-1.88818 -8.74322,-4.58321 -10.30638,-9.50279 -0.75456,-4.05211 -0.93606,-7.54785 1.7188,-11.02093 3.34124,-3.8093 6.79479,-7.42226 10.99423,-10.31142 4.75005,-2.96754 9.54775,-5.85552 14.19807,-8.98085 4.93311,-2.89193 9.84341,-5.82289 14.79043,-8.69095 3.74089,-2.16879 -7.80306,3.88042 -11.17608,6.58608 -1.65938,1.33108 2.80579,1.3145 0.74178,1.24497 -3.67146,0.006 -7.34732,0.005 -11.01083,-0.26884 -4.31795,-0.47238 -8.78782,-1.22903 -11.88427,-4.56189 -2.41549,-3.62981 -3.46936,-7.61725 -3.04412,-11.99653 1.57029,-4.78081 4.65024,-8.49724 8.59161,-11.60762 5.43537,-4.08531 9.91998,-9.19903 14.51083,-14.17482 0,0 13.00293,-5.55535 13.00293,-5.55535 z" />
    <path
       style="fill:#000000;fill-opacity:1;stroke:#000000;stroke-width:10;stroke-miterlimit:4;stroke-opacity:1;stroke-dasharray:none"
       id="path2840"
       d="m 803.15591,468.44879 c -1.75259,10.39535 -3.5194,20.78924 -5.2093,31.19696 -2.30567,13.57371 -5.33896,26.99446 -8.66699,40.34974 -3.07581,12.94283 -5.82651,25.96709 -9.17269,38.84369 -2.65883,7.3102 -3.09194,15.19607 -5.12475,22.63268 -2.74751,5.58634 -0.18189,0.9285 -13.79485,8.01269 0,0 11.56806,-8.27469 11.56806,-8.27469 l 0,0 c -11.67093,7.22227 -14.60655,10.0833 -10.56979,6.28566 2.72101,-7.1962 2.31223,-15.50223 5.38775,-22.67356 3.46659,-12.85376 6.17359,-25.90317 9.23982,-38.85619 3.36832,-13.30621 6.36534,-26.69487 8.68647,-40.22594 1.64938,-10.35906 3.42763,-20.7035 4.94664,-31.07737 0,0 12.70963,-6.21367 12.70963,-6.21367 z" />
    <path
       style="fill:#000000;fill-opacity:1;stroke:#000000;stroke-width:10;stroke-miterlimit:4;stroke-opacity:1;stroke-dasharray:none"
       id="path2842"
       d="m -53.986949,497.02021 c -1.786134,11.51787 -2.065314,23.2063 -2.398892,34.83688 -0.263408,20.14901 -2.117894,40.23799 -4.151772,60.27267 -2.010666,20.5178 -3.571558,41.06798 -5.601768,61.58478 -0.263814,7.15142 -0.657054,14.46663 0.518267,21.57089 1.344775,4.83122 0.265202,0.38348 -12.365447,5.96878 0,0 12.761967,-6.26653 12.761967,-6.26653 l 0,0 c -12.974383,7.65677 -11.503377,12.32924 -12.957234,6.93341 -0.977274,-7.30599 -0.673485,-14.74859 -0.294196,-22.0813 2.250361,-20.54417 3.890099,-41.1297 5.849148,-61.70187 1.982459,-19.96152 3.780306,-39.98176 3.941325,-60.05431 0.275407,-11.63072 0.54503,-23.2927 1.988973,-34.84973 0,0 12.709629,-6.21367 12.709629,-6.21367 z" />
    <path
       style="fill:#000000;fill-opacity:1;stroke:#000000;stroke-width:10;stroke-miterlimit:4;stroke-opacity:1;stroke-dasharray:none"
       id="path2844"
       d="m 355.22277,914.52659 c -7.53846,2.56372 -15.21352,3.56885 -23.13277,3.34528 -8.36325,-0.61237 -13.95416,-5.0918 -18.74762,-11.58124 -5.31358,-7.96692 -6.7406,-15.44068 -5.16816,-24.77329 2.26176,-9.03988 7.28538,-16.33825 14.83496,-21.67715 13.58482,-8.19475 22.29492,-13.88167 37.37951,-8.65905 10.5251,4.25025 17.85401,12.88113 23.99367,22.09665 5.53594,8.9883 8.99519,19.03771 8.63894,29.63046 -1.02646,8.48639 -5.60791,15.11924 -11.62101,20.88144 -5.59965,3.37223 -19.65848,13.70529 -27.7143,12.02669 -0.89453,-0.18639 -1.66929,-0.74375 -2.50393,-1.11563 0,0 11.71728,-7.87788 11.71728,-7.87788 l 0,0 c 2.86003,0.87631 4.87977,0.57672 7.77324,-0.2626 1.1122,-0.32261 4.20334,-1.8107 3.29999,-1.08613 -2.16895,1.73969 -14.41808,8.70088 -5.56936,3.63412 6.0865,-5.34843 10.83649,-11.69778 12.114,-19.90701 0.68881,-10.3288 -2.76209,-20.13001 -8.14424,-28.88712 -5.98822,-8.99594 -13.15469,-17.36342 -23.54073,-21.27937 -5.89321,-1.7858 -11.07136,-2.20384 -17.07275,-0.50813 -1.34785,0.38084 -5.02974,2.27469 -3.97991,1.34756 2.43121,-2.14706 5.51103,-3.42214 8.26655,-5.1332 -7.72805,4.82115 -12.81377,11.83538 -15.29669,20.6518 -1.76775,8.99674 -0.53573,16.0382 4.67263,23.7387 4.60777,6.19935 10.02485,10.17916 18.0261,10.52245 7.86506,0.0879 15.50337,-1.17163 22.94218,-3.8034 0,0 -11.16758,8.67605 -11.16758,8.67605 z" />
    <path
       style="fill:#000000;fill-opacity:1;stroke:#000000;stroke-width:10;stroke-miterlimit:4;stroke-opacity:1;stroke-dasharray:none"
       id="path2848"
       d="m 297.7555,458.85616 c 7.01001,-10.56879 12.18956,-22.20335 17.54818,-33.65864 5.32093,-11.67283 10.30668,-23.48156 15.73733,-35.10333 2.3237,-5.52014 13.77527,-23.83827 20.89378,-14.71455 4.34983,8.52423 5.40049,18.31392 7.05262,27.62382 1.83016,14.54623 4.2799,28.96867 6.97237,43.37676 1.1918,5.74635 2.01685,11.867 4.7647,17.14342 -13.84914,5.6542 -11.60252,9.80498 -13.85505,2.91958 0,0 12.36771,-6.81262 12.36771,-6.81262 l 0,0 c 2.35223,6.88847 1.44498,1.82909 -10.96047,10.84672 -1.59873,-5.808 -4.2166,-11.43289 -4.54331,-17.58663 -2.57348,-14.42682 -5.11212,-28.84177 -6.9681,-43.38203 -1.66091,-9.03399 -2.67549,-18.58436 -6.98744,-26.82674 -3.81462,-4.03711 -1.16353,-0.69353 10.53425,-7.80281 0.40103,-0.24372 -0.80965,0.48771 -1.15369,0.80686 -1.51855,1.40867 -2.28858,2.73618 -3.33605,4.60024 -0.74021,1.31727 -1.389,2.68387 -2.08349,4.0258 -5.49805,11.63456 -10.63286,23.4169 -15.88262,35.16624 -5.3327,11.42282 -10.45417,23.01482 -17.16332,33.71736 0,0 -12.9374,5.66055 -12.9374,5.66055 z" />
    <path
       style="fill:#000000;fill-opacity:1;stroke:#000000;stroke-width:10;stroke-miterlimit:4;stroke-opacity:1;stroke-dasharray:none"
       id="path2850"
       d="m 344.984,422.92696 c 6.69458,1.02269 13.44903,1.55042 20.20316,1.97877 0,0 -11.39415,8.16302 -11.39415,8.16302 l 0,0 c -6.8144,-0.47631 -13.62307,-1.06557 -20.39013,-2.01639 0,0 11.58112,-8.1254 11.58112,-8.1254 z" />
    <path
       style="fill:#000000;fill-opacity:1;stroke:#000000;stroke-width:10;stroke-miterlimit:4;stroke-opacity:1;stroke-dasharray:none"
       id="path2852"
       d="m 565.98012,529.11639 c -1.69442,14.50902 -3.77093,28.97412 -6.06733,43.39983 -1.81387,14.09199 -5.24148,27.88371 -8.4349,41.70572 -2.38428,10.55695 -1.98161,7.18482 -15.81271,12.11974 0,0 12.34186,-6.96657 12.34186,-6.96657 l 0,0 c -17.72647,11.66199 -11.21169,10.3447 -9.12117,0.89526 3.40225,-13.79931 6.88536,-27.60832 8.71769,-41.72524 2.28463,-14.33734 4.39241,-28.72528 5.73279,-43.18323 0,0 12.64377,-6.24551 12.64377,-6.24551 z" />
    <path
       style="fill:#000000;fill-opacity:1;stroke:#000000;stroke-width:10;stroke-miterlimit:4;stroke-opacity:1;stroke-dasharray:none"
       id="path2854"
       d="m 549.43319,556.48539 c 9.44805,-7.66081 19.94506,-14.5328 31.66621,-18.0512 5.35146,-1.49503 10.22303,-1.144 14.17737,2.88722 3.1033,5.22372 1.35292,10.60102 -0.71363,15.83767 -2.36378,4.69812 -5.94092,8.43716 -10.30694,11.2897 -4.42356,2.53928 -8.83042,5.10787 -13.27067,7.61786 -1.31117,0.74119 -2.31184,-1.31147 -1.51331,-1.84939 10.27454,-6.92115 8.69138,-6.42216 14.86301,-7.73211 4.23729,-0.79651 8.23262,-1.41412 12.28055,0.29707 5.31768,3.434 5.7515,9.17281 5.60954,14.95988 -0.80478,8.35538 -3.47162,15.8775 -8.56045,22.53202 -7.76178,7.06815 -17.31616,14.24113 -28.03891,15.32381 -1.70799,0.17246 -3.43311,0.0403 -5.14967,0.0604 0,0 11.25629,-8.23546 11.25629,-8.23546 l 0,0 c 1.6687,-0.0924 3.3532,-0.0301 5.0061,-0.27715 1.58598,-0.237 5.6613,-2.42629 4.66676,-1.16834 -1.89139,2.39233 -5.16438,3.24844 -7.67736,4.97632 -2.40349,1.6526 9.87191,-5.88317 7.05446,-5.17738 5.3025,-6.30539 7.9468,-13.50787 8.90251,-21.69227 0.18483,-5.12025 0.23589,-10.55888 -4.80022,-13.40008 -3.90014,-1.227 -7.87509,-0.43914 -11.80039,0.43025 -6.12699,1.97052 2.14456,-0.56828 9.65846,-6.07917 0.36505,-0.26774 -0.73464,-0.53454 -1.05889,-0.85047 -0.17838,-0.17381 -0.51988,-0.37182 -0.43641,-0.60647 0.1007,-0.28304 1.05906,-0.56717 0.79989,-0.41524 -3.66167,2.14648 -7.33891,4.26631 -11.00836,6.39947 4.47373,-2.56995 8.14367,-5.98768 10.73947,-10.50875 1.99163,-4.59352 4.09933,-9.57395 1.42011,-14.32757 -3.69408,-3.5824 -8.53511,-3.06014 -13.20968,-1.68583 -4.76409,1.59677 -15.11516,7.37676 1.88165,-2.53912 0.32173,-0.1877 -2.50592,1.25696 -6.65881,4.49559 -0.91031,0.70991 -1.77066,1.48165 -2.656,2.22247 0,0 -13.12268,5.26624 -13.12268,5.26624 z" />
    <path
       style="fill:#000000;fill-opacity:1;stroke:#000000;stroke-width:10;stroke-miterlimit:4;stroke-opacity:1;stroke-dasharray:none"
       id="path2856"
       d="m 419.42013,637.00761 c -6.4362,7.61395 -11.31482,16.08665 -15.41502,25.12544 -2.92302,8.10806 -6.80802,16.49108 -3.37544,24.96823 5.54217,7.51341 15.23048,5.63289 23.23322,4.24138 2.04675,-0.6482 4.0935,-1.29639 6.14025,-1.94458 0,0 -10.96316,8.4692 -10.96316,8.4692 l 0,0 c -2.0934,0.60699 -4.1868,1.21398 -6.2802,1.82098 -8.75997,1.34851 -18.70106,2.58535 -24.39714,-5.72463 -0.46566,-1.12986 -1.11435,-2.20065 -1.39699,-3.38957 -1.81119,-7.6188 2.19041,-15.5957 4.36984,-22.64519 4.03708,-9.0851 8.75451,-17.63963 15.08171,-25.36591 0,0 13.00293,-5.55535 13.00293,-5.55535 z" />
    <path
       style="fill:#000000;fill-opacity:1;stroke:#000000;stroke-width:10;stroke-miterlimit:4;stroke-opacity:1;stroke-dasharray:none"
       id="path2858"
       d="m 115.45383,519.94699 c 2.79365,10.73378 3.6832,21.70671 3.56426,32.75336 -0.22764,9.12776 -2.41634,17.70525 -6.30397,25.90533 -1.74507,2.9748 -0.86238,1.58481 -2.62287,4.18589 0,0 -12.967138,5.63151 -12.967138,5.63151 l 0,0 c 1.840744,-2.49476 0.915144,-1.16552 2.755985,-4.00213 4.097003,-7.99988 6.450893,-16.38686 6.760403,-25.43425 0.16748,-10.89352 -0.58645,-21.74247 -3.58442,-32.28178 0,0 12.39775,-6.75793 12.39775,-6.75793 z" />
    <path
       style="fill:#000000;fill-opacity:1;stroke:#000000;stroke-width:10;stroke-miterlimit:4;stroke-opacity:1;stroke-dasharray:none"
       id="path2860"
       d="m 102.15976,532.27446 c 10.14716,-5.91643 21.16055,-9.90327 32.5472,-12.61109 10.38383,-2.3092 20.8843,-2.81168 31.14529,0.13567 8.9477,3.16395 13.54602,10.41841 15.38801,19.34283 0.86388,12.00252 -4.98476,22.16606 -12.37176,31.10641 -13.57814,13.97058 -31.3393,23.4787 -49.13402,30.98943 -11.06852,3.70936 -5.45643,2.0535 -16.83857,4.95979 0,0 10.87277,-8.33195 10.87277,-8.33195 l 0,0 c 11.31223,-3.01977 5.73544,-1.30507 16.73242,-5.13741 2.58189,-1.12527 4.93258,-3.23822 7.74566,-3.37581 1.93722,-0.0948 -6.67941,3.84074 -4.83737,3.23356 2.36848,-0.78071 4.35588,-2.43479 6.46262,-3.76929 5.89734,-3.7356 11.48067,-8.02529 16.23116,-13.16003 7.41522,-8.46133 13.32819,-18.27441 12.79679,-29.92117 -1.59942,-8.52765 -6.01502,-15.21711 -14.59006,-18.01436 -10.13519,-2.65539 -20.45675,-2.00344 -30.6256,0.36223 -11.3851,2.86601 -22.37419,7.01914 -32.487941,13.0611 0,0 10.963401,-8.86991 10.963401,-8.86991 z" />
  </g>
</svg>
