<?xml version="1.0" encoding="UTF-8" standalone="no"?>
<!-- Created with Inkscape (http://www.inkscape.org/) -->

<svg
   xmlns:dc="http://purl.org/dc/elements/1.1/"
   xmlns:cc="http://creativecommons.org/ns#"
   xmlns:rdf="http://www.w3.org/1999/02/22-rdf-syntax-ns#"
   xmlns:svg="http://www.w3.org/2000/svg"
   xmlns="http://www.w3.org/2000/svg"
   xmlns:sodipodi="http://sodipodi.sourceforge.net/DTD/sodipodi-0.dtd"
   xmlns:inkscape="http://www.inkscape.org/namespaces/inkscape"
   width="602.61743"
   height="835.81451"
   id="svg2"
   version="1.1"
   inkscape:version="0.47pre4 r22446"
   sodipodi:docname="c9d1.svg">
  <defs
     id="defs4">
    <inkscape:perspective
       sodipodi:type="inkscape:persp3d"
       inkscape:vp_x="0 : 526.18109 : 1"
       inkscape:vp_y="0 : 1000 : 0"
       inkscape:vp_z="744.09448 : 526.18109 : 1"
       inkscape:persp3d-origin="372.04724 : 350.78739 : 1"
       id="perspective10" />
  </defs>
  <sodipodi:namedview
     id="base"
     pagecolor="#ffffff"
     bordercolor="#666666"
     borderopacity="1.0"
     inkscape:pageopacity="0.0"
     inkscape:pageshadow="2"
     inkscape:zoom="0.35"
     inkscape:cx="266.78705"
     inkscape:cy="502.60867"
     inkscape:document-units="px"
     inkscape:current-layer="layer1"
     showgrid="false"
     inkscape:window-width="1280"
     inkscape:window-height="726"
     inkscape:window-x="0"
     inkscape:window-y="25"
     inkscape:window-maximized="1" />
  <metadata
     id="metadata7">
    <rdf:RDF>
      <cc:Work
         rdf:about="">
        <dc:format>image/svg+xml</dc:format>
        <dc:type
           rdf:resource="http://purl.org/dc/dcmitype/StillImage" />
        <dc:title></dc:title>
      </cc:Work>
    </rdf:RDF>
  </metadata>
  <g
     inkscape:label="Layer 1"
     inkscape:groupmode="layer"
     id="layer1"
     transform="translate(-108.21295,-199.15632)">
    <path
       style="fill:#000000;fill-opacity:1;stroke:#000000;stroke-width:10;stroke-miterlimit:4;stroke-opacity:1;stroke-dasharray:none"
       id="path2818"
       d="m 213.5558,998.83754 c 2.82664,-9.27347 4.60948,-18.80754 6.47603,-28.30743 3.42722,-16.31959 4.82096,-32.89969 6.41187,-49.46524 2.13917,-26.35531 3.45615,-52.7809 4.67358,-79.19458 1.98086,-36.34406 4.403,-72.65579 5.87461,-109.0258 1.2258,-37.39854 2.86471,-74.77804 3.76363,-112.18738 0.87212,-28.72816 0.25233,-57.48203 1.11602,-86.20656 0.79538,-17.78912 1.65944,-35.5739 2.15104,-53.37462 -0.23748,-6.71102 1.43577,-14.51397 -1.76724,-20.78165 -0.27358,-0.20759 -1.13764,-0.49046 -0.82073,-0.62275 0.53738,-0.22433 1.35836,-0.20516 1.72997,0.24319 0.258,0.31127 -0.75327,0.30632 -1.09352,0.52468 -0.46598,0.29905 -0.8686,0.68708 -1.3118,1.01897 -1.16194,0.87012 -2.34272,1.71484 -3.50685,2.58203 -4.98109,3.82649 -10.51498,5.93828 -16.59007,7.26939 -7.91865,1.85013 -15.62879,0.64599 -23.13736,-2.079 -8.36521,-4.35033 -14.79184,-10.84049 -20.45041,-18.24095 -6.88161,-10.05915 -10.08689,-21.37802 -11.10754,-33.386 -1.17844,-15.22688 4.33419,-28.96364 11.89678,-41.81544 11.68216,-17.17731 27.7554,-30.29676 44.20041,-42.64548 17.59941,-12.6848 37.50149,-20.96351 58.67637,-25.24298 19.33063,-2.84636 36.44712,0.97916 54.16244,8.31039 14.16104,6.76451 26.54483,16.48107 37.15302,27.95652 9.22728,11.38763 10.22,19.74646 7.64927,33.73198 -3.71909,13.31391 -11.42829,24.69285 -20.36662,35.0278 -6.74379,7.31156 -14.089,14.0373 -21.83186,20.27036 -2.90989,2.71206 -6.52748,3.89408 -10.22587,5.0277 1.43321,1.90619 2.78415,4.18505 4.00498,6.36518 3.7566,8.52763 5.71542,17.69475 7.38619,26.82038 3.03259,14.92967 4.22096,30.14196 5.80016,45.27246 1.75296,16.22567 2.20014,32.54455 2.48121,48.84918 0.25474,15.50784 0.42137,30.99361 -0.63801,46.47152 -0.87393,10.77707 -1.53678,21.56723 -1.87067,32.37443 -0.1596,6.22532 -0.19983,12.45295 -0.19199,18.68007 0.6243,3.35446 4.08798,3.30215 6.85876,3.45796 5.8598,0.0994 11.7217,0.003 17.58215,-0.025 11.52947,-0.0491 23.05907,-0.052 34.58862,-0.0566 16.91712,-0.004 33.83425,-0.002 50.75138,-0.002 15.75904,9.9e-4 31.51808,-6e-5 47.27712,-9.5e-4 10.86724,-6.9e-4 21.73448,-8.4e-4 32.60172,-0.003 4.31034,-0.28111 8.75759,0.53023 13.00951,-0.31452 2.92887,-1.78548 3.5262,-5.58748 4.78945,-8.56823 2.2661,-6.56976 6.28902,-12.15047 10.72574,-17.40534 7.8774,-8.47704 18.13719,-13.78393 28.90759,-17.59266 13.54995,-4.14052 27.64917,-4.5124 41.68214,-3.87051 12.50346,1.03022 24.48106,4.97049 35.53935,10.76951 11.73455,6.03821 19.36288,16.61542 25.89142,27.70833 6.1599,10.67229 10.32078,22.23822 11.37148,34.52237 0.0652,9.18535 -2.81553,17.35057 -7.62305,25.02697 -6.22488,7.43623 -15.13153,11.06468 -23.87512,14.60893 -11.28501,4.01593 -22.79157,7.40269 -34.50763,9.89498 -11.10385,2.45684 -22.34417,2.38674 -33.60449,1.47809 -7.24264,-0.79812 -13.99289,-3.1393 -20.47932,-6.33375 -3.65166,-1.71532 -7.07866,-3.75842 -8.94856,-7.43377 -0.96191,-1.24865 -0.13621,-6.02335 -1.96294,-6.0892 0.3603,0.18282 1.30779,0.21414 1.08089,0.54844 -0.28821,0.42463 -10.66917,3.96756 -11.77714,4.41057 -11.13243,3.9975 -22.79473,6.23658 -34.36809,8.54426 -16.48398,2.83927 -33.17983,4.39987 -49.83699,5.86178 -16.10452,1.29044 -32.26311,1.59256 -48.41097,1.77561 -13.48288,0.10769 -26.96636,0.0779 -40.44952,0.0633 -10.89754,-0.0135 -21.79509,-0.0197 -32.69264,-0.0226 -2.2917,0.6934 -14.33708,-0.83598 -16.04918,6.1e-4 -0.41837,0.20443 0.90812,0.20641 1.36218,0.30962 -2.78531,1.87558 -2.36312,5.53554 -2.4264,8.51728 -0.005,7.2542 0.0638,14.50835 0.0939,21.76251 0.0275,11.25308 0.0336,22.50621 0.0328,33.75932 -0.46914,13.87467 -2.27399,27.63569 -3.64173,41.43512 -1.74632,15.54847 -4.34379,30.97237 -6.87495,46.4055 -2.21127,14.84184 -4.2344,29.708 -6.47382,44.54566 -2.72716,11.99207 -3.92054,24.21177 -5.54548,36.37217 -1.67454,11.37733 -3.46089,22.75485 -5.78332,34.02183 -1.17692,5.5399 -2.15389,11.1228 -2.91856,16.7344 -1.9114,5.5608 -4.29249,-1.4787 -4.74001,-3.4787 0,0 2.82013,-0.063 2.82013,-0.063 l 0,0 c 0.20298,0.8766 0.88952,1.7748 0.60895,2.6297 -0.42104,1.2829 -2.70988,2.7461 -1.52946,0.8728 0.79703,-5.6157 1.78278,-11.2056 2.96994,-16.7521 2.3449,-11.25645 4.11534,-22.63107 5.79311,-34.00179 1.62851,-12.16213 2.82047,-24.38462 5.55931,-36.37673 2.24909,-14.83793 4.27977,-29.70484 6.48741,-44.54887 2.52967,-15.4274 5.12648,-30.8451 6.87125,-46.38791 1.3588,-13.79064 3.15653,-27.54285 3.62238,-41.40789 -0.008,-11.25273 -0.007,-22.50551 -0.057,-33.75814 -0.0355,-7.25656 -0.10805,-14.51294 -0.12283,-21.76953 0.0611,-3.13386 -0.31115,-6.77886 2.44237,-8.89005 6.73914,-0.59349 13.49422,-0.33559 20.25688,-0.36841 10.8933,0.005 21.78661,0.0113 32.67992,0.0249 11.65947,0.0129 23.3192,0.0383 34.97843,-0.0575 16.15169,-0.17725 32.31416,-0.47192 48.42319,-1.75253 16.65418,-1.45333 33.34504,-3.02051 49.82921,-5.83259 11.54817,-2.29646 23.1785,-4.54439 34.29457,-8.50186 5.29302,-2.13106 10.55453,-4.63034 16.31591,-5.00828 1.98807,0.81337 0.80047,4.71571 1.97148,6.33685 1.89742,3.59138 5.32932,5.55724 8.91675,7.25606 6.46985,3.1767 13.22679,5.45513 20.44321,6.23171 9.46597,0.75221 18.74735,0.74541 28.08706,-1.43999 11.71442,-2.4675 23.21127,-5.85675 34.49754,-9.84689 8.70525,-3.52219 17.5815,-7.09336 23.83951,-14.43696 4.80452,-7.61533 7.68623,-15.71324 7.63321,-24.8461 -1.03813,-12.24301 -5.19948,-23.76948 -11.34673,-34.39866 -6.53613,-11.05389 -14.15953,-21.56496 -25.88735,-27.55389 -11.06574,-5.74864 -23.0265,-9.66775 -35.51981,-10.65006 -12.20469,-0.53718 -24.41793,0.21189 -36.19278,3.78997 -10.75072,3.75489 -20.98718,9.02421 -28.86531,17.44826 -4.42696,5.22517 -8.44721,10.77519 -10.69477,17.32234 -1.30349,3.06829 -1.91491,6.85854 -4.80316,8.83867 -5.98815,1.40129 -12.51969,-0.38126 -18.5862,0.36901 -10.85538,-0.002 -21.71075,-0.002 -32.56612,-0.003 -15.75208,-10e-4 -31.50415,-0.003 -47.25622,-0.002 -15.10305,-5e-5 -30.2061,-5.8e-4 -45.30914,0.005 -11.51866,0.006 -23.03737,0.0106 -34.55594,0.0606 -7.71466,0.0383 -15.4322,0.15809 -23.14581,0.0142 -2.94477,-0.19857 -6.3113,-0.35656 -6.89172,-3.88384 0.017,-6.23002 0.0624,-12.4604 0.22691,-18.68855 0.33798,-10.81122 1.02538,-21.6041 1.90342,-32.38475 1.07101,-15.46946 0.91354,-30.94753 0.65647,-46.44776 -0.28323,-16.29669 -0.73532,-32.60704 -2.48118,-48.82533 -1.58333,-15.12404 -2.779,-30.3302 -5.82842,-45.25067 -1.67559,-9.0978 -3.64036,-18.24252 -7.4351,-26.7263 -1.27116,-2.26166 -3.25984,-4.56201 -4.00604,-6.87196 3.69528,-1.11323 7.33862,-2.20707 10.25175,-4.91655 7.76621,-6.19929 15.10627,-12.92852 21.86926,-20.21675 8.93475,-10.28049 16.6289,-21.61506 20.35403,-34.88073 2.56159,-13.90595 1.56064,-22.16872 -7.63327,-33.47515 -10.60314,-11.43727 -22.9665,-21.12736 -37.11973,-27.84 -15.57814,-6.4037 -31.75825,-10.83069 -48.73612,-8.25998 -21.34938,4.2497 -40.90912,12.40478 -58.6852,25.12005 -16.42295,12.31867 -32.4704,25.40779 -44.15137,42.54122 -7.54429,12.79757 -13.04991,26.47412 -11.86838,41.64571 1.02863,11.95751 4.23572,23.22731 11.11682,33.22751 5.6566,7.35244 12.08421,13.82323 20.45878,18.07952 5.85658,2.08068 11.3916,3.64925 17.5627,2.04179 6.06627,-1.29185 11.58774,-3.33966 16.56324,-7.15077 2.73162,-2.04703 7.0686,-6.74667 10.64762,-3.6148 3.0951,6.38398 1.53331,14.12204 1.70377,20.92039 -0.52555,17.80073 -1.40519,35.58573 -2.22105,53.37498 -0.89834,28.72329 -0.29989,57.47739 -1.18532,86.20469 -0.92255,37.41034 -2.57811,74.791 -3.79474,112.19145 -1.46326,36.36983 -3.87174,72.68217 -5.8213,109.02745 -1.20038,26.41769 -2.48907,52.84775 -4.6014,79.20842 -1.57825,16.57347 -2.94928,33.16281 -6.35866,49.49299 -1.8576,9.51061 -3.64527,19.04926 -6.42528,28.3447 0,0 -2.82688,-0.091 -2.82688,-0.091 z" />
    <path
       style="fill:#000000;fill-opacity:1;stroke:#000000;stroke-width:10;stroke-miterlimit:4;stroke-opacity:1;stroke-dasharray:none"
       id="path2820"
       d="m 192.07838,963.25078 c 9.36261,-1.41996 18.82709,-1.86849 28.27841,-2.20856 12.58533,0.0352 25.10873,-1.22551 37.654,-2.05619 14.33331,-1.28666 28.68117,-0.17567 43.00119,0.63428 11.50077,0.49719 22.89749,2.19901 34.36807,3.12341 8.15532,0.58654 16.33129,0.75805 24.50468,0.8369 5.43692,0.0141 2.47558,0.0334 6.6494,0.002 0.87825,-0.0112 0.60703,0.5659 -0.41381,0.0321 0,0 2.82721,-0.32625 2.82721,-0.32625 l 0,0 c 0.51631,0.19316 1.57796,0.82842 0.40115,0.73771 -4.08201,0.0309 -8.16432,0.015 -12.24633,-0.008 -8.16573,-0.0863 -16.334,-0.26456 -24.48107,-0.86062 -11.46197,-0.93549 -22.85241,-2.63291 -34.34679,-3.11979 -12.50151,-0.70873 -25.01297,-1.84227 -37.52567,-0.63682 -12.54157,0.82551 -25.0597,2.10688 -37.64104,2.06669 -9.43391,0.33327 -18.88143,0.77022 -28.22786,2.17931 0,0 -2.80154,-0.39642 -2.80154,-0.39642 z" />
    <path
       style="fill:#000000;fill-opacity:1;stroke:#000000;stroke-width:10;stroke-miterlimit:4;stroke-opacity:1;stroke-dasharray:none"
       id="path2822"
       d="m 218.0733,880.71263 c 10.14176,0.004 20.28352,0.003 30.42529,0.003 13.16314,7.4e-4 26.32629,10e-4 39.48944,10e-4 12.52482,0.47184 24.97886,-0.84986 37.4561,-1.71233 10.2825,-0.67698 20.58508,-0.95916 30.887,-1.10801 5.96215,-0.12042 12.00435,-0.41216 17.66772,1.71262 0.89294,0.38523 2.82569,1.24688 0.69051,1.49696 0,0 -2.81469,-0.42487 -2.81469,-0.42487 l 0,0 c 1.94685,-0.0534 0.27918,0.0392 -0.69536,-0.72707 -4.14571,-1.50082 -7.56557,-2.04363 -12.0783,-1.62294 -10.31068,0.14197 -20.62218,0.41622 -30.91372,1.08845 -14.29507,0.98293 -28.58203,2.2104 -42.93014,1.72972 -13.16849,-4e-5 -26.33699,5.2e-4 -39.50548,10e-4 -10.15629,2e-4 -20.31257,-4.4e-4 -30.46886,0.003 0,0 2.79049,-0.44197 2.79049,-0.44197 z" />
    <path
       style="fill:#000000;fill-opacity:1;stroke:#000000;stroke-width:10;stroke-miterlimit:4;stroke-opacity:1;stroke-dasharray:none"
       id="path2824"
       d="m 226.64473,797.85548 c 9.89633,-0.35946 19.88855,0.66499 29.75003,-0.3302 11.85435,-0.97981 23.55624,-3.13518 35.40268,-4.25951 9.26902,-1.3237 18.52809,-2.68268 27.86117,-3.4649 5.32422,-0.39637 10.66332,-0.51386 16.00042,-0.54655 4.63824,-0.39632 8.84677,-0.0822 13.20584,1.35736 3.08965,1.10854 6.0293,2.54642 9.18814,3.54801 1.83513,0.59763 3.77674,0.80008 5.69844,0.85568 6.42199,-0.28221 -2.54911,0.67338 2.62339,-0.30628 0,0 2.80785,0.38637 2.80785,0.38637 l 0,0 c -2.72352,0.60737 -5.47235,0.3738 -8.2437,0.3548 -1.92726,-0.0854 -3.86572,-0.31287 -5.70135,-0.93367 -3.14798,-1.01764 -6.07881,-2.48401 -9.18687,-3.55002 -3.76114,-1.21996 -5.83369,-1.4415 -7.59555,-1.27097 -5.34345,0.0267 -10.68902,0.13459 -16.02027,0.52149 -9.34326,0.76604 -18.61359,2.10936 -27.88807,3.45768 -11.8508,1.11057 -23.5541,3.2581 -35.40752,4.26936 -11.75862,0.46723 -23.51802,0.36507 -35.28512,0.35332 0,0 2.79049,-0.44197 2.79049,-0.44197 z" />
    <path
       style="fill:#000000;fill-opacity:1;stroke:#000000;stroke-width:10;stroke-miterlimit:4;stroke-opacity:1;stroke-dasharray:none"
       id="path2826"
       d="m 113.21295,1018.8597 c 2.59454,-12.2869 6.73316,-24.18634 10.81261,-36.04188 4.47482,-12.17502 9.01243,-24.34745 14.29774,-36.19838 0.76069,-2.32183 6.8099,-16.05062 8.68491,-4.83206 0.99599,9.58592 1.81784,19.17082 2.29179,28.80173 0.76291,11.66108 0.0929,23.38523 1.01535,35.02979 0.88207,4.0455 0.47801,9.5515 2.21921,13.056 0,0 -2.8337,0.3431 -2.8337,0.3431 l 0,0 c -1.64288,-1.7362 -1.37802,-11.0735 -2.17999,-13.3773 -0.90029,-11.64845 -0.22399,-23.37413 -0.99315,-35.03785 -0.48109,-9.62088 -1.31714,-19.1943 -2.34605,-28.76744 -0.52212,-2.96496 -1.03591,-1.89303 1.80029,-3.53454 0.25952,-0.15021 -0.55283,0.2737 -0.74547,0.5035 -1.91707,2.28687 -2.584,5.43644 -4.12302,7.93251 -5.31095,11.8359 -9.86569,23.99903 -14.33617,36.1721 -4.06649,11.83641 -8.20699,23.71792 -10.73529,35.99742 0,0 -2.82906,-0.047 -2.82906,-0.047 z" />
    <path
       style="fill:#000000;fill-opacity:1;stroke:#000000;stroke-width:10;stroke-miterlimit:4;stroke-opacity:1;stroke-dasharray:none"
       id="path2828"
       d="m 143.78759,989.28405 c 7.60937,-0.37614 15.32549,-1.14314 22.87653,-2.38747 0,0 2.7736,0.39238 2.7736,0.39238 l 0,0 c -9.37102,1.58429 -18.94515,2.32365 -28.44062,2.43706 0,0 2.79049,-0.44197 2.79049,-0.44197 z" />
    <path
       style="fill:#000000;fill-opacity:1;stroke:#000000;stroke-width:10;stroke-miterlimit:4;stroke-opacity:1;stroke-dasharray:none"
       id="path2830"
       d="m 421.41036,957.95343 c -0.025,9.94585 -0.0161,19.89175 -0.0156,29.83762 0.48221,6.77327 0.73852,13.80095 3.99155,19.90425 -0.27658,2.2172 5.43191,3.3541 5.55325,3.9583 0.0961,0.4786 -1.4265,0.4273 -1.46331,-0.059 -0.0383,-0.5072 0.94387,-0.3791 1.41581,-0.5687 4.29708,-4.0409 4.85917,-11.04222 5.828,-16.57481 1.32958,-10.00028 2.69832,-19.99316 4.72684,-29.87755 1.14623,-5.61036 2.15577,-11.25827 2.68745,-16.96277 -0.0811,-0.42678 -0.16217,-0.85357 -0.24325,-1.28036 0,0 2.83881,-0.0513 2.83881,-0.0513 l 0,0 c 0.0795,0.45279 0.15895,0.90557 0.23842,1.35835 -0.54856,5.71471 -1.57235,11.3717 -2.72481,16.99285 -2.04189,9.87912 -3.41773,19.86832 -4.72642,29.86894 -0.97755,5.65225 -1.5728,12.61445 -5.80754,16.85395 -4.23123,2.0211 -8.80699,0.3143 -11.14586,-3.5206 -3.20698,-6.175 -3.49724,-13.2148 -3.95838,-20.04109 5e-4,-9.94587 0.009,-19.89177 -0.0156,-29.83762 0,0 2.82072,0 2.82072,0 z" />
    <path
       style="fill:#000000;fill-opacity:1;stroke:#000000;stroke-width:10;stroke-miterlimit:4;stroke-opacity:1;stroke-dasharray:none"
       id="path2832"
       d="m 113.89922,921.67467 c 4.72218,-9.59985 9.85361,-18.99496 15.18603,-28.26788 5.38746,-8.91859 10.64206,-17.90798 15.885,-26.91258 3.32483,-3.56065 4.0883,-9.57872 8.09378,-12.47866 1.31656,0.19862 2.6863,0.17558 3.94969,0.59587 2.72234,0.90566 3.91747,7.73276 4.57139,9.87695 2.23933,6.17808 4.52587,12.3417 6.94143,18.45294 1.64996,4.83909 3.7935,9.47555 5.72397,14.20473 0.17704,1.03097 0.58467,1.36736 1.14826,1.99188 0,0 -2.83992,0.27321 -2.83992,0.27321 l 0,0 c -0.61932,-0.57179 -0.84802,-1.3812 -1.13887,-2.15571 -1.91743,-4.73317 -4.05983,-9.36904 -5.70555,-14.20838 -2.41083,-6.12106 -4.70875,-12.28784 -6.94511,-18.47492 -0.73569,-2.38915 -1.39766,-4.97195 -2.55415,-7.20892 -0.2635,-0.50968 -0.57345,-1.00041 -0.93924,-1.44246 -0.31443,-0.37998 -1.2605,-0.54365 -1.08597,-1.00493 0.21382,-0.56509 1.13469,-0.41553 1.70204,-0.62329 -4.13689,2.59906 -4.76251,8.94687 -8.12317,12.34971 -5.26522,8.99485 -10.51157,17.99336 -15.90843,26.90962 -5.33351,9.25836 -10.46582,18.64228 -15.13761,28.25383 0,0 -2.82357,-0.13101 -2.82357,-0.13101 z" />
    <path
       style="fill:#000000;fill-opacity:1;stroke:#000000;stroke-width:10;stroke-miterlimit:4;stroke-opacity:1;stroke-dasharray:none"
       id="path2834"
       d="m 143.50695,891.82221 c 7.05802,-0.78739 14.00653,-1.93834 20.93593,-3.47936 4.93898,-0.86262 9.62072,-1.27533 13.7995,-4.20295 0,0 2.8124,0.26853 2.8124,0.26853 l 0,0 c -4.17832,3.02417 -8.81928,3.49595 -13.82203,4.31397 -6.9276,1.5377 -13.86417,2.73397 -20.92426,3.49623 0,0 -2.80154,-0.39642 -2.80154,-0.39642 z" />
    <path
       style="fill:#000000;fill-opacity:1;stroke:#000000;stroke-width:10;stroke-miterlimit:4;stroke-opacity:1;stroke-dasharray:none"
       id="path2836"
       d="m 418.55549,854.75453 c -0.0277,9.88038 -0.0214,19.76084 -0.0161,29.64125 -0.41127,7.01138 0.36982,13.90174 1.73812,20.76013 0.99199,3.6549 3.62714,5.64144 7.13639,6.57317 -0.4708,-0.0362 -1.53313,0.3478 -1.4124,-0.10869 0.13196,-0.4989 1.03128,-0.12932 1.51954,-0.29641 0.49311,-0.16874 0.95943,-0.41895 1.39724,-0.70172 1.94947,-1.25909 3.42803,-3.0174 4.88644,-4.78262 4.02709,-4.93048 6.86779,-10.46848 8.6261,-16.5571 2.27266,-7.75244 4.5712,-15.49924 6.79379,-23.26875 1.53317,-6.41159 3.53256,-12.67647 5.81259,-18.85565 0,0 2.80902,0.0995 2.80902,0.0995 l 0,0 c -2.28677,6.17127 -4.29468,12.42653 -5.82524,18.83403 -2.22124,7.76902 -4.50844,15.51799 -6.78008,23.26956 -1.75515,6.12618 -4.58367,11.70189 -8.62006,16.67188 -3.44259,4.24306 -6.24804,6.67927 -12.01954,6.06285 -3.55097,-1.04994 -6.16689,-3.1646 -7.15101,-6.88499 -1.34283,-6.88017 -2.12021,-13.78744 -1.70393,-20.81522 0.005,-9.88041 0.0116,-19.76087 -0.0161,-29.64125 0,0 2.82527,0 2.82527,0 z" />
    <path
       style="fill:#000000;fill-opacity:1;stroke:#000000;stroke-width:10;stroke-miterlimit:4;stroke-opacity:1;stroke-dasharray:none"
       id="path2838"
       d="m 196.15073,736.08485 c -12.3528,3.47324 -22.64686,11.30906 -32.54626,19.15036 -9.71706,8.41985 -18.67125,17.78078 -25.64745,28.60969 -3.63199,6.71906 -1.87328,11.85176 3.68901,16.48157 6.60811,4.63354 14.24231,6.05468 22.18525,5.35265 0,0 2.75572,0.4247 2.75572,0.4247 l 0,0 c -9.86702,0.27151 -19.41472,0.63951 -27.74376,-5.53266 -5.59561,-4.76809 -7.34008,-10.06795 -3.67396,-16.88591 6.98859,-10.85897 15.96567,-20.24102 25.69213,-28.69761 9.88558,-7.85601 20.16167,-15.72386 32.48888,-19.26678 0,0 2.80044,0.36399 2.80044,0.36399 z" />
    <path
       style="fill:#000000;fill-opacity:1;stroke:#000000;stroke-width:10;stroke-miterlimit:4;stroke-opacity:1;stroke-dasharray:none"
       id="path2842"
       d="m 464.71719,769.72602 c -7.87552,-0.17233 -15.71249,1.00765 -23.12418,3.65677 -5.98269,2.49744 -9.98623,7.07013 -12.5025,12.90975 -1.8793,4.57754 -2.11243,9.0957 -0.41912,13.72247 1.76263,4.01606 4.97339,7.20591 8.65815,9.49994 3.92647,2.80242 8.20728,4.24418 12.92255,4.96841 -0.19814,-0.0344 -0.78937,-0.0537 -0.59444,-0.10316 4.06306,-1.0307 6.31698,-0.89942 10.13189,-3.22608 3.08177,-2.53673 3.91835,-6.02366 4.37539,-9.80345 0.10715,-3.27032 0.81299,-6.68488 -0.62152,-9.7352 -0.88018,-1.3182 -2.13598,-2.12063 0.20451,-2.36637 3.98829,-0.10332 7.97986,-0.0289 11.96911,3.6e-4 3.04495,-0.0624 6.22404,0.53546 7.66583,3.41169 1.53383,3.78714 0.31892,7.67393 -0.33297,11.51037 -1.72299,6.04566 -3.02617,12.16405 -3.8658,18.39121 -0.0846,0.61582 -0.16911,1.23163 -0.25367,1.84745 0,0 -2.83202,-0.0395 -2.83202,-0.0395 l 0,0 c 0.0884,-0.61532 0.17684,-1.23064 0.26526,-1.84597 0.85053,-6.228 2.13851,-12.35294 3.86701,-18.40022 0.63033,-3.77441 1.85364,-7.60915 0.31582,-11.32695 -1.48632,-2.73864 -4.71933,-3.15215 -7.62982,-3.10663 -5.22417,-0.0386 -2.40195,-0.0649 -6.35387,-0.02 -2.22327,0.13833 -1.0472,0.20998 -0.18038,1.82256 1.39487,3.12349 0.73897,6.56226 0.61493,9.89109 -0.45939,3.85422 -1.31218,7.41364 -4.39255,10.05599 -4.60427,2.92677 -9.73111,3.68428 -15.14903,3.44096 -4.72274,-0.76625 -9.00277,-2.28161 -12.93924,-5.08251 -3.69188,-2.37778 -6.92349,-5.60058 -8.6704,-9.68577 -1.68301,-4.6988 -1.47651,-9.29108 0.42808,-13.93466 2.51247,-5.90337 6.51167,-10.56627 12.52862,-13.13898 7.39702,-2.70215 15.24545,-3.90617 23.12387,-3.7555 0,0 2.79049,0.44197 2.79049,0.44197 z" />
    <path
       style="fill:#000000;fill-opacity:1;stroke:#000000;stroke-width:10;stroke-miterlimit:4;stroke-opacity:1;stroke-dasharray:none"
       id="path2844"
       d="m 332.076,631.50248 c 5.9101,-1.88499 11.92735,-3.37465 18.04183,-4.40952 2.81265,-0.77232 1.47188,-0.35102 4.02863,-1.24363 0,0 2.80962,0.34766 2.80962,0.34766 l 0,0 c -2.56557,0.91735 -1.22073,0.4805 -4.04063,1.29163 -6.11258,1.01201 -12.12883,2.47986 -18.03314,4.36621 0,0 -2.80631,-0.35235 -2.80631,-0.35235 z" />
    <path
       style="fill:#000000;fill-opacity:1;stroke:#000000;stroke-width:10;stroke-miterlimit:4;stroke-opacity:1;stroke-dasharray:none"
       id="path2846"
       d="m 326.3641,577.5365 c 8.91193,-0.94355 17.76639,-2.20469 26.63545,-3.48832 5.81036,-0.82007 11.64673,-1.42874 17.50082,-1.82327 1.62923,-0.0972 3.26125,-0.10847 4.89274,-0.1155 0,0 2.8071,0.44367 2.8071,0.44367 l 0,0 c -1.63193,0.004 -3.26437,0.009 -4.89451,0.0972 -5.86747,0.37857 -11.71711,0.97959 -17.54049,1.79533 -8.85824,1.27673 -17.69655,2.56572 -26.59957,3.48727 0,0 -2.80154,-0.39641 -2.80154,-0.39641 z" />
    <path
       style="fill:#000000;fill-opacity:1;stroke:#000000;stroke-width:10;stroke-miterlimit:4;stroke-opacity:1;stroke-dasharray:none"
       id="path2848"
       d="m 323.50457,531.50248 c 8.77515,-2.64093 17.491,-5.47351 26.36817,-7.75972 6.55582,-2.21818 13.38205,-3.40741 20.04398,-5.20537 0,0 2.78666,0.36576 2.78666,0.36576 l 0,0 c -6.65979,1.82791 -13.50905,2.95773 -20.06332,5.20694 -8.86895,2.26596 -17.56898,5.10107 -26.32918,7.74474 0,0 -2.80631,-0.35235 -2.80631,-0.35235 z" />
    <path
       style="fill:#000000;fill-opacity:1;stroke:#000000;stroke-width:10;stroke-miterlimit:4;stroke-opacity:1;stroke-dasharray:none"
       id="path2850"
       d="m 226.3641,611.82221 c 8.31122,-1.3417 16.72558,-1.82485 25.12542,-2.20843 5.69606,-0.17958 2.93704,0.0195 8.27968,-0.56017 0,0 2.77514,0.40812 2.77514,0.40812 l 0,0 c -5.35105,0.60815 -2.58927,0.40266 -8.28816,0.57746 -8.38762,0.37468 -16.79095,0.84428 -25.09054,2.17944 0,0 -2.80154,-0.39642 -2.80154,-0.39642 z" />
    <path
       style="fill:#000000;fill-opacity:1;stroke:#000000;stroke-width:10;stroke-miterlimit:4;stroke-opacity:1;stroke-dasharray:none"
       id="path2852"
       d="m 240.93045,580.71263 c 4.8256,-0.27548 9.72335,0.37532 14.54147,10e-4 1.17753,-0.0914 2.28661,-0.60984 3.45349,-0.79237 3.73639,-1.06874 1.88551,-0.50195 5.55308,-1.69886 0,0 2.79657,0.35252 2.79657,0.35252 l 0,0 c -3.67341,1.21019 -1.82,0.62864 -5.5607,1.74319 -7.80157,1.25535 -15.70431,0.74245 -23.5744,0.83609 0,0 2.79049,-0.44197 2.79049,-0.44197 z" />
    <path
       style="fill:#000000;fill-opacity:1;stroke:#000000;stroke-width:10;stroke-miterlimit:4;stroke-opacity:1;stroke-dasharray:none"
       id="path2854"
       d="m 234.93165,545.46645 c 6.791,-4.09834 14.07361,-7.05728 21.75624,-8.95144 4.68067,-1.48106 9.48441,-2.41902 14.32709,-3.16204 0,0 2.77718,0.39711 2.77718,0.39711 l 0,0 c -4.8412,0.72548 -9.64783,1.64001 -14.32023,3.13785 -7.67745,1.85214 -14.97249,4.75965 -21.73099,8.89083 0,0 -2.80929,-0.31231 -2.80929,-0.31231 z" />
    <path
       style="fill:#000000;fill-opacity:1;stroke:#000000;stroke-width:10;stroke-miterlimit:4;stroke-opacity:1;stroke-dasharray:none"
       id="path2858"
       d="m 406.10078,671.62112 c -3.9403,8.11138 -7.38515,16.43023 -9.96309,25.07513 -3.13802,8.90839 -4.62931,18.2413 -6.422,27.47898 -1.65362,8.79904 -3.94945,17.39002 -7.34686,25.66915 -0.85383,2.05589 -1.5124,4.02204 -2.9815,5.69472 0,0 -2.82961,-0.21037 -2.82961,-0.21037 l 0,0 c 1.53385,-1.59951 2.12786,-3.56297 3.0019,-5.59411 3.4101,-8.2573 5.7292,-16.82349 7.36128,-25.61301 1.79764,-9.24599 3.28006,-18.59056 6.42707,-27.50609 2.5727,-8.65862 6.02305,-16.98609 9.92924,-25.1254 0,0 2.82357,0.131 2.82357,0.131 z" />
    <path
       style="fill:#000000;fill-opacity:1;stroke:#000000;stroke-width:10;stroke-miterlimit:4;stroke-opacity:1;stroke-dasharray:none"
       id="path2860"
       d="m 481.07057,669.06028 c -0.90976,8.06293 -2.23126,16.09457 -4.2665,23.95319 -1.56166,5.1433 -2.83918,10.33544 -3.61853,15.65337 -0.39437,3.23575 -1.77086,6.23936 -2.45106,9.43783 -0.15102,3.49748 -1.39878,6.81386 -1.70232,10.26243 -0.10144,3.46024 0.41813,6.76185 1.52969,10.01923 1.17241,1.89982 0.54456,1.01846 1.86401,2.6579 0,0 -2.8302,0.18998 -2.8302,0.18998 l 0,0 c -1.32326,-1.69458 -0.69385,-0.78142 -1.86536,-2.7551 -1.11546,-3.29683 -1.63439,-6.63797 -1.52934,-10.13647 0.29531,-3.46252 1.55118,-6.78596 1.6996,-10.29698 0.67094,-3.19668 2.03955,-6.1952 2.45178,-9.42047 0.79679,-5.32714 2.0675,-10.53204 3.64662,-15.68307 2.04609,-7.84385 3.37677,-15.8657 4.24694,-23.92192 0,0 2.82467,0.0401 2.82467,0.0401 z" />
    <path
       style="fill:#000000;fill-opacity:1;stroke:#000000;stroke-width:10;stroke-miterlimit:4;stroke-opacity:1;stroke-dasharray:none"
       id="path2862"
       d="m 515.35628,680.48885 c -1.1414,8.71627 -1.77611,17.48693 -2.20427,26.26376 -0.33889,7.75162 -1.73767,15.40356 -2.41186,23.13507 -0.0899,1.35234 -0.17981,2.70468 -0.26972,4.05702 0,0 -2.80288,-0.0186 -2.80288,-0.0186 l 0,0 c 0.0902,-1.35422 0.18033,-2.70844 0.27049,-4.06267 0.66798,-7.72881 2.06289,-15.37684 2.40998,-23.12461 0.43768,-8.7847 1.09289,-17.55978 2.1836,-26.29003 0,0 2.82466,0.0401 2.82466,0.0401 z" />
    <path
       style="fill:#000000;fill-opacity:1;stroke:#000000;stroke-width:10;stroke-miterlimit:4;stroke-opacity:1;stroke-dasharray:none"
       id="path2885"
       d="m 276.54865,104.29997 c -3.79505,-0.34606 -7.42368,-1.47165 -11.05361,-2.55364 0,0 2.7758,-0.35824 2.7758,-0.35824 l 0,0 c 3.64085,1.06651 7.28054,2.16247 11.07935,2.51547 0,0 -2.80154,0.39641 -2.80154,0.39641 z"
       transform="translate(108.21295,301.95587)" />
    <path
       style="fill:#000000;fill-opacity:1;stroke:#000000;stroke-width:10;stroke-miterlimit:4;stroke-opacity:1;stroke-dasharray:none"
       id="path2887"
       d="m 288.27093,34.50854 c -7.22945,6.431664 -15.23024,11.867447 -22.9302,17.698979 -7.61272,5.663066 -15.20241,11.359692 -23.08762,16.639929 0,0 -2.77542,-0.273407 -2.77542,-0.273407 l 0,0 c 7.89669,-5.260596 15.48145,-10.961976 23.09413,-16.622512 7.68106,-5.834603 15.69084,-11.23919 22.88247,-17.696054 0,0 2.81664,0.253065 2.81664,0.253065 z"
       transform="translate(108.21295,301.95587)" />
    <path
       style="fill:#000000;fill-opacity:1;stroke:#000000;stroke-width:10;stroke-miterlimit:4;stroke-opacity:1;stroke-dasharray:none"
       id="path2889"
       d="m 209.29935,-4.5534111 c -3.92378,10.9937437 -7.38599,22.1121761 -10.11726,33.4631401 -1.52279,7.821798 -0.73088,3.994022 -2.36573,11.48539 0,0 -2.78142,-0.05995 -2.78142,-0.05995 l 0,0 c 1.6443,-7.488378 0.84881,-3.658808 2.37563,-11.490959 2.73615,-11.348354 6.18659,-22.4687406 10.06588,-33.4762017 0,0 2.8229,0.078582 2.8229,0.078582 z"
       transform="translate(108.21295,301.95587)" />
    <path
       style="fill:#000000;fill-opacity:1;stroke:#000000;stroke-width:10;stroke-miterlimit:4;stroke-opacity:1;stroke-dasharray:none"
       id="path2891"
       d="m 40.598779,62.814874 c 10.239258,6.64699 20.325888,13.564898 29.952833,21.074996 8.633649,6.389895 16.905042,13.175452 24.846645,20.40391 0,0 -2.771073,0.23119 -2.771073,0.23119 l 0,0 C 84.692348,97.302631 76.420125,90.531804 67.799016,84.140767 58.153352,76.637121 48.060117,69.709195 37.788097,63.091999 c 0,0 2.810682,-0.277125 2.810682,-0.277125 z"
       transform="translate(108.21295,301.95587)" />
    <path
       style="fill:#000000;fill-opacity:1;stroke:#000000;stroke-width:10;stroke-miterlimit:4;stroke-opacity:1;stroke-dasharray:none"
       id="path2893"
       d="m 367.92549,91.339255 c -9.30024,3.179762 -17.52628,8.310256 -25.39428,14.090455 -6.73874,4.70912 -11.77724,10.55846 -14.29151,18.38486 -1.95142,5.88437 0.76483,8.83552 5.75951,11.42195 7.22442,2.97871 14.34371,2.07579 21.71369,0.35229 6.62239,-1.97606 13.69831,-3.35763 19.64166,-7.04466 3.301,-2.98381 1.76443,-5.68109 -1.14153,-8.07003 -2.81551,-2.32908 -6.22885,-3.40577 -9.74698,-4.1076 -0.22626,-0.0586 -0.50289,-0.0219 -0.67879,-0.17583 -1.01842,-0.89114 2.75553,-0.19106 4.05558,0.18469 1.20079,0.34707 2.99924,2.2834 3.89611,3.10687 3.66766,3.50018 3.48047,8.95108 3.75544,13.66417 0.47985,7.39171 -0.35375,14.83977 1.06612,22.1433 0.27252,0.2896 0.54503,0.5792 0.81754,0.86881 0,0 -2.83338,0.20185 -2.83338,0.20185 l 0,0 c -0.26925,-0.33915 -0.5385,-0.6783 -0.80775,-1.01745 -1.36951,-7.32259 -0.57487,-14.77542 -1.05124,-22.1798 -0.2832,-4.65784 -0.10328,-10.01823 -3.77016,-13.44445 -1.08693,-0.96854 -6.97228,-4.46029 -1.63669,-3.73961 3.5323,0.74176 6.93957,1.88813 9.75349,4.24756 2.99544,2.53429 4.43766,5.4779 1.13582,8.60212 -5.90856,3.78754 -13.06039,5.11608 -19.6857,7.13284 -8.95186,2.15198 -18.52264,2.95819 -27.28538,-0.41945 -5.04967,-2.69965 -7.73901,-5.86199 -5.7717,-11.81476 2.51443,-7.88734 7.54168,-13.80972 14.33149,-18.55821 7.85421,-5.790051 16.05431,-10.978577 25.35935,-14.142223 0,0 2.80929,0.312308 2.80929,0.312308 z"
       transform="translate(108.21295,301.95587)" />
    <path
       style="fill:#000000;fill-opacity:1;stroke:#000000;stroke-width:10;stroke-miterlimit:4;stroke-opacity:1;stroke-dasharray:none"
       id="path2895"
       d="m 315.69835,-16.021273 c 0.6652,6.3435607 1.07451,12.8759324 3.97303,18.6570181 1.952,3.4921556 5.10852,5.3824558 8.79354,6.5925072 0.62785,0.2162811 5.99253,0.9428607 6.13305,0.7414283 0.77246,-1.1072798 -5.31295,0.7655264 0.46026,-0.7416623 4.23401,-1.6784452 7.29952,-4.8432101 10.09413,-8.33065336 4.07604,-4.96743814 7.41293,-10.43318934 10.7027,-15.93187294 3.02195,-5.149467 4.32248,-11.013912 6.88169,-16.37746 2.09896,-4.690164 3.79591,-9.569814 5.36694,-14.465244 0,0 2.8226,0.08771 2.8226,0.08771 l 0,0 c -1.5761,4.907601 -3.27265,9.798687 -5.3706,14.503636 -2.58388,5.364013 -3.87504,11.239429 -6.89164,16.402965 -3.29504,5.5063952 -6.62213,10.9890612 -10.69726,15.9697262 -2.79712,3.5393032 -5.87373,6.728125 -10.09967,8.5114643 -4.02234,1.0911535 -8.19269,0.9885425 -12.21554,-0.017602 -3.70857,-1.2777319 -6.86592,-3.2723164 -8.8016,-6.8151895 -2.85647,-5.8464556 -3.29789,-12.3978552 -3.9769,-18.786771 0,0 2.82527,0 2.82527,0 z"
       transform="translate(108.21295,301.95587)" />
    <path
       style="fill:#000000;fill-opacity:1;stroke:#000000;stroke-width:10;stroke-miterlimit:4;stroke-opacity:1;stroke-dasharray:none"
       id="path2897"
       d="m 165.67056,-54.503485 c 6.15576,-7.495374 12.78407,-14.586959 19.44614,-21.630476 5.02733,-5.91936 9.91079,-11.949857 15.48856,-17.36638 5.30623,-4.280125 7.26988,-4.829554 13.91935,-3.848964 3.82,2.50981 4.72394,7.402579 5.61871,11.574803 1.47846,5.144066 2.22235,10.622204 5.26094,15.134257 0,0 -2.8249,0.165487 -2.8249,0.165487 l 0,0 c -2.9867,-4.580847 -3.78329,-10.054557 -5.25299,-15.239921 -0.8853,-4.084846 -1.77054,-8.944626 -5.61664,-11.294644 0.42686,-0.18037 1.56904,-0.178435 1.28058,-0.541109 -1.09537,-1.377172 -8.68562,3.362969 -9.57753,4.275931 -5.60819,5.389126 -10.48595,11.430536 -15.51428,17.351783 -6.6573,7.028628 -13.28678,14.102322 -19.40638,21.609904 0,0 -2.82156,-0.190671 -2.82156,-0.190671 z"
       transform="translate(108.21295,301.95587)" />
    <path
       style="fill:#000000;fill-opacity:1;stroke:#000000;stroke-width:10;stroke-miterlimit:4;stroke-opacity:1;stroke-dasharray:none"
       id="path2899"
       d="m 197.73707,-63.984346 c 3.56949,0.278075 7.34411,1.662661 10.93857,0.898505 0,0 2.7795,0.429828 2.7795,0.429828 l 0,0 c -5.55551,0.112314 -11.0502,0.260339 -16.51962,-0.931921 0,0 2.80155,-0.396412 2.80155,-0.396412 z"
       transform="translate(108.21295,301.95587)" />
    <path
       style="fill:#000000;fill-opacity:1;stroke:#000000;stroke-width:10;stroke-miterlimit:4;stroke-opacity:1;stroke-dasharray:none"
       id="path2901"
       d="M 50.438854,-7.9996424 C 41.825247,-1.67395 33.433862,4.9556464 24.765992,11.206437 c -4.982546,3.956095 -10.584461,8.246855 -12.295311,14.630149 -0.02545,6.164979 5.982127,8.39221 11.077893,9.583044 1.445822,0.03807 2.891644,0.07613 4.337466,0.114194 0,0 -2.766182,0.428855 -2.766182,0.428855 l 0,0 C 23.669096,35.906014 22.218335,35.849349 20.767573,35.792684 15.516702,34.479798 9.5684422,32.088884 9.6451942,25.763282 11.343799,19.298993 16.936343,14.939811 21.989312,10.942663 30.665183,4.7149972 39.048614,-1.9149359 47.6336,-8.2671011 c 0,0 2.805254,0.2674587 2.805254,0.2674587 z"
       transform="translate(108.21295,301.95587)" />
  </g>
</svg>
