<?xml version="1.0" encoding="UTF-8" standalone="no"?>
<!-- Created with Inkscape (http://www.inkscape.org/) -->

<svg
   xmlns:dc="http://purl.org/dc/elements/1.1/"
   xmlns:cc="http://creativecommons.org/ns#"
   xmlns:rdf="http://www.w3.org/1999/02/22-rdf-syntax-ns#"
   xmlns:svg="http://www.w3.org/2000/svg"
   xmlns="http://www.w3.org/2000/svg"
   xmlns:sodipodi="http://sodipodi.sourceforge.net/DTD/sodipodi-0.dtd"
   xmlns:inkscape="http://www.inkscape.org/namespaces/inkscape"
   width="1830.376"
   height="510.97046"
   id="svg2903"
   version="1.1"
   inkscape:version="0.47pre4 r22446"
   sodipodi:docname="New document 3">
  <defs
     id="defs2905">
    <inkscape:perspective
       sodipodi:type="inkscape:persp3d"
       inkscape:vp_x="0 : 526.18109 : 1"
       inkscape:vp_y="0 : 1000 : 0"
       inkscape:vp_z="744.09448 : 526.18109 : 1"
       inkscape:persp3d-origin="372.04724 : 350.78739 : 1"
       id="perspective2911" />
  </defs>
  <sodipodi:namedview
     id="base"
     pagecolor="#ffffff"
     bordercolor="#666666"
     borderopacity="1.0"
     inkscape:pageopacity="0.0"
     inkscape:pageshadow="2"
     inkscape:zoom="0.35"
     inkscape:cx="642.20733"
     inkscape:cy="131.54419"
     inkscape:document-units="px"
     inkscape:current-layer="layer1"
     showgrid="false"
     inkscape:window-width="1280"
     inkscape:window-height="726"
     inkscape:window-x="0"
     inkscape:window-y="25"
     inkscape:window-maximized="1" />
  <metadata
     id="metadata2908">
    <rdf:RDF>
      <cc:Work
         rdf:about="">
        <dc:format>image/svg+xml</dc:format>
        <dc:type
           rdf:resource="http://purl.org/dc/dcmitype/StillImage" />
        <dc:title></dc:title>
      </cc:Work>
    </rdf:RDF>
  </metadata>
  <g
     inkscape:label="Layer 1"
     inkscape:groupmode="layer"
     id="layer1"
     transform="translate(267.20733,-152.9359)">
    <path
       style="fill:#000000;fill-opacity:1;stroke:#000000;stroke-width:10;stroke-miterlimit:4;stroke-opacity:1;stroke-dasharray:none"
       id="path2913"
       d="m -259.40579,543.93431 c 16.46988,1.814 33.0041,2.9115 49.51664,4.25468 31.20983,2.60904 62.5334,3.18462 93.83306,3.63023 46.279011,-0.0573 92.416594,-4.31693 138.494047,-8.18059 64.114896,-5.90849 128.287423,-11.019 192.556523,-14.90493 70.88242,-4.36126 141.89243,-4.18748 212.86915,-3.71229 72.44056,0.67867 144.88301,1.05929 217.32627,1.27414 67.46819,0.24015 134.92907,-1.16852 202.39154,-1.89474 57.58608,-0.57895 115.17514,-0.71932 172.76366,-0.79771 43.8263,-0.53838 87.6251,0.2964 131.393,2.51191 24.5758,1.52124 49.0818,4.39814 73.2689,9.02308 5.364,1.08942 10.6321,2.47533 16.036,3.33746 0,0 -2.7778,0.39412 -2.7778,0.39412 l 0,0 c -5.3774,-0.89289 -10.6296,-2.27087 -15.9731,-3.35394 -24.1475,-4.60758 -48.6085,-7.49505 -73.1435,-9.00401 -42.0792,-2.13568 -84.1878,-3.0784 -126.3248,-2.51637 -57.61551,0.0729 -115.23158,0.20754 -172.84469,0.78257 -69.04434,0.73903 -138.08698,2.16857 -207.13746,1.88884 -72.44326,-0.21679 -144.88571,-0.59737 -217.32629,-1.27502 -69.40248,-0.461 -138.83443,-0.57145 -208.14398,3.70373 -64.24279,3.88153 -128.388765,8.99043 -192.475914,14.91132 -47.748764,4.01571 -95.568147,8.4609 -143.533546,8.21762 -31.32851,-0.44494 -62.68048,-1.02532 -93.91918,-3.63493 -16.55725,-1.33771 -33.13736,-2.42952 -49.65007,-4.25876 0,0 2.80154,-0.39641 2.80154,-0.39641 z" />
    <path
       style="fill:#000000;fill-opacity:1;stroke:#000000;stroke-width:10;stroke-miterlimit:4;stroke-opacity:1;stroke-dasharray:none"
       id="path2915"
       d="m -232.84121,544.25555 c 0.22516,-8.81355 2.78372,-16.92387 6.52583,-24.81308 4.377,-9.16943 10.85888,-17.08962 17.79902,-24.42962 7.83548,-8.85019 17.17979,-16.16376 26.76229,-23.0103 11.01344,-8.09331 22.56264,-15.41985 34.0287,-22.84724 10.39166,-6.45676 21.45985,-11.92767 32.66762,-16.83202 9.4562,-4.42722 19.3635,-7.69511 29.586999,-9.7604 8.421412,-2.08507 16.971893,-3.50355 25.612158,-4.2312 7.825744,-0.79072 15.595715,-0.40397 23.345706,0.79593 6.923173,1.70704 13.817112,3.47012 20.655133,5.49724 8.7635826,2.36333 17.3522265,5.16629 25.6463337,8.85363 9.2438013,3.47203 17.6128063,8.68054 25.9375453,13.90562 7.121985,4.34802 14.172092,8.70691 20.507671,14.15534 5.627158,4.71159 10.306157,10.29519 14.931013,15.94929 4.164598,5.32024 7.374307,11.24943 10.653072,17.12683 3.067099,6.51904 4.96603,13.46933 7.028909,20.34281 1.761007,6.37664 3.239797,12.8114 4.987703,19.19462 0.674107,3.84917 1.631246,7.52097 3.540929,10.94664 1.258849,0.76905 0.544089,0.30366 -2.392933,-0.90615 0,0 2.840109,0.0104 2.840109,0.0104 l 0,0 c -3.047993,1.48106 -2.093703,2.12084 -3.286456,1.0388 -1.880032,-3.45726 -2.840438,-7.15189 -3.520936,-11.01457 -1.733787,-6.38313 -3.214605,-12.81474 -4.974312,-19.18791 -2.055211,-6.85571 -3.956275,-13.78844 -7.032868,-20.28156 -3.268676,-5.86556 -6.482608,-11.7756 -10.645545,-17.07741 -4.617985,-5.64327 -9.30543,-11.20321 -14.927459,-15.89996 -6.337041,-5.42292 -13.384368,-9.76931 -20.489535,-14.11517 -8.322348,-5.21661 -16.694741,-10.39531 -25.9315006,-13.86605 -8.2991378,-3.66558 -16.8932412,-6.44635 -25.6500254,-8.81653 -6.840954,-2.01128 -13.731553,-3.79368 -20.664255,-5.45804 -1.996672,-0.30724 -4.882359,-1.10754 -6.80546,-1.20721 -3.648768,-0.1891 -7.335146,0.3894 -10.979024,0.42927 -8.643249,0.7061 -17.201158,2.09918 -25.621411,4.19738 -10.225489,2.03127 -20.134871,5.27849 -29.588621,9.7002 -11.2145,4.8757 -22.27539,10.35967 -32.67796,16.78535 -11.46584,7.41975 -23.01125,14.74554 -34.02167,22.83535 -9.57652,6.82524 -18.91683,14.12277 -26.74262,22.95828 -6.93757,7.30453 -13.40957,15.20467 -17.78567,24.34241 -3.73811,7.84518 -6.30424,15.9127 -6.49321,24.68907 0,0 -2.82527,0 -2.82527,0 z" />
    <path
       style="fill:#000000;fill-opacity:1;stroke:#000000;stroke-width:10;stroke-miterlimit:4;stroke-opacity:1;stroke-dasharray:none"
       id="path2917"
       d="m -157.18552,544.51433 c 4.57339,-6.99794 9.35672,-13.79728 15.29679,-19.70856 5.3033,-5.14543 11.22301,-9.52759 17.09075,-13.98599 6.16317,-4.11318 12.90428,-7.14785 19.85492,-9.64452 6.420517,-2.15296 13.149834,-2.84269 19.870485,-3.2058 6.638247,-0.23842 13.283355,-0.18141 19.924596,-0.15775 4.318079,0.0817 8.825353,0.96989 12.87505,2.50055 4.11234,1.43545 7.652609,3.97969 10.972867,6.73407 3.66484,2.07445 6.424603,5.0858 9.20204,8.17907 2.938949,3.76192 5.884029,7.43257 7.962304,11.7569 2.283167,4.50716 4.378972,9.10478 6.280127,13.78611 0.897405,2.60216 1.61991,5.26892 2.094019,7.98128 0.01631,-0.0346 0.03263,-0.0693 0.04894,-0.1039 0,0 -2.839236,0.31207 -2.839236,0.31207 l 0,0 c -0.0196,-0.0531 -0.0392,-0.10631 -0.0588,-0.15946 -0.459008,-2.69335 -1.170544,-5.34176 -2.069167,-7.92108 -1.895672,-4.6766 -3.999137,-9.26486 -6.275655,-13.76793 -2.087426,-4.29018 -5.029638,-7.94229 -7.96391,-11.67696 -2.7755,-3.08078 -5.566676,-6.03738 -9.197509,-8.13728 -3.323103,-2.72601 -6.859089,-5.23228 -10.965365,-6.63886 -4.077487,-1.45659 -8.526206,-2.37575 -12.854679,-2.40388 -4.78406,-0.0175 -9.570056,-0.0428 -14.351831,0.14296 -6.715481,0.34456 -13.442749,1.00315 -19.867356,3.12388 -6.94704,2.46142 -13.67173,5.49222 -19.84453,9.55879 -5.85838,4.45854 -11.78684,8.81508 -17.09171,13.94917 -5.9562,5.87033 -10.73704,12.65248 -15.27371,19.65309 0,0 -2.81943,-0.16597 -2.81943,-0.16597 z" />
    <path
       style="fill:#000000;fill-opacity:1;stroke:#000000;stroke-width:10;stroke-miterlimit:4;stroke-opacity:1;stroke-dasharray:none"
       id="path2919"
       d="m -43.92991,658.85967 c 2.636354,-11.10005 6.831744,-21.78207 10.809189,-32.45686 4.233924,-11.68954 9.013749,-23.1583 13.608241,-34.70636 0.87856,-1.56838 2.47819,-9.28068 5.706564,-8.56609 1.295346,0.28672 2.532605,0.79147 3.798907,1.18721 3.8682181,6.64462 5.6367236,14.42062 7.5715702,21.81207 2.79168663,10.28218 5.0527788,20.70957 7.2919998,31.12675 1.4877207,5.00478 2.7909546,10.11766 4.5837812,15.02697 -0.029035,0.19775 -0.058071,0.3955 -0.087106,0.59325 0,0 -2.8496802,-0.0497 -2.8496802,-0.0497 l 0,0 c 0.031972,-0.1487 0.063944,-0.2974 0.095916,-0.4461 -1.7263562,-4.94479 -3.0948006,-10.03449 -4.5388041,-15.0654 -2.22549643,-10.41507 -4.478322,-20.84042 -7.2830435,-31.11424 -1.9332675,-7.34526 -3.6820954,-15.11354 -7.6146574,-21.67365 0.613302,-0.31861 1.416731,-0.40941 1.839904,-0.95583 0.423157,-0.5464 -1.490677,0.18069 -1.953808,0.69365 -1.914771,2.12076 -2.772174,4.92926 -3.768017,7.53716 -4.614961,11.54214 -9.415921,23.00392 -13.643174,34.69867 -3.965217,10.65303 -8.146577,21.31968 -10.73872,32.4052 0,0 -2.829062,-0.0467 -2.829062,-0.0467 z" />
    <path
       style="fill:#000000;fill-opacity:1;stroke:#000000;stroke-width:10;stroke-miterlimit:4;stroke-opacity:1;stroke-dasharray:none"
       id="path2921"
       d="m -36.493047,634.67936 c 8.226119,-1.88922 16.396483,-4.01394 24.642275,-5.81809 5.3954568,-1.00553 2.7497837,-0.44314 7.93937,-1.67607 0,0 2.7795732,0.37357 2.7795732,0.37357 l 0,0 c -5.193734,1.25118 -2.545694,0.68693 -7.9466509,1.68081 -8.2407433,1.78873 -16.4059173,3.90603 -24.6130263,5.83619 0,0 -2.801541,-0.39641 -2.801541,-0.39641 z" />
    <path
       style="fill:#000000;fill-opacity:1;stroke:#000000;stroke-width:10;stroke-miterlimit:4;stroke-opacity:1;stroke-dasharray:none"
       id="path2923"
       d="m 136.84236,573.85577 c -8.55428,6.21893 -16.4093,13.32743 -23.6329,21.03971 -6.64093,7.03019 -12.91053,14.43165 -15.311509,23.9683 -0.779466,8.58613 6.137209,11.68606 13.244829,13.75247 6.80312,1.79372 13.6894,1.24238 20.58718,0.64317 0,0 2.74153,0.4094 2.74153,0.4094 l 0,0 c -8.6799,0.78484 -17.53748,1.31792 -26.09938,-0.69502 -7.23696,-2.17437 -14.096937,-5.47222 -13.280397,-14.17908 2.401948,-9.58817 8.662517,-17.04518 15.346807,-24.10796 7.20884,-7.7233 15.05641,-14.83867 23.5872,-21.08406 0,0 2.81664,0.25307 2.81664,0.25307 z" />
    <path
       style="fill:#000000;fill-opacity:1;stroke:#000000;stroke-width:10;stroke-miterlimit:4;stroke-opacity:1;stroke-dasharray:none"
       id="path2925"
       d="m 161.78657,535.66408 c 1.05059,-7.21162 1.62984,-14.44696 3.01486,-21.60508 1.4626,-6.62427 4.55853,-12.57314 7.89575,-18.41052 4.26371,-7.39365 9.20875,-14.38976 14.41682,-21.14396 6.83675,-8.4924 13.70607,-16.95726 20.48506,-25.4963 8.32792,-10.09673 16.71412,-20.11211 25.85925,-29.48104 10.94769,-10.75598 21.7678,-21.65112 33.01107,-32.09934 12.28673,-11.29869 24.40861,-22.72378 37.31271,-33.31698 13.29591,-10.79884 27.26306,-20.72298 41.38811,-30.39975 14.35865,-9.02799 29.38589,-16.95692 44.82823,-23.95739 17.77049,-8.2797 36.02197,-15.51133 54.4668,-22.13752 21.30996,-7.36212 43.05156,-13.31903 65.02025,-18.33389 19.8354,-4.84829 40.04024,-8.0203 60.30146,-10.44107 18.54001,-2.101 37.17123,-2.4236 55.7913,-1.59721 16.01066,0.50526 31.86873,3.16605 47.44024,6.80077 14.67682,3.54068 28.71671,9.01847 42.2673,15.59702 12.76339,6.81776 24.64758,15.10446 36.12913,23.87341 10.42258,8.29272 20.63562,16.82134 30.5142,25.75515 9.15735,8.1491 17.45799,17.18877 25.3088,26.58653 7.06064,8.46241 13.13526,17.69405 19.33566,26.7925 5.30512,7.93043 10.22175,16.18591 14.78715,24.57284 4.04271,7.47475 8.49702,14.71576 12.50544,22.20826 3.81651,6.02017 5.93445,12.8278 8.51684,19.40841 2.10804,6.27797 4.45161,12.45266 6.93263,18.59142 2.03761,6.87531 4.75508,13.50984 6.71024,20.4077 1.9913,6.5175 4.21885,12.96479 6.10207,19.5142 1.12267,4.20828 1.74044,8.51762 2.10301,12.85052 0.13251,0.14669 0.58254,0.50968 0.39753,0.44005 -0.71689,-0.26979 -1.66881,-0.38797 -2.03982,-1.0581 -0.26641,-0.48118 0.45981,-1.00473 0.60387,-1.53554 0.48007,-1.76894 0.56307,-3.58701 0.73994,-5.40024 0,0 2.8154,0.0268 2.8154,0.0268 l 0,0 c -0.14456,1.54363 -0.88729,12.07272 -5.35777,7.55013 -0.34288,-4.31506 -0.95762,-8.60573 -2.07648,-12.79478 -1.88543,-6.54834 -4.10512,-12.99761 -6.09403,-19.51542 -1.95841,-6.8868 -4.66899,-13.51514 -6.71676,-20.37724 -2.4819,-6.13881 -4.81239,-12.31886 -6.92688,-18.59463 -2.57321,-6.57319 -4.71185,-13.35971 -8.51262,-19.37548 -4.00921,-7.48983 -8.45442,-14.7337 -12.49621,-22.20664 -4.56518,-8.37622 -9.47137,-16.62546 -14.77594,-24.5456 -6.19869,-9.08857 -12.26053,-18.31685 -19.32417,-26.76591 -7.85239,-9.38229 -16.14704,-18.41157 -25.30118,-26.54837 -9.87314,-8.9289 -20.08484,-17.44865 -30.50479,-25.73287 -11.47347,-8.7569 -23.35334,-17.02906 -36.1163,-23.81902 -13.54749,-6.55973 -27.58799,-12.01172 -42.25645,-15.53649 -15.56837,-3.61265 -31.41711,-6.25811 -47.42035,-6.75236 -16.82051,-0.73436 -33.62977,-0.35499 -50.37928,1.57531 -20.26697,2.40471 -40.47863,5.56789 -60.31942,10.40951 -21.9653,5.00483 -43.70473,10.9454 -65.01109,18.30214 -18.43561,6.61572 -36.67594,13.84453 -54.43514,22.11917 -15.44013,6.98433 -30.45831,14.90708 -44.82203,23.90974 -14.12594,9.66469 -28.0874,19.58682 -41.38263,30.37633 -12.90565,10.58537 -25.03159,21.99812 -37.31034,33.30022 -11.24056,10.44101 -22.04957,21.33755 -32.99368,32.08729 -9.14238,9.35756 -17.52288,19.36144 -25.84028,29.45393 -6.77867,8.53559 -13.6355,17.00683 -20.47524,25.49302 -5.20031,6.74127 -10.13766,13.72593 -14.39284,21.10696 -3.33193,5.80729 -6.42485,11.72559 -7.89466,18.31813 -1.39029,7.15202 -1.9803,14.38043 -3.00007,21.59134 0,0 -2.82467,-0.0401 -2.82467,-0.0401 z" />
    <path
       style="fill:#000000;fill-opacity:1;stroke:#000000;stroke-width:10;stroke-miterlimit:4;stroke-opacity:1;stroke-dasharray:none"
       id="path2927"
       d="m 282.47065,527.38895 c 2.77801,-6.47949 6.44473,-12.50819 10.29491,-18.3953 3.20739,-5.07523 7.3964,-9.26656 11.63263,-13.44899 4.03793,-3.88895 7.96426,-7.89172 12.24822,-11.51686 4.89997,-4.43952 10.12357,-8.46658 15.30112,-12.56926 6.20963,-5.34886 12.48159,-10.6123 18.78808,-15.84826 7.01721,-5.17539 14.39119,-9.85517 21.57845,-14.7952 8.34669,-6.58218 16.82705,-12.96055 25.59787,-18.97106 8.74071,-5.83516 17.24866,-12.06827 26.34293,-17.34621 9.0205,-4.95592 18.02211,-9.94041 27.01024,-14.95598 10.29791,-5.71102 21.32947,-9.95378 32.07575,-14.73586 11.46779,-5.77499 23.56482,-10.03775 35.51713,-14.65892 12.91525,-5.21709 26.35931,-8.9491 39.84788,-12.3445 12.93721,-2.92088 25.97393,-5.04455 39.18443,-6.16939 12.21466,-0.87102 24.46607,-0.92603 36.70547,-0.96942 11.08279,-0.62784 21.94156,0.4036 32.77334,2.59578 8.19615,1.93565 15.98857,5.05054 23.55121,8.70436 7.10019,3.06357 13.59069,7.31508 19.84846,11.81461 6.78043,4.94629 12.62935,10.98722 18.95339,16.46776 6.69831,5.35573 12.81689,11.38947 19.42988,16.83763 5.98653,4.53828 11.64148,9.38983 16.65673,14.98273 4.36646,5.20363 8.90244,10.26459 13.20984,15.51468 3.59591,4.35057 7.06822,8.76911 9.93653,13.6376 2.69998,4.41349 4.72195,9.13997 6.62618,13.93712 1.72322,5.10082 3.77361,10.06403 4.90601,15.34167 1.38761,4.21069 2.63561,8.42554 3.29986,12.81543 1.12877,3.14719 2.04859,6.35465 2.85811,9.59732 0.30067,1.21561 1.4565,4.56229 -2.35565,0.84047 -0.40297,-0.39342 0.031,-1.12594 0.0391,-1.68905 0.0105,-0.72574 0.0111,-1.45158 0.0167,-2.17737 0,0 2.8281,0.002 2.8281,0.002 l 0,0 c -0.003,0.60398 -0.0107,3.85655 -0.0403,3.88398 -3.16039,2.92862 -2.89617,0.89629 -3.32881,-0.7907 -0.80162,-3.25322 -1.74417,-6.46004 -2.84784,-9.62377 -0.66699,-4.38303 -1.92101,-8.58942 -3.29358,-12.79818 -1.13564,-5.26009 -3.17421,-10.21181 -4.90018,-15.29477 -1.90678,-4.78135 -3.93245,-9.49073 -6.6234,-13.89338 -2.87737,-4.84628 -6.34577,-9.2531 -9.93046,-13.59444 -4.3173,-5.23652 -8.82069,-10.31809 -13.2022,-15.50291 -5.01762,-5.57436 -10.68354,-10.39743 -16.64834,-14.94169 -6.59565,-5.46997 -12.7347,-11.47927 -19.42532,-16.84479 -6.31177,-5.48594 -12.16903,-11.51031 -18.95342,-16.44176 -6.26118,-4.48171 -12.75489,-8.70321 -19.84635,-11.76591 -7.56012,-3.6278 -15.34299,-6.73307 -23.53414,-8.63607 -8.99381,-1.81057 -18.05416,-3.00578 -27.25847,-2.54429 -12.24107,0.0404 -24.49391,0.09 -36.71114,0.94584 -13.20934,1.10775 -26.24285,3.21658 -39.18021,6.12477 -13.48746,3.37779 -26.93049,7.10159 -39.84287,12.31077 -11.94633,4.6245 -24.04856,8.86458 -35.50883,14.64601 -10.73784,4.78407 -21.76411,9.02114 -32.06382,14.71198 -8.98592,5.01508 -17.97931,10.00951 -27.00465,14.95231 -9.10895,5.24677 -17.60197,11.50125 -26.34662,17.32451 -8.77311,6.00173 -17.26051,12.36608 -25.5855,18.97165 -7.17884,4.94224 -14.54079,9.6265 -21.57365,14.77021 -6.30397,5.23793 -12.58236,10.49191 -18.7787,15.85541 -5.16919,4.10597 -10.40243,8.11445 -15.29036,12.56148 -4.28574,3.61646 -8.21215,7.60798 -12.24517,11.49496 -4.21743,4.17838 -8.43661,8.32119 -11.63409,13.38932 -3.85245,5.8711 -7.54185,11.87851 -10.28095,18.36319 0,0 -2.82356,-0.13101 -2.82356,-0.13101 z" />
    <path
       style="fill:#000000;fill-opacity:1;stroke:#000000;stroke-width:10;stroke-miterlimit:4;stroke-opacity:1;stroke-dasharray:none"
       id="path2929"
       d="m 411.04208,530.2461 c 2.84533,-6.32335 6.1424,-12.49551 10.2936,-18.06264 3.29582,-4.28216 7.1789,-7.97406 11.16076,-11.60138 4.35527,-3.60226 9.38778,-6.17897 14.30972,-8.89145 5.61859,-2.91672 11.33496,-5.63872 16.95786,-8.54623 5.38052,-2.42188 10.4229,-5.48927 15.4509,-8.55553 4.8435,-2.80564 10.17262,-4.60241 15.23592,-6.94415 4.43564,-1.72004 8.67049,-3.87895 13.16624,-5.44905 4.0591,-0.78059 7.91193,-2.27138 11.94149,-3.17954 4.72526,-0.77377 9.22657,-2.38385 13.94987,-3.19278 5.98533,-1.56438 12.08757,-2.49419 18.09672,-3.95532 7.22259,-1.54041 14.58482,-2.08085 21.8745,-3.2147 8.83127,-1.55115 17.73403,-1.99321 26.67554,-1.72076 8.35068,0.74316 16.67137,1.48565 24.94431,2.84325 7.69175,1.08693 15.20622,3.27346 22.48424,5.95191 6.68565,2.16669 12.84044,5.47332 18.96877,8.83954 5.64753,3.2999 11.36027,6.50621 17.21533,9.42564 4.73881,2.76991 9.36444,5.69301 13.97216,8.66643 3.83108,2.88457 7.50621,5.90737 10.78084,9.41921 3.59671,2.9354 6.47394,6.53944 9.39453,10.11443 2.29625,2.80627 3.87586,6.05214 5.7924,9.08926 1.55525,1.39361 1.61901,4.7805 3.9493,4.83401 -0.7346,-0.22203 -1.4692,-0.44406 -2.2038,-0.66608 0,0 2.83737,0.19217 2.83737,0.19217 l 0,0 c -1.15038,0.29608 -2.30076,0.59217 -3.45114,0.88826 -2.28876,-0.45199 -2.3857,-3.60979 -3.96266,-5.09036 -1.88042,-3.0516 -3.5074,-6.24593 -5.78447,-9.05371 -2.91458,-3.57378 -5.81621,-7.14308 -9.38926,-10.09524 -3.28337,-3.47753 -6.93736,-6.5007 -10.77269,-9.3511 -4.59195,-2.98188 -9.22517,-5.87917 -13.96003,-8.63642 -5.84739,-2.93837 -11.5649,-6.13586 -17.21423,-9.43674 -6.1167,-3.36927 -12.28755,-6.62303 -18.95762,-8.79779 -7.28206,-2.64862 -14.78492,-4.82632 -22.47323,-5.90005 -8.2705,-1.35016 -16.59362,-2.07824 -24.94083,-2.81229 -6.91214,-1.11356 -14.24563,1.24469 -21.12948,1.69213 -7.28467,1.137 -14.63545,1.69525 -21.86091,3.19266 -6.00823,1.46597 -12.10893,2.39083 -18.08836,3.97704 -4.73012,0.78113 -9.22375,2.39641 -13.94557,3.1787 -4.037,0.87965 -7.86646,2.4137 -11.93514,3.1475 -4.50549,1.5465 -8.72864,3.71208 -13.16943,5.41943 -5.046,2.36902 -10.38646,4.1262 -15.23623,6.91212 -5.0244,3.08078 -10.07273,6.15263 -15.45794,8.57471 -5.61394,2.92078 -11.33553,5.62869 -16.95511,8.53914 -4.90409,2.71351 -9.93203,5.25923 -14.296,8.82642 -3.97368,3.61833 -7.86853,7.27922 -11.16242,11.54802 -4.17544,5.5272 -7.47057,11.69436 -10.28226,18.01234 0,0 -2.82356,-0.13101 -2.82356,-0.13101 z" />
    <path
       style="fill:#000000;fill-opacity:1;stroke:#000000;stroke-width:10;stroke-miterlimit:4;stroke-opacity:1;stroke-dasharray:none"
       id="path2931"
       d="m 153.5558,635.98039 c 2.92732,-10.12156 6.66793,-19.97128 10.65776,-29.71365 5.05078,-12.50573 10.22773,-24.9667 16.65959,-36.83252 4.49813,-6.24107 7.14467,-13.78569 12.24221,-19.5933 6.05454,-2.53228 6.85905,7.84241 7.38653,11.3229 1.69472,8.55327 2.72994,17.20986 4.06991,25.8222 1.25531,8.70499 3.15666,17.29191 4.46161,25.99153 0.79757,3.26445 2.1147,6.37298 3.32401,9.50212 0.0695,0.045 0.13893,0.0901 0.20839,0.13515 -0.87854,-0.37908 -1.75709,-0.75815 -2.63563,-1.13723 0,0 2.84015,0.0473 2.84015,0.0473 l 0,0 c -3.15084,1.36518 -2.35841,2.18698 -3.25703,1.05904 -1.1997,-3.15033 -2.52162,-6.27543 -3.29168,-9.56482 -1.2836,-8.70148 -3.18857,-17.28588 -4.44011,-25.98989 -1.34642,-8.6128 -2.38454,-17.27086 -4.09422,-25.82277 -0.43019,-2.8036 -0.82902,-5.54449 -1.87676,-8.19915 -0.25801,-0.65375 -1.09212,-1.2498 -0.87511,-1.91828 0.2477,-0.76301 1.39723,-0.8274 1.95395,-1.40499 0.23525,-0.24407 -0.63324,0.24217 -0.94986,0.36325 -5.19507,5.70918 -7.7488,13.33614 -12.29263,19.52513 -6.45143,11.84644 -11.62819,24.29916 -16.66486,36.80201 -3.98484,9.73165 -7.72519,19.5714 -10.59934,29.69699 0,0 -2.82688,-0.091 -2.82688,-0.091 z" />
    <path
       style="fill:#000000;fill-opacity:1;stroke:#000000;stroke-width:10;stroke-miterlimit:4;stroke-opacity:1;stroke-dasharray:none"
       id="path2933"
       d="m 186.36171,602.93105 c 5.69878,-2.17058 11.32862,-4.48267 16.93964,-6.86701 0,0 2.79159,0.328 2.79159,0.328 l 0,0 c -5.6126,2.37716 -11.23852,4.69303 -16.92492,6.89136 0,0 -2.80631,-0.35235 -2.80631,-0.35235 z" />
    <path
       style="fill:#000000;fill-opacity:1;stroke:#000000;stroke-width:10;stroke-miterlimit:4;stroke-opacity:1;stroke-dasharray:none"
       id="path2935"
       d="m 258.55549,577.61167 c -0.42157,8.30155 0.33544,16.50336 1.28165,24.73508 0.93812,6.51528 3.67156,12.43836 6.3493,18.36976 2.1582,4.51974 5.36599,8.13979 8.95804,11.55254 -1.09692,-0.39363 3.39307,1.51383 2.73509,0.8254 -0.33085,-0.34616 -1.35793,0.15398 -1.39972,-0.32303 -0.0453,-0.51729 0.91945,-0.507 1.29562,-0.86497 0.68353,-0.65048 1.83927,-2.57566 2.28473,-3.27055 3.4094,-7.07147 5.44798,-14.66224 7.66702,-22.16053 2.79933,-9.07913 4.99009,-18.32212 7.66776,-27.43389 1.55469,-3.8567 1.62738,-8.29989 3.39459,-12.06266 0.53223,-0.86012 1.09405,-1.65936 1.55589,-2.55913 0,0 2.84064,0.13199 2.84064,0.13199 l 0,0 c -0.447,0.91412 -0.99426,1.70706 -1.55787,2.55464 -1.83456,3.71156 -1.84253,8.19428 -3.43084,12.01562 -2.69985,9.10642 -4.87831,18.35433 -7.6814,27.43356 -2.21817,7.52178 -4.25719,15.13008 -7.63285,22.2405 -2.69809,4.27481 -5.22516,6.51413 -10.56104,3.70171 -3.59252,-3.44866 -6.7969,-7.1119 -8.94954,-11.66178 -2.68987,-5.95573 -5.41193,-11.9127 -6.33626,-18.45718 -0.94441,-8.24302 -1.69009,-16.45464 -1.30608,-24.76708 0,0 2.82527,0 2.82527,0 z" />
    <path
       style="fill:#000000;fill-opacity:1;stroke:#000000;stroke-width:10;stroke-miterlimit:4;stroke-opacity:1;stroke-dasharray:none"
       id="path2937"
       d="m 422.20972,576.07903 c -7.80777,2.88346 -14.93897,6.96254 -21.75322,11.67739 -6.16516,4.23773 -8.6598,10.65564 -9.9599,17.71968 -0.41607,6.10006 1.41668,11.68312 5.04814,16.53343 2.43479,2.4256 5.51473,3.6084 8.98877,3.0961 0.18673,-0.0275 0.12517,-0.40606 0.29826,-0.48135 1.02478,-0.44576 2.12579,-0.69028 3.18868,-1.03542 6.56672,-2.88644 12.06594,-7.60708 17.68075,-11.97014 2.39639,-2.12444 6.5015,-5.64458 4.30663,-9.13863 -2.5444,-1.55947 -5.1788,-2.84662 -8.0917,-3.50357 -1.31413,-0.40486 -5.67874,-0.0411 -2.83644,-1.88479 3.96145,-2.61816 8.59314,-3.549 13.20806,-4.23974 7.13474,-0.64333 11.25558,1.67048 13.4602,8.35392 1.39975,6.03438 1.41677,12.26597 1.47771,18.42721 10e-4,0.73486 0.002,1.46972 0.004,2.20458 0,0 -2.82779,10e-6 -2.82779,10e-6 l 0,0 c 0.001,-0.73402 0.002,-1.46805 0.003,-2.20207 -0.0488,-6.13172 -0.0668,-12.33654 -1.47519,-18.33876 -1.75507,-5.17774 -3.11143,-6.31304 -8.17908,-7.96822 -0.10698,-0.0349 0.21929,-0.0507 0.32893,-0.0761 -4.58981,0.66074 -9.23284,1.52865 -13.17139,4.13627 -2.65917,1.34676 1.57837,0.5088 2.81727,1.20897 2.91408,0.71154 5.67508,1.98242 8.12199,3.73012 2.09727,3.73135 -1.72223,7.2491 -4.34268,9.54706 -5.6425,4.36181 -11.13753,9.10817 -17.69388,12.0647 -6.04696,2.0466 -13.20788,3.10964 -18.0831,-1.75045 -3.61716,-4.94706 -5.47601,-10.58856 -5.04561,-16.76422 1.30389,-7.11913 3.79314,-13.64017 9.98725,-17.93845 6.82048,-4.72347 13.92924,-8.83439 21.73402,-11.75987 0,0 2.80631,0.35236 2.80631,0.35236 z" />
    <path
       style="fill:#000000;fill-opacity:1;stroke:#000000;stroke-width:10;stroke-miterlimit:4;stroke-opacity:1;stroke-dasharray:none"
       id="path2939"
       d="m 574.87992,612.50574 c 5.54393,1.18984 11.11897,0.36161 16.61036,-0.68549 7.69441,-2.80365 12.59078,-3.89538 20.8093,-3.85063 5.62545,0.63621 10.35393,3.51298 14.76324,6.87875 3.83668,4.09081 8.87094,6.25329 13.81146,8.64506 1.0872,1.22987 8.71988,2.9879 2.65206,1.45093 0,0 2.84399,0.0968 2.84399,0.0968 l 0,0 c -4.33103,1.36812 -4.37193,0.79284 -8.30168,-1.23236 -4.94953,-2.40212 -9.95253,-4.62628 -13.81485,-8.70053 -4.4159,-3.31674 -9.11933,-6.1596 -14.73871,-6.70165 -5.28052,0.29653 -10.19441,2.23247 -15.23851,3.8008 -7.29065,1.41458 -14.83608,2.02661 -22.1982,0.69471 0,0 2.80154,-0.39641 2.80154,-0.39641 z" />
    <path
       style="fill:#000000;fill-opacity:1;stroke:#000000;stroke-width:10;stroke-miterlimit:4;stroke-opacity:1;stroke-dasharray:none"
       id="path2941"
       d="m 500.59659,612.86953 c 7.87144,2.33309 15.69478,4.72333 23.7302,6.44424 0,0 -2.78431,0.38062 -2.78431,0.38062 l 0,0 c -8.03872,-1.74259 -15.86914,-4.14867 -23.7522,-6.4725 0,0 2.80631,-0.35236 2.80631,-0.35236 z" />
    <path
       style="fill:#000000;fill-opacity:1;stroke:#000000;stroke-width:10;stroke-miterlimit:4;stroke-opacity:1;stroke-dasharray:none"
       id="path2943"
       d="m 700.26,613.6027 c 5.32243,4.47922 11.02865,8.3459 17.54864,10.80341 0,0 -2.79428,0.33872 -2.79428,0.33872 l 0,0 c -6.51499,-2.51571 -12.221,-6.41939 -17.57101,-10.88906 0,0 2.81665,-0.25307 2.81665,-0.25307 z" />
    <path
       style="fill:#000000;fill-opacity:1;stroke:#000000;stroke-width:10;stroke-miterlimit:4;stroke-opacity:1;stroke-dasharray:none"
       id="path2945"
       d="m 776.72279,614.34726 c 3.06658,6.10001 6.34705,11.96025 10.49929,17.38685 0,0 -2.79738,0.18254 -2.79738,0.18254 l 0,0 c -4.14568,-5.45196 -7.41989,-11.34132 -10.52548,-17.43838 0,0 2.82357,-0.13101 2.82357,-0.13101 z" />
    <path
       style="fill:#000000;fill-opacity:1;stroke:#000000;stroke-width:10;stroke-miterlimit:4;stroke-opacity:1;stroke-dasharray:none"
       id="path2947"
       d="m 829.30134,557.3154 c -4.19845,8.55288 -5.11966,17.76175 -5.45232,27.13022 -0.30416,8.8237 1.07611,17.58348 3.15117,26.12839 1.66393,5.14396 3.45714,10.5906 8.00257,13.84663 0.53557,0.16108 1.0939,0.26007 1.60672,0.48323 0.34191,0.1488 -1.35263,0.006 -1.08856,-0.25773 0.47001,-0.46854 1.30969,-0.27879 1.91019,-0.56134 0.75546,-0.35545 1.46601,-0.81502 2.11948,-1.33468 1.84126,-1.46424 2.54011,-2.67417 3.9752,-4.57949 5.24255,-7.63215 8.1633,-16.30311 10.17718,-25.25214 1.36063,-8.32989 3.14821,-16.5711 4.15591,-24.95635 0.0974,-0.96824 0.1947,-1.93648 0.29204,-2.90473 0,0 2.81807,0.0286 2.81807,0.0286 l 0,0 c -0.0998,0.96996 -0.1996,1.93993 -0.29941,2.90989 -1.01545,8.39485 -2.81859,16.64328 -4.17519,24.98438 -2.01896,8.98351 -4.93264,17.68793 -10.16184,25.37058 -3.44111,4.65296 -7.78052,8.87411 -14.14666,6.33456 -4.50103,-3.39026 -6.33653,-8.83238 -7.9922,-14.0447 -2.0686,-8.57109 -3.43872,-17.35828 -3.13359,-26.20495 0.33164,-9.38691 1.2436,-18.62713 5.41436,-27.21133 0,0 2.82688,0.091 2.82688,0.091 z" />
    <path
       style="fill:#000000;fill-opacity:1;stroke:#000000;stroke-width:10;stroke-miterlimit:4;stroke-opacity:1;stroke-dasharray:none"
       id="path2949"
       d="m 1036.7564,518.81753 c 3.1282,-6.82951 6.3097,-13.63236 9.4726,-20.44537 2.7836,-4.95592 5.8564,-9.73739 8.5328,-14.75316 3.0962,-5.44228 5.66,-11.15861 8.8895,-16.52504 3.2228,-5.79466 6.68,-11.44361 10.0682,-17.13984 3.1438,-4.63002 6.2795,-9.24753 9.8741,-13.54225 3.9179,-4.12508 8.1152,-7.8856 12.4723,-11.53616 5.2862,-4.85718 11.4029,-8.57509 17.5709,-12.1736 5.9312,-3.94309 12.1992,-7.22323 18.6272,-10.25172 6.3441,-2.72123 13.0698,-4.42688 19.6882,-6.34349 7.121,-1.86366 14.1616,-3.97229 21.3984,-5.35363 6.3753,-1.12938 12.8515,-1.35632 19.3093,-1.47 8.293,-0.38847 16.5174,0.27508 24.7375,1.29054 9.2569,1.52919 18.3509,3.84601 27.2718,6.73324 11.2867,4.06458 22.2683,8.99526 32.7933,14.74369 10.1904,6.41118 20.626,12.49455 30.3221,19.64466 9.9479,6.7002 17.5457,15.73675 23.5371,26.01444 5.308,10.44125 10.0593,21.1514 14.8527,31.83438 4.0576,8.10546 7.9977,16.25834 10.3732,25.02606 1.7422,7.90213 1.9164,16.0187 2.0553,24.07467 -0.3404,6.35795 2.3425,8.24197 -4.4645,5.76653 0,0 2.8324,-0.17157 2.8324,-0.17157 l 0,0 c -3.5413,1.93292 -1.2985,1.49349 -1.1566,0.0569 0.1851,-1.87328 -0.2231,-3.77636 -0.019,-5.64716 -0.1322,-8.03295 -0.3031,-16.12723 -2.0496,-24.00519 -2.3755,-8.75054 -6.3211,-16.88453 -10.3545,-24.98296 -4.7787,-10.67825 -9.5264,-21.37976 -14.8434,-31.80488 -5.9983,-10.24228 -13.6032,-19.22476 -23.5315,-25.90124 -9.7033,-7.12211 -20.1135,-13.22481 -30.309,-19.60816 -10.5341,-5.72235 -21.5092,-10.65731 -32.8035,-14.69018 -8.9255,-2.86527 -18.0203,-5.18213 -27.2811,-6.67866 -6.427,-0.793 -12.667,-1.80715 -19.1833,-1.25979 -6.4556,0.10614 -12.93,0.31605 -19.3067,1.42206 -7.2403,1.35903 -14.2745,3.47 -21.3957,5.32686 -6.6075,1.92757 -13.3296,3.60832 -19.6772,6.30013 -6.4227,3.03278 -12.7171,6.25752 -18.6321,10.22648 -6.1565,3.59153 -12.2847,7.27108 -17.5567,12.12707 -4.3454,3.64562 -8.5421,7.38371 -12.4637,11.48727 -3.595,4.28053 -6.727,8.88509 -9.8789,13.49634 -3.3826,5.70003 -6.854,11.3413 -10.0681,17.1417 -3.2371,5.35651 -5.7899,11.07209 -8.8831,16.51026 -2.6642,5.01844 -5.7296,9.80017 -8.5382,14.73759 -3.1643,6.81297 -6.3754,13.60363 -9.459,20.45414 0,0 -2.8235,-0.131 -2.8235,-0.131 z" />
    <path
       style="fill:#000000;fill-opacity:1;stroke:#000000;stroke-width:10;stroke-miterlimit:4;stroke-opacity:1;stroke-dasharray:none"
       id="path2951"
       d="m 1143.1576,510.8686 c 5.7921,-4.38158 10.8766,-9.54189 16.1925,-14.46099 4.1539,-4.4622 8.2884,-8.92739 12.3263,-13.4974 5.1399,-5.87478 9.9175,-12.04953 15.0518,-17.93449 5.0884,-6.35249 11.3648,-11.3896 17.861,-16.1988 7.7823,-5.75007 16.6105,-9.68143 25.5496,-13.23063 10.9448,-4.23566 22.2857,-6.63534 33.9047,-7.966 14.415,-1.21803 28.8975,-1.35496 43.3461,-0.87054 13.7411,0.53467 27.3179,2.61698 40.8717,4.79179 13.117,2.01915 25.5049,6.71124 37.6257,11.93274 10.4177,4.6752 19.7917,11.33797 28.0084,19.21807 6.3508,6.75279 12.8113,13.44278 18.1832,21.01546 5.2797,6.93318 8.7369,14.89681 12.3342,22.75958 3.4384,6.91565 5.4277,14.32068 7.6565,21.66337 1.7985,5.00834 1.9757,10.53991 4.6675,15.20863 1.883,0.68209 -1.4504,-0.006 -1.834,-0.51184 -0.4033,-0.53168 0.2141,-1.31734 0.3212,-1.97602 0,0 2.8295,0.0438 2.8295,0.0438 l 0,0 c -0.3161,2.11114 -0.7868,4.92635 -4.151,2.58957 -2.6037,-4.73207 -2.8731,-10.23021 -4.6428,-15.27148 -2.2159,-7.33382 -4.2148,-14.72099 -7.6454,-21.62597 -3.5854,-7.85141 -7.0578,-15.78805 -12.3293,-22.70678 -5.3757,-7.54795 -11.8238,-14.22959 -18.1691,-20.96331 -8.2218,-7.83985 -17.5722,-14.48074 -27.9816,-19.12104 -12.1163,-5.20411 -24.5014,-9.86574 -37.6098,-11.86584 -13.5515,-2.17406 -27.1297,-4.22969 -40.8679,-4.76073 -12.5856,-0.94398 -25.2956,0.15633 -37.8681,0.85356 -11.6111,1.30727 -22.9432,3.67519 -33.8838,7.8946 -8.9247,3.53522 -17.7495,7.43163 -25.5259,13.16026 -6.4856,4.79724 -12.7783,9.79452 -17.8564,16.13845 -5.1371,5.87998 -9.9133,12.05188 -15.0371,17.93717 -4.0423,4.57878 -8.1845,9.04541 -12.3328,13.52543 -5.3209,4.91587 -10.4042,10.07644 -16.1782,14.48245 0,0 -2.8167,-0.25306 -2.8167,-0.25306 z" />
    <path
       style="fill:#000000;fill-opacity:1;stroke:#000000;stroke-width:10;stroke-miterlimit:4;stroke-opacity:1;stroke-dasharray:none"
       id="path2953"
       d="m 1527.9772,269.36148 c -0.941,-0.038 -1.8939,-0.26745 -2.8231,-0.11407 -0.2582,0.0426 -0.2128,0.51714 -0.4369,0.65215 -1.072,0.64576 -2.3086,0.98961 -3.3752,1.64423 -3.7283,2.28816 -5.9925,5.45175 -8.3361,9.03298 -4.8321,9.37762 -5.1383,19.71153 -2.5668,29.75427 3.4281,11.20581 11.6687,19.20024 20.6646,26.18542 2.8508,2.22522 18.799,11.32496 21.5898,7.07055 0.8916,-0.45768 1.7833,-0.91535 2.6749,-1.37303 0,0 2.8002,0.30566 2.8002,0.30566 l 0,0 c -0.896,0.48098 -1.7919,0.96196 -2.6878,1.44294 -12.2061,1.61684 -16.8915,-0.0599 -27.1461,-7.19367 -9.0206,-7.04411 -17.254,-15.1058 -20.6811,-26.36829 -2.571,-10.11823 -2.2673,-20.52361 2.5591,-29.98502 4.9105,-7.60538 10.8665,-12.71787 20.5661,-11.45053 0,0 -2.8016,0.39641 -2.8016,0.39641 z" />
    <path
       style="fill:#000000;fill-opacity:1;stroke:#000000;stroke-width:10;stroke-miterlimit:4;stroke-opacity:1;stroke-dasharray:none"
       id="path2955"
       d="m 1495.3563,189.06028 c -1.6775,14.25086 -3.9692,28.39821 -6.7607,42.47102 -4.3117,20.84098 -9.4955,41.48155 -15.23,61.97215 -5.018,15.17293 -10.5452,30.38309 -20.2994,43.18631 -1.1794,1.08128 -2.3588,2.16255 -3.5382,3.24383 0,0 -2.7837,-0.23257 -2.7837,-0.23257 l 0,0 c 1.1833,-1.06421 2.3666,-2.12842 3.5498,-3.19264 9.8011,-12.74161 15.3211,-27.93693 20.3538,-43.07917 5.7427,-20.48057 10.9297,-41.11259 15.2173,-61.95126 2.7776,-14.06605 5.0686,-28.20603 6.6664,-42.45775 0,0 2.8247,0.0401 2.8247,0.0401 z" />
    <path
       style="fill:#000000;fill-opacity:1;stroke:#000000;stroke-width:10;stroke-miterlimit:4;stroke-opacity:1;stroke-dasharray:none"
       id="path2957"
       d="m 1407.6381,332.22156 c -9.0058,-0.97842 -17.754,-2.99806 -25.9996,-6.75482 -7.437,-5.18158 -10.9171,-9.93671 -8.3183,-19.05608 3.8832,-9.59077 12.2906,-15.30808 21.0868,-19.98752 9.1624,-4.16601 18.2146,-4.94886 26.7435,1.02645 6.6015,6.92618 7.9567,16.28301 7.2978,25.45419 -1.4668,9.27391 -5.6541,17.23129 -12.9677,23.08051 -7.5307,4.63223 -14.0527,5.8149 -21.4716,0.16208 0,0 2.8004,-0.26039 2.8004,-0.26039 l 0,0 c 6.6571,4.91561 8.6379,4.05461 15.8792,-0.15385 7.3215,-5.74728 11.4947,-13.63628 12.9685,-22.84837 0.6524,-9.07812 -0.6796,-18.3686 -7.2998,-25.16337 -8.0593,-5.48357 -11.9918,-5.04046 -21.1786,-0.99553 -8.7595,4.60586 -17.1592,10.25152 -21.0517,19.76457 -2.6147,8.96987 0.9532,13.6383 8.2909,18.65749 8.2594,3.71594 17.015,5.70022 26.0164,6.67236 0,0 -2.7962,0.40228 -2.7962,0.40228 z" />
    <path
       style="fill:#000000;fill-opacity:1;stroke:#000000;stroke-width:10;stroke-miterlimit:4;stroke-opacity:1;stroke-dasharray:none"
       id="path2959"
       d="m 1395.3541,157.97097 c -2.4743,15.01296 -7.5473,29.39206 -12.1168,43.85257 -6.114,19.75146 -12.0242,39.53439 -19.1339,58.95458 -5.6003,14.76388 -11.586,29.41288 -19.1715,43.27783 -4.0652,7.05606 -7.1642,12.24804 -15.7739,12.77031 0,0 -2.78,-0.42686 -2.78,-0.42686 l 0,0 c 8.6397,-0.29215 11.7001,-5.44715 15.7833,-12.48259 7.6144,-13.84215 13.6071,-28.48217 19.2198,-43.23432 7.1164,-19.41383 13.0346,-39.18992 19.1339,-58.94216 4.5479,-14.44162 9.6135,-28.80296 12.0188,-43.80443 0,0 2.8203,0.0351 2.8203,0.0351 z" />
    <path
       style="fill:#000000;fill-opacity:1;stroke:#000000;stroke-width:10;stroke-miterlimit:4;stroke-opacity:1;stroke-dasharray:none"
       id="path2961"
       d="m 1238.135,277.21095 c 9.8579,-2.5296 19.9587,-3.96104 30.1296,-4.08069 12.0601,0.71085 19.0496,0.97738 24.7957,12.35111 2.9663,11.61056 -3.0351,22.28711 -8.6327,32.0753 -8.172,12.52167 -16.6806,20.94119 -30.0629,27.57758 0,0 -2.7615,-0.30863 -2.7615,-0.30863 l 0,0 c 13.4117,-6.56632 21.8767,-14.90781 30.0659,-27.41245 5.5487,-9.68942 11.5614,-20.30065 8.5891,-31.79985 -4.6534,-9.08525 -9.4743,-10.3379 -19.2418,-12.0499 -10.1533,0.0735 -20.2379,1.50095 -30.081,4.01151 0,0 -2.8004,-0.36398 -2.8004,-0.36398 z" />
    <path
       style="fill:#000000;fill-opacity:1;stroke:#000000;stroke-width:10;stroke-miterlimit:4;stroke-opacity:1;stroke-dasharray:none"
       id="path2969"
       d="m 1357.1855,351.63861 c -3.8586,6.69644 -8.7451,12.71375 -13.3873,18.8674 -3.0328,3.97349 -6.0296,7.98301 -8.7227,12.19681 -1.7391,3.18369 -3.3938,6.39616 -5.107,9.59855 -1.3006,2.68046 -3.0043,5.14237 -4.7491,7.54923 -1.396,1.88423 -0.636,1.37359 -3.8111,-0.22733 -0.026,-2.91383 0,-5.82792 0.014,-8.7418 0,-2.70857 0.027,-5.41733 0.01,-8.1259 0.9482,0.49662 2.1343,0.6891 2.8445,1.48985 0.1599,0.18021 0,8.31855 0,9.09285 0,4.2492 6e-4,8.4984 6e-4,12.7476 0.8449,3.21304 0.9423,7.01258 2.6842,9.90449 -1.0435,0.19809 2.6718,1.30323 2.0875,0.83413 -0.4003,-0.32137 -1.5511,0.0683 -1.4759,-0.43952 0.088,-0.59303 1.1134,-0.44889 1.6477,-0.72074 1.4094,-0.71705 2.7594,-1.5456 4.1517,-2.29526 4.3423,-2.51297 8.4567,-5.36067 12.837,-7.81207 1.4959,-1.10961 2.9772,-2.38262 3.6087,-4.17472 0,0 2.8441,0.0925 2.8441,0.0925 l 0,0 c -0.605,1.87311 -2.1084,3.20288 -3.6372,4.38255 -4.3942,2.43623 -8.5147,5.27422 -12.8452,7.81555 -3.4101,1.82694 -8.3657,5.58817 -12.0554,2.46686 -1.6765,-2.99692 -1.8686,-6.76391 -2.6779,-10.05375 2e-4,-4.2492 0,-8.49841 0,-12.74761 -5e-4,-0.77347 -0.1632,-8.91369 0,-9.09272 0.7098,-0.80062 1.8956,-0.993 2.8433,-1.48949 -0.027,2.70871 -0.01,5.41779 -0.023,8.12657 -0.014,2.9115 -0.036,5.82318 -0.012,8.73466 -4.1712,1.84598 -2.9617,1.65703 -1.868,0.054 1.7546,-2.38804 3.464,-4.83673 4.7611,-7.50862 1.7091,-3.21335 3.3803,-6.42327 5.1071,-9.62081 2.6975,-4.22356 5.7017,-8.23776 8.7442,-12.21748 4.6372,-6.14794 9.5567,-12.13765 13.3742,-18.85177 0,0 2.8194,0.16598 2.8194,0.16598 z" />
  </g>
</svg>
