<?xml version="1.0" encoding="UTF-8" standalone="no"?>
<!-- Created with Inkscape (http://www.inkscape.org/) -->
<svg
   xmlns:dc="http://purl.org/dc/elements/1.1/"
   xmlns:cc="http://creativecommons.org/ns#"
   xmlns:rdf="http://www.w3.org/1999/02/22-rdf-syntax-ns#"
   xmlns:svg="http://www.w3.org/2000/svg"
   xmlns="http://www.w3.org/2000/svg"
   xmlns:sodipodi="http://sodipodi.sourceforge.net/DTD/sodipodi-0.dtd"
   xmlns:inkscape="http://www.inkscape.org/namespaces/inkscape"
   width="744.09448819"
   height="1052.3622047"
   id="svg2"
   sodipodi:version="0.32"
   inkscape:version="0.46+devel"
   sodipodi:docname="31d1.svg"
   inkscape:output_extension="org.inkscape.output.svg.inkscape">
  <defs
     id="defs4">
    <inkscape:perspective
       sodipodi:type="inkscape:persp3d"
       inkscape:vp_x="0 : 526.18109 : 1"
       inkscape:vp_y="0 : 1000 : 0"
       inkscape:vp_z="744.09448 : 526.18109 : 1"
       inkscape:persp3d-origin="372.04724 : 350.78739 : 1"
       id="perspective10" />
  </defs>
  <sodipodi:namedview
     id="base"
     pagecolor="#ffffff"
     bordercolor="#666666"
     borderopacity="1.0"
     inkscape:pageopacity="0.0"
     inkscape:pageshadow="2"
     inkscape:zoom="0.35"
     inkscape:cx="375"
     inkscape:cy="520"
     inkscape:document-units="px"
     inkscape:current-layer="layer1"
     showgrid="false"
     inkscape:window-width="1280"
     inkscape:window-height="712"
     inkscape:window-x="-5"
     inkscape:window-y="-3" />
  <metadata
     id="metadata7">
    <rdf:RDF>
      <cc:Work
         rdf:about="">
        <dc:format>image/svg+xml</dc:format>
        <dc:type
           rdf:resource="http://purl.org/dc/dcmitype/StillImage" />
        <dc:title></dc:title>
      </cc:Work>
    </rdf:RDF>
  </metadata>
  <g
     inkscape:label="Layer 1"
     inkscape:groupmode="layer"
     id="layer1">
    <path
       style="fill:#000000;fill-opacity:1;fill-rule:nonzero;stroke:#000000;stroke-width:4.69999981;stroke-linecap:round;stroke-linejoin:round;stroke-miterlimit:4;stroke-opacity:1;stroke-dasharray:none;stroke-dashoffset:0"
       id="path2698"
       d="m 22.726111,696.78775 c 13.868146,0.098 27.736854,0.10326 41.605297,0.11655 20.809674,-0.0729 41.622682,0.32563 62.424702,-0.30654 25.14087,-1.00141 50.28329,-1.72167 75.4127,-2.98416 28.522,-1.03627 57.03257,-2.24482 85.54786,-3.46357 30.4314,-1.21594 60.8887,-1.45072 91.3401,-1.62329 31.22334,-0.22538 62.46327,-1.08309 93.65536,-2.53134 27.59454,-1.54905 55.21552,-2.45663 82.84627,-2.99596 19.49399,-0.31427 38.99057,-0.37931 58.4866,-0.43483 10.42911,-0.0135 20.85822,-0.0444 31.28734,-0.0456 4.06255,-0.16335 7.81459,-1.26803 11.5527,-2.75688 0,0 -11.11755,8.70109 -11.11755,8.70109 l 0,0 c -3.82479,1.33592 -7.69924,2.2615 -11.78384,2.29963 -10.36442,-0.0187 -20.72875,-0.0793 -31.0932,-0.0931 -19.40854,-0.0369 -38.81812,-0.0184 -58.22491,0.27478 -27.57376,0.48437 -55.1364,1.38847 -82.67393,2.91451 -31.19866,1.38845 -62.43935,2.24891 -93.66693,2.47451 -30.45858,0.17751 -60.92311,0.44652 -91.36023,1.6991 -28.53643,1.22768 -57.07059,2.41086 -85.61114,3.52258 -25.16573,1.2761 -50.34685,1.99578 -75.52336,3.03077 -20.857491,0.60974 -41.725636,0.25712 -62.590284,0.37698 -13.975389,0.0134 -27.951034,0.0192 -41.926133,0.11655 0,0 11.412578,-8.29172 11.412578,-8.29172 z" />
    <path
       style="fill:#000000;fill-opacity:1;fill-rule:nonzero;stroke:#000000;stroke-width:4.69999981;stroke-linecap:round;stroke-linejoin:round;stroke-miterlimit:4;stroke-opacity:1;stroke-dasharray:none;stroke-dashoffset:0"
       id="path2700"
       d="m 621.98249,638.53947 c 8.95915,5.48117 18.31222,10.36182 27.92198,14.59473 9.96239,4.48038 20.22494,8.243 30.24691,12.57804 5.41616,2.47377 11.45286,4.36387 16.018,8.32413 0.56999,0.89463 1.37949,1.77026 1.22365,2.95782 -0.3061,2.33267 -3.10283,4.4908 -4.898,5.57499 -5.0518,3.05101 -10.23768,5.87431 -15.35652,8.81147 -11.92048,5.09461 -24.19216,9.29656 -36.43823,13.52507 -15.08984,5.42889 -30.17119,10.86456 -45.34977,16.03816 -9.14676,2.43519 -17.91249,5.98127 -26.69393,9.46093 0,0 11.02346,-8.65746 11.02346,-8.65746 l 0,0 c 8.74512,-3.40612 17.50029,-6.78626 26.56329,-9.27685 15.17154,-5.15174 30.22399,-10.62954 45.31265,-16.0193 12.2942,-4.278 24.6582,-8.47136 36.51575,-13.8733 -19.38851,11.62514 -5.30869,4.18871 -3.2712,0.99239 0.46722,-0.73295 -0.35378,-1.55813 -0.6561,-2.03624 -4.49633,-3.7898 -10.39426,-5.59817 -15.63812,-8.0665 -10.0094,-4.32261 -20.2056,-8.20242 -30.1623,-12.65112 -9.71579,-4.3509 -19.23336,-9.23209 -28.33744,-14.75457 0,0 11.97592,-7.52239 11.97592,-7.52239 z" />
    <path
       style="fill:#000000;fill-opacity:1;fill-rule:nonzero;stroke:#000000;stroke-width:4.69999981;stroke-linecap:round;stroke-linejoin:round;stroke-miterlimit:4;stroke-opacity:1;stroke-dasharray:none;stroke-dashoffset:0"
       id="path2702"
       d="m 293.41052,870.40855 c -1.68568,-12.36097 -1.71583,-24.78729 -1.27073,-37.22406 0.5,-19.14818 1.73531,-38.25128 2.87325,-57.36796 1.32599,-23.87779 1.57868,-47.79622 1.76333,-71.7045 -0.38396,-23.55814 1.63267,-47.03071 3.39681,-70.49398 1.76195,-18.91805 4.09844,-37.78037 6.55783,-56.61913 2.28697,-15.8402 3.36789,-31.80111 3.93447,-47.78334 0.37244,-13.33498 0.35723,-26.67644 0.34447,-40.01535 -0.018,-13.33154 -0.0128,-26.66309 -0.0198,-39.99464 0.13697,-14.35003 -0.32544,-28.71011 0.32284,-43.04893 1.12237,-12.55649 1.33573,-25.18357 2.47621,-37.73354 0.80656,-9.71843 2.35594,-19.32328 3.78755,-28.95897 2.06456,-9.22764 3.42203,-18.5535 4.16101,-27.974 1.18959,-8.68437 2.34929,-17.35536 2.94613,-26.10364 0.44934,-7.54934 0.484,-15.11417 0.50164,-22.67421 0.45648,-5.55021 1.55109,-11.01864 2.247,-16.54072 0.3192,-1.70264 0.4133,-3.14691 -0.20236,-4.75971 0,0 12.41091,-6.92367 12.41091,-6.92367 l 0,0 c 0.76138,1.87541 0.97999,3.41339 0.48025,5.42152 -0.7217,5.48714 -1.76203,10.92486 -2.40291,16.42238 -0.0364,7.59395 -0.0779,15.1934 -0.5074,22.77728 -0.58254,8.76075 -1.65541,17.45383 -2.97989,26.13289 -0.6817,9.44807 -1.94725,18.82445 -4.11079,28.0582 -1.3844,9.63386 -3.0514,19.21237 -3.86914,28.9232 -1.28016,12.53317 -1.37282,25.17288 -2.59536,37.71834 -0.7265,14.31397 -0.20313,28.65649 -0.34443,42.98465 0.009,13.32534 0.0454,26.65066 0.0576,39.976 -0.007,13.36413 0.0189,26.73139 -0.38313,40.09092 -0.58172,16.03622 -1.64752,32.05175 -3.96338,47.94403 -2.50427,18.83547 -4.8396,37.7001 -6.70756,56.60994 -1.81519,23.4507 -3.92074,46.90975 -3.53772,70.46112 -0.1745,23.90695 -0.37682,47.8231 -1.61006,71.70406 -1.09232,19.08444 -2.3274,38.15323 -2.75123,57.26914 -0.39475,12.30971 -0.43122,24.62674 1.49007,36.83497 0,0 -12.49543,6.59171 -12.49543,6.59171 z" />
    <path
       style="fill:#000000;fill-opacity:1;fill-rule:nonzero;stroke:#000000;stroke-width:4.69999981;stroke-linecap:round;stroke-linejoin:round;stroke-miterlimit:4;stroke-opacity:1;stroke-dasharray:none;stroke-dashoffset:0"
       id="path2704"
       d="m 276.1413,272.63627 c 7.58629,-4.21332 15.30527,-8.17831 22.97119,-12.24396 -2.73484,1.56492 -5.40927,3.24047 -8.20451,4.69475 -1.25433,0.65259 2.38723,-1.51599 3.57351,-2.28538 4.75911,-3.08663 9.18897,-6.39867 13.59501,-9.96278 4.90648,-3.65411 8.87558,-8.3133 13.14085,-12.64326 9.43812,-8.78 13.40855,-12.64441 22.30594,-6.8747 3.92866,3.52864 6.96912,7.86887 9.68642,12.36136 2.66635,4.36913 5.31528,8.73063 8.49805,12.74508 0,0 -12.12511,7.22729 -12.12511,7.22729 l 0,0 c -3.15332,-4.10194 -5.84677,-8.50044 -8.5589,-12.90243 -2.61141,-4.30267 -5.53602,-8.49689 -9.41193,-11.76576 -1.41245,-0.8743 -2.69847,-1.85574 -4.44996,-1.79312 -0.48069,0.0172 -1.81282,0.56115 -1.41269,0.2942 14.43585,-9.63102 12.63239,-8.24525 8.50863,-4.67609 -4.45147,4.18786 -8.16728,9.1639 -13.15536,12.7959 -10.29092,8.23351 -20.98271,15.67476 -32.89595,21.5471 -7.73094,4.04954 -15.43502,8.14483 -23.10377,12.31162 0,0 11.03858,-8.82982 11.03858,-8.82982 z" />
    <path
       style="fill:#000000;fill-opacity:1;fill-rule:nonzero;stroke:#000000;stroke-width:4.69999981;stroke-linecap:round;stroke-linejoin:round;stroke-miterlimit:4;stroke-opacity:1;stroke-dasharray:none;stroke-dashoffset:0"
       id="path2706"
       d="m 315.28727,720.65953 c -7.20529,4.31381 -14.78506,7.73648 -22.53889,10.90079 -7.94146,2.82346 -16.3014,4.92184 -24.71141,5.63336 -8.26995,0.57022 -16.36567,-0.33157 -24.02701,-3.5099 -7.29771,-3.3757 -12.04925,-9.39324 -15.36633,-16.53042 -2.995,-7.29281 -3.32647,-14.85808 -1.93653,-22.52186 1.89,-7.44401 6.65831,-13.00008 12.3783,-17.83482 10.66464,-8.00702 22.46475,-14.62281 34.53844,-20.26614 7.66684,-3.89937 15.85808,-6.70926 24.13283,-9.01308 6.17109,-1.52581 12.79996,-0.99867 18.96213,0.38228 5.74994,1.5528 11.40274,3.59878 16.89056,5.92728 4.96398,2.25337 8.73402,6.01908 12.54123,9.77021 4.00438,3.30092 7.11071,7.07309 9.75173,11.50342 2.88267,5.00763 3.80442,10.6457 4.35463,16.30651 0.53644,4.6597 -0.50249,9.25885 -2.36158,13.51057 -1.8786,3.63561 -4.54467,6.64 -7.76756,9.11533 -7.75515,5.93425 -15.29671,9.98609 -24.66517,10.8287 -5.03271,0.51099 -9.97036,0.20074 -14.93751,-0.63872 0,0 11.53274,-8.10109 11.53274,-8.10109 l 0,0 c 4.9035,0.74845 9.80475,0.87185 14.74561,0.31439 2.24927,-0.27891 4.44988,-0.56248 6.59644,-1.33471 0.63841,-0.22967 2.44974,-1.1536 1.87355,-0.79538 -6.15502,3.82666 -14.65667,8.38072 -8.29448,4.95024 3.23377,-2.32998 6.0268,-4.94972 8.03381,-8.46697 1.97904,-3.99363 3.18647,-8.36936 2.74085,-12.86509 -0.4828,-5.45925 -1.27678,-10.91661 -4.06207,-15.7472 -2.5993,-4.31232 -5.68863,-7.95505 -9.58006,-11.19545 -3.66691,-3.65901 -7.3936,-7.22973 -12.23809,-9.32595 -5.41858,-2.28647 -11.01374,-4.28981 -16.71981,-5.70603 -6.10795,-1.13451 -12.47926,-1.61344 -18.52025,0.13134 -8.20694,2.39832 -16.32169,5.23225 -23.93543,9.15806 -3.83282,1.87714 -17.90076,10.3081 -0.44596,-0.33722 6.42774,-3.92014 -16.97492,9.37201 -10.14835,6.65459 -5.7363,4.52955 -10.62942,9.75253 -12.75724,16.94212 -1.57848,7.37257 -1.31924,14.66947 1.51221,21.74803 3.16399,6.85823 7.74282,12.53322 14.82208,15.61901 7.56495,2.91727 15.52477,3.67449 23.60061,2.98809 8.33784,-0.94446 16.62593,-2.972 24.46916,-5.95706 7.78766,-3.17356 15.27536,-6.87923 22.5754,-11.06705 0,0 -11.03858,8.82982 -11.03858,8.82982 z" />
    <path
       style="fill:#000000;fill-opacity:1;fill-rule:nonzero;stroke:#000000;stroke-width:4.69999981;stroke-linecap:round;stroke-linejoin:round;stroke-miterlimit:4;stroke-opacity:1;stroke-dasharray:none;stroke-dashoffset:0"
       id="path2708"
       d="m 298.07894,700.24164 c -6.57623,1.54026 -12.5273,5.23659 -19.26925,6.01146 -4.63978,-0.33563 -6.58771,-3.09025 -7.61258,-7.3035 -0.22401,-4.4719 1.59044,-8.41934 4.21194,-11.92034 5.91612,-6.19278 13.78889,-10.99467 22.23656,-12.70455 3.63991,-0.68787 6.68507,1.02081 8.97505,3.73072 1.99046,3.21537 2.30052,6.92635 2.51336,10.60677 0.21721,3.46783 -0.76315,6.95292 -2.92135,9.66846 -5.96083,6.22086 -14.00722,10.61661 -22.48415,12.04159 -4.14279,0.7926 -7.55385,-1.85791 -9.9117,-5.00067 -2.30224,-4.61345 0.3908,-8.88752 2.60939,-12.9567 6.39508,-9.12293 17.31857,-14.0536 27.1264,-18.65844 4.72965,-2.18069 8.68286,-2.42179 12.63198,1.06611 3.69245,4.37197 2.06527,9.55268 -0.20897,14.15844 -6.01934,10.23471 -16.42293,14.26311 -26.56353,19.80281 -4.48247,1.77014 -9.26519,2.30495 -12.94116,-1.19804 -2.47917,-3.67932 -2.88436,-7.98714 -2.52294,-12.2966 1.05428,-5.31112 3.73159,-9.35422 8.12423,-12.41898 7.4153,-4.60871 15.945,-13.10413 24.77962,-8.21705 4.64258,2.32038 6.26891,6.67245 7.28081,11.45143 0.48898,4.39322 -0.82864,7.93711 -3.81533,11.05877 -6.24276,5.41412 -14.19336,11.99604 -22.46861,8.73743 -3.73588,-1.77829 -6.28329,-4.96852 -7.03893,-9.00143 -0.36987,-4.88236 2.48184,-8.67833 5.78594,-11.93543 8.19894,-7.14865 16.64493,-10.15989 26.77094,-10.95231 5.37005,0.49526 7.95145,1.59421 8.49178,7.2631 -0.64075,5.73631 -4.23229,10.58633 -8.06234,14.69793 -7.48011,6.86452 -16.6471,12.31673 -26.6515,14.30007 -4.22798,0.0673 -7.41237,-1.46446 -9.29593,-5.25475 -1.79879,-4.1978 -0.63508,-8.38641 1.35311,-12.27332 5.52362,-8.11686 14.80717,-12.50145 23.70036,-16.23104 4.47408,-1.18278 8.49988,-0.17955 11.64614,3.18151 3.13757,3.74655 2.34713,8.11694 0.43982,12.23909 -4.36241,8.30652 -13.67297,13.14509 -22.57054,15.39672 -4.60268,0.15654 -6.90134,-2.32752 -7.73955,-6.63996 0.0949,-4.71938 2.3234,-8.98408 4.91264,-12.81177 0,0 12.97532,-5.62986 12.97532,-5.62986 l 0,0 c -2.62921,3.50966 -4.76054,7.40246 -5.38738,11.80341 0.53391,3.7246 2.60407,5.36076 6.44279,4.6369 4.60697,-1.56097 12.93793,-6.21825 -6.14382,4.36064 -0.67506,0.37426 1.27775,-0.87758 1.8377,-1.40884 1.46135,-1.3865 1.77066,-2.18683 2.79049,-3.90841 2.03062,-3.41755 3.15982,-7.33397 0.35871,-10.65522 -2.97587,-2.91382 -6.77764,-3.21344 -10.62515,-1.79864 -6.14942,2.87853 -1.63386,0.85152 7.52701,-4.66683 0.65983,-0.39747 -1.40646,0.64084 -2.05619,1.0546 -2.13713,1.36101 -3.63952,3.38664 -5.2088,5.32471 -2.11338,3.33472 -3.43668,7.17259 -1.92845,11.0217 1.58768,3.2928 4.70384,4.13545 8.22006,3.70711 3.77616,-0.92341 8.59574,-3.33248 7.23238,-2.43592 -18.37221,12.08177 -8.49957,5.15591 -4.8528,2.09122 3.87127,-3.68328 7.33729,-8.29541 8.51637,-13.59311 -0.14905,-4.99242 -2.75155,-5.20088 -7.27901,-5.37108 -2.57868,0.23909 -5.15613,0.47393 -7.66551,1.15893 -0.81885,0.22352 -3.1149,1.28413 -2.41727,0.80063 2.84243,-1.96993 14.77048,-8.76099 7.74927,-4.75028 -3.24142,2.69155 -6.36877,6.22806 -6.34528,10.66371 0.36403,3.60509 2.94586,6.29198 6.23788,7.66604 1.75621,0.47077 3.34539,0.76045 5.13358,0.16963 0.54305,-0.17943 2.04548,-1.01751 1.55859,-0.71744 -14.2424,8.77739 -13.29812,8.17217 -9.02897,5.21268 3.02182,-3.14342 4.73135,-5.06817 4.44994,-9.84749 -0.87315,-4.44079 -2.25361,-8.31319 -6.64963,-10.33092 -1.98636,-0.85012 -3.52496,-1.13595 -5.68889,-0.65364 -0.73407,0.16361 -2.78239,1.07977 -2.1569,0.66216 2.58818,-1.72798 14.89679,-8.8293 8.0619,-4.70819 -4.4963,2.67484 -7.35346,6.08657 -8.64321,11.27553 -0.52453,3.80543 -0.24175,7.80076 1.90655,11.10209 3.50719,2.88826 8.10744,1.48789 11.94322,-0.0746 -20.43121,12.48261 -0.44023,1.45072 2.67497,-5.27854 2.15018,-3.84569 4.38791,-8.57315 1.0379,-12.42935 -3.72754,-2.93525 -7.56197,-1.70492 -11.62609,0.20369 -5.11078,2.51711 -6.20809,3.14606 6.16647,-3.93141 1.0097,-0.57748 -1.97471,1.23025 -2.94618,1.86995 -2.79835,1.84266 -2.5545,1.53703 -4.69942,3.99962 -0.61578,0.70697 -1.17626,1.46026 -1.76438,2.19039 -1.99041,3.44759 -4.95602,7.38446 -3.31514,11.47182 2.2794,2.91916 5.26545,4.6317 9.03302,3.69547 2.442,-0.55114 7.79721,-3.14672 5.74323,-1.85353 -19.17131,12.07033 -10.97748,7.2452 -7.63948,3.78804 2.51495,-2.02571 3.50007,-5.43398 3.42687,-8.60756 -0.1575,-3.35822 -0.29348,-6.81045 -2.06981,-9.77392 -2.19699,-2.41334 -4.8876,-3.30637 -8.10264,-2.4796 -5.4176,1.37469 -10.69642,5.24097 6.79911,-5.064 2.57703,-1.51789 -6.91311,3.69326 -4.74028,3.62656 -2.67823,3.10471 -4.56737,6.58124 -4.75424,10.76623 0.77155,3.68619 2.34914,5.72131 6.42053,5.55161 6.61118,-1.27875 12.64306,-4.51971 19.14888,-6.22175 0,0 -11.16953,8.67757 -11.16953,8.67757 z" />
    <path
       style="fill:#000000;fill-opacity:1;fill-rule:nonzero;stroke:#000000;stroke-width:4.69999981;stroke-linecap:round;stroke-linejoin:round;stroke-miterlimit:4;stroke-opacity:1;stroke-dasharray:none;stroke-dashoffset:0"
       id="path2710"
       d="m 365.13556,748.43569 c -3.21021,4.29863 -7.18035,8.59799 -8.57196,13.89256 0.15859,3.85362 3.08581,6.38604 6.42111,7.77777 -0.0733,1.3594 5.70709,-1.86053 4.22109,-1.04442 -17.52273,9.62345 -11.78964,7.18871 -7.59497,3.23865 2.5071,-2.36216 4.29751,-5.34811 6.61138,-7.88131 15.98662,-8.26502 13.10222,-8.6518 14.95734,0.6074 0.60851,3.31342 2.72818,4.62294 5.72957,5.49574 4.64867,-1.08145 13.88217,-6.0513 -7.06464,4.49162 -1.15484,0.58125 1.87468,-1.78172 2.77893,-2.70575 2.84015,-3.19439 5.2484,-6.61725 7.25732,-10.37831 1.52862,-2.53639 2.55806,-5.27521 3.23484,-8.14453 0,0 12.77699,-6.1614 12.77699,-6.1614 l 0,0 c -0.62627,2.98013 -1.48542,5.8967 -3.10704,8.51061 -2.05274,3.82658 -4.23945,7.43344 -7.1029,10.72752 -5.32401,5.73582 -12.43983,12.22247 -20.50814,11.62825 -3.29355,-1.20432 -5.71043,-3.13648 -6.49308,-6.73118 -0.35845,-1.38252 -0.28899,-2.52402 -0.44272,-3.9178 -0.0361,-0.32777 -0.0583,-0.66332 -0.16445,-0.97552 -0.0818,-0.24061 -0.59851,-0.50972 -0.39006,-0.65511 3.75377,-2.61811 7.78604,-4.81236 11.67905,-7.21854 -2.62556,2.29443 -4.21773,5.46067 -6.67746,7.90885 -5.62556,5.7222 -13.20882,12.76151 -21.51705,11.02554 -3.79869,-1.94476 -6.84637,-5.00394 -7.33435,-9.43595 0.88701,-5.57021 5.08689,-10.04337 8.29597,-14.49836 0,0 13.00523,-5.55633 13.00523,-5.55633 z" />
    <path
       style="fill:#000000;fill-opacity:1;fill-rule:nonzero;stroke:#000000;stroke-width:4.69999981;stroke-linecap:round;stroke-linejoin:round;stroke-miterlimit:4;stroke-opacity:1;stroke-dasharray:none;stroke-dashoffset:0"
       id="path2712"
       d="m 365.25054,725.3526 c 7.85644,0.053 15.7133,0.0447 23.56984,0.0188 2.95956,-0.002 5.91908,-0.0173 8.87856,-0.0378 0,0 -11.48295,8.34286 -11.48295,8.34286 l 0,0 c -2.92476,-0.0207 -5.84956,-0.0355 -8.7744,-0.0378 -7.87384,-0.0262 -15.74799,-0.0337 -23.62173,0.0188 0,0 11.43068,-8.30488 11.43068,-8.30488 z" />
    <path
       style="fill:#000000;fill-opacity:1;fill-rule:nonzero;stroke:#000000;stroke-width:4.69999981;stroke-linecap:round;stroke-linejoin:round;stroke-miterlimit:4;stroke-opacity:1;stroke-dasharray:none;stroke-dashoffset:0"
       id="path2714"
       d="m 399.59395,702.9192 c 7.2023,1.51671 14.26228,3.34684 21.14439,5.96125 3.79057,1.99147 5.43607,5.47963 5.30877,9.63187 -0.65283,4.76418 -4.01758,8.41152 -6.95853,11.99797 -7.03121,7.17475 -16.03704,12.68425 -25.33794,16.34308 0,0 11.10816,-8.76102 11.10816,-8.76102 l 0,0 c 5.29605,-2.33716 3.11456,-1.4659 -7.94189,5.00958 -0.77646,0.45475 1.54075,-0.93083 2.2927,-1.42506 2.50391,-1.6457 4.77082,-3.54477 6.90242,-5.65119 2.83261,-3.36174 6.22007,-6.82384 7.24771,-11.19195 0.58406,-3.56938 -1.06365,-6.51276 -4.33378,-8.08059 -6.79358,-2.61424 -13.81339,-4.40235 -20.97808,-5.69301 0,0 11.54607,-8.14093 11.54607,-8.14093 z" />
    <path
       style="fill:#000000;fill-opacity:1;fill-rule:nonzero;stroke:#000000;stroke-width:4.69999981;stroke-linecap:round;stroke-linejoin:round;stroke-miterlimit:4;stroke-opacity:1;stroke-dasharray:none;stroke-dashoffset:0"
       id="path2716"
       d="m 300.63969,684.26986 c 7.23639,-12.88489 14.43503,-25.7863 22.0789,-38.4353 12.99521,-22.79766 27.85683,-44.38193 42.9229,-65.83619 17.47328,-23.80146 35.79269,-46.9633 54.15354,-70.08112 13.08507,-15.62384 26.54189,-30.95917 40.64915,-45.67098 3.04669,-3.14059 6.20901,-6.16361 9.40302,-9.15258 0,0 13.03311,-5.33527 13.03311,-5.33527 l 0,0 c -3.29919,2.98707 -6.55898,6.0176 -9.68889,9.18369 -14.32564,14.65301 -27.82952,30.1015 -41.09293,45.71465 -18.4003,23.09253 -36.73841,46.24429 -54.23972,70.03127 -15.00457,21.37269 -29.83164,42.86046 -42.67929,65.62748 -7.55876,12.54325 -14.68651,25.3323 -21.65649,38.21145 0,0 -12.8833,5.7429 -12.8833,5.7429 z" />
    <path
       style="fill:#000000;fill-opacity:1;fill-rule:nonzero;stroke:#000000;stroke-width:4.69999981;stroke-linecap:round;stroke-linejoin:round;stroke-miterlimit:4;stroke-opacity:1;stroke-dasharray:none;stroke-dashoffset:0"
       id="path2718"
       d="m 424.04533,462.13983 c 13.93359,-8.84009 28.30416,-16.96659 43.11349,-24.24379 8.95502,-3.69736 18.59805,-10.23983 28.77735,-9.48879 1.36505,0.10072 2.662,0.63863 3.993,0.95794 1.04201,0.7369 2.25732,1.27575 3.12605,2.2107 6.15845,6.62782 1.04603,17.78461 -1.50007,24.73107 -0.73466,1.73434 -1.46932,3.46869 -2.20398,5.20304 0,0 -12.64668,5.8074 -12.64668,5.8074 l 0,0 c 0.75632,-1.71897 1.51265,-3.43795 2.26897,-5.15692 2.24922,-5.89606 7.90787,-17.2582 2.24523,-23.01169 -0.77639,-0.78885 -1.87095,-1.18313 -2.80642,-1.77469 -1.2386,-0.21988 -2.45818,-0.62973 -3.71578,-0.65962 -10.08667,-0.23972 -19.42234,6.08796 -28.33695,9.81109 -2.10866,1.04614 -4.22771,2.07158 -6.32597,3.13842 -2.04153,1.03801 -7.02395,5.26826 -6.09279,3.17583 0.99707,-2.24054 4.25681,-2.43847 6.3403,-3.732 3.16403,-1.96438 -6.4444,3.73669 -9.6142,5.69175 -1.16427,0.7181 -2.31213,1.46248 -3.46819,2.19372 0,0 -13.15336,5.14654 -13.15336,5.14654 z" />
    <path
       style="fill:#000000;fill-opacity:1;fill-rule:nonzero;stroke:#000000;stroke-width:4.69999981;stroke-linecap:round;stroke-linejoin:round;stroke-miterlimit:4;stroke-opacity:1;stroke-dasharray:none;stroke-dashoffset:0"
       id="path2720"
       d="m 450.02441,545.20133 c 3.84772,6.64049 6.83408,13.69562 8.96111,21.06049 1.2558,3.85924 1.68784,7.28438 -0.65685,10.72166 -6.83564,6.21317 -18.1982,14.37201 -17.02143,2.0152 2.3686,-9.84681 8.43435,-18.2512 14.64134,-26.05281 9.56157,-11.40838 22.39546,-19.19168 35.84761,-25.33809 0.87937,-0.35175 1.75873,-0.70351 2.6381,-1.05526 0,0 -11.07729,8.72701 -11.07729,8.72701 l 0,0 c -0.8511,0.35869 -1.70221,0.71738 -2.55331,1.07608 -1.82386,0.87817 -15.3689,7.51818 4.84846,-3.26436 1.45959,-0.77844 -2.80539,1.75788 -4.14855,2.72344 -4.6975,3.37692 -9.14104,7.17372 -12.78854,11.68435 -6.18427,7.53216 -12.13008,15.73572 -14.74709,25.25735 -0.0699,0.39587 -0.68453,2.76338 -0.32997,3.57253 0.19709,0.44978 1.86591,0.001 1.44974,0.2618 -9.75886,6.11209 -15.21365,8.12279 -9.77647,6.03807 2.79444,-3.73018 2.60847,-4.92872 1.31035,-9.63347 -2.0064,-7.31195 -4.88609,-14.3324 -8.88117,-20.79969 0,0 12.28396,-6.9943 12.28396,-6.9943 z" />
  </g>
</svg>
