<?xml version="1.0" encoding="UTF-8" standalone="no"?>
<!-- Created with Inkscape (http://www.inkscape.org/) -->
<svg
   xmlns:dc="http://purl.org/dc/elements/1.1/"
   xmlns:cc="http://creativecommons.org/ns#"
   xmlns:rdf="http://www.w3.org/1999/02/22-rdf-syntax-ns#"
   xmlns:svg="http://www.w3.org/2000/svg"
   xmlns="http://www.w3.org/2000/svg"
   xmlns:sodipodi="http://sodipodi.sourceforge.net/DTD/sodipodi-0.dtd"
   xmlns:inkscape="http://www.inkscape.org/namespaces/inkscape"
   width="992.86981"
   height="988.7453"
   id="svg2"
   sodipodi:version="0.32"
   inkscape:version="0.46"
   version="1.0"
   sodipodi:docname="c16d2.svg"
   inkscape:output_extension="org.inkscape.output.svg.inkscape">
  <defs
     id="defs4">
    <inkscape:perspective
       sodipodi:type="inkscape:persp3d"
       inkscape:vp_x="0 : 526.18109 : 1"
       inkscape:vp_y="0 : 1000 : 0"
       inkscape:vp_z="744.09448 : 526.18109 : 1"
       inkscape:persp3d-origin="372.04724 : 350.78739 : 1"
       id="perspective10" />
  </defs>
  <sodipodi:namedview
     id="base"
     pagecolor="#ffffff"
     bordercolor="#666666"
     borderopacity="1.0"
     gridtolerance="10000"
     guidetolerance="10"
     objecttolerance="10"
     inkscape:pageopacity="0.0"
     inkscape:pageshadow="2"
     inkscape:zoom="0.35"
     inkscape:cx="375"
     inkscape:cy="520"
     inkscape:document-units="px"
     inkscape:current-layer="layer1"
     showgrid="false"
     inkscape:window-width="1280"
     inkscape:window-height="712"
     inkscape:window-x="-5"
     inkscape:window-y="-3" />
  <metadata
     id="metadata7">
    <rdf:RDF>
      <cc:Work
         rdf:about="">
        <dc:format>image/svg+xml</dc:format>
        <dc:type
           rdf:resource="http://purl.org/dc/dcmitype/StillImage" />
      </cc:Work>
    </rdf:RDF>
  </metadata>
  <g
     inkscape:label="Layer 1"
     inkscape:groupmode="layer"
     id="layer1"
     transform="translate(183.75457,-81.092605)">
    <path
       style="fill:#000000;fill-opacity:1;stroke:#000000;stroke-width:4;stroke-linecap:round;stroke-linejoin:round;stroke-miterlimit:4;stroke-dasharray:none;stroke-dashoffset:0;stroke-opacity:1"
       id="path2383"
       d="M -44.480203,646.70936 C -43.641554,654.72609 -41.893856,662.59544 -40.596464,670.54256 C -39.412482,678.69142 -39.251388,686.93403 -39.139039,695.15255 C -38.663107,705.68939 -39.480129,716.15463 -40.393915,726.6386 C -41.359151,737.22966 -42.590378,747.83722 -44.268375,758.34301 C -45.927452,766.80556 -46.868985,775.36746 -47.362361,783.969 C -47.709084,791.36481 -47.703866,798.77079 -47.703057,806.17289 C -47.293448,811.53749 -47.962902,816.72255 -48.923721,821.97745 C -49.94293,827.43384 -50.233538,832.98006 -50.416732,838.51574 C -50.552464,843.78787 -50.531371,849.06211 -50.527714,854.33545 C -50.180418,858.26618 -50.72179,861.93913 -51.744654,865.71305 C -51.810475,866.87171 -53.856384,869.57841 -51.877261,869.77329 C -46.364954,869.34842 -40.827136,867.5276 -35.443254,866.1736 C -19.615911,862.03394 -3.5627927,858.77951 12.40929,855.2434 C 36.504182,850.25381 60.885512,846.83687 85.351048,844.31521 C 109.57103,842.12879 133.80324,840.29996 158.10352,839.33234 C 178.89933,838.61608 199.70963,838.53428 220.51552,838.48388 C 233.41812,838.88651 246.28972,839.9246 259.16573,840.80803 C 259.97587,840.87102 260.78602,840.934 261.59616,840.99699 L 254.69798,845.92138 C 253.90461,845.85024 253.11124,845.77911 252.31787,845.70797 C 239.51993,844.72978 226.71797,843.68239 213.88532,843.3031 C 193.10966,843.33876 172.32958,843.40418 151.56397,844.12375 C 127.28741,845.10306 103.07655,846.92891 78.880067,849.11958 C 54.406675,851.67235 30.017402,855.11993 5.9242759,860.17502 C -10.109434,863.7442 -26.217977,867.05814 -42.098464,871.2647 C -47.519879,872.63537 -53.329615,874.87537 -58.948171,874.56348 C -61.33286,873.34261 -60.046015,871.44289 -59.419771,869.36608 C -58.368742,865.64874 -57.701409,862.08112 -58.080398,858.18444 C -58.084502,852.90018 -58.07848,847.61521 -57.96573,842.33195 C -57.795545,836.76184 -57.530223,831.17928 -56.535019,825.6841 C -55.584251,820.4647 -54.797811,815.33976 -55.221331,810.00304 C -55.211074,802.58322 -55.21214,795.15925 -54.879044,787.74541 C -54.394276,779.11297 -53.485985,770.51423 -51.792619,762.02563 C -50.065793,751.5413 -48.845921,740.93902 -47.864939,730.36405 C -46.959109,719.91101 -46.099253,709.48053 -46.61309,698.97422 C -46.734798,690.79657 -46.879612,682.59419 -48.032953,674.48264 C -49.297752,666.53926 -51.035095,658.67985 -51.979127,650.68759 L -44.480203,646.70936 z" />
    <path
       style="fill:#000000;fill-opacity:1;stroke:#000000;stroke-width:4;stroke-linecap:round;stroke-linejoin:round;stroke-miterlimit:4;stroke-dasharray:none;stroke-dashoffset:0;stroke-opacity:1"
       id="path2385"
       d="M -67.028629,863.79454 C -64.820059,874.84095 -68.186394,885.92984 -71.193,896.49413 C -76.640689,912.8141 -84.511243,928.15409 -92.717756,943.22469 C -101.6266,958.74947 -110.75058,974.14443 -120.1227,989.39388 C -126.99745,999.70288 -133.06833,1010.5041 -139.50285,1021.0839 C -143.92095,1028.1413 -148.40285,1035.1103 -153.63703,1041.5937 C -157.36118,1046.5406 -160.99811,1051.5495 -164.99362,1056.2833 C -170.37816,1062.836 -171.46276,1063.2737 -179.74092,1067.8379 C -181.28639,1067.026 -180.59261,1067.5875 -181.75457,1066.073 L -174.44024,1061.7014 C -173.60196,1062.6887 -174.11087,1062.4399 -173.00286,1062.6081 C -186.19918,1070.8221 -175.24729,1063.5517 -172.79265,1059.5871 C -168.74753,1054.8787 -165.06644,1049.8861 -161.38059,1044.8946 C -156.10028,1038.4514 -151.58856,1031.5157 -147.15782,1024.4694 C -140.6627,1013.8838 -134.6017,1003.0317 -127.65782,992.72337 C -118.26586,977.48583 -109.13287,962.09767 -100.20912,946.58129 C -91.990963,931.58477 -84.170805,916.29027 -78.681402,900.0506 C -75.703642,889.68219 -72.316942,878.74146 -74.46146,867.88813 L -67.028629,863.79454 z" />
    <path
       style="fill:#000000;fill-opacity:1;stroke:#000000;stroke-width:4;stroke-linecap:round;stroke-linejoin:round;stroke-miterlimit:4;stroke-dasharray:none;stroke-dashoffset:0;stroke-opacity:1"
       id="path2387"
       d="M 76.492023,592.4493 C 66.831827,600.0492 56.080767,606.74548 44.517644,610.98368 C 35.243285,614.01929 25.77111,614.47569 16.392883,611.86129 C 8.4290055,608.00065 4.8263525,600.98267 3.5965179,592.55963 C 3.3872651,581.52699 8.4751014,571.88389 14.842606,563.23299 C 25.252955,550.44223 39.055626,541.663 54.63983,536.39182 C 67.091708,533.41501 76.655209,535.4412 86.752441,543.03161 C 94.651184,550.88953 96.821094,558.57349 95.212696,569.3918 C 91.301885,581.09654 80.918274,589.03278 71.100026,595.78942 C 63.631952,600.3753 56.00307,604.66759 47.907727,608.03548 L 54.467328,602.85801 C 56.118164,602.15418 57.670396,601.14664 59.419836,600.7465 C 60.135229,600.58288 58.272219,601.6615 57.69841,602.119 C 59.587492,601.02047 61.476573,599.92193 63.365654,598.8234 C 73.139181,592.27103 83.462801,584.4589 87.68563,573.08056 C 89.42696,562.55916 87.43515,555.14745 79.682279,547.50702 C 69.680425,540.13743 60.263526,538.38177 48.082073,541.49771 C 46.027921,542.22122 44.060815,543.27039 41.919618,543.66824 C 41.401664,543.76448 43.40431,542.22119 42.93203,542.45463 C 34.819509,546.46439 28.434241,553.31522 22.489092,559.93698 C 16.098943,568.33064 11.011214,577.82108 11.027682,588.64191 C 12.116978,596.75701 15.562162,603.54121 23.321843,607.10115 C 32.625784,609.53109 41.98508,608.94363 51.105468,605.82638 C 52.707651,605.21178 54.196125,603.96174 55.912017,603.98259 C 56.976761,603.99552 52.330035,606.23883 53.322621,605.85332 C 58.689549,603.76886 63.935709,598.94813 68.661771,595.6927 L 76.492023,592.4493 z" />
    <path
       style="fill:#000000;fill-opacity:1;stroke:#000000;stroke-width:4;stroke-linecap:round;stroke-linejoin:round;stroke-miterlimit:4;stroke-dasharray:none;stroke-dashoffset:0;stroke-opacity:1"
       id="path2389"
       d="M 779.03776,569.32834 C 768.85185,576.32279 757.92399,582.60792 745.84405,585.48183 C 736.47732,587.16209 726.92942,585.59523 718.58422,581.11875 C 710.07049,575.50271 707.18893,571.02129 708.21728,560.81853 C 711.50528,548.46426 720.8275,539.78692 730.51679,532.1342 C 741.12617,525.25037 752.13411,518.14787 764.4724,514.7643 C 770.52191,513.10532 772.15713,513.29985 778.25508,512.90833 C 791.86113,514.19018 799.28455,518.21677 805.49084,530.42066 C 809.22969,542.70089 806.3689,550.51973 798.40673,560.0752 C 785.95133,572.04384 769.75955,579.04624 753.748,584.87599 C 751.42387,585.59142 749.09973,586.30686 746.77559,587.02229 L 753.32637,581.95479 C 755.63907,581.23082 757.95177,580.50685 760.26447,579.78288 C 772.84598,575.15385 781.83442,572.14926 790.73331,563.32509 C 798.71295,554.18716 801.76993,546.60771 798.22424,534.5638 C 792.18686,522.63508 784.844,518.87815 771.56919,517.83804 C 759.22556,518.78376 747.44565,522.40589 738.21359,529.05506 C 728.57539,536.52526 719.26794,544.97661 715.7458,557.08674 C 714.54356,566.98388 717.29985,571.12354 725.612,576.51525 C 733.91448,580.7903 743.28364,582.22843 752.49748,580.3967 C 757.6398,579.07364 757.17892,579.39777 762.18829,577.24508 C 763.75728,576.57083 765.27898,575.79145 766.82432,575.06463 C 765.873,575.71007 762.88747,577.38694 763.97035,577.00095 C 765.79033,576.35223 769.4736,573.60224 771.14679,572.41585 L 779.03776,569.32834 z" />
    <path
       style="fill:#000000;fill-opacity:1;stroke:#000000;stroke-width:4;stroke-linecap:round;stroke-linejoin:round;stroke-miterlimit:4;stroke-dasharray:none;stroke-dashoffset:0;stroke-opacity:1"
       id="path2391"
       d="M 91.499314,575.19545 C 98.932125,574.31084 106.35234,573.69649 113.68605,572.17938 C 119.30437,571.42535 124.71623,570.07192 130.18779,568.65683 C 133.9998,567.56165 137.96068,567.25373 141.90241,567.05511 C 145.02513,566.06939 148.08062,565.03684 151.336,564.5922 C 154.82389,564.16202 158.34767,564.16243 161.85675,564.13039 C 164.87222,563.8988 168.04891,564.63471 170.95605,563.71365 C 173.7351,562.61334 176.60703,561.95691 179.56001,561.56011 C 182.69441,561.28816 185.84463,561.28617 188.98851,561.26611 C 191.03924,561.26377 193.08994,561.27203 195.14064,561.27668 C 195.39028,561.27685 195.63992,561.27702 195.88956,561.27718 L 188.97777,566.296 C 188.72943,566.2948 188.48109,566.2936 188.23275,566.2924 C 186.18804,566.2848 184.14333,566.26931 182.0986,566.27768 C 178.97773,566.29185 175.84562,566.30045 172.74194,566.66364 C 169.80989,567.1109 166.99683,567.93558 164.18906,568.88132 C 161.15614,569.41463 158.04787,568.99501 154.97979,569.13662 C 151.49369,569.16996 147.99221,569.19888 144.53456,569.69376 C 141.29592,570.2465 138.26039,571.44308 135.04846,572.09083 C 131.14123,572.31102 127.23536,572.7134 123.46238,573.8115 C 118.00585,575.25972 112.54413,576.40802 106.96027,577.27511 C 99.602294,578.74452 92.143312,579.25952 84.713946,580.27396 L 91.499314,575.19545 z" />
    <path
       style="fill:#000000;fill-opacity:1;stroke:#000000;stroke-width:4;stroke-linecap:round;stroke-linejoin:round;stroke-miterlimit:4;stroke-dasharray:none;stroke-dashoffset:0;stroke-opacity:1"
       id="path2393"
       d="M 188.44992,545.34255 C 194.67537,548.24839 201.27237,550.14868 207.63173,552.71595 C 210.66112,554.41701 214.22561,556.18838 214.58227,559.97781 C 212.08309,566.30006 203.03986,569.76643 198.02899,572.64583 C 199.49596,571.82087 203.88942,569.33288 202.4299,570.17094 C 199.05016,572.11158 195.65235,574.02058 192.26827,575.95364 C 191.27114,576.52322 188.23766,578.14673 189.28635,577.67883 C 190.74249,577.02915 191.97918,575.89938 193.49547,575.40611 C 195.32755,574.81009 190.29722,577.55537 188.71381,578.65292 C 184.72303,581.09535 180.72856,583.56539 176.47803,585.53089 L 183.13735,580.22632 C 188.9543,577.39128 173.45993,585.88871 180.83464,581.75374 C 185.73839,578.3315 190.59975,575.47127 195.84188,572.37182 C 196.83217,571.7863 199.80088,570.0289 198.83727,570.65737 C 197.44546,571.5651 193.11636,574.04077 194.55579,573.2106 C 197.91699,571.27208 201.25383,569.29163 204.60285,567.33214 C 193.71726,573.6985 205.63152,567.12888 207.00089,563.86926 C 207.18934,560.50562 203.00909,558.85973 200.60185,557.42108 C 194.22964,554.83045 187.61294,552.91055 181.36553,550.00382 L 188.44992,545.34255 z" />
    <path
       style="fill:#000000;fill-opacity:1;stroke:#000000;stroke-width:4;stroke-linecap:round;stroke-linejoin:round;stroke-miterlimit:4;stroke-dasharray:none;stroke-dashoffset:0;stroke-opacity:1"
       id="path2395"
       d="M 699.89318,569.13904 C 692.03323,569.10693 684.17313,569.11185 676.31314,569.1276 C 671.58299,569.13009 666.85286,569.14396 662.12271,569.14568 C 658.73956,569.14633 655.3564,569.14523 651.97325,569.14974 C 648.79394,569.14933 645.61463,569.14901 642.43532,569.1469 C 639.19432,568.71669 636.35717,570.15096 633.31031,570.9628 C 630.07728,571.67971 626.77292,571.86558 623.4746,571.982 C 621.31856,572.06252 619.42579,572.4062 617.67853,570.98944 L 624.89591,566.42429 C 626.48591,567.49959 628.52381,566.87822 630.34222,566.95229 C 633.60498,566.81868 636.87825,566.58682 640.05449,565.77504 C 643.11303,564.87193 646.05342,563.75176 649.31448,564.14889 C 652.4964,564.14679 655.67832,564.14647 658.86024,564.14605 C 662.23967,564.15057 665.6191,564.14945 668.99853,564.15011 C 673.71208,564.15183 678.42562,564.16571 683.13917,564.1682 C 691.00966,564.18406 698.88026,564.18869 706.7507,564.15675 L 699.89318,569.13904 z" />
    <path
       style="fill:#000000;fill-opacity:1;stroke:#000000;stroke-width:4;stroke-linecap:round;stroke-linejoin:round;stroke-miterlimit:4;stroke-dasharray:none;stroke-dashoffset:0;stroke-opacity:1"
       id="path2397"
       d="M 636.49202,543.87787 C 630.41172,549.28465 624.13523,554.4648 617.75308,559.50907 C 612.44579,563.43707 606.75374,566.54094 600.98308,569.76786 C 599.21699,570.75545 604.47725,567.723 606.27186,566.78824 C 606.84072,566.49193 605.20167,567.49556 604.66658,567.84922 C 602.50421,569.28891 600.78526,570.37749 602.01503,573.02804 C 604.56087,577.27222 608.33155,580.51667 612.11589,583.61339 C 617.08318,588.02706 622.59675,591.73339 627.87427,595.75098 C 630.17389,597.53621 632.46967,599.32836 634.70477,601.19431 L 627.45048,605.7218 C 625.26452,603.83649 623.00366,602.03955 620.72811,600.26421 C 615.43951,596.24694 609.9565,592.48579 604.95767,588.09835 C 601.08037,584.92185 597.22651,581.56975 594.61265,577.22645 C 593.14821,574.24935 594.02772,572.6786 596.75773,570.94871 C 601.03296,568.0064 615.04819,560.22435 602.57839,567.51579 C 601.81624,567.96144 604.0846,566.59292 604.81439,566.09604 C 611.09115,561.82245 602.93746,567.07487 609.9284,562.63951 C 616.33831,557.67122 622.53772,552.43957 628.66177,547.12127 L 636.49202,543.87787 z" />
    <path
       style="fill:#000000;fill-opacity:1;stroke:#000000;stroke-width:4;stroke-linecap:round;stroke-linejoin:round;stroke-miterlimit:4;stroke-dasharray:none;stroke-dashoffset:0;stroke-opacity:1"
       id="path2399"
       d="M -53.656794,872.57509 C -45.012838,866.13908 -35.648046,860.81303 -26.079355,855.885 C -17.998737,851.58081 -9.6971709,847.67559 -1.4991981,843.58588 C 3.5650609,840.9565 14.636454,833.60409 24.45394,827.10915 C 38.676933,817.61721 53.136673,808.48941 67.503988,799.21927 C 82.59804,789.05776 97.424281,778.50031 112.5606,768.4034 C 126.1416,759.13528 139.96454,750.2343 153.64977,741.12278 C 166.58188,733.27598 179.36536,725.19657 191.77086,716.53901 C 202.87996,708.97181 213.33626,700.53457 224.49479,693.03977 C 234.18893,685.96387 243.78573,678.73096 253.97231,672.37138 C 272.32079,661.12963 263.78689,668.04459 277.79558,656.93986 C 283.83647,652.51104 289.61192,647.74878 295.64103,643.30652 C 300.40546,640.07506 305.21449,636.8889 309.82478,633.43638 C 313.06676,630.97902 316.04964,628.20762 318.96981,625.38253 C 322.59946,622.21212 326.10981,618.95891 329.89811,615.97053 C 335.83708,611.84529 342.36397,608.67586 348.61591,605.08013 C 337.36161,611.7165 344.5238,607.41149 347.07954,605.6606 C 347.72287,604.91724 348.1267,606.26475 347.20536,606.27575 C 345.74753,606.4925 344.56527,605.90129 343.25031,605.34032 L 350.33289,600.60098 C 351.59037,601.08561 352.76805,601.3945 354.12008,601.24329 C 354.86065,601.23999 356.05507,602.0623 355.03851,602.52527 C 350.90944,605.48097 346.36314,607.82597 342.01483,610.41265 C 339.65188,611.70852 332.56685,615.50094 343.53225,609.26395 C 349.42361,605.91303 332.14288,615.95487 337.76685,612.81859 C 333.9864,615.80608 330.43479,618.9834 326.81545,622.14446 C 323.90488,625.00353 320.92664,627.80579 317.69387,630.30222 C 313.11356,633.81755 308.2733,636.9956 303.47745,640.1984 C 297.43604,644.63745 291.65457,649.39664 285.59286,653.81151 C 277.38786,660.41274 268.51795,665.91413 259.21622,670.88333 C 258.34206,671.35033 260.91549,669.8628 261.76512,669.35253 C 251.52044,675.6405 241.91032,682.88666 232.23731,690.00902 C 221.03804,697.46707 210.58446,705.91929 199.47359,713.5049 C 187.08859,722.20254 174.30742,730.30351 161.34512,738.11259 C 147.6431,747.22427 133.81358,756.14039 120.21585,765.40896 C 105.05004,775.4719 90.23535,786.05931 75.148096,796.24132 C 60.807092,805.50536 46.364383,814.61259 32.165641,824.09504 C 19.036218,832.77612 5.9139452,841.44852 -8.0306177,848.80958 C -16.237845,852.90684 -24.545782,856.81943 -32.633726,861.14153 C -33.897484,861.79479 -35.218593,863.85524 -36.425001,863.10131 C -37.575661,862.38222 -32.166887,859.83993 -32.98813,860.92005 C -34.588146,863.02444 -43.536139,866.84157 -45.782714,869.41516 L -53.656794,872.57509 z" />
    <path
       style="fill:#000000;fill-opacity:1;stroke:#000000;stroke-width:4;stroke-linecap:round;stroke-linejoin:round;stroke-miterlimit:4;stroke-dasharray:none;stroke-dashoffset:0;stroke-opacity:1"
       id="path2401"
       d="M 322.54391,603.3614 C 329.1551,600.5292 335.967,598.16982 343.00642,596.68167 C 346.87084,596.25163 351.17404,594.83049 355.01508,595.94585 C 357.73853,597.95328 357.86957,601.22204 358.07501,604.33347 C 358.1924,607.69141 358.15968,611.05244 358.12548,614.4116 C 358.11284,616.18969 358.0968,617.96773 358.09466,619.74587 L 350.48701,623.61799 C 350.50034,621.83533 350.50538,620.05265 350.53429,618.27014 C 350.56575,614.92708 350.63917,611.58261 350.52284,608.24026 C 350.37139,605.59076 350.4928,602.39279 348.00942,600.79094 C 344.14643,600.10715 340.09606,601.26557 336.27997,601.79266 C 329.25581,603.36826 322.47807,605.78571 315.84297,608.56734 L 322.54391,603.3614 z" />
    <path
       style="fill:#000000;fill-opacity:1;stroke:#000000;stroke-width:4;stroke-linecap:round;stroke-linejoin:round;stroke-miterlimit:4;stroke-dasharray:none;stroke-dashoffset:0;stroke-opacity:1"
       id="path2403"
       d="M 341.85288,652.31473 C 344.63245,657.60966 346.75937,663.18887 348.47499,668.90681 C 351.78386,672.62538 338.73067,679.62955 343.5402,670.92403 C 348.87884,664.73282 356.69521,661.07679 364.07174,657.88196 C 370.84072,655.09005 377.64409,652.59046 384.78571,650.94895 C 385.55355,650.79228 386.32138,650.63562 387.08922,650.47896 L 380.33256,655.60095 C 379.57552,655.75855 378.81849,655.91616 378.06145,656.07376 C 370.96396,657.7522 364.20025,660.32098 357.46887,663.11081 C 353.64216,664.82247 351.31799,666.05391 358.47446,661.85848 C 359.25361,661.4017 356.97223,662.86156 356.22256,663.36525 C 354.43179,664.56845 352.72935,665.81883 351.31168,667.46877 C 349.00995,671.19021 342.19042,680.92451 341.0249,672.97464 C 339.39292,667.28164 337.31154,661.72933 334.48341,656.51079 L 341.85288,652.31473 z" />
    <path
       style="fill:#000000;fill-opacity:1;stroke:#000000;stroke-width:4;stroke-linecap:round;stroke-linejoin:round;stroke-miterlimit:4;stroke-dasharray:none;stroke-dashoffset:0;stroke-opacity:1"
       id="path2405"
       d="M 382.53406,683.83287 C 378.9493,688.65338 375.287,693.54988 375.2645,699.75614 C 376.30408,704.42098 379.55427,706.85318 383.8215,708.42585 C 386.60811,709.21195 385.20448,708.8845 388.03179,709.41079 L 381.07062,714.26222 C 378.18845,713.65148 379.617,714.02104 376.7855,713.15147 C 372.25674,711.32228 368.90138,708.56155 367.72118,703.61364 C 367.51797,697.20488 371.08504,692.18867 374.73183,687.16628 L 382.53406,683.83287 z" />
    <path
       style="fill:#000000;fill-opacity:1;stroke:#000000;stroke-width:4;stroke-linecap:round;stroke-linejoin:round;stroke-miterlimit:4;stroke-dasharray:none;stroke-dashoffset:0;stroke-opacity:1"
       id="path2407"
       d="M 401.23408,686.70936 C 402.415,689.98397 401.37455,698.64677 404.12471,700.80672 C 404.2805,700.74921 404.74219,700.56318 404.59208,700.6342 C 397.0806,704.18827 397.03541,705.37438 399.23657,702.24672 C 400.37965,700.62251 401.40071,699.02051 402.69407,697.50878 C 408.32812,692.21378 413.03903,687.93486 414.80563,695.86474 C 415.08184,699.03242 415.26322,702.02598 416.49184,704.99298 C 416.3478,707.59509 422.54649,703.48635 421.13123,704.22139 C 419.12118,705.26536 417.13259,706.35015 415.13326,707.41453 C 419.78355,703.80062 424.5809,699.50032 430.49542,698.33151 C 434.33055,697.81594 437.17817,700.52143 438.94858,703.62012 C 439.80913,705.20211 440.15603,706.95442 440.52347,708.69434 L 433.02336,712.70759 C 432.69838,711.04788 432.397,709.37695 431.5885,707.86551 C 429.91686,704.94661 427.28225,702.73351 423.72714,703.4951 C 420.38217,704.43658 420.81085,704.45476 428.14737,700.27423 C 432.38023,697.86225 418.37366,707.07545 423.01539,704.21785 C 420.18046,706.00236 417.35954,707.8093 414.51061,709.57137 C 412.54141,710.78932 410.5356,711.34091 409.05621,709.1554 C 407.81796,706.13721 407.47251,703.12435 407.30265,699.88714 C 407.11137,698.92994 407.07739,698.34977 406.63205,697.49916 C 406.5123,697.27043 406.39701,696.99993 406.16949,696.87788 C 405.98017,696.77633 405.34707,697.02514 405.52559,696.90563 C 414.26975,691.05177 413.11822,691.93749 410.52843,694.22022 C 407.01521,697.84774 403.33939,707.40553 396.85946,705.28553 C 393.78331,701.97954 395.13484,694.85658 393.73516,690.68759 L 401.23408,686.70936 z" />
    <path
       style="fill:#000000;fill-opacity:1;stroke:#000000;stroke-width:4;stroke-linecap:round;stroke-linejoin:round;stroke-miterlimit:4;stroke-dasharray:none;stroke-dashoffset:0;stroke-opacity:1"
       id="path2409"
       d="M 373.67152,543.60438 C 374.33732,537.67293 376.13772,531.9945 377.58003,526.22777 C 379.10741,521.88866 381.6306,517.80419 384.50315,514.21131 C 387.56277,510.22541 390.73225,506.33864 394.41167,502.90866 C 398.18921,498.66212 402.64927,495.21098 407.4673,492.23947 C 414.76373,486.84858 422.9006,483.81324 431.35512,481.04215 C 436.40087,479.47834 441.62843,478.82144 446.88207,478.54113 C 451.10417,478.00637 455.01827,478.6264 459.05511,479.7906 C 462.7062,481.54397 466.47489,483.01535 470.24593,484.48252 C 474.14268,485.94269 478.23096,486.55612 482.20463,487.77277 C 486.38398,488.93935 490.43247,490.44807 494.64246,491.52545 C 499.32203,492.57126 504.13884,492.63351 508.91065,492.7251 C 514.78656,492.78672 520.66305,492.76438 526.5392,492.75786 C 532.23906,492.22089 537.90966,491.1894 543.05223,488.60742 C 545.43432,487.33921 553.34983,483.47935 541.74372,489.58382 C 539.97437,490.51445 544.21716,487.87968 545.68396,486.18401 C 547.65711,482.15064 552.02879,476.08459 557.57365,478.94809 C 560.28339,480.46912 562.64155,482.2972 565.68123,483.18942 C 569.19504,484.0942 572.85679,484.11524 576.4626,484.17462 C 581.43905,483.12301 586.43292,482.28749 591.49725,481.80572 C 597.68051,481.66331 603.72541,480.33415 609.84347,479.53409 C 616.59703,478.5339 623.45325,478.96149 630.20751,478.10172 C 636.26265,476.81578 642.49788,476.67997 648.55483,475.49422 C 654.26936,474.25007 660.03455,473.50009 665.72244,472.14328 C 671.6548,470.43801 677.66988,469.07615 683.65099,467.5478 C 689.87242,465.77416 696.26562,464.90452 702.70072,464.43804 C 707.80478,463.91438 712.87916,464.35603 717.63833,466.31095 C 721.18883,467.83944 723.87136,470.548 726.23542,473.52176 C 728.82812,475.94189 730.67602,478.82835 731.67269,482.21666 C 732.50729,484.54816 734.43018,486.80914 734.01018,489.3808 C 725.30614,493.34836 727.61361,495.52756 724.83768,491.93521 L 732.14825,487.56333 C 734.6344,490.5 733.22012,488.23107 726.29102,493.04297 C 727.31529,490.88307 724.77214,488.33395 724.20119,486.2898 C 723.28214,482.98131 721.43927,480.24345 718.94065,477.88236 C 716.63643,475.029 714.05395,472.44606 710.59012,471.04019 C 705.85767,469.28001 700.91398,468.90547 695.90069,469.45781 C 689.49527,469.96725 683.14481,470.91057 676.95038,472.67159 C 670.94361,474.14173 664.97109,475.67602 658.99939,477.27037 C 653.30567,478.60344 647.51736,479.32261 641.80691,480.58657 C 635.71887,481.63109 629.51719,481.96709 623.44059,483.13964 C 616.67542,483.86255 609.83186,483.57782 603.08372,484.58331 C 596.96078,485.41231 590.89497,486.67702 584.70168,486.84674 C 579.61628,487.3754 574.62843,488.3808 569.58287,489.15328 C 565.91974,489.0757 562.19927,489.00374 558.65467,487.97422 C 555.64734,486.96685 553.24033,485.10793 550.46505,483.66236 C 547.13195,482.37383 549.50176,483.56637 556.11539,479.16399 C 557.92564,477.95899 555.01488,479.48365 554.66199,480.05859 C 554.41449,480.46184 554.37,480.95969 554.18996,481.39724 C 553.98667,481.8913 553.73888,482.36585 553.51334,482.85015 C 549.27142,488.30085 542.43532,490.75933 536.42668,493.88415 C 531.14444,496.24046 525.47631,497.34947 519.7125,497.7194 C 513.82541,497.7315 507.93785,497.76803 502.05108,497.68708 C 497.23078,497.5789 492.36424,497.48082 487.65429,496.33495 C 483.45278,495.21684 479.3776,493.73213 475.19482,492.556 C 471.20969,491.35176 467.0721,490.78662 463.20381,489.20784 C 459.45584,487.73143 455.71698,486.24796 452.04212,484.5949 C 448.07382,483.48382 444.17899,483.09062 440.05533,483.56239 C 434.84624,483.8954 429.66501,484.61078 424.6796,486.2264 C 421.86243,487.16984 418.97783,488.05283 416.20982,489.13163 C 412.8577,490.43809 410.83382,491.93991 417.98471,487.60666 C 418.8607,487.07583 416.23121,488.6658 415.35446,489.19537 C 410.49522,492.04882 405.95612,495.42641 402.24327,499.70284 C 398.52888,503.07489 395.3065,506.87913 392.30356,510.89063 C 389.37831,514.35523 386.91556,518.38208 385.21913,522.5696 C 383.76722,528.31337 381.90489,533.95594 381.29773,539.87597 L 373.67152,543.60438 z" />
    <path
       style="fill:#000000;fill-opacity:1;stroke:#000000;stroke-width:4;stroke-linecap:round;stroke-linejoin:round;stroke-miterlimit:4;stroke-dasharray:none;stroke-dashoffset:0;stroke-opacity:1"
       id="path2411"
       d="M 537.45609,369.93439 C 533.20051,371.51716 528.88812,373.01383 524.66026,374.67264 C 523.64762,375.06994 520.78589,376.62402 521.68296,376.00876 C 523.18683,374.97733 524.89311,374.27764 526.49819,373.41208 C 523.07635,375.73375 521.11736,378.50578 522.52071,382.57988 C 524.1859,386.86654 527.54013,390.09408 530.90358,393.09691 C 534.48436,396.00272 537.94531,398.94286 540.77952,402.59239 C 543.13615,405.3878 543.24744,407.69068 540.56686,410.10444 C 534.58158,414.80118 528.44692,416.83036 521.23287,417.47992 C 519.3072,417.64904 517.37411,417.68674 515.44284,417.73584 L 522.30716,412.72024 C 524.22202,412.66546 526.13802,412.60953 528.04611,412.42609 C 530.192,412.19317 532.29707,411.92693 534.38933,411.37277 C 535.11406,411.18082 537.11787,410.24557 536.54414,410.72818 C 534.76946,412.22103 528.11011,415.72594 532.67352,413.29276 C 535.62228,411.003 535.99346,410.19613 533.4857,406.93668 C 530.69045,403.32485 527.20729,400.47391 523.70643,397.56272 C 520.24433,394.46154 516.83411,391.09219 515.08339,386.69627 C 513.49606,382.3778 514.87362,379.14806 518.61696,376.47809 C 521.84544,374.57538 525.0193,372.57677 528.30242,370.76997 C 533.21686,368.0654 539.05923,367.025 544.15703,364.72846 L 537.45609,369.93439 z" />
    <path
       style="fill:#000000;fill-opacity:1;stroke:#000000;stroke-width:4;stroke-linecap:round;stroke-linejoin:round;stroke-miterlimit:4;stroke-dasharray:none;stroke-dashoffset:0;stroke-opacity:1"
       id="path2413"
       d="M 584.09123,395.28079 C 585.08882,401.8246 585.79514,408.404 586.29172,415.00308 C 586.45255,416.94863 586.52581,418.89948 586.60191,420.84962 L 579.03659,424.7369 C 578.97972,422.78958 578.91546,420.84223 578.77967,418.89839 C 578.33505,412.32378 577.66832,405.76321 576.5923,399.25902 L 584.09123,395.28079 z" />
    <path
       style="fill:#000000;fill-opacity:1;stroke:#000000;stroke-width:4;stroke-linecap:round;stroke-linejoin:round;stroke-miterlimit:4;stroke-dasharray:none;stroke-dashoffset:0;stroke-opacity:1"
       id="path2415"
       d="M 82.876401,532.05942 C 85.896621,525.16838 89.475903,518.54844 93.177846,512.00563 C 95.751272,507.1846 99.135427,502.92889 102.76471,498.87696 C 106.17835,495.24748 109.99017,491.97563 114.12647,489.1956 C 120.39689,485.51891 126.36467,481.03453 133.4949,479.28286 C 137.17072,478.64616 141.09131,477.95931 144.77089,478.79543 C 148.4341,479.46419 151.73063,481.00164 155.1455,482.38375 C 158.39309,484.45256 161.92676,485.91684 164.98854,488.27849 C 167.99766,490.27826 170.75774,492.58418 173.98324,494.22933 C 176.6847,495.33875 179.58206,495.50175 182.46147,495.59885 C 185.68782,495.84124 188.67334,495.60023 191.76223,494.69648 C 194.84945,494.5919 209.09953,486.17307 196.80049,493.21696 C 201.06096,490.70878 205.04699,487.78854 209.05371,484.90084 C 212.34893,482.26508 215.71239,479.80882 219.28618,477.5711 C 223.45537,474.59853 228.82456,467.09837 234.17054,469.52908 C 237.00433,472.37223 238.95716,475.92894 241.37197,479.10281 C 244.10022,481.92764 247.70137,483.398 251.52061,483.95554 C 255.20146,484.68193 258.62277,483.1809 262.16855,482.42514 C 266.28484,480.64809 270.23017,478.63927 274.47758,477.16914 C 279.31097,475.69634 284.22342,474.43052 288.78732,472.22931 C 294.84019,469.10002 301.1679,466.56326 307.3312,463.66128 C 313.96851,460.4552 320.81593,457.98193 328.07298,456.69248 C 334.77459,455.90007 341.60109,455.15183 348.33118,455.91476 C 354.47495,456.46007 360.18518,458.56936 365.88255,460.76948 C 371.03741,462.59474 376.05708,464.71624 381.35521,466.11141 C 383.85255,466.58681 382.64521,466.38363 384.97537,466.73189 L 378.01762,471.62088 C 375.66681,471.22306 376.88719,471.45363 374.35881,470.91692 C 369.07225,469.4432 364.03713,467.30444 358.86837,465.48089 C 353.22319,463.30245 347.5293,461.32463 341.44658,460.81126 C 334.75393,460.21519 327.99054,460.87046 321.34893,461.76968 C 314.1461,463.17531 307.3401,465.70804 300.73566,468.90744 C 294.5434,471.76462 288.2523,474.40401 282.16973,477.49224 C 277.53851,479.56974 272.62052,480.85038 267.78933,482.38389 C 263.55852,483.9049 259.651,486.08575 255.4097,487.56502 C 251.8117,488.3961 248.29917,489.68092 244.56237,488.83909 C 240.58802,488.10954 236.88139,486.43412 234.08195,483.43401 C 231.78543,480.39221 229.91813,476.94077 227.11571,474.32289 C 224.39801,473.89665 219.50092,477.34834 231.53163,470.78275 C 234.3256,469.25798 224.89706,475.01065 227.20526,474.49199 C 223.66206,476.78335 220.14139,479.01459 216.92962,481.78353 C 212.92897,484.70041 208.93862,487.60932 204.70533,490.1818 C 198.4192,493.79923 192.16654,498.10052 185.02361,499.87815 C 181.89508,500.70892 178.7755,500.75794 175.55028,500.57637 C 172.58016,500.42969 169.60493,500.15949 166.86614,498.89332 C 163.64701,497.1667 160.83493,494.85106 157.80894,492.81562 C 154.76431,490.56185 151.30778,489.06613 148.07895,487.10763 C 144.72204,485.70224 141.41041,484.31333 137.79779,483.66311 C 134.14134,483.10498 130.35408,483.6915 126.76087,484.44829 C 124.8539,484.99601 124.62264,484.98727 122.82112,485.80023 C 122.17127,486.09349 120.31047,487.14563 120.9081,486.75686 C 131.46756,479.8878 124.48798,484.99914 122.01615,486.11799 C 117.81862,488.77005 114.04028,492.05298 110.57728,495.59457 C 106.92521,499.5994 103.47214,503.78175 100.87716,508.57238 C 97.148964,515.07108 93.523653,521.65522 90.602751,528.56378 L 82.876401,532.05942 z" />
    <path
       style="fill:#000000;fill-opacity:1;stroke:#000000;stroke-width:4;stroke-linecap:round;stroke-linejoin:round;stroke-miterlimit:4;stroke-dasharray:none;stroke-dashoffset:0;stroke-opacity:1"
       id="path2417"
       d="M 213.65679,349.29213 C 208.07217,353.81881 202.22612,358.01058 196.95857,362.91567 C 194.25511,365.61809 190.86349,368.20229 190.82831,372.30365 C 191.09017,375.85085 194.1399,378.25589 196.52843,380.58624 C 199.88676,383.82102 203.25232,387.04821 206.57975,390.31484 C 208.67966,392.45037 211.46939,394.22498 211.67306,397.4216 C 209.54766,401.93031 198.45832,406.9371 195.51974,408.63967 C 192.51203,409.93125 193.95794,409.20869 191.17667,410.79664 L 197.77478,405.47475 C 200.60323,403.96724 199.15898,404.69104 202.10938,403.30703 C 190.31968,410.19752 202.09633,403.65234 204.07252,401.28421 C 204.39192,398.45195 200.95072,396.66017 199.35538,394.75212 C 196.02032,391.49124 192.66967,388.24658 189.29036,385.0315 C 186.7498,382.52777 183.6144,379.94974 183.24843,376.18436 C 183.05243,371.75176 186.08815,369.02621 189.13419,366.12776 C 194.36485,361.17719 200.19915,356.98307 205.78271,352.45206 L 213.65679,349.29213 z" />
    <path
       style="fill:#000000;fill-opacity:1;stroke:#000000;stroke-width:4;stroke-linecap:round;stroke-linejoin:round;stroke-miterlimit:4;stroke-dasharray:none;stroke-dashoffset:0;stroke-opacity:1"
       id="path2419"
       d="M 265.30117,391.47278 C 269.67318,395.22068 273.15662,399.79392 277.11637,403.93065 C 279.5473,406.23036 281.65056,406.48264 284.80609,406.01127 L 277.99498,411.08704 C 274.67823,411.40306 272.31587,410.72389 269.86764,408.34569 C 265.97732,404.19538 262.52824,399.63687 258.11646,395.98569 L 265.30117,391.47278 z" />
    <path
       style="fill:#000000;fill-opacity:1;stroke:#000000;stroke-width:4;stroke-linecap:round;stroke-linejoin:round;stroke-miterlimit:4;stroke-dasharray:none;stroke-dashoffset:0;stroke-opacity:1"
       id="path2421"
       d="M 54.914635,329.71795 C 61.364534,324.25491 68.049334,319.0775 74.843398,314.05019 C 84.196594,307.08833 94.372173,301.27917 104.47967,295.50465 C 105.76046,294.80241 106.95989,293.92526 108.32206,293.39793 C 109.56487,292.91681 103.80277,296.20004 104.84118,295.3647 C 106.01309,294.42197 107.42087,293.81709 108.72732,293.07192 C 115.14121,289.41357 121.16748,285.98379 127.84212,283.01042 C 135.27187,279.81666 143.31066,279.02384 151.29339,278.57827 C 158.44853,278.27235 165.53585,279.77365 172.64046,280.49707 C 178.92733,280.81831 185.004,282.51787 191.00758,284.27835 C 196.71881,285.97999 202.64536,286.5425 208.56743,286.86214 C 215.32399,288.00838 222.09127,288.93533 228.92724,289.42584 C 237.89692,289.08211 246.79705,288.03946 255.66581,286.71459 C 266.30674,284.07362 277.21865,283.14547 288.04263,281.65019 C 299.56955,280.14457 310.96736,277.73022 322.25596,274.9786 C 334.5754,271.86828 346.7467,268.25203 358.8866,264.50944 C 369.85677,260.84335 380.68958,256.8037 391.14789,251.85775 C 395.52673,250.08597 399.64889,247.81322 403.77247,245.53479 C 404.96441,244.87619 408.60126,243.01829 407.36552,243.5905 C 404.21985,245.04712 400.50252,247.51138 405.87415,244.0948 C 439.16218,225.29892 401.70303,246.44651 412.7146,240.03796 C 415.72053,238.28856 418.77128,236.6157 421.7533,234.82583 C 423.55435,233.7448 414.40978,238.90849 416.25838,237.91092 C 419.21666,236.31452 422.14123,234.65643 425.08266,233.02918 C 428.52475,232.87417 429.79571,236.06769 431.33804,238.58719 C 433.32982,242.19658 436.07799,245.05802 439.23456,247.64343 C 443.45439,250.36479 447.83215,252.84745 452.33493,255.06989 C 458.25469,257.20111 464.54118,258.37562 470.70919,259.65558 C 477.92326,260.93582 485.25888,261.12718 492.56484,261.27597 C 501.48922,261.38974 510.41465,261.35881 519.33952,261.35069 C 529.94122,261.77336 540.46243,260.92695 551.01018,260.01639 C 561.58811,259.01007 572.21176,258.73516 582.82971,258.56677 C 594.848,258.34748 606.82681,259.77512 618.71368,261.39713 C 630.84535,262.88946 642.9973,264.28083 655.08238,266.12328 C 667.0166,267.92155 678.87978,270.31904 690.55632,273.37495 C 700.73877,276.2442 710.63636,279.71709 719.94289,284.77012 C 728.61437,288.89864 735.21769,295.0935 741.27955,302.36143 C 746.81187,309.78317 750.94505,318.242 754.36673,326.82221 C 755.83867,331.72438 760.96536,339.26545 758.99236,344.38943 C 756.09332,346.10236 753.19427,347.81528 750.29522,349.52821 L 756.93817,344.21698 C 755.03455,345.43505 753.13093,346.65311 751.22732,347.87118 C 751.51581,347.4935 752.00254,347.20475 752.09279,346.73814 C 752.85302,342.80733 748.07588,334.7277 747.03303,330.91443 C 743.68157,322.40165 739.57505,314.02275 734.0782,306.68566 C 728.07961,299.49752 721.51205,293.41954 712.92905,289.35299 C 703.66202,284.36659 693.80289,280.94515 683.68043,278.10766 C 672.02265,275.08477 660.18992,272.68769 648.27803,270.91294 C 636.18783,269.10869 624.0398,267.70538 611.90992,266.20114 C 600.04053,264.59095 588.07765,263.22365 576.07871,263.48879 C 565.47301,263.6725 554.86407,263.98193 544.29818,264.98195 C 533.72881,265.89734 523.17982,266.65867 512.55855,266.27849 C 503.62185,266.28986 494.68433,266.32969 485.74824,266.20678 C 478.40065,266.04911 471.0237,265.8225 463.77805,264.47517 C 457.56106,263.15185 451.1895,262.03402 445.26596,259.7228 C 440.72741,257.44443 436.26796,254.97982 432.05274,252.14236 C 428.82965,249.49571 426.03736,246.53309 423.99019,242.85768 C 422.64257,240.68584 421.51217,237.54231 418.42206,238.31682 C 420.33788,237.15588 426.11957,233.73153 424.16952,234.834 C 421.13,236.55242 418.13688,238.35237 415.1527,240.16518 C 413.35092,241.25971 418.79441,238.04011 420.62191,236.98908 C 421.32538,236.58451 419.22303,237.8121 418.52488,238.22578 C 415.37884,240.08989 412.24169,241.96903 409.08934,243.82244 C 407.53032,244.73906 412.193,241.96494 413.74482,241.03619 C 404.36945,246.95699 394.79255,252.63619 384.60743,257.06349 C 374.12838,261.95789 363.2785,265.96368 352.30225,269.5999 C 340.14555,273.32329 327.96348,276.94276 315.62892,280.03787 C 304.31495,282.75091 292.90567,285.16822 281.35801,286.64651 C 270.5189,288.10238 259.62731,289.18328 248.96328,291.73757 C 240.0521,293.06504 231.08843,294.11038 222.07248,294.32929 C 215.23466,293.80955 208.47662,292.80774 201.698,291.79325 C 195.73404,291.43178 189.77563,290.79355 184.0328,289.04852 C 178.06379,287.3053 172.01023,285.71854 165.7683,285.38223 C 158.701,284.63507 151.63888,283.16781 144.51282,283.56576 C 136.57683,284.05624 128.61101,284.95573 121.26407,288.22884 C 119.9317,288.83587 118.58494,289.41226 117.26697,290.04993 C 115.9025,290.7101 114.73452,292.10689 113.2188,292.12137 C 111.90986,292.13388 117.76486,289.54679 116.55925,290.05669 C 115.17641,290.64155 113.97879,291.59248 112.68163,292.34856 C 101.57983,298.81953 105.09695,296.84853 97.946378,300.77733 C 99.04911,300.10653 102.13594,297.82194 101.25458,298.76492 C 100.25226,299.8373 98.810946,300.39239 97.571359,301.17856 C 92.547652,304.3647 87.261998,307.1653 82.642849,310.95633 C 75.853649,315.93269 69.178753,321.07723 62.788715,326.55802 L 54.914635,329.71795 z" />
    <path
       style="fill:#000000;fill-opacity:1;stroke:#000000;stroke-width:4;stroke-linecap:round;stroke-linejoin:round;stroke-miterlimit:4;stroke-dasharray:none;stroke-dashoffset:0;stroke-opacity:1"
       id="path2423"
       d="M 406.03737,172.32007 C 411.0543,165.2523 416.1844,158.26709 421.11755,151.13994 C 427.10363,143.02194 431.38294,133.83683 435.60293,124.72472 C 438.99812,117.24964 440.74106,109.27798 441.60369,101.15898 C 441.65027,97.408937 442.1869,91.860592 439.71153,88.67926 C 438.27503,88.067338 427.31529,91.70028 445.26808,85.351668 C 445.70059,85.198719 444.88279,86.188365 444.75704,86.629554 C 444.3891,87.92046 444.29163,89.277101 444.13646,90.60071 C 443.64001,98.205805 443.71815,105.83703 443.70112,113.45471 C 443.57509,124.03895 443.56472,134.58265 444.51464,145.12767 C 445.16262,153.30112 446.71609,161.46443 450.05675,168.98008 C 451.40002,171.55345 454.32602,176.47788 457.73361,174.16657 C 447.74361,180.49395 452.61717,176.22864 455.05501,171.75206 L 462.73626,168.29962 C 459.47526,174.5945 459.02606,175.60693 451.05107,179.45435 C 446.95874,180.45469 444.31362,176.30182 442.70023,173.12325 C 439.34326,165.51174 437.73642,157.26462 437.09791,148.99181 C 436.12772,138.42601 436.12502,127.86508 436.23585,117.25769 C 436.23108,109.62928 436.13957,101.99214 436.53682,94.371347 C 437.00512,89.55143 439.37449,79.604126 447.0474,84.337932 C 449.50851,87.87058 449.29589,93.314864 449.16096,97.406814 C 448.32014,105.61215 446.59897,113.67352 443.22493,121.24928 C 438.9836,130.38051 434.78337,139.64599 428.79224,147.79617 C 423.89855,154.92516 418.73092,161.85688 413.83959,168.98666 L 406.03737,172.32007 z" />
    <path
       style="fill:#000000;fill-opacity:1;stroke:#000000;stroke-width:4;stroke-linecap:round;stroke-linejoin:round;stroke-miterlimit:4;stroke-dasharray:none;stroke-dashoffset:0;stroke-opacity:1"
       id="path2425"
       d="M -59.980742,869.20228 C -56.732411,861.77681 -53.656141,854.26143 -50.810139,846.66976 C -48.228867,839.41865 -45.94861,832.08863 -43.935224,824.6602 C -41.995941,816.18122 -40.768645,807.55567 -38.993887,799.04298 C -36.940894,789.87863 -36.12195,780.51686 -34.70007,771.24704 C -33.602473,761.61111 -32.368921,751.99961 -31.17521,742.37374 C -30.043382,732.26573 -28.450522,722.20703 -26.657988,712.19531 C -25.07542,702.47019 -23.123907,692.80933 -21.057865,683.17688 C -19.51915,674.57158 -17.278385,666.11725 -14.538351,657.82195 C -12.356615,649.9811 -9.8752795,642.23858 -7.370116,634.4958 C -5.0080903,627.94473 -2.4608309,621.44929 -0.35472406,614.80993 C 1.6414023,609.06171 3.7293083,603.3351 5.4901163,597.50897 C 6.521305,593.47485 7.2006112,589.43873 8.8045896,585.57887 C 9.464123,583.91326 9.9734383,582.19089 10.368498,580.44451 C 10.36679,580.28902 10.462024,580.14791 10.508787,579.99961 L 18.112452,576.04478 C 18.117417,576.26745 18.183617,576.49573 18.074053,576.72578 C 17.690576,578.5259 17.155042,580.29159 16.54083,582.02559 C 14.834181,585.8491 14.095554,589.8345 13.129896,593.89098 C 11.413576,599.73495 9.299748,605.46074 7.28403,611.20567 C 5.2207341,617.86788 2.635828,624.36318 0.24278096,630.9116 C -2.2524076,638.66222 -4.8064188,646.3875 -6.9313257,654.25019 C -9.7241524,662.50629 -11.961311,670.947 -13.508947,679.52892 C -15.566042,689.15911 -17.576964,698.80381 -19.135876,708.52994 C -20.946722,718.52539 -22.524295,728.57253 -23.671829,738.66527 C -24.841482,748.2987 -26.121386,757.90916 -27.172233,767.55551 C -28.613303,776.83456 -29.415326,786.20705 -31.437579,795.38935 C -33.266583,803.89903 -34.4431,812.54268 -36.342589,821.03838 C -38.314429,828.50323 -40.616545,835.84721 -43.192295,843.12487 C -46.014569,850.72941 -49.145027,858.21836 -52.254392,865.70664 L -59.980742,869.20228 z" />
    <path
       style="fill:#000000;fill-opacity:1;stroke:#000000;stroke-width:4;stroke-linecap:round;stroke-linejoin:round;stroke-miterlimit:4;stroke-dasharray:none;stroke-dashoffset:0;stroke-opacity:1"
       id="path2427"
       d="M -6.0668247,574.40256 C -0.67898122,571.61865 4.9568607,569.31405 10.857804,567.89514 C 15.300371,567.5197 16.956921,570.45379 17.725959,574.30757 C 18.301012,579.87823 18.165563,585.50163 18.144265,591.0958 C 18.123325,593.93267 18.117412,596.76961 18.10063,599.6065 L 10.522506,603.46123 C 10.544474,600.61898 10.588819,597.77696 10.600626,594.93461 C 10.63628,589.39344 10.770695,583.82814 10.231228,578.30667 C 9.5800937,574.74469 8.1959459,572.39843 4.1256666,573.04362 C -1.7296918,574.57256 -7.3308212,576.89015 -12.689156,579.6998 L -6.0668247,574.40256 z" />
    <path
       style="fill:#000000;fill-opacity:1;stroke:#000000;stroke-width:4;stroke-linecap:round;stroke-linejoin:round;stroke-miterlimit:4;stroke-dasharray:none;stroke-dashoffset:0;stroke-opacity:1"
       id="path2429"
       d="M 18.37694,678.13794 C 19.357686,684.29233 20.033336,690.48345 20.582044,696.68915 C 20.704782,698.17405 20.727784,698.41548 20.830489,699.77481 C 20.852984,700.07255 20.805756,700.3834 20.895397,700.66821 C 20.917775,700.73931 21.734788,700.03314 21.371009,700.17514 C 19.157221,701.03925 17.008479,702.06155 14.827214,703.00475 C 16.335407,697.68654 18.035471,692.51533 20.384487,687.50381 C 22.852838,682.58426 26.378549,678.41114 30.427272,674.73546 C 34.213052,671.55093 38.527463,668.41311 43.565462,668.82833 L 36.647512,673.80834 C 35.800114,673.80627 33.450508,674.55941 34.115344,674.03398 C 35.385777,673.02993 43.038116,668.18589 38.28505,671.54147 C 34.141121,675.03902 30.635999,679.2028 28.074212,684.0065 C 25.671679,688.98441 23.852036,694.10977 22.570226,699.48737 C 14.302358,705.54625 13.462735,708.47565 13.060777,700.60059 C 12.575716,694.4122 11.929706,688.2374 10.878016,682.11616 L 18.37694,678.13794 z" />
    <path
       style="fill:#000000;fill-opacity:1;stroke:#000000;stroke-width:4;stroke-linecap:round;stroke-linejoin:round;stroke-miterlimit:4;stroke-dasharray:none;stroke-dashoffset:0;stroke-opacity:1"
       id="path2431"
       d="M 52.662654,700.99508 C 53.372269,706.60719 54.290984,712.10239 56.117467,717.46373 C 56.862543,719.43708 56.524056,718.45327 57.137454,720.41359 L 49.671905,724.50252 C 49.088646,722.57204 49.414871,723.55366 48.684506,721.56058 C 46.879615,716.14704 45.914742,710.62409 45.16373,704.97331 L 52.662654,700.99508 z" />
    <path
       style="fill:#000000;fill-opacity:1;stroke:#000000;stroke-width:4;stroke-linecap:round;stroke-linejoin:round;stroke-miterlimit:4;stroke-dasharray:none;stroke-dashoffset:0;stroke-opacity:1"
       id="path2433"
       d="M -60.352539,865.83113 C -53.252835,861.93722 -45.942604,858.27552 -38.261132,855.68123 C -30.654508,852.70027 -22.7876,850.57708 -14.967437,848.27712 C -6.7443691,846.0483 1.5970292,844.31738 9.6489626,841.49663 C 18.545758,838.85196 26.894117,834.73863 35.518601,831.37634 C 43.181166,828.58812 51.002899,826.32208 58.879217,824.22584 C 67.029711,822.25379 75.188911,820.35108 83.366131,818.49373 C 91.166352,815.77383 99.380833,814.80908 107.38938,812.99677 C 114.34231,811.8019 121.20279,810.27853 128.09517,808.78705 C 134.59795,807.47662 141.04692,805.8894 147.44128,804.11237 C 153.44846,802.51222 159.61861,801.92451 165.67943,800.58505 C 171.71472,799.63017 177.66971,798.33822 183.68176,797.24842 C 189.97875,795.50157 196.35802,794.16772 202.65125,792.41869 C 208.32399,790.80759 214.19376,790.29695 220.05682,790.00921 C 225.89922,789.35812 231.46861,787.58535 237.13077,786.12623 C 242.90997,785.16526 248.52445,783.50146 254.28841,782.45733 C 260.65474,780.54586 267.30171,779.99588 273.75973,778.56795 C 279.15449,777.21647 284.64174,776.30036 290.18201,775.84705 C 294.8083,774.77612 299.39993,773.69151 304.12541,773.17685 C 308.35994,773.22834 312.30392,771.75612 316.39509,770.91335 C 320.93265,770.12688 325.22649,768.51573 329.78658,767.7709 C 334.95979,765.98127 340.42992,765.51553 345.71638,764.25191 C 351.51081,763.08101 357.05635,761.05431 362.83247,759.80684 C 367.30751,757.7874 372.22284,757.21517 376.82789,755.66475 C 381.13705,754.30391 385.53688,753.39377 389.86463,752.10389 C 394.3144,750.86015 398.87678,750.44206 403.29972,749.11504 C 407.5374,748.32708 411.56969,746.90624 415.71844,745.78473 C 420.39477,744.09959 424.57228,741.52348 429.33919,740.06341 C 433.59011,738.02244 438.12968,736.86683 442.50959,735.16623 C 446.42111,733.50231 450.50577,732.10898 454.37377,730.31714 C 457.93584,728.6666 461.58352,727.42693 465.03125,725.50508 C 465.74411,725.16095 467.84901,724.06612 467.16982,724.47268 C 455.04723,731.72902 468.06299,723.5544 470.65844,721.98977 C 496.735,707.22542 476.35246,718.83093 475.48474,719.15919 C 474.60773,719.49097 476.98169,718.02945 477.73824,717.47549 C 480.12948,715.7246 482.53794,714.01386 484.89424,712.21487 C 490.12415,708.61516 495.28058,704.92054 500.44351,701.22841 C 504.66657,698.07218 508.95113,695.02246 513.30209,692.04555 C 516.39194,690.25558 519.48955,688.47895 522.57163,686.67563 C 524.27189,685.68082 519.19465,688.70984 517.44762,689.62002 C 515.45929,690.65592 519.48792,688.3201 522.11899,686.72226 C 528.97092,682.56109 519.60539,688.04638 534.50968,679.5407 C 532.88791,680.41882 531.31701,681.3982 529.64437,682.17506 C 527.98763,682.94453 532.70755,680.18356 534.25733,679.21657 C 538.10357,676.81669 542.1107,674.68467 546.05426,672.44833 C 547.76888,671.47599 542.62853,674.39916 540.91566,675.37457 C 544.63847,672.6215 562.86324,663.31046 548.28644,671.15773 C 546.91765,671.89461 549.77834,670.17207 552.06131,668.78892 C 555.08055,667.06053 558.09978,665.33214 561.11902,663.60375 C 559.31341,664.62421 553.90359,667.69789 555.70218,666.66513 C 586.06874,649.22842 538.19154,676.66208 569.44933,658.97235 C 571.14256,658.0141 566.04261,660.85261 564.33924,661.79274 C 565.04769,661.36186 565.74267,660.908 566.46458,660.50008 C 569.60933,658.72311 572.77114,656.97637 575.93787,655.23886 C 577.40198,654.43554 581.81395,652.06389 580.37009,652.90307 C 578.66273,653.89539 573.5025,656.80538 575.20458,655.80402 C 578.32409,653.96877 581.48343,652.20208 584.62286,650.40111 C 582.97242,651.33809 581.34685,652.32031 579.67154,653.21205 C 578.95283,653.59461 581.0449,652.33612 581.75055,651.92999 C 587.04471,648.88297 592.22076,645.57131 597.95257,643.4254 C 603.0633,641.37572 608.22638,639.42847 613.4199,637.58823 C 617.96392,635.52266 622.74122,634.09621 627.41379,632.36117 C 631.48924,630.87528 635.32574,628.82407 639.24238,626.9772 C 638.25972,627.81659 644.13462,624.41265 642.93806,625.10272 C 641.0735,626.17803 635.43855,629.33065 637.33218,628.3074 C 641.529,626.03958 645.7327,623.65491 649.87273,621.25024 C 653.22892,619.74649 656.5132,618.1294 659.9191,616.732 C 664.77231,613.94744 655.91234,619.03275 655.38405,619.31107 C 654.86647,619.58374 656.34857,618.64825 656.81756,618.29855 C 658.17155,617.28893 659.53984,616.30268 660.87292,615.26458 C 664.31593,612.75559 667.81779,610.31912 671.39827,608.0069 C 674.40792,606.32117 677.41816,604.6365 680.42722,602.94972 C 682.331,601.88252 672.85444,607.29045 674.71412,606.14815 C 677.63117,604.35635 680.63114,602.70311 683.60098,601.00024 C 684.77473,600.32723 688.56346,598.40005 686.64493,599.61669 C 684.73389,600.82859 682.70553,601.84475 680.73583,602.95878 C 685.68946,599.6266 690.99605,596.98398 696.35288,594.41797 C 681.33321,602.912 698.57868,593.22981 699.66582,592.59051 C 701.50095,591.51137 695.96675,594.70322 694.06359,595.65728 C 693.44257,595.9686 695.20968,594.86927 695.81168,594.5226 C 702.39132,590.7337 702.66208,590.60833 707.12796,588.22222 C 704.04413,590.02671 718.81355,582.04764 715.14981,584.15289 C 708.29799,588.09006 708.45084,588.05331 711.54145,585.98575 C 730.69902,574.85491 718.39308,582.12109 714.82389,583.86079 C 714.24464,584.14313 715.8819,583.12467 716.41822,582.76743 C 717.96729,581.73562 719.51857,580.71673 721.1095,579.75052 C 725.49383,575.86272 729.87384,573.33589 735.10306,570.36149 C 724.07397,578.76433 728.04315,573.99356 730.66244,572.18026 L 738.61811,569.09007 C 735.04875,571.13599 733.48182,575.22831 728.43934,575.69129 C 741.82933,567.82505 731.64073,573.77797 729.03538,576.70266 C 725.01485,578.9683 704.69374,592.01956 719.44428,582.88559 C 713.45792,587.0155 707.00769,590.30183 700.52206,593.53251 C 697.08603,595.34265 696.30371,595.80676 703.72265,591.4443 C 704.31921,591.09351 702.55899,592.19408 701.96678,592.55216 C 698.99812,594.34713 696.00344,596.09896 693.04041,597.90321 C 691.21576,599.01428 700.42702,593.60893 698.5515,594.63179 C 695.56379,596.26122 692.65212,598.02637 689.70244,599.72366 C 688.21073,600.45315 686.7534,601.26169 685.2508,601.96735 C 684.77593,602.19036 683.36331,602.87351 683.80652,602.5928 C 693.45899,596.47941 691.05366,598.17471 688.67708,599.90829 C 685.77236,601.56507 682.89158,603.26455 679.96292,604.87862 C 678.9968,605.41108 676.0475,606.9083 676.99704,606.34682 C 678.86805,605.24046 684.50327,601.95932 682.63486,603.07006 C 659.99448,616.52931 678.37321,605.49401 679.31142,604.92916 C 675.70854,607.19877 672.26655,609.67651 668.75986,612.08591 C 664.13853,616.11465 658.62086,619.14381 653.2359,622.00013 C 649.85802,623.40913 646.56685,625.0059 643.27172,626.59383 C 641.47625,627.6163 638.57121,629.27808 639.67983,628.58474 C 641.51619,627.43628 647.1574,624.21125 645.25936,625.25463 C 641.04529,627.57118 637.03619,630.33571 632.60973,632.26504 C 628.71426,634.16684 624.81666,636.09973 620.73907,637.5855 C 616.07543,639.34195 611.28897,640.7403 606.74237,642.80195 C 601.57087,644.69804 596.38202,646.55398 591.29104,648.65401 C 588.77246,649.67385 589.0182,649.50019 586.62761,650.761 C 585.8982,651.1457 583.76524,652.39867 584.46432,651.96125 C 586.17107,650.89332 587.90937,649.87615 589.65232,648.86841 C 590.3604,648.45901 588.26387,649.73335 587.56964,650.16581 C 584.39002,652.01845 581.21041,653.87108 578.03079,655.72371 C 598.02424,643.99474 555.88477,668.88981 574.36875,657.44895 C 575.07338,657.01281 572.94569,658.29854 572.23417,658.72333 C 569.10332,660.5712 565.97248,662.41908 562.84164,664.26695 C 564.48278,663.27576 569.44801,660.37496 567.76506,661.29337 C 564.58326,663.02974 561.51055,664.96015 558.34281,666.72204 C 557.6399,667.11299 580.87938,653.43727 554.51176,668.93487 C 552.69298,670.00386 558.15431,666.80543 559.97559,665.7407 C 555.51397,668.32449 535.68826,679.82702 550.66707,671.17076 C 551.29549,670.8076 549.43768,671.94261 548.82298,672.32854 C 545.70019,674.14028 542.59361,675.98025 539.45461,677.76375 C 537.7403,678.73777 542.8624,675.77909 544.54858,674.75714 C 545.34042,674.27723 542.9256,675.65055 542.13801,676.13742 C 537.41552,679.05674 532.95426,682.41272 527.93025,684.84651 C 529.4648,683.93551 530.97591,682.9838 532.53391,682.1135 C 539.26994,678.35074 526.50687,685.89474 525.3569,686.5795 C 522.25366,688.42735 519.11909,690.22241 515.9793,692.00744 C 514.22856,693.00277 519.45275,689.96832 521.18948,688.94876 C 516.8313,691.92686 512.51128,694.92673 508.31022,698.12523 C 503.11019,701.76429 498.03739,705.57743 492.73931,709.0835 C 486.63882,713.82044 480.537,717.79259 473.84077,721.75884 C 472.26693,722.69105 476.97995,719.88016 478.54955,718.94082 C 471.90636,722.99998 465.326,727.21994 458.42286,730.8252 C 454.93938,732.64558 451.26608,733.91629 447.71995,735.58939 C 443.78728,737.25828 439.80712,738.84086 435.83623,740.40232 C 431.45955,742.09573 426.91731,743.27652 422.64521,745.25174 C 417.93757,746.83091 413.73524,749.45866 408.99569,750.95407 C 404.8675,752.1403 400.78115,753.38357 396.57914,754.29323 C 392.14813,755.52903 387.56503,755.94807 383.15386,757.28324 C 378.83032,758.57377 374.40178,759.41854 370.12093,760.85905 C 365.45809,762.2434 360.65467,763.14475 356.1026,764.9249 C 350.34909,766.23987 344.78244,768.22227 338.98762,769.37493 C 333.66081,770.53129 328.24069,771.24737 323.01444,772.87066 C 318.48653,773.69829 314.17684,775.30139 309.63528,776.04668 C 305.55275,776.96049 301.55575,778.22478 297.32473,778.23913 C 292.60853,778.82251 288.0319,780.00677 283.36833,780.88842 C 277.85791,781.39678 272.40775,782.34779 267.0331,783.67298 C 260.54157,784.98812 253.93604,785.74616 247.54006,787.55272 C 241.80121,788.65072 236.17164,790.23173 230.42036,791.26856 C 224.74569,792.77045 219.11643,794.46279 213.2405,795.01624 C 207.40989,795.3408 201.58376,795.92399 195.95339,797.56727 C 189.65429,799.30837 183.26278,800.64506 176.94758,802.33122 C 170.94422,803.45671 164.96895,804.67032 158.94928,805.69971 C 152.89963,807.00844 146.7229,807.56374 140.75324,809.25343 C 134.34983,811.02391 127.8811,812.57033 121.37277,813.89532 C 114.49098,815.40895 107.60906,816.81824 100.67958,818.09673 C 92.653825,819.8029 84.506554,820.98086 76.685579,823.58102 C 68.515426,825.46643 60.34446,827.32466 52.206781,829.34738 C 44.360576,831.48946 36.541966,833.71075 28.917594,836.56185 C 20.316892,839.99146 11.916866,843.97581 3.0296157,846.64949 C -5.0578147,849.38335 -13.401686,851.14741 -21.625046,853.40845 C -29.456041,855.66478 -37.274427,857.92853 -44.895514,860.84827 C -52.549893,863.57236 -59.860547,867.21901 -66.97487,871.12837 L -60.352539,865.83113 z" />
    <path
       style="fill:#000000;fill-opacity:1;stroke:#000000;stroke-width:4;stroke-linecap:round;stroke-linejoin:round;stroke-miterlimit:4;stroke-dasharray:none;stroke-dashoffset:0;stroke-opacity:1"
       id="path2435"
       d="M 716.82962,563.3614 C 724.13308,561.3027 731.12968,558.33438 738.20013,555.6091 C 742.34113,554.02281 746.49741,552.68865 750.3151,555.52924 C 752.45027,558.4124 752.35386,562.16012 752.43442,565.59193 C 752.57968,569.35834 751.39902,573.03181 750.38396,576.623 L 742.68661,580.2748 C 743.73323,576.76429 744.94936,573.15108 744.88084,569.46212 C 744.81346,566.33681 745.02546,562.75694 743.12693,560.10164 C 739.4792,557.64578 735.32559,559.46059 731.56188,560.81518 C 724.4702,563.54173 717.43619,566.45109 710.12868,568.56734 L 716.82962,563.3614 z" />
    <path
       style="fill:#000000;fill-opacity:1;stroke:#000000;stroke-width:4;stroke-linecap:round;stroke-linejoin:round;stroke-miterlimit:4;stroke-dasharray:none;stroke-dashoffset:0;stroke-opacity:1"
       id="path2437"
       d="M 558.99574,706.60045 C 561.51195,711.862 564.55527,716.85311 567.63817,721.79748 C 569.97669,724.26675 572.72765,722.25641 561.60593,725.89252 C 561.26435,726.0042 561.81354,725.2022 561.87054,724.84737 C 562.03076,723.85001 562.03458,722.55058 562.066,721.56741 C 562.65587,716.09635 564.60157,710.95829 567.12114,706.10988 C 573.12971,697.45464 583.24105,692.63351 592.66005,688.56394 C 598.27277,686.59923 603.96265,684.94968 609.72313,683.48495 L 603.04664,688.59593 C 597.31226,690.0714 591.63774,691.72543 586.07791,693.77596 C 584.73542,694.37669 583.41134,696.13594 582.05044,695.57816 C 580.84421,695.08378 586.36241,694.29724 585.34901,693.47721 C 584.30611,692.63331 575.63245,701.16063 574.82392,702.64765 C 572.2642,707.3636 570.34699,712.37626 569.64698,717.72687 C 569.58251,722.11843 567.55651,733.41361 560.28844,726.06768 C 557.25827,721.0621 554.23445,716.03773 551.62627,710.79651 L 558.99574,706.60045 z" />
    <path
       style="fill:#000000;fill-opacity:1;stroke:#000000;stroke-width:4;stroke-linecap:round;stroke-linejoin:round;stroke-miterlimit:4;stroke-dasharray:none;stroke-dashoffset:0;stroke-opacity:1"
       id="path2441"
       d="M 589.22226,732.27506 C 596.24821,724.6958 604.62056,719.9535 613.5745,714.97107 C 617.46959,713.2954 621.6026,712.25123 624.63466,715.80597 C 627.65771,718.83658 627.80593,722.80573 627.02526,726.78685 C 625.6375,732.21722 622.89764,737.12033 619.75425,741.7097 C 616.11076,746.39051 611.88699,750.39274 606.93255,753.636 C 601.75929,756.94018 579.6576,769.82945 598.83122,757.70117 C 603.01781,756.75917 607.28113,756.31275 611.55265,755.99 C 615.67306,755.29087 619.52371,756.19843 623.43703,757.39162 C 624.45191,757.73305 625.48719,758.04441 626.44097,758.53713 C 626.50905,758.56244 626.53243,758.63136 626.57816,758.67847 L 619.30117,763.20567 C 619.26976,763.26001 619.38202,763.25309 619.28121,763.24021 C 618.34169,762.83998 617.37944,762.49646 616.40452,762.19229 C 612.55936,761.04163 608.77104,760.36035 604.74361,761.02033 C 600.42282,761.38303 596.16055,762.08074 591.87036,762.63077 C 593.79634,760.88739 595.63889,759.04715 597.6483,757.40061 C 598.46554,756.73095 601.41608,755.5021 600.52533,756.07032 C 589.29764,763.23258 596.68355,758.13226 599.03747,756.70815 C 604.04911,753.57242 608.29931,749.68906 612.01576,745.0778 C 615.17589,740.59532 617.92411,735.80253 619.37815,730.47449 C 620.31305,726.75726 620.22301,723.042 617.35107,720.20581 C 614.49306,717.08108 610.33202,718.79574 606.97511,720.25532 C 608.51001,719.31314 610.09454,718.44739 611.57981,717.42876 C 612.53405,716.77433 609.54005,718.52764 608.5714,719.16056 C 604.29916,721.95206 600.95255,725.79132 597.05251,729.03167 L 589.22226,732.27506 z" />
  </g>
</svg>
