<?xml version="1.0" encoding="UTF-8" standalone="no"?>
<!-- Created with Inkscape (http://www.inkscape.org/) -->
<svg
   xmlns:dc="http://purl.org/dc/elements/1.1/"
   xmlns:cc="http://creativecommons.org/ns#"
   xmlns:rdf="http://www.w3.org/1999/02/22-rdf-syntax-ns#"
   xmlns:svg="http://www.w3.org/2000/svg"
   xmlns="http://www.w3.org/2000/svg"
   xmlns:sodipodi="http://sodipodi.sourceforge.net/DTD/sodipodi-0.dtd"
   xmlns:inkscape="http://www.inkscape.org/namespaces/inkscape"
   width="642.19641"
   height="632.57953"
   id="svg2"
   sodipodi:version="0.32"
   inkscape:version="0.46"
   sodipodi:docname="c17d1.svg"
   inkscape:output_extension="org.inkscape.output.svg.inkscape"
   version="1.0">
  <defs
     id="defs4">
    <inkscape:perspective
       sodipodi:type="inkscape:persp3d"
       inkscape:vp_x="0 : 526.18109 : 1"
       inkscape:vp_y="0 : 1000 : 0"
       inkscape:vp_z="744.09448 : 526.18109 : 1"
       inkscape:persp3d-origin="372.04724 : 350.78739 : 1"
       id="perspective10" />
  </defs>
  <sodipodi:namedview
     id="base"
     pagecolor="#ffffff"
     bordercolor="#666666"
     borderopacity="1.0"
     gridtolerance="10000"
     guidetolerance="10"
     objecttolerance="10"
     inkscape:pageopacity="0.0"
     inkscape:pageshadow="2"
     inkscape:zoom="0.35"
     inkscape:cx="-199.28571"
     inkscape:cy="520"
     inkscape:document-units="px"
     inkscape:current-layer="layer1"
     showgrid="false"
     inkscape:window-width="1280"
     inkscape:window-height="712"
     inkscape:window-x="-5"
     inkscape:window-y="-3" />
  <metadata
     id="metadata7">
    <rdf:RDF>
      <cc:Work
         rdf:about="">
        <dc:format>image/svg+xml</dc:format>
        <dc:type
           rdf:resource="http://purl.org/dc/dcmitype/StillImage" />
      </cc:Work>
    </rdf:RDF>
  </metadata>
  <g
     inkscape:label="Layer 1"
     inkscape:groupmode="layer"
     id="layer1"
     transform="translate(-61.480048,-170.15536)">
    <path
       style="fill:#000000;fill-opacity:1;stroke:#000000;stroke-width:4;stroke-linecap:round;stroke-linejoin:round;stroke-miterlimit:4;stroke-dasharray:none;stroke-dashoffset:0;stroke-opacity:1"
       id="path3155"
       d="M 307.18071,172.15536 C 305.57271,187.46278 304.19769,202.79255 302.59985,218.10176 C 299.33837,248.40584 298.56725,278.89183 297.93552,309.34008 C 296.75537,348.60066 298.08973,387.847 299.76114,427.06815 C 301.36483,467.77015 303.48865,508.45111 305.73457,549.12238 C 307.42848,582.04102 308.90051,614.99775 308.66813,647.96586 C 308.17083,670.40132 307.41511,692.82896 307.07563,715.26781 L 287.92916,724.96807 C 288.62357,702.40005 289.63616,679.84433 290.33996,657.27683 C 290.9004,624.2409 289.63273,591.20373 288.14102,558.2044 C 286.07348,517.48661 284.10981,476.76318 282.35828,436.03071 C 280.62464,396.85424 279.10556,357.65633 280.01524,318.43154 C 280.44535,288.09191 280.99972,257.72161 283.73594,227.48404 C 285.09003,212.46694 286.16451,197.43221 287.105,182.38445 L 307.18071,172.15536 z" />
    <path
       style="fill:#000000;fill-opacity:1;stroke:#000000;stroke-width:4;stroke-linecap:round;stroke-linejoin:round;stroke-miterlimit:4;stroke-dasharray:none;stroke-dashoffset:0;stroke-opacity:1"
       id="path3157"
       d="M 82.111203,314.84986 C 87.401963,315.60898 92.47824,317.13673 97.656758,318.40025 C 103.29672,319.15864 108.81587,320.35854 114.39482,321.4672 C 121.29432,322.40148 128.20151,322.74552 135.08129,323.84068 C 142.89494,324.86999 150.55716,327.00319 157.95884,329.67833 C 165.64703,332.30276 173.34207,334.99033 180.86732,338.05873 C 188.91054,341.14292 196.34036,345.49467 204.07892,349.20945 C 212.04022,353.49622 220.0741,357.6465 228.04742,361.91556 C 236.93693,366.79118 245.58609,372.09615 254.24963,377.3602 C 263.56524,382.84093 272.75374,388.53779 281.80323,394.44726 C 290.51067,400.10155 299.18404,405.81144 307.78863,411.62155 C 316.92457,417.36201 325.59103,423.76059 334.29676,430.11817 C 343.67762,436.55607 353.34021,442.57905 362.95389,448.66258 C 371.44625,454.14808 380.48546,458.73144 389.24154,463.78703 C 397.98363,468.99169 406.44607,474.63868 414.96824,480.18986 C 424.11424,486.01129 433.36947,491.65396 442.62449,497.29966 C 451.45118,501.8525 460.07228,506.72804 468.42299,512.10546 C 475.17922,516.70198 481.94999,521.27101 488.74924,525.80334 C 494.71139,529.76487 500.59591,533.75378 506.10887,538.3335 C 509.93874,541.70235 508.03319,539.98982 511.82452,543.47223 L 492.91111,555.18169 C 489.14445,551.76756 491.03737,553.44265 487.23365,550.15493 C 481.73056,545.68206 475.84976,541.78945 469.98431,537.81515 C 463.22749,533.28661 456.56977,528.6156 449.83581,524.05274 C 441.49485,518.72137 432.85855,513.94086 424.15802,509.22909 C 414.87839,503.57299 405.60328,497.91254 396.42505,492.09286 C 387.92186,486.57356 379.47997,480.95557 370.74422,475.80466 C 361.95487,470.77775 352.91554,466.15111 344.46796,460.55882 C 334.83102,454.43712 325.16813,448.34091 315.7548,441.88011 C 307.05348,435.53795 298.30856,429.27477 289.21469,423.49784 C 280.62501,417.68886 271.95925,411.99066 263.26422,406.34121 C 254.24165,400.43696 245.07278,394.75468 235.76633,389.30848 C 227.10344,384.07962 218.44765,378.81937 209.53109,374.03154 C 201.5549,369.8144 193.58051,365.59651 185.59522,361.401 C 177.91824,357.62563 170.41613,353.4891 162.40308,350.42419 C 154.86871,347.43985 147.22675,344.69884 139.54171,342.13105 C 132.17232,339.61906 124.6063,337.5835 116.85978,336.65702 C 109.92927,335.61762 102.92407,335.46944 96.014963,334.26547 C 90.423546,333.10219 84.807874,332.20327 79.203951,331.12609 C 73.996751,329.78462 68.804374,328.50693 63.480048,327.70089 L 82.111203,314.84986 z" />
    <path
       style="fill:#000000;fill-opacity:1;stroke:#000000;stroke-width:4;stroke-linecap:round;stroke-linejoin:round;stroke-miterlimit:4;stroke-dasharray:none;stroke-dashoffset:0;stroke-opacity:1"
       id="path3159"
       d="M 469.32842,602.96243 C 465.68585,599.53276 462.50394,596.07467 460.5217,591.44519 C 458.9461,586.80532 458.39868,581.9637 458.79568,577.0982 C 459.78923,570.48612 462.26094,564.21032 464.68577,558.01548 C 468.08523,549.68717 473.03784,542.17326 478.04649,534.75164 C 483.55596,527.20745 488.64945,519.31614 495.24295,512.66128 C 506.75858,502.00689 520.29303,495.00497 533.87254,487.17647 C 539.68402,483.88372 545.97123,481.58158 552.55696,480.51181 C 557.15763,479.79156 561.51612,479.76662 565.9926,480.97737 C 570.56479,482.85125 574.86373,485.28938 578.55876,488.58433 C 583.22553,491.87669 586.59874,496.3332 589.77816,500.9905 C 593.8746,506.82542 596.92246,513.3646 599.95176,519.8048 C 602.82177,526.95575 603.8899,534.56546 603.71697,542.2243 C 603.3404,549.67648 602.2772,556.9975 600.23366,564.16947 C 598.32483,571.15222 595.41189,577.79137 592.52986,584.41245 C 589.19681,591.23116 585.5622,597.96724 580.91968,603.9896 C 576.84706,608.84637 572.40068,613.23565 567.28782,616.9758 C 556.17372,625.44216 545.05261,631.78434 531.54054,633.01946 C 524.93336,633.5093 518.43182,633.40401 511.90392,632.333 C 505.66499,631.43791 499.71544,629.13708 494.04405,626.4551 C 487.99169,623.82537 482.27146,620.40048 476.82331,616.68632 C 471.07785,612.29535 467.10031,606.6639 464.57675,599.95559 C 464.22621,598.54578 463.87567,597.13597 463.52513,595.72616 L 483.04251,585.17607 C 483.37007,586.4995 483.69764,587.82293 484.02521,589.14636 C 486.38919,595.40798 490.19762,600.63737 495.61581,604.65918 C 501.04727,608.22991 506.68463,611.55666 512.67619,614.10205 C 518.2816,616.57163 524.06805,618.7193 530.18643,619.46988 C 536.60539,620.38136 543.06783,620.2716 549.51946,619.65039 C 560.95152,618.14712 571.24983,610.40267 543.8772,626.6668 C 543.02163,627.17517 545.61122,625.68959 546.47823,625.20099 C 551.64049,621.56661 556.32139,617.57815 560.40168,612.72167 C 565.36673,607.07752 568.79966,600.31919 572.29155,593.70428 C 575.11662,587.13166 578.16503,580.61636 580.10293,573.71178 C 582.22929,566.70367 583.45244,559.5657 583.88077,552.24512 C 584.22691,544.94028 583.20953,537.62819 580.54565,530.78323 C 577.61714,524.43339 574.60582,518.00788 570.48743,512.3346 C 567.36282,507.8464 564.01681,503.65011 559.49982,500.45801 C 555.94619,497.50738 551.87131,495.17418 547.45017,493.79013 C 543.20505,492.89732 538.90863,493.3405 534.65136,494.0377 C 528.265,495.41531 522.20863,497.84153 516.55766,501.13617 C 550.10482,481.39475 522.27056,497.63437 515.73484,504.23901 C 508.74337,510.43711 503.90894,518.50316 498.30734,525.91208 C 493.30604,533.17092 488.3794,540.52983 484.87947,548.65816 C 482.52092,554.6814 480.05588,560.73626 478.9271,567.13341 C 478.22902,571.58728 478.87228,576.13879 480.12311,580.45426 C 481.93141,584.8475 485.08485,588.02633 488.621,591.13992 L 469.32842,602.96243 z" />
    <path
       style="fill:#000000;fill-opacity:1;stroke:#000000;stroke-width:4;stroke-linecap:round;stroke-linejoin:round;stroke-miterlimit:4;stroke-dasharray:none;stroke-dashoffset:0;stroke-opacity:1"
       id="path3161"
       d="M 574.99265,543.78998 C 572.06936,548.47028 568.8255,552.93983 565.64046,557.44224 L 545.66535,566.13166 C 548.65284,561.78821 551.78474,557.51691 554.38534,552.92345 L 574.99265,543.78998 z" />
    <path
       style="fill:#000000;fill-opacity:1;stroke:#000000;stroke-width:4;stroke-linecap:round;stroke-linejoin:round;stroke-miterlimit:4;stroke-dasharray:none;stroke-dashoffset:0;stroke-opacity:1"
       id="path3163"
       d="M 560.98534,500.76358 C 556.54046,511.82791 549.89669,521.7662 543.46851,531.74198 C 531.93543,547.99875 520.33131,564.21059 508.62619,580.34485 L 489.12553,588.78028 C 500.83459,572.78249 512.25806,556.57184 523.74545,540.41488 C 529.91655,530.7155 536.48508,521.07737 540.50475,510.23556 L 560.98534,500.76358 z" />
    <path
       style="fill:#000000;fill-opacity:1;stroke:#000000;stroke-width:4;stroke-linecap:round;stroke-linejoin:round;stroke-miterlimit:4;stroke-dasharray:none;stroke-dashoffset:0;stroke-opacity:1"
       id="path3165"
       d="M 572.20275,529.26003 C 566.95949,537.3416 562.19234,545.74715 557.3112,554.05838 C 553.5104,561.18444 549.38261,568.12292 545.22939,575.04619 L 525.56201,583.76414 C 529.6728,576.8997 533.82782,570.05223 537.4363,562.90355 C 542.137,554.67799 546.89509,546.4974 551.46096,538.19844 L 572.20275,529.26003 z" />
    <path
       style="fill:#000000;fill-opacity:1;stroke:#000000;stroke-width:4;stroke-linecap:round;stroke-linejoin:round;stroke-miterlimit:4;stroke-dasharray:none;stroke-dashoffset:0;stroke-opacity:1"
       id="path3167"
       d="M 347.33976,616.04418 C 352.09993,614.74223 356.75629,616.54976 361.21425,618.11391 C 365.61282,620.0022 367.88205,624.15424 369.92157,628.23998 C 371.79682,632.00972 372.69598,636.16473 372.50452,640.35573 C 372.09631,644.27381 370.62872,647.77286 368.23226,650.86851 C 366.07619,653.62178 363.64172,656.13074 361.22204,658.64874 C 357.67936,661.85595 354.00047,664.90394 350.32123,667.95119 C 345.96563,672.0876 341.23578,675.79715 336.34757,679.27745 C 325.279,686.87343 279.26796,712.76835 318.69026,690.08578 C 305.84774,697.74609 293.63866,707.05516 279.1787,711.33951 C 272.06965,712.94442 265.08558,715.10703 257.74933,714.99426 C 250.56288,714.91216 243.68531,713.41102 237.23022,710.2886 C 231.29633,707.11251 226.06736,703.38191 222.26983,697.77427 C 219.17937,693.93444 217.23615,689.50594 216.26841,684.70784 C 215.59193,681.0987 215.61705,677.42136 215.58667,673.76575 C 215.88985,669.66723 217.56499,665.94127 219.09927,662.19563 C 220.19397,658.84907 222.05469,655.848 223.18671,652.51851 C 223.56095,651.35766 223.82397,650.16734 224.06823,648.97413 C 224.19795,648.45741 224.15198,648.74409 224.17418,648.10957 L 244.46766,637.77715 C 244.48755,638.51949 244.46128,638.14661 244.54798,638.89569 C 244.3779,640.24815 244.01582,641.56627 243.647,642.87709 C 242.60731,646.34822 240.8435,649.40782 239.57204,652.75738 C 238.09244,656.29201 236.44934,659.72203 235.70965,663.51315 C 235.67858,667.04835 235.67106,670.60176 236.13947,674.11249 C 236.92984,678.66106 238.6837,682.80031 241.58716,686.43696 C 245.13886,691.69001 250.23863,695.09282 255.83457,697.96028 C 262.15308,700.7075 268.8378,701.97898 275.74556,701.86091 C 282.92286,701.43432 289.85695,699.5256 296.7878,697.69399 C 304.64526,694.99206 316.50023,687.70451 288.08795,704.20751 C 277.36905,710.43348 308.43846,692.39373 297.92727,698.06875 C 305.38589,693.75692 312.81907,689.40081 320.30312,685.13326 C 325.6251,682.09856 309.71419,691.2982 304.4136,694.37012 C 303.4582,694.92382 306.33528,693.27988 307.26749,692.68797 C 310.02232,690.93881 312.64696,688.97164 315.56364,687.4787 C 320.41619,684.05192 325.2967,680.5899 329.52946,676.40055 C 333.00416,673.19957 336.85103,670.40492 340.35231,667.21199 C 342.99318,665.00362 345.26791,662.30218 347.41361,659.64413 C 350.05382,657.02882 351.71006,654.09096 352.32529,650.38403 C 352.95811,646.63766 351.90971,642.8029 350.36601,639.37702 C 348.53965,635.74843 346.64929,632.12449 342.56714,630.73222 C 338.33696,629.28055 333.92622,628.0093 329.68006,630.17028 L 347.33976,616.04418 z" />
    <path
       style="fill:#000000;fill-opacity:1;stroke:#000000;stroke-width:4;stroke-linecap:round;stroke-linejoin:round;stroke-miterlimit:4;stroke-dasharray:none;stroke-dashoffset:0;stroke-opacity:1"
       id="path3169"
       d="M 207.49961,636.57494 C 211.85483,635.57531 216.30997,634.31505 220.26692,632.19422 C 220.95533,631.8742 222.98871,630.85301 222.33216,631.23415 C 216.53827,634.59769 210.69869,637.8824 204.84769,641.14558 C 204.22456,641.49311 206.02719,640.34007 206.64497,639.98312 C 213.69374,635.91039 220.79921,631.93624 227.8448,627.85801 C 233.66139,624.49116 216.18541,634.54647 210.33201,637.84893 C 209.71853,638.19505 211.52624,637.10163 212.12335,636.72797 C 222.10284,646.04474 227.17468,624.24076 236.3087,623.52003 C 238.08422,623.37993 239.82581,624.22036 241.31274,625.02549 C 244.90409,626.93333 247.02005,630.4574 249.37829,633.62217 C 251.20255,636.70137 252.4008,640.04568 254.12665,643.18451 C 256.15944,646.45676 258.42651,649.73187 261.46946,652.13555 C 263.81787,654.70397 266.4411,656.9623 268.91367,659.37968 C 269.45784,659.7393 273.61793,662.91606 274.11322,662.75933 C 274.36043,662.68111 274.36962,662.30856 274.49782,662.08318 C 255.28198,672.6463 250.4428,677.41032 256.49898,671.62587 L 277.17532,662.40598 C 274.3142,671.44372 277.15511,663.69613 256.24907,675.63305 C 253.80345,674.61057 251.73671,672.88517 249.68342,671.23289 C 247.16063,668.91569 244.7539,666.51167 242.3369,664.0808 C 239.25733,661.32383 236.72068,657.97807 234.59808,654.43778 C 232.83511,651.40771 231.64777,648.17599 229.97291,645.11472 C 227.8649,642.2149 225.92404,639.04484 222.5098,637.5546 C 221.44643,637.24423 220.96476,636.98446 219.84885,637.10416 C 213.23772,637.81334 194.86114,653.97545 233.13747,628.62335 C 224.35473,633.64568 230.92601,629.88063 210.28538,641.94605 C 204.50551,645.32466 221.84868,635.19495 227.63033,631.81939 C 227.02739,632.19976 226.43666,632.60023 225.8215,632.9605 C 218.8009,637.07219 211.78886,641.19925 204.72413,645.23464 C 204.0658,645.61068 203.34815,645.87176 202.66015,646.19032 C 198.37777,647.87831 194.03042,649.36724 189.52021,650.32304 L 207.49961,636.57494 z" />
    <path
       style="fill:#000000;fill-opacity:1;stroke:#000000;stroke-width:4;stroke-linecap:round;stroke-linejoin:round;stroke-miterlimit:4;stroke-dasharray:none;stroke-dashoffset:0;stroke-opacity:1"
       id="path3171"
       d="M 403.92896,705.29228 C 397.33273,709.34933 386.13181,714.35639 416.99249,698.07919 C 417.82349,697.64089 415.4961,699.21653 414.77256,699.81582 C 412.82456,701.42932 412.58273,701.76453 410.77669,703.58568 C 407.14089,707.56328 405.37274,712.74874 403.51531,717.71452 C 402.36089,721.02632 401.39316,724.41418 402.20186,727.88739 C 403.60578,730.27562 407.62205,729.18139 410.02073,729.07353 C 418.38673,726.20629 435.72239,715.56393 401.66665,734.93834 C 448.44194,707.90453 413.31584,728.26771 405.16447,732.76215 C 404.55947,733.09573 406.2714,731.93507 406.83126,731.53027 C 408.3339,730.44384 409.63855,729.45292 410.9488,728.13313 C 417.32317,721.27797 428.33187,709.61666 437.10193,712.78621 C 440.00706,715.05205 442.47183,717.81387 444.9458,720.54578 C 447.75598,724.32708 451.76117,726.61935 455.72658,728.97015 C 459.4836,731.25688 462.51067,730.16624 466.24251,728.47925 C 474.08655,723.42438 465.62457,728.92304 450.58122,737.31825 C 449.93757,737.67744 451.80481,736.49462 452.39194,736.049 C 454.34939,734.56333 456.13222,732.87172 457.92854,731.20073 C 461.30778,727.8219 463.81921,723.74989 466.4899,719.8238 C 468.12326,717.4478 469.22963,714.80331 469.70807,711.96636 C 470.23872,709.45759 468.76134,707.45821 467.45905,705.4263 L 486.87318,694.05684 C 488.47643,696.40277 490.48684,698.9901 490.05169,701.95835 C 489.68637,705.07496 488.86373,708.12356 487.10688,710.77338 C 484.54931,714.89741 481.7128,718.8382 478.70126,722.65713 C 469.99017,731.13038 460.1692,737.92235 448.52012,742.39078 C 444.25274,743.80721 440.67358,743.71198 436.81633,741.19465 C 432.72557,738.66561 428.71708,736.08531 425.71486,732.22508 C 423.63756,730.02035 421.44657,727.04598 418.5861,725.92773 C 410.93211,728.15943 417.37525,726.34361 436.61515,715.28014 C 436.98508,715.06742 435.89161,715.73318 435.53881,715.97324 C 434.11019,716.94532 432.68342,717.90665 431.73844,719.39798 C 422.41942,730.72053 381.77098,748.58213 422.68049,726.82127 C 414.62971,731.45125 402.70675,740.68933 391.84196,742.38321 C 388.05394,742.49167 384.18786,742.60705 382.32256,738.65857 C 381.23346,734.77863 381.77197,731.00558 383.15852,727.22031 C 384.93646,722.03076 386.89511,716.68544 390.09691,712.21097 C 398.68191,702.82318 410.09593,696.15774 421.90836,691.54418 L 403.92896,705.29228 z" />
    <path
       style="fill:#000000;fill-opacity:1;stroke:#000000;stroke-width:4;stroke-linecap:round;stroke-linejoin:round;stroke-miterlimit:4;stroke-dasharray:none;stroke-dashoffset:0;stroke-opacity:1"
       id="path3173"
       d="M 644.15001,491.69725 C 642.83011,496.1225 642.22806,500.70481 641.80604,505.28916 C 641.44119,510.43126 641.39401,515.591 641.4208,520.74403 C 641.44445,524.45623 641.45703,528.1687 641.49879,531.88075 C 641.66564,541.14032 644.60578,533.69307 621.30157,543.3762 C 620.50436,543.70745 621.3341,541.64992 621.34917,540.78676 C 621.8731,535.61552 624.10005,530.85521 626.1345,526.13961 C 628.51264,520.98824 631.76008,516.1957 635.4578,511.89711 C 643.42862,504.94785 653.90066,493.41795 664.17975,499.18742 C 668.18432,502.47321 668.96689,507.54787 669.57695,512.40033 C 669.8889,517.23938 670.51229,522.13579 669.4488,526.9127 C 666.66475,535.837 668.39545,530.68671 648.13098,537.79897 C 647.66155,537.96373 648.10144,536.80201 648.14634,536.30654 C 648.27542,534.88184 648.65717,533.84671 649.05467,532.43554 C 650.75378,526.39444 653.30929,520.69733 656.40886,515.25968 C 663.49612,503.65542 674.32302,499.91192 686.45126,492.86926 C 691.50237,492.00589 694.42639,494.96976 697.18399,498.78742 C 700.44788,504.251 700.79665,510.67809 701.2048,516.87274 C 701.58649,520.68484 701.31527,524.53895 701.62993,528.35195 C 701.64543,528.41843 701.66093,528.48491 701.67643,528.55139 L 681.26242,538.77596 C 681.28537,538.7347 681.30831,538.69345 681.33126,538.6522 C 681.75638,534.83881 681.3323,530.95515 681.36509,527.13325 C 681.0477,521.37861 680.8517,515.34312 677.85111,510.2474 C 675.448,507.10963 672.89587,505.0298 668.93424,507.02566 C 701.3459,488.09229 682.76964,496.96416 676.85486,506.18514 C 673.64464,511.39143 670.94458,516.86577 669.39325,522.81236 C 669.31922,523.04049 668.54716,526.98753 668.18992,527.19115 C 661.52267,530.99134 654.63534,534.39169 647.85805,537.99196 C 648.87609,537.58399 648.38222,537.9433 649.04247,536.59401 C 650.67401,532.15887 649.96285,527.46069 649.70983,522.82156 C 649.26627,518.86401 648.96598,514.12115 645.36041,511.69379 C 644.35581,511.39356 643.82344,511.10266 642.76372,511.27099 C 642.3223,511.34111 641.10794,511.92349 641.4911,511.69334 C 673.48619,492.47508 662.71057,498.82966 656.21151,503.25842 C 652.13913,507.00113 649.14141,512.00459 646.47071,516.78788 C 644.58573,521.28262 642.41234,525.68793 641.50831,530.51565 C 641.52304,531.36372 642.28026,532.62123 641.55427,533.05982 C 617.60703,547.52708 621.24148,551.51688 621.34591,542.15361 C 621.3745,538.41538 621.36598,534.67691 621.3984,530.93866 C 621.45506,525.73499 621.39985,520.52668 621.69399,515.32871 C 622.03633,510.67101 622.6371,506.01989 623.73789,501.47551 L 644.15001,491.69725 z" />
    <path
       style="fill:#000000;fill-opacity:1;stroke:#000000;stroke-width:4;stroke-linecap:round;stroke-linejoin:round;stroke-miterlimit:4;stroke-dasharray:none;stroke-dashoffset:0;stroke-opacity:1"
       id="path3175"
       d="M 610.57304,624.23779 C 613.4217,621.80674 615.3201,618.5844 617.48899,615.59369 C 623.79463,609.62349 631.5037,602.97406 640.22962,602.52351 C 641.47437,603.0207 641.61909,604.58981 641.55372,605.77294 C 639.60642,609.55135 637.39377,613.13324 634.95306,616.641 C 629.10277,625.64727 622.11469,633.8423 615.07532,641.92753 C 607.47356,650.44336 599.54319,658.65622 591.54726,666.8001 C 586.72865,671.73118 581.66263,676.42423 576.26657,680.71731 C 574.46311,682.1581 572.6571,683.59579 570.86345,685.04879 C 564.69583,690.14641 576.21114,682.95707 549.78353,694.02657 L 570.06862,683.73364 C 532.79548,701.81613 543.46375,698.20651 549.70303,693.51998 C 551.6211,692.05289 553.52078,690.56189 555.421,689.07181 C 560.903,684.74329 566.29595,680.31353 571.14472,675.26575 C 579.22607,667.13403 587.27422,658.96183 594.93332,650.42734 C 601.89705,642.5194 608.8336,634.46656 614.49948,625.56544 C 616.80218,622.11244 619.52058,618.88506 620.67484,614.83883 C 621.41299,615.021 622.18092,615.61659 622.09847,616.38295 C 614.03669,622.03205 648.74644,601.25717 638.40871,606.91834 C 635.39867,609.05601 634.48602,613.32752 631.47754,615.57886 L 610.57304,624.23779 z" />
    <path
       style="fill:#000000;fill-opacity:1;stroke:#000000;stroke-width:4;stroke-linecap:round;stroke-linejoin:round;stroke-miterlimit:4;stroke-dasharray:none;stroke-dashoffset:0;stroke-opacity:1"
       id="path3177"
       d="M 564.15001,648.84011 C 562.1071,654.45809 560.45027,660.19742 557.96869,665.64492 C 556.06951,669.75106 554.2325,673.8677 552.2315,677.92472 C 550.88638,680.65599 548.48818,683.00163 548.55942,686.18708 C 548.86146,688.76017 552.39784,688.37903 554.41214,688.53311 C 557.91962,688.57937 561.51486,689.06738 564.92483,688.14396 C 569.9562,686.68761 574.84249,684.70139 579.77472,682.90802 C 584.9625,681.20382 590.01834,679.21478 595.33123,677.90131 C 598.23031,677.29864 601.16603,677.12123 604.11585,677.05949 C 613.69746,677.054 607.03893,676.45249 586.86405,690.46135 L 605.2307,677.08049 C 588.07601,690.10579 594.73551,690.35399 585.78838,690.45514 C 582.97871,690.55771 580.17942,690.90205 577.44986,691.59453 C 572.24421,692.99136 567.25256,695.01506 562.13873,696.7023 C 557.1514,698.5814 552.14414,700.59221 546.92623,701.7107 C 543.29532,702.05948 539.62242,701.95282 535.99317,701.59684 C 532.79832,701.11791 529.04874,700.40658 528.47276,696.63183 C 527.95198,692.57389 529.34329,690.47322 531.66501,687.23387 C 533.72091,683.14196 535.75716,679.10707 537.58141,674.898 C 540.2705,669.69417 541.80257,664.12082 543.73789,658.61837 L 564.15001,648.84011 z" />
    <path
       style="fill:#000000;fill-opacity:1;stroke:#000000;stroke-width:4;stroke-linecap:round;stroke-linejoin:round;stroke-miterlimit:4;stroke-dasharray:none;stroke-dashoffset:0;stroke-opacity:1"
       id="path3179"
       d="M 564.34775,723.22985 C 564.10687,730.65122 564.38665,738.07636 563.86771,745.48515 C 562.9404,753.27495 562.39547,761.09305 560.96609,768.81088 C 559.84468,774.22147 559.1489,779.70284 558.80933,785.21482 C 561.65135,794.19927 535.58864,806.97507 539.15782,796.40591 L 559.56704,786.72641 C 557.26254,796.05348 535.11019,807.81076 538.66522,795.30281 C 539.10108,789.68275 539.728,784.07213 540.90689,778.55243 C 542.45803,770.89398 543.08892,763.15174 544.02019,755.39676 C 544.69277,748.11381 544.31242,740.79033 544.22368,733.48358 L 564.34775,723.22985 z" />
    <path
       style="fill:#000000;fill-opacity:1;stroke:#000000;stroke-width:4;stroke-linecap:round;stroke-linejoin:round;stroke-miterlimit:4;stroke-dasharray:none;stroke-dashoffset:0;stroke-opacity:1"
       id="path3181"
       d="M 573.53977,709.13557 C 578.19901,710.75522 582.81195,712.41302 587.66217,713.42835 C 592.51793,713.71503 597.13809,714.77367 601.86118,715.83935 C 605.22684,716.65522 608.67566,716.96682 612.12601,717.11741 C 613.47712,717.10869 614.84516,717.2403 616.19317,717.10779 L 597.73921,730.51807 C 596.39665,730.45409 595.04737,730.43935 593.70725,730.31169 C 590.22726,729.99535 586.76076,729.53233 583.3738,728.64332 C 578.67274,727.54334 573.96272,726.92427 569.19199,726.22271 C 564.35882,725.02345 559.72443,723.22068 554.90862,721.98661 L 573.53977,709.13557 z" />
    <path
       style="fill:#000000;fill-opacity:1;stroke:#000000;stroke-width:4;stroke-linecap:round;stroke-linejoin:round;stroke-miterlimit:4;stroke-dasharray:none;stroke-dashoffset:0;stroke-opacity:1"
       id="path4110"
       d="M 508.45886,574.99204 C 513.70277,577.0767 519.28337,578.14351 524.57894,580.02721 C 528.80117,581.13006 532.74892,582.7202 536.73897,584.44673 C 539.69466,585.10515 542.31303,586.54066 544.90977,588.04706 C 546.11368,588.40174 545.51308,588.23864 546.71124,588.53758 L 527.90178,601.34047 C 526.54368,600.82669 527.23635,601.12409 525.83027,600.43333 C 523.30123,598.97008 520.63517,597.91738 517.86244,597.0046 C 513.96608,595.27655 509.96826,593.94189 505.88776,592.7083 C 500.59287,591.0633 495.27358,589.45149 489.92802,587.99341 L 508.45886,574.99204 z"
       transform="translate(61.480048,170.15536)" />
  </g>
</svg>
