<?xml version="1.0" encoding="UTF-8" standalone="no"?>
<!-- Created with Inkscape (http://www.inkscape.org/) -->
<svg
   xmlns:dc="http://purl.org/dc/elements/1.1/"
   xmlns:cc="http://creativecommons.org/ns#"
   xmlns:rdf="http://www.w3.org/1999/02/22-rdf-syntax-ns#"
   xmlns:svg="http://www.w3.org/2000/svg"
   xmlns="http://www.w3.org/2000/svg"
   xmlns:sodipodi="http://sodipodi.sourceforge.net/DTD/sodipodi-0.dtd"
   xmlns:inkscape="http://www.inkscape.org/namespaces/inkscape"
   width="747.46112"
   height="278.6907"
   id="svg2"
   sodipodi:version="0.32"
   inkscape:version="0.46+devel"
   version="1.0"
   sodipodi:docname="c22d1.svg"
   inkscape:output_extension="org.inkscape.output.svg.inkscape">
  <defs
     id="defs4">
    <inkscape:perspective
       sodipodi:type="inkscape:persp3d"
       inkscape:vp_x="0 : 526.18109 : 1"
       inkscape:vp_y="0 : 1000 : 0"
       inkscape:vp_z="744.09448 : 526.18109 : 1"
       inkscape:persp3d-origin="372.04724 : 350.78739 : 1"
       id="perspective10" />
  </defs>
  <sodipodi:namedview
     id="base"
     pagecolor="#ffffff"
     bordercolor="#666666"
     borderopacity="1.0"
     inkscape:pageopacity="0.0"
     inkscape:pageshadow="2"
     inkscape:zoom="0.35"
     inkscape:cx="340.87795"
     inkscape:cy="-73.340713"
     inkscape:document-units="px"
     inkscape:current-layer="layer1"
     showgrid="false"
     inkscape:window-width="1280"
     inkscape:window-height="712"
     inkscape:window-x="-5"
     inkscape:window-y="-3" />
  <metadata
     id="metadata7">
    <rdf:RDF>
      <cc:Work
         rdf:about="">
        <dc:format>image/svg+xml</dc:format>
        <dc:type
           rdf:resource="http://purl.org/dc/dcmitype/StillImage" />
        <dc:title></dc:title>
      </cc:Work>
    </rdf:RDF>
  </metadata>
  <g
     inkscape:label="Layer 1"
     inkscape:groupmode="layer"
     id="layer1"
     transform="translate(-34.122046,-180.33077)">
    <path
       style="fill:#000000;fill-opacity:1;stroke:#000000;stroke-width:4.69999981;stroke-linecap:round;stroke-linejoin:round;stroke-miterlimit:4;stroke-opacity:1;stroke-dasharray:none;stroke-dashoffset:0"
       id="path2694"
       d="m 135.60018,306.64404 c -1.00389,-3.30408 -2.89886,-7.78447 -0.85593,-11.10139 16.13167,-6.25606 3.49108,1.48024 -1.69287,2.95144 -0.80518,0.22851 -1.26214,-2.22657 -1.32405,-2.45664 0.0103,-5.5558 5.75796,-10.31879 11.33134,-10.22236 3.33681,1.93663 1.00839,6.39251 -0.2324,8.98364 -2.2458,4.75646 -9.09553,13.94653 -15.01728,12.10749 -1.80455,-4.33535 1.71947,-10.0019 3.95345,-13.6342 5.07875,-6.70996 13.00533,-11.8979 21.11309,-14.07583 4.45142,-0.37421 6.89336,2.34246 7.23614,6.53575 -0.39568,7.91641 -7.50728,10.14823 -13.68517,13.58642 -3.96873,1.71132 -5.76652,-1.11173 -6.76193,-4.56183 -0.97086,-3.92284 -0.36313,-7.22952 2.53533,-10.08421 3.05149,-2.48683 11.62563,-8.33048 12.21773,-0.84172 -0.11652,2.92992 -1.49118,5.3178 -2.94849,7.75205 -0.086,2.04361 -1.1813,3.43773 -2.60759,4.89369 -3.9028,2.55102 -9.82979,7.7904 -15.26442,6.45103 -2.69325,-1.12504 -2.85116,-3.87318 -2.2866,-6.35924 2.11445,-4.27637 8.66193,-10.55158 13.2466,-7.34298 2.26795,2.18702 1.1973,4.93803 -0.33483,7.19791 -4.21788,3.70668 -8.82489,7.06705 -14.41783,5.11524 -1.79642,-0.62157 -2.10998,-1.28842 -0.64697,-2.58988 0,0 7.88026,-3.29527 7.88026,-3.29527 l 0,0 c -1.27085,1.61427 -2.54329,-0.0232 -0.17425,1.0898 1.74293,0.52959 3.28786,0.49314 3.2193,0.55043 -9.79539,8.18493 -6.72412,3.93022 -3.67817,2.50737 1.34957,-1.68969 3.03613,-4.10129 0.99398,-5.93238 -0.51722,-0.22082 -2.13101,0.12477 -1.67477,-0.20406 11.69169,-8.42672 4.98856,-3.55933 3.26632,-0.77409 -0.55359,1.99842 -0.922,4.40222 1.58592,5.14211 1.36207,0.10491 2.56379,-0.12269 3.86845,-0.55883 0.43889,-0.14672 1.67344,-0.77551 1.28662,-0.5215 -14.86021,9.75818 -6.04167,3.64912 -4.74689,2.74648 1.48446,-1.2109 3.14993,-2.64504 2.68002,-4.62822 1.26808,-2.41401 3.06622,-4.46334 3.15797,-7.36231 0.54836,-6.12485 -10.76583,2.11664 3.25873,-6.23439 -3.13029,2.36778 -3.83532,5.45334 -2.94483,9.21622 0.8955,3.33254 2.40801,5.05147 5.93758,3.343 -11.3484,7.00264 -0.58919,1.73731 -0.51094,-4.40455 -0.0723,-3.86559 -2.47975,-5.90536 -6.3999,-5.25915 -4.50845,1.40903 -2.16797,0.89535 2.68698,-2.44064 0.74294,-0.51049 -1.58493,0.86207 -2.3461,1.34496 -2.76926,1.75684 -5.15108,3.87388 -7.01466,6.59825 -2.1844,3.31828 -4.98809,7.97218 -4.70737,12.10218 2.75373,-0.42648 2.07811,-0.39985 -5.29375,3.48882 -0.61014,0.32186 1.08823,-0.85034 1.59703,-1.31617 1.80802,-1.6553 3.13436,-3.54758 4.01251,-5.85016 0.83341,-1.60317 3.7459,-6.34268 1.10353,-7.4064 -3.08985,0.65621 -3.03939,0.75519 5.33412,-3.70684 0.36576,-0.19491 -0.52744,0.64034 -0.76776,0.978 -0.84039,1.18074 -1.5886,2.33853 -1.52816,3.84517 0.0443,0.31304 -0.009,0.65665 0.13281,0.93913 0.14642,0.29126 0.93149,0.47728 0.68849,0.6946 -1.90602,1.70456 -4.2018,2.91553 -6.32261,4.34402 -0.23936,0.16122 0.50703,-0.30692 0.67612,-0.5408 0.16099,-0.22266 0.0418,-0.63357 0.27638,-0.7766 2.58265,-1.57459 5.33704,-2.84847 8.00556,-4.2727 -3.14372,0.55489 -0.21623,8.7123 0.33674,10.15669 0,0 -7.43258,4.09345 -7.43258,4.09345 z" />
    <path
       style="fill:#000000;fill-opacity:1;stroke:#000000;stroke-width:4.69999981;stroke-linecap:round;stroke-linejoin:round;stroke-miterlimit:4;stroke-opacity:1;stroke-dasharray:none;stroke-dashoffset:0"
       id="path2696"
       d="m 605.90357,303.02953 c -6.50828,-1.71538 -13.13384,-3.55751 -18.61272,-7.58145 -3.84799,-3.5942 -4.87004,-7.52527 -2.56344,-12.24509 4.68075,-5.49309 12.02955,-10.42033 19.37147,-8.39022 4.68952,2.73479 6.00762,7.18422 5.67129,12.32067 -2.4305,9.94685 -8.46956,12.47454 -17.01881,17.40663 -5.96375,1.34367 -9.50836,-2.74727 -11.09106,-8.00723 -1.4573,-7.18815 1.50208,-12.69119 6.81754,-17.25704 7.7008,-4.9912 15.88718,-10.2871 25.24531,-8.07028 5.19764,2.73046 6.72859,5.92519 4.6192,11.37621 -4.74119,7.03173 -12.99151,11.59921 -21.00162,13.87359 -5.33307,0.76285 -8.91467,-0.38134 -11.36101,-5.2162 -1.26912,-3.28662 -0.53333,-6.63927 2.20716,-8.87018 2.8654,-1.35016 5.58094,-3.08007 8.59619,-4.05049 2.12443,-0.68371 3.33584,7.48407 3.35466,8.627 -0.077,5.68794 -5.26116,14.67044 -12.36666,11.16544 -0.48347,-0.37088 -0.96694,-0.74176 -1.45041,-1.11263 0,0 7.17994,-4.55491 7.17994,-4.55491 l 0,0 c 0.44292,0.30447 0.88584,0.60893 1.32876,0.9134 3.46066,0.73343 2.22793,0.17143 -4.80486,4.00925 -0.46898,0.25593 0.8608,-0.65618 1.18027,-1.08441 1.17231,-1.57142 1.05027,-3.66049 1.36823,-5.48628 0.057,-2.05219 -0.099,-3.936 -1.01254,-5.82615 -0.2008,-0.41549 -0.43809,-0.82911 -0.76779,-1.152 -0.24423,-0.23918 -1.1644,-0.26383 -0.90366,-0.48489 1.8899,-1.60232 4.15993,-2.69289 6.23989,-4.03934 -2.96861,1.32187 -3.83346,4.81334 -2.76366,7.7402 2.24444,4.52813 5.82804,5.14764 10.66828,4.25467 0.91791,-0.29112 3.38177,-1.60337 2.75374,-0.87336 -1.18834,1.38131 -3.12758,1.88483 -4.57555,2.99098 -0.77739,0.59387 1.73872,-0.90518 2.55365,-1.44639 1.74224,-1.15704 2.93681,-2.27317 4.3115,-3.83638 0.55932,-0.63602 1.04501,-1.33321 1.56751,-1.99982 2.28364,-4.91583 1.12472,-7.70882 -3.87098,-10.08848 -3.10681,-0.59011 -5.57016,-0.5351 -8.66022,0.28265 -1.03252,0.27325 -3.61254,1.87299 -3.05672,0.96094 0.87834,-1.44129 2.96008,-1.68423 4.19721,-2.83239 0.82996,-0.77027 -1.969,1.11875 -2.9535,1.67812 -5.32559,4.20241 -8.5465,9.31453 -7.21701,16.35785 1.39187,4.94615 4.81276,8.55942 10.26749,6.74135 -1.70077,1.02636 -3.32523,2.19139 -5.10232,3.07909 -0.74641,0.37285 1.37351,-0.95683 1.98662,-1.52272 2.88984,-2.66726 4.97341,-6.06414 5.96017,-9.8652 0.48166,-4.69368 -0.57896,-8.96017 -5.08206,-11.27249 -1.91517,-0.38246 -1.95619,-0.55527 -3.99514,-0.24159 -0.70683,0.10874 -2.61471,0.99541 -2.08185,0.51845 1.46228,-1.30886 3.30942,-2.11113 4.9912,-3.12256 0.67922,-0.40849 -1.3705,0.80923 -1.98237,1.31304 -0.58168,0.47894 -1.05198,1.07902 -1.57797,1.61853 -2.50485,4.2652 -1.70194,7.82952 1.96256,11.18902 5.43439,3.88142 11.98869,5.69975 18.42293,7.23773 0,0 -6.94884,4.87536 -6.94884,4.87536 z" />
    <path
       style="fill:#000000;fill-opacity:1;stroke:#000000;stroke-width:4.69999981;stroke-linecap:round;stroke-linejoin:round;stroke-miterlimit:4;stroke-opacity:1;stroke-dasharray:none;stroke-dashoffset:0"
       id="path2698"
       d="m 54.899789,195.40576 c -1.551872,7.68262 -2.961916,15.41388 -4.632514,23.0753 -1.572616,6.21458 -2.375543,12.56288 -4.092805,18.73693 -0.913021,0.79542 -0.481832,4.91224 -1.770154,5.44201 -8.461936,3.47967 -8.111536,5.54245 -7.812625,1.22573 0.541123,-4.70272 2.594261,-8.88819 4.575466,-13.11123 1.607446,-3.80383 3.460495,-7.47885 6.934165,-9.84981 7.262671,-4.3932 10.887866,-6.40283 15.475576,0.12018 2.473974,4.43321 3.921377,9.20359 4.967766,14.13982 0.856281,5.75399 2.718247,6.31134 -6.331395,7.70259 -0.566777,0.0871 0.341574,-1.09483 0.512361,-1.64224 1.861038,-5.1462 3.904398,-10.15401 6.280821,-15.08368 2.391744,-4.94764 5.190642,-9.56804 9.637933,-12.88668 8.154481,-4.70692 11.987575,-7.91931 16.57732,0.89767 2.508007,6.85591 2.54718,14.29709 2.777099,21.51004 -0.505073,4.12536 1.702106,10.1367 -1.340016,13.62339 -2.764414,1.418 -5.528828,2.836 -8.293242,4.25401 0,0 6.832161,-5.11512 6.832161,-5.11512 l 0,0 c -2.158191,1.33048 -4.316382,2.66096 -6.474573,3.99144 3.807132,-1.41721 1.21833,-10.00241 1.787945,-12.90977 -0.205741,-7.08692 -0.228394,-14.40019 -2.641973,-21.15039 -1.018436,-1.94367 -1.887436,-3.59785 -4.028228,-4.48457 -1.612363,-0.66785 -3.052376,-0.0633 -3.009108,-0.0993 1.733693,-1.44082 3.805622,-2.41741 5.708433,-3.62611 -4.638993,3.01887 -7.425881,7.61187 -9.84308,12.5014 -2.348607,4.90119 -4.445032,9.82814 -6.285115,14.94218 -2.939413,9.9793 -9.673715,10.14555 -9.336578,1.57558 -0.983021,-4.83586 -2.384685,-9.4922 -4.81809,-13.82121 -4.767167,-6.61409 -10.105968,-0.83862 -0.219543,-7.50328 -3.71696,1.96227 -5.57001,5.64722 -7.166356,9.40234 -1.925324,4.16499 -4.103369,8.21939 -4.64693,12.85264 -0.802905,4.12261 0.07121,1.30293 -7.643848,5.99118 -0.441743,0.26844 0.595142,-0.85935 0.771234,-1.34534 0.133779,-0.36921 1.132201,-3.75966 1.176033,-3.90745 1.748362,-6.1691 2.624481,-12.49431 4.166011,-18.72031 1.721834,-7.61782 3.060037,-15.34593 4.579886,-22.99966 0,0 7.625963,-3.72829 7.625963,-3.72829 z" />
    <path
       style="fill:#000000;fill-opacity:1;stroke:#000000;stroke-width:4.69999981;stroke-linecap:round;stroke-linejoin:round;stroke-miterlimit:4;stroke-opacity:1;stroke-dasharray:none;stroke-dashoffset:0"
       id="path2700"
       d="m 135.20468,235.68765 c -0.33538,8.21906 0.45892,16.49653 -0.33531,24.68902 -0.14802,0.82437 -0.29605,1.64874 -0.44407,2.47312 0,0 -7.62051,3.70182 -7.62051,3.70182 l 0,0 c 0.16648,-0.80747 0.33297,-1.61494 0.49945,-2.4224 0.9733,-8.14 0.10341,-16.41329 0.34822,-24.59352 0,0 7.55222,-3.84804 7.55222,-3.84804 z" />
    <path
       style="fill:#000000;fill-opacity:1;stroke:#000000;stroke-width:4.69999981;stroke-linecap:round;stroke-linejoin:round;stroke-miterlimit:4;stroke-opacity:1;stroke-dasharray:none;stroke-dashoffset:0"
       id="path2702"
       d="m 617.75693,195.40576 c -1.05079,6.01015 -1.66333,12.07721 -2.20567,18.14971 -0.35857,3.58195 1.7176,2.9363 -6.86737,4.15345 -0.64956,0.0921 0.63285,-1.1503 0.91433,-1.74291 0.70729,-1.48907 1.33471,-3.01496 2.0275,-4.51083 2.58983,-5.14312 5.73156,-9.961 8.98654,-14.702 4.41626,-4.59243 10.61574,-9.74924 17.31047,-8.71664 3.78284,1.41487 6.00245,4.03347 7.50159,7.68751 0.96972,3.1612 1.17268,6.46883 1.28655,9.75199 -0.0354,0.71078 3.3815,0.78873 -6.58351,2.89233 -0.62309,0.13153 0.6457,-1.09875 0.93433,-1.66641 0.71285,-1.40202 1.34209,-2.84512 2.03241,-4.25836 2.12384,-4.64114 5.19085,-8.63125 8.98452,-12.00319 5.12866,-3.83249 10.85774,-9.70274 17.50153,-7.12659 3.74651,2.3848 4.66248,6.10855 5.2535,10.24648 0.38144,3.87407 -0.20405,8.1343 -1.87137,11.68287 -2.28525,3.31116 -6.79414,4.62147 -10.05656,6.42612 0,0 6.69297,-5.28205 6.69297,-5.28205 l 0,0 c -12.28479,7.33945 -6.32187,4.36636 -4.40433,2.33934 1.97863,-3.16054 2.34822,-7.58242 2.1378,-11.21287 -0.51141,-3.80093 -1.19783,-7.37429 -4.79146,-9.42815 -2.72859,-0.77479 -4.69007,0.042 -4.61096,-0.016 10.83083,-7.93312 4.53551,-2.23127 1.99846,-0.81677 -3.83313,3.26127 -7.00498,7.07452 -9.11879,11.69439 -0.90509,1.82434 -9.38382,19.51857 -11.68787,10.42073 -0.0552,-3.19282 -0.22238,-6.41085 -1.11633,-9.49662 -1.35202,-3.38512 -3.4117,-5.8483 -7.02244,-6.91806 -4.14316,-0.34705 -5.66627,1.93963 2.45735,-3.41502 0.53245,-0.35096 -1.13756,0.58019 -1.67913,0.91691 -2.0318,1.26327 -1.7149,1.15757 -3.38406,2.91659 -3.27473,4.69929 -6.41829,9.47981 -9.04729,14.57316 -0.67706,1.43739 -10.67939,23.24883 -11.38087,9.39159 0.64281,-6.07811 1.18156,-12.16756 2.1822,-18.20241 0,0 7.62596,-3.72829 7.62596,-3.72829 z" />
    <path
       style="fill:#000000;fill-opacity:1;stroke:#000000;stroke-width:4.69999981;stroke-linecap:round;stroke-linejoin:round;stroke-miterlimit:4;stroke-opacity:1;stroke-dasharray:none;stroke-dashoffset:0"
       id="path2704"
       d="m 710.72262,197.60896 c 3.79641,6.48562 4.89337,13.54612 4.04669,20.90035 -0.47191,3.56085 -2.17534,7.0019 2.13017,8.1771 3.73277,0.65281 7.55968,0.47205 11.33439,0.43597 2.65733,-0.045 5.3148,-0.0791 7.97224,-0.11667 0.1971,-0.003 0.39419,-0.006 0.59129,-0.008 0,0 -6.91029,5.03154 -6.91029,5.03154 l 0,0 c -0.19462,0.001 -0.38925,0.002 -0.58388,0.004 -2.64458,0.0199 -5.2889,0.0607 -7.93343,0.0859 -3.83579,0.0288 -7.75487,0.23025 -11.51369,-0.65595 -4.23017,-1.66287 -3.53114,-5.29723 -2.65906,-9.21083 0.9353,-7.14245 0.0471,-14.00385 -3.75699,-20.28998 0,0 7.28256,-4.35265 7.28256,-4.35265 z" />
    <path
       style="fill:#000000;fill-opacity:1;stroke:#000000;stroke-width:4.69999981;stroke-linecap:round;stroke-linejoin:round;stroke-miterlimit:4;stroke-opacity:1;stroke-dasharray:none;stroke-dashoffset:0"
       id="path2706"
       d="m 614.72866,272.73228 c 14.00593,-0.16045 27.96932,1.118 41.94979,1.80751 18.97925,0.96505 37.95167,1.1064 56.93178,0.26336 15.20064,-1.14136 30.28931,-3.67057 45.12424,-7.13813 0.3279,0.34045 8.58148,-2.82342 8.81801,-2.59291 0.27357,0.26661 0.67248,0.86443 0.3622,1.08726 -2.54493,1.82763 -5.48082,3.0378 -8.22123,4.5567 -2.92316,0.76963 -5.95423,1.01099 -8.96313,1.16989 -2.99915,0.3431 -5.15162,-1.59476 -6.74764,-3.91423 -0.89048,-2.08316 -0.5023,-1.0409 -1.17453,-3.12307 0,0 7.45935,-4.09344 7.45935,-4.09344 l 0,0 c 0.60738,1.9596 0.25696,0.99373 1.05281,2.89706 1.549,2.19646 3.46553,3.5756 6.26182,3.19232 2.98023,-0.20165 5.98923,-0.46135 8.85466,-1.35844 -2.14072,1.32452 -4.47734,2.37521 -6.42214,3.97356 -0.26022,0.21387 0.65072,0.39851 0.69636,0.73222 0.0314,0.22988 -8.27718,2.50068 -8.62153,2.5353 -14.82869,3.3835 -29.90777,5.82839 -45.08539,6.9197 -19.00395,0.81438 -38.00056,0.634 -57.00237,-0.30603 -14.03375,-0.6842 -28.05927,-1.93981 -42.11931,-1.63454 0,0 6.84625,-4.97409 6.84625,-4.97409 z" />
    <path
       style="fill:#000000;fill-opacity:1;stroke:#000000;stroke-width:4.69999981;stroke-linecap:round;stroke-linejoin:round;stroke-miterlimit:4;stroke-opacity:1;stroke-dasharray:none;stroke-dashoffset:0"
       id="path2708"
       d="m 742.44391,240.04429 c 6.01809,4.29365 12.48939,7.90508 19.45228,10.39635 4.96072,2.05779 10.07454,3.65849 15.3334,4.72946 3.62616,1.49409 1.65502,3.68696 -0.61836,5.37115 -5.03136,3.34856 -9.9367,6.87357 -14.89071,10.33774 -7.50499,5.91346 -15.3629,10.95563 -23.64179,15.72767 -4.15036,2.21342 -5.64232,2.38592 -9.20714,-0.68253 0,0 7.20228,-4.5026 7.20228,-4.5026 l 0,0 c 3.35506,2.71237 4.94868,1.80797 8.5874,-0.13167 -1.60678,0.95124 -3.14964,2.01984 -4.82035,2.85371 -0.91751,0.45795 1.70788,-1.13576 2.55018,-1.72063 3.90739,-2.71315 7.49325,-5.85085 11.47957,-8.45694 4.96937,-3.40111 9.7787,-7.03721 14.83917,-10.30011 1.54791,-1.08322 4.96647,-2.52374 1.53701,-3.64267 -5.25305,-1.16353 -10.35894,-2.83076 -15.34032,-4.86902 -7.00815,-2.60963 -13.53659,-6.29076 -19.64709,-10.59716 0,0 7.18447,-4.51275 7.18447,-4.51275 z" />
    <path
       style="fill:#000000;fill-opacity:1;stroke:#000000;stroke-width:4.69999981;stroke-linecap:round;stroke-linejoin:round;stroke-miterlimit:4;stroke-opacity:1;stroke-dasharray:none;stroke-dashoffset:0"
       id="path2710"
       d="m 159.81072,293.12341 c 9.01127,1.03307 17.89767,2.83114 26.90047,3.93487 9.15808,1.04582 18.37926,1.26441 27.58709,1.39115 6.37081,-0.2607 12.86485,0.6393 19.18046,-0.37248 3.48011,-0.94174 7.01625,-1.62951 10.56681,-2.24143 4.49865,-0.60535 4.89292,-2.08307 -5.97321,4.7269 0,0 6.90487,-4.99969 6.90487,-4.99969 l 0,0 c -5.2432,4.66203 -3.69081,4.82408 -7.74194,5.4009 -3.53902,0.61212 -7.03857,1.39235 -10.54012,2.18627 -6.35921,0.74966 -12.8157,0.0707 -19.20507,0.23005 -9.21679,-0.15572 -18.44704,-0.39851 -27.61013,-1.48614 -9.03393,-1.13343 -17.96281,-2.92184 -27.01808,-3.89504 0,0 6.94885,-4.87536 6.94885,-4.87536 z" />
    <path
       style="fill:#000000;fill-opacity:1;stroke:#000000;stroke-width:4.69999981;stroke-linecap:round;stroke-linejoin:round;stroke-miterlimit:4;stroke-opacity:1;stroke-dasharray:none;stroke-dashoffset:0"
       id="path2712"
       d="m 248.41853,276.37795 c 5.77822,2.89919 11.9368,4.85595 17.78727,7.58701 3.27503,1.70163 7.18018,3.03397 9.93132,5.57061 2.43101,2.66231 -0.71715,5.42927 -2.48441,7.44892 -3.02051,3.61677 -6.21698,7.07671 -9.4663,10.48732 -3.60324,3.74009 -7.27678,7.41131 -10.94016,11.09221 -3.37914,2.92365 -7.3393,4.75591 -11.23999,7.0121 0,0 6.62701,-5.35592 6.62701,-5.35592 l 0,0 c -12.2113,7.12356 -5.61724,3.49659 -3.22586,1.59141 3.67728,-3.67004 7.34681,-7.34826 10.96112,-11.08049 3.24742,-3.3915 6.45803,-6.81963 9.45787,-10.43475 1.35126,-1.60576 4.95626,-4.11398 3.07209,-6.26729 -2.79234,-2.38927 -6.51641,-3.73834 -9.75153,-5.39259 -5.82488,-2.72189 -11.93781,-4.73575 -17.75004,-7.49445 0,0 7.02161,-4.76409 7.02161,-4.76409 z" />
    <path
       style="fill:#000000;fill-opacity:1;stroke:#000000;stroke-width:4.69999981;stroke-linecap:round;stroke-linejoin:round;stroke-miterlimit:4;stroke-opacity:1;stroke-dasharray:none;stroke-dashoffset:0"
       id="path2714"
       d="m 371.12903,317.8294 c 2.06212,-5.49 5.04578,-10.18314 9.96919,-13.43584 3.17333,-2.15127 13.69079,-8.58885 15.22094,-0.69249 0.0807,6.29409 -7.12449,8.05489 -11.67732,10.52177 -3.30512,1.0706 -5.70915,0.53137 -8.33373,-1.6505 -2.51433,-2.83927 -2.10649,-5.61842 -0.46767,-8.76628 3.81848,-4.86653 9.84038,-7.4711 15.85822,-8.09774 3.56628,-0.49685 5.85033,1.48951 7.57987,4.36031 1.88079,4.15894 -0.041,8.07379 -2.39305,11.54207 -4.0575,4.01289 -10.34425,11.11792 -16.35979,9.66441 -3.434,-1.52183 -3.96605,-5.6594 -3.82057,-9.01584 0.44143,-5.08342 3.56359,-8.92006 7.27373,-12.14898 4.91258,-2.68009 11.99476,-9.14257 18.27479,-6.07855 3.80316,2.33737 3.58555,5.78995 2.20665,9.50487 -3.34848,5.789 -9.97602,9.43526 -16.40276,10.89701 -3.64833,0.84288 -5.93483,-1.32466 -7.38683,-4.42112 -0.91701,-5.44884 1.91054,-10.41272 5.13153,-14.56583 5.77363,-5.29626 13.46336,-11.49339 21.40744,-12.21013 4.50471,0.41524 6.81196,2.94131 7.19343,7.36083 -0.82986,5.01947 -3.90137,8.56167 -7.98457,11.33838 -6.11592,3.43861 -13.68655,8.76517 -21.07341,5.9143 -3.84846,-1.67861 -4.78868,-4.51513 -3.48918,-8.27303 3.2805,-6.51032 10.73265,-9.93451 17.54651,-11.75867 3.73053,-0.75471 8.18249,-1.30044 10.43344,2.35268 1.36505,4.86909 -2.76854,8.55996 -5.74444,11.87266 -5.30464,5.69652 -12.30013,9.94165 -19.77029,12.14861 -4.74229,0.1284 -4.62069,-4.9681 -4.30154,-8.43691 1.20006,-5.82052 4.6537,-10.66292 8.81815,-14.74892 6.3926,-4.65137 12.22164,-10.69397 18.64993,-4.67389 3.50742,4.2412 3.70169,9.24886 1.78683,14.20407 -2.72656,5.46425 -7.57462,8.94644 -12.49886,12.26607 -7.09185,4.78211 -13.08032,8.21417 -20.69029,3.79515 -4.51878,-3.70986 -3.08329,-8.88063 -0.86449,-13.45897 4.88933,-8.71632 13.10853,-12.2192 21.7427,-16.49662 6.29112,-1.28738 11.04086,1.64389 14.66619,6.54615 2.87561,6.66564 1.09666,10.62506 -3.60785,15.60409 -7.66019,6.36197 -16.5267,11.95774 -26.54991,13.08803 -7.00134,0.34562 -10.89295,-1.35778 -12.3458,-8.45914 0.0576,-7.1945 4.30088,-12.75128 9.70443,-17.03847 8.6157,-5.79733 16.31645,-9.63382 26.53698,-7.55604 5.78602,1.95064 8.27094,6.37306 8.50787,12.20367 -1.52773,9.48595 -11.57786,13.51971 -18.91943,17.78791 -6.0592,2.79094 -12.60371,4.58025 -19.17022,2.75245 -5.81574,-4.44719 -1.88455,-11.48256 1.22377,-16.39387 6.6886,-8.60024 16.42871,-15.60945 27.01463,-18.42083 6.24222,-0.46351 11.69441,1.64738 14.9114,7.05801 2.17406,4.83098 0.70908,9.64913 -2.68464,13.4343 -7.22537,4.14837 -11.00992,8.70582 -16.92951,2.18151 0,0 7.25556,-4.40594 7.25556,-4.40594 l 0,0 c 0.89693,0.95537 1.67917,2.0447 3.0168,2.45786 3.31114,1.0227 9.55289,-3.59007 -1.17569,3.02233 3.48526,-3.27331 5.17849,-7.85696 3.18192,-12.44264 -3.04521,-5.12957 -8.41322,-6.87699 -14.25224,-6.16456 -1.14826,0.35281 -3.59484,2.25027 -3.44479,1.05843 0.17914,-1.42281 3.80252,-0.92447 3.60679,-2.34509 -0.19408,-1.40867 -2.45367,1.4437 -3.61864,2.25909 -3.53179,2.47201 -6.62774,5.4524 -9.17986,8.92954 -2.79319,4.13402 -7.33613,11.09247 -1.94562,14.96314 6.48925,1.50727 12.86857,-0.36855 18.73788,-3.24056 -1.30981,0.78423 -2.43474,2.04196 -3.92942,2.3527 -1.13132,0.23521 1.85417,-1.38054 2.75202,-2.10792 2.9469,-2.38739 5.42275,-4.96982 6.00402,-8.86648 -0.06,-5.50793 -2.34983,-9.56471 -7.88672,-11.23614 -4.38133,-0.7528 -8.33749,-0.75887 -12.58645,0.74234 -1.09894,0.38827 -3.90252,2.28681 -3.23239,1.33321 0.90725,-1.29104 2.69001,-1.65024 4.03502,-2.47536 -5.4041,3.92399 -9.7044,9.23777 -10.06821,16.17468 1.19557,6.80572 5.20698,7.81357 11.63885,7.39626 3.60171,-0.53668 3.32455,-0.30691 6.83459,-1.62274 1.17259,-0.43957 3.97858,-2.6116 3.4557,-1.47372 -0.63501,1.3819 -2.4487,1.88726 -3.88085,2.39892 -2.17723,0.77787 7.70691,-4.67131 5.59056,-4.10538 4.61376,-4.59447 6.81532,-7.99657 4.12054,-14.52802 -3.51712,-4.70323 -8.10364,-7.17798 -14.07104,-5.68489 1.49216,-1.07273 3.14257,-1.95408 4.47648,-3.21819 0.76802,-0.72784 -1.87065,0.99673 -2.75131,1.58329 -3.66279,2.43961 -6.74786,5.76704 -9.08191,9.47414 -2.14562,4.06601 -4.03536,8.93692 0.2751,12.30446 2.67759,1.42218 5.19471,2.1143 8.261,1.56364 0.80002,-0.14367 2.95195,-1.18896 2.35314,-0.63932 -1.41444,1.2983 -3.27988,1.99683 -4.91982,2.99525 4.9247,-3.17236 9.78333,-6.55163 12.68864,-11.8014 2.05516,-4.564 2.05254,-9.29199 -1.31177,-13.2758 -1.45926,-1.27355 -2.49003,-2.20397 -4.56199,-1.91305 -0.68945,0.0968 -2.54445,1.00846 -2.0123,0.55955 0.86678,-0.73119 9.15037,-5.77167 2.96603,-1.66619 -4.17905,3.90934 -7.69474,8.52006 -9.04918,14.19751 -0.32229,2.90182 -0.90656,7.70032 3.42768,7.01207 2.89745,-0.94406 8.89985,-4.278 -1.22108,1.59035 -1.15736,0.67106 7.10862,-4.41517 6.47136,-5.26634 2.71581,-2.95585 7.0038,-6.45073 6.18367,-10.87184 -1.97551,-3.25112 -6.69613,-2.08699 -9.79269,-1.44967 -2.66982,0.83384 -9.6982,4.19143 1.10792,-1.60797 2.20284,-1.18221 -6.1977,4.07359 -4.22059,4.59751 -1.47237,3.68582 -1.11211,5.34675 2.80829,7.10658 1.79866,0.55647 1.92126,0.78284 3.82661,0.62752 3.14694,-0.25653 13.37804,-4.65035 2.32497,1.28663 4.11886,-2.49726 7.11841,-5.73175 8.3223,-10.5087 -0.0885,-4.06138 -2.39592,-6.10128 -6.44053,-6.2 -4.63614,0.67343 -2.03882,0.63905 2.70989,-3.08104 0.71397,-0.55931 -1.58946,0.87519 -2.36463,1.34603 -2.6065,1.58316 -4.99468,3.42953 -7.18039,5.56083 -3.17618,3.86501 -6.06417,8.48221 -5.50674,13.7026 1.35599,2.93023 3.44953,4.35527 6.73954,3.43625 2.8552,-0.8294 8.58253,-3.78893 -2.3417,2.18612 -0.57051,0.31204 1.06761,-0.74537 1.56777,-1.16093 1.79445,-1.49093 1.44866,-1.26784 2.72684,-3.17898 1.31445,-3.29475 2.10944,-6.30221 -1.58628,-8.36707 -4.8881,-1.85137 -14.30391,4.6466 -3.33214,-1.80267 -3.73474,2.92641 -6.98147,6.63101 -7.54093,11.51545 -0.28666,2.87185 0.0282,6.83371 3.18903,7.92286 3.56143,0.20191 1.86879,-0.15364 -4.42677,3.76931 -0.50997,0.31777 0.99507,-0.6745 1.47728,-1.03301 2.26272,-1.68227 1.00197,-0.76437 3.03595,-2.73168 0.49483,-0.47862 1.01843,-0.92658 1.52765,-1.38987 2.27449,-3.13476 4.51277,-6.71242 2.81169,-10.65622 -1.63063,-2.71472 -3.7592,-4.0997 -7.0345,-3.54805 -1.31017,0.18415 -2.0114,0.23467 -3.27591,0.59574 -0.54369,0.15525 -2.06782,0.87475 -1.60429,0.55095 11.02016,-7.69815 5.74061,-3.54599 3.60488,-1.60439 -1.61005,2.74027 -2.48008,5.11124 -0.0876,7.71737 2.47576,1.94343 4.88695,2.01357 7.82607,0.92087 -12.20092,7.45461 -2.53322,3.13796 -2.5628,-1.28334 -0.62296,-6.18949 -11.78053,1.30561 0.22616,-6.35525 -5.085,2.91793 -8.10252,7.47481 -10.19851,12.89136 0,0 -7.68043,3.60702 -7.68043,3.60702 z" />
    <path
       style="fill:#000000;fill-opacity:1;stroke:#000000;stroke-width:4.69999981;stroke-linecap:round;stroke-linejoin:round;stroke-miterlimit:4;stroke-opacity:1;stroke-dasharray:none;stroke-dashoffset:0"
       id="path2716"
       d="m 187.25696,329.5089 c 2.32068,7.23577 4.86418,14.3544 6.45624,21.79954 0.59106,4.96 1.93157,9.73214 3.20406,14.54499 0.77862,3.05908 1.01953,6.19807 1.14239,9.33958 -0.22607,2.84264 0.35328,5.38639 1.66857,7.88618 1.48463,-1.4292 0.29047,1.18264 -6.04971,2.54765 -0.67703,0.14576 0.76456,-1.15596 1.11094,-1.75566 0.81786,-1.41603 1.53734,-2.88667 2.31372,-4.32587 2.20974,-5.246 5.40417,-9.89704 8.54439,-14.59972 2.75506,-4.10236 5.54938,-8.17992 8.15262,-12.38142 0.80184,-1.31932 1.56402,-2.66225 2.27794,-4.03102 0.008,-0.17928 0.10201,-0.0899 0.11791,-0.10386 0,0 7.72183,-3.7185 7.72183,-3.7185 l 0,0 c -0.0122,0.084 0.0617,0.21031 -0.0416,0.28608 -0.69349,1.41826 -1.49913,2.77806 -2.30591,4.13428 -2.5912,4.23148 -5.41302,8.30178 -8.17751,12.42202 -3.08357,4.71224 -6.45975,9.24248 -8.56372,14.52698 -1.95833,3.60361 -7.33216,15.43036 -12.51107,11.23384 -1.33968,-2.60558 -2.08601,-5.26699 -1.83321,-8.22815 -0.0941,-3.08592 -0.30061,-6.17272 -1.03722,-9.18353 -1.24116,-4.84 -2.63649,-9.62236 -3.16272,-14.61227 -1.54485,-7.42227 -4.03954,-14.51797 -6.4605,-21.6877 0,0 7.43258,-4.09344 7.43258,-4.09344 z" />
    <path
       style="fill:#000000;fill-opacity:1;stroke:#000000;stroke-width:4.69999981;stroke-linecap:round;stroke-linejoin:round;stroke-miterlimit:4;stroke-opacity:1;stroke-dasharray:none;stroke-dashoffset:0"
       id="path2718"
       d="m 232.34754,384.25907 c -0.0433,6.35496 -0.0131,12.71005 -0.003,19.06505 0.008,2.26921 0.0154,4.53846 0.0387,6.80758 0,0 -7.62408,3.88467 -7.62408,3.88467 l 0,0 c 0.0231,-2.28225 0.0308,-4.56464 0.0387,-6.84698 0.0104,-6.35407 0.0406,-12.70824 -0.003,-19.06227 0,0 7.55222,-3.84805 7.55222,-3.84805 z" />
    <path
       style="fill:#000000;fill-opacity:1;stroke:#000000;stroke-width:4.69999981;stroke-linecap:round;stroke-linejoin:round;stroke-miterlimit:4;stroke-opacity:1;stroke-dasharray:none;stroke-dashoffset:0"
       id="path2720"
       d="m 704.70989,312.31481 c 2.86806,6.26494 4.80813,12.87146 7.40247,19.24332 1.57461,3.84995 2.51177,7.86249 2.95945,11.98409 0.22662,-0.14473 0.23472,1.67103 0.84557,1.63036 0.18966,-0.0126 0.41941,-0.58815 0.24376,-0.51551 -8.31029,3.4365 -7.32987,4.28682 -4.36791,0.40094 2.20234,-3.50566 4.26745,-7.08119 6.50746,-10.56415 1.86366,-3.66776 4.07942,-7.14937 6.6816,-10.33673 1.53217,-2.02738 3.02916,-4.08125 4.54018,-6.12448 0.28769,-0.38646 0.57297,-0.7748 0.85772,-1.16339 0.16279,0.94777 0.43362,0.82212 -0.33524,0.83333 0,0 6.90929,-5.04029 6.90929,-5.04029 l 0,0 c 0.84743,-0.0203 0.43696,-0.0962 1.29874,0.82152 -0.29884,0.38672 -0.59702,0.77421 -0.88845,1.16667 -1.53796,2.04703 -3.08706,4.08792 -4.54496,6.193 -2.75885,3.01991 -4.92718,6.5887 -6.75379,10.23241 -2.20623,3.5166 -4.42512,7.00178 -6.46226,10.62755 -2.7259,3.51288 -10.04426,12.64994 -12.07399,5.77888 -0.38687,-4.05528 -1.26712,-8.00711 -2.80065,-11.7968 -2.56356,-6.3597 -4.4436,-12.96719 -7.38819,-19.17481 0,0 7.3692,-4.19591 7.3692,-4.19591 z" />
    <path
       style="fill:#000000;fill-opacity:1;stroke:#000000;stroke-width:4.69999981;stroke-linecap:round;stroke-linejoin:round;stroke-miterlimit:4;stroke-opacity:1;stroke-dasharray:none;stroke-dashoffset:0"
       id="path2722"
       d="m 734.62858,349.15267 c 3.25879,-4.90719 6.88279,-9.70396 11.59395,-13.29702 5.02436,-3.27209 11.25741,-8.74715 14.01225,-1.49634 1.07786,3.39254 0.0622,6.53124 -1.22671,9.69486 -1.83735,4.47916 -5.49663,7.68211 -8.72953,11.13961 -3.28323,3.25948 -6.75667,6.28119 -10.43139,9.09009 -1.0017,1.19053 -1.41357,0.21565 -0.56682,0.12467 0.80899,-0.0869 1.62682,-0.0394 2.44012,-0.0629 3.57437,0.29745 6.83565,-1.13399 10.23559,-1.97741 2.73885,-0.76965 5.18035,-1.18379 7.63037,0.43823 0.85153,1.30764 1.84139,3.05866 0.7696,4.4749 -9.25926,3.81751 -5.87927,4.77917 -10.03568,3.22919 0,0 7.06244,-4.77226 7.06244,-4.77226 l 0,0 c 3.46267,1.16091 1.41696,0.14309 -4.95736,4.73421 1.47005,-0.63404 0.71233,-1.85589 -0.0151,-3.03735 -2.30087,-1.31401 -4.77194,-0.49582 -7.20319,0.10162 -3.4187,0.91567 -6.76454,2.09929 -10.36717,1.83352 -1.227,0.0245 -5.58042,-0.0768 -2.9027,-1.94349 3.74551,-2.72337 7.18511,-5.7802 10.53418,-8.96699 3.1795,-3.42331 6.87417,-6.50948 8.8186,-10.85881 1.31605,-2.92216 2.42214,-5.90822 1.4972,-9.10787 -0.22434,-0.62295 -0.51278,-1.65672 -1.00613,-2.16936 -2.26099,-2.34941 -10.37435,4.20024 2.3357,-3.59775 -4.82242,3.39828 -8.51533,8.1218 -11.72558,13.03017 0,0 -7.76266,3.39643 -7.76266,3.39643 z" />
    <path
       style="fill:#000000;fill-opacity:1;stroke:#000000;stroke-width:4.69999981;stroke-linecap:round;stroke-linejoin:round;stroke-miterlimit:4;stroke-opacity:1;stroke-dasharray:none;stroke-dashoffset:0"
       id="path2724"
       d="m 394.09643,295.98055 c 7.69023,1.13506 15.55163,0.34868 23.29329,0.0809 9.02954,-0.29446 18.06366,-0.3757 27.09719,-0.43086 7.79475,0.37607 15.45156,-0.28597 23.15203,-1.37979 5.18051,-0.40333 10.4962,-1.85759 15.68519,-1.04815 2.57995,0.66562 5.14854,1.37441 7.70535,2.12385 3.62248,2.27687 -5.82563,3.61856 -7.51986,4.32843 0,0 7.20607,-4.56659 7.20607,-4.56659 l 0,0 c -2.22663,1.55891 -4.45327,3.11781 -6.6799,4.67672 0.13202,0.17395 0.43023,0.30617 0.39605,0.52185 -0.0249,0.15723 -0.30433,-0.0935 -0.4565,-0.14027 -2.50641,-0.7551 -5.02456,-1.48469 -7.58381,-2.03988 -5.16887,-0.50033 -10.37186,0.71859 -15.50597,1.19609 -7.71027,1.07016 -15.39513,1.58442 -23.18935,1.26758 -9.02906,0.0512 -18.05891,0.14068 -27.08342,0.45136 -7.8028,0.28079 -15.71249,1.02177 -23.4652,-0.16592 0,0 6.94884,-4.87536 6.94884,-4.87536 z" />
    <path
       style="fill:#000000;fill-opacity:1;stroke:#000000;stroke-width:4.69999981;stroke-linecap:round;stroke-linejoin:round;stroke-miterlimit:4;stroke-opacity:1;stroke-dasharray:none;stroke-dashoffset:0"
       id="path2726"
       d="m 479.29405,266.18039 c 4.6173,5.27094 9.26821,10.42249 15.19538,14.23157 3.85321,2.21607 7.66952,4.40552 11.85556,5.9248 3.28285,1.38779 4.18358,4.15585 3.4939,7.43735 -1.3505,3.51451 -3.95883,6.44271 -6.36245,9.29386 -4.14428,4.03988 -8.03444,8.32182 -12.17298,12.36649 -3.86024,3.56487 -7.41356,7.47408 -11.74279,10.48105 -3.72361,2.16684 -7.21646,5.09641 -11.39138,6.26622 -0.22523,0.007 -0.20786,-0.0623 -0.36604,-0.20252 0,0 7.10188,-4.79745 7.10188,-4.79745 l 0,0 c 0.005,-0.0357 -0.18293,-0.24979 0.0339,-0.24351 6.8286,-3.07365 -9.17663,5.27449 -3.28743,2.07557 4.42844,-2.88296 7.98596,-6.77149 11.84055,-10.35713 4.15249,-4.00839 7.97176,-8.31995 12.16747,-12.2879 2.43999,-2.70749 4.86004,-5.66675 6.49767,-8.92903 0.96168,-2.89612 0.10114,-5.21745 -2.8751,-6.34901 -4.18344,-1.61872 -8.0359,-3.8483 -11.89559,-6.12122 -5.94071,-3.93701 -10.65316,-9.14554 -15.37512,-14.43649 0,0 7.28257,-4.35265 7.28257,-4.35265 z" />
    <path
       style="fill:#000000;fill-opacity:1;stroke:#000000;stroke-width:4.69999981;stroke-linecap:round;stroke-linejoin:round;stroke-miterlimit:4;stroke-opacity:1;stroke-dasharray:none;stroke-dashoffset:0"
       id="path2728"
       d="m 402.15119,340.4661 c 5.08009,6.33098 9.82538,12.92716 14.45467,19.59335 4.29008,6.24262 6.96717,13.32333 9.59865,20.36959 1.47385,5.60308 3.46908,11.06805 4.85505,16.69458 0.68788,3.562 2.11755,6.95785 3.62946,10.24172 1.08809,1.98823 2.39648,5.46411 5.10093,4.38973 -2.15691,1.16094 -4.22244,2.51059 -6.47074,3.48282 -0.12763,0.0552 0.58462,-0.39846 1.80808,-2.65785 1.32944,-2.4551 2.37869,-5.08389 3.61084,-7.58954 3.3442,-8.2569 7.07537,-16.34701 10.93461,-24.37441 3.45866,-6.00913 6.03992,-12.45819 10.01913,-18.15577 2.85584,-3.84102 8.71971,-9.62023 13.45253,-8.94902 3.84887,2.04367 -0.49392,1.54235 -6.65541,4.20092 0,0 7.39066,-4.24963 7.39066,-4.24963 l 0,0 c -11.99544,9.63023 -3.63113,5.86019 -7.6316,5.08467 -3.04214,0.76204 -0.84394,0.27903 5.61205,-3.51485 0.39091,-0.22972 -0.79716,0.43403 -1.17818,0.67982 -1.36816,0.88258 -2.3209,2.02441 -3.21844,3.37817 -4.11342,5.61487 -6.65992,12.06269 -10.15184,18.0575 -3.8918,7.99838 -7.63863,16.07696 -10.88605,24.36093 -0.88965,1.7845 -3.63145,9.50814 -5.18491,10.57329 -2.62817,1.80203 -5.4989,3.22188 -8.24835,4.83282 -3.01541,0.19367 -4.49375,-3.042 -5.70295,-5.36345 -1.56278,-3.31739 -2.98384,-6.79476 -3.68515,-10.40229 -1.34661,-5.60682 -3.34009,-11.04232 -4.77259,-16.62665 -2.58746,-6.99017 -5.22784,-14.00749 -9.47424,-20.19777 -4.61163,-6.65698 -9.3214,-13.26691 -14.48877,-19.50602 0,0 7.28256,-4.35266 7.28256,-4.35266 z" />
    <path
       style="fill:#000000;fill-opacity:1;stroke:#000000;stroke-width:4.69999981;stroke-linecap:round;stroke-linejoin:round;stroke-miterlimit:4;stroke-opacity:1;stroke-dasharray:none;stroke-dashoffset:0"
       id="path2730"
       d="m 490.79952,417.86361 c -6.51409,4.0752 -12.1,9.1379 -17.07487,14.95297 -2.63624,3.83555 -6.12826,8.03322 -6.4173,12.88439 0.3322,3.07652 2.52209,5.03873 5.24593,6.13775 3.50314,-0.1554 6.93836,-1.01041 10.41992,-1.44693 3.25717,-0.42871 6.39535,-1.6666 9.51357,-2.70611 0.78628,-0.26145 1.57042,-0.52985 2.3454,-0.82251 0.0678,0.006 0.0175,-0.0344 0.0263,-0.0516 0,0 -6.70412,5.34001 -6.70412,5.34001 l 0,0 c -0.024,-0.004 -0.0397,-0.0494 -0.0721,-0.0114 -0.7762,0.25713 -1.55099,0.51883 -2.32837,0.77251 -3.14011,1.02243 -6.28807,2.22456 -9.58874,2.56322 -3.53978,0.49055 -7.12324,1.55155 -10.69916,1.07559 -2.93738,-1.39562 -5.27363,-3.63671 -5.74709,-7.00229 -0.0776,-5.02136 3.62683,-9.46039 6.25143,-13.44595 4.92168,-5.85332 10.36897,-11.09228 16.9554,-15.07986 0,0 7.87382,-3.15982 7.87382,-3.15982 z" />
    <path
       style="fill:#000000;fill-opacity:1;stroke:#000000;stroke-width:4.69999981;stroke-linecap:round;stroke-linejoin:round;stroke-miterlimit:4;stroke-opacity:1;stroke-dasharray:none;stroke-dashoffset:0"
       id="path2732"
       d="m 510.1141,418.08033 c 2.15444,6.84491 3.47037,13.90835 4.41073,21.01082 0.63079,5.87497 2.32163,5.92122 -6.86767,7.27093 -0.53551,0.0786 0.21209,-1.06154 0.31813,-1.59231 1.27638,-3.79103 2.89063,-7.52027 4.54992,-11.1696 1.70268,-3.26869 4.11293,-6.15853 6.92745,-8.52347 6.58444,-4.65716 9.86093,-8.16493 14.1314,-1.65686 1.44783,2.99262 1.53603,6.3167 1.64454,9.5737 0.0525,2.67891 0.0263,5.35868 0.0463,8.03761 -2.4397,0.71597 -4.77806,2.05948 -7.31911,2.14792 -0.95212,0.0331 3.29252,-9.73134 3.58249,-10.31835 1.86488,-3.68734 3.86594,-7.25789 6.66853,-10.31601 6.40641,-5.1346 10.34977,-8.63582 16.16537,-3.34043 2.65316,3.964 3.66485,8.92068 4.79632,13.51607 1.00724,4.16933 1.67121,8.13813 0.48399,12.30324 -3.42829,6.63989 -7.90784,6.75957 -10.6586,2.40526 0,0 7.36077,-4.29116 7.36077,-4.29116 l 0,0 c 0.21149,0.33114 0.37921,0.69472 0.63449,0.99342 0.22247,0.26032 1.0345,0.43282 0.78292,0.66513 -11.48088,10.60143 -7.43332,5.80939 -5.82201,3.86414 1.35825,-4.02574 0.77329,-7.82852 -0.22573,-11.91889 -1.07815,-4.4224 -2.05936,-9.22335 -4.57399,-13.04851 -1.06395,-0.90268 -2.3553,-2.03544 -3.86216,-2.08132 -0.50208,-0.0153 -1.8823,0.56148 -1.48546,0.25352 1.3113,-1.01757 8.72957,-5.37205 4.25052,-2.59379 -2.90509,2.94436 -4.93169,6.42471 -6.7912,10.10022 -1.00936,1.93762 -2.07032,3.98832 -2.71894,6.08641 -0.40546,1.3115 0.10436,3.1134 -0.93441,4.01082 -2.43285,2.1018 -5.31768,3.6149 -7.97652,5.42235 0.0995,-2.66843 0.0667,-5.34359 0.0337,-8.01443 -0.0903,-3.09964 -0.11069,-6.28361 -1.43294,-9.15546 -0.72461,-1.09872 -1.36062,-2.14514 -2.67904,-2.60006 -0.34956,-0.12061 -1.38578,0.0493 -1.09484,-0.17894 0.12762,-0.10012 9.71085,-5.98782 4.88581,-3.0227 -2.92486,2.12346 -5.26812,5.06042 -7.09109,8.16685 -1.76905,3.53135 -3.1383,7.34137 -4.60908,10.99657 -2.69225,9.77371 -9.31173,10.54323 -8.59813,1.94011 -0.88498,-7.05397 -2.13198,-14.08263 -4.365,-20.84936 0,0 7.43258,-4.09344 7.43258,-4.09344 z" />
  </g>
</svg>
