<?xml version="1.0" encoding="UTF-8" standalone="no"?>
<!-- Created with Inkscape (http://www.inkscape.org/) -->
<svg
   xmlns:dc="http://purl.org/dc/elements/1.1/"
   xmlns:cc="http://creativecommons.org/ns#"
   xmlns:rdf="http://www.w3.org/1999/02/22-rdf-syntax-ns#"
   xmlns:svg="http://www.w3.org/2000/svg"
   xmlns="http://www.w3.org/2000/svg"
   xmlns:sodipodi="http://sodipodi.sourceforge.net/DTD/sodipodi-0.dtd"
   xmlns:inkscape="http://www.inkscape.org/namespaces/inkscape"
   width="879.78192"
   height="635.64398"
   id="svg2771"
   sodipodi:version="0.32"
   inkscape:version="0.46+devel"
   sodipodi:docname="c23d2.svg"
   inkscape:output_extension="org.inkscape.output.svg.inkscape"
   version="1.0">
  <defs
     id="defs2773">
    <inkscape:perspective
       sodipodi:type="inkscape:persp3d"
       inkscape:vp_x="0 : 526.18109 : 1"
       inkscape:vp_y="0 : 1000 : 0"
       inkscape:vp_z="744.09448 : 526.18109 : 1"
       inkscape:persp3d-origin="372.04724 : 350.78739 : 1"
       id="perspective2779" />
  </defs>
  <sodipodi:namedview
     id="base"
     pagecolor="#ffffff"
     bordercolor="#666666"
     borderopacity="1.0"
     inkscape:pageopacity="0.0"
     inkscape:pageshadow="2"
     inkscape:zoom="0.35"
     inkscape:cx="330.18544"
     inkscape:cy="173.44412"
     inkscape:document-units="px"
     inkscape:current-layer="layer1"
     showgrid="false"
     inkscape:window-width="1280"
     inkscape:window-height="712"
     inkscape:window-x="-5"
     inkscape:window-y="-3" />
  <metadata
     id="metadata2776">
    <rdf:RDF>
      <cc:Work
         rdf:about="">
        <dc:format>image/svg+xml</dc:format>
        <dc:type
           rdf:resource="http://purl.org/dc/dcmitype/StillImage" />
        <dc:title></dc:title>
      </cc:Work>
    </rdf:RDF>
  </metadata>
  <g
     inkscape:label="Layer 1"
     inkscape:groupmode="layer"
     id="layer1"
     transform="translate(-44.814563,-70.162355)">
    <path
       style="fill:#000000;fill-opacity:1;stroke:#000000;stroke-width:4.69999981;stroke-linecap:round;stroke-linejoin:round;stroke-miterlimit:4;stroke-opacity:1;stroke-dasharray:none;stroke-dashoffset:0"
       id="path2781"
       d="m 82.857502,691.56837 c 1.196178,-0.70597 2.471457,-1.29246 3.588532,-2.11792 0.806702,-0.59611 -3.435948,2.04859 -2.65049,1.42476 1.288577,-1.02343 9.83157,-6.35811 10.932758,-7.06905 4.581487,-2.95784 8.223788,-5.43088 12.775768,-8.4836 15.38281,-10.96566 30.04681,-22.9155 44.8352,-34.6641 16.88237,-13.86179 33.84843,-27.61591 50.835,-41.34905 15.76618,-12.64062 31.63745,-25.1479 46.94527,-38.34413 11.76247,-9.97299 23.62247,-19.83846 35.69545,-29.43419 7.91702,-6.12544 15.42861,-12.759 23.73734,-18.36023 3.69906,-2.25867 7.35884,-4.58088 10.96968,-6.97799 5.70519,-4.80411 9.20684,-5.05191 15.41135,-5.02398 7.23324,0.0803 14.46682,0.11309 21.70043,0.13702 15.16475,0.0423 30.2755,-1.86665 45.31189,-3.66555 25.58902,-3.22545 51.08375,-7.1404 76.64549,-10.55922 31.72582,-4.08979 63.64588,-5.83258 95.54819,-7.79837 31.76829,-1.9536 63.58847,-2.67282 95.38039,-4.12394 25.76548,-1.03727 51.49331,-2.87722 77.1815,-5.09601 15.84694,-1.05717 31.63487,-2.44109 47.2384,-5.44489 1.60574,-0.55621 3.11829,-1.70607 4.81723,-1.66864 1.25146,0.0276 -3.00362,2.90449 -3.34796,1.70102 -0.39007,-1.36333 2.1111,-1.91946 2.96059,-3.05489 1.81893,-2.43117 2.50699,-4.69446 3.59271,-7.45571 0,0 7.63157,-3.54297 7.63157,-3.54297 l 0,0 c -4.32375,11.57433 -9.43596,15.31331 -22.31355,19.05274 -15.57092,2.90366 -31.32196,4.19117 -47.11631,5.24886 -25.65318,2.1786 -51.34617,3.96094 -77.0739,4.97662 -31.77932,1.43242 -63.5876,2.12845 -95.34115,4.11091 -31.90944,1.95265 -63.83361,3.74467 -95.55983,7.87882 -25.61405,3.46758 -51.16567,7.39134 -76.80721,10.66523 -15.10928,1.81311 -30.28722,3.75501 -45.52857,3.6998 -7.26371,-0.0113 -14.52741,-0.0276 -21.79102,-0.0685 -1.69126,0.008 -3.41169,-0.0419 -5.09447,0.17339 -0.38933,0.0498 -1.47725,0.44091 -1.15822,0.21227 1.79701,-1.28786 8.70063,-5.47116 5.65766,-3.46139 -3.63899,2.42008 -7.31436,4.78951 -11.07384,7.01867 -8.41104,5.51005 -15.91411,12.20958 -23.86886,18.33722 -12.12322,9.57468 -23.9852,19.48084 -35.79555,29.43723 -15.31549,13.22787 -31.20977,25.7475 -47.00361,38.39565 -16.97195,13.7394 -33.95884,27.4562 -50.8087,41.34627 -14.7693,11.734 -29.40532,23.67587 -44.72261,34.68999 -12.7359,8.56983 -25.515321,17.11554 -38.981149,24.50914 0,0 6.644601,-5.25133 6.644601,-5.25133 z" />
    <path
       style="fill:#000000;fill-opacity:1;stroke:#000000;stroke-width:4.69999981;stroke-linecap:round;stroke-linejoin:round;stroke-miterlimit:4;stroke-opacity:1;stroke-dasharray:none;stroke-dashoffset:0"
       id="path2783"
       d="m 327.34061,503.02449 c -1.14231,-11.03902 -0.35567,-22.19944 -0.0874,-33.27421 0.04,-16.21619 1.41798,-32.37851 2.21116,-48.56679 1.68575,-22.29175 2.79199,-44.61639 4.31551,-66.9188 1.05746,-23.29173 2.89982,-46.52023 4.97082,-69.73948 1.80044,-23.66059 4.0905,-47.28358 6.84255,-70.85204 2.11732,-20.23999 4.62456,-40.4417 6.34941,-60.72097 0.79597,-13.00668 2.5379,-25.92539 3.54453,-38.91554 0.10766,-7.08854 1.08414,-14.060671 2.43744,-21.003732 0.30271,-1.488446 0.61701,-2.975211 0.99058,-4.447708 0,0 7.73103,-3.673004 7.73103,-3.673004 l 0,0 c -0.45818,1.447798 -0.74564,2.94417 -1.08958,4.421044 -1.43697,6.921026 -2.471,13.87803 -2.58316,20.9627 -1.03992,13.01396 -2.82556,25.95246 -3.66472,38.98235 -1.76906,20.30417 -4.32157,40.52861 -6.44551,60.79676 -2.76883,23.56105 -5.06904,47.17854 -6.85862,70.83454 -2.04786,23.21492 -3.9349,46.43448 -4.97176,69.72156 -1.52082,22.28355 -2.61225,44.58903 -4.24633,66.86533 -0.75007,16.16525 -2.10277,32.30421 -2.11311,48.49513 -0.25589,11.01309 -1.05126,22.12894 0.15951,33.09717 0,0 -7.4924,3.93569 -7.4924,3.93569 z" />
    <path
       style="fill:#000000;fill-opacity:1;stroke:#000000;stroke-width:4.69999981;stroke-linecap:round;stroke-linejoin:round;stroke-miterlimit:4;stroke-opacity:1;stroke-dasharray:none;stroke-dashoffset:0"
       id="path2785"
       d="m 791.01588,420.04395 c 6.14557,5.03177 13.27,8.29412 20.41997,11.59183 4.76449,2.30011 10.25541,2.67826 14.6774,5.66803 3.26145,2.34442 2.30889,5.80087 1.73381,9.20923 -1.50704,5.59895 -3.94515,10.89498 -6.2892,16.18224 -4.78028,10.90933 -10.18242,21.4872 -16.04164,31.85221 -5.96443,10.31409 -12.50754,20.25523 -19.5246,29.87806 -3.48457,2.96398 -7.80024,7.35178 -12.56701,5.76243 0,0 7.01143,-4.8349 7.01143,-4.8349 l 0,0 c 5.58621,0.85775 -9.92194,6.78729 -2.17026,2.4104 7.10715,-9.58213 13.69128,-19.51666 19.68309,-29.83875 5.83992,-10.31988 11.23497,-20.84088 15.95599,-31.72362 2.31165,-5.231 4.67141,-10.4696 6.30824,-15.95649 0.51116,-3.08038 1.77525,-6.24453 -1.25295,-8.35232 -4.44635,-2.80897 -9.87813,-3.23108 -14.54622,-5.60723 -7.19294,-3.3633 -14.34768,-6.71219 -20.5836,-11.72769 0,0 7.18555,-4.51343 7.18555,-4.51343 z" />
    <path
       style="fill:#000000;fill-opacity:1;stroke:#000000;stroke-width:4.69999981;stroke-linecap:round;stroke-linejoin:round;stroke-miterlimit:4;stroke-opacity:1;stroke-dasharray:none;stroke-dashoffset:0"
       id="path2787"
       d="m 69.166502,656.07936 c -0.722337,8.80432 -2.543342,17.44489 -3.929889,26.15471 -0.665948,4.86698 -1.744971,9.73381 -0.191449,14.5137 2.256515,2.40012 6.714683,1.86156 9.674275,1.43016 7.415392,-0.77829 14.468472,-3.12446 21.430617,-5.68204 8.916594,-2.85542 17.699944,-6.13815 26.772674,-8.47097 5.63522,-1.55577 11.24269,-3.12871 16.78938,-4.98117 0,0 -6.6492,5.16274 -6.6492,5.16274 l 0,0 c -5.55305,1.81279 -11.1667,3.37199 -16.79785,4.92095 -9.04541,2.41059 -17.843078,5.63417 -26.737242,8.54077 -7.030144,2.51222 -14.135517,4.82618 -21.604876,5.57278 -3.443159,0.32785 -8.033081,0.70886 -10.342538,-2.38937 -1.603642,-4.93453 -0.665999,-9.88331 0.09811,-14.91586 1.388509,-8.69311 3.301967,-17.30537 3.900024,-26.10825 0,0 7.58796,-3.74815 7.58796,-3.74815 z" />
    <path
       style="fill:#000000;fill-opacity:1;stroke:#000000;stroke-width:4.69999981;stroke-linecap:round;stroke-linejoin:round;stroke-miterlimit:4;stroke-opacity:1;stroke-dasharray:none;stroke-dashoffset:0"
       id="path2789"
       d="m 323.50747,109.41813 c 5.31872,-5.85912 10.9058,-11.470133 16.42135,-17.143259 3.5636,-4.026262 7.42206,-7.770171 10.93903,-11.837755 4.62654,-4.657583 10.83662,-10.621497 17.24857,-6.593735 4.44907,3.662232 6.18011,9.402664 7.6414,14.767268 1.53922,7.718772 3.12574,15.420961 4.30573,23.205531 0.11168,0.79062 0.22335,1.58124 0.33503,2.37186 0,0 -7.50096,3.94981 -7.50096,3.94981 l 0,0 c -0.10232,-0.79185 -0.20464,-1.5837 -0.30697,-2.37555 -1.1074,-7.76784 -2.6891,-15.43918 -4.23856,-23.127197 -1.39238,-5.133194 -3.01985,-10.746146 -7.3709,-14.164307 -1.2918,-0.695921 -1.46531,-0.972672 -2.97867,-1.050658 -0.4836,-0.02492 -1.82163,0.445339 -1.44601,0.139711 10.54131,-8.577104 4.43069,-2.084985 2.11707,-0.426058 -3.50397,4.117434 -7.38909,7.853135 -10.96256,11.908948 -5.55434,5.608628 -11.09837,11.260451 -16.37228,17.131571 0,0 -7.83127,3.24382 -7.83127,3.24382 z" />
    <path
       style="fill:#000000;fill-opacity:1;stroke:#000000;stroke-width:4.69999981;stroke-linecap:round;stroke-linejoin:round;stroke-miterlimit:4;stroke-opacity:1;stroke-dasharray:none;stroke-dashoffset:0"
       id="path2801"
       d="m 331.12845,506.40109 c 1.87403,-6.54234 3.77171,-13.06493 7.24272,-18.95352 3.72648,-5.42752 8.44422,-10.07151 13.07874,-14.7133 5.67667,-5.38243 12.36275,-9.04821 19.12357,-12.88844 8.29969,-4.19731 -9.28929,6.30754 -2.14486,1.3601 0,0 7.93592,-3.13432 7.93592,-3.13432 l 0,0 c -3.84852,2.82916 -8.07896,5.11219 -12.41667,7.09885 14.05566,-8.29672 -2.73258,1.71209 -4.69503,4.33191 -4.62309,4.61221 -9.33184,9.20841 -13.15717,14.52552 -3.59146,5.76775 -5.53577,12.23165 -7.28564,18.76565 0,0 -7.68158,3.60755 -7.68158,3.60755 z" />
    <path
       style="fill:#000000;fill-opacity:1;stroke:#000000;stroke-width:4.69999981;stroke-linecap:round;stroke-linejoin:round;stroke-miterlimit:4;stroke-opacity:1;stroke-dasharray:none;stroke-dashoffset:0"
       id="path2803"
       d="m 397.77132,432.57528 c 5.24683,-4.4606 10.01811,-9.3992 14.71649,-14.42237 3.27329,-3.52556 6.60543,-6.99486 9.95692,-10.44587 0,0 7.81851,-3.25068 7.81851,-3.25068 l 0,0 c -3.36346,3.44451 -6.7024,6.91264 -9.98183,10.43754 -4.69927,5.02982 -9.45603,9.98217 -14.63509,14.52108 0,0 -7.875,3.1603 -7.875,3.1603 z" />
    <path
       style="fill:#000000;fill-opacity:1;stroke:#000000;stroke-width:4.69999981;stroke-linecap:round;stroke-linejoin:round;stroke-miterlimit:4;stroke-opacity:1;stroke-dasharray:none;stroke-dashoffset:0"
       id="path2805"
       d="m 454.60834,375.17741 c 3.96927,-5.43385 8.00324,-10.84741 12.48432,-15.87395 3.01183,-3.49307 6.15688,-6.89131 9.48358,-10.08894 1.32077,-0.98589 2.40127,-2.20554 3.44078,-3.46924 0,0 7.82838,-3.34933 7.82838,-3.34933 l 0,0 c -1.01047,1.32544 -1.99402,2.66808 -3.4138,3.59803 -3.42773,3.08379 -6.48768,6.58994 -9.54072,10.03646 -4.57133,4.91627 -8.57631,10.36301 -12.4794,15.81317 0,0 -7.80314,3.3338 -7.80314,3.3338 z" />
    <path
       style="fill:#000000;fill-opacity:1;stroke:#000000;stroke-width:4.69999981;stroke-linecap:round;stroke-linejoin:round;stroke-miterlimit:4;stroke-opacity:1;stroke-dasharray:none;stroke-dashoffset:0"
       id="path2807"
       d="m 537.46548,295.17741 c 4.75434,-5.60868 9.24702,-11.41225 13.7551,-17.21813 2.19551,-3.22156 4.73383,-6.17805 7.27805,-9.12247 0,0 7.7706,-3.28068 7.7706,-3.28068 l 0,0 c -2.57083,2.91728 -5.16962,5.82467 -7.3106,9.08492 -4.51071,5.78193 -8.94536,11.60787 -13.69001,17.20256 0,0 -7.80314,3.3338 -7.80314,3.3338 z" />
    <path
       style="fill:#000000;fill-opacity:1;stroke:#000000;stroke-width:4.69999981;stroke-linecap:round;stroke-linejoin:round;stroke-miterlimit:4;stroke-opacity:1;stroke-dasharray:none;stroke-dashoffset:0"
       id="path2809"
       d="m 620.32263,209.46312 c 5.50983,-6.78152 11.40701,-13.23173 17.38549,-19.59899 3.8435,-4.06376 7.76997,-8.04759 11.69431,-12.03293 0,0 7.78223,-3.2292 7.78223,-3.2292 l 0,0 c -3.9413,3.97921 -7.87528,7.96616 -11.73288,12.02694 -5.96546,6.32728 -11.86315,12.72871 -17.32601,19.50038 0,0 -7.80314,3.3338 -7.80314,3.3338 z" />
    <path
       style="fill:#000000;fill-opacity:1;stroke:#000000;stroke-width:4.69999981;stroke-linecap:round;stroke-linejoin:round;stroke-miterlimit:4;stroke-opacity:1;stroke-dasharray:none;stroke-dashoffset:0"
       id="path2811"
       d="m 329.88211,506.28334 c -1.46905,-6.65598 -3.79305,-12.94129 -6.87671,-18.99648 -2.1512,-3.42335 -4.87575,-6.34954 -8.40581,-8.32656 -1.269,-0.51702 -2.40089,-1.29771 -3.55076,-2.02929 0,0 7.16253,-4.61098 7.16253,-4.61098 l 0,0 c 1.14612,0.7187 2.29657,1.43356 3.52509,2.00686 3.59838,2.15056 6.41946,5.19996 8.61769,8.77004 3.08756,6.10954 5.41483,12.44691 6.96812,19.13083 0,0 -7.44015,4.05558 -7.44015,4.05558 z" />
    <path
       style="fill:#000000;fill-opacity:1;stroke:#000000;stroke-width:4.69999981;stroke-linecap:round;stroke-linejoin:round;stroke-miterlimit:4;stroke-opacity:1;stroke-dasharray:none;stroke-dashoffset:0"
       id="path2813"
       d="m 297.55555,450.3947 c -5.17831,-3.2171 -9.78698,-7.10681 -14.14111,-11.34841 0,0 7.22271,-4.43718 7.22271,-4.43718 l 0,0 c 4.32111,4.2422 8.9348,8.08598 14.10395,11.27216 0,0 -7.18555,4.51343 -7.18555,4.51343 z" />
    <path
       style="fill:#000000;fill-opacity:1;stroke:#000000;stroke-width:4.69999981;stroke-linecap:round;stroke-linejoin:round;stroke-miterlimit:4;stroke-opacity:1;stroke-dasharray:none;stroke-dashoffset:0"
       id="path2815"
       d="m 260.41269,410.3947 c -4.14074,-4.38567 -8.81835,-8.15651 -13.50189,-11.93352 -1.96982,-2.04888 -1.07183,-1.03277 -2.71599,-3.02874 0,0 7.29076,-4.37052 7.29076,-4.37052 l 0,0 c 1.57334,1.91971 0.71206,0.94785 2.60613,2.89567 4.65956,3.8041 9.28549,7.62636 13.50654,11.92368 0,0 -7.18555,4.51343 -7.18555,4.51343 z" />
    <path
       style="fill:#000000;fill-opacity:1;stroke:#000000;stroke-width:4.69999981;stroke-linecap:round;stroke-linejoin:round;stroke-miterlimit:4;stroke-opacity:1;stroke-dasharray:none;stroke-dashoffset:0"
       id="path2817"
       d="m 194.67748,330.0107 c -2.54414,-2.36078 -4.7065,-5.08036 -6.90201,-7.75539 0,0 7.23882,-4.33784 7.23882,-4.33784 l 0,0 c 2.17475,2.66055 4.32645,5.358 6.8906,7.66427 0,0 -7.22741,4.42896 -7.22741,4.42896 z" />
    <path
       style="fill:#000000;fill-opacity:1;stroke:#000000;stroke-width:4.69999981;stroke-linecap:round;stroke-linejoin:round;stroke-miterlimit:4;stroke-opacity:1;stroke-dasharray:none;stroke-dashoffset:0"
       id="path2819"
       d="m 231.84126,353.25185 c -5.34869,-4.20089 -10.67072,-8.20702 -15.12646,-13.37191 -2.48151,-3.22793 -4.4667,-6.75041 -6.30877,-10.36674 0,0 7.35445,-4.1917 7.35445,-4.1917 l 0,0 c 1.78879,3.56772 3.74286,7.02645 6.18689,10.19804 4.43369,5.11523 9.73364,9.0959 15.07944,13.21887 0,0 -7.18555,4.51344 -7.18555,4.51344 z" />
    <path
       style="fill:#000000;fill-opacity:1;stroke:#000000;stroke-width:4.69999981;stroke-linecap:round;stroke-linejoin:round;stroke-miterlimit:4;stroke-opacity:1;stroke-dasharray:none;stroke-dashoffset:0"
       id="path2821"
       d="m 168.98412,304.68042 c -4.9755,-4.46961 -9.70795,-9.20558 -14.6777,-13.67936 -3.05022,-2.63339 -4.6527,-6.14758 -5.92115,-9.87147 0,0 7.4487,-4.10169 7.4487,-4.10169 l 0,0 c 1.17291,3.6158 2.70326,6.9829 5.66182,9.5192 4.92626,4.50182 9.63681,9.23581 14.67388,13.61988 0,0 -7.18555,4.51344 -7.18555,4.51344 z" />
    <path
       style="fill:#000000;fill-opacity:1;stroke:#000000;stroke-width:4.69999981;stroke-linecap:round;stroke-linejoin:round;stroke-miterlimit:4;stroke-opacity:1;stroke-dasharray:none;stroke-dashoffset:0"
       id="path2823"
       d="m 137.29523,254.06106 c -6.67135,-2.0886 -13.24678,-4.75929 -19.35695,-8.17039 -4.49318,-1.99586 -7.97657,-5.23527 -11.33789,-8.72006 0,0 7.22937,-4.41165 7.22937,-4.41165 l 0,0 c 3.30365,3.43332 6.77919,6.53708 11.18238,8.51969 6.10651,3.35017 12.63462,6.02545 19.30575,8.0176 0,0 -7.02266,4.76481 -7.02266,4.76481 z" />
    <path
       style="fill:#000000;fill-opacity:1;stroke:#000000;stroke-width:4.69999981;stroke-linecap:round;stroke-linejoin:round;stroke-miterlimit:4;stroke-opacity:1;stroke-dasharray:none;stroke-dashoffset:0"
       id="path2825"
       d="m 125.57241,217.31984 c -7.98636,-2.03154 -16.05669,-3.62731 -24.24586,-4.54261 -6.978211,-0.53738 -13.834204,-2.02395 -20.771567,-2.93284 -3.576735,-0.43945 -7.175188,-0.639 -10.776278,-0.70829 2.575236,-1.07295 5.016619,-2.55259 7.725709,-3.21883 0.466795,-0.1148 0.608001,0.74712 0.949628,1.0853 2.094601,2.07349 4.799037,3.57566 7.06655,5.48136 5.257084,4.72933 8.646099,11.17643 11.957589,17.33442 3.751979,7.62707 6.173019,15.75713 8.730119,23.83293 1.60074,4.57415 2.0199,10.82227 6.35442,13.79381 0,0 -7.20142,4.55837 -7.20142,4.55837 l 0,0 c -4.26599,-3.40795 -4.9879,-9.38677 -6.5331,-14.30359 -2.517384,-8.03445 -4.913818,-16.11771 -8.648233,-23.69665 -3.269387,-6.06204 -6.611275,-12.41797 -11.84231,-17.02715 -0.731428,-0.60339 -8.673738,-6.36636 -8.264077,-6.90324 1.797632,-2.35585 4.413747,-3.95536 6.62062,-5.93305 3.600824,0.12271 7.198395,0.34985 10.772272,0.82317 6.912647,0.95678 13.757028,2.41599 20.720798,2.9484 8.20557,0.96515 16.26557,2.6707 24.31278,4.52393 0,0 -6.92764,4.88456 -6.92764,4.88456 z" />
    <path
       style="fill:#000000;fill-opacity:1;stroke:#000000;stroke-width:4.69999981;stroke-linecap:round;stroke-linejoin:round;stroke-miterlimit:4;stroke-opacity:1;stroke-dasharray:none;stroke-dashoffset:0"
       id="path2827"
       d="m 645.85616,144.54738 c 8.46449,1.13872 17.07886,0.40402 25.58698,0.0819 3.55993,-0.19238 9.89128,-3.66979 10.9764,1.53908 -1.515,6.2534 -6.10852,11.48687 -9.672,16.73383 -5.15967,6.98714 -9.91226,14.25864 -13.97682,21.94003 -1.01167,1.97287 -1.88283,4.01012 -2.71957,6.06121 0,0 -7.72457,3.56635 -7.72457,3.56635 l 0,0 c 0.8495,-2.0856 1.73493,-4.1566 2.75445,-6.16655 4.0224,-7.73292 8.79352,-15.03795 13.97224,-22.04059 3.48813,-5.18041 7.64749,-10.2161 9.82641,-16.10892 -0.28717,-3.99064 -7.97582,-0.25388 -10.22098,-0.55684 -8.56023,0.30898 -17.21214,0.99245 -25.73018,-0.16495 0,0 6.92764,-4.88456 6.92764,-4.88456 z" />
    <path
       style="fill:#000000;fill-opacity:1;stroke:#000000;stroke-width:4.69999981;stroke-linecap:round;stroke-linejoin:round;stroke-miterlimit:4;stroke-opacity:1;stroke-dasharray:none;stroke-dashoffset:0"
       id="path2829"
       d="m 66.027131,244.22041 c -1.045456,0.43036 -2.094268,0.85266 -3.136367,1.29109 -3.379147,1.42166 -3.422154,1.41887 -6.713766,3.12926 -1.005776,0.52262 -4.012179,2.10994 -2.993713,1.6125 5.189418,-2.53463 6.250486,-3.903 2.880568,-0.65551 -2.527223,3.30337 -0.606281,6.65345 2.082492,9.11778 2.599773,2.67089 5.819712,4.6584 9.11482,6.35598 3.671531,1.9012 6.902624,4.1168 9.903531,6.95618 3.728753,3.09001 6.182682,6.98604 8.137845,11.34792 1.549312,3.6418 -0.216794,6.56701 -2.195139,9.57715 -2.918979,4.37521 -6.690021,8.00007 -10.69983,11.35434 -6.472832,4.86126 -13.677953,13.12347 -22.169937,13.44461 -2.329472,-1.50673 -1.313174,-0.61547 -3.073072,-2.64596 0,0 7.273063,-4.39697 7.273063,-4.39697 l 0,0 c 1.520373,1.67145 0.639999,1.0145 2.625441,1.99169 3.69528,-0.52869 3.007298,-0.70788 -2.948075,2.89451 -0.858109,0.51907 1.66001,-1.12623 2.475116,-1.71051 2.783961,-1.99559 5.349363,-4.22998 7.981903,-6.41683 4.00615,-3.29383 7.814013,-6.79766 10.754146,-11.1157 1.882808,-2.7143 3.949295,-5.39463 2.570866,-8.80632 -1.868012,-4.29165 -4.293158,-8.04656 -7.944761,-11.06536 -2.968202,-2.74851 -6.204697,-4.88853 -9.798826,-6.75116 -3.338269,-1.77588 -6.594451,-3.8211 -9.241646,-6.5516 -2.8581,-2.77185 -5.070359,-6.54633 -2.667583,-10.33393 6.369914,-6.8006 16.085859,-10.1589 24.484643,-13.8297 0,0 -6.701719,5.20654 -6.701719,5.20654 z" />
    <path
       style="fill:#000000;fill-opacity:1;stroke:#000000;stroke-width:4.69999981;stroke-linecap:round;stroke-linejoin:round;stroke-miterlimit:4;stroke-opacity:1;stroke-dasharray:none;stroke-dashoffset:0"
       id="path2831"
       d="m 59.878925,216.77083 c 4.130348,2.19579 8.060987,4.4203 12.729305,5.07041 0,0 -6.945893,4.87945 -6.945893,4.87945 l 0,0 c -4.671891,-0.84753 -8.667319,-3.14875 -12.868671,-5.28801 0,0 7.085259,-4.66185 7.085259,-4.66185 z" />
    <path
       style="fill:#000000;fill-opacity:1;stroke:#000000;stroke-width:4.69999981;stroke-linecap:round;stroke-linejoin:round;stroke-miterlimit:4;stroke-opacity:1;stroke-dasharray:none;stroke-dashoffset:0"
       id="path2833"
       d="m 885.6431,500.95782 c -7.64451,0.90334 -15.28105,2.57692 -22.21221,5.99111 10.13625,-5.4495 2.20867,-1.74183 2.08094,2.02603 -0.0366,1.08039 0.43407,1.9634 0.81897,2.92604 2.42751,3.60913 6.30451,6.24451 9.91432,8.60856 4.66013,3.21168 9.67753,5.76282 14.99505,7.67509 4.35034,1.69469 8.57162,3.65823 12.8672,5.48084 3.92768,1.37648 7.7697,3.0342 11.48678,4.90935 3.67687,2.27629 6.37859,3.24596 6.65231,7.89971 -0.72969,4.91286 -4.02486,8.23403 -7.43974,11.5286 -6.42346,5.2704 -12.92049,10.48048 -19.96975,14.89079 -11.09372,7.15363 -22.57331,12.4036 -35.52284,14.74017 -6.85695,0.35384 -3.51864,0.29296 -10.01425,0.21769 0,0 6.78883,-4.92396 6.78883,-4.92396 l 0,0 c 6.42652,0.0297 3.12482,0.12834 9.90381,-0.3363 5.05026,-0.96991 9.86937,-2.0633 14.64791,-4.02189 3.16607,-1.29768 5.98154,-3.43492 9.24704,-4.45691 1.08061,-0.3382 -1.91653,1.20637 -2.8748,1.80956 7.09228,-4.28516 13.49429,-9.55262 19.97417,-14.70098 3.3463,-3.1649 6.6139,-6.18996 7.69646,-10.85962 -0.0367,-4.26886 -2.85409,-5.05317 -6.18323,-7.1209 -3.7121,-1.85479 -7.55833,-3.45195 -11.45781,-4.86693 -4.26642,-1.84585 -8.48922,-3.77122 -12.82472,-5.45516 -5.34107,-1.9998 -10.39587,-4.6101 -15.10713,-7.83795 -3.73395,-2.50147 -7.73344,-5.21709 -10.20586,-9.02786 -3.45011,-8.38922 4.64005,-10.35308 11.13316,-14.36524 7.07258,-3.20974 14.69971,-4.87552 22.39164,-5.80901 0,0 -6.78625,5.07917 -6.78625,5.07917 z" />
    <path
       style="fill:#000000;fill-opacity:1;stroke:#000000;stroke-width:4.69999981;stroke-linecap:round;stroke-linejoin:round;stroke-miterlimit:4;stroke-opacity:1;stroke-dasharray:none;stroke-dashoffset:0"
       id="path2835"
       d="m 599.67737,152.4041 c -7.20985,8.60508 -17.26786,14.13977 -27.9342,17.27257 -9.14054,2.44825 -18.04245,0.88764 -26.84906,-1.89272 -8.97269,-3.11167 -12.64643,-8.55009 -15.36281,-17.26034 -2.75639,-10.31367 0.41489,-19.86893 4.99491,-29.0639 7.78318,-13.57168 21.12912,-20.38696 34.39972,-27.578527 11.82947,-5.136025 23.07075,-6.511796 35.68391,-4.201862 11.34268,2.741833 18.04663,9.30783 24.7754,18.317609 5.47475,8.19623 7.70146,17.56073 7.95338,27.2912 -0.45323,8.41107 -3.10951,16.00823 -8.11439,22.73367 -6.23683,6.81753 -16.06657,12.22843 -25.12784,14.35527 -0.78614,0.0987 -1.57229,0.19732 -2.35843,0.29598 0,0 6.78986,-5.07911 6.78986,-5.07911 l 0,0 c 0.76134,-0.11831 1.52268,-0.23661 2.28403,-0.35492 3.29325,-0.89543 2.69859,-0.59926 6.04641,-2.12977 1.09745,-0.50171 4.0333,-2.5146 3.24817,-1.59825 -1.02931,1.20133 -2.55298,1.9385 -4.02852,2.50902 -2.22021,0.85845 8.14406,-4.78104 5.40169,-4.67098 5.14081,-6.49301 7.81458,-13.95033 8.39293,-22.23706 -0.15131,-9.5644 -2.32209,-18.7833 -7.68672,-26.84424 -6.6309,-8.86745 -13.21844,-15.215593 -24.41679,-17.799291 -12.51005,-2.141465 -23.69101,-0.599213 -35.33703,4.607335 0.4355,-0.398273 1.82695,-1.473052 1.3065,-1.19482 -6.96783,3.724976 -13.57725,9.183746 -18.41673,15.438896 -1.15802,1.49677 -2.12353,3.13303 -3.18529,4.69955 -4.57937,8.98476 -7.905,18.29957 -5.22922,28.46318 2.60898,8.52773 6.15241,13.61054 14.93711,16.56726 8.72298,2.71192 17.54777,4.05191 26.53927,1.49582 1.44887,-0.45659 2.92532,-0.83345 4.3466,-1.36978 1.38834,-0.5239 2.61323,-2.0937 4.06894,-1.80588 1.2383,0.24483 -3.49504,3.20593 -3.23337,1.97109 0.18268,-0.86207 7.91278,-5.73661 8.30843,-7.6032 0,0 7.80314,-3.3338 7.80314,-3.3338 z" />
    <path
       style="fill:#000000;fill-opacity:1;stroke:#000000;stroke-width:4.69999981;stroke-linecap:round;stroke-linejoin:round;stroke-miterlimit:4;stroke-opacity:1;stroke-dasharray:none;stroke-dashoffset:0"
       id="path2837"
       d="m 619.6578,121.28569 c -3.36176,5.48609 -6.94609,10.8385 -10.54261,16.17451 0,0 -7.72849,3.37469 -7.72849,3.37469 l 0,0 c 3.61353,-5.30826 7.22614,-10.63481 10.50711,-16.15219 0,0 7.76399,-3.39701 7.76399,-3.39701 z" />
    <path
       style="fill:#000000;fill-opacity:1;stroke:#000000;stroke-width:4.69999981;stroke-linecap:round;stroke-linejoin:round;stroke-miterlimit:4;stroke-opacity:1;stroke-dasharray:none;stroke-dashoffset:0"
       id="path2839"
       d="m 602.83836,95.521869 c -4.20451,7.444161 -8.51861,14.829891 -13.45071,21.819331 -4.51234,6.26182 -9.83831,11.8447 -15.56225,16.99782 -0.66945,0.55191 -1.3389,1.10382 -2.00835,1.65573 0,0 -7.85754,3.15958 -7.85754,3.15958 l 0,0 c 0.68058,-0.54345 1.36116,-1.08691 2.04174,-1.63036 5.80321,-5.04373 11.10627,-10.64382 15.67893,-16.83812 4.95777,-6.91868 9.25747,-14.25621 13.43088,-21.667906 0,0 7.7273,-3.496075 7.7273,-3.496075 z" />
    <path
       style="fill:#000000;fill-opacity:1;stroke:#000000;stroke-width:4.69999981;stroke-linecap:round;stroke-linejoin:round;stroke-miterlimit:4;stroke-opacity:1;stroke-dasharray:none;stroke-dashoffset:0"
       id="path2841"
       d="m 573.96309,106.68982 c -6.44907,8.91964 -12.36403,18.22737 -18.39144,27.43911 0,0 -7.63596,3.34793 -7.63596,3.34793 l 0,0 c 6.03148,-9.17948 11.94821,-18.4425 18.22426,-27.45325 0,0 7.80314,-3.33379 7.80314,-3.33379 z" />
    <path
       style="fill:#000000;fill-opacity:1;stroke:#000000;stroke-width:4.69999981;stroke-linecap:round;stroke-linejoin:round;stroke-miterlimit:4;stroke-opacity:1;stroke-dasharray:none;stroke-dashoffset:0"
       id="path2843"
       d="m 120.60433,321.45561 c -0.65377,7.01748 0.0528,13.94654 2.57517,20.52486 2.0724,3.45905 4.73867,6.54431 8.23022,8.59702 3.45273,1.88511 6.95952,3.46656 10.81762,4.27978 4.01309,0.66576 8.08569,0.71867 12.1424,0.75709 4.03524,0.25954 7.76627,-0.0307 11.43385,-1.79517 2.43746,-1.09953 6.75863,-3.11303 -3.43949,2.09639 -0.65535,0.33477 1.25258,-0.77308 1.86928,-1.17462 1.97435,-1.28554 3.86232,-2.66105 5.7302,-4.09467 4.57913,-2.86799 8.16578,-6.84655 11.47827,-11.04808 4.29334,-5.78816 9.3731,-10.91414 13.97821,-16.43836 4.27046,-5.20205 8.39805,-10.55082 11.89197,-16.31144 2.57225,-4.78745 4.2778,-9.82653 5.23896,-15.15819 0.78823,-5.47231 0.82844,-11.01383 0.85913,-16.53147 -0.52581,-4.63443 -1.61612,-9.14022 -3.11778,-13.54282 -1.43154,-3.43749 -1.58167,-7.18133 -3.52089,-10.37959 -1.781,-3.21852 -4.91636,-4.94694 -7.55679,-7.27133 -1.9434,-1.70865 -4.2704,-2.58444 -6.73823,-3.20692 -1.41913,-2.10814 0.53141,-4.31003 1.8487,-5.94241 2.171,-2.83544 4.36682,-5.64047 6.71903,-8.32944 1.25283,-3.23002 14.73883,-8.59868 6.41971,-2.87667 -3.45299,2.96962 -7.00879,5.81375 -10.44633,8.80173 -2.97567,2.69621 -6.37617,4.94291 -8.79239,8.19777 -1.47922,2.40756 -0.12897,5.34808 0.38748,7.91667 1.27752,3.44304 2.47862,6.89111 3.16135,10.50493 0.33978,2.82526 2.53406,5.22416 2.63224,8.03386 -0.53787,3.89542 -6.41221,6.97085 -9.70533,4.60994 0,0 7.18448,-4.60225 7.18448,-4.60225 l 0,0 c 3.70918,2.23837 -8.34899,7.62803 -5.1072,3.81987 0.52295,-2.5454 -2.49413,-5.23693 -2.50946,-7.86356 -0.64785,-3.61719 -1.82823,-7.0712 -3.16009,-10.49149 -0.53805,-2.72478 -1.98144,-5.9089 -0.68442,-8.52183 2.16873,-3.49806 5.75093,-5.68016 8.73244,-8.41091 3.43574,-3.00029 7.03942,-5.80617 10.39775,-8.88683 3.12286,-2.14706 16.43761,-10.04505 9.32166,-3.53312 -2.37062,2.66815 -4.63282,5.41939 -6.7091,8.32491 -1.15753,1.19981 -2.55898,2.75789 -2.65265,4.41527 2.53885,0.73751 4.92323,1.75905 6.9248,3.54078 2.75297,2.33254 5.83119,4.25439 7.68241,7.50526 1.9903,3.26604 2.2174,7.00677 3.59626,10.54815 1.54175,4.49097 2.64357,9.07634 3.24437,13.79903 -0.0503,5.5595 -0.0611,11.14052 -0.80553,16.66089 -0.91136,5.42671 -2.57148,10.53856 -5.1094,15.43853 -3.4188,5.84163 -7.62421,11.19003 -11.87344,16.44378 -4.54173,5.56279 -9.68639,10.61887 -13.96336,16.40764 -3.27651,4.23209 -6.74235,8.40995 -11.37465,11.22978 -5.73678,4.54709 -12.07973,8.48106 -18.68805,11.59299 -3.77825,1.52674 -7.60898,1.74258 -11.65659,1.50837 -4.09342,-0.0567 -8.20517,-0.14609 -12.24148,-0.90393 -3.8962,-0.92149 -7.48312,-2.55728 -10.97334,-4.50966 -3.57831,-2.25268 -6.38688,-5.42926 -8.49369,-9.09119 -2.53971,-6.71372 -3.30757,-13.73694 -2.78475,-20.89864 0,0 7.60647,-3.7407 7.60647,-3.7407 z" />
    <path
       style="fill:#000000;fill-opacity:1;stroke:#000000;stroke-width:4.69999981;stroke-linecap:round;stroke-linejoin:round;stroke-miterlimit:4;stroke-opacity:1;stroke-dasharray:none;stroke-dashoffset:0"
       id="path2845"
       d="m 205.08583,175.00623 c -4.96078,3.74465 -9.68383,7.59202 -13.09931,12.82752 -2.34607,3.66297 -1.71553,7.24019 -0.89356,11.21553 1.34811,3.74304 4.11203,5.79769 7.76996,6.95407 3.77012,1.07607 7.5167,-0.37207 10.92037,-1.96036 -10.73106,6.90036 -4.11764,2.14419 -2.10359,-0.0441 1.41026,-1.53228 2.52582,-3.19839 3.70455,-4.9048 7.34035,-10.20793 10.30939,-2.76179 13.90773,2.06493 2.35373,2.99316 5.20663,4.76896 8.90313,5.48454 -2.1864,2.8584 10.57712,-4.6287 7.32473,-2.74636 -7.19852,4.16617 -6.90874,4.03662 -3.93894,2.00958 2.51328,-2.17495 4.13073,-5.19656 5.42867,-8.21724 0.48703,-3.2445 0.42874,-6.75933 -1.31472,-9.61678 -0.99359,-2.17115 -2.6512,-3.86303 -4.0352,-5.78968 0,0 7.34724,-4.33697 7.34724,-4.33697 l 0,0 c 1.3833,1.94932 3.06917,3.65514 4.05942,5.85223 1.8574,3.11604 1.97554,6.77094 1.65891,10.32653 -1.20255,3.15813 -2.91268,6.21016 -5.23854,8.66963 -5.17553,3.68384 -11.605,8.40363 -18.27444,8.69834 -3.81198,-0.90944 -6.78418,-2.89029 -9.21846,-6.00352 -1.22835,-1.63345 -2.4746,-3.21687 -3.65895,-4.87887 -2.28852,-3.21149 -2.30793,-0.52931 5.56425,-5.83663 0.32407,-0.21849 -0.47523,0.62066 -0.71284,0.93099 -4.54874,6.31934 -8.11065,10.49125 -16.05915,13.61658 -3.59243,1.54546 -7.42247,2.71752 -11.29111,1.44509 -3.86001,-1.38817 -6.76919,-3.74311 -8.23782,-7.70301 -0.85993,-4.1227 -1.66279,-7.9393 0.63164,-11.81718 3.34205,-5.3568 7.92634,-9.33424 12.98102,-13.07973 0,0 7.87501,-3.1603 7.87501,-3.1603 z" />
  </g>
</svg>
