<?xml version="1.0" encoding="UTF-8" standalone="no"?>
<!-- Created with Inkscape (http://www.inkscape.org/) -->
<svg
   xmlns:dc="http://purl.org/dc/elements/1.1/"
   xmlns:cc="http://creativecommons.org/ns#"
   xmlns:rdf="http://www.w3.org/1999/02/22-rdf-syntax-ns#"
   xmlns:svg="http://www.w3.org/2000/svg"
   xmlns="http://www.w3.org/2000/svg"
   xmlns:sodipodi="http://sodipodi.sourceforge.net/DTD/sodipodi-0.dtd"
   xmlns:inkscape="http://www.inkscape.org/namespaces/inkscape"
   width="744.09448819"
   height="1052.3622047"
   id="svg2"
   sodipodi:version="0.32"
   inkscape:version="0.46+devel"
   sodipodi:docname="c24d1.svg"
   inkscape:output_extension="org.inkscape.output.svg.inkscape">
  <defs
     id="defs4">
    <inkscape:perspective
       sodipodi:type="inkscape:persp3d"
       inkscape:vp_x="0 : 526.18109 : 1"
       inkscape:vp_y="0 : 1000 : 0"
       inkscape:vp_z="744.09448 : 526.18109 : 1"
       inkscape:persp3d-origin="372.04724 : 350.78739 : 1"
       id="perspective10" />
  </defs>
  <sodipodi:namedview
     id="base"
     pagecolor="#ffffff"
     bordercolor="#666666"
     borderopacity="1.0"
     inkscape:pageopacity="0.0"
     inkscape:pageshadow="2"
     inkscape:zoom="0.35"
     inkscape:cx="375"
     inkscape:cy="520"
     inkscape:document-units="px"
     inkscape:current-layer="layer1"
     showgrid="false"
     inkscape:window-width="1280"
     inkscape:window-height="712"
     inkscape:window-x="-5"
     inkscape:window-y="-3" />
  <metadata
     id="metadata7">
    <rdf:RDF>
      <cc:Work
         rdf:about="">
        <dc:format>image/svg+xml</dc:format>
        <dc:type
           rdf:resource="http://purl.org/dc/dcmitype/StillImage" />
        <dc:title></dc:title>
      </cc:Work>
    </rdf:RDF>
  </metadata>
  <g
     inkscape:label="Layer 1"
     inkscape:groupmode="layer"
     id="layer1">
    <path
       style="fill:#000000;fill-opacity:1;stroke:#000000;stroke-width:4.69999981;stroke-linecap:round;stroke-linejoin:round;stroke-miterlimit:4;stroke-opacity:1;stroke-dasharray:none;stroke-dashoffset:0"
       id="path2694"
       d="m -353.05247,112.77701 c 1.18407,8.50146 1.80301,17.05883 2.17618,25.62934 0.35404,9.60199 0.32767,19.21277 0.33557,28.81974 0.36925,12.19939 -0.98165,24.33904 -1.7514,36.49681 -0.8739,14.94745 -1.01401,29.92324 -1.12767,44.89159 -0.64077,14.72261 -2.17645,29.39091 -2.04665,44.13624 0.65119,14.7165 1.32401,29.42874 1.66948,44.15635 0.30323,14.776 0.33621,29.55577 0.3549,44.33433 -0.059,13.10638 -0.19911,26.1831 0.81655,39.25503 0.95677,11.89439 2.89589,23.69274 4.71888,35.48012 1.88761,11.95814 2.51555,24.05034 2.87615,36.13431 0.25389,10.16663 0.23134,20.33739 0.23327,30.50639 0.007,3.39532 0.006,6.79064 0.0126,10.18595 0,0 -7.53975,3.83961 -7.53975,3.83961 l 0,0 c 0.0213,-3.40576 0.0356,-6.81155 0.0514,-10.21735 0.0202,-10.16875 0.0401,-20.33883 -0.179,-30.50586 -0.34426,-12.05436 -0.94201,-24.11918 -2.81404,-36.04968 -1.83189,-11.80509 -3.80407,-23.61801 -4.75543,-35.53242 -1.02227,-13.09945 -0.8878,-26.19932 -0.80173,-39.33396 -0.0227,-14.77492 -0.0389,-29.55098 -0.33547,-44.32355 -0.35231,-14.72886 -1.0145,-29.44279 -1.68674,-44.15981 -0.17875,-14.75299 1.37095,-29.42947 2.05538,-44.15725 0.1069,-14.97672 0.23435,-29.96156 1.08103,-44.91856 0.73342,-12.13409 2.08742,-24.2474 1.71615,-36.42003 -0.0179,-9.59228 -0.0151,-19.18746 -0.34527,-28.7753 -0.36725,-8.5335 -0.93285,-17.06415 -2.21169,-25.51701 0,0 7.49725,-3.95503 7.49725,-3.95503 z" />
    <path
       style="fill:#000000;fill-opacity:1;stroke:#000000;stroke-width:4.69999981;stroke-linecap:round;stroke-linejoin:round;stroke-miterlimit:4;stroke-opacity:1;stroke-dasharray:none;stroke-dashoffset:0"
       id="path2696"
       d="m -562.53452,763.74884 c 6.14056,-7.56876 12.6518,-14.82188 18.71608,-22.4517 8.49493,-11.14456 17.31623,-22.03333 25.89508,-33.11317 12.42914,-14.36593 24.16905,-29.2718 35.40643,-44.58177 10.76392,-16.3732 21.37223,-32.84241 32.1803,-49.18922 8.44217,-12.63953 17.64044,-24.76136 27.80007,-36.06536 6.58024,-7.7772 13.4208,-15.28848 20.52206,-22.58374 3.33286,-2.96501 6.6217,-5.97348 9.99373,-8.89277 2.73069,-2.48337 5.18174,-5.23065 8.1683,-7.43093 4.04581,-3.42604 19.12716,-10.34345 5.7619,-3.62295 -0.68869,0.3463 1.31007,-0.81283 1.96015,-1.22709 1.89955,-1.21046 2.19075,-1.42089 4.01649,-2.64599 5.83634,-4.25973 12.14674,-7.82501 18.39783,-11.42406 1.73191,-0.81774 3.47864,-1.66156 5.33316,-2.16928 2.43498,-0.202 4.67699,0.36577 7.02291,0.95009 6.60762,1.93298 13.2762,3.20951 20.12198,3.94284 12.44082,0.60581 24.82531,1.92745 37.25477,2.72615 16.60611,0.91533 33.24231,1.00532 49.8688,1.09967 19.281,-0.35518 38.51875,0.42535 57.76991,1.35622 19.80751,0.97302 39.63793,1.2612 59.46554,1.44067 19.630841,0.14267 39.23503,-1.26328 58.848403,-1.97594 18.78939,-0.60024 37.589088,-0.72067 56.3864566,-0.79466 15.1919414,-0.0453 30.3839854,-0.0438 45.5759834,-0.0457 10.97508,-0.0172 21.919096,-0.32674 32.84317,0.83634 6.861393,0.41755 13.484667,2.18357 20.179183,3.59689 2.395197,1.30369 6.882444,1.47017 8.581404,3.88527 0.0347,0.20826 0.0694,0.41652 0.10408,0.62478 0,0 -7.790901,3.54999 -7.790901,3.54999 l 0,0 c 0.105473,0.0567 0.210946,0.11339 0.316419,0.17008 -2.466908,-1.56076 -5.345523,-2.57455 -8.163435,-3.39976 -6.648513,-1.44586 -13.249999,-3.12462 -20.069117,-3.56479 -10.883419,-1.13238 -21.795697,-0.78737 -32.726092,-0.81311 -15.166165,-0.0173 -30.3323621,-0.0417 -45.4985231,-0.006 -18.7846329,0.0698 -37.5720109,0.18093 -56.3481999,0.79976 -19.618572,0.71327 -39.228541,2.12142 -58.865561,1.94241 -19.83375,-0.18148 -39.66964,-0.49809 -59.48319,-1.46754 -19.25359,-0.93212 -38.49559,-1.6523 -57.77808,-1.30717 -16.65467,-0.0953 -33.31937,-0.17152 -49.95337,-1.09821 -12.4633,-0.80162 -24.88788,-2.07553 -37.36229,-2.69504 -6.88625,-0.76506 -13.59443,-2.10361 -20.26354,-3.97652 -2.21372,-0.52061 -4.539,-1.10553 -6.80674,-0.54129 -1.7818,0.61609 -3.50731,1.38758 -5.17397,2.26811 13.47674,-7.93974 -1.5871,1.03902 -3.89076,2.99578 -3.7223,2.51997 -24.64695,14.42064 -9.92939,6.27827 0.63098,-0.34908 -1.19975,0.80037 -1.79962,1.20055 -3.1101,2.03933 -5.5267,4.82009 -8.19764,7.34871 -3.40612,2.9125 -6.65821,5.96484 -10.09701,8.85334 -7.10156,7.3286 -14.0908,14.73909 -20.6267,22.59478 -10.22733,11.26099 -19.46676,23.36819 -27.95165,35.99533 -10.82725,16.35353 -21.48402,32.80845 -32.19281,49.2375 -11.20348,15.31005 -22.87882,30.24653 -35.32846,44.57057 -8.53357,11.08333 -17.35451,21.94043 -25.80725,33.08572 -5.99754,7.63273 -12.50078,14.8354 -18.58315,22.40031 0,0 -7.80314,3.3338 -7.80314,3.3338 z" />
    <path
       style="fill:#000000;fill-opacity:1;stroke:#000000;stroke-width:4.69999981;stroke-linecap:round;stroke-linejoin:round;stroke-miterlimit:4;stroke-opacity:1;stroke-dasharray:none;stroke-dashoffset:0"
       id="path2700"
       d="m 209.22175,1035.1324 c 8.30679,-8.1978 16.24669,-16.7587 24.16481,-25.3314 12.02428,-12.98803 22.66625,-27.11413 33.49772,-41.08109 13.75186,-17.35028 27.019,-35.06578 40.29753,-52.7782 13.49258,-17.51298 26.09208,-35.64788 38.25897,-54.09406 8.44921,-13.20569 16.98737,-26.34966 25.14642,-39.73703 4.07865,-6.49618 8.2183,-12.98794 11.76372,-19.79631 1.58003,-2.7929 1.63662,-6.07873 3.16739,-8.86196 3.94968,-3.5451 9.23823,-6.1442 14.33241,-7.81799 4.37155,-1.01312 8.5131,-2.81322 12.68813,-4.42438 6.10919,-2.4134 12.54181,-3.54924 18.89093,-5.07402 9.39897,-1.9281 18.8184,-3.70931 28.35055,-4.84293 14.04115,-2.33101 28.24945,-3.1487 42.45106,-3.70744 18.56557,-1.50188 37.16451,-2.36767 55.78123,-2.86454 23.26008,-0.97188 46.47141,-2.72073 69.70618,-4.12271 26.91137,-1.63403 53.8507,-2.80401 80.76465,-4.38382 27.46173,-1.70815 54.9632,-2.49022 82.44064,-3.88705 26.3172,-0.96446 52.59116,-2.749 78.89867,-3.9223 22.86558,-0.44933 45.68344,-1.95076 68.52329,-3.02573 17.49011,-0.78332 34.9978,-1.01533 52.50285,-1.14912 11.3849,0.32897 22.6723,-0.19022 33.9839,-1.39476 5.9999,-0.66733 12.0168,-1.15359 18.0449,-1.4677 1.2788,-0.35804 2.8289,0.25779 4.0994,-0.10103 0.2733,-0.0772 0.9578,-0.60401 0.6997,-0.48569 -7.3618,3.37503 -6.8831,5.95832 -6.9964,2.02765 0,0 7.5624,-3.91446 7.5624,-3.91446 l 0,0 c 0.6042,6.3544 -7.5554,7.62385 -12.218,7.50542 -5.9901,0.29271 -11.9672,0.79114 -17.9294,1.43925 -11.2982,1.16637 -22.57919,1.5546 -33.9426,1.26341 -17.46782,0.10795 -34.93801,0.32708 -52.39093,1.10786 -22.81475,1.05885 -45.60944,2.51214 -68.44873,2.96886 -26.2955,1.17121 -52.55869,2.94063 -78.86398,3.90307 -27.47678,1.39638 -54.97873,2.16205 -82.43865,3.89305 -26.92715,1.56104 -53.87621,2.75885 -80.79876,4.41145 -23.26388,1.42851 -46.50617,3.17973 -69.79676,4.15551 -18.6377,0.52518 -37.25342,1.44345 -55.84188,2.92215 -14.22041,0.59097 -28.43612,1.4887 -42.49536,3.8233 -9.52851,1.18235 -18.95569,2.97529 -28.34727,4.95674 -6.3642,1.47287 -12.75953,2.76558 -18.85718,5.19761 -4.17915,1.64543 -8.37271,3.29184 -12.72743,4.42227 -2.3947,0.91565 -0.81771,0.25948 -2.95771,1.26944 -0.39778,0.18773 -1.56967,0.78712 -1.20015,0.54854 11.20106,-7.23181 6.90378,-4.12983 4.32787,-2.68562 -1.76863,2.69658 -1.73996,5.97369 -3.24107,8.83728 -3.55152,6.86172 -7.73025,13.38931 -11.86831,19.90739 -8.22457,13.40442 -16.7783,26.59491 -25.2782,39.82642 -12.20284,18.45502 -24.77378,36.64305 -38.30143,54.1655 -13.26862,17.69448 -26.47955,35.42709 -40.22148,52.75982 -10.8169,13.95481 -21.39695,28.10412 -33.37849,41.10695 -7.8691,8.5456 -15.75865,17.0753 -23.97388,25.2886 0,0 -7.83127,3.2438 -7.83127,3.2438 z" />
    <path
       style="fill:#000000;fill-opacity:1;stroke:#000000;stroke-width:4.69999981;stroke-linecap:round;stroke-linejoin:round;stroke-miterlimit:4;stroke-opacity:1;stroke-dasharray:none;stroke-dashoffset:0"
       id="path2704"
       d="m 381.62632,785.88163 c -1.39293,-10.76014 -1.52929,-21.62039 -2.48588,-32.41463 -1.39835,-13.31649 -2.43249,-26.66362 -2.18986,-40.05644 0.45849,-16.93137 1.95057,-33.79469 3.18531,-50.67864 1.21774,-19.63481 2.91856,-39.23695 4.72176,-58.82578 1.99975,-19.68859 2.07382,-39.48809 3.08951,-59.23148 1.14013,-17.89988 1.75267,-35.81705 3.17733,-53.69702 1.21432,-14.39966 1.59563,-28.83581 2.94766,-43.22279 1.168,-11.69489 1.54474,-23.43077 2.83804,-35.11228 0.77753,-9.60621 1.93641,-19.13585 3.3101,-28.67148 1.21748,-5.70644 0.77679,-11.67679 1.93751,-17.36739 0.71627,-2.35915 1.48574,-4.69318 2.0777,-7.08829 0,0 7.68917,-3.68705 7.68917,-3.68705 l 0,0 c -0.58786,2.4019 -1.28854,4.7592 -2.11063,7.09146 -1.46477,5.60229 -0.68482,11.68577 -2.05312,17.34458 -1.38473,9.53534 -2.61333,19.05575 -3.36125,28.66729 -1.33789,11.68135 -1.70712,23.41886 -2.88115,35.11761 -1.38691,14.39335 -1.80232,28.835 -3.01732,43.24391 -1.44852,17.88149 -2.09769,35.79835 -3.2382,53.70174 -1.04468,19.75323 -1.08671,39.56621 -3.0875,59.26652 -1.79094,19.58033 -3.51037,39.17127 -4.70266,58.79842 -1.20024,16.86049 -2.68912,33.6982 -3.13494,50.60416 -0.26151,13.35692 0.7881,26.67284 2.19532,39.9522 0.98321,10.76612 1.06933,21.60849 2.5855,32.3297 0,0 -7.4924,3.93568 -7.4924,3.93568 z" />
    <path
       style="fill:#000000;fill-opacity:1;stroke:#000000;stroke-width:4.69999981;stroke-linecap:round;stroke-linejoin:round;stroke-miterlimit:4;stroke-opacity:1;stroke-dasharray:none;stroke-dashoffset:0"
       id="path2708"
       d="m 236.43746,449.0372 c 4.26256,4.77121 8.68914,9.48674 12.41326,14.70062 2.29436,3.10282 3.99428,6.51315 5.81412,9.88858 2.20411,3.07381 3.84008,6.41629 5.45114,9.82041 2.54696,3.65792 4.78007,7.50271 7.22504,11.23194 2.66705,3.69598 5.19594,7.48997 7.42301,11.46972 1.96846,3.97126 4.29497,7.71768 6.74776,11.40447 3.03861,4.89054 5.61379,10.03678 8.33638,15.1034 2.42035,4.9444 5.31794,9.67391 8.56547,14.12051 2.80204,4.59411 6.33736,8.67708 9.79428,12.78766 3.91964,4.32216 7.77159,8.64568 10.98282,13.5299 3.60702,4.35691 6.27221,9.2418 8.73668,14.2925 2.20857,5.54762 4.32641,11.12834 6.57912,16.66234 2.54802,4.86744 4.5525,9.95005 6.45986,15.09335 1.80381,5.46974 3.61879,10.93323 5.48881,16.38206 1.94242,6.20378 4.08253,12.36696 6.48996,18.40737 2.57035,6.37949 4.64812,12.91235 6.71413,19.4633 1.90551,6.37386 3.65564,12.80265 5.79648,19.10332 1.6955,6.01813 4.05983,11.79624 6.16821,17.6699 2.67494,7.52652 5.75592,14.87649 8.98163,22.18395 3.31388,8.35285 6.16137,16.86243 10.02153,24.98722 3.83651,8.95464 8.21729,17.65502 12.19461,26.54691 4.60375,9.92896 9.03252,19.9318 13.43978,29.94895 4.47953,9.29296 8.59445,18.7498 12.62732,28.24238 4.02051,9.74634 7.83614,19.53645 12.32896,29.08448 3.88069,9.00786 8.37645,17.72834 12.21044,26.75578 3.20956,7.03086 5.99038,14.22603 9.26959,21.22251 2.37169,5.20086 5.68101,9.8551 8.54894,14.77438 3.12807,4.33262 6.01695,8.82816 8.56368,13.52612 2.94149,5.62106 6.0942,11.11348 9.37539,16.54451 3.12448,5.66031 6.42019,11.23604 8.90179,17.21618 2.24753,4.41712 4.3596,8.95607 7.08883,13.09959 2.4267,3.83017 4.66593,7.78409 7.57471,11.27589 2.51171,3.5436 5.24561,6.899 8.1433,10.1319 0.0254,0.028 2.49028,2.7036 2.67786,2.8682 0.39299,0.345 1.78246,0.6335 1.31151,0.8607 -8.08345,3.9004 -6.29722,5.5799 -8.75008,1.8269 -4.84927,-6.7389 -9.09218,-13.8633 -13.44272,-20.9263 -6.73598,-9.72276 -13.08371,-19.70688 -19.81571,-29.43103 -6.52255,-9.05 -13.24968,-17.94582 -19.93384,-26.87602 -5.84034,-7.33744 -11.48758,-14.82683 -17.48372,-22.03962 -5.77928,-6.84264 -10.65937,-14.32494 -15.09987,-22.08481 -4.01167,-6.66389 -7.95054,-13.37794 -12.11552,-19.94923 -4.13365,-7.51015 -8.55886,-14.8306 -13.29859,-21.97442 -3.88543,-6.2414 -7.68657,-12.51973 -11.73905,-18.65463 -3.42904,-4.96792 -5.5263,-10.61936 -8.34481,-15.91167 -3.25989,-7.14933 -6.13572,-14.41974 -9.72265,-21.41872 -4.10389,-8.5243 -8.21438,-17.03655 -12.23732,-25.59805 -4.14822,-8.9507 -9.03637,-17.52009 -13.12,-26.50083 -3.71684,-7.34883 -7.50446,-14.62846 -10.78017,-22.19096 -3.64011,-8.35046 -7.35529,-16.62239 -11.65955,-24.65789 -4.17037,-8.79545 -8.85433,-17.30501 -13.78565,-25.69129 -5.16939,-8.39306 -9.65952,-17.18199 -14.56703,-25.73326 -4.52497,-8.2113 -8.17479,-16.85952 -12.01103,-25.40435 -3.80828,-7.81157 -7.75394,-15.56692 -11.24925,-23.52406 -3.51659,-8.05072 -7.33048,-15.93016 -11.40441,-23.70816 -3.13151,-5.55015 -6.46697,-11.00518 -10.116,-16.23206 -4.01315,-6.22269 -6.50359,-13.11882 -8.88487,-20.07789 -1.37797,-5.24577 -3.51944,-10.25287 -4.93646,-15.4815 -1.70259,-5.09389 -3.14718,-10.25086 -5.19767,-15.22193 -1.92248,-4.46559 -3.3208,-9.10946 -5.04012,-13.64945 -3.17794,-8.66025 -2.95403,-6.96042 7.14281,-11.2779 3.48321,1.47394 6.09056,4.3066 8.2501,7.33063 4.74851,6.90422 8.5683,14.40392 12.21512,21.93131 6.00048,13.47019 13.61591,26.12418 21.27623,38.69589 8.09562,12.52148 15.30706,25.5819 23.29502,38.16685 4.66479,6.50506 7.87284,13.92836 12.2776,20.58465 0.0507,0.0709 0.10136,0.14181 0.15204,0.21271 -2.64745,1.21825 -5.11328,2.9551 -7.94235,3.65476 -0.0704,0.0174 -8.55025,-10.15789 -8.96447,-10.65812 -8.99503,-10.9231 -16.63056,-22.86475 -24.00037,-34.91686 -6.96057,-11.66465 -13.15544,-23.75634 -19.74502,-35.62958 -3.51786,-7.50766 -8.06183,-14.83467 -10.15442,-22.92191 -0.0767,-0.49325 -0.66054,-1.22693 -0.23011,-1.47973 2.64549,-1.55378 5.50806,-3.01027 8.55035,-3.407 0.50764,-0.0662 9.29428,13.99383 9.933,15.02574 7.88183,12.43261 15.99954,24.70069 24.41438,36.78075 2.9236,4.15451 6.03847,8.16665 9.13256,12.19348 0.50215,0.65353 0.96231,1.34053 1.49598,1.96858 0.23563,0.27729 1.14334,0.60657 0.80413,0.73829 -2.56807,0.99719 -5.33627,1.37173 -8.00441,2.05759 -4.96101,-11.4588 -10.99208,-22.4296 -16.31816,-33.72891 -6.03595,-13.57124 -12.39233,-26.99874 -18.38611,-40.58901 -1.66805,-3.31697 -3.09944,-6.78824 -4.99457,-9.99088 -0.89834,-1.51816 -1.66362,-1.97659 -1.33548,-2.12404 2.55856,-1.14962 5.32367,-1.76919 7.9855,-2.65378 2.76773,9.02354 6.14182,17.84888 9.53265,26.65263 4.37006,10.89847 9.45452,21.51961 14.87501,31.93364 -4.7399,0.2582 3.34855,3.10992 2.07245,3.75352 -2.50244,1.26209 -5.18915,2.75522 -7.98869,2.62232 -0.22354,-0.0106 -4.25751,-9.71561 -5.81984,-13.13195 -6.49297,-14.49332 -14.2455,-28.34094 -21.40824,-42.49425 -2.51249,-5.01728 -5.0552,-10.00946 -7.82258,-14.89008 -0.39961,-0.70477 -0.76409,-1.43046 -1.196,-2.1159 -0.16252,-0.25791 -0.87153,-0.61062 -0.58185,-0.70555 2.66895,-0.87465 5.48739,-1.20081 8.23108,-1.80121 4.30896,10.38162 9.0233,20.57788 14.03639,30.63689 5.08266,10.60273 10.25869,21.14389 15.55066,31.64425 0.31624,0.55368 0.63248,1.10737 0.94873,1.66105 0.0347,-0.0291 0.1466,-0.1035 0.10421,-0.0874 -2.62561,0.99545 -5.05563,2.90359 -7.86084,3.02819 -0.95614,0.0425 -0.72379,-1.77443 -1.15752,-2.6276 -0.91464,-1.79914 -3.68023,-6.46023 -4.57651,-7.99295 -5.34407,-10.30846 -11.21127,-20.26228 -17.77442,-29.83039 -2.59763,-3.6502 -11.03317,-9.60267 3.40176,-7.5915 1.24024,0.1728 1.08979,2.2553 1.66682,3.36664 0.86289,1.66191 1.76828,3.3014 2.65241,4.9521 9.33283,16.09289 19.87794,31.47195 30.49865,46.73861 8.1034,11.40006 16.22758,22.77953 24.69347,33.91368 -4.85916,0.75314 2.9724,1.57505 2.1124,2.04503 -2.44608,1.33675 -4.86649,3.00948 -7.61966,3.44564 -0.75515,0.11963 -0.565,-1.42703 -0.949,-2.08818 -0.5499,-0.94682 -4.00182,-5.7977 -4.38728,-6.34494 -5.17525,-7.93267 -10.93388,-15.4445 -16.9472,-22.75302 4.06082,-2.68733 -3.77432,-1.21207 -2.80911,-1.74426 2.19798,-1.21191 4.3712,-2.87346 6.87298,-3.07587 0.83838,-0.0678 0.225,1.67201 0.44533,2.48376 1.044,3.84655 2.05711,5.83469 3.66675,9.66425 9.42642,18.65803 20.6209,36.34942 31.27711,54.31524 10.10555,17.11534 20.68136,33.96394 29.82281,51.62447 2.88741,6.84862 8.46872,11.73819 -4.3582,13.25995 -1.06867,0.12678 -1.37604,-1.65803 -1.99442,-2.53879 -1.0216,-1.45508 -1.94746,-2.97507 -2.92119,-4.4626 -10.54299,-16.53347 -19.58246,-33.95705 -29.25294,-51.00233 -4.84727,-8.32473 -9.39308,-16.82139 -14.43092,-25.03499 -0.9449,-1.54054 -1.87111,-3.09669 -2.92255,-4.56658 -0.45979,-0.64277 -2.20953,-1.25231 -1.59731,-1.75207 2.05528,-1.67771 4.92254,-1.98094 7.38381,-2.97141 8.17694,20.08055 17.33313,39.82879 26.37435,59.55242 15.10734,31.71319 29.04138,63.96411 42.5066,96.40262 7.69159,17.86342 13.83376,36.49071 22.63876,53.86464 2.12328,2.56401 4.78849,5.01088 -6.69653,4.21556 -1.26741,-0.0878 -0.74811,-2.42864 -1.1578,-3.63122 -2.9041,-8.52444 -6.53792,-16.77267 -9.96689,-25.09458 -10.63557,-26.43029 -22.53591,-52.32226 -34.26644,-78.27727 -4.13265,-8.95228 -7.98406,-18.06944 -13.0067,-26.57798 -1.52221,-2.57868 -3.81611,-7.31409 -7.06528,-8.2256 2.30675,-0.83424 4.50515,-2.93202 6.92025,-2.5027 1.2826,0.228 0.33279,2.59151 0.66518,3.85111 0.53797,2.0386 1.25639,4.02582 1.93982,6.02037 3.67503,10.72553 8.07685,21.1191 12.49993,31.55214 13.62008,31.36564 28.67653,62.05366 45.49002,91.82462 12.02726,20.07328 24.02367,40.2646 37.48035,59.42683 0.71463,0.86787 1.42925,1.73573 2.14388,2.6036 0.0185,-0.19734 0.25248,-0.61343 0.0554,-0.59202 -2.92035,0.31731 -5.95788,2.63576 -8.67895,1.52901 -2.24655,-0.91374 -2.24386,-4.30042 -3.38994,-6.4378 -5.7302,-10.68649 -5.95251,-10.92211 -12.49702,-22.53966 -21.4315,-37.00634 -42.63608,-74.14456 -63.82542,-111.29008 -8.19428,-14.32566 -16.39677,-28.6546 -25.14275,-42.65389 -3.031,-4.85158 -6.13827,-10.20024 -10.00461,-14.50622 2.63696,-0.87021 5.19105,-3.17042 7.91087,-2.61063 1.71991,0.35398 1.54157,3.15567 2.33885,4.7202 8.0772,15.8501 16.14732,31.70055 24.38138,47.4706 18.68939,35.52906 39.02291,70.18789 60.42729,104.14312 13.05967,17.79999 22.5719,38.87926 38.58003,54.40448 4.71765,-0.99627 -4.41657,2.34174 -6.43285,1.46387 -1.92995,-0.8403 -1.38293,-3.97847 -2.18082,-5.92633 -4.95863,-12.1053 -10.92634,-23.79485 -16.7129,-35.51253 -18.94332,-37.60302 -39.71784,-74.28237 -60.88071,-110.67531 -12.80089,-20.5134 -23.83189,-42.35624 -39.44187,-60.96044 -0.56681,-0.47645 -2.287,-0.97745 -1.70043,-1.42936 2.09119,-1.61107 4.72806,-3.1593 7.35783,-2.92916 1.30177,0.11392 0.82513,2.48225 1.32617,3.68912 3.98826,9.60672 8.83219,18.87599 13.48261,28.16644 18.71746,37.00126 39.45442,72.93555 60.2374,108.80245 18.03455,30.35311 36.88186,60.27578 57.6474,88.84494 1.96458,2.60163 5.80416,7.91983 8.38276,10.68074 0.35297,0.37792 1.70906,0.69642 1.24529,0.92517 -2.47395,1.22028 -5.24668,3.0171 -7.92856,2.37135 -1.74982,-0.42133 -1.52362,-3.26318 -2.37067,-4.85123 -1.41029,-2.64402 -2.93253,-5.2268 -4.3988,-7.8402 -18.75047,-32.16787 -38.92911,-63.48156 -58.60805,-95.08485 -17.88729,-28.62379 -35.37819,-57.52443 -53.9866,-85.69022 7.98831,-2.48119 -7.70465,-5.40446 -5.48651,-7.60808 1.89274,-1.88036 4.68677,-3.39558 7.34592,-3.17832 1.40845,0.11508 1.0283,2.63513 1.63382,3.91198 2.41482,5.09211 6.3071,12.13248 8.82539,16.81464 18.89793,34.04239 39.1659,67.32657 60.21414,100.07774 20.30336,31.79678 41.57343,63.03505 64.26189,93.1839 4.4081,5.82367 7.93764,10.66271 12.54492,16.1783 1.072,1.28334 2.15087,2.56904 3.35349,3.73086 0.31554,0.30483 1.56743,0.47106 1.15731,0.6269 -9.96637,3.7871 -7.48382,3.96427 -12.15714,-2.93664 -20.5108,-28.82669 -40.22101,-58.18652 -59.49227,-87.85203 -19.03347,-28.61714 -35.66011,-58.7215 -53.83817,-87.86727 -0.99046,-1.36018 -1.98091,-2.72036 -2.97137,-4.08054 -0.14705,0.10442 -0.62146,0.3168 -0.44114,0.31327 2.94947,-0.0578 6.3192,-2.01475 8.83721,-0.47775 2.50544,1.52933 2.29548,5.40561 3.56874,8.05039 2.96798,6.165 10.64379,20.64933 13.44493,25.99025 20.25401,38.55589 44.19318,74.97833 68.34565,111.16113 13.68533,20.45324 29.08184,39.55589 44.83312,58.40482 2.20376,1.90545 8.19133,6.30411 -6.38033,4.19359 -1.66247,-0.24078 -1.6332,-2.93661 -2.4969,-4.37737 -6.37236,-10.62996 -13.33021,-20.92011 -20.09107,-31.30222 -24.57649,-35.68823 -48.26343,-71.94257 -71.40077,-108.5765 -8.04575,-12.30147 -15.74304,-24.84622 -24.29749,-36.80899 -1.3801,-1.92997 -2.79912,-3.83386 -4.28466,-5.68388 -0.63896,-0.79574 -2.82707,-1.54748 -2.08191,-2.24477 1.92107,-1.79764 4.93589,-1.8235 7.40384,-2.73525 11.33581,24.59289 25.42112,47.96864 39.59833,71.02592 20.03683,32.29908 41.96814,63.34713 65.54259,93.14721 0.83879,1.03375 9.81359,12.12558 11.67824,14.32964 0.76805,0.90784 3.46276,2.13646 2.38965,2.64883 -9.692,4.6276 -9.89532,0.63018 -14.2962,-5.47287 -2.16868,-3.0075 -4.32522,-6.02373 -6.48783,-9.0356 -20.60879,-27.87273 -40.4109,-56.32627 -59.85209,-85.0219 -7.18643,-10.09627 -13.2276,-21.07513 -21.09552,-30.69296 -0.85426,-1.04426 -3.65408,-1.79002 -2.85032,-2.87363 6.69827,-9.03053 7.62001,-1.66581 8.97308,1.93429 16.3982,31.61665 36.79807,60.96144 57.01477,90.2123 21.04006,29.83696 44.14303,58.12122 66.25285,87.15068 -10.15705,-1.35089 7.32108,5.49083 4.87759,6.88188 -2.71752,1.54705 -5.87076,3.25803 -8.96058,2.77712 -2.07513,-0.32297 -2.72721,-3.1945 -4.07406,-4.80586 -7.83901,-9.37851 -6.37174,-7.68306 -14.81625,-18.33608 -19.86349,-25.08457 -39.30042,-50.4959 -58.60461,-76.01125 -4.32202,-5.63898 -8.03918,-10.67959 -12.61738,-16.02436 -1.23187,-1.43812 -2.44873,-2.90454 -3.85555,-4.17204 -0.6122,-0.55157 -2.77511,-0.70382 -2.14298,-1.23243 7.34337,-6.14079 6.72219,-3.89665 8.10652,0.72045 9.99936,21.74478 24.64534,41.04595 38.51745,60.43274 8.0812,10.36902 15.93019,20.93726 24.65621,30.7849 4.03363,4.55211 8.24883,9.30748 13.23592,12.85115 -2.40908,1.043 -4.60399,3.22927 -7.22725,3.12901 -1.25481,-0.048 -0.89732,-2.35245 -1.48533,-3.462 -1.13109,-2.13434 -2.4317,-4.17448 -3.66294,-6.25266 -6.2841,-10.60678 -12.69582,-21.126 -19.19858,-31.59993 -11.34248,-18.92515 -23.50265,-37.34551 -35.04263,-56.14592 -2.22976,-3.01363 -4.6493,-5.27356 7.08542,-4.73929 1.474,0.0671 1.57961,2.49298 2.39638,3.72184 5.5293,8.31901 11.18475,16.52536 16.98083,24.66114 16.33755,22.22843 33.23805,44.03226 50.19599,65.7883 4.29541,5.20427 5.52435,6.96506 9.83423,11.37609 0.53593,0.54851 2.34265,1.08729 1.7172,1.53102 -2.32734,1.65113 -5.2061,3.3206 -8.03569,2.95163 -1.78403,-0.23264 -2.07265,-2.9414 -3.11756,-4.406 -1.7854,-2.50252 -3.58221,-4.99688 -5.37332,-7.49531 -20.40185,-28.68509 -40.76253,-57.39537 -60.35342,-86.64223 -13.44054,-18.7802 -23.33771,-40.05669 -37.52273,-58.31743 3.12128,0.11271 6.6874,-1.27177 9.36384,0.33812 2.41425,1.45218 2.46214,5.06934 3.7725,7.56342 1.80265,3.43107 3.66127,6.83312 5.56502,10.20915 7.8507,13.92216 16.47327,27.32258 25.11846,40.75822 16.30901,24.33571 34.33168,47.46781 52.8104,70.18001 -10.06822,1.81547 7.64416,4.23224 5.44921,5.66156 -2.35328,1.53242 -5.19355,3.22774 -7.96165,2.75464 -1.73336,-0.29624 -1.72952,-3.06299 -2.64112,-4.56676 -3.71231,-6.12381 -7.5642,-12.16194 -11.33929,-18.24726 -21.81132,-34.85783 -42.41638,-70.43899 -62.44692,-106.34411 -8.81015,-15.84729 -17.54348,-31.73965 -26.72069,-47.37918 -3.73106,-6.35837 -7.36018,-13.06399 -12.04433,-18.80101 2.94686,0.15441 6.38587,-1.17452 8.84057,0.46325 2.31903,1.54725 2.18044,5.13242 3.34361,7.66598 1.59167,3.4669 3.27588,6.89056 4.91979,10.33299 6.90096,14.45099 14.1752,28.64406 21.66049,42.80127 13.78237,26.3892 29.59186,51.59961 46.09968,76.34401 1.10789,1.46092 2.21577,2.92183 3.32366,4.38275 0.42381,0.23879 1.74019,0.58642 1.27142,0.71637 -2.76416,0.7663 -5.91832,2.52316 -8.50805,1.2898 -2.38754,-1.13707 -2.35651,-4.73609 -3.61353,-7.06271 -3.06221,-5.66789 -11.88278,-21.08363 -14.49124,-25.66856 -24.49739,-42.8175 -49.8625,-85.12952 -74.03097,-128.13444 -14.50569,-23.90997 -26.08914,-49.57205 -40.77753,-73.3621 -0.57924,-0.84904 -1.15848,-1.69807 -1.73773,-2.54711 -0.10046,0.11604 -0.45025,0.38553 -0.30139,0.34811 2.6002,-0.65366 5.12934,-2.85981 7.73202,-2.21606 1.55043,0.38349 0.97396,3.04619 1.58695,4.52102 1.05624,2.54125 6.18189,13.17205 7.00491,14.89512 11.93114,23.91213 26.32321,46.54932 40.90322,68.91853 4.99294,7.30259 6.69794,10.22284 12.06994,16.67366 1.12923,1.356 2.29521,2.69458 3.60703,3.87484 0.41143,0.37016 2.01174,0.51355 1.49726,0.7175 -9.47048,3.75423 -7.37456,3.25361 -10.68775,-4.02778 -15.14424,-28.18204 -31.40418,-55.76236 -47.81379,-83.22408 -14.88335,-25.19383 -29.78224,-50.37892 -45.13244,-75.29248 -0.89747,-1.50342 -5.93461,-10.04502 -7.39055,-12.15367 -0.67919,-0.98367 -1.45182,-1.90378 -2.26215,-2.78255 -0.23113,-0.25066 -1.14677,-0.43205 -0.8408,-0.58249 8.54225,-4.20006 6.8727,-4.82823 9.09587,0.96452 10.3234,20.96258 22.76462,40.76182 35.52195,60.30421 7.54151,11.63118 15.20053,23.18993 22.94489,34.6872 3.49334,5.1862 6.87288,10.81301 11.42259,15.16873 -2.36555,1.00216 -4.54237,3.28186 -7.09664,3.00648 -1.37645,-0.1484 -0.82597,-2.64804 -1.37334,-3.91966 -1.01454,-2.35692 -2.13405,-4.66923 -3.30628,-6.95182 -6.15617,-11.98742 -13.303,-23.42984 -20.3104,-34.92609 -17.46504,-28.2669 -35.84758,-55.9513 -53.38605,-84.17245 -5.33118,-7.97674 -9.87146,-16.44512 -15.08715,-24.49287 -0.85765,-1.32334 -1.74014,-2.63312 -2.6937,-3.88911 -0.44219,-0.58244 -2.18124,-1.39132 -1.48497,-1.61488 2.77086,-0.88965 5.80149,-0.46827 8.70223,-0.70241 10.52106,19.51692 22.93664,37.99179 35.34796,56.34784 13.67857,20.29066 26.98704,40.83121 40.7344,61.07463 -7.17976,0.55477 5.90369,4.46846 3.99637,5.87061 -2.33,1.7129 -5.08149,3.42776 -7.97335,3.41934 -1.39657,-0.004 -1.56872,-2.31129 -2.37799,-3.4495 -3.19023,-4.48692 -6.98033,-9.58324 -10.19597,-13.94794 -16.41422,-21.46331 -32.42782,-43.21813 -48.32039,-65.06904 -8.18153,-10.51326 -15.44443,-21.66575 -22.6574,-32.84698 2.59776,-1.05294 4.99086,-3.09974 7.79328,-3.15883 1.15099,-0.0243 1.18938,1.9715 1.78472,2.95686 1.01231,1.67552 2.00513,3.36299 3.03822,5.02577 5.13671,8.26767 10.62152,16.28923 16.12177,24.31703 11.8185,16.74027 22.8286,34.18987 36.84919,49.21611 -6.85456,2.43638 6.72457,2.79565 4.9708,3.99805 -2.12499,1.45691 -4.65519,3.06047 -7.2154,2.77151 -1.29581,-0.14624 -0.69796,-2.52049 -1.20512,-3.72187 -1.83572,-4.34853 -5.12444,-10.08224 -7.27284,-14.02905 -13.27614,-25.04529 -28.58461,-48.9019 -43.74985,-72.82042 -6.02705,-9.52415 -11.85453,-19.17246 -17.62333,-28.8545 -2.37772,-3.99064 -4.45058,-8.15337 -7.77298,-11.44571 2.38055,-1.05181 4.54357,-3.0028 7.14165,-3.15543 0.92909,-0.0546 0.43303,1.81355 0.73915,2.69245 0.62887,1.80552 1.31619,3.59183 2.06272,5.35196 4.24697,10.01326 9.72845,19.2605 15.18947,28.64546 15.69403,27.35767 32.33323,54.1456 50.03587,80.24589 4.32042,6.38779 7.8434,11.74625 12.33235,17.88713 1.21476,1.6618 2.41086,3.34461 3.76566,4.89436 0.60844,0.696 2.99737,1.59821 2.09832,1.81345 -10.50522,2.515 -9.05059,0.42175 -13.15974,-6.97953 -14.18257,-24.64356 -29.87452,-48.35993 -45.67659,-71.98158 -6.62818,-10.04532 -12.85848,-20.35198 -19.71713,-30.24543 -1.22189,-1.76255 -2.42718,-3.5422 -3.77832,-5.20774 -0.63225,-0.77936 -3.07685,-1.71139 -2.15333,-2.10413 2.54278,-1.08136 5.51631,-0.33265 8.27447,-0.49898 9.69983,23.3132 23.25598,44.83975 36.07172,66.53152 12.11,19.55297 22.98782,39.95489 36.47882,58.62368 1.67712,1.40394 9.53265,7.18908 -5.7803,3.98981 -1.52462,-0.31854 -0.84706,-3.00018 -1.37044,-4.46715 -3.31471,-9.29062 -7.60682,-18.26773 -11.57746,-27.28404 -11.01211,-23.96746 -22.88528,-47.52595 -34.75082,-71.07852 -1.12625,-2.42574 -2.29025,-4.8343 -3.37874,-7.27721 -2.01814,-4.52935 -5.79064,-11.00598 6.68786,-7.94316 1.90236,0.46693 1.98519,3.37745 2.96928,5.07114 1.48557,2.55678 2.95977,5.12016 4.43966,7.68023 14.22415,25.93901 28.67841,51.75723 42.64887,77.83465 5.15591,10.4267 11.11913,20.44096 16.28461,30.86197 0.83813,1.69087 1.58735,3.42494 2.33233,5.15888 0.2921,0.67986 1.38862,1.66203 0.77751,2.07927 -2.50644,1.71128 -5.68068,2.13841 -8.52102,3.20762 -13.42381,-20.57524 -25.5303,-42.00666 -38.10063,-63.11518 -15.15513,-23.35257 -28.07827,-48.14122 -43.60415,-71.24696 7.89603,-2.46613 -6.87307,-3.9803 -4.9663,-5.58266 1.95734,-1.64484 4.49942,-3.21968 7.04864,-3.02435 1.23151,0.0944 0.42107,2.43996 0.77349,3.62374 1.49955,5.0369 3.70822,10.00507 5.68152,14.83801 11.56619,26.4369 25.68667,51.61744 40.00943,76.62926 5.59413,9.6866 11.23579,19.35386 16.61241,29.16437 0.86329,1.57522 1.65889,3.18673 2.51097,4.76804 0.33841,0.62805 1.63958,1.44315 1.06009,1.85926 -2.2968,1.64926 -5.27433,2.04034 -7.91149,3.0605 -10.02203,-18.50569 -19.82457,-37.12356 -30.19514,-55.43895 -12.5294,-22.21438 -24.42928,-44.7806 -35.4314,-67.79024 -0.96531,-1.85407 -1.89894,-3.72498 -2.89594,-5.5622 -1.64351,-3.02858 -7.43667,-8.74671 5.48008,-5.85077 1.49042,0.33415 0.87932,2.92973 1.4465,4.34793 0.87102,2.17791 1.90877,4.28537 2.86315,6.42806 10.6731,23.36529 22.65598,46.099 34.38844,68.94177 8.34312,14.6071 15.622,29.96806 25.25323,43.8113 -2.82419,0.26799 -5.90393,2.00808 -8.47258,0.80397 -1.88939,-0.8857 -1.45112,-3.91445 -2.2632,-5.83663 -1.1485,-2.71844 -2.39903,-5.39268 -3.61669,-8.08085 -5.15062,-11.37076 -10.63349,-22.57731 -16.04135,-33.82719 -10.91364,-22.79151 -21.90769,-45.56444 -34.48029,-67.49644 -1.83919,-2.88409 -4.16897,-6.84936 -6.49438,-9.60585 -0.38185,-0.45264 -1.82805,-0.82008 -1.34424,-1.16159 2.13507,-1.50711 4.63164,-3.11229 7.24272,-3.00202 1.15682,0.0489 0.52643,2.26138 0.92873,3.3471 0.75285,2.03171 1.68678,3.99166 2.53017,5.9875 11.54033,23.63419 24.78413,46.42275 38.61496,68.7793 7.11641,11.44205 14.72864,22.56434 22.66438,33.45106 4.22413,5.79491 8.25658,11.43552 13.56271,16.25763 5.77653,-0.20271 -3.30064,2.79628 -5.04356,2.2175 -1.49823,-0.49753 -0.55185,-3.11701 -1.01752,-4.62545 -3.11676,-10.096 -8.00473,-19.6723 -12.48179,-29.1948 -12.64649,-26.78946 -27.48049,-52.4513 -41.11792,-78.72698 -1.48805,-2.97327 -2.99146,-5.93891 -4.46413,-8.91983 -1.34303,-2.71849 -3.9033,-8.00184 -5.34347,-11.12493 -0.27851,-0.60398 -1.32627,-1.42555 -0.79751,-1.82899 8.01085,-6.11216 6.99268,-5.34468 9.94277,-0.37221 10.87922,19.6307 21.90667,39.17325 32.68998,58.85745 13.1472,23.13024 24.60118,47.133 35.92033,71.19022 1.81392,4.53355 12.15788,18.15978 -3.347,14.44801 -1.77593,-0.42514 -1.78704,-3.18519 -2.69413,-4.77008 -1.38623,-2.42206 -2.79051,-4.83376 -4.18576,-7.25064 -13.80417,-24.84511 -26.79674,-50.13442 -40.188,-75.20583 -6.07704,-11.07557 -11.41875,-22.52683 -16.85948,-33.9209 -1.76627,-3.69893 -4.01302,-7.81502 -5.29045,-11.81391 2.99705,-0.52983 6.11408,-2.58223 8.99114,-1.58948 2.01342,0.69474 1.94772,3.78856 2.90135,5.69306 7.86927,15.71596 15.73631,31.36458 24.08004,46.84011 14.7927,28.04987 29.08107,56.35823 43.5712,84.56395 3.82569,7.68322 7.6307,15.37441 11.48624,23.04201 0.5521,1.09797 1.05615,2.2199 1.61898,3.31241 0.14065,0.27302 0.76874,0.65248 0.48958,0.78051 -2.53051,1.16056 -5.28454,1.7536 -7.92681,2.6304 -6.83444,-19.64714 -16.18797,-38.28228 -25.83283,-56.66718 -11.1108,-20.09928 -21.39845,-41.08016 -36.6505,-58.45704 -0.63916,-0.45689 -2.5226,-0.86959 -1.91746,-1.37066 1.95493,-1.61873 4.52928,-3.18152 7.04927,-2.87861 1.34872,0.16211 0.73823,2.62101 1.25599,3.8769 4.02564,9.76476 9.19365,19.16238 14.03978,28.52199 18.96297,36.05484 38.63874,71.72962 58.03794,107.55078 16.91473,32.06005 34.83918,63.5681 52.7079,95.10105 3.03459,5.27851 5.98786,10.60354 9.02142,15.88268 0.80489,1.4007 1.57247,2.82499 2.44615,4.18385 0.30295,0.47118 1.55908,1.01082 1.07461,1.29203 -8.57521,4.97746 -7.18854,4.02936 -9.8748,-1.92035 -14.40136,-25.67025 -29.89098,-50.71304 -45.21496,-75.83812 -8.23668,-13.86805 -16.58298,-27.66755 -25.58982,-41.05224 -4.14702,-6.16271 -8.19284,-12.52761 -13.47141,-17.78874 2.25993,-1.06658 4.28213,-3.28098 6.77979,-3.19975 1.16846,0.038 0.32389,2.3263 0.67271,3.44213 0.75317,2.4093 1.6821,4.76174 2.62403,7.1037 5.01731,12.47468 11.23228,24.41835 17.16739,36.4691 17.13194,33.90254 34.32802,67.77404 52.01145,101.39303 7.53435,16.77029 18.52859,32.09256 24.98096,49.36953 -2.83888,1.05334 -5.50357,3.46029 -8.51665,3.16002 -1.65759,-0.16518 -1.72303,-2.85152 -2.59996,-4.26782 -8.71358,-14.07289 -16.86217,-28.48694 -25.06777,-42.86163 -14.49009,-25.16343 -28.33173,-50.70341 -43.35827,-75.55464 9.08957,-0.47614 -6.52102,-5.07655 -4.34468,-6.5205 2.34749,-1.55752 5.18396,-3.19391 7.9737,-2.80163 1.54254,0.21691 1.32625,2.81955 2.03141,4.20851 3.04281,5.99344 5.14892,9.70968 8.49274,15.82113 14.29597,25.78769 29.54685,51.02059 44.84139,76.22205 13.67065,22.00595 27.10673,44.22246 43.31366,64.47907 5.77939,6.97453 12.05868,13.5025 18.50237,19.85827 0,0 -7.15412,4.38432 -7.15412,4.38432 l 0,0 c -6.3698,-6.45074 -12.61136,-13.03646 -18.36278,-20.05261 -16.11723,-20.36376 -29.50644,-42.63778 -43.18156,-64.6757 -15.28231,-25.22163 -30.55243,-50.45306 -45.03995,-76.14419 -3.55275,-6.34402 -5.43124,-9.60634 -8.70024,-15.74281 -0.73994,-1.389 -2.83218,-2.76947 -2.16591,-4.19528 5.7127,-12.22499 8.02253,-3.39218 10.89529,1.04688 14.67801,25.06149 28.6038,50.55215 43.13514,75.6983 6.9083,11.96827 13.74931,24.00884 21.003,35.77401 1.42541,2.31195 2.95195,4.56 4.42769,6.84014 0.86774,1.34072 3.16806,2.52883 2.60275,4.02246 -0.96766,2.5567 -4.11332,3.60179 -6.16998,5.40269 -1.38235,-4.64582 -3.717,-9.17886 -5.83717,-13.49087 -5.9653,-12.1322 -12.52586,-23.96103 -18.53885,-36.06919 -17.57649,-33.67977 -34.76163,-67.56138 -52.07949,-101.37431 -6.01478,-12.03522 -12.27544,-23.96408 -17.49064,-36.37694 -0.98874,-2.35333 -1.9559,-4.71856 -2.79975,-7.12764 -0.4924,-1.4057 -2.15401,-3.15572 -1.20419,-4.30303 1.99756,-2.41289 5.56302,-2.8813 8.34454,-4.32195 5.07045,5.50547 9.09302,11.8923 13.20897,18.12411 8.89377,13.46572 17.2104,27.28936 25.45043,41.16183 15.36131,25.14222 30.87858,50.19682 45.71524,75.65371 3.0386,6.24979 4.47253,5.40663 -4.72018,10.39191 -0.52146,0.28279 -0.72489,-0.94286 -1.02703,-1.45335 -2.15534,-3.64152 -4.08585,-7.41152 -6.13409,-11.11435 -1.68198,-3.04071 -3.36983,-6.07816 -5.05475,-9.11724 -17.66223,-31.65596 -35.46562,-63.23785 -52.38983,-95.29828 -19.40174,-35.82153 -39.13196,-71.46461 -58.35163,-107.38425 -4.94709,-9.36651 -10.13117,-18.74381 -14.41446,-28.44776 -0.62022,-1.40513 -2.45193,-3.02681 -1.61577,-4.31519 5.40709,-8.33141 6.23569,-6.60598 9.72687,-3.68124 14.88291,17.74454 25.34223,38.6037 36.44121,58.7928 9.70675,18.39463 19.07437,37.02363 26.35172,56.53874 -2.30971,1.90613 -4.42789,4.07163 -6.92914,5.7184 -0.27136,0.17865 -0.28581,-0.58362 -0.42192,-0.87862 -0.51314,-1.11221 -0.99736,-2.23786 -1.52577,-3.3429 -3.70351,-7.7449 -7.48368,-15.45522 -11.24701,-23.17137 -14.35108,-28.2721 -28.56963,-56.61065 -43.45793,-84.60657 -6.86944,-12.63614 -13.56612,-25.31673 -20.06486,-38.14595 -1.44043,-2.84356 -2.88047,-5.68747 -4.35294,-8.51456 -0.97388,-1.8698 -3.4637,-3.52217 -2.98579,-5.5755 0.67148,-2.88499 3.89466,-4.46405 5.84199,-6.69607 0.34814,3.35965 3.725,9.41091 4.85261,11.83569 5.32027,11.44053 10.65875,22.88526 16.68838,33.97499 13.35348,25.07396 26.35949,50.34986 40.40798,75.04145 1.42874,2.39914 2.85815,4.79789 4.28622,7.19744 0.93543,1.57178 3.35694,2.97296 2.80426,4.71654 -5.0231,15.84677 -6.73256,3.69816 -7.90756,0.8623 -0.9885,-2.38573 -2.12975,-4.70526 -3.19463,-7.05789 -11.19103,-24.10297 -22.55303,-48.13581 -35.74417,-71.23009 -10.82464,-19.64501 -21.86226,-39.16356 -33.04817,-58.60519 -2.89644,-4.56091 -4.13943,-4.27137 4.75706,-8.00277 0.6058,-0.25409 0.4291,1.24282 0.68411,1.84824 0.61298,1.45533 1.25905,2.89676 1.91881,4.3315 2.87603,6.25433 4.44645,9.35436 7.61029,15.82697 13.49085,26.36224 28.28644,52.05286 41.10824,78.76321 4.56608,9.5477 9.48124,19.11874 12.84335,29.18977 0.53189,1.59322 2.08193,3.41337 1.26089,4.87869 -4.59671,8.20384 -5.23862,7.35844 -9.71773,5.91805 -5.18163,-4.99186 -9.20009,-10.70332 -13.39651,-16.55016 -7.86338,-10.95599 -15.4659,-22.10058 -22.57488,-33.56396 -13.85226,-22.39004 -27.13993,-45.18063 -38.97498,-68.70929 -0.89172,-2.0053 -1.85855,-3.97886 -2.67514,-6.01591 -0.47858,-1.19385 -1.96331,-2.62589 -1.20581,-3.66537 8.5702,-11.76032 11.00068,-0.41971 15.37011,5.94599 12.42812,22.03435 23.37261,44.85169 34.35757,67.62952 5.44584,11.23287 10.96278,22.42485 16.22043,33.74732 1.24722,2.68592 2.53341,5.35442 3.72483,8.06556 0.8442,1.92103 2.96144,3.81124 2.38052,5.82757 -0.90344,3.1358 -4.15615,5.03233 -6.23423,7.54849 -8.98204,-14.30684 -16.78738,-29.31658 -24.88859,-44.1266 -11.73182,-22.85263 -23.71104,-45.59024 -34.65517,-68.83546 -0.99476,-2.1494 -2.06352,-4.26608 -2.98429,-6.4482 -0.60579,-1.43566 -2.30425,-3.00992 -1.59133,-4.39551 7.01352,-13.63117 9.00265,-2.11759 12.05811,3.35136 10.80301,23.08748 22.62444,45.68138 35.19635,67.85501 10.4224,18.30927 20.23639,36.95459 30.6982,55.23811 -2.29168,1.78199 -4.21377,4.18626 -6.87504,5.34597 -0.65909,0.28722 -0.63613,-1.28954 -0.95624,-1.93329 -0.79679,-1.60236 -1.56225,-3.22078 -2.39444,-4.80505 -5.20116,-9.90169 -10.82834,-19.57859 -16.38523,-29.28154 -14.29406,-25.06246 -28.42717,-50.2603 -40.24889,-76.60992 -0.26737,-0.63264 -7.60723,-18.17062 -7.05053,-18.91429 7.09329,-9.47568 8.78787,-4.39973 12.77743,0.88901 15.20608,23.33002 28.17197,48.07749 43.32495,71.45282 12.57544,21.00483 24.64741,42.40604 38.50552,62.59073 -2.04784,1.78942 -3.69739,4.17991 -6.14351,5.36827 -0.65127,0.3164 -0.36184,-1.40565 -0.6234,-2.08082 -0.67706,-1.74772 -1.38548,-3.48597 -2.18913,-5.17923 -4.98714,-10.50765 -10.97109,-20.52041 -16.0629,-30.97524 -13.90619,-26.09714 -28.36983,-51.90008 -42.85507,-77.67847 -1.51268,-2.53775 -3.00982,-5.08483 -4.53805,-7.61325 -1.0025,-1.65861 -3.55982,-3.07666 -3.0539,-4.9475 4.36895,-16.15607 6.80558,-2.78237 7.80347,-0.42358 1.03942,2.45694 2.17666,4.87135 3.26499,7.30703 11.75682,23.62197 23.55695,47.22811 34.72776,71.13468 4.04128,9.01853 8.33971,17.97916 11.86989,27.21745 0.58469,1.53009 2.40897,3.21406 1.60865,4.64323 -5.05936,9.03471 -5.88498,7.18303 -9.0062,4.12008 -13.06097,-18.98701 -24.10701,-39.26518 -36.13997,-58.89674 -12.89505,-21.73966 -26.45902,-43.29559 -36.6109,-66.49146 2.11372,-2.63971 3.52828,-6.04201 6.34116,-7.91913 0.86098,-0.57455 1.4771,1.45993 2.10538,2.28251 1.30477,1.70826 2.48281,3.5102 3.68178,5.29431 6.71182,9.98734 12.93881,20.28716 19.52834,30.35399 15.77224,23.66917 31.48527,47.39178 45.95489,71.88952 4.17414,7.25506 7.17588,7.84229 -1.19271,15.55415 -0.70684,0.65137 -1.45575,-1.26925 -2.06499,-2.01271 -5.8962,-7.1952 -10.41274,-15.46013 -15.84259,-22.98063 -17.61453,-26.17831 -34.2359,-52.99222 -50.09892,-80.26825 -5.54724,-9.37927 -11.0922,-18.63015 -15.50744,-28.60894 -0.78043,-1.76385 -1.49668,-3.55617 -2.18609,-5.35756 -0.40187,-1.05007 -1.81251,-2.33485 -1.08639,-3.19328 1.9859,-2.34778 5.24351,-3.21388 7.86527,-4.82082 3.15772,3.53043 5.24773,7.67011 7.62374,11.75175 5.66562,9.7327 11.45843,19.39176 17.44234,28.9326 15.11748,23.96799 30.43045,47.83379 43.9495,72.76109 0.4649,0.83257 9.5843,17.12395 8.99088,18.06453 -5.86361,9.29391 -7.99647,5.74525 -12.48685,1.31858 -13.83063,-15.23202 -24.88618,-32.66161 -36.75511,-49.40714 -5.54954,-8.0149 -11.0777,-16.03006 -16.32748,-24.246 -1.0538,-1.64921 -2.07143,-3.32126 -3.11544,-4.97667 -0.64635,-1.02487 -2.58807,-2.03062 -1.95559,-3.0641 1.52754,-2.49606 4.69358,-3.49642 7.04037,-5.24463 6.38426,11.63528 14.5253,22.24961 22.22141,33.01552 15.84473,21.88818 31.82192,43.67239 48.42185,64.99757 1.23608,1.64444 8.62368,11.46474 10.39696,13.85 0.8352,1.12343 3.10076,2.13112 2.48272,3.38718 -1.2488,2.53799 -4.13442,4.02273 -6.70714,5.19831 -2.1451,0.98018 0.0286,-11.93003 -3.79191,-5.97337 -13.48742,-20.40982 -26.81621,-40.92597 -40.49432,-61.21042 -12.4898,-18.38739 -24.97179,-36.87383 -35.81262,-56.2907 1.97228,-2.59428 3.39457,-5.71928 5.91685,-7.78285 0.58747,-0.48063 1.01182,1.13567 1.45266,1.75357 2.26297,3.1718 4.35385,6.80726 6.32074,10.11485 8.43519,14.18487 1.41268,2.63482 11.16375,18.4801 17.39656,28.3104 35.7465,56.01519 53.32374,84.21181 7.08435,11.48157 14.29395,22.91201 20.62703,34.8354 1.2144,2.28635 2.37425,4.60323 3.45615,6.95519 0.66089,1.43673 2.62673,3.07424 1.76836,4.40245 -1.68372,2.60533 -5.23121,3.33543 -7.84681,5.00314 -4.35207,-4.63151 -7.69974,-10.22017 -11.19247,-15.49706 -7.651,-11.55931 -15.30717,-23.11588 -22.85348,-34.74402 -12.81312,-19.57268 -25.30539,-39.38869 -35.97779,-60.23038 -2.53883,-6.08248 -3.17438,-4.1659 5.47324,-9.59694 0.32906,-0.20666 0.60496,0.49533 0.85345,0.79407 2.56808,3.08744 3.04432,4.19211 5.33929,8.0636 1.39548,2.35411 2.76349,4.7244 4.14524,7.0866 15.16474,25.0273 29.9477,50.28161 44.82679,75.47869 16.43607,27.4796 32.7127,55.06825 48.28504,83.04635 3.6065,7.42712 5.33669,6.27099 -3.6782,12.7571 -0.49455,0.35582 -1.08763,-0.58621 -1.51914,-1.01631 -1.25862,-1.25451 -2.40697,-2.61866 -3.51868,-4.00503 -1.86926,-2.33107 -3.68719,-4.70558 -5.41886,-7.14059 -2.25572,-3.1719 -4.35928,-6.44931 -6.53892,-9.67397 -14.53782,-22.43882 -28.93966,-45.09356 -41.08717,-68.93085 -0.47084,-0.96303 -9.31853,-18.53499 -8.9216,-19.44653 1.26816,-2.91237 4.28262,-4.71103 6.6722,-6.80389 0.95336,-0.83498 2.95896,7.30306 2.31481,3.016 14.17025,24.12138 25.82799,49.70318 40.16176,73.74675 24.05813,43.06523 49.39966,85.38814 74.28079,127.9801 1.25431,2.15412 12.6677,21.71714 14.81068,25.52008 1.31105,2.32661 4.2199,4.40572 3.81454,7.04535 -0.48344,3.14806 -3.63146,5.31774 -6.03416,7.40843 -1.79448,1.56147 -4.06462,-13.15541 -4.50484,-5.53455 -16.17411,-24.9837 -32.05592,-50.17036 -45.86073,-76.56954 -7.52132,-14.1397 -14.84941,-28.3217 -21.87974,-42.71125 -1.67703,-3.43254 -3.3961,-6.84478 -5.03621,-10.29511 -1.20676,-2.5387 -3.8826,-4.88519 -3.50364,-7.67045 0.4732,-3.47802 3.83181,-5.88213 5.74771,-8.82319 4.42772,5.99831 7.99004,12.69118 11.69017,19.14134 9.02469,15.73207 17.75889,31.62666 26.49936,47.51766 19.98237,35.91873 40.62334,71.47284 62.75663,106.117 3.84715,6.05157 7.75508,12.0644 11.59219,18.12234 0.96325,1.52076 3.4453,2.91176 2.82602,4.60205 -4.43545,12.10624 -8.6008,3.84209 -11.9576,-0.0455 -18.18612,-22.96379 -36.2321,-46.08453 -52.56797,-70.4196 -8.69811,-13.42357 -17.36422,-26.8228 -25.34624,-40.68994 -1.93776,-3.36646 -3.83557,-6.75632 -5.68689,-10.17108 -1.34725,-2.48501 -4.1306,-4.70826 -3.90769,-7.52619 0.26779,-3.38524 3.46413,-5.84175 5.1962,-8.76263 13.27019,18.94291 23.93283,39.58639 36.98866,58.67568 19.55264,29.27465 39.94903,57.96177 60.68444,86.40973 1.8337,2.47362 3.66415,4.94965 5.50111,7.42086 1.10019,1.48006 3.87394,2.67699 3.31031,4.43293 -0.88774,2.76567 -3.96839,4.43301 -6.57048,5.72381 -0.69564,0.34508 -11.23428,-13.24449 -11.30531,-13.20137 -16.8388,-21.85936 -33.71778,-43.68816 -50.1887,-65.82757 -5.85637,-8.11208 -11.55413,-16.31473 -17.26111,-24.53115 -0.8287,-1.19308 -3.04522,-2.2685 -2.45928,-3.59773 4.35697,-9.88406 5.51495,-6.88989 7.466,-3.82422 11.0715,19.06899 23.44531,37.36635 34.73548,56.30608 6.54456,10.45429 12.99884,20.95912 19.43331,31.48135 1.27713,2.08848 2.62962,4.13317 3.82187,6.27124 0.69306,1.24288 2.59457,2.66042 1.82679,3.85859 -1.64644,2.56938 -5.05643,3.41796 -7.58465,5.12694 -14.91929,-11.78436 -25.41961,-29.78652 -37.62735,-44.09251 -13.94784,-19.45344 -28.5985,-38.79866 -39.01287,-60.43886 -2.07538,-5.91161 -3.38848,-5.54737 6.3905,-9.36052 0.81505,-0.31781 1.53202,0.88195 2.15928,1.49175 2.37157,2.30553 7.7916,9.27352 9.27918,11.19983 2.35401,3.04826 4.6415,6.14731 6.96224,9.22097 19.1592,25.61679 38.56963,51.04087 58.60228,75.98449 7.61567,9.42235 7.75184,9.78462 15.03836,18.16301 1.36547,1.57009 4.45014,2.59032 4.16332,4.65126 -0.37457,2.69139 -3.35087,4.41653 -5.63103,5.89462 -2.31488,1.5006 1.64545,-18.57134 -4.50404,-6.94325 -21.69187,-29.33409 -44.85901,-57.56574 -65.8604,-87.41781 -20.3003,-29.28528 -40.73642,-58.63863 -57.7033,-90.0251 -2.38557,-5.64182 -5.50038,-8.20757 5.50794,-10.38367 1.34435,-0.26575 1.91292,1.97087 2.75055,3.05545 7.59426,9.83321 13.69678,20.73192 20.80342,30.89964 19.37825,28.7366 39.18687,57.19102 60.06123,84.86693 2.19876,2.98796 4.38416,5.9858 6.59627,8.9639 1.5572,2.09641 4.71794,3.64792 4.71149,6.25939 -0.007,3.03742 -2.27657,6.0103 -4.74614,7.77868 -0.96747,0.69277 -1.52932,-1.82367 -2.2734,-2.75224 -3.84723,-4.80113 -7.57384,-9.6982 -11.44528,-14.48012 -23.37449,-29.98043 -45.26122,-61.07804 -65.38975,-93.34043 -14.34504,-23.1552 -28.46502,-46.61225 -40.47084,-71.06947 2.47378,-1.83163 4.4987,-4.52913 7.42132,-5.4949 0.98216,-0.32454 1.36055,1.56083 1.98224,2.38755 1.4289,1.90013 2.81618,3.83207 4.16642,5.78887 8.35358,12.10616 16.00123,24.67768 23.98814,37.02334 23.01387,36.71353 46.69579,72.97014 71.54852,108.47207 6.86541,10.34296 13.8866,20.602 20.4828,31.12112 0.91449,1.45837 3.31756,2.81664 2.67868,4.41506 -3.84741,9.62587 -5.46493,7.02114 -8.22547,4.26056 -5.06782,-6.34516 -10.44023,-12.41883 -15.39933,-18.85634 -10.03249,-13.0234 -19.40552,-26.5467 -28.93676,-39.93443 -24.07689,-36.26435 -47.99515,-72.71691 -68.54367,-111.13704 -2.30316,-4.30202 -11.07213,-20.57886 -13.7286,-25.8848 -1.31579,-2.62812 -4.03462,-5.06473 -3.73263,-7.98828 0.34857,-3.37436 3.41056,-5.88333 5.44589,-8.59722 0.16138,-0.21519 0.4652,0.27017 0.6978,0.40526 0.95149,1.40336 1.90297,2.80672 2.85446,4.21007 17.65676,29.45083 34.40718,59.46262 53.37267,88.11278 19.31769,29.64456 39.08202,58.98424 60.03708,87.505 4.60953,6.48929 6.03688,4.98551 -2.18854,11.75585 -0.32885,0.27068 -2.79858,-2.73652 -4.40535,-4.73808 -1.82927,-2.27873 -3.62092,-4.58785 -5.38698,-6.9159 -2.35772,-3.10797 -4.65575,-6.26076 -6.98362,-9.39114 -22.50429,-30.29882 -43.69144,-61.59671 -64.00754,-93.39769 -21.08467,-32.75376 -41.40203,-66.02321 -60.62822,-99.9038 -2.74931,-4.96561 -6.44507,-11.48523 -9.09147,-16.74288 -0.70206,-1.3948 -2.78253,-2.91581 -1.97087,-4.24982 6.89648,-11.33476 9.53173,-2.00143 12.86004,2.87462 18.2146,28.42173 35.71172,57.3056 53.56737,85.95271 19.70921,31.60435 39.94942,62.88677 59.07941,94.84694 1.51359,2.60264 3.07324,5.17903 4.54078,7.80791 0.89915,1.6107 3.20573,3.18058 2.5575,4.90761 -4.40731,11.74203 -7.87184,5.38517 -11.11742,1.07972 -1.70313,-2.2593 -3.34136,-4.5668 -5.01203,-6.8502 -20.50739,-28.77498 -39.27565,-58.75736 -57.3034,-89.13606 -20.78884,-35.87885 -41.57763,-71.78939 -60.5858,-108.6538 -4.74683,-9.27587 -9.61824,-18.52828 -13.84556,-28.06011 -0.57409,-1.29446 -2.34156,-2.7428 -1.58654,-3.94078 5.33037,-8.45771 5.93464,-6.83437 9.13582,-3.78338 15.18303,18.98316 26.30094,40.73721 38.98058,61.38233 21.08907,36.45429 41.85467,73.14518 61.05386,110.6333 5.88066,11.69648 11.90422,23.36031 17.08876,35.39132 0.85386,1.98142 3.06439,3.96705 2.38833,6.01596 -2.88602,8.74659 -4.20289,7.94431 -8.20446,6.87959 -15.56418,-16.02954 -25.27224,-36.83358 -38.18821,-54.8508 -21.32147,-34.03021 -41.6445,-68.70963 -60.50465,-104.16847 -6.94639,-13.1281 -13.7233,-26.3407 -20.62868,-39.48936 -1.36427,-2.59772 -2.78616,-5.16478 -4.17036,-7.75193 -0.84739,-1.58383 -3.19754,-3.09559 -2.5244,-4.76096 1.12323,-2.77889 4.54553,-3.90816 6.81829,-5.86223 3.57576,4.67675 6.62336,9.82893 9.67566,14.84155 8.58821,14.10391 16.75354,28.45759 24.88793,42.82616 21.09594,37.19788 42.31379,74.33174 64.05082,111.15933 7.53612,13.06986 6.22666,10.6749 12.76164,22.40945 1.18192,2.12232 3.83589,3.97045 3.5232,6.37948 -0.41108,3.16703 -3.40782,5.41576 -5.38022,7.92748 -0.83204,1.05955 -3.94006,-10.54885 -2.62158,-3.07599 -13.16874,-19.38709 -25.23762,-39.53038 -37.16318,-59.69674 -16.78671,-29.81308 -31.85103,-60.52258 -45.65424,-91.83139 -5.29731,-12.27621 -11.08593,-24.66945 -14.85014,-37.54327 -0.39805,-1.36134 -1.72399,-2.98524 -0.92074,-4.15421 1.8491,-2.69099 5.21627,-3.92846 7.82441,-5.8927 3.35,1.72296 5.3564,5.72636 7.15345,8.85146 4.93687,8.58534 8.77359,17.72903 12.86623,26.72813 11.62942,26.00615 23.52322,51.90262 34.33452,78.26466 3.49931,8.30335 7.16717,16.53441 10.25543,25.00154 0.44187,1.2115 1.98595,2.56653 1.2851,3.64901 -5.5575,8.58361 -5.7978,7.25941 -8.1089,3.98399 -8.46691,-17.57948 -14.67115,-36.18539 -22.26198,-54.14008 -13.36298,-32.47052 -27.28314,-64.72089 -42.47768,-96.3827 -9.16879,-19.80251 -18.34504,-39.63644 -27.09305,-59.61588 2.49753,-1.74582 4.6313,-4.18932 7.49258,-5.23747 0.77465,-0.28376 1.1004,1.23628 1.56016,1.92128 1.01066,1.50573 1.91532,3.08022 2.84282,4.63855 4.9297,8.28255 9.50766,16.76453 14.32759,25.11031 9.6659,17.02343 18.71994,34.42614 29.42854,50.83173 0.98489,1.44967 1.9147,2.93833 2.95468,4.34901 0.58331,0.79123 2.44314,1.42291 1.90875,2.24797 -1.46307,2.25885 -4.13494,3.49678 -6.4823,4.81317 -0.3414,0.19146 0.10813,-0.8 -0.007,-1.17424 -0.86761,-2.83105 -2.67288,-5.3261 -3.50975,-8.16027 -9.01627,-17.70781 -19.53751,-34.57353 -29.63709,-51.67313 -10.69182,-17.98862 -21.90926,-35.69885 -31.5393,-54.29092 -0.29005,-0.66917 -5.13082,-12.07165 -4.59569,-12.68933 5.36075,-6.18759 7.1479,-7.06982 10.92511,-3.05331 5.94981,7.38019 11.71458,14.90508 16.94685,22.81778 0.44482,0.62111 5.95073,8.16892 5.5909,8.6083 -6.0064,7.33435 -5.96377,6.67909 -9.22593,2.89944 -8.279,-11.27282 -16.44299,-22.62552 -24.4875,-34.06808 -10.64114,-15.29361 -21.20023,-30.69546 -30.7036,-46.72431 -0.9089,-1.64623 -1.83695,-3.28203 -2.72671,-4.93869 -0.61197,-1.13945 -2.34285,-2.28528 -1.77802,-3.44882 5.59815,-11.53211 7.33589,-5.67849 11.25603,-0.74312 6.51696,9.61819 12.36719,19.60296 17.79063,29.88466 0.41797,0.70337 6.13823,10.33328 5.921,10.66242 -1.63231,2.47319 -4.42293,3.95241 -6.76756,5.76454 -0.62441,0.4826 -0.54705,-6.19376 -1.19204,-2.04553 -5.09805,-10.59055 -10.37189,-21.09909 -15.41952,-31.71352 -5.04603,-10.07598 -9.80015,-20.28293 -14.24556,-30.6386 2.17218,-2.21929 4.11199,-4.69273 6.51653,-6.65786 0.15961,-0.13045 0.46842,0.65803 1.72954,2.98801 2.6762,4.94441 5.22977,9.94686 7.72337,14.98728 7.12924,14.17854 14.87323,28.041 21.47009,42.4918 0.29146,0.62388 6.066,13.00158 6.00432,13.10058 -1.57677,2.53086 -4.24955,4.26242 -6.78933,5.8248 -1.24879,0.76822 -0.69498,-6.71538 -2.0201,-3.90715 -5.35451,-10.48411 -10.45226,-21.12835 -14.8465,-32.05231 -3.4146,-8.78961 -6.82733,-17.59287 -9.71168,-26.57361 2.29653,-1.89206 4.45063,-3.97165 6.88959,-5.67618 0.19704,-0.13771 0.16183,0.45576 0.28336,0.66317 2.29275,3.913 -0.60585,-1.71605 2.25004,3.95998 1.75176,3.48161 1.87376,3.8181 3.64637,7.60164 5.87264,13.6374 12.23839,27.058 18.27488,40.62264 5.36917,11.32484 11.43779,22.30861 16.59008,33.72628 -2.23557,2.15541 -4.21289,4.6157 -6.7067,6.46624 -0.19487,0.14461 -0.67716,-0.72784 -2.26509,-2.86433 -3.03444,-4.08271 -6.15023,-8.1062 -9.05832,-12.2821 -8.38193,-12.11815 -16.49117,-24.40953 -24.45342,-36.80503 -1.06713,-1.69642 -4.74071,-7.5736 -6.03888,-9.50913 -0.74481,-1.11049 -1.51045,-2.20805 -2.31647,-3.27494 -0.48952,-0.64795 -2.01382,-1.18731 -1.56698,-1.86539 1.47096,-2.23218 3.86503,-3.76993 6.17133,-5.12172 0.40962,-0.24009 0.10024,0.94427 0.15035,1.41641 1.8668,8.06681 6.53471,15.3254 9.92055,22.79699 6.56807,11.87197 12.73058,23.96806 19.68068,35.62588 7.34507,12.02178 14.9732,23.9317 24.02308,34.76162 2.60079,3.09386 5.17489,6.1858 7.88309,9.18418 0.41246,0.45666 1.62136,0.92275 1.21786,1.38734 -1.84603,2.1255 -4.52511,3.35047 -6.78766,5.0257 -0.0305,-0.0689 -0.061,-0.13788 -0.0914,-0.20683 -4.18002,-6.80329 -7.53407,-14.11523 -12.11697,-20.68216 -7.93754,-12.62132 -15.12873,-25.69775 -23.24703,-38.21054 -7.66718,-12.59601 -15.32439,-25.25391 -21.38644,-38.72218 -3.66071,-7.46778 -7.49034,-14.90727 -12.26251,-21.73848 -2.09665,-2.89283 -4.62344,-5.56673 -8.01925,-6.89318 12.01989,-9.05432 5.38534,-6.13626 5.73657,-2.86175 0.19391,1.80773 1.08492,3.55001 1.60874,5.26445 1.71897,4.53393 3.0905,9.17621 4.99982,13.64183 2.08445,4.99688 3.5393,10.18577 5.27477,15.3067 1.38126,5.22387 3.53132,10.21408 4.85857,15.45953 2.34121,6.88895 4.80289,13.71344 8.79017,19.85878 3.67436,5.25421 7.01463,10.74762 10.14104,16.34311 4.06055,7.80613 7.88222,15.70337 11.41298,23.76826 3.49381,7.95566 7.45611,15.7009 11.25146,23.51631 3.80108,8.53024 7.45884,17.14455 11.94766,25.34298 4.91622,8.54336 9.39749,17.33306 14.56137,25.72629 4.94706,8.38958 9.64104,16.90733 13.80764,25.7168 4.32996,8.04786 8.06104,16.33709 11.71726,24.70518 3.28849,7.55116 7.06002,14.83518 10.7608,22.18683 4.05659,8.98925 8.94268,17.55652 13.10577,26.49582 4.01214,8.55519 8.13556,17.04912 12.23791,25.56283 3.60467,6.98413 6.48463,14.24636 9.75871,21.38311 2.81829,5.26383 4.89892,10.89267 8.30837,15.8423 4.04402,6.13877 7.79855,12.4449 11.68628,18.68281 4.74455,7.14707 9.19343,14.46049 13.3245,21.97915 4.1799,6.57782 8.13255,13.2985 12.13041,19.98618 4.3981,7.72732 9.26451,15.164 15.01644,21.96417 5.99232,7.23216 11.65589,14.72593 17.48352,22.08948 6.67581,8.94697 13.39605,17.85886 19.9155,26.92143 6.75256,9.72891 13.08886,19.74007 19.86902,29.45169 4.35359,7.05427 8.62295,14.15547 13.54437,20.83677 2.62607,3.9412 1.81382,1.5768 -5.80845,7.0473 -0.52262,0.3751 -3.72308,-3.7664 -4.01956,-3.9183 -2.9082,-3.2391 -5.64747,-6.6059 -8.16449,-10.1593 -2.90018,-3.5375 -5.18904,-7.4946 -7.62726,-11.35428 -2.73478,-4.20369 -4.88113,-8.78214 -7.13435,-13.25698 -2.44407,-5.95036 -5.73562,-11.48093 -8.83035,-17.1089 -3.29162,-5.44011 -6.45368,-10.94251 -9.41061,-16.57001 -2.54371,-4.6906 -5.45702,-9.15794 -8.55609,-13.50021 -2.88094,-4.94105 -6.19319,-9.62451 -8.56773,-14.85268 -3.25734,-7.0188 -6.04699,-14.22327 -9.24435,-21.27172 -3.80434,-9.02908 -8.29952,-17.74 -12.15845,-26.74631 -4.51114,-9.55116 -8.33271,-19.34965 -12.36232,-29.10337 -4.02289,-9.49349 -8.13899,-18.9462 -12.60295,-28.24301 -4.4146,-10.01161 -8.8185,-20.02275 -13.45509,-29.93454 -3.98019,-8.88356 -8.36075,-17.57564 -12.19768,-26.52306 -3.86922,-8.12927 -6.7424,-16.63472 -10.04732,-24.99947 -3.23848,-7.32166 -6.33418,-14.68545 -9.03928,-22.21998 -2.11843,-5.87473 -4.50556,-11.6486 -6.18315,-17.6776 -2.15885,-6.30186 -3.88524,-12.74672 -5.79073,-19.12761 -2.07748,-6.52539 -4.12879,-13.046 -6.68378,-19.40928 -2.42519,-6.04625 -4.59374,-12.21494 -6.53144,-18.43261 -1.86542,-5.44278 -3.69481,-10.89334 -5.4894,-16.35812 -1.90068,-5.13558 -3.89207,-10.21671 -6.43344,-15.07761 -2.24175,-5.51743 -4.37949,-11.06914 -6.55755,-16.60793 -2.45789,-5.01432 -5.10461,-9.86341 -8.67737,-14.20259 -3.19741,-4.85481 -7.06254,-9.12265 -10.93434,-13.44244 -3.47776,-4.11852 -7.01996,-8.22303 -9.83918,-12.82994 -3.26439,-4.48142 -6.16625,-9.25368 -8.60306,-14.23203 -2.71811,-5.03867 -5.28116,-10.16116 -8.32064,-15.02007 -2.47458,-3.69764 -4.81501,-7.46538 -6.78465,-11.45936 -2.22075,-3.96089 -4.74198,-7.73381 -7.38931,-11.41951 -2.47701,-3.7547 -4.72526,-7.63561 -7.29324,-11.32671 -1.62342,-3.38183 -3.2371,-6.71791 -5.44192,-9.77514 -1.81554,-3.33579 -3.46336,-6.73739 -5.73093,-9.81655 -3.70438,-5.21018 -8.09298,-9.94467 -12.4046,-14.65097 0,0 7.28367,-4.35331 7.28367,-4.35331 z" />
    <path
       style="fill:#000000;fill-opacity:1;stroke:#000000;stroke-width:4.69999981;stroke-linecap:round;stroke-linejoin:round;stroke-miterlimit:4;stroke-opacity:1;stroke-dasharray:none;stroke-dashoffset:0"
       id="path2712"
       d="m 196.43746,563.32291 c 5.10226,5.27471 9.87843,10.85196 15.56746,15.51412 5.26671,4.83638 11.43268,7.91439 17.99725,10.55719 6.2019,2.55944 12.22766,2.6553 18.42659,0.2489 0.95868,-0.53049 3.82979,-2.1308 2.87604,-1.59148 -1.32375,0.74855 -2.46559,2.24546 -3.98611,2.21921 -1.34385,-0.0232 2.25731,-1.46063 3.35935,-2.23003 3.64543,-2.54509 6.72937,-5.46336 9.87634,-8.58788 7.80104,-7.75637 14.36282,-16.57758 20.30738,-25.79871 6.11413,-9.4338 11.94178,-19.0377 16.88646,-29.13639 4.32807,-8.18388 7.80963,-16.81318 10.33245,-25.71817 2.12001,-7.65518 1.96344,-15.62389 2.78458,-23.45305 0.97556,-6.66119 1.76331,-13.33922 2.21006,-20.05665 0.0482,-4.11694 -1.4314,-7.66826 -3.24007,-11.25247 -1.29698,-3.14223 -3.25742,-5.9669 -4.88565,-8.94543 -1.43262,-2.10815 -3.13888,-4.02565 -5.04596,-5.71476 -0.68052,-0.5182 -0.60886,-0.31831 -0.89896,-1.1827 -0.0928,-0.87063 0.36396,-1.62805 0.73893,-2.37164 0,0 7.78439,-3.49213 7.78439,-3.49213 l 0,0 c -0.34833,0.60098 -0.94592,1.2304 -0.91279,1.94969 0.16657,0.21493 0.33738,0.43539 0.55638,0.59658 1.9232,1.80192 3.67259,3.79388 5.14446,5.98331 1.64209,2.98178 3.61483,5.81365 4.91059,8.96715 1.85923,3.72622 3.40641,7.40342 3.41699,11.67091 -0.47144,6.73417 -1.21267,13.43648 -2.24115,20.11007 -0.88659,7.86135 -0.62449,15.87682 -2.73074,23.57944 -2.45429,8.97093 -5.96897,17.65484 -10.31379,25.87745 -4.91426,10.14137 -10.72579,19.77955 -16.86012,29.23131 -5.90293,9.265 -12.42377,18.13155 -20.18942,25.94353 -7.71682,7.80069 -16.44094,14.03263 -26.537,18.6039 -6.375,2.16721 -12.52595,1.88 -18.77607,-0.76179 -6.61201,-2.71876 -12.82238,-5.88574 -18.13954,-10.77083 -5.69323,-4.74749 -10.50943,-10.3648 -15.702,-15.63533 0,0 7.28367,-4.35332 7.28367,-4.35332 z" />
    <path
       style="fill:#000000;fill-opacity:1;stroke:#000000;stroke-width:4.69999981;stroke-linecap:round;stroke-linejoin:round;stroke-miterlimit:4;stroke-opacity:1;stroke-dasharray:none;stroke-dashoffset:0"
       id="path2714"
       d="m 319.34967,395.30623 c -6.37878,6.67091 -13.99666,11.95233 -21.2899,17.55139 -4.36902,3.66082 -9.65404,6.39246 -12.65931,11.38246 -1.29465,4.19332 1.31639,8.14329 3.03254,11.8371 2.98002,5.57525 6.59966,10.76087 9.2763,16.49948 2.483,4.66802 4.11449,9.6932 5.46987,14.7832 0,0 -7.48041,4.05286 -7.48041,4.05286 l 0,0 c -1.26874,-5.06656 -2.86865,-10.05339 -5.34286,-14.67704 -2.65977,-5.74724 -6.29996,-10.92083 -9.29057,-16.49042 -1.84651,-3.95266 -4.45612,-8.02228 -3.41576,-12.54195 2.75541,-5.29072 8.12518,-8.04325 12.60189,-11.73085 7.27196,-5.56805 14.9089,-10.78446 21.26695,-17.42241 0,0 7.83126,-3.24382 7.83126,-3.24382 z" />
    <path
       style="fill:#000000;fill-opacity:1;stroke:#000000;stroke-width:4.69999981;stroke-linecap:round;stroke-linejoin:round;stroke-miterlimit:4;stroke-opacity:1;stroke-dasharray:none;stroke-dashoffset:0"
       id="path2716"
       d="m 273.65726,312.14909 c -6.6608,5.77831 -11.9949,12.82952 -17.30222,19.81572 -4.89419,7.00067 -8.75549,14.49954 -11.20223,22.67408 -0.85472,5.80978 0.90118,8.37785 6.67152,6.30871 0.8269,-0.4666 3.3433,-1.79649 2.48069,-1.39979 -1.54751,0.71167 -2.84243,2.19844 -4.53929,2.34651 -1.18078,0.10304 1.88381,-1.43988 2.79777,-2.19454 2.94386,-2.4308 5.68913,-5.08821 8.5951,-7.56472 3.77248,-2.83792 14.06643,-15.31456 17.98301,-10.15255 0.47055,3.6677 -0.32124,7.41827 -0.63111,11.09398 -0.50533,3.15535 0.64353,4.88295 3.80446,4.22953 2.41901,-1.72661 8.91027,-3.26175 -2.60503,1.55147 -0.70416,0.29432 1.1955,-0.95009 1.76779,-1.45501 1.36876,-1.20762 2.81208,-2.68004 4.09984,-3.95713 5.8425,-5.28889 10.16125,-11.78764 13.71281,-18.76564 0.55802,-1.2662 1.11603,-2.53239 1.67404,-3.79858 0,0 7.64227,-3.50477 7.64227,-3.50477 l 0,0 c -0.55685,1.28119 -1.11369,2.56239 -1.67053,3.84358 -3.4537,7.05348 -7.71692,13.65579 -13.54935,18.99089 -5.13615,5.17533 -10.74248,9.9943 -17.90349,12.19088 -3.45364,0.18458 -5.14353,-2.14907 -4.56956,-5.53493 0.29753,-3.50169 0.78596,-6.99921 0.89762,-10.50729 -1.17668,-1.31066 -11.05237,3.88904 4.19618,-3.44542 4.14248,-1.99251 -10.62479,6.7559 -7.03971,6.06367 -7.5806,6.32409 -14.30915,13.52254 -23.85412,17.14832 -6.29761,1.51783 -8.35025,-1.82505 -7.59564,-7.87115 2.44466,-8.26971 6.24606,-15.86663 11.1457,-22.98064 5.29686,-6.99281 10.58309,-14.05505 17.11847,-19.96488 0,0 7.87501,-3.1603 7.87501,-3.1603 z" />
    <path
       style="fill:#000000;fill-opacity:1;stroke:#000000;stroke-width:4.69999981;stroke-linecap:round;stroke-linejoin:round;stroke-miterlimit:4;stroke-opacity:1;stroke-dasharray:none;stroke-dashoffset:0"
       id="path2718"
       d="m -336.96915,510.6517 c 11.04274,2.70841 21.94201,6.00649 32.79641,9.38904 16.32558,4.5074 32.73239,8.62478 49.31894,12.04528 23.69924,4.42166 47.65865,7.10882 71.59459,9.84949 31.85606,3.33932 63.75035,6.27466 95.717645,8.3013 41.916478,2.2699 83.9072794,2.46043 125.873197,2.69105 46.577455,-0.61881 93.146238,-1.68982 139.724758,-2.26756 43.0692,-0.66885 86.07794,-2.4663 129.0688,-5.05219 36.98327,-2.53069 73.89791,-5.89677 110.91186,-7.96168 27.99626,-1.22907 55.97587,-2.79344 83.92077,-4.87991 19.60105,-1.00749 39.04046,-3.69697 58.50358,-6.07474 10.9329,-1.29749 21.91307,-2.11644 32.91541,-2.46412 3.1365,-0.8812 8.9876,1.1103 11.72714,-0.59337 -9.10456,3.98124 -6.56503,5.56811 -7.32361,1.29236 -0.29886,-1.68454 -0.8645,-3.42798 -1.34688,-5.06215 0,0 7.42888,-4.05979 7.42888,-4.05979 l 0,0 c 2.43838,8.14128 3.24079,6.35298 -5.47021,13.10318 -3.82118,0.81722 -7.94828,-0.27513 -11.8134,0.29157 -10.94024,0.34184 -21.86079,1.13143 -32.73224,2.42172 -19.42922,2.35144 -38.84002,4.96571 -58.40433,5.95319 -27.89752,2.04661 -55.83122,3.54064 -83.77738,4.75609 -36.97116,2.04929 -73.8455,5.38474 -110.78796,7.87478 -42.97559,2.56837 -85.97085,4.32505 -129.02374,4.97363 -46.57979,0.56125 -93.149351,1.644 -139.727987,2.2534 -42.0253457,-0.20349 -84.076018,-0.36296 -126.052841,-2.6167 -32.022082,-2.00182 -63.973742,-4.90497 -95.884712,-8.23132 -23.99021,-2.71021 -48.00139,-5.39796 -71.7504,-9.82853 -16.63921,-3.40583 -33.10229,-7.51781 -49.47532,-12.03568 -10.89293,-3.36061 -21.822,-6.67353 -32.92227,-9.28032 0,0 6.9913,-4.78802 6.9913,-4.78802 z" />
    <path
       style="fill:#000000;fill-opacity:1;stroke:#000000;stroke-width:4.69999981;stroke-linecap:round;stroke-linejoin:round;stroke-miterlimit:4;stroke-opacity:1;stroke-dasharray:none;stroke-dashoffset:0"
       id="path2720"
       d="m 382.57069,786.07325 c 3.96189,-12.86402 11.97534,-23.98116 19.26878,-35.13221 12.41866,-17.98708 25.90362,-35.18957 39.7274,-52.10784 15.97295,-19.2844 32.56991,-37.98885 50.16522,-55.80266 13.45292,-13.67726 27.38696,-26.83689 41.69876,-39.60578 6.38616,-5.89827 13.08262,-11.38815 20.15032,-16.42771 1.80423,-1.345 3.58497,-2.72931 5.24274,-4.2534 0.81071,0.53007 -0.15709,0.61956 -1.06331,0.65291 -0.12263,0.006 -0.24525,0.0112 -0.36788,0.0168 0,0 6.90563,-5.05304 6.90563,-5.05304 l 0,0 c 0.12343,-0.003 0.24686,-0.005 0.37029,-0.008 0.62635,-0.007 2.7479,-0.0571 2.06499,1.12306 -1.5853,1.6615 -3.50164,2.97822 -5.28357,4.40997 -7.05066,5.1343 -13.99471,10.38325 -20.34581,16.4134 -14.3836,12.77017 -28.40051,25.91866 -41.89693,39.63095 -17.61458,17.78233 -34.23357,36.44954 -50.19577,55.73245 -13.79938,16.8703 -27.23111,34.04449 -39.63825,51.97474 -7.21757,11.04808 -15.22721,22.0626 -19.14837,34.80124 0,0 -7.65424,3.6354 -7.65424,3.6354 z" />
    <path
       style="fill:#000000;fill-opacity:1;stroke:#000000;stroke-width:4.69999981;stroke-linecap:round;stroke-linejoin:round;stroke-miterlimit:4;stroke-opacity:1;stroke-dasharray:none;stroke-dashoffset:0"
       id="path2722"
       d="m 536.79073,565.8308 c 10.08506,-5.60457 20.84035,-9.63702 31.57296,-13.78181 10.40773,-3.69482 21.16631,-7.41432 32.21237,-4.87163 9.01876,3.73 6.92303,12.89201 4.35709,20.39524 -4.6445,11.51317 -12.5091,21.1852 -20.51848,30.5043 -5.29474,5.39789 -13.93076,13.462 -21.74151,13.50447 0,0 6.8532,-5.02912 6.8532,-5.02912 l 0,0 c 4.06053,-0.37917 0.97609,-0.3762 -3.15535,3.2195 -3.88703,3.38298 14.39267,-9.70044 10.36372,-8.44784 8.01057,-9.22875 15.90073,-18.79806 20.61665,-30.20587 2.51349,-6.94681 5.00155,-15.79921 -3.69088,-19.14038 -10.93717,-2.26532 -21.57461,1.54615 -31.83088,5.19694 -10.77903,4.16526 -21.53835,8.32024 -31.66204,13.95409 0,0 6.62315,-5.29789 6.62315,-5.29789 z" />
    <path
       style="fill:#000000;fill-opacity:1;stroke:#000000;stroke-width:4.69999981;stroke-linecap:round;stroke-linejoin:round;stroke-miterlimit:4;stroke-opacity:1;stroke-dasharray:none;stroke-dashoffset:0"
       id="path2724"
       d="m 565.61908,477.15865 c 8.8687,5.65322 17.49909,11.67695 26.55637,17.02733 8.20419,4.32725 15.35919,9.63522 19.73677,17.92295 3.10237,9.07338 -1.18453,17.35005 -6.2412,24.7379 -8.2756,10.83743 -19.56694,18.6026 -30.91973,25.87498 -7.61993,5.34419 -15.7867,8.65565 -24.3929,11.73561 0,0 6.58286,-5.14046 6.58286,-5.14046 l 0,0 c 2.27984,-0.83091 15.13224,-6.47634 10.08158,-3.58955 11.336,-7.1882 22.62699,-14.85162 30.98167,-25.54533 5.00433,-7.04269 9.43435,-15.06986 6.60179,-23.89276 -4.2869,-8.16171 -11.41641,-13.27146 -19.44556,-17.56028 -9.05615,-5.40883 -17.71354,-11.44365 -26.67865,-17.00065 0,0 7.137,-4.56974 7.137,-4.56974 z" />
    <path
       style="fill:#000000;fill-opacity:1;stroke:#000000;stroke-width:4.69999981;stroke-linecap:round;stroke-linejoin:round;stroke-miterlimit:4;stroke-opacity:1;stroke-dasharray:none;stroke-dashoffset:0"
       id="path2726"
       d="m 657.07167,555.24353 c -8.72014,1.35587 -17.51341,0.24247 -26.05358,-1.65893 -10.03803,-3.47115 -14.94006,-9.49824 -17.56436,-19.59051 -1.47459,-12.93644 5.63751,-23.46506 13.32597,-33.0934 13.05075,-13.91145 29.99481,-23.41735 48.04693,-29.19258 16.26639,-3.74675 29.66525,-2.81472 45.03002,3.51037 13.11993,6.6597 19.62373,14.55178 24.16353,28.31138 2.96831,12.54682 -1.71131,23.51847 -8.55107,33.79414 -10.73383,12.47487 -25.27743,20.82001 -40.19015,27.37432 -13.24364,5.48944 -24.59598,6.25761 -38.64546,4.86758 -9.56065,-1.35603 -18.72355,-4.3175 -25.12464,-11.79959 -3.30054,-5.75795 -1.53341,-11.21257 1.54582,-16.56614 1.79412,-2.64699 0.90652,-1.40896 2.64522,-3.72666 0,0 7.80096,-3.35186 7.80096,-3.35186 l 0,0 c -1.78031,2.27156 -0.87108,1.05976 -2.71148,3.6475 -3.06853,4.97153 -5.11957,10.10414 -2.05267,15.64384 6.27465,7.30427 15.35834,10.03891 24.68526,11.32011 13.73771,1.29787 25.50074,0.3119 38.36458,-5.19207 2.07328,-0.93239 4.08219,-2.02371 6.21986,-2.79717 0.4998,-0.18084 -1.70018,1.27046 -1.24446,0.99693 7.78466,-4.67237 15.15614,-10.15704 21.08173,-17.08518 6.84208,-10.01602 11.6787,-20.72798 8.86514,-33.1041 -4.41146,-13.57577 -10.77842,-21.24073 -23.746,-27.72094 -15.25921,-6.15215 -28.59213,-6.94627 -44.6579,-3.06341 -14.70291,4.86032 -22.99274,9.13734 -33.90683,20.88124 -7.6085,9.38202 -14.83056,19.64138 -13.5724,32.35408 2.46851,9.83543 7.28752,15.57981 17.08514,18.79642 8.52806,1.81153 17.2722,2.85259 25.94709,1.36546 0,0 -6.78625,5.07917 -6.78625,5.07917 z" />
    <path
       style="fill:#000000;fill-opacity:1;stroke:#000000;stroke-width:4.69999981;stroke-linecap:round;stroke-linejoin:round;stroke-miterlimit:4;stroke-opacity:1;stroke-dasharray:none;stroke-dashoffset:0"
       id="path2728"
       d="m 720.30012,504.03756 c -4.77568,10.89169 -12.80713,19.59125 -20.79678,28.19174 -9.73743,9.82807 -19.00055,20.21556 -29.80494,28.90063 -5.14759,3.35206 -10.3703,9.36338 -16.90922,8.07865 0,0 6.95635,-4.91226 6.95635,-4.91226 l 0,0 c 1.07413,0.0712 4.01289,-1.08893 3.20767,-0.37447 -0.26577,0.23581 -10.3461,6.44202 -1.01688,0.31956 10.92689,-8.56169 20.16585,-19.00473 29.93647,-28.81944 7.92967,-8.49934 15.90218,-17.04911 20.74575,-27.77686 0,0 7.68158,-3.60755 7.68158,-3.60755 z" />
    <path
       style="fill:#000000;fill-opacity:1;stroke:#000000;stroke-width:4.69999981;stroke-linecap:round;stroke-linejoin:round;stroke-miterlimit:4;stroke-opacity:1;stroke-dasharray:none;stroke-dashoffset:0"
       id="path2730"
       d="m 691.71502,484.3654 c -3.62072,11.47912 -9.12523,22.141 -15.86917,32.06707 -5.05833,7.18098 -10.63671,14.21453 -17.67561,19.58049 -4.13882,3.15514 -12.66588,7.60042 -15.99913,9.4786 0,0 6.53284,-5.25664 6.53284,-5.25664 l 0,0 c -0.9926,0.63412 -3.97528,2.5288 -2.97781,1.90236 9.12832,-5.73279 16.53842,-13.40562 22.5154,-22.38961 6.77751,-9.78771 12.26623,-20.34488 15.81924,-31.74687 0,0 7.65424,-3.6354 7.65424,-3.6354 z" />
    <path
       style="fill:#000000;fill-opacity:1;stroke:#000000;stroke-width:4.69999981;stroke-linecap:round;stroke-linejoin:round;stroke-miterlimit:4;stroke-opacity:1;stroke-dasharray:none;stroke-dashoffset:0"
       id="path2732"
       d="m -34.967332,609.78322 c 4.122227,8.83391 7.61777,17.97273 10.518951,27.27858 0.304974,1.07281 0.619376,2.14299 0.914923,3.21844 0.225634,0.82105 0.421356,1.65014 0.64854,2.47076 0.133619,0.48265 0.257897,0.96953 0.433705,1.43846 0.04698,0.12532 0.351254,0.27478 0.229192,0.32969 -7.928525,3.56624 -7.520526,5.38296 -7.217297,1.09707 -0.195847,-7.50287 2.516244,-14.32394 6.509927,-20.52489 7.1272,-9.1611 17.9818667,-15.48943 29.0023526,-18.78117 7.0765774,-2.14793 14.5385234,-1.53571 21.7454524,-2.64697 0.751399,-0.17263 1.502798,-0.34527 2.254197,-0.5179 0,0 -6.753823,5.12877 -6.753823,5.12877 l 0,0 c -0.757932,0.15165 -1.515865,0.3033 -2.273798,0.45495 -7.201971,0.89643 -14.5872292,0.55437 -21.61464393,2.71943 -1.39596257,0.44915 -3.16956467,2.40266 -4.18788757,1.34745 -0.923095,-0.95653 4.536274,-2.11469 3.2267846,-2.34337 -2.6783198,-0.46773 -12.0865761,9.0444 -13.7034121,11.26848 -4.064534,5.9844 -6.884646,12.70101 -6.611313,20.07562 -0.163126,4.77868 0.420356,2.28723 -7.771586,7.01638 -0.17083,0.0986 -0.736404,-2.23403 -1.329867,-4.49803 -0.281521,-1.07397 -0.584711,-2.14215 -0.877066,-3.21323 -2.817198,-9.26549 -6.249049,-18.37255 -10.474559,-27.09019 0,0 7.331228,-4.22833 7.331228,-4.22833 z" />
    <path
       style="fill:#000000;fill-opacity:1;stroke:#000000;stroke-width:4.69999981;stroke-linecap:round;stroke-linejoin:round;stroke-miterlimit:4;stroke-opacity:1;stroke-dasharray:none;stroke-dashoffset:0"
       id="path2734"
       d="m -33.873651,578.0622 c 12.903504,-1.37385 25.7537882,-3.25383 38.6098582,-5.02775 8.9878458,-0.99813 17.9564918,-2.01829 26.8993038,-3.36909 0,0 -6.674502,5.00121 -6.674502,5.00121 l 0,0 c -8.93199,1.30231 -17.8902614,2.29321 -26.8560588,3.32675 -12.9088722,1.79788 -25.8164922,3.6329 -38.7630832,5.12818 0,0 6.784482,-5.0593 6.784482,-5.0593 z" />
    <path
       style="fill:#000000;fill-opacity:1;stroke:#000000;stroke-width:4.69999981;stroke-linecap:round;stroke-linejoin:round;stroke-miterlimit:4;stroke-opacity:1;stroke-dasharray:none;stroke-dashoffset:0"
       id="path2736"
       d="m 37.021782,559.62798 c 7.539414,3.28187 15.536955,5.46955 23.409867,7.83149 3.98437,1.06425 9.168792,1.37053 10.814918,5.82411 -1.530431,6.43161 -12.105799,10.47506 -16.60851,13.063 0,0 6.590955,-5.32314 6.590955,-5.32314 l 0,0 c -11.91733,7.00132 1.274148,-0.12584 2.544939,-3.62785 -1.129079,-4.09871 -7.08421,-4.04093 -10.302577,-5.18593 -7.906755,-2.42522 -15.946386,-4.61721 -23.534851,-7.91983 0,0 7.085259,-4.66185 7.085259,-4.66185 z" />
    <path
       style="fill:#000000;fill-opacity:1;stroke:#000000;stroke-width:4.69999981;stroke-linecap:round;stroke-linejoin:round;stroke-miterlimit:4;stroke-opacity:1;stroke-dasharray:none;stroke-dashoffset:0"
       id="path2738"
       d="m 529.79904,659.19272 c 1.61355,10.73134 3.85185,21.33959 7.00333,31.72323 1.34845,1.78551 1.48076,7.45278 3.29578,8.93163 0.10564,0.0861 0.22754,-0.43572 0.0969,-0.39714 -2.371,0.69995 -4.6699,1.62431 -7.00484,2.43646 0.51883,-5.77161 0.0603,-11.56392 0.59306,-17.33005 0.58559,-8.00599 5.90793,-13.60914 11.94568,-18.29055 10.73494,-8.0996 22.49694,-11.26638 35.44752,-12.84912 5.81125,-0.56948 11.65351,-0.80846 17.4916,-0.80441 0.30408,0.004 0.60815,0.009 0.91223,0.0135 0,0 -6.91355,5.00661 -6.91355,5.00661 l 0,0 c -0.29719,-0.005 -0.59438,-0.01 -0.89157,-0.0145 -5.7819,-0.0234 -11.56852,0.20819 -17.32062,0.81162 -4.99836,0.63958 -9.97383,1.31484 -14.82678,2.73625 -1.63422,0.47866 -3.15528,1.97983 -4.82911,1.66666 -1.11997,-0.20954 3.83086,-2.34556 2.72788,-2.05979 -1.50035,0.38872 -2.66017,1.59124 -3.99026,2.38686 -6.00961,4.38894 -11.52237,9.83136 -12.19269,17.63874 -0.61503,5.76313 -0.0964,11.55488 -0.53385,17.33482 -2.51237,2.1164 -4.88871,4.40573 -7.53712,6.34921 -0.99623,0.73106 -3.50628,-9.01746 -3.82721,-9.54356 -3.10388,-10.44139 -5.34546,-21.08299 -7.13232,-31.82713 0,0 7.48598,-3.91924 7.48598,-3.91924 z" />
    <path
       style="fill:#000000;fill-opacity:1;stroke:#000000;stroke-width:4.69999981;stroke-linecap:round;stroke-linejoin:round;stroke-miterlimit:4;stroke-opacity:1;stroke-dasharray:none;stroke-dashoffset:0"
       id="path2740"
       d="m 531.46369,640.52245 c 10.53631,-3.20318 21.40665,-4.79958 32.21661,-6.72107 11.07952,-1.86088 22.26471,-3.23153 33.22136,-5.75343 4.37709,-0.85456 8.56877,-2.1528 12.65947,-3.90184 0,0 -6.65181,5.24487 -6.65181,5.24487 l 0,0 c -4.11171,1.65743 -8.3321,2.86624 -12.68469,3.73708 -10.9704,2.40001 -22.12528,3.8269 -33.19419,5.68474 -10.84665,1.90561 -21.73253,3.60268 -32.28087,6.8792 0,0 6.71412,-5.16955 6.71412,-5.16955 z" />
    <path
       style="fill:#000000;fill-opacity:1;stroke:#000000;stroke-width:4.69999981;stroke-linecap:round;stroke-linejoin:round;stroke-miterlimit:4;stroke-opacity:1;stroke-dasharray:none;stroke-dashoffset:0"
       id="path2742"
       d="m 608.64261,612.33798 c 8.51554,-1.13714 17.09403,-1.68651 25.66807,-2.14834 4.4972,-0.43815 9.4471,0.0926 10.51806,5.09994 -0.36695,5.91 -5.34239,9.17245 -9.65343,12.42971 -5.07607,3.66282 -10.61205,6.62971 -16.165,9.49858 0,0 6.58454,-5.28635 6.58454,-5.28635 l 0,0 c 9.86443,-5.21379 -8.4235,5.04364 1.72933,-1.08934 4.14322,-3.09307 9.1253,-6.01223 9.99577,-11.5517 -0.69911,-4.62479 -6.06105,-4.36865 -9.79907,-4.11286 -8.57675,0.44301 -17.15886,1.0106 -25.66452,2.23953 0,0 6.78625,-5.07917 6.78625,-5.07917 z" />
    <path
       style="fill:#000000;fill-opacity:1;stroke:#000000;stroke-width:4.69999981;stroke-linecap:round;stroke-linejoin:round;stroke-miterlimit:4;stroke-opacity:1;stroke-dasharray:none;stroke-dashoffset:0"
       id="path2744"
       d="m 673.90539,884.18677 c -11.44556,3.14007 -22.6984,6.81437 -33.83352,10.90571 -1.48105,0.67351 -2.81621,2.00834 -4.44317,2.02054 -1.41778,0.0106 2.3388,-1.83994 3.74573,-2.01531 1.04595,-0.13037 -1.74512,1.18891 -2.55245,1.86658 -1.76874,1.48464 -2.08857,2.19295 -0.75544,3.93604 5.56265,4.20647 13.03134,5.24363 19.607,7.24865 7.78902,1.87907 15.26293,4.35927 22.07365,8.60336 3.42086,2.70467 6.08682,5.7369 4.89817,10.21063 -4.48177,6.85991 -13.22102,10.72593 -19.96834,14.611 -6.18969,3.5756 -12.80485,6.23631 -19.36377,9.01986 -3.17297,1.53553 -6.4185,2.83472 -9.7987,3.82716 0,0 6.74209,-5.20661 6.74209,-5.20661 l 0,0 c 3.32933,-1.02998 6.51607,-2.3963 9.682,-3.84946 6.56948,-2.73859 13.11684,-5.53329 19.3006,-9.09011 -11.24928,6.74793 4.71229,-2.89867 5.71735,-5.69152 1.56747,-4.0342 -1.22675,-6.80349 -4.31365,-9.25055 -6.75172,-4.19278 -14.21522,-6.54077 -21.90698,-8.44816 -6.74397,-2.02234 -14.44017,-3.08905 -19.98884,-7.6542 -0.75679,-1.076 -1.81059,-1.94908 -1.21526,-3.47977 1.4633,-3.76236 15.01821,-9.98231 19.11666,-11.79862 11.1838,-4.08555 22.50488,-7.70888 33.97787,-10.90449 0,0 -6.721,5.13927 -6.721,5.13927 z" />
    <path
       style="fill:#000000;fill-opacity:1;stroke:#000000;stroke-width:4.69999981;stroke-linecap:round;stroke-linejoin:round;stroke-miterlimit:4;stroke-opacity:1;stroke-dasharray:none;stroke-dashoffset:0"
       id="path2746"
       d="m 718.68932,838.44102 c 1.34331,6.18479 2.70715,12.3571 4.23705,18.49956 0,0 -7.37224,3.98477 -7.37224,3.98477 l 0,0 c -1.51069,-6.12791 -2.8841,-12.28113 -4.30496,-18.42875 0,0 7.44015,-4.05558 7.44015,-4.05558 z" />
    <path
       style="fill:#000000;fill-opacity:1;stroke:#000000;stroke-width:4.69999981;stroke-linecap:round;stroke-linejoin:round;stroke-miterlimit:4;stroke-opacity:1;stroke-dasharray:none;stroke-dashoffset:0"
       id="path2748"
       d="m -512.39029,295.04242 c -9.36703,6.88585 -19.11519,13.22689 -28.75476,19.71893 -6.66563,5.31018 -14.87145,9.21048 -20.0264,16.17346 -3.04764,5.65155 3.06316,8.74225 7.29236,11.22239 8.21578,3.73725 17.0551,5.62631 25.802,7.64967 8.08523,1.26453 16.05264,2.68481 23.76247,5.45993 2.68566,1.0727 6.96551,2.67416 7.50613,5.93786 -1.9457,4.31949 -10.29565,7.40541 -12.93312,8.89295 -1.88674,1.06413 -4.31664,2.39821 -6.18067,3.42666 1.20151,-0.67276 4.60311,-2.96649 3.60453,-2.0183 -1.11502,1.05876 -2.65202,1.55719 -3.96377,2.35942 -5.77266,3.53038 -11.5106,7.1283 -17.25224,10.7092 -13.08597,7.37971 -7.71837,4.6361 -15.87474,8.66254 0,0 6.55418,-5.24003 6.55418,-5.24003 l 0,0 c 4.99399,-2.49765 5.3672,-2.86618 1.52244,-0.39758 10.55454,-6.61571 21.1329,-13.20238 31.96287,-19.36175 1.12946,-0.62538 2.25867,-1.25121 3.38837,-1.87614 0.94519,-0.52287 3.73408,-2.16794 2.83632,-1.56727 -9.73977,6.51671 -3.32868,2.00697 -1.24994,0.32629 0.38164,-2.58455 -5.2871,-4.38047 -6.92258,-5.12638 -7.67395,-2.74883 -15.6327,-4.0615 -23.65393,-5.4157 -8.81507,-2.06235 -17.7432,-3.9597 -25.98408,-7.83809 -4.60615,-2.76179 -10.83675,-6.24077 -7.98417,-12.433 4.92282,-7.26363 13.33729,-11.11749 20.03545,-16.50589 9.596,-6.47346 19.35209,-12.72932 28.62127,-19.67125 0,0 7.89201,-3.08792 7.89201,-3.08792 z" />
  </g>
</svg>
