<?xml version="1.0" encoding="UTF-8" standalone="no"?>
<!-- Created with Inkscape (http://www.inkscape.org/) -->
<svg
   xmlns:dc="http://purl.org/dc/elements/1.1/"
   xmlns:cc="http://creativecommons.org/ns#"
   xmlns:rdf="http://www.w3.org/1999/02/22-rdf-syntax-ns#"
   xmlns:svg="http://www.w3.org/2000/svg"
   xmlns="http://www.w3.org/2000/svg"
   xmlns:sodipodi="http://sodipodi.sourceforge.net/DTD/sodipodi-0.dtd"
   xmlns:inkscape="http://www.inkscape.org/namespaces/inkscape"
   width="1308.1646"
   height="1336.6606"
   id="svg3653"
   sodipodi:version="0.32"
   inkscape:version="0.46+devel"
   version="1.0"
   sodipodi:docname="c25d3.svg"
   inkscape:output_extension="org.inkscape.output.svg.inkscape">
  <defs
     id="defs3655">
    <inkscape:perspective
       sodipodi:type="inkscape:persp3d"
       inkscape:vp_x="0 : 526.18109 : 1"
       inkscape:vp_y="0 : 1000 : 0"
       inkscape:vp_z="744.09448 : 526.18109 : 1"
       inkscape:persp3d-origin="372.04724 : 350.78739 : 1"
       id="perspective3661" />
  </defs>
  <sodipodi:namedview
     id="base"
     pagecolor="#ffffff"
     bordercolor="#666666"
     borderopacity="1.0"
     inkscape:pageopacity="0.0"
     inkscape:pageshadow="2"
     inkscape:zoom="0.35"
     inkscape:cx="463.06426"
     inkscape:cy="713.11882"
     inkscape:document-units="px"
     inkscape:current-layer="layer1"
     showgrid="false"
     inkscape:window-width="1280"
     inkscape:window-height="712"
     inkscape:window-x="-5"
     inkscape:window-y="-3" />
  <metadata
     id="metadata3658">
    <rdf:RDF>
      <cc:Work
         rdf:about="">
        <dc:format>image/svg+xml</dc:format>
        <dc:type
           rdf:resource="http://purl.org/dc/dcmitype/StillImage" />
        <dc:title></dc:title>
      </cc:Work>
    </rdf:RDF>
  </metadata>
  <g
     inkscape:label="Layer 1"
     inkscape:groupmode="layer"
     id="layer1"
     transform="translate(88.064264,91.179632)">
    <path
       sodipodi:type="arc"
       style="fill:none;stroke:#000000;stroke-width:4.69999981;stroke-linecap:round;stroke-linejoin:round;stroke-miterlimit:4;stroke-opacity:1;stroke-dasharray:none;stroke-dashoffset:0"
       id="path3663"
       sodipodi:cx="365.71429"
       sodipodi:cy="543.79077"
       sodipodi:rx="451.42856"
       sodipodi:ry="457.14285"
       d="m 817.14285,543.79077 c 0,252.34286 -202.23999,457.14283 -451.42856,457.14283 -249.18856,0 -451.428554,-204.79997 -451.428554,-457.14283 0,-252.34285 202.239994,-457.142851 451.428554,-457.142851 249.18857,0 451.42856,204.800001 451.42856,457.142851 z" />
    <path
       style="fill:#000000;fill-opacity:1;stroke:#000000;stroke-width:4.69999981;stroke-linecap:round;stroke-linejoin:round;stroke-miterlimit:4;stroke-opacity:1;stroke-dasharray:none;stroke-dashoffset:0"
       d="M 446.4375 57.1875 C 446.4375 57.1875 438.96875 61.21875 438.96875 61.21875 C 440.1827 66.969238 440.76704 72.781792 442 78.53125 C 443.38166 84.493688 443.91069 90.590162 444.1875 96.6875 C 444.4182 104.52255 444.39365 112.3498 444.40625 120.1875 C 444.56823 131.09207 444.47561 141.97574 443.5625 152.84375 C 442.87724 164.33107 441.63513 175.71897 440.40625 187.15625 C 439.2341 197.51729 438.90934 207.95814 438.71875 218.375 C 438.19942 228.52739 438.91984 238.59791 439.9375 248.6875 C 440.9094 257.94357 441.2187 267.23218 441.40625 276.53125 C 441.24036 286.32099 442.14439 296.08207 443.625 305.75 C 445.4981 315.94771 446.41851 326.28101 446.90625 336.625 C 448.13785 347.76395 449.09277 358.89934 449.625 370.09375 C 451.12383 382.33278 451.67219 394.6719 452.84375 406.9375 C 454.09482 421.78852 455.55114 436.59245 456.875 451.4375 C 457.8151 467.96911 458.88169 484.50936 460 501.03125 C 461.24903 518.13592 461.49747 535.21947 460.71875 552.34375 C 459.43345 570.90727 456.57122 589.3233 454.09375 607.75 C 451.36224 626.28719 448.21893 644.72926 446.3125 663.375 C 444.22315 680.05682 442.9359 696.83588 441.28125 713.5625 C 440.12224 729.02845 438.32119 744.41213 437.125 759.875 C 436.11933 774.46441 435.9666 789.10088 435.875 803.71875 C 435.41904 820.26376 436.81582 836.77017 437.625 853.28125 C 438.45853 871.77585 438.60878 890.30228 438.71875 908.8125 C 438.70184 925.80938 440.12424 942.74277 440.84375 959.71875 C 442.11116 975.33115 443.19284 990.94508 444.75 1006.5312 C 446.6623 1023.3762 447.98043 1040.2823 449.59375 1057.1562 C 451.51187 1075.3177 452.29547 1093.565 452.75 1111.8125 C 453.62309 1125.8099 454.43776 1139.802 455 1153.8125 L 462.25 1153.8125 C 461.67909 1138.5799 460.82178 1123.3747 459.90625 1108.1562 C 459.43128 1089.8919 458.63108 1071.6191 456.75 1053.4375 C 455.15212 1036.553 453.85391 1019.6384 451.96875 1002.7812 C 450.4153 987.21148 449.30579 971.62635 448.03125 956.03125 C 447.30177 939.07158 445.87395 922.13864 445.90625 905.15625 C 445.77852 886.63539 445.57267 868.10039 444.78125 849.59375 C 443.98827 833.08314 442.64688 816.57382 443.125 800.03125 C 443.24143 785.43047 443.39093 770.82193 444.40625 756.25 C 445.58837 740.79902 447.35692 725.39187 448.5 709.9375 C 450.159 693.21959 451.42119 676.48735 453.5 659.8125 C 455.411 641.1846 458.56438 622.74091 461.28125 604.21875 C 463.79538 585.76409 466.64544 567.31422 467.9375 548.71875 C 468.70175 531.56668 468.40026 514.44372 467.15625 497.3125 C 466.03893 480.77966 465.03845 464.22962 464.09375 447.6875 C 462.77803 432.83158 461.30564 418.02086 460.09375 403.15625 C 458.95273 390.89237 458.43606 378.55036 456.96875 366.3125 C 456.42733 355.11597 455.4325 343.98991 454.25 332.84375 C 453.75808 322.47083 452.80905 312.13307 450.9375 301.90625 C 449.50762 292.25876 448.62512 282.51239 448.8125 272.75 C 448.62159 263.4322 448.25052 254.11807 447.28125 244.84375 C 446.24029 234.7865 445.60636 224.74527 446.125 214.625 C 446.31774 204.23628 446.62782 193.8348 447.78125 183.5 C 449.01768 172.05756 450.22905 160.64729 450.9375 149.15625 C 451.84009 138.26039 451.88922 127.36828 451.78125 116.4375 C 451.79828 108.57535 451.87555 100.7032 451.625 92.84375 C 451.35873 86.700538 450.80214 80.566257 449.40625 74.5625 C 448.17636 68.793189 447.58429 62.97133 446.4375 57.1875 z "
       transform="translate(-88.064264,-91.179632)"
       id="path4175" />
    <path
       style="fill:#000000;fill-opacity:1;fill-rule:nonzero;stroke:#000000;stroke-width:4.69999981;stroke-linecap:round;stroke-linejoin:round;stroke-miterlimit:4;stroke-opacity:1;stroke-dasharray:none;stroke-dashoffset:0"
       id="path4177"
       d="m 303.48615,-5.2473541 c -1.38283,5.01994694 -1.97011,10.0003639 -1.48151,15.1734087 0.39023,5.6179064 2.48653,10.7621264 5.14544,15.6485994 2.94009,5.143524 6.59017,9.662208 11.08578,13.512843 5.1205,4.417445 11.23837,7.292961 17.40107,9.935736 7.18636,2.461566 14.78627,3.743306 22.27931,4.958987 9.1528,1.365718 18.44914,0.07406 27.52135,-1.316044 10.45444,-2.186702 20.65017,-5.390124 30.49925,-9.50349 4.54897,-1.849595 8.70886,-4.610911 13.17704,-6.609371 1.18583,-0.530377 -3.55326,3.169438 -3.41484,1.877804 0.14098,-1.315526 2.29208,-1.32244 3.42802,-2.00076 1.08589,-0.648432 2.15809,-1.319526 3.23713,-1.979289 4.77671,-3.292797 8.98084,-7.084478 11.15835,-12.527446 1.37033,-4.042336 1.36158,-8.337184 1.39758,-12.554803 0.37058,-4.0436454 -1.66793,-6.7047974 -4.12122,-9.59177436 -2.02625,-2.51942804 -4.85987,-4.22180804 -7.46413,-6.09067754 -0.88242,-0.3296377 -1.83633,-1.8935544 -2.84423,-1.7002239 -1.96728,0.1293805 -2.27995,-1.8122142 -2.53525,-3.3992522 -0.17473,-2.219187 -0.10188,-1.111887 -0.21905,-3.321866 0,0 7.53208,-3.885425 7.53208,-3.885425 l 0,0 c 0.10231,2.167432 0.0353,1.08887 0.20024,3.235732 0.22992,1.630862 0.28691,2.431112 2.02564,2.477113 1.12688,0.472244 1.99632,1.371596 3.0107,2.042797 2.63573,1.9321486 5.51162,3.6685481 7.53613,6.282634 2.56805,3.0032885 4.76488,5.9153528 4.41132,10.119653 -0.023,4.3009247 0.0122,8.686687 -1.28588,12.832888 -2.02526,5.681267 -6.15004,9.600724 -11.01618,13.067159 -9.93086,6.138288 -20.02103,12.065818 -30.69401,16.833769 -9.89889,4.062068 -20.14494,7.25764 -30.6445,9.362219 -9.14269,1.361276 -18.50244,2.603169 -27.71055,1.132902 -7.54566,-1.248401 -15.22149,-2.492616 -22.4225,-5.10951 -6.22227,-2.713849 -12.40486,-5.629079 -17.56657,-10.132571 -4.53647,-3.95604 -8.26338,-8.529053 -11.25756,-13.761047 -2.72032,-4.970706 -4.85583,-10.234599 -5.30358,-15.946139 -0.54577,-5.2513235 -0.0515,-10.2733524 1.2793,-15.397088 0,0 7.65583,-3.6674671 7.65583,-3.6674671 z" />
    <path
       style="fill:#000000;fill-opacity:1;fill-rule:nonzero;stroke:#000000;stroke-width:4.69999981;stroke-linecap:round;stroke-linejoin:round;stroke-miterlimit:4;stroke-opacity:1;stroke-dasharray:none;stroke-dashoffset:0"
       id="path4179"
       d="m 458.11838,-27.574994 c -4.90216,1.340731 -9.97523,1.780044 -15.0271,2.108839 -5.71327,0.316657 -11.32247,1.643461 -16.99055,2.440086 -2.93804,0.623035 -6.0155,0.239789 -8.96443,0.661454 -2.72372,0.389461 -6.67412,3.175657 4.17164,-2.782933 -3.17789,2.268488 -3.05905,6.396995 -3.25977,9.932837 0.25025,4.568422 -0.85902,8.9718445 -1.73315,13.4131968 -0.71287,3.3913948 -0.92897,6.8528993 -1.06492,10.306862 -0.0604,2.1586252 -0.0787,4.3203222 -0.0259,6.4786112 -8.2913,3.804382 -7.36974,5.366766 -9.28279,0.506508 0,0 7.41909,-4.133468 7.41909,-4.133468 l 0,0 c 1.80096,4.696014 2.34141,2.167035 -5.75706,7.524361 0.0299,-2.183518 0.034,-4.367927 0.0734,-6.55154 0.1145,-3.496435 0.34083,-7.0089184 1.04125,-10.4427585 0.85046,-4.4152918 2.07822,-8.7681592 1.79902,-13.3121635 0.1618,-3.666668 -0.0298,-7.99721 2.88271,-10.675892 2.91481,-1.643169 5.74983,-3.436706 8.74444,-4.929507 3.09465,-1.54267 7.4879,0.235678 10.69976,-1.040111 5.67149,-0.796082 11.28169,-2.135182 17.01205,-2.381761 5.0538,-0.366087 10.11494,-0.880929 15.00573,-2.279026 0,0 -6.74342,5.156405 -6.74342,5.156405 z" />
    <path
       style="fill:#000000;fill-opacity:1;fill-rule:nonzero;stroke:#000000;stroke-width:4.69999981;stroke-linecap:round;stroke-linejoin:round;stroke-miterlimit:4;stroke-opacity:1;stroke-dasharray:none;stroke-dashoffset:0"
       id="path4181"
       d="m 480.62901,-45.247354 c -1.2522,4.462597 -1.85291,9.06663 -2.24976,13.673327 -0.58196,3.624639 0.63704,5.699757 4.01332,6.801881 3.05088,0.883519 5.59161,0.07645 8.45068,-0.961619 4.64152,-2.640573 -2.90473,1.731411 -4.4033,2.512442 -0.55029,0.286801 1.0238,-0.702069 1.52138,-1.072855 1.50328,-1.120212 2.88091,-2.386041 4.26225,-3.64954 2.71043,-2.241981 4.75902,-5.019524 6.54425,-8.020602 9.68662,-9.097687 8.75086,-3.720505 6.81165,1.257614 -1.38122,3.315608 -1.00466,5.94527 0.73307,8.942125 1.97345,2.391375 4.91733,3.423205 7.86903,3.982407 3.40801,-0.335174 13.11008,-6.317646 1.2361,0.328304 3.06022,-2.495289 5.69616,-5.496339 7.66467,-8.917646 1.19051,-2.037694 1.57878,-4.327959 1.71798,-6.645877 0.0526,-1.117314 0.0429,-2.235868 0.035,-3.3539 0,0 7.58348,-3.868267 7.58348,-3.868267 l 0,0 c 0.002,1.13296 0.004,2.265966 -0.0147,3.398832 -0.11338,2.415791 -0.39682,4.856602 -1.58648,7.012531 -1.92747,3.545427 -4.54166,6.585181 -7.5233,9.305617 -4.7059,2.787967 -10.17734,7.327432 -16.08651,7.5905 -3.13768,-0.718094 -6.18696,-1.995291 -8.2363,-4.590397 -1.85693,-3.174658 -2.45185,-6.043035 -1.08506,-9.607003 2.16517,-5.96054 0.73535,-4.647824 8.97084,-9.009599 0.23196,-0.122852 -0.21486,0.478981 -0.32229,0.718472 -1.74264,3.078395 -3.75791,5.972948 -6.4803,8.270343 -4.72449,4.389887 -9.78159,8.201464 -15.90391,10.632098 -2.96551,1.000627 -5.72989,1.508487 -8.7997,0.496487 -3.52466,-1.401281 -5.14563,-3.893254 -4.51596,-7.786434 0.36705,-4.634401 0.96676,-9.264568 2.13811,-13.771774 0,0 7.65583,-3.667467 7.65583,-3.667467 z" />
    <path
       style="fill:#000000;fill-opacity:1;fill-rule:nonzero;stroke:#000000;stroke-width:4.69999981;stroke-linecap:round;stroke-linejoin:round;stroke-miterlimit:4;stroke-opacity:1;stroke-dasharray:none;stroke-dashoffset:0"
       id="path4183"
       d="m 482.00384,-78.277458 c 5.97204,1.802307 12.0638,3.12322 18.11327,4.643306 7.57614,1.996853 15.38406,2.701603 23.07608,4.112324 6.10452,1.199333 12.29625,1.780227 18.4993,2.133496 -0.0859,0.05325 4.23273,0.08748 4.15135,0.132417 -7.34871,4.057763 -7.72934,6.018402 -6.72183,2.725144 -0.0357,-2.75382 0.55666,-5.310449 1.29703,-7.951029 0,0 7.65529,-3.637371 7.65529,-3.637371 l 0,0 c -0.75715,2.631995 -1.4889,5.113986 -1.28739,7.88025 -0.77587,5.825147 -7.59524,6.267858 -11.95745,5.770593 -6.1937,-0.434991 -12.37676,-1.051159 -18.47245,-2.273592 -7.7057,-1.410677 -15.53543,-2.098863 -23.11576,-4.146492 -6.09233,-1.476131 -12.18161,-2.916448 -18.2253,-4.569095 0,0 6.98786,-4.819951 6.98786,-4.819951 z" />
    <path
       style="fill:#000000;fill-opacity:1;fill-rule:nonzero;stroke:#000000;stroke-width:4.69999981;stroke-linecap:round;stroke-linejoin:round;stroke-miterlimit:4;stroke-opacity:1;stroke-dasharray:none;stroke-dashoffset:0"
       id="path4185"
       d="m 556.07185,-88.829632 c 3.24166,3.130311 6.81133,5.871176 9.93628,9.134189 2.31151,2.533144 4.57947,5.104636 6.92647,7.605207 1.83519,1.508662 1.54609,3.003989 0.30707,4.810586 -4.03967,4.040247 -9.50102,5.667537 -14.43946,8.003819 -2.90346,1.758383 -5.65902,2.17775 -8.93505,1.544308 0,0 6.93983,-4.865929 6.93983,-4.865929 l 0,0 c 3.17954,0.461422 5.85174,-0.405103 8.65026,-1.942292 12.11999,-4.795512 -9.14857,5.831415 -0.0342,0.612857 1.31137,-1.473285 1.92551,-2.332794 0.25212,-3.752272 -2.31258,-2.523552 -4.57802,-5.087795 -6.88326,-7.617751 -3.10756,-3.273352 -6.69396,-5.993607 -9.95606,-9.098511 0,0 7.23598,-4.434211 7.23598,-4.434211 z" />
    <path
       style="fill:#000000;fill-opacity:1;fill-rule:nonzero;stroke:#000000;stroke-width:4.69999981;stroke-linecap:round;stroke-linejoin:round;stroke-miterlimit:4;stroke-opacity:1;stroke-dasharray:none;stroke-dashoffset:0"
       id="path4187"
       d="m 374.29316,512.05294 c -3.55968,5.79493 -8.46237,10.5587 -12.87639,15.67876 -6.05251,7.32687 -12.18447,14.57775 -18.32652,21.83078 -6.72323,7.85421 -13.80494,15.38842 -20.98403,22.82439 -5.08051,4.99874 -10.25886,9.88043 -15.20883,15.01556 -3.46559,3.65341 -6.98562,7.25452 -10.52769,10.83363 -3.28662,3.53278 -6.22292,7.34086 -9.17856,11.14782 -1.04403,1.34312 -2.09271,2.68259 -3.14253,4.02118 0,0 -7.86876,3.35962 -7.86876,3.35962 l 0,0 c 1.09472,-1.33839 2.17013,-2.69242 3.24096,-4.04998 2.99332,-3.81499 5.91815,-7.66455 9.17868,-11.25493 3.53916,-3.58321 7.06615,-7.1785 10.53877,-10.82644 4.97122,-5.16314 10.15103,-10.08645 15.30467,-15.05748 7.19797,-7.42071 14.31033,-14.93036 21.03541,-22.7864 6.13187,-7.23971 12.24545,-14.47804 18.26649,-21.80866 4.32642,-5.12344 9.33121,-9.76719 12.76857,-15.57526 0,0 7.77976,-3.35259 7.77976,-3.35259 z" />
    <path
       style="fill:#000000;fill-opacity:1;fill-rule:nonzero;stroke:#000000;stroke-width:4.69999981;stroke-linecap:round;stroke-linejoin:round;stroke-miterlimit:4;stroke-opacity:1;stroke-dasharray:none;stroke-dashoffset:0"
       id="path4189"
       d="m 269.48832,583.5766 c 0.27841,5.66786 -0.22729,11.19037 -1.28007,16.74834 -1.35364,5.05892 -3.23567,9.92604 -5.06867,14.8206 -0.176,2.08879 -4.58185,6.42782 -2.9622,8.46917 2.26103,1.21904 4.8327,0.0178 6.84529,-1.15485 4.36717,-2.10996 8.73645,-4.23864 13.1602,-6.23861 5.25404,-2.17081 10.5147,-4.21185 16.07798,-5.4406 4.02536,-0.69728 16.33731,-7.45311 1.50705,0.62185 0.15331,-0.55667 -0.0938,-0.96901 -0.34796,-1.44197 0,0 7.40723,-4.24518 7.40723,-4.24518 l 0,0 c 0.36894,0.69052 0.68774,1.35921 0.70945,2.16495 -5.43102,3.63062 -9.67075,6.60352 -15.98057,8.00674 -5.50799,1.31317 -10.74667,3.35403 -15.95329,5.561 -4.41886,2.05091 -8.83248,4.12546 -13.185,6.31019 -2.41859,1.10518 -5.30712,2.12352 -7.58876,0.17882 -1.90021,-2.94561 1.84821,-6.42393 2.6681,-9.23349 1.79228,-4.87724 3.7362,-9.68133 5.1355,-14.69806 1.07272,-5.50466 1.74354,-10.95326 1.30765,-16.58296 0,0 7.54807,-3.84594 7.54807,-3.84594 z" />
    <path
       style="fill:#000000;fill-opacity:1;fill-rule:nonzero;stroke:#000000;stroke-width:4.69999981;stroke-linecap:round;stroke-linejoin:round;stroke-miterlimit:4;stroke-opacity:1;stroke-dasharray:none;stroke-dashoffset:0"
       id="path4191"
       d="m 251.75182,643.40965 c -2.64866,6.04188 -5.86603,11.83884 -9.37528,17.4208 -3.09677,5.32498 -6.90422,10.25319 -11.14994,14.71145 -2.15582,1.75127 -1.08282,0.97491 -3.19635,2.36003 0,0 -7.89351,3.05991 -7.89351,3.05991 l 0,0 c 2.1763,-1.28405 1.06824,-0.56556 3.30634,-2.18269 4.32671,-4.36649 8.18117,-9.27542 11.28682,-14.58248 3.52547,-5.50394 6.78237,-11.25182 9.29408,-17.2907 0,0 7.72784,-3.49632 7.72784,-3.49632 z" />
    <path
       style="fill:#000000;fill-opacity:1;fill-rule:nonzero;stroke:#000000;stroke-width:4.69999981;stroke-linecap:round;stroke-linejoin:round;stroke-miterlimit:4;stroke-opacity:1;stroke-dasharray:none;stroke-dashoffset:0"
       id="path4193"
       d="m 233.48136,647.85748 c 4.6359,2.63977 7.74971,6.59543 10.91506,10.73514 3.00015,4.36805 5.07657,9.26327 6.45134,14.36179 0.62459,2.5667 1.11449,5.1647 1.46983,7.78185 0,0 -7.54968,3.9607 -7.54968,3.9607 l 0,0 c -0.26897,-2.60184 -0.71765,-5.18265 -1.31195,-7.73008 -1.32118,-5.00306 -3.36601,-9.78773 -6.29838,-14.07113 -3.07992,-4.0596 -6.14485,-7.9214 -10.76197,-10.3761 0,0 7.08575,-4.66217 7.08575,-4.66217 z" />
    <path
       style="fill:#000000;fill-opacity:1;fill-rule:nonzero;stroke:#000000;stroke-width:4.69999981;stroke-linecap:round;stroke-linejoin:round;stroke-miterlimit:4;stroke-opacity:1;stroke-dasharray:none;stroke-dashoffset:0"
       id="path4195"
       d="m 373.43241,521.72254 c 4.45683,1.23234 9.0612,1.79288 13.65972,2.15405 6.07299,0.34517 12.16006,0.31222 18.24064,0.33178 7.25695,0.005 14.5139,-0.003 21.77085,-0.0131 6.81645,-0.0113 13.56858,-1.30825 20.32697,-2.12642 4.79977,-0.42554 9.41664,-1.93942 14.12958,-2.89859 3.63901,-0.54031 6.99897,-2.11473 10.60014,-2.88011 3.60069,-0.60927 7.25614,-0.66857 10.89794,-0.71416 3.17774,-0.0418 6.35567,-0.005 9.53351,-6.5e-4 2.41394,0.01 4.82793,0.006 7.24184,-0.009 -9.47448,5.62983 -6.3955,4.61668 -6.31823,-0.51768 0,0 7.57963,-3.85337 7.57963,-3.85337 l 0,0 c -0.0193,6.0068 -0.47208,5.46203 -8.17062,9.38952 -2.39531,-0.021 -4.79071,-0.0326 -7.18611,-0.0328 -3.17315,-0.0104 -6.34648,-0.0121 -9.51958,0.009 -3.61204,0.0674 -7.24431,0.14299 -10.79872,0.86078 -3.56185,0.87036 -6.95709,2.34914 -10.60216,2.85794 -4.70036,0.97015 -9.31822,2.44622 -14.12287,2.80585 -6.76874,0.7985 -13.52699,2.09901 -20.35884,2.02684 -7.25798,2.4e-4 -14.51593,0.014 -21.77391,0.0124 -6.11091,-0.005 -12.23037,0.0211 -18.33225,-0.34906 -4.64232,-0.40267 -9.27246,-1.04226 -13.78539,-2.23382 0,0 6.98786,-4.81995 6.98786,-4.81995 z" />
    <path
       style="fill:#000000;fill-opacity:1;fill-rule:nonzero;stroke:#000000;stroke-width:4.69999981;stroke-linecap:round;stroke-linejoin:round;stroke-miterlimit:4;stroke-opacity:1;stroke-dasharray:none;stroke-dashoffset:0"
       id="path4197"
       d="m 517.4661,486.26679 c -2.08611,3.69631 -2.73627,7.91713 -0.86394,11.79894 2.5815,3.35702 6.56538,5.45834 10.44438,6.9901 3.56539,1.71673 7.85295,0.91243 11.40902,2.38918 3.33507,2.05371 -1.13215,5.53379 -2.77399,7.19378 -5.3781,4.53078 -11.00642,8.79724 -16.59794,13.07187 -6.01535,4.29401 -12.48188,7.87661 -18.82934,11.64266 -9.86031,5.0573 -5.86306,4.352 -11.09966,5.0076 0,0 6.77407,-5.08424 6.77407,-5.08424 l 0,0 c 3.69808,-0.70229 2.13416,-0.62601 -3.52808,3.10123 6.37767,-3.76745 12.86311,-7.35962 18.95437,-11.58722 5.56896,-4.22236 11.08628,-8.54507 16.51882,-12.92988 3.39515,-3.18283 -0.1724,0.29411 2.76733,-2.96067 0.83716,-0.92689 2.6622,-1.85652 0.76731,-2.70592 -3.67296,-1.16088 -7.791,-0.77787 -11.36907,-2.44937 -4.04786,-1.68861 -8.1515,-3.90786 -10.80064,-7.50048 -1.94869,-4.04227 -1.65221,-8.54102 0.49953,-12.48126 0,0 7.72783,-3.49632 7.72783,-3.49632 z" />
    <path
       style="fill:#000000;fill-opacity:1;fill-rule:nonzero;stroke:#000000;stroke-width:4.69999981;stroke-linecap:round;stroke-linejoin:round;stroke-miterlimit:4;stroke-opacity:1;stroke-dasharray:none;stroke-dashoffset:0"
       id="path4199"
       d="m 420.32325,357.69536 c -1.34519,2.69551 -3.53823,6.37182 -0.16551,8.22651 4.52902,0.98736 9.42642,-0.4048 14.008,-0.92129 4.6261,-1.36575 9.28587,-2.5293 14.06656,-3.19323 9.3647,-1.94671 -0.0978,4.17996 -5.49227,5.85365 -0.56048,0.26034 -1.13564,0.49117 -1.68145,0.78102 -1.06034,0.56309 -13.61946,7.16132 -6.87673,3.85949 4.27943,-2.09558 6.70527,-4.01207 1.72746,-0.44271 -4.60035,3.83828 -9.7723,7.70511 -12.36022,13.25653 -0.76416,6.40906 7.70702,6.42688 12.19727,6.99238 10.61945,0.31899 21.00482,-1.03127 31.1465,-4.11196 5.46281,-2.18052 4.27956,-1.54823 9.40033,-4.20956 1.09984,-0.5716 -2.97964,2.83553 -3.33356,1.64763 -0.39271,-1.31807 2.04417,-1.8468 2.97166,-2.86232 0.79705,-0.87272 1.45973,-1.85927 2.18959,-2.7889 0,0 7.68244,-3.30057 7.68244,-3.30057 l 0,0 c -6.63921,8.84689 -15.37888,12.75318 -25.44286,16.55497 -10.22997,2.98625 -20.73593,4.30297 -31.41091,3.87609 -5.31044,-0.70937 -13.52654,-1.13363 -13.07261,-8.27801 2.36292,-5.78696 7.62051,-9.73058 12.2488,-13.69406 6.61886,-4.88349 13.91004,-8.92524 21.30647,-12.50677 4.26003,-1.7738 -2.16329,0.83255 -5.21913,3.30426 -0.29197,0.23616 0.78012,0.33093 0.89068,0.6898 0.0164,0.0533 -3.34503,0.36894 -3.63091,0.44146 -4.76281,0.73023 -9.38054,1.99968 -14.05169,3.1505 -4.69735,0.55528 -9.81465,2.07608 -14.39665,0.49637 -3.5275,-2.4499 -2.192,-5.97784 -0.4291,-9.32496 0,0 7.72784,-3.49632 7.72784,-3.49632 z" />
    <path
       style="fill:#000000;fill-opacity:1;fill-rule:nonzero;stroke:#000000;stroke-width:4.69999981;stroke-linecap:round;stroke-linejoin:round;stroke-miterlimit:4;stroke-opacity:1;stroke-dasharray:none;stroke-dashoffset:0"
       id="path4201"
       d="m 356.22596,378.29062 c 0.75019,-4.89043 1.28942,-9.85065 3.0877,-14.48495 2.13808,-4.44133 8.11885,-9.30215 13.08108,-7.82083 2.14598,1.21179 4.46616,1.96187 6.67961,3.04403 3.63765,2.01143 6.50661,4.97184 9.16714,8.11091 2.61244,2.86641 4.60156,6.1306 6.21624,9.63709 0.26953,0.5004 2.46143,4.45261 2.71785,3.05647 0,0 -6.68805,5.33216 -6.68805,5.33216 l 0,0 c -1.76603,-0.54003 -2.42514,-2.85636 -3.4374,-4.21233 -1.51173,-3.47113 -3.46149,-6.66451 -6.04256,-9.45908 -2.60921,-3.04179 -5.41265,-5.92342 -9.00983,-7.79465 -2.16302,-1.02912 -4.41719,-1.81322 -6.58102,-2.83852 -0.6609,-0.0301 -2.5123,0.65289 -1.96466,0.28171 11.92841,-8.08475 4.91016,-3.70447 3.54001,-0.88106 -1.93919,4.50695 -2.43559,9.36755 -3.21803,14.18311 0,0 -7.54808,3.84594 -7.54808,3.84594 z" />
    <path
       style="fill:#000000;fill-opacity:1;fill-rule:nonzero;stroke:#000000;stroke-width:4.69999981;stroke-linecap:round;stroke-linejoin:round;stroke-miterlimit:4;stroke-opacity:1;stroke-dasharray:none;stroke-dashoffset:0"
       id="path4203"
       d="m 452.64671,537.42452 c 1.36213,3.59342 3.95245,6.56497 7.24675,8.49333 2.79033,0.16158 9.91456,-3.5553 -4.45834,3.20299 -0.67551,0.31763 0.90676,-1.1867 1.33151,-1.80053 4.70386,-5.70208 9.03845,-7.96219 15.1876,-4.57176 3.30727,2.72461 5.69128,6.3416 8.08869,9.8472 2.12145,3.86871 3.91382,7.86288 5.22578,12.07489 0.9993,3.77395 1.24705,7.68457 1.36468,11.57002 0.27986,3.65957 -1.58578,6.80502 -3.5825,9.71347 -5.63734,6.64937 -14.09172,10.4088 -22.7345,10.65419 -5.42441,-0.31717 -10.69801,-1.6906 -15.96846,-2.90587 0,0 6.7774,-4.69432 6.7774,-4.69432 l 0,0 c 5.24528,1.1967 10.50364,2.53157 15.91565,2.66753 1.3077,-0.0825 2.62625,-0.0602 3.92311,-0.24739 1.12817,-0.16287 3.85595,-1.80759 3.32495,-0.79896 -0.85321,1.62066 -3.09426,1.97122 -4.53645,3.10021 -2.67228,2.09192 8.44872,-5.02132 5.54004,-4.41707 2.02763,-2.64715 3.96283,-5.75505 3.80497,-9.20535 -0.0994,-3.81755 -0.28049,-7.66325 -1.23887,-11.37911 -1.24827,-4.14616 -3.03754,-8.04784 -5.09337,-11.85534 -2.32436,-3.38536 -4.62039,-6.92875 -7.8884,-9.48403 -1.24959,-0.61025 -1.71811,-0.96512 -3.0679,-1.17935 -0.4693,-0.0745 -1.79105,0.23772 -1.4241,-0.0642 10.42281,-8.57544 6.55695,-3.9673 4.15734,-2.25345 -2.24154,3.95598 -7.16185,8.08239 -11.77476,6.62903 -3.39672,-2.15685 -6.05447,-5.3199 -7.58785,-9.05812 0,0 7.46703,-4.03802 7.46703,-4.03802 z" />
    <path
       style="fill:#000000;fill-opacity:1;fill-rule:nonzero;stroke:#000000;stroke-width:4.69999981;stroke-linecap:round;stroke-linejoin:round;stroke-miterlimit:4;stroke-opacity:1;stroke-dasharray:none;stroke-dashoffset:0"
       id="path4205"
       d="m 825.85616,487.40452 c 6.82302,0.9592 13.6717,1.72638 20.54747,2.17382 4.22251,0.90587 8.3167,2.1604 12.61101,2.6926 3.89253,0.43458 7.81546,0.44837 11.72725,0.47329 4.26691,-0.0838 8.42066,-1.42947 12.63617,-2.13911 4.13508,-0.58587 8.31963,-0.66651 12.48879,-0.742 3.32314,0.38595 6.27162,-0.89715 9.37804,-1.8366 3.08845,-0.80386 6.27924,-0.90857 9.45107,-0.99489 3.72957,-0.0613 7.4598,-0.0464 11.18971,-0.0387 4.3431,0.0153 8.68622,0.0135 13.02934,0.0173 5.12242,-1.02316 10.25252,-1.88159 15.45552,-2.36422 4.99607,-0.41489 10.00874,-0.47477 15.01861,-0.50229 4.56922,-0.0224 9.13849,0.002 13.70773,0.002 4.37044,0.008 8.74089,0.005 13.11133,0.007 4.6839,0.007 9.3679,6.9e-4 14.0518,0.002 5.1918,0.003 10.3837,0.005 15.5755,0.006 5.1122,0.002 10.2245,-0.005 15.3367,-0.004 4.3955,9.2e-4 8.7909,-0.005 13.1864,-0.005 4.3848,0.006 8.7696,9e-4 13.1544,0.003 4.0351,0.002 8.0703,-0.006 12.1054,-0.003 3.7248,-0.002 7.4497,-0.003 11.1745,5.7e-4 3.6207,-0.43034 6.826,0.3625 10.2385,1.39214 3.0752,1.02377 6.3323,1.21854 9.5449,1.38565 3.3741,0.98031 6.7322,1.96523 10.2115,2.48876 2.9374,0.40942 5.9091,0.43505 8.8692,0.46016 3.244,0.0117 6.4881,6.5e-4 9.7321,-0.0103 2.9184,0.13633 5.5176,0.1474 8.2142,-0.94624 2.4414,-1.16968 5.1306,-1.55321 7.801,-1.76735 3.6118,0.17058 6.9686,-1.18555 10.4416,-1.96636 3.5114,-0.68904 7.0809,-0.90106 10.6487,-1.02034 3.1687,-0.29532 5.3537,0.17791 6.5704,3.27062 0.8885,3.32848 0.7761,6.83364 0.7852,10.2528 -0.01,3.82751 -0.034,7.65498 -0.052,11.48247 -0.01,4.22415 -0.022,8.44837 -0.016,12.67254 0,3.45799 0,6.91599 0.01,10.37397 -8e-4,2.61443 0,5.22885 0.01,7.84325 -0.4002,5.24768 -8.5388,6.8781 -13.108,5.91378 -3.1815,-1.16475 -6.4939,-1.80193 -9.8433,-2.22695 -3.792,-0.34237 -7.6059,-0.32532 -11.4101,-0.34093 -3.4649,-0.003 -6.9298,0.0145 -10.3947,0.0186 -3.5662,0.002 -7.1325,0.004 -10.6987,0.003 -4.7528,-0.005 -9.5057,-0.008 -14.2586,-0.01 -5.6444,0.14926 -11.3239,-0.37577 -16.9289,0.37997 -5.4194,1.02487 -10.8827,1.75201 -16.3797,2.18712 -4.8097,0.4994 -9.6996,-0.15099 -14.4592,0.70803 -4.543,1.06865 -9.1532,1.78343 -13.8025,2.15854 -4.2032,0.27351 -8.4161,0.29842 -12.6264,0.30944 -3.8254,0.17796 -7.7254,-0.43512 -11.4822,0.38939 -3.7466,1.08491 -7.5567,1.78749 -11.4358,2.16265 -3.9667,0.3023 -7.9463,0.2891 -11.9215,0.3043 -4.2275,-0.003 -8.45496,-0.009 -12.68243,-0.016 -4.31247,-0.002 -8.62496,-0.009 -12.93743,-0.005 -4.32055,0.0224 -8.48735,1.46622 -12.74727,2.12405 -4.04243,0.62586 -8.14376,0.67633 -12.22535,0.73407 -4.08674,0.0371 -8.17363,0.0137 -12.26045,0.011 -4.54722,-0.007 -9.09445,-0.018 -13.64168,-0.0138 -4.60226,-0.003 -9.20451,-8.8e-4 -13.80677,3.1e-4 -4.30436,3.1e-4 -8.60872,-0.003 -12.91308,0.003 -3.62511,-0.47652 -6.80138,0.47729 -10.23553,1.38505 -3.44481,0.99307 -7.0412,1.21444 -10.60247,1.40012 -3.44219,0.1089 -6.88694,0.0998 -10.33047,0.0934 -2.69421,-0.004 -5.38841,-0.01 -8.08261,-0.01 -2.64173,-0.003 -5.28346,-0.007 -7.92519,-0.004 -2.8424,-3.8e-4 -5.68481,-0.003 -8.52722,-3.5e-4 -3.13175,-10e-4 -6.2635,-0.002 -9.39526,-0.004 -3.07065,9.1e-4 -6.14131,0.005 -9.21196,0.002 -3.02658,0.005 -6.05316,-0.003 -9.07974,-0.001 -3.13319,5.4e-4 -6.26638,-10e-4 -9.39957,0.002 -2.87357,0.15905 -5.3692,0.1348 -7.57681,-1.88572 -0.98499,-1.9468 -1.7607,-3.98934 -2.57689,-6.00986 0,0 7.40367,-4.13736 7.40367,-4.13736 l 0,0 c 0.76441,1.89622 1.51327,3.80169 2.40715,5.64212 2.11874,1.70905 4.63993,1.43642 7.23207,1.38553 3.13114,0.004 6.26229,0.002 9.39344,0.002 3.02757,0.002 6.05514,-0.006 9.08271,-10e-4 3.06856,-0.002 6.13713,10e-4 9.2057,0.002 3.13545,-0.002 6.27091,-0.003 9.40637,-0.004 2.84282,0.003 5.68565,-2.1e-4 8.52848,-4.9e-4 2.6439,0.002 5.28781,-9.7e-4 7.93172,10e-4 2.68868,0.007 5.37736,0.0144 8.06604,0.0217 3.43447,9.4e-4 6.87099,0.0207 10.30294,-0.13234 3.53384,-0.20521 7.08172,-0.5168 10.48953,-1.53765 3.44714,-0.95344 6.75656,-1.55439 10.36643,-1.20271 4.30181,0.006 8.60364,0.002 12.90545,0.003 4.60123,10e-4 9.20246,0.003 13.80369,0.002 4.55034,0.007 9.10068,-8e-4 13.65102,0.008 4.08373,0.011 8.16774,0.0194 12.2513,-0.0231 4.05883,-0.0741 8.13339,-0.15995 12.14731,-0.82916 4.26577,-0.7266 8.47252,-2.11708 12.83187,-2.01659 4.31182,0.006 8.62366,-5.5e-4 12.93549,0.007 4.2283,0.003 8.4566,0.0187 12.6849,0.009 3.9601,-0.013 7.9267,-0.0257 11.8745,-0.37619 3.8619,-0.43662 7.6373,-1.23449 11.3971,-2.21313 3.8265,-0.555 7.7121,-0.14762 11.5696,-0.26826 4.1937,-0.0183 8.3911,-0.0445 12.5754,-0.35914 4.6364,-0.42853 9.2191,-1.20625 13.7673,-2.20383 4.7997,-0.62667 9.6709,-0.17162 14.4918,-0.65634 5.4844,-0.46782 10.9257,-1.24207 16.3458,-2.20073 5.6424,-0.58817 11.3281,-0.18776 16.9945,-0.30337 4.7619,-0.002 9.5239,-0.005 14.2858,-0.0103 3.5685,-0.002 7.1369,-10e-4 10.7053,-0.01 3.4608,-0.008 6.9217,-0.0134 10.3825,-0.003 3.8312,0.0177 7.6759,0.009 11.4895,0.41901 3.35,0.47428 6.6313,1.21809 9.8557,2.25112 0.5354,0.0636 1.0671,0.18381 1.6062,0.1908 0.5282,0.007 1.9674,-0.50604 1.5776,-0.14954 -1.6804,1.53691 -3.7899,2.52782 -5.6359,3.86126 -0.2874,0.20754 0.8233,-0.0796 0.9878,-0.39356 0.1024,-0.19561 0,-0.4416 0,-0.66239 0.013,-2.61779 0.011,-5.2356 0.01,-7.85341 0.01,-3.46164 0.01,-6.92331 0.011,-10.38496 0.01,-4.2247 0,-8.44941 0.013,-12.6741 0.01,-3.82567 0.038,-7.65122 0.053,-11.47687 -0.012,-3.32241 0.1102,-6.71858 -0.6636,-9.97036 -1.0098,-2.77329 -3.3594,-2.54883 -5.9934,-2.38395 -3.535,0.13419 -7.0731,0.39121 -10.5388,1.14393 -3.4798,0.84319 -6.8962,1.98623 -10.5243,1.8856 -2.6441,0.29336 -5.2392,0.81201 -7.6661,1.95113 -2.7303,0.96727 -5.5304,0.69188 -8.3945,0.69761 -3.2459,0.003 -6.4919,0.0182 -9.7378,10e-4 -2.9852,-0.0364 -5.982,-0.0997 -8.9369,-0.56761 -3.4464,-0.58873 -6.7601,-1.65038 -10.1653,-2.41562 -3.2595,-0.20746 -6.5461,-0.48217 -9.6569,-1.55213 -3.342,-1.01235 -6.5654,-1.51246 -10.0842,-1.19558 -3.7254,0.003 -7.4507,0.002 -11.1761,5.7e-4 -4.0323,0.003 -8.0645,-0.006 -12.0968,-0.003 -4.3872,0.002 -8.7744,-0.003 -13.1617,0.003 -4.3907,-4.9e-4 -8.7813,-0.006 -13.172,-0.005 -5.1087,10e-4 -10.2173,-0.006 -15.3259,-0.004 -5.197,0.001 -10.3941,0.003 -15.5911,0.006 -4.68517,10e-4 -9.37037,-0.005 -14.05558,7.7e-4 -4.37013,8.4e-4 -8.74025,-0.005 -13.11038,-0.009 -4.56472,-0.0121 -9.12949,-0.0146 -13.69422,-0.004 -4.99229,0.0402 -9.98859,0.11614 -14.96491,0.55732 -5.21841,0.5282 -10.34241,1.53478 -15.52229,2.3111 -4.34698,-4.5e-4 -8.69394,-0.009 -13.04092,-0.0101 -3.72582,-0.005 -7.45243,-0.0255 -11.17747,0.0658 -3.13808,0.11883 -6.29445,0.27606 -9.32514,1.17908 -3.13572,0.9539 -6.16518,1.99478 -9.50799,1.64041 -4.1435,0.0769 -8.30284,0.18782 -12.40357,0.83837 -4.23186,0.73376 -8.4072,2.10903 -12.72719,2.02025 -3.93265,-0.0307 -7.87768,-0.0712 -11.78555,-0.5606 -4.26121,-0.5915 -8.32767,-1.90474 -12.55546,-2.66692 -6.89127,-0.4899 -13.74994,-1.31565 -20.59891,-2.21405 0,0 6.92764,-4.88456 6.92764,-4.88456 z" />
    <path
       style="fill:#000000;fill-opacity:1;fill-rule:nonzero;stroke:#000000;stroke-width:4.69999981;stroke-linecap:round;stroke-linejoin:round;stroke-miterlimit:4;stroke-opacity:1;stroke-dasharray:none;stroke-dashoffset:0"
       id="path4207"
       d="m 1191.5809,459.77534 c -5.8878,-1.43222 -11.4999,-3.55425 -17.1449,-5.7007 -3.6646,-0.97251 -5.8012,-3.90025 -7.6905,-6.98178 -1.4101,-2.93352 -2.0328,-6.0839 -1.6384,-9.30573 0.5603,-3.74723 2.4663,-6.79239 4.6104,-9.81304 2.425,-3.32611 5.6017,-5.73052 8.9618,-8.02762 6.1619,-3.27731 12.0764,-7.44244 18.9044,-9.26146 3.9996,-1.03317 7.3945,-0.38522 10.5471,2.25984 3.3184,2.63643 6.0534,5.75995 8.0455,9.49534 1.5342,3.57754 2.0035,7.26159 1.1562,11.03966 -0.9116,3.72282 -2.5777,7.35591 -5.0024,10.33051 -2.759,3.4002 -6.329,6.01467 -9.6513,8.83157 -3.9187,2.84025 -9.0678,9.87053 -13.8653,6.43407 -1.2256,-0.85617 -1.8579,-2.15806 -2.5456,-3.43206 0,0 7.389,-4.23599 7.389,-4.23599 l 0,0 c 0.6181,1.15589 1.1735,2.31099 2.3196,3.04479 2.9277,1.42498 5.9308,-2.41583 -4.7043,4.0178 -1.6013,0.9687 4.6179,-2.52202 3.5383,-2.64462 3.3059,-2.80633 6.8993,-5.38466 9.6943,-8.71369 2.5681,-2.72097 4.2069,-6.3631 5.1633,-9.95154 0.9199,-3.59766 0.6145,-7.04203 -0.865,-10.4994 -1.9182,-3.64783 -4.6337,-6.64849 -7.8692,-9.20208 -3.0764,-2.39696 -6.3627,-2.65777 -10.0832,-1.58938 -3.1244,0.95901 -17.2661,8.05328 -4.2637,0.98541 -3.4034,2.18188 -6.5567,4.53734 -9.0777,7.73222 -2.0646,2.97022 -4.1817,5.765 -4.7684,9.45516 -0.5637,3.0044 0.098,6.00871 1.3632,8.77739 1.8105,2.97431 3.8514,5.59345 7.3674,6.52777 5.6215,2.1883 11.26,4.2148 17.1321,5.66276 0,0 -7.0227,4.7648 -7.0227,4.7648 z" />
    <path
       style="fill:#000000;fill-opacity:1;fill-rule:nonzero;stroke:#000000;stroke-width:4.69999981;stroke-linecap:round;stroke-linejoin:round;stroke-miterlimit:4;stroke-opacity:1;stroke-dasharray:none;stroke-dashoffset:0"
       id="path4209"
       d="m 1208.2488,426.68982 c -4.7823,5.82124 -9.7433,11.49357 -14.8298,17.05023 -2.7268,1.26269 -3.8425,6.34747 -6.2422,7.74339 -2.6801,1.55899 -5.4528,2.95307 -8.1792,4.4296 0,0 6.7583,-5.21616 6.7583,-5.21616 l 0,0 c -2.1686,1.31008 -4.3497,2.59965 -6.5058,3.93024 -0.3134,0.19338 0.721,-0.25176 0.9759,-0.51754 2.0071,-2.09315 2.8148,-5.44973 5.4071,-7.10593 5.0933,-5.52128 10.0701,-11.15309 14.8126,-16.98004 0,0 7.8031,-3.33379 7.8031,-3.33379 z" />
    <path
       style="fill:#000000;fill-opacity:1;fill-rule:nonzero;stroke:#000000;stroke-width:4.69999981;stroke-linecap:round;stroke-linejoin:round;stroke-miterlimit:4;stroke-opacity:1;stroke-dasharray:none;stroke-dashoffset:0"
       id="path4211"
       d="m 1196.8007,418.42855 c -3.004,4.03416 -6.1158,7.95718 -9.4441,11.72832 0,0 -7.775,3.27298 -7.775,3.27298 l 0,0 c 3.3487,-3.72103 6.4512,-7.6013 9.4551,-11.6043 0,0 7.764,-3.397 7.764,-3.397 z" />
    <path
       style="fill:#000000;fill-opacity:1;fill-rule:nonzero;stroke:#000000;stroke-width:4.69999981;stroke-linecap:round;stroke-linejoin:round;stroke-miterlimit:4;stroke-opacity:1;stroke-dasharray:none;stroke-dashoffset:0"
       id="path4213"
       d="m 1137.4557,441.36327 c -9.1351,2.51595 -18.5773,3.5476 -27.9033,5.11251 -9.2294,2.13306 -18.5364,3.86068 -27.955,4.8762 -3.8161,0.36472 -7.514,3.01036 -11.3574,1.65647 -0.3144,-1.38628 -0.3835,-0.73932 0.1026,-1.94924 0,0 7.8117,-3.44999 7.8117,-3.44999 l 0,0 c -0.5896,0.59949 -0.2676,0.47316 -0.8653,0.57253 3.7802,0.78591 7.3129,-1.72014 11.0659,-1.853 9.3924,-1.04532 18.6636,-2.81388 27.8831,-4.88175 9.3409,-1.55906 18.8176,-2.58119 27.9194,-5.29027 0,0 -6.7017,5.20654 -6.7017,5.20654 z" />
    <path
       style="fill:#000000;fill-opacity:1;fill-rule:nonzero;stroke:#000000;stroke-width:4.69999981;stroke-linecap:round;stroke-linejoin:round;stroke-miterlimit:4;stroke-opacity:1;stroke-dasharray:none;stroke-dashoffset:0"
       id="path4215"
       d="m 1099.3715,426.4348 c -6.5648,5.58091 -13.9711,10.03882 -21.2919,14.53622 -8.9441,5.52446 5.35,-3.25117 -13.3503,7.75216 -1.5746,0.92651 3.0825,-2.03059 4.8078,-2.63163 0.785,-0.27348 -1.3467,0.99569 -1.8979,1.61791 -1.0668,1.20414 -1.1675,1.99392 -1.6261,3.43369 0.2186,3.65166 4.8447,5.0511 7.8065,6.04643 4.0337,1.03092 8.214,1.19618 12.3562,1.28223 2.0173,-0.51348 1.0698,-0.19682 2.8525,-0.91943 0,0 -6.7151,5.23816 -6.7151,5.23816 l 0,0 c -1.8892,0.58134 -0.8839,0.34742 -3.0254,0.65957 -4.1984,-0.12198 -8.4389,-0.34632 -12.5002,-1.50589 -3.4737,-1.2718 -8.0302,-2.96256 -8.4507,-7.15237 0.3572,-1.42972 0.5237,-2.6484 1.4572,-3.88312 3.0019,-3.97049 19.075,-11.38641 7.2156,-4.91008 -1.1127,0.60764 2.1582,-1.33088 3.2374,-1.99632 7.2859,-4.47918 14.7284,-8.83151 21.2494,-14.40723 0,0 7.875,-3.1603 7.875,-3.1603 z" />
    <path
       style="fill:#000000;fill-opacity:1;fill-rule:nonzero;stroke:#000000;stroke-width:4.69999981;stroke-linecap:round;stroke-linejoin:round;stroke-miterlimit:4;stroke-opacity:1;stroke-dasharray:none;stroke-dashoffset:0"
       id="path4217"
       d="m 981.85334,569.45733 c 3.1771,6.6791 5.19549,13.80476 6.62359,21.0388 0.87672,5.10527 1.01786,10.2942 1.07093,15.46181 0.29804,4.10665 -0.0915,7.96559 -1.2633,11.8919 -0.81358,2.71051 -1.20001,5.52529 -1.50728,8.33154 -9.83819,4.82664 -7.08494,3.23017 -5.03359,-2.65603 1.66524,-4.062 3.90194,-7.89073 6.35231,-11.52777 2.37538,-3.76407 4.86202,-7.56036 8.4076,-10.31579 2.87902,-1.67235 5.7752,-3.31556 8.6371,-5.01705 1.9102,-1.13572 -7.80857,4.2318 -5.78202,3.31961 7.54242,-3.39498 7.38852,-5.91213 13.67972,-3.89369 3.3161,1.7628 4.2287,4.82264 4.7812,8.29891 0.4027,3.25044 0.3289,6.53398 0.3167,9.80211 -7e-4,1.80052 -0.024,3.6009 -0.036,5.40133 0.9624,3.44314 -8.5644,7.58731 -6.8525,2.07068 0,0 7.7024,-3.62273 7.7024,-3.62273 l 0,0 c -1.1196,3.25057 -9.2112,10.59373 -8.464,5.42562 0.011,-1.80601 0.048,-3.61143 0.069,-5.41738 0.023,-3.22833 0.083,-6.46964 -0.254,-9.6851 -0.4562,-3.16336 -1.1386,-6.01767 -4.2857,-7.47599 -1.1551,-0.31796 -2.0032,-0.64901 -3.2271,-0.59492 -0.4909,0.0217 -1.8382,0.58856 -1.4444,0.29457 1.8656,-1.393 8.0276,-4.70971 5.95,-3.65872 -0.9971,0.50439 -18.24191,10.64913 -2.8862,1.62896 -3.7317,2.4597 -6.20374,6.32394 -8.54253,10.05231 -2.48467,3.55986 -4.67366,7.34942 -6.41796,11.32192 -2.42999,6.42624 -1.41474,6.98061 -10.32103,10.04115 0.32313,-2.85267 0.70073,-5.71827 1.46724,-8.48968 1.22322,-3.85925 1.75124,-7.59558 1.40092,-11.66834 -0.0422,-5.12485 -0.1346,-10.27101 -0.97158,-15.34007 -1.3579,-7.17072 -3.29819,-14.24996 -6.54,-20.82138 0,0 7.37038,-4.19658 7.37038,-4.19658 z" />
    <path
       style="fill:#000000;fill-opacity:1;fill-rule:nonzero;stroke:#000000;stroke-width:4.69999981;stroke-linecap:round;stroke-linejoin:round;stroke-miterlimit:4;stroke-opacity:1;stroke-dasharray:none;stroke-dashoffset:0"
       id="path4253"
       d="m 1252.6618,434.21833 c 0.1438,8.00363 0.3754,16.07306 -0.4616,24.04452 -0.9887,5.7969 -1.3807,11.69063 -3.1325,17.32207 -0.528,2.37674 -1.7295,4.64701 -2.0946,7.06322 -2.5184,0.62944 -4.9594,1.89708 -7.5553,1.88833 -0.8542,-0.003 3.5664,-9.98854 3.9237,-10.74034 1.8359,-4.47594 3.9266,-8.80498 6.391,-12.97166 2.845,-4.50086 6.438,-8.40858 9.8544,-12.4609 4.7486,-6.26631 10.5945,-9.2198 17.4243,-13.11595 4.2121,-1.76057 5.447,2.2278 6.1577,5.57226 1.0774,6.20152 -0.2068,12.36912 -1.039,18.51089 -1.0258,4.17348 -1.8732,8.5679 -4.641,11.97881 -14.5704,13.63113 -3.7975,-6.36163 -3.1886,-7.64004 3.3466,-6.22048 6.683,-12.4901 10.4465,-18.47247 3.7296,-7.17697 8.7775,-9.24528 15.9429,-12.92462 3.4935,2.23357 2.8936,7.78931 3.0354,11.42006 -0.069,6.94374 0.5084,13.94083 -0.2375,20.85607 -0.3759,3.65185 -1.62,6.81855 -4.404,9.22024 0,0 -7.9039,3.16222 -7.9039,3.16222 l 0,0 c 2.9664,-2.09823 4.3403,-4.99867 4.7295,-8.63396 0.9015,-6.85714 0.2067,-13.83865 0.2992,-20.73765 -0.1025,-2.6345 0.609,-8.82125 -2.3053,-10.12821 13.0364,-8.12873 5.2204,-3.72012 3.2054,-1.85089 -1.8925,1.75559 -3.3212,4.02511 -4.6291,6.21759 -3.8619,5.89275 -7.0684,12.22702 -10.4986,18.37512 -1.2314,2.64167 -2.7127,5.21105 -3.8305,7.90189 -0.247,0.59436 -0.1155,1.43924 -0.6307,1.82491 -2.5544,1.91196 -5.5241,3.19501 -8.2628,4.83198 -0.1125,0.0672 0.2501,-0.0783 0.3752,-0.11744 3.0689,-3.09341 3.7812,-7.49435 4.9205,-11.55003 0.8153,-6.05131 2.1679,-12.12354 1.1324,-18.23704 -0.6415,-3.20114 -1.5302,-6.19746 -5.3019,-4.24719 12.1894,-7.16462 4.3654,-2.87259 2.1942,-1.05912 -1.9637,1.64027 -3.2791,3.85013 -5.202,5.53151 -3.3362,4.08629 -7.0232,7.87065 -9.8887,12.33455 -2.5054,4.13108 -4.6618,8.41081 -6.4243,12.90753 -1.3804,2.74631 -2.6791,5.69504 -3.6027,8.63302 -0.1889,0.60111 0.07,1.44054 -0.4134,1.84458 -2.4315,2.03172 -5.319,3.44507 -7.9784,5.16761 1.0927,-1.66052 1.4804,-4.65143 2.3232,-6.74115 1.8718,-5.5704 2.2462,-11.42688 3.2609,-17.19471 0.9326,-7.89006 0.6515,-15.89988 0.5128,-23.83058 0,0 7.4972,-3.95503 7.4972,-3.95503 z"
       transform="translate(-88.064264,-91.179632)" />
  </g>
</svg>
