<?xml version="1.0" encoding="UTF-8" standalone="no"?>
<!-- Created with Inkscape (http://www.inkscape.org/) -->
<svg
   xmlns:dc="http://purl.org/dc/elements/1.1/"
   xmlns:cc="http://creativecommons.org/ns#"
   xmlns:rdf="http://www.w3.org/1999/02/22-rdf-syntax-ns#"
   xmlns:svg="http://www.w3.org/2000/svg"
   xmlns="http://www.w3.org/2000/svg"
   xmlns:sodipodi="http://sodipodi.sourceforge.net/DTD/sodipodi-0.dtd"
   xmlns:inkscape="http://www.inkscape.org/namespaces/inkscape"
   width="1754.3503"
   height="505.70078"
   id="svg2"
   sodipodi:version="0.32"
   inkscape:version="0.46+devel"
   version="1.0"
   sodipodi:docname="c26d2.svg"
   inkscape:output_extension="org.inkscape.output.svg.inkscape">
  <defs
     id="defs4">
    <inkscape:perspective
       sodipodi:type="inkscape:persp3d"
       inkscape:vp_x="0 : 526.18109 : 1"
       inkscape:vp_y="0 : 1000 : 0"
       inkscape:vp_z="744.09448 : 526.18109 : 1"
       inkscape:persp3d-origin="372.04724 : 350.78739 : 1"
       id="perspective10" />
  </defs>
  <sodipodi:namedview
     id="base"
     pagecolor="#ffffff"
     bordercolor="#666666"
     borderopacity="1.0"
     inkscape:pageopacity="0.0"
     inkscape:pageshadow="2"
     inkscape:zoom="0.35"
     inkscape:cx="629.50038"
     inkscape:cy="250.77998"
     inkscape:document-units="px"
     inkscape:current-layer="layer1"
     showgrid="false"
     inkscape:window-width="1280"
     inkscape:window-height="712"
     inkscape:window-x="-5"
     inkscape:window-y="-3" />
  <metadata
     id="metadata7">
    <rdf:RDF>
      <cc:Work
         rdf:about="">
        <dc:format>image/svg+xml</dc:format>
        <dc:type
           rdf:resource="http://purl.org/dc/dcmitype/StillImage" />
        <dc:title></dc:title>
      </cc:Work>
    </rdf:RDF>
  </metadata>
  <g
     inkscape:label="Layer 1"
     inkscape:groupmode="layer"
     id="layer1"
     transform="translate(828.78609,-277.44139)">
    <path
       style="fill:#000000;fill-opacity:1;fill-rule:nonzero;stroke:#000000;stroke-width:4.69999981;stroke-linecap:round;stroke-linejoin:round;stroke-miterlimit:4;stroke-opacity:1;stroke-dasharray:none;stroke-dashoffset:0"
       id="path2696"
       d="m -513.60639,513.09354 c 9.37318,0.32289 18.70011,1.54966 28.06578,2.1786 10.60351,0.52379 21.23389,0.9991 31.83831,0.37643 12.87545,-1.17014 25.78368,-1.77449 38.70361,-2.13928 15.13838,-0.23331 30.25626,1.13675 45.37779,1.79068 16.4855,0.63759 32.98518,0.70892 49.48058,0.78951 17.82448,0.0519 35.64906,0.0297 53.47358,0.0201 18.32054,-0.002 36.60622,-1.41839 54.91187,-2.09324 19.19616,-0.49398 38.34603,-2.0401 57.47172,-3.68462 20.23282,-1.21103 40.39668,-3.16137 60.5605,-5.18616 21.687887,-2.08725 43.475247,-2.69421 65.220881,-3.9296 23.8192862,-1.40811 47.678266,-1.80643 71.532581,-2.04014 24.734242,-0.18725 49.469447,-0.16457 74.204228,-0.16841 23.13317,-0.11038 46.2462,-0.16418 69.35965,0.83777 20.34517,1.16341 40.6763,1.70266 61.0401,0.96929 18.88893,-0.74297 37.70811,-2.70338 56.51066,-4.58679 18.36314,-2.047 36.59659,-5.01439 54.85828,-7.78336 15.98144,-2.67407 31.89827,-5.69769 47.83463,-8.62207 13.23846,-2.47997 26.44358,-5.19399 39.73554,-7.37565 9.06646,-1.26024 18.006,-3.21314 27.09923,-4.30238 6.02199,-0.66329 12.08334,-0.73002 18.13422,-0.79621 5.13685,-0.52213 7.13736,-0.99006 11.48718,2.19029 3.09733,3.47446 4.16744,8.35745 5.32218,12.77228 1.19105,7.55354 2.47792,15.09689 3.35828,22.6969 0.9614,10.08518 1.07149,20.22669 1.18033,30.3495 -0.29081,9.14224 0.22555,18.19241 1.32085,27.25989 0.87755,7.42278 1.32009,14.88421 1.50496,22.35332 0.13031,6.63691 0.13526,13.27538 0.13893,19.9133 -9.2e-4,5.81346 -0.006,11.62691 -0.009,17.44037 -0.39241,5.63087 0.69821,11.13162 1.66313,16.64453 0.39971,4.62998 1.26147,9.08813 2.37342,13.58863 0.70267,3.30461 1.43177,6.52491 2.77695,9.6322 3.72462,8.26477 -10.84484,12.17576 -18.32474,12.46742 -3.84864,0.0476 -7.69832,-0.0614 -11.54703,-0.10544 -7.21115,-0.0789 -14.42285,-0.0869 -21.63435,-0.1061 -9.95385,0.0819 -19.91129,-0.30031 -29.84808,0.34409 -13.32726,1.25731 -26.69715,1.81155 -40.0746,2.13409 -16.47668,0.3555 -32.91083,1.72448 -49.37959,2.39757 -18.37728,0.82961 -36.77101,1.79711 -55.11841,3.17289 -19.87468,1.46919 -39.76422,2.54295 -59.58776,4.63386 -20.93047,2.00813 -41.89347,3.73687 -62.86495,5.27429 -21.66413,1.45472 -43.38309,1.67096 -65.08715,1.83844 -22.739288,0.11328 -45.478991,0.0789 -68.218469,0.0659 -22.441667,-0.0217 -44.8833372,-0.0103 -67.325009,-0.0135 -21.686447,-0.003 -43.372903,-0.005 -65.059349,0.006 -20.897513,-0.44869 -41.751223,0.35664 -62.618233,1.33134 -21.04721,1.15024 -42.10831,2.35551 -63.13417,3.88316 -22.29804,1.25801 -44.51965,3.35 -66.72996,5.64137 -21.54615,1.78134 -43.12603,3.19315 -64.70287,4.57745 -20.04501,1.21148 -40.12627,1.50433 -60.20175,1.68655 -16.71214,0.20782 -33.39517,0.33294 -50.07703,-0.73816 -12.80851,-0.98985 -25.64079,-1.53624 -38.48237,-1.81668 -9.3386,-0.18406 -18.63293,-0.51588 -27.89969,0.75734 -5.21525,0.81089 -10.45248,1.4427 -15.71005,1.89603 -3.37867,0.48482 -3.82685,-3.36925 -4.04285,-5.87779 0.7362,-5.01956 1.80016,-9.96257 2.32269,-15.02227 0.55748,-6.95458 0.5846,-13.93654 0.64135,-20.90879 0.38698,-7.52013 -0.25283,-14.93323 -1.24815,-22.37322 -0.98481,-6.96119 -2.62023,-13.79685 -3.55851,-20.77322 -0.52833,-5.89394 -2.04127,-11.63597 -2.98817,-17.46911 -0.22542,-4.64979 -1.37967,-9.11187 -2.4893,-13.60661 -0.68691,-3.30291 -0.9434,-6.60955 -1.89635,-9.84899 -1.22072,-3.42388 -1.66622,-7.03553 -1.99076,-10.63472 -0.21932,-3.06315 -0.21681,-6.13474 -0.23074,-9.20372 -0.0104,-3.16531 -1.31694,-6.16794 -1.96174,-9.2562 -0.50201,-3.94441 -1.98563,-7.6599 -2.84095,-11.53208 -0.74185,-3.31759 -0.82399,-6.71854 -0.8706,-10.10167 -0.71508,-3.74935 -1.67802,-7.4379 -2.29949,-11.20859 -1.39311,-8.3808 9.95717,-12.97738 17.50502,-13.47434 3.26526,-0.57642 6.07228,0.946 9.09237,1.86594 2.00105,0.19008 3.54303,1.59709 5.50863,1.46381 -4.67574,2.47764 -9.35148,4.95528 -14.02722,7.43292 0,0 15.78523,-6.45829 15.78523,-6.45829 l 0,0 c -5.22351,2.97979 -10.44702,5.95958 -15.67053,8.93937 -1.93153,-0.43195 -3.72776,-1.40037 -5.68017,-1.8029 -2.84545,-0.97015 -5.55917,-1.95398 -8.6084,-1.15715 -6.2,2.13529 0.22162,10e-4 12.7171,-7.69119 0.26747,-0.16466 -0.65092,0.005 -0.93054,0.14831 -0.99059,0.50685 -0.85129,1.96433 -0.65861,2.77861 0.56732,3.86139 1.50249,7.63245 2.39122,11.42873 0.0525,3.27667 0.0907,6.57482 0.72665,9.80251 0.79972,3.89445 2.30442,7.60786 2.85493,11.54481 0.62789,3.20995 1.99089,6.29456 2.14399,9.54409 -0.0128,3.03056 -0.0131,6.06363 0.15017,9.09074 0.2503,3.49258 0.6278,7.00227 1.80928,10.32286 1.01181,3.27714 1.40211,6.55126 1.93349,9.93906 1.06379,4.55047 2.35701,9.04429 2.51812,13.74684 0.88019,5.86841 2.40446,11.62956 2.94276,17.54142 0.88261,6.99019 2.53496,13.81851 3.53839,20.77879 0.9949,7.51578 1.78883,14.98564 1.33894,22.58692 -0.0149,7.00644 -0.0332,14.0196 -0.52125,21.01268 -0.40608,4.9669 -1.16534,9.8719 -2.34271,14.71838 0.13117,2.2372 -0.11792,4.13037 2.61617,3.59718 5.19966,-0.43461 10.3702,-1.12358 15.53581,-1.85407 9.27612,-1.07966 18.59007,-0.60649 27.91101,-0.45447 12.82195,0.32078 25.63117,0.93687 38.41905,1.94445 16.61197,1.04795 33.23513,0.87881 49.87489,0.73697 20.03752,-0.17423 40.08154,-0.48405 60.08721,-1.71455 21.55569,-1.38324 43.11841,-2.75727 64.63792,-4.60768 22.22107,-2.28721 44.46205,-4.28358 66.76476,-5.60436 21.05015,-1.49434 42.12472,-2.78547 63.19769,-3.87926 20.87558,-0.97612 41.741379,-1.65473 62.645433,-1.25681 21.678394,0.0115 43.356797,0.009 65.035193,0.0117 22.4317051,0.004 44.863396,0.0292 67.295101,0.036 22.74183,0.0117 45.483953,0.0449 68.225513,-0.0887 21.699,-0.19101 43.41225,-0.45198 65.0683,-1.95634 20.97006,-1.54952 41.93447,-3.26507 62.8591,-5.33142 19.84344,-2.03803 39.74993,-3.11801 59.63806,-4.61021 18.38808,-1.34054 36.8116,-2.38967 55.22919,-3.18919 16.49376,-0.70696 32.95444,-2.08183 49.46012,-2.42452 13.40349,-0.37962 26.79161,-1.04181 40.14857,-2.25538 9.99148,-0.52837 19.99672,-0.27954 29.99968,-0.33126 7.25544,-0.007 14.51091,-0.007 21.76628,0.0297 3.83197,0.034 7.67415,0.16927 11.5007,-0.0786 6.63807,-1.00924 9.04147,-5.36017 -10.6771,7.47381 -0.23747,0.15456 2.90711,-0.56975 0.47498,-1.46934 -1.35617,-3.21087 -2.25711,-6.46908 -2.85514,-9.9046 -1.1154,-4.54541 -2.11591,-9.01653 -2.4109,-13.70904 -0.9253,-5.60796 -2.18231,-11.18706 -1.77346,-16.90949 0.004,-5.81587 0.01,-11.63173 0.0226,-17.44759 0.0114,-6.63098 0.0347,-13.26265 -0.0837,-19.8929 -0.18831,-7.42476 -0.517,-14.8505 -1.40046,-22.23039 -1.07059,-9.14046 -1.687,-18.24435 -1.33028,-27.45983 -0.0936,-10.0628 -0.17737,-20.14377 -1.14651,-30.16889 -0.86514,-7.51744 -2.21335,-14.95435 -3.36919,-22.42679 -1.02281,-3.99571 -1.9655,-8.58582 -4.77334,-11.70466 -3.52718,-2.35264 -6.77891,-1.54606 -10.84696,-1.3522 -5.99184,0.0488 -11.99213,0.19538 -17.94918,0.89727 -9.02067,1.14349 -17.91593,3.02329 -26.92284,4.2591 -13.23607,2.23614 -26.41914,4.8013 -39.60507,7.31188 -15.91289,2.92431 -31.81509,5.90305 -47.78283,8.51973 -18.25823,2.78439 -36.50333,5.67341 -54.86839,7.68748 -18.81426,1.90643 -37.65548,3.80161 -56.56045,4.48891 -20.36331,0.66378 -40.69354,0.0248 -61.03443,-1.12932 -23.07576,-0.98512 -46.15303,-0.90712 -69.24753,-0.83306 -24.726427,-0.012 -49.453331,-0.0309 -74.179144,0.17183 -23.8566703,0.27506 -47.71774,0.70619 -71.53836,2.13772 -21.753467,1.25382 -43.549227,1.89854 -65.242056,4.03346 -20.18002,2.0545 -40.36891,3.92835 -60.61611,5.19755 -19.15232,1.65952 -38.33431,3.14399 -57.55702,3.64861 -18.32734,0.70157 -36.6371,2.11212 -54.98319,2.06961 -17.82568,0.003 -35.65138,0.0113 -53.47703,-0.0265 -16.52951,-0.0526 -33.06334,-0.14392 -49.58221,-0.7971 -15.11478,-0.67309 -30.23305,-2.02801 -45.36899,-1.64724 -12.93354,0.39377 -25.84686,1.10848 -38.74041,2.21444 -10.66719,0.4996 -21.35338,0.0992 -32.01171,-0.5031 -9.3854,-0.67771 -18.75201,-1.94619 -28.16511,-1.96242 0,0 13.71682,-9.96585 13.71682,-9.96585 z" />
    <path
       style="fill:#000000;fill-opacity:1;fill-rule:nonzero;stroke:#000000;stroke-width:4.69999981;stroke-linecap:round;stroke-linejoin:round;stroke-miterlimit:4;stroke-opacity:1;stroke-dasharray:none;stroke-dashoffset:0"
       id="path2698"
       d="m -337.89141,759.76212 c -6.71543,-0.54791 -13.02992,-2.25556 -19.17875,-4.92104 -5.31687,-2.84328 -6.79521,-7.87265 -6.9711,-13.53851 0.37307,-7.82904 2.90694,-15.31224 6.20813,-22.35047 3.9727,-8.01045 9.11311,-15.35594 15.19266,-21.89406 8.83661,-8.52917 20.08517,-14.47913 31.60625,-18.61717 5.61515,-1.89394 11.27666,-2.40825 17.09776,-1.50948 4.66031,0.48899 8.05544,3.45576 10.42428,7.31632 2.40699,5.38537 2.31316,11.4454 2.45207,17.23481 -0.3825,7.85559 -1.84722,15.58703 -3.85944,23.17324 -2.47062,7.78923 -6.94578,14.66493 -12.1683,20.86778 -5.85125,6.73924 -12.61621,12.55089 -20.16055,17.29356 -11.50772,7.22462 -22.93582,13.89901 -35.84284,17.97507 0,0 13.28665,-10.30424 13.28665,-10.30424 l 0,0 c 3.33108,-1.10656 5.05748,-1.59843 8.34502,-3.05175 4.87071,-2.15319 20.27842,-11.06486 -1.42514,1.41808 7.65712,-4.43266 14.38208,-10.19808 20.29971,-16.77754 5.27804,-5.97014 9.82419,-12.61347 12.48402,-20.19047 2.10173,-7.42196 3.45393,-15.0119 4.03315,-22.70956 -0.14292,-5.48499 0.015,-11.24501 -2.12698,-16.39483 -2.20388,-3.55046 -5.33824,-5.7375 -9.58258,-6.07785 -5.65909,-0.66278 -11.20703,0.21504 -16.56715,2.15414 -6.14684,2.38648 -14.82017,8.13721 5.91591,-4.66353 0.94802,-0.58523 -1.98065,1.02839 -2.91495,1.63527 -2.6161,1.6993 -3.43931,2.63499 -5.76455,4.76113 -6.25339,6.2547 -11.37382,13.5477 -15.41965,21.41344 -3.38828,6.76979 -5.90042,14.00582 -6.45685,21.60914 -0.0774,5.06892 1.13045,9.47356 5.99992,11.84347 6.06206,2.58741 12.36666,4.00044 18.94858,4.53593 0,0 -13.85528,9.76912 -13.85528,9.76912 z" />
    <path
       style="fill:#000000;fill-opacity:1;fill-rule:nonzero;stroke:#000000;stroke-width:4.69999981;stroke-linecap:round;stroke-linejoin:round;stroke-miterlimit:4;stroke-opacity:1;stroke-dasharray:none;stroke-dashoffset:0"
       id="path2700"
       d="m 293.67855,746.35454 c -10.81996,1.16468 -21.7418,0.19604 -32.5224,-0.94121 -9.98425,-1.34416 -19.73704,-3.72244 -28.792,-8.18779 -7.23041,-4.82554 -8.79085,-9.82032 -8.20428,-18.12789 1.33439,-8.04145 5.98001,-14.90826 10.97055,-21.15704 9.54381,-11.92743 22.14143,-17.69235 35.45776,-24.90213 6.85215,-3.30326 14.0322,-4.14712 21.48628,-3.07378 7.15572,1.56588 13.28739,4.56089 18.41347,9.7848 4.43958,5.35136 5.1474,11.8486 4.73991,18.53254 -1.10554,6.99673 -4.87741,13.23441 -9.13121,18.77402 -5.79357,6.11068 -11.38497,12.41746 -17.48073,18.23342 -6.8076,5.94762 -14.97223,9.66221 -22.82618,14.17372 0,0 13.16769,-10.61356 13.16769,-10.61356 l 0,0 c -23.62285,13.84548 -10.47606,6.66285 -5.90103,2.83106 6.14778,-5.72539 11.64312,-12.03918 17.54445,-18.01167 4.35149,-5.12952 8.02573,-11.2247 9.52715,-17.83062 0.52679,-6.2143 0.14705,-12.26537 -4.04718,-17.26598 -4.93581,-4.89502 -10.92544,-7.61126 -17.76926,-8.85392 -7.3402,-0.67346 -14.24657,0.44563 -20.9133,3.74787 22.22378,-13.81939 7.4568,-5.1444 3.21945,-1.79859 -3.66577,2.8945 -6.85957,6.29963 -10.04057,9.70166 -5.02044,5.87774 -9.59466,12.55092 -11.32101,20.19463 -0.75098,7.68243 0.21929,12.0316 7.16656,16.38914 8.93182,4.27888 18.50511,6.57168 28.31563,7.804 10.78004,1.08846 21.73012,1.96646 32.51275,0.43899 0,0 -13.5725,10.15833 -13.5725,10.15833 z" />
    <path
       style="fill:#000000;fill-opacity:1;fill-rule:nonzero;stroke:#000000;stroke-width:4.69999981;stroke-linecap:round;stroke-linejoin:round;stroke-miterlimit:4;stroke-opacity:1;stroke-dasharray:none;stroke-dashoffset:0"
       id="path2702"
       d="m 223.8751,508.10424 c 0.13291,-9.05411 -1.23733,-18.05482 -1.96778,-27.06898 -1.3934,-9.93462 -2.46585,-19.90148 -3.87492,-29.83348 -1.20315,-9.95803 -2.89924,-19.85535 -5.29845,-29.59379 -0.96478,-4.99172 -2.33231,-9.83337 -4.56257,-14.40636 -2.87839,-14.42976 13.4664,-10.45624 20.67541,-9.19777 4.06995,1.82201 8.48514,2.39313 12.71597,3.63851 5.79385,1.84763 11.87229,2.29049 17.90397,2.64691 7.79673,0.32576 15.60287,0.29441 23.4048,0.30944 8.91139,0.4654 17.70425,-0.43017 26.54169,-1.38976 8.33858,-0.94199 16.7275,-1.24826 25.11113,-1.42794 7.37397,0.31756 14.60012,-0.46987 21.88027,-1.49689 5.80473,-1.1711 11.84624,-0.58799 17.61038,-1.84374 4.36648,-1.15058 8.80395,-1.84517 13.29209,-2.26492 3.05718,-0.21913 6.12239,-0.25817 9.18604,-0.28347 2.21851,-0.25945 2.32505,2.15884 2.78835,3.80861 1.47803,4.50718 1.8992,9.24388 2.22954,13.94668 0.31527,5.71472 0.31763,11.44044 0.33084,17.162 0.01,5.61603 -0.022,11.23207 -8.9e-4,16.84807 0.0154,4.12053 -0.30978,8.19583 0.7282,12.20827 1.14383,3.22386 1.60998,6.60912 1.93705,9.99625 0.22503,3.29099 0.21668,6.592 0.2476,9.88895 0.25108,1.99658 -0.3759,3.59769 -1.47706,5.21645 -3.77574,5.30056 -10.53083,8.25681 -16.84965,9.62159 0,0 13.53054,-10.41485 13.53054,-10.41485 l 0,0 c 6.94977,-2.50767 -17.24309,12.24432 -12.3824,7.5349 1.16139,-1.32636 2.25185,-2.35032 1.99712,-4.2209 0.0241,-3.25622 0.0213,-6.5157 -0.16269,-9.76781 -0.25679,-3.30193 -0.65958,-6.60552 -1.78027,-9.74352 -1.1498,-4.165 -0.98565,-8.32242 -0.88733,-12.62798 0.0324,-5.61871 0.0202,-11.2376 0.028,-16.85639 -0.008,-5.68661 -0.003,-11.37691 -0.28962,-17.0579 -0.29817,-4.55879 -0.64451,-9.17266 -2.13297,-13.52737 -0.74828,-2.09318 0.12208,-2.08293 -1.6565,-1.97496 -3.01252,0.01 -6.0276,0.0797 -9.02834,0.36588 -4.44947,0.47416 -8.8168,1.37427 -13.1829,2.34312 -5.83179,0.80392 -11.77107,0.70473 -17.58472,1.74573 -7.30192,0.99581 -14.58422,1.51685 -21.9629,1.31665 -8.3475,0.19967 -16.69641,0.56297 -24.99638,1.5229 -8.8697,0.97153 -17.71777,1.60785 -26.65233,1.24322 -7.84766,0.004 -15.70111,0.04 -23.54169,-0.34338 -6.1255,-0.43036 -12.26604,-1.01992 -18.14991,-2.89166 -4.26208,-1.07035 -8.52366,-2.04973 -12.68052,-3.49625 -3.16461,-0.63551 -0.53252,-0.0821 -3.41989,-0.75165 -0.45955,-0.10655 -1.75549,-0.0166 -1.38203,-0.30483 4.19392,-3.23677 8.81047,-5.88542 13.21571,-8.82813 -0.44763,0.45869 -0.28845,0.16248 -0.33282,0.95233 2.17197,4.73563 3.64309,9.67327 4.54188,14.81047 2.35649,9.81194 4.03875,19.77199 5.28076,29.78694 1.43293,9.95394 2.53685,19.9403 3.99387,29.89158 0.68597,9.04107 1.98169,18.04528 2.17323,27.11186 0,0 -15.10694,7.69737 -15.10694,7.69737 z" />
    <path
       style="fill:#000000;fill-opacity:1;fill-rule:nonzero;stroke:#000000;stroke-width:4.69999981;stroke-linecap:round;stroke-linejoin:round;stroke-miterlimit:4;stroke-opacity:1;stroke-dasharray:none;stroke-dashoffset:0"
       id="path2704"
       d="m -34.693879,596.75433 c 7.065499,-6.73094 14.254559,-13.42603 22.009436,-19.36056 11.0783039,-7.08704 22.2033673,-16.82565 35.759797,-17.55758 5.799888,-0.10615 10.496511,2.25688 14.281667,6.49773 4.106264,5.36388 2.932711,10.94263 1.110272,16.93605 -2.747213,7.44698 -7.873651,13.52613 -13.06521,19.38484 -3.110229,3.80033 -7.093897,6.72095 -10.58159,10.13591 -0.05995,-0.0279 -0.119892,-0.0558 -0.179838,-0.0837 0.199799,-0.85128 0.02094,-1.89811 0.599398,-2.55384 0.378417,-0.42897 10.955412,-3.52459 12.044905,-3.88724 8.805722,-2.58436 17.965419,-3.44554 26.9664,-5.10301 7.509038,-1.77224 15.066043,-1.16758 22.644837,-0.41894 4.799933,0.12755 8.984595,2.08946 12.959829,4.59341 2.156619,1.83911 2.968125,4.31938 3.42673,7.01463 0.07624,0.48495 0.116165,0.9739 0.148538,1.46324 0,0 -15.255964,7.76642 -15.255964,7.76642 l 0,0 c 0.01819,-0.42156 0.0628,-0.8423 5.66e-4,-1.26484 -0.241608,-2.24297 -0.733672,-4.31691 -2.618655,-5.76443 -3.819274,-2.36591 -7.890701,-3.86095 -12.440008,-4.00363 -7.470083,-0.74068 -14.897837,-1.02019 -22.27837,0.73158 -8.982537,1.6053 -18.140371,2.4674 -26.853122,5.31252 -1.434004,0.47102 -11.0918313,4.15731 -12.0270889,4.15804 -2.9912454,0.002 -2.84034805,-0.0195 -2.88603114,-1.35125 C 2.2291549,615.5774 6.8439196,613.13677 9.8924941,609.17801 15.053325,603.493 20.224749,597.6387 23.203574,590.45865 c 1.814563,-5.34527 3.425239,-10.44814 -0.336006,-15.3361 -3.591491,-3.83618 -8.0574,-5.60159 -13.3669589,-5.22717 -3.267033,0.44946 -3.014632,0.24494 -6.2367039,1.41754 -1.1404207,0.41502 -4.3660766,2.07636 -3.36464618,1.39083 21.76248698,-14.89742 7.93559868,-4.08966 2.98386878,-1.49234 -7.8461509,5.65071 -14.8893228,12.43203 -21.9144708,19.05528 0,0 -15.662536,6.48764 -15.662536,6.48764 z" />
    <path
       style="fill:#000000;fill-opacity:1;fill-rule:nonzero;stroke:#000000;stroke-width:4.69999981;stroke-linecap:round;stroke-linejoin:round;stroke-miterlimit:4;stroke-opacity:1;stroke-dasharray:none;stroke-dashoffset:0"
       id="path2706"
       d="m 133.55331,576.51378 c 1.00264,7.93053 2.88497,15.71782 4.22239,23.60025 1.77383,13.04107 3.66488,7.20216 -13.94754,15.4178 1.14573,-4.98762 1.99367,-10.02855 3.16166,-15.01542 1.58659,-5.48129 3.69594,-10.91591 7.37601,-15.33159 11.06656,-8.81139 16.51926,-15.37154 23.09476,-4.87436 2.46303,5.08296 4.36385,10.4429 5.69745,15.931 2.44144,11.9303 3.63236,6.754 -13.62635,14.53531 -0.0339,-3.8062 1.85488,-7.13494 3.29925,-10.53234 1.62659,-3.60591 3.59365,-6.93688 6.86227,-9.24175 9.03238,-5.87225 17.53122,-14.01934 24.09524,-3.85325 2.6595,5.45033 4.21192,11.31296 6.36015,16.96112 1.11909,3.2387 0.59613,1.68145 1.57531,4.6696 0,0 -14.87316,8.16497 -14.87316,8.16497 l 0,0 c -0.91505,-2.96279 -0.4209,-1.42311 -1.49161,-4.61611 -2.06197,-5.54582 -3.62076,-11.26739 -6.20513,-16.61077 -5.76738,-8.45186 -17.19164,3.5339 6.41868,-10.853 -3.5657,1.848 -5.58077,4.68092 -7.33723,8.25962 -1.2555,3.28858 -3.43394,6.38458 -3.45335,9.99571 -18.58029,10.74326 -14.06627,12.97671 -16.50951,1.14908 -1.23999,-5.32001 -3.0861,-10.49485 -5.47162,-15.40755 -0.29758,-0.45621 -1.46816,-2.395 -2.06905,-2.87439 -1.17589,-0.93811 -2.35743,-0.28667 -2.28946,-0.32986 9.80487,-6.23016 18.37928,-10.25976 11.56487,-7.00904 -4.09664,3.84832 -6.02366,9.32013 -7.79433,14.54895 -1.15262,4.87822 -1.81154,9.8322 -3.15008,14.6517 -18.79453,11.26808 -14.32946,13.04213 -16.19765,0.16571 -1.21874,-7.91011 -3.05913,-15.69248 -4.30649,-23.59133 0,0 14.99452,-7.91006 14.99452,-7.91006 z" />
    <path
       style="fill:#000000;fill-opacity:1;fill-rule:nonzero;stroke:#000000;stroke-width:4.69999981;stroke-linecap:round;stroke-linejoin:round;stroke-miterlimit:4;stroke-opacity:1;stroke-dasharray:none;stroke-dashoffset:0"
       id="path2710"
       d="m 253.26776,442.33441 c -0.52559,6.81516 0.65749,13.5015 1.64423,20.20771 0.64469,3.99923 1.03112,8.03254 1.18787,12.07882 0.0147,0.48634 0.0264,0.97278 0.044,1.45902 0.10159,2.79587 0.007,-0.55414 -0.51444,-0.32515 -12.94342,5.68196 -16.74604,12.86873 -13.51229,7.07629 1.31742,-3.21503 2.75826,-6.38232 4.36208,-9.46616 2.23442,-3.9047 4.74145,-7.64138 7.12785,-11.4557 2.33972,-3.17229 4.35154,-6.5433 6.42142,-9.89085 5.54076,-9.97737 9.25658,-9.88474 21.49457,-16.94479 3.60294,-0.44389 5.84982,2.28166 7.81517,4.86005 2.24868,3.27077 3.11985,7.01438 3.62982,10.88298 0.34838,3.5693 0.35411,7.15743 0.37071,10.7397 -0.009,3.05543 -0.019,6.11081 -0.0397,9.1662 1.74055,6.99105 -18.12119,16.58186 -14.50496,6.09062 1.01917,-3.58639 2.5419,-6.92271 4.36934,-10.1655 1.80411,-3.93354 3.99973,-7.622 6.49097,-11.15774 2.73781,-3.20501 5.30885,-6.59998 8.5886,-9.27614 9.40033,-6.241 15.79279,-13.91071 23.45365,-5.55083 2.36515,3.04021 3.66679,6.57133 5.21602,10.0435 1.84029,3.79184 2.53947,7.94314 3.9023,11.8999 1.32648,3.52739 1.90248,7.21322 2.29757,10.93892 0.11904,1.152 0.19598,2.30746 0.26578,3.46322 0,0 -15.27446,7.75636 -15.27446,7.75636 l 0,0 c 0.0733,-1.11506 -0.0298,-2.23453 -0.0894,-3.34829 -0.29269,-3.61232 -0.79715,-7.18534 -2.0616,-10.60615 -1.34507,-3.91123 -2.07565,-7.98846 -3.83528,-11.7545 -1.50907,-3.28259 -2.64375,-6.6909 -4.95344,-9.55102 -1.37291,-1.42429 -2.78105,-2.75061 -4.94038,-2.31697 -0.45229,0.0908 -1.69653,0.7077 -1.30258,0.46765 4.33053,-2.63885 8.75621,-5.11827 13.13432,-7.67741 -3.64248,2.19761 -5.92357,5.78088 -8.83023,8.8041 -2.67504,3.32903 -4.85737,7.03796 -6.5468,10.96333 -1.8841,3.14102 -3.62223,6.31392 -4.41784,9.90983 -2.66207,5.82644 -17.52188,17.74876 -16.11765,8.78548 -0.008,-3.05269 0.0125,-6.10516 0.0277,-9.15779 0.0228,-3.52296 0.0303,-7.05199 -0.25093,-10.56633 -0.40377,-3.57856 -1.0811,-7.06554 -3.19768,-10.07519 -1.70136,-2.14506 -3.54157,-4.29302 -6.5328,-2.98654 24.16921,-14.58393 10.81856,-8.08907 7.41003,-0.47135 -2.22342,3.25437 -3.92735,6.84635 -6.45969,9.89662 -2.45225,3.72994 -4.72386,7.56749 -7.17935,11.29581 -1.54471,3.08529 -3.22211,6.14897 -4.31617,9.39679 -2.9718,7.2778 -17.55258,16.72255 -16.67692,6.62413 -0.11985,-4.00378 -0.40823,-8.00063 -1.00857,-11.96427 -0.95529,-6.77396 -2.17381,-13.52447 -1.79781,-20.40099 0,0 15.10694,-7.69737 15.10694,-7.69737 z" />
    <path
       style="fill:#000000;fill-opacity:1;fill-rule:nonzero;stroke:#000000;stroke-width:4.69999981;stroke-linecap:round;stroke-linejoin:round;stroke-miterlimit:4;stroke-opacity:1;stroke-dasharray:none;stroke-dashoffset:0"
       id="path2712"
       d="m 523.03802,586.47212 c 9.3209,-2.22781 18.75738,-4.032 28.23063,-5.49023 12.96908,-1.48291 25.80561,-3.85753 38.75956,-5.44904 15.66547,-2.15565 31.2549,-4.79769 46.88125,-7.20957 16.38609,-2.7843 32.84628,-5.19727 49.34578,-7.21322 13.78797,-1.90212 27.54034,-4.05459 41.33605,-5.8988 10.31132,-1.12309 20.50346,-3.05656 30.81921,-4.17316 5.9254,-0.59277 11.88066,-0.75781 17.83127,-0.84201 1.63867,-0.0127 3.27793,-0.0444 4.91642,-0.007 5.75573,0.76635 -13.04671,7.1649 -14.37994,7.88309 0,0 15.19542,-7.76098 15.19542,-7.76098 l 0,0 c -4.88626,3.32142 -8.80533,9.45122 -14.69576,9.90963 -1.5865,-0.026 -3.17319,-0.0411 -4.75993,-0.0277 -5.87733,0.0617 -11.75727,0.26616 -17.6062,0.87977 -10.25125,1.13986 -20.39781,3.00096 -30.65303,4.10095 -13.76168,1.87127 -27.49384,3.94773 -41.25648,5.81512 -16.47625,2.03647 -32.91569,4.43632 -49.27998,7.23034 -15.64754,2.45745 -31.26922,5.07944 -46.96601,7.21375 -12.97443,1.68648 -25.85358,4.01458 -38.84607,5.57914 -9.49335,1.54869 -19.01393,3.25988 -28.27563,5.87323 0,0 13.40344,-10.41308 13.40344,-10.41308 z" />
    <path
       style="fill:#000000;fill-opacity:1;fill-rule:nonzero;stroke:#000000;stroke-width:4.69999981;stroke-linecap:round;stroke-linejoin:round;stroke-miterlimit:4;stroke-opacity:1;stroke-dasharray:none;stroke-dashoffset:0"
       id="path2714"
       d="m 750.92676,545.01489 c -3.91914,-1.32353 -7.88793,-2.54093 -11.56111,-4.4726 -5.8001,-5.39987 10.45568,-11.80521 16.51049,-8.85391 1.03426,0.50413 1.96509,1.1989 2.97343,1.75305 4.13132,1.60321 8.09833,3.55673 12.24945,5.12459 6.11955,2.47572 12.04234,5.38094 18.05281,8.10052 4.49344,1.71916 8.84682,3.79132 13.40352,5.34724 1.75756,0.69403 3.76791,0.50435 4.74777,2.15748 0.0382,0.33867 0.38108,1.54997 -0.18393,1.90473 -13.89804,8.72605 -25.72391,14.77275 -1.64578,1.28995 0.9421,-0.52754 -0.36676,0.30428 -2.71039,1.80753 -34.45339,19.89443 -11.16235,6.37981 -3.673,2.27293 0.66176,-0.36288 -1.25809,0.83401 -1.88664,1.25177 -2.27182,1.50994 -4.47614,3.10896 -6.72613,4.65134 -8.05618,5.44234 -16.74918,9.92492 -25.13728,14.79219 -3.97186,2.30472 7.97277,-4.5596 11.98975,-6.78476 0.80547,-0.44618 -1.56883,0.96449 -2.35324,1.44674 -3.38174,2.41008 -6.80306,4.76392 -10.08613,7.30834 -0.90185,0.69202 -1.76884,1.42799 -2.65982,2.1334 -0.0206,0.0108 -0.0413,0.0217 -0.0619,0.0325 -5.33978,2.04231 -10.67955,4.08462 -16.01932,6.12692 0,0 14.77976,-8.44764 14.77976,-8.44764 l 0,0 c -4.87245,2.93967 -9.7449,5.87934 -14.61736,8.819 0.0172,-0.0242 0.0343,-0.0484 0.0515,-0.0726 0.86019,-0.81078 1.80804,-1.52315 2.72297,-2.27016 3.3058,-2.60442 6.78458,-4.94868 10.10105,-7.53255 9.23469,-5.48581 34.27386,-19.93531 7.63231,-4.50283 -7.90984,4.58188 16.21408,-9.05392 7.90311,-4.88743 2.29273,-1.47409 4.39814,-3.15781 6.67146,-4.65601 9.19613,-6.0606 33.44076,-19.52555 5.53719,-3.49016 9.18185,-6.30895 34.1542,-20.5815 4.45141,-2.61587 -0.30959,0.18726 1.39716,-0.92108 1.08383,-0.0592 -0.2881,-0.0249 -3.05321,-0.63253 -3.99434,-1.16293 -4.52715,-1.6823 -8.93355,-3.68655 -13.39476,-5.52939 -5.96405,-2.75716 -11.89777,-5.57956 -18.01118,-7.99898 -4.20706,-1.62904 -8.3315,-3.45544 -12.46119,-5.2662 -0.53053,-0.29347 -2.20491,-1.24051 -2.8334,-1.51525 -0.48514,-0.21208 -1.90704,-0.2271 -1.48927,-0.55237 4.26744,-3.32242 9.05843,-5.91125 13.58765,-8.86687 -0.22051,-0.28771 -0.53848,-0.52216 -0.66152,-0.86313 -0.0571,-0.15821 0.29301,0.16527 0.43952,0.2479 3.59765,1.86982 7.46491,3.09548 11.32403,4.30314 0,0 -14.04532,9.52961 -14.04532,9.52961 z" />
    <path
       style="fill:#000000;fill-opacity:1;fill-rule:nonzero;stroke:#000000;stroke-width:4.69999981;stroke-linecap:round;stroke-linejoin:round;stroke-miterlimit:4;stroke-opacity:1;stroke-dasharray:none;stroke-dashoffset:0"
       id="path2716"
       d="m 559.26759,450.7995 c 0.83707,10.48794 2.63429,20.85569 3.81593,31.30472 0.99151,9.12124 1.34605,18.29485 1.54127,27.46263 0.0456,4.89627 0.12913,9.79308 0.12582,14.6897 0.0188,1.07688 0.01,0.60472 0.0264,1.41651 0,0 -15.24542,7.75057 -15.24542,7.75057 l 0,0 c 0.0317,-0.82715 0.0149,-0.34597 0.0466,-1.44367 0.0341,-4.91221 0.12676,-9.82438 0.0448,-14.73693 -0.11888,-9.14217 -0.38784,-18.2909 -1.33602,-27.39077 -1.15186,-10.40751 -2.8893,-20.73305 -4.01398,-31.1427 0,0 14.99452,-7.91006 14.99452,-7.91006 z" />
    <path
       style="fill:#000000;fill-opacity:1;fill-rule:nonzero;stroke:#000000;stroke-width:4.69999981;stroke-linecap:round;stroke-linejoin:round;stroke-miterlimit:4;stroke-opacity:1;stroke-dasharray:none;stroke-dashoffset:0"
       id="path2718"
       d="m 557.32373,449.32926 c 8.23862,-2.76641 16.61692,-5.04779 25.05176,-7.15743 8.00697,-2.02273 16.2399,-2.42619 24.29792,-4.14166 2.36139,-1.32351 8.32022,-0.49904 10.33954,-2.22129 0,0 -13.48968,10.52979 -13.48968,10.52979 l 0,0 c -3.46249,0.0376 -6.87141,1.61092 -10.30787,1.88959 -8.02228,1.56763 -16.23143,1.96352 -24.14635,4.12771 -8.46549,2.19472 -16.89084,4.4961 -25.14876,7.38637 0,0 13.40344,-10.41308 13.40344,-10.41308 z" />
    <path
       style="fill:#000000;fill-opacity:1;fill-rule:nonzero;stroke:#000000;stroke-width:4.69999981;stroke-linecap:round;stroke-linejoin:round;stroke-miterlimit:4;stroke-opacity:1;stroke-dasharray:none;stroke-dashoffset:0"
       id="path2720"
       d="m 574.46658,492.1864 c 8.82036,-3.12871 17.64497,-6.2562 26.53151,-9.19468 7.56106,-3.17459 15.58886,-4.8231 23.35805,-7.35665 2.61361,-0.88581 5.24338,-1.73105 7.82624,-2.70499 0.15728,-0.003 0.27029,-0.13457 0.39308,-0.19571 0,0 -13.45971,10.60959 -13.45971,10.60959 l 0,0 c -0.13608,0.0358 -0.29657,0.027 -0.42247,0.11098 -2.55831,0.85913 -5.11917,1.71071 -7.69009,2.53151 -7.74074,2.45597 -15.7171,4.13702 -23.23653,7.2842 -8.93915,2.99884 -17.83513,6.12733 -26.70352,9.32883 0,0 13.40344,-10.41308 13.40344,-10.41308 z" />
    <path
       style="fill:#000000;fill-opacity:1;fill-rule:nonzero;stroke:#000000;stroke-width:4.69999981;stroke-linecap:round;stroke-linejoin:round;stroke-miterlimit:4;stroke-opacity:1;stroke-dasharray:none;stroke-dashoffset:0"
       id="path2722"
       d="m -826.43609,568.27288 c 5.89626,-7.79509 11.81422,-15.57228 17.49135,-23.5294 6.35308,-9.65108 13.10115,-19.02703 19.61633,-28.56875 6.09553,-9.32772 12.14785,-18.69699 17.92837,-28.22453 3.98774,-6.12424 6.62531,-12.89804 9.52942,-19.55489 1.22623,-5.26959 15.18079,-26.5383 18.04136,-10.66176 0.0333,4.41847 0.8302,8.76588 1.97558,13.02367 1.96882,5.51246 2.45317,11.34713 3.58109,17.04096 1.1026,5.65413 2.33363,11.24794 3.86298,16.80296 0.85582,4.34739 1.78385,8.61887 3.08681,12.85718 1.28549,3.71592 1.11539,7.70253 1.93284,11.49367 0.61962,3.19474 2.10937,5.99968 3.88769,8.6806 0.58181,0.95894 1.56914,2.23211 2.01878,0.50914 -17.70036,12.55524 -15.18727,10.57359 -11.59709,1.83733 1.21903,-3.31473 2.76645,-6.51689 4.43041,-9.63235 1.47724,-3.15578 3.02537,-6.27092 4.76848,-9.29142 2.11207,-2.64779 2.92353,-5.77623 3.90548,-8.92516 1.12907,-3.53188 2.96681,-6.75772 4.28876,-10.21153 1.8041,-3.81929 3.02964,-7.85119 4.55449,-11.78001 1.2697,-3.68375 2.39839,-7.39551 3.72378,-11.06205 1.16832,-4.05306 2.79772,-7.92175 3.76313,-12.03423 0.3507,-3.83705 1.52615,-7.46361 2.56875,-11.14751 2.49386,-11.10556 -1.51895,-4.95787 17.24456,-14.013 3.47411,3.00756 4.68507,7.94147 5.76825,12.25087 1.39136,6.9435 2.82528,13.87655 4.60524,20.73269 1.27385,6.15895 3.02756,12.19528 4.47187,18.31459 0.52001,4.41925 1.91337,8.61798 3.03277,12.90489 0.54913,4.14249 1.38925,8.15183 2.40882,12.20278 1.04074,3.73315 1.36705,7.60076 1.59808,11.45287 0.74276,3.17256 1.87289,6.20127 2.39444,9.43101 0.79554,2.63987 1.78049,5.21858 2.79826,7.77954 0.15833,0.40066 0.32503,0.79786 0.49423,1.194 0,0 -14.95203,8.36273 -14.95203,8.36273 l 0,0 c -0.15809,-0.41651 -0.31469,-0.83358 -0.46764,-1.25202 -0.99311,-2.70222 -1.97986,-5.40733 -2.90516,-8.13363 -0.47976,-3.295 -1.59611,-6.38243 -2.47925,-9.58094 -0.16076,-3.75715 -0.43428,-7.53053 -1.40864,-11.17916 -1.01379,-4.05082 -2.00379,-8.02359 -2.42245,-12.18922 -1.06974,-4.32011 -2.57204,-8.51271 -3.00375,-12.96777 -1.35475,-6.13274 -3.1765,-12.14182 -4.38265,-18.30783 -1.76912,-6.85828 -3.26601,-13.77801 -4.65606,-20.72056 -0.92874,-3.72849 -1.91936,-8.42908 -5.07728,-10.88814 15.14971,-10.37259 14.29656,-13.14925 12.28462,-2.71634 -0.92809,3.70737 -2.48233,7.22458 -2.60943,11.09839 -0.92516,4.18884 -2.47388,8.10447 -3.67985,12.20073 -1.23536,3.72383 -2.6583,7.35401 -3.70656,11.14275 -1.60412,3.88622 -2.62053,7.95836 -4.5653,11.70596 -1.14686,3.54407 -3.0874,6.69798 -4.26878,10.22462 -1.30764,3.0613 -1.39719,6.61828 -3.76987,9.23661 -1.90209,2.91334 -3.38942,6.04449 -4.82814,9.19088 -1.59313,3.11021 -3.32852,6.18332 -4.46154,9.47438 -4.27873,10.41751 -0.23435,6.07859 -17.19839,15.99113 -1.66435,-0.3439 -2.60969,-1.10162 -3.40893,-2.60471 -1.81339,-2.87892 -3.43609,-5.84808 -4.12387,-9.21941 -0.93353,-3.73843 -0.6536,-7.69659 -1.87328,-11.40038 -1.27998,-4.27174 -2.33532,-8.5249 -3.06814,-12.92675 -1.48601,-5.60323 -2.81743,-11.20798 -3.8899,-16.90604 -1.19982,-5.63779 -1.52816,-11.46682 -3.53693,-16.93164 -1.23214,-4.27219 -2.18057,-8.69931 -2.18645,-13.15797 -0.67055,-6.75118 -0.41836,-0.96389 14.88156,-9.51388 0.0553,-0.0309 -2.63856,5.2084 -2.45437,5.15582 -2.92738,6.74837 -5.65255,13.5822 -9.60323,19.83417 -5.76408,9.58071 -11.9236,18.9279 -17.95594,28.34041 -6.53475,9.52112 -13.24528,18.91733 -19.57123,28.57814 -5.59069,7.95219 -11.55974,15.61975 -17.22017,23.51991 0,0 -15.60628,6.6676 -15.60628,6.6676 z" />
    <path
       style="fill:#000000;fill-opacity:1;fill-rule:nonzero;stroke:#000000;stroke-width:4.69999981;stroke-linecap:round;stroke-linejoin:round;stroke-miterlimit:4;stroke-opacity:1;stroke-dasharray:none;stroke-dashoffset:0"
       id="path3542"
       d="m 1486.472,70.416023 c 4.5638,-1.972512 9.2925,-3.383184 14.1226,-4.523357 1.6293,-0.526857 3.1609,-1.283982 4.6813,-2.05895 0,0 -4.4202,3.534032 -4.4202,3.534032 l 0,0 c -1.5394,0.745752 -3.0886,1.476189 -4.742,1.942691 -4.8363,1.152104 -9.527,2.680492 -14.1373,4.543188 0,0 4.4956,-3.437604 4.4956,-3.437604 z"
       transform="translate(-828.78609,393.52273)" />
    <path
       style="fill:#000000;fill-opacity:1;fill-rule:nonzero;stroke:#000000;stroke-width:4.69999981;stroke-linecap:round;stroke-linejoin:round;stroke-miterlimit:4;stroke-opacity:1;stroke-dasharray:none;stroke-dashoffset:0"
       id="path3544"
       d="m 1483.9933,67.959658 c 5.0913,-0.01278 10.09,-1.329407 15.1127,-2.097971 3.6722,-1.141373 7.2184,-2.535371 11.0322,-3.129584 3.041,-1.196612 6.1304,-2.179685 9.3146,-2.906908 -0.307,0.610228 2.5452,-1.07288 1.9469,-0.724274 -1.2949,0.754536 -5.2388,2.912593 -3.9083,2.222599 3.1768,-1.647555 5.0927,-2.998534 8.0781,-4.117928 3.5064,-1.530139 -5.9906,3.792421 -2.3155,1.37226 0,0 5.28,-2.073465 5.28,-2.073465 l 0,0 c -2.317,1.64832 -4.7237,3.292547 -7.4307,4.201901 -0.6832,0.265777 -2.6425,1.242855 -2.0362,0.830689 1.1976,-0.814251 5.0036,-2.914219 3.7178,-2.247974 -2.6554,1.375859 -4.8935,3.410006 -7.8385,3.96972 -3.1766,0.746377 -6.2222,1.847689 -9.3179,2.86532 -3.7857,0.676064 -7.3153,2.128445 -11.0218,3.112152 -5.0436,0.772149 -10.0601,2.077728 -15.1824,2.043039 0,0 4.569,-3.319576 4.569,-3.319576 z"
       transform="translate(-828.78609,393.52273)" />
    <path
       style="fill:#000000;fill-opacity:1;fill-rule:nonzero;stroke:#000000;stroke-width:4.69999981;stroke-linecap:round;stroke-linejoin:round;stroke-miterlimit:4;stroke-opacity:1;stroke-dasharray:none;stroke-dashoffset:0"
       id="path3546"
       d="m 1483.9933,105.10251 c 5.8422,-0.53429 11.46,-2.07317 17.0746,-3.68374 4.1709,-0.60086 7.8723,-2.616791 11.8852,-3.730275 3.7163,-0.761471 7.1836,-2.342498 10.8689,-3.275697 2.375,-0.478169 4.7808,-0.707537 7.1986,-0.767567 2.3349,0.127913 5.4621,-2.3066 -1.9106,1.870981 0,0 5.3001,-2.037177 5.3001,-2.037177 l 0,0 c -3.3127,1.892585 -4.7031,3.595094 -7.9728,3.516675 -2.3871,0.08055 -4.7672,0.335399 -7.1023,0.853423 -3.6638,0.963118 -7.1321,2.530357 -10.8489,3.281367 -3.9715,1.19955 -7.7213,3.05727 -11.8616,3.70893 -5.6504,1.59837 -11.3198,3.11451 -17.2002,3.58266 0,0 4.569,-3.31958 4.569,-3.31958 z"
       transform="translate(-828.78609,393.52273)" />
    <path
       style="fill:#000000;fill-opacity:1;fill-rule:nonzero;stroke:#000000;stroke-width:4.69999981;stroke-linecap:round;stroke-linejoin:round;stroke-miterlimit:4;stroke-opacity:1;stroke-dasharray:none;stroke-dashoffset:0"
       id="path3548"
       d="m 1578.3997,75.315527 c -4.4444,3.460876 -9.1171,6.620043 -13.4059,10.276779 -2.6603,2.630732 -5.6954,5.067699 -7.2048,8.560302 -1.2214,3.562375 -0.7533,6.580162 2.1837,9.017662 2.9991,2.04348 6.2138,-0.3829 9.1477,-1.47358 1.0146,-1.19832 7.8816,-3.35689 1.0615,-0.50129 -0.689,0.28852 1.2782,-0.77452 1.9001,-1.18837 1.4452,-0.961604 2.2757,-1.621771 3.6405,-2.655915 3.0722,-2.211635 5.4428,-4.816918 6.7635,-8.36965 0.1664,-4.00017 -1.292,-7.798554 -3.114,-11.284416 -2.8312,-5.138061 -6.5272,-9.431923 -10.7005,-13.504043 -4.4696,-3.852294 -9.4778,-7.002499 -14.1252,-10.611028 -2.8823,-2.445163 -5.4862,-5.362972 -7.1159,-8.7992 -0.747,-3.545915 2.0773,-5.991657 4.5318,-8.064156 2.167,-1.257923 4.3726,-2.451468 6.5009,-3.77377 1.0243,-0.636368 -2.0943,1.201361 -3.1857,1.714047 -0.6128,0.287871 1.1522,-0.712668 1.7461,-1.037813 4.4358,-2.428491 6.59,-3.698707 10.9486,-4.79655 3.8791,-0.799643 7.7662,-1.23808 11.2812,0.853688 3.1365,2.380404 3.0329,6.586051 3.23,10.174014 -0.317,5.89993 -2.3817,11.417479 -5.1027,16.595454 -2.6634,5.158327 -5.4812,10.207967 -9.0473,14.798824 -0.6753,0.856823 -1.4002,1.671287 -2.1437,2.468626 0,0 -5.249,2.186143 -5.249,2.186143 l 0,0 c 0.773,-0.779109 1.5196,-1.583287 2.2112,-2.436828 3.6355,-4.539704 6.488,-9.554403 9.1318,-14.726657 2.744,-5.076125 4.7959,-10.497871 5.2044,-16.306192 -0.1801,-3.371995 0.017,-7.457326 -2.9725,-9.672512 -3.4681,-1.878827 -7.2874,-1.317705 -11.016,-0.508694 -3.8319,1.017826 -6.145,3.179502 -1.2161,-0.651332 0.5326,-0.413917 -1.176,0.661275 -1.7554,1.006495 -2.1562,1.284562 -4.3018,2.586763 -6.4511,3.88267 -1.0396,0.626793 2.0812,-1.250218 3.1218,-1.875327 -2.3245,1.811857 -5.274,4.120818 -4.8518,7.385379 1.577,3.363135 4.1422,6.195451 6.947,8.591058 4.6713,3.606679 9.6682,6.801378 14.1392,10.677442 4.2186,4.109531 7.9352,8.46725 10.8199,13.638414 1.9117,3.629069 3.3333,7.529123 3.359,11.682845 -1.2658,3.663601 -3.4944,6.405493 -6.6593,8.67809 -5.0494,3.879355 -10.5464,7.098414 -16.2648,9.903394 -3.1383,1.21531 -6.3801,3.35801 -9.5106,0.99034 -3.0088,-2.65419 -3.7206,-5.80898 -2.5177,-9.635783 1.3619,-3.653932 4.4271,-6.121444 7.1366,-8.822493 4.2291,-3.716519 8.945,-6.805948 13.3557,-10.299077 0,0 5.2478,-2.08699 5.2478,-2.08699 z"
       transform="translate(-828.78609,393.52273)" />
    <path
       style="fill:#000000;fill-opacity:1;fill-rule:nonzero;stroke:#000000;stroke-width:4.69999981;stroke-linecap:round;stroke-linejoin:round;stroke-miterlimit:4;stroke-opacity:1;stroke-dasharray:none;stroke-dashoffset:0"
       id="path3550"
       d="m 1599.9736,63.926208 c 1.0257,4.515413 1.7234,9.088374 2.2036,13.690802 0.3147,3.398385 0.3321,6.811966 0.3623,10.221601 0.018,2.926052 0.5046,2.593375 -5.0589,3.462911 -0.041,0.0064 0,-1.524643 0,-3.608567 -0.031,-3.006927 1.346,-5.801619 2.0411,-8.695333 1.1683,-3.1974 2.9133,-6.115496 4.3927,-9.167618 1.5951,-3.305638 4.0081,-5.989338 6.8363,-8.282587 6.6836,-4.143159 7.3961,-5.546004 11.7867,-0.183206 1.7822,2.61214 2.3633,5.619947 2.7005,8.698739 0.5111,3.108567 -0.065,5.861925 -1.0784,8.781018 0.6336,2.790879 -6.9881,8.033444 -6.3249,3.385815 0.7004,-3.130656 2.0932,-5.959415 3.3923,-8.862064 1.7881,-5.498421 4.9431,-6.960746 10.0092,-9.712225 2.4451,1.235052 2.45,4.235333 2.6241,6.644604 0.1766,3.414497 0.1255,6.835371 0.1166,10.252943 -0.011,2.779871 -0.022,5.559794 -0.018,8.339692 0.035,3.501193 0.4421,2.003901 -4.7902,4.048165 0.6529,-1.18461 0.3303,-0.580679 0.9667,-1.812434 0,0 5.1709,-2.33367 5.1709,-2.33367 l 0,0 c -0.6297,1.242258 -0.3171,0.628962 -0.9377,1.839986 -6.4057,3.528557 -5.4408,4.706385 -5.4666,0.833147 0.017,-2.784403 0.027,-5.568829 0.042,-8.353242 0.019,-3.404693 0.051,-6.812285 -0.099,-10.214606 -0.1236,-1.781267 0.061,-5.150591 -2.0834,-5.752175 8.2048,-5.170468 0.4818,-0.539462 -0.4016,3.865647 -1.2388,2.89231 -2.7313,5.63889 -3.4266,8.742737 -0.9687,3.632411 -7.687,6.997645 -3.8994,1.483406 1.0277,-2.856806 1.7127,-5.4855 1.1882,-8.555123 -0.2958,-2.973209 -0.811,-5.891075 -2.5365,-8.412184 -0.9031,-1.094782 -2.1517,-3.085788 -3.8098,-3.081911 -0.4364,0.001 -1.6116,0.577583 -1.2745,0.300215 1.0199,-0.83942 2.263,-1.363281 3.3945,-2.044922 -2.8583,2.203226 -5.3168,4.792849 -6.943,8.05041 -1.4566,3.034749 -3.1412,5.937208 -4.4372,9.049682 -0.6382,2.878572 -2.0313,5.622887 -2.0924,8.576419 0,0.335246 0.2851,3.365194 0.021,3.593684 -5.7907,5.0038 -5.0299,4.809532 -5.0472,1.694335 0,-3.39658 -0.034,-6.796713 -0.3186,-10.183635 -0.4428,-4.578033 -1.1091,-9.131773 -2.1843,-13.608444 0,0 4.978,-2.692012 4.978,-2.692012 z"
       transform="translate(-828.78609,393.52273)" />
    <path
       style="fill:#000000;fill-opacity:1;fill-rule:nonzero;stroke:#000000;stroke-width:4.69999981;stroke-linecap:round;stroke-linejoin:round;stroke-miterlimit:4;stroke-opacity:1;stroke-dasharray:none;stroke-dashoffset:0"
       id="path3552"
       d="m 1664.9965,69.211916 c -0.6261,0.312147 -2.4944,1.267625 -1.8782,0.936442 3.8786,-2.084577 3.4822,-2.04945 1.1669,0.13887 -1.6812,1.589094 -3.1408,3.217834 -4.5622,5.04029 -1.6054,2.323278 -2.1665,4.652963 0.3425,6.346458 8.1143,-4.412025 -6.6417,5.487476 1.7803,-1.513704 3.809,-2.236299 8.1296,-7.489977 12.5409,-4.500705 2.0243,2.550357 3.4501,5.348079 4.4183,8.443636 0.6659,2.627348 0.8369,5.323973 0.887,8.021349 0.3471,3.043569 -0.4068,5.80652 -1.2749,8.686428 -1.4249,3.37718 -3.1272,6.6186 -5.4154,9.48957 -2.9744,2.81838 -6.0599,5.64885 -9.4933,7.91693 -4.9338,3.18573 -8.3102,5.02645 -13.7745,3.64787 -3.4981,-1.47217 -5.5917,-4.07763 -7.3053,-7.3344 0,0 4.8866,-2.79479 4.8866,-2.79479 l 0,0 c 1.6317,3.12475 3.6549,5.62107 7.0635,6.91911 0.9018,0.20588 2.1471,0.55927 3.1094,0.53849 2.2072,-0.0477 8.025,-3.03321 0.7559,1.07423 3.4802,-2.18958 6.5145,-5.03452 9.5655,-7.75986 2.3771,-2.7548 3.9783,-5.99511 5.5006,-9.28228 0.8709,-2.83472 1.6999,-5.513434 1.3407,-8.521076 -0.047,-2.647552 -0.1717,-5.300178 -0.8053,-7.884997 -0.9022,-2.975165 -2.2411,-5.670216 -4.2238,-8.087781 -1.7807,-0.991326 -3.3285,-0.30331 -3.2365,-0.37575 6.9379,-5.459295 2.7012,-0.948746 0.6934,-0.310175 -3.3423,2.830722 -7.3504,6.720757 -11.8069,6.674912 -2.6009,-1.959875 -2.4773,-4.50659 -0.7252,-7.170997 3.9776,-5.214364 8.6397,-9.319065 14.8657,-11.870242 0,0 -4.4157,3.532172 -4.4157,3.532172 z"
       transform="translate(-828.78609,393.52273)" />
    <path
       style="fill:#000000;fill-opacity:1;fill-rule:nonzero;stroke:#000000;stroke-width:4.69999981;stroke-linecap:round;stroke-linejoin:round;stroke-miterlimit:4;stroke-opacity:1;stroke-dasharray:none;stroke-dashoffset:0"
       id="path3554"
       d="m 1701.2892,86.512779 c 4.8675,-6.58944 9.0168,-13.789727 12.8239,-21.044778 4.1567,-8.357727 8.084,-16.887636 11.3362,-25.64559 2.5626,-6.43331 4.8151,-12.986586 7.036,-19.545412 0.7909,-1.614669 2.1598,-8.28699 3.664,-9.200964 1.7457,-1.060717 3.6778,-1.7788844 5.5168,-2.6683264 1.5253,3.2832204 0.9617,7.4212354 0.9483,10.9770864 0.3141,4.71854 -0.3106,9.24319 -1.355,13.822072 -0.6805,2.727761 -1.1318,5.506373 -1.4737,8.294921 -0.018,0.163941 -0.058,0.326928 -0.054,0.491823 0,0.147692 0.1925,-0.494651 0.055,-0.439709 -1.537,0.615807 -2.8911,1.651482 -4.4528,2.201551 -0.2968,0.104537 0.3243,-0.539376 0.4911,-0.806185 0.7613,-1.217491 0.7856,-1.234092 1.5914,-2.440636 1.4336,-2.781923 2.8905,-5.549095 4.3818,-8.301367 4.5912,-7.069151 7.2882,-3.238899 8.4654,1.336552 0.5633,2.554023 0.7342,5.176592 0.8511,7.78377 0.4641,1.902188 -5.9964,4.5249 -4.2998,1.581351 0,0 5.1855,-2.311775 5.1855,-2.311775 l 0,0 c -1.0526,1.86191 -6.1891,6.489286 -5.942,3.329849 -0.071,-2.576468 -0.2263,-5.167143 -0.7639,-7.693513 -1.2929,-5.152318 -4.1474,-3.547164 2.1503,-7.02497 0.2436,-0.134519 -0.3148,0.458933 -0.4722,0.6884 -1.5851,2.707785 -2.9766,5.535153 -4.3731,8.346027 -1.2139,1.797176 -6.8239,10.184946 -7.9122,5.776354 0.3653,-2.811107 0.807,-5.619967 1.5005,-8.370635 1.0458,-4.550184 1.7653,-9.016455 1.423,-13.716359 0.01,-3.340835 0.3995,-7.063723 -0.6104,-10.266184 1.4431,-0.964173 2.7875,-2.0957095 4.3293,-2.8925189 0.3396,-0.1755002 -0.4379,0.6296905 -0.6106,0.9707226 -1.3108,2.5884143 -2.3794,5.3680363 -3.1587,8.1530683 -2.2487,6.568288 -4.4926,13.142613 -7.0837,19.583975 -3.2419,8.7836 -7.1841,17.331072 -11.326,25.717353 -3.7529,7.263217 -7.9236,14.435447 -12.6752,21.078987 0,0 -5.1865,2.23506 -5.1865,2.23506 z"
       transform="translate(-828.78609,393.52273)" />
    <path
       style="fill:#000000;fill-opacity:1;fill-rule:nonzero;stroke:#000000;stroke-width:4.69999981;stroke-linecap:round;stroke-linejoin:round;stroke-miterlimit:4;stroke-opacity:1;stroke-dasharray:none;stroke-dashoffset:0"
       id="path3560"
       d="m 1238.279,19.388229 c 7.2069,-0.04303 14.4175,0.27554 21.6033,-0.330051 10.0418,-0.78423 19.6425,-4.059926 29.2595,-6.83269 8.2533,-2.2259528 16.5107,-4.4662179 24.9662,-5.7846569 7.38,-0.9356692 14.6323,-2.5398858 22.0233,-3.4335737 5.1846,-0.5726059 10.4027,-0.7058131 15.614,-0.7787055 1.5849,-0.01578 3.17,-0.031495 4.7549,-0.00854 -5.7839,3.4680487 -4.6178,2.8920467 -4.6536,-1.28250348 0,0 5.0429,-2.57559982 5.0429,-2.57559982 l 0,0 c 0.048,4.4936803 0.564,3.9759093 -5.0123,7.2021712 -1.5625,-0.028551 -3.1255,-0.029032 -4.6882,-0.016134 -5.1863,0.061677 -10.3785,0.2118379 -15.5363,0.7966041 -7.3742,0.8981759 -14.6135,2.5188493 -21.983,3.4291613 -8.4231,1.3676638 -16.6621,3.5958358 -24.8936,5.8153288 -9.6401,2.792703 -19.2838,6.010941 -29.3552,6.765288 -7.2253,0.547021 -14.4687,0.267256 -21.7109,0.353475 0,0 4.569,-3.319576 4.569,-3.319576 z"
       transform="translate(-828.78609,393.52273)" />
    <path
       style="fill:#000000;fill-opacity:1;fill-rule:nonzero;stroke:#000000;stroke-width:4.69999981;stroke-linecap:round;stroke-linejoin:round;stroke-miterlimit:4;stroke-opacity:1;stroke-dasharray:none;stroke-dashoffset:0"
       id="path3562"
       d="m 1351.4022,-27.502364 c 1.4979,4.515505 4.5119,7.578436 8.5695,9.88662 4.2981,1.913661 8.5376,3.793973 13.1467,4.826736 3.8227,0.328668 5.7124,2.9242493 5.8452,6.5885486 -1.1474,4.9746199 -4.8544,8.6138368 -8.2116,12.2355052 -4.9252,4.9252062 -9.4628,10.2041042 -14.0751,15.4173942 -3.2754,4.560125 -7.3524,6.699573 -12.2815,9.160204 -0.7696,-1.075142 -0.4722,-0.501399 -0.9049,-1.714637 0,0 4.9741,-2.743456 4.9741,-2.743456 l 0,0 c 0.2818,0.879709 0.075,0.53958 0.5094,1.080103 -10.0622,6.266206 1.212,-0.707685 2.5508,-3.609763 4.5895,-5.235742 9.1677,-10.484617 14.0719,-15.4325648 3.2999,-3.5352929 6.9213,-7.0600826 8.3343,-11.8221962 0.068,-3.5438096 -1.9213,-5.6031959 -5.4442,-5.9525236 -4.6258,-1.1053584 -8.9106,-3.0081574 -13.2252,-4.9753924 -4.1504,-2.444 -7.229,-5.624977 -8.8374,-10.252565 0,0 4.978,-2.692013 4.978,-2.692013 z"
       transform="translate(-828.78609,393.52273)" />
    <path
       style="fill:#000000;fill-opacity:1;fill-rule:nonzero;stroke:#000000;stroke-width:4.69999981;stroke-linecap:round;stroke-linejoin:round;stroke-miterlimit:4;stroke-opacity:1;stroke-dasharray:none;stroke-dashoffset:0"
       id="path3564"
       d="m 1334.9327,-101.95369 c 0.6076,-3.66944 0.024,-6.57564 -3.3231,-8.46143 0.3601,-1.62841 -6.4302,1.71025 -4.8685,0.69691 6.5219,-4.23197 1.6482,0.16493 0.4668,1.7951 -3.364,6.03003 -4.4841,13.132866 -5.7151,19.862253 -1.3114,9.065219 -2.7889,18.106633 -4.6969,27.065948 -1.5704,6.78306 -3.2054,13.58583 -5.0902,20.292167 -1.0324,4.374653 -2.7751,8.18519 -5.6346,11.628877 -2.9657,2.806707 -6.761,4.563424 -10.6493,5.649696 0,0 4.4826,-3.455516 4.4826,-3.455516 l 0,0 c 0.9633,-0.293825 3.6234,-1.645536 2.8517,-0.998361 -0.5456,0.457589 -5.6282,3.597848 -1.8837,1.007829 2.919,-3.373465 4.7605,-7.055378 5.7815,-11.432919 1.9373,-6.689305 3.5167,-13.513203 5.1489,-20.279127 1.9332,-8.948572 3.4331,-17.981452 4.7008,-27.048118 1.2176,-6.780505 2.332,-13.905433 5.5487,-20.054649 3.2169,-4.63625 8.3274,-9.15398 14.3032,-7.80367 3.4387,2.14295 4.2212,5.15573 3.6811,9.09003 0,0 -5.1039,2.44498 -5.1039,2.44498 z"
       transform="translate(-828.78609,393.52273)" />
    <path
       style="fill:#000000;fill-opacity:1;fill-rule:nonzero;stroke:#000000;stroke-width:4.69999981;stroke-linecap:round;stroke-linejoin:round;stroke-miterlimit:4;stroke-opacity:1;stroke-dasharray:none;stroke-dashoffset:0"
       id="path3566"
       d="m 1292.5647,-66.326057 c 5.8109,0.932601 11.6087,1.855526 17.4739,2.374459 5.8447,0.569364 11.6021,0.601592 17.3919,-0.340582 3.4304,-0.703778 6.8648,-1.367099 10.3291,-1.882435 1.2192,-0.325631 -0.08,1.64218 -0.291,2.029716 0,0 -5.196,2.332952 -5.196,2.332952 l 0,0 c 0.1994,-0.377642 0.7061,-2.055705 1.2846,-1.015179 0.056,0.100682 -0.2272,0.03768 -0.3409,0.05653 -3.4414,0.506894 -6.8482,1.191962 -10.2647,1.841259 -5.8148,0.895615 -11.6142,0.784768 -17.4713,0.227082 -5.8636,-0.542101 -11.6509,-1.540867 -17.4846,-2.304221 0,0 4.569,-3.319577 4.569,-3.319577 z"
       transform="translate(-828.78609,393.52273)" />
    <path
       style="fill:#000000;fill-opacity:1;fill-rule:nonzero;stroke:#000000;stroke-width:4.69999981;stroke-linecap:round;stroke-linejoin:round;stroke-miterlimit:4;stroke-opacity:1;stroke-dasharray:none;stroke-dashoffset:0"
       id="path3568"
       d="m 1156.3851,154.53715 c -6.2308,1.03383 -12.4142,2.28891 -18.6246,3.44784 -8.4333,1.5401 -16.9398,2.68957 -25.3757,4.20977 -8.6275,1.81723 -17.32,3.4766 -25.9041,5.50471 -5.5217,1.42923 -11.1086,2.55645 -16.7599,3.31692 -1.169,0.11689 -2.3393,0.3272 -3.517,0.31946 -0.08,0.007 -0.093,-0.0771 -0.1401,-0.1157 0,0 4.769,-3.14694 4.769,-3.14694 l 0,0 c 0,-0.0315 -0.097,-0.0934 -0.01,-0.0946 1.144,-0.0778 2.2848,-0.19463 3.422,-0.34186 5.6173,-0.75276 11.1636,-1.90723 16.656,-3.30512 8.5996,-1.96737 17.2664,-3.7102 25.9075,-5.47095 8.4516,-1.48784 16.9557,-2.68735 25.3984,-4.23338 6.2276,-1.17575 12.4458,-2.37659 18.6747,-3.52775 0,0 -4.4957,3.4376 -4.4957,3.4376 z"
       transform="translate(-828.78609,393.52273)" />
    <path
       style="fill:#000000;fill-opacity:1;fill-rule:nonzero;stroke:#000000;stroke-width:4.69999981;stroke-linecap:round;stroke-linejoin:round;stroke-miterlimit:4;stroke-opacity:1;stroke-dasharray:none;stroke-dashoffset:0"
       id="path3570"
       d="m 1081.5882,146.70504 c -3.4085,3.50968 -6.1918,7.46205 -9.0242,11.42076 -1.6659,3.14303 -4.4617,5.80519 -5.4091,9.2747 -0.3318,3.10386 1.9521,5.38855 4.3173,7.04648 3.1233,1.87401 6.396,3.48124 9.6849,5.04447 3.8126,1.2427 7.5573,2.48543 11.2825,3.97948 1.9677,0.76107 4.1604,1.03001 6.1106,1.68899 0,0 -4.8022,3.08554 -4.8022,3.08554 l 0,0 c -2.0329,-0.40528 -4.044,-0.94307 -6.001,-1.63256 -3.7224,-1.50804 -7.5068,-2.68124 -11.2884,-4.01787 -3.311,-1.59004 -6.6365,-3.17229 -9.7563,-5.11785 -2.5071,-1.84795 -4.8691,-4.2979 -4.6479,-7.62738 0.7576,-3.60455 3.6793,-6.26593 5.3429,-9.48903 2.9001,-3.90689 5.5633,-7.96864 8.9639,-11.49062 0,0 5.227,-2.16511 5.227,-2.16511 z"
       transform="translate(-828.78609,393.52273)" />
    <path
       style="fill:#000000;fill-opacity:1;fill-rule:nonzero;stroke:#000000;stroke-width:4.69999981;stroke-linecap:round;stroke-linejoin:round;stroke-miterlimit:4;stroke-opacity:1;stroke-dasharray:none;stroke-dashoffset:0"
       id="path3572"
       d="m 1153.1833,180.2368 c -5.298,0.96159 -10.6189,1.52965 -15.524,3.87248 1.0103,-0.47105 1.9169,-1.37247 3.0308,-1.41315 0.6374,-0.0233 -0.9509,0.85779 -1.3541,1.35193 -1.7707,2.16946 -2.0715,4.90709 -2.3972,7.57877 -0.4706,4.84536 -0.3976,9.60751 0.5586,14.37194 0.909,4.09474 1.5803,8.22565 1.9596,12.40153 -0.2578,3.45986 -1.739,6.5726 -3.3472,9.5851 -1.8354,3.68083 -3.1515,3.6229 -7.5352,6.03373 0,0 4.4736,-3.51174 4.4736,-3.51174 l 0,0 c -7.3123,4.37613 -3.413,2.68753 -2.0966,-0.20899 1.6126,-2.92501 3.0823,-5.93016 3.4934,-9.28955 -0.3434,-4.16233 -0.9912,-8.28187 -1.9013,-12.35961 -0.9912,-4.81919 -1.0985,-9.61555 -0.6452,-14.52617 0.777,-7.25685 3.1097,-10.03619 10.1608,-13.50796 4.9873,-2.17499 10.3182,-2.78181 15.6255,-3.78663 0,0 -4.5015,3.40832 -4.5015,3.40832 z"
       transform="translate(-828.78609,393.52273)" />
    <path
       style="fill:#000000;fill-opacity:1;fill-rule:nonzero;stroke:#000000;stroke-width:4.69999981;stroke-linecap:round;stroke-linejoin:round;stroke-miterlimit:4;stroke-opacity:1;stroke-dasharray:none;stroke-dashoffset:0"
       id="path3574"
       d="m 1123.6149,204.70174 c 4.5818,-0.97486 9.1952,-1.45815 13.6249,-3.01857 2.3944,-0.77491 4.7995,-1.51855 7.2207,-2.20558 0.8026,-0.2398 1.6707,-0.13565 2.5041,-0.12978 0.1145,0.002 0.2289,0.003 0.3433,0.005 0,0 -4.616,3.34576 -4.616,3.34576 l 0,0 c -0.1125,-9.9e-4 -0.2251,-0.002 -0.3377,-0.003 -0.8111,6.5e-4 -1.6309,-0.0236 -2.4059,0.25484 -2.4004,0.67888 -4.7866,1.40849 -7.1547,2.19285 -4.4599,1.48043 -9.1094,1.92034 -13.6744,2.99635 0,0 4.4957,-3.4376 4.4957,-3.4376 z"
       transform="translate(-828.78609,393.52273)" />
    <path
       style="fill:#000000;fill-opacity:1;fill-rule:nonzero;stroke:#000000;stroke-width:4.69999981;stroke-linecap:round;stroke-linejoin:round;stroke-miterlimit:4;stroke-opacity:1;stroke-dasharray:none;stroke-dashoffset:0"
       id="path3578"
       d="m 369.28921,192.88412 c 0.73415,-0.42852 1.79333,-0.54042 2.20244,-1.28556 0.36631,-0.66717 -2.54317,1.58599 -2.04939,1.00679 1.86474,-2.18732 9.63694,-6.61782 12.4078,-8.60606 5.3661,-4.0983 10.18076,-8.96136 14.64856,-14.02025 2.31572,-2.93733 8.25884,-10.15572 9.00187,-1.57731 -0.16677,6.42508 -1.53827,12.77973 -2.14375,19.19621 -0.33796,9.46568 -1.05613,18.86141 -2.15828,28.26734 -0.2184,6.16845 -1.70018,12.07692 -3.15736,18.02901 -0.77802,2.94109 -1.06635,5.96617 -1.20497,8.9947 0.49603,3.57604 -2.79159,5.3039 -6.46529,5.60252 -2.91227,0.0758 -5.83449,0.20757 -8.68945,-0.4026 -3.62411,-1.1932 -7.11139,-2.0409 -10.89224,-1.34921 -2.50376,0.68172 -5.10522,0.94663 -7.62316,1.53642 1.62568,-0.74683 3.1714,-1.70068 4.87703,-2.2405 0.59343,-0.18781 1.01541,0.74979 1.6007,0.96162 1.51191,0.54716 3.11106,0.64702 4.64893,1.15979 4.30073,1.63077 8.87789,2.07405 13.4269,2.39998 5.60894,0.30318 11.22863,0.29109 16.84391,0.29784 5.29851,0.003 10.59698,-0.0183 15.89548,-0.0246 2.37728,-0.005 4.75456,-0.013 7.1318,-0.0283 2.22382,-7e-5 1.44375,-0.43074 -4.32758,2.29028 -0.43067,-1.19149 -0.17381,-0.58993 -0.78516,-1.79835 0,0 4.92719,-2.81014 4.92719,-2.81014 l 0,0 c 0.67232,1.31339 0.36665,0.64337 0.91725,2.00993 -4.63192,3.51755 -2.86155,3.68482 -5.34097,3.6575 -2.35662,-0.0128 -4.71329,-0.0157 -7.06994,-0.0162 -5.29371,0.006 -10.58743,0.009 -15.88115,0.0124 -5.6257,-0.009 -11.25637,6e-5 -16.87474,-0.32569 -4.58947,-0.35031 -9.18943,-0.85365 -13.5307,-2.48786 -0.41074,-0.12368 -7.50678,-1.56949 -6.615,-2.65921 1.27895,-1.56282 3.12665,-2.55667 4.68998,-3.835 2.54578,-0.44961 5.07503,-0.95552 7.6045,-1.49306 3.81086,-0.54504 7.35538,0.40248 11.00237,1.51468 2.83837,0.48673 5.74127,0.41173 8.61268,0.23287 3.43402,-0.64451 -4.64576,6.05441 -3.14722,0.34503 0.14946,-3.06414 0.39319,-6.13446 1.1929,-9.10987 1.45091,-5.95174 3.08641,-11.82625 3.26533,-18.00604 1.12716,-9.39875 1.88868,-18.78434 2.15728,-28.25028 0.56552,-6.37849 1.87084,-12.6944 2.10704,-19.06834 -0.0473,-0.60051 -0.0584,-1.20498 -0.14194,-1.80153 -0.0553,-0.39494 -0.54316,-0.87121 -0.27323,-1.16475 8.04568,-8.7495 3.62959,-1.86127 1.58987,-0.23979 -4.46966,5.09633 -9.30282,9.98266 -14.64538,14.15457 -7.14496,5.17053 -14.45668,10.14464 -22.15065,14.46322 0,0 4.41574,-3.53217 4.41574,-3.53217 z"
       transform="translate(-828.78609,393.52273)" />
    <path
       style="fill:#000000;fill-opacity:1;fill-rule:nonzero;stroke:#000000;stroke-width:4.69999981;stroke-linecap:round;stroke-linejoin:round;stroke-miterlimit:4;stroke-opacity:1;stroke-dasharray:none;stroke-dashoffset:0"
       id="path3580"
       d="m 969.21839,-53.382262 c 0.75346,-4.521873 2.49411,-8.588421 4.71181,-12.556611 2.472,-3.385607 5.99853,-5.89485 9.29465,-8.445693 4.82172,-2.979127 10.24026,-6.419375 16.17992,-5.715941 3.91253,0.811113 6.81223,3.926066 8.90273,7.165223 2.173,4.263088 2.6245,8.700431 1.9423,13.354201 -1.3563,6.0982 -4.55,11.240165 -8.2588,16.15801 -4.93488,5.951377 -10.19736,11.670027 -15.9555,16.833635 -5.41726,4.301363 -10.44213,9.086613 -15.89174,13.341782 -1.96288,1.550554 -19.42018,11.4128904 -7.63412,4.2539237 2.50312,-0.213867 4.74857,-1.6614387 6.99351,-2.7571747 -1.01995,0.532899 -1.96981,1.229795 -3.05984,1.598698 -1.46379,0.4953915 2.56456,-1.725337 3.86486,-2.560388 3.85206,-2.473788 7.8855,-4.675379 11.86352,-6.927677 4.75157,-2.37636 9.3508,-4.644972 14.57506,-5.764194 4.88865,-0.818735 9.85945,-0.902532 14.80405,-0.966156 3.7669,-0.418822 6.7689,0.672757 9.8664,2.694518 1.9342,1.105906 3.9426,2.083359 6.0075,2.920131 2.9789,0.405658 -4.2158,5.122657 -4.18,1.021805 0,0 5.0555,-2.572296 5.0555,-2.572296 l 0,0 c -0.01,2.627879 -3.0998,6.110956 -5.6119,4.712202 -2.0629,-0.894631 -4.0831,-1.89235 -6.0242,-3.028819 -3.0398,-1.942922 -6.0217,-2.808309 -9.6688,-2.429223 -4.9181,0.05738 -9.86587,0.156602 -14.7171,1.046689 -5.16462,1.197665 -9.74989,3.519809 -14.46959,5.880325 0.76211,-0.468248 2.96449,-1.987977 2.28633,-1.404744 -4.38809,3.773822 -10.62023,5.543891 -14.99319,9.2955631 -2.05101,1.0196763 -5.34135,3.3932763 -7.62405,1.9297673 -0.88515,-2.663648 4.20938,-3.2059023 6.367,-4.2437054 0.58121,-0.279558 2.24454,-1.238051 1.75133,-0.822483 -0.82214,0.692707 -1.73018,1.357498 -2.75848,1.6710835 -0.82002,0.2500666 1.4056,-0.9818945 2.1084,-1.4728415 5.50709,-4.189436 10.47526,-9.058861 15.93455,-13.317383 5.7985,-5.092946 11.0169,-10.833608 15.98791,-16.729425 3.70629,-4.837796 6.91059,-9.871818 8.33459,-15.88501 0.7085,-4.526293 0.3722,-8.82493 -1.7575,-12.990554 -2.0258,-3.118593 -4.82156,-6.08154 -8.63667,-6.728055 -1.91788,-0.110298 -3.54262,0.129013 -5.40451,0.649315 -2.39948,0.670536 -4.02464,1.572236 -3.92154,1.472674 0.83007,-0.80158 1.98389,-1.179142 2.97583,-1.768712 -3.31936,2.476703 -6.74406,5.051238 -9.39117,8.235452 -2.20404,3.932424 -4.09043,7.882999 -4.74516,12.40711 0,0 -5.10389,2.444978 -5.10389,2.444978 z"
       transform="translate(-828.78609,393.52273)" />
  </g>
</svg>
