<?xml version="1.0" encoding="UTF-8" standalone="no"?>
<!-- Created with Inkscape (http://www.inkscape.org/) -->
<svg
   xmlns:dc="http://purl.org/dc/elements/1.1/"
   xmlns:cc="http://creativecommons.org/ns#"
   xmlns:rdf="http://www.w3.org/1999/02/22-rdf-syntax-ns#"
   xmlns:svg="http://www.w3.org/2000/svg"
   xmlns="http://www.w3.org/2000/svg"
   xmlns:sodipodi="http://sodipodi.sourceforge.net/DTD/sodipodi-0.dtd"
   xmlns:inkscape="http://www.inkscape.org/namespaces/inkscape"
   width="813.88092"
   height="432.81879"
   id="svg3645"
   sodipodi:version="0.32"
   inkscape:version="0.46+devel"
   version="1.0"
   sodipodi:docname="c27d4.svg"
   inkscape:output_extension="org.inkscape.output.svg.inkscape">
  <defs
     id="defs3647">
    <inkscape:perspective
       sodipodi:type="inkscape:persp3d"
       inkscape:vp_x="0 : 526.18109 : 1"
       inkscape:vp_y="0 : 1000 : 0"
       inkscape:vp_z="744.09448 : 526.18109 : 1"
       inkscape:persp3d-origin="372.04724 : 350.78739 : 1"
       id="perspective3653" />
  </defs>
  <sodipodi:namedview
     id="base"
     pagecolor="#ffffff"
     bordercolor="#666666"
     borderopacity="1.0"
     inkscape:pageopacity="0.0"
     inkscape:pageshadow="2"
     inkscape:zoom="0.62441889"
     inkscape:cx="85.041163"
     inkscape:cy="197.78389"
     inkscape:document-units="px"
     inkscape:current-layer="layer1"
     showgrid="false"
     inkscape:window-width="1280"
     inkscape:window-height="712"
     inkscape:window-x="-5"
     inkscape:window-y="-3" />
  <metadata
     id="metadata3650">
    <rdf:RDF>
      <cc:Work
         rdf:about="">
        <dc:format>image/svg+xml</dc:format>
        <dc:type
           rdf:resource="http://purl.org/dc/dcmitype/StillImage" />
        <dc:title></dc:title>
      </cc:Work>
    </rdf:RDF>
  </metadata>
  <g
     inkscape:label="Layer 1"
     inkscape:groupmode="layer"
     id="layer1"
     transform="translate(192.20255,-466.77126)">
    <path
       style="fill:#000000;fill-opacity:1;fill-rule:nonzero;stroke:#000000;stroke-width:4.69999981;stroke-linecap:round;stroke-linejoin:round;stroke-miterlimit:4;stroke-opacity:1;stroke-dasharray:none;stroke-dashoffset:0"
       id="path3693"
       d="m 172.02541,850.01236 c 7.92718,3.64219 16.48865,5.23739 24.95035,7.05579 9.44918,2.24375 19.1407,2.93663 28.8111,3.38181 11.41631,0.38319 22.77417,1.70901 34.17869,2.38511 13.81995,0.66122 27.65994,0.68973 41.49252,0.74224 16.75331,0.0583 33.48379,-1.3777 50.16154,-2.86077 19.90461,-2.08227 39.71423,-4.92802 59.55546,-7.51875 20.35393,-2.73356 40.67727,-5.67411 61.0064,-8.58253 16.34271,-2.13205 32.69207,-4.21347 48.99977,-6.60071 12.12266,-1.78166 24.36086,-2.33823 36.53217,-3.6717 9.9417,-0.79549 19.81695,-1.8382 29.6773,-3.32617 5.57411,-0.84083 11.18611,-1.40102 16.81663,-1.65732 4.07133,-0.91145 5.74606,0.56904 8.71701,2.04128 1.20638,0.60774 2.49518,0.67794 3.81603,0.73842 -3.63129,-0.0442 -1.34912,-0.54009 -0.24202,-1.19666 0,0 2.83,0.29189 2.83,0.29189 l 0,0 c -1.91116,1.17348 -2.60148,1.43609 -5.40361,1.3358 -1.33558,-0.0772 -2.63138,-0.21633 -3.83144,-0.86429 -0.646,-0.38037 -1.17888,-0.90468 -1.84442,-1.2496 -0.32194,-0.16685 -1.19566,-0.12648 -0.99881,-0.43101 0.2696,-0.41709 1.82038,0.0581 1.46222,-0.2859 -0.41058,-0.39439 -1.13813,0.0337 -1.70719,0.0506 -5.63778,0.23961 -11.25768,0.78835 -16.8392,1.62389 -9.86929,1.48623 -19.74793,2.56106 -29.70093,3.33412 -12.17593,1.33823 -24.41692,1.89916 -36.54724,3.65944 -16.31939,2.38524 -32.679,4.47356 -49.03427,6.59666 -20.33292,2.90229 -40.6582,5.84981 -61.01488,8.58467 -19.83849,2.58599 -39.64352,5.43879 -59.54364,7.53179 -18.48297,1.64675 -37.01595,3.13419 -55.59012,2.88712 -13.84118,-0.053 -27.68997,-0.0825 -41.51814,-0.75388 -11.40748,-0.68413 -22.76954,-2.00827 -34.19068,-2.37963 -9.67481,-0.45749 -19.36714,-1.17478 -28.81893,-3.42713 -8.48056,-1.81335 -17.02965,-3.48195 -24.98847,-7.08214 0,0 2.8068,-0.35242 2.8068,-0.35242 z" />
    <path
       style="fill:#000000;fill-opacity:1;fill-rule:nonzero;stroke:#000000;stroke-width:4.69999981;stroke-linecap:round;stroke-linejoin:round;stroke-miterlimit:4;stroke-opacity:1;stroke-dasharray:none;stroke-dashoffset:0"
       id="path3695"
       d="m 594.32969,831.30921 c -6.03131,7.96614 -11.67122,16.21357 -17.37659,24.41287 -6.0005,8.41053 -12.85112,16.14922 -19.86305,23.71761 -0.75285,0.79907 -1.50569,1.59815 -2.25854,2.39723 0,0 -2.80592,-0.21287 -2.80592,-0.21287 l 0,0 c 0.7565,-0.79797 1.513,-1.59595 2.26951,-2.39392 7.02425,-7.54728 13.87637,-15.27619 19.87762,-23.67734 5.70721,-8.19545 11.34848,-16.43781 17.33491,-24.43429 0,0 2.82206,0.19071 2.82206,0.19071 z" />
    <path
       style="fill:#000000;fill-opacity:1;fill-rule:nonzero;stroke:#000000;stroke-width:4.69999981;stroke-linecap:round;stroke-linejoin:round;stroke-miterlimit:4;stroke-opacity:1;stroke-dasharray:none;stroke-dashoffset:0"
       id="path3697"
       d="m 540.04397,842.73778 c -5.79212,7.72557 -11.49779,15.51722 -17.37479,23.1788 -4.70071,6.63322 -10.51941,12.12288 -17.04853,16.89643 -3.07407,1.75677 -1.56885,0.97539 -4.50052,2.37305 0,0 -2.80869,-0.31885 -2.80869,-0.31885 l 0,0 c 2.93373,-1.36667 1.4277,-0.60285 4.50383,-2.31937 6.5465,-4.72803 12.3702,-10.19587 17.06993,-16.81379 5.87965,-7.65251 11.58914,-15.43555 17.33672,-23.18697 0,0 2.82205,0.1907 2.82205,0.1907 z" />
    <path
       style="fill:#000000;fill-opacity:1;fill-rule:nonzero;stroke:#000000;stroke-width:4.69999981;stroke-linecap:round;stroke-linejoin:round;stroke-miterlimit:4;stroke-opacity:1;stroke-dasharray:none;stroke-dashoffset:0"
       id="path3699"
       d="m 497.18444,837.68486 c -5.90962,10.02708 -13.42814,18.95682 -21.08814,27.67038 -7.95923,8.58971 -16.81403,16.18625 -26.84132,22.22697 -3.96663,2.36131 -8.33411,3.59541 -12.80611,4.52976 0,0 -2.79511,-0.38488 -2.79511,-0.38488 l 0,0 c 4.47282,-0.9015 8.84631,-2.09247 12.82063,-4.43246 10.0414,-5.99493 18.89564,-13.56712 26.85715,-22.13917 7.6465,-8.6916 15.16895,-17.59195 21.03563,-27.61698 0,0 2.81727,0.14638 2.81727,0.14638 z" />
    <path
       style="fill:#000000;fill-opacity:1;fill-rule:nonzero;stroke:#000000;stroke-width:4.69999981;stroke-linecap:round;stroke-linejoin:round;stroke-miterlimit:4;stroke-opacity:1;stroke-dasharray:none;stroke-dashoffset:0"
       id="path3701"
       d="m 428.61437,848.78148 c -5.65678,8.48614 -12.70563,15.89595 -19.91319,23.0641 -7.15372,6.85609 -15.75983,11.85011 -24.89006,15.5596 0,0 -2.78982,-0.3328 -2.78982,-0.3328 l 0,0 c 9.13435,-3.66027 17.74788,-8.61428 24.90566,-15.44604 7.1975,-7.14427 14.24517,-14.52906 19.86742,-23.01087 0,0 2.81999,0.16601 2.81999,0.16601 z" />
    <path
       style="fill:#000000;fill-opacity:1;fill-rule:nonzero;stroke:#000000;stroke-width:4.69999981;stroke-linecap:round;stroke-linejoin:round;stroke-miterlimit:4;stroke-opacity:1;stroke-dasharray:none;stroke-dashoffset:0"
       id="path3703"
       d="m 348.27101,874.18184 c -6.4196,6.8818 -13.34171,13.11029 -20.86048,18.75476 -5.14897,3.11247 -2.61333,1.68829 -7.5895,4.30344 0,0 -2.78729,-0.30479 -2.78729,-0.30479 l 0,0 c 4.98053,-2.58917 2.44367,-1.17997 7.59386,-4.25753 7.51499,-5.62399 14.45089,-11.81159 20.82662,-18.71756 0,0 2.81679,0.22168 2.81679,0.22168 z" />
    <path
       style="fill:#000000;fill-opacity:1;fill-rule:nonzero;stroke:#000000;stroke-width:4.69999981;stroke-linecap:round;stroke-linejoin:round;stroke-miterlimit:4;stroke-opacity:1;stroke-dasharray:none;stroke-dashoffset:0"
       id="path3705"
       d="m 286.10104,868.76399 c -4.17828,7.13109 -9.28325,13.47625 -15.99251,18.31629 -3.19756,2.1888 -6.8782,3.18697 -10.55154,4.2129 0,0 -2.78702,-0.36486 -2.78702,-0.36486 l 0,0 c 3.66655,-0.99818 7.34618,-1.95693 10.54879,-4.11367 6.71601,-4.77474 11.7998,-11.07717 15.95819,-18.18169 0,0 2.82409,0.13103 2.82409,0.13103 z" />
    <path
       style="fill:#000000;fill-opacity:1;fill-rule:nonzero;stroke:#000000;stroke-width:4.69999981;stroke-linecap:round;stroke-linejoin:round;stroke-miterlimit:4;stroke-opacity:1;stroke-dasharray:none;stroke-dashoffset:0"
       id="path3707"
       d="m 216.84261,865.28436 c -5.54228,4.20084 -11.13943,8.41819 -17.22115,11.81341 -0.89273,0.4434 -1.78546,0.88681 -2.67819,1.33021 0,0 -2.80059,-0.3128 -2.80059,-0.3128 l 0,0 c 0.89442,-0.4387 1.78883,-0.8774 2.68325,-1.3161 6.08855,-3.35488 11.66957,-7.57559 17.19954,-11.76783 0,0 2.81714,0.25311 2.81714,0.25311 z" />
    <path
       style="fill:#000000;fill-opacity:1;fill-rule:nonzero;stroke:#000000;stroke-width:4.69999981;stroke-linecap:round;stroke-linejoin:round;stroke-miterlimit:4;stroke-opacity:1;stroke-dasharray:none;stroke-dashoffset:0"
       id="path3709"
       d="m 412.53134,844.2756 c -1.11541,-8.05964 -1.79148,-16.16832 -2.1833,-24.29258 -0.3237,-8.14851 -0.32393,-16.30528 -0.34119,-24.45884 -0.003,-7.63051 0.006,-15.261 0.0113,-22.8915 0.14063,-6.59249 -1.30905,-13.07926 -2.06885,-19.60505 -0.5806,-5.48397 -0.7077,-11.00108 -0.78562,-16.51085 -0.0392,-4.12458 -0.0278,-8.24938 -0.0203,-12.37407 0.008,-3.64284 0.007,-7.28568 0.0109,-10.92852 0.11082,-2.62377 0.40257,-4.54295 -1.63458,-6.32932 -2.1681,-2.03573 -5.17679,-2.08382 -7.83108,-3.01173 -3.78837,-1.47125 -7.8166,-2.07876 -11.84124,-2.44052 -5.15868,-0.44469 -10.19698,-1.74285 -15.34506,-2.39139 -6.32588,-0.32031 -12.52678,-1.62125 -18.78975,-2.48591 -6.11312,-0.68335 -12.21028,-0.82844 -18.26776,-1.92797 -4.7301,-0.95698 -9.50468,-1.57877 -14.31836,-1.88418 -3.50122,-0.19399 -7.00967,-0.18171 -10.51502,-0.18083 0.38244,7.5e-4 1.52968,-0.004 1.14731,0.002 -3.9374,0.0682 -7.26167,-0.83667 -10.99341,-1.73948 -3.45724,-0.86489 -7.03894,-0.94538 -10.582,-1.06516 -2.06957,-0.0495 -4.13988,-0.0571 -6.20995,-0.0534 -0.40276,7.3e-4 1.61103,-0.002 1.20829,0.002 -0.56445,0.005 -1.12895,0.002 -1.69342,0.003 -3.04052,0.007 -6.08105,0.012 -9.12159,0.0141 -2.79498,-0.31475 -5.49021,0.43055 -8.25819,0.48147 -4.89333,0.0844 -6.50188,-1.84771 -8.63646,-5.75541 -1.92953,-3.17389 -1.7886,-6.96514 -2.81145,-10.40914 -1.36979,-3.7484 -1.99582,-7.69102 -2.35745,-11.64748 0.0624,-4.91118 -0.59157,-9.64744 -1.60429,-14.43507 -0.99105,-4.7439 -1.26399,-9.5917 -1.45265,-14.42182 -0.12217,-4.34771 -0.11015,-8.69762 -0.1089,-13.0466 0.007,-3.16218 0.007,-6.32436 0.0117,-9.48654 0.38189,-3.52324 -0.34022,-6.73521 -1.28763,-10.08626 -0.93094,-2.93046 -1.28933,-5.98268 -1.47116,-9.03823 -0.10923,-2.31407 -0.11938,-4.63175 -0.11845,-6.94802 0.21294,-2.43669 -0.63692,-4.73483 -1.26996,-7.05674 0,0 2.83228,-0.0753 2.83228,-0.0753 l 0,0 c 0.63798,2.3445 1.49876,4.67146 1.28614,7.13284 -0.0115,2.31033 -0.002,4.62202 0.10735,6.93021 0.18444,3.0354 0.54093,6.06577 1.46677,8.97711 0.95626,3.37377 1.66042,6.62048 1.29474,10.16476 -0.003,3.16217 -0.0168,6.32433 -0.0202,9.4865 -0.008,4.34519 -0.0165,8.69142 0.10488,13.03532 0.18646,4.81458 0.45601,9.64635 1.4509,14.37397 1.01222,4.79772 1.65814,9.54844 1.60806,14.46795 0.36488,3.93945 0.99349,7.86128 2.36124,11.59278 0.98995,3.43424 0.88821,7.19244 2.80832,10.34676 0.72374,1.29357 1.47414,2.62048 2.49464,3.71505 0.29036,0.31143 0.59138,0.62246 0.94545,0.85895 0.34678,0.23161 1.32008,0.15661 1.13345,0.52953 -0.24074,0.48104 -1.04988,0.23494 -1.57483,0.35241 2.77984,0.009 5.45351,-0.81843 8.26332,-0.4826 3.04127,-0.002 6.08254,-0.006 9.12381,-0.0134 4.09921,-0.008 8.19951,-0.038 12.29796,0.0578 3.54786,0.12912 7.13121,0.23249 10.58799,1.1231 0.75257,0.18688 4.73557,0.76585 5.1399,1.36724 0.23798,0.35397 -1.5084,-0.0245 -1.24185,0.30848 1.23748,1.54594 6.18701,-4.65849 5.94067,-0.006 3.50452,0.002 7.01234,-0.007 10.51213,0.19995 4.81125,0.3235 9.58175,0.96484 14.31098,1.91746 6.05488,1.08015 12.15872,1.19478 18.26151,1.91747 6.26271,0.87557 12.47021,2.14272 18.79615,2.48182 5.14555,0.66516 10.18625,1.96548 15.3522,2.3805 4.03347,0.38544 8.05849,1.03096 11.85609,2.50481 2.70347,0.87369 5.68891,1.04372 7.85056,3.12636 2.02414,1.87131 1.74819,3.91436 1.63473,6.56724 6.1e-4,3.64298 -0.006,7.28594 -0.0114,10.92891 -0.007,4.12321 -0.0236,8.24656 0.014,12.36968 0.0738,5.50023 0.19469,11.00773 0.77706,16.48211 0.75993,6.53631 2.20597,13.03463 2.05991,19.63788 -0.006,7.63026 -0.0181,15.26052 -0.0142,22.89079 0.012,8.14925 0.0172,16.30158 0.33964,24.44579 0.39446,8.11567 1.04819,16.21973 2.20457,24.26605 0,0 -2.82522,0.0401 -2.82522,0.0401 z" />
    <path
       style="fill:#000000;fill-opacity:1;fill-rule:nonzero;stroke:#000000;stroke-width:4.69999981;stroke-linecap:round;stroke-linejoin:round;stroke-miterlimit:4;stroke-opacity:1;stroke-dasharray:none;stroke-dashoffset:0"
       id="path3711"
       d="m 221.07084,557.63172 c -0.63201,6.48451 -1.82272,12.79404 -3.48955,19.08027 -1.29615,3.78467 -1.07694,7.89872 -2.14436,11.70398 -1.09513,2.82966 -1.86948,5.72098 -2.29216,8.72212 -0.50748,2.35241 -0.12765,4.53118 0.15571,6.82793 -0.48453,1.27566 2.93004,1.51982 1.97749,1.38194 -3.2778,-0.47447 -0.73233,-0.56705 0.91651,-1.47462 3.2397,-2.25234 5.21887,-5.53723 7.25338,-8.80535 2.22173,-2.96412 3.88589,-6.27359 5.85051,-9.39893 1.87742,-2.90281 4.28134,-5.4091 6.6516,-7.90746 2.27621,-1.99659 4.6029,-3.68549 7.45319,-4.74274 5.18657,-0.84261 6.36045,0.79952 10.46761,2.43575 2.02044,2.05622 4.42625,3.62295 6.72298,5.3495 1.74269,2.01163 3.56945,3.92955 4.79367,6.31306 1.20603,2.29651 1.52532,4.7986 1.69892,7.3444 0.47466,3.73062 4.58331,5.83466 -0.24748,3.90318 0.64943,-2.67103 0.46793,-5.45401 0.43331,-8.17946 -0.056,-3.20187 -0.0907,-6.40404 -0.10665,-9.60634 0.8404,-3.07213 1.80383,-6.05668 2.32655,-9.20853 0.4288,-3.1066 0.49327,-6.24454 0.52888,-9.37525 0.0166,-2.60924 0.008,-5.21858 -0.006,-7.82781 -1.02227,-1.51778 -3.21202,-2.19709 -4.87066,-2.96395 -2.82411,-1.09494 -5.84462,-1.25303 -8.83371,-1.41987 3.42342,-0.16845 -8.98438,-0.0226 -5.46516,-0.0813 0.45695,-0.008 1.29863,-0.44989 1.37104,0.001 0.0717,0.4466 -0.88077,0.20641 -1.32115,0.30961 -2.76174,1.03381 -5.57238,1.79372 -8.48752,2.22717 -2.96811,0.28498 -5.69544,1.63867 -8.56946,2.39773 -3.44085,1.39441 -6.71571,3.12943 -10.21274,4.38889 -4.04178,1.16768 -8.72154,3.66561 -11.47144,-0.87488 -0.24686,-0.60502 -0.49373,-1.21004 -0.7406,-1.81507 0,0 2.8296,-0.11097 2.8296,-0.11097 l 0,0 c 0.24664,0.58879 0.49327,1.17758 0.73991,1.76637 0.32188,0.48653 0.543,1.05748 0.96564,1.45958 0.31953,0.30399 1.3419,0.17471 1.18569,0.58715 -0.17209,0.45439 -1.28293,0.5735 -1.45286,0.11829 -0.42358,-1.13471 5.08136,-0.0528 5.13869,-1.47703 3.5102,-1.23236 6.78878,-2.95358 10.20405,-4.41484 2.88724,-0.7408 5.61671,-2.1002 8.57331,-2.42899 2.9154,-0.41077 5.73764,-1.1161 8.4831,-2.19603 3.53019,-1.00887 7.39549,-0.16809 11.03644,-0.28486 3.00098,0.18078 6.03305,0.36957 8.84917,1.5261 1.71795,0.80661 4.04978,1.49351 4.89405,3.28458 0.004,2.61073 0.0147,5.2215 -6.5e-4,7.83222 -0.0399,3.14517 -0.10307,6.29709 -0.53213,9.41843 -0.52004,3.13641 -1.44014,6.11556 -2.32527,9.16042 0.0182,3.2015 0.0479,6.40291 0.10511,9.60398 0.0403,2.76666 0.21416,5.5854 -0.42814,8.3002 -1.09506,0.36031 -2.15423,0.85752 -3.2852,1.08092 -0.78797,0.15565 -1.96529,-4.62622 -2.1484,-5.08168 -0.17016,-2.50826 -0.49549,-4.96937 -1.69262,-7.22718 -1.23393,-2.32383 -3.03526,-4.24124 -4.78383,-6.18702 -2.28639,-1.71447 -4.63811,-3.3253 -6.72325,-5.28115 -1.17495,-0.53874 -2.1622,-1.38811 -3.3942,-1.81359 -0.41527,-0.14341 -5.09377,-0.75055 -1.43042,-0.60664 -2.85586,1.01007 -5.15917,2.64454 -7.44229,4.61191 -2.36777,2.4804 -4.76538,4.97207 -6.65036,7.85151 -1.97888,3.11611 -3.61785,6.44213 -5.85316,9.39699 -2.05724,3.29941 -4.03371,6.6172 -7.26046,8.94914 -2.50946,1.39897 -7.15436,3.39295 -8.55808,-0.17355 -0.29279,-2.3246 -0.65163,-4.52686 -0.15085,-6.90295 0.42536,-3.01382 1.18383,-5.92286 2.29591,-8.76131 1.10423,-3.79055 0.83952,-7.92269 2.15777,-11.69835 1.67142,-6.27405 2.89126,-12.56668 3.48604,-19.04705 0,0 2.82521,0.0401 2.82521,0.0401 z" />
    <path
       style="fill:#000000;fill-opacity:1;fill-rule:nonzero;stroke:#000000;stroke-width:4.69999981;stroke-linecap:round;stroke-linejoin:round;stroke-miterlimit:4;stroke-opacity:1;stroke-dasharray:none;stroke-dashoffset:0"
       id="path3713"
       d="m -24.148865,574.67638 c 7.261089,-1.03721 14.554263,-1.77158 21.874947,-2.20467 5.34135,-0.28657 10.690214,-0.33298 16.03779,-0.34899 6.378758,-0.006 12.757512,0.007 19.136266,0.0128 2.81718,-0.24552 5.723946,0.31563 8.534057,0.005 0.10995,-0.0122 -0.03732,-0.29571 0.06949,-0.32451 1.865134,-0.50302 3.812643,-0.62516 5.717804,-0.94471 6.350496,-1.1977 12.842805,-0.97933 19.226507,-1.81466 6.847513,-0.85521 13.56801,-2.30955 20.339431,-3.59307 7.642079,-1.22596 15.363373,-1.50407 23.022113,-2.61257 7.87134,-1.20254 15.81501,-1.68891 23.76393,-1.97149 8.72256,-0.22158 17.44911,-0.18837 26.17374,-0.18815 7.33307,0.007 14.66614,0.0149 21.99921,0.019 7.09152,0.003 14.18303,0.004 21.27454,0.004 5.29355,0.40863 10.43632,-0.41481 15.63365,-1.2716 4.88984,-0.97853 9.85856,-1.30813 14.83059,-1.48724 5.67997,-0.15971 11.36348,-0.11968 17.04501,-0.11766 4.96545,-0.42159 9.70695,0.40142 14.54828,1.33621 5.66362,1.08343 11.43047,1.29551 17.17828,1.44958 5.40315,0.11037 10.80771,0.11027 16.21172,0.10874 5.78617,-0.007 11.57235,-0.0129 17.35854,-0.016 5.7092,-0.003 11.41841,-0.003 17.12762,-0.003 6.64118,-7e-5 13.28236,3e-5 19.92354,7e-5 4.65244,0.37794 6.73604,-0.69432 11.46447,-1.69282 4.21461,-0.81198 8.50669,-1.0122 12.78647,-1.1235 5.51416,-0.0889 11.02941,-0.0638 16.54406,-0.0564 4.66507,0.008 9.33014,0.0117 13.99522,0.0138 5.53774,0.002 11.07549,0.002 16.61323,0.002 5.68789,-0.31501 11.25422,0.80102 16.82226,1.74407 4.51598,0.75004 9.09484,0.96435 13.66378,1.07797 4.05331,0.0693 7.78074,0.0525 9.65393,0.0496 3.17525,-0.007 6.3505,-0.0122 9.52576,-0.0143 1.62269,-10e-4 3.24539,-0.002 4.86808,-0.003 1.34811,-1.2704 1.95111,-2.96177 2.46613,-4.69148 0.76123,-3.13594 0.3838,-6.39083 1.07569,-9.52252 1.11242,-2.77762 1.83566,-5.6046 2.20057,-8.57194 -0.0729,-3.37236 0.82771,-6.49067 1.62658,-9.72654 1.04944,-3.96704 1.28009,-8.07393 1.45501,-12.15421 0.13434,-2.70139 0.53932,-5.31349 -1.53028,-7.34433 -2.57002,-1.84879 -6.04869,-1.69536 -9.08906,-1.81982 -5.02221,-0.0903 -5.67798,-0.0556 -10.06157,-0.0403 -5.35576,0.0539 -10.60156,1.40866 -15.90871,2.08032 -6.46727,0.63944 -12.97147,0.72936 -19.46473,0.79955 -6.71133,0.0435 -13.42288,0.0269 -20.1343,0.0187 -4.71201,-0.007 -9.42403,-0.009 -14.13605,-0.0107 -0.74573,-1.7e-4 -1.49146,-3.6e-4 -2.23719,-5e-4 -2.17631,-4.1e-4 -4.35263,-2.4e-4 -6.52894,-3.1e-4 -2.45055,-8e-5 -2.85493,6e-5 -1.65477,-2.2e-4 -4.39003,7e-4 -8.78006,-2.7e-4 -13.17008,2.1e-4 -4.91174,2e-5 -9.82348,-7e-5 -14.73522,-7.9e-4 -7.28819,-0.50925 -14.32908,0.92005 -21.55625,1.70508 -8.42115,0.83152 -16.88569,0.99575 -25.34069,1.11105 -8.58675,0.81929 -17.14257,1.83973 -25.75447,2.38574 -7.50645,1.11422 -14.99824,2.22807 -22.56473,2.85336 -6.50105,0.0235 -12.8461,1.39519 -19.26373,2.23933 -6.57751,0.82392 -13.20655,0.99883 -19.8266,1.10269 -8.00811,0.0784 -16.01686,0.0541 -24.02523,0.046 -8.52111,-0.01 -17.04223,-0.0127 -25.56335,-0.015 -9.76271,-0.43447 -19.4855,-2.27382 -29.27344,-2.00186 -11.41153,0.61972 -22.81557,1.30106 -34.23929,1.66173 -10.88998,0.28996 -21.784507,0.32429 -32.677645,0.34837 -6.990071,0.27224 -14.034115,-0.40209 -21.015956,10e-4 -1.71113,0.0988 -3.3793,0.58359 -5.080506,0.79246 -5.067649,0.7083 -10.128027,1.45406 -15.230377,1.86147 -3.378564,0.21306 -6.765865,0.2121 -10.149721,0.21572 -3.871428,0.003 -7.742834,-0.0105 -11.614253,-0.0159 -3.426766,-0.004 -6.853534,-0.004 -10.280301,-0.004 -4.233097,-2.4e-4 -4.781567,-6.3e-4 -9.679364,-4e-5 -4.48291,0.49772 -8.551656,-1.08346 -12.791596,-2.10343 -0.629819,-0.34184 -9.597527,-1.2601 -4.30364,-0.44701 -2.404221,1.16926 -2.221729,4.28608 -2.77877,6.54953 -1.519749,5.2183 -1.974706,10.62338 -2.286006,16.02202 -0.974127,7.05736 -1.712553,14.1426 -3.459145,21.0581 0.516512,0.24148 -4.134472,13.40711 -5.199249,2.47264 0,0 2.837137,-0.0283 2.837137,-0.0283 l 0,0 c 0.261625,2.54691 0.600703,1.07784 -2.453841,2.39802 -0.09958,0.043 0.23974,0.16751 0.313367,0.0878 0.227574,-0.24626 0.322571,-0.59041 0.440986,-0.90411 0.328468,-0.87017 1.029507,-3.3563 1.244957,-4.0962 1.76243,-6.89404 2.494539,-13.96333 3.461643,-21.00409 0.307707,-5.41527 0.753068,-10.83764 2.268694,-16.07446 0.582285,-2.35178 0.400135,-5.50779 2.790326,-6.84349 3.371235,-0.30144 6.638758,-0.5037 9.936151,0.43251 0.801922,0.1968 6.018422,1.36841 6.31738,1.72304 0.242452,0.28761 -1.437336,0.1859 -1.08381,0.31443 0.610432,0.22194 1.299051,-10e-6 1.948577,-2e-5 5.091144,5e-4 10.182288,0 15.273432,-1e-5 3.428598,1.7e-4 6.857198,-2.8e-4 10.285794,0.004 0.605185,8.1e-4 10.22578,0.016 6.01058,0.0161 3.383114,-0.002 6.769286,0.003 10.147922,-0.19382 5.111489,-0.39202 10.181122,-1.1255 15.255262,-1.84485 8.674113,-1.08792 17.39228,-0.81221 26.115563,-0.82499 10.896281,-0.0214 21.793921,-0.0536 32.687149,-0.33863 11.42381,-0.35526 22.82844,-1.02403 34.23872,-1.66699 11.65031,-0.092 23.18404,1.00146 34.78447,1.99647 8.52517,0.002 17.05034,0.004 25.5755,0.0133 6.158,0.005 12.3162,0.0231 18.47397,-0.0426 6.61758,-0.0987 13.2444,-0.26228 19.8211,-1.07094 6.42169,-0.83275 12.76283,-2.24242 19.26692,-2.2526 7.57145,-0.61126 15.07075,-1.69946 22.57511,-2.85713 8.6138,-0.53592 17.17283,-1.53241 25.75644,-2.39943 8.45221,-0.11064 16.9139,-0.26773 25.3334,-1.0854 7.16434,-0.77146 14.31678,-1.98235 21.54812,-1.73696 4.9083,-7.3e-4 9.81659,-8.2e-4 14.72488,-8.4e-4 4.39043,4.3e-4 8.78087,-6.2e-4 13.1713,-2e-5 5.33568,-1.4e-4 10.67135,-3.6e-4 16.00703,9.1e-4 4.71053,0.002 9.42106,0.004 14.13159,0.0117 4.85437,0.007 9.7088,0.0202 14.56311,-0.0149 6.49001,-0.0657 12.99021,-0.15097 19.456,-0.76837 5.31163,-0.65712 10.55581,-2.0128 15.90691,-2.11514 5.21769,-0.0189 10.43673,-0.0694 15.65347,0.0506 3.08171,0.14168 6.59243,0.02 9.12285,2.03285 2.00258,2.18466 1.70392,4.77246 1.52728,7.57433 -0.17515,4.09828 -0.40481,8.22527 -1.45564,12.21027 -0.7885,3.22699 -1.69733,6.33046 -1.62009,9.69278 -0.35976,2.97722 -1.06113,5.82196 -2.20235,8.59996 -0.71061,3.1332 -0.30915,6.39979 -1.06997,9.54179 -0.54846,1.86679 -1.29872,3.5502 -2.48822,5.05609 -1.62791,-7.8e-4 -3.25582,-4e-4 -4.88374,3.7e-4 -3.17702,0.002 -6.35405,0.006 -9.53107,0.0132 -5.08188,0.008 -10.16441,0.0295 -15.24579,-0.0569 -4.57038,-0.12315 -9.14961,-0.35347 -13.66483,-1.1184 -5.86579,-0.99568 -10.78315,-2.30629 -16.8115,-1.69777 -5.53897,-1e-5 -11.07794,1.1e-4 -16.61691,-0.001 -4.66556,-0.002 -9.33111,-0.005 -13.99666,-0.0138 -3.04336,-0.004 -6.81986,-0.0181 -10.95994,0.0501 -4.27508,0.10253 -8.56258,0.28639 -12.77667,1.07296 -5.63598,1.17484 -11.24767,2.19942 -17.05311,1.74912 -4.78449,-3e-5 -9.56898,-10e-5 -14.35348,-7e-5 -5.70921,1.3e-4 -11.41843,2.2e-4 -17.12765,0.003 -5.78678,0.003 -11.57355,0.009 -17.36033,0.0157 -7.25847,0.002 -14.518,0.0298 -21.77542,-0.11682 -5.75482,-0.16137 -11.52739,-0.39137 -17.19484,-1.49371 -4.83505,-0.93491 -9.58634,-1.67422 -14.54,-1.28315 -2.97036,-8.3e-4 -7.77677,-0.008 -11.46618,0.10806 -4.97047,0.16898 -9.94113,0.47322 -14.83,1.45066 -7.04928,1.16499 -14.04117,1.69709 -21.20192,1.3162 -7.09052,-5.4e-4 -14.18103,-5e-4 -21.27155,-0.004 -7.3331,-0.004 -14.6662,-0.0128 -21.9993,-0.0189 -6.87502,-0.007 -13.75117,0.009 -20.62444,0.17824 -7.94747,0.27338 -15.89091,0.74355 -23.76152,1.94079 -7.65676,1.11868 -15.369852,1.41669 -23.016569,2.60148 -6.774185,1.26927 -13.487164,2.75915 -20.336213,3.60839 -6.376055,0.88403 -12.870555,0.61399 -19.220852,1.80626 -6.59618,1.10823 -13.203336,1.5945 -19.898328,1.31087 -4.622894,-0.004 -9.261377,-0.0132 -13.561414,-0.0127 -5.350215,0.0138 -10.70177,0.0539 -16.046177,0.33185 -7.31552,0.42114 -14.604426,1.14095 -21.859145,2.18319 0,0 -2.796705,-0.40236 -2.796705,-0.40236 z" />
    <path
       style="fill:#000000;fill-opacity:1;fill-rule:nonzero;stroke:#000000;stroke-width:4.69999981;stroke-linecap:round;stroke-linejoin:round;stroke-miterlimit:4;stroke-opacity:1;stroke-dasharray:none;stroke-dashoffset:0"
       id="path3715"
       d="m 358.2137,769.06029 c -1.04003,8.24555 -2.18497,16.54094 -1.86145,24.86431 0.80103,6.31748 3.1417,11.45882 8.36438,15.16468 5.18853,1.94793 11.673,3.8824 17.26627,2.76912 9.11839,-0.62909 17.88816,-3.61783 26.278,-7.09066 7.56623,-4.34843 14.45296,-9.83386 21.09201,-15.47801 5.41704,-5.49582 10.10674,-11.82552 13.86065,-18.56926 2.91963,-4.85853 4.74525,-10.22044 7.07526,-15.35597 1.44252,-2.80445 2.09899,-5.84818 2.46346,-8.95161 0.13575,-3.86804 5.55826,-1.33409 7.9699,-0.74804 2.79301,0.17332 5.27117,1.12846 7.86356,2.0867 3.39898,1.72167 6.55111,3.88771 9.38825,6.42492 4.74053,3.64963 2.87823,4.97783 -2.20538,1.51205 -2.91414,-2.77393 -6.18787,-5.01349 -9.41299,-7.38347 -3.13857,-2.19438 -5.99807,-4.60235 -9.5542,-6.10909 -1.64965,-0.50053 -4.20973,-3.20768 -6.12794,-2.38529 -0.38249,0.16398 1.24528,-0.0299 1.18845,0.38236 -0.0757,0.54895 -0.91388,0.627 -1.37082,0.9405 -4.36291,4.3539 -6.8365,10.13291 -10.16594,15.26378 -2.8215,4.63784 -6.41786,8.52902 -12.03495,9.02718 0,0 -2.80284,-0.42307 -2.80284,-0.42307 l 0,0 c 5.62151,-0.31973 9.21769,-4.14527 12.03497,-8.76578 3.35166,-5.15254 5.83444,-10.93291 10.14651,-15.36968 3.97201,-3.01197 8.20489,-1.12877 11.95011,1.00062 3.53725,1.55123 6.40364,3.98861 9.55399,6.17265 3.24332,2.3468 6.45994,4.65777 9.41819,7.37598 1.3682,0.96134 2.55586,1.18358 -0.49691,2.04398 -0.56336,0.15877 -2.23096,-3.19543 -2.94258,-3.04403 -2.83112,-2.5057 -5.97819,-4.66341 -9.38255,-6.3192 -2.58353,-0.95483 -5.0927,-1.8222 -7.86129,-2.05428 -1.61395,-0.39683 -4.33025,0.14554 -1.36179,-1.08436 0.0597,-0.0247 -1.97782,0.94517 -0.95199,1.48907 -0.37394,3.13048 -1.01905,6.20978 -2.47931,9.03857 -2.33483,5.14347 -4.18343,10.50517 -7.09524,15.37788 -3.75494,6.77625 -8.46414,13.1272 -13.87273,18.66934 -6.64987,5.66654 -13.55971,11.14628 -21.10957,15.56376 -8.38406,3.50234 -17.1625,6.51069 -26.28079,7.18503 -7.71139,0.26704 -15.7125,0.49424 -22.84912,-2.92517 -5.21192,-3.82112 -7.57425,-9.03568 -8.36168,-15.42062 -0.30551,-8.34074 0.83277,-16.64812 1.84289,-24.91498 0,0 2.82521,0.0401 2.82521,0.0401 z" />
    <path
       style="fill:#000000;fill-opacity:1;fill-rule:nonzero;stroke:#000000;stroke-width:4.69999981;stroke-linecap:round;stroke-linejoin:round;stroke-miterlimit:4;stroke-opacity:1;stroke-dasharray:none;stroke-dashoffset:0"
       id="path3717"
       d="m 506.10104,705.90685 c -3.12423,6.75409 -5.67006,13.89274 -6.2444,21.34728 -0.30212,4.83934 1.55152,8.3482 6.11755,9.93559 1.70919,0.87901 3.94032,-0.63953 7.20212,-3.29243 2.91482,-3.16763 5.38445,-6.65628 9.67448,-7.87057 5.80879,-0.59228 7.65265,1.93596 10.94201,5.97742 2.10136,1.55958 3.62691,3.87725 5.75071,5.3962 0.38348,0.27427 1.39237,0.20299 1.25423,0.65375 -0.13982,0.45625 -0.95277,-0.0553 -1.42915,-0.0829 5.24869,-3.1554 4.31139,-12.55035 4.60207,-17.77495 0.064,-1.80717 0.12804,-3.61433 0.19206,-5.4215 0,0 2.78606,0.01 2.78606,0.01 l 0,0 c -0.0646,1.8089 -0.12924,3.6178 -0.19385,5.4267 -0.29235,5.51122 0.60314,14.60838 -4.58184,18.20115 -1.39918,-0.0184 -2.81215,0.14166 -4.19753,-0.0552 -2.81775,-0.40045 -4.61381,-4.93312 -7.0061,-6.15959 -1.18908,-1.45447 -2.3411,-3.08008 -3.77549,-4.31211 -0.37519,-0.32226 -0.77334,-0.63214 -1.22006,-0.8444 -0.46413,-0.22053 -1.25427,0.0249 -1.47813,-0.43765 -0.17203,-0.35543 0.77772,-0.13738 1.16658,-0.20607 -4.33673,1.07905 -6.79426,4.54549 -9.6672,7.75065 -3.88483,3.16909 -7.48468,5.13829 -12.83243,3.38657 -4.58143,-1.75295 -6.42779,-5.39997 -6.12145,-10.30237 0.58924,-7.48794 3.13148,-14.65424 6.23567,-21.45643 0,0 2.82409,0.13103 2.82409,0.13103 z" />
    <path
       style="fill:#000000;fill-opacity:1;fill-rule:nonzero;stroke:#000000;stroke-width:4.69999981;stroke-linecap:round;stroke-linejoin:round;stroke-miterlimit:4;stroke-opacity:1;stroke-dasharray:none;stroke-dashoffset:0"
       id="path3719"
       d="m 95.277556,691.49663 c 9.984774,-3.3579 19.599734,-7.73946 28.559924,-13.26867 9.32238,-6.23205 18.37665,-12.86023 27.50206,-19.37712 7.27805,-5.18904 13.87918,-11.21669 20.89972,-16.73263 2.89462,-2.25291 5.79525,-4.49862 8.72917,-6.70028 1.00188,-0.86126 0.59629,-2.80552 0.58204,-3.99167 0.2223,-1.49122 0.73473,-2.90702 1.23339,-4.32104 0,0 2.83746,0.0969 2.83746,0.0969 l 0,0 c -0.49388,1.38086 -1.00153,2.76356 -1.22887,4.22034 0.0186,1.24555 0.41796,3.33739 -0.58748,4.26008 -2.95435,2.1891 -5.86454,4.43724 -8.77087,6.68941 -7.03183,5.51423 -13.64309,11.5396 -20.91939,16.74354 -9.13023,6.52014 -18.19581,13.14151 -27.51086,19.39459 -8.94388,5.56127 -18.55993,9.93306 -28.525288,13.35063 0,0 -2.801006,-0.36405 -2.801006,-0.36405 z" />
    <path
       style="fill:#000000;fill-opacity:1;fill-rule:nonzero;stroke:#000000;stroke-width:4.69999981;stroke-linecap:round;stroke-linejoin:round;stroke-miterlimit:4;stroke-opacity:1;stroke-dasharray:none;stroke-dashoffset:0"
       id="path3721"
       d="m 178.07641,612.50276 c 7.15222,1.13334 14.36391,1.77676 21.58976,2.18308 4.68069,0.4418 9.21818,-1.34301 13.94125,-1.39759 5.66938,0.13197 5.77994,2.24023 4.09022,6.5482 -2.10983,4.49914 -5.20287,8.36213 -8.01906,12.41589 -2.8368,4.62101 -6.33564,8.79309 -9.18394,13.40093 -0.66681,2.42662 -3.90386,3.12352 -5.21267,0.65647 0,0 2.84344,-0.14724 2.84344,-0.14724 l 0,0 c 0.91027,1.47985 -3.30382,2.75514 -0.45876,-0.66587 2.84973,-4.61683 6.36901,-8.78012 9.20074,-13.41486 2.79408,-4.04198 5.88224,-7.87947 7.99381,-12.35201 0.42263,-1.06372 1.26425,-2.56838 1.15314,-3.76325 -0.0344,-0.36968 -0.18169,-0.73385 -0.38267,-1.04601 -0.1838,-0.28547 -0.92549,-0.41408 -0.74086,-0.69902 0.28808,-0.4446 1.0078,-0.32708 1.5117,-0.49062 -6.49748,-0.0711 -12.93038,2.59128 -19.51614,1.37905 -7.23166,-0.41772 -14.44721,-1.0785 -21.60666,-2.20478 0,0 2.7967,-0.40237 2.7967,-0.40237 z" />
    <path
       style="fill:#000000;fill-opacity:1;fill-rule:nonzero;stroke:#000000;stroke-width:4.69999981;stroke-linecap:round;stroke-linejoin:round;stroke-miterlimit:4;stroke-opacity:1;stroke-dasharray:none;stroke-dashoffset:0"
       id="path3723"
       d="m 88.271182,750.99865 c -3.86587,2.91321 -7.9183,7.21424 -7.253939,12.42355 -0.40776,0.33722 4.917127,3.94811 5.080179,2.36388 0.199269,-1.93612 -3.966994,1.02198 0.05668,-1.35779 3.335119,-3.31698 4.504627,-8.12367 5.427882,-12.58537 0.969219,-7.74621 2.58563,-15.39648 5.019904,-22.81363 2.501079,-6.8782 6.937942,-12.31666 13.034452,-16.26109 4.72735,-2.55518 10.05078,-3.20346 15.32782,-3.52665 2.50588,-0.078 5.02144,-0.17477 7.52634,-0.0277 0,0 -2.81921,0.43175 -2.81921,0.43175 l 0,0 c -0.87079,-0.038 -2.79089,-0.0564 0.95077,-0.0389 0.95351,0.004 -4.44268,0.0141 -2.85991,0.0612 -5.263,0.29527 -10.58062,0.89538 -15.32401,3.38189 -6.09977,3.85685 -10.52779,9.24114 -13.031586,16.06871 -2.444304,7.40262 -4.05734,15.04395 -5.008847,22.78154 -0.929892,4.54548 -2.125023,9.36609 -5.422401,12.81844 -3.396357,2.11584 -8.482887,2.45859 -10.794393,-1.262 -0.614466,-5.30454 3.291919,-9.71695 7.273129,-12.71096 0,0 2.817142,0.25311 2.817142,0.25311 z" />
    <path
       style="fill:#000000;fill-opacity:1;fill-rule:nonzero;stroke:#000000;stroke-width:4.69999981;stroke-linecap:round;stroke-linejoin:round;stroke-miterlimit:4;stroke-opacity:1;stroke-dasharray:none;stroke-dashoffset:0"
       id="path3725"
       d="m 66.101039,737.33542 c -2.810411,5.24468 -4.914858,10.80263 -6.579546,16.50282 -1.228127,3.15075 0.926193,3.72355 3.575336,4.04919 -0.458176,-0.0847 -1.369249,0.21184 -1.374529,-0.25407 -0.0054,-0.47699 0.927622,-0.23781 1.366846,-0.42391 0.524643,-0.22229 1.020326,-0.50931 1.512657,-0.79614 1.653364,-0.96327 2.514063,-1.95325 3.51162,-3.56205 2.283105,-5.07647 3.276049,-10.50657 3.999453,-15.98652 0.323448,-6.70907 0.691095,-13.11873 2.897816,-19.4955 1.913892,-4.8934 5.521289,-8.48232 9.833343,-11.30754 2.686987,-1.54174 5.77024,-1.59343 8.775163,-0.93959 0,0 -2.816126,0.38976 -2.816126,0.38976 l 0,0 c -0.352196,-0.0628 -1.351653,0.014 -1.056587,-0.18833 0.394529,-0.27047 1.819753,-0.35183 1.433308,-0.0699 -0.992423,0.72394 -2.788744,-0.4661 -3.520591,1.08923 -4.297328,2.75926 -7.915476,6.27631 -9.831828,11.12062 -2.218026,6.35774 -2.585518,12.74206 -2.899552,19.43816 -0.725604,5.51718 -1.725338,10.97953 -3.984925,16.10426 -2.409897,4.04667 -5.984639,5.40986 -10.657732,5.28828 -2.777137,-0.40839 -4.829909,-1.35753 -3.592264,-4.53666 1.682941,-5.71089 3.786677,-11.28431 6.584051,-16.55311 0,0 2.824087,0.13103 2.824087,0.13103 z" />
    <path
       style="fill:#000000;fill-opacity:1;fill-rule:nonzero;stroke:#000000;stroke-width:4.69999981;stroke-linecap:round;stroke-linejoin:round;stroke-miterlimit:4;stroke-opacity:1;stroke-dasharray:none;stroke-dashoffset:0"
       id="path3729"
       d="m 32.15678,694.79383 c -2.810854,13.27756 -5.756736,26.52284 -8.602202,39.79345 -2.199828,11.77004 -5.834433,23.05609 -12.18585,33.22732 -0.467524,0.6643 -0.935048,1.3286 -1.402572,1.9929 0,0 -2.8199012,-0.17425 -2.8199012,-0.17425 l 0,0 C 7.6175989,768.97444 8.088943,768.31562 8.5602871,767.6568 14.964971,757.53991 18.609224,746.28115 20.803992,734.52924 23.6427,721.2553 26.60483,708.0125 29.333308,694.71523 c 0,0 2.823472,0.0786 2.823472,0.0786 z" />
    <path
       style="fill:#000000;fill-opacity:1;fill-rule:nonzero;stroke:#000000;stroke-width:4.69999981;stroke-linecap:round;stroke-linejoin:round;stroke-miterlimit:4;stroke-opacity:1;stroke-dasharray:none;stroke-dashoffset:0"
       id="path3731"
       d="m -53.638535,751.50245 c 6.819219,-2.14874 14.352781,-4.11166 21.322828,-1.50792 4.633964,2.43179 6.508679,6.20316 7.489554,11.1242 0.995189,4.45311 -0.53432,7.68988 -3.562061,10.79584 0,0 -2.824167,-0.22007 -2.824167,-0.22007 l 0,0 c 3.009261,-3.02506 4.555595,-6.12162 3.561227,-10.51975 -0.980218,-4.83916 -2.861629,-8.52244 -7.467761,-10.83507 -0.852764,-0.29563 -1.574248,-1.07743 -2.476641,-1.09437 -4.567999,-0.0858 -8.934586,1.25569 -13.236175,2.60955 0,0 -2.806804,-0.35241 -2.806804,-0.35241 z" />
    <path
       style="fill:#000000;fill-opacity:1;fill-rule:nonzero;stroke:#000000;stroke-width:4.69999981;stroke-linecap:round;stroke-linejoin:round;stroke-miterlimit:4;stroke-opacity:1;stroke-dasharray:none;stroke-dashoffset:0"
       id="path3733"
       d="m -47.160756,740.81058 c 0.167477,9.81504 -1.37465,19.5485 -3.720553,29.04941 -1.639272,7.03126 -3.91797,13.87198 -6.14947,20.73025 -0.185208,0.56674 -0.370416,1.13348 -0.555624,1.70021 0,0 -2.832279,-0.0901 -2.832279,-0.0901 l 0,0 c 0.187869,-0.56649 0.375737,-1.13298 0.563606,-1.69947 2.254072,-6.84707 4.532435,-13.68365 6.181268,-20.70869 2.352739,-9.47458 3.904713,-19.18938 3.691707,-28.98161 0,0 2.821345,0 2.821345,0 z" />
    <path
       style="fill:#000000;fill-opacity:1;fill-rule:nonzero;stroke:#000000;stroke-width:4.69999981;stroke-linecap:round;stroke-linejoin:round;stroke-miterlimit:4;stroke-opacity:1;stroke-dasharray:none;stroke-dashoffset:0"
       id="path3735"
       d="m -70.357727,737.63172 c -0.578739,6.31636 -2.21817,12.35596 -5.557224,17.75581 0,0 -2.827365,-0.15798 -2.827365,-0.15798 l 0,0 c 3.37043,-5.34468 5.018865,-11.34724 5.559373,-17.63793 0,0 2.825216,0.0401 2.825216,0.0401 z" />
    <path
       style="fill:#000000;fill-opacity:1;fill-rule:nonzero;stroke:#000000;stroke-width:4.69999981;stroke-linecap:round;stroke-linejoin:round;stroke-miterlimit:4;stroke-opacity:1;stroke-dasharray:none;stroke-dashoffset:0"
       id="path3737"
       d="m -108.31118,742.17411 c 5.43619,4.26708 10.981675,8.29927 15.379651,13.67934 2.504454,3.48457 3.010002,6.76341 1.383959,10.69746 -1.859055,4.26733 -5.429737,6.22896 -9.62284,7.68449 -4.91983,2.43795 -10.09176,2.2738 -15.45952,1.87688 -2.42628,-1.16187 -1.27798,-0.49655 -3.45135,-1.98477 0,0 2.81818,-0.2769 2.81818,-0.2769 l 0,0 c 2.16008,1.42191 1.01709,0.80577 3.43435,1.83841 2.20217,0.15089 6.1601,0.2372 9.85114,-1.80408 4.157002,-1.39348 7.733812,-3.22705 9.600073,-7.44651 1.632034,-3.8315 1.091099,-7.0035 -1.371426,-10.3913 -4.398627,-5.3576 -9.951477,-9.36952 -15.379367,-13.61991 0,0 2.81715,-0.25311 2.81715,-0.25311 z" />
    <path
       style="fill:#000000;fill-opacity:1;fill-rule:nonzero;stroke:#000000;stroke-width:4.69999981;stroke-linecap:round;stroke-linejoin:round;stroke-miterlimit:4;stroke-opacity:1;stroke-dasharray:none;stroke-dashoffset:0"
       id="path3739"
       d="m -121.44423,683.32596 c 0.3154,13.00398 -0.95116,25.94303 -2.91461,38.77908 -2.097,15.04781 -5.26404,29.92904 -9.7389,44.44642 -0.96897,3.07012 -2.47635,5.71474 -4.46696,8.1922 0,0 -2.82445,-0.19398 -2.82445,-0.19398 l 0,0 c 2.02277,-2.42767 3.53274,-5.03023 4.50795,-8.08193 4.51942,-14.49355 7.6886,-29.3648 9.77313,-44.40437 1.95508,-12.82137 3.21998,-25.74903 2.83802,-38.73742 0,0 2.82582,0 2.82582,0 z" />
    <path
       style="fill:#000000;fill-opacity:1;fill-rule:nonzero;stroke:#000000;stroke-width:4.69999981;stroke-linecap:round;stroke-linejoin:round;stroke-miterlimit:4;stroke-opacity:1;stroke-dasharray:none;stroke-dashoffset:0"
       id="path3741"
       d="m -179.40316,732.8695 c 5.93422,1.89731 11.97953,3.88492 17.2275,7.30751 3.34191,2.0642 1.89541,4.76301 -0.0284,7.26162 -3.5823,3.53041 -6.62362,7.277 -9.08456,11.67295 -3.9683,7.98219 -6.70467,16.54226 -9.1525,25.09739 -2.1573,9.19956 -3.60494,18.57583 -5.01571,27.92065 -0.99139,6.63149 -1.33551,13.32722 -1.58413,20.01944 0,0 -2.81159,-0.0107 -2.81159,-0.0107 l 0,0 c 0.26249,-6.70228 0.59896,-13.40925 1.59861,-20.0506 1.40989,-9.35707 2.86919,-18.74404 5.02347,-27.95637 2.44305,-8.57575 5.18413,-17.15059 9.13112,-25.16276 2.44681,-4.41511 5.44586,-8.20574 9.06684,-11.71744 1.89465,-2.40369 3.31212,-4.81567 0.043,-6.79296 -5.25773,-3.38225 -11.29765,-5.34744 -17.22041,-7.23629 0,0 2.8068,-0.35242 2.8068,-0.35242 z" />
    <path
       style="fill:#000000;fill-opacity:1;fill-rule:nonzero;stroke:#000000;stroke-width:4.69999981;stroke-linecap:round;stroke-linejoin:round;stroke-miterlimit:4;stroke-opacity:1;stroke-dasharray:none;stroke-dashoffset:0"
       id="path3747"
       d="m 41.865367,743.6919 c -4.60129,0.50656 -9.125312,1.80708 -13.229296,3.94718 -2.619447,1.45362 -5.346848,2.93611 -7.002379,5.51197 -0.981556,1.74415 -0.904811,3.51575 0.0176,5.24671 1.479775,1.84218 3.370241,3.43354 5.485355,4.50452 1.566773,1.30617 3.591719,1.66998 5.378021,2.53138 1.166122,0.49916 2.348837,0.95823 3.537508,1.40054 0,0 -3.167522,0.38533 -3.167522,0.38533 l 0,0 c -1.185295,-0.45191 -2.366617,-0.91546 -3.528745,-1.42455 -1.818518,-0.79923 -3.776721,-1.29988 -5.374648,-2.54864 -2.117593,-1.15786 -4.05966,-2.76309 -5.50357,-4.69855 -0.906295,-1.8463 -1.028193,-3.72358 -0.0143,-5.5741 1.622644,-2.66369 4.377698,-4.19658 7.044176,-5.67495 4.080222,-2.19552 8.620858,-3.5262 13.222579,-4.0579 0,0 3.135225,0.45106 3.135225,0.45106 z" />
    <path
       style="fill:#000000;fill-opacity:1;fill-rule:nonzero;stroke:#000000;stroke-width:4.69999981;stroke-linecap:round;stroke-linejoin:round;stroke-miterlimit:4;stroke-opacity:1;stroke-dasharray:none;stroke-dashoffset:0"
       id="path3749"
       d="m 449.69423,474.19068 c 4.59504,0.6615 9.22376,1.0045 13.85842,1.21684 2.71533,0.108 5.43269,0.15043 8.14991,0.17057 0.52909,0.004 1.85072,0.46725 1.58731,0.008 -0.28008,-0.48791 -1.11954,-0.11243 -1.67931,-0.16864 2.41548,-0.44776 4.81661,-0.95865 7.25866,-1.24078 1.90643,-0.17724 3.82193,-0.19908 5.73503,-0.21102 1.62786,0.27078 5.73631,-1.02584 6.64411,0.81925 0.72291,1.73331 1.22437,3.52293 1.56164,5.37164 0.35813,2.46189 -0.34295,4.93784 -0.75087,7.36075 -0.1065,1.90042 -0.50986,3.65187 -1.15948,5.43097 -0.43262,1.7683 -0.946,3.34766 -2.45885,4.44659 -1.67232,0.97553 -3.60926,1.04136 -5.49232,1.109 -3.3449,0.0575 -6.69078,0.0228 -10.03599,0.007 -2.37171,0.25407 -4.58343,-0.48848 -6.85518,-1.01595 -1.90147,-0.39437 -3.83797,-0.51906 -5.77374,-0.58566 -1.37667,-0.35764 -2.7511,-0.68173 -3.5103,-1.94913 -0.45887,-1.39806 -0.40078,-2.89156 -0.4034,-4.34458 0.0138,-2.46051 0.0246,-4.92102 0.0332,-7.38155 0.007,-2.37821 0.005,-4.75644 0.006,-7.13466 -0.002,-1.24458 -0.007,-2.48914 -0.008,-3.73372 0.004,-1.08145 0.006,-2.16288 0.006,-3.24433 0,0 3.17841,-10e-6 3.17841,-10e-6 l 0,0 c -2.7e-4,1.08144 0.003,2.16287 0.006,3.24431 -9.5e-4,1.24462 -0.005,2.48922 -0.008,3.73384 -7.4e-4,2.37852 -0.005,4.75703 -0.0104,7.13554 -0.007,2.45979 -0.0248,4.91954 -0.0244,7.37935 0.008,1.3897 -0.0672,2.83763 0.40979,4.16447 0.76738,1.11837 2.2118,1.37828 3.46902,1.64471 1.93877,0.0797 3.87772,0.22744 5.77726,0.64758 2.26209,0.54425 4.48183,1.18008 6.8419,0.94496 1.18891,0.006 2.37781,0.0127 3.56672,0.0157 -4.45054,0.041 -0.67249,-0.0157 0.19969,-0.0142 1.85403,-0.0501 3.77486,-0.0665 5.46372,-0.93349 1.56888,-0.96489 2.02367,-2.52438 2.44407,-4.24773 0.65326,-1.76082 1.0645,-3.48541 1.1643,-5.37233 0.41015,-2.38429 1.10827,-4.82598 0.75146,-7.24939 -0.33761,-1.81369 -0.82516,-3.57309 -1.5728,-5.26267 -0.35509,-0.50433 -0.52007,-0.48535 -1.13191,-0.48735 -0.21866,-7.2e-4 -0.87464,-0.001 -0.65598,-0.002 0.32946,-5.6e-4 3.99308,-0.002 1.47079,-8.4e-4 -1.9127,0.007 -3.82729,0.0221 -5.73492,0.17748 -2.44865,0.25446 -4.85684,0.75067 -7.2691,1.233 -4.76606,0.21516 -9.52694,0.26616 -14.29488,0.0118 -4.645,-0.223 -9.28262,-0.58333 -13.88858,-1.24265 0,0 3.13523,-0.45107 3.13523,-0.45107 z" />
    <path
       style="fill:#000000;fill-opacity:1;fill-rule:nonzero;stroke:#000000;stroke-width:4.69999981;stroke-linecap:round;stroke-linejoin:round;stroke-miterlimit:4;stroke-opacity:1;stroke-dasharray:none;stroke-dashoffset:0"
       id="path3751"
       d="m -17.872812,485.01797 c 5.81197,-0.64676 11.62267,-1.20965 17.399598,-2.13945 7.230008,-1.13651 14.35276,-2.84104 21.555348,-4.12741 5.73739,-1.05247 11.343409,-2.66819 17.066271,-3.78408 3.127299,-0.3011 6.131587,-1.08964 9.146652,-1.9209 2.140783,-0.61868 6.502673,-1.55184 4.71225,1.74854 -1.408294,2.40149 -3.033303,4.66619 -4.470879,7.05072 -2.300387,3.65923 -3.909412,7.71133 -5.349064,11.77267 -1.180541,3.87605 -2.470902,7.71005 -3.277043,11.68662 -0.541263,1.74667 -0.181949,3.67317 -0.731499,5.39616 -0.495162,1.38246 -1.476813,1.82084 -2.843002,2.05753 -3.691797,0.29603 -7.41991,0.17348 -11.119251,0.17187 -3.2588,0.15537 -6.554782,-0.23755 -9.809413,-0.0171 -0.08421,0.006 0.262684,0.16595 0.17927,0.1788 -0.998772,0.15384 -2.013721,0.17257 -3.020582,0.25885 -5.833871,0.3645 -11.627111,0.95989 -17.415921,1.75674 -2.639706,0.19648 -9.068451,1.88668 -11.05269,0.21712 -1.239437,-2.225 -0.570995,-4.73005 0.106108,-7.02684 1.185077,-3.98344 2.107959,-8.04159 3.287845,-12.02512 0.813612,-3.29014 2.031374,-6.4475 3.070246,-9.66714 0.473105,-1.68564 0.619649,-3.3901 1.270669,-5.01518 0.09465,-0.22815 0.189299,-0.45629 0.283948,-0.68444 0,0 3.181135,0.12578 3.181135,0.12578 l 0,0 c -0.09508,0.22669 -0.190151,0.45339 -0.285226,0.68009 -0.650688,1.61805 -0.820599,3.3078 -1.281723,4.9933 -1.05132,3.21552 -2.278241,6.36841 -3.092501,9.65864 -1.190146,3.97931 -2.104728,8.03892 -3.2749,12.02534 -0.636068,2.12385 -1.380275,4.60966 -0.095,6.6346 1.153116,0.68598 1.002057,0.45943 -1.778806,0.43444 -0.378884,-0.003 0.753914,-0.0767 1.13059,-0.11769 1.812245,-0.19724 3.622286,-0.41653 5.426048,-0.68122 5.794948,-0.79455 11.58927,-1.42308 17.430906,-1.77029 6.273736,-0.55297 12.562849,-0.48657 18.854803,-0.45169 -0.410125,5.5e-4 -1.6405,0.002 -1.230375,0.002 2.027797,-10e-4 4.062977,0.04 6.085274,-0.13217 1.291726,-0.15699 2.303356,-0.39204 2.807924,-1.71023 0.61184,-1.68173 0.168054,-3.64096 0.754376,-5.35528 0.814524,-3.99113 2.122558,-7.83656 3.301063,-11.72957 1.431839,-4.08143 3.041269,-8.15529 5.334823,-11.83663 1.42286,-2.38728 3.041771,-4.64953 4.443912,-7.04776 0.200353,-0.31997 0.474649,-0.60636 0.459592,-1.01264 -0.0041,-0.10939 -0.222302,-0.28531 -0.115121,-0.30755 5.188133,-1.07668 2.370912,-0.04 1.271003,0.15175 -3.031264,0.82658 -6.035774,1.68021 -9.186081,1.94018 -5.738761,1.09278 -11.351779,2.71855 -17.097291,3.78441 -7.206079,1.26961 -14.325664,2.98805 -21.554587,4.13198 -5.756555,0.94775 -11.547879,1.51824 -17.343476,2.15365 0,0 -3.135225,-0.45107 -3.135225,-0.45107 z" />
    <path
       style="fill:#ff0000;fill-opacity:1;fill-rule:nonzero;stroke:none"
       id="path4309"
       d="m 441.3303,-53.442444 c 0.68222,3.296368 0.82199,6.665708 1.31931,9.986342 0.8384,4.422102 1.1867,8.910299 1.38381,13.400147 0.16158,5.178406 0.16376,10.359912 0.16257,15.540313 0.0212,4.5973518 0.0192,9.194657 0.0414,13.79201624 -0.0275,3.67207536 0.18344,7.34892116 -0.18333,11.00679576 -0.52778,3.46531 -0.97885,6.936946 -1.1929,10.436489 -0.1629,2.806801 -0.17734,5.619071 -0.19109,8.429657 -0.0249,2.893598 0.0186,5.786881 0.0216,8.680398 0.26979,2.173719 -0.35979,4.18484 -0.92869,6.244996 -0.43075,1.534002 -0.53184,3.121878 -0.6045,4.704444 0.15337,2.027348 -0.44163,3.906723 -0.99681,5.821017 -0.5436,1.831279 -0.44547,3.75514 -0.81441,5.613272 -0.48127,1.634948 -0.92147,3.275675 -1.2181,4.954649 0.62697,0.83239 1.90414,0.997303 2.92158,1.164463 1.88539,0.231798 3.78512,0.250789 5.68172,0.256077 5.32469,-0.01053 1.1163,-0.0015 -12.38298,-0.0064 -0.28878,-1.03e-4 0.57755,6.96e-4 0.86633,1.38e-4 0.86674,-0.0017 1.73348,-0.0061 2.60022,-0.0077 1.94933,-0.0086 3.89868,-0.0085 5.84802,-0.0066 6.74416,-0.0082 13.48833,0.0053 20.23249,-0.0027 2.19954,-0.282552 4.17793,0.437582 6.29392,0.877299 -2.83592,0.361764 6.52688,0.523907 3.55384,0.523439 -22.20088,-0.0035 -15.048,0.272226 -9.935,-0.464957 2.93454,-0.48317 5.90109,-0.698745 8.86871,-0.84048 2.59219,0.07009 5.0729,-0.714467 7.60051,-1.154476 2.56288,-0.398828 5.15546,-0.481416 7.7438,-0.526616 7.71015,-0.05364 15.42068,-0.02376 23.131,-0.01316 2.82138,0.0011 5.64276,0.0013 8.46414,0.0031 2.84291,-0.315775 5.4849,0.313654 8.23715,0.863619 2.46082,0.403815 4.84691,0.617833 7.23842,1.325278 0.89033,0.283616 1.76468,0.570954 2.68281,0.745879 0.24121,0.04596 0.97075,0.129405 0.7252,0.129293 -13.56217,-0.0062 -16.46059,-3.625048 -13.39293,0.08455 0.16098,-0.628121 -0.26789,-1.323288 -0.49331,-1.886713 0,0 14.22567,-0.510043 14.22567,-0.510043 l 0,0 c 0.37392,1.059525 0.78967,2.091228 0.57585,3.240409 -2.11779,6.358059 -12.93522,1.480999 -18.40544,0.04457 -2.36861,-0.589655 -4.82332,-0.637796 -7.19555,-1.233274 -2.7173,-0.545611 -5.41346,-0.73677 -8.18964,-0.587892 -2.81117,1.81e-4 -5.62234,-0.0029 -8.4335,-0.0093 -13.14639,-0.01422 19.10374,-0.03212 6.25828,-0.0024 -0.47588,0.0011 -0.95175,0.0034 -1.42762,0.0052 -2.57051,0.02072 -5.14467,0.04657 -7.70243,0.33488 -2.57382,0.333605 -5.04325,1.210702 -7.62912,1.310888 -2.96323,0.08864 -5.93147,0.230358 -8.86552,0.679691 -7.157,1.151866 -14.60098,1.497611 -21.69155,-0.137748 -2.09429,-0.460146 -4.15039,-0.725439 -6.30293,-0.573358 -5.28414,-0.0066 -1.57967,-0.0016 12.0085,-1.14e-4 3.25432,3.54e-4 -7.53412,-0.0014 -4.13798,-0.0019 -1.93877,0.0032 -3.87754,0.005 -5.81631,0.0079 -6.41432,0.02615 -12.82929,0.07832 -19.24332,9.61e-4 -1.921,-0.04954 -3.8624,-0.112277 -5.72942,-0.612414 -1.58957,-0.59795 -2.99281,-1.434842 -3.09758,-3.302955 0.37612,-1.678527 0.7777,-3.348135 1.29918,-4.988087 0.48805,-1.85854 0.209,-3.854873 0.78442,-5.714621 0.5668,-1.805165 1.22138,-3.522895 0.99232,-5.457001 0.0519,-1.687545 0.17673,-3.386719 0.62644,-5.021211 0.50425,-1.957782 1.26305,-3.797682 0.99379,-5.872243 -0.003,-2.895279 0.0278,-5.790409 0.007,-8.685729 0.001,-2.844132 -0.0136,-5.692234 0.19044,-8.530833 0.30584,-3.506 0.69707,-6.999028 1.2667,-10.473558 0.36866,-3.6063044 0.0898,-7.2447146 0.20689,-10.86590626 0.0296,-4.59652194 0.0406,-9.19302714 0.0626,-13.78957474 -0.011,-5.1586 0.003,-10.319513 -0.20475,-15.474947 -0.22897,-4.442419 -0.58022,-8.880577 -1.45731,-13.250192 -0.5264,-3.281108 -0.61184,-6.638097 -1.52331,-9.853322 0,0 14.27042,-0.349665 14.27042,-0.349665 z"
       transform="translate(-192.20255,466.77126)" />
    <path
       style="fill:#ff0000;fill-opacity:1;fill-rule:nonzero;stroke:none"
       id="path4311"
       d="m 437.33919,65.610842 c -2.63205,2.427966 -5.19775,4.897215 -8.10781,6.991669 -3.78719,2.718328 -7.59519,5.406353 -11.24917,8.303123 -3.45944,2.847228 -6.97919,5.625974 -10.5219,8.369366 -3.12859,2.783237 -6.34703,5.460765 -9.52937,8.182897 -3.03017,2.516448 -6.28401,4.732263 -9.49066,7.011033 -2.9245,2.17076 -5.85986,4.33432 -8.84774,6.41757 -2.2571,1.6846 -4.5538,3.3112 -6.73267,5.09727 -1.94152,1.73401 -3.69993,3.66767 -5.47909,5.5673 -2.00823,2.31473 -3.97792,4.66184 -6.03479,6.93452 -3.94898,5.37676 -13.05294,12.97204 -19.18286,2.61464 -0.18906,-0.39529 -0.37811,-0.79059 -0.56716,-1.18589 0,0 14.19033,-0.71928 14.19033,-0.71928 l 0,0 c 0.18818,0.28476 0.37635,0.56952 0.56453,0.85428 4.70052,2.08883 1.48065,0.54081 -12.60349,0.65134 -0.30928,0.002 0.6146,-0.1167 0.89339,-0.25064 1.26583,-0.60814 1.68455,-2.04619 2.61346,-3.00759 2.07523,-2.26258 4.09499,-4.57178 5.98947,-6.98924 1.89263,-1.84349 3.54175,-3.93592 5.51652,-5.69451 2.15382,-1.89409 4.50517,-3.50722 6.76835,-5.26008 3.07508,-1.94882 5.96651,-4.21574 8.9067,-6.35772 3.15462,-2.31393 6.43209,-4.447487 9.49558,-6.888225 3.18102,-2.770109 6.50014,-5.372262 9.57974,-8.257121 3.55673,-2.72278 7.04959,-5.540269 10.54276,-8.34067 3.62713,-2.933828 7.41869,-5.644558 11.1873,-8.391456 2.86304,-1.997371 5.43282,-4.27713 7.8719,-6.77225 0,0 14.22668,1.119664 14.22668,1.119664 z"
       transform="translate(-192.20255,466.77126)" />
    <path
       style="fill:#ff0000;fill-opacity:1;fill-rule:nonzero;stroke:none"
       id="path4313"
       d="m 523.6025,-59.268751 c -2.89791,1.237481 -5.92422,2.11561 -8.86544,3.250907 -1.88745,0.75079 -3.90389,1.903712 -4.18601,4.087832 0.18977,2.022267 0.31609,4.120685 1.42752,5.861357 1.21127,2.197108 3.1523,3.802285 4.99484,5.455683 2.61238,1.739766 5.08544,3.648805 7.49307,5.657922 1.95698,1.687607 3.86965,3.362895 5.29484,5.528575 1.26309,2.293338 0.52954,3.981945 -1.10159,5.812206 -2.40656,2.465303 -5.81504,3.515895 -9.03678,4.47066 -3.11165,0.808129 -6.32692,1.005506 -9.51973,1.228017 0,0 -13.83563,-2.104329 -13.83563,-2.104329 l 0,0 c 3.14945,-0.168178 6.31611,-0.308377 9.41383,-0.95004 3.03091,-0.766954 6.39712,-1.661731 8.79392,-3.735416 1.37435,-1.303854 2.28516,-2.051149 1.06777,-3.869571 -1.41555,-1.998225 -3.35458,-3.528718 -5.17522,-5.142725 -2.41513,-2.015091 -5.01084,-3.779514 -7.49494,-5.704802 -1.96208,-1.740816 -3.85545,-3.575437 -5.08313,-5.932355 -1.02092,-2.10929 -1.35281,-4.412803 -1.48516,-6.743075 0.29815,-2.670073 1.93442,-4.517994 4.36474,-5.628193 2.91338,-1.085234 5.82315,-2.107065 8.75748,-3.11855 0,0 14.17562,1.575897 14.17562,1.575897 z"
       transform="translate(-192.20255,466.77126)" />
    <path
       style="fill:#ff0000;fill-opacity:1;fill-rule:nonzero;stroke:none"
       id="path4315"
       d="m 544.35708,-78.141042 c 3.1426,3.045041 5.30901,6.75185 6.95318,10.767927 0.22746,0.628958 0.45491,1.257916 0.68237,1.886874 0,0 -14.06084,0.477329 -14.06084,0.477329 l 0,0 c -0.20782,-0.60412 -0.41563,-1.20824 -0.62345,-1.81236 -1.61826,-3.832323 -3.79886,-7.412442 -7.13525,-10.000712 0,0 14.18399,-1.319058 14.18399,-1.319058 z"
       transform="translate(-192.20255,466.77126)" />
    <path
       style="fill:#ff0000;fill-opacity:1;fill-rule:nonzero;stroke:none"
       id="path4317"
       d="m 448.09752,293.50411 c 2.73924,2.53914 4.05964,5.79475 4.91911,9.34052 1.26494,4.80758 1.96308,9.73297 1.93749,14.70129 -0.26638,4.74751 -0.71587,9.48065 -0.90448,14.23262 0.15318,2.87031 -0.44329,5.61437 -1.09343,8.38138 -0.47648,2.1931 -0.55819,4.44311 -0.62713,6.67833 -0.37971,2.24765 -0.98703,4.44265 -1.31454,6.70148 -0.68696,1.8953 -1.15211,3.86282 -1.80091,5.76762 -0.0799,0.84562 -1.40119,2.22425 -1.01264,3.10676 0.10134,0.23017 0.4579,0.20853 0.69112,0.30265 0.21123,0.0875 3.15936,0.15945 2.89962,0.15796 -13.57916,-0.078 -17.50139,0.75953 -12.21505,-0.27853 2.30514,-0.64053 4.66249,-0.99965 7.04263,-1.19185 2.63991,0.0805 5.17561,-0.52612 7.74601,-1.01387 3.10377,-0.54583 6.25878,-0.6453 9.40195,-0.71098 8.49175,-0.0835 16.98436,-0.0425 25.47641,-0.0358 -24.47777,1.03185 -6.91143,-0.80299 -1.22463,-1.2527 3.82832,-0.28561 7.66802,-0.31881 11.50486,-0.34475 6.40105,-0.0387 12.79916,0.0461 19.19946,0.26507 1.31028,0.0448 2.81286,0.57137 4.10773,0.82568 10.38464,0.80449 -7.06699,4.11163 -12.33657,0.8273 0,0 14.17659,-1.28068 14.17659,-1.28068 l 0,0 c 5.16133,4.91046 -11.52354,3.51476 -15.90145,2.39942 -1.55114,-0.31001 -5.92718,-0.67312 -4.03445,-0.73123 22.94617,-0.70455 13.73344,0.0297 8.69123,-0.11065 -3.83992,0.012 -7.68222,0.0251 -11.51706,0.24723 -8.88781,0.58233 -17.51889,2.46541 -26.55786,1.35429 -5.67601,-0.006 -4.20139,-0.004 9.88873,-0.003 4.56011,3.5e-4 -11.87447,-0.0114 -7.54173,0.0215 -3.10544,0.0413 -6.22114,0.0843 -9.3037,0.50299 -2.59636,0.4138 -5.09325,1.31082 -7.74729,1.16976 -2.34304,0.11043 -4.68622,0.31724 -6.95843,0.93722 -5.72237,1.79486 -1.05126,0.43161 -15.98545,0.53128 -1.12235,0.007 -2.2428,-0.37979 -3.07706,-1.11849 -1.19096,-1.7214 -0.49361,-3.33271 0.36406,-5.06907 0.68986,-1.79702 0.95315,-3.73917 1.7827,-5.49454 0.36129,-2.19312 0.86198,-4.35195 1.36094,-6.51711 0.0424,-2.33498 0.1433,-4.67587 0.60041,-6.97312 0.63734,-2.692 1.41234,-5.31524 1.25105,-8.12737 0.3197,-4.72434 0.70139,-9.44307 1.0075,-14.16769 0.0489,-4.85573 -0.72895,-9.66844 -2.04056,-14.34309 -0.88504,-3.36547 -2.33211,-6.31597 -5.08187,-8.56852 0,0 14.22669,-1.11966 14.22669,-1.11966 z"
       transform="translate(-192.20255,466.77126)" />
    <path
       style="fill:#ff0000;fill-opacity:1;fill-rule:nonzero;stroke:none"
       id="path4319"
       d="m 442.54865,366.49734 c -1.60783,4.55922 -4.10892,8.6765 -6.70994,12.71959 -4.09262,5.55154 -8.36194,10.96873 -12.55706,16.44236 -3.66305,4.59188 -6.97374,9.46517 -10.808,13.91747 -2.63039,2.73614 -4.72716,5.86789 -6.8535,8.98804 -1.44426,2.28407 -3.01231,4.47817 -4.66361,6.61555 -3.03737,4.99502 -13.243,5.6757 -16.45691,0.56104 0,0 14.26475,-0.95022 14.26475,-0.95022 l 0,0 c 3.39454,3.18802 -18.57598,4.67718 -12.01064,-0.57828 1.74239,-2.05884 3.35095,-4.22114 4.76584,-6.52051 2.28798,-3.08359 4.21314,-6.44653 7.01645,-9.13534 4.0102,-4.30407 7.22108,-9.27243 10.97114,-13.79843 4.15809,-5.44729 8.39168,-10.83545 12.49096,-16.32839 2.4667,-3.90092 4.92616,-7.82683 6.28011,-12.28254 0,0 14.27041,0.34966 14.27041,0.34966 z"
       transform="translate(-192.20255,466.77126)" />
    <path
       style="fill:#ff0000;fill-opacity:1;fill-rule:nonzero;stroke:none"
       id="path4321"
       d="m 502.77004,302.63177 c -3.33593,1.00233 -6.55603,2.35805 -9.81181,3.59291 -2.49369,0.88001 -4.67927,2.12947 -6.45751,4.07696 -1.48391,1.74277 -1.83307,3.56126 -1.59251,5.76752 0.26459,2.91761 1.51198,5.54554 2.94923,8.05041 1.43675,2.14483 2.97204,4.28726 4.71748,6.19003 1.94953,1.9546 3.96052,3.84526 5.68252,6.00371 1.68748,1.88531 0.89758,3.87259 -0.53697,5.57513 -2.14023,2.21127 -4.89104,3.69761 -7.64948,4.99166 -8.15973,3.62302 -17.5138,4.42928 -26.24616,1.89233 -0.60924,-0.22673 -1.21847,-0.45345 -1.8277,-0.68018 0,0 13.97127,-1.74394 13.97127,-1.74394 l 0,0 c 0.5897,0.18257 1.17939,0.36514 1.76909,0.54771 5.75044,1.01869 3.67634,0.51792 -9.6836,0.53077 -0.7062,6.8e-4 1.41696,-0.036 2.11278,-0.15666 0.87032,-0.15089 3.18621,-0.93848 3.99789,-1.24122 0.6455,-0.24076 1.27717,-0.51709 1.91575,-0.77563 2.67203,-1.08871 5.27995,-2.47645 7.42074,-4.43133 1.26859,-1.22344 2.05032,-1.99501 0.59395,-3.52289 -1.81124,-2.07307 -3.74531,-4.01728 -5.67202,-5.98112 -1.68126,-2.06847 -3.39077,-4.14406 -4.69529,-6.47819 -1.46537,-2.6932 -2.68045,-5.53205 -3.00347,-8.61378 -0.29191,-2.58891 0.0328,-4.76973 1.58739,-6.93583 1.80338,-2.20735 3.91838,-3.817 6.66429,-4.74385 3.19671,-1.31249 6.48557,-2.39641 9.64472,-3.80155 0,0 14.14942,1.88703 14.14942,1.88703 z"
       transform="translate(-192.20255,466.77126)" />
  </g>
</svg>
