<?xml version="1.0" encoding="UTF-8" standalone="no"?>
<!-- Created with Inkscape (http://www.inkscape.org/) -->
<svg
   xmlns:dc="http://purl.org/dc/elements/1.1/"
   xmlns:cc="http://creativecommons.org/ns#"
   xmlns:rdf="http://www.w3.org/1999/02/22-rdf-syntax-ns#"
   xmlns:svg="http://www.w3.org/2000/svg"
   xmlns="http://www.w3.org/2000/svg"
   xmlns:sodipodi="http://sodipodi.sourceforge.net/DTD/sodipodi-0.dtd"
   xmlns:inkscape="http://www.inkscape.org/namespaces/inkscape"
   width="1240.165"
   height="678.66754"
   id="svg3531"
   sodipodi:version="0.32"
   inkscape:version="0.46+devel"
   version="1.0"
   sodipodi:docname="c27d2.svg"
   inkscape:output_extension="org.inkscape.output.svg.inkscape">
  <defs
     id="defs3533">
    <inkscape:perspective
       sodipodi:type="inkscape:persp3d"
       inkscape:vp_x="0 : 526.18109 : 1"
       inkscape:vp_y="0 : 1000 : 0"
       inkscape:vp_z="744.09448 : 526.18109 : 1"
       inkscape:persp3d-origin="372.04724 : 350.78739 : 1"
       id="perspective3539" />
  </defs>
  <sodipodi:namedview
     id="base"
     pagecolor="#ffffff"
     bordercolor="#666666"
     borderopacity="1.0"
     inkscape:pageopacity="0.0"
     inkscape:pageshadow="2"
     inkscape:zoom="0.35"
     inkscape:cx="697.48491"
     inkscape:cy="444.33531"
     inkscape:document-units="px"
     inkscape:current-layer="layer1"
     showgrid="false"
     inkscape:window-width="1280"
     inkscape:window-height="712"
     inkscape:window-x="-5"
     inkscape:window-y="-3" />
  <metadata
     id="metadata3536">
    <rdf:RDF>
      <cc:Work
         rdf:about="">
        <dc:format>image/svg+xml</dc:format>
        <dc:type
           rdf:resource="http://purl.org/dc/dcmitype/StillImage" />
        <dc:title></dc:title>
      </cc:Work>
    </rdf:RDF>
  </metadata>
  <g
     inkscape:label="Layer 1"
     inkscape:groupmode="layer"
     id="layer1"
     transform="translate(322.48491,-298.02997)">
    <path
       style="fill:#000000;fill-opacity:1;fill-rule:nonzero;stroke:#000000;stroke-width:4.69999981;stroke-linecap:round;stroke-linejoin:round;stroke-miterlimit:4;stroke-opacity:1;stroke-dasharray:none;stroke-dashoffset:0"
       id="path3541"
       d="m 62.260116,868.62093 c 13.837179,-0.0881 27.639189,1.14616 41.457834,1.77425 24.9501,0.69886 49.81445,2.97339 74.7201,4.49129 34.09148,1.45989 68.17895,3.0257 102.2885,4.02451 39.51731,1.00036 79.04949,1.11092 118.57707,1.20781 36.42583,-0.0206 72.84196,-1.35053 109.26269,-2.04392 30.80496,-0.55158 61.61467,-0.73886 92.4239,-0.83245 21.30024,-0.42509 42.56224,0.24188 63.80641,1.71258 4.25425,1.06839 14.95261,-1.08165 17.92993,2.81945 0.62442,0.81816 0.8725,1.86436 1.30875,2.79654 3.62537,11.16623 2.39851,8.67813 -11.69429,8.40609 0,0 11.26484,-1.37234 11.26484,-1.37234 l 0,0 c -3.29242,0.27727 -6.5798,0.62275 -9.87725,0.83181 -0.10754,0.007 0.6659,0.0464 0.64499,-1.04418 -0.0412,-2.14889 -0.96973,-4.27889 -1.60601,-6.28125 -0.43151,-0.73876 -0.69659,-1.60436 -1.29453,-2.21626 -3.18713,-3.26158 -13.57212,-1.03392 -17.65703,-2.27924 -16.82146,-1.18921 -25.30559,-2.18384 -42.19486,-1.69233 -30.91441,0.0711 -61.82944,0.2256 -92.73981,0.76544 -43.26725,0.80425 -86.52827,2.335 -129.80856,2.04789 -39.56,-0.0975 -79.12463,-0.2089 -118.67414,-1.22092 -34.18141,-1.00602 -68.34292,-2.54825 -102.50588,-4.02486 -24.99218,-1.52764 -49.94741,-3.75463 -74.985465,-4.4339 -13.933435,-0.63784 -27.856218,-1.8482 -41.811304,-1.66779 0,0 11.164115,-1.76822 11.164115,-1.76822 z" />
    <path
       style="fill:#000000;fill-opacity:1;fill-rule:nonzero;stroke:#000000;stroke-width:4.69999981;stroke-linecap:round;stroke-linejoin:round;stroke-miterlimit:4;stroke-opacity:1;stroke-dasharray:none;stroke-dashoffset:0"
       id="path3543"
       d="m 595.7015,880.45906 c -5.6495,7.80715 -11.50322,15.47303 -17.4266,23.07549 -5.60912,7.74172 -11.53516,15.22761 -17.85674,22.3974 -5.12074,5.94113 -11.46658,9.51543 -18.91476,11.62251 -7.82876,0.85138 -2.13659,0.35519 -17.13901,0.27676 0,0 11.14998,-1.72589 11.14998,-1.72589 l 0,0 c -9.42604,0.13822 -11.14432,0.24741 -5.16519,-0.0206 7.42459,-1.8603 13.75932,-5.13084 18.89867,-10.96395 6.34692,-7.13138 12.32129,-14.56699 17.88878,-22.32624 5.91626,-7.54521 11.74025,-15.17871 17.2849,-22.99948 0,0 11.27997,0.66403 11.27997,0.66403 z" />
    <path
       style="fill:#000000;fill-opacity:1;fill-rule:nonzero;stroke:#000000;stroke-width:4.69999981;stroke-linecap:round;stroke-linejoin:round;stroke-miterlimit:4;stroke-opacity:1;stroke-dasharray:none;stroke-dashoffset:0"
       id="path3545"
       d="m 501.06762,885.94294 c -7.10801,8.17466 -14.39339,16.18167 -21.84412,24.04492 -11.55521,12.14313 -22.73686,24.63172 -34.27093,36.7975 -9.30739,10.47939 -19.6936,19.69219 -31.26182,27.56213 0,0 -11.03153,-1.08488 -11.03153,-1.08488 l 0,0 c 11.66588,-7.70411 22.11489,-16.80511 31.39174,-27.30519 11.49651,-12.16233 22.64372,-24.64238 34.13361,-36.80745 7.40896,-7.84719 14.71651,-15.79024 21.61589,-24.09377 0,0 11.26716,0.88674 11.26716,0.88674 z" />
    <path
       style="fill:#000000;fill-opacity:1;fill-rule:nonzero;stroke:#000000;stroke-width:4.69999981;stroke-linecap:round;stroke-linejoin:round;stroke-miterlimit:4;stroke-opacity:1;stroke-dasharray:none;stroke-dashoffset:0"
       id="path3547"
       d="m 386.78261,902.80688 c -8.02088,6.57904 -15.29221,14.032 -22.18553,21.77076 -8.29124,9.80045 -16.74793,19.41728 -26.0351,28.28534 -3.80407,3.61849 -8.43415,5.91174 -13.0917,8.17779 0,0 -11.11711,-1.25994 -11.11711,-1.25994 l 0,0 c 4.65734,-2.14558 9.30511,-4.28605 13.12485,-7.81912 9.32533,-8.80282 17.81999,-18.35787 26.05308,-28.1872 6.8473,-7.78615 14.10313,-15.23488 21.98294,-21.98006 0,0 11.26857,1.01243 11.26857,1.01243 z" />
    <path
       style="fill:#000000;fill-opacity:1;fill-rule:nonzero;stroke:#000000;stroke-width:4.69999981;stroke-linecap:round;stroke-linejoin:round;stroke-miterlimit:4;stroke-opacity:1;stroke-dasharray:none;stroke-dashoffset:0"
       id="path3549"
       d="m 295.35052,886.23316 c -7.52249,9.01643 -15.655,17.44865 -24.18297,25.50797 -9.48625,8.95109 -19.77363,16.98448 -30.75111,24.01281 -4.39383,2.99782 -9.3867,4.29235 -14.46486,5.51197 0,0 -11.08706,-1.50356 -11.08706,-1.50356 l 0,0 c 5.07853,-1.08274 10.08545,-2.16957 14.49042,-5.12325 10.99572,-6.94251 21.3032,-14.87459 30.77833,-23.79806 8.47391,-7.99938 16.617,-16.31993 23.95571,-25.39153 0,0 11.26154,0.78365 11.26154,0.78365 z" />
    <path
       style="fill:#000000;fill-opacity:1;fill-rule:nonzero;stroke:#000000;stroke-width:4.69999981;stroke-linecap:round;stroke-linejoin:round;stroke-miterlimit:4;stroke-opacity:1;stroke-dasharray:none;stroke-dashoffset:0"
       id="path3551"
       d="m 198.9086,874.67483 c -4.72499,10.10665 -8.85783,20.41463 -14.01805,30.32757 -6.63299,12.43439 -16.20311,22.79005 -26.38957,32.37594 -6.73069,6.00991 -14.36271,9.58636 -23.19434,10.97129 0,0 -11.10522,-1.60116 -11.10522,-1.60116 l 0,0 c 8.84174,-1.08577 16.46475,-4.34759 23.25656,-10.27727 10.18467,-9.43684 19.74288,-19.67712 26.36263,-32.0008 5.15165,-9.8841 9.31707,-20.12994 13.79164,-30.3197 0,0 11.29635,0.52413 11.29635,0.52413 z" />
    <path
       style="fill:#000000;fill-opacity:1;fill-rule:nonzero;stroke:#000000;stroke-width:4.69999981;stroke-linecap:round;stroke-linejoin:round;stroke-miterlimit:4;stroke-opacity:1;stroke-dasharray:none;stroke-dashoffset:0"
       id="path3557"
       d="m 251.01422,586.59502 c -1.64748,13.29351 -1.98424,26.70516 -2.32695,40.08228 -0.29157,13.90551 -0.64613,27.79518 0.52882,41.66391 0.69581,7.63162 1.51427,15.25142 1.95411,22.90363 0.11396,3.56905 -0.46857,4.73314 2.33181,6.929 5.0791,1.97465 10.91396,1.66806 16.28878,1.80589 7.07304,0.13529 14.1476,0.0992 21.22142,0.12155 1.51915,0.005 -6.07663,0.003 -4.55747,-3.9e-4 2.18889,-0.005 4.3778,-0.003 6.5667,-0.004 12.58486,-0.011 25.16971,-0.0209 37.75457,-0.031 11.29737,-0.23541 22.52546,-0.0452 33.67822,1.79755 4.18446,0.22349 5.4852,2.03194 6.34433,5.92862 1.47678,9.01157 2.14409,18.08157 2.5786,27.19877 -0.0165,17.31516 -1.17352,34.59484 -3.28516,51.77414 -1.53984,12.93897 -3.33609,25.82341 -5.38497,38.68942 -0.92659,5.42426 -1.56515,10.89151 -1.84693,16.38653 -0.11258,3.16102 -0.0909,6.32513 -0.0679,9.48753 0.002,3.26291 0.0198,6.52578 0.0195,9.78869 0.016,3.11711 -0.002,6.23423 0.003,9.35134 0.002,3.13483 -0.003,6.2697 0.005,9.40453 3.7e-4,6.71705 1.34063,3.78959 -11.00147,1.69265 0.66947,-3.60587 0.34233,-1.778 0.97959,-5.48395 0,0 11.27731,0.19049 11.27731,0.19049 l 0,0 c -0.62839,3.71627 -0.3203,1.87954 -0.9246,5.51015 -13.01011,1.84077 -11.69191,5.03797 -11.68489,-1.90936 0.008,-3.13482 0.004,-6.26968 0.006,-9.4045 0.005,-3.11668 -0.0125,-6.23337 -0.003,-9.35006 -0.008,-3.26162 -0.002,-6.52329 -0.0311,-9.78484 -0.006,-3.18454 -0.0357,-6.37018 0.0853,-9.55326 0.30831,-5.53858 1.03834,-11.04705 2.01373,-16.50615 2.13529,-12.84661 4.00504,-25.71502 5.57954,-38.64489 2.14845,-17.10912 3.29483,-34.33071 3.1953,-51.5818 -0.49657,-9.05428 -1.24179,-18.06067 -2.84301,-26.99299 -0.90972,-3.5957 -2.57013,-4.28607 -6.1952,-4.60856 -0.8919,-0.14922 -4.63964,-0.78058 -5.42621,-0.89336 -1.16243,-0.16667 -4.64544,-0.21388 -3.49449,-0.44698 2.34114,-0.47415 4.78607,-0.0297 7.15992,-0.29537 3.22352,-0.36075 -13.9997,0.4134 -9.73094,-0.002 -12.60394,-10e-5 -25.20787,0.006 -37.8118,0.0215 -15.08444,0.0139 -30.17093,0.0967 -45.25416,-0.12773 -5.43333,-0.16506 -11.68843,0.28896 -16.53417,-2.54406 -2.49205,-2.27272 -2.35386,-4.58703 -2.30534,-7.85187 -0.39054,-7.64033 -1.10672,-15.2556 -1.78898,-22.87434 -1.09069,-13.9119 -0.70308,-27.83922 -0.41741,-41.78203 0.32751,-13.41126 0.69583,-26.84133 2.06093,-40.19504 0,0 11.28339,0.14032 11.28339,0.14032 z" />
    <path
       style="fill:#000000;fill-opacity:1;fill-rule:nonzero;stroke:#000000;stroke-width:4.69999981;stroke-linecap:round;stroke-linejoin:round;stroke-miterlimit:4;stroke-opacity:1;stroke-dasharray:none;stroke-dashoffset:0"
       id="path3559"
       d="m -80.597027,571.47807 c 7.01352,0.0113 14.027055,0.005 21.04058,0.002 4.993185,-0.53115 9.71129,0.96072 14.561579,1.82056 4.018739,0.75066 8.111908,0.91824 12.189321,1.01067 4.581576,-0.37809 8.916179,1.08128 13.374458,1.86091 5.2696,0.79957 10.6084607,0.90413 15.9272929,0.99647 8.2034697,0.0796 -3.8749616,-0.0163 -5.4755409,-0.24051 -1.067827,-0.14955 2.1361881,-0.29529 3.203783,-0.44649 3.32068,-0.47029 6.63446939,-0.91216 9.9680843,-1.28151 7.4779807,-0.2756 14.8345507,-1.63089 22.2510597,-2.50914 7.998585,-0.38919 15.869927,-1.81507 23.797633,-2.83327 7.781073,-0.92057 15.622629,-1.08606 23.448682,-1.20153 8.886758,-0.24112 17.795356,0.26723 26.676885,-0.0527 2.35678,-0.0849 -4.786096,0.29993 -7.068885,-0.29208 -1.362979,-0.35347 2.799972,-0.30129 4.199957,-0.45193 9.125138,-1.13878 18.305958,-1.60785 27.491158,-1.887 8.85495,-0.21915 17.71337,-0.21723 26.57044,-0.22053 12.66066,-0.004 25.32131,0.012 37.98198,0.0158 9.02687,0.005 18.05374,0.004 27.08061,0.005 2.59449,-0.002 18.42229,0.004 2.81851,5.9e-4 -1.48361,-3.3e-4 2.96751,-0.0297 4.45084,-7.4e-4 15.66655,0.30631 10.4754,-0.16617 19.47028,0.87427 8.04995,1.08027 16.15776,1.55085 24.2695,1.81506 7.71095,0.21827 15.32628,1.62809 23.01043,2.3065 8.15504,0.60559 16.20606,2.10399 24.35704,2.83813 7.80752,0.15411 15.49165,1.10391 23.22126,2.1081 7.32486,0.97419 14.70817,1.25144 22.08708,1.41455 5.02253,0.0798 10.04584,0.0889 15.06889,0.0916 1.27504,6.8e-4 5.10017,10e-5 3.82513,-6.9e-4 -2.34878,-10e-4 -4.69757,-8.8e-4 -7.04635,-10e-4 8.7929,-0.008 17.58579,-0.0126 26.37869,-0.0139 9.48403,-0.003 18.96807,-0.003 28.4521,-0.002 13.63856,-0.003 27.27713,4.9e-4 40.91569,0.002 11.22263,0.001 22.44526,0.001 33.66789,0.001 5.71808,1.4e-4 11.43616,-3e-5 17.15424,7e-5 1.75687,4e-5 -7.0275,2e-5 -5.27063,10e-6 3.81329,-3e-5 7.62657,-10e-6 11.43986,-10e-6 11.4702,0.44042 22.87409,-0.81647 34.29108,-1.67995 10.07764,-0.77833 20.18464,-1.00344 30.28765,-1.13704 11.91191,-0.0996 23.82451,-0.0721 35.73671,-0.0629 6.57797,0.006 13.15595,0.009 19.73393,0.0102 5.47779,-0.45883 10.69434,0.31929 16.02567,1.40474 3.43279,0.80251 6.93617,1.16949 10.44706,1.39266 5.12553,0.22098 -6.28462,0.0421 -9.40364,-0.28362 -0.29287,-0.0306 0.40136,-0.43787 0.54645,-0.69411 0.51476,-0.9091 0.48765,-2.03718 0.54327,-3.04179 0.0141,-3.42117 -0.0891,-6.84159 -0.12452,-10.26269 0.11166,-5.24483 0.0219,-10.39443 -0.8565,-15.56825 -1.11133,-5.67907 -1.58674,-11.44171 -1.8606,-17.21262 -0.18702,-5.29724 -0.21386,-10.59883 -0.2171,-15.8989 -0.0139,-3.87197 -0.005,-7.74394 0.008,-11.6159 -0.004,-3.80879 0.007,-7.61756 -0.006,-11.42633 -0.15658,-3.3044 0.94627,-6.23281 -0.38961,-9.34317 -2.27902,-2.67614 -5.74342,-2.57336 -8.99269,-2.74776 -5.59699,0.80925 -11.49861,-2.42451 1.82851,0.14973 1.29312,0.24977 -2.6172,0.29744 -3.9252,0.45136 -5.21372,0.61354 -2.97088,0.30097 -8.3169,1.22892 -9.62358,1.98497 -19.39616,2.89139 -29.19275,3.40336 -11.92308,0.43434 -23.85687,0.41402 -35.78609,0.42138 -12.61225,0.68926 -25.19321,1.75397 -37.81532,2.28963 -13.40265,0.48378 -26.81617,0.50789 -40.2258,0.5406 -17.45893,0.0228 -34.91788,0.005 -52.37682,-0.002 -14.73109,-0.007 -29.46217,-0.0105 -44.19326,-0.0104 -15.47181,-0.85052 -30.93028,-1.83976 -46.41839,-2.35995 -16.41843,-0.45565 -32.84463,-0.48336 -49.26813,-0.51328 -16.33585,-0.0114 -17.17646,-0.004 -36.21484,0.006 -15.53849,-0.43907 -31.02756,0.84584 -46.52699,1.69907 -14.88318,0.94573 -29.80761,0.67883 -44.69406,1.44261 -13.75986,1.09384 -27.53624,1.85949 -41.33288,2.26337 -16.90166,0.58536 -33.79297,0.26513 -50.654203,-0.99071 -11.890627,-0.93975 -23.814238,-1.26605 -35.736445,-1.44898 -9.531498,-0.10377 -19.063853,-0.12097 -28.595855,-0.11143 -1.761816,0.002 3.523635,0.001 5.285453,0.002 -10.497122,-0.36747 -20.9145834,0.23292 -31.3515074,1.2587 -9.8321626,0.99015 -19.7098816,1.31733 -29.5840636,1.51605 -9.014462,0.28626 -18.049226,-0.20097 -27.048221,0.42319 -6.948131,0.82449 -13.880941,1.71892 -20.863974,2.19146 -4.528315,0.26749 -9.064084,0.34756 -13.599198,0.37645 -4.086626,0.16539 -4.544736,2.95861 -4.625706,6.39982 0.22211,3.76179 0.005,7.58047 0.748271,11.28303 1.228394,4.70881 1.873853,9.53191 2.298832,14.37103 -0.105726,4.33868 0.534226,8.4115 1.643699,12.57338 1.143056,2.90295 2.44079,5.85561 3.866197,8.67108 1.479048,2.96397 2.379755,6.13389 3.105068,9.35091 0.15276,0.68673 0.281611,1.37808 0.364609,2.07642 0,0 -11.421166,0.10234 -11.421166,0.10234 l 0,0 c -0.06857,-0.64938 -0.18183,-1.29274 -0.31404,-1.93228 -0.6739,-3.13761 -1.58571,-6.20951 -3.05908,-9.07678 -1.40418,-2.90222 -2.85746,-5.85485 -3.86723,-8.89691 -1.12274,-4.22183 -1.68229,-8.38211 -1.62588,-12.76944 -0.41893,-4.80348 -1.06697,-9.58311 -2.30922,-14.25205 -0.71701,-3.78976 -0.56446,-7.67741 -0.76137,-11.52282 0.0579,-3.68363 0.42321,-7.42132 4.75509,-8.14714 4.55495,-0.009 9.110737,-0.064 13.660563,-0.29886 7.006859,-0.41981 13.967822,-1.24831 20.925874,-2.16468 8.999666,-0.80104 18.056938,-0.17831 27.08282,-0.48591 9.870797,-0.17544 19.746751,-0.46494 29.577897,-1.42742 10.4583015,-1.03261 20.8845249,-1.79851 31.409049,-1.36034 15.098295,-10e-4 30.19766,-0.0482 45.295261,0.12784 11.915362,0.20157 23.830634,0.56302 35.713288,1.51771 2.128136,0.15748 4.255788,0.32164 6.384408,0.47244 2.18432,0.15474 4.46764,-0.21976 6.55435,0.44418 1.35198,0.43016 -5.65867,0.15484 -4.24638,0.29015 6.61971,0.63424 13.42079,-0.64801 20.05179,-0.26299 13.80413,-0.38087 27.59129,-1.09695 41.35559,-2.23079 14.89089,-0.85804 29.82828,-0.49302 44.72105,-1.43834 15.49976,-0.83911 30.98567,-2.19996 46.52412,-1.75991 19.32538,-0.006 38.65078,-0.022 57.97615,1e-5 16.43047,0.0387 32.86387,0.0669 49.28876,0.54591 15.49092,0.54155 30.95055,1.58736 46.43172,2.31969 14.74053,0.002 29.48107,0.001 44.2216,0.006 19.80745,0.01 14.1089,0.0149 30.52265,0.005 13.39663,-0.031 26.79674,-0.0486 40.18724,-0.50292 12.62463,-0.50911 25.20988,-1.50936 37.81554,-2.33532 11.90654,-0.008 23.81691,0.0191 35.71841,-0.37644 9.77178,-0.46534 19.53344,-1.27561 29.1312,-3.26569 10.76536,-2.04329 21.72409,-2.63008 32.67603,-1.96674 3.60762,0.30701 7.13318,0.61795 9.16891,4.00543 1.24079,3.31232 0.3111,6.31881 0.38309,9.77538 -0.0131,3.80911 -0.003,7.61823 -0.0141,11.42735 0.005,3.87145 -0.004,7.74281 -0.0242,11.61421 0.002,5.28232 -0.0139,10.56644 0.19127,15.84584 0.27329,5.72633 0.75247,11.44311 1.86029,17.07738 0.88042,5.23116 0.98171,10.4412 0.89634,15.7424 0.054,3.44641 0.16439,6.89222 0.17365,10.33903 -0.42221,7.93085 -3.83725,6.52096 -14.28822,5.65465 -3.50109,-0.28231 -6.98143,-0.75324 -10.40762,-1.5449 -5.29725,-1.06813 -10.54625,-1.50232 -15.96274,-1.18638 -6.56395,-0.003 -13.1279,-0.009 -19.69184,-0.0174 -7.51506,-0.006 -2.60953,-9e-4 3.38211,-0.005 1.2752,-8e-4 -2.5504,-10e-4 -3.8256,-7.1e-4 -4.38389,0.002 -8.76782,0.0115 -13.15157,0.049 -10.11773,0.11353 -20.24008,0.30978 -30.33436,1.05941 -11.4235,0.84377 -22.8271,2.2071 -34.30318,1.7621 -15.10276,-10e-6 -30.20551,-5e-5 -45.30827,6e-5 -11.22879,1.4e-4 -22.45758,3.3e-4 -33.68637,10e-4 -5.20043,5.5e-4 -10.40086,0.001 -15.60129,0.002 -1.62441,2e-4 -6.49765,-2.2e-4 -4.87324,5.3e-4 2.10309,9.8e-4 4.20617,8.7e-4 6.30925,1.4e-4 1.56773,-5.5e-4 -3.13546,-4.7e-4 -4.70319,-7e-4 -9.48187,10e-4 -18.96373,6.6e-4 -28.4456,0.003 -8.78068,0.004 -17.56137,0.009 -26.34205,0.0194 -11.344,0.003 -22.68999,0.0634 -34.03315,-0.11199 -7.38164,-0.19204 -14.76436,-0.52542 -22.0875,-1.53508 -7.72017,-1.01925 -15.42094,-1.77063 -23.2074,-2.0684 -8.14462,-0.79265 -16.20334,-2.27501 -24.36785,-2.83379 -7.66999,-0.72283 -15.28396,-2.11125 -22.99645,-2.24462 -8.11248,-0.29794 -16.21465,-0.83335 -24.26669,-1.90241 -8.26804,-0.89155 -2.77178,-0.0854 2.67409,-0.75269 1.47559,-0.1808 -2.97326,-6.7e-4 -4.45989,-7e-4 -8.30725,-1.6e-4 -16.61451,-1.8e-4 -24.92177,4.2e-4 -9.02974,2.6e-4 -18.05948,-0.002 -27.08923,-0.004 -4.4173,-0.003 -8.83461,-0.006 -13.25192,-0.009 -1.52799,-0.001 -3.05598,-0.002 -4.58397,-0.003 -1.49488,-10e-4 -5.97953,-1.6e-4 -4.48465,-0.003 2.15434,-0.005 4.30868,-5.8e-4 6.46302,-8.7e-4 -8.86055,0.002 -17.72222,-0.008 -26.58115,0.18644 -9.17087,0.25146 -18.34195,0.66436 -27.4532,1.79983 -10.701651,1.23294 2.59573,-0.17281 -19.297021,0.86802 -2.337594,0.11114 4.680468,-0.002 7.020701,-5.5e-4 2.591191,0.002 -10.421112,8e-4 -7.77356,0.0147 -1.252746,0.008 -2.505491,0.0167 -3.758237,0.0251 -7.817273,0.0953 -15.649737,0.22608 -23.428538,1.07894 -7.939785,0.96167 -15.796518,2.53331 -23.807124,2.84272 -7.414352,0.82852 -14.741846,2.31191 -22.214827,2.52333 -9.9846447,1.03432 -19.8430385,3.03619 -29.977339,2.06942 -5.339449,-0.11816 -10.700825,-0.26593 -15.976766,-1.1724 -4.43673,-0.84114 -8.797666,-2.03393 -13.365817,-1.68764 -4.086475,-0.13319 -8.179959,-0.38172 -12.198442,-1.18577 -4.815109,-0.91788 -9.546161,-2.10443 -14.503755,-1.6215 -7.02215,-0.003 -14.04431,-0.009 -21.066456,0.002 0,0 11.164114,-1.76822 11.164114,-1.76822 z" />
    <path
       style="fill:#000000;fill-opacity:1;fill-rule:nonzero;stroke:#000000;stroke-width:4.69999981;stroke-linecap:round;stroke-linejoin:round;stroke-miterlimit:4;stroke-opacity:1;stroke-dasharray:none;stroke-dashoffset:0"
       id="path3561"
       d="m 191.02296,563.40614 c -1.03667,6.46234 -1.74928,12.96886 -2.2005,19.49658 0.0175,3.9538 -1.47365,7.66324 -2.38189,11.45908 -0.5973,2.78938 -0.70597,5.64288 -0.76292,8.4846 0.0387,2.87864 -1.40717,5.46433 -2.08582,8.22576 -0.61102,2.57159 -0.84795,4.52827 1.747,5.67609 2.93848,0.54969 5.95258,0.50657 8.93136,0.50938 -3.23908,-0.002 -6.47817,-8.9e-4 -9.71725,-0.006 -0.52756,-7.9e-4 1.05534,-0.0219 1.58267,-0.006 4.33206,0.12641 8.66953,0.15428 12.99453,0.43185 1.55282,0.0997 3.48495,0.99377 5.00901,1.39408 3.75482,0.77957 7.61157,0.86963 11.43289,0.95398 1.95318,0.0361 3.90674,0.0409 5.86018,0.0432 0.73287,8.5e-4 2.93147,4.4e-4 2.19861,3.7e-4 -9.63123,-9.1e-4 -11.71999,0.004 -6.65722,-0.004 8.08815,-0.13698 16.15859,0.15578 24.24356,0.4147 4.48872,1.08412 9.02984,1.80434 13.63075,2.15256 0.81614,0.0404 1.63194,0.0886 2.44843,0.12133 0.85161,0.0342 1.70377,0.053 2.55566,0.0795 0.7709,0.0165 3.08344,0.0724 2.3127,0.0495 -2.97878,-0.0885 -5.97169,0.0513 -8.93689,-0.24638 -1.57596,-0.1582 3.11323,-0.58548 4.66678,-0.89397 3.81976,-0.87542 7.70076,-1.33329 11.60622,-1.56462 7.03522,-0.26165 14.08466,-0.14915 21.12116,-0.14798 4.04893,-0.39545 12.05682,1.41853 -5.4324,-0.23436 -2.69518,-0.25472 3.59151,-0.8254 5.85577,-1.34805 3.28227,-0.81429 6.64807,-1.0657 10.01435,-1.20022 7.42269,-0.14659 14.84843,-0.0824 22.27211,-0.0707 3.42497,0.007 6.84994,0.012 10.27491,0.0117 -15.54467,0.36899 -9.36854,1.62428 -6.60497,-4.5514 0.94912,-3.43041 1.73826,-6.85237 2.86804,-10.24505 1.21733,-3.37852 2.51663,-6.77906 3.95413,-10.08298 1.55082,-3.25563 2.52893,-6.68039 3.05372,-10.23581 0.34645,-3.17217 0.34489,-6.37021 0.33272,-9.55743 -0.009,-0.98739 -0.0185,-1.97501 -0.0572,-2.96175 0.37397,-1.09648 1.29178,-1.83625 2.09135,-2.63131 0,0 11.3666,0.91159 11.3666,0.91159 l 0,0 c -0.59113,0.56001 -1.26802,1.55101 -2.0362,1.68979 0.006,0.99785 0.001,1.99572 -0.004,2.99355 -0.023,3.2425 -0.0123,6.49434 -0.34599,9.7233 -0.54863,3.65355 -1.49907,7.1863 -3.08219,10.54205 -1.47734,3.24602 -2.67838,6.66404 -3.94157,9.97752 -1.16615,3.41794 -1.98113,6.84207 -2.86524,10.32658 -2.96405,7.52413 -6.06799,6.2418 -15.94229,5.87651 -3.41848,-0.005 -6.83696,-0.008 -10.25544,-0.0158 -4.95538,-0.009 -2.07896,-0.003 7.38612,-0.004 0.61026,-1.1e-4 -1.2205,-9e-4 -1.83076,-3.1e-4 -1.80859,0.002 -3.61731,0.007 -5.42565,0.0405 -3.35218,0.0941 -6.71881,0.22652 -9.9997,0.99054 -1.85199,0.39659 -3.98293,1.28249 -5.86219,1.39797 -5.67032,0.34842 -11.31425,0.46911 -16.98067,0.43042 19.57655,-0.002 5.80332,-0.061 1.2812,0.09 -3.9039,0.17979 -7.79843,0.51414 -11.6167,1.39858 -8.37275,1.66939 -16.92469,1.58994 -25.42263,1.01663 -4.60403,-0.42482 -9.12922,-1.27091 -13.65024,-2.23193 19.64195,-0.5521 2.68665,-0.11712 -1.86659,-0.24171 -7.92073,0.009 -15.84313,0.072 -23.76301,-0.0669 -3.85022,-0.12178 -7.74011,-0.26571 -11.49329,-1.21121 -1.11142,-0.29738 -2.21939,-0.60769 -3.33274,-0.89776 -0.55053,-0.14342 -2.22293,-0.36621 -1.65597,-0.41307 21.90549,-1.8104 -0.2141,1.38562 -4.83917,-0.21863 -3.01944,-0.0329 -6.21213,0.0981 -9.04124,-1.09175 -2.51443,-1.80488 -2.44046,-4.30337 -1.78168,-7.13265 0.65078,-2.69563 2.01273,-5.21367 2.07709,-7.97986 0.0714,-2.92307 0.1729,-5.85554 0.77464,-8.72811 0.90987,-3.73721 2.41194,-7.38379 2.43996,-11.27298 0.50823,-6.549 1.24578,-13.07257 2.18737,-19.57427 0,0 11.30087,0.16037 11.30087,0.16037 z" />
    <path
       style="fill:#000000;fill-opacity:1;fill-rule:nonzero;stroke:#000000;stroke-width:4.69999981;stroke-linecap:round;stroke-linejoin:round;stroke-miterlimit:4;stroke-opacity:1;stroke-dasharray:none;stroke-dashoffset:0"
       id="path3563"
       d="m 341.06762,574.51437 c -5.73079,6.52996 -11.39123,13.11657 -17.26321,19.52186 -5.21061,5.23673 -10.97684,9.8679 -16.83967,14.34421 -1.71024,1.42576 -3.56363,2.48895 -5.75149,2.88732 0,0 -11.25327,-1.71362 -11.25327,-1.71362 l 0,0 c 2.23891,0.14357 4.06423,-0.79288 5.78276,-2.21678 5.91062,-4.36205 11.60342,-9.03343 16.90024,-14.13222 5.88157,-6.38346 11.60073,-12.90868 17.15748,-19.57751 0,0 11.26716,0.88674 11.26716,0.88674 z" />
    <path
       style="fill:#000000;fill-opacity:1;fill-rule:nonzero;stroke:#000000;stroke-width:4.69999981;stroke-linecap:round;stroke-linejoin:round;stroke-miterlimit:4;stroke-opacity:1;stroke-dasharray:none;stroke-dashoffset:0"
       id="path3565"
       d="m 312.84848,574.45241 c -4.73589,5.57174 -9.94296,10.67612 -14.98216,15.96064 -4.28132,4.09163 -8.4219,8.30966 -12.81237,12.28729 -2.88225,2.51448 -6.32832,4.36141 -8.98233,7.12404 -0.59787,0.93718 -1.31862,1.39957 -2.35158,1.69552 0,0 -11.25541,-1.72613 -11.25541,-1.72613 l 0,0 c 1.14202,0.23184 1.62986,0.36567 2.28374,-0.81464 2.5847,-2.91079 6.01903,-4.81351 9.05044,-7.22524 4.42006,-3.93666 8.53426,-8.15336 12.85665,-12.19197 4.971,-5.29429 10.26319,-10.2663 14.90481,-15.87233 0,0 11.28821,0.76282 11.28821,0.76282 z" />
    <path
       style="fill:#000000;fill-opacity:1;fill-rule:nonzero;stroke:#000000;stroke-width:4.69999981;stroke-linecap:round;stroke-linejoin:round;stroke-miterlimit:4;stroke-opacity:1;stroke-dasharray:none;stroke-dashoffset:0"
       id="path3567"
       d="m 278.56277,571.59527 c -4.92834,5.5798 -9.90977,11.12088 -14.85356,16.6932 -3.7307,4.23496 -7.95036,7.98822 -12.36188,11.494 -2.21455,1.99995 -4.77702,3.35143 -7.60244,4.23255 0,0 -11.2573,-1.46961 -11.2573,-1.46961 l 0,0 c 2.8188,-0.6973 5.42187,-1.77818 7.59763,-3.77894 4.38834,-3.48151 8.69977,-7.06782 12.40049,-11.29592 4.94461,-5.53357 9.92336,-11.04564 14.78884,-16.6381 0,0 11.28822,0.76282 11.28822,0.76282 z" />
    <path
       style="fill:#000000;fill-opacity:1;fill-rule:nonzero;stroke:#000000;stroke-width:4.69999981;stroke-linecap:round;stroke-linejoin:round;stroke-miterlimit:4;stroke-opacity:1;stroke-dasharray:none;stroke-dashoffset:0"
       id="path3569"
       d="m 241.76574,574.67483 c -3.8652,7.10393 -9.14992,13.35137 -14.39461,19.47081 -3.34303,4.27847 -7.10851,8.25059 -11.66648,11.22922 -1.70736,1.29562 -0.92506,0.64 -2.3638,1.94653 0,0 -11.31633,-0.92544 -11.31633,-0.92544 l 0,0 c 1.47355,-1.43289 0.67469,-0.70526 2.41222,-2.16562 4.63371,-2.764 8.42849,-6.63966 11.73068,-10.88774 5.2617,-5.96785 10.4952,-12.18049 14.30197,-19.19189 0,0 11.29635,0.52413 11.29635,0.52413 z" />
    <path
       style="fill:#000000;fill-opacity:1;fill-rule:nonzero;stroke:#000000;stroke-width:4.69999981;stroke-linecap:round;stroke-linejoin:round;stroke-miterlimit:4;stroke-opacity:1;stroke-dasharray:none;stroke-dashoffset:0"
       id="path3571"
       d="m 215.70563,580.1667 c -5.75069,6.84546 -11.61935,13.58647 -17.42572,20.38407 -0.90867,1.09675 -1.81735,2.1935 -2.72602,3.29025 0,0 -11.17714,-0.77657 -11.17714,-0.77657 l 0,0 c 0.91829,-1.10036 1.83658,-2.20072 2.75487,-3.30108 5.7585,-6.79041 11.65844,-13.45719 17.28579,-20.35949 0,0 11.28822,0.76282 11.28822,0.76282 z" />
    <path
       style="fill:#000000;fill-opacity:1;fill-rule:nonzero;stroke:#000000;stroke-width:4.69999981;stroke-linecap:round;stroke-linejoin:round;stroke-miterlimit:4;stroke-opacity:1;stroke-dasharray:none;stroke-dashoffset:0"
       id="path3573"
       d="m 326.42619,762.58363 c -6.92769,3.41207 -13.27466,7.62181 -18.88094,12.91971 -5.57271,5.1192 -9.19038,11.74609 -12.1993,18.58972 -2.61298,6.47147 -3.46273,13.37271 -3.88734,20.27923 0.15215,6.14704 2.145,11.87982 5.0382,17.23508 3.54241,6.00848 8.74148,10.69374 14.28856,14.81066 6.33145,4.65506 13.82653,6.34823 21.46796,7.31741 -2.42305,0.16967 10.63354,0.53941 7.97105,0.51653 -2.34623,-0.0202 -4.74214,0.27611 -7.03551,-0.21949 -1.38357,-0.29899 2.82531,-0.2034 4.22886,-0.38702 2.77345,-0.36285 6.18218,-1.09134 8.92386,-1.63909 9.51583,-2.45011 18.81791,-5.82115 27.81627,-9.76341 9.45383,-4.23864 18.82612,-8.60416 28.08671,-13.2515 6.43751,-3.11355 12.30911,-7.22843 17.28723,-12.35658 2.99374,-2.80643 4.87923,-5.97989 5.78168,-9.95222 1.39839,-4.14073 2.33641,-8.39346 2.86822,-12.72594 0.31464,-2.96156 0.42182,-5.9409 0.43355,-8.91771 -0.10825,-2.0402 2.1401,-1.96334 3.37704,-2.92552 1.37428,-1.29354 0.68778,-0.66298 2.05837,-1.89288 0,0 11.3169,0.95985 11.3169,0.95985 l 0,0 c -1.36353,1.19086 -0.68248,0.58566 -2.04273,1.81606 -0.53345,0.66416 -0.88265,1.33892 -1.75189,1.60805 -0.49808,0.15421 -1.26034,-0.52271 -1.56121,-0.0969 -0.10523,0.14894 -0.006,0.36469 -0.009,0.54704 -0.071,3.01642 -0.18662,6.03651 -0.50966,9.03768 -0.51677,4.36552 -1.43451,8.66567 -2.84737,12.83525 -0.88809,4.17848 -2.7002,7.61587 -5.85036,10.57162 -5.00891,5.25472 -10.90198,9.54418 -17.43946,12.72829 -9.29489,4.61242 -18.63566,9.08294 -28.11666,13.29918 -8.98986,4.03503 -18.31431,7.39116 -27.8109,10.00909 -11.94422,2.45348 -24.10937,3.45208 -36.28162,1.8046 -7.72644,-1.12859 -15.22546,-3.07333 -21.56145,-7.88668 -5.57081,-4.31177 -10.81807,-9.10051 -14.33388,-15.29629 -2.91718,-5.56965 -4.93918,-11.50311 -5.05774,-17.85509 0.44154,-7.03532 1.3246,-14.06097 3.94004,-20.66782 2.97878,-6.98156 6.62567,-13.77529 12.21498,-19.03747 5.59038,-5.41122 11.89776,-9.72367 18.83823,-13.26293 0,0 11.23926,1.24946 11.23926,1.24946 z" />
    <path
       style="fill:#000000;fill-opacity:1;fill-rule:nonzero;stroke:#000000;stroke-width:4.69999981;stroke-linecap:round;stroke-linejoin:round;stroke-miterlimit:4;stroke-opacity:1;stroke-dasharray:none;stroke-dashoffset:0"
       id="path3575"
       d="m 449.47265,763.39019 c -6.24366,-2.99063 -12.2421,-6.38126 -18.83647,-8.58186 -3.98989,-1.363 -12.57039,-2.19131 5.4934,-0.93078 0.0204,10e-4 -1.73897,0.20992 -3.28543,2.13377 -2.10149,3.32518 -2.84671,7.13912 -3.95766,10.84395 -1.7198,6.38935 -4.07733,12.49934 -7.14188,18.35545 -2.01987,3.12451 -3.5843,6.79511 -7.04667,8.51381 0,0 -11.27702,-1.37175 -11.27702,-1.37175 l 0,0 c 3.69976,-0.94655 5.0611,-4.76228 7.07832,-7.69135 3.10423,-5.76293 5.44226,-11.79448 7.09617,-18.13686 1.1529,-3.80321 1.85585,-7.73279 3.91728,-11.20184 4.1156,-6.71146 13.75481,-4.02236 20.31652,-1.90474 6.55101,2.37489 12.58077,5.79191 18.8827,8.72274 0,0 -11.23926,1.24946 -11.23926,1.24946 z" />
    <path
       style="fill:#000000;fill-opacity:1;fill-rule:nonzero;stroke:#000000;stroke-width:4.69999981;stroke-linecap:round;stroke-linejoin:round;stroke-miterlimit:4;stroke-opacity:1;stroke-dasharray:none;stroke-dashoffset:0"
       id="path3577"
       d="m 498.56277,708.73812 c -5.73249,7.12427 -10.68071,14.75325 -14.53197,23.04404 -0.91491,3.56513 -6.09148,11.80681 -1.6294,14.63668 5.31259,-0.75085 -1.83903,0.35167 -7.58655,-0.50188 -0.80653,-0.11977 1.57817,-0.42788 2.33177,-0.7392 2.78671,-1.15122 5.43626,-2.83567 8.02625,-4.3582 10.24686,-6.14472 10.82339,-5.24222 24.2741,-4.71707 3.41084,2.5692 4.02388,6.37339 4.54605,10.35156 0.63231,1.6021 0.62992,3.72912 1.59391,5.21087 0.34511,0.53046 2.52446,0.18686 1.89318,0.14248 -3.33847,-0.23472 -6.6919,-0.1425 -10.03785,-0.21374 5.21695,-2.56363 7.75682,-8.43075 10.70083,-13.15034 2.58282,-3.75491 4.42511,-7.92009 6.29088,-12.05428 0,0 11.18959,0.47512 11.18959,0.47512 l 0,0 c -1.88592,4.16959 -3.70348,8.39693 -6.28262,12.20288 -3.06684,4.94523 -5.61638,10.71285 -10.62886,13.97251 -12.74022,0.53434 -13.7463,3.62046 -16.04193,-6.43754 -0.46652,-3.54544 -0.96941,-7.22548 -4.46955,-9.02251 3.21932,-0.11864 6.43865,-0.23728 9.65797,-0.35593 -0.5465,0.0312 -1.10627,-0.0303 -1.6395,0.0934 -3.53876,0.82101 -6.63497,3.10837 -9.84725,4.66263 -7.86295,4.77438 -15.22187,9.00539 -25.28003,5.3814 -3.88893,-4.61734 0.21278,-11.22051 1.75586,-16.06399 3.85555,-8.35845 8.80881,-16.03396 14.4269,-23.32175 0,0 11.28822,0.76282 11.28822,0.76282 z" />
    <path
       style="fill:#000000;fill-opacity:1;fill-rule:nonzero;stroke:#000000;stroke-width:4.69999981;stroke-linecap:round;stroke-linejoin:round;stroke-miterlimit:4;stroke-opacity:1;stroke-dasharray:none;stroke-dashoffset:0"
       id="path3579"
       d="m 559.40297,405.76379 c 10.03016,0.0144 20.06034,0.0131 30.0905,0.0139 11.62526,4.6e-4 23.25051,1.1e-4 34.87576,-6e-5 9.97048,9e-5 19.94096,-0.003 29.91143,-0.007 2.39615,-0.002 4.7923,-10e-4 7.18845,-0.003 0.97002,-5.2e-4 3.87896,0.0446 2.91007,-0.002 -14.18445,-0.68668 -9.21157,0.0603 -4.73501,-1.1421 7.72008,-1.32631 15.01174,-2.45774 17.00256,5.15033 0.70294,3.8137 0.51403,7.73926 0.49148,11.60059 0.35159,7.14742 -0.50975,14.1879 -1.38239,21.26135 -0.87228,7.29237 -1.23916,14.62969 -1.45103,21.9667 0.25104,3.96844 -0.49782,7.7409 -1.79482,11.46471 -4.32933,4.95987 -13.32072,1.4713 -18.88348,-0.37582 -6.14003,-1.66615 -12.28521,-3.16156 -18.59241,-4.04253 -1.38425,-0.14642 -2.76623,-0.3162 -4.15275,-0.43928 -4.63448,-0.41138 -9.28909,-0.57465 -13.93887,-0.68429 -1.71327,-0.0404 -6.77533,-0.60503 -5.14044,-0.0912 1.81283,0.5698 3.79641,0.1769 5.69462,0.26534 -10.01314,0.48387 -19.84228,2.46841 -29.74925,3.84169 -7.13994,0.98522 -14.33773,1.35724 -21.53644,1.52715 -8.03183,0.12937 -16.06526,0.0808 -24.09783,0.0573 -3.06503,-0.081 -6.09011,0.54943 -8.79903,-1.09165 -1.80907,-3.14337 -0.20109,-7.67422 0.21152,-11.13306 0.63602,-7.36518 2.77313,-14.47714 4.20846,-21.70538 1.24495,-7.75296 3.22789,-15.34644 4.33505,-23.12496 0.4492,-3.80747 0.75115,-7.63523 0.83527,-11.46883 0.0218,-0.55104 -0.0242,-0.97235 -0.0259,-1.39908 -0.52145,-0.13986 -0.24022,-0.0171 -0.79563,-0.46296 0,0 11.35715,-0.91573 11.35715,-0.91573 l 0,0 c 0.68153,0.76094 0.38431,0.32001 0.85003,1.34991 0.0308,0.48877 0.0341,0.97704 0.002,1.46657 -0.17759,3.87365 -0.51932,7.73912 -0.96887,11.59031 -1.12526,7.79984 -3.15068,15.40548 -4.40018,23.18115 -1.39086,7.20315 -3.50644,14.28412 -4.09964,21.62017 -0.31321,2.74746 -2.0097,7.49675 -0.20458,9.74844 2.74398,1.08974 5.8076,0.36475 8.68985,0.57562 3.94021,0.0135 12.22608,0.006 -5.40379,0.013 -0.68981,2.7e-4 1.37961,0.002 2.06942,-2.2e-4 2.52365,-0.006 2.51481,-0.0118 5.10484,-0.0398 7.21695,-0.13376 14.43606,-0.44485 21.59969,-1.38803 9.93505,-1.32646 19.76907,-3.37666 29.79732,-3.92685 13.21731,-0.24651 26.50779,-0.69347 39.65763,1.04122 6.33721,0.96476 12.55851,2.46003 18.72029,4.22096 1.11735,0.36242 2.60253,0.8867 3.78261,1.12111 0.45451,0.0903 1.84379,0.1474 1.38064,0.16261 -17.96167,0.58998 -12.55791,0.42861 -8.86326,0.11121 1.36233,-3.59607 2.08596,-7.23513 1.87267,-11.10465 0.25475,-7.37034 0.67951,-14.73819 1.51021,-22.06849 0.86511,-7.0291 1.69973,-14.02352 1.31728,-21.12463 -0.0164,-3.75769 0.15619,-7.58049 -0.55773,-11.28667 -0.35575,-1.15495 -0.70293,-2.3246 -1.71389,-3.10572 -0.30964,-0.23925 -1.4274,-0.51089 -1.0379,-0.54847 4.87553,-0.47051 14.08253,-0.1965 8.34271,-0.34865 -8.93422,2.71407 -18.47426,1.06077 -27.68337,1.4408 -9.94121,-0.004 -19.88243,-0.007 -29.82364,-0.007 -11.62501,-1.6e-4 -23.25003,-5.2e-4 -34.87505,-6e-5 -10.08865,8e-4 -20.17731,-4.1e-4 -30.26596,0.0139 0,0 11.16411,-1.76822 11.16411,-1.76822 z" />
    <path
       style="fill:#000000;fill-opacity:1;fill-rule:nonzero;stroke:#000000;stroke-width:4.69999981;stroke-linecap:round;stroke-linejoin:round;stroke-miterlimit:4;stroke-opacity:1;stroke-dasharray:none;stroke-dashoffset:0"
       id="path3581"
       d="m 673.68869,442.90664 c 1.31489,0.002 5.24722,0.18615 3.94466,0.007 -2.00743,-0.27682 -4.99045,1.41388 -6.07188,-0.29987 -0.99811,-1.58171 3.72792,-0.30788 5.59198,-0.46062 6.10851,-0.50054 12.21,-0.9292 18.32957,-1.27018 14.61805,-0.7952 29.26285,-0.48211 43.88333,-1.12116 17.01558,-0.67072 33.97004,-2.02755 50.93096,-3.48439 10.71753,-0.91902 21.46037,-1.53048 32.21213,-1.84727 6.74768,-0.16061 13.50006,-0.21156 20.24903,-0.11511 4.42144,0.0597 -13.30534,3.00263 -9.75808,-0.80579 0,0 11.35453,0.84556 11.35453,0.84556 l 0,0 c -3.04034,3.35037 -8.43488,1.68797 -12.86066,1.73083 -3.95313,-0.0353 -0.42408,-0.002 9.87939,-0.009 0.36423,-2.4e-4 -0.72845,-0.002 -1.09268,-10e-4 -2.22126,0.006 -4.44237,0.0379 -6.66314,0.0834 -10.82325,0.26972 -21.63879,0.84227 -32.42798,1.74908 -16.96816,1.43874 -33.92298,2.85275 -50.94484,3.52535 -14.58877,0.71918 -29.20541,0.35476 -43.7961,1.12543 -14.64335,0.78452 -29.22922,2.54694 -43.92434,2.11687 0,0 11.16412,-1.76823 11.16412,-1.76823 z" />
    <path
       style="fill:#000000;fill-opacity:1;fill-rule:nonzero;stroke:#000000;stroke-width:4.69999981;stroke-linecap:round;stroke-linejoin:round;stroke-miterlimit:4;stroke-opacity:1;stroke-dasharray:none;stroke-dashoffset:0"
       id="path3583"
       d="m 840.90724,418.09778 c -4.88499,-2.97097 -25.47562,-2.58512 -4.84029,-2.4956 -1.54603,0.0231 -3.08596,0.15491 -4.62171,0.32295 -0.23253,-0.88299 2.78296,0.85846 3.20014,1.1031 4.89934,2.48015 10.07242,4.35684 15.06988,6.64186 5.55387,3.00875 11.42644,5.39542 17.19899,7.9506 4.78989,1.35377 8.45166,4.37644 10.98394,8.59195 2.26692,3.90394 0.27667,7.29769 -2.07889,10.55409 -3.07495,3.66342 -7.02972,6.45846 -10.62146,9.59823 -4.27476,3.76557 -8.88091,7.13818 -13.58495,10.34476 -6.89531,4.97146 -10.88729,3.6168 -20.28813,3.58873 0,0 11.23101,-1.72195 11.23101,-1.72195 l 0,0 c -22.49969,0.19839 -9.39038,0.81748 -6.51759,-0.33786 0.39848,-0.16026 4.24848,-2.55799 4.36666,-2.63083 4.71477,-3.11055 9.26231,-6.50674 13.52098,-10.21694 3.59849,-3.02505 7.37487,-5.93223 10.59691,-9.34622 2.18601,-2.87035 4.25868,-5.67162 2.07299,-9.19731 -2.63419,-3.99684 -6.31994,-6.51758 -10.89956,-7.93216 -5.73771,-2.61169 -11.59671,-4.97175 -17.15655,-7.95616 -5.06256,-2.23761 -10.26246,-4.17007 -15.18221,-6.71824 -1.72574,-0.87725 -3.97141,-1.59646 -3.22188,-3.87894 1.55147,-0.36589 3.15704,-0.4196 4.74397,-0.51182 9.5468,-0.0211 18.32024,-0.75756 27.25497,2.83809 0,0 -11.22722,1.40967 -11.22722,1.40967 z" />
    <path
       style="fill:#000000;fill-opacity:1;fill-rule:nonzero;stroke:#000000;stroke-width:4.69999981;stroke-linecap:round;stroke-linejoin:round;stroke-miterlimit:4;stroke-opacity:1;stroke-dasharray:none;stroke-dashoffset:0"
       id="path3585"
       d="m 871.36592,331.89738 c -0.10796,10.7492 -0.0965,21.49914 -0.098,32.24874 0.25563,9.23475 -0.97928,18.41849 -1.98913,27.57733 -0.0832,0.75493 -0.16645,1.50987 -0.24967,2.2648 0,0 -11.30841,-0.13369 -11.30841,-0.13369 l 0,0 c 0.096,-0.75406 0.19201,-1.50812 0.28801,-2.26219 1.12376,-9.10673 2.39081,-18.24785 2.15187,-27.44625 -0.002,-10.7496 0.01,-21.49954 -0.098,-32.24874 0,0 11.30327,0 11.30327,0 z" />
    <path
       style="fill:#000000;fill-opacity:1;fill-rule:nonzero;stroke:#000000;stroke-width:4.69999981;stroke-linecap:round;stroke-linejoin:round;stroke-miterlimit:4;stroke-opacity:1;stroke-dasharray:none;stroke-dashoffset:0"
       id="path3587"
       d="m 876.87875,325.76519 c -2.33384,-0.0967 -4.77773,0.42463 -7.00152,-0.29015 -1.48882,-0.47854 3.11238,-0.30897 4.66894,-0.4596 6.24189,-0.60404 12.51121,-0.95077 18.71805,-1.8419 3.63729,-0.63235 7.23574,-1.45893 10.85347,-2.19113 0,0 11.21247,1.55147 11.21247,1.55147 l 0,0 c -3.66095,0.71167 -7.29853,1.527 -10.96182,2.22617 -12.72062,2.06017 -25.80407,2.2932 -38.63602,2.77056 0,0 11.14643,-1.76542 11.14643,-1.76542 z" />
    <path
       style="fill:#000000;fill-opacity:1;fill-rule:nonzero;stroke:#000000;stroke-width:4.69999981;stroke-linecap:round;stroke-linejoin:round;stroke-miterlimit:4;stroke-opacity:1;stroke-dasharray:none;stroke-dashoffset:0"
       id="path3589"
       d="m 882.26012,354.33521 c 7.1868,0.0123 14.37361,0.0112 21.56042,0.007 0,0 -11.079,1.75475 -11.079,1.75475 l 0,0 c -7.21518,-0.004 -14.43037,-0.005 -21.64554,0.007 0,0 11.16412,-1.76823 11.16412,-1.76823 z" />
    <path
       style="fill:#000000;fill-opacity:1;fill-rule:nonzero;stroke:#000000;stroke-width:4.69999981;stroke-linecap:round;stroke-linejoin:round;stroke-miterlimit:4;stroke-opacity:1;stroke-dasharray:none;stroke-dashoffset:0"
       id="path3591"
       d="m -103.76438,423.76945 c 4.989732,1.4601 10.09053,2.87764 15.287491,3.37566 1.380731,0.13232 5.546,0.11206 4.159083,0.13176 -2.262802,0.0322 -4.525624,-0.0629 -6.788436,-0.0944 8.516379,-0.43836 17.027676,-0.92155 25.552346,-1.17233 8.491579,-0.12653 16.900554,-1.49707 25.349233,-2.26883 6.564724,-0.13325 12.988783,-1.32641 19.432783,-2.45726 4.008923,-0.74459 8.06723,-1.0537 12.1356839,-1.19487 6.5519748,0.41594 14.7021916,-2.18835 20.4168761,0.45389 2.842362,2.01078 2.370171,6.52833 2.081935,9.55935 -1.117642,6.55598 -1.780996,13.15678 -2.168264,19.79197 -0.284643,5.64038 -0.329475,11.28854 -0.350671,16.9348 -0.189381,4.55821 0.414753,9.17447 -0.317415,13.68862 -2.0271825,8.57616 -4.1437814,5.83897 -15.1110789,5.7974 -2.9033245,-1.02326 -6.0056651,-0.9837 -8.9364201,-1.86171 -4.94304,-1.56415 -10.102562,-2.05889 -15.249714,-2.36384 -7.259378,-0.32021 -14.528417,-0.29558 -21.793203,-0.30278 2.418052,4.7e-4 4.836105,-10e-4 7.254156,10e-4 1.332234,0.001 -2.664469,8.9e-4 -3.996703,0.002 -5.336047,0.004 -10.672094,0.01 -16.00814,0.0146 -7.953912,-0.41696 -15.81534,0.73613 -23.687221,1.6642 -5.473943,0.92993 -10.81326,2.47428 -16.283641,3.41955 -10.05107,1.55978 -15.22583,3.38238 -16.89811,-5.52893 -0.47999,-4.73182 -0.34432,-9.50389 -0.31984,-14.2535 0.0302,-6.53159 1.41689,-12.96598 2.14819,-19.44526 0.52092,-4.90901 0.68706,-9.8423 0.76194,-14.77485 0.0139,-2.40191 0.008,-4.8041 -0.0156,-7.20596 -0.0129,-0.74964 -0.006,-1.49939 -0.009,-2.24911 0,0 11.3867,-0.003 11.3867,-0.003 l 0,0 c 0.002,0.74913 0.0112,1.49818 0.007,2.2473 -0.003,2.40975 0.003,4.81946 -0.0489,7.22889 -0.0839,4.97015 -0.29055,9.93834 -0.82032,14.88366 -0.73093,6.43721 -2.13186,12.83308 -2.12455,19.32313 -0.0159,4.67351 -0.14655,9.37377 0.37544,14.02539 0.26071,1.22663 0.47786,2.85306 1.51619,3.73787 0.27361,0.23316 1.33953,0.42242 0.98097,0.44802 -20.95546,1.49593 -11.29203,0.36217 -8.14948,-0.0262 5.52677,-0.8224 10.89954,-2.37049 16.376066,-3.45584 7.885482,-0.90618 15.748937,-2.22022 23.716673,-1.79051 11.640223,-0.006 23.280434,-0.0288 34.920664,-0.0167 7.28334,0.0121 14.572545,-0.0154 21.84819,0.36725 5.188984,0.37277 10.3520375,1.01213 15.3400344,2.56518 2.9717819,0.6471 6.0102842,0.95025 8.9631782,1.70437 -3.4181571,0.0657 -6.83783378,0.0759 -10.2544712,0.19721 -0.1884505,0.007 0.653111,0.64173 1.395523,-0.43528 0.80262328,-1.16437 0.87356425,-2.83528 1.39402755,-4.10413 0.78917501,-4.43861 0.11478745,-9.0136 0.34654464,-13.50241 0.01913259,-5.66778 0.08886825,-11.33578 0.39943048,-16.99653 0.39027823,-6.64547 1.01688033,-13.26097 2.12031553,-19.83041 0.2270249,-2.5289 0.8373667,-6.80564 -2.0693036,-8.02283 -3.6222829,-0.59717 -11.242297,-0.17713 7.3145554,-0.17895 0.5004995,-5e-5 -1.0009986,7.9e-4 -1.5014979,10e-4 -2.4489462,0.0132 -1.1977932,0.003 -3.7534509,0.032 -4.0708246,0.0942 -8.1378591,0.31965 -12.1557212,1.02805 -6.4776104,1.11689 -12.9125764,2.48027 -19.5159544,2.5402 -8.465324,0.7322 -16.880702,2.12661 -25.375919,2.3333 -8.525121,0.23078 -17.039052,0.6669 -25.551422,1.18358 -12.026771,0.0499 -23.530512,0.46525 -34.954672,-3.73564 0,0 11.22722,-1.40967 11.22722,-1.40967 z" />
    <path
       style="fill:#000000;fill-opacity:1;fill-rule:nonzero;stroke:#000000;stroke-width:4.69999981;stroke-linecap:round;stroke-linejoin:round;stroke-miterlimit:4;stroke-opacity:1;stroke-dasharray:none;stroke-dashoffset:0"
       id="path3593"
       d="m -102.87518,458.95918 c -13.97599,0.018 -27.95096,-0.21031 -41.91927,0.29587 -19.61761,0.43676 -39.08352,2.69355 -58.48366,5.48873 -18.94506,2.87875 -37.47638,7.72617 -55.6914,13.5948 -8.29909,2.68253 -16.5172,5.60455 -24.77833,8.4007 0,0 -11.07535,-1.38889 -11.07535,-1.38889 l 0,0 c 8.33491,-2.76392 16.61089,-5.69742 24.96971,-8.38837 18.24417,-5.91946 36.80604,-10.82187 55.78418,-13.76817 19.38114,-2.83861 38.83088,-5.14975 58.43553,-5.61244 13.8647,-0.57556 27.73746,-0.3251 41.61216,-0.38765 0,0 11.14643,1.76542 11.14643,1.76542 z" />
    <path
       style="fill:#000000;fill-opacity:1;fill-rule:nonzero;stroke:#000000;stroke-width:4.69999981;stroke-linecap:round;stroke-linejoin:round;stroke-miterlimit:4;stroke-opacity:1;stroke-dasharray:none;stroke-dashoffset:0"
       id="path3595"
       d="m -270.36025,451.37831 c -7.95941,7.1964 -15.82216,14.49776 -23.01177,22.47032 -6.24239,7.54353 -13.81587,15.33481 -15.53002,25.31367 0.55348,8.70049 8.62503,9.9593 15.76229,11.18544 14.35371,0.32814 0.23934,0.14318 0.32705,0.0739 1.65273,-1.30507 4.18346,-0.50474 6.25758,-0.8691 1.89115,-0.33222 3.75323,-0.81278 5.62985,-1.21917 0,0 11.02394,1.49977 11.02394,1.49977 l 0,0 c -11.30261,2.57437 -22.68078,3.50008 -34.29871,2.06071 -7.77798,-1.52391 -15.59737,-3.62843 -15.93487,-12.92133 1.73007,-10.21142 9.25367,-18.22488 15.68976,-25.93416 7.14091,-8.02631 15.03946,-15.27572 22.81633,-22.67249 0,0 11.26857,1.01243 11.26857,1.01243 z" />
    <path
       style="fill:#000000;fill-opacity:1;fill-rule:nonzero;stroke:#000000;stroke-width:4.69999981;stroke-linecap:round;stroke-linejoin:round;stroke-miterlimit:4;stroke-opacity:1;stroke-dasharray:none;stroke-dashoffset:0"
       id="path3597"
       d="m -238.37118,324.65159 c 8.7219,7.65529 12.33205,18.42876 15.62651,29.15998 2.81005,9.59696 4.16241,19.49187 5.31036,29.39406 0.0641,0.58818 0.12811,1.17636 0.19217,1.76454 0,0 -11.33549,0.10729 -11.33549,0.10729 l 0,0 c -0.0473,-0.585 -0.0946,-1.17 -0.14195,-1.755 -0.90428,-9.84924 -2.34159,-19.65753 -5.10415,-29.1788 -3.2887,-10.57745 -6.92704,-21.20292 -15.81602,-28.47963 0,0 11.26857,-1.01244 11.26857,-1.01244 z" />
    <path
       style="fill:#000000;fill-opacity:1;fill-rule:nonzero;stroke:#000000;stroke-width:4.69999981;stroke-linecap:round;stroke-linejoin:round;stroke-miterlimit:4;stroke-opacity:1;stroke-dasharray:none;stroke-dashoffset:0"
       id="path3599"
       d="m -223.57216,324.44523 c 7.72597,-5.83963 16.15884,-10.71485 24.69742,-15.25934 5.09715,-2.50957 9.86094,-5.58297 14.52577,-8.80592 0,0 11.18305,1.08313 11.18305,1.08313 l 0,0 c -4.69599,3.25364 -9.45469,6.42291 -14.60288,8.93405 -8.50912,4.42755 -16.87617,9.27634 -24.55788,15.03578 0,0 -11.24548,-0.9877 -11.24548,-0.9877 z" />
    <path
       style="fill:#000000;fill-opacity:1;fill-rule:nonzero;stroke:#000000;stroke-width:4.69999981;stroke-linecap:round;stroke-linejoin:round;stroke-miterlimit:4;stroke-opacity:1;stroke-dasharray:none;stroke-dashoffset:0"
       id="path3601"
       d="m -239.99973,348.07588 c 12.25668,-3.25157 24.42988,-6.8016 36.44829,-10.84973 0,0 11.02002,1.38052 11.02002,1.38052 l 0,0 c -11.98399,4.02751 -24.1056,7.58101 -36.28635,10.96048 0,0 -11.18196,-1.49127 -11.18196,-1.49127 z" />
    <path
       style="fill:#000000;fill-opacity:1;fill-rule:nonzero;stroke:#000000;stroke-width:4.69999981;stroke-linecap:round;stroke-linejoin:round;stroke-miterlimit:4;stroke-opacity:1;stroke-dasharray:none;stroke-dashoffset:0"
       id="path3655"
       d="m 136.07453,91.079983 c 6.02907,-4.158582 18.83409,-7.403405 24.32171,-1.902162 2.89733,3.734806 2.07792,8.159078 0.84387,12.367869 -1.1704,4.61455 -3.5458,8.72949 -5.4123,13.06521 -1.27497,2.52663 -0.27382,2.97944 2.0816,3.15774 5.82769,0.19039 -5.53297,0.0502 -8.28782,-0.16371 -0.56573,-0.0439 1.10286,-0.26763 1.65302,-0.40657 1.98803,-0.50207 3.96846,-0.94145 5.98307,-1.32531 3.13733,-0.55685 6.31664,-0.77967 9.49541,-0.92113 1.84303,-0.14543 1.84866,0.62099 1.20516,-1.42267 -0.15492,-0.45493 -0.30984,-0.90985 -0.46476,-1.36478 0,0 11.34633,-0.37174 11.34633,-0.37174 l 0,0 c 0.15693,0.46296 0.31387,0.92593 0.4708,1.38889 0.60055,1.89352 1.22916,3.82977 -1.31495,3.50855 -3.1848,0.0932 -6.37071,0.26648 -9.52365,0.75068 -7.27038,1.28736 -14.15925,3.67361 -21.82274,1.90165 -2.66432,-0.76764 -3.45379,-2.64279 -2.14415,-5.19354 1.86333,-4.29944 4.27366,-8.3542 5.44872,-12.93202 1.15198,-3.756106 2.07094,-7.863429 -0.85212,-11.055823 -3.92403,-2.682162 -1.70309,-0.782798 8.13661,-1.285707 0.74018,-0.03783 -1.49035,-0.08384 -2.22328,0.02621 -2.7484,0.412658 -5.43353,1.581051 -7.67196,3.190804 0,0 -11.26857,-1.012437 -11.26857,-1.012437 z"
       transform="translate(-322.48491,298.02997)" />
    <path
       style="fill:#000000;fill-opacity:1;fill-rule:nonzero;stroke:#000000;stroke-width:4.69999981;stroke-linecap:round;stroke-linejoin:round;stroke-miterlimit:4;stroke-opacity:1;stroke-dasharray:none;stroke-dashoffset:0"
       id="path3657"
       d="m 1234.9097,100.53612 c 2.121,6.86067 3.4354,13.92995 4.3665,21.03985 0.2947,4.00953 0.3899,7.88063 2.0175,11.59566 1.6781,3.33281 10.9064,4.30592 -10.226,-0.0344 -0.8261,-0.16968 0.2634,-1.66677 0.3528,-2.50538 0,0 11.3626,0.12102 11.3626,0.12102 l 0,0 c -0.014,0.13058 -0.2649,2.66786 -0.3599,2.69207 -9.4258,2.40022 -10.3237,4.90333 -12.4819,0.17585 -1.5307,-3.84556 -1.6573,-7.80081 -1.9319,-11.9003 -0.8941,-7.04668 -2.1431,-14.06966 -4.4092,-20.82032 0,0 11.3095,-0.36401 11.3095,-0.36401 z"
       transform="translate(-322.48491,298.02997)" />
    <path
       style="fill:#000000;fill-opacity:1;fill-rule:nonzero;stroke:#000000;stroke-width:4.69999981;stroke-linecap:round;stroke-linejoin:round;stroke-miterlimit:4;stroke-opacity:1;stroke-dasharray:none;stroke-dashoffset:0"
       id="path3679"
       d="m 689.6742,376.29524 c -1.11613,-7.16151 -1.77308,-14.37782 -2.18728,-21.61025 -0.77582,-5.57205 -2.06344,-11.04152 -2.68599,-16.63562 -0.25588,-3.28407 -0.14614,-1.68773 -0.33405,-4.78869 0,0 2.82754,-0.0169 2.82754,-0.0169 l 0,0 c 0.18278,3.09282 0.0743,1.50129 0.33088,4.77423 0.6254,5.5975 1.90821,11.07345 2.67353,16.65097 0.40985,7.22508 1.05711,14.43602 2.20059,21.58617 0,0 -2.82522,0.0401 -2.82522,0.0401 z"
       transform="translate(-322.48491,298.02997)" />
    <path
       style="fill:#000000;fill-opacity:1;fill-rule:nonzero;stroke:#000000;stroke-width:4.69999981;stroke-linecap:round;stroke-linejoin:round;stroke-miterlimit:4;stroke-opacity:1;stroke-dasharray:none;stroke-dashoffset:0"
       id="path3681"
       d="m 681.44423,307.70377 c 0.0167,-7.289 0.009,-14.57804 0.006,-21.86705 -0.0443,-5.05397 -0.27846,-10.03535 0.80621,-14.99023 0.52692,-2.16144 0.88751,-4.35714 1.25621,-6.54932 0,0 2.82925,0.0473 2.82925,0.0473 l 0,0 c -0.37187,2.1963 -0.73073,4.39713 -1.25774,6.56324 -1.0901,4.93412 -0.85239,9.89383 -0.82084,14.92901 -0.002,7.28901 -0.0103,14.57805 0.006,21.86705 0,0 -2.82582,0 -2.82582,0 z"
       transform="translate(-322.48491,298.02997)" />
    <path
       style="fill:#000000;fill-opacity:1;fill-rule:nonzero;stroke:#000000;stroke-width:4.69999981;stroke-linecap:round;stroke-linejoin:round;stroke-miterlimit:4;stroke-opacity:1;stroke-dasharray:none;stroke-dashoffset:0"
       id="path3683"
       d="m 693.21487,236.25515 c 1.08541,-6.88376 1.74263,-13.82305 2.19751,-20.77393 0.21847,-5.86396 0.20311,-11.66986 1.15386,-17.47136 0,0 2.81824,0.0461 2.81824,0.0461 l 0,0 c -0.96121,5.79173 -0.92478,11.58882 -1.15404,17.44388 -0.46361,6.95705 -1.13514,13.90087 -2.19035,20.79543 0,0 -2.82522,-0.0401 -2.82522,-0.0401 z"
       transform="translate(-322.48491,298.02997)" />
    <path
       style="fill:#000000;fill-opacity:1;fill-rule:nonzero;stroke:#000000;stroke-width:4.69999981;stroke-linecap:round;stroke-linejoin:round;stroke-miterlimit:4;stroke-opacity:1;stroke-dasharray:none;stroke-dashoffset:0"
       id="path3685"
       d="m 675.38849,153.4381 c -1.19797,-8.37079 -1.78431,-16.80405 -2.1824,-25.2449 0.058,-4.01276 0.5379,-7.99703 1.00641,-11.97639 0,0 2.80994,0.0332 2.80994,0.0332 l 0,0 c -0.47559,3.96336 -0.95859,7.93206 -1.01421,11.93004 0.39187,8.43268 0.97153,16.86015 2.20547,25.21792 0,0 -2.82521,0.0401 -2.82521,0.0401 z"
       transform="translate(-322.48491,298.02997)" />
    <path
       style="fill:#000000;fill-opacity:1;fill-rule:nonzero;stroke:#000000;stroke-width:4.69999981;stroke-linecap:round;stroke-linejoin:round;stroke-miterlimit:4;stroke-opacity:1;stroke-dasharray:none;stroke-dashoffset:0"
       id="path3687"
       d="m 687.15852,81.989483 c 0.26675,-8.484626 -0.46411,-17.020431 0.34926,-25.477002 0.4542,-5.610559 1.91366,-10.932027 3.48102,-16.297526 0.18724,-0.676966 0.37449,-1.353932 0.56173,-2.030898 0,0 2.82849,0.07654 2.82849,0.07654 l 0,0 c -0.18861,0.678192 -0.37723,1.356384 -0.56584,2.034576 -1.56014,5.350617 -3.04332,10.648102 -3.49458,16.24458 -0.832,8.445582 -0.11654,16.974836 -0.33426,25.449725 0,0 -2.82582,0 -2.82582,0 z"
       transform="translate(-322.48491,298.02997)" />
    <path
       style="fill:#000000;fill-opacity:1;fill-rule:nonzero;stroke:#000000;stroke-width:4.69999981;stroke-linecap:round;stroke-linejoin:round;stroke-miterlimit:4;stroke-opacity:1;stroke-dasharray:none;stroke-dashoffset:0"
       id="path3689"
       d="m 692.53134,7.7238143 c -1.52993,-9.5996136 -3.32096,-19.1161443 -4.24285,-28.8057343 -0.13613,-1.757591 -0.27225,-3.515182 -0.40837,-5.272773 0,0 2.78786,-0.02141 2.78786,-0.02141 l 0,0 c 0.13418,1.755871 0.26837,3.511742 0.40256,5.267614 0.93383,9.685501 2.71578,19.2012039 4.28602,28.7922086 0,0 -2.82522,0.040092 -2.82522,0.040092 z"
       transform="translate(-322.48491,298.02997)" />
  </g>
</svg>
