<?xml version="1.0" encoding="UTF-8" standalone="no"?>
<!-- Created with Inkscape (http://www.inkscape.org/) -->
<svg
   xmlns:dc="http://purl.org/dc/elements/1.1/"
   xmlns:cc="http://creativecommons.org/ns#"
   xmlns:rdf="http://www.w3.org/1999/02/22-rdf-syntax-ns#"
   xmlns:svg="http://www.w3.org/2000/svg"
   xmlns="http://www.w3.org/2000/svg"
   xmlns:sodipodi="http://sodipodi.sourceforge.net/DTD/sodipodi-0.dtd"
   xmlns:inkscape="http://www.inkscape.org/namespaces/inkscape"
   width="1639.996"
   height="336.95001"
   id="svg2"
   sodipodi:version="0.32"
   inkscape:version="0.46+devel"
   version="1.0"
   sodipodi:docname="c28d1.svg"
   inkscape:output_extension="org.inkscape.output.svg.inkscape">
  <defs
     id="defs4">
    <inkscape:perspective
       sodipodi:type="inkscape:persp3d"
       inkscape:vp_x="0 : 526.18109 : 1"
       inkscape:vp_y="0 : 1000 : 0"
       inkscape:vp_z="744.09448 : 526.18109 : 1"
       inkscape:persp3d-origin="372.04724 : 350.78739 : 1"
       id="perspective10" />
  </defs>
  <sodipodi:namedview
     id="base"
     pagecolor="#ffffff"
     bordercolor="#666666"
     borderopacity="1.0"
     inkscape:pageopacity="0.0"
     inkscape:pageshadow="2"
     inkscape:zoom="0.35"
     inkscape:cx="582.0758"
     inkscape:cy="156.03081"
     inkscape:document-units="px"
     inkscape:current-layer="layer1"
     showgrid="false"
     inkscape:window-width="1280"
     inkscape:window-height="712"
     inkscape:window-x="-5"
     inkscape:window-y="-3" />
  <metadata
     id="metadata7">
    <rdf:RDF>
      <cc:Work
         rdf:about="">
        <dc:format>image/svg+xml</dc:format>
        <dc:type
           rdf:resource="http://purl.org/dc/dcmitype/StillImage" />
        <dc:title></dc:title>
      </cc:Work>
    </rdf:RDF>
  </metadata>
  <g
     inkscape:label="Layer 1"
     inkscape:groupmode="layer"
     id="layer1"
     transform="translate(207.0758,-351.44297)">
    <path
       style="opacity:1;fill:#000000;fill-opacity:1;fill-rule:nonzero;stroke:#000000;stroke-width:4.69999980999999956;stroke-linecap:round;stroke-linejoin:round;stroke-miterlimit:4;stroke-opacity:1;stroke-dasharray:none;stroke-dashoffset:0"
       id="path2696"
       d="m -199.54579,531.54852 c -2.35117,-7.47373 -2.64767,-15.30866 -1.29486,-22.97596 1.82976,-8.92735 5.00146,-17.47773 8.62599,-25.81174 4.56775,-9.56454 9.87081,-18.75252 15.43361,-27.76646 6.35435,-10.23032 14.49109,-19.04438 22.8205,-27.66434 8.39316,-9.16898 17.85774,-17.14614 27.82329,-24.53087 14.17412,-9.67184 29.234223,-18.02237 44.759045,-25.3181 11.047713,-4.87282 22.826648,-7.56081 34.453646,-10.6258 12.478993,-2.98944 25.065809,-5.43901 37.6794755,-7.78119 10.8877924,-1.87822 21.9145045,-2.51715 32.8748905,-3.81783 10.747618,-1.40512 21.493115,-1.85862 32.293191,-1.09594 10.602814,1.14653 20.842368,4.11427 31.150222,6.6911 9.953201,2.96679 19.80155,6.27509 29.20952,10.69599 9.72649,4.25927 17.71377,11.11541 25.25096,18.43216 7.70127,8.24731 13.65984,17.93703 19.43731,27.5793 5.56645,10.08656 10.38819,20.64792 14.8499,31.27444 4.41665,10.63744 7.59182,21.74438 10.48037,32.87868 3.26535,10.76741 5.16439,21.83137 6.18136,33.0155 0.70926,9.70974 0.74136,19.44906 0.77668,29.17905 -6.9e-4,8.09822 -0.0164,16.19642 -0.0258,24.29463 0.28242,7.26113 -0.49065,14.49146 -1.98502,21.58997 -1.4219,6.73433 -3.57539,13.26266 -5.7906,19.76794 -2.15383,6.78911 -5.66073,12.83375 -9.43326,18.81119 -3.51507,5.98322 -8.71751,10.62918 -13.69049,15.36389 -4.94212,5.17972 -10.93711,9.06084 -16.78839,13.09585 -10.62129,6.84025 -21.45401,13.6763 -33.38726,17.94454 -6.47024,2.66461 -13.239052,4.62375 -20.024277,6.32897 -7.547867,1.62034 -15.060801,3.22361 -22.751821,4.02566 -7.433748,0.69352 -14.903012,0.74093 -22.362155,0.78941 -6.906458,0.0245 -13.812941,-0.006 -20.719419,-0.0113 -5.848152,0.45406 -11.445158,-0.28454 -17.1474128,-1.42107 -5.2123909,-0.62727 -10.235187,-2.13841 -15.3687374,-3.20109 -4.9100548,-0.54894 -9.6409028,-1.95353 -14.4783728,-2.92547 -4.342972,-0.31595 -8.394279,-1.84649 -12.594894,-2.87782 -3.957842,-0.40125 -7.628448,-1.89062 -11.46846,-2.85993 -4.435628,-0.61357 -8.709566,-1.9344 -13.097801,-2.83351 -4.491917,-0.81096 -8.768917,-2.42391 -13.284297,-3.18593 -4.57432,-1.17177 -8.854173,-3.15233 -13.349492,-4.5501 -5.263526,-1.32907 -10.434866,-2.94293 -15.485047,-4.92774 -4.953534,-2.58562 -10.249894,-4.38517 -15.300684,-6.76329 -5.69015,-2.19101 -11.30196,-4.56032 -16.93259,-6.90218 -5.80935,-2.53469 -10.84293,-6.31948 -15.57952,-10.46284 -5.46517,-3.55871 -9.57987,-8.61847 -14.34181,-12.9721 -4.61768,-4.5721 -8.92513,-9.41003 -12.90576,-14.54116 -3.48923,-5.19425 -6.76882,-10.56398 -9.60577,-16.14454 -2.66709,-4.9848 -5.18065,-10.02069 -6.82295,-15.44073 -1.70312,-5.92227 -4.31509,-11.50227 -6.51213,-17.23931 -2.21001,-6.29574 -4.27388,-12.5904 -5.65943,-19.12254 -0.95062,-4.92726 -1.04319,-9.95389 -1.08962,-14.95395 -0.0141,-5.93489 0.0575,-11.86943 0.0562,-17.80434 0,0 15.00056,-7.63934 15.00056,-7.63934 l 0,0 c -0.0253,5.91367 0.001,11.82726 0.0239,17.74092 0.0515,4.9008 0.0953,9.82844 0.93266,14.67232 1.2551,6.47716 3.29678,12.68185 5.47904,18.89976 2.22831,5.76963 4.88211,11.37543 6.61597,17.33247 1.55989,5.34642 4.06896,10.27308 6.68912,15.17279 2.73855,5.50866 5.95784,10.78769 9.39261,15.88687 3.93903,5.05031 8.21496,9.79425 12.77124,14.3003 4.70091,4.39692 8.9203,9.30831 14.31352,12.92398 4.65633,3.98556 9.59641,7.63596 15.29792,10.00902 5.63163,2.38359 11.31724,4.62132 16.97091,6.946 5.068492,2.27917 10.29194,4.1962 15.277073,6.66151 5.027129,1.96616 10.221664,3.41615 15.425986,4.84092 4.409564,1.46903 8.691072,3.34426 13.245552,4.35517 4.484714,0.89416 8.790825,2.46843 13.304107,3.22734 4.39273,0.96274 8.736931,2.12265 13.170408,2.88063 3.807517,1.03265 7.533797,2.3171 11.457879,2.85197 4.152191,1.08947 8.232472,2.39806 12.525168,2.8355 4.8185806,1.03382 9.5891105,2.26821 14.4772435,2.93838 5.1077495,1.12742 10.1606865,2.48996 15.3541985,3.18017 5.606996,1.10488 11.174664,1.48373 16.899521,1.19463 6.898765,0.0163 13.797574,0.0316 20.696344,0.0101 7.417905,-0.056 14.847777,-0.15215 22.233678,-0.91499 7.642538,-0.92681 15.138747,-2.53382 22.640912,-4.24062 6.74198,-1.8031 13.46263,-3.78456 19.91361,-6.46442 3.37344,-1.31402 3.25074,-1.19266 6.56701,-2.78889 1.12189,-0.54001 4.38718,-2.34742 3.33638,-1.67953 -21.81543,13.86603 -10.44401,5.92792 -5.49553,3.09868 5.78894,-4.07966 11.96133,-7.69588 16.89462,-12.86345 4.92131,-4.67271 10.21954,-9.16547 13.84426,-14.97036 3.69512,-5.92796 7.48089,-11.71681 9.6032,-18.45766 2.19396,-6.46596 4.40979,-12.91985 5.86307,-19.60313 1.66442,-6.95666 2.38968,-14.11617 2.16924,-21.26899 0.0197,-8.10441 0.062,-16.2087 0.0742,-24.31312 0.007,-9.69523 1.5e-4,-19.40077 -0.65393,-29.07869 -0.95521,-11.10708 -2.72479,-22.11256 -6.0137,-32.79336 -2.84423,-11.0631 -6.00917,-22.09214 -10.38042,-32.66019 -4.40353,-10.56278 -9.18638,-21.05972 -14.72049,-31.07078 -5.71862,-9.51036 -11.58073,-19.09423 -19.24159,-27.18868 -7.43525,-7.18443 -15.37763,-13.81328 -24.96914,-17.94896 -9.354381,-4.30715 -19.128291,-7.57688 -29.011224,-10.44764 -10.232882,-2.5829 -20.436823,-5.45344 -30.986581,-6.43744 -10.736839,-0.65627 -21.427802,-0.0526 -32.098937,1.33396 -10.92436687,1.28567 -21.927078,1.8891 -32.761722,3.87304 -12.58779,2.36842 -25.165149,4.7771 -37.599828,7.87126 -11.614193,3.03757 -23.339881,5.88048 -34.303402,10.89862 -1.695372,0.80443 -3.39653,1.59678 -5.086116,2.4133 -1.67383,0.8089 -6.50109,3.5648 -5.00387,2.46282 2.89812,-2.13305 6.211276,-3.6392 9.240729,-5.58121 1.705134,-1.09306 -3.524613,1.99716 -5.265249,3.03276 -1.72043,1.02357 -3.43018,2.0659 -5.11689,3.14412 -1.67365,1.06987 -3.30841,2.1994 -4.96261,3.2991 -10.02446,7.26931 -19.56736,15.12742 -27.95246,24.28091 -8.30583,8.53427 -16.50779,17.18321 -22.88906,27.30673 -5.60621,8.92535 -10.84539,18.07873 -15.50883,27.53546 -3.62165,8.22062 -6.84448,16.63504 -8.72017,25.44437 -1.54545,7.33782 -1.36723,14.97453 1.02928,22.13833 0,0 -14.86738,8.18812 -14.86738,8.18812 z" />
    <path
       style="opacity:1;fill:#000000;fill-opacity:1;fill-rule:nonzero;stroke:#000000;stroke-width:4.69999980999999956;stroke-linecap:round;stroke-linejoin:round;stroke-miterlimit:4;stroke-opacity:1;stroke-dasharray:none;stroke-dashoffset:0"
       id="path2698"
       d="m 50.821406,443.4974 c -8.152588,0.90467 -16.136523,3.06841 -23.78118,6.00483 -5.630453,1.79015 -18.4836858,9.01264 4.891325,-3.7598 0.88694,-0.48464 -1.725621,1.05329 -2.573362,1.60363 -2.057307,1.33556 -2.718092,1.84719 -4.648379,3.24208 -3.879094,2.72637 -7.136609,6.11361 -10.215896,9.68701 -2.723909,3.35955 -2.37702,7.03741 -1.17498,10.93046 1.174746,4.00198 3.542551,7.54188 6.0135,10.86 2.849899,3.33085 5.347895,6.94659 8.372417,10.12353 2.407136,2.71694 4.942584,5.39753 7.749336,7.71329 2.514941,2.36993 5.34383,4.3601 7.930938,6.62178 2.826697,2.41663 6.019439,4.45718 8.570205,7.18269 2.80073,2.99231 4.861854,6.13929 5.983188,10.0822 1.25208,3.9874 0.638865,7.49179 -1.246008,11.10898 -2.099055,3.75768 -5.429587,6.6005 -8.869105,9.09963 -39.4901915,22.78575 -5.90021,3.39181 -3.0594,1.79581 0.629211,-0.3535 -1.21726,0.77623 -1.812341,1.18458 -1.836173,1.25998 -3.559017,2.68181 -5.350065,4.0044 -8.573453,5.68105 -17.700176,10.60342 -27.132339,14.6964 -5.3611142,1.98158 -11.08083587,3.04355 -16.7815268,2.53232 -4.2906112,-1.07842 -2.1924025,-0.48973 -6.2973712,-1.75628 0,0 13.9512924,-9.53365 13.9512924,-9.53365 l 0,0 c 3.97489,1.1319 1.9464472,0.6548 6.0878748,1.42042 5.5991698,0.10065 11.1453078,-0.96306 16.3042318,-3.18101 2.333472,-1.07835 4.674299,-2.1527 6.983489,-3.28239 0.673754,-0.32961 2.646623,-1.41012 2.004196,-1.02298 -22.314202,13.44689 -15.568236,9.25857 -10.897504,6.34344 2.443774,-1.62464 4.557563,-3.79196 7.079813,-5.29071 1.016301,-0.60389 37.267106,-21.58601 3.091234,-1.73847 3.541359,-2.04315 6.842925,-4.97364 9.1907,-8.31034 1.83385,-3.31127 3.101983,-6.0921 1.836262,-9.95894 -0.976067,-3.69677 -2.956329,-6.56152 -5.567808,-9.34502 -2.587561,-2.60403 -5.719616,-4.63318 -8.49615,-7.02896 -2.658965,-2.19223 -5.366935,-4.31754 -7.947721,-6.61085 -2.785039,-2.43356 -5.370444,-5.13118 -7.805345,-7.90743 -3.009353,-3.27206 -5.6228621,-6.8743 -8.4648142,-10.289 -2.5831346,-3.46614 -5.0497249,-7.17971 -6.3070485,-11.34803 -1.3496907,-4.21789 -2.14413,-8.51052 0.452456,-12.44566 2.9256064,-3.77877 6.2656599,-7.19738 10.0824226,-10.09727 9.6265321,-7.14972 19.9773391,-13.71464 31.3320411,-17.69374 7.809484,-2.75516 15.855741,-4.82023 24.093921,-5.79528 0,0 -13.572499,10.15833 -13.572499,10.15833 z" />
    <path
       style="opacity:1;fill:#000000;fill-opacity:1;fill-rule:nonzero;stroke:#000000;stroke-width:4.69999980999999956;stroke-linecap:round;stroke-linejoin:round;stroke-miterlimit:4;stroke-opacity:1;stroke-dasharray:none;stroke-dashoffset:0"
       id="path2700"
       d="m 1394.7376,550.56894 c -10.1563,6.83932 -20.6202,13.87025 -31.9806,18.46447 -5.6861,1.86913 -11.725,2.82931 -17.6865,2.17269 -5.6556,-0.73869 -11.2561,-2.15372 -16.5021,-4.40499 -4.4061,-1.57042 -8.0744,-4.34051 -11.3046,-7.65415 -2.7441,-3.43279 -4.3922,-7.54514 -5.7287,-11.69211 -1.4799,-5.33284 -1.7024,-10.88485 -1.8784,-16.38301 -0.4587,-4.68899 0.052,-9.16893 1.1077,-13.72113 1.5011,-3.79229 2.7866,-7.68148 4.5484,-11.36508 2.0612,-3.87543 5.1173,-7.04864 8.1181,-10.19985 8.4504,-7.17494 18.2822,-13.18973 28.5124,-17.36775 5.352,-2.83193 11.1754,-4.13473 17.1319,-4.85472 6.4181,-0.54649 12.8715,-0.49604 19.308,-0.50476 6.1123,-0.26982 12.1966,0.59669 18.0649,2.2805 5.2185,1.5276 9.7577,4.70127 13.4504,8.62921 3.8681,4.33326 6.5231,9.47818 8.5904,14.86107 1.4867,4.34661 1.7752,8.94906 1.9647,13.50143 0.3526,3.75979 -0.1104,7.28723 -1.1765,10.87818 -1.4305,3.05425 -2.8846,6.11935 -4.5704,9.04527 -2.2158,3.77736 -5.3692,6.91183 -8.4607,9.97749 -6.9145,5.64918 -15.9844,10.87549 -24.6527,13.63891 -4.5458,0.68559 -8.781,2.40635 -13.2873,3.30092 -4.4615,1.25386 -8.3585,0.23191 -12.346,-1.82682 0,0 14.1905,-9.3472 14.1905,-9.3472 l 0,0 c 3.8282,1.79762 7.5479,2.08421 11.6559,0.91605 4.422,-1.04989 8.7432,-2.48841 13.1755,-3.49033 2.8875,-1.14713 0.8825,-0.30179 3.6101,-1.57269 0.5646,-0.26307 2.232,-1.09882 1.7012,-0.77288 -23.3957,14.36714 -14.5034,9.0136 -9.7505,5.59253 3.2074,-2.796 6.1606,-6.0312 8.6363,-9.47463 1.5705,-2.91175 3.0379,-5.84318 4.7304,-8.70298 1.0149,-3.47386 1.9297,-6.70402 1.4242,-10.39645 -0.099,-4.38741 -0.3051,-8.82717 -1.6522,-13.0398 -1.9064,-5.20829 -4.4818,-10.14141 -8.2485,-14.26799 -3.5826,-3.67768 -7.9168,-6.53422 -12.919,-7.8727 -5.8322,-1.44941 -11.772,-2.22903 -17.7936,-1.9264 -6.4012,0.0155 -12.8265,-0.0272 -19.1955,0.69965 -5.8809,0.87902 -11.5322,2.48141 -16.8424,5.22458 -6.4976,3.03068 -4.9251,2.3974 9.2157,-5.71217 0.8436,-0.48377 -1.6394,1.04647 -2.4665,1.55796 -2.2207,1.37342 -4.3609,2.80259 -6.3504,4.50788 -2.965,3.05438 -6.0005,6.09305 -8.2816,9.71442 -1.8753,3.56377 -2.9584,7.39872 -4.7424,11.0077 -1.017,4.4564 -1.8951,8.73132 -1.3475,13.35612 0.1475,5.34657 0.3103,10.74957 1.6852,15.95065 1.2275,3.89139 2.7805,7.77724 5.3553,10.98448 3.133,3.11914 6.6778,5.64142 10.9002,7.1039 5.1947,2.02594 10.6186,3.4665 16.1826,3.98474 5.8523,0.25439 11.7061,-0.66755 17.1769,-2.8049 7.0214,-3.14648 3.668,-1.7739 -8.5415,5.44763 -0.9917,0.58654 1.9845,-1.1713 2.9855,-1.74178 2.9287,-1.66906 5.8151,-3.37368 8.5337,-5.38056 0,0 15.75,-6.3206 15.75,-6.3206 z" />
    <path
       style="opacity:1;fill:#000000;fill-opacity:1;fill-rule:nonzero;stroke:#000000;stroke-width:4.69999980999999956;stroke-linecap:round;stroke-linejoin:round;stroke-miterlimit:4;stroke-opacity:1;stroke-dasharray:none;stroke-dashoffset:0"
       id="path2718"
       d="m 1355.7387,496.6299 c 3.8553,6.21467 7.6314,12.42945 10.6334,19.10589 1.7996,4.07671 2.4886,8.39697 2.8155,12.79912 0.083,1.79149 0.096,3.58523 0.081,5.37827 0,0 -12.7098,6.43682 -12.7098,6.43682 l 0,0 c 0.073,-1.76474 0.089,-3.53193 0.029,-5.29744 -0.2086,-4.25938 -0.8033,-8.44562 -2.4829,-12.40923 -2.9098,-6.69783 -6.6905,-12.89298 -10.651,-19.01913 0,0 12.284,-6.9943 12.284,-6.9943 z" />
    <path
       style="opacity:1;fill:#000000;fill-opacity:1;fill-rule:nonzero;stroke:#000000;stroke-width:4.69999980999999956;stroke-linecap:round;stroke-linejoin:round;stroke-miterlimit:4;stroke-opacity:1;stroke-dasharray:none;stroke-dashoffset:0"
       id="path2720"
       d="m 1361.8556,492.63627 c 7.761,-3.56456 15.7946,-6.45754 23.817,-9.36591 3.2587,-1.17641 6.6423,-1.91463 10.0164,-2.66163 0,0 -11.2129,8.53433 -11.2129,8.53433 l 0,0 c -3.323,0.7689 -6.6444,1.56365 -9.8479,2.75728 -8.0322,2.94703 -16.1099,5.80913 -23.8112,9.56575 0,0 11.0386,-8.82982 11.0386,-8.82982 z" />
    <path
       style="opacity:1;fill:#000000;fill-opacity:1;fill-rule:nonzero;stroke:#000000;stroke-width:4.69999980999999956;stroke-linecap:round;stroke-linejoin:round;stroke-miterlimit:4;stroke-opacity:1;stroke-dasharray:none;stroke-dashoffset:0"
       id="path2722"
       d="m 1381.8556,509.77913 c 4.5725,-1.8926 8.9558,-4.20745 13.3567,-6.46191 0,0 -10.9773,8.79346 -10.9773,8.79346 l 0,0 c -4.4355,2.24168 -8.8787,4.47173 -13.418,6.49826 0,0 11.0386,-8.82981 11.0386,-8.82981 z" />
    <path
       style="opacity:1;fill:#000000;fill-opacity:1;fill-rule:nonzero;stroke:#000000;stroke-width:4.69999980999999956;stroke-linecap:round;stroke-linejoin:round;stroke-miterlimit:4;stroke-opacity:1;stroke-dasharray:none;stroke-dashoffset:0"
       id="path2724"
       d="m 1370.427,535.49341 c 7.3355,-2.63803 14.3006,-6.144 21.1787,-9.78208 0,0 -10.8984,8.75169 -10.8984,8.75169 l 0,0 c -6.9576,3.6109 -14.0342,6.95389 -21.3189,9.86021 0,0 11.0386,-8.82982 11.0386,-8.82982 z" />
  </g>
</svg>
