<?xml version="1.0" encoding="UTF-8" standalone="no"?>
<!-- Created with Inkscape (http://www.inkscape.org/) -->
<svg
   xmlns:dc="http://purl.org/dc/elements/1.1/"
   xmlns:cc="http://creativecommons.org/ns#"
   xmlns:rdf="http://www.w3.org/1999/02/22-rdf-syntax-ns#"
   xmlns:svg="http://www.w3.org/2000/svg"
   xmlns="http://www.w3.org/2000/svg"
   xmlns:sodipodi="http://sodipodi.sourceforge.net/DTD/sodipodi-0.dtd"
   xmlns:inkscape="http://www.inkscape.org/namespaces/inkscape"
   width="1885.5059"
   height="802.80499"
   id="svg2"
   sodipodi:version="0.32"
   inkscape:version="0.46+devel"
   version="1.0"
   sodipodi:docname="c28d2.svg"
   inkscape:output_extension="org.inkscape.output.svg.inkscape">
  <defs
     id="defs4">
    <inkscape:perspective
       sodipodi:type="inkscape:persp3d"
       inkscape:vp_x="0 : 526.18109 : 1"
       inkscape:vp_y="0 : 1000 : 0"
       inkscape:vp_z="744.09448 : 526.18109 : 1"
       inkscape:persp3d-origin="372.04724 : 350.78739 : 1"
       id="perspective10" />
  </defs>
  <sodipodi:namedview
     id="base"
     pagecolor="#ffffff"
     bordercolor="#666666"
     borderopacity="1.0"
     inkscape:pageopacity="0.0"
     inkscape:pageshadow="2"
     inkscape:zoom="0.35"
     inkscape:cx="827.5857"
     inkscape:cy="621.88578"
     inkscape:document-units="px"
     inkscape:current-layer="layer1"
     showgrid="false"
     inkscape:window-width="1280"
     inkscape:window-height="712"
     inkscape:window-x="-5"
     inkscape:window-y="-3" />
  <metadata
     id="metadata7">
    <rdf:RDF>
      <cc:Work
         rdf:about="">
        <dc:format>image/svg+xml</dc:format>
        <dc:type
           rdf:resource="http://purl.org/dc/dcmitype/StillImage" />
        <dc:title></dc:title>
      </cc:Work>
    </rdf:RDF>
  </metadata>
  <g
     inkscape:label="Layer 1"
     inkscape:groupmode="layer"
     id="layer1"
     transform="translate(452.5857,-351.44297)">
    <path
       style="fill:#000000;fill-opacity:1;fill-rule:nonzero;stroke:#000000;stroke-width:4.69999981;stroke-linecap:round;stroke-linejoin:round;stroke-miterlimit:4;stroke-opacity:1;stroke-dasharray:none;stroke-dashoffset:0"
       id="path2696"
       d="m -199.54579,531.54852 c -2.35117,-7.47373 -2.64767,-15.30866 -1.29486,-22.97596 1.82976,-8.92735 5.00146,-17.47773 8.62599,-25.81174 4.56775,-9.56454 9.87081,-18.75252 15.43361,-27.76646 6.35435,-10.23032 14.49109,-19.04438 22.8205,-27.66434 8.39316,-9.16898 17.85774,-17.14614 27.82329,-24.53087 14.17412,-9.67184 29.234223,-18.02237 44.759045,-25.3181 11.047713,-4.87282 22.826648,-7.56081 34.453646,-10.6258 12.478993,-2.98944 25.065809,-5.43901 37.6794755,-7.78119 10.8877924,-1.87822 21.9145045,-2.51715 32.8748905,-3.81783 10.747618,-1.40512 21.493115,-1.85862 32.293191,-1.09594 10.602814,1.14653 20.842368,4.11427 31.150222,6.6911 9.953201,2.96679 19.80155,6.27509 29.20952,10.69599 9.72649,4.25927 17.71377,11.11541 25.25096,18.43216 7.70127,8.24731 13.65984,17.93703 19.43731,27.5793 5.56645,10.08656 10.38819,20.64792 14.8499,31.27444 4.41665,10.63744 7.59182,21.74438 10.48037,32.87868 3.26535,10.76741 5.16439,21.83137 6.18136,33.0155 0.70926,9.70974 0.74136,19.44906 0.77668,29.17905 -6.9e-4,8.09822 -0.0164,16.19642 -0.0258,24.29463 0.28242,7.26113 -0.49065,14.49146 -1.98502,21.58997 -1.4219,6.73433 -3.57539,13.26266 -5.7906,19.76794 -2.15383,6.78911 -5.66073,12.83375 -9.43326,18.81119 -3.51507,5.98322 -8.71751,10.62918 -13.69049,15.36389 -4.94212,5.17972 -10.93711,9.06084 -16.78839,13.09585 -10.62129,6.84025 -21.45401,13.6763 -33.38726,17.94454 -6.47024,2.66461 -13.239052,4.62375 -20.024277,6.32897 -7.547867,1.62034 -15.060801,3.22361 -22.751821,4.02566 -7.433748,0.69352 -14.903012,0.74093 -22.362155,0.78941 -6.906458,0.0245 -13.812941,-0.006 -20.719419,-0.0113 -5.848152,0.45406 -11.445158,-0.28454 -17.1474128,-1.42107 -5.2123909,-0.62727 -10.235187,-2.13841 -15.3687374,-3.20109 -4.9100548,-0.54894 -9.6409028,-1.95353 -14.4783728,-2.92547 -4.342972,-0.31595 -8.394279,-1.84649 -12.594894,-2.87782 -3.957842,-0.40125 -7.628448,-1.89062 -11.46846,-2.85993 -4.435628,-0.61357 -8.709566,-1.9344 -13.097801,-2.83351 -4.491917,-0.81096 -8.768917,-2.42391 -13.284297,-3.18593 -4.57432,-1.17177 -8.854173,-3.15233 -13.349492,-4.5501 -5.263526,-1.32907 -10.434866,-2.94293 -15.485047,-4.92774 -4.953534,-2.58562 -10.249894,-4.38517 -15.300684,-6.76329 -5.69015,-2.19101 -11.30196,-4.56032 -16.93259,-6.90218 -5.80935,-2.53469 -10.84293,-6.31948 -15.57952,-10.46284 -5.46517,-3.55871 -9.57987,-8.61847 -14.34181,-12.9721 -4.61768,-4.5721 -8.92513,-9.41003 -12.90576,-14.54116 -3.48923,-5.19425 -6.76882,-10.56398 -9.60577,-16.14454 -2.66709,-4.9848 -5.18065,-10.02069 -6.82295,-15.44073 -1.70312,-5.92227 -4.31509,-11.50227 -6.51213,-17.23931 -2.21001,-6.29574 -4.27388,-12.5904 -5.65943,-19.12254 -0.95062,-4.92726 -1.04319,-9.95389 -1.08962,-14.95395 -0.0141,-5.93489 0.0575,-11.86943 0.0562,-17.80434 0,0 15.00056,-7.63934 15.00056,-7.63934 l 0,0 c -0.0253,5.91367 0.001,11.82726 0.0239,17.74092 0.0515,4.9008 0.0953,9.82844 0.93266,14.67232 1.2551,6.47716 3.29678,12.68185 5.47904,18.89976 2.22831,5.76963 4.88211,11.37543 6.61597,17.33247 1.55989,5.34642 4.06896,10.27308 6.68912,15.17279 2.73855,5.50866 5.95784,10.78769 9.39261,15.88687 3.93903,5.05031 8.21496,9.79425 12.77124,14.3003 4.70091,4.39692 8.9203,9.30831 14.31352,12.92398 4.65633,3.98556 9.59641,7.63596 15.29792,10.00902 5.63163,2.38359 11.31724,4.62132 16.97091,6.946 5.068492,2.27917 10.29194,4.1962 15.277073,6.66151 5.027129,1.96616 10.221664,3.41615 15.425986,4.84092 4.409564,1.46903 8.691072,3.34426 13.245552,4.35517 4.484714,0.89416 8.790825,2.46843 13.304107,3.22734 4.39273,0.96274 8.736931,2.12265 13.170408,2.88063 3.807517,1.03265 7.533797,2.3171 11.457879,2.85197 4.152191,1.08947 8.232472,2.39806 12.525168,2.8355 4.8185806,1.03382 9.5891105,2.26821 14.4772435,2.93838 5.1077495,1.12742 10.1606865,2.48996 15.3541985,3.18017 5.606996,1.10488 11.174664,1.48373 16.899521,1.19463 6.898765,0.0163 13.797574,0.0316 20.696344,0.0101 7.417905,-0.056 14.847777,-0.15215 22.233678,-0.91499 7.642538,-0.92681 15.138747,-2.53382 22.640912,-4.24062 6.74198,-1.8031 13.46263,-3.78456 19.91361,-6.46442 3.37344,-1.31402 3.25074,-1.19266 6.56701,-2.78889 1.12189,-0.54001 4.38718,-2.34742 3.33638,-1.67953 -21.81543,13.86603 -10.44401,5.92792 -5.49553,3.09868 5.78894,-4.07966 11.96133,-7.69588 16.89462,-12.86345 4.92131,-4.67271 10.21954,-9.16547 13.84426,-14.97036 3.69512,-5.92796 7.48089,-11.71681 9.6032,-18.45766 2.19396,-6.46596 4.40979,-12.91985 5.86307,-19.60313 1.66442,-6.95666 2.38968,-14.11617 2.16924,-21.26899 0.0197,-8.10441 0.062,-16.2087 0.0742,-24.31312 0.007,-9.69523 1.5e-4,-19.40077 -0.65393,-29.07869 -0.95521,-11.10708 -2.72479,-22.11256 -6.0137,-32.79336 -2.84423,-11.0631 -6.00917,-22.09214 -10.38042,-32.66019 -4.40353,-10.56278 -9.18638,-21.05972 -14.72049,-31.07078 -5.71862,-9.51036 -11.58073,-19.09423 -19.24159,-27.18868 -7.43525,-7.18443 -15.37763,-13.81328 -24.96914,-17.94896 -9.354381,-4.30715 -19.128291,-7.57688 -29.011224,-10.44764 -10.232882,-2.5829 -20.436823,-5.45344 -30.986581,-6.43744 -10.736839,-0.65627 -21.427802,-0.0526 -32.098937,1.33396 -10.92436687,1.28567 -21.927078,1.8891 -32.761722,3.87304 -12.58779,2.36842 -25.165149,4.7771 -37.599828,7.87126 -11.614193,3.03757 -23.339881,5.88048 -34.303402,10.89862 -1.695372,0.80443 -3.39653,1.59678 -5.086116,2.4133 -1.67383,0.8089 -6.50109,3.5648 -5.00387,2.46282 2.89812,-2.13305 6.211276,-3.6392 9.240729,-5.58121 1.705134,-1.09306 -3.524613,1.99716 -5.265249,3.03276 -1.72043,1.02357 -3.43018,2.0659 -5.11689,3.14412 -1.67365,1.06987 -3.30841,2.1994 -4.96261,3.2991 -10.02446,7.26931 -19.56736,15.12742 -27.95246,24.28091 -8.30583,8.53427 -16.50779,17.18321 -22.88906,27.30673 -5.60621,8.92535 -10.84539,18.07873 -15.50883,27.53546 -3.62165,8.22062 -6.84448,16.63504 -8.72017,25.44437 -1.54545,7.33782 -1.36723,14.97453 1.02928,22.13833 0,0 -14.86738,8.18812 -14.86738,8.18812 z" />
    <path
       style="fill:#000000;fill-opacity:1;fill-rule:nonzero;stroke:#000000;stroke-width:4.69999981;stroke-linecap:round;stroke-linejoin:round;stroke-miterlimit:4;stroke-opacity:1;stroke-dasharray:none;stroke-dashoffset:0"
       id="path2698"
       d="m 50.821406,443.4974 c -8.152588,0.90467 -16.136523,3.06841 -23.78118,6.00483 -5.630453,1.79015 -18.4836858,9.01264 4.891325,-3.7598 0.88694,-0.48464 -1.725621,1.05329 -2.573362,1.60363 -2.057307,1.33556 -2.718092,1.84719 -4.648379,3.24208 -3.879094,2.72637 -7.136609,6.11361 -10.215896,9.68701 -2.723909,3.35955 -2.37702,7.03741 -1.17498,10.93046 1.174746,4.00198 3.542551,7.54188 6.0135,10.86 2.849899,3.33085 5.347895,6.94659 8.372417,10.12353 2.407136,2.71694 4.942584,5.39753 7.749336,7.71329 2.514941,2.36993 5.34383,4.3601 7.930938,6.62178 2.826697,2.41663 6.019439,4.45718 8.570205,7.18269 2.80073,2.99231 4.861854,6.13929 5.983188,10.0822 1.25208,3.9874 0.638865,7.49179 -1.246008,11.10898 -2.099055,3.75768 -5.429587,6.6005 -8.869105,9.09963 -39.4901915,22.78575 -5.90021,3.39181 -3.0594,1.79581 0.629211,-0.3535 -1.21726,0.77623 -1.812341,1.18458 -1.836173,1.25998 -3.559017,2.68181 -5.350065,4.0044 -8.573453,5.68105 -17.700176,10.60342 -27.132339,14.6964 -5.3611142,1.98158 -11.08083587,3.04355 -16.7815268,2.53232 -4.2906112,-1.07842 -2.1924025,-0.48973 -6.2973712,-1.75628 0,0 13.9512924,-9.53365 13.9512924,-9.53365 l 0,0 c 3.97489,1.1319 1.9464472,0.6548 6.0878748,1.42042 5.5991698,0.10065 11.1453078,-0.96306 16.3042318,-3.18101 2.333472,-1.07835 4.674299,-2.1527 6.983489,-3.28239 0.673754,-0.32961 2.646623,-1.41012 2.004196,-1.02298 -22.314202,13.44689 -15.568236,9.25857 -10.897504,6.34344 2.443774,-1.62464 4.557563,-3.79196 7.079813,-5.29071 1.016301,-0.60389 37.267106,-21.58601 3.091234,-1.73847 3.541359,-2.04315 6.842925,-4.97364 9.1907,-8.31034 1.83385,-3.31127 3.101983,-6.0921 1.836262,-9.95894 -0.976067,-3.69677 -2.956329,-6.56152 -5.567808,-9.34502 -2.587561,-2.60403 -5.719616,-4.63318 -8.49615,-7.02896 -2.658965,-2.19223 -5.366935,-4.31754 -7.947721,-6.61085 -2.785039,-2.43356 -5.370444,-5.13118 -7.805345,-7.90743 -3.009353,-3.27206 -5.6228621,-6.8743 -8.4648142,-10.289 -2.5831346,-3.46614 -5.0497249,-7.17971 -6.3070485,-11.34803 -1.3496907,-4.21789 -2.14413,-8.51052 0.452456,-12.44566 2.9256064,-3.77877 6.2656599,-7.19738 10.0824226,-10.09727 9.6265321,-7.14972 19.9773391,-13.71464 31.3320411,-17.69374 7.809484,-2.75516 15.855741,-4.82023 24.093921,-5.79528 0,0 -13.572499,10.15833 -13.572499,10.15833 z" />
    <path
       style="fill:#000000;fill-opacity:1;fill-rule:nonzero;stroke:#000000;stroke-width:4.69999981;stroke-linecap:round;stroke-linejoin:round;stroke-miterlimit:4;stroke-opacity:1;stroke-dasharray:none;stroke-dashoffset:0"
       id="path2700"
       d="m 1394.7376,550.56894 c -10.1563,6.83932 -20.6202,13.87025 -31.9806,18.46447 -5.6861,1.86913 -11.725,2.82931 -17.6865,2.17269 -5.6556,-0.73869 -11.2561,-2.15372 -16.5021,-4.40499 -4.4061,-1.57042 -8.0744,-4.34051 -11.3046,-7.65415 -2.7441,-3.43279 -4.3922,-7.54514 -5.7287,-11.69211 -1.4799,-5.33284 -1.7024,-10.88485 -1.8784,-16.38301 -0.4587,-4.68899 0.052,-9.16893 1.1077,-13.72113 1.5011,-3.79229 2.7866,-7.68148 4.5484,-11.36508 2.0612,-3.87543 5.1173,-7.04864 8.1181,-10.19985 8.4504,-7.17494 18.2822,-13.18973 28.5124,-17.36775 5.352,-2.83193 11.1754,-4.13473 17.1319,-4.85472 6.4181,-0.54649 12.8715,-0.49604 19.308,-0.50476 6.1123,-0.26982 12.1966,0.59669 18.0649,2.2805 5.2185,1.5276 9.7577,4.70127 13.4504,8.62921 3.8681,4.33326 6.5231,9.47818 8.5904,14.86107 1.4867,4.34661 1.7752,8.94906 1.9647,13.50143 0.3526,3.75979 -0.1104,7.28723 -1.1765,10.87818 -1.4305,3.05425 -2.8846,6.11935 -4.5704,9.04527 -2.2158,3.77736 -5.3692,6.91183 -8.4607,9.97749 -6.9145,5.64918 -15.9844,10.87549 -24.6527,13.63891 -4.5458,0.68559 -8.781,2.40635 -13.2873,3.30092 -4.4615,1.25386 -8.3585,0.23191 -12.346,-1.82682 0,0 14.1905,-9.3472 14.1905,-9.3472 l 0,0 c 3.8282,1.79762 7.5479,2.08421 11.6559,0.91605 4.422,-1.04989 8.7432,-2.48841 13.1755,-3.49033 2.8875,-1.14713 0.8825,-0.30179 3.6101,-1.57269 0.5646,-0.26307 2.232,-1.09882 1.7012,-0.77288 -23.3957,14.36714 -14.5034,9.0136 -9.7505,5.59253 3.2074,-2.796 6.1606,-6.0312 8.6363,-9.47463 1.5705,-2.91175 3.0379,-5.84318 4.7304,-8.70298 1.0149,-3.47386 1.9297,-6.70402 1.4242,-10.39645 -0.099,-4.38741 -0.3051,-8.82717 -1.6522,-13.0398 -1.9064,-5.20829 -4.4818,-10.14141 -8.2485,-14.26799 -3.5826,-3.67768 -7.9168,-6.53422 -12.919,-7.8727 -5.8322,-1.44941 -11.772,-2.22903 -17.7936,-1.9264 -6.4012,0.0155 -12.8265,-0.0272 -19.1955,0.69965 -5.8809,0.87902 -11.5322,2.48141 -16.8424,5.22458 -6.4976,3.03068 -4.9251,2.3974 9.2157,-5.71217 0.8436,-0.48377 -1.6394,1.04647 -2.4665,1.55796 -2.2207,1.37342 -4.3609,2.80259 -6.3504,4.50788 -2.965,3.05438 -6.0005,6.09305 -8.2816,9.71442 -1.8753,3.56377 -2.9584,7.39872 -4.7424,11.0077 -1.017,4.4564 -1.8951,8.73132 -1.3475,13.35612 0.1475,5.34657 0.3103,10.74957 1.6852,15.95065 1.2275,3.89139 2.7805,7.77724 5.3553,10.98448 3.133,3.11914 6.6778,5.64142 10.9002,7.1039 5.1947,2.02594 10.6186,3.4665 16.1826,3.98474 5.8523,0.25439 11.7061,-0.66755 17.1769,-2.8049 7.0214,-3.14648 3.668,-1.7739 -8.5415,5.44763 -0.9917,0.58654 1.9845,-1.1713 2.9855,-1.74178 2.9287,-1.66906 5.8151,-3.37368 8.5337,-5.38056 0,0 15.75,-6.3206 15.75,-6.3206 z" />
    <path
       style="fill:#000000;fill-opacity:1;fill-rule:nonzero;stroke:#000000;stroke-width:4.69999981;stroke-linecap:round;stroke-linejoin:round;stroke-miterlimit:4;stroke-opacity:1;stroke-dasharray:none;stroke-dashoffset:0"
       id="path2718"
       d="m 1355.7387,496.6299 c 3.8553,6.21467 7.6314,12.42945 10.6334,19.10589 1.7996,4.07671 2.4886,8.39697 2.8155,12.79912 0.083,1.79149 0.096,3.58523 0.081,5.37827 0,0 -12.7098,6.43682 -12.7098,6.43682 l 0,0 c 0.073,-1.76474 0.089,-3.53193 0.029,-5.29744 -0.2086,-4.25938 -0.8033,-8.44562 -2.4829,-12.40923 -2.9098,-6.69783 -6.6905,-12.89298 -10.651,-19.01913 0,0 12.284,-6.9943 12.284,-6.9943 z" />
    <path
       style="fill:#000000;fill-opacity:1;fill-rule:nonzero;stroke:#000000;stroke-width:4.69999981;stroke-linecap:round;stroke-linejoin:round;stroke-miterlimit:4;stroke-opacity:1;stroke-dasharray:none;stroke-dashoffset:0"
       id="path2720"
       d="m 1361.8556,492.63627 c 7.761,-3.56456 15.7946,-6.45754 23.817,-9.36591 3.2587,-1.17641 6.6423,-1.91463 10.0164,-2.66163 0,0 -11.2129,8.53433 -11.2129,8.53433 l 0,0 c -3.323,0.7689 -6.6444,1.56365 -9.8479,2.75728 -8.0322,2.94703 -16.1099,5.80913 -23.8112,9.56575 0,0 11.0386,-8.82982 11.0386,-8.82982 z" />
    <path
       style="fill:#000000;fill-opacity:1;fill-rule:nonzero;stroke:#000000;stroke-width:4.69999981;stroke-linecap:round;stroke-linejoin:round;stroke-miterlimit:4;stroke-opacity:1;stroke-dasharray:none;stroke-dashoffset:0"
       id="path2722"
       d="m 1381.8556,509.77913 c 4.5725,-1.8926 8.9558,-4.20745 13.3567,-6.46191 0,0 -10.9773,8.79346 -10.9773,8.79346 l 0,0 c -4.4355,2.24168 -8.8787,4.47173 -13.418,6.49826 0,0 11.0386,-8.82981 11.0386,-8.82981 z" />
    <path
       style="fill:#000000;fill-opacity:1;fill-rule:nonzero;stroke:#000000;stroke-width:4.69999981;stroke-linecap:round;stroke-linejoin:round;stroke-miterlimit:4;stroke-opacity:1;stroke-dasharray:none;stroke-dashoffset:0"
       id="path2724"
       d="m 1370.427,535.49341 c 7.3355,-2.63803 14.3006,-6.144 21.1787,-9.78208 0,0 -10.8984,8.75169 -10.8984,8.75169 l 0,0 c -6.9576,3.6109 -14.0342,6.95389 -21.3189,9.86021 0,0 11.0386,-8.82982 11.0386,-8.82982 z" />
    <path
       style="fill:#000000;fill-opacity:1;fill-rule:nonzero;stroke:#000000;stroke-width:4.69999981;stroke-linecap:round;stroke-linejoin:round;stroke-miterlimit:4;stroke-opacity:1;stroke-dasharray:none;stroke-dashoffset:0"
       id="path2707"
       d="m -222.27687,313.27798 c -0.56593,13.87419 -1.69931,27.71942 -2.26167,41.60235 -1.41118,25.18663 -3.1683,50.35136 -4.56254,75.53872 -1.58536,31.5205 -1.86359,63.08488 -2.0755,94.63817 -0.54452,30.68342 0.15124,61.33853 1.23926,91.99898 0.89678,22.60266 1.35445,45.21826 1.64271,67.83573 0.15657,14.19509 0.1842,28.39123 0.22996,42.587 0.007,6.78896 0.0646,13.57774 0.0825,20.36664 0.0657,2.75554 -0.80466,5.45295 2.09011,6.74477 7.12864,2.31091 14.59243,2.7958 22.02114,3.28212 17.75251,1.14352 35.52842,2.04113 53.27716,3.26683 23.25807,1.42336 46.51122,2.91706 69.773388,4.28309 23.01706,1.46042 46.086877,0.3796 69.06598,-1.15548 19.0650158,-1.03285 38.095003,-2.35341 57.123343,-3.91001 12.563766,-1.2803 25.225235,-1.33353 37.738524,0.41036 7.157146,0.86736 13.871506,3.49497 20.490635,6.19338 5.71378,3.25329 11.56052,6.22126 17.44673,9.15688 6.46429,3.22858 13.15876,5.93317 19.76113,8.85287 7.39109,2.73599 14.97501,4.95378 22.70953,6.4739 3.94656,0.66328 2.07637,0.37159 5.60847,0.88861 0,0 -11.55192,8.12209 -11.55192,8.12209 l 0,0 c -3.50978,-0.58474 -1.64888,-0.25964 -5.58066,-0.98687 -7.78169,-1.64201 -15.44805,-3.87357 -22.87589,-6.72106 -6.6399,-2.8862 -13.32206,-5.66441 -19.80316,-8.9041 -5.88188,-2.89708 -11.656797,-5.96002 -17.43429,-9.04442 -6.500242,-2.67396 -13.135155,-5.14425 -20.165734,-5.98207 -12.419986,-1.59884 -24.945253,-1.55337 -37.403174,-0.28764 -18.982003,1.50274 -37.9696181,2.73682 -56.982731,3.7818 -22.998715,1.49885 -46.088198,2.4767 -69.11824,0.98442 -23.284551,-1.38574 -46.563621,-2.83083 -69.845911,-4.2442 -17.83257,-1.1587 -35.6864,-2.04658 -53.52513,-3.08598 -7.61605,-0.49358 -15.4045,-0.90117 -22.61841,-3.63086 -3.14679,-2.048 -3.01121,-4.57997 -2.80255,-8.06869 0.0276,-6.82216 0.10114,-13.64411 0.11449,-20.46636 0.0546,-14.22912 0.0783,-28.45839 -0.002,-42.68749 -0.15892,-22.65519 -0.54968,-45.30832 -1.34557,-67.95097 -1.0133,-30.69672 -1.69424,-61.38777 -1.15112,-92.10479 0.19509,-31.55586 0.46949,-63.12105 1.95582,-94.64796 1.31028,-25.12827 2.99297,-50.23453 4.26692,-75.36516 0.47383,-13.79401 1.5344,-27.56594 1.87934,-41.35013 0,0 12.58912,-6.41447 12.58912,-6.41447 z"
       transform="translate(-207.0758,351.44297)" />
    <path
       style="fill:#000000;fill-opacity:1;fill-rule:nonzero;stroke:#000000;stroke-width:4.69999981;stroke-linecap:round;stroke-linejoin:round;stroke-miterlimit:4;stroke-opacity:1;stroke-dasharray:none;stroke-dashoffset:0"
       id="path2709"
       d="m -219.36031,760.28626 c 7.3991,-12.86559 15.75823,-25.13063 24.0372,-37.43683 11.68569,-17.36959 23.51185,-34.64055 34.96554,-52.16448 13.67476,-20.41047 27.82702,-40.50598 41.94818,-60.61165 13.75047,-19.20041 26.734175,-38.92462 40.17087,-58.34127 12.341948,-17.67815 24.500119,-35.4828 36.568368,-53.34853 10.893223,-16.21267 21.922864,-32.32859 32.7561329,-48.58184 7.2975566,-11.43279 14.3853283,-22.9908 21.9174971,-34.27316 4.748727,-8.0086 9.906753,-15.77586 14.621753,-23.80303 3.893027,-6.74039 8.119501,-13.27482 12.256186,-19.86458 2.60006,-4.9517 6.176953,-9.23876 9.484071,-13.70708 3.142088,-4.24098 6.594705,-8.26332 10.018298,-12.2841 1.683782,-1.95439 3.392381,-3.88724 5.116768,-5.80585 0.461364,-0.31211 0.488398,-0.79496 0.578167,-1.29799 0,0 12.770929,-6.32133 12.770929,-6.32133 l 0,0 c -0.04663,0.70641 -0.118636,1.4095 -0.201469,2.1127 -1.799458,1.89459 -3.531797,3.85192 -5.261015,5.81033 -3.446619,3.97992 -6.847759,8.0255 -10.069557,12.17268 -3.175032,4.55763 -7.044566,8.64442 -9.578972,13.64614 -4.080793,6.63273 -8.444493,13.09245 -12.326459,19.85036 -4.659709,8.10279 -9.955802,15.83009 -14.650617,23.91533 -7.634658,11.2848 -14.801347,22.86303 -22.1155337,34.35499 -10.8726375,16.26552 -21.9440603,32.39017 -32.8516513,48.63183 -12.080618,17.88323 -24.251433,35.70526 -36.622194,53.38946 -13.471248,19.42155 -26.454494,39.17343 -40.237892,58.37983 -14.10209,20.0808 -28.22532,40.15867 -41.89115,60.53671 -11.41282,17.5065 -23.16495,34.78195 -34.82681,52.12316 -8.18287,12.20599 -16.52001,24.33504 -23.69334,37.1753 0,0 -12.8833,5.7429 -12.8833,5.7429 z"
       transform="translate(-207.0758,351.44297)" />
    <path
       style="fill:#000000;fill-opacity:1;fill-rule:nonzero;stroke:#000000;stroke-width:4.69999981;stroke-linecap:round;stroke-linejoin:round;stroke-miterlimit:4;stroke-opacity:1;stroke-dasharray:none;stroke-dashoffset:0"
       id="path2711"
       d="m 18.039904,363.65866 c 6.801983,-7.19842 14.383725,-13.53756 22.142378,-19.66323 7.958843,-5.50407 15.28541,-11.8981 23.438253,-17.11317 7.848305,-4.76629 15.786757,-9.38672 23.791913,-13.88438 1.60665,-1.38549 1.91026,1.02546 1.922365,2.2761 0.41962,4.64518 1.39793,9.2488 1.848506,13.92487 0.623642,7.45575 0.701317,14.9419 0.782049,22.41886 -0.0884,5.32118 -0.198583,10.54241 1.276388,15.68818 0.139669,0.403 0.279338,0.806 0.419008,1.209 0,0 -12.433801,6.85745 -12.433801,6.85745 l 0,0 c -0.143105,-0.42885 -0.286209,-0.85769 -0.429314,-1.28654 -1.484832,-5.29288 -1.540103,-10.60115 -1.34591,-16.07801 -0.05242,-7.43894 -0.122534,-14.88654 -0.731949,-22.30511 -0.464156,-4.70522 -1.392676,-9.33637 -2.067126,-13.971 0.03194,-1.95019 1.203877,-0.20508 -0.305097,0.20719 -4.065508,2.2976 -10.024969,5.77115 8.518149,-4.94363 0.733323,-0.42373 -1.467234,0.84647 -2.19856,1.27364 -2.850525,1.66502 -2.991318,1.76133 -5.968215,3.54468 -8.311994,5.01138 -15.533319,11.58474 -23.580827,17.0026 -7.71357,6.05092 -15.356449,12.21343 -22.026097,19.43614 0,0 -13.052113,5.40636 -13.052113,5.40636 z"
       transform="translate(-207.0758,351.44297)" />
    <path
       style="fill:#000000;fill-opacity:1;fill-rule:nonzero;stroke:#000000;stroke-width:4.69999981;stroke-linecap:round;stroke-linejoin:round;stroke-miterlimit:4;stroke-opacity:1;stroke-dasharray:none;stroke-dashoffset:0"
       id="path2713"
       d="m -155.68987,478.36059 c 2.77662,5.25867 5.82204,10.37068 8.91326,15.44908 2.74586,4.53528 8.18531,1.99498 -11.45775,6.5129 -0.81165,0.18668 -0.15041,-1.65895 -0.23594,-2.48739 -0.80655,-7.81253 0.0819,1.44188 -0.75423,-7.48251 -1.52161,-13.31219 0.15105,-26.58252 2.18135,-39.73464 2.10252,-10.90582 6.68789,-20.70682 12.90676,-29.799 0,0 12.78255,-5.55738 12.78255,-5.55738 l 0,0 c -6.37912,8.88513 -11.09638,18.47472 -13.31176,29.2885 -2.04056,13.01097 -3.7642,26.14801 -2.13148,39.31734 0.23336,2.29694 1.55087,9.65627 1.1866,9.99752 -8.57275,8.03102 -10.16086,12.76725 -13.43431,7.04667 -2.98949,-5.17803 -5.97369,-10.35917 -8.92901,-15.5568 0,0 12.28396,-6.99429 12.28396,-6.99429 z"
       transform="translate(-207.0758,351.44297)" />
    <path
       style="fill:#000000;fill-opacity:1;fill-rule:nonzero;stroke:#000000;stroke-width:4.69999981;stroke-linecap:round;stroke-linejoin:round;stroke-miterlimit:4;stroke-opacity:1;stroke-dasharray:none;stroke-dashoffset:0"
       id="path2717"
       d="m -87.402064,475.96271 c 2.270511,8.4666 3.371886,17.16325 5.175463,25.73054 1.440744,5.25288 1.665717,10.7407 3.379691,15.91207 0.189132,0.4811 0.378265,0.9622 0.567397,1.4433 0,0 -12.389646,6.90066 -12.389646,6.90066 l 0,0 c -0.193065,-0.50606 -0.38613,-1.01213 -0.579194,-1.51819 -1.7285,-5.24674 -1.983233,-10.76858 -3.326634,-16.12247 -1.765789,-8.52993 -2.826283,-17.19844 -5.227324,-25.58661 0,0 12.400247,-6.7593 12.400247,-6.7593 z"
       transform="translate(-207.0758,351.44297)" />
    <path
       style="fill:#000000;fill-opacity:1;fill-rule:nonzero;stroke:#000000;stroke-width:4.69999981;stroke-linecap:round;stroke-linejoin:round;stroke-miterlimit:4;stroke-opacity:1;stroke-dasharray:none;stroke-dashoffset:0"
       id="path2719"
       d="m -226.29827,754.81567 c 7.99397,-1.94315 16.08129,-3.36233 23.8845,-6.01614 8.22244,-2.5035 16.15433,-5.93298 24.04853,-9.32038 10.51033,-3.80973 20.88831,-7.9387 31.40345,-11.73334 13.05308,-4.44141 26.29724,-8.29573 39.40841,-12.57663 15.075732,-5.11744 29.975395,-10.72452 44.923431,-16.19745 17.888621,-5.93612 35.72806,-11.96516 53.3130902,-18.75636 20.9004498,-8.2021 42.1083178,-15.51114 63.3266188,-22.8296 25.6761,-8.41606 51.79752,-15.47971 77.99281,-22.08607 31.66029,-8.46471 63.35627,-16.80309 94.87409,-25.78932 34.92874,-10.28272 69.99311,-20.08881 104.86865,-30.55424 36.21413,-11.32202 72.60398,-22.09699 108.67931,-33.85482 37.68412,-12.61538 75.55487,-24.65409 113.22982,-37.29572 39.38643,-13.19704 78.72218,-26.55799 117.96351,-40.1818 40.93164,-13.98634 81.99384,-27.60029 123.24091,-40.62993 39.90719,-12.41806 80.06278,-24.0152 120.14726,-35.84293 36.98415,-11.44844 74.16927,-22.19962 111.33588,-33.03325 34.4466,-9.99916 68.8913,-19.9506 103.0957,-30.75786 32.4416,-9.60556 64.6674,-19.91258 96.8759,-30.2663 27.2126,-8.5555 54.3024,-17.4652 81.694,-25.44013 19.7987,-5.12846 39.6396,-10.11244 59.6299,-14.44162 12.2255,-3.11295 24.7454,-4.92717 36.879,-8.3966 5.3072,-2.05716 2.7935,-0.99733 7.5556,-3.14463 0,0 -11.0104,8.71421 -11.0104,8.71421 l 0,0 c -4.7907,2.02601 -2.2559,1.03184 -7.6196,2.94268 -12.1281,3.2471 -24.5538,5.17505 -36.7397,8.19134 -19.8914,4.31357 -39.6556,9.19627 -59.3465,14.34462 -27.3187,7.95925 -54.3501,16.81382 -81.4965,25.33327 -32.1923,10.31717 -64.3998,20.59094 -96.8102,30.20736 -34.1906,10.78187 -68.6284,20.68679 -103.0528,30.68763 -37.1388,10.80341 -74.28093,21.57516 -111.2448,32.96871 -40.06355,11.81322 -80.2001,23.38991 -120.07813,35.82094 -41.2401,13.0378 -82.29871,26.64953 -123.21853,40.65814 -39.27246,13.62392 -78.62298,27.03181 -118.04173,40.22546 -37.69249,12.63087 -75.56777,24.69991 -113.2675,37.31024 -36.10957,11.72979 -72.50223,22.57483 -108.74946,33.87074 -34.89691,10.45557 -69.97269,20.2873 -104.91969,30.57098 -31.58398,8.99825 -63.33048,17.41127 -95.05862,25.88198 -26.217241,6.68066 -52.376996,13.75377 -78.060169,22.27988 -21.250209,7.32165 -42.45469896,14.73709 -63.387379,22.93839 -17.638577,6.77395 -35.532072,12.78192 -53.43179,18.82121 -14.959309,5.49291 -29.882332,11.08995 -44.984872,16.18284 -13.13755,4.29092 -26.4208,8.12549 -39.468,12.67753 -10.52524,3.80778 -20.92346,7.93612 -31.41278,11.84147 -7.93704,3.37365 -15.90101,6.782 -24.17082,9.26058 -7.88684,2.47868 -16.01121,3.9031 -23.9906,6.03083 0,0 11.1902,-8.61591 11.1902,-8.61591 z"
       transform="translate(-207.0758,351.44297)" />
    <path
       style="fill:#000000;fill-opacity:1;fill-rule:nonzero;stroke:#000000;stroke-width:4.69999981;stroke-linecap:round;stroke-linejoin:round;stroke-miterlimit:4;stroke-opacity:1;stroke-dasharray:none;stroke-dashoffset:0"
       id="path2721"
       d="m 1373.9327,210.78637 c 8.7221,2.16867 17.5368,4.02586 26.3763,5.67009 8.1951,0.95083 16.0466,3.43056 23.9819,5.53755 5.0359,1.79856 10.2338,3.06041 14.9647,5.58795 3.7025,2.78742 2.3366,6.2415 -0.1668,9.32275 -5.3148,5.50947 -11.5297,10.03394 -17.3545,14.97918 -6.7504,5.74028 -12.9378,12.08994 -19.8039,17.69289 0,0 -13.0447,5.2373 -13.0447,5.2373 l 0,0 c 6.9811,-5.51051 13.1824,-11.86953 19.9037,-17.68716 5.7441,-4.93264 11.836,-9.45573 17.2682,-14.73324 2.0749,-2.1325 4.7306,-4.77585 1.3486,-7.04995 -4.6535,-2.40628 -9.7703,-3.66605 -14.6966,-5.39332 -7.8794,-2.16215 -15.7237,-4.46379 -23.8611,-5.49063 -8.8924,-1.71196 -17.772,-3.54697 -26.568,-5.69336 0,0 11.6522,-7.98005 11.6522,-7.98005 z"
       transform="translate(-207.0758,351.44297)" />
    <path
       style="fill:#000000;fill-opacity:1;fill-rule:nonzero;stroke:#000000;stroke-width:4.69999981;stroke-linecap:round;stroke-linejoin:round;stroke-miterlimit:4;stroke-opacity:1;stroke-dasharray:none;stroke-dashoffset:0"
       id="path2723"
       d="m 811.71124,496.22511 c -0.51635,10.37937 -0.13043,20.78582 0.004,31.17293 0.13971,9.68388 0.20194,19.3687 0.22314,29.05351 0.0357,5.79139 0.0383,11.58288 0.0958,17.37413 0.10734,6.96839 0.57867,2.57278 -12.41932,8.0886 2.27886,-6.40756 4.37025,-12.86587 6.82576,-19.21298 4.46619,-10.9359 9.40172,-21.68125 15.19753,-31.97697 6.80122,-10.95023 16.75063,-18.71079 29.42363,-22.44786 7.50416,-1.54445 15.23145,-1.34282 22.85531,-1.33924 5.47991,0.0249 10.95966,0.0786 16.43955,0.10674 0.45065,10e-4 0.9013,0.003 1.35195,0.004 0,0 -11.49387,8.3349 -11.49387,8.3349 l 0,0 c -0.44379,-0.007 -0.88757,-0.0134 -1.33135,-0.02 -5.439,-0.0762 -10.87795,-0.16552 -16.3176,-0.17798 -7.55082,0.009 -15.24395,-0.17556 -22.61089,1.71908 -5.46751,2.03411 -7.2563,2.91512 5.99845,-4.28658 1.04977,-0.57037 -2.00345,1.31185 -2.92098,2.07702 -3.4928,2.91282 -6.13496,6.64311 -8.68487,10.36313 -5.88656,10.18777 -10.79577,20.88631 -15.24973,31.77301 -2.4374,6.28381 -4.50226,12.66991 -6.60087,19.06432 -14.53571,7.97473 -13.14612,11.8229 -13.09805,4.36814 0.0609,-5.81915 0.0619,-11.63857 0.0764,-17.45797 -0.0213,-9.69052 -0.0399,-19.38116 -0.15541,-29.07114 -0.13588,-10.42395 -0.3921,-20.84971 -0.28646,-31.27449 0,0 12.67744,-6.2345 12.67744,-6.2345 z"
       transform="translate(-207.0758,351.44297)" />
    <path
       style="fill:#000000;fill-opacity:1;fill-rule:nonzero;stroke:#000000;stroke-width:4.69999981;stroke-linecap:round;stroke-linejoin:round;stroke-miterlimit:4;stroke-opacity:1;stroke-dasharray:none;stroke-dashoffset:0"
       id="path2725"
       d="m 860.8606,589.64511 c 8.39395,-7.06658 18.08768,-11.95361 27.69401,-17.15081 4.83898,-1.36468 5.85772,3.36329 5.85453,7.14985 -0.46074,6.76193 -3.17832,12.92433 -6.07292,18.93979 -1.518,4.04635 -6.1505,8.16016 -5.37079,12.81769 2.80596,1.27119 7.77056,-0.25035 10.73667,-1.05206 4.24326,-1.52031 8.6504,-2.41329 13.10845,-2.98843 7.20926,-0.47383 9.27165,-3.01047 -7.8025,6.07745 -0.0659,-0.16451 -0.13185,-0.32901 -0.19778,-0.49352 0,0 12.4076,-6.97496 12.4076,-6.97496 l 0,0 c 0.14459,0.32135 0.28917,0.64271 0.43375,0.96406 -11.05052,7.80397 -8.22032,8.16732 -16.18853,8.90925 -4.41484,0.63805 -8.72098,1.73172 -12.97596,3.06792 -3.73446,0.80046 -9.20199,2.58459 -12.02946,-0.78202 -1.33747,-5.04687 3.04266,-9.47771 5.07914,-13.73296 2.83684,-5.85996 5.74048,-11.76738 6.24746,-18.37801 0.26946,-3.4084 -0.33679,-6.41999 -4.34323,-4.79958 22.0328,-13.4148 1.00422,-0.95154 -3.45543,3.15918 0,0 -13.12501,5.26716 -13.12501,5.26716 z"
       transform="translate(-207.0758,351.44297)" />
    <path
       style="fill:#000000;fill-opacity:1;fill-rule:nonzero;stroke:#000000;stroke-width:4.69999981;stroke-linecap:round;stroke-linejoin:round;stroke-miterlimit:4;stroke-opacity:1;stroke-dasharray:none;stroke-dashoffset:0"
       id="path2727"
       d="m 413.87966,167.50703 c 8.64414,2.37232 17.49061,3.68981 26.39601,4.55152 9.45804,0.94245 18.95078,1.94516 28.36245,3.31424 11.41865,1.53735 22.57901,4.44192 33.93169,6.36177 14.01898,3.02837 28.29105,4.18917 42.58304,4.89606 16.83559,0.31901 33.51153,-2.07187 50.14399,-4.32642 18.4053,-2.01808 36.71124,-4.81631 55.11293,-6.86046 19.42548,-1.49621 38.8819,-2.59625 58.33162,-3.77461 19.96155,-1.27338 39.94843,-2.40086 59.88979,-3.98006 19.6878,-1.64045 39.42116,-2.47752 59.12598,-3.86607 19.43271,-1.46145 38.91649,-1.89683 58.39524,-2.16835 20.17717,0.23702 40.31301,-1.08222 60.4625,-1.90454 22.27289,-0.40256 44.51581,-1.3364 66.7679,-2.34295 25.354,-0.99558 50.6808,-2.63922 75.9933,-4.3865 26.6179,-2.03678 53.1521,-4.94854 79.7089,-7.63006 25.2016,-2.09083 50.4142,-4.09872 75.6707,-5.40609 23.3822,-1.41348 46.7236,-3.36453 70.091,-4.97979 20.6834,-1.388 41.4134,-1.78807 62.1363,-2.01635 15.3513,-0.14033 30.7035,-0.12554 46.0554,-0.14431 9.7392,-0.39993 19.3645,0.14928 29.0195,1.34432 5.9108,0.56691 11.6011,2.37705 17.4055,3.5579 7.6495,1.69169 10.583,-2.44504 -5.2466,6.15413 3.1497,-2.60501 4.7534,-6.25172 6.3784,-9.89501 0.2881,-0.71836 0.5761,-1.43671 0.8642,-2.15506 0,0 12.8249,-5.93682 12.8249,-5.93682 l 0,0 c -0.2865,0.73272 -0.573,1.46545 -0.8595,2.19817 -1.5548,3.75182 -3.0589,7.60166 -6.078,10.43516 -11.145,6.76165 -10.5316,9.44352 -19.4995,7.27393 -5.7278,-1.26226 -11.3768,-2.99992 -17.2406,-3.52692 -9.5756,-1.19333 -19.1409,-1.57629 -28.795,-1.29482 -15.2926,-0.0487 -30.5856,-0.0728 -45.8781,0.0352 -20.6709,0.21334 -41.3486,0.60192 -61.9794,2.00046 -23.3575,1.63262 -46.6929,3.55132 -70.0684,4.93388 -25.2246,1.3179 -50.4081,3.30875 -75.5769,5.41878 -26.5628,2.70005 -53.1108,5.55918 -79.7362,7.59666 -25.3449,1.74579 -50.7024,3.40696 -76.0883,4.41734 -22.27876,1.02016 -44.55028,1.93526 -66.84874,2.39518 -20.16514,0.84442 -40.31864,2.1076 -60.51196,1.89494 -19.46223,0.28188 -38.92748,0.76737 -58.34332,2.2255 -19.70075,1.39426 -39.43407,2.19902 -59.11583,3.87054 -19.95309,1.52127 -39.93795,2.723 -59.9091,3.96583 -19.44461,1.18777 -38.90226,2.2491 -58.31542,3.84897 -18.40616,2.0805 -36.72545,4.84642 -55.1338,6.91552 -16.69098,2.26207 -33.44234,4.57498 -50.33513,4.15123 -14.35605,-0.73493 -28.6743,-1.98084 -42.76465,-4.96925 -11.34881,-1.96532 -22.53428,-4.80109 -33.96599,-6.28629 -9.42485,-1.27183 -18.89425,-2.35003 -28.35866,-3.25052 -8.949,-0.93896 -17.7904,-2.43471 -26.5482,-4.51503 0,0 11.54606,-8.14092 11.54606,-8.14092 z"
       transform="translate(-207.0758,351.44297)" />
    <path
       style="fill:#000000;fill-opacity:1;fill-rule:nonzero;stroke:#000000;stroke-width:4.69999981;stroke-linecap:round;stroke-linejoin:round;stroke-miterlimit:4;stroke-opacity:1;stroke-dasharray:none;stroke-dashoffset:0"
       id="path2729"
       d="m 1446.6504,93.400894 c -3.2742,1.080419 -2.4817,0.686696 -5.6421,2.282715 -0.8592,0.433888 -3.3879,1.828867 -2.5468,1.360938 18.4746,-10.277541 9.9304,-7.369671 8.1549,-2.961863 1.2228,5.087376 7.2753,7.625406 11.3908,10.076766 6.2055,3.57445 12.6063,6.84094 19.101,9.86078 6.5698,3.41471 13.0592,7.00089 19.5087,10.64129 4.0772,2.11062 8.0039,4.32487 8.8278,9.15104 -0.3482,1.85289 -0.2982,2.56812 -1.4417,4.22719 -3.7974,5.50919 -19.0827,12.36669 -21.7463,13.84557 -7.6706,3.7473 -15.8748,4.99735 -24.314,4.87764 -1.1784,-0.0646 -2.3569,-0.12912 -3.5353,-0.19368 0,0 11.4137,-8.20398 11.4137,-8.20398 l 0,0 c 1.1555,0.0545 2.311,0.10898 3.4665,0.16347 8.3618,-0.039 16.4436,-1.60984 23.97,-5.41536 -19.7126,11.90106 -5.186,4.08474 -2.1539,0.70379 0.9626,-1.07346 1.2763,-2.15005 1.777,-3.42659 -0.131,-4.3377 -4.835,-6.13544 -8.0462,-8.0582 -6.4322,-3.60013 -12.8469,-7.25121 -19.4275,-10.57112 -6.5136,-3.08152 -12.9938,-6.28766 -19.1923,-9.96618 -4.8263,-2.87238 -10.8018,-5.71717 -12.3774,-11.56558 1.0323,-8.488702 16.2105,-12.171557 23.9826,-15.506203 0,0 -11.1695,8.677567 -11.1695,8.677567 z"
       transform="translate(-207.0758,351.44297)" />
    <path
       style="fill:#000000;fill-opacity:1;fill-rule:nonzero;stroke:#000000;stroke-width:4.69999981;stroke-linecap:round;stroke-linejoin:round;stroke-miterlimit:4;stroke-opacity:1;stroke-dasharray:none;stroke-dashoffset:0"
       id="path2731"
       d="m 815.75029,33.029186 c 3.94577,10.165146 6.00884,20.962915 7.84695,31.67576 2.1664,10.533949 3.89724,21.13505 4.91658,31.841117 0.39143,3.379351 0.4212,6.790577 0.73138,10.174977 -4.22328,1.71675 -8.23585,4.09049 -12.66984,5.15026 -0.71813,0.17164 0.18913,-1.46472 0.30248,-2.19433 0.14976,-0.9639 0.29592,-1.92901 0.48677,-2.88562 0.87052,-4.36339 2.24946,-8.499457 3.69823,-12.698409 5.07484,-12.505439 13.80697,-22.847775 23.38674,-32.141754 11.2324,-9.951972 24.43855,-18.805107 39.14626,-22.468678 4.85635,-0.51208 9.71053,0.194104 14.43733,1.285155 0.84439,0.291119 1.73486,0.36095 2.6146,0.466596 0,0 -11.63289,8.196052 -11.63289,8.196052 l 0,0 c -0.89317,-0.1536 -1.78252,-0.324573 -2.65515,-0.573745 -4.56111,-1.020178 -9.24659,-1.641607 -13.89974,-0.836911 -1.2336,0.342799 -2.48482,0.627526 -3.70079,1.028397 -1.36257,0.449201 -5.07882,2.495068 -4.02707,1.51926 2.16903,-2.012406 5.11319,-2.998517 7.50248,-4.743722 1.50981,-1.102811 -3.28482,1.794072 -4.85463,2.809661 -4.96405,3.211485 -5.63165,4.096912 -10.15021,8.057364 -9.60206,9.056665 -18.3232,19.199679 -23.52468,31.484561 -1.4333,4.096252 -2.84874,8.148345 -3.68086,12.418753 -0.10732,0.55074 -0.68546,4.73566 -0.80337,4.82474 -3.96331,2.99438 -8.43583,5.24722 -12.65375,7.87083 -0.021,-3.42835 -0.24012,-6.85275 -0.47721,-10.27168 -0.91141,-10.697597 -2.55077,-21.296134 -4.74239,-31.808151 -1.79774,-10.586158 -3.83871,-21.287803 -7.90436,-31.268427 0,0 12.30714,-6.912056 12.30714,-6.912056 z"
       transform="translate(-207.0758,351.44297)" />
  </g>
</svg>
