<?xml version="1.0" encoding="UTF-8" standalone="no"?>
<!-- Created with Inkscape (http://www.inkscape.org/) -->
<svg
   xmlns:dc="http://purl.org/dc/elements/1.1/"
   xmlns:cc="http://creativecommons.org/ns#"
   xmlns:rdf="http://www.w3.org/1999/02/22-rdf-syntax-ns#"
   xmlns:svg="http://www.w3.org/2000/svg"
   xmlns="http://www.w3.org/2000/svg"
   xmlns:sodipodi="http://sodipodi.sourceforge.net/DTD/sodipodi-0.dtd"
   xmlns:inkscape="http://www.inkscape.org/namespaces/inkscape"
   width="634.315"
   height="634.31061"
   id="svg2"
   sodipodi:version="0.32"
   inkscape:version="0.46+devel"
   sodipodi:docname="c35d1.svg"
   inkscape:output_extension="org.inkscape.output.svg.inkscape"
   version="1.0">
  <defs
     id="defs4">
    <inkscape:perspective
       sodipodi:type="inkscape:persp3d"
       inkscape:vp_x="0 : 526.18109 : 1"
       inkscape:vp_y="0 : 1000 : 0"
       inkscape:vp_z="744.09448 : 526.18109 : 1"
       inkscape:persp3d-origin="372.04724 : 350.78739 : 1"
       id="perspective10" />
  </defs>
  <sodipodi:namedview
     id="base"
     pagecolor="#ffffff"
     bordercolor="#666666"
     borderopacity="1.0"
     inkscape:pageopacity="0.0"
     inkscape:pageshadow="2"
     inkscape:zoom="0.35"
     inkscape:cx="319.04102"
     inkscape:cy="168.59758"
     inkscape:document-units="px"
     inkscape:current-layer="layer1"
     showgrid="false"
     inkscape:window-width="1280"
     inkscape:window-height="712"
     inkscape:window-x="-5"
     inkscape:window-y="-3" />
  <metadata
     id="metadata7">
    <rdf:RDF>
      <cc:Work
         rdf:about="">
        <dc:format>image/svg+xml</dc:format>
        <dc:type
           rdf:resource="http://purl.org/dc/dcmitype/StillImage" />
        <dc:title></dc:title>
      </cc:Work>
    </rdf:RDF>
  </metadata>
  <g
     inkscape:label="Layer 1"
     inkscape:groupmode="layer"
     id="layer1"
     transform="translate(-55.958981,-66.649129)">
    <path
       style="fill:#000000;fill-opacity:1;fill-rule:nonzero;stroke:#000000;stroke-width:4.69999981;stroke-linecap:round;stroke-linejoin:round;stroke-miterlimit:4;stroke-opacity:1;stroke-dasharray:none;stroke-dashoffset:0"
       id="path2694"
       d="m 71.05422,232.11784 c 0.88733,10.31273 2.270809,20.56339 3.410735,30.84859 1.572474,16.50351 1.603342,33.10224 1.74364,49.6647 0.122235,22.41949 0.07555,44.83943 0.05893,67.25912 -0.01392,24.10448 -0.02692,48.20895 -0.02501,72.31344 0.0064,22.61342 0.01108,45.22685 0.02722,67.84027 -0.447795,20.16223 0.774395,40.28752 1.745133,60.41453 0.710232,14.94564 0.223707,29.9875 -1.212193,44.8799 -1.205982,9.48564 -2.280558,18.98348 -2.868777,28.52864 -0.891765,6.15705 -2.074351,12.25219 -2.682783,18.44859 -0.08598,4.20468 -1.596856,8.16277 -2.521234,12.21901 -1.024454,3.32563 1.725922,3.97981 4.285043,5.21157 5.63256,1.73962 11.584191,1.87405 17.427986,2.06764 10.16328,0.2068 20.32972,0.16139 30.49455,0.16639 14.32321,0.43258 28.59208,-0.45225 42.87835,-1.31472 18.02921,-0.88704 36.06293,-1.21781 54.08524,-2.25682 20.03177,-1.12892 40.08111,-1.57916 60.10893,-2.77846 20.28349,-1.29559 40.60305,-1.75523 60.9215,-2.03122 20.16708,0.24097 40.28949,-0.51327 60.42562,-1.49745 18.29646,-0.85794 36.5269,-2.63095 54.82375,-3.53707 16.4176,-0.75433 32.85533,-0.82092 49.28684,-0.87687 15.92981,-0.0614 31.82109,1.37173 47.73015,2.08377 14.84752,0.68282 29.67353,0.91079 44.50414,-0.0831 10.65679,-0.82889 21.26233,-1.89329 31.93586,-1.00273 6.35935,0.32566 12.50701,1.44331 18.65972,2.98877 4.70348,0.90105 9.10819,2.86546 13.52997,4.63518 4.32538,1.5997 8.61853,3.22806 13.08538,4.40477 3.55977,0.55787 7.46704,1.75641 11.01956,0.73718 -2.88517,1.57004 -5.68305,3.31238 -8.6555,4.71014 -0.2774,0.13044 0.81489,-0.10967 1.60417,-2.67509 0.78637,-2.55597 0.77067,-5.34908 0.91072,-7.98607 0.58894,-10.65955 -0.79315,-21.27518 -1.53199,-31.89268 -0.88774,-13.67713 -2.41447,-27.2931 -3.19871,-40.98099 -1.14799,-14.7365 -0.43882,-29.45146 0.437,-44.17189 1.06614,-17.72127 1.32996,-35.47522 1.52309,-53.22307 0.15994,-20.69208 0.15114,-41.38507 0.15879,-62.07765 0.004,-21.03519 -0.0185,-42.07037 -0.0407,-63.10555 -0.37935,-14.19096 0.54168,-28.44203 -0.43814,-42.61147 -0.54218,-8.21125 -1.98768,-16.27711 -3.4878,-24.35058 -1.99072,-6.99641 -2.94355,-14.21401 -4.49148,-21.29958 -1.65401,-6.51822 -2.41123,-13.19551 -3.63622,-19.79938 -0.84059,-6.4966 -2.30437,-12.86264 -3.91093,-19.20575 -0.47631,-3.65889 -1.96538,-6.98133 -3.30702,-10.37818 -1.12269,-3.19421 -0.58215,-1.61536 -1.62377,-4.73581 0,0 9.90067,-5.45043 9.90067,-5.45043 l 0,0 c 1.01582,3.08874 0.48371,1.53275 1.59891,4.66711 1.41391,3.42701 2.93142,6.80352 3.37678,10.52262 1.53724,6.38642 3.06047,12.76899 3.87958,19.2955 1.24517,6.58761 2.01748,13.24464 3.63829,19.75696 1.58472,7.09125 2.41482,14.35241 4.48924,21.3459 1.48303,8.12634 2.98293,16.2288 3.48768,24.4948 0.95905,14.22929 -0.12261,28.54157 0.25121,42.79194 -0.0155,21.04396 -0.0261,42.08793 -0.0108,63.13189 0.0116,20.68545 0.0387,41.37114 -0.0928,62.05631 -0.15917,17.74821 -0.40815,35.50118 -1.40903,53.22578 -0.86027,14.67995 -1.62459,29.3489 -0.47228,44.04586 0.78377,13.6782 2.304,27.28285 3.23364,40.94631 0.76272,10.63424 2.16447,21.25923 1.72564,31.93807 -0.4406,12.23801 0.0158,10.88516 -12.96013,17.86108 -3.78578,0.42073 -7.60249,-0.3592 -11.29032,-1.18003 -4.47287,-1.24683 -8.81589,-2.86923 -13.15177,-4.52015 -4.3822,-1.76878 -8.7838,-3.59729 -13.44191,-4.51094 -6.0823,-1.54512 -12.20674,-2.48822 -18.48132,-2.88385 -10.601,-0.81599 -21.1466,0.30615 -31.72919,1.05187 -14.84096,0.92449 -29.68008,0.61935 -44.53212,-0.0467 -15.88997,-0.73069 -31.76449,-2.15099 -47.67834,-2.0546 -16.41517,0.0663 -32.83581,0.15549 -49.23717,0.90351 -18.27864,0.92394 -36.49518,2.68603 -54.77759,3.50127 -20.14173,0.97393 -40.2717,1.65503 -60.4427,1.46271 -20.30598,0.27791 -40.61243,0.7636 -60.88285,2.06473 -20.03515,1.18267 -40.09301,1.63628 -60.12989,2.7916 -18.04657,1.04468 -36.10929,1.35618 -54.15971,2.3159 -14.32714,0.88102 -28.63976,1.69779 -43.00372,1.32388 -10.20196,0.0186 -20.405752,0.0675 -30.606268,-0.13353 -5.976797,-0.21018 -12.097909,-0.36705 -17.789463,-2.40266 -2.819747,-1.43861 -6.106707,-2.73927 -5.026717,-6.51491 0.834464,-4.05746 2.51083,-7.94593 2.634814,-12.12589 0.574708,-6.19972 1.693926,-12.30185 2.738477,-18.43534 0.608621,-9.58024 1.705995,-19.11399 2.975644,-28.62813 1.532848,-14.85634 2.054432,-29.8826 1.415782,-44.8027 -0.902775,-20.15657 -2.16616,-40.30736 -1.697228,-60.49604 0.01632,-22.62373 0.02116,-45.24746 0.03312,-67.8712 0.0091,-24.10352 0.0087,-48.20705 0.01887,-72.31057 -3e-6,-22.40161 0.01783,-44.80364 -0.14128,-67.20479 -0.181647,-16.49924 -0.283193,-33.033 -1.874967,-49.47072 -1.158571,-10.2491 -2.535677,-20.46621 -3.564853,-30.72907 0,0 9.996341,-5.27337 9.996341,-5.27337 z" />
    <path
       style="fill:#000000;fill-opacity:1;fill-rule:nonzero;stroke:#000000;stroke-width:4.69999981;stroke-linecap:round;stroke-linejoin:round;stroke-miterlimit:4;stroke-opacity:1;stroke-dasharray:none;stroke-dashoffset:0"
       id="path2696"
       d="m 348.49647,114.54053 c 1.86995,5.54149 3.42975,11.18527 4.42477,16.95015 0.57975,3.38972 0.70551,6.82991 0.74143,10.26128 0.0132,2.84999 -0.005,5.70013 -0.0209,8.55011 0.28802,3.32808 -0.29124,6.42621 -1.23614,9.59532 -0.5704,3.19 -2.03594,6.05934 -3.17274,9.06015 -1.49558,2.86686 -2.7365,5.85861 -4.32606,8.67603 -1.88313,3.52976 -3.5967,7.15022 -5.66676,10.57487 -2.52367,3.94473 -4.97527,7.92422 -7.4149,11.92035 -2.05727,3.42817 -3.71608,7.07471 -5.59081,10.60161 -1.8836,3.63668 -3.40514,7.4676 -4.92876,11.27156 -1.70664,3.36435 -3.32584,6.76632 -4.96615,10.1639 -1.52261,3.75875 -3.73904,7.14463 -5.80794,10.61051 -1.90224,3.18318 -3.35685,6.54255 -4.86482,9.91863 -1.76604,3.56371 -2.53977,7.45418 -3.91234,11.16248 -1.38156,3.45238 -1.90065,7.12347 -3.01193,10.66188 -1.223,3.97955 -1.62599,8.09974 -2.8496,12.07429 -1.11517,3.44862 -1.7526,7.00256 -2.08245,10.60358 -0.3035,3.22864 0.0141,6.47756 -0.50506,9.67853 -0.99919,3.15863 -1.78928,6.33048 -2.19115,9.6193 -0.34429,3.38977 -0.348,6.80015 -0.36763,10.20342 -0.003,3.08972 0.0162,6.17939 0.0171,9.2691 -0.006,3.92076 -0.004,7.8415 -0.01,11.76227 0.33299,4.36646 -0.25399,8.55031 -1.23392,12.78634 -0.93205,3.86265 -1.3034,7.80897 -1.50863,11.76617 -0.13248,3.52659 -0.12974,7.05666 -0.11673,10.58518 0.007,3.20695 0.0123,6.41389 0.0112,9.62085 0.005,3.47789 0.005,6.95581 -0.002,10.4337 -0.14541,3.44376 1.27601,6.66791 2.02081,9.98053 0.2872,3.40408 0.9261,6.59644 2.04504,9.81832 0.88179,3.03461 1.33095,6.11086 2.29905,9.12017 0.80762,3.6878 1.85236,7.21852 3.24092,10.72632 1.17822,3.28763 1.54048,6.77573 1.74357,10.23923 0.13099,3.47121 0.11902,6.94551 0.10454,10.41849 3e-5,3.4244 -0.0199,6.84878 -0.0172,10.27318 0.39226,3.7526 -0.73332,7.24921 -1.66318,10.8213 -0.70359,3.51351 -0.9252,7.02964 -1.90722,10.48262 -0.94606,2.78215 -1.6244,5.61005 -1.94183,8.52954 0.0802,3.48388 -1.07526,6.74852 -1.89037,10.08902 -0.85778,3.57369 -1.0308,7.24118 -1.13548,10.89853 0.0575,3.6078 -0.37381,7.26271 0.23774,10.8314 0.714,3.25801 1.56246,6.42885 2.95973,9.45087 1.15427,3.24935 2.39086,6.51901 4.22609,9.44942 1.91978,3.18932 4.41749,6.07021 7.11331,8.63508 2.22668,2.79009 4.94765,4.85346 8.38822,5.80728 2.67895,1.50468 5.5268,2.5255 8.55211,3.01978 2.81882,0.3992 5.67482,0.38635 8.51565,0.39981 2.85607,-10e-4 5.71209,-0.0189 8.56816,-0.0219 3.2067,1.14021 6.47632,1.9676 9.84975,2.40298 3.36382,0.4292 6.75663,0.44531 10.14158,0.4674 3.83488,0.011 7.66984,0.005 11.50473,-0.007 2.88728,-0.0122 5.77462,-0.0172 8.66194,-0.0142 2.71561,-1.07994 5.47188,-1.96957 8.36189,-2.42068 2.83549,-0.57918 5.78866,-0.0141 8.54077,-0.89659 3.10223,-1.44849 6.57265,-1.52899 9.79166,-2.54212 3.53546,-0.84088 6.68987,-2.52266 10.01893,-3.88281 -16.65185,8.58435 -8.16598,5.26597 -5.34726,2.67248 1.3688,-1.25944 2.49984,-2.90745 3.60099,-4.3929 2.53011,-3.12487 4.20243,-6.76811 6.21304,-10.21608 2.22486,-3.01335 3.96778,-6.25429 4.96438,-9.8638 0.68282,-2.86808 0.71354,-5.8267 0.75,-8.75799 0.0711,-3.17728 0.15692,-6.25387 -0.76228,-9.31629 -0.9501,-3.20677 -2.76986,-6.13983 -4.66855,-8.87763 -1.80217,-2.91377 -3.69884,-5.799 -5.72282,-8.57467 -1.87554,-3.03226 -2.4592,-6.57246 -3.73074,-9.86425 -1.22722,-3.28511 -1.80118,-6.72214 -2.13144,-10.19592 -0.15537,-3.25162 -0.42035,-6.53016 0.10265,-9.75276 0.88171,-3.61041 2.39157,-7.04018 4.1976,-10.27672 1.51515,-2.99412 3.62906,-5.58481 5.66724,-8.22927 2.21424,-3.07094 4.33904,-6.20807 6.56736,-9.27046 1.77709,-2.86108 3.28143,-5.88388 5.06864,-8.73877 1.6838,-2.87517 3.71411,-5.52763 5.22987,-8.49765 1.24233,-3.20509 2.69228,-6.30338 3.58276,-9.63158 0.42336,-3.48056 1.68723,-6.7467 2.53342,-10.12903 0.57157,-4.16101 1.56247,-8.23578 3.11906,-12.13945 1.71597,-3.74043 2.78483,-7.70215 3.38988,-11.75986 1.24518,-3.94266 2.03574,-7.98942 3.04414,-11.99151 1.50469,-5.0483 2.06803,-10.2705 3.50484,-15.33192 1.29,-5.03069 2.47395,-10.11121 4.23374,-15.00342 1.80152,-4.77547 3.76687,-9.47683 5.21282,-14.37677 1.49272,-4.43735 3.18748,-8.7641 5.06163,-13.05192 1.17438,-3.22918 3.00685,-6.12873 4.10322,-9.39155 1.32451,-2.99286 2.62789,-5.99115 4.00587,-8.96108 1.30851,-3.7834 3.01867,-7.33863 4.90855,-10.85987 2.59705,-4.10206 4.63664,-8.51944 7.10831,-12.68869 2.51164,-4.09082 4.10766,-8.68218 5.76495,-13.17206 1.44823,-4.35414 1.7591,-8.9534 1.95887,-13.50424 0.11256,-3.82953 0.0939,-7.66133 0.0681,-11.49195 -0.0184,-3.05069 -0.0213,-6.10141 -0.0325,-9.15212 0.13842,-3.40851 -1.26533,-6.53258 -2.75167,-9.50799 -2.00834,-3.87636 -4.95639,-7.02278 -8.21631,-9.86937 -2.95771,-2.62251 -6.29708,-4.64316 -9.64561,-6.70705 -3.32108,-2.56048 -6.9243,-4.65059 -10.71607,-6.42531 -3.99138,-2.07477 -8.09476,-3.90213 -12.17976,-5.80144 -3.53703,-1.4157 -6.91297,-3.21217 -10.29273,-4.97988 -3.11492,-2.24561 -6.31987,-4.32651 -9.27026,-6.79391 -3.73416,-2.44685 -6.71931,-5.85232 -9.79438,-9.05119 -2.89273,-3.11423 -5.4863,-6.62874 -7.60761,-10.31927 -1.7641,-2.73446 -1.78491,-6.00063 -2.6189,-9.02547 -1.10688,-3.19531 -1.85268,-6.46724 -2.29998,-9.81411 -0.31743,-3.32608 -0.32858,-6.67283 -0.33838,-10.0113 -0.0134,-3.11989 0.0135,-6.23974 0.014,-9.35962 -0.37897,-3.35147 0.70716,-6.40129 1.6509,-9.5486 0.72411,-2.50911 0.98162,-5.10805 1.14155,-7.70396 0.39186,-0.87629 -2.26947,1.04239 -2.16502,0.98405 2.82305,-1.57667 11.26125,-6.360987 8.42444,-4.80919 -3.77591,2.0655 -7.49474,4.23368 -11.24211,6.35052 -0.5887,0.34125 -2.35652,1.36205 -1.76611,1.02376 19.43631,-11.136663 -0.31826,0.17817 -3.53834,1.87493 -1.94194,1.02327 -4.46298,1.6881 -6.53191,2.4383 -5.80643,1.63854 -11.61539,3.17205 -17.57375,4.17209 -6.26261,0.90333 -12.3731,2.5159 -18.65818,3.33495 -4.95206,0.59822 -9.93668,0.70051 -14.9176,0.76312 -4.40514,0.46689 -7.27097,-2.17433 -10.22461,-4.96331 -3.02178,-3.13256 -3.51446,-6.59959 -3.05706,-10.73338 0.84466,-3.9676 3.3044,-7.094837 5.88435,-10.096587 2.86067,-2.517092 5.59681,-5.220815 8.79498,-7.306626 4.7452,-3.326756 9.85291,-5.950801 14.97766,-8.710175 2.6761,-1.44092 -10.55513,6.032375 -7.92972,4.501046 11.41907,-6.660416 7.54379,-4.983311 13.54663,-7.417968 4.1035,-1.780078 8.54684,-2.768173 12.66917,-4.473818 3.59485,-1.67294 7.3807,-2.531019 11.30142,-2.949164 4.04251,-0.289707 8.0984,-0.267565 12.14872,-0.273309 3.32015,0.0044 6.64028,0.01928 9.96044,0.02094 3.73472,1.100844 7.12726,3.343289 10.01485,5.919417 2.91627,2.462991 4.55276,5.716772 5.36343,9.378767 0.61663,3.125501 -0.55456,6.203658 -2.2543,8.789856 -3.13287,5.30581 -8.61138,10.946061 -15.36172,10.279601 -2.01451,-0.97018 -1.0692,-0.42447 -2.84602,-1.61949 0,0 9.54529,-6.143717 9.54529,-6.143717 l 0,0 c 1.56477,0.922007 0.74189,0.571955 2.46475,1.059255 4.49042,-0.873928 2.12327,-0.562086 -7.34973,4.898672 -0.31891,0.18384 0.59203,-0.43877 0.87063,-0.67936 1.06822,-0.922484 1.57144,-2.063213 2.25892,-3.279521 1.75142,-2.232104 3.13061,-5.044298 2.67219,-7.946369 -0.68527,-3.461976 -2.20423,-6.467675 -4.97099,-8.761427 -2.74052,-2.346556 -5.98351,-4.602988 -9.59383,-5.224557 -3.31266,-0.01385 -6.62533,-0.02681 -9.938,-0.03272 -4.02513,0.0014 -8.06155,-0.0081 -12.07135,0.386343 -3.8591,0.533725 -7.55346,1.557498 -11.11826,3.155429 -4.22497,1.482238 -8.49202,2.808052 -12.64008,4.514595 -0.65297,0.301646 -2.56917,1.285622 -1.9589,0.904939 2.56998,-1.603125 10.48852,-6.064733 7.84891,-4.579065 -37.67359,21.204003 9.01811,-5.336184 -7.04482,4.207965 -3.3651,1.832725 -5.87872,4.691176 -8.92281,6.97713 -2.54236,2.838641 -5.06135,5.746684 -6.15978,9.481348 -0.54109,3.81849 -0.36752,6.90694 2.54152,9.80354 2.83882,2.68904 5.55159,4.74231 9.72397,4.24939 4.94357,-0.0615 9.89129,-0.22057 14.80093,-0.84923 6.25506,-0.88685 12.36202,-2.48669 18.61695,-3.35636 5.91979,-1.06798 11.73643,-2.59847 17.48343,-4.36348 3.46161,-1.31786 1.20585,-0.44291 4.53511,-1.77228 0.64808,-0.25878 2.52939,-1.15487 1.94594,-0.77205 -17.4908,11.4759 -1.56299,-0.28501 5.3107,-2.91698 -2.73323,1.60628 -10.98035,6.34161 -8.19971,4.81885 3.72414,-2.03944 7.31958,-4.30728 11.03119,-6.36945 0.61542,-0.341929 1.57182,-0.723616 2.32339,-0.456716 0.74263,0.26373 0.84686,0.834815 1.14809,1.464296 -0.17181,2.67149 -0.39172,5.34846 -1.05514,7.95137 -0.9225,3.06415 -2.19394,5.98239 -1.80282,9.25627 -0.009,3.11845 -0.003,6.23693 -0.0173,9.35538 0.0103,3.29551 -0.005,6.59791 0.28142,9.8838 0.39356,3.29697 1.08952,6.52351 2.21156,9.65654 0.90016,2.91658 0.77717,6.12501 2.4717,8.80167 2.06965,3.61615 4.60243,7.06134 7.45733,10.08882 3.03661,3.18563 6.03426,6.49668 9.73245,8.9336 2.92114,2.37962 6.04116,4.46576 9.1443,6.59804 3.35606,1.77737 6.76183,3.47503 10.26396,4.93815 4.06614,1.93541 8.18488,3.73498 12.17819,5.80967 3.7984,1.84516 7.40987,3.98654 10.79038,6.52398 3.38934,2.10335 6.76227,4.18966 9.73582,6.87922 3.32531,2.98768 6.37272,6.22765 8.45588,10.22876 1.56189,3.10432 3.07888,6.40738 3.02175,9.95958 -0.003,3.05215 0.008,6.10431 0.0175,9.15645 0.004,3.84977 0.0433,7.7009 -0.0719,11.5495 -0.16712,4.64576 -0.47123,9.338 -1.81054,13.81694 -1.60479,4.56046 -3.29345,9.18348 -5.67381,13.38973 -2.6243,4.05415 -4.4147,8.59878 -7.13138,12.61283 -1.82545,3.52837 -3.78281,6.95112 -4.91971,10.78754 -1.2959,2.97216 -2.62169,5.92036 -4.03944,8.8384 -1.03661,3.34467 -2.81193,6.2761 -4.07977,9.50894 -1.88945,4.26025 -3.61832,8.52234 -5.14342,12.92758 -1.43083,4.93403 -3.32952,9.67584 -5.18112,14.46122 -1.93551,4.79532 -2.97046,9.92235 -4.26878,14.91657 -1.48669,5.05101 -2.09517,10.23398 -3.51328,15.30747 -1.09269,3.9339 -1.57987,8.02157 -3.07633,11.85498 -0.53225,4.14505 -1.57122,8.2075 -3.27529,12.03564 -1.70644,3.78416 -2.68924,7.85097 -3.19432,11.96327 -0.7605,3.41551 -2.16948,6.63235 -2.51481,10.13395 -0.78683,3.43352 -2.31416,6.54436 -3.47197,9.84866 -1.45518,3.06006 -3.48713,5.71187 -5.17165,8.64665 -2.00785,2.69843 -3.34348,5.88276 -5.05945,8.77947 -2.26653,3.04199 -4.41021,6.18346 -6.5467,9.29907 -2.07419,2.59865 -4.20426,5.14814 -5.73155,8.10796 -1.9829,3.01756 -3.28594,6.48006 -4.35805,9.91687 -0.74368,3.08702 -0.29298,6.3049 -0.23559,9.45849 0.27276,3.37776 0.78143,6.72572 1.96755,9.92033 1.24882,3.20334 1.82614,6.63082 3.58873,9.60936 2.01521,2.7932 3.92896,5.67534 5.73663,8.598 1.94828,2.84225 3.83849,5.8701 4.84294,9.17909 0.98514,3.17206 1.06741,6.30764 0.92993,9.61861 -0.0113,3.00906 -0.028,6.04653 -0.63963,9.00548 -0.85184,3.71648 -2.4717,7.15002 -4.83045,10.16329 -2.07994,3.43559 -3.65851,7.14578 -6.18714,10.30134 -4.50239,6.70753 -9.71757,9.5172 -17.53583,13.26369 -3.29199,1.48508 -6.59888,2.82401 -10.10074,3.75667 -3.28707,0.81545 -6.65775,1.28956 -9.83585,2.52315 -2.83855,0.48027 -5.747,0.26142 -8.58088,0.84612 -2.88191,0.60002 -5.59394,1.74677 -8.48585,2.25899 -2.88118,0.005 -5.76238,0.004 -8.64356,0.003 -3.83812,8.5e-4 -7.67627,0.0213 -11.51437,-10e-4 -3.4149,-0.0424 -6.83689,-0.0816 -10.22213,-0.59145 -3.32753,-0.50667 -6.50829,-1.50225 -9.7744,-2.25841 -2.85809,0.0112 -5.71627,0.0245 -8.57437,0.0133 -2.88302,-0.0258 -5.78419,-0.0568 -8.63108,-0.56432 -3.03086,-0.62978 -5.85438,-1.76451 -8.62765,-3.1339 -3.4906,-1.21837 -6.31735,-3.38649 -8.65559,-6.25996 -2.72594,-2.66958 -5.30865,-5.5859 -7.26767,-8.86734 -1.84475,-2.9768 -3.15922,-6.26167 -4.30119,-9.56573 -1.45231,-3.10796 -2.33136,-6.34615 -3.08274,-9.70229 -0.75547,-3.62619 -0.28361,-7.36358 -0.34752,-11.05134 0.10491,-3.72318 0.199,-7.45874 1.02542,-11.10929 0.79791,-3.30291 2.04733,-6.50495 1.93421,-9.93896 0.28936,-2.98492 0.83496,-5.90087 1.88216,-8.72479 1.00336,-3.44582 1.38982,-6.89232 1.91601,-10.44467 0.85492,-3.51291 2.23134,-6.87844 1.78433,-10.57051 0.009,-3.42582 0.001,-6.85168 0.0227,-10.27748 2.6e-4,-3.45229 0.0331,-6.9059 -0.0837,-10.35684 -0.16967,-3.34983 -0.45406,-6.73175 -1.57074,-9.92051 -1.37903,-3.53693 -2.50138,-7.06371 -3.26785,-10.78827 -0.99159,-3.00452 -1.51069,-6.03513 -2.29993,-9.09638 -1.12596,-3.26812 -1.90843,-6.46785 -2.10564,-9.93588 -0.72969,-3.3969 -2.21924,-6.69319 -2.12005,-10.20549 -0.007,-3.47588 -0.008,-6.95176 -0.008,-10.42764 -0.007,-3.20526 -0.0121,-6.4105 -0.0205,-9.61576 0.005,-3.54807 -0.003,-7.09673 0.10899,-10.64355 0.1765,-4.01791 0.51997,-8.02638 1.42931,-11.95481 0.97352,-4.17409 1.75558,-8.2343 1.35343,-12.55721 -0.007,-3.91465 -0.006,-7.82931 -0.0221,-11.74393 -0.01,-3.09356 -0.0129,-6.18718 -0.008,-9.28075 0.007,-3.44015 0.008,-6.88529 0.30488,-10.31549 0.37516,-3.31548 0.9669,-6.56568 2.15631,-9.70134 0.74579,-3.12754 0.22174,-6.37257 0.54799,-9.56462 0.3175,-3.67352 0.88375,-7.30719 1.99945,-10.83429 1.26912,-3.97447 1.76041,-8.04363 2.85023,-12.07446 1.11395,-3.56114 1.7078,-7.20804 2.98479,-10.71395 1.39118,-3.73458 2.21896,-7.5987 3.87096,-11.24348 1.62395,-3.34437 2.85115,-6.85568 4.81747,-10.0228 2.0518,-3.45849 4.34335,-6.7626 5.85618,-10.50938 1.5536,-3.42166 3.2164,-6.79125 4.99454,-10.10391 1.52504,-3.84427 3.08966,-7.68475 4.86926,-11.41057 2.05149,-3.43868 3.50378,-7.21818 5.55844,-10.66226 2.6298,-3.84928 4.77417,-8.08103 7.44908,-11.91347 2.14364,-3.36033 3.83284,-6.97863 5.63665,-10.52577 1.65098,-2.75418 2.77959,-5.72631 4.40149,-8.49785 1.10025,-3.00856 2.68818,-5.8088 3.20783,-9.00406 0.97934,-3.08735 1.72559,-6.01523 1.37608,-9.2913 0.004,-2.8462 0.0304,-5.69231 0.0301,-8.53854 -0.027,-3.38268 -0.093,-6.77525 -0.62024,-10.1247 -0.92395,-5.71865 -2.39728,-11.33398 -4.35096,-16.7893 0,0 9.9116,-5.45875 9.9116,-5.45875 z" />
    <path
       style="fill:#000000;fill-opacity:1;fill-rule:nonzero;stroke:#000000;stroke-width:4.69999981;stroke-linecap:round;stroke-linejoin:round;stroke-miterlimit:4;stroke-opacity:1;stroke-dasharray:none;stroke-dashoffset:0"
       id="path2698"
       d="m 73.307818,318.59018 c 6.441141,-6.99467 14.536616,-14.04145 24.173311,-15.79997 4.060381,-0.47909 7.870831,1.35876 11.707571,2.44533 3.32872,1.1661 6.19822,0.34567 9.45613,-0.48417 3.36819,-1.83143 10.32575,-5.4774 -4.76751,2.83902 -0.58725,0.32357 1.1435,-0.7013 1.69901,-1.07676 0.60733,-0.41049 1.19209,-0.85342 1.78814,-1.28014 0.64296,-0.4317 1.28591,-0.8634 1.92887,-1.29511 6.52417,-4.67411 12.98082,-10.98634 21.10751,-12.33895 3.84464,0.0571 6.53923,2.51339 9.63743,4.39689 2.47726,1.23848 5.19523,1.4542 7.91181,1.59233 3.25811,0.0794 6.51808,0.0551 9.77687,0.0398 4.085,0.21243 7.97617,-0.0336 11.95108,-0.92622 3.98392,-1.12658 7.74102,-2.86746 11.75019,-3.96874 3.00254,-1.11497 5.77873,0.22231 8.70968,0.97415 2.99527,0.68999 6.05925,0.88633 9.12043,0.99795 2.9082,0.22483 5.90195,-0.36864 8.70569,0.50274 3.83584,2.51382 5.54587,3.65929 10.0296,2.18503 6.25926,-3.55502 -5.9439,3.37697 -6.29391,3.56017 -0.62742,0.32842 1.1598,-0.81376 1.7214,-1.24518 1.61466,-1.24035 3.08832,-2.6445 4.56558,-4.04108 6.07564,-4.80628 11.08067,-9.67308 19.02067,-7.93042 3.3094,1.17704 5.8186,-0.14137 8.76498,-1.58594 3.33618,-2.17054 6.08935,-1.46849 9.41129,0.13663 2.39822,1.33847 5.01081,2.1542 7.71369,2.55639 1.42621,0.22647 2.86632,0.21155 4.30476,0.20013 0.67626,-0.0128 1.35269,-0.0105 2.02904,-0.0147 0,0 -9.20912,6.70004 -9.20912,6.70004 l 0,0 c -0.67989,0.005 -1.35978,0.0162 -2.03968,0.0107 -1.47339,-0.017 -2.94267,-0.0865 -4.39344,-0.37012 -2.75402,-0.52658 -5.38803,-1.49483 -7.86181,-2.8225 -3.22849,-1.44542 -5.74502,-1.22425 -8.8156,0.66658 -3.08041,1.44034 -5.88802,2.09685 -9.21599,1.02126 -2.57151,-0.42215 -4.71152,0.17948 -4.4925,0.0275 14.94707,-10.36912 8.67141,-4.96442 5.2563,-2.90499 -5.66605,5.46147 -11.87145,10.18349 -19.45135,12.94059 -4.12681,0.93043 -6.86485,-0.58635 -10.38947,-2.64112 -2.82143,-0.49945 -5.72232,-0.0872 -8.57515,-0.31799 -3.11083,-0.15888 -6.2201,-0.43129 -9.2503,-1.1966 -2.87407,-0.7472 -5.4353,-1.68144 -8.34742,-0.49517 -3.97628,1.16767 -7.72609,2.9917 -11.77523,3.89493 -4.01525,0.82378 -8.01699,0.84159 -12.10858,0.74989 -3.28093,0.008 -6.56467,0.0699 -9.84324,-0.0857 -2.85657,-0.2174 -5.68398,-0.61506 -8.21938,-2.0557 -2.88875,-1.81195 -5.45501,-4.07658 -9.1136,-3.70389 -4.63576,1.24674 -3.68768,1.18781 5.88527,-4.26922 3.65778,-2.08511 -10.5812,7.14808 -7.44297,5.6519 -6.57623,4.14909 -12.80041,9.09958 -20.18647,11.8093 -3.35593,0.83875 -6.46351,1.16373 -9.814231,0.003 -3.710129,-1.09817 -7.401148,-2.78838 -11.345036,-2.00908 -4.97309,1.3063 -3.023881,1.02989 5.063956,-3.9592 0.895294,-0.55227 -1.814451,1.07097 -2.666319,1.68812 -2.090855,1.51477 -3.136968,2.63935 -4.946363,4.47812 -0.748473,0.76063 -1.480935,1.53684 -2.221403,2.30526 0,0 -10.404186,4.44506 -10.404186,4.44506 z" />
    <path
       style="fill:#000000;fill-opacity:1;fill-rule:nonzero;stroke:#000000;stroke-width:4.69999981;stroke-linecap:round;stroke-linejoin:round;stroke-miterlimit:4;stroke-opacity:1;stroke-dasharray:none;stroke-dashoffset:0"
       id="path2700"
       d="m 503.87521,287.01203 c 5.8381,2.30601 11.9772,2.2626 17.89807,0.41991 0.78929,-0.31236 1.60139,-0.57231 2.36787,-0.93708 0.76389,-0.36355 1.46965,-0.83863 2.21278,-1.24293 9.37591,-5.10101 -13.46086,8.9581 -2.20866,0.57201 11.68206,-7.13573 10.83979,-8.94967 19.85308,-3.2874 3.20719,3.21235 6.65127,4.48899 10.76834,2.16182 6.52217,-3.75457 -8.8854,5.00772 -6.64525,3.78955 37.10079,-20.17499 -18.95731,9.68689 16.28853,-8.59343 3.54423,0.79377 6.91978,2.0965 10.50951,2.72924 3.96754,0.80541 7.79857,2.14066 11.80822,2.85545 3.84493,0.73062 7.42316,0.73722 11.18112,-0.21442 3.77665,-1.13357 6.37616,-3.65651 10.46206,-2.57989 3.35106,1.21455 6.62377,2.96255 10.26365,2.615 3.57525,-1.03448 6.62234,-2.39061 10.43939,-2.43525 3.05659,0.10702 6.10919,0.28481 9.16691,0.36476 3.19223,0.0738 6.38542,0.0771 9.57831,0.0855 3.67716,0.0146 7.35434,0.003 11.03151,0.003 3.69375,0.002 7.3875,-0.001 11.08125,4e-5 4.02771,-0.0343 7.96097,0.60839 11.60333,-1.34548 -8.64632,4.63196 -10.27479,6.49841 -6.78422,3.03221 0,0 10.45295,-4.36985 10.45295,-4.36985 l 0,0 c -4.16786,4.77294 -0.71992,1.1147 -12.53958,8.37843 -3.83367,1.44881 -7.86216,0.89447 -11.89996,0.96532 -3.695,0.002 -7.39,-0.001 -11.085,0.003 -3.68046,0.002 -7.36092,-0.005 -11.04138,6.5e-4 -3.19642,-0.007 -6.39319,-0.028 -9.58862,-0.11288 -3.04555,-0.0865 -6.08708,-0.30429 -9.1343,-0.30245 -3.70351,0.21243 -6.78573,2.0173 -10.43494,2.41865 -3.68023,-0.14695 -6.94943,-1.67527 -10.4055,-2.8097 -3.77265,-0.40014 -6.55232,2.27385 -10.17356,2.95718 -3.83063,0.8345 -7.60374,0.51808 -11.45472,-0.17092 -3.98516,-0.79062 -7.82243,-2.12365 -11.81202,-2.85341 -3.42629,-0.68923 -6.72314,-2.17772 -10.21323,-2.30622 2.69605,-1.67284 10.96227,-6.3626 8.08816,-5.01852 -3.93721,1.84125 -7.52112,4.35899 -11.29368,6.51759 -0.56701,0.32443 -2.28428,1.26787 -1.72446,0.93117 18.28601,-10.99809 1.91275,-0.72504 -4.6037,2.50914 -4.52716,1.57331 -8.01801,0.15854 -11.40424,-3.07568 -1.47565,-0.9254 -3.02515,-2.20221 -4.76693,-2.595 -3.81177,-0.8596 -10.62098,5.01753 4.96272,-4.40999 -6.91313,4.76617 -13.86606,9.81059 -21.84459,12.64775 -6.14654,1.55231 -12.34839,1.36274 -18.32276,-0.94357 0,0 9.36354,-6.35307 9.36354,-6.35307 z" />
    <path
       style="fill:#000000;fill-opacity:1;fill-rule:nonzero;stroke:#000000;stroke-width:4.69999981;stroke-linecap:round;stroke-linejoin:round;stroke-miterlimit:4;stroke-opacity:1;stroke-dasharray:none;stroke-dashoffset:0"
       id="path2702"
       d="m 178.39319,583.32595 c 4.85269,-0.61247 9.87318,-1.55701 14.40882,-3.47737 1.11159,-0.47064 4.26777,-2.25606 3.22197,-1.65321 -2.19016,1.2625 -4.43799,2.4222 -6.65699,3.6333 5.23925,-3.99218 8.67005,-9.3606 10.4121,-15.63881 1.03155,-3.92336 0.54148,-7.20307 -3.21062,-9.09554 -4.32716,-0.21668 -8.60751,2.71925 -12.28629,4.78877 14.81619,-9.33887 2.57764,-0.2847 -0.24456,4.05489 -2.04472,3.43576 -1.40938,6.77656 -0.67374,10.46083 1.20478,5.20472 2.43713,10.44086 3.8744,15.59295 1.1359,5.29752 3.43118,10.20529 4.85138,15.41497 1.22851,5.50305 1.53572,10.98281 0.72961,16.54684 -1.16831,5.25489 -3.60865,10.02263 -6.91934,14.22795 -6.1671,6.63418 -14.14798,10.15619 -22.02133,14.53436 -5.27097,1.71851 -8.24727,-0.92803 -10.32082,-5.49883 0,0 9.86108,-5.55906 9.86108,-5.55906 l 0,0 c 2.048,4.64216 4.28233,5.85989 9.28193,4.01479 -16.27341,9.77786 -0.0363,0.6402 2.81085,-3.06553 3.38883,-3.99593 5.86072,-8.58195 7.1771,-13.68274 0.86182,-5.42218 0.68383,-10.74099 -0.52593,-16.12658 -1.38494,-5.21695 -3.69682,-10.11594 -4.82653,-15.41176 -1.48246,-5.1631 -2.67172,-10.43986 -3.94938,-15.64954 -0.80393,-3.89758 -1.62669,-7.4606 0.28035,-11.22273 4.47465,-7.50148 11.75676,-11.55528 19.39375,-15.70904 3.90807,-2.09712 8.41608,-5.22311 13.00019,-3.89557 3.92428,2.37431 5.0273,5.96492 3.9006,10.4163 -1.6022,6.49979 -4.93524,12.07744 -10.11759,16.42353 -9.91163,5.86488 -18.83146,11.73996 -30.59556,12.22073 0,0 9.14455,-6.6439 9.14455,-6.6439 z" />
    <path
       style="fill:#000000;fill-opacity:1;fill-rule:nonzero;stroke:#000000;stroke-width:4.69999981;stroke-linecap:round;stroke-linejoin:round;stroke-miterlimit:4;stroke-opacity:1;stroke-dasharray:none;stroke-dashoffset:0"
       id="path2706"
       d="m 226.46601,624.94782 c 5.01749,-1.96779 10.36737,-3.46909 15.5247,-1.3413 2.67762,2.07008 3.00116,5.0982 3.15836,8.25008 0.36462,3.87232 -0.6914,7.55141 -2.02838,11.13968 -1.42647,3.92836 -4.44418,6.86506 -7.04672,10.02959 -1.57331,2.19131 2.79194,1.67044 3.97038,1.72913 3.73781,0.84678 7.39552,1.80076 10.35323,4.32982 1.7919,2.24987 2.80336,4.85272 3.18618,7.67278 0.0271,0.29863 0.0542,0.59726 0.0813,0.89589 0,0 -10.1031,5.24318 -10.1031,5.24318 l 0,0 c -0.0165,-0.28486 -0.0331,-0.56971 -0.0496,-0.85457 -0.26465,-2.54731 -1.06812,-4.92987 -2.72501,-6.93823 -2.86816,-2.24945 -6.41036,-3.13044 -9.95484,-3.74729 -2.27296,-0.182 -6.57613,-0.52057 -5.19658,-3.88944 2.57464,-3.11442 5.62856,-5.94771 7.21642,-9.71554 1.41979,-3.40543 2.50626,-6.97574 2.21603,-10.70228 -0.10185,-2.64513 -0.0823,-5.466 -2.48972,-7.11215 -5.02356,-1.71748 -10.24777,0.0843 -14.9435,2.07451 0,0 8.83086,-7.06386 8.83086,-7.06386 z" />
    <path
       style="fill:#000000;fill-opacity:1;fill-rule:nonzero;stroke:#000000;stroke-width:4.69999981;stroke-linecap:round;stroke-linejoin:round;stroke-miterlimit:4;stroke-opacity:1;stroke-dasharray:none;stroke-dashoffset:0"
       id="path2708"
       d="m 306.22283,454.02593 c 3.78274,3.55964 5.48103,9.03326 9.54456,12.24865 3.85278,-0.10395 10.37696,-4.15314 -6.40679,4.31208 -0.44689,0.2254 0.79824,-0.60452 1.18444,-0.92289 1.69864,-1.40028 1.32129,-1.10979 2.86721,-2.79092 4.47026,-4.5705 11.59701,-12.28893 17.9651,-7.95566 1.39892,1.26354 3.28094,2.17029 5.14732,1.35981 0.55165,-0.23956 2.09224,-1.18742 1.56885,-0.89113 -2.70861,1.53334 -5.41636,3.0682 -8.12453,4.60229 6.34207,-3.79541 13.33065,-10.72469 20.29276,-5.26629 1.37849,0.66146 2.29767,2.2929 3.67449,2.93619 0.94377,0.44095 2.64535,0.0737 3.69721,0.27537 2.82628,0.63482 4.54832,3.16325 6.22364,5.33524 1.51763,1.97335 3.10036,4.78965 5.68401,2.86283 -16.77144,11.84086 -5.90859,2.17854 -2.22571,-0.9635 9.70851,-6.83651 10.87691,-9.03233 19.19195,-5.0395 0.86856,0.54224 1.95226,0.96733 2.96592,0.42268 0.31795,-0.17084 1.11616,-0.90267 0.79844,-0.73142 -5.27745,2.84461 -11.85527,6.97163 -7.472,4.23414 10.03753,-6.11777 9.48662,-7.59806 17.99766,-5.65232 3.28017,0.82232 5.83267,-1.49633 8.68722,-2.70287 -20.37761,12.10035 3.11992,-3.34243 6.62578,-3.14987 1.12337,0.0617 2.65921,0.70156 3.70213,1.08017 1.69747,0.75165 3.38834,1.60367 4.80923,2.81579 0,0 -9.67368,6.05234 -9.67368,6.05234 l 0,0 c -1.34863,-1.08192 -2.90791,-1.87311 -4.51268,-2.50038 -1.19577,-0.34971 -2.06752,-0.73749 -3.35081,-0.58211 -0.5351,0.0648 -1.99345,0.78516 -1.53958,0.49443 2.63786,-1.6897 5.42338,-3.13697 8.12923,-4.71548 0.57128,-0.33327 -1.15027,0.65312 -1.7254,0.97968 -3.78038,2.18874 -7.56075,4.37749 -11.34113,6.56623 -2.97919,1.42075 -5.70916,3.16927 -9.14199,2.1335 -1.29016,-0.2813 -2.70119,-0.71813 -4.0359,-0.67384 -3.58294,0.11888 -11.17867,6.45498 5.959,-4.25956 -4.89742,3.1412 -10.47248,9.5674 -16.34526,6.44779 -1.31244,-0.60539 -2.79816,-1.46971 -4.2878,-1.51164 -0.51557,-0.0145 -1.95278,0.49554 -1.53527,0.19271 2.79537,-2.02756 12.26825,-7.32433 6.59937,-4.13775 -5.88354,4.74573 -8.8531,9.70128 -17.19435,12.24612 -3.15528,0.61463 -4.82028,-1.76207 -6.51263,-4.10118 -1.55835,-1.97992 -3.07971,-4.22682 -5.76617,-4.60497 -3.2493,-0.3468 -5.27358,-1.33559 -7.66358,-3.67815 -6.08582,-4.14238 -14.93115,4.14725 -0.14285,-4.88334 -5.9618,3.43481 -12.26903,10.33119 -18.69775,5.15937 -0.4148,-0.22715 -0.80144,-0.51575 -1.24438,-0.68144 -0.34196,-0.12792 -1.37239,0.0297 -1.07909,-0.18775 16.04637,-11.8952 7.51236,-4.80465 4.31575,-1.73664 -4.02204,5.0103 -11.10672,11.91493 -17.68954,9.81681 -3.91122,-3.52935 -5.82519,-8.76752 -9.63396,-12.4492 0,0 9.71156,-5.80442 9.71156,-5.80442 z" />
    <path
       style="fill:#000000;fill-opacity:1;fill-rule:nonzero;stroke:#000000;stroke-width:4.69999981;stroke-linecap:round;stroke-linejoin:round;stroke-miterlimit:4;stroke-opacity:1;stroke-dasharray:none;stroke-dashoffset:0"
       id="path2710"
       d="m 356.16496,512.8759 c 3.31267,-4.1426 7.25287,-8.32689 6.84523,-13.93775 -1.53574,-3.77319 -4.26527,-2.33872 -7.07127,-0.93904 15.37823,-9.49823 4.32837,-2.00352 0.59657,3.16939 -2.00174,3.08266 -3.83889,6.13639 -4.88321,9.67338 -1.10118,3.20905 -0.16029,6.07498 0.73019,9.17728 0.74905,2.98574 2.27753,5.67725 3.18709,8.62914 1.03968,3.64747 0.76395,7.08039 -0.61695,10.5723 -4.30166,5.72907 -11.51109,9.44671 -18.56043,10.62947 -3.7966,-0.43537 -6.23251,-2.8241 -8.07617,-5.99761 -0.91768,-2.45919 -0.52378,-1.24113 -1.19671,-3.64931 0,0 9.96027,-5.41119 9.96027,-5.41119 l 0,0 c 0.59189,2.26473 0.24355,1.1341 1.05206,3.38972 1.62537,2.79575 3.86672,4.99507 7.31719,4.81927 1.18314,-0.2622 1.672,-0.32577 2.83311,-0.77888 0.48576,-0.18956 1.86436,-0.92836 1.4213,-0.65342 -15.44887,9.58666 -7.71569,5.15051 -5.05023,2.3656 1.60662,-3.18056 1.87239,-6.38324 0.95536,-9.83781 -0.87421,-2.97447 -2.42985,-5.65754 -3.19282,-8.64523 -0.92338,-3.26328 -2.0554,-6.3416 -1.00305,-9.74144 0.98985,-3.67971 2.65066,-6.83837 4.75079,-10.01486 4.55576,-7.09041 11.06817,-10.80708 18.6446,-14.74558 3.61731,-1.54559 6.63335,-1.24955 8.25272,2.75119 0.64835,5.94067 -2.85107,10.33364 -6.49145,14.73031 0,0 -10.40419,4.44507 -10.40419,4.44507 z" />
    <path
       style="fill:#000000;fill-opacity:1;fill-rule:nonzero;stroke:#000000;stroke-width:4.69999981;stroke-linecap:round;stroke-linejoin:round;stroke-miterlimit:4;stroke-opacity:1;stroke-dasharray:none;stroke-dashoffset:0"
       id="path2712"
       d="m 382.1785,535.04588 c 0.0773,7.20579 -1.17264,14.33852 -2.04962,21.47055 -0.0864,0.77018 -0.17276,1.54037 -0.25914,2.31056 0,0 -10.13245,5.01639 -10.13245,5.01639 l 0,0 c 0.0928,-0.77682 0.18569,-1.55364 0.27854,-2.33047 0.88798,-7.08483 2.2794,-14.17146 2.09138,-21.33545 0,0 10.07129,-5.13158 10.07129,-5.13158 z" />
    <path
       style="fill:#000000;fill-opacity:1;fill-rule:nonzero;stroke:#000000;stroke-width:4.69999981;stroke-linecap:round;stroke-linejoin:round;stroke-miterlimit:4;stroke-opacity:1;stroke-dasharray:none;stroke-dashoffset:0"
       id="path2714"
       d="m 429.82176,460.4688 c 6.08185,0.034 12.16385,0.0163 18.24573,-0.003 2.77963,-0.28095 5.2727,0.96008 7.82005,1.86669 0,0 -9.41634,6.35862 -9.41634,6.35862 l 0,0 c -2.46526,-0.88788 -4.86617,-1.86798 -7.55659,-1.57536 -6.0791,-0.0195 -12.15832,-0.0369 -18.23739,-0.003 0,0 9.14454,-6.6439 9.14454,-6.6439 z" />
    <path
       style="fill:#000000;fill-opacity:1;fill-rule:nonzero;stroke:#000000;stroke-width:4.69999981;stroke-linecap:round;stroke-linejoin:round;stroke-miterlimit:4;stroke-opacity:1;stroke-dasharray:none;stroke-dashoffset:0"
       id="path2716"
       d="m 489.82176,454.75452 c 5.96481,0.0272 11.92977,0.0155 17.8946,-0.002 1.36159,-0.004 2.72317,-0.0119 4.08474,-0.0205 0,0 -9.20603,6.68857 -9.20603,6.68857 l 0,0 c -1.34275,-0.009 -2.68552,-0.0161 -4.02829,-0.0205 -5.96315,-0.0175 -11.92644,-0.0289 -17.88956,-0.002 0,0 9.14454,-6.6439 9.14454,-6.6439 z" />
    <path
       style="fill:#000000;fill-opacity:1;fill-rule:nonzero;stroke:#000000;stroke-width:4.69999981;stroke-linecap:round;stroke-linejoin:round;stroke-miterlimit:4;stroke-opacity:1;stroke-dasharray:none;stroke-dashoffset:0"
       id="path2718"
       d="m 538.34508,457.20574 c 1.09436,-0.15245 2.18872,-0.3049 3.28308,-0.45734 0,0 -9.00979,6.74337 -9.00979,6.74337 l 0,0 c -1.1072,0.16206 -2.21441,0.32413 -3.32162,0.48619 0,0 9.04833,-6.77222 9.04833,-6.77222 z" />
    <path
       style="fill:#000000;fill-opacity:1;fill-rule:nonzero;stroke:#000000;stroke-width:4.69999981;stroke-linecap:round;stroke-linejoin:round;stroke-miterlimit:4;stroke-opacity:1;stroke-dasharray:none;stroke-dashoffset:0"
       id="path2720"
       d="m 575.5822,455.16186 c 4.40227,0.65127 2.18771,0.32885 6.64372,0.96688 0,0 -9.19492,6.48318 -9.19492,6.48318 l 0,0 c -4.47026,-0.63715 -2.24169,-0.32478 -6.68565,-0.93732 0,0 9.23685,-6.51274 9.23685,-6.51274 z" />
    <path
       style="fill:#000000;fill-opacity:1;fill-rule:nonzero;stroke:#000000;stroke-width:4.69999981;stroke-linecap:round;stroke-linejoin:round;stroke-miterlimit:4;stroke-opacity:1;stroke-dasharray:none;stroke-dashoffset:0"
       id="path2722"
       d="m 612.6308,454.34859 c 6.46858,-0.8175 12.66488,-2.96359 19.03618,-4.29273 2.38157,-0.52747 4.81244,-0.76211 7.238,-0.97393 0,0 -9.12732,6.75952 -9.12732,6.75952 l 0,0 c -2.38396,0.22845 -4.76428,0.51618 -7.10406,1.04323 -6.36647,1.4021 -12.60722,3.42266 -19.09114,4.23614 0,0 9.04834,-6.77223 9.04834,-6.77223 z" />
    <path
       style="fill:#000000;fill-opacity:1;fill-rule:nonzero;stroke:#000000;stroke-width:4.69999981;stroke-linecap:round;stroke-linejoin:round;stroke-miterlimit:4;stroke-opacity:1;stroke-dasharray:none;stroke-dashoffset:0"
       id="path2724"
       d="m 493.93209,493.05375 c 6.06387,-3.80384 12.13322,-7.62215 18.0493,-11.65682 3.97253,8.11154 8.85528,-8.24283 13.96837,-7.21051 1.25869,0.25413 1.54243,1.9025 1.81331,2.8901 1.28978,3.03399 2.05711,6.18818 2.52861,9.44297 0.34937,2.46189 0.44855,4.94621 0.51041,7.42873 0.004,0.19314 0.007,0.38628 0.0108,0.57941 0.005,0.0219 0.0109,0.0437 0.0163,0.0656 0,0 -10.18706,5.17323 -10.18706,5.17323 l 0,0 c 0.006,-0.0192 0.012,-0.0385 0.018,-0.0577 10e-4,-0.1919 0.002,-0.3838 0.003,-0.5757 -0.0119,-2.44758 -0.0937,-4.89687 -0.3988,-7.32793 -0.43389,-3.22304 -1.15259,-6.34843 -2.50759,-9.32148 -6.5e-4,-0.003 -0.20448,-1.25687 -0.4093,-1.40812 -0.5775,-0.42651 -2.245,0.88658 -2.68619,0.84722 2.60623,-1.54966 5.21247,-3.09932 7.8187,-4.64897 -5.89598,4.05504 -11.95941,7.87908 -18.02568,11.66271 0,0 -10.52269,4.11724 -10.52269,4.11724 z" />
    <path
       style="fill:#000000;fill-opacity:1;fill-rule:nonzero;stroke:#000000;stroke-width:4.69999981;stroke-linecap:round;stroke-linejoin:round;stroke-miterlimit:4;stroke-opacity:1;stroke-dasharray:none;stroke-dashoffset:0"
       id="path2726"
       d="m 522.1785,483.61731 c -0.074,7.07855 0.30083,14.12787 -0.78537,21.14146 -0.85622,4.40751 -1.52223,8.83483 -1.85816,13.31202 -0.7488,3.21017 -1.71987,6.36214 -2.48444,9.57222 -0.17132,0.72382 -0.33046,1.45038 -0.48451,2.17803 0,0 -10.27712,4.98103 -10.27712,4.98103 l 0,0 c 0.15449,-0.75016 0.33142,-1.49542 0.51283,-2.23955 0.77607,-3.16606 1.58117,-6.32401 2.60437,-9.42076 0.30177,-4.51957 0.94821,-8.98943 1.85943,-13.42729 1.19127,-6.94788 0.92577,-13.93282 0.84168,-20.96558 0,0 10.07129,-5.13158 10.07129,-5.13158 z" />
    <path
       style="fill:#000000;fill-opacity:1;fill-rule:nonzero;stroke:#000000;stroke-width:4.69999981;stroke-linecap:round;stroke-linejoin:round;stroke-miterlimit:4;stroke-opacity:1;stroke-dasharray:none;stroke-dashoffset:0"
       id="path2728"
       d="m 508.49647,523.11196 c 2.03232,5.75645 3.93133,11.65261 7.20352,16.84177 2.05724,3.16999 2.95421,3.57381 6.22537,1.59246 -2.78865,1.58154 -11.12586,6.37584 -8.36595,4.74464 20.32672,-12.01382 10.28408,-5.56158 2.91471,-1.81797 -0.45952,0.23344 0.80091,-0.64968 1.18389,-0.99461 0.94388,-0.85012 1.56044,-1.51298 2.43991,-2.41746 1.31048,-1.51605 2.231,-3.29696 3.00349,-5.13147 0,0 10.33961,-4.78069 10.33961,-4.78069 l 0,0 c -0.74662,1.95165 -1.68281,3.82807 -2.87475,5.5497 -4.71347,4.99326 -7.42791,5.48685 -14.63217,10.28363 -0.91897,0.61187 28.22066,-16.5668 -2.8787,1.63805 -3.43272,1.28465 -5.3507,0.12236 -7.13026,-2.98082 -3.24697,-5.30649 -5.17933,-11.26148 -7.34027,-17.06848 0,0 9.9116,-5.45875 9.9116,-5.45875 z" />
    <path
       style="fill:#000000;fill-opacity:1;fill-rule:nonzero;stroke:#000000;stroke-width:4.69999981;stroke-linecap:round;stroke-linejoin:round;stroke-miterlimit:4;stroke-opacity:1;stroke-dasharray:none;stroke-dashoffset:0"
       id="path2730"
       d="m 568.19708,480.68927 c 0.6147,7.37874 1.98021,14.60892 3.44935,21.85134 1.21957,5.0863 1.62863,10.28817 1.87686,15.49506 0.56507,4.154 -0.52726,8.04142 -1.53744,12.01157 -0.12382,0.61701 -0.25083,1.23338 -0.37144,1.85103 -0.11496,0.58864 -0.60854,1.34021 -0.2086,1.78715 2.26859,2.53517 -6.10995,3.01534 -9.28555,4.23563 -0.44833,0.17228 0.53498,-0.79782 0.80246,-1.19673 1.85932,-3.05345 3.51102,-6.1997 5.5586,-9.14217 2.68108,-3.43639 6.01752,-6.33589 9.27362,-9.22088 8.12768,-5.67104 12.82658,-9.95757 18.21594,-1.85052 2.04034,3.19627 2.69038,6.94986 3.21661,10.63914 0.20229,1.41871 0.21706,2.8554 0.22673,4.28583 0,0 -10.15788,5.16862 -10.15788,5.16862 l 0,0 c 0.025,-1.38872 0.0287,-2.78243 -0.12453,-4.16483 -0.42081,-3.53626 -0.98242,-7.13796 -2.9255,-10.20109 -0.86216,-1.263 -1.79585,-2.88043 -3.37782,-3.38339 -0.87714,-0.27887 -3.5207,0.63842 -2.75848,0.12251 2.62553,-1.77711 5.44889,-3.2428 8.17334,-4.8642 -3.32924,2.73623 -6.49927,5.76126 -9.37114,8.95848 -2.09953,2.90148 -3.84709,5.96916 -5.54801,9.10148 -3.81068,5.75016 -14.62641,11.98812 -11.55988,2.7726 0.94377,-3.89864 2.31187,-7.64116 1.70439,-11.7328 -0.19619,-5.16155 -0.5904,-10.31675 -1.74174,-15.3677 -1.44813,-7.26186 -2.82286,-14.49977 -3.52623,-21.88276 0,0 9.99634,-5.27337 9.99634,-5.27337 z" />
    <path
       style="fill:#000000;fill-opacity:1;fill-rule:nonzero;stroke:#000000;stroke-width:4.69999981;stroke-linecap:round;stroke-linejoin:round;stroke-miterlimit:4;stroke-opacity:1;stroke-dasharray:none;stroke-dashoffset:0"
       id="path2732"
       d="m 622.78218,548.82625 c 1.12092,5.29853 2.11583,10.84577 -0.2682,15.90909 -4.45858,5.71947 -11.32969,8.12585 -18.12088,8.24586 -3.42271,-0.64226 -5.47984,-2.58172 -5.77552,-6.05594 0.25086,-3.89327 1.99074,-7.44583 3.62194,-10.92406 4.50901,-7.42857 11.83985,-10.29986 19.32008,-14.46058 3.44572,-1.44449 5.85537,1.21688 7.55596,3.92506 1.4878,3.29825 1.73294,6.75835 0.92648,10.24082 -1.3489,6.57561 -6.33376,9.56239 -13.58058,11.19728 -1.94092,-0.41355 -0.99526,-0.16495 -2.83886,-0.73866 0,0 9.35892,-6.4346 9.35892,-6.4346 l 0,0 c 1.65534,0.35958 0.82926,0.29081 2.47677,0.22342 4.13374,-1.60638 1.87642,-0.79881 -7.62291,4.85774 -0.25149,0.14976 0.53379,-0.28592 0.70528,-0.52313 0.7359,-1.01795 0.68151,-2.60527 1.27567,-3.68448 0.87046,-3.20935 0.87174,-6.31036 -0.51197,-9.42575 -1.61772,-2.5809 -3.59323,-4.13805 -6.61956,-2.59377 16.82494,-10.09575 2.51303,-2.12615 -0.14494,2.73999 -1.6509,3.31054 -3.28124,6.73497 -3.82465,10.42132 -0.14705,2.97111 2.0441,4.31756 4.83037,4.53447 1.44088,-0.0804 2.85847,-0.15272 4.25354,-0.56084 0.48147,-0.14085 1.83923,-0.77254 1.42102,-0.49552 -16.62887,11.01512 -9.62925,6.01494 -7.0534,4.1578 2.82234,-4.63598 1.78409,-10.03005 0.70385,-15.09678 0,0 9.91159,-5.45874 9.91159,-5.45874 z" />
    <path
       style="fill:#000000;fill-opacity:1;fill-rule:nonzero;stroke:#000000;stroke-width:4.69999981;stroke-linecap:round;stroke-linejoin:round;stroke-miterlimit:4;stroke-opacity:1;stroke-dasharray:none;stroke-dashoffset:0"
       id="path2734"
       d="m 539.01493,295.11787 c -1.29349,10.13494 -1.90296,20.32494 -3.09185,30.47289 -1.27692,11.60375 -3.14205,23.1383 -5.07326,34.64936 -1.89987,9.95594 -2.03732,20.1083 -3.15433,30.14747 -1.05476,7.15781 -1.92495,14.3325 -2.37622,21.55404 -0.15847,5.77537 -0.63825,11.58996 -0.007,17.34535 0.74234,4.46137 1.67786,8.88142 2.2391,13.37156 0.16403,1.3748 0.29988,2.75278 0.40234,4.13349 -9.22433,5.22763 -9.13666,7.73237 -11.80095,2.54299 0,0 9.87848,-5.63291 9.87848,-5.63291 l 0,0 c 2.52031,5.01884 1.64213,2.80924 -8.23201,8.3112 -0.0264,-1.36638 -0.15651,-2.72831 -0.29041,-4.08781 -0.50367,-4.50431 -1.40803,-8.93758 -2.18451,-13.40011 -0.73768,-5.80888 -0.21329,-11.69219 -0.0733,-17.53136 0.44055,-7.25221 1.30187,-14.45815 2.41153,-21.63867 1.2041,-10.05788 1.29051,-20.24658 3.19447,-30.23086 1.92646,-11.49555 3.82306,-23.00929 5.09323,-34.59778 1.1861,-10.12713 1.85455,-20.28219 2.92308,-30.42125 0,0 10.14195,-4.9876 10.14195,-4.9876 z" />
    <path
       style="fill:#000000;fill-opacity:1;fill-rule:nonzero;stroke:#000000;stroke-width:4.69999981;stroke-linecap:round;stroke-linejoin:round;stroke-miterlimit:4;stroke-opacity:1;stroke-dasharray:none;stroke-dashoffset:0"
       id="path2736"
       d="m 511.65316,414.47219 c 2.93824,6.38471 6.17005,12.63853 9.44365,18.86036 1.88658,2.96212 3.13982,6.97957 6.00513,9.19257 3.68005,-0.6696 12.14663,-4.04985 -4.92295,3.39783 -0.66154,0.28863 1.03381,-1.00818 1.52717,-1.535 0.59833,-0.63889 1.16444,-1.30722 1.74666,-1.96083 3.3349,-4.83503 7.26251,-9.21243 10.6316,-14.02028 2.77029,-3.54629 5.22727,-7.31635 7.89714,-10.937 0.37994,-0.58144 0.61939,-1.09561 0.58082,-1.7779 0,0 10.06326,-5.36081 10.06326,-5.36081 l 0,0 c 0.24213,0.96073 0.22139,1.71397 -0.22784,2.64728 -2.72143,3.60051 -5.15454,7.40191 -7.97845,10.92114 -3.27691,4.90841 -7.36533,9.17252 -10.56364,14.13779 -4.52162,5.25087 -11.13578,12.35994 -18.39914,10.50403 -2.79041,-2.57047 -4.28698,-6.38104 -6.14257,-9.61493 -3.24703,-6.24451 -6.4204,-12.52642 -9.48801,-18.85882 0,0 9.82717,-5.59543 9.82717,-5.59543 z" />
    <path
       style="fill:#000000;fill-opacity:1;fill-rule:nonzero;stroke:#000000;stroke-width:4.69999981;stroke-linecap:round;stroke-linejoin:round;stroke-miterlimit:4;stroke-opacity:1;stroke-dasharray:none;stroke-dashoffset:0"
       id="path2738"
       d="m 612.69767,360.65348 c -4.33881,8.08438 -9.86198,15.4423 -14.85378,23.1206 -3.75741,5.8628 -8.09225,11.34025 -12.38288,16.82024 -0.90685,1.15468 -1.82082,2.30373 -2.74071,3.44804 0,0 -10.48906,4.46394 -10.48906,4.46394 l 0,0 c 0.96156,-1.14117 1.90171,-2.30013 2.83573,-3.46391 4.35117,-5.45579 8.71519,-10.93778 12.54131,-16.77313 4.9267,-7.65086 10.45939,-14.93121 14.78632,-22.95435 0,0 10.30307,-4.66143 10.30307,-4.66143 z" />
    <path
       style="fill:#000000;fill-opacity:1;fill-rule:nonzero;stroke:#000000;stroke-width:4.69999981;stroke-linecap:round;stroke-linejoin:round;stroke-miterlimit:4;stroke-opacity:1;stroke-dasharray:none;stroke-dashoffset:0"
       id="path2740"
       d="m 589.07998,354.02593 c 5.91315,6.51465 9.74401,14.25972 13.1986,22.24578 2.66163,7.75156 5.22463,15.57691 6.98383,23.59116 0.88231,4.45318 1.30998,8.97288 1.53501,13.50133 0.0107,0.28953 0.0215,0.57906 0.0322,0.86859 0,0 -10.13068,5.19112 -10.13068,5.19112 l 0,0 c -0.002,-0.28723 -0.005,-0.57446 -0.007,-0.86169 -0.12025,-4.48674 -0.51003,-8.96564 -1.34069,-13.38124 -1.6832,-7.9632 -4.20687,-15.73229 -6.82527,-23.42793 -3.4099,-7.90279 -7.17068,-15.58461 -13.15711,-21.9227 0,0 9.71156,-5.80442 9.71156,-5.80442 z" />
  </g>
</svg>
