<?xml version="1.0" encoding="UTF-8" standalone="no"?>
<!-- Created with Inkscape (http://www.inkscape.org/) -->
<svg
   xmlns:dc="http://purl.org/dc/elements/1.1/"
   xmlns:cc="http://creativecommons.org/ns#"
   xmlns:rdf="http://www.w3.org/1999/02/22-rdf-syntax-ns#"
   xmlns:svg="http://www.w3.org/2000/svg"
   xmlns="http://www.w3.org/2000/svg"
   xmlns:sodipodi="http://sodipodi.sourceforge.net/DTD/sodipodi-0.dtd"
   xmlns:inkscape="http://www.inkscape.org/namespaces/inkscape"
   width="882.68158"
   height="857.92279"
   id="svg2"
   sodipodi:version="0.32"
   inkscape:version="0.46+devel"
   sodipodi:docname="c39d1.svg"
   inkscape:output_extension="org.inkscape.output.svg.inkscape"
   version="1.0">
  <defs
     id="defs4">
    <inkscape:perspective
       sodipodi:type="inkscape:persp3d"
       inkscape:vp_x="0 : 526.18109 : 1"
       inkscape:vp_y="0 : 1000 : 0"
       inkscape:vp_z="744.09448 : 526.18109 : 1"
       inkscape:persp3d-origin="372.04724 : 350.78739 : 1"
       id="perspective10" />
  </defs>
  <sodipodi:namedview
     id="base"
     pagecolor="#ffffff"
     bordercolor="#666666"
     borderopacity="1.0"
     inkscape:pageopacity="0.0"
     inkscape:pageshadow="2"
     inkscape:zoom="0.35"
     inkscape:cx="579.88721"
     inkscape:cy="340.00673"
     inkscape:document-units="px"
     inkscape:current-layer="layer1"
     showgrid="false"
     inkscape:window-width="1280"
     inkscape:window-height="712"
     inkscape:window-x="-5"
     inkscape:window-y="-3" />
  <metadata
     id="metadata7">
    <rdf:RDF>
      <cc:Work
         rdf:about="">
        <dc:format>image/svg+xml</dc:format>
        <dc:type
           rdf:resource="http://purl.org/dc/dcmitype/StillImage" />
        <dc:title></dc:title>
      </cc:Work>
    </rdf:RDF>
  </metadata>
  <g
     inkscape:label="Layer 1"
     inkscape:groupmode="layer"
     id="layer1"
     transform="translate(204.88721,-14.446118)">
    <path
       style="fill:#000000;fill-opacity:1;fill-rule:nonzero;stroke:#000000;stroke-width:4.69999981;stroke-linecap:round;stroke-linejoin:round;stroke-miterlimit:4;stroke-opacity:1;stroke-dasharray:none;stroke-dashoffset:0"
       id="path2696"
       d="m -27.00927,572.33093 c -5.26399,16.59086 -6.948982,34.00139 -9.050541,51.1959 -2.40219,22.82041 -3.934652,45.72257 -5.743932,68.59697 -0.782969,10.26334 -1.412218,20.54059 -1.686655,30.83089 -0.189942,4.52285 -0.452361,3.82771 3.6492,3.74025 9.651257,-1.77415 19.274433,-3.69622 28.962989,-5.28709 20.1817239,-4.01826 40.566324,-6.41558 61.074753,-7.89071 22.747394,-1.36728 45.518733,-1.66326 68.282306,-0.72047 14.22694,0.70106 28.455,1.3822 42.6937,1.79203 2.70193,0.60002 9.88837,-1.3611 11.15627,1.594 -10.15171,6.15617 -8.28708,7.96576 -13.31611,3.42878 0,0 9.63374,-5.98671 9.63374,-5.98671 l 0,0 c 4.49598,3.87229 4.91846,0.67281 -6.33184,8.01124 -2.19969,-1.42383 -7.52706,0.4662 -10.22368,-0.49538 -14.15645,-0.53959 -28.30402,-1.2675 -42.45279,-1.97729 -22.720978,-0.96616 -45.456244,-0.63166 -68.158029,0.78448 -20.550678,1.53003 -40.96510134,4.03123 -61.182871,8.09767 -9.792075,1.66835 -19.497251,3.8061 -29.312164,5.31242 -4.492539,-0.10467 -4.902392,-0.93854 -4.559973,-5.30877 0.439568,-10.35896 1.133359,-20.70487 1.981353,-31.03829 1.967797,-22.89887 3.529499,-45.82955 5.849172,-68.69525 2.047191,-17.15095 3.606302,-34.50621 8.529445,-51.13748 0,0 10.205657,-4.84719 10.205657,-4.84719 z" />
    <path
       style="fill:#000000;fill-opacity:1;fill-rule:nonzero;stroke:#000000;stroke-width:4.69999981;stroke-linecap:round;stroke-linejoin:round;stroke-miterlimit:4;stroke-opacity:1;stroke-dasharray:none;stroke-dashoffset:0"
       id="path2698"
       d="m 180.22459,668.7579 c 4.08084,6.50026 8.41774,12.84865 13.01931,18.99457 3.23048,4.25362 6.81938,8.20904 10.53116,12.04255 3.10851,3.43981 2.30634,6.43269 -0.36213,9.75547 -5.23626,4.39411 -10.56893,8.69307 -15.87267,13.01583 -9.60815,7.32689 -18.18579,15.80874 -26.78377,24.25764 -7.1771,6.64691 -13.54843,14.29876 -21.97274,19.42383 0,0 -10.53053,4.0467 -10.53053,4.0467 l 0,0 c 8.67818,-4.83365 15.0559,-12.55829 22.26642,-19.24184 8.59529,-8.41604 17.04565,-17.00492 26.64367,-24.31368 5.27714,-4.26201 10.37803,-8.73615 15.83344,-12.77728 2.54724,-2.80336 4.11531,-5.02728 1.11638,-8.27277 -3.70932,-3.89517 -7.31184,-7.89248 -10.53696,-12.20512 -4.59576,-6.23484 -8.96847,-12.63193 -13.17875,-19.13046 0,0 9.82717,-5.59544 9.82717,-5.59544 z" />
    <path
       style="fill:#000000;fill-opacity:1;fill-rule:nonzero;stroke:#000000;stroke-width:4.69999981;stroke-linecap:round;stroke-linejoin:round;stroke-miterlimit:4;stroke-opacity:1;stroke-dasharray:none;stroke-dashoffset:0"
       id="path2700"
       d="m -63.835039,584.30447 c 5.409633,-6.65832 11.204016,-12.98655 17.042745,-19.26691 6.054764,-6.21825 14.30455,-14.10586 23.342583,-14.49661 5.415885,1.20814 8.65402,6.08614 12.097229,10.0475 5.5241802,6.00605 10.2193757,12.63661 14.0638771,19.82128 1.402197,2.99815 2.9454896,5.92562 4.50219,8.84518 0,0 -9.7888731,5.60145 -9.7888731,5.60145 l 0,0 c -1.5284143,-2.93332 -3.0688912,-5.86232 -4.438965,-8.8745 -3.793233,-7.12098 -8.475847,-13.65865 -13.97491,-19.57699 -3.219195,-3.66652 -6.343579,-8.53091 -11.566961,-9.12786 -4.908719,0.64602 -2.066699,0.54199 5.71576,-4.64107 0.697164,-0.46431 -1.474818,0.80163 -2.162625,1.27969 -2.758039,1.91696 -5.173904,4.34129 -7.442631,6.79484 -5.839269,6.22191 -11.630125,12.49995 -16.985233,19.14893 0,0 -10.404186,4.44507 -10.404186,4.44507 z" />
    <path
       style="fill:#000000;fill-opacity:1;fill-rule:nonzero;stroke:#000000;stroke-width:4.69999981;stroke-linecap:round;stroke-linejoin:round;stroke-miterlimit:4;stroke-opacity:1;stroke-dasharray:none;stroke-dashoffset:0"
       id="path2702"
       d="m -49.323155,731.20511 c -1.043412,0.58457 -4.200058,2.28842 -3.130237,1.75371 1.87382,-0.93656 3.661026,-3.87851 5.543769,-2.96002 1.73375,0.84581 -3.18317,2.18413 -4.705469,3.36898 -5.492412,4.27493 -10.143073,9.33596 -14.892105,14.3922 -12.584137,13.92321 -24.83527,28.13118 -37.578153,41.91449 -12.05279,13.98582 -25.32779,26.78845 -38.97511,39.1898 -10.01578,9.7745 -19.31317,15.54436 -31.38438,22.52021 -2.59121,0.46091 -1.35222,0.38508 -3.71086,0.31168 0,0 9.16187,-6.69189 9.16187,-6.69189 l 0,0 c 2.14167,-0.18797 1.0244,0.0228 3.33325,-0.72377 -2.48643,1.45011 -4.9504,2.93945 -7.4593,4.35034 -0.97456,0.54804 1.92138,-1.14551 2.85481,-1.76101 6.12447,-4.0384 11.26443,-9.27159 16.98419,-13.83146 13.71674,-12.37208 27.10493,-25.10938 39.14424,-39.15488 12.72943,-13.74074 24.960291,-27.90961 37.447513,-41.86504 10.624769,-11.4483 21.601991,-21.39546 36.196834,-27.87719 0,0 -8.830862,7.06385 -8.830862,7.06385 z" />
    <path
       style="fill:#000000;fill-opacity:1;fill-rule:nonzero;stroke:#000000;stroke-width:4.69999981;stroke-linecap:round;stroke-linejoin:round;stroke-miterlimit:4;stroke-opacity:1;stroke-dasharray:none;stroke-dashoffset:0"
       id="path2704"
       d="m -175.5807,812.33093 c -3.37429,10.4199 -7.11861,20.7022 -10.95929,30.95744 -1.2302,5.04001 -7.83593,13.00321 -5.32746,18.19168 6.55402,2.99074 14.49966,1.93451 21.3785,0.83365 9.9283,-1.0067 19.07507,-4.27833 27.98093,-8.58576 0,0 -8.71538,6.94312 -8.71538,6.94312 l 0,0 c -8.9923,4.20077 -18.25928,7.27324 -28.19372,8.33605 -7.12539,1.01279 -15.99532,2.30883 -22.31254,-1.92901 -3.04857,-6.30494 3.39518,-13.18854 5.0924,-19.09352 3.83407,-10.1956 7.62111,-20.39936 10.8509,-30.80646 0,0 10.20566,-4.84719 10.20566,-4.84719 z" />
    <path
       style="fill:#000000;fill-opacity:1;fill-rule:nonzero;stroke:#000000;stroke-width:4.69999981;stroke-linecap:round;stroke-linejoin:round;stroke-miterlimit:4;stroke-opacity:1;stroke-dasharray:none;stroke-dashoffset:0"
       id="path2710"
       d="m 166.09187,432.25186 c -0.71774,-20.18469 4.13813,-39.94499 9.70312,-59.17312 10.57492,-32.58583 26.36644,-63.21191 46.15448,-91.1555 4.62473,-6.53079 9.65746,-12.76289 14.48619,-19.14433 24.32696,-30.23181 53.01491,-57.27319 86.28338,-77.50857 8.81074,-5.35908 17.946,-10.16544 26.919,-15.24816 25.96484,-12.62264 54.26861,-22.7557 83.60375,-21.57248 4.69201,0.18925 9.32986,1.07563 13.9948,1.61344 16.42325,3.86775 30.67542,12.23272 38.63503,27.644 5.37048,10.39826 5.03498,14.58247 6.90949,26.23512 0.92818,33.39216 -9.32924,65.75248 -23.29443,95.75696 -3.53663,7.59853 -7.57133,14.95516 -11.357,22.43274 -22.42236,40.82311 -49.6585,78.95299 -80.84021,113.55039 -6.43239,7.137 -13.2065,13.95843 -19.80976,20.93765 -30.56383,30.31365 -63.53875,58.85668 -100.82078,80.69601 -8.87584,5.19935 -18.03303,9.90278 -27.04954,14.85417 -18.58272,7.97989 -40.25134,17.90008 -60.98398,11.61461 -10.9968,-3.33388 -12.21425,-6.52789 -20.03291,-14.40252 -2.24013,-4.02074 -4.95569,-7.81131 -6.7204,-12.06224 -11.90808,-28.68476 -6.3205,-61.09957 -0.71992,-90.40832 3.97836,-19.4678 11.43762,-37.86028 18.76424,-56.22869 0,0 9.5189,-4.39945 9.5189,-4.39945 l 0,0 c -7.44936,18.3043 -14.99085,36.64449 -18.97219,56.10385 -5.57171,29.01494 -11.18939,61.19974 0.69398,89.58838 1.73899,4.15434 4.41517,7.85091 6.62275,11.77637 7.70147,7.64306 8.83436,10.68757 19.63204,13.83189 20.54441,5.9826 41.90703,-3.97243 60.25795,-11.89773 41.66826,-20.55612 77.47821,-53.29038 110.65577,-85.24571 6.61047,-6.96488 13.39207,-13.77125 19.83142,-20.89464 31.16905,-34.48012 58.37117,-72.51474 80.75535,-113.24951 3.77176,-7.44585 7.7923,-14.77083 11.31529,-22.33757 13.8606,-29.77008 24.00789,-61.88857 23.11748,-95.01741 -1.83764,-11.39524 -1.52595,-15.60504 -6.78957,-25.76872 -7.83243,-15.12387 -21.91304,-23.22168 -38.0408,-26.92086 -4.62165,-0.50616 -9.21859,-1.35351 -13.86494,-1.51848 -29.17702,-1.03588 -57.27668,9.14461 -83.05798,21.78614 -37.4179,20.13703 -69.19323,49.35218 -95.81172,82.23801 -4.82454,6.35574 -9.85354,12.56133 -14.47362,19.06721 -19.72323,27.77376 -35.45997,58.23623 -45.89037,90.68733 -5.46114,18.99795 -10.24823,38.55651 -9.33442,58.49216 0,0 -9.98987,5.24758 -9.98987,5.24758 z" />
    <path
       style="fill:#000000;fill-opacity:1;fill-rule:nonzero;stroke:#000000;stroke-width:4.69999981;stroke-linecap:round;stroke-linejoin:round;stroke-miterlimit:4;stroke-opacity:1;stroke-dasharray:none;stroke-dashoffset:0"
       id="path2712"
       d="m 290.08964,354.87067 c -6.01052,-2.22233 -12.07062,-4.43471 -14.0335,-11.04617 0.62865,-9.49033 12.55719,-13.74115 19.22115,-17.57971 5.18611,-2.22253 10.83612,-2.66776 16.40526,-2.93022 12.96566,-0.43396 -0.91964,5.52458 -6.39619,8.48834 -4.22093,0.4446 -8.14076,2.80813 -12.40726,2.74478 -3.78296,-1.46636 1.53354,-5.98687 2.98562,-7.21337 5.71752,-2.98467 15.45432,-12.95321 21.34417,-4.89865 2.44364,4.97404 1.57458,10.25202 -0.58058,15.13832 -4.85392,7.38285 -13.7138,13.60877 -22.63582,14.20443 -6.29773,-0.14723 -8.54318,-3.16267 -8.39553,-9.22648 0.55005,-7.0759 5.24085,-11.71995 10.805,-15.52852 7.79142,-4.86724 16.45347,-11.36475 23.01871,-2.45661 2.13166,5.288 0.5185,9.81615 -3.4827,13.54864 -6.02926,3.97765 -15.03766,12.72635 -22.85054,8.23822 -4.00171,-3.94335 -2.54881,-8.9723 -0.57415,-13.56223 4.52388,-6.40607 14.19861,-14.27907 20.79142,-7.52609 2.61375,4.08927 3.13819,8.75905 1.64029,13.31431 -3.85363,5.68034 -11.85562,12.22916 -18.81987,9.32388 -3.06489,-2.569 -4.06415,-5.84474 -2.44052,-9.51011 3.86638,-4.16665 12.46882,-12.61133 16.02411,-5.88268 0.62376,3.16044 -1.19354,5.57942 -3.5416,7.45867 -2.32391,8.66786 -17.48439,7.91851 -13.95286,2.18443 3.47457,-10.17315 16.8565,-6.84776 12.39754,-0.31214 -6.71493,3.77043 -13.73229,9.48396 -14.44637,-0.41587 0.49089,-5.83745 7.69643,-11.9007 13.73435,-10.3445 0.16046,0.0816 0.32093,0.16329 0.48139,0.24493 0,0 -9.46095,6.36998 -9.46095,6.36998 l 0,0 c -0.11426,-0.021 -0.22852,-0.0419 -0.34278,-0.0629 -4.07413,-0.14335 -0.38464,0.0912 8.37202,-5.41806 0.25875,-0.1628 -0.62149,0.12382 -0.86238,0.31204 -1.12919,0.88227 -1.70495,2.36009 -1.82428,3.72617 -0.3509,8.23753 11.4988,-0.12604 -6.22617,9.77756 1.24008,-0.29415 1.63593,-0.7662 1.18551,-2.09741 -0.0768,-0.22696 -0.1546,-0.49957 -0.36072,-0.62171 -0.24691,-0.14632 -1.09155,0.0641 -0.85534,-0.0989 2.81092,-1.94012 5.82804,-3.56303 8.74206,-5.34455 -0.35159,0.13069 -2.09378,0.5721 -0.91913,1.26105 0.61571,0.36112 2.73693,-0.37206 2.14128,0.0213 -2.7094,1.78908 -5.57408,3.33109 -8.36111,4.99663 2.17884,-1.41869 4.21044,-3.18774 4.23165,-5.99729 -0.27829,-0.54895 -0.29766,-1.01336 -0.98538,-1.0938 -0.28759,-0.0336 -1.10499,0.25392 -0.86355,0.0941 15.72441,-10.40866 9.3561,-5.81704 6.03468,-3.41244 -1.94369,3.1332 -1.44994,5.51587 1.49457,7.80455 0.45489,0.11847 0.89634,0.31505 1.36467,0.35539 0.55035,0.0474 2.08763,-0.43804 1.65444,-0.0953 -2.48225,1.96407 -5.35916,3.37087 -7.99988,5.11608 -0.71447,0.47218 4.50427,-2.73345 4.13671,-3.56574 1.75416,-4.05955 1.36819,-8.39275 -1.02288,-12.16002 -1.08014,-1.00103 -1.36122,-1.58328 -2.92749,-1.76437 -0.64607,-0.0747 -2.44492,0.56931 -1.94512,0.15313 13.66123,-11.37556 6.74097,-4.06075 4.00488,-1.47474 -1.91052,3.8236 -3.85793,8.62383 -0.22431,12.02721 1.99065,0.88127 3.45441,0.94347 5.60269,0.33113 0.76039,-0.21675 2.87194,-1.28164 2.22108,-0.83269 -1.54276,1.06419 -11.5528,6.99229 -4.92127,2.71931 4.00549,-3.05937 6.03222,-6.99279 4.22932,-12.01549 -1.06422,-1.40345 -1.3312,-2.09994 -2.96861,-2.90434 -4.83807,-2.37676 -13.99352,3.95188 0.15911,-4.49821 -5.49987,3.41548 -10.48342,7.73843 -11.20568,14.54792 -0.47945,5.64962 1.70235,7.7192 7.38398,7.54242 4.19057,-0.72717 10.72207,-4.73339 -2.71655,3.05084 -0.80494,0.46625 1.59562,-0.96768 2.31874,-1.55285 1.97348,-1.59702 2.22594,-2.23808 3.6905,-4.27865 2.27903,-4.39733 3.28583,-9.36738 1.1075,-14.02675 -0.8054,-1.04995 -0.99454,-1.66064 -2.35143,-2.04176 -4.22262,-1.18603 -14.57872,6.50987 1.2515,-3.04495 -0.6034,0.44239 -6.4415,4.89711 -4.33245,4.70747 4.17421,-0.4543 8.09899,-2.24438 12.22425,-2.99909 -11.55616,7.02116 -3.79546,4.79678 -11.6802,5.16726 -5.49462,0.32349 -11.05983,0.84946 -16.0749,3.31522 15.40448,-9.18243 0.0211,-1.25418 -0.49866,5.10058 1.50718,6.26923 7.96522,8.08816 13.4103,10.06507 0,0 -9.32174,6.38403 -9.32174,6.38403 z" />
    <path
       style="fill:#000000;fill-opacity:1;fill-rule:nonzero;stroke:#000000;stroke-width:4.69999981;stroke-linecap:round;stroke-linejoin:round;stroke-miterlimit:4;stroke-opacity:1;stroke-dasharray:none;stroke-dashoffset:0"
       id="path2714"
       d="m 272.11261,380.1938 c -6.13598,4.73538 -11.39653,10.37787 -15.15169,17.16035 -2.31369,4.95623 -3.60101,10.08983 -1.86927,15.38314 1.63926,2.90006 4.36773,4.1086 7.46864,4.8191 1.10356,0.25233 2.22615,0.13469 3.3437,0.0892 0.36657,-0.0137 0.7326,-0.0378 1.09876,-0.0591 0,0 -9.20211,6.75367 -9.20211,6.75367 l 0,0 c -0.36627,0.0119 -0.7325,0.0252 -1.0989,0.0328 -1.19146,0.022 -2.36328,-0.002 -3.51218,-0.36962 -3.37783,-0.99747 -6.25687,-2.59683 -8.00482,-5.80793 -1.90506,-5.56665 -0.84294,-10.92403 1.51951,-16.23681 3.60807,-6.92744 8.78257,-12.70508 14.90836,-17.55115 0,0 10.5,-4.21373 10.5,-4.21373 z" />
    <path
       style="fill:#000000;fill-opacity:1;fill-rule:nonzero;stroke:#000000;stroke-width:4.69999981;stroke-linecap:round;stroke-linejoin:round;stroke-miterlimit:4;stroke-opacity:1;stroke-dasharray:none;stroke-dashoffset:0"
       id="path2716"
       d="m 288.49647,391.68339 c 1.96117,6.2031 3.45439,12.52367 4.42238,18.95467 0.45113,3.12788 0.65613,6.28641 0.75956,9.44321 -3.52931,1.67152 -6.91543,3.68688 -10.58794,5.01455 -1.17741,0.42565 -0.33466,-4.59145 0.65149,-7.96535 2.0913,-5.57545 4.55884,-11.00627 7.53982,-16.16092 2.43858,-4.77133 6.14907,-8.18481 10.41296,-11.24474 6.05464,-4.11808 13.64098,-11.74976 16.87954,-3.03843 0.9679,4.60315 0.80173,9.36436 0.81061,14.04489 0.0134,4.49824 -0.0562,8.99662 -0.0231,13.49477 0.0341,4.24596 0.9112,2.68683 -9.83943,4.43704 -0.65854,0.10721 0.27949,-1.30636 0.47213,-1.94516 0.25548,-0.84715 1.4205,-3.9486 1.70658,-4.72042 2.52646,-6.30251 5.47291,-12.45487 8.96986,-18.27833 3.63006,-5.54843 11.4755,-14.45046 18.45731,-11.13437 3.13156,3.53219 2.81702,8.78236 2.98805,13.22348 0.14021,6.45181 0.0975,12.90616 0.10002,19.35915 0.0736,7.72513 0.98007,4.47774 -10.13788,9.14229 0,0 10.13789,-5.17234 10.13789,-5.17234 l 0,0 c -12.28446,7.35188 -10.00743,9.07189 -10.0663,1.15376 0.0564,-6.44317 0.0993,-12.88797 -0.0517,-19.33023 -0.14468,-3.82534 0.32125,-8.96949 -2.38766,-12.0164 -0.75674,-0.15502 -2.95036,0.50697 -2.31644,0.0656 15.80834,-11.00713 5.9252,-3.92303 3.57961,0.1543 -3.57609,5.7161 -6.50462,11.82198 -9.03645,18.06477 -3.35497,9.15931 -0.46398,5.5367 -12.74228,13.1141 -0.0363,0.0224 0.0177,-0.0834 0.0265,-0.12507 0.006,-0.28055 0.0121,-0.5611 0.0182,-0.84165 0.0812,-4.50579 0.0569,-9.01325 0.0901,-13.5195 -0.009,-4.55589 0.12955,-9.17345 -0.68702,-13.67244 -0.31333,-0.91748 -0.69425,-2.40734 -1.84003,-2.70684 -0.3527,-0.0922 -1.39194,0.25702 -1.09256,0.049 0.86377,-0.60018 12.63582,-7.64793 6.5076,-3.97626 -4.14358,3.13044 -8.29404,5.95249 -10.64941,10.85047 -3.0355,5.0473 -5.42247,10.41958 -7.60529,15.88423 -2.80027,9.48204 1.90481,4.95989 -10.42288,12.98573 -0.0149,-3.1294 -0.19979,-6.25996 -0.60212,-9.36429 -0.89709,-6.37472 -2.30013,-12.65549 -4.35335,-18.7645 0,0 9.9116,-5.45875 9.9116,-5.45875 z" />
    <path
       style="fill:#000000;fill-opacity:1;fill-rule:nonzero;stroke:#000000;stroke-width:4.69999981;stroke-linecap:round;stroke-linejoin:round;stroke-miterlimit:4;stroke-opacity:1;stroke-dasharray:none;stroke-dashoffset:0"
       id="path2718"
       d="m 331.95587,334.41358 c 6.65781,8.57945 14.0513,16.50758 21.66418,24.23739 9.64105,10.332 20.56685,19.28052 32.28418,27.13838 12.81142,8.56361 26.42638,15.8 39.36876,24.16462 12.00111,7.74089 23.41679,16.35427 35.51845,23.93857 9.88619,6.28474 20.69148,10.74593 31.40242,15.36234 5.14812,2.27631 10.44485,4.07626 15.41582,6.73407 8.0479,2.31021 -5.55201,10.37308 -8.4426,5.2646 0,0 9.84711,-5.66908 9.84711,-5.66908 l 0,0 c 2.81976,5.07205 -7.25343,10.7633 -10.89649,6.61084 -4.90651,-2.6413 -10.17726,-4.40017 -15.22392,-6.74684 -10.73162,-4.6516 -21.50854,-9.25346 -31.41168,-15.56164 -12.06073,-7.64596 -23.50304,-16.21324 -35.49295,-23.96883 -12.95978,-8.34667 -26.56386,-15.61557 -39.37984,-24.18255 -11.75837,-7.93091 -22.74767,-16.92404 -32.46172,-27.29026 -7.66332,-7.79498 -15.10129,-15.78247 -21.94078,-24.31896 0,0 9.74906,-5.71265 9.74906,-5.71265 z" />
    <path
       style="fill:#000000;fill-opacity:1;fill-rule:nonzero;stroke:#000000;stroke-width:4.69999981;stroke-linecap:round;stroke-linejoin:round;stroke-miterlimit:4;stroke-opacity:1;stroke-dasharray:none;stroke-dashoffset:0"
       id="path2720"
       d="m 514.21075,448.82625 c 1.98514,6.16538 4.469,12.21338 8.00757,17.65478 2.18104,3.52788 4.64835,6.8691 7.21144,10.12649 1.52752,6.15219 -6.84005,9.34725 -12.14023,10.22342 -4.04203,0.59894 -7.93818,2.15492 -11.85602,3.33325 -5.35488,1.019 -10.44758,2.91585 -15.70321,4.32507 -4.08703,2.07189 -4.76588,2.44988 6.66501,-3.88683 0.32044,-0.17764 -1.89721,1.32968 -1.90717,1.29558 -0.0851,-0.29134 0.002,-0.60703 0.002,-0.91054 0.23274,-0.12151 0.46547,-0.24302 0.6982,-0.36453 0,0 -9.00448,6.96677 -9.00448,6.96677 l 0,0 c -0.29774,0.0436 -0.59549,0.0873 -0.89324,0.13089 -0.3592,-0.29092 -0.8193,-0.48943 -1.0776,-0.87275 -0.58007,-0.8608 1.11056,-1.87906 1.59436,-2.16516 10.62068,-6.28078 7.27564,-4.85431 12.8932,-7.08133 5.22695,-1.43422 10.34803,-3.21197 15.6577,-4.33627 3.94626,-1.23141 7.86567,-2.63265 11.94379,-3.36676 4.26427,-1.76495 0.51562,-0.26787 -7.9613,4.8913 -0.74658,0.45438 2.62598,-1.7887 1.31824,-2.36679 -2.51324,-3.33099 -4.98534,-6.70356 -7.17993,-10.25533 -3.54518,-5.54567 -6.06395,-11.66434 -8.18042,-17.88252 0,0 9.91159,-5.45874 9.91159,-5.45874 z" />
    <path
       style="fill:#000000;fill-opacity:1;fill-rule:nonzero;stroke:#000000;stroke-width:4.69999981;stroke-linecap:round;stroke-linejoin:round;stroke-miterlimit:4;stroke-opacity:1;stroke-dasharray:none;stroke-dashoffset:0"
       id="path2722"
       d="m 526.22283,522.59736 c 4.48487,4.73975 9.9342,6.30546 16.18499,4.76837 6.56691,-3.68208 -3.53798,2.01613 -5.67877,2.83985 -0.64809,0.24937 0.96667,-1.00352 1.37368,-1.56614 1.13374,-1.56719 1.6505,-3.0658 1.83694,-4.94987 -0.20761,-4.27218 -3.66482,-6.17572 -7.52826,-6.56849 -4.65229,-0.5941 -25.15873,10.8075 -8.28984,2.14565 -4.33466,3.66484 -8.91115,8.26123 -8.63732,14.29036 0.85199,4.94057 4.80435,7.67116 8.82697,10.08334 3.92599,1.97488 8.33225,2.33193 12.64963,2.55386 3.38514,0.41723 6.03923,-1.59891 8.82216,-3.21005 0,0 -8.81165,7.12343 -8.81165,7.12343 l 0,0 c -2.92571,1.62043 -5.73474,3.20782 -9.21851,2.69064 -4.45006,-0.31807 -8.96153,-0.83395 -12.93632,-3.02789 -4.27801,-2.68256 -8.36729,-5.74282 -9.36485,-11.00493 -0.65765,-6.37996 3.63995,-11.32932 8.22552,-15.34432 8.72489,-5.43631 17.30494,-12.27864 27.98417,-12.80399 4.30058,0.88781 7.98133,3.23116 8.40187,7.97152 -0.004,8.68198 -9.61982,12.69379 -16.6525,15.59206 -6.61098,1.06209 -12.24587,-0.8479 -16.89947,-5.77898 0,0 9.71156,-5.80442 9.71156,-5.80442 z" />
    <path
       style="fill:#000000;fill-opacity:1;fill-rule:nonzero;stroke:#000000;stroke-width:4.69999981;stroke-linecap:round;stroke-linejoin:round;stroke-miterlimit:4;stroke-opacity:1;stroke-dasharray:none;stroke-dashoffset:0"
       id="path2726"
       d="m 550.45067,570.01875 c 4.44134,-5.34312 9.37384,-10.36452 14.78575,-14.73189 4.43047,-2.67863 14.90875,-11.69947 18.85233,-3.37188 0.85496,5.65176 -2.24104,10.357 -5.34195,14.77106 -3.37157,4.56751 -8.5261,7.6526 -11.7469,12.31223 -0.0224,0.21059 -0.2247,0.49013 -0.0672,0.63175 0.13886,0.1249 0.32735,-0.19052 0.50887,-0.23452 0.43305,-0.10498 0.87806,-0.15477 1.32035,-0.20893 2.65546,-0.32514 5.33299,-0.52352 7.99752,-0.75527 4.74793,0.0193 9.71724,-1.40396 14.40201,-0.36056 2.38585,0.86436 4.78865,1.39304 6.60594,3.22165 2.59841,3.26382 6.91996,-2.32966 -8.83228,5.296 0,0 10.29844,-4.83956 10.29844,-4.83956 l 0,0 c -7.00551,4.42913 -7.87315,9.4975 -11.15827,5.50396 -1.67739,-1.55222 -4.08864,-1.95551 -6.20113,-2.67653 -4.69293,-0.57208 -9.47426,0.42743 -14.17302,0.56064 -2.84747,0.26204 -10.50532,2.54006 -11.07731,-1.5429 2.66774,-5.02564 8.40521,-7.91917 11.80043,-12.43413 3.00207,-4.08952 6.05865,-8.3373 5.78509,-13.65818 -2.85117,-6.32274 -13.92815,3.53808 1.50222,-6.40183 -5.52355,4.1374 -10.39873,9.23154 -14.85666,14.47383 0,0 -10.40419,4.44506 -10.40419,4.44506 z" />
    <path
       style="fill:#000000;fill-opacity:1;fill-rule:nonzero;stroke:#000000;stroke-width:4.69999981;stroke-linecap:round;stroke-linejoin:round;stroke-miterlimit:4;stroke-opacity:1;stroke-dasharray:none;stroke-dashoffset:0"
       id="path2728"
       d="m 270.36877,331.58765 c -12.05263,-5.07323 -25.3881,-5.66085 -38.26889,-6.49988 -22.97491,-1.40788 -45.92958,0.60171 -68.69993,3.52523 -25.8598,3.96008 -51.61738,8.55922 -77.418486,12.88276 -17.686341,3.7939 -35.672273,5.58809 -53.550898,8.09017 -5.264036,-0.12859 -13.619029,4.44905 -18.415992,1.65076 -0.986978,-1.1806 -0.830515,-2.41075 -0.670005,-3.82683 0,0 10.20669,-4.99774 10.20669,-4.99774 l 0,0 c -0.185247,0.85989 -0.595437,1.78418 -0.0524,2.57888 4.616171,1.76693 12.907775,-2.30474 17.808367,-2.03939 17.808625,-2.34879 35.676537,-4.27282 53.29136,-7.93741 25.802734,-4.30714 51.561094,-8.899 77.423614,-12.83449 22.86539,-2.90331 45.91354,-4.88031 68.97905,-3.47157 13.07987,0.84306 26.58143,1.50099 38.81453,6.66371 0,0 -9.44701,6.2158 -9.44701,6.2158 z" />
    <path
       style="fill:#000000;fill-opacity:1;fill-rule:nonzero;stroke:#000000;stroke-width:4.69999981;stroke-linecap:round;stroke-linejoin:round;stroke-miterlimit:4;stroke-opacity:1;stroke-dasharray:none;stroke-dashoffset:0"
       id="path2730"
       d="m 47.463636,319.7455 c -9.057585,4.64936 -18.272551,9.00114 -27.218288,13.86537 1.789904,-0.99704 3.379059,-2.5062 5.369712,-2.99111 1.404668,-0.34217 -2.370413,1.65762 -3.515996,2.53956 -2.778745,2.13924 -5.640614,4.34938 -6.187987,7.95248 2.437184,5.31488 12.900587,5.88382 17.880574,6.58677 5.5001,0.89641 11.054957,0.55355 16.583774,0.2892 0,0 -8.997028,6.59436 -8.997028,6.59436 l 0,0 c -5.571877,0.19971 -11.16721,0.44603 -16.702108,-0.4586 -6.210909,-0.91729 -15.9395254,-1.37544 -18.9013719,-7.95237 0.020309,-0.70866 -0.1238233,-1.44152 0.060928,-2.12596 2.0195799,-7.48195 19.4695569,-14.50847 23.1017119,-17.43092 9.025684,-4.81834 18.237097,-9.29391 27.385547,-13.87055 0,0 -8.859468,7.00177 -8.859468,7.00177 z" />
    <path
       style="fill:#000000;fill-opacity:1;fill-rule:nonzero;stroke:#000000;stroke-width:4.69999981;stroke-linecap:round;stroke-linejoin:round;stroke-miterlimit:4;stroke-opacity:1;stroke-dasharray:none;stroke-dashoffset:0"
       id="path2732"
       d="m -39.248274,413.51925 c 1.054539,-0.45887 2.119838,-0.89376 3.163615,-1.37661 4.876687,-2.25595 7.526971,-3.90854 7.506328,-3.897 -13.221205,7.39396 -1.443722,0.56364 1.092202,-1.15011 3.158436,-2.71707 7.147972,-6.00215 7.598085,-10.4541 -1.734647,-3.78464 -6.916638,-3.00118 -10.280079,-2.71187 -3.481336,0.59562 -6.762618,1.96555 -9.905332,3.54052 -1.242098,0.62248 -4.872905,2.67193 -3.657205,1.99935 1.98382,-1.09753 3.812968,-2.55065 5.961583,-3.27423 1.354985,-0.45631 -2.346298,1.63453 -3.519447,2.4518 -6.022823,4.48586 -9.246733,11.00705 -9.927716,18.37192 0.340558,7.33282 5.47452,11.56119 11.089209,15.4471 6.920484,3.93724 13.902033,6.0378 21.85559,5.42477 1.067348,-0.17666 2.134696,-0.35332 3.202044,-0.52998 0,0 -9.008767,6.7515 -9.008767,6.7515 l 0,0 c -1.081194,0.14414 -2.162388,0.28828 -3.243582,0.43242 -8.097212,0.29675 -15.298294,-1.92245 -22.28087,-6.04321 -5.894332,-4.18867 -11.149287,-8.74425 -11.68428,-16.44754 0.461082,-7.55353 3.554919,-14.51235 9.576442,-19.29566 9.183555,-6.60089 19.353893,-13.27297 30.616585,-15.52269 4.242265,-0.25327 9.398348,-0.3004 11.3339703,4.27548 0.1672102,4.77406 -4.0429793,8.50339 -7.2776733,11.47781 -9.72759,6.82953 -20.229087,12.66038 -31.041564,17.59419 0,0 8.830862,-7.06386 8.830862,-7.06386 z" />
    <path
       style="fill:#000000;fill-opacity:1;fill-rule:nonzero;stroke:#000000;stroke-width:4.69999981;stroke-linecap:round;stroke-linejoin:round;stroke-miterlimit:4;stroke-opacity:1;stroke-dasharray:none;stroke-dashoffset:0"
       id="path2734"
       d="m 27.89279,423.61731 c -0.816653,8.79136 -2.078051,17.50865 -1.568334,26.34831 0,0 -9.986251,5.15953 -9.986251,5.15953 l 0,0 c -0.490934,-8.8482 0.690679,-17.57121 1.483291,-26.37626 0,0 10.071294,-5.13158 10.071294,-5.13158 z" />
    <path
       style="fill:#000000;fill-opacity:1;fill-rule:nonzero;stroke:#000000;stroke-width:4.69999981;stroke-linecap:round;stroke-linejoin:round;stroke-miterlimit:4;stroke-opacity:1;stroke-dasharray:none;stroke-dashoffset:0"
       id="path2736"
       d="m 296.16496,330.01875 c 9.32015,-11.59286 18.05532,-23.67045 26.95288,-35.59513 17.2749,-24.05276 36.59354,-46.44792 56.50622,-68.32481 22.63824,-24.14968 46.67151,-46.888 71.31678,-68.96029 15.68431,-13.63124 31.47934,-27.17342 47.97141,-39.82554 4.90708,-3.59444 9.84159,-7.15124 14.77559,-10.70858 1.33723,-0.88908 1.07395,-1.43358 1.492,0.58359 -0.19345,0.002 -0.38689,0.004 -0.58033,0.006 0,0 9.15561,-6.79195 9.15561,-6.79195 l 0,0 c 0.17076,-0.0342 0.34151,-0.0684 0.51226,-0.10264 1.61773,1.6361 1.4568,1.05392 -0.007,2.12764 -5.03573,3.57519 -10.04154,7.19218 -15.06318,10.78709 -16.69034,12.59868 -32.56327,26.25455 -48.39473,39.90359 -24.69756,22.04434 -48.7951,44.73977 -71.45472,68.89967 -19.8463,21.78533 -39.11501,44.08075 -56.2485,68.09978 -8.78907,11.85426 -17.44008,23.84189 -26.53029,35.45623 0,0 -10.40419,4.44506 -10.40419,4.44506 z" />
    <path
       style="fill:#000000;fill-opacity:1;fill-rule:nonzero;stroke:#000000;stroke-width:4.69999981;stroke-linecap:round;stroke-linejoin:round;stroke-miterlimit:4;stroke-opacity:1;stroke-dasharray:none;stroke-dashoffset:0"
       id="path2738"
       d="m 492.7675,84.139407 c 9.18868,2.940178 18.8704,2.662139 28.39728,2.573331 6.74546,0.618245 13.6577,-3.136097 19.96168,0.12621 4.86793,4.579899 3.12962,11.026393 1.91225,16.796832 -1.98558,9.02005 -6.72549,16.81941 -11.52406,24.55438 -1.68469,2.63666 -3.10029,5.44208 -5.131,7.83709 0,0 -10.49495,4.3729 -10.49495,4.3729 l 0,0 c 2.3392,-2.15329 3.65179,-5.05412 5.37463,-7.68523 4.759,-7.65496 9.6576,-15.25864 11.67787,-24.1963 1.07969,-5.10216 3.24774,-11.371639 -1.25669,-15.438515 -6.21219,-2.639292 -13.04314,1.073036 -19.55082,0.203688 -9.63729,0.04398 -19.38471,0.150703 -28.68793,-2.760352 0,0 9.32174,-6.384034 9.32174,-6.384034 z" />
    <path
       style="fill:#000000;fill-opacity:1;fill-rule:nonzero;stroke:#000000;stroke-width:4.69999981;stroke-linecap:round;stroke-linejoin:round;stroke-miterlimit:4;stroke-opacity:1;stroke-dasharray:none;stroke-dashoffset:0"
       id="path2740"
       d="m 562.78218,31.683391 c 2.41127,6.435562 6.76939,10.818068 13.4614,12.360723 1.08033,0.09293 2.15675,0.291382 3.241,0.278802 2.47167,-0.02868 4.86297,-0.529575 7.19369,-1.329466 1.22573,-0.420661 4.63471,-2.265137 3.58379,-1.506894 -2.00533,1.446857 -4.26132,2.521004 -6.48591,3.600789 -1.03309,0.501448 1.93317,-1.240077 2.89975,-1.860116 4.25379,-3.065913 7.68527,-7.326012 6.85034,-12.777453 -2.24168,-6.022884 -7.49596,-7.451222 -13.37758,-6.999665 -0.80432,-0.906113 -12.89361,4.870366 -12.40484,4.364237 1.389,-1.438315 3.26501,-2.968277 5.26253,-2.878975 1.68882,0.0755 -2.81478,1.879702 -4.14009,2.929154 -1.35641,1.074074 -2.59575,2.288233 -3.89363,3.432349 -6.6904,5.969269 -11.40997,13.259183 -12.84041,22.145879 -0.7593,7.926244 2.15484,12.048752 8.25273,16.619785 7.07602,4.203663 14.40253,4.031493 22.17419,2.439819 0,0 -8.95546,6.770048 -8.95546,6.770048 l 0,0 c -8.0085,1.44004 -15.59908,1.241586 -22.72935,-3.205932 -5.91442,-4.59576 -9.66272,-9.813726 -8.82842,-17.668116 1.2116,-9.106694 5.82792,-16.713958 12.59818,-22.885644 9.6733,-8.919446 21.50679,-16.302074 34.57137,-18.713114 6.42104,-0.100254 11.83201,1.946508 14.29664,8.33745 1.15891,5.76325 -1.83846,10.524083 -6.35701,14.004235 -9.19604,6.050996 -18.69971,13.182109 -30.18307,11.283793 -6.8949,-2.000757 -11.45572,-6.579375 -14.10143,-13.282943 0,0 9.91159,-5.458745 9.91159,-5.458745 z" />
    <path
       style="fill:#000000;fill-opacity:1;fill-rule:nonzero;stroke:#000000;stroke-width:4.69999981;stroke-linecap:round;stroke-linejoin:round;stroke-miterlimit:4;stroke-opacity:1;stroke-dasharray:none;stroke-dashoffset:0"
       id="path2742"
       d="m 609.5895,67.01203 c 3.13542,1.529451 9.74765,1.481591 10.21744,5.835726 -3.09943,6.18522 -11.98378,9.740364 -17.09123,12.710136 20.57652,-10.86699 8.16366,-6.315402 7.40882,-3.283823 -0.14209,0.570671 1.18688,1.45719 1.4559,1.670856 3.45746,1.368654 5.48111,4.23934 6.6729,7.624299 1.4037,3.836197 0.42516,7.17531 -1.28549,10.692936 -4.63213,7.93586 -12.39485,11.39941 -20.21381,15.92361 -3.18666,0.92263 -6.49054,0.96527 -9.77433,1.05635 0,0 9.09005,-6.65573 9.09005,-6.65573 l 0,0 c 3.21056,-0.14876 6.43102,-0.23893 9.45741,-1.4808 -15.65857,9.32793 -6.61904,4.20194 -4.7819,2.58577 2.20796,-1.94238 4.06932,-4.50377 5.89883,-6.76748 1.72316,-3.23258 2.98679,-6.2249 1.68792,-9.878114 -1.11746,-3.334116 -3.16596,-5.605771 -6.39515,-7.090074 -6.41052,-5.847851 4.74526,-8.395106 9.59192,-11.533667 -16.64339,9.706343 -5.0792,3.346271 -1.90638,-0.489861 1.18563,-2.180865 -8.23681,-3.949389 -9.39645,-4.567061 0,0 9.36355,-6.353073 9.36355,-6.353073 z" />
    <path
       style="fill:#000000;fill-opacity:1;fill-rule:nonzero;stroke:#000000;stroke-width:4.69999981;stroke-linecap:round;stroke-linejoin:round;stroke-miterlimit:4;stroke-opacity:1;stroke-dasharray:none;stroke-dashoffset:0"
       id="path2744"
       d="m 323.60887,333.51925 c 13.65548,-6.01554 27.61449,-11.31998 41.55977,-16.62051 24.648,-9.79411 49.42799,-19.20723 74.30207,-28.41296 24.93111,-9.93722 50.47527,-18.19747 75.98821,-26.48275 15.4666,-4.94304 30.92261,-9.95963 46.70605,-13.80377 4.19063,-1.38537 8.73595,-1.24084 12.99042,-2.21871 -0.93297,1.92148 -11.35509,11.33963 -11.91871,4.39728 0,0 10.15883,-5.18693 10.15883,-5.18693 l 0,0 c -0.0745,0.81328 -0.17125,1.02483 0.75167,0.88695 -2.70828,2.24731 -5.41655,4.49461 -8.12483,6.74191 -4.29505,0.2577 -8.51459,1.36299 -12.72456,2.1503 -15.67679,3.79369 -31.02589,8.78478 -46.39037,13.66527 -25.47207,8.24252 -50.95695,16.50716 -75.84039,26.42372 -24.93128,9.23909 -49.75407,18.7239 -74.45964,28.54968 -14.04961,5.37865 -28.14262,10.71791 -41.82938,16.97438 0,0 8.83086,-7.06386 8.83086,-7.06386 z" />
    <path
       style="fill:#000000;fill-opacity:1;fill-rule:nonzero;stroke:#000000;stroke-width:4.69999981;stroke-linecap:round;stroke-linejoin:round;stroke-miterlimit:4;stroke-opacity:1;stroke-dasharray:none;stroke-dashoffset:0"
       id="path2746"
       d="m 561.58485,237.61692 c 8.7525,0.45475 17.39473,-0.24464 26.0653,-1.33054 4.08025,-0.39766 10.39556,-2.53272 12.81693,1.9437 0.96963,4.8155 -3.76617,8.11796 -7.0752,10.71798 -5.84289,3.864 -11.40672,8.17431 -17.30659,11.94955 -27.46668,15.76603 -7.40366,4.17452 -4.04805,2.47129 2.07363,-1.05253 -2.34823,1.86268 -3.50521,3.09213 -0.0938,0.10674 -0.18752,0.21347 -0.28129,0.32021 0,0 -10.48049,4.49853 -10.48049,4.49853 l 0,0 c 0.0886,-0.12919 0.17711,-0.25838 0.26566,-0.38757 4.50004,-5.53631 26.06308,-16.36512 7.54158,-5.9231 6.00046,-3.60326 11.4178,-8.14058 17.35707,-11.85296 2.95479,-2.18252 7.70707,-5.09702 7.66728,-9.25186 -1.7134,-3.60853 -9.08836,-0.83995 -11.94938,-0.87116 -8.71499,1.04963 -17.41247,1.54749 -26.19767,1.25718 0,0 9.13006,-6.63338 9.13006,-6.63338 z" />
    <path
       style="fill:#000000;fill-opacity:1;fill-rule:nonzero;stroke:#000000;stroke-width:4.69999981;stroke-linecap:round;stroke-linejoin:round;stroke-miterlimit:4;stroke-opacity:1;stroke-dasharray:none;stroke-dashoffset:0"
       id="path2748"
       d="m 646.06791,183.09919 c -5.75306,4.04159 -10.33616,9.41586 -13.29818,15.77344 -1.50793,3.71082 -2.63736,7.21502 -0.17422,10.65583 3.11082,2.69096 6.5025,0.92277 9.83064,-0.32457 0.64941,-0.39527 1.29265,-0.80085 1.94822,-1.18582 3.62041,-2.12602 11.61796,-5.45803 -4.35528,2.30806 -0.83775,0.40731 1.34899,-1.28709 1.97736,-1.97476 4.29803,-5.63348 -7.19626,3.20779 9.89243,-6.54831 -2.02235,1.68847 -3.2667,4.17077 -3.25982,6.80448 0.82927,2.83156 3.06177,4.37238 5.55291,5.65481 4.21084,-0.99782 10.73939,-4.38525 -5.27931,3.82383 -1.05483,0.54057 1.7698,-1.58884 2.53231,-2.49629 2.96453,-3.35337 5.01653,-7.38696 6.90694,-11.4145 1.54123,-3.03701 1.65124,-6.47675 2.97747,-9.57575 0,0 10.33829,-4.70475 10.33829,-4.70475 l 0,0 c -1.58505,3.03701 -1.55037,6.4719 -3.02838,9.5787 -1.7906,4.09393 -3.85669,8.24998 -6.79077,11.63776 -3.69314,5.41693 -10.5389,10.09393 -17.18196,9.36965 -2.76052,-1.58836 -5.09812,-3.51337 -6.11696,-6.66026 -0.29543,-2.95833 0.93434,-5.57194 2.75026,-7.86917 3.49674,-2.04438 6.87151,-4.31336 10.49022,-6.13313 0.95805,-0.48178 1.57984,1.91742 1.5659,2.26926 -0.0323,0.81605 -0.45046,1.22732 -0.88437,1.83799 -4.81027,5.90134 -12.48449,8.48777 -18.94572,12.24149 -3.82001,1.36077 -7.49302,2.34298 -10.69572,-0.87981 -2.64905,-3.84788 -2.0241,-7.50971 -0.30397,-11.7206 2.78638,-6.53896 7.34353,-12.07321 13.02902,-16.35035 0,0 10.52269,-4.11723 10.52269,-4.11723 z" />
    <path
       style="fill:#000000;fill-opacity:1;fill-rule:nonzero;stroke:#000000;stroke-width:4.69999981;stroke-linecap:round;stroke-linejoin:round;stroke-miterlimit:4;stroke-opacity:1;stroke-dasharray:none;stroke-dashoffset:0"
       id="path2754"
       d="m 343.36569,328.31165 c 4.85261,5.39276 10.40993,10.16554 16.43132,14.20558 4.71268,3.37684 10.08296,5.59781 15.17829,8.29005 4.73769,2.82116 9.91637,4.41584 15.06924,6.23521 6.42157,1.63485 12.73655,3.65526 19.23692,4.97483 6.38755,1.4953 12.39875,4.12816 18.54302,6.36242 6.86287,2.95407 13.73084,5.82824 21.02256,7.51954 6.85569,1.4938 13.84331,2.55246 20.64727,4.26682 6.1778,1.71353 12.53179,2.48174 18.79802,3.78608 5.90032,0.93327 11.75889,2.17926 17.35159,4.30825 5.1863,1.74493 10.44184,3.35036 15.74393,4.72465 5.7208,0.91104 11.28358,2.51909 16.9879,3.52488 4.80336,1.76678 9.95707,2.3437 14.79489,3.90601 4.00953,1.38838 8.15647,2.1057 12.13097,3.58817 3.65839,0.9707 6.98158,2.78236 10.5981,3.87907 6.60345,2.03476 9.16258,-0.82679 -4.21643,5.81509 1.56368,-3.57215 2.72608,-7.30948 3.86672,-11.03431 0,0 10.19981,-4.82206 10.19981,-4.82206 l 0,0 c -1.13782,3.74097 -2.27723,7.49431 -3.7233,11.12683 -9.77452,6.27389 -7.86813,7.64991 -15.49453,5.28878 -3.58516,-1.1948 -6.97475,-2.89497 -10.62019,-3.92218 -3.96204,-1.42085 -8.11889,-2.11779 -12.08393,-3.54553 -4.85646,-1.39271 -9.86858,-2.26974 -14.69263,-3.81678 -5.7094,-1.06814 -11.32,-2.58653 -17.04046,-3.59657 -5.31678,-1.43388 -10.62174,-2.97863 -15.81406,-4.80583 -5.59034,-1.98964 -11.36863,-3.25655 -17.22284,-4.193 -6.27809,-1.29173 -12.65388,-2.04326 -18.82948,-3.81233 -6.82621,-1.60801 -13.75866,-2.80894 -20.61589,-4.28257 -7.29805,-1.79839 -14.19162,-4.7087 -21.10882,-7.61792 -6.09866,-2.24083 -12.1063,-4.78632 -18.46729,-6.21743 -6.51797,-1.40185 -12.89079,-3.38258 -19.33212,-5.08424 -5.22213,-1.7794 -10.36928,-3.58916 -15.17443,-6.3654 -5.15064,-2.66228 -10.48326,-5.02997 -15.22258,-8.41922 -6.04607,-4.19971 -11.66756,-9.04082 -16.65313,-14.46247 0,0 9.71156,-5.80442 9.71156,-5.80442 z" />
    <path
       style="fill:#000000;fill-opacity:1;fill-rule:nonzero;stroke:#000000;stroke-width:4.69999981;stroke-linecap:round;stroke-linejoin:round;stroke-miterlimit:4;stroke-opacity:1;stroke-dasharray:none;stroke-dashoffset:0"
       id="path2756"
       d="m 580.5273,360.12786 c 5.0776,7.136 9.99694,14.38286 15.24499,21.39729 3.2183,4.08968 6.51203,8.24064 8.46848,13.10158 1.3847,4.19674 -1.51829,7.68862 -3.90391,10.8714 -3.88548,5.07088 -9.11346,8.76048 -14.52431,12.03072 -4.11909,2.48974 -7.91163,5.44716 -11.90139,8.12903 -0.74083,0.49469 -1.49128,0.9746 -2.24435,1.45034 0,0 -10.62959,4.11255 -10.62959,4.11255 l 0,0 c 0.77859,-0.46337 1.5505,-0.93776 2.30967,-1.43255 4.05671,-2.65249 7.85995,-5.62668 11.95641,-8.21595 5.4328,-3.10292 10.69744,-6.70308 14.65879,-11.61686 2.1642,-2.75333 5.37457,-6.06656 4.36845,-9.80402 -1.82649,-4.80501 -5.08712,-8.87735 -8.21137,-12.90445 -5.20314,-7.07396 -10.12031,-14.34595 -15.34093,-21.40642 0,0 9.74906,-5.71266 9.74906,-5.71266 z" />
    <path
       style="fill:#000000;fill-opacity:1;fill-rule:nonzero;stroke:#000000;stroke-width:4.69999981;stroke-linecap:round;stroke-linejoin:round;stroke-miterlimit:4;stroke-opacity:1;stroke-dasharray:none;stroke-dashoffset:0"
       id="path2758"
       d="m 645.33993,389.2607 c 1.58569,9.35329 0.88366,18.82529 0.46067,28.24049 0.0782,8.85512 -2.1699,17.39291 -4.05828,25.96204 -1.57844,6.76788 -3.97964,13.23274 -7.10045,19.42459 -0.005,0.34499 -3.18034,5.03079 -2.1046,5.44477 0.66637,0.25645 1.39085,-0.32833 2.09513,-0.44581 5.50891,-0.9096 11.09365,-1.18496 16.66346,-1.43389 5.72935,-0.54608 11.25202,-0.15895 16.83815,1.11235 1.71023,-0.29761 6.13763,4.23095 7.31036,3.36201 -11.20055,5.96904 -8.85859,7.30954 -11.88878,1.08302 0,0 9.8483,-5.59315 9.8483,-5.59315 l 0,0 c 3.11823,6.41562 2.89714,3.67166 -7.21025,11.17644 -2.4938,-1.06251 -4.59728,-3.06165 -7.35807,-3.58044 -5.50624,-1.21039 -10.99193,-1.36813 -16.61647,-0.90031 -5.59567,0.2753 -11.17924,0.68244 -16.72472,1.50417 -5.15991,-0.11711 -2.87432,-4.13699 -1.13186,-7.08615 3.13676,-6.13169 5.70483,-12.45549 7.28016,-19.19389 1.86995,-8.52736 4.24104,-16.99788 4.18607,-25.81247 0.43948,-9.32841 1.21549,-18.73735 -0.48516,-27.9904 0,0 9.99634,-5.27337 9.99634,-5.27337 z" />
  </g>
</svg>
