<?xml version="1.0" encoding="UTF-8" standalone="no"?>
<!-- Created with Inkscape (http://www.inkscape.org/) -->
<svg
   xmlns:dc="http://purl.org/dc/elements/1.1/"
   xmlns:cc="http://creativecommons.org/ns#"
   xmlns:rdf="http://www.w3.org/1999/02/22-rdf-syntax-ns#"
   xmlns:svg="http://www.w3.org/2000/svg"
   xmlns="http://www.w3.org/2000/svg"
   xmlns:sodipodi="http://sodipodi.sourceforge.net/DTD/sodipodi-0.dtd"
   xmlns:inkscape="http://www.inkscape.org/namespaces/inkscape"
   version="1.0"
   inkscape:output_extension="org.inkscape.output.svg.inkscape"
   sodipodi:docname="c39d2.svg"
   inkscape:version="0.46+devel"
   sodipodi:version="0.32"
   id="svg2781"
   height="583.95459"
   width="643.62646">
  <sodipodi:namedview
     id="base"
     pagecolor="#ffffff"
     bordercolor="#666666"
     borderopacity="1.0"
     inkscape:pageopacity="0.0"
     inkscape:pageshadow="2"
     inkscape:zoom="0.87323732"
     inkscape:cx="329.99008"
     inkscape:cy="437.37353"
     inkscape:document-units="px"
     inkscape:current-layer="svg2781"
     showgrid="false"
     inkscape:window-width="1280"
     inkscape:window-height="712"
     inkscape:window-x="-5"
     inkscape:window-y="-3" />
  <defs
     id="defs2783">
    <marker
       style="overflow:visible"
       id="Arrow1Lend"
       refX="0"
       refY="0"
       orient="auto"
       inkscape:stockid="Arrow1Lend">
      <path
         transform="matrix(-0.8,0,0,-0.8,-10,0)"
         style="fill-rule:evenodd;stroke:#000000;stroke-width:1pt;marker-start:none"
         d="M 0,0 5,-5 -12.5,0 5,5 0,0 z"
         id="path3515" />
    </marker>
    <marker
       style="overflow:visible"
       id="Arrow1Lstart"
       refX="0"
       refY="0"
       orient="auto"
       inkscape:stockid="Arrow1Lstart">
      <path
         transform="matrix(0.8,0,0,0.8,10,0)"
         style="fill-rule:evenodd;stroke:#000000;stroke-width:1pt;marker-start:none"
         d="M 0,0 5,-5 -12.5,0 5,5 0,0 z"
         id="path3512" />
    </marker>
    <inkscape:perspective
       id="perspective2789"
       inkscape:persp3d-origin="372.04724 : 350.78739 : 1"
       inkscape:vp_z="744.09448 : 526.18109 : 1"
       inkscape:vp_y="0 : 1000 : 0"
       inkscape:vp_x="0 : 526.18109 : 1"
       sodipodi:type="inkscape:persp3d" />
    <inkscape:perspective
       sodipodi:type="inkscape:persp3d"
       inkscape:vp_x="0 : 0.5 : 1"
       inkscape:vp_y="0 : 1000 : 0"
       inkscape:vp_z="1 : 0.5 : 1"
       inkscape:persp3d-origin="0.5 : 0.33333333 : 1"
       id="perspective8893" />
    <marker
       style="overflow:visible"
       id="Arrow1Lend-1"
       refX="0"
       refY="0"
       orient="auto"
       inkscape:stockid="Arrow1Lend">
      <path
         transform="matrix(-0.8,0,0,-0.8,-10,0)"
         style="fill-rule:evenodd;stroke:#000000;stroke-width:1pt;marker-start:none"
         d="M 0,0 5,-5 -12.5,0 5,5 0,0 z"
         id="path3515-7" />
    </marker>
    <inkscape:perspective
       sodipodi:type="inkscape:persp3d"
       inkscape:vp_x="0 : 0.5 : 1"
       inkscape:vp_y="0 : 1000 : 0"
       inkscape:vp_z="1 : 0.5 : 1"
       inkscape:persp3d-origin="0.5 : 0.33333333 : 1"
       id="perspective8926" />
    <marker
       style="overflow:visible"
       id="Arrow1Lend-7"
       refX="0"
       refY="0"
       orient="auto"
       inkscape:stockid="Arrow1Lend">
      <path
         transform="matrix(-0.8,0,0,-0.8,-10,0)"
         style="fill-rule:evenodd;stroke:#000000;stroke-width:1pt;marker-start:none"
         d="M 0,0 5,-5 -12.5,0 5,5 0,0 z"
         id="path3515-2" />
    </marker>
    <inkscape:perspective
       sodipodi:type="inkscape:persp3d"
       inkscape:vp_x="0 : 0.5 : 1"
       inkscape:vp_y="0 : 1000 : 0"
       inkscape:vp_z="1 : 0.5 : 1"
       inkscape:persp3d-origin="0.5 : 0.33333333 : 1"
       id="perspective9146" />
    <marker
       style="overflow:visible"
       id="Arrow1Lend-7-6"
       refX="0"
       refY="0"
       orient="auto"
       inkscape:stockid="Arrow1Lend">
      <path
         transform="matrix(-0.8,0,0,-0.8,-10,0)"
         style="fill-rule:evenodd;stroke:#000000;stroke-width:1pt;marker-start:none"
         d="M 0,0 5,-5 -12.5,0 5,5 0,0 z"
         id="path3515-2-1" />
    </marker>
  </defs>
  <metadata
     id="metadata2786">
    <rdf:RDF>
      <cc:Work
         rdf:about="">
        <dc:format>image/svg+xml</dc:format>
        <dc:type
           rdf:resource="http://purl.org/dc/dcmitype/StillImage" />
        <dc:title />
      </cc:Work>
    </rdf:RDF>
  </metadata>
  <g
     transform="translate(-67.963965,-36.011493)"
     id="layer1"
     inkscape:groupmode="layer"
     inkscape:label="Layer 1">
    <path
       id="path2735"
       d="m 177.87755,148.38633 0,348.62628 512.26717,0"
       style="fill:none;stroke:#000000;stroke-width:4.19999981;stroke-miterlimit:4;stroke-opacity:1;stroke-dasharray:none;marker-start:url(#Arrow1Lstart);marker-end:url(#Arrow1Lend)" />
    <path
       sodipodi:nodetypes="ccc"
       id="path4145"
       d="M 639.92909,183.33098 179.99417,495.71786 498.14464,84.197141"
       style="fill:none;stroke:#000000;stroke-width:8;stroke-miterlimit:4;stroke-opacity:1;stroke-dasharray:none" />
    <path
       transform="matrix(1.3285364,-0.45889235,0.99135448,1.0162631,480.55346,-23.648109)"
       d="m -8.0690346,140.05536 c 0,32.1332 -14.7179174,58.21231 -32.8524934,58.21231 -18.134576,0 -32.852493,-26.07911 -32.852493,-58.21231 0,-32.1332 14.717917,-58.212316 32.852493,-58.212316 18.134576,0 32.8524934,26.079116 32.8524934,58.212316 z"
       sodipodi:ry="58.212315"
       sodipodi:rx="32.852493"
       sodipodi:cy="140.05536"
       sodipodi:cx="-40.921528"
       id="path4147"
       style="fill:none;stroke:#000000;stroke-width:8;stroke-linecap:round;stroke-linejoin:round;stroke-miterlimit:4;stroke-opacity:1;stroke-dasharray:none;stroke-dashoffset:0"
       sodipodi:type="arc" />
    <path
       sodipodi:nodetypes="cc"
       transform="translate(58.111379,33.172082)"
       id="path4149"
       d="M 508.34913,101.43926 613.24657,8.0690136"
       style="stroke:#000000;stroke-width:4;stroke-miterlimit:4;stroke-opacity:1;stroke-dasharray:none;marker-end:url(#Arrow1Lend)" />
    <path
       sodipodi:nodetypes="czz"
       id="path4337"
       d="m 609.05073,43.041432 c -35.61413,-4.520511 -31.30317,33.402172 -2.28433,60.537158 29.01884,27.13499 83.89828,25.03876 56.46508,-6.356391"
       style="fill:none;stroke:#000000;stroke-width:3.48200011;stroke-miterlimit:4;stroke-opacity:1;stroke-dasharray:none" />
    <g
       transform="matrix(-0.28228543,0.29446492,-0.29446492,-0.28228543,681.57718,129.74111)"
       id="g4713">
      <path
         sodipodi:nodetypes="ccccc"
         id="path4719"
         d="m -25.219138,92.305905 -16,-16 16,56.000005 16,-56.000005 -16,16 z"
         style="fill-rule:evenodd;stroke:#000000;stroke-width:3.2pt;marker-start:none" />
    </g>
    <path
       sodipodi:nodetypes="cc"
       id="path4149-2"
       d="M 179.16436,495.61724 86.87414,389.76833"
       style="stroke:#000000;stroke-width:4;stroke-miterlimit:4;stroke-opacity:1;stroke-dasharray:none;marker-end:url(#Arrow1Lend)" />
    <path
       sodipodi:nodetypes="cc"
       id="path4149-2-2"
       d="m 178.95929,491.76603 37.77276,110.24684"
       style="stroke:#000000;stroke-width:4;stroke-miterlimit:4;stroke-opacity:1;stroke-dasharray:none;marker-end:url(#Arrow1Lend)" />
    <path
       transform="translate(58.111379,33.172082)"
       id="path8946"
       d="M 126.7991,457.62947 357.34292,246.68187"
       style="stroke:#000000;stroke-width:3;stroke-miterlimit:4;stroke-opacity:1;stroke-dasharray:none;marker-end:url(#Arrow1Lend-7)" />
    <path
       sodipodi:nodetypes="cc"
       id="path8946-0"
       d="M 431.27155,271.11127 430.88731,404.9584"
       style="stroke:#000000;stroke-width:3;stroke-miterlimit:4;stroke-opacity:1;stroke-dasharray:none;marker-end:url(#Arrow1Lend-7)" />
    <g
       id="g9205"
       transform="matrix(1.2769563,0,0,1.2769563,-74.038766,97.038245)">
      <g
         word-spacing="normal"
         letter-spacing="normal"
         font-size-adjust="none"
         font-stretch="normal"
         font-weight="normal"
         font-variant="normal"
         font-style="normal"
         fill-rule="even-odd"
         stroke-miterlimit="10.433"
         xml:space="preserve"
         transform="matrix(0.8167838,0,0,-0.8167838,-142.93716,529.86342)"
         id="content"
         style="font-style:normal;font-variant:normal;font-weight:normal;font-stretch:normal;letter-spacing:normal;word-spacing:normal;text-anchor:start;fill:none;stroke:#000000;stroke-linecap:butt;stroke-linejoin:miter;stroke-miterlimit:10.43299961;stroke-opacity:1;stroke-dasharray:none;stroke-dashoffset:0"><path
           id="path9208"
           d="m 478.66,430.91 0,0.31 -0.01,0.34 -0.01,0.36 -0.02,0.37 -0.03,0.38 -0.04,0.4 -0.05,0.41 -0.06,0.41 -0.06,0.42 -0.08,0.42 -0.09,0.43 -0.1,0.42 -0.11,0.43 -0.13,0.42 -0.13,0.41 -0.16,0.4 -0.17,0.4 -0.18,0.39 -0.2,0.37 -0.22,0.35 -0.23,0.34 -0.25,0.32 -0.27,0.3 -0.29,0.27 -0.31,0.25 -0.17,0.12 -0.16,0.11 -0.18,0.1 -0.17,0.09 -0.19,0.09 -0.19,0.07 -0.19,0.07 -0.2,0.06 -0.21,0.06 -0.21,0.04 -0.21,0.03 -0.23,0.03 -0.23,0.01 -0.23,0.01 -0.05,-1.1 c 2.44,0 2.74,-3.18 2.74,-6.02 0,-2.45 -0.4,-4.99 -1.59,-9.92 h -10.42 c 0.85,3.19 1.84,7.17 3.84,10.71 1.34,2.44 3.18,5.23 5.43,5.23 l 0.05,1.1 c -6.93,0 -14.6,-14.05 -14.6,-25.46 0,-4.68 1.45,-10.21 5.98,-10.21 v 1.1 c -1.64,0 -2.69,1.44 -2.69,6.07 0,2.1 0.3,4.99 1.59,9.87 h 10.37 c -0.55,-2.29 -1.6,-6.53 -3.49,-10.11 -1.74,-3.39 -3.64,-5.83 -5.78,-5.83 v -1.1 c 7.02,0 14.59,14.3 14.59,25.46 z"
           style="fill:#000000;stroke-width:0" /></g>    </g>
    <path
       style="fill:none;stroke:#000000;stroke-width:4;stroke-miterlimit:4;stroke-opacity:1;stroke-dasharray:none"
       d="m 119.88279,322.76133 c 41.93146,-4.70954 79.63806,10.55782 95.67568,53.02508"
       id="path9282"
       transform="translate(58.111379,33.172082)"
       sodipodi:nodetypes="cc" />
    <g
       id="g9325"
       transform="translate(210,48)">
      <g
         id="g9327"
         transform="matrix(0.8167838,0,0,-0.8167838,-142.93716,529.86342)"
         xml:space="preserve"
         stroke-miterlimit="10.433"
         fill-rule="even-odd"
         font-style="normal"
         font-variant="normal"
         font-weight="normal"
         font-stretch="normal"
         font-size-adjust="none"
         letter-spacing="normal"
         word-spacing="normal"
         style="font-style:normal;font-variant:normal;font-weight:normal;font-stretch:normal;letter-spacing:normal;word-spacing:normal;text-anchor:start;fill:none;stroke:#000000;stroke-linecap:butt;stroke-linejoin:miter;stroke-miterlimit:10.43299961;stroke-opacity:1;stroke-dasharray:none;stroke-dashoffset:0"><path
           d="m 475.73,424.93 -0.15,0 -0.15,0 -0.14,0 -0.14,-0.01 -0.14,-0.01 -0.14,-0.02 -0.07,-0.01 -0.07,-0.01 -0.07,-0.01 -0.07,-0.02 -0.06,-0.01 -0.07,-0.02 -0.07,-0.03 -0.07,-0.02 -0.06,-0.03 -0.07,-0.03 -0.07,-0.03 -0.06,-0.04 -0.07,-0.03 -0.06,-0.05 -0.07,-0.04 -0.06,-0.05 -0.07,-0.05 -0.06,-0.06 -0.07,-0.06 -0.06,-0.06 c -0.8,-0.75 -0.9,-1.59 -0.9,-1.94 0,-1.2 0.9,-1.74 1.84,-1.74 1.45,0 2.79,1.19 2.79,3.18 0,2.45 -2.34,4.29 -5.88,4.29 -6.72,0 -13.35,-7.13 -13.35,-14.15 0,-4.48 2.89,-8.42 8.07,-8.42 7.12,0 11.31,5.28 11.31,5.88 0,0.3 -0.3,0.65 -0.6,0.65 -0.25,0 -0.35,-0.1 -0.64,-0.5 -3.94,-4.93 -9.37,-4.93 -9.97,-4.93 -3.14,0 -4.48,2.44 -4.48,5.43 0,2.04 1,6.87 2.69,9.96 1.54,2.84 4.28,4.98 7.02,4.98 1.7,0 3.59,-0.65 4.29,-1.99 z"
           id="path9329"
           style="fill:#000000;stroke-width:0" /><path
           d="m 481.38,408.94 -0.01,-0.07 -0.02,-0.08 -0.01,-0.07 -0.02,-0.08 -0.03,-0.16 -0.04,-0.16 -0.04,-0.16 -0.03,-0.16 -0.04,-0.16 -0.04,-0.16 -0.01,-0.08 -0.02,-0.07 -0.02,-0.07 -0.01,-0.07 -0.02,-0.07 -0.01,-0.07 -0.01,-0.06 -0.02,-0.06 -0.01,-0.05 -0.01,-0.06 -0.01,-0.05 0,-0.04 -0.01,-0.04 0,-0.04 -0.01,-0.03 0,-0.02 c 0,-0.9 0.7,-1.35 1.45,-1.35 0.6,0 1.5,0.4 1.84,1.4 0.05,0.1 0.65,2.44 0.95,3.68 0.35,1.5 0.75,2.99 1.1,4.49 0.29,1.09 0.59,2.19 0.84,3.34 0.2,0.84 0.6,2.28 0.65,2.48 0.75,1.55 3.39,6.08 8.12,6.08 2.24,0 2.69,-1.84 2.69,-3.49 0,-1.24 -0.35,-2.64 -0.75,-4.13 -0.6,-2.54 -0.84,-3.54 -1.39,-5.78 -0.5,-1.84 -0.55,-2.14 -1,-3.79 -0.2,-0.99 -0.64,-2.68 -0.64,-2.93 0,-0.9 0.69,-1.35 1.44,-1.35 1.54,0 1.84,1.25 2.24,2.84 0.7,2.79 2.54,10.07 2.99,12.01 0.15,0.65 2.79,6.62 8.22,6.62 2.14,0 2.69,-1.69 2.69,-3.49 0,-2.84 -2.1,-8.51 -3.09,-11.15 -0.45,-1.2 -0.65,-1.75 -0.65,-2.74 0,-2.34 1.75,-4.09 4.09,-4.09 4.68,0 6.52,7.28 6.52,7.67 0,0.5 -0.45,0.5 -0.59,0.5 -0.5,0 -0.5,-0.15 -0.75,-0.89 -0.75,-2.64 -2.35,-6.18 -5.08,-6.18 -0.85,0 -1.2,0.5 -1.2,1.64 0,1.25 0.45,2.44 0.9,3.54 0.95,2.59 3.03,8.12 3.03,10.96 0,3.24 -1.99,5.33 -5.72,5.33 -3.74,0 -6.28,-2.2 -8.12,-4.84 -0.05,0.65 -0.2,2.35 -1.6,3.54 -1.24,1.05 -2.84,1.3 -4.08,1.3 -4.48,0 -6.92,-3.19 -7.77,-4.34 -0.25,2.84 -2.34,4.34 -4.58,4.34 -2.3,0 -3.24,-1.95 -3.69,-2.84 -0.9,-1.75 -1.54,-4.68 -1.54,-4.83 0,-0.5 0.49,-0.5 0.59,-0.5 0.5,0 0.55,0.05 0.85,1.14 0.84,3.54 1.84,5.93 3.64,5.93 0.79,0 1.54,-0.4 1.54,-2.29 0,-1.04 -0.15,-1.59 -0.8,-4.18 z"
           id="path9331"
           style="fill:#000000;stroke-width:0" /></g>    </g>
    <g
       id="g9453"
       transform="translate(220,214)">
      <g
         word-spacing="normal"
         letter-spacing="normal"
         font-size-adjust="none"
         font-stretch="normal"
         font-weight="normal"
         font-variant="normal"
         font-style="normal"
         fill-rule="even-odd"
         stroke-miterlimit="10.433"
         xml:space="preserve"
         transform="matrix(0.8167838,0,0,-0.8167838,-142.93716,529.86342)"
         id="g9455"
         style="font-style:normal;font-variant:normal;font-weight:normal;font-stretch:normal;letter-spacing:normal;word-spacing:normal;text-anchor:start;fill:none;stroke:#000000;stroke-linecap:butt;stroke-linejoin:miter;stroke-miterlimit:10.43299961;stroke-opacity:1;stroke-dasharray:none;stroke-dashoffset:0"><path
           id="path9457"
           d="m 460.38,408.94 -0.01,-0.07 -0.02,-0.08 -0.01,-0.07 -0.02,-0.08 -0.03,-0.16 -0.04,-0.16 -0.04,-0.16 -0.03,-0.16 -0.04,-0.16 -0.04,-0.16 -0.01,-0.08 -0.02,-0.07 -0.02,-0.07 -0.01,-0.07 -0.02,-0.07 -0.01,-0.07 -0.01,-0.06 -0.02,-0.06 -0.01,-0.05 -0.01,-0.06 -0.01,-0.05 0,-0.04 -0.01,-0.04 0,-0.04 -0.01,-0.03 0,-0.02 c 0,-0.9 0.7,-1.35 1.45,-1.35 0.6,0 1.5,0.4 1.84,1.4 0.05,0.1 0.65,2.44 0.95,3.68 0.35,1.5 0.75,2.99 1.1,4.49 0.29,1.09 0.59,2.19 0.84,3.34 0.2,0.84 0.6,2.28 0.65,2.48 0.75,1.55 3.39,6.08 8.12,6.08 2.24,0 2.69,-1.84 2.69,-3.49 0,-1.24 -0.35,-2.64 -0.75,-4.13 -0.6,-2.54 -0.84,-3.54 -1.39,-5.78 -0.5,-1.84 -0.55,-2.14 -1,-3.79 -0.2,-0.99 -0.64,-2.68 -0.64,-2.93 0,-0.9 0.69,-1.35 1.44,-1.35 1.54,0 1.84,1.25 2.24,2.84 0.7,2.79 2.54,10.07 2.99,12.01 0.15,0.65 2.79,6.62 8.22,6.62 2.14,0 2.69,-1.69 2.69,-3.49 0,-2.84 -2.1,-8.51 -3.09,-11.15 -0.45,-1.2 -0.65,-1.75 -0.65,-2.74 0,-2.34 1.75,-4.09 4.08,-4.09 4.69,0 6.53,7.28 6.53,7.67 0,0.5 -0.45,0.5 -0.6,0.5 -0.5,0 -0.5,-0.15 -0.74,-0.89 -0.75,-2.64 -2.35,-6.18 -5.08,-6.18 -0.85,0 -1.2,0.5 -1.2,1.64 0,1.25 0.45,2.44 0.9,3.54 0.94,2.59 3.03,8.12 3.03,10.96 0,3.24 -1.99,5.33 -5.72,5.33 -3.74,0 -6.28,-2.2 -8.12,-4.84 -0.05,0.65 -0.2,2.35 -1.6,3.54 -1.24,1.05 -2.84,1.3 -4.08,1.3 -4.48,0 -6.92,-3.19 -7.77,-4.34 -0.25,2.84 -2.34,4.34 -4.58,4.34 -2.3,0 -3.24,-1.95 -3.69,-2.84 -0.9,-1.75 -1.54,-4.68 -1.54,-4.83 0,-0.5 0.49,-0.5 0.59,-0.5 0.5,0 0.55,0.05 0.85,1.14 0.84,3.54 1.84,5.93 3.64,5.93 0.79,0 1.54,-0.4 1.54,-2.29 0,-1.04 -0.15,-1.59 -0.8,-4.18 z"
           style="fill:#000000;stroke-width:0" /><path
           id="path9459"
           d="m 522.46,424.78 0.01,0.06 0.01,0.05 0.01,0.05 0.02,0.06 0.02,0.1 0.01,0.06 0.02,0.05 0.01,0.05 0.01,0.06 0.01,0.05 0.01,0.06 0,0.06 0.01,0.06 0,0.03 0,0.03 0,0.03 0,0.04 c 0,0.84 -0.59,1.34 -1.44,1.34 -0.5,0 -1.85,-0.35 -2.05,-2.14 -0.89,1.84 -2.64,3.14 -4.63,3.14 l 0.05,-1.1 c 3.29,0 3.99,-4.03 3.99,-4.28 0,-0.25 -0.1,-0.55 -0.15,-0.75 l -2.4,-9.51 c -0.29,-1.3 -1.44,-2.54 -2.53,-3.49 -1.05,-0.9 -2.59,-1.79 -4.04,-1.79 -2.49,0 -3.24,2.59 -3.24,4.58 0,2.39 1.45,8.27 2.79,10.81 1.35,2.44 3.49,4.43 5.58,4.43 l -0.05,1.1 c -5.68,0 -11.85,-6.98 -11.85,-14.15 0,-4.93 3.04,-7.87 6.62,-7.87 2.94,0 5.28,2.34 5.78,2.89 l 0.05,-0.05 c -1.05,-4.43 -1.64,-6.48 -1.64,-6.57 -0.2,-0.45 -1.9,-5.39 -7.18,-5.39 -0.94,0 -2.59,0.05 -3.98,0.5 1.49,0.45 2.04,1.74 2.04,2.59 0,0.8 -0.55,1.74 -1.89,1.74 -1.1,0 -2.69,-0.89 -2.69,-2.88 0,-2.04 1.84,-3.04 6.62,-3.04 6.23,0 9.81,3.88 10.56,6.87 z"
           style="fill:#000000;stroke-width:0" /></g>    </g>
    <path
       sodipodi:type="arc"
       style="fill:#000000;fill-opacity:1;stroke:#000000;stroke-width:4;stroke-linecap:round;stroke-linejoin:round;stroke-miterlimit:4;stroke-opacity:1;stroke-dasharray:none;stroke-dashoffset:0"
       id="path9540"
       sodipodi:cx="361.9538"
       sodipodi:cy="223.62749"
       sodipodi:rx="13.832629"
       sodipodi:ry="13.832629"
       d="m 375.78643,223.62749 c 0,7.63561 -6.19702,13.83263 -13.83263,13.83263 -7.63561,0 -13.83263,-6.19702 -13.83263,-13.83263 0,-7.63561 6.19702,-13.83263 13.83263,-13.83263 7.63561,0 13.83263,6.19702 13.83263,13.83263 z"
       transform="translate(70.111379,41.172082)" />
    <path
       style="fill:none;stroke:#000000;stroke-width:2;stroke-miterlimit:4;stroke-opacity:1;stroke-dasharray:8, 8;stroke-dashoffset:0;marker-end:url(#Arrow1Lend-7-6)"
       d="m 274.34715,126.79908 c -28.17169,52.42175 -11.24244,88.02458 27.66526,164.83884"
       id="path9542"
       transform="translate(58.111379,33.172082)"
       sodipodi:nodetypes="cc" />
  </g>
  <path
     style="font-style:normal;font-variant:normal;font-weight:normal;font-stretch:normal;letter-spacing:normal;word-spacing:normal;text-anchor:start;fill:#000000;stroke:#000000;stroke-width:0;stroke-linecap:butt;stroke-linejoin:miter;stroke-miterlimit:10.43299961;stroke-opacity:1;stroke-dasharray:none;stroke-dashoffset:0"
     d="m 616.76395,98.89557 0.0408,0.23687 0.0408,0.2287 0.049,0.22053 0.0572,0.21236 0.0572,0.21237 0.0653,0.19603 0.0735,0.18786 0.0735,0.17969 0.0898,0.17969 0.0817,0.16336 0.098,0.15518 0.098,0.15519 0.10619,0.14702 0.10618,0.13069 0.11435,0.13069 0.12251,0.12251 0.12252,0.11435 0.13069,0.10618 0.13068,0.098 0.13886,0.0898 0.14702,0.0817 0.14702,0.0817 0.15519,0.0653 0.15519,0.0572 0.16335,0.0572 0.17153,0.049 0.17152,0.0408 0.17153,0.0327 0.17969,0.0245 0.18786,0.0163 0.18786,0.008 0.18786,0.008 c 2.40134,0 4.59849,-1.54372 6.22389,-3.78988 3.05477,-4.230937 3.83072,-10.373151 3.83072,-11.753515 0,-2.891415 -1.51105,-2.891415 -1.74792,-2.891415 -1.02098,0 -2.04196,1.061819 -2.04196,1.960281 0,0.522742 0.24504,0.767777 0.61259,1.09449 1.29869,1.339526 1.42937,2.64638 1.42937,3.536674 0,3.463164 -3.46316,8.911115 -7.73494,8.911115 -0.36755,0 -1.50288,0 -2.23799,-0.93114 -0.49007,-0.6535 -0.81678,-1.42945 -0.81678,-2.24623 0,-0.11435 0,-0.19603 0.24503,-0.64526 0.77595,-1.829595 1.3477,-4.067583 1.3477,-4.598493 0,-0.49007 -0.28588,-0.939301 -0.85763,-0.939301 -0.44106,0 -0.80861,0.367553 -1.13533,1.02098 -0.0817,0.204196 -0.57175,1.992952 -0.85762,4.108422 -0.0817,0.735102 -0.0817,0.816782 -0.36755,1.094492 -1.78876,2.48302 -3.65919,3.13645 -5.04773,3.13645 -2.67905,0 -3.57751,-2.23799 -3.57751,-4.639334 0,-3.046603 1.51105,-6.428088 3.42232,-9.156146 0.4084,-0.563581 0.4084,-0.645259 0.4084,-0.767777 0,-0.326713 -0.25321,-0.49007 -0.49007,-0.49007 -0.65343,0 -2.52387,3.577513 -3.09561,4.884367 -1.50289,3.618352 -1.54373,6.959 -1.54373,7.31838 0,3.25897 1.21701,5.78283 4.31262,5.78283 2.63821,0 4.5985,-1.87043 5.89718,-3.78988 z"
     id="path8712" />
  <g
     transform="translate(-3.852586,-14.839411)"
     id="g8913">
    <polygon
       id="polygon8716"
       points="630.45,437.98 636.18,432.9 637.08,433.8 630.45,440.57 623.78,433.8 624.68,432.9 "
       style="font-style:normal;font-variant:normal;font-weight:normal;font-stretch:normal;letter-spacing:normal;word-spacing:normal;text-anchor:start;fill:#000000;stroke:#000000;stroke-width:0;stroke-linecap:butt;stroke-linejoin:miter;stroke-miterlimit:10.43299961;stroke-opacity:1;stroke-dasharray:none;stroke-dashoffset:0"
       transform="matrix(0.8167838,0,0,-0.8167838,-501.15667,682.68985)" />
    <path
       id="path8718"
       d="m 9.594576,341.67445 0.11435,0 0.122517,0 0.138853,0 0.147021,0 0.147022,-0.008 0.163356,0 0.171525,-0.008 0.171524,-0.008 0.187861,-0.008 0.18786,-0.008 0.196028,-0.0163 0.196028,-0.008 0.204196,-0.0163 0.212364,-0.0245 0.424728,-0.0408 0.441063,-0.049 0.441063,-0.0653 0.449231,-0.0735 0.441063,-0.0899 0.432896,-0.10619 0.220531,-0.0572 0.204196,-0.0572 0.212364,-0.0653 0.204196,-0.0735 0.196028,-0.0735 0.196028,-0.0735 c 2.842408,-1.22517 3.046604,-3.62652 3.046604,-4.19827 0,-1.78875 -1.543721,-3.45499 -4.353458,-3.45499 l 0,0.89846 c 1.911274,0 3.013933,1.17617 3.013933,2.55653 0,4.23911 -6.509767,4.23911 -8.176006,4.23911 l -1.674407,0 c 1.592728,-6.19122 5.782829,-6.79564 6.83648,-6.79564 l 0,-0.89846 c -4.516814,0 -10.659028,3.95323 -10.659028,11.06742 0,4.14926 2.401344,7.36739 6.387249,7.36739 5.815501,0 9.237825,-4.31262 9.237825,-4.80269 0,-0.24503 -0.245035,-0.53091 -0.49007,-0.53091 -0.204196,0 -0.285875,0.0817 -0.522742,0.40839 -3.218128,4.02675 -7.653264,4.02675 -8.143335,4.02675 -3.169121,0 -3.536673,-3.41416 -3.536673,-4.72101 0,-0.49007 0.04084,-1.74792 0.653427,-4.23094 z"
       style="font-style:normal;font-variant:normal;font-weight:normal;font-stretch:normal;letter-spacing:normal;word-spacing:normal;text-anchor:start;fill:#000000;stroke:#000000;stroke-width:0;stroke-linecap:butt;stroke-linejoin:miter;stroke-miterlimit:10.43299961;stroke-opacity:1;stroke-dasharray:none;stroke-dashoffset:0" />
    <path
       id="path8720"
       d="m 28.54396,347.28575 0.204196,0 0.204196,0.0163 0.196028,0.0163 0.196028,0.0327 0.18786,0.0408 0.187861,0.049 0.179692,0.0572 0.179693,0.0735 0.171524,0.0735 0.163357,0.0898 0.155189,0.0898 0.155189,0.10618 0.147021,0.10618 0.147021,0.12252 0.138853,0.13069 0.122518,0.13885 0.130685,0.14702 0.11435,0.16336 0.106182,0.16335 0.106182,0.17153 0.09801,0.18786 0.08985,0.18786 0.07351,0.20419 0.07351,0.21237 0.06534,0.22053 0.05718,0.2287 0.04901,0.23687 0.04084,0.24503 0.03267,0.25321 0.0245,0.26137 0.01633,0.26953 0,0.28588 c 0,3.52851 -2.050127,4.58216 -3.70003,4.58216 -1.13533,0 -3.642856,-0.31038 -4.843528,-1.99296 1.339525,-0.0572 1.649903,-0.99647 1.649903,-1.59272 0,-0.9148 -0.677931,-1.56823 -1.560057,-1.56823 -0.800448,0 -1.600896,0.4819 -1.600896,1.6499 0,2.67906 2.964925,4.4188 6.411753,4.4188 3.953233,0 6.689459,-2.65454 6.689459,-5.49695 0,-2.22165 -1.821428,-4.4433 -4.957878,-5.09673 2.997597,-1.08632 4.075751,-3.21813 4.075751,-4.95788 0,-2.25432 -2.589204,-3.92873 -5.750158,-3.92873 -3.160953,0 -5.578633,1.53555 -5.578633,3.81438 0,0.96381 0.620756,1.51105 1.478379,1.51105 0.882126,0 1.445707,-0.65343 1.445707,-1.45387 0,-0.82496 -0.563581,-1.42938 -1.445707,-1.47838 0.996476,-1.25785 2.956757,-1.56823 4.018576,-1.56823 1.274183,0 3.071107,0.62076 3.071107,3.10378 0,1.1925 -0.400224,2.50753 -1.135329,3.38965 -0.94747,1.07816 -1.73975,1.13533 -3.160954,1.22518 -0.718769,0.0572 -0.775944,0.0572 -0.914797,0.0817 -0.05718,0 -0.285875,0.0572 -0.285875,0.37572 0,0.40022 0.253203,0.40022 0.743273,0.40022 z"
       style="font-style:normal;font-variant:normal;font-weight:normal;font-stretch:normal;letter-spacing:normal;word-spacing:normal;text-anchor:start;fill:#000000;stroke:#000000;stroke-width:0;stroke-linecap:butt;stroke-linejoin:miter;stroke-miterlimit:10.43299961;stroke-opacity:1;stroke-dasharray:none;stroke-dashoffset:0" />
  </g>
  <polygon
     transform="matrix(0.8167838,0,0,-0.8167838,-385.00925,909.85044)"
     style="font-style:normal;font-variant:normal;font-weight:normal;font-stretch:normal;letter-spacing:normal;word-spacing:normal;text-anchor:start;fill:#000000;stroke:#000000;stroke-width:0;stroke-linecap:butt;stroke-linejoin:miter;stroke-miterlimit:10.43299961;stroke-opacity:1;stroke-dasharray:none;stroke-dashoffset:0"
     points="682.08,433.8 675.45,440.57 668.78,433.8 669.68,432.9 675.45,437.98 681.18,432.9 "
     id="polygon8722" />
  <path
     style="font-style:normal;font-variant:normal;font-weight:normal;font-stretch:normal;letter-spacing:normal;word-spacing:normal;text-anchor:start;fill:#000000;stroke:#000000;stroke-width:0;stroke-linecap:butt;stroke-linejoin:miter;stroke-miterlimit:10.43299961;stroke-opacity:1;stroke-dasharray:none;stroke-dashoffset:0"
     d="m 162.49725,568.83504 0.11435,0 0.12252,0 0.13885,0 0.14702,0 0.14702,-0.008 0.16336,0 0.17152,-0.008 0.17154,-0.008 0.18786,-0.008 0.18786,-0.008 0.19601,-0.0163 0.19603,-0.008 0.20421,-0.0163 0.21235,-0.0245 0.42474,-0.0408 0.44105,-0.049 0.44107,-0.0653 0.44923,-0.0735 0.44106,-0.0899 0.4329,-0.10619 0.22053,-0.0572 0.20419,-0.0572 0.21237,-0.0653 0.20419,-0.0735 0.19603,-0.0735 0.19603,-0.0735 c 2.84242,-1.22517 3.0466,-3.62652 3.0466,-4.19827 0,-1.78875 -1.54372,-3.45499 -4.35345,-3.45499 l 0,0.89846 c 1.91127,0 3.01393,1.17617 3.01393,2.55653 0,4.23911 -6.50977,4.23911 -8.17601,4.23911 l -1.6744,0 c 1.59272,-6.19122 5.78282,-6.79564 6.83648,-6.79564 l 0,-0.89846 c -4.51682,0 -10.65902,3.95323 -10.65902,11.06742 0,4.14926 2.40134,7.36739 6.38724,7.36739 5.8155,0 9.23782,-4.31262 9.23782,-4.80269 0,-0.24503 -0.24503,-0.53091 -0.49007,-0.53091 -0.2042,0 -0.28586,0.0817 -0.52274,0.40839 -3.21813,4.02675 -7.65327,4.02675 -8.14334,4.02675 -3.16911,0 -3.53666,-3.41416 -3.53666,-4.72101 0,-0.49007 0.0408,-1.74792 0.65342,-4.23094 z"
     id="path8724" />
  <path
     style="font-style:normal;font-variant:normal;font-weight:normal;font-stretch:normal;letter-spacing:normal;word-spacing:normal;text-anchor:start;fill:#000000;stroke:#000000;stroke-width:0;stroke-linecap:butt;stroke-linejoin:miter;stroke-miterlimit:10.43299961;stroke-opacity:1;stroke-dasharray:none;stroke-dashoffset:0"
     d="m 183.2109,565.83744 0,-0.0327 0,-0.0327 0,-0.0327 0,-0.0327 0,-0.0327 0,-0.0327 0,-0.0245 0,-0.0327 -0.008,-0.0245 0,-0.0245 0,-0.0327 0,-0.0245 -0.008,-0.0163 0,-0.0245 0,-0.0245 -0.008,-0.0245 0,-0.0163 0,-0.0163 -0.0163,-0.0408 -0.008,-0.0327 -0.008,-0.0327 -0.0163,-0.0245 -0.0163,-0.0245 -0.0163,-0.0245 -0.0245,-0.0245 -0.0163,-0.0163 -0.0245,-0.0163 -0.0327,-0.0163 -0.0245,-0.008 -0.0327,-0.008 -0.0408,-0.0163 -0.0408,0 -0.0163,-0.008 -0.0245,0 -0.0245,-0.008 -0.0163,0 -0.0245,0 -0.0245,0 -0.0327,0 -0.0245,-0.008 -0.0245,0 -0.0327,0 -0.0245,0 -0.0327,0 -0.0327,0 -0.0327,0 -0.0327,0 -0.0327,0 -0.0408,0 -0.0327,0 c -1.82959,1.78876 -4.4188,1.82143 -5.5868,1.82143 l 0,1.02098 c 0.6861,0 2.5647,0 4.12476,-0.79228 l 0,14.52241 c 0,0.9393 0,1.31502 -2.84241,1.31502 l -1.08632,0 0,1.02098 10.16896,0 0,-1.02098 -1.07815,0 c -2.85058,0 -2.85058,-0.37572 -2.85058,-1.31502 z"
     id="path8726" />
  <g
     id="g3550"
     transform="translate(16.910175,3.2296028)">
    <g
       id="g8880"
       transform="translate(485.23724,-36.069014)">
      <polygon
         transform="matrix(0.8167838,0,0,-0.8167838,-469.15667,392.68985)"
         style="font-style:normal;font-variant:normal;font-weight:normal;font-stretch:normal;letter-spacing:normal;word-spacing:normal;text-anchor:start;fill:#000000;stroke:#000000;stroke-width:0;stroke-linecap:butt;stroke-linejoin:miter;stroke-miterlimit:10.43299961;stroke-opacity:1;stroke-dasharray:none;stroke-dashoffset:0"
         points="715.68,432.9 721.45,437.98 727.18,432.9 728.08,433.8 721.45,440.57 714.78,433.8 "
         id="polygon8728" />
      <path
         style="font-style:normal;font-variant:normal;font-weight:normal;font-stretch:normal;letter-spacing:normal;word-spacing:normal;text-anchor:start;fill:#000000;stroke:#000000;stroke-width:0;stroke-linecap:butt;stroke-linejoin:miter;stroke-miterlimit:10.43299961;stroke-opacity:1;stroke-dasharray:none;stroke-dashoffset:0"
         d="m 115.9219,51.674446 0.11435,0 0.12252,0 0.13885,0 0.14702,0 0.14702,-0.0082 0.16336,0 0.17153,-0.0082 0.17152,-0.0082 0.18786,-0.0082 0.18786,-0.0082 0.19603,-0.01633 0.19603,-0.0082 0.20419,-0.01634 0.21237,-0.0245 0.42472,-0.04084 0.44107,-0.04901 0.44106,-0.06534 0.44923,-0.07351 0.44107,-0.08985 0.43289,-0.106182 0.22053,-0.05718 0.2042,-0.05717 0.21236,-0.06534 0.2042,-0.07351 0.19603,-0.07351 0.19602,-0.07351 c 2.84241,-1.225176 3.04661,-3.62652 3.04661,-4.198269 0,-1.788756 -1.54372,-3.454995 -4.35346,-3.454995 l 0,0.898462 c 1.91127,0 3.01393,1.176169 3.01393,2.556533 0,4.239108 -6.50976,4.239108 -8.176,4.239108 l -1.67441,0 c 1.59273,-6.191221 5.78283,-6.795641 6.83648,-6.795641 l 0,-0.898462 c -4.51681,0 -10.65903,3.953234 -10.65903,11.06742 0,4.149262 2.40135,7.36739 6.38725,7.36739 5.8155,0 9.23783,-4.312618 9.23783,-4.802688 0,-0.245036 -0.24504,-0.53091 -0.49007,-0.53091 -0.2042,0 -0.28588,0.08168 -0.52275,0.408392 -3.21812,4.026744 -7.65326,4.026744 -8.14333,4.026744 -3.16912,0 -3.53667,-3.414156 -3.53667,-4.72101 0,-0.490071 0.0408,-1.747918 0.65342,-4.23094 z"
         id="path8730" />
      <path
         style="font-style:normal;font-variant:normal;font-weight:normal;font-stretch:normal;letter-spacing:normal;word-spacing:normal;text-anchor:start;fill:#000000;stroke:#000000;stroke-width:0;stroke-linecap:butt;stroke-linejoin:miter;stroke-miterlimit:10.43299961;stroke-opacity:1;stroke-dasharray:none;stroke-dashoffset:0"
         d="m 141.47907,61.606537 -0.97198,0 c -0.0817,0.628923 -0.36755,2.311498 -0.7351,2.597372 -0.2287,0.171525 -2.42585,0.171525 -2.81791,0.171525 l -5.24375,0 c 2.98943,-2.654548 3.98591,-3.446828 5.69299,-4.786353 2.1073,-1.682575 4.07575,-3.446828 4.07575,-6.15855 0,-3.43866 -3.0221,-5.545962 -6.66496,-5.545962 -3.53667,0 -5.92168,2.474855 -5.92168,5.096731 0,1.453875 1.22517,1.592728 1.50288,1.592728 0.6861,0 1.51922,-0.481902 1.51922,-1.51105 0,-0.506406 -0.2042,-1.51105 -1.68258,-1.51105 0.88213,-2.017456 2.81791,-2.646379 4.15743,-2.646379 2.84241,0 4.32896,2.221652 4.32896,4.524982 0,2.483023 -1.76426,4.451472 -2.67905,5.472451 l -6.86099,6.779306 c -0.28587,0.253203 -0.28587,0.310378 -0.28587,1.110826 l 11.72901,0 z"
         id="path8732" />
    </g>
  </g>
  <g
     id="g8876"
     transform="translate(-9.852586,-2.8394106)">
    <path
       id="path8734"
       d="m 292.6312,86.247966 -0.0572,0.04901 -0.0572,0.05717 -0.0653,0.05718 -0.0653,0.05718 -0.0735,0.06534 -0.0735,0.06534 -0.0735,0.07351 -0.0735,0.07351 -0.0817,0.07351 -0.0735,0.07351 -0.16335,0.155189 -0.15519,0.155189 -0.15519,0.171525 -0.0735,0.08168 -0.0735,0.08168 -0.0735,0.08168 -0.0653,0.08985 -0.0654,0.08168 -0.0653,0.08168 -0.0572,0.08168 -0.049,0.08168 -0.049,0.08168 -0.0408,0.08168 -0.0408,0.08168 -0.0327,0.07351 -0.0245,0.08168 -0.0163,0.07351 -0.0163,0.07351 0,0.06534 c 0,0.408392 0.40839,0.816784 0.81678,0.816784 0.35939,0 0.56358,-0.285874 0.76778,-0.530909 0.49007,-0.612588 1.4212,-1.747918 3.20996,-2.64638 0.29404,-0.163357 0.69426,-0.367553 0.69426,-0.857623 0,-0.400224 -0.28587,-0.60442 -0.56358,-0.808616 -0.89846,-0.612588 -1.34769,-1.339525 -1.66624,-2.319666 -0.0898,-0.367552 -0.2532,-0.898462 -0.81678,-0.898462 -0.57175,0 -0.81678,0.53091 -0.81678,0.857623 0,0.204196 0.32671,1.502882 0.98014,2.360505 l -13.7138,0 c -0.69427,0 -1.42121,0 -1.42121,0.808616 0,0.816784 0.72694,0.816784 1.42121,0.816784 z"
       style="font-style:normal;font-variant:normal;font-weight:normal;font-stretch:normal;letter-spacing:normal;word-spacing:normal;text-anchor:start;fill:#000000;stroke:#000000;stroke-width:0;stroke-linecap:butt;stroke-linejoin:miter;stroke-miterlimit:10.43299961;stroke-opacity:1;stroke-dasharray:none;stroke-dashoffset:0" />
    <path
       id="path8736"
       d="m 286.17861,107.23931 0.39206,-0.0898 0.38388,-0.098 0.40023,-0.11435 0.39205,-0.12252 0.39206,-0.13068 0.39206,-0.14702 0.39205,-0.15519 0.39206,-0.16336 0.38389,-0.17969 0.37572,-0.18786 0.37572,-0.19603 0.36755,-0.2042 0.35939,-0.22053 0.35121,-0.2287 0.34305,-0.23686 0.32672,-0.24504 0.31854,-0.2532 0.30221,-0.26137 0.28588,-0.27771 0.2777,-0.28587 0.26137,-0.28588 0.23687,-0.30221 0.2287,-0.31038 0.2042,-0.31854 0.17969,-0.32672 0.16335,-0.33488 0.13886,-0.34305 0.12252,-0.35121 0.0898,-0.35939 0.0653,-0.36755 0.0408,-0.367553 0.0163,-0.383889 c 0,-3.504002 -3.65919,-6.101375 -8.99279,-6.101375 l -11.59833,0 c -0.80862,0 -1.17617,0 -1.17617,0.808616 0,0.449231 0.36755,0.449231 1.1435,0.449231 0.0817,0 0.84945,0 1.54372,0.08168 0.73511,0.08168 1.09449,0.122517 1.09449,0.653427 0,0.163357 -0.0327,0.285874 -0.16336,0.767777 l -5.44794,21.848966 c -0.4084,1.59273 -0.49007,1.91944 -3.70004,1.91944 -0.7351,0 -1.10265,0 -1.10265,0.80862 0,0.44923 0.49007,0.44923 0.57175,0.44923 l 10.29147,0 c 0.32671,0 0.81678,0 0.81678,-0.81679 0,-0.44106 -0.36755,-0.44106 -1.13532,-0.44106 -1.51105,0 -2.64638,0 -2.64638,-0.7351 0,-0.24504 0.0735,-0.44923 0.11435,-0.69427 l 2.69538,-10.78155 4.83536,0 -0.0408,-0.89846 -4.55765,0 2.64638,-10.618187 c 0.24503,-0.971973 0.36755,-1.380365 1.13533,-1.502882 0.36755,-0.04084 1.67441,-0.04084 2.48302,-0.04084 2.89142,0 7.40823,0 7.40823,4.026745 0,1.388532 -0.65343,4.198264 -2.23799,5.782824 -1.05365,1.05366 -3.21813,2.35234 -6.87732,2.35234 l 0.0408,0.89846 c 3.70003,0 4.43514,2.27883 4.43514,3.70003 0,0.61259 -0.32672,1.87861 -0.57175,2.80974 -0.28587,1.1435 -0.64526,2.64638 -0.64526,3.455 0,4.40246 4.8762,4.40246 5.40711,4.40246 3.46316,0 4.88437,-4.10842 4.88437,-4.68017 0,-0.49007 -0.44923,-0.49007 -0.49007,-0.49007 -0.36756,0 -0.44107,0.28587 -0.53091,0.57175 -1.01282,3.00576 -2.76073,3.70003 -3.70003,3.70003 -1.33953,0 -1.6254,-0.89846 -1.6254,-2.48302 0,-1.25785 0.24503,-3.33248 0.40839,-4.63934 0.0817,-0.56358 0.15519,-1.33952 0.15519,-1.91127 0,-3.12828 -2.71989,-4.3943 -3.82255,-4.80269 z"
       style="font-style:normal;font-variant:normal;font-weight:normal;font-stretch:normal;letter-spacing:normal;word-spacing:normal;text-anchor:start;fill:#000000;stroke:#000000;stroke-width:0;stroke-linecap:butt;stroke-linejoin:miter;stroke-miterlimit:10.43299961;stroke-opacity:1;stroke-dasharray:none;stroke-dashoffset:0" />
  </g>
</svg>
