<?xml version="1.0" encoding="UTF-8" standalone="no"?>
<!-- Created with Inkscape (http://www.inkscape.org/) -->
<svg
   xmlns:dc="http://purl.org/dc/elements/1.1/"
   xmlns:cc="http://creativecommons.org/ns#"
   xmlns:rdf="http://www.w3.org/1999/02/22-rdf-syntax-ns#"
   xmlns:svg="http://www.w3.org/2000/svg"
   xmlns="http://www.w3.org/2000/svg"
   xmlns:sodipodi="http://sodipodi.sourceforge.net/DTD/sodipodi-0.dtd"
   xmlns:inkscape="http://www.inkscape.org/namespaces/inkscape"
   width="827.68274"
   height="758.08386"
   id="svg2"
   sodipodi:version="0.32"
   inkscape:version="0.46+devel"
   sodipodi:docname="c39d1.svg"
   inkscape:output_extension="org.inkscape.output.svg.inkscape"
   version="1.0">
  <sodipodi:namedview
     id="base"
     pagecolor="#ffffff"
     bordercolor="#666666"
     borderopacity="1.0"
     inkscape:pageopacity="0.0"
     inkscape:pageshadow="2"
     inkscape:zoom="0.58106595"
     inkscape:cx="402.73962"
     inkscape:cy="333.00304"
     inkscape:document-units="px"
     inkscape:current-layer="layer1"
     showgrid="false"
     inkscape:window-width="1280"
     inkscape:window-height="712"
     inkscape:window-x="-5"
     inkscape:window-y="-3" />
  <defs
     id="defs4">
    <marker
       inkscape:stockid="Arrow1Lstart"
       orient="auto"
       refY="0"
       refX="0"
       id="Arrow1Lstart"
       style="overflow:visible">
      <path
         id="path4484"
         d="M 0,0 5,-5 -12.5,0 5,5 0,0 z"
         style="fill-rule:evenodd;stroke:#000000;stroke-width:1pt;marker-start:none"
         transform="matrix(0.8,0,0,0.8,10,0)" />
    </marker>
    <marker
       inkscape:stockid="Arrow1Lend"
       orient="auto"
       refY="0"
       refX="0"
       id="Arrow1Lend"
       style="overflow:visible">
      <path
         id="path4487"
         d="M 0,0 5,-5 -12.5,0 5,5 0,0 z"
         style="fill-rule:evenodd;stroke:#000000;stroke-width:1pt;marker-start:none"
         transform="matrix(-0.8,0,0,-0.8,-10,0)" />
    </marker>
    <inkscape:perspective
       sodipodi:type="inkscape:persp3d"
       inkscape:vp_x="0 : 526.18109 : 1"
       inkscape:vp_y="0 : 1000 : 0"
       inkscape:vp_z="744.09448 : 526.18109 : 1"
       inkscape:persp3d-origin="372.04724 : 350.78739 : 1"
       id="perspective10" />
    <inkscape:perspective
       id="perspective7596"
       inkscape:persp3d-origin="0.5 : 0.33333333 : 1"
       inkscape:vp_z="1 : 0.5 : 1"
       inkscape:vp_y="0 : 1000 : 0"
       inkscape:vp_x="0 : 0.5 : 1"
       sodipodi:type="inkscape:persp3d" />
    <marker
       inkscape:stockid="Arrow1Lend"
       orient="auto"
       refY="0"
       refX="0"
       id="Arrow1Lend-9"
       style="overflow:visible">
      <path
         id="path4487-4"
         d="M 0,0 5,-5 -12.5,0 5,5 0,0 z"
         style="fill-rule:evenodd;stroke:#000000;stroke-width:1pt;marker-start:none"
         transform="matrix(-0.8,0,0,-0.8,-10,0)" />
    </marker>
    <inkscape:perspective
       id="perspective7624"
       inkscape:persp3d-origin="0.5 : 0.33333333 : 1"
       inkscape:vp_z="1 : 0.5 : 1"
       inkscape:vp_y="0 : 1000 : 0"
       inkscape:vp_x="0 : 0.5 : 1"
       sodipodi:type="inkscape:persp3d" />
    <marker
       inkscape:stockid="Arrow1Lend"
       orient="auto"
       refY="0"
       refX="0"
       id="Arrow1Lend-0"
       style="overflow:visible">
      <path
         id="path4487-9"
         d="M 0,0 5,-5 -12.5,0 5,5 0,0 z"
         style="fill-rule:evenodd;stroke:#000000;stroke-width:1pt;marker-start:none"
         transform="matrix(-0.8,0,0,-0.8,-10,0)" />
    </marker>
    <inkscape:perspective
       id="perspective7652"
       inkscape:persp3d-origin="0.5 : 0.33333333 : 1"
       inkscape:vp_z="1 : 0.5 : 1"
       inkscape:vp_y="0 : 1000 : 0"
       inkscape:vp_x="0 : 0.5 : 1"
       sodipodi:type="inkscape:persp3d" />
    <marker
       inkscape:stockid="Arrow1Lend"
       orient="auto"
       refY="0"
       refX="0"
       id="Arrow1Lend-7"
       style="overflow:visible">
      <path
         id="path4487-7"
         d="M 0,0 5,-5 -12.5,0 5,5 0,0 z"
         style="fill-rule:evenodd;stroke:#000000;stroke-width:1pt;marker-start:none"
         transform="matrix(-0.8,0,0,-0.8,-10,0)" />
    </marker>
    <inkscape:perspective
       id="perspective7680"
       inkscape:persp3d-origin="0.5 : 0.33333333 : 1"
       inkscape:vp_z="1 : 0.5 : 1"
       inkscape:vp_y="0 : 1000 : 0"
       inkscape:vp_x="0 : 0.5 : 1"
       sodipodi:type="inkscape:persp3d" />
    <marker
       inkscape:stockid="Arrow1Lend"
       orient="auto"
       refY="0"
       refX="0"
       id="Arrow1Lend-1"
       style="overflow:visible">
      <path
         id="path4487-5"
         d="M 0,0 5,-5 -12.5,0 5,5 0,0 z"
         style="fill-rule:evenodd;stroke:#000000;stroke-width:1pt;marker-start:none"
         transform="matrix(-0.8,0,0,-0.8,-10,0)" />
    </marker>
  </defs>
  <metadata
     id="metadata7">
    <rdf:RDF>
      <cc:Work
         rdf:about="">
        <dc:format>image/svg+xml</dc:format>
        <dc:type
           rdf:resource="http://purl.org/dc/dcmitype/StillImage" />
        <dc:title />
      </cc:Work>
    </rdf:RDF>
  </metadata>
  <g
     inkscape:label="Layer 1"
     inkscape:groupmode="layer"
     id="layer1"
     transform="translate(182.68373,-22.207231)">
    <g
       id="g6050"
       transform="translate(258,280)">
      <g
         id="content"
         transform="matrix(1.225604,0,0,-1.225604,-214.4807,662.01118)"
         xml:space="preserve"
         stroke-miterlimit="10.433"
         fill-rule="even-odd"
         font-style="normal"
         font-variant="normal"
         font-weight="normal"
         font-stretch="normal"
         font-size-adjust="none"
         letter-spacing="normal"
         word-spacing="normal"
         style="font-style:normal;font-variant:normal;font-weight:normal;font-stretch:normal;letter-spacing:normal;word-spacing:normal;text-anchor:start;fill:none;stroke:#000000;stroke-linecap:butt;stroke-linejoin:miter;stroke-miterlimit:10.43299961;stroke-opacity:1;stroke-dasharray:none;stroke-dashoffset:0"><path
           d="m 484.75,448.64 -0.07,-0.06 -0.07,-0.07 -0.08,-0.07 -0.08,-0.07 -0.09,-0.08 -0.09,-0.08 -0.09,-0.09 -0.09,-0.09 -0.1,-0.09 -0.09,-0.09 -0.2,-0.19 -0.19,-0.19 -0.19,-0.21 -0.09,-0.1 -0.09,-0.1 -0.09,-0.1 -0.08,-0.11 -0.08,-0.1 -0.08,-0.1 -0.07,-0.1 -0.06,-0.1 -0.06,-0.1 -0.05,-0.1 -0.05,-0.1 -0.04,-0.09 -0.03,-0.1 -0.02,-0.09 -0.02,-0.09 0,-0.08 c 0,-0.5 0.5,-1 1,-1 0.44,0 0.69,0.35 0.94,0.65 0.6,0.75 1.74,2.14 3.94,3.24 0.35,0.2 0.84,0.45 0.84,1.05 0,0.49 -0.34,0.74 -0.69,0.99 -1.1,0.75 -1.65,1.64 -2.05,2.84 -0.1,0.45 -0.3,1.1 -0.99,1.1 -0.7,0 -1,-0.65 -1,-1.05 0,-0.25 0.4,-1.84 1.2,-2.89 h -16.79 c -0.85,0 -1.74,0 -1.74,-0.99 0,-1 0.89,-1 1.74,-1 z"
           id="path6053"
           style="fill:#000000;stroke-width:0" /><path
           d="m 474.63,436.14 0.04,0.16 0.04,0.16 0.04,0.15 0.04,0.14 0.05,0.14 0.04,0.13 0.05,0.12 0.06,0.12 0.05,0.11 0.07,0.1 0.07,0.1 0.08,0.1 0.09,0.08 0.1,0.08 0.11,0.08 0.12,0.07 0.14,0.06 0.14,0.06 0.16,0.06 0.18,0.05 0.09,0.02 0.1,0.02 0.1,0.03 0.11,0.02 0.11,0.01 0.12,0.02 0.12,0.02 0.12,0.01 0.13,0.02 0.14,0.01 0.14,0.01 0.14,0.01 0.15,0.01 0.16,0.01 0.16,0.01 0.17,0.01 0.17,0.01 0.18,0 0.18,0.01 0.19,0 0.2,0 0.2,0.01 0.21,0 0.22,0 c 1.5,0 1.89,0 1.89,0.95 0,0.59 -0.55,0.59 -0.79,0.59 h -14 c -0.35,0 -0.95,0 -0.95,-0.99 0,-0.55 0.45,-0.55 1.4,-0.55 0.1,0 1.04,0 1.89,-0.1 0.9,-0.1 1.35,-0.15 1.35,-0.8 0,-0.2 -0.06,-0.35 -0.2,-0.94 l -6.68,-26.75 c -0.5,-1.95 -0.6,-2.35 -4.53,-2.35 -0.85,0 -1.35,0 -1.35,-0.99 0,-0.55 0.45,-0.55 1.35,-0.55 h 23.06 c 1.2,0 1.25,0 1.54,0.85 l 3.94,10.76 c 0.2,0.55 0.2,0.64 0.2,0.69 0,0.2 -0.15,0.55 -0.6,0.55 -0.45,0 -0.5,-0.25 -0.84,-1.05 -1.7,-4.58 -3.89,-10.26 -12.51,-10.26 h -4.68 c -0.7,0 -0.8,0 -1.1,0.05 -0.5,0.05 -0.64,0.11 -0.64,0.5 0,0.15 0,0.25 0.25,1.15 z"
           id="path6055"
           style="fill:#000000;stroke-width:0" /></g>    </g>
    <g
       id="g6129"
       transform="translate(257.14286,54.285714)">
      <g
         word-spacing="normal"
         letter-spacing="normal"
         font-size-adjust="none"
         font-stretch="normal"
         font-weight="normal"
         font-variant="normal"
         font-style="normal"
         fill-rule="even-odd"
         stroke-miterlimit="10.433"
         xml:space="preserve"
         transform="matrix(1.225604,0,0,-1.225604,-214.4807,662.01118)"
         id="g6131"
         style="font-style:normal;font-variant:normal;font-weight:normal;font-stretch:normal;letter-spacing:normal;word-spacing:normal;text-anchor:start;fill:none;stroke:#000000;stroke-linecap:butt;stroke-linejoin:miter;stroke-miterlimit:10.43299961;stroke-opacity:1;stroke-dasharray:none;stroke-dashoffset:0"><path
           id="path6133"
           d="m 482.75,435.64 -0.07,-0.06 -0.07,-0.07 -0.08,-0.07 -0.08,-0.07 -0.09,-0.08 -0.09,-0.08 -0.09,-0.09 -0.09,-0.09 -0.1,-0.09 -0.09,-0.09 -0.2,-0.19 -0.19,-0.19 -0.19,-0.21 -0.09,-0.1 -0.09,-0.1 -0.09,-0.1 -0.08,-0.11 -0.08,-0.1 -0.08,-0.1 -0.07,-0.1 -0.06,-0.1 -0.06,-0.1 -0.05,-0.1 -0.05,-0.1 -0.04,-0.09 -0.03,-0.1 -0.02,-0.09 -0.02,-0.09 0,-0.08 c 0,-0.5 0.5,-1 1,-1 0.44,0 0.69,0.35 0.94,0.65 0.6,0.75 1.74,2.14 3.94,3.24 0.35,0.2 0.84,0.45 0.84,1.05 0,0.49 -0.34,0.74 -0.69,0.99 -1.1,0.75 -1.65,1.64 -2.05,2.84 -0.1,0.45 -0.3,1.1 -0.99,1.1 -0.7,0 -1,-0.65 -1,-1.05 0,-0.25 0.4,-1.84 1.2,-2.89 h -16.79 c -0.85,0 -1.74,0 -1.74,-0.99 0,-1 0.89,-1 1.74,-1 z"
           style="fill:#000000;stroke-width:0" /><path
           id="path6135"
           d="m 469.15,410.09 0.05,-0.29 0.05,-0.28 0.06,-0.27 0.07,-0.26 0.07,-0.26 0.08,-0.24 0.09,-0.23 0.09,-0.22 0.11,-0.22 0.1,-0.2 0.12,-0.19 0.12,-0.19 0.13,-0.18 0.13,-0.16 0.14,-0.16 0.15,-0.15 0.15,-0.14 0.16,-0.13 0.16,-0.12 0.17,-0.11 0.18,-0.1 0.18,-0.1 0.19,-0.08 0.19,-0.07 0.2,-0.07 0.21,-0.06 0.21,-0.05 0.21,-0.04 0.22,-0.03 0.23,-0.02 0.23,-0.01 0.23,-0.01 c 2.94,0 5.63,1.89 7.62,4.64 3.74,5.18 4.69,12.7 4.69,14.39 0,3.54 -1.85,3.54 -2.14,3.54 -1.25,0 -2.5,-1.3 -2.5,-2.4 0,-0.64 0.3,-0.94 0.75,-1.34 1.59,-1.64 1.75,-3.24 1.75,-4.33 0,-4.24 -4.24,-10.91 -9.47,-10.91 -0.45,0 -1.84,0 -2.74,1.14 -0.6,0.8 -1,1.75 -1,2.75 0,0.14 0,0.24 0.3,0.79 0.95,2.24 1.65,4.98 1.65,5.63 0,0.6 -0.35,1.15 -1.05,1.15 -0.55,0 -0.99,-0.45 -1.39,-1.25 -0.1,-0.25 -0.7,-2.44 -1.05,-5.03 -0.1,-0.9 -0.1,-1 -0.45,-1.34 -2.19,-3.04 -4.48,-3.84 -6.18,-3.84 -3.28,0 -4.38,2.74 -4.38,5.68 0,3.73 1.85,7.87 4.19,11.21 0.5,0.69 0.5,0.79 0.5,0.94 0,0.4 -0.31,0.6 -0.6,0.6 -0.8,0 -3.09,-4.38 -3.79,-5.98 -1.84,-4.43 -1.89,-8.52 -1.89,-8.96 0,-3.99 1.49,-7.08 5.28,-7.08 3.23,0 5.63,2.29 7.22,4.64 z"
           style="fill:#000000;stroke-width:0" /></g>    </g>
    <path
       style="fill:none;stroke:#000000;stroke-width:4;stroke-miterlimit:4;stroke-opacity:1;stroke-dasharray:none;marker-start:none;marker-end:url(#Arrow1Lend)"
       d="m 494.95546,321.28687 -291.76322,0"
       id="path6708"
       transform="translate(-204.88721,14.446118)" />
    <path
       style="fill:none;stroke:#000000;stroke-width:4;stroke-miterlimit:4;stroke-opacity:1;stroke-dasharray:none;marker-start:none;marker-end:url(#Arrow1Lend)"
       d="M 298.80075,335.56847 518.48086,68.110545"
       id="path6708-9"
       sodipodi:nodetypes="cc" />
    <path
       style="fill:none;stroke:#000000;stroke-width:4;stroke-miterlimit:4;stroke-opacity:1;stroke-dasharray:none;marker-start:none;marker-end:url(#Arrow1Lend)"
       d="M 295.63716,335.51225 518.79064,507.43583"
       id="path6708-9-1"
       sodipodi:nodetypes="cc" />
    <path
       style="fill:none;stroke:#000000;stroke-width:4;stroke-miterlimit:4;stroke-opacity:1;stroke-dasharray:none;marker-start:none;marker-end:url(#Arrow1Lend)"
       d="M 286.09855,340.54756 582.65326,193.65213"
       id="path6708-9-1-1"
       sodipodi:nodetypes="cc" />
    <path
       style="fill:none;stroke:#000000;stroke-width:4;stroke-miterlimit:4;stroke-opacity:1;stroke-dasharray:none;marker-start:none;marker-end:url(#Arrow1Lend)"
       d="m 310.4234,346.12915 287.41086,52.09226"
       id="path6708-9-1-9"
       sodipodi:nodetypes="cc" />
    <path
       sodipodi:type="arc"
       style="fill:#000000;fill-opacity:1;stroke:#000000;stroke-width:8;stroke-linecap:round;stroke-linejoin:round;stroke-miterlimit:4;stroke-opacity:1;stroke-dasharray:none;stroke-dashoffset:24.6"
       id="path7702"
       sodipodi:cx="503.76697"
       sodipodi:cy="322.18127"
       sodipodi:rx="17.440668"
       sodipodi:ry="16.993471"
       d="m 521.20764,322.18127 c 0,9.3804 -7.81342,16.99348 -17.44067,16.99348 -9.62725,0 -17.44067,-7.61308 -17.44067,-16.99348 0,-9.38039 7.81342,-16.99347 17.44067,-16.99347 9.62725,0 17.44067,7.61308 17.44067,16.99347 z"
       transform="translate(-200.88721,16.446118)" />
    <path
       style="fill:none;stroke:#000000;stroke-width:6;stroke-miterlimit:4;stroke-opacity:1;stroke-dasharray:none;marker-start:url(#Arrow1Lstart);marker-end:url(#Arrow1Lend-1)"
       d="m -96.41896,287.28422 0,349.35793 399.26622,0"
       id="path7704" />
    <path
       style="fill:none;stroke:#000000;stroke-width:6;stroke-miterlimit:4;stroke-opacity:1;stroke-dasharray:none;marker-end:url(#Arrow1Lend-1)"
       d="M 108.42143,618.70726 25.203477,762.84498"
       id="path8096"
       transform="translate(-204.88721,14.446118)" />
  </g>
  <g
     id="g6312"
     transform="translate(-202.20348,212.23888)">
    <g
       id="g6314"
       transform="matrix(1.225604,0,0,-1.225604,-214.4807,662.01118)"
       xml:space="preserve"
       stroke-miterlimit="10.433"
       fill-rule="even-odd"
       font-style="normal"
       font-variant="normal"
       font-weight="normal"
       font-stretch="normal"
       font-size-adjust="none"
       letter-spacing="normal"
       word-spacing="normal"
       style="font-style:normal;font-variant:normal;font-weight:normal;font-stretch:normal;letter-spacing:normal;word-spacing:normal;text-anchor:start;fill:none;stroke:#000000;stroke-linecap:butt;stroke-linejoin:miter;stroke-miterlimit:10.43299961;stroke-opacity:1;stroke-dasharray:none;stroke-dashoffset:0"><polygon
         points="469.45,440.57 462.78,433.8 463.68,432.9 469.45,437.98 475.18,432.9 476.08,433.8 "
         id="polygon6316"
         style="fill:#000000;stroke-width:0" /><path
         d="m 465.32,417.51 0.14,0 0.15,0 0.17,0 0.18,0 0.18,0.01 0.2,0 0.21,0.01 0.21,0.01 0.23,0.01 0.23,0.01 0.24,0.02 0.24,0.01 0.25,0.02 0.26,0.03 0.52,0.05 0.54,0.06 0.54,0.08 0.55,0.09 0.54,0.11 0.53,0.13 0.27,0.07 0.25,0.07 0.26,0.08 0.25,0.09 0.24,0.09 0.24,0.09 c 3.48,1.5 3.73,4.44 3.73,5.14 0,2.19 -1.89,4.23 -5.33,4.23 v -1.1 c 2.34,0 3.69,-1.44 3.69,-3.13 0,-5.19 -7.97,-5.19 -10.01,-5.19 h -2.05 c 1.95,7.58 7.08,8.32 8.37,8.32 v 1.1 c -5.53,0 -13.05,-4.84 -13.05,-13.55 0,-5.08 2.94,-9.02 7.82,-9.02 7.12,0 11.31,5.28 11.31,5.88 0,0.3 -0.3,0.65 -0.6,0.65 -0.25,0 -0.35,-0.1 -0.64,-0.5 -3.94,-4.93 -9.37,-4.93 -9.97,-4.93 -3.88,0 -4.33,4.18 -4.33,5.78 0,0.6 0.05,2.14 0.8,5.18 z"
         id="path6318"
         style="fill:#000000;stroke-width:0" /><path
         d="m 490.68,421.18 0,0.04 0,0.04 0,0.04 0,0.04 0,0.04 0,0.04 0,0.03 0,0.04 -0.01,0.03 0,0.03 0,0.04 0,0.03 -0.01,0.02 0,0.03 0,0.03 -0.01,0.03 0,0.02 0,0.02 -0.02,0.05 -0.01,0.04 -0.01,0.04 -0.02,0.03 -0.02,0.03 -0.02,0.03 -0.03,0.03 -0.02,0.02 -0.03,0.02 -0.04,0.02 -0.03,0.01 -0.04,0.01 -0.05,0.02 -0.05,0 -0.02,0.01 -0.03,0 -0.03,0.01 -0.02,0 -0.03,0 -0.03,0 -0.04,0 -0.03,0.01 -0.03,0 -0.04,0 -0.03,0 -0.04,0 -0.04,0 -0.04,0 -0.04,0 -0.04,0 -0.05,0 -0.04,0 c -2.24,-2.19 -5.41,-2.23 -6.84,-2.23 v -1.25 c 0.84,0 3.14,0 5.06,0.97 v -17.78 c 0,-1.15 0,-1.61 -3.49,-1.61 h -1.33 V 399 h 12.45 v 1.25 h -1.32 c -3.49,0 -3.49,0.46 -3.49,1.61 z"
         id="path6320"
         style="fill:#000000;stroke-width:0" /></g>  </g>
  <g
     id="g6412"
     transform="translate(363.51081,340.81031)">
    <g
       word-spacing="normal"
       letter-spacing="normal"
       font-size-adjust="none"
       font-stretch="normal"
       font-weight="normal"
       font-variant="normal"
       font-style="normal"
       fill-rule="even-odd"
       stroke-miterlimit="10.433"
       xml:space="preserve"
       transform="matrix(1.225604,0,0,-1.225604,-214.4807,662.01118)"
       id="g6414"
       style="font-style:normal;font-variant:normal;font-weight:normal;font-stretch:normal;letter-spacing:normal;word-spacing:normal;text-anchor:start;fill:none;stroke:#000000;stroke-linecap:butt;stroke-linejoin:miter;stroke-miterlimit:10.43299961;stroke-opacity:1;stroke-dasharray:none;stroke-dashoffset:0"><polygon
         id="polygon6416"
         points="469.45,440.57 462.78,433.8 463.68,432.9 469.45,437.98 475.18,432.9 476.08,433.8 "
         style="fill:#000000;stroke-width:0" /><path
         id="path6418"
         d="m 465.32,417.51 0.14,0 0.15,0 0.17,0 0.18,0 0.18,0.01 0.2,0 0.21,0.01 0.21,0.01 0.23,0.01 0.23,0.01 0.24,0.02 0.24,0.01 0.25,0.02 0.26,0.03 0.52,0.05 0.54,0.06 0.54,0.08 0.55,0.09 0.54,0.11 0.53,0.13 0.27,0.07 0.25,0.07 0.26,0.08 0.25,0.09 0.24,0.09 0.24,0.09 c 3.48,1.5 3.73,4.44 3.73,5.14 0,2.19 -1.89,4.23 -5.33,4.23 v -1.1 c 2.34,0 3.69,-1.44 3.69,-3.13 0,-5.19 -7.97,-5.19 -10.01,-5.19 h -2.05 c 1.95,7.58 7.08,8.32 8.37,8.32 v 1.1 c -5.53,0 -13.05,-4.84 -13.05,-13.55 0,-5.08 2.94,-9.02 7.82,-9.02 7.12,0 11.31,5.28 11.31,5.88 0,0.3 -0.3,0.65 -0.6,0.65 -0.25,0 -0.35,-0.1 -0.64,-0.5 -3.94,-4.93 -9.37,-4.93 -9.97,-4.93 -3.88,0 -4.33,4.18 -4.33,5.78 0,0.6 0.05,2.14 0.8,5.18 z"
         style="fill:#000000;stroke-width:0" /><path
         id="path6420"
         d="m 496.61,405.35 h -1.19 c -0.1,-0.77 -0.45,-2.83 -0.9,-3.18 -0.28,-0.21 -2.97,-0.21 -3.45,-0.21 h -6.42 c 3.66,3.25 4.88,4.22 6.97,5.86 2.58,2.06 4.99,4.22 4.99,7.54 0,4.21 -3.7,6.79 -8.16,6.79 -4.33,0 -7.25,-3.03 -7.25,-6.24 0,-1.78 1.5,-1.95 1.84,-1.95 0.84,0 1.85,0.59 1.85,1.85 0,0.62 -0.24,1.85 -2.05,1.85 1.08,2.47 3.45,3.24 5.09,3.24 3.48,0 5.3,-2.72 5.3,-5.54 0,-3.04 -2.16,-5.45 -3.28,-6.7 l -8.4,-8.3 c -0.35,-0.31 -0.35,-0.38 -0.35,-1.36 h 14.36 z"
         style="fill:#000000;stroke-width:0" /></g>  </g>
  <g
     id="g6522"
     transform="translate(368.08223,-118.04683)">
    <g
       id="g6524"
       transform="matrix(1.225604,0,0,-1.225604,-214.4807,662.01118)"
       xml:space="preserve"
       stroke-miterlimit="10.433"
       fill-rule="even-odd"
       font-style="normal"
       font-variant="normal"
       font-weight="normal"
       font-stretch="normal"
       font-size-adjust="none"
       letter-spacing="normal"
       word-spacing="normal"
       style="font-style:normal;font-variant:normal;font-weight:normal;font-stretch:normal;letter-spacing:normal;word-spacing:normal;text-anchor:start;fill:none;stroke:#000000;stroke-linecap:butt;stroke-linejoin:miter;stroke-miterlimit:10.43299961;stroke-opacity:1;stroke-dasharray:none;stroke-dashoffset:0"><polygon
         points="462.78,433.8 463.68,432.9 469.45,437.98 475.18,432.9 476.08,433.8 469.45,440.57 "
         id="polygon6526"
         style="fill:#000000;stroke-width:0" /><path
         d="m 465.32,417.51 0.14,0 0.15,0 0.17,0 0.18,0 0.18,0.01 0.2,0 0.21,0.01 0.21,0.01 0.23,0.01 0.23,0.01 0.24,0.02 0.24,0.01 0.25,0.02 0.26,0.03 0.52,0.05 0.54,0.06 0.54,0.08 0.55,0.09 0.54,0.11 0.53,0.13 0.27,0.07 0.25,0.07 0.26,0.08 0.25,0.09 0.24,0.09 0.24,0.09 c 3.48,1.5 3.73,4.44 3.73,5.14 0,2.19 -1.89,4.23 -5.33,4.23 v -1.1 c 2.34,0 3.69,-1.44 3.69,-3.13 0,-5.19 -7.97,-5.19 -10.01,-5.19 h -2.05 c 1.95,7.58 7.08,8.32 8.37,8.32 v 1.1 c -5.53,0 -13.05,-4.84 -13.05,-13.55 0,-5.08 2.94,-9.02 7.82,-9.02 7.12,0 11.31,5.28 11.31,5.88 0,0.3 -0.3,0.65 -0.6,0.65 -0.25,0 -0.35,-0.1 -0.64,-0.5 -3.94,-4.93 -9.37,-4.93 -9.97,-4.93 -3.88,0 -4.33,4.18 -4.33,5.78 0,0.6 0.05,2.14 0.8,5.18 z"
         id="path6528"
         style="fill:#000000;stroke-width:0" /><path
         d="m 488.52,410.64 0.25,0 0.25,-0.02 0.24,-0.02 0.24,-0.04 0.23,-0.05 0.23,-0.06 0.22,-0.07 0.22,-0.09 0.21,-0.09 0.2,-0.11 0.19,-0.11 0.19,-0.13 0.18,-0.13 0.18,-0.15 0.17,-0.16 0.15,-0.17 0.16,-0.18 0.14,-0.2 0.13,-0.2 0.13,-0.21 0.12,-0.23 0.11,-0.23 0.09,-0.25 0.09,-0.26 0.08,-0.27 0.07,-0.28 0.06,-0.29 0.05,-0.3 0.04,-0.31 0.03,-0.32 0.02,-0.33 0,-0.35 c 0,-4.32 -2.51,-5.61 -4.53,-5.61 -1.39,0 -4.46,0.38 -5.93,2.44 1.64,0.07 2.02,1.22 2.02,1.95 0,1.12 -0.83,1.92 -1.91,1.92 -0.98,0 -1.96,-0.59 -1.96,-2.02 0,-3.28 3.63,-5.41 7.85,-5.41 4.84,0 8.19,3.25 8.19,6.73 0,2.72 -2.23,5.44 -6.06,6.24 3.66,1.33 4.98,3.94 4.98,6.07 0,2.76 -3.17,4.81 -7.04,4.81 -3.87,0 -6.84,-1.88 -6.84,-4.67 0,-1.18 0.77,-1.85 1.82,-1.85 1.08,0 1.77,0.8 1.77,1.78 0,1.01 -0.69,1.75 -1.77,1.81 1.22,1.54 3.62,1.92 4.92,1.92 1.56,0 3.76,-0.76 3.76,-3.8 0,-1.46 -0.49,-3.07 -1.39,-4.15 -1.16,-1.32 -2.13,-1.39 -3.87,-1.5 -0.88,-0.07 -0.95,-0.07 -1.12,-0.1 -0.07,0 -0.35,-0.07 -0.35,-0.46 0,-0.49 0.31,-0.49 0.91,-0.49 z"
         id="path6530"
         style="fill:#000000;stroke-width:0" /></g>  </g>
  <g
     id="g6642"
     transform="translate(83.510816,212.23888)">
    <g
       word-spacing="normal"
       letter-spacing="normal"
       font-size-adjust="none"
       font-stretch="normal"
       font-weight="normal"
       font-variant="normal"
       font-style="normal"
       fill-rule="even-odd"
       stroke-miterlimit="10.433"
       xml:space="preserve"
       transform="matrix(1.225604,0,0,-1.225604,-214.4807,662.01118)"
       id="g6644"
       style="font-style:normal;font-variant:normal;font-weight:normal;font-stretch:normal;letter-spacing:normal;word-spacing:normal;text-anchor:start;fill:none;stroke:#000000;stroke-linecap:butt;stroke-linejoin:miter;stroke-miterlimit:10.43299961;stroke-opacity:1;stroke-dasharray:none;stroke-dashoffset:0"><path
         id="path6646"
         d="m 475.73,424.93 -0.15,0 -0.15,0 -0.14,0 -0.14,-0.01 -0.14,-0.01 -0.14,-0.02 -0.07,-0.01 -0.07,-0.01 -0.07,-0.01 -0.07,-0.02 -0.06,-0.01 -0.07,-0.02 -0.07,-0.03 -0.07,-0.02 -0.06,-0.03 -0.07,-0.03 -0.07,-0.03 -0.06,-0.04 -0.07,-0.03 -0.06,-0.05 -0.07,-0.04 -0.06,-0.05 -0.07,-0.05 -0.06,-0.06 -0.07,-0.06 -0.06,-0.06 c -0.8,-0.75 -0.9,-1.59 -0.9,-1.94 0,-1.2 0.9,-1.74 1.84,-1.74 1.45,0 2.79,1.19 2.79,3.18 0,2.45 -2.34,4.29 -5.88,4.29 -6.72,0 -13.35,-7.13 -13.35,-14.15 0,-4.48 2.89,-8.42 8.07,-8.42 7.12,0 11.31,5.28 11.31,5.88 0,0.3 -0.3,0.65 -0.6,0.65 -0.25,0 -0.35,-0.1 -0.64,-0.5 -3.94,-4.93 -9.37,-4.93 -9.97,-4.93 -3.14,0 -4.48,2.44 -4.48,5.43 0,2.04 1,6.87 2.69,9.96 1.54,2.84 4.28,4.98 7.02,4.98 1.7,0 3.59,-0.65 4.29,-1.99 z"
         style="fill:#000000;stroke-width:0" /><path
         id="path6648"
         d="m 481.38,408.94 -0.01,-0.07 -0.02,-0.08 -0.01,-0.07 -0.02,-0.08 -0.03,-0.16 -0.04,-0.16 -0.04,-0.16 -0.03,-0.16 -0.04,-0.16 -0.04,-0.16 -0.01,-0.08 -0.02,-0.07 -0.02,-0.07 -0.01,-0.07 -0.02,-0.07 -0.01,-0.07 -0.01,-0.06 -0.02,-0.06 -0.01,-0.05 -0.01,-0.06 -0.01,-0.05 0,-0.04 -0.01,-0.04 0,-0.04 -0.01,-0.03 0,-0.02 c 0,-0.9 0.7,-1.35 1.45,-1.35 0.6,0 1.5,0.4 1.84,1.4 0.05,0.1 0.65,2.44 0.95,3.68 0.35,1.5 0.75,2.99 1.1,4.49 0.29,1.09 0.59,2.19 0.84,3.34 0.2,0.84 0.6,2.28 0.65,2.48 0.75,1.55 3.39,6.08 8.12,6.08 2.24,0 2.69,-1.84 2.69,-3.49 0,-1.24 -0.35,-2.64 -0.75,-4.13 -0.6,-2.54 -0.84,-3.54 -1.39,-5.78 -0.5,-1.84 -0.55,-2.14 -1,-3.79 -0.2,-0.99 -0.64,-2.68 -0.64,-2.93 0,-0.9 0.69,-1.35 1.44,-1.35 1.54,0 1.84,1.25 2.24,2.84 0.7,2.79 2.54,10.07 2.99,12.01 0.15,0.65 2.79,6.62 8.22,6.62 2.14,0 2.69,-1.69 2.69,-3.49 0,-2.84 -2.1,-8.51 -3.09,-11.15 -0.45,-1.2 -0.65,-1.75 -0.65,-2.74 0,-2.34 1.75,-4.09 4.09,-4.09 4.68,0 6.52,7.28 6.52,7.67 0,0.5 -0.45,0.5 -0.59,0.5 -0.5,0 -0.5,-0.15 -0.75,-0.89 -0.75,-2.64 -2.35,-6.18 -5.08,-6.18 -0.85,0 -1.2,0.5 -1.2,1.64 0,1.25 0.45,2.44 0.9,3.54 0.95,2.59 3.03,8.12 3.03,10.96 0,3.24 -1.99,5.33 -5.72,5.33 -3.74,0 -6.28,-2.2 -8.12,-4.84 -0.05,0.65 -0.2,2.35 -1.6,3.54 -1.24,1.05 -2.84,1.3 -4.08,1.3 -4.48,0 -6.92,-3.19 -7.77,-4.34 -0.25,2.84 -2.34,4.34 -4.58,4.34 -2.3,0 -3.24,-1.95 -3.69,-2.84 -0.9,-1.75 -1.54,-4.68 -1.54,-4.83 0,-0.5 0.49,-0.5 0.59,-0.5 0.5,0 0.55,0.05 0.85,1.14 0.84,3.54 1.84,5.93 3.64,5.93 0.79,0 1.54,-0.4 1.54,-2.29 0,-1.04 -0.15,-1.59 -0.8,-4.18 z"
         style="fill:#000000;stroke-width:0" /></g>  </g>
  <path
     sodipodi:type="arc"
     style="fill:none;stroke:#000000;stroke-width:8;stroke-linecap:round;stroke-linejoin:round;stroke-miterlimit:4;stroke-opacity:1;stroke-dasharray:none;stroke-dashoffset:24.6"
     id="path7700"
     sodipodi:cx="-242.26767"
     sodipodi:cy="264.84457"
     sodipodi:rx="66.862404"
     sodipodi:ry="183.22035"
     d="m -175.40527,264.84457 a 66.862404,183.22035 0 1 1 -133.7248,0 66.862404,183.22035 0 1 1 133.7248,0 z"
     transform="matrix(1.1263853,0.78350113,-0.78350113,1.1263853,970.46773,227.82391)" />
</svg>
