<?xml version="1.0" encoding="UTF-8" standalone="no"?>
<!-- Created with Inkscape (http://www.inkscape.org/) -->
<svg
   xmlns:dc="http://purl.org/dc/elements/1.1/"
   xmlns:cc="http://creativecommons.org/ns#"
   xmlns:rdf="http://www.w3.org/1999/02/22-rdf-syntax-ns#"
   xmlns:svg="http://www.w3.org/2000/svg"
   xmlns="http://www.w3.org/2000/svg"
   xmlns:sodipodi="http://sodipodi.sourceforge.net/DTD/sodipodi-0.dtd"
   xmlns:inkscape="http://www.inkscape.org/namespaces/inkscape"
   width="1015.762"
   height="699.02014"
   id="svg4533"
   sodipodi:version="0.32"
   inkscape:version="0.46+devel"
   sodipodi:docname="c41d2.svg"
   version="1.0"
   inkscape:output_extension="org.inkscape.output.svg.inkscape">
  <sodipodi:namedview
     id="base"
     pagecolor="#ffffff"
     bordercolor="#666666"
     borderopacity="1.0"
     inkscape:pageopacity="0.0"
     inkscape:pageshadow="2"
     inkscape:zoom="0.70670353"
     inkscape:cx="507.88101"
     inkscape:cy="349.51007"
     inkscape:document-units="px"
     inkscape:current-layer="layer1"
     showgrid="false"
     inkscape:window-width="1280"
     inkscape:window-height="712"
     inkscape:window-x="-5"
     inkscape:window-y="-3" />
  <defs
     id="defs4535">
    <marker
       style="overflow:visible"
       id="Arrow1Lend"
       refX="0"
       refY="0"
       orient="auto"
       inkscape:stockid="Arrow1Lend">
      <path
         transform="matrix(-0.8,0,0,-0.8,-10,0)"
         style="fill-rule:evenodd;stroke:#000000;stroke-width:1pt;marker-start:none"
         d="M 0,0 5,-5 -12.5,0 5,5 0,0 z"
         id="path3655" />
    </marker>
    <marker
       style="overflow:visible"
       id="Arrow1Lstart"
       refX="0"
       refY="0"
       orient="auto"
       inkscape:stockid="Arrow1Lstart">
      <path
         transform="matrix(0.8,0,0,0.8,10,0)"
         style="fill-rule:evenodd;stroke:#000000;stroke-width:1pt;marker-start:none"
         d="M 0,0 5,-5 -12.5,0 5,5 0,0 z"
         id="path3652" />
    </marker>
    <inkscape:perspective
       id="perspective4541"
       inkscape:persp3d-origin="372.04724 : 350.78739 : 1"
       inkscape:vp_z="744.09448 : 526.18109 : 1"
       inkscape:vp_y="0 : 1000 : 0"
       inkscape:vp_x="0 : 526.18109 : 1"
       sodipodi:type="inkscape:persp3d" />
    <inkscape:perspective
       id="perspective7608"
       inkscape:persp3d-origin="0.5 : 0.33333333 : 1"
       inkscape:vp_z="1 : 0.5 : 1"
       inkscape:vp_y="0 : 1000 : 0"
       inkscape:vp_x="0 : 0.5 : 1"
       sodipodi:type="inkscape:persp3d" />
    <marker
       style="overflow:visible"
       id="Arrow1Lstart-6"
       refX="0"
       refY="0"
       orient="auto"
       inkscape:stockid="Arrow1Lstart">
      <path
         transform="matrix(0.8,0,0,0.8,10,0)"
         style="fill-rule:evenodd;stroke:#000000;stroke-width:1pt;marker-start:none"
         d="M 0,0 5,-5 -12.5,0 5,5 0,0 z"
         id="path3652-1" />
    </marker>
    <marker
       style="overflow:visible"
       id="Arrow1Lend-5"
       refX="0"
       refY="0"
       orient="auto"
       inkscape:stockid="Arrow1Lend">
      <path
         transform="matrix(-0.8,0,0,-0.8,-10,0)"
         style="fill-rule:evenodd;stroke:#000000;stroke-width:1pt;marker-start:none"
         d="M 0,0 5,-5 -12.5,0 5,5 0,0 z"
         id="path3655-6" />
    </marker>
    <inkscape:perspective
       id="perspective7650"
       inkscape:persp3d-origin="0.5 : 0.33333333 : 1"
       inkscape:vp_z="1 : 0.5 : 1"
       inkscape:vp_y="0 : 1000 : 0"
       inkscape:vp_x="0 : 0.5 : 1"
       sodipodi:type="inkscape:persp3d" />
    <inkscape:perspective
       id="perspective7681"
       inkscape:persp3d-origin="0.5 : 0.33333333 : 1"
       inkscape:vp_z="1 : 0.5 : 1"
       inkscape:vp_y="0 : 1000 : 0"
       inkscape:vp_x="0 : 0.5 : 1"
       sodipodi:type="inkscape:persp3d" />
  </defs>
  <metadata
     id="metadata4538">
    <rdf:RDF>
      <cc:Work
         rdf:about="">
        <dc:format>image/svg+xml</dc:format>
        <dc:type
           rdf:resource="http://purl.org/dc/dcmitype/StillImage" />
        <dc:title></dc:title>
      </cc:Work>
    </rdf:RDF>
  </metadata>
  <g
     id="layer1"
     inkscape:groupmode="layer"
     inkscape:label="Layer 1"
     transform="translate(66.904874,-138.67673)">
    <path
       id="path5957"
       d="m 48.571429,158.07647 0,277.14286 897.142861,0"
       style="fill:none;stroke:#000000;stroke-width:4;stroke-miterlimit:4;stroke-opacity:1;stroke-dasharray:none;marker-start:url(#Arrow1Lstart);marker-end:url(#Arrow1Lend)" />
    <rect
       ry="0"
       y="255.21931"
       x="274.28571"
       height="171.42847"
       width="505.71472"
       id="rect6843"
       style="fill:none;stroke:#000000;stroke-width:4;stroke-linecap:round;stroke-linejoin:round;stroke-miterlimit:4;stroke-opacity:1;stroke-dasharray:none;stroke-dashoffset:24.6" />
    <path
       id="path6845"
       d="m 268.57143,220.93361 502.85714,0"
       style="stroke:#000000;stroke-width:3;stroke-miterlimit:4;stroke-opacity:1;stroke-dasharray:none;marker-start:url(#Arrow1Lstart);marker-end:url(#Arrow1Lend)" />
    <g
       id="g7232"
       transform="translate(194.28571,-182.85714)">
      <g
         word-spacing="normal"
         letter-spacing="normal"
         font-size-adjust="none"
         font-stretch="normal"
         font-weight="normal"
         font-variant="normal"
         font-style="normal"
         fill-rule="even-odd"
         stroke-miterlimit="10.433"
         xml:space="preserve"
         transform="matrix(1.0629921,0,0,-1.0629921,-186.02362,789.27165)"
         id="content"
         style="font-style:normal;font-variant:normal;font-weight:normal;font-stretch:normal;letter-spacing:normal;word-spacing:normal;text-anchor:start;fill:none;stroke:#000000;stroke-linecap:butt;stroke-linejoin:miter;stroke-miterlimit:10.43299961;stroke-opacity:1;stroke-dasharray:none;stroke-dashoffset:0"><path
           id="path7235"
           d="m 474.63,436.14 0.04,0.16 0.04,0.16 0.04,0.15 0.04,0.14 0.05,0.14 0.04,0.13 0.05,0.12 0.06,0.12 0.05,0.11 0.07,0.1 0.07,0.1 0.08,0.1 0.09,0.08 0.1,0.08 0.11,0.08 0.12,0.07 0.14,0.06 0.14,0.06 0.16,0.06 0.18,0.05 0.09,0.02 0.1,0.02 0.1,0.03 0.11,0.02 0.11,0.01 0.12,0.02 0.12,0.02 0.12,0.01 0.13,0.02 0.14,0.01 0.14,0.01 0.14,0.01 0.15,0.01 0.16,0.01 0.16,0.01 0.17,0.01 0.17,0.01 0.18,0 0.18,0.01 0.19,0 0.2,0 0.2,0.01 0.21,0 0.22,0 c 1.5,0 1.89,0 1.89,0.95 0,0.59 -0.55,0.59 -0.79,0.59 h -14 c -0.35,0 -0.95,0 -0.95,-0.99 0,-0.55 0.45,-0.55 1.4,-0.55 0.1,0 1.04,0 1.89,-0.1 0.9,-0.1 1.35,-0.15 1.35,-0.8 0,-0.2 -0.06,-0.35 -0.2,-0.94 l -6.68,-26.75 c -0.5,-1.95 -0.6,-2.35 -4.53,-2.35 -0.85,0 -1.35,0 -1.35,-0.99 0,-0.55 0.45,-0.55 1.35,-0.55 h 23.06 c 1.2,0 1.25,0 1.54,0.85 l 3.94,10.76 c 0.2,0.55 0.2,0.64 0.2,0.69 0,0.2 -0.15,0.55 -0.6,0.55 -0.45,0 -0.5,-0.25 -0.84,-1.05 -1.7,-4.58 -3.89,-10.26 -12.51,-10.26 h -4.68 c -0.7,0 -0.8,0 -1.1,0.05 -0.5,0.05 -0.64,0.11 -0.64,0.5 0,0.15 0,0.25 0.25,1.15 z"
           style="fill:#000000;stroke-width:0" /><path
           id="path7237"
           d="m 506.99,410.12 0,0.71 -0.02,0.68 -0.03,0.66 -0.04,0.64 -0.06,0.62 -0.08,0.59 -0.09,0.58 -0.11,0.56 -0.12,0.55 -0.15,0.53 -0.17,0.51 -0.19,0.5 -0.21,0.49 -0.24,0.48 -0.26,0.47 -0.14,0.24 -0.15,0.23 c -1.07,1.6 -3.24,2.99 -6.03,2.99 v -0.97 c 1.89,0 3.7,-1.15 4.33,-3.18 0.56,-1.88 0.59,-4.39 0.59,-7.42 0,-2.58 0,-5.17 -0.45,-7.36 -0.7,-3.17 -3.07,-3.94 -4.47,-3.94 h 0 c -1.6,0 -3.73,0.94 -4.43,3.8 -0.49,2.06 -0.49,4.92 -0.49,7.5 0,2.54 0,5.19 0.53,7.11 0.73,2.76 2.96,3.49 4.39,3.49 v 0.97 c -8.09,0 -8.09,-9.52 -8.09,-12.03 0,-2.51 0,-11.82 8.09,-11.82 8.09,0 8.09,9.31 8.09,11.82 z"
           style="fill:#000000;stroke-width:0" /></g>    </g>
    <g
       id="g7271"
       transform="translate(454.28571,137.14286)">
      <g
         id="g7273"
         transform="matrix(1.0629921,0,0,-1.0629921,-186.02362,789.27165)"
         xml:space="preserve"
         stroke-miterlimit="10.433"
         fill-rule="even-odd"
         font-style="normal"
         font-variant="normal"
         font-weight="normal"
         font-stretch="normal"
         font-size-adjust="none"
         letter-spacing="normal"
         word-spacing="normal"
         style="font-style:normal;font-variant:normal;font-weight:normal;font-stretch:normal;letter-spacing:normal;word-spacing:normal;text-anchor:start;fill:none;stroke:#000000;stroke-linecap:butt;stroke-linejoin:miter;stroke-miterlimit:10.43299961;stroke-opacity:1;stroke-dasharray:none;stroke-dashoffset:0"><path
           d="m 463.97,409.89 -0.05,-0.18 -0.04,-0.17 -0.04,-0.16 -0.05,-0.15 -0.04,-0.15 -0.05,-0.13 -0.04,-0.13 -0.06,-0.12 -0.05,-0.11 -0.06,-0.11 -0.06,-0.1 -0.08,-0.09 -0.07,-0.09 -0.09,-0.07 -0.09,-0.08 -0.11,-0.06 -0.11,-0.07 -0.13,-0.05 -0.13,-0.05 -0.15,-0.05 -0.16,-0.04 -0.09,-0.02 -0.09,-0.02 -0.09,-0.01 -0.1,-0.02 -0.1,-0.01 -0.1,-0.01 -0.11,-0.02 -0.12,-0.01 -0.11,-0.01 -0.13,-0.01 -0.12,-0.01 -0.13,0 -0.14,-0.01 -0.14,-0.01 -0.14,0 -0.15,-0.01 -0.16,0 -0.16,0 -0.16,0 -0.17,-0.01 -0.18,0 -0.18,0 c -0.85,0 -1.35,0 -1.35,-0.99 0,-0.55 0.45,-0.55 1.35,-0.55 h 17.78 c 7.87,0 13.75,5.88 13.75,10.76 0,3.59 -2.89,6.47 -7.72,7.03 5.18,0.94 10.41,4.62 10.41,9.36 0,3.69 -3.29,6.87 -9.27,6.87 l -0.69,-1.54 c 4.38,0 5.42,-2.94 5.42,-5.13 0,-4.39 -4.28,-9.12 -10.35,-9.12 h -7.28 l -0.3,-1.09 h 9.42 c 4.78,0 5.73,-3.69 5.73,-5.83 0,-4.93 -4.44,-9.77 -10.32,-9.77 h -6.77 c -0.7,0 -0.8,0 -1.09,0.05 -0.5,0.05 -0.65,0.11 -0.65,0.5 0,0.15 0,0.25 0.25,1.15 l 3.43,13.9 0.3,1.09 3.09,12.36 c 0.45,1.74 0.55,1.89 2.69,1.89 h 6.43 l 0.69,1.54 h -16.73 c -0.95,0 -1.45,0 -1.45,-0.99 0,-0.55 0.45,-0.55 1.4,-0.55 0.1,0 1.04,0 1.89,-0.1 0.89,-0.1 1.34,-0.15 1.34,-0.8 0,-0.2 -0.05,-0.35 -0.2,-0.94 z"
           id="path7275"
           style="fill:#000000;stroke-width:0" /></g>    </g>
    <g
       id="g7315"
       transform="translate(-65.714286,128.57143)">
      <g
         word-spacing="normal"
         letter-spacing="normal"
         font-size-adjust="none"
         font-stretch="normal"
         font-weight="normal"
         font-variant="normal"
         font-style="normal"
         fill-rule="even-odd"
         stroke-miterlimit="10.433"
         xml:space="preserve"
         transform="matrix(1.0629921,0,0,-1.0629921,-186.02362,789.27165)"
         id="g7317"
         style="font-style:normal;font-variant:normal;font-weight:normal;font-stretch:normal;letter-spacing:normal;word-spacing:normal;text-anchor:start;fill:none;stroke:#000000;stroke-linecap:butt;stroke-linejoin:miter;stroke-miterlimit:10.43299961;stroke-opacity:1;stroke-dasharray:none;stroke-dashoffset:0"><path
           id="path7319"
           d="m 493.86,440.62 0,0.02 0,0.01 0,0.02 -0.01,0.02 0,0.01 0,0.02 -0.01,0.02 0,0.02 -0.01,0.02 -0.01,0.02 -0.01,0.02 -0.01,0.02 -0.01,0.02 -0.01,0.02 -0.01,0.02 -0.02,0.02 -0.01,0.02 -0.02,0.02 -0.02,0.02 -0.02,0.02 -0.02,0.02 -0.02,0.01 -0.03,0.02 -0.03,0.01 -0.02,0.01 -0.02,0.01 -0.01,0 -0.02,0.01 -0.02,0 -0.01,0.01 -0.02,0 -0.02,0.01 -0.01,0 -0.02,0 -0.02,0 -0.02,0 -0.02,0.01 -0.02,0 -0.02,0 c -0.15,0 -0.2,-0.05 -0.75,-0.6 l -3.49,-3.84 c -0.44,0.7 -2.73,4.44 -8.26,4.44 -11.11,0 -22.32,-11.01 -22.32,-22.57 0,-8.22 5.88,-13.65 13.5,-13.65 4.33,0 8.12,2 10.76,4.29 4.63,4.08 5.48,8.61 5.48,8.77 0,0.49 -0.5,0.49 -0.6,0.49 -0.3,0 -0.55,-0.09 -0.65,-0.49 -0.44,-1.45 -1.59,-4.99 -5.03,-7.87 -3.43,-2.79 -6.57,-3.64 -9.16,-3.64 -4.49,0 -9.77,2.59 -9.77,10.36 0,2.84 1.05,10.91 6.03,16.74 3.04,3.53 7.72,6.02 12.16,6.02 5.08,0 8.02,-3.83 8.02,-9.61 0,-1.99 -0.16,-2.04 -0.16,-2.54 0,-0.5 0.55,-0.5 0.75,-0.5 0.65,0 0.65,0.1 0.9,1 z"
           style="fill:#000000;stroke-width:0" /></g>    </g>
    <g
       id="g7365"
       transform="translate(297.14285,480.00001)">
      <g
         id="g7367"
         transform="matrix(1.0629921,0,0,-1.0629921,-186.02362,789.27165)"
         xml:space="preserve"
         stroke-miterlimit="10.433"
         fill-rule="even-odd"
         font-style="normal"
         font-variant="normal"
         font-weight="normal"
         font-stretch="normal"
         font-size-adjust="none"
         letter-spacing="normal"
         word-spacing="normal"
         style="font-style:normal;font-variant:normal;font-weight:normal;font-stretch:normal;letter-spacing:normal;word-spacing:normal;text-anchor:start;fill:none;stroke:#000000;stroke-linecap:butt;stroke-linejoin:miter;stroke-miterlimit:10.43299961;stroke-opacity:1;stroke-dasharray:none;stroke-dashoffset:0"><path
           d="m 464.92,411.73 -0.19,-0.31 -0.19,-0.29 -0.18,-0.27 -0.19,-0.26 -0.18,-0.25 -0.19,-0.23 -0.19,-0.23 -0.18,-0.2 -0.19,-0.2 -0.18,-0.18 -0.19,-0.17 -0.19,-0.16 -0.19,-0.15 -0.18,-0.14 -0.19,-0.13 -0.19,-0.12 -0.19,-0.11 -0.19,-0.1 -0.19,-0.09 -0.19,-0.09 -0.2,-0.07 -0.19,-0.07 -0.19,-0.06 -0.2,-0.06 -0.2,-0.05 -0.19,-0.04 -0.2,-0.04 -0.2,-0.03 -0.4,-0.05 -0.41,-0.04 c -0.6,-0.04 -1.05,-0.04 -1.05,-0.99 0,-0.3 0.25,-0.55 0.65,-0.55 h 9.27 c 0.3,0 0.94,0 0.94,0.95 0,0.55 -0.44,0.59 -0.8,0.59 -1.14,0.1 -2.34,0.5 -2.34,1.75 0,0.6 0.3,1.14 0.7,1.84 0.35,0.6 0.4,0.6 3.79,6.38 h 12.5 l -0.15,1.54 h -11.41 l 9.82,16.44 1.59,-16.44 0.15,-1.54 c 0.1,-1.05 0.8,-7.82 0.8,-8.32 0,-1.49 -2.59,-1.65 -3.59,-1.65 -0.7,0 -1.2,0 -1.2,-0.99 0,-0.55 0.6,-0.55 0.7,-0.55 h 11.86 c 0.3,0 0.89,0 0.89,1 0,0.54 -0.49,0.54 -1.14,0.54 -3.09,0 -3.09,0.35 -3.24,1.8 l -3.04,31.13 c -0.1,1 -0.1,1.2 -0.94,1.2 -0.8,0 -1,-0.35 -1.3,-0.85 z"
           id="path7369"
           style="fill:#000000;stroke-width:0" /></g>    </g>
    <g
       id="g7421"
       transform="translate(-368.5714,334.28572)">
      <g
         word-spacing="normal"
         letter-spacing="normal"
         font-size-adjust="none"
         font-stretch="normal"
         font-weight="normal"
         font-variant="normal"
         font-style="normal"
         fill-rule="even-odd"
         stroke-miterlimit="10.433"
         xml:space="preserve"
         transform="matrix(1.0629921,0,0,-1.0629921,-186.02362,789.27165)"
         id="g7423"
         style="font-style:normal;font-variant:normal;font-weight:normal;font-stretch:normal;letter-spacing:normal;word-spacing:normal;text-anchor:start;fill:none;stroke:#000000;stroke-linecap:butt;stroke-linejoin:miter;stroke-miterlimit:10.43299961;stroke-opacity:1;stroke-dasharray:none;stroke-dashoffset:0"><path
           id="path7425"
           d="m 485.75,448.64 -0.07,-0.06 -0.07,-0.07 -0.08,-0.07 -0.08,-0.07 -0.09,-0.08 -0.09,-0.08 -0.09,-0.09 -0.09,-0.09 -0.1,-0.09 -0.09,-0.09 -0.2,-0.19 -0.19,-0.19 -0.19,-0.21 -0.09,-0.1 -0.09,-0.1 -0.09,-0.1 -0.08,-0.11 -0.08,-0.1 -0.08,-0.1 -0.07,-0.1 -0.06,-0.1 -0.06,-0.1 -0.05,-0.1 -0.05,-0.1 -0.04,-0.09 -0.03,-0.1 -0.02,-0.09 -0.02,-0.09 0,-0.08 c 0,-0.5 0.5,-1 1,-1 0.44,0 0.69,0.35 0.94,0.65 0.6,0.75 1.74,2.14 3.94,3.24 0.35,0.2 0.84,0.45 0.84,1.05 0,0.49 -0.34,0.74 -0.69,0.99 -1.1,0.75 -1.65,1.64 -2.05,2.84 -0.1,0.45 -0.3,1.1 -0.99,1.1 -0.7,0 -1,-0.65 -1,-1.05 0,-0.25 0.4,-1.84 1.2,-2.89 h -16.79 c -0.85,0 -1.74,0 -1.74,-0.99 0,-1 0.89,-1 1.74,-1 z"
           style="fill:#000000;stroke-width:0" /><path
           id="path7427"
           d="m 487.28,434.34 0.23,0.36 0.22,0.33 0.23,0.31 0.22,0.29 0.22,0.28 0.22,0.25 0.21,0.24 0.22,0.22 0.21,0.2 0.21,0.18 0.21,0.18 0.21,0.15 0.2,0.15 0.2,0.13 0.21,0.11 0.19,0.11 0.2,0.1 0.2,0.08 0.19,0.08 0.2,0.06 0.19,0.06 0.19,0.05 0.18,0.04 0.19,0.04 0.18,0.03 0.19,0.02 0.36,0.04 0.35,0.03 0.35,0.02 c 0.6,0.05 0.64,0.9 0.64,0.95 0,0.39 -0.24,0.59 -0.64,0.59 h -9.02 c -0.3,0 -0.94,0 -0.94,-0.95 0,-0.54 0.44,-0.59 0.79,-0.59 1.35,-0.1 2.3,-0.6 2.3,-1.64 0,-0.75 -0.75,-1.85 -0.75,-1.9 l -15.29,-24.31 -3.39,26.35 c 0,0.85 1.14,1.5 3.43,1.5 0.7,0 1.25,0 1.25,0.99 0,0.45 -0.4,0.55 -0.7,0.55 h -11.61 c -0.34,0 -0.94,0 -0.94,-0.95 0,-0.59 0.45,-0.59 1.25,-0.59 2.78,0 2.84,-0.45 2.98,-1.69 l 3.94,-30.74 c 0.15,-1 0.35,-1.15 1,-1.15 0.79,0 0.99,0.25 1.39,0.9 z"
           style="fill:#000000;stroke-width:0" /></g>    </g>
    <g
       id="g7487">
      <g
         id="g7489"
         transform="matrix(1.0629921,0,0,-1.0629921,-186.02362,789.27165)"
         xml:space="preserve"
         stroke-miterlimit="10.433"
         fill-rule="even-odd"
         font-style="normal"
         font-variant="normal"
         font-weight="normal"
         font-stretch="normal"
         font-size-adjust="none"
         letter-spacing="normal"
         word-spacing="normal"
         style="font-style:normal;font-variant:normal;font-weight:normal;font-stretch:normal;letter-spacing:normal;word-spacing:normal;text-anchor:start;fill:none;stroke:#000000;stroke-linecap:butt;stroke-linejoin:miter;stroke-miterlimit:10.43299961;stroke-opacity:1;stroke-dasharray:none;stroke-dashoffset:0"><path
           d="m 488.13,440.62 0,0.02 0,0.01 0,0.02 -0.01,0.02 0,0.01 0,0.02 -0.01,0.02 0,0.02 -0.01,0.02 -0.01,0.02 -0.01,0.02 -0.01,0.02 -0.01,0.02 -0.01,0.02 -0.01,0.02 -0.02,0.02 -0.01,0.02 -0.02,0.02 -0.02,0.02 -0.02,0.02 -0.02,0.02 -0.02,0.01 -0.03,0.02 -0.02,0.01 -0.03,0.01 -0.02,0.01 -0.01,0 -0.02,0.01 -0.01,0 -0.02,0.01 -0.02,0 -0.01,0.01 -0.02,0 -0.02,0 -0.02,0 -0.02,0 -0.02,0.01 -0.02,0 -0.02,0 c -0.25,0 -0.3,-0.05 -0.9,-0.75 l -2.39,-2.84 c -1.29,2.34 -3.88,3.59 -7.12,3.59 -6.33,0 -12.3,-5.73 -12.3,-11.76 0,-4.03 2.64,-6.32 5.18,-7.07 l 5.33,-1.4 c 1.84,-0.44 4.58,-1.19 4.58,-5.28 0,-4.48 -4.08,-9.16 -8.97,-9.16 -3.19,0 -8.71,1.09 -8.71,7.27 0,1.2 0.25,2.39 0.29,2.69 0.05,0.2 0.11,0.25 0.11,0.35 0,0.5 -0.35,0.55 -0.6,0.55 -0.25,0 -0.35,-0.05 -0.5,-0.2 -0.2,-0.2 -2.99,-11.56 -2.99,-11.71 0,-0.3 0.25,-0.5 0.55,-0.5 0.25,0 0.3,0.05 0.9,0.75 l 2.44,2.84 c 2.14,-2.89 5.52,-3.59 8.41,-3.59 6.78,0 12.66,6.63 12.66,12.81 0,3.43 -1.7,5.13 -2.44,5.83 -1.15,1.14 -1.9,1.34 -6.33,2.48 -1.1,0.3 -2.89,0.8 -3.34,0.9 -1.34,0.45 -3.04,1.89 -3.04,4.53 0,4.04 3.99,8.27 8.72,8.27 4.13,0 7.17,-2.14 7.17,-7.72 0,-1.59 -0.2,-2.49 -0.2,-2.79 0,-0.05 0,-0.5 0.6,-0.5 0.5,0 0.55,0.15 0.75,1 z"
           id="path7491"
           style="fill:#000000;stroke-width:0" /></g>    </g>
    <g
       id="g7557"
       transform="translate(-242.85714,51.428571)">
      <g
         word-spacing="normal"
         letter-spacing="normal"
         font-size-adjust="none"
         font-stretch="normal"
         font-weight="normal"
         font-variant="normal"
         font-style="normal"
         fill-rule="even-odd"
         stroke-miterlimit="10.433"
         xml:space="preserve"
         transform="matrix(1.0629921,0,0,-1.0629921,-186.02362,789.27165)"
         id="g7559"
         style="font-style:normal;font-variant:normal;font-weight:normal;font-stretch:normal;letter-spacing:normal;word-spacing:normal;text-anchor:start;fill:none;stroke:#000000;stroke-linecap:butt;stroke-linejoin:miter;stroke-miterlimit:10.43299961;stroke-opacity:1;stroke-dasharray:none;stroke-dashoffset:0"><path
           id="path7561"
           d="m 488.13,440.62 0,0.02 0,0.01 0,0.02 -0.01,0.02 0,0.01 0,0.02 -0.01,0.02 0,0.02 -0.01,0.02 -0.01,0.02 -0.01,0.02 -0.01,0.02 -0.01,0.02 -0.01,0.02 -0.01,0.02 -0.02,0.02 -0.01,0.02 -0.02,0.02 -0.02,0.02 -0.02,0.02 -0.02,0.02 -0.02,0.01 -0.03,0.02 -0.02,0.01 -0.03,0.01 -0.02,0.01 -0.01,0 -0.02,0.01 -0.01,0 -0.02,0.01 -0.02,0 -0.01,0.01 -0.02,0 -0.02,0 -0.02,0 -0.02,0 -0.02,0.01 -0.02,0 -0.02,0 c -0.25,0 -0.3,-0.05 -0.9,-0.75 l -2.39,-2.84 c -1.29,2.34 -3.88,3.59 -7.12,3.59 -6.33,0 -12.3,-5.73 -12.3,-11.76 0,-4.03 2.64,-6.32 5.18,-7.07 l 5.33,-1.4 c 1.84,-0.44 4.58,-1.19 4.58,-5.28 0,-4.48 -4.08,-9.16 -8.97,-9.16 -3.19,0 -8.71,1.09 -8.71,7.27 0,1.2 0.25,2.39 0.29,2.69 0.05,0.2 0.11,0.25 0.11,0.35 0,0.5 -0.35,0.55 -0.6,0.55 -0.25,0 -0.35,-0.05 -0.5,-0.2 -0.2,-0.2 -2.99,-11.56 -2.99,-11.71 0,-0.3 0.25,-0.5 0.55,-0.5 0.25,0 0.3,0.05 0.9,0.75 l 2.44,2.84 c 2.14,-2.89 5.52,-3.59 8.41,-3.59 6.78,0 12.66,6.63 12.66,12.81 0,3.43 -1.7,5.13 -2.44,5.83 -1.15,1.14 -1.9,1.34 -6.33,2.48 -1.1,0.3 -2.89,0.8 -3.34,0.9 -1.34,0.45 -3.04,1.89 -3.04,4.53 0,4.04 3.99,8.27 8.72,8.27 4.13,0 7.17,-2.14 7.17,-7.72 0,-1.59 -0.2,-2.49 -0.2,-2.79 0,-0.05 0,-0.5 0.6,-0.5 0.5,0 0.55,0.15 0.75,1 z"
           style="fill:#000000;stroke-width:0" /><path
           id="path7563"
           d="m 503.99,410.12 0,0.71 -0.02,0.68 -0.03,0.66 -0.04,0.64 -0.06,0.62 -0.08,0.59 -0.09,0.58 -0.11,0.56 -0.12,0.55 -0.15,0.53 -0.17,0.51 -0.19,0.5 -0.21,0.49 -0.24,0.48 -0.26,0.47 -0.14,0.24 -0.15,0.23 c -1.07,1.6 -3.24,2.99 -6.03,2.99 v -0.97 c 1.89,0 3.7,-1.15 4.33,-3.18 0.56,-1.88 0.59,-4.39 0.59,-7.42 0,-2.58 0,-5.17 -0.45,-7.36 -0.7,-3.17 -3.07,-3.94 -4.47,-3.94 h 0 c -1.6,0 -3.73,0.94 -4.43,3.8 -0.49,2.06 -0.49,4.92 -0.49,7.5 0,2.54 0,5.19 0.53,7.11 0.73,2.76 2.96,3.49 4.39,3.49 v 0.97 c -8.09,0 -8.09,-9.52 -8.09,-12.03 0,-2.51 0,-11.82 8.09,-11.82 8.09,0 8.09,9.31 8.09,11.82 z"
           style="fill:#000000;stroke-width:0" /></g>    </g>
    <path
       id="path5957-1"
       d="m 49.71428,497.21932 0,277.14286 897.14286,0"
       style="fill:none;stroke:#000000;stroke-width:4;stroke-miterlimit:4;stroke-opacity:1;stroke-dasharray:none;marker-start:url(#Arrow1Lstart);marker-end:url(#Arrow1Lend)" />
    <path
       style="fill:none;stroke:#000000;stroke-width:3;stroke-linecap:round;stroke-linejoin:round;stroke-miterlimit:4;stroke-opacity:1;stroke-dasharray:none;stroke-dashoffset:24.6"
       id="path7634"
       d="m 596.09891,768.33757 c 2.40127,-0.49414 4.80294,-0.79613 7.15646,-1.48778 -0.70962,1.17797 4.61448,-2.23872 3.17647,-1.18077 -0.46216,0.34001 -0.9858,0.59646 -1.51701,0.81328 -0.0161,0.007 1.58885,-0.99853 1.64385,-1.033 1.75974,-1.12968 3.27813,-2.57145 4.78726,-4.00633 1.65095,-1.5942 3.2665,-3.22439 4.8872,-4.84916 1.35363,-1.46025 2.6836,-2.87263 4.18424,-4.18226 1.78558,-1.38522 3.75094,-2.54487 5.74891,-3.59326 0.53671,-0.3226 0.76823,-0.0342 1.12723,0.37594 0.97713,0.97085 1.54136,2.23306 2.27582,3.38137 1.0233,1.66848 1.73483,3.44497 2.4486,5.25614 0.80673,2.03782 1.49928,4.12072 2.21159,6.19569 0.62944,1.79149 1.41735,3.50734 1.9249,5.34302 0.18057,0.68866 0.33689,1.38368 0.4505,2.0865 0.003,0.0223 0.006,0.0445 0.009,0.0668 -0.83575,0.2726 -1.62895,0.78086 -2.50726,0.81779 -0.074,0.003 0.0988,-0.33664 0.39498,-1.76876 0.18625,-0.90057 0.29723,-1.6008 0.45092,-2.50474 0,0 2.4989,-1.22081 2.4989,-1.22081 l 0,0 c -0.0982,0.58008 -0.48166,3.89433 -0.83994,4.2174 -0.7587,0.68416 -1.67027,1.17689 -2.5054,1.76533 -8.2e-4,-0.0195 -0.002,-0.039 -0.002,-0.0585 -0.0868,-0.69694 -0.23793,-1.38385 -0.40711,-2.06521 -0.49149,-1.83638 -1.28524,-3.54326 -1.90782,-5.33204 -0.70594,-2.07256 -1.40667,-4.14787 -2.20324,-6.18475 -0.71732,-1.78939 -1.4093,-3.55629 -2.43462,-5.20308 -0.72451,-1.13701 -1.28801,-2.38449 -2.26751,-3.33284 -0.32893,-0.35592 -0.50818,-0.30891 -0.91292,-0.0684 -0.92687,0.50768 -0.47438,0.26256 1.78037,-1.04119 0.16781,-0.097 -0.33595,0.19361 -0.50174,0.29407 -0.77419,0.46912 -1.53027,0.96903 -2.24774,1.52184 -1.48279,1.32768 -2.87457,2.66269 -4.18863,4.16506 -1.62215,1.62801 -3.24748,3.25298 -4.89195,4.85848 -1.50414,1.44349 -3.01386,2.89693 -4.75652,4.05518 -2.57508,1.60758 -5.10729,3.43551 -8.11367,4.11032 -2.36178,0.676 -4.78562,0.94028 -7.17798,1.49115 0,0 2.22649,-1.70249 2.22649,-1.70249 z" />
    <path
       style="fill:none;stroke:#000000;stroke-width:3;stroke-linecap:round;stroke-linejoin:round;stroke-miterlimit:4;stroke-opacity:1;stroke-dasharray:none;stroke-dashoffset:24.6"
       id="path7636"
       d="m 622.77797,749.33639 c 0.006,-2.60522 0.62365,-5.16811 1.02048,-7.73527 0.19592,-1.89954 0.88829,-3.6995 1.39793,-5.53069 0.30602,-0.87688 0.37822,-1.78428 0.40728,-2.70438 0.0224,-1.35784 0.0106,-2.71599 0.0107,-4.07396 -0.0727,-1.57557 0.15631,-3.17798 -0.16218,-4.72876 -0.30572,-1.22294 -0.68016,-2.42781 -1.08814,-3.62018 -0.0395,-0.12368 -0.12336,-0.3415 -0.16048,-0.44107 -0.72428,0.37374 -2.10057,0.14004 -2.95366,0.14421 -1.46081,-0.16934 -3.1074,0.35084 -4.49385,-0.19538 -0.97431,-0.97257 -1.00222,-2.3514 -1.07121,-3.64555 -0.009,-1.68357 0.5401,-3.39563 1.17279,-4.94804 0.79318,-1.78904 1.75983,-3.57716 3.06936,-5.04294 1.96949,-2.41934 4.88175,-3.82138 7.89031,-4.47769 1.9947,-0.4516 3.60422,-0.22372 5.10429,1.17158 1.26694,1.21012 1.82617,2.80786 2.11041,4.49206 0.16303,1.53211 0.30192,3.10065 0.0133,4.62084 -0.4957,2.0915 -1.69556,3.89306 -2.75969,5.72796 -1.08004,1.94967 -3.32007,4.1732 -5.18725,2.12562 -0.13933,-0.19827 -0.27865,-0.39654 -0.41798,-0.59481 0,0 2.41406,-1.42338 2.41406,-1.42338 l 0,0 c 0.13274,0.18675 0.26548,0.37349 0.39821,0.56024 0.30702,0.31161 0.42974,0.56746 0.88803,0.60912 0.12421,0.0113 0.46638,-0.15621 0.36459,-0.0841 -3.60233,2.55095 -1.49634,1.00398 -1.00915,-0.0584 1.05745,-1.81572 2.26533,-3.58373 2.79012,-5.64459 0.35102,-1.47548 0.15564,-3.02663 0.0325,-4.52719 -0.25915,-1.62876 -0.77754,-3.17034 -2.01309,-4.33197 -1.46715,-1.30538 -3.05802,-1.39826 -4.94733,-0.9542 -1.3719,0.32058 -3.37992,1.57152 -0.75577,-0.32852 1.17333,-0.84957 -3.50638,2.19211 -2.3413,2.04045 -1.35473,1.39454 -2.30122,3.19785 -3.1042,4.95181 -0.6591,1.49513 -1.18955,3.19821 -1.22042,4.83118 0.0515,1.15649 0.0153,2.49383 0.9057,3.35494 1.4131,0.40178 2.97997,-0.0183 4.43053,0.1251 1.01958,-0.005 2.17248,-0.17511 3.14293,0.0896 0.0643,0.162 0.12678,0.32577 0.17658,0.49347 0.39453,1.20862 0.76297,2.42619 1.08584,3.65603 0.35831,1.56364 0.11769,3.18632 0.18832,4.782 0.007,1.35862 0.0161,2.71731 0.005,4.07593 -0.0245,0.94021 -0.0553,1.87535 -0.38375,2.76949 -0.5176,1.82354 -1.21657,3.61811 -1.42705,5.50795 -0.40511,2.55076 -1.03116,5.10278 -1.03039,7.69172 0,0 -2.49216,1.26981 -2.49216,1.26981 z" />
    <path
       style="fill:none;stroke:#000000;stroke-width:3;stroke-linecap:round;stroke-linejoin:round;stroke-miterlimit:4;stroke-opacity:1;stroke-dasharray:none;stroke-dashoffset:24.6"
       id="path7638"
       d="m 626.06155,732.55853 c -2.53541,1.6833 -5.00863,3.46559 -7.41407,5.33153 -1.49155,1.30178 -3.14015,2.40242 -4.82371,3.43649 0,0 -2.61238,1.00944 -2.61238,1.00944 l 0,0 c 1.69955,-1.02051 3.37515,-2.10052 4.86346,-3.41777 2.39606,-1.86441 4.85103,-3.66218 7.38766,-5.3261 0,0 2.59904,-1.03359 2.59904,-1.03359 z" />
    <path
       style="fill:none;stroke:#000000;stroke-width:3;stroke-linecap:round;stroke-linejoin:round;stroke-miterlimit:4;stroke-opacity:1;stroke-dasharray:none;stroke-dashoffset:24.6"
       id="path7640"
       d="m 630.11591,733.55143 c 2.4968,1.54597 5.09087,2.9715 7.40326,4.78777 1.61291,1.10225 2.8621,2.6007 4.40537,3.78736 0,0 -2.36675,1.49066 -2.36675,1.49066 l 0,0 c -1.52325,-1.20521 -2.77387,-2.6997 -4.3829,-3.80183 -2.30928,-1.79628 -4.88589,-3.23363 -7.39849,-4.72465 0,0 2.33951,-1.53931 2.33951,-1.53931 z" />
    <path
       style="fill:none;stroke:#000000;stroke-width:3;stroke-linecap:round;stroke-linejoin:round;stroke-miterlimit:4;stroke-opacity:1;stroke-dasharray:none;stroke-dashoffset:24.6"
       id="path7634-7"
       d="m 213.24392,422.59665 c 2.40127,-0.49414 4.80294,-0.79613 7.15646,-1.48778 -0.70962,1.17797 4.61448,-2.23872 3.17647,-1.18077 -0.46216,0.34001 -0.9858,0.59646 -1.51701,0.81328 -0.0161,0.007 1.58885,-0.99853 1.64385,-1.033 1.75974,-1.12968 3.27813,-2.57145 4.78726,-4.00633 1.65095,-1.5942 3.2665,-3.22439 4.8872,-4.84916 1.35363,-1.46025 2.6836,-2.87263 4.18424,-4.18226 1.78558,-1.38522 3.75094,-2.54487 5.74891,-3.59326 0.53671,-0.3226 0.76823,-0.0342 1.12723,0.37594 0.97713,0.97085 1.54136,2.23306 2.27582,3.38137 1.0233,1.66848 1.73483,3.44497 2.4486,5.25614 0.80673,2.03782 1.49928,4.12072 2.21159,6.19569 0.62944,1.79149 1.41735,3.50734 1.9249,5.34302 0.18057,0.68866 0.33689,1.38368 0.4505,2.0865 0.003,0.0223 0.006,0.0445 0.009,0.0668 -0.83575,0.2726 -1.62895,0.78086 -2.50726,0.81779 -0.074,0.003 0.0988,-0.33664 0.39498,-1.76876 0.18625,-0.90057 0.29723,-1.6008 0.45092,-2.50474 0,0 2.4989,-1.22081 2.4989,-1.22081 l 0,0 c -0.0982,0.58008 -0.48166,3.89433 -0.83994,4.2174 -0.7587,0.68416 -1.67027,1.17689 -2.5054,1.76533 -8.2e-4,-0.0195 -0.002,-0.039 -0.002,-0.0585 -0.0868,-0.69694 -0.23793,-1.38385 -0.40711,-2.06521 -0.49149,-1.83638 -1.28524,-3.54326 -1.90782,-5.33204 -0.70594,-2.07256 -1.40667,-4.14787 -2.20324,-6.18475 -0.71732,-1.78939 -1.4093,-3.55629 -2.43462,-5.20308 -0.72451,-1.13701 -1.28801,-2.38449 -2.26751,-3.33284 -0.32893,-0.35592 -0.50818,-0.30891 -0.91292,-0.0684 -0.92687,0.50768 -0.47438,0.26256 1.78037,-1.04119 0.16781,-0.097 -0.33595,0.19361 -0.50174,0.29407 -0.77419,0.46912 -1.53027,0.96903 -2.24774,1.52184 -1.48279,1.32768 -2.87457,2.66269 -4.18863,4.16506 -1.62215,1.62801 -3.24748,3.25298 -4.89195,4.85848 -1.50414,1.44349 -3.01386,2.89693 -4.75652,4.05518 -2.57508,1.60758 -5.10729,3.43551 -8.11367,4.11032 -2.36178,0.676 -4.78562,0.94028 -7.17798,1.49115 0,0 2.22649,-1.70249 2.22649,-1.70249 z" />
    <path
       style="fill:none;stroke:#000000;stroke-width:3;stroke-linecap:round;stroke-linejoin:round;stroke-miterlimit:4;stroke-opacity:1;stroke-dasharray:none;stroke-dashoffset:24.6"
       id="path7636-2"
       d="m 239.92298,403.59547 c 0.006,-2.60522 0.62365,-5.16811 1.02048,-7.73527 0.19592,-1.89954 0.88829,-3.6995 1.39793,-5.53069 0.30602,-0.87688 0.37822,-1.78428 0.40728,-2.70438 0.0224,-1.35784 0.0106,-2.71599 0.0107,-4.07396 -0.0727,-1.57557 0.15631,-3.17798 -0.16218,-4.72876 -0.30572,-1.22294 -0.68016,-2.42781 -1.08814,-3.62018 -0.0395,-0.12368 -0.12336,-0.3415 -0.16048,-0.44107 -0.72428,0.37374 -2.10057,0.14004 -2.95366,0.14421 -1.46081,-0.16934 -3.1074,0.35084 -4.49385,-0.19538 -0.97431,-0.97257 -1.00222,-2.3514 -1.07121,-3.64555 -0.009,-1.68357 0.5401,-3.39563 1.17279,-4.94804 0.79318,-1.78904 1.75983,-3.57716 3.06936,-5.04294 1.96949,-2.41934 4.88175,-3.82138 7.89031,-4.47769 1.9947,-0.4516 3.60422,-0.22372 5.10429,1.17158 1.26694,1.21012 1.82617,2.80786 2.11041,4.49206 0.16303,1.53211 0.30192,3.10065 0.0133,4.62084 -0.4957,2.0915 -1.69556,3.89306 -2.75969,5.72796 -1.08004,1.94967 -3.32007,4.1732 -5.18725,2.12562 -0.13933,-0.19827 -0.27865,-0.39654 -0.41798,-0.59481 0,0 2.41406,-1.42338 2.41406,-1.42338 l 0,0 c 0.13274,0.18675 0.26548,0.37349 0.39821,0.56024 0.30702,0.31161 0.42974,0.56746 0.88803,0.60912 0.12421,0.0113 0.46638,-0.15621 0.36459,-0.0841 -3.60233,2.55095 -1.49634,1.00398 -1.00915,-0.0584 1.05745,-1.81572 2.26533,-3.58373 2.79012,-5.64459 0.35102,-1.47548 0.15564,-3.02663 0.0325,-4.52719 -0.25915,-1.62876 -0.77754,-3.17034 -2.01309,-4.33197 -1.46715,-1.30538 -3.05802,-1.39826 -4.94733,-0.9542 -1.3719,0.32058 -3.37992,1.57152 -0.75577,-0.32852 1.17333,-0.84957 -3.50638,2.19211 -2.3413,2.04045 -1.35473,1.39454 -2.30122,3.19785 -3.1042,4.95181 -0.6591,1.49513 -1.18955,3.19821 -1.22042,4.83118 0.0515,1.15649 0.0153,2.49383 0.9057,3.35494 1.4131,0.40178 2.97997,-0.0183 4.43053,0.1251 1.01958,-0.005 2.17248,-0.17511 3.14293,0.0896 0.0643,0.162 0.12678,0.32577 0.17658,0.49347 0.39453,1.20862 0.76297,2.42619 1.08584,3.65603 0.35831,1.56364 0.11769,3.18632 0.18832,4.782 0.007,1.35862 0.0161,2.71731 0.005,4.07593 -0.0245,0.94021 -0.0553,1.87535 -0.38375,2.76949 -0.5176,1.82354 -1.21657,3.61811 -1.42705,5.50795 -0.40511,2.55076 -1.03116,5.10278 -1.03039,7.69172 0,0 -2.49216,1.26981 -2.49216,1.26981 z" />
    <path
       style="fill:none;stroke:#000000;stroke-width:3;stroke-linecap:round;stroke-linejoin:round;stroke-miterlimit:4;stroke-opacity:1;stroke-dasharray:none;stroke-dashoffset:24.6"
       id="path7638-2"
       d="m 243.20656,386.81761 c -2.53541,1.6833 -5.00863,3.46559 -7.41407,5.33153 -1.49155,1.30178 -3.14015,2.40242 -4.82371,3.43649 0,0 -2.61238,1.00944 -2.61238,1.00944 l 0,0 c 1.69955,-1.02051 3.37515,-2.10052 4.86346,-3.41777 2.39606,-1.86441 4.85103,-3.66218 7.38766,-5.3261 0,0 2.59904,-1.03359 2.59904,-1.03359 z" />
    <path
       style="fill:none;stroke:#000000;stroke-width:3;stroke-linecap:round;stroke-linejoin:round;stroke-miterlimit:4;stroke-opacity:1;stroke-dasharray:none;stroke-dashoffset:24.6"
       id="path7640-9"
       d="m 247.26092,387.81051 c 2.4968,1.54597 5.09087,2.9715 7.40326,4.78777 1.61291,1.10225 2.8621,2.6007 4.40537,3.78736 0,0 -2.36675,1.49066 -2.36675,1.49066 l 0,0 c -1.52325,-1.20521 -2.77387,-2.6997 -4.3829,-3.80183 -2.30928,-1.79628 -4.88589,-3.23363 -7.39849,-4.72465 0,0 2.33951,-1.53931 2.33951,-1.53931 z" />
    <path
       style="fill:none;stroke:#000000;stroke-width:3;stroke-linecap:round;stroke-linejoin:round;stroke-miterlimit:4;stroke-opacity:1;stroke-dasharray:none;stroke-dashoffset:24.6"
       id="path7634-7-2"
       d="m 805.24392,422.59665 c 2.40127,-0.49414 4.80294,-0.79613 7.15646,-1.48778 -0.70962,1.17797 4.61448,-2.23872 3.17647,-1.18077 -0.46216,0.34001 -0.9858,0.59646 -1.51701,0.81328 -0.0161,0.007 1.58885,-0.99853 1.64385,-1.033 1.75974,-1.12968 3.27813,-2.57145 4.78726,-4.00633 1.65095,-1.5942 3.2665,-3.22439 4.8872,-4.84916 1.35363,-1.46025 2.6836,-2.87263 4.18424,-4.18226 1.78558,-1.38522 3.75094,-2.54487 5.74891,-3.59326 0.53671,-0.3226 0.76823,-0.0342 1.12723,0.37594 0.97713,0.97085 1.54136,2.23306 2.27582,3.38137 1.0233,1.66848 1.73483,3.44497 2.4486,5.25614 0.80673,2.03782 1.49928,4.12072 2.21159,6.19569 0.62944,1.79149 1.41735,3.50734 1.9249,5.34302 0.18057,0.68866 0.33689,1.38368 0.4505,2.0865 0.003,0.0223 0.006,0.0445 0.009,0.0668 -0.83575,0.2726 -1.62895,0.78086 -2.50726,0.81779 -0.074,0.003 0.0988,-0.33664 0.39498,-1.76876 0.18625,-0.90057 0.29723,-1.6008 0.45092,-2.50474 0,0 2.4989,-1.22081 2.4989,-1.22081 l 0,0 c -0.0982,0.58008 -0.48166,3.89433 -0.83994,4.2174 -0.7587,0.68416 -1.67027,1.17689 -2.5054,1.76533 -8.2e-4,-0.0195 -0.002,-0.039 -0.002,-0.0585 -0.0868,-0.69694 -0.23793,-1.38385 -0.40711,-2.06521 -0.49149,-1.83638 -1.28524,-3.54326 -1.90782,-5.33204 -0.70594,-2.07256 -1.40667,-4.14787 -2.20324,-6.18475 -0.71732,-1.78939 -1.4093,-3.55629 -2.43462,-5.20308 -0.72451,-1.13701 -1.28801,-2.38449 -2.26751,-3.33284 -0.32893,-0.35592 -0.50818,-0.30891 -0.91292,-0.0684 -0.92687,0.50768 -0.47438,0.26256 1.78037,-1.04119 0.16781,-0.097 -0.33595,0.19361 -0.50174,0.29407 -0.77419,0.46912 -1.53027,0.96903 -2.24774,1.52184 -1.48279,1.32768 -2.87457,2.66269 -4.18863,4.16506 -1.62215,1.62801 -3.24748,3.25298 -4.89195,4.85848 -1.50414,1.44349 -3.01386,2.89693 -4.75652,4.05518 -2.57508,1.60758 -5.10729,3.43551 -8.11367,4.11032 -2.36178,0.676 -4.78562,0.94028 -7.17798,1.49115 0,0 2.22649,-1.70249 2.22649,-1.70249 z" />
    <path
       style="fill:none;stroke:#000000;stroke-width:3;stroke-linecap:round;stroke-linejoin:round;stroke-miterlimit:4;stroke-opacity:1;stroke-dasharray:none;stroke-dashoffset:24.6"
       id="path7636-2-8"
       d="m 831.92298,403.59547 c 0.006,-2.60522 0.62365,-5.16811 1.02048,-7.73527 0.19592,-1.89954 0.88829,-3.6995 1.39793,-5.53069 0.30602,-0.87688 0.37822,-1.78428 0.40728,-2.70438 0.0224,-1.35784 0.0106,-2.71599 0.0107,-4.07396 -0.0727,-1.57557 0.15631,-3.17798 -0.16218,-4.72876 -0.30572,-1.22294 -0.68016,-2.42781 -1.08814,-3.62018 -0.0395,-0.12368 -0.12336,-0.3415 -0.16048,-0.44107 -0.72428,0.37374 -2.10057,0.14004 -2.95366,0.14421 -1.46081,-0.16934 -3.1074,0.35084 -4.49385,-0.19538 -0.97431,-0.97257 -1.00222,-2.3514 -1.07121,-3.64555 -0.009,-1.68357 0.5401,-3.39563 1.17279,-4.94804 0.79318,-1.78904 1.75983,-3.57716 3.06936,-5.04294 1.96949,-2.41934 4.88175,-3.82138 7.89031,-4.47769 1.9947,-0.4516 3.60422,-0.22372 5.10429,1.17158 1.26694,1.21012 1.82617,2.80786 2.11041,4.49206 0.16303,1.53211 0.30192,3.10065 0.0133,4.62084 -0.4957,2.0915 -1.69556,3.89306 -2.75969,5.72796 -1.08004,1.94967 -3.32007,4.1732 -5.18725,2.12562 -0.13933,-0.19827 -0.27865,-0.39654 -0.41798,-0.59481 0,0 2.41406,-1.42338 2.41406,-1.42338 l 0,0 c 0.13274,0.18675 0.26548,0.37349 0.39821,0.56024 0.30702,0.31161 0.42974,0.56746 0.88803,0.60912 0.12421,0.0113 0.46638,-0.15621 0.36459,-0.0841 -3.60233,2.55095 -1.49634,1.00398 -1.00915,-0.0584 1.05745,-1.81572 2.26533,-3.58373 2.79012,-5.64459 0.35102,-1.47548 0.15564,-3.02663 0.0325,-4.52719 -0.25915,-1.62876 -0.77754,-3.17034 -2.01309,-4.33197 -1.46715,-1.30538 -3.05802,-1.39826 -4.94733,-0.9542 -1.3719,0.32058 -3.37992,1.57152 -0.75577,-0.32852 1.17333,-0.84957 -3.50638,2.19211 -2.3413,2.04045 -1.35473,1.39454 -2.30122,3.19785 -3.1042,4.95181 -0.6591,1.49513 -1.18955,3.19821 -1.22042,4.83118 0.0515,1.15649 0.0153,2.49383 0.9057,3.35494 1.4131,0.40178 2.97997,-0.0183 4.43053,0.1251 1.01958,-0.005 2.17248,-0.17511 3.14293,0.0896 0.0643,0.162 0.12678,0.32577 0.17658,0.49347 0.39453,1.20862 0.76297,2.42619 1.08584,3.65603 0.35831,1.56364 0.11769,3.18632 0.18832,4.782 0.007,1.35862 0.0161,2.71731 0.005,4.07593 -0.0245,0.94021 -0.0553,1.87535 -0.38375,2.76949 -0.5176,1.82354 -1.21657,3.61811 -1.42705,5.50795 -0.40511,2.55076 -1.03116,5.10278 -1.03039,7.69172 0,0 -2.49216,1.26981 -2.49216,1.26981 z" />
    <path
       style="fill:none;stroke:#000000;stroke-width:3;stroke-linecap:round;stroke-linejoin:round;stroke-miterlimit:4;stroke-opacity:1;stroke-dasharray:none;stroke-dashoffset:24.6"
       id="path7638-2-1"
       d="m 835.20656,386.81761 c -2.53541,1.6833 -5.00863,3.46559 -7.41407,5.33153 -1.49155,1.30178 -3.14015,2.40242 -4.82371,3.43649 0,0 -2.61238,1.00944 -2.61238,1.00944 l 0,0 c 1.69955,-1.02051 3.37515,-2.10052 4.86346,-3.41777 2.39606,-1.86441 4.85103,-3.66218 7.38766,-5.3261 0,0 2.59904,-1.03359 2.59904,-1.03359 z" />
    <path
       style="fill:none;stroke:#000000;stroke-width:3;stroke-linecap:round;stroke-linejoin:round;stroke-miterlimit:4;stroke-opacity:1;stroke-dasharray:none;stroke-dashoffset:24.6"
       id="path7640-9-2"
       d="m 839.26092,387.81051 c 2.4968,1.54597 5.09087,2.9715 7.40326,4.78777 1.61291,1.10225 2.8621,2.6007 4.40537,3.78736 0,0 -2.36675,1.49066 -2.36675,1.49066 l 0,0 c -1.52325,-1.20521 -2.77387,-2.6997 -4.3829,-3.80183 -2.30928,-1.79628 -4.88589,-3.23363 -7.39849,-4.72465 0,0 2.33951,-1.53931 2.33951,-1.53931 z" />
    <path
       style="fill:none;stroke:#000000;stroke-width:3;stroke-linecap:round;stroke-linejoin:round;stroke-miterlimit:4;stroke-opacity:1;stroke-dasharray:none;stroke-dashoffset:24.6"
       id="path7704"
       d="m 44.717957,656.97846 c -3.71305,-0.11493 -7.417762,0.39957 -11.070226,1.02344 -5.005024,0.75035 -9.859373,2.20643 -14.791914,3.30028 -2.636699,0.57922 -5.323441,0.86784 -8.005194,1.14062 0,0 2.223045,-1.64948 2.223045,-1.64948 l 0,0 c 2.667496,-0.26595 5.337301,-0.56315 7.958062,-1.14603 4.93452,-1.10231 9.796532,-2.54488 14.80601,-3.2931 3.680682,-0.61217 7.403654,-1.11826 11.143049,-1.01978 0,0 -2.262832,1.64405 -2.262832,1.64405 z" />
    <path
       style="fill:none;stroke:#000000;stroke-width:3;stroke-linecap:round;stroke-linejoin:round;stroke-miterlimit:4;stroke-opacity:1;stroke-dasharray:none;stroke-dashoffset:24.6"
       id="path7706"
       d="m 46.132978,673.9587 c -3.970233,0.162 -7.918073,0.74157 -11.889293,1.01463 -5.520158,0.12901 -10.937352,1.23813 -16.37859,2.05748 -3.298244,0.56138 -6.539393,1.31919 -9.75147,2.24719 0,0 2.176366,-1.67562 2.176366,-1.67562 l 0,0 c 3.213104,-0.90609 6.455356,-1.65187 9.750269,-2.20239 5.44825,-0.82862 10.876213,-1.91082 16.403812,-2.04909 3.991221,-0.2875 7.957721,-0.88179 11.951738,-1.03624 0,0 -2.262832,1.64404 -2.262832,1.64404 z" />
    <path
       style="fill:none;stroke:#000000;stroke-width:3;stroke-linecap:round;stroke-linejoin:round;stroke-miterlimit:4;stroke-opacity:1;stroke-dasharray:none;stroke-dashoffset:24.6"
       id="path7708"
       d="m 34.582965,637.75215 c -3.806241,2.54923 -7.521687,5.21808 -11.214393,7.92766 -4.822727,3.78717 -9.815166,7.33327 -14.8920093,10.76752 -4.2192183,2.62506 -8.19362212,5.60475 -12.2479684,8.46995 -0.472606,0.33599 -0.9363803,0.68476 -1.4178181,1.00796 -1.2918739,0.86727 -3.7602319,2.23626 -4.7292643,2.7786 -0.2739839,0.15334 -1.1164189,0.57506 -0.8402189,0.42575 2.0336547,-1.0994 2.2446006,-1.36374 1.3422419,-0.53081 -0.3756491,1.41142 2.7093522,3.47373 3.6288804,4.32759 3.8741842,4.21047 7.3687711,8.76574 10.9561087,13.22257 3.3222199,4.06215 6.835462,7.95724 10.177359,12.00312 0,0 -2.336744,1.40068 -2.336744,1.40068 l 0,0 c -3.3183496,-4.0649 -6.8392042,-7.95242 -10.1549306,-12.01936 -3.58860512,-4.44207 -7.0855202,-8.98559 -10.9890078,-13.15511 -1.290575,-1.17574 -4.0059136,-2.76062 -3.8760306,-4.70894 1.221302,-1.25183 0.409739,-0.49112 3.4319703,-2.28678 0.2661451,-0.15813 1.0749249,-0.60921 0.8249962,-0.42653 -3.3759825,2.46768 1.0439529,-0.95764 1.4247003,-1.02996 4.0639909,-2.87088 8.0472087,-5.85779 12.2767901,-8.48732 5.0767511,-3.43113 10.0846421,-6.95351 14.8933951,-10.75684 3.672296,-2.69411 7.350049,-5.37215 11.142911,-7.89615 0,0 2.599032,-1.0336 2.599032,-1.0336 z" />
  </g>
</svg>
