<?xml version="1.0" encoding="UTF-8" standalone="no"?>
<!-- Created with Inkscape (http://www.inkscape.org/) -->
<svg
   xmlns:dc="http://purl.org/dc/elements/1.1/"
   xmlns:cc="http://creativecommons.org/ns#"
   xmlns:rdf="http://www.w3.org/1999/02/22-rdf-syntax-ns#"
   xmlns:svg="http://www.w3.org/2000/svg"
   xmlns="http://www.w3.org/2000/svg"
   xmlns:sodipodi="http://sodipodi.sourceforge.net/DTD/sodipodi-0.dtd"
   xmlns:inkscape="http://www.inkscape.org/namespaces/inkscape"
   width="1069.4751"
   height="999.42053"
   id="svg4955"
   sodipodi:version="0.32"
   inkscape:version="0.46+devel"
   version="1.0"
   sodipodi:docname="c42d3.svg"
   inkscape:output_extension="org.inkscape.output.svg.inkscape">
  <defs
     id="defs4957">
    <inkscape:perspective
       sodipodi:type="inkscape:persp3d"
       inkscape:vp_x="0 : 526.18109 : 1"
       inkscape:vp_y="0 : 1000 : 0"
       inkscape:vp_z="744.09448 : 526.18109 : 1"
       inkscape:persp3d-origin="372.04724 : 350.78739 : 1"
       id="perspective4963" />
  </defs>
  <sodipodi:namedview
     id="base"
     pagecolor="#ffffff"
     bordercolor="#666666"
     borderopacity="1.0"
     inkscape:pageopacity="0.0"
     inkscape:pageshadow="2"
     inkscape:zoom="0.35"
     inkscape:cx="-196.06477"
     inkscape:cy="487.73982"
     inkscape:document-units="px"
     inkscape:current-layer="layer1"
     showgrid="false"
     inkscape:window-width="1280"
     inkscape:window-height="712"
     inkscape:window-x="-5"
     inkscape:window-y="-3" />
  <metadata
     id="metadata4960">
    <rdf:RDF>
      <cc:Work
         rdf:about="">
        <dc:format>image/svg+xml</dc:format>
        <dc:type
           rdf:resource="http://purl.org/dc/dcmitype/StillImage" />
        <dc:title></dc:title>
      </cc:Work>
    </rdf:RDF>
  </metadata>
  <g
     inkscape:label="Layer 1"
     inkscape:groupmode="layer"
     id="layer1"
     transform="translate(3.2209436,-20.681439)">
    <path
       style="fill:#000000;fill-opacity:1;stroke:#000000;stroke-width:4;stroke-linecap:round;stroke-linejoin:round;stroke-miterlimit:4;stroke-opacity:1;stroke-dasharray:none;stroke-dashoffset:24.6"
       id="path4967"
       d="m 44.734142,27.495959 c -2.471279,7.55599 -3.985856,15.36698 -4.110034,23.313374 0.346481,10.406795 1.152571,20.771412 2.292618,31.117278 1.315862,13.50903 2.659225,27.018919 4.265719,40.497339 1.986116,17.69453 5.128428,35.24929 8.408853,52.74434 4.013432,21.45456 9.678887,42.52247 15.665173,63.49226 7.767887,24.72073 16.535813,49.12342 25.77932,73.32868 11.005959,27.74798 24.085439,54.57815 37.974259,80.97679 13.28097,27.23471 28.96968,52.99749 47.8553,76.67644 17.59012,21.56826 39.71537,38.08186 63.09714,52.77775 23.22736,14.24735 48.99149,23.28286 74.90132,31.23914 27.58412,7.41743 55.88392,11.86857 84.34096,14.00217 29.67794,1.91097 59.28863,-0.39517 88.63696,-4.71005 31.48744,-4.78724 61.7773,-14.50571 91.48921,-25.69614 19.88868,-7.62107 39.37449,-16.39875 57.71302,-27.27162 6.64601,-3.94041 15.57303,-10.32518 21.54105,-14.4486 24.72643,-17.58833 45.7475,-39.51051 64.44279,-63.26278 16.90426,-22.14247 29.21935,-46.05689 39.30564,-71.89402 8.51641,-23.32491 11.91758,-47.84244 13.84766,-72.45541 1.52789,-22.60593 -2.10295,-44.79366 -8.08557,-66.49189 -6.00875,-20.60524 -16.5124,-39.37884 -27.04921,-57.93051 -11.4346,-19.06626 -24.96793,-36.73388 -39.16724,-53.79755 C 693.28587,92.098157 676.50034,76.657145 658.45656,62.694432 646.12324,54.271049 633.19507,46.477805 619.37315,40.718227 c -7.77337,-3.239153 -12.9524,-4.640518 -20.98631,-7.135888 -21.83027,-5.990088 -44.49865,-7.596403 -67.03933,-7.663668 -22.95621,-0.583735 -45.2595,3.822162 -66.91251,11.070912 -10.58254,3.924848 -20.96336,8.427012 -30.69414,14.180984 -8.25976,4.884136 -15.67671,11.34818 -23.00545,17.471128 -17.28602,15.010595 -29.68921,33.988815 -39.77692,54.308615 -11.60895,22.68616 -17.85463,47.24926 -23.35489,71.95951 -5.59949,27.18055 -7.23501,54.94786 -7.40483,82.63371 0.4222,31.57786 4.01129,62.88975 9.02895,94.02402 5.91899,34.16533 14.40434,67.75453 24.51044,100.89765 10.44082,32.6119 23.98754,64.02865 39.15961,94.67898 16.76315,33.23899 36.46878,64.87206 57.02239,95.86941 25.13911,36.8848 52.26292,72.29863 80.76609,106.62885 27.1001,31.5057 56.58602,60.9615 88.77372,87.27666 6.37169,5.20919 12.94503,10.16673 19.41754,15.2501 31.54168,23.94233 65.22046,45.03566 100.74736,62.55543 6.85866,3.38229 13.86781,6.45042 20.80171,9.67563 40.67729,18.27037 83.61665,30.3703 126.79423,41.02304 37.87217,8.79246 76.23264,15.2103 114.48309,22.0851 14.1287,2.8049 28.3391,5.1596 42.5502,7.4985 0,0 -4.4112,3.0951 -4.4112,3.0951 l 0,0 c -14.1751,-2.3872 -28.3529,-4.7694 -42.4529,-7.5755 -38.22283,-6.9158 -76.55784,-13.36309 -114.40385,-22.18058 -43.18906,-10.68679 -86.14351,-22.8093 -126.8233,-41.12318 -6.93683,-3.23254 -13.94909,-6.30793 -20.81051,-9.6976 -35.53429,-17.55462 -69.2187,-38.68258 -100.7637,-62.65679 -6.47361,-5.09041 -13.04756,-10.05575 -19.42085,-15.27122 -32.19784,-26.34855 -61.70678,-55.82469 -88.84455,-87.3361 -28.53157,-34.33465 -55.70442,-69.73939 -80.88356,-106.62329 -20.58803,-31.00068 -40.33487,-62.63672 -57.11458,-95.89224 -15.19908,-30.66926 -28.74946,-62.11498 -39.20721,-94.75133 -10.10038,-33.16748 -18.60291,-66.77492 -24.55115,-100.95692 -5.0433,-31.14992 -8.67339,-62.47668 -9.12298,-94.07418 0.13143,-27.71237 1.76266,-55.5066 7.32292,-82.72043 5.48189,-24.73692 11.6842,-49.33707 23.26724,-72.06163 10.03598,-20.38475 22.41673,-39.422799 39.67975,-54.510764 18.80797,-15.810165 39.65234,-28.955993 63.00257,-37.006509 21.69936,-7.185937 44.0366,-11.528999 67.01423,-10.926818 22.57881,0.111652 45.28287,1.736632 67.13758,7.791965 8.15482,2.546362 13.1388,3.891175 21.02665,7.196078 13.84219,5.799692 26.79728,13.616503 39.14549,22.080296 18.06179,14.001151 34.86453,29.477559 49.48383,47.109272 14.22285,17.08654 27.77138,34.78262 39.22683,53.87419 10.56197,18.58935 21.08824,37.39905 27.12077,58.04467 5.99427,21.7592 9.65273,44.0048 8.14188,66.67458 -1.9217,24.66052 -5.30658,49.22989 -13.80505,72.61051 -10.07896,25.89103 -22.37139,49.85559 -39.28141,72.05557 -18.66687,23.80827 -39.69177,45.76809 -64.4034,63.41878 -27.53111,19.08912 -56.77019,35.48603 -88.35714,46.92322 -29.74512,11.16618 -60.06298,20.86182 -91.5781,25.62121 -29.37978,4.29013 -59.0237,6.56932 -88.72701,4.63 -28.48218,-2.17994 -56.81164,-6.63144 -84.41439,-14.09593 -25.94892,-7.98313 -51.74622,-17.04682 -74.99749,-31.34472 -23.41036,-14.74985 -45.55233,-31.33136 -63.1642,-52.94794 C 159.4,448.65856 143.70185,422.86349 130.40069,395.6033 116.49025,369.19337 103.40664,342.34373 92.357456,314.59231 83.093195,290.38173 74.306809,265.97263 66.509639,241.24826 60.493646,220.27351 54.8168,199.19724 50.779058,177.73415 47.471662,160.23904 44.308638,142.68215 42.300833,124.98521 40.670423,111.51388 39.309089,98.00974 37.991548,84.50523 36.828483,74.14535 36.015032,63.767904 35.63092,53.34611 c 0.06313,-7.986525 1.580211,-15.829015 3.98217,-23.445113 0,0 5.121052,-2.405038 5.121052,-2.405038 z" />
    <path
       style="fill:#000000;fill-opacity:1;stroke:#000000;stroke-width:4;stroke-linecap:round;stroke-linejoin:round;stroke-miterlimit:4;stroke-opacity:1;stroke-dasharray:none;stroke-dashoffset:24.6"
       id="path4973"
       d="m 49.234847,91.216738 c 1.046448,-7.081421 2.761609,-14.062316 5.063596,-20.836565 2.125119,-4.305228 4.058248,-8.720001 6.90643,-12.606908 2.351796,-3.485494 5.392615,-6.369483 8.556643,-9.102545 8.885573,-7.393341 7.802502,-5.57682 15.05112,-9.654635 3.196407,-1.240366 6.079854,-3.132343 9.315624,-4.285946 2.783873,-0.956661 5.742385,-1.098999 8.6588,-1.18335 3.09054,-0.452939 5.73996,0.416666 8.61855,1.352899 3.24131,1.00633 6.18922,2.623604 9.03527,4.431397 3.58837,2.068414 5.95351,5.384371 8.51228,8.53105 3.09897,3.507236 4.95488,7.586525 6.9975,11.71993 1.65932,4.021377 3.66885,7.865332 5.11917,11.974786 1.14345,3.742772 1.32624,7.661434 1.45254,11.544068 -0.0636,3.824675 0.35631,7.696454 -0.29437,11.47839 -0.926,3.714743 -1.61245,7.433041 -3.00516,11.003331 -1.27684,3.35268 -2.49956,6.7481 -4.24571,9.8906 -2.05168,3.50744 -4.61279,6.73352 -7.17738,9.88621 -2.93659,3.08271 -5.24396,6.64263 -7.70373,10.09653 -2.56811,2.75101 -5.09457,5.58102 -8.25357,7.65779 -2.14916,1.20756 -4.29832,2.41512 -6.44749,3.62269 -0.567,0.32068 -2.26361,1.29037 -1.701,0.96205 1.09168,-0.63707 4.41033,-2.47021 3.28827,-1.88833 -3.20526,1.6622 -6.37489,3.30526 -9.552239,4.98065 -3.544536,2.12504 -6.850867,2.20628 -10.802504,1.62017 -4.218978,-0.96096 -7.530817,-3.28084 -10.990252,-5.70561 -3.340314,-2.81368 -6.662254,-5.62711 -9.537167,-8.92685 -1.45275,-2.55607 -2.886332,-5.16259 -4.124858,-7.83381 -0.836469,-2.81438 -2.30706,-5.3651 -3.270457,-8.13662 -0.926774,-2.93197 -2.437231,-5.59179 -3.25184,-8.57195 -1.399979,-2.75177 -2.546954,-5.5661 -3.163984,-8.594 -0.50609,-2.84269 -0.531238,-5.740661 -0.55573,-8.619313 -0.0101,-2.858033 0.0041,-5.716126 0.01432,-8.574152 -0.05681,-2.457136 -0.198254,-4.744565 0.768798,-7.030578 0.716554,-1.372863 1.135543,-2.865488 1.542087,-4.351113 0,0 5.133696,-2.447491 5.133696,-2.447491 l 0,0 c -0.400915,1.505819 -0.770572,3.04537 -1.510335,4.42838 -1.001683,2.237931 -0.995258,4.364896 -0.87683,6.825568 -0.0046,2.856202 -0.02321,5.712377 -0.01715,8.568594 0.02364,2.845983 0.03062,5.710335 0.505484,8.524835 0.590206,3.02352 1.738117,5.82432 3.145539,8.56116 0.790999,2.97642 2.313807,5.61614 3.232872,8.53776 0.944939,2.75986 2.433372,5.28135 3.245279,8.08495 1.21212,2.62539 2.627149,5.18059 4.033881,7.70122 2.840421,3.26709 6.140207,6.04623 9.455856,8.81585 3.389849,2.38508 6.695791,4.6161 10.850916,5.47786 3.889017,0.52618 7.147666,0.16671 10.595378,-1.89948 11.02111,-5.46646 -13.208415,8.03584 6.24676,-3.10564 0.56737,-0.32492 2.26049,-1.31204 1.71604,-0.95002 -1.05568,0.70194 -2.16822,1.31435 -3.25233,1.97153 3.24972,-1.93746 5.67081,-4.8115 8.33719,-7.45314 2.47722,-3.45174 4.73034,-7.064 7.69588,-10.13347 2.57305,-3.12155 5.12035,-6.3425 7.20338,-9.79848 1.85241,-3.05759 2.98134,-6.49609 4.28155,-9.81251 1.40102,-3.54664 2.14607,-7.20185 3.05127,-10.908334 0.77677,-3.721522 0.23882,-7.584617 0.34879,-11.3676 -0.10646,-3.828485 -0.26912,-7.695092 -1.36756,-11.392549 -1.42277,-4.096415 -3.43726,-7.913155 -5.07949,-11.917819 -2.02324,-4.095895 -3.85029,-8.140987 -6.93481,-11.609324 -2.52915,-3.098575 -4.86766,-6.358531 -8.42708,-8.370295 -2.80979,-1.790633 -5.76093,-3.319933 -8.95979,-4.310801 -2.82868,-0.928895 -5.48701,-1.591054 -8.505707,-1.18934 -2.889199,0.114882 -5.808871,0.30451 -8.544656,1.328039 -3.174747,1.252978 -6.112795,3.027987 -9.263268,4.335848 7.570146,-4.564595 -0.824263,0.523633 -3.484234,1.932347 -1.052534,0.55742 1.991814,-1.308292 3.018898,-1.91132 2.758757,-1.619743 -7.257216,4.546079 -4.927722,3.961556 -3.168992,2.703916 -6.265572,5.513484 -8.60295,8.991043 -2.959408,3.782206 -4.765574,8.233485 -7.004988,12.454207 -2.321612,6.73516 -4.096019,13.671193 -5.092334,20.732801 0,0 -5.070976,2.493799 -5.070976,2.493799 z" />
    <path
       style="fill:#000000;fill-opacity:1;stroke:#000000;stroke-width:4;stroke-linecap:round;stroke-linejoin:round;stroke-miterlimit:4;stroke-opacity:1;stroke-dasharray:none;stroke-dashoffset:24.6"
       id="path4975"
       d="m 547.63363,294.96161 c -3.8205,-4.73056 -7.40027,-9.98121 -8.49911,-16.04321 -0.60414,-4.67337 1.57074,-7.83402 4.87965,-10.77751 5.17554,-3.78563 9.94305,-6.50985 15.98811,-4.20652 3.69153,2.44598 4.62398,6.53219 5.14282,10.65374 0.63078,4.03056 -0.73177,7.4247 -3.31334,10.42878 -4.66349,3.75276 -9.6483,6.29863 -15.4837,5.19843 -3.27921,-1.21049 -4.77586,-3.63159 -5.62842,-6.85755 -0.15849,-3.87392 2.39542,-6.15128 5.13915,-8.4304 4.76888,-3.23095 9.82233,-7.38408 15.68006,-5.07428 2.71754,1.4859 3.72406,4.40519 3.46223,7.34967 -2.01081,4.45952 -7.23825,7.76513 -12.13613,7.51939 -3.23069,-0.96886 -5.19634,-3.34604 -6.26316,-6.43969 -0.11045,-5.62033 5.67836,-7.23746 9.87093,-9.29331 3.37221,1.57862 1.50828,4.56009 -0.17905,6.7531 -2.17335,2.71271 -9.046,7.94283 -9.41921,2.09728 0.705,-3.74329 6.77199,-8.04402 9.25136,-3.40217 0.69555,2.44304 1.41731,5.51429 0.0615,7.83068 -1.92441,0.68097 -3.74467,1.81477 -5.77323,2.0429 -1.64008,0.18444 -0.14097,-5.33475 0.1526,-6.11792 0.0727,-2.1018 -0.44639,-0.6846 -1.77221,0.0936 7.30367,-4.32151 4.00005,-2.2986 2.35391,-1.23975 -7.12518,1.78052 -5.12501,1.06683 -5.09884,-4.15599 -1.08769,-4.33706 -1.85706,-8.70897 -2.31567,-13.15667 -1.46176,-6.53635 -2.34165,-13.15132 -2.86333,-19.82167 -0.50031,-8.26889 -1.86909,-16.45017 -2.59014,-24.70619 -0.64071,-8.56857 -0.71656,-17.16404 -0.77994,-25.75195 -0.0349,-7.64156 -0.0223,-15.28327 -0.0187,-22.92489 0.003,-6.04421 0.005,-12.08843 0.005,-18.13264 0.006,-5.82135 2.2e-4,-11.6427 -3.8e-4,-17.46405 -1.1e-4,-5.60309 3.5e-4,-11.20617 5.7e-4,-16.80926 -0.14197,-4.99263 -0.0958,-9.89211 0.78846,-14.811036 0.93763,-4.5244 1.54607,-9.093285 1.86579,-13.699926 0.11755,-3.309593 0.0191,-6.504224 0.98458,-9.6895 1.29305,-3.266435 1.62013,-6.762034 1.87508,-10.232622 0.321,-3.730104 -0.0898,-7.496431 0.52881,-11.190318 0.72316,-2.74435 1.45252,-5.486967 2.15537,-8.236629 0.10342,-0.404047 0.20483,-0.808602 0.30573,-1.213281 0,0 5.15105,-2.465826 5.15105,-2.465826 l 0,0 c -0.10575,0.408051 -0.21206,0.815955 -0.31946,1.223578 -0.72028,2.740795 -1.42833,5.485309 -2.20031,8.212055 -0.72334,3.657513 -0.22096,7.425359 -0.5564,11.134523 -0.23632,3.498259 -0.50686,7.054122 -1.81037,10.34659 -1.00334,3.153254 -0.98295,6.27286 -1.05259,9.575396 -0.30519,4.628714 -0.90584,9.219878 -1.85181,13.76411 -0.90412,4.891766 -0.98815,9.749886 -0.83855,14.722326 2.7e-4,5.60285 8.2e-4,11.2057 8.3e-4,16.80854 -5.4e-4,5.82183 -0.006,11.64365 -0.002,17.46548 -0.002,6.04645 -0.006,12.0929 -0.0176,18.13935 -0.0136,7.64355 -0.0331,15.28714 -0.003,22.93068 0.055,8.57443 0.13117,17.15653 0.75999,25.71216 0.70818,8.25808 2.08492,16.43713 2.60442,24.70442 0.51226,6.66359 1.3757,13.27651 2.88116,19.79687 0.4519,4.46402 1.19513,8.86019 2.37295,13.19411 -0.009,5.65177 1.06723,4.89766 -5.26942,8.84221 2.31553,-1.69635 4.99414,-2.89038 7.38148,-4.44762 1.59386,-0.86031 2.44789,-0.83736 2.50888,1.09464 -0.55078,1.30139 -1.25898,2.93971 -0.97752,4.3918 0.0755,0.38921 0.73909,0.79059 0.47812,1.08903 -1.17656,1.3455 -2.84558,2.16364 -4.26838,3.24546 1.70766,-1.89516 0.76702,-5.0293 0.23032,-7.26915 -0.16248,-0.31047 -0.25971,-0.66508 -0.48744,-0.93141 -0.19915,-0.23291 -0.95749,-0.29195 -0.75612,-0.52296 8.34645,-9.5748 2.19694,-1.29423 1.98874,-0.55293 -0.0428,0.70231 -0.24037,1.14541 0.3521,1.69305 0.34141,0.31557 1.77388,-0.38831 1.38889,-0.12769 -1.21787,0.82441 -2.43026,1.68903 -3.77631,2.28148 -0.49882,0.21955 0.7835,-0.75777 1.17525,-1.13666 1.26851,-1.45841 3.98753,-4.60322 0.85868,-5.54721 8.27766,-5.4897 -0.57782,-0.92392 -0.36089,3.12384 0.95414,2.89795 2.79234,5.1353 5.87765,5.85273 0.55513,-0.0213 1.11972,0.0405 1.66538,-0.0638 0.49637,-0.0948 1.82714,-0.82787 1.42184,-0.52605 -7.258,5.40499 -1.5137,0.79459 -0.62812,-1.08556 0.42805,-2.6847 -0.54466,-5.41173 -3.07551,-6.69279 -4.46013,-1.46579 -10.66755,2.42257 -3.91798,-1.32955 0.61908,-0.34415 -1.20549,0.74403 -1.80824,1.11605 -2.64012,2.1454 -5.31073,4.13249 -5.39845,7.84138 0.76242,3.04088 2.12629,5.29717 5.27681,6.3105 1.18897,0.18824 2.20321,0.43544 3.41682,0.29498 2.30866,-0.26719 6.63603,-3.1133 0.65251,0.94978 -0.50742,0.34456 1.03102,-0.66469 1.54654,-0.99703 2.66815,-2.77646 4.11144,-6.07105 3.53182,-9.99385 -0.46706,-3.89861 -1.2439,-7.87797 -4.82848,-10.11436 -1.83739,-0.61854 -3.63837,-1.06388 -5.60054,-0.67852 -0.60649,0.11911 -2.16419,1.05279 -1.75923,0.58586 0.78244,-0.90219 2.02851,-1.26738 2.97822,-1.9914 0.51389,-0.39176 -1.11071,0.66071 -1.66606,0.99107 -3.27515,2.78765 -5.66949,5.64789 -5.14066,10.2597 0.97816,5.98786 4.59497,11.16176 8.36883,15.78975 0,0 -4.85578,2.90221 -4.85578,2.90221 z" />
    <path
       style="fill:#000000;fill-opacity:1;stroke:#000000;stroke-width:4;stroke-linecap:round;stroke-linejoin:round;stroke-miterlimit:4;stroke-opacity:1;stroke-dasharray:none;stroke-dashoffset:24.6"
       id="path4977"
       d="m 495.90886,83.193203 c 5.16997,-6.474409 10.00096,-13.196278 15.30867,-19.566196 5.20164,-4.9453 10.08704,-10.350325 15.75755,-14.769639 5.17203,-3.589823 10.51717,-7.058485 16.58467,-8.857861 3.65639,-1.54215 4.90324,-3.332734 8.39105,-0.525232 3.08918,2.728532 5.38246,6.058315 7.32679,9.658184 2.41515,4.174061 4.89723,8.313109 7.45944,12.400875 0,0 -4.87421,2.836851 -4.87421,2.836851 l 0,0 c -2.55708,-4.105091 -5.0556,-8.247359 -7.48875,-12.42482 -1.91088,-3.528036 -4.16616,-6.796669 -7.22053,-9.446713 -2.93753,-2.171608 -5.031,-0.240678 -8.07869,0.967243 -2.37869,0.74987 -7.16597,3.631287 -5.43133,2.206368 5.96224,-4.897678 0.14366,0.918424 -1.43354,1.097779 -5.7528,4.310327 -10.54387,9.82169 -15.83719,14.667453 -5.31508,6.342148 -10.15348,13.032888 -15.26183,19.533175 0,0 -5.2021,2.222533 -5.2021,2.222533 z" />
    <path
       style="fill:#000000;fill-opacity:1;stroke:#000000;stroke-width:4;stroke-linecap:round;stroke-linejoin:round;stroke-miterlimit:4;stroke-opacity:1;stroke-dasharray:none;stroke-dashoffset:24.6"
       id="path4979"
       d="m 578.99566,114.21483 c -2.20532,13.09311 -6.23891,25.73185 -10.31926,38.32967 -3.1239,8.29317 -5.44483,17.55302 -11.48515,24.32418 -2.09645,1.0877 -4.05312,2.50322 -6.28936,3.26309 -0.48177,0.16371 -0.96369,-0.36172 -1.37739,-0.65795 -3.25137,-2.32806 -3.84354,-6.94169 -4.61973,-10.5193 -1.98176,-9.67153 -0.91279,-19.39077 1.15522,-28.93158 2.78668,-10.97809 8.53607,-20.6353 15.7323,-29.25559 6.7267,-7.31931 15.13217,-14.37505 25.24256,-15.915178 6.43229,0.09528 9.81823,4.247269 12.57138,9.571908 2.7359,5.87127 2.5785,11.43285 0.84967,17.49619 -2.90102,7.75994 -9.78479,10.74488 -16.62383,14.56324 -4.20233,1.90908 -8.68001,2.79906 -13.24537,3.20127 1.26898,-0.52177 -2.05422,0.41174 -1.59661,0.13624 5.13503,-3.09153 6.38929,-3.92723 11.56256,-2.9972 5.18491,0.65454 9.75472,2.54683 13.94218,5.63388 3.38224,2.55225 5.60141,5.92404 7.06351,9.84187 1.01952,3.48458 1.1738,6.94257 0.25218,10.43439 -0.91846,2.35705 -1.12636,4.97191 -2.66093,7.02658 -0.5795,0.75922 -1.02615,1.60205 -1.4726,2.44211 0,0 -5.19024,2.33779 -5.19024,2.33779 l 0,0 c 0.4436,-0.86817 0.89248,-1.73479 1.42895,-2.55079 1.71918,-1.91112 1.8344,-4.47689 2.77687,-6.81748 0.95741,-3.39259 0.90268,-6.70197 -0.0919,-10.1218 -1.39629,-3.83317 -3.56981,-7.08944 -6.87702,-9.56608 -4.1613,-3.00248 -8.68785,-4.79013 -13.80296,-5.40776 -2.64534,-0.38225 -1.32412,-0.29351 -3.84487,-0.28269 -0.53608,0.002 -1.82683,0.49442 -1.60825,0.005 1.57327,-3.52319 2.30828,-3.29863 4.67498,-3.48861 4.52264,-0.43783 8.95321,-1.39541 13.08622,-3.35602 -0.74818,0.48077 -3.0064,1.90107 -2.24452,1.44232 4.14928,-2.49842 7.6373,-5.36991 9.38078,-10.06065 1.83782,-6.23849 2.06423,-11.00581 -0.65376,-17.11618 -2.65572,-5.15019 -5.92941,-9.115048 -12.17624,-8.981835 -7.62044,1.413711 -8.27101,2.789975 -15.61346,10.353585 -7.24319,8.51423 -13.00056,18.10472 -15.84573,29.01054 -2.09055,9.45839 -3.17981,19.09873 -1.22593,28.69852 0.64774,2.99325 1.11409,6.34207 3.0722,8.84689 1.48405,1.89841 2.68336,1.2577 2.47037,1.51452 -0.88831,1.07111 -2.28175,1.59347 -3.42263,2.3902 6.33888,-6.46869 8.50522,-15.97117 11.69881,-24.15103 4.09032,-12.55721 8.17169,-25.15681 10.25431,-38.23973 0,0 5.07266,-2.44645 5.07266,-2.44645 z" />
    <path
       style="fill:#000000;fill-opacity:1;stroke:#000000;stroke-width:4;stroke-linecap:round;stroke-linejoin:round;stroke-miterlimit:4;stroke-opacity:1;stroke-dasharray:none;stroke-dashoffset:24.6"
       id="path4981"
       d="m 84.798102,83.477134 c 5.923909,-4.996378 11.440064,-10.456296 17.498208,-15.301938 4.33201,-3.802242 8.99787,-7.193009 13.44087,-10.861813 1.28241,-1.067423 2.55018,-2.152228 3.80591,-3.250843 0,0 5.27645,-2.144782 5.27645,-2.144782 l 0,0 c -1.26596,1.10964 -2.54608,2.20298 -3.83878,3.281384 -4.448,3.685371 -9.13478,7.071462 -13.4725,10.887132 -6.09087,4.785796 -11.588888,10.247927 -17.460155,15.283992 0,0 -5.250003,2.106868 -5.250003,2.106868 z" />
    <path
       style="fill:#000000;fill-opacity:1;stroke:#000000;stroke-width:4;stroke-linecap:round;stroke-linejoin:round;stroke-miterlimit:4;stroke-opacity:1;stroke-dasharray:none;stroke-dashoffset:24.6"
       id="path4983"
       d="m 108.23211,79.185918 c -0.22124,6.392563 -0.15694,12.683469 1.26718,18.933713 0.1426,0.522061 0.27665,1.046531 0.42779,1.566183 0.10802,0.371416 0.20403,0.748136 0.34956,1.106516 0.0398,0.0979 0.39151,0.0894 0.29174,0.12437 -5.07202,1.77611 -4.85724,3.57284 -4.57932,0.57288 -0.27121,-4.127207 1.08416,-7.786251 2.58614,-11.543379 2.20216,-5.018532 5.3493,-9.43367 9.39062,-13.108589 2.84968,-2.722389 7.15823,-8.504849 11.55228,-7.653449 0,0 -4.63995,3.303505 -4.63995,3.303505 l 0,0 c -2.18419,0.04469 -1.03264,0.131646 3.34897,-2.520722 0.39006,-0.236119 -0.75403,0.513955 -1.11376,0.794124 -1.48445,1.156148 -2.57973,2.624615 -3.91314,3.943131 -4.08558,3.577813 -7.26697,7.891402 -9.49581,12.869364 -1.47947,3.712115 -2.97206,7.284599 -2.63325,11.378409 -0.38494,5.443566 -6.61203,7.819376 -6.55416,1.847486 -1.41347,-6.295044 -1.51329,-12.61106 -1.32054,-19.047752 0,0 5.03565,-2.56579 5.03565,-2.56579 z" />
    <path
       style="fill:#000000;fill-opacity:1;stroke:#000000;stroke-width:4;stroke-linecap:round;stroke-linejoin:round;stroke-miterlimit:4;stroke-opacity:1;stroke-dasharray:none;stroke-dashoffset:24.6"
       id="path4985"
       d="m -1.2209436,165.72965 c 5.1524918,-7.13908 10.3101934,-14.30271 16.0666446,-20.97104 3.467495,-4.42251 7.897585,-7.75437 12.381941,-11.04766 6.466742,-4.15187 8.945489,-6.24812 13.757757,-0.64294 2.631456,3.92044 5.208395,7.84912 7.40349,12.03683 1.009304,1.83803 2.125779,3.61273 3.246473,5.38371 0,0 -4.898082,2.85254 -4.898082,2.85254 l 0,0 c -1.118152,-1.79022 -2.232546,-3.58357 -3.255811,-5.4306 -2.161777,-4.15602 -4.728985,-8.03926 -7.346288,-11.91678 -1.127596,-1.28157 -2.014245,-2.44267 -3.752424,-2.85703 -0.494345,-0.11784 -1.818187,0.24157 -1.515459,-0.16662 0.811612,-1.09436 2.313779,-1.45414 3.362513,-2.3239 0.512737,-0.42524 -1.161163,0.65314 -1.741744,0.97972 -4.493325,3.28194 -8.996464,6.52922 -12.475878,10.94996 -5.780054,6.61885 -10.9300445,13.75903 -16.0571374,20.88914 0,0 -5.1759952,2.26467 -5.1759952,2.26467 z" />
    <path
       style="fill:#000000;fill-opacity:1;stroke:#000000;stroke-width:4;stroke-linecap:round;stroke-linejoin:round;stroke-miterlimit:4;stroke-opacity:1;stroke-dasharray:none;stroke-dashoffset:24.6"
       id="path4987"
       d="m 25.374966,144.9002 c -0.127565,8.05163 1.103946,16.05302 2.839242,23.89181 1.103728,7.15364 3.03145,14.13174 4.372147,21.23797 1.633794,6.64243 2.78221,13.37239 4.464898,20.00069 1.374978,6.44624 3.125072,12.78508 4.142216,19.30446 1.845533,8.37224 3.021834,16.86316 4.419931,25.31638 2.05748,9.90156 4.402273,19.74532 6.806202,29.56872 2.235548,8.66782 4.771197,17.25298 6.894234,25.95423 2.497012,9.54323 3.854823,19.27895 5.418373,28.99775 1.581435,11.20821 3.065555,22.43364 4.452521,33.66957 0.957405,12.15754 2.469729,24.26012 3.512867,36.41079 1.002717,11.69811 2.09521,23.41894 3.592235,35.06733 1.494715,9.78433 2.333395,19.63447 3.830384,29.41588 0.989915,8.57376 2.706832,17.03069 3.928749,25.57135 0.934235,7.95202 2.557746,15.77935 3.353248,23.75445 0.294359,9.57769 1.203683,19.08452 2.090727,28.62015 1.16639,13.08899 1.311176,26.23615 1.45326,39.36698 -0.233399,14.28089 0.547206,28.53167 1.381346,42.78094 0,0 -4.88135,2.52251 -4.88135,2.52251 l 0,0 c -0.801134,-14.25492 -1.640001,-28.50825 -1.411597,-42.79386 -0.154808,-13.10881 -0.31834,-26.23364 -1.482558,-39.30048 -0.903996,-9.52938 -1.837561,-19.02722 -2.120535,-28.6012 -0.788981,-7.96883 -2.404609,-15.78929 -3.343523,-23.73307 -1.200825,-8.54391 -2.938167,-16.9968 -3.912812,-25.5727 -1.501474,-9.78936 -2.329821,-19.64696 -3.808734,-29.44215 -1.513403,-11.65421 -2.586853,-23.38722 -3.59651,-35.09225 -1.031246,-12.14446 -2.557534,-24.23763 -3.511142,-36.38825 -1.380017,-11.22906 -2.877137,-22.44501 -4.451334,-33.64636 -1.578428,-9.69993 -2.920146,-19.42199 -5.415799,-28.94909 -2.125156,-8.70117 -4.662356,-17.28696 -6.884946,-25.95861 -2.415821,-9.83423 -4.736592,-19.6968 -6.829235,-29.60451 -1.407655,-8.45041 -2.589479,-16.93967 -4.448308,-25.30767 -1.011022,-6.5037 -2.774407,-12.81841 -4.128904,-19.25166 -1.683758,-6.64074 -2.826469,-13.38198 -4.481566,-20.03227 -1.319346,-7.10631 -3.253586,-14.07834 -4.350551,-21.22874 -1.738995,-7.87265 -2.974416,-15.89952 -2.928822,-23.9833 0,0 5.035646,-2.56579 5.035646,-2.56579 z" />
    <path
       style="fill:#000000;fill-opacity:1;stroke:#000000;stroke-width:4;stroke-linecap:round;stroke-linejoin:round;stroke-miterlimit:4;stroke-opacity:1;stroke-dasharray:none;stroke-dashoffset:24.6"
       id="path4991"
       d="m 49.832239,612.59468 c 7.072707,7.70328 13.321573,16.08679 19.535654,24.48064 4.850674,6.33773 9.949064,12.92736 16.892632,17.06879 0.234819,1.45873 6.994195,0.39355 6.579801,-0.91588 -0.235829,-0.74519 -2.425409,1.31886 -2.279166,0.55105 0.265026,-1.39144 1.930433,-2.07983 2.785444,-3.20912 1.049643,-1.38637 1.945427,-2.88277 2.91814,-4.32415 7.182436,-12.64682 11.907366,-26.47529 17.745876,-39.75804 3.48312,-7.59961 7.11314,-15.13326 10.93916,-22.56642 0.17025,-0.32512 0.34049,-0.65023 0.51074,-0.97535 0,0 5.18566,-2.33065 5.18566,-2.33065 l 0,0 c -0.17571,0.32584 -0.35141,0.65167 -0.52712,0.9775 -3.91026,7.42281 -7.57615,14.97332 -11.08555,22.59322 -5.87967,13.27613 -10.59825,27.10273 -17.65921,39.82351 -4.242284,6.47076 -11.090593,16.14393 -19.850615,13.19575 -6.932574,-4.27909 -12.072428,-10.88024 -16.946001,-17.29169 -6.194551,-8.37787 -12.420169,-16.75815 -19.563717,-24.36652 0,0 4.818272,-2.95264 4.818272,-2.95264 z" />
    <path
       style="fill:#000000;fill-opacity:1;stroke:#000000;stroke-width:4;stroke-linecap:round;stroke-linejoin:round;stroke-miterlimit:4;stroke-opacity:1;stroke-dasharray:none;stroke-dashoffset:24.6"
       id="path4993"
       d="m 3.7949441,364.04847 c 5.5504548,7.21851 8.8969399,15.59454 11.6758929,24.1772 3.124631,10.89588 3.66345,22.25361 4.029052,33.51208 0.25218,11.63836 0.20379,23.28052 0.186624,34.92083 0.310024,6.75197 -0.182106,13.41792 -1.705679,19.99708 -0.78952,2.93465 -0.796186,4.67439 -6.096988,3.16554 -0.425716,-0.12118 -0.04487,-3.06121 0.144173,-4.94559 0.749069,-7.4365 2.596267,-14.64291 4.75441,-21.77391 2.051224,-6.4075 5.353643,-12.00442 9.785855,-16.99406 5.471024,-5.09438 10.073843,-8.12627 15.927414,-3.37225 5.196605,4.87835 7.663213,11.7315 9.400294,18.47115 1.664352,8.83249 3.165641,17.67478 4.128958,26.61217 0.529266,5.35512 0.745446,10.73418 0.810962,16.11294 -0.185878,1.71394 0.273589,3.12731 1.22288,4.50961 0,0 -4.909322,2.88071 -4.909322,2.88071 l 0,0 c -0.982187,-1.47628 -1.572173,-2.99254 -1.356693,-4.81386 -0.05052,-5.37005 -0.223401,-10.74168 -0.739637,-16.08985 -0.923208,-8.9177 -2.425707,-17.73348 -4.08718,-26.54159 -1.694794,-6.6247 -4.097962,-13.38258 -9.25954,-18.13051 -1.616275,-1.25257 -2.9308,-2.3553 -5.115267,-2.08867 -0.619337,0.0756 -2.175316,1.01569 -1.798607,0.51831 0.684524,-0.90379 1.736129,-1.59391 2.83236,-1.8832 0.794654,-0.2097 -1.236157,1.08339 -1.854236,1.62508 -4.430685,4.95378 -7.872351,10.3693 -9.912843,16.78373 -2.162266,7.09538 -4.052124,14.25549 -4.772514,21.66562 -0.09982,0.85906 -0.266692,1.71297 -0.29945,2.57719 -0.02831,0.74693 0.569269,1.64434 0.11688,2.23937 -7.2910124,9.58992 -4.770919,4.32834 -4.029124,1.92506 1.614565,-6.54173 2.147788,-13.18042 1.839783,-19.91769 0.04033,-11.63816 0.0997,-23.27837 -0.155657,-34.91467 -0.369593,-11.20608 -0.877072,-22.51458 -3.974948,-33.36413 -2.7551745,-8.5173 -6.0641755,-16.84631 -11.6436331,-23.96148 0,0 4.8557802,-2.90221 4.8557802,-2.90221 z" />
  </g>
</svg>
