<?xml version="1.0" encoding="UTF-8" standalone="no"?>
<!-- Created with Inkscape (http://www.inkscape.org/) -->
<svg
   xmlns:dc="http://purl.org/dc/elements/1.1/"
   xmlns:cc="http://creativecommons.org/ns#"
   xmlns:rdf="http://www.w3.org/1999/02/22-rdf-syntax-ns#"
   xmlns:svg="http://www.w3.org/2000/svg"
   xmlns="http://www.w3.org/2000/svg"
   xmlns:sodipodi="http://sodipodi.sourceforge.net/DTD/sodipodi-0.dtd"
   xmlns:inkscape="http://www.inkscape.org/namespaces/inkscape"
   width="744.09448819"
   height="1052.3622047"
   id="svg3035"
   sodipodi:version="0.32"
   inkscape:version="0.46+devel"
   sodipodi:docname="c43d3.svg"
   inkscape:output_extension="org.inkscape.output.svg.inkscape">
  <defs
     id="defs3037">
    <inkscape:perspective
       sodipodi:type="inkscape:persp3d"
       inkscape:vp_x="0 : 526.18109 : 1"
       inkscape:vp_y="0 : 1000 : 0"
       inkscape:vp_z="744.09448 : 526.18109 : 1"
       inkscape:persp3d-origin="372.04724 : 350.78739 : 1"
       id="perspective3043" />
  </defs>
  <sodipodi:namedview
     id="base"
     pagecolor="#ffffff"
     bordercolor="#666666"
     borderopacity="1.0"
     inkscape:pageopacity="0.0"
     inkscape:pageshadow="2"
     inkscape:zoom="0.35"
     inkscape:cx="375"
     inkscape:cy="520"
     inkscape:document-units="px"
     inkscape:current-layer="layer1"
     showgrid="false"
     inkscape:window-width="1280"
     inkscape:window-height="712"
     inkscape:window-x="-5"
     inkscape:window-y="-3" />
  <metadata
     id="metadata3040">
    <rdf:RDF>
      <cc:Work
         rdf:about="">
        <dc:format>image/svg+xml</dc:format>
        <dc:type
           rdf:resource="http://purl.org/dc/dcmitype/StillImage" />
        <dc:title></dc:title>
      </cc:Work>
    </rdf:RDF>
  </metadata>
  <g
     inkscape:label="Layer 1"
     inkscape:groupmode="layer"
     id="layer1">
    <path
       style="fill:#000000;fill-opacity:1;fill-rule:nonzero;stroke:#000000;stroke-width:5;stroke-linecap:round;stroke-linejoin:round;stroke-miterlimit:4;stroke-opacity:1;stroke-dasharray:none;stroke-dashoffset:24.6"
       id="path3045"
       d="m 167.59128,276.06739 c -4.19566,10.60576 -5.81646,21.98883 -7.61982,33.18722 -1.97007,16.33556 -3.70372,32.70608 -4.82125,49.12471 -0.95804,18.47055 -1.05494,36.95428 -2.09375,55.42116 -1.04177,16.3786 -1.57893,32.77995 -1.85949,49.18719 0.20934,12.17501 -0.32418,24.27307 -1.44363,36.38884 -0.8506,8.05907 -1.24094,16.15099 -1.44091,24.24883 -0.11279,5.89272 -0.43863,11.7427 0.68872,17.54858 0.99118,4.35767 1.56873,8.77769 1.8967,13.22888 0.41125,3.27095 -0.20291,6.65889 0.53325,9.87412 0.52528,1.03849 1.01158,3.27106 2.38482,3.49438 3.82733,1.75275 8.11405,2.44279 12.21258,3.33454 9.92162,1.60348 19.9486,2.66343 29.95618,3.63259 16.82011,0.86236 33.56871,2.5117 50.31877,4.22491 22.33604,2.43637 44.57286,5.63362 66.81871,8.7692 26.79187,3.67439 53.84227,4.74992 80.81366,6.33841 29.21763,1.38718 58.44394,2.64411 87.64267,4.40036 30.34045,2.07665 60.73978,2.929 91.14068,3.42974 27.59704,0.95568 55.18977,1.89362 82.75628,3.51129 20.15954,1.70336 40.33193,3.32616 60.34794,6.32064 8.68519,1.66292 17.41066,2.56659 26.23898,2.77853 0,0 -4.5226,3.26668 -4.5226,3.26668 l 0,0 c -8.8165,-0.27884 -17.53347,-1.23289 -26.20903,-2.88192 -19.97769,-2.98581 -40.1081,-4.648 -60.22936,-6.34514 -27.54542,-1.6284 -55.11786,-2.58365 -82.69483,-3.52775 -30.40391,-0.51302 -60.80571,-1.38305 -91.14968,-3.4515 -29.20672,-1.73632 -58.43924,-2.99708 -87.66369,-4.38466 -26.99316,-1.58824 -54.06492,-2.66296 -80.87794,-6.34593 -22.25972,-3.11868 -44.50968,-6.30778 -66.86068,-8.71414 -16.77227,-1.70167 -33.54566,-3.29963 -50.38531,-4.17411 -10.04167,-0.96963 -20.11208,-1.98381 -30.06075,-3.63959 -4.14384,-0.90271 -8.43208,-1.60799 -12.31821,-3.35611 -1.47145,-0.76058 -2.0498,-2.53505 -2.65428,-3.98534 -0.80893,-3.23676 -0.17715,-6.65493 -0.56579,-9.96239 -0.3035,-4.43274 -0.86397,-8.83622 -1.85248,-13.17407 -1.15172,-5.8478 -0.8587,-11.73102 -0.72066,-17.67053 0.20554,-8.11566 0.58533,-16.22719 1.4618,-24.30208 1.14605,-12.11096 1.72606,-24.20462 1.51647,-36.37839 0.29308,-16.42083 0.83631,-32.83541 1.89101,-49.22714 1.05027,-18.46715 1.15126,-36.94963 2.08277,-55.42215 1.09032,-16.42756 2.83667,-32.80221 4.75946,-49.15013 1.77264,-11.19667 3.36103,-22.58197 7.46164,-33.21269 0,0 5.12105,-2.40504 5.12105,-2.40504 z" />
    <path
       style="fill:#000000;fill-opacity:1;fill-rule:nonzero;stroke:#000000;stroke-width:5;stroke-linecap:round;stroke-linejoin:round;stroke-miterlimit:4;stroke-opacity:1;stroke-dasharray:none;stroke-dashoffset:24.6"
       id="path3047"
       d="m -14.625034,624.9002 c -0.256074,12.25726 0.985854,24.47671 1.651199,36.70636 0.873368,19.17828 0.967922,38.38089 1.077157,57.57536 -0.208477,19.08321 -1.839991,38.0804 -3.546997,57.07194 -0.905907,13.18149 -2.908014,26.24776 -4.047975,39.40815 -0.559912,7.05751 -0.800049,14.13457 -0.868626,21.21226 -0.02096,3.47461 -0.0013,6.94933 0.01685,10.42391 0.01047,3.38894 0.0063,6.77791 0.01084,10.16686 -0.001,3.5063 -0.0035,7.0126 0.0054,10.5189 0.0033,1.01968 0.0067,2.03937 0.01425,3.05903 0.06431,1.83852 3.021859,1.89179 4.29471,2.07439 6.3623146,0.30847 12.6763478,0.61798 19.0148837,1.31063 13.0760613,1.45118 26.2455653,1.6429 39.3865793,1.85958 20.532289,0.23272 41.066487,0.21244 61.599803,0.2188 27.07237,0.003 54.14475,0.008 81.21713,0.009 32.31444,0.42949 64.60444,-0.36949 96.9014,-1.28852 34.21822,-1.54677 68.3911,-1.06368 102.58111,0.65787 33.9694,1.96015 67.81857,5.37074 101.65074,8.9193 31.02291,3.97667 62.19806,7.03722 92.951,12.8232 19.7227,3.59602 38.73355,9.79214 57.41959,16.90699 0,0 -4.60998,3.09785 -4.60998,3.09785 l 0,0 c -18.58632,-7.18861 -37.53775,-13.34925 -57.19061,-16.9447 -30.72626,-5.7821 -61.8722,-8.86599 -92.87004,-12.82727 -33.8238,-3.54216 -67.66321,-6.96241 -101.62513,-8.90246 -34.18445,-1.71197 -68.35238,-2.15963 -102.56389,-0.61914 -32.31397,0.92457 -64.62138,1.71382 -96.95292,1.30745 -27.0957,0.008 -54.19139,0.0275 -81.287085,0.0418 -20.558288,0.003 -41.117405,0.0419 -61.67485,-0.17525 -13.177001,-0.21012 -26.38224,-0.39165 -39.4945512,-1.84423 -6.3644413,-0.67396 -12.7130168,-0.88689 -19.0918018,-1.28881 -1.580248,-0.26456 -4.628889,-0.58216 -4.744558,-2.74372 0.0078,-1.02455 0.01121,-2.04912 0.0146,-3.07368 0.0091,-3.50778 0.0069,-7.01556 0.0039,-10.52334 0.0015,-3.38703 -0.0058,-6.77407 -0.01799,-10.16107 -0.0083,-3.48113 -0.0296,-6.96233 0.0022,-10.44342 0.09607,-7.102 0.344862,-14.20245 0.917443,-21.28393 1.145235,-13.17542 3.208289,-26.24865 4.117779,-39.44542 1.741174,-18.98173 3.401877,-37.96907 3.612908,-57.04625 -0.104919,-19.17751 -0.21061,-38.36346 -1.119292,-57.52336 -0.678057,-12.2197 -1.933535,-24.422 -1.790849,-36.66915 0,0 5.035646,-2.56579 5.035646,-2.56579 z" />
    <path
       style="fill:#000000;fill-opacity:1;fill-rule:nonzero;stroke:#000000;stroke-width:5;stroke-linecap:round;stroke-linejoin:round;stroke-miterlimit:4;stroke-opacity:1;stroke-dasharray:none;stroke-dashoffset:24.6"
       id="path3049"
       d="m -33.397063,884.73773 c -9.196809,12.7071 -17.914875,25.74001 -27.049838,38.49135 -15.468618,22.24428 -29.286711,45.54005 -43.253459,68.73573 -13.84632,23.84629 -27.93886,47.54719 -41.7673,71.40409 -7.77509,13.6271 -15.34892,27.4924 -25.51458,39.5169 0,0 -5.15434,2.1827 -5.15434,2.1827 l 0,0 c 10.30989,-11.9594 17.93154,-25.8515 25.73933,-39.5061 13.86101,-23.8623 27.98491,-47.5687 41.829,-71.44084 13.94411,-23.18303 27.733051,-46.46821 43.134771,-68.73041 9.094841,-12.7162 17.804001,-25.69052 26.841479,-38.44621 0,0 5.194937,-2.20721 5.194937,-2.20721 z" />
    <path
       style="fill:#000000;fill-opacity:1;fill-rule:nonzero;stroke:#000000;stroke-width:5;stroke-linecap:round;stroke-linejoin:round;stroke-miterlimit:4;stroke-opacity:1;stroke-dasharray:none;stroke-dashoffset:24.6"
       id="path3051"
       d="m 4.1638092,871.47696 c 5.1852562,-10.23325 10.2044118,-20.54941 15.5573578,-30.69635 7.059741,-13.42673 13.814626,-26.99415 21.367759,-40.15627 7.196475,-13.60559 15.488562,-26.58173 22.919803,-40.05179 7.043514,-12.10949 13.938635,-24.30305 21.002196,-36.40063 5.486127,-9.72557 10.261894,-19.84531 15.267665,-29.82851 3.49229,-6.75957 7.07451,-13.47689 10.41833,-20.31176 1.76493,-4.53633 4.04931,-8.80467 6.27245,-13.1249 2.32202,-4.23006 4.23685,-8.63386 6.04032,-13.10689 1.32887,-4.28099 3.11036,-8.31969 5.36142,-12.19278 2.31787,-3.26779 4.45646,-6.66737 7.09351,-9.69213 2.05537,-2.58596 4.05899,-5.21169 6.13552,-7.78187 0.1795,-0.22056 0.35899,-0.44113 0.53848,-0.66169 0,0 5.23679,-2.23013 5.23679,-2.23013 l 0,0 c -0.18218,0.22086 -0.36435,0.44171 -0.54653,0.66257 -2.09734,2.56719 -4.13437,5.17932 -6.14263,7.8161 -2.72563,2.93091 -4.75017,6.39125 -7.1433,9.58925 -2.28295,3.84264 -4.1195,7.83701 -5.41115,12.12161 -1.78031,4.4934 -3.67561,8.91703 -6.01191,13.15034 -2.18912,4.34162 -4.57949,8.56263 -6.29826,13.12551 -3.32491,6.85702 -6.94763,13.56827 -10.45231,20.33429 -5.01458,9.9981 -9.830761,20.11688 -15.28797,29.87665 -7.074125,12.09739 -13.983266,24.28849 -21.034553,36.3995 -7.406435,13.49011 -15.750049,26.442 -22.925607,40.06568 -7.570737,13.14164 -14.313104,26.70415 -21.356037,40.12903 -5.337188,10.1161 -10.348813,20.39775 -15.4498098,30.63445 0,0 -5.151534,2.33072 -5.151534,2.33072 z" />
    <path
       style="fill:#000000;fill-opacity:1;fill-rule:nonzero;stroke:#000000;stroke-width:5;stroke-linecap:round;stroke-linejoin:round;stroke-miterlimit:4;stroke-opacity:1;stroke-dasharray:none;stroke-dashoffset:24.6"
       id="path3053"
       d="m 115.68687,618.14236 c 6.3783,-3.26475 12.60904,-6.79927 19.05456,-9.93636 4.09899,-2.41709 8.42408,-4.31249 13.00237,-5.58536 3.54202,0.14334 3.21832,3.97132 3.35541,6.66446 0.12447,10.9444 0.013,21.89115 -0.0196,32.83618 -0.0994,10.92288 -1.54448,21.71601 -3.35738,32.46272 0,0 -5.01894,2.45064 -5.01894,2.45064 l 0,0 c 1.87532,-10.72337 3.35714,-21.49704 3.45814,-32.40869 0.0125,-10.91599 0.0908,-21.83414 -0.0863,-32.74895 -0.11407,-2.27988 0.40343,-6.07938 -2.82829,-5.79535 -4.54026,1.31295 -8.80215,3.29071 -12.90494,5.63666 -6.44422,3.15461 -12.67762,6.70337 -19.07046,9.95597 0,0 4.41543,-3.53192 4.41543,-3.53192 z" />
    <path
       style="fill:#000000;fill-opacity:1;fill-rule:nonzero;stroke:#000000;stroke-width:5;stroke-linecap:round;stroke-linejoin:round;stroke-miterlimit:4;stroke-opacity:1;stroke-dasharray:none;stroke-dashoffset:24.6"
       id="path3055"
       d="m 501.23399,435.81688 c -6.82454,7.78454 -16.05872,12.89228 -25.87632,15.86347 -8.52156,2.29188 -16.6077,2.32326 -24.45241,-1.85849 -8.58492,-6.25593 -7.5446,-15.64974 -5.73253,-24.96577 3.90189,-15.11186 13.55386,-26.80527 24.60597,-37.32935 10.6038,-8.04487 22.2053,-17.12666 35.87198,-18.84365 1.85441,-0.23298 3.7377,-0.0457 5.60654,-0.0685 11.5241,1.52515 15.76025,8.48075 17.81115,19.16769 1.06065,12.4503 -4.8545,22.07172 -13.01844,30.8219 -10.98763,9.55304 -21.70773,13.57317 -35.8754,14.0702 -1.37547,-0.0314 -2.75094,-0.0628 -4.1264,-0.0942 0,0 4.54285,-3.28593 4.54285,-3.28593 l 0,0 c 1.36329,0.0265 2.72657,0.053 4.08986,0.0794 9.47189,-0.40114 19.06979,-1.93324 26.24611,-8.62968 8.15984,-8.57013 14.17154,-18.00107 13.21422,-30.33426 -1.94596,-10.49277 -6.06636,-17.1692 -17.38228,-18.5129 -13.38739,0.38213 -21.74735,5.07429 -31.89493,13.5396 -11.04384,10.41383 -20.73377,21.97321 -24.68582,36.99089 -1.80788,9.04435 -3.03356,18.28159 5.42936,24.31439 7.77933,4.03135 15.8092,3.83345 24.17696,1.51462 7.74146,-2.45514 10.29292,-3.63385 16.24744,-10.21686 0,0 5.20209,-2.22253 5.20209,-2.22253 z" />
    <path
       style="fill:#000000;fill-opacity:1;fill-rule:nonzero;stroke:#000000;stroke-width:5;stroke-linecap:round;stroke-linejoin:round;stroke-miterlimit:4;stroke-opacity:1;stroke-dasharray:none;stroke-dashoffset:24.6"
       id="path3057"
       d="m 156.05895,567.09833 c 10.03575,-3.37932 20.07768,-6.74039 30.13393,-10.06402 12.40058,-4.31164 24.554,-9.29487 36.57346,-14.56659 13.70104,-5.76619 26.80092,-12.82101 39.86321,-19.88305 14.16182,-7.34858 27.81726,-15.61333 41.86042,-23.17494 12.77043,-6.42343 25.39461,-13.17884 38.32075,-19.28288 8.34852,-4.26972 17.14355,-7.53195 25.68957,-11.36076 5.38516,-1.98085 10.40751,-4.76912 15.62298,-7.12197 3.80647,-1.38654 7.33296,-3.32226 11.23574,-4.46793 3.25517,-0.56894 6.42048,-0.73429 9.59697,-1.67317 2.4639,-0.82724 5.01886,-1.3575 7.57151,-1.83015 0,0 -4.54506,3.43265 -4.54506,3.43265 l 0,0 c -2.53633,0.48148 -5.06266,1.04392 -7.5161,1.85635 -3.17108,0.89458 -6.39225,0.94799 -9.59686,1.68131 -3.86009,1.1933 -7.38206,3.13542 -11.17066,4.51497 -5.18327,2.4029 -10.24777,5.07141 -15.60192,7.09847 -8.53822,3.78999 -17.29842,7.07785 -25.62988,11.32987 -12.89169,6.13486 -25.52809,12.81866 -38.26244,19.27311 -14.03273,7.58738 -27.70693,15.82503 -41.86788,23.18167 -13.06998,7.07302 -26.20267,14.08813 -39.91187,19.86314 -12.03531,5.26097 -24.20058,10.2455 -36.6194,14.5366 -10.08767,3.33073 -20.15018,6.72986 -30.22254,10.10368 0,0 4.47607,-3.44636 4.47607,-3.44636 z" />
    <path
       style="fill:#000000;fill-opacity:1;fill-rule:nonzero;stroke:#000000;stroke-width:5;stroke-linecap:round;stroke-linejoin:round;stroke-miterlimit:4;stroke-opacity:1;stroke-dasharray:none;stroke-dashoffset:24.6"
       id="path3059"
       d="m 390.12662,428.97638 c 7.05814,3.92826 14.09723,7.87773 21.71008,10.62612 5.26391,1.4578 10.39805,3.30304 15.68475,4.68374 2.66216,1.22569 3.5351,2.62231 2.0569,5.22955 -2.64458,4.73978 -6.29264,8.78989 -9.89932,12.80468 -5.08394,4.63043 -10.16578,9.33733 -15.64632,13.50076 -3.08038,2.2296 -1.58498,1.15989 -4.48391,3.21233 0,0 -5.2532,2.07151 -5.2532,2.07151 l 0,0 c 2.91145,-2.04784 1.41083,-0.98167 4.49972,-3.20154 5.53378,-4.08218 10.5373,-8.87464 15.70157,-13.40481 3.59208,-3.97687 7.27332,-7.97566 9.88348,-12.69327 1.588,-2.25137 0.99222,-3.22128 -1.53028,-4.30734 -5.27428,-1.42718 -10.41419,-3.26499 -15.66982,-4.75562 -7.61271,-2.81394 -14.65402,-6.80028 -21.77716,-10.65821 0,0 4.72351,-3.1079 4.72351,-3.1079 z" />
    <path
       style="fill:#000000;fill-opacity:1;fill-rule:nonzero;stroke:#000000;stroke-width:5;stroke-linecap:round;stroke-linejoin:round;stroke-miterlimit:4;stroke-opacity:1;stroke-dasharray:none;stroke-dashoffset:24.6"
       id="path3061"
       d="m -32.884561,886.71379 c 1.055995,-0.46532 2.12126,-0.91014 3.167983,-1.39596 4.022197,-1.86682 7.792399,-4.11379 11.68242,-6.22984 4.047037,-2.20146 5.72464,-2.64401 3.373901,-1.94667 9.3018342,-5.98574 18.1206728,-12.62989 26.568235,-19.75985 11.492041,-10.53138 23.117927,-20.94027 34.32819,-31.77329 13.742787,-13.22015 27.30983,-26.6316 40.687668,-40.22229 14.372374,-14.29308 29.129444,-28.18824 43.950134,-42.01277 13.78807,-12.83537 28.06547,-25.13508 42.36728,-37.39155 13.24667,-11.36698 26.54348,-22.66037 39.41869,-34.45007 11.44937,-11.16967 23.39067,-21.82465 34.88472,-32.94277 9.57823,-9.05225 19.61322,-17.60548 29.51522,-26.30015 7.86899,-7.61101 16.55386,-14.26294 24.91486,-21.29697 7.05377,-6.56808 13.98407,-13.14121 21.76026,-18.85241 6.67733,-4.68563 12.83751,-10.02459 18.82015,-15.55316 5.96976,-6.02116 12.54584,-11.3718 18.93801,-16.92736 6.40679,-5.99606 13.27482,-11.45626 19.94042,-17.15526 5.28307,-4.79497 11.08439,-8.96435 16.63237,-13.44005 3.85898,-2.58074 7.77514,-5.27888 12.13795,-6.93251 3.0954,-0.90752 -3.32931,3.49768 -4.83832,1.31102 -1.03965,-0.50894 -0.49285,-0.29241 -1.64441,-0.63933 0,0 4.71025,-3.19049 4.71025,-3.19049 l 0,0 c 1.27751,0.48564 0.66068,0.17375 1.84343,0.94952 1.64328,2.48306 -2.28949,4.18036 -4.55183,5.0928 -7.15114,3.01466 5.45681,-3.71635 -0.42029,-0.0226 -0.67736,0.42572 -1.33316,0.88481 -1.99974,1.32722 -5.55569,4.487 -11.38037,8.64739 -16.68004,13.44172 -6.65732,5.70793 -13.54505,11.14337 -19.9409,17.15065 -6.38275,5.55934 -12.98142,10.87792 -18.93638,16.90786 -5.97621,5.54881 -12.11959,10.92468 -18.80468,15.61664 -7.80199,5.68939 -14.78837,12.19465 -21.79825,18.82559 -8.33326,7.07315 -17.09185,13.64954 -24.93852,21.29495 -9.90174,8.7082 -19.95844,17.24781 -29.55878,26.28883 -11.48006,11.14574 -23.4693,21.7647 -34.90144,32.96628 -12.87271,11.80315 -26.16965,23.1064 -39.4262,34.47283 -14.30797,12.25836 -28.60057,24.54953 -42.40079,37.38053 -14.82701,13.81228 -29.57351,27.7128 -43.956528,41.98976 -13.357523,13.59738 -26.92588,26.99467 -40.649311,40.22083 -11.176123,10.85073 -22.82031,21.22174 -34.264744,31.78721 -8.4195898,7.15251 -17.21115065,13.81381 -26.4957623,19.81402 -9.0431227,5.44953 -18.1852527,10.8391 -27.8506567,15.12896 0,0 4.415431,-3.53192 4.415431,-3.53192 z" />
    <path
       style="fill:#000000;fill-opacity:1;fill-rule:nonzero;stroke:#000000;stroke-width:5;stroke-linecap:round;stroke-linejoin:round;stroke-miterlimit:4;stroke-opacity:1;stroke-dasharray:none;stroke-dashoffset:24.6"
       id="path3063"
       d="m 370.36871,513.18451 c 8.34656,-0.70405 16.15635,-3.82756 23.88202,-6.83769 6.10727,-2.55742 11.8885,-5.83407 18.09599,-8.14858 2.78713,-0.74435 6.23225,-2.55932 8.94253,-0.8888 1.91112,2.96217 1.0967,6.60825 0.52027,9.84401 -1.04366,6.45648 -3.4912,12.56495 -5.28521,18.83092 -1.65189,4.28336 -3.33682,8.50686 -4.41414,12.97426 0,0 -5.09468,2.4474 -5.09468,2.4474 l 0,0 c 1.05845,-4.48985 2.67939,-8.74347 4.43182,-13.00964 1.76795,-6.25332 4.22342,-12.33891 5.28606,-18.76893 0.53241,-2.95141 1.45465,-6.44696 -0.21502,-9.21248 -2.63336,-1.32199 -6.02615,0.63731 -8.61574,1.26526 -6.16572,2.38345 -11.95482,5.60943 -18.06498,8.13009 -7.76092,3.01447 -15.62341,6.0189 -23.99308,6.76029 0,0 4.52416,-3.38611 4.52416,-3.38611 z" />
    <path
       style="fill:#000000;fill-opacity:1;fill-rule:nonzero;stroke:#000000;stroke-width:5;stroke-linecap:round;stroke-linejoin:round;stroke-miterlimit:4;stroke-opacity:1;stroke-dasharray:none;stroke-dashoffset:24.6"
       id="path3065"
       d="m 146.75009,208.30887 c -10.26599,0.31571 -20.01268,2.91196 -29.53864,6.56561 -2.90997,1.34829 -6.75196,2.99067 -9.45824,4.77592 -0.27451,0.18108 1.17916,-0.40563 0.97548,-0.14745 -0.82907,1.05094 -2.02821,1.75047 -2.98145,2.69023 -2.18988,2.1589 -2.14822,2.33763 -3.77615,4.74845 -2.176068,3.95324 -2.571237,7.71424 0.27459,11.33741 3.1674,3.46015 7.61836,5.02781 11.75308,6.9826 2.20624,1.55045 5.73991,1.12615 7.68368,2.96399 1.02648,1.58606 1.1092,3.74649 0.63347,5.52516 -0.99971,3.0929 -2.776,5.71209 -5.0913,7.95887 -4.96235,5.27114 -11.58103,8.67433 -18.21119,11.38 -5.11553,1.82531 -10.35639,3.18324 -15.632888,4.44363 0,0 4.457634,-3.40193 4.457634,-3.40193 l 0,0 c 5.265993,-1.27031 10.498952,-2.64614 15.588534,-4.52278 1.09223,-0.46612 2.20588,-0.88492 3.27669,-1.39834 0.94579,-0.45347 1.72502,-1.37514 2.76654,-1.4992 0.92625,-0.11033 -1.45907,1.50001 -2.39076,1.45444 -2.71391,-0.13275 7.10085,-3.55618 4.90582,-4.3083 2.37461,-2.10626 4.1555,-4.66619 5.18381,-7.68939 0.60974,-1.47655 0.52059,-3.54115 -0.32223,-4.93417 -2.061,-1.61412 -5.40897,-1.29324 -7.56681,-2.85253 -4.21037,-1.99648 -8.7047,-3.64179 -11.8987,-7.20386 -2.93878,-3.81914 -2.794405,-7.739 -0.57593,-11.97198 5.69917,-8.86331 15.41871,-13.56875 24.7888,-17.7649 9.5915,-3.61723 19.41801,-6.14884 29.72843,-6.45343 0,0 -4.57227,3.32195 -4.57227,3.32195 z" />
    <path
       style="fill:#000000;fill-opacity:1;fill-rule:nonzero;stroke:#000000;stroke-width:5;stroke-linecap:round;stroke-linejoin:round;stroke-miterlimit:4;stroke-opacity:1;stroke-dasharray:none;stroke-dashoffset:24.6"
       id="path3067"
       d="m 168.87571,141.61951 c 3.53514,10.33836 5.4118,21.1326 7.31332,31.8613 0,0 -4.8634,2.58597 -4.8634,2.58597 l 0,0 c -1.87757,-10.6922 -3.76563,-21.45494 -7.40571,-31.7179 0,0 4.95579,-2.72937 4.95579,-2.72937 z" />
    <path
       style="fill:#000000;fill-opacity:1;fill-rule:nonzero;stroke:#000000;stroke-width:5;stroke-linecap:round;stroke-linejoin:round;stroke-miterlimit:4;stroke-opacity:1;stroke-dasharray:none;stroke-dashoffset:24.6"
       id="path3069"
       d="m -36.082999,520.11129 c -10.772531,1.75706 -21.226493,4.49512 -31.285138,8.73378 -5.558482,2.46623 -10.694241,6.18731 -13.053949,13.14663 -0.825301,6.926 5.56431,10.52039 10.654682,13.73581 7.127829,3.47859 14.426908,6.60488 21.806063,9.51039 4.434103,1.60823 7.594299,3.09654 5.07566,8.0389 -8.404159,9.08896 -20.669637,13.38919 -32.062772,17.42009 -2.487578,0.81924 -4.975156,1.63847 -7.462735,2.4577 0,0 4.351185,-3.37831 4.351185,-3.37831 l 0,0 c 2.482569,-0.82084 4.965137,-1.64168 7.447705,-2.46252 8.30149,-2.98118 16.496756,-5.06177 22.556534,-11.72559 2.811319,-4.60947 -0.459241,-5.61744 -4.581609,-7.21572 -7.387016,-2.95358 -14.72074,-6.06919 -21.847595,-9.60865 -5.327301,-3.38113 -11.727617,-7.18113 -11.036628,-14.37219 3.264563,-10.51729 13.3192,-14.23643 22.523339,-18.99331 10.121728,-4.18139 20.634328,-6.89298 31.439424,-8.67312 0,0 -4.524166,3.38611 -4.524166,3.38611 z" />
    <path
       style="fill:#000000;fill-opacity:1;fill-rule:nonzero;stroke:#000000;stroke-width:5;stroke-linecap:round;stroke-linejoin:round;stroke-miterlimit:4;stroke-opacity:1;stroke-dasharray:none;stroke-dashoffset:24.6"
       id="path3071"
       d="m 471.08925,590.61449 c -0.0295,6.74405 -0.0176,13.48824 -0.002,20.23231 0.22811,2.31037 0.32157,14.81078 -6.70948,6.30113 -1.70058,-4.19317 -1.24114,-9.02032 -1.25793,-13.46442 -0.005,-6.75811 -0.25877,-13.48351 0.85115,-20.16733 0.88331,-3.71595 1.00511,-5.49768 6.66891,-4.78119 0.15584,0.0197 0.28465,2.39914 0.3917,4.00893 0.19074,6.10773 0.11466,12.22117 0.0939,18.3311 -0.0108,3.83936 -0.0211,7.67871 -0.0151,11.51808 0.002,0.82445 0.0845,0.42678 -0.2546,1.19146 0,0 -5.25148,2.21785 -5.25148,2.21785 l 0,0 c 0.6146,-0.30056 0.42834,-0.0507 0.43506,-0.82754 0.0306,-3.84852 0.0477,-7.6971 0.0688,-11.54568 0.0234,-6.09432 0.0953,-12.1919 -0.10092,-18.28403 -0.0452,-0.71162 -0.0706,-1.42476 -0.13547,-2.13485 -0.0539,-0.59035 -0.59463,-1.30469 -0.22068,-1.76466 7.49406,-9.2179 4.03555,-2.9969 3.38747,-0.40413 -1.17531,6.65208 -0.92708,13.34852 -0.90722,20.08528 0.0277,4.31617 -0.39476,8.98591 1.11913,13.09372 1.75793,2.0645 1.34373,1.02833 -3.21697,4.37267 -0.0488,0.0358 0.092,-5.23502 0.0216,-5.18238 0.0158,-6.74348 0.0278,-13.48708 -0.002,-20.23053 0,0 5.03564,-2.56579 5.03564,-2.56579 z" />
    <path
       style="fill:#000000;fill-opacity:1;fill-rule:nonzero;stroke:#000000;stroke-width:5;stroke-linecap:round;stroke-linejoin:round;stroke-miterlimit:4;stroke-opacity:1;stroke-dasharray:none;stroke-dashoffset:24.6"
       id="path3073"
       d="m 484.09114,632.95973 c -4.0173,5.46099 -8.09469,10.88204 -12.1498,16.31814 -1.40548,2.05664 -2.57526,4.26342 -3.46998,6.58648 0,0 -5.16387,2.40124 -5.16387,2.40124 l 0,0 c 0.87471,-2.38082 2.06055,-4.63289 3.45115,-6.75369 4.07193,-5.42247 8.16359,-10.83584 12.1304,-16.32963 0,0 5.2021,-2.22254 5.2021,-2.22254 z" />
    <path
       style="fill:#000000;fill-opacity:1;fill-rule:nonzero;stroke:#000000;stroke-width:5;stroke-linecap:round;stroke-linejoin:round;stroke-miterlimit:4;stroke-opacity:1;stroke-dasharray:none;stroke-dashoffset:24.6"
       id="path3075"
       d="m 461.55519,634.69067 c 6.28308,2.71245 12.2379,6.07536 17.59154,10.34107 2.58653,2.10202 4.95736,4.78261 5.97093,8.01409 0.0588,1.02474 -0.33704,1.78022 -0.85216,2.61376 0,0 -5.2211,2.2725 -5.2211,2.2725 l 0,0 c 0.51804,-0.66174 0.9844,-1.28846 1.08499,-2.1571 -0.91359,-3.14421 -3.28051,-5.70937 -5.75779,-7.74164 -5.34012,-4.23094 -11.26558,-7.57701 -17.53991,-10.23478 0,0 4.7235,-3.1079 4.7235,-3.1079 z" />
    <path
       style="fill:#000000;fill-opacity:1;fill-rule:nonzero;stroke:#000000;stroke-width:5;stroke-linecap:round;stroke-linejoin:round;stroke-miterlimit:4;stroke-opacity:1;stroke-dasharray:none;stroke-dashoffset:24.6"
       id="path3077"
       d="m 500.30428,613.04808 c 2.16231,6.71718 3.3691,13.67298 4.40509,20.63601 0.0942,0.68691 0.18831,1.37383 0.28246,2.06074 0,0 -5.00865,2.63573 -5.00865,2.63573 l 0,0 c -0.088,-0.68749 -0.17603,-1.37498 -0.26405,-2.06247 -0.98298,-6.93755 -2.16213,-13.87049 -4.37064,-20.54064 0,0 4.95579,-2.72937 4.95579,-2.72937 z" />
    <path
       style="fill:#000000;fill-opacity:1;fill-rule:nonzero;stroke:#000000;stroke-width:5;stroke-linecap:round;stroke-linejoin:round;stroke-miterlimit:4;stroke-opacity:1;stroke-dasharray:none;stroke-dashoffset:24.6"
       id="path3079"
       d="m 447.90801,847.79334 c -1.06413,7.5068 -1.75556,15.06168 -2.21378,22.62797 -0.0402,5.22036 -1.50004,10.27001 -2.38356,15.38369 -0.59933,3.57648 -0.71797,7.19996 -0.78458,10.81741 -0.0204,1.83392 -0.0257,3.66821 0.002,5.50208 0.004,0.14135 0.005,0.28305 0.008,0.42438 0,0 -5.07682,2.62115 -5.07682,2.62115 l 0,0 c -0.004,-0.14958 -0.0185,-0.29997 -0.0115,-0.44999 -0.0113,-1.84437 0.004,-3.68883 0.0241,-5.53308 0.0567,-3.64415 0.16503,-7.29438 0.75297,-10.8994 0.8854,-5.10244 2.36596,-10.13661 2.43828,-15.34099 0.46127,-7.57541 1.18982,-15.13366 2.17409,-22.65942 0,0 5.07098,-2.4938 5.07098,-2.4938 z" />
    <path
       style="fill:#000000;fill-opacity:1;fill-rule:nonzero;stroke:#000000;stroke-width:5;stroke-linecap:round;stroke-linejoin:round;stroke-miterlimit:4;stroke-opacity:1;stroke-dasharray:none;stroke-dashoffset:24.6"
       id="path3081"
       d="m 458.3638,930.42328 c -4.82685,6.93508 -9.74614,13.76707 -15.29189,20.14749 -2.75082,2.74997 -4.95907,5.79481 -6.02385,9.54581 -0.22337,1.03121 -0.13611,0.55246 -0.27536,1.43373 0,0 -5.11404,2.51261 -5.11404,2.51261 l 0,0 c 0.12584,-0.92581 0.0448,-0.42432 0.2578,-1.50203 1.01582,-3.85116 3.10566,-7.02595 5.9773,-9.80443 5.56978,-6.3373 10.50881,-13.12409 15.29405,-20.0685 0,0 5.17599,-2.26468 5.17599,-2.26468 z" />
    <path
       style="fill:#000000;fill-opacity:1;fill-rule:nonzero;stroke:#000000;stroke-width:5;stroke-linecap:round;stroke-linejoin:round;stroke-miterlimit:4;stroke-opacity:1;stroke-dasharray:none;stroke-dashoffset:24.6"
       id="path3083"
       d="m 429.50923,926.90561 c 5.50302,5.46144 10.47567,11.40657 15.60646,17.21122 4.06783,4.86952 8.80732,9.14211 12.81977,14.05058 2.55999,2.63322 4.74928,5.60315 6.73722,8.68419 0.39441,0.56385 0.54198,0.76295 0.47074,1.43522 0,0 -5.2782,2.16797 -5.2782,2.16797 l 0,0 c 0.89218,0.2849 -0.03,-0.3334 -0.10812,-0.73591 -1.94565,-3.08152 -4.12343,-6.02852 -6.66128,-8.65161 -4.01199,-4.89666 -8.73175,-9.17534 -12.77937,-14.04998 -5.13832,-5.81465 -10.11743,-11.77159 -15.663,-17.20947 0,0 4.85578,-2.90221 4.85578,-2.90221 z" />
    <path
       style="fill:#000000;fill-opacity:1;fill-rule:nonzero;stroke:#000000;stroke-width:5;stroke-linecap:round;stroke-linejoin:round;stroke-miterlimit:4;stroke-opacity:1;stroke-dasharray:none;stroke-dashoffset:24.6"
       id="path3087"
       d="m -38.570202,600.49551 c -2.868147,0.48267 -10.387081,3.16565 -10.593084,-1.76731 2.550683,-5.93046 8.234855,-8.6575 13.545321,-11.72395 4.326148,-1.18153 7.676509,0.38994 10.262138,3.87066 1.480916,3.27543 2.458091,7.10874 1.898536,10.70695 -0.139855,0.41042 -0.27971,0.82084 -0.419566,1.23126 0,0 -5.150688,2.39687 -5.150688,2.39687 l 0,0 c 0.155577,-0.38182 0.311153,-0.76365 0.466729,-1.14547 0.751852,-3.39614 -0.328683,-7.17338 -1.668992,-10.29802 -2.489773,-3.30441 -5.754843,-4.61453 -9.790516,-3.20753 7.843894,-4.71385 -3.199285,2.23605 -4.063542,5.61657 -0.779369,3.92756 8.380911,1.25288 9.981477,0.84894 0,0 -4.467813,3.47103 -4.467813,3.47103 z" />
    <path
       style="fill:#000000;fill-opacity:1;fill-rule:nonzero;stroke:#000000;stroke-width:5;stroke-linecap:round;stroke-linejoin:round;stroke-miterlimit:4;stroke-opacity:1;stroke-dasharray:none;stroke-dashoffset:24.6"
       id="path3089"
       d="m 17.772433,644.80069 c 4.518367,11.65483 4.606243,23.99882 4.057806,36.28778 -0.889008,10.91755 -3.459792,21.54568 -8.367022,31.33847 -2.087972,3.47688 -4.8081273,5.37053 -9.2454321,6.11168 -1.8949775,0.31651 -2.7372375,-7.28511 -2.7985741,-7.64217 -1.53854292,-13.42989 -0.3920957,-26.95307 1.775922,-40.23695 2.3929527,-10.98978 5.7387035,-22.2135 12.3783252,-31.43665 6.870297,-6.78832 11.803814,-9.30463 18.577121,-2.69025 4.688516,5.55868 6.478134,12.38466 7.632439,19.38877 0.476751,5.85577 -1.038293,11.38328 -2.776793,16.88938 -1.204555,3.57434 -2.125878,4.74653 1.133492,7.09303 4.701163,2.8292 8.313816,6.86847 11.929479,10.91264 1.815828,2.21078 3.401859,4.58973 4.971056,6.97657 0,0 -4.87976,2.85334 -4.87976,2.85334 l 0,0 c -1.539911,-2.37145 -3.097583,-4.73501 -4.905729,-6.91577 -3.606394,-4.01575 -7.221501,-7.99807 -11.912102,-10.79039 -3.362554,-2.58195 -2.843928,-3.89913 -1.446303,-7.71997 1.723099,-5.44093 3.330381,-10.86309 2.915409,-16.66435 -1.098891,-6.8902 -2.818282,-13.62624 -7.465588,-19.06726 -1.733344,-1.65133 -3.671351,-3.69672 -6.324774,-3.61001 -0.761042,0.0249 -2.287541,1.33436 -2.210313,0.57684 0.09592,-0.9409 2.462699,-2.57055 2.318277,-1.63586 -0.164983,1.06776 -1.601212,1.45102 -2.401818,2.17653 -6.808616,9.05813 -10.121414,20.31725 -12.5754448,31.23881 -2.1964295,13.21116 -3.3436974,26.66694 -1.7727507,40.02719 0.3106861,1.81539 0.4988464,4.19169 1.4407848,5.90949 0.2300538,0.41955 1.265989,0.63978 0.9953085,1.03434 -0.8458896,1.23301 -2.4499288,1.72576 -3.5691102,2.71736 -1.1091751,0.98274 6.2834874,-3.95585 3.1009463,-3.18567 5.0001051,-9.70926 7.6219401,-20.27459 8.5389781,-31.15834 0.566831,-12.19568 0.550652,-24.47144 -4.036686,-36.01376 0,0 4.922856,-2.76482 4.922856,-2.76482 z" />
    <path
       style="fill:#000000;fill-opacity:1;fill-rule:nonzero;stroke:#000000;stroke-width:5;stroke-linecap:round;stroke-linejoin:round;stroke-miterlimit:4;stroke-opacity:1;stroke-dasharray:none;stroke-dashoffset:24.6"
       id="path3091"
       d="m 251.41228,442.00761 c 0.81744,8.60122 3.14802,16.90156 5.52492,25.16883 0.64028,3.42545 3.18931,7.70513 1.4461,11.17756 -1.86591,0.59776 -3.64729,1.607 -5.59774,1.79326 -0.4273,0.0408 -0.26777,-0.81583 -0.41496,-1.21905 -1.13028,-3.09637 -1.49014,-5.5891 -1.51246,-8.92027 0.60052,-7.42392 3.03817,-14.18401 7.19095,-20.32098 5.14585,-6.76247 11.99066,-11.55134 19.8831,-14.71175 2.63234,-1.02422 5.34876,-1.48933 8.15391,-1.54874 0.22466,0.002 0.44932,0.004 0.67398,0.006 0,0 -4.60918,3.34802 -4.60918,3.34802 l 0,0 c -0.21979,0.002 -0.43959,0.003 -0.65938,0.005 -2.75564,0.10455 -5.4218,0.66214 -7.99415,1.68587 -0.78251,0.33481 -2.35466,1.85554 -2.34752,1.00445 0.008,-0.91676 3.04495,-2.02643 2.35106,-1.42725 -0.82959,0.71635 -1.88267,1.12978 -2.76291,1.78288 -2.88849,2.14312 -5.25273,4.86172 -7.53788,7.61184 -4.23009,6.00631 -6.64693,12.65844 -7.31877,20.00275 0.004,2.57195 -0.0306,4.76419 0.85548,7.19445 0.31904,0.87507 1.59553,1.94973 0.95503,2.62596 -1.29319,1.36535 -3.02549,2.23439 -4.53824,3.35159 2.55439,-2.39321 -0.89235,-8.10386 -1.14784,-10.75337 -2.35494,-8.29408 -4.68474,-16.61272 -5.59167,-25.22023 0,0 4.99817,-2.63669 4.99817,-2.63669 z" />
    <path
       style="fill:#000000;fill-opacity:1;fill-rule:nonzero;stroke:#000000;stroke-width:5;stroke-linecap:round;stroke-linejoin:round;stroke-miterlimit:4;stroke-opacity:1;stroke-dasharray:none;stroke-dashoffset:24.6"
       id="path3093"
       d="m 297.44929,376.25981 c 2.52451,9.57994 5.17913,19.12589 7.72848,28.70052 0,0 -4.91259,2.66503 -4.91259,2.66503 l 0,0 c -2.50866,-9.57722 -5.17231,-19.11154 -7.77599,-28.66183 0,0 4.9601,-2.70372 4.9601,-2.70372 z" />
    <path
       style="fill:#000000;fill-opacity:1;fill-rule:nonzero;stroke:#000000;stroke-width:5;stroke-linecap:round;stroke-linejoin:round;stroke-miterlimit:4;stroke-opacity:1;stroke-dasharray:none;stroke-dashoffset:24.6"
       id="path3095"
       d="m 237.44714,704.47665 c 3.7895,9.05103 6.54559,18.42025 8.42488,28.03824 1.55857,9.24866 2.08514,18.6187 2.35748,27.97955 1.88117,4.17298 -4.28626,13.23043 -8.08614,6.35222 -2.71604,-6.01189 -1.81629,-12.1287 -0.45082,-18.32363 1.93855,-8.42646 6.50943,-15.61696 11.71391,-22.36791 5.0006,-7.09759 10.48427,-10.48076 17.94348,-14.56102 2.0842,-0.93462 4.35201,-1.00348 6.59399,-1.04376 0,0 -4.58854,3.35124 -4.58854,3.35124 l 0,0 c -2.20895,0.0704 -4.41257,0.23899 -6.43719,1.22135 1.05142,-0.65958 2.1453,-1.25585 3.15424,-1.97873 0.61986,-0.4441 -1.3549,0.70803 -1.98338,1.13985 -3.76257,2.58518 -6.59861,6.23299 -9.53205,9.66161 -5.21427,6.6718 -9.84269,13.77121 -11.80585,22.13789 -1.36248,6.06432 -2.36554,12.0316 0.30337,17.93881 1.77825,3.19042 1.3119,1.14708 -3.19857,5.26849 -0.50254,0.45919 0.86336,-1.09976 1.04113,-1.75687 0.53089,-1.9624 0.35323,-2.27355 0.32587,-4.47207 -0.21696,-9.34186 -0.72048,-18.69465 -2.26003,-27.92553 -1.8632,-9.59101 -4.5975,-18.94367 -8.47158,-27.93036 0,0 4.9558,-2.72937 4.9558,-2.72937 z" />
  </g>
</svg>
