<?xml version="1.0" encoding="UTF-8" standalone="no"?>
<!-- Created with Inkscape (http://www.inkscape.org/) -->
<svg
   xmlns:dc="http://purl.org/dc/elements/1.1/"
   xmlns:cc="http://creativecommons.org/ns#"
   xmlns:rdf="http://www.w3.org/1999/02/22-rdf-syntax-ns#"
   xmlns:svg="http://www.w3.org/2000/svg"
   xmlns="http://www.w3.org/2000/svg"
   xmlns:sodipodi="http://sodipodi.sourceforge.net/DTD/sodipodi-0.dtd"
   xmlns:inkscape="http://www.inkscape.org/namespaces/inkscape"
   width="1649.7051"
   height="898.3562"
   id="svg2"
   sodipodi:version="0.32"
   inkscape:version="0.46+devel"
   version="1.0"
   sodipodi:docname="c43d1.svg"
   inkscape:output_extension="org.inkscape.output.svg.inkscape">
  <defs
     id="defs4">
    <inkscape:perspective
       sodipodi:type="inkscape:persp3d"
       inkscape:vp_x="0 : 526.18109 : 1"
       inkscape:vp_y="0 : 1000 : 0"
       inkscape:vp_z="744.09448 : 526.18109 : 1"
       inkscape:persp3d-origin="372.04724 : 350.78739 : 1"
       id="perspective10" />
  </defs>
  <sodipodi:namedview
     id="base"
     pagecolor="#ffffff"
     bordercolor="#666666"
     borderopacity="1.0"
     inkscape:pageopacity="0.0"
     inkscape:pageshadow="2"
     inkscape:zoom="0.35"
     inkscape:cx="470.95325"
     inkscape:cy="356.45376"
     inkscape:document-units="px"
     inkscape:current-layer="layer1"
     showgrid="false"
     inkscape:window-width="1280"
     inkscape:window-height="712"
     inkscape:window-x="-5"
     inkscape:window-y="-3" />
  <metadata
     id="metadata7">
    <rdf:RDF>
      <cc:Work
         rdf:about="">
        <dc:format>image/svg+xml</dc:format>
        <dc:type
           rdf:resource="http://purl.org/dc/dcmitype/StillImage" />
        <dc:title></dc:title>
      </cc:Work>
    </rdf:RDF>
  </metadata>
  <g
     inkscape:label="Layer 1"
     inkscape:groupmode="layer"
     id="layer1"
     transform="translate(95.95325,9.5402661)">
    <path
       style="fill:#000000;fill-opacity:1;fill-rule:nonzero;stroke:#000000;stroke-width:5;stroke-linecap:round;stroke-linejoin:round;stroke-miterlimit:4;stroke-opacity:1;stroke-dasharray:none;stroke-dashoffset:24.6"
       id="path2694"
       d="M 61.233993,-7.0402661 C 54.758236,2.152579 51.998848,13.094847 49.464312,23.878689 c -3.51269,17.04504 -3.748589,34.451096 -3.246441,51.769171 0.401272,19.314825 2.215869,38.55027 3.403605,57.82306 1.026478,17.61571 1.232808,35.26283 1.374875,52.90321 0.08223,14.60836 0.0693,29.21699 0.06203,43.82551 -0.806623,10.71547 -1.171665,21.52086 -2.653399,32.17121 -0.968645,5.61626 -1.993189,11.2207 -2.696582,16.87766 -0.566594,1.63138 -0.21914,0.90254 -0.986707,2.21218 0,0 -5.208145,2.28484 -5.208145,2.28484 l 0,0 c 0.842702,-1.15845 0.455226,-0.50606 1.11103,-1.98679 0.730052,-5.66939 1.746948,-11.29036 2.754356,-16.91615 1.557257,-10.62823 1.869896,-21.43132 2.745697,-32.12955 0.01477,-14.61322 0.0444,-29.22659 -0.02421,-43.83972 -0.11999,-17.63602 -0.329962,-35.27844 -1.335115,-52.89053 -1.173069,-19.2789 -2.993957,-38.518283 -3.413755,-57.837394 -0.515807,-17.347607 -0.321112,-34.782955 3.130503,-51.87004 2.495788,-10.823031 5.237131,-21.7701496 11.549845,-31.0930897 0,0 5.202094,-2.2225324 5.202094,-2.2225324 z" />
    <path
       style="fill:#000000;fill-opacity:1;fill-rule:nonzero;stroke:#000000;stroke-width:5;stroke-linecap:round;stroke-linejoin:round;stroke-miterlimit:4;stroke-opacity:1;stroke-dasharray:none;stroke-dashoffset:24.6"
       id="path2696"
       d="m 53.249909,279.27264 c 10.049169,-0.19043 20.047567,0.0825 30.064897,0.85997 15.728646,0.86547 31.426094,2.10905 47.142184,3.17335 22.1835,1.72652 44.31799,3.76311 66.4393,6.15284 27.68194,3.40837 55.2327,7.72306 82.9429,10.9236 33.652,3.86092 67.40866,6.77982 101.174,9.44837 37.92297,3.33354 75.95423,5.15809 113.93387,7.69956 39.20837,2.27222 78.4162,4.53795 117.6181,6.92621 38.96629,2.57096 77.90684,5.50064 116.86149,8.23609 38.94334,2.80624 77.99593,2.93364 117.00406,4.03497 35.92199,1.17766 71.85328,1.79485 107.767,3.20571 30.3884,1.76109 60.77939,3.47265 91.10559,6.12066 22.5302,1.71199 45.0056,3.85329 67.3962,6.88414 2.4256,0.33849 4.8512,0.67698 7.2767,1.01547 0,0 -4.5128,3.18287 -4.5128,3.18287 l 0,0 c -2.4138,-0.34563 -4.8276,-0.69126 -7.2415,-1.03689 -22.3457,-3.0632 -44.7815,-5.20551 -67.2692,-6.94227 -30.303,-2.65001 -60.67046,-4.37932 -91.03602,-6.13938 -35.89326,-1.42541 -71.80489,-2.05433 -107.70664,-3.24191 -39.01294,-1.09351 -78.0696,-1.24403 -117.01708,-4.05259 -38.95187,-2.7417 -77.89035,-5.6678 -116.85457,-8.23515 -39.20359,-2.39958 -78.41493,-4.64382 -117.62512,-6.92485 -37.99144,-2.53469 -76.03298,-4.37026 -113.96898,-7.6822 -33.78645,-2.66557 -67.56452,-5.57741 -101.23892,-9.42556 -27.72908,-3.19809 -55.30207,-7.49563 -83.00663,-10.8735 -22.13738,-2.38569 -44.29123,-4.38428 -66.49189,-6.08851 -15.73763,-1.05569 -31.458909,-2.26722 -47.208443,-3.13197 -10.035413,-0.75349 -20.056357,-0.98687 -30.12077,-0.76708 0,0 4.572272,-3.32195 4.572272,-3.32195 z" />
    <path
       style="fill:#000000;fill-opacity:1;fill-rule:nonzero;stroke:#000000;stroke-width:5;stroke-linecap:round;stroke-linejoin:round;stroke-miterlimit:4;stroke-opacity:1;stroke-dasharray:none;stroke-dashoffset:24.6"
       id="path2698"
       d="m 741.01273,310.79146 c -6.84776,-0.97698 -13.62298,-2.03353 -20.52888,-1.32986 -4.32138,0.68931 -8.65587,1.25671 -13.02469,1.5177 -3.79494,0.20338 -7.59729,0.20039 -11.39655,0.20423 -3.80136,-0.86895 -7.54981,-1.87728 -11.42327,-2.38081 -4.72532,-0.46303 -9.48007,-0.4751 -14.22357,-0.5066 -5.84407,-0.0218 -11.68821,-0.007 -17.5323,-5.6e-4 -6.10159,0.009 -12.20319,0.006 -18.3048,0.006 -6.61857,-0.12209 -13.25581,0.32629 -19.84595,-0.36478 -7.04069,-1.15499 -14.1332,-1.8206 -21.2544,-2.18567 -7.29942,-0.30509 -14.60654,-0.31606 -21.91098,-0.32764 -7.37884,-0.004 -14.75768,0.007 -22.13652,0.0126 -6.54026,0.006 -13.08052,0.009 -19.62079,0.0113 -5.50479,-7.4e-4 -11.00958,0.003 -16.51436,0.005 -4.28275,0.004 -8.56549,-6.4e-4 -12.84824,0.003 -4.23193,0.44124 -8.17949,-0.45347 -12.26962,-1.34517 -4.25439,-1.05057 -8.63564,-1.25859 -12.99453,-1.42831 -4.36326,-0.12545 -8.72896,-0.10605 -13.09353,-0.10304 -4.42815,0.009 -8.85629,0.0131 -13.28445,0.0139 -4.46393,9e-4 -8.92786,0.005 -13.39178,0.006 -3.44544,-0.004 -6.89088,0.005 -10.33631,0.005 -2.64067,-0.91478 -5.22073,-1.89346 -7.98141,-2.38278 -3.28274,-0.69719 -6.38603,-1.98774 -9.71152,-2.60488 -3.89577,-0.79713 -7.90003,-0.34481 -11.78166,-1.1192 -4.14622,-1.08059 -8.35532,-1.77577 -12.61544,-2.18253 -3.58644,-0.28717 -7.18579,-0.29452 -10.78112,-0.30565 -3.75022,-0.002 -7.50043,0.01 -11.25064,0.0142 -3.80915,0.003 -7.6183,0.006 -11.42746,0.006 -3.82013,-0.82067 -7.57552,-1.83429 -11.45459,-2.3722 -3.69114,-0.47567 -7.42202,-0.4701 -11.1372,-0.49939 -4.49739,-0.0324 -8.85653,-1.42929 -13.29125,-2.10327 -4.57867,-0.91744 -8.89905,-0.41931 -13.381,0.60783 -3.96451,0.93017 -8.01848,1.25026 -12.07499,1.41111 -4.01398,0.13277 -8.03111,0.11961 -12.04677,0.11498 -3.9954,0.42424 -7.68608,-0.44352 -11.52526,-1.36312 -3.71915,-0.98429 -7.5643,-1.26447 -11.39225,-1.42727 -3.28043,-0.11045 -6.56334,-0.10791 -9.84519,-0.0963 -3.13508,0.34301 -6.01526,-0.52999 -9.00478,-1.34407 -3.88842,-1.61667 -7.10635,-4.61298 -9.97375,-7.64326 -2.74111,-3.15775 -5.60762,-6.19032 -7.49076,-9.94775 -2.69962,-3.75538 -3.511,-7.37602 -1.77069,-11.6694 2.02067,-4.35773 5.88174,-7.18611 9.58515,-10.03351 4.46207,-3.91911 9.72701,-4.66959 15.01572,-6.39926 3.25491,-1.07948 6.62056,-1.59636 10.02486,-1.87438 3.16667,-0.17609 6.33975,-0.14857 9.50996,-0.14352 3.36419,0.007 6.72836,0.0174 10.09255,0.0188 3.29642,0.003 6.59284,0.003 9.88927,0.005 4.0998,0.33107 7.98811,-1.04593 11.98164,-1.75721 4.57131,-0.86048 9.23052,-0.96629 13.86671,-1.06087 6.52847,-0.26924 12.97746,-1.52689 19.49258,-2.13142 7.50715,-1.46959 15.06269,-2.51872 22.68734,-3.102 7.39942,-0.47936 14.68744,-1.92996 22.07493,-2.61994 7.29734,-0.61581 14.62276,-0.69156 21.94099,-0.74943 6.32701,-0.0324 12.65413,-0.0178 18.98118,-0.0104 5.90172,0.007 11.80344,0.0112 17.70516,0.0106 6.08811,0.98553 12.26672,1.54599 18.31854,2.72812 6.25064,1.67912 12.72445,1.99535 19.07233,3.06057 7.23433,1.50002 14.59217,2.13153 21.95708,2.50907 8.36843,1.19351 16.74656,2.16437 25.18579,2.66581 9.31276,0.46006 18.63984,0.47172 27.9616,0.49971 10.30739,0.0164 20.61478,-0.002 30.92216,-0.008 9.44944,-0.0116 18.89889,-0.009 28.34834,-0.0126 7.96041,-0.002 15.92083,-0.005 23.88125,-0.009 6.06345,-0.003 12.12691,-0.004 18.19037,-0.004 5.26104,-0.51184 10.29121,0.8643 15.41568,1.75796 5.97513,0.88515 12.03467,0.96445 18.0634,1.06747 6.52858,0.0746 13.05778,0.0577 19.58666,0.0503 6.96332,0.44124 13.78223,-0.42202 20.65916,-1.33507 7.11911,-0.98437 14.29904,-1.26894 21.47471,-1.44685 7.04966,-0.10544 14.00893,-1.47291 21.01419,-2.20318 5.98225,-0.76002 12.05015,-0.28824 18.01206,-1.11598 5.5535,-1.11268 11.16616,-1.76925 16.80823,-2.19954 4.70594,-0.29663 9.42387,-0.30248 14.13727,-0.31509 3.65821,-0.005 7.31641,0.008 10.97462,0.0104 3.31036,0.11499 6.65648,-0.3206 9.90439,0.39349 2.99766,1.02174 6.04897,1.79508 9.19234,2.17694 3.79459,0.16938 7.40428,1.41189 11.13496,2.08003 4.5157,0.82919 9.11274,0.94693 13.68974,1.04812 4.05202,0.20189 8.28033,1.14171 12.10604,2.53087 3.98826,1.60532 8.21723,2.21337 12.21577,3.78164 4.00236,1.34028 7.73065,3.49019 11.11805,5.98435 2.86739,2.97302 5.99613,5.81564 6.69347,10.03313 0.20893,4.09592 -1.63794,7.83501 -2.80685,11.66761 -0.78771,3.79282 -3.00875,6.97419 -4.81813,10.32305 -2.27135,4.00949 -5.22618,7.47987 -8.78587,10.38179 -4.70659,3.80283 -10.26286,6.32451 -15.63055,9.02614 -3.7783,2.03459 -7.78095,3.3727 -11.80294,4.84085 -5.3434,1.5916 -10.73495,3.06948 -16.15445,4.40215 -6.18328,2.42162 -12.81347,3.03163 -19.2348,4.46966 -6.80064,1.28541 -13.55214,2.80658 -20.35414,4.09368 -7.52943,1.20143 -15.12829,1.5043 -22.67507,2.58309 -7.84798,0.78769 -15.5298,2.55731 -23.33076,3.67009 -7.21243,0.98241 -14.49669,1.14058 -21.76375,1.25596 -6.14859,-0.11064 -12.34289,0.44573 -18.45408,-0.33427 -6.01026,-0.60067 -11.61356,-2.6555 -17.20132,-4.80487 -5.93973,-2.68982 -11.49564,-6.12816 -16.82009,-9.87458 0,0 4.75229,-3.02573 4.75229,-3.02573 l 0,0 c 5.2867,3.72644 10.82668,7.12329 16.74453,9.7581 5.55613,2.13635 11.15145,4.1048 17.12452,4.68778 6.1022,0.67651 12.26851,0.19186 18.39867,0.2805 7.25105,-0.12044 14.518,-0.30182 21.71153,-1.30611 7.7945,-1.13689 15.48376,-2.87533 23.32935,-3.6673 7.54442,-1.06026 15.15037,-1.3434 22.66633,-2.611 6.79521,-1.32635 13.56083,-2.77814 20.35304,-4.11068 6.43975,-1.37264 13.02768,-2.13998 19.23268,-4.48852 5.40709,-1.36336 10.81275,-2.78492 16.12915,-4.45439 4.03696,-1.42566 7.96942,-2.91858 11.76985,-4.90559 1.13297,-0.58298 2.24108,-1.21515 3.38937,-1.76734 0.60441,-0.29065 2.35932,-1.23483 1.84332,-0.80641 -6.26913,5.20522 -0.9192,-0.3296 0.72667,-0.80414 3.59365,-2.81991 6.57448,-6.19576 8.86863,-10.16953 1.7867,-3.33078 4.05897,-6.46597 4.87058,-10.22125 1.11826,-3.77997 2.97622,-7.42588 2.91234,-11.44242 -0.52854,-4.07573 -3.73977,-6.80532 -6.45938,-9.64946 -3.38485,-2.43904 -7.06971,-4.54013 -11.0443,-5.85726 -3.99539,-1.53528 -8.23561,-2.13711 -12.20231,-3.76838 -3.82899,-1.297 -7.9608,-2.26581 -12.00091,-2.38791 -4.59481,-0.11972 -9.20869,-0.25631 -13.73689,-1.12282 -3.71959,-0.6882 -7.34343,-1.86698 -11.13723,-2.04269 -3.14422,-0.42988 -6.18584,-1.2528 -9.20895,-2.21126 -3.24667,-0.56472 -6.55879,-0.19701 -9.84395,-0.30205 -3.65371,-0.009 -7.30742,-0.0163 -10.96114,-0.017 -4.7032,0.0148 -9.411,0.0247 -14.10566,0.34363 -5.63465,0.43629 -11.22857,1.15767 -16.78255,2.21695 -5.9741,0.71627 -12.02935,0.35149 -18.0114,1.09891 -7.00839,0.74636 -13.97645,2.09612 -21.03556,2.16332 -7.16429,0.18611 -14.33129,0.5007 -21.43734,1.49433 -6.89023,0.92665 -13.73707,1.67668 -20.70979,1.28024 -6.53215,0.005 -13.06474,0.0287 -19.59651,-0.0562 -6.05169,-0.11373 -12.13605,-0.20381 -18.12937,-1.12897 -5.0982,-0.90925 -10.11541,-2.17991 -15.34952,-1.68412 -6.05936,-5.1e-4 -12.11873,-0.001 -18.17809,-0.005 -7.95239,-0.004 -15.90478,-0.007 -23.85717,-0.008 -9.44554,-0.002 -18.89108,0.004 -28.33662,0.004 -10.30981,0.008 -20.61963,0.0181 -30.92944,0.0107 -9.33024,-0.0263 -18.6663,-0.0437 -27.98679,-0.52095 -8.44252,-0.51391 -16.81794,-1.52907 -25.19873,-2.65127 -7.38068,-0.39689 -14.74799,-1.06578 -22.00064,-2.55349 -6.36282,-1.0095 -12.82432,-1.42105 -19.08463,-3.06997 -6.0416,-1.11883 -12.18343,-1.78182 -18.26582,-2.63577 -5.90122,-0.003 -11.80243,-0.003 -17.70364,-0.0124 -6.32151,-0.009 -12.64311,-0.0272 -18.96459,0.005 -7.30737,0.0602 -14.62224,0.15182 -21.90718,0.78548 -7.38302,0.72362 -14.67534,2.16348 -22.07969,2.61121 -7.62335,0.6065 -15.16579,1.72237 -22.68567,3.11214 -6.52612,0.62709 -12.98955,1.90859 -19.5403,2.1161 -4.62258,0.10958 -9.26353,0.25457 -13.81721,1.1357 -4.00599,0.74976 -7.93108,2.03931 -12.05594,1.68497 -3.29755,0.001 -6.5951,7.5e-4 -9.89265,-0.003 -3.36329,-0.007 -6.72658,-0.0107 -10.08986,-0.0204 -3.16256,1e-4 -6.32923,-0.026 -9.4865,0.18694 -3.37909,0.30285 -6.71173,0.88671 -9.93799,1.96868 -1.83017,0.57606 -3.67681,0.95909 -5.51974,1.46222 -2.42879,0.66306 -2.78534,1.53514 1.90127,-1.55969 0.53008,-0.35005 -1.10856,0.62063 -1.66285,0.93094 -3.68401,2.79046 -7.58658,5.52517 -9.70277,9.7689 -1.89627,4.13283 -1.09184,7.5589 1.54773,11.22992 1.85231,3.70405 4.70853,6.6903 7.40584,9.80317 2.81905,2.94683 5.95624,5.90371 9.81207,7.37992 2.96022,0.79876 5.83625,1.52297 8.9301,1.21193 3.28175,0.002 6.56474,-7.8e-4 9.84449,0.12934 3.85229,0.18356 7.71443,0.51097 11.45322,1.51624 3.80698,0.91582 7.49819,1.62258 11.44866,1.25432 4.00998,-4.4e-4 8.02141,0.013 12.02942,-0.13278 4.03993,-0.18722 8.07334,-0.54999 12.01776,-1.49348 4.51821,-0.9863 8.91043,-1.33818 13.50176,-0.43378 4.41088,0.70084 8.75968,2.07235 13.24984,2.03166 3.73138,0.0356 7.4798,0.0426 11.18264,0.56017 3.85181,0.57233 7.5802,1.64118 11.4079,2.30614 3.80907,-10e-4 7.61813,-1.7e-4 11.42719,-0.006 3.75132,-0.006 7.50263,-0.0153 11.25395,-0.0131 3.60523,0.0146 7.21487,0.0346 10.80907,0.35196 4.26742,0.438 8.47536,1.18441 12.64046,2.22255 3.89819,0.65539 7.89905,0.2904 11.78673,1.12128 3.31091,0.6595 6.41833,1.9564 9.72038,2.59552 2.72032,0.53839 5.25613,1.57529 7.92171,2.296 3.44107,-3.7e-4 6.88215,0.009 10.32323,0.005 4.46099,2.8e-4 8.92198,0.004 13.38297,2.3e-4 4.42986,-0.005 8.85971,-0.0119 13.28956,-0.0177 4.36911,-0.004 8.73966,-0.0159 13.10707,0.12266 4.38064,0.19143 8.77851,0.43408 13.04996,1.50946 4.06111,0.88841 8.01205,1.6343 12.20397,1.24257 4.28024,0.003 8.56048,-0.002 12.84072,0.003 5.50037,0.002 11.00074,0.006 16.50112,0.005 6.53536,6.6e-4 13.07072,0.002 19.60608,-10e-4 7.37984,-0.005 14.75968,-0.0156 22.13953,-0.0129 7.30884,0.0172 14.62048,0.028 21.92367,0.35323 7.12844,0.37838 14.22266,1.08374 21.27563,2.2024 6.58533,0.6084 13.20908,0.20321 19.81648,0.31776 6.10398,-0.003 12.20795,-0.008 18.31192,-0.0114 5.85007,-0.006 11.70015,-0.0192 17.55022,-0.006 4.75968,0.04 9.53251,0.0598 14.27079,0.56086 3.84855,0.53781 7.56664,1.60488 11.37902,2.31777 3.79231,-0.0109 7.58756,-0.0123 11.37492,-0.23139 4.35717,-0.29149 8.67654,-0.88731 12.99612,-1.51906 6.93446,-0.61814 13.74298,0.52191 20.61748,1.43095 0,0 -4.61842,3.25637 -4.61842,3.25637 z" />
    <path
       style="fill:#000000;fill-opacity:1;fill-rule:nonzero;stroke:#000000;stroke-width:5;stroke-linecap:round;stroke-linejoin:round;stroke-miterlimit:4;stroke-opacity:1;stroke-dasharray:none;stroke-dashoffset:24.6"
       id="path2700"
       d="m 855.34557,268.68272 c -7.52074,0.99535 -15.07663,1.71419 -22.64869,2.16911 -3.20471,-0.18252 -8.81142,-0.5264 -7.98864,-4.98129 1.68202,-3.85566 5.58915,-6.18276 8.89357,-8.55683 5.6552,-4.02623 11.99187,-6.38122 18.32926,-8.94344 3.83567,-1.2956 7.80494,-3.19679 11.93142,-2.75434 2.26305,0.41907 3.54479,1.27594 4.2268,3.45869 0.58184,2.21499 -0.6614,4.36156 -1.78253,6.19638 -3.19739,3.60771 -7.88019,5.40148 -12.07039,7.62988 0,0 4.41484,-3.54963 4.41484,-3.54963 l 0,0 c 10.26784,-5.45878 -5.70478,4.19046 2.45933,-1.79542 1.10925,-1.65041 2.41576,-3.69036 1.98104,-5.74903 -0.56512,-1.9878 -1.81401,-2.58117 -3.84307,-2.89157 -4.08883,-0.1731 -7.96854,1.62563 -11.75993,2.94728 -2.22107,0.87067 -4.47426,1.62009 -6.64447,2.61553 -1.6017,0.73467 -6.00444,3.602 -4.70324,2.41371 0.78295,-0.71502 1.81224,-1.1013 2.71837,-1.65194 -3.27567,2.28173 -7.10154,4.59313 -9.01918,8.18989 -1.54722,3.82392 5.12764,3.99629 7.39099,4.08566 7.56963,-0.46459 15.1268,-1.16571 22.63869,-2.21876 0,0 -4.52417,3.38612 -4.52417,3.38612 z" />
    <path
       style="fill:#000000;fill-opacity:1;fill-rule:nonzero;stroke:#000000;stroke-width:5;stroke-linecap:round;stroke-linejoin:round;stroke-miterlimit:4;stroke-opacity:1;stroke-dasharray:none;stroke-dashoffset:24.6"
       id="path2702"
       d="m 892.88456,280.86772 c -10.77186,5.06571 -21.96696,9.05599 -33.27083,12.73959 -11.8629,3.58657 -6.02702,1.85341 -17.50589,5.2054 0,0 4.34326,-3.34809 4.34326,-3.34809 l 0,0 c 11.46737,-3.3472 5.63321,-1.60862 17.50019,-5.22345 11.33399,-3.72877 22.56683,-7.75825 33.3487,-12.90537 0,0 -4.41543,3.53192 -4.41543,3.53192 z" />
    <path
       style="fill:#000000;fill-opacity:1;fill-rule:nonzero;stroke:#000000;stroke-width:5;stroke-linecap:round;stroke-linejoin:round;stroke-miterlimit:4;stroke-opacity:1;stroke-dasharray:none;stroke-dashoffset:24.6"
       id="path2704"
       d="m 47.264762,281.81883 c -5.086183,10.48594 -11.060172,20.51993 -17.268665,30.37378 -6.754643,11.59652 -14.801329,22.24388 -23.3378417,32.55973 -7.03610145,8.03082 -13.6419426,16.41909 -20.5285993,24.57537 -5.024424,5.69682 -10.049825,11.38884 -14.820621,17.30108 -2.949935,3.51812 -4.390354,7.84535 -6.388999,11.89246 -0.841504,1.61743 -0.439661,0.86197 -1.200749,2.26893 0,0 -5.188464,2.32371 -5.188464,2.32371 l 0,0 c 0.777788,-1.3989 0.367635,-0.64775 1.22531,-2.25627 2.053367,-4.058 3.443792,-8.44136 6.372232,-12.01766 4.773353,-5.93019 9.80165,-11.63655 14.854386,-17.33001 6.911209,-8.15122 13.5070982,-16.56262 20.5696687,-24.58637 8.5375883,-10.30465 16.6521113,-20.89201 23.3802593,-32.50052 6.201806,-9.8049 12.171235,-19.79945 17.180549,-30.27351 0,0 5.151534,-2.33072 5.151534,-2.33072 z" />
    <path
       style="fill:#000000;fill-opacity:1;fill-rule:nonzero;stroke:#000000;stroke-width:5;stroke-linecap:round;stroke-linejoin:round;stroke-miterlimit:4;stroke-opacity:1;stroke-dasharray:none;stroke-dashoffset:24.6"
       id="path2706"
       d="m 54.26942,493.43618 c 1.21489,11.10502 1.831109,22.25159 2.964623,33.36619 1.422242,13.73815 1.901105,27.54431 2.208714,41.34441 0.21322,12.21349 0.205069,24.42948 0.205419,36.64443 -0.0099,10.88028 -0.0108,21.76057 -0.01582,32.64086 0.0056,9.05418 -0.0053,18.10837 0.01212,27.16253 0.0052,5.47182 0.01665,10.94364 0.01727,16.41546 0.0049,4.07742 0.0036,8.15484 0.0034,12.23226 3.16e-4,3.63514 1.71e-4,7.27029 0.0055,10.90542 -0.29199,3.26307 1.998652,2.7821 4.337961,2.20964 3.440004,-0.66803 6.836728,-1.2104 10.231747,-2.09267 5.76852,-1.55969 11.766146,-1.52763 17.646807,-2.32438 9.213859,-1.62247 18.559779,-2.04119 27.890459,-2.35194 13.04846,-0.32092 26.10246,-0.2982 39.15398,-0.30341 16.56911,0.42997 33.09155,-0.3713 49.62771,-1.27554 18.40092,-0.84654 36.80491,-1.16482 55.19309,-2.27261 19.26447,-1.24146 38.56317,-1.69859 57.86168,-1.95791 20.51491,-0.0625 41.00683,-0.0712 61.50239,-1.0053 20.26809,-1.2324 40.5745,-0.37207 60.80276,1.06435 20.19871,1.87524 40.27323,4.81171 60.39578,7.33316 22.74033,2.17926 45.33891,5.55477 68.00805,8.33859 25.55541,3.40088 51.24355,5.77345 76.95572,7.60523 27.09241,1.88303 54.22868,2.15047 81.36231,1.39496 26.86348,-1.47203 53.70607,-3.29333 80.49461,-5.78656 26.18392,-2.56121 52.47453,-3.64479 78.7272,-5.2393 24.26665,-1.62197 48.54971,-2.1738 72.85422,-1.47171 21.48475,0.9134 42.97928,2.28042 64.40898,4.10559 14.8554,1.0916 30.034,4.15484 44.6005,-0.18249 1.2342,-0.56106 2.4683,-1.12212 3.7025,-1.68317 0,0 -4.3956,3.48236 -4.3956,3.48236 l 0,0 c -1.2427,0.53517 -2.4854,1.07035 -3.7281,1.60553 -14.6354,4.03622 -29.7523,1.07425 -44.6213,-0.0521 -21.4116,-1.8167 -42.88377,-3.22177 -64.35124,-4.10953 -24.28684,-0.69038 -48.55303,-0.11988 -72.80161,1.49298 -26.24554,1.59579 -52.53017,2.66553 -78.70571,5.24471 -26.79457,2.48037 -53.64221,4.30877 -80.51201,5.75612 -27.14353,0.74248 -54.29109,0.45206 -81.3919,-1.43889 -25.7289,-1.83713 -51.43346,-4.20521 -77.00668,-7.60269 -22.67673,-2.78846 -45.28736,-6.13282 -68.03469,-8.32131 -20.12259,-2.52111 -40.2006,-5.4369 -60.401,-7.29346 -20.21128,-1.43238 -40.50108,-2.26095 -60.75084,-1.02378 -20.50285,0.9263 -41.00351,0.91322 -61.5249,1.00043 -19.29673,0.27094 -38.59389,0.73316 -57.85612,1.98515 -18.39333,1.10111 -36.8037,1.40468 -55.2081,2.28002 -16.55366,0.9056 -33.09543,1.67487 -49.68163,1.27814 -13.0573,0.013 -26.11725,-0.007 -39.171,0.33898 -9.33692,0.33233 -18.680241,0.81342 -27.900835,2.4266 -5.885046,0.75089 -11.877814,0.80297 -17.634332,2.40147 -3.39975,0.87603 -6.834679,1.36167 -10.264387,2.09349 -2.623675,0.52973 -5.160998,0.29406 -4.872149,-3.07276 0.0053,-3.63701 0.0052,-7.27403 0.0055,-10.91104 -1.5e-4,-4.07856 -0.0015,-8.15712 0.0033,-12.23567 4.89e-4,-5.47768 0.01171,-10.95535 0.01714,-16.43303 0.01797,-9.05986 0.0081,-18.11975 0.02094,-27.17963 0.0048,-10.88241 0.02253,-21.76482 0.02858,-32.64723 0.0061,-12.21484 0.02441,-24.43055 -0.179203,-36.64414 -0.291233,-13.78681 -0.756867,-27.58037 -2.189717,-41.30412 -1.140425,-11.09302 -1.761978,-22.22018 -3.050298,-33.29601 0,0 4.99817,-2.63669 4.99817,-2.63669 z" />
    <path
       style="fill:#000000;fill-opacity:1;fill-rule:nonzero;stroke:#000000;stroke-width:5;stroke-linecap:round;stroke-linejoin:round;stroke-miterlimit:4;stroke-opacity:1;stroke-dasharray:none;stroke-dashoffset:24.6"
       id="path2708"
       d="m 69.473034,698.70401 c -6.773986,6.98752 -13.987086,13.51179 -20.879153,20.37831 -7.992709,8.80614 -15.753806,17.81616 -23.410875,26.9142 -9.22643,10.63388 -18.0525283,21.61064 -26.6170266,32.78259 -7.8830633,10.2023 -15.7882224,20.35634 -24.2002284,30.12548 -7.257666,8.69827 -15.216881,16.75001 -23.43662,24.53055 -7.275705,7.18174 -14.426907,14.48277 -20.923451,22.3805 -4.076987,4.92518 -7.82544,10.11684 -11.320083,15.46909 -2.457921,3.7666 -4.660918,7.66461 -6.558211,11.74154 -0.136479,0.30714 -0.272957,0.61428 -0.409436,0.92143 0,0 -5.1712,2.36824 -5.1712,2.36824 l 0,0 c 0.138173,-0.31156 0.276346,-0.62311 0.414519,-0.93467 1.906665,-4.1034 4.0851,-8.04581 6.566533,-11.8315 3.462241,-5.39546 7.245197,-10.59246 11.322718,-15.5394 6.497132,-7.92729 13.650978,-15.25056 20.931958,-22.46084 8.237913,-7.75097 16.194163,-15.79774 23.461127,-24.47842 8.415271,-9.77339 16.3732,-19.88907 24.2440865,-30.10954 8.5495042,-11.18172 17.3718265,-22.16111 26.5910455,-32.79914 7.651481,-9.10146 15.410851,-18.10849 23.36551,-26.94775 6.865945,-6.86045 14.071099,-13.35591 20.807941,-20.34812 0,0 5.220846,-2.16255 5.220846,-2.16255 z" />
    <path
       style="fill:#000000;fill-opacity:1;fill-rule:nonzero;stroke:#000000;stroke-width:5;stroke-linecap:round;stroke-linejoin:round;stroke-miterlimit:4;stroke-opacity:1;stroke-dasharray:none;stroke-dashoffset:24.6"
       id="path2710"
       d="m 141.62315,688.90749 c 4.1112,-5.23271 8.47661,-10.25233 12.9573,-15.16927 2.44781,-3.21467 5.40186,-5.94151 7.54044,-9.38484 1.36518,-1.96718 3.31412,-3.42341 4.84356,-5.31744 0.64952,-0.82539 1.26071,-1.67982 1.83175,-2.56103 1.02558,-0.95631 1.76466,-2.15568 2.31805,-3.48276 0.83564,-2.72099 1.99835,-5.39926 3.54048,-7.80075 2.04836,-2.9241 4.75596,-5.19437 7.41962,-7.51204 2.9366,-2.29132 5.49566,-5.02773 8.14973,-7.63612 3.36241,-2.73643 6.56657,-5.70864 10.11141,-8.20852 3.39501,-2.32358 6.83528,-4.5991 10.12394,-7.06734 1.21939,-1.66472 20.55915,-12.43033 9.93901,-6.35193 17.5721,-9.70538 4.31888,-2.34207 3.53089,-2.01095 -0.64014,0.269 1.17662,-0.7377 1.76962,-1.09892 1.62049,-0.98712 3.19781,-1.99499 4.75544,-3.07995 2.91545,-2.66218 5.46664,-5.67284 8.11333,-8.59713 2.59185,-3.13344 5.24586,-6.21083 8.01185,-9.19168 1.55315,-1.65307 3.12145,-3.29197 4.70795,-4.91309 1.65494,-1.69506 5.58265,-3.3351 5.57061,-0.20642 0.0913,3.15561 0.0637,6.16515 -0.81901,9.2049 -1.19248,3.22888 -1.24164,6.72897 -2.20176,9.99646 -1.09911,3.72801 -2.78983,7.22564 -4.11829,10.87056 -1.72754,3.31288 -3.00624,6.79981 -4.56674,10.18816 -1.89919,3.42225 -4.21859,6.42158 -6.83843,9.30017 -2.85865,2.73907 -6.20249,4.87725 -8.91367,7.76946 -3.2742,3.41915 -6.81589,6.51621 -10.61922,9.32463 -4.8584,3.52249 -10.04487,6.53681 -15.23672,9.54018 -1.95676,1.03506 -7.89678,3.51948 0.40777,-0.65021 -2.60291,2.53255 -4.78263,5.4396 -7.14358,8.18515 -2.778,3.25084 -5.43587,6.59423 -8.10137,9.94121 -2.04288,2.98019 -4.17714,5.89343 -6.0193,9.008 -1.41192,2.77491 -3.1153,5.38873 -4.85995,7.9631 -0.66823,1.1039 -1.50231,1.99572 -2.55618,2.73678 -5.23388,3.38057 -8.94697,4.49641 -14.79223,3.25745 -4.1202,-0.81972 -8.21095,-1.47729 -12.25934,-2.60131 -2.68419,-1.21548 -4.92933,-3.12378 -7.20585,-4.94862 0,0 4.77428,-2.99899 4.77428,-2.99899 l 0,0 c 2.22924,1.77828 4.42765,3.6417 7.09354,4.74848 4.04015,1.10599 8.1454,1.71073 12.2443,2.56426 1.97556,0.38204 3.68629,0.63059 5.69325,0.33506 2.227,-0.32792 2.93944,-0.76893 2.78828,-0.64232 -1.10559,0.9261 -2.42867,1.55613 -3.643,2.33419 1.14323,-0.57888 1.96374,-1.42964 2.64659,-2.51065 1.77074,-2.55458 3.51071,-5.15087 4.90323,-7.93446 1.78838,-3.16781 3.98969,-6.05724 5.98287,-9.08483 2.68118,-3.34617 5.32405,-6.71205 8.10286,-9.96901 2.4064,-2.70923 4.53965,-5.65004 7.08347,-8.2478 3.26022,-1.98407 6.00326,-3.46331 9.27083,-5.05692 -9.75979,5.65501 4.39866,-2.69548 5.57847,-3.88732 3.80227,-2.78823 7.36484,-5.81772 10.64919,-9.21455 2.61818,-2.98936 5.96717,-5.12078 8.91303,-7.76742 2.57071,-2.88408 4.99072,-5.74457 6.90456,-9.1415 1.54452,-3.38843 2.80944,-6.86019 4.58396,-10.14506 1.31509,-3.6462 3.01431,-7.12872 4.12123,-10.84805 1.11664,-3.20982 0.9711,-6.77492 2.20906,-9.9869 0.9122,-2.99816 1.02367,-5.92034 0.87921,-9.0554 0.0272,-3.51745 7.10053,-6.63469 4.76129,-4.55599 -1.60929,1.61399 -3.1867,3.25954 -4.75409,4.91413 -2.77591,2.97098 -5.45215,6.02987 -8.02065,9.18263 -2.61909,2.97196 -5.2715,5.89803 -8.05367,8.71326 -1.69104,1.19631 -20.05057,12.65376 -10.03971,6.23701 -13.79727,7.93596 -5.4789,3.21175 -3.22129,1.76032 3.30206,-2.12292 -10.47653,6.65453 -6.74536,4.52052 -3.21055,2.56148 -6.75903,4.72169 -10.11509,7.09956 -3.60723,2.39337 -6.71498,5.47907 -10.15066,8.11057 -2.59769,2.65369 -5.23641,5.34488 -8.13133,7.66428 -2.58583,2.36146 -5.41135,4.46781 -7.4694,7.37432 -1.59508,2.33639 -2.78421,4.99142 -3.59094,7.6831 -0.49229,1.45649 -1.1202,2.61142 -2.24763,3.55956 -0.53948,0.9273 -1.17952,1.79101 -1.82687,2.6455 -1.50956,1.92023 -3.32287,3.49268 -4.87054,5.25198 -2.11219,3.51875 -5.05946,6.25872 -7.54234,9.50417 -4.48668,4.8942 -8.86459,9.88832 -12.94995,15.12585 0,0 -5.20209,2.22253 -5.20209,2.22253 z" />
    <path
       style="fill:#000000;fill-opacity:1;fill-rule:nonzero;stroke:#000000;stroke-width:5;stroke-linecap:round;stroke-linejoin:round;stroke-miterlimit:4;stroke-opacity:1;stroke-dasharray:none;stroke-dashoffset:24.6"
       id="path2712"
       d="m 555.90886,703.1932 c 5.12577,-5.26815 9.69672,-11.01868 13.6787,-17.19053 3.62131,-4.84789 7.15504,-9.77193 10.87248,-14.55032 3.33395,-3.98503 6.79954,-7.84806 10.04762,-11.90331 2.96168,-3.77358 5.90861,-7.55046 8.76811,-11.40037 2.93941,-3.37504 5.65004,-6.93735 8.54984,-10.34701 3.00728,-3.43653 5.80095,-7.05487 8.57545,-10.68416 2.64311,-3.43105 5.57294,-6.61978 8.55603,-9.7538 2.1132,-2.79008 4.54301,-5.39061 7.37822,-7.45209 2.95681,-2.15448 5.62116,-4.64683 8.37545,-7.04409 2.37651,-2.35762 4.46741,-4.9857 6.60045,-7.56164 0.50667,-0.61208 1.00974,-1.22712 1.51151,-1.84322 5.93171,-1.98258 5.05013,-2.70795 5.07036,0.26462 0.0175,1.34472 -0.0105,2.62398 0.35793,3.92366 1.14549,3.12108 1.86154,6.3319 2.22405,9.6299 0.31236,3.28061 0.34206,6.5793 0.35657,9.87206 -0.0802,3.08449 0.24917,6.19301 -0.32859,9.23369 -0.79872,3.77016 -2.36307,7.29041 -4.22961,10.64505 -2.07435,3.87963 -4.64597,7.50546 -7.32739,10.99163 -2.85297,3.72737 -6.35272,6.83969 -10.01452,9.74362 -5.3725,3.34007 -10.95069,6.43907 -16.66261,9.18002 -1.85315,0.67488 -3.77218,1.20648 -5.73606,1.42564 -2.44675,0.0321 1.4014,-1.07433 3.6492,-2.11267 -1.61395,2.33966 -2.85781,4.92518 -3.78769,7.60803 -1.73942,3.24964 -2.77223,6.7784 -4.38222,10.08531 -1.31574,3.26732 -2.51058,6.57866 -3.72761,9.88736 -0.804,2.72585 -2.20898,5.22106 -3.68678,7.63132 -2.79476,3.17243 -6.93507,5.38043 -11.08953,6.25521 -2.94586,0.59053 -5.95593,0.58971 -8.94688,0.61503 -4.24719,0.3772 -8.18512,-0.45421 -12.20964,-1.72955 -3.38961,-1.06809 -6.10212,-3.32211 -8.87183,-5.44193 0,0 4.7544,-3.00169 4.7544,-3.00169 l 0,0 c 2.73519,2.07961 5.42226,4.25998 8.77834,5.26616 4.00408,1.20485 7.93169,1.93203 12.13331,1.56843 2.96996,-0.04 5.95949,-0.0677 8.87387,-0.7161 0.92477,-0.24044 3.51859,-1.42908 2.72023,-0.90408 -7.74177,5.09099 -2.62623,1.6939 -1.35093,0.38565 1.50818,-2.36592 2.96311,-4.82733 3.76106,-7.5327 1.18354,-3.33746 2.47148,-6.62601 3.69954,-9.94472 1.64714,-3.27928 2.61009,-6.80979 4.41336,-10.01401 0.89029,-2.77296 2.213,-5.32528 3.66207,-7.84173 3.43643,-2.02055 3.78096,-3.16448 6.17833,-3.4751 1.9206,-0.28588 3.80612,-0.79996 5.59877,-1.54958 1.82699,-0.88466 3.64152,-1.78572 5.42232,-2.76149 0.70277,-0.38508 2.65213,-1.75562 2.09447,-1.18013 -0.19668,0.20296 -5.87155,3.75476 -0.53533,0.39946 3.66176,-2.87921 7.20337,-5.91244 10.06715,-9.61694 2.69828,-3.44941 5.27602,-7.0626 7.35039,-10.91394 1.91279,-3.28173 3.46429,-6.76983 4.2961,-10.4835 0.70657,-2.98014 0.25365,-6.0782 0.38085,-9.12407 -0.0146,-3.27608 -0.0276,-6.55774 -0.32385,-9.82318 -0.34558,-3.26437 -1.0291,-6.4484 -2.18878,-9.52903 -0.43046,-1.34943 -0.44255,-2.64569 -0.45305,-4.05376 -0.0628,-3.17761 0.89041,-3.09318 5.26349,-5.10489 -0.50668,0.62465 -1.01947,1.24435 -1.53404,1.86254 -2.15254,2.5873 -4.26956,5.21272 -6.5821,7.65935 -2.80431,2.34688 -5.39265,4.92881 -8.34716,7.09516 -2.90996,1.90542 -5.37188,4.56128 -7.42921,7.34806 -2.98938,3.11838 -5.93072,6.28734 -8.5867,9.69955 -2.78146,3.63262 -5.55274,7.26929 -8.55998,10.71059 -2.91126,3.39519 -5.59651,6.97503 -8.57123,10.31109 -2.82081,3.88295 -5.82381,7.62068 -8.76204,11.41991 -3.20234,4.09417 -6.7104,7.92428 -10.05677,11.90363 -3.74103,4.75899 -7.23206,9.71049 -10.91524,14.51091 -3.9332,6.19699 -8.47193,11.98984 -13.62055,17.23016 0,0 -5.2021,2.22253 -5.2021,2.22253 z" />
    <path
       style="fill:#000000;fill-opacity:1;fill-rule:nonzero;stroke:#000000;stroke-width:5;stroke-linecap:round;stroke-linejoin:round;stroke-miterlimit:4;stroke-opacity:1;stroke-dasharray:none;stroke-dashoffset:24.6"
       id="path2714"
       d="m 216.083,756.04165 c 9.67056,-1.23204 19.40479,-1.79021 29.14106,-2.1485 10.47686,-0.30499 20.95911,-0.32024 31.4395,-0.33218 12.52853,0.003 25.05704,0.0198 37.58557,0.0258 14.89521,-0.1299 29.7581,-0.0984 44.62576,0.83867 15.02652,0.6633 29.95984,2.4624 44.95294,3.58264 13.70019,0.96171 27.435,1.16505 41.16322,1.28083 12.0683,0.0665 24.13687,0.041 36.20528,0.0293 9.28402,-0.0118 18.56803,-0.0242 27.85205,-0.0339 6.17954,-0.006 12.35908,-0.007 18.53862,-0.008 5.00309,-10e-4 10.00619,-7.4e-4 15.00927,-0.006 3.50174,-0.13466 6.79927,1.31435 10.16355,2.12134 2.45524,0.15865 4.42182,0.8829 6.15687,2.62591 0.2759,0.26173 0.45826,0.58861 0.66442,0.90058 0,0 -4.94165,2.85739 -4.94165,2.85739 l 0,0 c -0.17828,-0.27155 -0.33466,-0.5556 -0.57937,-0.77947 -1.68022,-1.64725 -3.66216,-2.13815 -5.97056,-2.3792 -3.32461,-0.82565 -6.5926,-2.2127 -10.07223,-2.01974 -4.99744,-0.005 -9.99488,-0.005 -14.99232,-0.006 -6.17357,-6.5e-4 -12.34714,-0.002 -18.5207,-0.005 -9.26926,-0.004 -18.53851,-0.005 -27.80776,0.002 -12.06422,0.01 -24.12861,0.0316 -36.19266,-0.0451 -13.72889,-0.1266 -27.46419,-0.33955 -41.16369,-1.32557 -14.99008,-1.13156 -29.92395,-2.91364 -44.94854,-3.57738 -14.86522,-0.92609 -29.72831,-0.92185 -44.61976,-0.80063 -12.53995,-0.004 -25.07991,-0.007 -37.61986,3.1e-4 -10.47651,0.0164 -20.95522,0.0274 -31.42782,0.34866 -9.74558,0.37407 -19.49377,0.92893 -29.16536,2.23936 0,0 4.52417,-3.38611 4.52417,-3.38611 z" />
    <path
       style="fill:#000000;fill-opacity:1;fill-rule:nonzero;stroke:#000000;stroke-width:5;stroke-linecap:round;stroke-linejoin:round;stroke-miterlimit:4;stroke-opacity:1;stroke-dasharray:none;stroke-dashoffset:24.6"
       id="path2716"
       d="m 544.70156,739.64719 c 7.70514,0.61393 14.92219,3.33527 22.23129,5.60319 4.67205,1.6947 9.29866,3.35909 13.34741,6.28616 4.32672,3.23948 -0.094,3.57661 -4.85615,6.21704 -5.79036,2.60046 -11.71624,4.95424 -17.49693,7.60945 -3.62086,1.52964 -7.86311,5.61416 -13.83084,10.108 -2.24481,1.36797 -4.16343,3.13237 -5.91365,5.07304 0,0 -5.23364,2.20589 -5.23364,2.20589 l 0,0 c 1.72935,-1.99829 3.60803,-3.85834 5.91364,-5.19932 7.58381,-5.59744 14.59925,-11.98329 23.45806,-15.67664 5.81226,-2.63752 11.74741,-5.00989 17.54891,-7.65358 -1.20998,0.74781 -2.43615,1.47004 -3.62994,2.24345 -0.23226,0.15047 0.47784,-0.29 0.74202,-0.37249 0.0926,-0.0289 0.30872,0.14578 0.28654,0.0513 -0.15208,-0.6479 -1.52478,-1.02198 -1.77853,-1.56383 -3.99756,-2.87913 -8.60236,-4.48869 -13.20486,-6.1619 -7.28761,-2.28945 -14.50628,-4.94798 -22.20176,-5.51341 0,0 4.61843,-3.25637 4.61843,-3.25637 z" />
    <path
       style="fill:#000000;fill-opacity:1;fill-rule:nonzero;stroke:#000000;stroke-width:5;stroke-linecap:round;stroke-linejoin:round;stroke-miterlimit:4;stroke-opacity:1;stroke-dasharray:none;stroke-dashoffset:24.6"
       id="path2718"
       d="m 264.31313,729.43915 c -8.79552,4.74098 -17.73309,9.20953 -26.58379,13.84736 -8.15931,4.02697 -16.04016,8.55647 -24.05455,12.85509 0.80641,-0.39599 1.71842,-1.75007 2.41924,-1.18796 0.64099,0.51412 -1.26421,1.06156 -1.7986,1.68576 -1.58716,1.85389 -1.134,3.42055 0.1959,5.1877 4.67069,3.37235 10.10669,5.66755 15.35565,8.01611 5.53443,2.53306 10.95883,5.20299 16.04267,8.56008 0,0 -4.75626,3.04824 -4.75626,3.04824 l 0,0 c -5.05702,-3.34123 -10.47161,-5.97294 -15.97581,-8.49502 -5.32147,-2.40149 -10.88659,-4.68892 -15.54711,-8.23662 -4.45526,-6.09297 3.94204,-9.58332 8.44564,-12.10388 7.99699,-4.29784 15.88389,-8.78552 24.02122,-12.82023 8.88528,-4.62932 17.82215,-9.15375 26.65123,-13.88856 0,0 -4.41543,3.53193 -4.41543,3.53193 z" />
    <path
       style="fill:#000000;fill-opacity:1;fill-rule:nonzero;stroke:#000000;stroke-width:5;stroke-linecap:round;stroke-linejoin:round;stroke-miterlimit:4;stroke-opacity:1;stroke-dasharray:none;stroke-dashoffset:24.6"
       id="path2720"
       d="m 304.28449,809.94314 c 4.09327,-1.97431 10.88933,-7.17948 16.57812,-12.50755 4.79161,-3.77341 8.57222,-8.99183 13.77322,-12.21426 9.13081,-5.15248 9.46133,-4.3232 10.42183,4.8033 0.36445,9.11182 -1.05083,18.21029 -1.70663,27.29552 -0.29933,7.74376 -1.7099,15.38892 -2.87182,23.03747 -0.2044,1.34476 -0.4097,2.68938 -0.61534,4.03395 0,0 -5.11067,2.5036 -5.11067,2.5036 l 0,0 c 0.22148,-1.34985 0.44059,-2.70008 0.65473,-4.05112 1.20853,-7.63978 2.6358,-15.28435 2.95112,-23.025 0.63837,-9.04943 2.04741,-18.11072 1.70386,-27.18369 -0.20319,-1.96373 -0.15814,-4.94014 -1.38463,-6.68127 -0.70521,-1.00111 -2.08623,-0.54776 -2.05928,-0.57551 0.91925,-0.9465 2.20018,-1.45697 3.30027,-2.18545 -5.38215,2.88916 -9.01064,8.4768 -13.87701,12.11413 -7.72424,7.36375 -16.59876,13.47002 -26.22559,18.10691 0,0 4.46782,-3.47103 4.46782,-3.47103 z" />
    <path
       style="fill:#000000;fill-opacity:1;fill-rule:nonzero;stroke:#000000;stroke-width:5;stroke-linecap:round;stroke-linejoin:round;stroke-miterlimit:4;stroke-opacity:1;stroke-dasharray:none;stroke-dashoffset:24.6"
       id="path2722"
       d="m 406.63047,818.39009 c -7.07942,5.20933 -15.20711,9.48267 -24.13329,8.23077 -5.85007,-2.06583 -7.27949,-7.1356 -6.51215,-12.77965 2.82773,-9.10537 11.33195,-13.27541 19.10697,-17.52883 6.37105,-2.02477 11.6887,-0.55767 16.49914,3.85065 4.37503,5.24214 3.16313,12.05148 1.43193,18.11101 -1.82343,4.1764 -7.77475,12.97586 -13.21383,11.13536 -0.28048,-0.23445 -0.56096,-0.46891 -0.84144,-0.70336 0,0 4.81323,-3.03199 4.81323,-3.03199 l 0,0 c 0.23537,0.16742 0.47075,0.33484 0.70612,0.50226 2.18815,0.26051 1.80937,0.0158 -2.62599,2.40066 -0.58033,0.31204 1.06737,-0.7769 1.55721,-1.2176 2.06284,-1.85589 3.39576,-4.15539 4.5203,-6.67485 1.75124,-5.817 3.09648,-12.48197 -1.14221,-17.55115 -4.72944,-4.24563 -9.97279,-5.4746 -16.0976,-3.30773 0.58948,-0.42094 2.39834,-1.62043 1.76843,-1.26281 -5.03406,2.85799 -9.4946,7.2834 -11.4251,12.79414 -0.85117,5.34477 0.38285,10.19346 6.05572,12.00908 3.53304,0.3987 6.35639,0.14736 9.77645,-0.94801 1.15456,-0.36977 2.19935,-1.22407 3.41108,-1.26177 0.66712,-0.0207 -2.17066,1.54967 -1.59886,1.20539 0.9356,-0.56332 1.79592,-1.24314 2.69389,-1.8647 0,0 5.25,-2.10687 5.25,-2.10687 z" />
    <path
       style="fill:#000000;fill-opacity:1;fill-rule:nonzero;stroke:#000000;stroke-width:5;stroke-linecap:round;stroke-linejoin:round;stroke-miterlimit:4;stroke-opacity:1;stroke-dasharray:none;stroke-dashoffset:24.6"
       id="path2724"
       d="m 458.37685,824.38831 c -5.77687,6.38437 -13.39784,11.80142 -22.22665,12.11222 -6.8024,-1.01754 -9.71255,-6.15613 -10.08804,-12.55391 0.83861,-8.21001 5.18846,-14.81444 11.56612,-19.78619 6.78999,-4.12587 14.42921,-9.26459 22.29539,-5.20207 4.36555,3.68863 5.25849,9.00201 4.22407,14.3604 -0.60489,2.94236 -1.928,5.62815 -3.21095,8.31483 0,0 -5.13589,2.3316 -5.13589,2.3316 l 0,0 c 1.29723,-2.64407 2.65013,-5.28163 3.27068,-8.18889 1.12131,-5.08438 0.37088,-10.23426 -3.86717,-13.71169 -3.72684,-1.78343 -6.78055,-1.61985 -10.69734,-0.27213 -1.09761,0.37768 -2.0835,1.10941 -3.22703,1.30876 -0.61225,0.10673 1.04115,-0.67897 1.56173,-1.01845 -6.41533,4.76748 -10.80232,11.18645 -11.78077,19.28507 0.25521,6.14476 3.04879,11.03787 9.6289,11.79883 1.02875,-0.0693 2.07136,-0.0259 3.08623,-0.20801 1.06515,-0.1911 2.09006,-1.244 3.11776,-0.90505 0.69113,0.22794 -2.33225,1.72867 -1.69696,1.37365 3.06384,-1.71219 5.60265,-4.28646 7.97783,-6.81644 0,0 5.20209,-2.22253 5.20209,-2.22253 z" />
    <path
       style="fill:#000000;fill-opacity:1;fill-rule:nonzero;stroke:#000000;stroke-width:5;stroke-linecap:round;stroke-linejoin:round;stroke-miterlimit:4;stroke-opacity:1;stroke-dasharray:none;stroke-dashoffset:24.6"
       id="path2726"
       d="m 512.51247,814.76889 c -5.11627,1.10318 -10.0028,3.09456 -14.59162,5.59476 -0.68064,0.37085 2.06463,-1.76443 2.10393,-0.99031 0.0444,0.87466 -1.38146,1.07683 -2.0722,1.61525 -3.16566,3.93349 -1.67524,4.80336 1.92059,7.09051 4.16643,2.11167 8.90897,2.28934 13.48311,2.5236 3.06224,0.1006 1.60034,0.0628 4.38556,0.11871 0,0 -4.58864,3.31765 -4.58864,3.31765 l 0,0 c -2.78053,-0.0729 -1.32011,-0.0268 -4.38109,-0.14322 -4.65557,-0.26184 -9.4707,-0.49924 -13.66624,-2.75317 -3.80207,-2.47106 -5.46011,-3.76466 -2.39321,-8.054 7.07042,-5.69722 15.48233,-9.62052 24.27589,-11.76614 0,0 -4.47608,3.44636 -4.47608,3.44636 z" />
    <path
       style="fill:#000000;fill-opacity:1;fill-rule:nonzero;stroke:#000000;stroke-width:5;stroke-linecap:round;stroke-linejoin:round;stroke-miterlimit:4;stroke-opacity:1;stroke-dasharray:none;stroke-dashoffset:24.6"
       id="path2728"
       d="m 545.37497,810.61449 c -0.0162,8.02666 -1.32463,15.98716 -2.07426,23.96904 -0.26167,1.12347 -1.35294,9.54527 -2.68345,9.89864 -1.61823,0.4298 -3.28273,0.66129 -4.9241,0.99193 1.27486,-5.43419 3.16293,-10.73799 5.25431,-15.91164 2.0207,-5.22887 4.6468,-10.17807 6.71647,-15.38803 7.38628,-11.93203 6.50521,5.04031 6.50087,7.15941 -0.044,4.81548 -0.12701,9.6305 -0.16612,14.44604 -0.0253,2.40202 0.4032,2.30492 -5.09863,2.49943 -0.14476,0.005 1.55432,-5.21109 1.59505,-5.31712 1.86577,-4.35332 3.76481,-9.38695 7.76825,-12.18966 2.08785,-1.03624 4.05687,-2.35811 6.26357,-3.10872 3.39342,-1.15428 5.1682,7.56618 5.49425,9.21184 0.93304,6.32682 1.03326,12.7347 1.12159,19.11753 -0.34292,1.73963 -0.017,1.07303 -0.69707,2.11412 0,0 -5.26359,2.17878 -5.26359,2.17878 l 0,0 c 0.96092,-0.58111 0.49452,-0.12596 0.92685,-1.72138 -0.0455,-6.355 -0.14279,-12.73474 -1.05437,-19.0356 -0.46587,-2.38174 -0.79387,-5.31749 -2.44065,-7.27775 -1.13583,-1.35205 -2.64582,-1.07087 -2.59336,-1.13449 0.90346,-1.09571 2.34935,-1.59619 3.52403,-2.39428 -4.21116,2.35989 -6.05065,7.64574 -7.91744,11.86299 -2.37789,5.87722 -0.0128,4.01645 -6.74622,8.61651 -0.0181,0.0123 0.0214,-0.0382 0.0321,-0.0573 0.007,-0.26476 0.0144,-0.52952 0.0216,-0.79427 0.10638,-4.81823 0.14187,-9.63807 0.20388,-14.45698 0.006,-2.56102 0.0745,-5.14783 -0.15893,-7.70249 -0.0523,-0.57279 -0.60452,-1.26334 -0.24052,-1.70868 1.22509,-1.49884 2.95298,-2.51877 4.56809,-3.58591 0.28599,-0.18896 -0.33365,0.5989 -0.50048,0.89835 -2.07945,5.22078 -4.70529,10.17918 -6.75312,15.41038 -2.11022,5.12702 -3.97194,10.40757 -5.24539,15.80016 -12.68854,8.26871 -5.2265,4.3137 -4.47575,2.49694 1.10209,-2.66698 1.35774,-5.62199 1.94015,-8.41593 0.75051,-7.95983 2.0912,-15.90174 2.06675,-23.90606 0,0 5.03565,-2.56579 5.03565,-2.56579 z" />
    <path
       style="fill:#000000;fill-opacity:1;fill-rule:nonzero;stroke:#000000;stroke-width:5;stroke-linecap:round;stroke-linejoin:round;stroke-miterlimit:4;stroke-opacity:1;stroke-dasharray:none;stroke-dashoffset:24.6"
       id="path2730"
       d="m 936.46541,271.07427 c 9.157,2.0916 18.39504,3.6371 27.74147,4.54239 9.77527,0.77696 19.58728,0.80683 29.38681,0.85237 10.32501,0.0147 20.65001,-0.006 30.97501,-0.0154 10.8264,-0.006 21.6529,-0.0145 32.4793,-0.0159 8.3948,-0.004 16.7896,-0.008 25.1844,-0.0159 4.1378,-0.004 8.2756,-0.005 12.4133,-0.0161 0.6637,-0.002 1.3273,-0.004 1.991,-0.008 0,0 -4.6206,3.35708 -4.6206,3.35708 l 0,0 c -0.6565,-0.004 -1.313,-0.006 -1.9695,-0.008 -4.1228,-0.0111 -8.2456,-0.0126 -12.3684,-0.0165 -8.3808,-0.008 -16.7616,-0.0127 -25.1424,-0.0145 -10.825,0.002 -21.65,-10e-4 -32.475,0.0133 -10.3271,0.0126 -20.65425,0.0414 -30.98137,0.0162 -9.81336,-0.0452 -19.63959,-0.0791 -29.42674,-0.88786 -9.36041,-0.93361 -18.59625,-2.55146 -27.79274,-4.52416 0,0 4.60546,-3.25935 4.60546,-3.25935 z" />
    <path
       style="fill:#000000;fill-opacity:1;fill-rule:nonzero;stroke:#000000;stroke-width:5;stroke-linecap:round;stroke-linejoin:round;stroke-miterlimit:4;stroke-opacity:1;stroke-dasharray:none;stroke-dashoffset:24.6"
       id="path2732"
       d="m 1084.3915,265.74316 c 6.2319,2.87868 12.6222,5.1739 19.3087,6.7113 4.1735,0.85752 8.4348,1.07828 12.6834,1.15138 0.5297,0.41172 1.3129,-0.28439 1.8689,-0.003 2.2316,1.12755 -2.5887,3.26076 -5.8486,5.14301 -3.3724,0.90698 -6.3219,2.88753 -9.4324,4.42615 1.0004,-0.5707 1.9181,-1.32078 3.0013,-1.71211 0.7627,-0.27552 -1.3392,0.91515 -2.019,1.35725 -2.8667,1.86428 -5.6098,3.88192 -8.3762,5.89538 -3.9113,2.92676 -7.5959,6.13751 -11.1747,9.45804 -3.0677,3.44303 -5.7295,4.85436 -9.9885,7.14428 -0.2685,0.0589 -0.5369,0.11786 -0.8054,0.17679 0,0 4.5244,-3.4555 4.5244,-3.4555 l 0,0 c 0.2576,-0.0694 0.5152,-0.13881 0.7729,-0.20822 -8.352,5.40059 -1.2051,0.50992 0.2583,-1.50891 3.5705,-3.34765 7.2688,-6.56137 11.1649,-9.52711 5.4923,-4.02504 10.9634,-8.05963 17.0643,-11.15602 3.1156,-1.56045 6.0963,-3.41441 9.4441,-4.45759 -8.7021,5.16218 0.2404,1.1769 -5.054,1.75464 -4.2639,-0.111 -8.5394,-0.36437 -12.7202,-1.26969 -6.6892,-1.59347 -13.0678,-3.9606 -19.354,-6.74311 0,0 4.6818,-3.17653 4.6818,-3.17653 z" />
    <path
       style="fill:#000000;fill-opacity:1;fill-rule:nonzero;stroke:#000000;stroke-width:5;stroke-linecap:round;stroke-linejoin:round;stroke-miterlimit:4;stroke-opacity:1;stroke-dasharray:none;stroke-dashoffset:24.6"
       id="path2734"
       d="m 1153.6223,247.79334 c -0.409,7.55538 -0.3444,15.10575 0.9093,22.57133 0.6042,5.1013 1.7503,9.98067 3.3365,14.84619 0.5844,1.82699 1.1628,3.65615 1.7078,5.49536 0.7257,0.26064 6.9914,-0.26034 -3.4755,1.8359 -0.8708,0.1744 0.8196,-1.57585 1.2294,-2.36381 1.7774,-4.33934 2.6967,-8.95122 4.3457,-13.35268 2.2138,-5.69647 4.623,-11.37034 7.6405,-16.6923 1.699,-3.36962 4.1067,-6.29996 6.8843,-8.83133 0.3061,-0.28478 0.6438,-0.53023 0.9742,-0.78451 0,0 5.3205,-2.06718 5.3205,-2.06718 l 0,0 c -0.3535,0.21774 -0.7211,0.41123 -1.0238,0.7061 -2.8403,2.43864 -5.3115,5.32813 -7.0048,8.68386 -3.0908,5.25456 -5.4368,10.95017 -7.6766,16.60934 -1.6974,4.40013 -2.6245,9.00285 -4.2848,13.39946 -1.3894,2.6243 -5.0321,8.49061 -7.9383,5.58883 -0.5147,-1.84453 -1.0854,-3.67304 -1.6595,-5.49974 -1.5864,-4.89832 -2.7587,-9.79854 -3.3473,-14.93497 -1.2682,-7.51783 -1.3046,-15.10324 -1.0086,-22.71605 0,0 5.071,-2.4938 5.071,-2.4938 z" />
    <path
       style="fill:#000000;fill-opacity:1;fill-rule:nonzero;stroke:#000000;stroke-width:5;stroke-linecap:round;stroke-linejoin:round;stroke-miterlimit:4;stroke-opacity:1;stroke-dasharray:none;stroke-dashoffset:24.6"
       id="path2736"
       d="m 1196.1301,268.21862 c 7.8313,1.45888 15.6473,1.54888 23.5483,0.85585 4.4929,-0.96098 9.4397,-0.0905 13.8097,-1.52882 0.3598,-0.18886 1.4319,-0.76859 1.0794,-0.56656 -9.7277,5.57442 0.3014,-0.5756 3.7153,-1.77677 0,0 -4.4905,3.50958 -4.4905,3.50958 l 0,0 c -1.0668,0.40573 -3.8243,1.98721 -2.0092,0.85453 9.0753,-5.6635 0.5771,0.18901 -2.7903,1.44121 -4.4866,1.10634 -9.2876,0.60515 -13.8378,1.41164 -7.9331,0.64031 -15.7812,0.45231 -23.6433,-0.94429 0,0 4.6184,-3.25637 4.6184,-3.25637 z" />
    <path
       style="fill:#000000;fill-opacity:1;fill-rule:nonzero;stroke:#000000;stroke-width:5;stroke-linecap:round;stroke-linejoin:round;stroke-miterlimit:4;stroke-opacity:1;stroke-dasharray:none;stroke-dashoffset:24.6"
       id="path2738"
       d="m 1190.1058,288.6003 c 6.2797,2.12091 12.7394,3.46121 19.2943,4.35036 3.6696,0.44416 7.3636,0.60651 11.0573,0.63836 0.6365,3.7e-4 1.2802,0.0129 1.9105,-0.0598 0,0 -4.5873,3.4051 -4.5873,3.4051 l 0,0 c -0.6422,-0.005 -1.2861,0.004 -1.9286,-0.009 -3.6957,-0.0689 -7.391,-0.24991 -11.0597,-0.72332 -6.5774,-0.9357 -13.053,-2.32914 -19.3683,-4.42536 0,0 4.6818,-3.17654 4.6818,-3.17654 z" />
    <path
       style="fill:#000000;fill-opacity:1;fill-rule:nonzero;stroke:#000000;stroke-width:5;stroke-linecap:round;stroke-linejoin:round;stroke-miterlimit:4;stroke-opacity:1;stroke-dasharray:none;stroke-dashoffset:24.6"
       id="path2740"
       d="m 1259.0622,306.39018 c -4.6776,-5.96992 -7.247,-12.50856 -7.2165,-20.06971 0.7991,-8.40225 6.272,-13.94509 12.8393,-18.591 8.3005,-5.60586 16.7022,-8.16623 26.5834,-7.49392 6.3416,0.98556 10.2052,4.74825 12.5361,10.49187 1.9875,5.80856 1.1421,11.44593 -1.1443,16.99037 -2.8214,6.27341 -7.8875,10.27623 -13.4122,14.0208 -6.1612,4.55215 -12.1656,5.99228 -19.5046,6.51938 -3.3135,0.35382 -6.5339,-0.59815 -9.6312,-1.66826 0,0 4.7018,-3.18467 4.7018,-3.18467 l 0,0 c 3.0575,1.03582 6.217,1.88243 9.4778,1.49622 2.4959,-0.19381 4.9904,-0.38113 7.4345,-0.96298 0.816,-0.19426 1.6263,-0.41978 2.4178,-0.69755 0.7977,-0.27995 2.5575,-1.79037 2.342,-0.97294 -0.2481,0.94105 -1.6588,1.01828 -2.4882,1.52742 5.5136,-3.67829 10.6636,-7.51638 13.5454,-13.72318 2.3392,-5.38821 3.2498,-10.88751 1.3344,-16.59158 -2.2378,-5.58943 -6.0142,-9.12614 -12.1847,-9.9647 -5.0306,-0.29423 -9.6854,0.0592 -14.5099,1.66919 -1.2032,0.40153 -2.2912,1.15071 -3.5311,1.41836 -0.5072,0.10947 0.8339,-0.61744 1.2509,-0.92615 -6.549,4.43971 -12.1212,9.85284 -13.0486,18.09765 -0.1203,7.44616 2.4002,13.87651 7.0637,19.71317 0,0 -4.8558,2.90221 -4.8558,2.90221 z" />
    <path
       style="fill:#000000;fill-opacity:1;fill-rule:nonzero;stroke:#000000;stroke-width:5;stroke-linecap:round;stroke-linejoin:round;stroke-miterlimit:4;stroke-opacity:1;stroke-dasharray:none;stroke-dashoffset:24.6"
       id="path2742"
       d="m 1321.234,312.95973 c 0.772,0.90823 -13.9514,14.16293 -11.2394,6.2031 2.4433,-4.39138 7.4616,-6.74256 12.1609,-8.08654 3.3599,0.39045 1.8623,3.2916 0.3765,5.0079 -3.8213,3.44545 -8.0392,6.36841 -12.767,8.46538 -3.7488,0.0587 -2.0097,-4.05476 -1.0997,-6.06121 2.0437,-2.79289 7.6777,-9.74507 11.4306,-7.86882 1.5022,2.78871 -3.0295,1.65477 1.4788,0.6587 3.4812,-0.47538 4.9784,0.59296 3.8275,4.0886 -1.9606,3.71695 -6.8829,7.20043 -11.1991,6.08353 -0.2648,-0.11863 -0.5296,-0.23726 -0.7945,-0.35588 0,0 4.7328,-3.16351 4.7328,-3.16351 l 0,0 c 0.2441,0.0912 0.4883,0.18232 0.7324,0.27348 2.7031,0.44083 3.7447,-1.38838 -1.4567,2.24812 -0.114,0.0797 3.7072,-2.43352 2.8378,-2.68669 1.3281,-3.26584 -0.032,-3.51195 -3.2036,-3.03883 -1.6779,0.41886 -3.6013,1.06392 -1.6732,-0.91062 -1.9467,-0.18455 -0.2727,0.0643 3.3324,-2.41981 0.4115,-0.28352 -0.9262,0.39833 -1.3282,0.69506 -1.4814,1.09331 -2.3159,2.73043 -3.5575,4.04613 -0.6807,1.41045 -2.9469,5.48754 0.3857,4.87765 0.4014,-0.19391 1.578,-0.82484 1.2043,-0.58172 -1.1399,0.74161 -2.2918,1.47466 -3.5089,2.08112 -0.4662,0.23225 0.8278,-0.63217 1.2399,-0.95056 1.3982,-1.08018 2.7863,-2.17349 4.1519,-3.29472 1.1108,-1.07264 3.4658,-3.86793 0.3606,-3.72098 -1.8314,0.57724 -6.1276,2.64382 0.8386,-1.18045 1.6961,-0.93112 -4.5363,2.84212 -3.3521,3.41456 -1.5107,3.16812 -0.2804,1.15024 -5.7237,4.87452 -0.3663,0.25067 0.7113,-0.53135 1.0678,-0.7959 2.1613,-1.604 4.0132,-3.43576 5.543,-5.67907 0,0 5.2021,-2.22254 5.2021,-2.22254 z" />
    <path
       style="fill:#000000;fill-opacity:1;fill-rule:nonzero;stroke:#000000;stroke-width:5;stroke-linecap:round;stroke-linejoin:round;stroke-miterlimit:4;stroke-opacity:1;stroke-dasharray:none;stroke-dashoffset:24.6"
       id="path2744"
       d="m 1376.1957,328.88262 c -4.3089,-5.90188 -6.9853,-12.7042 -9.6083,-19.46442 -2.2136,-7.68633 -0.5096,-14.30403 3.5228,-20.94057 6.4978,-8.36461 15.5946,-14.21114 25.4226,-17.96135 7.265,-2.76191 14.1992,-1.97759 21.3204,0.67846 7.4684,3.82746 10.9767,8.52964 11.495,16.89711 -0.7589,10.37376 -6.295,18.9899 -12.5207,26.96514 -6.5922,7.45177 -15.4799,12.28927 -24.5815,16.05475 0,0 4.4004,-3.47141 4.4004,-3.47141 l 0,0 c 1.2796,-0.54088 2.5075,-1.22593 3.8389,-1.62266 0.2641,-0.0787 -0.7684,0.77174 -0.5284,0.6362 4.3866,-2.47692 8.4509,-5.59425 11.7526,-9.40547 6.2212,-7.83995 11.7678,-16.33748 12.6516,-26.58081 -0.3937,-8.18285 -3.8563,-12.67289 -11.1723,-16.32828 -7.0765,-2.54913 -13.9133,-3.16639 -21.0657,-0.362 -1.2808,0.50873 -2.5073,1.18474 -3.8425,1.52618 -0.3986,0.10192 1.2967,-1.00968 0.951,-0.78674 -4.867,3.13806 -9.4173,6.92492 -12.9928,11.49597 -4.0633,6.46034 -5.8745,12.88676 -3.7388,20.46944 2.5961,6.72626 5.2385,13.50565 9.5702,19.34414 0,0 -4.8745,2.85632 -4.8745,2.85632 z" />
    <path
       style="fill:#000000;fill-opacity:1;fill-rule:nonzero;stroke:#000000;stroke-width:5;stroke-linecap:round;stroke-linejoin:round;stroke-miterlimit:4;stroke-opacity:1;stroke-dasharray:none;stroke-dashoffset:24.6"
       id="path2746"
       d="m 1440.6634,336.93102 c 1.3273,-8.30832 5.9924,-14.83342 12.4248,-19.96857 6.1179,-3.91504 12.808,-7.19529 16.3438,0.72476 2.3006,6.77869 -0.7608,12.68066 -4.428,18.2593 -6.4467,6.68909 -14.9434,11.43377 -24.1661,12.764 -6.6471,0.15406 -9.8929,-3.66271 -10.7367,-9.88196 0.5038,-9.63013 5.8922,-17.78191 11.3945,-25.3465 6.3998,-8.41816 13.013,-16.73384 20.5894,-24.12953 3.1496,-3.91945 7.4445,-6.67416 10.8118,-10.34628 1.2798,-1.14381 0.639,-0.62822 1.9099,-1.56228 0,0 5.289,-2.08379 5.289,-2.08379 l 0,0 c -1.3,0.86853 -0.6413,0.39133 -1.9665,1.44453 -3.2999,3.78107 -7.7345,6.42659 -10.8682,10.41392 -7.6411,7.32414 -14.2358,15.66132 -20.6569,24.05533 -5.4856,7.42762 -10.8367,15.45339 -11.5126,24.93187 0.7108,6.0155 3.8883,9.44744 10.2489,9.12881 1.0833,-0.17196 2.1787,-0.27947 3.2498,-0.51588 1.2237,-0.27012 2.3716,-1.0525 3.6237,-1.00133 0.5576,0.0228 -1.7714,1.33032 -1.2641,1.09776 3.3498,-1.53567 6.3371,-4.14797 8.9072,-6.71652 3.6312,-5.37807 6.852,-11.10451 4.652,-17.73812 -0.8853,-2.004 -1.6201,-3.71557 -3.9756,-4.27666 -0.6938,-0.16527 -1.4249,-0.19935 -2.1353,-0.13656 -0.8298,0.0733 -2.3811,1.37186 -2.4398,0.54092 -0.069,-0.96954 1.5711,-1.14479 2.3566,-1.71719 -6.4634,4.96975 -11.2677,11.30475 -12.5806,19.56617 0,0 -5.071,2.4938 -5.071,2.4938 z" />
    <path
       style="fill:#000000;fill-opacity:1;fill-rule:nonzero;stroke:#000000;stroke-width:5;stroke-linecap:round;stroke-linejoin:round;stroke-miterlimit:4;stroke-opacity:1;stroke-dasharray:none;stroke-dashoffset:24.6"
       id="path2748"
       d="m 1538.2268,309.05461 c -7.5126,1.5763 -14.6963,4.18981 -21.8403,6.93309 -0.9561,0.48986 -1.9294,0.94736 -2.8682,1.46958 -0.7113,0.39566 2.2107,-1.90317 2.1852,-1.08964 -0.028,0.90516 -1.5049,1.01346 -2.201,1.5927 -1.9346,1.60973 -3.36,3.57816 -4.7356,5.65446 -2.331,3.40746 -2.8264,6.64061 -2.0512,10.57067 0.5316,3.22043 3.136,5.13062 5.8375,6.5826 3.4048,1.41206 6.7524,2.72042 10.3643,3.50397 3.599,0.48599 7.1041,0.61482 10.6071,1.60642 3.4062,0.99077 6.8993,1.51704 10.4261,1.80719 4.0784,0.73159 9.3683,-1.56301 1.4748,2.25856 0.6467,-1.03372 0.6523,-2.24071 0.7476,-3.41501 0,0 5.0787,-2.54195 5.0787,-2.54195 l 0,0 c -0.08,1.26451 -0.088,2.55746 -0.5822,3.74827 -5.9939,3.74785 -5.377,3.75121 -11.3384,3.24553 -3.5459,-0.32491 -7.053,-0.90087 -10.4787,-1.89765 -3.4927,-0.94933 -7.0317,-0.97492 -10.5909,-1.58218 -3.6363,-0.83079 -7.0346,-2.17292 -10.4606,-3.63311 -2.7987,-1.57469 -5.5091,-3.6552 -6.0857,-7.00863 -0.8278,-4.0505 -0.5126,-7.41482 1.8803,-10.97289 4.0544,-6.44958 10.2111,-10.32478 17.2134,-13.3666 7.1595,-2.74811 14.3893,-5.25632 21.8938,-6.91175 0,0 -4.476,3.44637 -4.476,3.44637 z" />
    <path
       style="fill:#000000;fill-opacity:1;fill-rule:nonzero;stroke:#000000;stroke-width:5;stroke-linecap:round;stroke-linejoin:round;stroke-miterlimit:4;stroke-opacity:1;stroke-dasharray:none;stroke-dashoffset:24.6"
       id="path2750"
       d="m -13.249909,202.59459 c -8.937143,-0.25444 -17.679361,1.26231 -26.073489,4.24115 -0.958518,0.5187 -2.155564,0.73793 -2.875554,1.55611 -0.66315,0.75359 1.692937,-1.43806 2.692749,-1.34837 0.629665,0.0565 -0.944803,0.89758 -1.18102,1.48398 -0.157529,0.39106 -0.108341,0.88277 0.07464,1.26259 0.573551,1.19057 2.117522,1.50237 3.149474,1.92603 8.739781,2.9633 18.054101,3.73265 27.145301,5.07727 9.38911656,1.61806 18.6105285,3.90058 27.509695,7.3061 5.167995,2.651 8.137727,5.55821 5.685196,11.33731 -5.5821,8.23552 -15.1715346,13.08271 -23.57160633,17.8564 -9.31693167,4.68804 -18.72232567,9.07316 -28.61184567,12.40452 0,0 4.422329,-3.4388 4.422329,-3.4388 l 0,0 c 9.863351,-3.34924 19.2486769,-7.7657 28.5345214,-12.47159 -3.39247715,3.0122 18.0496556,-13.49391 14.0826246,-12.00186 2.695857,-5.46074 -0.266956,-8.03694 -5.20422,-10.55203 -8.8580108,-3.39436 -18.0522173,-5.63436 -27.399844,-7.23303 -9.145903,-1.35155 -18.522852,-2.10746 -27.298472,-5.1543 -9.732264,-4.54613 2.348514,-8.79327 7.272035,-11.4588 8.45878,-2.9015 17.253854,-4.32248 26.2197617,-4.11463 0,0 -4.5722717,3.32195 -4.5722717,3.32195 z" />
    <path
       style="fill:#000000;fill-opacity:1;fill-rule:nonzero;stroke:#000000;stroke-width:5;stroke-linecap:round;stroke-linejoin:round;stroke-miterlimit:4;stroke-opacity:1;stroke-dasharray:none;stroke-dashoffset:24.6"
       id="path2752"
       d="m 19.983706,133.43618 c 1.108372,8.10596 3.711416,15.8465 6.29456,23.57009 0,0 -4.845926,2.66937 -4.845926,2.66937 l 0,0 c -2.586896,-7.74572 -5.218339,-15.49631 -6.446805,-23.60277 0,0 4.998171,-2.63669 4.998171,-2.63669 z" />
    <path
       style="fill:#000000;fill-opacity:1;fill-rule:nonzero;stroke:#000000;stroke-width:5;stroke-linecap:round;stroke-linejoin:round;stroke-miterlimit:4;stroke-opacity:1;stroke-dasharray:none;stroke-dashoffset:24.6"
       id="path2754"
       d="m -75.713059,634.78122 c -1.821504,0.84545 -3.913886,1.783 -5.677352,2.74008 -0.737081,0.40004 2.105316,-1.92986 2.259974,-1.1056 0.174418,0.92956 -1.440737,1.22849 -2.111877,1.89489 -1.838132,1.82514 -1.465341,1.48502 -2.486427,3.63935 -1.306486,4.28247 3.025798,6.35729 6.187349,8.14705 4.944988,2.5887 10.365995,3.88428 15.558399,5.80731 3.877494,1.12551 7.471064,2.8706 10.928582,4.92655 1.702724,0.90781 2.317345,1.52989 1.464441,3.41456 -2.486251,3.05922 -5.954706,5.23771 -9.135058,7.53275 -5.70058,4.02854 -11.627593,7.59868 -17.695347,11.05469 -1.746975,0.83088 -3.581709,1.43363 -5.422627,2.0114 0,0 4.484441,-3.47563 4.484441,-3.47563 l 0,0 c 1.817026,-0.59468 3.628691,-1.21219 5.337332,-2.08401 -0.914041,0.54546 -1.842041,1.06818 -2.742124,1.63638 -0.754164,0.47608 1.553151,-0.87896 2.304206,-1.35993 2.871776,-1.83908 5.514765,-4.01677 8.480937,-5.70453 3.164479,-2.29056 6.460774,-4.4733 9.21132,-7.25255 0.817422,-1.69074 0.666897,-1.69394 -1.056327,-2.68548 -3.424319,-2.04361 -7.00863,-3.71846 -10.842002,-4.85689 -5.234808,-1.88714 -10.64839,-3.28112 -15.611155,-5.88721 -3.398836,-1.96692 -7.797954,-4.27645 -6.596855,-8.86521 2.885387,-7.13483 11.129769,-9.89448 17.627983,-12.99899 0,0 -4.467813,3.47102 -4.467813,3.47102 z" />
    <path
       style="fill:#000000;fill-opacity:1;fill-rule:nonzero;stroke:#000000;stroke-width:5;stroke-linecap:round;stroke-linejoin:round;stroke-miterlimit:4;stroke-opacity:1;stroke-dasharray:none;stroke-dashoffset:24.6"
       id="path2756"
       d="m -24.391467,704.6955 c -5.675467,-2.27922 -10.587349,-5.92841 -9.200695,-12.51905 4.231473,-6.71011 12.15435,-10.66882 19.973269,-11.17818 4.6060938,0.50723 6.8251427,3.6961 6.9631242,8.08032 -0.3670659,6.36012 -3.5381212,7.08331 -9.1662832,9.76172 -0.34555,-0.0745 -0.6911,-0.14895 -1.03665,-0.22343 0,0 4.654352,-3.26977 4.654352,-3.26977 l 0,0 c 0.31283,0.0311 0.62566,0.0622 0.93849,0.0934 -1.270061,0.8627 -2.571411,1.68104 -3.810181,2.5881 -0.348702,0.25532 0.796582,-0.35851 1.134019,-0.62855 1.753579,-1.40334 1.999983,-3.68283 2.245921,-5.74462 0.02364,-4.1415 -2.127854,-7.00895 -6.463156,-7.30577 -0.892699,0.0769 -1.793401,0.0888 -2.678098,0.23077 -1.002676,0.16084 -2.154779,1.27997 -2.970679,0.67538 -0.645577,-0.47839 2.699172,-1.66825 1.926022,-1.44949 -2.794405,0.79068 -5.009917,3.73498 -6.613827,5.92299 -1.718762,6.30534 3.420015,9.71118 8.786144,11.78967 0,0 -4.681772,3.17654 -4.681772,3.17654 z" />
  </g>
</svg>
