<?xml version="1.0" encoding="UTF-8" standalone="no"?>
<!-- Created with Inkscape (http://www.inkscape.org/) -->
<svg
   xmlns:dc="http://purl.org/dc/elements/1.1/"
   xmlns:cc="http://creativecommons.org/ns#"
   xmlns:rdf="http://www.w3.org/1999/02/22-rdf-syntax-ns#"
   xmlns:svg="http://www.w3.org/2000/svg"
   xmlns="http://www.w3.org/2000/svg"
   xmlns:sodipodi="http://sodipodi.sourceforge.net/DTD/sodipodi-0.dtd"
   xmlns:inkscape="http://www.inkscape.org/namespaces/inkscape"
   width="744.09448819"
   height="1052.3622047"
   id="svg2831"
   sodipodi:version="0.32"
   inkscape:version="0.46+devel"
   sodipodi:docname="c43d2.svg"
   inkscape:output_extension="org.inkscape.output.svg.inkscape">
  <defs
     id="defs2833">
    <inkscape:perspective
       sodipodi:type="inkscape:persp3d"
       inkscape:vp_x="0 : 526.18109 : 1"
       inkscape:vp_y="0 : 1000 : 0"
       inkscape:vp_z="744.09448 : 526.18109 : 1"
       inkscape:persp3d-origin="372.04724 : 350.78739 : 1"
       id="perspective2839" />
  </defs>
  <sodipodi:namedview
     id="base"
     pagecolor="#ffffff"
     bordercolor="#666666"
     borderopacity="1.0"
     inkscape:pageopacity="0.0"
     inkscape:pageshadow="2"
     inkscape:zoom="0.35"
     inkscape:cx="375"
     inkscape:cy="520"
     inkscape:document-units="px"
     inkscape:current-layer="layer1"
     showgrid="false"
     inkscape:window-width="1280"
     inkscape:window-height="712"
     inkscape:window-x="-5"
     inkscape:window-y="-3" />
  <metadata
     id="metadata2836">
    <rdf:RDF>
      <cc:Work
         rdf:about="">
        <dc:format>image/svg+xml</dc:format>
        <dc:type
           rdf:resource="http://purl.org/dc/dcmitype/StillImage" />
        <dc:title></dc:title>
      </cc:Work>
    </rdf:RDF>
  </metadata>
  <g
     inkscape:label="Layer 1"
     inkscape:groupmode="layer"
     id="layer1">
    <path
       style="fill:#000000;fill-opacity:1;fill-rule:nonzero;stroke:#000000;stroke-width:5;stroke-linecap:round;stroke-linejoin:round;stroke-miterlimit:4;stroke-opacity:1;stroke-dasharray:none;stroke-dashoffset:24.6"
       id="path2841"
       d="m -129.24887,342.50285 c 14.62698,1.65782 29.364427,2.09447 44.071745,1.87543 25.619646,-0.30723 50.988817,-4.26376 76.2651844,-8.08304 35.0284656,-5.91061 69.7228836,-12.5464 104.9143046,-17.5561 41.098586,-5.88508 82.490916,-9.39243 123.883356,-12.41701 46.5391,-3.39926 93.05651,-7.09514 139.59912,-10.4444 49.87325,-3.87524 99.85092,-5.99553 149.74434,-9.58612 52.15258,-3.78307 104.11094,-9.71031 156.16522,-14.56972 50.24716,-5.0964 100.68785,-7.80101 151.18012,-8.32772 46.2211,-0.52919 92.34654,2.89781 138.43188,5.94035 19.71692,1.20667 39.5032,2.47723 59.2715,1.80649 11.9579,-0.40573 18.9067,-1.36149 30.4905,-2.62875 0,0 -4.2956,3.19162 -4.2956,3.19162 l 0,0 c -11.5499,1.21556 -18.5043,2.13773 -30.425,2.51246 -19.7539,0.62096 -39.52012,-0.66713 -59.22115,-1.88709 -46.05764,-3.06046 -92.15679,-6.48327 -138.3515,-5.9501 -50.47318,0.53797 -100.89472,3.24455 -151.12313,8.33762 -52.06026,4.8662 -104.02658,10.77836 -156.1849,14.5709 -49.90037,3.58757 -99.88458,5.71953 -149.76422,9.60092 -46.56156,3.36858 -93.09855,7.07343 -139.65688,10.48775 -41.40263,3.04643 -82.80487,6.57225 -123.911941,12.48244 -35.158898,5.02786 -69.988244,11.72611 -105.001516,17.62697 -25.326538,3.83667 -50.745623,7.80099 -76.418119,8.10534 -14.772934,0.21384 -29.570894,-0.2249 -44.268784,-1.8289 0,0 4.60547,-3.25934 4.60547,-3.25934 z" />
    <path
       style="fill:#000000;fill-opacity:1;fill-rule:nonzero;stroke:#000000;stroke-width:5;stroke-linecap:round;stroke-linejoin:round;stroke-miterlimit:4;stroke-opacity:1;stroke-dasharray:none;stroke-dashoffset:24.6"
       id="path2843"
       d="m -50.194579,310.10259 c -7.658604,11.28482 -14.425778,23.13266 -21.157781,34.98235 -6.333102,11.13664 -12.015235,22.86291 -21.068642,32.09465 0,0 -5.196639,2.15342 -5.196639,2.15342 l 0,0 c 9.224772,-9.10106 14.926047,-20.85527 21.254986,-32.01282 6.704787,-11.8337 13.470525,-23.63684 20.965983,-34.99507 0,0 5.202093,-2.22253 5.202093,-2.22253 z" />
    <path
       style="fill:#000000;fill-opacity:1;fill-rule:nonzero;stroke:#000000;stroke-width:5;stroke-linecap:round;stroke-linejoin:round;stroke-miterlimit:4;stroke-opacity:1;stroke-dasharray:none;stroke-dashoffset:24.6"
       id="path2845"
       d="m -67.016238,320.40495 c 8.985163,4.49443 17.058014,10.31996 24.627374,16.8806 6.385665,5.75936 11.769748,12.47686 17.801629,18.59214 0,0 -4.783738,2.925 -4.783738,2.925 l 0,0 c -5.981266,-6.13669 -11.360441,-12.83816 -17.740842,-18.57554 -7.562669,-6.51984 -15.621585,-12.3244 -24.627928,-16.7143 0,0 4.723505,-3.1079 4.723505,-3.1079 z" />
    <path
       style="fill:#000000;fill-opacity:1;fill-rule:nonzero;stroke:#000000;stroke-width:5;stroke-linecap:round;stroke-linejoin:round;stroke-miterlimit:4;stroke-opacity:1;stroke-dasharray:none;stroke-dashoffset:24.6"
       id="path2847"
       d="m -65.696374,319.5114 c -1.396302,-12.38441 -1.811881,-24.84757 -2.155317,-37.29659 -0.322427,-6.26873 -0.950889,-12.51391 -1.588626,-18.75618 0,0 4.940127,-2.57946 4.940127,-2.57946 l 0,0 c 0.612857,6.26292 1.224635,12.52763 1.566202,18.81291 0.339579,12.41639 0.741528,24.8533 2.232549,37.19553 0,0 -4.994935,2.62379 -4.994935,2.62379 z" />
    <path
       style="fill:#000000;fill-opacity:1;fill-rule:nonzero;stroke:#000000;stroke-width:5;stroke-linecap:round;stroke-linejoin:round;stroke-miterlimit:4;stroke-opacity:1;stroke-dasharray:none;stroke-dashoffset:24.6"
       id="path2849"
       d="m -64.163809,270.39026 c -4.042067,8.34592 -10.072026,15.22872 -16.452725,21.83609 -4.951571,4.97794 -11.084246,8.43197 -17.422375,11.34457 0,0 4.409109,-3.50764 4.409109,-3.50764 l 0,0 c 3.531842,-1.67692 2.293108,-0.66336 7.855819,-5.69115 6.370117,-6.55028 12.449935,-13.33446 16.458638,-21.65115 0,0 5.151534,-2.33072 5.151534,-2.33072 z" />
    <path
       style="fill:#000000;fill-opacity:1;fill-rule:nonzero;stroke:#000000;stroke-width:5;stroke-linecap:round;stroke-linejoin:round;stroke-miterlimit:4;stroke-opacity:1;stroke-dasharray:none;stroke-dashoffset:24.6"
       id="path2851"
       d="m -87.037104,271.45744 c 8.699859,3.43355 17.6527,6.07282 26.583858,8.80425 7.932268,2.43985 16.108626,3.77387 24.361594,4.44258 2.359733,0.43108 4.528932,0.0487 6.787786,-0.56046 0,0 -4.504345,3.44161 -4.504345,3.44161 l 0,0 c -2.283246,0.50884 -4.515001,0.79566 -6.861789,0.3871 -8.267987,-0.71526 -16.452253,-2.10736 -24.397715,-4.5628 -8.951794,-2.72849 -17.896584,-5.44236 -26.651162,-8.77574 0,0 4.681773,-3.17654 4.681773,-3.17654 z" />
    <path
       style="fill:#000000;fill-opacity:1;fill-rule:nonzero;stroke:#000000;stroke-width:5;stroke-linecap:round;stroke-linejoin:round;stroke-miterlimit:4;stroke-opacity:1;stroke-dasharray:none;stroke-dashoffset:24.6"
       id="path2853"
       d="m -67.51157,251.53986 c -8.42747,0.6667 -14.405322,-0.0432 -20.839172,-5.8193 -4.710819,-6.17658 -5.296029,-13.67181 -4.789187,-21.14391 1.169001,-8.23757 6.677562,-13.81656 15.126642,-15.35551 8.127641,0.28633 10.816585,6.91197 12.838369,13.73667 1.505317,8.88126 -1.047896,17.26928 -6.772249,24.07543 -3.524966,3.15052 -7.793161,5.67751 -12.613552,5.16745 0,0 4.598935,-3.28492 4.598935,-3.28492 l 0,0 c 8.055672,0.44209 -5.503839,4.89415 2.848413,0.30118 5.826999,-6.54535 8.418194,-14.82121 7.017257,-23.5713 -1.924668,-6.56392 -4.485127,-13.09949 -12.415472,-13.01023 -0.816502,0.19916 -2.508526,1.43585 -2.449506,0.59748 0.06931,-0.9845 1.583334,-1.8782 2.517188,-1.55889 0.841463,0.28772 -1.434965,1.0684 -2.036731,1.72317 -2.222751,2.41853 -3.134899,5.49315 -3.634337,8.66411 -0.547913,7.29767 -0.07952,14.65076 4.543229,20.69286 6.337351,5.60786 12.361156,6.15804 20.584339,5.3996 0,0 -4.524166,3.38611 -4.524166,3.38611 z" />
    <path
       style="fill:#000000;fill-opacity:1;fill-rule:nonzero;stroke:#000000;stroke-width:5;stroke-linecap:round;stroke-linejoin:round;stroke-miterlimit:4;stroke-opacity:1;stroke-dasharray:none;stroke-dashoffset:24.6"
       id="path2855"
       d="m 920.90161,207.27544 c -8.39963,9.58555 -17.0695,18.92224 -25.85827,28.15058 -6.70485,6.96287 -3.46945,3.61365 -9.70395,10.04984 0,0 -5.11965,2.1296 -5.11965,2.1296 l 0,0 c 6.26551,-6.44295 3.0183,-3.09106 9.73855,-10.05864 8.76144,-9.19696 17.43891,-18.47546 25.72247,-28.10883 0,0 5.22085,-2.16255 5.22085,-2.16255 z" />
    <path
       style="fill:#000000;fill-opacity:1;fill-rule:nonzero;stroke:#000000;stroke-width:5;stroke-linecap:round;stroke-linejoin:round;stroke-miterlimit:4;stroke-opacity:1;stroke-dasharray:none;stroke-dashoffset:24.6"
       id="path2857"
       d="m 926.66146,201.55603 c 5.65451,8.55381 10.6659,17.51083 15.2786,26.66539 2.90333,5.61537 1.49697,2.92418 4.21374,8.07634 0,0 -4.86518,2.7826 -4.86518,2.7826 l 0,0 c -2.69583,-5.17041 -1.2966,-2.47153 -4.19436,-8.09837 -4.58684,-9.14131 -9.57732,-18.09178 -15.30733,-26.56963 0,0 4.87453,-2.85633 4.87453,-2.85633 z" />
    <path
       style="fill:#000000;fill-opacity:1;fill-rule:nonzero;stroke:#000000;stroke-width:5;stroke-linecap:round;stroke-linejoin:round;stroke-miterlimit:4;stroke-opacity:1;stroke-dasharray:none;stroke-dashoffset:24.6"
       id="path2859"
       d="m 912.09816,179.44888 c 1.42835,-10.56497 1.53633,-21.24069 2.57054,-31.83675 0.52416,-4.52196 1.08491,-9.03954 1.64119,-13.55763 0,0 5.0322,-2.48543 5.0322,-2.48543 l 0,0 c -0.57731,4.51898 -1.14846,9.03875 -1.68445,13.56286 -1.0656,10.58526 -1.17049,21.25098 -2.50084,31.81819 0,0 -5.05864,2.49876 -5.05864,2.49876 z" />
    <path
       style="fill:#000000;fill-opacity:1;fill-rule:nonzero;stroke:#000000;stroke-width:5;stroke-linecap:round;stroke-linejoin:round;stroke-miterlimit:4;stroke-opacity:1;stroke-dasharray:none;stroke-dashoffset:24.6"
       id="path2861"
       d="m 909.7002,152.64647 c 0.38722,-0.18535 1.52181,-0.78967 1.16166,-0.55604 -7.48319,4.85448 -15.46622,9.15232 -22.50429,13.49076 0,0 -5.22165,2.02207 -5.22165,2.02207 l 0,0 c 10.23345,-6.32639 20.72577,-12.13886 30.95062,-18.50554 0,0 -4.38634,3.54875 -4.38634,3.54875 z" />
    <path
       style="fill:#000000;fill-opacity:1;fill-rule:nonzero;stroke:#000000;stroke-width:5;stroke-linecap:round;stroke-linejoin:round;stroke-miterlimit:4;stroke-opacity:1;stroke-dasharray:none;stroke-dashoffset:24.6"
       id="path2863"
       d="m 921.57244,135.06313 c 8.88488,5.63721 17.51964,11.66274 26.57675,17.02288 6.05342,3.79851 12.37044,7.13548 19.16884,9.36332 0,0 -4.68616,3.17837 -4.68616,3.17837 l 0,0 c -6.78212,-2.32424 -13.09318,-5.70506 -19.15916,-9.51298 -9.05636,-5.39911 -17.70912,-11.43204 -26.65827,-17.00509 0,0 4.758,-3.0465 4.758,-3.0465 z" />
    <path
       style="fill:#000000;fill-opacity:1;fill-rule:nonzero;stroke:#000000;stroke-width:5;stroke-linecap:round;stroke-linejoin:round;stroke-miterlimit:4;stroke-opacity:1;stroke-dasharray:none;stroke-dashoffset:24.6"
       id="path2865"
       d="m 902.87344,128.43104 c -0.99484,-9.96599 2.15446,-18.57442 7.95701,-26.48933 7.24656,-8.673046 15.38289,-13.293819 26.62159,-11.108555 9.9858,4.393045 11.1017,12.552135 10.22476,22.413105 -2.36258,10.68752 -6.99708,17.84155 -16.17887,23.62814 0,0 -5.23736,2.02847 -5.23736,2.02847 l 0,0 c 9.26656,-5.61573 13.9618,-12.49441 16.42157,-23.16991 0.9327,-9.55706 0.0194,-17.5768 -9.83084,-21.683579 -9.50259,-1.651765 -11.3864,-0.825768 -16.89328,5.68052 -5.85154,7.739039 -9.10057,16.196429 -8.08641,26.064449 0,0 -4.99817,2.63669 -4.99817,2.63669 z" />
    <path
       style="fill:#000000;fill-opacity:1;fill-rule:nonzero;stroke:#000000;stroke-width:5;stroke-linecap:round;stroke-linejoin:round;stroke-miterlimit:4;stroke-opacity:1;stroke-dasharray:none;stroke-dashoffset:24.6"
       id="path2867"
       d="m 418.05904,241.24723 c -6.79759,5.47232 -13.23134,11.37288 -19.58694,17.34653 -5.3256,5.02658 -10.20867,10.59023 -14.50908,16.52068 -1.89159,2.99074 -3.7758,5.97749 -5.84571,8.84976 -0.39719,0.55116 -0.8124,1.08961 -1.22051,1.63234 -1.5227,0.41006 -2.99196,1.17935 -4.56808,1.23018 -1.02343,0.033 1.29182,-1.58983 1.90395,-2.41068 1.47046,-1.97184 2.98722,-3.87491 4.56682,-5.76164 4.83058,-5.5648 10.01437,-10.80863 15.18361,-16.05574 5.15307,-5.2045 10.33679,-10.37852 15.51467,-15.5583 3.71842,-3.16311 7.93652,-5.92837 12.41501,-7.8894 2.25176,-1.12395 3.0688,1.63403 3.95192,3.32754 2.04606,3.19244 3.4413,6.71164 5.31597,9.99682 1.6624,3.3525 3.55756,6.53715 4.65931,10.13215 1.18829,3.12646 3.03717,5.89782 4.56836,8.84373 1.37234,3.11924 1.80261,6.47335 2.04503,9.83684 0.14356,2.92906 0.11339,5.86257 0.10476,8.79402 0.8831,3.2466 -4.45541,5.77581 -6.30227,2.36918 0,0 4.92742,-2.82741 4.92742,-2.82741 l 0,0 c 1.80474,3.32525 -4.80911,7.41451 -3.68562,3.03401 0.0158,-2.91955 0.0414,-5.84103 -0.0834,-8.75874 -0.21305,-3.2905 -0.60079,-6.57769 -1.92898,-9.63475 -1.54568,-2.97799 -3.4126,-5.77873 -4.61864,-8.93577 -1.06633,-3.56458 -2.95086,-6.70702 -4.59636,-10.02231 -1.87074,-3.29572 -3.26937,-6.81934 -5.33153,-10.01091 -0.8681,-1.65198 -1.39993,-3.81981 -3.48917,-2.60308 -1.99506,0.92929 -0.45606,0.23564 3.34211,-2.05584 0.33809,-0.20397 -0.69311,0.37893 -1.03142,0.58253 -1.78574,1.07472 -3.47885,2.29652 -5.05306,3.66398 -5.19287,5.17644 -10.3828,10.35591 -15.54281,15.56514 -5.16115,5.23404 -10.33609,10.46465 -15.1736,16.00319 -3.97038,4.70629 -6.1192,9.10106 -12.36187,11.35534 0.4601,-0.49445 0.86625,-1.04062 1.26914,-1.58456 2.10699,-2.86311 4.03119,-5.8392 5.89349,-8.86587 4.25068,-5.99642 9.20355,-11.55762 14.50502,-16.63711 6.33894,-5.97033 12.7569,-11.86454 19.51243,-17.36498 0,0 5.25,-2.10687 5.25,-2.10687 z" />
    <path
       style="fill:#000000;fill-opacity:1;fill-rule:nonzero;stroke:#000000;stroke-width:5;stroke-linecap:round;stroke-linejoin:round;stroke-miterlimit:4;stroke-opacity:1;stroke-dasharray:none;stroke-dashoffset:24.6"
       id="path2869"
       d="m 425.73058,245.5739 c -1.15494,-8.63919 -1.75505,-17.34005 -2.18695,-26.04142 -0.31275,-7.24633 -0.33499,-14.50118 -0.35527,-21.753 -0.004,-5.54921 -0.003,-11.09842 0.002,-16.64763 0.004,-3.70846 0.004,-7.41693 -0.009,-11.12537 0.19676,-2.17697 -2.19085,-0.32354 -3.4203,0.0361 -4.05601,2.11531 -8.55247,2.86565 -13.03924,3.41501 -5.24788,0.7329 -10.32104,0.58623 -14.25152,-3.28644 -3.47547,-4.96049 -2.7361,-10.48188 -0.73636,-15.84573 3.33424,-7.19132 9.31886,-12.2968 15.70219,-16.71692 7.76146,-4.95682 15.98838,-9.07291 25.33735,-9.08366 6.73452,0.97807 9.97425,6.17056 12.55089,11.91874 1.85557,7.75544 0.23069,14.0902 -4.67913,20.20559 -6.55492,6.44302 -14.84983,9.6488 -23.84229,9.37767 0,0 4.56767,-3.30244 4.56767,-3.30244 l 0,0 c 7.49011,0.12089 12.63134,-1.63276 14.10329,-3.87384 5.11081,-6.07612 6.6483,-11.76211 4.94825,-19.64369 -2.48743,-5.57698 -5.61715,-10.60282 -12.20104,-11.36557 -6.20555,0.15434 -11.02461,2.31655 -16.72527,4.45444 -0.4274,0.16028 0.77019,-0.49015 1.15529,-0.73522 -6.37976,4.32054 -12.37693,9.31974 -15.80735,16.39329 -2.02717,5.11415 -2.9125,10.46401 0.44305,15.25439 3.8861,3.67632 8.90601,3.57476 13.95873,2.87426 4.49502,-0.59539 8.90989,-1.4922 13.00966,-3.51686 1.49274,-0.49243 4.15893,-1.88605 3.99158,0.86001 -0.0146,3.71365 -0.0172,7.42733 -0.0209,11.141 -0.007,5.55226 -0.0289,11.10449 -0.0237,16.65676 0.0108,7.24716 0.0269,14.49684 0.32557,21.73909 0.40809,8.68056 0.97193,17.36617 2.20092,25.9747 0,0 -4.99817,2.63669 -4.99817,2.63669 z" />
    <path
       style="fill:#000000;fill-opacity:1;fill-rule:nonzero;stroke:#000000;stroke-width:5;stroke-linecap:round;stroke-linejoin:round;stroke-miterlimit:4;stroke-opacity:1;stroke-dasharray:none;stroke-dashoffset:24.6"
       id="path2871"
       d="m 423.77333,198.39009 c -9.23376,6.67831 -19.29063,12.18755 -29.22175,17.74708 -5.72196,2.81117 -11.53606,5.39319 -17.4774,7.70212 0,0 4.44106,-3.4857 4.44106,-3.4857 l 0,0 c 5.91225,-2.30702 11.69889,-4.89044 17.38267,-7.71674 -1.46595,1.63649 -0.463,0.4526 4.29897,-2.39691 4.1166,-2.46331 8.33515,-4.82535 12.29891,-7.53296 1.03172,-0.70476 2.01836,-1.47335 3.02753,-2.21002 0,0 5.25001,-2.10687 5.25001,-2.10687 z" />
    <path
       style="fill:#000000;fill-opacity:1;fill-rule:nonzero;stroke:#000000;stroke-width:5;stroke-linecap:round;stroke-linejoin:round;stroke-miterlimit:4;stroke-opacity:1;stroke-dasharray:none;stroke-dashoffset:24.6"
       id="path2873"
       d="m 449.83224,192.59468 c 5.69081,5.97582 12.34364,11.04001 19.8214,14.5327 3.13987,1.49578 6.53838,2.14764 9.9174,2.82479 0,0 -4.62159,3.21669 -4.62159,3.21669 l 0,0 c -3.40109,-0.71661 -6.82001,-1.41524 -9.97399,-2.94851 -7.50595,-3.58782 -14.17559,-8.69802 -19.96149,-14.67303 0,0 4.81827,-2.95264 4.81827,-2.95264 z" />
    <path
       style="fill:#000000;fill-opacity:1;fill-rule:nonzero;stroke:#000000;stroke-width:5;stroke-linecap:round;stroke-linejoin:round;stroke-miterlimit:4;stroke-opacity:1;stroke-dasharray:none;stroke-dashoffset:24.6"
       id="path2875"
       d="m -97.482177,559.18592 c -0.0781,12.3622 0.122165,24.7211 -0.403386,37.0739 -0.701387,19.2136 -2.663537,38.32996 -4.743627,57.43187 -1.6929,17.06251 -3.96238,34.05282 -5.33223,51.14766 -0.64293,8.78678 -0.91751,17.59501 -0.98775,26.40337 0.34308,1.48021 -1.07626,5.04416 1.00168,5.2567 3.68081,0.16911 7.37542,0.0392 11.059978,0.007 10.625917,-0.93864 21.006972,-3.52422 31.407147,-5.79271 18.841852,-4.62483 37.981155,-7.84099 57.1192895,-10.94514 27.9065425,-4.35988 56.0257635,-6.54083 84.2190765,-7.80857 32.768599,-1.20076 65.525269,-2.56163 98.309589,-3.28996 34.02506,-1.06484 68.03772,-0.34039 102.05299,0.5697 34.96912,0.56081 69.91757,1.64954 104.8718,2.77519 37.66736,1.17176 75.31141,2.83205 112.98995,3.67586 41.76304,1.7424 83.55931,2.32593 125.33596,3.5754 42.18065,1.27551 84.36579,2.20608 126.51394,4.3524 36.0887,1.62187 72.13541,3.88656 108.16422,6.49597 21.45639,0.95456 43.01985,5.67719 64.5726,4.04158 2.77331,-0.21046 5.50344,-0.80893 8.25516,-1.2134 2.1,-0.52396 4.2,-1.04792 6.30001,-1.57188 0,0 -4.40642,3.36536 -4.40642,3.36536 l 0,0 c -2.09797,0.49976 -4.19594,0.99953 -6.29392,1.49929 -2.75219,0.37648 -5.48529,0.93903 -8.25658,1.12944 -21.52985,1.47931 -43.03872,-3.18144 -64.46981,-4.17455 -35.99795,-2.64027 -72.01651,-4.89692 -108.07513,-6.54582 -42.13677,-2.15278 -84.311,-3.09107 -126.48074,-4.36283 -41.7883,-1.24041 -83.59572,-1.8262 -125.37097,-3.54528 -37.69237,-0.83246 -75.35,-2.49469 -113.03139,-3.65228 -34.95952,-1.119 -69.91348,-2.19269 -104.88747,-2.76038 -34.01217,-0.90774 -68.02201,-1.61011 -102.04358,-0.54461 -32.79084,0.73522 -65.55358,2.11031 -98.328636,3.31908 -28.20963,1.29893 -56.3461,3.5153 -84.263843,7.919 -19.167448,3.12356 -38.325243,6.40563 -57.196873,11.04057 -10.447147,2.28098 -20.878505,4.91417 -31.565128,5.76755 -3.72239,0.0404 -7.48138,0.26741 -11.18839,-0.0961 -2.388,-0.90061 -1.15504,-3.8197 -1.34674,-5.92905 0.11798,-8.83654 0.41187,-17.67242 1.06643,-26.48714 1.41308,-17.11105 3.70223,-34.11843 5.40366,-51.2 2.08073,-19.08274 4.04196,-38.17987 4.71335,-57.37604 0.51355,-12.32325 0.30596,-24.65284 0.28014,-36.98512 0,0 5.035643,-2.56579 5.035643,-2.56579 z" />
    <path
       style="fill:#000000;fill-opacity:1;fill-rule:nonzero;stroke:#000000;stroke-width:5;stroke-linecap:round;stroke-linejoin:round;stroke-miterlimit:4;stroke-opacity:1;stroke-dasharray:none;stroke-dashoffset:24.6"
       id="path2877"
       d="m -93.36953,738.39009 c -7.89333,6.43533 -14.58878,14.19039 -21.25456,21.84919 -11.21679,13.49444 -23.04741,26.4727 -35.0225,39.29578 -14.95183,17.27022 -29.88158,34.55054 -45.05623,51.62484 -12.67403,14.36124 -25.8281,28.28651 -39.14044,42.05445 -6.37682,6.23981 -12.5639,12.60034 -19.87515,17.7491 0,0 -5.23205,2.05934 -5.23205,2.05934 l 0,0 c 7.39353,-5.08918 13.6171,-11.43439 20.02167,-17.69236 13.34932,-13.76459 26.53426,-27.69275 39.22958,-42.06647 15.17475,-17.06981 30.13013,-34.32308 45.03477,-51.63028 11.94896,-12.79792 23.75761,-25.75038 34.92885,-39.2351 6.64053,-7.65439 13.29727,-15.41162 21.116057,-21.90162 0,0 5.250003,-2.10687 5.250003,-2.10687 z" />
    <path
       style="fill:#000000;fill-opacity:1;fill-rule:nonzero;stroke:#000000;stroke-width:5;stroke-linecap:round;stroke-linejoin:round;stroke-miterlimit:4;stroke-opacity:1;stroke-dasharray:none;stroke-dashoffset:24.6"
       id="path2879"
       d="m -87.25418,168.29147 c 4.847482,-12.44402 11.895877,-23.67387 19.377529,-34.65977 10.77393,-15.06806 24.432541,-27.45928 39.222371,-38.446997 16.069618,-12.548079 34.3442052,-21.36475 53.419202,-28.225249 16.328969,-5.092598 33.308174,-7.567314 50.292399,-9.155199 17.761512,-1.326361 35.586969,-1.341478 53.387709,-1.407674 16.6295,-0.0278 33.25901,0.01782 49.8885,0.03933 17.77876,0.429269 35.46133,-1.959746 52.94183,-4.950549 18.50246,-3.252748 37.01065,-6.460504 55.52624,-9.638053 17.61423,-3.504349 35.34654,-6.383918 52.87725,-10.294659 12.57772,-2.308163 24.71067,-6.316461 36.66442,-10.761851 5.86265,-1.260123 11.01492,-5.325932 16.99805,-5.986034 2.85932,0.1198 4.15033,3.042327 5.52707,5.171002 2.65789,4.041632 6.03275,7.377279 9.72686,10.453164 5.1744,3.918151 10.98398,6.701305 16.83632,9.415887 7.91549,3.073336 16.34858,4.690014 24.69361,6.143192 11.22074,2.514612 22.68327,3.646065 34.08207,5.036014 16.31811,1.905839 32.79058,0.775786 49.11263,-0.461058 19.53464,-1.176261 39.0566,-2.499935 58.58746,-3.74527 21.99017,-1.573301 43.87503,-4.225166 65.78737,-6.590253 22.65116,-3.250079 45.44996,-4.957879 68.29923,-5.904146 22.01466,-0.852333 44.02317,-0.885141 66.0297,0.06342 20.73728,1.409836 41.4048,3.751923 61.90997,7.140899 11.71929,2.439337 23.64083,4.729096 34.71638,9.437076 5.06512,2.153071 9.2335,4.580252 14.04385,7.209164 10.86014,6.40129 20.09076,14.619399 28.64148,23.764983 1.7405,1.200545 3.59899,5.187686 6.1183,5.315804 0,0 -4.68775,3.244182 -4.68775,3.244182 l 0,0 c -2.61877,-1.003148 -4.24472,-3.860813 -6.20622,-5.656728 -8.47336,-9.132527 -17.67638,-17.289276 -28.48148,-23.655118 -4.87008,-2.656496 -8.85346,-4.982615 -13.9868,-7.151498 -11.05053,-4.668953 -22.93224,-6.954103 -34.61711,-9.377957 -20.48942,-3.367883 -41.13948,-5.710338 -61.85971,-7.096269 -21.99269,-0.943446 -43.98922,-0.882477 -65.98925,-0.03602 -22.84038,0.961274 -45.62644,2.70071 -68.27148,5.928212 -21.92528,2.385452 -43.82723,5.020796 -65.83233,6.593821 -19.53815,1.257321 -39.0695,2.565631 -58.61038,3.769916 -16.35966,1.231241 -32.86778,2.337458 -49.22074,0.405755 -11.42126,-1.385233 -22.90217,-2.519722 -34.14738,-5.025958 -8.38294,-1.484058 -16.86182,-3.095361 -24.796,-6.249649 -5.89832,-2.725353 -11.7362,-5.56522 -16.93241,-9.528759 -3.73609,-3.114133 -7.13832,-6.50589 -9.84347,-10.580856 -1.28895,-1.974027 -2.43832,-4.743367 -5.17084,-4.63715 -5.89275,0.992193 -11.04952,4.664465 -16.85988,6.034467 -11.94289,4.41751 -24.0828,8.326251 -36.634,10.642837 -17.53281,3.879871 -35.25985,6.768887 -52.87269,10.257624 -18.5167,3.17052 -37.02147,6.398112 -55.5261,9.637337 -17.50948,2.974687 -35.2167,5.334139 -53.02081,4.892978 -16.62483,-0.01996 -33.24967,-0.06162 -49.87451,-0.04609 -17.79429,0.068 -35.613878,0.08972 -53.366716,1.453767 -16.958129,1.61726 -33.915707,4.109063 -50.203399,9.261411 -15.6951459,5.685103 -30.939392,12.199787 -44.018443,22.834083 -14.802734,10.915341 -28.461321,23.256751 -39.261067,38.263991 -7.454521,10.92992 -14.541487,22.0748 -19.286465,34.50095 0,0 -5.13037,2.35755 -5.13037,2.35755 z" />
    <path
       style="fill:#000000;fill-opacity:1;fill-rule:nonzero;stroke:#000000;stroke-width:5;stroke-linecap:round;stroke-linejoin:round;stroke-miterlimit:4;stroke-opacity:1;stroke-dasharray:none;stroke-dashoffset:24.6"
       id="path2881"
       d="m 384.2583,-47.571929 c -0.66685,0.341855 -2.53445,1.551402 -2.00055,1.025565 1.99179,-1.961725 4.60221,-3.211935 6.63027,-5.136144 4.0132,-3.807695 6.88584,-7.932066 9.68361,-12.666833 5.94159,-11.132537 9.12116,-23.405119 11.35345,-35.746589 0.51936,-6.43836 4.19013,-13.06662 2.97222,-19.62496 -1.18048,2.10719 0.43898,-1.03696 3.87308,-1.34282 0.63358,-0.0564 -0.731,1.04527 -1.02748,1.60803 -0.40796,0.77436 -0.73841,1.58751 -1.08046,2.39315 -1.33891,3.15353 -1.39534,3.48118 -2.56734,6.79403 -3.15724,8.5042 -5.44271,17.320915 -7.29609,26.193357 -1.92054,8.247435 -1.86592,16.506526 -0.97963,24.854724 0.20771,4.671142 1.93871,9.026973 3.4658,13.385257 0.44928,0.538115 1.11964,1.765787 1.93813,1.901515 0.1566,0.02597 0.55635,-0.305752 0.41452,-0.234462 -4.45901,2.241174 -5.25459,3.266445 -3.37945,1.288653 2.47269,-2.699878 3.87591,-6.125979 5.58204,-9.320222 0.96356,-1.984908 2.15629,-3.882082 2.59988,-6.062659 0.0325,-0.226708 0.0651,-0.453416 0.0976,-0.680125 0,0 5.10897,-2.518375 5.10897,-2.518375 l 0,0 c -0.0292,0.23598 -0.0584,0.47196 -0.0876,0.70794 -0.38435,2.259327 -1.51278,4.200809 -2.55276,6.229993 -1.68715,3.224523 -3.1322,6.649192 -5.50924,9.438845 -2.96026,3.512164 -6.71471,6.336677 -9.18285,1.994072 -1.51021,-4.411078 -3.26533,-8.811092 -3.47545,-13.526128 -0.89077,-8.402313 -0.99615,-16.717564 0.92846,-25.023448 1.82582,-8.890799 4.11002,-17.724292 7.24166,-26.249817 1.46506,-4.22282 4.27994,-15.80149 10.91069,-14.50842 1.24713,6.65602 -2.38437,13.34377 -2.99807,19.86702 -2.21816,12.388371 -5.38862,24.710173 -11.26717,35.92067 -5.74727,10.012269 -13.3564,17.439182 -23.81169,22.570109 0,0 4.41543,-3.531928 4.41543,-3.531928 z" />
    <path
       style="fill:#000000;fill-opacity:1;fill-rule:nonzero;stroke:#000000;stroke-width:5;stroke-linecap:round;stroke-linejoin:round;stroke-miterlimit:4;stroke-opacity:1;stroke-dasharray:none;stroke-dashoffset:24.6"
       id="path2883"
       d="m 425.41,-14.037998 c -2.83448,-8.342781 -1.65,-16.389886 1.78241,-24.280395 3.40289,-6.052695 9.20306,-9.348421 15.74382,-11.546215 1.89972,-0.638336 4.71071,0.300782 6.4879,0.720514 8.09194,2.970608 10.71202,10.827449 11.63187,18.707769 -0.15273,8.099278 -2.45828,16.415033 -9.07394,21.5233717 -2.23821,1.2091074 -4.47642,2.4182147 -6.71463,3.6273221 0,0 4.43682,-3.5153101 4.43682,-3.5153101 l 0,0 c -0.98945,0.6557532 -1.9789,1.3115064 -2.96835,1.9672596 6.81238,-4.7224143 9.10373,-13.0374883 9.3603,-21.0047233 -0.8392,-7.668982 -3.33887,-15.34801 -11.29678,-18.097021 -1.04904,-0.215699 -2.07926,-0.565333 -3.14713,-0.647095 -1.05316,-0.08064 -2.43443,0.927159 -3.16449,0.163839 -0.55344,-0.578658 2.46455,-1.79779 1.66672,-1.729842 -2.80951,0.239278 -6.60467,5.364488 -7.86549,7.495632 -3.49167,7.735552 -4.79742,15.657534 -1.92323,23.885522 0,0 -4.9558,2.729372 -4.9558,2.729372 z" />
    <path
       style="fill:#000000;fill-opacity:1;fill-rule:nonzero;stroke:#000000;stroke-width:5;stroke-linecap:round;stroke-linejoin:round;stroke-miterlimit:4;stroke-opacity:1;stroke-dasharray:none;stroke-dashoffset:24.6"
       id="path2885"
       d="m 455.53257,315.0819 c 4.83167,5.19451 10.87461,8.76505 17.16466,11.88718 6.29166,2.70405 13.2123,3.65288 20.01239,3.29236 8.03944,-0.64981 15.98341,-1.79374 23.8168,-3.71563 8.13544,-1.858 15.6674,-5.50664 23.65692,-7.86025 6.21254,-2.27107 12.63639,-3.85372 19.03927,-5.47316 6.57881,-1.54012 12.9946,-3.52776 19.70242,-4.4699 6.37385,-0.32915 12.48555,-2.64819 18.87055,-2.65515 5.17535,0.40101 10.30148,0.9337 15.31482,2.29903 4.62125,1.48827 8.42367,4.30186 12.25278,7.15914 2.2479,2.24032 4.76754,4.18927 7.35758,6.01548 1.80351,-0.64924 5.42964,-1.56593 -2.7617,1.63857 -0.37877,0.14818 0.6059,-0.54467 0.88069,-0.84454 0.3202,-0.34942 0.60072,-0.73323 0.90108,-1.09985 0.36881,-0.39582 0.73761,-0.79163 1.10642,-1.18745 4.3306,-4.23434 9.68098,-7.35937 15.22372,-9.7403 5.27926,-1.92314 10.91417,-2.21549 16.47206,-2.43423 6.87275,-0.50437 13.63648,0.93939 20.43972,1.67245 9.57163,2.00126 19.27326,2.92323 29.01985,3.47266 13.99956,0.58271 28.01532,0.56187 42.02431,0.58999 17.05782,0.32401 34.07412,-0.0951 51.06249,-1.66387 17.75536,-1.39825 35.32829,-4.50909 52.17371,-10.31313 9.56632,-3.69877 19.20649,-7.44987 27.9666,-12.86041 1.97129,-1.21754 3.58606,-2.93628 5.42642,-4.34393 4.49345,-4.30288 2.46417,-2.17034 6.14729,-6.34051 0,0 5.16956,-2.18125 5.16956,-2.18125 l 0,0 c -3.68953,4.24201 -1.65873,2.07053 -6.15061,6.45951 -12.88276,9.9941 -27.62188,17.0954 -42.89656,22.64132 -16.88718,5.71537 -34.46854,8.81217 -52.2377,10.1979 -17.00862,1.54222 -34.04284,1.95486 -51.11862,1.64167 -14.02955,-0.0217 -28.06605,0.009 -42.086,-0.58302 -9.76473,-0.5597 -19.47432,-1.52189 -29.07316,-3.46963 -6.79238,-0.7387 -13.5531,-2.12808 -20.41592,-1.58597 -5.52843,0.24298 -11.13531,0.57488 -16.34939,2.6068 -0.78286,0.35675 -2.81412,1.79371 -2.34856,1.07026 0.5613,-0.87223 1.70566,-1.22421 2.67873,-1.58334 0.71337,-0.26328 -1.25363,0.86099 -1.88196,1.28927 -1.44315,0.98368 -2.78738,2.02012 -4.00957,3.27753 -2.73631,2.74166 -5.77382,7.40363 -10.16715,6.72745 -2.56568,-1.86043 -5.06497,-3.82743 -7.33383,-6.04517 -3.76957,-2.83026 -7.55493,-5.56548 -12.12863,-6.98387 -4.97859,-1.32291 -10.08854,-1.82757 -15.22191,-2.17318 -6.35357,0.17428 -12.46073,2.32807 -18.80938,2.70118 -6.68357,1.00371 -13.09794,2.9884 -19.66769,4.51854 -6.38942,1.65373 -12.80691,3.22123 -19.01753,5.48404 -7.96874,2.39866 -15.51587,6.02022 -23.66182,7.82737 -7.86348,1.87924 -15.83526,3.02765 -23.89837,3.64147 -6.87565,0.25036 -13.84844,-0.71129 -20.17911,-3.52445 -6.3086,-3.17667 -12.34296,-6.80612 -17.25603,-11.97002 0,0 4.79036,-3.00896 4.79036,-3.00896 z" />
    <path
       style="fill:#000000;fill-opacity:1;fill-rule:nonzero;stroke:#000000;stroke-width:5;stroke-linecap:round;stroke-linejoin:round;stroke-miterlimit:4;stroke-opacity:1;stroke-dasharray:none;stroke-dashoffset:24.6"
       id="path2887"
       d="m 624.48029,377.47892 c 6.39033,-8.22173 10.16336,-18.04221 13.72812,-27.72381 2.69785,-8.53608 5.28057,-17.08204 6.91022,-25.89159 0.03,-0.99075 0.20788,-3.1279 -0.12367,-4.21193 -0.51216,-1.67457 -1.82847,-0.33387 -1.27003,-0.64798 1.24862,-0.70232 2.43755,-1.61692 3.83172,-1.94649 0.57638,-0.13624 -0.79181,0.88099 -1.18771,1.32148 -2.90033,5.45642 -4.25697,11.70169 -5.3366,17.754 -1.15087,7.94001 -1.28303,15.97657 -1.39204,23.98432 -0.29649,5.44755 0.91686,10.80234 2.04963,16.09395 0.28432,0.57497 0.6793,1.57486 1.23449,2.01549 0.35541,0.28206 1.68552,-0.67238 1.25951,-0.51622 -4.12849,1.51335 -4.98555,3.25515 -2.81217,0.23322 2.42626,-5.0314 5.05153,-10.00613 7.26367,-15.14689 0.32443,-0.8385 0.64886,-1.67701 0.97329,-2.51551 0,0 5.11911,-2.37538 5.11911,-2.37538 l 0,0 c -0.32469,0.84577 -0.64939,1.69154 -0.97408,2.53731 -2.18004,5.17937 -4.89946,10.11899 -7.18835,15.24306 -2.42107,3.53119 -7.76256,8.85533 -9.87208,3.20305 -1.10921,-5.34027 -2.35206,-10.73958 -2.06066,-16.22937 0.11514,-8.03349 0.24544,-16.09347 1.35151,-24.0646 1.06386,-6.13549 2.47108,-12.36544 5.17041,-17.99739 4.78134,-6.32482 9.88709,-7.31972 9.02651,0.80248 -1.65015,8.84576 -4.22965,17.42632 -6.92757,26.00418 -3.55246,9.69915 -7.29342,19.53841 -13.57113,27.85208 0,0 -5.2021,2.22254 -5.2021,2.22254 z" />
    <path
       style="fill:#000000;fill-opacity:1;fill-rule:nonzero;stroke:#000000;stroke-width:5;stroke-linecap:round;stroke-linejoin:round;stroke-miterlimit:4;stroke-opacity:1;stroke-dasharray:none;stroke-dashoffset:24.6"
       id="path2889"
       d="m 660.66342,396.93102 c 1.38157,-6.94635 4.32887,-13.32415 10.33593,-17.31126 6.8608,-3.99388 10.86818,-5.50156 15.56181,1.17301 1.6912,6.71389 -2.86829,8.13817 -8.20214,11.06515 -1.59178,0.45612 -2.68931,-0.10641 -4.03706,-0.85457 0,0 4.75292,-3.11443 4.75292,-3.11443 l 0,0 c 1.2948,0.63455 2.29133,0.97851 3.7391,0.4574 -7.2287,4.82117 0.4214,0.62209 -1.13816,-4.67433 -1.45373,-2.06434 -3.17836,-3.82374 -5.84852,-4.17227 -0.73639,-0.0961 -2.39042,0.80497 -2.22644,0.0807 0.24528,-1.08333 1.77466,-1.3363 2.66199,-2.00444 -6.15158,3.67394 -9.12689,9.99308 -10.52846,16.86127 0,0 -5.07097,2.4938 -5.07097,2.4938 z" />
    <path
       style="fill:#000000;fill-opacity:1;fill-rule:nonzero;stroke:#000000;stroke-width:5;stroke-linecap:round;stroke-linejoin:round;stroke-miterlimit:4;stroke-opacity:1;stroke-dasharray:none;stroke-dashoffset:24.6"
       id="path2891"
       d="m 732.97905,347.53312 c -5.12597,11.42265 -11.98684,21.81597 -19.0384,32.108 -6.16711,8.88065 -12.87369,17.32906 -20.45883,25.03168 0,0 -5.16387,2.14146 -5.16387,2.14146 l 0,0 c 7.64667,-7.65629 14.39243,-16.07995 20.5675,-24.9691 7.02654,-10.24496 13.92277,-20.56163 18.94206,-31.98132 0,0 5.15154,-2.33072 5.15154,-2.33072 z" />
    <path
       style="fill:#000000;fill-opacity:1;fill-rule:nonzero;stroke:#000000;stroke-width:5;stroke-linecap:round;stroke-linejoin:round;stroke-miterlimit:4;stroke-opacity:1;stroke-dasharray:none;stroke-dashoffset:24.6"
       id="path2893"
       d="m 715.68687,380.9995 c 7.35338,-2.78972 15.02042,-6.00067 23.01227,-5.29976 6.91841,2.23224 2.99269,8.55042 0.48478,12.92207 -3.38795,6.12869 -9.03661,10.46982 -13.06309,16.09148 -0.0273,0.39047 -0.30452,0.84953 -0.0818,1.1714 1.116,1.61269 15.00394,-3.70038 16.61571,-4.29895 7.85311,-2.98873 3.98348,-1.50483 11.60948,-4.45012 0,0 -4.3717,3.42901 -4.3717,3.42901 l 0,0 c -7.62766,2.93858 -3.75324,1.45431 -11.62376,4.45147 -2.25734,0.83141 -15.37931,6.49181 -17.29404,3.43944 -0.26337,-0.41986 -0.028,-0.99085 -0.042,-1.48628 3.91031,-5.71507 9.71083,-9.93678 13.11669,-16.06311 2.29202,-3.89519 6.67359,-10.04681 0.0651,-11.92798 -7.94558,-0.50029 -15.57526,2.67128 -22.84306,5.55326 0,0 4.41543,-3.53193 4.41543,-3.53193 z" />
    <path
       style="fill:#000000;fill-opacity:1;fill-rule:nonzero;stroke:#000000;stroke-width:5;stroke-linecap:round;stroke-linejoin:round;stroke-miterlimit:4;stroke-opacity:1;stroke-dasharray:none;stroke-dashoffset:24.6"
       id="path2895"
       d="m 7.90801,350.65048 c -1.1933253,8.44958 -2.1053622,16.93679 -0.6125592,25.39038 0.8041443,5.4868 3.4646222,9.15814 8.6184252,11.06608 4.825957,1.29851 9.79103,0.13821 14.472995,-1.2472 6.50659,-1.52364 12.826188,-3.69227 19.358081,-5.11294 6.563388,-1.79218 13.111547,-3.69167 19.76128,-5.14355 8.027367,-1.96595 15.916992,-4.38247 23.780322,-6.91626 7.972896,-2.00165 16.095146,-3.47426 24.205306,-4.83694 7.61699,-1.19498 15.13687,-2.83828 22.80178,-3.762 4.84002,-0.59856 10.12258,-1.32785 13.96311,2.20948 2.0742,3.76969 3.23346,8.08167 4.32818,12.24436 0.72044,1.40186 -0.0202,6.6919 2.05482,6.60182 3.15479,-0.3978 5.93403,-1.8248 8.90711,-2.84222 4.06036,-2.06137 8.4222,-3.30926 12.61927,-5.03607 4.60028,-1.98857 9.21034,-3.62355 14.1513,-4.52691 6.25341,-0.90401 12.59395,-0.8709 18.89821,-0.91376 7.4559,0.37948 14.78912,-0.31771 22.16221,-1.31191 7.39346,-0.97106 14.84539,-1.24943 22.29189,-1.42786 8.7014,0.0604 17.34154,-0.0902 26.00233,-0.93225 10.61106,-1.00078 21.2368,-1.41262 31.82339,-2.65861 9.88369,-0.81996 19.52002,-2.89346 28.69483,-6.64367 7.28478,-3.52421 11.1353,-5.91644 16.7413,-12.58782 2.5924,-4.20657 1.44474,-2.12062 3.48505,-6.2345 0,0 5.12491,-2.3234 5.12491,-2.3234 l 0,0 c -2.0301,4.18503 -0.89331,2.05729 -3.4499,6.36197 -6.84627,8.48209 -16.65703,13.46576 -26.29418,18.24014 -9.22063,3.66947 -18.88094,5.69281 -28.77577,6.51789 -10.59102,1.22961 -21.22697,1.61505 -31.83713,2.6548 -8.67641,0.83125 -17.33785,0.93421 -26.05199,0.91886 -7.43612,0.18517 -14.87716,0.48799 -22.2576,1.47851 -7.38503,0.98314 -14.74043,1.5916 -22.20286,1.25448 -6.29247,0.058 -12.62486,0.0325 -18.85791,1.00944 -4.91016,0.96169 -9.49741,2.6671 -14.09158,4.62323 -4.20993,1.69629 -8.55013,3.02528 -12.64064,5.01773 -2.97824,1.07374 -5.87981,2.55824 -9.11381,2.61296 -2.55668,-0.9949 -1.54038,-4.91778 -2.36158,-7.15456 -1.04511,-4.06306 -2.18445,-8.2648 -4.1658,-11.9562 -3.77401,-3.30492 -9.02993,-2.34522 -13.65396,-1.83711 -7.65166,0.94687 -15.1633,2.59927 -22.77533,3.77513 -8.0923,1.39372 -16.216636,2.80499 -24.155408,4.89983 -7.871715,2.53533 -15.781063,4.92842 -23.820424,6.88129 -6.642937,1.5026 -13.196138,3.38675 -19.772699,5.15129 -6.517415,1.46167 -12.849544,3.59416 -19.34509,5.14613 -4.796147,1.32082 -9.813556,2.45477 -14.704231,0.96248 -5.2295362,-2.1174 -8.048232,-5.93155 -8.8806794,-11.58239 -1.52845179,-8.49909 -0.6089449,-17.02717 0.5040558,-25.53635 0,0 5.0709756,-2.4938 5.0709756,-2.4938 z" />
    <path
       style="fill:#000000;fill-opacity:1;fill-rule:nonzero;stroke:#000000;stroke-width:5;stroke-linecap:round;stroke-linejoin:round;stroke-miterlimit:4;stroke-opacity:1;stroke-dasharray:none;stroke-dashoffset:24.6"
       id="path2897"
       d="m 161.31725,448.29147 c 4.72471,-10.49445 8.2992,-21.46972 11.51408,-32.50702 2.58114,-8.21971 3.10846,-16.86316 5.28163,-25.16402 0.97446,-2.75361 1.30632,-4.75559 5.83743,-3.56106 0.64778,0.17077 -0.28258,1.31046 -0.38541,1.97243 -0.13391,0.86199 -0.21627,1.7312 -0.3244,2.5968 -0.80427,8.98025 -2.11774,17.91382 -3.61055,26.80493 -1.27043,8.74228 -3.39241,17.32565 -4.71136,26.06167 0.0252,2.67881 -1.99272,6.62151 0.21063,8.8729 1.66121,0.47476 5.70908,-1.75398 -1.93789,1.85848 -0.52114,0.24619 0.98153,-0.60515 1.45832,-0.92898 2.0454,-1.38917 1.57238,-1.08513 3.42858,-2.82303 3.5237,-3.72303 6.35762,-8.13019 8.44798,-12.80273 0.26504,-0.70384 0.53009,-1.40768 0.79514,-2.11152 0,0 5.12676,-2.3861 5.12676,-2.3861 l 0,0 c -0.2629,0.71447 -0.52581,1.42893 -0.78871,2.1434 -2.02787,4.74169 -4.88535,9.18445 -8.3544,13.00207 -2.82656,2.82452 -9.36647,8.6142 -13.04528,7.00517 -2.27727,-2.59495 -0.56536,-6.30126 -0.38947,-9.35184 1.31694,-8.7484 3.47796,-17.3354 4.74626,-26.08954 1.49926,-8.86966 2.8159,-17.78657 3.56403,-26.7513 0.0576,-0.51584 0.43934,-4.40253 0.65508,-4.62503 8.68606,-8.95821 5.4657,-4.24613 4.37059,-1.31624 -2.27208,8.30083 -2.78152,16.97171 -5.36137,25.21489 -3.19192,11.03728 -6.76507,22.00247 -11.3973,32.52812 0,0 -5.13037,2.35755 -5.13037,2.35755 z" />
    <path
       style="fill:#000000;fill-opacity:1;fill-rule:nonzero;stroke:#000000;stroke-width:5;stroke-linecap:round;stroke-linejoin:round;stroke-miterlimit:4;stroke-opacity:1;stroke-dasharray:none;stroke-dashoffset:24.6"
       id="path2899"
       d="m 200.98926,456.89592 c 2.31509,-7.33322 5.02307,-14.35589 10.83984,-19.57035 4.3372,-3.09424 10.7417,-8.75354 14.94962,-3.1644 1.67414,3.01824 1.61511,6.39372 0.77101,9.63702 -1.91271,3.77713 -6.00361,5.75979 -9.93877,7.0452 0,0 4.48415,-3.49518 4.48415,-3.49518 l 0,0 c 2.43726,-0.91763 1.06217,-0.4729 -2.66298,1.8689 -1.37765,0.86605 4.07732,-2.41821 2.99806,-2.98095 0.88952,-3.07218 1.05304,-6.26741 -0.53105,-9.17328 -2.99934,-3.8584 -8.28634,0.29239 -2.63566,-3.33026 0.74701,-0.4789 -1.47765,0.98285 -2.21648,1.47427 -5.95752,5.01687 -8.66957,11.96095 -10.95492,19.26544 0,0 -5.10282,2.42359 -5.10282,2.42359 z" />
    <path
       style="fill:#000000;fill-opacity:1;fill-rule:nonzero;stroke:#000000;stroke-width:5;stroke-linecap:round;stroke-linejoin:round;stroke-miterlimit:4;stroke-opacity:1;stroke-dasharray:none;stroke-dashoffset:24.6"
       id="path2901"
       d="m 290.11132,382.14718 c -5.15387,10.49512 -10.20329,21.0311 -16.01237,31.18275 -5.68943,10.41542 -12.34746,20.19722 -19.01611,29.98881 -1.90311,2.69601 -4.04298,5.20385 -6.22163,7.67613 0,0 -5.20639,2.19191 -5.20639,2.19191 l 0,0 c 2.20864,-2.45431 4.37585,-4.94704 6.30517,-7.63259 6.66983,-9.79862 13.41052,-19.53488 19.08264,-29.97155 5.81742,-10.10111 10.82498,-20.6077 15.93832,-31.07791 0,0 5.13037,-2.35755 5.13037,-2.35755 z" />
    <path
       style="fill:#000000;fill-opacity:1;fill-rule:nonzero;stroke:#000000;stroke-width:5;stroke-linecap:round;stroke-linejoin:round;stroke-miterlimit:4;stroke-opacity:1;stroke-dasharray:none;stroke-dashoffset:24.6"
       id="path2903"
       d="m 279.08382,423.47713 c 7.00292,-4.6049 14.36624,-9.82633 22.79413,-11.18713 5.9969,-0.62193 7.20282,4.69799 7.47618,9.54325 -0.3863,7.67035 -3.3449,14.557 -6.97621,21.18908 -2.77771,4.4775 -6.23514,8.66237 -10.50725,11.79467 -1.35136,0.27872 -2.70193,1.11097 -4.0541,0.83614 -0.70834,-0.14397 1.10146,-0.95005 1.72903,-1.3087 5.46957,-3.12587 10.58614,-5.37171 16.55305,-7.1254 6.12842,-1.44457 12.41335,-1.93813 18.68628,-2.20023 2.85625,0.32764 7.10669,0.88341 7.69706,4.33495 -0.90209,4.66882 -6.22166,6.30269 -8.39775,2.39789 0,0 4.9303,-2.83572 4.9303,-2.83572 l 0,0 c 0.21461,0.38756 0.52708,1.1543 1.02368,1.3498 0.24181,0.0952 0.97821,-0.16314 0.7796,0.004 -6.47379,5.46261 -3.96115,3.35993 -3.3814,1.72621 -0.11091,-3.12073 -5.00929,-3.39474 -7.20855,-3.63717 -6.24268,0.26709 -12.50231,0.78205 -18.58387,2.29825 -3.05597,0.92822 -3.30268,0.93811 -6.2773,2.1013 -0.97916,0.38289 -2.12303,1.91093 -2.9108,1.21467 -0.72604,-0.6417 1.61883,-1.07488 2.3515,-1.709 0.53739,-0.46511 -1.17518,0.79964 -1.76277,1.19946 -2.15301,1.14484 -4.30601,2.28969 -6.45902,3.43453 4.39368,-2.92868 7.8094,-7.20626 10.66399,-11.58139 3.64932,-6.53824 6.62727,-13.3088 7.09666,-20.89937 -0.21943,-4.64889 -1.21665,-9.52356 -6.97846,-8.7282 -8.20303,1.592 -6.82186,2.00664 -13.03398,5.6808 0,0 -5.25,2.10686 -5.25,2.10686 z" />
    <path
       style="fill:#000000;fill-opacity:1;fill-rule:nonzero;stroke:#000000;stroke-width:5;stroke-linecap:round;stroke-linejoin:round;stroke-miterlimit:4;stroke-opacity:1;stroke-dasharray:none;stroke-dashoffset:24.6"
       id="path2905"
       d="m -31.767891,644.9002 c -0.03494,7.40723 -0.01531,14.81457 -0.01043,22.22185 0.454421,6.02999 -0.808801,11.90893 -1.697755,17.83081 -1.308035,3.28206 -1.094667,7.75435 -3.320662,10.6501 -1.712467,0.36567 -3.400024,1.3156 -5.137402,1.09701 -0.08519,-0.0107 0.316769,-1.78077 0.66488,-3.73979 0.487581,-2.7439 0.762052,-5.48505 1.008971,-8.25966 0.516582,-7.48768 0.566426,-14.99684 0.612956,-22.49898 0.02199,-6.08204 0.01863,-12.16417 -0.0067,-18.2462 0.004,-3.68119 -1.007241,-4.52736 5.045177,-4.66941 3.3e-4,-10e-6 -0.0029,1.37453 -0.0064,2.87309 -0.01995,5.50117 -0.01689,11.00239 -0.017,16.50359 0.0099,4.69523 0.0017,9.39046 0.01407,14.08569 0.0029,1.03041 0.0076,2.06082 0.01287,3.09122 0,0 -5.075083,2.58588 -5.075083,2.58588 l 0,0 c 0.0053,-1.03476 0.0099,-2.06953 0.01284,-3.10431 0.01227,-4.69994 0.004,-9.39989 0.01369,-14.09983 -3.3e-4,-5.4956 0.0021,-10.99122 -0.01643,-16.48679 -0.0015,-0.95626 -0.681051,-2.19414 -0.0033,-2.86877 6.370195,-6.34117 4.951512,-4.47663 5.060403,-0.47958 -0.01011,6.08972 0.0022,12.17948 -0.02879,18.26915 -0.05035,7.51289 -0.09598,15.0313 -0.578079,22.53176 -0.114593,1.36028 -0.773533,11.13372 -1.642061,11.95231 -1.537739,1.44932 -3.486472,2.38855 -5.229708,3.58283 1.937217,-0.78854 2.71806,-8.39548 3.554468,-10.28419 0.875696,-5.90147 2.197997,-11.75134 1.744294,-17.76078 0.0049,-7.40373 0.02454,-14.80753 -0.01043,-22.21121 0,0 5.035647,-2.56579 5.035647,-2.56579 z" />
    <path
       style="fill:#000000;fill-opacity:1;fill-rule:nonzero;stroke:#000000;stroke-width:5;stroke-linecap:round;stroke-linejoin:round;stroke-miterlimit:4;stroke-opacity:1;stroke-dasharray:none;stroke-dashoffset:24.6"
       id="path2907"
       d="m -26.774144,664.61308 c 7.407791,-0.99475 14.854177,-1.66209 22.3093309,-2.17338 2.3903782,-0.17641 4.78624142,-0.25565 7.1817513,-0.31947 0,0 -4.5875179,3.35127 -4.5875179,3.35127 l 0,0 c -2.3794474,0.0602 -4.7584214,0.14706 -7.1332099,0.31321 -7.4523484,0.50093 -14.8968004,1.16897 -22.2945204,2.21448 0,0 4.524166,-3.38611 4.524166,-3.38611 z" />
    <path
       style="fill:#000000;fill-opacity:1;fill-rule:nonzero;stroke:#000000;stroke-width:5;stroke-linecap:round;stroke-linejoin:round;stroke-miterlimit:4;stroke-opacity:1;stroke-dasharray:none;stroke-dashoffset:24.6"
       id="path2909"
       d="m 9.8182863,646.51047 c 4.6829877,3.31917 10.0406917,6.03992 12.5663237,11.4206 0.658301,3.83228 -2.348213,5.68302 -5.15047,7.56788 -5.876391,3.8389 5.148582,-3.30999 -8.8146461,5.18346 -0.9120031,0.55475 1.8074481,-1.22091 2.8457591,-1.4687 0.774426,-0.18482 -1.3520185,0.84131 -2.0216325,1.27202 -3.5633121,2.292 -0.7149998,0.56912 -4.4346896,2.75203 -4.55056618,3.26067 -9.4357202,5.99969 -14.2758285,8.79547 -0.1910146,0.10632 -0.3820292,0.21264 -0.5730434,0.31897 0,0 4.4319248,-3.58 4.4319248,-3.58 l 0,0 c 0.18774,-0.10626 0.37548,-0.21253 0.56322,-0.31879 -10.4165368,6.02678 3.1630893,-1.75664 4.5838418,-3.19219 4.4914095,-2.56141 8.8710743,-5.43434 13.2796474,-8.12598 0.903895,-0.55188 -1.769864,1.17453 -2.721089,1.64011 -0.6655653,0.32576 1.239613,-0.81225 1.85942,-1.21837 2.633531,-1.65679 5.784609,-3.29669 5.495524,-6.83758 -2.420904,-5.31999 -7.8628642,-7.91908 -12.4246279,-11.19997 0,0 4.7903662,-3.00896 4.7903662,-3.00896 z" />
    <path
       style="fill:#000000;fill-opacity:1;fill-rule:nonzero;stroke:#000000;stroke-width:5;stroke-linecap:round;stroke-linejoin:round;stroke-miterlimit:4;stroke-opacity:1;stroke-dasharray:none;stroke-dashoffset:24.6"
       id="path2911"
       d="m -54.589996,625.962 c -3.890388,-9.72389 -5.537915,-20.05518 -6.711928,-30.39846 -1.006012,-10.70465 -1.151816,-21.46286 -1.23981,-32.20639 -0.03078,-5.37681 -0.01963,-10.7537 -0.01041,-16.13055 0,0 5.061708,-2.5751 5.061708,-2.5751 l 0,0 c -0.05773,5.38709 -0.08018,10.77459 -0.06751,16.16197 0.05943,10.73103 0.187277,21.47723 1.181257,32.17035 1.157402,10.29716 2.760327,20.60564 6.742483,30.24881 0,0 -4.955795,2.72937 -4.955795,2.72937 z" />
    <path
       style="fill:#000000;fill-opacity:1;fill-rule:nonzero;stroke:#000000;stroke-width:5;stroke-linecap:round;stroke-linejoin:round;stroke-miterlimit:4;stroke-opacity:1;stroke-dasharray:none;stroke-dashoffset:24.6"
       id="path2913"
       d="m -78.598846,589.57093 c 7.506824,-2.8859 14.767537,-6.36535 22.037362,-9.79276 0,0 -4.36561,3.47515 -4.36561,3.47515 l 0,0 c -7.295878,3.42911 -14.59393,6.86651 -22.087183,9.84954 0,0 4.415431,-3.53193 4.415431,-3.53193 z" />
    <path
       style="fill:#000000;fill-opacity:1;fill-rule:nonzero;stroke:#000000;stroke-width:5;stroke-linecap:round;stroke-linejoin:round;stroke-miterlimit:4;stroke-opacity:1;stroke-dasharray:none;stroke-dashoffset:24.6"
       id="path2915"
       d="m -27.016238,588.97638 c 5.235703,2.81926 10.800826,4.89565 16.502046,6.53846 2.3736387,0.46643 4.4633093,1.11896 4.1740945,3.9097 -1.1858383,2.73391 -3.6914705,4.73861 -5.7879685,6.78769 -2.903831,3.20125 -5.577987,6.58845 -8.227206,10.00264 -1.129917,1.46617 -0.60461,0.78231 -1.576748,2.05094 0,0 -5.223792,2.24369 -5.223792,2.24369 l 0,0 c 0.98408,-1.2754 0.452796,-0.58803 1.594438,-2.06168 2.662853,-3.42174 5.339575,-6.82195 8.19845,-10.07438 2.071794,-2.02322 4.392463,-3.97546 5.905289,-6.46211 0.750156,-2.43555 -1.955192,-2.74408 -3.728229,-3.20192 -5.709723,-1.70489 -11.276085,-3.83655 -16.553879,-6.62513 0,0 4.723505,-3.1079 4.723505,-3.1079 z" />
    <path
       style="fill:#000000;fill-opacity:1;fill-rule:nonzero;stroke:#000000;stroke-width:5;stroke-linecap:round;stroke-linejoin:round;stroke-miterlimit:4;stroke-opacity:1;stroke-dasharray:none;stroke-dashoffset:24.6"
       id="path2917"
       d="m 867.59128,650.3531 c -1.93259,5.88768 -3.10933,11.97524 -4.39723,18.02453 -0.0841,0.30209 0.0399,0.79227 -0.2522,0.90628 -1.70642,0.66603 -3.52887,1.51976 -5.34467,1.27822 -0.78252,-0.1041 0.36645,-8.91988 0.55524,-10.06455 0.89268,-4.2552 1.49422,-8.55914 1.95531,-12.87988 0.078,-0.60432 0.11205,-1.21643 0.15509,-1.82315 0,0 5.17151,-2.4238 5.17151,-2.4238 l 0,0 c -0.0742,0.39633 -0.26177,1.31075 -0.23927,1.72407 -0.48283,4.33393 -1.05724,8.66028 -1.97717,12.92649 -0.21517,1.27255 -0.74724,4.17795 -0.81812,5.51197 -0.0426,0.80277 0.0294,1.60775 0.067,2.41076 0.0303,0.64588 0.54349,1.43227 0.13678,1.93493 -1.28932,1.59347 -3.09267,2.711 -4.80613,3.83596 -0.25691,0.16868 0.19621,-0.58251 0.29432,-0.87377 1.34537,-6.05436 2.51083,-12.15838 4.37849,-18.08302 0,0 5.12105,-2.40504 5.12105,-2.40504 z" />
    <path
       style="fill:#000000;fill-opacity:1;fill-rule:nonzero;stroke:#000000;stroke-width:5;stroke-linecap:round;stroke-linejoin:round;stroke-miterlimit:4;stroke-opacity:1;stroke-dasharray:none;stroke-dashoffset:24.6"
       id="path2919"
       d="m 867.59128,630.3531 c -2.93511,10.63891 -5.90201,21.2732 -8.63049,31.96726 -2.90544,10.279 -4.85457,20.7801 -7.38106,31.15183 0,0 -5.02964,2.41163 -5.02964,2.41163 l 0,0 c 2.57977,-10.3705 4.51659,-20.88328 7.41912,-31.17441 2.69519,-10.68597 5.69542,-21.294 8.50102,-31.95127 0,0 5.12105,-2.40504 5.12105,-2.40504 z" />
    <path
       style="fill:#000000;fill-opacity:1;fill-rule:nonzero;stroke:#000000;stroke-width:5;stroke-linecap:round;stroke-linejoin:round;stroke-miterlimit:4;stroke-opacity:1;stroke-dasharray:none;stroke-dashoffset:24.6"
       id="path2921"
       d="m 854.98338,662.59196 c -6.3106,-0.0217 -12.62124,-0.0203 -18.93185,-0.0148 0,0 4.52432,-3.28712 4.52432,-3.28712 l 0,0 c 6.32419,0.006 12.64839,0.007 18.97256,-0.0148 0,0 -4.56503,3.31669 -4.56503,3.31669 z" />
    <path
       style="fill:#000000;fill-opacity:1;fill-rule:nonzero;stroke:#000000;stroke-width:5;stroke-linecap:round;stroke-linejoin:round;stroke-miterlimit:4;stroke-opacity:1;stroke-dasharray:none;stroke-dashoffset:24.6"
       id="path2923"
       d="m 829.80542,638.67402 c -3.49656,4.82979 -7.09994,9.7079 -8.02452,15.70727 0.0597,3.42096 1.47964,5.22525 4.40049,6.70765 0,0 -4.74503,3.10737 -4.74503,3.10737 l 0,0 c -3.05738,-1.67085 -4.58057,-3.71488 -4.73292,-7.31992 0.84318,-6.10952 4.37699,-11.04266 7.89989,-15.97984 0,0 5.20209,-2.22253 5.20209,-2.22253 z" />
    <path
       style="fill:#000000;fill-opacity:1;fill-rule:nonzero;stroke:#000000;stroke-width:5;stroke-linecap:round;stroke-linejoin:round;stroke-miterlimit:4;stroke-opacity:1;stroke-dasharray:none;stroke-dashoffset:24.6"
       id="path2925"
       d="m 866.72701,587.93432 c -9.14047,-2.0705 -12.60025,-6.43003 -14.70444,-15.24894 -0.78829,-9.57311 1.83907,-18.88711 4.29736,-28.03374 1.58402,-5.44504 2.9539,-10.94687 3.75794,-16.56277 0.0468,-0.38435 0.0936,-0.7687 0.14032,-1.15305 0,0 5.09539,-2.51812 5.09539,-2.51812 l 0,0 c -0.0485,0.38958 -0.0969,0.77915 -0.14543,1.16873 -0.82076,5.64923 -2.17561,11.18973 -3.80411,16.66028 -2.4529,9.06531 -5.08755,18.28093 -4.40216,27.77648 2.01142,8.67635 5.38246,12.77125 14.38356,14.65476 0,0 -4.61843,3.25637 -4.61843,3.25637 z" />
    <path
       style="fill:#000000;fill-opacity:1;fill-rule:nonzero;stroke:#000000;stroke-width:5;stroke-linecap:round;stroke-linejoin:round;stroke-miterlimit:4;stroke-opacity:1;stroke-dasharray:none;stroke-dashoffset:24.6"
       id="path2927"
       d="m 844.67848,556.41549 c 7.59227,0.0218 15.1846,0.0182 22.77688,0.004 0,0 -4.56151,3.31413 -4.56151,3.31413 l 0,0 c -7.59587,-0.0143 -15.19179,-0.0178 -22.78764,0.004 0,0 4.57227,-3.32195 4.57227,-3.32195 z" />
    <path
       style="fill:#000000;fill-opacity:1;fill-rule:nonzero;stroke:#000000;stroke-width:5;stroke-linecap:round;stroke-linejoin:round;stroke-miterlimit:4;stroke-opacity:1;stroke-dasharray:none;stroke-dashoffset:24.6"
       id="path2929"
       d="m 905.37497,576.32877 c 0.0643,6.96001 -1.13252,13.86475 -2.05542,20.74721 -0.19096,1.42067 -0.38579,2.84081 -0.58204,4.26076 0,0 -5.10538,2.51022 -5.10538,2.51022 l 0,0 c 0.21235,-1.42461 0.42119,-2.84974 0.62159,-4.2761 0.9588,-6.85279 2.18073,-13.74183 2.0856,-20.67629 0,0 5.03565,-2.5658 5.03565,-2.5658 z" />
    <path
       style="fill:#000000;fill-opacity:1;fill-rule:nonzero;stroke:#000000;stroke-width:5;stroke-linecap:round;stroke-linejoin:round;stroke-miterlimit:4;stroke-opacity:1;stroke-dasharray:none;stroke-dashoffset:24.6"
       id="path2931"
       d="m 198.69333,647.53312 c -4.64288,9.29849 -9.88014,18.29234 -15.53498,27.00797 -6.12283,8.58502 -12.14202,17.23419 -18.06462,25.95801 0,0 -5.14079,2.24327 -5.14079,2.24327 l 0,0 c 5.95359,-8.71776 11.95387,-17.39563 18.11668,-25.96796 5.65407,-8.66877 10.89149,-17.6249 15.47218,-26.91057 0,0 5.15153,-2.33072 5.15153,-2.33072 z" />
    <path
       style="fill:#000000;fill-opacity:1;fill-rule:nonzero;stroke:#000000;stroke-width:5;stroke-linecap:round;stroke-linejoin:round;stroke-miterlimit:4;stroke-opacity:1;stroke-dasharray:none;stroke-dashoffset:24.6"
       id="path2933"
       d="m 214.91065,653.0139 c 3.48119,7.92959 6.33962,16.12576 9.10836,24.32734 0.4162,1.28093 0.83239,2.56185 1.24859,3.84278 0,0 -4.91538,2.70087 -4.91538,2.70087 l 0,0 c -0.41027,-1.28142 -0.82054,-2.56284 -1.23081,-3.84426 -2.74957,-8.17689 -5.59925,-16.35065 -9.12434,-24.22901 0,0 4.91358,-2.79772 4.91358,-2.79772 z" />
    <path
       style="fill:#000000;fill-opacity:1;fill-rule:nonzero;stroke:#000000;stroke-width:5;stroke-linecap:round;stroke-linejoin:round;stroke-miterlimit:4;stroke-opacity:1;stroke-dasharray:none;stroke-dashoffset:24.6"
       id="path2935"
       d="m 197.48616,650.90894 c 0.85416,-9.40438 1.76051,-18.80102 2.34927,-28.22687 0.2279,-3.70145 0.36001,-7.40754 0.45688,-11.11437 0,0 5.05388,-2.55649 5.05388,-2.55649 l 0,0 c -0.12045,3.72152 -0.25951,7.44299 -0.50294,11.15889 -0.59983,9.40758 -1.51031,18.78708 -2.32941,28.17711 0,0 -5.02768,2.56173 -5.02768,2.56173 z" />
    <path
       style="fill:#000000;fill-opacity:1;fill-rule:nonzero;stroke:#000000;stroke-width:5;stroke-linecap:round;stroke-linejoin:round;stroke-miterlimit:4;stroke-opacity:1;stroke-dasharray:none;stroke-dashoffset:24.6"
       id="path2937"
       d="m 218.38971,615.0819 c 3.52483,3.62741 7.28203,6.96366 11.27858,10.05889 0,0 -4.78403,3.01281 -4.78403,3.01281 l 0,0 c -3.97195,-3.12755 -7.70518,-6.49292 -11.28491,-10.06274 0,0 4.79036,-3.00896 4.79036,-3.00896 z" />
    <path
       style="fill:#000000;fill-opacity:1;fill-rule:nonzero;stroke:#000000;stroke-width:5;stroke-linecap:round;stroke-linejoin:round;stroke-miterlimit:4;stroke-opacity:1;stroke-dasharray:none;stroke-dashoffset:24.6"
       id="path2939"
       d="m 192.66256,615.81688 c -4.51351,6.7014 -9.49608,13.0441 -14.69236,19.22347 0,0 -5.16667,2.19143 -5.16667,2.19143 l 0,0 c 5.20687,-6.14873 10.23531,-12.44547 14.65694,-19.19237 0,0 5.20209,-2.22253 5.20209,-2.22253 z" />
    <path
       style="fill:#000000;fill-opacity:1;fill-rule:nonzero;stroke:#000000;stroke-width:5;stroke-linecap:round;stroke-linejoin:round;stroke-miterlimit:4;stroke-opacity:1;stroke-dasharray:none;stroke-dashoffset:24.6"
       id="path2941"
       d="m 206.72701,599.36289 c -6.77079,-0.74734 -13.50085,-2.5727 -17.21792,-8.64576 -1.65637,-7.19289 2.90388,-12.73386 7.45848,-17.69916 6.1969,-4.59321 13.89776,-10.67263 22.10238,-9.26416 5.79663,2.22107 7.68607,7.49021 8.12272,13.2432 0.40487,7.83315 -3.5304,13.59983 -8.85713,18.88498 -5.34526,4.2439 -11.22344,8.16412 -18.15534,8.25201 0,0 4.56788,-3.33817 4.56788,-3.33817 l 0,0 c 6.92125,-0.29963 4.90679,-0.48517 8.39831,-2.77216 5.33285,-5.10733 9.38358,-10.7054 9.04638,-18.43553 -0.34047,-5.49869 -2.09787,-10.62565 -7.74337,-12.58133 -6.68938,-0.8531 -10.55707,2.34469 -12.29807,3.84083 -4.44542,4.74879 -9.14245,10.03475 -7.76051,17.03541 3.61328,5.94995 10.39898,7.49675 16.95462,8.22347 0,0 -4.61843,3.25637 -4.61843,3.25637 z" />
    <path
       style="fill:#000000;fill-opacity:1;fill-rule:nonzero;stroke:#000000;stroke-width:5;stroke-linecap:round;stroke-linejoin:round;stroke-miterlimit:4;stroke-opacity:1;stroke-dasharray:none;stroke-dashoffset:24.6"
       id="path2943"
       d="m 755.29844,650.79146 c -8.4636,-1.36729 -17.05152,-1.51408 -25.54631,-2.54648 -10.55507,-1.94284 -21.26101,-1.1838 -31.90965,-0.78933 -13.90398,0.59383 -27.74771,2.0864 -41.64934,2.83431 -14.65747,0.70669 -29.33464,0.77756 -44.00582,0.84258 -15.26267,-0.0836 -30.55246,-1.07 -45.75567,-2.42743 -15.88565,-1.35263 -31.74996,-2.91951 -47.63469,-4.28435 -16.97817,-0.92294 -33.9064,-2.51708 -50.87805,-3.54504 -16.36674,-0.84251 -32.6757,-2.42793 -49.04681,-3.25011 -14.68606,-0.23635 -29.31726,-0.99666 -43.96004,-2.10233 -10.65756,-0.82963 -21.33908,-1.24132 -32.02497,-1.43938 -5.60482,-0.0836 -11.2104,-0.0984 -16.81571,-0.0729 -0.90746,0.005 -1.81497,0.0102 -2.72226,0.0286 0,0 4.61517,-3.36282 4.61517,-3.36282 l 0,0 c 0.89895,-0.002 1.79791,-0.003 2.69686,-0.002 5.587,0.007 11.17428,0.0247 16.76048,0.12748 10.67682,0.21252 21.34776,0.66306 31.99556,1.49928 14.63109,1.11509 29.25342,1.83923 43.92699,2.10909 16.36609,0.8421 32.67232,2.42239 49.0355,3.26501 16.97555,1.03883 33.91044,2.61497 50.89244,3.55169 15.88675,1.37098 31.7562,2.91321 47.64313,4.27975 15.19985,1.32466 30.47929,2.33118 45.73723,2.37791 14.66587,-0.0645 29.33768,-0.15086 43.98939,-0.86473 13.91187,-0.76602 27.76669,-2.26801 41.68384,-2.8478 10.67859,-0.39861 21.40593,-1.10209 31.99112,0.83732 8.51727,0.98567 17.1142,1.20421 25.60004,2.52491 0,0 -4.61843,3.25637 -4.61843,3.25637 z" />
    <path
       style="fill:#000000;fill-opacity:1;fill-rule:nonzero;stroke:#000000;stroke-width:5;stroke-linecap:round;stroke-linejoin:round;stroke-miterlimit:4;stroke-opacity:1;stroke-dasharray:none;stroke-dashoffset:24.6"
       id="path2945"
       d="m 338.04446,610.13258 c -5.85627,5.64103 -13.25648,9.13491 -20.21196,13.1803 -0.76991,0.44779 1.54613,-0.88468 2.31919,-1.32702 -4.02181,2.24376 -4.69694,3.26564 -1.98719,6.82956 3.74216,3.54719 7.97871,6.49311 12.40829,9.10788 3.50235,1.64953 1.78371,0.89791 5.14842,2.27194 0,0 -4.69352,3.13635 -4.69352,3.13635 l 0,0 c -3.38287,-1.41809 -1.65211,-0.64235 -5.18413,-2.34533 -4.47414,-2.67233 -8.79373,-5.64216 -12.55299,-9.27354 -2.77456,-3.63728 -2.814,-5.32495 1.5977,-7.70448 10.84169,-6.27354 8.58923,-4.19885 17.93535,-11.71311 0,0 5.22084,-2.16255 5.22084,-2.16255 z" />
    <path
       style="fill:#000000;fill-opacity:1;fill-rule:nonzero;stroke:#000000;stroke-width:5;stroke-linecap:round;stroke-linejoin:round;stroke-miterlimit:4;stroke-opacity:1;stroke-dasharray:none;stroke-dashoffset:24.6"
       id="path2947"
       d="m 76.107052,664.98692 c 8.960397,0.16758 17.867429,0.12431 26.781458,-0.82022 7.13216,-1.16556 14.42218,-1.0645 21.541,-2.22305 5.0737,-1.05117 10.16919,-1.91045 15.32762,-2.39381 3.09541,-0.24096 6.20041,-0.29368 9.30374,-0.3126 0.92987,0.001 1.85973,0.004 2.78959,0.008 0,0 -4.60768,3.3443 -4.60768,3.3443 l 0,0 c -0.9276,-0.005 -1.85522,-0.0108 -2.78284,-0.006 -3.08578,0.0136 -6.17339,0.077 -9.2498,0.3361 -5.1431,0.49703 -10.21794,1.40441 -15.28597,2.40417 -7.13087,1.04943 -14.39319,1.07192 -21.527685,2.17806 -8.941302,0.91286 -17.878589,0.89863 -26.861705,0.80684 0,0 4.572272,-3.32195 4.572272,-3.32195 z" />
    <path
       style="fill:#000000;fill-opacity:1;fill-rule:nonzero;stroke:#000000;stroke-width:5;stroke-linecap:round;stroke-linejoin:round;stroke-miterlimit:4;stroke-opacity:1;stroke-dasharray:none;stroke-dashoffset:24.6"
       id="path2949"
       d="m 144.41233,640.40495 c 5.24305,2.71427 10.86978,4.51439 15.74129,7.90698 2.48129,2.40055 1.30219,4.99423 -0.57058,7.35388 -3.03738,3.4655 -6.48036,6.60408 -9.92823,9.66922 -2.9475,3.29377 -6.28684,6.126 -9.92565,8.61494 0,0 -5.26101,2.06185 -5.26101,2.06185 l 0,0 c 3.66573,-2.43964 7.07654,-5.19156 9.95833,-8.54805 3.44722,-3.04355 6.87457,-6.17215 9.93718,-9.58672 1.78842,-1.95654 3.30315,-4.35311 1.01275,-6.51986 -4.84711,-3.37291 -10.46934,-5.14785 -15.68758,-7.84434 0,0 4.7235,-3.1079 4.7235,-3.1079 z" />
    <path
       style="fill:#000000;fill-opacity:1;fill-rule:nonzero;stroke:#000000;stroke-width:5;stroke-linecap:round;stroke-linejoin:round;stroke-miterlimit:4;stroke-opacity:1;stroke-dasharray:none;stroke-dashoffset:24.6"
       id="path2951"
       d="m 266.77414,557.25414 c -7.92087,1.38908 -15.63929,1.73817 -22.8743,-2.12721 -5.92503,-5.74633 -6.19741,-14.65345 -6.05919,-22.42344 0.23112,-9.12377 2.15049,-18.04025 3.79127,-26.97887 0.68917,-3.64346 1.20081,-7.32092 1.51003,-11.01608 0.0121,-0.1752 0.0242,-0.3504 0.0363,-0.52559 0,0 5.09723,-2.5519 5.09723,-2.5519 l 0,0 c -0.013,0.17885 -0.026,0.35769 -0.0389,0.53653 -0.32952,3.72167 -0.84363,7.42873 -1.55143,11.09742 -1.65528,8.916 -3.62479,17.80361 -3.85688,26.90999 -0.17406,7.52349 -0.001,16.32007 5.77982,21.86777 7.19875,3.72103 14.87952,3.20661 22.69021,1.82527 0,0 -4.52417,3.38611 -4.52417,3.38611 z" />
    <path
       style="fill:#000000;fill-opacity:1;fill-rule:nonzero;stroke:#000000;stroke-width:5;stroke-linecap:round;stroke-linejoin:round;stroke-miterlimit:4;stroke-opacity:1;stroke-dasharray:none;stroke-dashoffset:24.6"
       id="path2953"
       d="m 232.85592,527.086 c 7.27989,-1.93158 14.40069,-4.38467 21.74451,-6.07659 5.22799,-0.67913 10.2834,-2.07371 15.33815,-3.5252 1.26455,-0.13298 3.23106,-1.74704 3.98055,-0.46636 0.0371,0.17416 0.0741,0.34831 0.11115,0.52246 0,0 -5.03929,2.66898 -5.03929,2.66898 l 0,0 c -0.0105,-0.1235 -0.021,-0.24699 -0.0314,-0.37049 -0.76993,0.32182 -2.47107,0.82967 -3.51128,1.10206 -5.05053,1.42559 -10.11122,2.74493 -15.31746,3.47497 -7.33657,1.72996 -14.47835,4.14455 -21.74272,6.1412 0,0 4.46782,-3.47103 4.46782,-3.47103 z" />
    <path
       style="fill:#000000;fill-opacity:1;fill-rule:nonzero;stroke:#000000;stroke-width:5;stroke-linecap:round;stroke-linejoin:round;stroke-miterlimit:4;stroke-opacity:1;stroke-dasharray:none;stroke-dashoffset:24.6"
       id="path2955"
       d="m 301.40115,549.57093 c 3.94645,-1.57995 10.37168,-6.33647 14.59997,-3.47979 1.05015,4.1935 -3.32039,8.05913 -5.76801,11.07979 -1.20809,2.25871 -4.97362,5.37747 -3.50987,8.12341 2.02471,2.18655 5.40571,2.23139 8.19713,2.46231 2.22071,0.1183 4.44606,0.15451 6.66939,0.10695 2.51837,-0.0623 3.40629,-1.23893 -4.95925,2.49215 -1.38473,-0.92809 -2.77603,-1.84631 -4.16696,-2.76505 0,0 4.77738,-3.06077 4.77738,-3.06077 l 0,0 c 1.38895,0.92343 2.77754,1.84744 4.17335,2.76049 -3.6455,3.93408 -1.95619,3.91147 -4.432,3.93062 -2.22778,0.015 -4.45697,-0.0269 -6.68052,-0.17111 -2.98751,-0.28534 -6.45241,-0.46333 -8.51015,-2.93009 -1.69994,-3.17995 1.68199,-6.06697 3.245,-8.73408 2.29654,-2.80654 6.3343,-6.40318 6.19029,-10.21408 -3.84882,-2.10732 -10.71269,2.43033 -14.24118,3.93118 0,0 4.41543,-3.53193 4.41543,-3.53193 z" />
    <path
       style="fill:#000000;fill-opacity:1;fill-rule:nonzero;stroke:#000000;stroke-width:5;stroke-linecap:round;stroke-linejoin:round;stroke-miterlimit:4;stroke-opacity:1;stroke-dasharray:none;stroke-dashoffset:24.6"
       id="path2957"
       d="m 152.85837,563.35265 c -6.89408,2.45576 -13.55677,3.39658 -20.22715,0.0324 -5.58174,-4.11761 -5.95034,-10.92714 -6.45021,-17.30952 -0.20104,-8.09279 -0.62475,-16.23783 0.12463,-24.30945 0.82901,-5.91644 1.76689,-11.81567 2.26643,-17.7715 0.16356,-2.35921 0.30049,-4.72193 0.33341,-7.08705 1.03196,-2.57943 4.92575,-3.67162 7.06,-2.04913 0,0 -4.80691,3.04727 -4.80691,3.04727 l 0,0 c -2.57195,-1.81384 5.48317,-3.53802 2.83301,-3.57879 -0.0475,2.38437 -0.20196,4.76552 -0.36445,7.14426 -0.48485,5.96608 -1.43556,11.87316 -2.29388,17.79426 -0.81527,8.03687 -0.34742,16.15856 -0.16721,24.22165 0.467,6.16353 0.72062,12.85973 6.17131,16.79764 6.62266,3.18503 13.23677,2.02553 19.98883,-0.40303 0,0 -4.46781,3.47103 -4.46781,3.47103 z" />
    <path
       style="fill:#000000;fill-opacity:1;fill-rule:nonzero;stroke:#000000;stroke-width:5;stroke-linecap:round;stroke-linejoin:round;stroke-miterlimit:4;stroke-opacity:1;stroke-dasharray:none;stroke-dashoffset:24.6"
       id="path2959"
       d="m 118.96419,544.98692 c 7.19779,0.45976 14.15054,-0.43548 20.99585,-2.59757 0.80026,-0.28024 1.60052,-0.56049 2.40078,-0.84074 0,0 -4.45616,3.46984 -4.45616,3.46984 l 0,0 c -0.80052,0.27296 -1.60103,0.54592 -2.40155,0.81889 -6.88821,2.10578 -13.90233,2.84806 -21.11119,2.47153 0,0 4.57227,-3.32195 4.57227,-3.32195 z" />
    <path
       style="fill:#000000;fill-opacity:1;fill-rule:nonzero;stroke:#000000;stroke-width:5;stroke-linecap:round;stroke-linejoin:round;stroke-miterlimit:4;stroke-opacity:1;stroke-dasharray:none;stroke-dashoffset:24.6"
       id="path2961"
       d="m 172.36637,546.90561 c 3.69505,4.82773 3.94526,10.47942 3.1811,16.25762 -0.63771,2.54063 -0.6974,4.24884 2.08376,4.6746 1.84628,-0.4365 4.79207,-2.5215 6.1259,-0.39027 0.13932,2.72174 -2.56994,5.14816 -4.47176,6.79756 -5.56728,4.34572 -7.9142,5.4099 -13.93927,4.0837 0,0 4.65647,-3.23598 4.65647,-3.23598 l 0,0 c 1.51704,0.31245 3.21179,0.80809 4.77549,0.49151 1.47015,-0.29765 4.9265,-2.61097 -2.05372,1.63521 -0.44387,0.27002 0.86838,-0.57067 1.30257,-0.856 1.9033,-1.48137 4.19891,-3.64829 4.80278,-6.05468 -0.8686,-1.50614 -4.51633,1.04733 -5.86451,0.77829 -2.88667,-0.71841 -3.29153,-2.65792 -2.49163,-5.42687 0.83181,-5.63232 0.69897,-11.14816 -2.96296,-15.85248 0,0 4.85578,-2.90221 4.85578,-2.90221 z" />
    <path
       style="fill:#000000;fill-opacity:1;fill-rule:nonzero;stroke:#000000;stroke-width:5;stroke-linecap:round;stroke-linejoin:round;stroke-miterlimit:4;stroke-opacity:1;stroke-dasharray:none;stroke-dashoffset:24.6"
       id="path2963"
       d="m 228.87571,718.76236 c 2.67548,7.83069 4.55534,15.88205 6.78539,23.83776 1.69654,6.0623 2.82518,12.38032 6.50213,17.6078 2.70239,4.27558 7.04338,6.6497 11.63516,8.4283 6.13671,1.8573 12.63747,2.18231 18.99479,1.7096 8.47644,-1.22219 16.9197,-2.9203 25.33176,-4.58566 9.16565,-2.25042 18.46616,-3.83595 27.69814,-5.76144 8.66249,-1.98738 17.49536,-2.82127 26.34978,-3.29211 9.28112,0.0695 18.46505,-1.266 27.69381,-2.04965 10.2509,-0.88146 20.47749,-1.10448 30.72365,-0.21538 8.77097,0.64453 17.51516,1.87202 26.07539,3.90159 6.96574,1.1817 13.62366,3.54699 20.46338,5.2266 3.96117,1.10684 6.40333,3.67441 7.82973,7.40277 -0.32497,1.19881 2.42032,-0.42948 2.32959,-0.38188 -7.08373,3.71593 -2.61545,1.13536 -0.90508,-0.4089 2.95879,-3.73512 6.60209,-6.80841 10.31012,-9.76531 5.73202,-3.60771 11.52053,-7.23658 18.15108,-8.82891 4.17785,-0.81393 8.43667,-0.90065 12.67755,-0.94219 4.10234,1.02048 8.3117,1.66844 12.38841,2.77881 4.94817,1.257 9.58792,3.2564 14.55508,4.46023 6.01497,2.01456 12.26769,3.1658 18.43961,4.59235 8.25145,1.56627 16.26103,4.09997 24.48424,5.78875 10.31547,2.05532 20.46207,4.81063 30.67109,7.31867 11.31408,3.17325 22.87333,5.42503 34.48082,7.20973 13.44765,2.17861 27.04568,1.09761 40.56576,0.4621 13.34841,-1.05558 26.60479,-3.04431 39.59378,-6.29297 11.35158,-2.43217 22.18604,-6.545 32.36949,-12.07048 -0.19758,-0.058 -0.736,-0.026 -0.59274,-0.17394 1.14654,-1.18366 2.59577,-2.03604 3.81125,-3.1488 3.70139,-3.38855 6.63059,-7.34342 9.58232,-11.36848 0,0 5.13189,-2.21918 5.13189,-2.21918 l 0,0 c -6.15276,8.45447 -12.67634,15.63383 -22.27771,20.40742 -10.22369,5.45577 -21.07382,9.51494 -32.42834,11.93954 -13.01337,3.19818 -26.28458,5.1906 -39.64964,6.19908 -13.54914,0.63334 -27.17436,1.67258 -40.64673,-0.54064 -11.62132,-1.80966 -23.19421,-4.06364 -34.52674,-7.23731 -10.20454,-2.51792 -20.35587,-5.24766 -30.67117,-7.2931 -8.22754,-1.7114 -16.25885,-4.20956 -24.51918,-5.78056 -6.1786,-1.43089 -12.43341,-2.58858 -18.46269,-4.58579 -4.95534,-1.23556 -9.61183,-3.23354 -14.56615,-4.46413 -4.06015,-1.03575 -8.20858,-1.81603 -12.31042,-2.64727 -4.21483,0.056 -8.4513,0.15812 -12.59078,1.04305 -2.05699,0.53978 -2.393,0.55542 -4.36428,1.36204 -0.73746,0.30177 -2.50292,1.71562 -2.17633,0.98881 0.39839,-0.88657 1.85961,-0.81252 2.44558,-1.588 1.00613,-1.33153 -5.15943,3.71525 -4.31955,2.53155 -3.73583,2.88984 -7.4327,5.94568 -10.31379,9.72013 -2.89246,2.69526 -7.96012,8.3867 -11.63311,5.6952 -1.32422,-3.60067 -3.69928,-5.94632 -7.50571,-6.95946 -6.81958,-1.72354 -13.47971,-4.04282 -20.43384,-5.23739 -8.54779,-1.97833 -17.25871,-3.22183 -26.00901,-3.84925 -10.22623,-0.86391 -20.43944,-0.58946 -30.66582,0.29156 -9.2349,0.8041 -18.43094,2.09291 -27.71971,2.04674 -8.83759,0.48746 -17.64759,1.36842 -26.29253,3.35352 -9.24324,1.88148 -18.5214,3.56255 -27.70024,5.75659 -8.43452,1.64499 -16.88153,3.41997 -25.39291,4.54281 -6.4258,0.391 -12.9893,0.0851 -19.16229,-1.89688 -4.66754,-1.87456 -9.06305,-4.33373 -11.8121,-8.70698 -3.68743,-5.30322 -4.88822,-11.64577 -6.5631,-17.79119 -2.22684,-7.94403 -4.05355,-15.998 -6.81487,-23.79049 0,0 4.95579,-2.72938 4.95579,-2.72938 z" />
    <path
       style="fill:#000000;fill-opacity:1;fill-rule:nonzero;stroke:#000000;stroke-width:5;stroke-linecap:round;stroke-linejoin:round;stroke-miterlimit:4;stroke-opacity:1;stroke-dasharray:none;stroke-dashoffset:24.6"
       id="path2965"
       d="m 385.05087,790.65048 c -0.96048,6.20751 -1.65619,12.45064 -2.1982,18.70728 -0.0436,0.54918 -0.0873,1.09836 -0.13093,1.64754 0,0 -5.07385,2.53275 -5.07385,2.53275 l 0,0 c 0.0474,-0.55241 0.0949,-1.10483 0.14233,-1.65725 0.57317,-6.26303 1.27101,-12.51376 2.18967,-18.73652 0,0 5.07098,-2.4938 5.07098,-2.4938 z" />
    <path
       style="fill:#000000;fill-opacity:1;fill-rule:nonzero;stroke:#000000;stroke-width:5;stroke-linecap:round;stroke-linejoin:round;stroke-miterlimit:4;stroke-opacity:1;stroke-dasharray:none;stroke-dashoffset:24.6"
       id="path2967"
       d="m 367.5587,813.9329 c 6.20999,0.95797 12.45654,1.64129 18.7154,2.18016 1.64067,0.1274 3.28453,0.20054 4.92854,0.26614 0,0 -4.61046,3.31875 -4.61046,3.31875 l 0,0 c -1.64237,-0.0793 -3.28461,-0.16471 -4.92351,-0.30097 -6.26078,-0.57645 -12.50811,-1.28641 -18.7284,-2.20771 0,0 4.61843,-3.25637 4.61843,-3.25637 z" />
    <path
       style="fill:#000000;fill-opacity:1;fill-rule:nonzero;stroke:#000000;stroke-width:5;stroke-linecap:round;stroke-linejoin:round;stroke-miterlimit:4;stroke-opacity:1;stroke-dasharray:none;stroke-dashoffset:24.6"
       id="path2969"
       d="m 356.56277,846.31015 c 7.56659,-4.08853 15.09318,-9.62548 23.75248,-11.16851 3.47148,-0.47483 5.01651,1.25451 4.76969,4.63385 -0.99519,5.0397 -3.7994,9.43813 -6.29292,13.84452 -2.48865,4.73313 -5.68123,9.20472 -7.81114,14.11533 -0.57548,1.86854 -0.26207,1.59446 0.96,0.86753 0.42581,-0.25328 1.7542,-0.91915 1.33107,-0.66142 -1.01809,0.62009 -2.0791,1.16679 -3.11865,1.75019 6.46127,-3.6999 12.92935,-7.37951 19.67017,-10.54686 3.47373,-1.45663 7.19016,-2.23465 10.91375,-2.71757 1.42502,-0.35093 2.09231,0.31268 1.62472,1.75351 -1.84376,2.11767 -0.23079,0.4253 -6.43793,2.78305 0,0 4.72036,-3.1702 4.72036,-3.1702 l 0,0 c -4.15621,3.17965 -5.33505,4.05752 -3.49784,2.68481 1.17568,-0.8941 -0.31825,-0.83646 -0.96678,-0.64603 -3.68482,0.51275 -7.35474,1.31579 -10.77064,2.82725 -3.52361,1.67202 -6.97842,3.46924 -10.40071,5.33953 -0.78981,0.43163 -3.04406,1.90629 -2.34353,1.34118 0.84137,-0.67872 1.84701,-1.12375 2.77051,-1.68562 -0.0842,0.0489 -11.12915,8.59218 -9.60241,2.45258 1.99326,-4.9786 5.39177,-9.41361 7.81532,-14.19075 2.4496,-4.36325 5.26321,-8.66641 6.34997,-13.62045 0.49962,-3.17511 -1.14974,-4.23694 -4.19203,-3.74396 -6.51283,1.3812 -10.86881,4.11293 -13.98212,5.69942 0,0 -5.26134,2.05862 -5.26134,2.05862 z" />
    <path
       style="fill:#000000;fill-opacity:1;fill-rule:nonzero;stroke:#000000;stroke-width:5;stroke-linecap:round;stroke-linejoin:round;stroke-miterlimit:4;stroke-opacity:1;stroke-dasharray:none;stroke-dashoffset:24.6"
       id="path2971"
       d="m 427.90801,807.79334 c -0.90453,8.60935 -1.9703,17.16033 -3.49916,25.68376 -0.92232,4.84976 -1.14391,9.75798 -2.58648,14.48651 -1.1888,3.15816 -1.70924,6.45384 -1.98278,9.79747 -0.18356,3.01524 -0.20286,6.0379 -0.18663,9.05778 0.35273,1.44553 1.20521,2.67996 2.25762,3.70769 -0.15039,0.0719 0.55091,0.22816 0.40033,0.29964 -1.41947,0.67382 -2.82862,1.37597 -4.28933,1.95496 -0.3582,0.14198 0.63065,-0.44478 0.96454,-0.63709 1.93823,-1.11633 3.89976,-2.19172 5.84964,-3.28758 3.07565,-0.91581 6.32515,-0.92889 9.50723,-1.0116 3.98352,-0.12189 7.85797,-1.38804 11.76911,-2.13588 2.9817,-0.46014 6.00164,-0.62725 9.01408,-0.73865 3.03173,0.009 3.17696,-0.77084 -3.88581,2.4655 0,0 4.85731,-2.9629 4.85731,-2.9629 l 0,0 c -4.10495,3.83928 -2.47604,3.81488 -5.56391,3.8602 -2.99038,0.11243 -5.98878,0.28586 -8.94177,0.79323 -3.92287,0.76178 -7.81087,2.02057 -11.8257,2.06308 -3.14142,0.0925 -6.39116,0.10337 -9.37064,1.21837 10.41654,-6.18161 -2.61164,2.31832 -3.34975,1.0975 -1.12476,-1.165 -2.02923,-2.52733 -2.45911,-4.10482 0.0132,-3.03571 8e-5,-6.07344 0.17961,-9.10533 0.26424,-3.37749 0.70961,-6.72574 1.93501,-9.91228 1.46785,-4.71676 1.78311,-9.58861 2.65918,-14.44693 1.56762,-8.5063 2.67333,-17.03745 3.47643,-25.64883 0,0 5.07098,-2.4938 5.07098,-2.4938 z" />
    <path
       style="fill:#000000;fill-opacity:1;fill-rule:nonzero;stroke:#000000;stroke-width:5;stroke-linecap:round;stroke-linejoin:round;stroke-miterlimit:4;stroke-opacity:1;stroke-dasharray:none;stroke-dashoffset:24.6"
       id="path2973"
       d="m 485.37497,827.75735 c -0.0278,6.90417 -0.0219,13.8085 -0.002,20.71269 0.009,2.38727 0.004,1.28381 0.0136,3.31039 0,0 -5.05908,2.57773 -5.05908,2.57773 l 0,0 c 0.009,-2.03548 0.005,-0.92741 0.0136,-3.32421 0.0199,-6.90357 0.026,-13.80727 -0.002,-20.71081 0,0 5.03565,-2.56579 5.03565,-2.56579 z" />
    <path
       style="fill:#000000;fill-opacity:1;fill-rule:nonzero;stroke:#000000;stroke-width:5;stroke-linecap:round;stroke-linejoin:round;stroke-miterlimit:4;stroke-opacity:1;stroke-dasharray:none;stroke-dashoffset:24.6"
       id="path2975"
       d="m 461.42734,844.22886 c 7.93624,-2.15696 16.07223,-3.32893 24.0818,-5.16592 5.79816,-1.27179 11.60949,-2.6074 17.52872,-1.65426 0.55588,0.13418 1.11177,0.26836 1.66766,0.40254 0,0 -4.66266,3.22604 -4.66266,3.22604 l 0,0 c -0.5442,-0.12407 -1.08839,-0.24813 -1.63259,-0.3722 -5.86443,-0.84189 -11.63626,0.57027 -17.36662,1.79796 -8.01682,1.82208 -16.17638,2.95 -24.08412,5.23686 0,0 4.46781,-3.47102 4.46781,-3.47102 z" />
    <path
       style="fill:#000000;fill-opacity:1;fill-rule:nonzero;stroke:#000000;stroke-width:5;stroke-linecap:round;stroke-linejoin:round;stroke-miterlimit:4;stroke-opacity:1;stroke-dasharray:none;stroke-dashoffset:24.6"
       id="path2977"
       d="m 523.16358,819.11695 c 2.90155,8.28363 6.0224,16.45309 8.43119,24.89986 2.05533,5.07131 3.14366,10.47891 5.00232,15.60363 0.23496,0.53874 0.98256,2.31801 1.33467,2.90172 0.12973,0.21508 0.24692,0.51098 0.49058,0.57194 0.14543,0.0364 0.35291,-0.45136 0.2137,-0.39573 -4.90278,1.95901 -4.84416,3.87653 -4.31317,0.75981 0.80949,-6.58485 1.6224,-13.20777 2.74231,-19.75315 1.01168,-6.35545 2.19221,-12.58096 4.20623,-18.69168 0.58394,-1.46971 0.86568,-3.06332 1.52419,-4.50345 0,0 5.22227,-2.2927 5.22227,-2.2927 l 0,0 c -1.0314,1.11463 -0.86331,3.11453 -1.62807,4.3909 -2.02411,6.09905 -3.32703,12.27239 -4.28484,18.63709 -1.14545,6.51998 -1.92747,13.14189 -2.68794,19.7077 -0.75325,6.44604 -6.78343,7.123 -7.77088,1.41242 -1.88339,-5.13191 -2.89575,-10.58457 -4.9774,-15.66519 -2.36825,-8.45701 -5.48216,-16.62638 -8.46526,-24.87945 0,0 4.9601,-2.70372 4.9601,-2.70372 z" />
    <path
       style="fill:#000000;fill-opacity:1;fill-rule:nonzero;stroke:#000000;stroke-width:5;stroke-linecap:round;stroke-linejoin:round;stroke-miterlimit:4;stroke-opacity:1;stroke-dasharray:none;stroke-dashoffset:24.6"
       id="path2979"
       d="m 603.917,868.68272 c -7.81118,0.6348 -15.4299,2.44591 -23.10661,3.91883 -3.59555,0.59533 -7.20742,1.11496 -10.83877,1.43607 -2.19374,-0.12953 -0.75155,-4.27341 -0.42121,-5.38743 1.28466,-5.82174 3.32206,-11.44563 5.67798,-16.91153 2.45864,-4.65263 2.92192,-10.34956 6.2529,-14.51194 7.05719,-5.79707 7.84284,-3.81901 11.70048,1.63217 2.25819,4.45318 4.49521,8.88486 7.07608,13.16396 2.20089,3.59722 4.37417,7.21004 6.72801,10.71488 2.63368,3.99701 4.30725,2.49495 -2.53272,4.9709 0,0 5.02572,-2.66329 5.02572,-2.66329 l 0,0 c -5.5515,4.47441 -4.32531,4.84926 -7.3783,0.5575 -2.36103,-3.51021 -4.52589,-7.13991 -6.72597,-10.74776 -2.57882,-4.26333 -4.80892,-8.68366 -7.06821,-13.1197 -0.98743,-1.38263 -2.09916,-3.13719 -3.42268,-4.2365 -0.29146,-0.24208 -1.27635,-0.22863 -1.01795,-0.50572 1.08876,-1.16752 2.66596,-1.75745 3.97738,-2.66778 0.3657,-0.25386 -0.7593,0.46497 -1.13895,0.69745 -3.67517,3.82526 -3.83491,9.83797 -6.36084,14.36887 -2.38317,5.42147 -4.44589,11.02691 -5.66764,16.832 -0.23558,0.78049 -1.81573,4.41986 -0.12628,4.4252 3.60185,-0.32533 7.18693,-0.82631 10.75031,-1.44121 7.68628,-1.48173 15.3293,-3.20672 23.14144,-3.91109 0,0 -4.52417,3.38612 -4.52417,3.38612 z" />
    <path
       style="fill:#000000;fill-opacity:1;fill-rule:nonzero;stroke:#000000;stroke-width:5;stroke-linecap:round;stroke-linejoin:round;stroke-miterlimit:4;stroke-opacity:1;stroke-dasharray:none;stroke-dashoffset:24.6"
       id="path2981"
       d="m 649.60723,874.02316 c -7.1704,0.40397 -13.61247,-1.48261 -18.83349,-6.42199 -4.49399,-6.10752 -3.4884,-13.4922 -3.02311,-20.6056 1.04652,-6.76862 2.48259,-13.46335 3.37461,-20.25734 0.50065,-3.73368 0.61708,-7.49905 0.6561,-11.26075 0.008,-2.07054 -0.001,-4.14113 -0.0214,-6.21158 -0.0243,-2.42314 -0.37261,-2.57413 5.05927,-2.4936 1.00828,0.0149 -0.46828,1.96383 -0.77873,2.92324 -1.08791,3.60089 -2.86323,6.93617 -4.72514,10.18498 -0.97067,1.73154 -1.92029,3.47518 -2.83106,5.23904 1.1337,-0.42648 2.42088,0.3533 3.53285,0.83071 3.3115,1.26168 6.82933,1.50714 10.32928,1.73071 4.10664,-0.0277 7.81657,1.9974 11.91885,1.90873 2.43886,-0.26231 4.85825,-0.66989 7.27381,-1.08989 0,0 -4.53291,3.41196 -4.53291,3.41196 l 0,0 c -2.4306,0.40757 -4.86469,0.83 -7.32572,1.00574 -4.07998,-0.12272 -7.83461,-1.95931 -11.93767,-1.93868 -3.54955,-0.24945 -7.11273,-0.54597 -10.4541,-1.87588 -1.34661,-0.56881 -3.06471,-0.52023 -4.00499,-1.63912 0.92065,-1.77616 1.88687,-3.52839 2.85902,-5.27672 1.83116,-3.23392 3.70193,-6.49017 4.75982,-10.08055 0.31784,-0.90707 0.15186,-2.09608 0.85183,-2.75476 5.66936,-5.33487 5.04543,-5.52538 5.07977,-2.67545 0.007,2.07744 0.023,4.15493 0.002,6.23234 -0.042,3.78547 -0.13043,7.5763 -0.64943,11.3329 -0.88488,6.79129 -2.31896,13.48271 -3.41916,20.2388 -0.4532,6.93021 -1.57251,14.19608 2.80153,20.16143 5.18161,4.83102 11.57356,6.48057 18.6103,6.05938 0,0 -4.57228,3.32195 -4.57228,3.32195 z" />
    <path
       style="fill:#000000;fill-opacity:1;fill-rule:nonzero;stroke:#000000;stroke-width:5;stroke-linecap:round;stroke-linejoin:round;stroke-miterlimit:4;stroke-opacity:1;stroke-dasharray:none;stroke-dashoffset:24.6"
       id="path2983"
       d="m 685.37497,879.18592 c -0.81262,7.62777 -1.55109,15.26352 -2.32727,22.89538 -0.0616,0.54892 -0.12321,1.09783 -0.18481,1.64675 0,0 -5.08289,2.51442 -5.08289,2.51442 l 0,0 c 0.0693,-0.55028 0.1386,-1.10056 0.2079,-1.65083 0.85849,-7.6048 1.53345,-15.23099 2.35142,-22.83993 0,0 5.03565,-2.56579 5.03565,-2.56579 z" />
    <path
       style="fill:#000000;fill-opacity:1;fill-rule:nonzero;stroke:#000000;stroke-width:5;stroke-linecap:round;stroke-linejoin:round;stroke-miterlimit:4;stroke-opacity:1;stroke-dasharray:none;stroke-dashoffset:24.6"
       id="path2987"
       d="m 1036.4452,662.13241 c 16.7631,0.16117 33.5276,-0.8579 50.2455,-2.01305 23.8992,-1.93454 47.8627,-2.75448 71.8277,-3.27792 18.1945,-0.0114 36.4283,-0.97287 54.6105,-0.0729 7.1276,0.50415 14.2317,1.30429 21.3199,2.19809 4.5634,-0.6231 -2.1639,1.06361 -2.4307,0.97718 -0.7587,-0.24584 0.5135,-1.51152 0.7166,-2.28276 0.4647,-1.765 0.7104,-3.38132 1.0239,-5.17237 0,0 5.0748,-2.47704 5.0748,-2.47704 l 0,0 c -0.8197,4.7838 -2.0336,13.1779 -9.017,12.23049 -7.0384,-0.93137 -14.0972,-1.74176 -21.1804,-2.24286 -18.1417,-0.88296 -36.333,0.009 -54.4865,0.0309 -23.9645,0.51594 -47.926,1.35673 -71.8233,3.30639 -16.7871,1.15933 -33.6135,2.18622 -50.446,2.11253 0,0 4.565,-3.31669 4.565,-3.31669 z" />
    <path
       style="fill:#000000;fill-opacity:1;fill-rule:nonzero;stroke:#000000;stroke-width:5;stroke-linecap:round;stroke-linejoin:round;stroke-miterlimit:4;stroke-opacity:1;stroke-dasharray:none;stroke-dashoffset:24.6"
       id="path2989"
       d="m 1235.2235,606.90561 c 5.6174,6.3408 12.1473,11.72453 18.5929,17.18122 7.2881,5.78034 15.393,10.48515 23.3821,15.22921 4.4615,3.25452 10.2445,6.33874 12.2043,11.8189 -0.339,6.19473 -5.9069,10.54881 -10.3707,14.14847 -9.2161,6.48817 -18.6294,12.68704 -27.9614,19.00515 -8.2997,6.14059 -16.9009,11.78145 -26.0527,16.57577 -2.0629,0.52167 -1.1016,0.42111 -2.8671,0.43167 0,0 4.5826,-3.36311 4.5826,-3.36311 l 0,0 c 1.652,-0.15384 0.748,0.009 2.6879,-0.60628 0.737,-0.39078 1.3783,-1.12498 2.2112,-1.17234 0.7488,-0.0426 -2.5669,1.55224 -1.9299,1.15635 5.5424,-3.44504 10.911,-7.14633 16.1877,-10.99067 9.3147,-6.31619 18.7089,-12.51448 27.9419,-18.95087 4.3865,-3.4557 9.7774,-7.59082 10.6098,-13.4955 -1.7741,-5.36772 -7.6946,-8.32702 -11.9461,-11.51307 -7.9965,-4.7862 -16.1331,-9.48479 -23.422,-15.31322 -6.4763,-5.48383 -13.0269,-10.90172 -18.7063,-17.23947 0,0 4.8558,-2.90221 4.8558,-2.90221 z" />
    <path
       style="fill:#000000;fill-opacity:1;fill-rule:nonzero;stroke:#000000;stroke-width:5;stroke-linecap:round;stroke-linejoin:round;stroke-miterlimit:4;stroke-opacity:1;stroke-dasharray:none;stroke-dashoffset:24.6"
       id="path2991"
       d="m 1331.7329,630.19093 c 3.494,11.27252 5.2128,22.88417 6.4291,34.58652 1.0896,12.73844 1.3425,25.52593 1.503,38.30337 0.2247,2.1075 -0.1098,4.23692 0.048,6.34664 0.046,0.62016 0.1537,1.23909 0.3229,1.83751 0.086,0.30236 0.1802,0.6512 0.4335,0.83708 0.1138,0.0835 0.429,-0.35513 0.2993,-0.29947 -1.4081,0.60432 -2.7732,1.3042 -4.1599,1.95631 5.0756,-7.79467 7.2118,-17.09574 10.5801,-25.70084 5.1762,-12.81048 11.4171,-25.1335 17.6352,-37.45575 2.7343,-5.26777 5.2817,-10.61396 7.5415,-16.10075 0,0 5.1107,-2.35703 5.1107,-2.35703 l 0,0 c -2.2753,5.5101 -4.8297,10.88084 -7.5863,16.16845 -6.2326,12.30944 -12.5056,24.61086 -17.6795,37.41834 -3.3833,8.62941 -5.5463,17.85896 -10.359,25.8294 -1.8935,1.2048 -3.6983,2.56178 -5.6805,3.61438 -2.0099,1.06736 -1.4066,-9.26697 -1.4845,-9.55129 -0.093,-12.77177 -0.3372,-25.55459 -1.4218,-38.28694 -1.2051,-11.65217 -2.9057,-23.22054 -6.4875,-34.41655 0,0 4.9558,-2.72938 4.9558,-2.72938 z" />
  </g>
</svg>
