<?xml version="1.0" encoding="UTF-8" standalone="no"?>
<!-- Created with Inkscape (http://www.inkscape.org/) -->
<svg
   xmlns:dc="http://purl.org/dc/elements/1.1/"
   xmlns:cc="http://creativecommons.org/ns#"
   xmlns:rdf="http://www.w3.org/1999/02/22-rdf-syntax-ns#"
   xmlns:svg="http://www.w3.org/2000/svg"
   xmlns="http://www.w3.org/2000/svg"
   xmlns:sodipodi="http://sodipodi.sourceforge.net/DTD/sodipodi-0.dtd"
   xmlns:inkscape="http://www.inkscape.org/namespaces/inkscape"
   width="1506.174"
   height="835.0946"
   id="svg2873"
   sodipodi:version="0.32"
   inkscape:version="0.46+devel"
   version="1.0"
   sodipodi:docname="c44d3.svg"
   inkscape:output_extension="org.inkscape.output.svg.inkscape">
  <defs
     id="defs2875">
    <inkscape:perspective
       sodipodi:type="inkscape:persp3d"
       inkscape:vp_x="0 : 526.18109 : 1"
       inkscape:vp_y="0 : 1000 : 0"
       inkscape:vp_z="744.09448 : 526.18109 : 1"
       inkscape:persp3d-origin="372.04724 : 350.78739 : 1"
       id="perspective2881" />
  </defs>
  <sodipodi:namedview
     id="base"
     pagecolor="#ffffff"
     bordercolor="#666666"
     borderopacity="1.0"
     inkscape:pageopacity="0.0"
     inkscape:pageshadow="2"
     inkscape:zoom="0.35"
     inkscape:cx="449.13521"
     inkscape:cy="436.905"
     inkscape:document-units="px"
     inkscape:current-layer="layer1"
     showgrid="false"
     inkscape:window-width="1280"
     inkscape:window-height="712"
     inkscape:window-x="-5"
     inkscape:window-y="-3" />
  <metadata
     id="metadata2878">
    <rdf:RDF>
      <cc:Work
         rdf:about="">
        <dc:format>image/svg+xml</dc:format>
        <dc:type
           rdf:resource="http://purl.org/dc/dcmitype/StillImage" />
        <dc:title></dc:title>
      </cc:Work>
    </rdf:RDF>
  </metadata>
  <g
     inkscape:label="Layer 1"
     inkscape:groupmode="layer"
     id="layer1"
     transform="translate(74.135211,-134.17257)">
    <path
       style="fill:#000000;fill-opacity:1;fill-rule:nonzero;stroke:#000000;stroke-width:5;stroke-linecap:round;stroke-linejoin:round;stroke-miterlimit:4;stroke-opacity:1;stroke-dasharray:none;stroke-dashoffset:24.6"
       id="path2919"
       d="m 196.79955,136.67257 c -0.063,14.50832 -0.0686,29.01685 -0.0757,43.52529 -0.93208,21.6374 -1.87157,43.26842 -2.3691,64.92152 -0.34121,25.79438 -0.85229,51.5998 -0.20437,77.39157 0.96808,22.57022 2.52088,45.14947 4.63956,67.64402 1.53297,12.71579 2.14375,25.52536 4.1886,38.17268 0.72415,6.63556 2.64926,13.02204 3.93828,19.54845 0.674,3.46127 1.06523,6.97224 1.31447,10.48773 0.0232,0.48086 0.0515,0.96936 0.0827,1.44701 -1.51008,0.54011 -2.97605,1.22467 -4.53024,1.62033 -0.50333,0.12814 0.70123,-0.76771 1.0794,-1.12373 1.09408,-1.02999 3.20207,-1.35967 4.47317,-0.5583 0.80799,0.50941 -0.79787,1.73574 -1.19681,2.60361 -6.20713,15.72318 -13.52303,30.97836 -20.78076,46.24055 -15.88859,33.26625 -35.99894,64.18182 -56.40539,94.791 -20.04591,30.47033 -43.527024,58.41546 -66.285346,86.84572 -14.979214,18.95582 -30.64358,37.34473 -47.094111,55.03759 -7.9993345,7.41355 -14.8505857,16.85118 -26.9583648,14.60528 0,0 4.6093567,-3.2317 4.6093567,-3.2317 l 0,0 c 7.0345514,1.08361 -1.0924802,0.13817 6.9702202,-0.044 0.1922765,-0.004 -0.5116366,0.56992 -0.3615542,0.44965 5.6697717,-4.54346 5.096691,-4.2592 10.6941901,-9.66831 16.529742,-17.68054 32.235005,-36.09565 47.266485,-55.06665 22.798432,-28.43057 46.331274,-56.368 66.407884,-86.84877 20.37477,-30.55413 40.46913,-61.4073 56.27163,-94.64736 7.19303,-15.21484 14.47126,-30.41672 20.53545,-46.12097 0.39344,-0.86038 0.49006,-1.93417 1.18033,-2.58115 1.75668,-1.64649 3.96474,-2.73281 5.94711,-4.09922 -0.2284,0.27697 -0.77538,1.04847 -1.10068,1.23114 -1.9216,1.07908 -3.92174,2.01189 -5.88261,3.01783 0.0337,-0.21755 0.10064,-0.95297 0.0229,-1.28294 -0.20075,-3.50272 -0.57885,-6.99944 -1.23188,-10.44823 -1.27285,-6.54055 -3.21702,-12.93379 -3.91184,-19.58454 -2.01651,-12.68073 -2.58558,-25.5187 -4.08716,-38.26714 -2.08426,-22.52068 -3.60016,-45.12452 -4.57894,-67.71682 -0.64974,-25.7956 -0.14134,-51.60489 0.1715,-77.40357 0.47223,-21.6383 1.37958,-43.25541 2.30958,-64.87763 -0.007,-14.48274 -0.0126,-28.96557 -0.0756,-43.44819 0,0 5.02767,-2.56173 5.02767,-2.56173 z" />
    <path
       style="fill:#000000;fill-opacity:1;fill-rule:nonzero;stroke:#000000;stroke-width:5;stroke-linecap:round;stroke-linejoin:round;stroke-miterlimit:4;stroke-opacity:1;stroke-dasharray:none;stroke-dashoffset:24.6"
       id="path2921"
       d="m 215.82004,440.02887 c 9.76139,2.72699 19.42267,5.7075 29.35578,7.75374 15.5899,3.70943 31.60748,4.59585 47.55723,5.26249 25.2206,0.46643 50.43195,1.40748 75.6219,2.73829 37.31453,2.23539 74.69409,2.84856 112.06414,3.2917 49.72056,0.43111 99.44366,0.40379 149.16567,0.4179 57.24848,0.004 114.49697,-6.6e-4 171.74545,1.6e-4 62.10636,0.57355 124.19106,-0.75927 186.26608,-2.53753 60.37201,-2.02255 120.70441,-4.97758 181.03961,-7.8558 49.2855,-1.88902 98.5741,-4.10887 147.6055,-9.58067 23.1044,-3.67625 12.1295,-1.73093 32.9429,-5.73158 0,0 -4.2448,3.20777 -4.2448,3.20777 l 0,0 c -20.7445,3.91116 -9.8004,2.00665 -32.8502,5.61104 -48.9867,5.38129 -98.2236,7.54835 -147.4549,9.42985 -60.3182,2.85393 -120.6335,5.79067 -180.98756,7.80615 -62.08725,1.77871 -124.18414,3.10138 -186.30266,2.54686 -57.27318,0.0147 -114.54635,0.038 -171.81953,0.0535 -49.75904,10e-4 -99.51909,0.0445 -149.27697,-0.34427 -37.42027,-0.41676 -74.84974,-1.00975 -112.21627,-3.20812 -25.226,-1.29689 -50.47217,-2.20172 -75.72716,-2.65554 -15.99599,-0.65985 -32.05251,-1.57362 -47.68948,-5.2787 -9.96429,-2.07566 -19.66594,-5.06183 -29.4765,-7.75071 0,0 4.68177,-3.17654 4.68177,-3.17654 z" />
    <path
       style="fill:#000000;fill-opacity:1;fill-rule:nonzero;stroke:#000000;stroke-width:5;stroke-linecap:round;stroke-linejoin:round;stroke-miterlimit:4;stroke-opacity:1;stroke-dasharray:none;stroke-dashoffset:24.6"
       id="path2923"
       d="m 614.91065,150.15676 c 5.56223,11.68895 7.2868,24.34282 8.62392,37.07208 1.82117,24.19111 1.67602,48.4813 1.75397,72.7258 0.44339,29.40201 -0.3032,58.77676 -1.31016,88.15696 -0.44724,20.70636 -2.27917,41.345 -3.48584,62.01365 -0.2639,8.32247 -1.39783,16.67539 -0.0571,24.94106 0.57983,4.19419 2.63724,7.95516 3.92166,11.95431 0.64261,1.93212 0.89656,3.96611 1.04555,5.98906 0.0346,0.43722 0.043,0.87329 0.0143,1.31018 -1.15976,6.61782 -4.88789,13.01533 -7.78397,19.00747 -15.73746,31.56777 -33.69039,61.97169 -51.16467,92.59403 -33.24628,57.30593 -63.04827,116.49909 -93.37068,175.37628 -23.85122,49.08151 -50.8528,95.97417 -79.81923,142.16123 0,0 -4.58786,2.02179 -4.58786,2.02179 l 0,0 c 29.15984,-46.19367 56.16041,-93.0403 80.06059,-142.2227 30.27528,-58.82441 60.00791,-117.97379 93.11053,-175.28226 17.34759,-30.53987 35.17892,-60.86253 50.74585,-92.36575 2.83876,-5.9135 6.4191,-12.24291 7.72253,-18.70784 -0.0124,-0.42414 0.0472,-0.84384 0.0105,-1.27205 -0.10907,-1.98504 -0.34269,-3.98153 -0.95552,-5.88028 -1.26795,-4.03582 -3.34651,-7.81907 -3.93513,-12.04076 -1.36717,-8.32383 -0.20506,-16.72451 0.10762,-25.1065 1.28305,-20.68986 3.17285,-41.35009 3.65195,-62.08181 1.0307,-29.374 1.79091,-58.74217 1.31991,-88.13887 -0.10634,-24.20807 0.005,-48.46113 -1.8516,-72.6135 -1.34751,-12.64759 -3.05747,-25.2357 -8.68069,-36.81386 0,0 4.91358,-2.79772 4.91358,-2.79772 z" />
    <path
       style="fill:#000000;fill-opacity:1;fill-rule:nonzero;stroke:#000000;stroke-width:5;stroke-linecap:round;stroke-linejoin:round;stroke-miterlimit:4;stroke-opacity:1;stroke-dasharray:none;stroke-dashoffset:24.6"
       id="path2925"
       d="m 1304.3915,422.88601 c 10.3493,2.98731 21.1329,3.94922 31.8603,4.0081 13.2031,-0.63077 26.4573,-0.70466 39.6262,-1.88089 3.1687,0.19705 15.8171,-4.20253 17.091,1.60724 0.1545,0.70451 -0.1985,1.42877 -0.2977,2.14316 -8.5278,12.15029 -20.7042,21.52432 -31.9946,30.99742 -19.6864,16.02597 -40.1659,31.08731 -61.4245,44.95956 -11.598,7.39277 -6.0594,3.89177 -16.6087,10.51434 0,0 -5.1105,1.98302 -5.1105,1.98302 l 0,0 c 10.6099,-6.63843 5.0438,-3.13034 16.691,-10.53614 21.2728,-13.82919 41.7448,-28.88252 61.4295,-44.89137 11.2424,-9.42901 23.0351,-18.7766 31.9208,-30.56032 0.1701,-0.57862 0.5919,-1.13829 0.5104,-1.73586 -0.5959,-4.36698 -14.2834,-1.24158 -16.673,-1.17644 -13.1788,1.11598 -26.4338,1.24379 -39.6438,1.82883 -10.7963,-0.10534 -21.6401,-1.08676 -32.0582,-4.08411 0,0 4.6818,-3.17654 4.6818,-3.17654 z" />
    <path
       style="fill:#000000;fill-opacity:1;fill-rule:nonzero;stroke:#000000;stroke-width:5;stroke-linecap:round;stroke-linejoin:round;stroke-miterlimit:4;stroke-opacity:1;stroke-dasharray:none;stroke-dashoffset:24.6"
       id="path2931"
       d="m 1424.0781,481.85186 c -6.3609,9.24554 -12.6099,18.57572 -18.7015,28.00245 -6.8038,9.72955 -14.0637,19.1181 -21.3074,28.51736 -2.0306,2.55043 -4.2804,4.90518 -6.5678,7.22156 0,0 -5.2198,2.1628 -5.2198,2.1628 l 0,0 c 2.3174,-2.29866 4.5946,-4.63878 6.6517,-7.17911 7.2476,-9.40439 14.5452,-18.7708 21.3711,-28.49424 6.0618,-9.41144 12.2973,-18.71477 18.5977,-27.96615 0,0 5.176,-2.26467 5.176,-2.26467 z" />
    <path
       style="fill:#000000;fill-opacity:1;fill-rule:nonzero;stroke:#000000;stroke-width:5;stroke-linecap:round;stroke-linejoin:round;stroke-miterlimit:4;stroke-opacity:1;stroke-dasharray:none;stroke-dashoffset:24.6"
       id="path2933"
       d="m 1383.7949,484.04847 c 5.9477,6.5194 11.0134,13.64847 16.044,20.87605 5.1821,7.26358 10.4839,14.43608 15.5964,21.74848 3.722,5.14761 7.3544,10.35335 11.053,15.51918 0.9906,1.36646 2.0175,2.70575 3.0505,4.04012 0,0 -4.8822,2.90453 -4.8822,2.90453 l 0,0 c -1.0244,-1.34759 -2.0438,-2.699 -3.034,-4.07209 -3.6916,-5.17133 -7.2909,-10.40245 -11.0193,-15.54637 -5.1035,-7.31859 -10.3999,-14.49472 -15.5843,-21.75666 -5.0216,-7.22281 -10.0789,-14.34814 -16.0798,-20.81103 0,0 4.8557,-2.90221 4.8557,-2.90221 z" />
    <path
       style="fill:#000000;fill-opacity:1;fill-rule:nonzero;stroke:#000000;stroke-width:5;stroke-linecap:round;stroke-linejoin:round;stroke-miterlimit:4;stroke-opacity:1;stroke-dasharray:none;stroke-dashoffset:24.6"
       id="path2935"
       d="m 452.46438,899.73744 c -8.66127,-0.23216 -17.35531,0.0995 -25.59585,2.93672 0.43416,1.72059 -6.33094,0.70363 -5.94353,2.8692 0.17273,0.96555 1.87336,-1.48502 2.75049,-1.04595 0.66997,0.33537 -1.05587,1.06973 -1.50497,1.66943 -1.08671,1.45112 -1.14982,2.00423 -1.76457,3.68368 -1.35579,4.17228 0.61491,7.16448 3.522,9.95591 4.6028,3.51304 9.86664,5.95901 14.95351,8.66309 4.91576,2.02852 9.61833,4.21619 13.88704,7.41202 3.4277,3.11354 2.12234,6.35103 -0.46825,9.48218 -6.28593,5.93618 -14.46629,9.8752 -21.95875,14.05573 -6.22339,3.30998 -13.02169,4.80735 -19.94693,5.68353 -2.78174,0.27653 -1.48015,0.16415 -3.90368,0.34953 0,0 4.56152,-3.36836 4.56152,-3.36836 l 0,0 c 2.39727,-0.18833 1.10914,-0.0741 3.86324,-0.35525 6.88905,-0.90334 13.62851,-2.49466 19.79742,-5.82587 -0.43582,0.29785 -1.78052,1.12777 -1.30746,0.89354 4.8674,-2.41001 9.66586,-5.63116 13.68634,-9.22916 2.50139,-2.80292 4.22522,-5.69769 0.89252,-8.65892 -4.24584,-3.16842 -8.95886,-5.28386 -13.81446,-7.35488 -5.1381,-2.71304 -10.44484,-5.20039 -15.05749,-8.78425 -3.0151,-2.91978 -5.13745,-6.15854 -3.83189,-10.51877 2.3214,-7.11056 9.39449,-10.46863 16.01928,-13.01918 8.32325,-2.68478 17.03849,-3.00149 25.73674,-2.81592 0,0 -4.57227,3.32195 -4.57227,3.32195 z" />
    <path
       style="fill:#000000;fill-opacity:1;fill-rule:nonzero;stroke:#000000;stroke-width:5;stroke-linecap:round;stroke-linejoin:round;stroke-miterlimit:4;stroke-opacity:1;stroke-dasharray:none;stroke-dashoffset:24.6"
       id="path2937"
       d="m 511.73285,867.33379 c 0.91457,3.54817 2.25643,6.96199 3.54845,10.38345 0,0 -4.90859,2.72838 -4.90859,2.72838 l 0,0 c -1.29145,-3.42655 -2.64091,-6.84146 -3.59565,-10.38246 0,0 4.95579,-2.72937 4.95579,-2.72937 z" />
    <path
       style="fill:#000000;fill-opacity:1;fill-rule:nonzero;stroke:#000000;stroke-width:5;stroke-linecap:round;stroke-linejoin:round;stroke-miterlimit:4;stroke-opacity:1;stroke-dasharray:none;stroke-dashoffset:24.6"
       id="path2939"
       d="m -4.7981016,798.39009 c -8.2013124,6.01319 -16.5204204,11.83483 -24.4669564,18.18647 -7.731914,5.83111 -15.489392,11.71792 -21.168519,19.64895 -2.841237,4.16849 -4.558923,8.21942 -0.231917,11.79586 4.604618,2.59345 9.638895,3.88625 14.794606,4.80783 2.847845,1.09134 7.729681,1.17803 8.700631,4.57461 -2.058908,6.53946 -16.517156,12.62124 -21.198141,15.17892 -7.620917,3.4816 -15.462137,6.44508 -23.266813,9.48006 0,0 4.315876,-3.38729 4.315876,-3.38729 l 0,0 c 7.816921,-3.04437 15.672171,-6.01754 23.279311,-9.56717 3.573609,-0.69355 9.9414,-5.53491 11.867699,-9.00375 -0.555291,-2.98763 -6.078906,-3.05566 -8.326965,-4.03902 -5.220259,-0.97776 -10.350325,-2.31854 -14.967913,-5.04801 -4.42094,-3.85583 -3.2045,-8.0471 -0.118422,-12.55434 5.602063,-8.04184 13.376393,-13.97882 21.157322,-19.81416 7.909104,-6.35198 16.183535,-12.18199 24.380198,-18.15209 0,0 5.2500034,-2.10687 5.2500034,-2.10687 z" />
    <path
       style="fill:#000000;fill-opacity:1;fill-rule:nonzero;stroke:#000000;stroke-width:5;stroke-linecap:round;stroke-linejoin:round;stroke-miterlimit:4;stroke-opacity:1;stroke-dasharray:none;stroke-dashoffset:24.6"
       id="path2941"
       d="m 532.82973,935.28521 c 8.64942,-3.93561 17.52711,-7.36355 26.69282,-9.87929 10.97119,-2.90304 22.00796,-5.58316 33.06806,-8.13175 11.25575,-2.86787 22.49323,-5.73602 33.95973,-7.62776 7.52609,-0.95328 14.93772,-2.61572 22.406,-3.93442 1.86361,-0.37997 3.75812,-0.56081 5.65141,-0.70979 0,0 -4.57421,3.3807 -4.57421,3.3807 l 0,0 c -1.87365,0.15894 -3.74376,0.36807 -5.59091,0.72976 -7.44864,1.29724 -14.83974,2.94131 -22.34523,3.8823 -11.45358,1.91353 -22.67745,4.81074 -33.93092,7.64978 -11.05679,2.5671 -22.0995,5.22622 -33.06413,8.15936 -9.16045,2.5753 -18.05903,6.00154 -26.68806,10.01304 0,0 4.41544,-3.53193 4.41544,-3.53193 z" />
    <path
       style="fill:#000000;fill-opacity:1;fill-rule:nonzero;stroke:#000000;stroke-width:5;stroke-linecap:round;stroke-linejoin:round;stroke-miterlimit:4;stroke-opacity:1;stroke-dasharray:none;stroke-dashoffset:24.6"
       id="path2943"
       d="m 647.24861,877.17173 c 8.01465,2.04824 15.94342,4.31914 23.79347,6.93664 6.27935,2.43874 12.56104,4.89411 18.23554,8.55951 3.17613,2.26806 6.38176,4.64869 5.43525,8.89967 -3.06408,5.04111 -7.92968,8.75755 -12.43374,12.45241 -7.31289,5.68555 -15.06029,10.80925 -22.19172,16.72142 -3.96955,3.21933 -2.06762,1.69486 -5.70116,4.57919 0,0 -5.22387,2.09308 -5.22387,2.09308 l 0,0 c 3.65788,-2.88396 1.74474,-1.36037 5.73469,-4.57669 7.08729,-5.9601 14.8554,-11.05678 22.17872,-16.72199 4.48412,-3.66464 9.1473,-7.33174 12.51117,-12.10735 1.32992,-3.93111 -2.22489,-6.20949 -5.06122,-8.28717 -5.63546,-3.63325 -11.89121,-6.04862 -18.12412,-8.46399 -7.85798,-2.6293 -15.80837,-4.86194 -23.83478,-6.9082 0,0 4.68177,-3.17653 4.68177,-3.17653 z" />
    <path
       style="fill:#000000;fill-opacity:1;fill-rule:nonzero;stroke:#000000;stroke-width:5;stroke-linecap:round;stroke-linejoin:round;stroke-miterlimit:4;stroke-opacity:1;stroke-dasharray:none;stroke-dashoffset:24.6"
       id="path2945"
       d="m 728.87571,884.47665 c 3.98219,10.27096 5.67881,21.21676 7.50806,32.02582 2.47561,11.87995 3.98328,23.91894 6.24139,35.83532 0.53555,0.91557 1.46435,12.88453 3.65647,10.96634 -1.44748,0.65928 -2.76532,1.7716 -4.34244,1.97783 -0.55774,0.0729 0.54404,-0.98766 0.75567,-1.50882 0.30458,-0.75002 0.5739,-1.51631 0.78964,-2.29654 1.11198,-4.02144 1.84529,-8.17525 2.87742,-12.22166 2.58052,-12.47235 6.52741,-24.54124 11.16236,-36.38199 3.44439,-9.43336 7.37707,-18.6653 12.49149,-27.31604 1.38131,-2.1736 2.72593,-4.39323 4.36603,-6.38702 0.25582,-0.27099 0.26254,-0.42417 0.29693,-0.80763 0,0 5.094,-2.5618 5.094,-2.5618 l 0,0 c -0.007,0.349 0.13658,0.92237 -0.13242,1.15539 -1.79426,1.86212 -3.0148,4.21941 -4.48332,6.32098 -5.18919,8.61196 -9.16535,17.82674 -12.60593,27.26737 -4.64825,11.80777 -8.62528,23.84215 -11.15396,36.30149 -0.51862,2.03695 -2.8357,14.86854 -4.26478,16.11863 -1.65185,1.44499 -3.58316,2.53524 -5.37474,3.80286 -3.82134,-0.41334 -2.90189,-9.4317 -4.06126,-11.8014 -2.22993,-11.93027 -3.71282,-23.98082 -6.203,-35.86705 -1.83188,-10.76702 -3.50392,-21.69533 -7.5734,-31.89271 0,0 4.95579,-2.72937 4.95579,-2.72937 z" />
    <path
       style="fill:#000000;fill-opacity:1;fill-rule:nonzero;stroke:#000000;stroke-width:5;stroke-linecap:round;stroke-linejoin:round;stroke-miterlimit:4;stroke-opacity:1;stroke-dasharray:none;stroke-dashoffset:24.6"
       id="path2947"
       d="m 929.79237,278.99471 c -7.16642,8.46948 -16.51376,15.06083 -27.37836,17.72336 -10.17286,1.81887 -17.94131,-0.48623 -25.77398,-6.981 -7.86196,-8.48904 -9.36022,-19.76224 -9.73929,-30.86583 0.25809,-14.4606 6.1509,-26.05558 14.63129,-37.35433 8.50061,-8.99168 19.65682,-17.14627 32.21138,-19.05397 2.02732,-0.30805 4.09211,-0.2726 6.13816,-0.40891 12.76168,0.12373 23.31887,5.85199 32.4393,14.3598 8.03008,9.43825 9.31903,18.92496 7.56377,30.79794 -2.34516,12.31009 -9.66615,21.96987 -18.66325,30.26818 -8.80916,7.11607 -18.85285,12.44349 -29.76784,15.39839 0,0 4.46009,-3.42638 4.46009,-3.42638 l 0,0 c 8.25436,-2.29016 13.65491,-4.35668 20.16284,-9.86793 9.01474,-8.16491 16.40619,-17.69557 18.81092,-29.91998 1.81541,-11.69535 0.63398,-21.01319 -7.29989,-30.3262 -9.05351,-8.40679 -19.53148,-13.99414 -32.17529,-13.98675 -13.08012,1.03422 0.93848,-0.41318 -12.14182,2.0023 -0.39984,0.0738 -0.83621,-0.34712 -1.20656,-0.17929 -6.07417,2.75261 -10.94359,7.3729 -15.45091,12.15535 -8.49575,11.17296 -14.46317,22.63024 -14.77779,37.00714 0.34484,10.93455 1.77277,22.08787 9.54293,30.43337 7.78358,6.35037 15.46727,8.46363 25.47385,6.55073 1.53385,-0.40932 3.02616,-1.03197 4.60154,-1.22798 0.28341,-0.0353 -0.72683,0.84541 -0.47309,0.71433 5.36381,-2.77107 9.67041,-7.09491 13.63601,-11.54766 0,0 5.17599,-2.26468 5.17599,-2.26468 z" />
    <path
       style="fill:#000000;fill-opacity:1;fill-rule:nonzero;stroke:#000000;stroke-width:5;stroke-linecap:round;stroke-linejoin:round;stroke-miterlimit:4;stroke-opacity:1;stroke-dasharray:none;stroke-dashoffset:24.6"
       id="path2957"
       d="m 955.51971,224.38831 c -7.21495,8.62766 -14.04786,17.56661 -21.37816,26.09821 -7.02691,8.09735 -13.89598,16.30301 -20.40536,24.82171 -0.61035,0.81007 -1.22071,1.62015 -1.83106,2.43023 0,0 -5.1751,2.22798 -5.1751,2.22798 l 0,0 c 0.61679,-0.81412 1.23358,-1.62824 1.85037,-2.44236 6.5379,-8.52833 13.40163,-16.76833 20.45393,-24.87762 7.33286,-8.48231 14.12479,-17.40825 21.28328,-26.03562 0,0 5.2021,-2.22253 5.2021,-2.22253 z" />
    <path
       style="fill:#000000;fill-opacity:1;fill-rule:nonzero;stroke:#000000;stroke-width:5;stroke-linecap:round;stroke-linejoin:round;stroke-miterlimit:4;stroke-opacity:1;stroke-dasharray:none;stroke-dashoffset:24.6"
       id="path2959"
       d="m 921.23399,241.53116 c -5.97211,7.34205 -11.69649,14.88557 -17.39501,22.44186 -3.51026,5.06603 -1.86444,2.61182 -4.95509,7.35075 0,0 -5.13526,2.25315 -5.13526,2.25315 l 0,0 c 3.106,-4.76664 1.45572,-2.29721 4.96677,-7.39765 5.68838,-7.53881 11.39285,-15.07073 17.3165,-22.42558 0,0 5.20209,-2.22253 5.20209,-2.22253 z" />
    <path
       style="fill:#000000;fill-opacity:1;fill-rule:nonzero;stroke:#000000;stroke-width:5;stroke-linecap:round;stroke-linejoin:round;stroke-miterlimit:4;stroke-opacity:1;stroke-dasharray:none;stroke-dashoffset:24.6"
       id="path2961"
       d="m 926.93523,204.709 c -7.05328,10.08438 -15.5202,19.03812 -23.56761,28.31043 -9.06508,10.64744 -18.55262,20.91874 -28.16679,31.06886 0,0 -5.13482,2.14252 -5.13482,2.14252 l 0,0 c 9.64433,-10.1336 19.14493,-20.40553 28.21382,-31.0613 8.00235,-9.24721 16.46058,-18.14574 23.4794,-28.19584 0,0 5.176,-2.26467 5.176,-2.26467 z" />
    <path
       style="fill:#000000;fill-opacity:1;fill-rule:nonzero;stroke:#000000;stroke-width:5;stroke-linecap:round;stroke-linejoin:round;stroke-miterlimit:4;stroke-opacity:1;stroke-dasharray:none;stroke-dashoffset:24.6"
       id="path2963"
       d="m 972.9629,248.6003 c 9.11975,2.9719 18.73361,3.73212 28.2445,4.35739 13.0896,-0.23688 26.1531,-1.19255 39.2369,-1.67462 11.7562,-0.98643 23.492,-2.17279 35.2675,-2.91758 5.7,-0.32383 11.4078,-0.49529 17.1164,-0.54926 4.9962,-0.43031 -3.2857,3.34038 -5.9345,3.36446 -0.4717,-0.45863 -0.6268,-1.00591 -0.7817,-1.61721 0,0 5.0199,-2.703 5.0199,-2.703 l 0,0 c 0.071,0.34625 0.09,0.72385 0.3737,0.96486 5.3598,-0.021 -0.8993,3.8483 -3.2616,3.32743 -5.6818,0.0428 -11.3631,0.20427 -17.0362,0.52853 -11.7621,0.73633 -23.4833,1.92771 -35.229,2.87149 -13.1003,0.49018 -26.1815,1.48712 -39.29001,1.64239 -9.56962,-0.6384 -19.22722,-1.44769 -28.40767,-4.41834 0,0 4.68178,-3.17654 4.68178,-3.17654 z" />
    <path
       style="fill:#000000;fill-opacity:1;fill-rule:nonzero;stroke:#000000;stroke-width:5;stroke-linecap:round;stroke-linejoin:round;stroke-miterlimit:4;stroke-opacity:1;stroke-dasharray:none;stroke-dashoffset:24.6"
       id="path2965"
       d="m 1070.1266,231.83352 c 6.0281,2.95461 12.2945,5.46334 18.5683,7.85804 3.755,1.33539 7.6662,2.04898 11.6223,2.41399 1.1173,0.0182 2.8367,-0.14248 1.5716,1.43153 -4.2017,2.87789 -8.8036,5.11046 -13.2457,7.59112 1.0076,-0.54198 1.9771,-1.16171 3.0228,-1.62593 1.3902,-0.61713 -2.5838,1.60791 -3.8316,2.47752 -3.4673,2.41628 -7.2297,4.34652 -10.9242,6.38753 1.4038,-0.73075 -5.2709,2.96379 -4.056,2.05703 0.9348,-0.69773 4.0642,-2.29113 3.0622,-1.6939 -3.1489,1.87686 -6.3078,3.67075 -9.5336,5.39196 -0.3321,0.17348 -1.3228,0.70475 -0.9965,0.52044 10.1017,-5.7062 -3.6228,2.5288 -4.7738,2.99216 0,0 4.4618,-3.52704 4.4618,-3.52704 l 0,0 c 1.6743,-0.76725 3.9622,-1.85584 -2.9567,1.89216 -0.6611,0.35808 1.1376,-0.99337 1.7769,-1.38898 4.6742,-2.89253 4.1438,-2.59139 6.9107,-4.04657 0.9607,-0.51638 3.8005,-2.14009 2.8721,-1.56758 -8.9173,5.49922 5.056,-3.16409 7.6298,-4.17586 0.732,-0.40267 2.841,-1.73882 2.1959,-1.20802 -0.8479,0.69763 -1.8245,1.2356 -2.8122,1.71513 -0.6811,0.3307 1.2688,-0.82747 1.8864,-1.26565 3.363,-2.3863 6.8717,-4.41723 10.4728,-6.49071 1.5583,-0.8603 7.6111,-4.38728 0.2084,0.14145 -1.1116,0.68003 4.1837,-2.99179 3.378,-1.96761 0.7834,-0.77557 1.5501,0.0632 -0.9514,-0.34473 -3.9745,-0.42965 -7.9024,-1.18837 -11.6686,-2.56629 -6.278,-2.4391 -12.5596,-4.94246 -18.6132,-7.89329 0,0 4.7235,-3.1079 4.7235,-3.1079 z" />
    <path
       style="fill:#000000;fill-opacity:1;fill-rule:nonzero;stroke:#000000;stroke-width:5;stroke-linecap:round;stroke-linejoin:round;stroke-miterlimit:4;stroke-opacity:1;stroke-dasharray:none;stroke-dashoffset:24.6"
       id="path2967"
       d="m 1125.698,224.86476 c 1.0895,7.95386 1.7567,15.95397 2.1904,23.96768 0.263,5.33376 0.3431,10.67333 0.3657,16.01269 0.1782,1.82603 -0.3187,4.1077 0.2389,5.72294 0.5856,0.16582 0.3237,0.22881 0.7472,-0.30725 -1.4672,0.72604 -2.8114,1.78968 -4.4017,2.17812 -0.4705,0.11492 0.4681,-0.84813 0.6992,-1.27377 0.9742,-1.79372 0.5791,-1.0051 1.4317,-2.96672 2.0826,-4.96246 4.7716,-9.60893 7.506,-14.23419 2.7076,-5.64237 6.497,-10.61118 9.9862,-15.76401 2.6709,-2.92178 4.2989,-6.68943 7.3204,-9.27413 2.2088,-1.59368 4.5825,-2.99088 7.0973,-4.04103 0,0 -4.4671,3.53788 -4.4671,3.53788 l 0,0 c -3.0125,1.40145 6.1828,-3.7247 2.6417,-1.61585 -3.1763,2.4269 -4.7089,6.24153 -7.4254,9.13465 -3.4486,5.1726 -7.3539,10.06637 -10.0058,15.73824 -2.7387,4.59382 -5.4198,9.21556 -7.5042,14.14783 -1.23,3.02954 -4.3706,9.67576 -8.4869,7.71956 -1.2522,-1.49551 0,-4.33315 -0.4192,-6.13127 -0.013,-5.33709 -0.066,-10.67501 -0.3151,-16.00727 -0.4127,-7.99479 -1.0428,-15.98149 -2.1975,-23.90742 0,0 4.9982,-2.63668 4.9982,-2.63668 z" />
    <path
       style="fill:#000000;fill-opacity:1;fill-rule:nonzero;stroke:#000000;stroke-width:5;stroke-linecap:round;stroke-linejoin:round;stroke-miterlimit:4;stroke-opacity:1;stroke-dasharray:none;stroke-dashoffset:24.6"
       id="path2969"
       d="m 1172.979,261.81883 c -3.4958,6.00102 -7.4442,11.71355 -11.4471,17.38486 -3.1664,4.36178 -6.8099,8.34297 -10.5296,12.23248 -2.7314,2.59867 -4.565,5.92733 -6.8321,8.90764 -1.3042,1.65169 -2.6526,3.26854 -4.0473,4.84449 -0.1177,0.12846 -0.2318,0.26018 -0.3477,0.39025 0,0 -5.2755,2.18981 -5.2755,2.18981 l 0,0 c 0.1215,-0.12295 0.2578,-0.23302 0.3656,-0.36983 1.424,-1.55618 2.7756,-3.17756 4.0995,-4.81926 2.3121,-2.96784 4.1093,-6.33714 6.8212,-8.96969 3.7264,-3.87248 7.3877,-7.82669 10.5773,-12.16191 4.0118,-5.6412 7.9455,-11.33532 11.4642,-17.29812 0,0 5.1515,-2.33072 5.1515,-2.33072 z" />
    <path
       style="fill:#000000;fill-opacity:1;fill-rule:nonzero;stroke:#000000;stroke-width:5;stroke-linecap:round;stroke-linejoin:round;stroke-miterlimit:4;stroke-opacity:1;stroke-dasharray:none;stroke-dashoffset:24.6"
       id="path2971"
       d="m 1148.8779,253.40267 c 1.7214,7.02194 4.1684,13.83013 6.1032,20.7907 0.8391,4.72901 1.7196,9.35431 3.0836,13.95936 0.9483,3.37522 1.329,6.85038 1.5328,10.33752 0.6804,2.65045 1.6136,5.23243 2.4015,7.8563 0.6298,2.17845 0.56,0.56432 -4.559,2.52614 0,0 5.0765,-2.55309 5.0765,-2.55309 l 0,0 c -4.1734,3.64598 -4.5285,6.24075 -5.5107,2.75481 -0.7793,-2.67367 -1.711,-5.29815 -2.4508,-7.97972 -0.1797,-3.44828 -0.5345,-6.88715 -1.4605,-10.22706 -1.3584,-4.61519 -2.2695,-9.23583 -3.0622,-13.98258 -1.9054,-6.96624 -4.3385,-13.77521 -6.1145,-20.77866 0,0 4.9601,-2.70372 4.9601,-2.70372 z" />
    <path
       style="fill:#000000;fill-opacity:1;fill-rule:nonzero;stroke:#000000;stroke-width:5;stroke-linecap:round;stroke-linejoin:round;stroke-miterlimit:4;stroke-opacity:1;stroke-dasharray:none;stroke-dashoffset:24.6"
       id="path2973"
       d="m 1205.375,219.18592 c 0.046,7.71286 0.1902,15.37045 -0.8112,23.02562 -0.6246,6.62649 -1.8076,13.12239 -3.1379,19.63378 -2.033,6.44566 -2.9041,13.14795 -4.354,19.72004 -1.2748,4.85037 -2.2996,9.73896 -2.8218,14.72772 -0.3218,3.85257 -0.321,7.72083 -0.3278,11.58369 -0.555,3.5815 -1.6589,7.03701 -2.2898,10.60761 -0.2948,2.06146 -0.4569,4.14054 -0.5281,6.22118 -0.01,0.20466 -0.01,0.40945 -0.01,0.61421 0,0 -5.0848,2.60061 -5.0848,2.60061 l 0,0 c 0,-0.21473 -0.01,-0.42956 0,-0.64427 0.078,-2.10753 0.2512,-4.21179 0.5183,-6.30381 0.6159,-3.55123 1.6489,-6.99177 2.3409,-10.52407 0,-3.88051 0,-7.76549 0.3069,-11.63692 0.5003,-5.01645 1.5162,-9.9319 2.819,-14.8013 1.5002,-6.5553 2.2777,-13.27789 4.3561,-19.70867 1.3248,-6.50478 2.5691,-12.98012 3.1674,-19.60435 1.0153,-7.62815 0.962,-15.25454 0.8159,-22.94528 0,0 5.0357,-2.56579 5.0357,-2.56579 z" />
    <path
       style="fill:#000000;fill-opacity:1;fill-rule:nonzero;stroke:#000000;stroke-width:5;stroke-linecap:round;stroke-linejoin:round;stroke-miterlimit:4;stroke-opacity:1;stroke-dasharray:none;stroke-dashoffset:24.6"
       id="path2977"
       d="m 1266.7741,285.82557 c -6.3923,0.91564 -12.7943,1.36264 -19.0418,3.03159 1.4401,-0.79698 -5.448,2.68294 -4.0939,1.99637 1.045,-0.52981 1.998,-1.31867 3.1405,-1.57837 0.5819,-0.13228 -0.9177,0.76426 -1.3534,1.17214 -0.9758,0.91362 -1.6554,1.69081 -2.5513,2.66863 -2.287,2.89188 -2.7836,6.47344 -3.0985,10.02862 0.098,3.79253 1.905,5.74498 5.3701,6.88789 3.6001,0.78693 7.3032,0.73578 10.9677,0.74296 3.5584,-0.0127 7.1167,-0.0439 10.675,-0.0656 2.9611,-0.0853 5.8401,-0.37248 8.1208,1.79235 1.6771,2.81045 0.5293,6.27729 -0.4415,9.17371 -2.013,3.97829 -4.9051,7.1965 -8.2676,10.06453 -4.0803,3.85828 -9.3842,5.70352 -14.3776,7.94756 -2.7551,1.52051 -5.7711,2.29715 -8.8714,2.67387 -1.7923,0.199 -3.5976,0.22842 -5.3988,0.26516 0,0 4.5915,-3.35109 4.5915,-3.35109 l 0,0 c 1.7871,-0.0409 3.5778,-0.0857 5.3535,-0.31038 3.0723,-0.44961 6.0206,-1.31742 8.7709,-2.79409 1.6142,-0.67478 7.0461,-3.58451 4.7873,-1.92849 -6.7883,4.97677 -1.5838,0.47981 -0.1086,-0.37993 3.3851,-2.79724 6.2605,-5.90888 8.39,-9.78688 0.9507,-2.60113 2.1648,-6.00419 0.7407,-8.58303 -2.221,-1.93839 -5.1169,-1.44885 -7.8781,-1.44561 -3.5568,0.0157 -7.1135,0.0495 -10.6703,0.0562 -3.7071,-0.0173 -7.4627,0.0192 -11.0825,-0.89482 -3.618,-1.35451 -5.5494,-3.5446 -5.7428,-7.53472 0.3033,-3.63686 0.7427,-7.31592 2.9443,-10.36391 4.0024,-4.45079 8.9122,-7.79444 14.5645,-9.88744 6.2662,-1.61481 12.7005,-1.99562 19.0855,-2.98334 0,0 -4.5242,3.38611 -4.5242,3.38611 z" />
  </g>
</svg>
