<?xml version="1.0" encoding="UTF-8" standalone="no"?>
<!-- Created with Inkscape (http://www.inkscape.org/) -->
<svg
   xmlns:dc="http://purl.org/dc/elements/1.1/"
   xmlns:cc="http://creativecommons.org/ns#"
   xmlns:rdf="http://www.w3.org/1999/02/22-rdf-syntax-ns#"
   xmlns:svg="http://www.w3.org/2000/svg"
   xmlns="http://www.w3.org/2000/svg"
   xmlns:sodipodi="http://sodipodi.sourceforge.net/DTD/sodipodi-0.dtd"
   xmlns:inkscape="http://www.inkscape.org/namespaces/inkscape"
   width="743.06995"
   height="791.23688"
   id="svg2"
   sodipodi:version="0.32"
   inkscape:version="0.46+devel"
   version="1.0"
   sodipodi:docname="c47d1.svg"
   inkscape:output_extension="org.inkscape.output.svg.inkscape">
  <defs
     id="defs4">
    <inkscape:perspective
       sodipodi:type="inkscape:persp3d"
       inkscape:vp_x="0 : 526.18109 : 1"
       inkscape:vp_y="0 : 1000 : 0"
       inkscape:vp_z="744.09448 : 526.18109 : 1"
       inkscape:persp3d-origin="372.04724 : 350.78739 : 1"
       id="perspective10" />
  </defs>
  <sodipodi:namedview
     id="base"
     pagecolor="#ffffff"
     bordercolor="#666666"
     borderopacity="1.0"
     inkscape:pageopacity="0.0"
     inkscape:pageshadow="2"
     inkscape:zoom="0.35"
     inkscape:cx="-221.91329"
     inkscape:cy="226.8629"
     inkscape:document-units="px"
     inkscape:current-layer="layer1"
     showgrid="false"
     inkscape:window-width="1280"
     inkscape:window-height="712"
     inkscape:window-x="-5"
     inkscape:window-y="-3" />
  <metadata
     id="metadata7">
    <rdf:RDF>
      <cc:Work
         rdf:about="">
        <dc:format>image/svg+xml</dc:format>
        <dc:type
           rdf:resource="http://purl.org/dc/dcmitype/StillImage" />
        <dc:title></dc:title>
      </cc:Work>
    </rdf:RDF>
  </metadata>
  <g
     inkscape:label="Layer 1"
     inkscape:groupmode="layer"
     id="layer1"
     transform="translate(-22.627577,32.01182)">
    <path
       style="fill:#000000;fill-opacity:1;fill-rule:nonzero;stroke:none"
       id="path3472"
       d="m 65.067325,297.6496 c -2.606923,6.76723 -9.259569,10.98139 -16.381609,11.75732 -10.05457,-0.66887 -16.752616,-7.82433 -21.750382,-15.88757 -6.743236,-15.30234 -5.2288,-24.68358 2.168215,-39.28715 9.23597,-13.4391 23.292628,-22.86461 38.705839,-28.06921 2.826044,-0.95428 5.769546,-1.51691 8.65432,-2.27536 11.642774,-1.9001 25.513452,-1.69321 34.154442,7.74479 1.33293,1.45587 2.24599,3.24661 3.36898,4.86991 5.85596,13.50551 1.18417,24.03863 -7.12897,35.08284 -12.210194,13.38596 -28.825385,21.41083 -46.030872,26.29749 -8.174601,2.49965 -16.452429,2.65726 -24.847142,1.7301 0,0 4.510747,-3.20256 4.510747,-3.20256 l 0,0 c 8.323098,0.90612 16.518731,0.66615 24.613125,-1.82133 14.789205,-4.29335 26.228689,-8.91801 36.757752,-20.85488 8.28501,-10.75552 13.09415,-21.13281 7.39695,-34.44966 -1.09657,-1.58117 -1.98724,-3.32713 -3.2897,-4.74352 -8.556485,-9.30493 -22.303534,-9.32193 -33.762589,-7.38719 -16.844713,4.55964 -27.939674,10.00369 -38.169043,24.85199 -7.438037,14.37745 -9.030675,23.6077 -2.347674,38.74857 4.912309,7.90461 11.556266,14.95184 21.480364,15.30535 6.776389,-1.02536 1.112833,-0.66994 0.83733,1.23453 -0.203179,1.40452 3.235953,-2.05402 5.134474,-5.35919 0.334604,-0.58252 0.547701,-1.22686 0.821552,-1.84029 0,0 5.103891,-2.44498 5.103891,-2.44498 z" />
    <path
       style="fill:#000000;fill-opacity:1;fill-rule:nonzero;stroke:none"
       id="path3474"
       d="m 123.72897,256.63451 c 9.39654,3.4052 19.61124,3.7666 29.49597,4.35184 14.58812,0.82203 29.16368,0.72607 43.7396,-0.14681 13.48977,-0.97537 26.99965,-1.5575 40.51877,-1.89832 7.83949,-0.48678 15.60732,0.87468 23.35491,1.85244 1.72036,0.20971 3.44212,0.40817 5.16572,0.5894 0.45776,0.0481 1.77207,-0.48959 1.34177,-0.32619 -1.48361,0.56338 -2.91233,1.26185 -4.3685,1.89278 0.5566,-3.30254 1.64082,-6.44878 2.89057,-9.54309 0,0 5.10695,-2.35692 5.10695,-2.35692 l 0,0 c -1.27261,3.06762 -2.44714,6.20211 -2.8527,9.5187 -6.45067,4.99372 -4.92243,4.43951 -11.86249,3.46328 -7.69613,-1.0082 -15.41455,-2.33453 -23.208,-1.85395 -13.49579,0.31951 -26.98139,0.91198 -40.44815,1.87028 -14.59881,0.86634 -29.2006,0.93117 -43.81041,0.11856 -9.98567,-0.59072 -20.30027,-0.96816 -29.78784,-4.42389 0,0 4.72383,-3.10811 4.72383,-3.10811 z" />
    <path
       style="fill:#000000;fill-opacity:1;fill-rule:nonzero;stroke:none"
       id="path3476"
       d="m 286.6107,225.59231 c 6.05152,4.94879 13.32503,8.056 20.31151,11.43521 5.12631,2.60981 11.08697,3.56377 15.99953,6.56959 3.97745,5.23583 -10.4332,10.81444 -12.07361,11.72856 -10.85441,4.67999 -21.18805,10.32649 -31.47703,16.11635 -10.22271,5.42926 -14.09559,7.93428 -23.47825,13.03605 -2.48633,1.26317 -4.79104,2.35756 -7.60074,2.05402 0,0 4.60948,-3.29702 4.60948,-3.29702 l 0,0 c 2.69378,0.10248 4.97362,-1.06592 7.34412,-2.26386 3.10238,-1.69115 15.69751,-8.83059 23.36956,-12.95819 10.32159,-5.80422 20.71895,-11.39944 31.56812,-16.17029 -4.32476,3.11161 5.82416,-2.46196 3.00368,-5.18342 -4.9312,-2.92222 -10.8138,-3.94089 -15.90418,-6.57194 -7.0163,-3.43018 -14.29922,-6.57098 -20.4452,-11.47617 0,0 4.77301,-3.01889 4.77301,-3.01889 z" />
    <path
       style="fill:#000000;fill-opacity:1;fill-rule:nonzero;stroke:none"
       id="path3478"
       d="m 206.00386,120.69549 c 3.00753,8.00109 5.18965,16.27045 7.23542,24.56053 2.37702,7.43252 3.77298,15.14512 6.50007,22.46052 0.38338,1.01791 1.08636,3.21529 2.61195,3.27628 0.3666,0.0147 1.36702,-0.5158 1.04931,-0.33231 -4.9003,2.83011 -4.40521,2.6906 -2.4073,0.21525 5.77508,-7.75166 10.38045,-16.27355 15.59161,-24.39849 4.13198,-6.81081 8.8206,-13.34046 12.49938,-20.41494 1.04128,-2.25666 2.05469,-4.55512 2.66255,-6.97337 5.74914,-2.47977 4.67995,-2.49259 5.87786,1.26954 0,0 -4.95694,2.72329 -4.95694,2.72329 l 0,0 c -1.32153,-4.06482 -0.72997,-4.23049 4.21602,-6.45896 -0.57442,2.48228 -1.66235,4.8188 -2.69145,7.13527 -3.628,7.14256 -8.46067,13.63718 -12.56901,20.50491 -5.22074,8.08889 -9.79635,16.5884 -15.46092,24.3853 -3.10648,4.45255 -9.28936,8.4806 -11.32856,1.79023 -2.68796,-7.35944 -4.0598,-15.09907 -6.448,-22.55955 -2.04391,-8.25553 -4.20235,-16.50235 -7.30837,-24.43248 0,0 4.92638,-2.75102 4.92638,-2.75102 z" />
    <path
       style="fill:#000000;fill-opacity:1;fill-rule:nonzero;stroke:none"
       id="path3480"
       d="m 265.68792,174.66894 c 1.37917,5.98869 1.84582,12.11775 2.18109,18.23656 0.26262,4.97444 0.32964,9.95627 0.38378,14.9365 -0.095,0.55932 0.10735,2.53269 1.05079,1.76571 0,0 -4.56693,3.40328 -4.56693,3.40328 l 0,0 c -1.24328,-0.31551 -1.65798,-1.35622 -1.52293,-2.5984 0.006,-4.98455 -0.0608,-9.97004 -0.29706,-14.94963 -0.3304,-6.07401 -0.77673,-12.16927 -2.20676,-18.102 0,0 4.97802,-2.69202 4.97802,-2.69202 z" />
    <path
       style="fill:#000000;fill-opacity:1;fill-rule:nonzero;stroke:none"
       id="path3484"
       d="m 573.0168,274.59063 c -6.02909,5.40621 -13.1599,9.07923 -20.30336,12.75815 -6.43435,3.23615 -12.87502,4.53563 -19.84329,2.58823 -7.39931,-3.2987 -9.9003,-10.42109 -10.83806,-17.92417 -1.08072,-10.98341 2.61398,-20.6068 8.26241,-29.76754 7.73943,-9.13336 14.94141,-13.86599 26.75445,-10.22394 7.51627,4.30095 10.68233,12.01006 12.63254,20.02644 1.28283,8.58559 -0.83047,12.67646 -7.43599,17.93539 -9.2619,6.53388 -19.16678,8.39991 -30.22792,8.04157 0,0 4.49948,-3.24846 4.49948,-3.24846 l 0,0 c 6.15166,0.17025 11.95664,-0.19173 17.87397,-2.06843 1.35672,-0.43029 2.60199,-1.19689 3.98464,-1.53473 0.50916,-0.12441 -0.86894,0.58639 -1.3034,0.87958 6.598,-5.07106 8.92389,-8.80109 7.71966,-17.36605 -1.87127,-7.83312 -4.90845,-15.43071 -12.33827,-19.52586 -3.00815,-0.86501 -4.20384,-1.48791 -7.39958,-1.28785 -1.30667,0.0818 -2.55676,0.84422 -3.86043,0.7237 -0.44656,-0.0413 1.27027,-1.25484 0.90328,-0.99708 -3.51608,2.46955 -3.82591,3.18596 -6.75875,6.42031 -5.68431,9.03491 -9.46501,18.50619 -8.39859,29.41685 0.86957,7.29177 3.27043,14.24521 10.53711,17.33434 6.91796,1.77401 13.27001,0.2964 19.60926,-2.88115 -0.50713,0.43802 -2.16731,1.49244 -1.52139,1.31406 3.87849,-1.07112 8.73466,-6.24515 12.22519,-8.44825 0,0 5.22704,-2.16511 5.22704,-2.16511 z" />
    <path
       style="fill:#000000;fill-opacity:1;fill-rule:nonzero;stroke:none"
       id="path3486"
       d="m 37.722996,299.9094 c 4.563401,6.50257 5.679894,14.52184 6.615398,22.21526 0.76727,7.55417 0.979426,15.14882 1.076147,22.73649 0.04241,3.59325 0.814609,3.84285 -5.054696,4.68986 -0.412025,0.0595 4.48e-4,-0.83259 6.37e-4,-1.24888 2.67e-4,-0.58773 4.86e-4,-1.17545 7.29e-4,-1.76317 -0.05046,-5.84327 1.782133,-11.54555 3.676942,-17.01306 1.944437,-5.51968 4.41271,-11.029 8.088069,-15.6246 2.808711,-3.30576 9.011222,-9.70303 12.026578,-4.20481 1.399935,6.03525 1.18588,12.33884 1.242253,18.50206 0.03883,4.78128 -0.01847,9.56295 0.01511,14.34422 0.01178,0.0258 0.02356,0.0517 0.03533,0.0775 -1.703595,0.59548 -3.311477,1.64742 -5.110784,1.78646 -0.174132,0.0134 0.292222,-7.65187 0.345842,-8.06623 1.24161,-5.49431 3.83631,-10.27974 7.809262,-14.24561 3.963821,-3.65551 8.938749,-9.04362 14.731567,-7.39049 4.226282,2.84799 5.734708,7.60873 6.816032,12.33564 0.622024,3.60305 0.977827,7.2499 1.11841,10.90252 0.01449,0.65808 0.01115,0.36222 0.0135,0.88754 0,0 -5.083414,2.58079 -5.083414,2.58079 l 0,0 c 0.01759,-0.51524 0.01093,-0.22386 0.01402,-0.87426 -0.06475,-3.63108 -0.394693,-7.25896 -1.000724,-10.84019 -1.009178,-4.49469 -2.378501,-9.19956 -6.524898,-11.78331 -2.517058,-0.50586 -6.247916,1.26325 -0.102799,-1.97561 2.725611,-1.43657 -6.875595,3.96299 -4.784288,4.01574 -4.068903,3.78518 -6.644384,8.50764 -7.968942,13.9057 -0.321516,2.24502 -0.351684,4.32411 -0.334114,6.58467 0.0036,0.45952 0.353287,1.06828 0.0143,1.37854 -1.482835,1.35721 -7.035338,2.61553 -5.051331,3.29412 0.12516,-4.79214 0.06397,-9.58814 0.08007,-14.38121 -0.0481,-6.06969 0.138805,-12.26519 -1.182163,-18.21946 -0.362142,-0.66006 -0.535868,-1.42285 -1.408424,-1.58109 -0.355695,-0.0645 -1.353267,0.36559 -1.076264,0.13332 6.947565,-5.82559 1.668087,-0.53922 0.540364,0.63278 -3.806458,4.44457 -6.229219,10.00901 -8.211752,15.46255 -1.907457,5.38537 -3.732057,11.04549 -3.698566,16.81039 0.0055,0.58415 0.0094,1.16831 0.01645,1.75244 0.0049,0.41087 0.329209,0.96264 0.01939,1.23255 -6.184334,5.38752 -4.973119,4.15674 -5.012671,0.45593 -0.03015,-7.58234 -0.211756,-15.17291 -0.966365,-22.72262 -0.919451,-7.54949 -1.966198,-15.50004 -6.548199,-21.82638 0,0 4.823983,-2.95614 4.823983,-2.95614 z" />
    <path
       style="fill:#000000;fill-opacity:1;fill-rule:nonzero;stroke:none"
       id="path3488"
       d="m 125.99763,331.75885 c 2.64545,5.65559 3.64876,11.79051 4.40424,17.92861 0.0792,4.52596 -0.61604,9.02479 -1.57779,13.4353 -0.74188,2.22101 3.8e-4,0.41984 -5.4339,2.15159 0,0 5.00508,-2.68662 5.00508,-2.68662 l 0,0 c -5.03101,3.45363 -5.94901,5.06199 -4.67927,2.99505 1.03733,-4.35578 1.74661,-8.81187 1.73921,-13.29959 -0.71801,-6.07315 -1.69285,-12.15867 -4.37149,-17.72643 0,0 4.91392,-2.79791 4.91392,-2.79791 z" />
    <path
       style="fill:#000000;fill-opacity:1;fill-rule:nonzero;stroke:none"
       id="path3490"
       d="m 522.21018,291.93532 c -1.26425,5.00335 -1.86726,10.11736 -2.23959,15.25294 -0.39146,5.47438 -1.22606,11.03698 -2.72138,16.32903 -0.41457,3.59217 -5.37801,12.68345 -9.63603,8.41063 -1.51143,-3.3962 0.0209,-7.37301 1.29245,-10.63131 1.24947,-3.77924 2.79185,-7.39929 5.11226,-10.64405 3.43416,-3.93601 7.35329,-5.87725 11.99119,-8.34422 4.04331,-2.38971 -3.45821,1.89363 -2.61387,1.38449 1.97522,-1.19105 3.98823,-2.31891 6.0053,-3.43765 0.35233,-0.19542 1.44204,-0.71438 1.09919,-0.50276 -2.69572,1.6639 -9.59748,5.1808 2.47742,-1.13079 2.60606,0.58049 3.87513,3.98144 4.89229,6.23336 1.08891,2.97875 1.46503,6.12944 1.74074,9.26856 0.1624,2.31485 0.60115,2.1757 -4.66545,2.47534 -0.17875,0.0102 0.67964,-1.65626 1.38459,-3.96445 0.75471,-3.75581 2.7921,-6.79239 5.21878,-9.66311 3.76413,-3.57216 9.19763,-9.72622 14.78536,-8.09047 2.96792,1.68378 3.0568,5.50661 3.27725,8.5547 -0.0251,3.81079 0.51868,7.71581 -0.2184,11.47633 -0.82986,2.80827 -1.54667,5.64794 -2.22084,8.49704 -1.45131,5.96708 -6.23384,3.76524 -8.77401,1.32566 -0.23658,-0.25576 -0.47315,-0.51152 -0.70973,-0.76728 0,0 4.84943,-2.94615 4.84943,-2.94615 l 0,0 c 0.22848,0.24648 0.45696,0.49297 0.68544,0.73945 0.61409,0.57645 1.04969,1.05041 1.78659,1.47982 0.31268,0.18221 1.23244,0.16868 0.99266,0.43974 -5.31281,6.0057 -4.44773,4.33485 -3.95191,2.18743 0.69937,-2.84642 1.3971,-5.69679 2.25355,-8.50057 0.90706,-3.67139 0.21222,-7.58593 0.30072,-11.33595 -0.18924,-2.75171 -0.12889,-6.50614 -2.92569,-7.93051 -1.97931,-0.34199 -6.03469,1.36374 0.14869,-1.64601 2.94555,-1.43374 -7.35521,4.15374 -5.09154,4.32145 -2.43546,2.79731 -4.57184,5.70985 -5.29593,9.43552 -0.47215,1.67917 -5.31805,13.24015 -6.86383,6.52822 -0.22525,-3.08418 -0.57333,-6.18004 -1.62786,-9.10841 -0.86918,-1.92761 -2.05611,-5.39967 -4.43937,-5.52799 1.22548,-0.77914 4.98424,-2.9687 3.67643,-2.33743 -2.11862,1.02264 -4.06782,2.36473 -6.11911,3.51649 -6.18347,3.4719 16.55991,-9.79533 -3.26874,1.86066 -0.40387,0.23741 -0.82695,0.44053 -1.24042,0.66079 8.22028,-5.20175 -0.99871,0.55895 -2.35867,2.60979 -2.38818,3.17448 -3.96539,6.74008 -5.17914,10.51737 -1.22188,3.00101 -2.81717,6.81429 -1.57642,10.00755 1.33177,1.04799 5.88356,-0.53339 -2.63848,2.75027 -0.49761,0.19173 0.71377,-0.81044 0.94466,-1.29114 0.10485,-0.2183 1.4059,-4.41152 1.42527,-4.47347 1.57657,-5.23188 2.3645,-10.79487 2.78399,-16.22638 0.35576,-5.15503 0.95051,-10.28111 2.14827,-15.31755 0,0 5.10389,-2.44498 5.10389,-2.44498 z" />
    <path
       style="fill:#000000;fill-opacity:1;fill-rule:nonzero;stroke:none"
       id="path3492"
       d="m 575.04343,318.30162 c 3.73235,-0.8349 7.50625,-2.20814 11.36148,-1.77363 3.24359,1.34155 4.08796,4.18905 4.51882,7.39499 0.60534,4.61526 -1.86489,8.50822 -4.65442,11.9454 -3.3896,4.27523 -7.64536,7.3702 -12.12405,10.3562 -0.62068,-0.5685 -4.4045,3.39396 -4.90405,3.47132 -0.35632,0.0552 0.47372,-0.5764 0.8017,-0.7262 4.53511,-1.10786 9.27331,-1.2386 13.92114,-1.45405 4.40211,-0.16891 8.80722,-0.22659 13.21209,-0.26055 0.78991,-0.005 1.58013,-0.0124 2.36982,0.002 0.01,0.003 0.019,0.007 0.0285,0.0102 -1.79807,0.96248 -3.44885,2.27505 -5.3942,2.88743 -0.50273,0.15826 -4.37714,-4.97461 -4.87231,-5.69232 0,0 4.85503,-2.85516 4.85503,-2.85516 l 0,0 c 1.16776,1.69418 2.28873,3.28895 3.82996,4.66996 0.29678,0.26593 1.16299,0.42333 0.93233,0.74828 -1.03367,1.45619 -2.66415,2.37868 -3.99623,3.56803 -0.005,0.002 -0.009,0.005 -0.0139,0.007 -0.77349,-0.008 -1.54706,-0.0151 -2.32062,-0.014 -4.38243,0.006 -8.76537,0.0623 -13.14451,0.24159 -4.65123,0.23255 -9.39555,0.37892 -13.91106,1.60958 -3.93969,0.58388 2.38469,-4.5604 3.37672,-4.16443 4.43188,-3.01747 8.82038,-5.90048 12.18516,-10.20764 2.76235,-3.26563 5.3699,-7.03264 4.82459,-11.51421 -0.3703,-2.93505 -1.01715,-5.67639 -4.11857,-6.74335 -3.83445,-0.22478 -7.55711,1.07727 -11.25909,1.93071 0,0 4.49561,-3.4376 4.49561,-3.4376 z" />
    <path
       style="fill:#000000;fill-opacity:1;fill-rule:nonzero;stroke:none"
       id="path3494"
       d="m 528.54506,134.66894 c 1.65899,6.63663 3.3522,13.27619 5.03056,19.91509 1.45344,7.23418 3.55236,14.31213 5.08376,21.52971 0.38693,1.90322 0.76219,3.80995 1.0433,5.732 -1.58014,0.43778 -3.10228,1.38366 -4.74044,1.31334 -0.52239,-0.0224 0.32298,-0.99478 0.46967,-1.49665 0.17169,-0.58739 0.29739,-1.18819 0.48529,-1.77059 0.75407,-2.33718 1.68542,-4.61429 2.66213,-6.86429 3.43323,-6.77634 5.98781,-13.93669 9.41378,-20.7122 2.47506,-5.37573 5.21447,-10.61629 7.81579,-15.93259 0.91906,-1.59778 1.48266,-3.26698 1.67717,-5.09157 0.009,-0.13111 0.0171,-0.26222 0.0256,-0.39333 0,0 5.09185,-2.55839 5.09185,-2.55839 l 0,0 c -0.007,0.13904 -0.0134,0.27807 -0.0201,0.4171 -0.17139,1.89591 -0.63093,3.65528 -1.63686,5.29817 -2.64196,5.32369 -5.4154,10.56917 -7.88736,15.97329 -3.46285,6.73872 -5.97115,13.89421 -9.38129,20.66207 -0.37862,0.85224 -3.52864,9.97259 -3.60014,10.03617 -1.64581,1.46355 -3.61873,2.51148 -5.42809,3.76721 -0.21353,-1.92436 -0.58101,-3.82788 -0.93854,-5.72972 -1.46373,-7.23076 -3.54788,-14.30924 -5.01873,-21.53727 -1.67779,-6.63167 -3.37665,-13.25928 -5.12537,-19.86553 0,0 4.97802,-2.69202 4.97802,-2.69202 z" />
    <path
       style="fill:#000000;fill-opacity:1;fill-rule:nonzero;stroke:none"
       id="path3496"
       d="m 549.53615,174.44628 c 2.57175,-4.83842 6.29319,-8.42076 10.52619,-11.782 4.87151,-3.1898 10.05026,-7.6321 15.94605,-4.97849 3.67154,2.3055 1.23529,7.04173 -0.0661,10.12965 -2.94522,6.19509 -7.87142,10.82201 -12.89705,15.31234 -3.77399,3.7597 -9.01408,5.73578 -12.95713,9.21136 -1.05271,1.00878 3.82542,-0.89969 4.38099,-1.04752 3.24744,-0.69187 6.56792,-0.95667 9.87863,-1.1131 1.18504,-0.0477 2.37084,-0.0872 3.55692,-0.0776 1.53894,0.63505 -4.68326,4.31112 -4.66722,1.69226 0,0 5.07155,-2.58182 5.07155,-2.58182 l 0,0 c -0.002,2.32486 -2.54634,4.15814 -5.02538,4.23893 -1.16676,-5.6e-4 -2.33336,0.0262 -3.49903,0.0778 -3.28793,0.16645 -6.58958,0.4458 -9.80043,1.20566 -1.08565,0.29512 -5.93798,2.46586 -5.13917,-0.23627 3.65017,-3.77231 9.3799,-5.38588 13.03779,-9.26609 5.00154,-4.44247 9.96549,-8.95297 12.95838,-15.07267 1.18357,-2.69438 3.8235,-7.31525 0.46728,-9.33507 -4.5523,-1.75306 -10.31549,2.2326 -3.95304,-1.51451 0.70035,-0.41246 -1.38817,0.84585 -2.08225,1.26877 -4.232,3.30325 -8.00496,6.73768 -10.58505,11.53752 0,0 -5.15189,2.33088 -5.15189,2.33088 z" />
    <path
       style="fill:#000000;fill-opacity:1;fill-rule:nonzero;stroke:none"
       id="path3498"
       d="m 597.90057,146.87305 c 4.50353,-1.06769 9.11813,-2.13031 13.75871,-1.77153 2.51499,0.3675 5.03295,0.90952 7.37868,1.91081 -1.54554,0.73794 -3.04764,1.57479 -4.63663,2.21383 -0.19789,0.0796 0.23431,-0.49617 0.073,-0.6357 -0.56284,-0.48676 -0.93986,-0.96442 -1.3668,-1.59481 -0.48972,-0.78921 -0.26199,-0.40958 -0.68626,-1.13705 0,0 4.92868,-2.84575 4.92868,-2.84575 l 0,0 c 0.40563,0.70904 0.18737,0.34009 0.65815,1.10488 2.48589,3.63291 3.022,2.56119 -3.7071,6.05633 -2.29829,-0.94909 -4.74683,-1.49256 -7.20963,-1.79622 -4.62894,-0.20697 -9.20956,0.81911 -13.6864,1.93281 0,0 4.49561,-3.4376 4.49561,-3.4376 z" />
    <path
       style="fill:#000000;fill-opacity:1;fill-rule:nonzero;stroke:none"
       id="path3500"
       d="m 597.98206,159.0973 c 4.35771,1.20238 8.85648,1.75046 13.34655,2.16664 3.0484,0.24108 6.10663,0.30017 9.16325,0.30758 5.02973,-0.44192 -2.71586,3.3238 -5.70338,3.31714 0,0 4.59524,-3.33655 4.59524,-3.33655 l 0,0 c 5.37618,0.0201 -1.09599,3.87297 -3.48729,3.35296 -3.05537,-0.0382 -6.11236,-0.10715 -9.15793,-0.37325 -4.51274,-0.45311 -9.02516,-1.04513 -13.41502,-2.22122 0,0 4.65858,-3.2133 4.65858,-3.2133 z" />
    <path
       style="fill:#000000;fill-opacity:1;fill-rule:nonzero;stroke:none"
       id="path3502"
       d="m 653.528,170.99418 c -4.46462,1.36736 -8.53136,0.4019 -12.26814,-2.18558 -3.63095,-3.52642 -3.25588,-8.12253 -2.13123,-12.65627 3.30506,-8.55634 12.73775,-12.07053 20.23276,-16.09805 6.52714,-2.60261 13.5207,-4.00919 20.12984,-1.12009 4.5426,3.23106 5.58973,8.59214 5.45624,13.85389 -0.38401,5.1798 -2.13733,9.84871 -6.4407,12.88436 -7.29075,4.58349 -10.47265,5.49345 -17.14234,0.31998 -0.61215,-0.54727 -1.2243,-1.09454 -1.83646,-1.64181 0,0 4.77413,-2.96323 4.77413,-2.96323 l 0,0 c 0.60284,0.53629 1.20568,1.07258 1.80851,1.60886 2.58201,1.93986 4.95502,3.41439 8.32409,3.15976 0.62394,-0.0472 2.22179,-0.83384 1.84748,-0.33242 -0.71059,0.95189 -2.01076,1.26529 -3.01615,1.89794 4.43174,-2.75656 6.25058,-7.28283 6.67667,-12.405 0.21913,-5.01626 -0.7241,-10.23836 -5.11904,-13.26914 -6.55152,-2.68786 -13.44107,-1.15652 -19.81002,1.47815 0.43274,-0.34541 1.80601,-1.25701 1.29823,-1.03625 -5.10236,2.21827 -10.03429,5.99581 -12.12201,11.24359 -1.1525,4.27318 -1.67668,8.70386 1.82169,12.04136 3.69512,2.49714 7.68818,3.14082 12.01206,1.78234 0,0 -4.49561,3.43761 -4.49561,3.43761 z" />
    <path
       style="fill:#000000;fill-opacity:1;fill-rule:nonzero;stroke:none"
       id="path3506"
       d="m 707.30251,28.876347 c -4.61273,4.274719 -9.3518,8.371149 -13.15451,13.411208 -3.43216,5.566092 -5.80572,11.833063 -4.58951,18.388062 2.19382,5.117403 7.06898,6.245927 12.10452,5.22392 1.02421,-0.428257 4.86824,-1.889413 5.54702,-2.800144 0.38548,-0.517192 -2.06425,1.043488 -1.88835,0.422894 0.34263,-1.208809 1.79256,-1.772669 2.55417,-2.771953 1.93622,-2.540475 2.40008,-4.006025 3.69773,-6.884893 2.7068,-8.367979 3.28642,-17.298215 2.84104,-26.03412 -0.6367,-8.177752 -2.15107,-16.316466 -1.90207,-24.5342181 0.25852,-7.7474829 3.13213,-12.6948999 8.76579,-17.7594149 8.72066,-6.636739 18.50759,-8.511759 29.04391,-9.363547 5.31423,-0.348495 12.67331,-0.808942 15.31939,4.799317 0.061,2.688673 0.1719,1.3718 -0.31276,3.952239 0,0 -5.07647,2.457681 -5.07647,2.457681 l 0,0 c 0.54386,-2.40381 0.38778,-1.19307 0.47509,-3.631328 -2.42994,-5.360094 -9.98079,-4.532715 -14.86017,-4.28393 -4.37677,0.380199 -8.73444,0.774289 -13.00929,1.85665 -1.35681,0.343533 -2.61686,1.175258 -4.01552,1.227238 -0.47751,0.01775 1.3535,-1.276745 0.90509,-1.111643 -1.20871,0.445042 -2.20557,1.331011 -3.30835,1.996517 -5.66433,4.928697 -8.64973,9.627144 -8.94958,17.3466246 -0.33904,8.2061196 1.20926,16.3416354 1.84551,24.5072454 0.49826,8.802318 -0.11175,17.791966 -2.70592,26.258536 -4.02535,9.273306 -9.67413,14.248525 -19.44398,17.726179 -5.34302,0.831139 -10.31213,-0.623671 -12.57359,-5.961159 -1.30032,-6.689527 0.97781,-13.071105 4.42023,-18.817902 3.70099,-5.10767 8.43411,-9.195223 13.04355,-13.45495 0,0 5.22703,-2.165109 5.22703,-2.165109 z" />
    <path
       style="fill:#000000;fill-opacity:1;fill-rule:nonzero;stroke:none"
       id="path3508"
       d="m 637.90057,21.15876 c 6.6001,-2.669749 13.67833,-3.661159 20.70165,-4.474407 6.64649,-0.830946 13.47779,-1.094566 19.10468,2.983013 5.41012,5.717673 3.08275,12.685621 0.65894,19.243626 -4.83027,10.732228 -12.91044,19.052161 -21.63742,26.680416 -8.50592,6.184459 -17.99039,12.083541 -28.72096,12.771053 -5.40893,0.148102 -8.72995,-2.393652 -8.25031,-7.89982 2.69892,-7.806716 9.69886,-11.146288 16.5301,-14.793006 6.09592,-2.914918 12.65172,-4.305953 19.31652,-5.07382 3.785,-0.322355 7.58277,-0.519694 11.3819,-0.533434 1.25237,2.393728 -5.00326,3.351729 -7.28366,3.368703 0,0 4.57404,-3.328984 4.57404,-3.328984 l 0,0 c 3.47075,-0.03124 0.44861,0.726534 -1.88745,3.30164 -3.76227,0.0012 -7.52488,0.180305 -11.27067,0.532932 -6.63615,0.811454 -13.14746,2.270583 -19.20339,5.209337 0.60349,-0.462428 2.48661,-1.734992 1.81048,-1.387284 -4.03827,2.076749 -7.06269,6.187674 -8.91611,10.201153 -0.74466,5.271095 2.703,7.282998 7.69945,7.081186 7.32363,-0.621333 13.87079,-3.21667 19.13726,-7.385395 8.71706,-7.55386 16.82492,-15.74943 21.69547,-26.406595 2.3628,-6.267985 4.88534,-13.066238 -0.36645,-18.571266 -5.59348,-3.885311 -12.32577,-3.471371 -18.83109,-2.673582 -7.0524,0.842634 -14.09705,1.955704 -20.73859,4.592138 0,0 4.49561,-3.437604 4.49561,-3.437604 z" />
    <path
       style="fill:#000000;fill-opacity:1;fill-rule:nonzero;stroke:none"
       id="path3510"
       d="m 614.56906,3.1874239 c 2.81957,5.5950803 4.74528,11.5050681 6.78769,17.4045301 2.06065,5.506888 3.10097,11.283111 3.70226,17.108927 -0.0459,7.354098 -4.98722,8.998183 -10.89368,12.134666 -3.7507,1.025843 -7.38882,2.255045 -11.22443,2.970674 -3.65889,0.536684 -7.36416,0.619816 -11.05592,0.661891 -3.0194,0.02056 -6.03893,0.0023 -9.05838,1.72e-4 -2.32788,0.251307 -3.36207,-0.333914 -4.44143,-2.375422 0,0 4.92346,-2.816751 4.92346,-2.816751 l 0,0 c 0.98275,1.879514 2.0375,2.023823 4.10738,1.860357 3.01111,0.02013 6.02235,0.02994 9.03348,0.006 3.67197,-0.05627 7.36016,-0.138122 10.99166,-0.737102 3.80858,-0.740396 7.44183,-1.981484 11.16011,-3.06576 -1.09288,0.704601 -2.23743,1.334871 -3.27864,2.113803 -0.48811,0.36516 1.11831,-0.506662 1.61071,-0.866016 2.27336,-1.659088 3.03677,-4.636103 3.14473,-7.285554 -0.56403,-5.792013 -1.56,-11.536374 -3.61035,-17.009537 -2.04092,-5.871845 -3.9108,-11.775804 -6.81257,-17.306975 0,0 4.91392,-2.7979111 4.91392,-2.7979111 z" />
    <path
       style="fill:#000000;fill-opacity:1;fill-rule:nonzero;stroke:none"
       id="path3512"
       d="m 568.54506,-11.045341 c 1.25136,6.51894 1.7934,13.1423813 2.18419,19.7597447 -0.0264,4.1220653 -0.90536,8.1526133 -1.67664,12.1797853 0,0 -5.07959,2.46604 -5.07959,2.46604 l 0,0 c 0.79425,-3.995175 1.71325,-7.990643 1.79769,-12.083117 -0.37259,-6.5755103 -0.87478,-13.1675751 -2.20367,-19.63044 0,0 4.97802,-2.692013 4.97802,-2.692013 z" />
    <path
       style="fill:#000000;fill-opacity:1;fill-rule:nonzero;stroke:none"
       id="path3514"
       d="m 713.44652,433.05564 c -5.83062,-1.64601 -11.57496,-1.17555 -17.23182,0.78934 -0.91054,0.39542 -2.02424,1.8827 -2.73163,1.18625 -0.69116,-0.68048 1.62112,-1.35762 2.5905,-1.32519 0.72389,0.0242 -1.17732,0.8522 -1.69863,1.35502 -1.46538,1.41341 -2.0685,2.85468 -2.37348,4.80891 -0.0736,4.72285 3.99254,6.79014 7.58026,8.8436 5.06135,2.95576 10.32236,3.21708 15.98697,2.68559 0,0 -4.51406,3.3399 -4.51406,3.3399 l 0,0 c -5.73908,0.46031 -11.08222,0.0256 -16.17819,-2.96739 -3.79684,-2.17404 -7.88662,-4.47934 -7.93975,-9.40203 0.70011,-6.77269 8.12528,-9.59911 13.68871,-11.95188 5.76734,-1.85305 11.58365,-2.20815 17.47969,-0.57542 0,0 -4.65857,3.2133 -4.65857,3.2133 z" />
    <path
       style="fill:#000000;fill-opacity:1;fill-rule:nonzero;stroke:none"
       id="path3516"
       d="m 685.37317,357.93188 c -0.0664,9.66061 -0.0685,19.32161 -0.0769,28.98242 -0.41228,13.03196 -1.95692,26.00625 -5.18317,38.64188 -1.82151,8.21114 -5.19523,15.63201 -10.65101,22.01067 0,0 -5.17327,2.18433 -5.17327,2.18433 l 0,0 c 5.57789,-6.27462 9.03883,-13.61711 10.88108,-21.83191 3.29505,-12.58145 4.83694,-25.5243 5.24813,-38.51938 -0.008,-9.63469 -0.0104,-19.26957 -0.0769,-28.90405 0,0 5.03205,-2.56396 5.03205,-2.56396 z" />
    <path
       style="fill:#000000;fill-opacity:1;fill-rule:nonzero;stroke:none"
       id="path3518"
       d="m 629.32914,418.30162 c 5.60464,-1.10971 11.31844,-2.11959 17.04224,-1.76894 5.02055,0.42768 9.25112,2.0816 11.67641,6.60839 1.82879,5.57199 0.35352,11.78555 -1.4967,17.17552 -1.42235,3.06852 -2.98814,6.06683 -4.53689,9.07244 0,0 -5.10053,2.29874 -5.10053,2.29874 l 0,0 c 1.55699,-2.98718 3.10493,-5.97918 4.58244,-9.0068 1.87043,-5.21844 3.35215,-11.29974 1.66406,-16.7392 -2.32735,-4.36124 -6.55241,-5.76326 -11.3409,-6.13795 -5.71236,-0.24591 -11.41314,0.73275 -16.98574,1.9354 0,0 4.49561,-3.4376 4.49561,-3.4376 z" />
    <path
       style="fill:#000000;fill-opacity:1;fill-rule:nonzero;stroke:none"
       id="path3520"
       d="m 630.78161,406.22103 c -2.40037,5.57136 -3.41886,11.53775 -4.9061,17.37303 -1.4046,6.10008 -4.0443,11.7949 -6.40389,17.5619 -1.12076,2.8012 -2.64133,5.22471 -4.71828,7.38905 0,0 -5.2171,2.1619 -5.2171,2.1619 l 0,0 c 2.15399,-2.07878 3.7206,-4.39925 4.84457,-7.20233 2.37203,-5.74665 5.02598,-11.42161 6.45293,-17.50009 1.51928,-5.80645 2.42955,-11.78939 4.84398,-17.33848 0,0 5.10389,-2.44498 5.10389,-2.44498 z" />
    <path
       style="fill:#000000;fill-opacity:1;fill-rule:nonzero;stroke:none"
       id="path3522"
       d="m 535.04343,412.58733 c 6.52186,-2.34422 13.30643,-3.58602 20.15272,-4.48256 6.06206,-0.76191 10.94017,-0.52495 14.10067,5.15639 2.49024,6.31897 1.00796,12.89842 -0.95197,19.1389 -2.93782,8.52422 -8.14002,15.83516 -13.79398,22.74173 -4.39886,6.21164 -10.11332,9.65916 -16.5912,13.41563 0,0 4.36552,-3.5329 4.36552,-3.5329 l 0,0 c -0.86735,0.51268 -1.85258,2.21139 -2.60205,1.53802 -0.73708,-0.66224 1.68519,-1.05 2.46549,-1.66071 2.775,-2.17187 4.92846,-4.97969 7.25942,-7.58831 5.66144,-6.84145 10.90638,-14.07447 13.86857,-22.54409 1.96842,-6.07278 3.48322,-12.5178 1.10581,-18.7044 -3.033,-5.45258 -7.98498,-5.33041 -13.69362,-4.62408 -6.86432,0.91362 -13.63591,2.2631 -20.18099,4.58399 0,0 4.49561,-3.43761 4.49561,-3.43761 z" />
    <path
       style="fill:#000000;fill-opacity:1;fill-rule:nonzero;stroke:none"
       id="path3524"
       d="m 493.9446,406.50331 c -0.0567,7.76171 -0.0551,15.52384 -0.0342,23.2857 0,0 -4.96367,2.52912 -4.96367,2.52912 l 0,0 c 0.0208,-7.75025 0.0227,-15.50077 -0.0342,-23.25087 0,0 5.03205,-2.56395 5.03205,-2.56395 z" />
    <path
       style="fill:#000000;fill-opacity:1;fill-rule:nonzero;stroke:none"
       id="path3526"
       d="m 244.95657,696.70846 c -4.89908,1.47493 -9.29297,1.12575 -13.75723,-1.3421 -4.60715,-3.6751 -5.9893,-8.98525 -7.02962,-14.5196 -0.78375,-6.7918 1.32405,-12.17797 5.41978,-17.42057 5.52796,-7.06004 12.83487,-11.48156 20.52222,-15.81901 5.65564,-2.70329 11.3738,-3.00231 17.36433,-1.49259 5.59155,1.4144 9.31215,5.18001 12.08053,10.04903 2.36136,4.29303 2.70019,9.12685 2.95348,13.91283 0.40594,4.19385 -0.31247,8.22271 -1.96343,12.07285 -2.53124,5.68989 -8.32965,7.7897 -13.5186,10.63593 -3.41591,1.8052 -7.08327,2.77396 -10.88368,3.29694 -2.93889,0.59531 -5.2868,0.0651 -7.79891,-1.49426 -0.43288,-0.30725 -0.86575,-0.61451 -1.29862,-0.92177 0,0 4.76816,-3.03642 4.76816,-3.03642 l 0,0 c 0.42505,0.29583 0.85011,0.59166 1.27516,0.88749 2.46493,1.41813 4.77219,1.74571 7.57998,1.17721 3.76197,-0.56214 7.37985,-1.62049 10.74311,-3.44298 0.61978,-0.33685 2.43441,-1.41907 1.85934,-1.01054 -7.26124,5.15842 1.68149,-1.16855 2.14624,-3.74469 1.7413,-3.74101 2.47135,-7.71559 2.09078,-11.84071 -0.21584,-4.70294 -0.52682,-9.45819 -2.81139,-13.69129 -2.70414,-4.76029 -6.3608,-8.33349 -11.82863,-9.66689 -5.93939,-1.37251 -11.57998,-0.95026 -17.1115,1.81338 0.64357,-0.41427 2.55012,-1.6924 1.93071,-1.24282 -4.67217,3.39121 -9.34417,6.7645 -12.95911,11.36005 -4.11894,5.10222 -6.34922,10.26332 -5.62768,16.99018 0.99054,5.36591 2.28197,10.55702 6.80817,14.06942 4.43702,2.32882 8.75802,2.46597 13.54202,0.98333 0,0 -4.49561,3.4376 -4.49561,3.4376 z" />
    <path
       style="fill:#000000;fill-opacity:1;fill-rule:nonzero;stroke:none"
       id="path3528"
       d="m 290.67086,693.85132 c -4.72867,1.48563 -8.93203,0.22522 -13.02176,-2.17061 -3.00333,-2.28478 -4.9924,-5.51946 -6.81748,-8.76551 -1.25168,-2.62018 -1.69987,-5.47523 -1.8955,-8.34361 -0.10692,-2.97649 -0.0668,-5.95556 -0.0566,-8.93324 0.0124,-3.08621 -0.3748,-6.05413 1.11924,-8.84188 1.9772,-3.13144 4.57275,-5.91141 7.71018,-7.89208 4.71799,-2.64185 9.06212,-5.58083 14.38818,-6.62583 4.36802,-0.85909 8.55709,0.96689 12.28255,3.0879 4.07215,2.79718 6.64365,6.20746 8.34549,10.79173 1.00455,3.65848 1.55781,7.49943 0.97013,11.26366 -0.64671,4.38651 -3.72261,7.30105 -6.77864,10.18698 -3.98849,3.60417 -9.11284,5.42886 -13.78503,7.91651 -1.65203,0.94164 -3.30924,0.83611 -5.07781,0.41452 0,0 4.66232,-3.24129 4.66232,-3.24129 l 0,0 c 1.71878,0.31336 3.27003,0.20685 4.82271,-0.71263 1.25832,-0.65006 1.63499,-0.86747 2.95414,-1.45218 0.46607,-0.2066 1.81621,-0.89783 1.41251,-0.58649 -6.75272,5.20788 -1.73963,0.51288 -0.20086,-0.19418 2.96219,-2.84969 6.25298,-5.52275 6.92003,-9.85688 0.70659,-3.6515 0.0876,-7.43135 -0.82495,-11.00624 -1.62081,-4.476 -4.13913,-7.76985 -8.13139,-10.45501 -3.70623,-2.03858 -7.76573,-3.70618 -12.06098,-2.75012 -1.61299,0.36171 -2.15997,0.41323 -3.66588,1.01389 -1.79018,0.71406 -8.7841,4.87789 -0.96442,0.17498 -3.209,1.80266 -5.79684,4.57875 -7.81234,7.62992 -1.72043,2.61869 -1.20786,5.54626 -1.24207,8.56838 -0.0202,2.9648 -0.0519,5.9312 0.0448,8.89497 0.16995,2.79001 0.55183,5.5747 1.76176,8.12957 1.7596,3.16459 3.69851,6.32633 6.64097,8.51985 4.05208,2.33066 8.18596,3.29189 12.79629,1.79732 0,0 -4.49561,3.4376 -4.49561,3.4376 z" />
    <path
       style="fill:#000000;fill-opacity:1;fill-rule:nonzero;stroke:none"
       id="path3530"
       d="m 317.98206,664.81158 c 5.78455,1.3578 11.71727,1.84275 17.63413,2.17381 7.19075,-0.10225 14.25634,1.22165 21.36893,2.0775 6.72108,0.764 13.48999,0.93729 20.24761,1.05359 4.53168,-0.11873 8.94795,1.15756 13.33474,2.15062 1.07684,0.24943 2.15628,0.4887 3.22825,0.75859 -4.82569,2.59446 -4.79966,3.79742 -4.85937,0.33607 0,0 5.05357,-2.58571 5.05357,-2.58571 l 0,0 c 0.0572,3.43886 0.16897,2.61749 -4.89717,5.48678 -1.05437,-0.27238 -2.11338,-0.5264 -3.17323,-0.77651 -4.34653,-1.01205 -8.72646,-2.22712 -13.22662,-2.08464 -6.76087,-0.14104 -13.53368,-0.33817 -20.25635,-1.11736 -7.10352,-0.87137 -14.16949,-2.12931 -21.35217,-2.04539 -5.96095,-0.34174 -11.92883,-0.87235 -17.7609,-2.21405 0,0 4.65858,-3.2133 4.65858,-3.2133 z" />
    <path
       style="fill:#000000;fill-opacity:1;fill-rule:nonzero;stroke:none"
       id="path3532"
       d="m 389.15157,645.62369 c 4.13022,3.98161 9.27492,6.31987 14.28055,8.93533 3.66713,1.85122 7.33157,3.69247 10.9136,5.71149 2.45666,1.09834 2.17005,1.97999 0.48999,3.96652 -8.9047,6.22256 -4.79106,3.3766 -11.91395,7.61261 -6.29162,3.94077 -12.74349,7.62278 -18.95758,11.68518 -5.39265,2.99003 -10.25812,6.79373 -15.42505,10.12223 -1.98386,-2.91291 -7.92287,7.7961 -10.68694,4.49391 0.0342,-1.32504 -0.089,-0.68412 0.36713,-1.92322 0,0 5.15613,-2.37627 5.15613,-2.37627 l 0,0 c -0.46858,0.99852 -0.24815,0.55088 -0.65251,1.34721 1.09575,1.03156 8.26746,-4.3767 0.57559,0.49416 5.23654,-3.24665 10.02892,-7.20959 15.48295,-10.13401 6.1861,-4.09009 12.64898,-7.7349 18.9165,-11.69847 4.03109,-2.35655 7.9241,-4.82622 11.99818,-7.14377 0.97405,-0.55409 -1.87257,1.24841 -2.89111,1.71571 -1.04472,0.47932 3.43523,-2.21745 2.8144,-1.99248 1.90223,-2.11886 2.53441,-1.66309 -0.0193,-3.0832 -3.5534,-2.04049 -7.21851,-3.84689 -10.85651,-5.72399 -5.06208,-2.63136 -10.20429,-5.09426 -14.41603,-9.0528 0,0 4.82399,-2.95614 4.82399,-2.95614 z" />
    <path
       style="fill:#000000;fill-opacity:1;fill-rule:nonzero;stroke:none"
       id="path3534"
       d="m 419.97363,597.52609 c 1.53634,7.72545 3.17808,15.43046 5.02872,23.08878 1.17407,6.16713 2.64288,12.23374 4.73158,18.15658 0.46028,0.69551 0.72593,3.82398 1.87505,2.45691 -1.43878,0.71059 -2.75506,1.76105 -4.31633,2.13177 -0.49244,0.11692 0.51915,-0.86921 0.79265,-1.29509 1.95147,-3.03875 0.4461,-0.51527 2.7435,-4.19737 1.52468,-2.44363 2.99303,-4.92197 4.49273,-7.38101 6.64917,-11.3483 14.18226,-22.14488 21.7505,-32.89167 4.846,-6.77651 9.62376,-13.57973 15.1953,-19.78733 0.9146,-1.11558 2.28826,-1.78128 2.45574,-3.25263 0.0375,-1.71608 0.0296,-0.84527 0.0217,-2.61243 0,0 5.0428,-2.57387 5.0428,-2.57387 l 0,0 c 0.0169,1.78117 0.0122,0.90116 0.0147,2.64002 -0.0423,1.84519 -0.98202,2.3072 -2.33852,3.6175 -5.6829,6.17049 -10.51613,12.98462 -15.39134,19.79667 -7.57261,10.71037 -15.0964,21.48495 -21.70065,32.82823 -1.16005,1.92414 -6.21959,11.45931 -7.88113,12.82466 -1.6714,1.37345 -3.55243,2.46981 -5.32864,3.70472 -1.75522,0.16718 -1.80327,-2.01152 -2.36724,-3.28144 -2.02777,-5.96733 -3.52291,-12.05463 -4.67194,-18.25086 -1.83774,-7.64969 -3.47197,-15.34115 -5.12722,-23.03013 0,0 4.97802,-2.69201 4.97802,-2.69201 z" />
    <path
       style="fill:#000000;fill-opacity:1;fill-rule:nonzero;stroke:none"
       id="path3536"
       d="m 221.28918,762.9698 c 5.72198,-6.7872 10.70513,-14.1332 16.04551,-21.21534 6.4184,-8.61622 12.54775,-17.43815 19.02747,-26.00873 1.79794,-1.90781 5.38791,-8.86296 7.93355,-9.80845 1.6976,-0.63051 3.46902,-1.04094 5.20353,-1.56141 -0.48135,3.16179 -0.8369,6.32437 -1.0267,9.51985 -0.26879,6.18939 -0.26395,12.38695 -0.28146,18.58096 -5e-4,7.33536 0.29083,14.63853 -0.78358,21.91089 -0.53847,3.26557 -1.12683,6.52362 -1.80379,9.7635 0.0102,-0.11372 0.13618,-0.3843 0.0305,-0.34116 -1.55253,0.63362 -2.91296,1.75032 -4.53405,2.17914 -0.39015,0.1032 0.3229,-0.73974 0.4868,-1.10854 1.00417,-2.25954 1.7963,-4.59222 2.68667,-6.90021 3.75913,-7.98308 7.47697,-16.01243 11.5123,-23.86665 3.30753,-6.45921 7.377,-12.33016 12.2009,-17.72928 1.31297,-1.59093 7.93516,-8.34358 8.84414,-3.94519 0.23728,4.97833 0.0623,9.97563 0.0202,14.95947 -0.0586,7.16245 -0.077,14.32525 -0.0667,21.48793 0.005,3.74191 0.005,7.48386 0.0281,11.22572 0.0841,0.0708 0.35387,0.17053 0.25223,0.21233 -6.65944,2.73911 -3.96202,1.25226 -3.15529,-3.41847 0,0 5.0401,-2.46468 5.0401,-2.46468 l 0,0 c -0.35785,2.2545 -2.33793,13.0291 -7.1924,8.24673 0.0217,-3.75353 0.0245,-7.50712 0.0385,-11.26068 0.0313,-7.16616 0.0448,-14.3324 0.0804,-21.49855 0.0308,-4.9377 0.15412,-9.8842 -0.0539,-14.81803 -0.47515,-2.77242 -0.41626,-0.80798 4.63524,-4.1206 0.0375,-0.0246 -3.38841,3.08492 -3.28924,3.21699 -4.88688,5.35081 -9.0192,11.17111 -12.34078,17.63331 -4.05425,7.81148 -7.70136,15.84239 -11.4771,23.78454 -0.92194,2.3815 -4.00702,14.3974 -8.87042,10.99881 0.74279,-3.23551 1.34862,-6.50135 1.90604,-9.77331 1.15255,-7.24721 0.85591,-14.52672 0.84311,-21.8471 0.0104,-6.19367 -0.0252,-12.39061 0.21469,-18.58078 0.16588,-3.16752 0.41682,-6.32036 1.00439,-9.44078 1.7081,-1.03912 3.41737,-2.07633 5.12431,-3.11737 0.33012,-0.20134 -0.70394,0.34238 -0.99385,0.59825 -2.87377,2.53633 -4.85175,6.0762 -7.12636,9.09303 -6.52637,8.55285 -12.65821,17.38872 -19.07128,26.02581 -5.32171,7.04138 -10.23371,14.38163 -15.90518,21.15299 0,0 -5.18651,2.23506 -5.18651,2.23506 z" />
  </g>
</svg>
