<?xml version="1.0" encoding="UTF-8" standalone="no"?>
<!-- Created with Inkscape (http://www.inkscape.org/) -->
<svg
   xmlns:dc="http://purl.org/dc/elements/1.1/"
   xmlns:cc="http://creativecommons.org/ns#"
   xmlns:rdf="http://www.w3.org/1999/02/22-rdf-syntax-ns#"
   xmlns:svg="http://www.w3.org/2000/svg"
   xmlns="http://www.w3.org/2000/svg"
   xmlns:sodipodi="http://sodipodi.sourceforge.net/DTD/sodipodi-0.dtd"
   xmlns:inkscape="http://www.inkscape.org/namespaces/inkscape"
   width="738.53333"
   height="363.22562"
   id="svg2"
   sodipodi:version="0.32"
   inkscape:version="0.46+devel"
   sodipodi:docname="c49d2.svg"
   version="1.0"
   inkscape:output_extension="org.inkscape.output.svg.inkscape">
  <sodipodi:namedview
     id="base"
     pagecolor="#ffffff"
     bordercolor="#666666"
     borderopacity="1.0"
     inkscape:pageopacity="0.0"
     inkscape:pageshadow="2"
     inkscape:zoom="0.9698324"
     inkscape:cx="139.79737"
     inkscape:cy="137.75688"
     inkscape:document-units="px"
     inkscape:current-layer="layer1"
     showgrid="false"
     inkscape:window-width="1280"
     inkscape:window-height="712"
     inkscape:window-x="-5"
     inkscape:window-y="-3" />
  <defs
     id="defs4">
    <marker
       inkscape:stockid="Arrow1Lend"
       orient="auto"
       refY="0.0"
       refX="0.0"
       id="Arrow1Lend"
       style="overflow:visible;">
      <path
         id="path4019"
         d="M 0.0,0.0 L 5.0,-5.0 L -12.5,0.0 L 5.0,5.0 L 0.0,0.0 z "
         style="fill-rule:evenodd;stroke:#000000;stroke-width:1.0pt;marker-start:none;"
         transform="scale(0.8) rotate(180) translate(12.5,0)" />
    </marker>
    <inkscape:perspective
       id="perspective10"
       inkscape:persp3d-origin="372.04724 : 350.78739 : 1"
       inkscape:vp_z="744.09448 : 526.18109 : 1"
       inkscape:vp_y="0 : 1000 : 0"
       inkscape:vp_x="0 : 526.18109 : 1"
       sodipodi:type="inkscape:persp3d" />
    <inkscape:perspective
       id="perspective4469"
       inkscape:persp3d-origin="0.5 : 0.33333333 : 1"
       inkscape:vp_z="1 : 0.5 : 1"
       inkscape:vp_y="0 : 1000 : 0"
       inkscape:vp_x="0 : 0.5 : 1"
       sodipodi:type="inkscape:persp3d" />
    <marker
       inkscape:stockid="Arrow1Lend"
       orient="auto"
       refY="0"
       refX="0"
       id="Arrow1Lend-2"
       style="overflow:visible">
      <path
         id="path4019-6"
         d="M 0,0 5,-5 -12.5,0 5,5 0,0 z"
         style="fill-rule:evenodd;stroke:#000000;stroke-width:1pt;marker-start:none"
         transform="matrix(-0.8,0,0,-0.8,-10,0)" />
    </marker>
    <inkscape:perspective
       id="perspective4497"
       inkscape:persp3d-origin="0.5 : 0.33333333 : 1"
       inkscape:vp_z="1 : 0.5 : 1"
       inkscape:vp_y="0 : 1000 : 0"
       inkscape:vp_x="0 : 0.5 : 1"
       sodipodi:type="inkscape:persp3d" />
    <marker
       inkscape:stockid="Arrow1Lend"
       orient="auto"
       refY="0"
       refX="0"
       id="Arrow1Lend-4"
       style="overflow:visible">
      <path
         id="path4019-9"
         d="M 0,0 5,-5 -12.5,0 5,5 0,0 z"
         style="fill-rule:evenodd;stroke:#000000;stroke-width:1pt;marker-start:none"
         transform="matrix(-0.8,0,0,-0.8,-10,0)" />
    </marker>
    <inkscape:perspective
       id="perspective4525"
       inkscape:persp3d-origin="0.5 : 0.33333333 : 1"
       inkscape:vp_z="1 : 0.5 : 1"
       inkscape:vp_y="0 : 1000 : 0"
       inkscape:vp_x="0 : 0.5 : 1"
       sodipodi:type="inkscape:persp3d" />
    <marker
       inkscape:stockid="Arrow1Lend"
       orient="auto"
       refY="0"
       refX="0"
       id="Arrow1Lend-0"
       style="overflow:visible">
      <path
         id="path4019-4"
         d="M 0,0 5,-5 -12.5,0 5,5 0,0 z"
         style="fill-rule:evenodd;stroke:#000000;stroke-width:1pt;marker-start:none"
         transform="matrix(-0.8,0,0,-0.8,-10,0)" />
    </marker>
  </defs>
  <metadata
     id="metadata7">
    <rdf:RDF>
      <cc:Work
         rdf:about="">
        <dc:format>image/svg+xml</dc:format>
        <dc:type
           rdf:resource="http://purl.org/dc/dcmitype/StillImage" />
        <dc:title></dc:title>
      </cc:Work>
    </rdf:RDF>
  </metadata>
  <g
     id="layer1"
     inkscape:groupmode="layer"
     inkscape:label="Layer 1"
     transform="translate(1.3353858,-231.17917)">
    <path
       d="m 199.4191,421.79609 c 0.56525,4.38585 0.90719,8.79604 1.2389,13.20439 0.35164,6.22881 0.76284,12.4452 1.43721,18.64807 0.56436,4.9496 1.15077,9.89663 1.74628,14.84256 0.29801,2.46933 0.60033,4.93813 0.90778,7.4063 -0.005,1.38923 0.47958,-0.30422 0.40177,-0.2686 -8.92923,4.0878 -10.44961,7.46629 -7.91845,2.9487 2.1856,-3.99873 4.0267,-8.16798 5.91152,-12.31242 2.00863,-4.40848 3.93887,-8.85273 5.84993,-13.30431 1.64579,-3.71083 2.95727,-7.54515 3.9855,-11.4684 0,0 10.22113,-4.88819 10.22113,-4.88819 l 0,0 c -1.00203,3.97885 -2.26265,7.87958 -3.93318,11.634 -1.89727,4.46705 -3.85681,8.90851 -5.84672,13.33491 -1.90845,4.1402 -3.68618,8.3444 -5.84531,12.36509 -2.32472,4.45097 -10.2407,13.12158 -12.91022,7.24939 -0.28418,-2.47925 -0.56841,-4.95848 -0.85279,-7.4377 -0.56879,-4.95841 -1.13932,-9.91662 -1.70573,-14.87531 -0.67184,-6.21403 -1.10638,-12.4393 -1.45506,-18.67937 -0.33714,-4.36954 -0.67482,-8.74454 -1.3098,-13.08306 0,0 10.07724,-5.31605 10.07724,-5.31605 z"
       id="path2710"
       style="fill:#000000;fill-opacity:1;fill-rule:nonzero;stroke:none" />
    <path
       d="m 280.87462,502.64839 c 1.83709,-2.71065 4.17465,-4.98345 6.85507,-6.84378 3.13381,-1.65561 12.3501,-10.40994 16.70656,-4.64867 1.4875,3.31719 -0.17489,6.48965 -1.85386,9.36989 -4.37762,6.6776 -10.9349,9.1296 -17.93127,13.02624 -2.84614,0.82839 -4.58325,-0.48066 -5.07358,-3.26433 -0.0403,-3.11006 1.94997,-5.34725 4.12167,-7.31683 4.87858,-2.9982 10.89533,-9.25419 17.29418,-7.79624 2.17988,1.18023 2.13785,3.35194 1.31388,5.39359 -3.36777,4.88429 -9.52975,9.12102 -15.57332,8.79021 -2.47431,-0.77875 -2.79852,-3.08512 -2.54344,-5.34915 0.58428,-2.84276 2.22293,-5.03811 4.40913,-6.85776 3.83896,-2.24228 12.04548,-10.24908 16.12995,-4.01154 1.12505,2.87845 0.0653,5.7697 -1.28179,8.36296 -3.66445,4.78396 -10.51732,10.9759 -16.64777,8.45227 -2.16186,-1.75358 -2.02721,-4.269 -1.2017,-6.68227 2.4636,-4.6785 10.13375,-11.48795 15.02914,-8.04365 1.38253,1.45148 1.38503,3.33589 0.21359,4.8942 0,0 -10.57536,4.23901 -10.57536,4.23901 l 0,0 c 1.27692,-0.50324 1.91267,-1.91699 0.799,-2.97163 -3.82779,-2.02325 -0.93813,-0.21554 8.00205,-6.03609 1.24658,-0.8116 -4.59466,3.51171 -3.14886,3.16202 -0.80441,1.59747 -1.54951,3.86971 0.28606,5.04015 4.30879,0.88805 6.97381,-3.06163 -6.37344,5.36303 -0.75951,0.4794 3.50893,-2.15934 3.25261,-2.79418 1.32804,-2.13178 2.55774,-4.68072 1.83048,-7.23644 -2.95613,-4.36963 -13.64499,5.1213 4.23826,-5.94166 -2.23427,1.54143 -3.96954,3.38686 -4.75022,6.0575 -0.32369,1.55199 -0.5937,3.52319 1.51523,3.64317 0.7099,-0.0861 2.69827,-0.83552 2.09838,-0.44628 -16.21877,10.52381 -8.62816,5.94225 -6.07807,3.04225 0.76164,-1.15042 1.61373,-2.98158 -0.24859,-3.52192 -1.15192,-0.0751 -2.08803,0.0435 -3.18444,0.46228 -0.44789,0.17108 -1.71946,0.84282 -1.31103,0.59171 16.45838,-10.119 9.81789,-5.86531 7.02412,-4.06519 -2.06154,1.6518 -4.20815,3.51175 -4.57217,6.28379 0.15733,2.42234 1.93871,2.28286 3.8953,1.50268 -17.00327,10.06519 -4.14021,3.27283 -1.31576,-1.38998 1.51954,-2.38175 3.45578,-5.18744 2.44336,-8.1239 -3.17034,-3.79578 -14.6514,5.90618 3.63442,-5.29239 -2.76798,1.62205 -5.10116,3.79227 -6.99032,6.39019 0,0 -10.43745,4.56674 -10.43745,4.56674 z"
       id="path2712"
       style="fill:#000000;fill-opacity:1;fill-rule:nonzero;stroke:none" />
    <path
       d="m 282.367,514.56819 c 3.83287,-0.50476 7.67927,-0.88566 11.53003,-1.22233 5.12233,-0.48385 10.24619,-0.79887 15.39069,-0.68702 2.49472,0.0803 4.98492,0.25086 7.47476,0.41944 0,0 -9.18639,6.58194 -9.18639,6.58194 l 0,0 c -2.47738,-0.16035 -4.95532,-0.32217 -7.43796,-0.37635 -5.12135,-0.0537 -10.22348,0.3078 -15.32144,0.78497 -3.86594,0.35998 -7.72957,0.75713 -11.57126,1.32638 0,0 9.12157,-6.82703 9.12157,-6.82703 z"
       id="path2730"
       style="fill:#000000;fill-opacity:1;fill-rule:nonzero;stroke:none" />
    <path
       d="m 370.98655,514.72791 c 3.76221,0.14845 7.50703,-0.15564 11.25276,-0.46446 3.63424,-0.31942 7.27041,-0.61572 10.90685,-0.90878 0,0 -9.07444,6.70536 -9.07444,6.70536 l 0,0 c -3.6406,0.29468 -7.28014,0.60129 -10.91887,0.91819 -3.7901,0.30257 -7.57957,0.52878 -11.38411,0.44681 0,0 9.21781,-6.69712 9.21781,-6.69712 z"
       id="path2732"
       style="fill:#000000;fill-opacity:1;fill-rule:nonzero;stroke:none" />
    <path
       d="m 473.84369,509.01362 c 4.10645,-0.089 8.20605,-0.55955 12.29781,-0.9235 5.54964,-0.56689 11.14028,-0.38115 16.70593,-0.22077 0.9243,0.0324 1.84859,0.0648 2.77289,0.0972 0,0 -9.15125,6.60087 -9.15125,6.60087 l 0,0 c -0.92158,-0.031 -1.84315,-0.0621 -2.76473,-0.0931 -5.5461,-0.14156 -11.11176,-0.2687 -16.63805,0.33348 -4.13931,0.37023 -8.282,0.85287 -12.4404,0.90295 0,0 9.2178,-6.69713 9.2178,-6.69713 z"
       id="path2734"
       style="fill:#000000;fill-opacity:1;fill-rule:nonzero;stroke:none" />
    <path
       d="m 568.2633,509.16748 c 4.54403,0.57111 9.11032,0.93801 13.67586,1.28514 0.98442,0.0694 1.96883,0.13872 2.95325,0.20808 0,0 -9.16718,6.56144 -9.16718,6.56144 l 0,0 c -0.9858,-0.0707 -1.97161,-0.14144 -2.95741,-0.21216 -4.60618,-0.35189 -9.21105,-0.73195 -13.80058,-1.26356 0,0 9.29606,-6.57894 9.29606,-6.57894 z"
       id="path2736"
       style="fill:#000000;fill-opacity:1;fill-rule:nonzero;stroke:none" />
    <path
       d="m 648.69697,500.97912 c 3.73741,1.2119 7.58605,2.03161 11.44183,2.76108 3.82559,0.69675 7.68805,1.141 11.55478,1.52992 0,0 -9.21671,6.55214 -9.21671,6.55214 l 0,0 c -3.88684,-0.41379 -7.769,-0.88468 -11.6123,-1.60978 -3.89999,-0.76361 -7.79061,-1.6175 -11.57288,-2.85197 0,0 9.40528,-6.38139 9.40528,-6.38139 z"
       id="path2738"
       style="fill:#000000;fill-opacity:1;fill-rule:nonzero;stroke:none" />
    <path
       d="m 708.1383,502.99979 c 4.93192,-1.04274 9.9142,-1.83144 14.8738,-2.73291 4.75567,-0.79863 9.46992,-1.82253 14.18581,-2.82448 0,0 -8.95364,6.79456 -8.95364,6.79456 l 0,0 c -4.72608,0.99361 -9.4521,1.99592 -14.21394,2.80649 -4.98681,0.91297 -10.00698,1.68729 -14.9381,2.87349 0,0 9.04607,-6.91715 9.04607,-6.91715 z"
       id="path2740"
       style="fill:#000000;fill-opacity:1;fill-rule:nonzero;stroke:none" />
    <path
       d="m 437.46014,452.51555 c 4.96493,1.70223 9.77302,3.83266 14.50411,6.09587 6.34995,2.99127 12.06248,7.01901 17.44294,11.48455 4.83292,4.09244 8.92654,8.76523 11.65163,14.49196 2.07478,4.88417 2.06769,10.01363 1.15244,15.14197 -0.44389,2.15184 -1.21862,4.20153 -2.00853,6.24265 0,0 -10.27787,4.75255 -10.27787,4.75255 l 0,0 c 0.82073,-1.97823 1.62732,-3.96503 2.12001,-6.05748 1.02172,-4.8891 1.13714,-9.81223 -0.80642,-14.5176 -2.61761,-5.59489 -6.65595,-10.11294 -11.36318,-14.08782 -5.33661,-4.38992 -11.00777,-8.33197 -17.30556,-11.24087 -4.73646,-2.22171 -9.54462,-4.31471 -14.51927,-5.95057 0,0 9.4097,-6.35521 9.4097,-6.35521 z"
       id="path2742"
       style="fill:#000000;fill-opacity:1;fill-rule:nonzero;stroke:none" />
    <path
       d="m 343.08926,395.38277 c 3.90562,1.64058 7.74765,3.43186 11.54654,5.30606 4.25774,2.09107 8.2189,4.67149 12.06215,7.43362 3.40406,2.5527 6.27359,5.7024 9.0073,8.93926 2.60798,3.18814 4.94543,6.55419 6.94029,10.15635 2.06799,3.59072 3.69032,7.37518 4.95021,11.31549 1.22357,4.58401 2.18583,9.23831 3.06428,13.90007 1.04143,5.53254 1.5663,11.13974 2.00439,16.74638 0.42279,5.72861 0.62989,11.46921 0.79144,17.21008 0.078,3.44657 0.0426,1.74719 0.10675,5.09814 0,0 -10.0584,5.14706 -10.0584,5.14706 l 0,0 c -0.0523,-3.34917 -0.022,-1.65113 -0.0917,-5.0941 -0.14391,-5.72613 -0.34212,-11.4521 -0.75147,-17.16637 -0.42761,-5.56642 -0.94372,-11.13309 -1.96846,-16.62701 -0.8655,-4.61763 -1.83391,-9.22187 -3.01832,-13.76834 -1.22254,-3.87448 -2.81122,-7.59285 -4.84606,-11.11738 -1.95507,-3.53945 -4.25685,-6.84022 -6.82572,-9.96459 -2.68265,-3.16144 -5.49541,-6.24029 -8.85144,-8.70824 -3.80159,-2.72161 -7.73983,-5.23471 -11.9542,-7.28029 -3.78805,-1.85215 -7.61817,-3.63061 -11.53645,-5.19114 0,0 9.4289,-6.33505 9.4289,-6.33505 z"
       id="path2748"
       style="fill:#000000;fill-opacity:1;fill-rule:nonzero;stroke:none" />
    <g
       transform="translate(82.488479,47.430876)"
       id="g2781">
      <g
         style="font-style:normal;font-variant:normal;font-weight:normal;font-stretch:normal;letter-spacing:normal;word-spacing:normal;text-anchor:start;fill:none;stroke:#000000;stroke-linecap:butt;stroke-linejoin:miter;stroke-miterlimit:10.43299961;stroke-opacity:1;stroke-dasharray:none;stroke-dashoffset:0"
         word-spacing="normal"
         letter-spacing="normal"
         font-size-adjust="none"
         font-stretch="normal"
         font-weight="normal"
         font-variant="normal"
         font-style="normal"
         fill-rule="even-odd"
         stroke-miterlimit="10.433"
         xml:space="preserve"
         transform="matrix(1.0629921,0,0,-1.0629921,-186.02362,789.27165)"
         id="content"><path
           style="fill:#000000;stroke-width:0"
           id="path2784"
           d="m 479.76,417.76 0,0.36 -0.01,0.36 -0.02,0.34 -0.02,0.34 -0.07,0.66 -0.08,0.62 -0.12,0.6 -0.13,0.57 -0.15,0.54 -0.18,0.51 -0.19,0.48 -0.22,0.46 -0.22,0.43 -0.25,0.41 -0.26,0.38 -0.27,0.36 -0.29,0.33 -0.3,0.31 -0.3,0.29 -0.32,0.26 -0.33,0.24 -0.34,0.22 -0.34,0.2 -0.34,0.18 -0.36,0.16 -0.35,0.14 -0.36,0.13 -0.36,0.1 -0.36,0.09 -0.36,0.07 -0.36,0.05 -0.36,0.04 -0.35,0.02 -0.35,0.01 -0.05,-1.1 c 4.93,0 4.93,-6.53 4.93,-10.41 0,-1.84 0,-4.73 0.1,-5.58 h 0 c -4.38,-3.83 -8.22,-4.38 -10.21,-4.38 -2.99,0 -4.48,2.24 -4.48,5.43 0,2.44 1.29,7.82 2.89,10.36 2.34,3.64 5.03,4.58 6.77,4.58 l 0.05,1.1 c -6.82,0 -13.4,-7.13 -13.4,-14.15 0,-4.63 2.99,-8.42 8.07,-8.42 3.14,0 6.73,1.15 10.51,4.19 0.65,-2.64 2.29,-4.19 4.54,-4.19 2.64,0 4.18,2.74 4.18,3.54 0,0.35 -0.3,0.5 -0.6,0.5 -0.35,0 -0.5,-0.15 -0.65,-0.5 -0.89,-2.44 -2.68,-2.44 -2.79,-2.44 -1.54,0 -1.54,3.88 -1.54,5.08 0,1.05 0,1.14 0.5,1.74 4.68,5.88 5.73,11.66 5.73,11.71 0,0.1 -0.05,0.5 -0.6,0.5 -0.5,0 -0.5,-0.15 -0.75,-1.05 -0.89,-3.14 -2.54,-6.92 -4.88,-9.86 z" /></g>    </g>
    <g
       transform="translate(206.2212,116.51498)"
       id="g2852">
      <g
         style="font-style:normal;font-variant:normal;font-weight:normal;font-stretch:normal;letter-spacing:normal;word-spacing:normal;text-anchor:start;fill:none;stroke:#000000;stroke-linecap:butt;stroke-linejoin:miter;stroke-miterlimit:10.43299961;stroke-opacity:1;stroke-dasharray:none;stroke-dashoffset:0"
         id="g2854"
         transform="matrix(1.0629921,0,0,-1.0629921,-186.02362,789.27165)"
         xml:space="preserve"
         stroke-miterlimit="10.433"
         fill-rule="even-odd"
         font-style="normal"
         font-variant="normal"
         font-weight="normal"
         font-stretch="normal"
         font-size-adjust="none"
         letter-spacing="normal"
         word-spacing="normal"><path
           style="fill:#000000;stroke-width:0"
           d="m 478.66,430.91 0,0.31 -0.01,0.34 -0.01,0.36 -0.02,0.37 -0.03,0.38 -0.04,0.4 -0.05,0.41 -0.06,0.41 -0.06,0.42 -0.08,0.42 -0.09,0.43 -0.1,0.42 -0.11,0.43 -0.13,0.42 -0.13,0.41 -0.16,0.4 -0.17,0.4 -0.18,0.39 -0.2,0.37 -0.22,0.35 -0.23,0.34 -0.25,0.32 -0.27,0.3 -0.29,0.27 -0.31,0.25 -0.17,0.12 -0.16,0.11 -0.18,0.1 -0.17,0.09 -0.19,0.09 -0.19,0.07 -0.19,0.07 -0.2,0.06 -0.21,0.06 -0.21,0.04 -0.21,0.03 -0.23,0.03 -0.23,0.01 -0.23,0.01 -0.05,-1.1 c 2.44,0 2.74,-3.18 2.74,-6.02 0,-2.45 -0.4,-4.99 -1.59,-9.92 h -10.42 c 0.85,3.19 1.84,7.17 3.84,10.71 1.34,2.44 3.18,5.23 5.43,5.23 l 0.05,1.1 c -6.93,0 -14.6,-14.05 -14.6,-25.46 0,-4.68 1.45,-10.21 5.98,-10.21 v 1.1 c -1.64,0 -2.69,1.44 -2.69,6.07 0,2.1 0.3,4.99 1.59,9.87 h 10.37 c -0.55,-2.29 -1.6,-6.53 -3.49,-10.11 -1.74,-3.39 -3.64,-5.83 -5.78,-5.83 v -1.1 c 7.02,0 14.59,14.3 14.59,25.46 z"
           id="path2856" /></g>    </g>
    <g
       id="g2930"
       transform="translate(-268.08755,236.12327)">
      <g
         word-spacing="normal"
         letter-spacing="normal"
         font-size-adjust="none"
         font-stretch="normal"
         font-weight="normal"
         font-variant="normal"
         font-style="normal"
         fill-rule="even-odd"
         stroke-miterlimit="10.433"
         xml:space="preserve"
         transform="matrix(1.0629921,0,0,-1.0629921,-186.02362,789.27165)"
         id="g2932"
         style="font-style:normal;font-variant:normal;font-weight:normal;font-stretch:normal;letter-spacing:normal;word-spacing:normal;text-anchor:start;fill:none;stroke:#000000;stroke-linecap:butt;stroke-linejoin:miter;stroke-miterlimit:10.43299961;stroke-opacity:1;stroke-dasharray:none;stroke-dashoffset:0"><path
           id="path2934"
           d="m 460.38,408.94 -0.01,-0.07 -0.02,-0.08 -0.01,-0.07 -0.02,-0.08 -0.03,-0.16 -0.04,-0.16 -0.04,-0.16 -0.03,-0.16 -0.04,-0.16 -0.04,-0.16 -0.01,-0.08 -0.02,-0.07 -0.02,-0.07 -0.01,-0.07 -0.02,-0.07 -0.01,-0.07 -0.01,-0.06 -0.02,-0.06 -0.01,-0.05 -0.01,-0.06 -0.01,-0.05 0,-0.04 -0.01,-0.04 0,-0.04 -0.01,-0.03 0,-0.02 c 0,-0.9 0.7,-1.35 1.45,-1.35 0.6,0 1.5,0.4 1.84,1.4 0.05,0.1 0.65,2.44 0.95,3.68 0.35,1.5 0.75,2.99 1.1,4.49 0.29,1.09 0.59,2.19 0.84,3.34 0.2,0.84 0.6,2.28 0.65,2.48 0.75,1.55 3.39,6.08 8.12,6.08 2.24,0 2.69,-1.84 2.69,-3.49 0,-1.24 -0.35,-2.64 -0.75,-4.13 -0.6,-2.54 -0.84,-3.54 -1.39,-5.78 -0.5,-1.84 -0.55,-2.14 -1,-3.79 -0.2,-0.99 -0.64,-2.68 -0.64,-2.93 0,-0.9 0.69,-1.35 1.44,-1.35 1.54,0 1.84,1.25 2.24,2.84 0.7,2.79 2.54,10.07 2.99,12.01 0.15,0.65 2.79,6.62 8.22,6.62 2.14,0 2.69,-1.69 2.69,-3.49 0,-2.84 -2.1,-8.51 -3.09,-11.15 -0.45,-1.2 -0.65,-1.75 -0.65,-2.74 0,-2.34 1.75,-4.09 4.08,-4.09 4.69,0 6.53,7.28 6.53,7.67 0,0.5 -0.45,0.5 -0.6,0.5 -0.5,0 -0.5,-0.15 -0.74,-0.89 -0.75,-2.64 -2.35,-6.18 -5.08,-6.18 -0.85,0 -1.2,0.5 -1.2,1.64 0,1.25 0.45,2.44 0.9,3.54 0.94,2.59 3.03,8.12 3.03,10.96 0,3.24 -1.99,5.33 -5.72,5.33 -3.74,0 -6.28,-2.2 -8.12,-4.84 -0.05,0.65 -0.2,2.35 -1.6,3.54 -1.24,1.05 -2.84,1.3 -4.08,1.3 -4.48,0 -6.92,-3.19 -7.77,-4.34 -0.25,2.84 -2.34,4.34 -4.58,4.34 -2.3,0 -3.24,-1.95 -3.69,-2.84 -0.9,-1.75 -1.54,-4.68 -1.54,-4.83 0,-0.5 0.49,-0.5 0.59,-0.5 0.5,0 0.55,0.05 0.85,1.14 0.84,3.54 1.84,5.93 3.64,5.93 0.79,0 1.54,-0.4 1.54,-2.29 0,-1.04 -0.15,-1.59 -0.8,-4.18 z"
           style="fill:#000000;stroke-width:0" /></g>    </g>
    <g
       transform="translate(267.05645,22.684332)"
       id="g3013">
      <g
         style="font-style:normal;font-variant:normal;font-weight:normal;font-stretch:normal;letter-spacing:normal;word-spacing:normal;text-anchor:start;fill:none;stroke:#000000;stroke-linecap:butt;stroke-linejoin:miter;stroke-miterlimit:10.43299961;stroke-opacity:1;stroke-dasharray:none;stroke-dashoffset:0"
         id="g3015"
         transform="matrix(1.0629921,0,0,-1.0629921,-186.02362,789.27165)"
         xml:space="preserve"
         stroke-miterlimit="10.433"
         fill-rule="even-odd"
         font-style="normal"
         font-variant="normal"
         font-weight="normal"
         font-stretch="normal"
         font-size-adjust="none"
         letter-spacing="normal"
         word-spacing="normal"><path
           style="fill:#000000;stroke-width:0"
           d="m 458.04,418.65 0.1,0.27 0.09,0.25 0.11,0.25 0.11,0.24 0.11,0.23 0.11,0.23 0.12,0.22 0.13,0.21 0.13,0.2 0.13,0.19 0.13,0.19 0.14,0.18 0.28,0.35 0.29,0.31 0.3,0.29 0.31,0.27 0.31,0.25 0.32,0.22 0.31,0.2 0.32,0.18 0.32,0.17 0.31,0.14 0.32,0.13 0.3,0.11 0.3,0.1 0.29,0.08 0.28,0.07 0.26,0.06 0.26,0.05 0.24,0.04 0.22,0.03 0.2,0.03 0.19,0.02 0.16,0.01 0.15,0 0.11,0.01 0.1,0 0.06,0 c 7.52,0 8.07,-8.72 8.07,-12.65 0,-3.04 -0.24,-3.89 -0.6,-4.88 -1.09,-3.64 -2.59,-9.42 -2.59,-10.71 0,-0.55 0.25,-0.9 0.65,-0.9 0.65,0 1.05,1.1 1.6,2.99 1.14,4.18 1.64,7.02 1.84,8.57 0.1,0.65 0.2,1.29 0.4,1.94 1.59,4.93 4.78,12.35 6.77,16.29 0.35,0.6 0.95,1.69 0.95,1.89 0,0.5 -0.5,0.5 -0.6,0.5 -0.15,0 -0.45,0 -0.6,-0.35 -2.59,-4.73 -4.58,-9.71 -6.57,-14.74 -0.05,1.54 -0.1,5.33 -2.05,10.16 -1.19,3.04 -3.18,5.48 -6.62,5.48 -6.23,0 -9.71,-7.57 -9.71,-9.12 0,-0.5 0.44,-0.5 0.94,-0.5 z"
           id="path3017" /><path
           style="fill:#000000;stroke-width:0"
           d="m 492.68,421.18 0,0.04 0,0.04 0,0.04 0,0.04 0,0.04 0,0.04 0,0.03 0,0.04 -0.01,0.03 0,0.03 0,0.04 0,0.03 -0.01,0.02 0,0.03 0,0.03 -0.01,0.03 0,0.02 0,0.02 -0.02,0.05 -0.01,0.04 -0.01,0.04 -0.02,0.03 -0.02,0.03 -0.02,0.03 -0.03,0.03 -0.02,0.02 -0.03,0.02 -0.04,0.02 -0.03,0.01 -0.04,0.01 -0.05,0.02 -0.05,0 -0.02,0.01 -0.03,0 -0.03,0.01 -0.02,0 -0.03,0 -0.03,0 -0.04,0 -0.03,0.01 -0.03,0 -0.04,0 -0.03,0 -0.04,0 -0.04,0 -0.04,0 -0.04,0 -0.04,0 -0.05,0 -0.04,0 c -2.24,-2.19 -5.41,-2.23 -6.84,-2.23 v -1.25 c 0.84,0 3.14,0 5.06,0.97 v -17.78 c 0,-1.15 0,-1.61 -3.49,-1.61 h -1.33 V 399 h 12.45 v 1.25 h -1.32 c -3.49,0 -3.49,0.46 -3.49,1.61 z"
           id="path3019" /></g>    </g>
    <g
       id="g3103"
       transform="translate(96.923963,-103.1106)">
      <g
         word-spacing="normal"
         letter-spacing="normal"
         font-size-adjust="none"
         font-stretch="normal"
         font-weight="normal"
         font-variant="normal"
         font-style="normal"
         fill-rule="even-odd"
         stroke-miterlimit="10.433"
         xml:space="preserve"
         transform="matrix(1.0629921,0,0,-1.0629921,-186.02362,789.27165)"
         id="g3105"
         style="font-style:normal;font-variant:normal;font-weight:normal;font-stretch:normal;letter-spacing:normal;word-spacing:normal;text-anchor:start;fill:none;stroke:#000000;stroke-linecap:butt;stroke-linejoin:miter;stroke-miterlimit:10.43299961;stroke-opacity:1;stroke-dasharray:none;stroke-dashoffset:0"><path
           id="path3107"
           d="m 458.04,418.65 0.1,0.27 0.09,0.25 0.11,0.25 0.11,0.24 0.11,0.23 0.11,0.23 0.12,0.22 0.13,0.21 0.13,0.2 0.13,0.19 0.13,0.19 0.14,0.18 0.28,0.35 0.29,0.31 0.3,0.29 0.31,0.27 0.31,0.25 0.32,0.22 0.31,0.2 0.32,0.18 0.32,0.17 0.31,0.14 0.32,0.13 0.3,0.11 0.3,0.1 0.29,0.08 0.28,0.07 0.26,0.06 0.26,0.05 0.24,0.04 0.22,0.03 0.2,0.03 0.19,0.02 0.16,0.01 0.15,0 0.11,0.01 0.1,0 0.06,0 c 7.52,0 8.07,-8.72 8.07,-12.65 0,-3.04 -0.24,-3.89 -0.6,-4.88 -1.09,-3.64 -2.59,-9.42 -2.59,-10.71 0,-0.55 0.25,-0.9 0.65,-0.9 0.65,0 1.05,1.1 1.6,2.99 1.14,4.18 1.64,7.02 1.84,8.57 0.1,0.65 0.2,1.29 0.4,1.94 1.59,4.93 4.78,12.35 6.77,16.29 0.35,0.6 0.95,1.69 0.95,1.89 0,0.5 -0.5,0.5 -0.6,0.5 -0.15,0 -0.45,0 -0.6,-0.35 -2.59,-4.73 -4.58,-9.71 -6.57,-14.74 -0.05,1.54 -0.1,5.33 -2.05,10.16 -1.19,3.04 -3.18,5.48 -6.62,5.48 -6.23,0 -9.71,-7.57 -9.71,-9.12 0,-0.5 0.44,-0.5 0.94,-0.5 z"
           style="fill:#000000;stroke-width:0" /><path
           id="path3109"
           d="m 498.61,405.35 h -1.19 c -0.1,-0.77 -0.45,-2.83 -0.9,-3.18 -0.28,-0.21 -2.97,-0.21 -3.45,-0.21 h -6.42 c 3.66,3.25 4.88,4.22 6.97,5.86 2.58,2.06 4.99,4.22 4.99,7.54 0,4.21 -3.7,6.79 -8.16,6.79 -4.33,0 -7.25,-3.03 -7.25,-6.24 0,-1.78 1.5,-1.95 1.84,-1.95 0.84,0 1.85,0.59 1.85,1.85 0,0.62 -0.24,1.85 -2.05,1.85 1.08,2.47 3.45,3.24 5.09,3.24 3.48,0 5.3,-2.72 5.3,-5.54 0,-3.04 -2.16,-5.45 -3.28,-6.7 l -8.4,-8.3 c -0.35,-0.31 -0.35,-0.38 -0.35,-1.36 h 14.36 z"
           style="fill:#000000;stroke-width:0" /></g>    </g>
    <path
       sodipodi:type="arc"
       style="fill:#000000;fill-opacity:1;fill-rule:nonzero;stroke:none"
       id="path3237"
       sodipodi:cx="-135.07489"
       sodipodi:cy="160.09773"
       sodipodi:rx="59.804146"
       sodipodi:ry="59.804146"
       d="m -75.270744,160.09773 a 59.804146,59.804146 0 1 1 -119.608296,0 59.804146,59.804146 0 1 1 119.608296,0 z"
       transform="translate(188.38812,339.4453)" />
    <path
       style="stroke-width:4.3;stroke:#000000;stroke-opacity:1;stroke-miterlimit:4;stroke-dasharray:none;marker-end:url(#Arrow1Lend)"
       d="m 107.23502,274.5505 168.07028,0"
       id="path3239"
       transform="translate(-1.3353858,231.17917)"
       sodipodi:nodetypes="cc" />
    <path
       style="stroke:#000000;stroke-width:4.30000019;stroke-miterlimit:4;stroke-opacity:1;stroke-dasharray:none;marker-end:url(#Arrow1Lend)"
       d="M 290.98316,502.63635 398.21819,266.51308"
       id="path3239-6"
       sodipodi:nodetypes="cc" />
    <path
       style="stroke:#000000;stroke-width:4.30000019;stroke-miterlimit:4;stroke-opacity:1;stroke-dasharray:none;marker-end:url(#Arrow1Lend)"
       d="M 291.49871,507.27633 570.92844,402.10352"
       id="path3239-6-5"
       sodipodi:nodetypes="cc" />
    <path
       style="stroke:#000000;stroke-width:4.30000019000000044;stroke-miterlimit:4;stroke-opacity:1;stroke-dasharray:none;marker-end:none"
       d="m 289.4365,502.1208 443.37558,-2.06221"
       id="path3239-6-8"
       sodipodi:nodetypes="cc" />
  </g>
</svg>
