<?xml version="1.0" encoding="UTF-8" standalone="no"?>
<!-- Created with Inkscape (http://www.inkscape.org/) -->
<svg
   xmlns:dc="http://purl.org/dc/elements/1.1/"
   xmlns:cc="http://creativecommons.org/ns#"
   xmlns:rdf="http://www.w3.org/1999/02/22-rdf-syntax-ns#"
   xmlns:svg="http://www.w3.org/2000/svg"
   xmlns="http://www.w3.org/2000/svg"
   xmlns:sodipodi="http://sodipodi.sourceforge.net/DTD/sodipodi-0.dtd"
   xmlns:inkscape="http://www.inkscape.org/namespaces/inkscape"
   width="407.20959"
   height="567.0611"
   id="svg5587"
   sodipodi:version="0.32"
   inkscape:version="0.46+devel"
   version="1.0"
   sodipodi:docname="d42c5.svg"
   inkscape:output_extension="org.inkscape.output.svg.inkscape">
  <defs
     id="defs5589">
    <inkscape:perspective
       sodipodi:type="inkscape:persp3d"
       inkscape:vp_x="0 : 526.18109 : 1"
       inkscape:vp_y="0 : 1000 : 0"
       inkscape:vp_z="744.09448 : 526.18109 : 1"
       inkscape:persp3d-origin="372.04724 : 350.78739 : 1"
       id="perspective5595" />
  </defs>
  <sodipodi:namedview
     id="base"
     pagecolor="#ffffff"
     bordercolor="#666666"
     borderopacity="1.0"
     inkscape:pageopacity="0.0"
     inkscape:pageshadow="2"
     inkscape:zoom="0.35"
     inkscape:cx="198.59162"
     inkscape:cy="269.72337"
     inkscape:document-units="px"
     inkscape:current-layer="layer1"
     showgrid="false"
     inkscape:window-width="1280"
     inkscape:window-height="712"
     inkscape:window-x="-5"
     inkscape:window-y="-3" />
  <metadata
     id="metadata5592">
    <rdf:RDF>
      <cc:Work
         rdf:about="">
        <dc:format>image/svg+xml</dc:format>
        <dc:type
           rdf:resource="http://purl.org/dc/dcmitype/StillImage" />
        <dc:title></dc:title>
      </cc:Work>
    </rdf:RDF>
  </metadata>
  <g
     inkscape:label="Layer 1"
     inkscape:groupmode="layer"
     id="layer1"
     transform="translate(-176.40838,-235.02447)">
    <path
       style="fill:#000000;fill-opacity:1;fill-rule:nonzero;stroke:#000000;stroke-width:4;stroke-linecap:round;stroke-linejoin:round;stroke-miterlimit:4;stroke-opacity:1;stroke-dasharray:none;stroke-dashoffset:24.6"
       id="path5609"
       d="m 325.73434,796.30701 c -1.20812,-15.78297 -2.37636,-31.57316 -3.4103,-47.37059 -2.30098,-26.20651 -3.45962,-52.49209 -4.90744,-78.75498 -2.06261,-31.12128 -4.30992,-62.23196 -6.11595,-93.3695 -1.79259,-27.55749 -3.88109,-55.09072 -5.8503,-82.6355 -1.73262,-16.76714 -2.72216,-33.61869 -5.29937,-50.28459 -1.30178,-6.41596 -2.99004,-12.69723 -6.09888,-18.47743 -0.66317,-0.41688 -0.61034,-1.54625 -1.24959,-2.00727 -0.31605,-0.22793 -1.03602,0.13888 -1.27676,0.22961 1.41672,-0.72218 2.73289,-1.69058 4.25016,-2.16654 0.45453,-0.14259 -0.59674,0.74271 -0.89511,1.11407 -2.99377,4.956 -4.97816,10.43474 -7.13926,15.78693 -2.0899,5.65394 -4.04023,11.38027 -6.5007,16.88873 -0.38444,1.5557 -0.42095,4.05593 -4.22415,1.73505 -0.76241,-0.46526 0.8617,-1.56485 1.27948,-2.35428 1.83479,-3.46692 1.40729,-2.67568 3.08784,-6.3465 3.6586,-7.96756 6.88304,-16.10953 11.24376,-23.72988 3.29967,-6.4617 7.49972,-12.3175 12.51694,-17.53963 6.72677,-5.48756 11.29238,-7.96412 18.01192,-2.65714 5.93825,5.57293 10.0567,12.79209 13.84684,19.92359 2.83576,5.07537 5.10819,10.42279 7.87543,15.53342 0,0 -4.8971,2.80797 -4.8971,2.80797 l 0,0 c -2.74355,-5.12556 -5.00459,-10.47928 -7.83855,-15.55828 -3.74749,-7.06369 -7.82949,-14.22716 -13.75635,-19.6992 -2.00202,-1.50902 -3.72331,-2.84095 -6.3777,-2.66679 -0.69456,0.0456 -2.27285,1.09167 -2.04237,0.43488 0.35178,-1.00245 1.70146,-1.27271 2.55728,-1.90218 0.72811,-0.53555 -1.44944,1.08025 -2.17415,1.62038 -5.09284,5.13129 -9.30137,10.98306 -12.60594,17.42477 -4.40576,7.58151 -7.62229,15.70598 -11.24994,23.67283 -3.265,7.26429 -3.05364,8.40837 -10.46752,13.10003 -0.40774,0.25803 0.22941,-2.89002 0.0582,-1.4464 2.5894,-5.45312 4.44074,-11.24287 6.55987,-16.8856 2.16006,-5.37693 4.16508,-10.84734 7.02183,-15.89915 2.59449,-3.61896 7.19013,-7.0652 9.30068,-2.22906 3.09942,5.86323 4.81525,12.19808 6.10643,18.69023 2.51654,16.71038 3.4471,33.59931 5.16815,50.40341 1.9201,27.56201 3.99474,55.11082 5.77341,82.68294 1.79652,31.13672 4.0426,62.24643 6.12763,93.36475 1.4755,26.24267 2.66318,52.50878 5.01691,78.69208 1.05221,15.76332 2.24222,31.52163 3.56529,47.262 0,0 -4.99065,2.61282 -4.99065,2.61282 z" />
    <path
       style="fill:#000000;fill-opacity:1;fill-rule:nonzero;stroke:#000000;stroke-width:4;stroke-linecap:round;stroke-linejoin:round;stroke-miterlimit:4;stroke-opacity:1;stroke-dasharray:none;stroke-dashoffset:24.6"
       id="path5611"
       d="m 323.83729,800.08555 c 3.24407,-9.34898 7.27458,-18.31604 11.74303,-27.13703 7.78246,-14.9172 16.06805,-29.53798 24.80901,-43.91247 10.99939,-18.15895 23.49581,-35.25169 36.75659,-51.80282 10.29146,-12.56912 21.02719,-24.75765 31.78669,-36.92592 5.39609,-6.08105 10.95666,-12.01268 16.60668,-17.85758 1.66184,-1.50717 3.03794,-3.00718 3.40163,-5.25872 0.20859,-2.64595 -0.16832,-5.28408 0.32962,-7.89754 0.78342,-3.23866 1.82954,-6.30686 3.73031,-9.05993 1.95011,-2.99106 3.70037,-5.96752 6.09683,-8.6355 2.39088,-2.51854 4.90086,-4.91982 7.38939,-7.34077 1.07043,-1.44531 2.70936,-1.46113 0.47766,-1.6452 -1.58085,0.44085 -3.07443,0.95839 -4.56259,1.66015 -0.61891,0.29185 -2.41313,1.28465 -1.83864,0.91292 0.9302,-0.60192 3.86501,-2.16799 2.91004,-1.6062 -2.29485,1.35002 -4.6202,2.64749 -6.9303,3.97124 0.85562,-0.4723 3.41495,-1.90257 2.56686,-1.41689 -5.67237,3.2484 -11.42653,6.19798 -17.1452,9.33089 -3.05039,1.98143 -6.69701,2.5694 -9.93864,4.07653 4.62411,-3.89221 10.33013,-4.67823 15.6873,-7.0844 7.49294,-4.02276 4.73634,-2.98952 16.74698,-9.65164 -0.76489,0.41867 -3.04714,1.69661 -2.29467,1.25601 5.29852,-3.10252 10.71316,-6.04455 16.37479,-8.4404 4.47793,-2.16788 7.02479,0.42202 8.51282,4.49885 1.37395,6.26048 -0.29052,12.80822 -1.6199,18.95356 -1.49574,6.32344 -1.91339,12.79943 -3.48885,19.09823 -0.19592,0.71859 -0.39184,1.43719 -0.58776,2.15578 0,0 -5.10679,2.4308 -5.10679,2.4308 l 0,0 c 0.20096,-0.71648 0.40191,-1.43296 0.60287,-2.14945 1.61552,-6.29401 2.05839,-12.75875 3.52365,-19.09336 1.31442,-6.04329 2.99179,-12.48544 1.72642,-18.65306 -1.43659,-4.01974 -3.80308,-5.81346 -7.99737,-3.73471 -10.68956,4.69817 -4.52675,2.02435 -14.03623,7.20084 0.65027,-0.42959 2.64833,-1.63639 1.95081,-1.28875 -1.88894,0.94142 -3.8937,2.53435 -5.69296,3.6136 -4.27961,2.56704 -8.62791,4.97811 -13.03685,7.30667 -2.17846,0.94219 -16.32739,7.14017 -6.79594,0.0476 3.30556,-1.32453 6.79958,-2.18773 9.86742,-4.08358 10.53048,-5.63536 5.76592,-2.60364 14.57743,-7.92443 -9.18989,5.42733 7.84158,-5.24228 10.66853,-4.67894 2.66506,0.39466 1.64099,1.49816 0.12865,2.77203 -2.49355,2.41511 -5.00006,4.81862 -7.41466,7.31325 -2.43761,2.64317 -4.24426,5.52629 -6.11802,8.57735 -2.01913,2.62768 -2.99888,5.66159 -3.8232,8.8437 -0.63661,2.57351 -0.15227,5.21343 -0.33668,7.84526 -0.23016,2.4024 -1.46736,4.05009 -3.28682,5.60774 -5.6935,5.84132 -11.2838,11.78331 -16.71109,17.8736 -10.79951,12.16961 -21.56387,24.36887 -31.89333,36.94207 -13.27428,16.51896 -25.78797,33.57732 -36.76728,51.73029 -8.72735,14.34687 -16.99527,28.94086 -24.7484,43.83869 -4.45093,8.77999 -8.49121,17.69435 -11.67879,27.01657 0,0 -5.12105,2.40504 -5.12105,2.40504 z" />
    <path
       style="fill:#000000;fill-opacity:1;fill-rule:nonzero;stroke:#000000;stroke-width:4;stroke-linecap:round;stroke-linejoin:round;stroke-miterlimit:4;stroke-opacity:1;stroke-dasharray:none;stroke-dashoffset:24.6"
       id="path5613"
       d="m 456.83858,557.39057 c -2.59383,-6.32693 -6.39713,-11.91491 -11.16975,-16.76638 -4.7717,-4.24658 -10.48549,-7.09668 -16.04973,-10.12159 -6.86606,-2.86145 -13.97326,-5.17244 -21.0915,-7.33237 -8.15895,-2.36904 -16.41157,-4.33014 -24.69394,-6.22155 -9.19789,-1.68404 -18.49099,-2.88807 -27.76398,-4.12315 -10.63141,-1.29038 -21.35071,-1.47763 -32.04586,-1.63302 -12.18824,0.40354 -24.30385,1.69522 -36.28598,3.93836 -11.7577,2.40638 -23.03988,6.33355 -34.28919,10.41973 -9.09371,3.1718 -17.82137,7.03974 -26.00503,12.08528 -9.53815,5.65679 -17.92838,12.79257 -25.97012,20.36491 -6.47406,5.57414 -10.63839,12.87805 -14.30204,20.44631 -2.87548,6.44269 -4.12354,13.17113 -3.64394,20.17291 0.42463,5.93344 2.39241,11.56791 5.23873,16.74866 2.8702,5.14595 5.90518,10.29851 9.619,14.88549 4.35344,5.37779 9.90616,9.03063 16.19072,11.74755 7.21732,2.2896 14.70083,3.76059 22.20649,4.74808 8.57666,0.80573 17.35277,-0.0584 25.85865,-1.32374 10.39134,-1.15991 20.4929,-3.74734 30.59804,-6.3361 12.26899,-3.21977 24.3247,-6.99172 36.11483,-11.6701 11.07829,-3.82892 21.82584,-8.50337 32.61036,-13.07357 7.80478,-3.38749 16.00926,-5.67563 23.9667,-8.621 2.52583,-1.05905 5.109,-2.06158 7.46233,-3.48155 -1.46509,0.66229 -2.93017,1.32459 -4.39526,1.98688 0,0 5.16112,-2.38624 5.16112,-2.38624 l 0,0 c -1.73273,1.32922 -3.46546,2.65843 -5.19819,3.98764 -2.39628,1.31378 -4.9288,2.36279 -7.46881,3.36137 -7.97091,2.85503 -16.10544,5.25543 -23.9023,8.60645 -10.78801,4.54542 -21.52715,9.21749 -32.59827,13.04754 -11.81042,4.65171 -23.88773,8.39899 -36.16539,11.62086 -10.12572,2.59011 -20.2542,5.14419 -30.66443,6.31176 -8.55155,1.20693 -17.34469,2.10974 -25.95739,1.20407 -7.54002,-1.019 -15.08005,-2.47924 -22.30884,-4.86837 -6.33296,-2.80339 -11.94765,-6.52501 -16.3456,-11.96899 -3.71742,-4.62656 -6.79555,-9.78806 -9.67641,-14.96709 -2.8826,-5.24732 -4.89071,-10.96128 -5.34551,-16.96741 -0.52204,-7.08753 0.66517,-13.89073 3.52678,-20.44213 3.67688,-7.60511 7.74785,-15.0319 14.25375,-20.6475 8.04046,-7.60007 16.4025,-14.80009 25.95104,-20.47873 11.30102,-7.01043 22.8999,-13.32782 35.57406,-17.5186 11.25887,-4.0833 22.56892,-7.96273 34.33905,-10.34231 12.0078,-2.19981 24.14479,-3.49772 36.35344,-3.85172 10.71646,0.15218 21.45705,0.35553 32.10711,1.67057 9.28462,1.24961 18.59862,2.41705 27.80029,4.16048 8.29172,1.90259 16.56019,3.85313 24.72479,6.24836 7.14634,2.18522 14.30424,4.46729 21.17433,7.41313 5.61408,3.03979 11.35483,5.95393 16.13766,10.26439 4.81821,4.92587 8.6312,10.60225 11.32398,16.97306 0,0 -4.95579,2.72937 -4.95579,2.72937 z" />
    <path
       style="fill:#000000;fill-opacity:1;fill-rule:nonzero;stroke:#000000;stroke-width:4;stroke-linecap:round;stroke-linejoin:round;stroke-miterlimit:4;stroke-opacity:1;stroke-dasharray:none;stroke-dashoffset:24.6"
       id="path5615"
       d="m 372.9629,580.02887 c 8.1037,2.63394 16.59848,3.60283 25.04707,4.35081 6.49696,0.21844 12.8624,0.56414 19.21186,1.98878 3.09516,0.59375 5.42109,2.34679 4.15252,5.5849 -3.83431,5.676 -9.55106,9.56143 -14.94119,13.61057 -9.38376,6.62387 -18.52788,13.5788 -27.66445,20.53798 0,0 -5.18174,2.06496 -5.18174,2.06496 l 0,0 c 9.14005,-6.95204 18.26781,-13.9268 27.65803,-20.5389 5.34792,-4.02632 10.96837,-7.83572 14.9614,-13.3229 1.64821,-2.88144 -0.9702,-4.17696 -3.63147,-4.71412 -6.31723,-1.40618 -12.67086,-1.66905 -19.12491,-1.96063 -8.49105,-0.78232 -17.01701,-1.80008 -25.1689,-4.42491 0,0 4.68178,-3.17654 4.68178,-3.17654 z" />
    <path
       style="fill:#000000;fill-opacity:1;fill-rule:nonzero;stroke:#000000;stroke-width:4;stroke-linecap:round;stroke-linejoin:round;stroke-miterlimit:4;stroke-opacity:1;stroke-dasharray:none;stroke-dashoffset:24.6"
       id="path5617"
       d="m 269.48761,318.39009 c -7.1238,5.06017 -11.59314,12.14438 -15.4472,19.79069 -2.83445,6.12887 -5.4642,12.67904 -3.94869,19.48841 2.54897,4.93053 7.6019,2.74585 11.64266,1.04976 0.90683,-0.50878 1.93089,-0.84977 2.72049,-1.52633 0.55661,-0.47693 -2.41322,1.517 -2.00169,0.91042 0.79771,-1.1758 9.38936,-7.42821 11.13686,-8.73835 4.52063,-2.48433 10.38901,-8.83142 15.5194,-4.91054 2.95458,2.80807 3.52619,6.9208 4.68741,10.63128 1.27956,3.6026 2.61347,7.76856 7.02218,7.44867 0.6879,-0.27119 2.5178,-1.39713 2.0637,-0.81357 -0.58825,0.75597 -2.57469,2.34808 -2.5139,1.39213 0.0661,-1.03923 1.74021,-1.15169 2.54094,-1.81742 3.1219,-2.59556 5.68411,-5.76545 8.23343,-8.89474 5.15185,-6.67559 9.49597,-13.80167 13.16825,-21.37631 0,0 5.09043,-2.31122 5.09043,-2.31122 l 0,0 c -3.66744,7.60488 -7.9701,14.7722 -13.11021,21.49053 -5.38889,6.7392 -11.3783,13.24117 -20.05271,15.66622 -4.54136,-0.20366 -6.07217,-4.1767 -7.4011,-8.06312 -1.14477,-3.58223 -1.62432,-7.62384 -4.52631,-10.31023 -3.51943,-2.4553 -9.14894,1.95295 -3.06884,-1.67911 0.80978,-0.48374 -1.61291,0.97854 -2.41936,1.46781 -7.02642,5.21447 -13.39493,11.3209 -21.52079,14.92183 -4.46811,1.74291 -9.54697,3.4095 -12.18929,-1.85946 -1.60179,-6.92853 0.93329,-13.59872 3.82796,-19.86057 3.83379,-7.67074 8.17396,-14.87836 15.29638,-19.98991 0,0 5.25,-2.10687 5.25,-2.10687 z" />
    <path
       style="fill:#000000;fill-opacity:1;fill-rule:nonzero;stroke:#000000;stroke-width:4;stroke-linecap:round;stroke-linejoin:round;stroke-miterlimit:4;stroke-opacity:1;stroke-dasharray:none;stroke-dashoffset:24.6"
       id="path5619"
       d="m 253.27299,268.21862 c 12.15942,1.76062 24.36907,2.02084 36.5945,1.02985 15.46422,-1.04452 30.42996,-4.90179 45.1057,-9.6714 0,0 -4.37745,3.39429 -4.37745,3.39429 l 0,0 c -14.70068,4.7196 -29.68817,8.52471 -45.16019,9.55106 -12.28797,0.95504 -24.55726,0.66484 -36.78099,-1.04743 0,0 4.61843,-3.25637 4.61843,-3.25637 z" />
    <path
       style="fill:#000000;fill-opacity:1;fill-rule:nonzero;stroke:#000000;stroke-width:4;stroke-linecap:round;stroke-linejoin:round;stroke-miterlimit:4;stroke-opacity:1;stroke-dasharray:none;stroke-dashoffset:24.6"
       id="path5621"
       d="m 367.14408,240.49551 c -3.01318,1.00037 -2.66797,0.88458 -5.70352,1.89716 -0.85558,0.28539 -3.05483,1.61528 -2.56645,0.85702 5.55146,-3.26407 2.67601,-1.90207 2.01479,-0.0351 2.36329,1.87594 6.62872,2.37859 9.6193,3.0637 4.24515,1.42595 8.38149,2.86101 12.18077,5.26066 2.73599,1.87302 4.54615,3.9038 3.50284,7.29417 -2.95686,4.71731 -8.00982,7.54351 -12.5003,10.60927 -4.26089,3.18602 -8.79158,5.98361 -13.37448,8.67618 0,0 -5.28333,2.03115 -5.28333,2.03115 l 0,0 c 4.60599,-2.67495 9.17469,-5.44141 13.43017,-8.65498 4.45321,-3.04611 9.36782,-5.81156 12.58016,-10.26387 1.35758,-3.08406 -0.64339,-4.92399 -3.12505,-6.62035 -3.74856,-2.3554 -7.86205,-3.74353 -12.05323,-5.11822 -3.17162,-0.74339 -8.06514,-1.14041 -10.11109,-3.82347 1.09323,-5.91062 11.21351,-6.5634 15.85724,-8.64436 0,0 -4.46782,3.47103 -4.46782,3.47103 z" />
    <path
       style="fill:#000000;fill-opacity:1;fill-rule:nonzero;stroke:#000000;stroke-width:4;stroke-linecap:round;stroke-linejoin:round;stroke-miterlimit:4;stroke-opacity:1;stroke-dasharray:none;stroke-dashoffset:24.6"
       id="path5623"
       d="m 519.66068,527.75735 c 0.0184,8.80218 0.19876,17.56337 -0.81757,26.31606 -0.86408,5.816 -1.07696,11.70512 -2.63243,17.39035 -0.7998,1.9869 -2.92277,3.75582 -0.84421,5.31185 3.75805,1.85171 8.08604,2.00196 12.19371,2.26936 5.73112,0.67335 11.33104,-0.67152 16.96634,-1.49691 3.44278,-0.54419 6.90791,-0.89931 10.38554,-1.11459 1.94729,-0.42042 4.57138,1.4405 -3.30793,1.47341 -0.50916,0.002 0.18361,-1.00231 0.24408,-1.50787 0.0567,-0.47404 0.0714,-0.95217 0.10713,-1.42826 0,0 5.07506,-2.54242 5.07506,-2.54242 l 0,0 c -0.23948,3.87623 -1.67533,7.39412 -6.70024,7.37785 -3.45466,0.21666 -6.89462,0.59215 -10.31588,1.12248 -5.65759,0.84392 -11.28962,2.09879 -17.04321,1.40344 -4.19703,-0.29358 -8.64438,-0.46926 -12.41767,-2.52364 -2.33577,-1.87395 -0.73137,-3.66945 0.54993,-5.91611 1.62905,-5.65464 1.84088,-11.52762 2.71222,-17.33149 1.05389,-8.72417 0.93034,-17.45862 0.80948,-26.23772 0,0 5.03565,-2.56579 5.03565,-2.56579 z" />
    <path
       style="fill:#000000;fill-opacity:1;fill-rule:nonzero;stroke:#000000;stroke-width:4;stroke-linecap:round;stroke-linejoin:round;stroke-miterlimit:4;stroke-opacity:1;stroke-dasharray:none;stroke-dashoffset:24.6"
       id="path5625"
       d="m 507.24861,488.6003 c 6.93118,2.29167 14.13331,3.477 21.35874,4.34952 4.88741,0.53418 9.8073,0.61872 14.71894,0.64435 3.15146,0.002 6.30291,-0.0177 9.45433,-0.032 1.91229,-0.009 3.8246,-0.0112 5.7369,-0.0181 2.30219,0.0409 2.6438,-0.70361 -3.88685,1.92613 0,0 5.08235,-2.55268 5.08235,-2.55268 l 0,0 c -4.62544,3.74872 -2.96372,4.00963 -5.80659,3.97743 -1.90606,-0.003 -3.81211,4e-4 -5.71816,0.006 -3.1491,0.01 -6.2982,0.0329 -9.44732,0.019 -4.91603,-0.0479 -9.84053,-0.14938 -14.72914,-0.71733 -7.25327,-0.91804 -14.47558,-2.15205 -21.44497,-4.4262 0,0 4.68177,-3.17654 4.68177,-3.17654 z" />
    <path
       style="fill:#000000;fill-opacity:1;fill-rule:nonzero;stroke:#000000;stroke-width:4;stroke-linecap:round;stroke-linejoin:round;stroke-miterlimit:4;stroke-opacity:1;stroke-dasharray:none;stroke-dashoffset:24.6"
       id="path5627"
       d="m 553.27299,482.50433 c 7.41636,0.60044 14.61903,2.41254 21.8792,3.93484 2.34837,0.55434 6.73821,0.53013 6.45249,3.86167 -3.18866,4.06387 -8.71713,6.17793 -13.24191,8.40754 5.67336,-3.75189 -13.2891,7.14281 -7.57357,3.8631 0.95569,-0.54841 1.87224,-1.18357 2.89189,-1.60122 0.65405,-0.2679 -1.18887,0.76476 -1.7833,1.14714 -3.18917,2.28764 -6.38361,4.49265 -9.19553,7.24153 -1.30964,1.55883 -2.98472,2.68945 -4.7025,3.74167 0,0 -5.30272,2.04342 -5.30272,2.04342 l 0,0 c 1.73675,-1.00262 3.48351,-2.04054 4.7691,-3.61889 2.79441,-2.80882 5.95592,-5.03569 9.15924,-7.35291 5.17274,-3.37173 10.54378,-6.42815 16.15534,-8.9919 3.56793,-1.73755 2.10424,-1.12406 -0.96989,0.93853 -4.03533,2.70751 3.50714,-2.23492 3.98274,-2.5896 0.26985,-0.20125 0.46363,-0.48819 0.69544,-0.73228 0.8065,-2.72752 -4.42529,-2.62055 -5.96412,-3.1412 -7.24953,-1.54983 -14.45492,-3.32589 -21.87033,-3.89507 0,0 4.61843,-3.25637 4.61843,-3.25637 z" />
  </g>
</svg>
