<?xml version="1.0" encoding="UTF-8" standalone="no"?>
<!-- Created with Inkscape (http://www.inkscape.org/) -->

<svg
   xmlns:dc="http://purl.org/dc/elements/1.1/"
   xmlns:cc="http://creativecommons.org/ns#"
   xmlns:rdf="http://www.w3.org/1999/02/22-rdf-syntax-ns#"
   xmlns:svg="http://www.w3.org/2000/svg"
   xmlns="http://www.w3.org/2000/svg"
   xmlns:sodipodi="http://sodipodi.sourceforge.net/DTD/sodipodi-0.dtd"
   xmlns:inkscape="http://www.inkscape.org/namespaces/inkscape"
   width="964.46954"
   height="564.48566"
   id="svg2"
   sodipodi:version="0.32"
   inkscape:version="0.46+devel r21192"
   sodipodi:docname="New document 1"
   version="1.0"
   inkscape:output_extension="org.inkscape.output.svg.inkscape">
  <sodipodi:namedview
     id="base"
     pagecolor="#ffffff"
     bordercolor="#666666"
     borderopacity="1.0"
     inkscape:pageopacity="0.0"
     inkscape:pageshadow="2"
     inkscape:zoom="0.35"
     inkscape:cx="522.74516"
     inkscape:cy="340.89695"
     inkscape:document-units="px"
     inkscape:current-layer="layer1"
     showgrid="false"
     inkscape:window-width="1280"
     inkscape:window-height="712"
     inkscape:window-x="-5"
     inkscape:window-y="-3" />
  <defs
     id="defs4">
    <inkscape:perspective
       id="perspective10"
       inkscape:persp3d-origin="372.04724 : 350.78739 : 1"
       inkscape:vp_z="744.09448 : 526.18109 : 1"
       inkscape:vp_y="0 : 1000 : 0"
       inkscape:vp_x="0 : 526.18109 : 1"
       sodipodi:type="inkscape:persp3d" />
  </defs>
  <metadata
     id="metadata7">
    <rdf:RDF>
      <cc:Work
         rdf:about="">
        <dc:format>image/svg+xml</dc:format>
        <dc:type
           rdf:resource="http://purl.org/dc/dcmitype/StillImage" />
        <dc:title></dc:title>
      </cc:Work>
    </rdf:RDF>
  </metadata>
  <g
     id="layer1"
     inkscape:groupmode="layer"
     inkscape:label="Layer 1"
     transform="translate(197.74516,-308.77345)">
    <path
       d="m 145.87078,740.14703 c -3.29686,-5.1043 -3.46052,-11.27818 -2.99317,-17.14171 0.9311,-7.07172 4.7798,-12.55548 9.97341,-17.18736 7.4272,-4.83142 15.11401,-11.58899 22.93036,-4.99516 3.81053,4.39196 4.42585,9.91994 3.92518,15.49256 -0.72844,5.16313 -3.28206,9.52521 -7.51027,12.53531 -7.78483,4.94646 -13.32687,9.72854 -20.03644,3.04886 -2.41458,-2.98327 -2.94767,-6.59204 -2.27022,-10.27511 1.97863,-5.79157 8.53399,-10.47786 14.78,-10.13883 1.78348,0.26325 3.40459,1.00542 4.9247,1.94099 0,0 -9.5544,6.19263 -9.5544,6.19263 l 0,0 c -1.40983,-0.79091 -2.90327,-1.41161 -4.54923,-1.42253 -4.35418,0.55352 -1.30793,0.30937 7.54414,-5.12592 0.30097,-0.1848 -0.63479,0.32318 -0.90589,0.54955 -0.94909,0.79253 -1.50922,1.99432 -2.01438,3.08335 -0.92458,3.24632 -0.47941,6.59682 1.69885,9.2605 6.17165,5.82684 13.47525,-1.6539 -0.16193,6.98141 4.40755,-2.43842 7.0685,-6.66949 7.95095,-11.61456 0.62824,-5.17834 0.21723,-10.42125 -3.40505,-14.49552 -1.40213,-1.08094 -1.72182,-1.56648 -3.48971,-1.98679 -4.56214,-1.08462 -13.91501,5.03578 0.58784,-3.26105 -5.25765,4.29485 -9.2669,9.52256 -10.35283,16.40209 -0.55469,5.54971 -0.53297,11.51382 2.6893,16.3232 0,0 -9.76121,5.83409 -9.76121,5.83409 z"
       id="path2816"
       style="color:#000000;fill:#241f1c;fill-opacity:1;fill-rule:nonzero;stroke:none;stroke-width:4;marker:none;visibility:visible;display:inline;overflow:visible;enable-background:accumulate" />
    <path
       d="m 582.7885,481.417 c -5.66101,-0.2883 -10.99307,-1.90405 -16.12576,-4.22206 -4.92381,-2.52321 -7.97715,-5.87539 -8.32077,-11.45938 0.51722,-5.78848 4.61925,-9.44106 9.06244,-12.62169 8.05563,-5.36188 15.95162,-10.25509 25.65695,-10.32442 4.57112,0.42463 8.20404,2.53707 10.84817,6.22534 2.29296,3.59695 2.23995,7.28326 0.9289,11.18835 -1.52161,3.71262 -4.52277,5.93873 -7.83117,7.94619 -11.93373,6.66835 -7.25542,4.98154 -13.19457,6.96354 0,0 8.92713,-6.97514 8.92713,-6.97514 l 0,0 c 4.65815,-1.8453 2.29498,-1.01514 -6.31043,4.07948 3.25818,-1.83949 6.40783,-3.75115 8.14233,-7.22587 1.39421,-3.54866 1.75149,-6.83639 -0.41266,-10.2124 -2.4894,-3.4016 -5.9772,-5.15267 -10.21767,-5.32629 -2.74485,0.12824 -5.19828,0.4447 -7.82041,1.33277 -0.9039,0.30613 -3.43485,1.60452 -2.66968,1.0342 2.00032,-1.49093 11.54413,-6.8267 4.44208,-2.82695 -4.33472,2.85788 -8.57669,6.12735 -9.48576,11.5667 0.0559,5.22086 3.07305,8.13139 7.64001,10.39618 5.07795,2.19068 10.35836,3.72659 15.93657,3.78039 0,0 -9.1957,6.68106 -9.1957,6.68106 z"
       id="path2818"
       style="color:#000000;fill:#241f1c;fill-opacity:1;fill-rule:nonzero;stroke:none;stroke-width:4;marker:none;visibility:visible;display:inline;overflow:visible;enable-background:accumulate" />
    <path
       d="m 189.85536,696.65978 c 6.20451,-5.43586 12.45043,-10.82981 18.72354,-16.19177 11.75835,-9.90283 23.68816,-19.5996 35.76359,-29.11253 16.22563,-12.70017 32.97636,-24.69265 50.00532,-36.2848 18.97411,-12.93552 38.67137,-24.74825 58.36678,-36.53795 22.42499,-12.94589 45.04383,-25.56781 67.83235,-37.86363 17.9434,-9.5465 35.67437,-19.48254 53.55963,-29.13597 14.32413,-7.77615 28.69658,-15.46363 42.82565,-23.5912 8.49729,-4.64802 16.82102,-9.6246 25.76006,-13.38967 1.88215,-0.33102 5.78562,-3.0965 7.66646,-1.43885 -11.32269,6.5125 -6.72678,6.70585 -12.37481,6.10754 0,0 9.25128,-6.57652 9.25128,-6.57652 l 0,0 c 4.88516,0.49536 1.85898,-0.16567 -6.44066,6.69856 -2.31385,0.56745 -4.73762,1.14735 -6.93708,2.18994 -8.82874,3.82646 -17.09934,8.75544 -25.52839,13.37149 -14.11462,8.0682 -28.45043,15.73521 -42.74054,23.48628 -17.86077,9.64517 -35.578,19.5537 -53.49923,29.08762 -16.49776,8.92015 -32.85178,18.10659 -49.27484,27.15931 -19.69004,11.77764 -39.39351,23.55971 -58.37044,36.472 -17.00273,11.54938 -33.72567,23.50022 -49.91847,36.16849 -12.04127,9.47462 -23.923,19.1496 -35.64599,29.01576 -6.20169,5.32725 -12.44423,10.60959 -18.47053,16.13062 0,0 -10.55368,4.23528 -10.55368,4.23528 z"
       id="path2820"
       style="color:#000000;fill:#241f1c;fill-opacity:1;fill-rule:nonzero;stroke:none;stroke-width:4;marker:none;visibility:visible;display:inline;overflow:visible;enable-background:accumulate" />
    <path
       d="m 511.66292,466.16711 c 7.3684,-0.38771 14.64763,-1.52675 21.9233,-2.69226 6.17105,-0.49329 12.4019,-3.08065 18.62725,-2.30069 4.54066,1.90723 0.30943,8.03207 -1.14115,10.7755 -4.67638,8.55268 -9.22558,17.17297 -14.0654,25.63488 -3.74367,6.19323 -1.87364,3.16642 -5.60432,9.08402 0,0 -10.21255,4.49607 -10.21255,4.49607 l 0,0 c 3.76227,-5.89598 1.87927,-2.88147 5.64319,-9.04715 4.84406,-8.41703 9.34786,-17.01778 13.97297,-25.55605 0.83121,-1.54227 5.5212,-8.00523 2.17566,-8.80625 -6.16954,-0.32159 -12.24673,1.87631 -18.35166,2.44548 -7.34899,1.16626 -14.71281,2.29224 -22.15581,2.64231 0,0 9.18852,-6.67586 9.18852,-6.67586 z"
       id="path2822"
       style="color:#000000;fill:#241f1c;fill-opacity:1;fill-rule:nonzero;stroke:none;stroke-width:4;marker:none;visibility:visible;display:inline;overflow:visible;enable-background:accumulate" />
    <path
       d="m -188.45611,509.25671 c 9.04077,1.10783 18.20456,0.28048 27.23738,-0.50717 17.19316,-1.29958 34.06703,-4.87946 50.92469,-8.31543 20.947849,-4.19066 41.678884,-9.35872 62.47893,-14.20733 19.427802,-4.86361 39.0946458,-8.5908 58.95228,-11.1467 12.626355,-1.43034 25.516135,-2.1338 38.028382,0.44031 5.627347,1.37671 10.133812,3.93748 11.394027,9.80414 0.07812,2.68814 0.176211,1.35574 -0.292297,3.99735 0,0 -10.201747,4.92534 -10.201747,4.92534 l 0,0 c 0.618255,-2.34617 0.450685,-1.15053 0.498773,-3.58748 -0.922693,-5.48263 -5.523241,-7.50265 -10.579453,-8.74259 -12.406715,-2.41642 -25.147899,-1.71595 -37.6437085,-0.27213 -19.8017195,2.56638 -39.4076305,6.31391 -58.7839655,11.15762 -20.822202,4.86701 -41.581945,10.02386 -62.553651,14.22597 -16.9218,3.461 -33.87022,6.99153 -51.12817,8.30945 -9.16667,0.7845 -18.44609,1.59481 -27.62052,0.46819 0,0 9.28905,-6.54954 9.28905,-6.54954 z"
       id="path2824"
       style="color:#000000;fill:#241f1c;fill-opacity:1;fill-rule:nonzero;stroke:none;stroke-width:4;marker:none;visibility:visible;display:inline;overflow:visible;enable-background:accumulate" />
    <path
       d="m -185.60452,576.92664 c 11.22279,-4.18986 22.77344,-7.42434 34.33829,-10.51245 20.28983,-5.45461 40.88335,-9.57311 61.543107,-13.32704 23.495486,-4.46686 47.226193,-7.51855 70.99527,-10.07738 21.555912,-2.24 43.214333,-3.10106 64.872147,-3.47593 7.839828,-0.11499 15.679951,-0.0499 23.519537,0.0314 0,0 -8.960389,6.49385 -8.960389,6.49385 l 0,0 c -7.797879,-0.10464 -15.596441,-0.19217 -23.395052,-0.0829 -21.60241,0.35028 -43.2051751,1.2148 -64.703203,3.47418 -23.765031,2.57702 -47.486212,5.67235 -70.97526,10.16081 -20.684747,3.78969 -41.299097,7.9673 -61.603587,13.48653 -11.6518,3.16969 -23.29465,6.47373 -34.57021,10.82713 0,0 8.93935,-6.99817 8.93935,-6.99817 z"
       id="path2826"
       style="color:#000000;fill:#241f1c;fill-opacity:1;fill-rule:nonzero;stroke:none;stroke-width:4;marker:none;visibility:visible;display:inline;overflow:visible;enable-background:accumulate" />
    <path
       d="m -134.31279,651.41431 c 12.44547,-3.3145 24.9091,-6.56013 37.360146,-9.85384 21.54881,-5.91854 43.32753,-10.8898 65.329324,-14.78247 10.347939,-1.66688 20.743823,-2.98337 31.14708812,-4.24314 0,0 -8.73976212,6.51253 -8.73976212,6.51253 l 0,0 c -10.376879,1.26242 -20.748308,2.57104 -31.06703,4.25806 -22.006464,3.9304 -43.788169,8.93986 -65.336526,14.90243 -12.57247,3.35415 -25.16693,6.63129 -37.6975,10.13927 0,0 9.00426,-6.93284 9.00426,-6.93284 z"
       id="path2828"
       style="color:#000000;fill:#241f1c;fill-opacity:1;fill-rule:nonzero;stroke:none;stroke-width:4;marker:none;visibility:visible;display:inline;overflow:visible;enable-background:accumulate" />
    <path
       d="m -85.563944,622.8605 c 9.627179,-2.1323 19.253156,-4.27796 28.881113,-6.41085 15.140357,-3.10589 30.323373,-5.99906 45.4583,-9.13767 15.4676889,-3.09093 30.87317,-6.49413 46.212885,-10.16631 14.509606,-3.43242 28.996529,-6.94544 43.401829,-10.79359 10.66163,-2.78039 21.254478,-5.79378 32.054017,-8.00362 5.08253,-0.9525 10.22708,-1.82357 15.41356,-1.77184 2.10953,-0.0591 2.78294,1.24068 2.31628,3.13004 0,0 -10.3553,4.72792 -10.3553,4.72792 l 0,0 c 1.0723,-1.26345 0.20716,-1.12616 -1.14516,-1.18225 -5.10071,0.0748 -10.15445,0.8862 -15.15252,1.86087 -10.742873,2.2365 -21.293839,5.22447 -31.912421,7.97475 -14.400345,3.8161 -28.880604,7.30595 -43.376731,10.73865 -15.347807,3.65368 -30.7582201,7.04837 -46.229939,10.13751 -15.151871,3.13165 -30.352534,6.0182 -45.495785,9.18649 -9.705147,2.16657 -19.411144,4.32837 -29.090632,6.6075 0,0 9.020504,-6.8976 9.020504,-6.8976 z"
       id="path2830"
       style="color:#000000;fill:#241f1c;fill-opacity:1;fill-rule:nonzero;stroke:none;stroke-width:4;marker:none;visibility:visible;display:inline;overflow:visible;enable-background:accumulate" />
    <path
       d="m 114.35435,557.59308 c 8.21551,-0.0336 16.40574,-0.97552 24.55209,-1.97074 9.34266,-1.07729 18.64156,-2.70637 28.03984,-3.21597 6.02021,0.16661 9.25755,1.32312 7.85399,7.91043 -3.8605,8.79433 -10.27551,16.2556 -16.43355,23.5292 -6.93012,8.05116 -14.73775,15.2847 -23.44573,21.36322 0,0 -10.43321,4.09718 -10.43321,4.09718 l 0,0 c 8.81578,-5.9214 16.66702,-13.11589 23.64185,-21.12393 6.11879,-7.14017 12.32681,-14.50062 16.47103,-22.99855 1.95854,-5.9531 -1.64583,-5.97793 -6.70923,-6.11744 -9.35458,0.5905 -18.61989,2.12501 -27.9235,3.2164 -8.23523,0.9921 -16.50637,1.90907 -24.80927,1.99126 0,0 9.19569,-6.68106 9.19569,-6.68106 z"
       id="path2832"
       style="color:#000000;fill:#241f1c;fill-opacity:1;fill-rule:nonzero;stroke:none;stroke-width:4;marker:none;visibility:visible;display:inline;overflow:visible;enable-background:accumulate" />
    <path
       d="m 37.211498,529.02165 c 7.868452,0.0536 15.73716,0.0549 23.605758,0.0626 9.529266,0.25178 19.033511,-0.24459 28.507674,-1.23297 2.849239,0.19089 9.245615,-2.78889 11.07692,0.50193 -1.250278,4.44762 -7.151177,7.42555 -10.682079,10.08219 -7.898697,5.76015 -15.892579,11.39129 -23.927146,16.96012 -7.646444,5.60327 -15.9346,10.14686 -24.148897,14.8464 0,0 8.752208,-7.05853 8.752208,-7.05853 l 0,0 c -15.854334,9.38754 2.359428,-1.39918 5.007833,-3.7033 8.032506,-5.52839 15.982035,-11.18014 23.883819,-16.89361 3.750818,-2.82695 7.508327,-5.77944 11.199393,-8.6064 -2.975805,-1.08746 -6.989924,0.65222 -10.18386,0.56378 -9.480307,0.89949 -18.983921,1.31888 -28.509323,1.09632 -7.926012,0.008 -15.852128,0.009 -23.777996,0.0626 0,0 9.195696,-6.68106 9.195696,-6.68106 z"
       id="path2834"
       style="color:#000000;fill:#241f1c;fill-opacity:1;fill-rule:nonzero;stroke:none;stroke-width:4;marker:none;visibility:visible;display:inline;overflow:visible;enable-background:accumulate" />
    <path
       d="m 31.375625,450.01503 c 5.172566,4.13408 11.075204,7.03179 17.192966,9.46601 7.718233,2.88105 15.846962,4.14748 24.017767,4.8046 5.512394,0.42974 11.047286,-0.40941 16.406392,1.17628 4.2181,2.46429 1.631589,6.45847 -0.475767,9.44527 -4.987013,6.49297 -11.140736,11.94657 -17.329974,17.25546 -6.607264,5.55895 -13.407944,10.87293 -20.536332,15.74633 -5.98285,3.90391 -1.494963,1.0422 -13.799805,8.03366 0,0 8.830061,-7.08327 8.830061,-7.08327 l 0,0 c -8.6221,5.10475 -10.391333,6.26584 -5.507638,3.15765 7.186547,-4.81676 14.025291,-10.10213 20.655164,-15.66011 6.170362,-5.22283 12.283421,-10.60983 17.323556,-16.96595 1.556917,-2.06856 5.188269,-5.72241 1.496355,-7.51657 -5.307535,-1.34871 -10.796231,-0.49697 -16.205479,-1.06463 -8.236908,-0.75266 -16.422855,-2.12458 -24.185952,-5.09322 -6.208866,-2.52592 -12.191584,-5.52344 -17.511023,-9.65283 0,0 9.629709,-6.04868 9.629709,-6.04868 z"
       id="path2836"
       style="color:#000000;fill:#241f1c;fill-opacity:1;fill-rule:nonzero;stroke:none;stroke-width:4;marker:none;visibility:visible;display:inline;overflow:visible;enable-background:accumulate" />
    <path
       d="m -91.033695,362.66098 c -1.527281,-5.42453 -3.310276,-10.77682 -5.287731,-16.05311 -1.857512,-4.28216 -3.499231,-8.66829 -5.452574,-12.90848 -0.63946,-0.60568 -0.36307,-0.66983 -0.84528,-0.10032 3.028056,-1.27036 5.820608,-3.44762 9.08417,-3.81107 0.970701,-0.1081 -0.470284,1.89956 -0.60555,2.86685 -0.405596,2.90042 -0.355333,5.50828 -0.413838,8.45094 0.242494,15.17357 0.776907,30.34727 1.542459,45.50345 1.006262,16.67622 2.137995,33.34427 3.067464,50.02509 0.282867,5.23543 0.551876,10.47167 0.789805,15.70936 0.09049,1.99205 -0.02604,4.16132 0.658838,6.07245 0,0 -9.961968,5.49855 -9.961968,5.49855 l 0,0 c -2.07809,-6.24833 0.05756,-15.72331 -1.307932,-22.21003 -0.852328,-16.69809 -1.947428,-33.38131 -2.987028,-50.06849 -0.80553,-15.14483 -1.34834,-30.30609 -1.7707,-45.46614 0.0138,-3.07731 0.19266,-31.0353 12.640851,-18.04946 1.891773,4.29868 3.546676,8.70396 5.401835,13.01877 1.99286,5.27805 3.769023,10.63768 5.40881,16.03534 0,0 -9.961631,5.4863 -9.961631,5.4863 z"
       id="path2838"
       style="color:#000000;fill:#241f1c;fill-opacity:1;fill-rule:nonzero;stroke:none;stroke-width:4;marker:none;visibility:visible;display:inline;overflow:visible;enable-background:accumulate" />
    <path
       d="m -85.69376,323.07335 c 8.672927,-1.60614 17.27459,-3.56015 25.888401,-5.4524 11.173461,-2.37418 22.435274,-4.29507 33.650747,-6.46079 4.584739,-0.65221 9.085545,-2.21372 13.730791,-2.38671 0,0 -9.140702,6.73152 -9.140702,6.73152 l 0,0 c -4.55435,0.4273 -8.996442,1.67876 -13.507315,2.39523 -11.198481,2.12456 -22.440339,4.03007 -33.580557,6.44696 -8.695335,1.92906 -17.380288,3.92008 -26.140831,5.53669 0,0 9.099466,-6.8105 9.099466,-6.8105 z"
       id="path2840"
       style="color:#000000;fill:#241f1c;fill-opacity:1;fill-rule:nonzero;stroke:none;stroke-width:4;marker:none;visibility:visible;display:inline;overflow:visible;enable-background:accumulate" />
    <path
       d="m -82.664876,400.22682 c 8.673963,-1.75472 17.147901,-4.42671 25.539513,-7.21037 10.766672,-3.74893 21.265447,-8.15895 31.516795,-13.13735 5.994442,-2.98977 11.986596,-5.98364 18.1715208,-8.56342 1.35482,-0.66413 1.5759997,-1.01762 2.3570437,0.30901 0,0 -10.0969595,5.33943 -10.0969595,5.33943 l 0,0 c 0.858068,1.13386 -0.08969,0.76375 -1.152264,1.3694 -6.115088,2.59345 -12.050242,5.57037 -18.006408,8.50524 -10.282104,4.9109 -20.793825,9.29411 -31.575022,12.99851 -8.492716,2.78526 -17.063023,5.52764 -25.858573,7.17882 0,0 9.104354,-6.78927 9.104354,-6.78927 z"
       id="path2842"
       style="color:#000000;fill:#241f1c;fill-opacity:1;fill-rule:nonzero;stroke:none;stroke-width:4;marker:none;visibility:visible;display:inline;overflow:visible;enable-background:accumulate" />
    <path
       d="m -85.9737,456.87487 c 8.297268,-3.37103 16.687383,-6.49263 25.105495,-9.54633 14.010736,-5.0039 27.978357,-10.12317 42.008418,-15.07269 11.8728501,-4.53264 24.0361215,-8.19437 36.172737,-11.93331 4.448922,-1.41507 8.851564,-3.01464 13.572499,-2.85634 0,0 -9.183708,6.66529 -9.183708,6.66529 l 0,0 c -4.583156,0.11646 -8.879909,1.70172 -13.227791,3.02442 -12.0953976,3.70361 -24.200763,7.37791 -36.031053,11.8812 -14.049107,4.95761 -28.033139,10.09287 -42.056092,15.12382 -8.478213,3.09674 -16.959881,6.21203 -25.238685,9.81564 0,0 8.87818,-7.1017 8.87818,-7.1017 z"
       id="path2844"
       style="color:#000000;fill:#241f1c;fill-opacity:1;fill-rule:nonzero;stroke:none;stroke-width:4;marker:none;visibility:visible;display:inline;overflow:visible;enable-background:accumulate" />
    <path
       d="m 102.64901,788.53504 c 6.47865,-2.58799 13.0045,-5.05962 19.55579,-7.45818 8.21014,-3.28934 16.63591,-6.01204 24.80113,-9.41119 0,0 -8.81929,6.94686 -8.81929,6.94686 l 0,0 c -8.19448,3.30093 -16.57855,6.10454 -24.79395,9.35436 -6.60219,2.44425 -13.16416,4.99133 -19.724421,7.54525 0,0 8.980741,-6.9771 8.980741,-6.9771 z"
       id="path2846"
       style="color:#000000;fill:#241f1c;fill-opacity:1;fill-rule:nonzero;stroke:none;stroke-width:4;marker:none;visibility:visible;display:inline;overflow:visible;enable-background:accumulate" />
    <path
       d="m 207.2875,750.92173 c -4.87858,3.64578 -8.648,8.41618 -12.03142,13.42183 -1.54252,3.01548 -4.84489,7.70349 -2.19343,10.94776 -0.17787,2.17019 8.26345,-2.75616 5.92392,-1.36573 -10.66717,6.33973 -9.20662,5.42134 -5.31209,2.65546 5.57961,-4.33183 10.21819,-9.66031 14.66285,-15.10814 3.29532,-3.92489 6.19708,-8.15915 9.38079,-12.16922 13.87951,-14.93922 11.37197,1.7827 11.19212,7.62353 -0.68401,10.13386 -2.09967,20.19712 -3.69114,30.22232 -2.13976,13.6451 -5.03628,27.15361 -7.64066,40.71353 -2.31599,11.02597 -4.52559,22.07151 -6.37009,33.18671 -1.06879,6.32814 0.31627,8.67721 -9.72337,8.67553 -1.18925,-2e-4 0.96047,-2.17597 1.4407,-3.26395 5.00405,-11.10117 10.93183,-21.74157 16.73749,-32.43383 0,0 10.07682,-4.51895 10.07682,-4.51895 l 0,0 c -5.75644,10.6368 -11.64853,21.21464 -16.59767,32.26166 -0.46099,1.09008 -0.51067,2.47032 -1.38298,3.27024 -12.25633,11.23926 -12.37565,10.36658 -10.62582,0.93159 1.92372,-11.13838 4.13612,-22.22095 6.49583,-33.27505 2.59683,-13.54291 5.50021,-27.032 7.61849,-40.66232 1.56939,-9.96235 2.93889,-19.96246 3.62575,-30.02982 0.0791,-2.96678 0.204,-5.94338 0.1033,-8.91166 -0.0245,-0.72249 -0.66855,-1.68384 -0.12893,-2.16489 2.98193,-2.65829 6.63816,-4.44665 9.98759,-6.62376 0.24305,-0.15799 -0.44199,0.3752 -0.66298,0.5628 -3.42161,3.84269 -6.0943,8.32956 -9.4971,12.19701 -4.43012,5.49205 -9.01886,10.88042 -14.51399,15.35408 -3.79212,2.92066 -15.15368,12.3531 -20.85949,8.67928 -2.86777,-3.91632 -0.38775,-8.4535 1.64659,-12.24126 3.29744,-5.06852 6.98677,-9.9444 11.78524,-13.69947 0,0 10.55368,-4.23528 10.55368,-4.23528 z"
       id="path2848"
       style="color:#000000;fill:#241f1c;fill-opacity:1;fill-rule:nonzero;stroke:none;stroke-width:4;marker:none;visibility:visible;display:inline;overflow:visible;enable-background:accumulate" />
    <path
       d="m 657.35099,481.90361 c -0.60572,0.24678 -1.21831,0.47733 -1.81716,0.74034 -1.8607,0.81717 -7.22014,3.72546 -5.46946,2.69344 14.34973,-8.45908 1.4031,-0.008 -1.06193,1.95333 -7.21715,6.07299 -13.5212,13.13384 -18.28373,21.2786 -1.32727,2.65079 -4.85954,9.55772 0.7779,8.80018 3.08419,-1.85947 12.23233,-4.35745 -2.21862,1.66933 -1.1638,0.48537 2.06989,-1.44203 3.07266,-2.20654 2.65881,-2.02706 3.9313,-3.21397 6.47069,-5.43008 5.56776,-5.25829 10.8004,-10.86542 15.66387,-16.77939 3.32307,-4.10438 15.11894,-16.40616 14.57035,-3.62364 -0.89369,7.09595 -2.02621,14.16062 -3.27377,21.20257 -1.86276,9.45064 -4.2443,18.78964 -6.64725,28.11475 -2.01736,8.26421 -4.36494,16.44006 -6.54082,24.66256 -0.54942,2.37641 -1.29182,4.71343 -1.78927,7.10265 -0.0785,0.37696 -0.13173,0.75931 -0.17233,1.1422 -0.0126,0.11853 0.0429,0.4728 0.0133,0.35734 -0.0953,-0.37192 -0.14133,-0.75478 -0.21199,-1.13217 -2.83005,1.2111 -5.42738,3.32446 -8.49016,3.63329 -1.10232,0.11115 1.02985,-1.96208 1.56065,-2.93456 0.64681,-1.18498 1.3111,-2.36035 1.97201,-3.53753 2.56007,-4.55989 5.31988,-8.9437 8.1636,-13.3318 5.95367,-9.01411 12.38094,-17.71223 19.61321,-25.7407 0,0 10.33064,-4.33479 10.33064,-4.33479 l 0,0 c -7.32774,7.9349 -13.7898,16.59743 -19.75101,25.60058 -2.82892,4.35594 -5.58581,8.69121 -8.11602,13.22768 -0.65077,1.16677 -1.30349,2.33249 -1.94452,3.50464 -0.52181,0.95416 -0.73761,2.14438 -1.54394,2.87413 -3.3262,3.01031 -7.12017,5.45942 -10.68026,8.18914 -2.83446,-2.02887 0.71387,-7.03352 0.89711,-9.77769 2.2093,-8.22837 4.58701,-16.41001 6.61191,-24.68719 2.41037,-9.29265 4.77528,-18.60489 6.65432,-28.02156 1.23622,-6.98703 2.31938,-13.99786 3.22989,-21.03508 0.0519,-0.67426 0.14157,-1.34667 0.15578,-2.02277 0.0105,-0.50115 -0.47464,-1.19029 -0.0817,-1.50156 17.60883,-13.95015 9.04188,-5.80655 5.83658,-2.34639 -4.85918,5.97859 -10.12319,11.61183 -15.65496,16.97391 -7.82991,6.9734 -16.55419,14.24388 -26.88222,16.83781 -6.14787,-0.85298 -3.87702,-6.88246 -1.84398,-10.88272 4.66337,-8.29477 10.95984,-15.46249 18.15947,-21.67522 8.31776,-6.85951 17.63574,-12.61606 27.7019,-16.53419 0,0 -8.98074,6.9771 -8.98074,6.9771 z"
       id="path2850"
       style="color:#000000;fill:#241f1c;fill-opacity:1;fill-rule:nonzero;stroke:none;stroke-width:4;marker:none;visibility:visible;display:inline;overflow:visible;enable-background:accumulate" />
    <g
       id="g2876"
       transform="matrix(1.2560547,0,0,1.2560547,-45.596807,212.86455)">
      <g
         word-spacing="normal"
         letter-spacing="normal"
         font-size-adjust="none"
         font-stretch="normal"
         font-weight="normal"
         font-variant="normal"
         font-style="normal"
         fill-rule="even-odd"
         stroke-miterlimit="10.433"
         xml:space="preserve"
         transform="matrix(1.0629921,0,0,-1.0629921,-186.02362,789.27165)"
         id="content"
         style="font-style:normal;font-variant:normal;font-weight:normal;font-stretch:normal;letter-spacing:normal;word-spacing:normal;text-anchor:start;fill:none;stroke:#000000;stroke-linecap:butt;stroke-linejoin:miter;stroke-miterlimit:10.43299961;stroke-opacity:1;stroke-dasharray:none;stroke-dashoffset:0"><path
           id="path2879"
           d="m 481.7,440.02 0,0.01 0,0 0,0.01 0,0.01 0,0.01 0,0.01 0,0.02 0,0.02 -0.01,0.02 0,0.02 -0.01,0.02 0,0.02 -0.01,0.03 -0.01,0.02 -0.01,0.03 -0.01,0.02 -0.02,0.02 -0.01,0.03 -0.02,0.02 -0.02,0.03 -0.03,0.02 -0.01,0.01 -0.01,0.01 -0.01,0.01 -0.02,0.01 -0.01,0.01 -0.02,0.01 -0.01,0.01 -0.02,0.01 -0.02,0.01 -0.02,0.01 -0.01,0.01 -0.02,0 -0.03,0.01 -0.02,0.01 -0.02,0 -0.02,0.01 -0.02,0 -0.03,0.01 -0.02,0 -0.03,0 -0.03,0.01 -0.03,0 -0.03,0 -0.03,0 c -0.74,0 -5.47,-0.45 -6.32,-0.55 -0.4,-0.05 -0.7,-0.3 -0.7,-0.95 0,-0.59 0.45,-0.59 1.2,-0.59 2.39,0 2.49,-0.35 2.49,-0.85 l -0.15,-0.99 -2.99,-11.81 c -0.9,1.84 -2.34,3.19 -4.58,3.19 l 0.05,-1.1 c 3.24,0 3.93,-4.08 3.93,-4.38 0,-0.3 -0.1,-0.6 -0.15,-0.85 l -2.49,-9.76 c -0.25,-0.9 -0.25,-1 -0.99,-1.84 -2.19,-2.75 -4.24,-3.54 -5.63,-3.54 -2.49,0 -3.19,2.74 -3.19,4.68 0,2.49 1.59,8.62 2.74,10.91 1.54,2.94 3.78,4.78 5.78,4.78 l -0.05,1.1 c -5.83,0 -12.01,-7.32 -12.01,-14.6 0,-4.68 2.74,-7.97 6.63,-7.97 0.99,0 3.49,0.2 6.47,3.74 0.4,-2.09 2.14,-3.74 4.53,-3.74 1.75,0 2.9,1.15 3.69,2.74 0.85,1.79 1.5,4.83 1.5,4.93 0,0.5 -0.45,0.5 -0.6,0.5 -0.5,0 -0.55,-0.2 -0.7,-0.89 -0.85,-3.24 -1.74,-6.18 -3.78,-6.18 -1.35,0 -1.5,1.29 -1.5,2.29 0,1.2 0.1,1.54 0.3,2.39 z"
           style="fill:#000000;stroke-width:0" /><path
           id="path2881"
           d="m 529.22,422.29 0.14,0 0.15,0 0.15,0.01 0.07,0 0.07,0 0.07,0.01 0.08,0.01 0.07,0.01 0.07,0.01 0.06,0.02 0.07,0.01 0.07,0.02 0.06,0.02 0.06,0.03 0.06,0.03 0.05,0.03 0.06,0.03 0.05,0.04 0.04,0.04 0.05,0.05 0.03,0.05 0.02,0.03 0.02,0.02 0.02,0.03 0.01,0.03 0.02,0.03 0.01,0.04 0.01,0.03 0.01,0.04 0.01,0.03 0.01,0.04 0.01,0.04 0,0.04 0.01,0.04 0,0.04 0,0.05 0,0.05 c 0,0.99 -0.94,0.99 -1.64,0.99 h -29.84 c -0.7,0 -1.64,0 -1.64,-0.99 0,-1 0.94,-1 1.69,-1 z"
           style="fill:#000000;stroke-width:0" /><path
           id="path2883"
           d="m 529.27,412.62 0.13,0.01 0.14,0 0.14,0 0.07,0.01 0.07,0 0.07,0.01 0.07,0.01 0.07,0.01 0.07,0.01 0.06,0.01 0.07,0.02 0.06,0.02 0.06,0.02 0.06,0.02 0.06,0.03 0.06,0.03 0.05,0.04 0.05,0.04 0.04,0.04 0.05,0.04 0.02,0.03 0.02,0.03 0.01,0.02 0.02,0.03 0.02,0.03 0.01,0.03 0.02,0.03 0.01,0.03 0.01,0.04 0.01,0.03 0.01,0.04 0.01,0.04 0.01,0.04 0,0.04 0.01,0.04 0,0.04 0,0.05 0,0.04 c 0,1 -0.94,1 -1.69,1 h -29.74 c -0.75,0 -1.69,0 -1.69,-1 0,-1 0.94,-1 1.64,-1 z"
           style="fill:#000000;stroke-width:0" /><path
           id="path2885"
           d="m 564.49,394.04 0,0.03 0,0.03 -0.01,0.01 0,0.02 0,0.01 -0.01,0.02 0,0.02 -0.01,0.01 -0.01,0.02 -0.01,0.02 -0.01,0.03 -0.01,0.02 -0.02,0.02 -0.02,0.03 -0.02,0.03 -0.02,0.03 -0.03,0.03 -0.03,0.04 -0.01,0.02 -0.02,0.02 -0.02,0.02 -0.02,0.02 -0.02,0.02 -0.02,0.03 -0.02,0.02 -0.02,0.02 -0.02,0.03 -0.03,0.02 -0.02,0.03 -0.03,0.03 -0.02,0.03 -0.03,0.03 -0.03,0.03 -0.03,0.03 -0.03,0.03 -0.03,0.03 -0.04,0.04 -0.03,0.03 -0.04,0.04 -0.03,0.03 -0.04,0.04 -0.04,0.04 c -6.23,6.28 -7.82,15.69 -7.82,23.31 0,8.67 1.9,17.34 8.02,23.57 0.65,0.59 0.65,0.69 0.65,0.84 0,0.35 -0.2,0.5 -0.5,0.5 -0.5,0 -4.98,-3.39 -7.92,-9.72 -2.54,-5.47 -3.14,-11 -3.14,-15.19 0,-3.88 0.55,-9.91 3.29,-15.54 2.99,-6.12 7.27,-9.36 7.77,-9.36 0.3,0 0.5,0.15 0.5,0.49 z"
           style="fill:#000000;stroke-width:0" /><path
           id="path2887"
           d="m 592.7,440.02 0,0.01 0,0 0,0.01 0,0.01 0,0.01 0,0.01 0,0.02 0,0.02 -0.01,0.02 0,0.02 -0.01,0.02 0,0.02 -0.01,0.03 -0.01,0.02 -0.01,0.03 -0.01,0.02 -0.02,0.02 -0.01,0.03 -0.02,0.02 -0.02,0.03 -0.03,0.02 -0.01,0.01 -0.01,0.01 -0.01,0.01 -0.02,0.01 -0.01,0.01 -0.02,0.01 -0.01,0.01 -0.02,0.01 -0.02,0.01 -0.02,0.01 -0.01,0.01 -0.02,0 -0.03,0.01 -0.02,0.01 -0.02,0 -0.02,0.01 -0.02,0 -0.03,0.01 -0.02,0 -0.03,0 -0.03,0.01 -0.03,0 -0.03,0 -0.03,0 c -0.74,0 -5.47,-0.45 -6.32,-0.55 -0.4,-0.05 -0.7,-0.3 -0.7,-0.95 0,-0.59 0.45,-0.59 1.2,-0.59 2.39,0 2.49,-0.35 2.49,-0.85 l -0.15,-0.99 -2.99,-11.81 c -0.9,1.84 -2.34,3.19 -4.58,3.19 l 0.05,-1.1 c 3.23,0 3.93,-4.08 3.93,-4.38 0,-0.3 -0.1,-0.6 -0.15,-0.85 l -2.49,-9.76 c -0.25,-0.9 -0.25,-1 -0.99,-1.84 -2.19,-2.75 -4.24,-3.54 -5.63,-3.54 -2.49,0 -3.19,2.74 -3.19,4.68 0,2.49 1.59,8.62 2.74,10.91 1.54,2.94 3.78,4.78 5.78,4.78 l -0.05,1.1 c -5.83,0 -12.01,-7.32 -12.01,-14.6 0,-4.68 2.74,-7.97 6.63,-7.97 0.99,0 3.48,0.2 6.47,3.74 0.4,-2.09 2.14,-3.74 4.53,-3.74 1.75,0 2.9,1.15 3.69,2.74 0.85,1.79 1.5,4.83 1.5,4.93 0,0.5 -0.45,0.5 -0.6,0.5 -0.5,0 -0.55,-0.2 -0.7,-0.89 -0.85,-3.24 -1.74,-6.18 -3.78,-6.18 -1.35,0 -1.5,1.29 -1.5,2.29 0,1.2 0.1,1.54 0.3,2.39 z"
           style="fill:#000000;stroke-width:0" /><path
           id="path2889"
           d="m 609.64,421.04 0.03,0.13 0.03,0.15 0.05,0.17 0.04,0.18 0.06,0.19 0.06,0.21 0.06,0.21 0.07,0.23 0.08,0.23 0.09,0.24 0.1,0.25 0.1,0.24 0.11,0.25 0.12,0.25 0.13,0.25 0.14,0.25 0.15,0.24 0.15,0.24 0.17,0.23 0.18,0.22 0.18,0.22 0.2,0.2 0.21,0.19 0.22,0.18 0.23,0.16 0.25,0.14 0.12,0.07 0.13,0.06 0.13,0.05 0.14,0.05 0.14,0.05 0.14,0.04 0.14,0.03 0.15,0.03 0.15,0.02 0.16,0.02 0.16,0.01 0.16,0 c 0.25,0 1.45,0 2.49,-0.65 -1.4,-0.25 -2.39,-1.49 -2.39,-2.68 0,-0.8 0.55,-1.75 1.89,-1.75 1.1,0 2.69,0.9 2.69,2.89 0,2.59 -2.94,3.29 -4.63,3.29 -2.89,0 -4.64,-2.64 -5.23,-3.79 -1.24,3.29 -3.94,3.79 -5.38,3.79 -5.18,0 -8.02,-6.43 -8.02,-7.67 0,-0.5 0.5,-0.5 0.6,-0.5 0.39,0 0.54,0.1 0.64,0.54 1.7,5.29 4.99,6.53 6.68,6.53 0.94,0 2.69,-0.45 2.69,-3.33 0,-1.55 -0.85,-4.89 -2.69,-11.86 -0.8,-3.09 -2.54,-5.18 -4.73,-5.18 -0.3,0 -1.45,0 -2.49,0.65 1.24,0.25 2.34,1.29 2.34,2.69 0,1.34 -1.1,1.74 -1.85,1.74 -1.49,0 -2.73,-1.3 -2.73,-2.89 0,-2.29 2.48,-3.29 4.68,-3.29 3.28,0 5.08,3.49 5.22,3.79 0.61,-1.85 2.4,-3.79 5.39,-3.79 5.13,0 7.97,6.43 7.97,7.67 0,0.5 -0.45,0.5 -0.6,0.5 -0.45,0 -0.55,-0.2 -0.65,-0.55 -1.64,-5.33 -5.03,-6.52 -6.62,-6.52 -1.94,0 -2.74,1.59 -2.74,3.29 0,1.09 0.3,2.19 0.85,4.38 z"
           style="fill:#000000;stroke-width:0" /><path
           id="path2891"
           d="m 632.11,406.05 0,0.31 -0.01,0.29 -0.02,0.29 -0.02,0.28 -0.04,0.27 -0.03,0.26 -0.05,0.26 -0.05,0.24 -0.06,0.24 -0.07,0.23 -0.07,0.22 -0.07,0.21 -0.09,0.2 -0.09,0.19 -0.09,0.18 -0.1,0.18 -0.11,0.16 -0.11,0.15 -0.12,0.15 -0.12,0.13 -0.13,0.13 -0.13,0.11 -0.14,0.1 -0.15,0.1 -0.15,0.08 -0.15,0.07 -0.16,0.06 -0.16,0.05 -0.17,0.04 -0.17,0.03 -0.17,0.02 -0.18,0 c -1.65,0 -2.65,-1.24 -2.65,-2.64 0,-1.34 1,-2.64 2.65,-2.64 0.59,0 1.24,0.2 1.74,0.65 0.15,0.1 0.2,0.15 0.25,0.15 0.05,0 0.1,-0.05 0.1,-0.75 0,-3.69 -1.75,-6.67 -3.39,-8.32 -0.55,-0.55 -0.55,-0.65 -0.55,-0.8 0,-0.34 0.25,-0.54 0.5,-0.54 0.55,0 4.53,3.83 4.53,9.66 z"
           style="fill:#000000;stroke-width:0" /><path
           id="path2893"
           d="m 669.7,440.02 0,0.01 0,0 0,0.01 0,0.01 0,0.01 0,0.01 0,0.02 0,0.02 -0.01,0.02 0,0.02 -0.01,0.02 0,0.02 -0.01,0.03 -0.01,0.02 -0.01,0.03 -0.01,0.02 -0.02,0.02 -0.01,0.03 -0.02,0.02 -0.02,0.03 -0.03,0.02 -0.01,0.01 -0.01,0.01 -0.01,0.01 -0.02,0.01 -0.01,0.01 -0.02,0.01 -0.01,0.01 -0.02,0.01 -0.02,0.01 -0.02,0.01 -0.01,0.01 -0.02,0 -0.03,0.01 -0.02,0.01 -0.02,0 -0.02,0.01 -0.02,0 -0.03,0.01 -0.02,0 -0.03,0 -0.03,0.01 -0.03,0 -0.03,0 -0.03,0 c -0.74,0 -5.47,-0.45 -6.32,-0.55 -0.4,-0.05 -0.7,-0.3 -0.7,-0.95 0,-0.59 0.45,-0.59 1.2,-0.59 2.39,0 2.49,-0.35 2.49,-0.85 l -0.15,-0.99 -2.99,-11.81 c -0.9,1.84 -2.34,3.19 -4.58,3.19 l 0.05,-1.1 c 3.23,0 3.93,-4.08 3.93,-4.38 0,-0.3 -0.1,-0.6 -0.15,-0.85 l -2.49,-9.76 c -0.25,-0.9 -0.25,-1 -0.99,-1.84 -2.19,-2.75 -4.24,-3.54 -5.63,-3.54 -2.49,0 -3.19,2.74 -3.19,4.68 0,2.49 1.59,8.62 2.74,10.91 1.54,2.94 3.78,4.78 5.78,4.78 l -0.05,1.1 c -5.83,0 -12.01,-7.32 -12.01,-14.6 0,-4.68 2.74,-7.97 6.63,-7.97 0.99,0 3.48,0.2 6.47,3.74 0.4,-2.09 2.14,-3.74 4.53,-3.74 1.75,0 2.9,1.15 3.69,2.74 0.85,1.79 1.5,4.83 1.5,4.93 0,0.5 -0.45,0.5 -0.6,0.5 -0.5,0 -0.55,-0.2 -0.7,-0.89 -0.85,-3.24 -1.74,-6.18 -3.78,-6.18 -1.35,0 -1.5,1.29 -1.5,2.29 0,1.2 0.1,1.54 0.3,2.39 z"
           style="fill:#000000;stroke-width:0" /><path
           id="path2895"
           d="m 694.21,424.98 0.01,0.03 0.01,0.03 0.01,0.03 0.01,0.03 0.01,0.06 0.02,0.05 0.01,0.06 0.01,0.04 0.02,0.05 0.01,0.04 0.01,0.04 0.01,0.04 0,0.04 0.01,0.04 0.01,0.03 0,0.03 0.01,0.03 0.01,0.03 0,0.03 0,0.03 0.01,0.03 0,0.02 0,0.06 0.01,0.05 0,0.05 0,0.05 0,0.03 0,0.03 0,0.03 0,0.03 c 0,0.9 -0.7,1.35 -1.44,1.35 -0.5,0 -1.3,-0.3 -1.75,-1.05 -0.1,-0.24 -0.5,-1.79 -0.7,-2.69 -0.34,-1.29 -0.7,-2.64 -0.99,-3.98 l -2.25,-8.97 c -0.19,-0.74 -2.33,-4.23 -5.62,-4.23 -2.54,0 -3.09,2.19 -3.09,4.03 0,2.3 0.84,5.38 2.54,9.77 0.8,2.04 0.99,2.59 0.99,3.58 0,2.25 -1.59,4.09 -4.08,4.09 -4.73,0 -6.57,-7.23 -6.57,-7.67 0,-0.5 0.49,-0.5 0.59,-0.5 0.5,0 0.55,0.1 0.8,0.9 1.34,4.68 3.34,6.17 5.03,6.17 0.4,0 1.25,0 1.25,-1.59 0,-1.25 -0.5,-2.54 -0.85,-3.49 -1.99,-5.28 -2.89,-8.12 -2.89,-10.46 0,-4.43 3.14,-5.93 6.08,-5.93 1.94,0 3.63,0.85 5.03,2.25 -0.65,-2.6 -1.25,-5.04 -3.24,-7.68 -1.29,-1.69 -3.19,-3.14 -5.48,-3.14 -0.7,0 -2.94,0.16 -3.79,2.1 0.8,0 1.45,0 2.15,0.59 0.49,0.45 0.99,1.1 0.99,2.05 0,1.54 -1.34,1.74 -1.84,1.74 -1.15,0 -2.79,-0.8 -2.79,-3.24 0,-2.49 2.19,-4.33 5.28,-4.33 5.13,0 10.26,4.53 11.66,10.16 z"
           style="fill:#000000;stroke-width:0" /><path
           id="path2897"
           d="m 706.11,406.05 0,0.31 -0.01,0.29 -0.02,0.29 -0.02,0.28 -0.04,0.27 -0.03,0.26 -0.05,0.26 -0.05,0.24 -0.06,0.24 -0.07,0.23 -0.07,0.22 -0.07,0.21 -0.09,0.2 -0.09,0.19 -0.09,0.18 -0.1,0.18 -0.11,0.16 -0.11,0.15 -0.12,0.15 -0.12,0.13 -0.13,0.13 -0.13,0.11 -0.14,0.1 -0.15,0.1 -0.15,0.08 -0.15,0.07 -0.16,0.06 -0.16,0.05 -0.17,0.04 -0.17,0.03 -0.17,0.02 -0.18,0 c -1.65,0 -2.65,-1.24 -2.65,-2.64 0,-1.34 1,-2.64 2.65,-2.64 0.59,0 1.24,0.2 1.74,0.65 0.15,0.1 0.2,0.15 0.25,0.15 0.05,0 0.1,-0.05 0.1,-0.75 0,-3.69 -1.75,-6.67 -3.39,-8.32 -0.55,-0.55 -0.55,-0.65 -0.55,-0.8 0,-0.34 0.25,-0.54 0.5,-0.54 0.55,0 4.53,3.83 4.53,9.66 z"
           style="fill:#000000;stroke-width:0" /><path
           id="path2899"
           d="m 743.7,440.02 0,0.01 0,0 0,0.01 0,0.01 0,0.01 0,0.01 0,0.02 0,0.02 -0.01,0.02 0,0.02 -0.01,0.02 0,0.02 -0.01,0.03 -0.01,0.02 -0.01,0.03 -0.01,0.02 -0.02,0.02 -0.01,0.03 -0.02,0.02 -0.02,0.03 -0.03,0.02 -0.01,0.01 -0.01,0.01 -0.01,0.01 -0.02,0.01 -0.01,0.01 -0.02,0.01 -0.01,0.01 -0.02,0.01 -0.02,0.01 -0.02,0.01 -0.01,0.01 -0.02,0 -0.03,0.01 -0.02,0.01 -0.02,0 -0.02,0.01 -0.02,0 -0.03,0.01 -0.02,0 -0.03,0 -0.03,0.01 -0.03,0 -0.03,0 -0.03,0 c -0.74,0 -5.47,-0.45 -6.32,-0.55 -0.4,-0.05 -0.7,-0.3 -0.7,-0.95 0,-0.59 0.45,-0.59 1.2,-0.59 2.39,0 2.49,-0.35 2.49,-0.85 l -0.15,-0.99 -2.99,-11.81 c -0.9,1.84 -2.34,3.19 -4.58,3.19 l 0.05,-1.1 c 3.23,0 3.93,-4.08 3.93,-4.38 0,-0.3 -0.1,-0.6 -0.15,-0.85 l -2.49,-9.76 c -0.25,-0.9 -0.25,-1 -0.99,-1.84 -2.19,-2.75 -4.24,-3.54 -5.63,-3.54 -2.49,0 -3.19,2.74 -3.19,4.68 0,2.49 1.59,8.62 2.74,10.91 1.54,2.94 3.78,4.78 5.78,4.78 l -0.05,1.1 c -5.83,0 -12.01,-7.32 -12.01,-14.6 0,-4.68 2.74,-7.97 6.63,-7.97 0.99,0 3.48,0.2 6.47,3.74 0.4,-2.09 2.14,-3.74 4.53,-3.74 1.75,0 2.9,1.15 3.69,2.74 0.85,1.79 1.5,4.83 1.5,4.93 0,0.5 -0.45,0.5 -0.6,0.5 -0.5,0 -0.55,-0.2 -0.7,-0.89 -0.85,-3.24 -1.74,-6.18 -3.78,-6.18 -1.35,0 -1.5,1.29 -1.5,2.29 0,1.2 0.1,1.54 0.3,2.39 z"
           style="fill:#000000;stroke-width:0" /><path
           id="path2901"
           d="m 750.62,410.13 0.25,0.27 0.25,0.26 0.23,0.24 0.23,0.24 0.22,0.23 0.22,0.23 0.21,0.21 0.2,0.21 0.2,0.2 0.2,0.2 0.19,0.19 0.19,0.18 0.18,0.18 0.18,0.17 0.36,0.34 0.34,0.32 0.33,0.3 0.33,0.29 0.32,0.29 0.64,0.56 0.33,0.29 0.33,0.28 c 0,0.05 3.09,2.69 4.88,4.49 4.74,4.63 5.83,7.02 5.83,7.22 0,0.5 -0.45,0.5 -0.54,0.5 -0.35,0 -0.5,-0.1 -0.75,-0.55 -1.5,-2.39 -2.54,-3.19 -3.74,-3.19 -1.2,0 -1.79,0.75 -2.54,1.6 -0.94,1.14 -1.79,2.14 -3.44,2.14 -3.73,0 -6.02,-4.64 -6.02,-5.68 0,-0.25 0.15,-0.55 0.59,-0.55 0.45,0 0.55,0.25 0.65,0.55 0.95,2.29 3.84,2.34 4.24,2.34 1.04,0 1.99,-0.35 3.13,-0.75 2,-0.75 2.55,-0.75 3.84,-0.75 -1.79,-2.14 -5.98,-5.72 -6.92,-6.52 -2.49,-2.24 -2.54,-2.29 -4.49,-4.18 -3.38,-3.34 -5.13,-6.18 -5.13,-6.53 0,-0.5 0.5,-0.5 0.6,-0.5 0.4,0 0.5,0.1 0.79,0.65 1.15,1.74 2.65,3.09 4.24,3.09 1.15,0 1.64,-0.45 2.89,-1.89 0.85,-1.05 1.74,-1.85 3.19,-1.85 4.93,0 7.82,6.33 7.82,7.67 0,0.25 -0.2,0.5 -0.6,0.5 -0.45,0 -0.55,-0.3 -0.69,-0.65 -1.15,-3.24 -4.34,-4.18 -5.98,-4.18 -1,0 -1.9,0.3 -2.94,0.65 -1.7,0.65 -2.44,0.85 -3.49,0.85 -0.1,0 -0.9,0 -1.35,-0.16 z"
           style="fill:#000000;stroke-width:0" /><path
           id="path2903"
           d="m 783.4,418.45 -0.01,0.37 0,0.39 -0.01,0.39 -0.01,0.41 -0.04,0.84 -0.06,0.88 -0.09,0.92 -0.1,0.94 -0.14,0.98 -0.16,1 -0.2,1.02 -0.23,1.04 -0.27,1.05 -0.3,1.06 -0.35,1.06 -0.39,1.07 -0.22,0.53 -0.22,0.54 -0.24,0.53 -0.25,0.53 c -2.99,6.12 -7.27,9.36 -7.77,9.36 -0.3,0 -0.5,-0.2 -0.5,-0.5 0,-0.15 0,-0.25 0.94,-1.15 4.89,-4.92 7.73,-12.85 7.73,-23.26 0,-8.52 -1.85,-17.28 -8.02,-23.56 -0.65,-0.6 -0.65,-0.69 -0.65,-0.85 0,-0.29 0.2,-0.49 0.5,-0.49 0.5,0 4.98,3.38 7.92,9.71 2.54,5.48 3.14,11.01 3.14,15.19 z"
           style="fill:#000000;stroke-width:0" /></g>    </g>
  </g>
</svg>
