<?xml version="1.0" encoding="UTF-8" standalone="no"?>
<!-- Created with Inkscape (http://www.inkscape.org/) -->

<svg
   xmlns:dc="http://purl.org/dc/elements/1.1/"
   xmlns:cc="http://creativecommons.org/ns#"
   xmlns:rdf="http://www.w3.org/1999/02/22-rdf-syntax-ns#"
   xmlns:svg="http://www.w3.org/2000/svg"
   xmlns="http://www.w3.org/2000/svg"
   xmlns:sodipodi="http://sodipodi.sourceforge.net/DTD/sodipodi-0.dtd"
   xmlns:inkscape="http://www.inkscape.org/namespaces/inkscape"
   width="744.09448819"
   height="1052.3622047"
   id="svg3080"
   sodipodi:version="0.32"
   inkscape:version="0.46+devel r21192"
   sodipodi:docname="New document 5"
   inkscape:output_extension="org.inkscape.output.svg.inkscape">
  <defs
     id="defs3082">
    <inkscape:perspective
       sodipodi:type="inkscape:persp3d"
       inkscape:vp_x="0 : 526.18109 : 1"
       inkscape:vp_y="0 : 1000 : 0"
       inkscape:vp_z="744.09448 : 526.18109 : 1"
       inkscape:persp3d-origin="372.04724 : 350.78739 : 1"
       id="perspective3088" />
  </defs>
  <sodipodi:namedview
     id="base"
     pagecolor="#ffffff"
     bordercolor="#666666"
     borderopacity="1.0"
     inkscape:pageopacity="0.0"
     inkscape:pageshadow="2"
     inkscape:zoom="0.35"
     inkscape:cx="375"
     inkscape:cy="520"
     inkscape:document-units="px"
     inkscape:current-layer="layer1"
     showgrid="false"
     inkscape:window-width="1280"
     inkscape:window-height="712"
     inkscape:window-x="-5"
     inkscape:window-y="-3" />
  <metadata
     id="metadata3085">
    <rdf:RDF>
      <cc:Work
         rdf:about="">
        <dc:format>image/svg+xml</dc:format>
        <dc:type
           rdf:resource="http://purl.org/dc/dcmitype/StillImage" />
        <dc:title></dc:title>
      </cc:Work>
    </rdf:RDF>
  </metadata>
  <g
     inkscape:label="Layer 1"
     inkscape:groupmode="layer"
     id="layer1">
    <path
       style="color:#000000;fill:#241f1c;fill-opacity:1;fill-rule:nonzero;stroke:none;stroke-width:4;marker:none;visibility:visible;display:inline;overflow:visible;enable-background:accumulate"
       id="path7320"
       d="m -97.055937,564.26103 c 5.672643,3.94191 8.950178,9.59735 11.203853,15.97572 2.579242,10.10157 -1.385502,18.85159 -7.42323,26.75134 -4.260471,4.8883 -9.538476,8.52681 -15.205986,11.59509 -14.00814,7.58373 -17.28444,9.53326 -31.3678,12.22075 -14.28045,1.69437 -28.8663,0.39705 -42.01021,-5.79044 -2.60551,-1.22654 -5.02707,-2.81085 -7.5406,-4.21628 -12.33465,-8.47104 -21.04568,-20.82884 -23.81489,-35.66339 -0.57206,-3.06447 -0.68292,-6.1973 -1.02439,-9.29596 -0.0189,-16.70393 5.60807,-32.49613 16.03498,-45.56125 2.09378,-2.62355 4.52621,-4.95794 6.78932,-7.43691 14.82206,-12.60945 32.67144,-23.36811 52.41671,-25.31208 2.99886,-0.29525 6.02453,-0.16199 9.03679,-0.24299 13.91937,0.98647 27.19303,5.93147 36.597293,16.59525 1.71549,1.94524 3.102705,4.15701 4.654058,6.23552 8.488139,14.15326 9.977463,28.53537 7.353289,44.52582 -1.773683,8.68341 -5.990937,15.88525 -11.537553,22.61336 0,0 -10.244787,4.34299 -10.244787,4.34299 l 0,0 c 5.673,-6.51641 9.97888,-13.52254 11.855141,-22.10837 2.799436,-15.69681 1.428237,-29.81211 -6.90878,-43.74828 -1.518621,-2.02795 -2.873501,-4.18954 -4.555861,-6.08386 -9.26986,-10.43773 -22.40212,-15.10238 -36.05628,-15.9021 -8.27816,0.33028 -9.875,-0.0214 -18.046,2.01134 -3.07872,0.76592 -5.9526,2.30629 -9.07469,2.86992 -0.47779,0.0863 1.01637,-1.54806 0.57947,-1.33629 -6.82756,3.30934 -10.17792,6.5925 -16.01232,11.32838 -2.28288,2.43479 -4.73428,4.72187 -6.84862,7.30436 -10.46725,12.78489 -16.21236,28.32 -16.3357,44.833 0.31962,3.04728 0.41109,6.1272 0.95886,9.14182 2.64877,14.57736 11.21911,26.66449 23.38178,34.89353 2.48401,1.36375 4.87824,2.90561 7.45203,4.09125 13.07198,6.02174 27.55967,7.12275 41.67925,5.26703 2.60546,-0.53805 5.24534,-0.93027 7.81638,-1.61413 2.46786,-0.65642 4.72168,-2.40573 7.27534,-2.40005 1.24033,0.003 -4.01757,2.78459 -2.83518,2.40992 5.90125,-1.86993 10.86976,-7.18405 15.29948,-11.18192 6.047484,-7.47709 10.219624,-15.87364 7.841967,-25.70815 -2.145753,-6.17967 -5.336247,-11.63078 -10.953967,-15.27583 0,0 9.570853,-6.12811 9.570853,-6.12811 z" />
    <path
       style="color:#000000;fill:#241f1c;fill-opacity:1;fill-rule:nonzero;stroke:none;stroke-width:4;marker:none;visibility:visible;display:inline;overflow:visible;enable-background:accumulate"
       id="path7322"
       d="m -194.16861,558.7687 c 6.64892,6.43131 12.32858,13.7952 17.82256,21.21274 6.34526,8.96508 12.05453,18.3541 17.77119,27.72567 1.76601,2.58627 3.13006,5.81385 5.637,7.84551 1.75083,1.41891 2.66356,0.0394 2.43445,0.15805 -2.86507,1.48368 -5.75495,2.91896 -8.63243,4.37843 4.1975,-7.47582 5.76564,-16.19998 7.87443,-24.44037 2.42854,-9.69159 4.62383,-19.44587 7.4047,-29.04517 1.14204,-3.98363 2.41887,-7.90676 4.01216,-11.73179 0,0 10.26654,-4.71595 10.26654,-4.71595 l 0,0 c -1.67938,3.77963 -2.99591,7.66877 -4.1417,11.64409 -2.88173,9.57834 -5.08069,19.34268 -7.49966,29.04412 -2.12929,8.37685 -3.84364,16.98399 -7.4472,24.88373 -13.8202,8.56589 -11.9849,10.02083 -19.58727,-2.40428 -5.65499,-9.3676 -11.29612,-18.75927 -17.65669,-27.67234 -5.46279,-7.3416 -11.10991,-14.67185 -17.88929,-20.85965 0,0 9.63121,-6.02279 9.63121,-6.02279 z" />
    <path
       style="color:#000000;fill:#241f1c;fill-opacity:1;fill-rule:nonzero;stroke:none;stroke-width:4;marker:none;visibility:visible;display:inline;overflow:visible;enable-background:accumulate"
       id="path7324"
       d="m -145.32756,502.46799 c -1.87968,-6.92482 -3.02284,-14.0076 -3.97611,-21.10935 -1.56051,-10.20023 -1.23011,-20.4405 -0.1993,-30.6607 1.48614,-11.64846 4.74421,-22.95611 8.53475,-34.03667 4.64082,-12.24278 11.07956,-23.66585 17.85211,-34.8291 7.52877,-12.20627 16.2462,-23.57164 25.47202,-34.52625 10.360113,-12.50079 22.913207,-22.81782 35.588687,-32.84674 17.807745,-13.83173 37.492612,-24.87416 57.0335656,-36.0006 19.0339914,-10.68817 38.8871124,-19.81379 58.9088344,-28.47164 21.537776,-9.22593 43.941027,-16.11701 66.457943,-22.47575 22.80955,-6.18936 46.0849,-10.34592 69.49659,-13.42343 24.54021,-3.31617 49.26943,-4.64385 73.99896,-5.44972 28.6486,-1.13573 57.3037,-1.74835 85.97369,-1.63451 34.6045,0.0793 69.16124,1.91429 103.65302,4.5666 40.90095,3.10523 81.68095,7.53427 122.4217,12.25352 43.86063,5.19878 87.64105,11.04306 131.40587,16.98645 40.86881,5.82242 81.825,10.96166 122.93061,14.77547 23.35052,1.8213 11.86428,1.07815 34.45671,2.25998 0,0 -8.57376,6.15867 -8.57376,6.15867 l 0,0 c -22.54406,-1.26054 -11.08267,-0.48223 -34.38216,-2.3644 -41.06658,-3.90376 -81.98746,-9.07904 -122.82538,-14.90268 -43.7638,-5.95118 -87.54529,-11.78872 -131.40946,-16.95849 -40.77388,-4.68719 -81.58736,-9.07545 -122.5213,-12.133 -34.52619,-2.59837 -69.11581,-4.36754 -103.75034,-4.40209 -28.69813,-0.0711 -57.3801,0.5919 -86.05585,1.74283 -24.72566,0.84687 -49.44883,2.22332 -73.98211,5.56935 -23.38052,3.13208 -46.62941,7.30669 -69.40156,13.54677 -22.500549,6.39128 -44.881436,13.32974 -66.390409,22.60576 -20.016503,8.70219 -39.8659134,17.86164 -58.888426,28.59767 2.912987,-2.53511 1.243688,-1.03134 -7.989573,4.58021 -7.94592,4.82916 -15.754539,9.90813 -23.321837,15.31244 -2.374054,1.69547 -4.703543,3.45249 -7.055315,5.17873 -12.65711,9.97579 -25.241716,20.19345 -35.618262,32.61972 -9.233581,10.89712 -17.961018,22.20264 -25.504888,34.35398 -6.77183,11.09578 -13.21722,22.44195 -17.91968,34.59767 -3.80892,10.99739 -7.0753,22.22393 -8.61334,33.79099 -1.05135,10.13241 -1.44709,20.28841 0.11937,30.40578 0.9501,7.03137 2.06239,14.0587 4.05256,20.88362 0,0 -9.97793,5.43891 -9.97793,5.43891 z" />
    <path
       style="color:#000000;fill:#241f1c;fill-opacity:1;fill-rule:nonzero;stroke:none;stroke-width:4;marker:none;visibility:visible;display:inline;overflow:visible;enable-background:accumulate"
       id="path7326"
       d="m -137.92681,611.03937 c -0.99183,6.64311 -1.57298,13.33785 -2.08977,20.03172 -0.61274,8.32979 -0.80223,16.68115 -0.90811,25.03009 -0.0711,8.31294 -0.002,16.62617 0.0615,24.93891 -0.20984,7.67297 0.31367,15.27264 1.71672,22.81252 1.20047,6.72621 4.99773,11.99396 9.48843,16.91958 5.59295,6.10305 12.55003,10.44769 19.73744,14.39662 10.229174,5.14032 21.219982,8.47633 32.206261,11.55981 15.469978,4.26118 31.179467,7.57377 46.907994,10.71788 21.1749242,4.15857 42.520715,7.38866 63.855927,10.59975 26.175638,3.80119 52.505781,6.36582 78.881158,8.26265 30.36869,2.22937 60.72246,-0.1095 90.88831,-3.57085 33.28156,-4.18031 66.09957,-11.29367 98.92347,-18.07108 35.17202,-7.82418 70.45624,-15.10594 105.76222,-22.2942 37.45463,-7.83021 75.11384,-14.59631 112.85333,-20.88797 39.61459,-6.62239 79.38645,-12.18409 119.28487,-16.77259 38.363,-4.15669 76.92256,-6.10769 115.46231,-7.729 31.12107,-0.93497 62.2734,-0.64956 93.38264,0.53216 21.29407,0.94828 42.53511,2.74237 63.84808,3.21671 6.97681,0.23511 13.66151,-0.95085 20.36499,-2.6642 0,0 -8.82894,6.74229 -8.82894,6.74229 l 0,0 c -6.74133,1.55808 -13.46843,2.64178 -20.43764,2.35546 -21.24284,-0.58624 -42.41435,-2.41964 -63.64118,-3.38398 -31.02807,-1.20151 -62.09954,-1.54659 -93.14087,-0.60293 -38.49611,1.59786 -77.01185,3.53725 -115.32746,7.72406 -39.89608,4.61333 -79.66636,10.19143 -119.27826,16.83337 -37.74727,6.3157 -75.4121,13.11395 -112.87678,20.95206 -35.3228,7.20146 -70.61818,14.52215 -105.81198,22.33542 -32.86014,6.78699 -65.71753,13.8981 -99.04233,18.04152 -30.23101,3.43387 -60.64853,5.72007 -91.0759,3.46342 -26.422853,-1.8988 -52.801042,-4.46518 -79.025163,-8.26211 -21.3842987,-3.19801 -42.779734,-6.412 -64.004289,-10.55989 -15.780588,-3.1498 -31.548929,-6.43617 -47.070486,-10.70903 -11.065562,-3.12384 -22.142992,-6.48013 -32.422902,-11.72155 -7.28786,-4.02157 -14.32317,-8.47681 -19.99478,-14.67141 -4.61347,-5.08834 -8.51212,-10.54866 -9.78667,-17.4649 -1.43201,-7.59988 -2.02479,-15.26036 -1.78796,-23.00047 -0.0585,-8.32037 -0.12739,-16.64116 -0.0641,-24.96171 0.0921,-8.36849 0.2831,-16.7383 0.86611,-25.08929 0.50027,-6.69045 1.0806,-13.3759 1.92457,-20.03306 0,0 10.19926,-5.01578 10.19926,-5.01578 z" />
    <path
       style="color:#000000;fill:#241f1c;fill-opacity:1;fill-rule:nonzero;stroke:none;stroke-width:4;marker:none;visibility:visible;display:inline;overflow:visible;enable-background:accumulate"
       id="path7328"
       d="m 31.543891,203.54242 c 7.434606,1.05324 14.932524,1.56063 22.422411,2.02661 10.673039,0.42095 21.3062,-0.45205 31.851039,-2.03238 7.443311,-1.25667 3.719228,-0.56176 11.171689,-2.08772 0,0 -8.870732,6.71896 -8.870732,6.71896 l 0,0 c -7.485471,1.48978 -3.746941,0.80903 -11.215045,2.04524 -10.605238,1.51462 -21.294633,2.35567 -32.016354,1.86656 -7.558661,-0.47133 -15.119967,-1.00125 -22.632062,-1.98772 0,0 9.289054,-6.54955 9.289054,-6.54955 z" />
    <path
       style="color:#000000;fill:#241f1c;fill-opacity:1;fill-rule:nonzero;stroke:none;stroke-width:4;marker:none;visibility:visible;display:inline;overflow:visible;enable-background:accumulate"
       id="path7330"
       d="m 205.72119,172.36535 c 6.38898,2.29293 12.91144,4.07582 19.5347,5.54807 9.01268,1.87593 18.18988,2.86392 27.39049,2.9123 6.02975,-0.23042 3.01896,-0.0111 9.03225,-0.65949 0,0 -8.98617,6.66769 -8.98617,6.66769 l 0,0 c -6.06917,0.56871 -3.03455,0.38377 -9.10369,0.55715 -9.25192,-0.15682 -18.47754,-1.15765 -27.53287,-3.09847 -6.68158,-1.50899 -13.25555,-3.34895 -19.74553,-5.54211 0,0 9.41082,-6.38514 9.41082,-6.38514 z" />
    <path
       style="color:#000000;fill:#241f1c;fill-opacity:1;fill-rule:nonzero;stroke:none;stroke-width:4;marker:none;visibility:visible;display:inline;overflow:visible;enable-background:accumulate"
       id="path7332"
       d="m 380.11532,174.97099 c 6.97812,1.18371 13.91948,2.5556 20.92619,3.59122 9.45537,1.36798 18.99695,1.9118 28.53622,2.2398 6.05023,0.0326 12.08543,0.23341 18.12345,0.60872 0,0 -9.10208,6.52898 -9.10208,6.52898 l 0,0 c -6.02664,-0.35805 -12.05238,-0.52095 -18.08905,-0.59921 -9.56772,-0.35752 -19.13574,-0.94364 -28.61702,-2.33534 -7.04345,-1.05 -14.0237,-2.45377 -21.06676,-3.48462 0,0 9.28905,-6.54955 9.28905,-6.54955 z" />
    <path
       style="color:#000000;fill:#241f1c;fill-opacity:1;fill-rule:nonzero;stroke:none;stroke-width:4;marker:none;visibility:visible;display:inline;overflow:visible;enable-background:accumulate"
       id="path7334"
       d="m 585.72119,192.36535 c 6.84331,2.09024 13.72435,4.05323 20.60342,6.0268 6.18803,1.94031 12.55432,2.87811 18.98199,3.52247 0,0 -9.10594,6.47134 -9.10594,6.47134 l 0,0 c -6.46908,-0.7103 -12.87448,-1.73088 -19.10869,-3.67161 -6.92982,-1.98072 -13.86478,-3.94 -20.7816,-5.96386 0,0 9.41082,-6.38514 9.41082,-6.38514 z" />
    <path
       style="color:#000000;fill:#241f1c;fill-opacity:1;fill-rule:nonzero;stroke:none;stroke-width:4;marker:none;visibility:visible;display:inline;overflow:visible;enable-background:accumulate"
       id="path7336"
       d="m 765.78293,220.45022 c 8.27635,0.71876 16.54103,1.49104 24.79435,2.44072 7.74519,1.08871 15.46245,2.36332 23.19356,3.54637 0,0 -9.1006,6.40207 -9.1006,6.40207 l 0,0 c -7.72171,-1.19381 -15.43115,-2.47607 -23.17741,-3.50333 -8.28391,-0.92158 -16.58258,-1.73454 -24.9056,-2.20476 0,0 9.1957,-6.68107 9.1957,-6.68107 z" />
    <path
       style="color:#000000;fill:#241f1c;fill-opacity:1;fill-rule:nonzero;stroke:none;stroke-width:4;marker:none;visibility:visible;display:inline;overflow:visible;enable-background:accumulate"
       id="path7338"
       d="m 162.73907,827.85304 c 3.25649,6.13794 5.72966,12.64407 8.02657,19.18855 1.36404,4.35776 0.73078,2.22532 1.90915,6.39453 0,0 -9.89354,5.38416 -9.89354,5.38416 l 0,0 c -1.13443,-4.13983 -0.5213,-2.02384 -1.84947,-6.34504 -2.24667,-6.48369 -4.67149,-12.94448 -8.03076,-18.94804 0,0 9.83805,-5.67416 9.83805,-5.67416 z" />
    <path
       style="color:#000000;fill:#241f1c;fill-opacity:1;fill-rule:nonzero;stroke:none;stroke-width:4;marker:none;visibility:visible;display:inline;overflow:visible;enable-background:accumulate"
       id="path7340"
       d="m 145.6418,845.47494 c 8.01148,-3.55452 16.31832,-6.33809 24.61925,-9.12218 7.24877,-2.31691 14.51334,-4.56194 21.84317,-6.60834 0,0 -8.82887,6.79141 -8.82887,6.79141 l 0,0 c -7.315,2.0658 -14.57288,4.30944 -21.80489,6.64985 -8.3573,2.81526 -16.69653,5.69962 -24.7421,9.33368 0,0 8.91344,-7.04442 8.91344,-7.04442 z" />
    <path
       style="color:#000000;fill:#241f1c;fill-opacity:1;fill-rule:nonzero;stroke:none;stroke-width:4;marker:none;visibility:visible;display:inline;overflow:visible;enable-background:accumulate"
       id="path7342"
       d="m 259.48143,788.03853 c 0.88518,6.73196 1.36769,13.50618 2.11452,20.25266 0.6233,5.03636 1.39041,10.05296 2.12658,15.07355 0,0 -9.9497,5.25073 -9.9497,5.25073 l 0,0 c -0.71667,-5.03894 -1.46492,-10.07366 -2.10584,-15.12305 -0.78069,-6.71303 -1.22575,-13.46452 -2.2384,-20.15071 0,0 10.05284,-5.30318 10.05284,-5.30318 z" />
    <path
       style="color:#000000;fill:#241f1c;fill-opacity:1;fill-rule:nonzero;stroke:none;stroke-width:4;marker:none;visibility:visible;display:inline;overflow:visible;enable-background:accumulate"
       id="path7344"
       d="m 248.31201,816.87487 c 6.0121,-2.60173 12.21613,-4.75037 18.46806,-6.6972 8.10553,-2.39757 16.32051,-4.37541 24.50681,-6.47075 0,0 -8.90565,6.81734 -8.90565,6.81734 l 0,0 c -8.17761,2.08882 -16.38454,4.06543 -24.46451,6.51693 -6.26355,2.00707 -12.5156,4.15399 -18.48289,6.93538 0,0 8.87818,-7.1017 8.87818,-7.1017 z" />
    <path
       style="color:#000000;fill:#241f1c;fill-opacity:1;fill-rule:nonzero;stroke:none;stroke-width:4;marker:none;visibility:visible;display:inline;overflow:visible;enable-background:accumulate"
       id="path7346"
       d="m 376.49239,762.39569 c -0.27156,7.20356 0.14157,14.38365 0.70007,21.56192 0.63966,7.39558 1.27348,14.79164 1.89071,22.18914 0.0591,0.71383 0.11822,1.42766 0.17733,2.1415 0,0 -10.04295,5.21405 -10.04295,5.21405 l 0,0 c -0.0503,-0.71755 -0.10066,-1.43509 -0.151,-2.15264 -0.54508,-7.41455 -1.16102,-14.82335 -1.81228,-22.22931 -0.57444,-7.17947 -1.02116,-14.3572 -0.88951,-21.56437 0,0 10.12763,-5.16029 10.12763,-5.16029 z" />
    <path
       style="color:#000000;fill:#241f1c;fill-opacity:1;fill-rule:nonzero;stroke:none;stroke-width:4;marker:none;visibility:visible;display:inline;overflow:visible;enable-background:accumulate"
       id="path7348"
       d="m 365.45487,788.30344 c 5.98369,-2.83597 12.40591,-4.44683 18.84188,-5.8655 6.61301,-1.1181 13.2053,-2.06603 19.65133,-3.9547 0,0 -8.89835,6.8475 -8.89835,6.8475 l 0,0 c -6.47461,1.7659 -13.08473,2.67272 -19.67488,3.8969 -6.43914,1.48707 -12.86527,3.18845 -18.79816,6.1775 0,0 8.87818,-7.1017 8.87818,-7.1017 z" />
    <path
       style="color:#000000;fill:#241f1c;fill-opacity:1;fill-rule:nonzero;stroke:none;stroke-width:4;marker:none;visibility:visible;display:inline;overflow:visible;enable-background:accumulate"
       id="path7350"
       d="m 490.64462,739.6108 c -1.08438,7.53814 -1.5125,15.14675 -2.26924,22.7196 -0.98119,8.70082 -2.00441,17.3966 -2.86581,26.11035 -0.0399,2.9383 -0.56372,6.47696 0.87571,9.08539 -0.008,-0.19094 -0.0155,-0.38188 -0.0233,-0.57282 0,0 -9.05859,6.9405 -9.05859,6.9405 l 0,0 c -0.21461,-0.13711 -0.42921,-0.27423 -0.64381,-0.41135 -2.11542,-2.6366 -1.07315,-6.98826 -1.22068,-10.03822 0.90921,-8.71996 1.94618,-17.42536 2.92275,-26.13791 0.77075,-7.55296 1.18033,-15.13873 2.08369,-22.67976 0,0 10.19926,-5.01578 10.19926,-5.01578 z" />
    <path
       style="color:#000000;fill:#241f1c;fill-opacity:1;fill-rule:nonzero;stroke:none;stroke-width:4;marker:none;visibility:visible;display:inline;overflow:visible;enable-background:accumulate"
       id="path7352"
       d="m 468.7637,768.79825 c 7.75089,-0.89414 15.53472,-1.45008 23.32078,-1.92487 8.94204,-0.45443 17.89196,-0.5432 26.75554,-1.90241 1.20801,-0.2319 2.41603,-0.4638 3.62404,-0.6957 0,0 -8.96661,6.76955 -8.96661,6.76955 l 0,0 c -1.21368,0.21775 -2.42737,0.43549 -3.64105,0.65324 -8.8807,1.21866 -17.83038,1.31289 -26.77086,1.8 -7.82379,0.50494 -15.64921,1.07328 -23.4262,2.08946 0,0 9.10436,-6.78927 9.10436,-6.78927 z" />
    <path
       style="color:#000000;fill:#241f1c;fill-opacity:1;fill-rule:nonzero;stroke:none;stroke-width:4;marker:none;visibility:visible;display:inline;overflow:visible;enable-background:accumulate"
       id="path7354"
       d="m 608.17655,719.20624 c 1.75172,6.55945 3.27602,13.18902 4.76106,19.81592 1.89566,8.08184 3.8606,16.13857 6.29421,24.07675 0.95769,3.19538 2.32438,6.136 4.28335,8.82274 0,0 -9.75381,5.75937 -9.75381,5.75937 l 0,0 c -1.98437,-2.81833 -3.41765,-5.86368 -4.39743,-9.18244 -2.39481,-7.98085 -4.37177,-16.06459 -6.29182,-24.1714 -1.48602,-6.57302 -3.00745,-13.15669 -4.85719,-19.63464 0,0 9.96163,-5.4863 9.96163,-5.4863 z" />
    <path
       style="color:#000000;fill:#241f1c;fill-opacity:1;fill-rule:nonzero;stroke:none;stroke-width:4;marker:none;visibility:visible;display:inline;overflow:visible;enable-background:accumulate"
       id="path7358"
       d="m 585.50615,754.24932 c 5.86209,-2.50712 11.97093,-4.32483 18.16203,-5.80415 7.95543,-1.78582 16.10047,-2.35818 24.17983,-3.3097 6.88535,-0.57987 13.66602,-1.59604 20.28593,-3.58232 0.82934,-0.2848 1.65869,-0.56961 2.48803,-0.85441 0,0 -8.9162,6.92707 -8.9162,6.92707 l 0,0 c -0.83393,0.26978 -1.66787,0.53956 -2.50181,0.80933 -6.65732,1.87134 -13.47591,2.76773 -20.35546,3.40029 -8.05836,0.93551 -16.18327,1.53597 -24.09608,3.42149 -6.21282,1.56836 -12.30376,3.51172 -18.22701,5.96951 0,0 8.98074,-6.97711 8.98074,-6.97711 z" />
    <path
       style="color:#000000;fill:#241f1c;fill-opacity:1;fill-rule:nonzero;stroke:none;stroke-width:4;marker:none;visibility:visible;display:inline;overflow:visible;enable-background:accumulate"
       id="path7360"
       d="m 725.05987,716.85271 c -0.0687,6.80036 -0.85943,13.57444 -1.55445,20.33351 -0.32829,3.15748 -0.68647,6.31169 -1.06652,9.46331 0,0 -10.17039,5.0197 -10.17039,5.0197 l 0,0 c 0.42893,-3.15588 0.81963,-6.31677 1.16456,-9.48302 0.71921,-6.70075 1.54008,-13.43085 1.50706,-20.17724 0,0 10.11974,-5.15626 10.11974,-5.15626 z" />
    <path
       style="color:#000000;fill:#241f1c;fill-opacity:1;fill-rule:nonzero;stroke:none;stroke-width:4;marker:none;visibility:visible;display:inline;overflow:visible;enable-background:accumulate"
       id="path7362"
       d="m 711.49721,734.73594 c 6.50937,0.0457 13.01897,0.0399 19.52846,0.039 5.9875,-0.19008 11.93656,0.60889 17.82787,1.58328 2.43295,0.38746 4.42991,1.89901 6.68399,2.73013 0,0 -9.46298,6.32006 -9.46298,6.32006 l 0,0 c -2.11225,-0.97599 -4.13824,-2.17777 -6.47861,-2.55218 -5.8376,-0.95593 -11.72885,-1.67388 -17.65859,-1.47824 -6.54528,-9.3e-4 -13.09067,-0.006 -19.63583,0.039 0,0 9.19569,-6.68106 9.19569,-6.68106 z" />
    <path
       style="color:#000000;fill:#241f1c;fill-opacity:1;fill-rule:nonzero;stroke:none;stroke-width:4;marker:none;visibility:visible;display:inline;overflow:visible;enable-background:accumulate"
       id="path7364"
       d="m 1048.7796,287.6179 c -7.3672,2.96374 -15.1412,4.80148 -22.8654,6.56569 -14.7067,3.37494 -29.66247,5.52782 -44.63128,7.33819 -21.06741,2.11819 -42.17508,3.79627 -63.25638,5.76601 -25.49671,2.4163 -50.99645,4.79422 -76.50345,7.10131 -25.39768,2.14338 -50.84579,3.66029 -76.28886,5.15515 -21.24678,1.05931 -42.50158,1.88112 -63.74639,2.98851 -15.68543,0.8662 -31.38263,1.4551 -47.08777,1.79289 -11.26768,0.0486 -22.51353,0.21622 -33.7573,0.97337 -7.19974,0.60663 -14.4258,0.89567 -21.5462,2.16775 -6.52503,0.55701 -17.28882,6.65012 -1.08495,-2.44774 -3.31576,2.71957 -2.93945,7.89238 -3.33099,11.80242 -0.86069,11.64657 -2.25093,23.24504 -3.7398,34.82534 -2.89929,19.12474 -5.85703,38.23725 -8.6153,57.38309 -3.00275,19.78262 -4.90051,39.69593 -6.10624,59.66114 -0.58333,15.58987 -1.18577,31.17823 -1.86233,46.76492 -0.49906,11.00757 -0.79687,22.02231 -0.94397,33.03979 0.10934,7.6892 -0.69459,15.34369 -1.48171,22.98025 -0.37739,5.36629 -1.61846,10.60903 -2.74468,15.85289 -0.56776,3.65434 -1.61244,7.18909 -2.63131,10.73459 -0.89031,2.92905 -1.26559,5.96677 -2.06664,8.9164 -0.87706,2.73274 -1.5932,5.50337 -2.06916,8.33324 -0.40305,2.54757 -1.61868,4.8953 -1.87602,7.46317 0.69709,2.06795 4.82431,1.3881 6.47665,1.2518 7.10588,-0.90658 14.19464,-1.92804 21.28347,-2.95846 13.05534,-1.7134 26.18082,-2.89736 39.29937,-4.01829 18.93655,-1.31076 37.87884,-2.56529 56.83378,-3.58671 22.49515,-1.0789 44.97687,-2.37954 67.48023,-3.2883 24.66108,-1.2796 49.32709,-2.41413 74.00834,-3.21918 24.83538,-0.63582 49.67403,-0.85457 74.49419,-1.98758 22.88581,-1.02222 45.6834,-3.36407 68.40635,-6.20569 19.55185,-2.3554 38.95855,-5.71457 58.40655,-8.77347 14.8039,-2.44363 29.7414,-3.78175 44.7194,-4.46887 11.8496,-0.20237 23.6601,0.96395 35.4553,1.92967 9.5977,1.16817 19.2238,2.23749 28.7644,3.81856 6.4246,0.92482 12.6472,2.72117 18.8684,4.51084 3.2344,0.44328 5.7881,2.71243 8.9159,3.39531 3.3461,-2.45004 0.5303,-0.34373 -9.7431,4.04471 0,0 9.9233,-5.46329 9.9233,-5.46329 l 0,0 c -9.0788,8.12645 -4.995,8.7136 -9.5625,7.85898 -3.0155,-0.98387 -5.6675,-2.91293 -8.8518,-3.45903 -6.1671,-1.7975 -12.357,-3.51414 -18.728,-4.4446 -9.5074,-1.54123 -19.0812,-2.69436 -28.6485,-3.79034 -11.7512,-0.96668 -23.5219,-2.11745 -35.328,-1.84568 -14.9222,0.70556 -29.8011,2.06967 -44.5515,4.49428 -19.42426,3.04796 -38.81496,6.34731 -58.34352,8.68234 -22.72386,2.80295 -45.5201,5.10843 -68.4036,6.09772 -24.81816,1.09575 -49.65408,1.31077 -74.48561,1.96516 -24.69024,0.81518 -49.36412,1.97751 -74.03482,3.24934 -22.52021,0.9315 -45.01933,2.24542 -67.53142,3.34433 -18.98296,1.05139 -37.95508,2.31213 -56.91656,3.69169 -13.15063,1.16725 -26.3117,2.36636 -39.39217,4.16939 -7.14179,1.06454 -14.2857,2.14712 -21.4609,2.958 -2.66723,0.061 -6.58277,0.31032 -7.52532,-2.85056 0.0827,-2.6418 1.26249,-5.01556 1.85296,-7.56936 0.42086,-2.87397 1.08848,-5.69835 2.01428,-8.45394 0.84839,-2.94753 1.24081,-5.97185 2.07481,-8.92549 0.9937,-3.53823 2.15832,-7.03038 2.68588,-10.68182 1.14619,-5.2151 2.44572,-10.42635 2.84884,-15.7662 0.81053,-7.61631 1.68429,-15.24998 1.59048,-22.92258 0.1827,-11.04375 0.49965,-22.08477 1.02513,-33.118 0.72025,-15.61191 1.39306,-31.22437 1.97535,-46.84162 1.22955,-20.00025 3.12057,-39.95054 6.12462,-59.77008 2.74216,-19.11506 5.63914,-38.20425 8.49343,-57.30275 1.44276,-11.53344 2.79403,-23.08685 3.54495,-34.68904 0.37537,-4.22251 0.0832,-9.26173 2.80942,-12.74804 9.15614,-5.17671 11.5585,-7.04122 20.70018,-8.4077 7.12422,-1.15021 14.34278,-1.42161 21.52843,-2.00946 11.22541,-0.70065 22.45377,-0.81283 33.69903,-0.87054 15.66368,-0.32742 31.31983,-0.90444 46.96488,-1.74386 21.20598,-1.06886 42.42294,-1.83667 63.62824,-2.91143 25.42147,-1.48185 50.8491,-2.9742 76.22212,-5.14846 25.52777,-2.31157 51.0473,-4.70391 76.56246,-7.14915 21.11734,-1.98026 42.2609,-3.68122 63.35728,-5.88039 14.99195,-1.87445 29.97115,-4.07381 44.69155,-7.53008 7.7808,-1.83763 15.5626,-3.80422 22.9942,-6.79755 0,0 -8.9807,6.9771 -8.9807,6.9771 z" />
    <path
       style="color:#000000;fill:#241f1c;fill-opacity:1;fill-rule:nonzero;stroke:none;stroke-width:4;marker:none;visibility:visible;display:inline;overflow:visible;enable-background:accumulate"
       id="path7366"
       d="m 882.83662,430.22244 c -7.37448,1.53769 -14.31871,4.537 -20.82596,8.26404 1.82556,-0.94328 3.4264,-2.96693 5.47668,-2.82985 1.58727,0.10612 -2.56287,1.89213 -3.75547,2.94493 -4.53162,4.00042 -7.40094,8.5191 -9.58808,14.08197 -1.88821,6.61851 -0.44926,12.15858 5.16395,16.11386 6.44524,3.20744 13.34231,2.29111 20.10007,0.81187 5.59783,-1.27664 11.01979,-3.14489 16.20042,-5.60863 6.88621,-0.84794 -31.87383,19.78045 -11.70714,8.7982 -9.07622,5.61965 -17.3802,12.22551 -25.00586,19.67168 -5.77759,5.84489 -10.59211,12.36879 -11.77102,20.63167 -0.0952,7.00531 5.08842,9.27582 10.88723,11.25413 8.2073,2.51341 16.74377,2.1946 25.19701,1.67588 7.65662,-0.4281 15.15443,-2.08237 22.49068,-4.23184 4.67923,-1.5622 9.40265,-2.97967 14.18157,-4.20286 0.99035,-0.0185 3.03561,-1.31013 3.8097,-0.30683 0,0 -9.62663,6.1544 -9.62663,6.1544 l 0,0 c 0.38028,0.61938 -2.76694,0.78393 -3.18712,1.04816 -4.74314,1.23345 -9.42036,2.68648 -14.09,4.17162 -7.38004,2.08101 -14.92167,3.62021 -22.60044,4.00199 -8.56834,0.46078 -17.20718,0.6427 -25.48812,-2.01213 -6.25819,-2.24798 -11.55597,-5.13991 -11.67514,-12.56628 0.96889,-8.52477 5.65139,-15.30548 11.56769,-21.35903 7.57124,-7.51511 15.79845,-14.21723 24.87035,-19.8698 9.37072,-5.58569 9.96447,-6.06632 16.48344,-9.73325 0.8805,-0.49528 1.76195,-0.98896 2.6487,-1.47298 0.68086,-0.37163 2.61938,-1.62484 2.05392,-1.09386 -5.53868,5.20106 -4.8282,4.78414 -7.93345,6.50973 -5.22314,2.3288 -10.66984,4.09501 -16.25627,5.32766 -7.01964,1.38473 -14.15235,2.02595 -20.67487,-1.5589 -5.80962,-4.39691 -7.64122,-10.28667 -5.81257,-17.42529 4.91963,-13.5545 14.12286,-19.06182 26.73668,-25.94742 6.66668,-3.6287 13.72636,-6.65669 21.22951,-8.05333 0,0 -9.09946,6.81049 -9.09946,6.81049 z" />
    <path
       style="color:#000000;fill:#241f1c;fill-opacity:1;fill-rule:nonzero;stroke:none;stroke-width:4;marker:none;visibility:visible;display:inline;overflow:visible;enable-background:accumulate"
       id="path7368"
       d="m 944.93034,516.75365 c -0.99184,6.64312 -1.57298,13.33786 -2.08977,20.03173 -0.43132,5.89914 -0.71921,11.80828 -0.84912,17.72163 2.36168,3.67374 -11.30554,11.18066 -7.94695,4.34189 2.18088,-4.80258 4.96525,-9.23821 8.29203,-13.3182 6.99699,-7.25619 16.25759,-12.2132 25.77668,-15.37796 5.60247,-1.61617 11.32755,-2.51368 17.12859,-1.79265 2.62853,0.14432 4.6297,1.54461 6.81177,2.72376 0,0 -9.58839,6.17645 -9.58839,6.17645 l 0,0 c -1.91851,-1.358 -4.1051,-2.06214 -6.44374,-2.35227 -5.69904,-0.52506 -11.33256,0.47481 -16.78511,2.15778 -3.56909,1.28671 -13.78649,6.59933 0.51443,-1.48193 3.47354,-1.96285 -10.49621,6.26473 -7.03578,5.53729 -3.37361,3.96019 -6.21403,8.27278 -8.35395,13.03248 -2.32224,5.11168 -12.76979,13.84621 -12.47963,5.47048 0.18899,-5.94589 0.49498,-11.8882 0.92511,-17.82163 0.50026,-6.69045 1.0806,-13.3759 1.92456,-20.03306 0,0 10.19927,-5.01579 10.19927,-5.01579 z" />
    <path
       style="color:#000000;fill:#241f1c;fill-opacity:1;fill-rule:nonzero;stroke:none;stroke-width:4;marker:none;visibility:visible;display:inline;overflow:visible;enable-background:accumulate"
       id="path7370"
       d="m 319.74059,271.16058 c 0.60743,-0.33732 2.43054,-1.34781 1.82229,-1.01196 -2.38024,1.31427 -4.64431,2.86421 -7.13829,3.94723 -1.14178,0.49583 2.04098,-1.42623 3.04074,-2.16785 3.68553,-2.73392 7.1844,-5.6884 10.68274,-8.65408 7.17249,-6.11665 13.93377,-12.68406 20.37813,-19.55804 3.98146,-3.92102 7.43685,-8.48071 11.94035,-11.83586 9.02888,-5.88823 11.54727,-8.94208 15.77058,-0.98771 2.10855,4.85013 3.58657,9.93507 5.16423,14.97363 1.48884,5.34547 3.48283,10.5291 5.19381,15.80445 0.16329,0.33823 2.72697,7.08574 3.28541,5.17842 0,0 -9.12587,6.84311 -9.12587,6.84311 l 0,0 c -2.36505,-1.20437 -3.04396,-4.35521 -4.07223,-6.5774 -1.6737,-5.29279 -3.66501,-10.48191 -5.16126,-15.82988 -1.56222,-4.96696 -3.03533,-9.97602 -5.11931,-14.75677 -0.61509,-1.14239 -1.25571,-2.60438 -2.35512,-3.40094 -0.43128,-0.31247 -2.02741,0.0676 -1.58192,-0.22422 2.78608,-1.82525 5.70379,-3.4412 8.55569,-5.1618 -4.79897,2.95097 -8.0806,7.84054 -12.14952,11.64739 -6.42403,6.93095 -13.20745,13.51783 -20.36567,19.69169 -8.57666,7.34991 -17.26679,14.37038 -27.64296,19.1823 0,0 8.87818,-7.10171 8.87818,-7.10171 z" />
    <path
       style="color:#000000;fill:#241f1c;fill-opacity:1;fill-rule:nonzero;stroke:none;stroke-width:4;marker:none;visibility:visible;display:inline;overflow:visible;enable-background:accumulate"
       id="path7372"
       d="m 367.91701,239.70986 c -0.072,7.77541 -0.0755,15.55139 -0.0834,23.3271 0.19798,11.83604 -0.1879,23.64989 -0.8196,35.46634 -0.69423,15.46115 -2.36822,30.85264 -4.37101,46.19186 -2.16282,17.10129 -5.29463,34.05515 -8.02468,51.06928 -2.46711,15.78642 -4.02954,31.70431 -4.39793,47.67723 -0.28846,12.04975 1.00389,23.99065 3.5138,35.75501 1.97602,8.39873 4.38969,16.70047 6.8316,24.97609 1.74521,6.25615 3.87925,12.39346 5.61503,18.65139 1.49705,5.405 2.0164,10.98236 2.26313,16.56295 0.14693,6.82358 -0.0731,13.64874 -0.22144,20.47052 0.0629,10.5481 -0.77929,21.04258 -1.99021,31.51042 -1.39242,12.01035 -2.88626,24.00482 -4.47442,35.9907 -1.11336,9.50163 -2.15382,18.99908 -4.28151,28.3356 0,0 -10.11918,4.86671 -10.11918,4.86671 l 0,0 c 2.22928,-9.30752 3.32678,-18.78484 4.4226,-28.2833 1.59938,-11.98092 3.12068,-23.96769 4.48987,-35.9775 1.2109,-10.42056 2.0724,-20.86649 1.94615,-31.36917 0.12433,-6.79172 0.32499,-13.58592 0.19458,-20.3789 -0.21495,-5.50241 -0.68488,-11.00557 -2.13431,-16.3416 -1.70895,-6.26224 -3.8438,-12.39622 -5.56474,-18.65601 -2.44037,-8.31022 -4.8295,-16.65375 -6.81383,-25.08363 -2.5098,-11.86127 -3.83337,-23.89102 -3.52919,-36.03749 0.357,-16.02665 1.93565,-31.99741 4.38739,-47.8395 2.71896,-17.00602 5.88317,-33.94482 8.03334,-51.03817 2.00008,-15.29784 3.66001,-30.6506 4.32167,-46.07192 0.61036,-11.78676 1.02128,-23.57017 0.77,-35.37566 -0.008,-7.74737 -0.0112,-15.49502 -0.0834,-23.24209 0,0 10.11973,-5.15626 10.11973,-5.15626 z" />
    <path
       style="color:#000000;fill:#241f1c;fill-opacity:1;fill-rule:nonzero;stroke:none;stroke-width:4;marker:none;visibility:visible;display:inline;overflow:visible;enable-background:accumulate"
       id="path7374"
       d="m 339.48143,630.89567 c 1.42959,7.69375 2.72785,15.40783 4.2327,23.08777 1.54562,8.40086 3.52056,16.73231 6.4914,24.74794 1.64742,3.78898 3.49725,8.70288 8.10948,9.30643 3.26714,-1.99235 10.67348,-2.66178 -5.50878,3.00536 -0.77802,0.27246 1.05538,-1.26826 1.53896,-1.93587 1.66238,-2.29497 1.84817,-2.83338 3.26273,-5.4037 4.02822,-8.88164 8.28551,-17.63002 12.96924,-26.18555 3.88429,-6.84601 1.90742,-3.44085 5.93083,-10.21538 0,0 10.16424,-4.50851 10.16424,-4.50851 l 0,0 c -4.0345,6.74508 -2.05544,3.3532 -5.93744,10.17548 -4.69159,8.51247 -8.98241,17.21019 -12.86458,26.12286 -3.76542,7.30391 -9.76241,15.12388 -18.87887,15.41609 -4.74799,-1.41444 -6.86936,-6.01105 -8.61081,-10.32491 -2.97584,-8.08 -4.97276,-16.47004 -6.52483,-24.93354 -1.51543,-7.67768 -2.79221,-15.39787 -4.42711,-23.05129 0,0 10.05284,-5.30318 10.05284,-5.30318 z" />
    <path
       style="color:#000000;fill:#241f1c;fill-opacity:1;fill-rule:nonzero;stroke:none;stroke-width:4;marker:none;visibility:visible;display:inline;overflow:visible;enable-background:accumulate"
       id="path7376"
       d="m 264.79393,502.53813 c -2.13503,8.03792 -3.14776,16.32369 -4.14489,24.56398 -0.10935,6.92517 -1.89073,14.7833 0.99838,21.38009 0.26616,0.19845 0.46698,0.61385 0.79846,0.59537 0.3583,-0.02 1.15446,-0.83859 0.8296,-0.68613 -2.88157,1.35235 -5.46801,3.41888 -8.52713,4.29868 -0.86395,0.24846 1.04803,-1.46832 1.46141,-2.2666 1.29735,-2.50532 2.14907,-5.3452 3.06189,-7.98568 4.40944,-15.23106 7.01172,-30.91601 9.3614,-46.57391 2.47796,-17.50403 4.1152,-35.10576 6.05051,-52.67239 1.42348,-7.33877 1.04165,-15.14311 3.07254,-22.3754 3.56725,-0.95203 7.01607,-3.07394 10.70173,-2.85609 1.18381,0.07 0.37948,2.34189 0.52018,3.51939 0.96471,8.07335 1.56334,16.21108 2.24276,24.3116 1.4349,16.2284 3.29084,32.42033 5.55661,48.55323 1.6385,11.39468 3.60006,22.78754 7.03749,33.79079 1.43221,3.86158 3.37789,8.2192 7.49962,9.76799 2.92759,-0.0428 12.65813,-5.96915 -6.81592,3.56347 0,0 10.32519,-4.67406 10.32519,-4.67406 l 0,0 c -3.69788,2.68172 -7.78578,9.02102 -12.97955,7.39841 -4.16974,-2.14818 -6.38631,-6.37009 -7.87152,-10.66454 -3.37441,-11.10117 -5.3127,-22.57153 -6.94145,-34.04465 -2.24088,-16.15072 -4.09812,-32.35567 -5.6109,-48.59087 -0.70746,-8.05193 -1.36413,-16.13548 -2.38415,-24.15597 -0.14455,-1.13662 -1.27152,-2.52496 -0.52781,-3.39657 2.60476,-3.05274 6.40769,-4.83295 9.61153,-7.24943 -2.48727,3.48188 -2.16144,17.87831 -3.53815,22.19915 -2.04644,17.58566 -3.69657,35.21873 -6.13936,52.75839 -2.29619,15.66976 -4.86433,31.35032 -9.05468,46.64262 -3.58154,11.02881 -2.83958,10.86938 -15.16549,17.57764 -1.07677,0.58602 -1.93408,-0.70802 -2.45079,-1.23415 -2.91807,-6.83967 -1.28678,-14.80035 -1.12634,-21.98237 0.97765,-8.25443 1.99493,-16.53162 3.88378,-24.63658 0,0 10.26505,-4.87541 10.26505,-4.87541 z" />
    <path
       style="color:#000000;fill:#241f1c;fill-opacity:1;fill-rule:nonzero;stroke:none;stroke-width:4;marker:none;visibility:visible;display:inline;overflow:visible;enable-background:accumulate"
       id="path7378"
       d="m 177.37721,897.59568 c 11.05332,0.0185 22.09104,0.78349 33.12984,1.29269 23.72933,1.06742 47.48161,1.43034 71.23061,1.72313 36.09136,0.0314 72.16754,0.84633 108.23842,1.99035 48.43072,1.67373 96.80397,4.57125 145.16691,7.56953 57.02274,3.83731 114.04801,7.63205 171.09903,11.02637 59.34907,3.4067 118.70906,6.56473 178.02228,10.56285 53.88764,3.64459 107.65881,8.73043 161.3245,14.78702 38.6521,4.66363 77.2583,9.77728 115.6573,16.21769 19.523,3.47536 39.1223,6.80578 58.3289,11.79485 3.1669,0.2123 6.3689,2.26201 9.6185,2.02097 0.3235,-0.024 1.1672,-0.56692 0.8723,-0.43173 -3.4177,1.56669 -6.8273,3.15094 -10.2409,4.72641 0,0 9.844,-5.62496 9.844,-5.62496 l 0,0 c -11.1575,10.07707 -6.9619,8.70349 -19.2552,5.61116 -19.0362,-5.09205 -38.4873,-8.48215 -57.8606,-12.00098 -38.2535,-6.53952 -76.7198,-11.7462 -115.2403,-16.44242 -53.5837,-6.12925 -107.27782,-11.25079 -161.09214,-14.89641 -59.3049,-4.01069 -118.6575,-7.16839 -177.99943,-10.56938 -57.096,-3.38352 -114.16765,-7.14737 -171.23849,-10.92881 -48.43715,-2.94741 -96.88527,-5.7889 -145.3903,-7.37041 -36.15859,-1.07832 -72.32185,-1.80832 -108.49872,-1.77697 -23.83979,-0.25065 -47.68257,-0.56879 -71.50508,-1.56849 -11.12709,-0.4678 -22.25877,-1.19694 -33.39995,-1.0366 0,0 9.18852,-6.67586 9.18852,-6.67586 z" />
    <path
       style="color:#000000;fill:#241f1c;fill-opacity:1;fill-rule:nonzero;stroke:none;stroke-width:4;marker:none;visibility:visible;display:inline;overflow:visible;enable-background:accumulate"
       id="path7380"
       d="m 1151.5457,898.7687 c 7.7536,6.21728 16.3155,11.3355 24.7982,16.47795 14.3346,8.91735 29.2506,16.83885 43.8614,25.28496 12.8978,7.49948 25.8311,14.94292 37.8849,23.75754 6.4943,5.48473 12.55,9.56011 9.6336,18.74617 -9.019,11.54681 -25.1278,16.25258 -38.7437,20.17438 -20.1626,5.0095 -40.5375,9.1144 -60.8187,13.612 -19.6449,4.2938 -39.1703,9.1438 -59.2057,11.1803 0,0 8.8141,-6.544 8.8141,-6.544 l 0,0 c 19.9608,-2.1107 39.4317,-6.9263 59.0164,-11.1948 20.3222,-4.5089 40.7469,-8.6064 60.9139,-13.77772 6.4427,-1.92911 8.1435,-2.26261 14.1842,-4.70845 1.8314,-0.74154 4.8873,-4.325 5.4111,-2.41984 0.539,1.96078 -3.3405,2.36629 -5.1988,3.19209 -2.1939,0.9749 7.4977,-4.51523 5.4087,-4.75562 3.6078,-8.38959 -2.9559,-12.50264 -8.8055,-17.55122 -11.9819,-8.81625 -24.8463,-16.26557 -37.6951,-23.73626 -14.6324,-8.4478 -29.5597,-16.38541 -43.9454,-25.25603 -8.5816,-5.16251 -17.22,-10.30988 -25.1448,-16.45866 0,0 9.6312,-6.02279 9.6312,-6.02279 z" />
    <path
       style="color:#000000;fill:#241f1c;fill-opacity:1;fill-rule:nonzero;stroke:none;stroke-width:4;marker:none;visibility:visible;display:inline;overflow:visible;enable-background:accumulate"
       id="path7382"
       d="m 227.66546,830.96078 c -3.83592,8.45723 -10.97971,14.86148 -17.62028,21.11682 -13.30554,11.81791 -27.89839,22.05989 -42.48739,32.2063 -13.37656,9.32163 -27.25395,17.89983 -40.5964,27.26804 -4.75218,4.15637 -13.27363,8.65651 -13.21617,15.91943 4.03937,6.65568 13.58881,8.40664 20.48646,10.65053 16.21164,4.4994 32.62411,8.23162 48.94501,12.30923 18.11604,4.47929 36.06916,9.56734 53.55393,16.10342 9.49655,4.05059 20.48472,8.03503 25.29082,17.84866 0,0 -9.79288,5.55421 -9.79288,5.55421 l 0,0 c -4.47815,-9.57222 -15.57891,-13.27045 -24.62416,-17.25926 -17.43425,-6.53542 -35.3426,-11.60683 -53.4204,-16.04289 -16.38495,-4.0637 -32.86802,-7.75582 -49.13659,-12.27094 -7.45828,-2.41059 -17.25129,-4.30608 -21.36313,-11.70281 -0.66458,-7.80701 7.75586,-12.65014 12.96134,-17.04285 13.36033,-9.43757 27.31913,-17.99159 40.74668,-27.3347 14.54795,-10.09973 29.10249,-20.28306 42.41228,-32.0036 6.55642,-6.10908 13.51656,-12.34178 17.56706,-20.48523 0,0 10.29382,-4.83436 10.29382,-4.83436 z" />
    <path
       style="color:#000000;fill:#241f1c;fill-opacity:1;fill-rule:nonzero;stroke:none;stroke-width:4;marker:none;visibility:visible;display:inline;overflow:visible;enable-background:accumulate"
       id="path7384"
       d="m 545.06382,976.6814 c -0.0402,9.72902 -1.41803,19.37138 -3.0385,28.942 -2.31676,14.1793 -6.11847,28.0396 -10.3453,41.7502 -2.01066,7.2258 -5.02775,14.1774 -6.87716,21.4471 0.27657,-0.1743 -0.44119,1.2865 0.0129,1.4761 0.58263,0.2433 5.31738,-0.1616 5.96499,-0.1759 8.36425,-0.4839 16.73195,0.029 25.08654,0.4511 8.95902,0.4722 17.91986,0.9085 26.88531,1.2383 3.38383,0.058 6.77127,0.2985 10.15699,0.2201 0.0735,-0.011 0.14706,-0.022 0.22059,-0.033 -3.49323,1.6878 -6.98646,3.3756 -10.47969,5.0633 0,0 9.73047,-5.8338 9.73047,-5.8338 l 0,0 c -2.81972,2.5064 -5.63944,5.0128 -8.45916,7.5192 -0.0786,-0 -0.15724,-0.01 -0.23586,-0.014 -3.35243,-0.081 -6.70326,-0.2163 -10.05393,-0.3492 -8.94704,-0.3761 -17.89001,-0.8357 -26.83339,-1.2896 -8.37647,-0.4061 -16.76345,-0.83 -25.14626,-0.3123 -2.56964,0.043 -7.6418,0.9403 -7.06914,-3.0585 1.74527,-7.3623 5.10467,-14.3058 7.06703,-21.6129 4.28344,-13.6596 8.1459,-27.4742 10.43428,-41.6283 1.59851,-9.463 2.97809,-19.01538 2.85168,-28.63881 0,0 10.12764,-5.16029 10.12764,-5.16029 z" />
  </g>
</svg>
