<?xml version="1.0" encoding="UTF-8" standalone="no"?>
<!-- Created with Inkscape (http://www.inkscape.org/) -->

<svg
   xmlns:dc="http://purl.org/dc/elements/1.1/"
   xmlns:cc="http://creativecommons.org/ns#"
   xmlns:rdf="http://www.w3.org/1999/02/22-rdf-syntax-ns#"
   xmlns:svg="http://www.w3.org/2000/svg"
   xmlns="http://www.w3.org/2000/svg"
   xmlns:sodipodi="http://sodipodi.sourceforge.net/DTD/sodipodi-0.dtd"
   xmlns:inkscape="http://www.inkscape.org/namespaces/inkscape"
   width="1036.1752"
   height="785.58258"
   id="svg2963"
   sodipodi:version="0.32"
   inkscape:version="0.46+devel r21192"
   version="1.0"
   sodipodi:docname="c10d2.svg"
   inkscape:output_extension="org.inkscape.output.svg.inkscape">
  <sodipodi:namedview
     id="base"
     pagecolor="#ffffff"
     bordercolor="#666666"
     borderopacity="1.0"
     inkscape:pageopacity="0.0"
     inkscape:pageshadow="2"
     inkscape:zoom="0.59319034"
     inkscape:cx="543.37458"
     inkscape:cy="346.29852"
     inkscape:document-units="px"
     inkscape:current-layer="layer1"
     showgrid="false"
     inkscape:window-width="1280"
     inkscape:window-height="712"
     inkscape:window-x="-5"
     inkscape:window-y="-3" />
  <defs
     id="defs2965">
    <marker
       style="overflow:visible"
       id="DotM"
       refX="0.0"
       refY="0.0"
       orient="auto"
       inkscape:stockid="DotM">
      <path
         transform="scale(0.4) translate(7.4, 1)"
         style="fill-rule:evenodd;stroke:#000000;stroke-width:1.0pt;marker-start:none;marker-end:none"
         d="M -2.5,-1.0 C -2.5,1.7600000 -4.7400000,4.0 -7.5,4.0 C -10.260000,4.0 -12.5,1.7600000 -12.5,-1.0 C -12.5,-3.7600000 -10.260000,-6.0 -7.5,-6.0 C -4.7400000,-6.0 -2.5,-3.7600000 -2.5,-1.0 z "
         id="path3932" />
    </marker>
    <marker
       style="overflow:visible;"
       id="Arrow1Lend"
       refX="0.0"
       refY="0.0"
       orient="auto"
       inkscape:stockid="Arrow1Lend">
      <path
         transform="scale(0.8) rotate(180) translate(12.5,0)"
         style="fill-rule:evenodd;stroke:#000000;stroke-width:1.0pt;marker-start:none;"
         d="M 0.0,0.0 L 5.0,-5.0 L -12.5,0.0 L 5.0,5.0 L 0.0,0.0 z "
         id="path3870" />
    </marker>
    <marker
       style="overflow:visible"
       id="Arrow1Lstart"
       refX="0.0"
       refY="0.0"
       orient="auto"
       inkscape:stockid="Arrow1Lstart">
      <path
         transform="scale(0.8) translate(12.5,0)"
         style="fill-rule:evenodd;stroke:#000000;stroke-width:1.0pt;marker-start:none"
         d="M 0.0,0.0 L 5.0,-5.0 L -12.5,0.0 L 5.0,5.0 L 0.0,0.0 z "
         id="path3867" />
    </marker>
    <inkscape:perspective
       id="perspective2971"
       inkscape:persp3d-origin="372.04724 : 350.78739 : 1"
       inkscape:vp_z="744.09448 : 526.18109 : 1"
       inkscape:vp_y="0 : 1000 : 0"
       inkscape:vp_x="0 : 526.18109 : 1"
       sodipodi:type="inkscape:persp3d" />
    <inkscape:perspective
       sodipodi:type="inkscape:persp3d"
       inkscape:vp_x="0 : 0.5 : 1"
       inkscape:vp_y="0 : 1000 : 0"
       inkscape:vp_z="1 : 0.5 : 1"
       inkscape:persp3d-origin="0.5 : 0.33333333 : 1"
       id="perspective4698" />
    <marker
       style="overflow:visible"
       id="Arrow1Lstart-3"
       refX="0"
       refY="0"
       orient="auto"
       inkscape:stockid="Arrow1Lstart">
      <path
         transform="matrix(0.8,0,0,0.8,10,0)"
         style="fill-rule:evenodd;stroke:#000000;stroke-width:1pt;marker-start:none"
         d="M 0,0 5,-5 -12.5,0 5,5 0,0 z"
         id="path3867-9" />
    </marker>
    <marker
       style="overflow:visible"
       id="DotM-4"
       refX="0"
       refY="0"
       orient="auto"
       inkscape:stockid="DotM">
      <path
         transform="matrix(0.4,0,0,0.4,2.96,0.4)"
         style="fill-rule:evenodd;stroke:#000000;stroke-width:1pt;marker-start:none;marker-end:none"
         d="m -2.5,-1 c 0,2.76 -2.24,5 -5,5 -2.76,0 -5,-2.24 -5,-5 0,-2.76 2.24,-5 5,-5 2.76,0 5,2.24 5,5 z"
         id="path3932-8" />
    </marker>
    <marker
       style="overflow:visible"
       id="Arrow1Lend-1"
       refX="0"
       refY="0"
       orient="auto"
       inkscape:stockid="Arrow1Lend">
      <path
         transform="matrix(-0.8,0,0,-0.8,-10,0)"
         style="fill-rule:evenodd;stroke:#000000;stroke-width:1pt;marker-start:none"
         d="M 0,0 5,-5 -12.5,0 5,5 0,0 z"
         id="path3870-2" />
    </marker>
    <inkscape:perspective
       sodipodi:type="inkscape:persp3d"
       inkscape:vp_x="0 : 0.5 : 1"
       inkscape:vp_y="0 : 1000 : 0"
       inkscape:vp_z="1 : 0.5 : 1"
       inkscape:persp3d-origin="0.5 : 0.33333333 : 1"
       id="perspective5320" />
    <marker
       style="overflow:visible"
       id="Arrow1Lstart-9"
       refX="0"
       refY="0"
       orient="auto"
       inkscape:stockid="Arrow1Lstart">
      <path
         transform="matrix(0.8,0,0,0.8,10,0)"
         style="fill-rule:evenodd;stroke:#000000;stroke-width:1pt;marker-start:none"
         d="M 0,0 5,-5 -12.5,0 5,5 0,0 z"
         id="path3867-0" />
    </marker>
    <marker
       style="overflow:visible"
       id="DotM-8"
       refX="0"
       refY="0"
       orient="auto"
       inkscape:stockid="DotM">
      <path
         transform="matrix(0.4,0,0,0.4,2.96,0.4)"
         style="fill-rule:evenodd;stroke:#000000;stroke-width:1pt;marker-start:none;marker-end:none"
         d="m -2.5,-1 c 0,2.76 -2.24,5 -5,5 -2.76,0 -5,-2.24 -5,-5 0,-2.76 2.24,-5 5,-5 2.76,0 5,2.24 5,5 z"
         id="path3932-85" />
    </marker>
    <marker
       style="overflow:visible"
       id="Arrow1Lend-0"
       refX="0"
       refY="0"
       orient="auto"
       inkscape:stockid="Arrow1Lend">
      <path
         transform="matrix(-0.8,0,0,-0.8,-10,0)"
         style="fill-rule:evenodd;stroke:#000000;stroke-width:1pt;marker-start:none"
         d="M 0,0 5,-5 -12.5,0 5,5 0,0 z"
         id="path3870-9" />
    </marker>
    <inkscape:perspective
       id="perspective6598"
       inkscape:persp3d-origin="0.5 : 0.33333333 : 1"
       inkscape:vp_z="1 : 0.5 : 1"
       inkscape:vp_y="0 : 1000 : 0"
       inkscape:vp_x="0 : 0.5 : 1"
       sodipodi:type="inkscape:persp3d" />
    <inkscape:perspective
       id="perspective6822"
       inkscape:persp3d-origin="0.5 : 0.33333333 : 1"
       inkscape:vp_z="1 : 0.5 : 1"
       inkscape:vp_y="0 : 1000 : 0"
       inkscape:vp_x="0 : 0.5 : 1"
       sodipodi:type="inkscape:persp3d" />
    <marker
       style="overflow:visible"
       id="Arrow1Lend-0-9"
       refX="0"
       refY="0"
       orient="auto"
       inkscape:stockid="Arrow1Lend">
      <path
         transform="matrix(-0.8,0,0,-0.8,-10,0)"
         style="fill-rule:evenodd;stroke:#000000;stroke-width:1pt;marker-start:none"
         d="M 0,0 5,-5 -12.5,0 5,5 0,0 z"
         id="path3870-9-8" />
    </marker>
    <inkscape:perspective
       id="perspective6850"
       inkscape:persp3d-origin="0.5 : 0.33333333 : 1"
       inkscape:vp_z="1 : 0.5 : 1"
       inkscape:vp_y="0 : 1000 : 0"
       inkscape:vp_x="0 : 0.5 : 1"
       sodipodi:type="inkscape:persp3d" />
    <marker
       style="overflow:visible"
       id="Arrow1Lstart-8"
       refX="0"
       refY="0"
       orient="auto"
       inkscape:stockid="Arrow1Lstart">
      <path
         transform="matrix(0.8,0,0,0.8,10,0)"
         style="fill-rule:evenodd;stroke:#000000;stroke-width:1pt;marker-start:none"
         d="M 0,0 5,-5 -12.5,0 5,5 0,0 z"
         id="path3867-1" />
    </marker>
    <marker
       style="overflow:visible"
       id="DotM-0"
       refX="0"
       refY="0"
       orient="auto"
       inkscape:stockid="DotM">
      <path
         transform="matrix(0.4,0,0,0.4,2.96,0.4)"
         style="fill-rule:evenodd;stroke:#000000;stroke-width:1pt;marker-start:none;marker-end:none"
         d="m -2.5,-1 c 0,2.76 -2.24,5 -5,5 -2.76,0 -5,-2.24 -5,-5 0,-2.76 2.24,-5 5,-5 2.76,0 5,2.24 5,5 z"
         id="path3932-3" />
    </marker>
    <marker
       style="overflow:visible"
       id="Arrow1Lend-04"
       refX="0"
       refY="0"
       orient="auto"
       inkscape:stockid="Arrow1Lend">
      <path
         transform="matrix(-0.8,0,0,-0.8,-10,0)"
         style="fill-rule:evenodd;stroke:#000000;stroke-width:1pt;marker-start:none"
         d="M 0,0 5,-5 -12.5,0 5,5 0,0 z"
         id="path3870-4" />
    </marker>
  </defs>
  <metadata
     id="metadata2968">
    <rdf:RDF>
      <cc:Work
         rdf:about="">
        <dc:format>image/svg+xml</dc:format>
        <dc:type
           rdf:resource="http://purl.org/dc/dcmitype/StillImage" />
        <dc:title />
      </cc:Work>
    </rdf:RDF>
  </metadata>
  <g
     transform="translate(238.88484,-301.88131)"
     id="layer1"
     inkscape:groupmode="layer"
     inkscape:label="Layer 1">
    <path
       sodipodi:nodetypes="ccc"
       id="path3090"
       d="M -1.74198,916.03532 256.82945,657.46389 515.40087,398.89246"
       style="stroke:#000000;stroke-width:4;stroke-miterlimit:4;stroke-opacity:1;stroke-dasharray:none;marker-start:url(#Arrow1Lstart);marker-mid:url(#DotM);marker-end:url(#Arrow1Lend)" />
    <path
       sodipodi:nodetypes="cc"
       id="path3090-9"
       d="M 298.82945,695.46389 557.40087,436.89246"
       style="stroke:#000000;stroke-width:4;stroke-miterlimit:4;stroke-opacity:1;stroke-dasharray:none;marker-start:none;marker-mid:url(#DotM);marker-end:url(#Arrow1Lend-1)" />
    <path
       sodipodi:nodetypes="cc"
       id="path3090-6"
       d="M 37.400878,956.60675 295.97231,698.03532"
       style="stroke:#000000;stroke-width:4;stroke-miterlimit:4;stroke-opacity:1;stroke-dasharray:none;marker-start:url(#Arrow1Lstart);marker-mid:url(#DotM);marker-end:none" />
    <g
       id="g5609"
       transform="matrix(1.4803761,0,0,1.4803761,-302.73322,422.31418)">
      <g
         word-spacing="normal"
         letter-spacing="normal"
         font-size-adjust="none"
         font-stretch="normal"
         font-weight="normal"
         font-variant="normal"
         font-style="normal"
         fill-rule="even-odd"
         stroke-miterlimit="10.433"
         xml:space="preserve"
         transform="matrix(1.1222608,0,0,-1.1222608,-196.39564,777.1314)"
         id="content"
         style="font-style:normal;font-variant:normal;font-weight:normal;font-stretch:normal;letter-spacing:normal;word-spacing:normal;text-anchor:start;fill:none;stroke:#000000;stroke-linecap:butt;stroke-linejoin:miter;stroke-miterlimit:10.43299961;stroke-opacity:1;stroke-dasharray:none;stroke-dashoffset:0"><path
           id="path5612"
           d="m 488.93,417.46 0.13,0 0.14,0 0.14,0 0.07,0.01 0.07,0 0.07,0.01 0.07,0.01 0.07,0.01 0.06,0.01 0.07,0.01 0.06,0.02 0.07,0.02 0.06,0.02 0.06,0.03 0.06,0.02 0.05,0.04 0.05,0.03 0.05,0.04 0.05,0.04 0.04,0.05 0.02,0.02 0.02,0.03 0.02,0.02 0.02,0.03 0.01,0.03 0.02,0.03 0.01,0.03 0.02,0.04 0.01,0.03 0.01,0.03 0.01,0.04 0.01,0.04 0,0.04 0.01,0.04 0,0.04 0.01,0.04 0,0.05 0,0.04 c 0,1 -0.95,1 -1.64,1 h -27.15 c -0.7,0 -1.65,0 -1.65,-1 0,-0.99 0.95,-0.99 1.65,-0.99 z"
           style="fill:#000000;stroke-width:0" /><path
           id="path5614"
           d="m 519.75,435.64 -0.07,-0.06 -0.07,-0.07 -0.08,-0.07 -0.08,-0.07 -0.09,-0.08 -0.09,-0.08 -0.09,-0.09 -0.09,-0.09 -0.1,-0.09 -0.09,-0.09 -0.2,-0.19 -0.19,-0.19 -0.19,-0.21 -0.09,-0.1 -0.09,-0.1 -0.09,-0.1 -0.08,-0.11 -0.08,-0.1 -0.08,-0.1 -0.07,-0.1 -0.06,-0.1 -0.06,-0.1 -0.05,-0.1 -0.05,-0.1 -0.04,-0.09 -0.03,-0.1 -0.02,-0.09 -0.02,-0.09 0,-0.08 c 0,-0.5 0.5,-1 1,-1 0.44,0 0.69,0.35 0.94,0.65 0.6,0.75 1.74,2.14 3.93,3.24 0.36,0.2 0.85,0.45 0.85,1.05 0,0.49 -0.35,0.74 -0.69,0.99 -1.1,0.75 -1.65,1.64 -2.04,2.84 -0.11,0.45 -0.31,1.1 -1,1.1 -0.7,0 -1,-0.65 -1,-1.05 0,-0.25 0.4,-1.84 1.2,-2.89 h -16.79 c -0.85,0 -1.74,0 -1.74,-0.99 0,-1 0.89,-1 1.74,-1 z"
           style="fill:#000000;stroke-width:0" /><path
           id="path5616"
           d="m 498.38,408.94 -0.01,-0.07 -0.02,-0.08 -0.01,-0.07 -0.02,-0.08 -0.03,-0.16 -0.04,-0.16 -0.04,-0.16 -0.03,-0.16 -0.04,-0.16 -0.04,-0.16 -0.01,-0.08 -0.02,-0.07 -0.02,-0.07 -0.01,-0.07 -0.02,-0.07 -0.01,-0.07 -0.01,-0.06 -0.02,-0.06 -0.01,-0.05 -0.01,-0.06 -0.01,-0.05 0,-0.04 -0.01,-0.04 0,-0.04 -0.01,-0.03 0,-0.02 c 0,-0.9 0.7,-1.35 1.45,-1.35 0.6,0 1.5,0.4 1.84,1.4 0.1,0.2 1.8,6.97 1.99,7.87 0.4,1.64 1.3,5.13 1.6,6.47 0.2,0.65 1.59,2.99 2.79,4.09 0.4,0.34 1.84,1.64 3.99,1.64 1.29,0 2.03,-0.6 2.09,-0.6 -1.5,-0.25 -2.59,-1.44 -2.59,-2.73 0,-0.8 0.54,-1.75 1.89,-1.75 1.34,0 2.74,1.14 2.74,2.94 0,1.74 -1.6,3.24 -4.13,3.24 -3.24,0 -5.43,-2.44 -6.38,-3.84 -0.4,2.24 -2.19,3.84 -4.53,3.84 -2.3,0 -3.24,-1.95 -3.69,-2.84 -0.9,-1.7 -1.54,-4.68 -1.54,-4.83 0,-0.5 0.49,-0.5 0.59,-0.5 0.5,0 0.55,0.05 0.85,1.14 0.84,3.54 1.84,5.93 3.64,5.93 0.84,0 1.54,-0.4 1.54,-2.29 0,-1.04 -0.15,-1.59 -0.8,-4.18 z"
           style="fill:#000000;stroke-width:0" /></g>    </g>
    <g
       id="g5740"
       transform="matrix(1.4803761,0,0,1.4803761,5.9824427,141.77812)">
      <g
         id="g5742"
         transform="matrix(1.1222608,0,0,-1.1222608,-196.39564,777.1314)"
         xml:space="preserve"
         stroke-miterlimit="10.433"
         fill-rule="even-odd"
         font-style="normal"
         font-variant="normal"
         font-weight="normal"
         font-stretch="normal"
         font-size-adjust="none"
         letter-spacing="normal"
         word-spacing="normal"
         style="font-style:normal;font-variant:normal;font-weight:normal;font-stretch:normal;letter-spacing:normal;word-spacing:normal;text-anchor:start;fill:none;stroke:#000000;stroke-linecap:butt;stroke-linejoin:miter;stroke-miterlimit:10.43299961;stroke-opacity:1;stroke-dasharray:none;stroke-dashoffset:0"><path
           d="m 480.75,435.64 -0.07,-0.06 -0.07,-0.07 -0.08,-0.07 -0.08,-0.07 -0.09,-0.08 -0.09,-0.08 -0.09,-0.09 -0.09,-0.09 -0.1,-0.09 -0.09,-0.09 -0.2,-0.19 -0.19,-0.19 -0.19,-0.21 -0.09,-0.1 -0.09,-0.1 -0.09,-0.1 -0.08,-0.11 -0.08,-0.1 -0.08,-0.1 -0.07,-0.1 -0.06,-0.1 -0.06,-0.1 -0.05,-0.1 -0.05,-0.1 -0.04,-0.09 -0.03,-0.1 -0.02,-0.09 -0.02,-0.09 0,-0.08 c 0,-0.5 0.5,-1 1,-1 0.44,0 0.69,0.35 0.94,0.65 0.6,0.75 1.74,2.14 3.94,3.24 0.35,0.2 0.84,0.45 0.84,1.05 0,0.49 -0.34,0.74 -0.69,0.99 -1.1,0.75 -1.65,1.64 -2.05,2.84 -0.1,0.45 -0.3,1.1 -0.99,1.1 -0.7,0 -1,-0.65 -1,-1.05 0,-0.25 0.4,-1.84 1.2,-2.89 h -16.79 c -0.85,0 -1.74,0 -1.74,-0.99 0,-1 0.89,-1 1.74,-1 z"
           id="path5744"
           style="fill:#000000;stroke-width:0" /><path
           d="m 460.38,408.94 -0.01,-0.07 -0.02,-0.08 -0.01,-0.07 -0.02,-0.08 -0.03,-0.16 -0.04,-0.16 -0.04,-0.16 -0.03,-0.16 -0.04,-0.16 -0.04,-0.16 -0.01,-0.08 -0.02,-0.07 -0.02,-0.07 -0.01,-0.07 -0.02,-0.07 -0.01,-0.07 -0.01,-0.06 -0.02,-0.06 -0.01,-0.05 -0.01,-0.06 -0.01,-0.05 0,-0.04 -0.01,-0.04 0,-0.04 -0.01,-0.03 0,-0.02 c 0,-0.9 0.7,-1.35 1.45,-1.35 0.6,0 1.5,0.4 1.84,1.4 0.1,0.2 1.8,6.97 1.99,7.87 0.4,1.64 1.3,5.13 1.6,6.47 0.2,0.65 1.59,2.99 2.79,4.09 0.4,0.34 1.84,1.64 3.99,1.64 1.29,0 2.03,-0.6 2.09,-0.6 -1.5,-0.25 -2.59,-1.44 -2.59,-2.73 0,-0.8 0.54,-1.75 1.89,-1.75 1.34,0 2.74,1.14 2.74,2.94 0,1.74 -1.6,3.24 -4.13,3.24 -3.24,0 -5.43,-2.44 -6.38,-3.84 -0.4,2.24 -2.19,3.84 -4.53,3.84 -2.3,0 -3.24,-1.95 -3.69,-2.84 -0.9,-1.7 -1.54,-4.68 -1.54,-4.83 0,-0.5 0.49,-0.5 0.59,-0.5 0.5,0 0.55,0.05 0.85,1.14 0.84,3.54 1.84,5.93 3.64,5.93 0.84,0 1.54,-0.4 1.54,-2.29 0,-1.04 -0.15,-1.59 -0.8,-4.18 z"
           id="path5746"
           style="fill:#000000;stroke-width:0" /></g>    </g>
    <g
       id="g5878"
       transform="matrix(1.4803761,0,0,1.4803761,0.078361,-123.94767)">
      <g
         word-spacing="normal"
         letter-spacing="normal"
         font-size-adjust="none"
         font-stretch="normal"
         font-weight="normal"
         font-variant="normal"
         font-style="normal"
         fill-rule="even-odd"
         stroke-miterlimit="10.433"
         xml:space="preserve"
         transform="matrix(1.1222608,0,0,-1.1222608,-196.39564,777.1314)"
         id="g5880"
         style="font-style:normal;font-variant:normal;font-weight:normal;font-stretch:normal;letter-spacing:normal;word-spacing:normal;text-anchor:start;fill:none;stroke:#000000;stroke-linecap:butt;stroke-linejoin:miter;stroke-miterlimit:10.43299961;stroke-opacity:1;stroke-dasharray:none;stroke-dashoffset:0"><path
           id="path5882"
           d="m 478.52,427.47 0,0.02 -0.01,0.02 0,0.02 0,0.02 -0.01,0.02 0,0.02 -0.01,0.02 0,0.02 -0.01,0.02 -0.01,0.02 -0.01,0.02 -0.01,0.02 -0.01,0.03 -0.01,0.02 -0.02,0.01 -0.01,0.02 -0.02,0.02 -0.01,0.02 -0.02,0.02 -0.02,0.01 -0.02,0.02 -0.02,0.01 -0.02,0.02 -0.03,0.01 -0.02,0.01 -0.03,0.01 -0.02,0.01 -0.03,0.01 -0.03,0 -0.03,0.01 -0.03,0 -0.02,0 -0.01,0 c -0.55,0 -2.54,-1.99 -3.39,-3.44 -1.09,2.69 -3.04,3.49 -4.63,3.49 v -1.1 c 3.23,0 3.93,-4.03 3.93,-4.38 0,-0.3 -2.74,-11.21 -2.89,-11.41 -0.74,-1.4 -3.53,-4.58 -6.32,-4.58 h 0 c -2.99,0 -3.19,3.83 -3.19,4.68 0,2.39 1.44,7.82 2.29,9.91 1.54,3.69 4.14,5.78 6.18,5.78 v 1.1 c -5.88,0 -12.01,-7.38 -12.01,-14.6 0,-4.88 2.94,-7.97 6.58,-7.97 2.14,0 4.08,1.2 5.88,2.99 -0.45,-1.74 -2.09,-8.47 -2.25,-8.92 -0.4,-1.39 -0.79,-1.59 -3.58,-1.64 -0.65,0 -1.15,0 -1.15,-1 0,-0.04 0,-0.54 0.65,-0.54 h 10.11 c 0.25,0 0.9,0 0.9,0.99 0,0.55 -0.5,0.55 -1.3,0.55 -2.39,0 -2.39,0.35 -2.39,0.8 0,0.35 0.1,0.64 0.2,1.09 z"
           style="fill:#000000;stroke-width:0" /></g>    </g>
    <g
       id="g6020"
       transform="matrix(1.4803761,0,0,1.4803761,-576.90722,520.17533)">
      <g
         id="g6022"
         transform="matrix(1.1222608,0,0,-1.1222608,-196.39564,777.1314)"
         xml:space="preserve"
         stroke-miterlimit="10.433"
         fill-rule="even-odd"
         font-style="normal"
         font-variant="normal"
         font-weight="normal"
         font-stretch="normal"
         font-size-adjust="none"
         letter-spacing="normal"
         word-spacing="normal"
         style="font-style:normal;font-variant:normal;font-weight:normal;font-stretch:normal;letter-spacing:normal;word-spacing:normal;text-anchor:start;fill:none;stroke:#000000;stroke-linecap:butt;stroke-linejoin:miter;stroke-miterlimit:10.43299961;stroke-opacity:1;stroke-dasharray:none;stroke-dashoffset:0"><path
           d="m 488.93,417.46 0.13,0 0.14,0 0.14,0 0.07,0.01 0.07,0 0.07,0.01 0.07,0.01 0.07,0.01 0.06,0.01 0.07,0.01 0.06,0.02 0.07,0.02 0.06,0.02 0.06,0.03 0.06,0.02 0.05,0.04 0.05,0.03 0.05,0.04 0.05,0.04 0.04,0.05 0.02,0.02 0.02,0.03 0.02,0.02 0.02,0.03 0.01,0.03 0.02,0.03 0.01,0.03 0.02,0.04 0.01,0.03 0.01,0.03 0.01,0.04 0.01,0.04 0,0.04 0.01,0.04 0,0.04 0.01,0.04 0,0.05 0,0.04 c 0,1 -0.95,1 -1.64,1 h -27.15 c -0.7,0 -1.65,0 -1.65,-1 0,-0.99 0.95,-0.99 1.65,-0.99 z"
           id="path6024"
           style="fill:#000000;stroke-width:0" /><path
           d="m 516.52,427.47 0,0.02 -0.01,0.02 0,0.02 0,0.02 -0.01,0.02 0,0.02 -0.01,0.02 0,0.02 -0.01,0.02 -0.01,0.02 -0.01,0.02 -0.01,0.02 -0.01,0.03 -0.01,0.02 -0.02,0.01 -0.01,0.02 -0.02,0.02 -0.01,0.02 -0.02,0.02 -0.02,0.01 -0.02,0.02 -0.02,0.01 -0.02,0.02 -0.03,0.01 -0.02,0.01 -0.03,0.01 -0.02,0.01 -0.03,0.01 -0.03,0 -0.03,0.01 -0.03,0 -0.02,0 -0.01,0 c -0.55,0 -2.54,-1.99 -3.39,-3.44 -1.09,2.69 -3.04,3.49 -4.63,3.49 v -1.1 c 3.23,0 3.93,-4.03 3.93,-4.38 0,-0.3 -2.74,-11.21 -2.89,-11.41 -0.74,-1.4 -3.53,-4.58 -6.32,-4.58 h 0 c -2.99,0 -3.19,3.83 -3.19,4.68 0,2.39 1.44,7.82 2.29,9.91 1.54,3.69 4.14,5.78 6.18,5.78 v 1.1 c -5.88,0 -12.01,-7.38 -12.01,-14.6 0,-4.88 2.94,-7.97 6.58,-7.97 2.14,0 4.08,1.2 5.88,2.99 -0.45,-1.74 -2.09,-8.47 -2.25,-8.92 -0.4,-1.39 -0.79,-1.59 -3.58,-1.64 -0.65,0 -1.15,0 -1.15,-1 0,-0.04 0,-0.54 0.65,-0.54 h 10.11 c 0.25,0 0.9,0 0.9,0.99 0,0.55 -0.5,0.55 -1.3,0.55 -2.39,0 -2.39,0.35 -2.39,0.8 0,0.35 0.1,0.64 0.2,1.09 z"
           id="path6026"
           style="fill:#000000;stroke-width:0" /></g>    </g>
    <g
       id="g6172"
       transform="matrix(1.4803761,0,0,1.4803761,224.04546,-80.965114)">
      <g
         word-spacing="normal"
         letter-spacing="normal"
         font-size-adjust="none"
         font-stretch="normal"
         font-weight="normal"
         font-variant="normal"
         font-style="normal"
         fill-rule="even-odd"
         stroke-miterlimit="10.433"
         xml:space="preserve"
         transform="matrix(1.1222608,0,0,-1.1222608,-196.39564,777.1314)"
         id="g6174"
         style="font-style:normal;font-variant:normal;font-weight:normal;font-stretch:normal;letter-spacing:normal;word-spacing:normal;text-anchor:start;fill:none;stroke:#000000;stroke-linecap:butt;stroke-linejoin:miter;stroke-miterlimit:10.43299961;stroke-opacity:1;stroke-dasharray:none;stroke-dashoffset:0"><path
           id="path6176"
           d="m 471.09,422.19 h 4.84 c 3.73,0 4.13,-0.8 4.13,-2.24 0,-0.35 0,-0.95 -0.35,-2.44 -0.1,-0.25 -0.15,-0.45 -0.15,-0.55 0,-0.4 0.3,-0.6 0.6,-0.6 0.5,0 0.5,0.15 0.75,1.05 l 2.73,10.8 c 0.16,0.56 0.16,0.65 0.16,0.8 0,0.1 -0.1,0.55 -0.6,0.55 -0.5,0 -0.55,-0.25 -0.75,-1.04 -1.04,-3.89 -2.19,-4.79 -6.43,-4.79 h -4.53 l 3.19,12.66 c 0.45,1.74 0.5,1.94 2.69,1.94 h 6.58 c 6.12,0 7.27,-1.65 7.27,-5.48 0,-1.15 0,-1.35 -0.15,-2.69 -0.1,-0.65 -0.1,-0.75 -0.1,-0.9 0,-0.25 0.15,-0.6 0.6,-0.6 0.54,0 0.59,0.3 0.7,1.25 l 0.99,8.62 c 0.15,1.34 -0.1,1.34 -1.35,1.34 h -24.4 c -1,0 -1.5,0 -1.5,-0.99 0,-0.55 0.45,-0.55 1.4,-0.55 1.84,0 3.23,0 3.23,-0.9 0,-0.2 0,-0.3 -0.25,-1.19 l -6.57,-26.35 c -0.5,-1.95 -0.6,-2.35 -4.53,-2.35 -0.85,0 -1.4,0 -1.4,-0.94 0,-0.6 0.6,-0.6 0.75,-0.6 h 14 c 0.45,0 1.04,0 1.04,0.95 0,0.39 -0.29,0.5 -0.29,0.55 -0.16,0.04 -0.25,0.04 -1.4,0.04 -1.1,0 -1.35,0 -2.59,0.1 -1.44,0.15 -1.6,0.35 -1.6,1 0,0.1 0,0.4 0.2,1.15 z"
           style="fill:#000000;stroke-width:0" /><path
           id="path6178"
           d="m 504.14,406.88 h 10.67 c 0.46,0 1.29,0 1.29,0.84 0,0.87 -0.8,0.87 -1.29,0.87 h -10.67 v 10.7 c 0,0.46 0,1.29 -0.83,1.29 -0.87,0 -0.87,-0.8 -0.87,-1.29 v -10.7 h -10.71 c -0.45,0 -1.29,0 -1.29,-0.84 0,-0.87 0.8,-0.87 1.29,-0.87 h 10.71 v -10.7 c 0,-0.46 0,-1.29 0.83,-1.29 0.87,0 0.87,0.8 0.87,1.29 z"
           style="fill:#000000;stroke-width:0" /></g>    </g>
    <g
       id="g6332"
       transform="matrix(1.4803761,0,0,1.4803761,-707.48914,485.61628)">
      <g
         id="g6334"
         transform="matrix(1.1222608,0,0,-1.1222608,-196.39564,777.1314)"
         xml:space="preserve"
         stroke-miterlimit="10.433"
         fill-rule="even-odd"
         font-style="normal"
         font-variant="normal"
         font-weight="normal"
         font-stretch="normal"
         font-size-adjust="none"
         letter-spacing="normal"
         word-spacing="normal"
         style="font-style:normal;font-variant:normal;font-weight:normal;font-stretch:normal;letter-spacing:normal;word-spacing:normal;text-anchor:start;fill:none;stroke:#000000;stroke-linecap:butt;stroke-linejoin:miter;stroke-miterlimit:10.43299961;stroke-opacity:1;stroke-dasharray:none;stroke-dashoffset:0"><path
           d="m 471.09,422.19 h 4.84 c 3.73,0 4.13,-0.8 4.13,-2.24 0,-0.35 0,-0.95 -0.35,-2.44 -0.1,-0.25 -0.15,-0.45 -0.15,-0.55 0,-0.4 0.3,-0.6 0.6,-0.6 0.5,0 0.5,0.15 0.75,1.05 l 2.73,10.8 c 0.16,0.56 0.16,0.65 0.16,0.8 0,0.1 -0.1,0.55 -0.6,0.55 -0.5,0 -0.55,-0.25 -0.75,-1.04 -1.04,-3.89 -2.19,-4.79 -6.43,-4.79 h -4.53 l 3.19,12.66 c 0.45,1.74 0.5,1.94 2.69,1.94 h 6.58 c 6.12,0 7.27,-1.65 7.27,-5.48 0,-1.15 0,-1.35 -0.15,-2.69 -0.1,-0.65 -0.1,-0.75 -0.1,-0.9 0,-0.25 0.15,-0.6 0.6,-0.6 0.54,0 0.59,0.3 0.7,1.25 l 0.99,8.62 c 0.15,1.34 -0.1,1.34 -1.35,1.34 h -24.4 c -1,0 -1.5,0 -1.5,-0.99 0,-0.55 0.45,-0.55 1.4,-0.55 1.84,0 3.23,0 3.23,-0.9 0,-0.2 0,-0.3 -0.25,-1.19 l -6.57,-26.35 c -0.5,-1.95 -0.6,-2.35 -4.53,-2.35 -0.85,0 -1.4,0 -1.4,-0.94 0,-0.6 0.6,-0.6 0.75,-0.6 h 14 c 0.45,0 1.04,0 1.04,0.95 0,0.39 -0.29,0.5 -0.29,0.55 -0.16,0.04 -0.25,0.04 -1.4,0.04 -1.1,0 -1.35,0 -2.59,0.1 -1.44,0.15 -1.6,0.35 -1.6,1 0,0.1 0,0.4 0.2,1.15 z"
           id="path6336"
           style="fill:#000000;stroke-width:0" /><path
           d="m 514.05,406.88 0.04,0 0.05,0 0.04,0 0.05,0 0.05,0 0.05,0 0.06,0.01 0.05,0 0.05,0.01 0.06,0 0.05,0.01 0.05,0.01 0.06,0.02 0.05,0.01 0.05,0.02 0.05,0.01 0.05,0.02 0.05,0.03 0.04,0.02 0.05,0.03 0.04,0.04 0.04,0.03 0.03,0.04 0.02,0.02 0.02,0.02 0.01,0.03 0.02,0.02 0.01,0.02 0.02,0.03 0.01,0.03 0.01,0.02 0.01,0.03 0.01,0.03 0.01,0.03 0,0.03 0.01,0.04 0.01,0.03 0,0.04 0,0.03 0.01,0.04 0,0.04 c 0,0.87 -0.81,0.87 -1.29,0.87 h -21 c -0.48,0 -1.28,0 -1.28,-0.87 0,-0.84 0.83,-0.84 1.28,-0.84 z"
           id="path6338"
           style="fill:#000000;stroke-width:0" /></g>    </g>
    <g
       id="g6500"
       transform="matrix(1.4803761,0,0,1.4803761,-274.86583,133.62963)">
      <g
         word-spacing="normal"
         letter-spacing="normal"
         font-size-adjust="none"
         font-stretch="normal"
         font-weight="normal"
         font-variant="normal"
         font-style="normal"
         fill-rule="even-odd"
         stroke-miterlimit="10.433"
         xml:space="preserve"
         transform="matrix(1.1222608,0,0,-1.1222608,-196.39564,777.1314)"
         id="g6502"
         style="font-style:normal;font-variant:normal;font-weight:normal;font-stretch:normal;letter-spacing:normal;word-spacing:normal;text-anchor:start;fill:none;stroke:#000000;stroke-linecap:butt;stroke-linejoin:miter;stroke-miterlimit:10.43299961;stroke-opacity:1;stroke-dasharray:none;stroke-dashoffset:0"><path
           id="path6504"
           d="m 481.7,440.02 0,0.01 0,0 0,0.01 0,0.01 0,0.01 0,0.01 0,0.02 0,0.02 -0.01,0.02 0,0.02 -0.01,0.02 0,0.02 -0.01,0.03 -0.01,0.02 -0.01,0.03 -0.01,0.02 -0.02,0.02 -0.01,0.03 -0.02,0.02 -0.02,0.03 -0.03,0.02 -0.01,0.01 -0.01,0.01 -0.01,0.01 -0.02,0.01 -0.01,0.01 -0.02,0.01 -0.01,0.01 -0.02,0.01 -0.02,0.01 -0.02,0.01 -0.01,0.01 -0.02,0 -0.03,0.01 -0.02,0.01 -0.02,0 -0.02,0.01 -0.02,0 -0.03,0.01 -0.02,0 -0.03,0 -0.03,0.01 -0.03,0 -0.03,0 -0.03,0 c -0.74,0 -5.47,-0.45 -6.32,-0.55 -0.4,-0.05 -0.7,-0.3 -0.7,-0.95 0,-0.59 0.45,-0.59 1.2,-0.59 2.39,0 2.49,-0.35 2.49,-0.85 l -0.15,-0.99 -2.99,-11.81 c -0.9,1.84 -2.34,3.19 -4.58,3.19 l 0.05,-1.1 c 3.24,0 3.93,-4.08 3.93,-4.38 0,-0.3 -0.1,-0.6 -0.15,-0.85 l -2.49,-9.76 c -0.25,-0.9 -0.25,-1 -0.99,-1.84 -2.19,-2.75 -4.24,-3.54 -5.63,-3.54 -2.49,0 -3.19,2.74 -3.19,4.68 0,2.49 1.59,8.62 2.74,10.91 1.54,2.94 3.78,4.78 5.78,4.78 l -0.05,1.1 c -5.83,0 -12.01,-7.32 -12.01,-14.6 0,-4.68 2.74,-7.97 6.63,-7.97 0.99,0 3.49,0.2 6.47,3.74 0.4,-2.09 2.14,-3.74 4.53,-3.74 1.75,0 2.9,1.15 3.69,2.74 0.85,1.79 1.5,4.83 1.5,4.93 0,0.5 -0.45,0.5 -0.6,0.5 -0.5,0 -0.55,-0.2 -0.7,-0.89 -0.85,-3.24 -1.74,-6.18 -3.78,-6.18 -1.35,0 -1.5,1.29 -1.5,2.29 0,1.2 0.1,1.54 0.3,2.39 z"
           style="fill:#000000;stroke-width:0" /></g>    </g>
    <path
       sodipodi:type="arc"
       style="color:#000000;fill:#000000;fill-opacity:1;fill-rule:nonzero;stroke:#000000;stroke-width:4;stroke-linecap:round;stroke-linejoin:round;stroke-miterlimit:4;stroke-opacity:1;stroke-dasharray:none;stroke-dashoffset:0;marker:none;visibility:visible;display:inline;overflow:visible;enable-background:accumulate"
       id="path6588"
       sodipodi:cx="371.71881"
       sodipodi:cy="-46.359486"
       sodipodi:rx="22.758293"
       sodipodi:ry="22.758293"
       d="m 394.4771,-46.359486 a 22.758293,22.758293 0 1 1 -45.51658,0 22.758293,22.758293 0 1 1 45.51658,0 z"
       transform="translate(160.64965,424.94468)" />
    <path
       sodipodi:type="arc"
       style="color:#000000;fill:#000000;fill-opacity:1;fill-rule:nonzero;stroke:#000000;stroke-width:4;stroke-linecap:round;stroke-linejoin:round;stroke-miterlimit:4;stroke-opacity:1;stroke-dasharray:none;stroke-dashoffset:0;marker:none;visibility:visible;display:inline;overflow:visible;enable-background:accumulate"
       id="path6588-1"
       sodipodi:cx="371.71881"
       sodipodi:cy="-46.359486"
       sodipodi:rx="22.758293"
       sodipodi:ry="22.758293"
       d="m 394.4771,-46.359486 a 22.758293,22.758293 0 1 1 -45.51658,0 22.758293,22.758293 0 1 1 45.51658,0 z"
       transform="translate(-400.19327,974.21657)" />
    <path
       style="stroke:#000000;stroke-width:4;stroke-miterlimit:4;stroke-opacity:1;stroke-dasharray:none;marker-end:url(#Arrow1Lend-0)"
       d="m 551.75514,377.74229 114.63437,0"
       id="path6612" />
    <path
       style="stroke:#000000;stroke-width:4;stroke-miterlimit:4;stroke-opacity:1;stroke-dasharray:none;marker-end:url(#Arrow1Lend-0)"
       d="m -34.8371,927.11389 -114.63437,0"
       id="path6612-4" />
    <path
       sodipodi:nodetypes="ccc"
       id="path3090-4"
       d="M 1.845315,865.73671 230.30526,637.27678 458.76519,408.81684"
       style="stroke:#000000;stroke-width:3.53418708;stroke-miterlimit:4;stroke-opacity:1;stroke-dasharray:none;marker-start:url(#Arrow1Lstart);marker-mid:none;marker-end:url(#Arrow1Lend)" />
  </g>
</svg>
