<?xml version="1.0" encoding="UTF-8" standalone="no"?>
<!-- Created with Inkscape (http://www.inkscape.org/) -->
<svg
   xmlns:dc="http://purl.org/dc/elements/1.1/"
   xmlns:cc="http://creativecommons.org/ns#"
   xmlns:rdf="http://www.w3.org/1999/02/22-rdf-syntax-ns#"
   xmlns:svg="http://www.w3.org/2000/svg"
   xmlns="http://www.w3.org/2000/svg"
   xmlns:sodipodi="http://sodipodi.sourceforge.net/DTD/sodipodi-0.dtd"
   xmlns:inkscape="http://www.inkscape.org/namespaces/inkscape"
   width="1305.1637"
   height="1186.4961"
   id="svg2"
   sodipodi:version="0.32"
   inkscape:version="0.46"
   version="1.0"
   sodipodi:docname="c13d1.svg"
   inkscape:output_extension="org.inkscape.output.svg.inkscape">
  <defs
     id="defs4">
    <inkscape:perspective
       sodipodi:type="inkscape:persp3d"
       inkscape:vp_x="0 : 526.18109 : 1"
       inkscape:vp_y="0 : 1000 : 0"
       inkscape:vp_z="744.09448 : 526.18109 : 1"
       inkscape:persp3d-origin="372.04724 : 350.78739 : 1"
       id="perspective10" />
  </defs>
  <sodipodi:namedview
     id="base"
     pagecolor="#ffffff"
     bordercolor="#666666"
     borderopacity="1.0"
     gridtolerance="10000"
     guidetolerance="10"
     objecttolerance="10"
     inkscape:pageopacity="0.0"
     inkscape:pageshadow="2"
     inkscape:zoom="0.35"
     inkscape:cx="375"
     inkscape:cy="520"
     inkscape:document-units="px"
     inkscape:current-layer="layer1"
     showgrid="false"
     inkscape:window-width="1270"
     inkscape:window-height="785"
     inkscape:window-x="0"
     inkscape:window-y="0" />
  <metadata
     id="metadata7">
    <rdf:RDF>
      <cc:Work
         rdf:about="">
        <dc:format>image/svg+xml</dc:format>
        <dc:type
           rdf:resource="http://purl.org/dc/dcmitype/StillImage" />
      </cc:Work>
    </rdf:RDF>
  </metadata>
  <g
     inkscape:label="Layer 1"
     inkscape:groupmode="layer"
     id="layer1"
     transform="translate(-63.48151,10.69626)">
    <path
       style="fill:#000000;fill-opacity:1;fill-rule:nonzero;stroke:none;stroke-width:1px;stroke-linecap:butt;stroke-linejoin:miter;stroke-opacity:1"
       id="path2437"
       d="M 514.28323,140.28353 C 502.23467,159.48721 478.49882,169.55336 459.89254,180.2312 C 435.22011,193.18075 408.81788,200.40526 381.45701,204.80306 C 359.28109,207.12448 336.45728,206.28258 315.39787,198.26912 C 311.58425,196.81798 307.96625,194.89732 304.25045,193.21142 C 287.25402,183.67671 273.4368,169.20214 269.01117,149.70943 C 268.12949,145.82605 267.98406,141.81152 267.4705,137.86257 C 267.43498,113.58845 277.4606,91.315509 292.35182,72.472804 C 295.8271,68.075328 299.76985,64.068381 303.47887,59.866169 C 316.02773,47.125462 330.33062,36.324027 345.89453,27.52824 C 368.84784,14.556397 378.9268,7.9041019 400.8578,0.54339747 C 406.76423,-1.4389782 412.83666,-2.8873075 418.82609,-4.60266 C 448.06698,-11.323414 478.66658,-13.222405 508.12191,-6.5245586 C 513.44727,-5.3136247 518.62507,-3.526708 523.87665,-2.0277828 C 545.94513,6.2541206 566.79512,19.334269 578.37947,40.580167 C 580.3457,44.186272 581.67343,48.105462 583.32041,51.86811 C 589.10578,71.611047 586.57182,91.753315 575.26632,109.10375 C 572.94864,112.66066 570.07376,115.82166 567.47749,119.18062 C 564.23494,122.26379 561.2008,125.58216 557.74984,128.43014 C 554.13999,131.40925 550.35009,134.1988 546.345,136.62066 C 530.55399,146.16943 521.49765,152.91698 505.71331,157.09614 C 496.57822,159.51481 493.63924,159.34091 484.26655,160.11551 C 469.49594,159.60022 477.07478,159.87111 461.53009,159.30074 L 462.22472,158.79857 C 479.41555,158.99028 470.50582,159.59732 488.92538,156.59847 C 501.97056,153.18031 505.24154,152.79966 517.79941,147.57237 C 522.50108,145.61527 526.79328,142.68356 531.62065,141.0611 C 534.4492,140.11043 522.37862,148.12051 523.8658,145.53348 C 527.66992,138.91596 538.75338,138.74523 541.13821,130.49918 C 543.47278,127.42225 546.04359,124.51105 548.1419,121.26839 C 558.85762,104.70868 562.36438,85.343043 557.70022,66.193266 C 556.31133,62.483585 555.27319,58.62293 553.53355,55.064224 C 543.29854,34.126939 523.83761,20.702229 502.66933,12.478443 C 497.60373,10.966101 492.61957,9.1478144 487.47252,7.9414176 C 458.49509,1.1495146 428.39854,3.1964285 399.69012,10.154264 C 393.6981,11.960748 387.62475,13.516683 381.71405,15.573716 C 375.85584,17.612484 370.4461,20.981381 364.41495,22.430684 C 362.57995,22.871638 370.3617,17.851594 368.67899,18.706079 C 352.80388,26.767527 338.83655,38.25515 325.97238,50.398299 C 322.2768,54.498017 318.36309,58.411152 314.88565,62.697454 C 300.07902,80.948147 289.80172,102.39638 289.65616,126.20594 C 290.11804,129.99979 290.22192,133.85461 291.04179,137.5875 C 295.15488,156.31471 308.48259,170.29068 324.53582,179.77849 C 328.08037,181.45898 331.52459,183.36988 335.16948,184.81994 C 355.53963,192.9239 377.80187,193.81997 399.34482,191.36912 C 403.97012,190.636 408.62592,190.07458 413.22073,189.16978 C 435.44697,184.79303 456.85023,176.7038 476.98199,166.42469 C 473.96185,168.23373 471.4121,171.39355 467.92156,171.8518 C 464.67598,172.2779 473.4876,168.3993 476.17523,166.53061 C 481.82102,162.60513 487.3144,158.16705 491.63212,152.77045 C 492.40843,151.80016 493.03606,150.71973 493.73803,149.69437 L 514.28323,140.28353 z" />
    <path
       style="fill:#000000;fill-opacity:1;fill-rule:nonzero;stroke:none;stroke-width:1px;stroke-linecap:butt;stroke-linejoin:miter;stroke-opacity:1"
       id="path2439"
       d="M 287.27114,104.32213 C 289.64141,116.06775 290.96862,127.97582 292.07366,139.89555 C 293.7651,159.47777 293.91055,179.13432 294.12814,198.77295 C 294.35928,230.03011 292.60443,261.23975 290.71715,292.42466 C 287.63923,337.9741 285.7135,383.58294 285.10662,429.2299 C 284.66341,479.99566 287.68675,530.69757 290.14476,581.37975 C 293.26749,636.87805 295.09647,692.43618 296.70551,747.99533 C 298.61401,808.89695 300.52247,869.79701 300.75092,930.73139 C 299.72156,974.92931 296.89188,1019.0491 294.81903,1063.2011 L 294.05541,1063.5904 C 291.79867,1022.2034 286.49277,981.06195 283.16671,939.75109 C 280.07234,879.09966 279.16238,818.37292 277.85287,757.66248 C 276.59517,701.94426 274.86561,646.23709 272.33075,590.56091 C 270.068,539.67208 267.47503,488.76262 268.20709,437.80342 C 269.20039,391.99682 271.18576,346.2225 274.57172,300.52571 C 276.54828,269.35059 278.51645,238.1478 278.23473,206.89189 C 278.0419,187.07111 277.4608,167.25572 277.45495,147.43264 C 277.38983,134.7181 277.51421,122.00658 277.74323,109.29435 L 287.27114,104.32213 z" />
    <path
       style="fill:#000000;fill-opacity:1;fill-rule:nonzero;stroke:none;stroke-width:1px;stroke-linecap:butt;stroke-linejoin:miter;stroke-opacity:1"
       id="path2441"
       d="M 582.7339,84.513887 C 582.94287,98.347257 582.07338,112.17696 581.57599,125.99843 C 580.86241,148.87337 580.54492,171.75871 580.75843,194.64363 C 581.0657,229.07489 582.00006,263.49662 582.92265,297.91568 C 583.96463,344.11877 585.02894,390.3218 586.04097,436.52572 C 587.5058,490.7432 586.9147,544.97084 585.42841,599.17756 C 583.05235,660.12651 580.65586,721.07378 578.48459,782.0304 C 578.15418,791.73617 577.86214,801.44333 577.49336,811.14772 C 576.80118,829.36222 576.0815,848.75641 574.43836,866.92961 C 572.12156,892.55339 568.31117,918.09487 564.81042,943.57573 C 560.20234,973.062 562.62598,958.64137 557.57845,986.84414 L 556.81192,987.22772 C 555.63525,962.02487 556.20488,974.94947 555.11361,948.45345 C 554.12968,925.10558 552.50309,901.74538 551.78461,878.39111 C 550.93329,850.71859 551.68457,823.01686 552.15361,795.34751 C 553.63203,734.43454 556.1911,673.56283 558.7034,612.68538 C 560.75421,558.1377 562.4831,503.56551 561.70593,448.96985 C 561.36413,402.57819 560.80856,356.18868 559.7229,309.80769 C 558.96948,275.31341 557.76915,240.82259 557.84168,206.31594 C 558.1257,183.04694 558.48569,159.7659 560.51217,136.56814 C 561.77184,122.0196 563.07991,107.45812 565.63966,93.067631 L 582.7339,84.513887 z" />
    <path
       style="fill:#000000;fill-opacity:1;fill-rule:nonzero;stroke:none;stroke-width:1px;stroke-linecap:butt;stroke-linejoin:miter;stroke-opacity:1"
       id="path2445"
       d="M 546.28677,1056.714 C 537.87057,1070.0694 524.89163,1079.1546 511.87232,1087.5713 C 485.80845,1103.79 458.49758,1117.9312 428.17542,1123.9223 C 423.86758,1124.7735 419.49339,1125.2452 415.15238,1125.9066 C 396.27643,1127.6347 376.96779,1125.5412 360.21139,1116.0925 C 357.43576,1114.5273 354.90552,1112.5622 352.25258,1110.7971 C 341.31955,1101.7378 332.90964,1089.4126 335.28004,1074.5407 C 335.75281,1071.5745 336.89707,1068.7552 337.70559,1065.8624 C 339.2379,1062.8884 340.50448,1059.7617 342.30253,1056.9404 C 360.11143,1028.9969 395.01028,1013.3326 422.09195,997.71624 C 446.98488,985.24553 473.73818,976.09338 501.50334,972.9437 C 506.44992,972.38256 511.43632,972.25829 516.40282,971.91559 C 534.62461,972.37404 555.99004,973.69562 569.76063,987.47427 C 571.73637,989.45116 573.17389,991.90103 574.88052,994.11441 C 575.78749,996.65087 577.13858,999.07012 577.60143,1001.7238 C 581.09875,1021.7749 562.58668,1037.5424 549.58933,1049.346 C 534.7723,1059.7618 533.35016,1061.3535 517.15412,1070.2564 C 502.71732,1078.1923 488.19103,1087.4119 471.90322,1091.3844 C 467.7398,1092.3999 463.41235,1092.5532 459.16692,1093.1375 L 459.84655,1092.6152 C 499.12665,1078.248 460.27759,1092.9664 497.72372,1077.3002 C 497.90884,1077.2228 498.08685,1077.6812 498.25835,1077.577 C 510.25419,1070.2884 510.34128,1069.6481 521.00859,1061.036 C 532.34589,1050.5799 549.99111,1035.5453 547.99991,1018.0038 C 547.73345,1015.6564 546.67433,1013.4687 546.01154,1011.2011 C 544.59829,1009.1518 543.47487,1006.8688 541.77179,1005.0532 C 529.24295,991.69666 508.96486,990.31667 491.96004,989.92418 C 487.19296,990.23054 482.4053,990.30517 477.65878,990.84326 C 450.05508,993.97253 423.59615,1003.7251 399.02843,1016.3688 C 402.73877,1014.1569 413.07986,1006.55 410.15946,1009.7329 C 406.67921,1013.526 401.45872,1015.249 397.28772,1018.266 C 384.39265,1027.5933 372.55564,1038.632 365.15525,1052.9003 C 364.23576,1055.5805 363.01208,1058.1751 362.39677,1060.9411 C 359.31004,1074.8167 366.41701,1086.534 376.86277,1095.0254 C 379.40578,1096.694 381.82979,1098.5598 384.49178,1100.0312 C 400.9548,1109.1306 419.99519,1110.3385 438.34916,1108.4982 C 455.65661,1105.7314 472.13776,1101.7146 488.33073,1094.8502 C 492.13218,1093.2387 500.40116,1085.6206 499.581,1089.6672 C 498.67414,1094.1417 491.80962,1094.4607 487.92392,1096.8574 C 501.92716,1088.4195 516.1117,1079.381 525.70789,1065.7985 L 546.28677,1056.714 z" />
    <path
       style="fill:#000000;fill-opacity:1;fill-rule:nonzero;stroke:none;stroke-width:1px;stroke-linecap:butt;stroke-linejoin:miter;stroke-opacity:1"
       id="path2447"
       d="M 297.16852,692.72413 C 310.53568,689.46486 323.92875,686.3304 337.40606,683.55977 C 358.89219,679.01672 380.74159,676.7746 402.60916,675.12345 C 430.44212,673.1234 458.35196,672.62015 486.23859,671.88845 C 512.39954,671.31821 538.55447,670.46314 564.718,670.0187 C 575.82229,670.31771 587.17737,668.64342 598.08726,671.17428 C 598.27953,671.17544 598.82851,671.07813 598.66407,671.17776 C 590.51381,676.11553 592.67413,674.61852 596.43766,671.1728 L 597.2146,670.81078 C 604.68735,674.57532 589.3962,677.00768 586.49122,680.06633 C 581.99024,681.9261 580.05088,682.9189 575.12526,684.07728 C 564.15762,686.65658 552.68105,686.03811 541.53624,686.96261 C 515.38315,688.00262 489.20933,688.37817 463.04052,688.81486 C 435.6157,689.20543 408.1805,689.66979 380.79203,691.21816 C 359.75756,692.69292 338.74988,694.68444 317.95334,698.25487 C 305.83605,700.32087 293.75817,702.64056 281.59899,704.44809 L 297.16852,692.72413 z" />
    <path
       style="fill:#000000;fill-opacity:1;fill-rule:nonzero;stroke:none;stroke-width:1px;stroke-linecap:butt;stroke-linejoin:miter;stroke-opacity:1"
       id="path2449"
       d="M 308.41365,600.89245 C 318.44897,596.71815 329.00779,594.18002 339.69125,592.36791 C 353.45095,590.30531 367.3404,591.55355 381.11337,592.70623 C 399.05704,594.38544 416.98947,596.15717 434.9591,597.54109 C 454.29499,599.08991 473.68551,599.68887 493.06419,600.41193 C 509.82913,601.06066 526.5914,601.74277 543.3356,602.80764 C 556.32009,603.5207 569.27648,604.64501 582.21128,605.97379 C 589.29751,607.01101 596.72384,607.35044 603.38149,610.19534 C 605.65185,612.38564 603.88604,615.30021 602.06428,617.16323 L 596.48571,621.24606 C 591.67229,623.51273 586.54787,625.30111 581.20122,625.6617 C 573.5683,625.3366 566.12634,623.6074 558.54332,622.75821 C 545.91158,621.13785 533.20352,620.22348 520.51776,619.13643 C 504.36179,617.83366 488.1903,616.77769 472.02963,615.53258 C 453.40259,614.33433 434.78349,612.93669 416.23026,610.86677 C 399.08696,608.75628 381.97286,606.41759 364.82956,604.30596 C 352.12801,602.98221 339.36505,601.39159 326.57035,602.15722 C 317.58334,602.85054 308.65401,604.08032 300.18016,607.33172 L 308.41365,600.89245 z" />
    <path
       style="fill:#000000;fill-opacity:1;fill-rule:nonzero;stroke:none;stroke-width:1px;stroke-linecap:butt;stroke-linejoin:miter;stroke-opacity:1"
       id="path2451"
       d="M 1320.9222,426.2548 C 1314.9686,420.1049 1311.6795,412.96953 1312.2963,404.40102 C 1313.4069,399.60585 1316.0115,395.25153 1320.3744,392.7166 C 1346.7948,377.36552 1337.6972,380.09654 1351.0728,376.5471 C 1357.2739,375.4095 1363.0614,375.94813 1367.551,380.60303 C 1370.6976,386.4773 1366.4622,391.23585 1362.3742,395.20639 C 1351.517,404.04088 1337.6937,410.33315 1326.0478,416.79338 C 1323.6556,418.12035 1321.111,418.41782 1318.451,418.40228 C 1313.679,417.32297 1313.0349,412.94834 1314.1226,408.83738 C 1319.7894,395.7063 1344.2803,387.24376 1351.5547,383.14666 C 1356.1921,381.62549 1359.101,383.90656 1361.0724,387.94618 C 1362.3439,392.8609 1360.7606,397.59213 1358.6861,402.02976 C 1354.5028,409.68505 1346.22,410.46452 1338.3464,412.70927 L 1339.1121,412.32419 C 1336.1594,413.84018 1319.0546,424.67044 1327.9791,415.73523 C 1330.2978,412.30354 1332.3972,408.39736 1332.1745,404.12785 C 1331.2548,400.91596 1328.2619,402.45404 1325.9525,403.4604 C 1334.6752,398.40213 1343.4272,393.39403 1352.1206,388.2856 C 1352.7303,387.92731 1350.8274,388.86303 1350.2093,389.20659 C 1347.7879,390.55242 1345.7242,392.40899 1344.2363,394.75276 C 1343.2646,396.76559 1342.161,398.92715 1345.409,398.42915 C 1347.8833,397.89374 1354.7842,394.38536 1351.7917,396.16726 C 1305.8225,423.54024 1322.417,413.50575 1332.3117,407.41111 C 1335.8722,404.6526 1340.8543,401.17245 1341.1313,396.26609 C 1339.1122,391.69989 1332.8267,392.85283 1328.892,393.6924 C 1318.0906,397.49446 1325.1469,395.24564 1346.3238,382.5667 C 1347.3257,381.9668 1344.2374,383.63122 1343.2747,384.29232 C 1341.33,385.62778 1339.7464,387.17673 1338.4791,389.17823 C 1337.869,390.14186 1337.4771,391.22745 1336.9761,392.25206 C 1335.3148,399.99499 1337.5737,406.95464 1342.6302,413.04617 L 1320.9222,426.2548 z" />
    <path
       style="fill:#000000;fill-opacity:1;fill-rule:nonzero;stroke:none;stroke-width:1px;stroke-linecap:butt;stroke-linejoin:miter;stroke-opacity:1"
       id="path2453"
       d="M 569.36689,1056.7912 C 578.37798,1048.3713 586.78262,1039.3302 595.22307,1030.3466 C 613.42484,1010.7945 631.73823,991.34832 650.22,972.0606 C 680.79231,940.14183 711.67486,908.52435 742.86778,877.21231 C 781.3062,838.08983 820.99284,800.24359 861.31896,763.08105 C 904.64608,723.09621 951.03371,686.70496 998.48273,651.79057 C 1042.7317,619.73725 1088.7159,590.20274 1134.5769,560.53853 C 1168.5225,538.77157 1202.2666,516.69478 1235.8087,494.31154 C 1258.5252,479.03907 1281.0798,463.51661 1304.2638,448.95738 C 1315.5594,442.09604 1326.4978,434.69339 1337.3279,427.12813 L 1338.121,426.80304 C 1335.7189,433.27605 1328.6615,436.81634 1323.7763,441.29568 C 1303.5966,456.93071 1281.5771,470.03656 1260.6331,484.59736 C 1226.7669,507.18905 1192.5706,529.27261 1158.3268,551.28689 C 1112.47,580.80183 1066.618,610.38441 1022.3852,642.31063 C 974.98908,677.16165 928.60894,713.41989 885.27167,753.27673 C 844.9347,790.29481 805.46619,828.2453 766.99634,867.20502 C 736.16381,898.48901 705.40665,929.84704 675.13295,961.6743 C 656.20665,981.55363 637.31137,1001.4708 617.92597,1020.9048 C 607.95941,1030.8463 597.91219,1040.7481 586.98849,1049.65 L 569.36689,1056.7912 z" />
    <path
       style="fill:#000000;fill-opacity:1;fill-rule:nonzero;stroke:none;stroke-width:1px;stroke-linecap:butt;stroke-linejoin:miter;stroke-opacity:1"
       id="path2455"
       d="M 868.76531,979.60933 C 866.62001,975.63562 865.58614,971.22949 864.08438,967.01413 C 863.43443,965.18975 862.46133,963.4788 861.94549,961.61207 C 861.26871,959.16288 860.48683,952.13616 860.16954,949.58128 C 859.02347,941.52148 858.5213,933.4338 860.77441,925.55145 C 866.17748,914.92929 880.31299,902.5098 892.06503,907.01645 C 894.19489,907.83321 895.33748,908.98488 897.1275,910.39837 C 905.00928,918.61458 909.22097,929.2725 913.19936,939.73479 C 917.11043,950.55139 919.48425,961.80155 921.00501,973.17501 C 921.11795,974.28046 921.26835,975.38272 921.34383,976.49136 C 921.37746,976.98526 921.85293,982.5355 921.06848,982.96864 C 888.17832,1001.1295 893.32099,1010.509 887.36833,996.51123 C 886.51328,982.28492 893.43959,968.51532 899.39764,956.0004 C 909.51546,935.58482 923.49471,917.6587 939.79246,901.86948 C 947.00382,895.10984 955.26691,889.82211 963.96612,885.21925 C 976.12907,878.78368 978.43376,875.93253 989.36703,875.47544 C 990.85245,875.37884 992.33788,875.28225 993.8233,875.18565 L 993.13823,875.7008 C 991.15722,876.17941 989.17621,876.65801 987.1952,877.13662 C 984.84578,878.0041 982.46395,878.78839 980.14694,879.73907 C 977.64059,880.76744 975.43781,882.90645 972.73364,883.0703 C 970.73802,883.19121 975.95026,880.60677 977.81296,879.88049 C 979.41622,879.25537 974.89628,881.71623 973.52847,882.76039 C 969.58679,885.7694 966.77073,888.6957 963.15531,892.16369 C 949.39558,907.13296 937.63854,923.77594 929.22022,942.36446 C 924.26306,954.0357 918.82048,966.1554 918.75609,979.07665 C 921.03921,991.39927 919.18917,980.01496 888.5253,997.61411 C 888.11675,997.8486 889.35011,997.09514 889.59886,996.69512 C 891.12153,994.24644 891.2688,990.90175 891.69973,988.17708 C 892.72718,976.50337 891.38312,964.85038 888.2006,953.56594 C 884.89861,943.55288 881.20329,932.86503 872.97335,925.78762 C 871.24581,924.75458 870.59148,923.98581 868.55675,924.02915 C 867.99469,924.04113 866.45181,924.76899 866.92954,924.47263 C 915.41956,894.39172 893.10778,906.30198 887.42405,913.11976 C 884.00497,920.72105 884.67783,929.58036 883.4518,937.66853 C 883.35911,938.82125 882.46733,950.08164 882.33198,951.05879 C 882.00291,953.43437 881.28494,955.74773 880.99702,958.12864 C 880.42196,962.88395 880.90494,967.72988 881.58232,972.4396 L 868.76531,979.60933 z" />
    <path
       style="fill:#000000;fill-opacity:1;fill-rule:nonzero;stroke:none;stroke-width:1px;stroke-linecap:butt;stroke-linejoin:miter;stroke-opacity:1"
       id="path2457"
       d="M 1012.0219,976.77998 C 1016.8493,987.63265 1015.445,999.8406 1014.6112,1011.3671 C 1013.895,1013.5963 1013.1787,1015.8255 1012.4624,1018.0547 L 1011.7063,1018.4584 C 1010.3413,1017.3514 1008.9763,1016.2444 1007.6112,1015.1374 C 1001.8299,1006.4674 994.98425,998.67024 989.44709,989.84907 L 1012.0219,976.77998 z" />
    <path
       style="fill:#000000;fill-opacity:1;fill-rule:nonzero;stroke:none;stroke-width:1px;stroke-linecap:butt;stroke-linejoin:miter;stroke-opacity:1"
       id="path2459"
       d="M 1336.5235,395.50917 C 1326.2905,392.50836 1316.4354,388.4012 1306.6222,384.26573 C 1293.1189,378.39748 1279.9175,371.8834 1266.7254,365.35567 C 1248.8063,356.45156 1230.991,347.34204 1213.0006,338.58068 C 1191.0017,327.71203 1168.1652,318.77263 1145.0789,310.52893 C 1119.9018,301.61772 1094.4951,293.3622 1069.1192,285.03634 C 1041.7183,275.81558 1014.3627,266.47139 987.11728,256.79958 C 960.11541,247.37927 933.79739,236.19599 907.57135,224.83549 C 883.34858,214.14742 858.8803,204.02684 834.22929,194.37085 C 812.25763,186.11389 790.66877,176.9319 769.5813,166.63067 C 749.9499,156.38525 730.19605,146.45456 709.80806,137.79946 C 699.6464,133.1115 688.70481,130.12351 678.62018,125.26354 C 669.28189,120.76326 660.56342,114.58844 651.91181,108.93271 C 642.80257,102.5442 634.09135,95.617292 625.32848,88.76952 L 626.04484,88.298864 C 639.28924,92.565469 652.57636,96.688373 666.27788,99.278371 C 679.37988,101.94958 692.8059,103.76164 705.80453,106.87176 C 717.25757,109.61208 728.25785,114.06248 739.25955,118.16425 C 759.67446,126.90223 779.46764,136.88804 799.1689,147.1228 C 820.0614,157.3157 841.30559,166.70502 862.98919,175.10462 C 887.34336,185.06876 911.60995,195.24058 935.51431,206.25214 C 961.35493,217.79365 987.43111,228.80883 1013.9539,238.70026 C 1040.6432,248.69308 1067.3974,258.52556 1094.2751,267.99966 C 1119.1524,276.90655 1144.1489,285.47308 1169.0209,294.3949 C 1191.7213,303.0413 1214.2407,312.2324 1235.7283,323.62667 C 1253.3395,332.66575 1270.7716,342.04449 1288.3658,351.11628 C 1301.2568,357.62139 1314.1929,364.032 1326.9298,370.83725 C 1335.6137,375.41341 1344.3667,379.85594 1353.038,384.45437 L 1336.5235,395.50917 z" />
    <path
       style="fill:#000000;fill-opacity:1;fill-rule:nonzero;stroke:none;stroke-width:1px;stroke-linecap:butt;stroke-linejoin:miter;stroke-opacity:1"
       id="path2461"
       d="M 964.45823,51.163614 C 973.66512,57.793032 979.09386,67.678551 983.91468,77.665793 C 989.44335,89.582928 993.67443,102.03848 997.89586,114.46163 C 1000.2856,119.06403 1000.91,126.80943 1005.6551,129.89547 C 1010.7433,121.20401 1004.4356,132.32228 981.84476,140.87793 C 981.00772,141.19494 981.93776,139.088 982.06126,138.20151 C 982.2391,136.92494 982.4917,135.65945 982.74772,134.39623 C 983.78935,129.25671 983.9126,129.2048 985.39944,123.82268 C 989.96785,108.13873 997.53019,93.685411 1006.5345,80.142987 C 1021.4991,58.482849 1038.1327,51.117154 1061.0977,38.418424 C 1066.0768,37.177821 1069.9086,35.852383 1074.3042,39.059832 L 1073.6131,39.566933 C 1064.0694,42.34541 1054.6242,45.387019 1046.0311,50.537093 C 1050.2362,48.138 1054.3002,45.472664 1058.6463,43.339813 C 1060.4265,42.466229 1055.3482,45.546117 1053.766,46.741279 C 1045.5391,52.955389 1038.4597,60.537696 1032.3785,68.843058 C 1023.5105,81.964439 1015.9581,95.840823 1011.8034,111.23503 C 1011.5657,112.13633 1007.9231,128.12422 1007.9081,128.13518 C 982.88888,146.38634 984.12589,153.55392 982.81692,142.65461 C 983.25118,136.36213 981.87276,130.21677 980.13941,124.19207 C 976.60151,111.59607 972.49485,99.128755 967.27047,87.122758 C 962.55457,77.593035 957.61431,67.56009 948.46016,61.529525 L 964.45823,51.163614 z" />
    <path
       style="fill:#000000;fill-opacity:1;fill-rule:nonzero;stroke:none;stroke-width:1px;stroke-linecap:butt;stroke-linejoin:miter;stroke-opacity:1"
       id="path2463"
       d="M 1045.1978,155.86896 C 1047.5497,148.82774 1051.5595,142.74331 1056.7949,137.54934 C 1067.6656,129.47973 1080.3884,118.92384 1094.5978,121.82969 C 1102.6493,124.83042 1105.0654,132.29625 1106.5386,140.0478 C 1107.7764,150.13146 1104.917,159.61185 1100.831,168.69014 C 1098.1882,175.18053 1092.673,179.84392 1089.2986,185.83708 C 1089.1944,186.14271 1089.0084,186.43184 1088.9861,186.75397 C 1088.955,187.20262 1089.879,186.63767 1090.3282,186.61629 C 1091.0588,186.58152 1091.7912,186.62867 1092.5222,186.65614 C 1099.2049,186.90726 1091.4567,186.76189 1099.3764,186.85868 C 1109.2349,186.97462 1119.0936,186.83802 1128.9509,187.10931 C 1136.1181,187.39262 1143.3947,187.68246 1150.3367,189.62335 C 1150.7805,189.87386 1153.0407,190.93352 1153.2531,191.76363 C 1153.8794,194.21109 1151.5185,197.81597 1150.3557,199.77456 C 1149.2964,200.68376 1148.2371,201.59297 1147.1778,202.50217 L 1146.4788,202.99822 C 1144.8267,203.84103 1143.1745,204.68383 1141.5224,205.52664 C 1135.905,206.99637 1129.9879,208.65686 1124.1829,207.64962 C 1117.4239,206.12428 1110.5019,205.62102 1103.5863,205.43401 C 1093.8733,205.18016 1084.1556,205.20907 1074.449,204.74279 C 1069.8662,204.23873 1061.659,203.68911 1063.8329,196.95287 C 1068.5634,190.73378 1074.7448,185.63652 1078.598,178.72168 C 1083.5668,170.08353 1087.2793,160.8396 1086.5206,150.66777 C 1085.5598,143.91179 1083.686,136.86812 1076.5165,134.49087 C 1073.3048,134.02975 1070.6587,134.08427 1067.5289,135.12472 C 1066.4817,135.47283 1063.5375,136.9783 1064.4669,136.38342 C 1068.2536,133.95983 1086.907,122.84525 1076.1466,129.63802 C 1070.0231,134.79362 1065.0493,140.84674 1061.7592,148.21342 L 1045.1978,155.86896 z" />
    <path
       style="fill:#000000;fill-opacity:1;fill-rule:nonzero;stroke:none;stroke-width:1px;stroke-linecap:butt;stroke-linejoin:miter;stroke-opacity:1"
       id="path2465"
       d="M 605.00305,615.84698 C 613.15501,612.10537 621.69157,609.34475 630.25164,606.71696 C 640.55676,603.6217 650.98596,600.96816 661.38573,598.21528 C 673.10662,595.0637 684.87662,592.10028 696.62237,589.0441 C 709.17311,585.85392 721.76731,582.84159 734.31558,579.64166 C 748.27722,576.12328 762.12534,572.17723 775.96581,568.21469 C 790.09578,564.06703 804.36533,560.4426 818.71749,557.15538 C 833.51118,553.84688 848.36281,550.80524 863.15341,547.48189 C 878.25284,544.15117 893.2958,540.56808 908.35538,537.06142 C 923.38341,533.49662 938.43588,530.03781 953.49342,526.60029 C 969.00413,523.03879 984.57191,519.73604 1000.1844,516.65281 C 1015.7801,513.48702 1031.4169,510.53449 1047.0152,507.38128 C 1061.6334,504.48069 1076.1902,501.2841 1090.6865,497.82777 C 1104.6727,494.57609 1118.4934,490.68286 1132.2356,486.53239 C 1145.1116,482.54866 1157.8211,478.05358 1170.6326,473.87122 C 1182.1863,470.16011 1193.7998,466.63472 1205.572,463.68315 C 1215.4689,461.15301 1225.3845,458.69665 1235.3055,456.26338 C 1244.4828,454.15011 1253.4597,451.34837 1262.3263,448.19586 C 1271.0062,445.05966 1279.5575,441.5868 1288.1914,438.32885 C 1295.9139,435.4801 1303.6367,432.62846 1311.4143,429.93285 C 1317.154,428.24975 1322.8027,425.62083 1328.8149,425.09155 C 1333.7278,427.32932 1316.1346,435.01183 1326.5393,428.32078 L 1327.3218,427.97092 C 1328.0602,427.9563 1330.0917,427.43947 1329.537,427.92707 C 1323.4961,433.23701 1315.6072,436.64929 1308.7316,440.71761 C 1301.523,444.03547 1294.1003,446.76884 1286.583,449.30384 C 1278.8404,452.12598 1271.0831,454.90813 1263.36,457.78308 C 1254.7421,461.06832 1246.1815,464.50861 1237.4752,467.55737 C 1228.5448,470.6101 1219.5094,473.32789 1210.289,475.37318 C 1200.5171,477.76161 1190.737,480.11419 1180.968,482.51518 C 1169.3995,485.51542 1157.9261,488.87291 1146.5559,492.55506 C 1133.874,496.71483 1121.2413,501.03006 1108.4616,504.88421 C 1094.6942,508.96394 1080.8489,512.78212 1066.8493,515.99075 C 1052.4643,519.23248 1038.0538,522.35468 1023.5683,525.11974 C 1008.2534,528.02478 992.91701,530.81408 977.60656,533.74187 C 962.28517,536.79444 946.96261,539.84632 931.69913,543.1793 C 916.91603,546.41412 902.14157,549.68729 887.3851,553.04178 C 872.27069,556.55202 857.1796,560.16103 842.03426,563.53607 C 827.24628,566.72066 812.48182,570.01503 797.68831,573.17521 C 783.66123,576.43828 769.66104,579.82102 755.7972,583.73038 C 742.13018,587.50493 728.44109,591.19728 714.68833,594.64901 C 702.36586,597.66025 690.00527,600.51064 677.68271,603.5217 C 666.44935,606.17179 655.20225,608.76449 643.99466,611.52288 C 633.99507,613.94301 623.99524,616.36965 614.0972,619.18376 C 606.13319,621.47762 598.19253,623.91744 590.58824,627.24649 L 605.00305,615.84698 z" />
    <path
       style="fill:#000000;fill-opacity:1;fill-rule:nonzero;stroke:none;stroke-width:1px;stroke-linecap:butt;stroke-linejoin:miter;stroke-opacity:1"
       id="path2467"
       d="M 597.07998,673.33388 C 604.36631,671.05793 611.56855,668.52717 618.82382,666.15652 C 625.914,663.73682 633.06548,661.5005 640.25053,659.37958 C 649.56517,656.6388 658.87528,653.88406 668.1708,651.07922 C 678.39354,647.97898 688.63868,644.9541 698.89348,641.96186 C 708.91302,639.06677 718.91293,636.1048 728.92338,633.17865 C 739.09395,630.28258 749.25013,627.34062 759.40299,624.38393 C 769.11009,621.43585 778.69827,618.12319 788.24378,614.69364 C 796.33354,611.75516 804.32431,608.54537 812.46856,605.7595 C 819.51647,603.41523 826.64995,601.33684 833.83736,599.46705 C 840.8524,597.50975 847.8067,595.3446 854.75465,593.16392 C 860.81704,591.16602 866.83362,589.03454 872.89024,587.01903 C 878.77113,585.01627 884.7362,583.28811 890.67879,581.48357 C 896.55086,579.83138 902.40411,578.10637 908.19884,576.19999 C 913.40194,574.61945 918.61974,573.07905 923.79003,571.39316 C 928.50811,569.95537 933.27643,568.66077 937.93578,567.03969 C 942.16637,565.66838 946.40198,564.29168 950.57207,562.74391 C 954.64159,561.2782 958.84427,560.23435 962.95599,558.90566 C 967.37113,557.71115 971.70493,556.24946 976.07161,554.89617 C 980.9115,553.24226 985.6872,551.41214 990.51655,549.72674 C 995.45437,547.80856 1000.5217,546.27488 1005.5436,544.60541 C 1010.9083,542.94126 1016.1938,541.03741 1021.4464,539.04951 C 1027.1793,536.78293 1032.9786,534.69802 1038.7641,532.57143 C 1043.9919,530.71207 1049.2974,529.08371 1054.5301,527.24001 C 1059.7703,525.50644 1065.0422,523.85622 1070.1882,521.85529 C 1074.823,520.17397 1079.4484,518.4726 1084.0721,516.76135 C 1088.9161,515.04913 1093.7917,513.43478 1098.6474,511.75837 C 1103.9766,510.07299 1109.296,508.33701 1114.5231,506.35471 C 1119.7814,504.47149 1124.9065,502.23138 1129.9755,499.89118 C 1134.9464,497.58111 1139.9298,495.30165 1145.0136,493.25048 C 1149.9455,491.25351 1154.8473,489.18735 1159.7339,487.07903 C 1165.0151,484.81982 1170.181,482.31216 1175.3633,479.8387 C 1180.5079,477.41934 1185.7316,475.1408 1191.0581,473.15024 C 1196.5682,471.02765 1202.0873,468.92955 1207.5777,466.75658 C 1214.0012,464.2702 1220.4118,461.74877 1226.8655,459.34145 C 1234.2041,456.61146 1241.4994,453.77893 1248.7616,450.85392 C 1257.1249,447.32508 1265.5462,443.9331 1274.0234,440.68759 C 1283.5472,437.13492 1293.1946,433.93256 1302.8426,430.73777 C 1310.931,427.97632 1319.0049,425.16672 1326.9753,422.07915 C 1332.1667,420.29877 1337.047,417.63994 1342.2319,415.87528 C 1347.6021,420.42316 1342.5996,416.01763 1325.4628,426.30807 C 1323.9504,427.2162 1328.564,424.61755 1330.0385,423.64931 C 1333.2773,421.52262 1337.7818,417.73217 1340.6073,415.45148 L 1341.3909,415.10404 C 1342.1669,415.55435 1343.0925,415.81264 1343.7189,416.45495 C 1344.081,416.8263 1344.0291,417.44519 1344.1628,417.94637 C 1346.6984,427.45506 1325.4979,428.75025 1318.4432,434.80021 C 1312.8296,437.83038 1306.9536,440.26513 1300.9648,442.45826 C 1292.9656,445.43186 1284.9192,448.27724 1276.8194,450.96575 C 1267.2116,454.24309 1257.5474,457.37026 1248.0791,461.04057 C 1239.6794,464.31954 1231.3255,467.7073 1222.9868,471.13791 C 1215.7515,474.07482 1208.3981,476.70801 1201.115,479.52412 C 1194.6711,482.03602 1188.1925,484.45903 1181.7707,487.02816 C 1176.2492,489.19259 1170.7075,491.30454 1165.1846,493.46531 C 1159.9503,495.60952 1154.7422,497.82087 1149.6645,500.31829 C 1144.5077,502.77993 1139.3188,505.17074 1134.0491,507.38258 C 1129.1552,509.47819 1124.2211,511.47336 1119.3094,513.52604 C 1114.239,515.71631 1109.2347,518.0498 1104.2083,520.33849 C 1099.0868,522.60669 1093.9042,524.74321 1088.6175,526.59886 C 1083.3254,528.45858 1078.0012,530.22128 1072.6704,531.96654 C 1067.8428,533.58735 1063.0144,535.2077 1058.2314,536.95701 C 1053.6579,538.61047 1049.0866,540.26929 1044.51,541.91466 C 1039.3292,543.65848 1034.1518,545.41268 1028.9582,547.11841 C 1023.7422,548.78741 1018.5544,550.54445 1013.3993,552.39312 C 1007.5701,554.5082 1001.7642,556.6865 995.99943,558.9717 C 990.53633,561.00479 985.07412,563.03045 979.50911,564.77282 C 974.6082,566.25466 969.77399,567.94114 964.94752,569.64797 C 960.23848,571.28923 955.56369,573.03606 950.78423,574.46721 C 946.51594,575.81619 942.2027,577.00427 937.91034,578.27141 C 933.81959,579.47066 929.71881,580.64028 925.71167,582.10316 C 921.57953,583.42352 917.48342,584.85269 913.32887,586.10438 C 908.744,587.42532 904.17358,588.79631 899.58358,590.09976 C 894.57719,591.51695 889.58474,592.98303 884.59626,594.46094 C 878.85052,596.14213 873.10636,597.82818 867.35547,599.49215 C 861.45842,601.24599 855.56347,603.00631 849.73771,604.98775 C 843.77957,606.90993 837.86564,608.96743 831.88985,610.83557 C 825.01085,612.87875 818.15623,615.00856 811.21104,616.82094 C 804.22976,618.71341 797.23565,620.58943 790.38982,622.9363 C 782.54688,625.59956 774.81108,628.56028 766.98606,631.2751 C 757.68251,634.53973 748.28286,637.52089 738.81314,640.26749 C 728.76911,643.28237 718.65485,646.04933 708.55267,648.86122 C 699.0118,651.51053 689.4158,653.95381 679.87553,656.60483 C 669.88571,659.397 659.90537,662.2223 649.94957,665.1338 C 641.05511,667.69801 632.12333,670.12857 623.18446,672.53298 C 616.45521,674.46268 609.72688,676.39437 603.01529,678.38474 C 596.37305,680.32289 589.74183,682.29785 583.07927,684.16572 L 597.07998,673.33388 z" />
    <path
       style="fill:#000000;fill-opacity:1;fill-rule:nonzero;stroke:none;stroke-width:1px;stroke-linecap:butt;stroke-linejoin:miter;stroke-opacity:1"
       id="path2469"
       d="M 786.97504,649.80915 C 788.52954,657.05226 790.71353,664.14029 792.66245,671.28257 C 793.19493,674.4547 794.70749,677.5702 794.78598,680.82663 C 794.52113,683.09111 794.53466,682.09399 794.61084,683.81313 C 790.59837,662.28227 760.34929,708.86435 772.93041,692.40188 C 776.10971,687.55635 779.09279,682.60255 782.37449,677.82271 C 786.9817,671.04581 792.90264,665.44635 799.22367,660.30698 C 814.76914,649.15701 831.48265,639.37797 849.18832,632.0945 C 856.10021,629.69589 863.32195,627.28387 870.71424,627.30902 C 875.87294,628.83685 872.88738,631.90328 870.1956,633.98831 L 870.99576,633.681 C 864.04837,638.492 856.36937,641.81629 848.24844,644.19638 C 840.58644,646.31357 832.72879,647.81128 825.36179,650.89351 C 821.64271,652.48156 820.77537,652.78687 817.13487,654.60594 C 815.78261,655.28163 811.81999,657.48599 813.11888,656.71266 C 853.16095,632.87268 834.88813,643.75581 826.32861,649.47023 C 819.85448,654.30457 813.78859,659.63307 809.03411,666.23013 C 805.71358,670.88243 802.734,675.75358 799.83504,680.67778 C 793.87441,690.30842 775.33808,709.82756 768.82473,697.0897 C 768.64836,692.76942 769.40802,688.46133 768.63471,684.14583 C 767.58645,676.72969 765.8646,669.45897 764.00614,662.20695 L 786.97504,649.80915 z" />
    <path
       style="fill:#000000;fill-opacity:1;fill-rule:nonzero;stroke:none;stroke-width:1px;stroke-linecap:butt;stroke-linejoin:miter;stroke-opacity:1"
       id="path2471"
       d="M 809.28591,517.6272 C 808.23689,517.63516 807.18379,517.55844 806.13883,517.6511 C 803.75411,517.86254 801.38345,518.37931 799.19258,519.37253 C 798.15333,519.84368 795.22212,521.62134 796.23598,521.09781 C 808.7525,514.63471 811.20417,511.22532 806.18129,517.05202 C 802.77177,522.03718 802.90642,527.38154 805.96905,532.41153 C 809.42748,536.70854 814.23417,538.21205 819.5767,538.0965 C 820.47872,537.95379 821.39106,537.86558 822.28275,537.66838 C 823.91032,537.30843 825.99219,536.60484 827.48664,535.86704 C 828.35044,535.44059 830.82471,533.94229 829.98457,534.41363 C 812.88252,544.00829 808.41263,547.86231 815.15258,542.31518 C 818.73514,538.74081 819.16649,534.53685 818.09279,529.82108 C 816.26833,523.78173 812.31876,518.75373 808.25278,514.05162 C 803.94001,509.06892 798.75994,505.03721 793.48496,501.14344 C 788.40153,498.18327 787.11388,494.10669 786.7033,488.56695 C 786.9107,485.31636 786.69905,486.9625 787.36597,483.63216 L 788.10037,483.19017 C 792.16475,483.65261 790.07314,483.50395 794.37717,483.60749 C 801.77732,483.5567 809.45242,482.59405 816.02691,486.7354 C 821.85002,490.37743 827.17744,494.72952 831.45502,500.14984 C 835.60568,505.50604 839.22734,511.17567 840.47763,517.96338 C 841.1026,523.86219 840.18441,529.31838 836.00545,533.82044 C 827.83152,541.57209 815.28816,550.10464 803.15619,549.7951 C 797.85712,548.64321 793.61684,545.81646 790.82229,541.06897 C 788.25175,535.32516 787.43084,529.5317 790.54099,523.75647 C 796.21314,515.75922 792.0248,520.9379 809.44622,510.48249 C 813.72019,507.91748 818.70025,507.2685 823.59303,507.47856 L 809.28591,517.6272 z" />
    <path
       style="fill:#000000;fill-opacity:1;fill-rule:nonzero;stroke:none;stroke-width:1px;stroke-linecap:butt;stroke-linejoin:miter;stroke-opacity:1"
       id="path2473"
       d="M 928.09717,486.24386 C 923.52409,494.36596 915.78911,499.79944 907.9972,504.53708 C 895.12905,511.46221 880.14182,523.55525 864.0698,521.93187 C 857.19366,520.0756 854.89004,514.52459 854.10354,507.99987 C 853.8968,497.80376 859.12436,489.35134 865.09522,481.53845 C 877.88264,467.16991 895.10862,456.93404 912.84954,449.83987 C 924.80462,446.36357 931.61659,446.35431 940.78357,455.17646 C 948.63635,465.83497 949.55949,479.0685 949.86292,491.85209 C 950.02161,505.93994 947.12035,519.44298 940.73171,531.96006 C 937.80636,536.68941 934.14927,541.13731 929.26639,543.98315 C 913.31548,553.27965 908.2985,558.57639 893.19445,559.69898 C 878.80382,558.34594 875.9819,549.51772 874.10739,536.73936 C 874.3873,526.71771 874.28241,531.75423 874.41991,521.62974 L 875.1806,521.23473 C 876.77809,530.2185 875.17163,526.14987 879.77182,533.52829 C 881.2043,535.01127 882.46458,536.68252 884.06925,537.97723 C 891.87391,544.27432 902.64672,545.60762 912.29584,545.51305 C 924.55696,543.82915 930.46601,538.35937 907.61806,552.46533 C 905.93777,553.50272 911.08187,550.54552 912.67255,549.37537 C 916.77443,546.35793 917.86818,544.58638 921.1651,540.6904 C 928.77374,528.4784 932.8233,515.01962 932.9098,500.53906 C 932.64249,488.39918 931.75211,475.48805 923.84483,465.63855 C 914.90687,457.59671 908.29027,458.62461 897.29799,462.10251 C 889.2156,465.59066 886.76324,466.93983 903.21137,457.61088 C 905.02185,456.58403 899.66015,459.78801 897.95619,460.98333 C 894.45563,463.43895 891.47874,465.91333 888.44123,468.91566 C 887.04631,470.29443 885.76903,471.78736 884.43293,473.22321 C 879.00996,480.35466 874.12149,488.04652 874.34709,497.3583 C 875.10168,502.87088 877.13046,507.46837 883.23556,508.19094 C 886.76918,508.26667 889.9103,507.88091 893.3275,506.87941 C 900.8304,504.68047 916.39576,496.21356 887.02511,512.59504 C 895.66844,507.77987 904.09704,502.37888 910.06113,494.29083 L 928.09717,486.24386 z" />
    <path
       style="fill:#000000;fill-opacity:1;fill-rule:nonzero;stroke:none;stroke-width:1px;stroke-linecap:butt;stroke-linejoin:miter;stroke-opacity:1"
       id="path2475"
       d="M 101.96868,663.68167 C 97.830563,663.55226 93.703943,664.07011 89.814904,665.55618 C 88.370108,666.10827 84.28644,668.32612 85.628717,667.55767 C 98.555648,660.15698 97.918121,660.18403 91.956427,665.56775 C 84.836214,673.35963 81.423083,683.20741 79.951988,693.48121 C 79.625784,698.71802 79.908527,705.53352 86.347716,705.99608 C 92.075745,703.93275 103.98618,699.42574 78.287438,711.20656 C 77.050547,711.77358 80.417661,709.50722 81.400839,708.5666 C 84.195694,705.89272 85.718658,703.82197 88.200284,700.78615 C 96.708993,689.58555 103.30876,677.11035 109.54432,664.54818 C 114.53801,654.53513 118.81352,644.17317 121.93576,633.42547 C 125.4258,618.46233 119.81012,626.53277 144.7434,615.96479 C 145.34514,623.42108 145.79338,630.90303 146.02802,638.38377 C 146.60326,652.04774 147.1133,665.7142 147.75507,679.3751 C 148.08073,692.73474 149.28506,706.03818 150.68472,719.31972 C 150.51353,725.02262 153.07606,731.8289 150.30461,737.21484 C 147.84081,738.02619 144.62638,741.39591 149.23872,736.52708 L 150.02342,736.1822 C 149.29204,740.07622 145.08746,741.38576 141.80927,742.84139 C 133.39634,743.31268 133.01646,736.22288 131.11638,729.59664 C 129.21632,716.31854 128.44171,702.9378 128.00061,689.53601 C 127.59461,675.88752 127.06706,662.24067 126.22624,648.61123 C 125.649,641.36868 125.4212,634.08519 124.37601,626.8906 C 148.80831,613.37572 146.85248,609.49608 141.1464,624.411 C 136.98847,635.34144 132.44213,646.10837 127.19439,656.5691 C 120.73993,669.20006 114.15478,681.84982 105.72144,693.30284 C 97.468115,703.79222 85.655716,716.21606 71.485843,716.24647 C 65.137345,713.57721 64.524688,707.13816 64.948678,700.86304 C 66.417576,690.27766 69.736823,680.13594 76.727293,671.83282 C 86.93494,661.57866 100.58741,653.75082 115.25297,654.18551 L 101.96868,663.68167 z" />
    <path
       style="fill:#000000;fill-opacity:1;fill-rule:nonzero;stroke:none;stroke-width:1px;stroke-linecap:butt;stroke-linejoin:miter;stroke-opacity:1"
       id="path2477"
       d="M 187.32675,647.29015 C 196.27794,649.86879 205.56079,650.77303 214.81423,651.43037 C 224.34602,652.2097 233.84866,651.411 243.29391,650.15325 C 250.31953,649.17423 257.2049,647.41013 264.19968,646.27288 C 271.4334,647.20647 264.29636,653.96505 261.9733,656.2211 C 251.29784,665.75352 240.35485,674.98093 229.47161,684.27394 C 219.98778,692.43626 210.24339,700.28466 200.50383,708.1371 C 199.44458,709.53112 194.3149,712.12515 194.88261,714.67468 C 195.01751,715.28047 196.50225,715.98911 196.73472,716.13088 C 202.97435,719.26414 209.88563,720.97103 216.6153,722.74076 C 226.01914,725.15782 235.60757,726.71684 245.03667,729.0297 C 253.08595,730.91613 256.81921,733.56959 261.30139,740.24984 C 262.86102,742.92074 261.94597,741.7251 264.01224,743.86274 L 263.29963,744.33905 C 258.65378,743.77013 261.13575,743.9446 255.84695,743.92279 C 245.79103,743.79788 235.70828,744.15023 225.73422,742.53923 C 215.5154,741.31129 205.30378,739.97273 195.32851,737.34564 C 188.46566,735.35329 181.26961,733.63422 175.36515,729.42424 C 170.47704,724.06163 173.73928,720.89316 178.56847,716.93629 C 188.81002,708.85112 199.09984,700.82476 209.14214,692.49111 C 220.17011,683.33768 231.17122,674.13634 241.80537,664.52593 C 242.64292,663.73281 243.48047,662.9397 244.31802,662.14658 C 244.92408,661.54684 245.52065,660.93735 246.1362,660.34736 C 247.31321,659.21926 249.31248,659.13708 247.05566,659.05779 C 240.37244,659.57185 233.84805,661.50145 227.17622,662.17685 C 217.75072,663.31155 208.26558,663.89717 198.79188,662.86033 C 189.79782,661.9324 180.77156,660.65572 172.24398,657.51092 L 187.32675,647.29015 z" />
    <path
       style="fill:#000000;fill-opacity:1;fill-rule:nonzero;stroke:none;stroke-width:1px;stroke-linecap:butt;stroke-linejoin:miter;stroke-opacity:1"
       id="path2485"
       d="M 328.00229,393.9673 C 336.40652,386.55034 342.74385,377.20398 348.98644,367.98799 C 356.84586,356.00464 364.13601,343.66085 371.3693,331.29345 C 375.34628,325.10975 378.4833,318.39047 382.84488,312.46032 C 400.59891,294.46262 406.07172,293.4037 413.07863,307.5905 C 416.9983,315.76452 420.63755,324.06752 424.56206,332.2398 C 428.30265,339.78318 431.72389,347.42936 433.09846,355.76845 C 433.94387,361.21218 431.03891,365.43293 428.99301,370.12757 L 428.22769,370.51356 C 426.59858,368.07939 419.09825,367.96439 417.44346,364.73088 C 411.31709,358.96789 406.94508,351.85047 403.35966,344.26914 C 399.44933,336.15238 395.7617,327.92466 391.60423,319.92972 C 390.99943,318.9427 389.55312,316.49131 388.74423,315.47419 C 388.42046,315.06706 388.07782,314.65478 387.64447,314.36706 C 387.40206,314.20613 386.54391,314.32986 386.79224,314.17823 C 405.95567,302.4769 415.4386,300.1812 406.11445,302.57472 C 400.79325,308.22557 397.46824,315.46007 392.98777,321.74007 C 384.82288,334.4183 376.85642,347.23063 368.24774,359.61649 C 360.93396,369.68294 353.50289,379.89311 343.69409,387.71257 L 328.00229,393.9673 z" />
    <path
       style="fill:#000000;fill-opacity:1;fill-rule:nonzero;stroke:none;stroke-width:1px;stroke-linecap:butt;stroke-linejoin:miter;stroke-opacity:1"
       id="path2487"
       d="M 392.69824,361.54798 C 390.29027,378.54766 389.30847,395.72045 387.65303,412.80586 C 385.81169,429.96305 384.59123,447.24731 381.4531,464.23917 C 380.41481,469.86114 377.24791,483.36399 375.93081,489.08983 C 373.76464,498.44081 371.15238,507.66929 368.89214,516.99618 L 368.12246,517.37339 C 368.63533,509.18193 368.32836,501.06102 368.32751,492.85201 C 368.26898,486.18436 368.11161,477.31593 368.39206,470.70999 C 369.11111,453.7731 371.64728,436.96901 373.04021,420.08758 C 374.44445,403.04703 375.76366,385.99648 377.48463,368.9849 L 392.69824,361.54798 z" />
    <path
       style="fill:#000000;fill-opacity:1;fill-rule:nonzero;stroke:none;stroke-width:1px;stroke-linecap:butt;stroke-linejoin:miter;stroke-opacity:1"
       id="path2489"
       d="M 425.35898,363.07469 C 424.6957,378.48766 423.76906,393.88365 422.48622,409.25724 C 421.25564,434.36147 414.63343,458.52218 408.3782,482.70718 C 404.43562,496.57751 406.28173,489.89796 402.81804,502.73977 L 402.04928,503.11885 C 401.73203,492.21817 401.96445,497.85933 401.32189,486.19664 C 400.88202,475.51819 400.05321,464.69008 400.13032,454.00518 C 400.214,442.40957 401.66657,430.82408 402.43054,419.26858 C 403.71198,403.62549 405.05586,387.98586 406.70434,372.37674 L 425.35898,363.07469 z" />
    <path
       style="fill:#000000;fill-opacity:1;fill-rule:nonzero;stroke:none;stroke-width:1px;stroke-linecap:butt;stroke-linejoin:miter;stroke-opacity:1"
       id="path2491"
       d="M 486.13342,388.23495 C 487.73532,380.1487 489.86261,372.21777 492.93069,364.56474 C 498.72097,351.25319 506.03734,348.65185 518.98897,341.09194 C 525.68288,338.27605 530.8986,341.14954 535.57478,345.95498 C 541.65693,353.72156 543.21442,363.28496 543.75522,372.85952 C 544.00621,383.69939 540.87653,393.58078 534.99792,402.56929 C 526.22674,411.9343 514.13803,422.21405 500.88511,422.28626 C 497.3735,422.3054 496.09859,421.41001 492.914,420.11034 C 483.25819,414.0925 478.18131,403.54488 473.42634,393.61137 C 468.97673,383.99051 464.96439,374.17447 461.06375,364.3208 C 457.05183,352.64959 454.05335,357.10039 482.79277,349.4678 C 484.05113,349.13361 483.32717,352.01637 483.60332,353.28873 C 483.97001,354.97823 484.34863,356.66512 484.72128,358.35332 C 488.59824,375.45846 491.60694,392.73835 494.09164,410.09564 C 497.01943,430.20373 498.37779,450.47805 499.45054,470.75424 C 499.9412,483.852 500.12673,496.95483 500.17673,510.0607 C 499.73558,523.45981 496.66565,522.55937 483.86084,527.81122 C 485.06372,526.618 486.26659,525.42478 487.46947,524.23157 L 488.23914,523.85434 C 489.2329,523.99638 490.22667,524.13841 491.22044,524.28045 C 488.33935,525.98255 478.83357,533.78568 475.69614,531.13024 C 473.76968,529.49973 475.36879,524.89964 474.74534,522.97221 C 475.17636,509.74311 475.27961,496.50147 475.0743,483.26717 C 474.91506,462.77034 474.20164,442.25933 471.6999,421.89605 C 469.383,404.6142 466.85504,387.34127 462.26156,370.48588 C 461.81599,368.83677 461.37558,367.18624 460.92485,365.53853 C 460.58043,364.27942 458.91061,362.64397 459.87612,361.76547 C 481.76522,341.84896 478.97679,339.0112 484.76821,351.14623 C 488.35212,361.15057 491.18342,371.42426 495.30711,381.23575 C 499.57935,390.71843 503.88996,400.93717 513.31205,406.37601 C 516.39986,407.40628 516.97858,407.95366 520.27114,407.67825 C 521.42576,407.58167 524.61293,406.27949 523.67082,406.95397 C 518.50085,410.65533 512.82766,413.59788 507.3929,416.89821 C 506.0026,417.74248 510.22501,415.28331 511.53726,414.32222 C 512.95416,413.28449 514.21806,412.0526 515.55845,410.91779 C 523.35296,402.0592 528.88679,391.79401 530.05349,379.86118 C 530.35626,370.54039 529.34874,361.02199 523.2719,353.50233 C 518.62731,349.0824 513.44524,347.24625 507.44195,350.4309 C 510.77064,348.46228 514.0259,346.36386 517.42802,344.52504 C 518.37654,344.01237 515.63994,345.73871 514.8225,346.44177 C 510.84029,349.86675 508.07382,354.41305 505.42748,358.87613 C 500.87782,367.33278 496.74907,375.99963 493.17012,384.91552 L 486.13342,388.23495 z" />
    <path
       style="fill:#000000;fill-opacity:1;fill-rule:nonzero;stroke:none;stroke-width:1px;stroke-linecap:butt;stroke-linejoin:miter;stroke-opacity:1"
       id="path2493"
       d="M 457.64571,322.38017 C 467.99263,319.32117 478.20159,315.81932 488.43696,312.41127 C 498.21084,309.0415 508.09757,306.03677 518.12829,303.53547 C 523.04831,302.52034 528.00735,301.30925 533.04006,301.0239 C 533.37561,300.98625 533.71117,300.94861 534.04673,300.91096 L 532.74818,301.9284 C 531.93582,302.32664 531.12346,302.72489 530.3111,303.12314 C 524.11202,305.58441 517.64742,307.12876 511.21008,308.83958 C 501.05664,311.65505 491.00288,314.80409 481.01958,318.17356 C 470.82406,321.57119 460.64074,325.02189 450.31834,328.01965 L 457.64571,322.38017 z" />
    <path
       style="fill:#000000;fill-opacity:1;fill-rule:nonzero;stroke:none;stroke-width:1px;stroke-linecap:butt;stroke-linejoin:miter;stroke-opacity:1"
       id="path2495"
       d="M 516.65861,279.08868 C 523.99076,281.3579 531.36731,283.47585 538.7877,285.43771 C 543.50401,286.69605 548.21812,287.90593 551.88455,291.25921 C 554.54891,295.20511 552.24503,299.12952 550.1157,302.73285 C 545.15265,310.33445 539.02082,317.02962 532.69342,323.49766 C 524.08924,331.58647 515.06318,339.21853 505.79048,346.52631 L 504.99872,346.85465 C 507.99074,341.28277 511.87465,336.21877 515.22614,330.85719 C 520.32852,324.3022 525.72222,317.97529 530.63778,311.27532 C 532.97506,308.02055 536.17599,304.42077 536.48593,300.28559 C 535.32198,296.0822 530.57033,294.8888 526.87619,293.61338 C 519.46933,291.50219 512.07704,289.34059 504.66434,287.24966 L 516.65861,279.08868 z" />
    <path
       style="fill:#000000;fill-opacity:1;fill-rule:nonzero;stroke:none;stroke-width:1px;stroke-linecap:butt;stroke-linejoin:miter;stroke-opacity:1"
       id="path2501"
       d="M 136.06984,1062.4277 C 147.6903,1062.3183 159.26308,1061.1017 170.79873,1059.7924 C 182.17338,1058.5314 193.53719,1057.1761 204.90258,1055.8341 C 211.47221,1054.9391 218.1215,1054.5311 224.63033,1053.2336 C 231.62825,1052.7003 228.14212,1058.5567 226.01575,1061.6956 C 217.62387,1072.473 208.48765,1082.6474 199.55103,1092.9709 C 188.96867,1105.0614 178.42234,1117.1835 167.84255,1129.2764 C 165.25145,1132.6722 161.91356,1135.4573 159.44359,1138.9523 C 159.01314,1139.5613 158.17582,1141.5726 158.72919,1141.0726 C 164.99413,1138.72 171.50676,1136.6863 177.88827,1134.5513 C 190.36221,1130.1412 203.24374,1127.1342 216.33371,1125.3173 C 223.62935,1124.7793 231.78273,1124.2256 238.33997,1128.0435 C 239.94203,1129.8228 241.00489,1131.7186 241.22486,1134.096 L 240.24144,1134.7689 C 235.40171,1135.6302 230.51646,1136.1626 225.6713,1136.9952 C 216.64148,1137.7934 207.53875,1137.3046 198.54741,1138.6269 C 185.47956,1140.5232 172.67331,1143.7058 160.26588,1148.2675 C 156.52604,1149.5832 145.26514,1154.4222 141.25486,1153.5836 C 140.60618,1153.448 140.06191,1153.006 139.46543,1152.7172 C 139.17064,1152.1753 138.69683,1151.6974 138.58105,1151.0914 C 137.8322,1147.1721 146.17255,1140.4145 147.96119,1137.6657 C 158.675,1125.4511 169.52465,1113.3565 180.229,1101.1335 C 189.03784,1091.0293 197.95213,1080.989 206.1218,1070.3539 C 207.03684,1069.0746 207.86407,1067.7313 208.82876,1066.4891 C 209.65659,1065.4231 210.06684,1065.7076 208.10288,1065.5324 C 201.91664,1065.5312 195.77743,1066.7327 189.62166,1067.2024 C 178.38992,1068.4255 167.15583,1069.6242 155.92353,1070.8418 C 144.52158,1071.9634 133.08634,1073.2481 121.60851,1072.8455 L 136.06984,1062.4277 z" />
    <path
       style="fill:#000000;fill-opacity:1;fill-rule:nonzero;stroke:none;stroke-width:1px;stroke-linecap:butt;stroke-linejoin:miter;stroke-opacity:1"
       id="path2503"
       d="M 292.9272,1139.3812 C 295.37603,1149.0823 293.03499,1158.4612 290.52876,1167.8654 C 288.77629,1173.1817 289.70421,1170.6742 287.79094,1175.4048 L 287.03024,1175.7998 C 284.53359,1173.321 285.78284,1174.6995 283.338,1171.6146 C 278.81684,1164.7586 274.9445,1157.8943 273.91701,1149.5795 L 292.9272,1139.3812 z" />
    <path
       style="fill:#000000;fill-opacity:1;fill-rule:nonzero;stroke:none;stroke-width:1px;stroke-linecap:butt;stroke-linejoin:miter;stroke-opacity:1"
       id="path2505"
       d="M 75.202844,23.661001 C 86.583198,24.416852 97.931462,22.870694 109.21433,21.595904 C 122.98332,19.790141 136.74782,17.970599 150.53886,16.341187 C 160.25436,15.213343 169.9983,14.377527 179.72872,13.394084 C 183.41367,12.654305 189.52841,12.508737 186.70892,17.833748 C 179.66925,24.688135 171.49074,30.302013 163.63624,36.176377 C 152.31389,44.606753 141.06878,53.139363 129.88226,61.748938 C 122.76385,67.219376 115.72932,72.798942 108.56142,78.204682 C 107.64126,79.153609 106.11997,79.935232 105.55764,81.23376 C 105.50272,81.360584 105.66927,80.929464 105.80442,80.900584 C 106.78875,80.690248 107.81368,81.028035 108.81634,81.116401 C 116.4922,81.423704 124.15208,80.548701 131.78173,79.828297 C 142.55338,78.808213 153.33862,77.983938 164.13648,77.302813 C 172.38624,76.929131 180.64142,76.576709 188.90081,76.708525 C 193.23135,77.286896 198.10578,76.351367 202.26817,77.866581 C 204.48855,78.662298 203.13803,80.091664 201.9707,81.170911 C 200.93954,83.168024 200.01787,84.985784 199.95974,87.271116 L 199.01625,87.851477 C 196.65969,87.468056 193.72214,86.926301 191.64018,88.340555 C 189.39132,89.623286 187.04511,90.581618 184.39798,90.484961 C 180.00197,90.557773 175.60713,89.354707 171.17767,89.537261 C 163.14746,89.380715 155.11407,89.363 147.09132,89.828481 C 136.42388,90.30913 125.77736,91.148494 115.14598,92.141653 C 107.58257,92.771335 99.934063,93.610258 92.361732,92.658367 C 86.832738,91.326467 86.576068,88.732136 90.855591,85.261088 C 98.10257,79.687397 105.46158,74.257447 112.66072,68.620019 C 123.89183,60.020912 135.16565,51.478323 146.48697,42.998261 C 153.93093,37.377063 161.43429,31.807714 168.47352,25.679099 C 168.84409,25.345451 169.17456,24.960984 169.58523,24.678154 C 169.88629,24.470818 170.79205,24.513835 170.57982,24.216209 C 169.71278,23.0003 166.85494,24.032302 165.79301,23.666686 C 156.34397,23.982694 146.95087,25.1116 137.54413,26.002256 C 123.99388,27.38702 110.48941,29.170635 96.955713,30.705003 C 85.84513,31.844142 74.647707,33.116756 63.48151,31.945638 L 75.202844,23.661001 z" />
    <path
       style="fill:#000000;fill-opacity:1;fill-rule:nonzero;stroke:none;stroke-width:1px;stroke-linecap:butt;stroke-linejoin:miter;stroke-opacity:1"
       id="path2507"
       d="M 196.33482,140.89437 C 202.04224,135.45216 207.99036,130.28426 214.6879,126.10046 C 220.54752,129.82942 229.6961,112.66077 238.13095,115.65945 C 239.52474,116.15495 240.05677,117.02278 241.00136,118.07252 C 244.21387,123.67082 242.73221,130.14426 241.20707,136.02921 C 238.09383,146.45216 232.45999,155.76113 226.44812,164.72695 C 221.52921,171.56685 216.04965,178.0081 209.84199,183.71117 C 204.38947,189.87742 176.81122,199.72417 189.82132,191.49938 C 202.05106,183.61531 212.71232,176.78536 226.61349,174.49081 C 231.89289,173.53418 237.18922,173.66325 242.39758,174.88452 C 246.88964,176.15983 250.74107,178.74426 254.28012,181.70768 C 254.87169,182.40044 256.22134,183.68629 256.21052,184.78121 C 256.18662,187.20117 254.04868,190.33136 252.32403,191.81622 L 245.83124,196.37241 C 241.14844,197.98535 235.25885,199.52331 231.09114,196.11155 C 228.23169,193.42314 225.44956,190.4952 221.60248,189.27728 C 216.839,188.17475 212.0383,188.2512 207.22526,189.12992 C 197.0668,191.24269 175.75768,202.3265 212.29918,182.84549 C 204.09632,187.37286 174.63208,200.93186 189.48736,191.92776 C 196.92585,186.2325 203.50254,179.48185 209.32694,172.15216 C 215.93126,163.43067 221.99678,154.18401 225.26829,143.63974 C 226.69454,138.31929 228.48999,132.35177 226.17305,127.02881 C 221.59022,121.62816 204.41742,136.11815 230.20051,120.11595 C 223.1089,124.20118 216.79227,129.35649 210.82762,134.94823 L 196.33482,140.89437 z" />
  </g>
</svg>
