<?xml version="1.0" encoding="UTF-8" standalone="no"?>
<!-- Created with Inkscape (http://www.inkscape.org/) -->
<svg
   xmlns:dc="http://purl.org/dc/elements/1.1/"
   xmlns:cc="http://creativecommons.org/ns#"
   xmlns:rdf="http://www.w3.org/1999/02/22-rdf-syntax-ns#"
   xmlns:svg="http://www.w3.org/2000/svg"
   xmlns="http://www.w3.org/2000/svg"
   xmlns:sodipodi="http://sodipodi.sourceforge.net/DTD/sodipodi-0.dtd"
   xmlns:inkscape="http://www.inkscape.org/namespaces/inkscape"
   width="660.63605"
   height="597.89587"
   id="svg2599"
   sodipodi:version="0.32"
   inkscape:version="0.46"
   version="1.0"
   sodipodi:docname="c13d2.svg"
   inkscape:output_extension="org.inkscape.output.svg.inkscape">
  <defs
     id="defs2601">
    <inkscape:perspective
       sodipodi:type="inkscape:persp3d"
       inkscape:vp_x="0 : 526.18109 : 1"
       inkscape:vp_y="0 : 1000 : 0"
       inkscape:vp_z="744.09448 : 526.18109 : 1"
       inkscape:persp3d-origin="372.04724 : 350.78739 : 1"
       id="perspective2607" />
  </defs>
  <sodipodi:namedview
     id="base"
     pagecolor="#ffffff"
     bordercolor="#666666"
     borderopacity="1.0"
     gridtolerance="10000"
     guidetolerance="10"
     objecttolerance="10"
     inkscape:pageopacity="0.0"
     inkscape:pageshadow="2"
     inkscape:zoom="0.35"
     inkscape:cx="375"
     inkscape:cy="520"
     inkscape:document-units="px"
     inkscape:current-layer="layer1"
     showgrid="false"
     inkscape:window-width="1270"
     inkscape:window-height="785"
     inkscape:window-x="0"
     inkscape:window-y="0" />
  <metadata
     id="metadata2604">
    <rdf:RDF>
      <cc:Work
         rdf:about="">
        <dc:format>image/svg+xml</dc:format>
        <dc:type
           rdf:resource="http://purl.org/dc/dcmitype/StillImage" />
      </cc:Work>
    </rdf:RDF>
  </metadata>
  <g
     inkscape:label="Layer 1"
     inkscape:groupmode="layer"
     id="layer1"
     transform="translate(-29.420657,-157.51278)">
    <path
       style="fill:#000000;fill-opacity:1;fill-rule:nonzero;stroke:none;stroke-width:1px;stroke-linecap:butt;stroke-linejoin:miter;stroke-opacity:1"
       id="path2613"
       d="M 78.523837,524.51234 C 64.640807,522.82158 53.064069,513.21458 43.815092,503.34984 C 32.478619,489.47563 28.348316,472.26213 29.652382,454.53935 C 30.003723,449.76447 30.960191,445.05351 31.614096,440.31059 C 39.171414,407.05294 55.270958,376.57532 74.549888,348.66759 C 79.364813,341.69762 84.589326,335.01967 89.609045,328.1957 C 117.64027,292.6846 150.77782,261.34227 188.18474,235.84439 C 195.76323,230.67862 203.66768,226.00803 211.40915,221.08985 C 255.86417,193.72465 303.89292,172.77767 355.38083,163.20521 C 364.23344,161.55936 373.20054,160.60366 382.1104,159.30289 C 426.56917,154.948 471.65027,158.37553 514.49314,171.38276 C 522.83752,173.91614 530.95279,177.15048 539.18261,180.03434 C 570.27999,192.83024 599.47312,210.15689 623.51097,233.89244 C 638.92776,249.11535 641.4019,254.08058 654.00096,271.55299 C 675.55382,306.42949 687.9153,345.88052 689.88686,386.86922 C 690.28612,395.16977 689.8581,403.48949 689.84372,411.79962 C 687.30127,455.41814 673.95805,497.30756 652.59243,535.32092 C 648.03512,543.4292 642.81798,551.14854 637.93075,559.06234 C 610.51648,599.63563 576.54693,635.48453 538.02499,665.68518 C 530.27808,671.75864 522.1581,677.34057 514.22466,683.16827 C 474.90278,708.87919 434.04809,733.76037 388.46015,746.5333 C 366.44139,752.70257 361.50906,752.42842 339.11107,755.09725 C 300.14824,757.16183 261.84694,748.91329 226.83425,731.77293 C 219.91914,728.38765 213.34137,724.35282 206.59493,720.64277 C 172.52475,699.88686 142.97484,672.64392 117.64551,641.9301 C 112.55256,635.75449 107.82301,629.28796 102.91177,622.96689 C 89.257154,604.26173 76.704968,584.66698 67.786097,563.20834 C 59.41944,543.07832 54.490966,522.08726 50.019111,500.85169 C 46.228705,472.69138 47.732637,486.86194 45.523735,458.33825 L 46.280005,457.93483 C 54.333268,483.32577 49.767468,470.85279 59.965759,495.35805 C 62.99724,501.37887 65.846196,507.49512 69.060201,513.42052 C 78.038858,529.97373 81.029443,533.70114 91.571822,549.49689 C 104.3478,568.63926 116.87485,587.97251 130.7093,606.38042 C 143.3539,622.19892 147.61875,628.2052 161.56249,642.95544 C 183.19414,665.83827 207.51222,686.16943 234.552,702.37634 C 251.324,711.29349 257.78314,715.44556 275.59786,722.07339 C 304.35469,732.77214 334.7846,737.47019 365.41774,735.50071 C 387.11097,732.88549 392.20586,733.11942 413.51518,727.05973 C 445.62314,717.92926 431.40299,719.9918 462.96547,707.88263 C 463.53009,707.66601 461.64231,709.8138 462.16589,709.51118 C 470.69766,704.57999 478.88258,699.07166 487.24092,693.8519 C 495.36912,688.01 503.67985,682.41402 511.62554,676.3262 C 550.85232,646.27145 585.56647,610.49698 613.63093,569.79031 C 625.73617,550.33499 631.09475,543.04135 640.76425,522.31277 C 655.28121,491.19268 664.18925,457.81872 666.69848,423.5654 C 666.83959,415.28697 667.39404,407.00527 667.12181,398.73012 C 665.7848,358.08676 654.15023,318.67757 632.80552,284.06793 C 620.47224,266.71421 618.07484,261.80732 602.93964,246.66363 C 579.40199,223.11279 550.87932,205.51336 520.21566,192.85023 C 512.12977,189.9459 504.16125,186.69129 495.95798,184.13723 C 453.79908,171.01117 409.40402,167.24291 365.55036,171.70722 C 356.72479,173.00995 347.84397,173.9816 339.07365,175.61539 C 300.78878,182.74737 264.30698,196.44428 229.64141,214.00704 C 221.8847,218.88631 213.96899,223.52152 206.37127,228.64484 C 168.95976,253.87232 135.75464,284.9128 107.81883,320.32727 C 102.86365,327.07818 97.700141,333.68101 92.953288,340.57999 C 73.904625,368.26493 57.773637,398.52593 49.868197,431.35465 C 49.08123,436.06946 48.039129,440.74872 47.507297,445.49907 C 45.560327,462.88952 48.257722,479.98422 58.63263,494.35996 C 62.864521,499.10456 64.84717,501.72714 69.76455,505.71146 C 74.758893,509.75814 80.571606,512.09977 85.794114,515.68945 C 86.702906,516.31411 87.399634,517.20164 88.202394,517.95773 L 78.523837,524.51234 z" />
    <path
       style="fill:#000000;fill-opacity:1;fill-rule:nonzero;stroke:none;stroke-width:1px;stroke-linecap:butt;stroke-linejoin:miter;stroke-opacity:1"
       id="path2615"
       d="M 354.00392,484.23576 C 358.62028,469.67259 370.73759,465.85809 383.74064,458.37486 C 389.47917,456.51384 394.47934,457.86013 397.59495,463.06792 C 399.87027,468.72082 397.61381,474.00829 394.37257,478.71839 C 384.37332,488.94343 370.67866,499.03084 355.98322,498.23722 C 349.52432,496.97424 345.98625,492.68351 344.25861,486.62018 C 343.37658,479.28769 347.1337,473.92419 352.40122,469.32138 C 364.24208,462.19902 378.2596,448.19748 393.03181,453.95815 C 398.24577,456.51812 399.52588,461.39158 398.29436,466.712 C 397.13364,469.44032 395.30287,472.11645 392.65846,473.62472 C 365.32336,489.21567 375.79642,489.61971 363.25435,488.63862 C 357.94645,486.79228 357.46529,481.75745 358.60914,476.94767 C 363.47922,463.91 380.55462,455.15303 392.61483,452.76268 C 397.2171,452.81196 399.93431,455.70311 402.07173,459.43912 C 403.5454,462.36957 403.52764,465.14216 402.82502,468.22943 C 394.54191,471.65892 386.25881,475.0884 377.97571,478.51789 C 378.98627,478.28042 378.6206,476.71249 379.38592,476.26768 C 387.59198,471.49825 395.68055,466.4653 404.27017,462.42731 C 405.25733,461.96324 406.05159,465.95147 406.05234,465.95425 C 404.34642,471.62848 399.61761,476.10494 395.84584,480.51543 C 387.18807,490.23042 378.25721,499.69647 369.40315,509.23155 C 356.60068,523.13335 343.2738,536.53284 329.95493,549.93553 C 312.92617,566.92154 295.64725,583.65504 278.10176,600.10623 C 260.62784,616.24999 242.16034,631.81939 221.60417,643.96229 C 214.99673,647.86543 208.19276,651.42588 201.48705,655.15767 C 200.10607,655.10255 198.72508,655.04743 197.3441,654.99231 L 198.01941,654.46443 C 201.92459,652.47072 205.82977,650.47702 209.73494,648.48331 C 203.90474,651.12701 207.34709,649.84349 213.88221,644.15838 C 225.42737,634.11487 235.73913,622.67338 247.38069,612.72409 C 264.8134,596.22259 282.0789,579.54707 299.15504,562.67622 C 313.14284,549.02848 327.06833,535.31616 340.62869,521.24108 C 349.90338,511.6414 359.1636,502.02592 368.17896,492.18094 C 372.2273,487.71404 376.17026,483.15281 380.04917,478.54445 C 380.35155,478.59635 380.69356,478.54173 380.95629,478.70014 C 381.22697,478.86333 381.26505,479.59565 381.54295,479.44508 C 389.39846,475.18882 396.94326,470.38253 404.65,465.86247 C 405.33964,465.45799 403.49252,467.007 402.77318,467.35591 C 394.23347,471.49806 385.58236,475.40648 376.98696,479.43176 C 378.13496,480.5833 377.66195,473.57994 377.11121,473.66963 C 375.79204,470.56945 373.46167,469.05127 370.07912,470.21035 C 360.6511,474.62909 366.7954,471.81241 390.75574,457.8783 C 391.38615,457.51168 389.49218,458.61572 388.91779,459.06507 C 387.117,460.47385 385.80627,462.30725 384.88344,464.38366 C 384.13862,467.00389 383.25325,470.91876 387.1626,470.99864 C 397.33934,467.94366 388.1471,470.57602 365.31422,484.15618 C 364.62962,484.56336 366.78238,483.53076 367.47967,483.14573 C 369.11462,482.24294 370.04674,481.49996 371.37659,480.19365 C 371.93016,479.64989 372.42394,479.04845 372.94762,478.47585 C 375.11453,474.68855 375.47993,471.2416 371.35041,468.69017 C 368.55264,467.98991 366.33947,467.85206 363.47799,468.5268 C 362.45223,468.76868 359.56946,470.02176 360.45353,469.44809 C 372.68804,461.50923 387.28389,454.17517 376.41355,459.70052 C 371.60863,463.10116 367.47025,467.52815 367.87229,473.82516 C 369.0311,478.93969 372.31131,482.15842 377.7124,482.47723 C 380.27109,482.36111 380.41689,482.51973 382.93534,481.70726 C 383.81147,481.42461 386.28008,480.19065 385.49654,480.67393 C 348.87215,503.26353 363.14368,494.64863 370.36848,489.00951 C 374.08823,484.78432 377.40704,479.99376 377.73311,474.18398 C 376.65818,468.63799 373.04991,468.81392 368.39378,470.71317 C 373.04332,467.95315 377.64727,465.11484 382.34241,462.43312 C 383.30931,461.88085 380.45127,463.61939 379.58614,464.32042 C 376.01598,467.21338 373.62718,471.10986 372.26827,475.46712 L 354.00392,484.23576 z" />
    <path
       style="fill:#000000;fill-opacity:1;fill-rule:nonzero;stroke:none;stroke-width:1px;stroke-linecap:butt;stroke-linejoin:miter;stroke-opacity:1"
       id="path2617"
       d="M 188.74145,514.07399 C 192.08415,524.39069 196.72898,534.21845 201.73477,543.81648 C 205.57988,550.93811 210.11866,557.77182 216.36757,562.99659 C 225.25621,569.75918 250.30438,551.2016 190.5737,578.89707 C 190.07285,579.1293 190.24313,577.84358 190.08018,577.31611 C 189.62534,575.84378 188.55927,572.35368 188.16817,571.07497 C 184.43845,559.46517 185.26551,547.75533 187.97171,536.07092 C 192.33384,521.31331 201.82767,509.7867 213.22987,499.87011 C 227.73674,489.32787 221.40527,493.63872 250.28106,477.56121 C 254.38579,475.27577 258.75617,474.01043 263.03978,476.09257 C 264.70962,477.60286 264.65285,478.3433 263.94351,480.38035 L 263.25102,480.88547 C 258.73769,482.82521 254.17041,484.59012 249.55234,486.26867 C 243.68668,488.59784 237.86024,491.03014 232.18715,493.80503 C 230.32983,494.71351 224.91297,497.73261 226.67945,496.65812 C 256.58738,478.46618 252.0198,481.39844 241.98776,488.24637 C 230.67928,497.4446 220.92845,508.22292 216.44721,522.41656 C 213.55914,533.47791 212.97545,544.34247 216.82975,555.30696 C 217.00613,555.8089 219.85114,563.63528 219.73566,563.71763 C 191.96315,583.52099 195.58816,590.69932 190.73335,578.17083 C 187.65002,570.58246 183.56353,563.4283 180.51822,555.81735 C 176.32247,545.63039 172.56205,535.28784 169.27459,524.77047 L 188.74145,514.07399 z" />
    <path
       style="fill:#000000;fill-opacity:1;fill-rule:nonzero;stroke:none;stroke-width:1px;stroke-linecap:butt;stroke-linejoin:miter;stroke-opacity:1"
       id="path2619"
       d="M 245.33395,586.03403 C 240.22767,579.95524 237.51983,574.12165 237.4743,566.16762 C 238.32333,559.18271 242.12123,553.62636 247.38873,549.19106 C 258.97486,542.34859 265.96217,533.24699 276.56122,542.72557 C 281.17907,547.96073 283.23103,554.59173 284.35266,561.34329 C 285.11601,568.87311 282.67897,575.38886 278.36513,581.40404 C 270.3021,589.96536 259.24194,594.3378 248.85267,599.88534 C 246.34464,601.22456 244.7151,599.8875 243.29301,598.07866 C 241.10502,594.08944 241.40963,589.48569 240.84372,585.10089 L 241.58937,584.67816 C 242.48514,585.57797 243.1893,586.72209 244.27667,587.37759 C 247.84919,589.53124 252.6193,589.08288 256.50442,588.63857 C 260.74532,587.50003 260.92258,587.61549 264.88221,585.93388 C 266.03844,585.44285 269.35914,583.66489 268.28888,584.32255 C 233.63653,605.61569 248.41921,596.77711 255.22205,591.26505 C 260.41379,585.62607 264.19526,579.09408 264.97569,571.32573 C 265.44605,564.71649 264.96577,557.85839 261.27427,552.1438 C 260.08805,550.92386 259.36559,549.89174 257.72757,549.26699 C 251.66715,546.95555 238.06898,558.14481 263.38191,542.79099 C 258.35991,546.43473 254.8205,551.38051 254.10479,557.6896 C 254.09051,564.86821 257.14943,570.72061 262.44401,575.5651 L 245.33395,586.03403 z" />
    <path
       style="fill:#000000;fill-opacity:1;fill-rule:nonzero;stroke:none;stroke-width:1px;stroke-linecap:butt;stroke-linejoin:miter;stroke-opacity:1"
       id="path2631"
       d="M 436.49601,344.46903 C 436.20323,344.71818 431.245,355.11712 433.68543,353.88453 C 428.40153,356.11304 423.30935,358.8661 417.83372,360.57004 C 417.0449,360.81552 418.69881,359.16082 419.08201,358.42893 C 419.61096,357.41867 420.10459,356.3894 420.56811,355.34749 C 422.68602,350.58676 424.4455,345.67139 426.22005,340.77708 C 431.75505,325.43823 437.20885,310.0742 442.98759,294.82402 C 448.42032,280.32454 454.67858,266.16693 461.48915,252.26833 C 465.48314,244.50323 469.67819,236.83545 474.45105,229.51906 C 480.58151,220.41446 493.37207,206.31468 504.18973,212.62692 C 507.74366,215.97713 509.72858,220.60332 511.90103,224.89207 C 516.74861,234.29222 522.53166,243.1255 528.45218,251.87121 C 536.00947,262.47751 544.15844,272.64824 552.12843,282.94498 C 557.9146,290.33137 563.71057,297.78673 568.40579,305.92861 C 571.72597,311.42515 570.04044,315.48492 566.07577,319.91371 C 565.455,320.44121 564.83423,320.96872 564.21346,321.49622 L 559.17289,324.0036 C 558.57933,324.24975 557.98578,324.49591 557.39222,324.74207 C 551.25852,325.69952 548.75751,324.65688 545.73112,319.04845 C 540.93439,311.1058 535.86846,303.351 530.2169,295.9813 C 522.3077,285.58813 514.17584,275.36162 506.64608,264.68498 C 500.58297,255.92547 494.90187,246.88544 490.06534,237.38271 C 488.08327,233.74042 486.53182,229.16671 483.24285,226.52279 C 482.17329,226.29477 482.71661,226.26516 481.61801,226.6794 C 488.28829,222.73489 494.95857,218.79038 501.62885,214.84587 C 502.1512,214.5386 500.5484,215.41754 500.08975,215.81366 C 499.04143,216.71906 497.6262,218.71023 496.8397,219.74169 C 491.67286,227.11088 486.90783,234.76144 482.67416,242.70775 C 475.29474,256.53845 468.96132,270.88761 463.18278,285.45658 C 457.12029,300.79775 451.39852,316.26902 445.67896,331.74079 C 443.64952,336.80269 441.71851,341.92001 439.35839,346.84129 C 439.26375,347.03864 436.61611,352.43468 436.01723,352.80602 C 430.12764,356.45793 423.78872,359.32971 417.67446,362.59156 C 418.50344,357.64513 423.22487,353.78558 425.37492,349.41927 L 436.49601,344.46903 z" />
    <path
       style="fill:#000000;fill-opacity:1;fill-rule:nonzero;stroke:none;stroke-width:1px;stroke-linecap:butt;stroke-linejoin:miter;stroke-opacity:1"
       id="path2633"
       d="M 491.11328,261.82908 C 486.59938,267.36369 485.57643,273.60967 485.9026,280.53361 C 487.85922,293.83851 490.65548,307.01286 492.96064,320.26917 C 496.85924,345.51296 498.88049,370.95699 500.33867,396.43957 C 502.139,427.47993 501.51009,458.57026 500.35391,489.61683 C 499.85202,512.32424 495.71159,534.54153 489.09647,556.20555 C 486.42654,563.30492 487.81219,560.11757 485.08732,565.83052 L 484.31952,566.21154 C 482.50593,562.61217 483.43664,564.68916 481.69985,559.90612 C 477.17384,540.37811 477.19965,520.46543 478.68353,500.54582 C 480.10067,469.38742 480.93537,438.19489 479.82698,407.00894 C 478.94701,381.263 477.72185,355.50421 474.68143,329.90784 C 473.15442,315.92085 470.88962,301.86914 471.49018,287.76347 C 472.84298,279.11701 476.14188,271.62517 482.52045,265.43422 L 491.11328,261.82908 z" />
    <path
       style="fill:#000000;fill-opacity:1;fill-rule:nonzero;stroke:none;stroke-width:1px;stroke-linecap:butt;stroke-linejoin:miter;stroke-opacity:1"
       id="path2635"
       d="M 531.7146,283.77318 C 531.52447,294.43191 533.24356,304.95769 535.01524,315.42912 C 538.39558,333.50995 541.84447,351.56922 544.697,369.7428 C 548.7862,394.45155 550.3682,419.49989 550.7472,444.51583 C 551.24662,468.30788 548.44776,491.88035 542.00102,514.75778 C 537.14796,528.11789 530.22536,540.3699 521.73385,551.70737 L 520.94997,552.0541 C 525.1001,542.65859 525.86146,532.20399 526.84391,522.07636 C 530.18661,499.40316 532.8178,476.61272 532.87282,453.6556 C 532.53455,428.66444 531.23342,403.67851 527.30404,378.96062 C 524.25308,360.78837 520.53418,342.73331 517.81061,324.50646 C 516.48546,313.33711 515.3721,302.02839 517.36039,290.85475 L 531.7146,283.77318 z" />
    <path
       style="fill:#000000;fill-opacity:1;fill-rule:nonzero;stroke:none;stroke-width:1px;stroke-linecap:butt;stroke-linejoin:miter;stroke-opacity:1"
       id="path2637"
       d="M 590.31916,380.36399 C 593.21313,373.02532 597.83178,366.7946 603.78183,361.68358 C 613.93297,354.78685 621.95917,347.5485 633.33944,353.21543 C 640.32623,358.10835 642.62491,366.13603 644.37304,374.05386 C 646.17082,383.66007 644.45449,392.97505 640.84311,401.9057 C 634.29459,415.15679 620.77216,424.09204 606.34726,427.43816 C 597.60787,428.16788 591.85073,422.36794 586.57405,416.2384 C 581.3101,409.19291 577.14532,401.40323 573.60638,393.37267 C 566.80409,377.85035 568.16306,384.08088 591.91892,373.87271 C 595.98528,382.3546 599.00593,391.29246 602.15872,400.14103 C 607.44423,415.37208 611.99573,430.84209 615.69517,446.53213 C 618.24937,458.04558 620.22871,469.7466 619.9635,481.56584 C 619.83509,485.89767 616.17699,495.22016 611.49742,496.40561 C 609.53783,496.90202 607.4673,496.72779 605.45223,496.88888 L 606.1956,496.46214 C 604.79943,497.75901 603.48159,499.14569 602.00708,500.35275 C 598.44061,503.27235 596.18802,495.66957 596.63539,493.48218 C 596.11111,481.81868 595.44129,470.14993 593.07836,458.67928 C 589.85363,442.86534 585.97973,427.21227 580.87701,411.88498 C 577.99298,403.12096 575.0152,394.33492 571.1738,385.9389 C 578.18303,382.19752 585.43707,378.88247 592.20149,374.71475 C 592.62054,374.45656 591.80809,373.69863 591.35591,373.50421 C 591.07273,373.38246 591.42797,374.11864 591.50763,374.41642 C 592.18771,376.95852 593.29516,379.37144 594.064,381.88437 C 597.34558,389.78603 600.58928,397.80303 605.98745,404.56196 C 610.57699,410.07957 615.92583,415.21572 623.67133,414.13265 C 631.93962,411.47454 628.78684,412.23968 611.76713,422.08439 C 610.58137,422.77027 614.10602,420.64721 615.18773,419.80675 C 618.85009,416.96122 621.80929,413.37272 624.26104,409.45981 C 628.8954,400.73204 631.50622,391.50667 630.3531,381.52397 C 629.2217,373.97765 627.74989,366.04488 621.46498,361.00093 C 618.8109,359.54905 616.79873,358.68673 613.69016,359.22988 C 612.6866,359.40523 609.95574,360.70559 610.75147,360.06944 C 611.64805,359.35267 625.04022,351.34059 616.00935,356.75664 C 609.82529,361.63421 604.84603,367.6707 601.83017,375.02021 L 590.31916,380.36399 z" />
    <path
       style="fill:#000000;fill-opacity:1;fill-rule:nonzero;stroke:none;stroke-width:1px;stroke-linecap:butt;stroke-linejoin:miter;stroke-opacity:1"
       id="path2639"
       d="M 598.35118,331.38376 C 605.09536,330.94936 611.81033,331.77598 618.55243,331.30735 C 619.87488,330.95588 621.19734,330.60441 622.5198,330.25295 L 621.84132,330.77674 C 620.32376,331.27637 618.80621,331.77601 617.28865,332.27565 C 606.24934,336.33668 594.9794,339.85965 583.50434,342.46859 L 598.35118,331.38376 z" />
    <path
       style="fill:#000000;fill-opacity:1;fill-rule:nonzero;stroke:none;stroke-width:1px;stroke-linecap:butt;stroke-linejoin:miter;stroke-opacity:1"
       id="path2641"
       d="M 625.12021,310.85436 C 631.48423,314.67771 637.79596,318.60803 644.28992,322.20895 C 648.13852,324.57846 651.53649,327.10833 651.86839,331.85195 C 650.72918,338.90477 644.55678,343.76624 639.56155,348.30094 C 629.15428,356.89459 617.55217,363.90591 605.70849,370.31827 L 606.37509,369.77944 C 611.95609,366.29682 616.04348,361.11898 620.36117,356.24374 C 624.21989,351.93682 628.28703,347.59807 630.81704,342.34018 C 631.97454,338.45794 630.08188,335.66878 627.16919,333.0768 C 622.06809,328.20342 616.15592,324.27036 610.25595,320.43534 L 625.12021,310.85436 z" />
  </g>
</svg>
