<?xml version="1.0" encoding="UTF-8" standalone="no"?>
<!-- Created with Inkscape (http://www.inkscape.org/) -->
<svg
   xmlns:dc="http://purl.org/dc/elements/1.1/"
   xmlns:cc="http://creativecommons.org/ns#"
   xmlns:rdf="http://www.w3.org/1999/02/22-rdf-syntax-ns#"
   xmlns:svg="http://www.w3.org/2000/svg"
   xmlns="http://www.w3.org/2000/svg"
   xmlns:sodipodi="http://sodipodi.sourceforge.net/DTD/sodipodi-0.dtd"
   xmlns:inkscape="http://www.inkscape.org/namespaces/inkscape"
   width="2571.5647"
   height="537.56531"
   id="svg2"
   sodipodi:version="0.32"
   inkscape:version="0.46"
   version="1.0"
   sodipodi:docname="c13d3.svg"
   inkscape:output_extension="org.inkscape.output.svg.inkscape">
  <defs
     id="defs4">
    <inkscape:perspective
       sodipodi:type="inkscape:persp3d"
       inkscape:vp_x="0 : 526.18109 : 1"
       inkscape:vp_y="0 : 1000 : 0"
       inkscape:vp_z="744.09448 : 526.18109 : 1"
       inkscape:persp3d-origin="372.04724 : 350.78739 : 1"
       id="perspective10" />
  </defs>
  <sodipodi:namedview
     id="base"
     pagecolor="#ffffff"
     bordercolor="#666666"
     borderopacity="1.0"
     gridtolerance="10000"
     guidetolerance="10"
     objecttolerance="10"
     inkscape:pageopacity="0.0"
     inkscape:pageshadow="2"
     inkscape:zoom="0.46042006"
     inkscape:cx="1285.7824"
     inkscape:cy="268.78266"
     inkscape:document-units="px"
     inkscape:current-layer="layer1"
     showgrid="false"
     inkscape:window-width="1270"
     inkscape:window-height="785"
     inkscape:window-x="0"
     inkscape:window-y="0" />
  <metadata
     id="metadata7">
    <rdf:RDF>
      <cc:Work
         rdf:about="">
        <dc:format>image/svg+xml</dc:format>
        <dc:type
           rdf:resource="http://purl.org/dc/dcmitype/StillImage" />
      </cc:Work>
    </rdf:RDF>
  </metadata>
  <g
     inkscape:label="Layer 1"
     inkscape:groupmode="layer"
     id="layer1"
     transform="translate(687.00248,-266.84986)">
    <path
       style="fill:#000000;fill-opacity:1;fill-rule:nonzero;stroke:none;stroke-width:1px;stroke-linecap:butt;stroke-linejoin:miter;stroke-opacity:1"
       id="path2383"
       d="M -654.96026,532.38662 C -665.26071,524.63396 -668.10525,513.71391 -669.65859,501.50346 C -671.06415,479.13476 -663.55646,457.99111 -655.148,437.65978 C -644.70307,415.18127 -630.93172,394.25416 -613.7137,376.36703 C -610.18388,372.70004 -606.38442,369.30251 -602.71979,365.77026 C -580.70633,347.60695 -555.64153,330.7809 -527.26072,324.84848 C -522.75917,323.90752 -518.15369,323.56029 -513.60017,322.9162 C -489.3401,321.36607 -466.58979,328.80259 -446.77752,342.66636 C -442.43251,345.70681 -438.44548,349.2292 -434.27947,352.51062 C -411.16876,373.5492 -393.5779,399.78736 -380.16337,427.88885 C -377.06693,434.37543 -374.37928,441.04936 -371.48723,447.62962 C -357.04292,484.71597 -348.24742,523.92814 -345.66172,563.66193 C -345.11996,571.98698 -345.12792,580.33871 -344.86102,588.67709 C -345.09774,620.29459 -348.50775,652.15067 -359.2196,682.08792 C -365.89307,700.73877 -368.29411,703.17594 -378.0484,720.08435 C -393.05722,742.68788 -413.49218,759.91643 -437.27326,772.69321 C -477.9107,794.52635 -465.16963,789.29129 -496.64779,799.2592 C -522.72828,805.64238 -549.87485,806.86136 -575.72472,798.53813 C -592.58151,793.11052 -596.36749,789.5103 -611.38219,780.2511 C -616.74402,775.66807 -622.46793,771.47755 -627.46766,766.50202 C -649.93734,744.14113 -665.00986,715.09849 -674.59127,685.14838 C -677.22647,676.91113 -679.0637,668.4396 -681.29991,660.0852 C -691.61669,612.90758 -686.90665,567.87553 -675.38216,521.4659 C -673.06421,512.13139 -670.22716,502.93348 -667.64966,493.66728 C -655.74772,458.57041 -661.42459,475.77661 -650.58205,442.06091 L -649.80659,441.69573 C -660.32088,474.37789 -656.15394,457.8931 -662.40157,491.1262 C -663.48835,499.64539 -664.87942,508.13126 -665.66191,516.68378 C -668.75795,550.52306 -667.22456,587.83203 -662.34529,621.45329 C -661.09162,630.09189 -659.18886,638.62376 -657.61065,647.209 C -655.32349,655.43341 -653.43834,663.78036 -650.74917,671.88224 C -638.65838,708.30905 -618.29133,741.42366 -587.50456,764.8319 C -572.54472,773.92064 -569.24686,777.1614 -552.51656,782.47418 C -527.58162,790.39238 -501.37352,789.37214 -476.1814,783.41127 C -469.89478,781.43307 -463.861,778.29547 -457.32154,777.47667 C -455.78736,777.28458 -461.27958,781.95211 -459.84871,781.36626 C -453.45826,778.74979 -447.62941,774.89204 -441.83499,771.13592 C -424.19859,759.70348 -408.99965,745.28656 -396.61699,728.3117 C -386.05961,711.44541 -383.22902,708.51547 -375.62026,689.80947 C -363.33964,659.61776 -358.09969,627.14498 -356.7036,594.73597 C -356.71517,586.29821 -356.44242,577.85527 -356.73831,569.42269 C -358.13761,529.54379 -366.10745,490.14418 -381.5143,453.28401 C -384.49746,446.78628 -387.25038,440.17782 -390.46376,433.79082 C -404.41567,406.05969 -422.74633,380.56502 -445.97478,359.87138 C -450.10944,356.63338 -454.06782,353.1567 -458.37876,350.15739 C -477.97397,336.52416 -500.71974,329.62678 -524.59231,331.14905 C -537.04121,333.03147 -539.48617,332.80748 -551.48992,337.03091 C -555.9716,338.60776 -560.22723,340.76793 -564.64001,342.52841 C -565.06374,342.69746 -565.59201,342.56986 -565.97905,342.81136 C -578.51408,350.63291 -578.75519,351.3917 -590.31403,360.66579 C -594.04383,364.18797 -597.91665,367.56462 -601.50343,371.23235 C -618.78755,388.9065 -632.65847,409.70029 -643.0497,432.08506 C -651.46296,452.15762 -658.8181,473.04846 -657.62205,495.16889 C -656.03853,506.58496 -653.34649,517.86778 -643.49254,525.01863 L -654.96026,532.38662 z" />
    <path
       style="fill:#000000;fill-opacity:1;fill-rule:nonzero;stroke:none;stroke-width:1px;stroke-linecap:butt;stroke-linejoin:miter;stroke-opacity:1"
       id="path2385"
       d="M -516.46574,721.04178 C -520.17042,704.91038 -521.22583,688.30827 -522.34611,671.83938 C -523.85497,645.05025 -524.17233,618.21054 -523.90113,591.3859 C -523.61643,570.67756 -522.42688,550.00314 -520.71736,529.36834 C -519.59713,522.83784 -520.80525,514.85437 -517.3407,508.88048 C -513.87976,505.53939 -514.20372,505.60835 -505.57645,503.68173 C -504.78204,503.50432 -506.40539,505.08299 -506.80335,505.79306 C -507.15879,506.42726 -507.49201,507.07368 -507.83634,507.71399 L -508.58929,508.12358 C -516.40495,506.16725 -512.87794,508.04648 -501.66447,501.23134 C -499.83446,504.21299 -503.27386,517.21642 -503.22582,520.67156 C -505.59499,541.40486 -507.39824,562.21714 -507.5868,583.09932 C -507.99367,609.87003 -507.4725,636.64684 -506.00378,663.38282 C -505.03765,680.1018 -503.8742,696.80659 -502.27752,713.47844 L -516.46574,721.04178 z" />
    <path
       style="fill:#000000;fill-opacity:1;fill-rule:nonzero;stroke:none;stroke-width:1px;stroke-linecap:butt;stroke-linejoin:miter;stroke-opacity:1"
       id="path2387"
       d="M -544.5062,548.30277 C -538.68584,538.70933 -533.17557,528.93446 -527.64404,519.17332 C -522.98179,510.92098 -518.46181,502.54851 -512.66366,495.02436 C -507.38533,489.22621 -496.60315,478.64293 -489.17506,484.52255 C -487.05342,486.2019 -486.04632,487.96237 -484.45441,490.16152 C -477.61208,501.73778 -472.16849,514.07479 -466.76758,526.36929 C -461.58129,537.22794 -459.40324,549.12561 -455.77406,560.52759 L -456.50774,560.97078 C -467.60412,555.06065 -477.36669,547.07955 -483.42284,535.84049 C -489.8534,524.14014 -495.18863,511.91294 -501.46375,500.13743 C -502.34394,498.71542 -503.69818,496.15891 -505.13178,494.96669 C -506.83461,493.55057 -508.35932,494.76103 -508.04513,494.5569 C -489.90574,482.77128 -491.14397,483.61227 -496.71726,488.25058 C -503.34773,495.62933 -507.96902,504.48304 -513.29317,512.79741 C -519.34738,522.74681 -525.55698,532.60024 -531.58567,542.56494 L -544.5062,548.30277 z" />
    <path
       style="fill:#000000;fill-opacity:1;fill-rule:nonzero;stroke:none;stroke-width:1px;stroke-linecap:butt;stroke-linejoin:miter;stroke-opacity:1"
       id="path2391"
       d="M -595.79794,530.14771 C -591.54459,523.23701 -585.82109,517.45807 -579.34636,512.63568 C -573.6984,509.7231 -562.87333,499.53625 -554.22846,503.13749 C -551.77604,504.1591 -550.70792,505.60977 -548.8617,507.44832 C -542.91009,516.45921 -542.09122,527.34069 -542.03187,537.84066 C -542.18548,549.4605 -545.56594,560.38029 -552.22608,569.85063 C -562.027,579.18545 -574.48821,589.33586 -588.42474,589.84797 C -592.44185,589.99558 -593.55162,589.37226 -597.37128,588.31642 C -607.00436,584.57117 -613.30696,576.66695 -618.80459,568.293 C -623.26935,562.48802 -624.4418,554.85862 -628.35287,548.82021 C -635.3163,542.19342 -631.40947,546.30536 -605.20936,536.7928 C -604.36842,536.48748 -605.09236,538.57873 -604.99887,539.46849 C -604.38624,545.29876 -603.38281,551.07409 -602.41851,556.8531 C -599.06209,578.36453 -595.68865,599.87437 -592.92945,621.47203 C -590.07085,642.99398 -587.86166,664.73564 -590.18346,686.38912 C -592.47732,698.36347 -596.9098,709.56025 -601.93182,720.58541 L -602.70079,720.96407 C -605.46145,712.91513 -608.40443,704.94365 -610.15897,696.56901 C -612.73433,675.72351 -613.67061,654.69961 -616.53075,633.87845 C -619.28839,612.37492 -622.52429,590.9413 -626.51081,569.62799 C -627.45403,563.81782 -628.56956,558.01164 -629.37426,552.17963 C -629.5156,551.15529 -630.53805,549.71378 -629.70912,549.0956 C -622.20996,543.50304 -613.9369,539.00131 -605.71623,534.53647 C -605.32219,534.32246 -605.33684,535.34909 -605.14715,535.75539 C -603.262,542.60956 -600.03256,549.11455 -596.57596,555.29155 C -591.44953,563.13259 -585.45765,570.52129 -576.36135,573.82747 C -572.9802,574.5812 -571.89383,575.09764 -568.4161,574.80743 C -567.11583,574.69893 -563.52477,573.29146 -564.57184,574.06998 C -569.82122,577.97298 -575.7563,580.85898 -581.27613,584.36908 C -582.67027,585.25562 -578.31934,582.87351 -576.95369,581.94368 C -575.51717,580.96559 -574.25087,579.75832 -572.89946,578.66564 C -564.27005,569.2653 -558.93454,558.16839 -557.12827,545.44827 C -556.17017,535.20149 -555.85933,524.22223 -561.47838,515.14264 C -563.57237,512.83554 -565.45722,510.96758 -568.8254,510.96805 C -572.32709,510.96854 -575.82774,513.25387 -574.96498,512.64999 C -572.13496,510.66914 -569.0172,509.13503 -566.04331,507.37754 C -573.28572,512.38543 -579.14896,518.8478 -584.90836,525.46751 L -595.79794,530.14771 z" />
    <path
       style="fill:#000000;fill-opacity:1;fill-rule:nonzero;stroke:none;stroke-width:1px;stroke-linecap:butt;stroke-linejoin:miter;stroke-opacity:1"
       id="path2393"
       d="M -221.03403,523.81109 C -209.08328,520.92614 -197.04917,518.4001 -184.99101,516.00832 C -169.88579,512.85728 -154.6234,510.63817 -139.21591,509.80745 C -129.6119,509.14926 -120.39058,511.77946 -111.27669,514.41225 L -111.96892,514.91772 C -127.11662,517.79504 -142.19793,521.07818 -157.45224,523.34787 C -173.32971,525.69312 -189.22933,527.91588 -204.96432,531.12174 C -216.11586,533.3019 -227.2535,535.79552 -238.56663,536.97055 L -221.03403,523.81109 z" />
    <path
       style="fill:#000000;fill-opacity:1;fill-rule:nonzero;stroke:none;stroke-width:1px;stroke-linecap:butt;stroke-linejoin:miter;stroke-opacity:1"
       id="path2395"
       d="M -203.54956,587.01743 C -192.03899,583.45085 -180.39803,580.34032 -168.62746,577.76422 C -154.53161,574.83989 -140.22141,573.14382 -125.8373,572.76131 C -116.3553,572.93796 -106.25893,572.54878 -97.479719,576.64348 C -97.201688,576.88301 -94.179198,579.35651 -94.01736,579.96303 C -93.090308,583.43737 -96.053951,581.61111 -93.15471,582.90229 L -93.841749,583.41481 C -100.3745,585.51273 -106.60207,588.11323 -113.62237,587.97905 C -123.87497,588.15485 -133.98017,586.23492 -144.23696,586.17161 C -157.59544,586.20695 -170.94323,587.22293 -184.11705,589.49989 C -194.83412,591.49949 -205.43599,593.97061 -216.02048,596.5738 L -203.54956,587.01743 z" />
    <path
       style="fill:#000000;fill-opacity:1;fill-rule:nonzero;stroke:none;stroke-width:1px;stroke-linecap:butt;stroke-linejoin:miter;stroke-opacity:1"
       id="path2397"
       d="M 74.051625,513.38666 C 65.413126,517.11316 57.616571,519.45418 48.349692,516.91072 C 36.992985,509.31929 36.206527,494.94974 35.81809,482.51727 C 36.956169,457.14768 47.768338,434.28077 59.693356,412.37495 C 76.163843,383.54546 97.809959,359.37243 123.88664,338.88021 C 129.88367,334.16748 136.22703,329.91295 142.39722,325.42933 C 171.20628,307.27931 201.1126,289.62121 235.0762,283.62273 C 251.47903,280.72574 254.50615,281.63127 270.83432,282.11444 C 301.00805,285.85711 325.47384,299.61107 345.772,322.12236 C 350.07659,326.89629 353.81373,332.15281 357.83459,337.16803 C 377.5905,366.32685 391.94435,399.09323 399.42835,433.56311 C 400.91419,440.40662 401.78445,447.36942 402.9625,454.27257 C 405.98374,480.65422 404.37101,507.43042 395.28881,532.56417 C 389.3367,549.03579 386.20834,552.60012 377.21648,567.61968 C 356.68226,596.67074 329.72465,620.80038 298.98481,638.7032 C 283.78715,647.55429 268.26116,655.82919 252.89933,664.39218 C 227.68175,676.14922 200.76876,684.64209 172.77876,685.72482 C 155.20117,686.40477 151.76949,684.99508 134.60212,682.24623 C 121.50027,678.14716 111.71124,676.11718 100.0862,668.37924 C 82.142301,656.43529 68.185515,638.12778 58.194144,619.31579 C 54.690672,612.71937 52.069528,605.69091 49.00722,598.87847 C 38.973583,569.54232 37.184652,540.97276 45.46512,510.95436 C 50.714426,491.92454 54.711424,485.55272 63.171413,467.7951 C 79.657446,440.58226 70.785061,453.83342 89.81369,428.05844 L 90.598589,427.71401 C 77.900556,450.66014 83.603136,438.89282 73.4808,463.01112 C 71.719258,469.25645 69.534161,475.39755 68.196173,481.74711 C 62.843765,507.14754 64.136777,537.37336 70.410843,562.47867 C 72.15949,569.47579 74.746646,576.23622 76.914547,583.115 C 80.004372,589.74021 82.622628,596.60652 86.184022,602.99064 C 96.378861,621.26579 110.50573,638.50804 128.45193,649.66476 C 139.97845,656.83052 149.55093,658.83996 162.33841,662.74349 C 168.44049,663.67053 174.49359,665.01542 180.64465,665.5246 C 214.31096,668.3115 247.20225,658.85321 277.40238,644.70321 C 274.9505,646.45101 267.42366,651.42519 270.04672,649.94662 C 302.46553,631.6728 331.23624,607.23441 354.03693,577.82411 C 364.00601,562.93536 367.95788,558.48676 375.13169,542.04643 C 386.07427,516.96916 389.52222,489.99645 386.75569,462.87211 C 385.62736,456.00739 384.8415,449.07752 383.3707,442.27794 C 375.97444,408.0847 360.33127,376.11617 339.63428,348.07352 C 335.55407,343.19017 331.73146,338.07949 327.39365,333.42346 C 307.29779,311.85338 283.57705,297.94647 254.14456,294.16639 C 238.24223,293.71356 235.24634,292.82991 219.27272,295.68707 C 196.17617,299.81828 204.85624,300.00573 181.98089,307.18543 C 181.19277,307.43279 180.25846,306.48022 179.52439,306.85899 C 172.96078,310.24572 166.85704,314.4578 160.52337,318.25721 C 144.4935,329.79569 139.49728,332.66162 124.94858,346.03922 C 106.82109,362.70752 91.986392,382.41178 79.422122,403.52162 C 68.021777,424.90401 57.307005,447.21397 56.499824,471.91554 C 56.701481,483.43183 57.703835,496.21469 67.217237,504.09695 C 73.160379,506.47456 79.081753,506.2234 85.249753,504.66753 L 74.051625,513.38666 z" />
    <path
       style="fill:#000000;fill-opacity:1;fill-rule:nonzero;stroke:none;stroke-width:1px;stroke-linecap:butt;stroke-linejoin:miter;stroke-opacity:1"
       id="path2399"
       d="M 233.14539,448.46493 C 237.91178,463.91663 240.59113,479.93126 243.01354,495.88984 C 245.16041,510.46548 247.76266,525.01447 248.49447,539.74861 C 248.57675,546.12302 246.97182,551.67646 241.73987,555.51335 L 235.96252,557.95466 C 231.24935,560.2973 229.08653,553.78911 228.26984,550.32341 C 225.85075,535.68913 225.01129,520.86225 223.55107,506.11457 C 221.93861,489.95654 220.22422,473.71142 215.88286,458.01287 L 233.14539,448.46493 z" />
    <path
       style="fill:#000000;fill-opacity:1;fill-rule:nonzero;stroke:none;stroke-width:1px;stroke-linecap:butt;stroke-linejoin:miter;stroke-opacity:1"
       id="path2401"
       d="M 181.54326,500.57753 C 194.58256,496.45532 207.79489,492.91939 220.99859,489.37125 C 241.20802,483.93055 261.72136,479.73063 282.29799,475.95449 C 295.75013,473.67171 309.26966,471.81001 322.83905,470.38975 C 325.41481,470.74982 333.24552,468.56219 328.76516,473.27719 C 326.47453,474.98936 327.97354,473.9148 324.16521,476.35223 L 325.298,475.87799 C 319.27076,480.69939 321.94273,478.99874 317.63094,481.49053 C 312.53734,484.44748 307.16021,485.84842 301.27805,486.40429 C 287.96344,487.82512 274.66326,489.43316 261.45711,491.66633 C 241.54402,495.12105 221.75373,499.23694 202.07803,503.85656 C 189.68185,506.86916 177.30545,509.96879 165.0076,513.36335 L 181.54326,500.57753 z" />
    <path
       style="fill:#000000;fill-opacity:1;fill-rule:nonzero;stroke:none;stroke-width:1px;stroke-linecap:butt;stroke-linejoin:miter;stroke-opacity:1"
       id="path2403"
       d="M 578.86019,431.36544 C 577.62733,446.07253 576.57793,460.79389 575.10746,475.48043 C 573.81296,489.84347 571.77919,504.14038 569.09013,518.30708 C 567.91249,523.79542 567.23999,529.90848 563.49495,534.33534 C 535.74969,545.75233 536.42612,553.14085 539.4805,541.37396 C 540.51108,537.40371 541.28591,533.37393 542.12625,529.36078 L 542.87179,528.93786 C 544.92394,529.83517 548.18291,531.33717 550.37819,532.01336 C 561.95592,535.5795 571.91229,525.8043 534.99802,545.47823 C 535.50051,547.59334 537.82828,537.27558 537.83874,537.23827 C 538.25125,535.76683 538.63011,534.28616 539.0258,532.8101 C 542.65279,518.42618 545.45039,503.85267 547.48226,489.15582 C 549.47205,474.10185 551.25131,459.02347 553.26791,443.97451 L 578.86019,431.36544 z" />
    <path
       style="fill:#000000;fill-opacity:1;fill-rule:nonzero;stroke:none;stroke-width:1px;stroke-linecap:butt;stroke-linejoin:miter;stroke-opacity:1"
       id="path2405"
       d="M 513.75782,487.23024 C 528.02681,487.79917 542.28614,486.83468 556.51122,485.82917 C 572.90227,484.44842 589.28202,482.94464 605.70091,481.9293 C 614.72495,481.63123 623.90742,480.38308 632.85059,482.10268 C 638.40937,485.19398 636.14611,489.10621 631.73071,491.76856 C 584.93662,517.2758 602.20304,513.34771 606.99811,504.35954 C 608.49144,501.56037 609.27164,499.91605 611.41421,497.31886 L 612.14571,496.87211 C 614.21435,496.13539 617.38991,495.09843 619.4585,494.05996 C 629.00404,489.26793 643.92243,475.87838 602.98142,502.96149 C 601.91581,503.37999 605.26882,504.7765 601.81968,503.71657 C 593.61193,501.956 585.04869,503.29641 576.74217,503.20092 C 561.05798,503.86455 545.38479,504.73613 529.70582,505.50998 C 516.18184,505.8919 502.56502,506.46665 489.10518,504.75069 L 513.75782,487.23024 z" />
    <path
       style="fill:#000000;fill-opacity:1;fill-rule:nonzero;stroke:none;stroke-width:1px;stroke-linecap:butt;stroke-linejoin:miter;stroke-opacity:1"
       id="path2407"
       d="M 715.83351,484.45399 C 714.9031,471.2291 717.83544,458.22081 721.18741,445.52865 C 727.09146,425.261 737.04716,406.71478 748.09999,388.86401 C 762.96632,365.11834 782.92019,345.73437 804.47603,328.15324 C 827.41574,311.45001 852.00865,296.55784 878.18992,285.48631 C 892.25966,279.53651 895.2891,278.94543 909.79211,274.34711 C 934.89484,267.59736 961.51054,263.95604 987.22388,269.70495 C 991.97986,270.76828 996.57087,272.46789 1001.2444,273.84937 C 1025.4907,283.2887 1045.0307,300.53249 1059.6941,321.8471 C 1062.9155,326.52969 1065.6496,331.52947 1068.6273,336.37065 C 1083.3883,363.19129 1093.0813,392.64681 1097.3899,422.95883 C 1098.2718,429.16275 1098.7088,435.4218 1099.3683,441.65329 C 1101.2877,473.27443 1097.1212,504.98242 1086.523,534.87126 C 1084.3505,540.99812 1081.6908,546.94116 1079.2747,552.97611 C 1065.2711,583.96836 1045.7551,612.20023 1022.1695,636.67856 C 1017.2345,641.80037 1011.9729,646.59716 1006.8746,651.55646 C 975.0607,680.02921 938.7241,703.65725 899.63697,720.94667 C 892.2755,724.20288 884.67659,726.89341 877.1964,729.86677 C 848.58818,739.7602 818.34854,745.98929 787.97199,742.34706 C 769.39771,740.11995 766.35583,737.8764 749.12334,731.52743 C 725.97265,720.34792 706.81829,703.2337 694.29687,680.62901 C 686.18043,665.97656 685.89151,661.50292 681.32889,645.51418 C 675.26248,611.07693 681.37569,578.24343 696.91268,547.06606 C 700.31207,540.24467 704.42565,533.80318 708.18213,527.17173 C 723.50564,501.45588 743.92484,479.56583 763.75921,457.3732 L 764.54919,457.04058 C 760.07973,462.08507 755.33368,466.89742 751.14082,472.17405 C 739.36272,486.9965 730.20517,503.77765 722.14737,520.82917 C 719.86502,526.72333 717.38381,532.54429 715.30034,538.51166 C 704.7658,568.68412 699.51197,600.39942 705.96313,632.08006 C 710.49232,647.68247 710.76794,652.0085 718.81486,666.26845 C 731.23756,688.28274 750.01956,704.72358 772.64131,715.67627 C 788.97559,721.67733 792.66865,724.01219 810.12447,726.45168 C 838.2278,730.37918 866.46774,725.84942 893.26732,717.25933 C 917.67923,708.10816 910.58575,711.39338 934.07596,700.08537 C 936.40985,698.96185 938.76378,697.85786 940.97291,696.50542 C 960.44787,684.58278 979.09591,671.33342 996.06492,656.01157 C 1001.253,651.04266 1006.6102,646.24447 1011.6292,641.10482 C 1035.7136,616.4415 1055.5029,587.89438 1070.6415,556.95284 C 1073.3057,550.82805 1076.1913,544.79487 1078.634,538.57847 C 1090.4428,508.52747 1096.6708,476.62502 1094.3353,444.29022 C 1093.5802,438.1281 1093.1272,431.9214 1092.0702,425.80385 C 1086.8992,395.87786 1074.6147,367.89123 1057.5008,342.91532 C 1054.0264,338.41803 1050.7205,333.78544 1047.0777,329.42345 C 1030.4395,309.50013 1010.1018,293.25495 985.34935,284.74503 C 980.64089,283.48888 976.00074,281.94096 971.22397,280.97659 C 945.45564,275.77424 919.10205,279.37855 894.09775,286.51553 C 880.0674,291.11813 876.10241,292.06293 862.52462,297.94345 C 857.36242,300.17919 852.47268,303.02828 847.25408,305.12904 C 846.18248,305.56042 850.98364,302.41598 849.9825,302.99231 C 837.62262,310.10757 834.76859,312.49603 823.16375,320.64238 C 801.13647,338.30035 780.67148,357.77035 764.97084,381.44659 C 752.89538,399.66197 741.4081,418.46124 734.35954,439.28306 C 730.34648,451.78645 726.67978,464.66131 728.2052,477.93928 L 715.83351,484.45399 z" />
    <path
       style="fill:#000000;fill-opacity:1;fill-rule:nonzero;stroke:none;stroke-width:1px;stroke-linecap:butt;stroke-linejoin:miter;stroke-opacity:1"
       id="path2409"
       d="M 855.47548,486.77857 C 867.34362,483.99012 879.39795,482.19942 891.46868,480.5664 C 907.20577,478.58251 923.01084,477.2216 938.81867,475.95309 C 950.54751,475.00895 962.28634,474.20127 974.01905,473.30898 C 974.3596,473.38073 983.21444,472.0099 983.04746,473.01243 C 982.87035,474.07576 981.38521,474.38828 980.50779,475.01451 C 965.661,483.81045 963.45834,485.96568 972.14257,478.95067 L 972.91005,478.56899 C 983.06378,477.38322 978.50383,477.16132 963.48392,488.50525 C 958.18196,491.66901 954.57334,492.61105 948.3953,492.14707 C 936.95206,492.55132 925.52806,493.3217 914.11231,494.20479 C 898.39541,495.4447 882.69593,496.91447 867.04368,498.81277 C 855.66584,500.31385 844.29452,501.87276 832.9917,503.87458 L 855.47548,486.77857 z" />
    <path
       style="fill:#000000;fill-opacity:1;fill-rule:nonzero;stroke:none;stroke-width:1px;stroke-linecap:butt;stroke-linejoin:miter;stroke-opacity:1"
       id="path2411"
       d="M 1217.0513,486.52625 C 1229.7343,487.30622 1242.397,485.96391 1254.9897,484.60166 C 1270.0655,482.84053 1285.0393,480.33753 1300.0652,478.21491 C 1303.2386,478.0004 1320.5859,474.72073 1322.7921,476.83339 C 1323.2242,477.24716 1322.8408,478.02891 1322.8651,478.62667 C 1323.0347,478.85487 1323.2042,479.08308 1323.3738,479.31128 L 1322.4728,479.99152 C 1321.3808,480.45378 1320.2889,480.91604 1319.197,481.3783 C 1307.563,486.59962 1295.206,489.19129 1282.6547,491.28251 C 1267.4151,493.89368 1252.1554,496.41443 1236.7831,498.12883 C 1224.0221,499.4837 1211.1871,500.52387 1198.3436,499.9332 L 1217.0513,486.52625 z" />
    <path
       style="fill:#000000;fill-opacity:1;fill-rule:nonzero;stroke:none;stroke-width:1px;stroke-linecap:butt;stroke-linejoin:miter;stroke-opacity:1"
       id="path2413"
       d="M 1203.5108,544.67609 C 1215.1261,546.38315 1226.849,545.48268 1238.4151,543.92758 C 1253.2349,541.97038 1267.9696,539.40871 1282.6812,536.77125 C 1292.4902,535.00948 1302.353,533.53441 1312.3002,532.86454 C 1317.5197,532.31254 1322.7294,532.59965 1327.9425,532.95261 C 1329.4548,533.27668 1335.2986,532.88314 1334.9556,535.2159 C 1332.4188,538.61161 1328.8409,539.69593 1325.0443,541.15999 L 1325.7825,540.72445 C 1322.8137,544.15081 1320.1995,547.04111 1315.8314,548.63865 C 1312.554,549.6409 1309.2231,549.06374 1305.8521,548.78126 C 1300.6774,548.45022 1295.4941,548.73815 1290.3275,549.09681 C 1280.6586,549.98374 1271.027,551.19081 1261.4423,552.75388 C 1247.1724,555.02926 1232.8967,557.37204 1218.4961,558.66871 C 1207.9777,559.04681 1197.2939,559.2033 1187.1426,555.96441 L 1203.5108,544.67609 z" />
    <path
       style="fill:#000000;fill-opacity:1;fill-rule:nonzero;stroke:none;stroke-width:1px;stroke-linecap:butt;stroke-linejoin:miter;stroke-opacity:1"
       id="path2415"
       d="M 1510.9863,390.63556 C 1511.5075,383.96992 1513.2204,377.62284 1517.5666,372.46325 C 1530.7372,362.22703 1536.7318,357.29776 1547.0683,367.62699 C 1551.5905,372.98612 1554.1047,379.39562 1555.9563,386.05819 C 1555.8229,388.35222 1555.9568,389.40288 1555.1185,391.53475 C 1554.6905,392.62332 1553.4675,394.65084 1552.3973,395.29405 C 1527.4003,410.31771 1536.2936,408.84076 1523.9476,410.41153 C 1517.9979,410.19173 1514.7624,406.52281 1512.8407,401.26471 C 1511.2809,394.45218 1513.69,388.23371 1517.175,382.47876 C 1526.3687,371.55969 1541.3204,357.15668 1555.9505,360.99261 C 1562.798,363.73751 1566.4244,369.63496 1568.8192,376.27981 C 1570.5269,383.2344 1568.5854,389.65563 1563.7135,394.72637 C 1553.4978,402.11384 1556.4694,400.10497 1534.0672,411.52738 C 1533.5137,411.80955 1532.7035,411.6643 1532.221,411.273 C 1530.9212,410.21879 1532.0345,406.17775 1532.2382,405.04597 C 1533.6966,400.75978 1532.6635,403.01488 1535.6556,398.43559 L 1536.4092,398.02729 C 1540.8627,398.31792 1538.7125,398.24554 1542.8587,398.27231 C 1546.718,397.60759 1550.0355,396.51882 1553.6576,395.0136 C 1554.6486,394.60178 1557.5372,393.19656 1556.6206,393.75462 C 1537.4402,405.43248 1525.901,410.76276 1536.6835,405.69663 C 1542.172,401.79949 1545.0384,396.41732 1544.6427,389.56165 C 1542.9821,383.63068 1540.2683,378.24358 1533.7839,376.68632 C 1532.9049,376.71963 1532.0103,376.61738 1531.1471,376.78625 C 1530.2741,376.95703 1527.8816,378.16225 1528.6374,377.69313 C 1568.6663,352.84608 1548.9584,363.91397 1542.4005,371.38487 C 1539.1501,376.17513 1536.338,381.46889 1537.6659,387.43298 C 1539.3233,391.38414 1542.082,393.90435 1546.63,393.23629 C 1556.4608,390.22132 1548.6909,392.44708 1526.9308,405.4451 C 1526.1791,405.89415 1528.5115,404.67284 1529.2247,404.16482 C 1531.7169,402.3896 1533.2831,399.96207 1534.1689,397.06026 C 1534.5203,395.92832 1535.0563,394.83788 1535.2232,393.66444 C 1536.0116,388.11777 1533.2947,382.19805 1530.7811,377.48475 C 1529.2459,375.53438 1527.6095,373.28075 1525.0032,372.67459 C 1524.3266,372.51724 1522.3612,373.04892 1522.9197,372.63601 C 1529.6085,367.6913 1541.5605,361.80601 1533.4978,365.83483 C 1528.4469,370.38768 1526.1665,376.54291 1525.6333,383.27593 L 1510.9863,390.63556 z" />
    <path
       style="fill:#000000;fill-opacity:1;fill-rule:nonzero;stroke:none;stroke-width:1px;stroke-linecap:butt;stroke-linejoin:miter;stroke-opacity:1"
       id="path2417"
       d="M 1544.3055,607.23699 C 1537.6617,607.92127 1530.9571,607.46951 1525.8516,602.83314 C 1521.9455,598.25762 1522.8767,592.99749 1525.5515,588.10948 C 1527.222,585.72699 1529.2733,583.72138 1531.8183,582.28365 C 1545.7993,574.38571 1546.883,569.7112 1558.2652,571.46371 C 1564.977,573.32337 1568.6693,578.37066 1571.2019,584.50895 C 1573.2613,589.96513 1572.9512,595.45305 1570.1335,600.51693 C 1562.1126,609.06259 1547.6818,622.35022 1537.644,612.96788 C 1533.4452,607.15637 1535.4242,600.61735 1538.0741,594.61538 C 1544.8526,582.74085 1561.2037,571.96947 1573.6785,570.53603 C 1581.5323,570.91225 1585.9622,576.69989 1589.302,583.14639 C 1592.15,589.61418 1592.4864,596.10669 1589.4903,602.50047 C 1580.1365,613.35378 1565.4183,622.67406 1550.7956,621.09615 C 1544.4878,619.74716 1540.6088,615.52997 1538.6914,609.56611 C 1537.4312,603.61186 1539.4446,598.30267 1543.5661,594.03671 C 1556.0149,585.78211 1568.0022,572.3762 1577.7773,586.19583 C 1581.2418,593.78572 1581.7301,597.565 1576.5531,604.41055 C 1572.5634,608.31206 1566.8503,612.25769 1561.225,612.9708 C 1560.3162,613.08601 1561.5272,611.16377 1561.6783,610.26025 L 1562.398,609.79461 C 1563.7343,609.60194 1567.1003,608.05799 1566.4071,609.21661 C 1565.3013,611.06471 1561.3035,614.57012 1559.1975,612.59541 C 1556.0526,609.02266 1558.8547,603.04396 1555.7448,599.13855 C 1554.2003,596.76818 1552.4566,594.94739 1549.3529,595.55087 C 1548.7079,595.67628 1546.9339,596.54814 1547.4925,596.2022 C 1554.062,592.13353 1560.7788,588.30757 1567.4219,584.36026 C 1563.2834,587.24516 1561.3254,591.35982 1562.3264,596.44549 C 1564.4666,601.37018 1567.6964,604.4446 1573.2826,605.0019 C 1575.6853,605.07236 1576.3035,605.23235 1578.6768,604.73546 C 1579.5554,604.5515 1582.0174,603.49456 1581.2612,603.97843 C 1545.5536,626.82878 1558.7828,617.49612 1566.6386,612.52544 C 1571.2369,607.11498 1572.4718,600.93999 1569.9133,594.16409 C 1567.1566,588.15251 1563.0118,583.35969 1555.8197,584.04404 C 1546.7144,586.59625 1551.8275,585.44888 1569.107,575.118 C 1570.1172,574.51405 1567.0405,576.25732 1566.087,576.94734 C 1564.0061,578.45333 1562.5589,579.99696 1561.0118,582.03993 C 1560.276,583.01161 1559.6538,584.06432 1558.9748,585.07651 C 1556.7698,589.67031 1554.2989,595.66186 1558.0596,600.11901 C 1559.3528,600.90275 1559.6949,601.33468 1561.2846,601.38611 C 1561.948,601.40758 1563.8161,600.77744 1563.2607,601.14085 C 1530.7561,622.4091 1541.4165,614.21461 1548.6764,609.8074 C 1552.5861,605.5278 1554.1471,600.50001 1552.7765,594.74413 C 1550.883,589.07021 1547.9681,584.41324 1541.6402,583.29719 C 1540.6822,583.26269 1539.7209,583.10741 1538.7662,583.19368 C 1537.8207,583.27912 1535.1998,584.3412 1535.9854,583.8082 C 1540.82,580.52786 1546.0564,577.88211 1551.0542,574.85614 C 1554.1389,572.98846 1541.9231,579.55155 1544.7437,579.60002 C 1542.2189,583.42578 1540.8535,587.5127 1544.2364,591.32302 C 1549.0024,594.81976 1554.5765,595.64112 1560.4187,595.25669 L 1544.3055,607.23699 z" />
    <path
       style="fill:#000000;fill-opacity:1;fill-rule:nonzero;stroke:none;stroke-width:1px;stroke-linecap:butt;stroke-linejoin:miter;stroke-opacity:1"
       id="path2419"
       d="M 1644.4447,284.08165 C 1638.2578,285.10532 1632.1606,286.79224 1626.4756,289.47728 C 1624.8174,290.26046 1620.022,292.96336 1621.6166,292.05761 C 1625.1473,290.05214 1628.7288,288.13755 1632.2849,286.17753 C 1624.6761,291.29754 1619.4335,298.3239 1616.944,307.10245 C 1615.9413,312.69809 1616.5018,318.28645 1622.1849,320.68406 C 1624.983,321.1776 1627.5857,320.41146 1630.1161,319.22433 C 1631.168,318.73086 1634.1859,316.98045 1633.1715,317.54684 C 1618.5274,325.72301 1615.8965,328.01113 1623.1362,322.42591 C 1628.7195,317.57649 1633.5571,311.92735 1637.458,305.65179 C 1642.9483,296.31292 1644.0394,297.87194 1661.4047,293.01351 C 1661.9714,292.85497 1661.6727,295.33996 1661.408,298.42597 C 1659.7026,308.50248 1657.8218,318.54956 1656.1382,328.63145 C 1654.1826,340.72845 1651.9289,352.77321 1648.6735,364.59162 C 1646.6318,372.09737 1643.4285,379.23351 1639.4602,385.90769 C 1635.3352,392.92831 1634.9192,390.91604 1620.1284,395.01001 C 1618.7193,395.40004 1622.3119,393.0637 1623.3616,392.04591 C 1627.2204,388.30442 1627.5847,387.71443 1631.2616,383.53654 C 1637.1723,376.61109 1634.4813,380.16636 1639.3809,372.90615 L 1640.1631,372.55563 C 1637.9471,378.19291 1638.6354,375.48163 1637.8269,380.61575 C 1637.5893,382.54283 1637.2767,383.9308 1637.4898,385.8269 C 1637.5483,386.34782 1638.3266,387.09116 1637.8721,387.35229 C 1620.4187,397.37969 1613.9117,403.46737 1618.8995,395.01381 C 1622.9251,388.45063 1626.2527,381.51405 1628.5492,374.1461 C 1632.0545,362.43106 1634.3998,350.43376 1636.2728,338.35475 C 1637.8205,328.49381 1639.3783,318.63731 1640.7024,308.74372 C 1640.786,307.85488 1640.8735,306.96639 1640.9533,306.07719 C 1641.0077,305.46989 1640.5953,304.58904 1641.1049,304.25428 C 1675.3428,281.76435 1663.1945,289.37842 1657.4105,297.00178 C 1652.3451,303.33923 1647.4517,309.8749 1641.2334,315.16594 C 1632.3226,322.51048 1637.4728,318.55278 1618.1034,329.59293 C 1614.4227,331.69088 1610.4121,332.54832 1606.3942,330.99006 C 1600.8106,327.28588 1599.6591,321.28734 1600.6558,314.87664 C 1602.942,305.66075 1607.8228,298.11566 1615.7089,292.61238 C 1628.8133,284.92799 1641.0863,275.89375 1656.6675,275.05775 L 1644.4447,284.08165 z" />
    <path
       style="fill:#000000;fill-opacity:1;fill-rule:nonzero;stroke:none;stroke-width:1px;stroke-linecap:butt;stroke-linejoin:miter;stroke-opacity:1"
       id="path2421"
       d="M 1683.5126,577.9679 C 1678.8135,582.63836 1674.0238,588.19401 1673.1064,594.97515 C 1673.1749,596.09626 1673.3233,597.95683 1674.9908,597.54646 C 1676.1379,597.26417 1679.1387,595.28373 1678.106,595.85712 C 1672.5872,598.92115 1667.0965,602.03546 1661.5917,605.12463 C 1666.6432,601.53098 1670.5713,596.64953 1674.6058,592.00166 C 1681.217,584.3456 1697.4187,568.33689 1703.5694,579.02909 C 1705.4705,586.19993 1702.9437,593.72287 1701.2296,600.69278 C 1697.7052,613.74336 1692.0763,626.03895 1686.4505,638.27995 C 1681.1535,649.32564 1675.2711,660.07956 1669.2501,670.74401 C 1668.6503,671.20835 1665.523,678.33295 1665.3138,677.89509 C 1664.9734,677.18291 1665.2483,675.34298 1664.5263,675.6619 C 1656.3314,679.28165 1648.8358,684.31317 1640.9905,688.6388 C 1651.051,682.4455 1660.9852,676.02749 1670.958,669.68571 C 1679.9535,663.92582 1675.5858,666.77124 1684.0675,661.15908 L 1684.8643,660.84324 C 1680.3276,664.72442 1682.3809,662.77482 1678.6464,666.63037 C 1674.8797,670.58708 1671.6296,675.02647 1667.3751,678.5074 C 1658.6368,683.34989 1650.305,689.0123 1641.1603,693.03487 C 1640.2658,693.42835 1639.6366,691.76334 1639.1076,690.94167 C 1637.6076,688.61183 1643.3736,683.97524 1643.6765,682.1262 C 1650.0495,671.38471 1656.4237,660.63484 1661.9388,649.41629 C 1668.0199,637.28257 1673.7186,624.88438 1677.7326,611.89355 C 1679.6758,605.30722 1681.6266,598.44727 1681.4093,591.5181 C 1681.3738,591.26654 1681.3972,590.99931 1681.3028,590.76342 C 1681.2608,590.6582 1679.974,591.46748 1680.5637,591.11724 C 1715.1209,570.59305 1701.8627,577.1666 1695.4332,583.24101 C 1691.0153,588.0251 1686.7974,593.04929 1681.8024,597.25164 C 1681.3685,597.5025 1655.9783,619.3686 1654.6862,603.98074 C 1656.0498,596.85718 1660.3708,590.82833 1665.1191,585.48155 L 1683.5126,577.9679 z" />
    <path
       style="fill:#000000;fill-opacity:1;fill-rule:nonzero;stroke:none;stroke-width:1px;stroke-linecap:butt;stroke-linejoin:miter;stroke-opacity:1"
       id="path2423"
       d="M 1593.9186,659.55084 C 1601.4401,661.25882 1609.0741,661.05261 1616.6702,660.14752 C 1624.4337,658.78792 1632.0225,656.61227 1639.6715,654.73929 C 1644.2639,653.98198 1648.7644,652.09795 1653.4604,652.08242 C 1653.5833,652.19105 1653.8804,652.25255 1653.829,652.40832 C 1652.9131,655.18502 1637.8921,666.07459 1643.8493,658.43739 L 1644.6128,658.04794 C 1645.1108,658.221 1646.4821,658.19676 1646.1069,658.5671 C 1641.8519,662.76633 1635.8412,667.23073 1630.0588,669.71468 C 1625.3235,671.07804 1620.4197,671.72658 1615.6744,673.069 C 1608.1146,674.91398 1600.5714,677.06729 1592.7961,677.77635 C 1585.5564,678.01804 1578.3855,677.47554 1571.5333,674.91157 L 1593.9186,659.55084 z" />
    <path
       style="fill:#000000;fill-opacity:1;fill-rule:nonzero;stroke:none;stroke-width:1px;stroke-linecap:butt;stroke-linejoin:miter;stroke-opacity:1"
       id="path2425"
       d="M 1739.3257,386.36326 C 1747.8906,385.52018 1756.4494,385.98726 1764.912,387.43458 C 1772.3711,388.62929 1779.547,391.09681 1786.369,394.29383 C 1791.1814,396.58127 1794.5689,399.99895 1796.5058,404.91825 C 1797.6775,410.22379 1795.6349,414.88326 1792.9834,419.36093 C 1789.0433,425.20633 1783.5612,429.65447 1778.1104,434.01019 C 1772.8222,438.08753 1767.3979,442.02437 1762.9765,447.06377 C 1759.6153,450.8533 1758.233,455.46682 1757.562,460.37262 C 1756.945,464.75374 1757.8282,468.8571 1759.391,472.91915 C 1760.7343,476.07089 1763.8608,477.74271 1765.892,480.25197 C 1767.3011,483.88929 1765.2775,486.98614 1763.2996,489.92961 C 1760.9275,493.04364 1758.5339,496.11755 1756.6056,499.53197 C 1754.5977,503.33001 1753.8897,507.51935 1753.6094,511.75424 C 1753.5826,517.32389 1755.0377,522.68338 1756.5733,527.99048 C 1758.6352,534.56155 1760.9363,541.05218 1762.8723,547.66268 C 1764.744,554.5425 1765.2919,561.49101 1764.1762,568.51996 C 1762.9961,575.79456 1759.5796,582.22203 1755.1797,588.02655 C 1746.5818,598.00214 1722.464,615.32624 1714.1853,614.19187 C 1711.2395,612.72161 1710.6531,610.18459 1710.2228,607.15955 L 1710.9354,606.68317 C 1718.2543,605.9029 1725.1781,604.38285 1731.5579,600.46204 C 1746.5492,591.5777 1726.4117,603.54283 1715.6131,609.53118 C 1714.6429,610.06923 1717.4341,608.26285 1718.3273,607.60468 C 1721.4592,605.29668 1724.4305,602.79568 1727.1203,599.97652 C 1732.0727,594.37049 1736.4495,588.33687 1738.5019,581.02242 C 1739.9088,574.27875 1740.0061,567.58116 1738.4922,560.81586 C 1737.2066,553.9598 1735.3806,547.23553 1733.4995,540.52133 C 1732.0995,534.90964 1730.6391,529.22325 1730.4731,523.41673 C 1730.5723,518.89737 1731.1111,514.40912 1732.9144,510.21439 C 1734.6185,506.60135 1736.847,503.32816 1739.435,500.28374 C 1740.8065,498.46907 1743.2543,495.97001 1743.2256,493.62942 C 1741.4615,490.64633 1739.3671,487.86014 1738.5458,484.40521 C 1737.2428,479.935 1736.345,475.35766 1736.756,470.6739 C 1737.2601,465.41838 1738.5288,460.41726 1741.6906,456.07501 C 1746.07,450.83733 1751.3049,446.5777 1756.8046,442.54583 C 1762.2202,438.31222 1767.7391,434.06252 1771.9642,428.576 C 1774.7932,424.6706 1777.43,420.35897 1777.2152,415.35449 C 1776.7216,410.77521 1774.9816,406.97607 1771.2248,404.11843 C 1765.6014,399.99783 1759.2524,397.54299 1752.4022,396.21167 C 1744.1891,394.88062 1735.8544,394.04758 1727.5507,395.11966 L 1739.3257,386.36326 z" />
    <path
       style="fill:#000000;fill-opacity:1;fill-rule:nonzero;stroke:none;stroke-width:1px;stroke-linecap:butt;stroke-linejoin:miter;stroke-opacity:1"
       id="path2427"
       d="M 1833.1843,487.81569 C 1826.1353,487.73483 1802.6794,501.12649 1825.5922,488.54991 C 1819.7822,492.7424 1817.2269,498.90191 1815.4876,505.59063 C 1814.3192,511.09923 1814.1643,516.77533 1816.5749,521.94898 C 1818.3704,525.2211 1821.4706,526.25947 1825.0032,525.7343 C 1822.0515,528.6627 1834.5005,520.88143 1831.0075,522.78128 C 1808.7671,534.87788 1815.5288,532.56039 1821.0732,526.67614 C 1827.0879,519.6741 1831.522,511.53653 1835.6563,503.33575 C 1841.3951,492.03464 1846.2407,480.3071 1851.3102,468.69628 C 1854.6697,461.38521 1857.7252,453.93287 1861.0797,446.62115 C 1864.735,438.50778 1883.7582,426.90648 1884.5273,437.65527 C 1884.764,440.96322 1883.7422,444.7465 1883.1757,447.95505 C 1881.0622,459.30178 1879.185,470.68726 1877.3761,482.08629 C 1875.5888,492.90466 1873.8552,503.73738 1872.6876,514.64238 C 1872.1031,520.87953 1871.4867,527.14004 1871.6745,533.41106 C 1871.3754,536.11733 1873.0098,538.93723 1872.246,541.54795 C 1869.2073,545.9054 1862.5583,546.89031 1858.1362,548.25372 L 1858.8798,547.82751 C 1857.9166,548.56159 1850.1271,556.19841 1846.3395,554.75639 C 1845.2344,552.10348 1847.5179,548.55388 1847.1701,545.75748 C 1847.9171,539.18563 1848.4802,532.59071 1849.5575,526.05906 C 1851.1949,515.02634 1852.9839,504.02223 1854.9479,493.04273 C 1857.0104,481.64187 1858.8806,470.20744 1860.9698,458.81141 C 1863.6867,441.44468 1859.0477,449.58497 1883.9857,436.11436 C 1884.3636,435.91024 1883.3126,436.6479 1882.976,436.91467 C 1877.8969,443.83981 1874.8077,451.97693 1871.0574,459.64248 C 1865.948,471.22902 1861.0636,482.91632 1855.6016,494.34365 C 1851.036,502.97792 1846.4594,511.75021 1839.7106,518.92606 C 1831.8809,526.76556 1822.1023,534.30946 1811.0133,535.90876 C 1807.0818,535.34994 1804.2446,533.49004 1802.439,529.85564 C 1800.3756,524.09738 1800.2498,518.25166 1801.5664,512.26515 C 1803.2005,505.2653 1805.7939,498.71845 1811.5485,494.06152 C 1822.7227,487.37551 1832.3886,480.68045 1845.3052,478.67079 L 1833.1843,487.81569 z" />
  </g>
</svg>
