<?xml version="1.0" encoding="UTF-8" standalone="no"?>
<!-- Created with Inkscape (http://www.inkscape.org/) -->
<svg
   xmlns:dc="http://purl.org/dc/elements/1.1/"
   xmlns:cc="http://creativecommons.org/ns#"
   xmlns:rdf="http://www.w3.org/1999/02/22-rdf-syntax-ns#"
   xmlns:svg="http://www.w3.org/2000/svg"
   xmlns="http://www.w3.org/2000/svg"
   xmlns:sodipodi="http://sodipodi.sourceforge.net/DTD/sodipodi-0.dtd"
   xmlns:inkscape="http://www.inkscape.org/namespaces/inkscape"
   width="531.28595"
   height="319.97766"
   id="svg2"
   sodipodi:version="0.32"
   inkscape:version="0.46+devel"
   sodipodi:docname="c15d2.svg"
   inkscape:output_extension="org.inkscape.output.svg.inkscape"
   version="1.0">
  <defs
     id="defs4">
    <inkscape:perspective
       sodipodi:type="inkscape:persp3d"
       inkscape:vp_x="0 : 526.18109 : 1"
       inkscape:vp_y="0 : 1000 : 0"
       inkscape:vp_z="744.09448 : 526.18109 : 1"
       inkscape:persp3d-origin="372.04724 : 350.78739 : 1"
       id="perspective10" />
    <inkscape:perspective
       id="perspective3624"
       inkscape:persp3d-origin="0.5 : 0.33333333 : 1"
       inkscape:vp_z="1 : 0.5 : 1"
       inkscape:vp_y="0 : 1000 : 0"
       inkscape:vp_x="0 : 0.5 : 1"
       sodipodi:type="inkscape:persp3d" />
  </defs>
  <sodipodi:namedview
     id="base"
     pagecolor="#ffffff"
     bordercolor="#666666"
     borderopacity="1.0"
     inkscape:pageopacity="0.0"
     inkscape:pageshadow="2"
     inkscape:zoom="0.35"
     inkscape:cx="17.018026"
     inkscape:cy="150.4675"
     inkscape:document-units="px"
     inkscape:current-layer="layer1"
     showgrid="false"
     inkscape:window-width="1280"
     inkscape:window-height="708"
     inkscape:window-x="-5"
     inkscape:window-y="-3" />
  <metadata
     id="metadata7">
    <rdf:RDF>
      <cc:Work
         rdf:about="">
        <dc:format>image/svg+xml</dc:format>
        <dc:type
           rdf:resource="http://purl.org/dc/dcmitype/StillImage" />
        <dc:title></dc:title>
      </cc:Work>
    </rdf:RDF>
  </metadata>
  <g
     inkscape:label="Layer 1"
     inkscape:groupmode="layer"
     id="layer1"
     transform="translate(250.58945,-362.85203)">
    <rect
       style="fill:none;stroke:#000000;stroke-width:1.9640348;stroke-linecap:round;stroke-miterlimit:4;stroke-opacity:1;stroke-dasharray:none"
       id="rect2842"
       width="408.57187"
       height="312.68527"
       x="-249.60744"
       y="363.83405" />
    <rect
       style="fill:none;stroke:#000000;stroke-width:1.96399999;stroke-linecap:round;stroke-miterlimit:4;stroke-opacity:1;stroke-dasharray:15.71199989, 15.71199989;stroke-dashoffset:0"
       id="rect2842-0"
       width="408.57187"
       height="312.68527"
       x="-128.85736"
       y="369.16241" />
    <path
       style="fill:#000000;fill-opacity:1;stroke:#000000;stroke-width:1.96399999;stroke-linecap:round;stroke-miterlimit:4;stroke-opacity:1;stroke-dasharray:15.71199989, 15.71199989;stroke-dashoffset:0"
       id="path3674"
       d="m -210.64476,426.91993 c 0.17466,8.65551 -0.13685,17.31332 -0.58111,25.95739 -0.67803,11.92637 -1.88155,23.81437 -3.1551,35.68931 -0.97359,7.17505 -1.44683,14.45476 -3.35797,21.4621 -1.8538,5.28478 -4.14776,5.74843 -11.09747,8.65986 -1.09532,0.45886 -1.5493,-3.66889 -1.75178,-5.8594 -0.0602,-11.34387 1.84168,-22.54676 3.7729,-33.68372 2.20476,-11.2735 5.73044,-22.13269 12.00975,-31.78892 5.60989,-6.53529 14.93293,-14.90368 23.93351,-13.3399 6.47393,2.78548 7.00538,10.46597 7.42386,16.63398 0.16871,9.74408 -2.01074,19.25805 -4.35244,28.64744 -0.90033,4.44005 -3.17676,8.49708 -4.08271,12.9123 0.025,-0.20203 0.25965,-0.69205 0.0751,-0.60609 -2.16833,1.01001 -4.15615,2.37082 -6.26946,3.49142 -0.9688,0.51371 1.81139,-1.24022 2.76077,-1.789 8.43139,-4.87365 5.53669,-3.60415 10.215,-5.50975 4.20198,-1.68632 7.78306,-0.91612 10.56681,2.60613 3.36098,6.83359 1.18164,14.41731 -0.76757,21.32682 -3.49548,11.87321 -10.67113,21.25907 -19.35262,29.79732 -6.43778,5.47208 -3.13583,2.93976 -9.88494,7.62411 0,0 -0.5311,0.21086 -0.5311,0.21086 l 0,0 c 4.73049,-3.81782 2.52529,-1.73881 6.61544,-6.2372 6.30688,-8.32971 11.31209,-17.71179 14.94296,-27.50706 2.09456,-6.66926 4.51583,-14.17499 1.89887,-21.02686 -2.38078,-3.59033 -5.66292,-3.69111 -9.49467,-2.04079 -3.47744,1.61191 -2.9267,1.43067 3.19482,-2.1152 0.87767,-0.50839 -1.65647,1.17474 -2.5284,1.69289 -8.13202,4.8325 -5.1019,5.52085 -8.99597,4.30049 -1.35858,-2.58251 3.08589,-10.17147 3.15135,-13.0735 2.48451,-9.27979 4.79153,-18.72715 4.55593,-28.40738 -0.45378,-5.74572 -0.89659,-12.99876 -7.2471,-15.16551 -4.8002,-0.13367 -8.57446,3.08647 1.3478,-3.32376 0.89784,-0.58004 -1.87355,1.04041 -2.73845,1.66852 -2.60079,1.88878 -3.23234,2.86026 -5.42577,5.2912 -6.59536,9.49747 -10.50637,20.33634 -12.68879,31.67431 -2.17611,10.85438 -3.93598,21.94714 -3.1649,33.05188 0.11975,0.85571 0.19247,1.71934 0.35925,2.56714 0.0927,0.47149 0.21644,0.94331 0.4172,1.37988 0.0423,0.092 0.3606,0.0718 0.27581,0.12713 -13.33127,8.6963 -8.25348,6.20467 -6.00026,1.97211 2.73445,-7.04235 3.58916,-14.59853 4.87434,-22.00379 1.86394,-11.97398 3.15412,-24.03377 4.13435,-36.11086 0.49174,-8.76486 1.01206,-17.52615 1.31979,-26.29879 0,0 5.62296,-2.85711 5.62296,-2.85711 z" />
    <path
       style="fill:#000000;fill-opacity:1;stroke:#000000;stroke-width:1.96399999;stroke-linecap:round;stroke-miterlimit:4;stroke-opacity:1;stroke-dasharray:15.71199989, 15.71199989;stroke-dashoffset:0"
       id="path3676"
       d="m -157.9414,565.82455 c -0.49566,7.69895 -0.62498,15.41419 -1.03135,23.11737 -0.21802,11.05066 -3.4159,21.46272 -6.87295,31.83408 -2.44785,6.14896 -1.1977,3.22856 -3.71611,8.77582 0,0 -0.54532,0.26142 -0.54532,0.26142 l 0,0 c -0.092,-4.35957 -0.0639,-2.05027 -0.0689,-6.92806 0.008,-9.75703 0.44605,-19.43759 1.64758,-29.13244 0.33875,-7.70414 0.52658,-15.41355 0.96755,-23.11265 0,0 9.61946,-4.81554 9.61946,-4.81554 z" />
    <path
       style="fill:#000000;fill-opacity:1;stroke:#000000;stroke-width:1.96399999;stroke-linecap:round;stroke-miterlimit:4;stroke-opacity:1;stroke-dasharray:15.71199989, 15.71199989;stroke-dashoffset:0"
       id="path3678"
       d="m 199.6039,429.69208 c 1.8253,8.54344 2.01338,17.33643 2.35828,26.03581 0.31301,13.23511 0.24443,26.47478 0.0612,39.7113 -0.23476,10.05502 -0.60093,20.10752 -1.48101,30.12857 -0.0552,0.92523 -0.0631,1.85449 -0.16557,2.77569 -0.51331,4.61511 -7.62805,18.01655 -12.1067,7.76165 -1.17849,-7.52517 1.1414,-15.17594 3.11229,-22.37538 3.62816,-12.94737 8.9601,-25.30766 14.69602,-37.43725 4.63066,-9.41825 9.77895,-18.63316 17.43308,-25.9178 8.11343,-5.88554 15.48413,-12.91037 23.1451,-4.62553 4.03766,6.38817 4.5753,14.0427 4.57968,21.40554 -0.2337,6.30652 -1.38058,12.42774 -5.16271,17.56956 -3.56007,3.45715 -10.65907,9.26447 -14.66212,9.47097 -3.55847,0.18357 6.03501,-3.78998 9.05252,-5.68497 3.06919,1.58581 5.65516,3.8267 8.0296,6.30458 4.35924,4.96116 5.88117,11.28412 6.278,17.71223 0.18149,10.03616 -4.10089,18.8848 -9.36958,27.13758 -6.6875,8.6005 -15.88814,17.15842 -26.85923,19.54813 0,0 0.45216,-0.3494 0.45216,-0.3494 l 0,0 c 1.76958,-0.65338 3.73632,-0.9803 5.25564,-2.09832 4.77916,-3.51683 8.25224,-8.3089 11.7951,-12.99118 5.33197,-8.13736 9.79884,-16.81334 10.06246,-26.76461 -0.39168,-6.25745 -1.43545,-12.36681 -5.71541,-17.23933 -2.48167,-2.45496 -5.20868,-4.43082 -8.40819,-5.85504 2.63955,-2.1584 10.22683,-3.96558 7.91865,-6.4752 -3.6937,-4.01605 -14.22126,11.0312 -5.65606,2.33369 4.32831,-4.92745 6.20162,-10.9935 6.81819,-17.47539 0.44029,-7.15446 0.29242,-14.69363 -3.53304,-21.00754 -1.71254,-1.85924 -3.03778,-3.19936 -5.75904,-3.08317 -0.78006,0.0333 -2.88507,0.95054 -2.30235,0.43088 1.01574,-0.90583 11.13643,-6.99418 3.48538,-2.12661 -7.99389,7.03613 -13.34555,16.30685 -18.05063,25.76718 -5.75158,11.97098 -10.94158,24.24224 -14.40736,37.09383 -1.67894,6.87251 -3.82996,14.18617 -2.57017,21.29975 1.72962,3.96413 0.48297,0.48459 -8.91667,6.12508 -0.26089,0.15656 0.61387,-0.17529 0.82163,-0.39757 0.37946,-0.40598 0.65137,-0.91016 0.87582,-1.41852 0.66432,-1.50457 1.10113,-3.75595 1.46123,-5.28377 1.74247,-10.13131 2.47613,-20.39098 2.75505,-30.66309 0.45526,-13.30274 0.61486,-26.61146 0.42717,-39.92138 -0.019,-9.02415 -0.13805,-18.04443 -0.24236,-27.06768 0,0 4.49396,-2.35329 4.49396,-2.35329 z" />
    <path
       style="fill:#000000;fill-opacity:1;stroke:#000000;stroke-width:1.96399999;stroke-linecap:round;stroke-miterlimit:4;stroke-opacity:1;stroke-dasharray:15.71199989, 15.71199989;stroke-dashoffset:0"
       id="path3680"
       d="m 226.64346,615.42303 c 6.42303,-4.88193 13.31233,-9.71956 21.26845,-11.54285 3.61823,-0.33156 6.12087,1.34644 6.95006,4.84737 0.16259,5.39519 -2.83133,10.32474 -5.46174,14.84183 -2.3282,4.49419 -6.3605,8.26461 -7.53361,13.29125 0.14494,3.72017 5.28665,4.01424 8.10318,4.5484 5.72563,0.9471 11.52744,1.19959 17.29822,1.73925 3.2633,0.45764 9.03596,-1.07131 6.17851,4.0913 -0.37475,0.4289 -0.7495,0.85779 -1.12425,1.28669 0,0 -5.89399,3.33962 -5.89399,3.33962 l 0,0 c -0.45943,0.25028 -0.91886,0.50056 -1.37829,0.75084 -4.26644,1.73555 -8.25618,2.35986 -12.78239,1.17829 -5.42629,-0.70321 -10.86921,-1.45819 -16.17574,-2.81842 -3.77517,-1.20533 -8.17424,-2.64598 -8.53701,-7.21489 1.13562,-5.29439 4.78879,-9.36056 7.60153,-13.86803 2.7188,-4.5308 5.54259,-9.12462 6.67521,-14.35447 0.13483,-2.77086 -0.58686,-4.4967 -3.7168,-4.22369 -4.50798,0.85744 -8.45731,4.04548 4.5465,-3.80825 5.8187,-3.51424 -12.25688,6.58071 -5.57946,3.68537 0,0 -10.43838,4.23039 -10.43838,4.23039 z" />
  </g>
</svg>
