<?xml version="1.0" encoding="UTF-8" standalone="no"?>
<!-- Created with Inkscape (http://www.inkscape.org/) -->
<svg
   xmlns:dc="http://purl.org/dc/elements/1.1/"
   xmlns:cc="http://creativecommons.org/ns#"
   xmlns:rdf="http://www.w3.org/1999/02/22-rdf-syntax-ns#"
   xmlns:svg="http://www.w3.org/2000/svg"
   xmlns="http://www.w3.org/2000/svg"
   xmlns:sodipodi="http://sodipodi.sourceforge.net/DTD/sodipodi-0.dtd"
   xmlns:inkscape="http://www.inkscape.org/namespaces/inkscape"
   width="982.33813"
   height="826.37402"
   id="svg3839"
   sodipodi:version="0.32"
   inkscape:version="0.46+devel"
   version="1.0"
   sodipodi:docname="c15d4.svg"
   inkscape:output_extension="org.inkscape.output.svg.inkscape">
  <defs
     id="defs3841">
    <inkscape:perspective
       sodipodi:type="inkscape:persp3d"
       inkscape:vp_x="0 : 526.18109 : 1"
       inkscape:vp_y="0 : 1000 : 0"
       inkscape:vp_z="744.09448 : 526.18109 : 1"
       inkscape:persp3d-origin="372.04724 : 350.78739 : 1"
       id="perspective3847" />
  </defs>
  <sodipodi:namedview
     id="base"
     pagecolor="#ffffff"
     bordercolor="#666666"
     borderopacity="1.0"
     inkscape:pageopacity="0.0"
     inkscape:pageshadow="2"
     inkscape:zoom="0.55301835"
     inkscape:cx="491.16908"
     inkscape:cy="413.18701"
     inkscape:document-units="px"
     inkscape:current-layer="layer1"
     showgrid="false"
     inkscape:window-width="1280"
     inkscape:window-height="708"
     inkscape:window-x="-5"
     inkscape:window-y="-3" />
  <metadata
     id="metadata3844">
    <rdf:RDF>
      <cc:Work
         rdf:about="">
        <dc:format>image/svg+xml</dc:format>
        <dc:type
           rdf:resource="http://purl.org/dc/dcmitype/StillImage" />
        <dc:title></dc:title>
      </cc:Work>
    </rdf:RDF>
  </metadata>
  <g
     inkscape:label="Layer 1"
     inkscape:groupmode="layer"
     id="layer1"
     transform="translate(203.23223,-88.319618)">
    <path
       style="fill:#000000;fill-opacity:1;stroke:#000000;stroke-width:1.96399999;stroke-linecap:round;stroke-miterlimit:4;stroke-opacity:1;stroke-dasharray:15.71199989, 15.71199989;stroke-dashoffset:0"
       id="path3849"
       d="m -196.63199,579.07584 c 11.39612,2.09911 22.96149,3.03447 34.50314,3.90519 13.21491,0.92429 26.46794,1.03299 39.70912,0.97373 14.00035,-0.0608 27.96146,-1.0965 41.900788,-2.30632 12.753165,-1.26069 25.499014,-2.594 38.245312,-3.92233 9.497142,-0.97892 18.983043,-2.06486 28.488378,-2.96267 6.3072333,-0.66168 12.6197155,-1.26985 18.9268719,-1.93163 3.5715424,-0.26572 7.1153121,-0.73883 10.6376811,-1.3745 6.34393,-1.37139 16.129532,-6.54703 -14.91747655,8.37594 -0.34623468,0.16642 0.30666595,-0.70682 0.41253545,-1.0761 0.3309242,-1.15427 0.4171365,-2.23678 0.5731625,-3.43227 0.3731049,-7.89324 0.4359048,-15.79591 0.7499079,-23.69143 C 3.0756052,538.51531 3.5320858,525.39659 3.8409139,512.27302 4.1074525,496.73116 3.9694184,481.18737 3.3905314,465.65472 2.9698372,451.58123 2.0973929,437.52665 1.1295251,423.48168 0.42567789,413.30522 -0.6159825,403.15709 -1.2545828,392.97639 -1.8475977,382.9375 -2.339826,372.89331 -2.6858177,362.84289 c -0.455533,-10.63138 -0.9157075,-21.26258 -1.3310157,-31.8957 -0.3914551,-9.31254 -0.9209406,-18.61968 -1.7447679,-27.90434 -0.5676249,-5.07429 -1.3214091,-10.1236 -1.7942822,-15.2077 -1.8694072,-9.79495 12.7395918,-14.67937 21.5815395,-13.83726 6.116751,0.84517 12.185963,1.99374 18.305331,2.84508 10.862738,1.43154 21.792851,2.20718 32.731796,2.73575 13.529128,0.74153 27.032126,-0.12938 40.483797,-1.5243 13.67285,-1.62274 27.25623,-3.89646 40.85832,-6.01183 11.79851,-1.85039 23.63853,-3.41523 35.4529,-5.15675 11.345,-1.57064 22.61629,-3.65811 33.80617,-6.09137 9.27741,-1.776 18.29634,-4.59749 27.3194,-7.34007 5.84125,-1.86396 11.62322,-3.90204 17.45207,-5.80391 3.47098,-1.06629 6.92773,-2.89853 10.14469,-0.4846 3.59779,5.09268 3.46466,12.04994 4.01349,18.03186 1.04976,18.46499 0.80324,36.96518 0.19975,55.43965 -1.32669,29.5631 -4.09086,59.03999 -6.62085,88.51832 -2.86975,33.94926 -4.77885,67.96728 -5.7189,102.02249 -0.84979,27.9291 -0.73404,55.874 -1.04929,83.81136 -0.15161,23.18021 -0.89646,46.35014 -1.22004,69.52754 -0.51791,23.63574 -0.19313,47.27368 0.19332,70.90774 0.40819,20.36326 0.75387,40.72774 0.44477,61.09426 -0.28407,14.07915 -0.9381,28.14772 -1.78027,42.20345 -0.62995,7.94369 -0.80654,15.95683 -2.2418,23.81105 -3.28121,11.46646 -18.34211,17.6989 -28.54326,20.13342 -6.06981,0.97433 -12.26059,0.6704 -18.36915,0.30588 -14.78398,-1.09303 -29.57132,-1.73412 -44.39414,-1.48843 -20.90318,0.49353 -41.56427,3.87976 -62.06238,7.75322 -18.2479,3.72279 -36.362987,8.04327 -54.597685,11.82741 -10.503419,2.15619 -21.10865,3.78187 -31.784161,4.77299 -5.174656,0.12894 -10.4632543,1.07058 -15.604459,0.15812 -4.1066015,-1.44272 -4.768121,-5.71977 -5.4046116,-9.52499 -1.4057712,-9.33538 -1.834389,-18.78676 -2.2902843,-28.20601 -0.6501995,-15.88213 -0.5742214,-31.78214 -0.1687872,-47.66874 0.492737,-19.20092 2.0095845,-38.34956 3.4530487,-57.49555 1.4026135,-19.5861 4.286077,-39.01697 7.160865,-58.42853 2.0758335,-12.61248 4.3994761,-25.1823 6.4171554,-37.80434 1.128397,-6.95713 2.023578,-13.952 2.317242,-20.99675 0.34045,-3.68438 -0.637592,-7.24499 -1.499956,-10.78275 -0.932641,-2.19094 -0.496127,-5.87581 -3.0872283,-6.75952 -3.234281,0.29458 -6.3337884,1.54192 -9.4330177,2.47182 -6.1823012,2.09611 -12.461408,3.88472 -18.734358,5.69 -9.019654,2.50876 -18.210377,4.22343 -27.469925,5.54362 -11.599832,1.79404 -23.320545,2.59452 -35.02463,3.34613 -11.384112,0.80754 -22.796138,1.11931 -34.184508,1.84099 -8.43595,0.3569 -16.79782,1.49793 -25.12615,2.82867 -3.40469,0.16315 -7.4344,2.86255 -10.82451,1.6632 0.13443,-2.8975 0.10937,-5.30673 1.10785,-8.07125 0,0 0.47922,-0.31125 0.47922,-0.31125 l 0,0 c 5.36008,-1.0229 10.73582,-1.65634 15.53716,-4.49473 4.38241,-1.64593 8.92213,-2.81013 13.52308,-3.67213 8.4091,-1.33564 16.86992,-2.24562 25.374375,-2.71332 11.435897,-0.67566 22.873477,-1.30265 34.3113,-1.94828 11.633447,-0.78236 23.272889,-1.67021 34.805386,-3.44192 9.207351,-1.44437 18.3521347,-3.27405 27.31708683487,-5.8502 C 6.2912286,619.35896 12.570721,617.47281 18.812007,615.46105 c 3.428364,-0.96674 7.189832,-2.44826 10.450382,-0.29259 1.995943,2.34709 2.784226,5.31532 3.635387,8.23468 1.179762,3.74348 2.224234,7.5506 1.860405,11.52237 -0.619362,7.18301 -1.44961,14.34297 -2.697207,21.44826 -2.123006,12.70619 -4.838439,25.30159 -6.885421,38.02211 -3.279298,19.30717 -5.759978,38.73388 -7.265517,58.2647 -1.423902,19.0479 -2.669315,38.11151 -3.178798,57.20947 -0.188431,15.75591 -0.345086,31.52159 0.588555,47.26041 0.537729,9.29944 1.211956,18.59403 2.393606,27.83718 0.448084,2.62655 0.272425,6.51455 3.574837,6.96512 5.100656,0.25601 10.248693,-0.38666 15.341354,-0.60211 10.484678,-0.99367 20.902398,-2.58142 31.223607,-4.68219 18.063709,-3.67917 36.029363,-7.81076 54.110223,-11.40509 20.67282,-3.81641 41.49518,-7.13559 62.55861,-7.61908 14.98883,-0.11573 29.95122,0.3599 44.9138,1.26543 6.03451,0.12642 12.2384,0.53626 18.10714,-1.1648 8.69666,-3.53791 1.57756,-0.7388 -17.53343,10.59714 -0.4957,0.29403 1.05448,-0.47559 1.5399,-0.7863 1.69793,-1.08681 2.77275,-2.59877 3.46616,-4.47746 1.93015,-7.74408 2.10591,-15.82884 2.88986,-23.73818 0.98621,-14.09637 1.90292,-28.20074 2.26561,-42.32967 0.49235,-20.43109 0.61465,-40.86689 0.13925,-61.3009 -0.3598,-23.66868 -0.52758,-47.34388 -0.15155,-71.01359 0.50055,-23.31667 1.17516,-46.62671 2.01951,-69.93371 0.69273,-28.14705 1.34454,-56.29522 2.20688,-84.43779 1.46263,-34.11742 3.06343,-68.23004 5.97832,-102.26137 2.40783,-29.43583 5.25125,-58.8496 6.5399,-88.3637 0.59698,-18.30031 0.85579,-36.63809 -0.6906,-54.90477 -0.46677,-5.15941 -0.41532,-11.67479 -3.27741,-16.17995 -2.87088,-0.98552 -5.96421,1.0426 -8.72749,1.645 -5.76539,1.87415 -11.49713,3.85102 -17.29422,5.62736 -9.03088,2.71958 -18.08777,5.36465 -27.3598,7.15691 -11.18811,2.33474 -22.43306,4.40115 -33.76713,5.89802 -11.75628,1.69999 -23.52902,3.28629 -35.27668,5.04672 -13.599,2.10197 -27.18627,4.32698 -40.861776,5.88325 -13.544137,1.33597 -27.138257,2.10672 -40.749824,1.35071 -11.042753,-0.54549 -22.078231,-1.32155 -33.049392,-2.72541 -6.1744947,-0.83824 -12.3222464,-2.01011 -18.5459229,-2.39772 -0.8972778,0.0418 -3.4223925,0.9118 -2.6587998,0.43875 5.61242065,-3.47698 11.4068045,-6.65728 16.9815657,-10.19432 0.478477,-0.30359 -2.8993108,0.64349 -0.471573,1.55681 1.346052,4.96895 1.886907,10.07656 2.221763,15.20724 0.747906,9.34766 1.17594,18.71519 1.593691,28.08261 0.494573,10.64186 0.851973,21.28864 1.246262,31.93422 0.552253,9.95041 1.000301,19.90859 1.875008,29.83806 0.834912,10.19553 1.473763,20.40615 2.218501,30.60854 0.867706,14.15812 1.46597,28.33028 1.793006,42.51117 0.187504,15.65582 0.443445,31.31438 -0.02942,46.96905 -0.245181,13.12814 -0.621212,26.25253 -1.202129,39.37046 -0.233527,7.93635 -0.541018,15.87066 -0.706738,23.80792 -0.560636,9.01421 -6.913406,18.01061 -19.23701558,16.239 -3.10774992,-0.12506 -6.20688972,0.0716 -9.30055372,0.38904 -6.1053927,0.45708 -12.2040417,0.99658 -18.3076267,1.47785 -9.286474,0.84316 -18.576826,1.6439 -27.861556,2.50685 -12.465292,1.12086 -24.936456,2.17764 -37.404789,3.26466 -13.621721,0.92587 -27.262051,1.83851 -40.925501,1.44432 -12.54244,-0.34041 -25.09027,-0.95475 -37.53168,-2.66914 -10.70171,-1.45794 -21.37227,-3.21703 -31.84579,-5.89495 0,0 5.61824,-3.89181 5.61824,-3.89181 z" />
    <path
       style="fill:#000000;fill-opacity:1;stroke:#000000;stroke-width:1.96399999;stroke-linecap:round;stroke-miterlimit:4;stroke-opacity:1;stroke-dasharray:15.71199989, 15.71199989;stroke-dashoffset:0"
       id="path3851"
       d="m 768.19719,571.48661 c -9.98262,-0.15145 -19.95453,0.45431 -29.92494,0.84543 -11.55827,0.66519 -23.12913,0.5201 -34.69086,0.0952 -11.94974,-0.73419 -23.9058,-1.15683 -35.87738,-1.13825 -10.67848,0.12083 -21.19784,1.77659 -31.56942,4.19828 -6.48599,1.58806 -12.93336,3.417 -19.143,5.88574 -2.86139,1.30104 -4.61175,2.82821 -6.29184,-0.60818 -1.13544,-4.2019 -1.4369,-8.60044 -1.85169,-12.92124 -0.771,-9.20123 -1.54851,-18.40064 -2.15079,-27.61485 -1.15123,-15.28574 -2.00848,-30.59109 -2.79001,-45.89948 -0.82839,-17.88381 -1.37997,-35.77694 -1.91645,-53.67111 -0.381,-14.80397 -0.66592,-29.60925 -0.79277,-44.41755 -0.11786,-10.99819 -0.27815,-21.99546 -0.41821,-32.99333 -0.24499,-8.72076 -0.34289,-17.4456 -0.71574,-26.16222 -0.23274,-6.13661 -0.56334,-12.26915 -0.80446,-18.4058 -0.22071,-5.01045 -0.29782,-10.02454 -0.39922,-15.03847 -0.0997,-4.32862 -0.20056,-8.66272 -0.80786,-12.95417 -0.33593,-3.45576 -1.279,-6.78778 -2.13687,-10.13515 -1.32949,-2.72295 -3.76502,-3.76295 -6.52716,-4.56829 -3.27791,-0.76632 -6.62015,-1.12114 -9.97309,-1.32995 -5.31522,-0.33553 -10.63665,-0.009 -15.94437,0.29434 -7.70344,0.51506 -15.41613,0.84459 -23.13366,1.04399 -9.09502,0.17695 -18.19115,0.24808 -27.28732,0.32848 -10.54059,0.0964 -21.08171,0.0521 -31.62051,-0.15869 -12.14106,-0.26724 -24.26649,-0.97543 -36.38724,-1.69746 -13.41912,-0.91327 -26.86239,-1.37145 -40.30822,-1.62642 -12.01026,-0.24912 -24.01528,0.0394 -36.01761,0.44747 -7.45999,0.27439 -14.91886,0.55532 -22.38149,0.74868 -4.08114,0.0735 -8.16189,0.16402 -12.24365,0.17524 -2.97518,0.11306 -5.92295,-0.15761 -8.85783,-0.61345 -3.06084,-0.6233 -6.1221,-1.24723 -9.18713,-1.85558 -2.90693,-0.55116 -5.84107,-0.96353 -8.77518,-1.34452 -1.22085,0.24054 -2.44522,-0.74865 -3.62734,-0.71707 -0.24419,0.007 -0.89154,0.39733 -0.677,0.28052 19.00542,-10.3474 22.23722,-15.91105 17.75945,-8.80045 -1.21221,4.81698 -0.56111,9.9915 -0.18052,14.89369 0.60585,9.92539 0.91841,19.86137 1.09897,29.80249 0.39056,14.24115 0.0894,28.48435 -0.16816,42.72432 -0.50935,16.2524 -0.85929,32.51035 -0.86704,48.77091 0.02,16.19612 0.77841,32.37444 1.37054,48.5555 0.66803,14.64067 0.93399,29.29439 1.10154,43.94792 0.11299,12.57975 0.24141,25.16148 0.20991,37.74241 -0.0179,12.73537 -0.091,25.4706 -0.22022,38.20541 0.0397,14.55436 0.006,29.10802 -0.44548,43.65623 -0.33813,14.24615 -1.32491,28.46893 -2.12201,42.69511 -0.98955,15.25788 -1.58825,30.53692 -2.43528,45.80225 -0.63752,14.14502 -1.70929,28.26566 -3.11442,42.35396 -0.95758,10.24082 -2.33616,20.42912 -4.10633,30.55916 -1.0166,5.81703 -2.44759,11.53765 -3.94764,17.24342 -1.26346,3.93505 -2.05097,7.99352 -2.87696,12.03569 -0.73135,3.60468 -1.50802,7.20342 -2.59314,10.71969 -1.24721,3.2671 -2.38816,6.58576 -3.87959,9.75169 -0.72909,2.2376 -2.09982,4.18462 -3.04207,6.31394 1.20204,-0.65629 3.503,-0.62527 5.03983,-0.87301 4.65717,-1.15571 9.38166,-2.01166 14.11443,-2.78893 7.52256,-1.16172 15.10694,-1.85515 22.68952,-2.48183 10.46475,-0.7871 20.9079,-1.79086 31.33652,-2.9594 12.40835,-1.23728 24.71367,-3.3149 36.98055,-5.52072 11.77119,-2.14824 23.5871,-3.98538 35.4534,-5.51644 10.67988,-1.30031 21.41099,-2.08763 32.14685,-2.74055 8.85543,-0.53238 17.72986,-0.96165 26.60257,-0.7704 6.31885,0.19076 12.59279,0.99194 18.84503,1.87574 5.45019,0.82482 10.93805,1.38206 16.43258,1.8106 6.79008,0.44142 13.58463,0.44232 20.37922,0.15364 6.90392,-0.2861 13.71662,-1.47627 20.50103,-2.71056 4.27691,-0.82765 8.54461,-1.71197 12.785,-2.71119 7.50366,-1.85099 20.18783,-10.52637 -15.70497,9.5253 -0.36402,0.20336 0.73016,-0.41349 1.04706,-0.6845 0.8813,-0.75365 0.93361,-1.13285 1.4572,-2.17357 1.44534,-4.85262 1.62453,-9.99617 2.07882,-15.01462 0.8258,-9.40401 1.47533,-18.82255 2.09511,-28.24201 0.68948,-12.24306 1.59867,-24.47141 2.50181,-36.70007 0.66691,-8.32845 1.00213,-16.67427 1.43234,-25.01566 0.23037,-5.94845 -0.0746,-11.89705 -0.37102,-17.83692 -0.32422,-5.52729 -0.52418,-11.06043 -0.71907,-16.59341 -0.12577,-4.24343 -0.46185,-8.47354 -0.94747,-12.68964 -0.38364,-3.03737 -0.95669,-6.03189 -0.41761,-9.07354 6.1293,-11.8622 19.45874,-14.41519 30.80928,-13.87313 7.15732,0.41365 14.19952,1.88501 21.27846,2.94955 10.00507,1.4894 20.0927,1.97281 30.19118,1.64793 12.17008,-0.79766 24.28614,-2.22898 36.42423,-3.39418 8.298,-0.77934 16.61831,-1.10438 24.94883,-1.00886 5.83798,0.18957 11.67391,0.43241 17.5155,0.45762 5.01557,-0.011 10.01259,0.10879 14.99569,0.695 3.64607,0.47116 7.29431,1.21639 10.45542,3.1572 0.19816,0.28996 0.59878,0.51871 0.59448,0.86989 -0.0175,1.42779 -0.98207,1.57223 -1.97081,2.07821 -3.60337,1.844 -6.85182,4.68841 -10.81116,5.52998 -1.22697,0.26079 0.89291,-2.34448 1.33937,-3.51672 0,0 0.48527,-0.30173 0.48527,-0.30173 l 0,0 c 1.6659,-0.10162 5.73342,-1.80294 4.9977,-0.30486 -2.37335,4.83259 -9.02318,9.46561 -14.75777,9.13544 -3.53347,-0.81784 -7.00148,-1.96044 -10.64554,-2.21579 -4.92617,-0.46789 -9.86679,-0.55211 -14.81292,-0.55971 -5.78226,-0.19844 -11.5654,-0.37963 -17.34843,-0.55159 -8.17813,-0.0734 -16.34941,0.20467 -24.49509,0.97899 -12.0904,1.00813 -24.14944,2.41434 -36.2663,3.08099 -10.18585,0.15606 -20.38005,-0.31736 -30.44873,-1.97236 -7.00971,-1.0491 -14.00152,-2.42846 -21.09894,-2.70437 -2.11491,0.008 -4.36541,-0.11832 -6.43167,0.4591 -0.4926,0.13766 -1.8604,0.8388 -1.42338,0.57307 18.44079,-11.21294 26.29499,-13.73345 18.0741,-11.00378 -2.0383,1.7457 -0.19619,5.54525 -0.24992,7.90003 0.48905,4.28826 0.81369,8.59202 0.94274,12.90705 0.17234,5.52875 0.33198,11.05871 0.65383,16.58136 0.30693,6.00808 0.66861,12.02541 0.43022,18.04321 -0.23016,8.46971 -1.1696,16.90036 -1.88083,25.33885 -0.98805,12.23178 -2.09235,24.45605 -2.61902,36.71951 -0.5437,9.38565 -1.03362,18.77426 -1.7908,28.14641 -0.4027,5.18605 -0.75003,10.40039 -1.695,15.52147 -2.8325,10.67352 -15.79504,14.82715 -26.11496,17.04406 -4.22414,0.92163 -8.4636,1.77662 -12.72259,2.52203 -6.82234,1.15255 -13.67515,2.1998 -20.60448,2.40157 -6.84744,0.22356 -13.71139,0.24049 -20.54192,-0.37034 -5.49525,-0.47238 -10.96571,-1.12727 -16.4158,-1.9798 -6.16842,-0.84703 -12.36028,-1.59086 -18.59272,-1.72332 -8.73033,-0.13128 -17.4509,0.17582 -26.16776,0.67247 -10.62882,0.65751 -21.26056,1.3827 -31.83365,2.68251 -11.79921,1.44273 -23.51978,3.39075 -35.222,5.47236 -12.26954,2.07557 -24.55267,4.11142 -36.94418,5.32743 -10.45491,1.15769 -20.93001,2.07593 -31.41078,2.96481 -7.62934,0.78054 -15.27538,1.48923 -22.83688,2.80192 -4.78872,0.85852 -9.53224,1.92968 -14.31352,2.81642 -2.78989,0.26116 -5.70393,0.54733 -7.16823,-2.33964 -0.2282,-2.44999 1.37072,-4.41833 2.12308,-6.67325 0.99557,-3.19095 2.45366,-6.2215 3.43797,-9.41972 1.2612,-3.39257 1.99739,-6.94926 2.77044,-10.47877 0.82075,-4.06043 1.56077,-8.1427 2.72357,-12.12425 1.57086,-5.6877 3.00107,-11.41844 4.26455,-17.18194 1.91673,-10.11054 3.44228,-20.28428 4.44523,-30.52954 1.51833,-14.07701 2.66425,-28.19392 3.34988,-42.33712 0.69265,-15.26284 1.39394,-30.52681 2.32098,-45.77761 1.00981,-14.27108 1.917,-28.54706 2.56571,-42.83981 0.48316,-14.5777 0.78532,-29.15731 0.7563,-43.74427 -0.029,-12.73472 0.11776,-25.468 0.2184,-38.20193 0.042,-12.62135 0.1365,-25.24178 0.0847,-37.86293 -0.10323,-14.65279 -0.31436,-29.30629 -0.94663,-43.94734 -0.77703,-16.17538 -1.46196,-32.36215 -1.56519,-48.5578 -0.0137,-16.26565 0.25556,-32.52431 0.77692,-48.78249 0.40835,-14.22585 0.55733,-28.45803 0.31275,-42.68876 -0.24488,-9.84222 -0.53657,-19.69488 -1.45085,-29.50171 -0.32754,-5.20523 -1.12339,-10.45828 -0.47663,-15.6665 2.37087,-10.49219 16.15016,-15.46167 25.9423,-13.66951 2.94044,0.413 5.87175,0.87347 8.76779,1.53649 3.00315,0.61991 5.97665,1.42762 9.02529,1.78838 2.87166,0.33954 5.75386,0.4246 8.64507,0.37206 3.99983,-0.002 7.9995,0.0451 11.99882,-0.0587 7.40669,-0.15324 14.80796,-0.481 22.21453,-0.64701 11.9953,-0.3238 23.99534,-0.50345 35.99479,-0.28908 13.53721,0.28625 27.069,0.72784 40.58654,1.53384 12.10187,0.69722 24.20271,1.47338 36.32802,1.62483 10.58537,0.16273 21.16921,0.11886 31.75483,-0.0182 9.14211,-0.10604 18.28342,-0.30822 27.42444,-0.48178 7.73809,-0.24527 15.46902,-0.63877 23.19322,-1.16655 5.41454,-0.29751 10.84516,-0.57139 16.26207,-0.14657 3.46743,0.29813 6.98086,0.67138 10.27345,1.86304 3.28212,1.29463 6.2614,3.0952 7.27799,6.70655 1.135,3.39985 1.80047,6.95141 2.29476,10.49774 0.41099,4.4002 0.72957,8.80504 0.76225,13.22731 0.0967,5.02591 0.15858,10.0521 0.24341,15.07763 0.19785,6.18067 0.50431,12.35712 0.58987,18.54109 0.0801,8.82324 0.23001,17.64604 0.18543,26.47022 0.10407,11.07932 0.003,22.16027 -0.0347,33.23969 0.0161,14.87652 0.005,29.75426 0.29908,44.62852 0.264,17.94275 0.74013,35.88648 1.52748,53.814 0.65815,15.34497 1.35993,30.69057 2.44504,46.01234 0.78906,9.11667 1.48326,18.24651 2.57131,27.33361 0.46174,4.17076 0.85364,8.3502 1.45923,12.50373 0.11044,0.70292 1.67933,-0.7044 3.097,-0.86726 6.03691,-1.87478 12.1342,-3.56338 18.30021,-4.96127 10.30148,-2.235 20.75267,-3.62924 31.31877,-3.52831 11.77513,0.17912 23.52802,0.89437 35.27852,1.65097 11.03588,0.62605 22.08088,1.007 33.13679,0.90294 9.49427,-0.0497 18.99427,-0.14761 28.48146,0.2965 0,0 -9.92673,7.1584 -9.92673,7.1584 z" />
    <path
       style="fill:#000000;fill-opacity:1;stroke:#000000;stroke-width:1.96399999;stroke-linecap:round;stroke-miterlimit:4;stroke-opacity:1;stroke-dasharray:15.71199989, 15.71199989;stroke-dashoffset:0"
       id="path3853"
       d="m 160.43681,106.74926 c -9.40831,2.2556 -19.10794,5.3392 -27.23478,10.7737 -1.17054,0.78275 2.53153,-1.23405 3.79729,-1.85107 -9.84324,6.58095 -17.6877,15.10862 -23.11974,25.58333 -3.49438,7.63497 -3.59436,15.21501 0.5067,22.51512 4.54709,6.61925 12.00225,8.51098 19.50021,9.70851 8.92639,1.04566 17.80653,-0.49772 26.50248,-2.39595 6.82506,-1.60246 13.50096,-3.73435 20.16543,-5.89197 3.0591,-1.42811 7.0796,-1.47155 9.79092,-3.58091 -25.23092,13.52829 -10.15744,7.84096 -7.45996,2.99311 0.178,-0.38481 0.35601,-0.76962 0.53401,-1.15443 0,0 1.15929,-0.7118 1.15929,-0.7118 l 0,0 c 0.52511,-0.0437 1.05022,-0.0874 1.57533,-0.13113 10.34911,-1.07425 5.98126,2.04362 -8.0112,8.83663 -3.0134,1.12653 -6.26279,1.61369 -9.26983,2.78977 -6.58821,1.9911 -13.14692,4.11078 -19.89597,5.51058 -8.63209,1.76249 -17.44057,3.07652 -26.22182,1.5094 -7.66987,-1.68512 -14.63568,-4.41567 -18.76355,-11.56328 -3.71531,-8.35707 -3.68166,-15.44876 -0.0324,-23.94654 5.16912,-10.67613 13.01293,-19.32876 22.7899,-26.08156 13.59105,-8.17823 26.95096,-16.79594 42.8029,-19.770556 0,0 -9.11524,6.859046 -9.11524,6.859046 z" />
    <path
       style="fill:#000000;fill-opacity:1;stroke:#000000;stroke-width:1.96399999;stroke-linecap:round;stroke-miterlimit:4;stroke-opacity:1;stroke-dasharray:15.71199989, 15.71199989;stroke-dashoffset:0"
       id="path3855"
       d="m 214.37986,155.16111 c 0.75668,6.95202 2.13801,13.81372 3.37824,20.69019 0.96943,4.84879 1.93124,9.71125 2.58904,14.6138 0.48062,3.66239 1.07675,7.19413 -0.19942,10.72809 -1.75644,2.80953 -2.25981,2.53435 -5.83835,2.90812 0,0 0.50785,-0.26194 0.50785,-0.26194 l 0,0 c -2.63384,2.51168 -2.8603,4.1635 -5.87373,3.14099 -2.13021,-2.76739 -1.00069,-6.53059 -1.45353,-9.79519 -0.37939,-5.07822 -0.84368,-10.1419 -1.34521,-15.20952 -0.74942,-7.20211 -1.25915,-14.4227 -1.77276,-21.64478 0,0 10.00787,-5.16976 10.00787,-5.16976 z" />
    <path
       style="fill:#000000;fill-opacity:1;stroke:#000000;stroke-width:1.96399999;stroke-linecap:round;stroke-miterlimit:4;stroke-opacity:1;stroke-dasharray:15.71199989, 15.71199989;stroke-dashoffset:0"
       id="path3857"
       d="m 484.49833,96.366705 c -5.21821,2.374497 -10.36711,4.920925 -15.37744,7.710205 -1.43831,0.80071 -5.76038,3.18273 -4.27686,2.46925 2.03586,-0.97913 3.95823,-2.17856 5.93734,-3.26784 -8.08475,4.94208 -14.99669,11.30744 -21.05141,18.54114 -5.02813,6.2164 -7.86567,13.53016 -9.47627,21.27183 -0.99248,5.73079 0.26852,10.94954 3.5605,15.65742 3.45689,4.12982 8.15467,6.61222 13.01734,8.70132 5.91982,2.56268 12.27721,3.59215 18.63834,4.32023 6.3555,0.60023 12.7472,0.66494 19.12327,0.46384 3.18087,-0.77062 7.4412,0.22264 10.42666,-1.21043 -22.24753,12.71635 -8.23843,7.21752 -5.66892,-1.45247 0,0 0.50598,-0.26555 0.50598,-0.26555 l 0,0 c 6.30047,7.61405 15.63121,-2.25908 -8.31963,12.25966 -3.62808,1.2033 -7.45213,1.01192 -11.24077,1.07795 -6.19773,-0.0753 -12.39859,-0.41189 -18.55226,-1.17475 -6.30512,-0.95317 -12.63757,-2.1792 -18.35027,-5.15023 -4.75599,-2.5602 -9.19378,-5.60056 -11.89435,-10.43534 -2.79281,-5.47632 -3.78865,-11.1734 -2.62877,-17.29394 1.78828,-7.97687 4.62826,-15.55572 9.7574,-22.04556 6.00324,-7.39657 12.96889,-13.87093 21.05672,-18.96824 11.02001,-6.49587 21.93691,-13.212298 33.71919,-18.273582 0,0 -8.90579,7.065087 -8.90579,7.065087 z" />
    <path
       style="fill:#000000;fill-opacity:1;stroke:#000000;stroke-width:1.96399999;stroke-linecap:round;stroke-miterlimit:4;stroke-opacity:1;stroke-dasharray:15.71199989, 15.71199989;stroke-dashoffset:0"
       id="path3859"
       d="m 536.30699,153.5712 c 7.54373,-1.62826 15.13371,-2.96684 22.83014,-3.56457 5.60445,-0.0997 10.71831,1.39195 14.78704,5.28399 3.45003,4.24749 3.97818,9.21839 3.3119,14.46111 -1.22468,5.81659 -4.86207,10.26501 -9.08213,14.2264 -0.96725,0.5851 -6.76653,5.78198 -7.14309,4.92579 2.61355,-1.28828 7.18293,-0.83045 10.24239,-1.07226 6.23289,-0.50241 12.48004,-0.95488 18.73168,-0.64587 5.04454,0.20035 9.99426,1.19928 14.81358,2.65179 9.82142,3.00492 -6.08372,8.47559 -9.09404,9.30116 -1.0969,0.30082 1.06062,-2.0124 1.59093,-3.01861 0,0 0.4868,-0.29925 0.4868,-0.29925 l 0,0 c 1.38677,-0.17357 5.00412,-1.63479 4.16029,-0.52071 -3.98613,5.26279 -9.71348,10.46832 -15.78087,7.09756 -4.20263,-1.90963 -8.83789,-2.48308 -13.40985,-2.81187 -6.06123,-0.25638 -12.11379,0.15262 -18.16382,0.52816 -3.69422,0.21142 -8.52911,1.38369 -11.54518,-1.23847 -1.47501,-3.78687 4.26478,-5.33818 6.56509,-7.35166 4.47851,-3.71166 8.59591,-7.8063 10.51567,-13.45116 1.16798,-4.59909 1.40745,-9.32745 -1.50853,-13.36924 -3.66327,-3.61768 -8.25791,-4.72437 -13.36254,-4.44957 -7.49661,0.53987 -14.92286,1.77758 -22.25073,3.44214 0,0 13.30527,-10.12486 13.30527,-10.12486 z" />
    <path
       style="fill:#000000;fill-opacity:1;stroke:#000000;stroke-width:1.96399999;stroke-linecap:round;stroke-miterlimit:4;stroke-opacity:1;stroke-dasharray:15.71199989, 15.71199989;stroke-dashoffset:0"
       id="path3863"
       d="m -31.45138,741.99793 c 4.455706,7.21768 8.851927,14.46782 13.066624,21.8295 3.87301,6.55264 7.569534,13.21032 11.1723883,19.91507 2.903369,5.26607 5.5159628,10.68214 8.2603262,16.03028 2.190499,4.17965 4.7710552,8.10914 7.497459,11.95159 2.6801495,3.59489 5.9466585,6.69525 9.2622745,9.6935 3.082822,2.66422 5.894262,5.64902 9.056814,8.21201 1.474462,1.2034 3.533101,2.84776 5.079829,1.10536 -25.6175806,15.61819 -16.306389,10.81384 -10.342665,1.87554 3.972967,-6.11366 7.552236,-12.46793 11.081873,-18.84375 4.971894,-8.89634 9.588645,-17.98454 14.251562,-27.04481 3.791833,-7.52509 7.748464,-14.96083 11.784028,-22.35696 2.137322,-3.47759 3.626905,-7.29214 5.741522,-10.77777 1.873984,-3.00646 5.29623,-4.59174 8.162577,-6.52889 0.706864,-0.45032 1.413727,-0.90063 2.12059,-1.35095 0,0 0.502382,-0.27229 0.502382,-0.27229 l 0,0 c 0.760939,-0.24238 1.521878,-0.48477 2.282817,-0.72715 1.433445,-0.32661 6.046088,-2.23187 5.513311,0.39199 -1.158242,4.08067 -4.041597,7.35281 -5.992862,11.06196 -4.151781,7.4311 -8.341179,14.84282 -12.149865,22.45901 -4.654481,9.01423 -9.265186,18.05114 -14.038533,27.00343 -3.452027,6.37367 -6.948651,12.72686 -10.789239,18.8774 -6.455147,10.23518 -9.551603,12.12468 -23.940797,18.38402 -2.052346,-0.69361 -3.28624,-2.24197 -4.681287,-3.83546 -2.4048768,-3.16414 -5.3197378,-5.9099 -8.1574232,-8.684 -3.23607449,-3.21413 -6.5555769,-6.37695 -9.1735705,-10.13918 -2.7493135,-3.93436 -5.0746913,-8.15009 -6.9842053,-12.55562 -2.50666,-5.48985 -4.867437,-11.0419 -7.29507,-16.5667 -3.126649,-6.95084 -6.297074,-13.88019 -9.691543,-20.7056 -3.784123,-7.57141 -7.620637,-15.12503 -11.903005,-22.42975 0,0 10.303688,-5.97178 10.303688,-5.97178 z" />
    <path
       style="fill:#000000;fill-opacity:1;stroke:#000000;stroke-width:1.96399999;stroke-linecap:round;stroke-miterlimit:4;stroke-opacity:1;stroke-dasharray:15.71199989, 15.71199989;stroke-dashoffset:0"
       id="path3865"
       d="m -109.46714,755.00944 c 0.53181,9.37363 0.90252,18.75611 1.23018,28.13894 0.34634,10.4469 0.44367,20.89695 0.18796,31.34658 -0.20587,7.44834 -0.19035,14.93205 -1.89951,22.21292 0.80595,2.55461 -9.47354,10.52878 -6.29452,3.96094 0,0 0.51173,-0.25429 0.51173,-0.25429 l 0,0 c 1.93821,3.55413 -5.73226,6.24842 -5.7753,2.03751 -0.41224,-7.22251 0.84833,-14.40423 0.95171,-21.62784 0.3155,-10.5183 0.41717,-21.03918 0.36769,-31.56247 0.0212,-9.6041 0.0416,-19.20791 0.11994,-28.81177 0,0 10.60012,-5.44052 10.60012,-5.44052 z" />
    <path
       style="fill:#000000;fill-opacity:1;stroke:#000000;stroke-width:1.96399999;stroke-linecap:round;stroke-miterlimit:4;stroke-opacity:1;stroke-dasharray:15.71199989, 15.71199989;stroke-dashoffset:0"
       id="path3867"
       d="m -125.32252,751.42248 c 8.25142,0.46461 16.51054,0.11065 24.74884,-0.40523 6.282762,-0.51256 12.552601,-1.16282 18.840624,-1.60982 3.352405,-0.26653 7.12524,-0.13317 8.506764,3.39473 0.08984,3.03685 -1.529775,5.80876 -2.445036,8.65058 0,0 -0.506973,0.26364 -0.506973,0.26364 l 0,0 c -1.653383,-2.1309 -3.762048,-2.62902 -6.367251,-2.99465 -3.750572,-0.54823 -7.494622,-0.68867 -11.280465,-0.39903 -6.144019,0.41951 -12.275903,1.03711 -18.431183,1.27224 -7.80901,0.28611 -15.65373,0.26013 -23.41181,-0.79812 0,0 10.34649,-7.37434 10.34649,-7.37434 z" />
    <path
       style="fill:#000000;fill-opacity:1;stroke:#000000;stroke-width:1.96399999;stroke-linecap:round;stroke-miterlimit:4;stroke-opacity:1;stroke-dasharray:15.71199989, 15.71199989;stroke-dashoffset:0"
       id="path3869"
       d="m -132.94717,845.04271 c 8.13035,1.73866 16.41456,1.81738 24.67481,1.38671 6.38584,-0.60349 12.701931,-1.71299 19.017688,-2.8024 2.04066,-0.25295 7.918269,-1.89617 7.796366,1.62837 -0.568236,2.01487 -1.905925,3.23852 -3.548149,4.41394 0,0 -0.515857,0.24581 -0.515857,0.24581 l 0,0 c -1.863936,0.71905 -3.694565,1.50588 -5.651428,1.95757 -3.816516,1.11868 -7.792672,1.37167 -11.71072,1.98876 -6.15116,0.88852 -12.29765,1.93372 -18.51927,2.18146 -8.08718,0.16324 -16.15664,-0.25953 -24.0147,-2.3658 0,0 12.47126,-8.63442 12.47126,-8.63442 z" />
    <path
       style="fill:#000000;fill-opacity:1;stroke:#000000;stroke-width:1.96399999;stroke-linecap:round;stroke-miterlimit:4;stroke-opacity:1;stroke-dasharray:15.71199989, 15.71199989;stroke-dashoffset:0"
       id="path3871"
       d="m -50.381396,872.17054 c 1.282978,7.46813 2.182941,14.97962 2.767262,22.53236 0.495722,4.79557 0.988174,9.53598 -1.740833,13.70417 -1.294981,1.7823 -2.979972,3.11342 -4.773591,4.34811 0,0 -0.50961,0.25851 -0.50961,0.25851 l 0,0 c -1.579622,0.51762 -3.094445,0.95189 -4.763141,0.52445 -3.770277,-1.80183 -2.126645,-8.00993 -2.625262,-11.36386 -0.477214,-7.54743 -1.125122,-15.09827 -2.353083,-22.56469 0,0 13.998258,-7.43905 13.998258,-7.43905 z" />
  </g>
</svg>
