<?xml version="1.0" encoding="UTF-8" standalone="no"?>
<!-- Created with Inkscape (http://www.inkscape.org/) -->
<svg
   xmlns:dc="http://purl.org/dc/elements/1.1/"
   xmlns:cc="http://creativecommons.org/ns#"
   xmlns:rdf="http://www.w3.org/1999/02/22-rdf-syntax-ns#"
   xmlns:svg="http://www.w3.org/2000/svg"
   xmlns="http://www.w3.org/2000/svg"
   xmlns:sodipodi="http://sodipodi.sourceforge.net/DTD/sodipodi-0.dtd"
   xmlns:inkscape="http://www.inkscape.org/namespaces/inkscape"
   width="1372.6665"
   height="1082.3589"
   id="svg2"
   sodipodi:version="0.32"
   inkscape:version="0.46+devel"
   sodipodi:docname="c15d5.svg"
   inkscape:output_extension="org.inkscape.output.svg.inkscape"
   version="1.0">
  <defs
     id="defs4">
    <inkscape:perspective
       sodipodi:type="inkscape:persp3d"
       inkscape:vp_x="0 : 526.18109 : 1"
       inkscape:vp_y="0 : 1000 : 0"
       inkscape:vp_z="744.09448 : 526.18109 : 1"
       inkscape:persp3d-origin="372.04724 : 350.78739 : 1"
       id="perspective10" />
  </defs>
  <sodipodi:namedview
     id="base"
     pagecolor="#ffffff"
     bordercolor="#666666"
     borderopacity="1.0"
     inkscape:pageopacity="0.0"
     inkscape:pageshadow="2"
     inkscape:zoom="0.54545115"
     inkscape:cx="899.93763"
     inkscape:cy="396.27653"
     inkscape:document-units="px"
     inkscape:current-layer="layer1"
     showgrid="false"
     inkscape:window-width="1280"
     inkscape:window-height="708"
     inkscape:window-x="-5"
     inkscape:window-y="-3" />
  <metadata
     id="metadata7">
    <rdf:RDF>
      <cc:Work
         rdf:about="">
        <dc:format>image/svg+xml</dc:format>
        <dc:type
           rdf:resource="http://purl.org/dc/dcmitype/StillImage" />
        <dc:title></dc:title>
      </cc:Work>
    </rdf:RDF>
  </metadata>
  <g
     inkscape:label="Layer 1"
     inkscape:groupmode="layer"
     id="layer1"
     transform="translate(318.63019,-59.696258)">
    <path
       style="fill:#000000;fill-opacity:1;stroke:#000000;stroke-width:5;stroke-linecap:round;stroke-miterlimit:4;stroke-opacity:1;stroke-dasharray:none"
       id="path2842"
       d="m 473.92317,537.09412 c 5.63752,10.24215 7.46374,21.46393 7.46295,33.00071 -1.10222,17.34666 -10.42466,31.19594 -21.68571,43.72704 -13.92345,13.12579 -30.69931,23.5357 -48.53455,30.50056 -9.37322,3.66035 -12.58616,4.04707 -22.40612,6.36083 -20.55522,3.61675 -41.61305,2.47177 -61.72806,-3.07433 -4.14346,-1.14243 -8.18285,-2.63334 -12.27428,-3.95002 -19.46999,-7.56085 -37.68735,-19.14172 -49.5837,-36.73154 -2.30194,-3.40362 -4.04169,-7.15534 -6.06254,-10.73301 -9.48002,-20.80762 -10.31993,-43.5317 -4.52724,-65.52179 1.29275,-4.9075 3.15762,-9.64615 4.73642,-14.46923 10.49168,-25.97344 27.24335,-48.83639 48.22072,-67.3563 4.30467,-3.80039 8.93982,-7.20918 13.40973,-10.81377 22.62712,-15.56041 46.77213,-29.95384 73.99288,-35.42549 13.27388,-2.66819 16.63002,-2.1358 29.99991,-2.38026 23.40811,1.38903 45.98645,8.76989 64.72342,23.1125 3.47219,2.65786 6.58886,5.7505 9.88328,8.62576 14.37443,14.42364 24.85532,32.22968 29.76001,52.05257 0.88353,3.57091 1.39175,7.22434 2.08763,10.8365 2.14408,17.57836 -0.0693,35.3232 -6.82793,51.72778 -1.34671,3.26873 -3.02531,6.39064 -4.53797,9.58596 -9.47237,16.86101 -23.63341,30.74712 -40.63533,40.01822 -4.77343,2.60294 -9.75626,4.80202 -14.63439,7.20303 -2.67652,0.55436 -5.35305,1.10871 -8.02958,1.66307 0,0 0.45217,-0.34939 0.45217,-0.34939 l 0,0 c 3.72886,-1.39606 7.45773,-2.79213 11.1866,-4.18819 15.59391,-6.18996 24.49152,-22.23306 32.82786,-35.78573 9.53936,-19.77083 14.99915,-38.38322 12.77889,-60.62065 -0.55056,-3.60999 -0.89245,-7.25804 -1.65169,-10.82997 -4.199,-19.75477 -14.08525,-37.33567 -28.15636,-51.7419 -3.24365,-2.81877 -6.32089,-5.84131 -9.73094,-8.45632 -18.44528,-14.14487 -40.67666,-21.32248 -63.75638,-22.44198 -13.24338,0.36844 -16.52739,-0.13026 -29.65662,2.64812 -19.60572,4.14891 -10.80417,3.59577 -29.93579,10.05228 -0.31452,0.10614 0.47684,-1.14532 0.19049,-0.97743 -4.8776,2.85995 -9.49391,6.14384 -14.24087,9.21577 -4.49211,3.55718 -9.15259,6.91151 -13.47633,10.67154 -20.92655,18.19822 -37.65497,40.72976 -48.19983,66.40892 -1.5479,4.73066 -3.36462,9.38167 -4.6437,14.19198 -5.72843,21.54322 -5.0607,43.78039 4.27438,64.18464 2.00584,3.47767 3.76522,7.10965 6.01751,10.43301 11.72251,17.29716 29.59015,28.51403 48.74706,35.98867 4.03202,1.29237 8.00829,2.77371 12.09607,3.8771 19.80259,5.34518 40.5496,6.28603 60.74573,2.7978 9.48513,-2.2165 12.51996,-2.55492 21.55519,-6.11775 3.35057,-1.32122 6.42126,-3.32445 9.83268,-4.4795 1.55251,-0.52566 -5.49731,3.56152 -4.19232,2.56977 22.4109,-17.03145 -4.31142,4.90115 16.92228,-12.86145 12.54948,-12.68086 23.35244,-26.74468 26.19289,-44.87527 0.98784,-11.63924 0.0252,-23.12619 -4.95917,-33.87165 0,0 5.97065,-3.40121 5.97065,-3.40121 z" />
    <path
       style="fill:#000000;fill-opacity:1;stroke:#000000;stroke-width:5;stroke-linecap:round;stroke-miterlimit:4;stroke-opacity:1;stroke-dasharray:none"
       id="path2844"
       d="m -172.52386,629.06538 c -9.90808,-7.58303 -13.81452,-18.86877 -16.62614,-30.54524 -4.64858,-24.89369 -0.88571,-50.14453 3.37365,-74.79011 7.11967,-34.92799 18.54041,-68.94067 33.83753,-101.13962 3.69897,-7.78598 7.79067,-15.37924 11.686,-23.06886 23.07539,-42.30601 52.643589,-80.81819 87.647949,-113.95288 7.519784,-7.11814 15.481803,-13.75405 23.222704,-20.63107 46.517129,-37.88535 98.625562,-68.74164 153.117907,-93.71522 10.63809,-4.87539 21.48175,-9.28915 32.22262,-13.93372 56.94878,-23.05236 116.20773,-40.34403 176.68785,-51.21533 12.61082,-2.2668 25.31539,-3.97689 37.97308,-5.96533 65.1259,-8.743128 131.15102,-11.029913 196.66504,-5.506821 13.03691,1.099064 26.01352,2.82366 39.02028,4.23549 50.13698,6.747421 99.58074,18.463931 146.96402,36.291041 30.1432,11.34084 37.18612,15.54851 66.02485,29.49917 50.38908,26.79296 97.50671,60.34518 135.90017,102.85895 7.33323,8.12022 13.95561,16.8552 20.93342,25.2828 25.96723,34.57169 45.90413,73.19741 58.61743,114.54413 8.5283,27.73599 8.6857,34.24581 13.5434,62.7722 6.8497,53.7829 2.6446,108.22342 -10.5168,160.74275 -2.7309,10.8974 -6.1768,21.60305 -9.2653,32.40458 -18.2288,55.61781 -44.23694,108.67107 -78.33003,156.32588 -6.955,9.72159 -14.55759,18.96318 -21.83638,28.44477 -31.09994,37.72059 -67.6221,70.5262 -107.86084,98.23471 -30.32075,20.87895 -49.41783,30.47067 -83.44411,49.78079 -61.57267,31.95506 -126.79136,56.56466 -193.63017,74.99906 -13.72145,3.7845 -27.58766,7.0229 -41.38149,10.5344 -54.61796,12.6566 -110.28024,20.9861 -166.31421,23.59 -36.22324,1.6833 -46.68136,0.7487 -82.90996,-0.2039 -69.00286,-3.8341 -137.66773,-14.8611 -204.154219,-33.8526 -13.133437,-3.7515 -26.069376,-8.1628 -39.1040641,-12.2442 -50.5511209,-17.2803 -99.4895649,-39.6185 -143.9228769,-69.47638 -29.4225,-19.77106 -34.79828,-25.79902 -61.55943,-48.86746 -37.18987,-35.48186 -68.9772,-76.50265 -90.76048,-123.25609 -14.04031,-30.13472 -14.80446,-37.821 -23.66487,-69.53145 -9.6442,-47.669 -6.64014,-96.28422 4.96604,-143.32343 6.91903,-28.04246 12.69362,-41.46001 22.61801,-68.44834 0,0 0.51738,-0.24257 0.51738,-0.24257 l 0,0 c -9.08542,29.07053 -12.30016,35.57421 -17.02054,65.69285 -7.15484,45.65176 -4.07068,91.55835 7.34601,136.26741 9.50039,31.5663 10.25326,38.43466 24.64216,68.46418 22.1407,46.20746 53.44966,87.18277 90.36813,122.53868 26.49429,23.05146 31.79471,29.0581 60.955,48.8342 44.023238,29.856 92.561042,52.2532 142.718866,69.629 13.005208,4.061 25.919632,8.4251 39.015625,12.1831 66.266119,19.0155 134.661979,30.1936 203.495479,33.7426 13.77622,0.3595 27.54776,1.0691 41.32868,1.0783 69.84859,0.047 139.46812,-8.9433 207.4336,-24.816 13.74971,-3.5112 27.57238,-6.7481 41.24912,-10.5336 66.78346,-18.4843 131.90482,-43.268 193.36024,-75.35295 5.66107,-3.07475 11.47338,-5.88605 16.98321,-9.22425 52.61252,-31.87598 100.85607,-70.58965 140.11074,-118.19903 7.25842,-9.42265 14.84167,-18.60377 21.77527,-28.26794 34.02971,-47.43118 60.07912,-100.26406 78.34861,-155.63795 3.0849,-10.75006 6.5107,-21.40808 9.2547,-32.25016 13.2612,-52.3984 18.0388,-106.62932 11.5503,-160.39563 -4.6071,-27.35132 -5.1746,-35.93722 -13.1819,-62.58377 -12.3901,-41.23189 -32.17461,-79.69003 -58.00331,-114.09967 -18.74266,-22.67854 -22.3954,-28.49904 -43.87907,-48.83989 -33.30833,-31.5365 -71.53524,-57.41305 -111.89963,-79.00556 -10.66386,-5.23358 -21.16598,-10.81049 -31.99159,-15.70075 -56.93421,-25.71892 -117.73525,-41.83973 -179.53629,-50.33652 -12.94861,-1.41929 -25.86656,-3.15362 -38.84583,-4.25789 -65.29395,-5.555152 -131.12257,-3.24557 -196.02718,5.49298 -12.6027,1.97729 -25.25062,3.68528 -37.80811,5.93188 -60.08038,10.74867 -118.95996,27.86402 -175.53347,50.74269 -34.6374,15.01144 -29.33617,12.16661 -62.868059,28.85418 -5.672124,2.82281 -11.375013,5.6034 -16.865671,8.76471 -28.098041,16.17778 -55.0419889,34.3537 -80.05255,55.01391 -7.725879,6.83671 -15.676664,13.42738 -23.177635,20.51012 -34.790338,32.85055 -64.229725,71.04804 -86.973775,113.14362 -3.85394,7.6396 -7.91794,15.17681 -11.56182,22.9188 -15.0688,32.01606 -26.37203,65.77973 -33.33948,100.47211 -4.32602,24.54347 -8.26214,49.59203 -4.17853,74.47104 2.51546,11.33 5.66864,22.68145 15.59829,29.78788 0,0 -13.04755,8.33722 -13.04755,8.33722 z" />
    <path
       style="fill:#000000;fill-opacity:1;stroke:#000000;stroke-width:5;stroke-linecap:round;stroke-miterlimit:4;stroke-opacity:1;stroke-dasharray:none"
       id="path2846"
       d="m 397.94493,534.94023 c -8.37533,6.56019 -16.66157,13.22497 -24.69052,20.20571 -9.80867,8.68316 -19.00329,18.02906 -28.04525,27.49874 -7.21557,7.6462 -14.34565,15.36984 -21.37638,23.18601 -4.05047,4.6448 -7.7785,9.44747 -12.90495,12.93651 -3.05373,2.30318 -5.47121,2.67371 -9.29627,3.3874 0,0 0.4949,-0.28566 0.4949,-0.28566 l 0,0 c -1.62021,1.07019 -3.52673,3.64299 -5.19115,2.64296 -0.0588,-1.9477 9.10002,-9.53796 10.47691,-11.79159 7.34126,-7.93297 14.81453,-15.7436 22.24236,-23.59533 9.24466,-9.58249 18.61666,-19.06638 28.59588,-27.89078 8.12664,-6.99563 16.46907,-13.72163 24.89664,-20.35088 0,0 14.79783,-5.94309 14.79783,-5.94309 z" />
    <path
       style="fill:#000000;fill-opacity:1;stroke:#000000;stroke-width:5;stroke-linecap:round;stroke-miterlimit:4;stroke-opacity:1;stroke-dasharray:none"
       id="path2850"
       d="m 306.86825,488.95302 c -0.18922,8.1953 -1.14309,16.3449 -2.22556,24.46271 -0.96053,7.11212 -2.4216,14.13636 -3.79895,21.17492 -0.96977,5.44446 -2.16141,10.85761 -2.73177,16.3632 -1.08785,7.38507 -3.82548,5.33661 -16.8985,8.80862 -0.71188,0.18906 -1.54151,-7.687 -1.59899,-8.21893 -0.92117,-10.47411 0.67378,-20.8156 2.80407,-31.0353 2.56632,-11.17033 7.25978,-21.50216 13.60155,-30.99316 7.78307,-9.74319 19.19035,-17.39145 31.18089,-20.80844 5.04773,-0.93575 9.54158,0.48436 13.39088,3.74278 3.4253,3.84811 3.66093,8.21435 2.66194,13.03228 -1.91702,6.28611 -6.19218,11.23987 -10.78956,15.7561 -7.4561,6.80042 -16.66684,11.00889 -25.37391,16.03065 -0.53502,0.30857 -2.14406,1.22736 -1.60886,0.9191 5.02023,-2.89153 10.04263,-5.77926 15.06394,-8.6689 -0.29983,0.0731 -1.26078,0.44934 -0.70727,-0.77788 0.41757,-0.9258 6.64091,0.27365 7.23488,0.3319 7.06795,0.81307 13.91174,2.68882 20.62529,4.97866 4.83918,1.55318 9.86444,3.20302 13.20647,7.22856 1.31384,2.95859 -2.00945,4.88396 -4.18734,6.17814 0,0 -4.19583,1.81923 -4.19583,1.81923 l 0,0 c -2.19143,1.03418 -4.25821,2.58514 -6.7204,1.49745 -4.4094,-2.28177 -8.64681,-4.9304 -13.47777,-6.29781 -6.62394,-2.19638 -13.39798,-4.01534 -20.37574,-4.61957 -2.37112,-0.1914 -9.48637,0.54784 -8.88101,-3.47506 5.67777,-3.33898 11.3508,-6.68605 17.03333,-10.01693 0.5429,-0.31823 2.186,-1.24793 1.64277,-0.93027 -4.64022,2.71338 -9.27999,5.42763 -13.93386,8.11754 -0.7968,0.46054 1.5916,-0.92613 2.36224,-1.42923 2.28981,-1.49487 2.99799,-2.13538 5.19591,-3.86498 4.86805,-4.387 9.47534,-9.15111 12.11251,-15.2608 1.37962,-4.03806 2.04667,-8.26838 -1.0197,-11.73865 -3.49465,-3.04349 -7.67372,-3.74781 -12.15882,-2.56144 -6.86626,2.40502 -2.94285,1.23339 8.49598,-5.78599 0.96918,-0.59473 -2.01591,1.06119 -2.96291,1.69063 -3.3932,2.25535 -6.30495,5.15984 -8.79369,8.36761 -6.48311,9.14365 -11.1146,19.30475 -13.5984,30.27378 -2.13035,9.9369 -3.61964,20.06068 -2.43526,30.23759 0.25488,2.1528 0.35065,3.64615 0.86433,5.70371 0.14123,0.56568 1.01882,1.31245 0.5508,1.66015 -32.80886,24.37375 -16.02266,11.50477 -13.28443,7.35835 1.66995,-5.57681 2.76131,-11.29113 3.99005,-16.97704 1.62821,-7.30153 3.57618,-14.52563 5.21922,-21.82352 1.97276,-8.54688 3.59512,-17.16979 5.16114,-25.79951 0,0 9.36034,-4.65025 9.36034,-4.65025 z" />
    <path
       style="fill:#000000;fill-opacity:1;stroke:#000000;stroke-width:5;stroke-linecap:round;stroke-miterlimit:4;stroke-opacity:1;stroke-dasharray:none"
       id="path2854"
       d="m 405.4897,546.69098 c 7.12392,9.6608 12.03698,20.59453 16.37091,31.71695 5.79751,15.65686 9.70279,31.90248 13.09705,48.22054 4.41425,21.96237 6.48787,44.28688 8.32314,66.58285 1.43574,23.8029 3.97745,47.49757 7.32078,71.10118 3.68819,21.25716 7.29546,42.49943 9.70713,63.94368 2.01683,19.17448 1.53302,38.46209 0.78787,57.68744 -0.65037,14.10777 -1.20498,28.21923 -1.4953,42.33938 -0.18763,12.17112 -1.33736,24.29205 -2.28662,36.41944 -1.04862,10.91148 -1.52051,21.85179 -1.81474,32.80443 0.007,11.39413 -0.20322,22.77153 -0.94364,34.14213 -0.79058,12.104 -1.8331,24.1896 -2.96745,36.2655 -0.74296,8.2735 -1.50176,16.5449 -2.35582,24.8077 -0.64155,10.5668 -1.89975,20.8598 -5.60631,30.8035 -2.12387,4.1954 -3.37515,10.0228 -7.26635,13.1601 -1.17939,0.9509 -2.69624,1.3823 -4.04435,2.0735 0,0 -0.53298,0.2061 -0.53298,0.2061 l 0,0 c -0.50512,0.1767 -1.04188,0.7796 -1.51538,0.5302 -0.72798,-0.3834 -1.8478,-7.6368 -2.20298,-8.2702 -2.13296,-9.2382 -0.50769,-18.6288 0.0782,-27.991 0.61056,-8.2835 1.43771,-16.5495 2.30547,-24.8097 1.26736,-12.1856 2.61917,-24.3618 3.70542,-36.5657 0.91428,-11.4147 1.44481,-22.8388 1.47439,-34.2917 0.27569,-11.04192 0.87769,-22.08125 2.03865,-33.0681 1.16566,-12.1354 2.26069,-24.29113 2.67766,-36.47739 0.5645,-14.22889 1.05013,-28.4609 2.0615,-42.66814 1.11254,-19.27228 2.08931,-38.61381 0.25555,-57.88169 -1.9182,-21.57899 -5.44281,-42.9183 -8.85706,-64.30244 -3.32283,-23.68145 -5.55001,-47.47772 -7.09193,-71.34162 -1.88847,-22.28897 -3.67859,-44.62662 -7.74512,-66.65145 -3.126,-16.37573 -6.44975,-32.76776 -11.86136,-48.57221 -3.9991,-11.13204 -8.47188,-22.11074 -14.94353,-32.07736 0,0 13.32719,-7.83592 13.32719,-7.83592 z" />
    <path
       style="fill:#000000;fill-opacity:1;stroke:#000000;stroke-width:5;stroke-linecap:round;stroke-miterlimit:4;stroke-opacity:1;stroke-dasharray:none"
       id="path2856"
       d="m 509.13148,737.50256 c 3.5531,17.38215 7.12177,34.75928 10.51535,52.1739 3.21004,18.19067 5.88921,36.47841 6.89344,54.93201 -0.063,6.96187 0.76443,15.16228 -3.96562,20.90204 -6.89327,3.67093 -13.51447,7.9062 -20.6798,11.01281 -0.73046,0.31669 -1.48753,-0.62854 -2.10108,-1.13592 -4.14405,-3.42698 -4.80983,-9.93596 -5.68406,-14.79059 -2.23204,-17.64591 0.45412,-35.29857 4.01485,-52.56533 4.76501,-21.83885 14.36739,-41.74671 26.99558,-60.02765 7.2402,-9.20263 15.26011,-18.31309 25.47569,-24.33593 23.91111,-14.09739 16.14101,-11.27735 30.33346,-15.6145 10.44705,-1.53609 15.79977,1.72197 18.6113,11.73504 0.81676,10.85254 -4.9639,19.7324 -11.60191,27.72672 -11.94467,12.62527 -28.14686,19.75099 -43.12421,28.08133 5.94794,-3.38003 11.85834,-6.82697 17.84381,-10.14009 0.3299,-0.18261 -0.60524,0.45752 -0.85755,0.73774 -0.32375,0.35959 0.79882,0.56143 1.24795,0.74145 2.77412,1.11187 2.76588,1.02931 5.94368,2.01211 11.13745,2.8035 22.52739,4.46136 33.76667,6.8175 10.91514,2.13354 21.10485,6.01401 30.01781,12.67716 4.666,3.83896 8.94755,8.58743 10.68,14.48475 0.27714,1.4544 0.56101,3.68362 -1.3019,4.39487 -0.59549,0.22735 -1.33765,-0.33279 -1.91143,-0.0552 -10.5962,5.12677 -15.32929,10.30167 -9.38373,4.32095 1.50254,-1.35958 3.00508,-2.71915 4.50762,-4.07873 0,0 0.51778,-0.24175 0.51778,-0.24175 l 0,0 c 0.93327,0.22848 1.86655,0.45696 2.79983,0.68544 6.12348,4.75972 -10.59336,10.26476 -15.6753,9.31473 -0.86706,-0.16209 -1.39804,-1.26497 -1.79949,-1.85484 -2.84314,-4.84051 -5.26314,-9.87335 -9.90969,-13.37038 -8.60351,-6.32581 -18.34766,-10.10637 -28.82839,-12.18074 -11.06348,-2.4115 -22.28,-4.28891 -33.11555,-7.61909 -19.36367,-7.33404 -2.37172,-12.27015 13.34647,-21.06659 8.89503,-4.81219 1.92984,-1.09339 -13.04683,7.86033 -1.36461,0.81582 2.78482,-1.53688 4.14236,-2.36442 4.75176,-2.89664 9.16488,-6.24879 13.06155,-10.24006 6.53262,-7.32217 12.67511,-15.47899 12.50032,-25.7714 -1.65013,-9.20442 -7.17112,-10.85336 -15.88465,-9.0606 -9.04269,3.18511 -9.30787,3.69047 7.3608,-5.85613 2.21943,-1.27113 -4.38095,2.65338 -6.44493,4.16389 -7.51558,5.50021 -13.93861,12.28431 -19.68503,19.57724 -12.70133,17.98273 -22.56318,37.52664 -27.26934,59.19841 -3.51748,16.89897 -6.42073,34.23133 -3.76714,51.49053 0.72935,3.80661 1.17438,8.10378 3.41871,11.42054 1.37908,2.03807 2.54222,1.58945 2.54032,1.59071 -5.65115,3.73417 -11.61104,6.97868 -17.41656,10.46802 7.11307,-3.6676 6.92617,-13.65465 7.69765,-20.52752 0.22943,-18.67409 -2.06555,-37.28099 -4.80196,-55.72659 -2.64684,-17.71011 -5.56292,-35.38283 -8.96151,-52.96563 0,0 12.98466,-6.93056 12.98466,-6.93056 z" />
    <path
       style="fill:#000000;fill-opacity:1;stroke:#000000;stroke-width:5;stroke-linecap:round;stroke-miterlimit:4;stroke-opacity:1;stroke-dasharray:none"
       id="path2860"
       d="m 570.25648,62.196258 c -9.36546,6.787173 -19.22219,12.862678 -29.00595,19.020143 -13.20094,8.07421 -26.07476,16.641577 -38.57686,25.756989 -7.79888,6.13094 -16.12114,11.87268 -22.79751,19.2774 -3.15269,4.60237 0.69134,4.62979 4.5008,5.4223 8.37735,1.57513 16.91838,2.09099 25.40953,2.68831 12.80118,0.88393 25.63847,1.02261 38.46502,1.12281 12.29793,0.045 24.59929,0.0134 36.89157,0.42806 6.67116,0.11731 13.18532,1.28016 19.71697,2.46337 4.20039,1.39674 3.16751,3.0706 1.00155,5.94469 -1.79273,1.87527 -0.67974,0.94776 -3.51844,2.55178 0,0 -0.52585,0.22365 -0.52585,0.22365 l 0,0 c -2.16154,0.82786 -1.23438,0.43173 -2.80164,1.14006 -2.90818,0.63459 -5.34556,1.36345 -8.13501,-0.20789 -6.0916,-1.9594 -12.58626,-2.07801 -18.91137,-2.61663 -12.16498,-0.46654 -24.33289,-0.56332 -36.50564,-0.6613 -12.69229,-0.22838 -25.38865,-0.52717 -38.04752,-1.5421 -8.46077,-0.67762 -16.9841,-1.25762 -25.29435,-3.06796 -4.58758,-1.26091 -8.73926,-3.56095 -4.97726,-8.54561 6.93165,-7.54589 15.34359,-13.56433 23.40885,-19.81861 12.67046,-9.27143 25.75456,-17.940606 39.17648,-26.089721 10.08755,-6.280547 20.24308,-12.477625 29.97581,-19.302737 0,0 10.55082,-4.187004 10.55082,-4.187004 z" />
    <path
       style="fill:#000000;fill-opacity:1;stroke:#000000;stroke-width:5;stroke-linecap:round;stroke-miterlimit:4;stroke-opacity:1;stroke-dasharray:none"
       id="path2862"
       d="m 675.53636,159.042 c -1.65164,12.19301 -3.80955,24.30551 -6.08903,36.39409 -2.11803,11.97356 -4.30364,23.93769 -6.08012,35.9679 -0.90511,6.4983 -1.75776,13.00334 -2.71847,19.49362 -0.42693,3.62633 -1.22664,6.62995 -3.89388,9.1558 -2.01473,1.4276 -0.62819,0.70213 -4.55536,1.13483 0,0 0.5071,-0.26339 0.5071,-0.26339 l 0,0 c -3.57469,2.96269 -2.02578,2.11259 -4.22861,3.19605 -3.47693,-0.15949 -1.50876,-4.28608 -1.34425,-6.63201 1.37568,-6.73103 2.70986,-13.47066 4.13402,-20.19164 2.632,-12.25359 5.25896,-24.5084 7.7418,-36.7933 2.42027,-12.04811 4.77266,-24.12708 6.17573,-36.34417 0,0 10.35107,-5.11778 10.35107,-5.11778 z" />
    <path
       style="fill:#000000;fill-opacity:1;stroke:#000000;stroke-width:5;stroke-linecap:round;stroke-miterlimit:4;stroke-opacity:1;stroke-dasharray:none"
       id="path2864"
       d="m 656.64122,162.12306 c 8.636,-1.28576 17.25483,-2.66045 25.92808,-3.67427 9.0585,-1.07199 18.17519,-1.20277 27.28006,-0.91851 6.74013,0.27152 13.50174,0.23023 20.19862,1.09714 4.24372,2.09779 -4.52625,6.17537 -5.65449,5.7752 0,0 1.1007,-0.86135 1.1007,-0.86135 l 0,0 c 0.65583,-0.35596 2.62948,-1.41225 1.96748,-1.06789 -0.99046,0.51521 -1.99587,1.00571 -2.95297,1.58052 -0.60542,0.3636 0.067,0.50492 -0.78131,0.7941 -0.75267,0.25659 -1.6605,-0.27497 -2.38556,0.0159 -6.79941,-0.091 -13.5711,-0.70705 -20.36829,-0.9253 -8.71168,-0.24765 -17.42623,-0.29854 -26.13062,0.23336 -7.99173,0.52656 -15.95511,1.34309 -23.91855,2.18842 0,0 5.71685,-4.23731 5.71685,-4.23731 z" />
    <path
       style="fill:#000000;fill-opacity:1;stroke:#000000;stroke-width:5;stroke-linecap:round;stroke-miterlimit:4;stroke-opacity:1;stroke-dasharray:none"
       id="path2866"
       d="m 625.89282,247.44125 c 8.6906,-1.59337 17.43785,-2.81232 26.19572,-3.96459 9.04351,-1.12559 18.14834,-1.57264 27.25414,-1.73316 7.73736,-0.20941 15.40106,0.56419 23.01565,1.84167 3.76331,0.81043 9.15076,1.71025 8.46461,6.56037 -0.67514,1.76861 -1.92637,2.82836 -3.36867,3.95388 0,0 -0.52721,0.22041 -0.52721,0.22041 l 0,0 c 0.0345,-0.80573 -0.50042,-0.98839 -1.22222,-1.22714 -3.96531,-1.18011 -7.84878,-2.65342 -11.90184,-3.50862 -7.57729,-1.2985 -15.25699,-1.90125 -22.94861,-1.64881 -9.07809,0.18483 -18.1535,0.65674 -27.16647,1.80797 -8.62129,1.04823 -17.20627,2.36103 -25.78555,3.70669 0,0 7.99045,-6.00867 7.99045,-6.00867 z" />
    <path
       style="fill:#000000;fill-opacity:1;stroke:#000000;stroke-width:5;stroke-linecap:round;stroke-miterlimit:4;stroke-opacity:1;stroke-dasharray:none"
       id="path3663"
       d="m 1022.2483,739.51548 c 0.5644,8.28182 1.0348,16.56953 1.3196,24.8668 0.36,13.93297 0.2627,27.87232 0.4123,41.80827 -0.049,11.31487 0.3151,22.62871 0.9886,33.92241 0.5691,6.69925 1.1612,13.29583 -1.0565,19.728 -1.7933,4.03602 -1.9955,5.12148 -6.188,6.59127 0,0 0.2975,-0.21426 0.2975,-0.21426 l 0,0 c -2.3587,1.62954 -1.9486,0.44933 -3.454,-1.63959 -2.6626,-5.50177 -2.099,-11.78755 -2.6189,-17.74344 -0.5437,-11.4366 -0.5447,-22.87175 -0.3936,-34.31983 0.2613,-14.10227 0.3743,-28.20661 0.6034,-42.30934 0.1681,-8.68575 0.3674,-17.37702 0.9565,-26.04586 0,0 9.1331,-4.64443 9.1331,-4.64443 z"
       transform="translate(-318.63019,59.696258)" />
    <path
       style="fill:#000000;fill-opacity:1;stroke:#000000;stroke-width:5;stroke-linecap:round;stroke-miterlimit:4;stroke-opacity:1;stroke-dasharray:none"
       id="path3665"
       d="m 352.31043,505.3263 c 2.86998,-3.36291 6.29656,-6.09855 10.02852,-8.43285 4.69374,-2.76793 9.58466,-5.98408 15.23356,-5.89032 3.15771,0.45664 4.1827,2.89779 4.84547,5.69499 0.52709,4.28513 -0.79312,8.36979 -2.21035,12.34787 -1.17345,3.40934 -3.12516,6.47037 -4.5375,9.76891 -0.57149,2.17329 1.91543,1.85809 3.41531,1.92824 3.64542,0.0488 7.28531,0.0144 10.92457,0.26872 4.51924,0.33529 9.03929,0.66029 13.56139,0.955 3.39085,0.73277 7.60634,-0.50203 10.67696,1.31456 0.51397,1.32002 0.20974,2.20269 -0.81267,3.09963 0,0 -2.45714,1.58939 -2.45714,1.58939 l 0,0 c -1.63331,0.72485 -3.34483,0.96008 -5.12654,1.07373 -3.50128,-0.22253 -6.96713,-0.99314 -10.47312,-1.24466 -4.16323,-0.54256 -8.31873,-1.13349 -12.47482,-1.72737 -3.47547,-0.42879 -6.9657,-0.49126 -10.46334,-0.58129 -2.05605,-0.22971 -4.65143,-0.62037 -3.99295,-3.32579 1.19726,-3.43893 3.53203,-6.39503 4.73295,-9.85041 1.51904,-3.8646 2.90002,-7.87654 2.63265,-12.09384 -0.33247,-2.35119 -0.80615,-4.91239 -3.51444,-5.40535 -1.4939,-0.048 -2.78064,0.10606 -4.22234,0.5436 -1.62832,0.49417 -7.38185,3.26071 -0.37849,-0.53835 -4.02093,2.40547 -7.77533,5.20322 -10.98036,8.64708 0,0 -4.40732,1.85851 -4.40732,1.85851 z" />
  </g>
</svg>
