<?xml version="1.0" encoding="UTF-8" standalone="no"?>
<!-- Created with Inkscape (http://www.inkscape.org/) -->
<svg
   xmlns:dc="http://purl.org/dc/elements/1.1/"
   xmlns:cc="http://creativecommons.org/ns#"
   xmlns:rdf="http://www.w3.org/1999/02/22-rdf-syntax-ns#"
   xmlns:svg="http://www.w3.org/2000/svg"
   xmlns="http://www.w3.org/2000/svg"
   xmlns:sodipodi="http://sodipodi.sourceforge.net/DTD/sodipodi-0.dtd"
   xmlns:inkscape="http://www.inkscape.org/namespaces/inkscape"
   width="995.05707"
   height="682.74457"
   id="svg2"
   sodipodi:version="0.32"
   inkscape:version="0.46+devel"
   version="1.0"
   sodipodi:docname="c16d1.svg"
   inkscape:output_extension="org.inkscape.output.svg.inkscape">
  <defs
     id="defs4">
    <inkscape:perspective
       sodipodi:type="inkscape:persp3d"
       inkscape:vp_x="0 : 526.18109 : 1"
       inkscape:vp_y="0 : 1000 : 0"
       inkscape:vp_z="744.09448 : 526.18109 : 1"
       inkscape:persp3d-origin="372.04724 : 350.78739 : 1"
       id="perspective10" />
  </defs>
  <sodipodi:namedview
     id="base"
     pagecolor="#ffffff"
     bordercolor="#666666"
     borderopacity="1.0"
     inkscape:pageopacity="0.0"
     inkscape:pageshadow="2"
     inkscape:zoom="0.35"
     inkscape:cx="723.25398"
     inkscape:cy="427.38841"
     inkscape:document-units="px"
     inkscape:current-layer="layer1"
     showgrid="false"
     inkscape:window-width="1280"
     inkscape:window-height="708"
     inkscape:window-x="-5"
     inkscape:window-y="-3" />
  <metadata
     id="metadata7">
    <rdf:RDF>
      <cc:Work
         rdf:about="">
        <dc:format>image/svg+xml</dc:format>
        <dc:type
           rdf:resource="http://purl.org/dc/dcmitype/StillImage" />
        <dc:title></dc:title>
      </cc:Work>
    </rdf:RDF>
  </metadata>
  <g
     inkscape:label="Layer 1"
     inkscape:groupmode="layer"
     id="layer1"
     transform="translate(348.25398,-492.77089)">
    <path
       style="fill:#000000;fill-opacity:1;stroke:#000000;stroke-width:2;stroke-linecap:round;stroke-miterlimit:4;stroke-opacity:1;stroke-dasharray:none"
       id="path2842"
       d="m -83.98304,880.3237 c 8.629437,0.44661 17.160936,1.81916 25.667607,3.26224 5.80904,1.14461 11.696814,2.05694 17.310161,3.98801 3.364505,1.08682 6.687748,2.26723 9.894522,3.76064 1.561335,1.11339 3.866764,1.63379 4.832224,3.37752 -0.385902,2.60455 -1.482724,4.60188 -3.533041,6.20151 0,0 -0.464663,0.33259 -0.464663,0.33259 l 0,0 c -3.01187,1.52087 -6.184526,1.95875 -9.500315,2.50246 -2.60778,-0.0204 -5.120936,-0.77005 -7.621733,-1.46073 -3.515207,-1.05878 -7.102937,-1.88658 -10.528772,-3.23479 -5.374673,-1.74185 -10.856233,-3.07167 -16.372419,-4.28778 -8.175773,-1.58958 -16.381555,-3.09076 -24.711719,-3.59323 0,0 15.028148,-10.84844 15.028148,-10.84844 z" />
    <path
       style="fill:#000000;fill-opacity:1;stroke:#000000;stroke-width:2;stroke-linecap:round;stroke-miterlimit:4;stroke-opacity:1;stroke-dasharray:none"
       id="path2844"
       d="m -140.71447,850.83716 c 11.6548,3.84972 23.62263,6.42096 35.728,8.34136 16.444466,2.19213 33.054575,2.36916 49.613131,2.09254 15.348492,-0.31871 30.674159,-1.23927 46.0075319,-1.94249 9.37317631,-0.41013 18.7535947,-0.65412 28.1349191,-0.76584 3.972054,0.18152 8.335042,-2.0123 6.265365,3.60132 -13.501684,7.7708 -14.340081,11.47915 -15.1216956,2.26016 0,0 0.4778736,-0.31331 0.4778736,-0.31331 l 0,0 c 8.663126,-0.46306 17.598503,-5.65654 -2.1258001,4.90124 -0.1552613,0.81338 0.1744329,1.87673 -0.4255265,2.44746 -1.2232486,1.16364 -5.0692617,-0.92889 -6.4180391,-0.30484 -9.0273528,-0.19628 -18.0545723,-0.28259 -27.0797403,0.1083 -15.127722,0.48227 -30.249664,1.20034 -45.384641,1.41054 -16.186603,-0.0326 -32.464818,-0.23078 -48.406428,-3.39191 -11.28437,-2.46642 -22.42899,-5.63428 -32.8941,-10.61465 0,0 11.62915,-7.82988 11.62915,-7.82988 z" />
    <path
       style="fill:#000000;fill-opacity:1;stroke:#000000;stroke-width:2;stroke-linecap:round;stroke-miterlimit:4;stroke-opacity:1;stroke-dasharray:none"
       id="path2846"
       d="m -60.229495,871.0497 c 0.836766,-11.19328 1.900603,-22.36676 3.203672,-33.51498 1.865254,-16.63889 3.776969,-33.27398 5.698041,-49.9074 2.014539,-18.91102 3.637956,-37.85732 5.289998,-56.80229 1.709599,-19.79901 3.533358,-39.58682 5.568628,-59.35512 1.740156,-17.03862 3.287959,-34.09391 4.858235,-51.14882 1.174232,-15.23867 2.382925,-30.47661 3.268055,-45.73525 0.779839,-13.16085 1.102762,-26.34532 0.968614,-39.52764 -0.03146,-6.94973 -0.593922,-13.86638 -1.567665,-20.74091 -2.553965,-11.5663 -1.192116,-7.18356 15.315549,-15.49041 5.707275,1.86958 11.496365,3.47479 17.31989114,4.95443 12.35301686,3.02553 24.96704986,4.73485 37.54646786,6.49104 18.696157,2.40144 37.544458,2.99151 56.370564,3.2786 21.858035,0.11052 43.707765,-0.63336 65.559045,-1.06694 20.84479,-0.26156 41.69235,-0.0234 62.53787,0.0662 19.42347,0.0637 38.77732,-1.7019 58.04238,-4.00951 17.00304,-2.1528 33.96273,-4.62904 50.94232,-6.9563 13.49339,-1.95606 27.02788,-3.58501 40.5945,-4.93406 8.82142,-0.88998 17.67435,-1.39884 26.50793,-2.14213 3.71374,-0.0633 7.8742,-2.23833 10.43194,1.19494 1.28809,4.27687 0.54345,9.03462 0.15336,13.42041 -0.63519,9.1135 -1.36994,18.22218 -2.46945,27.29279 -1.08859,10.32773 -2.77487,20.5773 -4.15544,30.86674 -0.93124,6.75145 -1.92329,13.49458 -2.8202,20.25072 -0.3359,2.95468 -1.46972,6.29047 0.68052,8.75906 2.27222,1.72831 5.1476,2.30623 7.91145,2.71965 4.2991,0.71091 8.58475,0.23002 12.77008,-0.84417 0.83015,-0.28062 1.67018,-0.53357 2.49045,-0.84185 1.69955,-0.63874 3.43408,-1.4189 5.03362,-2.27727 0.8157,-0.43773 3.20422,-1.85584 2.39892,-1.39926 -16.6629,9.44745 -21.23649,12.95649 -14.31229,7.82241 3.38032,-2.6296 5.17329,-6.01786 5.76167,-10.19228 0.34428,-4.41169 -1.40231,-8.03511 -4.26856,-11.23463 -4.12909,-3.57374 -8.71819,-2.6369 -13.56199,-1.28085 4.25915,-3.68071 -13.97124,7.25069 -8.85782,4.40207 26.74312,-14.89823 16.0432,-9.54026 8.80496,-3.38502 -6.8228,5.92181 -12.6718,12.76724 -17.91084,20.09687 -4.25496,5.91614 -6.78779,12.60919 -8.20825,19.69786 -1.20765,5.66868 -0.59782,11.08314 1.25439,16.49837 2.28508,5.60886 6.74146,9.34265 11.71187,12.50953 6.05497,3.37223 12.80275,4.80738 19.61394,5.60701 7.70321,1.00019 15.38925,0.484 23.00715,-0.83643 6.20466,-1.40199 12.50433,-2.99086 18.01817,-6.24957 -36.36148,19.93041 -13.87474,12.46186 -13.85894,3.68028 -0.65515,-3.7428 -3.36637,-6.28851 -6.06225,-8.70994 -3.64946,-2.89468 -7.90403,-4.30335 -12.39836,-5.20609 -5.61541,-0.95985 -10.89281,0.89025 -15.92018,3.20546 -10.31589,5.93436 9.60988,-5.53669 12.99593,-7.33117 1.0407,-0.55153 -1.92798,1.3553 -2.85513,2.08168 -3.05466,2.39319 -5.74532,5.12304 -8.43919,7.90319 -5.58004,6.12263 -10.42805,12.86144 -14.95532,19.78467 -3.69952,5.69909 -6.89026,11.70047 -9.17405,18.10259 -1.46477,4.285 -2.06882,8.38845 -0.91643,12.77381 1.81302,4.00344 5.0051,6.81728 8.46961,9.37375 4.24432,3.28026 9.07051,5.63522 13.87865,7.95235 4.94982,2.31599 10.10849,4.03038 15.43085,5.23186 5.09484,1.20715 10.312,1.516 15.52651,1.35398 5.04544,-0.41299 9.89238,-1.82958 14.5327,-3.7937 -5.17604,3.84312 12.52487,-6.75436 6.60126,-3.34152 -31.39772,18.08957 -20.26769,12.2128 -13.97583,7.74417 2.676,-1.97781 4.57314,-4.54352 5.18613,-7.81717 -0.46241,-3.28993 -3.22323,-5.04471 -5.96226,-6.44278 -4.18612,-1.92066 -8.79537,-2.44969 -13.34394,-2.69728 -4.62122,-0.18825 -9.18284,0.8524 -13.41271,2.65625 -7.43445,3.83727 -7.66498,3.98923 15.91791,-9.16554 0.69982,-0.39037 -1.3649,0.84421 -2.00532,1.32588 -1.9787,1.48824 -3.5418,3.34006 -5.09721,5.24215 -3.33237,4.5015 -5.39338,9.72575 -7.32226,14.93712 -1.92438,5.27056 -3.13198,10.75436 -4.18542,16.25299 -1.14001,5.98506 -1.82137,12.03749 -2.51727,18.08517 -0.67802,6.19493 -1.19276,12.40712 -1.65645,18.6215 -0.33123,4.94308 -0.43212,9.89837 -0.54466,14.85056 -0.0259,4.79524 -0.24183,9.58565 -0.39292,14.37925 -0.19217,4.03876 -0.27269,8.07717 -0.27987,12.11995 -0.33836,2.74068 0.0321,5.44861 0.17319,8.17348 -2.30706,10.19769 -17.18454,13.38544 -27.01244,15.79635 -4.19887,1.27684 -8.42771,2.47401 -12.57465,3.91392 -1.25457,0.53817 -2.61152,0.80638 -3.87039,1.33274 -0.5382,0.22503 -2.06616,1.08306 -1.5604,0.79236 38.43418,-22.09169 22.38113,-14.60133 17.03115,-9.04386 -1.7595,2.74625 -0.41096,5.13959 1.38006,7.43571 3.59152,3.84337 8.31875,6.35147 12.93962,8.73913 6.2679,3.38553 12.95609,5.8085 19.66665,8.13556 6.62166,2.18399 13.37914,3.89541 20.05479,5.90217 4.8562,1.37873 9.6088,3.08963 14.42015,4.60631 13.74653,3.96839 8.03438,1.02723 -15.37708,16.44401 -3.60091,-0.11632 -7.19556,-0.36178 -10.79546,-0.49484 -6.39416,-0.39417 -12.75703,0.0546 -19.11034,0.73735 -8.44734,1.08608 -16.67822,3.39258 -24.84037,5.75946 -7.70059,2.29064 -15.25005,5.04341 -22.87248,7.57356 -3.66196,1.90314 -8.85829,1.8088 -12.09252,4.45654 24.9848,-15.55958 12.82871,-14.57861 22.30368,-6.58704 3.83753,3.04039 8.06124,5.50742 12.31463,7.90554 5.87175,3.31198 12.10881,5.76906 18.51444,7.81259 7.55502,2.2141 15.25101,3.90305 22.92293,5.65544 7.61506,1.76403 15.22113,3.54066 22.89398,5.03609 6.26881,1.35015 12.59898,2.32645 18.83174,3.83511 3.36995,1.18062 7.91698,1.47409 9.51696,5.0727 -0.83411,11.37517 -17.82257,15.25225 -28.29206,16.85154 -5.51935,0.63861 -11.08062,0.50387 -16.62365,0.42628 -7.56891,-0.24725 -15.13335,-0.2479 -22.70121,0.007 -7.25961,0.56699 -14.49689,1.42982 -21.68842,2.57335 -5.20092,0.84121 -10.41164,1.61311 -15.60411,2.50587 -1.16826,0.61447 -2.92799,-0.005 -4.09615,0.56621 -0.25644,0.1255 -0.80689,0.78922 -0.55755,0.65016 19.34133,-10.78725 16.81055,-17.8831 19.25423,-9.85912 1.95625,3.42807 5.38932,5.51321 8.653,7.53372 4.86695,2.79032 10.24326,4.52353 15.59254,6.12786 6.03132,1.64075 12.03277,3.40163 18.10438,4.88806 5.48162,1.47442 10.98983,2.82883 16.51753,4.11643 3.94788,0.7247 7.76386,1.99869 11.66286,2.90698 12.52072,5.52586 1.83874,5.05748 -16.53378,16.64685 -3.07903,0.26216 -6.17442,0.21519 -9.26158,0.201 -3.85991,-0.14615 -7.71556,-0.0646 -11.57022,0.14506 -4.20473,0.30538 -8.29115,1.43706 -12.23651,2.87382 -3.74075,1.31807 -7.3864,2.89179 -10.9705,4.58632 -7.93309,2.92985 -17.44232,9.2034 14.34629,-8.8619 0.50498,-0.28698 -0.97386,0.65405 -1.36397,1.08436 -1.16817,2.70177 -0.47646,5.93252 -0.13158,8.76188 0.64533,5.16828 1.06373,10.34606 1.285,15.54886 0.21436,5.8935 0.21636,11.7913 0.15887,17.6875 -0.12969,5.2744 -0.11286,10.5504 -0.26718,15.8241 8e-4,4.6264 -0.24822,9.2408 -0.73688,13.84 -0.49339,4.736 -1.33728,9.4297 -2.15552,14.1186 -0.9439,4.989 -1.81604,9.989 -2.53661,15.0155 -0.71897,4.7444 -0.95678,9.5305 -1.19645,14.3151 -0.20559,4.3366 -0.23719,8.6784 -0.30277,13.0186 -0.3205,2.9926 0.18201,5.95 0.28379,8.9205 -2.18023,12.5592 -17.7942,14.1502 -27.89312,14.1478 -6.12471,-0.032 -12.24934,0.1077 -18.372,0.2544 -10.21187,0.2481 -20.42667,0.3569 -30.63227,-0.1095 -14.22367,-0.7193 -28.35069,-2.6559 -42.49951,-4.2051 -16.50693,-1.8542 -33.09154,-2.7327 -49.68968,-3.1518 -18.09461,-0.4444 -36.15457,0.7089 -54.16433,2.3241 -20.1688,1.8482 -40.11835,5.3491 -60.03011,8.9544 -21.469253,3.9722 -42.869016,8.3038 -64.299259,12.478 -21.544137,4.1788 -43.1125215,8.2408 -64.814417,11.5148 -18.31873,2.9592 -36.813292,4.4844 -55.329073,5.4704 -13.820741,0.6433 -27.657911,0.8128 -41.487541,1.1842 -9.05437,0.2657 -18.10406,0.6781 -27.12768,1.4762 -4.49631,0.3259 -8.92915,1.1333 -13.36502,1.8992 -3.66766,0.2291 -3.56372,-4.0742 -3.29256,-6.6568 0.88361,-4.9519 2.17663,-9.8305 3.51608,-14.677 1.59773,-5.5355 3.53172,-10.9571 5.63833,-16.3164 2.4807,-6.0686 4.95466,-12.1389 7.29394,-18.2637 2.56478,-6.6709 4.77792,-13.4663 7.02468,-20.2485 2.15422,-6.3686 4.46359,-12.6865 6.84928,-18.9721 1.94138,-4.8307 3.86705,-9.6647 5.49695,-14.6107 1.60844,-5.1416 3.1366,-10.3094 4.63303,-15.4845 1.70057,-5.8399 3.47426,-11.6575 5.2506,-17.4746 1.43789,-4.5575 2.81229,-9.1335 4.31792,-13.6694 0.99283,-3.3995 1.84215,-6.8392 2.80051,-10.2488 0.81831,-3.3579 1.59614,-6.7254 2.39727,-10.08745 0.81251,-3.64237 2.14313,-7.13795 3.387203,-10.64783 1.211045,-3.50543 2.363194,-7.02306 3.695754,-10.48536 1.184475,-3.20171 3.065937,-6.05513 4.761045,-8.99585 1.747586,-2.99714 3.185388,-6.15916 4.676032,-9.28802 1.578473,-3.38305 3.611504,-6.5174 5.45655,-9.75389 1.672814,-2.9961 3.123877,-6.09833 4.540117,-9.2206 1.424092,-3.22269 3.265365,-6.22896 5.179204,-9.178 2.788468,-4.95524 6.596733,-9.09934 10.383865,-13.28631 2.721831,-3.05087 5.376093,-6.16101 8.049545,-9.25411 0,0 0.519932,-0.23707 0.519932,-0.23707 l 0,0 c 0.461625,1.65953 0.759448,3.352 1.354485,4.97069 1.636273,3.84998 1.511712,4.77036 -0.18351,8.80506 -1.354046,3.01544 -3.149577,5.77884 -4.589225,8.74969 -1.512389,3.08939 -2.800816,6.28867 -4.431094,9.32391 -1.721438,3.26699 -3.772565,6.33802 -5.486288,9.61022 -1.472009,3.18678 -2.956463,6.3733 -4.602679,9.47402 -1.678338,2.86956 -3.512445,5.66999 -4.859403,8.71281 -1.493397,3.30066 -2.432967,6.8034 -3.497654,10.26036 -1.236321,3.43616 -2.513461,6.87415 -3.450447,10.40401 -0.816944,3.36131 -1.592593,6.73241 -2.384197,10.09975 -0.754313,3.50517 -1.772438,6.94427 -2.790893,10.38007 -1.282217,4.6015 -2.923442,9.1001 -4.319486,13.6682 -1.764196,5.8107 -3.601405,11.5987 -5.272087,17.4376 -1.446492,5.1683 -2.831489,10.3552 -4.439479,15.4762 -1.53597,4.9494 -3.28649,9.8157 -5.20041,14.6301 -2.4715,6.216 -4.7513,12.5095 -6.87648,18.8522 -2.2403,6.7731 -4.4292,13.5658 -6.85038,20.2768 -2.29967,6.1373 -4.73768,12.2194 -7.23516,18.2787 -2.10658,5.2578 -4.12916,10.5639 -5.60441,16.0381 -1.38601,4.695 -2.51916,9.463 -3.42979,14.272 -0.28777,1.5198 -1.4085,3.6358 0.61844,2.891 4.64408,-1.1106 9.35806,-1.8145 14.12967,-2.0919 9.0038,-0.6589 18.02195,-1.0819 27.049067,-1.2447 13.672904,-0.2772 27.351068,-0.3456 41.016425,-0.9282 18.360353,-0.9803 36.682784,-2.5674 54.85977361,-5.4093 21.59087239,-3.298 43.07403039,-7.2475 64.51373239,-11.4112 21.420346,-4.1871 42.827212,-8.446 64.287002,-12.4282 19.9562,-3.5982 39.97499,-6.9526 60.18207,-8.8061 18.03309,-1.5713 36.1268,-2.6259 54.23741,-2.0488 16.65941,0.4651 33.30195,1.3986 49.87079,3.2543 14.23393,1.5348 28.4668,3.2928 42.78651,3.7834 10.31707,0.2136 20.62987,0.073 30.94285,-0.291 6.19796,-0.1763 12.39653,-0.3163 18.59623,-0.4134 1.50331,-0.075 3.19736,-0.021 4.63188,-0.58 0.29581,-0.1152 1.09317,-0.6461 0.82141,-0.482 -20.14556,12.1638 -27.58388,13.4445 -19.14984,11.8826 1.48911,-2.6065 0.47855,-6.1183 0.8501,-8.9714 0.0893,-4.3682 0.13469,-8.7378 0.31311,-13.1037 0.22849,-4.8662 0.61733,-9.7275 1.22258,-14.562 0.68595,-5.0302 1.5504,-10.0326 2.40065,-15.0369 0.81697,-4.6667 1.5776,-9.3419 2.2847,-14.0265 0.55138,-4.5792 0.86122,-9.1776 1.05033,-13.7854 0.16838,-5.3048 0.47088,-10.6054 0.5371,-15.9139 0.0843,-5.8589 0.0949,-11.7199 -0.10885,-17.5768 -0.21029,-5.155 -0.52749,-10.3088 -1.21142,-15.4255 -0.29826,-3.3276 -0.835,-6.70046 -0.26285,-10.02807 3.22344,-9.91754 16.89284,-11.17949 25.55195,-15.84499 3.73673,-1.73994 7.54404,-3.33808 11.46114,-4.63 4.17255,-1.28223 8.41715,-2.35748 12.80483,-2.5178 3.98251,-0.25239 7.96707,-0.22107 11.95545,-0.25899 2.96182,-0.0288 6.03272,0.0933 8.87551,-0.85383 -28.99196,19.2655 -11.75018,15.64454 -21.93213,11.35694 -3.56787,-1.5048 -7.46692,-2.01182 -11.18576,-3.03281 -5.48261,-1.34629 -10.937,-2.8097 -16.39192,-4.2654 -5.99348,-1.69078 -12.03634,-3.21545 -17.97696,-5.08626 -5.503,-1.72865 -11.02943,-3.57117 -15.98885,-6.58012 -3.63811,-2.33668 -7.25085,-4.96461 -9.42891,-8.79683 -4.18671,-10.39855 15.24494,-14.84707 23.9844,-16.47697 5.18318,-0.82987 10.37217,-1.62273 15.55658,-2.44507 7.31731,-1.13908 14.67939,-2.07986 22.07555,-2.50801 7.66602,-0.29947 15.33271,-0.16337 23.00257,-0.0982 5.59411,-9e-5 11.23834,-0.0513 16.75023,-1.11448 1.422,-0.32949 2.31817,-0.46793 3.65116,-1.03031 0.47608,-0.20085 1.81773,-0.98234 1.37429,-0.7171 -40.06248,23.96343 -26.12111,12.29362 -18.29044,11.49934 1.53398,-0.72616 -6.5251,-3.51364 -6.84773,-3.53364 -6.14905,-1.48597 -12.3779,-2.59192 -18.56433,-3.90758 -7.61925,-1.5625 -15.15588,-3.48704 -22.7294,-5.25114 -7.6265,-1.88544 -15.31168,-3.55939 -22.79097,-5.99486 -6.41229,-2.25885 -12.72942,-4.76416 -18.57123,-8.292 -4.35347,-2.47699 -8.60163,-5.17222 -12.54932,-8.26262 -11.03261,-9.51276 -3.28563,-10.7506 14.3305,-19.527 4.26852,-1.62781 8.55631,-3.20866 12.92679,-4.54572 7.71609,-2.59565 15.3717,-5.37886 23.1799,-7.69266 8.41549,-2.44703 16.89104,-4.77806 25.61949,-5.80604 6.52749,-0.64313 13.07736,-1.00216 19.63818,-0.70603 3.56163,0.11449 7.19922,0.4124 10.73178,-0.11429 -21.97047,15.42535 -12.66274,16.68893 -24.65455,12.20066 -4.65193,-1.74352 -9.40395,-3.20982 -14.1506,-4.67089 -6.69169,-1.99239 -13.4247,-3.85201 -20.06019,-6.02883 -6.79241,-2.38707 -13.47107,-5.08403 -19.83313,-8.47848 -4.80963,-2.70372 -9.74026,-5.3908 -13.42289,-9.60549 -2.30272,-2.99153 -4.07527,-6.05003 -2.97302,-9.94254 4.84255,-10.78528 19.13314,-13.89334 29.78668,-17.78808 4.25368,-1.34339 8.51891,-2.64932 12.78815,-3.94234 1.13731,-0.36699 1.84276,-0.56219 2.91748,-1.02209 0.39208,-0.16779 1.52186,-0.76795 1.15462,-0.55113 -19.48456,11.50332 -28.0185,13.42805 -18.86956,11.63419 1.34691,-2.44768 0.67356,-5.65639 1.04068,-8.32467 0.24565,-4.09843 0.45696,-8.19923 0.62857,-12.30142 0.16729,-4.78516 0.24993,-9.57 0.40534,-14.35458 0.1,-5.0398 0.37114,-10.07038 0.75413,-15.09687 0.48744,-6.26394 1.08726,-12.51467 1.75642,-18.76183 0.66788,-6.10715 1.4981,-12.19932 2.50613,-18.25991 1.00411,-5.60515 2.172,-11.19496 4.02191,-16.59173 1.91251,-5.32162 3.82677,-10.69862 6.9147,-15.47805 7.07923,-10.42739 18.68462,-15.9808 30.37121,-20.71462 4.58254,-1.41115 9.25434,-2.32167 14.07994,-1.91628 4.83375,0.45913 9.64371,1.27646 14.04485,3.44138 3.41402,2.03029 6.58563,4.5001 7.32399,8.64233 0.2902,3.98762 -1.97679,7.3105 -4.81799,9.95096 -9.63255,7.3102 -20.44576,13.1432 -31.57292,17.85332 -4.78966,1.68147 -9.71453,2.95284 -14.82571,3.01976 -5.28174,-0.0396 -10.53959,-0.61044 -15.65959,-1.95623 -5.31827,-1.48861 -10.5358,-3.23364 -15.47961,-5.73242 -4.92895,-2.39961 -9.82607,-4.924 -14.16321,-8.31542 -3.59017,-2.96672 -7.32616,-6.08773 -8.99325,-10.58072 -1.64166,-4.64995 -1.26082,-9.33358 0.30417,-13.98787 2.19416,-6.57704 5.1862,-12.78459 8.99795,-18.59302 4.47751,-6.99311 9.19139,-13.85011 14.69764,-20.08625 9.78064,-10.90434 21.61426,-18.65393 35.34613,-24.53298 5.50841,-2.16595 11.11908,-3.60902 17.05779,-2.37642 4.84829,1.04384 9.40172,2.79163 13.25019,6.02024 3.22046,2.73639 6.06035,5.94188 7.10212,10.14673 1.60789,12.11634 -16.86103,16.67455 -23.81793,20.83487 -5.70718,2.59734 -11.80527,4.19265 -17.96729,5.29912 -7.71559,1.08823 -15.47809,1.2855 -23.21843,0.20157 -6.99608,-1.12626 -13.95925,-2.71589 -20.10065,-6.42262 -5.27222,-3.51866 -9.96818,-7.66675 -12.46448,-13.65809 -2.26563,-5.65675 -3.13439,-11.40903 -1.9479,-17.46319 1.31257,-7.40066 3.74601,-14.40118 8.05953,-20.63997 5.13854,-7.49069 11.02736,-14.42465 17.72235,-20.58246 10.8242,-9.70051 23.57356,-17.47736 37.26997,-22.31342 5.61073,-1.12475 10.79458,-1.24273 15.16102,3.01448 3.35802,3.59434 5.29091,7.8589 5.29866,12.85394 -0.49584,4.64663 -1.85942,8.78867 -5.51829,11.94685 -9.21165,7.91044 -20.79828,14.15678 -32.57844,17.53351 -4.33971,0.72239 -8.65466,0.9287 -12.98636,-0.0425 -3.1242,-0.77345 -6.32575,-1.58679 -8.65135,-3.96705 -2.43713,-3.22992 -2.01939,-6.53316 -1.24623,-10.35332 1.00499,-6.80195 2.09856,-13.59046 3.08263,-20.39559 1.65562,-10.31197 3.25179,-20.63625 4.54564,-31.00073 1.09858,-9.1411 2.21427,-18.2786 2.96468,-27.45587 0.30435,-4.05192 1.09777,-8.20169 0.51658,-12.25171 -1.1404,-1.81206 -6.66196,0.14711 -8.3055,-0.3428 -8.70909,0.46762 -17.41049,1.10015 -26.09532,1.90045 -13.45364,1.31057 -26.86695,2.95168 -40.26107,4.77161 -16.91945,2.38677 -33.86004,4.6351 -50.80834,6.8061 -19.23232,2.11341 -38.52578,3.82685 -57.89712,3.65647 -20.78051,-0.11344 -41.56267,-0.49181 -62.34315,-0.15815 -21.87611,0.42633 -43.75064,1.15728 -65.633291,1.05112 -18.899885,-0.27806 -37.833087,-0.88031 -56.593715,-3.36326 -12.685125,-1.70707 -25.3828968,-3.50681 -37.839543,-6.50593 -5.862358,-1.44033 -11.624282,-3.24638 -17.506334,-4.58121 14.490157,-9.41656 12.372807,-13.14487 14.100918,-2.51631 0.908383,7.01976 1.082875,14.11955 1.186093,21.18932 0.01358,13.27714 -0.408162,26.5466 -1.244072,39.79915 -1.097329,15.34508 -2.329833,30.67904 -3.698096,46.00221 -1.621699,17.09278 -3.112448,34.20021 -5.060838,51.25991 -1.893437,19.80045 -3.803841,39.5992 -5.687687,59.40068 -1.825186,19.06368 -3.625513,38.13158 -5.906806,57.1474 -1.884216,16.66821 -3.793965,33.33389 -5.831988,49.98408 -1.422698,11.44729 -2.92904,22.88746 -4.787913,34.27314 0,0 -11.753363,5.83729 -11.753363,5.83729 z" />
    <path
       style="fill:#000000;fill-opacity:1;stroke:#000000;stroke-width:2;stroke-linecap:round;stroke-miterlimit:4;stroke-opacity:1;stroke-dasharray:none"
       id="path2848"
       d="m -295.74339,819.52233 c -8.72589,1.26514 -16.84616,4.69437 -24.50153,8.93697 19.69304,-10.40207 1.43296,-3.40975 3.82547,2.74293 3.00479,3.31477 7.6019,4.32997 11.80685,5.23795 3.77774,1.30508 8.07294,0.12231 11.62861,2.00908 2.27501,3.35784 -2.78368,6.40323 -5.00588,8.22361 -6.56044,5.16089 -13.15172,10.27407 -19.54049,15.64793 -6.28366,5.42197 -12.66952,11.06562 -16.17139,18.72723 -1.96026,7.03028 4.33992,9.34815 9.88454,11.13505 10.05996,1.70083 20.15666,3.46004 30.29898,4.63589 6.78158,0.38069 3.50858,0.18646 9.81926,0.57849 0,0 -0.4577,0.34212 -0.4577,0.34212 l 0,0 c -9.98137,2.55445 -5.00348,1.51634 -14.92701,3.14609 -12.37491,1.58315 -25.06467,3.26633 -37.28753,-0.20842 -6.34089,-2.36142 -12.28545,-5.80027 -10.58973,-13.53898 3.20673,-7.89332 9.33427,-13.75768 15.68875,-19.25814 6.28597,-5.35995 12.72871,-10.52668 19.27345,-15.56754 2.11275,-1.72622 4.81958,-3.58083 6.42857,-5.70085 -2.79579,-1.90543 -6.81982,-1.5298 -9.91879,-2.65795 -4.53752,-1.22233 -9.42268,-2.43001 -12.47718,-6.2836 -0.60225,-1.38729 -1.0853,-1.94097 -0.8326,-3.51235 1.21791,-7.57352 19.72504,-9.73224 19.13088,-14.21796 7.93984,-4.2245 16.31673,-7.47659 25.24949,-8.87718 0,0 -11.32502,8.45963 -11.32502,8.45963 z" />
    <path
       style="fill:#000000;fill-opacity:1;stroke:#000000;stroke-width:2;stroke-linecap:round;stroke-miterlimit:4;stroke-opacity:1;stroke-dasharray:none"
       id="path2850"
       d="m -250.2578,959.74166 c -5.87879,-6.04493 -9.5805,-13.40508 -11.0414,-21.65549 -0.71358,-13.19912 6.41053,-15.04718 17.22854,-21.23359 6.93839,-2.43359 13.61266,-0.96863 19.79737,2.6064 5.78023,4.15199 8.05403,10.07425 7.39092,16.98444 -3.09798,9.6687 -11.53915,15.92001 -19.98948,20.76844 0,0 -0.53271,0.20674 -0.53271,0.20674 l 0,0 c 5.10133,-3.74003 7.42654,-8.34624 7.87346,-14.66571 0.4625,-6.24767 -0.29631,-12.11274 -5.03523,-16.68062 -5.34027,-3.86526 -11.23684,-5.23949 -17.56739,-2.74322 2.00098,-1.23003 3.92008,-2.60448 6.00294,-3.69011 0.92983,-0.48465 -1.76063,1.15845 -2.52429,1.87698 -3.39365,3.19308 -4.33045,7.59528 -4.19315,12.08634 1.28282,8.16456 4.9799,15.19254 10.91655,21.00953 0,0 -8.32613,5.12987 -8.32613,5.12987 z" />
    <path
       style="fill:#000000;fill-opacity:1;stroke:#000000;stroke-width:2;stroke-linecap:round;stroke-miterlimit:4;stroke-opacity:1;stroke-dasharray:none"
       id="path2852"
       d="m 529.708,581.40718 c -3.17384,11.87955 -4.82822,24.10329 -6.56109,36.25796 -1.83476,12.82008 -3.48614,25.66566 -5.07903,38.51772 -0.43569,5.36481 -1.46262,10.82319 -0.81557,16.21716 0.58578,1.83892 -0.2613,0.30932 0.93681,0.1314 4.63993,0.0683 9.28071,0.0341 13.92128,0.0567 10.90192,-0.007 21.80419,-0.0874 32.70607,-0.0546 10.66681,-0.062 21.3264,0.16191 31.97926,0.68579 3.05101,0.85287 11.0326,-0.85008 13.23458,1.52349 -0.62013,1.40331 -1.49079,2.07121 -2.82123,2.72254 0,0 -8.44289,6.60551 -8.44289,6.60551 l 0,0 c -1.85795,0.84657 -3.66209,1.80459 -5.57585,2.52385 -4.52215,0.67743 -8.95927,-1.25968 -13.52398,-1.08728 -10.34037,-0.74462 -20.70838,-0.99248 -31.07093,-1.21979 -10.48259,-0.23528 -20.96426,-0.50774 -31.44322,-0.87304 -4.42077,-0.14022 -8.839,-0.36044 -13.25489,-0.6098 -2.00053,-0.4365 -2.03461,-1.55477 -1.2626,-3.14048 1.57979,-5.66568 2.15362,-11.5498 3.00847,-17.35173 1.75992,-12.94647 3.77066,-25.85773 5.57531,-38.79795 2.03129,-12.24023 3.87792,-24.53092 6.86989,-36.58512 0,0 11.61961,-5.52235 11.61961,-5.52235 z" />
    <path
       style="fill:#000000;fill-opacity:1;stroke:#000000;stroke-width:2;stroke-linecap:round;stroke-miterlimit:4;stroke-opacity:1;stroke-dasharray:none"
       id="path2854"
       d="m 541.41052,876.13592 c 1.00975,11.94633 0.41518,23.9127 -0.3412,35.85012 -1.2551,15.30174 -3.58412,30.48441 -6.1735,45.6087 -1.41969,7.5804 -2.52023,15.24938 -4.52102,22.70775 -1.8427,6.94224 -0.77453,4.00537 -15.60774,8.87509 -0.84994,0.27903 -1.42649,-6.39476 -1.4333,-6.47943 -0.25458,-10.35601 2.13248,-20.55422 4.54534,-30.55585 3.60751,-14.45343 10.06557,-27.68263 18.44408,-39.91223 11.07753,-14.76789 26.34458,-24.63792 43.25553,-31.88571 9.57909,-3.21388 16.88352,-2.03237 25.15014,3.43939 6.14781,5.16248 8.9822,12.04628 8.97096,19.93499 -0.96118,8.98974 -6.98655,15.29558 -13.5765,20.86224 -12.4583,8.84296 -25.7967,16.6835 -40.13873,22.02925 -16.60731,7.78662 6.14693,-7.38399 10.53531,-6.23727 6.33538,1.88831 12.5867,4.01801 18.78023,6.32661 7.65502,2.85377 14.88832,6.65499 22.12291,10.41401 5.86408,3.23324 11.64308,6.61344 17.4212,9.99772 4.23148,2.66571 8.82352,4.76523 12.90563,7.65814 2.43202,2.10717 4.59429,4.78163 3.93242,8.13469 -2.21017,3.95546 -4.67488,4.72232 -8.88959,6.57863 0,0 0.51304,-0.25163 0.51304,-0.25163 l 0,0 c -4.37088,3.36759 -6.1295,5.16266 -11.37906,4.88676 -2.50036,-1.34137 -3.09432,-4.26067 -5.26993,-6.04011 -3.64804,-3.06121 -7.77183,-5.46005 -11.71895,-8.11011 -5.50828,-3.51516 -10.98257,-7.08416 -16.61478,-10.39941 -6.80889,-4.00283 -13.81378,-7.67966 -21.10059,-10.74228 -5.95769,-2.47102 -12.11499,-4.47664 -17.92432,-7.27204 -9.29963,-7.8182 13.7301,-13.28751 21.36463,-16.45837 3.28446,-1.31506 4.16123,-1.61488 7.45446,-3.15594 1.3909,-0.65087 5.42691,-2.86062 4.13662,-2.02793 -23.63832,15.25505 -8.32878,4.50382 -3.10521,1.50187 6.64568,-5.24985 12.93998,-11.09011 14.77252,-19.72643 0.53704,-7.37987 -1.38189,-14.01611 -7.21227,-18.94598 -7.35275,-5.16419 -15.33462,-5.68745 -23.73549,-2.41242 -1.63791,0.74509 -6.33306,3.34141 -4.91375,2.23529 2.56956,-2.00254 5.39955,-3.73933 8.41754,-4.96591 1.96431,-0.79834 -3.52438,2.36403 -5.203,3.65945 -5.56768,4.29666 -10.47892,9.33347 -14.84274,14.83983 -8.59421,11.95923 -15.33454,24.94322 -18.69456,39.39144 -2.331,9.70961 -4.3444,19.62638 -3.90173,29.67024 0.098,1.16801 0.20052,3.12265 0.4972,4.34941 0.0797,0.32962 0.66033,0.75124 0.38088,0.94336 -27.29931,18.76855 -14.36152,10.48753 -11.70971,6.05053 3.75353,-7.521 5.77093,-15.66916 7.52299,-23.85905 2.98883,-15.28151 5.8197,-30.60696 7.42234,-46.10837 1.32129,-12.19733 2.18418,-24.42738 2.24652,-36.70242 0,0 7.21518,-3.69662 7.21518,-3.69662 z" />
  </g>
</svg>
