<?xml version="1.0" encoding="UTF-8" standalone="no"?>
<!-- Created with Inkscape (http://www.inkscape.org/) -->
<svg
   xmlns:dc="http://purl.org/dc/elements/1.1/"
   xmlns:cc="http://creativecommons.org/ns#"
   xmlns:rdf="http://www.w3.org/1999/02/22-rdf-syntax-ns#"
   xmlns:svg="http://www.w3.org/2000/svg"
   xmlns="http://www.w3.org/2000/svg"
   xmlns:sodipodi="http://sodipodi.sourceforge.net/DTD/sodipodi-0.dtd"
   xmlns:inkscape="http://www.inkscape.org/namespaces/inkscape"
   width="1265.321"
   height="1121.7146"
   id="svg2"
   sodipodi:version="0.32"
   inkscape:version="0.46+devel"
   version="1.0"
   sodipodi:docname="c17d1.svg"
   inkscape:output_extension="org.inkscape.output.svg.inkscape">
  <defs
     id="defs4">
    <inkscape:perspective
       sodipodi:type="inkscape:persp3d"
       inkscape:vp_x="0 : 526.18109 : 1"
       inkscape:vp_y="0 : 1000 : 0"
       inkscape:vp_z="744.09448 : 526.18109 : 1"
       inkscape:persp3d-origin="372.04724 : 350.78739 : 1"
       id="perspective10" />
  </defs>
  <sodipodi:namedview
     id="base"
     pagecolor="#ffffff"
     bordercolor="#666666"
     borderopacity="1.0"
     inkscape:pageopacity="0.0"
     inkscape:pageshadow="2"
     inkscape:zoom="1.123573"
     inkscape:cx="341.85134"
     inkscape:cy="169.68317"
     inkscape:document-units="px"
     inkscape:current-layer="layer1"
     showgrid="false"
     inkscape:window-width="1280"
     inkscape:window-height="708"
     inkscape:window-x="-5"
     inkscape:window-y="-3" />
  <metadata
     id="metadata7">
    <rdf:RDF>
      <cc:Work
         rdf:about="">
        <dc:format>image/svg+xml</dc:format>
        <dc:type
           rdf:resource="http://purl.org/dc/dcmitype/StillImage" />
        <dc:title></dc:title>
      </cc:Work>
    </rdf:RDF>
  </metadata>
  <g
     inkscape:label="Layer 1"
     inkscape:groupmode="layer"
     id="layer1"
     transform="translate(99.066384,122.56573)">
    <path
       style="fill:#000000;fill-opacity:1;stroke:#000000;stroke-width:15.89999962;stroke-linecap:round;stroke-miterlimit:4;stroke-opacity:1;stroke-dasharray:none"
       id="path2842"
       d="m -48.301416,907.9377 c 6.226773,-9.3062 12.750589,-18.40589 19.324422,-27.46844 C -18.915328,866.93498 -8.6165284,853.58009 1.5009807,840.08787 14.292685,823.05576 26.632001,805.69088 39.20345,788.49676 51.314804,771.62117 64.267057,755.39359 77.680525,739.54283 89.398587,725.95745 101.5623,712.76807 113.70962,699.56841 c 8.95411,-9.77152 18.01564,-19.44476 27.14736,-29.0504 4.97324,-5.15425 9.90639,-10.34669 14.92007,-15.46163 2.27072,-2.17358 4.39503,-4.5331 6.86951,-6.48293 13.31917,-9.59234 15.75188,-11.03823 27.41751,-12.12267 6.92772,-0.5727 13.82802,-1.39734 20.73187,-2.19622 12.38933,-1.43721 24.78751,-2.79346 37.19686,-4.04829 18.60661,-1.9908 37.24182,-3.70315 55.88525,-5.30771 23.95622,-2.09492 47.96302,-3.54609 71.9769,-4.78257 27.51442,-1.27159 55.05061,-1.95211 82.57636,-2.91731 29.59758,-0.91176 59.1504,-2.79684 88.67427,-5.0224 27.35245,-2.20661 54.7115,-4.34814 82.09081,-6.19625 20.52422,-1.32166 41.0734,-2.20111 61.61585,-3.18196 11.57135,-0.48803 23.13805,-1.09481 34.69088,-1.91303 0.62979,0.0806 12.54995,-2.0303 7.11734,1.32195 -10.49519,6.11894 -11.98741,7.53139 -5.6021,2.57141 0,0 0.51321,-0.25129 0.51321,-0.25129 l 0,0 c 7.31769,-0.77137 4.05302,-0.97305 -6.81046,7.06442 -4.56639,2.32346 -8.73541,3.48376 -13.94779,3.06096 -11.31833,0.4484 -22.63554,0.92172 -33.95541,1.33192 -20.26901,0.687 -40.537,1.4506 -60.78389,2.63941 -27.23382,1.77599 -54.45079,3.78837 -81.66053,5.90071 -29.52865,2.1862 -59.08398,3.98593 -88.6818,4.92638 -27.48042,0.97012 -54.97723,1.49733 -82.4434,2.85888 -24.05358,1.18825 -48.08913,2.7774 -72.0751,4.95135 -18.7158,1.68775 -37.42276,3.4868 -56.1051,5.51236 -12.47424,1.33966 -24.94703,2.68779 -37.39729,4.23704 -6.99686,0.86188 -13.99866,1.66895 -21.01346,2.37217 -9.70059,1.16975 -20.60547,7.39545 10.42971,-8.80859 -3.18979,1.73627 -5.87016,4.37583 -8.58849,6.73467 -5.26811,5.10322 -10.34356,10.39796 -15.47459,15.63783 -9.29974,9.64631 -18.47358,19.41267 -27.61624,29.20777 -12.2438,13.22884 -24.47274,26.47754 -36.355769,40.0327 -13.678419,15.86666 -26.818449,32.18557 -39.181366,49.10369 -12.689784,17.33465 -25.285912,34.73937 -38.256478,51.86634 -10.5731674,13.70727 -21.2609918,27.32353 -31.899033,40.97977 -7.143662,9.251 -14.199905,18.57439 -20.958406,28.11177 0,0 -13.058094,5.68904 -13.058094,5.68904 z" />
    <path
       style="fill:#000000;fill-opacity:1;stroke:#000000;stroke-width:15.89999962;stroke-linecap:round;stroke-miterlimit:4;stroke-opacity:1;stroke-dasharray:none"
       id="path2844"
       d="m 743.09528,558.05752 c 6.1687,6.33209 13.14951,11.71716 20.32023,16.84574 6.50034,4.6954 13.61193,8.34372 20.85515,11.71923 4.05198,2.22157 8.88554,2.91607 12.84872,5.25216 3.39404,3.22734 -1.09638,5.89437 -3.5804,7.66925 -7.68147,5.09126 -15.34558,10.20765 -22.96124,15.39697 -9.6745,6.59638 -19.31387,13.24401 -28.95461,19.88954 -9.88816,6.51954 -20.11594,12.94726 -30.84326,18.00542 -0.26139,0.12325 -0.32514,-0.47785 -0.48771,-0.71677 0.52166,-0.87006 1.04332,-1.74012 1.56498,-2.61018 0,0 0.47304,-0.32056 0.47304,-0.32056 l 0,0 c 1.37007,-0.58197 2.74013,-1.16393 4.1102,-1.74589 0.97324,-0.49246 3.85938,-2.03123 2.91972,-1.47739 -19.34913,11.4044 -2.45768,0.2034 1.24427,-2.87054 9.57748,-6.63018 19.14792,-13.27031 28.77118,-19.83429 7.66379,-5.2107 15.34754,-10.39153 23.11195,-15.45164 1.66486,-1.08939 3.38669,-2.46506 5.2062,-3.31227 0.38597,-0.17972 1.09945,0.0559 1.22846,-0.34984 0.0495,-0.15553 -0.15419,-0.28768 -0.23129,-0.43152 -3.48923,-2.52822 -7.60097,-3.93923 -11.42881,-5.84886 -7.27725,-3.4987 -14.37626,-7.35332 -20.91931,-12.11887 -7.2161,-5.23952 -14.13357,-10.88728 -20.57541,-17.06196 0,0 17.32794,-10.62773 17.32794,-10.62773 z" />
    <path
       style="fill:#000000;fill-opacity:1;stroke:#000000;stroke-width:15.89999962;stroke-linecap:round;stroke-miterlimit:4;stroke-opacity:1;stroke-dasharray:none"
       id="path2846"
       d="m -66.907643,869.67481 c -1.029747,10.92196 -2.467843,21.79333 -4.080039,32.64262 -1.681387,10.17164 -3.652967,20.29231 -5.906763,30.35208 -0.413171,2.73501 -3.521982,9.68439 0.995495,10.52947 6.195214,-0.919 25.287811,-12.75545 2.662326,0.0406 10.519151,-6.75314 20.591698,-14.16494 30.85247,-21.29741 14.344347,-9.60903 29.012933,-18.96845 44.7326302,-26.17528 1.3542478,-0.3112 10.4550248,-5.33999 10.5804508,-1.80419 -0.496588,1.055 -0.158018,0.57769 -1.037692,1.41608 0,0 -4.0093191,3.12328 -4.0093191,3.12328 l 0,0 c -2.3162261,1.36085 -1.1147508,0.70021 -3.6093125,1.97302 -5.26578119,2.48658 -10.7189159,4.40934 -16.1162494,6.58168 -5.066912,2.40875 -19.800505,10.47308 2.2458241,-1.95907 1.7717187,-0.99909 -3.5004611,2.07312 -5.2287141,3.14564 -4.259168,2.64318 -6.888258,4.43605 -11.086237,7.22281 -10.536655,7.23141 -20.867056,14.76823 -31.607736,21.6983 -6.158451,3.60099 -12.297182,7.23593 -18.475355,10.80298 -3.822638,2.20705 -8.528868,5.16877 -13.078311,3.82735 -3.921247,-3.41838 -1.143602,-8.81895 -0.282261,-13.13115 2.47037,-10.19159 4.96617,-20.38376 6.840254,-30.70645 1.934744,-10.77596 3.397545,-21.62354 4.152232,-32.55102 0,0 11.456307,-5.73131 11.456307,-5.73131 z" />
    <path
       style="fill:#000000;fill-opacity:1;stroke:#000000;stroke-width:15.89999962;stroke-linecap:round;stroke-miterlimit:4;stroke-opacity:1;stroke-dasharray:none"
       id="path2848"
       d="m 168.43329,647.27886 c 1.37946,-10.05008 2.67569,-20.11031 3.90019,-30.18041 1.9868,-15.04204 3.29749,-30.15811 4.52055,-45.27753 1.44929,-20.89687 2.49806,-41.82204 3.20711,-62.75668 0.98445,-24.95834 1.45712,-49.93424 1.88318,-74.90737 0.36376,-22.51843 0.5803,-45.03946 0.67106,-67.56061 0.10011,-14.9214 -0.43539,-29.83692 -1.52501,-44.71652 -0.75227,-8.76146 -1.74126,-17.50071 -2.68302,-26.24339 -0.54205,-4.61361 -1.05358,-9.24267 -1.86057,-13.8192 -0.51307,-3.49527 -0.28228,-7.01724 -0.20946,-10.52728 -0.0213,-0.18653 -0.1196,-1.51132 -0.29659,-1.8947 -0.21465,-0.46493 -0.22513,1.74462 0.2342,1.51827 14.36826,-7.08039 18.94085,-13.95901 14.6508,-7.81837 -2.6402,4.54834 -5.05266,9.22695 -7.56873,13.8458 -3.78676,6.88819 -7.55763,13.78511 -11.31946,20.68698 -4.35033,7.96643 -8.61201,15.98309 -12.68426,24.09544 -1.52051,3.91514 -4.8239,8.31466 -4.86423,12.43423 -0.33004,-7.14792 0.33388,-0.76705 -15.46584,7.31272 -0.5318,0.27196 0.85408,-0.8383 1.23501,-1.29838 1.8903,-2.28298 3.31432,-4.90235 4.78896,-7.45697 4.37464,-8.06005 8.31602,-16.34395 12.55348,-24.47558 4.18321,-8.0754 8.91818,-15.84107 14.06688,-23.33254 3.16924,-4.60864 6.65131,-9.00834 10.66167,-12.9124 7.9026,-6.1504 16.30878,-16.1638 25.7623,-10.00621 3.72521,3.22265 7.25169,6.68419 10.77295,10.12984 5.60234,5.26619 11.08515,10.61978 15.49411,16.93924 2.14296,6.10133 5.99712,11.9451 5.75571,18.54494 0,0 -0.48439,0.30314 -0.48439,0.30314 l 0,0 c -1.42336,-0.13053 -2.88898,-0.0234 -4.27009,-0.39159 -6.00659,-1.60119 -10.93292,-6.53155 -16.50536,-9.05116 -5.889,-5.0101 -10.92621,-10.85997 -16.54258,-16.1649 -3.45595,-3.31438 -6.6673,-6.93196 -10.51791,-9.80063 -0.95444,-0.55794 -1.34073,-0.94896 -2.46179,-1.0116 -0.39216,-0.0219 -1.50103,0.35865 -1.16882,0.14913 26.87361,-16.94877 17.65515,-10.67566 11.93815,-6.91227 -4.27143,3.6896 -7.75881,8.15193 -11.12828,12.65928 -5.27329,7.40037 -10.09073,15.11436 -14.30335,23.17163 -4.24894,8.11222 -8.30269,16.31921 -12.44483,24.48564 -4.11803,7.60161 -13.85294,24.89591 -24.28413,18.6112 -1.93951,-4.4926 3.41706,-10.19084 4.57031,-14.31227 4.08251,-8.08959 8.19591,-16.16376 12.56466,-24.10404 3.73221,-6.91344 7.51698,-13.7966 11.30346,-20.68024 2.49268,-4.61017 4.94466,-9.24213 7.39343,-13.87565 3.70911,-6.92251 19.28414,-18.47615 18.86698,-7.65263 -0.0691,3.44581 -0.41779,6.89718 -0.0516,10.33452 0.49241,4.67881 1.44234,9.31209 1.60361,14.03207 0.83829,8.81246 1.73101,17.6209 2.41652,26.44683 0.96115,15.02165 1.23453,30.06623 1.02998,45.11799 -0.26486,22.5821 -0.61645,45.16335 -0.99664,67.74376 -0.44376,25.01677 -1.08859,50.02761 -2.04483,75.03061 -0.96746,20.99291 -1.81643,41.9948 -3.44149,62.95077 -1.29148,15.34531 -2.94033,30.664 -5.49142,45.85704 -1.64147,10.34043 -3.46079,20.65433 -5.42171,30.93838 0,0 -11.8089,5.80167 -11.8089,5.80167 z" />
    <path
       style="fill:#000000;fill-opacity:1;stroke:#000000;stroke-width:15.89999962;stroke-linecap:round;stroke-miterlimit:4;stroke-opacity:1;stroke-dasharray:none"
       id="path2850"
       d="m 182.3805,441.50931 c -6.93708,-1.07822 -13.89635,-0.87305 -20.83045,-0.001 -6.38065,1.02082 -12.35917,3.48167 -18.22895,6.08166 -0.99956,0.46552 -2.00574,0.91708 -2.99869,1.39655 -2.09884,1.01347 -3.73905,1.87262 -5.77892,2.9949 -0.91685,0.50442 -3.63861,2.06896 -2.73404,1.54287 7.0961,-4.12707 5.02754,-2.8931 2.07902,-1.08432 -4.03764,2.47814 -7.96594,5.10108 -11.50141,8.25991 -2.96755,2.81656 -5.30192,6.16078 -7.40523,9.64478 -1.91237,3.37261 -3.53865,6.89352 -4.93725,10.50656 -1.81974,4.62559 -3.18373,9.40754 -4.29642,14.24648 -1.29561,5.90836 -2.29255,11.87681 -3.13548,17.86481 -0.65219,4.68061 -1.11503,9.38526 -1.61567,14.08408 -0.36326,3.8499 -1.215608,7.5919 -2.402599,11.2627 -1.154881,3.41159 -2.713831,6.6713 -4.438877,9.82749 -1.680654,3.17462 -3.65664,6.17341 -5.710453,9.11542 -2.2706,3.28661 -4.62313,6.51581 -6.932879,9.775 -2.701928,3.75966 -5.249302,7.62563 -7.803956,11.48573 -3.08942,4.76171 -6.369035,9.39652 -9.68023,14.00571 -3.941914,5.33692 -7.301075,11.03677 -10.351467,16.91799 -3.181214,6.27175 -5.837167,12.79021 -8.510948,19.28888 -2.822936,6.69716 -5.071895,13.60109 -6.754381,20.66664 -1.795298,7.45094 -1.921944,15.0417 -1.234559,22.62986 1.082797,8.55544 3.747937,16.77222 6.806258,24.79707 3.236858,8.66551 7.516331,16.85677 12.232717,24.79324 4.687357,7.51643 9.881682,14.69358 14.703322,22.12237 4.772712,7.37699 7.848352,15.54479 10.405932,23.89442 2.496556,9.06958 4.597167,18.24626 6.582896,27.43967 1.897984,9.11214 3.939418,18.1874 6.466019,27.14734 1.948732,7.65924 5.135488,14.7917 9.688115,21.23194 4.42018,5.72979 10.39727,9.4516 16.96921,12.22234 8.21803,3.16503 17.01382,3.85948 25.72701,4.23231 11.94428,0.15989 23.38201,-3.05015 34.48461,-7.12534 17.84522,-7.96343 15.35057,-6.95857 29.45906,-16.51892 13.32418,-9.33698 25.74579,-19.8708 37.89311,-30.6707 11.1315,-9.96511 21.63887,-20.59355 31.54044,-31.77524 7.71692,-8.5965 13.83747,-18.32652 18.92035,-28.65526 4.446,-9.70397 7.35919,-19.99073 9.93631,-30.31829 2.09637,-8.75977 3.84272,-17.59562 6.03558,-26.33234 2.23539,-8.86909 5.69747,-17.32203 9.61086,-25.56305 4.69237,-9.71388 10.99293,-18.44796 17.78177,-26.77791 6.60391,-7.96305 14.10815,-15.08821 21.65575,-22.13611 6.4625,-6.02047 13.14127,-11.80322 19.46899,-17.96699 4.3922,-4.17454 8.06453,-8.90449 10.58905,-14.41009 2.12303,-5.45995 2.42075,-11.34241 2.38998,-17.13396 -0.15563,-8.13423 -2.05337,-16.03947 -4.25744,-23.82167 -2.6385,-8.94252 -7.09083,-17.0361 -12.37175,-24.65475 -5.52981,-7.56699 -12.27823,-14.08117 -19.15656,-20.39707 -6.34745,-5.85584 -13.14224,-11.16485 -20.39663,-15.84216 -6.53657,-4.2627 -13.81407,-7.00467 -21.13812,-9.55428 -6.83584,-2.31876 -13.94109,-3.60394 -21.06047,-4.66826 -7.50481,-0.98968 -15.08407,-1.17131 -22.64365,-1.25717 -8.06768,-0.0881 -16.1324,0.10276 -24.19826,-0.14628 -5.48148,-0.828 -11.52951,-1.33108 -16.45409,-4.16852 -1.32594,-0.76398 -2.42042,-1.87313 -3.63063,-2.8097 0,0 0.23709,-0.15944 0.23709,-0.15944 l 0,0 c 9.45756,1.44695 18.85623,2.56274 28.39822,0.91387 8.34778,-0.37107 16.70503,-0.53881 25.06131,-0.44511 7.56624,0.16966 15.15247,0.33755 22.65388,1.4408 7.14136,1.10785 14.23962,2.54994 21.08652,4.90966 7.37077,2.60508 14.64044,5.52295 21.2156,9.82713 7.28413,4.75142 14.16526,10.03903 20.52291,15.98846 6.91882,6.38164 13.73879,12.95381 19.22794,20.64633 5.33436,7.70927 9.91089,15.91158 12.56975,24.96007 2.35317,7.82666 4.23187,15.85706 4.45956,24.06338 0.11354,5.93539 -0.14182,11.96899 -2.23017,17.5956 -2.43219,5.72976 -6.16342,10.59383 -10.65065,14.90483 -6.37791,6.19977 -13.08449,12.03933 -19.63056,18.05886 -7.5255,7.00329 -15.04567,14.04742 -21.63047,21.96785 -6.78473,8.21008 -13.01405,16.8581 -17.71685,26.45771 -3.91456,8.13895 -7.30839,16.51851 -9.54748,25.28873 -2.23724,8.72513 -3.9129,17.57969 -6.05301,26.32887 -2.4679,10.37556 -5.36695,20.69484 -9.69231,30.4695 -4.957,10.4586 -11.03512,20.27353 -18.77687,28.93506 -9.89088,11.22965 -20.40032,21.89328 -31.51932,31.91492 -12.13251,10.8339 -24.54328,21.39547 -37.82813,30.80631 -15.54942,10.5972 -31.68941,20.59748 -49.14572,27.74433 -11.21364,3.97046 -22.73781,7.09535 -34.753,6.76646 -8.80107,-0.42988 -17.69503,-1.22298 -25.93787,-4.5876 -6.70059,-2.94463 -12.795042,-6.8281 -17.212268,-12.80838 -4.613784,-6.58672 -7.798825,-13.82565 -9.731685,-21.65156 -2.42172,-9.02144 -4.510382,-18.11289 -6.379468,-27.26487 -1.972673,-9.1743 -4.081723,-18.32334 -6.456862,-27.40198 -2.530846,-8.25639 -5.411975,-16.40194 -10.173984,-23.68683 -4.72382,-7.50114 -9.987386,-14.64745 -14.558242,-22.24752 -4.748832,-8.00052 -8.966756,-16.29631 -12.184855,-25.04223 -2.913466,-8.195 -5.602652,-16.52078 -6.619436,-25.19936 -0.755008,-7.67518 -0.654883,-15.35419 1.070682,-22.91407 1.633814,-7.11654 3.856724,-14.06907 6.678392,-20.80904 2.70019,-6.6155 5.583168,-13.16536 8.822498,-19.53632 3.188825,-5.9438 6.623413,-11.75057 10.632583,-17.18631 3.315604,-4.60417 6.598648,-9.23372 9.711194,-13.9785 2.546525,-3.86338 5.075687,-7.73961 7.769545,-11.503 2.316926,-3.28686 4.697626,-6.52723 7.021944,-9.8089 2.076143,-2.95997 4.163825,-5.91541 5.897737,-9.09571 1.784729,-3.13351 3.409585,-6.36674 4.658784,-9.75457 1.334139,-3.58836 2.105886,-7.32418 2.557266,-11.12433 0.630419,-4.73778 1.063705,-9.50208 1.837386,-14.22195 0.956076,-6.02832 2.031922,-12.03705 3.284758,-18.01132 1.124908,-4.86106 2.382081,-9.69825 4.232341,-14.343 1.36782,-3.67529 2.99163,-7.24039 4.91704,-10.65975 2.0955,-3.54434 4.37125,-6.98162 7.33449,-9.87607 3.44682,-3.28554 7.38624,-5.8982 11.42611,-8.40506 7.70576,-4.73913 15.53301,-9.35447 23.79792,-13.0601 5.89711,-2.56478 11.91367,-4.98605 18.33373,-5.85341 6.93008,-0.79338 13.87064,-0.75122 20.78456,0.28877 0,0 -6.60843,4.66985 -6.60843,4.66985 z" />
    <path
       style="fill:#000000;fill-opacity:1;stroke:#000000;stroke-width:15.89999962;stroke-linecap:round;stroke-miterlimit:4;stroke-opacity:1;stroke-dasharray:none"
       id="path2852"
       d="m 64.191481,554.23241 c -3.288681,9.38888 -5.908238,18.99852 -8.488179,28.60151 -2.428674,9.13475 -4.728473,18.30373 -6.964661,27.48715 -1.103411,4.97452 -2.511394,9.87298 -3.715404,14.82156 -0.689644,3.24747 1.820325,3.48038 4.388734,3.76683 5.820953,0.34215 11.620851,-0.33553 17.393065,-0.9929 8.697787,-1.12286 17.288788,-2.90774 25.789196,-5.04091 6.940044,-1.79546 13.753958,-4.02037 20.636558,-6.01556 -0.69064,-0.53146 6.17181,-1.50275 4.74114,-0.6995 -1.27168,0.71398 -2.62041,1.28109 -3.93061,1.92163 0.19567,-0.52125 0.39134,-1.04251 0.58701,-1.56377 0,0 0.24996,-0.13839 0.24996,-0.13839 l 0,0 c 0.45932,0.21449 0.91865,0.42897 1.37798,0.64346 -3.88626,3.38308 -6.66158,5.63228 -11.71922,6.53467 -6.81974,1.9662 -13.600849,4.06625 -20.474943,5.83947 -8.544872,2.09941 -17.179351,3.86138 -25.915842,4.9552 -5.765746,0.60503 -11.592067,1.17536 -17.387953,0.66108 -3.062811,-0.51416 -5.768024,-1.64277 -5.324491,-5.26836 1.20881,-5.03362 2.826597,-9.95854 4.036595,-14.9931 2.507056,-9.21447 4.864358,-18.4694 7.35477,-27.68849 2.65964,-9.62813 5.370183,-19.25189 8.572906,-28.71573 0,0 8.793389,-4.11585 8.793389,-4.11585 z" />
    <path
       style="fill:#000000;fill-opacity:1;stroke:#000000;stroke-width:15.89999962;stroke-linecap:round;stroke-miterlimit:4;stroke-opacity:1;stroke-dasharray:none"
       id="path2854"
       d="m -32.657515,459.67306 c -0.358687,10.53388 -0.08303,21.07404 0.307465,31.60228 0.457777,9.75156 1.317646,19.47781 1.62584,29.23646 0.662094,7.24219 -0.487048,14.33217 -2.26997,21.31918 -0.224208,0.4769 -0.448416,0.95381 -0.672624,1.43071 0,0 -1.785735,0.89885 -1.785735,0.89885 l 0,0 c -0.187674,-0.26589 -0.375348,-0.53179 -0.563022,-0.79768 -1.788291,-6.15994 -2.501806,-12.45886 -2.422363,-18.88025 -0.504983,-9.76133 -1.074618,-19.51845 -1.546893,-29.28177 -0.385028,-10.57338 -0.553299,-21.15979 -0.195873,-31.73702 0,0 7.523175,-3.79076 7.523175,-3.79076 z" />
    <path
       style="fill:#000000;fill-opacity:1;stroke:#000000;stroke-width:15.89999962;stroke-linecap:round;stroke-miterlimit:4;stroke-opacity:1;stroke-dasharray:none"
       id="path2856"
       d="m -50.74731,455.99031 c 6.961763,-3.91815 14.547324,-6.24576 22.338838,-7.79129 6.659416,-1.16841 13.412036,-1.31789 20.1502914,-1.13258 3.323524,0.38994 6.6728076,0.3388 10.0071955,0.5754 0,0 -0.2284003,0.17166 -0.2284003,0.17166 l 0,0 c -4.9970429,1.46469 -10.0880784,2.62022 -15.2599686,3.27071 -6.977561,0.69829 -14.013329,0.7243 -20.944062,1.86272 -7.538958,1.47006 -14.884768,3.74017 -21.610687,7.53395 0,0 5.546793,-4.49057 5.546793,-4.49057 z" />
    <path
       style="fill:#000000;fill-opacity:1;stroke:#000000;stroke-width:15.89999962;stroke-linecap:round;stroke-miterlimit:4;stroke-opacity:1;stroke-dasharray:none"
       id="path2858"
       d="m -51.789999,559.19485 c 9.15568,-2.85252 18.486714,-5.03612 27.862946,-7.01554 8.746066,-1.54715 17.4182484,-3.48912 26.1545943,-5.07921 4.4925955,-0.39614 8.9015537,-1.23574 13.1733977,-2.67252 0,0 -0.223512,0.17798 -0.223512,0.17798 l 0,0 c -6.0708566,3.30747 -12.5278824,5.61754 -19.2449238,7.27657 -8.7964292,2.17533 -17.6887842,3.86284 -26.6150312,5.41602 -8.904812,1.74926 -17.770313,3.67268 -26.525607,6.07483 0,0 5.418136,-4.17813 5.418136,-4.17813 z" />
    <path
       style="fill:#000000;fill-opacity:1;stroke:#000000;stroke-width:15.89999962;stroke-linecap:round;stroke-miterlimit:4;stroke-opacity:1;stroke-dasharray:none"
       id="path3632"
       d="m 195.17066,643.37111 c 7.15225,-8.2898 14.33576,-16.55153 21.44033,-24.8824 14.4028,-17.09587 28.65004,-34.32107 42.75487,-51.66335 20.46672,-25.30108 40.39997,-51.02707 60.27761,-76.79151 23.59394,-30.71918 47.31327,-61.34105 71.35552,-91.71085 24.85135,-31.38016 50.5505,-62.07123 76.46642,-92.57313 25.15905,-29.54683 50.96967,-58.52653 77.15956,-87.16052 21.58043,-23.67929 44.28285,-46.28601 67.51658,-68.33193 16.71679,-15.60868 33.73296,-30.89243 50.77233,-46.14693 12.78168,-11.420822 25.48099,-22.934306 38.03784,-34.601975 10.8401,-10.046521 21.215,-20.572903 31.45377,-31.226124 10.26798,-10.665557 19.99161,-21.83036 29.54357,-33.135542 8.50995,-10.150419 16.78264,-20.49558 25.19189,-30.72891 4.89022,-5.992011 10.05395,-11.744615 15.59771,-17.137063 2.29658,-1.423688 8.21528,-8.187066 7.60512,-1.978857 0.0193,0.359244 0.0386,0.718489 0.0579,1.077733 0,0 -0.25065,0.137137 -0.25065,0.137137 l 0,0 c -0.17151,-0.271162 -0.34303,-0.542325 -0.51454,-0.813487 -0.47837,-0.266835 -1.07399,-0.68643 -1.66598,-0.678568 -0.33544,0.0045 -1.23704,0.4603 -0.97446,0.251522 6.03697,-4.799991 2.33983,-1.058543 1.12291,-0.222211 -5.33474,5.428276 -10.42675,11.082421 -15.28597,16.942027 C 784.3671,-17.779003 776.07804,-7.4102476 767.55672,2.7687161 757.97945,14.10979 748.23397,25.314568 737.91184,35.989518 727.51976,46.753276 716.96448,57.363829 705.927,67.470782 c -12.80083,11.753361 -25.74839,23.346231 -38.73339,34.895508 -17.25824,15.33921 -34.47541,30.72811 -51.43003,46.40314 -23.53071,22.07954 -46.48737,44.77325 -68.25196,68.6093 -26.23885,28.63042 -52.03001,57.66731 -77.26138,87.19132 -26.02976,30.54521 -51.85675,61.26907 -76.80704,92.70735 -24.18322,30.48912 -48.08063,61.20176 -71.92853,91.95359 -20.08146,25.79363 -40.18646,51.5706 -60.73806,76.99288 -14.07786,17.35684 -28.26553,34.62534 -42.73443,51.6585 -7.09317,8.35578 -14.28059,16.62923 -21.47482,24.89791 0,0 -1.3967,0.59083 -1.3967,0.59083 z" />
    <path
       style="fill:#000000;fill-opacity:1;stroke:#000000;stroke-width:15.89999962;stroke-linecap:round;stroke-miterlimit:4;stroke-opacity:1;stroke-dasharray:none"
       id="path3634"
       d="m 445.69501,82.630383 c 6.48158,6.228437 11.56688,13.659947 16.27641,21.263987 4.37387,7.44234 8.19003,15.19572 11.7185,23.06884 2.63873,6.31631 4.68316,4.53872 -3.78475,7.22716 -3.54396,-4.17677 -4.6961,-9.43778 -5.55652,-14.69788 -1.06791,-9.82915 1.92751,-19.04895 5.97124,-27.850347 4.61051,-9.416158 11.69225,-16.762502 20.17525,-22.729951 8.44697,-5.898307 17.50796,-8.989852 27.5648,-10.344333 5.0354,-0.533481 10.10962,-0.500843 15.0391,0.712903 1.323,0.394591 2.45923,1.112607 3.47017,2.012482 0,0 -0.22379,0.177633 -0.22379,0.177633 l 0,0 c -2.25499,1.256487 -5.04353,0.73211 -7.53277,0.830659 -5.22122,-0.326776 -10.46418,-0.763813 -15.67961,-0.0501 -4.94399,0.694892 -9.74854,1.646527 -14.40265,3.523982 -1.31269,0.529532 -2.53592,1.275206 -3.87064,1.746432 -0.4824,0.170311 0.85864,-0.556408 1.28796,-0.834612 -8.50403,5.862871 -15.65455,13.080524 -20.30586,22.43669 -4.04417,8.660769 -7.05824,17.742352 -5.97795,27.447532 0.79836,5.12994 1.8872,10.32418 5.28777,14.42905 -6.51175,5.75741 -3.3663,4.64051 -5.51227,-1.78113 -2.7099,-8.2158 -6.23599,-16.13752 -10.72729,-23.54561 -4.71022,-7.56548 -9.70879,-15.095039 -16.45243,-21.029129 0,0 3.23533,-2.014254 3.23533,-2.014254 z" />
    <path
       style="fill:#000000;fill-opacity:1;stroke:#000000;stroke-width:15.89999962;stroke-linecap:round;stroke-miterlimit:4;stroke-opacity:1;stroke-dasharray:none"
       id="path3636"
       d="m 412.11341,69.160337 c 7.52188,-4.254573 14.49488,-9.41362 21.50224,-14.451346 11.66498,-8.609775 23.62128,-16.794848 35.92768,-24.457224 11.22495,-6.882972 22.77672,-13.221633 34.85343,-18.475269 3.82343,-1.473935 7.64355,-3.29336 11.75947,-3.7710548 0,0 -0.39727,0.3050473 -0.39727,0.3050473 l 0,0 c -4.65601,1.7129325 -9.25098,3.5950645 -13.85579,5.4391365 -10.2003,4.449361 -20.09492,9.574198 -29.56938,15.420473 -12.32388,7.655824 -24.29545,15.837724 -35.97082,24.452701 -8.38247,6.029326 -16.79572,12.069215 -25.94596,16.904606 0,0 1.6964,-1.36707 1.6964,-1.36707 z" />
    <path
       style="fill:#000000;fill-opacity:1;stroke:#000000;stroke-width:15.89999962;stroke-linecap:round;stroke-miterlimit:4;stroke-opacity:1;stroke-dasharray:none"
       id="path3638"
       d="m 489.03164,-1.3493355 c 8.02755,-4.8039319 16.9284,-7.6320172 25.91215,-10.0141225 6.9247,-1.485901 13.89537,-3.346726 21.01126,-3.47836 5.95766,0.510342 5.58321,4.46845 3.73913,9.0133258 -4.53705,8.5274281 -11.05507,15.7693815 -16.98727,23.3264922 -4.77052,6.215872 -2.47119,3.080499 -6.90399,9.401733 0,0 -0.26169,0.114669 -0.26169,0.114669 l 0,0 c 3.63979,-5.926517 1.8011,-2.992877 5.51467,-8.80179 4.87546,-7.377056 10.17953,-14.4916026 14.57418,-22.1687795 1.73037,-4.0337197 2.88726,-8.1098525 -2.85513,-8.5707425 -7.01798,-0.0056 -13.90498,1.885229 -20.71762,3.3776396 -4.30832,1.1529743 -8.55131,2.3732434 -12.7352,3.9299226 -2.47766,0.9218524 -4.80841,2.2211234 -7.30992,3.0761554 -0.28491,0.097387 0.44587,-0.4047858 0.66881,-0.6071788 0,0 -3.64938,1.4010357 -3.64938,1.4010357 z" />
    <path
       style="fill:#000000;fill-opacity:1;stroke:#000000;stroke-width:15.89999962;stroke-linecap:round;stroke-miterlimit:4;stroke-opacity:1;stroke-dasharray:none"
       id="path3640"
       d="m 802.26852,-31.803778 c -5.35653,-0.08663 -10.14996,-1.574334 -13.82369,-5.533384 -3.47512,-4.892386 -2.16048,-10.311521 -0.0748,-15.462813 3.07687,-6.342072 8.05617,-11.166436 13.7506,-15.159 5.64512,-3.445705 11.57216,-7.230689 18.3717,-5.544221 4.71571,2.07096 5.99991,6.841929 6.95408,11.477702 0.98357,5.777468 -0.31071,11.227017 -2.92168,16.36459 -3.91666,6.487286 -10.59657,10.181332 -17.52563,12.84142 -5.18771,1.735553 -10.54245,2.229909 -15.91303,1.253538 -3.89431,-1.192449 -6.87907,-3.785636 -7.52759,-7.870927 0.30243,-4.447991 3.56694,-7.620464 6.62128,-10.519996 4.94595,-3.991845 10.38533,-7.662637 16.45281,-9.67872 4.0699,-0.774893 6.85647,1.811634 9.08582,4.867194 2.05389,3.279952 2.29909,6.774937 1.61873,10.487051 -1.29631,4.685043 -4.2564,8.494344 -7.48292,12.015713 -4.1399,3.728804 -9.33369,7.908056 -14.74392,9.381456 -1.22449,0.260192 -1.16915,-0.221668 -1.13775,-1.339831 0,0 0.24237,-0.1513 0.24237,-0.1513 l 0,0 c 1.63328,0.04931 2.83721,-0.235675 4.24425,-1.165065 2.04696,-1.110922 4.20061,-2.298019 -1.73703,1.052553 -0.53791,0.303541 1.07552,-0.608463 1.59898,-0.936303 1.98708,-1.244505 3.86143,-2.657979 5.51521,-4.326858 3.32141,-3.44809 6.38694,-7.185827 7.87959,-11.817516 0.90758,-3.539828 0.88436,-7.007596 -0.95969,-10.27392 -2.03575,-2.977524 -4.73649,-5.28182 -8.56201,-4.33363 -1.47116,0.544482 -7.74809,3.498256 -0.77595,-0.16157 4.11873,-2.162006 -9.78681,5.357151 -5.92911,4.202187 -2.9347,2.705544 -6.18154,5.709457 -6.6194,9.900005 0.44606,3.882011 3.61376,6.108362 7.17406,7.208681 5.07633,1.022057 10.16587,0.627807 15.0866,-1.032214 0.8785,-0.337573 1.70976,-1.182156 2.63552,-1.01272 0.68218,0.124857 -2.32136,1.513557 -1.71242,1.181671 3.4388,-1.874193 6.2213,-4.714256 8.39106,-7.937919 2.83274,-5.067382 4.42975,-10.489299 3.53592,-16.346237 -0.8389,-4.507495 -2.10817,-9.164324 -6.7219,-11.092205 -4.58325,-1.02464 -7.85063,0.567796 -12.04995,2.247373 -0.22482,0.08992 0.40637,-0.263384 0.60956,-0.395076 -5.64496,3.891492 -10.62664,8.615845 -13.66785,14.869673 -2.06299,4.96964 -3.45325,10.248303 -0.081,15.003821 3.38483,3.620502 7.68309,5.481023 12.62251,5.980529 0,0 -2.42331,1.756268 -2.42331,1.756268 z" />
    <path
       style="fill:#000000;fill-opacity:1;stroke:#000000;stroke-width:15.89999962;stroke-linecap:round;stroke-miterlimit:4;stroke-opacity:1;stroke-dasharray:none"
       id="path3642"
       d="m 890.24827,-0.1962158 c 9.52258,-14.2442062 19.42313,-28.2273172 29.4518,-42.1179382 9.03486,-12.19283 18.08366,-24.435606 28.42528,-35.565594 3.17946,-2.686587 8.38843,-9.775941 13.25777,-7.384257 2.47477,4.520459 0.56114,10.838442 0.009,15.720859 -1.29821,11.042819 -1.69943,22.158056 -1.97002,33.264667 -0.17789,13.282164 -0.69326,26.5482383 -1.53047,39.8038702 -0.74431,10.8348178 -1.27387,21.6875648 -2.51278,32.4799568 -0.13093,1.056169 -0.26185,2.112339 -0.39278,3.168508 0,0 -0.37189,0.186752 -0.37189,0.186752 l 0,0 c -0.0113,-0.984865 -0.0225,-1.96973 -0.0338,-2.954595 0.0581,-10.746155 1.13965,-21.443896 1.87148,-32.1585061 0.84929,-13.262212 1.40885,-26.5367579 1.58816,-39.8264249 0.32214,-11.080661 0.63709,-22.172555 1.81826,-33.203175 0.4935,-4.89602 2.1085,-10.868389 0.0367,-15.507953 -4.21386,-2.42832 -8.09025,3.871016 -10.90393,6.048436 -10.55097,11.143857 -19.77652,23.448275 -28.90616,35.760821 -9.98615,13.753148 -19.84253,27.609819 -29.01493,41.9242148 0,0 -0.82177,0.3603584 -0.82177,0.3603584 z" />
    <path
       style="fill:#000000;fill-opacity:1;stroke:#000000;stroke-width:15.89999962;stroke-linecap:round;stroke-miterlimit:4;stroke-opacity:1;stroke-dasharray:none"
       id="path3644"
       d="m 912.42949,-25.858002 c 6.28412,3.860925 13.2789,6.17289 20.29962,8.267476 7.83784,2.182651 15.83312,3.50484 23.9463,3.944848 0,0 -0.23173,0.16714 -0.23173,0.16714 l 0,0 c -8.52352,-0.134505 -17.06845,-0.670719 -25.31532,-3.019076 -7.00021,-2.129755 -13.95464,-4.52791 -20.23082,-8.373151 0,0 1.53195,-0.987237 1.53195,-0.987237 z" />
    <path
       style="fill:#000000;fill-opacity:1;stroke:#000000;stroke-width:15.89999962;stroke-linecap:round;stroke-miterlimit:4;stroke-opacity:1;stroke-dasharray:none"
       id="path3646"
       d="m 1059.5017,-96.071476 c -5.8204,8.08664 -11.7796,16.07273 -17.6628,24.113925 -9.6718,12.979345 -18.0191,26.828985 -25.5851,41.116848 -6.3186,12.137555 -10.9495,24.9935889 -12.9169,38.5404317 -0.7788,7.4176103 0.58,14.3587593 4.3561,20.7393783 2.0389,2.517614 0.9246,1.391878 3.3195,3.400242 0,0 -0.3105,0.199607 -0.3105,0.199607 l 0,0 c -3.1314,-1.530992 -1.6289,-0.630912 -4.4992,-2.713729 -5.3591,-5.577238 -6.3684,-12.736964 -5.5979,-20.2825621 1.9617,-13.6087317 6.7721,-26.5065939 13.051,-38.7146139 7.4938,-14.307875 15.8249,-28.152798 25.4855,-41.119916 6.009,-8.152612 12.0853,-16.255097 18.184,-24.340797 0,0 2.1763,-0.938814 2.1763,-0.938814 z" />
    <path
       style="fill:#000000;fill-opacity:1;stroke:#000000;stroke-width:15.89999962;stroke-linecap:round;stroke-miterlimit:4;stroke-opacity:1;stroke-dasharray:none"
       id="path3648"
       d="m 1054.9678,-28.921699 c 2.6573,7.877306 4.1217,16.055393 5.6459,24.204574 1.3032,7.0296225 2.1629,14.1333827 3.7114,21.116128 1.3669,5.628751 3.1966,3.231414 -3.5405,5.296739 -0.424,-5.568582 0.3207,-11.036455 1.626,-16.4367884 1.657,-6.427317 4.8276,-12.039956 9.6015,-16.6158056 4.5638,-3.928162 9.4689,-6.101845 15.3399,-6.202514 0.6414,-0.0098 1.2829,-0.01967 1.9244,-0.02951 0,0 -0.2295,0.170211 -0.2295,0.170211 l 0,0 c -0.8059,0.133384 -1.6118,0.266768 -2.4176,0.400152 -5.6239,1.30395 -9.8829,2.885061 -10.0611,3.784692 -4.5869,4.4343649 -7.6416,9.9159692 -9.2192,16.1157102 -1.1619,5.3212484 -1.9062,10.6833348 -1.3655,16.1413408 -6.9065,6.35092 -4.3836,5.02695 -4.9088,-0.906178 -0.6135,-7.220117 -1.7373,-14.3812605 -2.9091,-21.529196 -1.5192,-8.109058 -2.9483,-16.281023 -5.8294,-24.046365 0,0 2.6316,-1.463192 2.6316,-1.463192 z" />
    <path
       style="fill:#000000;fill-opacity:1;stroke:#000000;stroke-width:15.89999962;stroke-linecap:round;stroke-miterlimit:4;stroke-opacity:1;stroke-dasharray:none"
       id="path3650"
       d="m 1141.624,-114.61573 c 4.8818,8.56165 7.7594,17.957783 10.2907,27.420332 3.848,16.56493 5.1157,33.5302 6.023,50.462283 1.3511,20.799799 -1.045,40.1541632 -6.9221,60.07606 -1.1749,3.173257 -2.3498,6.346515 -3.5247,9.519772 0,0 -0.2591,0.120603 -0.2591,0.120603 l 0,0 c 1.1753,-3.172507 2.3506,-6.345013 3.5258,-9.51752 4.9061,-19.4179179 6.6531,-39.289003 5.4637,-59.312402 -0.9611,-16.891657 -2.2193,-33.84454 -6.1382,-50.355364 -2.4469,-9.440301 -5.32,-18.876924 -10.4834,-27.240034 0,0 2.0243,-1.17373 2.0243,-1.17373 z" />
    <path
       style="fill:#000000;fill-opacity:1;stroke:#000000;stroke-width:15.89999962;stroke-linecap:round;stroke-miterlimit:4;stroke-opacity:1;stroke-dasharray:none"
       id="path3654"
       d="m 197.81263,376.74243 c 5.8719,-2.02281 11.8681,-3.61383 17.91906,-4.99429 7.7076,-1.72072 15.54773,-2.63795 23.41497,-3.19289 9.7698,-0.65843 19.53734,0.15199 29.28183,0.80167 10.15041,0.72725 20.22736,1.99699 30.07369,4.59598 7.66822,2.04755 14.19289,6.21133 20.11726,11.35212 4.84489,4.45574 8.7792,9.7185 12.42319,15.16545 2.93322,4.59638 5.59009,9.37828 7.17758,14.61065 0.62979,2.21271 0.44092,4.63535 0.99588,6.84202 0,0 -0.24032,0.15453 -0.24032,0.15453 l 0,0 c -2.37981,-0.31591 -3.79686,-2.77295 -5.28666,-4.43376 -2.9601,-4.51883 -5.24891,-9.40075 -8.07783,-13.99667 -3.50266,-5.46101 -7.40315,-10.68559 -12.1648,-15.1271 -5.70413,-5.10352 -12.02592,-9.29923 -19.45403,-11.4712 -9.62605,-2.72683 -19.48042,-4.18191 -29.45845,-4.90542 -9.55971,-0.75212 -19.14417,-1.54613 -28.74189,-1.11743 -7.65452,0.45999 -15.30056,1.15767 -22.80509,2.8097 -5.92262,1.29013 -11.78351,2.83122 -17.5362,4.75059 0,0 2.36181,-1.84395 2.36181,-1.84395 z" />
    <path
       style="fill:#000000;fill-opacity:1;stroke:#000000;stroke-width:15.89999962;stroke-linecap:round;stroke-miterlimit:4;stroke-opacity:1;stroke-dasharray:none"
       id="path3656"
       d="m 350.27583,272.93531 c -2.08777,5.02724 -4.98945,9.59205 -8.7759,13.49179 -5.88919,5.21038 -13.07,8.31999 -20.79858,9.26831 -6.13488,0.39936 -11.68606,-1.59944 -16.80468,-4.80458 -4.72701,-3.28846 -7.35204,-7.84066 -8.16287,-13.45926 -0.12121,-6.34762 3.43601,-10.98508 8.10621,-14.84195 7.7292,-5.50786 14.95904,-8.30836 24.15193,-6.60589 7.7996,2.06387 13.523,7.29502 18.2001,13.62405 5.62878,8.45303 6.41153,18.09465 5.68376,27.93639 -1.27976,11.49428 -6.10392,21.52821 -13.80159,30.01522 -8.69026,7.03754 -19.67922,13.93636 -31.41606,12.63128 -1.76634,-0.19641 -3.46851,-0.77687 -5.20277,-1.16531 -14.61908,-6.69072 -13.8433,-19.66023 -12.15239,-33.56908 1.91023,-10.06992 5.72907,-19.6082 9.23746,-29.18968 0,0 0.25897,-0.1207 0.25897,-0.1207 l 0,0 c -3.33536,9.10481 -6.48761,18.08616 -6.73413,27.92011 0.40612,13.99624 2.36022,24.1052 16.22217,30.21503 5.45798,1.14285 9.99883,1.54829 15.47241,-0.0127 1.70136,-0.48521 3.2271,-1.55394 4.96837,-1.86701 0.76702,-0.13791 -2.53643,1.80912 -1.92925,1.32059 1.41203,-1.13609 2.89792,-2.17718 4.34688,-3.26576 8.06517,-8.35989 13.1843,-18.30695 14.75829,-29.92913 0.83819,-9.72458 0.2784,-19.23504 -5.23693,-27.65472 -4.42494,-6.29943 -10.04158,-11.39772 -17.66977,-13.39002 -3.42311,-0.55949 -6.44079,-0.84703 -9.86802,-0.0268 -1.05986,0.25366 -2.37314,1.79588 -3.11381,0.99648 -0.67491,-0.72842 3.23579,-1.24991 2.39276,-1.7747 -0.89017,-0.55412 -1.8188,1.04392 -2.7282,1.56589 -4.52917,3.56572 -8.07737,7.90558 -7.88806,13.9824 0.90433,5.36079 3.64285,9.67386 8.21214,12.72523 4.99431,3.05041 10.34468,5.02948 16.30302,4.56613 2.29018,-0.28103 3.21699,-0.31286 5.44253,-0.90717 0.86288,-0.23042 2.89512,-1.6493 2.54883,-0.82605 -0.48125,1.14409 -2.23179,1.18585 -3.08096,2.0911 -1.30148,1.38742 6.40956,-4.2165 4.74951,-3.16408 4.18958,-3.88321 7.4857,-8.51353 9.85399,-13.72692 0,0 4.45464,-2.04851 4.45464,-2.04851 z" />
    <path
       style="fill:#000000;fill-opacity:1;stroke:#000000;stroke-width:15.89999962;stroke-linecap:round;stroke-miterlimit:4;stroke-opacity:1;stroke-dasharray:none"
       id="path3658"
       d="m 206.36774,792.94187 c 0.38899,9.26863 2.27092,18.40896 3.94166,27.51289 0.9677,5.83413 2.20735,11.59519 3.62794,17.3324 0,0 -0.25135,0.13585 -0.25135,0.13585 l 0,0 c -1.4002,-5.6545 -2.91141,-11.27448 -4.45,-16.893 -2.12485,-8.94473 -4.06785,-17.96987 -4.64565,-27.17009 0,0 1.7774,-0.91805 1.7774,-0.91805 z" />
    <path
       style="fill:#000000;fill-opacity:1;stroke:#000000;stroke-width:15.89999962;stroke-linecap:round;stroke-miterlimit:4;stroke-opacity:1;stroke-dasharray:none"
       id="path3660"
       d="m 254.52515,749.85312 c 3.63698,11.00343 6.47711,22.24305 9.69065,33.37218 0,0 -0.25067,0.13709 -0.25067,0.13709 l 0,0 c -3.42125,-10.91723 -7.83501,-21.43104 -12.11101,-32.03477 0,0 2.67103,-1.4745 2.67103,-1.4745 z" />
    <path
       style="fill:#000000;fill-opacity:1;stroke:#000000;stroke-width:15.89999962;stroke-linecap:round;stroke-miterlimit:4;stroke-opacity:1;stroke-dasharray:none"
       id="path3670"
       d="m 243.17287,935.17552 c -2.62759,-0.48656 -5.08451,0.4492 -7.40879,1.57555 -4.85225,2.78538 -7.80122,7.48146 -10.40812,12.26062 -3.78475,7.52892 -5.37453,15.79194 -6.11822,24.11306 0.0318,4.52174 -0.48241,9.96663 2.23569,13.93935 0.2949,0.43103 0.70594,0.76984 1.05891,1.15475 0.40096,0.20803 0.76986,0.49546 1.20286,0.6241 2.94522,0.87495 5.52774,-1.96313 7.37644,-3.74328 5.09397,-5.49959 8.44016,-12.24022 11.54409,-18.98575 4.53046,-10.25486 7.22283,-21.15039 9.56855,-32.07139 2.10035,-10.36435 3.51933,-20.84989 4.74447,-31.34858 0.64463,-5.46445 1.20726,-10.93831 1.74068,-16.41462 -0.33215,-0.0553 0.64058,-4.71537 0.70881,-1.52371 -0.0115,5.22742 0.2547,10.4501 0.52291,15.669 0.64512,12.03867 1.49451,24.06484 2.44538,36.08282 0.95524,12.21352 2.2586,24.39625 4.27797,36.48097 1.16026,4.86368 1.56972,10.53897 4.91614,14.52885 1.29871,1.10137 2.18131,0.46761 3.06772,-0.68626 0,0 0.0163,-0.007 0.0163,-0.007 l 0,0 c -0.91456,1.24809 -1.96326,1.91258 -3.37081,0.8662 -3.47931,-3.89269 -3.80337,-9.67974 -4.96717,-14.52263 -1.97491,-12.10349 -3.2493,-24.3003 -4.19933,-36.52549 -0.9401,-12.01429 -1.80006,-24.03487 -2.47729,-36.06719 -0.28312,-5.20918 -0.55746,-10.42187 -0.58155,-15.64002 -0.0279,-1.08561 -0.15425,-0.44296 0.31462,-1.26974 0.0775,-0.13659 -0.11026,0.29653 -0.13299,0.4519 -0.10258,0.70098 -0.15899,1.29244 -0.23791,2.01192 -0.59433,5.48446 -1.14914,10.97336 -1.81158,16.45026 -1.2497,10.50283 -2.67234,20.99454 -4.77432,31.36571 -2.34166,10.91273 -5.02022,21.80262 -9.5267,32.05768 -3.08606,6.7379 -6.41096,13.47333 -11.48459,18.97205 -1.91857,1.85525 -4.88695,4.99036 -7.95455,4.04829 -0.43369,-0.13319 -0.80154,-0.42523 -1.20231,-0.63784 -0.35121,-0.38909 -0.7607,-0.7326 -1.05363,-1.16725 -2.695,-3.99894 -2.17779,-9.44248 -2.19848,-13.97765 0.7556,-8.32663 2.35186,-16.59651 6.13574,-24.13252 2.6926,-4.94845 5.75029,-9.74859 10.83641,-12.52745 2.34461,-1.13365 4.8156,-2.06873 7.46516,-1.59327 0,0 -0.27056,0.1886 -0.27056,0.1886 z" />
    <path
       style="fill:#000000;fill-opacity:1;stroke:#000000;stroke-width:15.89999962;stroke-linecap:round;stroke-miterlimit:4;stroke-opacity:1;stroke-dasharray:none"
       id="path3672"
       d="m 316.09899,979.88445 c 1.66319,-3.47078 2.89441,-7.12334 4.11418,-10.76659 3.10729,-9.60478 5.38545,-19.44676 7.57126,-29.29327 3.01013,-13.98847 5.59087,-28.06388 8.10874,-42.14767 2.02141,-11.29362 3.90631,-22.61088 5.64698,-33.95104 0.68228,-5.30244 1.68914,-10.61265 1.63271,-15.97674 -0.23222,-2.42144 -0.74488,-3.73097 -3.36144,-3.14912 -3.83809,1.76482 -6.19275,5.5851 -8.38831,9.01464 -4.75983,8.03002 -6.88039,17.11533 -8.48691,26.20684 -1.97617,12.83059 -1.40188,25.82713 -0.48284,38.71678 0.9687,11.86817 2.70092,23.65403 4.8932,35.35271 1.36363,7.36371 3.37414,14.57099 6.16337,21.51766 1.69066,4.18135 4.06808,7.98768 6.93902,11.44736 1.73105,1.93053 3.67874,3.8226 6.35777,4.09518 0.29449,-0.0684 0.60357,-0.0909 0.88346,-0.20515 1.82238,-0.74402 2.83684,-5.1874 3.29443,-6.7724 1.55017,-6.61459 2.69138,-13.31437 4.15007,-19.94967 1.18853,-5.27162 2.62657,-10.51609 5.15592,-15.31361 0.24659,-0.37344 0.49318,-0.74687 0.73977,-1.12031 0,0 0.0163,-0.007 0.0163,-0.007 l 0,0 c -0.23083,0.36626 -0.46166,0.73252 -0.69249,1.09878 -2.38477,4.78775 -3.72255,9.98808 -4.89677,15.1865 -1.43317,6.62805 -2.55685,13.31845 -4.09073,19.92405 -0.80026,2.81008 -1.51786,6.76692 -4.9083,7.40645 -2.68124,-0.2993 -4.63778,-2.18703 -6.37846,-4.1212 -2.87404,-3.46317 -5.24837,-7.27701 -6.93532,-11.46479 -2.77958,-6.95852 -4.77415,-14.17777 -6.11341,-21.55362 -2.16055,-11.7128 -3.87307,-23.50977 -4.83751,-35.38613 -0.9197,-12.89063 -1.49631,-25.88917 0.47545,-38.72118 1.60974,-9.09829 3.73579,-18.18842 8.49866,-26.22481 2.31147,-3.61234 4.77699,-7.51341 8.86367,-9.29412 2.63984,-0.5647 3.12026,0.80595 3.32048,3.22494 0.004,5.38352 -1.03353,10.70489 -1.72674,16.02642 -1.77201,11.33582 -3.65388,22.6539 -5.64968,33.95259 -2.49078,14.06416 -5.02962,28.123 -7.99955,42.09542 -2.16636,9.83606 -4.41847,19.66958 -7.50683,29.26548 -1.21946,3.65429 -2.44848,7.32237 -4.15002,10.78741 0,0 -0.22013,0.0994 -0.22013,0.0994 z" />
    <path
       style="fill:#000000;fill-opacity:1;stroke:#000000;stroke-width:15.89999962;stroke-linecap:round;stroke-miterlimit:4;stroke-opacity:1;stroke-dasharray:none"
       id="path3674"
       d="m 315.97156,817.10243 c 2.32794,1.52366 5.12576,1.96641 7.82088,2.38833 4.93428,0.61864 9.91531,0.65721 14.87883,0.5308 4.63809,-0.16976 9.2668,-0.51752 13.90065,-0.76849 1.50224,-0.0821 3.00546,-0.14302 4.50919,-0.18919 0,0 -0.0144,0.0105 -0.0144,0.0105 l 0,0 c -1.56182,0.0989 -3.12286,0.20983 -4.68406,0.31792 -4.65723,0.31784 -9.31397,0.66211 -13.97995,0.82535 -4.95572,0.12188 -9.93015,0.0796 -14.85469,-0.55518 -2.67906,-0.4303 -5.46513,-0.88524 -7.75264,-2.45007 0,0 0.17614,-0.11 0.17614,-0.11 z" />
    <path
       style="fill:#000000;fill-opacity:1;stroke:#000000;stroke-width:15.89999962;stroke-linecap:round;stroke-miterlimit:4;stroke-opacity:1;stroke-dasharray:none"
       id="path3676"
       d="m 357.07826,807.02504 c 1.52748,1.76045 3.55492,2.9585 5.54857,4.11412 2.2918,1.24299 4.57368,2.49798 6.77328,3.89905 1.50394,0.96171 2.94594,1.99284 3.60244,3.70122 0.32774,2.5077 -1.57131,4.61655 -3.01652,6.45242 -3.0765,3.52628 -6.47691,6.75632 -9.98852,9.84341 -0.57073,0.48516 -1.14147,0.97032 -1.71221,1.45548 0,0 -0.0165,0.007 -0.0165,0.007 l 0,0 c 0.55872,-0.48025 1.11743,-0.9605 1.67615,-1.44074 3.37681,-3.04113 6.62212,-6.23535 9.59677,-9.67462 1.4472,-1.83362 3.32823,-3.92659 3.07378,-6.42786 -0.60703,-1.71709 -2.01807,-2.76148 -3.50651,-3.72886 -2.18805,-1.41293 -4.46675,-2.66643 -6.75467,-3.90932 -1.99352,-1.16135 -4.01838,-2.36504 -5.54331,-4.13166 0,0 0.26725,-0.15932 0.26725,-0.15932 z" />
  </g>
</svg>
