<?xml version="1.0" encoding="UTF-8" standalone="no"?>
<!-- Created with Inkscape (http://www.inkscape.org/) -->
<svg
   xmlns:dc="http://purl.org/dc/elements/1.1/"
   xmlns:cc="http://creativecommons.org/ns#"
   xmlns:rdf="http://www.w3.org/1999/02/22-rdf-syntax-ns#"
   xmlns:svg="http://www.w3.org/2000/svg"
   xmlns="http://www.w3.org/2000/svg"
   xmlns:sodipodi="http://sodipodi.sourceforge.net/DTD/sodipodi-0.dtd"
   xmlns:inkscape="http://www.inkscape.org/namespaces/inkscape"
   width="1136.3168"
   height="1034.886"
   id="svg3699"
   sodipodi:version="0.32"
   inkscape:version="0.46+devel"
   version="1.0"
   sodipodi:docname="c17d2.svg"
   inkscape:output_extension="org.inkscape.output.svg.inkscape">
  <defs
     id="defs3701">
    <inkscape:perspective
       sodipodi:type="inkscape:persp3d"
       inkscape:vp_x="0 : 526.18109 : 1"
       inkscape:vp_y="0 : 1000 : 0"
       inkscape:vp_z="744.09448 : 526.18109 : 1"
       inkscape:persp3d-origin="372.04724 : 350.78739 : 1"
       id="perspective3707" />
  </defs>
  <sodipodi:namedview
     id="base"
     pagecolor="#ffffff"
     bordercolor="#666666"
     borderopacity="1.0"
     inkscape:pageopacity="0.0"
     inkscape:pageshadow="2"
     inkscape:zoom="0.35"
     inkscape:cx="398.82958"
     inkscape:cy="507.87497"
     inkscape:document-units="px"
     inkscape:current-layer="layer1"
     showgrid="false"
     inkscape:window-width="1280"
     inkscape:window-height="708"
     inkscape:window-x="-5"
     inkscape:window-y="-3" />
  <metadata
     id="metadata3704">
    <rdf:RDF>
      <cc:Work
         rdf:about="">
        <dc:format>image/svg+xml</dc:format>
        <dc:type
           rdf:resource="http://purl.org/dc/dcmitype/StillImage" />
        <dc:title></dc:title>
      </cc:Work>
    </rdf:RDF>
  </metadata>
  <g
     inkscape:label="Layer 1"
     inkscape:groupmode="layer"
     id="layer1"
     transform="translate(23.829585,-5.3511528)">
    <path
       style="fill:#000000;fill-opacity:1;stroke:#000000;stroke-width:15.89999962;stroke-linecap:round;stroke-miterlimit:4;stroke-opacity:1;stroke-dasharray:none"
       id="path3717"
       d="m -15.879545,1032.2871 c 7.0550908,-9.0423 14.4101733,-17.8432 21.8346851,-26.5826 12.7402059,-14.69497 25.5200379,-29.35454 38.1815779,-44.11765 18.374756,-21.45201 36.109997,-43.43416 53.751163,-65.48924 19.787829,-24.87043 39.228099,-50.01408 58.898979,-74.9767 18.38385,-23.50164 37.49338,-46.41239 56.9615,-69.01885 18.44744,-21.4137 37.67221,-42.13387 57.22988,-62.53205 16.2482,-16.89598 33.0786,-33.21774 50.25394,-49.16599 10.8789,-10.02926 22.08153,-19.70329 33.55841,-29.04086 4.79576,-3.86355 9.69868,-7.60125 14.86399,-10.95886 2.29988,-1.84613 4.7097,-2.19042 7.50541,-2.50143 7.4509,-0.85427 14.882,-1.85938 22.33968,-2.6612 15.5001,-1.6498 31.08564,-2.09427 46.65939,-2.36522 24.0232,-0.0799 48.03647,-0.15945 72.04813,-0.96161 30.87211,-1.22957 61.71356,-3.10299 92.57581,-4.55184 31.26577,-1.52576 62.56429,-1.99899 93.86267,-2.02893 25.1614,-0.0279 50.32113,0.77106 75.45873,-0.55865 8.5569,-0.39649 16.87028,-2.05842 25.13776,-4.14843 0,0 -0.0454,0.0348 -0.0454,0.0348 l 0,0 c -8.455,2.25775 -16.96042,4.08355 -25.73795,4.5885 -25.28049,1.62242 -50.58719,0.95995 -75.90527,0.87739 -31.28371,0.011 -62.56783,0.48373 -93.81903,2.00462 -30.85591,1.43869 -61.69036,3.31432 -92.55603,4.53521 -24.00936,0.79714 -48.0203,0.87406 -72.04104,0.95394 -15.58342,0.27132 -31.17803,0.73381 -46.68615,2.39923 -7.46582,0.80352 -14.90307,1.82422 -22.36218,2.67882 -2.23098,0.25588 -4.22699,0.43132 -5.21205,1.22861 -5.23114,3.35227 -10.18454,7.10868 -15.02024,11.00623 -11.49343,9.33507 -22.70816,19.01258 -33.59642,29.0483 -17.18743,15.94495 -34.01776,32.27662 -50.2786,49.16925 -19.56633,20.39928 -38.79491,41.12458 -57.2549,62.5363 -19.47102,22.62101 -38.60695,45.52622 -57.00577,69.03283 -19.71331,24.97572 -39.19467,50.13363 -59.013237,75.02629 -17.658363,22.05495 -35.39811,44.04802 -53.782494,65.50579 -12.673593,14.78889 -25.48243,29.45916 -38.265747,44.153 -7.46432955,8.7569 -14.8611113,17.5742 -21.959175,26.6325 0,0 -0.580062,0.2486 -0.580062,0.2486 z" />
    <path
       style="fill:#000000;fill-opacity:1;stroke:#000000;stroke-width:15.89999962;stroke-linecap:round;stroke-miterlimit:4;stroke-opacity:1;stroke-dasharray:none"
       id="path3721"
       d="m 365.15045,102.29177 c 2.04942,18.38754 2.74008,36.89583 3.44645,55.37319 1.24712,31.18743 0.79265,62.39613 -0.34246,93.57614 -1.71972,34.34978 -3.68278,68.68087 -4.8551,103.0552 -1.25925,37.41451 -0.35889,74.849 0.92588,112.24761 1.08832,30.11187 2.39445,60.21502 3.58404,90.32283 0.48951,14.39722 0.28303,7.41821 0.6304,20.93669 0,0 -0.0508,0.0261 -0.0508,0.0261 l 0,0 c -0.44088,-13.45347 -0.15429,-6.51767 -0.88285,-20.80642 -1.69602,-29.97081 -3.35161,-59.94267 -4.31326,-89.94862 -1.29437,-37.40367 -2.19567,-74.84542 -0.91002,-112.26463 1.2203,-34.43451 3.28076,-68.82003 5.18435,-103.22186 1.28396,-31.22189 1.84486,-62.47875 0.62707,-93.7159 -0.686,-18.49216 -1.38351,-37.0096 -3.3526,-55.41893 0,0 0.30894,-0.1614 0.30894,-0.1614 z" />
    <path
       style="fill:#000000;fill-opacity:1;stroke:#000000;stroke-width:15.89999962;stroke-linecap:round;stroke-miterlimit:4;stroke-opacity:1;stroke-dasharray:none"
       id="path3723"
       d="m 329.31135,122.737 c 6.23951,-9.17404 12.12849,-18.57878 18.13397,-27.905917 4.71028,-7.645273 9.72439,-14.7565 17.75831,-19.004303 7.2623,-2.039254 13.41285,2.398893 19.01271,6.479424 7.97142,6.06034 13.37431,14.24286 17.94316,22.996436 3.02322,6.78658 1.56986,3.32751 4.35091,10.38106 0,0 -0.0498,0.0279 -0.0498,0.0279 l 0,0 c -3.03162,-6.91329 -1.44994,-3.52829 -4.73561,-10.1594 -4.90588,-8.538905 -10.71929,-16.474309 -18.56824,-22.573825 -5.56585,-4.061575 -11.69549,-8.485801 -18.90997,-6.38528 -7.32539,3.365472 -11.18433,11.572283 -15.71178,17.759224 -6.03155,9.338361 -11.93755,18.760331 -18.20814,27.941861 0,0 -1.01547,0.44279 -1.01547,0.44279 z" />
    <path
       style="fill:#000000;fill-opacity:1;stroke:#000000;stroke-width:15.89999962;stroke-linecap:round;stroke-miterlimit:4;stroke-opacity:1;stroke-dasharray:none"
       id="path3725"
       d="m 357.342,596.96099 c -1.9017,-10.36294 -3.41644,-20.76562 -4.76818,-31.21071 -1.50156,-13.52194 -2.76208,-27.05878 -3.52302,-40.64179 -0.80294,-14.17648 -1.32312,-28.38256 -1.36346,-42.5832 0.0255,-12.43805 -0.47713,-24.86546 -0.70577,-37.29909 -0.18178,-9.73642 -0.90894,-19.44759 -1.35976,-29.17118 -0.32005,-5.18222 -0.87121,-10.32225 -2.1278,-15.36362 -0.12,-0.528 -0.20985,-1.06377 -0.35998,-1.584 -0.86182,-2.98639 -0.33624,0.49972 0.18605,0.24229 33.08805,-16.30813 32.59598,-30.42802 32.5565,-16.1196 0.71567,7.48467 1.84908,14.92565 2.89698,22.3743 1.94271,13.59892 3.64165,27.23315 5.01664,40.90208 1.86043,15.59581 2.16449,31.30247 3.04233,46.96263 0.25494,13.31631 -0.0364,26.60512 -1.06443,39.88236 -0.9239,10.06274 -1.78101,20.13549 -2.83217,30.18545 -0.62351,4.80744 -0.94031,9.61396 -0.83398,14.43635 0.0373,0.22204 0.31483,0.5688 0.11181,0.66611 -40.51001,19.41579 -35.47812,27.71967 -37.34664,4.80581 -0.49921,-12.97845 -0.89781,-25.95782 -1.44481,-38.93421 -0.24506,-18.63014 -0.5337,-37.25533 -0.60904,-55.8877 -0.24145,-19.54945 0.1966,-39.10156 0.60591,-58.64629 0.3839,-13.21806 0.17466,-26.47982 0.95569,-39.68359 1.58237,-17.58876 -3.9692,-7.25535 35.06028,-21.4991 0.94494,-0.34485 0.006,2.01194 0.0313,3.01753 0.0331,1.3231 0.0955,2.64531 0.14324,3.96796 0.52756,14.63804 1.01242,29.27751 1.575,43.91502 0.70919,19.70937 1.18073,39.43206 1.42355,59.15296 0.18428,17.19685 0.4459,34.39946 0.36397,51.59903 0.0588,10.01131 -0.38151,20.02209 -0.30352,30.03224 -0.10002,4.38658 -0.21379,8.77285 -0.33934,13.15877 -0.57662,19.15678 17.66314,-2.39616 -35.37036,23.25717 -1.06622,-6.88489 -1.07052,-13.88263 -1.5323,-20.82296 -0.47374,-16.11678 -0.72002,-32.23407 -1.02391,-48.35446 -0.45966,-20.46703 -1.15792,-40.92655 -1.74421,-61.38997 -0.64689,-14.72627 -0.7137,-29.47179 -1.4205,-44.19661 0.004,-6.88994 -0.62723,-13.7951 -0.41169,-20.6808 -0.10375,-5.59665 0.0318,-11.20912 0.17383,-16.80974 0.0469,-4.88286 0.62063,-9.74938 0.64916,-14.6301 0.1558,-2.4481 0.85491,-4.9361 0.59735,-7.3969 41.64293,-22.14838 35.77647,-27.2559 35.79737,-5.31402 0.15984,10.90147 0.17871,21.80152 0.31541,32.7033 0.15032,15.42836 0.28802,30.85738 0.21667,46.2865 -0.0783,14.89868 -0.80288,29.77991 -1.72875,44.64636 -0.93328,13.04204 -1.92119,26.08419 -2.44497,39.15175 -0.83408,9.70774 -0.84993,19.44707 -0.7233,29.17887 0.0149,5.44421 0.64406,10.84233 1.2438,16.24244 0.0201,3.50949 0.90644,6.92173 1.37531,10.37558 0.6962,3.6344 0.74964,7.36146 0.85708,11.05111 0.52876,3.73948 0.92727,6.47485 -1.42967,9.60656 -0.90654,0.52549 -1.73958,1.2057 -2.71962,1.57647 -0.9472,0.35834 -2.06908,0.14255 -2.98214,0.58062 -12.03501,5.77422 -18.04523,11.23108 -8.10948,3.06146 0,0 1.09016,-0.50155 1.09016,-0.50155 l 0,0 c 15.1658,2.80501 -13.5647,12.72232 -19.11509,11.98064 -3.91623,-0.75759 -2.56253,-4.86692 -2.51453,-7.97699 -0.048,-3.58703 -0.21667,-7.16435 -0.46855,-10.74212 -0.47277,-3.51253 -0.75603,-7.05278 -1.38148,-10.54839 -0.45385,-5.62995 -0.58134,-11.27813 -0.69464,-16.92541 0.0184,-9.89295 0.75313,-19.77018 1.09043,-29.65507 1.07643,-13.13273 2.14031,-26.26592 2.94485,-39.41706 0.9954,-14.8241 1.84288,-29.66256 1.97388,-44.52391 0.13409,-15.36082 0.021,-30.72363 -0.3883,-46.08006 -0.32113,-10.71747 -0.83979,-21.42321 -1.40986,-32.13019 -1.05202,-22.23703 -2.42083,-12.60638 35.43852,-30.01171 -0.70043,1.38919 -0.25287,4.62057 -0.49155,6.58516 -0.63153,4.87868 -0.93425,9.7968 -1.18415,14.70793 -0.16618,5.56249 -0.10882,11.12214 -0.16101,16.67967 0.2238,6.98742 -0.4122,13.99709 -0.27842,20.99113 -0.42243,14.93824 -0.013,29.8746 0.0941,44.81379 0.36861,20.5578 0.63061,41.11692 1.17683,61.67131 0.51062,15.83578 1.03736,31.68509 2.41676,47.47272 0.39938,6.53321 1.07902,13.06008 2.22815,19.5084 -57.58589,31.06729 -34.59462,30.25603 -34.18647,13.27026 0.18909,-4.47538 0.47205,-8.94378 0.78201,-13.41258 0.92127,-10.14778 1.08388,-20.35043 1.50024,-30.52695 0.47188,-17.34586 0.87317,-34.68771 0.7147,-52.04138 -0.16882,-19.65931 -0.35087,-39.31512 -1.55022,-58.94712 -0.76287,-14.33963 -1.51304,-28.70813 -3.24043,-42.96821 -0.12513,-1.26321 -0.2188,-2.52994 -0.37538,-3.78964 -0.11062,-0.88996 -1.17807,-2.16818 -0.42587,-2.65652 45.35838,-29.44688 33.58657,-30.82802 33.95754,-13.99738 -0.24109,13.4003 -1.71854,26.76835 -2.02624,40.17114 -0.62326,19.56136 -0.88793,39.12823 -0.97649,58.69906 0.12673,18.49021 0.10975,36.99636 1.17492,55.46142 0.41409,12.74502 1.22269,25.48507 2.62222,38.16175 1.57453,23.2159 5.77285,9.05618 -34.59593,31.07086 -0.19227,0.10486 0.27133,-0.34384 0.407,-0.51576 1.6035,-4.91121 1.98724,-10.07892 2.68437,-15.18257 1.32547,-10.1228 2.74504,-20.23438 3.57872,-30.4158 1.20272,-13.23316 2.18557,-26.51736 1.8026,-39.81477 0.16876,-15.73704 -0.77214,-31.48478 -2.00212,-47.17025 -1.43982,-13.49985 -3.24132,-26.95754 -5.78774,-40.29795 -1.23163,-7.43834 -2.71507,-14.82658 -3.86149,-22.27895 -1.70031,-15.91682 34.36634,-36.06042 34.0973,-17.12548 0.0297,5.62107 -0.24007,11.2415 -0.13117,16.86425 0.23307,10.04183 0.007,20.09619 -0.21152,30.13607 -0.43259,12.86578 -1.29117,25.71417 -1.76801,38.57843 -0.45247,14.4658 -0.89333,28.92478 -0.58854,43.4005 0.36732,13.8526 0.80555,27.69719 1.5597,41.53533 0.38755,10.75629 0.6926,21.57322 2.33389,32.22469 0,0 -20.42616,10.86982 -20.42616,10.86982 z" />
    <path
       style="fill:#000000;fill-opacity:1;stroke:#000000;stroke-width:15.89999962;stroke-linecap:round;stroke-miterlimit:4;stroke-opacity:1;stroke-dasharray:none"
       id="path3727"
       d="m 272.68849,444.77094 c 3.67147,-7.29006 7.37845,-14.5596 11.16841,-21.78939 5.87132,-10.84295 11.50793,-21.81193 17.27763,-32.70941 6.73076,-12.70688 13.90288,-25.18336 21.55894,-37.35522 5.50119,-8.53091 11.15874,-16.96053 16.8989,-25.33206 10.50007,-16.64321 10.07771,-11.66121 36.53892,-26.59165 4.46292,0.54289 7.87501,3.38711 11.34955,5.9874 5.60244,4.41419 11.31984,8.67696 16.80749,13.23724 7.89264,6.29722 14.75221,13.7256 21.57453,21.13253 7.01279,7.78706 13.91252,15.68592 20.45336,23.8745 5.13864,6.1703 9.71033,12.79883 13.29059,19.99015 2.51898,4.74819 3.92699,9.93753 5.65936,14.99126 2.91382,6.56081 1.93358,7.25981 -2.99419,12.45912 -4.95457,3.98751 -1.45733,1.5522 -11.4737,5.63976 0,0 1.03425,-0.60854 1.03425,-0.60854 l 0,0 c -8.51829,6.19121 -4.79957,4.36854 -10.42057,6.76539 -7.02556,1.32162 -8.5001,1.23754 -9.95833,-5.9043 -0.98023,-5.07857 -2.59792,-10.01585 -4.39501,-14.85935 -3.3223,-7.01762 -7.12843,-13.71978 -11.92445,-19.86478 -6.36704,-8.16872 -12.76496,-16.31316 -19.41777,-24.25396 -6.38771,-7.46586 -13.07797,-14.69046 -20.52666,-21.12148 -5.53744,-4.42757 -11.03005,-8.90838 -16.60179,-13.29101 -2.29432,-1.89165 -5.22658,-5.20532 -8.45956,-3.90601 8.85019,-5.20822 17.70038,-10.41644 26.55057,-15.62465 -1.70136,0.94956 -2.00338,0.97024 -3.45737,2.46764 -2.11206,2.17511 -3.49123,4.95434 -5.46682,7.23881 -6.11575,8.52388 -12.34534,16.97143 -18.1306,25.72717 -7.9597,12.28802 -15.49031,24.82646 -22.6145,37.619 -6.71966,11.75921 -13.54442,23.46432 -21.26253,34.60654 -5.55979,8.12001 -11.20991,16.1762 -16.80979,24.26821 0,0 -16.24886,7.20709 -16.24886,7.20709 z" />
    <path
       style="fill:#000000;fill-opacity:1;stroke:#000000;stroke-width:15.89999962;stroke-linecap:round;stroke-miterlimit:4;stroke-opacity:1;stroke-dasharray:none"
       id="path3729"
       d="m 497.37977,329.61138 c 3.67471,-7.18258 8.73496,-13.26714 15.04978,-18.23472 13.41636,-9.23563 24.09654,-15.55533 39.84132,-15.05924 9.3003,0.47377 17.78679,3.64491 25.46913,8.75797 7.35759,5.44264 10.88256,12.95082 12.6949,21.66557 0.90146,7.98939 -1.29328,15.107 -6.20906,21.34155 -11.71612,9.44488 -25.60462,19.89629 -41.20742,20.15747 -3.4915,0.0584 -5.81597,-0.55992 -9.23363,-1.19898 -10.09851,-2.89536 -17.36155,-9.98582 -23.75553,-17.95527 -6.0691,-8.24 -11.22465,-17.0922 -15.60605,-26.33067 -0.51252,-1.06855 -1.0556,-2.12297 -1.53755,-3.20565 -0.10783,-0.24223 -3.34266,-9.31632 -3.40099,-7.58307 9.77555,-4.97314 19.23486,-10.62417 29.32665,-14.91942 0.7071,-0.30096 0.22938,1.52059 0.38708,2.27271 0.21303,1.01607 0.48279,2.01942 0.72449,3.02905 1.04108,4.34878 2.32138,8.59399 3.61653,12.87405 3.73607,12.70225 7.10005,25.50213 10.02551,38.41518 3.08708,14.17323 5.05045,28.54238 6.90249,42.91738 1.32715,10.917 1.99727,21.88214 2.19345,32.87335 -0.0117,9.65258 0.93721,13.64397 -5.65752,21.2444 -3.76177,4.29262 -6.91267,4.99403 -12.48494,6.79079 0,0 1.06353,-0.55578 1.06353,-0.55578 l 0,0 c -4.50005,2.9787 -6.64275,5.58274 -11.73203,5.25844 -0.75344,-0.19223 -1.59045,-0.18184 -2.26032,-0.57668 -3.53177,-2.08172 -0.66958,-12.2714 -1.1134,-15.74035 0.078,-10.98733 -0.33563,-21.98139 -1.32324,-32.92588 -1.16655,-14.4906 -2.86908,-28.93321 -5.50816,-43.2374 -2.60379,-12.92613 -5.60853,-25.76395 -9.63533,-38.33083 -0.36208,-1.25163 -5.35713,-18.62491 -5.04977,-18.85303 9.23378,-6.8533 19.39391,-12.36115 29.09086,-18.54172 2.48573,3.82648 2.73248,8.7231 4.70118,12.80337 3.97327,9.13972 8.30464,18.15572 14.43284,26.0942 5.85707,7.36615 12.42401,14.06924 21.82783,16.56086 4.22395,0.79944 8.12232,1.12307 12.38625,0.17873 1.36745,-0.30285 5.1779,-2.02308 4.01287,-1.24568 -11.37799,7.59233 -30.5859,17.72748 -17.59475,10.81656 5.812,-5.56291 9.40896,-12.19727 9.64822,-20.40743 -0.0913,-8.19081 -2.18681,-16.09952 -8.38823,-21.83844 -6.66854,-5.29455 -14.18824,-8.66433 -22.82096,-8.99611 -4.08939,0.0423 -7.93155,0.17171 -11.9055,1.26153 -6.51751,1.78737 -19.75133,9.69305 6.06322,-4.96106 -6.73451,4.78718 -12.34051,10.70485 -16.42357,17.94623 0,0 -16.61018,7.43802 -16.61018,7.43802 z" />
    <path
       style="fill:#000000;fill-opacity:1;stroke:#000000;stroke-width:15.89999962;stroke-linecap:round;stroke-miterlimit:4;stroke-opacity:1;stroke-dasharray:none"
       id="path3731"
       d="m 369.51029,599.38517 c 9.34118,-8.49973 18.59138,-17.09896 27.83978,-25.69937 16.1508,-15.14712 32.33016,-30.26381 48.46202,-45.43111 24.98479,-23.52188 49.72924,-47.29564 74.30146,-71.24757 29.71844,-29.23352 59.53714,-58.36465 89.42786,-87.42193 29.90902,-29.13352 60.21289,-57.85758 90.40637,-86.69521 27.50414,-26.28336 54.83409,-52.74798 82.03697,-79.34275 23.42011,-23.02136 46.74677,-46.1374 70.15797,-69.16784 17.12977,-17.03493 34.74316,-33.56708 52.8761,-49.527584 10.51457,-9.14418 21.40368,-17.842353 32.06819,-26.808323 4.52515,-3.854436 8.97848,-7.816452 13.06205,-12.141946 0.47642,-0.866561 3.31369,-2.682932 1.40562,-3.177585 -4.36924,-0.102661 -8.62972,1.738304 -12.68489,3.162262 -9.084,3.330191 -18.01707,7.053202 -26.92351,10.827391 -7.61833,3.338757 -15.20282,6.761088 -22.74241,10.274124 -4.07106,1.868125 -0.98149,0.418828 -4.3689,2.07609 -0.24606,0.120382 0.46166,-0.415754 0.73224,-0.373036 0.24821,0.03919 -1.54564,0.683168 0.89909,0.09281 6.58746,-2.021938 12.91265,-4.81449 19.21847,-7.569885 9.35896,-4.167357 18.51194,-8.77595 27.61866,-13.46325 5.4937,-2.409247 10.79406,-6.700122 16.99247,-6.867745 4.82204,1.24176 4.66461,6.842948 4.83646,10.909937 -0.34352,9.775708 -1.62629,19.497804 -2.73033,29.210933 -1.2869,12.370412 -2.58303,24.738737 -4.00646,37.094377 -1.10365,9.42187 -2.6154,18.78106 -4.98298,27.96941 -0.83251,0.50746 -0.7068,5.49036 -1.92885,5.75171 -0.3628,0.0776 -0.49908,-0.54908 -0.74862,-0.82362 0,0 0.0501,-0.0274 0.0501,-0.0274 l 0,0 c -0.37628,3.54208 0.79428,-3.81871 0.9305,-4.08479 1.94278,-9.21058 3.70188,-18.45526 4.73362,-27.82166 1.4276,-12.35651 2.72541,-24.726008 4.01366,-37.097683 1.11451,-9.70187 2.38464,-19.415377 2.74385,-29.180029 -0.16232,-3.919916 0.0804,-9.51753 -4.66223,-10.618334 -6.17519,0.31733 -11.44018,4.520905 -16.93243,6.94087 -9.10981,4.682649 -18.26471,9.288828 -27.62637,13.451768 -6.3194,2.753837 -12.65493,5.567993 -19.26848,7.548369 -5.29207,0.805548 5.52717,-4.353242 6.20784,-4.487778 7.54065,-3.50063 15.11487,-6.934129 22.73491,-10.258491 8.91817,-3.776355 17.86187,-7.505048 26.95779,-10.836556 4.0727,-1.426246 8.41493,-3.337731 12.81102,-3.072803 2.17271,0.845528 -0.57845,2.548655 -1.32756,3.634928 -4.09992,4.373881 -8.6435,8.315273 -13.18484,12.218417 -10.7141,8.976973 -21.64403,17.695977 -32.20271,26.858091 -18.16489,15.969431 -35.81126,32.510011 -52.97196,49.556241 -23.46129,23.04233 -46.82825,46.18028 -70.28946,69.22266 -27.23294,26.60713 -54.59553,53.08153 -82.12566,79.38126 -30.23761,28.85263 -60.58031,57.59717 -90.53327,86.74614 -29.92366,29.06666 -59.77179,58.21076 -89.51809,87.45897 -24.61297,23.97091 -49.40616,47.75495 -74.42616,71.30124 -16.16096,15.17027 -32.35506,30.30514 -48.53056,45.45988 -9.29694,8.62709 -18.59274,17.2565 -27.99863,25.76493 0,0 -0.80975,0.33148 -0.80975,0.33148 z" />
    <path
       style="fill:#000000;fill-opacity:1;stroke:#000000;stroke-width:15.89999962;stroke-linecap:round;stroke-miterlimit:4;stroke-opacity:1;stroke-dasharray:none"
       id="path3735"
       d="m 1026.9179,17.212638 c -4.7182,11.864042 -4.9006,24.871347 -5.1241,37.458497 -0.043,12.500227 0.6223,24.98984 1.8431,37.426921 -0.306,3.775268 1.7282,7.685914 1.3542,11.429304 -3.4891,3.43605 -6.2447,-6.743224 -6.7278,-8.406413 -2.3502,-9.047614 0.082,-17.748628 3.4658,-26.153578 6.1133,-13.025209 15.8381,-23.663322 26.0651,-33.569004 10.0804,-9.294581 21.4687,-17.054327 34.596,-21.205751 6.5967,-1.611118 13.1327,-1.206646 18.8277,2.606856 1.9038,1.790938 4.4065,4.489723 2.8114,7.182448 0,0 -0.052,0.02363 -0.052,0.02363 l 0,0 c 0.9365,-2.682334 -2.3237,-4.897524 -4.0535,-6.373849 -5.8237,-3.546847 -12.2562,-4.086366 -18.8624,-2.409564 -12.0931,3.872443 -22.4585,10.822664 -31.6949,19.527994 -10.226,9.883776 -19.9397,20.501473 -26.0765,33.496 -3.3846,8.365996 -5.8191,17.028948 -3.5072,26.046447 0.6541,2.310365 0.7938,3.193099 1.7873,5.309276 0.5545,1.181138 1.8393,2.002568 2.1531,3.269098 0.236,0.95279 -0.8301,2.31403 -0.1123,1.33467 0.7135,-3.68058 -1.5897,-7.788997 -1.1146,-11.513057 -1.0807,-12.489881 -1.6972,-25.02138 -1.6094,-37.561429 0.249,-12.595985 0.4479,-25.596271 5.0867,-37.493037 0,0 0.9444,-0.425463 0.9444,-0.425463 z" />
  </g>
</svg>
