<?xml version="1.0" encoding="UTF-8" standalone="no"?>
<!-- Created with Inkscape (http://www.inkscape.org/) -->
<svg
   xmlns:dc="http://purl.org/dc/elements/1.1/"
   xmlns:cc="http://creativecommons.org/ns#"
   xmlns:rdf="http://www.w3.org/1999/02/22-rdf-syntax-ns#"
   xmlns:svg="http://www.w3.org/2000/svg"
   xmlns="http://www.w3.org/2000/svg"
   xmlns:sodipodi="http://sodipodi.sourceforge.net/DTD/sodipodi-0.dtd"
   xmlns:inkscape="http://www.inkscape.org/namespaces/inkscape"
   width="1429.4062"
   height="1265.0308"
   id="svg3876"
   sodipodi:version="0.32"
   inkscape:version="0.46+devel"
   version="1.0"
   sodipodi:docname="c17d5.svg"
   inkscape:output_extension="org.inkscape.output.svg.inkscape">
  <defs
     id="defs3878">
    <inkscape:perspective
       sodipodi:type="inkscape:persp3d"
       inkscape:vp_x="0 : 526.18109 : 1"
       inkscape:vp_y="0 : 1000 : 0"
       inkscape:vp_z="744.09448 : 526.18109 : 1"
       inkscape:persp3d-origin="372.04724 : 350.78739 : 1"
       id="perspective3884" />
  </defs>
  <sodipodi:namedview
     id="base"
     pagecolor="#ffffff"
     bordercolor="#666666"
     borderopacity="1.0"
     inkscape:pageopacity="0.0"
     inkscape:pageshadow="2"
     inkscape:zoom="0.35"
     inkscape:cx="662.73268"
     inkscape:cy="650.92942"
     inkscape:document-units="px"
     inkscape:current-layer="layer1"
     showgrid="false"
     inkscape:window-width="1280"
     inkscape:window-height="708"
     inkscape:window-x="-5"
     inkscape:window-y="-3" />
  <metadata
     id="metadata3881">
    <rdf:RDF>
      <cc:Work
         rdf:about="">
        <dc:format>image/svg+xml</dc:format>
        <dc:type
           rdf:resource="http://purl.org/dc/dcmitype/StillImage" />
        <dc:title></dc:title>
      </cc:Work>
    </rdf:RDF>
  </metadata>
  <g
     inkscape:label="Layer 1"
     inkscape:groupmode="layer"
     id="layer1"
     transform="translate(287.73268,81.739205)">
    <path
       style="fill:#000000;fill-opacity:1;stroke:#000000;stroke-width:15.89999962;stroke-linecap:round;stroke-miterlimit:4;stroke-opacity:1;stroke-dasharray:none"
       id="path3886"
       d="m -65.048981,1175.3416 c 7.10741,-10.365 13.487827,-21.197 19.688239,-32.1203 10.339993,-18.6108 20.405926,-37.3715 30.68347,-56.0169 15.40788066,-28.0664 31.920268,-55.4983 48.764216,-82.7195 20.891143,-33.46851 42.433531,-66.52332 63.79892,-99.68924 22.612526,-35.08817 44.672936,-70.52673 66.869706,-105.87804 19.98457,-32.03074 40.55837,-63.68344 61.57066,-95.04767 15.21642,-22.58785 30.93414,-44.83049 46.77684,-66.98147 10.52495,-14.63259 21.01256,-29.29277 31.20676,-44.1583 4.73107,-6.82875 9.1331,-13.87358 13.53738,-20.91463 1.89676,-3.66399 5.61334,-4.07662 9.29343,-4.28076 8.47254,-0.28553 16.94484,0.37877 25.38936,0.99364 17.28712,1.47589 34.59219,2.52938 51.93136,3.12518 28.32598,0.85134 56.65893,-0.26663 84.94599,-1.69149 37.18453,-2.04615 74.31453,-4.93914 111.42186,-8.06146 39.5569,-3.37214 79.01374,-7.77043 118.44795,-12.3302 34.87769,-4.30571 69.83003,-7.83468 104.88767,-10.25899 29.20169,-1.92144 58.45698,-2.71346 87.70898,-3.36284 23.98591,-0.5263 47.97614,-0.77161 71.96702,-0.9043 19.09747,-0.10605 38.19297,0.21846 57.28217,0.75415 10.7277,-0.52204 21.7343,2.0956 32.3848,0.32665 2.45,-1.41366 1.4651,-3.57927 0.8624,-5.80839 0,0 0.05,-0.0277 0.05,-0.0277 l 0,0 c 1.6795,3.64453 2.0314,4.62118 -1.9508,6.62057 -10.8933,2.27706 -22.2083,-0.0949 -33.2293,0.24893 -19.0809,-0.52852 -38.1677,-0.87119 -57.257,-0.76288 -23.97819,0.12795 -47.95585,0.36716 -71.92927,0.88143 -29.23452,0.6294 -58.47184,1.42843 -87.65616,3.33705 -35.03879,2.40747 -69.971,5.94055 -104.83044,10.22905 -39.42814,4.55312 -78.87881,8.94583 -118.42973,12.30844 -37.08685,3.11176 -74.19627,6.00046 -111.36175,8.00842 -28.22341,1.38596 -56.49386,2.46801 -84.75242,1.53067 -17.30383,-0.62999 -34.57225,-1.72386 -51.824,-3.21011 -8.44414,-0.6137 -16.91835,-1.27617 -25.38996,-0.96691 -3.61292,0.21068 -4.96049,-0.22279 -6.42978,2.62715 -4.51075,7.03648 -8.93499,14.13052 -13.70716,20.99544 -10.22642,14.86415 -20.72156,29.53961 -31.25931,44.1842 -15.85901,22.1513 -31.58281,44.40179 -46.81255,66.99232 -21.03179,31.36347 -41.61315,63.02339 -61.60816,95.05965 -22.18356,35.34826 -44.23085,70.78377 -66.836343,105.86508 -21.345633,33.16339 -42.880405,66.20767 -63.759114,99.66886 -16.814498,27.2088 -33.311952,54.6195 -48.684423,82.6759 -10.279039,18.6497 -20.345103,37.4154 -30.696494,56.025 -6.233157,10.9409 -12.6348,21.7971 -19.781666,32.1737 0,0 -1.283251,0.5606 -1.283251,0.5606 z" />
    <path
       style="fill:#000000;fill-opacity:1;stroke:#000000;stroke-width:15.89999962;stroke-linecap:round;stroke-miterlimit:4;stroke-opacity:1;stroke-dasharray:none"
       id="path3888"
       d="m 335.36103,581.57833 c -1.44543,-11.4537 -1.71748,-23.00807 -1.99189,-34.53563 -0.42897,-22.05168 0.57601,-44.1032 1.66655,-66.12234 1.65481,-30.05249 3.86705,-60.071 5.96207,-90.09512 1.78328,-24.91016 3.71446,-49.80885 5.68347,-74.70484 1.54603,-18.00825 3.4166,-35.98843 5.56502,-53.93448 1.72448,-14.22358 3.29251,-28.46474 4.68267,-42.72482 1.49973,-13.92726 2.65429,-27.88769 3.82625,-41.84532 0.85356,-9.793 1.51511,-19.6018 1.97978,-29.42071 0.33912,-8.1819 0.6898,-16.36354 1.02068,-24.54583 0.33719,-8.25424 0.77996,-16.50363 1.1612,-24.755851 0.25335,-6.003419 0.57073,-12.001286 1.07895,-17.988687 0.47478,-5.418263 1.3194,-10.790346 2.1212,-16.166255 0.96119,-6.560235 1.73561,-13.14482 2.2917,-19.751362 0.42606,-4.896428 0.60502,-9.808364 0.99951,-14.706952 0.36455,-4.377399 0.99676,-8.72539 1.64703,-13.067511 1.06403,-5.190295 1.81624,-10.4340754 2.50392,-15.6850137 0.76216,-5.4257563 1.07989,-10.8953717 1.26788,-16.3664863 -0.0774,-3.830275 0.45956,-7.730708 -0.10686,-11.533789 -1.15152,-3.511996 -4.6435,-2.725129 -7.45321,-1.918566 -4.76691,1.844104 -9.25194,4.374739 -13.64745,6.967149 -3.51959,1.333934 -8.14253,6.376691 -11.85805,6.373057 0.97049,-3.124012 5.83937,-5.435851 8.44492,-7.102768 7.14333,-4.598075 15.11847,-7.370254 23.26739,-9.551902 8.00097,-2.031061 16.12127,-3.00351 24.31786,-1.927527 8.3081,1.611097 14.53768,7.26771 20.75382,12.598594 0,0 -0.0484,0.03038 -0.0484,0.03038 l 0,0 c -6.71845,-5.07788 -13.45135,-10.345477 -22.01839,-11.699883 -8.20268,-0.983014 -16.32324,-0.04872 -24.31961,2.007403 -7.05265,1.902478 -14.05677,4.168095 -20.37177,7.928022 -3.02458,1.924932 -6.35121,3.867134 -8.63037,6.695096 3.30734,-0.28574 5.8526,-3.613724 8.8479,-4.729928 5.40685,-3.138757 10.80236,-6.430356 16.66203,-8.664695 2.9344,-0.810581 6.47387,-1.453208 7.66081,2.14668 0.55637,3.82059 0.0137,7.732184 0.0902,11.578994 -0.18917,5.47861 -0.52003,10.9548621 -1.27467,16.38881427 -0.68445,5.25085433 -1.42731,10.49619973 -2.49603,15.68521073 -0.66693,4.337875 -1.2894,8.685386 -1.66027,13.060303 -0.3998,4.902357 -0.59817,9.817473 -1.02078,14.718198 -0.55809,6.61344 -1.34996,13.203376 -2.30675,19.771068 -0.79643,5.374343 -1.65402,10.742469 -2.12959,16.158448 -0.51338,5.985711 -0.81988,11.983651 -1.08639,17.985006 -0.38576,8.254773 -0.84013,16.506263 -1.17776,24.763233 -0.34693,8.18702 -0.69661,16.37392 -1.04753,24.56072 -0.49213,9.82884 -1.15593,19.64802 -2.02722,29.45098 -1.18294,13.95781 -2.32754,27.92039 -3.8283,41.84867 -1.3909,14.27371 -2.99827,28.52434 -4.74356,42.759 -2.18393,17.96915 -4.12641,35.96891 -5.7123,54.00122 -2.03077,24.91321 -3.98968,49.8318 -5.80088,74.76211 -2.12457,30.02825 -4.31661,60.05416 -5.99971,90.11114 -1.07275,22.01379 -2.077,44.05874 -1.65009,66.10419 0.25688,11.54055 0.5389,23.10327 1.88067,34.57966 0,0 -0.97566,0.51292 -0.97566,0.51292 z" />
    <path
       style="fill:#000000;fill-opacity:1;stroke:#000000;stroke-width:15.89999962;stroke-linecap:round;stroke-miterlimit:4;stroke-opacity:1;stroke-dasharray:none"
       id="path3890"
       d="m 102.7187,612.88895 c 7.10141,-6.72077 13.78795,-13.85259 20.28305,-21.15506 8.4065,-9.62456 16.27656,-19.69862 24.02343,-29.85605 10.23234,-13.46315 19.84122,-27.37775 29.22084,-41.44291 10.29948,-15.50783 19.9106,-31.45157 29.12298,-47.62395 7.73245,-13.53266 14.46487,-27.58535 20.87218,-41.78128 5.66806,-12.94243 11.24308,-25.9242 17.06209,-38.79988 5.08566,-11.27974 10.46233,-22.42292 16.06858,-33.45213 3.97074,-7.87094 8.42758,-15.47829 13.08519,-22.95833 2.43255,-4.09288 5.12143,-8.02199 7.60802,-12.08153 1.09426,-2.27697 2.84117,-3.3296 5.35912,-3.81771 3.58033,-0.46326 7.1101,0.31867 10.56174,1.19443 6.05589,1.75755 11.85283,4.27474 17.71561,6.57131 8.5299,3.51086 17.51505,5.43869 26.59644,6.82103 12.15452,1.59588 24.42589,1.65301 36.6534,1.20397 13.66425,-0.70787 27.29921,-1.87636 40.94122,-2.9126 13.61059,-1.0394 27.24628,-1.69068 40.86014,-2.67761 14.30337,-0.99897 28.55042,-2.62948 42.81147,-4.08564 12.99138,-1.32793 26.00294,-2.44315 39.02371,-3.43722 11.21363,-0.8548 22.44066,-1.55194 33.62887,-2.70384 8.7742,-0.89627 17.53773,-1.89057 26.28302,-3.0349 6.85649,-0.86707 13.64389,-2.17586 20.4555,-3.32866 5.2389,-0.88173 10.46806,-1.82018 15.68649,-2.81568 3.61305,-0.74831 7.24163,-1.41278 10.89417,-1.93595 4.13909,-0.42841 4.16792,2.76946 3.65773,5.96168 -2.12351,8.23642 -5.26699,16.17423 -8.32415,24.09823 -6.44446,16.57232 -13.33287,32.96508 -20.26902,49.33593 -10.44654,24.7582 -21.20065,49.3815 -32.23334,73.88354 -12.31862,27.32633 -25.12471,54.42767 -37.92424,81.53068 -11.31053,24.03105 -22.52547,48.10696 -33.74591,72.18017 -9.02379,19.49441 -18.40113,38.82139 -27.99098,58.04271 -6.92073,13.75549 -14.31754,27.26254 -21.40403,40.93186 -4.99559,9.2126 -8.84184,18.90328 -11.88287,28.91086 -2.30546,7.89841 -3.79888,15.98634 -5.22472,24.07823 -0.96516,3.72606 -0.72081,8.12898 -2.92857,11.42159 -3.26951,2.79772 -6.18901,1.98108 -9.85273,0.97127 -5.64677,-1.83965 -11.23987,-3.8416 -16.84196,-5.81235 -9.49913,-3.35082 -18.9934,-6.71579 -28.51556,-10.00072 -13.30668,-4.68221 -26.8979,-8.44917 -40.67201,-11.46111 -16.65995,-3.64608 -33.65834,-5.11666 -50.64869,-6.10304 -16.88243,-0.93517 -33.7903,-0.62417 -50.67813,-0.0808 -14.58177,0.56217 -29.16002,1.19958 -43.74554,1.66019 -12.33097,0.37628 -24.66889,0.61165 -36.99415,-0.003 -9.56191,-0.4802 -19.02466,-1.96566 -28.49936,-3.25491 -7.69224,-1.08374 -15.39675,-2.07084 -23.12212,-2.88578 -5.08511,-0.52447 -10.18008,-0.94063 -15.27222,-1.38782 -3.78106,-0.32347 -7.558637,-0.68742 -11.339819,-1.00892 -3.794845,-0.26828 -7.579232,-0.64904 -11.364464,-1.02436 -4.135684,-0.49179 -8.253485,-1.09017 -12.405725,-1.42938 -3.765972,-0.28556 -7.543841,-0.30437 -11.316985,-0.41767 -3.061698,-0.0175 -5.9007,-0.20693 -7.46648,-3.11491 -0.785982,-4.41685 1.220463,-8.86684 2.640709,-12.97007 2.903054,-8.04234 6.352718,-15.87068 9.928554,-23.63209 3.785255,-8.02857 7.714947,-15.98901 11.785881,-23.87642 2.961309,-5.84262 6.251668,-11.50575 9.765097,-17.03112 2.59008,-4.02517 5.349538,-7.93841 8.114373,-11.84461 2.4861,-3.55403 4.849816,-7.19026 7.388429,-10.70748 2.42414,-3.35322 5.18727,-6.43756 7.93899,-9.52061 2.6075,-2.77159 5.04697,-5.69011 7.55938,-8.54457 2.78366,-2.77345 5.3603,-5.55339 7.09718,-9.10089 1.12625,-3.36223 0.62396,-1.56962 1.44811,-5.39394 0,0 0.0513,-0.0251 0.0513,-0.0251 l 0,0 c -0.33186,3.57627 -0.0762,1.89398 -0.70956,5.05526 -1.17016,3.43577 -3.17863,6.11195 -5.82442,8.59537 -2.52283,2.84561 -4.94741,5.77857 -7.56051,8.54608 -2.73334,3.07301 -5.47839,6.14594 -7.89819,9.47748 -2.524148,3.5235 -4.898811,7.14853 -7.380222,10.70177 -2.754014,3.91001 -5.527853,7.80892 -8.11473,11.83282 -3.525254,5.52212 -6.821684,11.18511 -9.798917,17.02351 -4.07931,7.88666 -8.00753,15.85093 -11.808521,23.87549 -3.574782,7.75118 -7.020855,15.57039 -9.920315,23.6037 -1.402453,4.04549 -3.357905,8.42603 -2.695052,12.78344 1.543121,2.81963 4.421029,2.84851 7.365458,2.89039 3.774657,0.11114 7.554038,0.13522 11.320875,0.43012 4.158108,0.3473 8.283654,0.93726 12.427302,1.41924 3.783954,0.38831 7.571116,0.73797 11.364646,1.01978 3.779929,0.32451 7.556746,0.68528 11.336516,1.01198 5.08912,0.44736 10.18044,0.87098 15.26202,1.4003 7.72254,0.82353 15.42317,1.82151 23.11416,2.89997 9.46397,1.29066 18.915,2.78444 28.46778,3.25286 12.31352,0.606 24.63913,0.3805 36.95821,0.006 14.5821,-0.46052 29.15699,-1.09704 43.73558,-1.65301 16.88867,-0.53581 33.79717,-0.83521 50.6798,0.10483 16.99588,0.99339 33.99712,2.49587 50.66294,6.13653 13.7784,3.03365 27.38063,6.79392 40.69717,11.47559 9.52531,3.28044 19.02409,6.63719 28.52109,9.99858 5.59843,1.96325 11.18102,3.97906 16.82645,5.80349 1.55072,0.42053 3.09795,0.92076 4.71839,0.97181 0.40059,0.0126 1.05774,-0.42691 1.20123,-0.0527 0.14615,0.38121 -0.89968,0.41708 -0.905,0.82531 -0.005,0.34941 0.60081,-0.35701 0.90122,-0.53552 2.36288,-3.18133 2.0547,-7.68047 3.04631,-11.36854 1.43717,-8.10073 2.92898,-16.19971 5.23098,-24.11018 3.05523,-10.01803 6.86311,-19.7369 11.88531,-28.95509 7.08084,-13.68083 14.5229,-27.17272 21.43389,-40.94196 9.62126,-19.22402 19.00819,-38.56443 28.05561,-58.0659 11.23432,-24.08522 22.47818,-48.16618 33.80481,-72.20814 12.82303,-27.1071 25.64367,-54.21668 37.97769,-81.55111 11.02113,-24.487 21.75318,-49.09951 32.17064,-73.84996 6.91803,-16.35634 13.77831,-32.73856 20.2012,-49.29732 3.04319,-7.90645 6.1561,-15.8282 8.2961,-24.0374 0.5225,-3.10543 0.59338,-6.09353 -3.43728,-5.63437 -3.64808,0.52915 -7.27212,1.19734 -10.88283,1.93916 -5.21645,0.98991 -10.44305,1.9255 -15.6793,2.80494 -6.80669,1.15152 -13.59175,2.44498 -20.4433,3.30976 -8.73907,1.1376 -17.49754,2.11587 -26.26438,3.01384 -11.18129,1.12795 -22.39786,1.83489 -33.60313,2.67843 -13.01042,0.99263 -26.01188,2.09931 -38.99347,3.42112 -14.2463,1.4539 -28.48103,3.05982 -42.77014,4.04789 -13.59997,0.97178 -27.22112,1.61404 -40.81728,2.64679 -13.62885,1.02259 -27.24996,2.1938 -40.90155,2.87455 -12.21362,0.43075 -24.47094,0.3621 -36.60598,-1.2786 -9.06025,-1.39759 -18.02025,-3.37392 -26.51332,-6.92286 -5.83493,-2.31528 -11.60903,-4.83955 -17.64611,-6.59473 -3.42623,-0.86973 -6.93705,-1.65871 -10.48979,-1.16414 -0.36665,0.0757 -0.73329,0.15145 -1.09994,0.22717 0.12064,-0.13565 0.5433,-0.39979 0.36191,-0.40694 -0.99638,-0.0393 -1.68327,2.02412 -2.16137,2.54054 -2.56039,4.0504 -5.25519,8.01481 -7.71411,12.12845 -4.66881,7.47891 -9.15246,15.07695 -13.11391,22.95904 -5.61285,11.02646 -10.99503,22.16798 -16.0775,33.44982 -5.82694,12.88542 -11.41554,25.87432 -17.10622,38.82005 -6.4414,14.23107 -13.24752,28.299 -21.02116,41.86011 -9.24978,16.17776 -18.88583,32.13424 -29.19489,47.66326 -9.37754,14.07091 -18.98948,27.98706 -29.22587,41.45174 -7.784,10.18405 -15.69268,20.28361 -24.15386,29.91876 -6.5453,7.32531 -13.28418,14.4767 -20.43085,21.2228 0,0 -0.59154,0.24348 -0.59154,0.24348 z" />
    <path
       style="fill:#000000;fill-opacity:1;stroke:#000000;stroke-width:15.89999962;stroke-linecap:round;stroke-miterlimit:4;stroke-opacity:1;stroke-dasharray:none"
       id="path3896"
       d="m 299.07628,807.30285 c -7.31838,-3.9267 -14.58998,-3.47533 -21.79676,0.2202 -8.33963,6.89211 -11.52444,17.09773 -14.05315,27.20181 -1.10151,7.98936 -4.46099,18.07888 0.18525,25.52422 0.54258,0.21229 1.04512,0.63236 1.62773,0.63687 4.29508,0.0332 10.62306,-10.2761 12.6995,-13.16905 6.69032,-9.79335 12.81297,-19.95489 19.36114,-29.84178 1.98589,-2.2634 7.2868,-12.21151 10.50899,-6.48645 1.88756,7.37658 2.03028,15.10351 2.71619,22.663 0.77782,10.00735 1.92913,19.98113 3.52692,29.89016 1.47978,4.31274 0.45135,11.76133 4.36012,14.99278 0,0 -0.0479,0.0311 -0.0479,0.0311 l 0,0 c -4.58028,-1.84113 -4.29742,-10.52311 -5.61537,-14.33291 -1.66226,-9.90488 -2.73434,-19.89613 -3.51737,-29.90748 -0.66082,-7.55729 -0.79491,-15.26463 -2.60855,-22.65463 -1.22889,-2.24817 -1.79216,-2.46523 -3.63074,-0.52946 -1.53376,1.61484 -3.31796,4.13627 -4.60205,5.85663 -6.57661,9.87638 -12.69488,20.0483 -19.37889,29.85405 -2.58843,3.62026 -9.45142,14.53958 -14.7769,14.3063 -0.60127,-0.0263 -1.10825,-0.46974 -1.66238,-0.70462 -4.62332,-7.51096 -1.30498,-17.58369 -0.18491,-25.63078 2.70332,-10.92047 6.15263,-21.93079 16.02035,-28.44315 7.2382,-3.65752 14.5247,-4.06169 21.83366,-0.0994 0,0 -0.96485,0.62261 -0.96485,0.62261 z" />
    <path
       style="fill:#000000;fill-opacity:1;stroke:#000000;stroke-width:15.89999962;stroke-linecap:round;stroke-miterlimit:4;stroke-opacity:1;stroke-dasharray:none"
       id="path3898"
       d="m 625.40978,690.58153 c 2.3538,-9.6333 7.19452,-18.2142 13.0715,-26.09703 4.98861,-5.84607 11.42281,-11.87955 19.60761,-9.85109 6.41185,3.90745 7.11541,11.777 7.38673,18.61141 -0.10567,8.6629 -2.98107,16.59821 -7.68702,23.76114 -4.9686,6.09078 -10.18768,9.25097 -17.93614,6.84219 -9.47878,-5.43994 -13.897,-16.0643 -18.05876,-25.64988 -5.2644,-12.96405 -8.55521,-26.58567 -11.46966,-40.23361 -1.86562,-7.41421 -2.209,-15.17974 -4.25358,-22.54712 -0.70509,-0.45698 1.12254,-0.27899 1.38701,0.10175 0.44299,0.63774 0.16041,1.54469 0.23665,2.31744 0.11715,1.18759 0.23061,2.37554 0.34351,3.56354 0.72212,7.59899 0.4496,4.64914 1.15838,13.08908 1.44681,17.55624 1.99429,35.15386 1.05849,52.7451 -0.99114,12.23016 -2.3691,24.80181 -8.46248,35.65653 -2.71652,2.95751 -1.2111,1.80616 -4.41165,3.58669 0,0 0.0444,-0.0359 0.0444,-0.0359 l 0,0 c 2.67516,-1.54987 1.38147,-0.52835 3.71873,-3.25961 5.52983,-10.83128 6.45579,-23.25994 7.60012,-35.18793 0.93117,-17.5826 0.39634,-35.16988 -1.06245,-52.71687 -0.0861,-1.01374 -2.01733,-18.12002 -1.76697,-18.96795 0.22944,-0.77705 0.99545,-1.27862 1.49317,-1.91792 0.0507,0.0722 0.1014,0.14445 0.15211,0.21668 1.98474,7.39165 2.29954,15.17383 4.18285,22.59595 2.89718,13.64168 6.18657,27.25199 11.45734,40.20358 4.15527,9.54993 8.58052,20.05804 17.97869,25.53677 6.57897,2.0365 11.26718,0.0116 15.44609,-5.42909 4.82576,-7.14616 7.78111,-15.11525 7.98379,-23.82481 -0.20092,-6.79343 -0.82897,-14.68966 -7.22711,-18.56846 -7.80741,-1.88665 -13.35657,3.32173 -18.12988,9.03035 -5.86614,7.8625 -10.71272,16.41551 -13.02877,26.03817 0,0 -0.81274,0.39093 -0.81274,0.39093 z" />
    <path
       style="fill:#000000;fill-opacity:1;stroke:#000000;stroke-width:15.89999962;stroke-linecap:round;stroke-miterlimit:4;stroke-opacity:1;stroke-dasharray:none"
       id="path3900"
       d="m 480.14905,-70.801623 c 12.70453,1.583082 25.51528,1.668812 38.29169,1.309214 15.03187,-0.607303 30.03125,-1.805418 45.03282,-2.904762 11.37438,-0.670872 22.77545,-1.790747 34.17649,-1.248275 6.1628,0.788284 9.45231,1.85422 6.63405,8.357852 -5.88767,9.239087 -14.29466,16.549952 -22.2709,23.934066 -11.79847,10.799351 -24.12901,20.992974 -36.34216,31.314476 -5.4064,5.5642543 -15.67784,11.1544781 -17.26895,19.3464395 2.40462,5.9188775 15.37931,5.2550375 20.57807,5.3450975 14.13306,-0.258893 28.12532,-2.45886 42.05365,-4.6862431 8.27752,-1.2999932 16.55034,-2.6289004 24.82486,-3.9483038 0,0 -0.0456,0.034373 -0.0456,0.034373 l 0,0 c -8.56993,1.5869447 -17.1472,3.136197 -25.73351,4.6317839 -14.04298,2.459196 -28.18237,4.73405 -42.47096,4.96111 -4.69307,-0.08982 -16.46705,0.345203 -19.9037,-3.834967 -0.41279,-0.502092 -0.49923,-1.200301 -0.74885,-1.800452 1.59228,-8.2902443 11.94024,-13.914822 17.42408,-19.5268161 12.24926,-10.3265369 24.6089,-20.5336559 36.43687,-31.3464169 7.96592,-7.367934 16.34655,-14.668578 22.25553,-23.868886 2.86749,-6.394608 -0.32201,-7.392566 -6.42522,-8.191943 -11.37701,-0.562465 -22.75541,0.540579 -34.10617,1.214992 -14.97487,1.082464 -29.94804,2.261881 -44.95326,2.840051 -12.7436,0.323613 -25.52122,0.218126 -38.18753,-1.403223 0,0 0.74875,-0.529167 0.74875,-0.529167 z" />
    <path
       style="fill:#000000;fill-opacity:1;stroke:#000000;stroke-width:15.89999962;stroke-linecap:round;stroke-miterlimit:4;stroke-opacity:1;stroke-dasharray:none"
       id="path3906"
       d="m 1127.3939,554.97516 c -8.6735,11.08308 -17.6057,21.95419 -26.7604,32.64206 -9.0227,10.3295 -18.2047,20.56613 -28.3126,29.85331 -3.4195,2.92002 -1.7365,1.72614 -4.9523,3.71426 0,0 -0.053,0.0207 -0.053,0.0207 l 0,0 c 2.8817,-1.86146 1.3565,-0.73549 4.4707,-3.51554 9.7928,-9.29843 18.7264,-19.45947 27.6617,-29.57077 9.1501,-10.68169 18.0988,-21.52991 26.7398,-32.62926 0,0 1.2064,-0.51475 1.2064,-0.51475 z" />
    <path
       style="fill:#000000;fill-opacity:1;stroke:#000000;stroke-width:15.89999962;stroke-linecap:round;stroke-miterlimit:4;stroke-opacity:1;stroke-dasharray:none"
       id="path3908"
       d="m 1103.1125,528.02273 c 3.1675,10.9702 5.8986,22.05512 8.561,33.1563 2.615,11.51986 5.7371,22.90701 9.5544,34.08534 2.9353,8.0543 6.3315,15.92507 9.3682,23.94058 1.0967,4.29611 3.634,9.04115 3.038,13.58923 0,0 -0.051,0.026 -0.051,0.026 l 0,0 c -0.8875,-4.43711 -2.8971,-8.61608 -4.2386,-12.91925 -3.0547,-8.01345 -6.3884,-15.9162 -9.302,-23.98298 -3.7919,-11.20241 -6.88,-22.61434 -9.4386,-34.16219 -2.6272,-11.11548 -5.2896,-22.22496 -8.4868,-33.19373 0,0 0.9952,-0.53934 0.9952,-0.53934 z" />
    <path
       style="fill:#000000;fill-opacity:1;stroke:#000000;stroke-width:15.89999962;stroke-linecap:round;stroke-miterlimit:4;stroke-opacity:1;stroke-dasharray:none"
       id="path3910"
       d="m -91.606482,1009.7819 c -0.541097,-4.268 1.222083,-9.2261 -0.21836,-13.37792 0.250969,0.25633 0.69203,0.41546 0.752907,0.76899 0.265388,1.54117 -0.410953,3.10913 -0.417611,4.67293 -0.01509,3.5445 0.553365,6.9706 1.172241,10.4464 1.392307,6.8288 4.029333,13.1595 9.019934,18.0856 3.786475,3.0865 8.181136,3.3668 12.332624,0.843 6.013323,-5.0305 9.574459,-12.0798 12.560562,-19.1766 1.98577,-4.5823 2.834557,-9.4801 3.918086,-14.31016 2.410439,-4.10107 6.014633,9.14716 6.279322,9.88236 3.131381,8.9696 6.332262,17.9159 9.042453,27.0235 2.639878,8.3651 4.253199,16.9355 4.164355,25.7084 -0.402694,9.8144 -5.076547,17.7372 -10.924721,25.2947 -8.354312,9.9476 -18.95323,17.1767 -31.436109,20.7744 -12.261947,1.4801 -17.862128,-1.947 -23.196358,-12.8359 0,0 0.04954,-0.028 0.04954,-0.028 l 0,0 c 6.435645,10.3149 12.47914,13.5035 24.758038,11.622 1.891439,-0.5653 6.617768,-1.831 8.70858,-2.9012 7.463822,-3.8206 13.722104,-9.5787 19.222338,-15.8187 5.921728,-7.5588 10.747124,-15.4566 11.267094,-25.3191 0.17138,-8.7794 -1.357485,-17.3641 -3.99086,-25.743 -2.705795,-9.105 -5.89915,-18.0495 -9.053421,-27.0071 -0.394555,-1.0889 -3.962608,-9.31922 -3.949741,-10.11329 0.01041,-0.64223 0.550095,-1.16112 0.807225,-1.74972 0.07432,-0.17013 -0.172266,0.32892 -0.258399,0.49339 -1.102877,4.88022 -2.094367,9.79492 -4.089601,14.42172 -3.040216,7.1339 -6.642335,14.2207 -12.666789,19.3167 -5.068233,2.9386 -9.652477,4.4152 -14.601611,0.2718 -4.991337,-4.9565 -7.62984,-11.315 -9.036219,-18.1633 -0.645563,-3.6556 -2.360018,-11.5907 -0.797052,-15.15777 0.321773,-0.73436 0.977102,-1.27144 1.465653,-1.90715 1.274275,4.28522 -0.442867,9.18202 -0.0292,13.55122 0,0 -0.854898,0.4323 -0.854898,0.4323 z" />
    <path
       style="fill:#000000;fill-opacity:1;stroke:#000000;stroke-width:15.89999962;stroke-linecap:round;stroke-miterlimit:4;stroke-opacity:1;stroke-dasharray:none"
       id="path3912"
       d="m -102.022,873.42244 c 0.82354,-11.81715 1.41345,-23.64665 1.86018,-35.48344 0.888076,-23.49784 0.0919,-47.01026 -0.56577,-70.50208 -1.01367,-32.6574 -1.7414,-65.32324 -1.65255,-97.99715 0.16628,-28.75203 1.43123,-57.48283 2.478893,-86.2123 0.872777,-23.29618 1.542238,-46.59857 1.923595,-69.90791 0.22968,-15.46743 0.250867,-30.93672 0.23682,-46.40548 -0.246718,-8.28187 0.260045,-16.63923 -0.682273,-24.88669 2.709606,0.67443 -2.170025,-3.78319 -1.552906,-2.95864 0.159406,0.21299 0.734513,0.0558 0.730365,0.32178 -0.01867,1.19707 -0.984844,2.18642 -1.371604,3.31944 -1.52459,5.82659 -2.78055,11.71675 -4.2573,17.55675 -3.62056,13.50248 -7.79364,26.84873 -11.96214,40.18961 -5.05386,15.87417 -10.04837,31.76699 -15.04305,47.65982 -1.53338,5.10742 -3.13579,10.19348 -4.66188,15.30308 -0.6092,2.03971 -1.03223,4.30171 -2.23662,6.0998 -0.65072,-0.37761 -1.63834,-0.44905 -1.95216,-1.13282 -0.2921,-0.63645 0.45823,-6.96084 0.46244,-6.9934 0.74476,-5.75156 1.9206,-11.43928 3.05301,-17.12261 2.88175,-14.28985 6.3724,-28.43966 10.63038,-42.38002 3.02258,-8.85186 5.79979,-18.23742 12.50012,-25.05464 7.66568,-5.2739 12.07399,-0.71838 18.156758,4.53685 10.394142,9.98454 19.291869,21.38108 28.147513,32.71301 8.561851,11.13765 16.509827,22.7194 25.028164,33.88937 0.762471,0.84224 1.524942,1.68449 2.287413,2.52674 0,0 -0.04874,0.0298 -0.04874,0.0298 l 0,0 c -0.849608,-0.79028 -1.699216,-1.58056 -2.548824,-2.37084 -9.241141,-10.66022 -17.602752,-22.01946 -26.230644,-33.17332 -8.855055,-11.32245 -17.781539,-22.68863 -28.189978,-32.64605 -3.772302,-3.25202 -9.356452,-8.99775 -14.889402,-6.21553 -6.76853,6.74621 -9.52123,16.15311 -12.56223,24.98461 -4.27081,13.93152 -7.73616,28.0804 -10.63428,42.36135 -1.11805,5.67532 -2.27668,11.34723 -3.02058,17.08762 -0.17172,1.32513 -0.33067,2.65332 -0.42048,3.98651 -0.0663,0.98498 0.20333,2.00645 -0.0476,2.96125 -0.26475,1.00761 -0.97138,1.84334 -1.45707,2.76502 1.30062,-1.70825 1.73026,-4.08263 2.3441,-6.0826 1.56925,-5.11293 3.16468,-10.21772 4.72311,-15.33398 5.03165,-15.88854 10.02738,-31.78846 15.07213,-47.67288 4.14212,-13.32521 8.30098,-26.65271 11.88395,-40.1418 1.467,-5.83016 2.71166,-11.70895 4.1824,-17.53686 0.99088,-2.99462 4.667209,-9.32692 5.60103,-2.37472 0.907446,8.28163 0.316067,16.66999 0.541979,24.98264 -0.05322,15.50006 -0.144418,31.00033 -0.413548,46.49839 -0.444386,23.32935 -1.153686,46.65151 -2.036771,69.96844 -1.079262,28.74244 -2.36077,57.48582 -2.56707,86.25169 -0.0988,32.67643 0.58871,65.34471 1.629778,98.00415 0.663094,23.49604 1.496101,47.01453 0.557579,70.51613 -0.476807,11.88353 -1.107337,23.76066 -2.109637,35.61295 0,0 -0.91665,0.45894 -0.91665,0.45894 z" />
    <path
       style="fill:#000000;fill-opacity:1;stroke:#000000;stroke-width:15.89999962;stroke-linecap:round;stroke-miterlimit:4;stroke-opacity:1;stroke-dasharray:none"
       id="path3914"
       d="m -218.42034,259.07118 c -0.0811,15.83446 0.11092,31.66829 0.29618,47.50133 0.41856,19.79825 0.56639,39.58737 -0.75897,59.35225 -1.05808,12.32855 -2.69115,24.80802 -8.16025,36.02946 -5.86917,8.4364 -9.36394,6.41553 -12.79443,-1.96399 -4.44158,-16.72431 -2.10303,-34.12137 0.44784,-50.9408 3.89133,-23.50345 12.23557,-45.68882 23.46181,-66.59074 6.36592,-10.59759 13.72318,-20.82714 23.60363,-28.44665 5.18469,-3.99828 7.39237,-4.74 13.32336,-7.73037 11.23936,-3.4978 18.65848,-3.56084 26.09582,6.2407 4.83385,9.88665 1.37823,20.03677 -2.75269,29.47944 -4.42577,9.09199 -10.64943,17.06584 -17.73146,24.21896 -0.81559,1.50307 -9.06471,6.14952 -5.5028,7.45998 6.64076,1.05169 13.11787,2.63002 19.47051,4.82728 8.58928,3.47308 14.15265,6.76554 16.49269,16.11482 -0.0634,13.44073 -9.3231,24.55935 -17.05063,34.76883 -12.14998,15.26646 -26.19863,28.79823 -42.08154,40.09777 -10.08965,5.70366 -5.05773,3.25557 -15.0377,7.46243 0,0 0.0448,-0.0354 0.0448,-0.0354 l 0,0 c 9.89527,-4.30135 5.11483,-1.90257 14.3525,-7.17395 15.54844,-11.22462 29.15303,-24.75251 41.18324,-39.68881 7.76566,-10.20106 17.07183,-21.29117 17.29374,-34.73085 -2.25613,-9.32695 -7.82645,-12.58439 -16.37407,-16.01806 -6.38201,-2.19509 -12.89125,-3.72732 -19.55728,-4.77828 -3.80159,-1.67253 4.31051,-6.14548 5.28302,-7.69063 7.1055,-7.13591 13.3441,-15.10027 17.79621,-24.18356 4.1264,-9.38469 7.63778,-19.49968 2.87128,-29.35753 -7.38508,-9.76688 -14.78721,-9.61752 -25.93556,-6.10298 -15.35281,7.14863 -25.98942,20.28199 -34.43812,34.6613 -11.21049,20.87793 -19.53601,43.034 -23.41431,66.51096 -2.52415,16.77195 -4.83796,34.12674 -0.34694,50.7882 1.69477,4.11574 1.73624,4.86197 5.31363,7.13581 0.21224,0.13491 0.27055,0.64914 0.50568,0.55992 1.82674,-0.69316 2.9514,-2.80062 3.97604,-4.21347 5.60928,-11.21086 7.32432,-23.73314 8.45345,-36.10448 1.41221,-19.79655 1.36328,-39.62049 0.9893,-59.45776 -0.16518,-15.85929 -0.32428,-31.72028 -0.14537,-47.58019 0,0 0.82735,-0.42091 0.82735,-0.42091 z" />
    <path
       style="fill:#000000;fill-opacity:1;stroke:#000000;stroke-width:15.89999962;stroke-linecap:round;stroke-miterlimit:4;stroke-opacity:1;stroke-dasharray:none"
       id="path3916"
       d="m -279.32888,219.7612 c 10.65517,-1.4122 21.1058,-3.97022 31.50781,-6.61715 12.85545,-3.40514 25.57801,-7.28207 38.37247,-10.90468 12.4245,-3.72112 25.16888,-6.02356 38.01699,-7.6353 10.29932,-1.19597 20.66498,-1.58432 31.02433,-1.75999 3.75733,-0.13881 7.53374,0.38247 11.21534,-0.52834 0,0 -0.0453,0.0348 -0.0453,0.0348 l 0,0 c -3.82821,1.09912 -7.79632,0.79523 -11.74269,0.91129 -10.36371,0.21622 -20.73605,0.58942 -31.04108,1.78185 -12.83855,1.61262 -25.57254,3.91316 -37.9891,7.62783 -12.76378,3.6057 -25.45811,7.4587 -38.28573,10.83588 -10.39732,2.63132 -20.84267,5.16739 -31.48684,6.59257 0,0 0.45384,-0.33875 0.45384,-0.33875 z" />
    <path
       style="fill:#000000;fill-opacity:1;stroke:#000000;stroke-width:15.89999962;stroke-linecap:round;stroke-miterlimit:4;stroke-opacity:1;stroke-dasharray:none"
       id="path3918"
       d="m -153.37143,158.889 c 8.45326,1.38806 16.99356,2.05933 25.52952,2.68329 8.06885,0.52422 16.1348,0.98405 24.15935,1.99685 4.088388,0.84098 8.983119,1.09739 11.818447,4.52334 1.285756,4.6988 -3.663944,8.84008 -6.463095,11.97696 -8.054832,8.44049 -16.480612,16.51655 -24.666822,24.82905 -5.95278,6.20008 -12.11987,12.17886 -18.35804,18.08896 0,0 -0.0529,0.0217 -0.0529,0.0217 l 0,0 c 6.03496,-5.76043 11.91377,-11.66952 17.60239,-17.77441 7.95496,-8.31142 16.18923,-16.34405 24.17934,-24.6201 2.860248,-3.18601 7.699789,-7.21833 6.841371,-11.97546 -2.574754,-3.5395 -7.484371,-3.83641 -11.458261,-4.67572 -8.01487,-1.03376 -16.07526,-1.47678 -24.13616,-2.00892 -8.52837,-0.62499 -17.06059,-1.30581 -25.50393,-2.70809 0,0 0.50874,-0.35748 0.50874,-0.35748 z" />
  </g>
</svg>
