<?xml version="1.0" encoding="UTF-8" standalone="no"?>
<!-- Created with Inkscape (http://www.inkscape.org/) -->
<svg
   xmlns:dc="http://purl.org/dc/elements/1.1/"
   xmlns:cc="http://creativecommons.org/ns#"
   xmlns:rdf="http://www.w3.org/1999/02/22-rdf-syntax-ns#"
   xmlns:svg="http://www.w3.org/2000/svg"
   xmlns="http://www.w3.org/2000/svg"
   xmlns:sodipodi="http://sodipodi.sourceforge.net/DTD/sodipodi-0.dtd"
   xmlns:inkscape="http://www.inkscape.org/namespaces/inkscape"
   width="926.95184"
   height="863.84821"
   id="svg3762"
   sodipodi:version="0.32"
   inkscape:version="0.46+devel"
   version="1.0"
   sodipodi:docname="c17d3.svg"
   inkscape:output_extension="org.inkscape.output.svg.inkscape">
  <defs
     id="defs3764">
    <inkscape:perspective
       sodipodi:type="inkscape:persp3d"
       inkscape:vp_x="0 : 526.18109 : 1"
       inkscape:vp_y="0 : 1000 : 0"
       inkscape:vp_z="744.09448 : 526.18109 : 1"
       inkscape:persp3d-origin="372.04724 : 350.78739 : 1"
       id="perspective3770" />
  </defs>
  <sodipodi:namedview
     id="base"
     pagecolor="#ffffff"
     bordercolor="#666666"
     borderopacity="1.0"
     inkscape:pageopacity="0.0"
     inkscape:pageshadow="2"
     inkscape:zoom="0.35"
     inkscape:cx="407.29164"
     inkscape:cy="629.04882"
     inkscape:document-units="px"
     inkscape:current-layer="layer1"
     showgrid="false"
     inkscape:window-width="1280"
     inkscape:window-height="708"
     inkscape:window-x="-5"
     inkscape:window-y="-3" />
  <metadata
     id="metadata3767">
    <rdf:RDF>
      <cc:Work
         rdf:about="">
        <dc:format>image/svg+xml</dc:format>
        <dc:type
           rdf:resource="http://purl.org/dc/dcmitype/StillImage" />
        <dc:title></dc:title>
      </cc:Work>
    </rdf:RDF>
  </metadata>
  <g
     inkscape:label="Layer 1"
     inkscape:groupmode="layer"
     id="layer1"
     transform="translate(32.29164,-297.56278)">
    <path
       style="fill:#000000;fill-opacity:1;stroke:#000000;stroke-width:15.89999962;stroke-linecap:round;stroke-miterlimit:4;stroke-opacity:1;stroke-dasharray:none"
       id="path3772"
       d="m 325.61058,831.1787 c 1.03644,-13.36056 1.21986,-26.76479 1.38378,-40.15806 0.0353,-22.02699 0.0674,-44.04225 0.87867,-66.05631 1.14555,-26.19616 3.58901,-52.31021 5.94843,-78.41786 2.60895,-28.73815 4.3022,-57.54411 5.98619,-86.34736 1.54119,-30.22848 3.60616,-60.42633 5.87735,-90.60764 1.71073,-23.98268 3.75162,-47.94025 5.49119,-71.92065 1.1097,-14.65941 1.91662,-29.33717 2.36939,-44.03103 0.14775,-5.86424 0.2401,-11.73288 0.10664,-17.59832 -0.14736,-2.67274 -1.24219,-2.84462 -3.46356,-2.16842 -0.21008,0.064 0.39841,-0.18481 0.59761,-0.27722 -3.28221,2.47024 -5.46173,5.98906 -7.40506,9.53814 -0.0428,0.92109 -2.54442,3.70002 -1.84889,4.7176 0.0672,0.0984 -0.07,-0.26499 -0.18099,-0.30824 3.97366,-3.75057 7.7296,-7.72055 11.67387,-11.50286 4.19041,-3.3924 9.25479,-8.66598 15.01944,-6.59977 5.84478,5.27011 8.23727,13.2124 10.32472,20.56156 0.30772,1.46314 0.61544,2.92628 0.92316,4.38943 0,0 -0.0503,0.0272 -0.0503,0.0272 l 0,0 c -0.4177,-1.40255 -0.83539,-2.8051 -1.25309,-4.20766 -2.60974,-7.14366 -5.63189,-14.65723 -11.68419,-19.59257 -5.14982,-1.69354 -7.41535,1.34092 -11.30665,4.60949 -3.94429,3.77384 -7.69766,7.73602 -11.64421,11.50633 -6.41268,4.34083 -3.32,0.92112 -1.94216,-2.71791 1.93276,-3.56438 4.10119,-7.09241 7.33452,-9.63108 2.68977,-1.57964 6.45971,-4.17216 6.88117,0.64638 0.0122,5.88525 0.0508,11.77087 -0.19378,17.65333 -0.47968,14.71188 -1.34071,29.40577 -2.45428,44.08333 -1.78216,23.99449 -3.83162,47.96827 -5.57967,71.96543 -2.30491,30.19128 -4.3968,60.39991 -5.94977,90.64035 -1.69603,28.80947 -3.38932,57.6228 -6.01198,86.36667 -2.35617,26.10477 -4.80441,52.21535 -5.95098,78.40835 -0.80471,22.0204 -0.84663,44.04249 -0.92605,66.07554 -0.18146,13.42503 -0.40417,26.86422 -1.53767,40.24964 0,0 -1.41289,0.7042 -1.41289,0.7042 z" />
    <path
       style="fill:#000000;fill-opacity:1;stroke:#000000;stroke-width:15.89999962;stroke-linecap:round;stroke-miterlimit:4;stroke-opacity:1;stroke-dasharray:none"
       id="path3774"
       d="m -24.34164,1153.461 c 7.743125,-10.0391 15.6265718,-19.9603 23.74629746,-29.6974 13.15357154,-15.7115 27.67447654,-30.1842 42.27745354,-44.5298 18.582498,-17.9978 37.324433,-35.8305 56.01708,-53.7137 19.331929,-18.5105 38.676449,-37.00794 58.057399,-55.46713 16.28152,-15.53399 32.63993,-30.98647 48.71068,-46.73919 13.13472,-12.79782 25.69426,-26.16103 37.98324,-39.767 9.1669,-10.13232 18.11936,-20.45509 27.15234,-30.7062 4.62762,-5.30874 9.36432,-10.51849 14.25535,-15.58528 1.61172,-1.20048 2.3162,-3.39266 3.86367,-4.61588 3.16262,-1.6211 6.70257,-2.09265 10.14968,-2.78107 5.4281,-1.01103 10.86759,-1.95677 16.30052,-2.94205 9.11036,-1.58648 18.31416,-2.53976 27.51762,-3.38635 12.88863,-1.11393 25.82989,-1.32553 38.75902,-1.29945 16.28116,0.15609 32.54485,0.98173 48.81365,1.56771 18.27295,0.69389 36.55833,0.91497 54.84243,1.04777 18.32329,-0.0114 36.6426,0.30412 54.95939,0.75978 16.52707,0.4536 33.04736,1.11897 49.56517,1.82735 15.27829,0.6375 30.52766,1.80461 45.76388,3.0788 16.39993,1.57427 32.78168,3.3501 49.13972,5.31231 15.50227,1.92966 31.02184,3.70056 46.60745,4.7937 7.08911,0.49903 13.9234,-0.0601 20.50123,-2.73679 0,0 -0.0448,0.0354 -0.0448,0.0354 l 0,0 c -6.95528,3.07942 -14.20821,3.99915 -21.82745,3.68615 -15.82533,-0.62412 -31.55304,-2.33622 -47.25861,-4.34578 -16.35798,-1.95868 -32.73909,-3.73659 -49.13945,-5.30156 -15.22359,-1.27018 -30.45884,-2.44683 -45.72378,-3.09545 -16.50008,-0.72501 -33.003,-1.3978 -49.51285,-1.8597 -18.3024,-0.46977 -36.60763,-0.77684 -54.91673,-0.78555 -18.26974,-0.1469 -36.54079,-0.37102 -54.79874,-1.08751 -16.25682,-0.59695 -32.50906,-1.42079 -48.77854,-1.58347 -12.91075,-0.0169 -25.83323,0.18027 -38.70439,1.28477 -9.18233,0.8321 -18.36477,1.77766 -27.45298,3.36141 -5.38647,0.9625 -10.77692,1.89816 -16.16618,2.84406 -1.39228,0.26237 -6.08881,1.71833 -7.26118,1.4921 -0.18167,-0.0351 0.15639,-0.33536 0.23458,-0.50305 -1.74426,1.04467 -2.45898,3.54231 -4.15554,4.70094 -4.91364,5.07698 -9.69747,10.27337 -14.32982,15.60974 -9.0353,10.25976 -18.00465,20.57837 -27.17557,30.71777 -12.31274,13.61457 -24.88753,26.99408 -38.04491,39.80087 -16.10553,15.7714 -32.5042,31.23682 -48.82259,46.78707 -19.394,18.46607 -38.75935,36.96216 -58.099833,55.48436 -18.685187,17.8786 -37.418452,35.7079 -55.992513,53.702 -14.603019,14.3489 -29.112218,28.8331 -42.29177881,44.5245 -8.22115129,9.8027 -16.19795519,19.7965 -24.10990319,29.8496 0,0 -0.609672,0.2612 -0.609672,0.2612 z" />
    <path
       style="fill:#000000;fill-opacity:1;stroke:#000000;stroke-width:15.89999962;stroke-linecap:round;stroke-miterlimit:4;stroke-opacity:1;stroke-dasharray:none"
       id="path3776"
       d="m 202.37384,826.24903 c 7.5249,-4.7287 13.68162,-11.0989 19.46642,-17.76069 6.65441,-8.16528 13.01518,-16.56315 19.58237,-24.79865 6.05316,-7.47607 12.16601,-14.90408 18.31076,-22.30506 3.85013,-4.62098 7.84598,-9.11737 11.86592,-13.59043 2.95719,-3.32795 6.18787,-6.39631 9.03201,-9.82362 2.4952,-3.08089 4.45839,-6.53834 6.55321,-9.89218 1.60572,-2.73693 3.18138,-5.58521 6.76691,-5.67753 2.98952,0.78809 5.88802,1.87392 8.86359,2.722 3.91472,0.99853 7.92723,1.53168 11.9144,2.14825 5.56153,0.82023 11.10015,1.79844 16.62143,2.85492 6.3564,1.20751 12.74223,2.25796 19.09283,3.49574 7.04676,1.38438 14.04465,3.01611 21.02997,4.68098 8.40707,2.08036 16.92566,3.5705 25.52333,4.57393 8.80006,1.04269 17.62637,1.0478 26.44084,0.30309 7.22844,-0.75294 14.25933,-2.58905 21.23886,-4.53564 4.77569,-1.5082 9.57331,-2.94382 14.37458,-4.36784 1.36214,-0.0819 5.38851,-2.79759 5.79522,-0.55279 -1.26258,4.55622 -3.07655,8.9634 -4.63751,13.43018 -4.24343,12.46156 -7.80493,25.141 -11.42534,37.7934 -5.14021,18.23266 -10.44027,36.41791 -15.9092,54.55453 -5.48129,17.92451 -11.06176,35.81851 -16.55096,53.74059 -3.60376,12.04167 -7.40292,24.0207 -11.42019,35.93027 -1.99487,4.40801 -2.8547,9.52065 -5.47134,13.63904 -3.50558,2.80194 -5.87684,0.25753 -8.70792,-1.8794 -3.99366,-3.13658 -8.13926,-6.06168 -12.35506,-8.88945 -6.5807,-4.43228 -13.18337,-8.82871 -19.86234,-13.11172 -8.44198,-5.46328 -17.31145,-10.17847 -26.43153,-14.39239 -9.96829,-4.50263 -20.39128,-7.83762 -30.88213,-10.86969 -10.93526,-3.07427 -21.99919,-5.66028 -33.09707,-8.07079 -9.8544,-2.25701 -19.79154,-4.08087 -29.7991,-5.49756 -8.68111,-1.18152 -17.40527,-1.98578 -26.13337,-2.72002 -5.8186,-0.47423 -11.63754,-0.94144 -17.45085,-1.47731 -3.06549,-0.30254 -6.13673,-0.5548 -9.19553,-0.92168 -0.94345,-0.87597 1.973,-4.20234 2.5061,-5.06451 4.00404,-6.97515 7.46147,-14.2469 11.10826,-21.41165 4.35002,-8.56432 7.79441,-17.52665 11.20305,-26.49245 0,0 0.0518,-0.0242 0.0518,-0.0242 l 0,0 c -2.83027,8.76144 -5.85904,17.4547 -9.72866,25.82385 -3.29663,7.18333 -6.64586,14.3637 -10.60902,21.2095 -0.67567,1.10287 -2.84234,3.75107 -2.74811,4.6948 3.07725,0.34125 6.17109,0.53561 9.24865,0.87774 5.80474,0.5385 11.61522,1.00913 17.42465,1.49383 8.72394,0.74107 17.44273,1.56645 26.12031,2.74464 10.01036,1.42431 19.95052,3.26605 29.81149,5.50857 11.08951,2.4163 22.14505,5.00814 33.06543,8.11061 10.48553,3.05121 20.90625,6.40244 30.86876,10.91752 9.12136,4.22108 17.98529,8.95856 26.42599,14.43039 6.68155,4.28081 13.27853,8.68805 19.86239,13.11721 4.21109,2.84148 8.36493,5.76189 12.3653,8.89613 1.29032,0.96937 2.57826,2.06079 4.03452,2.78233 0.34765,0.17225 1.0251,0.0375 1.08522,0.4208 0.0698,0.44476 -0.80102,0.59839 -0.85524,1.04531 -0.0356,0.29304 0.51962,-0.28025 0.77943,-0.42038 2.77079,-4.04543 3.59897,-9.24861 5.62442,-13.65212 4.0401,-11.91315 7.87757,-23.89146 11.47027,-35.94794 5.51594,-17.91527 11.07516,-35.81723 16.55777,-53.74275 5.46727,-18.13408 10.76846,-36.3158 15.90091,-54.54771 3.62246,-12.64636 7.15824,-25.32824 11.38966,-37.78835 1.54256,-4.4435 3.27451,-8.83053 4.63771,-13.32989 -0.11529,-1.733 -4.58409,0.7594 -5.53624,0.77721 -4.79405,1.42017 -9.58425,2.85252 -14.35517,4.34904 -6.97893,1.94083 -14.01239,3.75615 -21.24013,4.49379 -8.81806,0.73175 -17.64749,0.70071 -26.44907,-0.3417 -8.59684,-1.02443 -17.11559,-2.51608 -25.52394,-4.599 -6.98048,-1.67388 -13.97828,-3.29504 -21.02288,-4.67671 -6.34961,-1.23195 -12.7304,-2.29851 -19.08576,-3.5002 -5.51523,-1.06427 -11.0506,-2.03241 -16.60672,-2.85737 -3.99215,-0.61573 -8.00943,-1.14997 -11.92478,-2.16818 -2.9444,-0.85888 -5.81006,-1.97338 -8.78448,-2.71081 -0.34982,0.0182 -0.76706,0.2618 -1.04947,0.0545 -0.17997,-0.13208 0.65423,-0.59523 0.45815,-0.4885 -1.68876,0.91921 -2.3302,3.10986 -3.46364,4.51856 -2.11314,3.35806 -4.07477,6.83017 -6.57652,9.92333 -2.86263,3.45162 -6.13652,6.51991 -9.1186,9.8664 -4.04488,4.47931 -8.06836,8.98012 -11.93594,13.61442 -6.16808,7.39937 -12.29141,14.83666 -18.35555,22.32141 -6.5789,8.23491 -12.93287,16.64663 -19.59911,24.81122 -5.81565,6.69713 -12.01305,13.09239 -19.57941,17.84294 0,0 -0.99498,0.38584 -0.99498,0.38584 z" />
    <path
       style="fill:#000000;fill-opacity:1;stroke:#000000;stroke-width:15.89999962;stroke-linecap:round;stroke-miterlimit:4;stroke-opacity:1;stroke-dasharray:none"
       id="path3778"
       d="m 323.14297,832.14388 c -4.5372,-6.26038 -5.52177,-13.19043 -3.3835,-20.48934 2.75778,-6.57283 8.28971,-10.10798 14.9355,-12.00865 5.84626,-1.01371 10.57152,1.00363 14.24186,5.49178 3.74009,6.12655 2.98171,12.93086 1.4558,19.60415 -2.11054,7.39065 -5.92404,13.91097 -11.93125,18.72206 -6.20984,4.15648 -11.16648,2.70499 -16.25397,-2.1303 -4.2941,-5.0369 -6.21044,-11.15052 -6.33603,-17.67365 0.40357,-7.09788 4.55834,-12.22358 9.69701,-16.70029 6.13209,-4.92765 13.20516,-7.46191 20.94091,-8.12912 5.55543,-0.0459 10.17611,1.93436 13.43066,6.42302 2.79122,4.88735 0.8193,9.54933 -1.88914,13.94155 -4.30993,6.24516 -10.62117,10.00161 -17.21896,13.38361 -5.38088,2.1729 -9.81276,1.3321 -12.75195,-3.72804 -2.43812,-6.24029 -0.59561,-12.56627 2.02557,-18.40186 2.78638,-5.21523 7.03566,-9.69012 13.19761,-10.29555 5.23097,0.52479 8.14682,4.49046 10.37865,8.83549 2.47607,5.5766 1.43992,10.89336 -1.28152,16.10257 -4.04948,6.19476 -10.65276,9.42134 -17.55641,11.42956 -5.94732,1.29655 -11.10901,0.3996 -14.45329,-4.88881 -2.60695,-7.57732 1.06666,-14.98558 4.55837,-21.6157 4.72419,-8.53562 11.33059,-15.09154 19.77356,-19.81355 7.53054,-2.77789 11.74881,2.48046 14.86574,8.6418 3.20898,8.13286 4.27277,16.77108 2.54283,25.33689 -2.89247,7.63817 -7.83198,9.7249 -15.33732,6.42061 -9.80678,-6.271 -14.69006,-17.01545 -19.0051,-27.37983 -6.14256,-16.68943 -7.92836,-34.46509 -9.28193,-52.06837 -1.08236,-15.75396 -1.25091,-31.53936 -0.54389,-47.30923 -0.0577,-1.59353 1.10832,-16.29801 2.45002,-16.51887 1.05405,-0.17351 2.10915,0.34052 3.16372,0.51079 4.85439,9.66414 6.97939,20.53464 9.50236,30.9891 3.67456,15.50415 6.26662,31.23376 8.40777,47.01414 1.76701,7.52107 0.89356,15.70694 3.00021,23.15233 -0.63015,-0.61508 -1.62619,-1.00526 -1.89045,-1.84525 -0.43929,-1.39637 -0.0339,-2.92759 -0.0714,-4.39095 -0.0518,-2.0186 -0.12514,-4.03661 -0.19662,-6.05462 -0.32887,-9.2842 -0.70828,-18.56659 -1.04247,-27.85063 -0.85579,-24.58953 -1.22896,-49.19225 -1.19463,-73.79577 0.22739,-13.90903 0.25619,-27.85193 1.3688,-41.72761 0.19378,-0.62485 0.76685,-3.07482 2.23369,0.31827 0.54892,1.26975 0.0609,2.76601 0.0783,4.14922 0.0272,2.15924 0.0438,4.31862 0.0556,6.478 0.0321,5.8505 0.0334,13.90706 0.0397,19.59208 0.004,28.11697 0.15818,56.23363 0.21113,84.35053 -0.61695,14.98797 0.88368,30.15778 -0.6401,45.113 -0.84094,-0.6551 -2.12244,-0.97737 -2.52283,-1.96532 -0.66541,-1.64189 -0.30976,-3.53001 -0.42084,-5.29813 -0.15667,-2.4937 -0.27645,-4.98972 -0.38232,-7.48609 -0.47983,-11.31413 -0.67771,-22.63666 -0.89435,-33.95792 -0.54675,-28.57556 -0.29502,-57.15588 0.26729,-85.72836 0.96165,-14.8418 0.006,-29.93713 2.07974,-44.70382 0.80729,0.71857 2.08239,1.12965 2.42187,2.15572 0.63426,1.91704 0.23179,4.03232 0.29324,6.05063 0.0915,3.006 0.13797,6.0134 0.1656,9.02067 0.13117,14.27287 -0.23,28.52373 -0.61949,42.78993 -1.09093,31.45899 -2.84735,62.89339 -5.01686,94.29544 -0.55129,0.61586 -0.52642,15.00371 -2.25968,16.16469 -0.82863,0.55504 -2.24082,0.97336 -2.9769,0.3004 -0.52396,-0.47902 -1.58131,-9.53835 -1.66,-10.12958 -2.57985,-24.89127 -3.03042,-49.92811 -2.75754,-74.92966 0.34211,-23.99999 2.66921,-47.89182 5.74507,-71.67522 0.91945,-5.75409 1.34175,-11.60205 2.50338,-17.31964 0.14118,-0.6949 -0.13877,-1.92951 0.5596,-2.05235 3.89302,-0.68472 2.96133,5.32539 3.04718,6.45198 0.70935,24.26407 0.18183,48.54894 -0.24589,72.81414 -0.78708,20.89696 -0.33993,41.87011 -1.86901,62.73616 -0.16336,0.74823 0.26859,2.14007 -0.49009,2.24469 -1.27826,0.17628 -2.7339,-0.64391 -3.47913,-1.69732 -0.65679,-0.92839 -2.41143,-11.2927 -2.51681,-11.94653 -1.20775,-7.49383 -1.52808,-10.98671 -2.43846,-18.72331 -2.68682,-22.97914 -3.82733,-46.09529 -4.45263,-69.21025 0.73319,-12.69937 -1.74956,-25.97301 0.82626,-38.54704 1.12867,0.21552 2.58472,-0.17702 3.38601,0.64656 0.81185,0.83444 2.48559,9.90367 2.62235,10.67137 1.85433,10.40935 2.96866,20.90974 4.09309,31.41568 2.3608,24.89286 3.51824,49.88331 3.91205,74.87939 -0.82135,5.61723 1.62686,24.26345 -1.89468,28.77809 -1.03788,0.14297 -2.16651,0.87672 -3.11366,0.4289 -0.5165,-0.24421 -1.76562,-5.24714 -1.99174,-6.23376 -1.53827,-6.71212 -2.40091,-13.53597 -3.31033,-20.35276 -2.41858,-19.87602 -3.53561,-39.8805 -4.94903,-59.84566 -0.51311,-7.563 -1.0946,-15.12098 -1.7533,-22.67265 -0.28406,-3.25652 -0.40077,-6.59266 -1.30262,-9.75244 0.57551,0.64859 1.55223,1.09637 1.72651,1.94579 0.34024,1.65825 -0.22939,3.37845 -0.28694,5.07027 -0.0808,2.37521 -0.10945,4.75209 -0.12803,7.1286 -0.0835,10.68164 0.12125,21.36731 0.24098,32.04778 0.27668,24.2079 0.52169,48.4166 0.44354,72.62629 -0.0362,4.484 -0.0667,10.30876 -0.16017,14.8852 -0.0315,1.54051 -0.0667,3.08124 -0.13633,4.6205 -0.0416,0.91866 0.54138,2.9446 -0.35423,2.73595 -0.89707,-0.20899 -1.73354,-0.62326 -2.6003,-0.93489 -1.19845,-17.89673 -1.49338,-35.84133 -1.82654,-53.77058 -0.46473,-22.58575 0.19791,-45.16922 1.5926,-67.71056 0.0496,-1.37898 1.19416,-17.85909 2.3598,-18.0333 0.86049,-0.1286 1.73972,0.0357 2.60958,0.0535 2.0341,14.184 2.75493,28.55211 3.70505,42.84419 1.86027,26.68821 2.89159,53.42354 3.44546,80.16796 0.27124,8.18933 0.14747,16.3814 -0.009,24.57065 0,0 -0.0508,0.0261 -0.0508,0.0261 l 0,0 c -0.76711,-7.90808 -1.38192,-15.83088 -1.53115,-23.77969 -1.1414,-26.64747 -2.01594,-53.31185 -3.90903,-79.92079 -0.95774,-14.25366 -1.70588,-28.58644 -3.78249,-42.72594 0.59698,-0.72653 1.23109,-1.42409 1.79095,-2.1796 0.11959,-0.16138 -0.38774,0.20003 -0.46224,0.38656 -0.25199,0.63087 -0.36204,1.31146 -0.483,1.97994 -0.92713,5.12364 -0.98598,10.35169 -1.50835,15.51939 -1.41947,22.53755 -2.1193,45.11927 -1.62142,67.70309 0.34685,17.89877 0.67077,35.81497 1.94754,53.67648 -0.68948,1.03684 -1.4293,2.04192 -2.06844,3.11053 -0.0538,0.09 0.26612,-0.0277 0.28609,-0.13056 0.15609,-0.80442 0.16867,-1.63075 0.21443,-2.4489 0.36415,-6.50938 0.26706,-13.0351 0.4005,-19.55005 0.12047,-24.21813 -0.0805,-48.43596 -0.38433,-72.65222 -0.13359,-10.6743 -0.34135,-21.35311 -0.29283,-32.02881 2.2e-4,-0.0482 0.0711,-11.27886 0.36319,-12.20929 0.49747,-1.5845 1.77094,-2.81003 2.65641,-4.21504 2.76131,9.81382 1.41096,22.42682 3.04471,32.48864 1.39677,19.95738 2.50324,39.95605 4.96828,59.81804 0.91796,6.80022 1.79114,13.6054 3.34392,20.29859 0.29946,1.2908 0.62619,2.57746 1.03044,3.83937 0.24685,0.7706 1.01841,1.44368 0.91921,2.24674 -0.0981,0.79395 -0.95627,1.28274 -1.43441,1.92411 1.65249,-1.65703 1.58213,-5.01009 1.72986,-7.12815 0.50057,-7.17674 0.3505,-14.39433 0.4429,-21.58022 -0.32568,-25.00079 -1.45258,-49.9977 -3.8407,-74.89228 -1.12801,-10.49487 -2.24899,-20.98188 -4.11787,-31.37796 -0.38983,-2.16848 -0.80123,-4.33571 -1.33055,-6.47442 -0.34289,-1.38546 -1.17843,-2.66165 -1.28289,-4.08508 -0.0727,-0.9906 0.51461,-1.91871 0.77192,-2.87807 -2.66832,12.02211 -0.0756,26.28021 -0.86954,38.50606 0.64591,23.09926 1.74726,46.2031 4.50049,69.16136 0.97339,8.2441 1.17085,10.76687 2.46703,18.69094 0.37916,2.31789 0.77865,4.63388 1.26696,6.93127 0.35351,1.66321 1.19599,3.24451 1.25707,4.94377 0.0492,1.36842 -0.64855,2.66106 -0.93562,3.99992 -0.16105,0.75107 0.3716,-1.49067 0.5574,-2.23601 1.71881,-20.88697 1.28208,-41.90086 2.08466,-62.82915 0.42178,-24.24558 0.93507,-48.51166 0.17738,-72.75502 -0.36219,-4.57839 -1.11577,-4.67863 1.08251,-8.50494 0.35191,-0.61253 -0.4374,1.34621 -0.58357,2.03734 -1.20893,5.71607 -1.60485,11.57762 -2.5537,17.33397 -3.0714,23.78026 -5.45842,47.66064 -5.77413,71.6601 -0.25555,24.97181 0.2115,49.98057 2.86773,74.83497 0.2896,2.11051 0.51973,4.23004 0.86882,6.33154 0.20262,1.21981 0.90393,2.39472 0.78516,3.62553 -0.0772,0.79998 -0.56107,2.24835 -1.32913,2.01166 -0.73833,-0.22754 0.64739,-1.4163 0.81051,-2.17149 0.85363,-3.95184 1.29664,-10.39873 1.63823,-14.01407 2.29905,-31.41742 4.10445,-62.87546 5.16672,-94.36015 0.37958,-14.25499 0.73589,-28.49118 0.56739,-42.75231 -0.0355,-3.00114 -0.0886,-6.00237 -0.18746,-9.00209 -0.0662,-2.00854 -0.54809,-4.02585 -0.30753,-6.02103 0.17731,-1.47059 1.02416,-2.77981 1.53624,-4.16972 -2.34645,14.72614 -1.05759,29.90228 -2.17741,44.72116 -0.59013,28.56096 -0.7974,57.1311 -0.22055,85.69483 0.23177,11.30783 0.45493,22.61379 0.96527,33.9134 0.11254,2.49168 0.23399,4.98322 0.39497,7.47225 0.11386,1.76043 0.64796,3.52435 0.42947,5.27488 -0.18063,1.44723 -1.0642,2.71586 -1.5963,4.07379 1.92364,-14.93699 0.0678,-30.22003 0.88853,-45.20947 -0.0106,-28.11982 -0.13897,-56.23932 -0.19392,-84.35906 -0.0241,-7.12894 -0.0325,-12.55478 -0.0904,-19.56444 -0.0178,-2.15561 -0.0347,-4.31129 -0.0718,-6.46665 -0.0237,-1.37367 -0.44056,-2.78645 -0.1107,-4.12014 0.22284,-0.90099 2.4974,-4.05591 1.60806,-2.27313 -1.24874,13.86918 -1.13808,27.83619 -1.4408,41.74423 -0.0766,24.59811 0.32539,49.19565 1.21015,73.77863 0.34784,9.27362 0.75101,18.54471 1.10776,27.81788 0.0776,2.0173 0.15155,4.0348 0.20774,6.05281 0.0408,1.46445 0.41433,2.96719 0.0831,4.39428 -0.32969,1.42051 -1.33692,2.59208 -2.00538,3.88812 -1.81061,-7.56674 -1.19125,-15.6641 -2.8294,-23.2722 -2.12263,-15.77897 -4.66365,-31.51581 -8.3742,-47.00912 -2.51064,-10.41973 -4.65365,-21.24445 -9.48443,-30.87815 0.12685,-0.79181 0.52783,-1.58716 0.38056,-2.37543 -0.0659,-0.35258 -0.73106,0.91999 -1.23073,3.38539 -0.87086,4.29689 -0.93581,8.69267 -1.25623,13.04902 -0.71104,15.76528 -0.57543,31.54656 0.51475,47.29664 1.3671,17.57731 3.10957,35.3379 9.28595,51.9935 4.30104,10.30511 9.17431,21.01317 18.93843,27.23756 6.87528,2.96411 8.74974,3.19452 11.88957,-4.4417 1.79806,-8.53775 0.76492,-17.13253 -2.41194,-25.26198 -3.09489,-6.10418 -7.24534,-11.25664 -14.68474,-8.40801 -7.36373,3.74296 -12.33211,11.13898 -16.64372,17.89687 -3.45773,6.55027 -7.14959,13.90649 -4.58438,21.40471 3.30152,5.20968 8.4578,5.99361 14.28758,4.70126 5.89793,-1.74254 10.9634,-4.11169 14.39683,-9.52368 2.75367,-5.14938 3.84875,-10.42008 1.4151,-15.97896 -2.20382,-4.29089 -5.06694,-8.22591 -10.26041,-8.66192 -0.89872,0.10686 -1.8987,-0.20698 -2.70789,0.1984 -3.43432,1.72049 -5.67262,5.09841 -7.49054,8.32605 -2.62621,5.77278 -4.47211,12.03928 -2.06296,18.22993 2.9297,4.98072 7.3169,5.67401 12.59201,3.51284 5.78613,-2.1781 10.47566,-6.81659 14.24216,-11.57043 2.71649,-4.32337 4.7602,-8.92107 2.02171,-13.78384 -3.22986,-4.44838 -7.80953,-6.37095 -13.31552,-6.29371 -6.54029,0.60194 -12.8597,2.31666 -18.06034,6.51673 -5.12838,4.42081 -9.31301,9.49761 -9.73209,16.5537 0.0994,6.47992 2.0112,12.55054 6.27983,17.54898 3.76578,3.5549 8.05387,6.09587 13.24845,3.65056 6.10219,-4.77957 9.99646,-11.30603 12.19698,-18.72629 1.59451,-6.64214 2.46742,-13.44492 -1.21687,-19.59685 -3.61823,-4.4878 -8.31387,-6.45225 -14.11495,-5.41143 -5.9253,1.72591 -10.56078,4.81691 -12.97265,10.8086 -2.16482,7.26089 -1.19625,14.15538 3.35259,20.37531 0,0 -1.02156,0.61274 -1.02156,0.61274 z" />
    <path
       style="fill:#000000;fill-opacity:1;stroke:#000000;stroke-width:15.89999962;stroke-linecap:round;stroke-miterlimit:4;stroke-opacity:1;stroke-dasharray:none"
       id="path3780"
       d="m 285.29126,651.11803 c 7.27022,-6.35812 13.33096,-13.87721 19.1533,-21.53781 6.09247,-8.27745 11.67867,-16.90899 17.41419,-25.43338 2.77704,-4.0403 6.33221,-10.17763 12.06583,-8.17493 3.87147,2.20285 6.71492,5.77225 9.71577,8.98675 5.22112,5.66524 11.00773,10.74863 16.95354,15.63085 7.73531,6.11323 15.85112,11.7184 23.62008,17.78671 6.28371,4.72962 11.27354,10.45235 14.36202,17.68087 1.04741,3.36785 0.63357,1.73382 1.28476,4.89095 0,0 -0.0501,0.0274 -0.0501,0.0274 l 0,0 c -1.17407,-2.8859 -0.5353,-1.37625 -1.93023,-4.52305 -3.79065,-6.80462 -9.24692,-12.22349 -15.36682,-17.00538 -7.76506,-6.06554 -15.86966,-11.67874 -23.57746,-17.81941 -5.9371,-4.89488 -11.70744,-10.00156 -16.90214,-15.6929 -2.95325,-3.20676 -5.76424,-6.76062 -9.59448,-8.95647 -5.18253,-1.71071 -6.21392,2.83239 -9.06004,6.50409 -5.74881,8.52388 -11.33568,17.1636 -17.42809,25.44951 -5.82279,7.69209 -11.89802,15.23533 -19.20275,21.59407 0,0 -1.45735,0.5921 -1.45735,0.5921 z" />
    <path
       style="fill:#000000;fill-opacity:1;stroke:#000000;stroke-width:15.89999962;stroke-linecap:round;stroke-miterlimit:4;stroke-opacity:1;stroke-dasharray:none"
       id="path3782"
       d="m 132.10592,610.78891 c 3.5722,7.18208 5.90434,14.83699 7.57768,22.65458 1.19611,6.17078 1.60006,12.44986 1.62747,18.72384 0.0553,4.68865 -0.80168,9.2874 -1.89422,13.82388 -0.0862,0.59225 -1.79117,6.17546 -1.88465,6.18093 -0.68922,0.0403 -1.35465,-0.2674 -2.03198,-0.4011 -0.85583,-4.0575 0.27185,-8.19085 1.29347,-12.11276 1.75721,-6.51757 4.78346,-12.54339 8.20044,-18.32637 3.73221,-6.05949 8.28988,-11.54133 13.62813,-16.23814 3.88508,-3.18273 7.58709,-4.98059 11.88448,-1.97747 3.77099,3.50696 5.79972,8.27533 7.5843,12.99946 2.16655,5.69938 3.16128,11.70665 3.78846,17.74144 0.38415,3.79507 0.3662,7.60916 0.25263,11.41636 -0.0305,0.18908 0.0998,0.57469 -0.0916,0.56723 -0.70652,-0.0275 -1.5778,-0.0972 -2.0193,-0.64945 -0.69099,-0.8644 1.1391,-7.79135 1.42968,-8.86423 1.92161,-6.20538 4.47218,-12.18131 7.65483,-17.83829 3.19369,-5.45755 7.46402,-10.00278 12.51651,-13.75164 4.55471,-3.08195 9.57869,-6.03726 15.22214,-5.79718 4.57975,0.95615 6.75543,4.92243 8.61924,8.82603 2.52216,5.48729 3.55258,11.45847 4.41612,17.38804 0.91023,7.03845 1.13876,14.13281 1.31631,21.21918 -0.206,3.39844 0.29083,6.90286 -0.30285,10.27483 0,0 -0.0506,0.0265 -0.0506,0.0265 l 0,0 c -1.41032,-2.78694 -0.40688,-6.5545 -1.19144,-9.50607 -0.40951,-7.04156 -0.58165,-14.10542 -1.48646,-21.10911 -0.86059,-5.91378 -1.87147,-11.865 -4.37837,-17.34284 -1.81602,-3.84596 -3.93036,-7.78462 -8.45636,-8.68441 -4.34007,-0.12196 -8.43647,1.53708 -11.96057,4.01184 -5.04915,3.70198 -9.30603,8.21992 -12.48475,13.65031 -3.16168,5.6358 -5.7007,11.58843 -7.61458,17.76596 -0.50834,1.86137 -0.88581,3.02957 -1.18553,4.91399 -0.20315,1.27727 0.19406,2.66266 -0.26777,3.87071 -0.34945,0.91406 -0.99531,1.69013 -1.58468,2.47132 -0.11548,0.15307 0.0939,-0.37179 0.14093,-0.55769 0.27538,-3.81698 0.27003,-7.65072 -0.0992,-11.46272 -0.59508,-6.02894 -1.57632,-12.02916 -3.7159,-17.72823 -1.75238,-4.69242 -3.75882,-9.44694 -7.48642,-12.93641 -3.09229,-2.14318 -6.03211,-2.06617 -8.90745,0.43571 -5.32961,4.65833 -9.86593,10.12379 -13.57679,16.15759 -3.40524,5.76288 -6.42391,11.76715 -8.17712,18.26149 -1.01869,3.89047 -2.13801,7.98277 -1.34879,12.01521 -2.91465,5.21807 1.18786,-2.89787 0.9653,-4.24312 1.12377,-4.53777 2.0369,-9.13569 1.99861,-13.83532 0.004,-6.27385 -0.36286,-12.55796 -1.55127,-18.73079 -1.64198,-7.82064 -3.90183,-15.49678 -7.43208,-22.69743 0,0 1.06402,-0.60566 1.06402,-0.60566 z" />
    <path
       style="fill:#000000;fill-opacity:1;stroke:#000000;stroke-width:15.89999962;stroke-linecap:round;stroke-miterlimit:4;stroke-opacity:1;stroke-dasharray:none"
       id="path3784"
       d="m 341.24913,838.09274 c 7.04927,-9.89674 13.96491,-19.88314 20.75016,-29.96258 12.46578,-19.08078 24.79962,-38.23932 37.62849,-57.0796 17.70812,-26.14354 38.17346,-50.19423 59.20512,-73.68249 25.09972,-27.45788 51.48132,-53.70434 77.78043,-80.00338 27.21094,-27.19392 54.83728,-53.96679 82.81147,-80.37367 23.40149,-21.89569 47.26738,-43.28647 70.9697,-64.85413 17.07451,-15.52239 33.78849,-31.43263 50.51776,-47.32422 7.0793,-6.81917 14.22461,-13.56955 21.42777,-20.25766 0.0827,-0.25435 2.95132,-2.38049 2.19379,-2.24889 -2.97848,-0.16013 -5.95763,-0.22537 -8.94005,-0.20812 -8.10848,0.41907 -16.09361,2.06603 -24.0041,3.80583 -7.65275,1.73246 -15.17989,3.96267 -22.6348,6.3975 2.39271,-1.36658 -4.26975,1.82349 -3.2201,1.32738 3.68236,-1.74046 7.36022,-2.50227 11.32476,-3.42999 8.56112,-1.9624 17.31403,-2.7777 26.05423,-3.42908 9.48834,-0.5787 18.9895,-0.96993 28.49399,-1.13901 6.72841,0.0544 12.21699,0.0927 16.11338,6.15036 3.13451,8.12517 2.04065,17.08719 1.30007,25.5576 -1.15085,12.1608 -3.37972,24.18692 -5.90323,36.12779 -0.44922,1.80884 -0.89843,3.61768 -1.34765,5.42652 0,0 -0.0515,0.0248 -0.0515,0.0248 l 0,0 c 0.34189,-1.7566 0.68377,-3.5132 1.02566,-5.2698 1.97163,-11.75676 3.52686,-23.57909 4.56713,-35.4564 0.69145,-8.41957 1.78018,-17.32834 -1.31207,-25.4054 -3.85496,-5.97758 -9.34811,-5.94012 -15.97625,-6.00003 -9.50305,0.16838 -19.00362,0.55193 -28.48945,1.14956 -8.74426,0.6595 -17.49957,1.48989 -26.06105,3.47294 -2.40571,0.57053 -14.10182,3.67775 -4.88487,-0.37457 7.4543,-2.44527 14.99201,-4.64894 22.64698,-6.3806 7.91885,-1.72678 15.91027,-3.37388 24.02629,-3.768 2.98908,-0.009 5.97869,0.0363 8.96252,0.22878 1.36581,0.50119 -1.87655,2.14413 -2.14849,2.73033 -7.31353,6.69252 -14.52781,13.49286 -21.67928,20.35815 -16.78022,15.89382 -33.5148,31.83847 -50.6299,47.37366 -23.7373,21.5909 -47.65272,42.98861 -71.09425,64.90237 -27.98398,26.40665 -55.62217,53.17739 -82.83512,80.37924 -26.29573,26.29769 -52.67251,52.5439 -77.77604,79.99362 -21.02421,23.48129 -41.4896,47.52023 -59.19023,73.65675 -12.84255,18.8553 -25.19701,38.02534 -37.69606,57.10842 -6.83896,10.12942 -13.81873,20.15869 -20.97878,30.06429 0,0 -0.94646,0.41171 -0.94646,0.41171 z" />
    <path
       style="fill:#000000;fill-opacity:1;stroke:#000000;stroke-width:15.89999962;stroke-linecap:round;stroke-miterlimit:4;stroke-opacity:1;stroke-dasharray:none"
       id="path3786"
       d="m 829.45995,305.51278 c 1.81659,11.4481 2.98573,22.98521 3.88205,34.53764 0.52569,8.62526 1.43856,17.45645 -0.91198,25.88765 -1.57771,3.73016 -5.41412,7.25936 -9.01631,3.47251 -3.51219,-6.29418 -0.224,-13.34702 2.53964,-19.2557 5.59534,-10.52662 14.26259,-18.60233 23.66261,-25.68523 8.46138,-6.10181 17.83096,-10.14845 28.11996,-11.61858 3.00117,-0.2911 5.98988,-0.0502 8.97431,0.25125 0,0 -0.0464,0.0334 -0.0464,0.0334 l 0,0 c -3.28838,0.005 -6.5856,-0.0285 -9.85396,0.41153 -9.01399,1.6646 -17.68802,4.72423 -25.18527,10.1234 -9.39449,7.04152 -18.0504,15.08295 -23.65889,25.56765 -2.73737,5.8282 -6.01663,12.76692 -2.66637,19.02335 0.36506,0.38432 0.6631,0.8459 1.09516,1.15296 0.36246,0.2576 1.02304,0.11267 1.23542,0.50335 0.1619,0.29783 -0.80519,0.8374 -0.47216,0.90072 1.61132,0.3064 3.07938,-3.20178 3.5332,-4.05546 2.53219,-8.40565 1.6328,-17.28371 1.13253,-25.92439 -0.87054,-11.55084 -2.01912,-23.08731 -3.86736,-34.52752 0,0 1.50381,-0.7985 1.50381,-0.7985 z" />
  </g>
</svg>
