<?xml version="1.0" encoding="UTF-8" standalone="no"?>
<!-- Created with Inkscape (http://www.inkscape.org/) -->
<svg
   xmlns:dc="http://purl.org/dc/elements/1.1/"
   xmlns:cc="http://creativecommons.org/ns#"
   xmlns:rdf="http://www.w3.org/1999/02/22-rdf-syntax-ns#"
   xmlns:svg="http://www.w3.org/2000/svg"
   xmlns="http://www.w3.org/2000/svg"
   xmlns:sodipodi="http://sodipodi.sourceforge.net/DTD/sodipodi-0.dtd"
   xmlns:inkscape="http://www.inkscape.org/namespaces/inkscape"
   width="2208.699"
   height="781.13159"
   id="svg2"
   sodipodi:version="0.32"
   inkscape:version="0.46+devel"
   version="1.0"
   sodipodi:docname="c18d1.svg"
   inkscape:output_extension="org.inkscape.output.svg.inkscape">
  <defs
     id="defs4">
    <inkscape:perspective
       sodipodi:type="inkscape:persp3d"
       inkscape:vp_x="0 : 526.18109 : 1"
       inkscape:vp_y="0 : 1000 : 0"
       inkscape:vp_z="744.09448 : 526.18109 : 1"
       inkscape:persp3d-origin="372.04724 : 350.78739 : 1"
       id="perspective10" />
  </defs>
  <sodipodi:namedview
     id="base"
     pagecolor="#ffffff"
     bordercolor="#666666"
     borderopacity="1.0"
     inkscape:pageopacity="0.0"
     inkscape:pageshadow="2"
     inkscape:zoom="0.35"
     inkscape:cx="671.51308"
     inkscape:cy="411.49383"
     inkscape:document-units="px"
     inkscape:current-layer="layer1"
     showgrid="false"
     inkscape:window-width="1280"
     inkscape:window-height="708"
     inkscape:window-x="-5"
     inkscape:window-y="-3" />
  <metadata
     id="metadata7">
    <rdf:RDF>
      <cc:Work
         rdf:about="">
        <dc:format>image/svg+xml</dc:format>
        <dc:type
           rdf:resource="http://purl.org/dc/dcmitype/StillImage" />
        <dc:title></dc:title>
      </cc:Work>
    </rdf:RDF>
  </metadata>
  <g
     inkscape:label="Layer 1"
     inkscape:groupmode="layer"
     id="layer1"
     transform="translate(296.51308,-162.72444)">
    <path
       style="fill:#000000;fill-opacity:1;stroke:#000000;stroke-width:15.89999962;stroke-linecap:round;stroke-miterlimit:4;stroke-opacity:1;stroke-dasharray:none"
       id="path2842"
       d="m 146.09803,223.66852 c -1.71379,14.32544 -3.43438,28.64548 -4.82012,43.00728 -2.79456,31.09294 -5.51652,62.19079 -8.51551,93.26505 -3.63233,36.08441 -7.92108,72.09739 -11.48865,108.18836 -1.771,17.09062 -2.85014,34.23722 -3.90789,51.38257 -0.15053,2.58112 -0.26899,5.16844 -0.56845,7.73423 0,0 -0.0503,0.0271 -0.0503,0.0271 l 0,0 c -0.39814,-2.29303 -0.33441,-4.90443 -0.30611,-7.2946 0.28588,-17.12237 1.94718,-34.18178 3.56537,-51.21933 3.66457,-36.1126 7.9787,-72.15406 11.64646,-108.26641 3.0602,-31.09407 5.75947,-62.21961 8.6455,-93.32977 1.43329,-14.39491 3.17255,-28.75067 5.00134,-43.10011 0,0 0.7984,-0.39432 0.7984,-0.39432 z" />
    <path
       style="fill:#000000;fill-opacity:1;stroke:#000000;stroke-width:15.89999962;stroke-linecap:round;stroke-miterlimit:4;stroke-opacity:1;stroke-dasharray:none"
       id="path2844"
       d="m 217.67687,236.35498 c -2.3583,14.46755 -4.17125,29.01834 -6.10282,43.54731 -3.82469,29.27117 -8.73807,58.38039 -13.75092,87.46638 -6.30153,34.1906 -11.38524,68.56771 -14.76754,103.16725 -1.91194,22.62196 -3.18291,45.36393 -1.75488,68.0478 0.19061,1.71733 0.38122,3.43465 0.57184,5.15198 0,0 -0.0506,0.0265 -0.0506,0.0265 l 0,0 c -0.21571,-1.70438 -0.43143,-3.40876 -0.64714,-5.11314 -2.0411,-22.50485 -1.03784,-45.15442 0.9183,-67.63455 3.40158,-34.61956 8.52692,-69.01201 14.85621,-103.21933 5.04845,-29.09033 9.96786,-58.20887 13.80494,-87.4888 1.9407,-14.55225 3.74154,-29.13184 6.21585,-43.60575 0,0 0.70677,-0.34569 0.70677,-0.34569 z" />
    <path
       style="fill:#000000;fill-opacity:1;stroke:#000000;stroke-width:15.89999962;stroke-linecap:round;stroke-miterlimit:4;stroke-opacity:1;stroke-dasharray:none"
       id="path2846"
       d="m 217.89874,390.39975 c 8.72217,2.32243 17.3497,4.98008 26.03991,7.41775 11.83989,3.27208 24.0128,4.79414 36.21745,5.85278 14.41886,1.22505 28.8786,0.8556 43.29229,-0.15022 14.75717,-1.29937 29.43955,-3.29173 44.13837,-5.10975 11.2493,-1.38096 22.53145,-2.47475 33.83598,-3.28117 5.03936,-0.35135 10.08881,-0.51131 15.13827,-0.62262 -0.64593,0.641 3.51337,-0.68148 2.71979,-0.23611 -1.67799,0.94171 -0.99006,0.46769 -0.13962,-0.30502 3.62416,-3.80613 6.1982,-8.44514 8.72101,-13.0133 4.45565,-8.53125 8.42052,-17.30757 12.49868,-26.02273 3.34402,-6.86372 6.37729,-13.91556 10.26674,-20.49706 5.36351,-7.09401 4.89491,4.75426 4.99388,7.24354 0.30665,12.32685 0.25811,24.6593 0.27803,36.98901 0.18364,16.31989 -0.158,32.62872 -1.11743,48.92014 -0.74941,13.1555 -2.38893,26.22958 -4.24544,39.26684 0.20503,5.22448 -3.16335,11.37783 -2.38279,16.54091 1.1114,-0.34719 -0.81065,0.56966 -0.85759,0.27333 -0.0934,-0.58981 0.70581,-0.96459 1.02488,-1.46936 1.94568,-3.07813 3.46125,-6.39583 5.03493,-9.67057 6.78168,-14.97067 11.93566,-30.61558 17.22509,-46.15699 6.34143,-19.08946 12.68679,-38.1741 19.89762,-56.95569 4.01636,-9.8505 7.98868,-19.8134 13.50282,-28.94462 5.39764,-7.48513 6.47628,1.45336 7.20019,5.54007 1.80174,14.08903 1.8592,28.33554 2.00033,42.51696 0.0378,21.15921 -0.90399,42.30609 -1.7326,63.44494 -0.52905,13.87075 -1.09143,27.74187 -1.3337,41.62128 0.0387,0.91661 0.0732,3.63639 0.34787,4.80859 0.0566,0.2415 0.59374,0.58961 0.3543,0.65437 -0.39338,0.1064 -1.11133,-0.0354 -1.13987,-0.4419 -0.0583,-0.83055 0.66284,-1.52872 0.94655,-2.31149 0.38231,-1.05479 0.70019,-2.13183 1.05028,-3.19775 3.64649,-12.48035 6.899,-25.07262 10.27109,-37.62905 6.05315,-23.33214 12.9792,-46.41198 20.53223,-69.29822 7.15893,-21.62344 15.68414,-42.74782 25.43761,-63.32298 1.28931,-2.34689 8.65542,-19.67802 13.19274,-17.22076 1.99803,5.48786 1.63073,11.78505 1.83985,17.57037 0.3706,12.71915 0.39561,25.44546 0.42233,38.16902 0.0336,17.15667 0.0205,34.31337 0.018,51.47006 -0.0393,17.11948 0.0159,34.2385 0.13122,51.35756 0.56239,10.8244 -0.61494,21.88756 1.39997,32.59593 2.42808,5.2381 2.17504,1.58908 4.0931,-2.40203 5.17021,-12.44034 8.99927,-25.39081 12.99099,-38.24274 6.78774,-22.53605 13.83368,-44.98857 21.56523,-67.2194 5.13642,-14.46294 10.87015,-28.71857 17.86503,-42.38671 1.31053,-2.3264 2.47103,-5.02267 5.53101,-5.50171 1.20042,-0.18792 1.52295,5.56351 1.52647,5.59184 0.85501,12.42431 1.16123,24.87805 1.84868,37.31252 0.71605,13.32209 1.70181,26.63836 3.51995,39.85909 1.34861,4.43377 0.68124,10.18018 3.21555,14.25149 -4.38234,0.91615 4.67435,-3.65593 5.84783,-4.0763 7.37639,-1.96303 15.0523,-2.46647 22.63026,-3.10654 17.97419,-1.12944 35.8557,-3.26288 53.70288,-5.62288 21.8797,-3.35568 43.80721,-6.24796 65.87111,-8.04813 19.62786,-1.81069 39.22994,-0.35893 58.63884,2.66864 18.90441,3.12404 36.84253,9.80862 54.30082,17.48822 15.30192,7.01972 29.62745,15.9027 43.92955,24.72603 8.91378,5.6848 18.09076,10.88784 27.87788,14.90072 1.24672,0.43889 3.80285,1.38187 5.19384,1.72671 0.76268,0.18907 3.13245,-0.13481 2.3573,-0.006 -2.41201,0.40055 -1.85912,1.19939 -2.30252,-0.51636 -0.68741,-2.0047 -2.00985,-3.65166 -2.78626,-5.61509 0,0 0.0491,-0.0292 0.0491,-0.0292 l 0,0 c 1.74528,1.34219 3.48109,2.75329 4.88386,4.46142 2.17079,5.30897 -8.0586,2.8463 -9.53508,1.40854 -9.75618,-4.06819 -18.91242,-9.29998 -27.81265,-14.99213 -14.27778,-8.82328 -28.56322,-17.73124 -43.85033,-24.73767 -17.43757,-7.68302 -35.36822,-14.33446 -54.25613,-17.44339 -19.39596,-3.0112 -38.98308,-4.44623 -58.59472,-2.6313 -22.06206,1.80515 -43.98846,4.69848 -65.86604,8.05904 -17.8685,2.35403 -35.7686,4.50181 -53.76175,5.65278 -7.57839,0.65178 -15.26627,1.1538 -22.62761,3.18762 -2.2598,0.85919 -1.59763,1.33988 -5.72764,3.94964 -0.10844,0.0685 -0.2424,-0.084 -0.3636,-0.12602 -2.49667,-4.14748 -1.7343,-9.93226 -3.12785,-14.41679 -1.771,-13.24024 -2.7533,-26.56874 -3.47416,-39.90404 -0.69575,-12.42295 -1.00174,-24.86658 -1.88049,-37.27835 -0.12072,-0.99562 -0.30546,-3.44111 -0.76661,-4.58079 -0.1068,-0.26392 -0.65544,-0.39052 -0.54879,-0.65451 0.18939,-0.46879 1.1587,-1.44239 1.19212,-0.93788 0.10668,1.61072 -4.16862,1.75928 -2.70266,4.01845 -6.97849,13.68179 -12.80931,27.89939 -17.92478,42.3792 -7.74363,22.22127 -14.78187,44.67025 -21.55422,67.20558 -3.98571,12.85283 -7.80934,25.80006 -12.93927,38.25545 -1.42026,3.01578 -5.81858,11.56668 -8.25829,4.45429 -1.92426,-10.75159 -0.76943,-21.82461 -1.32208,-32.68104 -0.0842,-17.12306 -0.15602,-34.24596 -0.11102,-51.36931 10e-4,-17.15404 0.003,-34.30811 -0.032,-51.46212 -0.0526,-12.71491 -0.0616,-25.43278 -0.45709,-38.14288 -0.21427,-5.71461 0.0967,-11.8868 -1.74738,-17.34141 -0.23822,-0.0955 -0.74388,-0.0316 -0.71465,-0.28656 0.0364,-0.31766 0.96913,-0.79414 0.80695,-0.51858 -0.40263,0.68409 -1.09059,1.15906 -1.56046,1.79883 -3.18416,4.33548 -5.39389,9.30325 -7.82641,14.06538 -9.77739,20.5693 -18.33035,41.68773 -25.48953,63.31703 -7.54914,22.87578 -14.45554,45.94898 -20.50338,69.2708 -3.35571,12.55241 -6.60573,25.13629 -10.21987,37.61747 -0.3629,1.13591 -4.90447,14.01316 -5.45738,5.47698 -0.0654,-1.00912 -0.0732,-2.02115 -0.10975,-3.03172 0.41983,-13.89555 0.84024,-27.791 1.44297,-41.68027 0.84037,-21.13218 1.77614,-42.27329 1.71935,-63.42651 -0.15334,-14.15789 -0.24588,-28.38099 -2.06348,-42.44391 -0.4057,-2.27376 -0.58378,-3.90733 -1.33309,-6.04008 -0.20583,-0.58585 -0.80666,-1.07077 -0.78111,-1.6912 0.0294,-0.7149 0.91048,-1.21914 0.93043,-1.93436 0.028,-1.00292 -3.17491,3.90852 -2.05542,2.19885 -5.51279,9.13919 -9.55924,19.06752 -13.56718,28.93158 -7.23364,18.77335 -13.58545,37.85721 -19.91077,56.95243 -5.27715,15.53938 -10.41621,31.18054 -17.16666,46.15865 -1.00192,2.0933 -5.51955,13.68215 -9.12848,12.79447 -0.79025,-4.90595 2.68164,-11.61998 2.45583,-16.64881 1.87572,-13.0364 3.53048,-26.11061 4.28557,-39.26784 0.96799,-16.28536 1.3056,-32.5875 1.10825,-48.90174 -0.0115,-12.32114 0.005,-24.64546 -0.31055,-36.9633 -0.0328,-0.79712 -0.92782,-7.97429 -0.81565,-8.53887 0.16644,-0.83773 1.01266,-1.41291 1.26262,-2.22962 0.23429,-0.7655 -3.16467,3.03126 -1.67398,1.72215 -3.91269,6.57044 -6.94919,13.62508 -10.29761,20.48861 -4.0793,8.71582 -8.03795,17.49631 -12.48668,26.03224 -2.52014,4.59178 -5.10444,9.2405 -8.71569,13.08323 -1.84226,1.73544 -3.52242,2.74615 -5.99894,2.42471 -5.00243,0.01 -10.0028,0.18166 -14.99366,0.52966 -11.28918,0.79744 -22.55687,1.87896 -33.79036,3.25824 -14.69348,1.81598 -29.371,3.80627 -44.12429,5.08829 -14.39177,0.98513 -28.82858,1.33227 -43.22127,0.0682 -12.17745,-1.08474 -24.31982,-2.64116 -36.12355,-5.95187 -8.64163,-2.46959 -17.21863,-5.16258 -25.89332,-7.51479 0,0 0.99958,-0.68832 0.99958,-0.68832 z" />
    <path
       style="fill:#000000;fill-opacity:1;stroke:#000000;stroke-width:15.89999962;stroke-linecap:round;stroke-miterlimit:4;stroke-opacity:1;stroke-dasharray:none"
       id="path2848"
       d="m 997.33439,474.97235 c 7.98021,-1.55758 15.93111,-1.02179 23.69931,1.19617 8.7518,3.01797 15.0994,9.42841 20.7597,16.4707 6.1764,8.03686 10.2156,17.19489 12.7938,26.93073 2.3083,8.84208 0.4958,16.89884 -3.8779,24.68214 -5.5208,8.32923 -13.9135,13.33293 -23.0487,16.87851 -9.6247,3.3853 -19.3809,3.53886 -29.13968,0.87452 -11.60683,-4.25873 -15.72441,-14.42278 -18.61062,-25.55517 -3.19136,-17.08689 -0.32355,-34.13615 4.1532,-50.67805 5.44532,-18.29187 15.68571,-34.14911 27.7684,-48.68598 12.4542,-14.39403 27.9112,-24.9958 45.1975,-32.68407 17.258,-6.95514 33.8963,-6.87318 51.8794,-3.60042 16.9793,3.69081 32.1273,11.85171 46.187,21.78553 12.6824,9.47709 20.7752,19.78245 26.2592,34.56317 4.112,13.92503 1.0405,27.24312 -4.6203,40.15613 -6.0868,12.27081 -15.503,21.58287 -27.1984,28.43976 -10.786,6.03006 -22.2046,7.80848 -34.2504,5.64321 -11.4592,-3.18186 -16.7598,-9.64456 -20.2175,-20.66602 -2.823,-14.53925 2.0285,-28.53004 7.2877,-41.89802 6.734,-15.91808 16.1199,-30.43387 26.5881,-44.11086 9.8323,-12.8253 20.2337,-20.37224 34.6018,-27.29766 12.6241,-5.08797 25.7505,-4.2376 38.8163,-1.78804 13.8204,3.08387 26.4136,9.49498 38.4737,16.70756 12.6587,7.84538 23.9727,17.5323 34.6873,27.81481 10.3645,9.88891 18.9074,21.25248 25.6658,33.84211 5.6426,11.21137 7.3349,23.09296 5.8469,35.42984 -1.9217,10.78008 -7.7291,19.21269 -16.0737,25.99644 -8.3288,5.89735 -17.4335,8.12004 -27.4486,7.36515 -9.271,-1.20352 -15.2137,-6.7669 -19.8904,-14.43714 -5.7193,-12.27976 -6.4196,-25.95776 -6.3783,-39.28557 0.2648,-15.99633 4.5122,-31.1573 11.4654,-45.44316 6.4594,-12.22597 16.3372,-21.43054 27.6643,-29.04239 11.3313,-7.42884 24.0102,-11.14945 37.2452,-13.24381 13.4824,-1.76241 26.8962,0.0379 40.0579,2.9664 13.3105,3.121 25.6129,8.88933 37.1931,16.02305 11.5727,7.37377 21.2637,16.99871 30.0099,27.47253 9.4263,11.25991 15.0223,24.41381 18.5281,38.51802 3.1224,13.54597 2.3906,27.1343 -1.2515,40.43939 -3.0173,9.61737 -8.606,17.22212 -17.2519,22.32055 -8.3057,4.72369 -16.7047,4.36181 -25.513,1.54184 -8.4604,-3.16585 -13.5048,-9.5322 -16.9624,-17.58045 -3.598,-10.17887 -2.9102,-20.80053 -1.2784,-31.2667 2.1953,-12.52032 7.5667,-23.9657 13.8563,-34.88696 6.3511,-10.76781 14.9424,-19.74451 24.4047,-27.79084 9.4754,-7.78349 20.4715,-12.9383 32.2003,-16.21336 10.3754,-2.62676 21.0029,-2.7804 31.5906,-1.80384 9.8868,0.96909 19.5357,3.38373 28.9523,6.4712 11.5774,3.93227 21.3762,11.0456 30.6194,18.84186 13.2951,11.78879 23.9622,25.99576 33.893,40.62421 11.8343,17.71667 20.6338,37.12483 28.74,56.75172 8.8942,21.87172 15.75,44.46193 21.6023,67.31084 6.015,23.73363 8.3144,48.11329 9.2201,72.51014 0.6354,21.64772 -1.3079,43.21602 -4.7046,64.56907 -2.3504,14.46556 -6.5844,28.44866 -13.1123,41.55711 -4.9851,9.68062 -12.6785,16.61438 -21.884,22.11189 -11.5068,6.65065 -24.532,9.37459 -37.4098,11.97486 -16.7959,3.0543 -33.6097,6.00891 -50.4133,9.02059 -22.4536,4.19866 -44.9883,7.86597 -67.6634,10.62833 -26.934,3.38285 -54.0474,4.42391 -81.1661,4.08413 -29.9816,-0.56879 -59.7046,-4.65328 -89.257,-9.42812 -33.4823,-5.77782 -66.8028,-12.43609 -100.2332,-18.50131 -37.8353,-6.9886 -76.0114,-11.75478 -114.3194,-15.16836 -41.4521,-3.64724 -83.05663,-3.2392 -124.58506,-1.58522 -43.63257,2.13884 -87.08388,6.7948 -130.49969,11.48352 -43.65851,4.8456 -87.29302,9.89995 -130.96332,14.63906 -43.42684,4.69515 -86.89997,8.94358 -130.38401,13.06963 -43.97913,3.97761 -87.89543,8.56888 -131.75023,13.73184 -44.99614,5.24749 -89.7713,12.12982 -134.47517,19.41306 -45.29667,7.42484 -90.47015,15.56964 -135.64341,23.70389 -41.815753,7.60105 -83.64734,15.10673 -125.5744797,22.06971 -32.5259893,5.44343 -65.1782383,10.04139 -98.0162913,13.08998 -22.431529,2.1309 -44.930989,2.65468 -67.353419,0.38577 -14.94325,-1.7321 -28.1675,-5.81099 -40.25155,-14.82409 -11.21907,-9.72416 -15.17446,-23.53807 -18.26824,-37.50354 -4.1185,-23.14446 -5.4292,-46.67647 -7.26608,-70.08164 -2.3484,-32.43046 -5.86392,-64.75165 -10.00896,-96.99635 -4.77882,-35.53177 -11.14465,-70.82047 -17.68088,-106.06257 -6.37343,-33.29735 -12.69846,-66.60326 -18.87597,-99.93756 -4.78968,-25.47253 -9.23379,-51.00761 -13.77401,-76.52518 -2.15684,-13.51626 -5.03716,-27.03499 -5.25991,-40.76427 0.43024,-10.49101 5.21126,-13.28553 13.93079,-17.69771 13.37373,-4.41316 27.57247,-5.68716 41.48144,-7.4473 24.40508,-2.89015 48.69221,-6.62416 72.90343,-10.81859 32.38225,-5.693 64.339004,-13.46866 96.196316,-21.53317 35.061003,-9.1366 69.99787,-18.73384 105.091389,-27.74638 43.265321,10.33046 159.878355,-57.28383 -1.806227,1.38293 -35.0975182,9.01308 -70.036459,18.61792 -105.101896,27.75344 -31.873144,8.06909 -63.845462,15.84383 -96.242762,21.54629 -24.24114,4.20316 -48.55672,7.95272 -72.98973,10.86978 -13.91054,1.77234 -28.12728,3.04374 -41.47953,7.54204 -6.70497,2.1568 -9.48345,8.39202 -9.75314,15.00804 0.19918,13.72053 3.08558,27.23269 5.21359,40.74349 4.5086,25.53368 8.90407,51.08774 13.67886,76.57375 6.16389,33.34267 12.44571,66.66253 18.8248,99.96473 6.53382,35.24387 12.88934,70.53482 17.70984,106.0617 4.17334,32.23362 7.71705,64.54313 10.09643,96.96397 1.8519,23.38462 3.17969,46.89628 7.31168,70.01868 3.08782,13.90243 6.99998,27.67381 18.18679,37.34476 12.0567,8.96682 25.279,13.00094 40.16988,14.71631 22.40164,2.25934 44.88161,1.7284 67.291403,-0.3999 32.814716,-3.04128 65.444456,-7.62865 97.948083,-13.06082 41.9124,-6.95289 83.728387,-14.45331 125.530204,-22.0404 45.17721,-8.13288 90.35457,-16.27682 135.65403,-23.70702 44.7112,-7.28293 89.49329,-14.16665 134.49646,-19.41597 43.86069,-5.16224 87.78307,-9.74852 131.76689,-13.73755 43.48645,-4.12774 86.96121,-8.38567 130.39084,-13.07874 43.67177,-4.75158 87.31008,-9.79768 130.97127,-14.64478 43.42448,-4.68826 86.88345,-9.3532 130.5254,-11.48219 41.54234,-1.65016 83.16175,-2.05656 124.62725,1.59336 38.3249,3.41839 76.5172,8.17888 114.3718,15.15878 33.4373,6.06078 66.7651,12.71346 100.2556,18.47968 29.5481,4.76136 59.2671,8.8383 89.2428,9.39238 27.1057,0.33761 54.2072,-0.70704 81.1271,-4.09742 22.6734,-2.76562 45.2041,-6.44973 67.6574,-10.6415 16.8059,-3.01697 33.6237,-5.96838 50.4208,-9.03324 11.2563,-2.27848 22.5226,-4.75392 33.0326,-9.53794 9.2372,-5.45601 16.9783,-12.34346 22.0094,-22.01003 6.5638,-13.08879 10.8563,-27.05274 13.2061,-41.51985 3.4429,-21.34561 5.3958,-42.91073 4.7859,-64.55839 -0.8949,-24.38496 -3.16,-48.7588 -9.1666,-72.48296 -5.8089,-22.85092 -12.6544,-45.43994 -21.5591,-67.2978 -8.1231,-19.60347 -16.9004,-39.00088 -28.7322,-56.70282 -9.9429,-14.595 -20.5681,-28.80743 -33.8625,-40.57031 -9.2225,-7.77795 -19.0096,-14.86852 -30.5673,-18.77198 -9.3984,-3.08511 -19.035,-5.48219 -28.9038,-6.44291 -10.5704,-0.95471 -21.1766,-0.78123 -31.5287,1.85927 -10.3445,2.91885 -20.1077,7.02916 -28.4122,14.03778 -9.4745,8.02338 -18.0859,16.97434 -24.45,27.72878 -6.297,10.89635 -11.6695,22.31271 -13.8831,34.8113 -1.6383,10.42343 -2.3661,21.01481 1.2286,31.15543 3.3905,8.01136 8.4147,14.32607 16.8209,17.45058 7.3164,2.34453 14.4255,2.97579 21.8259,0.39677 8.6952,-5.03319 14.3163,-12.60014 17.3884,-22.20884 3.6525,-13.27791 4.4382,-26.81688 1.282,-40.3403 -3.5532,-14.05881 -9.17,-27.15789 -18.6215,-38.35679 -8.7541,-10.44141 -18.4438,-20.04564 -30.0142,-27.38686 -11.5698,-7.11404 -23.8719,-12.85696 -37.168,-15.95104 -13.1369,-2.92213 -26.5345,-4.69382 -39.9875,-2.91435 -11.7204,1.86936 -23.2059,4.87164 -33.4452,11.12326 -11.3288,7.57363 -21.2289,16.73431 -27.7014,28.93273 -6.9801,14.25746 -11.2591,29.38743 -11.5429,45.37141 -0.045,13.29264 0.6135,26.92476 6.3464,39.16671 4.6338,7.61906 10.5882,13.09688 19.7838,14.25805 8.2797,0.59791 16.6237,-0.53726 23.6322,-5.27139 8.3629,-6.7201 14.1763,-15.09843 16.142,-25.84257 1.5184,-12.29666 -0.1414,-24.1399 -5.7624,-35.32372 -6.7207,-12.58403 -15.2865,-23.90952 -25.6219,-33.78927 -10.7066,-10.26972 -22.0181,-19.93544 -34.665,-27.77121 -12.0477,-7.19272 -24.625,-13.59873 -38.4353,-16.64138 -13.0355,-2.4342 -26.1271,-3.23947 -38.7054,1.86867 -12.6565,5.08481 -22.5423,14.71601 -31.0423,25.1631 -10.4784,13.655 -19.867,28.15995 -26.6136,44.05926 -5.2546,13.32661 -10.1224,27.26532 -7.3469,41.77086 3.4294,10.95799 8.7157,17.35107 20.12,20.45938 10.564,1.86023 20.7018,0.70171 30.5819,-3.69161 11.733,-6.81571 21.1985,-16.09409 27.3317,-28.3565 5.69,-12.86394 8.7861,-26.13452 4.7261,-40.0388 -5.4596,-14.75197 -13.494,-25.03463 -26.1556,-34.4897 -14.0296,-9.93345 -29.1682,-18.05814 -46.1246,-21.72758 -17.9521,-3.24064 -34.5624,-3.3029 -51.7765,3.66303 -16.3663,7.31049 -30.2903,17.22652 -42.1237,30.84658 -12.1019,14.50835 -22.35698,30.34958 -27.81891,48.62584 -4.48101,16.50629 -7.37284,33.52784 -4.16464,50.58134 2.85671,11.07235 6.98052,21.18829 18.54245,25.3748 9.7499,2.62848 19.4855,2.43625 29.0809,-0.97552 8.0273,-3.15222 15.1249,-7.56928 19.9304,-14.99903 4.3991,-7.74214 6.2529,-15.75245 3.9958,-24.58468 -2.5621,-9.71896 -6.5297,-18.87641 -12.697,-26.90223 -5.617,-7.00849 -11.9068,-13.40639 -20.5832,-16.46462 -7.6886,-2.2266 -15.5653,-2.8148 -23.47658,-1.26841 0,0 1.06444,-0.80894 1.06444,-0.80894 l 3e-5,2e-5 z"
       sodipodi:nodetypes="cccccccccccccccccccccccccccccccccccccccccccccccccccccccccccccccccccccccccccccccccccccccccccccccccccccccccccccccccccccccccccccccccccccccccccccccccccccccccccccccccccccccccccc" />
    <path
       style="fill:#000000;fill-opacity:1;stroke:#000000;stroke-width:15.89999962;stroke-linecap:round;stroke-miterlimit:4;stroke-opacity:1;stroke-dasharray:none"
       id="path2850"
       d="m 1817.6635,748.54713 c 0.9315,-14.45793 4.8794,-28.56875 8.3605,-42.57662 6.3077,-24.55157 11.8976,-49.27385 17.1704,-74.06538 6.1921,-30.3113 12.5779,-60.57838 19.6662,-90.69352 6.047,-25.28995 12.9846,-50.35329 19.9649,-75.39775 4.1632,-14.5825 7.9585,-29.27013 10.812,-44.16738 1.7826,-9.59127 2.9177,-19.27721 4.2176,-28.93942 1.0803,-7.84753 2.2391,-15.6847 3.3849,-23.52319 0.4206,-4.06071 2.0737,-8.46051 0.1337,-12.31751 -3.3891,-3.29836 -8.9094,-3.71196 -13.3456,-4.64004 -13.2575,-2.71526 -26.6693,-4.50162 -40.0947,-6.13197 -23.1798,-2.5721 -46.4526,-4.1661 -69.723,-5.64529 -23.0457,-1.36366 -46.0673,-3.06649 -69.0593,-5.14496 -14.5199,-1.55236 -29.4439,-2.20132 -43.2081,-7.46564 0,0 0.047,-0.0319 0.047,-0.0319 l 0,0 c 14.2405,4.95209 29.5315,5.17291 44.407,6.60839 23.1194,1.90396 46.2598,3.52592 69.4179,4.8835 23.3026,1.45531 46.6081,3.03112 69.82,5.59045 13.4478,1.62247 26.8863,3.38162 40.1641,6.10567 4.5099,0.94993 10.0769,1.36349 13.4758,4.7886 1.9695,3.91836 0.378,8.31562 -0.092,12.44615 -1.1563,7.84196 -2.321,15.6833 -3.4128,23.53411 -1.3058,9.66944 -2.428,19.36593 -4.2354,28.96127 -2.867,14.92363 -6.7115,29.62859 -10.9056,44.2312 -7.0103,25.06016 -14.0199,50.12752 -20.073,75.44067 -7.0965,30.11219 -13.4878,60.37684 -19.6677,90.68964 -5.2636,24.81406 -10.8861,49.54944 -17.2452,74.10863 -3.5348,14.05813 -7.4446,28.19273 -8.6676,42.68106 0,0 -1.3122,0.67128 -1.3122,0.67128 z" />
    <path
       style="fill:#000000;fill-opacity:1;stroke:#000000;stroke-width:15.89999962;stroke-linecap:round;stroke-miterlimit:4;stroke-opacity:1;stroke-dasharray:none"
       id="path2852"
       d="m 1689.5513,304.68067 c 2.3386,0.24398 10.978,-2.48595 11.9892,0.75342 -4.8577,4.42844 -12.2342,6.27189 -18.3301,8.502 -10.1946,3.58703 -20.258,7.51792 -30.1751,11.81046 -6.1201,2.73121 -12.2668,5.54612 -17.2682,10.08029 -3.286,3.30192 -1.8215,6.33949 0.7856,9.47438 4.6545,4.6683 10.4612,7.89838 16.2709,10.89188 5.8836,2.93055 11.9932,5.37948 18.116,7.75915 1.7188,1.17533 6.5655,1.63054 6.9513,4.20036 -1.9061,2.31283 -5.4718,2.31902 -8.1653,1.92816 0,0 0.046,-0.0332 0.046,-0.0332 l 0,0 c 2.1106,0.0652 6.1326,-0.44039 6.6222,-1.09669 -0.5769,-2.38789 -5.2321,-2.86198 -6.8773,-4.04374 -6.1168,-2.39052 -12.2154,-4.86136 -18.0952,-7.79499 -5.7883,-3.0449 -11.6008,-6.28055 -16.2086,-11.00868 -2.584,-3.23382 -4.0738,-6.37144 -0.7554,-9.74155 5.6459,-5.15382 12.7829,-8.25692 19.6408,-11.45637 9.9255,-4.29507 19.9997,-8.22304 30.1999,-11.81991 5.3621,-1.96684 11.444,-3.51442 16.0182,-6.98895 -0.572,-3.01026 -9.679,-0.58165 -11.6347,-0.77279 0,0 0.8693,-0.64323 0.8693,-0.64323 z" />
    <path
       style="fill:#000000;fill-opacity:1;stroke:#000000;stroke-width:15.89999962;stroke-linecap:round;stroke-miterlimit:4;stroke-opacity:1;stroke-dasharray:none"
       id="path2854"
       d="m 1771.2948,179.50523 c 0.4688,9.9926 -0.4488,19.98022 -1.3577,29.9217 -0.8148,8.59378 -1.7896,17.17109 -2.7194,25.7529 -0.3988,0.38234 -0.5,10.3505 -1.2961,6.14342 0,0 0.051,-0.0258 0.051,-0.0258 l 0,0 c -0.9605,5.04768 0.1777,-5.37986 0.1476,-5.57314 0.9218,-8.59809 1.9505,-17.18452 2.7988,-25.79046 0.948,-9.96538 1.9157,-19.9722 1.5358,-29.99499 0,0 0.84,-0.43358 0.84,-0.43358 z" />
    <path
       style="fill:#000000;fill-opacity:1;stroke:#000000;stroke-width:15.89999962;stroke-linecap:round;stroke-miterlimit:4;stroke-opacity:1;stroke-dasharray:none"
       id="path2856"
       d="m 1716.2735,170.67445 c 11.6999,1.21396 23.4478,1.83444 35.1964,2.33093 13.7686,0.51544 27.5482,0.59528 41.3247,0.65541 9.5453,0.0128 19.0901,0.1156 28.6341,0.26437 0.8851,0.02 1.7702,0.04 2.6552,0.06 0,0 -0.046,0.0336 -0.046,0.0336 l 0,0 c -0.9426,0.0218 -1.8851,0.0436 -2.8277,0.0653 -9.7713,0.16241 -19.5439,0.28067 -29.3168,0.23099 -13.7518,-0.0653 -27.5064,-0.17166 -41.2492,-0.71508 -11.6888,-0.52768 -23.3784,-1.17172 -35.0113,-2.4707 0,0 0.6408,-0.45483 0.6408,-0.45483 z" />
    <path
       style="fill:#000000;fill-opacity:1;stroke:#000000;stroke-width:15.89999962;stroke-linecap:round;stroke-miterlimit:4;stroke-opacity:1;stroke-dasharray:none"
       id="path2858"
       d="m 1721.8399,245.3466 c 11.4451,-0.0217 22.8777,0.50185 34.2964,1.22963 12.2906,0.82929 24.5741,1.75936 36.8613,2.63627 7.8965,0.49269 15.7936,0.97432 23.6899,1.47108 2.577,-0.0434 1.3768,0.0134 3.6019,-0.14265 0,0 -0.046,0.0341 -0.046,0.0341 l 0,0 c -2.4909,0.37348 -1.1619,0.2205 -3.9911,0.42216 -8.1046,-0.1259 -16.2052,-0.44313 -24.2895,-1.04441 -12.2315,-0.9112 -24.4599,-1.86401 -36.6928,-2.75581 -11.3393,-0.76706 -22.6911,-1.34841 -34.0592,-1.39475 0,0 0.629,-0.45563 0.629,-0.45563 z" />
    <path
       style="fill:#000000;fill-opacity:1;stroke:#000000;stroke-width:15.89999962;stroke-linecap:round;stroke-miterlimit:4;stroke-opacity:1;stroke-dasharray:none"
       id="path2860"
       d="m 234.92736,465.06375 c -1.7366,10.19563 -3.5273,20.38234 -5.43811,30.54692 -1.22077,6.69983 -2.65146,13.35866 -3.9651,20.0405 0,0 -0.0514,0.025 -0.0514,0.025 l 0,0 c 1.07016,-6.55881 2.14855,-13.11605 3.21529,-19.67533 1.79225,-10.15541 3.58575,-20.31078 5.30019,-30.47957 0,0 0.9391,-0.45755 0.9391,-0.45755 z" />
    <path
       style="fill:#000000;fill-opacity:1;stroke:#000000;stroke-width:15.89999962;stroke-linecap:round;stroke-miterlimit:4;stroke-opacity:1;stroke-dasharray:none"
       id="path2862"
       d="m 216.68815,492.5977 c 7.08007,0.72144 14.18673,1.10186 21.29692,1.35416 5.32673,0.15742 10.65618,0.14583 15.9812,0.36248 2.76289,0.23586 5.68598,0.16665 8.11255,1.65025 0.62455,0.30334 0.59172,0.56083 0.77343,1.08097 0,0 -0.05,0.0276 -0.05,0.0276 l 0,0 c -0.39079,-0.34739 -0.63705,-0.66064 -1.2367,-0.7693 -2.73114,-0.99059 -5.67992,-1.04183 -8.54965,-1.3049 -5.31115,-0.21708 -10.62723,-0.21412 -15.93965,-0.39187 -7.07505,-0.27048 -14.14573,-0.68724 -21.18764,-1.44117 0,0 0.79958,-0.56822 0.79958,-0.56822 z" />
    <path
       style="fill:#000000;fill-opacity:1;stroke:#000000;stroke-width:15.89999962;stroke-linecap:round;stroke-miterlimit:4;stroke-opacity:1;stroke-dasharray:none"
       id="path2864"
       d="m 318.87781,544.00337 c -8.23632,-4.45364 -14.35936,-10.98373 -18.74597,-19.15476 -3.99322,-8.55848 -3.20767,-17.15892 0.0229,-25.74513 3.5089,-7.98457 9.63321,-12.75788 17.34083,-16.25903 7.11952,-2.22553 13.54058,0.0652 19.68041,3.68913 6.47446,4.3279 11.00282,10.43922 14.58151,17.23429 3.34065,6.7429 3.94407,13.701 2.47512,20.97749 -1.8025,6.95227 -6.08573,12.41012 -11.24808,17.19942 -4.7765,4.11299 -10.45294,6.76787 -16.53038,8.25844 -3.46377,0.71842 -7.03733,1.0006 -10.48169,0.0885 -0.36949,-0.13015 -0.73899,-0.26031 -1.10848,-0.39046 0,0 0.0472,-0.0323 0.0472,-0.0323 l 0,0 c 0.41301,0.0997 0.82602,0.19931 1.23904,0.29897 3.75962,0.55959 7.57491,0.063 11.2748,-0.70737 5.27348,-1.36083 10.22756,-3.33172 14.34619,-7.01887 5.17656,-4.76043 9.49045,-10.21259 11.32314,-17.14541 1.54289,-7.24972 0.97846,-14.21715 -2.32437,-20.96361 -3.54888,-6.78883 -8.04091,-12.89981 -14.51272,-17.20362 -6.13048,-3.6025 -12.52015,-5.87156 -19.61359,-3.61226 -7.18528,2.58874 -12.21675,8.35988 -15.4939,15.12413 -3.24362,8.5556 -4.04776,17.12893 -0.0893,25.67551 4.35436,8.16465 10.4538,14.66311 18.64444,19.1469 0,0 -0.82705,0.53999 -0.82705,0.53999 z" />
    <path
       style="fill:#000000;fill-opacity:1;stroke:#000000;stroke-width:15.89999962;stroke-linecap:round;stroke-miterlimit:4;stroke-opacity:1;stroke-dasharray:none"
       id="path2866"
       d="m 331.60124,529.72709 c 3.99135,6.99128 7.71793,14.12735 11.34963,21.31047 2.97521,5.88036 5.87149,11.80326 8.98576,17.61187 0.87425,2.05304 2.51446,3.8645 2.98313,6.0861 10e-4,0.0809 0.002,0.16187 0.003,0.2428 0,0 -0.40411,0.23564 -0.40411,0.23564 l 0,0 c -0.0748,-0.0383 -0.14968,-0.0766 -0.22451,-0.11492 -1.7678,-1.43558 -2.48654,-3.83593 -3.71851,-5.67008 -3.08209,-5.82835 -5.96856,-11.75829 -8.92113,-17.65279 -3.60816,-7.19274 -7.31076,-14.34033 -11.30064,-21.33038 0,0 1.24735,-0.71871 1.24735,-0.71871 z" />
  </g>
</svg>
