<?xml version="1.0" encoding="UTF-8" standalone="no"?>
<!-- Created with Inkscape (http://www.inkscape.org/) -->
<svg
   xmlns:dc="http://purl.org/dc/elements/1.1/"
   xmlns:cc="http://creativecommons.org/ns#"
   xmlns:rdf="http://www.w3.org/1999/02/22-rdf-syntax-ns#"
   xmlns:svg="http://www.w3.org/2000/svg"
   xmlns="http://www.w3.org/2000/svg"
   xmlns:sodipodi="http://sodipodi.sourceforge.net/DTD/sodipodi-0.dtd"
   xmlns:inkscape="http://www.inkscape.org/namespaces/inkscape"
   width="957.28375"
   height="761.26117"
   id="svg2"
   sodipodi:version="0.32"
   inkscape:version="0.46+devel"
   sodipodi:docname="c19d1.svg"
   inkscape:output_extension="org.inkscape.output.svg.inkscape"
   version="1.0">
  <defs
     id="defs4">
    <inkscape:perspective
       sodipodi:type="inkscape:persp3d"
       inkscape:vp_x="0 : 526.18109 : 1"
       inkscape:vp_y="0 : 1000 : 0"
       inkscape:vp_z="744.09448 : 526.18109 : 1"
       inkscape:persp3d-origin="372.04724 : 350.78739 : 1"
       id="perspective10" />
  </defs>
  <sodipodi:namedview
     id="base"
     pagecolor="#ffffff"
     bordercolor="#666666"
     borderopacity="1.0"
     inkscape:pageopacity="0.0"
     inkscape:pageshadow="2"
     inkscape:zoom="0.35"
     inkscape:cx="440.30285"
     inkscape:cy="477.35952"
     inkscape:document-units="px"
     inkscape:current-layer="layer1"
     showgrid="false"
     inkscape:window-width="1280"
     inkscape:window-height="708"
     inkscape:window-x="-5"
     inkscape:window-y="-3" />
  <metadata
     id="metadata7">
    <rdf:RDF>
      <cc:Work
         rdf:about="">
        <dc:format>image/svg+xml</dc:format>
        <dc:type
           rdf:resource="http://purl.org/dc/dcmitype/StillImage" />
        <dc:title></dc:title>
      </cc:Work>
    </rdf:RDF>
  </metadata>
  <g
     inkscape:label="Layer 1"
     inkscape:groupmode="layer"
     id="layer1"
     transform="translate(65.302855,-248.46051)">
    <path
       style="fill:#000000;fill-opacity:1;stroke:#000000;stroke-width:15.89999962;stroke-linecap:round;stroke-miterlimit:4;stroke-opacity:1;stroke-dasharray:none"
       id="path2842"
       d="m -10.960216,649.44163 c -8.546134,-8.56454 -12.239733,-19.63668 -14.762856,-31.16521 -3.572174,-22.83503 0.915875,-45.67188 5.789534,-67.94169 6.198636,-23.43797 13.5813335,-46.8682 24.3659041,-68.6646 9.0189139,-18.22788 14.3520619,-25.50798 25.4287549,-42.88046 20.338155,-29.62409 44.171676,-56.79684 71.417699,-80.26413 17.60363,-15.16221 23.30546,-18.45126 42.26139,-31.72558 36.26858,-23.52855 75.73957,-41.90327 117.25975,-54.01478 8.04967,-2.3481 16.23101,-4.21866 24.34652,-6.32799 39.90995,-8.88788 81.10989,-12.68771 121.8652,-8.07502 7.87862,0.8917 15.67378,2.40904 23.51067,3.61356 38.57235,7.60217 74.80367,23.3551 106.51583,46.61263 6.39159,4.68756 12.38883,9.89037 18.58325,14.83555 30.83529,26.90691 57.02643,58.71311 78.90654,93.23833 4.41773,6.97084 8.47975,14.16085 12.71962,21.24127 15.81042,28.29446 28.89268,58.1723 37.50741,89.46579 5.61485,20.39622 5.99159,25.94267 9.47353,46.76605 5.18701,40.32687 3.45793,81.24568 -3.99621,121.18039 -1.53947,8.24754 -3.55601,16.39885 -5.33402,24.59828 -10.41296,40.86003 -26.03585,80.60649 -49.49749,115.82602 -4.65379,6.98606 -9.87609,13.57623 -14.81414,20.36434 -27.97214,34.92941 -63.67108,62.23328 -102.68154,83.78766 -9.04176,4.99583 -18.36307,9.4681 -27.5446,14.20215 -47.03203,21.97282 -96.99587,38.10544 -148.63814,44.53962 -10.54515,1.31384 -21.17437,1.83069 -31.76156,2.74609 -53.38433,2.1922 -106.87896,-5.2976 -157.41364,-22.79235 -9.89697,-3.42625 -19.51132,-7.62004 -29.26698,-11.43006 C 86.457854,950.88105 52.328769,928.89849 24.640808,899.42219 6.8030878,880.43235 3.720051,873.8766 -10.691272,852.2896 -35.480344,809.52083 -50.051901,761.76278 -55.360971,712.69081 c -1.023792,-9.46295 -1.327923,-18.98997 -1.991884,-28.48496 0.01582,-9.34139 0.03165,-18.68278 0.04747,-28.02416 0,0 0.05091,-0.0259 0.05091,-0.0259 l 0,0 c 0.0253,9.31988 0.0506,18.63976 0.0759,27.95964 0.770894,9.4379 1.187011,18.91151 2.312681,28.3137 5.853119,48.88828 21.057432,96.28957 45.8399268,138.88438 14.4386458,21.55313 17.5319878,28.0892 35.3680862,47.06037 27.68242,29.44411 61.780318,51.4098 98.576291,67.70423 9.74834,3.80884 19.35575,8.00021 29.24502,11.42652 50.49905,17.49628 103.95595,24.97137 157.30656,22.77887 10.57881,-0.91504 21.19955,-1.43261 31.73644,-2.74498 51.59031,-6.42556 101.5064,-22.53401 148.48778,-44.49324 8.21185,-4.17541 16.56632,-8.08144 24.63555,-12.52623 39.03142,-21.49976 74.72184,-48.83074 102.71027,-83.72551 4.94334,-6.78538 10.17084,-13.37259 14.83002,-20.35615 23.48538,-35.20179 39.12414,-74.94358 49.56106,-115.79491 1.78842,-8.20099 3.81685,-16.35329 5.36524,-24.60297 7.49462,-39.93061 9.26576,-80.85567 4.12608,-121.19125 -3.45079,-20.82635 -3.81668,-26.37747 -9.41331,-46.77583 -8.58576,-31.29302 -21.62321,-61.18469 -37.40459,-89.48656 -4.23218,-7.08234 -8.28463,-14.27523 -12.69653,-21.24702 -21.84974,-34.52746 -48.02247,-66.32453 -78.83077,-93.23887 -6.19044,-4.94371 -12.18381,-10.14482 -18.57134,-14.83112 -31.68342,-23.245 -67.8675,-39.01228 -106.4096,-46.62162 -7.83117,-1.20494 -15.62058,-2.72259 -23.49351,-3.61482 -40.73809,-4.61676 -81.92273,-0.80922 -121.8141,8.08201 -8.11059,2.1082 -16.28683,3.97833 -24.33178,6.3246 -40.86659,11.91853 -79.81846,29.86327 -115.52996,53.0117 -18.96413,13.26727 -24.70127,16.57731 -42.31358,31.73313 -27.259899,23.4578 -51.103698,50.62598 -71.447191,80.25167 -11.128178,17.4495 -16.354033,24.55135 -25.4046341,42.85423 -10.7769531,21.79405 -18.1847859,45.21108 -24.3723999,68.64792 -4.863026,22.24739 -9.323721,45.06294 -5.741677,67.87112 2.561214,11.49422 6.229674,22.54781 14.742432,31.10988 0,0 -0.850116,0.523 -0.850116,0.523 z" />
    <path
       style="fill:#000000;fill-opacity:1;stroke:#000000;stroke-width:15.89999962;stroke-linecap:round;stroke-miterlimit:4;stroke-opacity:1;stroke-dasharray:none"
       id="path2844"
       d="m 288.27125,679.27675 c 5.9147,-9.96993 13.45385,-18.7896 21.13768,-27.41379 14.47909,-15.81952 30.90583,-29.65321 47.32624,-43.38148 22.4713,-18.45625 45.39908,-36.34742 68.30587,-54.25734 21.97779,-17.23394 44.07803,-34.30972 66.30902,-51.21554 14.51854,-11.02866 29.16559,-21.88488 43.87903,-32.65143 6.98912,-5.06941 13.95249,-10.18193 20.49545,-15.82182 3.36019,-2.84379 6.19661,-6.18819 8.58931,-9.86781 1.98081,-3.36843 3.64024,-6.89975 5.78862,-10.16895 2.16415,-3.12215 4.75844,-5.89884 7.51688,-8.49707 3.24467,-3.07212 6.62908,-5.99257 10.04747,-8.86861 1.12883,-1.07622 2.79765,-1.88327 3.51947,-3.18048 0,0 0.0482,-0.0307 0.0482,-0.0307 l 0,0 c 1.42256,0.21614 -1.76884,2.12458 -2.0237,2.58575 -3.35984,2.91582 -6.78049,5.76491 -9.99841,8.84006 -2.76086,2.58123 -5.35653,5.34557 -7.52107,8.45528 -2.1749,3.25718 -3.8171,6.80138 -5.80098,10.17237 -2.39073,3.71028 -5.24968,7.0717 -8.62418,9.93492 -6.57452,5.66272 -13.56871,10.79823 -20.59902,15.87715 -14.76542,10.78472 -29.46681,21.65614 -44.03272,32.70959 -22.28698,16.9221 -44.44018,34.01831 -66.46774,51.27699 -22.92511,17.91649 -45.87512,35.80937 -68.36209,54.27577 -16.43242,13.72728 -32.86386,27.56913 -47.36451,43.37929 -7.69991,8.6237 -15.26233,17.4384 -21.19077,27.41271 0,0 -0.97807,0.4351 -0.97807,0.4351 z" />
    <path
       style="fill:#000000;fill-opacity:1;stroke:#000000;stroke-width:15.89999962;stroke-linecap:round;stroke-miterlimit:4;stroke-opacity:1;stroke-dasharray:none"
       id="path2846"
       d="m 521.82053,612.49851 c -7.17074,-5.29469 -15.1829,-5.67727 -23.58104,-3.80809 -10.29675,3.31706 -17.46464,10.98861 -23.3351,19.73302 -4.4722,7.56618 -6.9859,15.64125 -4.22388,24.17968 2.88215,5.55288 8.05432,7.14203 13.9309,6.48673 7.97438,-1.99067 13.73522,-8.05679 19.34926,-13.69105 7.62453,-8.04567 14.28535,-16.92931 21.09979,-25.6533 3.58566,-3.61997 7.34861,-12.27666 13.40236,-12.25831 3.397,2.60015 4.13856,7.8828 5.38571,11.77923 2.076,6.46614 4.52987,12.79368 7.2924,18.99478 2.12801,4.92071 5.00462,9.42135 7.94361,13.87984 0.52314,0.76741 0.86128,1.63162 1.43692,2.35983 0,0 -0.732,0.46512 -0.732,0.46512 l 0,0 c -0.94011,-0.4061 -1.50581,-1.19899 -2.18977,-1.94886 -3.26099,-4.26246 -5.8988,-8.93872 -8.09858,-13.83224 -2.74626,-6.21945 -5.19812,-12.55889 -7.23781,-19.04814 -1.20693,-3.80316 -1.89496,-9.08533 -5.19101,-11.63513 -4.7247,0.20467 -7.35451,7.85965 -10.53804,10.61233 -6.84119,8.72916 -13.50823,17.63322 -21.14727,25.69374 -6.27433,6.29877 -12.97461,12.8693 -21.86924,15.09426 -5.91109,0.5743 -11.0379,-1.1476 -13.88979,-6.7206 -2.74189,-8.57664 -0.28686,-16.68013 4.20282,-24.28845 6.272,-9.38245 14.31682,-17.29589 25.2958,-20.87684 8.3979,-1.83096 16.37433,-1.37296 23.48574,3.98307 0,0 -0.79178,0.49938 -0.79178,0.49938 z" />
    <path
       style="fill:#000000;fill-opacity:1;stroke:#000000;stroke-width:15.89999962;stroke-linecap:round;stroke-miterlimit:4;stroke-opacity:1;stroke-dasharray:none"
       id="path2848"
       d="m 650.00495,395.6265 c -4.48094,7.5863 -9.61183,14.74935 -14.97561,21.72873 -6.20288,8.06588 -13.23852,15.38057 -21.17927,21.73067 -7.59163,5.78818 -16.13767,8.28503 -25.54014,8.4264 -9.83321,-0.40503 -18.12606,-4.67131 -25.39012,-11.02874 -8.30573,-8.66997 -10.19796,-19.81285 -10.09364,-31.36531 0.96089,-14.30496 7.03729,-27.00682 14.65373,-38.87202 8.34149,-12.39186 19.93758,-21.18688 32.77915,-28.41511 11.56515,-5.89999 23.91689,-8.00344 36.73723,-6.755 12.59774,2.00828 21.63815,9.69522 29.46192,19.23342 7.7447,10.34913 11.67077,22.30426 12.9986,35.02318 0.74738,13.54809 -4.85768,25.15288 -12.22472,36.07903 -9.06746,12.30757 -21.10248,21.69158 -33.77684,29.99782 -6.13159,4.09953 -12.89852,6.84777 -19.76245,9.40729 0,0 0.045,-0.0352 0.045,-0.0352 l 0,0 c 6.58116,-2.5199 13.12914,-5.08711 18.99637,-9.0903 12.40766,-8.24923 24.14064,-17.61264 33.09363,-29.66616 7.37645,-10.90389 13.00478,-22.46669 12.31039,-36.00345 -1.28847,-12.69973 -5.18043,-24.64126 -12.89684,-34.98294 -7.78907,-9.51748 -16.81149,-17.1653 -29.36776,-19.16344 -12.79396,-1.23638 -25.12106,0.89052 -36.65148,6.79316 -12.08972,6.69963 -22.6049,15.62115 -30.52694,27.04354 -7.60751,11.84216 -13.6949,24.51291 -14.6648,38.79408 -0.11244,11.50637 1.77195,22.62036 10.02386,31.27211 7.19455,6.33633 15.40788,10.63392 25.17806,11.06185 8.60492,-0.12672 16.71048,-2.09574 23.68937,-7.3818 7.99893,-6.3529 15.07722,-13.68863 21.33475,-21.77114 5.39961,-6.99208 10.56948,-14.16575 15.08745,-21.76741 0,0 0.66111,-0.29323 0.66111,-0.29323 z" />
    <path
       style="fill:#000000;fill-opacity:1;stroke:#000000;stroke-width:15.89999962;stroke-linecap:round;stroke-miterlimit:4;stroke-opacity:1;stroke-dasharray:none"
       id="path2850"
       d="m 664.29694,450.16714 c 6.46497,5.18073 12.69873,10.63038 18.70262,16.33678 7.11074,6.8238 13.20689,14.56319 19.04431,22.47355 6.83122,9.7241 13.66394,19.44346 20.76171,28.97559 7.88147,10.57177 16.18253,20.81935 24.19442,31.29125 8.65522,11.18122 16.51508,22.92832 24.11542,34.84086 8.25668,13.06823 16.07337,26.40603 23.9132,39.72619 7.50016,12.65046 14.96963,25.31936 22.17161,38.1424 5.72714,9.9977 10.64132,20.39186 14.015,31.41284 0.97152,5.85786 3.83801,13.19517 1.08683,18.94127 0,0 -0.0517,0.0243 -0.0517,0.0243 l 0,0 c 0.98884,-6.02719 -1.65538,-12.15934 -2.87498,-17.95726 -3.44927,-10.97054 -8.33187,-21.36629 -14.03896,-31.34804 -7.19518,-12.82523 -14.63908,-25.50699 -22.1297,-38.16156 -7.83802,-13.31806 -15.61584,-26.67493 -23.85554,-39.75104 -7.59963,-11.90492 -15.43165,-23.65957 -24.05733,-34.85538 -7.9929,-10.48081 -16.24451,-20.76247 -24.08374,-31.36024 -7.04816,-9.56502 -13.86201,-19.29346 -20.66789,-29.03172 -5.81573,-7.90728 -11.89078,-15.64459 -18.95225,-22.49515 -5.92472,-5.73694 -12.0783,-11.2231 -18.41742,-16.49972 0,0 1.12442,-0.7049 1.12442,-0.7049 z" />
    <path
       style="fill:#000000;fill-opacity:1;stroke:#000000;stroke-width:15.89999962;stroke-linecap:round;stroke-miterlimit:4;stroke-opacity:1;stroke-dasharray:none"
       id="path2852"
       d="m 864.4909,662.59696 c 1.87357,11.99655 4.45121,23.86987 6.91748,35.75476 2.75169,13.20262 5.53001,26.40036 7.89615,39.67853 1.02689,7.35511 3.07572,14.90177 1.43613,22.29926 -2.42187,6.0099 -9.53065,7.00737 -15.24637,7.75712 -11.87828,0.77256 -23.78373,0.96199 -35.67313,1.58472 -15.36726,0.93159 -30.6541,2.75504 -45.93054,4.60927 -6.42771,0.88128 -12.88323,1.26922 -19.36028,1.46419 0,0 0.0461,-0.0338 0.0461,-0.0338 l 0,0 c 6.74028,-0.40492 13.45658,-0.98957 20.13334,-2.04209 15.54092,-2.20771 31.0976,-4.36199 46.78563,-5.22754 11.89254,-0.63564 23.80247,-0.8146 35.68299,-1.61248 4.86024,-0.64863 9.67992,-0.48351 11.77344,-5.63853 1.77665,-7.37951 -0.22385,-14.96244 -1.21279,-22.32786 -2.3014,-13.29921 -5.01562,-26.51947 -7.79654,-39.72579 -2.45387,-11.89175 -5.01371,-23.77127 -6.92207,-35.76605 0,0 1.47049,-0.77371 1.47049,-0.77371 z" />
    <path
       style="fill:#000000;fill-opacity:1;stroke:#000000;stroke-width:15.89999962;stroke-linecap:round;stroke-miterlimit:4;stroke-opacity:1;stroke-dasharray:none"
       id="path2854"
       d="m 810.94517,521.27986 c 6.32228,7.33142 9.91594,16.31127 12.77861,25.43065 2.63453,9.13773 4.11941,18.55435 5.5754,27.9369 0.86919,5.74071 1.65032,11.49673 2.81132,17.1877 0.29863,2.89193 2.04795,3.37938 0.029,3.12041 1.69883,-4.92333 3.23828,-9.8975 4.99355,-14.80268 2.63357,-7.44781 6.33669,-14.39471 10.84219,-20.86123 4.04979,-5.66448 9.45038,-9.94413 15.19124,-13.76078 5.15973,-3.23811 10.53735,-6.11109 15.96886,-8.86232 0.88044,-0.20468 3.93402,-2.70091 4.84128,-1.45463 0.0842,0.51355 0.13094,0.24896 -0.33434,0.73347 0,0 -0.0524,0.0228 -0.0524,0.0228 l 0,0 c -0.48317,-0.50969 0.99704,0.31668 -0.29249,-0.30854 -2.03314,-0.16629 -3.94517,1.6514 -5.74897,2.27764 -4.24084,2.15108 -8.49024,4.2938 -12.50151,6.85642 -5.75422,3.79616 -11.1778,8.05208 -15.2475,13.70252 -4.51708,6.44305 -8.22169,13.37077 -10.85132,20.80702 -1.7567,4.90923 -3.29704,9.88662 -4.97579,14.82159 -3.63199,3.32817 -2.62148,2.0665 -3.42179,-1.45953 -1.01673,-5.73177 -1.89195,-11.48557 -2.70799,-17.24934 -1.44609,-9.37906 -2.91437,-18.79565 -5.53239,-27.93238 -2.83211,-9.10145 -6.41984,-18.0683 -12.69982,-25.39657 0,0 1.33484,-0.80917 1.33484,-0.80917 z" />
    <path
       style="fill:#000000;fill-opacity:1;stroke:#000000;stroke-width:15.89999962;stroke-linecap:round;stroke-miterlimit:4;stroke-opacity:1;stroke-dasharray:none"
       id="path2856"
       d="m 706.70196,308.86402 c 4.8408,3.19794 9.91067,6.0153 15.66179,7.03493 4.14214,0.10232 6.81685,-2.0494 9.6326,-4.73745 2.98211,-3.01256 5.3358,-6.54179 7.58126,-10.11438 2.13323,-3.40789 3.22809,-7.23915 3.75477,-11.19018 0.46727,-3.49307 -1.1107,-6.18453 -3.52348,-8.54433 -2.93807,-2.43002 -6.65299,-3.10085 -10.32498,-3.57181 -4.52845,-0.54675 -8.72723,0.66308 -12.75874,2.60878 -4.55334,2.7271 -8.20445,6.58559 -11.68318,10.52971 -4.65599,5.50152 -8.46397,11.62352 -11.90783,17.9338 -3.01021,5.66806 -5.07587,11.68832 -6.28049,17.97495 -0.91229,4.62651 -0.68748,9.20886 0.41133,13.76225 1.05324,3.9739 3.04564,7.50225 5.41206,10.82312 2.32688,3.23126 5.55867,5.43699 8.91496,7.46333 3.92468,2.15769 8.11416,3.76517 12.36973,5.13122 4.38966,1.41151 8.9183,2.182 13.49558,2.62644 4.62169,0.41656 9.26082,0.25225 13.88538,0.003 3.59912,-0.26363 7.18653,-0.65116 10.78863,-0.87531 0.65833,0.0231 5.67823,-0.16008 1.87016,0.35888 0,0 0.0464,-0.0334 0.0464,-0.0334 l 0,0 c 2.31354,0.9334 -2.99472,0.54899 -3.50623,0.84474 -3.59332,0.2272 -7.17297,0.60908 -10.76477,0.85547 -4.62139,0.24314 -9.25781,0.38791 -13.87426,-0.047 -4.56808,-0.46899 -9.08468,-1.27798 -13.46337,-2.69767 -4.25122,-1.3913 -8.44732,-2.99685 -12.35852,-5.18945 -3.3575,-2.05422 -6.56018,-4.31121 -8.84867,-7.58835 -2.3379,-3.36657 -4.30306,-6.93512 -5.34268,-10.93261 -1.08825,-4.5857 -1.3316,-9.18261 -0.4038,-13.8395 1.19983,-6.30368 3.27812,-12.33954 6.28163,-18.02716 3.44162,-6.32303 7.25658,-12.4555 11.91043,-17.9711 4.13768,-4.71203 8.54696,-9.16749 14.21451,-12.03529 4.06521,-1.93215 8.29129,-3.11714 12.84155,-2.56215 3.70912,0.48753 7.43773,1.17949 10.40273,3.6402 2.43798,2.40182 4.04759,5.13232 3.58237,8.67633 -0.54154,3.98296 -1.63654,7.84308 -3.79235,11.27931 -2.27478,3.57968 -4.62138,7.13969 -7.6196,10.1688 -3.32947,3.21099 -7.19453,6.12133 -12.0295,6.03662 -5.71968,-1.09027 -10.7571,-3.96568 -15.58151,-7.1517 0,0 1.0061,-0.64273 1.0061,-0.64273 z" />
    <path
       style="fill:#000000;fill-opacity:1;stroke:#000000;stroke-width:15.89999962;stroke-linecap:round;stroke-miterlimit:4;stroke-opacity:1;stroke-dasharray:none"
       id="path2858"
       d="m 322.98619,700.06058 c -7.31861,7.30267 -16.51217,11.8445 -26.23325,14.99771 -8.78758,2.51737 -17.74072,3.00859 -26.33644,-0.25541 -6.92208,-3.72248 -7.96595,-10.12488 -7.21999,-17.32863 1.98121,-9.96856 7.9247,-18.09302 14.52324,-25.53626 6.96843,-7.31235 15.44013,-12.80885 25.27742,-15.20863 7.38419,-1.16531 13.29282,1.93172 18.72506,6.58584 5.3726,5.00021 8.59924,11.35046 10.67791,18.28368 2.07506,7.63986 0.37491,14.95959 -2.61819,22.05695 -4.12914,8.96312 -11.4509,14.46066 -19.83076,19.11083 -9.15439,4.42303 -19.17758,5.56092 -29.2129,5.50139 -7.60006,-0.31773 -15.14898,-1.51852 -20.36848,-7.42033 -3.7078,-6.73293 0.25729,-13.19975 4.1446,-18.81948 7.51727,-9.47628 17.82302,-15.72065 28.28851,-21.41448 9.09906,-4.48763 18.6712,-7.07832 28.76663,-5.50595 6.87216,1.70606 11.11554,6.22307 13.9475,12.457 2.51205,6.3371 2.1618,12.56846 0.002,18.89761 -3.18619,7.53469 -9.26622,11.86072 -16.72426,14.68675 -6.86601,1.98662 -13.40986,0.62625 -19.49433,-2.82314 -3.50566,-2.32702 -5.20631,-5.34585 -6.03899,-9.35185 0,0 0.0501,-0.0274 0.0501,-0.0274 l 0,0 c 1.49949,3.73657 3.5478,6.63251 7.20876,8.5784 6.33476,2.93314 12.84147,4.58662 19.74583,2.47059 6.26325,-2.41631 10.96825,-6.4088 13.63956,-12.77777 2.19607,-6.28771 2.58856,-12.48419 0.11402,-18.80821 -2.80602,-6.18797 -6.97962,-10.67619 -13.81922,-12.33906 -10.08058,-1.53173 -19.63785,1.10077 -28.70652,5.59579 -9.56479,4.96814 -18.51339,11.26106 -25.37948,19.66514 -3.84625,5.5165 -7.85069,11.93756 -4.19458,18.57887 5.1846,5.84587 12.7156,6.99656 20.24359,7.32309 10.00518,0.0543 19.99528,-1.09367 29.10959,-5.53222 7.42693,-3.88931 13.30274,-9.83738 17.03992,-17.37023 3.03819,-7.07151 4.77379,-14.37707 2.80065,-22.02959 -2.02284,-6.92176 -5.16217,-13.29284 -10.51313,-18.28733 -5.40083,-4.64005 -11.27573,-7.70058 -18.62173,-6.50701 -9.07476,2.24891 -16.69259,7.05152 -23.07572,13.93227 -6.59578,7.4154 -12.55794,15.50631 -14.53834,25.45464 -0.75435,7.13447 0.24816,13.51589 7.13725,17.17879 8.51719,3.26217 17.41515,2.77147 26.13401,0.30032 9.15504,-2.95764 17.73114,-7.05401 24.5926,-13.99796 0,0 0.7573,-0.3147 0.7573,-0.3147 z" />
  </g>
</svg>
