<?xml version="1.0" encoding="UTF-8" standalone="no"?>
<!-- Created with Inkscape (http://www.inkscape.org/) -->
<svg
   xmlns:dc="http://purl.org/dc/elements/1.1/"
   xmlns:cc="http://creativecommons.org/ns#"
   xmlns:rdf="http://www.w3.org/1999/02/22-rdf-syntax-ns#"
   xmlns:svg="http://www.w3.org/2000/svg"
   xmlns="http://www.w3.org/2000/svg"
   xmlns:sodipodi="http://sodipodi.sourceforge.net/DTD/sodipodi-0.dtd"
   xmlns:inkscape="http://www.inkscape.org/namespaces/inkscape"
   width="1703.3046"
   height="694.70636"
   id="svg2"
   sodipodi:version="0.32"
   inkscape:version="0.46+devel r20655"
   sodipodi:docname="c2d1.svg"
   version="1.0"
   inkscape:output_extension="org.inkscape.output.svg.inkscape">
  <sodipodi:namedview
     id="base"
     pagecolor="#ffffff"
     bordercolor="#666666"
     borderopacity="1.0"
     inkscape:pageopacity="0.0"
     inkscape:pageshadow="2"
     inkscape:zoom="0.35"
     inkscape:cx="813.74819"
     inkscape:cy="465.66459"
     inkscape:document-units="px"
     inkscape:current-layer="layer1"
     showgrid="false"
     inkscape:window-width="1280"
     inkscape:window-height="712"
     inkscape:window-x="-5"
     inkscape:window-y="-3" />
  <defs
     id="defs4">
    <inkscape:perspective
       sodipodi:type="inkscape:persp3d"
       inkscape:vp_x="0 : 526.18109 : 1"
       inkscape:vp_y="0 : 1000 : 0"
       inkscape:vp_z="744.09448 : 526.18109 : 1"
       inkscape:persp3d-origin="372.04724 : 350.78739 : 1"
       id="perspective10" />
  </defs>
  <metadata
     id="metadata7">
    <rdf:RDF>
      <cc:Work
         rdf:about="">
        <dc:format>image/svg+xml</dc:format>
        <dc:type
           rdf:resource="http://purl.org/dc/dcmitype/StillImage" />
        <dc:title></dc:title>
      </cc:Work>
    </rdf:RDF>
  </metadata>
  <g
     inkscape:label="Layer 1"
     inkscape:groupmode="layer"
     id="layer1"
     transform="translate(438.74819,-303.32039)">
    <path
       style="fill:#000000;fill-opacity:1;fill-rule:nonzero;stroke:#000000;stroke-width:3;stroke-linecap:round;stroke-linejoin:round;stroke-miterlimit:4;stroke-opacity:1;stroke-dasharray:none;stroke-dashoffset:0"
       id="path2842"
       d="m -398.51142,727.91587 c 4.45471,-3.53309 8.26924,-7.75368 11.93414,-12.07557 5.82387,-6.97966 10.48465,-14.75242 14.56043,-22.84702 4.23986,-8.68113 6.93515,-17.92389 8.70811,-27.38668 1.56083,-9.3295 0.96941,-18.74964 -0.0522,-28.09101 -1.21063,-9.43587 -3.1373,-18.74922 -4.22944,-28.20241 -1.16769,-9.48366 0.20122,-18.65626 3.22735,-27.63428 4.07961,-10.94953 11.51294,-19.79929 19.63396,-27.97266 12.3521,-12.07153 27.5165,-20.28271 42.41135,-28.71047 11.91461,-6.17994 24.72321,-10.27633 37.63416,-13.77733 11.18379,-2.91708 22.62897,-4.60742 33.97503,-6.74 5.49336,-1.12853 11.02994,-2.40053 16.12557,-4.81644 1.01152,-0.47958 3.94919,-2.11051 2.95966,-1.58708 -2.38333,1.26071 -4.76072,2.53261 -7.14109,3.79891 4.98178,-3.93198 6.05172,-9.51049 6.26746,-15.51486 -0.26892,-8.44085 -2.05193,-16.75301 -3.41206,-25.06795 -2.01352,-10.70334 -2.81398,-21.49442 -2.31413,-32.36231 0.66511,-12.73978 4.97257,-24.43572 11.15736,-35.44214 8.10247,-13.29657 20.38004,-22.49798 33.29144,-30.71475 19.14506,-12.59488 40.27548,-19.74994 62.53797,-24.22613 20.439717,-3.79074 41.110902,-3.2497 61.614045,-0.5619 19.606057,2.78154 37.705662,10.18468 54.5265839,20.37679 16.4927511,11.26702 25.1173011,23.00231 32.4480831,41.34343 6.422082,18.93862 5.352931,38.79354 3.466352,58.36243 -2.834396,22.61007 -7.313723,44.96717 -11.180087,67.41366 -4.175635,22.92414 -6.369381,46.10174 -7.14551,69.37006 -0.68804,22.36576 2.027933,44.56604 6.091201,66.50505 4.175738,20.36231 10.445607,40.20597 16.670165,60.01217 5.814602,17.36499 10.402151,35.06171 13.270228,53.14461 2.575997,16.89659 0.224093,32.4694 -5.207796,48.48139 -6.991931,18.47207 -19.526323,33.68821 -32.568493,48.1882 -17.0229961,18.52514 -36.876552,34.01547 -57.019476,48.94926 -25.272747,18.27772 -52.464555,33.6601 -80.384056,47.4774 -22.85989,11.27486 -47.02088,19.18418 -71.82149,24.80506 -21.00242,4.6108 -42.36508,5.00189 -63.66228,2.86573 -18.30115,-1.98724 -35.64228,-7.60972 -51.90427,-16.06985 -14.85433,-8.14696 -25.63994,-20.51071 -34.52359,-34.64479 -8.41772,-14.69211 -12.65093,-31.07899 -15.98265,-47.53289 -2.73188,-14.5485 -3.94118,-29.31167 -4.7767,-44.07135 -0.4127,-10.00079 -0.60271,-20.00553 -1.57045,-29.97245 -0.47727,-5.95305 -2.07824,-11.20516 -6.23057,-15.5399 -5.1934,-4.23017 -11.90291,-5.67833 -18.23981,-7.3346 -8.79103,-2.0125 -17.59169,-3.9402 -26.2311,-6.54042 -7.5915,-2.22944 -14.30143,-5.8924 -19.84416,-11.5217 -5.26042,-6.30425 -5.91775,-14.15949 -5.79252,-22.03659 0.1868,-5.00414 1.31472,-9.84844 2.49358,-14.68615 0,0 10.0638,-4.82257 10.0638,-4.82257 l 0,0 c -1.20631,4.75521 -2.35091,9.51674 -2.57128,14.44583 -0.18508,7.56797 0.31401,15.16725 5.40014,21.22562 5.45622,5.45562 12.07962,8.93177 19.49318,11.08159 8.64569,2.55887 17.44754,4.46174 26.22747,6.49722 6.53301,1.71841 13.40401,3.29652 18.64696,7.81857 4.25798,4.57134 6.0554,10.00286 6.53615,16.22229 0.94206,10.00326 1.10715,20.04041 1.46761,30.07699 0.77657,14.72454 1.93471,29.45387 4.62515,43.97139 3.26793,16.33373 7.43096,32.60623 15.79029,47.18337 8.79068,13.97088 19.48216,26.15857 34.20222,34.1565 16.1831,8.33745 33.42802,13.85573 51.6088,15.76838 21.2118,2.04412 42.47982,1.56773 63.37434,-3.0886 24.72422,-5.68638 48.80667,-13.64713 71.58756,-24.94482 21.593214,-10.74259 42.701146,-22.30557 62.051122,-36.83291 20.111327,-14.86626 39.9520905,-30.26699 56.977966,-48.69986 13.005529,-14.36739 25.54161,-29.43022 32.623072,-47.73037 5.505518,-15.83999 7.945703,-31.23388 5.452994,-48.00661 -2.79761,-18.04876 -7.3432,-35.70968 -13.124884,-53.03841 -6.216475,-19.85668 -12.493296,-39.74492 -16.695186,-60.14801 -4.081708,-22.01352 -6.82354,-44.28945 -6.161446,-66.73236 0.746547,-23.31219 2.912646,-46.53587 7.082658,-69.50509 3.848648,-22.4172 8.313724,-44.74339 11.167444,-67.31837 1.88988,-19.39016 3.012052,-39.07599 -3.306651,-57.85901 -7.215727,-18.13351 -15.7381,-29.66129 -32.061796,-40.74754 -16.739171,-10.07163 -34.746346,-17.34589 -54.230758,-20.02995 -20.448416,-2.58932 -41.057401,-3.0347 -61.410455,0.85804 -9.70674,2.01482 -19.13876,4.25374 -28.47279,7.6561 -24.66789,8.99172 6.92545,-2.18088 -16.85641,7.27134 -0.66169,0.263 1.14831,-0.84227 1.72246,-1.26341 -12.88916,8.06302 -25.20252,17.07464 -33.4146,30.18032 -6.24918,10.8182 -10.61668,22.34476 -11.33834,34.95143 -0.55532,10.78987 0.23045,21.50468 2.24789,32.13075 1.38544,8.37031 3.19202,16.72706 3.57869,25.2191 -0.0886,6.18004 -0.95508,12.12419 -5.82846,16.45424 -10.70324,6.52518 -18.87044,11.75656 -31.33125,13.47522 -11.3193,2.0807 -22.72319,3.80891 -33.85971,6.76878 -12.86397,3.55405 -25.62312,7.69858 -37.45819,13.96832 1.14696,-0.72281 4.61595,-2.8446 3.44088,-2.16843 -9.66707,5.56272 -18.79576,12.10302 -26.98015,19.68718 -8.11852,8.01575 -15.59617,16.68686 -19.77018,27.47877 -3.10298,8.8132 -4.55191,17.82102 -3.43813,27.18353 1.05945,9.46018 2.98675,18.77422 4.22359,28.20891 1.0626,9.43273 1.70453,18.94505 0.2058,28.38006 -1.73017,9.55253 -4.37532,18.88783 -8.58412,27.67462 -4.02715,8.15761 -8.6232,16.00349 -14.40351,23.06535 -3.60405,4.35582 -7.34938,8.62459 -11.73402,12.22231 0,0 -10.53625,4.24173 -10.53625,4.24173 z" />
    <path
       style="fill:#000000;fill-opacity:1;fill-rule:nonzero;stroke:#000000;stroke-width:3;stroke-linecap:round;stroke-linejoin:round;stroke-miterlimit:4;stroke-opacity:1;stroke-dasharray:none;stroke-dashoffset:0"
       id="path2844"
       d="m -245.86228,766.4727 c -3.5726,-1.67529 -5.98556,-4.46655 -7.59727,-7.99777 -1.46058,-4.29263 -0.40578,-8.47408 1.32837,-12.48725 3.24852,-5.74517 9.94511,-11.90006 16.7622,-11.73926 3.74481,1.11816 4.27871,5.0269 4.56328,8.41145 0.23894,5.02075 -1.19614,9.78985 -3.13891,14.35266 -3.01206,5.58749 -10.20053,12.46169 -16.8573,11.15181 -3.41067,-1.5 -4.36726,-4.86693 -4.72533,-8.28482 -0.29326,-4.65549 1.27174,-8.75586 3.76153,-12.58703 4.78362,-5.44282 11.62977,-10.96461 19.12701,-10.96345 3.34922,0.26066 5.68859,2.08611 6.82317,5.18414 0.66302,3.66127 -0.87015,6.85977 -2.7812,9.8689 -4.01667,4.66819 -9.95628,10.35527 -16.41351,9.62272 -2.23346,-0.86874 -2.55373,-2.81084 -1.9947,-4.91557 2.90326,-5.61386 10.86588,-9.79816 15.85531,-5.44853 0.23426,0.37146 0.46851,0.74293 0.70277,1.11439 0,0 -9.82231,5.72534 -9.82231,5.72534 l 0,0 c -0.17085,-0.26748 -0.3417,-0.53496 -0.51254,-0.80244 -0.74105,-0.55506 -0.90903,-0.80051 -1.86312,-1.00496 -0.38858,-0.0833 -1.506,0.15227 -1.18899,-0.0874 15.50974,-11.72417 9.60136,-6.74964 7.14462,-4.29928 -0.65729,1.28575 -0.97998,2.84419 0.89526,3.0457 3.81977,-0.37317 9.04234,-4.52079 -6.76267,4.66964 -0.95992,0.55818 4.05588,-2.55595 3.57691,-3.08253 1.89742,-2.65498 3.54158,-5.5337 3.22126,-8.91631 -0.88103,-2.7621 -3.16545,-3.9743 -6.01927,-3.95352 -4.40671,0.53087 -8.85816,4.01354 4.98585,-4.1045 2.28611,-1.34056 -6.43402,3.63952 -4.60207,3.8221 -2.55222,3.57122 -4.29002,7.37967 -4.08632,11.88158 0.19763,2.82452 0.79965,6.06669 3.93339,6.91864 4.4642,-0.16689 1.01475,-0.2134 -7.49539,5.14541 -0.40002,0.25189 0.8939,-0.33269 1.28759,-0.59434 1.59147,-1.05771 2.58323,-2.80583 3.53399,-4.39568 1.99241,-4.37992 3.52353,-8.97186 3.36759,-13.85214 -0.15508,-2.63588 -0.2881,-6.56225 -3.6462,-6.8559 -4.27875,1.019 -1.6494,0.50966 7.35732,-4.78787 0.43808,-0.25767 -0.88613,0.50686 -1.28127,0.8265 -1.41487,1.14454 -2.47779,2.69455 -3.41059,4.2308 -1.76798,3.6802 -3.02576,7.56199 -1.7619,11.62637 1.47523,3.3096 3.79362,5.82092 7.18362,7.25081 0,0 -9.45018,6.31155 -9.45018,6.31155 z" />
    <path
       style="fill:#000000;fill-opacity:1;fill-rule:nonzero;stroke:#000000;stroke-width:3;stroke-linecap:round;stroke-linejoin:round;stroke-miterlimit:4;stroke-opacity:1;stroke-dasharray:none;stroke-dashoffset:0"
       id="path2846"
       d="m -250.18173,750.78994 c 2.66518,-3.04309 5.44328,-5.98936 8.22974,-8.922 3.50442,-3.60425 7.01668,-7.20115 10.50375,-10.82226 3.42398,-3.56249 6.70955,-7.2519 9.92729,-11.00053 3.12077,-3.76459 6.4007,-7.39207 9.62605,-11.06627 3.34748,-3.60791 6.58303,-7.31856 9.97201,-10.88756 3.22977,-3.42956 6.62359,-6.69821 9.9167,-10.06587 2.91598,-3.01588 5.78437,-6.07727 8.66459,-9.1272 2.85027,-3.01051 5.60462,-6.11133 8.35735,-9.211 2.97156,-3.36624 5.97702,-6.7028 8.96034,-10.05899 3.19302,-3.68626 6.35605,-7.39936 9.57434,-11.06356 3.70272,-4.15696 7.75194,-7.98368 11.71791,-11.8848 4.10171,-4.03547 8.19188,-8.08263 12.27862,-12.13325 4.04858,-4.13491 7.92972,-8.42862 11.89605,-12.64125 3.73065,-3.97805 7.48812,-7.93063 11.25825,-11.87126 3.56637,-3.54374 6.94192,-7.27143 10.455038,-10.86626 3.362543,-3.47743 6.895086,-6.78403 10.342585,-10.17624 3.383312,-3.30581 6.88095,-6.49162 10.360882,-9.69472 3.355463,-3.23555 6.682149,-6.50214 10.12652,-9.64346 3.390397,-3.19248 6.981523,-6.15445 10.605771,-9.07395 3.392149,-2.62392 6.695397,-5.35889 10.042117,-8.03968 3.362011,-2.43642 6.648116,-4.96725 9.85854,-7.60045 3.520222,-2.85723 7.117482,-5.61802 10.645986,-8.46579 3.487586,-2.79169 7.015512,-5.53192 10.48903,-8.34128 3.356877,-2.70954 6.585398,-5.57051 9.7740591,-8.47436 3.0842092,-2.87158 6.24627795,-5.65678 9.4694294,-8.37099 3.0218273,-2.47324 5.9528802,-5.05463 8.9582155,-7.54709 2.660157,-2.12101 5.381577,-4.16379 8.106332,-6.20067 1.207974,-0.87112 2.401124,-1.74371 3.473208,-2.77847 0,0 10.488183,-4.40288 10.488183,-4.40288 l 0,0 c -0.967832,1.20549 -2.119649,2.13513 -3.410403,2.98944 -2.734779,2.02949 -5.457325,4.07549 -8.147876,6.16343 -3.045785,2.44351 -5.929357,5.08318 -8.969976,7.5345 -3.229653,2.70392 -6.4213867,5.45148 -9.497091,8.33014 -3.1789298,2.92318 -6.3959508,5.80604 -9.7443824,8.53533 -3.4690786,2.8198 -6.9875256,5.57652 -10.4996306,8.34233 -3.498003,2.88026 -7.103853,5.6248 -10.643073,8.45247 -3.172262,2.67656 -6.435842,5.24579 -9.842229,7.61937 -3.36204,2.66732 -6.643308,5.43384 -10.056126,8.03672 -3.608262,2.9298 -7.268781,5.80359 -10.632665,9.02016 -3.482193,3.09572 -6.802799,6.37083 -10.130027,9.63131 -3.476068,3.20213 -6.975456,6.38002 -10.380758,9.65787 -3.42202,3.41753 -6.985657,6.69075 -10.34918,10.16648 -3.554238,3.55545 -6.875398,7.33659 -10.472101,10.85141 -3.759108,3.95565 -7.551508,7.87953 -11.270788,11.8729 -3.9981,4.18927 -7.85638,8.51064 -11.88303,12.67359 -4.08545,4.05331 -8.17661,8.10087 -12.27838,12.13767 -3.95224,3.8931 -7.99663,7.70008 -11.73016,11.8066 -3.24826,3.63237 -6.37573,7.37456 -9.56248,11.06058 -2.98146,3.35203 -5.97167,6.69664 -8.95113,10.04918 -2.7295,3.12602 -5.51652,6.20442 -8.33854,9.24636 -2.88651,3.05149 -5.75903,6.11632 -8.66754,9.14691 -3.28267,3.383 -6.69082,6.64033 -9.93139,10.064 -3.42877,3.52173 -6.61045,7.27159 -9.99133,10.83907 -3.21749,3.67803 -6.5135,7.28759 -9.63146,11.05116 -3.19504,3.78199 -6.49412,7.47392 -9.90551,11.06271 -3.46396,3.63978 -6.9993,7.21148 -10.49601,10.81951 -2.7895,2.88739 -5.48464,5.86252 -8.21448,8.80577 0,0 -10.45114,4.46512 -10.45114,4.46512 z" />
    <path
       style="fill:#000000;fill-opacity:1;fill-rule:nonzero;stroke:#000000;stroke-width:3;stroke-linecap:round;stroke-linejoin:round;stroke-miterlimit:4;stroke-opacity:1;stroke-dasharray:none;stroke-dashoffset:0"
       id="path2848"
       d="m -261.98252,754.07696 c 2.14828,-3.02821 4.17283,-6.13162 6.14956,-9.27354 2.75374,-4.3643 5.34712,-8.82468 7.91212,-13.30141 2.92453,-5.17291 5.69146,-10.43151 8.46349,-15.68689 2.93294,-5.51716 5.67952,-11.12604 8.31031,-16.79257 2.49284,-5.49181 5.22138,-10.87001 7.93827,-16.25281 2.56918,-5.29635 5.13421,-10.59624 7.52595,-15.9755 2.33728,-5.4228 4.73716,-10.81406 7.26361,-16.15134 2.27371,-5.06378 4.69982,-10.05489 7.22992,-14.99485 2.43772,-4.68816 5.12889,-9.23773 7.70147,-13.85198 2.51437,-4.44775 5.0135,-8.90391 7.48425,-13.37603 2.49754,-4.58966 4.86651,-9.24722 7.38681,-13.82446 2.53096,-4.58057 5.10014,-9.14024 7.67631,-13.69561 2.16872,-3.97114 4.30234,-7.96146 6.42601,-11.9569 1.93308,-3.68444 3.8771,-7.36075 5.88692,-11.00404 2.27397,-3.84444 4.50734,-7.71224 6.75871,-11.57001 2.9215,-4.9954 5.66038,-10.09829 8.37633,-15.20811 3.13475,-6.24911 6.38705,-12.43774 9.60124,-18.64603 2.97256,-5.73092 6.03041,-11.41541 9.11288,-17.08766 2.35384,-4.35738 5.03102,-8.52585 7.49719,-12.81822 2.0141,-3.474 4.07898,-6.91789 6.11348,-10.37974 1.77633,-3.02532 3.19826,-6.24518 4.55047,-9.47768 1.54854,-3.6604 3.00486,-7.3593 4.62672,-10.98814 1.83725,-3.93471 3.51972,-7.93852 5.401093,-11.85264 1.797457,-3.85014 3.882605,-7.54517 6.045613,-11.19791 2.180398,-3.81248 4.381105,-7.61509 6.652763,-11.37403 2.383718,-3.74833 4.390879,-7.71195 6.429629,-11.65276 1.804596,-3.67446 3.604099,-7.35227 5.517301,-10.97169 1.724998,-3.29976 3.586857,-6.5241 5.342886,-9.80762 1.677618,-3.25572 3.424568,-6.46779 5.321084,-9.60125 1.987391,-3.2866 4.225713,-6.40821 6.505742,-9.49531 1.326577,-1.8854 2.78716,-3.65075 4.423808,-5.27201 0,0 10.515216,-4.32298 10.515216,-4.32298 l 0,0 c -1.696055,1.53918 -3.232313,3.20952 -4.530596,5.10497 -2.291429,3.05634 -4.548674,6.1426 -6.552022,9.3986 -1.896412,3.12007 -3.712983,6.27758 -5.345881,9.54563 -1.759124,3.28361 -3.59196,6.52489 -5.348887,9.80831 -1.938671,3.60468 -3.756422,7.27361 -5.532213,10.96056 -2.031626,3.96485 -4.037262,7.95171 -6.402959,11.73179 -2.30793,3.72925 -4.475065,7.54836 -6.651349,11.35514 -2.150126,3.63967 -4.310837,7.27372 -6.085977,11.11793 -1.932997,3.88122 -3.570091,7.89745 -5.41034,11.82256 -1.668362,3.59324 -3.07042,7.3002 -4.630212,10.94118 -1.314917,3.28396 -2.754514,6.53816 -4.489589,9.62242 -2.00589,3.48154 -4.11743,6.90287 -6.13568,10.37758 -2.43269,4.31775 -5.14915,8.46665 -7.53452,12.81215 -3.09719,5.66988 -6.17788,11.34686 -9.15657,17.08031 -3.20439,6.21113 -6.48632,12.38262 -9.58224,18.64926 -2.69446,5.11804 -5.42694,10.22236 -8.31849,15.23092 -2.22875,3.85982 -4.45246,7.7232 -6.7551,11.53933 -1.99674,3.64747 -3.98765,7.29581 -5.89433,10.99154 -2.1385,4.00028 -4.27302,8.00231 -6.43182,11.99184 -2.58659,4.54907 -5.15051,9.11131 -7.68681,13.68839 -2.54616,4.56114 -4.90639,9.22076 -7.38083,13.8207 -2.47685,4.47075 -4.95735,8.9393 -7.48695,13.38053 -2.56445,4.61289 -5.24741,9.15978 -7.72275,13.82155 -2.55034,4.92241 -4.99532,9.89932 -7.25237,14.9639 -2.52817,5.33049 -4.97186,10.69548 -7.28023,16.12553 -2.3665,5.40442 -4.95214,10.70795 -7.50137,16.02784 -2.70777,5.38085 -5.47055,10.73573 -7.96277,16.22183 -2.61497,5.68726 -5.35505,11.31266 -8.28349,16.84586 -2.77742,5.25685 -5.52566,10.52919 -8.43362,15.71583 -2.56321,4.48057 -5.12705,8.96045 -7.86851,13.33561 -1.97733,3.11909 -3.90692,6.26248 -6.06123,9.26539 0,0 -10.43745,4.56674 -10.43745,4.56674 z" />
    <path
       style="fill:#000000;fill-opacity:1;fill-rule:nonzero;stroke:#000000;stroke-width:3;stroke-linecap:round;stroke-linejoin:round;stroke-miterlimit:4;stroke-opacity:1;stroke-dasharray:none;stroke-dashoffset:0"
       id="path2850"
       d="m -177.53798,592.03136 c 4.03016,0.6453 8.01396,1.58685 11.98907,2.51248 6.27106,1.43895 12.15714,4.03654 17.88104,6.91277 5.46579,2.74366 9.92595,6.77799 13.73514,11.4974 2.54238,3.31476 4.44661,7.0461 5.77554,10.99511 0,0 -9.95228,5.47086 -9.95228,5.47086 l 0,0 c -1.20222,-3.85147 -3.05471,-7.45823 -5.51028,-10.66916 -3.72354,-4.59362 -8.09829,-8.47785 -13.45036,-11.1061 -5.68531,-2.80957 -11.53035,-5.32407 -17.75598,-6.67623 -3.98132,-0.90621 -7.97392,-1.82809 -12.0235,-2.37167 0,0 9.31161,-6.56546 9.31161,-6.56546 z" />
    <path
       style="fill:#000000;fill-opacity:1;fill-rule:nonzero;stroke:#000000;stroke-width:3;stroke-linecap:round;stroke-linejoin:round;stroke-miterlimit:4;stroke-opacity:1;stroke-dasharray:none;stroke-dashoffset:0"
       id="path2856"
       d="m 85.322916,577.43481 c 7.876676,-0.74047 15.667954,-2.2126 23.429714,-3.70638 20.28697,-4.00915 40.36744,-8.99301 60.41418,-14.04848 28.44499,-7.30496 56.8305,-14.83963 85.24905,-22.24698 26.51104,-6.99842 53.05297,-13.86587 79.72938,-20.20746 15.84908,-3.71113 31.72153,-7.34058 47.7512,-10.18821 3.98354,-0.69041 7.98209,-1.29198 11.98557,-1.85389 0,0 -9.08113,6.78856 -9.08113,6.78856 l 0,0 c -3.94426,0.52639 -7.88276,1.09856 -11.80486,1.77255 -15.92684,2.79374 -31.69663,6.38009 -47.44474,10.03596 -26.62736,6.30082 -53.11734,13.14123 -79.57471,20.11907 -28.4554,7.41808 -56.87431,14.97579 -85.35026,22.31431 -20.14948,5.09913 -40.33023,10.13386 -60.718068,14.2012 -7.862688,1.51621 -15.746708,2.97903 -23.714908,3.82783 0,0 9.129582,-6.80808 9.129582,-6.80808 z" />
    <path
       style="fill:#000000;fill-opacity:1;fill-rule:nonzero;stroke:#000000;stroke-width:3;stroke-linecap:round;stroke-linejoin:round;stroke-miterlimit:4;stroke-opacity:1;stroke-dasharray:none;stroke-dashoffset:0"
       id="path2858"
       d="m 371.07059,469.99934 c 3.76221,3.9351 8.66281,6.27869 13.59397,8.38035 10.2626,3.86886 21.15016,5.53459 31.95901,7.04413 11.06135,1.47482 22.18851,2.56894 32.93203,5.69737 8.3892,3.09037 9.01516,6.95817 4.11629,13.96514 -12.33994,12.63557 -28.58235,20.76476 -43.72596,29.44225 0,0 8.5334,-6.89895 8.5334,-6.89895 l 0,0 c -0.61161,0.38194 -2.45394,1.51546 -1.83483,1.14581 8.05174,-4.80752 16.20345,-9.71294 23.27778,-15.92453 1.19668,-1.05074 2.29257,-2.211 3.43885,-3.3165 4.97201,-6.26976 5.06982,-9.1642 -3.04805,-12.08692 -10.69704,-3.05664 -21.76525,-4.13773 -32.76153,-5.62443 -10.90409,-1.54799 -21.8897,-3.25559 -32.22417,-7.22254 -5.08661,-2.20625 -10.12286,-4.68399 -14.02175,-8.73831 0,0 9.76496,-5.86287 9.76496,-5.86287 z" />
    <path
       style="fill:#000000;fill-opacity:1;fill-rule:nonzero;stroke:#000000;stroke-width:3;stroke-linecap:round;stroke-linejoin:round;stroke-miterlimit:4;stroke-opacity:1;stroke-dasharray:none;stroke-dashoffset:0"
       id="path2860"
       d="m 435.09323,948.4279 c 1.94733,-4.47444 4.34504,-8.71852 6.73729,-12.96492 5.30531,-9.2459 11.02317,-18.23771 16.88838,-27.1354 9.32389,-13.62002 18.95391,-27.02735 28.49706,-40.49394 12.83782,-18.3819 25.61785,-36.80417 38.38974,-55.23194 15.46774,-22.28132 30.35139,-44.95937 45.42107,-67.50982 15.9357,-24.21793 31.85916,-48.44368 47.87931,-72.60592 16.41018,-24.99399 33.17381,-49.74979 50.2023,-74.32574 17.36942,-25.08269 35.20877,-49.83166 53.17888,-74.48563 18.77252,-25.71413 37.69692,-51.3159 56.82252,-76.76843 18.15327,-24.07967 36.85027,-47.74137 55.89011,-71.12415 14.78165,-17.81649 29.58906,-35.61076 44.20756,-53.56161 1.90379,-2.37187 3.80757,-4.74375 5.71136,-7.11562 0,0 10.07023,-4.2999 10.07023,-4.2999 l 0,0 c -1.91302,2.37874 -3.82605,4.75748 -5.73908,7.13622 -14.68705,17.97839 -29.55436,35.80694 -44.40864,53.6472 -19.09131,23.37428 -37.82795,47.03785 -56.00894,71.1292 -19.12388,25.43909 -38.03978,51.03239 -56.79927,76.74143 -17.96275,24.64711 -35.8032,49.38298 -53.1711,74.45473 -17.0294,24.56306 -33.79272,49.30706 -50.191,74.29687 -16.01621,24.15629 -31.93759,48.37487 -47.85217,72.59816 -15.05228,22.53445 -29.9059,45.20445 -45.32858,67.48887 -12.73105,18.40703 -25.46948,36.80899 -38.24867,55.18263 -9.49267,13.43919 -19.06395,26.82441 -28.36586,40.39686 -5.8308,8.85422 -11.51682,17.79928 -16.78432,27.00328 -2.3564,4.20219 -4.81267,8.37039 -6.61605,12.85037 0,0 -10.38213,4.6972 -10.38213,4.6972 z" />
    <path
       style="fill:#000000;fill-opacity:1;fill-rule:nonzero;stroke:#000000;stroke-width:3;stroke-linecap:round;stroke-linejoin:round;stroke-miterlimit:4;stroke-opacity:1;stroke-dasharray:none;stroke-dashoffset:0"
       id="path2862"
       d="m 449.49644,948.35412 c 3.00278,-3.10073 6.00963,-6.19719 9.05585,-9.25628 4.8985,-4.8271 10.26862,-9.14129 15.68124,-13.37133 6.00639,-4.55865 12.20251,-8.85275 18.50072,-12.99546 6.96663,-4.44594 13.93253,-8.89291 20.81394,-13.47001 7.434,-5.05755 15.09611,-9.76536 22.72313,-14.52275 8.27282,-5.15908 16.5505,-10.31019 24.83782,-15.44601 8.64096,-5.34159 17.16141,-10.87247 25.78252,-16.24538 8.58651,-5.29031 17.23,-10.48372 25.72309,-15.92345 9.34559,-5.8888 18.49052,-12.08395 27.58468,-18.35161 10.15638,-7.03184 20.33754,-14.02755 30.51249,-21.03242 10.94728,-7.52764 21.96429,-14.95286 32.96445,-22.40274 11.67935,-7.92797 23.43584,-15.7407 35.20335,-23.53679 12.68134,-8.35464 25.25581,-16.87004 37.87405,-25.31948 13.81281,-9.42584 27.79642,-18.59721 41.82312,-27.70045 14.9149,-9.52191 29.89194,-18.94314 45.05502,-28.06523 18.44099,-11.14674 37.15409,-21.83338 55.88288,-32.4864 14.99872,-8.47473 30.14941,-16.67444 45.26906,-24.92971 14.09176,-7.79267 28.34069,-15.29537 42.62385,-22.72958 12.1831,-6.33811 24.2633,-12.87058 36.3383,-19.41141 6.3854,-3.50667 12.7493,-7.04882 19.0577,-10.69208 1.381,-0.79753 5.5373,-3.16636 4.1447,-2.38945 -1.8894,1.05401 -3.7566,2.14719 -5.6349,3.22079 9.8322,-5.71502 19.6454,-11.46632 29.5911,-16.98245 5.0211,-2.82341 10.1548,-5.44296 15.1746,-8.26712 4.4054,-2.42545 8.8428,-4.79537 13.3562,-7.01428 3.6961,-1.75873 7.2214,-3.83098 10.7923,-5.82162 -0.9913,0.63032 4.0672,-2.29846 3.0551,-1.71551 -19.1688,11.04152 -0.2769,0.18553 5.9446,-3.39239 6.3429,-3.46611 -8.8734,5.1864 -6.6556,3.88899 36.743,-21.49387 -9.2004,5.46083 6.3467,-3.75829 3.202,-1.93407 6.3468,-3.95959 9.5151,-5.94744 3.2019,-1.98833 6.42,-3.95064 9.6458,-5.90017 3.7617,-2.16341 7.5256,-4.32331 11.2853,-6.49024 2.7146,-1.56456 -10.8533,6.26684 -8.1499,4.68312 3.738,-2.18971 7.4995,-4.33887 11.2534,-6.50114 0.5042,-0.29045 2.0246,-1.14833 1.5209,-0.85697 -10.0537,5.81494 -10.6112,6.15725 -6.6765,3.81291 36.8327,-21.09219 -8.917,5.04189 5.9081,-3.55202 3.7174,-2.15495 7.4555,-4.27409 11.1697,-6.4346 2.7458,-1.59719 -5.5096,3.16306 -8.2644,4.7446 6.0428,-3.59272 12.15,-7.07061 18.3315,-10.41562 2.9624,-1.51388 5.9125,-3.04942 8.8687,-4.57717 3.2424,-1.83678 6.5611,-3.52988 9.818,-5.34015 3.1085,-1.56546 6.1649,-3.22732 9.2002,-4.92978 3.4733,-2.00939 9.7188,-5.38081 -6.4437,3.48217 0,0 10.4764,-4.39509 10.4764,-4.39509 l 0,0 c -4.283,2.73583 -8.41,5.62542 -12.8618,8.04076 -3.0394,1.68502 -6.1141,3.30154 -9.1911,4.91625 -3.2698,1.79275 -6.575,3.52011 -9.8404,5.32108 -2.9505,1.53905 -5.9182,3.04366 -8.8604,4.59859 -1.4328,0.78351 -2.857,1.58223 -4.2884,2.36814 -0.4791,0.26304 -1.9113,1.0609 -1.4396,0.78492 2.2634,-1.32406 12.1765,-7.04221 6.812,-3.93466 -36.5537,21.21191 8.9419,-5.2158 -5.8465,3.46571 -3.7155,2.18117 -7.4624,4.30904 -11.1604,6.51964 -2.7079,1.6187 5.4598,-3.16256 8.1897,-4.74383 -5.1272,3.10101 -1.4443,0.88675 -12.7177,7.39566 -0.5027,0.29024 -2.0153,1.15302 -1.5133,0.8617 2.7088,-1.57173 10.842,-6.27504 8.1335,-4.70293 -1.0436,0.6057 -24.2997,14.0732 -3.1412,1.79884 -3.2334,1.93633 -6.4445,3.90664 -9.6509,5.887 -3.1946,1.94899 -6.3155,4.01923 -9.5072,5.97395 -4.8413,2.79878 -9.698,5.64501 -14.5016,8.47425 -2.7076,1.59475 10.8878,-6.2808 8.1625,-4.71643 -13.1872,7.56964 -7.2382,4.27363 -12.7405,7.3106 -1.6842,0.96148 -3.9496,2.25615 -3.0209,1.71402 19.1498,-11.17927 0.3274,-0.057 -5.98,3.38243 -3.5547,2.01166 -7.1288,3.98496 -10.8097,5.76008 -4.4914,2.24055 -8.9163,4.61358 -13.3072,7.04462 -5.0359,2.77254 -10.1281,5.4424 -15.1476,8.24527 -4.8184,2.69126 -1.043,0.57235 -5.9834,3.37408 -1.0722,0.60802 -4.2778,2.45063 -3.2191,1.81958 14.1767,-8.4497 1.4983,-0.69127 -1.1884,0.70385 -12.1593,7.05429 -24.2895,14.1615 -36.6604,20.84202 -12.0602,6.51616 -24.1196,13.03495 -36.28777,19.34826 -14.26895,7.43154 -28.49966,14.93839 -42.58045,22.72214 -15.11667,8.24317 -30.25113,16.45514 -45.2396,24.93072 -9.9313,5.64646 -23.35451,13.23603 -37.13482,21.64732 -15.16716,9.0992 -30.13433,18.51947 -45.05096,28.02301 -14.0176,9.0921 -27.99844,18.24353 -41.79329,27.67157 -12.60876,8.44614 -25.17284,16.95966 -37.84325,25.31314 -11.75595,7.79506 -23.511,15.59138 -35.18064,23.51562 -10.98978,7.45397 -22.0096,14.86381 -32.95136,22.38843 -10.15999,7.00708 -20.33973,13.98537 -30.48147,21.01894 -9.07535,6.28128 -18.20612,12.48487 -27.54154,18.37511 -8.4805,5.456 -17.11028,10.66601 -25.70828,15.93425 -8.62743,5.36553 -17.15162,10.89184 -25.78466,16.24884 -8.28218,5.12959 -16.5517,10.2793 -24.81801,15.43434 -7.61756,4.75746 -15.28989,9.43511 -22.71958,14.4849 -6.86285,4.59237 -13.81602,9.04708 -20.78927,13.46968 -6.30058,4.12255 -12.50345,8.38544 -18.52625,12.90765 -5.40459,4.19433 -10.77131,8.46439 -15.69521,13.22392 -3.0206,3.03508 -6.0363,6.07594 -8.94805,9.21436 0,0 -10.5262,4.3601 -10.5262,4.3601 z" />
    <path
       style="fill:#000000;fill-opacity:1;fill-rule:nonzero;stroke:#000000;stroke-width:3;stroke-linecap:round;stroke-linejoin:round;stroke-miterlimit:4;stroke-opacity:1;stroke-dasharray:none;stroke-dashoffset:0"
       id="path2864"
       d="m 886.29518,328.64256 c -0.39453,-2.98038 -0.82527,-5.95586 -1.25323,-8.93158 -0.33267,-2.30862 -0.66912,-4.61669 -1.00765,-6.92445 -0.14617,-0.99492 -0.29269,-1.98978 -0.44134,-2.98433 12.88066,-6.29491 9.79549,-6.2517 19.35739,-1.95445 3.6064,1.58564 7.20274,3.20277 10.90055,4.56484 5.29261,2.04402 10.58565,4.08783 15.8764,6.13771 7.11751,2.76773 14.15798,5.72491 21.15548,8.78205 7.72256,3.2129 15.30999,6.73516 22.99461,10.03584 7.99068,3.4823 16.08534,6.72353 24.24007,9.80055 8.59124,3.30712 17.33324,6.17729 26.11624,8.92324 8.7627,2.77036 17.618,5.20605 26.4965,7.56974 8.133,2.14559 16.2464,4.36482 24.3686,6.5513 7.8542,2.21411 15.6851,4.5101 23.5083,6.831 7.5076,2.07067 14.8397,4.66588 22.1195,7.41462 7.006,2.64882 13.837,5.70864 20.572,8.97803 6.3722,3.01792 12.6159,6.29522 18.9585,9.37219 5.6682,2.86475 11.5303,5.31391 17.2756,8.01484 5.1391,2.39472 10.2321,4.88666 15.3324,7.36252 4.3182,2.09132 8.5545,4.33063 12.947,6.26554 3.8788,1.7101 7.7399,3.46799 11.6645,5.07155 3.8465,1.77174 7.7917,3.30971 11.6688,5.01093 3.5421,1.47915 7.0831,2.97466 10.5135,4.69961 3.2941,1.681 6.6943,3.14015 9.9723,4.85254 3.2369,1.62502 6.4043,3.37118 9.5108,5.23213 1.5184,0.95241 2.8649,2.10951 3.9144,3.55991 0,0 -9.7985,5.79097 -9.7985,5.79097 l 0,0 c -0.957,-1.32886 -2.2513,-2.32816 -3.6379,-3.18814 -3.0888,-1.84465 -6.2483,-3.55861 -9.4605,-5.17928 -3.2925,-1.67297 -6.6767,-3.1558 -9.966,-4.83549 -3.4349,-1.67747 -6.9495,-3.18194 -10.4734,-4.66134 -3.8732,-1.69003 -7.8034,-3.24515 -11.6518,-4.99293 -3.9227,-1.63015 -7.7984,-3.3738 -11.6798,-5.09939 -4.3818,-1.97101 -8.6201,-4.22367 -12.9457,-6.31242 -5.0895,-2.48144 -10.1797,-4.96239 -15.3106,-7.35743 -5.7521,-2.6895 -11.6009,-5.17168 -17.2688,-8.03966 -6.3286,-3.09777 -12.5766,-6.35834 -18.9441,-9.37791 -6.7165,-3.2392 -13.5256,-6.27532 -20.5098,-8.89791 -7.2593,-2.73325 -14.5835,-5.27599 -22.0617,-7.35499 -7.8195,-2.3082 -15.6381,-4.62055 -23.4921,-6.80905 -8.1153,-2.19209 -16.2248,-4.40611 -24.3504,-6.55973 -8.8871,-2.36912 -17.7404,-4.84879 -26.5136,-7.61606 -8.8012,-2.7555 -17.55268,-5.66176 -26.1646,-8.96965 -8.16328,-3.09795 -16.27178,-6.34455 -24.2748,-9.83751 -7.68295,-3.31336 -15.28333,-6.81548 -23.00778,-10.03292 -6.99851,-3.03877 -14.03705,-5.98449 -21.16001,-8.72101 -5.30528,-2.03377 -10.60506,-4.08222 -15.91787,-6.09557 -3.7063,-1.40246 -7.33073,-3.0082 -10.95505,-4.60896 -2.11631,-0.9213 -4.25082,-1.8318 -6.41882,-2.62639 -4.62367,-1.69461 -2.64563,0.33724 6.82373,-6.57304 -0.18175,0.44298 0.0728,1.76255 0.18712,2.55204 0.3218,2.31455 0.64568,4.62881 0.97335,6.94254 0.4216,2.97122 0.84039,5.94299 1.29546,8.90931 0,0 -10.07725,5.31605 -10.07725,5.31605 z" />
    <path
       style="fill:#000000;fill-opacity:1;fill-rule:nonzero;stroke:#000000;stroke-width:3;stroke-linecap:round;stroke-linejoin:round;stroke-miterlimit:4;stroke-opacity:1;stroke-dasharray:none;stroke-dashoffset:0"
       id="path2866"
       d="m 888.09273,310.11159 c 1.50563,3.15475 3.33977,6.13675 5.22042,9.07803 2.65363,3.92262 5.72525,7.52492 8.79045,11.12485 3.09012,3.56558 6.53572,6.7837 9.99183,9.98443 3.95138,3.66637 7.82255,7.4176 11.68309,11.17907 4.35058,4.53725 8.86411,8.90901 13.39133,13.26765 4.40777,4.19552 8.79945,8.40566 13.12109,12.69058 3.77694,3.75294 7.47579,7.58813 11.08681,11.5012 3.63216,4.07794 7.3345,8.09164 10.99637,12.1431 3.90768,4.14922 7.81349,8.29819 11.85455,12.31835 3.71944,3.84758 7.66099,7.47103 11.58251,11.10956 4.11409,3.79286 8.38422,7.41292 12.59512,11.09793 4.2839,3.71277 8.5444,7.45182 12.7602,11.24182 3.9573,3.5048 7.9997,6.90925 12.0435,10.3133 3.8533,3.05272 7.6507,6.16753 11.3278,9.4307 3.4647,3.12967 6.8111,6.38681 10.1414,9.65819 3.0058,3.02133 6.0407,6.01131 9.1807,8.89332 3.0701,2.85908 6.1038,5.75733 9.1821,8.60762 3.2517,2.96224 6.3681,6.06704 9.5721,9.08038 3.3321,3.32452 6.7831,6.52715 10.222,9.74024 3.1566,2.89314 6.7328,5.27473 10.2869,7.64372 2.2116,1.461 4.3669,3.0082 6.9065,3.83327 0,0 -9.4364,6.36625 -9.4364,6.36625 l 0,0 c -2.5337,-1.0112 -4.7505,-2.58817 -7.0102,-4.09481 -3.5864,-2.41994 -7.1926,-4.85227 -10.3669,-7.80909 -3.4355,-3.21861 -6.8853,-6.42368 -10.2267,-9.74061 -3.2038,-3.01119 -6.3191,-6.11551 -9.577,-9.06893 -3.0698,-2.85703 -6.1104,-5.74531 -9.1776,-8.60515 -3.1388,-2.90055 -6.1858,-5.89471 -9.1974,-8.9268 -3.3115,-3.26258 -6.6426,-6.50768 -10.1027,-9.61347 -3.6708,-3.25435 -7.4745,-6.34578 -11.3038,-9.4112 -4.0515,-3.41122 -8.0923,-6.83381 -12.0532,-10.35024 -4.2136,-3.78481 -8.4688,-7.52218 -12.74819,-11.23242 -4.2164,-3.69636 -8.50828,-7.30854 -12.62216,-11.11931 -3.93008,-3.64787 -7.8734,-7.28751 -11.59746,-11.14821 -4.0429,-4.0442 -7.96766,-8.20093 -11.88254,-12.36868 -3.66518,-4.04425 -7.36328,-8.05786 -11.00159,-12.12616 -3.60539,-3.89506 -7.28611,-7.72309 -11.04732,-11.46782 -4.31568,-4.28158 -8.69907,-8.49093 -13.10073,-12.68352 -4.52831,-4.36085 -9.03358,-8.7439 -13.40041,-13.26817 -3.86608,-3.74736 -7.74563,-7.48131 -11.69806,-11.13788 -3.48834,-3.22983 -6.94803,-6.49674 -10.06051,-10.09949 -3.09752,-3.63907 -6.18945,-7.29054 -8.87555,-11.2518 -1.91111,-2.97028 -3.76014,-5.98581 -5.35293,-9.14143 0,0 9.90258,-5.63837 9.90258,-5.63837 z" />
    <g
       id="g2885"
       transform="translate(774.28571,-5.7142857)">
      <g
         id="content"
         transform="matrix(1.0629921,0,0,-1.0629921,-186.02362,789.27165)"
         xml:space="preserve"
         stroke-miterlimit="10.433"
         fill-rule="even-odd"
         font-style="normal"
         font-variant="normal"
         font-weight="normal"
         font-stretch="normal"
         font-size-adjust="none"
         letter-spacing="normal"
         word-spacing="normal"
         style="font-style:normal;font-variant:normal;font-weight:normal;font-stretch:normal;letter-spacing:normal;word-spacing:normal;text-anchor:start;fill:none;stroke:#000000;stroke-linecap:butt;stroke-linejoin:miter;stroke-miterlimit:10.43299961;stroke-opacity:1;stroke-dasharray:none;stroke-dashoffset:0"><path
           d="m 479.06,422.89 -0.05,0.29 -0.06,0.28 -0.07,0.29 -0.08,0.28 -0.08,0.27 -0.1,0.28 -0.11,0.27 -0.11,0.26 -0.13,0.26 -0.14,0.25 -0.14,0.25 -0.15,0.24 -0.17,0.23 -0.17,0.22 -0.19,0.22 -0.19,0.21 -0.2,0.19 -0.22,0.19 -0.22,0.18 -0.23,0.17 -0.25,0.16 -0.25,0.14 -0.26,0.14 -0.28,0.12 -0.28,0.11 -0.3,0.1 -0.31,0.08 -0.31,0.07 -0.33,0.05 -0.34,0.04 -0.34,0.03 -0.36,0.01 v -1.1 c 5.43,0 5.53,-5.58 5.53,-6.58 0,-3.58 -3.19,-14.79 -10.86,-14.79 h 0 c -5.48,0 -5.48,5.13 -5.48,5.63 0,1.34 1.24,8.32 3.29,11.3 1.99,2.84 4.43,4.44 7.52,4.44 v 1.1 c -3.04,0 -6.28,-0.8 -10.16,-4.69 -4.14,-4.13 -4.49,-8.76 -4.49,-10.31 0,-3.09 2.19,-8.87 9.17,-8.87 11.86,0 17.04,16.74 17.04,23.87 0,7.91 -4.64,12.9 -10.77,12.9 -7.22,0 -9.51,-6.48 -9.51,-7.87 0,-0.7 0.4,-1.75 1.89,-1.75 1.65,0 2.69,1.5 2.69,2.64 0,1.75 -1.54,1.75 -2.34,1.75 2.2,3.68 5.73,3.98 7.18,3.98 3.63,0 7.12,-2.59 7.12,-9.01 0,-1.95 -0.3,-4.49 -1.35,-8.52 z"
           id="path2888"
           style="fill:#000000;stroke-width:0" /><path
           d="m 509.75,435.64 -0.07,-0.06 -0.07,-0.07 -0.08,-0.07 -0.08,-0.07 -0.09,-0.08 -0.09,-0.08 -0.09,-0.09 -0.09,-0.09 -0.1,-0.09 -0.09,-0.09 -0.2,-0.19 -0.19,-0.19 -0.19,-0.21 -0.09,-0.1 -0.09,-0.1 -0.09,-0.1 -0.08,-0.11 -0.08,-0.1 -0.08,-0.1 -0.07,-0.1 -0.06,-0.1 -0.06,-0.1 -0.05,-0.1 -0.05,-0.1 -0.04,-0.09 -0.03,-0.1 -0.02,-0.09 -0.02,-0.09 0,-0.08 c 0,-0.5 0.5,-1 1,-1 0.44,0 0.69,0.35 0.94,0.65 0.6,0.75 1.74,2.14 3.93,3.24 0.36,0.2 0.85,0.45 0.85,1.05 0,0.49 -0.35,0.74 -0.69,0.99 -1.1,0.75 -1.65,1.64 -2.05,2.84 -0.1,0.45 -0.3,1.1 -0.99,1.1 -0.7,0 -1,-0.65 -1,-1.05 0,-0.25 0.4,-1.84 1.2,-2.89 h -16.79 c -0.85,0 -1.74,0 -1.74,-0.99 0,-1 0.89,-1 1.74,-1 z"
           id="path2890"
           style="fill:#000000;stroke-width:0" /><path
           d="m 504.48,424.63 -0.13,-0.01 -0.13,-0.01 -0.12,-0.02 -0.13,-0.03 -0.12,-0.03 -0.11,-0.03 -0.11,-0.04 -0.12,-0.05 -0.1,-0.05 -0.11,-0.05 -0.1,-0.06 -0.09,-0.06 -0.1,-0.07 -0.08,-0.07 -0.09,-0.07 -0.08,-0.08 -0.08,-0.08 -0.07,-0.08 -0.07,-0.09 -0.07,-0.08 -0.06,-0.09 -0.05,-0.1 -0.05,-0.09 -0.05,-0.1 -0.04,-0.09 -0.03,-0.1 -0.03,-0.1 -0.03,-0.1 -0.02,-0.11 -0.01,-0.1 -0.01,-0.1 0,-0.1 c 0,-0.7 0.45,-1.44 1.54,-1.44 1.1,0 2.29,0.84 2.29,2.78 0,2.25 -2.14,4.29 -5.93,4.29 -6.57,0 -8.42,-5.08 -8.42,-7.27 0,-3.89 3.69,-4.64 5.14,-4.94 2.59,-0.49 5.18,-1.04 5.18,-3.78 0,-1.3 -1.15,-5.48 -7.13,-5.48 -0.69,0 -4.53,0 -5.67,2.64 1.89,-0.25 3.13,1.24 3.13,2.64 0,1.14 -0.79,1.74 -1.84,1.74 -1.29,0 -2.79,-1.04 -2.79,-3.28 0,-2.84 2.84,-4.84 7.12,-4.84 8.08,0 10.02,6.03 10.02,8.27 0,1.8 -0.95,3.04 -1.55,3.64 -1.34,1.39 -2.79,1.64 -4.98,2.09 -1.79,0.4 -3.79,0.75 -3.79,2.99 0,1.44 1.2,4.48 5.58,4.48 1.25,0 3.74,-0.35 4.49,-2.29 z"
           id="path2892"
           style="fill:#000000;stroke-width:0" /></g>    </g>
    <g
       id="g2936"
       transform="translate(534.28571,140)">
      <g
         word-spacing="normal"
         letter-spacing="normal"
         font-size-adjust="none"
         font-stretch="normal"
         font-weight="normal"
         font-variant="normal"
         font-style="normal"
         fill-rule="even-odd"
         stroke-miterlimit="10.433"
         xml:space="preserve"
         transform="matrix(1.0629921,0,0,-1.0629921,-186.02362,789.27165)"
         id="g2938"
         style="font-style:normal;font-variant:normal;font-weight:normal;font-stretch:normal;letter-spacing:normal;word-spacing:normal;text-anchor:start;fill:none;stroke:#000000;stroke-linecap:butt;stroke-linejoin:miter;stroke-miterlimit:10.43299961;stroke-opacity:1;stroke-dasharray:none;stroke-dashoffset:0"><path
           id="path2940"
           d="m 479.06,422.89 -0.05,0.29 -0.06,0.28 -0.07,0.29 -0.08,0.28 -0.08,0.27 -0.1,0.28 -0.11,0.27 -0.11,0.26 -0.13,0.26 -0.14,0.25 -0.14,0.25 -0.15,0.24 -0.17,0.23 -0.17,0.22 -0.19,0.22 -0.19,0.21 -0.2,0.19 -0.22,0.19 -0.22,0.18 -0.23,0.17 -0.25,0.16 -0.25,0.14 -0.26,0.14 -0.28,0.12 -0.28,0.11 -0.3,0.1 -0.31,0.08 -0.31,0.07 -0.33,0.05 -0.34,0.04 -0.34,0.03 -0.36,0.01 v -1.1 c 5.43,0 5.53,-5.58 5.53,-6.58 0,-3.58 -3.19,-14.79 -10.86,-14.79 h 0 c -5.48,0 -5.48,5.13 -5.48,5.63 0,1.34 1.24,8.32 3.29,11.3 1.99,2.84 4.43,4.44 7.52,4.44 v 1.1 c -3.04,0 -6.28,-0.8 -10.16,-4.69 -4.14,-4.13 -4.49,-8.76 -4.49,-10.31 0,-3.09 2.19,-8.87 9.17,-8.87 11.86,0 17.04,16.74 17.04,23.87 0,7.91 -4.64,12.9 -10.77,12.9 -7.22,0 -9.51,-6.48 -9.51,-7.87 0,-0.7 0.4,-1.75 1.89,-1.75 1.65,0 2.69,1.5 2.69,2.64 0,1.75 -1.54,1.75 -2.34,1.75 2.2,3.68 5.73,3.98 7.18,3.98 3.63,0 7.12,-2.59 7.12,-9.01 0,-1.95 -0.3,-4.49 -1.35,-8.52 z"
           style="fill:#000000;stroke-width:0" /><path
           id="path2942"
           d="m 509.75,435.64 -0.07,-0.06 -0.07,-0.07 -0.08,-0.07 -0.08,-0.07 -0.09,-0.08 -0.09,-0.08 -0.09,-0.09 -0.09,-0.09 -0.1,-0.09 -0.09,-0.09 -0.2,-0.19 -0.19,-0.19 -0.19,-0.21 -0.09,-0.1 -0.09,-0.1 -0.09,-0.1 -0.08,-0.11 -0.08,-0.1 -0.08,-0.1 -0.07,-0.1 -0.06,-0.1 -0.06,-0.1 -0.05,-0.1 -0.05,-0.1 -0.04,-0.09 -0.03,-0.1 -0.02,-0.09 -0.02,-0.09 0,-0.08 c 0,-0.5 0.5,-1 1,-1 0.44,0 0.69,0.35 0.94,0.65 0.6,0.75 1.74,2.14 3.93,3.24 0.36,0.2 0.85,0.45 0.85,1.05 0,0.49 -0.35,0.74 -0.69,0.99 -1.1,0.75 -1.65,1.64 -2.05,2.84 -0.1,0.45 -0.3,1.1 -0.99,1.1 -0.7,0 -1,-0.65 -1,-1.05 0,-0.25 0.4,-1.84 1.2,-2.89 h -16.79 c -0.85,0 -1.74,0 -1.74,-0.99 0,-1 0.89,-1 1.74,-1 z"
           style="fill:#000000;stroke-width:0" /><path
           id="path2944"
           d="m 504.48,424.63 -0.13,-0.01 -0.13,-0.01 -0.12,-0.02 -0.13,-0.03 -0.12,-0.03 -0.11,-0.03 -0.11,-0.04 -0.12,-0.05 -0.1,-0.05 -0.11,-0.05 -0.1,-0.06 -0.09,-0.06 -0.1,-0.07 -0.08,-0.07 -0.09,-0.07 -0.08,-0.08 -0.08,-0.08 -0.07,-0.08 -0.07,-0.09 -0.07,-0.08 -0.06,-0.09 -0.05,-0.1 -0.05,-0.09 -0.05,-0.1 -0.04,-0.09 -0.03,-0.1 -0.03,-0.1 -0.03,-0.1 -0.02,-0.11 -0.01,-0.1 -0.01,-0.1 0,-0.1 c 0,-0.7 0.45,-1.44 1.54,-1.44 1.1,0 2.29,0.84 2.29,2.78 0,2.25 -2.14,4.29 -5.93,4.29 -6.57,0 -8.42,-5.08 -8.42,-7.27 0,-3.89 3.69,-4.64 5.14,-4.94 2.59,-0.49 5.18,-1.04 5.18,-3.78 0,-1.3 -1.15,-5.48 -7.13,-5.48 -0.69,0 -4.53,0 -5.67,2.64 1.89,-0.25 3.13,1.24 3.13,2.64 0,1.14 -0.79,1.74 -1.84,1.74 -1.29,0 -2.79,-1.04 -2.79,-3.28 0,-2.84 2.84,-4.84 7.12,-4.84 8.08,0 10.02,6.03 10.02,8.27 0,1.8 -0.95,3.04 -1.55,3.64 -1.34,1.39 -2.79,1.64 -4.98,2.09 -1.79,0.4 -3.79,0.75 -3.79,2.99 0,1.44 1.2,4.48 5.58,4.48 1.25,0 3.74,-0.35 4.49,-2.29 z"
           style="fill:#000000;stroke-width:0" /><path
           id="path2946"
           d="m 533.88,425.23 -0.09,-0.01 -0.09,-0.01 -0.09,-0.01 -0.09,-0.02 -0.08,-0.01 -0.09,-0.02 -0.08,-0.02 -0.07,-0.02 -0.08,-0.02 -0.07,-0.02 -0.07,-0.03 -0.07,-0.02 -0.07,-0.03 -0.06,-0.03 -0.12,-0.06 -0.12,-0.07 -0.1,-0.07 -0.1,-0.07 -0.1,-0.08 -0.08,-0.08 -0.08,-0.09 -0.07,-0.08 -0.06,-0.09 -0.06,-0.09 -0.06,-0.09 -0.04,-0.09 -0.05,-0.09 -0.03,-0.09 -0.04,-0.09 -0.02,-0.09 -0.03,-0.09 -0.02,-0.09 -0.02,-0.08 -0.01,-0.08 -0.01,-0.08 -0.01,-0.08 0,-0.07 -0.01,-0.07 0,-0.06 c 0,-1.3 0.9,-2.3 2.29,-2.3 1.3,0 2.29,0.85 2.29,2.34 0,3.4 -3.78,5.34 -7.62,5.34 -6.22,0 -10.8,-5.38 -10.8,-11.56 0,-6.38 4.92,-11.31 10.7,-11.31 6.68,0 8.27,5.98 8.27,6.48 0,0.5 -0.49,0.5 -0.65,0.5 -0.44,0 -0.54,-0.2 -0.64,-0.5 -1.45,-4.63 -4.68,-5.23 -6.53,-5.23 -2.64,0 -7.02,2.14 -7.02,10.16 0,8.12 4.08,10.21 6.72,10.21 0.45,0 3.59,-0.05 5.33,-1.84 z"
           style="fill:#000000;stroke-width:0" /><path
           id="path2948"
           d="m 562.46,416.66 -0.01,0.59 -0.05,0.59 -0.07,0.58 -0.09,0.57 -0.13,0.56 -0.15,0.55 -0.17,0.54 -0.2,0.53 -0.22,0.52 -0.25,0.5 -0.26,0.49 -0.29,0.47 -0.31,0.46 -0.33,0.44 -0.35,0.42 -0.36,0.41 -0.39,0.39 -0.4,0.36 -0.41,0.35 -0.44,0.33 -0.44,0.3 -0.46,0.29 -0.48,0.26 -0.48,0.23 -0.5,0.21 -0.51,0.19 -0.52,0.16 -0.53,0.13 -0.54,0.1 -0.55,0.08 -0.56,0.04 -0.56,0.02 -0.05,-1.1 c 2.19,0 4.34,-1.1 5.63,-3.24 1.3,-2.14 1.3,-5.03 1.3,-6.92 0,-1.79 0,-4.49 -1.1,-6.68 -1.09,-2.24 -3.28,-3.68 -5.78,-3.68 h 0 c -2.14,0 -4.33,1.04 -5.68,3.34 -1.24,2.19 -1.24,5.23 -1.24,7.02 0,1.94 0,4.63 1.2,6.82 1.34,2.3 3.68,3.34 5.67,3.34 l 0.05,1.1 c -6.22,0 -11.05,-5.43 -11.05,-11.66 0,-6.43 5.17,-11.21 11,-11.21 6.03,0 11.06,4.88 11.06,11.21 z"
           style="fill:#000000;stroke-width:0" /><path
           id="path2950"
           d="m 574.36,415.66 0.11,-0.02 0.13,-0.02 0.14,-0.03 0.16,-0.03 0.17,-0.04 0.18,-0.05 0.18,-0.05 0.2,-0.05 0.21,-0.06 0.21,-0.07 0.21,-0.08 0.22,-0.09 0.22,-0.09 0.22,-0.1 0.22,-0.12 0.22,-0.12 0.22,-0.13 0.21,-0.14 0.2,-0.15 0.2,-0.16 0.19,-0.18 0.18,-0.19 0.17,-0.2 0.16,-0.21 0.14,-0.22 0.07,-0.12 0.06,-0.12 0.06,-0.13 0.05,-0.12 0.05,-0.13 0.05,-0.14 0.04,-0.14 0.03,-0.14 0.03,-0.15 0.03,-0.15 0.02,-0.15 0.01,-0.16 0.01,-0.16 0,-0.17 c 0,-2.54 -1.74,-4.53 -5.63,-4.53 -4.18,0 -5.98,2.84 -6.92,7.07 -0.15,0.65 -0.2,0.85 -0.7,0.85 -0.64,0 -0.64,-0.35 -0.64,-1.25 v -6.57 c 0,-0.85 0,-1.2 0.54,-1.2 0.25,0 0.3,0.05 1.25,1 0.09,0.1 0.09,0.2 0.99,1.14 2.19,-2.09 4.44,-2.14 5.48,-2.14 5.73,0 8.02,3.34 8.02,6.93 0,2.64 -1.49,4.13 -2.09,4.73 -1.64,1.59 -3.59,1.99 -5.68,2.39 -2.79,0.55 -6.13,1.2 -6.13,4.09 0,1.74 1.3,3.78 5.58,3.78 5.48,0 5.73,-4.48 5.83,-6.03 0.05,-0.45 0.5,-0.45 0.6,-0.45 0.65,0 0.65,0.25 0.65,1.2 v 5.03 c 0,0.85 0,1.2 -0.55,1.2 -0.25,0 -0.35,0 -0.99,-0.6 -0.16,-0.2 -0.65,-0.65 -0.85,-0.8 -1.9,1.4 -3.94,1.4 -4.69,1.4 -6.08,0 -7.96,-3.34 -7.96,-6.13 0,-1.74 0.79,-3.14 2.13,-4.23 1.6,-1.3 2.99,-1.6 6.58,-2.3 z"
           style="fill:#000000;stroke-width:0" /><path
           id="path2952"
           d="m 599.49,394.04 0,0.03 0,0.03 -0.01,0.01 0,0.02 0,0.01 -0.01,0.02 0,0.02 -0.01,0.01 -0.01,0.02 -0.01,0.02 -0.01,0.03 -0.01,0.02 -0.02,0.02 -0.02,0.03 -0.02,0.03 -0.02,0.03 -0.03,0.03 -0.03,0.04 -0.01,0.02 -0.02,0.02 -0.02,0.02 -0.02,0.02 -0.02,0.02 -0.02,0.03 -0.02,0.02 -0.02,0.02 -0.02,0.03 -0.03,0.02 -0.02,0.03 -0.03,0.03 -0.02,0.03 -0.03,0.03 -0.03,0.03 -0.03,0.03 -0.03,0.03 -0.03,0.03 -0.04,0.04 -0.03,0.03 -0.04,0.04 -0.03,0.03 -0.04,0.04 -0.04,0.04 c -6.23,6.28 -7.82,15.69 -7.82,23.31 0,8.67 1.9,17.34 8.02,23.57 0.65,0.59 0.65,0.69 0.65,0.84 0,0.35 -0.2,0.5 -0.5,0.5 -0.5,0 -4.98,-3.39 -7.92,-9.72 -2.54,-5.47 -3.14,-11 -3.14,-15.19 0,-3.88 0.55,-9.91 3.29,-15.54 2.99,-6.12 7.27,-9.36 7.77,-9.36 0.3,0 0.5,0.15 0.5,0.49 z"
           style="fill:#000000;stroke-width:0" /><path
           id="path2954"
           d="m 624.66,430.91 0,0.31 -0.01,0.34 -0.01,0.36 -0.02,0.37 -0.03,0.38 -0.04,0.4 -0.05,0.41 -0.06,0.41 -0.06,0.42 -0.08,0.42 -0.09,0.43 -0.1,0.42 -0.11,0.43 -0.13,0.42 -0.13,0.41 -0.16,0.4 -0.17,0.4 -0.18,0.39 -0.2,0.37 -0.22,0.35 -0.23,0.34 -0.25,0.32 -0.27,0.3 -0.29,0.27 -0.31,0.25 -0.17,0.12 -0.16,0.11 -0.18,0.1 -0.17,0.09 -0.19,0.09 -0.19,0.07 -0.19,0.07 -0.2,0.06 -0.21,0.06 -0.21,0.04 -0.21,0.03 -0.23,0.03 -0.23,0.01 -0.23,0.01 -0.05,-1.1 c 2.44,0 2.74,-3.18 2.74,-6.02 0,-2.45 -0.4,-4.99 -1.6,-9.92 h -10.41 c 0.85,3.19 1.85,7.17 3.84,10.71 1.34,2.44 3.19,5.23 5.43,5.23 l 0.05,1.1 c -6.93,0 -14.6,-14.05 -14.6,-25.46 0,-4.68 1.44,-10.21 5.98,-10.21 v 1.1 c -1.64,0 -2.69,1.44 -2.69,6.07 0,2.1 0.3,4.99 1.59,9.87 h 10.37 c -0.56,-2.29 -1.6,-6.53 -3.49,-10.11 -1.75,-3.39 -3.64,-5.83 -5.78,-5.83 v -1.1 c 7.02,0 14.59,14.3 14.59,25.46 z"
           style="fill:#000000;stroke-width:0" /><path
           id="path2956"
           d="m 641.4,418.45 -0.01,0.37 0,0.39 -0.01,0.39 -0.01,0.41 -0.04,0.84 -0.06,0.88 -0.09,0.92 -0.1,0.94 -0.14,0.98 -0.16,1 -0.2,1.02 -0.23,1.04 -0.27,1.05 -0.3,1.06 -0.35,1.06 -0.39,1.07 -0.22,0.53 -0.22,0.54 -0.24,0.53 -0.25,0.53 c -2.99,6.12 -7.27,9.36 -7.77,9.36 -0.3,0 -0.5,-0.2 -0.5,-0.5 0,-0.15 0,-0.25 0.94,-1.15 4.89,-4.92 7.73,-12.85 7.73,-23.26 0,-8.52 -1.85,-17.28 -8.02,-23.56 -0.65,-0.6 -0.65,-0.69 -0.65,-0.85 0,-0.29 0.2,-0.49 0.5,-0.49 0.5,0 4.98,3.38 7.92,9.71 2.54,5.48 3.14,11.01 3.14,15.19 z"
           style="fill:#000000;stroke-width:0" /></g>    </g>
  </g>
</svg>
