<?xml version="1.0" encoding="UTF-8" standalone="no"?>
<!-- Created with Inkscape (http://www.inkscape.org/) -->
<svg
   xmlns:dc="http://purl.org/dc/elements/1.1/"
   xmlns:cc="http://creativecommons.org/ns#"
   xmlns:rdf="http://www.w3.org/1999/02/22-rdf-syntax-ns#"
   xmlns:svg="http://www.w3.org/2000/svg"
   xmlns="http://www.w3.org/2000/svg"
   xmlns:sodipodi="http://sodipodi.sourceforge.net/DTD/sodipodi-0.dtd"
   xmlns:inkscape="http://www.inkscape.org/namespaces/inkscape"
   width="1571.1283"
   height="1327.1444"
   id="svg3013"
   sodipodi:version="0.32"
   inkscape:version="0.46+devel r20655"
   version="1.0"
   sodipodi:docname="c3d3.svg"
   inkscape:output_extension="org.inkscape.output.svg.inkscape">
  <sodipodi:namedview
     id="base"
     pagecolor="#ffffff"
     bordercolor="#666666"
     borderopacity="1.0"
     inkscape:pageopacity="0.0"
     inkscape:pageshadow="2"
     inkscape:zoom="0.35"
     inkscape:cx="700.89672"
     inkscape:cy="601.39382"
     inkscape:document-units="px"
     inkscape:current-layer="layer1"
     showgrid="false"
     inkscape:window-width="1280"
     inkscape:window-height="778"
     inkscape:window-x="-5"
     inkscape:window-y="-3" />
  <defs
     id="defs3015">
    <marker
       inkscape:stockid="Arrow1Lend"
       orient="auto"
       refY="0.0"
       refX="0.0"
       id="Arrow1Lend"
       style="overflow:visible;">
      <path
         id="path4576"
         d="M 0.0,0.0 L 5.0,-5.0 L -12.5,0.0 L 5.0,5.0 L 0.0,0.0 z "
         style="fill-rule:evenodd;stroke:#000000;stroke-width:1.0pt;marker-start:none;"
         transform="scale(0.8) rotate(180) translate(12.5,0)" />
    </marker>
    <inkscape:perspective
       sodipodi:type="inkscape:persp3d"
       inkscape:vp_x="0 : 526.18109 : 1"
       inkscape:vp_y="0 : 1000 : 0"
       inkscape:vp_z="744.09448 : 526.18109 : 1"
       inkscape:persp3d-origin="372.04724 : 350.78739 : 1"
       id="perspective3021" />
    <inkscape:perspective
       id="perspective5026"
       inkscape:persp3d-origin="0.5 : 0.33333333 : 1"
       inkscape:vp_z="1 : 0.5 : 1"
       inkscape:vp_y="0 : 1000 : 0"
       inkscape:vp_x="0 : 0.5 : 1"
       sodipodi:type="inkscape:persp3d" />
    <marker
       inkscape:stockid="Arrow1Lend"
       orient="auto"
       refY="0"
       refX="0"
       id="Arrow1Lend-7"
       style="overflow:visible">
      <path
         id="path4576-2"
         d="M 0,0 5,-5 -12.5,0 5,5 0,0 z"
         style="fill-rule:evenodd;stroke:#000000;stroke-width:1pt;marker-start:none"
         transform="matrix(-0.8,0,0,-0.8,-10,0)" />
    </marker>
  </defs>
  <metadata
     id="metadata3018">
    <rdf:RDF>
      <cc:Work
         rdf:about="">
        <dc:format>image/svg+xml</dc:format>
        <dc:type
           rdf:resource="http://purl.org/dc/dcmitype/StillImage" />
        <dc:title />
      </cc:Work>
    </rdf:RDF>
  </metadata>
  <g
     inkscape:label="Layer 1"
     inkscape:groupmode="layer"
     id="layer1"
     transform="translate(325.89672,193.38841)">
    <path
       style="fill:#000000;fill-opacity:1;fill-rule:nonzero;stroke:#000000;stroke-width:3;stroke-linecap:round;stroke-linejoin:round;stroke-miterlimit:4;stroke-opacity:1;stroke-dasharray:none;stroke-dashoffset:0"
       id="path3023"
       d="m 105.31917,160.60279 c 5.48557,0.73 10.85333,2.18964 16.21871,3.51458 11.47064,2.98733 22.96505,5.87047 34.55555,8.35518 18.65214,4.05674 37.61291,6.36051 56.55856,8.52116 27.74677,3.0677 55.6724,3.90325 83.55764,4.66385 35.98714,0.83386 71.98539,0.97206 107.98048,1.09117 41.54687,0.25402 83.09185,-0.20073 124.63526,-0.67484 43.53306,-0.49974 87.06207,-1.37707 130.58493,-2.4349 41.80057,-0.97322 83.57993,-2.64824 125.33885,-4.72626 36.47687,-1.8004 72.92329,-4.13732 109.37716,-6.33971 27.87753,-1.70836 55.77121,-3.12699 83.67583,-4.30586 18.10136,-0.75344 36.21056,-1.29561 54.32226,-1.72335 8.8119,-0.0801 17.6307,-0.62809 26.4384,-0.17078 3.3955,0.28765 6.2466,1.21447 6.7063,4.8621 -0.4309,4.32197 -3.3192,7.89236 -5.6609,11.38701 -4.8056,7.15039 -9.5731,14.32298 -14.1865,21.59911 -7.4735,11.57985 -14.5716,23.39476 -21.7096,35.18253 -9.3831,15.81495 -19.3357,31.27113 -29.71908,46.44466 -11.70156,16.89154 -24.44908,33.0115 -37.18081,49.12774 -12.66686,16.05295 -25.84591,31.69073 -38.96676,47.37168 -12.49645,14.86559 -24.94716,29.76963 -37.31649,44.74117 -11.73745,13.98761 -23.17379,28.21888 -34.48637,42.55077 -9.88861,12.45234 -19.19979,25.34332 -28.3833,38.31919 -6.96469,9.7158 -13.63587,19.63455 -20.20203,29.62225 -4.07898,6.21869 -8.14627,12.44561 -12.59174,18.41062 -5.45111,7.28852 -13.10917,10.60041 -21.00407,15.01362 -6.73922,2.64426 -13.89833,3.73461 -21.03343,4.66893 -12.59391,1.43709 -25.27617,1.79924 -37.93652,2.15728 -19.6598,0.45735 -39.32596,0.5233 -58.9901,0.59488 -25.83935,0.12125 -51.67613,-0.4361 -77.51026,-0.88344 -30.14802,-0.5468 -60.29842,-0.93768 -90.4496,-1.25699 -31.89089,-0.28768 -63.78261,-0.58541 -95.675,-0.52039 -32.18071,-0.003 -64.34807,0.837 -96.50357,2.03189 -31.54063,1.13521 -63.05339,2.9099 -94.54104,5.04062 -28.86118,1.72425 -57.61593,4.67472 -86.31646,8.10859 -23.437855,2.82551 -46.736555,6.67625 -69.884514,11.29023 -16.289543,3.19113 -32.3848188,7.23917 -48.421111,11.49977 -9.456953,2.6219 -18.83354,5.52484 -28.178752,8.5179 -3.254967,0.64082 -8.224408,3.6821 -10.879201,0.51182 -1.050464,-5.026 2.477173,-10.18258 4.579089,-14.53646 5.438429,-11.11383 11.362967,-21.97496 17.197373,-32.88251 8.470539,-15.96109 17.192545,-31.78555 25.9923646,-47.56675 C 5.5524974,509.34027 15.678045,490.83621 25.672521,472.26053 36.636851,451.68609 47.529683,431.07341 58.377572,410.43732 69.51154,389.06891 80.069866,367.40695 90.353611,345.61867 100.35581,324.26671 109.79781,302.65842 119.254,281.06091 c 7.46677,-17.10039 15.0178,-34.16484 22.73292,-51.15477 4.48587,-9.9771 9.28549,-19.83004 12.96574,-30.14254 0.36856,-1.24365 0.73711,-2.48731 1.10566,-3.73096 0,0 10.14072,-4.80917 10.14072,-4.80917 l 0,0 c -0.36384,1.26468 -0.72767,2.52936 -1.09151,3.79404 -3.65307,10.39625 -8.54774,20.28272 -13.09113,30.30804 -7.79757,16.99894 -15.40406,34.08543 -22.90677,51.21638 -9.48703,21.60323 -18.93797,43.22661 -28.92855,64.60326 -10.273705,21.80261 -20.83589,43.47217 -31.952649,64.85915 -10.834514,20.63178 -21.72089,41.23645 -32.658826,61.81357 -9.97103,18.57323 -20.075121,37.07379 -30.2979346,55.50972 -8.7695234,15.75683 -17.4703334,31.55192 -25.8907934,47.49892 -5.774886,10.87298 -11.66982,21.68385 -17.045628,32.76356 -1.989901,4.15039 -4.82298,8.58304 -5.059868,13.27886 2.259574,2.14093 7.590521,-1.34244 10.033484,-1.49942 9.312907,-2.94109 18.652872,-5.8052 28.0774064,-8.37006 16.0019186,-4.20833 32.0679046,-8.18038 48.3168366,-11.3332 23.123855,-4.53982 46.392408,-8.33539 69.796732,-11.1205 28.68763,-3.39524 57.42952,-6.29515 86.27346,-8.00863 31.48599,-2.10411 62.99569,-3.86724 94.53316,-4.99509 32.16276,-1.18247 64.33722,-2.0053 96.5246,-2.00129 31.90112,-0.0557 63.80157,0.2373 95.70126,0.51757 30.17573,0.31458 60.35078,0.69271 90.52377,1.21163 25.86738,0.42478 51.73768,0.95142 77.6098,0.78288 19.70987,-0.10307 39.422,-0.20592 59.12619,-0.72853 12.68298,-0.39916 25.39048,-0.80536 37.99715,-2.34754 7.10488,-1.00234 14.2666,-2.1446 20.89834,-5.01969 -16.15214,9.71926 -0.73242,0.89938 1.81978,-3.50559 4.53305,-5.92379 8.61433,-12.16746 12.72327,-18.38894 6.60437,-10.01002 13.29225,-19.96559 20.29452,-29.7035 9.20883,-12.99738 18.52753,-25.92305 28.43313,-38.40316 11.32435,-14.34207 22.75592,-28.59705 34.51295,-42.58842 12.37143,-14.98174 24.83205,-29.88955 37.33896,-44.75835 13.1234,-15.67983 26.31838,-31.3053 38.99592,-47.35083 12.72205,-16.09709 25.47548,-32.18525 37.18231,-49.04758 10.37826,-15.13165 20.31779,-30.55227 29.65799,-46.34956 7.101,-11.76983 14.1407,-23.58019 21.5731,-35.14567 4.5675,-7.27034 9.2904,-14.43563 14.0577,-21.57627 2.2454,-3.34912 4.9417,-6.68255 5.8994,-10.67059 0,-3.10956 -3.2692,-3.23901 -5.7784,-3.50764 -8.7305,-0.42917 -17.4745,0.0531 -26.2092,0.10497 -18.0375,0.3717 -36.07255,0.86756 -54.09989,1.58686 -27.83398,1.12991 -55.65727,2.5035 -83.46432,4.17492 -36.40843,2.15991 -72.80969,4.45132 -109.23984,6.22521 -41.7419,2.0452 -83.50358,3.69278 -125.28573,4.65518 -43.52816,1.05014 -87.06229,1.92099 -130.60033,2.43004 -41.57585,0.48808 -83.15313,0.95005 -124.73269,0.72713 -36.0506,-0.0912 -72.10436,-0.19958 -108.14766,-1.00105 -27.9671,-0.73631 -55.97417,-1.54858 -83.8045,-4.60062 -19.02399,-2.14451 -38.06058,-4.44054 -56.79265,-8.48766 -11.63558,-2.48481 -23.1789,-5.35344 -34.70897,-8.28665 -5.3905,-1.29191 -10.78422,-2.70955 -16.304867,-3.32108 0,0 9.311617,-6.56546 9.311617,-6.56546 z" />
    <path
       style="fill:#000000;fill-opacity:1;fill-rule:nonzero;stroke:#000000;stroke-width:3;stroke-linecap:round;stroke-linejoin:round;stroke-miterlimit:4;stroke-opacity:1;stroke-dasharray:none;stroke-dashoffset:0"
       id="path3027"
       d="m -54.866612,578.93894 c 0.51146,4.52375 1.236027,9.02105 1.982539,13.5111 1.496172,9.33735 2.959029,18.68025 4.41075,28.02468 2.278996,14.392 3.564259,28.90843 4.627257,43.43221 1.470291,19.13745 1.269363,38.33528 0.901468,57.5074 -0.518715,20.8444 -1.20863,41.684 -1.797055,62.5265 -0.573929,20.10736 -0.947251,40.21947 -1.244043,60.33258 -0.159275,18.97884 -0.411051,37.95345 -0.920229,56.92625 -0.464493,16.14427 -0.886357,32.28883 -1.648106,48.42222 -0.600108,13.69264 -1.553774,27.3659 -2.840098,41.01052 -1.013977,11.2463 -2.654597,22.4171 -4.318343,33.581 -1.203108,7.9126 -2.97999,15.7218 -4.319668,23.6093 -0.466977,3.7339 -1.275984,8.18 2.416458,10.3793 5.984274,1.3959 12.250837,-0.8465 17.994126,-2.4258 12.398191,-3.5455 24.828234,-6.959 37.3515259,-10.0356 17.9047021,-4.3588 36.0276161,-7.7355 54.1851091,-10.842 22.013741,-3.7121 44.187543,-6.2558 66.377951,-8.6182 24.71065,-2.6425 49.50916,-4.2755 74.32017,-5.5986 25.92623,-1.2316 51.8565,-2.3588 77.79544,-3.2854 25.75717,-0.9209 51.52225,-1.4822 77.29537,-1.5559 24.42609,-0.1347 48.83865,0.7538 73.2184,2.1809 22.19314,1.3722 44.33176,3.4908 66.45273,5.7175 19.71286,2.0299 39.36078,4.6073 58.99303,7.2919 17.37743,2.4431 34.68602,5.3369 52.04147,7.9256 14.79688,2.1754 29.54765,4.645 44.32828,6.9251 11.94283,1.7602 23.87283,3.5984 35.8395,5.1918 9.50579,1.1629 18.98468,2.527 28.49103,3.6866 7.54181,0.9275 15.1131,1.5688 22.69307,2.0805 5.51731,0.3574 11.04272,0.5651 16.56935,0.7054 3.43057,0.013 6.92658,0.4412 10.26149,-0.5406 4.589,-2.6289 -5.1176,2.9407 -7.69687,4.177 -0.39825,0.1909 0.61131,-0.641 0.87175,-0.9977 0.95248,-1.3045 1.4384,-2.8462 1.9615,-4.3508 1.44013,-4.7375 1.91457,-9.6866 2.35356,-14.5965 0.7267,-7.2328 1.41106,-14.4687 2.21456,-21.6934 1.01845,-9.6439 2.0182,-19.2892 3.05431,-28.93138 1.23764,-11.14516 2.04102,-22.32967 2.69665,-33.52196 0.61182,-12.38997 1.45243,-24.76695 2.14676,-37.15242 0.71609,-13.40049 1.28541,-26.81022 1.46832,-40.22904 0.17589,-14.03731 -0.46217,-28.06435 -1.40716,-42.06535 -1.00619,-14.75118 -2.61889,-29.44934 -4.04312,-44.1634 -1.55644,-15.66082 -3.26509,-31.30527 -4.92562,-46.95516 -1.61127,-15.62144 -3.32087,-31.2317 -4.76283,-46.87006 -1.39867,-14.20835 -2.80891,-28.41516 -4.00978,-42.64182 -0.84724,-11.36713 -1.99448,-22.70869 -3.063,-34.05635 -0.76655,-8.03121 -1.39432,-16.07447 -1.93561,-24.12371 -0.37868,-4.53983 -0.43078,-9.10327 -0.82253,-13.64091 -0.1832,-1.69422 -0.43914,-3.37928 -0.68323,-5.06542 0,0 10.02613,-5.29283 10.02613,-5.29283 l 0,0 c 0.25046,1.70488 0.51261,3.4085 0.71147,5.12045 0.43067,4.55408 0.38754,9.14453 0.76287,13.70455 0.50044,8.05381 1.10062,16.10111 1.84345,24.13647 1.03593,11.3646 2.16479,22.72205 2.99265,34.10442 1.17451,14.23325 2.55355,28.44745 3.95508,42.65995 1.43001,15.63655 3.13037,31.24455 4.74278,46.8629 1.66192,15.65035 3.37435,31.29501 4.94815,46.95466 1.43086,14.72008 3.05459,29.42359 4.07954,44.18005 0.96676,14.02472 1.61396,28.07705 1.4584,42.13948 -0.15724,13.42923 -0.72612,26.84936 -1.42591,40.26065 -0.67919,12.38199 -1.5216,24.75462 -2.11786,37.14098 -0.64187,11.2027 -1.41951,22.39909 -2.6429,33.55557 -1.02314,9.63518 -2.021,19.27198 -3.00478,28.91108 -0.78896,7.207 -1.44884,14.4251 -2.1677,21.6393 -0.40622,4.9734 -0.85865,9.9784 -2.18805,14.8066 -2.15625,7.0013 -6.00169,10.6708 -14.42621,12.8838 -3.43447,0.6214 -6.91916,0.333 -10.3903,0.2708 -5.522,-0.1614 -11.04218,-0.3985 -16.55408,-0.775 -7.57752,-0.5431 -15.14623,-1.21 -22.68503,-2.1595 -9.4925,-1.1825 -18.96032,-2.5476 -28.45296,-3.7287 -11.94963,-1.6254 -23.86562,-3.4744 -35.79322,-5.252 -14.7565,-2.3072 -29.48646,-4.7822 -44.26255,-6.9642 -17.33364,-2.6108 -34.62289,-5.5106 -51.98249,-7.9502 -19.60792,-2.6893 -39.23287,-5.2623 -58.92179,-7.2948 -22.09457,-2.2335 -44.2078,-4.351 -66.37578,-5.7162 -24.35385,-1.4162 -48.74018,-2.295 -73.13971,-2.1561 -25.76206,0.084 -51.51647,0.651 -77.26245,1.5754 -25.93852,0.9313 -51.8686,2.0609 -77.79385,3.3081 -24.81503,1.3427 -49.61662,3.006 -74.32934,5.6762 -22.201168,2.3821 -44.382956,4.9719 -66.402787,8.7236 -18.177209,3.1513 -36.3214327,6.5611 -54.239206,10.9822 -12.560203,3.1307 -25.027485,6.5929 -37.470678,10.1584 -5.944518,1.5937 -12.617813,3.9742 -18.671092,1.723 -3.844338,-2.8263 -3.631384,-7.1472 -2.979423,-11.5502 1.335685,-7.9018 3.174352,-15.712 4.41412,-23.6323 1.692114,-11.1568 3.373234,-22.3189 4.412185,-33.56028 1.317459,-13.6359 2.2892,-27.30259 2.912292,-40.98836 0.789661,-16.13805 1.241625,-32.28778 1.728434,-48.4374 0.532687,-18.97575 0.82047,-37.95328 0.970181,-56.93596 0.294895,-20.1206 0.677446,-40.23995 1.254513,-60.35467 0.597694,-20.83869 1.289198,-41.67478 1.798693,-62.51589 0.362747,-19.12709 0.555057,-38.28096 -0.943667,-57.37135 -1.085582,-14.47772 -2.390982,-28.94843 -4.702386,-43.29064 -1.480165,-9.32071 -2.983633,-18.63801 -4.523217,-27.94897 -0.779236,-4.47917 -1.517787,-8.96779 -2.115399,-13.47488 0,0 10.077245,-5.31606 10.077245,-5.31606 z" />
    <path
       style="fill:#000000;fill-opacity:1;fill-rule:nonzero;stroke:#000000;stroke-width:3;stroke-linecap:round;stroke-linejoin:round;stroke-miterlimit:4;stroke-opacity:1;stroke-dasharray:none;stroke-dashoffset:0"
       id="path3029"
       d="m 766.58891,1068.3627 c 2.75149,-4.3937 5.15008,-9.0008 7.594,-13.5698 5.20849,-9.4593 10.37737,-18.9401 15.63189,-28.374 7.33535,-13.2404 14.95533,-26.3114 22.89662,-39.19664 8.93873,-14.36898 18.55834,-28.2902 28.30326,-42.11869 9.70804,-13.61312 19.84184,-26.91591 29.89938,-40.27101 9.50032,-12.56061 19.03821,-25.09278 28.53253,-37.65792 8.80754,-11.64248 17.5842,-23.30889 26.31516,-35.00902 7.7736,-10.62345 15.66772,-21.158 23.50881,-31.73164 6.6814,-8.99207 13.50199,-17.87951 20.23521,-26.83252 5.4317,-7.29028 10.98497,-14.48852 16.31488,-21.85413 4.44904,-6.15833 8.7409,-12.42728 13.03411,-18.69458 4.41064,-6.46998 9.00424,-12.81349 13.65324,-19.11359 5.0984,-7.01428 10.3744,-13.89586 15.6361,-20.78763 5.0752,-6.82909 10.1341,-13.66948 15.319,-20.41604 4.2819,-5.38876 8.5239,-10.80823 12.7211,-16.26335 2.4888,-3.22347 4.9182,-6.49227 7.4262,-9.70095 1.8403,-2.26457 2.4791,-4.96162 2.8687,-7.78162 0.4503,-5.06055 0.428,-10.15469 0.2872,-15.22881 -0.4523,-8.85511 -0.9933,-17.70502 -1.4235,-26.56145 -0.3869,-12.09542 -1.0878,-24.1713 -2.0457,-36.23393 -1.0585,-13.50479 -2.3544,-26.9896 -3.827,-40.45518 -1.6215,-13.2945 -2.9512,-26.61994 -4.3225,-39.94143 -1.3851,-12.67743 -2.56,-25.37492 -3.5213,-38.09116 -0.9765,-11.62152 -2.0105,-23.23742 -2.8858,-34.86721 -0.8201,-10.42237 -1.171,-20.87201 -1.7434,-31.30851 -0.587,-9.2578 -1.2711,-18.50888 -1.8529,-27.76704 -0.6534,-8.32755 -1.5094,-16.63728 -2.247,-24.95761 -0.7267,-8.24126 -1.1593,-16.50368 -1.4995,-24.76861 -0.4132,-8.6886 -0.03,-17.38714 0.3257,-26.07026 0.3875,-8.49026 0.7536,-16.98128 1.0557,-25.47504 0.3922,-7.8857 1.0862,-15.75227 1.7031,-23.62256 0.5232,-6.61543 0.8453,-13.24251 1.521,-19.84485 0.6301,-5.73279 1.4141,-11.4487 1.7645,-17.2073 0.3067,-7.04809 -1.095,-13.9331 -2.7827,-20.72898 0,0 9.8584,-5.33351 9.8584,-5.33351 l 0,0 c 1.7577,6.88173 3.2317,13.84962 2.9988,21.00054 -0.3004,5.77863 -1.0907,11.51053 -1.7437,17.25737 -0.706,6.59818 -1.0524,13.22155 -1.5687,19.83641 -0.6234,7.85962 -1.3213,15.71513 -1.7436,23.589 -0.3058,8.49723 -0.6646,16.99222 -1.0627,25.48563 -0.3624,8.6538 -0.7619,17.32422 -0.3599,25.98408 0.3371,8.24804 0.7609,16.49383 1.4822,24.71854 0.7275,8.3325 1.5834,16.65338 2.2442,24.99156 0.5687,9.26545 1.2422,18.52377 1.8292,27.78803 0.5778,10.43371 0.894,20.88254 1.7071,31.30318 0.8566,11.63529 1.8818,23.25612 2.8559,34.88196 0.9465,12.71049 2.1057,25.40267 3.4884,38.07355 1.3736,13.32069 2.6802,26.6482 4.3061,39.94172 1.4835,13.47211 2.7837,26.96432 3.8581,40.47548 0.9781,12.0621 1.7174,24.13657 2.1217,36.23271 0.4488,8.84779 1.0115,17.68827 1.5217,26.53249 0.1904,5.11224 0.2207,10.24036 -0.1303,15.34707 -0.3268,2.95807 -0.8267,5.86147 -2.6062,8.3397 -2.5438,3.20524 -4.9938,6.48276 -7.4982,9.71873 -4.2146,5.46183 -8.4524,10.90495 -12.7711,16.28497 -5.2075,6.73724 -10.2857,13.57112 -15.3436,20.42118 -5.2579,6.88364 -10.5369,13.75245 -15.6247,20.76374 -4.6524,6.28188 -9.2372,12.61659 -13.6523,19.06801 -4.2883,6.28419 -8.5951,12.55655 -13.04266,18.72949 -5.3234,7.3944 -10.90638,14.59411 -16.35558,21.89544 -6.73947,8.96713 -13.58816,17.85216 -20.28928,26.84833 -7.85652,10.57739 -15.76534,21.11639 -23.54522,31.75032 -8.73384,11.71117 -17.53244,23.37434 -26.34245,35.02815 -9.499,12.57241 -19.05021,25.10528 -28.56132,37.66853 -10.0591,13.35198 -20.19797,26.64866 -29.92638,40.24516 -9.74527,13.80812 -19.37337,27.70339 -28.31643,42.05043 -7.92841,12.85217 -15.5401,25.88707 -22.83029,39.11287 -5.22378,9.4057 -10.34763,18.8657 -15.51907,28.3002 -2.41138,4.5639 -4.81284,9.1357 -7.39676,13.6052 0,0 -10.43745,4.5668 -10.43745,4.5668 z" />
    <path
       style="fill:#000000;fill-opacity:1;fill-rule:nonzero;stroke:#000000;stroke-width:3;stroke-linecap:round;stroke-linejoin:round;stroke-miterlimit:4;stroke-opacity:1;stroke-dasharray:none;stroke-dashoffset:0"
       id="path3031"
       d="m 156.21784,822.08453 c -3.3138,3.2379 -6.563,6.53627 -9.72714,9.92042 -3.09377,3.42337 -6.24731,6.78829 -9.45699,10.1029 0,0 -10.37922,4.31663 -10.37922,4.31663 l 0,0 c 3.21379,-3.29545 6.38162,-6.63137 9.44296,-10.06993 3.12168,-3.37875 6.32053,-6.67793 9.59419,-9.90992 0,0 10.5262,-4.3601 10.5262,-4.3601 z" />
    <path
       style="fill:#000000;fill-opacity:1;fill-rule:nonzero;stroke:#000000;stroke-width:3;stroke-linecap:round;stroke-linejoin:round;stroke-miterlimit:4;stroke-opacity:1;stroke-dasharray:none;stroke-dashoffset:0"
       id="path3033"
       d="m 101.82094,874.06025 c -1.61283,4.08842 -3.282039,8.15255 -5.125914,12.14245 -2.518665,5.7636 -5.658658,11.1785 -9.2591,16.32373 -2.80505,3.97583 -6.097677,7.55329 -9.480029,11.03508 0,0 -10.378898,4.30894 -10.378898,4.30894 l 0,0 c 3.405761,-3.41732 6.716714,-6.93982 9.542282,-10.86473 3.629803,-5.0648 6.819056,-10.39245 9.303766,-16.12206 1.858548,-3.94565 3.507884,-7.97933 5.094068,-12.04135 0,0 10.303825,-4.78206 10.303825,-4.78206 z" />
    <path
       style="fill:#000000;fill-opacity:1;fill-rule:nonzero;stroke:#000000;stroke-width:3;stroke-linecap:round;stroke-linejoin:round;stroke-miterlimit:4;stroke-opacity:1;stroke-dasharray:none;stroke-dashoffset:0"
       id="path3035"
       d="m 27.646415,964.94168 c -3.429962,3.22458 -6.336202,6.94124 -9.318464,10.5693 -4.796276,5.92484 -9.7597487,11.70321 -14.9595344,17.27659 -5.7949796,6.21613 -11.9043404,12.11363 -18.3687426,17.62783 0,0 -10.391646,4.2023 -10.391646,4.2023 l 0,0 c 6.506688,-5.4406 12.615351,-11.316 18.4154158,-17.50552 5.2059265,-5.53422 10.1784644,-11.27096 14.9445987,-17.18966 2.9565795,-3.6165 5.7977075,-7.35842 9.1521725,-10.62075 0,0 10.5262,-4.36009 10.5262,-4.36009 z" />
    <path
       style="fill:#000000;fill-opacity:1;fill-rule:nonzero;stroke:#000000;stroke-width:3;stroke-linecap:round;stroke-linejoin:round;stroke-miterlimit:4;stroke-opacity:1;stroke-dasharray:none;stroke-dashoffset:0"
       id="path3037"
       d="m 1054.7277,647.13932 c -5.1081,0.16587 -10.2203,0.56805 -15.3152,0.99544 -11.2969,1.07012 -22.626,1.71685 -33.9437,2.50963 -9.89633,0.81508 -19.80889,1.31796 -29.72918,1.71487 0,0 8.89213,-6.51629 8.89213,-6.51629 l 0,0 c 9.92773,-0.41606 19.84675,-0.95242 29.75075,-1.77094 11.3563,-0.80321 22.7209,-1.50518 34.0538,-2.6093 5.1606,-0.43102 10.3319,-0.88778 15.5092,-1.02054 0,0 -9.2178,6.69713 -9.2178,6.69713 z" />
    <path
       style="fill:#000000;fill-opacity:1;fill-rule:nonzero;stroke:#000000;stroke-width:3;stroke-linecap:round;stroke-linejoin:round;stroke-miterlimit:4;stroke-opacity:1;stroke-dasharray:none;stroke-dashoffset:0"
       id="path3039"
       d="m 834.82325,664.59823 c -5.11281,1.05084 -10.19237,2.25538 -15.28264,3.41077 -9.61511,2.41493 -19.37248,4.18878 -29.12876,5.92002 -8.2905,1.48646 -16.65065,2.50608 -25.01436,3.46936 0,0 8.88945,-6.61758 8.88945,-6.61758 l 0,0 c 8.36323,-0.9872 16.7212,-2.03973 25.00953,-3.55052 9.77554,-1.7662 19.54555,-3.59208 29.18132,-6.02689 5.12442,-1.18236 10.26031,-2.32478 15.37224,-3.55534 0,0 -9.02678,6.95018 -9.02678,6.95018 z" />
    <path
       style="fill:#000000;fill-opacity:1;fill-rule:nonzero;stroke:#000000;stroke-width:3;stroke-linecap:round;stroke-linejoin:round;stroke-miterlimit:4;stroke-opacity:1;stroke-dasharray:none;stroke-dashoffset:0"
       id="path3041"
       d="m 631.81994,695.86099 c -5.94086,0.66915 -11.83306,1.72322 -17.74682,2.59707 -11.43207,1.543 -22.88786,2.90947 -34.35921,4.12612 -13.78773,1.2881 -27.63132,1.64792 -41.47106,1.57207 -12.7835,-0.0728 -25.5351,-1.09216 -38.26976,-2.11832 0,0 9.05586,-6.46813 9.05586,-6.46813 l 0,0 c 12.69936,1.03711 25.41729,2.04319 38.16712,2.08768 13.82347,0.0481 27.65189,-0.34272 41.41812,-1.68592 11.49218,-1.2423 22.9708,-2.62317 34.41807,-4.2293 5.96962,-0.91351 11.92049,-1.96461 17.91726,-2.68935 0,0 -9.12958,6.80808 -9.12958,6.80808 z" />
    <path
       style="fill:#000000;fill-opacity:1;fill-rule:nonzero;stroke:#000000;stroke-width:3;stroke-linecap:round;stroke-linejoin:round;stroke-miterlimit:4;stroke-opacity:1;stroke-dasharray:none;stroke-dashoffset:0"
       id="path3043"
       d="m 451.8706,704.28217 c -5.1007,0.007 -10.16828,0.77787 -15.22435,1.37665 -9.25659,1.09661 -18.4885,2.37555 -27.75514,3.39177 -11.16965,1.1861 -22.37914,1.91982 -33.59378,2.51046 -7.42372,0.34113 -3.72091,0.18373 -11.10841,0.47257 0,0 8.98579,-6.58294 8.98579,-6.58294 l 0,0 c 7.37787,-0.29461 3.68011,-0.13454 11.09329,-0.48059 11.20835,-0.60652 22.4121,-1.35252 33.57265,-2.57457 9.28558,-1.04934 18.53915,-2.34017 27.81722,-3.44939 5.12423,-0.61904 10.25818,-1.3616 15.43053,-1.36108 0,0 -9.2178,6.69712 -9.2178,6.69712 z" />
    <path
       style="fill:#000000;fill-opacity:1;fill-rule:nonzero;stroke:#000000;stroke-width:3;stroke-linecap:round;stroke-linejoin:round;stroke-miterlimit:4;stroke-opacity:1;stroke-dasharray:none;stroke-dashoffset:0"
       id="path3045"
       d="m 257.53798,721.26443 c -4.71907,-0.60784 -9.46772,-0.94436 -14.21226,-1.27938 -3.35613,-0.23237 -6.7159,-0.40324 -10.07559,-0.57341 0,0 9.13477,-6.56561 9.13477,-6.56561 l 0,0 c 3.36733,0.17456 6.73472,0.34999 10.09862,0.58363 4.79521,0.33861 9.59385,0.67922 14.36607,1.26932 0,0 -9.31161,6.56545 -9.31161,6.56545 z" />
    <path
       style="fill:#000000;fill-opacity:1;fill-rule:nonzero;stroke:#000000;stroke-width:3;stroke-linecap:round;stroke-linejoin:round;stroke-miterlimit:4;stroke-opacity:1;stroke-dasharray:none;stroke-dashoffset:0"
       id="path3047"
       d="m 179.17655,722.07599 c -2.34633,5.33387 -4.8628,10.5887 -7.43525,15.81637 -2.69609,5.50281 -5.74838,10.81685 -8.77685,16.14004 0,0 -10.21348,4.55454 -10.21348,4.55454 l 0,0 c 3.02253,-5.30145 6.08848,-10.58324 8.77762,-16.06549 2.54083,-5.17885 5.04081,-10.37873 7.2977,-15.68922 0,0 10.35026,-4.75624 10.35026,-4.75624 z" />
    <path
       style="fill:#000000;fill-opacity:1;fill-rule:nonzero;stroke:#000000;stroke-width:3;stroke-linecap:round;stroke-linejoin:round;stroke-miterlimit:4;stroke-opacity:1;stroke-dasharray:none;stroke-dashoffset:0"
       id="path3049"
       d="m 168.22179,190.97129 c 1.51282,5.6517 2.16889,11.47863 2.79166,17.28087 1.18357,11.10892 1.2911,22.2769 1.28028,33.43523 0,0 -9.87011,5.02918 -9.87011,5.02918 l 0,0 c -0.0128,-11.1018 -0.13505,-22.21362 -1.35161,-33.26259 -0.6308,-5.72519 -1.28865,-11.47894 -2.82139,-17.04747 0,0 9.97117,-5.43522 9.97117,-5.43522 z" />
    <path
       style="fill:#000000;fill-opacity:1;fill-rule:nonzero;stroke:#000000;stroke-width:3;stroke-linecap:round;stroke-linejoin:round;stroke-miterlimit:4;stroke-opacity:1;stroke-dasharray:none;stroke-dashoffset:0"
       id="path3051"
       d="m 176.50456,396.15348 c -0.16083,5.07324 -0.61404,10.14094 -1.05928,15.19699 -0.89179,10.1051 -2.33828,20.1497 -3.95453,30.16094 -1.28715,7.66298 -0.61184,3.83515 -2.02614,11.48347 0,0 -10.00209,4.86686 -10.00209,4.86686 l 0,0 c 1.42558,-7.62689 0.74853,-3.80792 2.03125,-11.45688 1.61485,-9.96977 3.04833,-19.9756 3.90211,-30.04297 0.42682,-5.00042 0.83518,-10.01971 0.9567,-15.03572 0,0 10.15198,-5.17269 10.15198,-5.17269 z" />
    <path
       style="fill:#000000;fill-opacity:1;fill-rule:nonzero;stroke:#000000;stroke-width:3;stroke-linecap:round;stroke-linejoin:round;stroke-miterlimit:4;stroke-opacity:1;stroke-dasharray:none;stroke-dashoffset:0"
       id="path3053"
       d="m 153.64742,544.72491 c 0.0458,5.03816 0.51518,10.0689 0.82747,15.09719 0.59321,8.91765 0.41738,17.86332 0.27335,26.79261 -0.0308,1.53614 -0.0616,3.07228 -0.0924,4.60842 0,0 -9.97835,5.0583 -9.97835,5.0583 l 0,0 c 0.0326,-1.53534 0.0652,-3.07069 0.0978,-4.60603 0.15089,-8.89357 0.3356,-17.80609 -0.28089,-26.68686 -0.33557,-5.02932 -0.80491,-10.05556 -0.99898,-15.09094 0,0 10.15198,-5.17269 10.15198,-5.17269 z" />
    <path
       style="fill:#000000;fill-opacity:1;fill-rule:nonzero;stroke:#000000;stroke-width:3;stroke-linecap:round;stroke-linejoin:round;stroke-miterlimit:4;stroke-opacity:1;stroke-dasharray:none;stroke-dashoffset:0"
       id="path3055"
       d="m 159.3617,673.29634 c -0.003,6.23757 -0.11796,12.4695 -0.34188,18.70301 -0.10135,1.78791 -0.2027,3.57582 -0.30405,5.36373 0,0 -9.96091,5.00616 -9.96091,5.00616 l 0,0 c 0.0959,-1.77608 0.19183,-3.55217 0.28775,-5.32825 0.19225,-6.19021 0.30394,-12.37896 0.16712,-18.57196 0,0 10.15197,-5.17269 10.15197,-5.17269 z" />
    <g
       id="g3257"
       transform="matrix(1.4613455,0,0,1.4613455,-1053.1509,245.54989)">
      <g
         word-spacing="normal"
         letter-spacing="normal"
         font-size-adjust="none"
         font-stretch="normal"
         font-weight="normal"
         font-variant="normal"
         font-style="normal"
         fill-rule="even-odd"
         stroke-miterlimit="10.433"
         xml:space="preserve"
         transform="matrix(1.8959206,0,0,-1.8959206,-331.7861,1178.3462)"
         id="g3259"
         style="font-style:normal;font-variant:normal;font-weight:normal;font-stretch:normal;letter-spacing:normal;word-spacing:normal;text-anchor:start;fill:none;stroke:#000000;stroke-linecap:butt;stroke-linejoin:miter;stroke-miterlimit:10.43299961;stroke-opacity:1;stroke-dasharray:none;stroke-dashoffset:0"><path
           id="path3261"
           d="m 478.02,440.77 -0.04,0.06 -0.03,0.06 -0.03,0.05 -0.02,0.05 -0.03,0.06 -0.03,0.04 -0.03,0.05 -0.02,0.04 -0.03,0.05 -0.03,0.04 -0.02,0.03 -0.03,0.04 -0.03,0.03 -0.03,0.03 -0.03,0.03 -0.03,0.03 -0.04,0.03 -0.03,0.02 -0.04,0.02 -0.04,0.02 -0.04,0.02 -0.04,0.02 -0.05,0.02 -0.05,0.01 -0.05,0.01 -0.05,0.01 -0.06,0.01 -0.06,0.01 -0.07,0 -0.07,0.01 -0.07,0 -0.08,0 c -0.84,0 -0.94,-0.25 -1.29,-0.9 l -0.3,-4.09 13.4,-26.89 h -26.85 l 13.45,26.89 0.3,4.09 L 458.59,407 c -0.25,-0.45 -0.25,-0.55 -0.25,-0.6 0,-0.4 0.3,-0.4 1.1,-0.4 h 34.57 c 0.79,0 1.09,0 1.09,0.4 0,0.05 0,0.15 -0.24,0.6 z"
           style="fill:#000000;stroke-width:0" /><path
           id="path3263"
           d="m 503.62,410.13 0.25,0.27 0.25,0.26 0.23,0.24 0.23,0.24 0.22,0.23 0.22,0.23 0.21,0.21 0.2,0.21 0.2,0.2 0.2,0.2 0.19,0.19 0.19,0.18 0.18,0.18 0.18,0.17 0.36,0.34 0.34,0.32 0.33,0.3 0.33,0.29 0.32,0.29 0.64,0.56 0.33,0.29 0.33,0.28 c 0,0.05 3.09,2.69 4.88,4.49 4.74,4.63 5.83,7.02 5.83,7.22 0,0.5 -0.45,0.5 -0.54,0.5 -0.35,0 -0.5,-0.1 -0.75,-0.55 -1.5,-2.39 -2.54,-3.19 -3.74,-3.19 -1.2,0 -1.79,0.75 -2.54,1.6 -0.94,1.14 -1.79,2.14 -3.44,2.14 -3.73,0 -6.02,-4.64 -6.02,-5.68 0,-0.25 0.15,-0.55 0.59,-0.55 0.45,0 0.55,0.25 0.65,0.55 0.95,2.29 3.84,2.34 4.24,2.34 1.04,0 1.99,-0.35 3.13,-0.75 2,-0.75 2.55,-0.75 3.84,-0.75 -1.79,-2.14 -5.98,-5.72 -6.92,-6.52 -2.49,-2.24 -2.55,-2.29 -4.49,-4.18 -3.38,-3.34 -5.13,-6.18 -5.13,-6.53 0,-0.5 0.5,-0.5 0.6,-0.5 0.4,0 0.5,0.1 0.8,0.65 1.14,1.74 2.64,3.09 4.23,3.09 1.15,0 1.64,-0.45 2.89,-1.89 0.85,-1.05 1.74,-1.85 3.19,-1.85 4.93,0 7.82,6.33 7.82,7.67 0,0.25 -0.2,0.5 -0.6,0.5 -0.45,0 -0.55,-0.3 -0.69,-0.65 -1.15,-3.24 -4.34,-4.18 -5.99,-4.18 -0.99,0 -1.89,0.3 -2.93,0.65 -1.7,0.65 -2.44,0.85 -3.49,0.85 -0.1,0 -0.9,0 -1.35,-0.16 z"
           style="fill:#000000;stroke-width:0" /></g>    </g>
    <g
       id="g3363"
       transform="matrix(1.4613455,0,0,1.4613455,-547.43661,531.26418)">
      <g
         id="g3365"
         transform="matrix(1.8959206,0,0,-1.8959206,-331.7861,1178.3462)"
         xml:space="preserve"
         stroke-miterlimit="10.433"
         fill-rule="even-odd"
         font-style="normal"
         font-variant="normal"
         font-weight="normal"
         font-stretch="normal"
         font-size-adjust="none"
         letter-spacing="normal"
         word-spacing="normal"
         style="font-style:normal;font-variant:normal;font-weight:normal;font-stretch:normal;letter-spacing:normal;word-spacing:normal;text-anchor:start;fill:none;stroke:#000000;stroke-linecap:butt;stroke-linejoin:miter;stroke-miterlimit:10.43299961;stroke-opacity:1;stroke-dasharray:none;stroke-dashoffset:0"><path
           d="m 478.02,440.77 -0.04,0.06 -0.03,0.06 -0.03,0.05 -0.02,0.05 -0.03,0.06 -0.03,0.04 -0.03,0.05 -0.02,0.04 -0.03,0.05 -0.03,0.04 -0.02,0.03 -0.03,0.04 -0.03,0.03 -0.03,0.03 -0.03,0.03 -0.03,0.03 -0.04,0.03 -0.03,0.02 -0.04,0.02 -0.04,0.02 -0.04,0.02 -0.04,0.02 -0.05,0.02 -0.05,0.01 -0.05,0.01 -0.05,0.01 -0.06,0.01 -0.06,0.01 -0.07,0 -0.07,0.01 -0.07,0 -0.08,0 c -0.84,0 -0.94,-0.25 -1.29,-0.9 l -0.3,-4.09 13.4,-26.89 h -26.85 l 13.45,26.89 0.3,4.09 L 458.59,407 c -0.25,-0.45 -0.25,-0.55 -0.25,-0.6 0,-0.4 0.3,-0.4 1.1,-0.4 h 34.57 c 0.79,0 1.09,0 1.09,0.4 0,0.05 0,0.15 -0.24,0.6 z"
           id="path3367"
           style="fill:#000000;stroke-width:0" /><path
           d="m 513.64,421.04 0.03,0.13 0.03,0.15 0.05,0.17 0.04,0.18 0.06,0.19 0.06,0.21 0.06,0.21 0.07,0.23 0.08,0.23 0.09,0.24 0.1,0.25 0.1,0.24 0.11,0.25 0.12,0.25 0.13,0.25 0.14,0.25 0.15,0.24 0.15,0.24 0.17,0.23 0.18,0.22 0.18,0.22 0.2,0.2 0.21,0.19 0.22,0.18 0.23,0.16 0.25,0.14 0.12,0.07 0.13,0.06 0.13,0.05 0.14,0.05 0.14,0.05 0.14,0.04 0.14,0.03 0.15,0.03 0.15,0.02 0.16,0.02 0.16,0.01 0.16,0 c 0.25,0 1.45,0 2.49,-0.65 -1.4,-0.25 -2.39,-1.49 -2.39,-2.68 0,-0.8 0.55,-1.75 1.89,-1.75 1.1,0 2.69,0.9 2.69,2.89 0,2.59 -2.94,3.29 -4.63,3.29 -2.89,0 -4.64,-2.64 -5.23,-3.79 -1.24,3.29 -3.94,3.79 -5.38,3.79 -5.18,0 -8.02,-6.43 -8.02,-7.67 0,-0.5 0.5,-0.5 0.6,-0.5 0.39,0 0.54,0.1 0.64,0.54 1.7,5.29 4.98,6.53 6.68,6.53 0.95,0 2.69,-0.45 2.69,-3.33 0,-1.55 -0.85,-4.89 -2.69,-11.86 -0.8,-3.09 -2.54,-5.18 -4.73,-5.18 -0.3,0 -1.45,0 -2.49,0.65 1.24,0.25 2.34,1.29 2.34,2.69 0,1.34 -1.1,1.74 -1.85,1.74 -1.49,0 -2.73,-1.3 -2.73,-2.89 0,-2.29 2.48,-3.29 4.68,-3.29 3.28,0 5.08,3.49 5.23,3.79 0.6,-1.85 2.39,-3.79 5.38,-3.79 5.13,0 7.97,6.43 7.97,7.67 0,0.5 -0.45,0.5 -0.6,0.5 -0.45,0 -0.55,-0.2 -0.65,-0.55 -1.64,-5.33 -5.03,-6.52 -6.62,-6.52 -1.95,0 -2.74,1.59 -2.74,3.29 0,1.09 0.29,2.19 0.85,4.38 z"
           id="path3369"
           style="fill:#000000;stroke-width:0" /></g>    </g>
    <g
       id="g3477"
       transform="matrix(1.4613455,0,0,1.4613455,146.8491,391.26418)">
      <g
         word-spacing="normal"
         letter-spacing="normal"
         font-size-adjust="none"
         font-stretch="normal"
         font-weight="normal"
         font-variant="normal"
         font-style="normal"
         fill-rule="even-odd"
         stroke-miterlimit="10.433"
         xml:space="preserve"
         transform="matrix(1.8959206,0,0,-1.8959206,-331.7861,1178.3462)"
         id="g3479"
         style="font-style:normal;font-variant:normal;font-weight:normal;font-stretch:normal;letter-spacing:normal;word-spacing:normal;text-anchor:start;fill:none;stroke:#000000;stroke-linecap:butt;stroke-linejoin:miter;stroke-miterlimit:10.43299961;stroke-opacity:1;stroke-dasharray:none;stroke-dashoffset:0"><path
           id="path3481"
           d="m 478.02,440.77 -0.04,0.06 -0.03,0.06 -0.03,0.05 -0.02,0.05 -0.03,0.06 -0.03,0.04 -0.03,0.05 -0.02,0.04 -0.03,0.05 -0.03,0.04 -0.02,0.03 -0.03,0.04 -0.03,0.03 -0.03,0.03 -0.03,0.03 -0.03,0.03 -0.04,0.03 -0.03,0.02 -0.04,0.02 -0.04,0.02 -0.04,0.02 -0.04,0.02 -0.05,0.02 -0.05,0.01 -0.05,0.01 -0.05,0.01 -0.06,0.01 -0.06,0.01 -0.07,0 -0.07,0.01 -0.07,0 -0.08,0 c -0.84,0 -0.94,-0.25 -1.29,-0.9 l -0.3,-4.09 13.4,-26.89 h -26.85 l 13.45,26.89 0.3,4.09 L 458.59,407 c -0.25,-0.45 -0.25,-0.55 -0.25,-0.6 0,-0.4 0.3,-0.4 1.1,-0.4 h 34.57 c 0.79,0 1.09,0 1.09,0.4 0,0.05 0,0.15 -0.24,0.6 z"
           style="fill:#000000;stroke-width:0" /><path
           id="path3483"
           d="m 521.21,424.98 0.01,0.03 0.01,0.03 0.01,0.03 0.01,0.03 0.01,0.06 0.02,0.05 0.01,0.06 0.01,0.04 0.02,0.05 0.01,0.04 0.01,0.04 0.01,0.04 0,0.04 0.01,0.04 0.01,0.03 0,0.03 0.01,0.03 0.01,0.03 0,0.03 0,0.03 0.01,0.03 0,0.02 0,0.06 0.01,0.05 0,0.05 0,0.05 0,0.03 0,0.03 0,0.03 0,0.03 c 0,0.9 -0.7,1.35 -1.44,1.35 -0.5,0 -1.3,-0.3 -1.75,-1.05 -0.1,-0.24 -0.5,-1.79 -0.7,-2.69 -0.34,-1.29 -0.7,-2.64 -0.99,-3.98 l -2.25,-8.97 c -0.19,-0.74 -2.33,-4.23 -5.62,-4.23 -2.54,0 -3.09,2.19 -3.09,4.03 0,2.3 0.84,5.38 2.54,9.77 0.8,2.04 1,2.59 1,3.58 0,2.25 -1.6,4.09 -4.09,4.09 -4.73,0 -6.57,-7.23 -6.57,-7.67 0,-0.5 0.49,-0.5 0.59,-0.5 0.5,0 0.55,0.1 0.8,0.9 1.34,4.68 3.34,6.17 5.03,6.17 0.4,0 1.25,0 1.25,-1.59 0,-1.25 -0.5,-2.54 -0.85,-3.49 -1.99,-5.28 -2.89,-8.12 -2.89,-10.46 0,-4.43 3.14,-5.93 6.08,-5.93 1.94,0 3.63,0.85 5.03,2.25 -0.65,-2.6 -1.25,-5.04 -3.24,-7.68 -1.29,-1.69 -3.19,-3.14 -5.48,-3.14 -0.7,0 -2.94,0.16 -3.79,2.1 0.8,0 1.45,0 2.15,0.59 0.49,0.45 0.99,1.1 0.99,2.05 0,1.54 -1.34,1.74 -1.84,1.74 -1.15,0 -2.79,-0.8 -2.79,-3.24 0,-2.49 2.19,-4.33 5.28,-4.33 5.13,0 10.26,4.53 11.66,10.16 z"
           style="fill:#000000;stroke-width:0" /></g>    </g>
    <g
       id="g3599"
       transform="matrix(1.4613455,0,0,1.4613455,86.849094,-543.02154)">
      <g
         id="g3601"
         transform="matrix(1.8959206,0,0,-1.8959206,-331.7861,1178.3462)"
         xml:space="preserve"
         stroke-miterlimit="10.433"
         fill-rule="even-odd"
         font-style="normal"
         font-variant="normal"
         font-weight="normal"
         font-stretch="normal"
         font-size-adjust="none"
         letter-spacing="normal"
         word-spacing="normal"
         style="font-style:normal;font-variant:normal;font-weight:normal;font-stretch:normal;letter-spacing:normal;word-spacing:normal;text-anchor:start;fill:none;stroke:#000000;stroke-linecap:butt;stroke-linejoin:miter;stroke-miterlimit:10.43299961;stroke-opacity:1;stroke-dasharray:none;stroke-dashoffset:0"><path
           d="m 491.27,417.61 0.01,0.02 0.01,0.02 0.02,0.05 0.02,0.05 0.02,0.06 0.02,0.05 0.02,0.05 0.02,0.05 0.02,0.05 0.01,0.02 0.01,0.03 0.01,0.02 0,0.02 0.01,0.03 0.01,0.02 0.01,0.02 0,0.02 0.01,0.02 0,0.01 0.01,0.02 0,0.02 0,0.01 0,0.01 0.01,0.01 0,0.01 c 0,0.06 0,0.55 -0.6,0.55 -0.45,0 -0.55,-0.3 -0.65,-0.6 -3.23,-7.37 -5.08,-10.71 -13.6,-10.71 h -7.27 c -0.7,0 -0.8,0 -1.1,0.05 -0.5,0.05 -0.64,0.11 -0.64,0.5 0,0.15 0,0.25 0.25,1.15 l 3.38,13.6 h 4.93 c 4.24,0 4.24,-1.05 4.24,-2.29 0,-0.35 0,-0.95 -0.35,-2.44 -0.1,-0.25 -0.15,-0.4 -0.15,-0.56 0,-0.24 0.2,-0.54 0.65,-0.54 0.4,0 0.55,0.25 0.75,0.99 l 2.84,11.66 c 0,0.3 -0.25,0.55 -0.6,0.55 -0.45,0 -0.55,-0.3 -0.7,-0.9 -1.05,-3.78 -1.94,-4.93 -6.52,-4.93 h -4.69 l 2.99,12.01 c 0.45,1.74 0.5,1.94 2.69,1.94 h 7.02 c 6.08,0 7.57,-1.45 7.57,-5.53 0,-1.19 0,-1.3 -0.19,-2.64 0,-0.3 -0.06,-0.65 -0.06,-0.9 0,-0.25 0.16,-0.6 0.6,-0.6 0.55,0 0.6,0.3 0.7,1.25 l 1,8.62 c 0.15,1.34 -0.1,1.34 -1.35,1.34 h -25.15 c -1,0 -1.5,0 -1.5,-0.99 0,-0.55 0.45,-0.55 1.4,-0.55 1.84,0 3.23,0 3.23,-0.9 0,-0.2 0,-0.3 -0.25,-1.19 l -6.57,-26.35 c -0.5,-1.95 -0.6,-2.35 -4.53,-2.35 -0.85,0 -1.4,0 -1.4,-0.94 0,-0.6 0.45,-0.6 1.4,-0.6 h 25.85 c 1.15,0 1.2,0.05 1.54,0.85 z"
           id="path3603"
           style="fill:#000000;stroke-width:0" /></g>    </g>
    <g
       id="g3725"
       transform="matrix(1.4613455,0,0,1.4613455,-190.29376,-621.87868)">
      <g
         word-spacing="normal"
         letter-spacing="normal"
         font-size-adjust="none"
         font-stretch="normal"
         font-weight="normal"
         font-variant="normal"
         font-style="normal"
         fill-rule="even-odd"
         stroke-miterlimit="10.433"
         xml:space="preserve"
         transform="matrix(1.8959206,0,0,-1.8959206,-331.7861,1178.3462)"
         id="g3727"
         style="font-style:normal;font-variant:normal;font-weight:normal;font-stretch:normal;letter-spacing:normal;word-spacing:normal;text-anchor:start;fill:none;stroke:#000000;stroke-linecap:butt;stroke-linejoin:miter;stroke-miterlimit:10.43299961;stroke-opacity:1;stroke-dasharray:none;stroke-dashoffset:0"><path
           id="path3729"
           d="m 491.27,417.61 0.01,0.02 0.01,0.02 0.02,0.05 0.02,0.05 0.02,0.06 0.02,0.05 0.02,0.05 0.02,0.05 0.02,0.05 0.01,0.02 0.01,0.03 0.01,0.02 0,0.02 0.01,0.03 0.01,0.02 0.01,0.02 0,0.02 0.01,0.02 0,0.01 0.01,0.02 0,0.02 0,0.01 0,0.01 0.01,0.01 0,0.01 c 0,0.06 0,0.55 -0.6,0.55 -0.45,0 -0.55,-0.3 -0.65,-0.6 -3.23,-7.37 -5.08,-10.71 -13.6,-10.71 h -7.27 c -0.7,0 -0.8,0 -1.1,0.05 -0.5,0.05 -0.64,0.11 -0.64,0.5 0,0.15 0,0.25 0.25,1.15 l 3.38,13.6 h 4.93 c 4.24,0 4.24,-1.05 4.24,-2.29 0,-0.35 0,-0.95 -0.35,-2.44 -0.1,-0.25 -0.15,-0.4 -0.15,-0.56 0,-0.24 0.2,-0.54 0.65,-0.54 0.4,0 0.55,0.25 0.75,0.99 l 2.84,11.66 c 0,0.3 -0.25,0.55 -0.6,0.55 -0.45,0 -0.55,-0.3 -0.7,-0.9 -1.05,-3.78 -1.94,-4.93 -6.52,-4.93 h -4.69 l 2.99,12.01 c 0.45,1.74 0.5,1.94 2.69,1.94 h 7.02 c 6.08,0 7.57,-1.45 7.57,-5.53 0,-1.19 0,-1.3 -0.19,-2.64 0,-0.3 -0.06,-0.65 -0.06,-0.9 0,-0.25 0.16,-0.6 0.6,-0.6 0.55,0 0.6,0.3 0.7,1.25 l 1,8.62 c 0.15,1.34 -0.1,1.34 -1.35,1.34 h -25.15 c -1,0 -1.5,0 -1.5,-0.99 0,-0.55 0.45,-0.55 1.4,-0.55 1.84,0 3.23,0 3.23,-0.9 0,-0.2 0,-0.3 -0.25,-1.19 l -6.57,-26.35 c -0.5,-1.95 -0.6,-2.35 -4.53,-2.35 -0.85,0 -1.4,0 -1.4,-0.94 0,-0.6 0.45,-0.6 1.4,-0.6 h 25.85 c 1.15,0 1.2,0.05 1.54,0.85 z"
           style="fill:#000000;stroke-width:0" /><path
           id="path3731"
           d="m 497.86,402.07 0.17,0.17 0.16,0.16 0.17,0.17 0.17,0.16 0.18,0.18 0.09,0.09 0.1,0.09 0.1,0.09 0.11,0.1 0.11,0.1 0.12,0.11 0.12,0.11 0.13,0.11 0.13,0.12 0.15,0.13 0.15,0.13 0.16,0.14 0.17,0.14 0.18,0.15 0.19,0.16 0.2,0.16 0.21,0.17 0.22,0.19 0.23,0.18 0.25,0.2 0.25,0.21 0.28,0.22 c 0.73,0.59 3.34,2.69 4.35,3.66 2.13,2.09 3.46,3.87 3.46,4.29 0,0.42 -0.46,0.42 -0.6,0.42 -0.31,0 -0.41,-0.07 -0.59,-0.35 -1.08,-1.6 -1.81,-2.13 -2.65,-2.13 -0.42,0 -0.94,0.04 -1.99,1.05 -1.18,1.18 -1.95,1.43 -2.75,1.43 -2.79,0 -4.67,-3.04 -4.67,-4.08 0,-0.32 0.35,-0.42 0.59,-0.42 0.42,0 0.49,0.1 0.63,0.49 0.52,1.22 2.47,1.29 3.03,1.29 0.8,0 1.71,-0.21 2.2,-0.32 1.92,-0.41 2.16,-0.41 3.03,-0.41 -0.9,-0.95 -1.53,-1.57 -4.85,-4.22 -2.71,-2.17 -3.66,-3.04 -4.32,-3.73 -2.09,-2.06 -3.1,-3.6 -3.1,-3.91 0,-0.42 0.45,-0.42 0.59,-0.42 0.35,0 0.42,0.07 0.59,0.35 0.94,1.32 2.03,2.13 3.21,2.13 0.42,0 0.94,-0.04 1.88,-0.91 1.08,-1.04 1.78,-1.57 2.9,-1.57 3.73,0 6.06,4.22 6.06,5.4 0,0.42 -0.38,0.46 -0.59,0.46 -0.41,0 -0.48,-0.17 -0.63,-0.56 -0.66,-1.74 -2.71,-2.58 -4.43,-2.58 -0.8,0 -1.67,0.18 -2.54,0.38 -1.6,0.35 -1.88,0.35 -2.51,0.35 -0.07,0 -0.59,0 -0.8,-0.03 z"
           style="fill:#000000;stroke-width:0" /></g>    </g>
    <path
       style="stroke-width:7;stroke:#000000;stroke-opacity:1;marker-end:url(#Arrow1Lend);stroke-miterlimit:4;stroke-dasharray:none"
       d="m 885.71429,535.71584 0,-400"
       id="path3796"
       transform="translate(-325.89672,-193.38841)" />
    <path
       style="stroke:#000000;stroke-width:7;stroke-miterlimit:4;stroke-opacity:1;stroke-dasharray:none;marker-end:url(#Arrow1Lend)"
       d="M 556.10029,343.16475 840.10627,61.490106"
       id="path3796-7" />
  </g>
</svg>
