<?xml version="1.0" encoding="UTF-8" standalone="no"?>
<!-- Created with Inkscape (http://www.inkscape.org/) -->
<svg
   xmlns:dc="http://purl.org/dc/elements/1.1/"
   xmlns:cc="http://creativecommons.org/ns#"
   xmlns:rdf="http://www.w3.org/1999/02/22-rdf-syntax-ns#"
   xmlns:svg="http://www.w3.org/2000/svg"
   xmlns="http://www.w3.org/2000/svg"
   xmlns:sodipodi="http://sodipodi.sourceforge.net/DTD/sodipodi-0.dtd"
   xmlns:inkscape="http://www.inkscape.org/namespaces/inkscape"
   width="329.23526"
   height="420.88281"
   id="svg2"
   sodipodi:version="0.32"
   inkscape:version="0.46+devel r20655"
   version="1.0"
   sodipodi:docname="c4d1.svg"
   inkscape:output_extension="org.inkscape.output.svg.inkscape">
  <defs
     id="defs4">
    <inkscape:perspective
       sodipodi:type="inkscape:persp3d"
       inkscape:vp_x="0 : 526.18109 : 1"
       inkscape:vp_y="0 : 1000 : 0"
       inkscape:vp_z="744.09448 : 526.18109 : 1"
       inkscape:persp3d-origin="372.04724 : 350.78739 : 1"
       id="perspective10" />
  </defs>
  <sodipodi:namedview
     id="base"
     pagecolor="#ffffff"
     bordercolor="#666666"
     borderopacity="1.0"
     inkscape:pageopacity="0.0"
     inkscape:pageshadow="2"
     inkscape:zoom="0.35"
     inkscape:cx="183.01174"
     inkscape:cy="-154.78517"
     inkscape:document-units="px"
     inkscape:current-layer="layer1"
     showgrid="false"
     inkscape:window-width="1280"
     inkscape:window-height="778"
     inkscape:window-x="-5"
     inkscape:window-y="-3" />
  <metadata
     id="metadata7">
    <rdf:RDF>
      <cc:Work
         rdf:about="">
        <dc:format>image/svg+xml</dc:format>
        <dc:type
           rdf:resource="http://purl.org/dc/dcmitype/StillImage" />
        <dc:title></dc:title>
      </cc:Work>
    </rdf:RDF>
  </metadata>
  <g
     inkscape:label="Layer 1"
     inkscape:groupmode="layer"
     id="layer1"
     transform="translate(-191.98826,43.305795)">
    <path
       style="fill:#000000;fill-opacity:1;fill-rule:nonzero;stroke:#000000;stroke-width:7;stroke-linecap:round;stroke-linejoin:round;stroke-miterlimit:4;stroke-opacity:1;stroke-dasharray:none;stroke-dashoffset:0"
       id="path2842"
       d="m 508.15098,178.6223 c 2.60116,4.07239 4.41416,8.52732 6.01861,13.06386 3.11099,9.49176 2.89189,19.34671 2.11467,29.16568 -1.65025,15.717 -6.78488,30.66537 -12.81399,45.16898 -8.08615,19.128 -20.43087,35.60077 -34.39893,50.76447 -19.24602,19.73998 -43.09261,33.72958 -68.06745,44.98042 -19.37584,7.79998 -39.99823,12.44253 -60.95373,12.30848 -4.20245,-0.0269 -8.39376,-0.43575 -12.59064,-0.65363 -21.2572,-2.26743 -41.67289,-9.35113 -59.73478,-20.81992 -3.71063,-2.35614 -7.19329,-5.05341 -10.78994,-7.58012 -17.93722,-14.07531 -32.63558,-31.79366 -43.14152,-52.04153 -2.1476,-4.13901 -3.93006,-8.45748 -5.8951,-12.68622 -8.97475,-22.03787 -13.34321,-45.76631 -12.24303,-69.5762 0.22229,-4.81074 0.87774,-9.59167 1.31661,-14.38751 3.60045,-24.19522 12.52904,-47.24322 26.82944,-67.1516 2.89816,-4.03467 6.17548,-7.783 9.26322,-11.67451 19.58406,-22.146509 44.93734,-37.374663 71.55714,-49.684989 4.81531,-2.226845 9.91675,-3.773936 14.87512,-5.660903 24.92893,-8.17452 51.23551,-12.179147 77.46424,-9.768851 5.02424,0.461704 9.9927,1.403787 14.98905,2.10568 23.75134,4.759025 46.16682,14.564133 64.64381,30.414844 3.47751,2.983221 6.62052,6.335572 9.93077,9.503359 14.45192,15.88762 25.14268,34.93166 29.53592,56.07459 0.77112,3.71113 1.10869,7.49928 1.66304,11.24892 0,0 -9.58312,5.05749 -9.58312,5.05749 l 0,0 c -0.5256,-3.71833 -0.8328,-7.47414 -1.5768,-11.155 -4.24114,-20.98237 -14.82759,-39.87304 -29.15957,-55.60849 -3.28666,-3.136979 -6.40672,-6.458347 -9.85999,-9.410937 -18.37669,-15.712349 -40.68068,-25.362369 -64.28542,-29.990834 -4.97334,-0.676896 -9.91995,-1.592948 -14.92003,-2.030687 -26.15964,-2.290189 -52.36711,1.824669 -77.18004,10.097469 -4.94291,1.910524 -9.85354,3.906763 -14.82874,5.731572 -1.67973,0.616094 -3.53077,0.780148 -5.1272,1.587898 -18.29586,9.257155 -34.53809,22.232753 -48.34548,37.303789 -3.09884,3.85913 -6.38541,7.57474 -9.29651,11.57738 -14.34792,19.72784 -23.35409,42.61148 -27.03354,66.67647 -0.45239,4.76654 -1.12129,9.51747 -1.35717,14.29962 -1.16697,23.65952 3.13396,47.24812 12.04047,69.15468 1.95055,4.20088 3.71779,8.49184 5.85165,12.60265 10.44003,20.11234 25.07208,37.69099 42.9309,51.62083 3.58137,2.49642 7.04986,5.16311 10.74409,7.48925 17.99718,11.3323 38.32296,18.26779 59.46627,20.39404 4.17822,0.19106 8.35207,0.57184 12.53465,0.57319 20.89833,0.007 41.43468,-4.75177 60.71097,-12.6438 3.73875,-1.71094 7.45298,-3.47651 11.21625,-5.13281 0.49709,-0.21878 1.08581,-0.21356 1.55453,-0.4879 13.44813,-7.87122 25.874,-17.39134 36.84461,-28.46596 13.97961,-15.02124 26.35129,-31.35076 34.45314,-50.36974 6.02714,-14.37394 11.15384,-29.19504 12.825,-44.78808 0.78373,-9.65515 1.05003,-19.34724 -2.01835,-28.68414 -1.58371,-4.44089 -3.36053,-8.81615 -6.00265,-12.75144 0,0 9.82955,-5.75981 9.82955,-5.75981 z" />
    <path
       style="fill:#000000;fill-opacity:1;fill-rule:nonzero;stroke:#000000;stroke-width:7;stroke-linecap:round;stroke-linejoin:round;stroke-miterlimit:4;stroke-opacity:1;stroke-dasharray:none;stroke-dashoffset:0"
       id="path2844"
       d="m 366.41066,219.06265 c -3.52079,1.75973 -7.30241,2.4818 -11.17408,2.93418 -5.02113,0.44097 -9.53612,-0.67141 -13.4476,-3.83502 -3.47878,-3.61389 -3.63178,-7.97809 -2.44705,-12.58076 3.56416,-8.29765 12.22502,-12.57001 20.32843,-15.71018 4.54236,-1.38168 8.99356,-0.78887 13.14366,1.37446 3.4248,2.3353 4.7499,5.64424 4.45006,9.6657 -0.7704,4.04673 -3.293,6.91852 -6.42799,9.38541 -6.11216,3.90482 -12.47628,9.21747 -20.04364,8.10755 -2.2079,-0.70388 -3.3199,-2.31617 -2.67363,-4.56297 0.85604,-1.36263 0.86355,-2.52113 1.77001,-0.44936 -1.75697,1.05466 -1.72468,-1.3201 -1.42062,-2.44152 2.32067,-5.08272 5.4874,-9.7405 8.57534,-14.37954 6.5415,-9.56217 13.8509,-18.56568 21.37765,-27.36166 7.94896,-9.16634 16.41242,-17.86637 25.08695,-26.34288 5.67314,-5.45692 11.50804,-10.73876 17.12973,-16.24927 3.21221,-3.19852 6.46025,-6.36175 9.7381,-9.49304 2.68593,-2.58567 5.34914,-5.19468 8.02758,-7.78808 2.59187,-2.48993 5.10854,-5.05105 7.54405,-7.69377 1.16437,-1.20364 2.24168,-2.438379 3.06628,-3.896367 0,0 10.35449,-4.695015 10.35449,-4.695015 l 0,0 c -0.69512,1.637159 -1.66995,2.965317 -2.95882,4.204774 -2.43203,2.665335 -4.93171,5.260848 -7.52761,7.766688 -2.70918,2.56529 -5.34009,5.21227 -8.03007,7.79756 -3.32365,3.10289 -6.55157,6.30908 -9.7968,9.49342 -5.641,5.54866 -11.51014,10.85026 -17.24408,16.30161 -8.70763,8.44809 -17.20411,17.12156 -25.17685,26.27268 -7.51682,8.7312 -14.79578,17.68755 -21.32365,27.1911 -3.04103,4.55627 -6.04111,9.15017 -8.54188,14.03217 -0.65575,1.621 -1.18315,0.67716 0.019,0.12673 1.32004,1.55905 0.79842,1.48965 -0.31394,2.86119 -1.05046,1.54312 -0.15129,2.39124 1.57707,2.72675 1.61965,0.099 3.05547,0.002 4.62961,-0.46497 0.61667,-0.1829 2.3494,-1.01179 1.81613,-0.65213 -2.36556,1.59541 -11.87199,7.03436 -6.1853,3.77132 3.11986,-2.20671 5.77067,-4.70696 6.79689,-8.53199 0.53177,-3.58455 -0.58582,-6.48883 -3.75282,-8.47288 -4.05316,-1.89166 -8.30675,-2.1777 -12.55578,-0.60781 -3.4925,1.55837 -7.83132,3.59956 5.14186,-3.3897 0.74489,-0.40132 -1.40018,0.95667 -2.04093,1.50927 -1.16633,1.00588 -2.40099,2.41158 -3.2416,3.70738 -0.41976,0.64707 -0.73494,1.35626 -1.10241,2.0344 -1.29333,4.12738 -1.45644,8.122 1.80761,11.40683 3.80308,2.88559 8.20885,3.64806 12.92989,3.10133 3.83525,-0.54696 7.57148,-1.44952 11.01543,-3.29165 0,0 -8.89863,7.11806 -8.89863,7.11806 z" />
    <path
       style="fill:#000000;fill-opacity:1;fill-rule:nonzero;stroke:#000000;stroke-width:7;stroke-linecap:round;stroke-linejoin:round;stroke-miterlimit:4;stroke-opacity:1;stroke-dasharray:none;stroke-dashoffset:0"
       id="path2846"
       d="m 359.64694,96.579603 c 1.50541,4.785057 1.99642,9.765017 2.36875,14.740647 0.40652,6.59467 -0.3109,13.14754 -1.55739,19.61233 -0.88453,4.51 -2.05886,8.92232 -4.79057,12.67299 -9.76693,9.86953 -14.04432,7.58879 -15.50856,-1.57 -0.47595,-7.16047 1.73712,-14.02911 4.19799,-20.64829 2.99695,-7.71568 7.36747,-14.71394 12.50214,-21.16464 6.38016,-7.543969 14.60253,-13.46243 23.97087,-16.856379 4.17213,-1.064761 7.63553,0.155544 10.04226,3.665226 2.20398,4.305035 0.9361,8.444863 -1.03276,12.53435 -3.06408,5.484933 -7.89168,9.546803 -12.85107,13.252913 -4.65589,3.45173 -9.67714,6.35402 -14.62842,9.35016 -1.12873,0.91008 -5.04252,2.26711 -3.23224,4.04882 3.36402,2.10771 7.02351,3.69337 10.54259,5.52221 4.89631,2.38315 9.51521,5.27031 14.05611,8.26203 1.65694,1.04714 3.12121,2.33375 4.55067,3.6624 0,0 -9.65042,5.96401 -9.65042,5.96401 l 0,0 c -1.38567,-1.28156 -2.80851,-2.51717 -4.41068,-3.52968 -4.51098,-2.97194 -9.11582,-5.80952 -13.98594,-8.16349 -3.64349,-1.85902 -7.50579,-3.41644 -10.83055,-5.81994 -2.34094,-2.7655 -0.2038,-4.34322 2.40985,-5.87153 4.9615,-3.00117 10.02063,-5.86259 14.7163,-9.27787 4.95686,-3.55721 9.79284,-7.47841 13.02102,-12.74755 1.93344,-3.65829 3.52318,-7.418918 1.55074,-11.435291 -2.22773,-3.172748 -5.56738,-3.621867 -9.15432,-2.432012 -3.74125,1.622914 -6.55233,2.946669 5.16512,-3.366439 0.87045,-0.468982 -1.65461,1.085044 -2.4482,1.674833 -2.78644,2.070856 -5.23254,4.515982 -7.47669,7.159475 -5.2014,6.315294 -9.6102,13.211314 -12.65464,20.839934 -2.4652,6.43211 -4.70252,13.10797 -4.37602,20.09559 0.25557,1.82858 0.41515,3.94954 1.67375,5.4465 0.27902,0.33187 1.35507,0.51416 1.02724,0.79792 -2.30615,1.99614 -12.23094,8.25163 -7.62033,5.06526 3.02694,-3.44685 4.16804,-7.7994 5.08904,-12.21504 1.30281,-6.36786 2.06585,-12.82642 1.69306,-19.34006 -0.35799,-4.8864 -0.80927,-9.78356 -2.33303,-14.47175 0,0 9.96433,-5.457637 9.96433,-5.457637 z" />
    <path
       style="fill:#000000;fill-opacity:1;fill-rule:nonzero;stroke:#000000;stroke-width:7;stroke-linecap:round;stroke-linejoin:round;stroke-miterlimit:4;stroke-opacity:1;stroke-dasharray:none;stroke-dashoffset:0"
       id="path2848"
       d="m 271.41696,33.358707 c -5.02637,1.328277 -10.17366,2.10287 -15.34237,2.59153 -7.19695,0.819749 -14.20821,-0.0762 -21.04024,-2.349283 -7.06065,-2.764066 -11.37992,-7.87034 -13.8014,-14.882009 -1.93575,-9.0440719 1.26862,-17.5801539 5.23504,-25.5747056 5.20079,-9.6370694 13.18663,-16.7167824 22.38042,-22.3857804 12.57992,-8.1772 24.20155,-12.416218 38.86968,-9.787919 9.18419,2.133096 15.76808,7.703481 20.59176,15.574788 4.32973,8.247431 3.87255,16.985412 1.9603,25.7970288 -2.08818,8.3000592 -6.38478,15.5319612 -11.71754,22.1161982 -6.20484,6.611574 -14.31497,12.632193 -23.12301,15.031986 -0.61203,0.087 -1.22406,0.174011 -1.83609,0.261016 0,0 9.05195,-6.819859 9.05195,-6.819859 l 0,0 c 0.57998,-0.122079 1.15996,-0.244157 1.73994,-0.366235 4.81563,-1.666081 1.97082,-0.830135 -5.66217,3.90389 -0.73701,0.457097 1.54194,-0.80053 2.26809,-1.274685 2.68981,-1.756362 5.04074,-4.005287 7.22618,-6.339349 5.397,-6.413464 9.79077,-13.46253 11.96651,-21.6521638 1.99023,-8.5189598 2.61325,-16.9957867 -1.56272,-25.0297882 -4.68131,-7.626514 -11.12695,-12.875662 -20.05749,-14.781846 -6.57567,-1.029278 -12.71493,-1.054925 -19.17621,0.839836 -1.65916,0.486548 -4.72373,3.467792 -4.88433,1.746234 -0.17779,-1.905932 3.16371,-2.155856 4.74556,-3.233783 -9.23794,5.437314 -17.2939,12.321141 -22.60617,21.803227 -3.96927,7.6826919 -7.26363,15.9414915 -5.56218,24.73999 2.26027,6.732368 6.44695,11.487155 13.2506,13.993243 6.77118,2.116951 13.70653,2.82917 20.78189,1.961213 5.15593,-0.568906 10.30624,-1.361527 15.29189,-2.831984 0,0 -8.98789,6.94921 -8.98789,6.94921 z" />
    <path
       style="fill:#000000;fill-opacity:1;fill-rule:nonzero;stroke:#000000;stroke-width:7;stroke-linecap:round;stroke-linejoin:round;stroke-miterlimit:4;stroke-opacity:1;stroke-dasharray:none;stroke-dashoffset:0"
       id="path2850"
       d="m 268.17631,0.60279279 c 4.01362,0.94486681 7.63852,2.92917171 11.14435,5.03126951 5.26603,3.3200309 9.90683,7.5157797 14.32728,11.8711507 3.84914,3.717808 7.35592,7.766512 10.75775,11.89124 1.82157,1.744886 2.84269,4.348805 4.83572,5.91195 0,0 -9.67855,6.013138 -9.67855,6.013138 l 0,0 c -1.86911,-1.810551 -3.10016,-4.196849 -4.86413,-6.107012 -3.3547,-4.108805 -6.82677,-8.130984 -10.64999,-11.815461 -4.37202,-4.285935 -8.96143,-8.415931 -14.20054,-11.62655 -3.43775,-1.9972133 -7.01466,-3.9339707 -10.9835,-4.6042714 0,0 9.31161,-6.56545381 9.31161,-6.56545381 z" />
  </g>
</svg>
