<?xml version="1.0" encoding="UTF-8" standalone="no"?>
<!-- Created with Inkscape (http://www.inkscape.org/) -->
<svg
   xmlns:dc="http://purl.org/dc/elements/1.1/"
   xmlns:cc="http://creativecommons.org/ns#"
   xmlns:rdf="http://www.w3.org/1999/02/22-rdf-syntax-ns#"
   xmlns:svg="http://www.w3.org/2000/svg"
   xmlns="http://www.w3.org/2000/svg"
   xmlns:sodipodi="http://sodipodi.sourceforge.net/DTD/sodipodi-0.dtd"
   xmlns:inkscape="http://www.inkscape.org/namespaces/inkscape"
   width="1037.76"
   height="351.0943"
   id="svg2"
   sodipodi:version="0.32"
   inkscape:version="0.46+devel r20655"
   version="1.0"
   sodipodi:docname="c6d2.svg"
   inkscape:output_extension="org.inkscape.output.svg.inkscape">
  <sodipodi:namedview
     id="base"
     pagecolor="#ffffff"
     bordercolor="#666666"
     borderopacity="1.0"
     inkscape:pageopacity="0.0"
     inkscape:pageshadow="2"
     inkscape:zoom="0.35"
     inkscape:cx="119.59428"
     inkscape:cy="360.02286"
     inkscape:document-units="px"
     inkscape:current-layer="layer1"
     showgrid="false"
     inkscape:window-width="1280"
     inkscape:window-height="712"
     inkscape:window-x="-5"
     inkscape:window-y="-3" />
  <defs
     id="defs4">
    <marker
       orient="auto"
       refY="0"
       refX="0"
       id="InfiniteLineStart"
       inkscape:stockid="InfiniteLineStart"
       style="overflow:visible">
      <g
         transform="translate(-13,0)"
         id="g3872">
        <circle
           sodipodi:ry="0.80000001"
           sodipodi:rx="0.80000001"
           sodipodi:cy="0"
           sodipodi:cx="3"
           cx="3"
           cy="0"
           r="0.80000001"
           id="circle3874"
           d="M 3.8,0 C 3.8,0.44160001 3.4416,0.80000001 3,0.80000001 2.5584,0.80000001 2.2,0.44160001 2.2,0 c 0,-0.44160001 0.3584,-0.80000001 0.8,-0.80000001 0.4416,0 0.8,0.3584 0.8,0.80000001 z" />
        <circle
           sodipodi:ry="0.80000001"
           sodipodi:rx="0.80000001"
           sodipodi:cy="0"
           sodipodi:cx="6.5"
           cx="6.5"
           cy="0"
           r="0.80000001"
           id="circle3876"
           d="m 7.3,0 c 0,0.44160001 -0.3584,0.80000001 -0.8,0.80000001 -0.4416,0 -0.8,-0.3584 -0.8,-0.80000001 0,-0.44160001 0.3584,-0.80000001 0.8,-0.80000001 0.4416,0 0.8,0.3584 0.8,0.80000001 z" />
        <circle
           sodipodi:ry="0.80000001"
           sodipodi:rx="0.80000001"
           sodipodi:cy="0"
           sodipodi:cx="10"
           cx="10"
           cy="0"
           r="0.80000001"
           id="circle3878"
           d="m 10.8,0 c 0,0.44160001 -0.3584,0.80000001 -0.8,0.80000001 -0.4416,0 -0.8,-0.3584 -0.8,-0.80000001 0,-0.44160001 0.3584,-0.80000001 0.8,-0.80000001 0.4416,0 0.8,0.3584 0.8,0.80000001 z" />
      </g>
    </marker>
    <marker
       orient="auto"
       refY="0"
       refX="0"
       id="InfiniteLineEnd"
       inkscape:stockid="InfiniteLineEnd"
       style="overflow:visible">
      <g
         id="g3863">
        <circle
           sodipodi:ry="0.80000001"
           sodipodi:rx="0.80000001"
           sodipodi:cy="0"
           sodipodi:cx="3"
           cx="3"
           cy="0"
           r="0.80000001"
           id="circle3865" />
        <circle
           sodipodi:ry="0.80000001"
           sodipodi:rx="0.80000001"
           sodipodi:cy="0"
           sodipodi:cx="6.5"
           cx="6.5"
           cy="0"
           r="0.80000001"
           id="circle3867" />
        <circle
           sodipodi:ry="0.80000001"
           sodipodi:rx="0.80000001"
           sodipodi:cy="0"
           sodipodi:cx="10"
           cx="10"
           cy="0"
           r="0.80000001"
           id="circle3869" />
      </g>
    </marker>
    <inkscape:perspective
       id="perspective10"
       inkscape:persp3d-origin="372.04724 : 350.78739 : 1"
       inkscape:vp_z="744.09448 : 526.18109 : 1"
       inkscape:vp_y="0 : 1000 : 0"
       inkscape:vp_x="0 : 526.18109 : 1"
       sodipodi:type="inkscape:persp3d" />
    <inkscape:perspective
       sodipodi:type="inkscape:persp3d"
       inkscape:vp_x="0 : 0.5 : 1"
       inkscape:vp_y="0 : 1000 : 0"
       inkscape:vp_z="1 : 0.5 : 1"
       inkscape:persp3d-origin="0.5 : 0.33333333 : 1"
       id="perspective4306" />
    <inkscape:perspective
       sodipodi:type="inkscape:persp3d"
       inkscape:vp_x="0 : 0.5 : 1"
       inkscape:vp_y="0 : 1000 : 0"
       inkscape:vp_z="1 : 0.5 : 1"
       inkscape:persp3d-origin="0.5 : 0.33333333 : 1"
       id="perspective4328" />
    <inkscape:perspective
       sodipodi:type="inkscape:persp3d"
       inkscape:vp_x="0 : 0.5 : 1"
       inkscape:vp_y="0 : 1000 : 0"
       inkscape:vp_z="1 : 0.5 : 1"
       inkscape:persp3d-origin="0.5 : 0.33333333 : 1"
       id="perspective4350" />
  </defs>
  <metadata
     id="metadata7">
    <rdf:RDF>
      <cc:Work
         rdf:about="">
        <dc:format>image/svg+xml</dc:format>
        <dc:type
           rdf:resource="http://purl.org/dc/dcmitype/StillImage" />
        <dc:title />
      </cc:Work>
    </rdf:RDF>
  </metadata>
  <g
     transform="translate(318.88,-541.29075)"
     id="layer1"
     inkscape:groupmode="layer"
     inkscape:label="Layer 1">
    <path
       transform="translate(22.857143,77.142858)"
       d="m 194.28572,496.64789 c 0,16.56 -13.44,30 -30,30 -16.56,0 -30,-13.44 -30,-30 0,-16.56 13.44,-30 30,-30 16.56,0 30,13.44 30,30 z"
       sodipodi:ry="30"
       sodipodi:rx="30"
       sodipodi:cy="496.64789"
       sodipodi:cx="164.28572"
       id="path2846"
       style="fill:#000000;fill-opacity:1;stroke:#000000;stroke-width:5;stroke-linecap:round;stroke-linejoin:round;stroke-miterlimit:4;stroke-opacity:1;stroke-dasharray:none;stroke-dashoffset:0"
       sodipodi:type="arc" />
    <path
       sodipodi:nodetypes="cc"
       id="path3622"
       d="m -208.57143,849.50504 820,0"
       style="stroke:#000000;stroke-width:10;stroke-miterlimit:4;stroke-opacity:1;stroke-dasharray:none;marker-start:url(#InfiniteLineStart);marker-end:url(#InfiniteLineEnd)" />
    <path
       sodipodi:nodetypes="cc"
       transform="translate(-318.88,541.29075)"
       id="path4296"
       d="m 508.57143,22.522871 c -188.76613,0 -384.60985,30.894632 -376.03842,288.037489"
       style="stroke-width:4;stroke:#000000;stroke-opacity:1;fill:none;stroke-miterlimit:4;stroke-dasharray:none" />
    <path
       sodipodi:nodetypes="cc"
       id="path4296-5"
       d="m 189.16965,566.04307 c -136.038657,0 -277.177942,30.95907 -271.000744,288.63825"
       style="fill:none;stroke:#000000;stroke-width:3.39923787;stroke-miterlimit:4;stroke-opacity:1;stroke-dasharray:none" />
    <path
       sodipodi:nodetypes="cc"
       id="path4296-5-8"
       d="m 189.68043,565.53229 c -66.32373,0 -135.134204,31.06864 -132.122597,289.65981"
       style="fill:none;stroke:#000000;stroke-width:2.37767267;stroke-miterlimit:4;stroke-opacity:1;stroke-dasharray:none" />
    <path
       sodipodi:nodetypes="cc"
       id="path4296-1"
       d="m 193.38147,563.81362 c 188.76613,0 384.60985,30.89463 376.03842,288.03749"
       style="fill:none;stroke:#000000;stroke-width:4;stroke-miterlimit:4;stroke-opacity:1;stroke-dasharray:none" />
    <path
       sodipodi:nodetypes="cc"
       id="path4296-5-7"
       d="m 193.90325,566.04307 c 136.03866,0 277.17794,30.95907 271.00074,288.63825"
       style="fill:none;stroke:#000000;stroke-width:3.39923787;stroke-miterlimit:4;stroke-opacity:1;stroke-dasharray:none" />
    <path
       sodipodi:nodetypes="cc"
       id="path4296-5-8-2"
       d="m 193.39247,565.53229 c 66.32373,0 135.1342,31.06864 132.1226,289.65981"
       style="fill:none;stroke:#000000;stroke-width:2.37767267;stroke-miterlimit:4;stroke-opacity:1;stroke-dasharray:none" />
    <g
       id="g4397"
       transform="matrix(4.0568207,0,0,4.0568207,-353.87717,-1682.9491)">
      <g
         word-spacing="normal"
         letter-spacing="normal"
         font-size-adjust="none"
         font-stretch="normal"
         font-weight="normal"
         font-variant="normal"
         font-style="normal"
         fill-rule="even-odd"
         stroke-miterlimit="10.433"
         xml:space="preserve"
         transform="matrix(0.50156329,0,0,-0.50156329,-87.773575,778.32)"
         id="content"
         style="font-style:normal;font-variant:normal;font-weight:normal;font-stretch:normal;letter-spacing:normal;word-spacing:normal;text-anchor:start;fill:none;stroke:#000000;stroke-linecap:butt;stroke-linejoin:miter;stroke-miterlimit:10.43299961;stroke-opacity:1;stroke-dasharray:none;stroke-dashoffset:0"><path
           id="path4400"
           d="m 478.52,427.47 0,0.02 -0.01,0.02 0,0.02 0,0.02 -0.01,0.02 0,0.02 -0.01,0.02 0,0.02 -0.01,0.02 -0.01,0.02 -0.01,0.02 -0.01,0.02 -0.01,0.03 -0.01,0.02 -0.02,0.01 -0.01,0.02 -0.02,0.02 -0.01,0.02 -0.02,0.02 -0.02,0.01 -0.02,0.02 -0.02,0.01 -0.02,0.02 -0.03,0.01 -0.02,0.01 -0.03,0.01 -0.02,0.01 -0.03,0.01 -0.03,0 -0.03,0.01 -0.03,0 -0.02,0 -0.01,0 c -0.55,0 -2.54,-1.99 -3.39,-3.44 -1.09,2.69 -3.04,3.49 -4.63,3.49 v -1.1 c 3.23,0 3.93,-4.03 3.93,-4.38 0,-0.3 -2.74,-11.21 -2.89,-11.41 -0.74,-1.4 -3.53,-4.58 -6.32,-4.58 h 0 c -2.99,0 -3.19,3.83 -3.19,4.68 0,2.39 1.44,7.82 2.29,9.91 1.54,3.69 4.14,5.78 6.18,5.78 v 1.1 c -5.88,0 -12.01,-7.38 -12.01,-14.6 0,-4.88 2.94,-7.97 6.58,-7.97 2.14,0 4.08,1.2 5.88,2.99 -0.45,-1.74 -2.09,-8.47 -2.25,-8.92 -0.4,-1.39 -0.79,-1.59 -3.58,-1.64 -0.65,0 -1.15,0 -1.15,-1 0,-0.04 0,-0.54 0.65,-0.54 h 10.11 c 0.25,0 0.9,0 0.9,0.99 0,0.55 -0.5,0.55 -1.3,0.55 -2.39,0 -2.39,0.35 -2.39,0.8 0,0.35 0.1,0.64 0.2,1.09 z"
           style="fill:#000000;stroke-width:0" /></g>    </g>
    <path
       style="stroke-width:3;stroke:#000000;stroke-opacity:1;stroke-miterlimit:4;stroke-dasharray:none"
       d="m 508.57143,28.237156 0,280.000004"
       id="path4430"
       transform="translate(-318.88,541.29075)" />
  </g>
</svg>
