<?xml version="1.0" encoding="UTF-8" standalone="no"?>
<!-- Created with Inkscape (http://www.inkscape.org/) -->
<svg
   xmlns:dc="http://purl.org/dc/elements/1.1/"
   xmlns:cc="http://creativecommons.org/ns#"
   xmlns:rdf="http://www.w3.org/1999/02/22-rdf-syntax-ns#"
   xmlns:svg="http://www.w3.org/2000/svg"
   xmlns="http://www.w3.org/2000/svg"
   xmlns:sodipodi="http://sodipodi.sourceforge.net/DTD/sodipodi-0.dtd"
   xmlns:inkscape="http://www.inkscape.org/namespaces/inkscape"
   width="1306.6851"
   height="493.69031"
   id="svg2"
   sodipodi:version="0.32"
   inkscape:version="0.46+devel r20655"
   version="1.0"
   sodipodi:docname="c8d3.svg"
   inkscape:output_extension="org.inkscape.output.svg.inkscape">
  <defs
     id="defs4">
    <inkscape:perspective
       sodipodi:type="inkscape:persp3d"
       inkscape:vp_x="0 : 526.18109 : 1"
       inkscape:vp_y="0 : 1000 : 0"
       inkscape:vp_z="744.09448 : 526.18109 : 1"
       inkscape:persp3d-origin="372.04724 : 350.78739 : 1"
       id="perspective10" />
  </defs>
  <sodipodi:namedview
     id="base"
     pagecolor="#ffffff"
     bordercolor="#666666"
     borderopacity="1.0"
     inkscape:pageopacity="0.0"
     inkscape:pageshadow="2"
     inkscape:zoom="0.35"
     inkscape:cx="657.1023"
     inkscape:cy="200.15533"
     inkscape:document-units="px"
     inkscape:current-layer="layer1"
     showgrid="false"
     inkscape:window-width="1280"
     inkscape:window-height="712"
     inkscape:window-x="-5"
     inkscape:window-y="-3" />
  <metadata
     id="metadata7">
    <rdf:RDF>
      <cc:Work
         rdf:about="">
        <dc:format>image/svg+xml</dc:format>
        <dc:type
           rdf:resource="http://purl.org/dc/dcmitype/StillImage" />
        <dc:title></dc:title>
      </cc:Work>
    </rdf:RDF>
  </metadata>
  <g
     inkscape:label="Layer 1"
     inkscape:groupmode="layer"
     id="layer1"
     transform="translate(282.1023,-238.82721)">
    <path
       style="fill:#000000;stroke:#000000;stroke-width:3;stroke-linecap:round;stroke-linejoin:round;stroke-miterlimit:4;stroke-opacity:1;stroke-dasharray:none;stroke-dashoffset:0;fill-opacity:1"
       id="path2842"
       d="m -271.31325,520.68528 c 10.05561,1.2209 20.18804,1.62798 30.30137,2.05526 19.07986,0.91286 38.16934,-0.13451 57.19024,-1.60715 23.14958,-1.91542 46.20701,-4.79977 69.23394,-7.82299 22.088875,-2.86528 44.171219,-5.78901 66.333743,-8.02945 17.666372,-1.50004 35.351737,-2.81346 53.0460127,-3.94614 12.1749073,-0.58688 24.3097613,-1.77056 36.4505803,-2.8209 6.26795,-0.68259 12.471796,-1.85305 18.635635,-3.16172 4.289078,-1.61838 3.778108,-1.50888 -7.17713,4.26653 -0.593523,0.3129 1.067667,-0.90125 1.312787,-1.52583 0.359969,-0.91721 0.28599,-1.81306 0.319315,-2.78246 -0.512451,-6.81637 0.257894,-13.6181 0.914333,-20.39429 0.906658,-11.2829 2.823409,-22.4412 4.684027,-33.59514 1.416603,-7.86677 2.374978,-15.80766 3.704867,-23.68761 0.903732,-4.09516 0.619319,-3.93403 10.479244,-4.13128 1.033342,-0.0207 0.05762,2.06704 0.03826,3.10041 -0.105567,5.63274 -0.590299,11.27472 -0.939283,16.89476 -1.291658,19.71149 -2.634476,39.42182 -4.050787,59.12519 -1.588705,20.53115 -2.956158,41.0775 -3.937799,61.64668 -0.721477,11.29368 -0.34857,22.63067 -1.160418,33.91611 -0.710117,6.36284 -0.600919,7.73371 -11.342571,7.38289 -1.029343,-0.0336 -0.106034,-2.05705 -0.159051,-3.08558 0,0 10.017546,-5.16447 10.017546,-5.16447 l 0,0 c 0.04286,0.982 0.804248,2.23211 0.128575,2.94598 -13.898536,14.68426 -9.429166,8.69387 -8.708726,2.9474 1.013494,-11.30633 0.637417,-22.68746 1.427588,-34.01121 1.050586,-20.59385 2.473777,-41.16453 4.040965,-61.72525 1.394731,-19.66138 2.691903,-39.33294 3.85066,-59.00905 0.304989,-5.56345 0.746274,-11.15477 0.802502,-16.72943 0.01015,-1.00625 -0.791469,-2.31302 -0.0734,-3.01802 2.885703,-2.83323 6.617776,-4.65841 10.057718,-6.78473 0.224734,-0.13892 -0.187112,0.49416 -0.280668,0.74124 -1.598757,7.86598 -2.40906,15.87737 -3.906165,23.76309 -1.864646,11.11845 -3.792622,22.24271 -4.659821,33.49513 -0.62821,6.72021 -1.439061,13.48102 -0.821966,20.23462 0.169173,7.75154 -4.986506,9.68863 -13.583754,12.02539 -6.154724,1.23824 -12.340898,2.36978 -18.595999,2.96492 -12.106705,1.01497 -24.2083965,2.14485 -36.3469232,2.71459 -17.6473938,1.10939 -35.2875058,2.38451 -52.9048938,3.89304 -22.133981,2.24668 -44.191393,5.15099 -66.253303,8.00921 -23.05456,3.01403 -46.13767,5.90157 -69.31425,7.81056 -19.09628,1.46321 -38.25634,2.4994 -57.41125,1.60832 -10.22191,-0.41034 -20.45956,-0.80728 -30.6308,-1.95907 0,0 9.28906,-6.54955 9.28906,-6.54955 z" />
    <path
       style="fill:#000000;stroke:#000000;stroke-width:3;stroke-linecap:round;stroke-linejoin:round;stroke-miterlimit:4;stroke-opacity:1;stroke-dasharray:none;stroke-dashoffset:0;fill-opacity:1"
       id="path2844"
       d="m 170.64462,428.18223 c -1.26257,10.67415 -2.32194,21.37271 -3.50422,32.0565 -1.97834,16.49233 -3.45428,33.03519 -4.54889,49.60788 -0.74421,11.57988 -1.03456,23.18073 -1.03383,34.78248 -0.12353,5.61894 0.55342,11.24528 0.002,16.84798 -1.0811,7.1485 -2.62206,5.04345 -12.00311,8.17667 -0.30109,-2.48609 -0.26608,-1.1943 -0.0487,-3.87646 0,0 10.14544,-5.03154 10.14544,-5.03154 l 0,0 c -0.334,2.38713 -0.30632,1.23958 -0.14739,3.4405 -15.32936,9.90784 -9.24375,8.57452 -8.09973,2.31993 0.72537,-5.5733 -0.002,-11.19491 0.17768,-16.79754 0.0456,-11.64998 0.37914,-23.29702 1.15232,-34.92338 1.13191,-16.58304 2.59888,-33.13957 4.5313,-49.65006 1.13866,-10.63746 2.18884,-21.28531 3.17799,-31.93718 0,0 10.19926,-5.01578 10.19926,-5.01578 z" />
    <path
       style="fill:#000000;stroke:#000000;stroke-width:3;stroke-linecap:round;stroke-linejoin:round;stroke-miterlimit:4;stroke-opacity:1;stroke-dasharray:none;stroke-dashoffset:0;fill-opacity:1"
       id="path2852"
       d="m 165.50615,508.53504 c 6.13208,-1.91654 12.475,-2.95844 18.81631,-3.88903 8.90838,-1.20497 17.89694,-1.53225 26.87414,-1.70724 9.39982,-0.1956 18.80011,0.19878 28.1975,-0.0422 9.93046,-0.55472 19.87136,-1.05956 29.78048,-1.9231 11.18595,-0.94666 22.32111,-2.32946 33.46708,-3.6443 12.5078,-1.36799 24.98982,-2.96929 37.45488,-4.68212 12.55063,-2.08966 25.12119,-4.04901 37.69787,-5.97471 11.66993,-1.61503 23.37574,-2.96173 35.07025,-4.39131 8.58697,-1.10759 17.21468,-1.78045 25.86345,-2.11931 5.58455,-1.9e-4 11.11763,-0.83277 16.63299,-1.61479 2.47284,-0.3691 4.95164,-0.70729 7.41288,-1.1497 4.89768,-0.78253 -7.12579,7.04271 -11.61245,6.22185 0,0 9.28845,-6.52102 9.28845,-6.52102 l 0,0 c 5.57028,0.80046 -2.75694,6.16357 -6.78741,7.15195 -2.44984,0.37672 -4.90347,0.72836 -7.35824,1.0714 -5.51742,0.76179 -11.05528,1.4813 -16.63678,1.4792 -8.60802,0.35776 -17.19434,1.05324 -25.74269,2.14302 -11.67386,1.42422 -23.36492,2.72277 -35.00714,4.38685 -12.57586,1.93417 -25.14431,3.90967 -37.70233,5.95598 -12.47749,1.70937 -24.97247,3.29995 -37.49046,4.68367 -11.16002,1.33663 -22.31654,2.68207 -33.51803,3.63591 -9.93088,0.82659 -19.88643,1.39471 -29.83928,1.88001 -9.40047,0.1861 -18.80258,-0.16005 -28.20429,0.0452 -8.9596,0.20743 -17.93182,0.56495 -26.81419,1.84121 -6.35382,0.97947 -12.71391,2.08186 -18.82373,4.13964 0,0 8.98074,-6.9771 8.98074,-6.9771 z" />
    <path
       style="fill:#000000;stroke:#000000;stroke-width:3;stroke-linecap:round;stroke-linejoin:round;stroke-miterlimit:4;stroke-opacity:1;stroke-dasharray:none;stroke-dashoffset:0;fill-opacity:1"
       id="path2854"
       d="m 470.64462,396.75365 c -1.10695,9.69344 -2.42718,19.35964 -3.76242,29.02444 -2.60792,17.71799 -5.40613,35.40698 -8.06797,53.11681 -2.78578,19.74 -6.15197,39.38405 -9.44329,59.04337 -2.44675,13.74296 -4.93548,27.47923 -6.93385,41.29599 -0.13025,0.74208 -1.29403,11.05739 -1.40584,11.1021 -3.33838,1.33489 -6.778,2.40117 -10.16699,3.60175 0,0 10.13636,-5.11781 10.13636,-5.11781 l 0,0 c -16.0049,9.9833 -10.57277,9.71821 -9.76556,4.64304 0.49015,-3.0817 0.55243,-6.23792 1.17401,-9.30348 2.08993,-13.85418 4.64597,-27.63022 7.13151,-41.41754 3.32609,-19.65446 6.73525,-39.29191 9.48039,-59.03935 2.63335,-17.6817 5.39343,-35.34433 7.94271,-53.03856 1.28214,-9.61684 2.61321,-19.22996 3.48168,-28.89497 0,0 10.19926,-5.01579 10.19926,-5.01579 z" />
    <path
       style="fill:#000000;stroke:#000000;stroke-width:3;stroke-linecap:round;stroke-linejoin:round;stroke-miterlimit:4;stroke-opacity:1;stroke-dasharray:none;stroke-dashoffset:0;fill-opacity:1"
       id="path2856"
       d="m 522.33932,408.21869 c 1.28129,10.66721 0.7949,21.42269 0.29197,32.12105 -0.88855,17.07957 -2.71543,34.09479 -4.73152,51.07269 -1.76535,15.23866 -3.48507,30.48566 -5.6518,45.67363 -1.59227,9.71117 -2.72933,19.4967 -4.65258,29.15034 -0.79849,3.74792 -1.58102,7.50453 -2.60555,11.19888 -0.5825,1.97083 0.12199,-0.44863 -0.19375,0.71256 0,0 -10.40385,4.70353 -10.40385,4.70353 l 0,0 c 0.0434,-0.0408 0.0869,-0.0816 0.13031,-0.12235 0.0583,-0.14093 0.11663,-0.28186 0.17494,-0.42279 1.18539,-3.65125 1.9186,-7.43376 2.77904,-11.16893 2.0303,-9.64804 3.20761,-19.44276 4.82894,-29.16462 2.24524,-15.18736 3.97485,-30.44546 5.75417,-45.69292 2.03551,-16.94303 3.86973,-33.92637 4.71794,-50.97623 0.47668,-10.5919 0.97255,-21.26128 -0.4926,-31.80339 0,0 10.05434,-5.28145 10.05434,-5.28145 z" />
    <path
       style="fill:#000000;stroke:#000000;stroke-width:3;stroke-linecap:round;stroke-linejoin:round;stroke-miterlimit:4;stroke-opacity:1;stroke-dasharray:none;stroke-dashoffset:0;fill-opacity:1"
       id="path2858"
       d="m 505.9121,481.14848 c 7.15317,3.10807 14.81201,4.6357 22.45278,5.97296 13.39479,2.05819 26.96494,2.37559 40.48847,2.63222 19.9057,0.43627 39.79873,-0.21157 59.68723,-0.95457 26.45094,-1.24832 52.86204,-3.15871 79.28303,-4.90066 29.53604,-1.89606 59.07228,-3.72474 88.64156,-5.01873 28.60719,-1.21553 57.23994,-1.5428 85.86919,-1.67821 24.47731,0.14674 48.93997,1.05474 73.36629,2.60214 16.42738,1.11717 32.86016,2.62249 49.14475,5.09095 6.1268,0.50228 11.9301,2.74745 17.9049,3.90247 0.1108,-0.0179 0.2216,-0.0357 0.3324,-0.0536 0,0 -9.2818,6.63476 -9.2818,6.63476 l 0,0 c -0.1339,-0.0368 -0.2678,-0.0736 -0.4017,-0.11041 -5.8184,-1.59577 -11.6412,-3.17574 -17.6431,-3.97705 -16.19678,-2.47791 -32.53258,-4.05682 -48.87652,-5.16366 -24.37247,-1.56412 -48.78314,-2.48634 -73.20787,-2.62579 -28.60222,0.12477 -57.20779,0.45355 -85.78781,1.6709 -29.57648,1.30782 -59.1196,3.15395 -88.66261,5.06362 -26.4655,1.76414 -52.92159,3.69198 -79.41739,4.96162 -19.94913,0.76894 -39.90375,1.42052 -59.87125,1.01188 -13.59736,-0.25393 -27.2424,-0.57493 -40.70464,-2.69047 -7.74793,-1.37979 -15.48962,-2.98493 -22.76996,-6.07003 0,0 9.45405,-6.30033 9.45405,-6.30033 z" />
    <path
       style="fill:#000000;stroke:#000000;stroke-width:3;stroke-linecap:round;stroke-linejoin:round;stroke-miterlimit:4;stroke-opacity:1;stroke-dasharray:none;stroke-dashoffset:0;fill-opacity:1"
       id="path2860"
       d="m 517.07422,627.13129 c -8.01715,0.31749 -15.76973,2.09764 -23.32483,4.70228 3.06411,-1.84125 -13.16688,6.07151 -9.83106,4.6518 1.735,-0.7384 3.40268,-3.5259 5.03401,-2.58027 1.47199,0.85327 -2.73049,2.0399 -3.98675,3.18734 -3.1798,2.90433 -3.21425,3.39901 -5.48146,6.84495 -4.10989,9.25701 0.94522,13.27575 8.65212,17.53104 11.77001,5.02737 24.69668,6.08148 37.35288,6.36712 2.15516,-0.0527 4.31032,-0.1054 6.46548,-0.1581 0,0 -8.9581,6.53656 -8.9581,6.53656 l 0,0 c -2.16172,0.0359 -4.32345,0.0717 -6.48517,0.10763 -12.80447,-0.39653 -25.88682,-1.51065 -37.73841,-6.75648 -8.11015,-4.62477 -13.44299,-9.2434 -9.54558,-19.11018 7.31894,-12.05216 20.66792,-18.18287 33.32785,-23.46551 7.69657,-2.51381 15.58799,-4.27753 23.71471,-4.53925 0,0 -9.19569,6.68107 -9.19569,6.68107 z" />
    <path
       style="fill:#000000;stroke:#000000;stroke-width:3;stroke-linecap:round;stroke-linejoin:round;stroke-miterlimit:4;stroke-opacity:1;stroke-dasharray:none;stroke-dashoffset:0;fill-opacity:1"
       id="path2862"
       d="m 579.34953,670.96712 c -0.0758,7.46632 -0.0772,14.93322 -0.0823,22.39986 0.13198,4.42544 -0.13423,8.84242 -0.41933,13.25507 0,0 -10.02492,5.02218 -10.02492,5.02218 l 0,0 c 0.31611,-4.39301 0.63246,-8.79168 0.48116,-13.2008 -0.005,-7.4387 -0.006,-14.87765 -0.0823,-22.31603 0,0 10.12763,-5.16028 10.12763,-5.16028 z" />
    <path
       style="fill:#000000;stroke:#000000;stroke-width:3;stroke-linecap:round;stroke-linejoin:round;stroke-miterlimit:4;stroke-opacity:1;stroke-dasharray:none;stroke-dashoffset:0;fill-opacity:1"
       id="path2868"
       d="m 128.45611,638.3248 c -9.97504,-0.68459 -19.86206,0.70535 -29.610963,2.67568 -9.741045,2.50272 -19.810359,5.43331 -28.276807,11.09469 -1.017161,0.68016 4.03598,-2.47599 3.373529,-1.44721 -1.225986,1.90395 -3.48801,2.88895 -5.232015,4.33343 -5.920787,6.05698 -12.148575,14.13668 -10.50217,23.24578 0.248028,1.37228 0.893355,2.64207 1.340033,3.96311 5.674983,9.08126 16.105426,11.03168 26.051915,11.56378 1.886955,-0.13689 3.773909,-0.27377 5.660864,-0.41065 0,0 -8.963009,6.59746 -8.963009,6.59746 l 0,0 c -1.914812,0.0996 -3.829624,0.19914 -5.744437,0.2987 -10.392831,-0.76154 -21.0037,-3.10915 -26.812072,-12.63663 -0.493168,-1.41506 -1.188419,-2.7752 -1.479504,-4.2452 -1.857878,-9.3824 4.116303,-17.82822 10.184179,-24.22708 14.121034,-12.0944 31.117517,-20.65077 49.217387,-24.80388 9.90357,-1.92002 19.96723,-3.32811 30.08212,-2.55153 0,0 -9.28905,6.54955 -9.28905,6.54955 z" />
    <path
       style="fill:#000000;stroke:#000000;stroke-width:3;stroke-linecap:round;stroke-linejoin:round;stroke-miterlimit:4;stroke-opacity:1;stroke-dasharray:none;stroke-dashoffset:0;fill-opacity:1"
       id="path2870"
       d="m 134.0263,688.30344 c 6.30611,-3.40282 12.85544,-6.33884 19.51878,-8.96904 6.18099,-2.20299 12.52041,-3.97101 18.60681,-0.81945 4.48781,4.2174 1.75873,10.08113 -0.34304,14.8156 -3.40906,7.05269 -8.40817,13.08497 -13.7534,18.73786 -2.81398,3.63109 -7.40384,6.13831 -9.3895,10.38448 0.2918,2.3849 4.70585,1.87418 6.43885,1.93351 4.48263,0.0231 8.95649,-0.31071 13.42731,-0.59359 1.99683,-0.12382 3.99322,-0.24799 5.98428,-0.44523 0,0 -9.14897,6.76842 -9.14897,6.76842 l 0,0 c -1.98152,0.14609 -3.96512,0.26038 -5.94806,0.38516 -4.49654,0.27916 -9.00032,0.59811 -13.5083,0.49731 -2.93713,-0.18218 -6.895,-0.15438 -7.54464,-3.74177 1.31402,-4.66293 6.49933,-7.19385 9.31983,-10.86891 5.38626,-5.51703 10.39318,-11.45513 13.88916,-18.38105 1.8414,-3.96516 5.13049,-9.60767 1.12904,-13.26258 -5.92165,-2.69799 -12.13361,-0.5678 -17.96315,1.51275 -6.68656,2.7052 -13.24446,5.71783 -19.59318,9.14823 0,0 8.87818,-7.1017 8.87818,-7.1017 z" />
    <path
       style="fill:#000000;stroke:#000000;stroke-width:3;stroke-linecap:round;stroke-linejoin:round;stroke-miterlimit:4;stroke-opacity:1;stroke-dasharray:none;stroke-dashoffset:0;fill-opacity:1"
       id="path2872"
       d="m 550.11815,282.46247 c -8.52629,7.95784 -19.12733,13.36453 -29.93969,17.53061 -7.2675,2.248 -16.08058,5.00487 -23.45293,1.41747 -1.12893,-0.54935 -2.05949,-1.43651 -3.08924,-2.15477 -6.9955,-8.70189 -0.75216,-18.38776 4.76153,-26.00199 12.36036,-13.90728 29.28157,-23.67189 46.66376,-29.92445 12.70346,-3.87801 24.03833,-4.58461 36.06128,1.40838 8.26926,5.63535 10.22391,12.22617 8.33329,21.71715 -2.91049,9.38325 -10.06011,15.52905 -18.06036,20.62114 -11.45023,7.90057 -23.20474,11.78622 -36.75239,13.17859 -4.74445,0.37951 -9.49122,0.38224 -14.20975,-0.21657 0,0 9.19809,-6.52113 9.19809,-6.52113 l 0,0 c 4.65751,0.49309 9.33607,0.48516 14.00468,0.0542 6.11556,-0.6989 12.08586,-1.72088 17.89761,-3.83487 1.55747,-0.56652 5.21702,-3.42426 4.60031,-1.88598 -0.75641,1.88672 -3.43473,2.17488 -5.1521,3.26232 7.96565,-4.83819 15.21094,-10.65259 18.37222,-19.77917 2.11539,-9.00463 0.42753,-15.13661 -7.56094,-20.44554 -11.8519,-5.68109 -23.06472,-4.67748 -35.42501,-0.76245 -2.3423,0.87903 -4.54736,2.30395 -7.02689,2.63709 -1.06291,0.14281 3.4739,-2.47179 2.49733,-2.02852 -8.94587,4.0606 -16.67256,11.00101 -23.25119,18.11974 -5.17028,6.8606 -11.99271,16.19412 -5.48204,24.34717 8.40571,5.48311 16.9473,2.89332 25.85096,-0.10285 1.57039,-0.63128 3.16272,-1.21054 4.71117,-1.89385 1.48398,-0.65487 5.5783,-3.21252 4.38086,-2.11836 -1.64316,1.50144 -3.74794,2.42615 -5.7598,3.37837 -2.09453,0.99134 3.82814,-2.62545 5.60211,-4.11637 0.58964,-0.49556 1.15095,-1.02389 1.72643,-1.53584 0,0 10.5007,-4.34953 10.5007,-4.34953 z" />
    <path
       style="fill:#000000;stroke:#000000;stroke-width:3;stroke-linecap:round;stroke-linejoin:round;stroke-miterlimit:4;stroke-opacity:1;stroke-dasharray:none;stroke-dashoffset:0;fill-opacity:1"
       id="path2874"
       d="m 557.12056,273.09648 c 5.30838,4.72314 10.65094,9.40703 15.92736,14.16637 6.44691,5.8852 12.22058,12.41015 17.67588,19.20732 2.57265,3.28842 4.67236,6.89665 6.80129,10.4764 0,0 -9.83598,5.68081 -9.83598,5.68081 l 0,0 c -2.01864,-3.57804 -4.07158,-7.1479 -6.60209,-10.39789 -5.39129,-6.76974 -11.13695,-13.23777 -17.54871,-19.0696 -5.31798,-4.76771 -10.70383,-9.45628 -16.10875,-14.12475 0,0 9.691,-5.93866 9.691,-5.93866 z" />
    <path
       style="fill:#000000;stroke:#000000;stroke-width:3;stroke-linecap:round;stroke-linejoin:round;stroke-miterlimit:4;stroke-opacity:1;stroke-dasharray:none;stroke-dashoffset:0;fill-opacity:1"
       id="path2876"
       d="m 630.77415,316.85271 c -0.0773,7.74759 -0.0749,15.49577 -0.0775,23.24367 0.007,5.77763 0.002,2.96069 0.0154,8.45084 0,0 -9.99557,5.093 -9.99557,5.093 l 0,0 c 0.0137,-5.50218 0.008,-2.68 0.0154,-8.46652 -0.003,-7.72158 1.3e-4,-15.44345 -0.0775,-23.16473 0,0 10.11973,-5.15626 10.11973,-5.15626 z" />
    <path
       style="fill:#000000;stroke:#000000;stroke-width:3;stroke-linecap:round;stroke-linejoin:round;stroke-miterlimit:4;stroke-opacity:1;stroke-dasharray:none;stroke-dashoffset:0;fill-opacity:1"
       id="path2878"
       d="m 140.02708,330.45291 c -6.37692,2.55014 -13.0495,3.79997 -19.89153,3.95134 -8.38068,-0.40865 -12.78491,-3.48705 -16.46379,-10.85256 -2.92998,-8.71629 -0.19055,-17.20039 3.73617,-25.08172 7.15182,-12.86527 19.78808,-18.31527 32.33093,-24.84649 8.80376,-3.14734 17.12353,-2.00212 25.18032,2.36106 6.88778,4.48092 9.52304,11.13691 9.8775,19.05337 -0.47716,8.58488 -4.89727,15.47774 -10.62927,21.551 -9.02866,8.30622 -20.16839,14.2359 -32.06525,17.09393 0,0 8.91252,-6.81617 8.91252,-6.81617 l 0,0 c 3.36719,-0.88109 4.44721,-1.05189 7.71547,-2.36828 1.31938,-0.53142 4.941,-2.71751 3.88537,-1.76419 -1.65401,1.4937 -3.71493,2.49586 -5.73589,3.43535 -2.63635,1.22558 9.89521,-5.94023 6.94377,-5.27786 5.75665,-5.76657 10.27628,-12.35521 10.97769,-20.7182 -0.16807,-7.56293 -2.62077,-13.85771 -9.27051,-18.04254 -7.9465,-4.10329 -16.06963,-4.85254 -24.55961,-1.58974 1.66939,-1.18037 4.03267,-1.74431 5.00817,-3.54112 0.81621,-1.50341 -3.02639,1.60511 -4.46208,2.53527 -5.67081,3.674 -10.47252,8.52566 -13.92257,14.33786 -3.94765,7.49449 -6.83536,15.67361 -4.14644,24.11382 3.50993,7.06285 7.78304,9.59198 15.74863,9.78699 6.84393,-0.31315 13.43787,-1.77635 19.83466,-4.25396 0,0 -9.00426,6.93284 -9.00426,6.93284 z" />
    <path
       style="fill:#000000;stroke:#000000;stroke-width:3;stroke-linecap:round;stroke-linejoin:round;stroke-miterlimit:4;stroke-opacity:1;stroke-dasharray:none;stroke-dashoffset:0;fill-opacity:1"
       id="path2880"
       d="m 154.26341,301.66791 c 4.27011,4.7954 8.78058,9.37199 13.13629,14.09074 3.96019,4.51687 8.09789,8.89463 11.84358,13.5939 1.34196,1.81357 3.08297,3.85431 2.57875,6.24928 0,0 -10.46636,4.51883 -10.46636,4.51883 l 0,0 c 1.90594,-0.42476 -1.39573,-4.37331 -1.81535,-4.97259 -3.71605,-4.68302 -7.80436,-9.06237 -11.74125,-13.55813 -4.3575,-4.71067 -8.84382,-9.29735 -13.22666,-13.98337 0,0 9.691,-5.93866 9.691,-5.93866 z" />
    <path
       style="fill:#000000;stroke:#000000;stroke-width:3;stroke-linecap:round;stroke-linejoin:round;stroke-miterlimit:4;stroke-opacity:1;stroke-dasharray:none;stroke-dashoffset:0;fill-opacity:1"
       id="path2882"
       d="m 208.51848,321.4436 c 3.88222,3.38416 7.14558,7.20048 9.18151,11.94687 1.24422,3.64736 1.49547,7.57102 3.08951,11.09548 2.10862,2.8497 5.71615,3.84046 8.89855,5.03966 4.06845,1.17925 8.0935,2.47751 12.07072,3.93759 1.17706,0.42094 2.89554,1.24158 3.84494,1.35583 0,0 -9.26175,6.67938 -9.26175,6.67938 l 0,0 c -1.2075,-0.78839 -2.68966,-1.09352 -3.98534,-1.69787 -3.97514,-1.46394 -8.01845,-2.69806 -12.05924,-3.96256 -3.46458,-1.34184 -7.2391,-2.52509 -9.39265,-5.77261 -1.61353,-3.54013 -1.93401,-7.44559 -3.05398,-11.14928 -1.91712,-4.59913 -5.13334,-8.26134 -8.96198,-11.42381 0,0 9.62971,-6.04868 9.62971,-6.04868 z" />
    <path
       style="fill:#000000;stroke:#000000;stroke-width:3;stroke-linecap:round;stroke-linejoin:round;stroke-miterlimit:4;stroke-opacity:1;stroke-dasharray:none;stroke-dashoffset:0;fill-opacity:1"
       id="path2884"
       d="m 799.88193,513.56732 c 4.68274,8.28922 7.99354,17.22093 11.17273,26.16351 3.49417,10.45256 6.58968,21.03646 9.57347,31.64494 0.1496,0.51572 1.23462,4.3791 1.59853,5.25911 0.1502,0.36321 0.26271,0.8212 0.60693,1.01091 0.173,0.0953 0.45302,-0.60695 0.27281,-0.52606 -3.13864,1.40886 -5.94186,3.64789 -9.25914,4.55982 -0.73665,0.20251 0.4388,-1.46359 0.65819,-2.19538 1.93181,-9.69398 3.58941,-19.43735 5.58711,-29.11906 1.90927,-8.96107 3.82611,-17.91531 6.60351,-26.65294 0.70936,-2.03352 1.3801,-4.10032 2.41646,-5.99624 0,0 10.46069,-4.50923 10.46069,-4.50923 l 0,0 c -1.51512,1.46485 -1.80244,3.88143 -2.68499,5.71089 -2.91097,8.69787 -4.8713,17.64233 -6.79025,26.60377 -1.99985,9.65979 -3.68654,19.37524 -5.39022,29.09064 -1.05536,4.62584 -7.6366,13.23369 -11.71525,8.70941 -1.54507,-1.71388 -1.22832,-4.65705 -2.21025,-6.58984 -2.88114,-10.61713 -5.95148,-21.19026 -9.44092,-31.62436 -3.17747,-8.86183 -6.45369,-17.74862 -11.29746,-25.86572 0,0 9.83805,-5.67417 9.83805,-5.67417 z" />
    <path
       style="fill:#000000;stroke:#000000;stroke-width:3;stroke-linecap:round;stroke-linejoin:round;stroke-miterlimit:4;stroke-opacity:1;stroke-dasharray:none;stroke-dashoffset:0;fill-opacity:1"
       id="path2886"
       d="m 862.33857,585.18139 c 0.8236,6.47202 1.3994,12.97153 1.9671,19.46988 0,0 -9.9727,5.18911 -9.9727,5.18911 l 0,0 c -0.54234,-6.46512 -1.10074,-12.93478 -2.04723,-19.35582 0,0 10.05283,-5.30317 10.05283,-5.30317 z" />
    <path
       style="fill:#000000;stroke:#000000;stroke-width:3;stroke-linecap:round;stroke-linejoin:round;stroke-miterlimit:4;stroke-opacity:1;stroke-dasharray:none;stroke-dashoffset:0;fill-opacity:1"
       id="path2888"
       d="m 225.80121,538.54674 c 5.93236,4.57166 10.70851,10.38071 15.36863,16.1871 5.37569,7.19558 10.36197,14.66996 15.54882,22.00094 2.17101,2.63869 5.50573,8.42291 9.39205,5.458 -2.82813,1.44841 -5.46286,3.36205 -8.48437,4.34524 -0.73949,0.24062 0.87359,-1.29148 1.22755,-1.98391 0.44403,-0.86864 0.79933,-1.78051 1.1601,-2.6869 1.43076,-3.59468 2.47704,-7.32201 3.60442,-11.01832 1.5423,-5.41059 3.04274,-10.82928 4.65812,-16.21907 0,0 10.14405,-4.79961 10.14405,-4.79961 l 0,0 c -1.63674,5.38826 -3.17622,10.79821 -4.67168,16.22706 -0.73654,2.44492 -3.90804,14.64407 -5.69578,16.04143 -3.40881,2.66443 -7.20802,4.78762 -10.81203,7.18144 -4.70431,1.34821 -7.69051,-3.62436 -10.19875,-6.84322 -5.12653,-7.34141 -10.08727,-14.80304 -15.46475,-21.96538 -4.61819,-5.70817 -9.34786,-11.46834 -15.34723,-15.79669 0,0 9.57085,-6.12811 9.57085,-6.12811 z" />
    <path
       style="fill:#000000;stroke:#000000;stroke-width:3;stroke-linecap:round;stroke-linejoin:round;stroke-miterlimit:4;stroke-opacity:1;stroke-dasharray:none;stroke-dashoffset:0;fill-opacity:1"
       id="path2890"
       d="m 295.56964,599.51692 c 6.96973,-4.70071 14.21263,-10.65299 22.91728,-10.53689 5.29591,1.10239 7.53193,5.58928 9.1284,10.28997 1.32158,4.45445 1.24808,9.2261 3.1497,13.49872 2.36123,3.42456 6.62062,3.44078 10.39618,3.58644 3.50351,-0.0304 1.75424,0.0143 5.24779,-0.13367 0,0 -9.11055,6.66933 -9.11055,6.66933 l 0,0 c -3.53068,0.10436 -1.75974,0.0845 -5.31284,0.0585 -4.2351,-0.27386 -8.60831,-0.71674 -11.09245,-4.6167 -1.93273,-4.31543 -1.95886,-9.08228 -3.16305,-13.6154 -1.4205,-4.27746 -3.38357,-8.50142 -8.37811,-9.06588 -3.60235,0.23465 -8.37357,2.71569 -6.97081,1.74537 13.60481,-9.41072 7.08525,-3.89713 3.74215,-2.11511 0,0 -10.55369,4.23528 -10.55369,4.23528 z" />
    <path
       style="fill:#000000;stroke:#000000;stroke-width:3;stroke-linecap:round;stroke-linejoin:round;stroke-miterlimit:4;stroke-opacity:1;stroke-dasharray:none;stroke-dashoffset:0;fill-opacity:1"
       id="path2892"
       d="m -177.39641,570.7656 c 3.55214,8.73684 6.45212,17.7343 9.42318,26.68278 3.38182,8.6845 5.23947,18.15028 10.2774,26.09765 3.30038,3.35961 8.89728,-0.29959 -6.28269,5.84817 -0.61011,0.24709 0.93531,-0.94786 1.26017,-1.52034 1.03284,-1.82013 1.4612,-4.01332 1.99115,-5.99232 1.99306,-9.21716 3.65956,-18.50622 5.23346,-27.80392 0,0 10.04859,-4.90831 10.04859,-4.90831 l 0,0 c -1.59432,9.30645 -3.26689,18.6026 -5.1411,27.85644 -1.60025,6.77134 -7.38041,21.72165 -16.85888,12.19115 -4.94527,-8.11425 -6.86893,-17.61498 -10.26239,-26.4082 -2.9664,-8.90048 -5.85315,-17.87068 -9.59458,-26.47977 0,0 9.90569,-5.56333 9.90569,-5.56333 z" />
    <path
       style="fill:#000000;stroke:#000000;stroke-width:3;stroke-linecap:round;stroke-linejoin:round;stroke-miterlimit:4;stroke-opacity:1;stroke-dasharray:none;stroke-dashoffset:0;fill-opacity:1"
       id="path2894"
       d="m -134.27881,643.79392 c 4.4652,1.41026 8.53316,3.72553 12.12716,6.69968 3.20292,2.97065 4.69499,6.90723 5.94996,10.97278 1.26682,4.28549 3.16378,8.33371 4.62549,12.55078 2.14308,6.07214 1.33632,11.5419 -1.91174,16.96622 -6.46151,7.89671 -16.16004,12.27583 -25.45168,16.05008 0,0 8.72537,-6.88623 8.72537,-6.88623 l 0,0 c 1.82874,-0.79575 4.52546,-4.13496 5.48623,-2.38726 0.95719,1.7412 -3.22144,2.47787 -5.12704,3.04065 -1.38135,0.40795 2.39821,-1.60948 3.4843,-2.55551 0.9444,-0.82261 1.72172,-1.81934 2.58259,-2.72901 3.41407,-5.04129 4.39007,-10.16507 2.31839,-16.03567 -1.45993,-4.23163 -3.38011,-8.28198 -4.66513,-12.57542 -1.17055,-3.85938 -2.51464,-7.62214 -5.59588,-10.40727 -3.55543,-2.85732 -7.55934,-5.04453 -11.95884,-6.31868 0,0 9.41082,-6.38514 9.41082,-6.38514 z" />
  </g>
</svg>
