<?xml version="1.0" encoding="UTF-8" standalone="no"?>
<!-- Created with Inkscape (http://www.inkscape.org/) -->
<svg
   xmlns:dc="http://purl.org/dc/elements/1.1/"
   xmlns:cc="http://creativecommons.org/ns#"
   xmlns:rdf="http://www.w3.org/1999/02/22-rdf-syntax-ns#"
   xmlns:svg="http://www.w3.org/2000/svg"
   xmlns="http://www.w3.org/2000/svg"
   xmlns:sodipodi="http://sodipodi.sourceforge.net/DTD/sodipodi-0.dtd"
   xmlns:inkscape="http://www.inkscape.org/namespaces/inkscape"
   width="746.30518"
   height="637.77942"
   id="svg2"
   sodipodi:version="0.32"
   inkscape:version="0.46+devel"
   version="1.0"
   sodipodi:docname="w5d3.svg"
   inkscape:output_extension="org.inkscape.output.svg.inkscape">
  <defs
     id="defs4">
    <marker
       inkscape:stockid="Arrow2Lend"
       orient="auto"
       refY="0"
       refX="0"
       id="Arrow2Lend"
       style="overflow:visible">
      <path
         id="path3538"
         style="font-size:12px;fill-rule:evenodd;stroke-width:0.625;stroke-linejoin:round"
         d="M 8.7185878,4.0337352 -2.2072895,0.01601326 8.7185884,-4.0017078 c -1.7454984,2.3720609 -1.7354408,5.6174519 -6e-7,8.035443 z"
         transform="matrix(-1.1,0,0,-1.1,-1.1,0)" />
    </marker>
    <marker
       inkscape:stockid="Arrow1Lstart"
       orient="auto"
       refY="0"
       refX="0"
       id="Arrow1Lstart"
       style="overflow:visible">
      <path
         id="path3517"
         d="M 0,0 5,-5 -12.5,0 5,5 0,0 z"
         style="fill-rule:evenodd;stroke:#000000;stroke-width:1pt;marker-start:none"
         transform="matrix(0.8,0,0,0.8,10,0)" />
    </marker>
    <inkscape:perspective
       sodipodi:type="inkscape:persp3d"
       inkscape:vp_x="0 : 526.18109 : 1"
       inkscape:vp_y="0 : 1000 : 0"
       inkscape:vp_z="744.09448 : 526.18109 : 1"
       inkscape:persp3d-origin="372.04724 : 350.78739 : 1"
       id="perspective10" />
  </defs>
  <sodipodi:namedview
     id="base"
     pagecolor="#ffffff"
     bordercolor="#666666"
     borderopacity="1.0"
     inkscape:pageopacity="0.0"
     inkscape:pageshadow="2"
     inkscape:zoom="0.35"
     inkscape:cx="-236.9293"
     inkscape:cy="205.36993"
     inkscape:document-units="px"
     inkscape:current-layer="layer1"
     showgrid="false"
     inkscape:window-width="1280"
     inkscape:window-height="712"
     inkscape:window-x="-5"
     inkscape:window-y="-3" />
  <metadata
     id="metadata7">
    <rdf:RDF>
      <cc:Work
         rdf:about="">
        <dc:format>image/svg+xml</dc:format>
        <dc:type
           rdf:resource="http://purl.org/dc/dcmitype/StillImage" />
        <dc:title></dc:title>
      </cc:Work>
    </rdf:RDF>
  </metadata>
  <g
     inkscape:label="Layer 1"
     inkscape:groupmode="layer"
     id="layer1"
     transform="translate(-37.643581,-99.95268)">
    <path
       style="fill:#000000;fill-opacity:1;stroke:#000000;stroke-width:4;stroke-linecap:round;stroke-linejoin:round;stroke-miterlimit:4;stroke-opacity:1;stroke-dasharray:none;stroke-dashoffset:0"
       id="path2720"
       d="m 54.72866,189.87514 c 15.599249,0.20197 31.196662,-0.88246 46.74986,-1.99276 28.0551,-1.82892 56.13869,-3.29461 84.2279,-4.50708 40.34266,-1.30142 80.66113,-3.26899 120.96209,-5.50047 50.31365,-3.34157 100.62492,-6.58734 151.01332,-8.54921 49.43646,-2.3894 98.90942,-3.69655 148.39486,-4.43583 38.5307,-1.0014 77.0514,0.13002 115.56714,1.10917 20.09471,0.0914 40.24008,1.77015 60.30495,0.16536 0,0 -6.71855,4.95747 -6.71855,4.95747 l 0,0 c -19.98338,1.35563 -40.02058,-0.32326 -60.02078,-0.474 -38.42778,-1.06197 -76.86113,-2.22023 -115.3072,-1.25817 -49.45504,0.71125 -98.89767,2.00992 -148.3036,4.39211 -50.4201,1.97953 -100.76315,5.24033 -151.10592,8.63283 -40.36822,2.26632 -80.7535,4.27338 -121.16321,5.63689 -28.14856,1.26647 -56.29252,2.76779 -84.405027,4.66496 -15.653211,1.13306 -31.340823,2.22541 -47.04208,2.13282 0,0 6.846247,-4.97409 6.846247,-4.97409 z" />
    <path
       style="fill:#000000;fill-opacity:1;stroke:#000000;stroke-width:4;stroke-linecap:round;stroke-linejoin:round;stroke-miterlimit:4;stroke-opacity:1;stroke-dasharray:none;stroke-dashoffset:0"
       id="path2722"
       d="m 407.25696,180.93747 c 2.41064,7.76709 3.56296,15.84615 4.40161,23.9125 0.50162,4.95156 0.68436,9.92901 0.73721,14.90355 0.28121,5.80772 -6.09737,8.36345 -11.38503,9.24458 -2.97695,0.81706 -14.69648,7.58383 -3.29482,1.38712 -5.60762,3.83138 -10.25149,8.83146 -14.08416,14.40068 -3.98232,6.53875 -6.1973,13.69866 -7.45385,21.19309 -0.61916,6.84614 0.69801,13.31477 4.05839,19.26538 3.29145,5.02097 8.13094,6.35518 13.75757,7.15371 0.9485,-0.0473 1.90681,0.002 2.84552,-0.14202 0.89563,-0.13738 4.95526,-1.31246 5.76545,-1.6373 0.87898,-0.35241 3.35929,-1.74824 2.53766,-1.27734 -1.579,0.90496 -3.05268,2.11281 -4.81149,2.58054 -0.90321,0.24019 1.39919,-1.23943 2.09879,-1.85914 3.1053,-3.32006 6.72155,-7.35207 5.8457,-12.22043 -1.82683,-3.79135 -4.85008,-4.73472 -8.79927,-4.4902 0.74752,-0.92213 -5.3314,2.40179 -4.01227,1.77149 1.78442,-0.85263 3.36506,-2.24547 5.29536,-2.67568 0.81026,-0.18059 -1.16308,1.19275 -1.65197,1.86367 -1.26351,1.73397 -1.46665,2.61481 -2.25307,4.5954 -1.82769,6.26676 -1.69232,12.60311 -0.15583,18.88594 1.34874,5.42447 3.97864,10.29261 7.79876,14.34265 2.70549,2.67942 5.62427,5.54002 9.63439,5.45313 3.72678,-0.59259 3.24487,-0.70005 -4.69887,3.16486 -0.35693,0.17366 0.55715,-0.78168 0.37014,-1.13179 -0.36682,-0.68674 -0.93104,-0.44709 -1.56893,-0.43652 1.5318,-1.63517 -5.99558,2.49849 -4.5252,1.83824 1.86225,-0.8362 3.48831,-2.26793 5.47193,-2.7501 0.85759,-0.20845 -1.28646,1.2123 -1.86986,1.87454 -0.6074,0.68947 -1.13064,1.44874 -1.69595,2.17311 -4.17133,6.32301 -5.60685,13.69606 -6.60606,21.06856 -1.37021,9.18005 0.33148,18.08277 3.08218,26.80416 2.18619,7.06282 6.4842,12.12008 12.59802,16.04045 3.50522,1.51921 8.33405,4.27819 12.15367,2.16768 -2.57533,1.46955 -5.02991,3.17451 -7.72598,4.40866 -0.40534,0.18555 -0.8637,-0.25899 -1.30928,-0.27269 -0.60177,-0.0185 -1.20003,0.10269 -1.79747,0.17715 -2.70275,0.33683 -4.82034,1.15427 -7.28417,2.29964 1.48869,-0.73991 2.81544,-2.41743 4.46608,-2.21973 1.23789,0.14826 -1.97792,1.52957 -2.85836,2.41229 -3.98694,3.99729 -6.54431,8.88254 -8.74702,13.9992 -2.88927,7.78772 -2.48596,15.63119 0.87112,23.12537 4.22293,6.82745 10.27628,10.84848 17.80857,13.11812 5.40995,1.84174 11.29897,0.84249 16.75863,2.09927 3.55621,1.67974 -1.71227,4.62094 -3.18435,5.81768 -4.99421,3.98644 -9.49613,8.31618 -12.66249,13.89587 -3.49608,6.04231 -4.42796,12.39245 -4.22254,19.23192 0.39832,3.3007 0.52991,7.94161 2.91038,10.60357 1.68862,-2.79376 0.60296,-0.75691 -6.24111,2.99921 0,0 7.92116,-3.17863 7.92116,-3.17863 l 0,0 c -8.33115,4.9415 -4.99998,5.43428 -9.01194,4.56518 -2.28484,-3.06236 -2.77167,-7.47369 -3.09143,-11.13015 -0.24801,-6.95611 0.5384,-13.44165 4.02585,-19.63952 3.05034,-5.71666 7.46808,-10.13865 12.50429,-14.17824 1.38924,-1.15295 1.72611,-1.4598 3.07311,-2.48731 0.60683,-0.46289 2.55562,-0.83439 1.91691,-1.25219 -0.2775,-0.18153 -0.60919,-0.26216 -0.91379,-0.39324 -5.52135,-1.00511 -11.32689,-0.39331 -16.74323,-2.21013 -7.68657,-2.46338 -13.86513,-6.73196 -18.18623,-13.72352 -3.4528,-7.67388 -4.00507,-15.71751 -1.16602,-23.75072 4.72952,-11.41649 10.00495,-17.19042 21.40024,-22.95449 4.47937,-1.88004 19.29515,-5.06457 4.77706,3.91274 -4.35632,1.13863 -8.73425,-0.97366 -12.55102,-2.88065 -6.19745,-4.10547 -10.60878,-9.33628 -12.85463,-16.56212 -2.77245,-8.82359 -4.57911,-17.83828 -3.24281,-27.13253 0.94546,-7.47198 2.33819,-14.92337 6.36206,-21.43432 4.05902,-5.57699 10.35296,-10.86133 17.36924,-11.37426 7.22051,2.29112 -3.54251,8.93189 -7.98034,8.26238 -4.14126,-0.4216 -7.15891,-3.11316 -9.98016,-6.01618 -3.86273,-4.19859 -6.5929,-9.16808 -7.9809,-14.73162 -1.62438,-6.42059 -1.79163,-12.87735 -0.0946,-19.33157 2.79484,-7.82605 8.91444,-12.23492 17.15457,-14.13913 4.30501,-0.0159 7.49768,1.47837 9.44482,5.49244 1.13587,5.13586 -2.21363,9.41297 -5.52051,13.02491 -6.07262,5.90973 -14.56563,10.41204 -23.17846,10.41114 -5.8395,-0.93823 -10.7934,-2.58678 -14.1639,-7.80286 -3.45581,-6.1099 -4.83459,-12.74763 -4.29573,-19.78401 1.19154,-7.59637 3.37906,-14.84162 7.29566,-21.51789 3.70334,-5.68849 8.38424,-10.73064 13.92011,-14.6921 5.69998,-3.4299 11.50183,-7.61196 17.96714,-9.61385 3.66414,-0.8731 1.28228,-0.4475 -4.8065,3.46889 -0.28046,0.18039 0.64543,-0.22224 0.89902,-0.43878 0.91765,-0.78359 0.99925,-2.18942 0.92924,-3.26528 -0.0288,-4.96329 -0.15033,-9.92935 -0.62447,-14.87324 -0.79346,-8.00406 -1.88099,-16.03871 -4.37412,-23.71574 0,0 7.43258,-4.09345 7.43258,-4.09345 z" />
    <path
       style="fill:#000000;fill-opacity:1;stroke:#000000;stroke-width:4;stroke-linecap:round;stroke-linejoin:round;stroke-miterlimit:4;stroke-opacity:1;stroke-dasharray:none;stroke-dashoffset:0"
       id="path2724"
       d="m 342.5438,520.50435 c 8.64412,-2.39449 17.50873,-3.88515 26.23693,-5.95509 13.18013,-3.0996 26.53489,-5.23439 39.92854,-7.16928 16.59147,-2.53974 33.15514,-5.24315 49.72167,-7.94091 14.39218,-2.06543 28.76732,-4.24337 43.11865,-6.57495 9.32685,-1.26134 18.61819,-2.36142 27.8513,-4.20139 2.59429,-0.10304 6.77467,-2.92774 8.3722,-0.0696 0.84156,4.34712 -0.75141,8.98977 -1.31654,13.34803 -1.2492,12.40134 -2.75655,24.77751 -4.16581,37.16324 -1.8231,17.12505 -3.72098,34.22523 -4.79106,51.41813 -0.52094,13.67155 -1.36204,27.3889 -0.6241,41.06439 0.8425,9.32737 1.72877,18.64677 2.24031,27.99958 0.25634,5.08659 0.36085,10.17822 0.40369,15.27043 -0.86453,6.16644 -8.67534,8.0091 -14.00859,9.4044 -9.88162,1.92186 -19.77526,3.77877 -29.67725,5.60855 -18.84168,3.83771 -37.49563,8.53359 -56.15902,13.14502 -21.23704,5.66498 -42.75271,10.1536 -64.12929,15.24178 -16.68216,3.60311 -33.17233,7.99683 -49.71632,12.16761 -5.12012,1.45641 -10.41408,2.12144 -15.60572,3.23251 -2.89293,0.61913 -5.60454,1.62919 -8.5269,2.07531 -4.40239,-0.63484 -4.05651,-4.901 -4.19456,-8.46824 -0.41835,-9.25358 -1.2098,-18.53483 -2.24598,-27.74648 -1.82484,-14.04018 -2.48446,-28.18208 -2.89241,-42.32193 0.12007,-14.90135 -1.09142,-29.746 -2.08901,-44.60015 -0.78076,-9.21601 -0.36738,-18.5023 -1.93018,-27.6337 -1.34654,-4.4137 -1.47122,-8.6147 -0.69726,-13.11361 1.08131,-3.95396 2.27756,-7.94579 3.66034,-11.81772 1.21277,-4.05468 3.28987,-7.74804 4.82063,-11.67443 0.64953,-3.0768 2.11821,-5.08528 4.68465,-6.84742 6.98329,-4.30472 14.39973,-7.33998 22.31611,-9.33178 7.56042,-1.63863 15.08454,-3.3383 22.76268,-4.33574 4.25483,-1.06255 8.00417,-0.25158 12.04976,0.95699 1.09797,0.53265 2.99915,0.30783 3.61336,1.44774 0,0 -7.57497,4.0028 -7.57497,4.0028 l 0,0 c 0.50625,0.65451 -2.53826,-0.56625 -3.07194,-0.64915 -3.93443,-1.20174 -7.6624,-1.64026 -11.77058,-0.71353 -7.65274,1.03768 -15.16515,2.73369 -22.69741,4.41682 -2.90586,0.78653 -22.9559,8.774 -7.69044,1.13426 -2.69406,1.46955 -4.31845,3.28148 -4.91668,6.33589 -1.4374,3.97335 -3.66519,7.60025 -4.83339,11.6805 -1.49321,3.77919 -2.44833,7.82558 -3.71959,11.67238 -0.80304,4.43167 -0.84249,8.50233 0.52511,12.8748 1.55702,9.18196 1.09972,18.50767 1.84727,27.77509 0.94377,14.87285 2.19054,29.73032 2.06266,44.64732 0.41649,14.10747 1.06486,28.22079 2.92728,42.22455 1.07271,9.21035 1.87782,18.494 2.39096,27.74357 0.10915,2.9947 -0.54049,7.15307 3.44462,7.23807 8.00848,-1.50231 15.90782,-3.77885 23.93749,-5.24262 16.50455,-4.15643 32.97155,-8.47219 49.6105,-12.07259 21.37508,-5.06288 42.87817,-9.57541 64.10899,-15.23582 18.71476,-4.63224 37.41815,-9.35958 56.31483,-13.20293 9.9402,-1.85884 19.8824,-3.70179 29.77858,-5.78135 0.77263,-0.23322 1.55404,-0.43911 2.31789,-0.69966 0.56149,-0.19153 2.14008,-0.99657 1.65471,-0.65543 -10.83423,7.61486 -5.12323,4.27097 -4.2548,0.98177 -0.004,-5.09248 -0.081,-10.18535 -0.30958,-15.27322 -0.47068,-9.36481 -1.32638,-18.69642 -2.1717,-28.03351 -0.74312,-13.72003 0.13698,-27.48058 0.67035,-41.19592 1.06781,-17.20215 2.98219,-34.31009 4.76068,-51.44836 1.35706,-12.3633 2.85899,-24.71444 4.00782,-37.09645 0.50318,-4.23774 1.83212,-8.60843 1.46273,-12.83246 -0.79481,-1.61202 -6.36109,1.18613 -7.69471,0.91488 -9.20523,1.79873 -18.48995,2.77631 -27.77026,4.10455 -14.33031,2.32002 -28.69122,4.44053 -43.05703,6.5292 -16.57531,2.69573 -33.14854,5.39541 -49.7473,7.94307 -13.40648,1.97249 -26.77441,4.14323 -39.96401,7.28609 -8.75927,2.04646 -17.66098,3.53945 -26.28962,6.0919 0,0 6.70072,-5.20576 6.70072,-5.20576 z" />
    <path
       style="fill:#000000;fill-opacity:1;stroke:#000000;stroke-width:4;stroke-linecap:round;stroke-linejoin:round;stroke-miterlimit:4;stroke-opacity:1;stroke-dasharray:none;stroke-dashoffset:0"
       id="path2726"
       d="m 335.51968,558.138 c 2.10106,9.84766 3.2882,19.64645 3.40412,29.71703 0.25082,14.34048 -2.22754,28.49621 -4.088,42.65904 -1.44362,11.51617 -4.29993,22.76708 -6.45224,34.15318 -0.7018,3.2345 -0.95326,6.55108 -1.60699,9.79261 0,0 -7.7196,3.68233 -7.7196,3.68233 l 0,0 c 1.06873,-3.13395 0.83508,-6.63532 1.7765,-9.80482 2.17406,-11.39124 5.10701,-22.63386 6.57078,-34.15763 1.83765,-14.12643 4.38634,-28.23687 4.11443,-42.54083 -0.11618,-10.01575 -1.25297,-19.7552 -3.49769,-29.52281 0,0 7.49869,-3.9781 7.49869,-3.9781 z" />
    <path
       style="fill:#000000;fill-opacity:1;stroke:#000000;stroke-width:4;stroke-linecap:round;stroke-linejoin:round;stroke-miterlimit:4;stroke-opacity:1;stroke-dasharray:none;stroke-dashoffset:0"
       id="path2728"
       d="m 392.66119,567.06306 c 1.69431,12.63164 1.58832,25.33093 0.51612,38.0009 -1.14583,11.54127 -2.96029,23.1282 -6.92371,34.06489 -2.39538,5.65785 -3.93484,8.04282 -11.80138,8.10129 -0.57288,0.004 -0.21049,-4.7699 -0.21031,-4.77384 0,0 7.57629,-3.80415 7.57629,-3.80415 l 0,0 c -0.0557,0.76112 -0.16129,1.52023 -0.16725,2.28337 -0.005,0.66127 0.58669,1.49735 0.13394,1.97936 -1.91702,2.04087 -4.51826,3.31005 -6.72329,5.03572 -0.29634,0.23192 0.72986,-0.27271 0.98757,-0.5469 1.0879,-1.15744 1.98118,-3.44781 2.58317,-4.72854 4.16043,-10.82991 5.93198,-22.42281 7.13335,-33.91504 1.11345,-12.58229 1.25346,-25.21095 -0.6005,-37.74269 0,0 7.496,-3.95437 7.496,-3.95437 z" />
    <path
       style="fill:#000000;fill-opacity:1;stroke:#000000;stroke-width:4;stroke-linecap:round;stroke-linejoin:round;stroke-miterlimit:4;stroke-opacity:1;stroke-dasharray:none;stroke-dashoffset:0"
       id="path2730"
       d="m 408.92409,601.75028 c 1.47155,-0.80536 2.86536,-1.77288 4.41467,-2.4161 1.15696,-0.48033 -2.14923,1.28763 -3.22848,1.92364 -4.25408,2.50696 -8.73245,4.65004 -12.82703,7.40984 -1.70454,1.14887 3.5636,-2.11316 5.51504,-2.7591 0.44542,-0.14744 -0.5064,0.79 -0.7596,1.185 -0.52263,2.43488 2.24809,4.32641 3.85066,5.7982 2.42424,1.90066 4.1889,4.30728 5.66434,6.97906 0.28211,1.5607 -0.31482,2.91607 -1.09631,4.22006 0,0 -7.83196,3.42676 -7.83196,3.42676 l 0,0 c 0.75092,-1.01171 1.41062,-2.11641 1.52811,-3.39915 -1.40197,-2.61559 -3.14057,-4.91349 -5.50479,-6.74983 -1.94626,-1.80607 -4.65508,-3.86882 -4.37478,-6.78937 1.9951,-4.39956 16.77797,-11.44033 4.93669,-4.53415 -1.01158,0.58998 2.02982,-1.16851 3.04063,-1.75979 4.43965,-2.59704 8.82005,-5.29489 13.2949,-7.83212 0,0 -6.62209,5.29705 -6.62209,5.29705 z" />
    <path
       style="fill:#000000;fill-opacity:1;stroke:#000000;stroke-width:4;stroke-linecap:round;stroke-linejoin:round;stroke-miterlimit:4;stroke-opacity:1;stroke-dasharray:none;stroke-dashoffset:0"
       id="path2732"
       d="m 448.84311,606.6836 c -1.0438,0.27603 -2.1017,0.50336 -3.13138,0.82808 -2.47355,0.78003 -9.49804,4.17125 -7.14755,3.07485 8.40973,-3.92278 2.72495,-0.93407 -0.0115,2.32103 -2.2046,3.17896 -3.82753,7.15964 -0.28039,9.88711 1.76332,0.37301 3.50332,-0.2836 5.07577,-1.06678 0.66314,-0.33028 2.57566,-1.46181 1.91062,-1.13537 -5.39162,2.64649 -6.78753,4.25187 -3.16577,0.89752 3.12009,-3.72709 5.51614,-7.92881 7.32596,-12.42195 5.8365,-12.49855 10.13324,-1.99764 12.3794,1.92032 2.79433,4.67585 6.334,8.80953 9.97923,12.8306 3.11731,3.54523 5.29216,7.18276 5.09824,11.97417 -1.23752,6.15815 -6.43174,9.60742 -11.47769,12.63964 -10.16972,6.62273 -20.21443,11.26535 -32.40347,9.36692 -5.4515,-1.83284 -2.85883,-0.81547 -7.79576,-3.00644 0,0 7.00832,-4.6611 7.00832,-4.6611 l 0,0 c 4.84174,2.10746 2.29879,1.14802 7.64696,2.82989 6.11243,0.77872 11.66426,0.25833 17.45884,-1.98372 1.32589,-0.51301 3.28142,-3.02381 3.89363,-1.7407 0.61499,1.2889 -2.44492,1.47658 -3.66738,2.21487 4.95048,-2.78596 10.16515,-6.03687 11.74364,-11.84662 0.36057,-4.59432 -1.75392,-8.00293 -4.74307,-11.40068 -3.68226,-4.06913 -7.23767,-8.2646 -10.08323,-12.97774 -4.06714,-6.98487 -6.08361,-5.04308 3.14474,-10.57068 0.27473,-0.16457 -0.30993,0.56052 -0.46489,0.84079 -1.80936,4.58956 -4.18951,8.8542 -7.21861,12.76588 -3.49776,3.54036 -12.8171,10.81383 -18.86087,9.04605 -3.64352,-3.20963 -2.77394,-7.2955 -0.28622,-11.08768 6.14788,-7.70504 15.37576,-12.38884 24.85647,-14.64043 0,0 -6.78405,5.10217 -6.78405,5.10217 z" />
    <path
       style="fill:#000000;fill-opacity:1;stroke:#000000;stroke-width:4;stroke-linecap:round;stroke-linejoin:round;stroke-miterlimit:4;stroke-opacity:1;stroke-dasharray:none;stroke-dashoffset:0"
       id="path2734"
       d="m 314.55739,295.25503 c -7.71816,1.03917 -15.42382,2.38456 -22.98685,4.2564 -6.30728,1.78676 -12.75011,2.96186 -19.26809,3.60604 -3.40513,0.32713 -6.82792,0.35574 -10.2456,0.36207 -2.61731,0.32697 -0.48529,-2.81035 0.005,-4.12103 1.30206,-3.83272 2.67814,-7.65084 3.70661,-11.56814 2.39619,-7.35422 3.50659,-15.02557 4.96651,-22.59946 1.47805,-7.89053 2.14172,-15.89241 2.49295,-23.90199 0.0653,-10.33523 0.50291,-8.7666 10.66024,-14.30081 3.27707,0.74471 6.46641,1.74561 9.79894,2.25699 4.76397,1.58592 9.68434,2.42506 14.65533,3.00798 3.98817,0.39536 7.99843,0.46918 12.00316,0.48971 2.59539,-0.25531 3.14378,0.33768 3.43144,2.96519 0.63143,5.66956 1.60098,11.29291 2.07327,16.99816 0.73415,9.37644 0.79528,18.72805 -0.0579,28.08878 -1.44409,5.82482 0.21578,12.75351 -2.51424,18.23663 -0.17289,0.21501 -0.34578,0.43001 -0.51867,0.64502 0,0 -7.90081,3.24198 -7.90081,3.24198 l 0,0 c 0.20964,-0.14297 0.41927,-0.28594 0.62891,-0.42891 3.23547,-4.59304 1.31917,-12.68693 2.80352,-17.95925 0.87169,-9.31297 0.86154,-18.61165 0.0968,-27.94317 -0.48129,-5.69041 -1.44719,-11.30009 -2.16489,-16.93923 -0.18701,-2.33641 -0.52616,-1.92831 -2.77064,-1.90718 -4.01337,-0.0572 -8.0327,-0.14894 -12.0257,-0.59039 -4.97858,-0.63159 -9.87855,-1.57447 -14.69009,-3.02378 -3.20717,-0.54457 -6.33043,-1.75656 -9.56197,-1.89492 2.02171,-1.2531 4.03802,-2.51495 6.06513,-3.75928 0.34117,-0.20943 -0.71018,0.38577 -1.00701,0.65437 -2.27267,2.0566 -1.08692,5.70051 -1.47181,8.36534 -0.35335,8.05149 -1.0281,16.0924 -2.47448,24.03034 -1.45706,7.57182 -2.50356,15.25768 -4.88674,22.61259 -0.94567,3.96262 -2.38575,7.7663 -3.60641,11.64924 -0.0791,0.18313 -0.93162,3.23103 -1.0197,3.26081 -0.52724,0.17823 -1.86102,-1.15873 0.17847,-0.57635 3.3873,-10e-4 6.77826,-0.0641 10.15159,-0.39976 6.47791,-0.69105 12.871,-1.90509 19.14982,-3.65912 7.61842,-1.79373 15.33933,-3.16807 23.0881,-4.25704 0,0 -6.78405,5.10217 -6.78405,5.10217 z" />
    <path
       style="fill:#000000;fill-opacity:1;stroke:#000000;stroke-width:4;stroke-linecap:round;stroke-linejoin:round;stroke-miterlimit:4;stroke-opacity:1;stroke-dasharray:none;stroke-dashoffset:0"
       id="path2736"
       d="m 292.97125,289.5089 c 2.55119,9.19413 4.1796,18.65537 5.65377,28.07913 1.5419,11.08759 1.67658,22.27737 2.98272,33.3879 0.85117,6.4151 1.4883,12.85479 2.01138,19.30406 0.38157,4.73748 0.15637,4.22622 -8.40601,4.87005 -0.13069,0.01 -1.01259,-2.71535 -1.06574,-2.87419 0,0 7.46131,-4.10434 7.46131,-4.10434 l 0,0 c 0.13974,0.43595 0.2647,0.87691 0.41923,1.30783 0.17475,0.4873 0.92915,1.07442 0.5681,1.44541 -1.99762,2.05262 -4.72359,3.25463 -6.9252,5.08672 -0.14662,0.12201 0.39567,0.39401 0.51645,0.24639 0.43601,-0.53294 -0.77001,-1.60693 -0.11421,-2.06255 -0.43143,-6.46172 -1.05201,-12.90857 -1.88093,-19.33201 -1.28077,-11.10692 -1.43434,-22.28685 -2.94378,-33.37149 -1.46132,-9.36504 -3.08639,-18.7776 -5.70967,-27.88947 0,0 7.43258,-4.09344 7.43258,-4.09344 z" />
    <path
       style="fill:#000000;fill-opacity:1;stroke:#000000;stroke-width:4;stroke-linecap:round;stroke-linejoin:round;stroke-miterlimit:4;stroke-opacity:1;stroke-dasharray:none;stroke-dashoffset:0"
       id="path2738"
       d="m 281.54267,352.36604 c 1.96308,7.57901 5.11903,14.69252 8.50923,21.71368 2.26024,3.75798 4.51294,8.73118 9.46541,8.75857 4.60626,-2.10429 -2.86574,1.94956 -4.47978,2.52832 -0.59013,0.21161 0.83983,-0.93375 1.21124,-1.43881 1.58056,-2.14932 2.62243,-4.58189 3.73676,-6.98791 2.31912,-6.33482 4.49654,-12.71187 6.94052,-19.00433 1.56928,-3.94934 2.98213,-8.24841 6.12693,-11.24182 3.30067,-2.50377 1.07683,-0.87497 9.08646,-5.32796 0.19868,-0.11045 0.83537,-0.35574 0.63542,-0.24759 -7.04917,3.81311 -7.83911,5.91377 -6.54114,2.99704 0,0 7.74505,-3.60742 7.74505,-3.60742 l 0,0 c -0.75094,2.45484 -17.9164,11.66202 -2.14529,2.427 0.30118,-0.17636 -0.59241,0.3692 -0.88862,0.5538 -3.3906,2.69022 -4.80377,6.98338 -6.36229,10.89602 -2.44013,6.30497 -4.71879,12.65324 -6.91358,19.0454 -3.11318,6.95157 -6.17229,12.96519 -15.07413,14.36454 -5.09951,-0.65644 -7.50488,-5.48542 -9.86247,-9.56153 -3.39057,-7.0563 -6.55473,-14.19342 -8.6223,-21.77355 0,0 7.43258,-4.09345 7.43258,-4.09345 z" />
    <path
       style="stroke:#000000;stroke-width:4.69999981;stroke-miterlimit:4;stroke-opacity:1;stroke-dasharray:none;marker-start:url(#Arrow1Lstart);marker-end:url(#Arrow2Lend)"
       d="m 245.71429,535.21933 0,-245.71429"
       id="path2740" />
    <flowRoot
       xml:space="preserve"
       id="flowRoot4150"
       style="font-size:10px;font-style:normal;font-weight:normal;fill:#000000;fill-opacity:1;stroke:none;font-family:Bitstream Vera Sans"
       transform="matrix(10.951409,0,0,10.951409,-533.10787,-2942.7863)"><flowRegion
         id="flowRegion4152"><rect
           id="rect4154"
           width="188.57143"
           height="208.57143"
           x="54.285713"
           y="298.07648" /></flowRegion><flowPara
         id="flowPara4156">1M</flowPara></flowRoot>    <path
       style="fill:#000000;fill-opacity:1;stroke:#000000;stroke-width:4.69999981;stroke-linecap:round;stroke-linejoin:round;stroke-miterlimit:4;stroke-opacity:1;stroke-dasharray:none;stroke-dashoffset:0"
       id="path4158"
       d="m 747.9412,163.75059 c 3.85958,-0.71099 7.89125,-1.64298 11.43993,-3.39635 0.90915,-0.4492 3.5587,-1.92282 2.61174,-1.56005 -1.62337,0.6219 -3.1058,1.56281 -4.65871,2.34422 3.52926,-2.53047 5.90843,-6.06691 7.94281,-9.82654 0,0 7.69131,-3.45606 7.69131,-3.45606 l 0,0 c -2.01398,3.84295 -4.29633,7.55524 -7.83921,10.19087 -7.71813,4.8135 -14.74691,9.6785 -23.93835,10.815 0,0 6.75048,-5.11109 6.75048,-5.11109 z" />
    <path
       style="fill:#000000;fill-opacity:1;stroke:#000000;stroke-width:4.69999981;stroke-linecap:round;stroke-linejoin:round;stroke-miterlimit:4;stroke-opacity:1;stroke-dasharray:none;stroke-dashoffset:0"
       id="path4160"
       d="m 702.82018,161.53179 c 4.84411,-4.63285 10.17884,-8.72246 15.21958,-13.14384 4.00063,-3.56231 7.88434,-7.25204 11.72902,-10.98109 0,0 7.79673,-3.21373 7.79673,-3.21373 l 0,0 c -3.88424,3.73731 -7.78865,7.45415 -11.80248,11.05293 -4.98484,4.40761 -10.26537,8.48392 -15.10406,13.03879 0,0 -7.83879,3.24694 -7.83879,3.24694 z" />
    <path
       style="fill:#000000;fill-opacity:1;stroke:#000000;stroke-width:4.69999981;stroke-linecap:round;stroke-linejoin:round;stroke-miterlimit:4;stroke-opacity:1;stroke-dasharray:none;stroke-dashoffset:0"
       id="path4162"
       d="m 647.53521,151.8873 c 0.6245,-0.31089 1.23739,-0.64625 1.87348,-0.93266 5.38601,-2.42523 -1.02112,0.71006 4.7748,-2.13718 0.78645,-0.38634 3.09041,-1.64688 2.34882,-1.18019 -0.0441,0.0277 -22.25521,12.64261 4.68894,-2.66168 -12.28671,8.31245 4.04351,-3.57297 5.81803,-5.11156 2.54849,-2.0113 4.37599,-4.50733 5.55687,-7.50125 0,0 7.68926,-3.57627 7.68926,-3.57627 l 0,0 c -1.11679,3.12681 -2.78792,5.82874 -5.4509,7.90853 -6.13087,5.43101 -12.78119,9.88091 -20.16226,13.55613 15.23608,-9.01859 -10.25045,6.1118 -13.75907,6.93313 0,0 6.62203,-5.297 6.62203,-5.297 z" />
    <path
       style="fill:#000000;fill-opacity:1;stroke:#000000;stroke-width:4.69999981;stroke-linecap:round;stroke-linejoin:round;stroke-miterlimit:4;stroke-opacity:1;stroke-dasharray:none;stroke-dashoffset:0"
       id="path4164"
       d="m 574.57507,167.18743 c 6.46225,-5.11513 12.9278,-10.23052 19.5067,-15.19628 6.67615,-4.80022 13.32662,-9.59277 19.83175,-14.62617 3.51454,-3.90202 26.25055,-15.70137 9.19128,-6.2869 0.79823,-0.78172 0.45051,-0.38648 1.06162,-1.16922 0,0 7.81781,-3.4065 7.81781,-3.4065 l 0,0 c -0.56447,0.9238 -0.2415,0.45135 -0.98706,1.40479 -2.70901,1.64052 -5.40111,3.30928 -8.12703,4.92155 -0.35801,0.21175 -1.47571,0.76536 -1.12094,0.54823 1.90998,-1.16895 3.85365,-2.28206 5.79043,-3.40605 2.98034,-1.72963 -8.26715,4.85308 -5.85414,4.28909 -6.52318,5.06293 -13.18344,9.88601 -19.91036,14.67045 -6.5473,4.9064 -12.97241,9.97962 -19.33038,15.12736 0,0 -7.86968,3.12965 -7.86968,3.12965 z" />
    <path
       style="fill:#000000;fill-opacity:1;stroke:#000000;stroke-width:4.69999981;stroke-linecap:round;stroke-linejoin:round;stroke-miterlimit:4;stroke-opacity:1;stroke-dasharray:none;stroke-dashoffset:0"
       id="path4166"
       d="m 517.10589,170.10322 c 5.238,-5.5141 10.89505,-10.54963 16.86979,-15.24671 8.12779,-6.29051 16.81052,-11.82265 25.32935,-17.56413 7.94603,-5.24073 16.10285,-10.09571 24.34224,-14.8599 0.73376,-0.42149 1.47703,-0.82562 2.22992,-1.21166 0,0 -6.65985,5.34861 -6.65985,5.34861 l 0,0 c -0.72202,0.38786 -1.44034,0.78256 -2.15075,1.19141 1.90577,-1.10354 3.80761,-2.21389 5.71731,-3.31062 0.69573,-0.39955 -1.38671,0.8074 -2.07535,1.21905 -4.63735,2.77207 -9.0555,5.86958 -13.71121,8.60953 -8.51692,5.72132 -17.17571,11.26596 -25.32754,17.50055 -5.94825,4.61253 -11.59558,9.55621 -16.72511,15.07693 0,0 -7.8388,3.24694 -7.8388,3.24694 z" />
    <path
       style="fill:#000000;fill-opacity:1;stroke:#000000;stroke-width:4.69999981;stroke-linecap:round;stroke-linejoin:round;stroke-miterlimit:4;stroke-opacity:1;stroke-dasharray:none;stroke-dashoffset:0"
       id="path4168"
       d="m 420.28936,172.90172 c 8.76966,-5.71733 18.31765,-10.10137 27.40209,-15.27517 7.7188,-4.24908 15.64048,-8.10958 23.40695,-12.26522 -1.12581,0.62671 -4.49024,2.52963 -3.37743,1.88013 3.55741,-2.04592 7.11482,-4.09183 10.67223,-6.13774 -1.24731,0.69606 -2.31537,2.16051 -3.74192,2.08818 -1.28724,-0.0653 2.15146,-1.42007 3.23776,-2.11375 2.03493,-1.29943 4.09096,-2.5656 6.12636,-3.86428 4.32585,-2.85117 8.44953,-5.98215 12.35227,-9.38611 0.5951,-0.82408 1.30637,-1.11142 0.16816,-1.39798 0,0 7.10966,-4.7151 7.10966,-4.7151 l 0,0 c 1.37001,0.82527 1.59272,1.60526 0.5699,2.92353 -3.92952,3.44847 -8.05753,6.64517 -12.41228,9.54509 -14.09086,9.05589 -16.81043,10.29255 -27.17932,16.38381 -7.78428,4.11411 -15.67559,8.02383 -23.38728,12.27721 -4.94375,2.77827 -2.90974,1.68713 -7.88118,4.27705 -1.20086,0.6256 -3.81707,3.20727 -3.60624,1.86975 0.22673,-1.43838 2.62636,-1.34771 3.68204,-2.35063 0.53075,-0.50422 -5.2679,3.12897 -5.27209,3.13157 0,0 -7.86968,3.12966 -7.86968,3.12966 z" />
    <path
       style="fill:#000000;fill-opacity:1;stroke:#000000;stroke-width:4.69999981;stroke-linecap:round;stroke-linejoin:round;stroke-miterlimit:4;stroke-opacity:1;stroke-dasharray:none;stroke-dashoffset:0"
       id="path4170"
       d="m 333.2495,174.74444 c 7.31596,-3.49687 14.76365,-6.70228 22.16714,-10.01006 8.6852,-3.95952 17.10442,-8.48085 25.75928,-12.49749 7.71209,-3.79394 15.35195,-7.70925 22.98705,-11.65798 1.12306,-0.62843 2.2352,-1.27677 3.36917,-1.88528 2.10924,-1.13187 4.22068,-2.25975 6.33925,-3.37409 0.99895,-0.52543 3.96841,-2.13872 3.03019,-1.51124 -1.44801,0.96843 -3.01992,1.73981 -4.56756,2.53943 -0.83564,0.43175 1.6198,-0.95657 2.4297,-1.43486 21.341,-12.31513 6.34342,-3.51599 3.6827,-2.38129 -0.50355,0.21474 0.80396,-0.74346 1.21721,-1.10249 0.97491,-0.84698 1.99263,-1.5911 3.06399,-2.30738 0.70534,-0.48416 1.12011,-1.16458 1.53031,-1.88792 0,0 7.77203,-3.5109 7.77203,-3.5109 l 0,0 c -0.37365,0.82146 -0.76957,1.62539 -1.37116,2.31197 -1.58986,0.97693 -2.85623,2.35906 -4.36674,3.36263 -5.08375,3.37761 -14.91791,9.00918 -3.68637,2.49865 -8.22909,4.80136 -16.48963,9.50096 -24.94154,13.89728 -7.61459,3.96543 -15.27645,7.82399 -22.98061,11.61024 -8.62097,4.0889 -17.08594,8.50756 -25.76392,12.48013 -7.4647,3.31069 -14.95696,6.56879 -22.29216,10.15765 0,0 6.62204,-5.297 6.62204,-5.297 z" />
    <path
       style="fill:#000000;fill-opacity:1;stroke:#000000;stroke-width:4.69999981;stroke-linecap:round;stroke-linejoin:round;stroke-miterlimit:4;stroke-opacity:1;stroke-dasharray:none;stroke-dashoffset:0"
       id="path4172"
       d="m 281.82093,171.8873 c 0.72958,-0.42842 2.94742,-1.6597 2.18873,-1.28526 -1.50753,0.74401 -2.78475,2.09168 -4.43821,2.39544 -1.21296,0.22283 2.01252,-1.42603 3.0215,-2.13518 3.75089,-2.63627 7.43905,-5.29697 11.06787,-8.10076 9.81594,-7.7558 19.94569,-15.08445 30.15744,-22.30719 9.44448,-6.91746 19.39619,-13.08413 28.96166,-19.82773 2.60944,-1.78777 5.09559,-3.74163 7.56484,-5.71499 0,0 7.80891,-3.13449 7.80891,-3.13449 l 0,0 c -2.49846,2.00727 -5.00173,4.01275 -7.66023,5.80841 -9.60251,6.76276 -19.58419,12.95416 -29.07793,19.87263 -10.19196,7.18682 -20.29495,14.48968 -30.07376,22.23258 -8.26038,6.48458 -16.85208,12.54986 -26.14286,17.49354 0,0 6.62204,-5.297 6.62204,-5.297 z" />
    <path
       style="fill:#000000;fill-opacity:1;stroke:#000000;stroke-width:4.69999981;stroke-linecap:round;stroke-linejoin:round;stroke-miterlimit:4;stroke-opacity:1;stroke-dasharray:none;stroke-dashoffset:0"
       id="path4174"
       d="m 204.67807,171.8873 c 0.72958,-0.42842 2.94743,-1.6597 2.18873,-1.28526 -1.50753,0.74401 -2.78474,2.09168 -4.43821,2.39544 -1.21296,0.22283 2.02933,-1.4027 3.0215,-2.13518 3.27451,-2.41745 6.34873,-5.05885 9.41741,-7.72763 7.54473,-5.99142 14.81825,-12.28885 21.88828,-18.83059 7.94789,-7.15147 15.61765,-14.57657 23.08898,-22.2248 2.60723,-2.42427 4.82911,-5.19403 7.00592,-7.99565 0,0 7.7126,-3.31035 7.7126,-3.31035 l 0,0 c -2.18835,2.84546 -4.39064,5.68996 -7.05308,8.12162 -7.50756,7.64261 -15.14465,15.13366 -23.12492,22.28175 -7.0274,6.55542 -14.2455,12.88718 -21.80717,18.8245 -7.55281,6.63879 -15.38983,12.74948 -24.52207,17.18315 0,0 6.62203,-5.297 6.62203,-5.297 z" />
    <path
       style="fill:#000000;fill-opacity:1;stroke:#000000;stroke-width:4.69999981;stroke-linecap:round;stroke-linejoin:round;stroke-miterlimit:4;stroke-opacity:1;stroke-dasharray:none;stroke-dashoffset:0"
       id="path4176"
       d="m 130.39236,174.74444 c 0.72957,-0.42842 2.94742,-1.6597 2.18873,-1.28526 -1.50753,0.74401 -2.78475,2.09169 -4.43821,2.39544 -1.21297,0.22283 2.02933,-1.40269 3.0215,-2.13518 3.34108,-2.46659 6.50174,-5.17496 9.75854,-7.75023 8.87691,-7.33077 17.83171,-14.60118 26.30365,-22.40014 9.52413,-8.04712 18.06946,-17.0881 26.8656,-25.88832 4.11697,-3.81334 8.17854,-7.64053 11.66142,-12.05001 0,0 7.77002,-3.32806 7.77002,-3.32806 l 0,0 c -3.50715,4.49339 -7.57211,8.41307 -11.80606,12.22263 -8.87644,8.75026 -17.33365,17.92142 -26.91752,25.94057 -8.40025,7.83096 -17.35771,15.04967 -26.16524,22.41502 -7.95575,6.24925 -15.53371,12.87666 -24.86447,17.16054 0,0 6.62204,-5.297 6.62204,-5.297 z" />
    <path
       style="fill:#000000;fill-opacity:1;stroke:#000000;stroke-width:4.69999981;stroke-linecap:round;stroke-linejoin:round;stroke-miterlimit:4;stroke-opacity:1;stroke-dasharray:none;stroke-dashoffset:0"
       id="path4178"
       d="m 39.993581,186.95669 c 6.581872,-7.85606 14.28615,-14.77876 21.865493,-21.66256 12.941773,-11.79986 25.645336,-23.87117 38.308486,-35.97242 2.00068,-1.92847 4.00136,-3.85694 6.00204,-5.78541 0,0 7.46238,-3.07382 7.46238,-3.07382 l 0,0 c -2.02057,1.93745 -4.04114,3.87489 -6.06171,5.81234 -12.628057,12.08123 -25.293427,24.1355 -38.175947,35.94088 -7.494763,6.7935 -15.0768,13.67241 -21.623038,21.38929 0,0 -7.777704,3.3517 -7.777704,3.3517 z" />
  </g>
</svg>
