<?xml version="1.0" encoding="UTF-8" standalone="no"?>
<!-- Created with Inkscape (http://www.inkscape.org/) -->

<svg
   xmlns:dc="http://purl.org/dc/elements/1.1/"
   xmlns:cc="http://creativecommons.org/ns#"
   xmlns:rdf="http://www.w3.org/1999/02/22-rdf-syntax-ns#"
   xmlns:svg="http://www.w3.org/2000/svg"
   xmlns="http://www.w3.org/2000/svg"
   xmlns:sodipodi="http://sodipodi.sourceforge.net/DTD/sodipodi-0.dtd"
   xmlns:inkscape="http://www.inkscape.org/namespaces/inkscape"
   width="1030.3654"
   height="1150.7943"
   id="svg2"
   version="1.1"
   inkscape:version="0.47pre4 r22446"
   sodipodi:docname="New document 1">
  <defs
     id="defs4">
    <inkscape:perspective
       sodipodi:type="inkscape:persp3d"
       inkscape:vp_x="0 : 526.18109 : 1"
       inkscape:vp_y="0 : 1000 : 0"
       inkscape:vp_z="744.09448 : 526.18109 : 1"
       inkscape:persp3d-origin="372.04724 : 350.78739 : 1"
       id="perspective10" />
  </defs>
  <sodipodi:namedview
     id="base"
     pagecolor="#ffffff"
     bordercolor="#666666"
     borderopacity="1.0"
     inkscape:pageopacity="0.0"
     inkscape:pageshadow="2"
     inkscape:zoom="0.35"
     inkscape:cx="711.53421"
     inkscape:cy="509.78242"
     inkscape:document-units="px"
     inkscape:current-layer="layer1"
     showgrid="false"
     inkscape:window-width="1280"
     inkscape:window-height="726"
     inkscape:window-x="0"
     inkscape:window-y="25"
     inkscape:window-maximized="1" />
  <metadata
     id="metadata7">
    <rdf:RDF>
      <cc:Work
         rdf:about="">
        <dc:format>image/svg+xml</dc:format>
        <dc:type
           rdf:resource="http://purl.org/dc/dcmitype/StillImage" />
        <dc:title></dc:title>
      </cc:Work>
    </rdf:RDF>
  </metadata>
  <g
     inkscape:label="Layer 1"
     inkscape:groupmode="layer"
     id="layer1"
     transform="translate(336.53421,14.254439)">
    <path
       style="fill:#000000;fill-opacity:1;stroke:#000000;stroke-width:10;stroke-miterlimit:4;stroke-opacity:1;stroke-dasharray:none"
       id="path2816"
       d="m 554.54571,-9.2544385 c 6.84174,5.1359953 13.47213,10.4299802 19.87411,16.1074193 8.88203,8.6474092 16.99321,18.0988002 24.57171,27.8987592 10.44728,14.619478 21.58456,28.695628 31.9037,43.409491 11.74568,16.654061 22.59093,33.898009 33.43058,51.145999 7.84751,11.73375 15.17699,23.89807 24.50533,34.54088 0,0 -2.78193,0.19998 -2.78193,0.19998 l 0,0 C 676.76417,153.36595 669.43164,141.20637 661.59704,129.4604 650.77284,112.20973 639.92978,94.971439 628.17969,78.327616 617.84873,63.617891 606.69837,49.546744 596.23615,34.933626 588.64477,25.153254 580.53995,15.705799 571.63786,7.0887589 565.23013,1.4107336 558.57692,-3.8655648 551.72907,-9.001374 c 0,0 2.81664,-0.2530645 2.81664,-0.2530645 z" />
    <path
       style="fill:#000000;fill-opacity:1;stroke:#000000;stroke-width:10;stroke-miterlimit:4;stroke-opacity:1;stroke-dasharray:none"
       id="path2818"
       d="M 560.04266,0.21003658 C 554.18072,8.689573 547.39751,16.473167 540.9438,24.499352 c -7.46662,8.721069 -14.61724,17.702578 -22.12407,26.389466 -8.05384,9.122122 -15.87341,18.435675 -24.07856,27.425905 -8.67718,9.468151 -17.27283,18.994895 -26.39738,28.038467 -8.83699,8.57571 -17.68554,17.13908 -26.47029,25.76839 -7.59266,7.19318 -15.03198,14.54934 -22.82444,21.53074 -6.81149,5.77499 -13.05561,12.18731 -19.84741,17.97724 -3.34311,3.21401 -6.97175,6.12483 -10.79832,8.74163 -0.31153,0.0378 -0.62307,0.0755 -0.93461,0.11329 0,0 -2.81142,-0.43458 -2.81142,-0.43458 l 0,0 c 0.30543,0.0148 0.61085,0.0297 0.91628,0.0445 3.84974,-2.58662 7.49457,-5.48674 10.83415,-8.70754 6.81311,-5.76736 13.03961,-12.20369 19.86198,-17.96871 7.79733,-6.97481 15.23214,-14.33277 22.83173,-21.51728 8.79075,-8.62587 17.63697,-17.19437 26.48025,-25.76631 9.12406,-9.038541 17.72452,-18.554453 26.39344,-28.024888 8.20751,-8.983386 16.02041,-18.297779 24.06977,-27.41901 7.51087,-8.68013 14.65529,-17.663325 22.12364,-26.379555 6.44588,-8.012941 13.22153,-15.7858018 19.05469,-24.26702492 0,0 2.81943,0.1659745 2.81943,0.1659745 z" />
    <path
       style="fill:#000000;fill-opacity:1;stroke:#000000;stroke-width:10;stroke-miterlimit:4;stroke-opacity:1;stroke-dasharray:none"
       id="path2820"
       d="m 406.30849,198.22003 c 7.05548,1.46189 13.10268,4.6703 18.9285,8.76724 7.26978,5.62725 13.39723,12.58594 19.98697,18.977 8.34616,8.9679 17.14068,17.5019 26.38111,25.54404 8.26979,7.73438 16.68318,15.26158 26.0212,21.67511 5.46671,3.93925 10.89951,7.77301 15.50784,12.71677 0.23365,0.41063 0.46729,0.82126 0.70093,1.23189 0,0 -2.83477,0.14873 -2.83477,0.14873 l 0,0 c -0.22895,-0.38949 -0.4579,-0.77898 -0.68685,-1.16847 -4.59421,-4.92091 -10.03037,-8.72282 -15.46559,-12.65913 -9.32724,-6.43268 -17.72306,-13.98701 -26.00595,-21.70835 -9.23505,-8.05843 -18.0314,-16.59815 -26.39604,-25.55775 -6.58075,-6.38966 -12.71398,-13.33719 -20.00235,-18.93101 -5.82179,-4.06824 -11.89175,-7.23028 -18.93654,-8.63966 0,0 2.80154,-0.39641 2.80154,-0.39641 z" />
    <path
       style="fill:#000000;fill-opacity:1;stroke:#000000;stroke-width:10;stroke-miterlimit:4;stroke-opacity:1;stroke-dasharray:none"
       id="path2822"
       d="m 368.95792,194.47827 c -4.11137,8.49169 -10.31332,15.42891 -16.82064,22.12716 -8.39785,8.48699 -17.2657,16.48998 -26.14954,24.46255 -9.335,8.29186 -18.35133,16.92971 -27.28867,25.64545 -7.78279,7.73186 -15.85039,15.147 -23.54043,22.97393 -5.51462,5.07737 -10.08617,11.01198 -15.15058,16.49557 -2.23476,2.14185 -4.25922,4.46714 -6.45198,6.65028 0,0 -2.80978,-0.22237 -2.80978,-0.22237 l 0,0 c 2.20187,-2.17336 4.21377,-4.5047 6.4562,-6.63811 5.09149,-5.46501 9.63116,-11.43959 15.16936,-16.50239 7.70408,-7.82184 15.76465,-15.25192 23.56185,-22.97798 8.93626,-8.72165 17.95564,-17.36144 27.29198,-25.65673 8.876,-7.97011 17.74001,-15.96492 26.13442,-24.44477 6.48723,-6.67305 12.70339,-13.56274 16.77425,-22.0436 0,0 2.82356,0.13101 2.82356,0.13101 z" />
    <path
       style="fill:#000000;fill-opacity:1;stroke:#000000;stroke-width:10;stroke-miterlimit:4;stroke-opacity:1;stroke-dasharray:none"
       id="path2824"
       d="m 280.26,336.45985 c 7.42,6.41311 13.4656,14.4038 19.17902,22.34235 7.4879,9.91969 14.61657,20.0925 21.67865,30.31778 7.33009,9.42191 12.75242,19.99821 17.54215,30.87599 3.27722,7.57457 6.1833,15.30967 8.56638,23.21088 0,0 -2.79782,0.0819 -2.79782,0.0819 l 0,0 c -2.3758,-7.89044 -5.27694,-15.61432 -8.54932,-23.17741 -4.78193,-10.86292 -10.21687,-21.41024 -17.52749,-30.82392 -7.06657,-10.22197 -14.1979,-20.393 -21.68684,-30.31174 -5.71913,-7.92107 -11.75992,-15.90824 -19.22138,-22.26279 0,0 2.81665,-0.25306 2.81665,-0.25306 z" />
    <path
       style="fill:#000000;fill-opacity:1;stroke:#000000;stroke-width:10;stroke-miterlimit:4;stroke-opacity:1;stroke-dasharray:none"
       id="path2826"
       d="m 259.6993,354.18182 c -7.77079,7.34743 -15.4859,14.76097 -23.28104,22.08661 -10.29101,9.75997 -20.72614,19.34319 -31.59022,28.46318 -12.6609,10.69065 -25.20326,21.52671 -37.64731,32.46982 -13.11579,11.39912 -25.96314,23.05211 -38.5492,35.02992 -9.85142,9.49095 -19.51793,19.16933 -29.352899,28.68039 0,0 -2.750652,-0.22124 -2.750652,-0.22124 l 0,0 c 9.847181,-9.50635 19.523401,-19.18214 29.375041,-28.68067 12.58521,-11.98072 25.423,-23.64543 38.54402,-35.04116 12.44108,-10.94497 24.98196,-21.78114 37.63704,-32.47708 10.85876,-9.11355 21.29058,-18.68749 31.5684,-28.44954 7.78892,-7.31267 15.48714,-14.72588 23.23058,-22.08187 0,0 2.81624,0.22164 2.81624,0.22164 z" />
    <path
       style="fill:#000000;fill-opacity:1;stroke:#000000;stroke-width:10;stroke-miterlimit:4;stroke-opacity:1;stroke-dasharray:none"
       id="path2828"
       d="m 120.59878,533.59067 c 8.9953,5.7735 17.09287,12.68743 24.60564,20.26219 9.24306,9.77996 17.51158,20.42569 26.06527,30.80331 7.15682,8.49564 14.41036,16.88731 21.32085,25.58694 0.55649,0.97298 1.11299,1.94595 1.66949,2.91893 0,0 -2.80881,0.14643 -2.80881,0.14643 l 0,0 c -0.55203,-0.95923 -1.10406,-1.91846 -1.65609,-2.8777 -6.88896,-8.7069 -14.14523,-17.08597 -21.28702,-25.58392 -8.55054,-10.37287 -16.80987,-21.02042 -26.07035,-30.7771 -7.52737,-7.55802 -15.63318,-14.46186 -24.64966,-20.20195 0,0 2.81068,-0.27713 2.81068,-0.27713 z" />
    <path
       style="fill:#000000;fill-opacity:1;stroke:#000000;stroke-width:10;stroke-miterlimit:4;stroke-opacity:1;stroke-dasharray:none"
       id="path2830"
       d="m 105.06909,542.76586 c -10.870782,9.62736 -21.888997,19.07436 -33.242748,28.12891 -17.48104,13.77937 -35.15301,27.30727 -52.523854,41.23143 -18.9039329,15.39346 -36.644568,32.17792 -53.962436,49.32021 0,0 -2.703499,-0.21422 -2.703499,-0.21422 l 0,0 c 17.334293,-17.14161 35.0846312,-33.93162 53.984883,-49.34656 17.35689,-13.92462 35.012055,-27.45712 52.479721,-41.23613 11.336567,-9.04161 22.34693,-18.46648 33.157163,-28.13051 0,0 2.81077,0.24687 2.81077,0.24687 z" />
    <path
       style="fill:#000000;fill-opacity:1;stroke:#000000;stroke-width:10;stroke-miterlimit:4;stroke-opacity:1;stroke-dasharray:none"
       id="path2832"
       d="m -19.403405,698.58382 c 10.0576655,4.6087 18.1736366,12.15032 26.2373405,19.53904 12.1438725,11.2561 22.8840125,23.91069 33.4252375,36.64753 9.974595,12.88544 20.333021,25.45257 29.569664,38.88672 3.506049,4.88913 6.610332,10.04447 9.802366,15.13865 0,0 -2.782066,0.1557 -2.782066,0.1557 l 0,0 C 73.668217,803.8597 70.572187,798.70862 67.074508,793.82322 57.84323,780.39896 47.498348,767.83416 37.527777,754.95962 26.980747,742.23324 16.237795,729.58704 4.0794921,718.35194 -3.9855644,710.98358 -12.110947,703.44068 -22.209718,698.93617 c 0,0 2.806313,-0.35235 2.806313,-0.35235 z" />
    <path
       style="fill:#000000;fill-opacity:1;stroke:#000000;stroke-width:10;stroke-miterlimit:4;stroke-opacity:1;stroke-dasharray:none"
       id="path2834"
       d="m -31.729269,688.46754 c -7.701816,9.25387 -15.775497,18.18968 -23.753735,27.21103 -12.350069,14.35722 -24.626825,28.76798 -36.79099,43.28307 -15.572836,18.90341 -31.369196,37.61387 -47.748396,55.82419 -7.6655,8.68258 -15.37386,17.32649 -23.11662,25.94014 0,0 -2.70511,-0.19853 -2.70511,-0.19853 l 0,0 c 7.75288,-8.61076 15.47218,-17.25111 23.13928,-25.93848 16.3786,-18.2016 32.17089,-36.9063 47.724955,-55.81632 12.154385,-14.51462 24.41156,-28.93347 36.748387,-43.29336 7.966489,-9.01972 16.044922,-17.93956 23.685989,-27.23339 0,0 2.81624,0.22165 2.81624,0.22165 z" />
    <path
       style="fill:#000000;fill-opacity:1;stroke:#000000;stroke-width:10;stroke-miterlimit:4;stroke-opacity:1;stroke-dasharray:none"
       id="path2836"
       d="m -176.41493,920.5081 c -1.77377,4.54875 -0.86416,2.20923 -2.72802,7.01889 0,0 -2.80232,-0.10345 -2.80232,-0.10345 l 0,0 c 1.85311,-4.80196 0.95032,-2.47074 2.70743,-6.99402 0,0 2.82291,0.0786 2.82291,0.0786 z" />
    <path
       style="fill:#000000;fill-opacity:1;stroke:#000000;stroke-width:10;stroke-miterlimit:4;stroke-opacity:1;stroke-dasharray:none"
       id="path2838"
       d="m -227.49866,980.15041 c -1.13969,4.41633 -0.54729,2.12301 -1.77745,6.8799 0,0 -2.80541,-0.0708 -2.80541,-0.0708 l 0,0 c 1.21875,-4.74846 0.63446,-2.46309 1.7538,-6.85586 0,0 2.82906,0.0467 2.82906,0.0467 z" />
    <path
       style="fill:#000000;fill-opacity:1;stroke:#000000;stroke-width:10;stroke-miterlimit:4;stroke-opacity:1;stroke-dasharray:none"
       id="path2840"
       d="m -268.53017,1031.9706 c -3.77108,6.1682 -7.40373,12.3958 -11.45026,18.388 0,0 -2.76992,-0.1649 -2.76992,-0.1649 l 0,0 c 4.04511,-5.9779 7.66416,-12.1967 11.40355,-18.3695 0,0 2.81663,0.1464 2.81663,0.1464 z" />
    <path
       style="fill:#000000;fill-opacity:1;stroke:#000000;stroke-width:10;stroke-miterlimit:4;stroke-opacity:1;stroke-dasharray:none"
       id="path2842"
       d="m -321.78657,1106.2031 c -1.77764,8.5889 -4.02406,17.0737 -6.96582,25.3368 0,0 -2.78182,-0.095 -2.78182,-0.095 l 0,0 c 2.94716,-8.2389 5.19348,-16.7036 6.92297,-25.2814 0,0 2.82467,0.04 2.82467,0.04 z" />
  </g>
</svg>
