<?xml version="1.0" encoding="UTF-8" standalone="no"?>
<!-- Created with Inkscape (http://www.inkscape.org/) -->
<svg
   xmlns:dc="http://purl.org/dc/elements/1.1/"
   xmlns:cc="http://creativecommons.org/ns#"
   xmlns:rdf="http://www.w3.org/1999/02/22-rdf-syntax-ns#"
   xmlns:svg="http://www.w3.org/2000/svg"
   xmlns="http://www.w3.org/2000/svg"
   xmlns:sodipodi="http://sodipodi.sourceforge.net/DTD/sodipodi-0.dtd"
   xmlns:inkscape="http://www.inkscape.org/namespaces/inkscape"
   width="244.28754"
   height="104.6375"
   id="svg6405"
   sodipodi:version="0.32"
   inkscape:version="0.46+devel"
   version="1.0"
   sodipodi:docname="hw11d1.svg"
   inkscape:output_extension="org.inkscape.output.svg.inkscape">
  <defs
     id="defs6407">
    <inkscape:perspective
       sodipodi:type="inkscape:persp3d"
       inkscape:vp_x="0 : 526.18109 : 1"
       inkscape:vp_y="0 : 1000 : 0"
       inkscape:vp_z="744.09448 : 526.18109 : 1"
       inkscape:persp3d-origin="372.04724 : 350.78739 : 1"
       id="perspective6413" />
    <inkscape:perspective
       id="perspective6281"
       inkscape:persp3d-origin="0.5 : 0.33333333 : 1"
       inkscape:vp_z="1 : 0.5 : 1"
       inkscape:vp_y="0 : 1000 : 0"
       inkscape:vp_x="0 : 0.5 : 1"
       sodipodi:type="inkscape:persp3d" />
    <clipPath
       id="clipPath4324"
       clipPathUnits="userSpaceOnUse">
      <path
         id="path4326"
         d="m 618.5,2976.34 25,0 0,-42 -25,0 0,42 z" />
    </clipPath>
    <clipPath
       id="clipPath4298"
       clipPathUnits="userSpaceOnUse">
      <path
         id="path4300"
         d="m 573,2874.84 21,0 0,-43 -21,0 0,43 z" />
    </clipPath>
    <clipPath
       id="clipPath4250"
       clipPathUnits="userSpaceOnUse">
      <path
         id="path4252"
         d="m 186.5,2963.34 21,0 0,-43 -21,0 0,43 z" />
    </clipPath>
    <clipPath
       id="clipPath4202"
       clipPathUnits="userSpaceOnUse">
      <path
         id="path4204"
         d="m 736,2965.34 21,0 0,-43 -21,0 0,43 z" />
    </clipPath>
    <clipPath
       id="clipPath4178"
       clipPathUnits="userSpaceOnUse">
      <path
         id="path4180"
         d="m 547.5,2999.84 21,0 0,-43 -21,0 0,43 z" />
    </clipPath>
    <clipPath
       id="clipPath4148"
       clipPathUnits="userSpaceOnUse">
      <path
         id="path4150"
         d="m 835,2863.34 10.5,0 0,-42.5 -10.5,0 0,42.5 z" />
    </clipPath>
    <clipPath
       id="clipPath4122"
       clipPathUnits="userSpaceOnUse">
      <path
         id="path4124"
         d="m 110.5,2861.84 15,0 0,-42 -15,0 0,42 z" />
    </clipPath>
    <clipPath
       id="clipPath4072"
       clipPathUnits="userSpaceOnUse">
      <path
         id="path4074"
         d="m 548,2708.34 21,0 0,-43 -21,0 0,43 z" />
    </clipPath>
    <clipPath
       id="clipPath4048"
       clipPathUnits="userSpaceOnUse">
      <path
         id="path4050"
         d="m 378,2708.34 21,0 0,-43 -21,0 0,43 z" />
    </clipPath>
    <clipPath
       id="clipPath4034"
       clipPathUnits="userSpaceOnUse">
      <path
         id="path4036"
         d="m 274.5,2870.34 21,0 0,-43 -21,0 0,43 z" />
    </clipPath>
    <clipPath
       id="clipPath3974"
       clipPathUnits="userSpaceOnUse">
      <path
         id="path3976"
         d="m 624,2729.34 23,0 0,-43 -23,0 0,43 z" />
    </clipPath>
    <clipPath
       id="clipPath3948"
       clipPathUnits="userSpaceOnUse">
      <path
         id="path3950"
         d="m 456.5,2729.34 27,0 0,-42 -27,0 0,42 z" />
    </clipPath>
    <clipPath
       id="clipPath3922"
       clipPathUnits="userSpaceOnUse">
      <path
         id="path3924"
         d="m 468,2980.84 23,0 0,-42.5 -23,0 0,42.5 z" />
    </clipPath>
    <clipPath
       id="clipPath3896"
       clipPathUnits="userSpaceOnUse">
      <path
         id="path3898"
         d="m 282,2729.34 27,0 0,-43 -27,0 0,43 z" />
    </clipPath>
    <clipPath
       id="clipPath3870"
       clipPathUnits="userSpaceOnUse">
      <path
         id="path3872"
         d="m 282.5,2976.34 26.5,0 0,-42 -26.5,0 0,42 z" />
    </clipPath>
  </defs>
  <sodipodi:namedview
     id="base"
     pagecolor="#ffffff"
     bordercolor="#666666"
     borderopacity="1.0"
     inkscape:pageopacity="0.0"
     inkscape:pageshadow="2"
     inkscape:zoom="4.3674593"
     inkscape:cx="122.14377"
     inkscape:cy="52.318747"
     inkscape:document-units="px"
     inkscape:current-layer="layer1"
     showgrid="false"
     inkscape:window-width="1280"
     inkscape:window-height="708"
     inkscape:window-x="-5"
     inkscape:window-y="-3" />
  <metadata
     id="metadata6410">
    <rdf:RDF>
      <cc:Work
         rdf:about="">
        <dc:format>image/svg+xml</dc:format>
        <dc:type
           rdf:resource="http://purl.org/dc/dcmitype/StillImage" />
        <dc:title></dc:title>
      </cc:Work>
    </rdf:RDF>
  </metadata>
  <g
     inkscape:label="Layer 1"
     inkscape:groupmode="layer"
     id="layer1"
     transform="translate(-914.99911,-294.32915)">
    <path
       id="path3864"
       style="fill:none;stroke:#000000;stroke-width:2.18749499;stroke-linecap:round;stroke-linejoin:round;stroke-miterlimit:10;stroke-opacity:1;stroke-dasharray:none"
       d="m 982.54286,296.7729 c -6.9,0 -12.6,6 -12.6,13.35 0,7.35 5.7,13.35 12.6,13.35 7.05,0 12.75,-6 12.75,-13.35 0,-7.35 -5.7,-13.35 -12.75,-13.35 z" />
    <g
       id="g3866"
       transform="matrix(0.3,0,0,-0.3,893.59286,1196.7248)">
      <g
         clip-path="url(#clipPath3870)"
         id="g3868">
        <g
           transform="scale(4.16667,4.16667)"
           id="g3874">
          <text
             id="text3876"
             transform="matrix(0.999427,0,0,-1,67.8,706.161)">
            <tspan
               id="tspan3878"
               y="0"
               x="0"
               style="font-size:9px;font-variant:normal;font-weight:bold;writing-mode:lr-tb;fill:#000000;fill-opacity:1;fill-rule:nonzero;stroke:none;font-family:Helvetica;-inkscape-font-specification:Helvetica-Bold">A</tspan>
          </text>
        </g>
      </g>
    </g>
    <path
       id="path3890"
       style="fill:none;stroke:#000000;stroke-width:2.18749499;stroke-linecap:round;stroke-linejoin:round;stroke-miterlimit:10;stroke-opacity:1;stroke-dasharray:none"
       d="m 982.54286,370.8729 c -6.9,0 -12.6,6 -12.6,13.5 0,7.5 5.7,13.5 12.6,13.5 7.05,0 12.75,-6 12.75,-13.5 0,-7.5 -5.7,-13.5 -12.75,-13.5 z" />
    <g
       id="g3892"
       transform="matrix(0.3,0,0,-0.3,893.59286,1196.7248)">
      <g
         clip-path="url(#clipPath3896)"
         id="g3894">
        <g
           transform="scale(4.16667,4.16667)"
           id="g3900">
          <text
             id="text3902"
             transform="matrix(0.999427,0,0,-1,67.68,646.881)">
            <tspan
               id="tspan3904"
               y="0"
               x="0"
               style="font-size:9px;font-variant:normal;font-weight:bold;writing-mode:lr-tb;fill:#000000;fill-opacity:1;fill-rule:nonzero;stroke:none;font-family:Helvetica;-inkscape-font-specification:Helvetica-Bold">B</tspan>
          </text>
        </g>
      </g>
    </g>
    <path
       id="path3916"
       style="fill:none;stroke:#000000;stroke-width:2.18749499;stroke-linecap:round;stroke-linejoin:round;stroke-miterlimit:10;stroke-opacity:1;stroke-dasharray:none"
       d="m 1037.4429,295.4229 c -7.8,0 -14.1,6 -14.1,13.35 0,7.5 6.3,13.5 14.1,13.5 7.65,0 13.95,-6 13.95,-13.5 0,-7.35 -6.3,-13.35 -13.95,-13.35 z" />
    <g
       id="g3918"
       transform="matrix(0.3,0,0,-0.3,893.59286,1196.7248)">
      <g
         clip-path="url(#clipPath3922)"
         id="g3920">
        <g
           transform="scale(4.16667,4.16667)"
           id="g3926">
          <text
             id="text3928"
             transform="matrix(0.999427,0,0,-1,112.32,705.561)">
            <tspan
               id="tspan3930"
               y="0"
               x="0"
               style="font-size:9px;font-variant:normal;font-weight:bold;writing-mode:lr-tb;fill:#000000;fill-opacity:1;fill-rule:nonzero;stroke:none;font-family:ComicSansMS;-inkscape-font-specification:ComicSansMS Bold">C</tspan>
          </text>
        </g>
      </g>
    </g>
    <path
       id="path3942"
       style="fill:none;stroke:#000000;stroke-width:2.18749499;stroke-linecap:round;stroke-linejoin:round;stroke-miterlimit:10;stroke-opacity:1;stroke-dasharray:none"
       d="m 1035.4929,370.8729 c -6.75,0 -12.15,6 -12.15,13.35 0,7.2 5.4,13.2 12.15,13.2 6.75,0 12.15,-6 12.15,-13.2 0,-7.35 -5.4,-13.35 -12.15,-13.35 z" />
    <g
       id="g3944"
       transform="matrix(0.3,0,0,-0.3,893.59286,1196.7248)">
      <g
         clip-path="url(#clipPath3948)"
         id="g3946">
        <g
           transform="scale(4.16667,4.16667)"
           id="g3952">
          <text
             id="text3954"
             transform="matrix(0.999427,0,0,-1,109.56,645.201)">
            <tspan
               id="tspan3956"
               y="0"
               x="0"
               style="font-size:9px;font-variant:normal;font-weight:bold;writing-mode:lr-tb;fill:#000000;fill-opacity:1;fill-rule:nonzero;stroke:none;font-family:ComicSansMS;-inkscape-font-specification:ComicSansMS Bold">D</tspan>
          </text>
        </g>
      </g>
    </g>
    <path
       id="path3968"
       style="fill:none;stroke:#000000;stroke-width:2.18749499;stroke-linecap:round;stroke-linejoin:round;stroke-miterlimit:10;stroke-opacity:1;stroke-dasharray:none"
       d="m 1084.0929,370.8729 c -7.05,0 -12.75,6 -12.75,13.5 0,7.5 5.7,13.5 12.75,13.5 6.9,0 12.6,-6 12.6,-13.5 0,-7.5 -5.7,-13.5 -12.6,-13.5 z" />
    <g
       id="g3970"
       transform="matrix(0.3,0,0,-0.3,893.59286,1196.7248)">
      <g
         clip-path="url(#clipPath3974)"
         id="g3972">
        <g
           transform="scale(4.16667,4.16667)"
           id="g3978">
          <text
             id="text3980"
             transform="matrix(0.999427,0,0,-1,149.76,646.881)">
            <tspan
               id="tspan3982"
               y="0"
               x="0"
               style="font-size:9px;font-variant:normal;font-weight:bold;writing-mode:lr-tb;fill:#000000;fill-opacity:1;fill-rule:nonzero;stroke:none;font-family:Helvetica;-inkscape-font-specification:Helvetica-Bold">F</tspan>
          </text>
        </g>
      </g>
    </g>
    <path
       id="path3994"
       style="fill:none;stroke:#000000;stroke-width:0.9375;stroke-linecap:round;stroke-linejoin:round;stroke-miterlimit:10;stroke-opacity:1;stroke-dasharray:none"
       d="m 982.54286,369.8229 0.15,-45.3" />
    <path
       id="path3996"
       style="fill:none;stroke:#000000;stroke-width:0.9375;stroke-linecap:round;stroke-linejoin:round;stroke-miterlimit:10;stroke-opacity:1;stroke-dasharray:none"
       d="m 1070.2929,310.1229 -17.85,-1.35" />
    <path
       id="path3998"
       style="fill:none;stroke:#000000;stroke-width:0.9375;stroke-linecap:round;stroke-linejoin:round;stroke-miterlimit:10;stroke-opacity:1;stroke-dasharray:none"
       d="m 1048.6929,384.2229 21.6,0.15" />
    <path
       id="path4002"
       style="fill:none;stroke:#000000;stroke-width:0.9375;stroke-linecap:round;stroke-linejoin:round;stroke-miterlimit:10;stroke-opacity:1;stroke-dasharray:none"
       d="m 994.84286,384.9729 27.45004,-0.75" />
    <path
       id="path4004"
       style="fill:none;stroke:#000000;stroke-width:0.9375;stroke-linecap:round;stroke-linejoin:round;stroke-miterlimit:10;stroke-opacity:1;stroke-dasharray:none"
       d="m 968.89286,310.1229 -31.05,23.85" />
    <g
       id="g4030"
       transform="matrix(0.3,0,0,-0.3,893.59286,1196.7248)">
      <g
         clip-path="url(#clipPath4034)"
         id="g4032">
        <g
           transform="scale(4.16667,4.16667)"
           id="g4038">
          <text
             id="text4040"
             transform="matrix(0.999427,0,0,-1,65.88,680.721)">
            <tspan
               id="tspan4042"
               y="0"
               x="0"
               style="font-size:9px;font-variant:normal;font-weight:bold;writing-mode:lr-tb;fill:#000000;fill-opacity:1;fill-rule:nonzero;stroke:none;font-family:Arial;-inkscape-font-specification:Arial Bold">1</tspan>
          </text>
        </g>
      </g>
    </g>
    <g
       id="g4044"
       transform="matrix(0.3,0,0,-0.3,893.59286,1196.7248)">
      <g
         clip-path="url(#clipPath4048)"
         id="g4046">
        <g
           transform="scale(4.16667,4.16667)"
           id="g4052">
          <text
             id="text4054"
             transform="matrix(0.999427,0,0,-1,90.72,641.841)">
            <tspan
               id="tspan4056"
               y="0"
               x="0"
               style="font-size:9px;font-variant:normal;font-weight:bold;writing-mode:lr-tb;fill:#000000;fill-opacity:1;fill-rule:nonzero;stroke:none;font-family:Arial;-inkscape-font-specification:Arial Bold">1</tspan>
          </text>
        </g>
      </g>
    </g>
    <g
       id="g4068"
       transform="matrix(0.3,0,0,-0.3,893.59286,1196.7248)">
      <g
         clip-path="url(#clipPath4072)"
         id="g4070">
        <g
           transform="scale(4.16667,4.16667)"
           id="g4076">
          <text
             id="text4078"
             transform="matrix(0.999427,0,0,-1,131.52,641.841)">
            <tspan
               id="tspan4080"
               y="0"
               x="0"
               style="font-size:9px;font-variant:normal;font-weight:bold;writing-mode:lr-tb;fill:#000000;fill-opacity:1;fill-rule:nonzero;stroke:none;font-family:Arial;-inkscape-font-specification:Arial Bold">2</tspan>
          </text>
        </g>
      </g>
    </g>
    <path
       id="path4116"
       style="fill:none;stroke:#000000;stroke-width:2.18749499;stroke-linecap:round;stroke-linejoin:round;stroke-miterlimit:10;stroke-opacity:1;stroke-dasharray:none"
       d="m 928.84286,330.9729 c -7.05,0 -12.75,6 -12.75,13.5 0,7.35 5.7,13.35 12.75,13.35 6.9,0 12.6,-6 12.6,-13.35 0,-7.5 -5.7,-13.5 -12.6,-13.5 z" />
    <g
       id="g4118"
       transform="matrix(0.3,0,0,-0.3,893.59286,1196.7248)">
      <g
         clip-path="url(#clipPath4122)"
         id="g4120">
        <g
           transform="scale(4.16667,4.16667)"
           id="g4126">
          <text
             id="text4128"
             transform="matrix(0.999427,0,0,-1,26.52,678.681)">
            <tspan
               id="tspan4130"
               y="0"
               x="0"
               style="font-size:9px;font-variant:normal;font-weight:bold;writing-mode:lr-tb;fill:#000000;fill-opacity:1;fill-rule:nonzero;stroke:none;font-family:Helvetica;-inkscape-font-specification:Helvetica-Bold">r</tspan>
          </text>
        </g>
      </g>
    </g>
    <path
       id="path4142"
       style="fill:none;stroke:#000000;stroke-width:2.18749499;stroke-linecap:round;stroke-linejoin:round;stroke-miterlimit:10;stroke-opacity:1;stroke-dasharray:none"
       d="m 1145.5929,330.6729 c -7.05,0 -12.75,6 -12.75,13.5 0,7.35 5.7,13.35 12.75,13.35 6.9,0 12.6,-6 12.6,-13.35 0,-7.5 -5.7,-13.5 -12.6,-13.5 z" />
    <g
       id="g4144"
       transform="matrix(0.3,0,0,-0.3,893.59286,1196.7248)">
      <g
         clip-path="url(#clipPath4148)"
         id="g4146">
        <g
           transform="scale(4.16667,4.16667)"
           id="g4152">
          <text
             id="text4154"
             transform="matrix(0.999427,0,0,-1,200.4,679.041)">
            <tspan
               id="tspan4156"
               y="0"
               x="0"
               style="font-size:9px;font-variant:normal;font-weight:bold;writing-mode:lr-tb;fill:#000000;fill-opacity:1;fill-rule:nonzero;stroke:none;font-family:Helvetica;-inkscape-font-specification:Helvetica-Bold">I</tspan>
          </text>
        </g>
      </g>
    </g>
    <path
       id="path4172"
       style="fill:none;stroke:#000000;stroke-width:0.9375;stroke-linecap:round;stroke-linejoin:round;stroke-miterlimit:10;stroke-opacity:1;stroke-dasharray:none"
       d="m 1136.5929,333.5229 -40.05,-23.4" />
    <g
       id="g4174"
       transform="matrix(0.3,0,0,-0.3,893.59286,1196.7248)">
      <g
         clip-path="url(#clipPath4178)"
         id="g4176">
        <g
           transform="scale(4.16667,4.16667)"
           id="g4182">
          <text
             id="text4184"
             transform="matrix(0.999427,0,0,-1,131.4,711.801)">
            <tspan
               id="tspan4186"
               y="0"
               x="0"
               style="font-size:9px;font-variant:normal;font-weight:bold;writing-mode:lr-tb;fill:#000000;fill-opacity:1;fill-rule:nonzero;stroke:none;font-family:Arial;-inkscape-font-specification:Arial Bold">7</tspan>
          </text>
        </g>
      </g>
    </g>
    <g
       id="g4198"
       transform="matrix(0.3,0,0,-0.3,893.59286,1196.7248)">
      <g
         clip-path="url(#clipPath4202)"
         id="g4200">
        <g
           transform="scale(4.16667,4.16667)"
           id="g4206">
          <text
             id="text4208"
             transform="matrix(0.999427,0,0,-1,176.64,703.521)">
            <tspan
               id="tspan4210"
               y="0"
               x="0"
               style="font-size:9px;font-variant:normal;font-weight:bold;writing-mode:lr-tb;fill:#000000;fill-opacity:1;fill-rule:nonzero;stroke:none;font-family:Arial;-inkscape-font-specification:Arial Bold">9</tspan>
          </text>
        </g>
      </g>
    </g>
    <g
       id="g4246"
       transform="matrix(0.3,0,0,-0.3,893.59286,1196.7248)">
      <g
         clip-path="url(#clipPath4250)"
         id="g4248">
        <g
           transform="scale(4.16667,4.16667)"
           id="g4254">
          <text
             id="text4256"
             transform="matrix(0.999427,0,0,-1,44.76,703.041)">
            <tspan
               id="tspan4258"
               y="0"
               x="0"
               style="font-size:9px;font-variant:normal;font-weight:bold;writing-mode:lr-tb;fill:#000000;fill-opacity:1;fill-rule:nonzero;stroke:none;font-family:Arial;-inkscape-font-specification:Arial Bold">4</tspan>
          </text>
        </g>
      </g>
    </g>
    <g
       id="g4294"
       transform="matrix(0.3,0,0,-0.3,893.59286,1196.7248)">
      <g
         clip-path="url(#clipPath4298)"
         id="g4296">
        <g
           transform="scale(4.16667,4.16667)"
           id="g4302">
          <text
             id="text4304"
             transform="matrix(0.999427,0,0,-1,137.52,681.801)">
            <tspan
               id="tspan4306"
               y="0"
               x="0"
               style="font-size:9px;font-variant:normal;font-weight:bold;writing-mode:lr-tb;fill:#000000;fill-opacity:1;fill-rule:nonzero;stroke:none;font-family:Arial;-inkscape-font-specification:Arial Bold">4</tspan>
          </text>
        </g>
      </g>
    </g>
    <path
       id="path4318"
       style="fill:none;stroke:#000000;stroke-width:2.18749499;stroke-linecap:round;stroke-linejoin:round;stroke-miterlimit:10;stroke-opacity:1;stroke-dasharray:none"
       d="m 1083.4929,296.7729 c -6.75,0 -12.15,6 -12.15,13.35 0,7.35 5.4,13.35 12.15,13.35 6.6,0 12,-6 12,-13.35 0,-7.35 -5.4,-13.35 -12,-13.35 z" />
    <g
       id="g4320"
       transform="matrix(0.3,0,0,-0.3,893.59286,1196.7248)">
      <g
         clip-path="url(#clipPath4324)"
         id="g4322">
        <g
           transform="scale(4.16667,4.16667)"
           id="g4328">
          <text
             id="text4330"
             transform="matrix(0.999427,0,0,-1,148.44,706.161)">
            <tspan
               id="tspan4332"
               y="0"
               x="0"
               style="font-size:9px;font-variant:normal;font-weight:bold;writing-mode:lr-tb;fill:#000000;fill-opacity:1;fill-rule:nonzero;stroke:none;font-family:Helvetica;-inkscape-font-specification:Helvetica-Bold">E</tspan>
          </text>
        </g>
      </g>
    </g>
    <path
       id="path4344"
       style="fill:none;stroke:#000000;stroke-width:0.9375;stroke-linecap:round;stroke-linejoin:round;stroke-miterlimit:10;stroke-opacity:1;stroke-dasharray:none"
       d="m 1075.0929,373.7229 -27.75,-54.45" />
  </g>
</svg>
