<?xml version="1.0" encoding="UTF-8" standalone="no"?>
<!-- Created with Inkscape (http://www.inkscape.org/) -->
<svg
   xmlns:dc="http://purl.org/dc/elements/1.1/"
   xmlns:cc="http://creativecommons.org/ns#"
   xmlns:rdf="http://www.w3.org/1999/02/22-rdf-syntax-ns#"
   xmlns:svg="http://www.w3.org/2000/svg"
   xmlns="http://www.w3.org/2000/svg"
   xmlns:sodipodi="http://sodipodi.sourceforge.net/DTD/sodipodi-0.dtd"
   xmlns:inkscape="http://www.inkscape.org/namespaces/inkscape"
   width="1976.3075"
   height="1030.0629"
   id="svg2"
   sodipodi:version="0.32"
   inkscape:version="0.46+devel r20655"
   sodipodi:docname="hw1d1.svg"
   version="1.0"
   inkscape:output_extension="org.inkscape.output.svg.inkscape">
  <sodipodi:namedview
     id="base"
     pagecolor="#ffffff"
     bordercolor="#666666"
     borderopacity="1.0"
     inkscape:pageopacity="0.0"
     inkscape:pageshadow="2"
     inkscape:zoom="0.35"
     inkscape:cx="951.64"
     inkscape:cy="479.66175"
     inkscape:document-units="px"
     inkscape:current-layer="layer1"
     showgrid="false"
     inkscape:window-width="1280"
     inkscape:window-height="712"
     inkscape:window-x="-5"
     inkscape:window-y="-3" />
  <defs
     id="defs4">
    <marker
       style="overflow:visible"
       id="DotL"
       refX="0"
       refY="0"
       orient="auto"
       inkscape:stockid="DotL">
      <path
         transform="matrix(0.8,0,0,0.8,5.92,0.8)"
         style="fill-rule:evenodd;stroke:#000000;stroke-width:1pt;marker-start:none;marker-end:none"
         d="m -2.5,-1 c 0,2.76 -2.24,5 -5,5 -2.76,0 -5,-2.24 -5,-5 0,-2.76 2.24,-5 5,-5 2.76,0 5,2.24 5,5 z"
         id="path3787" />
    </marker>
    <inkscape:perspective
       id="perspective10"
       inkscape:persp3d-origin="372.04724 : 350.78739 : 1"
       inkscape:vp_z="744.09448 : 526.18109 : 1"
       inkscape:vp_y="0 : 1000 : 0"
       inkscape:vp_x="0 : 526.18109 : 1"
       sodipodi:type="inkscape:persp3d" />
  </defs>
  <metadata
     id="metadata7">
    <rdf:RDF>
      <cc:Work
         rdf:about="">
        <dc:format>image/svg+xml</dc:format>
        <dc:type
           rdf:resource="http://purl.org/dc/dcmitype/StillImage" />
        <dc:title></dc:title>
      </cc:Work>
    </rdf:RDF>
  </metadata>
  <g
     id="layer1"
     inkscape:groupmode="layer"
     inkscape:label="Layer 1"
     transform="translate(576.64,147.62221)">
    <path
       sodipodi:nodetypes="czszz"
       id="path2948"
       d="m -540,272.36218 c 0,0 1240.87596,-1.01099 1477.14286,0 239.11994,1.0232 350.08804,143.70154 333.56004,276.34758 -19.7957,158.87182 -270.96216,320.79371 -544.98861,329.36671 -274.02645,8.573 -575.41934,-132.51636 -549.70506,-603.94494"
       style="fill:none;stroke:#000000;stroke-width:8;stroke-miterlimit:4;stroke-opacity:1;stroke-dasharray:none;marker-start:url(#DotL);marker-end:url(#DotL)" />
    <path
       transform="translate(2248.5714,-77.142858)"
       d="m -940.00003,589.50507 c 0,20.50285 -16.64,37.14285 -37.14285,37.14285 -20.50286,0 -37.14282,-16.64 -37.14282,-37.14285 0,-20.50286 16.63996,-37.14286 37.14282,-37.14286 20.50285,0 37.14285,16.64 37.14285,37.14286 z"
       sodipodi:ry="37.142857"
       sodipodi:rx="37.142857"
       sodipodi:cy="589.50507"
       sodipodi:cx="-977.14288"
       id="path4538"
       style="fill:#000000;fill-opacity:1;stroke:#000000;stroke-width:8;stroke-linecap:round;stroke-linejoin:round;stroke-miterlimit:4;stroke-opacity:1;stroke-dasharray:none;stroke-dashoffset:0"
       sodipodi:type="arc" />
    <path
       d="m -541.82094,202.09269 c 1.93291,-4.84747 4.80756,-9.20014 7.86433,-13.39667 4.58276,-6.06217 10.25854,-11.12203 16.22378,-15.77438 9.49627,-6.90156 19.7121,-12.94359 30.65192,-17.24812 7.41779,-2.81536 15.23586,-4.18659 23.06801,-5.21509 8.47536,-1.13768 17.03219,-1.08171 25.55349,-0.66588 10.49525,0.57778 20.90237,2.13347 31.25207,3.90792 11.76355,2.04769 23.41799,4.65719 35.13463,6.94781 13.48438,2.67696 27.14041,4.26429 40.8173,5.53985 15.60685,1.32526 31.26082,2.02017 46.91931,2.27779 17.32548,0.26982 34.63074,-0.75602 51.89285,-2.12098 19.0417,-1.75178 38.01046,-4.19732 56.9363,-6.90976 20.12502,-2.88359 40.18916,-6.18354 60.20808,-9.72534 19.150153,-3.52594 38.219381,-7.47745 57.157477,-12.00544 15.272639,-3.6237 30.400548,-7.83741 45.420008,-12.39131 9.3905159,-2.74552 18.5649557,-6.24038 28.095031,-8.48762 4.817074,-1.0943 9.289528,-0.71288 13.67464,1.49363 4.052051,2.56623 7.305807,6.14743 10.943434,9.24149 5.623316,4.79583 12.180965,8.1135 18.932376,10.99099 10.129429,3.93465 20.900461,5.71658 31.568146,7.50342 13.368988,2.13935 26.867158,3.25356 40.366658,4.15259 14.86473,0.89122 29.75406,1.22379 44.63235,1.80955 15.01772,0.39436 29.87588,2.24727 44.4527,5.84163 12.40924,3.12092 23.59273,9.05635 33.83692,16.58105 6.6117,5.04918 11.95543,11.43331 17.4529,17.61076 0,0 -9.60399,5.80324 -9.60399,5.80324 l 0,0 c -5.39,-6.16031 -10.67849,-12.47972 -17.24096,-17.45791 -10.1654,-7.40538 -21.25491,-13.21667 -33.5457,-16.25236 -14.53364,-3.51329 -29.33898,-5.30467 -44.29504,-5.68187 -14.89343,-0.57401 -29.79831,-0.89813 -44.67647,-1.81592 -13.53616,-0.91364 -27.069839,-2.05118 -40.473335,-4.2122 -10.752413,-1.81292 -21.607007,-3.63364 -31.793945,-7.67185 -6.838956,-2.95557 -13.481681,-6.35278 -19.180521,-11.23109 -3.569478,-3.03386 -6.778042,-6.56415 -10.829819,-8.9683 -4.264981,-1.93724 -8.601255,-2.01319 -13.1583914,-0.914 -9.445883,2.33085 -18.5879696,5.71696 -27.9244166,8.43528 -15.005746,4.49152 -30.108294,8.67542 -45.35809,12.26179 -18.940714,4.48311 -38.006072,8.4179 -57.152552,11.921 -20.03125,3.52574 -40.10449,6.8265 -60.23981,9.70473 -18.95213,2.7055 -37.94622,5.15758 -57.01582,6.8821 -17.29651,1.34868 -34.635,2.35613 -51.99332,2.06437 -15.68649,-0.28405 -31.3692,-0.97406 -47.00312,-2.32106 -13.71298,-1.29309 -27.40364,-2.90418 -40.92233,-5.60076 -11.71859,-2.29276 -23.3807,-4.87959 -35.15115,-6.90218 -10.33878,-1.73464 -20.73317,-3.25909 -31.21581,-3.76513 -8.49558,-0.34901 -17.01932,-0.3478 -25.45861,0.84587 -7.78784,1.0885 -15.55399,2.53236 -22.90072,5.43586 -4.40156,1.80085 -13.13369,7.04282 -1.22707,-0.44735 7.14962,-4.49765 -17.65608,10.06709 -10.18562,6.59963 -5.98349,4.54822 -11.67126,9.51591 -16.31102,15.47015 -3.05048,4.0957 -5.9341,8.33216 -7.89326,13.07801 0,0 -10.30382,4.78206 -10.30382,4.78206 z"
       id="path4542"
       style="fill:#000000;fill-opacity:1;stroke:#000000;stroke-width:3;stroke-linecap:round;stroke-linejoin:round;stroke-miterlimit:4;stroke-opacity:1;stroke-dasharray:none;stroke-dashoffset:0" />
    <path
       d="m 284.4334,222.1786 c 5.21095,-3.85099 10.45571,-7.65619 15.67592,-11.49483 10.47544,-7.86373 20.72426,-16.02099 31.19081,-23.89726 14.76967,-11.21656 30.23551,-21.45004 46.02013,-31.16862 21.69133,-13.28962 44.20852,-25.09413 67.13796,-36.07237 20.12146,-9.71059 41.14922,-17.22165 62.44262,-23.87586 18.85508,-5.837055 38.17131,-9.844541 57.69128,-12.622663 15.44193,-2.129227 30.97437,-2.214429 46.44617,-0.564612 12.05518,1.497235 23.72152,4.845345 35.20705,8.68382 9.59092,3.379359 19.0545,7.077586 28.77405,10.080205 9.54138,3.0051 19.4433,4.29956 29.39304,4.87566 11.29996,0.45786 22.5842,-0.60737 33.81101,-1.76324 13.1162,-1.43952 26.10642,-3.75436 39.06789,-6.185363 14.5383,-2.855124 28.99107,-6.112689 43.41844,-9.477442 14.02653,-3.363674 27.97766,-7.024713 41.91772,-10.726561 10.87665,-2.937595 21.69124,-6.080436 32.43944,-9.456038 5.74458,-1.842981 11.57018,-3.989675 17.6814,-3.643925 3.79052,0.596643 6.06236,3.347033 8.27948,6.206531 2.9126,4.306558 6.23187,8.238858 9.91639,11.898002 5.87066,5.404897 12.87884,9.238162 19.93305,12.846061 10.2133,4.982105 21.0121,8.549185 31.92495,11.627635 14.70091,4.03453 29.7725,6.44402 44.798,8.89341 18.2922,2.65828 36.5469,5.53635 54.7372,8.82086 19.8689,3.44593 39.6388,7.3871 59.2877,11.91693 20.7681,4.65529 41.189,10.62301 61.412,17.2222 20.6883,6.74589 40.599,15.47287 59.9743,25.32166 19.5844,10.09468 37.93,22.32564 55.5784,35.46208 17.6039,13.18067 32.9797,28.82821 46.9296,45.7513 13.2909,16.2751 22.2649,35.01209 28.406,54.96792 5.5086,19.44604 4.9715,39.40661 2.2311,59.20488 -2.3208,13.94413 -6.7174,27.36638 -12.2709,40.32312 0,0 -10.0536,4.61312 -10.0536,4.61312 l 0,0 c 5.6818,-12.86046 10.1389,-26.21895 12.5242,-40.11425 2.8147,-19.64892 3.436,-39.46373 -1.9907,-58.792 -6.0587,-19.83573 -14.9608,-38.44831 -28.1626,-54.61569 -13.9028,-16.85113 -29.2286,-32.42922 -46.7844,-45.53237 -17.6158,-13.0882 -35.9292,-25.26614 -55.4802,-35.3058 -19.3516,-9.79513 -39.2342,-18.47245 -59.8878,-25.17753 -20.2122,-6.56736 -40.6225,-12.49911 -61.3752,-17.13018 -19.6503,-4.50203 -39.4215,-8.41413 -59.2863,-11.85425 -18.2059,-3.2623 -36.4771,-6.1077 -54.7804,-8.76822 -15.0818,-2.44898 -30.20638,-4.87531 -44.95781,-8.93668 -10.97982,-3.12159 -21.8503,-6.72065 -32.12087,-11.76085 -7.15486,-3.668862 -14.25334,-7.585469 -20.18933,-13.093999 -3.71686,-3.694668 -7.07088,-7.663417 -10.04378,-11.985559 -2.07886,-2.632026 -4.14786,-5.096844 -7.72803,-5.381606 -5.99757,-0.01801 -11.6899,2.086043 -17.34848,3.863113 -10.73106,3.331955 -21.52812,6.433552 -32.38007,9.349278 -13.93414,3.691116 -27.88343,7.326734 -41.90497,10.674285 -14.44501,3.355604 -28.91228,6.619788 -43.46989,9.455888 -12.99233,2.42582 -26.01448,4.73149 -39.16374,6.14215 -11.27576,1.14647 -22.61223,2.17753 -33.95804,1.64499 -10.0111,-0.65588 -19.96606,-2.01867 -29.55666,-5.08826 -9.70535,-3.04144 -19.16262,-6.75606 -28.75821,-10.117708 -11.42169,-3.790223 -23.02302,-7.093429 -35.01078,-8.526133 -15.39446,-1.571011 -30.84507,-1.434354 -46.19708,0.718735 -19.46148,2.811491 -38.71735,6.853832 -57.51118,12.706736 -21.25953,6.68294 -42.24231,14.24722 -62.32486,23.98161 -16.52346,7.94723 -33.01096,16.12529 -48.49706,25.38229 -15.76833,9.6609 -31.21314,19.84893 -45.95321,31.03179 -10.429,7.83528 -20.63006,15.96287 -31.02429,23.84281 -5.17017,3.81574 -10.35808,7.60741 -15.52642,11.42504 0,0 -10.55044,4.19576 -10.55044,4.19576 z"
       id="path4546"
       style="fill:#000000;fill-opacity:1;stroke:#000000;stroke-width:3;stroke-linecap:round;stroke-linejoin:round;stroke-miterlimit:4;stroke-opacity:1;stroke-dasharray:none;stroke-dashoffset:0" />
    <path
       d="m 1211.9073,551.75563 c -1.7736,-3.43345 -4.5467,-6.02916 -7.4593,-8.48277 -4.6974,-3.87557 -10.251,-6.28455 -15.9556,-8.24541 -7.216,-2.42765 -14.7548,-2.92347 -22.3036,-2.94743 -9.113,0.19316 -18.0876,1.82317 -27.0119,3.53427 -9.4987,1.94949 -18.8106,4.68499 -28.0022,7.75054 -7.8679,2.65826 -15.6178,5.67217 -23.1935,9.07428 -2.5581,1.26402 -3.7997,1.84036 -6.2734,3.20492 -0.9571,0.52793 -3.8018,2.15846 -2.8417,1.63615 14.0257,-7.62991 5.3871,-2.85264 2.2065,-0.31153 -4.3052,3.63169 -7.4094,8.32493 -10.2476,13.12659 -2.8131,5.16536 -5.2024,10.54767 -7.332,16.02604 -2.3438,6.03525 -4.3588,12.19042 -6.462,18.31185 -2.368,6.86918 -5.1048,13.58728 -8.1661,20.17374 -3.4238,7.66762 -8.2139,14.53881 -13.1668,21.27127 -5.3596,6.94745 -11.1161,13.5793 -16.9005,20.17368 -6.0322,6.88715 -12.7409,13.11164 -19.62979,19.12237 -7.08938,6.01822 -14.67922,11.40941 -22.2611,16.78114 -7.88609,5.56334 -15.82919,11.04171 -23.66823,16.67196 -8.37158,6.19769 -17.08614,11.8929 -25.96345,17.33252 -12.81788,7.76701 -25.95043,14.98366 -39.19797,21.9829 -10.58802,5.53729 -21.54003,10.31179 -32.7284,14.48751 -11.00969,4.2181 -22.41857,7.15198 -33.93996,9.55915 -10.35678,2.12575 -20.84889,3.32535 -31.4131,3.53621 -8.59637,0.2017 -17.06622,-1.13924 -25.29497,-3.53075 -6.58276,-2.03315 -12.22768,-5.64523 -17.04313,-10.50306 -3.82057,-4.19492 -6.06574,-9.34855 -7.73238,-14.69722 -1.05213,-3.64287 -1.6216,-7.46564 -3.30737,-10.8898 -1.30177,-1.75306 -3.35335,-0.60013 -4.8466,0.29602 17.82252,-10.85728 3.97651,-1.90367 -0.0133,0.72694 -7.97597,5.12361 -16.21244,9.84602 -24.66163,14.14498 -6.69567,3.35598 -13.66087,6.10334 -20.63188,8.81965 -8.12593,3.19222 -16.58105,5.3844 -25.04026,7.48055 -8.73294,2.03206 -17.64586,2.92535 -26.5886,3.22363 -8.91499,0.21548 -17.70023,-1.16586 -26.38335,-3.02857 -9.15856,-2.10196 -17.87103,-5.63314 -26.39594,-9.51572 -8.94063,-4.23941 -17.73362,-8.7747 -26.41081,-13.5275 -8.97549,-4.81845 -17.59256,-10.23547 -26.05014,-15.9023 -8.73152,-5.89283 -17.35631,-11.93991 -25.81724,-18.21488 -8.67117,-6.25796 -16.95984,-13.01503 -25.06648,-19.98219 -7.89931,-6.77485 -15.28337,-14.11106 -22.39762,-21.69724 -6.7688,-7.34573 -13.13943,-15.05251 -19.20759,-22.98389 -5.80378,-7.66935 -10.97102,-15.77496 -15.42672,-24.29305 -4.51217,-8.39308 -7.53994,-17.40565 -9.97114,-26.58387 -2.55903,-9.64724 -3.20995,-19.59676 -3.57881,-29.52347 -0.24323,-10.7881 0.009,-21.57642 -0.10307,-32.36578 -0.10283,-11.47516 -1.38357,-22.8713 -3.06274,-34.20757 -1.81372,-12.41951 -5.44539,-24.42783 -9.75773,-36.17908 -5.11268,-13.45546 -12.37037,-25.90673 -20.25707,-37.89283 -9.16084,-13.9026 -20.64607,-25.91593 -32.66759,-37.33427 -12.56417,-12.04863 -27.05534,-21.49222 -42.50564,-29.35175 -7.54218,-3.66323 -15.57637,-5.96486 -23.60908,-8.23331 0,0 9.06705,-6.21044 9.06705,-6.21044 l 0,0 c 8.07639,2.32315 16.15321,4.68158 23.7262,8.41285 15.49786,7.96793 30.03744,17.51145 42.66323,29.62518 12.07794,11.48193 23.62171,23.55843 32.84204,37.52256 7.94575,12.04802 15.26151,24.56184 20.4349,38.08401 4.35797,11.80963 8.04126,23.87861 9.89304,36.36398 1.70991,11.3765 3.02837,22.81315 3.15259,34.33279 0.12549,10.77799 -0.11535,21.55434 0.10826,32.33132 0.35153,9.84687 0.96052,19.72051 3.48206,29.29482 2.39085,9.10426 5.37778,18.04275 9.84997,26.36492 4.42192,8.46361 9.55575,16.51529 15.32321,24.13186 6.04305,7.90331 12.3942,15.57758 19.14047,22.89292 7.0933,7.55118 14.44798,14.85978 22.32344,21.60166 8.09738,6.93954 16.36892,13.67702 25.02435,19.9143 8.45505,6.25644 17.0726,12.28742 25.79496,18.16554 8.44277,5.63787 17.05275,11.0129 26.00537,15.81271 8.66339,4.7289 17.43824,9.25068 26.37017,13.45378 8.48585,3.82148 17.16011,7.28403 26.27565,9.30362 8.63661,1.79189 17.37202,3.09888 26.22525,2.80453 8.89975,-0.36187 17.7696,-1.31541 26.4462,-3.40783 8.44175,-2.12837 16.8724,-4.36681 24.97018,-7.60683 6.97055,-2.72883 13.91764,-5.53574 20.59493,-8.93585 3.25733,-1.68319 13.38761,-7.56683 -1.44339,1.13943 -1.56605,0.91932 6.13086,-3.47542 4.67309,-2.80017 0.7065,-0.44297 1.413,-0.88593 2.1195,-1.3289 6.34493,-4.19873 12.53665,-8.58981 19.41727,-11.93704 2.2123,-0.89567 4.40236,-1.04724 5.85071,1.18665 1.69332,3.49266 2.31662,7.35512 3.33217,11.0776 1.57972,5.18722 3.71698,10.18921 7.43903,14.23447 4.72051,4.70109 10.2671,8.13458 16.69549,10.04642 8.1661,2.28475 16.55287,3.54146 25.0579,3.28486 10.51219,-0.28599 20.95173,-1.51837 31.2518,-3.67252 11.48799,-2.44826 22.85281,-5.44797 33.82749,-9.68567 11.15603,-4.22966 22.08404,-9.03228 32.64344,-14.60026 5.12767,-2.71807 10.24952,-5.44444 15.32387,-8.26137 1.6362,-0.9083 3.03144,-2.91394 4.89549,-2.74833 1.82412,0.16205 -2.94178,2.46865 -4.74955,2.76129 -1.78027,0.2882 3.1074,-1.83132 4.6611,-2.74698 8.88447,-5.40606 17.61918,-11.05274 25.97929,-17.24833 7.82627,-5.63949 15.75602,-11.12659 23.64763,-16.67321 7.58056,-5.35744 15.17643,-10.72129 22.304,-16.67822 6.89427,-5.9691 13.62693,-12.13339 19.67353,-18.9778 5.7866,-6.57258 11.5278,-13.19502 16.9356,-20.08504 4.944,-6.67566 9.8029,-13.44485 13.2341,-21.05709 3.0714,-6.54554 5.8276,-13.21669 8.1904,-20.05367 2.1044,-6.1282 4.1109,-12.29315 6.4346,-18.34308 2.0942,-5.53223 4.4874,-10.94706 7.2434,-16.1843 2.7999,-4.89599 5.8672,-9.69785 10.0963,-13.50158 7.8302,-6.55682 17.0558,-11.20485 26.1696,-15.71499 7.6019,-3.33259 15.3448,-6.34606 23.225,-8.95856 9.2235,-3.01719 18.5572,-5.73267 28.0831,-7.62837 8.9751,-1.69922 18.0105,-3.27807 27.1738,-3.38128 7.643,0.0919 15.2668,0.70977 22.5493,3.22627 5.8028,2.06351 11.4385,4.59003 16.2119,8.56997 3.0239,2.56382 5.863,5.30362 7.7827,8.82541 0,0 -9.9026,5.63837 -9.9026,5.63837 z"
       id="path4554"
       style="fill:#000000;fill-opacity:1;stroke:#000000;stroke-width:3;stroke-linecap:round;stroke-linejoin:round;stroke-miterlimit:4;stroke-opacity:1;stroke-dasharray:none;stroke-dashoffset:0" />
    <g
       id="g4571"
       transform="matrix(4.7501056,0,0,4.7501056,-1459.5209,-1675.022)">
      <g
         word-spacing="normal"
         letter-spacing="normal"
         font-size-adjust="none"
         font-stretch="normal"
         font-weight="normal"
         font-variant="normal"
         font-style="normal"
         fill-rule="even-odd"
         stroke-miterlimit="10.433"
         xml:space="preserve"
         transform="matrix(1.0629921,0,0,-1.0629921,-186.02362,789.27165)"
         id="content"
         style="font-style:normal;font-variant:normal;font-weight:normal;font-stretch:normal;letter-spacing:normal;word-spacing:normal;text-anchor:start;fill:none;stroke:#000000;stroke-linecap:butt;stroke-linejoin:miter;stroke-miterlimit:10.43299961;stroke-opacity:1;stroke-dasharray:none;stroke-dashoffset:0"><path
           id="path4574"
           d="m 474.58,424.83 -0.08,0.17 -0.09,0.17 -0.1,0.16 -0.09,0.16 -0.1,0.16 -0.1,0.16 -0.11,0.15 -0.11,0.14 -0.11,0.15 -0.12,0.13 -0.12,0.14 -0.12,0.13 -0.13,0.12 -0.13,0.12 -0.14,0.11 -0.14,0.11 -0.14,0.11 -0.15,0.09 -0.15,0.1 -0.15,0.08 -0.16,0.08 -0.17,0.08 -0.17,0.07 -0.17,0.06 -0.17,0.05 -0.19,0.05 -0.18,0.04 -0.19,0.03 -0.19,0.03 -0.2,0.02 -0.21,0.01 -0.2,0.01 0.05,-1.1 c 3.24,0 3.93,-4.08 3.93,-4.38 0,-0.3 -0.1,-0.6 -0.15,-0.85 l -2.49,-9.76 c -0.25,-0.9 -0.25,-1 -0.99,-1.84 -2.19,-2.75 -4.24,-3.54 -5.63,-3.54 -2.49,0 -3.19,2.74 -3.19,4.68 0,2.49 1.59,8.62 2.74,10.91 1.54,2.94 3.78,4.78 5.78,4.78 l -0.05,1.1 c -5.83,0 -12.01,-7.32 -12.01,-14.6 0,-4.68 2.74,-7.97 6.63,-7.97 0.99,0 3.49,0.2 6.47,3.74 0.4,-2.09 2.14,-3.74 4.53,-3.74 1.75,0 2.9,1.15 3.69,2.74 0.85,1.79 1.5,4.83 1.5,4.93 0,0.5 -0.45,0.5 -0.6,0.5 -0.5,0 -0.55,-0.2 -0.7,-0.89 -0.85,-3.24 -1.74,-6.18 -3.78,-6.18 -1.35,0 -1.5,1.29 -1.5,2.29 0,1.09 0.1,1.49 0.65,3.69 0.55,2.09 0.65,2.59 1.1,4.48 0.84,3.19 1.04,4.13 1.79,6.97 0.35,1.4 0.35,1.5 0.35,1.7 0,0.84 -0.6,1.34 -1.45,1.34 -1.19,0 -1.94,-1.09 -2.09,-2.19 z"
           style="fill:#000000;stroke-width:0" /></g>    </g>
    <g
       id="g4606"
       transform="matrix(4.7501056,0,0,4.7501056,-542.378,-1672.1649)">
      <g
         id="g4608"
         transform="matrix(1.0629921,0,0,-1.0629921,-186.02362,789.27165)"
         xml:space="preserve"
         stroke-miterlimit="10.433"
         fill-rule="even-odd"
         font-style="normal"
         font-variant="normal"
         font-weight="normal"
         font-stretch="normal"
         font-size-adjust="none"
         letter-spacing="normal"
         word-spacing="normal"
         style="font-style:normal;font-variant:normal;font-weight:normal;font-stretch:normal;letter-spacing:normal;word-spacing:normal;text-anchor:start;fill:none;stroke:#000000;stroke-linecap:butt;stroke-linejoin:miter;stroke-miterlimit:10.43299961;stroke-opacity:1;stroke-dasharray:none;stroke-dashoffset:0"><path
           d="m 467.91,440.02 0,0.01 0,0 0,0.01 0,0.01 -0.01,0.01 0,0.01 0,0.02 0,0.02 0,0.02 -0.01,0.02 0,0.02 -0.01,0.02 -0.01,0.03 -0.01,0.02 -0.01,0.03 -0.01,0.02 -0.01,0.02 -0.02,0.03 -0.02,0.02 -0.02,0.03 -0.02,0.02 -0.01,0.01 -0.02,0.01 -0.01,0.01 -0.01,0.01 -0.02,0.01 -0.01,0.01 -0.02,0.01 -0.02,0.01 -0.01,0.01 -0.02,0.01 -0.02,0.01 -0.02,0 -0.02,0.01 -0.02,0.01 -0.03,0 -0.02,0.01 -0.02,0 -0.03,0.01 -0.02,0 -0.03,0 -0.03,0.01 -0.02,0 -0.03,0 -0.03,0 c -1.15,0 -4.78,-0.4 -6.08,-0.5 -0.4,-0.05 -0.95,-0.1 -0.95,-1 0,-0.59 0.45,-0.59 1.2,-0.59 2.39,0 2.49,-0.35 2.49,-0.85 0,-0.35 -0.45,-2.04 -0.7,-3.09 l -4.08,-16.24 c -0.6,-2.49 -0.8,-3.28 -0.8,-5.03 0,-4.73 2.64,-7.82 6.33,-7.82 v 1.1 c -1.7,0 -3.34,1.34 -3.34,5.03 0,0.95 0,1.89 0.8,5.03 l 1.09,4.58 c 0.3,1.1 0.3,1.2 0.75,1.75 2.44,3.24 4.68,3.98 5.98,3.98 1.79,0 3.14,-1.49 3.14,-4.68 0,-2.94 -1.65,-8.67 -2.54,-10.56 -1.65,-3.34 -3.94,-5.13 -5.88,-5.13 v -1.1 c 5.88,0 12,7.43 12,14.6 0,4.53 -2.64,7.97 -6.62,7.97 -2.29,0 -4.34,-1.45 -5.83,-2.99 z"
           id="path4610"
           style="fill:#000000;stroke-width:0" /></g>    </g>
    <g
       id="g4648"
       transform="matrix(4.7501056,0,0,4.7501056,-742.378,-1040.7363)">
      <g
         word-spacing="normal"
         letter-spacing="normal"
         font-size-adjust="none"
         font-stretch="normal"
         font-weight="normal"
         font-variant="normal"
         font-style="normal"
         fill-rule="even-odd"
         stroke-miterlimit="10.433"
         xml:space="preserve"
         transform="matrix(1.0629921,0,0,-1.0629921,-186.02362,789.27165)"
         id="g4650"
         style="font-style:normal;font-variant:normal;font-weight:normal;font-stretch:normal;letter-spacing:normal;word-spacing:normal;text-anchor:start;fill:none;stroke:#000000;stroke-linecap:butt;stroke-linejoin:miter;stroke-miterlimit:10.43299961;stroke-opacity:1;stroke-dasharray:none;stroke-dashoffset:0"><path
           id="path4652"
           d="m 475.73,424.93 -0.15,0 -0.15,0 -0.14,0 -0.14,-0.01 -0.14,-0.01 -0.14,-0.02 -0.07,-0.01 -0.07,-0.01 -0.07,-0.01 -0.07,-0.02 -0.06,-0.01 -0.07,-0.02 -0.07,-0.03 -0.07,-0.02 -0.06,-0.03 -0.07,-0.03 -0.07,-0.03 -0.06,-0.04 -0.07,-0.03 -0.06,-0.05 -0.07,-0.04 -0.06,-0.05 -0.07,-0.05 -0.06,-0.06 -0.07,-0.06 -0.06,-0.06 c -0.8,-0.75 -0.9,-1.59 -0.9,-1.94 0,-1.2 0.9,-1.74 1.84,-1.74 1.45,0 2.79,1.19 2.79,3.18 0,2.45 -2.34,4.29 -5.88,4.29 -6.72,0 -13.35,-7.13 -13.35,-14.15 0,-4.48 2.89,-8.42 8.07,-8.42 7.12,0 11.31,5.28 11.31,5.88 0,0.3 -0.3,0.65 -0.6,0.65 -0.25,0 -0.35,-0.1 -0.64,-0.5 -3.94,-4.93 -9.37,-4.93 -9.97,-4.93 -3.14,0 -4.48,2.44 -4.48,5.43 0,2.04 1,6.87 2.69,9.96 1.54,2.84 4.28,4.98 7.02,4.98 1.7,0 3.59,-0.65 4.29,-1.99 z"
           style="fill:#000000;stroke-width:0" /></g>    </g>
  </g>
</svg>
