<?xml version="1.0" encoding="UTF-8" standalone="no"?>
<!-- Created with Inkscape (http://www.inkscape.org/) -->
<svg
   xmlns:dc="http://purl.org/dc/elements/1.1/"
   xmlns:cc="http://creativecommons.org/ns#"
   xmlns:rdf="http://www.w3.org/1999/02/22-rdf-syntax-ns#"
   xmlns:svg="http://www.w3.org/2000/svg"
   xmlns="http://www.w3.org/2000/svg"
   xmlns:sodipodi="http://sodipodi.sourceforge.net/DTD/sodipodi-0.dtd"
   xmlns:inkscape="http://www.inkscape.org/namespaces/inkscape"
   width="1528.2545"
   height="1152.7209"
   id="svg2"
   sodipodi:version="0.32"
   inkscape:version="0.46"
   version="1.0"
   sodipodi:docname="hw5d1.svg"
   inkscape:output_extension="org.inkscape.output.svg.inkscape">
  <defs
     id="defs4">
    <inkscape:perspective
       sodipodi:type="inkscape:persp3d"
       inkscape:vp_x="0 : 526.18109 : 1"
       inkscape:vp_y="0 : 1000 : 0"
       inkscape:vp_z="744.09448 : 526.18109 : 1"
       inkscape:persp3d-origin="372.04724 : 350.78739 : 1"
       id="perspective10" />
  </defs>
  <sodipodi:namedview
     id="base"
     pagecolor="#ffffff"
     bordercolor="#666666"
     borderopacity="1.0"
     gridtolerance="10000"
     guidetolerance="10"
     objecttolerance="10"
     inkscape:pageopacity="0.0"
     inkscape:pageshadow="2"
     inkscape:zoom="0.49101218"
     inkscape:cx="764.12727"
     inkscape:cy="576.36051"
     inkscape:document-units="px"
     inkscape:current-layer="layer1"
     showgrid="false"
     inkscape:window-width="1270"
     inkscape:window-height="785"
     inkscape:window-x="0"
     inkscape:window-y="0" />
  <metadata
     id="metadata7">
    <rdf:RDF>
      <cc:Work
         rdf:about="">
        <dc:format>image/svg+xml</dc:format>
        <dc:type
           rdf:resource="http://purl.org/dc/dcmitype/StillImage" />
      </cc:Work>
    </rdf:RDF>
  </metadata>
  <g
     inkscape:label="Layer 1"
     inkscape:groupmode="layer"
     id="layer1"
     transform="translate(485.23213,165.33115)">
    <path
       style="fill:#000000;fill-opacity:1;fill-rule:nonzero;stroke:none;stroke-width:1px;stroke-linecap:butt;stroke-linejoin:miter;stroke-opacity:1"
       id="path2383"
       d="M 547.41726,6.2046086 C 547.79522,16.905958 541.5735,24.866135 534.26909,31.91406 C 511.51989,49.963922 484.42912,59.082487 456.83315,66.354073 C 430.74122,72.069278 403.75164,76.14004 377.03506,72.60203 C 371.97824,71.932368 367.01344,70.69239 362.00264,69.737571 C 344.20785,64.712567 327.64618,55.778426 317.81115,39.486384 C 311.4826,29.002947 311.86836,25.735974 309.38497,13.84444 C 309.42315,8.8941522 308.99022,3.9177433 309.49952,-1.006424 C 312.02922,-25.464821 324.5813,-48.086497 339.62754,-67.029116 C 344.18004,-72.760533 349.31963,-78.000029 354.16568,-83.485485 C 381.5808,-110.88846 414.99272,-130.70405 449.97235,-147.01288 C 465.92927,-154.4526 479.21165,-156.9939 496.1187,-161.29315 C 531.44968,-167.90335 568.01552,-166.9306 601.99086,-154.38828 C 607.57828,-152.32563 612.88726,-149.57545 618.33545,-147.16904 C 634.77796,-138.21456 651.41418,-126.81225 658.9394,-108.835 C 663.05521,-99.002586 661.9864,-96.743244 661.90142,-86.35242 C 660.80205,-82.425228 660.15261,-78.343258 658.60331,-74.570846 C 647.43089,-47.36708 618.90331,-28.793034 595.45175,-13.397803 C 570.885,2.0460812 545.42754,15.393008 518.02728,24.884406 C 500.91235,30.812983 494.11298,32.110044 476.48945,36.542377 L 477.1687,36.019582 C 485.13652,33.530885 493.20006,31.330152 501.07216,28.553491 C 525.7867,19.836131 549.21737,8.4670132 572.21398,-4.0068202 C 572.30904,-4.0583812 572.03659,-4.1305593 571.9479,-4.1924289 C 594.59979,-19.803467 619.51907,-36.763977 632.21969,-62.16831 C 634.05377,-65.836922 635.13216,-69.836935 636.5884,-73.671247 C 637.83607,-83.34583 639.21879,-86.505061 636.60819,-96.143446 C 631.6789,-114.34244 616.35608,-126.32001 601.08971,-135.73134 C 586.80168,-142.43283 583.25319,-144.89429 567.55806,-148.87046 C 539.06524,-156.08875 509.50593,-155.22944 480.83874,-149.58854 C 439.11141,-138.57741 475.93424,-149.13525 434.7505,-134.85948 C 433.02914,-134.26279 431.0217,-134.53877 429.41291,-133.68382 C 408.57658,-122.61098 389.86265,-107.95111 373.08724,-91.456008 C 368.29697,-86.077207 363.20668,-80.951286 358.71642,-75.319605 C 344.17352,-57.079881 331.8836,-34.931895 329.68262,-11.29122 C 329.24435,-6.5837143 329.76655,-1.8358646 329.80851,2.8918133 C 332.18904,13.823524 332.07866,17.82221 337.98594,27.466835 C 347.51464,43.024006 363.54712,51.751792 380.5094,56.841739 C 385.30301,57.847011 390.04584,59.135638 394.89023,59.857556 C 420.47007,63.6695 446.53005,60.325253 471.61777,55.026637 C 482.66445,52.191888 487.30828,51.238869 497.93741,47.615234 C 501.66915,46.343027 505.36549,44.959158 509.00572,43.444839 C 512.26118,42.090579 515.18093,39.830703 518.6112,39.015021 C 519.23151,38.867516 500.00255,50.325843 520.02942,37.731438 C 528.69925,30.30378 535.87294,22.113227 538.46011,10.668638 L 547.41726,6.2046086 z" />
    <path
       style="fill:#000000;fill-opacity:1;fill-rule:nonzero;stroke:none;stroke-width:1px;stroke-linecap:butt;stroke-linejoin:miter;stroke-opacity:1"
       id="path2385"
       d="M 426.64516,-69.811873 C 424.83278,-68.758748 423.02694,-67.694277 421.20801,-66.652497 C 419.90462,-65.905993 423.79779,-68.174837 425.09848,-68.926022 C 433.06805,-73.528668 440.81839,-78.136239 449.17626,-81.934576 C 455.95488,-84.841204 459.86229,-84.938344 463.76012,-78.294201 C 467.16913,-68.409124 465.47943,-57.726409 464.25365,-47.591627 C 463.31876,-34.517365 458.72299,-22.5106 453.81133,-10.533605 C 450.74653,-3.5140298 452.36643,-6.9592967 448.95796,-0.19482601 L 448.18661,0.17895927 C 447.04468,-4.5407542 447.4566,-2.0704499 447.02766,-7.2443562 C 446.24987,-18.270348 446.46971,-29.068094 448.80755,-39.952083 C 450.01335,-50.111582 451.20773,-60.413076 450.01625,-70.632712 C 448.78229,-76.766959 446.65989,-77.514803 440.79405,-75.291042 C 438.72816,-74.392996 422.11176,-66.051936 434.6101,-72.582776 C 440.10123,-75.452094 390.41964,-47.811695 418.5342,-63.253531 L 426.64516,-69.811873 z" />
    <path
       style="fill:#000000;fill-opacity:1;fill-rule:nonzero;stroke:none;stroke-width:1px;stroke-linecap:butt;stroke-linejoin:miter;stroke-opacity:1"
       id="path2387"
       d="M 554.58976,-33.685874 C 550.71085,-27.010594 545.94192,-21.135402 539.71397,-16.56509 C 531.74701,-12.336093 513.69536,4.5209213 504.44948,-8.8180848 C 503.51268,-10.169613 502.95558,-11.748137 502.20864,-13.213164 C 498.06923,-27.360173 504.07166,-40.700555 511.2433,-52.678852 C 522.11441,-67.191702 538.79802,-80.877505 556.79729,-84.612615 C 558.75983,-85.01987 560.78681,-85.004323 562.78157,-85.200176 C 576.43392,-84.006766 582.02013,-77.395385 585.7545,-64.804243 C 588.12971,-47.30976 579.88426,-38.344863 567.38324,-27.479199 C 557.20717,-20.897826 562.8335,-24.020568 550.33114,-18.429879 L 551.00214,-18.963214 C 553.74608,-20.493324 552.08244,-19.424817 555.6844,-22.604814 C 558.80075,-27.312788 559.6334,-29.874406 560.86515,-35.352631 C 562.15337,-41.082028 563.95363,-46.692331 563.20762,-52.669867 C 561.45399,-63.68951 558.21559,-71.506205 545.89191,-72.641615 C 544.10448,-72.417777 542.27918,-72.399157 540.52964,-71.970102 C 539.88519,-71.812057 513.19563,-61.597162 546.06169,-76.730756 C 548.26324,-77.744487 542.05472,-73.98603 540.21442,-72.408766 C 535.21314,-68.122327 534.02136,-66.105859 529.93746,-60.955111 C 523.06975,-49.750051 517.23236,-37.369381 521.11329,-24.014111 C 522.87331,-20.685325 524.55778,-17.260282 528.722,-16.544629 C 531.99823,-15.981583 536.12968,-18.426584 534.97748,-17.614543 C 530.70378,-14.602559 526.03488,-12.194561 521.56358,-9.4845702 C 529.83413,-14.375274 536.84466,-20.803698 542.64994,-28.484653 L 554.58976,-33.685874 z" />
    <path
       style="fill:#000000;fill-opacity:1;fill-rule:nonzero;stroke:none;stroke-width:1px;stroke-linecap:butt;stroke-linejoin:miter;stroke-opacity:1"
       id="path2389"
       d="M 354.42921,59.42553 C 346.91379,70.277461 337.45604,79.566751 328.06767,88.770815 C 311.31831,104.83198 293.32083,119.50163 275.21914,133.99305 C 256.52377,148.88641 237.67109,163.5803 218.86453,178.33252 C 203.58717,190.33514 188.33559,202.37002 172.88018,214.14322 C 161.74668,222.89145 148.9532,229.03611 136.54921,235.70621 C 137.37823,234.85214 138.20725,233.99808 139.03627,233.14401 L 139.73364,232.64564 C 140.96165,231.82291 142.18965,231.00017 143.41766,230.17744 C 140.58285,231.70087 137.81606,233.35827 134.91324,234.74773 C 134.49631,234.94729 134.9817,233.7628 135.28127,233.4108 C 138.14104,230.05044 142.18779,227.99025 145.43431,225.06667 C 161.36507,213.16674 177.07274,200.97369 192.76982,188.7681 C 212.02823,173.81246 231.33626,158.92086 250.53369,143.88687 C 269.6736,128.85683 288.77213,113.74328 306.88176,97.469789 C 318.09934,87.321285 329.04412,76.901757 339.35074,65.820556 L 354.42921,59.42553 z" />
    <path
       style="fill:#000000;fill-opacity:1;fill-rule:nonzero;stroke:none;stroke-width:1px;stroke-linecap:butt;stroke-linejoin:miter;stroke-opacity:1"
       id="path2391"
       d="M 17.861309,325.33593 C 9.8451753,323.18958 2.4817124,318.57969 -0.92849617,310.679 C -1.6871574,308.92135 -2.0363874,307.01401 -2.590333,305.18152 C -4.4811772,286.66482 6.7717299,271.29208 17.525711,257.39997 C 34.43511,237.53278 56.270512,223.63069 79.881003,212.8823 C 83.74101,211.12508 87.937183,210.22752 91.965273,208.90013 C 111.50025,203.98501 131.42995,205.56941 149.77423,213.99178 C 153.17288,215.55219 156.36978,217.51904 159.66755,219.28268 C 173.94225,228.46309 187.29941,240.64488 193.0356,257.11658 C 194.05367,260.04002 194.52116,263.127 195.26394,266.13221 C 197.37715,283.87645 190.32852,300.19603 178.6091,313.34435 C 175.87929,316.407 172.74479,319.0834 169.81264,321.95293 C 144.59956,341.71224 115.27409,358.32997 82.939513,361.75629 C 78.211301,362.25731 73.440098,362.19123 68.69039,362.4087 C 48.759643,361.21119 25.809687,356.98533 13.211949,339.57482 C 11.107653,336.66662 9.8932708,333.20856 8.2339319,330.02543 C 7.604743,326.33925 6.5449032,322.70112 6.3463652,318.9669 C 5.3342395,299.93027 13.820228,285.00414 23.195733,269.31868 L 23.975476,268.96274 C 22.958938,272.45634 21.62395,275.87265 20.925861,279.44354 C 18.217415,293.2979 21.27237,306.1411 30.174124,317.07831 C 32.564377,319.58242 34.759674,322.28834 37.344882,324.59064 C 52.752743,338.31237 73.084077,343.66741 93.282377,344.36986 C 108.1244,343.69656 119.44627,342.70102 133.66144,337.72723 C 137.89693,336.24526 144.3341,328.41701 146.08695,332.54776 C 147.85948,336.72489 137.50073,343.06138 134.48588,339.67008 C 131.49795,336.30907 141.84868,334.50426 145.53008,331.92135 C 148.6706,329.0902 151.99213,326.44777 154.95164,323.4279 C 167.63171,310.4892 175.89461,294.42951 176.4177,276.15219 C 176.08856,273.06734 176.04314,269.93886 175.43029,266.89764 C 172.06546,250.20009 160.8719,237.01628 147.42462,227.25904 C 144.31229,225.44688 141.31888,223.41302 138.08763,221.82257 C 120.35034,213.09215 100.7531,212.04722 81.750201,216.83849 C 77.770014,218.19306 73.878134,219.84196 69.80964,220.9022 C 69.458515,220.9937 69.340359,219.99385 69.016219,220.15693 C 53.791712,227.81653 40.882902,239.58835 29.649795,252.1981 C 19.267441,265.57353 8.5936654,280.31607 10.303714,298.15347 C 10.77175,299.90133 11.040432,301.71519 11.707821,303.39705 C 14.545005,310.54695 21.085075,315.124 27.492148,318.80282 L 17.861309,325.33593 z" />
    <path
       style="fill:#000000;fill-opacity:1;fill-rule:nonzero;stroke:none;stroke-width:1px;stroke-linecap:butt;stroke-linejoin:miter;stroke-opacity:1"
       id="path2393"
       d="M 128.61546,265.12934 C 120.18468,261.38134 111.57429,258.07805 102.87329,255.01966 C 98.625669,254.15241 93.478825,250.20295 89.509961,253.34181 C 118.51304,236.61033 108.41605,237.75637 105.49715,250.06474 C 104.19182,256.39136 103.05561,262.74646 101.68035,269.06171 C 99.769381,277.39841 97.572448,285.66748 95.656767,294.00319 C 93.336445,308.71915 93.740657,302.16331 71.098343,310.79564 C 82.209285,299.11155 98.162166,292.31626 111.81123,284.69033 C 120.34085,281.29564 128.12214,279.43164 136.54848,283.895 C 143.58495,288.68697 145.43724,296.78585 146.50073,304.73465 C 147.47928,315.14888 143.98709,323.97217 137.53734,331.92935 C 124.54607,342.44735 109.69035,352.99323 92.946291,355.87343 C 88.216075,356.68709 84.967717,356.5354 80.19718,356.5904 C 70.384843,356.52408 60.603768,355.83624 50.827843,355.06026 L 51.517693,354.55154 C 66.117924,351.99686 80.653621,349.11277 95.019893,345.437 C 101.33354,343.71061 106.91157,342.24419 113.13911,340.32614 C 115.48516,339.60357 122.01453,336.45148 120.13759,338.03362 C 115.15443,342.2341 108.99134,344.79797 103.56019,348.40054 C 101.87054,349.52131 107.19292,346.58154 108.90008,345.48763 C 110.49051,344.46852 111.91776,343.21478 113.4266,342.07836 C 120.794,334.54849 124.8598,326.96926 124.62893,316.1796 C 124.03234,308.99855 122.78606,301.57057 116.3831,297.25301 C 107.94275,293.96996 100.72382,296.19076 92.742986,299.92061 C 127.50399,279.25776 101.55271,293.42012 95.016766,300.61076 C 61.312508,316.20906 67.826987,319.66527 73.137766,304.72404 C 75.814629,296.34969 78.243876,287.89871 80.301974,279.3498 C 81.831211,273.09327 83.262379,266.80055 84.101909,260.40863 C 86.739604,246.38646 89.966565,247.51249 108.37343,238.38078 C 113.43896,237.38301 118.42603,239.65133 123.08883,241.38732 C 131.56168,244.59921 139.82363,248.32742 147.95292,252.32768 L 128.61546,265.12934 z" />
    <path
       style="fill:#000000;fill-opacity:1;fill-rule:nonzero;stroke:none;stroke-width:1px;stroke-linecap:butt;stroke-linejoin:miter;stroke-opacity:1"
       id="path2395"
       d="M 604.52807,9.9519537 C 609.07897,25.23595 614.38316,40.28245 619.85567,55.256902 C 629.12578,80.271179 640.53294,104.39651 652.37975,128.27107 C 665.72596,154.77774 678.80422,181.4148 691.69011,208.14805 C 702.85708,231.8572 714.83048,255.16217 727.90203,277.8756 C 736.31416,291.233 743.6897,303.45917 748.16988,318.63748 C 749.12621,323.38747 748.84365,321.1611 749.1473,325.29883 L 748.40605,325.72924 C 744.83694,323.50198 746.66194,324.83275 743.02973,321.60502 C 732.43834,310.46021 724.28031,297.68568 717.18296,284.05085 C 704.4613,261.10517 692.55089,237.73888 681.3839,213.99512 C 668.55033,187.23226 655.86572,160.39449 642.45681,133.91203 C 630.77158,109.9042 619.09393,85.830453 610.15648,60.62713 C 604.80966,45.421218 599.75082,30.100916 596.53269,14.278346 L 604.52807,9.9519537 z" />
    <path
       style="fill:#000000;fill-opacity:1;fill-rule:nonzero;stroke:none;stroke-width:1px;stroke-linecap:butt;stroke-linejoin:miter;stroke-opacity:1"
       id="path2397"
       d="M 782.72608,443.0681 C 768.52737,450.36105 753.47507,455.57964 738.14802,459.89329 C 719.88799,464.26477 700.70233,466.33479 682.12933,462.51797 C 678.5434,461.78105 675.06178,460.60549 671.528,459.64925 C 655.43648,453.83928 640.66528,443.42885 633.09492,427.60494 C 631.68818,424.6645 630.85575,421.4823 629.73616,418.42098 C 625.9599,400.38819 630.9425,382.85216 641.92724,368.22229 C 644.38965,364.94276 647.30497,362.02914 649.99384,358.93257 C 666.41101,343.98048 686.18322,331.96961 707.60638,325.71827 C 720.02747,322.09376 723.61108,322.19645 736.45986,320.63795 C 761.95099,319.01556 787.49619,322.61599 811.7094,330.69441 C 816.33313,332.23705 820.83804,334.11529 825.40236,335.82573 C 843.61127,343.89345 862.26635,353.45334 875.722,368.59327 C 877.70505,370.82454 879.34151,373.34125 881.15126,375.71524 C 887.95136,386.83221 888.9504,399.38968 880.49087,410.00212 C 878.73282,412.20759 876.52854,414.01701 874.54737,416.02445 C 846.8783,437.3641 824.0067,443.69181 790.9715,446.91173 C 765.30987,448.19546 739.84385,443.7832 714.43487,440.88192 L 715.13133,440.38229 C 746.04177,440.78287 776.84853,437.79235 807.56573,434.55755 C 820.38905,432.81761 833.12288,431.15907 845.49988,427.1897 C 849.06351,426.04682 854.34215,419.87819 856.00584,423.23047 C 857.67352,426.59081 849.68569,427.27723 846.60745,429.42141 C 844.02916,431.21733 851.87272,425.99089 854.50536,424.27564 C 856.5994,422.37961 858.86961,420.66161 860.78747,418.58755 C 870.36026,408.23509 871.72164,397.10512 866.57165,384.26906 C 865.10513,381.78583 863.84123,379.1712 862.1721,376.81937 C 850.63581,360.56449 832.60183,350.86193 814.84301,342.9325 C 810.32097,341.23081 805.86012,339.35665 801.27687,337.82744 C 777.15828,329.78028 751.68243,326.36148 726.31175,328.21237 C 713.6457,329.95269 709.58139,329.99037 697.37615,333.70667 C 692.86257,335.08098 688.58955,337.16786 684.09151,338.5922 C 683.73504,338.70508 683.3478,338.06722 683.02263,338.25184 C 672.76229,344.07745 671.12919,346.19087 662.30847,353.73705 C 659.63293,356.7569 656.73728,359.5952 654.28184,362.79658 C 643.34233,377.05938 638.16293,394.15932 641.43612,411.96331 C 642.41418,415.00762 643.10295,418.16057 644.37032,421.09626 C 651.1565,436.81558 664.87016,447.24475 680.29718,453.64542 C 683.66033,454.67006 686.96976,455.89125 690.38663,456.71933 C 707.73535,460.92381 725.75305,459.96709 743.0555,456.12684 C 758.08179,452.28139 772.81428,447.34825 786.54008,440.01075 L 782.72608,443.0681 z" />
    <path
       style="fill:#000000;fill-opacity:1;fill-rule:nonzero;stroke:none;stroke-width:1px;stroke-linecap:butt;stroke-linejoin:miter;stroke-opacity:1"
       id="path2399"
       d="M 759.53445,405.38353 C 755.91728,407.02808 750.79653,407.83402 747.86292,410.72596 C 746.9429,411.63292 751.90419,407.92171 751.38279,409.10372 C 750.63453,410.80003 748.43468,411.35764 747.04362,412.58332 C 745.66974,413.79387 744.41254,415.13074 743.097,416.40446 C 736.78522,423.14186 731.96947,430.85465 732.75062,440.29973 C 734.86019,448.01191 741.74859,451.4265 748.80493,453.73344 C 753.06684,454.66497 757.69396,455.63989 761.99394,454.27035 C 762.73923,454.03298 764.8046,452.89973 764.122,453.28164 C 760.99207,455.03279 757.80562,456.68096 754.64743,458.38062 C 756.26924,453.63926 750.67033,447.99815 748.16362,444.43726 C 740.95405,434.67861 734.46331,424.46822 729.02936,413.62153 C 723.94342,403.01074 721.33114,393.16227 724.69369,381.69252 C 726.61582,377.63416 729.28151,374.38783 733.25443,372.19542 C 746.05311,365.13261 747.58402,362.2585 759.01953,363.26453 C 768.89557,365.27835 774.81365,372.14355 778.69462,380.97948 C 781.26293,389.11004 780.34467,397.97947 775.06184,404.91727 C 773.62484,406.80444 771.83296,408.39288 770.21852,410.13068 C 762.1009,418.25024 752.10161,423.74103 741.99252,428.9239 L 742.66074,428.38709 C 748.83493,424.98207 754.46104,420.92143 758.61434,415.0945 C 763.71407,406.74877 768.27475,398.41669 765.56398,388.33572 C 761.94609,379.11016 757.0124,373.74506 746.88946,371.96577 C 737.01967,371.64742 734.14321,375.90792 747.50352,366.64366 C 748.62951,365.86288 745.06851,367.92566 743.97187,368.74716 C 740.71398,371.1877 740.7626,371.77652 738.63311,375.13321 C 734.60645,386.35616 737.61465,395.47352 742.35096,406.01323 C 748.02484,416.66873 754.52401,426.77871 761.60809,436.55569 C 764.69322,441.40248 769.55794,447.66875 766.64209,453.57196 C 753.94749,461.14267 753.30505,463.60701 740.26037,459.50508 C 732.94637,456.67734 726.15534,452.98634 724.00888,444.85009 C 723.11589,435.08587 727.86703,427.07897 734.33769,420.01745 C 743.57225,411.03052 754.5955,403.64301 766.94298,399.72878 L 759.53445,405.38353 z" />
    <path
       style="fill:#000000;fill-opacity:1;fill-rule:nonzero;stroke:none;stroke-width:1px;stroke-linecap:butt;stroke-linejoin:miter;stroke-opacity:1"
       id="path2401"
       d="M 853.01763,440.76819 C 861.8584,450.84482 868.89714,462.29694 875.62033,473.84415 C 884.98276,490.16418 893.95486,506.70491 902.99921,523.20332 C 911.99947,538.95966 921.15131,554.63603 929.68801,570.65069 C 937.07828,583.73027 943.08544,597.40095 947.6357,611.69607 C 951.32766,623.8979 950.94588,631.09368 945.87792,642.63075 C 943.10685,647.20489 944.92771,645.07111 940.12025,648.76802 L 939.344,649.1315 C 935.69595,649.72968 937.16234,650.23841 934.75409,648.34749 C 927.89021,641.26299 926.86369,633.53532 924.74958,624.20267 C 920.7859,609.85268 915.33236,596.02972 908.4153,582.83024 C 899.95391,566.78164 891.11405,550.94355 882.51395,534.9705 C 873.47457,518.49307 864.907,501.7609 855.53218,485.46913 C 848.76463,474.18405 842.19693,462.57476 833.09748,452.95836 L 853.01763,440.76819 z" />
    <path
       style="fill:#000000;fill-opacity:1;fill-rule:nonzero;stroke:none;stroke-width:1px;stroke-linecap:butt;stroke-linejoin:miter;stroke-opacity:1"
       id="path2403"
       d="M 672.16783,455.09005 C 668.30873,466.30371 662.59769,476.77344 657.06044,487.22318 C 646.84538,505.75594 634.62944,523.04229 622.23919,540.15679 C 608.28101,558.9713 593.3483,577.0254 578.00139,594.71515 C 567.79751,607.1899 556.32986,618.37161 544.14453,628.86206 C 540.20026,632.36918 535.93551,635.40511 531.52593,638.28061 L 530.73459,638.60997 C 528.80019,637.51681 530.50339,636.05202 531.10517,634.33088 C 537.76792,622.2978 549.15229,613.70903 557.82647,603.2222 C 573.86386,585.27112 589.62102,567.05301 604.24416,547.91847 C 617.71564,530.31878 630.84662,512.43247 642.62979,493.64397 C 649.63522,482.49959 656.18758,471.09855 662.45882,459.52592 L 672.16783,455.09005 z" />
    <path
       style="fill:#000000;fill-opacity:1;fill-rule:nonzero;stroke:none;stroke-width:1px;stroke-linecap:butt;stroke-linejoin:miter;stroke-opacity:1"
       id="path2405"
       d="M 531.1569,685.77346 C 532.93528,699.58179 532.42344,713.61367 532.10545,727.5035 C 531.6468,744.56757 530.89805,761.6257 530.89692,778.6989 C 530.26407,787.22491 532.35336,795.93773 530.52756,804.34667 C 530.23452,808.09355 526.82984,810.18122 525.6453,813.36963 L 524.91161,813.8128 C 521.7189,813.55799 519.3712,814.26249 517.54193,811.04802 C 514.29603,803.29313 516.94246,794.16334 516.41089,786.04244 C 517.11147,768.77584 517.89257,751.5132 518.74563,734.25352 C 519.39661,719.80465 519.87395,705.32613 521.09827,690.91665 L 531.1569,685.77346 z" />
    <path
       style="fill:#000000;fill-opacity:1;fill-rule:nonzero;stroke:none;stroke-width:1px;stroke-linecap:butt;stroke-linejoin:miter;stroke-opacity:1"
       id="path2407"
       d="M 880.9834,787.93775 C 891.28324,779.83954 903.11425,774.11892 915.68902,770.69344 C 925.48931,768.76584 933.42072,769.31325 940.97682,776.15171 C 947.81224,785.06269 946.56399,796.22385 944.6965,806.60533 C 941.98266,820.12507 936.22199,832.59362 928.86074,844.15645 C 926.20029,849.85102 918.24901,855.62849 917.03453,861.81656 C 920.52379,865.82281 931.71172,866.81208 936.72163,867.79492 C 948.8531,869.99492 961.01598,872.00675 973.17508,874.04301 C 975.47728,875.15206 988.62801,875.06874 989.71585,877.05605 C 989.92602,877.44 989.47201,877.89683 989.35009,878.31722 C 984.4407,880.75107 972.52339,891.11518 979.80947,882.28037 L 980.54894,881.84693 C 981.88599,881.65745 985.39926,880.2205 984.56008,881.2785 C 979.70636,887.39782 977.27975,888.21939 972.12545,890.49989 C 965.40651,892.75228 958.88662,889.99581 952.16354,888.73396 C 940.19498,886.3395 928.16705,884.26882 916.15205,882.12465 C 910.65632,880.99228 899.46429,879.93709 895.70364,875.17644 C 895.16797,874.49833 894.96483,873.61397 894.59543,872.83274 C 895.57062,864.94875 906.17742,858.7997 910.32082,852.22552 C 919.02598,840.63974 926.45173,828.20955 929.70732,813.90798 C 931.51827,803.94458 933.50769,793.25418 928.13753,784.01304 C 922.08303,777.12227 914.84262,776.58919 906.11989,778.02617 C 901.88853,779.07729 900.5345,779.27773 896.44555,780.83953 C 894.88311,781.43633 893.18704,783.81968 891.83929,782.82925 C 890.5939,781.91404 897.26694,780.5432 895.73773,780.31937 C 895.31781,780.25791 889.0657,784.51539 888.39517,784.96418 L 880.9834,787.93775 z" />
    <path
       style="fill:#000000;fill-opacity:1;fill-rule:nonzero;stroke:none;stroke-width:1px;stroke-linecap:butt;stroke-linejoin:miter;stroke-opacity:1"
       id="path2409"
       d="M 1005.5623,906.01943 C 992.22364,913.424 978.38281,919.70994 964.06981,924.95967 C 945.45105,931.12947 925.84736,934.49531 906.19236,933.97764 C 901.79939,933.86194 897.42563,933.3524 893.04227,933.03979 C 871.33346,930.32268 849.72765,922.91785 833.99455,907.02994 C 830.94158,903.94692 828.48191,900.32821 825.72558,896.97734 C 812.92765,877.33644 807.98933,854.13171 812.10051,830.95134 C 812.93531,826.24438 814.49362,821.69486 815.69018,817.06663 C 820.81318,805.53309 821.57264,801.8603 829.49949,791.86437 C 843.38563,774.35364 864.80004,763.51908 884.3231,754.11557 C 888.84015,751.93988 893.8823,751.08717 898.66189,749.57297 C 924.28573,743.8262 950.57229,746.02964 975.32888,754.55164 C 980.03603,756.17199 984.57786,758.23777 989.20234,760.08083 C 1007.6439,769.41332 1025.8106,781.65418 1036.4817,799.92895 C 1038.1436,802.77516 1039.2769,805.89878 1040.6746,808.88369 C 1045.6232,825.11883 1042.9965,839.10486 1030.4289,851.10342 C 1027.5305,853.87058 1024.1662,856.10452 1021.0349,858.60507 C 1006.9154,866.71223 996.84222,872.83471 980.66019,879.65165 C 969.22454,884.4691 949.56807,885.55365 937.33404,886.57842 L 938.01992,886.06436 C 955.09735,882.58125 959.58255,882.22919 975.91545,876.73934 C 981.47303,874.87132 986.66397,871.92984 992.32688,870.41073 C 993.42275,870.11676 989.01888,873.40685 990.05576,872.94614 C 993.11541,871.58666 995.7382,869.40376 998.57942,867.63257 C 1010.9189,857.46208 1020.7318,847.72177 1019.5964,830.32589 C 1019.4042,827.38115 1018.5591,824.51574 1018.0405,821.61067 C 1016.8625,818.6685 1015.9369,815.61226 1014.5065,812.78417 C 1005.171,794.32628 987.73175,782.12033 969.70816,773.12248 C 965.25142,771.26435 960.89746,769.13738 956.33793,767.54809 C 931.86562,759.01788 905.63229,757.6241 880.46259,763.70773 C 875.69744,765.35984 871.20992,768.5835 866.16715,768.66405 C 863.40713,768.70814 875.13306,762.2199 872.88997,763.82869 C 868.98611,766.62864 864.83427,769.11318 861.18482,772.23749 C 850.29449,781.56076 842.54413,793.23933 837.56466,806.61995 C 836.36647,811.10646 834.80523,815.51144 833.9701,820.07948 C 829.86552,842.5309 835.0049,864.96564 847.72803,883.73889 C 854.66686,891.64355 856.97456,895.2185 865.64385,901.33442 C 879.93134,911.41382 897.01983,915.86314 914.13438,917.91858 C 937.83429,919.23252 960.06205,917.9601 982.75915,910.37605 C 995.12402,906.08893 1007.1885,901.09961 1018.9426,895.3325 L 1005.5623,906.01943 z" />
    <path
       style="fill:#000000;fill-opacity:1;fill-rule:nonzero;stroke:none;stroke-width:1px;stroke-linecap:butt;stroke-linejoin:miter;stroke-opacity:1"
       id="path2411"
       d="M 610.06152,840.34882 C 610.46675,850.04323 606.84277,859.75482 600.82502,867.33856 C 599.12827,869.47685 597.09245,871.32263 595.22616,873.31467 C 575.33661,889.74569 551.47568,899.85139 525.84945,901.98931 C 520.86674,902.40501 515.85482,902.31808 510.85751,902.48246 C 488.83716,901.56601 466.90905,896.64011 447.8163,885.2201 C 434.55662,877.28904 432.24647,873.76227 421.27137,863.03251 C 406.00222,844.28629 396.37213,822.10826 395.15685,797.76063 C 394.35708,781.73756 396.32949,776.83394 399.42325,761.24265 C 406.89663,737.24137 420.34094,715.99577 439.72846,699.82653 C 454.80195,687.2552 469.8926,680.94734 487.80602,671.30655 C 509.86495,663.16802 533.2044,661.53878 555.96952,667.91062 C 570.82214,672.06779 573.8294,674.77289 587.19122,682.21301 C 610.50473,698.07462 629.92269,719.61444 640.03067,746.25665 C 641.82814,750.99437 642.9394,755.96472 644.39377,760.81876 C 647.99671,780.09517 645.8015,799.09838 635.11792,815.89182 C 627.77068,827.44091 623.18331,830.37613 613.03599,839.71229 C 594.8843,852.78877 575.6809,865.33947 553.95781,871.53725 C 540.15562,875.47512 533.78646,875.46336 519.41987,876.93168 L 520.10655,876.41868 C 526.69135,875.34574 533.3738,874.75799 539.86095,873.19987 C 559.5782,868.46407 578.90672,860.63894 594.3891,847.37146 C 597.99488,843.87939 601.84751,840.62537 605.20643,836.89524 C 618.09061,822.58715 626.52953,805.00837 626.65587,785.4823 C 626.68681,780.69923 625.77807,775.95632 625.33918,771.19333 C 624.07486,766.35447 623.18947,761.4004 621.54623,756.67675 C 612.33316,730.19299 593.17055,708.85042 570.35381,693.20645 C 557.58053,686.39749 553.48468,683.29992 539.44637,679.43718 C 516.87631,673.22685 493.91324,675.38416 472.23066,683.75466 C 475.56641,676.70471 475.1089,678.4828 458.07986,692.27523 C 438.73268,707.9452 425.10898,728.80229 417.6078,752.43225 C 416.36844,758.37598 414.6232,764.23634 413.88972,770.26344 C 411.01975,793.84656 416.04386,818.15804 428.37099,838.49044 C 431.35229,843.40781 435.14462,847.78521 438.53144,852.4326 C 442.59244,856.4294 446.33239,860.78107 450.71444,864.42302 C 472.12965,882.2213 499.35642,889.97842 526.7716,890.83266 C 539.90814,890.32027 542.47417,890.74753 555.19192,888.244 C 559.28927,887.43742 563.35076,886.41596 567.33836,885.17582 C 570.93113,884.05847 574.13781,881.00494 577.8961,881.18303 C 580.42016,881.30263 569.60348,886.94973 571.58118,885.37687 C 574.16845,883.31921 577.01369,881.60867 579.72995,879.72457 C 581.94579,877.67405 584.29903,875.76269 586.37746,873.57302 C 594.13276,865.40263 598.94032,855.30793 601.77924,844.50415 L 610.06152,840.34882 z" />
    <path
       style="fill:#000000;fill-opacity:1;fill-rule:nonzero;stroke:none;stroke-width:1px;stroke-linecap:butt;stroke-linejoin:miter;stroke-opacity:1"
       id="path2413"
       d="M 14.013266,371.07841 C 2.2689238,385.75337 -11.892994,398.22929 -25.979422,410.57789 C -55.183002,435.63344 -86.172952,458.48645 -117.26826,481.11147 C -148.47511,503.75748 -180.51485,525.21751 -212.72203,546.40487 C -235.47274,561.50338 -258.53401,576.12521 -281.39969,591.04639 C -287.39625,595.04724 -293.38213,599.03307 -299.58006,602.71248 L -300.37675,603.02866 C -298.4291,599.70072 -294.67029,597.90131 -292.01068,595.22771 C -272.19573,579.89261 -250.7466,566.87386 -229.85276,553.09067 C -196.88213,531.63061 -164.03062,509.96891 -132.09583,486.98145 C -100.56728,464.14555 -69.151075,441.09868 -39.356721,416.00952 C -24.552629,403.25714 -9.5650441,390.55743 3.1981409,375.6893 L 14.013266,371.07841 z" />
    <path
       style="fill:#000000;fill-opacity:1;fill-rule:nonzero;stroke:none;stroke-width:1px;stroke-linecap:butt;stroke-linejoin:miter;stroke-opacity:1"
       id="path2415"
       d="M 14.016988,395.11075 C 27.144726,409.96583 36.835349,427.49102 46.456732,444.71468 C 64.349549,477.95824 79.54101,512.56008 94.49592,547.19573 C 110.01433,582.74913 123.55972,619.10511 133.08536,656.72393 C 138.45091,681.2813 139.26232,706.63014 136.8613,731.59266 L 136.10098,731.9884 C 129.2311,709.90493 123.71627,687.40009 117.65843,665.08799 C 114.63783,653.89334 111.47319,641.75441 108.02577,630.70016 C 100.04348,605.1047 90.156194,580.14095 79.929512,555.37686 C 65.173681,520.70797 50.058833,486.12911 32.195348,452.9221 C 22.59674,435.76127 12.631116,418.82309 1.2189994,402.78921 L 14.016988,395.11075 z" />
    <path
       style="fill:#000000;fill-opacity:1;fill-rule:nonzero;stroke:none;stroke-width:1px;stroke-linecap:butt;stroke-linejoin:miter;stroke-opacity:1"
       id="path2417"
       d="M -374.88715,780.36291 C -385.1339,790.77455 -398.22066,798.91647 -412.03265,803.69898 C -414.96519,804.71439 -418.02291,805.32383 -421.01804,806.13625 C -437.42502,808.89448 -453.96955,805.31103 -466.25387,793.53242 C -468.8651,791.02869 -470.93382,788.01455 -473.27379,785.25561 C -485.50535,761.26803 -487.61921,733.8357 -482.92684,707.52325 C -481.87147,701.60531 -480.1238,695.83196 -478.72229,689.98631 C -469.44764,661.30519 -453.61595,634.72443 -430.20186,615.32109 C -425.85643,611.72002 -421.04944,608.71542 -416.47322,605.41258 C -393.53363,591.57374 -373.70285,581.45658 -346.48251,584.49957 C -334.51962,585.83692 -330.95812,587.9361 -319.83949,592.08134 C -300.27222,601.77567 -284.5332,616.89607 -274.7776,636.5022 C -273.04132,639.99166 -271.70539,643.66638 -270.16929,647.24847 C -264.66446,664.17676 -263.81924,682.23383 -270.52638,698.9921 C -271.78225,702.12998 -273.51846,705.05358 -275.0145,708.08432 C -289.84478,732.39556 -315.49709,744.05014 -339.6853,756.98088 C -348.26655,761.05755 -357.32425,763.4676 -366.55281,765.4652 L -365.87582,764.93948 C -353.50269,759.90197 -341.06201,754.9596 -329.26912,748.63222 C -330.21258,749.28813 -333.09254,751.17804 -332.09951,750.59993 C -319.98365,743.54651 -308.32354,735.14625 -299.13393,724.4556 C -296.84707,721.7952 -294.89154,718.86704 -292.77035,716.07277 C -291.08389,713.05917 -289.18124,710.15676 -287.71097,707.03198 C -279.97409,690.58874 -279.38203,672.46174 -284.28761,655.13007 C -285.62128,651.51015 -286.69824,647.78503 -288.2886,644.27032 C -297.13905,624.71085 -312.70781,609.62018 -331.80778,600.13757 C -336.00783,598.55545 -340.08787,596.60798 -344.40794,595.39119 C -358.16624,591.51606 -372.72569,591.39265 -386.58885,594.84335 C -391.55446,596.07934 -396.28221,598.12639 -401.12889,599.76791 C -402.02436,599.98276 -402.91983,600.19762 -403.81529,600.41248 C -408.39586,603.65284 -413.20141,606.59656 -417.557,610.13356 C -441.08982,629.24363 -457.06225,655.43678 -466.34081,684.04186 C -467.73961,689.82482 -469.48625,695.53456 -470.53723,701.39072 C -474.30281,722.37308 -473.7764,745.46801 -465.67555,765.45904 C -464.04303,769.48772 -461.60098,773.13884 -459.5637,776.97874 C -457.19745,779.59633 -455.05382,782.43385 -452.46497,784.8315 C -440.77524,795.65788 -425.4318,799.63684 -409.85989,797.59488 C -407.19644,796.96134 -404.4848,796.50407 -401.86954,795.69427 C -399.39966,794.92948 -397.16177,793.45521 -394.64048,792.88225 C -393.73579,792.67666 -397.66183,795.02974 -396.86372,794.55671 C -391.27955,791.24706 -386.01856,787.39463 -381.23482,783.0069 L -374.88715,780.36291 z" />
    <path
       style="fill:#000000;fill-opacity:1;fill-rule:nonzero;stroke:none;stroke-width:1px;stroke-linecap:butt;stroke-linejoin:miter;stroke-opacity:1"
       id="path2419"
       d="M 123.86775,897.20805 C 129.56766,911.71738 129.78405,923.80323 127.11057,938.99757 C 118.32552,967.39361 103.14292,972.40588 77.683592,985.01337 C 58.358467,990.22693 38.687278,986.876 22.519473,974.82121 C 19.145228,972.30536 16.219505,969.23815 13.069521,966.44662 C -2.7038352,948.25085 -10.729488,925.29851 -9.8307038,901.16071 C -9.6297244,895.76319 -8.6023285,890.42826 -7.9881409,885.06203 C -1.5932512,853.22821 15.16762,825.30755 36.904332,801.524 C 41.749788,796.22227 47.034918,791.33978 52.10021,786.24767 C 76.25913,764.24256 104.41605,747.38232 134.24838,734.17055 C 146.33108,728.81952 155.424,727.57698 168.12408,724.91635 C 189.97381,722.2487 213.20573,724.02817 230.90789,738.54702 C 233.75225,740.87988 236.10721,743.75255 238.70688,746.35531 C 250.72012,762.71366 253.59177,782.29675 249.50483,801.98841 C 248.59144,806.38934 247.07724,810.64385 245.86344,814.97158 C 237.35521,838.2158 222.68495,858.60174 203.91068,874.69428 C 200.04167,878.01063 195.85949,880.94313 191.83389,884.06755 C 169.09741,898.74773 145.77269,913.54172 118.75303,918.21191 C 107.94474,920.08006 104.52794,919.79036 93.635683,920.09926 C 77.604396,918.99626 85.396156,920.19489 70.242174,916.62395 L 70.938837,916.1246 C 92.11625,914.94723 81.620957,915.80955 102.42652,913.55973 C 118.42107,910.66407 133.79736,907.1926 149.119,901.63023 C 153.9558,899.87428 158.33959,896.49327 163.45006,895.89243 C 166.13188,895.57713 154.50073,901.87332 156.93804,900.71095 C 161.54412,898.51427 165.65942,895.40973 170.0201,892.75912 C 174.17606,889.6633 178.48617,886.76433 182.48797,883.47166 C 201.87534,867.5198 217.4077,847.41924 226.71953,824.04589 C 228.03446,819.77503 229.62097,815.57849 230.66433,811.2333 C 234.27269,796.20591 234.52461,779.55726 227.99158,765.22902 C 226.53243,762.02882 224.39428,759.18411 222.59563,756.16166 C 220.27217,753.53537 218.22019,750.64121 215.62525,748.28279 C 199.29815,733.44381 176.63466,731.87284 155.77972,734.28254 C 124.2809,740.94976 155.13845,733.76209 122.54934,743.46131 C 120.93124,743.94289 119.06912,743.53494 117.54974,744.2709 C 98.572541,753.46307 81.738082,766.64777 66.001745,780.4884 C 60.951037,785.52558 55.663202,790.33571 50.849622,795.59996 C 29.563568,818.87892 13.174524,846.40536 7.0766488,877.5851 C 6.5712214,882.80111 5.7067077,887.99473 5.5603666,893.23313 C 4.9010574,916.83363 12.58664,939.37224 28.51897,956.84948 C 31.591027,959.56582 34.440594,962.55679 37.735141,964.99852 C 52.875573,976.21973 71.266717,980.15466 89.533014,975.71031 C 88.627158,976.83309 85.438161,979.50795 86.815445,979.07865 C 90.276537,977.99982 93.246593,975.69142 96.224942,973.62443 C 107.33978,965.91067 115.35278,955.00708 120.04465,942.40371 C 120.8255,939.51826 121.81298,936.68094 122.3872,933.74737 C 124.62078,922.33652 123.21606,910.56254 119.52721,899.63131 L 123.86775,897.20805 z" />
    <path
       style="fill:#000000;fill-opacity:1;fill-rule:nonzero;stroke:none;stroke-width:1px;stroke-linecap:butt;stroke-linejoin:miter;stroke-opacity:1"
       id="path2421"
       d="M -430.51786,681.96401 C -444.51996,674.41828 -434.98573,672.1754 -423.67703,665.76874 C -413.59394,663.70284 -403.37685,665.93303 -393.6454,668.62767 C -383.98242,671.70927 -375.63329,676.74755 -370.22389,685.42242 C -367.36701,691.43582 -368.79869,696.91415 -372.56293,702.03906 C -374.89167,704.86854 -378.76197,706.78497 -379.04405,710.74111 C -377.73651,715.9071 -373.92055,720.18017 -370.8094,724.39438 C -366.80858,729.90785 -363.48044,734.37659 -366.38203,741.17223 C -376.42749,751.23882 -390.8629,758.90926 -405.35271,759.58553 C -408.6839,759.74101 -415.62578,759.00647 -418.81355,758.72454 C -426.68514,758.25287 -434.25192,756.96412 -441.83973,754.91235 L -441.14594,754.40901 C -429.47876,752.69709 -417.78659,751.18701 -406.13426,749.37615 C -397.40862,747.81374 -388.52977,746.38331 -379.93546,744.16687 C -378.12288,743.69942 -373.08944,741.34532 -374.57982,742.47789 C -378.61189,745.54194 -398.87939,757.30991 -387.5449,750.39753 C -381.89742,744.617 -382.72236,739.78194 -384.80141,732.41625 C -386.72673,727.149 -389.37715,722.20292 -391.04782,716.85438 C -391.27771,712.47856 -388.49765,710.25708 -385.39806,707.52468 C -381.49256,703.02111 -379.65671,697.97828 -381.80061,692.1094 C -386.39696,683.52722 -394.39184,678.48028 -403.4903,675.37454 C -413.1211,672.60158 -423.41245,670.64721 -433.29167,673.38751 C -430.53084,671.63387 -427.78031,669.8639 -425.00917,668.1266 C -424.58101,667.85817 -426.01981,668.53682 -426.26196,668.98038 C -426.46761,669.3571 -426.36747,669.88071 -426.17661,670.26514 C -425.01372,672.6074 -422.09907,673.75991 -420.05695,675.06665 L -430.51786,681.96401 z" />
    <path
       style="fill:#000000;fill-opacity:1;fill-rule:nonzero;stroke:none;stroke-width:1px;stroke-linecap:butt;stroke-linejoin:miter;stroke-opacity:1"
       id="path2423"
       d="M 147.42705,851.37627 C 134.35237,854.56956 120.85328,855.32884 107.46592,856.10689 C 92.803394,856.80689 78.141109,857.44962 63.491685,858.39024 C 60.352403,858.24679 50.256937,860.74023 48.262505,857.05336 C 47.909932,856.40159 47.915156,855.61261 47.741481,854.89223 C 50.331041,846.77406 58.332911,839.56618 64.00254,833.37071 C 74.629637,821.79989 85.648349,810.59359 96.843837,799.57423 C 103.79468,794.02848 110.01835,785.12478 117.862,780.76575 C 125.5983,776.46639 133.45648,772.3901 141.25372,768.20228 C 142.11693,768.57742 143.12757,768.71656 143.84337,769.32772 C 149.46404,774.12673 147.04254,788.99878 146.53029,795.1723 C 144.47526,814.21948 141.03426,833.08369 137.85817,851.96703 C 135.32101,870.17947 128.75704,887.37357 124.11786,905.09042 C 123.2888,907.3392 122.45973,909.58798 121.63067,911.83676 L 120.87033,912.23247 C 119.73826,910.97789 118.60619,909.72331 117.47411,908.46874 C 112.32252,892.83567 111.59759,879.45222 114.86154,863.20278 C 118.05765,844.43777 121.38136,825.67626 123.36541,806.73369 C 123.6529,803.30235 125.93542,786.15111 122.99923,783.39878 C 122.71185,783.1294 122.22563,783.24987 121.83884,783.17541 C 127.95483,779.48243 134.09321,775.82627 140.18683,772.09648 C 141.31523,771.40581 137.82853,773.31112 136.73595,774.05716 C 129.78661,778.80235 124.13323,785.25544 117.92581,790.85837 C 106.8574,801.80623 95.98607,812.95048 85.417959,824.3839 C 79.697044,830.68531 73.953618,836.99942 69.05424,843.9753 C 66.709606,846.00328 81.925027,844.50037 82.22535,844.62154 C 96.517564,843.97008 110.8211,843.62223 125.11975,843.1432 C 137.6676,842.60016 150.32775,842.24335 162.66069,839.66006 L 147.42705,851.37627 z" />
  </g>
</svg>
