<?xml version="1.0" encoding="UTF-8" standalone="no"?>
<!-- Created with Inkscape (http://www.inkscape.org/) -->
<svg
   xmlns:dc="http://purl.org/dc/elements/1.1/"
   xmlns:cc="http://creativecommons.org/ns#"
   xmlns:rdf="http://www.w3.org/1999/02/22-rdf-syntax-ns#"
   xmlns:svg="http://www.w3.org/2000/svg"
   xmlns="http://www.w3.org/2000/svg"
   xmlns:sodipodi="http://sodipodi.sourceforge.net/DTD/sodipodi-0.dtd"
   xmlns:inkscape="http://www.inkscape.org/namespaces/inkscape"
   width="3554.5696"
   height="1804.9205"
   id="svg2"
   sodipodi:version="0.32"
   inkscape:version="0.46"
   sodipodi:docname="hw6d1.svg"
   inkscape:output_extension="org.inkscape.output.svg.inkscape"
   version="1.0">
  <sodipodi:namedview
     id="base"
     pagecolor="#ffffff"
     bordercolor="#666666"
     borderopacity="1.0"
     gridtolerance="10000"
     guidetolerance="10"
     objecttolerance="10"
     inkscape:pageopacity="0.0"
     inkscape:pageshadow="2"
     inkscape:zoom="0.31358722"
     inkscape:cx="1777.2848"
     inkscape:cy="902.46028"
     inkscape:document-units="px"
     inkscape:current-layer="layer1"
     showgrid="false"
     inkscape:window-width="1270"
     inkscape:window-height="785"
     inkscape:window-x="0"
     inkscape:window-y="0" />
  <defs
     id="defs4">
    <inkscape:perspective
       id="perspective10"
       inkscape:persp3d-origin="372.04724 : 350.78739 : 1"
       inkscape:vp_z="744.09448 : 526.18109 : 1"
       inkscape:vp_y="0 : 1000 : 0"
       inkscape:vp_x="0 : 526.18109 : 1"
       sodipodi:type="inkscape:persp3d" />
  </defs>
  <metadata
     id="metadata7">
    <rdf:RDF>
      <cc:Work
         rdf:about="">
        <dc:format>image/svg+xml</dc:format>
        <dc:type
           rdf:resource="http://purl.org/dc/dcmitype/StillImage" />
      </cc:Work>
    </rdf:RDF>
  </metadata>
  <g
     transform="translate(1251.0895,2.5567944)"
     id="layer1"
     inkscape:groupmode="layer"
     inkscape:label="Layer 1">
    <path
       d="M 458.19238,136.05104 C 443.80458,142.29081 428.44574,145.21629 412.92394,146.70169 C 396.60424,147.41595 380.01614,145.09386 365.48366,137.23354 C 362.77028,135.76593 360.26591,133.94107 357.65704,132.29483 C 345.74849,122.72972 337.69879,109.56047 337.97705,93.88972 C 338.0352,90.614881 338.72588,87.38195 339.10029,84.128065 C 344.04997,64.138761 357.02063,47.791918 373.34464,35.578589 C 377.16803,32.718003 381.30906,30.308582 385.29127,27.673578 C 395.73024,21.975669 405.92706,15.809769 416.60817,10.57985 C 433.47639,2.320465 458.37816,-1.7145861 477.0466,-1.5520759 C 482.25885,-1.5067029 487.4518,-0.91175514 492.6544,-0.59159477 C 512.07827,2.1258863 531.09773,8.2436549 546.24029,21.187462 C 555.55609,29.150575 556.34853,31.826375 563.01557,41.846684 C 564.64547,45.880293 566.67316,49.775168 567.90528,53.947512 C 572.87268,70.768605 571.17729,89.178544 564.09213,105.13037 C 562.30652,109.15057 559.85608,112.84125 557.73805,116.69669 C 555.00075,120.17991 552.55663,123.91497 549.52616,127.14637 C 536.81179,140.70375 515.51265,151.60572 499.26933,158.43305 C 492.36341,161.33573 483.0454,160.83007 475.84785,160.97812 C 459.24701,158.66236 467.60457,160.24228 450.79029,156.15892 L 451.4921,155.66683 C 471.57374,157.80993 461.40127,157.53405 482.01227,156.38595 C 487.12025,155.37862 492.30672,154.70949 497.3362,153.36395 C 502.29819,152.03647 506.85415,149.23911 511.91912,148.38497 C 513.47774,148.12213 506.96052,152.26061 508.34975,151.50667 C 519.51048,145.44971 528.57458,136.55782 536.02308,126.389 C 538.19371,122.65427 540.67561,119.08385 542.53499,115.1848 C 552.00827,95.319691 552.38895,73.344461 543.33731,53.337634 C 537.32933,43.716263 536.35284,40.621405 527.69156,32.965956 C 513.13158,20.096818 494.41324,14.203441 475.49888,11.71676 C 470.39383,11.420604 465.29737,10.831822 460.18374,10.828292 C 449.90145,10.821194 439.32161,12.021806 429.27974,14.210759 C 424.23298,15.310863 419.24262,16.694901 414.33407,18.303044 C 409.51964,19.88035 405.13346,22.859774 400.147,23.755246 C 398.11817,24.119585 403.40818,21.233283 405.03877,19.972301 C 401.06665,22.51309 396.94144,24.829109 393.12241,27.594667 C 376.95608,39.301525 364.10417,54.972881 358.77811,74.40357 C 358.36928,77.509604 357.65344,80.590502 357.55162,83.721672 C 357.06842,98.581259 364.32618,111.56754 375.53099,120.84093 C 377.93293,122.50832 380.22251,124.35053 382.73682,125.8431 C 395.78582,133.58939 410.94857,136.64631 425.94886,137.10807 C 439.48457,136.68697 452.99595,135.13402 465.70325,130.14204 L 458.19238,136.05104 z"
       id="path2383"
       style="fill:#c8c8c8;fill-opacity:1;stroke:#000000;stroke-width:2;stroke-miterlimit:4;stroke-dasharray:none;stroke-opacity:1" />
    <path
       d="M 129.53892,540.61851 C 117.95122,545.02499 106.01191,546.73243 93.697828,545.86144 C 77.47118,543.64816 65.129459,533.81809 53.989659,522.52829 C 42.420792,509.52464 33.849493,493.85182 30.009923,476.79173 C 29.172092,473.06905 28.807411,469.25547 28.206155,465.48734 C 26.365641,445.21285 30.274346,425.00434 40.474135,407.27414 C 42.569845,403.63119 45.123597,400.27165 47.448329,396.7704 C 55.572607,386.47903 65.312252,377.83309 76.745421,371.36165 C 94.839683,361.11988 102.9544,354.97339 120.56832,350.95984 C 124.97865,349.95489 129.50273,349.53855 133.96994,348.8279 C 157.14845,347.22128 179.78973,352.9894 199.23015,365.81811 C 203.06284,368.3473 206.54594,371.37012 210.20383,374.14612 C 226.5322,388.70339 239.18661,406.92064 245.48973,427.99339 C 246.612,431.74537 247.29927,435.61395 248.20403,439.42423 C 250.90465,456.95292 249.26106,474.86726 239.60932,490.15942 C 237.7704,493.073 235.47036,495.66862 233.40088,498.42322 C 217.60896,514.07909 197.83826,526.87036 176.34141,533.05989 C 166.53343,535.88388 162.55313,536.12569 152.31832,537.66806 C 133.79102,539.15553 143.36057,538.40949 123.60898,539.89716 L 124.29696,539.38591 C 146.923,536.26845 135.59659,538.33317 158.26623,533.13731 C 172.41312,528.99632 176.03747,528.39124 189.48706,522.69121 C 194.11022,520.73188 198.24304,517.50531 203.10564,516.25324 C 206.30104,515.43045 193.50672,524.46954 194.62993,521.36697 C 197.0672,514.63462 209.91883,515.91141 211.34431,507.87576 C 213.50539,505.21942 215.87541,502.72021 217.82753,499.90674 C 228.07112,485.14332 231.0983,467.3804 228.93294,449.78127 C 228.14854,446.00565 227.61359,442.16948 226.57975,438.45441 C 220.78308,417.62426 208.50331,399.56755 192.19988,385.54181 C 188.54551,382.87131 185.04826,379.97133 181.23678,377.53031 C 161.79223,365.07726 139.31784,359.82236 116.38139,362.06393 C 111.96755,362.85984 107.48794,363.35176 103.13988,364.45166 C 98.805526,365.54809 94.775632,369.54039 90.396962,368.63703 C 87.49713,368.03877 100.2331,362.17935 97.486507,363.28532 C 86.861308,367.56376 75.131573,379.60654 67.618096,387.9871 C 65.111514,391.46736 62.38049,394.79649 60.098351,398.42788 C 49.091634,415.94202 44.011051,436.2421 44.629107,456.83429 C 45.688504,465.97125 45.799247,470.18768 48.311178,479.04195 C 52.014452,492.09558 58.565223,504.03112 67.098313,514.52615 C 77.576069,525.6034 89.027033,535.44811 104.56273,538.12197 C 115.2609,539.39851 125.83242,538.81293 136.15464,535.45605 L 129.53892,540.61851 z"
       id="path2387"
       style="fill:#c8c8c8;fill-opacity:1;stroke:#000000;stroke-width:2;stroke-miterlimit:4;stroke-dasharray:none;stroke-opacity:1" />
    <path
       d="M -242.26017,1004.4874 C -255.9403,1007.051 -269.71231,1007.2948 -283.53483,1006.136 C -304.89172,1003.6322 -322.42496,995.95649 -340.55383,984.79205 C -357.0894,973.53483 -370.70371,958.41707 -379.11711,940.1651 C -380.81432,936.48321 -382.07211,932.61425 -383.54961,928.83882 C -389.26543,909.40064 -389.08831,888.76659 -379.95776,870.33098 C -378.14001,866.66072 -375.73283,863.31314 -373.62036,859.80422 C -370.8765,856.56098 -368.36516,853.10576 -365.38877,850.07451 C -359.15503,843.72588 -351.68017,838.06712 -343.98219,833.63214 C -325.11941,822.76487 -317.51442,817.66529 -299.45105,812.10165 C -294.4804,810.57065 -289.37806,809.50543 -284.34157,808.20732 C -257.42607,802.88348 -229.67217,803.21676 -202.85989,809.07087 C -197.52627,810.23539 -192.30056,811.84841 -187.02089,813.23718 C -163.12825,821.22365 -140.23471,833.27689 -122.68357,851.70449 C -119.56061,854.9834 -116.89128,858.66623 -113.99513,862.14711 C -101.98801,878.82675 -94.319151,898.39009 -94.962463,919.1907 C -95.078584,922.94532 -95.74767,926.66238 -96.140274,930.39822 C -100.00061,949.7065 -110.80473,966.13854 -126.73892,977.7348 C -130.43086,980.42164 -134.47456,982.58846 -138.34238,985.0153 C -148.98437,990.56046 -159.32689,996.7228 -170.26835,1001.6508 C -179.38199,1005.7555 -195.99966,1006.5426 -205.7882,1005.3556 C -209.84594,1004.8636 -213.79524,1003.7073 -217.79875,1002.8832 L -217.10224,1002.3836 C -211.6573,1002.1385 -206.1884,1002.2142 -200.7674,1001.6481 C -190.13759,1000.5382 -179.05459,998.03912 -168.92536,994.64617 C -163.87402,992.95413 -159.37902,989.15246 -154.06609,988.76281 C -150.93222,988.53297 -159.23491,992.33761 -161.81933,994.12501 C -158.46449,992.02522 -154.97612,990.12504 -151.75482,987.82563 C -135.62173,976.30958 -123.80463,960.48053 -118.39497,941.34938 C -117.739,937.61469 -116.80814,933.91797 -116.42704,930.14531 C -114.35132,909.59688 -120.78671,889.96808 -132.02536,872.94926 C -139.13412,864.09386 -141.45076,860.42781 -150.10877,852.84898 C -165.4236,839.44307 -183.86415,830.39806 -203.17268,824.3543 C -208.40859,823.00252 -213.59111,821.42388 -218.8804,820.29896 C -245.71369,814.59213 -273.46296,814.7825 -300.27616,820.42756 C -305.30113,821.79641 -310.39402,822.93671 -315.35107,824.53413 C -320.12457,826.0724 -324.49772,828.94943 -329.43604,829.82438 C -331.27954,830.15101 -323.44243,825.38045 -325.09491,826.26051 C -336.78072,832.48403 -346.74703,841.23087 -354.94148,851.56008 C -357.1352,854.98231 -359.61587,858.23673 -361.52265,861.82675 C -371.0515,879.76738 -371.52451,899.83606 -365.96957,919.05802 C -364.58006,922.79161 -363.41344,926.61591 -361.80104,930.2588 C -353.80638,948.32105 -340.47829,962.99158 -324.62376,974.52784 C -307.17009,985.64138 -289.83816,993.4886 -269.03644,995.79495 C -255.60927,997.02722 -242.14441,997.24877 -228.87781,994.37679 L -242.26017,1004.4874 z"
       id="path2389"
       style="fill:#c8c8c8;fill-opacity:1;stroke:#000000;stroke-width:2;stroke-miterlimit:4;stroke-dasharray:none;stroke-opacity:1" />
    <path
       d="M 1701.6285,523.81507 C 1699.1248,526.25324 1699.0441,526.62079 1695.6664,528.47092 C 1688.9738,532.13677 1682.3817,536.02854 1675.4251,539.16462 C 1669.2796,541.93508 1658.4121,541.29056 1651.9109,541.09623 C 1634.9497,539.27658 1617.705,534.13564 1604.6673,522.59342 C 1602.0714,520.29529 1599.9372,517.52326 1597.5721,514.98818 C 1595.7812,512.03351 1593.6433,509.26305 1592.1994,506.12415 C 1585.5644,491.70039 1587.2109,475.63995 1592.7286,461.18611 C 1594.3323,456.9851 1596.4955,453.01957 1598.3789,448.9363 C 1608.3769,431.65286 1621.8808,416.7375 1638.0291,404.98247 C 1651.7412,395.00082 1671.5503,385.34483 1684.8929,378.07035 C 1709.3,367.85109 1735.61,365.11319 1761.721,369.02995 C 1767.1819,369.8491 1772.5538,371.17959 1777.9702,372.25441 C 1804.7967,379.34442 1830.3162,391.56167 1851.5009,409.67369 C 1855.4395,413.04105 1859.0001,416.82688 1862.7498,420.40348 C 1878.1897,437.22997 1889.5428,457.73317 1890.4631,480.98847 C 1890.6217,484.99645 1890.1498,489.00459 1889.9932,493.01264 C 1887.5434,508.67884 1880.8813,522.73748 1869.0639,533.51993 C 1857.2378,544.31021 1835.7452,554.31504 1824.838,560.48471 C 1807.7025,567.22192 1789.3274,570.55855 1770.8896,569.7421 C 1762.9741,569.39159 1752.1579,567.49176 1744.3543,566.2796 C 1732.229,564.26283 1720.402,561.04553 1708.6387,557.5579 L 1709.3391,557.06375 C 1725.0608,557.45699 1740.789,557.93527 1756.517,557.52867 C 1786.8578,556.33759 1818.1104,554.988 1846.4709,543.10111 C 1842.2989,545.73779 1838.6093,549.36978 1833.9549,551.01116 C 1830.1789,552.34274 1840.6852,546.6356 1843.7509,544.06031 C 1855.8882,533.86471 1863.5564,520.21302 1866.5857,504.73777 C 1866.9774,500.76649 1867.7102,496.81415 1867.7609,492.82392 C 1868.0513,469.95025 1857.7375,449.4537 1843.0305,432.53253 C 1839.4062,428.97599 1835.976,425.21016 1832.1575,421.86293 C 1811.3565,403.62915 1785.818,392.05598 1759.168,385.37702 C 1753.7795,384.37577 1748.4354,383.09523 1743.0024,382.37329 C 1716.867,378.90041 1690.5993,382.33441 1666.4116,392.85174 C 1668.5935,391.24126 1675.3658,386.77348 1672.9575,388.02029 C 1650.938,399.41986 1633.0893,418.04694 1620.277,438.97233 C 1618.3472,442.94241 1616.0967,446.77204 1614.4877,450.88259 C 1607.4657,468.82136 1607.9886,486.00767 1618.6935,502.18439 C 1620.8782,504.65942 1622.863,507.32657 1625.2478,509.60946 C 1636.9512,520.81271 1652.5626,526.7055 1668.2872,529.31985 C 1674.1636,529.72965 1677.5316,530.28744 1683.3116,529.51812 C 1685.3961,529.24067 1690.6691,526.40052 1689.4642,528.12402 C 1687.2362,531.31116 1682.8359,532.21971 1679.7599,534.59877 C 1677.3608,536.45434 1689.2676,529.26592 1687.4765,529.7773 L 1701.6285,523.81507 z"
       id="path2393"
       style="fill:#c8c8c8;fill-opacity:1;stroke:#000000;stroke-width:2;stroke-miterlimit:4;stroke-dasharray:none;stroke-opacity:1" />
    <path
       d="M -24.495645,1299.9741 C -24.513695,1312.637 -27.718285,1325.0087 -30.799685,1337.2033 C -34.931435,1352.2091 -38.186575,1367.4401 -42.137305,1382.4885 C -44.857605,1390.2747 -47.171155,1398.2331 -51.844805,1405.0981 L -52.603775,1405.4964 C -53.446695,1405.2566 -54.384845,1405.2341 -55.132545,1404.777 C -59.218135,1402.2791 -59.477875,1395.3955 -60.489855,1391.4469 C -59.335205,1376.1434 -54.635845,1361.4692 -50.683655,1346.7104 C -47.362715,1334.0895 -43.940875,1321.473 -41.702435,1308.6026 L -24.495645,1299.9741 z"
       id="path2399"
       style="fill:#c8c8c8;fill-opacity:1;stroke:#000000;stroke-width:2;stroke-miterlimit:4;stroke-dasharray:none;stroke-opacity:1" />
    <path
       d="M 1712.2876,454.23727 C 1728.7728,443.0486 1738.5517,439.27677 1757.4426,440.12356 C 1766.1688,441.04352 1775.2323,442.49668 1782.2,448.1774 C 1785.822,452.42257 1784.4507,456.84937 1781.8587,461.17458 C 1779.6165,464.35557 1777.2072,467.05532 1777.9523,471.10902 C 1779.4275,474.746 1782.5513,477.35485 1785.4208,479.90075 C 1788.8469,483.1356 1791.5138,486.73809 1792.2489,491.44701 C 1792.3641,498.72552 1786.3237,503.1548 1780.9125,506.92003 C 1754.7662,522.54347 1752.3743,527.27997 1726.9438,526.06233 C 1724.8555,525.59323 1722.7671,525.12413 1720.6788,524.65503 L 1721.369,524.14681 C 1725.2109,523.29969 1729.0527,522.45257 1732.8946,521.60545 C 1742.4516,519.05996 1751.6424,516.28788 1760.6988,512.25938 C 1763.2326,511.13232 1765.7079,509.87789 1768.1952,508.65163 C 1770.1369,507.69434 1775.8262,504.57055 1773.9849,505.70908 C 1767.4311,509.7615 1760.6908,513.50429 1754.0438,517.40189 C 1760.087,513.71278 1766.2991,509.76754 1769.2243,503.01391 C 1770.4392,498.67082 1770.062,494.60134 1767.3957,490.82973 C 1764.9625,487.45336 1761.6654,484.65237 1760.058,480.73626 C 1758.8595,476.13908 1760.54,472.60604 1763.6652,469.17249 C 1766.0315,465.73392 1769.1264,461.92796 1766.8035,457.70706 C 1760.8904,451.51843 1751.9433,450.61626 1743.8077,449.97402 C 1736.1455,449.90448 1728.6524,450.17358 1721.3505,452.80045 C 1719.8465,453.34154 1715.6371,455.62837 1716.9631,454.73572 C 1720.8505,452.11869 1725.0383,449.97832 1729.0759,447.59963 L 1712.2876,454.23727 z"
       id="path2403"
       style="fill:#c8c8c8;fill-opacity:1;stroke:#000000;stroke-width:2;stroke-miterlimit:4;stroke-dasharray:none;stroke-opacity:1" />
    <path
       d="M -203.41356,880.81476 C -211.64029,879.34454 -220.0592,879.7245 -228.36785,880.06968 C -234.31732,880.45951 -240.47496,880.54173 -245.9701,883.08458 C -253.22753,888.04831 -244.04599,881.70345 -230.85272,874.70867 C -230.32493,874.42885 -231.73418,875.52062 -232.11475,875.98109 C -233.3141,877.43227 -233.91419,879.0852 -234.50478,880.83893 C -235.42866,884.19702 -234.90175,886.73931 -231.95913,888.70096 C -228.71834,890.13428 -225.12576,889.78309 -221.67761,889.64851 C -215.76233,889.27377 -209.91064,889.44204 -204.09765,890.62708 C -197.37523,892.01797 -192.02928,895.5343 -187.8559,900.88755 C -183.73243,906.92672 -183.23404,913.4649 -185.13911,920.34172 C -188.10304,927.59955 -194.04755,932.60983 -200.77906,936.32523 C -210.03567,941.43435 -219.36952,946.40227 -228.66475,951.44078 C -237.84589,953.80556 -243.94124,950.00319 -250.69368,944.24637 L -249.98387,943.76589 C -247.79199,943.95754 -245.60846,944.33227 -243.40823,944.34082 C -231.06568,944.38878 -219.32957,939.95502 -208.14643,935.21706 C -214.15738,938.83894 -220.21576,942.38326 -226.17928,946.08272 C -227.59942,946.9637 -223.2065,944.54836 -221.78137,943.67547 C -216.71892,940.57473 -212.28186,936.60614 -209.16215,931.51991 C -206.23854,925.36633 -204.9066,919.16104 -207.89834,912.70253 C -211.24482,907.35381 -216.17991,904.52933 -222.41275,903.47961 C -228.32953,902.72082 -234.22137,902.59036 -240.17191,903.15966 C -244.0227,903.21342 -248.08365,903.23615 -251.24623,900.71025 C -254.15234,897.66393 -254.79212,894.04519 -253.7466,889.96962 C -250.90815,878.49708 -240.48545,874.37615 -229.0912,869.88807 C -223.89219,868.46462 -218.5597,868.63319 -213.21966,869.09024 C -205.4555,869.65407 -197.70061,870.30514 -189.99214,871.41741 L -203.41356,880.81476 z"
       id="path2407"
       style="fill:#c8c8c8;fill-opacity:1;stroke:#000000;stroke-width:2;stroke-miterlimit:4;stroke-dasharray:none;stroke-opacity:1" />
    <path
       d="M 395.25867,154.97631 C 389.18976,163.57156 383.15841,172.19268 377.12816,180.81517 C 368.54107,193.12479 360.55451,205.83697 352.66283,218.59885 C 344.21168,232.4785 335.56883,246.22192 326.2654,259.54735 C 318.25511,270.88128 309.01373,281.24926 299.42613,291.25487 C 290.83813,299.84903 282.43105,308.6101 274.45228,317.77335 C 267.97288,326.27627 260.92779,334.27415 253.90464,342.3205 C 251.15128,345.61329 248.2883,348.79521 245.28789,351.86197 L 244.50824,352.21813 C 243.27917,350.82756 242.49057,349.45208 242.32265,347.53602 C 241.96118,338.71266 247.30195,333.54207 252.58349,327.01596 C 260.73186,317.55529 269.4435,308.6208 278.44994,299.97473 C 288.47048,289.86778 298.28848,279.52528 306.72339,268.02442 C 316.39601,254.73828 325.27285,240.90518 333.85817,226.89499 C 342.11548,213.75604 350.49218,200.67619 359.84929,188.28169 C 367.02631,178.93865 374.25403,169.62534 381.92031,160.67557 L 395.25867,154.97631 z"
       id="path2415"
       style="fill:#c8c8c8;fill-opacity:1;stroke:#000000;stroke-width:2;stroke-miterlimit:4;stroke-dasharray:none;stroke-opacity:1" />
    <path
       d="M 52.991259,536.30245 C 47.020933,548.24021 39.612525,559.3549 32.128264,570.37763 C 21.013531,586.46694 9.5341432,602.31269 -2.3272171,617.86043 C -13.826644,633.30419 -26.520623,647.78826 -39.630299,661.87052 C -51.860811,674.89377 -65.048223,686.94922 -78.339334,698.86803 C -88.800365,707.87798 -99.055524,717.0858 -108.30352,727.3479 C -116.70216,737.26035 -123.11502,748.60568 -129.93523,759.6078 C -137.5585,771.01751 -145.92751,782.2502 -156.66787,790.90702 L -157.45852,791.23804 C -154.71646,783.40761 -152.35854,775.37811 -148.67183,767.94583 C -142.62397,756.69888 -136.3331,745.47426 -128.06947,735.67027 C -118.73241,725.04718 -108.15754,715.68374 -97.337885,706.59599 C -83.190909,694.3693 -69.222083,681.91445 -55.991464,668.69224 C -42.05523,654.43398 -28.600387,639.70072 -16.400142,623.90965 C -4.3179591,608.13712 7.6420667,592.27369 19.112355,576.04771 C 27.125144,564.61766 35.070219,553.11759 42.233864,541.1307 L 52.991259,536.30245 z"
       id="path2417"
       style="fill:#c8c8c8;fill-opacity:1;stroke:#000000;stroke-width:2;stroke-miterlimit:4;stroke-dasharray:none;stroke-opacity:1" />
    <path
       d="M -336.64005,1003.3484 C -344.26581,1013.12 -352.23409,1022.6122 -360.52669,1031.8228 C -373.74225,1046.4062 -388.1873,1059.7837 -402.91673,1072.8085 C -415.08348,1083.5046 -427.66752,1093.7072 -440.22258,1103.9396 C -448.25714,1110.4066 -455.96024,1117.2652 -463.48295,1124.3166 C -467.78508,1128.1898 -471.43309,1132.729 -475.769,1136.5594 C -478.85413,1138.8854 -482.34507,1140.5978 -485.81527,1142.2643 L -489.79197,1143.9948 C -491.68481,1144.6999 -494.58747,1146.2336 -496.52759,1145.4051 C -495.11308,1140.8091 -490.095,1137.6757 -487.24145,1134.0905 C -479.79263,1126.874 -472.0669,1119.9525 -463.95653,1113.4818 C -451.09406,1103.1124 -438.18961,1092.7908 -425.63813,1082.0435 C -410.24558,1068.7098 -395.12296,1055.0479 -380.97742,1040.3812 C -371.79762,1030.801 -362.88347,1020.9881 -354.33047,1010.8422 L -336.64005,1003.3484 z"
       id="path2427"
       style="fill:#c8c8c8;fill-opacity:1;stroke:#000000;stroke-width:2;stroke-miterlimit:4;stroke-dasharray:none;stroke-opacity:1" />
    <path
       d="M 127.21068,436.25808 C 119.89592,440.28778 111.94332,443.37098 104.95909,447.99368 C 103.94177,448.66708 107.13092,446.88178 108.21683,446.32578 C 98.362647,452.29358 90.665857,460.41848 84.535857,470.06838 C 79.545027,479.72748 76.630937,488.29128 81.023887,498.70658 C 86.783487,507.03948 96.570607,506.18568 105.41031,504.42518 C 107.25149,503.86638 109.12194,503.39628 110.93385,502.74888 C 114.71144,501.39918 118.45819,499.62568 121.97181,497.70008 C 123.7446,496.72858 129.01844,493.74798 127.18884,494.60768 C 118.16986,498.84608 113.08372,503.10658 121.34124,496.76878 C 127.80127,491.24998 131.7399,486.95158 132.01798,478.27398 C 129.64736,468.63828 122.97356,460.98038 116.86484,453.45318 C 108.52956,443.45628 100.44948,433.28718 94.135707,421.87478 C 89.416577,412.39938 88.557667,405.03608 94.184127,395.91238 C 97.331207,392.76728 97.376427,392.29398 101.39479,390.07658 C 120.00529,379.80698 122.43507,376.46148 140.3981,376.90798 C 153.30633,378.01778 164.33732,383.69328 174.07646,391.92138 C 182.16696,399.72928 186.23259,407.34978 185.79438,418.67358 C 183.58179,430.77578 173.32382,438.54678 163.23557,444.31158 C 161.09097,445.12928 158.94637,445.94688 156.80177,446.76448 L 157.47821,446.23808 C 157.94751,446.15978 158.41681,446.08158 158.88611,446.00328 C 164.60789,441.29568 165.66477,434.84068 167.37579,427.91978 C 168.2986,416.77718 165.74382,410.14918 157.81323,402.08038 C 148.28915,394.09578 137.43842,388.70398 124.78417,388.23698 C 119.46493,388.30328 118.16234,388.04878 112.97327,389.16908 C 111.17193,389.55798 106.28227,391.92638 107.66241,390.70518 C 111.34123,387.45008 116.03929,385.56778 120.12512,382.84088 C 121.37704,382.00538 117.41598,384.17608 116.17324,385.02518 C 115.03022,385.80618 114.05945,386.81338 113.00256,387.70738 C 106.67662,395.98888 107.85141,402.45178 111.94699,411.65428 C 118.01815,423.07358 126.04128,433.17118 134.53063,442.89398 C 140.75558,450.77898 148.1852,458.93448 149.98938,469.11218 C 150.29756,478.70778 144.79794,484.11878 137.97937,490.13108 C 127.74986,497.97358 134.10497,493.36698 114.00924,505.27968 C 107.23503,509.29548 100.05137,512.64278 92.307527,514.28138 C 82.759957,515.57668 73.242977,515.34088 68.238157,505.76998 C 65.067447,494.58698 67.672947,484.99228 73.308207,474.99998 C 80.044577,464.74228 88.384187,456.09168 99.073507,449.85848 C 109.67829,443.67718 120.24469,437.43558 131.61789,432.73968 L 127.21068,436.25808 z"
       id="path2429"
       style="fill:#c8c8c8;fill-opacity:1;stroke:#000000;stroke-width:2;stroke-miterlimit:4;stroke-dasharray:none;stroke-opacity:1" />
    <path
       d="M -714.16573,1275.1994 C -719.93582,1266.8272 -719.15575,1257.046 -717.04762,1247.6166 C -712.39078,1232.0183 -702.07413,1219.522 -691.27342,1207.744 C -674.34611,1189.5168 -652.84337,1177.4368 -631.45468,1165.3194 C -610.70592,1154.2612 -588.3538,1146.9894 -565.78029,1140.7436 C -546.31198,1135.911 -526.35578,1131.7716 -506.17903,1132.3472 C -502.51925,1132.4516 -498.87716,1132.8968 -495.22622,1133.1716 C -473.2458,1136.2901 -460.81163,1144.3532 -445.58712,1159.7987 C -432.90598,1173.9821 -423.4082,1190.4374 -415.48096,1207.6275 C -409.84425,1221.8847 -406.61032,1237.2432 -408.52181,1252.6114 C -408.89888,1255.6431 -409.66462,1258.6137 -410.23602,1261.6148 C -414.25606,1276.7219 -422.4316,1290.3166 -434.30018,1300.5768 C -436.83009,1302.7638 -439.61361,1304.6391 -442.27032,1306.6702 C -445.26335,1308.4944 -448.18714,1310.4374 -451.2494,1312.1429 C -462.17123,1318.2255 -473.0483,1324.4059 -484.21352,1330.0293 C -487.94903,1331.9107 -491.9571,1333.1995 -495.889,1334.6255 C -509.20491,1339.4551 -522.88255,1343.039 -536.55845,1346.6637 C -566.92156,1354.7713 -597.92923,1359.5619 -629.27717,1361.2391 C -648.56771,1361.7146 -667.9379,1359.8535 -686.47334,1354.2861 C -697.30665,1351.0321 -700.73325,1349.0821 -710.93463,1344.4702 C -727.05183,1335.3029 -744.50762,1323.1855 -748.48004,1303.6337 C -749.24262,1299.8804 -748.97773,1295.9899 -749.22657,1292.168 C -744.60553,1263.3906 -725.07381,1242.1563 -706.32276,1221.2656 L -705.53363,1220.931 C -709.14825,1225.5096 -713.14018,1229.8141 -716.37748,1234.6668 C -723.15359,1244.8242 -728.7619,1258.0446 -728.7148,1270.4945 C -728.70209,1273.8536 -727.71316,1277.1377 -727.21234,1280.4592 C -726.21856,1283.6331 -725.52284,1286.9162 -724.23101,1289.9808 C -716.93356,1307.293 -701.24518,1318.8576 -685.18527,1327.3946 C -681.36958,1329.1476 -677.63672,1331.0935 -673.7382,1332.6536 C -652.01289,1341.3479 -628.58952,1344.1637 -605.32533,1343.6399 C -574.481,1341.9774 -544.00544,1337.1789 -514.07851,1329.4317 C -500.78626,1325.9715 -487.48326,1322.5489 -474.55295,1317.8636 C -470.79092,1316.5004 -462.28786,1309.6004 -463.39087,1313.4468 C -464.73517,1318.1346 -472.16323,1318.0485 -475.59855,1321.5098 C -478.18735,1324.1182 -469.202,1317.8895 -466.00372,1316.0794 C -463.17924,1314.0901 -460.23539,1312.2603 -457.53029,1310.1114 C -445.01477,1300.1694 -435.97185,1287.0897 -431.29495,1271.8082 C -429.60919,1264.3003 -428.68547,1261.759 -428.35992,1254.0314 C -427.84581,1241.8279 -430.70939,1229.9361 -434.9389,1218.5765 C -442.10984,1201.3177 -451.20273,1184.9042 -463.54895,1170.7513 C -477.04424,1156.2088 -489.72391,1146.9601 -509.78866,1143.5466 C -513.19633,1143.1642 -516.5892,1142.6119 -520.01167,1142.3993 C -539.31433,1141.2007 -558.53158,1145.0484 -577.19504,1149.5121 C -599.225,1155.4741 -621.03017,1162.5624 -641.28661,1173.2485 C -637.59337,1170.2243 -637.59657,1170.3185 -649.40981,1177.9338 C -658.12037,1183.549 -666.37723,1189.843 -674.07968,1196.776 C -676.51284,1198.9661 -678.83287,1201.2787 -681.20947,1203.5301 C -692.24997,1215.3374 -702.8757,1227.9135 -708.27938,1243.4122 C -710.91995,1253.2473 -711.94987,1261.6807 -706.9848,1271.0076 L -714.16573,1275.1994 z"
       id="path2431"
       style="fill:#c8c8c8;fill-opacity:1;stroke:#000000;stroke-width:2;stroke-miterlimit:4;stroke-dasharray:none;stroke-opacity:1" />
    <path
       d="M -676.74055,1351.3107 C -689.37547,1361.2214 -701.87053,1371.3073 -714.53004,1381.1871 C -736.44194,1398.2825 -759.05951,1414.4353 -781.90262,1430.2539 C -805.95322,1446.8994 -830.2293,1463.2132 -854.72932,1479.1888 C -884.73467,1498.2951 -915.38244,1516.5042 -947.24993,1532.3425 C -962.72144,1539.8561 -978.76018,1546.0983 -994.96198,1551.8321 C -1003.6886,1554.8734 -1012.4222,1557.9461 -1020.6996,1562.0819 C -1021.5906,1562.5829 -1022.4815,1563.084 -1023.3724,1563.5851 C -1014.8611,1558.7034 -1006.3768,1553.7741 -997.83832,1548.94 C -997.14088,1548.5451 -999.19524,1549.7953 -999.84469,1550.2649 C -1001.3967,1551.3872 -1002.6736,1552.7426 -1003.9705,1554.1373 C -1004.4001,1554.6694 -1004.7838,1555.242 -1005.2592,1555.7335 C -1007.7958,1558.356 -1007.4559,1557.2039 -1009.3298,1560.2762 C -1010.6944,1562.5136 -1011.4149,1564.8403 -1012.8864,1567.039 L -1013.5833,1567.5379 C -1015.2319,1568.2001 -1016.8215,1569.0339 -1018.529,1569.5244 C -1022.1401,1570.5616 -1029.1603,1570.9708 -1032.5667,1568.8353 C -1032.9765,1568.5784 -1032.9504,1567.9475 -1033.1423,1567.5036 C -1032.8894,1564.5419 -1030.7646,1562.2186 -1028.1956,1560.692 C -1001.5021,1544.8292 -1007.9781,1548.1152 -995.20309,1541.7774 C -987.00714,1538.1141 -978.51822,1535.2049 -970.00487,1532.3724 C -954.21743,1526.8125 -938.55375,1520.8631 -923.55042,1513.3929 C -920.21428,1511.7313 -916.85444,1510.1165 -913.54202,1508.4081 C -909.98506,1506.5736 -899.76014,1500.3406 -902.94416,1502.7654 C -907.36205,1506.1297 -912.60771,1508.2506 -917.27869,1511.2537 C -921.04643,1513.6761 -909.5084,1506.7946 -905.65614,1504.509 C -895.39338,1498.4199 -891.79876,1496.0671 -881.63987,1489.6797 C -856.87479,1473.6868 -832.40968,1457.2398 -808.10604,1440.5544 C -784.83732,1424.5686 -761.67716,1408.4056 -739.3544,1391.1091 C -726.58753,1381.2236 -713.97518,1371.1489 -701.33942,1361.0976 L -676.74055,1351.3107 z"
       id="path2461"
       style="fill:#c8c8c8;fill-opacity:1;stroke:#000000;stroke-width:2;stroke-miterlimit:4;stroke-dasharray:none;stroke-opacity:1" />
    <path
       d="M -1110.5394,1668.687 C -1102.7363,1661.8722 -1094.5854,1655.4626 -1086.4291,1649.0783 C -1074.1689,1638.4792 -1060.4379,1630.8766 -1046.3952,1622.8176 C -1037.9577,1619.5745 -1036.8905,1628.9572 -1036.7007,1635.0611 C -1037.7272,1651.1389 -1041.9164,1666.7901 -1046.1157,1682.274 C -1050.2229,1698.8835 -1058.3778,1713.9621 -1064.2193,1729.9228 C -1065.5097,1735.6829 -1065.5081,1733.0316 -1064.7872,1737.8562 L -1065.5167,1738.3061 C -1071.1124,1736.6835 -1068.6104,1737.9961 -1073.0575,1734.4355 C -1073.8232,1733.1041 -1074.7976,1731.8726 -1075.3546,1730.4413 C -1079.895,1718.7751 -1074.8696,1706.2319 -1072.3621,1694.7795 C -1068.1388,1679.3418 -1064.1415,1663.7806 -1062.1018,1647.8789 C -1061.9969,1646.92 -1060.5823,1637.4187 -1061.4191,1636.4372 C -1061.8349,1635.9495 -1063.5013,1636.6083 -1063.6347,1636.6432 C -1027.4705,1615.1864 -1063.3099,1636.0294 -1069.7838,1642.4357 C -1078.431,1648.9706 -1086.9969,1655.6149 -1095.3431,1662.5322 L -1110.5394,1668.687 z"
       id="path2463"
       style="fill:#c8c8c8;fill-opacity:1;stroke:#000000;stroke-width:2;stroke-miterlimit:4;stroke-dasharray:none;stroke-opacity:1" />
    <path
       d="M -152.84772,1001.2012 C -141.224,1004.5874 -132.85023,1012.9159 -125.38892,1022.0155 C -112.84858,1039.4064 -105.98582,1059.9864 -98.618143,1079.9084 C -89.794569,1105.7207 -79.566267,1130.9712 -68.789185,1156.0161 C -61.474655,1174.2635 -51.2045,1191.5236 -45.402116,1210.379 C -44.454564,1213.4582 -43.861998,1216.6355 -43.091938,1219.7638 C -41.672754,1232.5929 -42.808631,1244.9576 -48.299728,1256.6451 L -49.064915,1257.0313 C -55.042843,1249.1173 -58.776231,1239.7042 -64.399502,1231.5329 C -73.926558,1210.8051 -82.308235,1189.5492 -91.069407,1168.4921 C -101.2051,1142.9724 -110.23103,1117.0301 -118.31786,1090.7875 C -124.8261,1070.6342 -131.18285,1050.174 -141.76076,1031.705 C -147.61888,1022.6557 -154.00354,1013.9981 -163.25788,1008.1309 L -152.84772,1001.2012 z"
       id="path2465"
       style="fill:#c8c8c8;fill-opacity:1;stroke:#000000;stroke-width:2;stroke-miterlimit:4;stroke-dasharray:none;stroke-opacity:1" />
    <path
       d="M -73.677311,1510.0537 C -88.461885,1510.9708 -103.17267,1506.6455 -115.99709,1499.379 C -119.8569,1497.192 -123.43124,1494.5356 -127.14831,1492.1139 C -149.75352,1474.4361 -165.16375,1449.8829 -172.12392,1422.0519 C -173.71595,1415.686 -174.49286,1409.1436 -175.67733,1402.6894 C -178.19799,1374.9078 -173.84996,1347.3262 -161.92101,1322.0147 C -153.99021,1305.1867 -150.57241,1302.2445 -139.45789,1287.5596 C -134.64226,1282.8175 -130.16219,1277.7086 -125.011,1273.3333 C -119.94664,1269.0318 -114.59383,1265.0186 -108.89557,1261.6009 C -87.068375,1248.5095 -74.076335,1239.8653 -51.353027,1234.5367 C -34.131898,1230.4984 -28.800094,1231.3724 -11.187982,1231.1037 C 24.13698,1233.6653 57.551414,1246.3971 86.179611,1267.203 C 91.675344,1271.1971 96.724772,1275.7718 101.99735,1280.0561 C 122.39766,1299.6038 141.57799,1323.4054 145.86626,1352.3092 C 146.5376,1356.8341 146.26138,1361.4496 146.45894,1366.0198 C 145.73827,1370.3052 145.51474,1374.7045 144.29692,1378.8759 C 138.89164,1397.3906 124.31738,1410.7944 108.01308,1420.0209 C 93.9742,1427.9655 79.593096,1435.2895 65.383103,1442.9238 C 34.765388,1454.6306 4.3470538,1459.4487 -28.367043,1457.0709 C -34.510172,1456.6243 -40.601857,1455.6359 -46.719264,1454.9185 C -68.982106,1449.621 -58.538555,1453.3648 -78.169839,1444.0273 L -77.463854,1443.5412 C -49.572386,1446.5875 -63.667666,1445.5587 -35.17442,1446.5779 C -27.662096,1446.2258 -20.133104,1446.1333 -12.637448,1445.5217 C 5.2861977,1444.0591 15.638453,1442.1287 33.290391,1438.7356 C 52.685718,1435.0074 72.046773,1430.7619 90.329755,1423.0687 C 86.443837,1425.853 73.89224,1431.3418 78.672002,1431.4215 C 84.01183,1431.5106 88.011603,1426.1965 92.364771,1423.1027 C 107.95272,1412.0243 118.7412,1397.3436 122.24042,1378.3797 C 122.61628,1366.0002 123.599,1362.7031 120.26392,1350.3725 C 114.07423,1327.4876 98.910159,1308.6261 82.205765,1292.4646 C 77.011128,1288.2304 72.045055,1283.6992 66.621853,1279.7619 C 38.154374,1259.0946 4.6758257,1247.0323 -30.439089,1245.165 C -48.07982,1245.7895 -53.363184,1245.0163 -70.538613,1249.4227 C -76.945657,1251.0664 -82.855614,1254.4594 -89.337989,1255.775 C -90.847966,1256.0815 -84.711008,1251.7406 -86.013649,1252.5634 C -103.21832,1263.4312 -102.12199,1263.7883 -116.79264,1277.8253 C -127.91136,1292.0419 -131.64981,1295.2692 -139.59074,1311.6752 C -151.5398,1336.362 -155.87213,1363.5692 -153.29683,1390.7674 C -152.12633,1397.0941 -151.42034,1403.5246 -149.78535,1409.7475 C -142.66492,1436.8481 -126.74888,1460.4063 -105.26011,1478.1288 C -101.79736,1480.594 -98.452204,1483.2333 -94.871872,1485.5243 C -84.158119,1492.3801 -72.259471,1497.0432 -59.94706,1500.064 L -73.677311,1510.0537 z"
       id="path2469"
       style="fill:#c8c8c8;fill-opacity:1;stroke:#000000;stroke-width:2;stroke-miterlimit:4;stroke-dasharray:none;stroke-opacity:1" />
    <path
       d="M -917.22863,1655.2603 C -925.43211,1670.9576 -934.43886,1686.161 -944.14828,1700.9686 C -958.69309,1721.5958 -976.01118,1740.4536 -996.22351,1755.6724 C -1000.8829,1759.1806 -1005.8179,1762.3069 -1010.6151,1765.6242 C -1040.9458,1784.4014 -1074.5578,1798.2456 -1110.4423,1801.0298 C -1116.8187,1801.5245 -1123.2316,1801.2524 -1129.6263,1801.3637 C -1159.4701,1799.4051 -1188.734,1789.9264 -1212.4798,1771.2913 C -1216.8547,1767.8581 -1220.6939,1763.7922 -1224.801,1760.0427 C -1239.6409,1744.1797 -1249.7952,1724.9417 -1250.078,1702.7936 C -1250.2739,1687.4579 -1247.9597,1684.2139 -1243.4029,1669.5251 C -1240.3209,1663.8145 -1237.7008,1657.8293 -1234.157,1652.3932 C -1206.7563,1610.3612 -1163.0216,1590.9374 -1119.9203,1569.0851 C -1086.0204,1556.0625 -1049.985,1549.4597 -1013.6249,1551.0891 C -992.31098,1552.0442 -985.70995,1554.1719 -965.12524,1558.3109 C -937.41039,1566.3493 -904.82142,1578.4814 -885.94046,1601.7156 C -883.36817,1604.881 -881.53384,1608.5805 -879.33053,1612.013 C -878.24335,1615.4821 -876.58337,1618.8214 -876.06897,1622.4203 C -873.76671,1638.5277 -884.37661,1652.6994 -896.09768,1662.3271 C -900.00051,1665.5329 -904.36497,1668.1313 -908.49862,1671.0334 C -926.54816,1682.3801 -944.14807,1691.9303 -965.03516,1695.7934 C -976.01438,1697.824 -981.3381,1697.5527 -992.50107,1697.8917 L -991.81215,1697.3817 C -975.32484,1695.0783 -974.5274,1695.6392 -958.2326,1690.5309 C -937.24222,1683.9505 -945.31377,1685.4183 -925.1984,1676.8026 C -923.88736,1676.2411 -927.62418,1678.3034 -928.83707,1679.0537 C -913.74652,1668.3379 -894.85764,1654.3809 -896.20335,1633.3544 C -896.4266,1629.8662 -897.72778,1626.5319 -898.48999,1623.1207 C -900.40946,1619.7 -901.94083,1616.0304 -904.2484,1612.8585 C -922.09962,1588.321 -952.78482,1577.4202 -980.53861,1569.051 C -1002.0024,1564.7817 -1006.5953,1562.9873 -1028.9359,1562.2431 C -1065.5887,1561.0222 -1101.716,1567.9629 -1135.69,1581.6204 C -1150.1124,1584.4439 -1144.607,1582.5452 -1164.9674,1596.1954 C -1188.9649,1612.2841 -1209.5346,1632.9057 -1221.7679,1659.3219 C -1226.0872,1672.7796 -1228.771,1677.5115 -1228.8756,1691.6923 C -1229.0339,1713.1615 -1219.0788,1732.1649 -1205.5766,1748.167 C -1201.64,1751.9046 -1197.9264,1755.8921 -1193.7667,1759.3797 C -1171.3559,1778.1692 -1143.7523,1788.1238 -1114.8057,1790.5968 C -1108.8324,1790.713 -1102.8568,1791.1494 -1096.8859,1790.9453 C -1068.8845,1789.9884 -1041.6929,1781.8361 -1017.2761,1768.2368 C -1012.107,1764.7911 -1006.7984,1761.546 -1001.7687,1757.8997 C -981.42427,1743.1509 -963.85237,1724.8402 -950.2991,1703.6744 C -941.42693,1689.3772 -932.97811,1674.7534 -926.1969,1659.3304 L -917.22863,1655.2603 z"
       id="path2507"
       style="fill:#c8c8c8;fill-opacity:1;stroke:#000000;stroke-width:2;stroke-miterlimit:4;stroke-dasharray:none;stroke-opacity:1" />
    <g
       transform="matrix(0.6135946,0,0,0.5731842,-871.6413,500.58606)"
       id="g2533">
      <path
         style="fill:#c8c8c8;fill-opacity:1;stroke:#000000;stroke-width:2;stroke-miterlimit:4;stroke-dasharray:none;stroke-opacity:1"
         id="path2529"
         d="M 364.94969,1251.3119 C 362.95442,1257.3124 360.53518,1264.3116 368.77833,1265.9109 C 369.96249,1265.7064 371.17692,1265.6329 372.33081,1265.2973 C 377.40635,1263.8214 383.52215,1259.9443 382.05205,1260.7645 C 364.72644,1270.4312 369.57926,1268.0409 377.1324,1262.4638 C 379.38676,1260.7992 381.57227,1259.0433 383.7922,1257.3331 C 395.69894,1247.7432 407.28026,1237.7385 420.05346,1229.302 C 423.66891,1236.5451 443.54187,1207.6009 454.06495,1214.9542 C 456.53014,1216.6769 456.97588,1218.9858 458.06953,1221.6186 C 460.89624,1241.0113 456.68661,1260.9032 453.60324,1280.0536 C 449.16446,1306.8392 444.55655,1333.5967 440.23189,1360.4015 C 438.08837,1374.4512 434.03656,1388.2373 427.56815,1400.9159 C 427.51391,1401.2343 427.45967,1401.5527 427.40544,1401.8711 L 426.60335,1402.3926 C 426.00228,1402.3988 425.40121,1402.405 424.80014,1402.4112 C 423.94805,1402.0706 422.97265,1401.947 422.24387,1401.3893 C 414.44594,1395.4226 416.99438,1379.5011 417.52734,1371.5482 C 421.23555,1344.6645 426.37652,1318.0282 430.76774,1291.2518 C 433.56431,1272.3011 437.2312,1253.0705 435.9348,1233.8485 C 435.44355,1232.024 435.37907,1229.9742 433.67181,1228.7648 C 428.32096,1224.9742 405.10241,1243.6304 440.98201,1221.1612 C 427.45737,1229.5165 415.31046,1239.7404 402.94344,1249.6872 C 390.63882,1259.1859 381.07407,1264.992 366.54737,1273.1582 C 363.91151,1274.64 360.14649,1276.2698 357.00058,1276.508 C 355.82663,1276.5969 354.66074,1276.2446 353.49083,1276.1128 C 352.63724,1275.5506 351.62671,1275.174 350.93005,1274.4261 C 346.73589,1269.9232 349.78654,1262.1775 351.5475,1257.3944 L 364.94969,1251.3119 z" />
      <path
         style="fill:#c8c8c8;fill-opacity:1;stroke:#000000;stroke-width:2;stroke-miterlimit:4;stroke-dasharray:none;stroke-opacity:1"
         id="path2531"
         d="M 557.57611,1395.1998 C 545.69834,1402.2947 529.18102,1415.7156 514.95883,1405.1357 C 513.27621,1403.884 511.94387,1402.2199 510.43638,1400.762 C 496.64762,1381.88 500.38586,1358.1565 503.82008,1336.5643 C 510.29859,1305.2381 522.01984,1277.297 539.53133,1250.6304 C 551.24834,1234.8922 563.48199,1228.4399 582.24008,1218.9194 C 585.74421,1217.1409 592.07878,1217.504 595.63656,1218.7531 C 597.87134,1219.5377 599.7754,1221.0573 601.84482,1222.2094 C 603.70824,1224.1315 605.83061,1225.8327 607.43509,1227.9756 C 620.5197,1245.4518 619.93458,1269.3856 619.65376,1290.005 C 617.89255,1326.0013 607.40204,1360.4563 593.4871,1393.4338 C 585.78209,1409.5013 575.79464,1425.5994 560.16274,1435.1515 C 542.00261,1446.2486 547.88151,1446.702 536.99962,1443.8735 C 535.5231,1442.656 534.04658,1441.4385 532.57006,1440.221 L 533.3622,1439.6846 C 536.13368,1439.9257 538.90515,1440.1669 541.67663,1440.4081 C 544.53787,1439.6121 547.36835,1437.3442 550.26035,1438.02 C 552.20773,1438.4751 545.46514,1443.2105 545.19144,1441.2294 C 544.87423,1438.9335 548.57676,1438.0382 550.01136,1436.2178 C 557.48475,1426.7345 562.53056,1415.4416 568.34007,1404.9682 C 583.11092,1372.277 594.17906,1337.9451 596.28236,1301.8746 C 596.52867,1282.4944 597.35128,1258.2145 584.73578,1241.873 C 583.26155,1239.9634 581.2949,1238.4906 579.57445,1236.7994 C 574.8738,1234.4979 573.56418,1233.013 568.13215,1233.602 C 565.967,1233.8367 560.17031,1236.7789 561.84821,1235.3905 C 566.44903,1231.5835 571.63573,1228.3444 577.17678,1226.1179 C 583.587,1223.5421 552.11656,1242.9864 562.39585,1240.6456 C 559.86735,1244.2719 557.16899,1247.7854 554.81036,1251.5243 C 540.49592,1274.2158 531.1665,1299.753 525.57086,1325.9004 C 522.44683,1346.5443 519.34839,1369.2004 532.5792,1387.1152 C 537.43484,1391.6403 542.14388,1395.2569 549.1869,1394.4734 C 550.44081,1394.3339 553.89257,1392.8568 552.86804,1393.593 C 547.91441,1397.1529 542.43357,1399.915 537.21634,1403.076 L 557.57611,1395.1998 z" />
    </g>
    <path
       d="M 177.03332,540.4738 C 185.15737,546.7752 193.15329,553.24082 200.98063,559.90813 C 211.34288,568.86375 221.70121,577.82493 232.04928,586.79747 C 244.26402,597.11624 255.83914,608.12368 267.09406,619.47077 C 279.30944,632.11993 291.24948,645.02818 303.79844,657.35026 C 317.19269,670.42454 331.33718,682.7028 345.34994,695.10388 C 358.56646,706.73907 371.5869,718.59768 385.1585,729.82053 C 397.44078,740.2823 410.79162,749.35019 424.13252,758.38015 C 439.59885,768.31583 454.93168,778.45125 470.55618,788.13888 C 484.8158,796.89161 498.90538,805.93188 513.32348,814.42217 C 524.58544,821.03154 535.72819,827.81771 546.59583,835.05741 C 553.46911,839.93637 561.02738,843.98507 567.06135,849.9384 C 568.48776,854.04374 567.58568,858.79254 564.42307,861.86178 L 563.66533,862.44578 C 557.8543,865.46571 550.94783,865.29966 544.63554,864.20313 C 537.04956,860.28185 530.69657,854.43328 523.55339,849.79689 C 512.85677,842.5223 501.91149,835.63828 490.84175,828.9459 C 476.78755,820.07804 462.56542,811.47793 448.82513,802.11618 C 433.4762,792.0607 417.79734,782.5115 402.69832,772.07855 C 389.35903,762.99219 376.30525,753.47375 363.98218,743.03536 C 350.72776,731.47265 337.56848,719.80372 324.45519,708.08111 C 310.48328,695.6661 296.53277,683.21117 283.58697,669.70898 C 271.58949,657.00579 259.97087,643.97842 248.47902,630.81641 C 237.85382,619.20275 226.99133,607.79429 215.44286,597.08791 C 205.62766,587.81073 195.71179,578.63119 186.18879,569.05196 C 179.17079,561.99174 172.40295,554.67166 165.02068,547.98322 L 177.03332,540.4738 z"
       id="path2551"
       style="fill:#c8c8c8;fill-opacity:1;stroke:#000000;stroke-width:2;stroke-miterlimit:4;stroke-dasharray:none;stroke-opacity:1" />
    <path
       d="M 531.2355,1025.8463 C 520.24395,1026.5214 512.82458,1025.4105 504.4403,1017.9163 C 496.26919,1005.9407 501.39061,992.64498 507.05652,980.79331 C 517.58476,962.62862 534.74571,951.60015 554.11184,944.06166 C 569.53852,939.89935 579.21405,942.69717 591.37563,952.52918 C 603.33295,964.34037 606.94976,980.24206 608.16434,996.41703 C 607.92392,1009.0054 605.52261,1022.13 597.35285,1032.1743 C 595.94928,1033.8999 594.24153,1035.354 592.68586,1036.9439 C 581.58058,1044.4862 570.06711,1054.4664 556.21936,1055.1158 C 550.21406,1055.3974 544.2113,1052.7003 538.76134,1050.6266 C 530.60542,1046.5182 534.72,1048.6356 526.42059,1044.2686 L 527.21071,1043.7292 C 539.51185,1045.5423 533.274,1044.9194 545.9276,1045.5644 C 555.23484,1045.3368 563.83025,1044.6702 572.89291,1042.404 C 575.18517,1041.8308 581.32069,1038.7358 579.71133,1040.4658 C 576.31995,1044.1115 571.27772,1045.7656 567.16069,1048.566 C 565.30099,1049.831 571.0102,1046.2388 572.93495,1045.0752 C 585.7044,1033.6045 590.00091,1022.3914 590.97424,1005.2822 C 590.61021,989.39561 587.44195,974.0054 576.44872,961.86363 C 565.18648,952.17372 556.49308,949.80024 541.92696,953.6323 C 539.84531,954.46087 535.74527,958.35761 535.68201,956.11801 C 535.61314,953.67965 542.89717,950.01876 541.88762,952.23939 C 540.79537,954.6419 537.45442,955.11908 535.38916,956.76218 C 528.88447,961.93722 523.43836,968.24409 519.12512,975.3357 C 513.25306,986.48732 507.87501,999.34323 515.75214,1010.941 C 522.75984,1017.9862 529.73128,1019.5881 539.46814,1019.773 L 531.2355,1025.8463 z"
       id="path2553"
       style="fill:#c8c8c8;fill-opacity:1;stroke:#000000;stroke-width:2;stroke-miterlimit:4;stroke-dasharray:none;stroke-opacity:1" />
    <path
       d="M 512.71607,1160.2465 C 492.65182,1157.2223 475.55759,1146.3463 459.81752,1134.1952 C 441.2072,1117.4017 428.41046,1095.7513 422.7247,1071.2907 C 421.42177,1065.6853 420.84028,1059.9364 419.89807,1054.2593 C 417.16332,1022.4826 422.97122,990.58915 436.5452,961.70496 C 439.29581,955.8519 442.65316,950.30366 445.70715,944.60301 C 466.74247,911.03591 491.66106,893.19797 527.41306,876.45026 C 533.0751,873.79793 539.2101,872.30249 545.10861,870.22861 C 577.58387,861.5525 611.66737,861.50725 644.32068,869.51555 C 650.96995,871.1463 657.42143,873.49783 663.97181,875.48897 C 688.13625,884.54383 710.89933,897.9554 727.01488,918.57939 C 736.63374,930.88921 737.45287,935.32308 743.48329,949.45154 C 751.44348,977.47797 748.8527,1006.7276 735.59019,1032.7912 C 732.99667,1037.888 729.67929,1042.5828 726.72384,1047.4786 C 710.15733,1069.8465 686.9181,1085.1203 661.34668,1095.7105 C 651.09277,1099.957 642.09072,1099.9481 631.25781,1100.944 C 625.58379,1101.0208 619.90977,1101.0977 614.23576,1101.1746 L 615.00894,1100.6112 C 620.68032,1100.5308 626.35169,1100.4503 632.02307,1100.3699 C 655.66249,1095.4909 645.59605,1098.4781 668.35666,1090.1191 C 670.33947,1089.3909 672.45534,1088.9167 674.26386,1087.8253 C 688.21033,1079.4093 699.77805,1067.9292 709.60517,1055.0413 C 712.65194,1050.2005 716.03874,1045.5578 718.74548,1040.5191 C 732.52905,1014.8601 736.17367,986.01689 728.31515,957.95037 C 722.39548,943.38895 722.17939,940.10473 712.46951,927.40535 C 696.75592,906.85383 674.46369,893.67511 650.62239,884.60954 C 644.05878,882.69525 637.58038,880.46003 630.93157,878.86668 C 598.39398,871.06923 564.48288,871.4787 532.21716,880.28599 C 526.39266,882.38629 520.63144,884.67115 514.74366,886.58688 C 513.91751,886.85569 512.89949,886.3812 512.14744,886.81616 C 490.21419,899.50137 472.44815,917.51911 458.77466,938.74536 C 455.6342,944.42889 452.16889,949.94468 449.35328,955.79594 C 435.65387,984.26544 429.82877,1015.6237 433.45329,1047.0374 C 434.57844,1052.5392 435.37187,1058.1195 436.82872,1063.5429 C 443.22456,1087.3528 456.75591,1108.1912 474.85181,1124.7556 C 478.02324,1127.407 481.05834,1130.2306 484.36609,1132.7098 C 496.32168,1141.6708 509.95213,1148.1042 524.30736,1152.1132 L 512.71607,1160.2465 z"
       id="path2555"
       style="fill:#c8c8c8;fill-opacity:1;stroke:#000000;stroke-width:2;stroke-miterlimit:4;stroke-dasharray:none;stroke-opacity:1" />
    <path
       d="M 507.21731,1146.7246 C 500.68069,1157.979 493.50791,1168.8254 485.93671,1179.4048 C 476.05677,1193.1716 464.91251,1205.9308 453.44427,1218.3783 C 440.03638,1232.5364 426.23335,1246.3112 412.34161,1259.9921 C 399.31244,1273.0155 385.08891,1284.799 370.21884,1295.653 C 368.75678,1296.644 367.29472,1297.6351 365.83266,1298.6262 L 364.94553,1298.9843 C 365.33187,1298.4347 365.7182,1297.8851 366.10453,1297.3355 C 372.74689,1286.6935 381.74989,1277.7674 390.5968,1268.9776 C 404.62558,1255.2052 418.70912,1241.4765 432.26852,1227.2386 C 444.01033,1214.7509 455.53137,1202.0237 465.67227,1188.1759 C 473.52836,1177.4863 481.28632,1166.7069 488.00736,1155.2524 L 507.21731,1146.7246 z"
       id="path2557"
       style="fill:#c8c8c8;fill-opacity:1;stroke:#000000;stroke-width:2;stroke-miterlimit:4;stroke-dasharray:none;stroke-opacity:1" />
    <path
       d="M 355.74711,1472.4757 C 343.73622,1472.6633 338.91945,1467.452 334.78397,1456.7802 C 331.09124,1441.275 335.5357,1426.2441 342.22503,1412.287 C 351.51018,1396.7813 366.65094,1385.6396 384.49182,1381.6957 C 400.0754,1380.2826 408.62228,1388.1658 417.20438,1400.0529 C 426.6061,1415.9983 429.66703,1434.3032 431.74871,1452.4149 C 432.24569,1464.8325 432.35969,1478.4117 425.74733,1489.4821 C 424.71161,1491.2161 423.33584,1492.7229 422.1301,1494.3433 C 410.66666,1503.9494 396.13586,1515.2486 380.28711,1513.94 C 375.29607,1513.5279 373.29661,1512.252 368.77822,1510.3329 C 362.60221,1507.3738 357.09895,1503.2592 351.41789,1499.4809 L 352.21342,1498.9495 C 361.20834,1501.1511 370.18508,1502.88 379.51526,1502.7455 C 386.96155,1502.4071 389.84213,1502.4673 397.1072,1501.4191 C 399.52114,1501.0708 401.93358,1500.668 404.29997,1500.0775 C 406.39018,1499.556 412.08898,1496.6922 410.44963,1498.0899 C 406.335,1501.5979 401.35305,1503.9493 396.64331,1506.6055 C 394.84583,1507.6192 400.01126,1504.2199 401.69524,1503.0271 C 403.15187,1501.4485 404.76494,1500.0011 406.06512,1498.2915 C 414.24168,1487.5396 415.80398,1473.598 416.08214,1460.541 C 415.51053,1442.327 412.59449,1424.1498 403.77851,1407.9383 C 396.37989,1396.3928 388.96622,1388.4852 374.26547,1389.4854 C 372.34538,1389.9469 369.33809,1392.6604 368.5052,1390.8699 C 367.67136,1389.0773 375.23782,1387.3179 373.26079,1387.3255 C 370.99224,1387.3343 369.29292,1389.5464 367.45337,1390.8739 C 361.28799,1395.3233 356.4444,1401.1207 352.55398,1407.6111 C 345.57734,1421.1534 340.75384,1435.7698 345.06319,1451.0011 C 349.79424,1460.7612 354.90765,1465.3093 366.20469,1464.7004 L 355.74711,1472.4757 z"
       id="path2559"
       style="fill:#c8c8c8;fill-opacity:1;stroke:#000000;stroke-width:2;stroke-miterlimit:4;stroke-dasharray:none;stroke-opacity:1" />
    <path
       d="M 382.0809,1555.4619 C 378.34426,1565.9979 372.59714,1573.1916 363.32516,1579.3231 C 355.60772,1583.2839 348.17619,1587.8599 340.17284,1591.2056 C 337.91041,1592.1513 335.31784,1592.0451 332.86571,1592.0561 C 318.72574,1592.1195 309.45298,1585.0201 299.0242,1576.5149 C 273.72427,1550.2226 264.43257,1517.134 256.42227,1482.5281 C 250.46148,1448.3256 247.80332,1412.6942 254.89134,1378.4038 C 256.11234,1372.4969 258.0016,1366.7481 259.55674,1360.9202 C 266.34007,1341.8172 276.80626,1323.2618 294.86007,1312.6711 C 325.16949,1294.8911 317.17495,1297.8786 340.62729,1293.0909 C 369.09918,1291.204 394.8384,1302.8465 416.77159,1320.3377 C 421.81904,1324.3629 426.42381,1328.9139 431.24991,1333.202 C 455.34376,1357.1428 474.08019,1385.8291 488.02794,1416.722 C 490.63958,1422.5066 492.87582,1428.4534 495.29976,1434.319 C 503.74862,1458.8354 510.80564,1485.4289 504.90599,1511.4244 C 503.95596,1515.6105 502.26802,1519.5942 500.94904,1523.6791 C 498.97674,1527.3314 497.35216,1531.194 495.03214,1534.6359 C 483.62129,1551.5644 454.22461,1570.394 435.42143,1572.3846 C 431.89967,1572.7575 428.33885,1572.3186 424.79756,1572.2856 C 412.6627,1570.8945 402.69495,1564.2062 392.26208,1558.4556 L 393.062,1557.9309 C 397.07243,1559.8771 400.81543,1562.516 405.09331,1563.7695 C 415.54584,1566.8321 423.88232,1565.5527 434.48978,1565.0545 C 439.37185,1563.9488 444.35978,1563.2358 449.13597,1561.7374 C 453.88079,1560.2488 457.98587,1556.0353 462.95791,1556.1235 C 466.60186,1556.1882 453.34666,1565.451 453.62376,1561.8171 C 453.92817,1557.8248 460.17137,1557.1637 463.08777,1554.4205 C 471.1646,1546.8233 472.06403,1543.91 477.79078,1534.5083 C 479.32726,1530.478 481.21224,1526.5639 482.40022,1522.4175 C 489.76,1496.73 484.04126,1469.8219 476.00171,1445.0877 C 473.7585,1439.1787 471.74494,1433.1774 469.27207,1427.3608 C 456.10922,1396.3996 437.13356,1368.1094 413.32667,1344.3462 C 408.49326,1340.155 403.88235,1335.6926 398.82643,1331.7727 C 376.87018,1314.75 351.1483,1303.8099 323.01766,1306.4771 C 318.43847,1307.5583 313.817,1310.9675 309.2801,1309.7207 C 306.62941,1308.9923 318.02152,1303.1105 315.61736,1304.4434 C 297.15396,1314.6802 286.19999,1332.7938 278.65026,1351.8417 C 276.92993,1357.6656 274.88855,1363.4043 273.48928,1369.3136 C 265.36796,1403.6109 266.97685,1439.3259 272.54749,1473.8529 C 274.07152,1480.69 275.31372,1487.5961 277.11958,1494.3643 C 284.19673,1520.8888 295.75868,1546.7431 315.85156,1565.9268 C 323.95192,1572.0759 331.29508,1577.5165 341.53807,1579.4254 C 343.99452,1579.8832 346.51489,1580.075 349.01243,1579.9974 C 351.30691,1579.9262 356.99149,1577.0052 355.82387,1578.9817 C 353.65026,1582.6611 348.8033,1583.8562 345.29302,1586.2934 C 356.77048,1579.8095 365.13668,1571.4243 371.91576,1560.0889 L 382.0809,1555.4619 z"
       id="path2561"
       style="fill:#c8c8c8;fill-opacity:1;stroke:#000000;stroke-width:2;stroke-miterlimit:4;stroke-dasharray:none;stroke-opacity:1" />
    <path
       d="M 745.09633,1066.8649 C 753.38648,1077.4755 761.23936,1088.4232 769.07009,1099.3758 C 780.28511,1114.5534 791.62481,1129.6188 803.49415,1144.2924 C 816.376,1159.8101 828.92049,1175.594 840.95732,1191.777 C 849.06999,1203.0618 856.58382,1214.7913 863.176,1227.0297 C 866.22387,1232.9565 869.50423,1237.2155 864.20423,1242.5902 C 859.76167,1245.5712 862.74628,1243.7645 854.82955,1247.2447 L 856.53435,1245.923 C 851.74652,1248.3722 853.66843,1247.5379 850.88908,1248.6868 C 846.45243,1250.19 844.63111,1241.189 842.85172,1238.6374 C 836.7408,1226.2804 829.87051,1214.3023 821.889,1203.0447 C 810.39236,1186.5882 798.10559,1170.7191 786.05206,1154.6703 C 774.97592,1139.4639 763.98738,1124.1874 753.97872,1108.2488 C 746.58156,1097.0747 739.24054,1085.8477 732.47253,1074.2786 L 745.09633,1066.8649 z"
       id="path2563"
       style="fill:#c8c8c8;fill-opacity:1;stroke:#000000;stroke-width:2;stroke-miterlimit:4;stroke-dasharray:none;stroke-opacity:1" />
    <path
       d="M 884.05586,1496.7891 C 872.29693,1496.2509 861.16175,1493.0176 850.95041,1487.2685 C 837.20692,1476.8909 836.99233,1465.5958 840.36757,1449.8673 C 846.77044,1430.4255 859.65178,1417.6307 876.18385,1406.4044 C 901.18576,1391.7322 914.83686,1384.0021 943.2196,1389.1814 C 962.05939,1395.1772 969.82658,1404.9751 977.08728,1422.732 C 983.34593,1441.0268 981.54282,1459.7166 976.54857,1477.9963 C 964.94572,1509.0028 947.72096,1514.8303 918.87803,1531.3454 C 902.37212,1537.9082 891.83383,1536.8714 877.91423,1526.1149 C 876.68293,1524.356 875.45164,1522.5971 874.22034,1520.8383 L 875.02113,1520.3149 C 878.05207,1520.8511 881.08302,1521.3874 884.11396,1521.9237 C 903.71968,1524.1889 922.4911,1522.2651 940.58376,1513.8735 C 935.29337,1517.0784 930.19752,1520.629 924.71259,1523.4882 C 921.97966,1524.9128 929.88726,1520.1208 932.29351,1518.1951 C 942.28667,1510.1974 949.84561,1499.7843 955.01684,1488.1311 C 962.04772,1469.2981 964.69883,1452.478 959.08804,1432.7546 C 952.98526,1415.9304 945.71437,1405.5814 928.09392,1399.7427 C 919.65563,1398.071 912.07251,1397.3331 903.49063,1398.8657 C 900.52611,1399.3952 897.59362,1400.1326 894.72094,1401.0361 C 891.74718,1401.9714 888.92727,1405.3991 885.98398,1404.3719 C 883.62459,1403.5485 890.11335,1401.5564 892.17803,1400.1487 C 875.94624,1410.7111 862.6901,1422.9773 856.67871,1441.9809 C 853.50125,1457.1862 854.35698,1466.613 866.91476,1476.9184 C 876.22453,1482.6371 886.36511,1486.0866 897.25056,1487.346 L 884.05586,1496.7891 z"
       id="path2565"
       style="fill:#c8c8c8;fill-opacity:1;stroke:#000000;stroke-width:2;stroke-miterlimit:4;stroke-dasharray:none;stroke-opacity:1" />
    <path
       d="M 957.65397,1613.5054 C 941.24287,1621.0516 922.93636,1621.4713 905.2359,1620.4653 C 872.99829,1616.7475 848.60732,1601.5158 822.91326,1582.9059 C 796.6613,1562.0065 773.09489,1537.4773 753.96616,1509.8519 C 750.14736,1504.3369 746.72016,1498.5607 743.09716,1492.9151 C 730.72615,1471.7573 720.69535,1448.7588 718.66961,1424.0414 C 717.40663,1408.631 718.79757,1406.08 721.35016,1391.0572 C 723.2513,1385.9027 724.67139,1380.5442 727.05358,1375.5935 C 741.84893,1344.8456 771.9365,1328.6023 800.95694,1313.4078 C 807.02728,1310.2295 813.67044,1308.2921 820.02719,1305.7343 C 857.5369,1293.6631 897.32633,1291.2024 936.37091,1295.5785 C 944.58695,1296.4994 952.72039,1298.0483 960.89514,1299.2831 C 999.41579,1306.9961 1036.9701,1320.746 1069.4142,1343.2538 C 1075.2344,1347.2915 1080.6537,1351.8786 1086.2735,1356.1911 C 1109.9234,1376.9312 1129.1101,1402.7387 1136.8233,1433.6636 C 1138.2022,1439.1917 1138.8179,1444.8826 1139.8152,1450.4921 C 1142.3281,1478.2419 1137.0112,1506.1886 1121.3322,1529.61 C 1118.1933,1534.299 1114.3572,1538.4816 1110.8697,1542.9174 C 1106.589,1546.9351 1102.5935,1551.2802 1098.0274,1554.9704 C 1093.2019,1558.8703 1088.1174,1562.486 1082.7679,1565.6288 C 1056.6636,1580.9647 1044.7875,1588.9052 1019.346,1596.6493 C 1000.925,1602.2564 992.75258,1602.9704 973.61992,1606.1779 C 935.15679,1610.7198 895.62573,1608.7166 858.92053,1595.4699 C 852.82669,1593.2707 847.01489,1590.357 841.06206,1587.8006 C 835.84739,1584.9569 830.63272,1582.1132 825.41805,1579.2695 L 826.21559,1578.7412 C 832.19243,1581.0611 838.16927,1583.381 844.14611,1585.7009 C 851.42096,1587.3202 858.62101,1589.3225 865.97064,1590.5587 C 909.10611,1597.814 953.31012,1594.2362 996.42227,1588.988 C 1016.0626,1585.2766 1023.8874,1584.4633 1042.7289,1578.3575 C 1049.5138,1576.1587 1055.6729,1571.797 1062.7281,1570.751 C 1065.9246,1570.2772 1052.1663,1578.176 1054.9558,1576.5449 C 1069.8854,1567.8148 1070.8072,1565.89 1083.425,1554.6267 C 1087.009,1550.3127 1090.919,1546.2499 1094.1769,1541.6846 C 1110.4528,1518.8776 1116.7079,1491.2658 1115.1274,1463.5891 C 1114.2664,1458.0493 1113.7845,1452.4372 1112.5442,1446.9698 C 1105.6023,1416.3686 1087.5395,1390.6445 1064.4337,1369.9518 C 1058.964,1365.644 1053.7151,1361.0399 1048.0245,1357.0283 C 1016.0187,1334.4652 978.74348,1321.0862 940.54246,1313.618 C 932.402,1312.4378 924.30155,1310.9376 916.12108,1310.0774 C 876.99778,1305.9635 837.19555,1308.9171 799.84862,1321.644 C 793.44921,1324.3797 787.21519,1327.5403 780.65038,1329.8512 C 778.61597,1330.5673 787.77353,1325.0285 786.16192,1326.4618 C 781.6611,1330.4647 776.36407,1333.5205 771.93486,1337.6025 C 759.49285,1349.069 750.83673,1362.9106 745.92283,1379.0705 C 743.27226,1393.6613 741.87115,1396.1389 743.00738,1411.1649 C 744.84826,1435.5097 754.8545,1458.1712 766.54451,1479.2366 C 770.11282,1484.8447 773.5028,1490.5702 777.24945,1496.0607 C 796.01955,1523.5672 818.77194,1548.2825 844.89694,1568.9402 C 849.76278,1572.4173 854.4923,1576.0935 859.49446,1579.3714 C 879.9544,1592.7788 902.61317,1602.3721 927.11012,1604.7324 C 944.34666,1605.4039 961.44911,1604.2952 977.57844,1597.5636 L 957.65397,1613.5054 z"
       id="path2567"
       style="fill:#c8c8c8;fill-opacity:1;stroke:#000000;stroke-width:2;stroke-miterlimit:4;stroke-dasharray:none;stroke-opacity:1" />
    <path
       d="M 584.76309,77.060628 C 595.30131,82.334879 605.95182,87.368989 616.79415,91.986016 C 634.69734,99.313916 653.0832,105.36552 671.4272,111.47315 C 696.63765,119.69527 721.72176,128.30153 746.72075,137.14531 C 773.99881,147.11538 801.26114,157.10466 828.81823,166.28136 C 858.57572,176.32773 889.23425,183.1701 920.01139,189.20368 C 954.17206,195.56745 988.41785,201.44724 1022.4304,208.57607 C 1055.7668,215.51176 1088.661,224.33607 1121.3224,233.91468 C 1151.9344,242.86872 1182.1402,253.11042 1212.4453,263.03186 C 1239.6432,272.06724 1266.7386,281.4059 1293.8782,290.61375 C 1316.5121,298.35645 1338.9465,306.66512 1361.1575,315.54619 C 1378.8562,322.64644 1396.431,330.04901 1414.0816,337.26818 C 1428.9926,343.29059 1444.0075,349.04675 1458.9735,354.92893 C 1472.3001,360.15276 1485.7389,365.05293 1499.3235,369.56255 C 1512.4104,373.86506 1525.782,377.18717 1539.1816,380.34379 C 1545.9197,382.72651 1558.9274,382.94636 1564.5887,387.21084 C 1565.4215,387.83816 1565.904,388.82897 1566.5616,389.63803 C 1568.1751,392.1414 1570.1297,393.8367 1572.8448,394.9539 L 1572.0907,395.54251 C 1563.6596,399.88073 1555.1565,403.45448 1545.5719,404.26174 C 1543.3849,404.49994 1541.2093,404.89187 1539.011,404.97635 C 1529.3249,405.34855 1519.8866,401.89504 1510.4867,400.17892 C 1497.0518,396.91209 1483.6456,393.48426 1470.5236,389.0983 C 1456.9995,384.53814 1443.654,379.4768 1430.4527,374.0511 C 1415.6471,368.1486 1400.9551,361.95859 1386.2163,355.8928 C 1368.7483,348.62297 1351.4202,341.01768 1333.9432,333.7674 C 1311.9858,324.84045 1289.9099,316.20658 1267.503,308.45927 C 1240.6274,298.87985 1213.6094,289.70655 1186.5768,280.58088 C 1156.538,270.34293 1126.4064,260.35408 1096.0101,251.22344 C 1063.6485,241.72263 1031.1925,232.46344 998.18389,225.43976 C 964.38135,218.38832 930.47952,211.8909 896.53745,205.54722 C 866.2687,199.13132 836.13712,191.89421 807.13571,180.92977 C 780.6935,170.90362 754.59484,160.0269 728.33866,149.52967 C 704.00951,140.11289 679.47158,131.26988 654.82648,122.71671 C 637.12264,116.4824 619.33636,110.18892 602.78756,101.22351 C 593.0155,95.808473 583.46606,90.043105 574.0222,84.073697 L 584.76309,77.060628 z"
       id="path2569"
       style="fill:#c8c8c8;fill-opacity:1;stroke:#000000;stroke-width:2;stroke-miterlimit:4;stroke-dasharray:none;stroke-opacity:1" />
    <path
       d="M 1679.3805,544.39624 C 1673.0117,554.48191 1664.6072,562.9715 1656.0001,571.13168 C 1643.5,582.52323 1630.0321,592.77865 1616.6372,603.07968 C 1603.6301,613.08064 1590.5479,622.97927 1577.1918,632.51021 C 1562.5601,642.92278 1547.4601,652.65437 1532.2707,662.22695 C 1518.8951,670.64874 1505.4311,678.93059 1491.9413,687.16813 C 1481.954,693.17343 1472.0967,699.38515 1462.3793,705.81699 C 1453.335,711.80513 1444.7628,718.45718 1436.129,725.01175 C 1425.9154,732.10595 1415.7545,739.51052 1404.4703,744.81814 L 1403.5775,745.16188 C 1403.1249,745.22894 1402.5794,745.64597 1402.2198,745.36308 C 1400.9937,744.39851 1408.5595,736.06385 1409.5944,735.63109 C 1417.7438,729.00298 1426.0547,722.55536 1434.7347,716.63213 C 1444.6606,709.98021 1454.8,703.65808 1465.0683,697.548 C 1479.2201,689.04997 1493.3817,680.56641 1507.4132,671.8705 C 1523.2872,662.0041 1539.0934,652.01829 1554.513,641.45046 C 1568.7853,631.53038 1582.8763,621.35942 1596.8146,610.9749 C 1610.9098,600.43143 1624.99,589.83891 1638.3445,578.35889 C 1647.8202,569.88651 1657.099,561.08732 1664.674,550.82155 L 1679.3805,544.39624 z"
       id="path2571"
       style="fill:#c8c8c8;fill-opacity:1;stroke:#000000;stroke-width:2;stroke-miterlimit:4;stroke-dasharray:none;stroke-opacity:1" />
    <path
       d="M 1866.9628,561.71935 C 1880.4279,573.18771 1892.4868,586.19403 1904.7665,598.89386 C 1925.0857,619.80252 1945.7755,640.34591 1966.4204,660.93187 C 1990.4527,684.56128 2012.9839,709.60268 2034.4045,735.6035 C 2043.2903,747.3224 2052.6661,759.03429 2059.5249,772.1306 C 2065.0161,782.61557 2069.0661,794.2158 2073.144,805.30714 C 2076.6519,816.18935 2074.9038,811.10004 2078.324,820.59704 L 2077.4976,821.07887 C 2070.2536,813.79562 2074.2038,817.59999 2065.5756,809.74047 C 2056.7375,801.40831 2047.5814,793.00119 2039.4685,783.95618 C 2029.5785,772.92997 2021.2938,760.49909 2011.8989,749.0726 C 1991.0213,722.82874 1968.889,697.63698 1945.0448,674.02847 C 1924.4893,653.34701 1903.493,633.0933 1883.5126,611.84715 C 1871.5917,599.14031 1859.9391,586.19268 1848.191,573.32737 L 1866.9628,561.71935 z"
       id="path2573"
       style="fill:#c8c8c8;fill-opacity:1;stroke:#000000;stroke-width:2;stroke-miterlimit:4;stroke-dasharray:none;stroke-opacity:1" />
    <path
       d="M 1230.2607,971.48902 C 1220.6886,967.24637 1211.2858,961.29608 1206.3251,951.69556 C 1205.2396,949.59473 1204.5999,947.29204 1203.7373,945.09029 C 1200.3771,924.9083 1212.0467,908.76833 1224.5993,894.32557 C 1233.0826,885.60972 1242.7457,878.16634 1253.3439,872.19435 C 1268.8746,863.443 1278.5169,856.72304 1294.0692,852.23513 C 1297.6919,851.18971 1301.4311,850.60058 1305.112,849.78331 C 1321.6039,847.60441 1338.457,850.33547 1350.88,862.24122 C 1353.1198,864.38776 1354.8877,866.9779 1356.8915,869.34624 C 1365.8294,883.06595 1369.0657,899.5461 1366.7128,915.74937 C 1366.2474,918.95465 1365.3096,922.07335 1364.608,925.23534 C 1355.0224,954.5477 1339.3644,958.74154 1312.7515,971.64901 C 1305.6499,971.04411 1303.8325,968.58203 1300.0631,963.0227 L 1300.8659,962.50238 C 1309.8885,964.44835 1316.5475,965.13718 1325.4994,961.7115 C 1322.4377,963.81428 1319.3624,965.89743 1316.3143,968.01984 C 1314.7924,969.07951 1319.4705,966.05604 1320.9204,964.89987 C 1330.0812,957.59505 1336.3158,947.85326 1340.2964,936.90115 C 1345.5846,916.92736 1346.3711,900.53365 1335.7495,882.01705 C 1333.9342,879.72773 1332.3333,877.25056 1330.3034,875.14908 C 1318.9028,863.34626 1302.7312,861.26657 1287.1748,863.43966 C 1283.6272,864.26942 1280.0206,864.87861 1276.5319,865.92893 C 1272.8639,867.03325 1269.1066,871.72772 1265.7447,869.89153 C 1262.9242,868.35102 1276.7089,863.42163 1273.6303,864.34414 C 1265.2005,866.87022 1251.1696,880.08377 1244.4645,885.95058 C 1232.3729,899.46645 1220.525,914.79054 1223.7108,934.03421 C 1224.3885,936.14345 1224.8144,938.35086 1225.7437,940.36193 C 1230.0731,949.73031 1239.1658,955.47539 1248.2915,959.38542 L 1230.2607,971.48902 z"
       id="path2575"
       style="fill:#c8c8c8;fill-opacity:1;stroke:#000000;stroke-width:2;stroke-miterlimit:4;stroke-dasharray:none;stroke-opacity:1" />
    <path
       d="M 2127.5777,1014.3407 C 2111.5051,1018.0498 2095.8464,1014.0382 2080.7457,1008.5546 C 2063.402,1000.5884 2046.4675,989.04523 2036.9343,971.96299 C 2035.1137,968.70061 2033.9722,965.10316 2032.4912,961.67324 C 2031.811,958.10541 2030.6817,954.59447 2030.4508,950.96974 C 2029.4674,935.53306 2036.9722,921.3403 2048.0237,911.04511 C 2050.9359,908.33215 2054.2962,906.144 2057.4325,903.69345 C 2069.1553,897.08569 2080.5799,889.91856 2092.6008,883.87018 C 2105.5286,877.36552 2125.5914,876.38279 2139.482,879.79349 C 2143.1151,880.68556 2146.5716,882.18463 2150.1165,883.3802 C 2173.6007,894.7042 2183.7275,909.6997 2193.1543,933.23121 C 2198.45,950.68504 2199.7618,969.65556 2190.8849,986.27519 C 2189.1283,989.56411 2186.7237,992.46352 2184.6431,995.55769 C 2173.1843,1007.9613 2158.9194,1016.4938 2143.4313,1023.2437 C 2138.54,1025.3753 2130.0262,1024.9275 2125.0615,1024.9947 L 2125.8274,1024.4214 C 2147.1641,1019.4039 2149.7061,1021.2408 2160.05,1006.4279 C 2161.4676,1003.8232 2163.0942,1001.3217 2164.3029,998.61359 C 2171.4602,982.57748 2171.2179,964.69452 2166.5906,948.02961 C 2165.2988,944.59017 2164.2382,941.05481 2162.7153,937.71129 C 2155.0782,920.94432 2142.1344,907.81069 2125.3822,900.16842 C 2114.1912,896.52844 2105.1641,894.27855 2093.2056,895.53573 C 2089.3254,895.94365 2085.469,896.68176 2081.7029,897.70069 C 2077.8347,898.74721 2068.6816,905.34743 2070.3708,901.71365 C 2072.6002,896.91773 2079.3103,896.05944 2083.78,893.23233 C 2080.4274,895.5924 2076.8571,897.67012 2073.7223,900.31255 C 2062.3463,909.90167 2053.9031,923.54605 2053.6041,938.74745 C 2053.5345,942.29099 2054.3109,945.80058 2054.6643,949.32715 C 2055.8263,952.74967 2056.6554,956.30397 2058.1504,959.59471 C 2066.0183,976.91328 2081.403,988.74135 2098.0501,996.92352 C 2111.8177,1002.4733 2126.2191,1006.8667 2141.194,1003.9723 L 2127.5777,1014.3407 z"
       id="path2577"
       style="fill:#c8c8c8;fill-opacity:1;stroke:#000000;stroke-width:2;stroke-miterlimit:4;stroke-dasharray:none;stroke-opacity:1" />
    <path
       d="M 1316.4722,972.8913 C 1321.9518,987.82831 1321.9096,1003.7879 1321.7564,1019.4698 C 1319.9989,1051.2371 1314.7455,1082.6715 1309.7028,1114.0438 C 1302.75,1155.4312 1295.4849,1196.7653 1288.2752,1238.1086 C 1281.8189,1274.8255 1276.2268,1311.6749 1271.4869,1348.6501 C 1269.6974,1369.2962 1265.9284,1389.6889 1258.0257,1408.9078 C 1256.7085,1410.2221 1255.3913,1411.5365 1254.0741,1412.8508 L 1253.2357,1413.3117 C 1251.5685,1413.5506 1249.9012,1413.7895 1248.2339,1414.0283 C 1235.1755,1402.3035 1238.4484,1380.0822 1239.3335,1364.5743 C 1243.0803,1327.2991 1250.0136,1290.4786 1256.5131,1253.605 C 1263.778,1212.255 1271.3396,1170.9583 1278.0709,1129.5162 C 1283.4091,1097.8441 1289.0569,1066.1805 1292.4085,1034.2217 C 1293.9727,1018.3155 1295.3678,1002.1038 1292.1036,986.30185 L 1316.4722,972.8913 z"
       id="path2579"
       style="fill:#c8c8c8;fill-opacity:1;stroke:#000000;stroke-width:2;stroke-miterlimit:4;stroke-dasharray:none;stroke-opacity:1" />
    <path
       d="M 1318.5527,1528.9423 C 1306.7814,1537.411 1288.7369,1549.0612 1273.1,1551.1472 C 1260.2814,1550.9363 1257.1086,1543.0149 1254.7409,1531.8056 C 1252.4411,1512.1408 1258.7187,1493.4977 1267.0015,1475.9828 C 1273.3286,1465.1868 1280.8141,1454.0125 1291.8948,1447.4995 C 1323.8213,1428.7337 1312.9014,1431.5816 1331.8331,1428.0127 C 1334.1138,1428.2333 1336.4568,1428.1013 1338.6753,1428.6747 C 1353.35,1432.4672 1357.4966,1448.0231 1360.5755,1460.8038 C 1364.6679,1484.9505 1360.6933,1509.0302 1353.9478,1532.2603 C 1349.2076,1545.745 1341.9214,1557.918 1328.9112,1564.806 C 1303.5748,1578.22 1311.6994,1581.3165 1299.463,1574.1264 C 1293.47,1566.7405 1296.4276,1570.8417 1290.7877,1561.6828 L 1291.6,1561.1774 C 1303.2322,1566.9098 1297.1874,1565.0686 1309.6865,1566.8551 C 1312.6276,1566.4224 1319.7985,1562.8781 1318.5096,1565.5569 C 1316.3976,1569.9466 1310.549,1571.1876 1306.3854,1573.7163 C 1305.0719,1574.5141 1308.9229,1571.929 1309.9297,1570.7679 C 1315.7081,1564.1035 1318.593,1555.3215 1321.9815,1547.3816 C 1329.1669,1524.5868 1333.4737,1500.9528 1330.4252,1476.9926 C 1328.302,1466.139 1325.9488,1450.1731 1312.8378,1447.1349 C 1310.9642,1446.7007 1308.9981,1446.9073 1307.0782,1446.7935 C 1294.0659,1449.8527 1297.6813,1449.7108 1319.4382,1436.6462 C 1321.9697,1435.1261 1314.3854,1439.7252 1312.042,1441.5218 C 1303.7344,1447.8911 1297.162,1455.9669 1291.6756,1464.8285 C 1282.6442,1481.7174 1275.3431,1499.8523 1277.761,1519.411 C 1280.2921,1529.4359 1283.245,1535.4673 1294.6085,1535.0709 C 1298.9789,1534.4609 1302.9343,1533.6129 1307.0267,1531.8899 C 1308.3938,1531.3144 1312.2991,1529.1902 1311.0521,1529.9933 C 1307.8426,1532.0604 1288.7887,1543.1785 1301.2065,1535.8436 L 1318.5527,1528.9423 z"
       id="path2581"
       style="fill:#c8c8c8;fill-opacity:1;stroke:#000000;stroke-width:2;stroke-miterlimit:4;stroke-dasharray:none;stroke-opacity:1" />
    <path
       d="M 1374.5018,943.5908 C 1381.7752,958.35923 1387.9592,973.63967 1394.9073,988.56821 C 1407.0847,1014.0878 1419.5418,1039.452 1430.839,1065.3788 C 1444.7111,1097.5379 1454.6343,1131.1478 1464.8381,1164.5882 C 1471.1782,1184.5955 1477.631,1204.6843 1486.3607,1223.8112 C 1490.3881,1232.6354 1494.247,1239.4767 1498.8273,1247.9819 C 1509.5629,1266.6733 1522.6493,1283.8454 1532.1,1303.2585 C 1537.2956,1315.8062 1536.0131,1329.2613 1535.3945,1342.4496 L 1534.5573,1342.9126 C 1526.0731,1334.3227 1517.4902,1325.6603 1511.0263,1315.3813 C 1499.5306,1297.1823 1487.8261,1279.0965 1477.2051,1260.3661 C 1463.0458,1233.4411 1452.3948,1204.9957 1444.8233,1175.512 C 1435.4371,1141.7527 1426.1725,1107.8707 1413.2221,1075.258 C 1402.5535,1049.0024 1390.6851,1023.2905 1379.3064,997.34049 C 1373.0783,981.9455 1366.8516,966.51801 1361.9374,950.64146 L 1374.5018,943.5908 z"
       id="path2583"
       style="fill:#c8c8c8;fill-opacity:1;stroke:#000000;stroke-width:2;stroke-miterlimit:4;stroke-dasharray:none;stroke-opacity:1" />
    <path
       d="M 1557.0477,1589.5043 C 1545.9715,1587.2713 1536.7143,1579.9896 1530.9961,1570.2886 C 1529.4244,1567.6223 1528.3395,1564.6977 1527.0111,1561.9022 C 1519.36,1537.841 1524.6028,1517.882 1534.2361,1495.4388 C 1539.5027,1486.578 1540.6602,1483.6476 1547.5485,1475.9425 C 1562.7141,1458.9785 1585.2936,1447.3056 1606.2809,1439.8327 C 1623.5616,1435.5041 1641.7586,1436.5345 1656.5345,1447.4057 C 1659.2786,1449.4246 1661.6018,1451.9605 1664.1355,1454.2379 C 1668.0579,1459.5801 1673.4269,1465.7968 1675.0369,1472.5023 C 1680.393,1494.8092 1671.0181,1517.6506 1662.0762,1537.5406 C 1659.3092,1541.5442 1656.9449,1545.8584 1653.7752,1549.5513 C 1650.8815,1552.9225 1647.7186,1556.1831 1643.9948,1558.6062 C 1635.7039,1564.0013 1620.275,1578.5688 1606.5812,1574.9628 C 1599.7395,1573.1612 1597.2751,1569.4089 1592.3578,1564.6422 C 1590.1329,1561.5745 1587.908,1558.5068 1585.6832,1555.4391 L 1586.4968,1554.9358 C 1590.0158,1557.1497 1593.5348,1559.3636 1597.0538,1561.5775 C 1606.8297,1564.4376 1609.6149,1566.4003 1619.9228,1564.9558 C 1623.7438,1564.4204 1631.5018,1557.9249 1631.0468,1561.7563 C 1630.5166,1566.222 1623.9452,1569.2192 1619.4785,1568.6979 C 1611.6543,1567.7847 1648.1396,1552.0692 1634.2515,1550.2528 C 1636.4371,1545.505 1638.9777,1540.9051 1640.8083,1536.0095 C 1645.1565,1524.3811 1647.0432,1514.9144 1648.3349,1502.5892 C 1648.8728,1497.4563 1649.7753,1492.2434 1649.1092,1487.1256 C 1648.4035,1481.7032 1642.5976,1473.6623 1639.7759,1469.2517 C 1637.554,1467.012 1635.5686,1464.5097 1633.1102,1462.5324 C 1619.8241,1451.8466 1602.4451,1451.2175 1586.5887,1455.2139 C 1583.2285,1456.4553 1576.1497,1462.5023 1576.5082,1458.9381 C 1576.9183,1454.8595 1582.9517,1451.1538 1586.8788,1452.3291 C 1590.6818,1453.4673 1580.202,1456.6473 1577.0904,1459.1124 C 1567.4089,1466.7823 1559.4939,1476.2297 1553.1765,1486.8114 C 1551.2824,1490.545 1549.1423,1494.1638 1547.4941,1498.0123 C 1540.0464,1515.4028 1537.8867,1534.6093 1542.9039,1552.9215 C 1544.1146,1555.6461 1545.0601,1558.5046 1546.536,1561.0952 C 1552.3548,1571.3092 1562.4142,1576.4626 1573.8314,1577.4679 L 1557.0477,1589.5043 z"
       id="path2585"
       style="fill:#c8c8c8;fill-opacity:1;stroke:#000000;stroke-width:2;stroke-miterlimit:4;stroke-dasharray:none;stroke-opacity:1" />
    <path
       d="M 2179.8606,1040.4466 C 2180.5539,1064.2706 2171.6781,1087.2406 2163.6556,1109.2756 C 2149.1931,1146.3011 2131.4802,1181.9733 2113.4567,1217.3688 C 2096.3016,1251.2645 2077.0374,1284.0016 2055.7792,1315.4704 C 2039.7752,1339.2077 2020.2492,1360.2912 1998.3448,1378.6528 C 1996.0728,1380.2834 1993.8009,1381.914 1991.5289,1383.5446 L 1990.6413,1383.9015 C 1991.8336,1382.7203 1993.0259,1381.5391 1994.2182,1380.3579 C 2008.2112,1362.4269 2020.4286,1343.2108 2034.0153,1324.9738 C 2055.5377,1293.2876 2075.37,1260.5162 2093.1084,1226.5485 C 2111.4857,1191.0708 2129.6432,1155.4009 2144.4228,1118.2372 C 2152.6209,1096.1071 2161.0485,1073.4822 2162.148,1049.6583 L 2179.8606,1040.4466 z"
       id="path2587"
       style="fill:#c8c8c8;fill-opacity:1;stroke:#000000;stroke-width:2;stroke-miterlimit:4;stroke-dasharray:none;stroke-opacity:1" />
    <path
       d="M 1834.1762,1565.3859 C 1833.3735,1549.1249 1840.1481,1534.0069 1848.0152,1520.2144 C 1859.467,1503.6828 1876.2887,1489.9528 1896.0327,1484.5554 C 1898.813,1483.7953 1901.7038,1483.5208 1904.5393,1483.0035 C 1918.2451,1482.3564 1930.565,1487.7328 1937.7111,1499.8136 C 1939.1355,1502.2217 1940.0859,1504.8803 1941.2733,1507.4137 C 1947.5074,1525.9045 1944.6869,1544.8221 1939.0145,1562.9995 C 1934.8235,1573.7649 1928.5815,1584.1795 1918.6126,1590.5909 C 1904.922,1599.3959 1909.1807,1600.8565 1902.3227,1597.1137 C 1901.6161,1596.0397 1900.9095,1594.9657 1900.2029,1593.8917 L 1901.0067,1593.373 C 1902.639,1593.7429 1904.2712,1594.1127 1905.9034,1594.4825 C 1907.8189,1593.908 1911.1746,1590.8165 1911.6499,1592.759 C 1912.1406,1594.7644 1908.2531,1595.9515 1906.2031,1595.7072 C 1904.8295,1595.5435 1908.0101,1593.5953 1908.7238,1592.4103 C 1912.4187,1586.2747 1914.907,1579.3299 1917.9669,1572.8894 C 1924.2956,1554.8215 1928.6864,1535.973 1924.3723,1516.8645 C 1918.3916,1499.5539 1912.2606,1492.041 1892.9765,1491.7188 C 1882.3137,1493.5564 1887.6282,1492.1241 1877.0697,1496.1499 C 1875.8147,1496.4199 1881.3017,1493.2618 1880.3329,1494.1042 C 1877.8793,1496.238 1875.0328,1497.8921 1872.5937,1500.0423 C 1865.9832,1505.8701 1864.7342,1508.196 1859.388,1515.1562 C 1850.5226,1530.0577 1844.9447,1544.6683 1841.5969,1561.6841 L 1834.1762,1565.3859 z"
       id="path2589"
       style="fill:#c8c8c8;fill-opacity:1;stroke:#000000;stroke-width:2;stroke-miterlimit:4;stroke-dasharray:none;stroke-opacity:1" />
    <path
       d="M 2223.5254,999.0474 C 2225.621,1016.78 2229.2183,1034.2963 2232.6,1051.8169 C 2238.647,1079.4877 2243.5571,1107.3361 2247.4755,1135.3824 C 2252.1774,1166.1527 2251.5224,1197.1251 2249.4035,1228.0506 C 2246.6727,1258.5204 2240.0924,1288.4551 2232.9422,1318.1421 C 2226.5802,1343.0465 2221.0277,1368.225 2211.8316,1392.2711 C 2207.7594,1402.6466 2203.5533,1412.9058 2197.9882,1422.5707 L 2197.13,1422.9935 C 2192.8561,1416.7209 2192.3202,1409.3849 2191.8346,1401.9362 C 2191.8575,1399.0008 2191.6511,1396.0546 2191.9034,1393.13 C 2193.742,1371.8107 2201.8037,1351.4972 2206.5212,1330.7863 C 2214.5822,1300.6219 2222.2184,1270.2905 2226.6738,1239.3446 C 2230.8405,1208.0293 2232.3221,1176.3813 2229.3999,1144.8592 C 2226.6999,1116.3659 2222.6227,1088.0308 2217.4798,1059.8739 C 2214.3159,1042.1261 2211.1882,1024.3371 2209.4226,1006.3855 L 2223.5254,999.0474 z"
       id="path2591"
       style="fill:#c8c8c8;fill-opacity:1;stroke:#000000;stroke-width:2;stroke-miterlimit:4;stroke-dasharray:none;stroke-opacity:1" />
    <path
       d="M 2105.3499,1604.5722 C 2096.1575,1600.3174 2086.822,1595.7983 2080.1073,1587.9482 C 2078.514,1586.0855 2077.2149,1583.9901 2075.7688,1582.011 C 2066.7183,1563.4135 2072.8953,1544.1531 2080.4063,1526.2387 C 2086.4375,1514.1498 2093.7531,1502.3109 2104.1303,1493.4231 C 2112.9193,1485.8956 2136.5317,1474.9245 2139.8016,1473.1714 C 2156.2142,1471.023 2164.6709,1484.4455 2171.7331,1497.077 C 2181.0972,1515.2308 2186.1824,1535.0011 2188.8397,1555.1425 C 2189.6652,1568.2306 2188.8763,1582.7404 2179.146,1592.7032 C 2177.5429,1594.3447 2175.5862,1595.599 2173.8064,1597.0469 C 2164.4172,1602.1244 2155.3937,1607.9457 2145.6388,1612.2793 C 2139.8713,1614.8415 2127.4393,1598.6567 2124.4724,1595.3582 L 2125.2811,1594.8469 C 2127.6803,1596.0823 2129.929,1597.6694 2132.4788,1598.5531 C 2140.3356,1601.2761 2149.7048,1601.1204 2157.7065,1599.2409 C 2160.3064,1598.6302 2167.3596,1595.0185 2165.318,1596.7402 C 2160.1711,1601.0807 2153.8506,1603.7987 2148.1169,1607.3279 C 2149.5403,1606.2628 2151.1066,1605.3657 2152.387,1604.1324 C 2161.8416,1595.0256 2163.0652,1580.8918 2163.1441,1568.5766 C 2161.5691,1548.5662 2156.7071,1529.0905 2147.0944,1511.3261 C 2141.8064,1502.7546 2135.0651,1490.114 2123.3962,1489.6385 C 2121.5798,1489.5645 2119.7872,1490.08 2117.9827,1490.3008 C 2123.6901,1486.636 2129.4551,1483.0596 2135.1048,1479.3066 C 2137.4333,1477.7599 2130.2019,1482.0247 2127.9493,1483.6801 C 2116.1609,1492.3434 2107.4874,1504.5147 2100.355,1517.0914 C 2092.6862,1533.8553 2085.4326,1552.6121 2096.6032,1569.5588 C 2098.1378,1571.3059 2099.4948,1573.2267 2101.2069,1574.8003 C 2108.8211,1581.7984 2119.0498,1585.4609 2128.5639,1588.9586 L 2105.3499,1604.5722 z"
       id="path2593"
       style="fill:#c8c8c8;fill-opacity:1;stroke:#000000;stroke-width:2;stroke-miterlimit:4;stroke-dasharray:none;stroke-opacity:1" />
    <path
       d="M 2230.7592,1646.9332 C 2220.0703,1660.2279 2205.3889,1669.4878 2191.1057,1678.4428 C 2165.6791,1693.924 2138.9813,1707.9705 2109.1291,1712.1747 C 2104.3028,1712.8544 2099.4175,1713.0157 2094.5618,1713.4362 C 2070.1427,1713.6718 2046.1974,1706.8963 2028.0341,1689.8884 C 2024.4009,1686.4863 2021.4037,1682.463 2018.0885,1678.7504 C 2001.288,1654.6752 1996.1906,1625.7489 1999.8764,1596.848 C 2000.7235,1590.2053 2002.4232,1583.6994 2003.6966,1577.1252 C 2013.6177,1541.5103 2032.8952,1509.363 2059.4818,1483.6375 C 2064.9365,1478.3595 2070.9419,1473.682 2076.672,1468.7043 C 2106.9984,1446.6595 2140.073,1426.9712 2176.9471,1418.5212 C 2193.6218,1414.7 2198.4363,1415.1083 2215.2184,1414.1384 C 2236.4321,1414.5856 2257.8439,1418.5158 2275.0717,1431.755 C 2284.9893,1439.3764 2285.7633,1442.1865 2292.7246,1452.303 C 2304.5183,1475.7892 2304.6679,1502.094 2298.2253,1527.2058 C 2296.7624,1532.908 2294.7109,1538.4427 2292.9537,1544.0612 C 2280.7791,1575.0708 2261.0693,1602.2276 2235.462,1623.5588 C 2229.7546,1628.3131 2223.5935,1632.4947 2217.6593,1636.9627 C 2201.1897,1647.3269 2193.2217,1653.0818 2174.6648,1661.2556 C 2165.1073,1665.4655 2152.2533,1667.6636 2142.2472,1669.8258 L 2143.0091,1669.2471 C 2148.7622,1667.9996 2154.6666,1667.3142 2160.2684,1665.5047 C 2175.7528,1660.5029 2189.6403,1652.8288 2202.5098,1643.0427 C 2206.8498,1639.287 2211.3513,1635.7101 2215.5297,1631.7755 C 2238.1712,1610.4548 2256.2396,1584.6511 2267.9571,1555.8254 C 2269.8235,1550.2707 2272.0223,1544.8168 2273.5563,1539.1612 C 2280.1587,1514.8184 2280.1066,1489.2182 2268.969,1466.2708 C 2262.4417,1456.795 2261.4174,1453.6889 2252.0439,1446.6165 C 2235.2257,1433.9268 2214.0884,1430.4804 2193.5791,1430.0634 C 2187.4494,1430.4605 2181.2851,1430.4917 2175.1901,1431.2547 C 2162.2233,1432.878 2148.5319,1436.1924 2136.233,1440.5625 C 2129.5189,1442.9483 2123.2399,1446.4724 2116.4947,1448.7689 C 2115.2831,1449.1814 2120.4981,1445.5901 2119.4235,1446.2855 C 2113.1333,1450.3566 2107.0248,1454.7019 2100.8255,1458.9102 C 2095.1185,1463.7778 2089.1454,1468.3497 2083.7044,1473.513 C 2057.2297,1498.6363 2038.0345,1530.1416 2028.1422,1565.2571 C 2026.8766,1571.6966 2025.2146,1578.0708 2024.3455,1584.5757 C 2020.5753,1612.7938 2025.3773,1640.9685 2040.6536,1665.1583 C 2043.698,1668.8586 2046.4437,1672.8265 2049.7869,1676.2593 C 2066.2956,1693.2101 2088.6427,1700.4935 2111.8936,1700.6327 C 2127.0813,1699.5398 2138.4466,1698.0286 2152.9814,1693.0025 C 2157.4127,1691.4702 2161.7583,1689.6899 2166.0576,1687.819 C 2170.1826,1686.0238 2173.981,1683.4597 2178.24,1682.0107 C 2180.2522,1681.3261 2174.6785,1684.3314 2172.8977,1685.4917 C 2188.3416,1676.1419 2203.6682,1666.2846 2216.2211,1653.1431 L 2230.7592,1646.9332 z"
       id="path2595"
       style="fill:#c8c8c8;fill-opacity:1;stroke:#000000;stroke-width:2;stroke-miterlimit:4;stroke-dasharray:none;stroke-opacity:1" />
    <path
       d="M 1947.2526,1627.3613 C 1951.9386,1636.0917 1953.8466,1645.224 1953.1559,1655.042 C 1950.4672,1669.0445 1940.6393,1679.2744 1930.5458,1688.6079 C 1912.3714,1702.199 1892.9379,1715.7245 1871.1478,1722.6488 C 1862.2864,1725.4647 1860.0492,1725.2216 1850.8504,1726.1778 C 1832.0545,1726.4404 1814.3863,1719.9469 1799.8372,1708.0603 C 1796.6295,1705.4396 1793.7723,1702.4172 1790.7398,1699.5957 C 1774.4783,1681.7747 1764.085,1659.5705 1760.8197,1635.6183 C 1760.0576,1630.0285 1759.9853,1624.3662 1759.568,1618.7402 C 1759.5251,1584.7691 1769.4164,1551.8602 1785.5438,1522.1129 C 1789.1668,1515.4301 1793.3736,1509.0807 1797.2886,1502.5646 C 1813.9533,1477.7775 1834.1752,1455.3896 1858.4233,1437.8036 C 1876.1288,1424.9627 1896.1898,1415.5369 1915.2992,1405.2212 C 1939.8423,1395.7477 1958.7735,1392.2332 1984.1018,1401.9405 C 1999.0761,1407.6796 2001.9189,1411.2002 2014.6088,1420.7273 C 2038.5633,1443.0549 2052.8754,1472.8683 2058.7207,1504.9081 C 2059.9051,1511.3999 2060.3413,1518.0063 2061.1516,1524.5553 C 2062.6118,1549.8335 2059.27,1575.3538 2047.1273,1597.9242 C 2038.8677,1613.2769 2035.4602,1615.2177 2023.4894,1628.0242 C 2007.0154,1642.4684 1988.1648,1653.8853 1967.5674,1661.5074 C 1962.2798,1663.464 1956.6366,1664.2762 1951.1712,1665.6607 L 1951.9292,1665.077 C 1975.02,1657.7826 1988.6171,1653.9005 2005.8319,1635.4956 C 2009.0049,1631.3737 2012.4574,1627.4526 2015.351,1623.1299 C 2032.4027,1597.657 2038.2436,1567.6783 2036.7153,1537.3906 C 2035.9065,1530.9576 2035.4491,1524.4706 2034.289,1518.0915 C 2028.5762,1486.6788 2014.517,1457.6249 1991.3083,1435.4829 C 1979.3463,1426.7303 1975.5448,1422.6466 1961.4715,1417.4972 C 1937.5147,1408.7314 1917.6738,1412.4192 1894.7011,1421.6791 C 1896.4993,1420.1707 1902.1673,1416.0506 1900.0957,1417.1538 C 1874.7472,1430.6526 1852.6446,1451.2798 1834.813,1473.5649 C 1830.1015,1479.4531 1825.9225,1485.7485 1821.4772,1491.8403 C 1817.6792,1498.2151 1813.5863,1504.4232 1810.083,1510.9646 C 1794.5085,1540.0464 1785.0704,1572.0733 1785.5791,1605.2059 C 1786.1081,1610.6358 1786.3255,1616.1051 1787.166,1621.4955 C 1790.7922,1644.751 1800.9111,1666.1676 1817.0562,1683.3065 C 1820.0463,1685.9911 1822.8646,1688.8804 1826.0266,1691.3604 C 1840.3761,1702.6154 1857.6597,1708.2623 1875.8557,1707.5595 C 1885.1061,1706.3411 1886.4862,1706.6217 1895.3703,1703.6027 C 1898.463,1702.5517 1906.9446,1697.8017 1904.4446,1699.9038 C 1899.3908,1704.1532 1893.159,1706.7614 1887.5229,1710.2011 C 1882.0201,1713.5595 1909.2072,1697.3288 1903.6601,1699.5422 C 1915.0838,1689.9738 1925.9081,1679.471 1931.6684,1665.4112 C 1935.3022,1655.2281 1936.8112,1644.7441 1935.1962,1633.9567 L 1947.2526,1627.3613 z"
       id="path2597"
       style="fill:#c8c8c8;fill-opacity:1;stroke:#000000;stroke-width:2;stroke-miterlimit:4;stroke-dasharray:none;stroke-opacity:1" />
    <path
       d="M 1755.7104,1577.1686 C 1751.2752,1590.8959 1743.5444,1603.2172 1735.5981,1615.1384 C 1721.6058,1635.7366 1702.1484,1650.7229 1681.2177,1663.6487 C 1655.3634,1679.8473 1628.8798,1693.2662 1598.9638,1699.3105 C 1585.7661,1701.977 1582.2099,1701.8354 1568.8221,1702.86 C 1543.3566,1703.6019 1517.8464,1698.8856 1495.3166,1686.613 C 1490.7578,1684.1297 1486.5091,1681.1152 1482.1053,1678.3664 C 1459.5588,1661.5484 1442.6675,1638.8361 1433.4674,1612.1919 C 1431.5139,1606.5345 1430.2263,1600.6688 1428.6058,1594.9073 C 1422.1108,1563.3604 1424.7091,1531.1125 1435.7389,1500.8624 C 1438.0066,1494.6429 1440.912,1488.6748 1443.4986,1482.581 C 1458.1974,1453.0722 1479.2388,1427.2084 1505.762,1407.5241 C 1510.9118,1403.7021 1516.4138,1400.3791 1521.7398,1396.8066 C 1536.2057,1388.7093 1550.3991,1380.1047 1565.1375,1372.5146 C 1586.5332,1361.4959 1616.2214,1355.1865 1640.1327,1353.8955 C 1646.6917,1353.5414 1653.2697,1353.8348 1659.8383,1353.8045 C 1685.1724,1355.338 1710.2985,1361.0712 1731.8422,1375.0523 C 1745.6676,1384.0245 1747.3709,1387.333 1758.4589,1399.2764 C 1777.8045,1424.3724 1787.187,1454.8527 1790.2901,1486.1162 C 1790.9162,1492.4246 1790.984,1498.776 1791.331,1505.1059 C 1791.5179,1533.935 1788.0166,1564.1845 1772.4361,1589.2254 C 1769.3497,1594.1858 1765.4536,1598.594 1761.9624,1603.2783 C 1751.4723,1615.4142 1739.3689,1626.103 1724.7309,1632.9843 C 1719.9069,1635.2521 1714.7542,1636.742 1709.7658,1638.6209 L 1710.52,1638.0323 C 1712.5827,1637.3837 1714.784,1637.073 1716.7081,1636.0866 C 1726.572,1631.0297 1733.4383,1622.3534 1739.3222,1613.2469 C 1743.5996,1604.6594 1747.7017,1596.8798 1751.1704,1587.8664 C 1759.5948,1565.9754 1763.4232,1542.7873 1763.6736,1519.3766 C 1763.3768,1513.1199 1763.3376,1506.8458 1762.7832,1500.6067 C 1760.0503,1469.8511 1751.2591,1439.9516 1732.6339,1414.9785 C 1722.2469,1403.8933 1719.6632,1399.7802 1706.762,1391.4451 C 1685.5465,1377.7383 1660.616,1372.474 1635.7215,1371.376 C 1629.1619,1371.5223 1622.5869,1371.3436 1616.0426,1371.815 C 1602.9387,1372.7588 1589.9859,1375.0144 1577.3019,1378.4202 C 1571.0459,1380.1 1564.8591,1382.0659 1558.7862,1384.3196 C 1552.7651,1386.554 1547.4159,1390.9482 1541.06,1391.8697 C 1537.2513,1392.4219 1547.4772,1387.6192 1550.6857,1385.494 C 1545.3751,1388.9523 1539.8875,1392.153 1534.7539,1395.869 C 1508.445,1414.9128 1487.4941,1440.1985 1472.8321,1469.0985 C 1470.2641,1475.0587 1467.3783,1480.8917 1465.1282,1486.9789 C 1454.2228,1516.4808 1451.4846,1548.0391 1458.1128,1578.8199 C 1459.749,1584.4194 1461.0553,1590.1261 1463.0214,1595.6186 C 1472.2566,1621.4178 1488.7981,1643.6616 1510.9068,1659.7983 C 1515.1936,1662.4598 1519.3277,1665.3846 1523.7672,1667.7829 C 1545.7467,1679.6565 1570.4271,1684.1436 1595.2283,1683.348 C 1610.2415,1682.0725 1624.5772,1680.2068 1639.1048,1675.9961 C 1643.7801,1674.641 1648.41,1673.1166 1652.9718,1671.418 C 1657.4605,1669.7467 1666.6686,1661.1236 1666.2367,1665.8938 C 1665.7515,1671.2533 1657.1979,1671.7367 1652.6785,1674.6581 C 1675.331,1661.4531 1696.4464,1645.9878 1712.6804,1625.0844 C 1722.0518,1612.6435 1730.7112,1599.736 1737.4311,1585.6374 L 1755.7104,1577.1686 z"
       id="path2599"
       style="fill:#c8c8c8;fill-opacity:1;stroke:#000000;stroke-width:2;stroke-miterlimit:4;stroke-dasharray:none;stroke-opacity:1" />
    <path
       d="M 1462.7465,1541.8201 C 1461.1806,1556.0319 1456.0918,1569.4703 1450.4149,1582.4774 C 1440.7429,1603.6753 1425.9007,1621.4515 1409.7439,1637.9558 C 1386.3721,1658.9712 1358.3764,1677.6708 1328.894,1688.4595 C 1324.7324,1689.9824 1320.4329,1691.0982 1316.2023,1692.4176 C 1293.4371,1697.92 1269.4965,1697.7326 1247.4887,1689.0408 C 1242.775,1687.1791 1238.3515,1684.6533 1233.7829,1682.4595 C 1208.355,1667.1039 1190.1271,1643.5666 1179.781,1615.8232 C 1177.4997,1609.706 1175.9561,1603.3384 1174.0437,1597.096 C 1167.0522,1565.6814 1167.0517,1532.7858 1177.6274,1502.1229 C 1179.4701,1496.7804 1181.9748,1491.6898 1184.1485,1486.4732 C 1193.2077,1468.7302 1205.9624,1453.4864 1223.4897,1443.6391 C 1262.5113,1421.7159 1249.8287,1426.1655 1276.0911,1419.1714 C 1299.9168,1414.9677 1324.2521,1417.107 1347.1904,1424.7145 C 1351.9023,1426.2772 1356.4641,1428.2607 1361.101,1430.0337 C 1382.829,1439.8824 1402.6325,1454.3709 1415.2595,1474.9986 C 1417.6199,1478.8545 1419.3942,1483.04 1421.4616,1487.0607 C 1427.9052,1504.0619 1428.7743,1522.7236 1425.78,1540.6021 C 1424.6651,1547.2596 1421.7672,1556.8259 1419.8792,1563.4546 L 1419.0187,1563.8728 C 1419.2862,1560.7561 1419.9721,1557.6472 1419.8212,1554.5227 C 1419.659,1551.1664 1418.8555,1547.8636 1418.0874,1544.5923 C 1414.3369,1528.6195 1406.377,1514.5817 1397.7936,1500.762 C 1391.4477,1491.4244 1389.4534,1487.7581 1381.7358,1479.3807 C 1368.8351,1465.3772 1352.9405,1454.8085 1335.5315,1447.2416 C 1330.951,1445.5502 1326.4518,1443.6201 1321.7901,1442.1673 C 1298.9242,1435.0412 1274.6491,1433.393 1251.1874,1438.3347 C 1246.8596,1439.6298 1237.078,1446.5947 1238.2041,1442.2199 C 1239.6694,1436.5278 1248.5311,1436.3463 1252.7521,1432.2561 C 1256.0232,1429.0863 1244.7802,1436.7123 1241.1075,1439.4064 C 1228.83,1448.4127 1219.5363,1460.267 1212.2833,1473.5528 C 1209.9944,1478.6783 1207.3489,1483.6589 1205.4166,1488.9292 C 1194.4172,1518.9296 1194.1192,1551.4417 1200.9264,1582.3737 C 1202.8093,1588.4886 1204.3199,1594.7307 1206.5753,1600.7182 C 1216.7802,1627.8103 1234.497,1650.8111 1259.7543,1665.2724 C 1264.2656,1667.3213 1268.6407,1669.7014 1273.2883,1671.4192 C 1295.1645,1679.5046 1318.6365,1679.2142 1340.9454,1673.2296 C 1345.1189,1671.8293 1349.3612,1670.6195 1353.4659,1669.0287 C 1355.7122,1668.1582 1389.393,1652.3629 1350.383,1672.8835 C 1346.5033,1674.9244 1357.8673,1668.3082 1361.4748,1665.8176 C 1370.7425,1659.4192 1373.4083,1656.758 1381.9317,1649.465 C 1399.1042,1632.8641 1414.7398,1614.7658 1426.0442,1593.5614 C 1433.0953,1579.8389 1439.3152,1565.7773 1443.8051,1550.987 L 1462.7465,1541.8201 z"
       id="path2601"
       style="fill:#c8c8c8;fill-opacity:1;stroke:#000000;stroke-width:2;stroke-miterlimit:4;stroke-dasharray:none;stroke-opacity:1" />
    <path
       d="M 461.66874,34.009772 C 462.35734,31.914521 464.67934,28.943606 463.43453,26.703195 C 464.40265,25.429543 457.97029,28.972893 459.02001,28.416174 C 466.7045,24.340715 468.47381,22.452639 464.69208,25.951872 C 460.47541,30.4502 458.48234,36.133991 457.49784,42.104664 C 457.36519,46.644098 457.4491,51.105032 461.96778,53.361491 C 463.70949,53.759985 465.29856,53.40645 466.88991,52.637895 C 467.52413,52.331601 469.3365,51.241349 468.71935,51.580721 C 459.1637,56.835317 456.95412,58.816052 461.62068,55.027066 C 465.88352,51.306191 469.24425,46.734335 472.44914,42.109856 C 474.30592,39.5722 475.62226,36.749473 476.93636,33.918537 C 481.31951,31.913209 485.5504,29.53454 490.08582,27.902553 C 490.30649,27.823149 490.31671,29.020857 490.44211,30.619499 C 490.63385,33.06389 490.89309,35.490511 491.19888,37.923256 C 492.30827,45.608192 494.2723,53.130182 496.32887,60.605727 C 498.93973,69.318534 501.21763,78.106501 502.92416,87.040249 C 504.48798,95.517292 505.21108,104.13143 504.43723,112.7236 C 503.80026,116.32671 502.81809,120.59951 499.32882,122.58598 C 483.50216,131.59622 489.12925,130.82725 480.02428,131.32639 C 472.64434,130.83751 465.52194,128.03548 459.63238,123.5579 C 458.23708,122.49711 456.97845,121.26767 455.65149,120.12256 C 452.94238,116.81343 451.13788,115.15479 449.60377,111.02924 C 446.49879,102.67931 447.68464,93.472315 448.95972,84.946731 C 449.56444,82.55308 450.16917,80.159429 450.7739,77.765778 L 451.1357,77.586201 C 451.27495,79.598981 451.41419,81.611756 451.55343,83.624536 C 451.91236,85.581861 452.12979,87.570496 452.6302,89.496505 C 455.02309,98.706395 461.05174,106.11956 467.9893,112.38428 C 469.35986,113.42674 470.66608,114.5597 472.10098,115.51165 C 478.16809,119.5367 485.25557,122.00616 492.55471,122.02729 C 499.83529,120.92265 496.2079,121.05994 484.86058,128.29919 C 484.11338,128.77588 486.4625,127.50781 487.15314,126.95234 C 489.56498,125.01251 490.52649,122.12144 491.24867,119.23754 C 492.624,110.68718 492.2232,102.09195 490.67854,93.573458 C 488.98274,84.680645 486.71438,75.934806 484.07523,67.274034 C 481.96447,59.769353 479.92579,52.233138 478.68008,44.526856 C 478.29319,42.100744 477.96161,39.695565 477.70883,37.253136 C 477.64223,36.609629 477.43695,35.144596 477.52935,35.088299 C 481.63969,32.584035 485.96667,30.454019 490.18532,28.136884 C 487.85826,30.575398 487.1391,34.341098 484.73446,36.768644 C 481.37815,41.506922 477.83714,46.151571 473.62851,50.174821 C 468.01709,55.041645 471.43161,52.28681 458.72396,59.583766 C 456.41443,60.909941 453.86422,61.253165 451.40503,60.182567 C 446.88766,56.943279 446.5427,52.588047 446.82444,47.338407 C 447.75296,40.922936 449.9386,34.88215 454.51547,30.12474 C 459.29708,25.647933 456.40456,28.104519 467.10453,21.942046 C 468.54756,21.11096 470.32594,20.78056 471.15032,22.503329 C 471.54871,25.630926 469.26983,28.354584 468.10419,31.106812 L 461.66874,34.009772 z"
       id="path3164"
       style="fill:#c8c8c8;fill-opacity:1;stroke:#000000;stroke-width:0.84441632;stroke-miterlimit:4;stroke-dasharray:none;stroke-opacity:1" />
  </g>
</svg>
