<?xml version="1.0" encoding="UTF-8" standalone="no"?>
<!-- Created with Inkscape (http://www.inkscape.org/) -->
<svg
   xmlns:dc="http://purl.org/dc/elements/1.1/"
   xmlns:cc="http://creativecommons.org/ns#"
   xmlns:rdf="http://www.w3.org/1999/02/22-rdf-syntax-ns#"
   xmlns:svg="http://www.w3.org/2000/svg"
   xmlns="http://www.w3.org/2000/svg"
   xmlns:sodipodi="http://sodipodi.sourceforge.net/DTD/sodipodi-0.dtd"
   xmlns:inkscape="http://www.inkscape.org/namespaces/inkscape"
   width="133.69318"
   height="100.77334"
   id="svg2865"
   sodipodi:version="0.32"
   inkscape:version="0.46"
   version="1.0"
   sodipodi:docname="l2d1.svg"
   inkscape:output_extension="org.inkscape.output.svg.inkscape">
  <defs
     id="defs2867">
    <inkscape:perspective
       sodipodi:type="inkscape:persp3d"
       inkscape:vp_x="0 : 526.18109 : 1"
       inkscape:vp_y="0 : 1000 : 0"
       inkscape:vp_z="744.09448 : 526.18109 : 1"
       inkscape:persp3d-origin="372.04724 : 350.78739 : 1"
       id="perspective2873" />
  </defs>
  <sodipodi:namedview
     id="base"
     pagecolor="#ffffff"
     bordercolor="#666666"
     borderopacity="1.0"
     gridtolerance="10000"
     guidetolerance="10"
     objecttolerance="10"
     inkscape:pageopacity="0.0"
     inkscape:pageshadow="2"
     inkscape:zoom="4.0989377"
     inkscape:cx="66.846588"
     inkscape:cy="50.386669"
     inkscape:document-units="px"
     inkscape:current-layer="layer1"
     showgrid="false"
     inkscape:window-width="640"
     inkscape:window-height="681"
     inkscape:window-x="630"
     inkscape:window-y="0" />
  <metadata
     id="metadata2870">
    <rdf:RDF>
      <cc:Work
         rdf:about="">
        <dc:format>image/svg+xml</dc:format>
        <dc:type
           rdf:resource="http://purl.org/dc/dcmitype/StillImage" />
      </cc:Work>
    </rdf:RDF>
  </metadata>
  <g
     inkscape:label="Layer 1"
     inkscape:groupmode="layer"
     id="layer1"
     transform="translate(72.56087,-167.6898)">
    <g
       style="stroke-width:1;stroke-linecap:square;stroke-linejoin:miter;stroke-miterlimit:10;stroke-dasharray:none;stroke-dashoffset:0"
       id="g202"
       transform="matrix(0.3413659,0,0,0.3413659,-112.50026,140.95125)">
      <g
         style="fill:#006400;fill-opacity:0.10196078;fill-rule:nonzero;stroke:none"
         id="g204">
        <path
           id="path206"
           d="M 157.88992,347.65598 C 155.50916,342.34079 151.63275,337.8335 146.7337,334.68412 L 130.51097,359.91947 L 157.88992,347.65598 z" />
      </g>
<!-- drawing style -->    </g>
    <g
       style="stroke-width:1;stroke-linecap:square;stroke-linejoin:miter;stroke-miterlimit:10;stroke-dasharray:none;stroke-dashoffset:0"
       id="g208"
       transform="matrix(0.3413659,0,0,0.3413659,-112.50026,140.95125)">
      <g
         style="fill:none;stroke:#006400;stroke-linecap:round;stroke-linejoin:round;stroke-opacity:1"
         id="g210">
        <path
           id="path212"
           d="M 157.88992,347.65598 C 155.50916,342.34079 151.63275,337.8335 146.7337,334.68412 L 130.51097,359.91947 L 157.88992,347.65598 z" />
      </g>
<!-- drawing style -->    </g>
    <g
       style="stroke-width:1;stroke-linecap:square;stroke-linejoin:miter;stroke-miterlimit:10;stroke-dasharray:none;stroke-dashoffset:0"
       id="g214"
       transform="matrix(0.3413659,0,0,0.3413659,-106.32325,134.84443)">
      <g
         style="fill:#006400;fill-opacity:1;fill-rule:nonzero;stroke:none"
         id="g216">
        <path
           id="path218"
           d="M 145.79687,348.79687 C 146.06771,348.05729 146.27604,347.33854 146.42188,346.64063 L 147.5,346.64063 C 147.29167,347.52604 146.86979,348.58333 146.23437,349.8125 L 146.35938,350.09375 C 146.40104,350.20833 146.52083,350.46875 146.71875,350.875 C 146.83333,351.125 146.96875,351.42188 147.125,351.76562 C 147.36458,352.29688 147.55729,352.70833 147.70312,353 L 146.46875,353 C 146.42708,352.90625 146.40104,352.84896 146.39062,352.82812 L 146.125,352.21875 L 145.89062,351.65625 L 145.6875,351.20312 L 145.59375,350.98437 C 145.23958,351.77604 144.8776,352.33333 144.50781,352.65625 C 144.13802,352.97917 143.67708,353.14063 143.125,353.14063 C 142.41667,353.14063 141.84896,352.86198 141.42188,352.30469 C 140.99479,351.7474 140.78125,351.01042 140.78125,350.09375 C 140.78125,349.01042 141.02604,348.13802 141.51562,347.47656 C 142.00521,346.8151 142.65104,346.48437 143.45312,346.48437 C 143.99479,346.48437 144.42708,346.64323 144.75,346.96094 C 145.07292,347.27865 145.42187,347.89062 145.79687,348.79687 z M 145.20312,350.04688 L 144.92188,349.39062 C 144.56771,348.58854 144.28125,348.04948 144.0625,347.77344 C 143.84375,347.4974 143.59896,347.35938 143.32813,347.35938 C 142.94271,347.35938 142.625,347.59896 142.375,348.07812 C 142.125,348.55729 142,349.16667 142,349.90625 C 142,350.61458 142.11719,351.1875 142.35156,351.625 C 142.58594,352.0625 142.89583,352.28125 143.28125,352.28125 C 143.61458,352.28125 143.91927,352.11979 144.19531,351.79687 C 144.47135,351.47396 144.80729,350.89062 145.20312,350.04688 z"
           sodipodi:nodetypes="ccccccscccccccssssssscccsssssssc" />
      </g>
<!-- drawing style -->    </g>
    <g
       style="stroke-width:1;stroke-linecap:square;stroke-linejoin:miter;stroke-miterlimit:10;stroke-dasharray:none;stroke-dashoffset:0"
       id="g220"
       transform="matrix(0.3413659,0,0,0.3413659,-112.50026,140.95125)">
      <g
         style="fill:none;stroke:#000000;stroke-linecap:round;stroke-linejoin:round;stroke-opacity:1"
         id="g222">
        <path
           id="path224"
           d="M 130.51097,359.91946 L 294.80972,104.34362" />
      </g>
<!-- drawing style -->    </g>
    <g
       style="stroke-width:1;stroke-linecap:square;stroke-linejoin:miter;stroke-miterlimit:10;stroke-dasharray:none;stroke-dashoffset:0"
       id="g226"
       transform="matrix(0.3413659,0,0,0.3413659,-112.50026,140.95125)">
      <g
         style="fill:#000000;fill-opacity:1;fill-rule:nonzero;stroke:none"
         id="g228">
        <path
           id="path230"
           d="M 302.38034,92.567123 L 297.75385,106.23627 L 291.8656,102.45097 L 302.38034,92.567123 z" />
      </g>
<!-- drawing style -->    </g>
    <g
       style="stroke-width:1;stroke-linecap:square;stroke-linejoin:miter;stroke-miterlimit:10;stroke-dasharray:none;stroke-dashoffset:0"
       id="g232"
       transform="matrix(0.3413659,0,0,0.3413659,-113.51408,139.93743)">
      <g
         style="fill:#000000;fill-opacity:1;fill-rule:nonzero;stroke:none"
         id="g234">
        <path
           id="path236"
           d="M 218.14062,224 L 218.14062,222.79687 C 217.52604,223.69271 216.78125,224.14062 215.90625,224.14062 C 215.34375,224.14062 214.89844,223.96615 214.57031,223.61719 C 214.24219,223.26823 214.07812,222.79687 214.07812,222.20312 L 214.07812,217.64062 L 215.23437,217.64062 L 215.23437,221.82813 C 215.23437,222.30729 215.30469,222.64844 215.44531,222.85156 C 215.58594,223.05469 215.81771,223.15625 216.14062,223.15625 C 216.84896,223.15625 217.51562,222.69271 218.14062,221.76562 L 218.14062,217.64062 L 219.28125,217.64062 L 219.28125,224 L 218.14062,224 z" />
      </g>
<!-- drawing style -->    </g>
    <g
       style="stroke-width:1;stroke-linecap:square;stroke-linejoin:miter;stroke-miterlimit:10;stroke-dasharray:none;stroke-dashoffset:0"
       id="g238"
       transform="matrix(0.3413659,0,0,0.3413659,-112.50026,140.95125)">
      <g
         style="fill:none;stroke:#000000;stroke-linecap:round;stroke-linejoin:round;stroke-opacity:1"
         id="g240">
        <path
           id="path242"
           d="M 130.51097,359.91946 L 484.38876,201.4117" />
      </g>
<!-- drawing style -->    </g>
    <g
       style="stroke-width:1;stroke-linecap:square;stroke-linejoin:miter;stroke-miterlimit:10;stroke-dasharray:none;stroke-dashoffset:0"
       id="g244"
       transform="matrix(0.3413659,0,0,0.3413659,-112.50026,140.95125)">
      <g
         style="fill:#000000;fill-opacity:1;fill-rule:nonzero;stroke:none"
         id="g246">
        <path
           id="path248"
           d="M 497.16562,195.68874 L 485.81952,204.60591 L 482.95804,198.2175 L 497.16562,195.68874 z" />
      </g>
<!-- drawing style -->    </g>
    <g
       style="stroke-width:1;stroke-linecap:square;stroke-linejoin:miter;stroke-miterlimit:10;stroke-dasharray:none;stroke-dashoffset:0"
       id="g250"
       transform="matrix(0.3413659,0,0,0.3413659,-112.50026,140.95125)">
      <g
         style="fill:#000000;fill-opacity:1;fill-rule:nonzero;stroke:none"
         id="g252">
        <path
           id="path254"
           d="M 314.46875,274 L 312.10938,267.64063 L 313.26562,267.64063 L 315.10938,272.59375 L 317.0625,267.64063 L 318.14063,267.64063 L 315.625,274 L 314.46875,274 z" />
      </g>
<!-- drawing style -->    </g>
    <g
       style="stroke-width:1;stroke-linecap:square;stroke-linejoin:miter;stroke-miterlimit:10;stroke-dasharray:none;stroke-dashoffset:0"
       id="g256"
       transform="matrix(0.3413659,0,0,0.3413659,-112.50026,140.95125)">
      <g
         style="fill:none;stroke:#000000;stroke-linecap:round;stroke-linejoin:round;stroke-opacity:1"
         id="g258">
        <path
           id="path260"
           d="M 302.38034,92.567123 L 484.7926,189.13832" />
      </g>
<!-- drawing style -->    </g>
    <g
       style="stroke-width:1;stroke-linecap:square;stroke-linejoin:miter;stroke-miterlimit:10;stroke-dasharray:none;stroke-dashoffset:0"
       id="g262"
       transform="matrix(0.3413659,0,0,0.3413659,-112.50026,140.95125)">
      <g
         style="fill:#000000;fill-opacity:1;fill-rule:nonzero;stroke:none"
         id="g264">
        <path
           id="path266"
           d="M 497.16562,195.68874 L 483.15497,192.23157 L 486.43021,186.04506 L 497.16562,195.68874 z" />
      </g>
<!-- drawing style -->    </g>
    <g
       style="stroke-width:1;stroke-linecap:square;stroke-linejoin:miter;stroke-miterlimit:10;stroke-dasharray:none;stroke-dashoffset:0"
       id="g268"
       transform="matrix(0.3413659,0,0,0.3413659,-112.50026,140.95125)">
      <g
         style="fill:#000000;fill-opacity:1;fill-rule:nonzero;stroke:none"
         id="g270">
        <path
           id="path272"
           d="M 404.64063,141.14062 C 403.77604,141.14062 403.0625,140.82292 402.5,140.1875 C 401.9375,139.55208 401.65625,138.75 401.65625,137.78125 C 401.65625,136.75 401.9349,135.94531 402.49219,135.36719 C 403.04948,134.78906 403.83333,134.5 404.84375,134.5 C 405.33333,134.5 405.88542,134.56771 406.5,134.70312 L 406.5,135.67187 C 405.85417,135.47396 405.32292,135.375 404.90625,135.375 C 404.32292,135.375 403.85156,135.59635 403.49219,136.03906 C 403.13281,136.48177 402.95312,137.07292 402.95312,137.8125 C 402.95312,138.53125 403.13542,139.11198 403.5,139.55469 C 403.86458,139.9974 404.34375,140.21875 404.9375,140.21875 C 405.46875,140.21875 406.01562,140.08333 406.57812,139.8125 L 406.57812,140.8125 C 405.82812,141.03125 405.18229,141.14062 404.64063,141.14062 z" />
      </g>
<!-- drawing style -->    </g>
    <g
       style="stroke-width:1;stroke-linecap:square;stroke-linejoin:miter;stroke-miterlimit:10;stroke-dasharray:none;stroke-dashoffset:0"
       id="g274"
       transform="matrix(0.3413659,0,0,0.3413659,-112.50026,140.95125)">
      <g
         style="fill:#0000ff;fill-opacity:1;fill-rule:nonzero;stroke:none"
         id="g276">
        <path
           id="path278"
           d="M 133.51097,359.91947 C 133.51097,361.57632 132.16782,362.91947 130.51097,362.91947 C 128.85412,362.91947 127.51097,361.57632 127.51097,359.91947 C 127.51097,358.26262 128.85412,356.91947 130.51097,356.91947 C 132.16782,356.91947 133.51097,358.26262 133.51097,359.91947 z" />
      </g>
<!-- drawing style -->    </g>
    <g
       style="stroke-width:1;stroke-linecap:square;stroke-linejoin:miter;stroke-miterlimit:10;stroke-dasharray:none;stroke-dashoffset:0"
       id="g280"
       transform="matrix(0.3413659,0,0,0.3413659,-112.50026,140.95125)">
      <g
         style="fill:none;stroke:#000000;stroke-linecap:round;stroke-linejoin:round;stroke-opacity:1"
         id="g282">
        <path
           id="path284"
           d="M 133.51097,359.91947 C 133.51097,361.57632 132.16782,362.91947 130.51097,362.91947 C 128.85412,362.91947 127.51097,361.57632 127.51097,359.91947 C 127.51097,358.26262 128.85412,356.91947 130.51097,356.91947 C 132.16782,356.91947 133.51097,358.26262 133.51097,359.91947 z" />
      </g>
<!-- drawing style -->    </g>
    <g
       style="stroke-width:1;stroke-linecap:square;stroke-linejoin:miter;stroke-miterlimit:10;stroke-dasharray:none;stroke-dashoffset:0"
       id="g286"
       transform="matrix(0.3413659,0,0,0.3413659,-118.67727,147.61961)">
      <g
         style="fill:#0000ff;fill-opacity:1;fill-rule:nonzero;stroke:none"
         id="g288">
        <path
           id="path290"
           d="M 140.51562,350.6875 L 139.03125,346.9375 L 137.5625,350.6875 L 140.51562,350.6875 z M 141.8125,354 L 140.875,351.59375 L 137.20312,351.59375 L 136.25,354 L 135.09375,354 L 138.54687,345.32812 L 139.76562,345.32812 L 143.14062,354 L 141.8125,354 z" />
      </g>
<!-- drawing style -->    </g>
    <g
       style="stroke-width:1;stroke-linecap:square;stroke-linejoin:miter;stroke-miterlimit:10;stroke-dasharray:none;stroke-dashoffset:0"
       id="g292"
       transform="matrix(0.3413659,0,0,0.3413659,-112.50026,140.95125)">
      <g
         style="fill:#0000ff;fill-opacity:1;fill-rule:nonzero;stroke:none"
         id="g294">
        <path
           id="path296"
           d="M 305.38034,92.567121 C 305.38034,94.223976 304.03719,95.567121 302.38034,95.567121 C 300.72348,95.567121 299.38034,94.223976 299.38034,92.567121 C 299.38034,90.910267 300.72348,89.567121 302.38034,89.567121 C 304.03719,89.567121 305.38034,90.910267 305.38034,92.567121 z" />
      </g>
<!-- drawing style -->    </g>
    <g
       style="stroke-width:1;stroke-linecap:square;stroke-linejoin:miter;stroke-miterlimit:10;stroke-dasharray:none;stroke-dashoffset:0"
       id="g298"
       transform="matrix(0.3413659,0,0,0.3413659,-112.50026,140.95125)">
      <g
         style="fill:none;stroke:#000000;stroke-linecap:round;stroke-linejoin:round;stroke-opacity:1"
         id="g300">
        <path
           id="path302"
           d="M 305.38034,92.567121 C 305.38034,94.223976 304.03719,95.567121 302.38034,95.567121 C 300.72348,95.567121 299.38034,94.223976 299.38034,92.567121 C 299.38034,90.910267 300.72348,89.567121 302.38034,89.567121 C 304.03719,89.567121 305.38034,90.910267 305.38034,92.567121 z" />
      </g>
<!-- drawing style -->    </g>
    <g
       style="stroke-width:1;stroke-linecap:square;stroke-linejoin:miter;stroke-miterlimit:10;stroke-dasharray:none;stroke-dashoffset:0"
       id="g304"
       transform="matrix(0.3413659,0,0,0.3413659,-112.50026,140.95125)">
      <g
         style="fill:#0000ff;fill-opacity:1;fill-rule:nonzero;stroke:none"
         id="g306">
        <path
           id="path308"
           d="M 307.125,87 L 307.125,78.328125 L 309.375,78.328125 C 310.23958,78.328125 310.90365,78.492187 311.36719,78.820312 C 311.83073,79.148437 312.0625,79.619792 312.0625,80.234375 C 312.0625,81.286458 311.46875,82.036458 310.28125,82.484375 C 311.69792,82.911458 312.40625,83.692708 312.40625,84.828125 C 312.40625,85.536458 312.17187,86.075521 311.70312,86.445312 C 311.23437,86.815104 310.55729,87 309.67188,87 L 307.125,87 z M 308.34375,86.078125 L 308.59375,86.078125 C 309.48958,86.078125 310.07292,86.020833 310.34375,85.90625 C 310.85417,85.697917 311.10938,85.302083 311.10938,84.71875 C 311.10938,84.197917 310.8776,83.768229 310.41406,83.429688 C 309.95052,83.091146 309.375,82.921875 308.6875,82.921875 L 308.34375,82.921875 L 308.34375,86.078125 z M 308.34375,82.140625 L 308.73437,82.140625 C 309.39062,82.140625 309.89844,82 310.25781,81.71875 C 310.61719,81.4375 310.79687,81.041667 310.79687,80.53125 C 310.79687,79.677083 310.13542,79.25 308.8125,79.25 L 308.34375,79.25 L 308.34375,82.140625 z" />
      </g>
<!-- drawing style -->    </g>
    <g
       style="stroke-width:1;stroke-linecap:square;stroke-linejoin:miter;stroke-miterlimit:10;stroke-dasharray:none;stroke-dashoffset:0"
       id="g310"
       transform="matrix(0.3413659,0,0,0.3413659,-112.50026,140.95125)">
      <g
         style="fill:#0000ff;fill-opacity:1;fill-rule:nonzero;stroke:none"
         id="g312">
        <path
           id="path314"
           d="M 500.16562,195.68874 C 500.16562,197.3456 498.82248,198.68874 497.16562,198.68874 C 495.50877,198.68874 494.16562,197.3456 494.16562,195.68874 C 494.16562,194.03189 495.50877,192.68874 497.16562,192.68874 C 498.82248,192.68874 500.16562,194.03189 500.16562,195.68874 z" />
      </g>
<!-- drawing style -->    </g>
    <g
       style="stroke-width:1;stroke-linecap:square;stroke-linejoin:miter;stroke-miterlimit:10;stroke-dasharray:none;stroke-dashoffset:0"
       id="g316"
       transform="matrix(0.3413659,0,0,0.3413659,-112.50026,140.95125)">
      <g
         style="fill:none;stroke:#000000;stroke-linecap:round;stroke-linejoin:round;stroke-opacity:1"
         id="g318">
        <path
           id="path320"
           d="M 500.16562,195.68874 C 500.16562,197.3456 498.82248,198.68874 497.16562,198.68874 C 495.50877,198.68874 494.16562,197.3456 494.16562,195.68874 C 494.16562,194.03189 495.50877,192.68874 497.16562,192.68874 C 498.82248,192.68874 500.16562,194.03189 500.16562,195.68874 z" />
      </g>
<!-- drawing style -->    </g>
    <g
       style="stroke-width:1;stroke-linecap:square;stroke-linejoin:miter;stroke-miterlimit:10;stroke-dasharray:none;stroke-dashoffset:0"
       id="g322"
       transform="matrix(0.3413659,0,0,0.3413659,-112.50026,140.95125)">
      <g
         style="fill:#0000ff;fill-opacity:1;fill-rule:nonzero;stroke:none"
         id="g324">
        <path
           id="path326"
           d="M 505.82812,190.21875 C 504.48437,190.21875 503.44531,189.82292 502.71094,189.03125 C 501.97656,188.23958 501.60938,187.11979 501.60938,185.67187 C 501.60938,184.22396 501.98437,183.10156 502.73437,182.30469 C 503.48437,181.50781 504.53646,181.10937 505.89062,181.10937 C 506.67188,181.10937 507.58333,181.23437 508.625,181.48438 L 508.625,182.64062 C 507.4375,182.23437 506.52083,182.03125 505.875,182.03125 C 504.9375,182.03125 504.21094,182.34896 503.69531,182.98438 C 503.17969,183.61979 502.92187,184.52083 502.92187,185.6875 C 502.92187,186.79167 503.19531,187.66146 503.74219,188.29687 C 504.28906,188.93229 505.04167,189.25 506,189.25 C 506.82292,189.25 507.70312,189 508.64063,188.5 L 508.64063,189.54687 C 507.78646,189.99479 506.84896,190.21875 505.82812,190.21875 z" />
      </g>
<!-- drawing style -->    </g>
  </g>
</svg>
