<?xml version="1.0" encoding="UTF-8" standalone="no"?>
<!-- Created with Inkscape (http://www.inkscape.org/) -->
<svg
   xmlns:dc="http://purl.org/dc/elements/1.1/"
   xmlns:cc="http://creativecommons.org/ns#"
   xmlns:rdf="http://www.w3.org/1999/02/22-rdf-syntax-ns#"
   xmlns:svg="http://www.w3.org/2000/svg"
   xmlns="http://www.w3.org/2000/svg"
   xmlns:sodipodi="http://sodipodi.sourceforge.net/DTD/sodipodi-0.dtd"
   xmlns:inkscape="http://www.inkscape.org/namespaces/inkscape"
   width="392.24612"
   height="382.67328"
   id="svg6577"
   sodipodi:version="0.32"
   inkscape:version="0.46"
   version="1.0"
   sodipodi:docname="hw1d2.svg"
   inkscape:output_extension="org.inkscape.output.svg.inkscape">
  <defs
     id="defs6579">
    <inkscape:perspective
       sodipodi:type="inkscape:persp3d"
       inkscape:vp_x="0 : 526.18109 : 1"
       inkscape:vp_y="0 : 1000 : 0"
       inkscape:vp_z="744.09448 : 526.18109 : 1"
       inkscape:persp3d-origin="372.04724 : 350.78739 : 1"
       id="perspective6585" />
  </defs>
  <sodipodi:namedview
     id="base"
     pagecolor="#ffffff"
     bordercolor="#666666"
     borderopacity="1.0"
     gridtolerance="10000"
     guidetolerance="10"
     objecttolerance="10"
     inkscape:pageopacity="0.0"
     inkscape:pageshadow="2"
     inkscape:zoom="1.217749"
     inkscape:cx="196.12306"
     inkscape:cy="191.33664"
     inkscape:document-units="px"
     inkscape:current-layer="layer1"
     showgrid="false"
     inkscape:window-width="640"
     inkscape:window-height="681"
     inkscape:window-x="169"
     inkscape:window-y="23" />
  <metadata
     id="metadata6582">
    <rdf:RDF>
      <cc:Work
         rdf:about="">
        <dc:format>image/svg+xml</dc:format>
        <dc:type
           rdf:resource="http://purl.org/dc/dcmitype/StillImage" />
      </cc:Work>
    </rdf:RDF>
  </metadata>
  <g
     inkscape:label="Layer 1"
     inkscape:groupmode="layer"
     id="layer1"
     transform="translate(341.83735,-501.02555)">
    <g
       style="stroke-width:1;stroke-linecap:square;stroke-linejoin:miter;stroke-miterlimit:10;stroke-dasharray:none;stroke-dashoffset:0"
       id="g4979"
       transform="matrix(0.6377888,0,0,0.6377888,-463.94311,501.34444)">
      <g
         id="g4981"
         style="fill:#000000;fill-opacity:1;fill-rule:nonzero;stroke:none">
        <path
           id="path4983"
           d="M 232.71875,321.46875 L 232.71875,320.75 L 237.0625,320.75 L 237.0625,321.46875 L 232.71875,321.46875 z M 239.28613,324 L 239.28613,323.28125 L 240.73926,323.28125 L 240.73926,317.57812 L 239.28613,317.9375 L 239.28613,317.1875 L 241.70801,316.59375 L 241.70801,323.28125 L 243.14551,323.28125 L 243.14551,324 L 239.28613,324 z" />
      </g>
<!-- drawing style -->    </g>
    <g
       style="stroke-width:1;stroke-linecap:square;stroke-linejoin:miter;stroke-miterlimit:10;stroke-dasharray:none;stroke-dashoffset:0"
       id="g4985"
       transform="matrix(0.6377888,0,0,0.6377888,-463.94311,501.34444)">
      <g
         id="g4987"
         style="fill:none;stroke:#000000;stroke-linecap:butt;stroke-opacity:1">
        <path
           id="path4989"
           d="M 237.25677,310.02064 L 237.25677,314.02064" />
      </g>
<!-- drawing style -->    </g>
    <g
       style="stroke-width:1;stroke-linecap:square;stroke-linejoin:miter;stroke-miterlimit:10;stroke-dasharray:none;stroke-dashoffset:0"
       id="g4991"
       transform="matrix(0.6377888,0,0,0.6377888,-463.94311,501.34444)">
      <g
         id="g4993"
         style="fill:#000000;fill-opacity:1;fill-rule:nonzero;stroke:none">
        <path
           id="path4995"
           d="M 281.71875,321.46875 L 281.71875,320.75 L 286.0625,320.75 L 286.0625,321.46875 L 281.71875,321.46875 z M 289.92676,324.1875 C 289.17676,324.1875 288.57259,323.83594 288.11426,323.13281 C 287.65592,322.42969 287.42676,321.51042 287.42676,320.375 C 287.42676,319.23958 287.65853,318.32552 288.12207,317.63281 C 288.58561,316.9401 289.19759,316.59375 289.95801,316.59375 C 290.70801,316.59375 291.31478,316.9401 291.77832,317.63281 C 292.24186,318.32552 292.47363,319.23438 292.47363,320.35938 C 292.47363,321.52604 292.24186,322.45573 291.77832,323.14844 C 291.31478,323.84115 290.69759,324.1875 289.92676,324.1875 z M 289.92676,323.45312 C 290.94759,323.45312 291.45801,322.42187 291.45801,320.35938 C 291.45801,318.32812 290.95801,317.3125 289.95801,317.3125 C 288.94759,317.3125 288.44238,318.33333 288.44238,320.375 C 288.44238,322.42708 288.93717,323.45312 289.92676,323.45312 z M 294.09375,324 L 294.09375,322.79687 L 295.29687,322.79687 L 295.29687,324 L 294.09375,324 z M 298.57031,320.0625 C 297.86198,319.57292 297.50781,319.03125 297.50781,318.4375 C 297.50781,317.88542 297.70833,317.4401 298.10938,317.10156 C 298.51042,316.76302 299.03385,316.59375 299.67969,316.59375 C 300.27344,316.59375 300.75521,316.73698 301.125,317.02344 C 301.49479,317.3099 301.67969,317.6875 301.67969,318.15625 C 301.67969,318.85417 301.23177,319.48958 300.33594,320.0625 C 301.42969,320.59375 301.97656,321.28125 301.97656,322.125 C 301.97656,322.72917 301.7474,323.22396 301.28906,323.60938 C 300.83073,323.99479 300.24219,324.1875 299.52344,324.1875 C 298.80469,324.1875 298.22656,324.00521 297.78906,323.64063 C 297.35156,323.27604 297.13281,322.80208 297.13281,322.21875 C 297.13281,321.35417 297.61198,320.63542 298.57031,320.0625 z M 299.80469,319.76562 C 300.47135,319.31771 300.80469,318.82292 300.80469,318.28125 C 300.80469,317.98958 300.69271,317.75521 300.46875,317.57812 C 300.24479,317.40104 299.95052,317.3125 299.58594,317.3125 C 299.23177,317.3125 298.94271,317.40104 298.71875,317.57812 C 298.49479,317.75521 298.38281,317.97917 298.38281,318.25 C 298.38281,318.52083 298.48438,318.76302 298.6875,318.97656 C 298.89062,319.1901 299.26302,319.45312 299.80469,319.76562 z M 299.10156,320.45312 C 298.70573,320.75521 298.4401,321.01823 298.30469,321.24219 C 298.16927,321.46615 298.10156,321.74479 298.10156,322.07812 C 298.10156,322.48437 298.23438,322.8151 298.5,323.07031 C 298.76562,323.32552 299.11719,323.45312 299.55469,323.45312 C 299.97135,323.45312 300.3125,323.34375 300.57812,323.125 C 300.84375,322.90625 300.97656,322.625 300.97656,322.28125 C 300.97656,322 300.89583,321.76302 300.73437,321.57031 C 300.57292,321.3776 300.2526,321.14062 299.77344,320.85938 L 299.10156,320.45312 z" />
      </g>
<!-- drawing style -->    </g>
    <g
       style="stroke-width:1;stroke-linecap:square;stroke-linejoin:miter;stroke-miterlimit:10;stroke-dasharray:none;stroke-dashoffset:0"
       id="g4997"
       transform="matrix(0.6377888,0,0,0.6377888,-463.94311,501.34444)">
      <g
         id="g4999"
         style="fill:none;stroke:#000000;stroke-linecap:butt;stroke-opacity:1">
        <path
           id="path5001"
           d="M 290.92597,310.02064 L 290.92597,314.02064" />
      </g>
<!-- drawing style -->    </g>
    <g
       style="stroke-width:1;stroke-linecap:square;stroke-linejoin:miter;stroke-miterlimit:10;stroke-dasharray:none;stroke-dashoffset:0"
       id="g5003"
       transform="matrix(0.6377888,0,0,0.6377888,-463.94311,501.34444)">
      <g
         id="g5005"
         style="fill:#000000;fill-opacity:1;fill-rule:nonzero;stroke:none">
        <path
           id="path5007"
           d="M 334.71875,321.46875 L 334.71875,320.75 L 339.0625,320.75 L 339.0625,321.46875 L 334.71875,321.46875 z M 342.92676,324.1875 C 342.17676,324.1875 341.57259,323.83594 341.11426,323.13281 C 340.65592,322.42969 340.42676,321.51042 340.42676,320.375 C 340.42676,319.23958 340.65853,318.32552 341.12207,317.63281 C 341.58561,316.9401 342.19759,316.59375 342.95801,316.59375 C 343.70801,316.59375 344.31478,316.9401 344.77832,317.63281 C 345.24186,318.32552 345.47363,319.23438 345.47363,320.35938 C 345.47363,321.52604 345.24186,322.45573 344.77832,323.14844 C 344.31478,323.84115 343.69759,324.1875 342.92676,324.1875 z M 342.92676,323.45312 C 343.94759,323.45312 344.45801,322.42187 344.45801,320.35938 C 344.45801,318.32812 343.95801,317.3125 342.95801,317.3125 C 341.94759,317.3125 341.44238,318.33333 341.44238,320.375 C 341.44238,322.42708 341.93717,323.45312 342.92676,323.45312 z M 347.09375,324 L 347.09375,322.79687 L 348.29687,322.79687 L 348.29687,324 L 347.09375,324 z M 350.99219,320.25 C 351.45052,319.65625 352.02865,319.35938 352.72656,319.35938 C 353.36198,319.35938 353.88021,319.56771 354.28125,319.98437 C 354.68229,320.40104 354.88281,320.9375 354.88281,321.59375 C 354.88281,322.34375 354.65625,322.96354 354.20312,323.45312 C 353.75,323.94271 353.17969,324.1875 352.49219,324.1875 C 351.6901,324.1875 351.0651,323.86458 350.61719,323.21875 C 350.16927,322.57292 349.94531,321.68229 349.94531,320.54688 C 349.94531,319.29688 350.20312,318.32552 350.71875,317.63281 C 351.23437,316.9401 351.96094,316.59375 352.89844,316.59375 C 353.32552,316.59375 353.86198,316.68229 354.50781,316.85938 L 354.50781,317.70312 C 353.83073,317.44271 353.27344,317.3125 352.83594,317.3125 C 351.60677,317.3125 350.99219,318.29167 350.99219,320.25 z M 353.91406,321.8125 C 353.91406,321.26042 353.79167,320.82812 353.54688,320.51562 C 353.30208,320.20312 352.96094,320.04688 352.52344,320.04688 C 352.11719,320.04688 351.76823,320.1849 351.47656,320.46094 C 351.1849,320.73698 351.03906,321.06771 351.03906,321.45312 C 351.03906,322.05729 351.17708,322.54167 351.45312,322.90625 C 351.72917,323.27083 352.09635,323.45312 352.55469,323.45312 C 352.97135,323.45312 353.30208,323.30469 353.54688,323.00781 C 353.79167,322.71094 353.91406,322.3125 353.91406,321.8125 z" />
      </g>
<!-- drawing style -->    </g>
    <g
       style="stroke-width:1;stroke-linecap:square;stroke-linejoin:miter;stroke-miterlimit:10;stroke-dasharray:none;stroke-dashoffset:0"
       id="g5009"
       transform="matrix(0.6377888,0,0,0.6377888,-463.94311,501.34444)">
      <g
         id="g5011"
         style="fill:none;stroke:#000000;stroke-linecap:butt;stroke-opacity:1">
        <path
           id="path5013"
           d="M 344.59516,310.02064 L 344.59516,314.02064" />
      </g>
<!-- drawing style -->    </g>
    <g
       style="stroke-width:1;stroke-linecap:square;stroke-linejoin:miter;stroke-miterlimit:10;stroke-dasharray:none;stroke-dashoffset:0"
       id="g5015"
       transform="matrix(0.6377888,0,0,0.6377888,-463.94311,501.34444)">
      <g
         id="g5017"
         style="fill:#000000;fill-opacity:1;fill-rule:nonzero;stroke:none">
        <path
           id="path5019"
           d="M 388.71875,321.46875 L 388.71875,320.75 L 393.0625,320.75 L 393.0625,321.46875 L 388.71875,321.46875 z M 396.92676,324.1875 C 396.17676,324.1875 395.57259,323.83594 395.11426,323.13281 C 394.65592,322.42969 394.42676,321.51042 394.42676,320.375 C 394.42676,319.23958 394.65853,318.32552 395.12207,317.63281 C 395.58561,316.9401 396.19759,316.59375 396.95801,316.59375 C 397.70801,316.59375 398.31478,316.9401 398.77832,317.63281 C 399.24186,318.32552 399.47363,319.23438 399.47363,320.35938 C 399.47363,321.52604 399.24186,322.45573 398.77832,323.14844 C 398.31478,323.84115 397.69759,324.1875 396.92676,324.1875 z M 396.92676,323.45312 C 397.94759,323.45312 398.45801,322.42187 398.45801,320.35938 C 398.45801,318.32812 397.95801,317.3125 396.95801,317.3125 C 395.94759,317.3125 395.44238,318.33333 395.44238,320.375 C 395.44238,322.42708 395.93717,323.45312 396.92676,323.45312 z M 401.09375,324 L 401.09375,322.79687 L 402.29687,322.79687 L 402.29687,324 L 401.09375,324 z M 407.03906,324 L 407.03906,321.95312 L 403.78906,321.95312 L 403.78906,321.21875 L 407.03906,316.76562 L 407.94531,316.76562 L 407.94531,321.17188 L 408.91406,321.17188 L 408.91406,321.95312 L 407.94531,321.95312 L 407.94531,324 L 407.03906,324 z M 404.72656,321.17188 L 407.10156,321.17188 L 407.10156,317.95312 L 404.72656,321.17188 z" />
      </g>
<!-- drawing style -->    </g>
    <g
       style="stroke-width:1;stroke-linecap:square;stroke-linejoin:miter;stroke-miterlimit:10;stroke-dasharray:none;stroke-dashoffset:0"
       id="g5021"
       transform="matrix(0.6377888,0,0,0.6377888,-463.94311,501.34444)">
      <g
         id="g5023"
         style="fill:none;stroke:#000000;stroke-linecap:butt;stroke-opacity:1">
        <path
           id="path5025"
           d="M 398.26436,310.02064 L 398.26436,314.02064" />
      </g>
<!-- drawing style -->    </g>
    <g
       style="stroke-width:1;stroke-linecap:square;stroke-linejoin:miter;stroke-miterlimit:10;stroke-dasharray:none;stroke-dashoffset:0"
       id="g5027"
       transform="matrix(0.6377888,0,0,0.6377888,-463.94311,501.34444)">
      <g
         id="g5029"
         style="fill:#000000;fill-opacity:1;fill-rule:nonzero;stroke:none">
        <path
           id="path5031"
           d="M 442.71875,321.46875 L 442.71875,320.75 L 447.0625,320.75 L 447.0625,321.46875 L 442.71875,321.46875 z M 450.92676,324.1875 C 450.17676,324.1875 449.57259,323.83594 449.11426,323.13281 C 448.65592,322.42969 448.42676,321.51042 448.42676,320.375 C 448.42676,319.23958 448.65853,318.32552 449.12207,317.63281 C 449.58561,316.9401 450.19759,316.59375 450.95801,316.59375 C 451.70801,316.59375 452.31478,316.9401 452.77832,317.63281 C 453.24186,318.32552 453.47363,319.23438 453.47363,320.35938 C 453.47363,321.52604 453.24186,322.45573 452.77832,323.14844 C 452.31478,323.84115 451.69759,324.1875 450.92676,324.1875 z M 450.92676,323.45312 C 451.94759,323.45312 452.45801,322.42187 452.45801,320.35938 C 452.45801,318.32812 451.95801,317.3125 450.95801,317.3125 C 449.94759,317.3125 449.44238,318.33333 449.44238,320.375 C 449.44238,322.42708 449.93717,323.45312 450.92676,323.45312 z M 455.09375,324 L 455.09375,322.79687 L 456.29687,322.79687 L 456.29687,324 L 455.09375,324 z M 458.10156,324 L 458.10156,323.15625 C 458.38281,322.5 458.95052,321.78646 459.80469,321.01562 L 460.35156,320.51562 C 461.0599,319.88021 461.41406,319.24479 461.41406,318.60938 C 461.41406,318.21354 461.29427,317.89844 461.05469,317.66406 C 460.8151,317.42969 460.48177,317.3125 460.05469,317.3125 C 459.55469,317.3125 458.96615,317.50521 458.28906,317.89062 L 458.28906,317.04688 C 458.92448,316.74479 459.5599,316.59375 460.19531,316.59375 C 460.8724,316.59375 461.41667,316.77604 461.82812,317.14063 C 462.23958,317.50521 462.44531,317.98958 462.44531,318.59375 C 462.44531,319.02083 462.34115,319.40365 462.13281,319.74219 C 461.92448,320.08073 461.53906,320.48958 460.97656,320.96875 L 460.60156,321.28125 C 459.83073,321.9375 459.38802,322.5625 459.27344,323.15625 L 462.39844,323.15625 L 462.39844,324 L 458.10156,324 z" />
      </g>
<!-- drawing style -->    </g>
    <g
       style="stroke-width:1;stroke-linecap:square;stroke-linejoin:miter;stroke-miterlimit:10;stroke-dasharray:none;stroke-dashoffset:0"
       id="g5033"
       transform="matrix(0.6377888,0,0,0.6377888,-463.94311,501.34444)">
      <g
         id="g5035"
         style="fill:none;stroke:#000000;stroke-linecap:butt;stroke-opacity:1">
        <path
           id="path5037"
           d="M 451.93356,310.02064 L 451.93356,314.02064" />
      </g>
<!-- drawing style -->    </g>
    <g
       style="stroke-width:1;stroke-linecap:square;stroke-linejoin:miter;stroke-miterlimit:10;stroke-dasharray:none;stroke-dashoffset:0"
       id="g5039"
       transform="matrix(0.6377888,0,0,0.6377888,-463.94311,501.34444)">
      <g
         id="g5041"
         style="fill:#000000;fill-opacity:1;fill-rule:nonzero;stroke:none">
        <path
           id="path5043"
           d="M 514.14062,324.1875 C 513.39062,324.1875 512.78646,323.83594 512.32812,323.13281 C 511.86979,322.42969 511.64063,321.51042 511.64063,320.375 C 511.64063,319.23958 511.8724,318.32552 512.33594,317.63281 C 512.79948,316.9401 513.41146,316.59375 514.17188,316.59375 C 514.92188,316.59375 515.52865,316.9401 515.99219,317.63281 C 516.45573,318.32552 516.6875,319.23438 516.6875,320.35938 C 516.6875,321.52604 516.45573,322.45573 515.99219,323.14844 C 515.52865,323.84115 514.91146,324.1875 514.14062,324.1875 z M 514.14062,323.45312 C 515.16146,323.45312 515.67188,322.42187 515.67188,320.35938 C 515.67188,318.32812 515.17188,317.3125 514.17188,317.3125 C 513.16146,317.3125 512.65625,318.33333 512.65625,320.375 C 512.65625,322.42708 513.15104,323.45312 514.14062,323.45312 z" />
      </g>
<!-- drawing style -->    </g>
    <g
       style="stroke-width:1;stroke-linecap:square;stroke-linejoin:miter;stroke-miterlimit:10;stroke-dasharray:none;stroke-dashoffset:0"
       id="g5045"
       transform="matrix(0.6377888,0,0,0.6377888,-463.94311,501.34444)">
      <g
         id="g5047"
         style="fill:none;stroke:#000000;stroke-linecap:butt;stroke-opacity:1">
        <path
           id="path5049"
           d="M 505.60276,310.02064 L 505.60276,314.02064" />
      </g>
<!-- drawing style -->    </g>
    <g
       style="stroke-width:1;stroke-linecap:square;stroke-linejoin:miter;stroke-miterlimit:10;stroke-dasharray:none;stroke-dashoffset:0"
       id="g5051"
       transform="matrix(0.6377888,0,0,0.6377888,-463.94311,501.34444)">
      <g
         id="g5053"
         style="fill:#000000;fill-opacity:1;fill-rule:nonzero;stroke:none">
        <path
           id="path5055"
           d="M 555.14062,324.1875 C 554.39062,324.1875 553.78646,323.83594 553.32812,323.13281 C 552.86979,322.42969 552.64062,321.51042 552.64062,320.375 C 552.64062,319.23958 552.8724,318.32552 553.33594,317.63281 C 553.79948,316.9401 554.41146,316.59375 555.17188,316.59375 C 555.92188,316.59375 556.52865,316.9401 556.99219,317.63281 C 557.45573,318.32552 557.6875,319.23438 557.6875,320.35938 C 557.6875,321.52604 557.45573,322.45573 556.99219,323.14844 C 556.52865,323.84115 555.91146,324.1875 555.14062,324.1875 z M 555.14062,323.45312 C 556.16146,323.45312 556.67188,322.42187 556.67188,320.35938 C 556.67188,318.32812 556.17188,317.3125 555.17188,317.3125 C 554.16146,317.3125 553.65625,318.33333 553.65625,320.375 C 553.65625,322.42708 554.15104,323.45312 555.14062,323.45312 z M 559.30762,324 L 559.30762,322.79687 L 560.51074,322.79687 L 560.51074,324 L 559.30762,324 z M 562.31543,324 L 562.31543,323.15625 C 562.59668,322.5 563.16439,321.78646 564.01855,321.01562 L 564.56543,320.51562 C 565.27376,319.88021 565.62793,319.24479 565.62793,318.60938 C 565.62793,318.21354 565.50814,317.89844 565.26855,317.66406 C 565.02897,317.42969 564.69564,317.3125 564.26855,317.3125 C 563.76855,317.3125 563.18001,317.50521 562.50293,317.89062 L 562.50293,317.04688 C 563.13835,316.74479 563.77376,316.59375 564.40918,316.59375 C 565.08626,316.59375 565.63053,316.77604 566.04199,317.14063 C 566.45345,317.50521 566.65918,317.98958 566.65918,318.59375 C 566.65918,319.02083 566.55501,319.40365 566.34668,319.74219 C 566.13835,320.08073 565.75293,320.48958 565.19043,320.96875 L 564.81543,321.28125 C 564.0446,321.9375 563.60189,322.5625 563.4873,323.15625 L 566.6123,323.15625 L 566.6123,324 L 562.31543,324 z" />
      </g>
<!-- drawing style -->    </g>
    <g
       style="stroke-width:1;stroke-linecap:square;stroke-linejoin:miter;stroke-miterlimit:10;stroke-dasharray:none;stroke-dashoffset:0"
       id="g5057"
       transform="matrix(0.6377888,0,0,0.6377888,-463.94311,501.34444)">
      <g
         id="g5059"
         style="fill:none;stroke:#000000;stroke-linecap:butt;stroke-opacity:1">
        <path
           id="path5061"
           d="M 559.27195,310.02064 L 559.27195,314.02064" />
      </g>
<!-- drawing style -->    </g>
    <g
       style="stroke-width:1;stroke-linecap:square;stroke-linejoin:miter;stroke-miterlimit:10;stroke-dasharray:none;stroke-dashoffset:0"
       id="g5063"
       transform="matrix(0.6377888,0,0,0.6377888,-463.94311,501.34444)">
      <g
         id="g5065"
         style="fill:#000000;fill-opacity:1;fill-rule:nonzero;stroke:none">
        <path
           id="path5067"
           d="M 609.14062,324.1875 C 608.39062,324.1875 607.78646,323.83594 607.32812,323.13281 C 606.86979,322.42969 606.64062,321.51042 606.64062,320.375 C 606.64062,319.23958 606.8724,318.32552 607.33594,317.63281 C 607.79948,316.9401 608.41146,316.59375 609.17188,316.59375 C 609.92188,316.59375 610.52865,316.9401 610.99219,317.63281 C 611.45573,318.32552 611.6875,319.23438 611.6875,320.35938 C 611.6875,321.52604 611.45573,322.45573 610.99219,323.14844 C 610.52865,323.84115 609.91146,324.1875 609.14062,324.1875 z M 609.14062,323.45312 C 610.16146,323.45312 610.67188,322.42187 610.67188,320.35938 C 610.67188,318.32812 610.17188,317.3125 609.17188,317.3125 C 608.16146,317.3125 607.65625,318.33333 607.65625,320.375 C 607.65625,322.42708 608.15104,323.45312 609.14062,323.45312 z M 613.30762,324 L 613.30762,322.79687 L 614.51074,322.79687 L 614.51074,324 L 613.30762,324 z M 619.25293,324 L 619.25293,321.95312 L 616.00293,321.95312 L 616.00293,321.21875 L 619.25293,316.76562 L 620.15918,316.76562 L 620.15918,321.17188 L 621.12793,321.17188 L 621.12793,321.95312 L 620.15918,321.95312 L 620.15918,324 L 619.25293,324 z M 616.94043,321.17188 L 619.31543,321.17188 L 619.31543,317.95312 L 616.94043,321.17188 z" />
      </g>
<!-- drawing style -->    </g>
    <g
       style="stroke-width:1;stroke-linecap:square;stroke-linejoin:miter;stroke-miterlimit:10;stroke-dasharray:none;stroke-dashoffset:0"
       id="g5069"
       transform="matrix(0.6377888,0,0,0.6377888,-463.94311,501.34444)">
      <g
         id="g5071"
         style="fill:none;stroke:#000000;stroke-linecap:butt;stroke-opacity:1">
        <path
           id="path5073"
           d="M 612.94115,310.02064 L 612.94115,314.02064" />
      </g>
<!-- drawing style -->    </g>
    <g
       style="stroke-width:1;stroke-linecap:square;stroke-linejoin:miter;stroke-miterlimit:10;stroke-dasharray:none;stroke-dashoffset:0"
       id="g5075"
       transform="matrix(0.6377888,0,0,0.6377888,-463.94311,501.34444)">
      <g
         id="g5077"
         style="fill:#000000;fill-opacity:1;fill-rule:nonzero;stroke:none">
        <path
           id="path5079"
           d="M 662.14062,324.1875 C 661.39062,324.1875 660.78646,323.83594 660.32812,323.13281 C 659.86979,322.42969 659.64062,321.51042 659.64062,320.375 C 659.64062,319.23958 659.8724,318.32552 660.33594,317.63281 C 660.79948,316.9401 661.41146,316.59375 662.17188,316.59375 C 662.92188,316.59375 663.52865,316.9401 663.99219,317.63281 C 664.45573,318.32552 664.6875,319.23438 664.6875,320.35938 C 664.6875,321.52604 664.45573,322.45573 663.99219,323.14844 C 663.52865,323.84115 662.91146,324.1875 662.14062,324.1875 z M 662.14062,323.45312 C 663.16146,323.45312 663.67188,322.42187 663.67188,320.35938 C 663.67188,318.32812 663.17188,317.3125 662.17188,317.3125 C 661.16146,317.3125 660.65625,318.33333 660.65625,320.375 C 660.65625,322.42708 661.15104,323.45312 662.14062,323.45312 z M 666.30762,324 L 666.30762,322.79687 L 667.51074,322.79687 L 667.51074,324 L 666.30762,324 z M 670.20605,320.25 C 670.66439,319.65625 671.24251,319.35938 671.94043,319.35938 C 672.57585,319.35938 673.09408,319.56771 673.49512,319.98437 C 673.89616,320.40104 674.09668,320.9375 674.09668,321.59375 C 674.09668,322.34375 673.87012,322.96354 673.41699,323.45312 C 672.96387,323.94271 672.39355,324.1875 671.70605,324.1875 C 670.90397,324.1875 670.27897,323.86458 669.83105,323.21875 C 669.38314,322.57292 669.15918,321.68229 669.15918,320.54688 C 669.15918,319.29688 669.41699,318.32552 669.93262,317.63281 C 670.44824,316.9401 671.1748,316.59375 672.1123,316.59375 C 672.53939,316.59375 673.07585,316.68229 673.72168,316.85938 L 673.72168,317.70312 C 673.0446,317.44271 672.4873,317.3125 672.0498,317.3125 C 670.82064,317.3125 670.20605,318.29167 670.20605,320.25 z M 673.12793,321.8125 C 673.12793,321.26042 673.00553,320.82812 672.76074,320.51562 C 672.51595,320.20312 672.1748,320.04688 671.7373,320.04688 C 671.33105,320.04688 670.9821,320.1849 670.69043,320.46094 C 670.39876,320.73698 670.25293,321.06771 670.25293,321.45312 C 670.25293,322.05729 670.39095,322.54167 670.66699,322.90625 C 670.94303,323.27083 671.31022,323.45312 671.76855,323.45312 C 672.18522,323.45312 672.51595,323.30469 672.76074,323.00781 C 673.00553,322.71094 673.12793,322.3125 673.12793,321.8125 z" />
      </g>
<!-- drawing style -->    </g>
    <g
       style="stroke-width:1;stroke-linecap:square;stroke-linejoin:miter;stroke-miterlimit:10;stroke-dasharray:none;stroke-dashoffset:0"
       id="g5081"
       transform="matrix(0.6377888,0,0,0.6377888,-463.94311,501.34444)">
      <g
         id="g5083"
         style="fill:none;stroke:#000000;stroke-linecap:butt;stroke-opacity:1">
        <path
           id="path5085"
           d="M 666.61035,310.02064 L 666.61035,314.02064" />
      </g>
<!-- drawing style -->    </g>
    <g
       style="stroke-width:1;stroke-linecap:square;stroke-linejoin:miter;stroke-miterlimit:10;stroke-dasharray:none;stroke-dashoffset:0"
       id="g5087"
       transform="matrix(0.6377888,0,0,0.6377888,-463.94311,501.34444)">
      <g
         id="g5089"
         style="fill:#000000;fill-opacity:1;fill-rule:nonzero;stroke:none">
        <path
           id="path5091"
           d="M 716.14062,324.1875 C 715.39062,324.1875 714.78646,323.83594 714.32812,323.13281 C 713.86979,322.42969 713.64062,321.51042 713.64062,320.375 C 713.64062,319.23958 713.8724,318.32552 714.33594,317.63281 C 714.79948,316.9401 715.41146,316.59375 716.17188,316.59375 C 716.92188,316.59375 717.52865,316.9401 717.99219,317.63281 C 718.45573,318.32552 718.6875,319.23438 718.6875,320.35938 C 718.6875,321.52604 718.45573,322.45573 717.99219,323.14844 C 717.52865,323.84115 716.91146,324.1875 716.14062,324.1875 z M 716.14062,323.45312 C 717.16146,323.45312 717.67188,322.42187 717.67188,320.35938 C 717.67188,318.32812 717.17188,317.3125 716.17188,317.3125 C 715.16146,317.3125 714.65625,318.33333 714.65625,320.375 C 714.65625,322.42708 715.15104,323.45312 716.14062,323.45312 z M 720.30762,324 L 720.30762,322.79687 L 721.51074,322.79687 L 721.51074,324 L 720.30762,324 z M 724.78418,320.0625 C 724.07585,319.57292 723.72168,319.03125 723.72168,318.4375 C 723.72168,317.88542 723.9222,317.4401 724.32324,317.10156 C 724.72428,316.76302 725.24772,316.59375 725.89355,316.59375 C 726.4873,316.59375 726.96908,316.73698 727.33887,317.02344 C 727.70866,317.3099 727.89355,317.6875 727.89355,318.15625 C 727.89355,318.85417 727.44564,319.48958 726.5498,320.0625 C 727.64355,320.59375 728.19043,321.28125 728.19043,322.125 C 728.19043,322.72917 727.96126,323.22396 727.50293,323.60938 C 727.0446,323.99479 726.45605,324.1875 725.7373,324.1875 C 725.01855,324.1875 724.44043,324.00521 724.00293,323.64063 C 723.56543,323.27604 723.34668,322.80208 723.34668,322.21875 C 723.34668,321.35417 723.82585,320.63542 724.78418,320.0625 z M 726.01855,319.76562 C 726.68522,319.31771 727.01855,318.82292 727.01855,318.28125 C 727.01855,317.98958 726.90658,317.75521 726.68262,317.57812 C 726.45866,317.40104 726.16439,317.3125 725.7998,317.3125 C 725.44564,317.3125 725.15658,317.40104 724.93262,317.57812 C 724.70866,317.75521 724.59668,317.97917 724.59668,318.25 C 724.59668,318.52083 724.69824,318.76302 724.90137,318.97656 C 725.10449,319.1901 725.47689,319.45312 726.01855,319.76562 z M 725.31543,320.45312 C 724.9196,320.75521 724.65397,321.01823 724.51855,321.24219 C 724.38314,321.46615 724.31543,321.74479 724.31543,322.07812 C 724.31543,322.48437 724.44824,322.8151 724.71387,323.07031 C 724.97949,323.32552 725.33105,323.45312 725.76855,323.45312 C 726.18522,323.45312 726.52637,323.34375 726.79199,323.125 C 727.05762,322.90625 727.19043,322.625 727.19043,322.28125 C 727.19043,322 727.1097,321.76302 726.94824,321.57031 C 726.78678,321.3776 726.46647,321.14062 725.9873,320.85938 L 725.31543,320.45312 z" />
      </g>
<!-- drawing style -->    </g>
    <g
       style="stroke-width:1;stroke-linecap:square;stroke-linejoin:miter;stroke-miterlimit:10;stroke-dasharray:none;stroke-dashoffset:0"
       id="g5093"
       transform="matrix(0.6377888,0,0,0.6377888,-463.94311,501.34444)">
      <g
         id="g5095"
         style="fill:none;stroke:#000000;stroke-linecap:butt;stroke-opacity:1">
        <path
           id="path5097"
           d="M 720.27954,310.02064 L 720.27954,314.02064" />
      </g>
<!-- drawing style -->    </g>
    <g
       style="stroke-width:1;stroke-linecap:square;stroke-linejoin:miter;stroke-miterlimit:10;stroke-dasharray:none;stroke-dashoffset:0"
       id="g5099"
       transform="matrix(0.6377888,0,0,0.6377888,-463.94311,501.34444)">
      <g
         id="g5101"
         style="fill:#000000;fill-opacity:1;fill-rule:nonzero;stroke:none">
        <path
           id="path5103"
           d="M 772.5,324 L 772.5,323.28125 L 773.95312,323.28125 L 773.95312,317.57812 L 772.5,317.9375 L 772.5,317.1875 L 774.92188,316.59375 L 774.92188,323.28125 L 776.35938,323.28125 L 776.35938,324 L 772.5,324 z" />
      </g>
<!-- drawing style -->    </g>
    <g
       style="stroke-width:1;stroke-linecap:square;stroke-linejoin:miter;stroke-miterlimit:10;stroke-dasharray:none;stroke-dashoffset:0"
       id="g5105"
       transform="matrix(0.6377888,0,0,0.6377888,-463.94311,501.34444)">
      <g
         id="g5107"
         style="fill:none;stroke:#000000;stroke-linecap:butt;stroke-opacity:1">
        <path
           id="path5109"
           d="M 773.94874,310.02064 L 773.94874,314.02064" />
      </g>
<!-- drawing style -->    </g>
    <g
       style="stroke-width:1;stroke-linecap:square;stroke-linejoin:miter;stroke-miterlimit:10;stroke-dasharray:none;stroke-dashoffset:0"
       id="g5159"
       transform="matrix(0.6377888,0,0,0.6377888,-463.94311,501.34444)">
      <g
         id="g5161"
         style="fill:none;stroke:#000000;stroke-linecap:butt;stroke-opacity:1">
        <path
           id="path5163"
           d="M 191.95171,310.02064 L 805.31791,310.02064"
           sodipodi:nodetypes="cc" />
      </g>
<!-- drawing style -->    </g>
    <g
       style="stroke-width:1;stroke-linecap:square;stroke-linejoin:miter;stroke-miterlimit:10;stroke-dasharray:none;stroke-dashoffset:0"
       id="g5165"
       transform="matrix(0.6377888,0,0,0.6377888,-599.17912,501.34444)">
      <g
         id="g5167"
         style="fill:none;stroke:#000000;stroke-linecap:butt;stroke-opacity:1">
        <path
           id="path5169"
           d="M 1018,310.02064 L 1015,307.02064" />
      </g>
<!-- drawing style -->    </g>
    <g
       style="stroke-width:1;stroke-linecap:square;stroke-linejoin:miter;stroke-miterlimit:10;stroke-dasharray:none;stroke-dashoffset:0"
       id="g5171"
       transform="matrix(0.6377888,0,0,0.6377888,-599.17912,501.34444)">
      <g
         id="g5173"
         style="fill:none;stroke:#000000;stroke-linecap:butt;stroke-opacity:1">
        <path
           id="path5175"
           d="M 1018,310.02064 L 1015,313.02064" />
      </g>
<!-- drawing style -->    </g>
    <g
       style="stroke-width:1;stroke-linecap:square;stroke-linejoin:miter;stroke-miterlimit:10;stroke-dasharray:none;stroke-dashoffset:0"
       id="g5177"
       transform="matrix(0.6377888,0,0,0.6377888,-463.94311,501.34444)">
      <g
         id="g5179"
         style="fill:#000000;fill-opacity:1;fill-rule:nonzero;stroke:none">
        <path
           id="path5181"
           d="M 494.5,45 L 494.5,44.28125 L 495.95312,44.28125 L 495.95312,38.578125 L 494.5,38.9375 L 494.5,38.1875 L 496.92187,37.59375 L 496.92187,44.28125 L 498.35938,44.28125 L 498.35938,45 L 494.5,45 z" />
      </g>
<!-- drawing style -->    </g>
    <g
       style="stroke-width:1;stroke-linecap:square;stroke-linejoin:miter;stroke-miterlimit:10;stroke-dasharray:none;stroke-dashoffset:0"
       id="g5183"
       transform="matrix(0.6377888,0,0,0.6377888,-463.94311,501.34444)">
      <g
         id="g5185"
         style="fill:none;stroke:#000000;stroke-linecap:butt;stroke-opacity:1">
        <path
           id="path5187"
           d="M 501.60276,41.674657 L 505.60276,41.674657" />
      </g>
<!-- drawing style -->    </g>
    <g
       style="stroke-width:1;stroke-linecap:square;stroke-linejoin:miter;stroke-miterlimit:10;stroke-dasharray:none;stroke-dashoffset:0"
       id="g5189"
       transform="matrix(0.6377888,0,0,0.6377888,-463.94311,501.34444)">
      <g
         id="g5191"
         style="fill:#000000;fill-opacity:1;fill-rule:nonzero;stroke:none">
        <path
           id="path5193"
           d="M 486.14063,99.1875 C 485.39062,99.1875 484.78646,98.835937 484.32812,98.132812 C 483.86979,97.429687 483.64063,96.510417 483.64063,95.375 C 483.64063,94.239583 483.8724,93.325521 484.33594,92.632812 C 484.79948,91.940104 485.41146,91.59375 486.17188,91.59375 C 486.92187,91.59375 487.52865,91.940104 487.99219,92.632812 C 488.45573,93.325521 488.6875,94.234375 488.6875,95.359375 C 488.6875,96.526042 488.45573,97.455729 487.99219,98.148437 C 487.52865,98.841146 486.91146,99.1875 486.14063,99.1875 z M 486.14063,98.453125 C 487.16146,98.453125 487.67188,97.421875 487.67188,95.359375 C 487.67188,93.328125 487.17188,92.3125 486.17188,92.3125 C 485.16146,92.3125 484.65625,93.333333 484.65625,95.375 C 484.65625,97.427083 485.15104,98.453125 486.14063,98.453125 z M 490.30762,99 L 490.30762,97.796875 L 491.51074,97.796875 L 491.51074,99 L 490.30762,99 z M 494.78418,95.0625 C 494.07585,94.572917 493.72168,94.03125 493.72168,93.4375 C 493.72168,92.885417 493.9222,92.440104 494.32324,92.101562 C 494.72428,91.763021 495.24772,91.59375 495.89355,91.59375 C 496.4873,91.59375 496.96908,91.736979 497.33887,92.023437 C 497.70866,92.309896 497.89355,92.6875 497.89355,93.15625 C 497.89355,93.854167 497.44564,94.489583 496.5498,95.0625 C 497.64355,95.59375 498.19043,96.28125 498.19043,97.125 C 498.19043,97.729167 497.96126,98.223958 497.50293,98.609375 C 497.0446,98.994792 496.45605,99.1875 495.7373,99.1875 C 495.01855,99.1875 494.44043,99.005208 494.00293,98.640625 C 493.56543,98.276042 493.34668,97.802083 493.34668,97.21875 C 493.34668,96.354167 493.82585,95.635417 494.78418,95.0625 z M 496.01855,94.765625 C 496.68522,94.317708 497.01855,93.822917 497.01855,93.28125 C 497.01855,92.989583 496.90658,92.755208 496.68262,92.578125 C 496.45866,92.401042 496.16439,92.3125 495.7998,92.3125 C 495.44564,92.3125 495.15658,92.401042 494.93262,92.578125 C 494.70866,92.755208 494.59668,92.979167 494.59668,93.25 C 494.59668,93.520833 494.69824,93.763021 494.90137,93.976562 C 495.10449,94.190104 495.47689,94.453125 496.01855,94.765625 z M 495.31543,95.453125 C 494.9196,95.755208 494.65397,96.018229 494.51855,96.242188 C 494.38314,96.466146 494.31543,96.744792 494.31543,97.078125 C 494.31543,97.484375 494.44824,97.815104 494.71387,98.070312 C 494.97949,98.325521 495.33105,98.453125 495.76855,98.453125 C 496.18522,98.453125 496.52637,98.34375 496.79199,98.125 C 497.05762,97.90625 497.19043,97.625 497.19043,97.28125 C 497.19043,97 497.1097,96.763021 496.94824,96.570312 C 496.78678,96.377604 496.46647,96.140625 495.9873,95.859375 L 495.31543,95.453125 z" />
      </g>
<!-- drawing style -->    </g>
    <g
       style="stroke-width:1;stroke-linecap:square;stroke-linejoin:miter;stroke-miterlimit:10;stroke-dasharray:none;stroke-dashoffset:0"
       id="g5195"
       transform="matrix(0.6377888,0,0,0.6377888,-463.94311,501.34444)">
      <g
         id="g5197"
         style="fill:none;stroke:#000000;stroke-linecap:butt;stroke-opacity:1">
        <path
           id="path5199"
           d="M 501.60276,95.343854 L 505.60276,95.343854" />
      </g>
<!-- drawing style -->    </g>
    <g
       style="stroke-width:1;stroke-linecap:square;stroke-linejoin:miter;stroke-miterlimit:10;stroke-dasharray:none;stroke-dashoffset:0"
       id="g5201"
       transform="matrix(0.6377888,0,0,0.6377888,-463.94311,501.34444)">
      <g
         id="g5203"
         style="fill:#000000;fill-opacity:1;fill-rule:nonzero;stroke:none">
        <path
           id="path5205"
           d="M 486.14063,153.1875 C 485.39062,153.1875 484.78646,152.83594 484.32812,152.13281 C 483.86979,151.42969 483.64063,150.51042 483.64063,149.375 C 483.64063,148.23958 483.8724,147.32552 484.33594,146.63281 C 484.79948,145.9401 485.41146,145.59375 486.17188,145.59375 C 486.92187,145.59375 487.52865,145.9401 487.99219,146.63281 C 488.45573,147.32552 488.6875,148.23437 488.6875,149.35938 C 488.6875,150.52604 488.45573,151.45573 487.99219,152.14844 C 487.52865,152.84115 486.91146,153.1875 486.14063,153.1875 z M 486.14063,152.45312 C 487.16146,152.45312 487.67188,151.42188 487.67188,149.35938 C 487.67188,147.32812 487.17188,146.3125 486.17188,146.3125 C 485.16146,146.3125 484.65625,147.33333 484.65625,149.375 C 484.65625,151.42708 485.15104,152.45312 486.14063,152.45312 z M 490.30762,153 L 490.30762,151.79687 L 491.51074,151.79687 L 491.51074,153 L 490.30762,153 z M 494.20605,149.25 C 494.66439,148.65625 495.24251,148.35938 495.94043,148.35938 C 496.57585,148.35938 497.09408,148.56771 497.49512,148.98438 C 497.89616,149.40104 498.09668,149.9375 498.09668,150.59375 C 498.09668,151.34375 497.87012,151.96354 497.41699,152.45312 C 496.96387,152.94271 496.39355,153.1875 495.70605,153.1875 C 494.90397,153.1875 494.27897,152.86458 493.83105,152.21875 C 493.38314,151.57292 493.15918,150.68229 493.15918,149.54687 C 493.15918,148.29687 493.41699,147.32552 493.93262,146.63281 C 494.44824,145.9401 495.1748,145.59375 496.1123,145.59375 C 496.53939,145.59375 497.07585,145.68229 497.72168,145.85938 L 497.72168,146.70312 C 497.0446,146.44271 496.4873,146.3125 496.0498,146.3125 C 494.82064,146.3125 494.20605,147.29167 494.20605,149.25 z M 497.12793,150.8125 C 497.12793,150.26042 497.00553,149.82812 496.76074,149.51562 C 496.51595,149.20312 496.1748,149.04687 495.7373,149.04687 C 495.33105,149.04687 494.9821,149.1849 494.69043,149.46094 C 494.39876,149.73698 494.25293,150.06771 494.25293,150.45312 C 494.25293,151.05729 494.39095,151.54167 494.66699,151.90625 C 494.94303,152.27083 495.31022,152.45312 495.76855,152.45312 C 496.18522,152.45312 496.51595,152.30469 496.76074,152.00781 C 497.00553,151.71094 497.12793,151.3125 497.12793,150.8125 z" />
      </g>
<!-- drawing style -->    </g>
    <g
       style="stroke-width:1;stroke-linecap:square;stroke-linejoin:miter;stroke-miterlimit:10;stroke-dasharray:none;stroke-dashoffset:0"
       id="g5207"
       transform="matrix(0.6377888,0,0,0.6377888,-463.94311,501.34444)">
      <g
         id="g5209"
         style="fill:none;stroke:#000000;stroke-linecap:butt;stroke-opacity:1">
        <path
           id="path5211"
           d="M 501.60276,149.01305 L 505.60276,149.01305" />
      </g>
<!-- drawing style -->    </g>
    <g
       style="stroke-width:1;stroke-linecap:square;stroke-linejoin:miter;stroke-miterlimit:10;stroke-dasharray:none;stroke-dashoffset:0"
       id="g5213"
       transform="matrix(0.6377888,0,0,0.6377888,-463.94311,501.34444)">
      <g
         id="g5215"
         style="fill:#000000;fill-opacity:1;fill-rule:nonzero;stroke:none">
        <path
           id="path5217"
           d="M 486.14063,206.1875 C 485.39062,206.1875 484.78646,205.83594 484.32812,205.13281 C 483.86979,204.42969 483.64063,203.51042 483.64063,202.375 C 483.64063,201.23958 483.8724,200.32552 484.33594,199.63281 C 484.79948,198.9401 485.41146,198.59375 486.17188,198.59375 C 486.92187,198.59375 487.52865,198.9401 487.99219,199.63281 C 488.45573,200.32552 488.6875,201.23437 488.6875,202.35938 C 488.6875,203.52604 488.45573,204.45573 487.99219,205.14844 C 487.52865,205.84115 486.91146,206.1875 486.14063,206.1875 z M 486.14063,205.45312 C 487.16146,205.45312 487.67188,204.42188 487.67188,202.35938 C 487.67188,200.32812 487.17188,199.3125 486.17188,199.3125 C 485.16146,199.3125 484.65625,200.33333 484.65625,202.375 C 484.65625,204.42708 485.15104,205.45312 486.14063,205.45312 z M 490.30762,206 L 490.30762,204.79687 L 491.51074,204.79687 L 491.51074,206 L 490.30762,206 z M 496.25293,206 L 496.25293,203.95312 L 493.00293,203.95312 L 493.00293,203.21875 L 496.25293,198.76562 L 497.15918,198.76562 L 497.15918,203.17187 L 498.12793,203.17187 L 498.12793,203.95312 L 497.15918,203.95312 L 497.15918,206 L 496.25293,206 z M 493.94043,203.17187 L 496.31543,203.17187 L 496.31543,199.95312 L 493.94043,203.17187 z" />
      </g>
<!-- drawing style -->    </g>
    <g
       style="stroke-width:1;stroke-linecap:square;stroke-linejoin:miter;stroke-miterlimit:10;stroke-dasharray:none;stroke-dashoffset:0"
       id="g5219"
       transform="matrix(0.6377888,0,0,0.6377888,-463.94311,501.34444)">
      <g
         id="g5221"
         style="fill:none;stroke:#000000;stroke-linecap:butt;stroke-opacity:1">
        <path
           id="path5223"
           d="M 501.60276,202.68225 L 505.60276,202.68225" />
      </g>
<!-- drawing style -->    </g>
    <g
       style="stroke-width:1;stroke-linecap:square;stroke-linejoin:miter;stroke-miterlimit:10;stroke-dasharray:none;stroke-dashoffset:0"
       id="g5225"
       transform="matrix(0.6377888,0,0,0.6377888,-463.94311,501.34444)">
      <g
         id="g5227"
         style="fill:#000000;fill-opacity:1;fill-rule:nonzero;stroke:none">
        <path
           id="path5229"
           d="M 486.14063,260.1875 C 485.39062,260.1875 484.78646,259.83594 484.32812,259.13281 C 483.86979,258.42969 483.64063,257.51042 483.64063,256.375 C 483.64063,255.23958 483.8724,254.32552 484.33594,253.63281 C 484.79948,252.9401 485.41146,252.59375 486.17188,252.59375 C 486.92187,252.59375 487.52865,252.9401 487.99219,253.63281 C 488.45573,254.32552 488.6875,255.23437 488.6875,256.35938 C 488.6875,257.52604 488.45573,258.45573 487.99219,259.14844 C 487.52865,259.84115 486.91146,260.1875 486.14063,260.1875 z M 486.14063,259.45312 C 487.16146,259.45312 487.67188,258.42187 487.67188,256.35938 C 487.67188,254.32812 487.17188,253.3125 486.17188,253.3125 C 485.16146,253.3125 484.65625,254.33333 484.65625,256.375 C 484.65625,258.42708 485.15104,259.45312 486.14063,259.45312 z M 490.30762,260 L 490.30762,258.79687 L 491.51074,258.79687 L 491.51074,260 L 490.30762,260 z M 493.31543,260 L 493.31543,259.15625 C 493.59668,258.5 494.16439,257.78646 495.01855,257.01562 L 495.56543,256.51562 C 496.27376,255.88021 496.62793,255.24479 496.62793,254.60937 C 496.62793,254.21354 496.50814,253.89844 496.26855,253.66406 C 496.02897,253.42969 495.69564,253.3125 495.26855,253.3125 C 494.76855,253.3125 494.18001,253.50521 493.50293,253.89062 L 493.50293,253.04687 C 494.13835,252.74479 494.77376,252.59375 495.40918,252.59375 C 496.08626,252.59375 496.63053,252.77604 497.04199,253.14062 C 497.45345,253.50521 497.65918,253.98958 497.65918,254.59375 C 497.65918,255.02083 497.55501,255.40365 497.34668,255.74219 C 497.13835,256.08073 496.75293,256.48958 496.19043,256.96875 L 495.81543,257.28125 C 495.0446,257.9375 494.60189,258.5625 494.4873,259.15625 L 497.6123,259.15625 L 497.6123,260 L 493.31543,260 z" />
      </g>
<!-- drawing style -->    </g>
    <g
       style="stroke-width:1;stroke-linecap:square;stroke-linejoin:miter;stroke-miterlimit:10;stroke-dasharray:none;stroke-dashoffset:0"
       id="g5231"
       transform="matrix(0.6377888,0,0,0.6377888,-463.94311,501.34444)">
      <g
         id="g5233"
         style="fill:none;stroke:#000000;stroke-linecap:butt;stroke-opacity:1">
        <path
           id="path5235"
           d="M 501.60276,256.35145 L 505.60276,256.35145" />
      </g>
<!-- drawing style -->    </g>
    <g
       style="stroke-width:1;stroke-linecap:square;stroke-linejoin:miter;stroke-miterlimit:10;stroke-dasharray:none;stroke-dashoffset:0"
       id="g5237"
       transform="matrix(0.6377888,0,0,0.6377888,-463.94311,501.34444)">
      <g
         id="g5239"
         style="fill:#000000;fill-opacity:1;fill-rule:nonzero;stroke:none">
        <path
           id="path5241"
           d="M 496.14063,308.1875 C 495.39062,308.1875 494.78646,307.83594 494.32812,307.13281 C 493.86979,306.42969 493.64063,305.51042 493.64063,304.375 C 493.64063,303.23958 493.8724,302.32552 494.33594,301.63281 C 494.79948,300.9401 495.41146,300.59375 496.17188,300.59375 C 496.92187,300.59375 497.52865,300.9401 497.99219,301.63281 C 498.45573,302.32552 498.6875,303.23438 498.6875,304.35938 C 498.6875,305.52604 498.45573,306.45573 497.99219,307.14844 C 497.52865,307.84115 496.91146,308.1875 496.14063,308.1875 z M 496.14063,307.45312 C 497.16146,307.45312 497.67188,306.42187 497.67188,304.35938 C 497.67188,302.32812 497.17188,301.3125 496.17188,301.3125 C 495.16146,301.3125 494.65625,302.33333 494.65625,304.375 C 494.65625,306.42708 495.15104,307.45312 496.14063,307.45312 z" />
      </g>
<!-- drawing style -->    </g>
    <g
       style="stroke-width:1;stroke-linecap:square;stroke-linejoin:miter;stroke-miterlimit:10;stroke-dasharray:none;stroke-dashoffset:0"
       id="g5243"
       transform="matrix(0.6377888,0,0,0.6377888,-463.94311,501.34444)">
      <g
         id="g5245"
         style="fill:none;stroke:#000000;stroke-linecap:butt;stroke-opacity:1">
        <path
           id="path5247"
           d="M 501.60276,310.02064 L 505.60276,310.02064" />
      </g>
<!-- drawing style -->    </g>
    <g
       style="stroke-width:1;stroke-linecap:square;stroke-linejoin:miter;stroke-miterlimit:10;stroke-dasharray:none;stroke-dashoffset:0"
       id="g5249"
       transform="matrix(0.6377888,0,0,0.6377888,-463.94311,501.34444)">
      <g
         id="g5251"
         style="fill:#000000;fill-opacity:1;fill-rule:nonzero;stroke:none">
        <path
           id="path5253"
           d="M 478.71875,364.46875 L 478.71875,363.75 L 483.0625,363.75 L 483.0625,364.46875 L 478.71875,364.46875 z M 486.92676,367.1875 C 486.17676,367.1875 485.57259,366.83594 485.11426,366.13281 C 484.65592,365.42969 484.42676,364.51042 484.42676,363.375 C 484.42676,362.23958 484.65853,361.32552 485.12207,360.63281 C 485.58561,359.9401 486.19759,359.59375 486.95801,359.59375 C 487.70801,359.59375 488.31478,359.9401 488.77832,360.63281 C 489.24186,361.32552 489.47363,362.23438 489.47363,363.35938 C 489.47363,364.52604 489.24186,365.45573 488.77832,366.14844 C 488.31478,366.84115 487.69759,367.1875 486.92676,367.1875 z M 486.92676,366.45312 C 487.94759,366.45312 488.45801,365.42187 488.45801,363.35938 C 488.45801,361.32812 487.95801,360.3125 486.95801,360.3125 C 485.94759,360.3125 485.44238,361.33333 485.44238,363.375 C 485.44238,365.42708 485.93717,366.45312 486.92676,366.45312 z M 491.09375,367 L 491.09375,365.79687 L 492.29687,365.79687 L 492.29687,367 L 491.09375,367 z M 494.10156,367 L 494.10156,366.15625 C 494.38281,365.5 494.95052,364.78646 495.80469,364.01562 L 496.35156,363.51562 C 497.0599,362.88021 497.41406,362.24479 497.41406,361.60938 C 497.41406,361.21354 497.29427,360.89844 497.05469,360.66406 C 496.8151,360.42969 496.48177,360.3125 496.05469,360.3125 C 495.55469,360.3125 494.96615,360.50521 494.28906,360.89062 L 494.28906,360.04688 C 494.92448,359.74479 495.5599,359.59375 496.19531,359.59375 C 496.8724,359.59375 497.41667,359.77604 497.82812,360.14063 C 498.23958,360.50521 498.44531,360.98958 498.44531,361.59375 C 498.44531,362.02083 498.34115,362.40365 498.13281,362.74219 C 497.92448,363.08073 497.53906,363.48958 496.97656,363.96875 L 496.60156,364.28125 C 495.83073,364.9375 495.38802,365.5625 495.27344,366.15625 L 498.39844,366.15625 L 498.39844,367 L 494.10156,367 z" />
      </g>
<!-- drawing style -->    </g>
    <g
       style="stroke-width:1;stroke-linecap:square;stroke-linejoin:miter;stroke-miterlimit:10;stroke-dasharray:none;stroke-dashoffset:0"
       id="g5255"
       transform="matrix(0.6377888,0,0,0.6377888,-463.94311,501.34444)">
      <g
         id="g5257"
         style="fill:none;stroke:#000000;stroke-linecap:butt;stroke-opacity:1">
        <path
           id="path5259"
           d="M 501.60276,363.68984 L 505.60276,363.68984" />
      </g>
<!-- drawing style -->    </g>
    <g
       style="stroke-width:1;stroke-linecap:square;stroke-linejoin:miter;stroke-miterlimit:10;stroke-dasharray:none;stroke-dashoffset:0"
       id="g5261"
       transform="matrix(0.6377888,0,0,0.6377888,-463.94311,501.34444)">
      <g
         id="g5263"
         style="fill:#000000;fill-opacity:1;fill-rule:nonzero;stroke:none">
        <path
           id="path5265"
           d="M 478.71875,418.46875 L 478.71875,417.75 L 483.0625,417.75 L 483.0625,418.46875 L 478.71875,418.46875 z M 486.92676,421.1875 C 486.17676,421.1875 485.57259,420.83594 485.11426,420.13281 C 484.65592,419.42969 484.42676,418.51042 484.42676,417.375 C 484.42676,416.23958 484.65853,415.32552 485.12207,414.63281 C 485.58561,413.9401 486.19759,413.59375 486.95801,413.59375 C 487.70801,413.59375 488.31478,413.9401 488.77832,414.63281 C 489.24186,415.32552 489.47363,416.23438 489.47363,417.35938 C 489.47363,418.52604 489.24186,419.45573 488.77832,420.14844 C 488.31478,420.84115 487.69759,421.1875 486.92676,421.1875 z M 486.92676,420.45312 C 487.94759,420.45312 488.45801,419.42187 488.45801,417.35938 C 488.45801,415.32812 487.95801,414.3125 486.95801,414.3125 C 485.94759,414.3125 485.44238,415.33333 485.44238,417.375 C 485.44238,419.42708 485.93717,420.45312 486.92676,420.45312 z M 491.09375,421 L 491.09375,419.79687 L 492.29687,419.79687 L 492.29687,421 L 491.09375,421 z M 497.03906,421 L 497.03906,418.95312 L 493.78906,418.95312 L 493.78906,418.21875 L 497.03906,413.76562 L 497.94531,413.76562 L 497.94531,418.17188 L 498.91406,418.17188 L 498.91406,418.95312 L 497.94531,418.95312 L 497.94531,421 L 497.03906,421 z M 494.72656,418.17188 L 497.10156,418.17188 L 497.10156,414.95312 L 494.72656,418.17188 z" />
      </g>
<!-- drawing style -->    </g>
    <g
       style="stroke-width:1;stroke-linecap:square;stroke-linejoin:miter;stroke-miterlimit:10;stroke-dasharray:none;stroke-dashoffset:0"
       id="g5267"
       transform="matrix(0.6377888,0,0,0.6377888,-463.94311,501.34444)">
      <g
         id="g5269"
         style="fill:none;stroke:#000000;stroke-linecap:butt;stroke-opacity:1">
        <path
           id="path5271"
           d="M 501.60276,417.35904 L 505.60276,417.35904" />
      </g>
<!-- drawing style -->    </g>
    <g
       style="stroke-width:1;stroke-linecap:square;stroke-linejoin:miter;stroke-miterlimit:10;stroke-dasharray:none;stroke-dashoffset:0"
       id="g5273"
       transform="matrix(0.6377888,0,0,0.6377888,-463.94311,501.34444)">
      <g
         id="g5275"
         style="fill:#000000;fill-opacity:1;fill-rule:nonzero;stroke:none">
        <path
           id="path5277"
           d="M 478.71875,472.46875 L 478.71875,471.75 L 483.0625,471.75 L 483.0625,472.46875 L 478.71875,472.46875 z M 486.92676,475.1875 C 486.17676,475.1875 485.57259,474.83594 485.11426,474.13281 C 484.65592,473.42969 484.42676,472.51042 484.42676,471.375 C 484.42676,470.23958 484.65853,469.32552 485.12207,468.63281 C 485.58561,467.9401 486.19759,467.59375 486.95801,467.59375 C 487.70801,467.59375 488.31478,467.9401 488.77832,468.63281 C 489.24186,469.32552 489.47363,470.23438 489.47363,471.35938 C 489.47363,472.52604 489.24186,473.45573 488.77832,474.14844 C 488.31478,474.84115 487.69759,475.1875 486.92676,475.1875 z M 486.92676,474.45312 C 487.94759,474.45312 488.45801,473.42187 488.45801,471.35938 C 488.45801,469.32812 487.95801,468.3125 486.95801,468.3125 C 485.94759,468.3125 485.44238,469.33333 485.44238,471.375 C 485.44238,473.42708 485.93717,474.45312 486.92676,474.45312 z M 491.09375,475 L 491.09375,473.79687 L 492.29687,473.79687 L 492.29687,475 L 491.09375,475 z M 494.99219,471.25 C 495.45052,470.65625 496.02865,470.35938 496.72656,470.35938 C 497.36198,470.35938 497.88021,470.56771 498.28125,470.98437 C 498.68229,471.40104 498.88281,471.9375 498.88281,472.59375 C 498.88281,473.34375 498.65625,473.96354 498.20312,474.45312 C 497.75,474.94271 497.17969,475.1875 496.49219,475.1875 C 495.6901,475.1875 495.0651,474.86458 494.61719,474.21875 C 494.16927,473.57292 493.94531,472.68229 493.94531,471.54688 C 493.94531,470.29688 494.20312,469.32552 494.71875,468.63281 C 495.23437,467.9401 495.96094,467.59375 496.89844,467.59375 C 497.32552,467.59375 497.86198,467.68229 498.50781,467.85938 L 498.50781,468.70312 C 497.83073,468.44271 497.27344,468.3125 496.83594,468.3125 C 495.60677,468.3125 494.99219,469.29167 494.99219,471.25 z M 497.91406,472.8125 C 497.91406,472.26042 497.79167,471.82812 497.54688,471.51562 C 497.30208,471.20312 496.96094,471.04688 496.52344,471.04688 C 496.11719,471.04688 495.76823,471.1849 495.47656,471.46094 C 495.1849,471.73698 495.03906,472.06771 495.03906,472.45312 C 495.03906,473.05729 495.17708,473.54167 495.45312,473.90625 C 495.72917,474.27083 496.09635,474.45312 496.55469,474.45312 C 496.97135,474.45312 497.30208,474.30469 497.54688,474.00781 C 497.79167,473.71094 497.91406,473.3125 497.91406,472.8125 z" />
      </g>
<!-- drawing style -->    </g>
    <g
       style="stroke-width:1;stroke-linecap:square;stroke-linejoin:miter;stroke-miterlimit:10;stroke-dasharray:none;stroke-dashoffset:0"
       id="g5279"
       transform="matrix(0.6377888,0,0,0.6377888,-463.94311,501.34444)">
      <g
         id="g5281"
         style="fill:none;stroke:#000000;stroke-linecap:butt;stroke-opacity:1">
        <path
           id="path5283"
           d="M 501.60276,471.02824 L 505.60276,471.02824" />
      </g>
<!-- drawing style -->    </g>
    <g
       style="stroke-width:1;stroke-linecap:square;stroke-linejoin:miter;stroke-miterlimit:10;stroke-dasharray:none;stroke-dashoffset:0"
       id="g5285"
       transform="matrix(0.6377888,0,0,0.6377888,-463.94311,501.34444)">
      <g
         id="g5287"
         style="fill:#000000;fill-opacity:1;fill-rule:nonzero;stroke:none">
        <path
           id="path5289"
           d="M 478.71875,525.46875 L 478.71875,524.75 L 483.0625,524.75 L 483.0625,525.46875 L 478.71875,525.46875 z M 486.92676,528.1875 C 486.17676,528.1875 485.57259,527.83594 485.11426,527.13281 C 484.65592,526.42969 484.42676,525.51042 484.42676,524.375 C 484.42676,523.23958 484.65853,522.32552 485.12207,521.63281 C 485.58561,520.9401 486.19759,520.59375 486.95801,520.59375 C 487.70801,520.59375 488.31478,520.9401 488.77832,521.63281 C 489.24186,522.32552 489.47363,523.23438 489.47363,524.35938 C 489.47363,525.52604 489.24186,526.45573 488.77832,527.14844 C 488.31478,527.84115 487.69759,528.1875 486.92676,528.1875 z M 486.92676,527.45312 C 487.94759,527.45312 488.45801,526.42187 488.45801,524.35938 C 488.45801,522.32812 487.95801,521.3125 486.95801,521.3125 C 485.94759,521.3125 485.44238,522.33333 485.44238,524.375 C 485.44238,526.42708 485.93717,527.45312 486.92676,527.45312 z M 491.09375,528 L 491.09375,526.79688 L 492.29687,526.79688 L 492.29687,528 L 491.09375,528 z M 495.57031,524.0625 C 494.86198,523.57292 494.50781,523.03125 494.50781,522.4375 C 494.50781,521.88542 494.70833,521.4401 495.10938,521.10156 C 495.51042,520.76302 496.03385,520.59375 496.67969,520.59375 C 497.27344,520.59375 497.75521,520.73698 498.125,521.02344 C 498.49479,521.3099 498.67969,521.6875 498.67969,522.15625 C 498.67969,522.85417 498.23177,523.48958 497.33594,524.0625 C 498.42969,524.59375 498.97656,525.28125 498.97656,526.125 C 498.97656,526.72917 498.7474,527.22396 498.28906,527.60938 C 497.83073,527.99479 497.24219,528.1875 496.52344,528.1875 C 495.80469,528.1875 495.22656,528.00521 494.78906,527.64062 C 494.35156,527.27604 494.13281,526.80208 494.13281,526.21875 C 494.13281,525.35417 494.61198,524.63542 495.57031,524.0625 z M 496.80469,523.76562 C 497.47135,523.31771 497.80469,522.82292 497.80469,522.28125 C 497.80469,521.98958 497.69271,521.75521 497.46875,521.57812 C 497.24479,521.40104 496.95052,521.3125 496.58594,521.3125 C 496.23177,521.3125 495.94271,521.40104 495.71875,521.57812 C 495.49479,521.75521 495.38281,521.97917 495.38281,522.25 C 495.38281,522.52083 495.48438,522.76302 495.6875,522.97656 C 495.89062,523.1901 496.26302,523.45312 496.80469,523.76562 z M 496.10156,524.45312 C 495.70573,524.75521 495.4401,525.01823 495.30469,525.24219 C 495.16927,525.46615 495.10156,525.74479 495.10156,526.07812 C 495.10156,526.48438 495.23438,526.8151 495.5,527.07031 C 495.76562,527.32552 496.11719,527.45312 496.55469,527.45312 C 496.97135,527.45312 497.3125,527.34375 497.57812,527.125 C 497.84375,526.90625 497.97656,526.625 497.97656,526.28125 C 497.97656,526 497.89583,525.76302 497.73437,525.57031 C 497.57292,525.3776 497.2526,525.14062 496.77344,524.85938 L 496.10156,524.45312 z" />
      </g>
<!-- drawing style -->    </g>
    <g
       style="stroke-width:1;stroke-linecap:square;stroke-linejoin:miter;stroke-miterlimit:10;stroke-dasharray:none;stroke-dashoffset:0"
       id="g5291"
       transform="matrix(0.6377888,0,0,0.6377888,-463.94311,501.34444)">
      <g
         id="g5293"
         style="fill:none;stroke:#000000;stroke-linecap:butt;stroke-opacity:1">
        <path
           id="path5295"
           d="M 501.60276,524.69743 L 505.60276,524.69743" />
      </g>
<!-- drawing style -->    </g>
    <g
       style="stroke-width:1;stroke-linecap:square;stroke-linejoin:miter;stroke-miterlimit:10;stroke-dasharray:none;stroke-dashoffset:0"
       id="g5297"
       transform="matrix(0.6377888,0,0,0.6377888,-463.94311,501.34444)">
      <g
         id="g5299"
         style="fill:#000000;fill-opacity:1;fill-rule:nonzero;stroke:none">
        <path
           id="path5301"
           d="M 487.71875,579.46875 L 487.71875,578.75 L 492.0625,578.75 L 492.0625,579.46875 L 487.71875,579.46875 z M 494.28613,582 L 494.28613,581.28125 L 495.73926,581.28125 L 495.73926,575.57812 L 494.28613,575.9375 L 494.28613,575.1875 L 496.70801,574.59375 L 496.70801,581.28125 L 498.14551,581.28125 L 498.14551,582 L 494.28613,582 z" />
      </g>
<!-- drawing style -->    </g>
    <g
       style="stroke-width:1;stroke-linecap:square;stroke-linejoin:miter;stroke-miterlimit:10;stroke-dasharray:none;stroke-dashoffset:0"
       id="g5303"
       transform="matrix(0.6377888,0,0,0.6377888,-463.94311,501.34444)">
      <g
         id="g5305"
         style="fill:none;stroke:#000000;stroke-linecap:butt;stroke-opacity:1">
        <path
           id="path5307"
           d="M 501.60276,578.36663 L 505.60276,578.36663" />
      </g>
<!-- drawing style -->    </g>
    <g
       style="stroke-width:1;stroke-linecap:square;stroke-linejoin:miter;stroke-miterlimit:10;stroke-dasharray:none;stroke-dashoffset:0"
       id="g5309"
       transform="matrix(0.6377888,0,0,0.6377888,-463.94311,501.34444)">
      <g
         id="g5311"
         style="fill:none;stroke:#000000;stroke-linecap:butt;stroke-opacity:1">
        <path
           id="path5313"
           d="M 505.60276,0 L 505.60276,599" />
      </g>
<!-- drawing style -->    </g>
    <g
       style="stroke-width:1;stroke-linecap:square;stroke-linejoin:miter;stroke-miterlimit:10;stroke-dasharray:none;stroke-dashoffset:0"
       id="g5315"
       transform="matrix(0.6377888,0,0,0.6377888,-463.94311,501.34444)">
      <g
         id="g5317"
         style="fill:none;stroke:#000000;stroke-linecap:butt;stroke-opacity:1">
        <path
           id="path5319"
           d="M 505.60276,0 L 502.60276,3" />
      </g>
<!-- drawing style -->    </g>
    <g
       style="stroke-width:1;stroke-linecap:square;stroke-linejoin:miter;stroke-miterlimit:10;stroke-dasharray:none;stroke-dashoffset:0"
       id="g5321"
       transform="matrix(0.6377888,0,0,0.6377888,-463.94311,501.34444)">
      <g
         id="g5323"
         style="fill:none;stroke:#000000;stroke-linecap:butt;stroke-opacity:1">
        <path
           id="path5325"
           d="M 505.60276,0 L 508.60276,3" />
      </g>
<!-- drawing style -->    </g>
    <g
       style="stroke-width:1;stroke-linecap:square;stroke-linejoin:miter;stroke-miterlimit:10;stroke-dasharray:none;stroke-dashoffset:0"
       id="g5327"
       transform="matrix(0.6377888,0,0,0.6377888,-463.94311,501.34444)">
      <g
         id="g5329"
         style="fill:none;stroke:#000000;stroke-linecap:round;stroke-linejoin:round;stroke-opacity:1">
        <path
           id="path5331"
           d="M 773.94874,310.02064 C 773.94874,458.22404 653.80615,578.36663 505.60276,578.36663 C 357.39936,578.36663 237.25677,458.22404 237.25677,310.02064 C 237.25677,161.81725 357.39936,41.674657 505.60276,41.674657 C 653.80615,41.674657 773.94874,161.81725 773.94874,310.02064 z" />
      </g>
<!-- drawing style -->    </g>
    <g
       style="stroke-width:1;stroke-linecap:square;stroke-linejoin:miter;stroke-miterlimit:10;stroke-dasharray:none;stroke-dashoffset:0"
       id="g5333"
       transform="matrix(0.6377888,0,0,0.6377888,-463.94311,501.34444)">
      <g
         id="g5335"
         style="fill:#006400;fill-opacity:0.10196078;fill-rule:nonzero;stroke:none">
        <path
           id="path5337"
           d="M 570.60276,310.02064 C 570.60276,302.43829 569.27609,294.91441 566.68278,287.78933 L 505.60276,310.02064 L 570.60276,310.02064 z" />
      </g>
<!-- drawing style -->    </g>
    <g
       style="stroke-width:1;stroke-linecap:square;stroke-linejoin:miter;stroke-miterlimit:10;stroke-dasharray:none;stroke-dashoffset:0"
       id="g5339"
       transform="matrix(0.6377888,0,0,0.6377888,-463.94311,501.34444)">
      <g
         id="g5341"
         style="fill:none;stroke:#006400;stroke-linecap:round;stroke-linejoin:round;stroke-opacity:1">
        <path
           id="path5343"
           d="M 570.60276,310.02064 C 570.60276,302.43829 569.27609,294.91441 566.68278,287.78933 L 505.60276,310.02064 L 570.60276,310.02064 z" />
      </g>
<!-- drawing style -->    </g>
    <g
       style="stroke-width:1;stroke-linecap:square;stroke-linejoin:miter;stroke-miterlimit:10;stroke-dasharray:none;stroke-dashoffset:0"
       id="g5345"
       transform="matrix(0.6377888,0,0,0.6377888,-463.94311,501.34444)">
      <g
         id="g5347"
         style="fill:#006400;fill-opacity:1;fill-rule:nonzero;stroke:none">
        <path
           id="path5349"
           d="M 545.79688,303.79687 C 546.06771,303.05729 546.27604,302.33854 546.42188,301.64063 L 547.5,301.64063 C 547.29167,302.52604 546.86979,303.58333 546.23438,304.8125 L 546.35938,305.09375 C 546.40104,305.20833 546.52083,305.46875 546.71875,305.875 C 546.83333,306.125 546.96875,306.42188 547.125,306.76562 C 547.36458,307.29688 547.55729,307.70833 547.70312,308 L 546.46875,308 C 546.42708,307.90625 546.40104,307.84896 546.39062,307.82812 L 546.125,307.21875 L 545.89062,306.65625 L 545.6875,306.20312 L 545.59375,305.98437 C 545.23958,306.77604 544.8776,307.33333 544.50781,307.65625 C 544.13802,307.97917 543.67708,308.14063 543.125,308.14063 C 542.41667,308.14063 541.84896,307.86198 541.42188,307.30469 C 540.99479,306.7474 540.78125,306.01042 540.78125,305.09375 C 540.78125,304.01042 541.02604,303.13802 541.51562,302.47656 C 542.00521,301.8151 542.65104,301.48437 543.45312,301.48437 C 543.99479,301.48437 544.42708,301.64323 544.75,301.96094 C 545.07292,302.27865 545.42188,302.89062 545.79688,303.79687 z M 545.20312,305.04688 L 544.92188,304.39062 C 544.56771,303.58854 544.28125,303.04948 544.0625,302.77344 C 543.84375,302.4974 543.59896,302.35938 543.32812,302.35938 C 542.94271,302.35938 542.625,302.59896 542.375,303.07812 C 542.125,303.55729 542,304.16667 542,304.90625 C 542,305.61458 542.11719,306.1875 542.35156,306.625 C 542.58594,307.0625 542.89583,307.28125 543.28125,307.28125 C 543.61458,307.28125 543.91927,307.11979 544.19531,306.79687 C 544.47135,306.47396 544.80729,305.89062 545.20312,305.04688 z" />
      </g>
<!-- drawing style -->    </g>
    <g
       style="stroke-width:1;stroke-linecap:square;stroke-linejoin:miter;stroke-miterlimit:10;stroke-dasharray:none;stroke-dashoffset:0"
       id="g5351"
       transform="matrix(0.6377888,0,0,0.6377888,-463.94311,501.34444)">
      <g
         id="g5353"
         style="fill:#006400;fill-opacity:0.10196078;fill-rule:nonzero;stroke:none">
        <path
           id="path5355"
           d="M 547.88892,294.62974 C 544.27048,284.68815 537.26497,276.33931 528.10276,271.0495 L 505.60276,310.02064 L 547.88892,294.62974 z" />
      </g>
<!-- drawing style -->    </g>
    <g
       style="stroke-width:1;stroke-linecap:square;stroke-linejoin:miter;stroke-miterlimit:10;stroke-dasharray:none;stroke-dashoffset:0"
       id="g5357"
       transform="matrix(0.6377888,0,0,0.6377888,-463.94311,501.34444)">
      <g
         id="g5359"
         style="fill:none;stroke:#006400;stroke-linecap:round;stroke-linejoin:round;stroke-opacity:1">
        <path
           id="path5361"
           d="M 547.88892,294.62974 C 544.27048,284.68815 537.26497,276.33931 528.10276,271.0495 L 505.60276,310.02064 L 547.88892,294.62974 z" />
      </g>
<!-- drawing style -->    </g>
    <g
       style="stroke-width:1;stroke-linecap:square;stroke-linejoin:miter;stroke-miterlimit:10;stroke-dasharray:none;stroke-dashoffset:0"
       id="g5363"
       transform="matrix(0.6377888,0,0,0.6377888,-463.94311,501.34444)">
      <g
         id="g5365"
         style="fill:#006400;fill-opacity:1;fill-rule:nonzero;stroke:none">
        <path
           id="path5367"
           d="M 523.15625,300.3125 L 523.15625,291.82812 C 523.15625,290.80729 523.38542,290.01302 523.84375,289.44531 C 524.30208,288.8776 524.9375,288.59375 525.75,288.59375 C 526.42708,288.59375 526.97135,288.77083 527.38281,289.125 C 527.79427,289.47917 528,289.94271 528,290.51562 C 528,290.97396 527.86719,291.39844 527.60156,291.78906 C 527.33594,292.17969 526.9375,292.53125 526.40625,292.84375 C 527.11458,293.07292 527.66667,293.41927 528.0625,293.88281 C 528.45833,294.34635 528.65625,294.88021 528.65625,295.48437 C 528.65625,296.26562 528.38802,296.90365 527.85156,297.39844 C 527.3151,297.89323 526.625,298.14063 525.78125,298.14063 C 525.28125,298.14063 524.79167,298.0625 524.3125,297.90625 L 524.3125,300.3125 L 523.15625,300.3125 z M 524.75,292.65625 L 524.95312,292.65625 C 525.45312,292.65625 525.89323,292.45052 526.27344,292.03906 C 526.65365,291.6276 526.84375,291.15104 526.84375,290.60938 C 526.84375,290.23438 526.74479,289.95052 526.54688,289.75781 C 526.34896,289.5651 526.05729,289.46875 525.67188,289.46875 C 525.21354,289.46875 524.8724,289.65104 524.64844,290.01562 C 524.42448,290.38021 524.3125,290.92188 524.3125,291.64063 L 524.3125,296.89062 C 524.86458,297.15104 525.35937,297.28125 525.79688,297.28125 C 526.26562,297.28125 526.66406,297.10937 526.99219,296.76562 C 527.32031,296.42188 527.48438,296.01042 527.48438,295.53125 C 527.48438,294.92708 527.25781,294.4401 526.80469,294.07031 C 526.35156,293.70052 525.73958,293.51562 524.96875,293.51562 L 524.75,293.51562 L 524.75,292.65625 z" />
      </g>
<!-- drawing style -->    </g>
    <g
       style="stroke-width:1;stroke-linecap:square;stroke-linejoin:miter;stroke-miterlimit:10;stroke-dasharray:none;stroke-dashoffset:0"
       id="g5369"
       transform="matrix(0.6377888,0,0,0.6377888,-463.94311,501.34444)">
      <g
         id="g5371"
         style="fill:#006400;fill-opacity:0.10196078;fill-rule:nonzero;stroke:none">
        <path
           id="path5373"
           d="M 698.77063,239.71329 L 691.51526,219.7794 L 671.58136,227.03474 L 678.83673,246.96863 L 698.77063,239.71329" />
      </g>
<!-- drawing style -->    </g>
    <g
       style="stroke-width:1;stroke-linecap:square;stroke-linejoin:miter;stroke-miterlimit:10;stroke-dasharray:none;stroke-dashoffset:0"
       id="g5375"
       transform="matrix(0.6377888,0,0,0.6377888,-463.94311,501.34444)">
      <g
         id="g5377"
         style="fill:none;stroke:#006400;stroke-linecap:round;stroke-linejoin:round;stroke-opacity:1">
        <path
           id="path5379"
           d="M 698.77063,239.71329 L 691.51526,219.7794 L 671.58136,227.03474 L 678.83673,246.96863 L 698.77063,239.71329" />
      </g>
<!-- drawing style -->    </g>
    <g
       style="stroke-width:1;stroke-linecap:square;stroke-linejoin:miter;stroke-miterlimit:10;stroke-dasharray:none;stroke-dashoffset:0"
       id="g5381"
       transform="matrix(0.6377888,0,0,0.6377888,-463.94311,501.34444)">
      <g
         id="g5383"
         style="fill:#006400;fill-opacity:0.10196078;fill-rule:nonzero;stroke:none">
        <path
           id="path5385"
           d="M 639.77576,310.02063 L 639.77576,288.80743 L 618.56256,288.80743 L 618.56256,310.02063 L 639.77576,310.02063" />
      </g>
<!-- drawing style -->    </g>
    <g
       style="stroke-width:1;stroke-linecap:square;stroke-linejoin:miter;stroke-miterlimit:10;stroke-dasharray:none;stroke-dashoffset:0"
       id="g5387"
       transform="matrix(0.6377888,0,0,0.6377888,-463.94311,501.34444)">
      <g
         id="g5389"
         style="fill:none;stroke:#006400;stroke-linecap:round;stroke-linejoin:round;stroke-opacity:1">
        <path
           id="path5391"
           d="M 639.77576,310.02063 L 639.77576,288.80743 L 618.56256,288.80743 L 618.56256,310.02063 L 639.77576,310.02063" />
      </g>
<!-- drawing style -->    </g>
    <g
       style="stroke-width:1;stroke-linecap:square;stroke-linejoin:miter;stroke-miterlimit:10;stroke-dasharray:none;stroke-dashoffset:0"
       id="g5393"
       transform="matrix(0.6377888,0,0,0.6377888,-463.94311,501.34444)">
      <g
         id="g5395"
         style="fill:#006400;fill-opacity:0.10196078;fill-rule:nonzero;stroke:none">
        <path
           id="path5397"
           d="M 698.77063,310.02063 L 698.77063,288.80743 L 677.55743,288.80743 L 677.55743,310.02063 L 698.77063,310.02063" />
      </g>
<!-- drawing style -->    </g>
    <g
       style="stroke-width:1;stroke-linecap:square;stroke-linejoin:miter;stroke-miterlimit:10;stroke-dasharray:none;stroke-dashoffset:0"
       id="g5399"
       transform="matrix(0.6377888,0,0,0.6377888,-463.94311,501.34444)">
      <g
         id="g5401"
         style="fill:none;stroke:#006400;stroke-linecap:round;stroke-linejoin:round;stroke-opacity:1">
        <path
           id="path5403"
           d="M 698.77063,310.02063 L 698.77063,288.80743 L 677.55743,288.80743 L 677.55743,310.02063 L 698.77063,310.02063" />
      </g>
<!-- drawing style -->    </g>
    <g
       style="stroke-width:1;stroke-linecap:square;stroke-linejoin:miter;stroke-miterlimit:10;stroke-dasharray:none;stroke-dashoffset:0"
       id="g5405"
       transform="matrix(0.6377888,0,0,0.6377888,-463.94311,501.34444)">
      <g
         id="g5407"
         style="fill:#006400;fill-opacity:0.10196078;fill-rule:nonzero;stroke:none">
        <path
           id="path5409"
           d="M 639.77576,239.71329 L 660.98895,239.71329 L 660.98895,218.50009 L 639.77576,218.50009 L 639.77576,239.71329" />
      </g>
<!-- drawing style -->    </g>
    <g
       style="stroke-width:1;stroke-linecap:square;stroke-linejoin:miter;stroke-miterlimit:10;stroke-dasharray:none;stroke-dashoffset:0"
       id="g5411"
       transform="matrix(0.6377888,0,0,0.6377888,-463.94311,501.34444)">
      <g
         id="g5413"
         style="fill:none;stroke:#006400;stroke-linecap:round;stroke-linejoin:round;stroke-opacity:1">
        <path
           id="path5415"
           d="M 639.77576,239.71329 L 660.98895,239.71329 L 660.98895,218.50009 L 639.77576,218.50009 L 639.77576,239.71329" />
      </g>
<!-- drawing style -->    </g>
    <g
       style="stroke-width:1;stroke-linecap:square;stroke-linejoin:miter;stroke-miterlimit:10;stroke-dasharray:none;stroke-dashoffset:0"
       id="g5417"
       transform="matrix(0.6377888,0,0,0.6377888,-463.94311,501.34444)">
      <g
         id="g5419"
         style="fill:#006400;fill-opacity:0.10196078;fill-rule:nonzero;stroke:none">
        <path
           id="path5421"
           d="M 639.77575,127.6262 C 645.60833,127.6262 651.39593,126.60569 656.87676,124.61083 L 639.77575,77.626202 L 639.77575,127.6262 z" />
      </g>
<!-- drawing style -->    </g>
    <g
       style="stroke-width:1;stroke-linecap:square;stroke-linejoin:miter;stroke-miterlimit:10;stroke-dasharray:none;stroke-dashoffset:0"
       id="g5423"
       transform="matrix(0.6377888,0,0,0.6377888,-463.94311,501.34444)">
      <g
         id="g5425"
         style="fill:none;stroke:#006400;stroke-linecap:round;stroke-linejoin:round;stroke-opacity:1">
        <path
           id="path5427"
           d="M 639.77575,127.6262 C 645.60833,127.6262 651.39593,126.60569 656.87676,124.61083 L 639.77575,77.626202 L 639.77575,127.6262 z" />
      </g>
<!-- drawing style -->    </g>
    <g
       style="stroke-width:1;stroke-linecap:square;stroke-linejoin:miter;stroke-miterlimit:10;stroke-dasharray:none;stroke-dashoffset:0"
       id="g5435"
       transform="matrix(0.6377888,0,0,0.6377888,-463.94311,501.34444)">
      <g
         id="g5437"
         style="fill:none;stroke:#000000;stroke-linecap:round;stroke-linejoin:round;stroke-opacity:1">
        <path
           id="path5439"
           d="M 505.60275,310.02063 L 639.77576,77.626205" />
      </g>
<!-- drawing style -->    </g>
    <g
       style="stroke-width:1;stroke-linecap:square;stroke-linejoin:miter;stroke-miterlimit:10;stroke-dasharray:none;stroke-dashoffset:0"
       id="g5441"
       transform="matrix(0.6377888,0,0,0.6377888,-463.94311,501.34444)">
      <g
         id="g5443"
         style="fill:none;stroke:#000000;stroke-linecap:round;stroke-linejoin:round;stroke-opacity:1">
        <path
           id="path5445"
           d="M 505.60275,310.02063 L 757.7655,218.24091" />
      </g>
<!-- drawing style -->    </g>
    <g
       style="stroke-width:1;stroke-linecap:square;stroke-linejoin:miter;stroke-miterlimit:10;stroke-dasharray:none;stroke-dashoffset:0"
       id="g5447"
       transform="matrix(0.6377888,0,0,0.6377888,-463.94311,501.34444)">
      <g
         id="g5449"
         style="fill:none;stroke:#000000;stroke-linecap:round;stroke-linejoin:round;stroke-opacity:1">
        <path
           id="path5451"
           d="M 639.77576,77.626205 L 639.77576,310.02063" />
      </g>
<!-- drawing style -->    </g>
    <g
       style="stroke-width:1;stroke-linecap:square;stroke-linejoin:miter;stroke-miterlimit:10;stroke-dasharray:none;stroke-dashoffset:0"
       id="g5453"
       transform="matrix(0.6377888,0,0,0.6377888,-463.94311,501.34444)">
      <g
         id="g5455"
         style="fill:none;stroke:#000000;stroke-linecap:round;stroke-linejoin:round;stroke-opacity:1">
        <path
           id="path5457"
           d="M 639.77576,77.626205 L 698.77063,239.71329" />
      </g>
<!-- drawing style -->    </g>
    <g
       style="stroke-width:1;stroke-linecap:square;stroke-linejoin:miter;stroke-miterlimit:10;stroke-dasharray:none;stroke-dashoffset:0"
       id="g5459"
       transform="matrix(0.6377888,0,0,0.6377888,-463.94311,501.34444)">
      <g
         id="g5461"
         style="fill:none;stroke:#000000;stroke-linecap:round;stroke-linejoin:round;stroke-opacity:1">
        <path
           id="path5463"
           d="M 698.77063,239.71329 L 639.77576,239.71329" />
      </g>
<!-- drawing style -->    </g>
    <g
       style="stroke-width:1;stroke-linecap:square;stroke-linejoin:miter;stroke-miterlimit:10;stroke-dasharray:none;stroke-dashoffset:0"
       id="g5465"
       transform="matrix(0.6377888,0,0,0.6377888,-463.94311,501.34444)">
      <g
         id="g5467"
         style="fill:none;stroke:#000000;stroke-linecap:round;stroke-linejoin:round;stroke-opacity:1">
        <path
           id="path5469"
           d="M 698.77063,239.71329 L 698.77063,310.02063" />
      </g>
<!-- drawing style -->    </g>
    <g
       style="stroke-width:1;stroke-linecap:square;stroke-linejoin:miter;stroke-miterlimit:10;stroke-dasharray:none;stroke-dashoffset:0"
       id="g5471"
       transform="matrix(0.6377888,0,0,0.6377888,-463.94311,501.34444)">
      <g
         id="g5473"
         style="fill:#0000ff;fill-opacity:1;fill-rule:nonzero;stroke:none">
        <path
           id="path5475"
           d="M 508.60276,310.02064 C 508.60276,311.6775 507.25961,313.02064 505.60276,313.02064 C 503.9459,313.02064 502.60276,311.6775 502.60276,310.02064 C 502.60276,308.36379 503.9459,307.02064 505.60276,307.02064 C 507.25961,307.02064 508.60276,308.36379 508.60276,310.02064 z" />
      </g>
<!-- drawing style -->    </g>
    <g
       style="stroke-width:1;stroke-linecap:square;stroke-linejoin:miter;stroke-miterlimit:10;stroke-dasharray:none;stroke-dashoffset:0"
       id="g5477"
       transform="matrix(0.6377888,0,0,0.6377888,-463.94311,501.34444)">
      <g
         id="g5479"
         style="fill:none;stroke:#000000;stroke-linecap:round;stroke-linejoin:round;stroke-opacity:1">
        <path
           id="path5481"
           d="M 508.60276,310.02064 C 508.60276,311.6775 507.25961,313.02064 505.60276,313.02064 C 503.9459,313.02064 502.60276,311.6775 502.60276,310.02064 C 502.60276,308.36379 503.9459,307.02064 505.60276,307.02064 C 507.25961,307.02064 508.60276,308.36379 508.60276,310.02064 z" />
      </g>
<!-- drawing style -->    </g>
    <g
       style="stroke-width:1;stroke-linecap:square;stroke-linejoin:miter;stroke-miterlimit:10;stroke-dasharray:none;stroke-dashoffset:0"
       id="g5483"
       transform="matrix(0.6377888,0,0,0.6377888,-476.01856,513.41989)">
      <g
         id="g5485"
         style="fill:#0000ff;fill-opacity:1;fill-rule:nonzero;stroke:none">
        <path
           id="path5487"
           d="M 514.60938,304.21875 C 513.41146,304.21875 512.44531,303.80208 511.71094,302.96875 C 510.97656,302.13542 510.60938,301.03125 510.60938,299.65625 C 510.60938,298.28125 510.97656,297.17969 511.71094,296.35156 C 512.44531,295.52344 513.43229,295.10938 514.67188,295.10938 C 515.89062,295.10938 516.86979,295.52083 517.60938,296.34375 C 518.34896,297.16667 518.71875,298.26562 518.71875,299.64063 C 518.71875,301.04688 518.34896,302.16146 517.60938,302.98437 C 516.86979,303.80729 515.86979,304.21875 514.60938,304.21875 z M 514.625,303.29687 C 515.51042,303.29687 516.19531,302.97656 516.67969,302.33594 C 517.16406,301.69531 517.40625,300.79688 517.40625,299.64063 C 517.40625,298.50521 517.16406,297.61979 516.67969,296.98437 C 516.19531,296.34896 515.52604,296.03125 514.67188,296.03125 C 513.80729,296.03125 513.13281,296.35156 512.64844,296.99219 C 512.16406,297.63281 511.92187,298.52083 511.92187,299.65625 C 511.92187,300.78125 512.16146,301.66927 512.64062,302.32031 C 513.11979,302.97135 513.78125,303.29687 514.625,303.29687 z" />
      </g>
<!-- drawing style -->    </g>
    <g
       style="stroke-width:1;stroke-linecap:square;stroke-linejoin:miter;stroke-miterlimit:10;stroke-dasharray:none;stroke-dashoffset:0"
       id="g5489"
       transform="matrix(0.6377888,0,0,0.6377888,-463.94311,501.34444)">
      <g
         id="g5491"
         style="fill:#404040;fill-opacity:1;fill-rule:nonzero;stroke:none">
        <path
           id="path5493"
           d="M 642.77575,77.626202 C 642.77575,79.283056 641.4326,80.626202 639.77575,80.626202 C 638.11889,80.626202 636.77575,79.283056 636.77575,77.626202 C 636.77575,75.969348 638.11889,74.626202 639.77575,74.626202 C 641.4326,74.626202 642.77575,75.969348 642.77575,77.626202 z" />
      </g>
<!-- drawing style -->    </g>
    <g
       style="stroke-width:1;stroke-linecap:square;stroke-linejoin:miter;stroke-miterlimit:10;stroke-dasharray:none;stroke-dashoffset:0"
       id="g5495"
       transform="matrix(0.6377888,0,0,0.6377888,-463.94311,501.34444)">
      <g
         id="g5497"
         style="fill:none;stroke:#000000;stroke-linecap:round;stroke-linejoin:round;stroke-opacity:1">
        <path
           id="path5499"
           d="M 642.77575,77.626202 C 642.77575,79.283056 641.4326,80.626202 639.77575,80.626202 C 638.11889,80.626202 636.77575,79.283056 636.77575,77.626202 C 636.77575,75.969348 638.11889,74.626202 639.77575,74.626202 C 641.4326,74.626202 642.77575,75.969348 642.77575,77.626202 z" />
      </g>
<!-- drawing style -->    </g>
    <g
       style="stroke-width:1;stroke-linecap:square;stroke-linejoin:miter;stroke-miterlimit:10;stroke-dasharray:none;stroke-dashoffset:0"
       id="g5501"
       transform="matrix(0.6377888,0,0,0.6377888,-463.94311,501.34444)">
      <g
         id="g5503"
         style="fill:#404040;fill-opacity:1;fill-rule:nonzero;stroke:none">
        <path
           id="path5505"
           d="M 645.125,72 L 645.125,63.328125 L 648,63.328125 C 648.86458,63.328125 649.5599,63.424479 650.08594,63.617187 C 650.61198,63.809896 651.06771,64.135417 651.45312,64.59375 C 652.06771,65.3125 652.375,66.265625 652.375,67.453125 C 652.375,68.901042 651.99479,70.020833 651.23438,70.8125 C 650.47396,71.604167 649.40104,72 648.01562,72 L 645.125,72 z M 646.34375,71.078125 L 647.92188,71.078125 C 649.04688,71.078125 649.84375,70.776042 650.3125,70.171875 C 650.82292,69.526042 651.07812,68.661458 651.07812,67.578125 C 651.07812,66.557292 650.82812,65.755208 650.32812,65.171875 C 650.02604,64.817708 649.66667,64.575521 649.25,64.445312 C 648.83333,64.315104 648.20312,64.25 647.35938,64.25 L 646.34375,64.25 L 646.34375,71.078125 z" />
      </g>
<!-- drawing style -->    </g>
    <g
       style="stroke-width:1;stroke-linecap:square;stroke-linejoin:miter;stroke-miterlimit:10;stroke-dasharray:none;stroke-dashoffset:0"
       id="g5507"
       transform="matrix(0.6377888,0,0,0.6377888,-463.94311,501.34444)">
      <g
         id="g5509"
         style="fill:#404040;fill-opacity:1;fill-rule:nonzero;stroke:none">
        <path
           id="path5511"
           d="M 642.77575,310.02064 C 642.77575,311.6775 641.4326,313.02064 639.77575,313.02064 C 638.11889,313.02064 636.77575,311.6775 636.77575,310.02064 C 636.77575,308.36379 638.11889,307.02064 639.77575,307.02064 C 641.4326,307.02064 642.77575,308.36379 642.77575,310.02064 z" />
      </g>
<!-- drawing style -->    </g>
    <g
       style="stroke-width:1;stroke-linecap:square;stroke-linejoin:miter;stroke-miterlimit:10;stroke-dasharray:none;stroke-dashoffset:0"
       id="g5513"
       transform="matrix(0.6377888,0,0,0.6377888,-463.94311,501.34444)">
      <g
         id="g5515"
         style="fill:none;stroke:#000000;stroke-linecap:round;stroke-linejoin:round;stroke-opacity:1">
        <path
           id="path5517"
           d="M 642.77575,310.02064 C 642.77575,311.6775 641.4326,313.02064 639.77575,313.02064 C 638.11889,313.02064 636.77575,311.6775 636.77575,310.02064 C 636.77575,308.36379 638.11889,307.02064 639.77575,307.02064 C 641.4326,307.02064 642.77575,308.36379 642.77575,310.02064 z" />
      </g>
<!-- drawing style -->    </g>
    <g
       style="stroke-width:1;stroke-linecap:square;stroke-linejoin:miter;stroke-miterlimit:10;stroke-dasharray:none;stroke-dashoffset:0"
       id="g5519"
       transform="matrix(0.6377888,0,0,0.6377888,-463.94311,501.34444)">
      <g
         id="g5521"
         style="fill:#404040;fill-opacity:1;fill-rule:nonzero;stroke:none">
        <path
           id="path5523"
           d="M 649.51562,300.6875 L 648.03125,296.9375 L 646.5625,300.6875 L 649.51562,300.6875 z M 650.8125,304 L 649.875,301.59375 L 646.20312,301.59375 L 645.25,304 L 644.09375,304 L 647.54688,295.32812 L 648.76562,295.32812 L 652.14062,304 L 650.8125,304 z" />
      </g>
<!-- drawing style -->    </g>
    <g
       style="stroke-width:1;stroke-linecap:square;stroke-linejoin:miter;stroke-miterlimit:10;stroke-dasharray:none;stroke-dashoffset:0"
       id="g5525"
       transform="matrix(0.6377888,0,0,0.6377888,-463.94311,501.34444)">
      <g
         id="g5527"
         style="fill:#404040;fill-opacity:1;fill-rule:nonzero;stroke:none">
        <path
           id="path5529"
           d="M 701.77062,239.71329 C 701.77062,241.37014 700.42748,242.71329 698.77062,242.71329 C 697.11377,242.71329 695.77062,241.37014 695.77062,239.71329 C 695.77062,238.05643 697.11377,236.71329 698.77062,236.71329 C 700.42748,236.71329 701.77062,238.05643 701.77062,239.71329 z" />
      </g>
<!-- drawing style -->    </g>
    <g
       style="stroke-width:1;stroke-linecap:square;stroke-linejoin:miter;stroke-miterlimit:10;stroke-dasharray:none;stroke-dashoffset:0"
       id="g5531"
       transform="matrix(0.6377888,0,0,0.6377888,-463.94311,501.34444)">
      <g
         id="g5533"
         style="fill:none;stroke:#000000;stroke-linecap:round;stroke-linejoin:round;stroke-opacity:1">
        <path
           id="path5535"
           d="M 701.77062,239.71329 C 701.77062,241.37014 700.42748,242.71329 698.77062,242.71329 C 697.11377,242.71329 695.77062,241.37014 695.77062,239.71329 C 695.77062,238.05643 697.11377,236.71329 698.77062,236.71329 C 700.42748,236.71329 701.77062,238.05643 701.77062,239.71329 z" />
      </g>
<!-- drawing style -->    </g>
    <g
       style="stroke-width:1;stroke-linecap:square;stroke-linejoin:miter;stroke-miterlimit:10;stroke-dasharray:none;stroke-dashoffset:0"
       id="g5537"
       transform="matrix(0.6377888,0,0,0.6377888,-463.94311,501.34444)">
      <g
         id="g5539"
         style="fill:#404040;fill-opacity:1;fill-rule:nonzero;stroke:none">
        <path
           id="path5541"
           d="M 704.125,234 L 704.125,225.32813 L 706.375,225.32813 C 707.23958,225.32813 707.90365,225.49219 708.36719,225.82031 C 708.83073,226.14844 709.0625,226.61979 709.0625,227.23437 C 709.0625,228.28646 708.46875,229.03646 707.28125,229.48438 C 708.69792,229.91146 709.40625,230.69271 709.40625,231.82813 C 709.40625,232.53646 709.17187,233.07552 708.70312,233.44531 C 708.23438,233.8151 707.55729,234 706.67188,234 L 704.125,234 z M 705.34375,233.07812 L 705.59375,233.07812 C 706.48958,233.07812 707.07292,233.02083 707.34375,232.90625 C 707.85417,232.69792 708.10938,232.30208 708.10938,231.71875 C 708.10938,231.19792 707.8776,230.76823 707.41406,230.42969 C 706.95052,230.09115 706.375,229.92188 705.6875,229.92188 L 705.34375,229.92188 L 705.34375,233.07812 z M 705.34375,229.14062 L 705.73438,229.14062 C 706.39063,229.14062 706.89844,229 707.25781,228.71875 C 707.61719,228.4375 707.79688,228.04167 707.79688,227.53125 C 707.79688,226.67708 707.13542,226.25 705.8125,226.25 L 705.34375,226.25 L 705.34375,229.14062 z" />
      </g>
<!-- drawing style -->    </g>
    <g
       style="stroke-width:1;stroke-linecap:square;stroke-linejoin:miter;stroke-miterlimit:10;stroke-dasharray:none;stroke-dashoffset:0"
       id="g5543"
       transform="matrix(0.6377888,0,0,0.6377888,-463.94311,501.34444)">
      <g
         id="g5545"
         style="fill:#404040;fill-opacity:1;fill-rule:nonzero;stroke:none">
        <path
           id="path5547"
           d="M 642.77575,239.71329 C 642.77575,241.37014 641.4326,242.71329 639.77575,242.71329 C 638.11889,242.71329 636.77575,241.37014 636.77575,239.71329 C 636.77575,238.05643 638.11889,236.71329 639.77575,236.71329 C 641.4326,236.71329 642.77575,238.05643 642.77575,239.71329 z" />
      </g>
<!-- drawing style -->    </g>
    <g
       style="stroke-width:1;stroke-linecap:square;stroke-linejoin:miter;stroke-miterlimit:10;stroke-dasharray:none;stroke-dashoffset:0"
       id="g5549"
       transform="matrix(0.6377888,0,0,0.6377888,-463.94311,501.34444)">
      <g
         id="g5551"
         style="fill:none;stroke:#000000;stroke-linecap:round;stroke-linejoin:round;stroke-opacity:1">
        <path
           id="path5553"
           d="M 642.77575,239.71329 C 642.77575,241.37014 641.4326,242.71329 639.77575,242.71329 C 638.11889,242.71329 636.77575,241.37014 636.77575,239.71329 C 636.77575,238.05643 638.11889,236.71329 639.77575,236.71329 C 641.4326,236.71329 642.77575,238.05643 642.77575,239.71329 z" />
      </g>
<!-- drawing style -->    </g>
    <g
       style="stroke-width:1;stroke-linecap:square;stroke-linejoin:miter;stroke-miterlimit:10;stroke-dasharray:none;stroke-dashoffset:0"
       id="g5555"
       transform="matrix(0.6377888,0,0,0.6377888,-476.01856,501.34444)">
      <g
         id="g5557"
         style="fill:#404040;fill-opacity:1;fill-rule:nonzero;stroke:none">
        <path
           id="path5559"
           d="M 648.82812,234.21875 C 647.48437,234.21875 646.44531,233.82292 645.71094,233.03125 C 644.97656,232.23958 644.60938,231.11979 644.60938,229.67187 C 644.60938,228.22396 644.98438,227.10156 645.73438,226.30469 C 646.48438,225.50781 647.53646,225.10937 648.89062,225.10937 C 649.67187,225.10937 650.58333,225.23437 651.625,225.48438 L 651.625,226.64062 C 650.4375,226.23437 649.52083,226.03125 648.875,226.03125 C 647.9375,226.03125 647.21094,226.34896 646.69531,226.98438 C 646.17969,227.61979 645.92188,228.52083 645.92188,229.6875 C 645.92188,230.79167 646.19531,231.66146 646.74219,232.29687 C 647.28906,232.93229 648.04167,233.25 649,233.25 C 649.82292,233.25 650.70312,233 651.64062,232.5 L 651.64062,233.54687 C 650.78646,233.99479 649.84896,234.21875 648.82812,234.21875 z" />
      </g>
<!-- drawing style -->    </g>
    <g
       style="stroke-width:1;stroke-linecap:square;stroke-linejoin:miter;stroke-miterlimit:10;stroke-dasharray:none;stroke-dashoffset:0"
       id="g5561"
       transform="matrix(0.6377888,0,0,0.6377888,-463.94311,501.34444)">
      <g
         id="g5563"
         style="fill:#404040;fill-opacity:1;fill-rule:nonzero;stroke:none">
        <path
           id="path5565"
           d="M 701.77062,310.02064 C 701.77062,311.6775 700.42748,313.02064 698.77062,313.02064 C 697.11377,313.02064 695.77062,311.6775 695.77062,310.02064 C 695.77062,308.36379 697.11377,307.02064 698.77062,307.02064 C 700.42748,307.02064 701.77062,308.36379 701.77062,310.02064 z" />
      </g>
<!-- drawing style -->    </g>
    <g
       style="stroke-width:1;stroke-linecap:square;stroke-linejoin:miter;stroke-miterlimit:10;stroke-dasharray:none;stroke-dashoffset:0"
       id="g5567"
       transform="matrix(0.6377888,0,0,0.6377888,-463.94311,501.34444)">
      <g
         id="g5569"
         style="fill:none;stroke:#000000;stroke-linecap:round;stroke-linejoin:round;stroke-opacity:1">
        <path
           id="path5571"
           d="M 701.77062,310.02064 C 701.77062,311.6775 700.42748,313.02064 698.77062,313.02064 C 697.11377,313.02064 695.77062,311.6775 695.77062,310.02064 C 695.77062,308.36379 697.11377,307.02064 698.77062,307.02064 C 700.42748,307.02064 701.77062,308.36379 701.77062,310.02064 z" />
      </g>
<!-- drawing style -->    </g>
    <g
       style="stroke-width:1;stroke-linecap:square;stroke-linejoin:miter;stroke-miterlimit:10;stroke-dasharray:none;stroke-dashoffset:0"
       id="g5573"
       transform="matrix(0.6377888,0,0,0.6377888,-463.94311,501.34444)">
      <g
         id="g5575"
         style="fill:#404040;fill-opacity:1;fill-rule:nonzero;stroke:none">
        <path
           id="path5577"
           d="M 704.125,304 L 704.125,295.32812 L 708.96875,295.32812 L 708.96875,296.25 L 705.34375,296.25 L 705.34375,299.03125 L 708.375,299.03125 L 708.375,299.9375 L 705.34375,299.9375 L 705.34375,303.07812 L 709.21875,303.07812 L 709.21875,304 L 704.125,304 z" />
      </g>
<!-- drawing style -->    </g>
    <g
       style="stroke-width:1;stroke-linecap:square;stroke-linejoin:miter;stroke-miterlimit:10;stroke-dasharray:none;stroke-dashoffset:0"
       id="g6571"
       transform="matrix(0.6377888,0,0,0.6377888,-399.41293,377.52535)">
      <g
         id="g6573"
         style="fill:#006400;fill-opacity:1;fill-rule:nonzero;stroke:none">
        <path
           id="path6575"
           d="M 545.79688,303.79687 C 546.06771,303.05729 546.27604,302.33854 546.42188,301.64063 L 547.5,301.64063 C 547.29167,302.52604 546.86979,303.58333 546.23438,304.8125 L 546.35938,305.09375 C 546.40104,305.20833 546.52083,305.46875 546.71875,305.875 C 546.83333,306.125 546.96875,306.42188 547.125,306.76562 C 547.36458,307.29688 547.55729,307.70833 547.70312,308 L 546.46875,308 C 546.42708,307.90625 546.40104,307.84896 546.39062,307.82812 L 546.125,307.21875 L 545.89062,306.65625 L 545.6875,306.20312 L 545.59375,305.98437 C 545.23958,306.77604 544.8776,307.33333 544.50781,307.65625 C 544.13802,307.97917 543.67708,308.14063 543.125,308.14063 C 542.41667,308.14063 541.84896,307.86198 541.42188,307.30469 C 540.99479,306.7474 540.78125,306.01042 540.78125,305.09375 C 540.78125,304.01042 541.02604,303.13802 541.51562,302.47656 C 542.00521,301.8151 542.65104,301.48437 543.45312,301.48437 C 543.99479,301.48437 544.42708,301.64323 544.75,301.96094 C 545.07292,302.27865 545.42188,302.89062 545.79688,303.79687 z M 545.20312,305.04688 L 544.92188,304.39062 C 544.56771,303.58854 544.28125,303.04948 544.0625,302.77344 C 543.84375,302.4974 543.59896,302.35938 543.32812,302.35938 C 542.94271,302.35938 542.625,302.59896 542.375,303.07812 C 542.125,303.55729 542,304.16667 542,304.90625 C 542,305.61458 542.11719,306.1875 542.35156,306.625 C 542.58594,307.0625 542.89583,307.28125 543.28125,307.28125 C 543.61458,307.28125 543.91927,307.11979 544.19531,306.79687 C 544.47135,306.47396 544.80729,305.89062 545.20312,305.04688 z" />
      </g>
<!-- drawing style -->    </g>
  </g>
</svg>
