<?xml version="1.0" encoding="UTF-8" standalone="no"?>
<!-- Created with Inkscape (http://www.inkscape.org/) -->
<svg
   xmlns:dc="http://purl.org/dc/elements/1.1/"
   xmlns:cc="http://creativecommons.org/ns#"
   xmlns:rdf="http://www.w3.org/1999/02/22-rdf-syntax-ns#"
   xmlns:svg="http://www.w3.org/2000/svg"
   xmlns="http://www.w3.org/2000/svg"
   xmlns:sodipodi="http://sodipodi.sourceforge.net/DTD/sodipodi-0.dtd"
   xmlns:inkscape="http://www.inkscape.org/namespaces/inkscape"
   width="1635.0457"
   height="701.52045"
   id="svg2980"
   sodipodi:version="0.32"
   inkscape:version="0.46+devel"
   version="1.0"
   sodipodi:docname="c32d3.svg"
   inkscape:output_extension="org.inkscape.output.svg.inkscape">
  <defs
     id="defs2982">
    <inkscape:perspective
       sodipodi:type="inkscape:persp3d"
       inkscape:vp_x="0 : 526.18109 : 1"
       inkscape:vp_y="0 : 1000 : 0"
       inkscape:vp_z="744.09448 : 526.18109 : 1"
       inkscape:persp3d-origin="372.04724 : 350.78739 : 1"
       id="perspective2988" />
  </defs>
  <sodipodi:namedview
     id="base"
     pagecolor="#ffffff"
     bordercolor="#666666"
     borderopacity="1.0"
     inkscape:pageopacity="0.0"
     inkscape:pageshadow="2"
     inkscape:zoom="0.35"
     inkscape:cx="676.7387"
     inkscape:cy="273.77685"
     inkscape:document-units="px"
     inkscape:current-layer="layer1"
     showgrid="false"
     inkscape:window-width="1280"
     inkscape:window-height="712"
     inkscape:window-x="-5"
     inkscape:window-y="-3" />
  <metadata
     id="metadata2985">
    <rdf:RDF>
      <cc:Work
         rdf:about="">
        <dc:format>image/svg+xml</dc:format>
        <dc:type
           rdf:resource="http://purl.org/dc/dcmitype/StillImage" />
        <dc:title></dc:title>
      </cc:Work>
    </rdf:RDF>
  </metadata>
  <g
     inkscape:label="Layer 1"
     inkscape:groupmode="layer"
     id="layer1"
     transform="translate(301.7387,-104.61859)">
    <path
       style="fill:none;stroke:#000000;stroke-width:6;stroke-linecap:round;stroke-linejoin:round;stroke-miterlimit:4;stroke-opacity:1;stroke-dasharray:none;stroke-dashoffset:24.6"
       id="path2990"
       d="m -125.7322,199.49868 c 1.3885,14.3525 2.67668,28.71702 4.18507,43.05835 2.08665,21.08953 5.01271,42.07971 6.96815,63.18324 2.84272,27.58387 4.90613,55.23147 6.99409,82.87909 2.32524,33.51047 3.92422,67.06622 5.96494,100.59413 1.758095,32.71032 3.977678,65.39218 5.383184,98.12065 1.100243,28.49425 1.353427,57.01109 1.494431,85.52324 0.06806,20.54112 0.05833,41.08239 0.07784,61.62359 0.0053,5.45219 0.01221,10.90436 0.02461,16.35654 0,0 -4.990775,2.54235 -4.990775,2.54235 l 0,0 c 0.02233,-5.46572 0.03927,-10.93146 0.05525,-16.39721 0.05682,-20.56015 0.09298,-41.12045 0.04044,-61.68064 -0.11061,-28.51828 -0.319546,-57.04176 -1.41187,-85.5426 -1.38895,-32.73006 -3.60507,-65.41311 -5.35449,-98.12468 -2.03999,-33.5197 -3.63052,-67.06794 -5.99887,-100.56755 -2.11501,-27.63081 -4.1929,-55.26255 -7.07283,-82.82793 -1.9708,-21.0917 -4.91791,-42.06811 -7.02573,-63.14518 -1.53492,-14.31436 -2.8144,-28.65577 -4.32837,-42.9716 0,0 4.99493,-2.62379 4.99493,-2.62379 z" />
    <path
       style="fill:none;stroke:#000000;stroke-width:6;stroke-linecap:round;stroke-linejoin:round;stroke-miterlimit:4;stroke-opacity:1;stroke-dasharray:none;stroke-dashoffset:24.6"
       id="path2992"
       d="m -232.46438,573.55835 c 13.59681,-1.01526 27.15122,-2.46935 40.73824,-3.60151 21.11658,-0.99793 42.17948,-2.63165 63.23304,-4.51597 25.0292,-1.95208 50.034845,-4.23181 75.012789,-6.75799 30.576427,-2.64819 61.1024321,-5.77979 91.639244,-8.83505 32.126783,-3.72814 64.421207,-5.59553 96.682977,-7.69826 26.08333,-1.9444 52.25099,-1.32586 78.33095,0.20321 19.36877,1.52873 38.63486,4.01322 57.94338,6.11229 13.74516,1.21332 27.57408,2.47459 41.38024,1.85607 1.56354,-0.14308 3.12708,-0.28617 4.69063,-0.42925 0,0 -4.49433,3.32579 -4.49433,3.32579 l 0,0 c -1.5618,0.1311 -3.12359,0.26219 -4.68538,0.39329 -13.80725,0.51874 -27.62815,-0.7037 -41.36883,-1.96665 -19.2798,-2.12258 -38.51955,-4.61123 -57.86268,-6.13618 -26.03996,-1.53066 -52.16674,-2.14361 -78.21056,-0.20879 -32.253082,2.09517 -64.538503,3.95631 -96.654659,7.70037 -30.5554045,3.07085 -61.102835,6.18927 -91.695657,8.87747 -24.995675,2.52782 -50.017384,4.82247 -75.063524,6.78792 -21.07094,1.88996 -42.15334,3.49775 -63.28429,4.5503 -13.64118,1.16175 -27.25059,2.64275 -40.90385,3.66489 0,0 4.57227,-3.32195 4.57227,-3.32195 z" />
    <path
       style="fill:none;stroke:#000000;stroke-width:6;stroke-linecap:round;stroke-linejoin:round;stroke-miterlimit:4;stroke-opacity:1;stroke-dasharray:none;stroke-dashoffset:24.6"
       id="path2994"
       d="m 32.417827,482.61021 c 1.540445,-4.43933 2.842549,-11.11444 7.284159,-13.79088 2.088846,-1.2587 4.33145,-2.24254 6.497175,-3.36381 4.930769,-0.005 3.033828,5.6274 1.871447,8.47135 -2.44673,3.54123 -4.428098,8.47757 -8.15826,10.96768 -2.052722,1.37032 -4.25674,2.49918 -6.38511,3.74877 -3.668569,1.35291 -4.253828,-3.11458 -4.128483,-5.76345 0.403865,-3.7808 2.413651,-6.92062 5.566879,-8.97489 5.946257,-3.78194 9.8957,-5.00666 7.515999,1.98436 -2.490735,6.04376 -7.550087,8.80236 -12.972306,11.93165 -3.082906,-0.2804 0.661609,-5.20707 1.405175,-6.37951 2.952012,-3.26023 7.511438,-9.43939 12.366686,-7.99085 1.437361,0.78652 1.087884,2.06101 0.158608,3.07123 -0.160706,0.17084 -0.350388,0.30747 -0.532866,0.45258 0,0 -5.327752,2.05426 -5.327752,2.05426 l 0,0 c 0.200542,-0.10369 0.409287,-0.19091 0.583522,-0.34088 0.699605,-0.56043 1.769549,-1.44695 0.450422,-1.98405 -1.260288,-0.0989 -6.796102,1.46903 1.515485,-1.71397 3.404322,-1.30371 -7.221335,4.99248 -4.028582,4.17178 -0.293353,0.45261 -4.194853,5.76979 -2.173388,5.09572 -1.183163,0.70346 -2.327043,1.47764 -3.54949,2.11037 -0.556869,0.28823 1.067851,-0.66626 1.545139,-1.07293 2.240662,-1.90912 4.189398,-4.33979 5.425008,-7.00212 0.326711,-0.9204 0.84361,-1.79707 0.966605,-2.76596 0.464427,-3.65849 -7.104401,1.87804 1.947454,-3.65482 -3.237435,1.64479 -5.316287,4.87847 -5.793414,8.47008 -0.231115,2.39963 0.15588,6.34847 3.465377,4.73745 -1.083231,0.65385 -2.021268,1.65843 -3.249694,1.96154 -0.765064,0.18877 1.207208,-1.01837 1.74843,-1.59111 2.573333,-2.72323 4.592141,-5.96872 6.50781,-9.16337 1.013824,-2.29283 3.359227,-7.84021 -1.214697,-7.34961 1.071646,-0.74729 2.071036,-1.61072 3.214937,-2.24188 0.684248,-0.37754 -1.302159,0.89151 -1.823191,1.47397 -2.974592,3.32528 -4.456002,7.81404 -5.596255,12.0177 0,0 -5.102829,2.4236 -5.102829,2.4236 z" />
    <path
       style="fill:none;stroke:#000000;stroke-width:6;stroke-linecap:round;stroke-linejoin:round;stroke-miterlimit:4;stroke-opacity:1;stroke-dasharray:none;stroke-dashoffset:24.6"
       id="path2996"
       d="m -296.47661,505.45961 c 8.18526,-0.70225 16.16442,-2.67262 24.26958,-3.90954 8.35408,-1.90087 16.83862,-3.05815 25.2615,-4.59308 9.1318,-1.62024 18.40157,-2.11611 27.6545,-2.41214 9.14824,0.24454 18.20124,-1.02788 27.28157,-1.91111 8.1896,-0.38613 16.29145,-1.25577 24.40936,-2.37182 8.04648,-0.61969 16.00677,-1.68482 23.99367,-2.81149 7.08672,-0.57658 14.05889,-1.59752 21.04753,-2.86982 5.7804,-1.06598 11.65185,-1.37372 17.51457,-1.54859 5.691167,-0.92262 11.353635,-1.91311 17.099225,-2.44077 6.132249,-0.47472 12.287099,-0.47199 18.433561,-0.49938 7.309451,-0.94887 14.613356,-1.8255 21.968382,-2.33935 7.778013,-0.003 15.434955,-1.33358 23.135593,-2.24794 7.645187,-0.69672 15.282581,-0.82515 22.8869466,-1.91081 7.0407558,-1.198 14.1659074,-1.64327 21.2931714,-1.89188 7.525397,-0.20173 15.054393,-0.18746 22.581849,-0.1862 7.658898,0.15038 15.248666,0.11701 22.853961,-0.80931 7.327186,-1.07403 14.707723,-1.5683 22.101539,-1.84662 7.502344,-1.1639 15.110902,-1.64253 22.593122,-2.89979 7.59157,-1.4055 15.26205,-2.11979 22.85144,-3.52309 7.50231,-0.94124 14.92674,-2.23652 22.38195,-3.48411 7.40582,-0.7176 14.66601,-2.35298 22.02885,-3.37071 7.47955,-0.93428 14.85011,-2.48067 22.35795,-3.2545 8.10423,-1.15774 16.09464,-2.87705 24.12091,-4.45748 7.19776,-1.39711 14.53491,-1.76029 21.84642,-1.9834 5.31817,-0.12875 10.6381,-0.10891 15.95731,-0.0964 4.8744,0.0137 9.74882,0.0199 14.62324,0.0244 4.28717,0.002 8.57435,0.002 12.86152,0.002 4.45465,0.43205 8.65167,-0.40928 12.97165,-1.31659 4.16837,-0.87127 8.40515,-1.22123 12.64831,-1.45433 2.57549,-0.63024 4.64099,0.35983 7.02319,0.86977 -0.96696,0.22837 -1.93391,0.45674 -2.90087,0.68511 0,0 2.4615,-1.42534 2.4615,-1.42534 l 0,0 c -0.63534,0.78617 -1.27069,1.57235 -1.90603,2.35852 -2.35617,-0.66338 -4.4306,-1.29121 -6.96266,-0.80872 -4.23341,0.2341 -8.45878,0.6049 -12.61525,1.48356 -4.32804,0.91453 -8.55197,1.67234 -13.00947,1.27153 -4.28606,-2.1e-4 -8.57212,-4e-5 -12.85818,-0.004 -4.874,-0.003 -9.74799,-0.0138 -14.62198,-0.0258 -5.31453,-0.0112 -10.62989,-0.0316 -15.94334,0.0978 -7.30135,0.22848 -14.6265,0.60461 -21.81176,2.01497 -8.02929,1.58593 -16.02693,3.29658 -24.1377,4.43824 -7.50336,0.7926 -14.87382,2.33772 -22.35361,3.26342 -7.35789,1.03712 -14.62298,2.63721 -22.02399,3.37676 -7.45282,1.25463 -14.8826,2.51709 -22.37905,3.48751 -7.5909,1.39316 -15.2652,2.10378 -22.85476,3.51921 -7.49478,1.22178 -15.100512,1.76102 -22.615835,2.87256 -7.388441,0.28362 -14.761969,0.79622 -22.084455,1.86278 -7.61126,0.91532 -15.212216,0.91583 -22.874376,0.78239 -7.526025,0.002 -15.053644,-0.0141 -22.577469,0.19539 -7.121989,0.26026 -14.2393623,0.72129 -21.2754623,1.91547 -7.6057967,1.06913 -15.2488057,1.17991 -22.8905797,1.90572 -7.702134,0.91908 -15.363866,2.22092 -23.143318,2.2368 -7.359577,0.52103 -14.663531,1.43512 -21.98402,2.32795 -6.143445,0.0294 -12.295541,0.0355 -18.42385,0.52306 -5.746819,0.54173 -11.406975,1.56616 -17.109725,2.42669 -5.85424,0.18248 -11.71588,0.50521 -17.48614,1.58001 -6.9863,1.27315 -13.96519,2.24607 -21.045,2.85404 -7.98606,1.13535 -15.95293,2.15816 -23.99564,2.81147 -8.11789,1.1133 -16.22414,1.95228 -24.41126,2.35948 -9.08276,0.88557 -18.13994,2.13006 -27.29036,1.89513 -9.24592,0.30467 -18.50826,0.80872 -27.63059,2.44584 -8.42567,1.53293 -16.91003,2.70674 -25.27018,4.58994 -8.10849,1.25582 -16.10124,3.18818 -24.28905,3.92038 0,0 2.26209,-1.69305 2.26209,-1.69305 z" />
    <path
       style="fill:none;stroke:#000000;stroke-width:6;stroke-linecap:round;stroke-linejoin:round;stroke-miterlimit:4;stroke-opacity:1;stroke-dasharray:none;stroke-dashoffset:24.6"
       id="path2998"
       d="m 16.539401,170.85619 c 3.182965,5.43438 4.739437,11.5256 6.928769,17.3555 1.686793,3.80599 2.736954,7.75404 3.236018,11.87505 0.423495,4.0819 1.755614,7.98249 2.367696,12.05665 0.97332,4.92209 0.387761,9.62449 -0.52262,14.47459 -0.907706,4.86642 -1.264123,9.81003 -1.466926,14.7489 -0.13925,4.51919 -0.127592,9.04109 -0.12707,13.56187 0.0036,4.84732 0.01286,9.69462 0.01506,14.54194 0.0014,5.34872 7.73e-4,10.69743 5.55e-4,16.04615 0.157763,5.34986 -1.281478,10.56677 -2.059009,15.82674 -0.61323,4.50922 -0.725697,9.05835 -0.789995,13.60145 -0.03914,4.63629 -0.02384,9.27283 -0.01884,13.90922 0.818917,4.63888 1.774234,9.23251 2.344549,13.91484 0.500542,4.79943 0.504988,9.6317 0.535735,14.45159 0.01654,5.60546 0.0024,11.21095 -0.0039,16.81642 -0.123376,5.76455 -0.140083,11.44897 0.794085,17.14397 0.969293,5.24423 1.558985,10.54599 1.868243,15.86715 1.070825,5.19543 2.020935,10.38788 2.539589,15.67025 0.484753,5.93908 0.49053,11.90227 0.516427,17.85671 0.01358,6.91314 -0.0022,13.8263 -0.0075,20.73944 -0.0031,6.58086 -0.0079,13.16172 -0.0084,19.74259 3.68e-4,6.21582 0.0016,12.43165 0.0022,18.64748 5.14e-4,5.74579 5.75e-4,11.49159 6.21e-4,17.23738 -0.0055,6.60275 -6.5e-4,13.2055 -0.0036,19.80825 -0.729938,6.90744 -1.80534,13.75702 -2.335047,20.68718 -0.460778,6.86463 -0.500273,13.74691 -0.533747,20.62389 0.706632,6.43234 1.763008,12.80486 2.338668,19.25458 0.458505,5.6237 0.509291,11.26848 0.545169,16.90726 0.01797,5.66281 0.0039,11.32566 -0.0024,16.98847 -0.36055,4.76881 0.225248,9.32413 1.274557,13.9539 0.958876,4.29247 1.304377,8.67529 1.479821,13.05864 0.810358,4.71552 1.908611,9.35343 2.446939,14.1131 0.477991,5.32881 0.488602,10.68474 0.518377,16.03051 0.01927,4.92297 0.0029,9.84599 -0.0041,14.76897 -0.0074,5.54306 -0.0089,11.08612 -0.0099,16.62918 0.468909,5.14259 -0.850531,10.08042 -1.709135,15.09731 -0.55616,3.3692 -0.927579,6.77192 -1.097679,10.18263 -0.07431,0.85056 0.156901,1.60455 -0.347966,2.31522 0,0 -2.639454,1.07769 -2.639454,1.07769 l 0,0 c 0.796256,-0.41979 0.297152,-1.32269 0.44927,-2.11496 0.158041,-3.42379 0.552322,-6.83874 1.098564,-10.22118 0.846484,-5.00569 2.202507,-9.92617 1.733793,-15.05652 6.81e-4,-5.54266 0.0016,-11.08532 0.0069,-16.62797 0.0051,-4.92285 0.01693,-9.84571 0.0075,-14.76855 -0.02914,-5.33596 -0.03899,-10.68182 -0.509416,-16.00131 -0.532693,-4.76665 -1.619632,-9.41336 -2.45765,-14.13055 -0.172186,-4.36685 -0.504474,-8.73503 -1.456944,-13.01214 -1.054163,-4.65038 -1.67628,-9.22218 -1.296026,-14.01407 0.0062,-5.66209 0.01993,-11.3242 0.0027,-16.98628 -0.0346,-5.63237 -0.08278,-11.27056 -0.531161,-16.88851 -0.565791,-6.45972 -1.621912,-12.8407 -2.346113,-19.28021 0.03379,-6.88299 0.0655,-13.77128 0.525645,-20.6421 0.521846,-6.92513 1.5762,-13.77 2.343635,-20.66767 -0.0029,-6.60153 0.0019,-13.20307 -0.0036,-19.8046 1.3e-5,-5.74597 1.4e-5,-11.49194 4.1e-4,-17.23792 5.29e-4,-6.21673 0.0015,-12.43347 0.0031,-18.6502 0.0012,-6.58099 -0.0011,-13.16198 0.0086,-19.74296 0.0079,-6.9125 0.01994,-13.82502 0.0071,-20.73753 -0.02751,-5.94547 -0.03692,-11.89952 -0.510845,-17.83016 -0.513144,-5.2861 -1.453745,-10.48366 -2.549415,-15.67784 -0.302063,-5.3131 -0.875744,-10.60835 -1.848375,-15.84381 -0.945009,-5.70925 -0.950899,-11.4036 -0.815988,-17.18484 0.006,-5.60442 0.01974,-11.20888 0.0024,-16.8133 -0.03107,-4.80947 -0.03655,-9.63081 -0.525598,-14.42069 -0.560974,-4.69526 -1.515194,-9.29949 -2.356395,-13.94648 -0.0073,-4.63736 -0.02818,-9.27491 0.01532,-13.91214 0.05904,-4.55416 0.164962,-9.11373 0.773158,-13.6348 0.765648,-5.25155 2.228847,-10.45372 2.082102,-15.79228 -5.23e-4,-5.34786 -0.0012,-10.69572 -0.0052,-16.04358 -0.004,-4.84737 -0.0075,-9.69474 -0.01484,-14.54211 -0.0036,-4.52406 -0.01706,-9.04908 0.120771,-13.57162 0.196793,-4.9508 0.554428,-9.90629 1.450067,-14.78634 0.9059,-4.82411 1.547053,-9.48917 0.564299,-14.38988 -0.607676,-4.07817 -1.944638,-7.97887 -2.377653,-12.06085 -0.483817,-4.10203 -1.516888,-8.03214 -3.19436,-11.82037 -2.184212,-5.8211 -3.712893,-11.91382 -6.918354,-17.32748 0,0 2.456792,-1.39886 2.456792,-1.39886 z" />
    <path
       style="fill:none;stroke:#000000;stroke-width:6;stroke-linecap:round;stroke-linejoin:round;stroke-miterlimit:4;stroke-opacity:1;stroke-dasharray:none;stroke-dashoffset:24.6"
       id="path3000"
       d="m 447.04076,562.24549 c 8.96033,-17.19969 26.64713,-27.18208 42.78339,-36.65788 18.07934,-9.87724 36.99125,-18.39138 56.70876,-24.44948 7.893,-2.42508 16.3317,-4.3979 24.35084,-6.37942 15.96497,-3.93523 32.27553,-5.91252 48.66464,-6.79641 6.51479,-0.29061 13.03729,-0.30583 19.55664,-0.22077 3.16626,0.32252 5.50603,-1.10677 -0.61877,2.09695 1.47655,-1.1786 0.77846,-0.56501 2.09946,-1.83487 0,0 5.2475,-2.17034 5.2475,-2.17034 l 0,0 c -1.30304,1.32663 -0.62156,0.67239 -2.04832,1.95868 -5.6275,3.11324 -4.73231,3.52932 -9.27057,3.27448 -6.48366,-0.10855 -12.97107,-0.0933 -19.45063,0.19107 -16.32426,0.87201 -32.56699,2.86133 -48.46798,6.77835 -8.13408,2.01284 -16.27317,3.91013 -24.28627,6.38636 -16.35909,5.05532 -31.95608,12.0739 -47.47472,19.23841 -16.03736,9.36988 -33.65259,19.21925 -42.68206,36.20718 0,0 -5.11191,2.37769 -5.11191,2.37769 z" />
    <path
       style="fill:none;stroke:#000000;stroke-width:6;stroke-linecap:round;stroke-linejoin:round;stroke-miterlimit:4;stroke-opacity:1;stroke-dasharray:none;stroke-dashoffset:24.6"
       id="path3002"
       d="m 650.45583,457.53621 c 9.21797,3.95916 18.859,6.72803 28.49477,9.45481 5.60118,2.08666 12.02604,3.63858 16.24355,8.16645 1.86017,5.95777 -5.27965,10.20147 -9.1636,13.35831 -10.81408,7.92713 -21.84139,15.55203 -32.51286,23.67478 -9.84322,7.59803 -19.57313,15.13652 -30.39502,21.27415 -0.67073,0.26417 -1.34145,0.52833 -2.01218,0.79249 0,0 4.44538,-3.50053 4.44538,-3.50053 l 0,0 c 0.65165,-0.27519 1.30331,-0.55037 1.95496,-0.82555 -0.70205,0.44447 -2.76175,1.84394 -2.10615,1.33342 7.5078,-5.84633 15.56868,-11.03449 22.97783,-17.02723 10.64495,-8.12143 21.63608,-15.75841 32.45971,-23.63544 3.59456,-2.90766 10.7481,-6.9529 9.5082,-12.49674 -4.1827,-4.40667 -10.50442,-5.90501 -16.00255,-7.96097 -9.66074,-2.7575 -19.32241,-5.55686 -28.59044,-9.47685 0,0 4.6984,-3.1311 4.6984,-3.1311 z" />
    <path
       style="fill:none;stroke:#000000;stroke-width:6;stroke-linecap:round;stroke-linejoin:round;stroke-miterlimit:4;stroke-opacity:1;stroke-dasharray:none;stroke-dashoffset:24.6"
       id="path3004"
       d="m 948.22812,248.10114 c -0.28573,15.00321 0.96666,29.97591 1.63736,44.95586 1.59303,21.76308 2.7509,43.55071 4.22077,65.32182 1.54804,25.1174 3.39953,50.21663 5.31306,75.30918 1.75612,25.32967 3.69398,50.64693 5.71634,75.95708 2.00511,23.58515 3.50873,47.20561 5.25928,70.80925 1.88121,22.40771 2.71663,44.87787 3.17965,67.35328 0.96134,20.62595 1.92454,41.24654 3.48391,61.83628 1.62837,18.2598 1.61191,36.60773 2.72309,54.89196 0.89414,8.34592 0.97554,16.75017 0.55138,25.12485 0,0 -5.04149,2.53313 -5.04149,2.53313 l 0,0 c 0.51941,-8.37177 0.49099,-16.78109 -0.3961,-25.13102 -1.1015,-18.28859 -1.04188,-36.64171 -2.67963,-54.9053 -1.54862,-20.60357 -2.51526,-41.23661 -3.47227,-61.87585 -0.45778,-22.46891 -1.26664,-44.93372 -3.15193,-67.33487 -1.75464,-23.60529 -3.2378,-47.22958 -5.23768,-70.81716 -2.01238,-25.31278 -3.95363,-50.63151 -5.70882,-75.96311 -1.90961,-25.09081 -3.7745,-50.18666 -5.33848,-75.30108 -1.4807,-21.76585 -2.65559,-43.54792 -4.28143,-65.30413 -0.6884,-14.96302 -1.94054,-29.91214 -1.80468,-44.89844 0,0 5.02767,-2.56173 5.02767,-2.56173 z" />
    <path
       style="fill:none;stroke:#000000;stroke-width:6;stroke-linecap:round;stroke-linejoin:round;stroke-miterlimit:4;stroke-opacity:1;stroke-dasharray:none;stroke-dashoffset:24.6"
       id="path3006"
       d="m 873.56703,613.19113 c 13.82395,-2.68313 27.75972,-4.59599 41.69897,-6.55146 21.32255,-3.02107 42.50552,-6.89668 63.7643,-10.30915 26.2602,-4.31602 52.5453,-8.45052 78.8316,-12.60546 27.0987,-3.92249 54.3495,-6.70356 81.6686,-8.49665 22.4827,-1.543 45.0345,-1.05288 67.5338,-2.01212 2.8731,-0.16718 5.7465,-0.32846 8.6193,-0.50153 6.7275,-0.40529 13.6462,-0.58418 20.1793,-2.45266 1.4368,-0.41091 2.7653,-1.14367 4.1904,-1.59333 0.6252,-0.19728 -1.1878,0.55554 -1.7817,0.83331 0.7019,-0.60335 1.4039,-1.2067 2.1058,-1.81005 0,0 5.2245,-2.12689 5.2245,-2.12689 l 0,0 c -0.6969,0.6346 -1.3938,1.26919 -2.0907,1.90379 -2.6222,1.54922 -5.1531,3.26487 -7.8668,4.64765 -9.95,5.06999 -22.3705,2.79634 -32.9884,4.33029 -22.4741,0.89436 -44.996,0.43046 -67.4513,1.96806 -27.3045,1.79725 -54.542,4.57865 -81.6232,8.5237 -26.2989,4.15812 -52.5952,8.30535 -78.86659,12.6338 -21.28091,3.44328 -42.49168,7.31095 -63.83841,10.3509 -13.98755,1.96466 -27.96089,3.94833 -41.83246,6.64067 0,0 4.52299,-3.37287 4.52299,-3.37287 z" />
    <path
       style="fill:none;stroke:#000000;stroke-width:6;stroke-linecap:round;stroke-linejoin:round;stroke-miterlimit:4;stroke-opacity:1;stroke-dasharray:none;stroke-dashoffset:24.6"
       id="path3008"
       d="m -180.91618,232.04856 c 7.17935,-5.25365 12.61204,-12.29998 17.8886,-19.36527 4.53923,-7.01062 8.96468,-14.10868 13.94546,-20.81738 3.07445,-4.5948 6.59946,-8.86354 10.71758,-12.55526 4.33494,-3.20838 9.26622,-8.47516 14.85361,-5.90809 3.19152,3.1691 4.78105,7.56467 6.77973,11.51838 3.12302,6.55221 6.55293,12.93112 10.19857,19.20759 2.72656,4.74391 5.88283,9.09886 9.518774,13.17688 0,0 -4.827824,2.91892 -4.827824,2.91892 l 0,0 c -3.63821,-4.12289 -6.81148,-8.51126 -9.55653,-13.28503 -3.64939,-6.28618 -7.07633,-12.67832 -10.23174,-19.22542 -1.94364,-3.82132 -3.47377,-8.14042 -6.60553,-11.16415 -3.30032,-1.32174 -3.75016,0.80318 0.32747,-2.98645 3.37365,-3.13538 -8.72524,5.46443 -5.21585,3.61471 -4.17167,3.62588 -7.73786,7.85804 -10.79489,12.46297 -5.05352,6.66384 -9.45483,13.8002 -13.97871,20.82893 -5.24001,7.0842 -10.63812,14.17102 -17.76872,19.4718 0,0 -5.25,2.10687 -5.25,2.10687 z" />
    <path
       style="fill:none;stroke:#000000;stroke-width:6;stroke-linecap:round;stroke-linejoin:round;stroke-miterlimit:4;stroke-opacity:1;stroke-dasharray:none;stroke-dashoffset:24.6"
       id="path3010"
       d="m 315.82004,537.17173 c 5.97973,1.98784 12.09723,3.73338 17.7825,6.48379 3.41471,1.64582 6.88076,2.96652 9.89027,5.30704 0.74736,0.71452 2.46243,1.59935 1.24058,2.59976 -9.46403,5.65737 -5.16854,3.81658 -15.6407,8.82384 -2.50515,1.23729 -13.38519,7.35954 -20.64437,11.28172 -8.47706,4.87319 1.62371,-0.8769 -6.60048,3.63411 -0.66644,0.36555 2.30827,-1.746 2.03002,-1.03866 -0.49428,1.25656 -4.68222,3.06678 -5.90544,3.7841 -6.5006,3.26596 -3.88805,3.18825 -7.20978,3.08257 0,0 4.59488,-3.35447 4.59488,-3.35447 l 0,0 c 2.34619,-0.19528 1.17155,-0.24556 -2.67215,2.30227 6.76605,-3.87144 13.14427,-8.42177 20.1323,-11.92884 9.44786,-5.14101 11.31643,-6.02017 20.67841,-11.27424 11.39466,-5.52065 -15.47004,9.00373 7.11557,-3.71925 1.08023,-0.60852 -2.10198,1.31893 -3.19368,1.90663 -0.71523,0.38504 2.18595,-1.49697 2.05367,-1.31178 0.70611,-0.89631 1.52485,0.33032 -0.78599,-1.75788 -2.97581,-2.29765 -6.44739,-3.56095 -9.79258,-5.22666 -5.69444,-2.69678 -11.77157,-4.48286 -17.7548,-6.41752 0,0 4.68177,-3.17653 4.68177,-3.17653 z" />
    <path
       style="fill:none;stroke:#000000;stroke-width:6;stroke-linecap:round;stroke-linejoin:round;stroke-miterlimit:4;stroke-opacity:1;stroke-dasharray:none;stroke-dashoffset:24.6"
       id="path3012"
       d="m 332.97905,601.81883 c -5.24273,10.87065 -12.34155,20.64502 -19.38045,30.39115 -7.19124,9.76069 -14.67373,19.34044 -23.9215,27.23702 -0.96074,0.73014 -1.92148,1.46028 -2.88223,2.19041 0,0 -5.22128,2.07723 -5.22128,2.07723 l 0,0 c 0.97155,-0.72308 1.94311,-1.44615 2.91466,-2.16923 9.3379,-7.80252 16.83557,-17.3843 24.04029,-27.13972 7.00702,-9.70178 14.13138,-19.40591 19.29897,-30.25614 0,0 5.15154,-2.33072 5.15154,-2.33072 z" />
    <path
       style="fill:none;stroke:#000000;stroke-width:6;stroke-linecap:round;stroke-linejoin:round;stroke-miterlimit:4;stroke-opacity:1;stroke-dasharray:none;stroke-dashoffset:24.6"
       id="path3014"
       d="m 293.00101,612.20599 c 8.44148,5.71816 15.33897,13.31048 21.75308,21.15392 5.26525,6.99322 11.22294,13.44248 16.14757,20.68586 0.3918,0.61802 0.7836,1.23604 1.1754,1.85407 0,0 -4.88855,2.8468 -4.88855,2.8468 l 0,0 c -0.38335,-0.61574 -0.76669,-1.23148 -1.15003,-1.84722 -4.86998,-7.25715 -10.81071,-13.69881 -16.06132,-20.67709 -6.3935,-7.80012 -13.25904,-15.37332 -21.73415,-20.96985 0,0 4.758,-3.04649 4.758,-3.04649 z" />
    <path
       style="fill:none;stroke:#000000;stroke-width:6;stroke-linecap:round;stroke-linejoin:round;stroke-miterlimit:4;stroke-opacity:1;stroke-dasharray:none;stroke-dashoffset:24.6"
       id="path3016"
       d="m -279.37506,155.87105 c 3.57616,7.53713 7.62507,14.80137 13.05304,21.15518 2.21875,2.14035 5.24603,4.4578 8.6056,3.77911 0.71581,-0.14461 2.6806,-1.15818 1.99776,-0.89928 -1.02663,0.38924 -2.02025,0.86052 -3.03037,1.29079 4.28479,-4.15468 6.99987,-9.46281 9.8318,-14.63287 0.51984,-3.09883 6.59889,-11.81052 9.32498,-5.42945 2.56196,6.65497 4.64226,13.47884 7.14189,20.15868 4.25751,10.13971 7.54611,20.6428 10.68969,31.16993 3.12319,10.78848 3.30745,17.00498 -4.02671,25.83162 -14.35131,11.31231 -32.17148,13.46653 -49.81431,13.7631 -12.91057,-1.83309 -6.69617,-0.65691 -18.66128,-3.43158 0,0 4.50648,-3.12018 4.50648,-3.12018 l 0,0 c 11.89406,2.74325 5.71446,1.596 18.55748,3.33968 9.51141,-0.21711 18.56859,-0.87633 27.82724,-3.26173 2.42278,-0.62421 4.74269,-1.60569 7.15839,-2.25671 0.31766,-0.0856 0.6956,0.21852 0.98503,0.0621 1.52111,-0.82212 2.86095,-1.94257 4.29143,-2.91386 7.50128,-8.55711 7.34227,-14.65206 4.2885,-25.34118 -3.12059,-10.51918 -6.41666,-21.00707 -10.69116,-31.12427 -2.5164,-6.66056 -4.59928,-13.47167 -7.19632,-20.09974 -1.40351,-3.28251 -1.06105,-1.12979 3.75397,-5.12316 0.14228,-0.11799 -0.3305,0.18116 -0.45343,0.3192 -1.28478,1.44283 -1.59601,3.51716 -2.53331,5.14983 -2.82223,5.21436 -5.56783,10.52798 -9.73882,14.82495 -7.61794,4.93641 -10.54302,7.6477 -17.63613,0.84567 -5.41189,-6.42415 -9.46439,-13.72412 -13.14502,-21.2581 0,0 4.91358,-2.79772 4.91358,-2.79772 z" />
    <path
       style="fill:none;stroke:#000000;stroke-width:6;stroke-linecap:round;stroke-linejoin:round;stroke-miterlimit:4;stroke-opacity:1;stroke-dasharray:none;stroke-dashoffset:24.6"
       id="path3018"
       d="m 1256.1301,562.50433 c 7.8162,1.13054 15.6912,1.73932 23.5719,2.18199 4.1152,0.13581 9.8653,0.49187 11.9032,4.7141 -0.1059,4.08096 -4.0693,6.62705 -6.9605,8.93346 -5.7655,4.79262 -12.2223,8.65471 -17.8922,13.55555 -3.813,2.94628 -7.077,6.35825 -9.1608,10.71609 -0.4866,1.20516 -0.2813,0.64338 -0.6325,1.67921 0,0 -5.1528,2.42392 -5.1528,2.42392 l 0,0 c 0.3399,-1.08239 0.1394,-0.49708 0.6195,-1.74963 2.037,-4.45265 5.2102,-7.99737 9.1201,-10.95342 5.6125,-4.97326 12.1063,-8.77999 17.8696,-13.57797 2.8185,-2.18929 6.4461,-4.5248 7.2454,-8.22773 -1.8347,-4.02552 -7.8011,-4.01619 -11.5296,-4.23332 -7.8954,-0.47604 -15.7825,-1.11143 -23.6197,-2.20588 0,0 4.6184,-3.25637 4.6184,-3.25637 z" />
    <path
       style="fill:none;stroke:#000000;stroke-width:6;stroke-linecap:round;stroke-linejoin:round;stroke-miterlimit:4;stroke-opacity:1;stroke-dasharray:none;stroke-dashoffset:24.6"
       id="path3020"
       d="m 1291.0893,642.04306 c 0.033,7.60746 -0.446,15.21231 0.7861,22.74518 0.3432,1.61401 0.6342,7.72419 3.6861,6.12338 -7.1739,4.48034 -3.0571,1.06759 -1.6557,-1.1726 1.455,-2.3258 2.9394,-4.61124 4.4896,-6.87564 2.8813,-4.12198 5.6242,-8.27934 9.7884,-11.2087 2.0102,-1.01266 3.9039,-2.30035 6.0304,-3.03799 1.7198,-0.59657 3.9685,6.95456 4.2161,7.94413 0.8001,5.60505 1.7357,11.19873 3.2623,16.65872 0.5479,0.93586 1.6814,7.44261 3.2209,6.67308 0,0 -4.6019,3.35683 -4.6019,3.35683 l 0,0 c -2.537,-0.71218 -2.4624,-5.36635 -3.5684,-7.33439 -1.5491,-5.45693 -2.5015,-11.05617 -3.284,-16.66701 -0.5023,-2.03876 -0.9472,-4.1292 -2.1469,-5.90268 -0.9956,-1.4717 -1.6353,-1.25941 -1.6146,-1.27818 1.1127,-1.0101 2.5092,-1.65447 3.7638,-2.4817 -4.279,2.7833 -7.0197,6.8934 -9.8936,11.02352 -4.031,5.84018 -5.5686,10.57578 -12.5163,13.77144 -3.594,0.33102 -3.6569,-4.44363 -4.1571,-6.95226 -1.2233,-7.5621 -0.7586,-15.18325 -0.8409,-22.81934 0,0 5.0357,-2.56579 5.0357,-2.56579 z" />
    <path
       style="fill:none;stroke:#000000;stroke-width:6;stroke-linecap:round;stroke-linejoin:round;stroke-miterlimit:4;stroke-opacity:1;stroke-dasharray:none;stroke-dashoffset:24.6"
       id="path3022"
       d="m 909.55157,280.08555 c 1.9548,-6.17069 4.3149,-12.09263 8.52569,-17.05866 4.99146,-5.20218 11.44825,-5.82445 17.87158,-7.55489 4.60187,-1.3224 9.17924,-1.74836 13.88496,-0.94409 4.12762,0.79866 7.85931,2.9095 11.08953,5.5423 3.26067,2.4068 5.94579,5.45613 9.06505,8.0356 2.21817,1.4432 3.89245,3.92309 6.34401,4.98299 0.98429,0.29897 0.50548,0.17518 1.43416,0.38013 0,0 -4.68769,3.23564 -4.68769,3.23564 l 0,0 c -0.9673,-0.26264 -0.46724,-0.1058 -1.49657,-0.4819 -2.40633,-1.28028 -4.17424,-3.55672 -6.39887,-5.11207 -3.09534,-2.59816 -5.79655,-5.62824 -9.0537,-8.0317 -3.20135,-2.54833 -6.85572,-4.57766 -10.92496,-5.30078 -4.66027,-0.72263 -9.20667,-0.16399 -13.74127,1.1341 -0.86598,0.22687 -15.7151,4.28398 -6.37078,0.52425 0.70724,-0.28456 -1.2095,0.9283 -1.81425,1.39246 -4.30222,4.85565 -6.71174,10.68239 -8.60584,16.85158 0,0 -5.12105,2.40504 -5.12105,2.40504 z" />
    <path
       style="fill:none;stroke:#000000;stroke-width:6;stroke-linecap:round;stroke-linejoin:round;stroke-miterlimit:4;stroke-opacity:1;stroke-dasharray:none;stroke-dashoffset:24.6"
       id="path3024"
       d="m 849.201,233.37212 c 3.18998,8.84596 6.76021,17.49529 10.73404,26.01264 2.11395,4.67713 3.27921,10.14702 7.6273,13.29518 2.1966,0.27554 2.73909,0.16434 -3.26742,2.28645 -0.44417,0.15693 0.6951,-0.64504 0.97089,-1.02696 1.31782,-1.82494 1.91725,-4.20584 2.66053,-6.28655 2.00392,-6.83357 4.43571,-13.43721 7.65808,-19.78436 1.59242,-2.66627 3.05339,-5.40638 4.50451,-8.15083 0,0 5.14563,-2.3139 5.14563,-2.3139 l 0,0 c -1.45298,2.74645 -2.89286,5.50269 -4.52337,8.15007 -3.23717,6.32196 -5.74519,12.86588 -7.67586,19.71085 -1.47679,4.22418 -3.75789,12.28086 -10.2691,10.45024 -4.33232,-3.32812 -5.60616,-8.75443 -7.70273,-13.57454 -3.95745,-8.5283 -7.51684,-17.18474 -10.78535,-26.00347 0,0 4.92285,-2.76482 4.92285,-2.76482 z" />
    <path
       style="fill:none;stroke:#000000;stroke-width:6;stroke-linecap:round;stroke-linejoin:round;stroke-miterlimit:4;stroke-opacity:1;stroke-dasharray:none;stroke-dashoffset:24.6"
       id="path3026"
       d="m 790.39277,562.12978 c 9.04435,-0.0827 18.10036,0.32274 27.12536,-0.33832 10.68011,-0.86405 21.25912,-2.49389 31.64974,-5.10053 13.12125,-3.1475 26.264,-6.21204 39.21582,-10.00947 15.21102,-3.72515 30.16813,-8.33764 45.07041,-13.12764 17.00774,-5.25585 33.61286,-11.71696 49.9853,-18.68243 19.0317,-7.42733 37.2005,-16.79291 55.0281,-26.71558 17.3629,-9.54989 34.284,-19.88218 50.7972,-30.83014 16.8353,-11.57352 32.2065,-25.05875 47.3531,-38.71969 14.4807,-12.76363 27.0672,-27.41418 39.8705,-41.79992 12.4122,-13.65831 24.5745,-27.52139 36.0367,-41.98594 10.0234,-13.27947 20.5615,-26.19053 29.8304,-40.01696 8.103,-12.31198 16.0927,-24.70351 23.9538,-37.1724 6.8351,-11.13611 15.2219,-21.16269 22.4146,-32.05018 4.9434,-6.79734 8.6741,-14.14601 10.7394,-22.27972 0,0 5.0849,-2.43455 5.0849,-2.43455 l 0,0 c -2.056,8.20213 -5.7122,15.64409 -10.7288,22.48153 -7.1719,10.91283 -15.5947,20.91826 -22.4486,32.0528 -7.8595,12.4801 -15.871,24.86784 -23.9673,37.19451 -9.2381,13.86585 -19.8236,26.76047 -29.8353,40.06748 -11.4645,14.47751 -23.614,28.36498 -36.0445,42.02334 -12.8098,14.39554 -25.3819,29.07602 -39.86,41.86007 -15.1408,13.6822 -30.5141,27.17884 -47.329,38.79707 -19.489,12.9533 -39.6483,24.85189 -60.0963,36.22605 -17.854,9.91059 -36.04903,19.25271 -55.09305,26.69358 -16.39569,6.94565 -33.01255,13.4075 -50.03634,18.65926 -14.9133,4.78941 -29.88786,9.37204 -45.09999,13.13197 -12.97153,3.77643 -26.12505,6.85125 -39.25687,10.01259 -10.42193,2.56606 -21.02618,4.20226 -31.73022,5.03996 -9.05367,0.60594 -18.13159,0.21961 -27.20134,0.34521 0,0 4.57228,-3.32195 4.57228,-3.32195 z" />
    <path
       style="fill:none;stroke:#000000;stroke-width:6;stroke-linecap:round;stroke-linejoin:round;stroke-miterlimit:4;stroke-opacity:1;stroke-dasharray:none;stroke-dashoffset:24.6"
       id="path3028"
       d="m 1167.9465,803.13903 c -4.7134,-7.95683 -8.8438,-16.23656 -13.402,-24.28369 -5.6047,-9.73196 -9.9479,-20.1545 -14.3648,-30.46685 -5.5181,-13.09377 -11.2125,-26.09818 -17.1555,-39.0036 -7.6943,-15.70391 -12.4628,-32.52007 -17.2789,-49.25905 -5.2435,-19.37076 -11.8121,-38.33516 -17.9641,-57.42808 -7.1504,-21.89381 -11.7363,-44.52292 -14.9457,-67.29744 -3.4452,-28.5125 -4.9199,-57.17846 -5.8401,-85.86523 -0.5535,-32.59269 1.7147,-65.12129 4.0299,-97.60604 2.3244,-30.16508 6.2141,-60.19735 11.5904,-89.9647 4.0923,-24.89935 11.1602,-49.0022 20.469,-72.40882 7.1599,-17.00188 16.4189,-32.99035 26.3918,-48.47175 6.3613,-9.40641 13.2615,-18.52336 21.4131,-26.45561 3.4025,-3.3862 1.7988,-1.76794 4.8175,-4.84835 0,0 5.2031,-2.16123 5.2031,-2.16123 l 0,0 c -3.0381,3.09756 -1.426,1.47029 -4.8423,4.87604 -8.2375,7.85435 -15.1318,17.00083 -21.5472,26.37349 -10.0153,15.45586 -19.308,31.42986 -26.5164,48.41173 -9.3623,23.37721 -16.4759,47.45641 -20.5879,72.34582 -5.4096,29.75398 -9.3144,59.77908 -11.6596,89.93496 -2.3308,32.46545 -4.5976,64.97518 -4.0406,97.54993 0.9222,28.6591 2.4361,57.2938 5.8835,85.77756 3.2121,22.73938 7.8096,45.33 14.9479,67.19081 6.1523,19.09645 12.7531,38.05389 18.0009,57.42743 4.8159,16.70777 9.5769,33.49756 17.2707,49.16827 5.961,12.90119 11.6716,25.90196 17.1988,38.99608 4.4272,10.28497 8.7646,20.68672 14.3624,30.39795 4.562,8.05609 8.6871,16.34984 13.4797,24.27265 0,0 -4.9136,2.79772 -4.9136,2.79772 z" />
    <path
       style="fill:none;stroke:#000000;stroke-width:6;stroke-linecap:round;stroke-linejoin:round;stroke-miterlimit:4;stroke-opacity:1;stroke-dasharray:none;stroke-dashoffset:24.6"
       id="path3030"
       d="m 1075.7417,475.15344 c -6.521,3.07441 -13.3921,5.53756 -20.6775,4.81902 -5.6895,-1.92614 -5.5979,-6.86869 -3.7351,-11.67759 3.0712,-6.30012 8.3704,-10.63503 13.9424,-14.61827 6.6568,-4.4259 13.3115,-8.48414 21.3762,-6.70053 5.2024,2.23797 6.2874,7.03579 6.1475,12.20296 -1.0347,7.20869 -6.1236,12.3125 -11.9763,16.1302 -9.4324,5.46847 -14.6111,7.6851 -25.019,5.09446 -6.3446,-2.11253 -8.4557,-7.63362 -8.8905,-13.84091 0.8875,-8.50902 8.1633,-11.53324 14.8542,-15.36172 5.592,-2.03569 10.0253,-0.82906 14.2875,3.05519 3.3039,3.93725 3.3485,8.62091 2.0231,13.35141 -3.3298,6.97004 -10.9179,11.2953 -18.2896,12.78205 -5.8272,1.02478 -9.5695,-1.45101 -12.1907,-6.42788 -1.8879,-4.76306 -0.3566,-9.51945 2.7782,-13.30286 6.6556,-5.42735 11.3444,-7.46338 19.0948,-4.86529 4.9148,2.35276 6.129,6.35373 4.8864,11.34384 -2.6182,6.70974 -9.5025,9.72452 -15.3817,13.07456 -5.1654,1.72022 -6.9944,-2.16273 -7.5467,-6.54621 0.2466,-5.77257 2.9415,-10.61456 6.9419,-14.60081 5.4699,-4.33358 11.826,-9.17115 17.7137,-3.76274 4.5722,4.82731 4.9652,10.89276 4.2772,17.17443 -1.2807,6.82491 -5.1599,12.28784 -10.7299,16.2719 -7.7354,4.69399 -11.7988,6.56654 -16.8659,-1.43051 -3.2971,-7.41174 -2.0543,-15.22858 0.7375,-22.54685 4.6899,-7.87379 12.4833,-15.14158 21.8702,-16.45073 7.791,0.39515 10.1747,6.54199 11.7454,13.20278 1.8427,8.30939 -0.6781,15.59464 -4.9462,22.62447 -5.8638,6.66025 -14.2145,12.00927 -23.2835,11.07053 -7.3461,-2.18223 -8.6955,-9.36308 -8.2763,-16.11144 1.5413,-9.26285 7.9825,-15.42963 15.5863,-20.22117 8.787,-5.19827 15.4507,-8.14573 24.9283,-3.84631 5.0651,3.2154 4.4883,7.69003 1.5185,12.16669 -5.5226,5.96613 -13.2367,8.89091 -21.2117,8.92642 -6.2566,-0.0659 -10.9269,-2.97639 -14.1453,-8.18914 -1.9129,-3.45833 -2.2085,-7.45419 0.8446,-10.24392 6.7545,-4.33347 8.7789,-5.04625 13.3486,1.42144 2.2552,4.32695 2.5887,8.62733 0.094,12.84471 -2.804,3.38164 -10.0422,9.55658 -14.1962,8.50263 -3.4323,-3.2623 -1.4927,-8.35252 0.069,-12.08293 3.6246,-6.81772 9.3836,-9.53763 16.0903,-12.80742 5.4416,0.071 7.113,4.81484 8.1801,9.35202 0.3358,4.87326 -0.3968,9.57955 -3.0093,13.73287 -3.5113,4.6234 -8.0315,6.54044 -12.149,2.84186 -2.9926,-3.77098 -2.0885,-8.1518 -0.723,-12.3711 2.5232,-5.06518 8.3792,-9.34397 14.1781,-7.77301 4.5015,2.67239 4.3988,7.56505 3.5077,12.13797 -2.1212,5.56993 -7.0982,10.45547 -13.5375,10.5517 0,0 4.5758,-3.35784 4.5758,-3.35784 l 0,0 c 2.982,-0.24445 1.1425,-0.34186 -1.7419,2.16935 -0.5282,0.45988 1.2467,-0.6553 1.7975,-1.08788 1.8949,-1.48818 2.8843,-3.67096 3.8263,-5.81597 0.9197,-4.21094 1.2659,-9.00862 -3.0892,-11.3751 -2.9362,-0.60341 -6.0866,1.20475 -0.338,-2.42502 0.5336,-0.33695 -1.0211,0.74586 -1.4896,1.16863 -1.7065,1.53966 -1.4213,1.40815 -2.5725,3.40241 -1.341,3.98164 -2.4705,8.17538 0.4246,11.77794 0.8981,0.75895 2.0189,1.75092 3.3079,1.72929 0.4183,-0.007 1.5407,-0.55272 1.2235,-0.27988 -7.2175,6.20885 -3.114,1.79932 -2.388,0.9779 2.7574,-3.94504 3.4434,-8.5675 3.2245,-13.32615 -0.9727,-4.24978 -2.4635,-8.88923 -7.6841,-8.56897 0.9411,-0.70418 2.1524,-1.14738 2.8232,-2.11254 0.4864,-0.69996 -1.52,0.78057 -2.2277,1.2557 -2.9598,1.98711 -5.1469,4.91746 -7.0857,7.84968 -1.419,3.20467 -3.6887,8.32038 -0.5367,11.1802 2.5875,0.26001 1.0289,-0.13968 -2.236,2.3921 -2.9833,2.31344 10.0333,-6.43002 6.6005,-5.35821 2.6523,-3.94972 2.3682,-8.05189 0.2034,-12.24712 -1.0907,-1.52873 -2.274,-3.01713 -4.016,-3.8712 -2.3167,-1.13585 -3.4211,0.1377 -2.8937,-0.3135 1.096,-0.93759 2.4723,-1.48615 3.7084,-2.22922 -3.302,2.29356 -3.0362,6.23539 -1.2339,9.52197 3.1405,5.08347 7.7424,7.71742 13.8129,7.71092 3.3515,-0.0917 3.2579,0.0881 6.5335,-0.7109 7.2708,-1.77352 0.8273,-0.9541 0.6881,0.70076 -0.1516,1.80119 4.7837,-4.59254 4.2667,-3.34664 2.9584,-4.11853 3.9176,-8.26543 -1.0453,-11.29753 -4.0929,-1.7961 -7.5612,-2.3877 -12.0227,-1.45517 -1.2974,0.27119 -2.5092,0.98938 -3.8329,1.05883 -0.4122,0.0216 0.5653,-0.60148 0.848,-0.90222 -7.5893,4.59883 -14.1178,10.60601 -15.7855,19.7283 -0.4891,6.45527 0.6689,13.44317 7.8427,15.35478 8.3963,0.59829 8.4047,-0.37041 13.5661,-5.53238 4.2945,-6.87774 6.9406,-14.00949 5.1314,-22.22661 -1.4873,-6.42081 -3.7088,-12.38673 -11.3017,-12.48527 -1.0087,0.18469 -2.1521,1.09046 -3.0261,0.55408 -0.6225,-0.38205 2.3293,-1.76121 1.7231,-1.35373 -4.4521,2.99267 -8.3318,6.81566 -10.9754,11.50829 -2.8304,7.12601 -4.1681,14.7885 -0.9526,22.0637 1.2543,1.95535 2.5184,3.9772 4.8904,4.73982 0.6729,0.21635 1.3942,0.31209 2.1007,0.28973 0.7891,-0.025 2.4788,-1.20514 2.3292,-0.42993 -0.1966,1.0188 -1.7212,1.15926 -2.5818,1.73889 5.634,-3.75659 9.582,-9.12454 10.9483,-15.84402 0.7341,-6.09937 0.4486,-12.01382 -4.0503,-16.68568 -1.7195,-1.50666 -3.1684,-2.48038 -5.6006,-2.13459 -0.763,0.10848 -2.3609,1.42894 -2.212,0.67276 0.1813,-0.92115 1.618,-2.06325 2.377,-1.51071 0.745,0.5423 -1.5027,1.06683 -2.254,1.60024 -4.0197,3.83597 -6.7742,8.44005 -7.1493,14.126 0.476,4.18928 2.1052,7.55959 6.9399,5.62812 -0.9077,0.5534 -1.7297,1.2816 -2.7231,1.6602 -0.7796,0.29711 1.3882,-0.92629 2.0677,-1.41041 2.7822,-1.98237 5.3709,-3.98373 6.5313,-7.3409 1.4121,-5.10162 0.5527,-8.12969 -4.455,-10.60681 -2.4907,-0.79142 -4.6331,-1.47986 -7.2845,-0.95709 -0.848,0.16719 -2.5474,1.64701 -2.4708,0.78612 0.091,-1.024 1.6831,-1.18262 2.5545,-1.728 0.6922,-0.43315 -1.344,0.92735 -2.0161,1.39103 -3.1955,3.49531 -4.8413,8.0684 -3.0703,12.69163 2.523,4.84194 6.1858,6.91278 11.7611,5.83034 1.0288,-0.24356 2.1658,-1.25061 3.0864,-0.73069 0.6804,0.38425 -2.6204,1.61776 -1.8642,1.42096 3.3665,-0.87623 5.9113,-4.8802 7.4773,-7.64641 1.4173,-4.49161 1.455,-9.01643 -1.7238,-12.791 -4.1599,-3.73786 -8.5504,-4.65442 -13.8675,-2.4945 0.7552,-0.46454 2.5504,-2.23331 2.2657,-1.3936 -0.3058,0.90183 -1.5854,1.05729 -2.346,1.63027 -0.7099,0.53476 -1.4428,1.05276 -2.0621,1.69033 -1.3028,1.34144 -2.2229,2.87419 -2.7957,4.65545 -0.2756,0.8571 -0.3487,1.76656 -0.523,2.64984 0.3232,6.00999 2.3463,11.28573 8.5178,13.23088 3.2626,0.77709 6.2311,1.4814 9.612,0.95664 1.1575,-0.17967 2.2921,-0.49341 3.4172,-0.81932 1.1747,-0.34026 2.252,-1.17772 3.4749,-1.17712 0.5972,3e-4 -0.8996,0.78545 -1.3495,1.17818 5.8447,-3.60279 10.9818,-8.57037 12.1699,-15.61754 0.1955,-4.90175 -0.6726,-9.52457 -5.746,-11.52083 -2.6479,-0.49425 -5.0839,-0.63364 -7.7431,0.0639 -0.9847,0.25827 -1.9144,1.4154 -2.8661,1.05418 -0.7494,-0.2844 2.7176,-1.64566 1.9547,-1.4001 -1.0521,0.33861 -1.902,1.12614 -2.853,1.68922 -5.5507,3.92377 -10.8974,8.1137 -14.0536,14.31782 -1.8703,4.41914 -2.3138,9.12252 3.2083,10.76558 7.2444,0.53162 14.0467,-1.96314 20.4991,-5.07332 0,0 -4.4154,3.53193 -4.4154,3.53193 z" />
    <path
       style="fill:none;stroke:#000000;stroke-width:6;stroke-linecap:round;stroke-linejoin:round;stroke-miterlimit:4;stroke-opacity:1;stroke-dasharray:none;stroke-dashoffset:24.6"
       id="path3032"
       d="m 1059.0838,483.47713 c 7.8035,-6.36639 15.9617,-12.28934 24.1123,-18.20083 12.1627,-9.3295 24.9546,-17.80073 37.7241,-26.27008 15.3968,-10.25867 31.4316,-19.54108 47.6733,-28.3895 13.2005,-7.09142 26.6092,-13.70215 40.0937,-20.22784 7.2086,-3.22403 14.1236,-7.02884 21.4352,-10.0214 -7.143,3.81885 -2.29,2.09307 -3.3775,-0.44577 -0.5101,-0.33992 -0.5874,-0.74498 -0.6512,-1.37954 0,0 5.0579,-2.6319 5.0579,-2.6319 l 0,0 c 0.047,0.67077 0.036,0.64781 0.5336,1.15697 2.0608,3.58367 -3.8848,5.75712 -6.008,6.80259 -7.2635,2.99784 -14.1498,6.77826 -21.3243,9.97632 -13.4809,6.49728 -26.8521,13.14856 -40.0436,20.22266 -13.057,7.12999 -25.942,14.59232 -38.2704,22.93623 -12.759,8.4474 -25.5395,16.90222 -37.6787,26.2275 -8.1278,5.88149 -16.2597,11.78437 -24.0264,18.13773 0,0 -5.25,2.10686 -5.25,2.10686 z" />
    <path
       style="fill:none;stroke:#000000;stroke-width:6;stroke-linecap:round;stroke-linejoin:round;stroke-miterlimit:4;stroke-opacity:1;stroke-dasharray:none;stroke-dashoffset:24.6"
       id="path3034"
       d="m 1222.1595,359.27527 c 8.0214,0.0229 16.0429,0.0149 24.0644,0.003 4.3817,-0.10054 6.6956,0.1351 5.5796,4.95371 -2.0404,5.80518 -4.9299,11.35461 -8.0016,16.68371 -3.7033,6.12459 -6.8703,12.5585 -10.0544,18.9662 -1.0594,2.3422 -1.8876,4.78096 -2.4971,7.27645 0,0 -5.1328,2.46423 -5.1328,2.46423 l 0,0 c 0.6038,-2.54008 1.4448,-5.01854 2.4874,-7.41294 3.1996,-6.41726 6.3802,-12.85842 10.0653,-19.01066 3.0831,-5.27209 5.9142,-10.79248 8.0164,-16.52467 1.3642,-4.51741 -1.0946,-4.05833 -5.0192,-4.08561 -8.0244,-0.0118 -16.0487,-0.0197 -24.0731,0.003 0,0 4.5651,-3.31669 4.5651,-3.31669 z" />
    <path
       style="fill:none;stroke:#000000;stroke-width:6;stroke-linecap:round;stroke-linejoin:round;stroke-miterlimit:4;stroke-opacity:1;stroke-dasharray:none;stroke-dashoffset:24.6"
       id="path3036"
       d="m 1309.5842,370.79146 c -1.2046,-0.0383 -2.4091,-0.15223 -3.6137,-0.11498 -5.5011,0.17015 -10.9914,1.51733 -15.6759,4.48563 -0.4765,0.30193 1.0458,-0.42306 1.5688,-0.63459 -6.5795,5.4767 -7.9942,13.74026 -9.7521,21.67216 -1.9662,9.28757 -1.8484,18.80466 -2.7421,28.20779 -0.6262,9.90492 -4.003,19.26627 -7.6857,28.38617 -3.125,7.33167 -6.8241,14.40883 -12.3039,20.24165 -0.5337,0.50248 -1.0674,1.00495 -1.6011,1.50742 0,0 -5.2345,2.14438 -5.2345,2.14438 l 0,0 c 0.5432,-0.49381 1.0864,-0.98763 1.6296,-1.48145 5.5677,-5.73117 9.3073,-12.75055 12.4348,-20.06846 3.7133,-9.05891 7.1088,-18.38392 7.7564,-28.24027 0.9254,-9.41813 0.7696,-18.95307 2.706,-28.26455 1.7367,-8.00333 3.1201,-16.37163 9.5652,-22.06115 9.1945,-5.63004 16.3793,-10.16912 27.5666,-9.03612 0,0 -4.6184,3.25637 -4.6184,3.25637 z" />
    <path
       style="fill:none;stroke:#000000;stroke-width:6;stroke-linecap:round;stroke-linejoin:round;stroke-miterlimit:4;stroke-opacity:1;stroke-dasharray:none;stroke-dashoffset:24.6"
       id="path3038"
       d="m 1258.5702,415.65743 c 8.9511,-2.52787 18.223,-3.53603 27.4618,-4.31523 5.7278,-0.40957 11.4692,-0.61767 17.2108,-0.68955 0.2999,-10e-4 0.5998,-0.003 0.8997,-0.004 0,0 -4.6031,3.34632 -4.6031,3.34632 l 0,0 c -0.2959,3.2e-4 -0.5919,6.4e-4 -0.8879,9.7e-4 -5.7103,0.0499 -11.4206,0.2515 -17.1163,0.67212 -9.2353,0.79249 -18.514,1.81532 -27.4328,4.4605 0,0 4.4678,-3.47102 4.4678,-3.47102 z" />
    <path
       style="fill:none;stroke:#000000;stroke-width:6;stroke-linecap:round;stroke-linejoin:round;stroke-miterlimit:4;stroke-opacity:1;stroke-dasharray:none;stroke-dashoffset:24.6"
       id="path3040"
       d="m 1327.5822,450.68559 c -2.7139,8.81991 -7.5474,16.64954 -12.9519,24.04013 -4.2491,5.86275 -9.4773,10.45268 -16.2904,13.18194 -0.3705,0.11051 -0.7411,0.22101 -1.1116,0.33151 0,0 4.493,-3.48186 4.493,-3.48186 l 0,0 c 0.3576,-0.12237 0.7151,-0.24474 1.0726,-0.36712 0.4471,-0.20068 1.7425,-0.88335 1.3412,-0.60206 -1.0311,0.72285 -2.0713,1.47734 -3.244,1.936 -0.6572,0.25701 1.1203,-0.8591 1.6582,-1.31582 2.6023,-2.20952 4.9908,-4.65249 6.9462,-7.46416 5.4131,-7.31464 10.2881,-15.06363 12.9838,-23.83497 0,0 5.1029,-2.42359 5.1029,-2.42359 z" />
    <path
       style="fill:none;stroke:#000000;stroke-width:6;stroke-linecap:round;stroke-linejoin:round;stroke-miterlimit:4;stroke-opacity:1;stroke-dasharray:none;stroke-dashoffset:24.6"
       id="path3042"
       d="m 1309.5186,447.27031 c 4.3149,7.40751 8.51,14.85167 12.9423,22.19234 2.6964,3.72582 5.5234,7.33003 7.8461,11.30935 0,0 -4.9236,2.8424 -4.9236,2.8424 l 0,0 c -2.2799,-3.99869 -5.1076,-7.59792 -7.7743,-11.33853 -4.4127,-7.34136 -8.5835,-14.79235 -12.965,-22.14923 0,0 4.8745,-2.85633 4.8745,-2.85633 z" />
    <path
       style="fill:none;stroke:#000000;stroke-width:6;stroke-linecap:round;stroke-linejoin:round;stroke-miterlimit:4;stroke-opacity:1;stroke-dasharray:none;stroke-dashoffset:24.6"
       id="path3044"
       d="m 1074.302,459.85961 c -1.9303,-9.60657 -4.3861,-19.09782 -7.3505,-28.43601 -3.5484,-11.17547 -6.5976,-22.49232 -9.7287,-33.78831 -2.7541,-11.57083 -6.4865,-22.87051 -9.6327,-34.33471 -2.694,-10.37925 -6.0109,-20.55097 -9.8468,-30.55988 -2.4919,-7.28028 -6.1192,-14.08966 -8.8958,-21.25048 -2.0472,-4.9333 -4.4444,-9.73933 -7.0951,-14.37695 -2.0247,-2.93224 -3.3372,-6.16294 -3.9513,-9.65622 -0.3726,-2.95296 -1.7271,-5.64682 -2.4155,-8.53869 -1.3322,-2.76043 -2.4727,-5.55527 -3.0868,-8.56292 -0.2768,-1.62031 -0.4823,-3.2546 -0.5733,-4.8963 0.9648,-2.62877 4.9494,-3.58577 7.0744,-1.98445 0,0 -4.8058,3.0484 -4.8058,3.0484 l 0,0 c -2.6269,-1.84927 5.4788,-3.14094 2.8045,-3.67589 0.047,1.62035 0.2507,3.23322 0.5044,4.83272 0.5891,3.00899 1.7326,5.79661 3.0779,8.5464 0.6734,2.90957 2.0523,5.60863 2.4315,8.56964 0.5696,3.43954 1.8522,6.60728 3.8371,9.49276 2.6656,4.66227 5.0551,9.50473 7.1155,14.4632 2.7564,7.17097 6.388,13.98232 8.8603,21.27209 3.8365,10.03001 7.1533,20.22193 9.8486,30.62128 3.1376,11.46616 6.8837,22.7613 9.6319,34.33317 3.1338,11.28759 6.1715,22.59998 9.7257,33.76606 2.9886,9.35673 5.4282,18.87103 7.4687,28.4784 0,0 -4.9982,2.63669 -4.9982,2.63669 z" />
    <path
       style="fill:none;stroke:#000000;stroke-width:6;stroke-linecap:round;stroke-linejoin:round;stroke-miterlimit:4;stroke-opacity:1;stroke-dasharray:none;stroke-dashoffset:24.6"
       id="path3046"
       d="m 1003.5206,302.64531 c 1.2639,-8.49626 1.8227,-17.07162 2.226,-25.64485 0.2717,-6.38231 0.3142,-12.77076 0.3269,-19.15781 0.031,-3.33474 -0.8114,-6.70198 1.9715,-9.0628 2.0402,-1.09768 3.976,-2.4168 6.1207,-3.29305 2.1028,-0.85917 8.8659,2.35139 10.7706,3.22089 5.6255,3.10965 11.1284,6.43541 16.8333,9.39916 3.6709,1.9968 7.2796,2.76477 11.3914,2.32854 0,0 -4.5588,3.37414 -4.5588,3.37414 l 0,0 c -4.1593,0.29769 -7.8514,-0.60714 -11.5409,-2.61658 -5.6859,-2.9825 -11.1837,-6.29939 -16.8244,-9.36565 -2.2906,-1.01551 -4.6608,-2.08878 -7.12,-2.6482 -2.743,-0.62398 -3.7391,0.15911 -3.4181,-0.18505 0.9784,-1.0488 2.4175,-1.54428 3.6262,-2.31642 -3.0817,2.06303 -2.1877,5.24867 -2.2177,8.60197 -0.023,6.40104 -0.081,12.80352 -0.3539,19.19961 -0.4101,8.58009 -0.9744,17.15931 -2.1619,25.6723 0,0 -5.0709,2.4938 -5.0709,2.4938 z" />
    <path
       style="fill:none;stroke:#000000;stroke-width:6;stroke-linecap:round;stroke-linejoin:round;stroke-miterlimit:4;stroke-opacity:1;stroke-dasharray:none;stroke-dashoffset:24.6"
       id="path3048"
       d="m 1009.4876,324.10437 c -5.9094,4.97113 -8.9784,12.02276 -11.05686,19.27347 -0.95853,6.6459 0.0492,13.31539 1.39154,19.82715 1.31652,5.0993 2.07582,10.29985 2.48392,15.54302 -0.1004,3.92022 -1.8982,7.07258 -4.53305,9.84721 0,0 -5.23688,2.17504 -5.23688,2.17504 l 0,0 c 2.65789,-2.62138 4.52582,-5.59124 4.7495,-9.41626 -0.38465,-5.22613 -1.11727,-10.4106 -2.42061,-15.49456 -1.36773,-6.59419 -2.39851,-13.32848 -1.51001,-20.06915 2.03546,-7.30658 5.05006,-14.46468 10.88245,-19.57905 0,0 5.25,-2.10687 5.25,-2.10687 z" />
    <path
       style="fill:none;stroke:#000000;stroke-width:6;stroke-linecap:round;stroke-linejoin:round;stroke-miterlimit:4;stroke-opacity:1;stroke-dasharray:none;stroke-dashoffset:24.6"
       id="path3050"
       d="m 989.97258,355.28521 c 6.16969,-2.91789 12.75192,-4.79494 19.33002,-6.53618 2.5719,-0.0253 1.3518,-0.11455 3.6637,0.21432 0,0 -4.6293,3.27682 -4.6293,3.27682 l 0,0 c -2.2288,-0.23445 -1.0555,-0.1988 -3.521,-0.0504 -6.5666,1.74101 -13.13002,3.64554 -19.25885,6.62741 0,0 4.41543,-3.53193 4.41543,-3.53193 z" />
    <path
       style="fill:none;stroke:#000000;stroke-width:6;stroke-linecap:round;stroke-linejoin:round;stroke-miterlimit:4;stroke-opacity:1;stroke-dasharray:none;stroke-dashoffset:24.6"
       id="path3052"
       d="m 1019.9837,376.29333 c 0.3712,1.49602 0.6067,12.16424 3.7195,11.17111 -1.2974,0.39888 -2.5723,1.51345 -3.8921,1.19664 -0.6867,-0.16485 0.6295,-1.2651 0.914,-1.91152 1.1051,-2.51052 1.6315,-5.06843 2.0475,-7.76425 0.6107,-6.34949 6.5805,-7.24309 9.6219,-1.97007 2.0895,3.69664 3.2804,7.80542 4.6773,11.79493 1.5484,4.75672 2.1155,9.74439 2.4329,14.71351 -0.1359,4.81801 -1.7569,9.13971 -4.6037,12.97569 -4.4545,5.31808 -11.0084,8.06423 -17.7843,8.09417 -3.1299,-0.44056 -6.1581,-1.34502 -9.1829,-2.2271 0,0 4.6528,-3.18355 4.6528,-3.18355 l 0,0 c 2.9862,0.8634 5.9764,1.76233 9.0826,2.08965 2.8528,-0.0981 3.0138,0.084 5.7095,-0.71956 0.7408,-0.22082 2.6392,-1.44602 2.1626,-0.83743 -0.6971,0.89017 -1.8471,1.34176 -2.8933,1.77046 -1.2666,0.51899 4.5479,-2.88034 3.0496,-2.74982 2.9075,-3.6959 4.575,-7.87166 4.7863,-12.61476 -0.2994,-4.92124 -0.8266,-9.86501 -2.3582,-14.57729 -1.3879,-3.95386 -2.5665,-8.03182 -4.6468,-11.69085 -0.6293,-1.08818 -0.626,-1.32101 -1.599,-2.10786 -0.3212,-0.25973 -1.2855,-0.3353 -1.0428,-0.6695 5.6892,-7.8322 3.2014,-2.37991 3.0197,-0.58556 -0.3382,2.27363 -1.17,8.27805 -2.8643,9.882 -1.7875,1.69213 -3.931,2.96318 -5.8965,4.44477 -4.1767,-0.8972 -3.2111,-8.92367 -4.1105,-11.88713 0,0 4.9982,-2.63668 4.9982,-2.63668 z" />
  </g>
</svg>
