<?xml version="1.0" encoding="UTF-8" standalone="no"?>
<!-- Created with Inkscape (http://www.inkscape.org/) -->
<svg
   xmlns:dc="http://purl.org/dc/elements/1.1/"
   xmlns:cc="http://creativecommons.org/ns#"
   xmlns:rdf="http://www.w3.org/1999/02/22-rdf-syntax-ns#"
   xmlns:svg="http://www.w3.org/2000/svg"
   xmlns="http://www.w3.org/2000/svg"
   xmlns:sodipodi="http://sodipodi.sourceforge.net/DTD/sodipodi-0.dtd"
   xmlns:inkscape="http://www.inkscape.org/namespaces/inkscape"
   width="1109.7916"
   height="621.88873"
   id="svg4453"
   sodipodi:version="0.32"
   inkscape:version="0.46+devel"
   version="1.0"
   sodipodi:docname="c34d1.svg"
   inkscape:output_extension="org.inkscape.output.svg.inkscape">
  <defs
     id="defs4455">
    <inkscape:perspective
       sodipodi:type="inkscape:persp3d"
       inkscape:vp_x="0 : 526.18109 : 1"
       inkscape:vp_y="0 : 1000 : 0"
       inkscape:vp_z="744.09448 : 526.18109 : 1"
       inkscape:persp3d-origin="372.04724 : 350.78739 : 1"
       id="perspective4461" />
  </defs>
  <sodipodi:namedview
     id="base"
     pagecolor="#ffffff"
     bordercolor="#666666"
     borderopacity="1.0"
     inkscape:pageopacity="0.0"
     inkscape:pageshadow="2"
     inkscape:zoom="0.79435429"
     inkscape:cx="301.86012"
     inkscape:cy="310.94438"
     inkscape:document-units="px"
     inkscape:current-layer="layer1"
     showgrid="false"
     inkscape:window-width="1280"
     inkscape:window-height="712"
     inkscape:window-x="-5"
     inkscape:window-y="-3" />
  <metadata
     id="metadata4458">
    <rdf:RDF>
      <cc:Work
         rdf:about="">
        <dc:format>image/svg+xml</dc:format>
        <dc:type
           rdf:resource="http://purl.org/dc/dcmitype/StillImage" />
        <dc:title></dc:title>
      </cc:Work>
    </rdf:RDF>
  </metadata>
  <g
     inkscape:label="Layer 1"
     inkscape:groupmode="layer"
     id="layer1"
     transform="translate(108.51513,-216.76973)">
    <path
       style="fill:#000000;fill-opacity:1;stroke:#000000;stroke-width:5;stroke-linecap:round;stroke-linejoin:round;stroke-miterlimit:4;stroke-opacity:1;stroke-dasharray:none;stroke-dashoffset:24.6"
       id="path4467"
       d="m -90.335541,735.266 c 3.881612,-8.28465 9.473985,-15.60779 14.933443,-22.8907 17.471829,-22.32664 38.467461,-41.44259 59.836338,-59.92656 37.324811,-31.53228 77.96392,-58.70839 119.19768,-84.78244 36.65717,-22.47143 73.99753,-43.92299 112.60464,-62.88719 22.54088,-11.0723 28.55202,-13.43834 51.43505,-23.51916 46.16616,-20.16296 94.3964,-34.56475 143.49732,-45.43288 36.80438,-7.79704 74.29325,-10.79057 111.83267,-11.40889 24.01783,-0.19154 47.96295,1.89102 71.65308,5.72526 12.86922,2.09615 25.48524,5.35707 37.93785,9.17414 5.98829,1.89584 11.95782,3.85005 17.9427,5.75677 2.29361,0.71033 4.4821,1.7328 6.91898,1.47143 1.50156,-0.76352 2.95885,-0.81165 4.11882,0.45825 1.38268,2.34348 0.66586,5.07096 0.11213,7.55961 -1.38578,5.0182 -3.56979,9.77599 -5.71954,14.50307 -3.83727,7.75079 -7.60157,15.53703 -11.40642,23.30419 -5.28736,10.6317 -10.41803,21.33983 -15.46061,32.08943 -5.80387,12.35263 -12.0439,24.48731 -18.68013,36.41144 -6.94861,12.88819 -14.95647,25.13274 -23.26825,37.16928 -8.9578,12.71378 -18.98862,24.61391 -29.36626,36.17949 -11.1175,12.51042 -23.68399,23.57464 -36.6732,34.08026 -14.57101,11.46277 -29.93231,21.85837 -45.40068,32.05723 -22.09954,14.46956 -45.02135,27.61039 -67.88633,40.81402 -20.39274,11.62753 -41.06309,22.76113 -61.92177,33.52769 -21.65943,11.36827 -44.02433,21.26158 -66.69556,30.41057 -22.44011,8.81473 -45.63618,15.42432 -69.03475,21.12139 -21.07738,5.14048 -42.5688,7.93243 -64.17538,9.47762 -17.53963,1.10339 -35.08544,0.10262 -52.477014,-2.22119 -14.568123,-2.14493 -28.847784,-5.70482 -42.926962,-9.95709 -12.444673,-3.9189 -24.665112,-8.48612 -36.858966,-13.11362 -10.5197597,-3.98542 -21.0761011,-7.87114 -31.50386,-12.09335 -9.117389,-3.65148 -18.111806,-7.60485 -27.027531,-11.72197 -7.808224,-3.6133 -15.625614,-7.21581 -23.319687,-11.06778 -6.150375,-2.88811 -11.942712,-6.4237 -17.61057,-10.15024 -4.176516,-2.87476 -8.14137,-6.03531 -12.204264,-9.06304 -2.467726,-1.96516 -5.241596,-3.43948 -8.082556,-4.7766 0,0 14.19787,-9.36559 14.19787,-9.36559 l 0,0 c 2.890215,1.44488 5.69802,3.04219 8.225755,5.07353 4.006554,3.0361 7.948133,6.16126 12.096691,9.0059 5.607775,3.69162 11.366113,7.14234 17.440323,10.02313 7.67445,3.83425 15.454646,7.45441 23.240439,11.05595 8.893282,4.09125 17.855319,8.03849 26.9421698,11.68268 10.411457,4.20095 20.9389562,8.09983 31.4280602,12.10142 12.151768,4.61515 24.328112,9.17847 36.742392,13.0503 14.009869,4.1903 28.218125,7.70307 42.71103,9.78257 17.28953,2.24602 34.72677,3.19428 52.15199,2.04318 21.51949,-1.58792 42.91931,-4.44495 63.90211,-9.61373 23.34696,-5.74477 46.49076,-12.39895 68.86215,-21.28419 22.64078,-9.19682 44.96883,-19.14472 66.60635,-30.53118 20.86079,-10.81091 41.54638,-21.96327 61.93856,-33.63714 -1.44611,0.83813 -5.77436,3.36964 -4.33832,2.51437 14.88195,-8.8633 29.83102,-17.62574 44.32063,-27.12812 15.45012,-10.15698 30.79398,-20.50609 45.38336,-31.8821 13.00411,-10.40751 25.58628,-21.38696 36.72092,-33.81455 10.39241,-11.49295 20.41917,-23.33796 29.414,-35.97012 8.31522,-11.98405 16.37304,-24.15001 23.29608,-37.00765 6.658,-11.87211 12.89817,-23.96704 18.6923,-36.28583 5.01046,-10.74078 10.09533,-21.44706 15.35036,-32.07076 3.77239,-7.73215 7.43788,-15.51445 11.2973,-23.20383 2.11088,-4.63039 4.2211,-9.28587 5.75106,-14.14632 0.45931,-1.88504 1.16685,-3.93734 0.70569,-5.87319 -1.13876,0.20231 -2.26591,0.52373 -3.42585,0.5269 -2.48558,-0.22043 -4.77572,-1.24294 -7.14148,-1.97448 -5.91839,-1.95615 -11.82624,-3.94479 -17.76067,-5.85183 -12.30582,-3.83266 -24.78615,-7.07349 -37.51375,-9.18863 -23.49216,-3.84839 -47.23924,-5.97162 -71.06536,-5.79331 -37.33668,0.58247 -74.62314,3.56359 -111.22247,11.34843 -48.92991,10.862 -96.98613,25.25843 -142.97524,45.40631 -47.55094,21.01007 -94.3442,43.90383 -138.35678,71.70283 -41.050131,25.91797 -81.50664,52.93718 -118.6480547,84.3177 -21.1435243,18.27719 -41.9012493,37.19103 -59.1821993,59.27754 -5.314535,7.10675 -10.754646,14.24301 -14.582437,22.29701 0,0 -15.52539,7.13436 -15.52539,7.13436 z" />
    <path
       style="fill:#000000;fill-opacity:1;stroke:#000000;stroke-width:5;stroke-linecap:round;stroke-linejoin:round;stroke-miterlimit:4;stroke-opacity:1;stroke-dasharray:none;stroke-dashoffset:24.6"
       id="path4469"
       d="m 361.79025,712.86143 c 6.24581,-0.62113 12.24136,-2.70811 18.18429,-4.61573 12.76427,-4.17432 25.1862,-9.31044 37.64226,-14.30976 12.4506,-4.98252 24.82742,-10.14709 37.28578,-15.11009 7.2932,-2.96393 14.63945,-5.75414 22.18995,-7.98632 3.66746,-1.06783 6.03706,-0.43215 7.10157,3.32999 0.54049,6.41261 -0.176,12.88521 -0.68443,19.28184 -1.00844,13.06666 -1.99027,26.13496 -3.01503,39.20051 -0.95771,13.98511 -2.18532,27.9478 -3.45291,41.90751 -0.88461,9.64872 -1.72713,19.30121 -2.499,28.95961 -0.37232,4.6434 -0.67638,9.29171 -0.97867,13.94003 -0.0215,0.30473 -0.0429,0.60945 -0.0644,0.91418 0,0 -15.2781,7.61522 -15.2781,7.61522 l 0,0 c 0.0325,-0.30444 0.0651,-0.60887 0.0976,-0.91331 0.43794,-4.67235 0.71566,-9.35868 1.14831,-14.03166 0.83606,-9.69345 1.75871,-19.37912 2.67499,-29.06524 1.32145,-13.9617 2.60469,-27.92675 3.53606,-41.92111 1.00009,-13.03157 1.95191,-26.06532 2.83191,-39.10547 0.44654,-6.21142 0.99074,-12.45421 0.68817,-18.68479 -0.54864,-2.93212 -3.2748,-1.58673 -5.51955,-1.0753 -7.44545,2.23742 -14.67759,5.07294 -21.89679,7.94884 -12.4195,4.9506 -24.77264,10.06564 -37.18447,15.03547 -12.5234,5.0238 -25.02021,10.16417 -37.86366,14.32849 -6.1004,1.93222 -12.23554,3.89815 -18.62625,4.59764 0,0 13.68235,-10.24055 13.68235,-10.24055 z" />
    <path
       style="fill:#000000;fill-opacity:1;stroke:#000000;stroke-width:5;stroke-linecap:round;stroke-linejoin:round;stroke-miterlimit:4;stroke-opacity:1;stroke-dasharray:none;stroke-dashoffset:24.6"
       id="path4471"
       d="m 683.85186,594.52788 c -5.66427,0.40332 -10.85677,2.8644 -15.926,5.22687 -1.42322,0.77004 -5.674,3.11403 -4.26965,2.3101 3.23134,-1.84983 6.33886,-3.95869 9.75133,-5.44815 1.75745,-0.76709 -3.18677,2.13527 -4.73944,3.26057 -5.13875,3.72434 -9.83223,7.84818 -14.4847,12.15135 -8.66418,8.17442 -16.05694,17.52626 -22.06499,27.79149 -3.05834,5.77609 -6.2548,12.24563 -4.00653,18.79242 3.30108,5.10077 9.41153,5.74116 14.96823,6.25507 7.86953,0.45161 15.72181,-0.61944 23.50737,-1.64135 6.27875,-1.02859 12.49007,-2.42329 18.67689,-3.89769 3.15957,-0.97021 6.57519,-1.3114 9.60573,-2.66904 0.26826,-0.15347 0.53651,-0.30694 0.80477,-0.46041 0,0 -13.35543,10.62999 -13.35543,10.62999 l 0,0 c -0.29594,0.1117 -0.59187,0.2234 -0.88781,0.3351 -3.18134,0.9286 -6.41915,1.65238 -9.63872,2.43317 -6.19384,1.42246 -12.40892,2.79203 -18.70252,3.70022 -7.87106,0.98294 -15.81617,1.98027 -23.75857,1.33566 -6.23047,-0.75973 -12.56384,-2.0241 -16.04977,-7.815 -2.56919,-7.02658 0.14641,-13.85964 3.54352,-20.18735 5.91954,-10.44405 13.31473,-19.94551 21.96865,-28.28633 12.53205,-11.89738 26.4519,-21.75184 42.28676,-29.0329 5.27949,-2.3397 10.71712,-4.74513 16.59758,-4.82947 0,0 -13.8267,10.04568 -13.8267,10.04568 z" />
    <path
       style="fill:#000000;fill-opacity:1;stroke:#000000;stroke-width:5;stroke-linecap:round;stroke-linejoin:round;stroke-miterlimit:4;stroke-opacity:1;stroke-dasharray:none;stroke-dashoffset:24.6"
       id="path4473"
       d="m 730.43385,604.4822 c 4.99251,-0.43271 9.95711,-1.16236 14.90341,-1.96098 7.18432,-1.23818 14.36931,-2.46976 21.56444,-3.64403 4.05307,-0.77337 8.17063,-1.07682 12.28879,-1.17871 0,0 -13.71922,10.03477 -13.71922,10.03477 l 0,0 c -4.04657,0.1595 -8.07878,0.54495 -12.06456,1.28485 -7.19353,1.1647 -14.37212,2.41506 -21.55709,3.63064 -5.05455,0.78863 -10.12803,1.62085 -15.24247,1.87914 0,0 13.8267,-10.04568 13.8267,-10.04568 z" />
    <path
       style="fill:#000000;fill-opacity:1;stroke:#000000;stroke-width:5;stroke-linecap:round;stroke-linejoin:round;stroke-miterlimit:4;stroke-opacity:1;stroke-dasharray:none;stroke-dashoffset:24.6"
       id="path4475"
       d="m 736.07596,635.71857 c 4.15756,-0.4332 8.26317,-1.24976 12.38744,-1.92007 6.18648,-1.14185 12.37235,-2.2629 18.49998,-3.69089 4.81275,-1.12142 9.60747,-2.31808 14.39376,-3.54697 0,0 -13.498,10.32807 -13.498,10.32807 l 0,0 c -4.77103,1.19224 -9.5486,2.35902 -14.34243,3.45652 -6.16148,1.37256 -12.37312,2.49455 -18.5828,3.62556 -4.1743,0.70075 -8.33957,1.45915 -12.54029,1.98833 0,0 13.68234,-10.24055 13.68234,-10.24055 z" />
    <path
       style="fill:#000000;fill-opacity:1;stroke:#000000;stroke-width:5;stroke-linecap:round;stroke-linejoin:round;stroke-miterlimit:4;stroke-opacity:1;stroke-dasharray:none;stroke-dashoffset:24.6"
       id="path4477"
       d="m 852.49547,646.14865 c -0.40831,0.13801 -0.81857,0.27036 -1.22492,0.41404 -1.53645,0.54329 -11.453,5.91121 -6.31143,3.11895 12.20571,-6.62861 15.47306,-9.57874 9.13448,-4.37502 -5.98291,5.16774 -10.29192,11.69438 -13.65485,18.77434 -1.55293,4.1114 -4.07821,10.21393 0.23972,13.4112 0.56441,0.0832 1.12294,0.26537 1.69324,0.24967 1.69701,-0.0467 3.27848,-0.65025 4.76495,-1.42479 1.02747,-0.53538 3.99754,-2.33858 2.9628,-1.81738 -11.50754,5.79632 -14.47299,8.99629 -7.59545,2.76107 8.34501,-8.33113 13.4934,-18.87017 17.56133,-29.77853 3.5725,-10.23215 4.45779,-20.73925 2.41875,-31.33935 -2.01252,-8.33522 -7.10616,-14.61737 -13.74573,-19.75162 -6.20541,-4.41915 -13.35149,-6.6248 -20.74868,-7.98899 -5.35807,-0.86424 -10.86671,-0.86875 -16.19271,0.1916 -2.06088,0.45503 -3.99173,1.27162 -5.86045,2.22912 0,0 13.34193,-10.60441 13.34193,-10.60441 l 0,0 c 1.96435,-0.81178 3.97538,-1.49732 6.08496,-1.82723 5.47258,-0.73732 11.02896,-0.69636 16.46408,0.36141 7.56583,1.57432 14.85538,4.04295 21.15231,8.67708 6.85045,5.48075 12.15064,12.11761 14.29522,20.81109 2.18251,10.86006 1.44065,21.65325 -2.10628,32.20041 -3.95718,11.06718 -9.0091,21.77961 -17.1471,30.44474 -8.09396,7.942 -2.90336,3.33295 -21.04765,14.2054 -3.36708,2.01763 -7.03355,3.2689 -10.71881,1.39292 -4.50129,-4.27193 -3.21267,-10.09983 -1.14207,-15.41085 3.24691,-7.25927 7.43861,-14.00612 13.34875,-19.42746 7.81319,-7.06025 17.51241,-12.90999 27.71595,-15.73796 0,0 -13.68234,10.24055 -13.68234,10.24055 z" />
    <path
       style="fill:#000000;fill-opacity:1;stroke:#000000;stroke-width:5;stroke-linecap:round;stroke-linejoin:round;stroke-miterlimit:4;stroke-opacity:1;stroke-dasharray:none;stroke-dashoffset:24.6"
       id="path4479"
       d="m 969.70942,577.76435 c -4.62483,1.01169 -9.21454,2.15412 -13.74802,3.52113 -7.3563,2.05571 -14.45358,4.89539 -21.52971,7.74253 -6.32941,2.56207 -12.50827,5.46799 -18.81128,8.09374 -2.23938,0.97291 -4.57122,1.71314 -6.72612,2.87558 -0.51276,0.2766 -2.0015,1.19333 -1.49506,0.90533 13.28914,-7.55723 17.56024,-10.67243 12.53363,-7.05731 -1.56276,1.03596 0.27555,1.35734 1.33128,1.78329 4.17879,1.30286 8.5643,1.68406 12.9009,2.08325 6.83079,0.58865 13.70032,0.24926 20.53823,-0.0337 5.76433,-0.20245 11.53187,-0.88607 17.29299,-0.34461 3.24555,0.30677 5.13543,2.06045 3.2003,5.1406 -4.84548,4.4155 -10.71244,7.60799 -16.22901,11.11191 -9.36801,5.82489 -18.54093,11.94811 -27.603,18.23606 -8.53582,6.11043 -17.08594,12.19881 -25.69739,18.20221 -4.61097,3.46414 -9.75278,6.4597 -13.49337,10.92831 -1.71868,2.75053 3.68893,2.61335 5.26204,2.76894 8.05248,0.45498 16.10761,-0.38667 24.13063,-0.99375 11.16915,-0.92808 22.36382,-1.4941 33.53928,-2.32781 9.539,-0.67725 19.04114,-1.81352 28.58332,-2.43609 4.71498,-0.22635 9.44653,-0.40024 14.16217,-0.10251 0.30843,0.0328 0.61686,0.0656 0.9253,0.0983 0,0 -13.90249,9.90832 -13.90249,9.90832 l 0,0 c -0.29018,-0.0219 -0.58035,-0.0439 -0.87053,-0.0659 -4.62082,-0.23458 -9.25177,-0.10909 -13.86919,0.14954 -9.49913,0.65808 -18.96868,1.69292 -28.46755,2.36219 -11.18978,0.79395 -22.39216,1.4126 -33.5712,2.35897 -8.14167,0.62882 -16.33639,1.50943 -24.5026,0.83373 -3.24457,-0.52052 -8.17992,-1.40947 -7.04077,-5.81105 3.30468,-5.00553 8.85974,-7.93081 13.50098,-11.52546 8.64297,-6.01153 17.25437,-12.06612 25.78489,-18.23688 9.01925,-6.29915 18.1416,-12.44855 27.48356,-18.26136 5.4213,-3.47674 10.99154,-6.75363 16.18114,-10.5723 2.55376,-1.99738 1.84317,-1.2286 -1.32039,-1.88978 -5.69867,-0.33053 -11.38794,0.24462 -17.08301,0.43463 -6.89878,0.26087 -13.82571,0.5382 -20.71185,-0.12124 -4.49546,-0.44262 -9.08636,-0.84035 -13.33571,-2.48044 -1.87009,-0.95994 -4.01002,-2.38281 -2.91432,-4.75571 6.22332,-6.77362 16.32553,-9.9864 24.75824,-13.63935 6.27099,-2.64141 12.43602,-5.52899 18.76782,-8.0258 7.11712,-2.83808 14.27937,-5.58889 21.66858,-7.64836 4.61121,-1.32509 9.27954,-2.41307 13.91745,-3.63451 0,0 -13.54016,10.42527 -13.54016,10.42527 z" />
    <path
       style="fill:#000000;fill-opacity:1;stroke:#000000;stroke-width:5;stroke-linecap:round;stroke-linejoin:round;stroke-miterlimit:4;stroke-opacity:1;stroke-dasharray:none;stroke-dashoffset:24.6"
       id="path4481"
       d="m 537.63896,303.65163 c -6.66174,1.89809 -13.24814,4.03888 -19.75766,6.40371 -11.00099,4.05164 -21.64316,8.9614 -32.21595,14.0031 -1.85828,0.93955 -8.12112,4.09054 -10.02474,5.11292 -1.49125,0.80091 -5.89282,3.33434 -4.42739,2.4871 20.70319,-11.96956 8.71526,-4.99091 4.2126,-1.83833 -2.16786,1.82321 -6.63358,4.39154 -4.36018,7.59654 4.4785,3.64554 10.30985,5.15294 15.7653,6.69964 8.3284,2.18948 16.8734,3.3394 25.41099,4.33956 5.679,0.95589 11.94912,0.53228 17.24556,3.06259 3.69173,3.33858 -1.66907,6.42921 -4.21907,8.18488 -6.35197,4.04737 -12.79545,7.94831 -19.18388,11.93737 -5.92471,3.65572 -11.76454,7.52523 -16.55184,12.61804 -4.06306,5.20716 -1.89981,7.55195 2.82214,10.9767 10.70343,5.78032 22.72913,8.46653 34.41252,11.51788 2.52189,0.63437 5.04377,1.26875 7.56566,1.90313 0,0 -13.60829,9.38288 -13.60829,9.38288 l 0,0 c -2.5256,-0.63707 -5.05119,-1.27413 -7.57679,-1.91119 -11.91562,-3.09 -24.23239,-5.7804 -35.05334,-11.86487 -4.71379,-3.58347 -8.13439,-7.79003 -4.15485,-13.43869 4.5673,-5.41824 10.47813,-9.38087 16.46273,-13.0985 6.34264,-3.99274 12.75089,-7.87968 19.10137,-11.86006 0.46068,-0.29302 6.4946,-4.30039 6.43149,-4.43172 -0.11331,-0.23581 -0.40993,-0.3252 -0.61489,-0.4878 -5.30336,-2.06071 -11.24998,-1.85075 -16.79563,-2.7736 -8.60003,-1.06382 -17.20806,-2.27431 -25.58714,-4.54577 -5.79429,-1.69269 -12.05352,-3.34279 -16.55236,-7.5902 -2.81426,-4.25217 -0.31444,-7.22691 3.34749,-10.01629 12.10164,-8.85153 25.61694,-15.61429 38.97277,-22.35056 10.62211,-5.03215 21.3325,-9.89351 32.38287,-13.92495 6.61884,-2.35503 13.29712,-4.53657 20.04772,-6.48571 0,0 -13.49721,10.3922 -13.49721,10.3922 z" />
    <path
       style="fill:#000000;fill-opacity:1;stroke:#000000;stroke-width:5;stroke-linecap:round;stroke-linejoin:round;stroke-miterlimit:4;stroke-opacity:1;stroke-dasharray:none;stroke-dashoffset:24.6"
       id="path4483"
       d="m 217.98128,495.88224 c -2.11202,-4.494 -4.32996,-8.93991 -6.47984,-13.41689 -3.47167,-7.1874 -7.01226,-14.33865 -10.63507,-21.45087 -3.41787,-6.72269 -7.12675,-13.28773 -10.95688,-19.78187 -2.77601,-4.79652 -5.64018,-9.5475 -8.59767,-14.23482 -1.98393,-2.85707 -3.53739,-5.99007 -5.5132,-8.84842 -3.15727,-2.80664 -25.04424,7.23291 12.14291,-7.09353 0.66146,-0.25483 -0.64833,1.26229 -0.92348,1.91556 -0.31346,0.74418 -0.56025,1.51472 -0.84037,2.27209 -2.04997,5.88866 -3.25808,12.00931 -4.33216,18.1361 -0.93551,5.90562 -1.59359,11.8466 -2.56308,17.74745 -0.12965,2.58079 -1.26205,5.00376 -1.65094,7.51782 -5.24995,1.93504 -10.32285,4.44351 -15.74985,5.80511 -0.58458,0.14667 -0.1695,-1.19341 -0.25115,-1.79055 -0.43804,-3.20377 -0.83286,-6.41027 -1.18974,-9.62409 -0.62645,-5.9219 -0.99225,-11.86473 -1.68766,-17.77925 -0.72992,-4.59288 -1.13459,-9.23142 -0.18613,-13.81031 0.84779,-3.25864 2.78864,-5.79023 5.37682,-7.85413 8.68524,-5.96448 15.83705,-10.23787 25.57966,-12.27327 6.01297,-1.42453 12.13208,-2.29775 18.25699,-3.06736 6.6826,-0.8029 13.39755,-1.28244 20.11381,-1.69262 4.34141,-0.25589 8.68609,-0.45088 13.03231,-0.6023 1.45918,-0.24306 0.78244,-0.0839 2.03696,-0.44776 0,0 -13.6047,10.30899 -13.6047,10.30899 l 0,0 c -1.3581,0.1696 -0.63462,0.10043 -2.17198,0.19074 -4.30402,0.13426 -8.60666,0.31447 -12.90538,0.56898 -6.68759,0.4145 -13.37302,0.91559 -20.02148,1.76607 -6.1195,0.81823 -12.22237,1.77899 -18.22533,3.24564 -7.15197,1.77287 -22.52275,9.85757 3.74113,-4.25156 -2.64796,1.686 -4.80487,3.71964 -5.87522,6.76559 -1.30657,4.34103 -0.83139,8.86913 -0.16594,13.29671 0.70141,5.91638 1.07439,11.85907 1.69894,17.78359 0.36476,3.19324 0.80246,6.36979 1.24387,9.55274 0.0771,0.556 0.68069,1.35306 0.21733,1.66989 -4.79322,3.27749 -10.11564,5.7045 -15.17345,8.55675 1.50799,0.63103 2.07016,-5.63485 2.3343,-6.40048 1.05806,-5.90077 1.73056,-11.85077 2.61956,-17.77736 1.05655,-6.18469 2.19492,-12.37369 4.15529,-18.34857 0.0564,-0.1784 1.26097,-4.20885 1.59418,-4.45728 6.48149,-4.83247 12.49501,-14.64811 18.0765,-8.45398 1.9194,2.92008 3.51033,6.04713 5.48011,8.93833 2.90924,4.73433 5.77438,9.49941 8.53594,14.32117 3.82394,6.5373 7.52603,13.14457 10.95751,19.89825 3.62539,7.12235 7.18223,14.27718 10.70014,21.4533 2.18585,4.48415 4.42647,8.94184 6.70386,13.37957 0,0 -14.89742,8.36683 -14.89742,8.36683 z" />
    <path
       style="fill:#000000;fill-opacity:1;stroke:#000000;stroke-width:5;stroke-linecap:round;stroke-linejoin:round;stroke-miterlimit:4;stroke-opacity:1;stroke-dasharray:none;stroke-dashoffset:24.6"
       id="path4485"
       d="m 143.90006,383.93595 c 1.83874,-5.12369 3.67371,-10.24957 5.42059,-15.40662 3.06224,-9.26937 6.29781,-18.47961 9.45278,-27.7174 2.80913,-7.70601 5.26601,-15.54741 8.29613,-23.17097 2.76653,-7.12092 12.82473,-20.3873 21.2542,-13.37941 2.91511,3.21117 4.35472,7.38534 5.94902,11.34113 1.80015,4.59147 3.77754,9.10811 5.50779,13.72768 1.25532,3.4242 2.37693,6.89511 3.43542,10.38453 -0.20927,0.39423 1.36202,4.19915 1.32112,2.52244 -17.34311,9.10558 -16.06805,11.88802 -13.23951,5.85927 1.34235,-2.86109 2.36882,-5.86721 3.44283,-8.83473 2.05361,-6.0548 4.07828,-12.12207 5.99164,-18.22308 1.44809,-4.70787 2.75926,-9.45615 4.01072,-14.21957 0.5032,-2.05255 1.08664,-4.08903 1.51088,-6.16033 0.006,-0.12476 0.0121,-0.24952 0.0181,-0.37429 0,0 15.17137,-7.89554 15.17137,-7.89554 l 0,0 c 0.0352,0.21283 0.0704,0.42566 0.1056,0.63849 -0.006,2.20626 -1.09719,4.31379 -1.46518,6.47041 -1.28792,4.79634 -2.62798,9.57898 -4.07604,14.32973 -1.89143,6.11889 -3.9615,12.18103 -5.93506,18.27343 -4.70804,13.36154 -2.19657,10.09368 -19.30364,20.30523 -1.56884,-1.12379 -2.1195,-2.6619 -2.50444,-4.52275 -1.00315,-3.47147 -2.08039,-6.92229 -3.3083,-10.32162 -1.70713,-4.61243 -3.67514,-9.11573 -5.48032,-13.68902 -1.47977,-3.6477 -2.7578,-7.60466 -5.54053,-10.49639 -5.51769,-3.41286 -1.44351,-0.48794 12.63325,-9.0892 0.33367,-0.20388 -0.65221,0.44271 -0.9206,0.72709 -1.47957,1.5677 -2.2759,3.66728 -3.23333,5.55026 -3.23607,7.54974 -5.59003,15.44901 -8.47162,23.13637 -3.14592,9.21999 -6.40111,18.40284 -9.39242,27.67511 -1.66859,5.09923 -3.37319,10.18887 -5.21441,15.22835 0,0 -15.43609,7.3314 -15.43609,7.3314 z" />
    <path
       style="fill:#000000;fill-opacity:1;stroke:#000000;stroke-width:5;stroke-linecap:round;stroke-linejoin:round;stroke-miterlimit:4;stroke-opacity:1;stroke-dasharray:none;stroke-dashoffset:24.6"
       id="path4487"
       d="m 166.83669,263.79007 c 2.49169,-3.81774 4.62922,-7.85543 6.83686,-11.84098 3.10388,-5.66959 6.22312,-11.33028 9.68299,-16.79219 5.13671,-7.61824 13.96213,-15.92871 23.54154,-15.88701 4.00414,0.80566 6.44562,4.01815 8.77911,7.0941 2.64473,3.72298 4.81839,7.72192 6.80733,11.82277 1.34132,2.81883 2.5509,5.69746 3.6799,8.60706 0.10922,0.53169 0.40574,0.88244 0.69001,1.28843 0,0 -14.6864,8.7907 -14.6864,8.7907 l 0,0 c -0.3918,-0.55418 -0.70558,-1.13562 -0.91027,-1.78948 -1.06997,-2.88361 -2.23122,-5.73358 -3.53595,-8.51978 -1.91756,-4.00797 -4.03481,-7.90703 -6.63364,-11.52269 -2.01263,-2.60595 -4.20215,-5.68991 -7.8439,-5.59889 -6.23723,1.70015 -1.68546,0.58529 11.80994,-7.41621 0.51881,-0.3076 -1.07831,0.5534 -1.56096,0.91509 -1.91757,1.43697 -3.30678,3.47592 -4.65041,5.41565 -3.55982,5.3758 -6.66724,11.02424 -9.74532,16.68555 -2.16853,3.98437 -4.33261,7.9733 -6.60465,11.89778 0,0 -15.65618,6.8501 -15.65618,6.8501 z" />
  </g>
</svg>
