<?xml version="1.0" encoding="UTF-8" standalone="no"?>
<!-- Created with Inkscape (http://www.inkscape.org/) -->
<svg
   xmlns:dc="http://purl.org/dc/elements/1.1/"
   xmlns:cc="http://creativecommons.org/ns#"
   xmlns:rdf="http://www.w3.org/1999/02/22-rdf-syntax-ns#"
   xmlns:svg="http://www.w3.org/2000/svg"
   xmlns="http://www.w3.org/2000/svg"
   xmlns:sodipodi="http://sodipodi.sourceforge.net/DTD/sodipodi-0.dtd"
   xmlns:inkscape="http://www.inkscape.org/namespaces/inkscape"
   width="814.33984"
   height="650.6225"
   id="svg2"
   sodipodi:version="0.32"
   inkscape:version="0.46+devel r20655"
   sodipodi:docname="c1d1.svg"
   version="1.0"
   inkscape:output_extension="org.inkscape.output.svg.inkscape">
  <sodipodi:namedview
     id="base"
     pagecolor="#ffffff"
     bordercolor="#666666"
     borderopacity="1.0"
     inkscape:pageopacity="0.0"
     inkscape:pageshadow="2"
     inkscape:zoom="0.49126506"
     inkscape:cx="421.07319"
     inkscape:cy="400.29862"
     inkscape:document-units="px"
     inkscape:current-layer="layer1"
     showgrid="false"
     inkscape:window-width="1280"
     inkscape:window-height="712"
     inkscape:window-x="-5"
     inkscape:window-y="-3" />
  <defs
     id="defs4">
    <inkscape:perspective
       id="perspective10"
       inkscape:persp3d-origin="372.04724 : 350.78739 : 1"
       inkscape:vp_z="744.09448 : 526.18109 : 1"
       inkscape:vp_y="0 : 1000 : 0"
       inkscape:vp_x="0 : 526.18109 : 1"
       sodipodi:type="inkscape:persp3d" />
  </defs>
  <metadata
     id="metadata7">
    <rdf:RDF>
      <cc:Work
         rdf:about="">
        <dc:format>image/svg+xml</dc:format>
        <dc:type
           rdf:resource="http://purl.org/dc/dcmitype/StillImage" />
        <dc:title></dc:title>
      </cc:Work>
    </rdf:RDF>
  </metadata>
  <g
     id="layer1"
     inkscape:groupmode="layer"
     inkscape:label="Layer 1"
     transform="translate(-154.6411,-120.61589)">
    <path
       d="m 364.5292,769.73836 c -2.17186,-50.19669 -4.27806,-100.39714 -6.0141,-150.61105 -1.65192,-48.94296 -3.16639,-97.89435 -3.81857,-146.86252 -0.45435,-44.83479 -0.7038,-89.67696 0.4268,-134.50531 0.80824,-37.17606 1.78487,-74.34806 3.0891,-111.51039 0.76512,-23.89622 1.6626,-47.78964 3.14609,-71.65388 0.5176,-9.15353 1.12483,-18.29898 2.01842,-27.42381 0,0 10.19945,-5.05551 10.19945,-5.05551 -1.09671,9.14915 -1.76057,18.33707 -2.35674,27.5299 -1.65781,23.90869 -2.64972,47.85449 -3.50648,71.80291 -1.44296,37.20203 -2.48993,74.41686 -3.36367,111.63605 -1.1976,44.83816 -0.9852,89.69212 -0.56545,134.53855 0.61228,48.97506 2.09464,97.93375 3.72412,146.8838 1.71267,50.20682 3.82619,100.39921 6.04006,150.58612"
       id="path2846"
       style="fill:#000000;fill-opacity:1;fill-rule:nonzero;stroke:#000000;stroke-width:3;stroke-linecap:round;stroke-linejoin:round;stroke-miterlimit:4;stroke-opacity:1;stroke-dasharray:none;stroke-dashoffset:0"
       sodipodi:nodetypes="cccccccccccccc" />
    <path
       d="m 164.39169,570.34912 c 48.42416,-2.45842 96.89358,-3.8466 145.37044,-4.67025 53.69245,-0.70534 107.39113,-0.54471 161.08646,-0.39157 57.14185,0.20474 114.28352,0.45472 171.42536,0.66126 56.78321,0.20541 113.56666,0.32983 170.35014,0.42363 51.61972,0.25573 103.23598,0.84396 154.85687,0.70611 0,0 -8.23064,5.98242 -8.23064,5.98242 l 0,0 c -51.56789,0.0679 -103.13082,-0.5579 -154.69743,-0.82674 -56.76852,-0.11629 -113.53699,-0.25444 -170.30527,-0.45838 -57.1561,-0.2059 -114.31207,-0.44736 -171.46826,-0.6289 -53.72551,-0.12915 -107.45448,-0.2657 -161.17656,0.48198 -48.50776,0.86336 -97.0078,2.28629 -145.4617,4.78194"
       id="path2848"
       style="fill:#000000;fill-opacity:1;fill-rule:nonzero;stroke:#000000;stroke-width:3;stroke-linecap:round;stroke-linejoin:round;stroke-miterlimit:4;stroke-opacity:1;stroke-dasharray:none;stroke-dashoffset:0"
       sodipodi:nodetypes="cccsccccccccc" />
    <path
       d="m 363.55352,576.20551 c -3.30736,1.38781 -6.45634,3.0923 -9.82087,4.34176 -3.79036,1.30677 -7.40928,1.54278 -11.15505,0.11594 -3.11295,-1.52065 -4.31878,-4.39647 -5.10314,-7.57451 -0.63622,-3.46442 0.1796,-6.68119 1.72636,-9.76813 3.88552,-5.5425 10.63612,-9.82117 17.11358,-11.23608 3.51652,-0.51228 6.75743,0.83224 9.68962,2.64341 3.51662,2.47824 5.40647,6.20886 6.99594,10.07916 1.56669,4.218 1.54727,8.51368 0.57426,12.84284 -2.96506,7.82483 -11.71751,10.54758 -18.48184,14.24187 -4.73699,1.62292 -9.40164,1.20781 -13.88303,-0.85943 -5.00816,-2.81982 -7.15658,-7.63505 -8.11609,-13.05775 -0.65044,-6.76028 1.50737,-13.00004 4.73214,-18.82143 5.62548,-8.59028 14.40298,-14.32109 24.08442,-17.7162 5.59396,-1.51914 10.70615,-0.0769 15.53738,2.79979 4.70293,3.28031 6.47052,7.98209 6.81256,13.50442 -0.0958,5.92726 -2.8079,10.92119 -6.29101,15.52437 -6.27198,6.29635 -14.47135,12.09448 -23.56862,12.57991 -5.56557,-0.4322 -9.33036,-3.6257 -11.95314,-8.33064 -2.47192,-5.87362 -1.54974,-11.79834 0.70008,-17.54077 4.8653,-9.08551 14.42443,-14.49027 24.00378,-17.69559 6.74417,-1.5358 12.61461,0.32167 18.04217,4.29657 5.22351,4.51616 6.85405,10.61624 6.66128,17.2783 -0.77771,7.34329 -4.85461,13.08652 -10.10082,17.9901 -8.70623,7.07213 -18.04519,12.05635 -29.16619,11.80603 -6.40589,-0.74517 -11.36108,-3.95086 -14.93655,-9.19872 -2.92711,-5.37376 -2.37767,-10.63713 0.40677,-15.86718 6.09241,-7.05722 15.18049,-12.31207 24.6149,-12.72777 6.07994,0.15293 11.10232,2.7921 14.64525,7.65404 3.08366,5.59361 1.48826,11.0201 -1.75776,16.07079 -6.9786,7.76448 -16.67445,13.60454 -26.93098,15.72482 -6.72342,0.96013 -11.67393,-1.5945 -15.19577,-7.20417 -2.81413,-6.7925 -1.07657,-13.58731 1.87268,-19.97545 5.24617,-8.87873 14.50282,-15.59245 24.68379,-17.75149 6.3404,-0.44298 10.56421,2.98037 13.64538,8.16773 2.9355,6.68186 2.18708,13.65738 0.0855,20.42694 -4.02237,10.7693 -12.82056,14.09501 -22.55057,19.36388 -5.80606,1.4447 -9.80757,-1.21205 -12.14619,-6.38541 -1.91336,-7.2035 1.56533,-13.44409 5.65778,-19.11805 7.64753,-7.99496 17.87944,-14.76455 29.091,-15.81988 6.54607,0.0827 10.04443,3.77434 10.7538,10.02067 -0.43862,3.9351 -0.0489,1.97771 -1.19345,5.86726 0,0 -10.19508,4.80665 -10.19508,4.80665 l 0,0 c 1.23642,-3.62869 0.78968,-1.8082 1.37519,-5.45278 -0.42504,-5.83317 -3.79576,-8.73699 -9.76837,-8.52341 -6.99188,0.9546 -9.98169,4.25183 -0.47732,-2.53555 1.05144,-0.75087 -2.27514,1.23389 -3.34532,1.95782 -2.91813,1.97398 -3.45831,2.75224 -5.93684,5.23272 -4.01659,5.26079 -7.71399,11.11946 -6.12063,18.0173 2.13942,4.84009 5.98365,6.64819 11.15634,4.93971 -2.35671,1.47548 -4.72878,2.92671 -7.07014,4.42642 -0.83818,0.53688 1.74791,-0.96178 2.55992,-1.53748 3.70179,-2.62455 6.31737,-6.31078 8.03781,-10.47328 2.18755,-6.43424 3.08883,-13.11627 0.32786,-19.56173 -2.90505,-4.86414 -6.93515,-7.81489 -12.84829,-6.9727 -5.22591,1.46872 -3.84311,1.35548 4.16318,-3.5392 0.93201,-0.56979 -1.88401,1.11569 -2.75383,1.77653 -2.85163,2.16653 -5.08617,4.95503 -6.90159,8.0199 -2.99029,5.9713 -4.91011,12.4314 -2.35542,18.94531 3.34954,5.30137 8.16725,7.19922 14.40143,6.065 4.00501,-1.00304 13.33066,-5.85981 -0.0452,1.84069 -3.60853,2.07744 11.20934,-6.76885 7.69518,-6.24245 3.26725,-4.51648 5.21594,-9.53398 2.36803,-14.82347 -3.39292,-4.58372 -8.27149,-6.80238 -14.0029,-6.72056 -6.77838,0.61651 -8.73661,3.43527 1.31607,-3.52983 3.11954,-2.16139 -9.65873,5.25867 -6.54668,4.9742 -2.91436,4.76691 -3.73854,9.62427 -0.98788,14.74795 3.41278,4.97171 8.22899,7.82635 14.31889,8.30381 2.9109,-0.0316 3.70392,0.0977 6.59753,-0.50017 3.41201,-0.70494 14.48862,-5.90277 0.0712,1.60543 -1.07052,0.5575 1.98754,-1.37003 2.98131,-2.05504 5.28255,-4.56642 9.47689,-10.05323 10.4523,-17.16679 0.36082,-6.30619 -1.09327,-12.08133 -6.11411,-16.30544 -5.29547,-3.71187 -11.02005,-5.21629 -17.41093,-3.40862 -4.55419,1.76006 -6.02632,2.52644 3.80899,-2.94823 0.93868,-0.5225 -1.81789,1.15125 -2.66738,1.80889 -1.8793,1.45488 -3.001,2.61797 -4.38709,4.54624 -0.60594,0.84296 -1.10161,1.75996 -1.65242,2.63994 -2.32772,5.38542 -3.43122,10.99184 -1.14156,16.62792 2.44503,4.38558 6.0387,7.19687 11.24981,7.24499 5.2592,-0.60802 9.34606,-4.069 -2.43603,3.551 -2.7009,1.74679 8.89453,-5.17151 6.55422,-4.97177 3.50907,-4.33636 6.33755,-9.06524 6.61993,-14.79148 -0.17244,-5.18569 -1.75651,-9.54021 -6.24738,-12.52905 -4.72289,-2.64476 -9.64728,-3.74404 -14.94043,-1.99571 -3.3614,1.38272 -8.60966,3.69406 4.26672,-3.02628 0.93294,-0.48691 -1.7486,1.17655 -2.56516,1.84039 -1.59655,1.29794 -3.33694,3.0772 -4.63733,4.66642 -0.70949,0.86708 -1.33251,1.80146 -1.99877,2.7022 -3.28769,5.55389 -5.53316,11.54133 -5.04348,18.11289 0.80879,5.09193 2.76139,9.58774 7.56411,12.07974 4.39495,1.78358 8.88712,1.90121 13.34484,0.11141 -15.98343,9.73706 -2.43642,2.73976 -0.60189,-2.33345 1.1066,-4.0911 1.21367,-8.16871 -0.24022,-12.21325 -1.48374,-3.65614 -3.23699,-7.19285 -6.63322,-9.44197 -2.83599,-1.61266 -5.89279,-2.71365 -9.17585,-1.88573 -4.42913,1.51936 -1.65054,0.66901 6.97878,-4.4786 0.43927,-0.26204 -0.90707,0.47762 -1.33006,0.76519 -0.91042,0.61894 -1.65813,1.32399 -2.39118,2.14075 -0.35954,0.40059 -0.68096,0.83382 -1.02144,1.25073 -1.65355,2.78958 -2.57124,5.74654 -2.08818,9.02102 0.64733,2.85051 1.60945,5.40816 4.51361,6.60242 3.61176,1.13553 7.13637,0.5729 10.65508,-0.74306 3.33122,-1.36195 6.54288,-2.9899 9.82045,-4.47451 0,0 -8.89863,7.11806 -8.89863,7.11806 z"
       id="path2850"
       style="fill:#000000;fill-opacity:1;fill-rule:nonzero;stroke:#000000;stroke-width:3;stroke-linecap:round;stroke-linejoin:round;stroke-miterlimit:4;stroke-opacity:1;stroke-dasharray:none;stroke-dashoffset:0" />
    <path
       d="m 703.55418,311.35566 c 0.58012,-3.38029 2.31531,-6.35615 4.18688,-9.1705 4.24355,-5.1031 10.60343,-10.52995 17.42799,-10.6467 2.71841,0.33671 3.07716,2.71591 2.61782,4.99075 -2.35112,6.4961 -9.17069,8.55274 -14.82402,11.8248 -2.61151,0.98259 -4.43068,-0.11881 -5.47777,-2.54095 -0.71021,-3.50356 0.85047,-6.7101 2.65247,-9.60838 4.18488,-5.67308 10.91671,-10.78704 17.80684,-12.1174 3.59758,0.41715 4.27322,3.70594 4.4112,6.77473 -0.15884,4.20793 -2.05135,7.8902 -4.33436,11.31919 -3.96011,5.10071 -9.15783,6.91482 -15.0343,10.27325 0,0 8.86163,-7.09299 8.86163,-7.09299 l 0,0 c -16.24362,9.63142 -7.1308,4.89169 -4.20426,1.34049 2.2922,-3.20722 4.28082,-6.64723 4.62007,-10.66515 -0.0123,-2.36232 -0.1904,-5.44109 -3.32874,-5.03242 -4.18817,1.50375 -2.13152,0.85245 7.0958,-4.48906 0.50234,-0.2908 -0.99192,0.60648 -1.45613,0.95494 -1.56223,1.1727 -2.94338,2.58853 -4.0656,4.18553 -1.75697,2.55047 -3.41072,5.38339 -3.10116,8.60335 0.80945,2.12223 2.59466,1.89914 4.40931,0.97465 -16.58703,9.80018 -6.37456,4.99765 -4.29617,0.18085 0.60697,-1.63237 0.76229,-3.27694 -1.47814,-3.09293 -3.76935,0.81747 -9.07101,4.65432 6.09587,-4.17693 0.80625,-0.46946 -4.25284,2.74183 -4.01334,3.51252 -1.87353,2.65132 -3.66431,5.44712 -4.34786,8.6704 0,0 -10.22403,5.02796 -10.22403,5.02796 z"
       id="path2852"
       style="fill:#000000;fill-opacity:1;fill-rule:nonzero;stroke:#000000;stroke-width:3;stroke-linecap:round;stroke-linejoin:round;stroke-miterlimit:4;stroke-opacity:1;stroke-dasharray:none;stroke-dashoffset:0" />
    <path
       d="m 372.4305,554.01991 c 5.97834,-5.15355 11.93882,-10.32833 17.91996,-15.47915 15.6274,-13.57166 31.27869,-27.11556 46.93586,-40.65299 23.32859,-20.22562 46.86787,-40.20613 70.39756,-60.19687 24.42371,-20.73481 49.08979,-41.18295 73.97096,-61.36607 10.24225,-8.24623 20.59484,-16.35355 30.94299,-24.46594 0,0 10.01524,-4.00692 10.01524,-4.00692 l 0,0 c -10.39226,8.12362 -20.78917,16.2419 -31.07555,24.49972 -24.92432,20.17195 -49.62147,40.62442 -74.06474,61.37716 -23.47952,19.95453 -46.96319,39.90547 -70.22355,60.11567 -15.55794,13.49097 -31.12039,26.97632 -46.62461,40.52898 -5.90263,5.09889 -11.79378,10.21145 -17.63222,15.3833 0,0 -10.5619,4.26311 -10.5619,4.26311 z"
       id="path2854"
       style="fill:#000000;fill-opacity:1;fill-rule:nonzero;stroke:#000000;stroke-width:3;stroke-linecap:round;stroke-linejoin:round;stroke-miterlimit:4;stroke-opacity:1;stroke-dasharray:none;stroke-dashoffset:0" />
    <path
       d="m 576.75692,306.65759 c 4.94614,2.10064 10.39562,2.4255 15.69416,2.65064 10.09403,0.31264 20.11028,-1.17078 30.03652,-2.81669 8.70474,-1.40104 17.29857,-3.38375 25.95102,-5.05319 2.75032,-0.36118 7.39058,-2.17035 9.0267,1.02217 -0.12285,4.21898 -3.40872,7.98627 -5.56183,11.44679 -5.40598,8.60053 -10.24688,17.53064 -15.08167,26.45887 -6.71724,12.54945 -12.91889,25.36394 -19.29898,38.08565 -4.08654,8.08312 -2.0435,4.11764 -6.12375,11.89919 0,0 -10.11247,4.54918 -10.11247,4.54918 l 0,0 c 4.11709,-7.77272 2.05934,-3.80885 6.16703,-11.89485 6.39093,-12.71052 12.57667,-25.52607 19.243,-38.09629 4.79502,-8.91475 9.56939,-17.84625 14.90782,-26.45247 2.07631,-3.39228 4.46382,-6.68127 5.94328,-10.3906 -0.62395,-1.99065 -6.9338,0.21258 -8.08831,0.16266 -8.62187,1.68079 -17.20727,3.55887 -25.88235,4.96044 -9.99372,1.61678 -20.07823,3.04721 -30.2325,2.66921 -5.45139,-0.28871 -11.0513,-0.68588 -16.10718,-2.93722 0,0 9.51951,-6.26349 9.51951,-6.26349 z"
       id="path2856"
       style="fill:#000000;fill-opacity:1;fill-rule:nonzero;stroke:#000000;stroke-width:3;stroke-linecap:round;stroke-linejoin:round;stroke-miterlimit:4;stroke-opacity:1;stroke-dasharray:none;stroke-dashoffset:0" />
    <g
       id="g2870"
       transform="matrix(2.0584431,0,0,2.0584431,-229.38923,-49.531687)">
      <g
         word-spacing="normal"
         letter-spacing="normal"
         font-size-adjust="none"
         font-stretch="normal"
         font-weight="normal"
         font-variant="normal"
         font-style="normal"
         fill-rule="even-odd"
         stroke-miterlimit="10.433"
         xml:space="preserve"
         transform="matrix(1.0629921,0,0,-1.0629921,-186.02362,789.27165)"
         id="content"
         style="font-style:normal;font-variant:normal;font-weight:normal;font-stretch:normal;letter-spacing:normal;word-spacing:normal;text-anchor:start;fill:none;stroke:#000000;stroke-linecap:butt;stroke-linejoin:miter;stroke-miterlimit:10.43299961;stroke-opacity:1;stroke-dasharray:none;stroke-dashoffset:0"><path
           id="path2873"
           d="m 477.82,406.3 0.72,0.29 0.72,0.33 0.71,0.36 0.71,0.39 0.7,0.42 0.69,0.45 0.68,0.49 0.68,0.5 0.65,0.54 0.65,0.56 0.63,0.59 0.61,0.61 0.6,0.64 0.57,0.66 0.56,0.68 0.54,0.7 0.51,0.72 0.49,0.73 0.46,0.76 0.44,0.77 0.41,0.79 0.38,0.8 0.35,0.82 0.32,0.83 0.28,0.84 0.26,0.85 0.21,0.87 0.18,0.87 0.15,0.88 0.1,0.89 0.06,0.89 0.02,0.9 c 0,8.02 -5.28,13.4 -12.7,13.4 l -0.3,-1.25 c 4.98,0 8.62,-3.88 8.62,-10.56 0,-4.98 -2.54,-16.63 -10.91,-21.32 -0.25,1.74 -0.75,5.38 -4.39,5.38 v -1.09 c 2.1,0 3.04,-1.2 3.04,-4.24 0,-0.74 -0.04,-0.79 -0.54,-0.99 -1.3,-0.55 -2.79,-0.9 -4.19,-0.9 h 0 c -0.7,0 -2.29,0 -2.29,2.14 0,2 1.89,3.99 3.98,3.99 v 1.09 c -2.63,0 -5.07,-2.49 -5.07,-5.08 0,-0.99 0.29,-1.54 0.29,-1.59 h 0 c -3.88,1.54 -5.58,5.43 -5.58,9.91 0,3.44 1.3,10.51 5.09,15.89 3.63,5.08 8.31,7.37 11.95,7.37 l 0.3,1.25 c -10.76,0 -21.72,-11.31 -21.72,-22.92 0,-8.27 5.58,-13.3 12.75,-13.3 1.25,0 2.94,0.2 4.88,0.75 -0.19,-3.09 -0.19,-3.19 -0.19,-3.83 0,-1.6 0,-5.48 4.13,-5.48 5.93,0 8.32,9.11 8.32,9.66 0,0.35 -0.35,0.5 -0.55,0.5 -0.4,0 -0.5,-0.25 -0.6,-0.55 -1.19,-3.54 -4.08,-4.78 -5.82,-4.78 -2.3,0 -3.04,1.34 -3.54,5.13 z"
           style="fill:#000000;stroke-width:0" /></g>    </g>
    <g
       id="g2903"
       transform="matrix(2.0584431,0,0,2.0584431,128.86951,-460.71501)">
      <g
         id="g2905"
         transform="matrix(1.0629921,0,0,-1.0629921,-186.02362,789.27165)"
         xml:space="preserve"
         stroke-miterlimit="10.433"
         fill-rule="even-odd"
         font-style="normal"
         font-variant="normal"
         font-weight="normal"
         font-stretch="normal"
         font-size-adjust="none"
         letter-spacing="normal"
         word-spacing="normal"
         style="font-style:normal;font-variant:normal;font-weight:normal;font-stretch:normal;letter-spacing:normal;word-spacing:normal;text-anchor:start;fill:none;stroke:#000000;stroke-linecap:butt;stroke-linejoin:miter;stroke-miterlimit:10.43299961;stroke-opacity:1;stroke-dasharray:none;stroke-dashoffset:0"><path
           d="m 478.52,427.47 0,0.02 -0.01,0.02 0,0.02 0,0.02 -0.01,0.02 0,0.02 -0.01,0.02 0,0.02 -0.01,0.02 -0.01,0.02 -0.01,0.02 -0.01,0.02 -0.01,0.03 -0.01,0.02 -0.02,0.01 -0.01,0.02 -0.02,0.02 -0.01,0.02 -0.02,0.02 -0.02,0.01 -0.02,0.02 -0.02,0.01 -0.02,0.02 -0.03,0.01 -0.02,0.01 -0.03,0.01 -0.02,0.01 -0.03,0.01 -0.03,0 -0.03,0.01 -0.03,0 -0.02,0 -0.01,0 c -0.55,0 -2.54,-1.99 -3.39,-3.44 -1.09,2.69 -3.04,3.49 -4.63,3.49 v -1.1 c 3.23,0 3.93,-4.03 3.93,-4.38 0,-0.3 -2.74,-11.21 -2.89,-11.41 -0.74,-1.4 -3.53,-4.58 -6.32,-4.58 h 0 c -2.99,0 -3.19,3.83 -3.19,4.68 0,2.39 1.44,7.82 2.29,9.91 1.54,3.69 4.14,5.78 6.18,5.78 v 1.1 c -5.88,0 -12.01,-7.38 -12.01,-14.6 0,-4.88 2.94,-7.97 6.58,-7.97 2.14,0 4.08,1.2 5.88,2.99 -0.45,-1.74 -2.09,-8.47 -2.25,-8.92 -0.4,-1.39 -0.79,-1.59 -3.58,-1.64 -0.65,0 -1.15,0 -1.15,-1 0,-0.04 0,-0.54 0.65,-0.54 h 10.11 c 0.25,0 0.9,0 0.9,0.99 0,0.55 -0.5,0.55 -1.3,0.55 -2.39,0 -2.39,0.35 -2.39,0.8 0,0.35 0.1,0.64 0.2,1.09 z"
           id="path2907"
           style="fill:#000000;stroke-width:0" /></g>    </g>
    <g
       id="g2943"
       transform="matrix(2.0584431,0,0,2.0584431,-162.21571,-322.29686)">
      <g
         word-spacing="normal"
         letter-spacing="normal"
         font-size-adjust="none"
         font-stretch="normal"
         font-weight="normal"
         font-variant="normal"
         font-style="normal"
         fill-rule="even-odd"
         stroke-miterlimit="10.433"
         xml:space="preserve"
         transform="matrix(1.0629921,0,0,-1.0629921,-186.02362,789.27165)"
         id="g2945"
         style="font-style:normal;font-variant:normal;font-weight:normal;font-stretch:normal;letter-spacing:normal;word-spacing:normal;text-anchor:start;fill:none;stroke:#000000;stroke-linecap:butt;stroke-linejoin:miter;stroke-miterlimit:10.43299961;stroke-opacity:1;stroke-dasharray:none;stroke-dashoffset:0"><path
           id="path2947"
           d="m 480.75,435.64 -0.07,-0.06 -0.07,-0.07 -0.08,-0.07 -0.08,-0.07 -0.09,-0.08 -0.09,-0.08 -0.09,-0.09 -0.09,-0.09 -0.1,-0.09 -0.09,-0.09 -0.2,-0.19 -0.19,-0.19 -0.19,-0.21 -0.09,-0.1 -0.09,-0.1 -0.09,-0.1 -0.08,-0.11 -0.08,-0.1 -0.08,-0.1 -0.07,-0.1 -0.06,-0.1 -0.06,-0.1 -0.05,-0.1 -0.05,-0.1 -0.04,-0.09 -0.03,-0.1 -0.02,-0.09 -0.02,-0.09 0,-0.08 c 0,-0.5 0.5,-1 1,-1 0.44,0 0.69,0.35 0.94,0.65 0.6,0.75 1.74,2.14 3.94,3.24 0.35,0.2 0.84,0.45 0.84,1.05 0,0.49 -0.34,0.74 -0.69,0.99 -1.1,0.75 -1.65,1.64 -2.05,2.84 -0.1,0.45 -0.3,1.1 -0.99,1.1 -0.7,0 -1,-0.65 -1,-1.05 0,-0.25 0.4,-1.84 1.2,-2.89 h -16.79 c -0.85,0 -1.74,0 -1.74,-0.99 0,-1 0.89,-1 1.74,-1 z"
           style="fill:#000000;stroke-width:0" /><path
           id="path2949"
           d="m 460.38,408.94 -0.01,-0.07 -0.02,-0.08 -0.01,-0.07 -0.02,-0.08 -0.03,-0.16 -0.04,-0.16 -0.04,-0.16 -0.03,-0.16 -0.04,-0.16 -0.04,-0.16 -0.01,-0.08 -0.02,-0.07 -0.02,-0.07 -0.01,-0.07 -0.02,-0.07 -0.01,-0.07 -0.01,-0.06 -0.02,-0.06 -0.01,-0.05 -0.01,-0.06 -0.01,-0.05 0,-0.04 -0.01,-0.04 0,-0.04 -0.01,-0.03 0,-0.02 c 0,-0.9 0.7,-1.35 1.45,-1.35 0.6,0 1.5,0.4 1.84,1.4 0.1,0.2 1.8,6.97 1.99,7.87 0.4,1.64 1.3,5.13 1.6,6.47 0.2,0.65 1.59,2.99 2.79,4.09 0.4,0.34 1.84,1.64 3.99,1.64 1.29,0 2.03,-0.6 2.09,-0.6 -1.5,-0.25 -2.59,-1.44 -2.59,-2.73 0,-0.8 0.54,-1.75 1.89,-1.75 1.34,0 2.74,1.14 2.74,2.94 0,1.74 -1.6,3.24 -4.13,3.24 -3.24,0 -5.43,-2.44 -6.38,-3.84 -0.4,2.24 -2.19,3.84 -4.53,3.84 -2.3,0 -3.24,-1.95 -3.69,-2.84 -0.9,-1.7 -1.54,-4.68 -1.54,-4.83 0,-0.5 0.49,-0.5 0.59,-0.5 0.5,0 0.55,0.05 0.85,1.14 0.84,3.54 1.84,5.93 3.64,5.93 0.84,0 1.54,-0.4 1.54,-2.29 0,-1.04 -0.15,-1.59 -0.8,-4.18 z"
           style="fill:#000000;stroke-width:0" /></g>    </g>
  </g>
</svg>
