<?xml version="1.0" encoding="UTF-8" standalone="no"?>
<!-- Created with Inkscape (http://www.inkscape.org/) -->
<svg
   xmlns:dc="http://purl.org/dc/elements/1.1/"
   xmlns:cc="http://creativecommons.org/ns#"
   xmlns:rdf="http://www.w3.org/1999/02/22-rdf-syntax-ns#"
   xmlns:svg="http://www.w3.org/2000/svg"
   xmlns="http://www.w3.org/2000/svg"
   xmlns:sodipodi="http://sodipodi.sourceforge.net/DTD/sodipodi-0.dtd"
   xmlns:inkscape="http://www.inkscape.org/namespaces/inkscape"
   width="549.00842"
   height="694.27899"
   id="svg2992"
   sodipodi:version="0.32"
   inkscape:version="0.46+devel r20655"
   version="1.0"
   sodipodi:docname="c1d2.svg"
   inkscape:output_extension="org.inkscape.output.svg.inkscape">
  <defs
     id="defs2994">
    <inkscape:perspective
       sodipodi:type="inkscape:persp3d"
       inkscape:vp_x="0 : 526.18109 : 1"
       inkscape:vp_y="0 : 1000 : 0"
       inkscape:vp_z="744.09448 : 526.18109 : 1"
       inkscape:persp3d-origin="372.04724 : 350.78739 : 1"
       id="perspective3000" />
  </defs>
  <sodipodi:namedview
     id="base"
     pagecolor="#ffffff"
     bordercolor="#666666"
     borderopacity="1.0"
     inkscape:pageopacity="0.0"
     inkscape:pageshadow="2"
     inkscape:zoom="1.5327014"
     inkscape:cx="204.21459"
     inkscape:cy="138.97032"
     inkscape:document-units="px"
     inkscape:current-layer="layer1"
     showgrid="false"
     inkscape:window-width="1280"
     inkscape:window-height="712"
     inkscape:window-x="-5"
     inkscape:window-y="-3" />
  <metadata
     id="metadata2997">
    <rdf:RDF>
      <cc:Work
         rdf:about="">
        <dc:format>image/svg+xml</dc:format>
        <dc:type
           rdf:resource="http://purl.org/dc/dcmitype/StillImage" />
        <dc:title></dc:title>
      </cc:Work>
    </rdf:RDF>
  </metadata>
  <g
     inkscape:label="Layer 1"
     inkscape:groupmode="layer"
     id="layer1"
     transform="translate(126.18676,-149.03509)">
    <path
       style="fill:#000000;fill-opacity:1;fill-rule:nonzero;stroke:#000000;stroke-width:3;stroke-linecap:round;stroke-linejoin:round;stroke-miterlimit:4;stroke-opacity:1;stroke-dasharray:none;stroke-dashoffset:0"
       id="path3002"
       d="m 50.788063,150.53509 c -0.333452,7.88091 -0.663263,15.75555 -0.787325,23.645 -0.15748,19.94455 -0.06071,39.89022 -0.0126,59.83507 -0.129054,31.66712 -0.593001,63.33181 -0.958399,94.99684 -0.516986,37.6485 -0.763668,75.29734 -0.418791,112.94805 0.292428,37.30327 1.799189,74.57562 3.789929,111.82159 1.981531,34.87737 4.725267,69.70347 7.573256,104.51862 2.68249,31.5299 5.551154,63.04447 8.802744,94.52094 3.011241,28.04121 6.524938,56.02422 10.082226,84.00024 0,0 -9.501255,4.99263 -9.501255,4.99263 l 0,0 c -3.520199,-27.99989 -7.013586,-56.00448 -10.009269,-84.0665 -3.228421,-31.49782 -6.072878,-63.03332 -8.729856,-94.58432 -2.824682,-34.83516 -5.556124,-69.68029 -7.52597,-104.5764 -1.972985,-37.26738 -3.480841,-74.56 -3.769225,-111.88382 -0.350012,-37.64601 -0.118836,-75.29046 0.34704,-112.93491 0.311874,-31.61862 0.707123,-63.23762 0.721201,-94.85814 -0.124275,-19.90138 -0.29572,-39.80296 -0.281387,-59.70484 0.05724,-7.83876 0.315843,-15.66727 0.530127,-23.49961 0,0 10.147554,-5.17044 10.147554,-5.17044 z" />
    <path
       style="fill:#000000;fill-opacity:1;fill-rule:nonzero;stroke:#000000;stroke-width:3;stroke-linecap:round;stroke-linejoin:round;stroke-miterlimit:4;stroke-opacity:1;stroke-dasharray:none;stroke-dashoffset:0"
       id="path3008"
       d="m -124.68676,327.88846 c 1.73103,-4.07376 4.05884,-7.75971 6.92366,-11.11827 6.57583,-6.35798 14.69686,-11.84161 23.68487,-13.8956 7.495622,-1.19342 12.906785,2.40586 17.895681,7.55402 7.946933,10.28055 11.719492,22.91151 15.395729,35.17961 4.787613,17.10684 7.474757,34.68569 9.753486,52.2716 1.903353,14.95649 2.999844,29.98601 3.416001,45.05234 0,0 -9.883266,5.06638 -9.883266,5.06638 l 0,0 c -0.323582,-15.05345 -1.35019,-30.07239 -3.237181,-45.01646 -2.243272,-17.52827 -4.90235,-35.05162 -9.709837,-52.09036 -3.64786,-12.07853 -7.386124,-24.54245 -15.299933,-34.61233 -4.882272,-4.88402 -10.133542,-8.06266 -17.28724,-6.54459 -3.92117,1.1368 -12.36751,5.68158 2.07662,-2.38386 3.736069,-2.08618 -10.06299,6.02064 -6.39994,5.03255 -2.92716,3.21113 -5.2712,6.7519 -7.00747,10.74946 0,0 -10.32118,4.75551 -10.32118,4.75551 z" />
    <path
       style="fill:#000000;fill-opacity:1;fill-rule:nonzero;stroke:#000000;stroke-width:3;stroke-linecap:round;stroke-linejoin:round;stroke-miterlimit:4;stroke-opacity:1;stroke-dasharray:none;stroke-dashoffset:0"
       id="path3010"
       d="m -66.606684,362.13573 c -2.663546,5.16022 -4.714343,10.61445 -6.926951,15.97749 -3.880991,9.41521 -7.672294,18.86511 -11.724267,28.2089 -3.868736,9.09295 -8.093525,18.02137 -12.469379,26.87867 0,0 -10.206979,4.62207 -10.206979,4.62207 l 0,0 c 4.40291,-8.84795 8.689058,-17.7509 12.548567,-26.85301 4.05914,-9.31768 7.836149,-18.74998 11.673003,-28.16026 2.191926,-5.36282 4.261576,-10.78177 6.704106,-16.03709 0,0 10.4019,-4.63677 10.4019,-4.63677 z" />
    <path
       style="fill:#000000;fill-opacity:1;fill-rule:nonzero;stroke:#000000;stroke-width:3;stroke-linecap:round;stroke-linejoin:round;stroke-miterlimit:4;stroke-opacity:1;stroke-dasharray:none;stroke-dashoffset:0"
       id="path3012"
       d="m 396.99486,509.32984 c -3.60171,-1.84404 -5.33628,-5.29546 -6.57128,-8.96431 -1.22041,-4.60418 -0.56182,-9.16638 0.9702,-13.58624 3.21907,-7.64328 9.22381,-9.2095 16.67872,-13.24586 3.59419,-0.26268 6.03704,2.10601 7.90504,4.88523 2.11543,3.76197 2.49968,7.93902 2.27336,12.16168 -1.12817,8.78747 -5.8581,8.73077 -14.49892,12.68611 -3.53944,-1.60206 -4.37386,-5.1458 -4.69169,-8.69163 -0.0196,-4.14067 1.31131,-7.96688 3.46557,-11.44879 3.93336,-4.81682 11.35925,-10.97545 16.88989,-6.47985 2.25578,2.6995 2.11672,6.15133 1.55722,9.42433 -0.75587,3.5576 -2.69064,6.535 -5.21391,9.08462 -4.12246,3.00734 -10.80714,10.15296 -16.34278,6.78 -1.92535,-1.69053 -1.93804,-3.99317 -1.44906,-6.31962 1.63743,-4.62965 10.77955,-11.62668 14.10564,-6.54307 0.92261,2.24357 0.35428,4.28003 -0.9335,6.20827 -3.49068,4.36608 -9.28559,6.78912 -14.81273,6.74882 -2.63919,0.22394 -5.25703,0.63926 -7.88605,0.95496 -3.29013,0.37935 -6.59313,0.62166 -9.89777,0.82953 -3.23345,0.16028 -6.45687,0.21613 -9.66539,0.66701 -3.04637,0.48107 -6.08116,1.02645 -9.13821,1.43752 -3.7973,0.50917 -7.63155,0.58746 -11.44089,0.95582 -4.55222,0.55345 -9.09981,1.13629 -13.66157,1.60739 -5.00545,0.68483 -9.98908,1.51563 -14.99134,2.22273 -4.93959,0.68422 -9.90828,1.12294 -14.88147,1.47038 -4.6054,0.30371 -9.21856,0.45421 -13.83203,0.56395 -4.20156,0.0922 -8.40411,0.11302 -12.60649,0.12881 -4.22506,-0.12381 -8.42449,0.0862 -12.62749,0.49523 -4.33657,0.46178 -8.67213,0.92731 -13.01788,1.29453 -4.35247,0.42995 -8.73166,0.46439 -13.08513,0.85697 -4.54977,0.5183 -9.09232,1.09097 -13.64839,1.55326 -5.09276,0.5095 -10.20417,0.78129 -15.31551,1.01753 -5.01783,0.2733 -10.04838,0.1956 -15.06323,0.50451 -4.91455,0.40761 -9.81693,0.9446 -14.72878,1.38345 -5.22644,0.62189 -10.42778,1.39103 -15.58575,2.43705 -5.09736,1.16866 -10.26953,1.94306 -15.40614,2.9034 -5.3705,1.08536 -10.77293,1.98541 -16.20171,2.72063 -5.99146,0.62195 -11.98296,1.20484 -17.96595,1.91057 -6.04958,0.74501 -12.11694,1.32191 -18.193651,1.78975 -5.500311,0.40149 -11.007047,0.60001 -16.497376,1.12745 -4.836518,0.53171 -9.669739,1.09139 -14.509113,1.59689 -3.930707,0.47585 -7.897292,0.55907 -11.827461,1.01746 -2.96967,0.25168 -5.829249,1.22836 -8.78349,1.52578 -0.382909,-0.0307 -0.765817,-0.0613 -1.148725,-0.092 0,0 9.213448,-6.66459 9.213448,-6.66459 l 0,0 c 0.347097,-0.0154 0.694193,-0.0308 1.04129,-0.0462 2.923827,-0.49318 5.81328,-1.20669 8.773564,-1.47893 3.934306,-0.37226 7.886077,-0.55115 11.813687,-1.00574 4.834422,-0.50517 9.66169,-1.07503 14.496977,-1.57173 5.490358,-0.49251 10.99826,-0.67728 16.49383,-1.10464 6.06672,-0.48397 12.1234,-1.07861 18.16423,-1.82225 5.98372,-0.70005 11.9818,-1.23953 17.96492,-1.93852 5.41893,-0.7642 10.80894,-1.69868 16.17696,-2.76437 5.1417,-0.92607 10.29512,-1.78754 15.39804,-2.91796 5.18356,-1.00861 10.41186,-1.76096 15.66042,-2.3438 4.91903,-0.45231 9.82952,-1.004 14.75734,-1.35397 5.01771,-0.23767 10.04463,-0.22481 15.06188,-0.49322 5.10228,-0.24466 10.20352,-0.54265 15.28529,-1.07406 4.56088,-0.4819 9.10812,-1.07993 13.67121,-1.53985 4.35813,-0.32067 8.73012,-0.44151 13.08185,-0.86133 4.3437,-0.38605 8.67806,-0.86164 13.01643,-1.30228 4.22436,-0.37475 8.44941,-0.49747 12.69058,-0.4167 4.19598,-0.0163 8.39214,-0.0465 12.58716,-0.14403 4.5998,-0.11837 9.19947,-0.27649 13.7902,-0.59939 4.95708,-0.36788 9.90946,-0.82215 14.83094,-1.53152 5.00769,-0.72409 9.99915,-1.56256 15.02008,-2.19214 4.56573,-0.49183 9.11673,-1.10224 13.68154,-1.60073 3.81273,-0.31866 7.64269,-0.46943 11.43336,-1.01979 3.05398,-0.4447 6.09021,-0.9998 9.14679,-1.42674 3.22426,-0.37082 6.46623,-0.39864 9.70332,-0.60712 3.29492,-0.21943 6.58792,-0.48108 9.86572,-0.88848 2.65194,-0.33843 5.30179,-0.77686 7.9783,-0.85122 10.81676,-0.11247 -11.38998,8.25559 -4.84026,4.42995 1.26313,-1.44639 2.21988,-2.98524 1.57861,-4.96506 -2.49844,-3.80359 -0.66035,-0.44775 8.61545,-6.64685 0.26687,-0.17836 -3.55715,2.49217 -2.65509,2.53642 -0.50594,1.73674 -0.96934,3.73178 0.70775,4.98226 0.91336,0.34312 1.60213,0.40534 2.56131,0.0955 0.35968,-0.11619 1.36596,-0.64102 1.04348,-0.44384 -10.98954,6.71963 -10.86957,6.68791 -7.26404,4.12371 2.61584,-2.26289 4.62159,-5.05074 5.50621,-8.43992 0.62228,-2.77376 1.03005,-5.96538 -0.95791,-8.29292 -0.82295,-0.53376 -0.91701,-0.73716 -1.95835,-0.80747 -0.40518,-0.0274 -1.54529,0.32589 -1.215,0.0896 15.2128,-10.88289 9.05167,-6.05083 6.26836,-3.43084 -2.27413,3.20342 -3.65555,6.81434 -3.79351,10.77802 0.17036,2.98947 0.65711,6.32994 3.91143,7.3688 -15.10667,10.14413 -5.73857,5.54799 -4.89868,-1.0719 0.31309,-3.98003 0.0693,-7.9307 -1.9269,-11.49672 -1.6805,-2.45166 -3.90603,-4.478 -7.08166,-3.64188 16.34567,-9.8362 4.76349,-4.09812 2.52993,1.48388 -1.61427,4.1671 -2.4117,8.47938 -1.31335,12.90806 1.11055,3.3972 2.66538,6.57747 6.10827,8.11072 0,0 -9.45019,6.31155 -9.45019,6.31155 z" />
    <path
       style="fill:#000000;fill-opacity:1;fill-rule:nonzero;stroke:#000000;stroke-width:3;stroke-linecap:round;stroke-linejoin:round;stroke-miterlimit:4;stroke-opacity:1;stroke-dasharray:none;stroke-dashoffset:0"
       id="path3028"
       d="m 190.73154,359.08299 c -1.1866,5.76752 -1.93994,11.6121 -2.76495,17.43926 -1.50661,11.5882 -2.67718,23.21843 -3.91648,34.8379 -1.19217,10.95724 -2.05288,21.94587 -3.3102,32.89584 -0.79872,5.49323 -1.1857,11.09289 -2.55989,16.48721 -11.66248,22.21046 -12.42137,-6.77382 -12.51305,-8.92578 -0.26172,-9.91059 0.90144,-19.75698 2.38633,-29.53352 1.39739,-10.08921 4.03807,-19.89027 7.59889,-29.41311 2.48692,-6.44477 5.87476,-12.34697 11.6244,-16.31344 8.27105,-5.27787 14.5919,-9.89189 22.46806,-3.48404 4.35446,4.44859 5.39875,10.17815 5.55785,16.16404 -0.15092,6.79413 -2.27448,13.10517 -5.28097,19.11587 -4.4565,8.40286 -11.73112,11.11698 -19.99389,15.65403 -2.13748,0.58529 -5.06579,1.01617 -6.30368,-1.26303 -0.46365,-8.65076 11.96877,-7.65999 17.13527,-5.48008 5.35148,2.62448 9.31232,7.06028 12.92658,11.67048 4.999,6.8455 8.55895,14.51043 11.58828,22.38347 2.56833,6.92421 4.43744,14.07628 6.09116,21.26518 0.42662,1.93217 0.69479,3.8906 0.92257,5.85378 0,0 -10.0625,5.25637 -10.0625,5.25637 l 0,0 c -0.16902,-1.9352 -0.39264,-3.86459 -0.7905,-5.76903 -1.58887,-7.15594 -3.40757,-14.2735 -5.94549,-21.16005 -2.97819,-7.77226 -6.48759,-15.33839 -11.45681,-22.06845 -3.53446,-4.44345 -7.40416,-8.7379 -12.67673,-11.12944 -1.58726,-0.59165 -2.06553,-0.86812 -3.72987,-1.11399 -0.55862,-0.0825 -2.11813,0.25744 -1.6904,-0.11124 9.19558,-7.92604 10.85835,-6.78656 7.59956,-5.23608 1.43337,1.17251 3.64258,0.44806 5.28234,-0.12066 -16.55077,9.98009 -1.91233,2.24068 0.83561,-3.99812 3.06745,-5.83359 5.28065,-11.95481 5.53052,-18.62006 -0.0633,-5.64872 -0.91065,-11.11808 -5.11294,-15.26803 -1.39851,-1.05874 -1.84841,-1.58767 -3.53751,-2.13499 -5.00189,-1.62074 -13.24527,3.82815 1.16563,-4.49809 -6.00385,3.52401 -9.44514,9.32795 -11.99746,15.68976 -3.63559,9.44418 -6.3433,19.17561 -7.74078,29.22021 -1.49872,9.69744 -2.67469,19.46552 -2.40904,29.30067 0.14514,3.33476 0.24148,6.68716 0.77369,9.99 0.12798,0.79422 1.04816,1.78751 0.48684,2.36376 -2.72934,2.80199 -6.34331,4.57875 -9.49973,6.88903 -0.1577,0.11542 0.33452,-0.2021 0.50178,-0.30316 1.71442,-5.28131 1.86877,-10.96068 2.80143,-16.39864 1.31774,-10.95532 2.20341,-21.95362 3.39273,-32.92321 1.23587,-11.61285 2.39566,-23.23565 3.81568,-34.82736 0.78582,-5.7944 1.46629,-11.61326 2.58363,-17.3553 0,0 10.22404,-5.02796 10.22404,-5.02796 z" />
    <path
       style="fill:#000000;fill-opacity:1;fill-rule:nonzero;stroke:#000000;stroke-width:3;stroke-linecap:round;stroke-linejoin:round;stroke-miterlimit:4;stroke-opacity:1;stroke-dasharray:none;stroke-dashoffset:0"
       id="path3030"
       d="m 409.95339,491.02891 c -3.58789,2.6911 -7.18389,5.36703 -10.644,8.22177 -4.94322,4.14387 -10.01105,8.13531 -14.99347,12.23182 -6.38969,5.1679 -12.5733,10.5854 -18.79358,15.95469 -6.79217,6.04724 -13.813,11.81609 -21.02683,17.35032 -7.50377,5.63595 -15.06494,11.194 -22.5727,16.82512 -8.15437,6.07663 -16.03003,12.51729 -23.81606,19.05585 -7.73644,6.52807 -15.24317,13.31997 -22.67527,20.19032 -6.64913,6.13021 -13.08077,12.48929 -19.63395,18.72032 -5.48829,5.31409 -10.99749,10.60736 -16.44328,15.96513 -4.67247,4.62699 -9.27507,9.32374 -13.88288,14.01489 -4.58608,4.79904 -8.96344,9.79176 -13.39765,14.73009 -4.99942,5.338 -9.50653,11.10075 -14.06175,16.8138 -5.4857,6.84816 -11.13554,13.56079 -16.79577,20.26456 -6.54946,7.72851 -13.31575,15.26847 -19.97369,22.90284 -6.4908,7.39559 -12.94258,14.82372 -19.33578,22.30381 -5.87451,6.92392 -11.87375,13.7395 -17.93747,20.49779 -4.54967,5.10426 -9.18316,10.12563 -14.10442,14.87399 -0.57478,0.53673 -1.14957,1.07347 -1.72435,1.61021 0,0 -10.461108,4.28522 -10.461108,4.28522 l 0,0 c 0.582243,-0.53305 1.164487,-1.0661 1.74673,-1.59916 4.976818,-4.71259 9.658968,-9.70606 14.213668,-14.82729 6.08087,-6.74885 12.09368,-13.5585 17.97451,-20.48294 6.39772,-7.4846 12.84066,-14.92851 19.34601,-22.3199 6.64893,-7.63165 13.41086,-15.16444 19.96368,-22.87948 5.64761,-6.68934 11.28439,-13.38722 16.76319,-20.21624 4.55485,-5.71802 9.02181,-11.52111 14.01835,-16.86724 4.4376,-4.94047 8.81701,-9.93513 13.36813,-14.77206 4.61117,-4.69779 9.21801,-9.4002 13.88983,-14.03788 5.44837,-5.37655 10.98487,-10.6626 16.47112,-16.00044 6.58363,-6.21443 12.99919,-12.60591 19.65612,-18.74359 7.43412,-6.8866 14.94195,-13.69579 22.67513,-20.24701 7.7721,-6.55478 15.63339,-13.01389 23.77502,-19.10695 7.50402,-5.62569 15.03972,-11.20714 22.56111,-16.80903 7.22269,-5.50786 14.27446,-11.22478 21.04433,-17.28545 6.20655,-5.36713 12.37363,-10.78685 18.74179,-15.96172 4.96119,-4.10075 10.01473,-8.08739 14.95849,-12.20865 3.40792,-2.89358 6.99525,-5.54916 10.54375,-8.26472 0,0 10.56305,-4.18279 10.56305,-4.18279 z" />
    <path
       style="fill:#000000;fill-opacity:1;fill-rule:nonzero;stroke:#000000;stroke-width:3;stroke-linecap:round;stroke-linejoin:round;stroke-miterlimit:4;stroke-opacity:1;stroke-dasharray:none;stroke-dashoffset:0"
       id="path3032"
       d="m 115.88389,739.72027 c -2.8017,3.61306 -4.92815,7.66546 -7.07769,11.68175 -2.44663,4.31092 -4.21806,8.85275 -5.09435,13.72594 -0.33547,2.94192 -0.21621,6.0811 2.47935,7.7939 3.44007,1.25791 7.19867,0.4479 10.72724,9.7e-4 5.49493,-0.77912 10.99857,-1.48516 16.51663,-2.07842 3.75555,-0.52716 1.88637,-0.25248 5.60763,-0.82351 0,0 -9.02646,6.76652 -9.02646,6.76652 l 0,0 c -3.7339,0.55162 -1.85708,0.29018 -5.63058,0.78353 -5.52138,0.61353 -11.02676,1.34691 -16.52981,2.10622 -3.75428,0.44278 -7.75564,1.18351 -11.254695,-0.66266 -2.821479,-2.22871 -3.420338,-5.43128 -3.055592,-8.92084 0.804127,-4.98683 2.46093,-9.65992 4.963163,-14.065 2.139294,-4.03074 4.199624,-8.13481 6.948274,-11.79687 0,0 10.42689,-4.51153 10.42689,-4.51153 z" />
    <path
       style="fill:#000000;fill-opacity:1;fill-rule:nonzero;stroke:#000000;stroke-width:3;stroke-linecap:round;stroke-linejoin:round;stroke-miterlimit:4;stroke-opacity:1;stroke-dasharray:none;stroke-dashoffset:0"
       id="path3034"
       d="m 262.33383,656.01357 c 1.22144,4.27075 2.38029,8.55352 3.42223,12.87286 1.27898,5.46807 2.26329,10.99905 3.2021,16.53384 0.38646,1.84117 0.71884,5.35382 1.23802,6.5348 -3.15753,1.36825 -6.16508,3.15472 -9.47258,4.10474 -0.52773,0.15158 0.39065,-1.02657 0.56663,-1.54667 0.97691,-2.88704 1.82393,-5.77425 2.94687,-8.6136 2.00576,-5.31756 4.82285,-10.20482 8.26937,-14.7041 3.3782,-4.3293 7.58983,-7.76637 12.07147,-10.87445 6.601,-4.21151 13.18697,-8.77163 20.79405,-10.86688 1.9825,-0.44012 1.00956,-0.24735 2.91764,-0.58429 0,0 -9.05805,6.84758 -9.05805,6.84758 l 0,0 c -1.85819,0.38702 -0.91142,0.16761 -2.83882,0.66456 -1.66694,0.53055 -7.66699,3.62571 -5.00685,1.93446 15.08805,-9.59256 7.12245,-4.057 3.70699,-2.12356 -4.49729,3.02804 -8.79614,6.29938 -12.21847,10.56263 -3.52081,4.36217 -6.38718,9.14723 -8.38314,14.40518 -4.71488,11.46353 0.36896,8.30637 -13.96669,16.86565 -1.45748,-1.97066 -0.76177,-5.09491 -1.55145,-7.30894 -0.9032,-5.51731 -1.86233,-11.02979 -3.14058,-16.47468 -1.03955,-4.29601 -2.18983,-8.55601 -3.50163,-12.77661 0,0 10.00289,-5.45252 10.00289,-5.45252 z" />
    <path
       style="fill:#000000;fill-opacity:1;fill-rule:nonzero;stroke:#000000;stroke-width:3;stroke-linecap:round;stroke-linejoin:round;stroke-miterlimit:4;stroke-opacity:1;stroke-dasharray:none;stroke-dashoffset:0"
       id="path3036"
       d="m 273.79557,617.42533 c 3.91564,-0.84951 7.82129,-1.72385 11.71003,-2.68999 5.03902,-1.26967 9.98589,-2.87616 14.96936,-4.34497 0.77216,-0.21382 1.54432,-0.42764 2.31648,-0.64146 0,0 -8.95956,6.89075 -8.95956,6.89075 l 0,0 c -0.76793,0.21725 -1.53586,0.43449 -2.30378,0.65174 -4.98681,1.47365 -9.94178,3.07057 -14.99609,4.30237 -3.93298,0.97003 -7.8822,1.88151 -11.858,2.65859 0,0 9.12156,-6.82703 9.12156,-6.82703 z" />
    <path
       style="fill:#000000;fill-opacity:1;fill-rule:nonzero;stroke:#000000;stroke-width:3;stroke-linecap:round;stroke-linejoin:round;stroke-miterlimit:4;stroke-opacity:1;stroke-dasharray:none;stroke-dashoffset:0"
       id="path3038"
       d="m 319.60488,589.17422 c 3.52824,0.88861 7.05762,1.75177 10.5539,2.76112 3.85444,1.02503 7.51452,2.42762 10.38252,5.25681 2.18969,2.59287 2.09143,5.46631 1.18246,8.54498 -1.34806,3.57967 -3.95588,6.39311 -6.49622,9.16544 -1.79429,1.7989 -0.88817,0.9277 -2.71614,2.61593 0,0 -10.4916,4.283 -10.4916,4.283 l 0,0 c 1.85287,-1.63397 0.93254,-0.79317 2.75932,-2.52423 2.5054,-2.67504 5.12479,-5.33561 6.67882,-8.70883 0.94349,-2.65005 1.42794,-5.11707 -0.58309,-7.4305 -2.78727,-2.637 -6.40238,-3.80893 -10.04786,-4.8108 -3.48026,-0.97907 -6.98861,-1.87584 -10.53372,-2.58746 0,0 9.31161,-6.56546 9.31161,-6.56546 z" />
    <path
       style="fill:#000000;fill-opacity:1;fill-rule:nonzero;stroke:#000000;stroke-width:3;stroke-linecap:round;stroke-linejoin:round;stroke-miterlimit:4;stroke-opacity:1;stroke-dasharray:none;stroke-dashoffset:0"
       id="path3061"
       d="m 419.24155,358.21284 c -1.69703,4.67716 -2.78981,9.53009 -3.78041,14.39594 -1.39883,7.95099 -1.76124,16.02263 -1.74364,24.07943 0.0539,6.54092 0.43542,13.06431 1.13734,19.56552 0,0 -9.96138,5.21108 -9.96138,5.21108 l 0,0 c -0.70425,-6.54161 -1.09338,-13.10344 -1.1594,-19.68475 -0.0471,-8.11523 0.28835,-16.24073 1.60889,-24.26313 0.94085,-4.86291 1.94504,-9.73947 3.60787,-14.41649 0,0 10.29073,-4.8876 10.29073,-4.8876 z"
       transform="translate(-126.18676,149.03509)" />
    <path
       style="fill:#000000;fill-opacity:1;fill-rule:nonzero;stroke:#000000;stroke-width:3;stroke-linecap:round;stroke-linejoin:round;stroke-miterlimit:4;stroke-opacity:1;stroke-dasharray:none;stroke-dashoffset:0"
       id="path3065"
       d="m 366.41066,412.40803 c -3.45155,1.46464 -6.99063,2.71524 -10.51257,3.99894 -5.07826,1.87848 -10.34444,3.1283 -15.63588,4.22665 -4.71163,1.02142 -9.48325,1.55474 -14.28561,1.05363 -3.36484,-0.53787 -4.95953,-2.66254 -5.29016,-5.90774 0.0504,-3.5716 1.61152,-6.79281 3.45598,-9.7653 4.36905,-5.53932 11.16418,-10.00305 17.99992,-11.47781 3.46809,-0.34018 6.25294,1.20559 8.76144,3.42388 2.77048,2.7143 4.64031,6.14463 6.30821,9.60477 1.68074,3.69341 2.72168,7.61336 3.56389,11.56824 0.86344,3.5869 0.9193,7.18136 0.38888,10.81082 -0.69743,3.87001 -2.58563,7.26425 -4.63618,10.55735 -2.51619,3.8273 -5.70395,7.08324 -9.23441,9.96924 -6.29127,4.4044 -12.74591,9.25514 -20.54071,9.96874 -3.76419,0.0859 -6.58663,-1.81208 -9.034,-4.47616 -2.53617,-3.24422 -3.59346,-7.2104 -4.23342,-11.20362 -0.53517,-4.77294 -0.3606,-9.57711 0.20153,-14.33502 0.48051,-3.61631 1.23181,-7.18814 2.09438,-10.73033 0.10062,-0.41104 0.20124,-0.82208 0.30185,-1.23312 0,0 10.24433,-4.91386 10.24433,-4.91386 l 0,0 c -0.10109,0.4136 -0.20219,0.82719 -0.30328,1.24079 -0.90264,3.50497 -1.6856,7.04294 -2.20041,10.62783 -0.60401,4.66218 -0.82059,9.36635 -0.33821,14.05543 0.54992,3.7743 1.51108,7.54846 3.92305,10.59799 2.32244,2.43133 4.95591,3.94398 8.4364,3.59824 2.5238,-0.37251 6.64392,-2.31946 5.27407,-1.42193 -14.99764,9.82662 -7.73652,4.42592 -4.32491,2.43561 3.56848,-2.76608 6.7958,-5.88548 9.37447,-9.61995 2.05043,-3.16442 3.99282,-6.39981 4.81567,-10.13 0.5982,-3.50318 0.64658,-6.96399 -0.19564,-10.44723 -0.79693,-3.87349 -1.78912,-7.71508 -3.42504,-11.33158 -1.59647,-3.32229 -3.38497,-6.6254 -6.08508,-9.19319 -2.37911,-1.97673 -4.9812,-3.19832 -8.14361,-2.52202 -4.57257,1.40741 -1.57126,0.61216 6.73967,-4.47772 2.46532,-1.50984 -8.07388,4.92966 -5.35319,4.50329 -1.88495,2.72293 -3.46977,5.73943 -3.74705,9.09599 0.0459,2.87469 1.55579,4.24458 4.42872,4.54948 4.733,0.35093 9.42193,-0.28121 14.04806,-1.2964 5.26968,-1.13228 10.50162,-2.45335 15.55071,-4.36582 3.53097,-1.30519 7.10733,-2.52965 10.50676,-4.15617 0,0 -8.89863,7.11806 -8.89863,7.11806 z"
       transform="translate(-126.18676,149.03509)" />
    <path
       style="fill:#000000;fill-opacity:1;fill-rule:nonzero;stroke:#000000;stroke-width:3;stroke-linecap:round;stroke-linejoin:round;stroke-miterlimit:4;stroke-opacity:1;stroke-dasharray:none;stroke-dashoffset:0"
       id="path3067"
       d="m 238.88429,675.43369 c -1.30744,-0.16315 -2.63076,-0.14106 -3.94528,-0.10936 -2.59702,0.0675 -5.17814,0.36968 -7.74531,0.75082 -3.64251,0.54796 -7.20919,1.47915 -10.76552,2.41956 -4.47828,1.23583 -8.91553,2.61274 -13.33371,4.04689 -5.26554,1.74123 -10.50691,3.55301 -15.73162,5.4128 -0.95942,0.34683 -1.91884,0.69365 -2.87827,1.04047 0,0 1.93046,-1.50757 1.93046,-1.50757 l 0,0 c 0.96072,-0.34732 1.92144,-0.69465 2.88216,-1.04197 5.23303,-1.86312 10.48226,-3.6798 15.75649,-5.42329 4.42703,-1.43468 8.87217,-2.81565 13.35989,-4.04968 3.56889,-0.94239 7.14923,-1.87048 10.8052,-2.41428 2.58141,-0.37759 5.17646,-0.6768 7.78709,-0.7425 1.33487,-0.0277 2.67721,-0.0485 4.00477,0.11886 0,0 -2.12635,1.49925 -2.12635,1.49925 z"
       transform="translate(-126.18676,149.03509)" />
    <path
       style="fill:#000000;fill-opacity:1;fill-rule:nonzero;stroke:#000000;stroke-width:3;stroke-linecap:round;stroke-linejoin:round;stroke-miterlimit:4;stroke-opacity:1;stroke-dasharray:none;stroke-dashoffset:0"
       id="path3069"
       d="m 213.77788,577.10432 c -1.97864,1.27231 -4.06703,2.35818 -6.19944,3.34383 -3.51445,1.59795 -7.09042,3.05462 -10.65895,4.52601 -6.07736,2.44231 -12.1398,4.92132 -18.20304,7.3984 -8.1472,3.33671 -16.29479,6.67244 -24.43559,10.02474 -4.43613,1.84582 -8.87808,3.67759 -13.3169,5.51693 0,0 1.85093,-1.45919 1.85093,-1.45919 l 0,0 c 4.44056,-1.84004 8.88383,-3.67351 13.32169,-5.52008 8.15381,-3.35997 16.31384,-6.70481 24.47247,-10.05305 6.08202,-2.49072 12.16434,-4.98064 18.25799,-7.44279 3.58537,-1.48409 7.17759,-2.95555 10.70417,-4.57624 1.00953,-0.476 1.07219,-0.49306 2.01201,-0.98026 0.24739,-0.12825 0.97294,-0.54265 0.7375,-0.39359 -3.02722,1.91655 -1.69083,0.96211 -0.96558,0.56324 0,0 2.42274,-0.94795 2.42274,-0.94795 z"
       transform="translate(-126.18676,149.03509)" />
    <path
       style="fill:#000000;fill-opacity:1;fill-rule:nonzero;stroke:#000000;stroke-width:3;stroke-linecap:round;stroke-linejoin:round;stroke-miterlimit:4;stroke-opacity:1;stroke-dasharray:none;stroke-dashoffset:0"
       id="path3071"
       d="m 87.528273,670.90327 c -1.109354,0.0606 -2.130749,0.49657 -3.118727,0.96961 -0.246518,0.13502 -0.985207,0.54166 -0.739556,0.40506 0.474049,-0.26359 0.913587,-0.60466 1.424756,-0.78607 0.303241,-0.10762 -0.530529,0.3647 -0.786573,0.55958 -0.79311,0.60366 -1.48925,1.28465 -2.179661,1.99994 -1.21153,1.33224 -2.095322,2.88706 -2.672661,4.58481 -0.387714,1.32366 -0.277242,2.60858 0.330125,3.83331 0.6088,1.00459 1.517426,1.54285 2.652466,1.72994 1.418679,0.3126 5.26544,-2.02257 1.719525,-0.0662 1.610852,-1.09538 2.914057,-2.54475 4.135087,-4.04507 1.310624,-1.65332 2.325669,-3.49231 3.169295,-5.41827 0.81681,-1.87782 1.359813,-3.8499 1.791215,-5.84638 0.379718,-1.85872 0.441588,-3.74313 0.302238,-5.62837 -0.171621,-1.74642 -0.693112,-3.42711 -1.385485,-5.0314 -0.758994,-1.68381 -1.893781,-3.11661 -3.19861,-4.40477 -1.698471,-1.57994 -3.791183,-2.31951 -6.024623,-2.75038 -1.912649,-0.19664 -0.932716,-0.13024 -2.940419,-0.18985 0,0 2.050724,-1.47956 2.050724,-1.47956 l 0,0 c 2.03039,0.0744 1.039062,-7.7e-4 2.974685,0.2162 2.272301,0.46458 4.398542,1.24722 6.121129,2.86532 1.323538,1.31491 2.476742,2.77526 3.251887,4.48683 0.707085,1.62783 1.240388,3.33451 1.425202,5.10691 0.148488,1.90702 0.09928,3.81326 -0.274416,5.69643 -0.425371,2.01089 -0.959153,3.9988 -1.771052,5.89287 -0.833567,1.94562 -1.837619,3.80478 -3.141477,5.48147 -1.213077,1.51598 -2.503379,2.98187 -4.092871,4.11856 -1.951851,1.15243 -3.845087,2.69154 -6.227396,2.47171 -1.18745,-0.26164 -2.14251,-0.86636 -2.77839,-1.93069 -0.635315,-1.27876 -0.790884,-2.62249 -0.41315,-4.01612 0.554234,-1.73261 1.432167,-3.31962 2.635805,-4.69241 1.901424,-2.02591 4.095607,-3.5988 6.652845,-4.76224 1.020694,-0.4598 2.076304,-0.88093 3.213014,-0.90008 0,0 -2.104931,1.52932 -2.104931,1.52932 z"
       transform="translate(-126.18676,149.03509)" />
    <path
       style="fill:#000000;fill-opacity:1;fill-rule:nonzero;stroke:#000000;stroke-width:3;stroke-linecap:round;stroke-linejoin:round;stroke-miterlimit:4;stroke-opacity:1;stroke-dasharray:none;stroke-dashoffset:0"
       id="path3073"
       d="m 103.97683,687.34778 c 0.59519,-1.56583 1.19841,-3.12827 1.81849,-4.68443 1.2029,-2.96197 2.34183,-5.94792 3.40593,-8.96238 1.26582,-3.49966 2.29986,-7.07583 3.22187,-10.67943 0.81592,-3.24388 1.38416,-6.54086 1.83941,-9.85231 0.33752,-2.35567 0.43415,-4.7343 0.44362,-7.11097 -0.0265,-1.18992 0.0652,-2.42636 -0.38785,-3.55189 -0.40845,-0.61918 -2.96171,0.55973 1.61116,-1.11579 0.13984,-0.0512 -0.1805,0.23749 -0.25892,0.36409 -0.0952,0.15369 -0.174,0.31693 -0.26101,0.47539 -0.68145,1.47556 -1.1401,3.03962 -1.60886,4.5919 -0.61733,2.14183 -1.15224,4.3066 -1.61618,6.48656 -0.51689,2.33251 -0.92786,4.68483 -1.26452,7.04946 -0.31684,2.29009 -0.49049,4.59597 -0.62542,6.90282 -0.0983,2.0159 -0.18291,4.03388 -0.17083,6.05248 0.009,1.6163 0.15497,3.22317 0.36321,4.8243 0.19643,1.37979 0.36186,2.76358 0.59477,4.13783 0.1841,1.14984 0.41112,2.28948 0.68557,3.42088 0.21514,0.7905 0.47666,1.58784 1.06078,2.18222 0.47432,0.4148 0.96256,0.41537 1.49001,0.12085 -3.56505,2.06733 -2.02359,1.30205 -1.39148,0.56702 0.35253,-0.40992 0.63514,-0.86795 0.91743,-1.32676 0.76794,-1.34822 1.42839,-2.75725 2.05005,-4.17808 0,0 2.33072,-1.06979 2.33072,-1.06979 l 0,0 c -0.61427,1.42815 -1.27558,2.83992 -2.02399,4.20288 -1.01743,1.75111 -1.85231,2.49323 -3.91688,3.41491 -0.62727,0.20847 -1.18232,0.077 -1.66925,-0.38276 -0.59425,-0.64694 -0.8986,-1.46233 -1.11966,-2.30385 -0.27522,-1.13788 -0.50555,-2.28323 -0.68799,-3.43998 -0.23355,-1.37793 -0.40035,-2.76502 -0.5951,-4.14881 -0.21038,-1.61184 -0.36145,-3.22893 -0.36996,-4.85629 -0.0153,-2.02519 0.0766,-4.04962 0.17301,-6.07214 0.13333,-2.31354 0.30648,-4.62603 0.61913,-6.92326 0.33422,-2.3695 0.73893,-4.72739 1.25624,-7.0645 0.45756,-2.18487 0.99154,-4.35299 1.59798,-6.50144 0.46492,-1.5607 0.92155,-3.12888 1.56769,-4.6268 0.58418,-1.17301 2.50016,-3.54193 3.52528,-2.04698 0.46184,1.16274 0.39674,2.42431 0.40592,3.65472 -0.0144,2.39098 -0.11419,4.78403 -0.45423,7.15376 -0.45734,3.32248 -1.02952,6.63007 -1.84327,9.88591 -0.91879,3.60929 -1.94775,7.19214 -3.20971,10.69821 -1.05499,3.0124 -2.18323,5.99699 -3.374,8.9585 -0.60968,1.54614 -1.20115,3.09872 -1.77984,4.65671 0,0 -2.34932,1.09724 -2.34932,1.09724 z"
       transform="translate(-126.18676,149.03509)" />
  </g>
</svg>
