<?xml version="1.0" encoding="UTF-8" standalone="no"?>
<!-- Created with Inkscape (http://www.inkscape.org/) -->
<svg
   xmlns:dc="http://purl.org/dc/elements/1.1/"
   xmlns:cc="http://creativecommons.org/ns#"
   xmlns:rdf="http://www.w3.org/1999/02/22-rdf-syntax-ns#"
   xmlns:svg="http://www.w3.org/2000/svg"
   xmlns="http://www.w3.org/2000/svg"
   xmlns:sodipodi="http://sodipodi.sourceforge.net/DTD/sodipodi-0.dtd"
   xmlns:inkscape="http://www.inkscape.org/namespaces/inkscape"
   width="817.92181"
   height="899.2356"
   id="svg2"
   sodipodi:version="0.32"
   inkscape:version="0.46+devel r20655"
   version="1.0"
   sodipodi:docname="c2d1.svg"
   inkscape:output_extension="org.inkscape.output.svg.inkscape">
  <defs
     id="defs4">
    <inkscape:perspective
       sodipodi:type="inkscape:persp3d"
       inkscape:vp_x="0 : 526.18109 : 1"
       inkscape:vp_y="0 : 1000 : 0"
       inkscape:vp_z="744.09448 : 526.18109 : 1"
       inkscape:persp3d-origin="372.04724 : 350.78739 : 1"
       id="perspective10" />
  </defs>
  <sodipodi:namedview
     id="base"
     pagecolor="#ffffff"
     bordercolor="#666666"
     borderopacity="1.0"
     inkscape:pageopacity="0.0"
     inkscape:pageshadow="2"
     inkscape:zoom="0.35"
     inkscape:cx="499.40777"
     inkscape:cy="780.45895"
     inkscape:document-units="px"
     inkscape:current-layer="layer1"
     showgrid="false"
     inkscape:window-width="1280"
     inkscape:window-height="712"
     inkscape:window-x="-5"
     inkscape:window-y="-3" />
  <metadata
     id="metadata7">
    <rdf:RDF>
      <cc:Work
         rdf:about="">
        <dc:format>image/svg+xml</dc:format>
        <dc:type
           rdf:resource="http://purl.org/dc/dcmitype/StillImage" />
      </cc:Work>
    </rdf:RDF>
  </metadata>
  <g
     inkscape:label="Layer 1"
     inkscape:groupmode="layer"
     id="layer1"
     transform="translate(124.40777,-185.01411)">
    <path
       style="fill:#000000;fill-opacity:1;fill-rule:nonzero;stroke:#000000;stroke-width:7;stroke-linecap:round;stroke-linejoin:round;stroke-miterlimit:4;stroke-opacity:1;stroke-dasharray:none;stroke-dashoffset:0"
       id="path2842"
       d="m 358.94866,188.51411 c -2.75042,8.91106 -4.60278,18.05993 -6.39748,27.20028 -4.9218,27.24027 -8.59004,54.69378 -12.35671,82.11253 -7.61708,54.57498 -14.04739,109.29615 -19.85749,164.08945 -7.64879,72.47627 -12.21002,145.21702 -15.96057,217.98262 -3.86792,76.95543 -6.1201,153.97776 -8.33214,230.99457 -1.56056,55.04244 -2.60815,110.09764 -4.3708,165.13434 0,0 -9.35448,4.7218 -9.35448,4.7218 l 0,0 c 2.4111,-55.1671 3.56075,-110.3758 5.24712,-165.56775 2.33262,-77.03333 4.60599,-154.07434 8.40246,-231.0529 3.68657,-72.72946 8.16386,-145.43471 15.65514,-217.88712 5.67145,-54.68935 11.92541,-109.31182 19.22663,-163.81029 3.60027,-27.33992 7.1005,-54.71225 11.77354,-81.89369 1.70881,-9.13227 3.50063,-18.25663 6.05124,-27.19901 0,0 10.27354,-4.82483 10.27354,-4.82483 z" />
    <path
       style="fill:#000000;fill-opacity:1;fill-rule:nonzero;stroke:#000000;stroke-width:7;stroke-linecap:round;stroke-linejoin:round;stroke-miterlimit:4;stroke-opacity:1;stroke-dasharray:none;stroke-dashoffset:0"
       id="path2844"
       d="m -111.8617,631.57122 c 8.8704,-1.43542 17.814071,-2.37762 26.748482,-3.31189 26.746624,-2.60069 53.479049,-5.32662 80.1959953,-8.21597 45.1036457,-5.27322 90.2883447,-9.63889 135.5923327,-12.73711 55.29104,-3.96742 110.7005,-2.61329 165.99536,0.2153 56.31212,3.32209 112.35206,9.96437 168.30344,16.96204 47.58462,6.22471 95.11046,12.88971 142.66427,19.34497 27.3325,3.64704 54.63439,7.48262 81.83627,12.00564 0,0 -8.79425,6.16774 -8.79425,6.16774 l 0,0 c -27.07552,-4.62409 -54.25937,-8.52472 -81.47669,-12.21886 -47.45917,-6.55216 -94.89506,-13.28066 -142.39654,-19.52012 -55.91261,-7.02834 -111.91888,-13.67019 -168.19973,-16.94538 -55.31602,-2.78696 -110.74617,-4.07763 -166.05068,-0.0267 -45.409947,3.1786 -90.698233,7.62946 -135.900649,13.0164 -26.85899,2.97164 -53.735129,5.76914 -80.616817,8.5269 -9.002844,1.00325 -18.049954,1.92018 -26.946864,3.65422 0,0 9.04607,-6.91715 9.04607,-6.91715 z" />
    <path
       style="fill:#000000;fill-opacity:1;fill-rule:nonzero;stroke:#000000;stroke-width:7;stroke-linecap:round;stroke-linejoin:round;stroke-miterlimit:4;stroke-opacity:1;stroke-dasharray:none;stroke-dashoffset:0"
       id="path2846"
       d="m 333.64521,630.53509 c -0.38424,5.64011 -3.24262,10.34276 -6.63217,14.6833 -9.4823,9.31795 -20.01803,14.91439 -33.25365,13.6296 -10.7883,-2.28175 -16.89204,-10.0482 -21.21743,-19.59909 -3.83553,-10.53149 -2.61155,-20.88366 1.67392,-30.97451 5.08728,-8.61192 14.93331,-17.48646 25.47125,-17.64981 1.28441,-0.0199 2.55232,0.29341 3.82848,0.44012 9.8132,3.02751 14.58976,11.65114 17.87083,20.72608 3.09862,11.73861 1.78495,21.79078 -4.20429,32.23823 -7.77614,9.02829 -19.66337,17.21987 -32.10106,15.80335 -1.82209,-0.20752 -3.586,-0.76999 -5.37901,-1.15499 -12.22259,-4.07318 -19.0274,-13.60592 -23.21568,-25.25654 -3.14998,-12.49223 -0.91837,-22.50768 6.17497,-33.01086 8.00877,-8.15246 19.20916,-16.27602 31.22227,-14.72775 1.57523,0.20302 3.09306,0.72341 4.63958,1.08511 9.95401,3.50626 15.33498,11.5894 18.60468,21.16153 2.03951,9.27056 1.04546,16.93799 -6.21419,23.40888 -4.32865,2.3078 -8.46816,5.01219 -12.98596,6.92341 -1.17457,0.4969 -2.55062,0.2935 -3.82151,0.18687 -6.35931,-0.53353 -10.682,-4.67603 -14.66682,-9.19318 -4.01813,-5.42796 -5.21442,-11.55235 -5.55356,-18.11907 0,0 9.95108,-5.12292 9.95108,-5.12292 l 0,0 c 0.20159,6.33869 1.27507,12.22163 5.17177,17.45366 3.01034,3.34585 5.87963,6.36386 10.3498,7.7132 1.22017,0.36832 2.50383,0.56504 3.77818,0.58788 1.21749,0.0218 4.32425,-1.45179 3.62459,-0.45518 -1.44809,2.06266 -4.18039,2.81611 -6.27059,4.22416 7.60418,-5.7452 8.70339,-13.16769 6.84868,-22.21182 -3.09024,-9.26514 -8.28352,-17.02838 -18.00206,-20.17856 -4.01678,-0.80009 -4.98366,-1.31547 -9.12356,-0.84405 -1.5419,0.17558 -4.88325,2.50577 -4.54906,0.99031 0.44978,-2.03966 3.62769,-2.14873 5.12552,-3.60442 2.41331,-2.34542 -11.31332,7.71827 -7.90856,6.27541 -7.26365,10.09602 -9.65484,19.77887 -6.67097,32.07559 4.00906,11.34671 10.64643,20.56531 22.63471,24.26632 4.46328,0.81909 5.88153,1.45346 10.42385,0.82675 1.68812,-0.23291 4.93455,-2.96317 4.95484,-1.25918 0.0237,1.99142 -3.2021,2.38478 -4.92964,3.37568 -2.94972,1.69192 11.62979,-7.39093 7.69566,-6.69682 6.19707,-10.07145 7.60881,-19.81866 4.64553,-31.36047 -3.11397,-8.6867 -7.67856,-17.09793 -17.26279,-19.60235 -1.21788,-0.0664 -2.43779,-0.29593 -3.65364,-0.19924 -3.82063,0.30384 -8.79955,3.38502 2.50708,-3.17616 1.17896,-0.68415 -2.31288,1.46306 -3.34046,2.35863 -2.94329,2.56519 -3.39023,3.77001 -5.514,7.04552 -4.42034,9.76505 -5.82721,19.81936 -2.11828,30.15183 4.16815,9.24198 10.08257,16.6808 20.6118,18.57291 4.03154,0.25123 4.86221,0.57363 8.85075,-0.25134 1.4327,-0.29633 4.95479,-2.5066 4.2077,-1.2487 -1.14737,1.93186 -3.78312,2.42588 -5.6497,3.67663 -2.23246,1.49592 8.97675,-5.52128 6.4077,-4.89245 3.41638,-4.08729 6.2691,-8.48478 6.81586,-13.92106 0,0 10.14756,-5.17044 10.14756,-5.17044 z" />
    <path
       style="fill:#000000;fill-opacity:1;fill-rule:nonzero;stroke:#000000;stroke-width:7;stroke-linecap:round;stroke-linejoin:round;stroke-miterlimit:4;stroke-opacity:1;stroke-dasharray:none;stroke-dashoffset:0"
       id="path2848"
       d="m 198.4988,659.73361 c -5.20998,5.3019 -8.61185,12.0648 -11.91576,18.63946 -5.16492,10.818 -8.44092,22.35643 -10.6557,34.09988 -0.14258,2.55832 -3.27647,15.93486 2.14092,15.38509 0.55087,-0.36342 2.24925,-1.37229 1.65261,-1.09025 -2.54527,1.20316 -4.7818,3.1739 -7.5122,3.86011 -1.15038,0.28912 1.66962,-1.68789 2.44403,-2.58636 3.0201,-3.50398 5.45839,-7.40969 7.94265,-11.29528 4.64588,-7.33381 8.55835,-15.093 13.02513,-22.53055 3.09213,-4.8557 4.75855,-6.72125 13.23662,-5.8881 0.79599,0.0782 -0.24377,13.41315 -0.31817,14.40701 -1.77766,18.59648 -4.88028,37.03271 -8.11259,55.42139 -3.74719,20.81828 -8.36792,41.46258 -13.18088,62.05583 -2.62817,11.0425 -5.28826,22.13656 -9.20089,32.8103 -1.43209,3.31548 -2.02157,5.23895 -9.82351,2.48525 -1.51415,-0.53442 0.96075,-3.06456 1.47367,-4.58612 2.48022,-7.35749 5.347,-14.53529 8.27573,-21.72336 5.51669,-12.44984 2.6378,-6.15102 8.65203,-18.88944 0,0 9.89081,-4.50202 9.89081,-4.50202 l 0,0 c -5.98153,12.68116 -3.12125,6.41278 -8.59686,18.79781 -2.96933,7.34 -3.51121,8.4521 -6.07381,15.60146 -0.70728,1.97326 -1.37721,3.95988 -2.03557,5.94999 -0.49349,1.49176 -0.29678,3.39588 -1.41973,4.49491 -3.21569,3.14718 -7.33444,5.21593 -11.06812,7.72692 -0.21139,0.14217 0.31482,-0.40061 0.47223,-0.60092 4.33163,-10.55811 6.81101,-21.79706 9.59549,-32.82564 4.8868,-20.57703 9.54972,-41.21392 13.28472,-62.03614 3.20296,-18.31243 6.25591,-36.67747 7.92535,-55.2046 0.21936,-3.1473 0.58638,-7.32582 0.55619,-10.56309 -0.0106,-1.14074 -0.97188,-2.55627 -0.22114,-3.41523 2.62614,-3.00472 6.30967,-4.88938 9.53422,-7.24038 1.09523,-0.79853 -5.18492,4.51228 -2.54781,3.16911 -4.5866,7.4002 -8.47397,15.2073 -13.10246,22.58542 -6.01072,9.57232 -11.93468,19.1736 -24.02975,22.14315 -6.32057,-2.14873 -3.15681,-12.23859 -2.87647,-17.04371 2.20152,-11.81737 5.44141,-23.43628 10.51514,-34.37203 3.24248,-6.64125 6.61955,-13.37692 11.56287,-18.94455 0,0 10.51101,-4.29532 10.51101,-4.29532 z" />
    <path
       style="fill:#000000;fill-opacity:1;fill-rule:nonzero;stroke:#000000;stroke-width:7;stroke-linecap:round;stroke-linejoin:round;stroke-miterlimit:4;stroke-opacity:1;stroke-dasharray:none;stroke-dashoffset:0"
       id="path2850"
       d="m 540.69638,399.06265 c -3.22973,1.25538 -6.33817,1.47365 -9.67791,0.60844 -4.79831,-2.04117 -6.59293,-6.57601 -7.596,-11.35242 -0.94633,-6.09891 0.0713,-12.13971 2.0582,-17.91303 2.83796,-6.67471 10.38179,-13.752 18.18116,-12.67972 4.73908,1.79169 7.17756,6.23644 9.14597,10.61817 2.03399,5.17434 2.27499,10.46248 0.96067,15.81215 -2.83481,7.56432 -10.7089,12.55762 -18.53244,14.08309 -4.79751,0.25974 -7.58333,-2.82915 -9.37729,-6.89954 -1.48773,-5.02619 -0.59057,-10.07469 1.36905,-14.81188 3.62009,-5.90169 11.73335,-13.77231 18.77164,-9.88781 4.59951,4.54955 4.54544,11.39725 4.41992,17.43622 -0.46521,7.63133 -2.55809,14.88972 -6.87395,21.20725 -4.45141,4.23002 -10.81672,10.69416 -17.20067,8.53438 0,0 9.33044,-6.44289 9.33044,-6.44289 l 0,0 c 4.66938,0.61152 1.56533,-0.12314 -6.41077,5.24184 -0.62055,0.41739 1.37575,-0.61357 1.98173,-1.05184 0.71961,-0.52046 1.30874,-1.20086 1.96311,-1.80129 4.53443,-6.01663 6.65327,-13.1233 7.19459,-20.61682 0.16999,-5.48537 0.48339,-12.18441 -3.86467,-16.25446 -0.46865,-0.17964 -0.9096,-0.46448 -1.40596,-0.53892 -0.4814,-0.0722 -1.84956,0.39645 -1.45623,0.10965 15.63431,-11.39987 6.15192,-4.17268 3.82405,-0.64419 -2.06118,4.40502 -3.07164,9.17025 -1.78124,13.97498 1.60121,3.72716 4.17217,6.28318 8.51652,5.56285 4.58878,-1.42271 2.74372,-1.00401 -6.13476,4.21357 -0.59808,0.35147 1.20128,-0.70509 1.73845,-1.14404 1.74754,-1.42799 2.91937,-3.32505 3.72941,-5.40507 1.48092,-5.0915 1.32434,-10.142 -0.5911,-15.13588 -1.77274,-3.97312 -3.99678,-8.35083 -8.53448,-9.54727 -4.77812,0.12678 -1.5658,0.29485 6.7001,-5.05918 0.48772,-0.31592 -1.08213,0.45138 -1.55318,0.79166 -1.89325,1.36766 -2.95101,3.50438 -3.88878,5.56457 -2.09338,5.55534 -3.17306,11.42067 -2.32955,17.36044 0.85081,4.36449 2.39308,8.63346 6.95772,10.2172 3.20888,0.59137 6.31072,0.17243 9.26488,-1.26827 0,0 -8.89863,7.11806 -8.89863,7.11806 z" />
    <path
       style="fill:#000000;fill-opacity:1;fill-rule:nonzero;stroke:#000000;stroke-width:7;stroke-linecap:round;stroke-linejoin:round;stroke-miterlimit:4;stroke-opacity:1;stroke-dasharray:none;stroke-dashoffset:0"
       id="path2852"
       d="m 674.82325,347.45538 c -4.82792,2.63503 4.3446,-2.68566 6.65611,-3.75711 0.90943,-0.42155 -1.61403,1.19319 -2.36641,1.85553 -3.72164,3.27628 -6.56565,7.18246 -9.51135,11.13844 -9.38266,13.24188 -15.72607,28.20914 -21.54359,43.26368 -4.12171,11.90576 -8.87309,23.96299 -9.47615,36.67812 0.07,0.49637 0.0436,3.18367 1.18763,3.61017 0.6811,0.25392 2.8346,-1.70768 2.82501,-1.70386 -7.50995,2.98448 -9.61616,6.15394 -4.71898,0.58453 6.52244,-8.43125 11.96393,-17.6303 17.56075,-26.6846 3.08738,-4.86319 13.31554,-21.97266 20.52869,-17.02064 2.10644,8.30656 -1.31992,18.5843 -3.09903,26.77278 -4.77898,20.5023 -10.79506,40.68694 -16.8492,60.84048 -7.00529,22.62717 -14.42776,45.12139 -22.20018,67.49582 -2.00717,6.04184 -4.44008,11.93482 -6.43793,17.97969 -0.19429,0.58787 0.0639,1.55998 -0.51283,1.78523 -11.9256,4.65779 -8.93031,2.48487 -5.4878,-3.54694 12.23955,-22.70864 26.10099,-44.46047 40.26445,-66.0005 12.3357,-18.19549 6.10773,-9.13486 18.68414,-27.18174 0,0 9.68747,-4.21443 9.68747,-4.21443 l 0,0 c -12.57831,18.02395 -6.35391,8.97542 -18.67364,27.14529 -14.06315,21.41597 -27.86717,43.0292 -39.81682,65.71789 -4.58887,8.36956 -2.56779,6.67915 -14.89831,12.92353 -0.58983,0.2987 0.38301,-1.2661 0.6029,-1.88962 2.13998,-6.06798 4.63276,-12.00664 6.71072,-18.09768 7.89018,-22.35072 15.33951,-44.853 22.33001,-67.50218 6.00547,-20.08547 11.96264,-40.20588 16.64934,-60.64881 1.74383,-8.19832 4.23795,-16.86334 3.55716,-25.3008 -3.76007,-0.0617 -1.90852,0.0689 7.81047,-5.08303 0.68736,-0.36435 -1.20776,0.98814 -1.7393,1.55619 -2.73218,2.91991 -4.71939,6.44845 -6.90473,9.76378 -5.62522,9.05288 -11.06829,18.25135 -17.43466,26.81259 -5.29907,6.44769 -2.27103,3.38019 -14.41085,10.90687 -3.5084,2.1752 -5.12526,-0.71032 -5.24364,-3.96797 0.57697,-12.86663 5.40566,-25.05823 9.55156,-37.11095 5.78664,-15.0883 12.05984,-30.10284 21.28829,-43.47037 6.59923,-9.13942 13.13398,-16.74554 24.45748,-20.59957 0,0 -9.02678,6.95019 -9.02678,6.95019 z" />
    <path
       style="fill:#000000;fill-opacity:1;fill-rule:nonzero;stroke:#000000;stroke-width:7;stroke-linecap:round;stroke-linejoin:round;stroke-miterlimit:4;stroke-opacity:1;stroke-dasharray:none;stroke-dashoffset:0"
       id="path2860"
       d="m 341.00193,554.01991 c 5.34629,-4.0541 10.21307,-8.68523 15.10825,-13.26067 10.53712,-9.96302 20.86817,-20.14089 31.19727,-30.31847 11.62802,-11.47611 23.20197,-23.00682 34.76692,-34.54644 8.65302,-8.57748 17.50494,-16.95035 26.39008,-25.28596 4.84112,-4.53575 9.70199,-9.05038 14.5784,-13.54816 1.59557,-1.47073 3.19503,-2.93724 4.7994,-4.39837 0,0 10.5409,-4.30427 10.5409,-4.30427 l 0,0 c -1.63119,1.46466 -3.25372,2.93893 -4.87167,4.41821 -4.92574,4.50788 -9.83157,9.03747 -14.71397,13.59228 -8.93103,8.34472 -17.83439,16.72092 -26.53422,25.30764 -11.58072,11.53812 -23.16632,23.07141 -34.79264,34.56362 -10.28788,10.15427 -20.5758,20.31016 -31.04018,30.28314 -4.82335,4.54934 -9.58439,9.21173 -14.86664,13.23434 0,0 -10.5619,4.26311 -10.5619,4.26311 z" />
    <path
       style="fill:#000000;fill-opacity:1;fill-rule:nonzero;stroke:#000000;stroke-width:7;stroke-linecap:round;stroke-linejoin:round;stroke-miterlimit:4;stroke-opacity:1;stroke-dasharray:none;stroke-dashoffset:0"
       id="path2862"
       d="m 453.84369,414.72791 c 4.59296,0.10069 9.17658,10e-4 13.7632,-0.23931 6.64403,-0.33248 13.26642,-0.92276 19.89116,-1.50142 4.61618,-0.25221 9.40801,-0.77029 13.19747,2.27367 2.90416,4.09505 1.24828,9.20187 -0.0157,13.61225 -2.17221,6.60793 -4.95112,13.0033 -7.75707,19.36258 -2.35654,5.27035 -4.65036,10.56637 -6.76063,15.94032 0,0 -10.25885,4.75237 -10.25885,4.75237 l 0,0 c 2.12054,-5.39819 4.41627,-10.72096 6.79573,-16.01008 2.81367,-6.31272 5.57076,-12.67174 7.79618,-19.21872 1.16285,-3.82825 3.04725,-8.71923 0.60943,-12.38159 -3.66764,-2.61052 -8.408,-1.79028 -12.66098,-1.63017 -6.63135,0.58758 -13.26634,1.11531 -19.91544,1.46752 -4.63275,0.22734 -9.26418,0.28878 -13.90226,0.2697 0,0 9.2178,-6.69712 9.2178,-6.69712 z" />
    <path
       style="fill:#000000;fill-opacity:1;fill-rule:nonzero;stroke:#000000;stroke-width:7;stroke-linecap:round;stroke-linejoin:round;stroke-miterlimit:4;stroke-opacity:1;stroke-dasharray:none;stroke-dashoffset:0"
       id="path2864"
       d="m 359.24155,484.86746 c -1.82381,5.62858 -4.02969,11.12694 -6.16008,16.64448 -4.09098,10.43465 -8.32461,20.81253 -12.47481,31.22381 -3.4296,8.89984 -6.92377,17.78482 -9.94752,26.83302 -0.53202,2.49091 -3.36941,8.14391 0.60227,8.97862 5.63293,-0.35517 11.1162,-2.01719 16.59685,-3.28949 8.56255,-1.82016 17.13175,-3.61655 25.72467,-5.28988 7.25422,-1.39883 14.55242,-2.54668 21.86366,-3.60012 2.8974,-0.30178 5.87174,-1.22966 8.78209,-0.6296 0,0 -9.29936,6.55903 -9.29936,6.55903 l 0,0 c -2.85892,-0.18925 -5.68261,0.49993 -8.50778,0.82655 -7.28135,1.04364 -14.54786,2.19414 -21.76924,3.59977 -8.59335,1.68575 -17.16935,3.46681 -25.72355,5.33983 -5.56504,1.3036 -11.32739,3.33001 -17.08753,2.83268 -4.3126,-2.12225 -2.4404,-6.80664 -1.35458,-10.55054 3.03144,-9.09096 6.60681,-17.99218 10.02792,-26.94088 4.14068,-10.39168 8.35712,-20.75334 12.41209,-31.17878 2.08104,-5.46167 4.23476,-10.90481 6.02417,-16.4709 0,0 10.29073,-4.8876 10.29073,-4.8876 z" />
    <path
       style="fill:#000000;fill-opacity:1;fill-rule:nonzero;stroke:#000000;stroke-width:7;stroke-linecap:round;stroke-linejoin:round;stroke-miterlimit:4;stroke-opacity:1;stroke-dasharray:none;stroke-dashoffset:0"
       id="path2866"
       d="m 379.30297,384.79727 c -0.7642,5.00053 -1.56416,9.99404 -2.25377,15.00608 -0.9809,6.24338 -1.39436,12.53964 -1.51225,18.85168 -0.005,3.28579 -0.002,6.58093 0.29591,9.85597 0.0362,0.11153 0.12784,0.45031 0.10873,0.3346 -0.68332,-4.13759 -4.57753,2.22297 -9.28956,3.95161 -0.55735,0.20447 0.58415,-1.03389 0.86186,-1.5586 0.15186,-0.28693 2.26541,-4.43995 2.29716,-4.50229 3.26366,-6.52271 6.8345,-12.88547 10.72723,-19.05215 3.49698,-5.41522 7.62969,-10.3103 12.74855,-14.23486 6.70713,-4.50376 13.3719,-9.03355 21.46924,-9.66158 2.04002,-0.0178 1.04758,-0.0412 2.97752,0.0603 0,0 -9.21024,6.64324 -9.21024,6.64324 l 0,0 c -1.86441,-0.0293 -0.90619,-0.0433 -2.87447,0.0522 -5.84544,0.71474 -13.32319,5.76962 0.30411,-2.49343 0.71226,-0.43189 -1.44791,0.824 -2.17186,1.23599 -5.24794,3.71525 -9.4243,8.51617 -12.964,13.8756 -3.92717,6.10156 -7.49509,12.42779 -10.72141,18.92854 -1.92685,3.81702 -9.94431,19.3851 -14.35974,11.67749 -0.28253,-3.3263 -0.2799,-6.67075 -0.26817,-10.00643 0.12459,-6.35482 0.51122,-12.69807 1.48974,-18.98576 0.6638,-4.99011 1.44735,-9.96347 2.12138,-14.95026 0,0 10.22404,-5.02797 10.22404,-5.02797 z" />
    <path
       style="fill:#000000;fill-opacity:1;fill-rule:nonzero;stroke:#000000;stroke-width:7;stroke-linecap:round;stroke-linejoin:round;stroke-miterlimit:4;stroke-opacity:1;stroke-dasharray:none;stroke-dashoffset:0"
       id="path2891"
       d="m 359.3617,620.16975 c -0.45565,5.35459 -0.86628,10.71179 -1.20487,16.07546 -0.69465,8.85407 -1.51627,17.6975 -2.24887,26.54853 -0.61201,7.44011 -1.12369,14.88782 -1.55797,22.34027 -0.28999,4.95355 -1.165,9.84473 -1.64585,14.7775 -0.0387,0.65777 -0.0774,1.31554 -0.11613,1.97331 0,0 -10.11799,5.08521 -10.11799,5.08521 l 0,0 c 0.0347,-0.67127 0.0695,-1.34253 0.10423,-2.0138 0.42932,-4.93712 1.38124,-9.81765 1.70746,-14.76785 0.45995,-7.47037 0.98954,-14.93615 1.60959,-22.39507 0.7375,-8.83784 1.54767,-17.66964 2.23242,-26.51174 0.30464,-5.31694 0.64533,-10.63149 1.08601,-15.93913 0,0 10.15197,-5.17269 10.15197,-5.17269 z"
       transform="translate(-124.40777,185.01411)" />
  </g>
</svg>
