<?xml version="1.0" encoding="UTF-8" standalone="no"?>
<!-- Created with Inkscape (http://www.inkscape.org/) -->
<svg
   xmlns:dc="http://purl.org/dc/elements/1.1/"
   xmlns:cc="http://creativecommons.org/ns#"
   xmlns:rdf="http://www.w3.org/1999/02/22-rdf-syntax-ns#"
   xmlns:svg="http://www.w3.org/2000/svg"
   xmlns="http://www.w3.org/2000/svg"
   xmlns:sodipodi="http://sodipodi.sourceforge.net/DTD/sodipodi-0.dtd"
   xmlns:inkscape="http://www.inkscape.org/namespaces/inkscape"
   width="1462.5522"
   height="1205.0924"
   id="svg2"
   sodipodi:version="0.32"
   inkscape:version="0.46"
   version="1.0"
   sodipodi:docname="c3d1.svg"
   inkscape:output_extension="org.inkscape.output.svg.inkscape">
  <defs
     id="defs4">
    <inkscape:perspective
       sodipodi:type="inkscape:persp3d"
       inkscape:vp_x="0 : 526.18109 : 1"
       inkscape:vp_y="0 : 1000 : 0"
       inkscape:vp_z="744.09448 : 526.18109 : 1"
       inkscape:persp3d-origin="372.04724 : 350.78739 : 1"
       id="perspective10" />
  </defs>
  <sodipodi:namedview
     id="base"
     pagecolor="#ffffff"
     bordercolor="#666666"
     borderopacity="1.0"
     gridtolerance="10000"
     guidetolerance="10"
     objecttolerance="10"
     inkscape:pageopacity="0.0"
     inkscape:pageshadow="2"
     inkscape:zoom="0.35"
     inkscape:cx="375"
     inkscape:cy="520"
     inkscape:document-units="px"
     inkscape:current-layer="layer1"
     showgrid="false"
     inkscape:window-width="1270"
     inkscape:window-height="785"
     inkscape:window-x="0"
     inkscape:window-y="0" />
  <metadata
     id="metadata7">
    <rdf:RDF>
      <cc:Work
         rdf:about="">
        <dc:format>image/svg+xml</dc:format>
        <dc:type
           rdf:resource="http://purl.org/dc/dcmitype/StillImage" />
      </cc:Work>
    </rdf:RDF>
  </metadata>
  <g
     inkscape:label="Layer 1"
     inkscape:groupmode="layer"
     id="layer1"
     transform="translate(305.21708,124.55022)">
    <path
       style="fill:#000000;fill-opacity:1;fill-rule:nonzero;stroke:none;stroke-width:1px;stroke-linecap:butt;stroke-linejoin:miter;stroke-opacity:1"
       id="path2393"
       d="M -299.57347,581.535 C -306.18991,571.00689 -305.43504,558.38051 -304.84494,546.46876 C -302.61613,521.38347 -295.33327,497.1382 -288.23026,473.09411 C -277.84454,437.35222 -264.85814,402.49877 -250.61898,368.13939 C -234.58799,327.49952 -214.13907,289.01531 -191.54551,251.70973 C -167.73033,212.46912 -138.44925,177.17012 -107.48707,143.45197 C -74.251241,107.45945 -35.73566,77.185274 3.6184989,48.268991 C 24.395897,33.501515 45.913603,19.786513 67.951306,6.9806273 C 97.168549,-9.9972166 117.31108,-22.271761 145.37932,-36.122561 C 153.14208,-39.953239 161.04481,-43.49348 168.87756,-47.17894 C 217.11085,-69.574103 267.84707,-85.40664 319.0911,-99.16937 C 362.89175,-110.20219 407.61977,-117.72905 452.64024,-121.50193 C 461.72358,-122.26314 470.83332,-122.66712 479.92986,-123.24972 C 534.07823,-126.83378 588.16577,-122.59842 641.83558,-115.57289 C 675.06242,-110.41523 707.98718,-102.88264 739.78399,-91.862347 C 758.98272,-85.208356 765.40663,-82.079823 784.01976,-74.126206 C 812.51935,-60.924791 839.86618,-45.231529 865.66737,-27.316601 C 882.23535,-15.812701 887.10398,-11.517769 902.89057,1.0433323 C 938.63743,30.360767 969.60636,64.678345 998.09623,100.93174 C 1020.0352,130.57747 1038.6494,162.67515 1053.0273,196.65454 C 1055.852,203.33028 1058.3516,210.13897 1061.0138,216.88118 C 1070.913,244.94626 1078.5472,273.90398 1082.8655,303.37548 C 1085.6049,322.07075 1085.8705,330.90396 1087.2066,349.79375 C 1088.5313,389.25709 1085.724,428.88937 1077.9954,467.6372 C 1076.4646,475.31222 1074.5513,482.90598 1072.8292,490.54037 C 1061.7631,536.80736 1043.6043,580.76926 1023.1545,623.56253 C 1000.9647,668.35563 973.76227,710.27349 944.08094,750.39701 C 924.02719,775.9052 902.11878,800.03111 878.1233,821.89938 C 863.97758,834.79107 856.63045,840.32371 841.72722,852.31335 C 793.70334,889.10166 740.50713,918.69473 686.48994,945.69518 C 641.83263,967.33387 595.48398,985.05735 548.75545,1001.6142 C 502.31268,1017.7851 454.71844,1030.2965 407.15249,1042.6482 C 362.08566,1054.9809 316.15682,1063.5738 270.06547,1070.986 C 226.8155,1077.7869 183.03288,1079.4485 139.33862,1080.5009 C 111.84409,1080.7747 84.25311,1079.7358 56.990384,1075.9353 C 40.843357,1073.6843 34.694736,1072.0014 18.914566,1068.5081 C -9.6435565,1061.9005 -37.204373,1051.5831 -62.514272,1036.7269 C -67.210811,1033.9701 -71.721761,1030.9087 -76.325506,1027.9997 C -102.27067,1010.5717 -124.4293,988.43787 -144.6463,964.77324 C -162.4612,942.72587 -177.65414,918.786 -192.17995,894.49883 C -204.19192,874.16269 -214.80594,853.03805 -223.77967,831.19671 C -231.2282,813.33073 -235.96754,794.60354 -238.9846,775.53397 C -241.02172,760.81572 -241.24369,745.95341 -241.49373,731.12492 C -241.8381,721.00847 -240.54404,710.94331 -239.66247,700.88558 C -239.20422,696.23391 -237.79415,691.7654 -236.84156,687.20816 C -235.62539,683.06751 -234.59076,680.44863 -234.84214,675.92227 L -197.56425,656.37106 C -196.77044,660.94174 -196.20865,664.76123 -198.49123,668.71119 C -199.54665,673.21938 -200.8364,677.65178 -201.99072,682.1353 C -203.00167,692.14527 -204.66434,702.13714 -204.46431,712.22455 C -204.5041,726.93606 -204.30974,741.68478 -202.60148,756.31439 C -199.98224,775.16258 -195.43654,793.65876 -188.2567,811.32846 C -179.4701,833.03863 -169.21424,854.12411 -157.34974,874.33184 C -143.08531,898.50937 -128.23467,922.39925 -110.44228,944.1889 C -90.579236,967.61871 -68.674374,989.4337 -43.00992,1006.5453 C -30.620154,1014.3177 -28.128915,1016.2817 -14.982928,1022.9009 C 5.9535165,1033.4428 28.220984,1040.9163 51.026754,1046.2261 C 67.306588,1049.8045 71.980066,1051.1714 88.668195,1053.4407 C 115.77972,1057.1275 143.19831,1058.0506 170.52743,1057.7249 C 214.05035,1056.6589 257.64818,1054.8423 300.71127,1047.9606 C 346.6543,1040.4839 392.42636,1031.8389 437.3529,1019.5108 C 484.8325,1007.1633 532.32435,994.60284 578.63585,978.30548 C 625.31281,961.66462 671.59293,943.78786 716.1375,921.96627 C 723.42813,918.26855 730.77961,914.68841 738.0094,910.8731 C 745.10926,907.12635 751.94215,902.87678 759.1207,899.28311 C 763.22082,897.23054 743.38585,908.70221 747.25637,906.24396 C 753.97467,901.977 760.96794,898.15203 767.6671,893.85508 C 784.15306,883.28072 790.61063,878.12027 806.33937,866.51468 C 820.70035,855.09133 829.23364,848.65342 842.8983,836.38438 C 867.02534,814.72153 889.06638,790.75768 909.26331,765.41648 C 939.08365,725.59017 966.3114,683.89996 988.53469,639.29554 C 1008.9758,596.76383 1027.1699,553.07864 1038.4205,507.10742 C 1040.1841,499.52475 1042.146,491.98547 1043.7113,484.3594 C 1051.6005,445.92363 1054.4811,406.55805 1053.3073,367.37035 C 1052.0324,349.51398 1051.6214,339.05152 1049.0354,321.3681 C 1044.7645,292.16357 1037.1172,263.47621 1027.3558,235.65656 C 1020.4685,218.20265 1018.7434,212.93873 1010.6599,196.01044 C 997.98401,169.46492 982.65329,144.22099 965.17001,120.572 C 936.8722,84.551484 906.1063,50.455502 870.55391,21.373766 C 854.70874,8.8466792 850.09875,4.7895976 833.49329,-6.6948874 C 807.8301,-24.443777 780.65421,-39.989825 752.27259,-52.960495 C 733.76318,-60.83153 727.4446,-63.899115 708.36036,-70.477641 C 676.79886,-81.357204 644.12577,-88.831724 611.15153,-93.879516 C 557.65627,-100.77218 503.75239,-104.8338 449.80559,-101.05782 C 440.74393,-100.43988 431.66821,-100.00168 422.6206,-99.203988 C 377.67275,-95.241123 333.03932,-87.530503 289.3396,-76.327599 C 238.17046,-62.355279 187.50551,-46.349252 139.40415,-23.70446 C 131.58881,-19.972959 123.7032,-16.38522 115.95814,-12.509957 C 108.28216,-8.6692615 100.94009,-4.1620695 93.149022,-0.56057227 C 89.603569,1.0783484 106.55259,-8.5880688 103.18677,-6.606265 C 81.265693,6.3009162 59.501497,19.507653 38.798049,34.32463 C -0.47974329,63.005297 -38.996148,92.973133 -72.238566,128.68571 C -103.24412,162.11522 -132.5202,197.18712 -156.41301,236.16158 C -178.99626,273.22143 -199.6067,311.37356 -215.39207,351.8965 C -229.44155,385.97017 -242.29376,420.52119 -252.27835,456.03437 C -258.96979,479.62459 -266.07079,503.36902 -268.02837,527.92762 C -268.50185,538.54573 -269.63744,550.63003 -263.16064,559.77173 L -299.57347,581.535 z" />
    <path
       style="fill:#000000;fill-opacity:1;fill-rule:nonzero;stroke:none;stroke-width:1px;stroke-linecap:butt;stroke-linejoin:miter;stroke-opacity:1"
       id="path2395"
       d="M -170.15172,568.20376 C -168.91461,560.2607 -166.56037,552.58043 -164.15894,544.93083 C -160.73291,535.0941 -156.98133,525.38986 -152.84385,515.83176 C -147.41225,503.20661 -141.96889,490.60065 -135.76428,478.33368 C -128.45828,463.78839 -120.64285,449.49651 -112.14106,435.61603 C -101.537,419.1619 -90.588741,402.93373 -78.661148,387.40884 C -65.407474,369.43681 -49.785266,353.49877 -34.065734,337.71781 C -17.608761,320.95367 0.96551235,306.64039 20.358437,293.48343 C 40.247888,280.4329 60.246009,267.57781 80.81315,255.61918 C 112.36719,235.21712 146.22536,219.18248 179.93027,202.84232 C 202.66831,191.82538 225.30742,180.60628 247.9313,169.35732 C 272.54748,156.8672 296.89009,143.84744 321.61348,131.57068 C 348.74505,118.52813 376.40513,106.57579 404.5157,95.810357 C 431.60595,85.032277 459.66517,77.695332 488.1105,71.605295 C 516.05546,66.125047 544.32657,62.769191 572.78498,61.992207 C 599.46725,61.203604 625.99943,64.349768 652.05511,69.865094 C 676.46098,74.8576 699.48491,84.336718 721.66444,95.445393 C 745.03814,106.72045 765.81586,122.15899 785.64627,138.71148 C 806.13846,156.21295 825.06302,175.41296 843.29692,195.22436 C 861.86442,215.60723 878.49591,237.58735 894.17008,260.23632 C 908.40114,281.91944 921.38746,304.44632 933.23015,327.51732 C 943.58773,347.90443 950.42597,369.61597 955.67229,391.79064 C 959.6655,411.22142 960.9128,431.06806 960.76891,450.86365 C 961.21518,469.48155 956.96831,487.3004 951.43129,504.90269 C 945.3802,522.4335 935.99672,538.5944 926.47208,554.42951 C 916.10152,571.5572 903.85577,587.39811 891.5188,603.12649 C 877.51629,620.54583 862.93727,637.48204 847.45558,653.60088 C 830.84939,670.53113 813.88578,687.09824 796.59555,703.32716 C 777.95543,720.97688 757.96723,737.07799 737.62727,752.70569 C 716.7278,768.66876 694.72931,783.09072 672.16348,796.56558 C 637.57279,817.39782 602.30857,836.94654 566.12459,854.82707 C 541.69745,866.28284 516.66611,876.36788 491.27832,885.47484 C 466.53462,895.1189 441.03181,902.45807 415.37148,909.18069 C 390.33845,915.04068 365.00364,919.4417 339.53198,922.86614 C 314.74802,926.02166 289.75728,926.61859 264.80875,927.02185 C 241.54789,927.90824 218.4306,925.61279 195.38153,922.85208 C 173.32051,920.01149 151.47563,915.5923 130.08406,909.5173 C 109.3789,903.49635 89.373928,895.28461 69.685683,886.54924 C 51.496358,878.31464 34.008977,868.84976 17.365327,857.83367 C 2.8582458,847.8223 -10.904564,837.03535 -23.440299,824.64658 C -34.228218,814.05516 -43.506559,802.06579 -52.143234,789.69386 C -58.897542,778.66586 -66.026773,767.88696 -73.049919,757.02939 C -79.549444,747.36978 -84.321215,736.7346 -90.121017,726.67607 C -94.054991,719.201 -97.469585,711.47766 -101.95686,704.30979 C -104.17731,699.69532 -107.42445,695.72077 -110.09899,691.39793 C -111.87028,688.33615 -113.01849,684.9448 -114.24753,681.63756 L -77.301081,661.01412 C -76.014417,664.04443 -74.857199,667.13652 -73.395375,670.08051 C -70.759763,674.4379 -67.617452,678.49563 -65.469956,683.15034 C -61.197139,690.49421 -57.674503,698.18881 -53.867476,705.77963 C -48.236896,715.84457 -43.613605,726.46446 -37.128495,736.04578 C -30.122598,746.86154 -23.073844,757.63007 -16.413051,768.6634 C -7.9750439,780.85264 1.1115207,792.66679 11.699716,803.0847 C 24.02776,815.27289 37.603171,825.86911 51.870507,835.71877 C 68.336577,846.56393 85.656162,855.87051 103.63572,863.97811 C 123.19244,872.57381 143.03569,880.71422 163.62569,886.51472 C 184.92152,892.34123 206.61475,896.69718 228.54236,899.35554 C 251.42605,902.07222 274.3891,904.07837 297.46946,903.20795 C 322.29095,902.76944 347.15361,902.02444 371.79312,898.74296 C 397.15402,895.13919 422.41453,890.76421 447.31378,884.69037 C 472.88352,877.90075 498.22702,870.31264 522.92096,860.75788 C 548.19901,851.48011 573.19448,841.41085 597.48381,829.75894 C 609.61521,823.71814 621.68136,817.6055 633.59158,811.13611 C 637.56011,808.98048 649.2987,802.22288 645.46383,804.60821 C 638.08621,809.19716 630.4334,813.32855 622.95535,817.75196 C 619.09602,820.03482 630.72332,813.27068 634.60731,811.03004 C 657.22904,797.74049 679.27244,783.47626 700.19903,767.62413 C 720.59639,752.19984 740.56118,736.17475 759.22306,718.66689 C 776.46319,702.51548 793.38474,686.04018 809.96093,669.20531 C 825.48735,653.25938 840.09947,636.502 854.06628,619.17009 C 866.30472,603.56838 878.56876,587.94734 888.95844,571.01853 C 898.59513,555.51476 907.8347,539.5029 914.30163,522.3956 C 919.90901,505.14852 924.58243,487.74252 924.2395,469.41112 C 924.65344,449.90049 923.43154,430.31311 919.76852,411.11788 C 914.87837,389.17192 908.22291,367.71707 898.13562,347.53881 C 886.47392,324.57523 873.68565,302.13705 859.5777,280.58435 C 844.03416,258.06526 827.47883,236.2574 808.95705,216.07679 C 790.80029,196.41968 771.99882,177.34381 751.551,160.03966 C 731.85014,143.74829 711.10884,128.70719 687.93379,117.663 C 665.89724,106.93774 643.12509,97.662768 618.97571,92.883766 C 593.12084,87.673698 566.8371,84.693049 540.41588,85.670227 C 512.12463,86.731722 484.01097,90.097603 456.26303,95.799532 C 427.97959,102.01192 400.13404,109.66723 373.17981,120.39311 C 345.12589,131.34409 317.45054,143.29443 290.39747,156.53889 C 265.63483,168.98546 241.17299,182.01922 216.44341,194.53242 C 193.78968,205.78824 171.11738,217.00725 148.35357,228.03926 C 133.80888,235.10338 119.17615,242.02771 104.84128,249.51337 C 101.33887,251.34233 91.024069,257.17679 94.39543,255.11623 C 102.33601,250.26298 110.50393,245.79186 118.55817,241.12967 C 97.955311,252.94735 77.97596,265.73236 58.088239,278.71154 C 38.612797,291.58672 19.924346,305.60356 3.4077463,322.1913 C -12.244439,337.8463 -28.010498,353.49184 -41.211386,371.33957 C -53.161882,386.63769 -63.956553,402.74995 -74.538001,419.01933 C -83.136941,432.66553 -90.764533,446.90171 -98.01928,461.30001 C -104.28808,473.39615 -109.75843,485.84215 -114.94107,498.44246 C -119.06516,507.83973 -122.68693,517.40763 -126.21455,527.03741 C -128.55926,534.41494 -131.12936,541.84724 -132.0219,549.5623 L -170.15172,568.20376 z" />
    <path
       style="fill:#000000;fill-opacity:1;fill-rule:nonzero;stroke:none;stroke-width:1px;stroke-linecap:butt;stroke-linejoin:miter;stroke-opacity:1"
       id="path2397"
       d="M -174.75019,657.04979 C -167.3839,657.2088 -160.01485,657.1056 -152.64732,657.12676 C -145.72806,657.41555 -138.97207,657.09441 -132.15027,656.06621 C -125.66268,654.73168 -118.92692,655.21266 -112.47979,653.81273 C -107.11245,652.61278 -101.65946,651.82369 -96.171212,651.49492 C -91.717594,650.78622 -87.884409,651.71071 -83.705425,653.06762 C -80.429131,653.72521 -77.188045,655.10535 -74.508081,657.09647 C -72.267422,658.67366 -69.714605,659.41619 -67.066715,659.95802 C -51.356991,666.16093 -86.611907,673.24987 -100.62417,680.75938 L -61.317216,664.24928 C -120.00417,697.02333 -85.322253,689.6741 -102.26353,684.08452 C -105.08953,683.08158 -107.77946,681.81008 -110.27065,680.12376 C -113.03453,678.79738 -115.81041,677.70338 -118.82013,677.05533 C -122.59434,676.03664 -126.3782,676.30368 -130.25065,676.689 C -135.62819,677.26422 -140.94421,678.20394 -146.26352,679.16918 C -152.82268,679.82781 -159.41152,680.22193 -165.92248,681.31682 C -172.83155,682.18237 -179.77098,681.85794 -186.7218,681.88332 C -194.15998,681.90451 -201.59954,681.8025 -209.03655,681.96029 L -174.75019,657.04979 z" />
    <path
       style="fill:#000000;fill-opacity:1;fill-rule:nonzero;stroke:none;stroke-width:1px;stroke-linecap:butt;stroke-linejoin:miter;stroke-opacity:1"
       id="path2399"
       d="M -254.61574,551.01879 C -248.61744,555.89338 -241.20324,557.82212 -233.7329,559.04972 C -225.83705,560.08769 -217.8557,560.07564 -209.90691,560.09218 C -202.25705,560.09522 -194.60748,560.00611 -186.95769,560.00608 C -179.75315,559.79778 -172.63034,558.39049 -165.43427,557.7395 C -159.19668,556.14777 -152.86891,555.1114 -146.45973,554.57501 C -141.62176,554.22321 -136.77224,554.14528 -131.92345,554.13608 C -128.70393,554.12492 -125.48417,554.11909 -122.26463,554.13613 C -120.48744,554.12911 -121.19029,554.46918 -120.08211,553.28563 C -131.98352,560.0408 -143.88493,566.79598 -155.78633,573.55116 L -116.337,557.42888 C -165.52047,586.14612 -138.96085,579.48484 -156.6983,579.14031 C -159.8827,579.14092 -163.06697,579.10231 -166.25142,579.11193 C -170.97274,579.16649 -175.69983,579.26179 -180.39901,579.76588 C -186.74294,580.53653 -192.95823,581.97488 -199.28474,582.84464 C -206.51805,583.61594 -213.71631,585.00802 -221.01958,584.76807 C -228.66023,584.81071 -236.30154,584.81035 -243.94216,584.78396 C -252.04825,584.68778 -260.20084,584.61315 -268.19595,583.10307 C -276.22257,581.35051 -283.93863,578.63734 -290.53805,573.58254 L -254.61574,551.01879 z" />
    <path
       style="fill:#000000;fill-opacity:1;fill-rule:nonzero;stroke:none;stroke-width:1px;stroke-linecap:butt;stroke-linejoin:miter;stroke-opacity:1"
       id="path2401"
       d="M -188.99796,428.90365 C -181.03547,438.83606 -174.15385,449.5547 -166.86361,459.97249 C -159.729,470.24043 -151.74337,479.79106 -143.24427,488.9412 L -178.79379,510.48895 C -187.17131,501.03625 -195.08195,491.22765 -202.40233,480.9266 C -209.75647,470.61546 -216.68596,459.9046 -225.41079,450.66693 L -188.99796,428.90365 z" />
    <path
       style="fill:#000000;fill-opacity:1;fill-rule:nonzero;stroke:none;stroke-width:1px;stroke-linecap:butt;stroke-linejoin:miter;stroke-opacity:1"
       id="path2403"
       d="M -114.78307,293.4021 C -109.44012,307.57278 -105.74834,322.28574 -101.82013,336.89403 C -96.769049,354.03968 -92.486136,371.39551 -87.747958,388.62477 C -86.405039,393.69515 -84.994899,398.71564 -83.142459,403.62071 L -119.93298,423.96355 C -121.62313,418.82864 -122.81977,413.59814 -124.09217,408.34259 C -128.49673,391.00641 -132.61072,373.59503 -137.81913,356.47136 C -141.85977,342.11971 -145.40306,327.48928 -151.73778,313.93334 L -114.78307,293.4021 z" />
    <path
       style="fill:#000000;fill-opacity:1;fill-rule:nonzero;stroke:none;stroke-width:1px;stroke-linecap:butt;stroke-linejoin:miter;stroke-opacity:1"
       id="path2405"
       d="M -57.191698,153.05019 C -49.791746,167.31701 -43.670134,182.19767 -37.214184,196.90467 C -30.437236,213.62668 -25.234757,230.91722 -20.059369,248.18265 C -16.527931,257.97869 -15.504352,270.75081 -8.6431953,278.96365 L -44.94762,300.48698 C -51.431388,290.91869 -52.945789,278.80493 -56.24407,267.93847 C -61.163012,250.76207 -66.250344,233.60932 -72.927468,217.01382 C -79.349053,202.559 -85.310509,187.75114 -93.676381,174.28525 L -57.191698,153.05019 z" />
    <path
       style="fill:#000000;fill-opacity:1;fill-rule:nonzero;stroke:none;stroke-width:1px;stroke-linecap:butt;stroke-linejoin:miter;stroke-opacity:1"
       id="path2407"
       d="M 84.979265,52.750576 C 88.190815,66.633281 90.525235,80.673507 92.272736,94.808636 C 94.393845,116.05783 95.954447,137.35492 98.057062,158.60526 C 100.15463,173.56594 101.13209,188.78411 105.08485,203.41341 C 105.83424,205.39181 106.13186,208.41831 108.51827,209.0628 L 72.531835,231.73435 C 70.25283,229.26903 68.880094,226.72656 68.285249,223.32989 C 64.70053,208.28359 63.945257,192.76093 61.873592,177.46878 C 60.003714,156.25912 58.319185,135.03564 56.027353,113.86538 C 54.188025,100.15255 51.824325,86.485605 47.81636,73.217809 L 84.979265,52.750576 z" />
    <path
       style="fill:#000000;fill-opacity:1;fill-rule:nonzero;stroke:none;stroke-width:1px;stroke-linecap:butt;stroke-linejoin:miter;stroke-opacity:1"
       id="path2409"
       d="M 208.1449,-13.953497 C 214.96462,-3.5073717 217.48552,8.6141106 219.76518,20.679313 C 222.59994,41.535279 223.67646,62.610653 224.92916,83.613879 C 225.8463,102.69192 227.61809,121.7149 228.97729,140.76458 C 229.70457,142.50115 228.28988,152.29797 231.60093,152.92784 L 195.3498,175.24349 C 191.94629,170.71829 192.29461,165.22047 192.23198,159.75166 C 191.41038,140.56931 189.73563,121.44455 188.85905,102.26651 C 187.59819,81.509174 186.39921,60.677009 183.43131,40.087324 C 181.1378,28.813646 178.80777,17.199136 171.73206,7.8097826 L 208.1449,-13.953497 z" />
    <path
       style="fill:#000000;fill-opacity:1;fill-rule:nonzero;stroke:none;stroke-width:1px;stroke-linecap:butt;stroke-linejoin:miter;stroke-opacity:1"
       id="path2411"
       d="M 362.33981,-72.754542 C 366.97015,-60.676174 369.28033,-48.083613 370.81839,-35.294981 C 372.44806,-17.171447 372.47028,1.0413446 372.59427,19.222024 C 372.67389,35.607027 373.00901,51.978868 372.03219,68.34123 C 371.65576,76.682728 370.19418,85.044599 371.6539,93.344416 L 334.16286,113.20256 C 332.87594,104.41229 334.15381,95.693493 334.97346,86.905393 C 336.23692,70.574903 336.17517,54.228075 336.08077,37.853142 C 335.99573,19.858616 335.93913,1.8246542 334.25109,-16.10618 C 332.75729,-28.431459 330.66227,-40.64861 325.42505,-52.022118 L 362.33981,-72.754542 z" />
    <path
       style="fill:#000000;fill-opacity:1;fill-rule:nonzero;stroke:none;stroke-width:1px;stroke-linecap:butt;stroke-linejoin:miter;stroke-opacity:1"
       id="path2413"
       d="M 533.92914,-93.439492 C 539.73769,-82.877553 541.48428,-70.943399 542.78258,-59.138262 C 543.8196,-43.473469 541.87183,-27.831451 539.12427,-12.438028 C 536.57479,2.2498005 532.7684,16.674593 528.99435,31.083594 C 528.02169,37.809161 524.69259,44.815588 525.49431,51.735125 L 487.89091,71.623732 C 486.5335,64.016219 490.22158,56.390243 491.48128,48.985015 C 495.35861,34.620393 499.51659,20.297009 502.02477,5.6068594 C 504.97211,-9.372538 506.75315,-24.629999 506.07442,-39.922014 C 504.84379,-50.971997 503.48117,-62.434063 497.3764,-72.020695 L 533.92914,-93.439492 z" />
    <path
       style="fill:#000000;fill-opacity:1;fill-rule:nonzero;stroke:none;stroke-width:1px;stroke-linecap:butt;stroke-linejoin:miter;stroke-opacity:1"
       id="path2415"
       d="M 687.45197,-72.008449 C 687.39744,-60.093221 686.43558,-48.265256 684.34739,-36.538755 C 682.64984,-24.040092 678.33094,-12.304953 673.59274,-0.70967746 C 669.87724,7.6917054 666.02093,16.048566 662.00159,24.311944 C 661.49346,25.285005 660.98533,26.258065 660.4772,27.231126 L 621.99616,44.536233 C 622.52598,43.545901 623.0558,42.555568 623.58562,41.565236 C 628.23321,33.644192 631.41374,24.905421 635.69774,16.785756 C 640.35191,5.3444228 645.47194,-5.9695404 647.04283,-18.378224 C 649.19764,-29.716171 650.52867,-41.209411 649.69088,-52.768212 L 687.45197,-72.008449 z" />
    <path
       style="fill:#000000;fill-opacity:1;fill-rule:nonzero;stroke:none;stroke-width:1px;stroke-linecap:butt;stroke-linejoin:miter;stroke-opacity:1"
       id="path2417"
       d="M 810.51034,-0.84567953 C 812.27887,9.5822859 811.22401,19.750443 808.63692,29.915349 C 805.54608,41.347694 798.98021,51.08317 792.34091,60.695588 C 787.05477,68.726155 780.72851,75.952255 774.55908,83.292655 C 773.77513,84.221437 772.99118,85.150218 772.20722,86.079 L 733.3719,102.41379 C 734.20941,101.53388 735.04691,100.65397 735.88441,99.774062 C 741.85514,92.228418 748.77469,85.431071 754.08634,77.351673 C 760.5794,68.009365 767.59608,58.890064 770.95126,47.838072 C 773.8711,38.340844 775.31574,28.760565 773.03033,18.926162 L 810.51034,-0.84567953 z" />
    <path
       style="fill:#000000;fill-opacity:1;fill-rule:nonzero;stroke:none;stroke-width:1px;stroke-linecap:butt;stroke-linejoin:miter;stroke-opacity:1"
       id="path2419"
       d="M 907.45197,73.705837 C 907.50258,83.952475 905.495,93.888321 901.79773,103.40045 C 897.89321,113.15894 891.71436,121.33213 884.49989,128.83444 C 881.23478,132.49494 877.73847,135.88424 873.96745,139.01336 L 834.80334,154.86837 C 838.5442,151.60664 842.80023,148.95925 845.79195,144.8805 C 853.08235,137.7924 859.81632,130.40151 863.82443,120.87435 C 867.84414,112.11164 870.33103,102.67311 869.69088,92.946074 L 907.45197,73.705837 z" />
    <path
       style="fill:#000000;fill-opacity:1;fill-rule:nonzero;stroke:none;stroke-width:1px;stroke-linecap:butt;stroke-linejoin:miter;stroke-opacity:1"
       id="path2421"
       d="M 995.59164,162.81046 C 991.31498,175.68996 985.69249,188.04356 979.45559,200.07559 C 973.52322,212.38675 965.16207,223.14631 956.5732,233.67095 C 952.52367,238.75409 948.07914,243.47721 943.52709,248.10523 L 904.69415,264.24031 C 909.2745,259.53385 914.19337,255.17216 918.24839,249.96503 C 926.95165,239.63607 935.69216,229.20277 941.75923,217.03634 C 947.93741,205.47233 953.72009,193.64358 957.32702,180.98431 L 995.59164,162.81046 z" />
    <path
       style="fill:#000000;fill-opacity:1;fill-rule:nonzero;stroke:none;stroke-width:1px;stroke-linecap:butt;stroke-linejoin:miter;stroke-opacity:1"
       id="path2423"
       d="M 1049.8774,262.81046 C 1046.2509,274.27915 1041.4374,285.25734 1035.8848,295.90712 C 1029.2204,308.24014 1020.7793,319.39379 1012.1194,330.35915 C 1005.9153,338.35151 1000.0711,346.61101 994.33116,354.93983 L 956.08523,371.62756 C 961.80106,363.14432 967.8073,354.86581 973.95866,346.69324 C 982.52964,335.82054 991.29039,325.08074 998.04242,312.9228 C 1003.5352,302.70073 1008.5599,292.23493 1011.6127,280.98431 L 1049.8774,262.81046 z" />
    <path
       style="fill:#000000;fill-opacity:1;fill-rule:nonzero;stroke:none;stroke-width:1px;stroke-linecap:butt;stroke-linejoin:miter;stroke-opacity:1"
       id="path2425"
       d="M 1057.8787,412.10317 C 1049.4265,427.78758 1039.8396,442.78812 1030.0448,457.65553 C 1017.4074,476.95312 1003.4998,495.34254 989.32744,513.52381 C 979.36482,526.45035 968.56976,538.69451 958.20665,551.29098 L 920.32954,567.42318 C 930.73144,554.65452 941.92068,542.53398 952.02594,529.51079 C 966.18618,511.43567 980.23767,493.26085 992.76186,473.99073 C 1002.2842,459.55917 1011.7657,445.07321 1019.3872,429.51798 L 1057.8787,412.10317 z" />
    <path
       style="fill:#000000;fill-opacity:1;fill-rule:nonzero;stroke:none;stroke-width:1px;stroke-linecap:butt;stroke-linejoin:miter;stroke-opacity:1"
       id="path2427"
       d="M 1040.6257,560.42301 C 1031.2659,572.42597 1021.9745,584.50111 1012.8364,596.68065 C 998.39073,615.84727 983.31357,634.51988 968.32108,653.2574 C 951.98273,673.1668 935.64531,693.06199 919.83985,713.39904 C 910.98373,724.74992 915.39008,719.27261 906.64315,729.84895 L 869.03993,745.79381 C 878.11683,735.29081 873.57704,740.76107 882.62645,729.35582 C 898.51982,708.98491 914.89507,689.01595 931.32017,669.07313 C 946.11263,650.44811 961.04789,631.93748 975.29177,612.88428 C 984.07656,600.89592 993.33047,589.2817 1001.6709,576.97395 L 1040.6257,560.42301 z" />
    <path
       style="fill:#000000;fill-opacity:1;fill-rule:nonzero;stroke:none;stroke-width:1px;stroke-linecap:butt;stroke-linejoin:miter;stroke-opacity:1"
       id="path2429"
       d="M 901.06727,694.48673 C 892.44134,711.60791 883.14837,728.3895 873.59466,745.00756 C 858.73806,770.79176 843.03796,796.0117 826.14381,820.50587 C 810.62586,844.04656 793.15314,866.18933 775.09852,887.81347 C 767.95053,896.47559 760.14602,904.54693 752.3195,912.58635 L 714.5743,928.23623 C 722.65353,920.25787 730.75826,912.28401 738.02437,903.53704 C 756.35082,882.07237 773.98765,859.9702 789.5891,836.42058 C 806.50839,812.14111 822.29953,787.18031 836.83273,761.39 C 846.01344,745.30399 854.82708,728.98749 862.59644,712.16518 L 901.06727,694.48673 z" />
    <path
       style="fill:#000000;fill-opacity:1;fill-rule:nonzero;stroke:none;stroke-width:1px;stroke-linecap:butt;stroke-linejoin:miter;stroke-opacity:1"
       id="path2431"
       d="M 772.32533,765.92169 C 761.9911,778.94087 752.18773,792.3601 742.38655,805.78636 C 725.85362,829.12386 709.58634,852.63833 692.57039,875.62954 C 675.86853,897.312 659.10635,918.9611 640.41117,938.97404 C 637.91895,941.40879 635.42673,943.84353 632.93451,946.27828 L 595.2385,961.78586 C 597.82131,959.38512 600.40411,956.98437 602.98692,954.58363 C 622.18046,934.79625 639.19299,913.14388 656.07629,891.37914 C 672.99254,868.6245 689.0591,845.27758 705.12763,821.92044 C 714.48794,808.84068 723.64639,795.60558 733.51199,782.90383 L 772.32533,765.92169 z" />
    <path
       style="fill:#000000;fill-opacity:1;fill-rule:nonzero;stroke:none;stroke-width:1px;stroke-linecap:butt;stroke-linejoin:miter;stroke-opacity:1"
       id="path2433"
       d="M 615.2807,817.16634 C 605.76543,827.58105 597.07566,838.67172 588.33634,849.73271 C 573.94962,868.4712 560.73365,888.07016 547.22675,907.44444 C 533.99506,926.64356 519.78416,945.10298 504.61432,962.80217 C 497.75954,970.87342 489.99963,977.95813 481.36213,984.03932 L 442.64006,999.13569 C 451.84093,993.63773 459.88651,986.73957 467.0061,978.68881 C 482.47376,961.13759 496.97194,942.80539 510.25844,923.5357 C 523.61183,904.23284 536.78789,884.80079 550.66019,865.8662 C 559.08927,855.10019 567.16628,844.05129 576.27091,833.83281 L 615.2807,817.16634 z" />
    <path
       style="fill:#000000;fill-opacity:1;fill-rule:nonzero;stroke:none;stroke-width:1px;stroke-linecap:butt;stroke-linejoin:miter;stroke-opacity:1"
       id="path2435"
       d="M 440.62573,897.56586 C 431.01646,907.86444 422.33946,918.95587 413.32274,929.76173 C 400.43465,944.73851 387.5164,959.68906 374.79386,974.80707 C 360.81157,991.21355 346.2745,1007.1779 331.17704,1022.5665 C 324.69211,1029.3216 317.68501,1035.5107 310.57411,1041.586 L 272.43864,1056.9786 C 279.74899,1051.0364 286.96253,1044.98 293.51107,1038.1826 C 308.77426,1023.0125 323.23151,1007.0113 337.29285,990.73049 C 349.86287,975.63471 362.63901,960.71076 375.47302,945.83947 C 384.26579,935.30956 392.52376,924.34842 401.67092,914.11681 L 440.62573,897.56586 z" />
    <path
       style="fill:#000000;fill-opacity:1;fill-rule:nonzero;stroke:none;stroke-width:1px;stroke-linecap:butt;stroke-linejoin:miter;stroke-opacity:1"
       id="path2437"
       d="M 266.4375,908.81996 C 256.45537,918.49001 248.6693,929.99521 240.81079,941.37086 C 228.99486,958.54696 217.61826,976.01976 205.8128,993.20228 C 196.57241,1006.1237 187.3814,1019.1107 176.2723,1030.5102 L 137.69596,1046.4099 C 149.61628,1035.5707 158.89933,1022.4239 168.39665,1009.4899 C 180.32899,992.46713 191.58704,974.98434 203.2379,957.76872 C 210.78208,946.49881 218.13409,935.09927 227.28772,925.03633 L 266.4375,908.81996 z" />
    <path
       style="fill:#000000;fill-opacity:1;fill-rule:nonzero;stroke:none;stroke-width:1px;stroke-linecap:butt;stroke-linejoin:miter;stroke-opacity:1"
       id="path2439"
       d="M 172.23992,926.14184 C 163.56884,939.12188 155.39807,952.41077 146.6323,965.33015 C 135.11391,981.79518 122.90753,997.79067 109.88684,1013.0955 C 90.004648,1036.4393 75.018578,1041.0168 45.141405,1057.6005 L 77.811882,1031.7439 C 14.444584,1069.6412 50.153604,1049.8452 59.780457,1041.5279 C 64.350063,1037.5799 68.029508,1033.4266 72.16304,1029.0302 C 85.471928,1014.0505 97.490468,997.98177 109.14847,981.69542 C 117.6621,969.13302 125.50174,956.19469 133.5974,943.36722 L 172.23992,926.14184 z" />
    <path
       style="fill:#000000;fill-opacity:1;fill-rule:nonzero;stroke:none;stroke-width:1px;stroke-linecap:butt;stroke-linejoin:miter;stroke-opacity:1"
       id="path2441"
       d="M 63.580361,871.6771 C 53.419996,881.10392 45.186713,892.32168 37.154835,903.5484 C 27.30126,917.79512 17.799401,932.28775 7.6140943,946.302 C 3.1880754,952.26023 -1.6773096,957.80407 -7.4775055,962.4342 L -46.610155,977.73453 C -39.945708,974.10879 -35.101458,968.51306 -30.320861,962.67778 C -19.86875,948.81341 -10.24319,934.35693 -0.57877679,919.93841 C 7.1590088,908.8282 14.956803,897.61702 24.430576,887.89347 L 63.580361,871.6771 z" />
    <path
       style="fill:#000000;fill-opacity:1;fill-rule:nonzero;stroke:none;stroke-width:1px;stroke-linecap:butt;stroke-linejoin:miter;stroke-opacity:1"
       id="path2443"
       d="M -16.147873,808.59491 C -24.145738,818.24728 -31.18895,828.58267 -37.858062,839.17876 C -47.839265,855.7872 -58.042048,872.24051 -68.526625,888.5357 C -74.120267,897.27215 -80.416753,905.41573 -87.442804,913.02812 L -125.80223,928.99995 C -118.39223,921.63441 -111.74845,913.77017 -106.0134,904.99986 C -95.502837,888.82754 -85.180537,872.56478 -75.571239,855.83525 C -69.204808,845.33327 -62.544017,835.07582 -55.157664,825.26138 L -16.147873,808.59491 z" />
    <path
       style="fill:#000000;fill-opacity:1;fill-rule:nonzero;stroke:none;stroke-width:1px;stroke-linecap:butt;stroke-linejoin:miter;stroke-opacity:1"
       id="path2445"
       d="M -67.835549,760.6746 C -75.889836,775.66896 -83.042363,791.1243 -90.450904,806.44263 C -95.766729,817.53382 -101.14693,828.57871 -106.75243,839.52614 L -143.51993,856.10509 C -137.89433,845.28133 -132.63577,834.31262 -127.4626,823.26507 C -120.34816,808.23818 -113.44182,793.11566 -106.32713,778.08941 L -67.835549,760.6746 z" />
    <path
       style="fill:#000000;fill-opacity:1;fill-rule:nonzero;stroke:none;stroke-width:1px;stroke-linecap:butt;stroke-linejoin:miter;stroke-opacity:1"
       id="path2447"
       d="M 402.03188,547.32845 C 414.88551,543.81275 427.78779,540.39314 440.63884,536.82095 C 463.10117,530.57998 485.38432,523.70708 507.70639,516.98287 C 539.33193,507.30353 570.72367,496.88924 602.29021,487.02173 C 642.91923,474.74156 683.69948,462.98745 724.45758,451.14826 C 770.86648,437.54346 816.45303,421.36211 861.91298,404.91528 C 905.74346,389.09906 949.06051,371.89996 992.19905,354.29677 C 1024.4713,340.61664 1057.0759,327.75926 1089.9938,315.72043 C 1109.6764,308.64051 1129.9785,303.23021 1148.4771,293.312 C 1138.5423,298.89617 1128.6075,304.48033 1118.6728,310.0645 L 1157.3352,294.9643 C 1143.6269,303.03088 1129.9186,311.09746 1116.2103,319.16404 C 1097.692,328.1192 1077.7449,333.35266 1058.4543,340.36128 C 1025.9495,352.1263 993.7936,364.80378 961.9032,378.14543 C 918.85746,395.52974 875.66637,412.58032 831.97722,428.29225 C 786.40552,444.73456 740.69492,460.86801 694.18194,474.4836 C 653.16196,486.46049 612.15357,498.47253 571.30138,511.01366 C 539.50231,521.09453 507.85711,531.65519 475.97988,541.48949 C 453.36337,548.36477 430.82211,555.50118 408.06017,561.88446 C 394.86152,565.64444 381.56902,569.08959 368.46709,573.17172 L 402.03188,547.32845 z" />
    <path
       style="fill:#000000;fill-opacity:1;fill-rule:nonzero;stroke:none;stroke-width:1px;stroke-linecap:butt;stroke-linejoin:miter;stroke-opacity:1"
       id="path2453"
       d="M 671.9459,623.19319 C 667.5632,611.65807 668.45368,601.04414 672.0173,589.48991 C 683.51241,563.01723 704.53118,557.84254 730.56182,543.07133 C 742.53301,540.41273 748.48626,542.05085 756.28454,551.56043 C 763.20838,562.73277 763.12147,575.97315 761.05074,588.52604 C 752.99388,619.3719 735.98929,620.89972 705.78129,638.07543 C 693.43207,641.45747 683.59712,633.82907 674.79261,626.13949 C 663.52478,614.9647 655.0914,601.49591 647.38705,587.73736 C 640.8014,575.49462 634.57271,563.06099 628.84013,550.39653 C 625.53691,542.65358 621.96023,535.02586 619.64519,526.91318 C 614.68537,510.5322 614.60974,522.14687 656.60912,504.7402 C 657.51824,504.36341 657.45443,506.51781 657.85803,507.41535 C 658.43603,508.70076 658.98846,509.99751 659.55368,511.28859 C 665.43032,525.23013 670.03371,539.65339 674.48928,554.0969 C 680.01713,572.13509 683.35615,590.65178 685.46312,609.36563 C 686.40492,621.40877 686.01758,633.68379 680.21889,644.4852 C 669.33798,658.72179 651.85,662.44098 635.41803,671.22279 L 669.01462,645.70402 C 607.85684,682.23821 630.50934,670.38382 641.78545,661.38428 C 649.32266,651.52922 649.17492,640.41246 648.99153,628.42577 C 647.23943,609.9068 644.08987,591.61286 638.55367,573.81138 C 633.9942,559.65093 629.33503,545.46985 622.97813,531.99146 C 622.36698,530.77258 621.7719,529.54551 621.14467,528.33483 C 620.67076,527.42011 618.84584,526.22724 619.6751,525.61599 C 654.34405,500.0612 653.16658,489.38608 656.82354,506.7622 C 658.69875,514.80247 662.04446,522.31292 665.13437,529.94202 C 670.68432,542.56473 676.65055,554.99427 683.16032,567.15468 C 690.58047,580.51732 698.79474,593.60516 710.0236,604.14657 C 718.4824,611.07398 727.49962,616.88571 738.53679,612.0317 C 671.30572,652.33613 708.0925,633.2863 715.54225,623.6337 C 719.39678,618.63939 721.99913,612.70592 723.69012,606.6766 C 726.17911,595.47082 726.62599,583.29154 720.37824,573.17658 C 713.14122,565.10777 707.6341,565.67534 697.86189,569.18834 C 708.28265,563.04296 718.71381,556.91519 729.12416,550.75219 C 730.68167,549.83013 725.90196,552.42527 724.42067,553.46537 C 717.93845,558.01688 713.29525,564.87918 709.73408,571.81243 C 705.80268,582.20395 704.12315,591.94907 708.86066,602.46077 L 671.9459,623.19319 z" />
    <path
       style="fill:#000000;fill-opacity:1;fill-rule:nonzero;stroke:none;stroke-width:1px;stroke-linecap:butt;stroke-linejoin:miter;stroke-opacity:1"
       id="path2455"
       d="M 367.50416,581.66621 C 372.97083,569.90858 378.44103,558.15402 383.95245,546.41735 C 392.65269,526.82531 400.78038,506.99506 408.74574,487.09553 C 420.07646,459.59175 432.7147,432.65543 446.09542,406.09687 C 460.20888,378.62987 476.87063,352.61095 493.60276,326.6956 C 507.90705,305.79285 521.97995,284.73313 536.56206,264.0224 C 545.15841,251.70188 553.56404,239.23186 561.16457,226.26771 C 564.40256,220.57361 566.71273,214.44722 569.38277,208.48767 C 571.16174,203.9565 573.02926,199.47252 574.54184,194.84441 C 576.28679,189.0927 579.3361,183.90409 582.20535,178.66546 C 585.74067,171.47199 590.11008,164.75091 594.09031,157.80477 C 597.39387,151.61836 600.94097,145.5701 604.41372,139.47841 C 606.29758,136.58556 607.92101,133.56927 609.16354,130.35116 C 609.77607,129.27499 610.22152,128.04365 611.28466,127.35811 L 650.11952,109.65008 C 649.90896,111.17783 649.1202,111.88254 648.09402,113.02693 C 645.75288,115.62539 645.64744,119.81922 643.06755,122.35526 C 639.27667,128.30855 635.84787,134.51926 632.48544,140.7193 C 628.47915,147.54356 624.27647,154.27506 620.712,161.33568 C 618.10145,166.52189 614.67728,171.35722 612.93253,176.92609 C 611.11803,181.49985 609.80596,186.28372 607.85825,190.81843 C 605.26304,197.06201 602.38569,203.19504 599.40064,209.26643 C 591.6446,222.60015 582.61588,235.14973 573.8592,247.83284 C 559.02234,268.58327 544.69655,289.6823 530.16283,310.64554 C 513.32027,336.46502 496.51906,362.36846 482.27367,389.74476 C 468.96802,416.07072 456.45914,442.8019 445.36002,470.14088 C 437.6531,489.96742 429.73845,509.70048 421.47739,529.30316 C 416.22336,540.82563 410.83677,552.29193 405.97499,563.98775 L 367.50416,581.66621 z" />
    <path
       style="fill:#000000;fill-opacity:1;fill-rule:nonzero;stroke:none;stroke-width:1px;stroke-linecap:butt;stroke-linejoin:miter;stroke-opacity:1"
       id="path2457"
       d="M 363.84644,311.17366 C 359.89153,312.05586 356.39395,313.6713 352.88309,315.64424 C 351.3654,316.49711 346.83641,319.09807 348.35561,318.24789 C 380.65082,300.17495 388.19622,293.48083 374.14057,305.04762 C 362.12848,316.02695 353.7486,329.94007 346.88638,344.5284 C 341.95298,356.13415 336.96562,368.31212 338.77914,381.11405 C 341.45635,389.47678 346.46657,386.65247 352.6853,383.77374 C 368.04905,373.8627 346.18647,388.07348 324.71672,399.19057 C 323.02242,400.06788 327.69317,396.79839 329.0994,395.50889 C 334.03277,390.98504 338.10265,385.80265 342.18071,380.52633 C 350.37566,368.68154 358.5008,356.79354 366.77525,345.00129 C 375.98586,331.41892 401.09771,298.79787 416.16566,314.66532 C 420.21381,321.40584 420.64999,329.57317 421.73048,337.19689 C 422.77755,347.99301 425.13834,358.58125 427.40722,369.16689 C 429.25619,374.39466 429.72161,380.51519 432.89493,385.19001 C 433.04264,385.18533 433.19035,385.18066 433.33806,385.17599 L 397.17522,407.81491 C 396.82632,407.40053 396.47743,406.98614 396.12853,406.57176 C 393.00525,401.18067 392.29276,394.82479 390.47333,388.93056 C 388.40615,378.22986 385.88694,367.60113 384.76348,356.73982 C 383.72659,350.3536 383.31115,343.16499 380.174,337.43134 C 373.2009,349.64045 379.31136,338.77994 415.39544,317.66096 C 416.0567,317.27395 413.86441,317.97328 413.20901,318.37013 C 409.41953,320.66467 407.82444,325.21417 404.99497,328.39422 C 396.63585,340.23244 387.97848,351.85129 380.23972,364.12087 C 363.79943,386.80343 349.16448,397.61588 319.50789,409.65684 C 310.27005,412.08568 304.77094,410.34294 301.6839,400.70589 C 299.59443,387.05129 304.0476,374.11217 309.42194,361.6512 C 315.94656,346.70578 324.20275,332.49499 335.62953,320.71644 C 351.66546,305.59418 339.44392,316.48171 380.90101,292.01346 C 386.11443,288.93647 391.81547,286.76292 397.76668,285.6628 L 363.84644,311.17366 z" />
  </g>
</svg>
